<svg xmlns="http://www.w3.org/2000/svg" viewBox="0 0 144 144" xmlns:v="https://vecta.io/nano"><circle fill="#e4bcee" cx="72" cy="72" r="70.5"/><path d="M3.248 71.908 72.05 3.107l68.801 68.801L72.05 140.71z"/><path d="M72 141.3L2.7 72 72 2.7 141.3 72 72 141.3zM3.7 72L72 140.3 140.3 72 72 3.7 3.7 72zm5.65 0L72 9.35 134.65 72 72 134.65z" fill="#fff"/><path d="M72 136.7L7.3 72 72 7.3 136.7 72 72 136.7zM11.4 72L72 132.6 132.6 72 72 11.4 11.4 72zm.163.02L72.02 11.563l60.458 60.457-60.458 60.458z"/><path d="M72 134.3L9.7 72 72 9.7 134.3 72 72 134.3zM13.4 72L72 130.6 130.6 72 72 13.4 13.4 72zm51.9-28.1v2.2h-2.8v9h-2.6v-9h-2.8v-2.2h8.2zm9.8 0V55h-2.6v-4.6H69V55h-2.6V43.9H69v4.4h3.5v-4.4h2.6zM85.4 46h-5.3v2.3h4.2v2.1h-4.2v2.4h5.3V55h-8V43.9h8V46zM50.6 93.5V98H48V86.8h4.9c.9 0 1.6.1 2.2.3.5.2 1 .6 1.4 1.2s.5 1.2.5 1.9c0 1.3-.6 2.3-1.9 2.9l2.1 4.9h-2.9l-1.7-4.4h-2v-.1zm0-4.7v2.8h1.6c.5 0 .9 0 1.1-.1s.4-.2.6-.5.3-.5.3-.9c0-.3-.1-.6-.3-.8s-.4-.4-.6-.5-.6-.1-1.2-.1l-1.5.1zm12.1 9.3c-1.5 0-2.7-.6-3.5-1.7S58 93.9 58 92.3s.4-3 1.3-4.1c.8-1.1 2-1.6 3.6-1.6s2.7.6 3.5 1.7c.8 1.2 1.2 2.5 1.2 4 0 1.6-.4 3-1.2 4.1-.9 1.2-2.1 1.7-3.7 1.7zm.1-9.3c-1.4 0-2.1 1.2-2.1 3.6s.7 3.6 2.1 3.6c1.3 0 2-1.2 2-3.6s-.7-3.6-2-3.6zm15-2v7c0 1.1-.1 2-.4 2.5s-.7 1-1.4 1.3c-.7.4-1.6.5-2.6.5-1.1 0-1.9-.2-2.6-.5-.6-.3-1.1-.8-1.4-1.3-.3-.6-.5-1.4-.5-2.6v-7h2.8v7c0 .6.1 1 .2 1.3s.3.5.6.7.7.2 1.1.2a3.73 3.73 0 0 0 1.2-.2c.3-.2.5-.4.6-.6.1-.3.2-.7.2-1.4v-7l2.2.1zm9 0V89H84v9h-2.6v-9h-2.8v-2.2h8.2zm8.8 2.1h-5.3v2.3h4.2v2.1h-4.2v2.4h5.3V98h-8V86.8h8v2.1zm-58.4-8.5c-1.4.1-2.5 0-3.8-.1-1-6.1-1.6-12.7-2.6-18.9 1.5-.1 2.3.1 3.6.3.5 2.4.4 3.2 1.2 9.4 1.4-5.3 2.9-9.3 3.1-10 0 0 1.8.1 2.5.1.3 1.3 1.6 6.5 2.5 10 .7-3.1 1.1-7.8 1.3-9.5 0 0 1.4-.1 4.2-.2-1.2 6.2-2.2 12.6-3.3 18.9h-3.3c-.8-3.6-1.3-5.9-2.7-9.9-1.4 4-1.8 6.4-2.7 9.9zm72.1.5c-1 .3-1.9.2-2.8 0-.2-3.9.3-8.4-.2-9.4-.8-.6-1.8-.1-1.8 1.2 0 2.5-.2 5.5-.2 7.9-.9.6-1.6.5-2.5.2V67.4c1-.1 2.3-.8 2.5 1.3.6-.9 1.8-2.2 3.1-1.6 1.4.7 1.9 4 1.9 5.3.1 3.4 0 5.2 0 8.5zM58 77.5c1.2-1.3 3.6 1.9 5 .1.2-.8 0-1.6-.8-2.3l-2.5-2.2c-1.1-1-1.4-2.8-.8-3.9.9-1.6 2.4-2.2 4.1-2.1 1.4.1 2.5.7 3.1 2 .2.5 0 1-.5 1.4-.5.3-1 .4-1.4 0-.8-.7-2.1-1.2-2.8-.4-.5 1.2 1.5 2.2 2.7 3 1.9 1.2 1.8 3.1 1.5 4.9-.1 1.2-.9 2.7-2.3 2.9-.2 0-3.2.6-5-1-.5-.8-.8-1.4-.3-2.4zm12.4-13.4c.1.9 0 2.2.1 3.2h1.9v2.6h-2.1s-.2 5.1 0 8.3l1.1.1s.1 2.2 0 2.5c-2.7.4-3.5-1.6-3.6-4V66c-.1-1.7.8-2.1 2.6-1.9zm43.6 0c.1.9 0 2.2.1 3.2h1.9v2.6h-2.1s-.2 5.1 0 8.3l1.1.1s.1 2.2 0 2.5c-2.7.4-3.5-1.6-3.6-4V66c-.1-1.7.8-2.1 2.6-1.9zM98.8 80.9h-1.1a.68.68 0 0 1-.7-.7V68.3c0-.4.4-.8.8-.8h1.1a.68.68 0 0 1 .7.7v11.9c0 .4-.4.8-.8.8zm.8-17.7v1.9a.47.47 0 0 1-.5.5c-.4 0-1 0-1.5.1-.4 0-.7-.3-.7-.6v-1.8a.68.68 0 0 1 .7-.7h1.2c.5 0 .8.3.8.6zm-18.2-1.7c-1.7-.1-3.3 0-5.2 0l-.1 18.8h3.1s.1-1.4.1-1.8v-3.3s3-1.7 3.9-2.5c1.5-1.6 1.7-1.6 2.5-3.3 1.8-3.9 1.6-7.7-4.3-7.9zm-2.2 10.1V65c1.2-.4 3.5 0 3.5 0 1.1.7.3 3.8-3.5 6.6zm16.3-1.3c0-1.7-2.2-3.2-3.9-3.2-1.7-.1-3.9 1.1-3.9 3.1 0 1.2.1 2.4.1 3.5v4.5c0 1.6 2.4 2.7 3.9 2.8 2 .2 3.9-1.8 3.9-2.9-.2-3-.1-4.3-.1-7.8zm-3.3 7.6H91a.47.47 0 0 1-.5-.5v-6.5a.65.65 0 0 1 .6-.6h1c.4 0 .8.3.8.8l.1 6.2c0 .2-.4.6-.8.6zm-40.4-.2c-.2-1.3.8-1.7 1.6-2.3 1.7-1.4 3.6-2.8 3-5.6-.3-1.7-1.9-3.2-3.6-3.3-1.3 0-3.8 1.8-3.9 3.1-.1 2.9-.1 5.5.1 8.4.1 2 2.5 3.2 4.9 2.7 1.6-.3 2.7-1.3 2.1-3.1-.9-1.4-2.6 1.5-4.2.1zm-.1-7c.2-.6.2-1 .8-1.3.4-.2.9.1 1.1.4s.2 1.1-.1 1.8c-.2.5-1.1.9-1.9 1.4 0-.8-.1-1.8.1-2.3z" fill="#fff"/></svg>