<svg xmlns="http://www.w3.org/2000/svg" viewBox="0 0 144 144" xmlns:v="https://vecta.io/nano"><circle fill="#c13c7d" cx="72" cy="72" r="70.2"/><path d="M92.9 35c.1.6-.5 1-.6 2.1-.4 3.8-.3 9.1-.1 13.2 0 1.7.1 3.2.6 4.5-1.2-.3-2.6-.3-4-.4-.6-3.4-2.3-5.7-3.9-8.2-.6 2.3-.1 5.4.8 8-1.8 0-3.9-.4-5.6-.1.8-1.9.6-4.4.5-7.4-.3-4.5 0-9.1-1.4-11.5 1.8 0 3.4-.3 5.3-.3 1 2.7 1.9 5.7 3.6 7.8.5-2.2.8-5.7-.1-7.7 1.2 0 1.9.3 3 0 .1-.5 1.1.4 1.9 0zm-18.8 1.1c-.4 3.2.9 7.3 1.8 10.4.9 3 1.7 5.7 2.6 7.9-1.6-.3-3.4 0-5.4.1.4-1.2.4-3-.4-3.9-.8-.1-1.9.3-3.1.3-.6.8-.6 2.7-.3 3.8-1.7.1-3.4.8-4.7.8 1.4-3.5 2.3-9.1 2.6-13.9.1-1.7.1-3.4-.4-4.7 2.5-.4 4.8-.7 7.3-.8zm-4.2 11.8c.6-.1 1.6-.1 2.1-.4-.5-1.3-.5-3-1.3-4-.4 1.4-.5 2.9-.8 4.4zm33.8-10.5c.4 1.6.8 3.1.9 4.8-.8-.4-2.1-1-3-.8-.3 4.8-.8 11 .5 14.9-1.7-.1-3.8-.9-6-.8 1.3-4 .6-10 .8-14.7-.6-.1-1.8-.1-2.5 0 0-1.8.5-3 .8-4.7 3 .1 5.7.7 8.5 1.3zm2.3.5c2.1.4 4 .9 5.8 1.3-1.2 2.3-1 7.1-1 10.9 0 3 0 6.2.9 8.3-1.7 0-3.5-1-5.6-1.2 1-4.5 1-12.2.5-17.3 0-.6-.4-1.3-.6-1.8v-.2zm-44.5.1c-1.2 4-1 9.9-.6 14.3 1.6-.1 2.6-1.4 3.4-1.8-.1 2.1-.8 3.6-1.2 5.4-2.9.8-5.4 1.8-8 2.7 1-5.6 1.3-14.4.1-19.6 2.1-.1 3.8-.9 6.3-1zm-7.7 6.4c-1.2-.3-2.6-.1-3.5.3 0 5.3-.6 11.7 1 15.6-2.2.6-4.2 1.6-6.1 2.5 1.2-4.7.8-10.9.4-16.2-1.6-.3-3.1 1.2-3.9 1.8 0-1.8.1-3.5.4-5.1 3-1.4 6.4-2.6 10.1-3.4 1 1 1.2 2.9 1.6 4.5zm72.9-1.7c.1 2.2.3 4.9 0 7.1-1.2-1.7-2.3-4.2-5.6-3.5-4.5.9-3.4 12.3 1.4 12.6 2.3.1 3.6-1.7 4.7-3.6 1.6 6-2.2 9.9-7.5 7.8-3.4-1.3-5.7-4.9-6-9.5-.4-5.7.8-11.7 6.1-11.8 1.6 0 2.2.9 3.9 1 1.2.3 2.1-.3 3-.1zM70.3 56.8c3 2.6 7.5 5.2 13.2 3.9.3-.9.4-2.5 1.2-3 2.1-1.3 4.4.5 4.4 1.9.1 2.1-1.7 3.5-3.9 3.8-3 .3-6.1-.6-9.1-1-5.4-.9-10.9-.9-14.3 2.1-3 2.5-4.4 7-4.2 12.3.4 4.8 2.6 8.6 5.4 11.3 4.4 4.4 14 6.9 20.6 2.5.1.4-.6 1-1.2 1.6-4.7 4-15.8 3.5-21.1.1-4.4-2.9-8.4-8.3-9.6-14.1-.8-3.6.4-8-1.4-10.5l20-10.9zm-1.5 10.4c.8 0 2.6.4 3.4 1 4.4 3.9 5.1 22.4-4.7 19.3-5.5-1.6-7.2-13.8-3.2-18.5 1-.9 2.6-1.8 4.5-1.8zm-1.5 5.3c-.9 2.3-.6 11.5 1.6 11.8s2.2-3.2 2.2-6.2c0-3.1.1-7.1-2.5-6.6-.6.1-1 .6-1.3 1zm38.3-.2c-.5.1-1.9-.9-2.7-1.2-1.2 0-3.5 0-3.8 1.4-.3 1.8 1.9 1.9 3.2 2.3s2.7 1 3.8 1.7c4 2.9 2.7 10.2-1.9 11.4-2.7.6-5.2-.8-7.9-.4-.4-2.1-.9-4.2-1.7-5.8.4-.1 1 .5 1.7.9 1.6.9 6.9 2.5 7.4-.8.6-3.8-4.9-3.4-7.4-5.2-1.7-1.3-3.4-4.7-1.7-7.3 1.8-2.5 5.1-1.8 8.4-1.9.8 0 1.3-.1 2.3-.5.2 1.7 0 3.8.3 5.4zm-25.7-5c2.5.4 5.8.3 8.3 0-.4.9-.4 2.1-.1 3.2 1.2 5.8 4 12.5 5.7 17.3-2.3-.3-4.5 0-7 .1.5-1.4.1-3.2-.4-4.4-1.3 0-2.7.1-4 .4-.8 1.2-.3 3 .1 4.2-1.9-.5-4.7-.1-6.9 0 1.7-2.1 2.1-5.3 2.7-8.6.6-3.1 1.4-6.5 1.7-9.5 0-.8 0-1.6-.1-2.3 0 0 .1-.1 0-.4zm3 12.4c.8.3 1.7-.1 2.6 0-.1-2.2-.8-3.9-1.2-5.7h-.4c-.4 1.8-.6 3.7-1 5.7zm26.2-11.9c4 .5 9.6.8 13.6.3.3 2.2.9 3.9 1.2 6.1-1.6-.6-3-1.4-5.2-1.6-.3 5.3-.3 11.3 1.3 15.2-2.7 0-5.2.3-7.9.1 1.7-4.3.9-10.8.8-15.7-1.7-.5-3.5.5-4.4 1 .2-1.5.5-3.8.6-5.4zm-7.9 28.3c.5 1.9 1 3.8 1.7 5.6-2.9-1.3-6.5-1.2-10.4-.9-.1.9-.4 2.2-.3 3 2.3.5 6.5.4 8.4-.5-.1 1.7-.4 3.1-.4 5.1-1.9-.8-5.3-.6-7.7-.6-.3.9 0 2.3-.1 3.4 4 .9 9.2.3 12.1-1.3-.5 2.1-.9 3.6-1.3 5.7l-17 .3c.9-2.2.8-5.2.8-8.2 0-4 .3-8.3-.9-11 5.2-.2 10.2-.2 15.1-.6zm-44.4.3c1.9-.3 4.3.4 6.4.3-1 5.1-1.3 13.6-.4 19.2-2.2 0-4-.4-6.2-.4 1.6-3.4 1.3-12.6.8-17.3.1-.6-.2-1.4-.6-1.8zm-22 4.4c3.2-.5 6 4 3.2 6.4-3.5 3-8-2.6-4.9-5.7.4-.3.9-.6 1.7-.7zm76.3 1.3c1.3-.3 2.5 0 3.1.5 2.6 1.7 1.4 6.5-1.8 6.6-4.2.2-5.6-6.2-1.3-7.1zm-53.4-75c-1.6-.5-4.5-1.3-5.4.5-8.8 3.8-14.1 11.8-12.7 24.5.6 6 2.5 11.7 4.2 17s4.5 10 6.6 14.4h1.4c.4.5-.8 1-.8 1.8 0 1.2 1.6 2.6 2.5 3.8 1 1.3 2.1 2.5 2.7 3.4-2.3-1.3-4-3.4-5.8-5.2-.8 3.2-.3 7.1-.4 10.4l-.3 20.8c1.2.1 2.7-.4 4.5-.3 6.7.4 12.5 4.4 20 4.2 4-.1 7.3-1.4 10.4-3.5-.6 3.4-1.8 6.5-4.3 7.9-6.2 3.6-13.8 1.7-20.6 0-5.6-1.3-13.2-3.4-19.3-.8.3-1.2 1.8-2.1 2.3-3.5.5-1.6.5-4.4.6-6.9.3-6.6.1-14.8-.1-21.7-.1-3.2.1-6.1-.8-8.6-.6-1.7-1.6-3.1-2.5-4.4-.3-.4-.8-.5-.8-1 2.5 1.2 4.8 2.5 7.9 2.9-3-5.4-6.9-10.9-9.9-16.7-2.1.5-3.5 1.7-5.6 2.3-.6 3.5-1.3 6.5-2.5 9.2-1 2.9-3.2 6.9-6 7.9-4.8 1.8-10.9-1.6-10.9-6.4 0-2.6 1.8-5.3 5.2-4.5 3 .6 3 5.4.4 6.6 2.5 1.9 4.9-1.3 6-3.4 1.2-2.3 1.8-5.3 2.1-7.4-.9-.4-1.4.4-2.3.6-4.3 1.2-9.3-.8-10.8-4.2-1.6-6.5 8.4-6.6 6-.1 2.6 1.6 5.7-.6 7.8-1.6.8-4.4 1-10.1 1.2-15.4.1-2.9-.3-5.2-1-7.4-.8-2.1-1.9-3.6-3-5.2 6.1-1.4 11.5-3 17.3-6 5.6-3 8.8-7.4 14.1-9.1 4.9-1.4 10.5 1 11 5.4.4 3.2-1.9 6.1-5.4 5.7-2.5-.2-4.5-2.7-3-6zm-25 36.3c1.2-.5 3-.6 3.2-1.8.1-.8-.5-2.7-.8-4l-.8-3.9h-.4c-.4 3.5-1 6-1.2 9.7zm50.2 52.3c-1.2.3-3 0-4.3.1-1.6-3.4-3.9-5.8-5.8-8.8-.6 2.5-.5 7 .5 9.1-1.6-.3-4.3-.1-6.4-.1 1.2-5.3 1-14-.3-19.1 1.6.3 3.2.3 4.9.1 2.1 3.1 4 6.2 6.2 9.1.5-1.2.4-3.1.4-4.8-.1-1.6-.3-3.2-1-4.2 1.6-.4 4-.1 5.7-.5.1 0 .1 0 .1.1-.6 4.4-1.2 10.8-.8 15.8 0 1.3.3 2.3.8 3.2z" fill="#fff"/></svg>