<svg xmlns="http://www.w3.org/2000/svg" width="240" height="237.733" xmlns:v="https://vecta.io/nano"><path fill="#f78f1e" d="M44.433 100.7h22.634c10.066 0 13 1.6 10.633 4.567-1.9 2.366-6.167 3.5-11 4.033l-.033.033c4.566.134 8.1 1.334 5.733 4.334-1.067 1.366-2.967 2.5-4.933 3.133-2.934.967-5.4 1.367-12.567 1.367H30.467zm1.9 13.6H51.4c4.5 0 6.367-.433 7.433-1.8 1.1-1.367.067-2.033-4.433-2.033l-4.967.033zm5.367-6.733h4.8c3.767 0 5.533-.767 6.4-1.867.933-1.167.667-1.567-3.4-1.567l-4.867-.033zm79.5-6.867-13.8 17.467H97.8l-1.7-12.434h.2l-9.833 12.434H74.033l13.8-17.467h20.2l1.767 11.7h.167l8.8-11.7zm11.067 11.867c-.734.966-.234 1.566.266 2.033.567.467 2.067.8 3.9.8 2.5 0 6.167-.333 6.9-1.267.267-.3.067-1.1-.133-1.3-1-1.1-16.167-1.933-18.967-4-1.133-.833-.7-2.066.1-3.066 3.067-3.834 11-5.767 24.267-5.767 14.1 0 16.8 2.3 14.1 5.9h-13.233c.666-.967.333-1.667-.4-2.033-.667-.367-2.034-.567-3.8-.567-2.934 0-5.2.367-5.9 1.233-.2.267-.2 1.034.033 1.2 1.3 1.1 16 1.867 18.733 3.934.8.6 1.367 1.533.034 3.233-2.767 3.467-10.2 5.833-25.3 5.833-18 0-16.734-2.966-14.434-6.2h13.834zM208.333 108l-3 3.833h-15.7l-5.233 6.334h-13.833L184.5 100.7H215l-3.333 3.967h-16.1L192.633 108z"/><g fill="#000001"><path d="m20 131.367 7.633-9.667h171.534l-1 1.267zm96.167-1.334 4.6-.033c1.666 0 2.266.833 1.466 2.067-.966 1.333-1.8 1.866-3.5 2v.033c1.7.067 1.267.867.334 2.3-.434.633-.6 1.033-.7 1.333h-1.834c.067-.233.4-.766.7-1.233 1-1.533.867-1.833-.8-1.833h-1.6l-2.166 3.066h-1.934zm-.4 3.234h1.8c1.3 0 2.133-.167 2.933-.934.567-.866.167-1.3-1.067-1.233h-2.166zm15.133-3.3h2.8l-1.533 7.733h-2.034l.334-1.733-4.4.033-2.034 1.733h-2.5zm-.167 4.733.767-3.367-3.967 3.367zm45.967-4.833h2.833L178 137.7h-2.033l.333-1.767-4.433.034-2.034 1.766h-2.5zm-.167 4.766.8-3.4-4 3.434zM143.2 129.9l-5.467 7.733h-2.066l5.433-7.733zm0 7.7 5.433-7.733h1.867l-4.367 6.266 4.2-.033-1.1 1.533zm27.133-7.833-8.1 7.866H160l2.267-6.266-6.4 6.233h-2.1l2.733-7.767 1.833-.033-2.233 6.067h.033l6.234-6.067h2.166l-2.2 6.033h.034l6.233-6.066zm14.167.066 2.233-.033.1 2.933 3.934-2.933 2.833-.033-6.7 4.833-2.133 3.033H182.7l2.167-3.033z"/><path d="M163.967 129.8h-1.934l-6.533 6.333-.967 1.434 1.434-.034zm6.333 0h-2.067l-6.533 6.333-.833 1.434 1.4-.034z"/></g></svg>