<svg xmlns="http://www.w3.org/2000/svg" viewBox="0 0 144 144" xmlns:v="https://vecta.io/nano"><circle fill="#39b9c6" cx="72" cy="72" r="70.2"/><path fill="#8b191b" d="M18.5 30.4h107.1v83.2H18.5z"/><path d="M123.1 110.4H20.7v-77h102.5l-.1 77zM23 108h97.7V35.8H23V108zm8.2-41.1c-2.3 0-3.3-1.6-3.3-4.9V47.4c0-3.3 1.1-4.9 3.3-4.9H36c2 0 3 1.6 3 4.9v3.7h-3.3v-2.9c0-.4-.3-.8-.8-.8H32c-.4 0-.8.3-.8.8V61a1.08 1.08 0 0 0 1 1h2.6c.5 0 .9-.4.9-.9v-2H39V62c0 3.3-1.1 4.9-3.3 4.9h-4.5zm10.8 0V42.3h9.9v4.9h-6.1v4.4h4.5v5.3h-4.5v4.9H52v5.1H42zm0 34.7V77.1h9.9V82h-6.1v4.4h4.5v5.3h-4.5v4.9H52v5.1l-10-.1zm12-34.7V42.7l3-.1 4.9 9.7.1-9.7h3.4V67h-3l-4.6-9.7V67l-3.8-.1zm16.1 0V47.3H67v-4.8h10.5v4.8h-3.6v19.5l-3.8.1zm23.5.1l3.3-24.3h5.6l3.3 24.3h-3.3l-1.1-4h-3.3L97 67h-3.4zm4.9-7.7h2.6l-.8-6.8h-1.1l-.7 6.8zm5.2 42.2l3.3-24.3h5.6l3.3 24.3h-3.3l-1.1-4h-3.3l-1.1 4h-3.4zm4.9-7.6h2.6l-.8-6.8h-1.1l-.7 6.8zm-.1-26.6V43.1h4V63h5.4v4.3h-9.4zm-51.9 34c-1 0-1.6-.2-1.9-.6-.4-.5-.6-1.3-.6-2.7V80.5c0-1.2.2-2 .7-2.5.4-.4 1-.5 1.9-.5H63c.9 0 1.5.2 1.9.6.4.5.6 1.3.6 2.5v17.6c0 2.3-.8 3.3-2.3 3.3h-6.6v-.2zm1.9-4.7h2.7c.5 0 .9-.4.9-.9V83.1a1.08 1.08 0 0 0-1-1h-2.7c-.5 0-.9.4-.9.9v12.6a1.08 1.08 0 0 0 1 1zm26.6 4.7c-1.6 0-2.3-1.1-2.3-3.2V80.6c0-2.1.8-3.2 2.3-3.2h6.8c1.6 0 2.3 1.1 2.3 3.2v4.8h-3.8v-1.6c0-1.1 0-1.6-.7-1.6h-2.3c-.8 0-1.2.5-1.2 1.6V95c0 1.1.4 1.6 1.2 1.6h2.3c.8 0 .7-.5.7-1.6v-.9c0-.5-.1-1-.6-1h-.6a.47.47 0 0 1-.5-.5v-4h5a.47.47 0 0 1 .5.5v9c0 2.1-.8 3.2-2.3 3.2h-6.8zm-54.9 0c-1.6 0-2.3-1.1-2.3-3.2V80.6c0-2.1.8-3.2 2.3-3.2H37c1.6 0 2.3 1.1 2.3 3.2v4.8h-3.8v-1.6c0-1.1 0-1.6-.7-1.6h-2.3c-.8 0-1.2.5-1.2 1.6V95c0 1.1.4 1.6 1.2 1.6h2.3c.8 0 .7-.5.7-1.6v-.9c0-.5-.1-1-.6-1h-.6a.47.47 0 0 1-.5-.5v-4h5a.47.47 0 0 1 .5.5v9c0 2.1-.8 3.2-2.3 3.2h-6.8zm67.3 0V77.4h3.4v24l-3.4-.1zM72.2 93v8.2c0 .1-.2 0-.4 0h-2.2c-.1 0-.4 0-.5-.1-.2-.1-.2-.2-.2-.2-.1-.1-.1-.2-.1-.3V79c0-.5.1-.9.3-1.2.2-.2.5-.4.7-.4h8.1c.6.1 1.5 1.1 1.8 1.7.2.6.2 9.2-.2 9.9-.2.5-.2.5-.4.7s-.5.2-1 .5c.2.2.9.5 1.1.8.1.1.3.6.4 1 .1.5.1.8.1 1.3v4.4l-.1 2.5c0 .2 0 1.1-.1 1.1h-2.9c-.1 0-.2-.2-.2-.2-.1-.1 0-2.7 0-2.9l-.2-3.6c0-.2-.2-1-.2-1.1-.1-.2-.3-.8-.5-.9s-2.9-.2-3.2 0l-.1.4zm3.2-10.8c-.2-.2-.5-.2-.6-.2s-.4-.1-.5-.1h-.6c-.1 0-.2 0-.3.1l-.8.2v6.2h1.2c.5 0 1.2-.1 1.6-.2.2-.1.4-.2.5-.4s.2-.5.3-1.2c0-.5.1-3.4-.3-4-.1 0-.3-.4-.5-.4zm7.8-24.1v8.7c0 .1-.2 0-.4 0h-2.2c-.1 0-.4 0-.5-.1-.2-.1-.2-.2-.2-.2-.1-.1-.1-.7-.1-.9V44.1c0-.5.1-.9.3-1.2.2-.2.5-.4.7-.4h8.1c.6.1 1.5 1.1 1.8 1.7.3.5.2 9.2-.1 9.9-.2.5-.2.5-.4.7s-.5.2-1 .5c.2.2.9.5 1.1.8.1.1.3.6.4 1 .1.5.1.8.1 1.3v4.4l-.1 2.5c0 .2 0 1.6-.1 1.6h-2.9c-.2 0-.2-.2-.2-.2-.1-.1 0-3.2 0-3.3l-.2-3.6c0-.2-.2-1-.2-1.1-.1-.2-.3-.8-.5-.9s-2.9-.2-3.2 0l-.2.3zm3.3-10.9c-.1-.1-.5-.2-.6-.2s-.4-.1-.5-.1h-.6c-.1 0-.2 0-.3.1l-.9.2v6.2h1.2c.5 0 1.2-.1 1.6-.2.2-.1.4-.2.5-.4s.2-.5.3-1.2c0-.5.1-3.4-.3-4 0 .1-.2-.2-.4-.4zM72.9 73.9v-3.6h4.6v.7H74v.7h1.5v.5H74v1.6h-1.1v.1zm-7.2-.1c-.4-.2-.7-.3-.9-.6-.2-.2-.3-.5-.3-.9v-.6c0-.4.1-.7.3-.9s.5-.5.9-.5c.4-.2.9-.2 1.4-.2s1 .1 1.4.2c.4.2.7.3.9.5s.3.5.3.9v.6c0 .4-.1.7-.3.9s-.5.5-.9.5c-.4.2-.9.2-1.4.2-.5.1-1 0-1.4-.1zm2.4-.8c.2-.2.4-.4.4-.7v-.6c0-.3-.2-.5-.4-.7s-.5-.2-1-.2-.8.1-1 .2c-.2.2-.4.4-.4.7v.6c0 .3.2.5.4.7s.5.2 1 .2.8 0 1-.2z" fill="#fff"/></svg>