<svg xmlns="http://www.w3.org/2000/svg" viewBox="0 0 144 144" xmlns:v="https://vecta.io/nano"><path d="M141.8 72c0 19.3-6.8 35.8-20.5 49.4-13.6 13.6-30 20.4-49.3 20.4s-35.8-6.8-49.4-20.4S2.2 91.3 2.2 72c0-19.2 6.8-35.7 20.4-49.3C36.2 9 52.7 2.2 72 2.2s35.7 6.8 49.4 20.5C135 36.3 141.8 52.8 141.8 72z"/><path d="M140.6 72c0-18.9-6.7-35-20.1-48.4S90.9 3.5 72 3.5s-35.1 6.7-48.4 20.1C10.2 37 3.5 53.1 3.5 72s6.7 35.1 20.1 48.4C37 133.8 53.1 140.5 72 140.5s35.1-6.7 48.5-20.1c13.4-13.3 20.1-29.5 20.1-48.4z"/><path fill="#31ad4a" d="M121.8 72c0 13.8-4.9 25.5-14.6 35.2S85.8 121.7 72 121.7s-25.5-4.8-35.2-14.5S22.2 85.8 22.2 72c0-13.7 4.8-25.4 14.5-35.1s21.4-14.6 35.2-14.6c13.7 0 25.5 4.9 35.2 14.6 9.8 9.7 14.7 21.4 14.7 35.1z"/><path d="M40.9 100.2c-2.1-9.6-3.1-18.1-3.2-25.5 0-5.1.3-10.2.9-15.3.5-4.4.7-6.5.8-6.5v.2c0-1.8-.4-2.7-1.1-2.7-.3 0-.6 1.2-1.1 3.5s-.8 3.5-1 3.5-.5-.3-.8-1-.6-1-.8-1-.3.9-.3 2.8-.1 2.8-.3 2.8c-.3 0-.6-.6-.9-1.7-.4-1.1-.7-1.7-.9-1.7s-.4 1.1-.7 3.3-.6 3.3-.9 3.3c-.2 0-.3-.2-.3-.7s-.2-.7-.6-.7c-.3 0-.7.4-1.1 1.1s-.8 1.1-1.1 1.1-.4-.3-.4-.8c0-.6.1-1.5.3-2.7l.3-2.1-1.6-3.2c-1.7 5.1-2.6 10.4-2.6 15.8A47.09 47.09 0 0 0 30 96.1h9.2l.3 1.4c-1.1.5-1.7.7-1.8.7-.3 0-.7-.2-1.2-.5s-.9-.5-1.3-.5-.6.5-.7 1.5-.2 1.5-.4 1.5c-.3 0-.5-.3-.7-.8s-.4-.8-.7-.8c-.1.2-.3.5-.5 1.2 1 1.4 2 2.7 3.2 4 1-2.4 1.6-3.6 1.8-3.6s.5.2.9.7.7.7.9.7.3-.2.3-.7v-1c0-.4.1-.6.2-.6s.3.2.4.5.3.5.5.5h.5zm9.6-35.9c0-.4-.1-.6-.2-.6-.3 0-1 1.4-2.3 4.2s-2.1 4.2-2.4 4.2c-.2 0-.3-.3-.3-.9 0-.4.1-1 .2-1.8l.2-1.8c0-.4-.1-.6-.2-.6-.2 0-.5.3-.8.9s-.6.9-.8.9-.3-.1-.3-.2l.2-.5c.1-.3.2-.6.2-.9s1-2.1 2.9-5.3l2.9-5.4c0-.1 0-.1-.1-.1-.4 0-1.2.8-2.7 2.5-1.4 1.7-2.2 2.5-2.4 2.5-.5 0-.7-.4-.7-1.2 0-.3.5-1.5 1.6-3.6l1.6-3.4c0-1.5-.4-2.3-1.2-2.3-.2 0-.4.6-.7 1.7-.2 1.1-.4 1.7-.7 1.7-.6 0-1.3.4-2.1 1.2-.3 0-.6.5-1.2 1.6-.7 5.2-1.1 11.3-1.1 18.2.1 3.2.3 6.3.7 9.2.8 7.3 2.3 13.8 4.5 19.5.4.4.7.5 1.1.5h.1c.2-.1.4-.3.5-.7V101c0-2.3.2-6 .5-11.1.1-1.4.5-3.9 1.4-7.4s1.3-5.7 1.3-6.5c0-.3-.2-.7-.6-1-.4-.4-.6-.8-.6-1.3 0-.3.2-1.8.7-4.3.5-2.7.8-4.4.8-5.1zm16.6-4.9c0-.5-.2-.7-.5-.7-.4 0-.9.6-1.5 1.8-.7 1.2-1.1 1.8-1.4 1.8-.2 0-.3-.2-.3-.5 0-.6.4-1.9 1.3-4s1.3-3.3 1.3-3.7c0-.2 0-.2-.1-.2-.4 0-1.1.8-2.2 2.5-1.1 1.6-1.7 2.5-1.9 2.5s-.3-.2-.3-.7c0-.4.1-1.3.3-2.5-.8-1.4-1.2-2.1-1.4-2.1s-.5 1-.8 2.9-.6 2.9-.8 2.9-.5-.2-.8-.7c-.3-.4-.6-.7-.8-.7-.2.1-.2.5-.2 1.2s.1 2 .2 4c.2 2 .2 3.3.2 3.9 0 .8-.1 1.2-.2 1.3-.2 0-.4-.2-.5-.6s-.4-.6-.6-.6-.3.7-.4 2-.2 2-.4 2.1-.5.1-.8.1-.5 0-.6-.1c-1.3 5-2.7 11.8-4.1 20.2-.2 2.2-.3 4.8-.3 7.9 0 .8 0 1.5.1 2.3.2.2.3.2.5.2h.1c.5-.2.8-.3 1-.5l.4-2c1.1-4 3.6-10.8 7.7-20.5l7-15.9c0-.2.1-.8.4-1.7.2-.8.4-1.5.4-1.9zM120.5 72c0-12.9-4.5-24.1-13.5-33.5 1.9 4.4 2.9 7.1 2.9 7.9 0 .2 0 .2-.1.2-.2 0-.6-.6-1.2-1.7s-1-1.7-1.4-1.7c-.1.1-.1.3-.1.5 0 .7.2 2.2.7 4.6s.7 3.8.7 4.2c0 .2-.1.3-.2.4-.2 0-.3-.1-.3-.2s-.1-.2-.3-.2c-.3 0-.5 1.1-.8 3.3s-.5 3.3-.7 3.3c-.3 0-.5-.2-.8-.7s-.5-.7-.8-.7c-.4 0-.8.9-1.3 2.8-.5 1.8-.8 2.8-1 2.8s-.4-.3-.7-.9-.5-.9-.8-.9-.8 1.4-1.4 4.1-1.2 4.1-1.6 4.1-.7-.3-.7-1c-.1-.7-.2-1-.4-1s-.6.4-1 1.3c-.5.8-.9 1.3-1.1 1.3-.2-.1-.3-.3-.3-.8s.1-1.5.3-2.9.3-2.4.3-2.8c0-.3-.1-.4-.2-.5-.2 0-.7.7-1.6 2-.8 1.3-1.4 2-1.6 2-.1-.1-.2-.2-.2-.4 0-.3 0-.6.1-1s.1-.7.1-.9c0-.3-.1-.5-.2-.5-.2 0-.4.2-.7.5-.2.3-.6.5-1 .5-.2 0-.3-.3-.3-.8s.1-1.5.4-3.1c.3-1.5.4-2.5.4-2.8 0-.2 0-.3-.1-.3-.2 0-.7.7-1.5 2.2-.8 1.4-1.3 2.2-1.5 2.2-.1-.1-.1-.2-.1-.4 0-.4.1-1.1.4-2.3s.4-1.9.4-2.3c0-.3-.1-.5-.2-.5-.2 0-.6.5-1.3 1.5s-1.1 1.5-1.3 1.5c.1-.3.1-.4.1-.6 0-.4.4-1.9 1.2-4.6s1.2-4.2 1.2-4.6c0-.2-.1-.2-.2-.2-.2 0-.6.3-1.2.9s-1 .9-1.3.9c-.2 0-.2-.3-.2-.9v-1.2c.1-.6.1-1 .1-1.3 0-.6-.1-.9-.3-.9s-.5.8-.8 2.5c-.3 1.6-.6 2.5-.8 2.5s-.8-.9-1.7-2.8c-.9-1.8-1.5-2.8-1.7-2.8s-.3.1-.3.3c0 .8.5 1.8 1.5 3.1.6.8.9 1.8.9 3 0 .4-.1.5-.3.5s-.7-.6-1.6-1.7-1.4-1.7-1.7-1.7c-.4 0-.7 1.6-.9 4.7-.3 3.2-.5 4.7-.7 4.7-.3 0-.5-.3-.6-.8-.2-.5-.3-.8-.5-.8s-.5.8-.8 2.5-.6 2.5-.8 2.5c-.3 0-.5-1-.7-3s-.4-3-.7-3c-.2 0-.5 1.4-.8 4.3-.3 2.8-.6 4.3-.8 4.3s-.3-.3-.4-.8-.2-.8-.5-.8c-.2 0-.4.7-.7 2-.3 1.4-.6 2-.8 2-.3-.1-.5-.9-.5-2.3V65c-1 2.2-3.4 7.6-7 16.5-2.9 7.1-4.9 13.5-6.2 19 .1.2.3.2.5.2 0-.1.5-.2 1.5-.5.2 0 .2.1.2.2s-.1.4-.2.8c-.2.4-.2.7-.2.8 0 .4.2.5.6.5.2 0 .4 0 .8-.1s.6-.1.8-.1h.3c.1.1.2.1.3.1.5 0 1 .2 1.7.7.8.6 1.3 1.1 1.5 1.5.1.2.1.3.1.5v.7c0 .2.1.4.2.6s.5.5 1.1 1 .9.8.9 1-.1.3-.2.3-.5.5-1.4 1.5c-.3.3-.4.6-.4.8 0 .6.8 1 2.5 1.2l4.1.9c3.6.6 6.5.8 8.6.8 4.1 0 7.3-.1 9.5-.2l10.4-.7c7-4.4 12.5-10.2 16.7-17.5 4.1-6.9 6.2-14.9 6.2-23.5z" fill="#89d5ef"/><path fill="#fff" d="M19.4 66.8c0 2.8-1.9 4.2-5.7 4.2-1.6 0-3.1-.4-4.5-1.1-1.7-.9-2.5-2.1-2.5-3.6 0-2.8 2-4.2 6-4.2 4.5.1 6.7 1.6 6.7 4.7zm-.3 12l-11.9.7-.1-1.9 9.9-.7-.3-4.4h1.9zm1.4 6.7L8.8 88l-1.2-5.8 2-.4.6 3.9 2.6-.5-.8-3.5 1.9-.5.8 3.5 5.3-1zm1-30.8l-.5 2.1-5.2 1.1-.2.9 4.5 1.2-.5 2-11.5-3.2 1.2-4c.6-1.4 1.7-2.1 3.2-2.1 2.2 0 3.5 1 3.8 3.1l5.2-1.1zm1.3-2.8l-.8 1.7-11.1-4.3.7-1.8zm2.6-6.4c0 .6-.7 2.1-2.1 4.6l-10.5-5.5 1.8-3.3c.8-1 1.8-1.5 3.1-1.5 1.5 0 3.2.6 5 1.8 1.8 1.1 2.7 2.5 2.7 3.9zm-4.8 48.3l-1.5 1.8 1.4 2-2.3-.7-1.5 2v-2.5l-2.3-.8 2.3-.7.1-2.5 1.4 2zm9.3 10.9l-1.5 1-2.1-3-1.8 1.4 1.8 2.6-1.4 1-2-2.6-4 2.8-1-1.4 8.9-6.3zm2.3-68.2l-1.3 1.7-2.4-1-1.6 2 1.6 2-1.3 1.7-7.6-9.7 1.3-1.5zm-.3 70.6l-6.6 6 2.6 3-1.3 1.2-3.8-4.2 8-7.4zm6.6 6.3l-5 10-1.4-1.2 1-2.2-1.7-1.5-2 1.4-1.5-1.3 9.1-6.5zm2.8-84.9l-4.6 3.6-7.5-9.3 4.8-3.7 1.2 1.6-3.1 2.4 1.4 2 2.9-2.2 1.3 1.4-2.8 2.3 2.1 2.8 3.1-2.5zm4.9 92c0 .4 0 .8-.1 1.2l-1.6-.9v-.7c0-1-.4-1.5-1.3-1.5-1 0-2 .7-2.9 2s-1.3 2.5-1.3 3.5c0 1.2.5 1.8 1.5 1.8.7 0 1.3-.4 2-1.1l-1-.6.9-1.6 2.6 1.6c-1.4 2.3-2.9 3.5-4.7 3.5-2.1 0-3.2-1.2-3.2-3.6 0-1.6.6-3.2 1.8-4.8s2.6-2.4 4.2-2.4c2.1-.1 3.1 1.2 3.1 3.6zm2.9-96.7l-1.9 1.1-1.7-1.8-2.3 1.1.8 2.6-1.9 1-3.4-11.9 1.9-.9zm1.8 106.9l-.7 1.7-5.3-2.3 4.1-10 1.7.7-3.5 8.3zm5.6-111.6c0 2.5-1.5 3.7-4.4 3.7-1.6 0-2.8-.8-3.4-2.5l1.7-.6c.4 1 .9 1.5 1.8 1.5 1.5 0 2.3-.6 2.3-1.9 0-1.2-.9-1.8-2.6-1.8-3.3 0-4.9-1.1-4.9-3.4 0-2.5 1.3-3.7 4-3.7 1.5 0 2.5.7 3 2.2l-1.8.4c-.2-.6-.7-.8-1.5-.8-1.2 0-1.8.6-1.8 1.7 0 1 1.1 1.5 3.2 1.5 2.9-.1 4.4 1.2 4.4 3.7zm4.3 105.1l-.3 1.7-3.5-1-.6 2.2 3.1.9-.5 1.8-3.1-.9-.8 3 3.4 1-.3 1.6-5.3-1.3 2.7-10.4zm2-114.8l-2.3.5 2 9.7-2 .4-2-9.8-2.3.6-.3-2 6.6-1.2zM68.3 128c0 1.7-.8 2.8-2.3 3.3l1.7 4.8-2-.4-1.5-4.4-1-.1-.4 4.2-1.9-.2 1.4-10.8 4 .7c1.3.4 2 1.4 2 2.9zm8.8-117.9h-1.9c-.5-1.1-1.1-1.6-1.7-1.6-1.5 0-2.3 1.5-2.3 4.5 0 2.8.7 4.2 2.2 4.2.7 0 1.2-.5 1.7-1.5h1.8c-.7 2.3-1.9 3.5-3.7 3.5-2.7 0-4.1-2-4.1-6.2 0-1.5.4-2.8 1.1-4.1.8-1.6 1.9-2.5 3.2-2.5 1.8.1 3 1.3 3.7 3.7zm8.4 122.3c0 2.1-1.3 3.2-3.8 3.2-1.8 0-2.9-.9-3.3-2.8l1.6-.3c.2 1.1.8 1.6 1.8 1.6 1.3 0 2-.6 2-1.7 0-.9-1-1.5-3-2-2-.4-3-1.4-3-3 0-2.2 1.2-3.3 3.6-3.3 1.7 0 2.7.8 3 2.5l-1.5.3c-.2-.7-.7-1-1.6-1-1.1 0-1.7.4-1.7 1.3 0 .7 1 1.3 3 1.8 1.9.6 2.9 1.7 2.9 3.4zm2.2-119.3c0 1.6-.4 3.2-1.2 4.6-1 1.7-2.2 2.5-3.8 2.5-2.7 0-4-1.7-4-5.2 0-1.7.4-3.3 1.3-4.7 1-1.8 2.2-2.8 3.8-2.8 2.6.1 3.9 2 3.9 5.6zm5.8 119.3l-1.7.5-1.5-4.4-4.8-4.8 2-.6 2.9 2.9.5-4.2 1.9-.7-.9 6.8zm2.7-120.8l-1.4 12.1-2-.7.3-2.5-2.4-1-1.5 2.1-2-.7 7.1-10.1zm8.3 114.3c0 .9-.4 1.7-1.3 2.4-.8.7-1.8 1.1-2.7 1.1-1.2 0-2.1-.6-2.8-1.9l1.5-.7c.4.7.8 1 1.5 1 1.4 0 2.2-.6 2.2-1.8 0-1.1-.6-1.7-1.7-1.7-.3 0-.8 0-1.4.1s-1.1.1-1.5.1c-2.1 0-3.1-.9-3.1-2.8 0-2.4 1.2-3.5 3.6-3.5 1.2 0 2 .5 2.6 1.6l-1.4.8c-.3-.4-.7-.6-1.2-.6-1.2 0-1.8.6-1.8 1.7 0 .8.4 1.2 1.3 1.2.4 0 .9-.1 1.5-.2l1.3-.2c2.2 0 3.4 1.2 3.4 3.4zm2.6-107.3c0 .6-.2 1.1-.5 1.7l-1.5-.9c.1-.2.2-.3.2-.5 0-1.3-.6-1.9-1.9-1.9-1.1 0-1.6.5-1.6 1.6 0 .4.4 1 1.3 2s1.3 2 1.3 3c0 2.5-1.1 3.7-3.4 3.7-1.1 0-2.1-.4-3-1.2s-1.4-1.7-1.4-2.7c0-.7.2-1.4.6-2.2l1.5 1a1.92 1.92 0 0 0-.4 1.2c0 1.3.8 2 2.3 2 1.2 0 1.8-.6 1.8-1.8 0-.4-.5-1.2-1.4-2.3-.9-1.2-1.4-2.1-1.4-2.8 0-2.2 1.2-3.3 3.7-3.3 2.5-.2 3.8 1 3.8 3.4zm4 104.2l-1.5 1.1-5.5-7.3-1.6 1.4-1.1-1.5 4.8-3.7 1.2 1.5-1.8 1.3zm4.5-99.2l-1.1 1.5-2-1.5-6.3 7.6-1.4-1.1 6.2-7.8-1.9-1.4 1.2-1.6zm3.2 92.3l-4 3.8-7.5-7.8 3.8-3.8 1.4 1.3-2.7 2.5 1.7 1.7 2.3-2.3 1.3 1.2-2.3 2.3 2.1 2.3 2.5-2.6zm4.6-82.7c0 2.5-1.3 3.8-3.8 3.8-.6 0-1.1-.1-1.6-.3l-2.2 4.9-1.3-1.7 2.1-4.8-.6-.8-3.6 2.9-1.2-1.5 9.2-7.5c2 2.6 3 4.2 3 5zm2 74.4l-1.1 1.5-4.5-3.5 3.3 5.1v.1l-5.7-2 4.5 3.5-1.1 1.4-8.7-6.5 1.2-1.6 5.5 1.9-3.2-5 1.2-1.4zm3.8-66.7l-8.9 8.4-1.1-1.8 1.9-1.9-1.2-2.1-2.5.6-1.1-1.8 11.9-3.3zm3.2 6.6l-11 4.7-.8-1.8 10.9-4.8zm1.7 4.7l-9.6 2.9 1.3 4.2-1.9.5-1.8-6 11.4-3.4zM129 95.3l-2.2 1 .3 2.5-1.7-1.9-2.3.9 1.3-2-1.6-2 2.3.7 1.4-2.1.2 2.4zm7.4-12.1l-.6 2.2-4.6.9 3.7 2.9-.5 2.3-5.8-4.8-5.2-1.2.6-2 5 1.2zm1.1-11l-12.3-2.5-.1-1.5 5-2.3-5.4-1.1-.1-1.4 11.5-5 .2 2.1-7.5 3.1 8 1.7-7.4 3.2 7.9 1.7zm-.5 4.6l-.2 2.1-12.2 1.9.2-2 2.6-.5.1-2.5-2.4-1 .3-2z"/><path fill="#ffcb2c" d="m37.5 88-8.4-1.7-.2-3.5 8.3 2.4zm-.9-10.8-6.8-2.9.8-3.1 5.9 2.9zm.8-17-.5 3.6-1.4-1 1.2-3.2zm6.4 5.1-1.7 2.2-.9-.7.4-3.3zm3.8 14.4-.5 2.1-5.6-2.4v-2.8zm-.9 8-.2 2.1-3.6-.8-.3-2.5zm-.4 10.5c-.6.7-.9 1.1-1 1.1l-1.2-3.2h2.2v2.1zm5.3-2.1-.2 1h-.8l.2-1zm1.9-6.6-.3 1.6-2-.4.3-1.8zm2.2-5.7-.6 1.4-3.2-1.4.6-1.7zm2.8-6.7-1 1.4-3.6-2.6.6-2zM70.3 94l-.1.6L58 92.1l.5-1.3zm-8.1-24.5-1.1 1.8-2.9-3.4v-3.4zm9.4 22.3-.3.6-11.5-5 .4-1.4zm1.8-2.8-.5.5-11-7.8.6-1.5zm2.6-2.2-.5.4-10.7-12 .8-1.4zm2.7-1.6-.6.3-9.3-16.2 1.4-1.1zm19.4 9.6H72.5c1.9-6.2 6.2-9.3 12.8-9.3 6.5 0 10.8 3.1 12.8 9.3zm-16.6-11-.7.2-6.6-19 1.5-1.8zm-5.8 24.9h3.4v1.3h-3.4zm2.8-2.3h2.3v1.3h-2.3zm5.9-22.9h-.6l-3.3-28.2h2.3zm-3.1 25.1h2.3v1.3h-2.3zm1.2-3.6h14.8v1.4H82.5zm2.4 3.6h2.3v1.3h-2.3zm5.4-41.2-3 15.8-.6-.1 2.1-16.8zm-1.8 41h9.6v1.5h-9.6zm6.8-35.2-4.6 11-.6-.2 4.2-12zm18.1-17.4L93.6 85l-.6-.3 18.5-30.8zm5.1 9.8L96.1 87.1l-.6-.4 22.3-23.9zm1.3 11.2-22 13.3-.4-.6 22.3-15.3zm-2 9.6-18.6 6.5-.3-.6 18.8-7.9zm-18.9 17.4h3.2v2.5h-3.2zM48.8 69.3l-.5 2.7-.8-.6.8-2.2z"/><path d="M17.4 66.8c0-1.7-1.6-2.6-4.9-2.6-2.5 0-3.8.7-3.8 2.2 0 1.8 1.7 2.7 5.2 2.7 2.3-.1 3.5-.8 3.5-2.3zm-3.2-10.6c0-1-.6-1.5-1.8-1.5-.8 0-1.4.9-1.9 2.7l3.2.8c.4-1.3.5-2 .5-2zm9.2-10.7c0-.8-.7-1.7-2.2-2.5-1.4-.9-2.6-1.3-3.6-1.3-.7 0-1.4.7-2.1 2.1l7 3.8c.6-1.2.9-1.8.9-2.1zm3.2-9.1-3.2-1.5 2.3 2.6zm8.8 79.1-2.5 1.9 1 .9zm8.7-94-2.5-2.6 1.1 3.4zm22.4 106.6c0-.8-.9-1.3-2.7-1.5l-.5 2.9 1.9.2c.9-.1 1.3-.6 1.3-1.6zM85.8 12.9c0-2.2-.7-3.2-2-3.2-2.1 0-3.1 1.9-3.1 5.6 0 2 .7 3 2 3 2-.1 3.1-1.8 3.1-5.4zm8 2-2 3 1.5.6zm27.6 18.3c0-.2-.5-.9-1.5-2.1l-2.5 2c1.1 1.2 1.8 1.8 2.2 1.8 1.2 0 1.8-.6 1.8-1.7zm3.8 8.7-3.4 1 .7 1.4zm7.7 35.6-3.4-1-.1 1.5z"/></svg>