<svg xmlns="http://www.w3.org/2000/svg" viewBox="0 0 144 144" xmlns:v="https://vecta.io/nano"><g fill="#fff"><path d="m46.8 60.9 3.7 2.6.4 4-7 1.2-5.2.8-1.1 1.1v2.5l13.3.5v12.3l-8.8-.6-9.8-6.4-.8-8.6 2.9-8.3zm7.6 0-.8 29.8L73 98.3l-.4-33.6-8.8-2.7zm23 4.6.7 6.7-3 4.5-.9 9.5 7.1 6 9.5-3.4 4.1-3.9-5.4-11.6-2.5-5.4-2.4-5.4z"/><path d="m93.4 69.9-.4 1.4-1.5 6.8 11.1 7.8 6.5-2.9 3-1.7 5.6-6.4-2.5-3.6-.3-1.2-1.2-4.9-2.2-3.2-5.1-.4h-7.6l-5.9 5.1z"/></g><path fill="#d1232a" d="M70.4 105.1c-5-4.3-13.4-8.1-22.5-10.3l-5.7-1.4c-.4-.1-.5-.6-.4-2s.1-1.9-.4-2.2c-.2-.2-3.4-.3-7-.2-7.2.2-7.4.7-8.2-1.7-.4-1.1-.6-2.3-.2-2.5s3.8.1 7.3.1c4.8 0 6-.1 6-.6-.1-.6-3.2-1.1-7.4-1.1-6 .1-6.7-.4-7.4-1.2-.4-.4-1.5-3.7-2.4-5.8s-1.8-4.5-1.8-4.8c.2-.4 1.8-.1 5.2-.1 2.6 0 5-.2 5.2-.4.4-.5-1.1-1.2-3.3-1.5-1-.1-2.5-.3-5.1-.3l-2.8-.1-1.5-2.4c-2.2-3.7-3.1-7-2.4-7.4.2-.1 5-.1 10 .2 8.8.4 11.4.6 10.1-.1-.4-.2-5.1-.6-10.4-1.1-9-.6-9.7-1-10.5-1.6-1.1-.8-4.8-9.4-4.7-10.2-.1-1.4.5-.1 3.9.8 6.4 1.9 21.5 5.9 41.2 8.8 10.7 1.6 13.4 2.5 14.6 5.5.4 1.1 1.1 1.7 2.2 1.7 2.1-.1 2.4 1.5 2.2 7.9-.1 2.8.1 5.1.3 5.1.4 0 2.2-2.3 2.6-3.3s.3-1.5-.9-4.1c-2.2-5-1.3-8.3 2.3-9.9 1.1-.4 7.9-1.7 15.5-3.1 18.4-3.3 33.5-6.4 37.1-8.1 3-1.3 3.8-1.4 1.7 3.9l-1.5 4.1-2.5.6c-1.1.3-5.3 1-9.3 1.7-7.9 1.3-12.1 2.3-12.7 2.9s.4.3 10.7-1.1c10.7-1.4 12.2-1.7 12.4-.9.4.9-3.2 9.5-4.1 10.2-.7.6-2.2.7-6.1.7H115l-1-1.8c-4-7.7-14.5-7.9-19.5-.4l-1.1 2-3.2-.1c-3.3-.3-3.2.4.4 1.2l2.4.4.1 2.7c.2 1.8.6 3.3 1.2 4.5 1.1 2 4.1 4.3 6.5 4.9 2 .5 5.7.4 7.4-.2 1.2-.4 2.3-.5 6.7.3 2.8.5 6 .9 6.2 1.1s-.5 1.4-.8 2.3l-.6 1.7-8.6.2-8.4.2.1 2.5c.1 3 .7 2.5-6.2 3.9-8.1 1.7-15.7 4.8-21.5 9-1.4 1.1-2.6 1.8-2.8 1.8-.3.3-1.1-.3-1.9-.9zm1.5-9.4c.8-.4.3-6.9.3-15 .1-12.9.4-15.1-.2-15.6-.6-.6-1.1-.3-2.1.6-.6.5-1.8 2-2.6 3.2-.9 1.2-1.9 2.6-2.5 3.1-.8.7-1 .8-1.6.1-.4-.4-2.1-2.8-3.8-5.3s-3-6.2-4.3-5.4c-.4.3-.4 2.6-.4 13.7 0 0-.2 12.6 0 12.9s1.1.6 2.4.6 1.9-.1 2-.3.1-4.7.1-4.7c0-2.7.2-5.5.4-5.6s1.2 1.4 2 3.1 1.1 3.1 1.8 3.1c.8 0 .9-1.3 1.6-3 2.5-5.9 1.8-4.7 2.5 5.6.4 6.2-.1 8.8.3 8.9.6.6 3.8.5 4.1 0zm14-9.6l2.1-1 1.1 1.1c1.1 1.1 1.1 1.1 2.2.4 1.5-.9 1.7-1.7.4-3.2-.9-1.1-1.1-1.5-.4-1.8 1.7-1-1.1-4.5-2.2-2.8-.8 1.1-.6 1.1-3.3-3.1l-1.5-2.3.9-1.8c1.1-2.2 1.1-3.4.3-5.1-2.5-4.6-9.6-.3-6.9 4.3.9 1.5.8 1.5-.6 3.1-3.1 3.4-3.3 7.4-1.3 10.2 2.1 3.1 5.4 3.8 9.2 2zm-7.1-7.5c1.3-3.1 2.6-3.3 4.8.4 1.7 2.9 2 2.8 1.6 3.5-1.2 1.9-6.1 2.2-6.7-.9 0 0-.5-1.3.3-3zm2.8-9.1c-.5-1.1-.3-1.9.9-1.8 1.3 0 1.3 1.3.2 2.3-.7.3-.8.3-1.1-.5zM48.7 83.1c.8-.7.9-1.1.8-4.6-.1-3.9-.1-4.2-1.2-4.6-.6-.2-2.2-.3-3-.1-1.6.2-1.8 1.2-1 1.9.4.4.4 1.1.5 1.7 0 1.1-.1 1.2-1 1.4-1.7.3-3.9-.6-5.3-2.2-1.2-1.1-1.3-1.6-1.5-3.6-.2-1.9 0-2.6.8-3.8 1.8-2.5 5.3-3.6 8.5-2.4 1.3.4 1.4.4 2.5-.8.6-.7 1.1-1.6 1.1-1.9 0-1-2.5-2.5-5.7-2.7-2.7-.2-3.3-.1-5.7 1.1-4.5 2.2-7.2 6.1-6.7 10.8.4 4 3.2 8.4 6.8 9.5 3.2.9 8.6 1.6 10.1.3zm-4-11.4c0-.8-.8-1.2-3.9-1.2-2 0-3.2.2-3.2.6 0 .7 1.4.7 4.6.8 2 .1 2.5.3 2.5-.2zm70.7 10.5c-4.9-.5-4.6.4-2.1-2.6 1.3-1.6 2-3.2 2.2-5.8l-.3-2.8 4.3.1c7.4-.3 6.8-.7 4.6 5.2-2.5 6.5-1.6 6.7-4.3 6.4-.9-.3-2.8-.4-4.4-.5zm-14.5-4.1c-3.8-2.3-3.9-7.7-.4-10.2 1.8-1.2 5.2-1.2 7-.1 2.6 1.7 3.5 5.6 1.8 8.2-1.8 2.8-5.7 3.7-8.4 2.1z"/></svg>