<svg xmlns="http://www.w3.org/2000/svg" viewBox="0 0 144 144" xmlns:v="https://vecta.io/nano"><circle fill="#8dd7f6" cx="72" cy="72" r="70.2"/><path fill="#fff" d="m106.3 119.3-4.5-2.1-.3-.5h.2v-1.9H100l-.6-.8v-5.4h2.4v-2.4h-2.4V58.5l3.5-3 .2-8.7H100l-2.8-12.6L90.7 24l-11.2-5.5-7.6-1.4L61 18.6l-9.7 4.6-6.7 7.7-3 13.6-2.2 4v6.7l3.1 3.3-1 7.7 1.9.7L43 106h-2.2v2.4H43l-.1 6.3h-2.2v2.5h.3l-.2.3h-1.6v2.1l-.2.3h-2.2v2.2h.4l-.7 1H35v1.8l-1.6 2.1h76.7l-3.8-7.7zm-41.2-13.9v11l-12.2.2-.2-1.4-1.5-.6.6-5.9 1.3.2-.2-2.2-1.4-.9.5-41.2 2.5 5.7 7.7 6.3 3.6 1.6-.7 27.2zM64.7 66h-1.9l-5.4-2.8-3.3-3-1-3.1 11.6.9 1.9 4.8-1.9 3.2zm11.5-6.6 2.6-2.4H88v2.7L83.6 64l-5.8 2.6-1.6-1.9v-5.3zm14.3 55.4-.9.3-.1 1.8-12.6-.4-.6-37.9 3-1.8 5.2-4.8 4.8-6.7 1.8-1.4v42.4H90v2.1l.8.2-.3 6.2z"/><path fill="#010101" d="M32.9 126.6c-.2-.5-.1-2 .2-2.2.1-.1.2-.2.2-.4.1-.2.3-.5.6-.6.3-.3 1.6-2.1 2.1-2.9.8-1.3 1.6-2.4 1.9-2.7.4-.3 1.3-.7 1.9-.8.4-.1.6-.5.6-1.7l.1-.8h2V110c-.1-.6-.1-.6-.5-.7-.2-.1-.6-.1-1-.1h-.6v-3.4h2l.1-19.1V67.5c-.1-.1-.4-.2-.6-.3-.3-.1-.6-.3-.7-.5-.2-.4-.2-1.7.1-2.3.4-.8.5-1.4.4-3.3-.1-2-.2-2.7-.7-3.3a4.31 4.31 0 0 1-.7-1c-.5-.8-1.2-1.4-1.5-1.4s-.8-.3-.8-.6l.1-4 .1-3.9c.1-.2.2-.2 1-.2.6 0 1-.1 1-.1 0-.1.1-.6.1-1.2.1-2.3.8-5.9 1.4-7.9.1-.2.2-.6.2-.8.2-.8 1.8-4.3 2.3-5.2.1-.2.4-.6.6-1l1.8-2.6c.1-.1.5-.5.9-1 1.6-1.9 3.9-3.9 6.3-5.6.7-.5 3.9-2.2 4.7-2.5a62.85 62.85 0 0 1 3.4-1.1c.2-.1.7-.2 1-.2 1.9-.6 10.1-.8 12.4-.3 5.1 1 8.7 2.6 12.9 5.7 2.2 1.6 5.3 5.1 6.8 7.5 2.8 4.4 4.5 9.4 4.8 14 .1 1.4.2 2.1.6 2.4.2.2.3.2 1.1.2h.9l.2.4c.1.2.2 1.5.2 4.3v3.9l-.2.4-.8.8c-.3.2-.7.6-.9 1-.2.3-.5.6-.6.8-.6.5-.6.8-.6 3 0 1.9 0 2.1.2 2.3.2.1.3.2.4.2s.3.1.5.2c.2.2.3.4.3.9 0 1-.2 2-.5 2.3-.2.2-.3.4-.3.6-.1.3-.2 22-.2 34.9v3h1.8v3.4h-.6c-.6 0-.6 0-.8.2-.5.8-.6 2.5-.3 4.1l.2 1h1.6v.5c0 1 .6 1.7 1.6 1.9.3.1.6.3 1.3.9.4.5 1.2 1.1 1.7 1.5 1 .9 1.4 1.4 1.8 2.5.3 1.1 1 2.6 1.3 2.8a17.19 17.19 0 0 0 .5.7c.2.3.5.7.6.8s.2.3.2.5v.3H33.1l-.2-.5zm74.7-2v-1H35.3v2h72.4l-.1-1zm-1.3-3.3v-.9H36.9v1.8h69.4v-.9zm-2.4-2.4v-1l-9.1-.1H62.5l-23.2.1v2h64.6v-1zm-51.2-3v-.6H41v.6c0 .3 0 .7.1.7 0 0 2.6.1 5.9.1h5.8l-.1-.8zm24 0v-.7H65v.6c0 .4 0 .7.1.7s2.6.1 5.9.1h5.8c-.1 0-.1-.7-.1-.7zm24.7 0v-.7H89.6v.6c0 .4 0 .7.1.7 0 0 2.6.1 5.8.1h5.7l.2-.7zm-36.9-.5c0-.9 0-.9.2-.9h.3v-5.2h-.5v-3.4h.5V78.6l-.6-.2c-1-.3-3.1-1.4-4.2-2.2-3.4-2.3-5.7-5.2-7.5-9.5-.2-.3-.3-.6-.4-.6s-.1 5.9-.1 19.8v19.8h1.2v3.4h-1.2v5.2h1.2v1.8h11.2l-.1-.7zm24.7-.1v-.8h1v-5.2h-1v-3.4h1V85.2l-.1-20.5c-.1.1-.3.5-.6 1-.2.5-.7 1.3-1 1.7a14.19 14.19 0 0 0-1.1 1.8c-1 1.7-2 3.1-3.4 4.6-1.8 1.8-3.6 3-6.2 4.2l-.8.3V92l.2 13.7c.2 0 .2.1.2 1.7s0 1.7-.2 1.7-.2.1-.2 2.6c0 2.6 0 2.6.2 2.6s.2.1.2.8v.8h11.8v-.6zM50.9 112v-2.6l-.3-.1c-.2 0-1.8-.1-3.6-.1h-3.3l-.2.3c-.2.4-.2 4.4-.1 4.7.2.2.2.2 3.9.2H51l-.1-2.4zm-6.7 0v-1.4H50v2.8h-5.8V112zm4.9 0v-.6h-4.2v1.2h4.2v-.6zm25.5 2.4c.8-.2.8-.3.8-2.5 0-2-.1-2.3-.6-2.6-.2-.1-1.5-.2-4-.2H67l-.3.3-.3.3v4l.3.3c.2.2.4.3.5.3.3.2 7 .2 7.4.1zM68 112v-1.4h5.6v2.8H68V112zm4.9 0v-.6h-4v1.2H73l-.1-.6zm26.4 2.3c.1-.2.2-.7.2-2.6v-2.4h-7.8v5.2h3.8c3.2 0 3.6-.1 3.8-.2zm-6.8-2.3v-1.4h5.6v2.8h-5.6V112zm4.9 0v-.6h-4v1.2h4v-.6zm-44.7-4.6v-1H41v2h11.8v-1h-.1zm24 0v-1H65.2v2h11.7v-1h-.2zm24.8 0v-1H89.7v2h11.8v-1zm-26-14.9V79c-.1-.2-.1-.2-1 0-2.3.5-4.7.6-6.8.2l-1-.2c-.1 0-.2 2.7-.2 13.4v13.4h9V92.5zm-24.6-6.1V67h-7.2v38.6h7.2V86.4zm-4.8 17.4c-.6-.4-.8-.7-.9-1.3-.2-.6.2-1.5.6-1.8.5-.4.7-.4.9.1.1.3 0 .4-.3.8-.4.4-.5.6-.2 1.1.2.5.7.6 1.4.6.8 0 1.3-.2 1.4-.7.2-.5 0-1-.5-1.3-.2-.1-.3-.2-.2-.3 0-.1.1-.2.2-.4.2-.5 1 0 1.4.6.2.6.2 1.7-.2 2.1-.4.6-1 .8-2 .8s-1.2 0-1.6-.3zm.6-4.4c-.2-.1-.6-.2-.8-.4-.9-.6-1-2.2-.2-3.1.5-.6.9-.7 1.8-.7 1.4 0 2.1.6 2.2 1.6.2 1.4-.3 2.3-1.5 2.6-.7.2-.9.2-1.5 0zm1.8-1c.8-.5.7-1.7-.1-2.1-.9-.4-2-.1-2.3.6-.2.5-.1 1.1.4 1.4.5.4 1.5.4 2 .1zM45.2 94v-.4h1.7c1.5 0 1.7-.1 1.9-.3.3-.3.3-1 0-1.3-.2-.2-.4-.2-1.9-.3l-1.7-.1v-.8H47c1.7 0 1.8 0 2.2.2.5.3.6.7.6 1.8-.1 1.4-.5 1.5-3 1.5h-1.6V94zm0-5.3c0-1.4.1-2 .5-2.3.5-.4 1.2-.3 1.6.1.2.2.3.4.4.5s.1.2.2.1.5-.3 1-.6c.4-.3.8-.6.9-.6s.1.2.1.6-.1.6-.1.6c-.1 0-.2.1-.2.2-.1.1-.4.3-.7.5-.6.4-.8.6-.8 1 0 .3 0 .3 1 .3h1v1h-4.6l-.3-1.4zm1.9-.5c0-.6 0-.7-.2-.9-.6-.6-1-.1-1 1v.7h1.2v-.8zm-1.9-4.4V82h.8v1.2h3.8v1H46v1.2h-.8v-1.6zm0-4.1v-1.6h.8v2.4h1v-2.2h.8v2.2H49v-2.4h.7v3.3h-4.6l.1-1.7zm3.1-2.6c-.2-.5-.1-.6.2-.7s.6-.6.6-1c0-.3-.4-.8-.6-.8s-.5.2-.5.6c-.2.6-.5 1.5-.6 1.7-.3.3-1 .4-1.4.2-1-.5-1-2.6 0-3 .6-.3.7-.2.7.2 0 .3-.1.5-.3.7-.3.2-.3.3-.3.7 0 .2.2.5.2.6.3.2.6-.1.8-1.1.3-1.2.6-1.4 1.4-1.4.6 0 .7 0 1 .3s.3.4.3 1.4 0 1-.3 1.4c-.2.2-.5.4-.7.4-.5.1-.5.1-.5-.2zm-3.1-4.2v-.6l.8-.5c.5-.2.8-.6.8-.6 0-.1-.4-.3-.8-.6l-.8-.5v-1.2l.3.2c.2.1.5.3.8.5.2.2.6.3.6.4l.2.2c.1 0 .2.1.4.2.2.2.5.2 1.3.2h1v.9h-1c-.9 0-1 0-1.4.3-.2.2-.5.3-.6.3s-.2.1-.4.2c-.2.2-.6.4-.7.5l-.5.1zM99 86.4V67.1h-7.2v38.6H99V86.4zm-2.5 16.4c0-.5 0-.6.3-.6.6-.3.8-1.3.3-1.8-.2-.2-.3-.3-.4-.3-.2 0-.5.4-.6 1.2-.2 1.1-.5 1.6-.9 1.8-1 .6-2-.2-2-1.8 0-1 .2-1.6.7-1.8.5-.3.7-.3.7.1 0 .2 0 .4.1.6s0 .2-.2.3c-.3.1-.6.5-.6 1s.2.8.4.8c.3 0 .4-.2.7-1.3.4-1.5.6-1.8 1.6-1.8s1.4.6 1.4 2.1c0 .5 0 1-.1 1.2-.2.4-.7 1-1.2 1l-.3.1c.1-.1.1-.8.1-.8zm-3.4-6.9v-2h.9V97h1v-2.8h.8V97H97v-3h.8v4.1h-5v-2.2h.3zm0-4.8c.1-1.9.2-2.3.8-2.6.8-.4 1.6 0 1.9 1l.1.2.2-.2c.1-.2.4-.4.7-.6s.7-.5.9-.6c.1-.2.3-.3.3-.3v.6c0 .6 0 .6-.6 1.1-1.4 1.1-1.4 1.2-1.4 1.7v.4l1 .1 1 .1v1h-5l.1-1.9zm2.1-.2c0-.8 0-1-.2-1.2s-.4-.2-.7-.1-.3.2-.3 1.1c0 .5 0 1 .1 1s.3.1.6.1h.6l-.1-.9zm-2.1-3.6c0-.4 0-.6.2-.6.1 0 1-.3 1.8-.7l1.6-.6-.5-.2c-.5-.2-1.4-.6-2-.7-.2-.1-.5-.2-.7-.2-.4-.2-.4-.2-.4-.7V83l1.7.6c.2.1.6.2 1 .4s1 .4 1.2.5.6.2.7.3c.3.2.3.2.3.7v.5l-2 .8c-1.1.5-2.2.9-2.3 1-.5.2-.6.1-.6-.5zm0-5.6v-.6H98l.1.6v.6h-5v-.6zm1.5-1.6c-1.4-.4-2-2.3-1.3-3.7.2-.5.7-1 1-1 .1 0 .2.2.2.5.1.4 0 .5-.3.9-.4.4-.4.5-.3 1 0 .3.2.6.4.8.3.3.4.3 1.1.4.9.1 1.3-.1 1.7-.6.3-.5.3-1-.1-1.4-.2-.2-.4-.4-.5-.4-.2 0-.2-.1-.1-.4 0-.2.1-.5.1-.6 0-.5 1.1.2 1.4.9s.2 2-.1 2.6c-.5.7-1 1-2 1-.5.1-1 .1-1.2 0zm-1.5-7.6v-2.1h1v3h1.2v-2.8h.7v2.8h1.2v-3h.8v4.2h-5l.1-2.1zm-19.3 5.2c4.7-.9 8.8-3.8 11.6-7.9 1.2-1.8 2.1-3.9 2.6-6.1.3-1.4.6-3.2.5-4v-.5l-.5.7c-1.3 2.3-3.4 4.2-6.4 5.6s-5.5 2.1-9.2 2.3c-7.9.6-15.6-2.4-18.8-7.3-.4-.6-.8-1.1-.8-1.1-.2 0-.1 1.4.2 2.9.9 5.3 3.8 9.9 8.1 12.8 2.3 1.6 4.7 2.4 7.6 2.9 1.1 0 3.8-.1 5.1-.3zm-1.9-3c-.1-.2-.3-3.6-.3-4 0-.2.1-.2.6-.2.3 0 1-.1 1.5-.2 1-.2 1-.2 1 .3 0 .2-.1.2-.2.2-.2 0-.6.1-1.2.2l-1 .2.1.4c0 .2.1.5.1.5.1 0 1-.2 2.1-.3.2-.1.2 0 .2.3v.3l-1 .2-1 .2v.6c0 .3 0 .6.1.7s1.1-.1 2.2-.3c.6-.2.6-.2.6 0 0 .1 0 .2.1.3.1.2-.4.3-2 .6-.6.1-1.3.2-1.4.2-.4 0-.5-.1-.5-.2zm-4.2 0c-.1-.1-.1-.4 0-1.3.1-.6.2-1.6.2-2.1l.1-.9 1 .1c.6 0 1.3.1 1.5.1.5 0 .5 0 .5.3v.3h-2.4v.5c0 .5 0 .5.4.6.2 0 .7.1 1 .1.6 0 .6 0 .6.3v.3h-2l-.1 1c-.1.9-.1.9-.4.9-.1-.2-.4-.2-.4-.2zm-1.6-.3c-.1-.1-.2-.3-.3-.6-.1-.5-.2-.5-.6-.6-.3-.1-.7-.2-1-.3-.5-.2-.5-.2-.7.2-.3.4-.3.4-1 .1l-.2-.1.4-.4c.2-.2.6-.7.9-1.1l.6-.8c.1-.1.7-1 .8-1.1 0 0 .2.1.6.2.4.2.5.2.5.5s.2 1.3.6 2.9c.4 1.4.4 1.4 0 1.4-.3-.1-.5-.2-.6-.3zm-.5-2c0-.2-.3-1.7-.4-1.8s-1 1.3-1 1.5c0 .1.2.2.3.2.4.3 1.1.3 1.1.1zm12.1.9c-.1-.3-.2-1-.6-2.5-.2-.5-.2-.7-.3-.6-.3.2-1 .3-1.1.2 0 0-.1-.2-.1-.3 0-.2.1-.3 1-.6.6-.2 1.4-.6 2-.8.5-.2 1-.5 1-.5.1 0 .4.2.9.5l.8.4s.1-.6.1-1.1c.1-1.1.2-1.2.7-1.5.2-.1.2-.2 0 1.9l-.2 1.2.4.8c.4.9.4.9-.2 1.3-.2.2-.2.1-.8-1-.1-.4-.3-.7-.5-.7-.3-.2-.7-.4-1.4-.8-.7-.5-.7-.5-.6-.1.1.3 0 .3-.5.6l-.6.2c0 .1.2.9.5 1.8.4 1.4.5 1.8.4 1.8s-.3.1-.5.2c-.3-.1-.3-.1-.4-.4zm-17.1-.9c-1.1-.2-2.2-1.3-2.2-2.2 0-.5.1-.5.6-.2.2.1.4.2.3.3-.1.2.2.8.6 1 .5.4.9.4 1.1.2s.2-.5-.6-1.1c-1-.8-1.4-1.8-.8-2.4.2-.2.3-.2.8-.2 1 .1 2.1 1 2.1 1.9v.4l-.4-.1c-.3-.2-.4-.2-.4-.4 0-.1-.1-.4-.3-.6-.2-.3-.4-.4-.7-.4-.6 0-.5.4.5 1.4.8 1 .8 1 .8 1.5s-.2 1-.6 1c-.1 0-.2 0-.3.1 0-.1-.2-.1-.5-.2zm-9.9-6.3c.1 0 .2-.3.2-.7v-.6h-4.3c-4.2 0-4.3 0-4.6.2-.2.2-.2.2-.2.6.2.7.1.7 4.7.6 2.2 0 4.2 0 4.2-.1zm48.8-.3c.3-.3.4-.7.1-1-.2-.2-.8-.2-4.1-.2h-3.9V66h3.8c3.7 0 3.8 0 4.1-.2zM64.6 65c1-1.3 1.2-3 .4-4.7-.4-.8-1.4-2.2-1.6-2.3-.2-.2-9.4-.2-9.5-.1s.4 1.2 1 2.1c1.5 2.2 4.4 4.1 7.8 5.3.6.2 1.2.4 1.3.3.1.1.4-.3.6-.6zm16.5-.7c1.5-.7 2.8-1.7 3.9-2.7 1.4-1.4 2.6-3.4 2.2-3.6-.1-.1-2-.1-4.3-.1-3.9 0-4.1 0-4.5.2-.3.2-.5.6-1.1 1.8l-.7 1.5v1.1c0 1 .1 1.2.3 1.8.2.4.5.8.6 1l.2.2 1.1-.4c.7-.2 1.7-.6 2.3-.8zm-6.4-1c0-2 0-2.1.2-2.9l.5-1.3c.2-.6.2-.6-.2-.6-.3 0-.5.2-1 .7-.4.4-.8 1-1 1.3l-.3.6-.2-.7c-.2-.4-.4-1-.6-1.3-.3-.5-.3-.5-1-.6-.4 0-.8 0-.9.1-.2.2-.8 1.3-1 1.8-.2.3-.2.6-.2.7s-.2-.2-.5-.6c-.7-1.4-1.5-2-2.5-2h-.6l.5.5c.9.9 1.3 2.1 1.4 4.5 0 1 .1 1.8.2 1.8.1.1 1 .2 3.8.2H75l-.3-2.2zm23.6.9c.2-.1.2-.1.1-.2s-.2-.6-.2-1.8c0-1.8.2-2.6.7-3.8.2-.3.2-.6.2-.6s-.2-.1-.5-.1-.5.1-1 .6c-.4.6-.6.7-.6.6-.2-.1-.2-.1 0 0 .1.2.1.3-.2.6l-.2.5-.1-.4c-.1-.2-.1-.4-.1-.5s0-.1-.1 0c-.1 0-.1 0-.1-.1s-.2-.4-.3-.6l-.3-.6H94l-.3.6c-.2.3-.4.9-.5 1.1l-.2.6-.6-.8c-.8-1.2-1.2-1.5-2.1-1.5-.6 0-.6.2-.3.4.7.5 1.3 2.1 1.4 4.3l.2 1.7c.1.1.9.2 3.3.2 1.7-.1 3.3-.1 3.4-.2zm-48-.3c-.1-.2-.1-1-.1-1.8 0-1.5.2-2.2.7-3.3.1-.2.2-.5.2-.5s-.2-.1-.5-.1c-.4 0-.5.1-1 .6-.3.3-.6.8-.8 1l-.2.4-.2-.6c-.1-.2-.2-.6-.2-.6-.1-.1-.1-.2-.1-.2 0-.1-.1-.2-.3-.4-.3-.2-.5-.3-1.1-.3H46l-.2.6c-.2.3-.3.8-.4 1-.2.4-.3.5-.3.2 0-.2-.9-1.4-1.2-1.6s-1.4-.2-1.5-.2.1.2.3.4c.7.6 1.1 1.8 1.2 3.9.1.9.1 1.5.2 1.6s1.5.1 3.3.1h3.1l-.2-.2zm-5.1-5.3c0-.1-.1-.1 0 0H45h.2c-.1.1 0 .1 0 0zm54.5-2.4c.1-.1.2-.2.2-.5l.1-.4H40.9l.1.3c.1.2.2.4.2.5.1.2 5 .2 29.3.2l29.2-.1zM40.6 55v-.3H101v.3c0 .2.1.2.5.2h.5v-7.4H39.3v7.4h.7c.6.1.6 0 .6-.2zm5.7-.8c-.4-.2-.9-.6-1-1-.7-1.4-.5-3.6.4-4.5.7-.6 1.8-.7 2.7-.2.4.2.6.4.9 1s.3.7.3 1.8 0 1.3-.3 1.8c-.2.6-.4.7-.9 1-.6.3-1.5.3-2.1.1zm1.5-1c.6-.2.8-.9.8-1.8 0-1.4-.4-2.1-1.4-2.1-.5 0-.6 0-.9.3-.9 1-.6 3.2.4 3.6a1.08 1.08 0 0 0 1.1 0zm2.8-1.9v-3h1v5h2.6v1h-3.6v-3zm4.3 0v-3h1.3c1.7 0 2 .2 2.5 1 .3.7.3.8.3 2 0 1.1 0 1.3-.3 1.8-.5.9-.9 1.1-2.6 1.1h-1.2v-2.9zm2.7 1.6c.3-.4.5-1.4.3-2.3-.2-1.1-.4-1.3-1.4-1.3h-.7v3.8h.8c.7.1.8.1 1-.2zm4.3-1.6v-3h3.4l.3.4c.3.3.4.4.4 1.2 0 1-.2 1.4-.8 1.5-.2.1-.3.1-.3.2 0 0 .2.2.3.4.2.2.6.8.8 1.3l.5.9h-1.2l-.2-.5c-.6-1.4-1.4-2.1-1.8-1.9-.2.1-.2.2-.2 1.3v1.2h-1.2v-3zm2.9-.7c.2-.3.2-.6 0-1-.2-.2-.3-.2-1-.2H63v.6c-.1.8 0 .9.9.9.6-.1.7-.2.9-.3zm2.2.7v-3h3.6v1H68v1.2h2.6v1H68v1.6h2.8v1H67v-2.8zm4.7 0v-3h1.2v5h2.3v1h-3.6v-3h.1zm4.2 0v-3h1v6h-1v-3zm1.7 2.7c.1-.2.5-1.5 1-3l.9-2.6h1.1l.7 2.2c.4 1.2.9 2.5 1 3l.3.8h-1.2l-.2-.6-.1-.8h-2l-.2.6-.2.6h-1.2l.1-.2zm3-2.1c0-.1 0-.3-.1-.5a2.39 2.39 0 0 1-.2-.9l-.2-.6c-.1 0-.7 2-.7 2.1.1.1 1.1 0 1.2-.1zm2.6-.6v-3h3.2l.3.4c.3.3.4.4.4 1s-.1.7-.2 1c-.2.2-.3.6-.2.6s.2.2.4.4c.4.5.4 1.2.1 1.8s-.7.8-2.5.8h-1.4l-.1-3zm2.8 1.9c.1-.1.2-.3.2-.5.1-.2 0-.4-.2-.6-.2-.3-.3-.3-1.1-.3H84v1.6h1c.6-.2 1-.2 1-.2zm-.1-2.7c.2-.2.2-.7.1-1-.1-.2-.4-.2-1-.2h-1v1.3h.8c.7.1.9.1 1.1-.1zm2.4 3.5v-3l.1-2.6h.8v5h2.6v1h-3.5V54zm4.2-2.7v-3h3.6v1h-2.8v1.2h2.6v.9h-2.6V53h2.8v1h-3.8v-2.7h.2zm-49.1-5.1c.1-.2.2-.8.3-2 .3-3.4 1.2-6.6 2.7-9.6.9-1.8 1.1-2.2 2.2-3.8 1.8-2.6 4.7-5.3 7.6-7.2 5.1-3.2 11.6-4.7 17.3-3.9 6.3.9 11.3 3.4 15.6 7.7 2.2 2.3 3.7 4.3 5.1 7 .7 1.5 1.2 2.5 1.4 3.4.1.2.2.6.3.9.5 1.4 1 4.3 1.1 6.5.1.7.1 1 .2 1 .3.2.6.2.9-.2.2-.2.2-.3.2-1.6-.1-.7-.2-1.5-.2-1.8-.1-.2-.2-.6-.2-.8-.1-1.3-1.4-6-2-7.1-.1-.1-.4-.9-.8-1.7s-.8-1.6-1-1.8a3.04 3.04 0 0 0-.5-.7c-1.4-2.2-3.9-4.9-6.3-6.7-2-1.4-4.5-2.9-6.9-3.9-1.1-.4-3-1-3.4-1.1-.2 0-.5-.1-.8-.2-.2-.1-1.2-.2-2.1-.4-2.2-.4-5.9-.4-8-.1-2.3.4-5.1 1.1-6.6 1.8-5.4 2.4-9.3 5.5-12.5 10-1.1 1.6-2.7 4.6-3.1 5.9-.1.2-.2.5-.2.6-.1.1-.5 1.5-.8 2.6-.3 1.2-.6 3-.7 4.3l-.2 2.6a2.18 2.18 0 0 0 .6.1c.4.4.6.4.8.2zm9.3-1.1c.1-.7.2-1.6.2-1.9.2-.6.6-2.4.8-2.6.1-.1.2-.2.2-.3.7-1.8 1.8-3.4 3.3-4.9s2.5-2.3 3.5-2.9c.2-.2.5-.2.6-.3 0-.1.3-.2.7-.4s1-.5 1.4-.6c2.3-1.1 7.1-1.6 9.9-1 1.9.4 3 .7 4.3 1.3.6.3 1.1.5 1.2.5s.2.1.2.2c.1.1.6.4 1 .6 1 .6 1.6 1 2.6 2.2 2 2 2.6 2.8 3.9 5.5.6 1.2 1 3 1 4.6.1 1.3.1 1.4.3 1.4s1.8.1 3.8 0c4 0 4.1 0 4.2-.8.1-.4 0-1.8-.1-3.2-.1-1.1-.7-3.6-1.4-5.2-.7-1.8-2.3-4.8-3-5.6-.1-.1-.4-.6-.8-1-1.3-1.8-3.9-4-6.2-5.6-.8-.6-3.5-2-4.5-2.3-2.2-.9-4-1.3-6.7-1.7-3.3-.4-7.9.1-10.8 1.2l-.6.2c-.1 0-1.6.6-2.3 1-5.1 2.5-9.4 6.8-11.8 11.7-.2.4-.4.8-.5.9-.5 1-1.4 3.7-1.6 4.9 0 .2-.2.8-.2 1.4-.1.6-.2 1.6-.2 2.3 0 1.2 0 1.4.2 1.6l.2.3h7.2v-1.5zm37.4-.4c-.2-.5-.2-1-.2-1 .1-.2.7-2.7.7-3 0-.2-.4-1.3-.5-1.4 0 0-.4.2-.8.6l-.8.6-.3-.6-.3-.6.6-.5c.3-.2 1.1-1 1.8-1.6.6-.6 1.3-1.1 1.3-1.1.2 0 .2.2.9 1.4 1.1 2.2 1.6 3.7 1.6 4.7 0 .6 0 .8-.3 1.1-.6.6-1 .5-1.7-.4-.2-.3-.5-.5-.5-.5s-.1.3-.1.6c0 .4-.5 2.1-.8 2.6-.3 0-.5-.2-.6-.9zm2.4-2.9c.2-.2.2-1.2-.1-1.8-.2-.2-.3-.7-.6-1.1-.2-.4-.3-.7-.4-.7-.2 0-.9.6-.9.7 0 .2 1.1 2.6 1.4 2.8.3.1.4.2.6.1zm-44.9 2.9c-.8-.6-1.2-1.8-1-3.4.2-1.4 1.1-3.4 1.8-4.1.5-.5 1.4-.7 1.4-.5 0 .1-.1.4-.2.8-.2.6-.3.7-.5.7s-1.2 1-1.2 1.2c0 .1-.1.4-.2.6-.3.7-.3 1.8 0 2.3s.6.6 1.3.6c.4 0 .6-.1.9-.4.2-.2.5-.6.6-.8s.2-.5.3-.6a2.39 2.39 0 0 0 .2-.9c.1-.6.1-.7-.1-.8-.3-.2-.4-.2-.7.6l-.3 1-.3-.2c-.2-.2-.3-.2-.2-.5.1-.5 1.4-2.9 1.5-2.9.2-.1 1.4 1.2 1.4 1.4 0 .3-.5 2.2-.8 2.9-.4 1-1 1.9-1.4 2.4-.8.7-1.8 1-2.5.6zm39.6-6.1c0-.1-.2-.4-.4-.7l-.4-.6.1-1.5c.1-1.5.1-1.5-.2-2.1-.2-.3-.4-.5-.5-.5s-.5.4-.8.8l-.6.8-.4-.5-.4-.5.3-.6c.2-.3.6-1 1-1.7.4-.6.8-1.4 1-1.7l.4-.6c.3 0 2.7 3 3.1 4 .9 1.8-.3 3.3-1.7 2-.2-.2-.3-.2-.3-.2v.5c.2.6 0 3-.2 3.1zm1.3-4.5c.1-.2.2-.4.1-.6-.1-.3-1.5-2.2-1.7-2.2-.1 0-.2.2-.5.5l-.3.5.5.6c.8 1 1.4 1.5 1.6 1.5.1 0 .2-.2.3-.3zm-36.9 2l-1.8-1.8.2-.4c.2-.2.2-.4.3-.5 0 0 .2-.4.6-.8.2-.4.6-.8.7-1 .2-.2.6-.7 1-1.2s.8-.9.9-.9c0 0 .2.2.2.3l.2.3-.6.7c-.8.9-1.6 1.8-1.8 2.2-.2.3-.2.3.2.7.4.5.3.5 1.2-.6.6-.8 1.4-1.8 1.6-1.8.1 0 .2.2.3.3l.2.3-.5.5c-.5.5-1.8 2.2-1.8 2.2 0 .1.9 1 .9 1 .6-.8 1.1-1.4 1.7-2.1l.7-.8.2.4.2.4-.4.5c-.9.9-1.7 1.9-2.2 2.7-.3.5-.6.8-.6.8.2.4-.6-.4-1.6-1.4zm5.2-4.1c-.6-.3-1-1-1.2-1.8-.2-.6-.2-.7 0-1.3.1-.4.2-.8.3-1 .3-.6 1-1.3 1.7-1.7 1.4-.7 2.2-.7 3 0 .6.6.8 1.2.7 2.2 0 1-.3 1.8-1.1 2.6-1.2 1.1-2.5 1.5-3.4 1zm1.9-1.1c.6-.2 1.3-1 1.4-1.4.2-1-.2-2.1-.9-2.6-.3-.2-.4-.2-.9 0-.7.2-1.3.8-1.5 1.5-.2.5-.2.6 0 1.2s.7 1.3 1.2 1.4c.2 0 .2.1.3.1 0 0 .1-.1.4-.2zm22.1.7l-.5-.3v-1.4l-.8-.5c-1.2-.7-1.4-.7-1.8-.2-.2.2-.3.5-.4.5-.2 0-1-.4-1-.5 0-.3 1.8-2.6 3-3.7l.6-.6.5.2c1 .4.9.2 1 3.3v3.2l-.1.4-.5-.4zm-.5-3.6c0-.2-.1-.8-.1-1.1v-.6l-.6.7c-.4.4-.6.8-.6.8 0 .1 1.1.7 1.4.7-.1 0-.1-.1-.1-.5zm-17.4 1.3c-.1-.1-.2-.5-.2-.9-.2-1-1-3.9-1.1-4.1s.2-.3 1.8-.9c1.7-.6 2.8-.6 3.3-.3.4.3.6 1 .5 1.5s-.6 1.1-1 1.2c-.3.1-.3.2 0 .3.4.1 1.9 1.8 1.8 2 0 .1-.3.1-.6.2l-.6.1-.8-.5c-1.1-1.2-1.8-1.4-2.4-1.1-.2.1-.2.2-.1.5a2.39 2.39 0 0 1 .2.9c.1.3.2.6.2.8.1.2 0 .2-.5.4-.4.1-.5.1-.5-.1zm1.9-3.8c.8-.2 1.2-1 .6-1.4-.3-.2-.6-.2-1.7.2-.7.2-.8.3-.6 1a4.71 4.71 0 0 1 .2.5c0 .1.2.1.6-.1.3-.1.7-.2.9-.2zM75 28.8c-.3-.1-.4-.2-.4-.4 0-.4.9-5.2 1-5.3 0 0 .3 0 .6.1l.6.2v.5c0 .5-.2 1.4-.6 3.4-.2.6-.2 1.2-.2 1.5-.2 0-.5.1-1 0zm-4.7-.8c-.6-.2-1.2-.5-1.4-.9-.4-.6-.7-1.4-.7-2.2 0-1 .2-1.4.9-2.1s1.9-.9 3.1-.6c.9.2 1.4.7 1.8 1.6l.1.3h-.6c-.6 0-.6 0-.8-.2-.3-.7-1.7-1-2.4-.5-.6.4-.8.9-.7 1.8.1 1.2.8 1.9 1.8 1.9.6 0 1.4-.2 1.4-.5 0-.1 0-.2.1-.4s0-.2-.6-.3l-1 .1v-.8h.6c.6 0 1.9.2 2.1.3.2.2-.2 2.2-.4 2.3-.7.3-2.4.5-3.3.2zM55.7 45.6c.1-1.2.8-4 1.1-4.4.1-.1.1-.2.2-.4.1-.3 1.3-2.3 1.5-2.6.1-.2.5-.6.9-1 1.3-1.5 3.3-3 5.3-3.8.8-.3 1.8-.6 3-.9 1-.2 1.5-.2 2.9-.2 3.7.2 7.1 1.5 9.7 4.1.9.9 2 2.3 2.5 3.1.5.9.9 1.8.9 1.8l.1.2c.2.2.6 2.1.8 3.2.2 1.3.3 1.6.8 1.5.2-.1.3-.2.4-.2.2-.3-.3-3-.6-4.1-.4-1.2-.9-2.3-1.5-3.3-1.4-2.2-3.8-4.3-6.2-5.5-.8-.4-2.6-1-3-1-.1 0-.5-.1-.8-.2-1-.3-3.2-.5-4.8-.3-.8.1-1.7.2-2 .3s-.7.2-.8.2c-.2 0-2.5.8-2.6.9s-.5.2-.9.5-.9.5-1 .6-.5.3-.7.5c-.8.4-2.8 2.4-3.5 3.4-.5.7-1.4 2.5-1.5 2.9 0 .1-.1.4-.2.6-.3.8-.6 2.2-.7 3.3-.2 1.4-.1 1.5.6 1.5h.4l-.3-.7zm27.4.4c0-.2-.1-.8-.2-1.4-.6-2.8-1.6-4.9-3.6-6.9-1.2-1.2-1.4-1.4-2.6-2.1-1-.6-2.2-1.1-3.5-1.4-1-.2-1.4-.2-3-.2s-2 0-3 .2c-1.4.4-3.1 1-3.4 1.4l-.2.2c-.2 0-1.7 1.1-2.3 1.8-.5.5-1.8 2-2.1 2.6-.2.4-.6 1.3-1 1.9a9.74 9.74 0 0 0-.7 3.2c0 .7 0 .9.2 1s1.7.2 12.8.2h12.7l-.1-.5zm-17-2.2c-.6-.3-.8-.6-.9-1.3 0-.5 0-.6.2-.9.2-.2.3-.3.4-.3.2 0 .2-.1-.2-.6s-.5-.7-.2-1.2c.3-.6.8-.8 1.8-.8 1.1 0 1.6.2 1.8.9.2.5.2.8-.3 1.3l-.3.3.3.2c.5.2.6.5.6 1.1 0 .4-.1.6-.2.9-.5.7-2 .9-3 .4zm1.7-.8c.3-.2.4-.9.1-1.3-.2-.3-1.2-.3-1.4.1s-.2.7.2 1.1c.3.5.7.5 1.1.1zm0-2.4c.2-.2.2-.5.1-.8-.1-.2-.2-.2-.6-.2-.6 0-.8.2-.8.6s.8.8 1.3.4zm3.5 3.2c-.6-.2-1-.6-1-1 0-.3 1.2-.5 1.3-.2s.7.6 1 .5c.5-.1.7-.5.7-.9 0-.5-.3-.8-1-.8-.5 0-.5 0-.4-.2 0-.2.1-.3.1-.3 0-.1.2-.2.3-.2.5-.1.7-.4.7-.7s-.2-.6-.7-.6c-.3 0-.7.3-.7.6 0 .1-.2.2-.6.1-.3-.1-.6-.1-.6-.1-.1-.1.5-.8.8-1 .6-.3 1.8-.3 2.5 0 .7.4.9 1.4.3 1.8-.2.2-.3.5-.1.5.1 0 .3.2.5.3.2.2.3.4.3.9s-.1.6-.4 1c-.9.6-2.1.8-3 .3zM62 42.2c0-1-.1-1.8-.1-1.8-.1 0-.3.2-.6.2-.7.4-.8.3-.8-.2 0-.4 0-.4.6-.6.3-.2.7-.4.9-.6.3-.3.5-.4.9-.4h.5V44H62v-1.8zm15.9 1.2v-.6h-2.8v-.4c0-.4.2-.6 2.1-2.9.7-.8.7-.9 1.3-.9h.5V42h.5c.4 0 .5 0 .5.4s0 .4-.4.4-.4 0-.5.6v.6h-1.2v-.6zm0-2.2c0-.5-.1-.8-.1-.8-.2.1-1.4 1.4-1.4 1.5s.3.1.7.1h.7c.1 0 .1-.8.1-.8z"/></svg>