<svg xmlns="http://www.w3.org/2000/svg" width="240" height="240.367" viewBox="0 0 63.5 63.596" xmlns:v="https://vecta.io/nano"><path d="M30.965 49.355a103.496 103.496 0 0 0-1.833-1.267 1016.048 1016.048 0 0 1-3.188-2.173l-2.577-1.762a23.473 23.473 0 0 1-.829-.582c-.08-.069-1.776-1.24-4.191-2.89a367.744 367.744 0 0 1-2.096-1.446 264.067 264.067 0 0 0-2.16-1.486l-1.638-1.138a9.89 9.89 0 0 0-.544-.37l-.5-.328H5.292l.023-4.038.022-4.039 2.961-.02c2.729-.018 2.976-.032 3.143-.18.1-.087.477-.36.837-.603a724.007 724.007 0 0 1 3.114-2.114l1.515-1.048c.023-.029.456-.332.96-.671a721.373 721.373 0 0 0 7.64-5.233l1.528-1.053 1.58-1.083c2.816-1.932 2.957-2.018 3.16-1.911.107.057.214.127.238.156.055.068.915.661 2.49 1.72l3.392 2.364a26.868 26.868 0 0 0 1.19.842 446.037 446.037 0 0 1 2.446 1.676 568.82 568.82 0 0 0 2.401 1.648l1.528 1.049 1.398.962 4.103 2.803 1.091.747 1.703-.024a144.82 144.82 0 0 1 3.078-.004l1.375.02v4.017l-.065 4.02c-.036.003-1.501.014-3.256.024l-3.191.019-.44.282c-.243.156-.467.282-.5.282s-.057-.117-.057-.26V36l-.677.004c-.371.002-8.96-.01-19.085-.025s-18.426.002-18.45.04.02.094.1.124a.485.485 0 0 1 .217.25.285.285 0 0 0 .277.197c.188 0 .504.201 2.343 1.481l1.614 1.111 1.354.934c.216.153.687.476 1.048.717s.674.461.698.49.338.246.699.486l2.226 1.52 2.74 1.883c.075.048.513.346.97.662l2.621 1.78 1.928 1.325c.207.179.32.15.807-.208a23.682 23.682 0 0 1 1.061-.721c1.01-.644 4.153-2.797 4.718-3.232a23.526 23.526 0 0 1 1.091-.783l1.397-.948 1.135-.773.514-.355c.667-.485 5.808-3.992 6.584-4.493a9.1 9.1 0 0 0 .455-.308c.524-.428.776-.563 1.129-.601.591-.066.51.114-.281.606a46.26 46.26 0 0 0-1.547 1.028l-1.484 1.018a90.759 90.759 0 0 0-2.285 1.588c-.083.071-.694.484-1.235.836a44.559 44.559 0 0 1-1.108.776l-1.833 1.254-3.157 2.202a73.368 73.368 0 0 1-1.767 1.225l-2.545 1.724c-.722.492-1.362.894-1.42.892s-.322-.16-.585-.351zM23.15 34.7c.145-.08.35-.319.458-.535.183-.367.195-.492.182-2.046-.006-.909-.052-1.809-.1-2-.053-.205-.238-.5-.461-.733l-.374-.39-.656.032c-1.276.065-1.536.574-1.537 3.006 0 1.755.193 2.539.672 2.728.53.21 1.374.182 1.816-.062zm-1.146-.619c-.305-.124-.382-.542-.382-2.069 0-1.843.14-2.239.74-2.088.416.104.496.444.486 2.077-.008 1.459-.11 2.078-.342 2.078a.775.775 0 0 0-.2.039.547.547 0 0 1-.303-.037zm6.68.577c.308-.276.448-.68.448-1.302 0-.501-.034-.602-.328-1.023a4.66 4.66 0 0 0-.865-.867c-.293-.218-.579-.489-.632-.6-.231-.476-.037-.978.38-.978.258 0 .412.19.478.594.05.303.074.326.426.373.205.028.39.024.41-.008s.005-.264-.036-.516c-.133-.843-.662-1.272-1.479-1.195-.55.05-.83.214-1.03.6-.188.361-.192 1.159-.01 1.506.168.316.772.958 1.227 1.303.414.315.52.509.513.946-.006.375-.21.677-.46.677-.24 0-.494-.398-.56-.88l-.06-.44-.407.026-.406.026.029.612c.035.77.297 1.233.733 1.305.913.149 1.33.108 1.629-.159zm6.69.068c.265-.174.546-.847.579-1.388l.027-.438-.445-.026-.445-.026-.06.483c-.076.6-.282.885-.587.808-.358-.09-.44-.42-.483-1.937-.047-1.653.047-2.127.444-2.268.209-.072.27-.057.404.109.087.107.185.352.217.544.058.345.062.35.444.35h.385v-.428c0-.444-.169-.958-.37-1.124-.19-.159-.95-.296-1.301-.237-.404.069-.89.508-1.015.919-.146.474-.205 2.232-.106 3.09.05.428.164.946.256 1.151.142.322.223.392.586.508.484.153 1.164.111 1.47-.09zm5.318-1.267a31.173 31.173 0 0 0-.065-1.984c-.033-.344-.026-.626.013-.626s.14.312.223.694a12.74 12.74 0 0 0 .415 1.419l.447 1.263.183.537.4.035c.222.019.429-.006.465-.057s.055-1.31.044-2.8l-.021-2.707-.428-.026-.428-.029.047 2.066c.026 1.136.019 2.032-.015 1.992s-.148-.427-.255-.86a38.28 38.28 0 0 0-.57-1.963l-.374-1.18-.451-.026-.451-.026v5.586l.283.036c.576.073.547.144.538-1.343zm9.295 1.328c.09-.057.096-.116.02-.254-.051-.099-.095-.456-.095-.792 0-.88-.143-1.457-.411-1.668l-.223-.176.228-.18c.441-.347.526-1.555.145-2.09-.268-.375-.552-.445-1.706-.418l-1.045.025-.024 2.772-.023 2.772h.871l.024-1.156.025-1.158.368-.026c.708-.052.862.208.922 1.555.034.74.035.742.289.797.377.082.504.08.635-.003zm-2.22-3.27c-.025-.063-.034-.427-.019-.807l.026-.69.296-.03c.495-.046.708.053.852.396.272.654-.094 1.25-.771 1.25-.203 0-.357-.049-.384-.119zm3.757 2.75c.095-.815.082-.799.655-.799s.55-.024.664.844l.059.45.448.037c.247.02.477.012.513-.019s-.149-1.113-.41-2.408l-.532-2.768-.06-.415h-.645c-.354 0-.645.03-.645.065 0 .167-.29 1.71-.437 2.336-.171.728-.61 2.955-.61 3.095 0 .1.3.146.667.106.264-.03.277-.05.333-.524zm.308-1.632a24.6 24.6 0 0 1 .127-.857l.188-1.233.06-.438.125.787c.068.432.131 1 .14 1.26l.014.475-.328.033c-.18.019-.327.006-.327-.027zm4.693 2.183l.458-.052v-.686h-1.658v-4.89h-.873v5.579l.328.027c.76.062 1.315.07 1.745.02zM7.807 31.964l.026-2.773H6.87l.005 2.798.004 2.798.45-.026.452-.026zm3.406 2.444l.027-.328H9.572v-4.89h-.96v2.737c0 1.505.027 2.763.06 2.796s.612.05 1.287.036l1.228-.024zm3.16.021v-.349h-1.658v-4.89h-.873v5.59h2.533zm1.505.11c.022-.132.046-1.39.052-2.795l.01-2.553h-.868v5.588h.382c.349 0 .385-.02.424-.24zm1.78-1.783c-.03-1.114-.034-2.002-.008-1.976s.143.456.257.955a19.78 19.78 0 0 0 .593 1.953l.383 1.047.451.027.452.027V29.19h-.873l-.01.764-.002.825c.053.363.181 2.462.152 2.491-.021.021-.127-.25-.235-.602a191.422 191.422 0 0 0-.651-2.037l-.454-1.397-.448-.026-.448-.027v5.597h.897zm7.892-.771v-2.794h-.874v5.588h.874zm13.533 2.445v-.35h-.732c-.516 0-.745-.033-.776-.112-.024-.062-.022-.473.003-.913l.044-.801.665-.025.664-.026-.004-.35-.004-.348-.674-.026-.675-.026.025-.717.026-.716.72-.025.72-.026v-.783l-1.2.024-1.2.025.017 2.749.02 2.773c.006.013.538.021 1.186.021h1.178zm6.22-2.03l.024-2.38.52-.043c.563-.048.536-.01.493-.657-.008-.114-.211-.13-1.472-.11l-1.462.025v.697l.502.027.502.027v2.339c0 1.286.026 2.364.059 2.396s.228.058.435.058h.377zm5.407-4.824c-.042-.363-.073-.393-.39-.393-.195 0-.5-.15-1.02-.502a18.478 18.478 0 0 1-.786-.549 29.244 29.244 0 0 0-1.005-.697l-1.44-.984a223.477 223.477 0 0 0-2.028-1.389 26.014 26.014 0 0 1-.536-.37 94.065 94.065 0 0 0-2.151-1.476c-.504-.339-.937-.64-.96-.672s-.339-.248-.698-.482-.675-.448-.699-.477a9.223 9.223 0 0 0-.611-.44 25.736 25.736 0 0 1-1.02-.738 33.38 33.38 0 0 0-1.292-.916 173.635 173.635 0 0 1-2.623-1.81 56.35 56.35 0 0 0-.983-.669l-.895-.602-.367.251-1.68 1.162a461.887 461.887 0 0 1-1.967 1.36l-1.79 1.247a15.62 15.62 0 0 1-.611.423l-2.532 1.729c-.854.616-2.343 1.621-2.402 1.621a.12.12 0 0 0-.102.067c-.016.036-.322.262-.684.502s-.674.458-.698.487a10.086 10.086 0 0 1-.656.461 329.232 329.232 0 0 0-4.167 2.872c-.463.322-.902.589-.977.589s-.138.05-.138.111-.117.183-.261.268-.263.181-.263.215 8.655.061 19.232.061h19.232zm-35.935-.467c-.025-.042.297-.305.715-.586l.804-.56c.024-.025.299-.22.611-.43l1.44-.984 2.377-1.623a235.21 235.21 0 0 0 1.672-1.148 186.13 186.13 0 0 1 1.422-.973l1.646-1.128 2.882-1.984a.531.531 0 0 0 .174-.119c.024-.032.247-.193.496-.355l1.514-1.025 1.062-.728.756.516 3.404 2.355c.063.063.15.115.19.115s.127.05.191.113.429.326.813.584.739.515.787.572.362.284.697.503.769.513.962.65a137.44 137.44 0 0 0 1.396.965l1.441.989 1.44.983a33.117 33.117 0 0 1 1.092.756c.052.056 1.927 1.323 2.947 1.992.396.26.721.506.721.548 0 .098-33.592.1-33.652.002zM30.91 47.673a47.843 47.843 0 0 1-.742-.518c-.26-.187-.673-.47-2.174-1.48a89.384 89.384 0 0 1-1.746-1.202c-.312-.225-1.264-.888-2.117-1.473a656.535 656.535 0 0 1-3.086-2.133 219.02 219.02 0 0 0-1.734-1.2 357.085 357.085 0 0 1-2.416-1.658l-1.055-.719c-.408-.274-.783-.549-.835-.61-.076-.092 2.99-.113 16.533-.113l16.627.059c0 .066-.933.73-2.62 1.866l-2.357 1.62a26.702 26.702 0 0 1-1.092.763 448.901 448.901 0 0 0-2.314 1.587l-1.614 1.108a7.29 7.29 0 0 0-.569.423c-.12.104-.788.573-1.484 1.044l-2.851 1.934c-.873.594-1.64 1.076-1.703 1.073s-.357-.17-.65-.371z"/></svg>