<svg xmlns="http://www.w3.org/2000/svg" viewBox="0 0 144 144" xmlns:v="https://vecta.io/nano"><circle fill="#025aaa" cx="72" cy="72" r="70.2"/><path fill="#b32a25" d="M12.2 39.4h119.5v65.2H12.2z"/><path d="M29.2 93.2c-.5-.1-.9-.3-.9-.5 0-.4 8.3-.8 18.5-.8h9.1l1.1-2.1 1.1-2.2-.9-.6c-1.7-1.2-3.2-3.1-4.6-6-1.4-2.8-1.4-3.1-1.6-7.7-.2-4.1-.1-4.8.4-4.8.9 0 1.1.9 1.1 5.2 0 3.8.1 4.1 1.5 6.8 1.6 3.1 2.4 4.1 4.3 5.6 1.5 1.2 1.5 1.7-.3 4.9l-1.2 2.1-11.2.1-13.3.1c-1.3 0-2.6 0-3.1-.1zm54.3-.3c-.7-.7.6-.9 5-.9 5 0 6-.2 6-.9 0-.9 1.3-2.2 1.9-1.9.4.3.3.7-.3 2.2l-.8 1.8h-5.7c-3.2-.1-6-.2-6.1-.3zm17.9-.2c-.4-.6 1.1-.8 6.6-.9l5-.1.8-1.5c.6-1.2.8-1.4 1.3-1s.4.7-.3 2.1l-.9 1.6-6.1.1c-3.8.1-6.3 0-6.4-.3zm-74.6-3.4c-.4-.7-.3-.9.9-1.4 2.7-1.3 2.7-1.5 2.5-17.4l-.5-14.9c-.2-.3-.9-1-1.6-1.4s-1.3-1-1.3-1.3c0-1.2 1-1.4 7-1.3 5.3.1 6 .2 6.4.8.3.6.2.8-.6 1.3-2.5 1.7-2.3.5-2.3 17.2v15.2h2.9c2.6 0 2.9-.1 2.9-.8 0-.4.2-.8.4-.8s.4-.3.4-.7.7-1.4 1.6-2.2l1.6-1.5v-5.7c0-5.3 0-5.7.8-6.2.4-.3.9-.4 1.1-.3s.3 2.6.5 5.4c.3 6.7 1.4 9.5 4.8 12.8.8.8 1.5 1.7 1.5 2 0 1.4-.8 1.5-14.8 1.7-13.6.2-13.8.2-14.2-.5zm55 .1c-.7-.2-.6-1.7.1-1.7.3 0 1-.4 1.6-.8l1-.8V70.6c0-16.8.1-15.9-2.2-16.9-.5-.2-.9-.7-.9-1.2 0-1.1.9-1.2 7.8-1.1 6 .1 6 .1 6.2 1 .1.6-.1 1-.7 1.1-1.4.4-1.4 1.9.2 4.7l1.7 3c.2.2 1.2 2.1 2.2 4.1l6 11.1c.4.5.5-21.2 0-21.9-.2-.2-.7-.6-1.3-.9-1.2-.4-1.4-1.2-.6-1.9.3-.2 2.4-.5 4.7-.5 3.3-.1 4.3 0 4.5.5.5.8.5 1-.8 1.9l-1.2.8v15.9c0 17-.1 16.4 1.8 17.5.6.3.6.5.1 1s-1.4.6-6.6.5c-5.5-.1-6.1-.2-6.2-.8-.1-.4.2-1.1.7-1.5 1.2-1.2 1.6-2.4 1.1-3.6-.2-.6-.6-1-.7-1-.2 0-.3-.3-.3-.8 0-.4-.2-.8-.3-.8-.2 0-.5-.4-.7-.9a114.38 114.38 0 0 0-2.5-4.6c-.1-.1-.5-.8-.9-1.6L91 65.3 89.7 63l-.1 10.9-.1 10.9 1 1.1c.6.6 1.5 1.2 2.2 1.3 1.2.3 1.6 1.5.5 1.9-.8.6-10.7.5-11.4.3zm-18.4-2.8c-2.2-2.2-3.5-4.4-4.2-7.6-.5-2.4-.6-3.2-.2-5.4.6-3.2 1.9-6 3.9-8.2.8-1 1.6-2 1.6-2.3s-.6-1.5-1.4-2.6c-1.1-1.7-1.3-2.4-1.3-4.1 0-3.8 1.4-5.6 4.2-5.7 2 0 3.3 1.2 3.7 3.2.4 2.2-.6 5.9-2.2 8.1l-.7 1 2 2.7c1.1 1.5 2.4 3.5 2.9 4.5l1 1.9 1.7-1.6c2-1.8 3.6-2.1 4.9-.8.9.9.6 2.4-.5 2.6-.5.1-.6-.2-.6-1.1 0-.8-.2-1.2-.6-1.2-1.5 0-3.6 1.9-3.6 3.4 0 1 1.2 3.7 2.3 5.4.4.6.8 1.4.8 1.7 0 .7-1.4.6-1.7-.1-.4-1.1-1.4-.7-1.5.7-.1.9-.3 1.3-.8 1.4-.7.1-.7-.1-.5-2.5.4-4.1-.8-4.8-1.4-.9-.3 1.8-2.3 6.2-3.6 7.7-1.5 1.6-2.3 1.6-4.2-.2zm3.5-1.4c1.6-2.2 3.1-6.1 3.1-8.4 0-3.1-1.8-5.3-3.4-4.2-1.1.7-1.1 1.9-.1 2.6.4.2.8.8.8 1.2s-.4.8-.8.9-.8.4-.8.7c0 .2.3.6.8.7 1 .2 1 1.3 0 1.8-1.2.7-2.1-.7-2.3-3.5-.2-2.3.5-5.4 1.2-5.4.2 0 .3-.2.3-.6s.4-.6 1.5-.6c1.7 0 2.9 1.1 3.3 3.1.2 1.2.7 1.5 1.2.8.6-.9-5-10.1-6.1-10.1-.5 0-2.2 3.8-3.1 6.9-1.5 5.4-.6 11.6 2.1 14.5 1.1 1.2 1.2 1.1 2.3-.4zm.4-26.4c.4-1.5.5-3.6.1-5-.3-1.1-1.4-1.5-2.5-.9-1.2.6-1.2 5.5 0 7.4.8 1.3.8 1.3 1.4.6.4-.3.8-1.3 1-2.1zm45 27.4c-.3-.3-.3-30.2.1-30.7.2-.2.9-.8 1.7-1.2 1.2-.7 1.5-.7 1.9-.3.6.7.2 1.3-.7 1.4-.4 0-1 .2-1.3.5-.7.5-.7 1.7-.7 15.3 0 8.2-.2 14.9-.3 15.1-.3.1-.5.1-.7-.1zm-72.9-1.7c-.4-1.2-.4-27.3 0-28.1.5-1 2.8-2.6 3.8-2.6 1.2 0 .8 1.2-.7 1.8-.8.3-1.6.8-1.7 1.1-.2.2-.3 6.6-.3 14.2 0 8.8-.1 13.8-.4 13.9s-.6 0-.7-.3zm52 .1V69.3c0-.1.3.2.6.6.8 1.2.8 15 0 15-.3 0-.6-.1-.6-.3zm-67.5-6.4c-.8-.6-.9-2.7-.1-3.3.7-.5 4.9-.4 4.9.2 0 .2-1 .4-2.2.5-1.5.1-2.1.2-2 .6a.76.76 0 0 0 .8.3c.8-.2 1.2.9.7 1.7-.6.6-1.2.7-2.1 0zm94.1-.3c-1.2-.5-1.2-1.6.1-1.6 1.8 0 .8-.9-1.2-1.2-2.8-.3-2.7-1.2.1-1.2 1.7 0 2.5.2 2.9.7.8.9.8 2.2.1 3s-.8.8-2 .3zm-76.4-3.1c0-.2.9-.4 1.9-.4 1.1 0 2 .2 2 .4s-.9.4-2 .4-1.9-.2-1.9-.4zm11.7 0c0-.2.7-.4 1.6-.4.8 0 1.7-.1 2-.1.2 0 .5.2.6.4.1.4-.4.5-2 .5-1.3 0-2.2-.2-2.2-.4zm22.6-.1c.1-.4 1.2-.5 3.7-.5 4.8 0 4.7.7-.2.9-2.8.1-3.6 0-3.5-.4zm-53.8-1c0-.2-.6-.4-1.3-.5-1.7-.2-1.7-1.2-.1-1.4.6-.1 1.3-.3 1.4-.6.2-.3.4-.3.8 0 .3.3 1.5.5 3.1.5 2.3 0 2.6.1 2.6.7s-.4.7-2.6.7c-1.4 0-2.8.2-3 .5-.4.5-.9.6-.9.1zm98.5-.3c-.5-.3-1.8-.5-2.8-.6-2 0-3.1-.3-3.1-.8 0-.2 1.1-.4 2.4-.4 1.5 0 2.7-.2 3.2-.6 1-.7 1.4-.7 1.4 0 0 .4.4.6 1.4.6 1.8 0 1.7.9-.1 1.1-.7.1-1.3.4-1.3.7-.1.5-.2.5-1.1 0zm-78.8-.8c-.5-.5.2-.9 1.9-.9 1.3 0 1.7.2 1.7.6s-.5.6-1.7.6c-.8 0-1.7-.2-1.9-.3zm12.1 0c-.6-.6.3-.9 2.1-.9 1.4 0 1.9.2 1.9.6s-.5.6-1.9.6c-1 0-2-.2-2.1-.3zm27-.3c0-.4.4-.6 1.2-.6 1.3 0 1.9.6 1 .9-1.2.5-2.2.3-2.2-.3zM23.8 70c-1.4-1.7-.3-4.1 1.6-3.6.8.2 1 .5.9 1.1s-.4.9-1 1c-1.6.2-.5.8 1.5.8 1.5 0 1.9.2 1.9.6 0 .8-4.4.9-4.9.1zm19 .3c-2-.2-1.5-.9.7-.9 1.4 0 1.9.2 1.8.5-.1.5-.6.6-2.5.4zm10.5-.5c0-.2 1.2-.4 2.7-.4s2.7.2 2.7.4-1.2.4-2.7.4-2.7-.2-2.7-.4zm28 0c0-.2.4-.4 1-.4.5 0 1 .2 1 .4s-.4.4-1 .4c-.6-.1-1-.2-1-.4zm33.5 0c0-.2.9-.4 2-.5 1.5-.1 2.1-.3 2.2-.7s-.2-.6-.7-.6c-.7 0-.9-.2-.9-.7 0-.6.2-.8 1.3-.8 1.7 0 2.3.9 1.8 2.4-.3 1-.5 1.1-3 1.2-1.6 0-2.7-.1-2.7-.3zm-11.7-.6c0-.3-.2-.6-.3-.6-.2 0-.5-.4-.7-.9s-1.8-3.3-3.4-6.2c-1.7-3-3-5.7-3-6.1s.5-1.1 1.2-1.6c1.1-.8 1.2-.8 1.4-.2.1.4 0 .8-.4 1-.9.5-.8 1.3.5 3.6l4.6 8.3c1.2 2.3 1.3 3.2.5 3.2-.2.1-.4-.2-.4-.5zm26.9 33.4H15V41.4h115v61.2zm-112.9-2.2h110.7V43.6H17.1v56.8z" fill="#fff"/></svg>