<svg xmlns="http://www.w3.org/2000/svg" width="350" height="353.577" xmlns:v="https://vecta.io/nano"><path d="M154.728 313.561c-3.034-.23-4.678-.73-5.544-1.689-.404-.447-.399-.43-.973-3.073-.37-1.697-.44-1.902-.924-2.664-1.04-1.638-1.827-3.182-2.166-4.25-.066-.209-.163-.797-.214-1.306-.103-1.021-.263-1.413-.775-1.9l-.343-.327-2.847-.07c-3.496-.086-4.476-.257-5.975-1.042a5.453 5.453 0 0 1-2.728-3.454c-.093-.358-.214-1.214-.27-1.902-.116-1.432-.39-2.28-1.164-3.6-.65-1.108-1.845-2.718-3.083-4.152l-1.014-1.174-4.199-2.797c-8.373-5.577-17.389-11.375-23.44-15.074l-12.72-7.965c-1.886-1.243-2.588-1.775-3.32-2.513-3.817-3.852-6.38-9.495-7.536-16.591-.462-2.835-.534-3.868-.476-6.814.044-2.191.103-3.008.29-4.003.517-2.747 1.76-5.7 3.497-8.306 1.398-2.098 2.198-3.05 4.44-5.286 2.024-2.02 3.703-3.455 5.932-5.07 2.417-1.751 19.666-13.306 20.128-13.483.087-.034.399-.54.692-1.125 3.745-7.463 9.545-14.371 16.505-19.658 2.744-2.084 5.484-3.839 9.366-5.998 15.234-8.472 26.42-17.245 31.973-25.075 6.468-9.12 9.948-20.508 10.028-32.808.017-2.654-.061-3.124-.687-4.109-.182-.286-.431-.908-.554-1.382-.185-.715-.205-.961-.114-1.45.147-.798.551-1.761 1.259-3.003.801-1.406 1.105-2.099 1.362-3.102.266-1.04.27-1.23.027-1.497-.154-.17-.197-.459-.226-1.503l-.037-1.292.363-.426c1.185-1.391 1.863-3.372 2.01-5.87.08-1.343.312-1.92 1.237-3.068.637-.79 1.032-1.509 1.137-2.068.04-.211-.035-1.257-.166-2.33-.27-2.208-.243-3.167.12-4.34.738-2.39 2.27-4.399 5.418-7.102 2.694-2.313 3.92-3.617 4.526-4.812l.27-.531-1.415-.942c-.778-.518-1.415-.995-1.415-1.06 0-.296 2.496-2.36 4.754-3.932.335-.232.46-.395.462-.597.004-.427.515-1.358.96-1.748.38-.332.405-.394.464-1.174.043-.557.206-1.226.505-2.073.243-.687.55-1.727.681-2.31.134-.595.294-1.06.365-1.058s1.177.098 2.463.216c3.16.29 3.264.287 3.608-.082.153-.164.334-.406.4-.536.31-.6-.004-1.717-.762-2.719l-.551-.728.224-.462.225-.462 1.336.541c1.85.75 4.649 1.648 7.092 2.279l2.085.506c.014-.014.105-.489.202-1.056.42-2.44 1.045-4.283 1.64-4.835.584-.541 1.759-.263 2.745.65 1.205 1.115 2.131 3.264 2.786 6.463l.346 1.687.645.243 7.657 2.966c8.695 3.626 16.084 7.691 21.742 11.963 3.744 2.826 7.471 6.269 7.949 7.341.313.703.529 2.225.638 4.49.115 2.41.132 2.34-.952 3.875-1.154 1.632-2.242 2.591-3.776 3.331-1.215.586-2.067.741-4.09.743-1.554.002-1.749-.02-2.283-.256-2.402-1.061-8.536-1.659-16.075-1.565-3.515.043-3.68.054-4.701.33-3.34.898-4.909 2.944-4.898 6.385.007 2.057.458 4.713 1.551 9.132.935 3.778 1.854 8.616 2.067 10.877.223 2.367.341 3.096.656 4.037.868 2.598 2.682 5.353 5.857 8.894 2.45 2.733 3.888 5.364 4.855 8.889.815 2.967 1.127 5.415 1.21 9.482l.064 3.098.44.696c.407.645.505.727 1.317 1.106 3.23 1.51 8.429 2.664 14.15 3.141 1.166.097 4.463.24 8.523.367 1.117.035 1.513.095 2.227.337 3.069 1.041 4.849 3.66 5.544 8.16.094.605.215 2.51.272 4.294.156 4.804.404 8.157.765 10.328.468 2.819.68 4.905.624 6.111-.043.909-.098 1.154-.395 1.758-.425.864-2.648 3.405-6.121 6.999-2.683 2.775-3.057 3.07-7.827 6.177-2.063 1.343-2.08 1.348-2.714.901-.412-.29-.921-1.133-1.28-2.12l-.313-.856-.927-.031-.928-.031-.354.52c-2.014 2.963-4.76 4.696-7.448 4.704-.452 0-.709-.049-.798-.156-.446-.538-.666-2.979-.448-4.98.48-4.416 2.378-6.54 6.051-6.773 1.395-.09 1.813-.2 2.275-.606.43-.377.706-1.138.706-1.944 0-.826.387-2.107.893-2.958l.466-.784.037-1.305c.101-3.58-.62-8.254-1.645-10.68-.437-1.031-1.187-2.198-1.781-2.772-.913-.88-2.403-1.501-3.603-1.501-1.282 0-4.258.757-8.39 2.133-4.219 1.405-11.453 3.455-13.97 3.957-.871.174-3.777 1.653-4.879 2.484-1.913 1.442-4.446 3.932-7.134 7.014-2.627 3.011-3.86 4.228-7.174 7.074-4.82 4.139-11.841 9.498-21.036 16.054-3.191 2.276-7.766 4.935-18.209 10.582-3.642 1.97-6.41 3.853-7.99 5.435-1.429 1.432-1.504 1.61-2.019 4.756-.77 4.708-2.046 11.15-4.191 21.174a720.027 720.027 0 0 1-2.701 12.176c-2.199 9.616-3.504 18.278-3.743 24.839-.135 3.703.07 5.584.916 8.373 1.094 3.608 3.249 7.858 6.118 12.066 5.278 7.737 7.237 10.87 7.64 12.216.112.374.105.479-.049.714-.45.686-1.868 1.004-4.808 1.076-1.07.026-2.19.029-2.49.01zm-21.306-47.598c.457-.19.786-.703.875-1.362.036-.271.156-.982.266-1.58a53.03 53.03 0 0 0 .758-8.46c-.002-1.072-.042-1.412-.212-1.786-.257-.566-.429-.583-1.803-.185-1.774.514-5.24 2.348-6.7 3.546-1.085.889-2.826 2.691-3.319 3.435-.849 1.282-1.055 2.185-.74 3.24.448 1.501 2.337 2.584 5.275 3.025 1.595.239 1.702.247 3.564.266 1.233.013 1.758-.023 2.036-.14zm-20.634-17.72c3.44-.723 7.691-3.653 9.62-6.63.817-1.262 1.18-3.19.84-4.465-.15-.56-.678-1.345-1.116-1.66l-1.654-1.168c-2.167-1.524-3.595-2.722-5.496-4.615-2.634-2.622-4.197-4.683-5.526-7.287-.98-1.919-1.3-2.813-1.472-4.118-.77-5.834-1.736-11.044-2.17-11.706-.143-.22-.21-.239-.52-.152-.195.055-.554.309-.796.564-1.082 1.137-1.781 4.123-2.112 9.011-.128 1.905-.371 3.02-1.566 7.185-1.585 5.523-2.137 9.327-1.699 11.718.379 2.068 1.4 4.369 2.991 6.74 1.414 2.107 2.237 3.142 3.33 4.188 1.378 1.322 2.496 2.003 3.9 2.378.776.207 2.503.216 3.446.018zm152.263-67.392c.321-.134 1.269-1.078 1.269-1.264 0-.042-.098-.165-.218-.273-.14-.128-.217-.335-.217-.59 0-.603.403-1.926.875-2.87 1.072-2.146 1.183-2.892.982-6.65-.247-4.608-.804-7.524-1.826-9.556-.703-1.398-1.988-2.453-2.993-2.455h-.408v2.842c0 2.803-.004 2.851-.27 3.398-.546 1.126-.622 1.713-.568 4.396.03 1.553.114 2.845.225 3.496.128.75.177 1.734.178 3.587.001 2.183.033 2.688.22 3.469.502 2.092 1.504 2.992 2.75 2.47z"/></svg>