<svg xmlns="http://www.w3.org/2000/svg" viewBox="0 0 144 144" xmlns:v="https://vecta.io/nano"><circle fill="#fff" cx="72.2" cy="72" r="66.4"/><circle fill="#f58121" cx="72" cy="72" r="69.3"/><g fill="#fff"><path d="M73 130.2c0-3.4.2-4 1.9-1.9 3.4 4.4 3.1 4.7 5.5 4l2.4-1-1.4-2.4c-2.1-2.9-2.8-4-1.4-6.3 1.3-2.1 1.3-6.1.2-8.1-1-1.7-4-3.3-6-3.3a30.01 30.01 0 0 0-3.7.3l-2.4.3-.3 10.1c-.2 5.6-.2 10.3-.1 10.6.2.3 1.3.5 2.6.5l2.7-.2m-.1-10.8c-.2-.2-.3-1.7-.3-3.5 0-3 .1-3.2 1.1-3.2 1.5 0 2.6 1.4 2.6 3.4 0 2.4-2.2 4.5-3.4 3.3zm-7.6 8.9c.3-1.3 0-2.4-.8-2.4-1.5 0-4.4-.7-4.6-1.5-.2-.5.5-4.3 1.4-8.6l1.6-7.9c0-.5-3.8-1.2-4.1-.9-.4.4-5.6 18.7-5.6 19.6 0 .7 7 2.6 10 2.7 1.2 0 1.8.5 2-.4l.1-.6zm32-3.6c5-4.4 3-16.1-3.3-19.3-2.7-1.4-8 .1-9.9 2.8-1.6 2.2-1.6 7.6 0 10.5 2.3 4.4 6.4 7.5 9.9 7.5 1.2 0 2.1-.4 3.3-1.5zm-5.7-2.9c-3.1-2.6-5.2-9.6-3.6-12 1-1.5 2.7-1.5 4.3 0 2.9 2.9 4.8 10.4 3.2 12.2-1.1 1.3-2.2 1.2-3.9-.2zm-39.3-7.1c4-8.4 4.2-9 3.4-9.6-1.2-.9-2.9-1.2-3.4-.8-1.1 1.1-9.7 17.6-9.5 18.1.4 1 4.1 2.4 4.7 1.8.3-.3 2.5-4.6 4.8-9.5zm-7.9-4.1c2.1-4.9 3.7-9.2 3.7-9.6-.1-.4-.6-1-1.1-1.3-.8-.5-2-.1-10.2 3.9l-10 4.9c-.7.4-.7.6.6 2s1.4 1.5 2.7.8c2-1 2.8-.8 4.8.9 1.5 1.3 1.9 1.5 1.7 2.6-.1.7-.5 1.9-.6 2.5-.2 1.2 3.3 3.7 4.1 2.9.3-.5 2.2-4.7 4.3-9.6zm-6.4-1.3c-1.4-1-1.3-1.9.5-3 1.4-.9 3.1-1.2 3.1-.7s-1.8 3.8-2.2 4.1c-.2.2-.8 0-1.4-.4zm68.4 10.4c1.4-1 1.4-1.3.6-4.2-.2-.8 2.6-3.9 4.1-4.3.5-.2 1.3.1 1.8.5.6.4 1.4.7 1.8.7.9 0 3.4-3 3-3.7-.2-.4-14.4-9.4-16.8-10.6-.9-.5-1.2-.4-2.1.4l-1 1 3.3 10.6c1.8 5.8 3.5 10.6 3.7 10.6.1-.1.8-.5 1.6-1zm-2.1-10.7c-.9-1.3-1.5-4-.9-4 .8 0 3.9 2.4 3.9 3s-1.4 2.1-2 2.1c-.2-.1-.6-.6-1-1.1zm-71.5-7.5c5.3-.4 7-3.1 7-7.4 0-1.7-3.1-8.1-3.9-8.1-1.1 0-18.2 8.5-18.2 9.1 0 .4.4 1.5.9 2.5l1 1.9 2.1-1.2c1.2-.7 2.3-1.2 2.5-1.2.8 0 .4 2.3-.8 4.6-1.3 2.5-1.3 2.5.9 5l.9 1 1.7-3.1 1.7-3.1h4.2zm-3.3-5.4c-1.4-.8-.9-1.8 1.9-3.2 1.5-.8 3-1.4 3.2-1.4 1.5 0 .5 4.2-1.1 4.8-1.1.5-3 .3-4-.2zm92.4 7.8c2.4-3.6 2.9-4.9 2.9-7.9 0-3.9-2.2-7.6-5.7-9.4-1-.6-2.6-.8-5-.8-3.3 0-3.7.1-5.3 1.4-1.7 1.4-5.2 5.6-5.2 6.3 0 .4 15.7 13.3 16.1 13.3.1 0 1.1-1.3 2.2-2.9zm-8.1-8.1c-2.9-2.3-5.1-4.3-5-4.7.2-1.1 2.7-1.6 5-.9 3.9 1 7.8 6.2 6.7 9-.5 1.2-1.6.7-6.7-3.4zm-79-41.8c3.4-3.1 3.9-7.2.5-9.4-2.9-2-5.5-1.7-9.2.8-3.7 2.6-4.6 2.2-5.2 1-.6-1.1-.2-1.9 1.4-3.7 1.5-1.6 1.5-2.9-.2-2.9-1.4 0-4 2.9-4.6 5.1-.8 2.6.1 5.3 1.9 6.2 2.2 1.1 5.1.9 8.1-.7 3.2-1.7 5.5-1.7 5.7 0 .1.6-.3 1.7-.8 2.4-1 1.3-.9 2.7.2 2.7.3 0 1.3-.7 2.2-1.5zm82.9.5c2.6-.7 5.8-3.4 7.1-6.1 1.4-2.9 1.3-5.7-.4-9-2.2-4.4-1.7-4.5-11 1.3l-8.4 5.3c-.2.2 1.1 2.7 2.7 5.1 2.4 3.7 5.2 4.6 10 3.4zm-7.2-4.2c-2.4-1.2-1.7-1.9 4.6-5.4 3.3-1.8 6.2-3.2 6.5-3 1.4.8-.4 5.5-2.6 7.1-2.8 1.8-6.3 2.4-8.5 1.3zm-67.9-7.3c2.6-2.8 3.4-4 1.2-4.8-.4-.2-1.4.6-2.4 1.5-1.7 1.5-2 1.5-3.8-.1-1.4-1.3-1.4-2.4.4-4.2 1.4-1.3 1.6-2 .9-2.8-.5-.6-.8-.8-1.3-.7s-1.1.6-2 1.6c-.9.9-1.9 1.6-2.4 1.6-.9 0-3.6-2.2-3.6-2.9 0-.3.9-1.5 2.1-2.8 2-2.2 2.1-2.4 1.3-3.2-.4-.5-.8-1.2-1.1-1.2-.9 0-8.1 7.9-8.1 8.9 0 .4 15.4 11.8 16 11.8.2.1 1.4-1.1 2.8-2.7zm63.4-1.4c1.6-2.6 2.3-3.4 3.4-3.6 5-1 8.2-5.5 6.7-9.2-.6-1.4-6.2-6.6-6.9-6.3-.2.1-3.3 3.4-6.9 7.5l-6.5 7.3 1 1.1c1.7 1.6 2.2 1.6 3.6-.5 2.3-3.3 4-1.7 2.1 2l-1.2 2.4 1 1.4c.6.8 1.2 1.4 1.4 1.4.1-.2 1.2-1.7 2.3-3.5zm.9-8.1c-1.1-.4-.6-1.8 1.2-3.5 2-1.9 2.6-2.1 3.3-.8 1.4 2.5-1.7 5.4-4.5 4.3zm-57.8 3.6c.5-.6 0-1.7.1-2.5s.6-.9 1.3-1.5c1.2-.9 1.6-1.2 2.7-.1.9.8 1.1.8 2.8.1l1.4-.7-1.5-1.7c-6.1-7-12.2-13.5-12.6-13.5-.3 0-1.2.4-2 .9-1.3.8-1.4 1.1-1.1 2.2.2.7 1.6 4.9 3 9.4L46 41c.3.9.9.7 2-.5l1.1-.8zM46.7 32c-.6-1.5-.6-3 0-3 .2 0 1 .7 1.6 1.4 1 1.1 1.1 1.6.7 2.1-.8 1-1.8.8-2.3-.5zm48.5 5l4.7-17.9c0-.3-2.7-1.6-3.4-1.6-.8 0-13.6 15.5-13.3 16 .6.9 2.8 1.7 3.7.8.8-.8 1.5-1.3 3-.6 1.6.7 1.8 1.2 1.6 2.6-.1.7 1.7 2.3 2.6 2.3.4.1.9-.7 1.1-1.6zm-4-6.9c-.4-1 .9-3.1 2-3.3.7-.1.7.1.5 1.6-.2 1-.4 1.9-.6 2.1-.4.6-1.6.4-1.9-.4zM63.4 33c4-1 5.9-3 5.4-6.5-.2-1.7-.5-2-1.9-3.2-1.5-1.4-1.6-1.6-1.2-3.1.6-2.1.1-4.3-1.3-5.7-1-1-1.6-1.2-3.6-1.2-2.9 0-7.1 1.2-7.5 2.1-.2.6 4.5 17 5.2 18.3.4.6 1.7.4 4.9-.7zm-2.3-4.2c-.7-1.8-.6-2.9.4-3.4.7-.4 1.2-.3 2.2.7 1.3 1.1 1.3 1.2.6 2.4-1 1.7-2.6 1.9-3.2.3zm-2.3-8.1c-.7-1.3-.6-3.2.2-3.6 1-.4 3 1.1 3 2.1 0 .9-1.4 2.4-2.2 2.4-.3 0-.8-.4-1-.9zM80.4 32c3.1-1.6 6-6.7 6.4-11.3.4-4.7-2.5-8.5-7-9.1-4.8-.7-8.7 2.8-9.7 8.9-.7 4.3 1.5 10.1 4.4 11.6 1.5.8 4.3.7 5.9-.1zm-4.8-2.7c-2.9-2.9-1.5-12.4 2-13.6 3-1.1 5.2 2.9 4.3 7.7-.6 3.1-1.5 5.9-3 6.4-1.3.4-1.9.3-3.3-.5z"/><path d="M72.2 136.1c-17.1 0-33.2-6.7-45.4-18.8C14.8 105.2 8.1 89.1 8.1 72s6.7-33.2 18.8-45.4C39 14.5 55.1 7.8 72.2 7.8s33.2 6.7 45.4 18.8c12.1 12.1 18.8 28.2 18.8 45.4s-6.7 33.2-18.8 45.4c-12.1 12-28.2 18.7-45.4 18.7zm0-126.9C37.6 9.2 9.5 37.4 9.5 72s28.2 62.8 62.8 62.8 62.8-28.2 62.8-62.8C135 37.4 106.8 9.2 72.2 9.2zm0 100.5c-20.8 0-37.8-16.9-37.8-37.8 0-20.8 16.9-37.8 37.8-37.8S110 51.1 110 72c0 20.8-16.9 37.7-37.8 37.7zm0-73.8c-19.9 0-36.1 16.2-36.1 36.1s16.2 36.1 36.1 36.1 36.1-16.2 36.1-36.1-16.2-36.1-36.1-36.1z"/><circle cx="72.2" cy="72" r="32.7"/><path d="M9.2 64.1H36v1.7H9.2zm.5 14.6H36v1.7H9.7zm98.8-14.6h26.3v1.7h-26.3zm0 14.6h26.3v1.7h-26.3z"/></g><path fill="#88171a" d="M99.1 57.9c-3.1-9.4-13-13.1-21.4-7.8-1.8 1.2-3.5 2.7-5.4 4.2-2.2-1.5-4.2-3-6.4-4.3-8.4-4.9-18.4-.7-20.7 8.7-1.7 6.8.2 13.1 4.3 18.5 4.3 5.7 9.2 11 14 16.3 2.7 3 5.7 5.6 8.8 8.6l9.2-8.7c6-5.9 11.6-12.1 15.5-19.7 2.5-5 4-10.2 2.1-15.8z"/><path fill="#fff" d="M55.6 59.6h-1.3v4.2c0 .2-.1.4-.2.5s-.2.2-.4.2-.3-.1-.4-.2-.2-.3-.2-.5v-4.2h-1.3c-.2 0-.3 0-.4-.1s-.1-.2-.1-.3a.76.76 0 0 1 .2-.4c.1-.1.2-.1.4-.1h3.7c.2 0 .4 0 .5.1s.1.2.1.4 0 .3-.1.3c-.1.1-.3.1-.5.1zm2.6-.4v1.7h2.5v-1.7c0-.2.1-.4.2-.5s.2-.2.4-.2.3.1.4.2.2.3.2.5v4.6c0 .2-.1.4-.2.5a.76.76 0 0 1-.4.2c-.2 0-.3-.1-.4-.2s-.2-.3-.2-.5v-1.9h-2.5v1.9c0 .2-.1.4-.2.5a.76.76 0 0 1-.4.2c-.2 0-.3-.1-.4-.2-.2-.1-.2-.3-.2-.5v-4.6c0-.2.1-.4.2-.5s.2-.2.4-.2.3.1.4.2.2.3.2.5zm6.6 2.7h-.4v1.9c0 .2-.1.4-.2.5s-.2.2-.4.2-.3-.1-.4-.2-.2-.3-.2-.5v-4.4c0-.3.1-.4.2-.5s.3-.2.5-.2h2.6c.2 0 .4.1.5.1.2.1.3.2.5.3s.2.3.3.5.1.4.1.6c0 .4-.1.8-.4 1-.2.3-.6.4-1.1.5.2.1.4.3.6.5s.4.4.5.7c.1.2.3.5.3.7.2.2.2.4.2.4 0 .1 0 .2-.1.2 0 .1-.1.1-.2.2-.1 0-.2.1-.3.1s-.2 0-.3-.1-.2-.1-.2-.2a1.38 1.38 0 0 1-.3-.4l-.5-.8c-.2-.3-.3-.5-.5-.7-.1-.1-.3-.3-.4-.3s-.2-.1-.4-.1zm.6-2.4h-1.1v1.6h1c.3 0 .5 0 .7-.1.2 0 .3-.1.4-.2s.2-.3.2-.5 0-.3-.1-.4l-.3-.3c-.1-.1-.4-.1-.8-.1zm6.2-1c.6 0 1.1.1 1.5.4a2.41 2.41 0 0 1 1 1c.2.4.3 1 .3 1.6a4.3 4.3 0 0 1-.2 1.2c-.1.4-.3.7-.5 1s-.5.5-.9.6-.8.2-1.2.2a3.73 3.73 0 0 1-1.2-.2c-.4-.1-.7-.4-.9-.6-.2-.3-.4-.6-.5-1s-.2-.8-.2-1.2a4.3 4.3 0 0 1 .2-1.2c.1-.4.3-.7.6-.9s.5-.5.9-.6c.3-.2.7-.3 1.1-.3zm1.7 3c0-.4-.1-.8-.2-1.1s-.3-.5-.6-.7-.5-.2-.9-.2c-.2 0-.5 0-.6.1-.2.1-.4.2-.5.4s-.3.4-.3.6c-.2.3-.2.6-.2.9s0 .6.1.9.2.5.4.7.3.3.5.4.4.1.6.1c.3 0 .6-.1.8-.2.3-.1.5-.4.6-.7.2-.4.3-.7.3-1.2zm2.3.5v-2.8c0-.2.1-.4.2-.5s.2-.2.4-.2.3.1.4.2.2.3.2.5V62c0 .3 0 .6.1.8s.2.4.4.5.4.2.8.2c.5 0 .8-.1 1-.4.2-.2.3-.6.3-1.1v-2.9c0-.2.1-.4.2-.5s.2-.2.4-.2.3.1.4.2.2.3.2.5V62c0 .5 0 .8-.1 1.1s-.3.6-.5.8-.5.3-.7.4c-.3.1-.6.1-1 .1s-.8 0-1.1-.1-.6-.2-.8-.4-.4-.5-.4-.8c-.4-.3-.4-.6-.4-1.1zm11.4.1v1.5c0 .1-.1.2-.2.2-.1.1-.2.1-.3.2-.3.2-.7.3-1 .4s-.7.1-1.1.1-.8-.1-1.2-.2-.7-.3-.9-.6c-.3-.3-.5-.6-.6-.9-.1-.4-.2-.8-.2-1.2a4.3 4.3 0 0 1 .2-1.2c.1-.4.3-.7.6-1s.6-.5.9-.6c.4-.1.8-.2 1.3-.2.4 0 .7.1 1 .2s.5.2.7.4.3.3.4.5.1.3.1.5a.76.76 0 0 1-.2.4c-.1.1-.2.2-.4.2-.1 0-.2 0-.2-.1-.1 0-.1-.1-.2-.2-.1-.2-.3-.4-.4-.5s-.2-.2-.4-.3-.4-.1-.6-.1c-.3 0-.5 0-.7.1s-.4.2-.5.4c-.2.2-.3.4-.3.7-.1.3-.1.5-.1.9 0 .7.2 1.2.5 1.6s.7.5 1.3.5c.3 0 .5 0 .8-.1.2-.1.5-.2.7-.3v-.9h-.9c-.2 0-.4 0-.5-.1s-.2-.2-.2-.3 0-.2.1-.3.2-.1.4-.1h1.7c.1 0 .2.1.3.2.1-.2.1 0 .1.2zm2.4-2.9v1.7h2.5v-1.7c0-.2.1-.4.2-.5s.2-.2.4-.2.3.1.4.2.2.3.2.5v4.6c0 .2-.1.4-.2.5a.76.76 0 0 1-.4.2c-.2 0-.3-.1-.4-.2s-.2-.3-.2-.5v-1.9h-2.5v1.9c0 .2-.1.4-.2.5a.76.76 0 0 1-.4.2c-.2 0-.3-.1-.4-.2s-.2-.3-.2-.5v-4.6c0-.2.1-.4.2-.5s.2-.2.4-.2.3.1.4.2c.2.1.2.3.2.5zm-36 7.4h-1.3v4.2c0 .2-.1.4-.2.5s-.2.2-.4.2-.3-.1-.4-.2-.2-.3-.2-.5v-4.2h-1.3c-.2 0-.3 0-.4-.1s-.1-.2-.1-.3a.76.76 0 0 1 .2-.4c.1-.1.2-.1.4-.1h3.7c.2 0 .4 0 .5.1s.1.2.1.4 0 .3-.1.3c-.2 0-.3.1-.5.1zm2.5-.4v1.7h2.5v-1.7c0-.2.1-.4.2-.5s.2-.2.4-.2.3.1.4.2.2.3.2.5v4.6c0 .2-.1.4-.2.5a.76.76 0 0 1-.4.2c-.2 0-.3-.1-.4-.2s-.2-.3-.2-.5v-1.9h-2.5v1.9c0 .2-.1.4-.2.5a.76.76 0 0 1-.4.2c-.2 0-.3-.1-.4-.2s-.2-.3-.2-.5v-4.6c0-.2.1-.4.2-.5s.2-.2.4-.2.3.1.4.2c.2.1.2.3.2.5zm8.9.3h-2.6v1.4h2.4c.2 0 .3 0 .4.1s.1.2.1.3 0 .2-.1.3-.2.1-.4.1h-2.4v1.6h2.7c.2 0 .3 0 .4.1s.1.2.1.3 0 .2-.1.3-.2.1-.4.1h-3.2c-.3 0-.4-.1-.5-.2-.2.2-.2 0-.2-.2v-4.3c0-.2 0-.3.1-.4 0-.1.1-.2.2-.2s.2-.1.4-.1h3.1c.2 0 .3 0 .4.1s.1.2.1.3 0 .2-.1.3-.3.1-.4.1zm4.9-.3v1.7h2.5v-1.7c0-.2.1-.4.2-.5s.2-.2.4-.2.3.1.4.2.2.3.2.5v4.6c0 .2-.1.4-.2.5a.76.76 0 0 1-.4.2c-.2 0-.3-.1-.4-.2s-.2-.3-.2-.5v-1.9h-2.5v1.9c0 .2-.1.4-.2.5a.76.76 0 0 1-.4.2c-.2 0-.3-.1-.4-.2s-.2-.3-.2-.5v-4.6c0-.2.1-.4.2-.5s.2-.2.4-.2.3.1.4.2.2.3.2.5zm8.8.3h-2.6v1.4h2.4c.2 0 .3 0 .4.1s.1.2.1.3 0 .2-.1.3-.2.1-.4.1h-2.4v1.6h2.7c.2 0 .3 0 .4.1s.1.2.1.3 0 .2-.1.3-.2.1-.4.1h-3.2c-.3 0-.4-.1-.5-.2s-.2-.3-.2-.5v-4.3c0-.2 0-.3.1-.4s.1-.2.2-.2.2-.1.4-.1h3.1c.2 0 .3 0 .4.1s.1.2.1.3 0 .2-.1.3c0 .4-.2.4-.4.4zm5.4 4.2l-.3-.7h-2.3l-.3.7c-.1.3-.2.5-.3.6s-.2.2-.4.2a.76.76 0 0 1-.4-.2c-.1-.1-.2-.2-.2-.4v-.2c0-.1.1-.2.1-.4l1.5-3.8c0-.1.1-.2.2-.4s.1-.3.2-.4.2-.2.3-.2c.1-.1.2-.1.4-.1s.3 0 .4.1.2.1.3.2.1.2.2.3a.76.76 0 0 0 .2.4l1.5 3.7c.1.3.2.5.2.6a.76.76 0 0 1-.2.4c-.1.1-.2.2-.4.2h-.2c-.1 0-.1-.1-.2-.1 0-.1-.1-.1-.1-.3-.1 0-.2-.1-.2-.2zm-2.3-1.6h1.7l-.9-2.4-.8 2.4zm6.1-.2h-.4v1.9c0 .2-.1.4-.2.5s-.2.2-.4.2-.3-.1-.4-.2-.2-.3-.2-.5v-4.4c0-.3.1-.4.2-.5s.3-.2.5-.2h2.6c.2 0 .4.1.5.1.2.1.3.2.5.3.1.1.2.3.3.5s.1.4.1.6c0 .4-.1.8-.4 1-.2.3-.6.4-1.1.5.2.1.4.3.6.5s.4.4.5.7c.1.2.3.5.3.7.1.2.1.3.1.4s0 .2-.1.2c0 .1-.1.1-.2.2-.1 0-.2.1-.3.1s-.2 0-.3-.1-.2-.1-.2-.2a1.38 1.38 0 0 1-.3-.4l-.4-.9c-.2-.3-.3-.5-.5-.7-.1-.1-.3-.3-.4-.3h-.4zm.6-2.4h-1.1v1.6h1c.3 0 .5 0 .7-.1.2 0 .3-.1.4-.2s.2-.3.2-.5 0-.3-.1-.4l-.3-.3c-.1-.1-.4-.1-.8-.1zm7 .1H94v4.2c0 .2-.1.4-.2.5s-.2.2-.4.2-.3-.1-.4-.2-.2-.3-.2-.5v-4.2h-1.3c-.2 0-.3 0-.4-.1s-.1-.2-.1-.3a.76.76 0 0 1 .2-.4c.1-.1.2-.1.4-.1h3.7c.2 0 .4 0 .5.1s.1.2.1.4 0 .3-.1.3-.3.1-.5.1zm-34.8 5.9c.6 0 1.1.1 1.5.4a2.41 2.41 0 0 1 1 1c.2.4.3 1 .3 1.6a4.3 4.3 0 0 1-.2 1.2c-.1.4-.3.7-.5 1s-.5.5-.9.6-.8.2-1.2.2a3.73 3.73 0 0 1-1.2-.2c-.4-.1-.7-.4-.9-.6-.2-.3-.4-.6-.5-1s-.2-.8-.2-1.2a4.3 4.3 0 0 1 .2-1.2c.1-.4.3-.7.6-.9.2-.3.5-.5.9-.6.3-.3.7-.3 1.1-.3zm1.7 2.9c0-.4-.1-.8-.2-1.1s-.3-.5-.6-.7-.5-.2-.9-.2c-.2 0-.5 0-.6.1-.2.1-.4.2-.5.4s-.3.4-.3.6c-.1.3-.1.6-.1.9s0 .6.1.9.2.5.4.7.3.3.5.4.4.1.6.1c.3 0 .6-.1.8-.2.3-.1.5-.4.6-.7a3.73 3.73 0 0 0 .2-1.2zm5.7-1.9h-2.3V75h1.9c.2 0 .3 0 .4.1s.1.2.1.3 0 .2-.1.3-.2.1-.4.1h-1.9v1.9c0 .2-.1.4-.2.5s-.2.2-.4.2-.3-.1-.4-.2-.2-.3-.2-.5v-4.4c0-.2 0-.3.1-.4 0-.1.1-.2.2-.2s.2-.1.4-.1h2.8c.2 0 .3 0 .4.1s.1.2.1.3 0 .2-.1.3-.2.2-.4.2zm7.4 0H74v4.2c0 .2-.1.4-.2.5s-.2.2-.4.2-.3-.1-.4-.2-.2-.3-.2-.5v-4.2h-1.3c-.2 0-.3 0-.4-.1s-.1-.2-.1-.4a.76.76 0 0 1 .2-.4c.1-.1.2-.1.4-.1h3.7c.2 0 .4 0 .5.1s.1.2.1.4c0 .1-.1.3-.1.3-.2.2-.3.2-.5.2zm2.5-.3v1.7h2.5v-1.7c0-.2.1-.4.2-.5s.2-.2.4-.2.3.1.4.2.2.3.2.5v4.6c0 .2-.1.4-.2.5a.76.76 0 0 1-.4.2c-.2 0-.3-.1-.4-.2s-.2-.3-.2-.5v-1.9h-2.5v1.9c0 .2-.1.4-.2.5a.76.76 0 0 1-.4.2c-.2 0-.3-.1-.4-.2s-.2-.3-.2-.5v-4.6c0-.2.1-.4.2-.5s.2-.2.4-.2.3.1.4.2c.2 0 .2.2.2.5zm8.9.3H84v1.4h2.4c.2 0 .3 0 .4.1s.1.2.1.3 0 .2-.1.3-.2.1-.4.1H84v1.6h2.7c.2 0 .3 0 .4.1s.1.2.1.3 0 .2-.1.3-.2.1-.4.1h-3.2c-.3 0-.4-.1-.6-.2-.1-.1-.2-.3-.2-.5v-4.3c0-.2 0-.3.1-.4s.1-.2.2-.2.2-.1.4-.1h3.1c.2 0 .3 0 .4.1s.1.2.1.3 0 .2-.1.3c.1.3 0 .4-.2.4zM62.8 83.6c0 .3-.1.7-.3.9a1.85 1.85 0 0 1-.8.7c-.4.2-.8.2-1.2.2-.6 0-1-.1-1.4-.3-.3-.2-.5-.4-.6-.6-.2-.3-.2-.5-.2-.8 0-.1 0-.3.1-.4s.2-.2.4-.2c.1 0 .2 0 .3.1s.2.2.2.4c.1.2.2.3.2.5.1.1.2.2.4.3s.4.1.6.1c.3 0 .6-.1.8-.2.2-.2.3-.4.3-.6s-.1-.3-.2-.5c-.1-.1-.3-.2-.5-.3s-.4-.1-.7-.2l-1-.3c-.3-.1-.5-.3-.7-.5s-.2-.5-.2-.8.1-.6.3-.8.4-.4.8-.6a3.73 3.73 0 0 1 1.2-.2c.4 0 .7 0 .9.1.3.1.5.2.6.4.2.1.3.3.4.5a.9.9 0 0 1 .1.5c0 .1 0 .3-.1.4s-.2.2-.4.2c-.1 0-.2 0-.3-.1s-.1-.2-.2-.3c-.1-.2-.2-.4-.4-.5-.1-.1-.4-.2-.7-.2s-.5.1-.7.2a.55.55 0 0 0-.3.5c0 .1 0 .2.1.3s.1.2.3.2c.1.1.2.1.3.1s.3.1.6.1l.9.3c.3.1.5.2.7.3s.3.3.4.5c-.1 0 0 .3 0 .6zm3.6-4.2c.6 0 1.1.1 1.5.4a2.41 2.41 0 0 1 1 1c.2.4.3 1 .3 1.6a4.3 4.3 0 0 1-.2 1.2c-.1.4-.3.7-.5 1s-.5.4-.9.6-.8.2-1.2.2a3.73 3.73 0 0 1-1.2-.2c-.4-.1-.7-.4-.9-.6-.2-.3-.4-.6-.5-1s-.2-.8-.2-1.2a4.3 4.3 0 0 1 .2-1.2c.1-.4.3-.7.6-.9.2-.3.5-.5.9-.6.3-.2.7-.3 1.1-.3zm1.7 3c0-.4-.1-.8-.2-1.1s-.3-.5-.6-.7-.5-.2-.9-.2c-.2 0-.5 0-.6.1-.2.1-.4.2-.5.4s-.3.4-.3.6c-.1.3-.1.6-.1.9s0 .6.1.9.2.5.4.7.3.3.5.4.4.1.6.1c.3 0 .6-.1.8-.2.3-.1.5-.4.6-.7.1-.4.2-.8.2-1.2zm2.3.5v-2.8c0-.2.1-.4.2-.5s.2-.2.4-.2.3.1.4.2.2.3.2.5V83c0 .3 0 .6.1.8s.2.4.4.5.4.2.8.2c.5 0 .8-.1 1-.4.2-.2.3-.6.3-1.1v-2.9c0-.2.1-.4.2-.5s.2-.2.4-.2.3.1.4.2.2.3.2.5v2.8c0 .5 0 .8-.1 1.1s-.3.6-.5.8-.5.3-.7.4c-.3.1-.6.1-1 .1s-.8 0-1.1-.1-.6-.2-.8-.4-.4-.5-.4-.8c-.4-.3-.4-.7-.4-1.1zm9.9-2.4H79v4.2c0 .2-.1.4-.2.5s-.2.2-.4.2-.3-.1-.4-.2-.2-.3-.2-.5v-4.2h-1.3c-.2 0-.3 0-.4-.1 0-.1-.1-.3-.1-.4a.76.76 0 0 1 .2-.4c.1-.1.2-.1.4-.1h3.7c.2 0 .4 0 .5.1s.1.2.1.4c0 .1-.1.3-.1.3-.1.1-.3.2-.5.2zm2.6-.4v1.7h2.5v-1.7c0-.2.1-.4.2-.5s.2-.2.4-.2.3.1.4.2.2.3.2.5v4.6c0 .2-.1.4-.2.5a.76.76 0 0 1-.4.2c-.2 0-.3-.1-.4-.2s-.2-.3-.2-.5v-1.9h-2.5v1.9c0 .2-.1.4-.2.5a.76.76 0 0 1-.4.2c-.2 0-.3-.1-.4-.2s-.2-.3-.2-.5v-4.6c0-.2.1-.4.2-.5s.2-.2.4-.2.3.1.4.2.2.3.2.5zM17.2 67.6h1.6l2.1 9.6h-1.6l-.4-2h-2.1l-.4 2H15l2.2-9.6zm1.4 5.9l-.7-3.9-.7 3.9h1.4zm3-5.9h1.6v9.6h-1.6v-9.6zm3.1 0H27c.4 0 .8 0 1 .1s.5.2.7.4.4.6.6 1 .2.9.2 1.4c0 1.2-.3 2.1-1 2.5l1.3 4.2h-1.7l-1-3.8h-.8v3.8h-1.6v-9.6zm1.6 1.5v2.7h.7c.6 0 .9-.5.9-1.4 0-.3 0-.6-.1-.8s-.2-.3-.3-.4-.3-.1-.5-.1h-.7zm87-1.8h1.6v7.8h2.4v1.8h-4v-9.6zm4.7 0h1.6v9.6H118v-9.6zm3.1 0h1.8l1.9 6v-6h1.2v9.6h-1.4l-2.2-7v7h-1.2v-9.6h-.1zm6.3 0h4.4V69H129v2.2h2.2v1.7H129v2.4h2.8V77h-4.4v-9.7z"/></svg>