<svg xmlns="http://www.w3.org/2000/svg" width="230" height="230.739" xmlns:v="https://vecta.io/nano"><path fill="#020202" d="M104.872 15.987c-9.318 2.675-18.793 3.344-27.967 7.05-24.447 9.873-44.007 29.56-54.367 53.7-3.863 9.005-4.825 17.502-6.37 26.947-7.198 43.98 19.614 87.944 60.316 104.833 20.717 8.595 46.357 9.335 67.787 3.193 52.153-14.946 82.345-73.72 66.513-124.867-11.066-35.748-41.866-63.866-79.144-69.65-7.996-1.24-18.774-3.5-26.768-1.206m3.19 6.558c10.451-1.233 21.509.457 31.578 3.184 10.68 2.892 20.97 7.765 29.893 14.33 12.684 9.334 23.551 21.883 30.184 36.258 18.179 39.397 6.468 88.3-28.5 114.32-13.86 10.313-30.156 15.732-47.156 17.765-9.638 1.152-20.067-.12-29.472-2.228-9.844-2.206-19.237-6.326-27.788-11.627C12.869 161.11 8.47 80.897 58.38 41.653c14.458-11.369 31.655-16.981 49.682-19.108m24.42 6.616c-1.957-5.742-9.34-6.268-12.54-1.246-3.977 6.236 3.28 16.225 9.95 10.655 1.205-1.007 1.37-3.034-.437-3.535-1.386-.384-2.684.869-4.091.472-2.653-.747-2.904-4.532-1.185-6.243 2.433-2.423 5.205 1.596 8.303-.103m-47.577 0c.536 2.314 1.446 4.517 2.284 6.737.677 1.796 1.167 5.175 2.643 6.465 1.826 1.595 7.076-1.372 8.403-2.766 5.254-5.516-1.029-14.184-7.856-12.42-1.88.485-3.758 1.083-5.474 1.984m55.577-.115c-8.485 3.038-4.859 17.556 4.21 14.492 8.755-2.96 4.53-17.621-4.21-14.492m-48.816 1.65c4.084-.52 5.876 7.302 1.698 7.411-2.208.058-4.71-7.026-1.698-7.41m50.506 2.055c4.362-.844 4.543 6.204.818 7.167-4.344 1.122-4.469-6.462-.818-7.167M76.905 44.318c2.842.372 7.05 3.96 8.421-.42-4.974-2.368-2.264-7.167-6.334-9.744-1.944-1.232-4.015-.583-5.876.424-1.264.683-3.857 1.601-4.333 3.093-.724 2.27 4.237 10.594 6.177 11.81 1.473.924 3.057-.745 2.81-2.221-.168-.997-.673-1.934-.865-2.942m83.786 9.263c.68-3.506 1.319-7.056 2.16-10.526.374-1.542 1.2-3.527.11-4.956-2.679-3.515-8.724 3.57-10.69 5.415-.834.783-2.44 1.998-2.44 3.274 0 1.81 5.582 1.46 6.94 3.048 1.467 1.717 1.392 3.35 3.92 3.745M75.62 37.488c2.195.169 1.537 3.096-.388 3.146-2.368.06-1.977-3.327.388-3.146m34.547 4.483c-13.675 1.796-26.686 5.469-37.893 13.873-39.43 29.57-39 90.805 1.263 119.475 6.895 4.91 14.964 8.775 23.157 10.937 9.437 2.49 19.372 3.171 29.051 1.936 10.283-1.312 20.817-4.948 29.473-10.687 24.07-15.96 36.481-43.946 32.719-72.558-4.722-35.91-40.605-67.858-77.77-62.976m48.84 1.505l-.842 2.526h-.842c-.227-1.547.195-2.074 1.684-2.526m-87.575 8.842c-3.279-2.007-6.765-3.583-10.105-5.474-1.292-.73-3.041-1.974-4.569-1.17-1.296.685-1.228 2.06-.863 3.276.81 2.7 2.846 10.329 5.22 11.893.768.506 1.555.04 2.066-.596 1.16-1.446 1.13-3.19 2.786-4.39 2.034-1.478 4.16-.988 5.465-3.54m37.893-6.194c6.645-.785 13.686-.07 20.21 1.227 49.55 9.85 71.962 72.213 40.587 111.49-4.774 5.976-10.43 11.42-17.01 15.388-9.1 5.49-18.905 8.91-29.472 10.175-7.081.846-14.509.166-21.472-1.228-48.443-9.69-71.28-68.544-42.647-108.542 4.733-6.612 10.51-12.65 17.384-17.078C86.93 51.1 97.54 47.514 109.325 46.123m63.997 4.932l6.316 5.052c.806-4.887-5.516-13.702-9.68-7.139-1.18 1.858-.76 3.676.295 5.455.344.58 1.78 2.28 1.016 2.98-1.181 1.083-5.038-8.336-6.147-3.76-1.48 6.104 9.917 12.284 11.045 4.989.435-2.818-2.09-5.03-2.845-7.577M62.17 52.318h.421l.421.421v.842c-.947-.2-1.312-.362-.842-1.263m-16 5.675c-9.57 1.979-5.543 16.99 3.79 15.233 10.397-1.957 6.426-17.345-3.79-15.233m138.12.294c-2.511.994-.07 3.16-.86 4.697-.977 1.9-10.037 5.767-6.22 8.424 2.746 1.912 6.467-3.935 9.149-4.13 1.422-.103 2.226 1.675 3.75 1.123 3.198-1.16-3.484-11.04-5.818-10.114M46.195 62.678c3.378-1.312 8.245 4.711 4.14 6.13-3.222 1.115-8.426-4.464-4.14-6.13M36.067 74.526c-2.356.88-7.165 8.44-5.204 10.839 1.31 1.602 5.001 2.155 6.886 2.91 1.412.564 4.264 2.488 5.78 1.835 1.323-.571 1.83-2.895 2.3-4.11 1.164-3.006 2.834-6.815-.929-8.766-1.036-.537-2.25-.395-3.29-.91-1.874-.927-3.204-2.672-5.543-1.798m.42 8.948c-4.176-1.683 2.045-5.877.66-1.33-.139.459-.447.92-.66 1.33m5.473 2.106c-4.713-1.435 2.311-6.4 0 0m157.464 3.15c-2.322.324-10.146 1.59-11.316 3.714-.838 1.521.752 9.301 2.918 9.24 2.679-.077.5-4.442 1.535-5.823 1.985-2.652 6.892-1.283 9.136-3.483 1.755-1.722-.342-3.916-2.273-3.647M39.012 95.444c-2.515.355-11.12.425-12.318 2.894-1.917 3.953 6.838 7.199 9.371 8.586.947.518 2.51 1.711 3.656 1.443 1.99-.466.323-4.664.428-5.946.24-2.93 5.29-7.885-1.137-6.977m-2.105 5.714h-2.526v-.842l2.526.842m165.466 4.39c-2.28.26-9.968-.263-11.318 1.757-.716 1.071.027 3.097 1.276 3.365 2.736.587 9.016-.113 11.68-.975 3.104-1.004 1.07-4.453-1.638-4.146m-164.492 7.434c-2.217 1.254.929 6.3-1.854 6.734-2.904.452-.537-5.391-2.603-6.032-2.66-.826-1.654 4.766-2.423 5.857-1.008 1.429-2.486.073-2.802-1.13-.339-1.29.218-2.898-.566-4.068-.544-.81-1.823-1.136-2.503-.3-1.202 1.48-.768 9.673.964 10.608 1.98 1.07 12.263.345 13.927-1.153 1.544-1.39.61-12.071-2.14-10.516m160.282 7.543v.42c-1.292.539-2.537 1.162-3.789 1.789-9.668 4.839 4.587 8.027 9.2 6.903 1.381-.336 2.075-2.664 1.055-3.699-1.084-1.1-3.75-1.02-5.203-1.203 1.756-1.443 5.189-2.462 6.062-4.67 1.789-4.53-10.885-4.79-13.506-3.497-2.566 1.266.369 3.455 1.971 3.527 1.457.066 2.784.09 4.21.43M32.276 138.209c-3.174-1.606.131-4.912-2.233-6.28-1.714-.99-2.761 1.694-3.012 2.912-.662 3.222 1.747 8.95 5.666 8.269 3.178-.553 3.952-3.387 3.61-6.164-.108-.89-.516-3.252 1.026-3.223.799.015 1.17.882 1.216 1.558.084 1.266-.847 2.426-.622 3.697.43 2.427 2.937 1.766 3.792.065 2.497-4.971-3.624-14.529-8.467-8.788-1.766 2.094-.708 5.445-.976 7.954m165.045 1.263c4.706.775-.88 6.319 1.865 7.262 2.23.767 4.52-8.523 3.58-9.994-.865-1.355-3.607-1.6-5.024-2.043-1.798-.561-5.578-2.35-7.412-1.668-1.746.65-3.873 7.976-3.241 9.644 1.575 4.16 4.118-5.227 5.95-4.39.828.378.185 9.863 3.2 5.335.31-.462.445-1.09.594-1.618.237-.837.372-1.67.488-2.528M63.925 171.964c-2.805 1.105-5.767 6.055-7.661 8.348-.829 1.004-1.676 2.084-.673 3.298 1.912 2.313 3.348-1.376 5.164-.384 1.483.81-1.046 7.467 2.971 6.16 1.258-.408 1.395-2.547 2.156-3.473 2.076-2.523 6.078-2.45 5.458-6.864-.326-2.322-4.629-8.182-7.415-7.085m101.398 1.466c-7.573 2.325-5.554 6.677-2.106 11.514 1.11 1.555 3.113 5.66 5.476 4.862 9.355-3.155 6.417-19.38-3.37-16.376m-100.604 3.902c1.76-.234 3.33 2.906 1.177 3.365s-3.656-3.035-1.177-3.365m99.34 1.296c.926-.484 1.868-1.017 2.948-1.035 6.078-.096 3.798 9.68.217 6.019-.587-.6-1.055-1.353-1.538-2.036-.678-.962-1.206-1.855-1.626-2.948m-95.996 14.736c2.377 1.187 4.577-.092 6.734 1.118 1.574.882 2.726 4.283 4.58 4.126 1.751-.149 1.669-3.156 1.852-4.401.358-2.428 3.396-15.018-3.061-10.883-.754.482-1.44 1.097-2.106 1.691l-3.789 3.416c-1.673 1.456-3.584 2.747-4.21 4.933m82.541-10.188c-3.504 1.108-.9 10.007-.56 12.715.159 1.261.152 3.768 2.172 3.03 1.437-.524 1.766-2.62 3.026-3.511 1.78-1.26 6.13.77 6.816-1.785.331-1.231-1.045-2.435-1.797-3.201-1.775-1.81-6.932-8.11-9.657-7.248m-65.7 18.188c.993.437 2.483 1.27 3.575.69.918-.49 1.176-1.9 1.478-2.795.85-2.525 3.74-7.813 3.026-10.435-1.174-4.315-4.186 1.706-4.631 2.856l-1.51 3.79c-.765 1.927-1.47 3.872-1.938 5.894m-6.736-12.63l-.421 2.946-1.685-.42 2.106-2.527m57.26.223c-9.524 2.186-5.567 17.245 3.368 15.131 9.265-2.192 5.603-17.19-3.368-15.131m-28.63 13.671c-1.564-.303-4.558-.377-5.182-2.166-.826-2.37 3.044-8.762.415-10.274-3.684-2.12-4.46 8.288-4.922 10.335-.23 1.022-.917 2.561-.301 3.552.841 1.355 8.022 2.825 9.315 1.893.926-.668.672-2.357.675-3.34m46.314-10.105l-.421-2.105c1.876-.032 2.278 1.482.42 2.105m-39.998-1.263c0 4.064-.12 8.149.007 12.21.048 1.52.474 3.591 2.5 3.21 2.336-.44.45-4.386 2.59-4.386 1.645 0 2.05 2.535 3.138 3.373 1.076.83 2.722.38 3.975.33-.379-1.656-1.818-3.345-1.73-5.053.13-2.531 2.238-4.454.813-7.14-2.019-3.804-7.835-2.817-11.293-2.544m22.755 1.947c3.832-1.333 5.683 5.887 2.041 7.037-3.466 1.095-5.774-5.74-2.041-7.037m-17.642 1.808c2.358-.158 2.778 2.944.377 3.207-1.92.21-2.27-3.081-.377-3.207z"/><path fill="#8a0405" d="M64.355 151.037c-.94-.117-1.362-.39-1.355-.878.006-.39.968-3.449 2.139-6.798l3.4-10.08c1.99-6.24 2.614-6.6 10.135-5.847 5.535.553 7.996.264 9.358-1.098 1.792-1.791 1.398-3.23-2.488-9.085-4.193-6.318-5.367-9.112-5.649-13.439-.163-2.51-.016-3.851.665-6.09 3.095-10.16 10.871-13.663 28.714-12.933l7.015.287-.237 1.318c-.131.725-1.622 5.46-3.314 10.521-3.95 11.82-3.587 11.416-10.13 11.258-5.428-.131-7.265.275-8.532 1.885-1.405 1.786-1.117 4.043 1.092 8.554 4.154 8.486 4.933 12.113 3.776 17.576-1.483 7.004-5.815 11.12-14.182 13.477-3.921 1.104-16.013 1.917-20.407 1.372zm55.408-.548c-6.508-.667-11.792-4.172-14.462-9.594-1.153-2.34-1.384-3.32-1.507-6.396-.172-4.319.609-7.559 3.734-15.5 1.137-2.89 3.034-8.276 4.215-11.97 4.472-13.978 8.265-18.62 17.186-21.027 2.168-.585 4.546-.744 11.55-.774l8.82-.036-.144 1.05c-.2 1.465-5.809 18.675-6.56 20.128-.339.654-.921 1.307-1.295 1.45s-3.925.262-7.89.264-7.94.204-8.83.451-2.467 1.231-3.503 2.186c-2.566 2.365-3.985 5.292-4.22 8.7-.164 2.36-.056 2.924.796 4.161 2.238 3.25 4.405 3.937 11.276 3.577 7.605-.398 7.32-1.42 3.108 11.166-1.971 5.888-3.928 11.057-4.349 11.487-.94.96-3.248 1.157-7.925.677zm30.375.848c-2.079-.18-6.922-.348-10.763-.372-8.722-.056-8.582.045-6.664-4.776 2.164-5.438 14.974-44.024 16.608-50.026 1.75-6.432 2.829-9.072 4.247-10.405.89-.836 1.453-.978 3.696-.93 1.455.03 2.924.22 3.264.42.52.305-.016 2.33-3.313 12.543l-8.816 28.496c-.221.742.104.762 7.533.47 7.506-.294 12.576-.074 13.655.593.388.24-.371 2.93-2.986 10.58-1.928 5.644-3.743 10.702-4.032 11.241-1.074 2.002-5.474 2.768-12.429 2.166z"/></svg>