<svg xmlns="http://www.w3.org/2000/svg" viewBox="0 0 612 792"><path d="M583.916 293.47c1.193 2.984 3.845 6.357 3.315 9.082l-27.578 112.746-31.555 127.407c-.796 3.244-1.856 6.487-3.182 11.158-27.843-21.537-55.951-38.793-93.074-24.781-37.389 14.142-45.211 45.021-49.719 79.273H232.301l-6.497-30.23c-6.231-27.376-29.434-47.875-57.674-52.935-26.384-4.8-47.465 5.579-67.353 20.37l-11.667 8.952-20.418-81.348L27.06 305.147c-.796-3.503-2.121-8.044 3.58-9.601 1.326.13 2.652.259 3.978.259h538.824c3.58-.259 7.027-1.687 10.474-2.335zM378.542 530.25l-1.193-3.763c-3.315-1.038-6.762-2.725-10.209-2.984-26.252-1.557-52.636-3.633-78.888-3.763-14.982 0-29.964 3.114-44.814 5.579-2.784.389-5.038 3.892-7.425 6.098 2.917 1.168 5.834 3.373 8.883 3.373H365.15c4.508 0 8.883-2.984 13.391-4.541zM258.42 579.033c20.02 10.509 85.119 8.563 97.317-2.465-20.02-12.326-83.793-11.028-97.317 2.465zM30.905 291.654c-7.955-5.319-5.171-14.142-3.049-19.202 1.989-4.671 10.872-9.86 16.175-9.341 14.054 1.168 18.827-7.136 23.865-16.737 3.447-6.487 7.955-12.585 10.474-19.332 3.978-11.158 12.463-12.585 22.805-13.623 6.364-.519 14.717-2.206 18.164-6.357 9.016-10.898 20.816-11.807 33.279-12.715 4.64-.259 9.281 0 14.584 0 8.485-30.619 34.339-41.777 61.122-51.767 1.591-.519 4.11-.389 5.436.519 6.099 4.152 12.065 8.693 16.44 11.936 4.508-1.427 7.822-3.244 11.137-3.373l54.625-.13c19.225 0 29.832 7.266 37.124 25.04.53 1.427 1.326 2.854 1.989 4.411 7.69 16.218 10.739 18.294 28.373 15.18 30.362-5.449 57.277 3.114 82.468 18.553 6.629 4.022 13.258 8.563 18.429 14.142 11.535 12.585 26.915 14.92 42.56 15.958 10.474.649 19.357 2.465 27.18 10.509 3.712 3.892 10.474 5.968 16.175 7.136 16.573 3.244 22.937 14.531 13.789 25.689l-13.921-.259h-337.03c-63.243 0-126.618-.13-189.861.13-4.11 0-8.22 2.335-12.33 3.633zm116.144-49.302c-.663.778-1.458 1.427-2.121 2.206-5.436-3.892-10.872-7.655-16.175-11.807-7.16-5.709-30.494-7.785-35.268-1.427-6.762 8.822-11.535 19.072-18.164 30.489 6.364.389 10.209.778 13.921.778h377.734c9.679 0 18.562-2.076 27.445-8.174l-29.566-19.332c-9.546 4.022-6.894 18.164-20.153 19.332l9.148-33.733c-7.822-2.595-16.175-3.892-22.539-7.914-9.679-5.968-14.452-1.038-19.623 5.449l-13.524 16.477c-.663-.519-1.458-.908-2.121-1.427l4.64-12.455c1.458-4.152 2.652-8.433 4.243-13.753-7.425-.649-13.524-.778-19.623-1.946-19.755-3.633-22.407-2.335-32.351 13.882-3.447 5.709-5.436 13.104-14.584 14.272-14.054 1.816-27.975 4.541-41.897 7.006-10.474 1.816-13.258-.649-12.596-12.196 6.364-.908 12.861-1.687 19.225-2.854 17.634-2.984 37.389-1.557 44.018-24.651 2.387-8.433-4.508-31.138-13.524-33.084-13.789-2.984-27.843-5.709-41.897-5.968-13.789-.259-25.854 4.671-30.097 20.11-1.724 6.228-5.171 11.936-7.822 17.775-1.458-.259-2.917-.389-4.375-.649 0-6.487.53-13.104-.265-19.461-.53-4.152-1.856-9.341-4.773-11.807-10.474-8.952-22.142-7.266-34.339-2.854-11.27 4.152-13.656 11.807-12.33 22.186.398 3.503.265 7.136.133 10.639-.265 6.357 3.182 8.822 9.281 8.304 3.58-.389 7.16-1.427 10.739-1.687 7.027-.519 13.789.13 17.369 8.952l-49.587 11.417V197.72l-55.288 16.607 16.706 28.024zm375.082 353.937c.265 37.496-28.506 62.795-64.038 62.925-34.605.13-62.978-27.635-63.11-62.536-.133-35.809 27.975-63.703 64.304-63.314 33.809.389 63.243 24.392 62.845 62.925zm-62.713-30.1c-18.562.13-31.555 12.066-31.953 29.97-.398 15.699 12.596 30.23 31.555 30.489 14.982.259 29.566-11.028 30.892-30.23 1.061-16.218-13.789-30.23-30.494-30.23zm-241.569 29.97c1.856 37.885-29.832 63.185-63.773 62.925-35.4-.259-63.11-27.246-63.243-63.185-.133-34.771 28.373-62.536 62.978-62.536 34.074 0 65.762 25.04 64.038 62.795zm-64.436 30.36c18.032.13 32.616-12.974 32.616-29.192 0-17.645-13.789-31.138-31.82-31.138-17.236 0-29.566 12.196-29.832 29.322-.265 18.423 11.535 30.879 29.036 31.008z"/><path fill="#8b8b8b" d="M30.905 291.654c4.11-1.297 8.22-3.633 12.33-3.633l189.861-.13h337.03c4.64 0 9.281.13 13.921.259v5.319c-3.447.778-7.027 2.076-10.474 2.076H34.75c-1.326 0-2.652-.13-3.978-.259 0-1.168.133-2.335.133-3.633z"/><path d="M5.051 526.877l68.281 4.411c1.856.13 4.375 2.595 5.038 4.541 2.387 5.838 3.58 12.196 6.099 18.034 4.906 11.547.133 21.926-3.712 32.176-.796 1.946-6.629 3.503-9.679 2.984-20.153-3.503-40.041-7.395-60.061-11.547-2.254-.519-5.701-3.763-5.701-5.838-.53-14.401-.265-28.933-.265-44.761zm602.597.389l-.265 44.502c-.133 2.076-4.243 5.319-7.027 5.968-21.479 4.8-42.957 8.952-65.232 13.493-6.497-13.882-12.728-28.024-3.315-43.464 1.193-1.816 1.989-4.152 2.254-6.228 1.193-8.952 6.629-10.379 15.115-10.509 16.043-.259 31.953-2.335 47.996-3.633 3.049-.389 6.364-.13 10.474-.13z"/><path fill="#8b8b8b" d="M378.542 530.25c-4.508 1.557-8.883 4.541-13.391 4.541H244.897c-2.917 0-5.834-2.206-8.883-3.373 2.519-2.076 4.64-5.579 7.425-6.098 14.849-2.335 29.832-5.579 44.814-5.579 26.252.13 52.636 2.206 78.888 3.763 3.447.259 6.762 1.946 10.209 2.984.398 1.168.796 2.465 1.193 3.763zM258.42 579.033c13.524-13.493 77.297-14.791 97.317-2.465-12.198 11.158-77.297 12.974-97.317 2.465z"/><path fill="#696969" d="M147.049 242.352l-16.573-27.765 55.288-16.607v26.727l49.587-11.417c-3.58-8.822-10.342-9.471-17.369-8.952-3.58.259-7.16 1.297-10.739 1.687-6.099.519-9.546-1.816-9.281-8.304.133-3.503.398-7.136-.133-10.639-1.193-10.379 1.193-18.034 12.33-22.186 12.198-4.541 23.998-6.228 34.339 2.854 2.917 2.465 4.243 7.655 4.773 11.807.796 6.357.265 12.974.265 19.461 1.458.259 2.917.389 4.375.649 2.652-5.968 6.099-11.677 7.822-17.775 4.243-15.439 16.308-20.37 30.097-20.11 14.054.259 28.108 2.984 41.897 5.968 9.016 1.946 15.91 24.651 13.524 33.084-6.497 23.094-26.384 21.667-44.018 24.651l-19.225 2.854c-.663 11.547 2.121 14.012 12.596 12.196 13.921-2.465 27.843-5.319 41.897-7.006 9.148-1.168 11.137-8.563 14.584-14.272 9.944-16.348 12.463-17.515 32.351-13.882 5.966 1.038 12.198 1.168 19.623 1.946-1.591 5.319-2.784 9.601-4.243 13.753s-3.049 8.304-4.64 12.455c.663.519 1.458.908 2.121 1.427l13.524-16.477c5.171-6.357 9.944-11.417 19.623-5.449 6.497 4.022 14.717 5.319 22.539 7.914l-9.148 33.733c13.391-1.168 10.607-15.439 20.153-19.332l29.566 19.332c-9.016 6.228-17.766 8.174-27.445 8.174H89.375c-3.845 0-7.69-.389-13.921-.778 6.629-11.417 11.402-21.667 18.164-30.489 4.906-6.357 28.108-4.281 35.268 1.427 5.171 4.152 10.739 7.914 16.175 11.807.53-.908 1.326-1.687 1.989-2.465z"/><path fill="#8b8b8b" d="M459.419 566.189c16.706 0 31.555 14.012 30.494 30.23-1.193 19.202-15.778 30.36-30.892 30.23-18.96-.259-31.953-14.791-31.555-30.489.398-17.904 13.391-29.97 31.953-29.97zm0 15.569c-9.414 0-14.717 5.19-14.849 14.272-.133 8.433 6.099 14.661 14.584 14.791 9.016.13 15.38-6.228 15.247-15.18-.265-9.471-5.038-13.882-14.982-13.882zm-306.005 44.761c-17.501-.13-29.169-12.585-29.036-30.879.133-17.256 12.463-29.322 29.832-29.322 18.032 0 31.82 13.493 31.82 31.138 0 16.088-14.584 29.062-32.616 29.062zm.928-15.699c8.618-.13 15.512-6.357 15.645-14.272.265-8.304-7.027-14.92-16.043-14.92-8.618.13-15.512 6.357-15.645 14.272-.133 8.304 7.027 15.05 16.043 14.92z"/><path d="M459.419 581.758c9.944 0 14.717 4.541 14.982 14.012.133 8.952-6.099 15.31-15.247 15.18-8.485-.13-14.717-6.357-14.584-14.791.133-9.212 5.436-14.401 14.849-14.401zM154.341 610.82c-9.016.13-16.175-6.617-16.043-14.92.265-7.914 7.027-14.142 15.645-14.272 9.016-.13 16.175 6.617 16.043 14.92-.133 8.044-7.027 14.272-15.645 14.272z"/></svg>