<svg xmlns="http://www.w3.org/2000/svg" viewBox="0 0 612 792"><path d="M168.304 447.441h-22.212V417.78c7.121 0 14.582.547 21.703-.273 3.391-.41 8.478-3.007 8.986-5.194l29.333-118.371c.17-.82 0-1.64 0-3.144l-13.564-.82v-28.021c.509-.273 1.017-.82 1.526-.82 20.347-1.093 20.347-1.093 24.585-17.769 2.543-9.568 5.256-19.136 7.121-28.841 1.017-4.921 3.73-6.151 9.325-6.014l53.749.137v-51.804h36.285v51.804l53.579-.137c6.104-.137 8.817 1.23 10.004 6.424 3.222 15.172 7.46 30.344 11.36 46.063h22.042v28.704l-14.582 1.23 11.53 47.43 17.803 72.034c1.356 5.604 4.239 7.928 11.36 7.518 6.613-.41 13.395-.137 20.516-.137v29.114h-22.72l70.535 284.308h49.171v29.251H48.26V731.75H97.6l70.704-284.308zm101.054 213.231l-105.124-46.2-25.772 103.882 130.896-57.682zm76.13 0l130.896 57.408-25.772-103.609-105.124 46.2zm76.469-161.017l-12.886-51.941H325.99v78.732l95.968-26.791zm-229.238-.137l95.798 25.697v-77.638h-83.082l-12.717 51.941zm133.1 136.413l98.172-43.193-98.172-26.244v69.437zm-36.963-67.933l-94.272 26.381 94.272 41.416v-67.797zm-.17 117.687l-103.089 45.38h103.089v-45.38zm140.73 45.38l-103.089-45.243v45.243h103.089zm-140.9-440.678H253.76c-3.052 0-5.934.137-9.156.273l-3.9 13.942c-4.578 18.589-4.578 18.589 16.108 28.021l31.537 14.489.17-56.725zm37.811.273v56.452l48.323-22.417c1.696-.82 3.052-3.554 2.713-5.194-2.035-9.568-4.748-19.136-7.121-28.841h-43.915zM175.595 568.409l74.434-20.776c-.17-.683-.339-1.23-.339-1.914l-63.922-17.223-10.173 39.913zm191.257-22.143l71.552 19.273-9.156-36.632-62.396 17.359zM217.984 397.14l52.562-24.33-41.71-19.136-10.851 43.466zm178.71-.137l-10.851-43.33-41.541 19.136 52.392 24.194zM257.321 238.447l-5.426 22.007h36.285v-22.007h-30.859zm68.67 21.596h36.624l-5.595-21.596H325.99v21.596zm37.811 157.463c.17-.41.509-.957.678-1.367l-38.319-17.633v18.999h37.641zm-75.113-19.136l-41.032 18.999h41.032v-18.999zm54.766-263.395c21.194-23.373 51.375-32.531 79.182-24.33 24.585 7.244 42.389 34.035 36.285 54.538-3.9 12.849-25.264 18.316-40.354 9.705-5.934-3.28-10.512-8.201-15.26-12.849-5.087-5.057-9.325-10.662-14.412-15.719-10.512-10.252-23.568-15.036-40.184-11.618-1.696.273-3.222.137-5.256.273zm-69.009 2.597c-21.703-13.259-40.354-6.561-58.666 4.374-6.443 3.827-13.056 8.611-20.516 10.252-8.139 1.914-18.142 2.46-26.111.41-14.412-3.827-18.481-11.618-13.734-23.373 7.46-18.589 22.551-31.848 46.967-35.675 23.229-3.554 42.558 3.417 56.631 18.726 6.443 7.108 11.53 15.172 17.125 22.827-.509.82-1.187 1.64-1.696 2.46zm49.34-46.473c-5.934-12.028-7.121-24.33-.848-35.402 6.782-12.165 15.429-24.194 26.111-34.308 5.765-5.467 17.125-9.295 26.45-9.978 23.907-1.777 44.084 6.424 59.344 21.323 10.173 9.978 7.8 17.359-5.934 23.92-9.665 4.647-19.838 4.647-30.35 2.324-7.46-1.64-14.751-3.964-22.042-5.741-16.108-3.554-26.62-.82-35.606 10.662-6.443 8.475-11.191 17.769-17.125 27.201z"/></svg>