<?xml version="1.0" encoding="utf-8"?>
<!-- Generator: Adobe Illustrator 21.0.0, SVG Export Plug-In . SVG Version: 6.00 Build 0)  -->
<svg version="1.1" id="Layer_1" xmlns="http://www.w3.org/2000/svg" xmlns:xlink="http://www.w3.org/1999/xlink" x="0px" y="0px"
	 viewBox="0 0 144 144" style="enable-background:new 0 0 144 144;" xml:space="preserve">
<style type="text/css">
	.st0{fill:#F5EB15;}
	.st1{fill:#19AA4B;}
</style>
<g>
	<circle class="st0" cx="72" cy="72" r="66.5"/>
	<g>
		<path class="st1" d="M71.8,3.2c19.5,0,35.9,6.6,49.3,19.9c13.4,13.2,20.1,29.6,20.1,49.1c0,19.3-6.7,35.6-20.2,48.8
			c-13.4,13.2-29.9,19.9-49.2,19.9c-19.3,0-35.6-6.6-49-19.9C9.5,107.6,2.8,91.4,2.8,72.1c0-19.4,6.7-35.8,20-49
			C36,9.8,52.4,3.2,71.8,3.2z M71.9,6.1c-18.5,0-34.1,6.3-46.8,18.9c-12.7,12.6-19,28.2-19,46.7s6.3,34.1,19,46.8
			c12.7,12.7,28.3,19,46.8,19c18.5,0,34-6.4,46.7-19.1c12.7-12.7,19-28.3,19-46.8c0-18.5-6.3-34.1-19-46.7
			C106,12.4,90.4,6.1,71.9,6.1z M22.6,98.5c-0.4-2.8-1.1-4.2-2.2-4.2c-0.2,0-0.3,0-0.5,0.1c-0.3,0.2-0.5,0.4-0.6,0.7v1.5l0.1,0.9v1
			c0.1,0.2,0.1,0.5,0.1,0.7c0,1-0.5,1.7-1.4,2.1c-0.5,0.2-0.9,0.3-1.3,0.3c-1.2,0-2.2-0.9-2.9-2.6c-0.3-0.5-0.6-1.5-0.8-3.1l1.4-0.5
			c0,2.6,0.5,4.2,1.5,4.7c0.2,0.2,0.5,0.3,0.8,0.3c0.6,0,1-0.3,1.2-0.8c0.1-0.2,0.1-0.8,0.1-1.7l-0.1-0.9V96c0-1.4,0.5-2.3,1.4-2.7
			c0.3-0.2,0.7-0.3,1-0.3c0.4,0,0.8,0.1,1.1,0.3c1.3,0.7,2.1,2.3,2.4,4.7L22.6,98.5z M24.7,99.1l3.6,5.3l-0.8,0.7l-2.7-4.1l-2.5,1.6
			l2.5,3.5l-0.9,0.6l-2.4-3.5l-2.7,1.8l2.9,4.3l-0.8,0.7l-3.9-5.6L24.7,99.1z M71.6,22.2c14.2,0,26,4.8,35.7,14.4
			c9.6,9.6,14.4,21.4,14.4,35.5c0,14-4.8,25.8-14.5,35.4s-21.5,14.4-35.6,14.4c-13.9,0-25.7-4.8-35.3-14.4
			c-9.6-9.6-14.4-21.4-14.4-35.3c0-14,4.8-25.9,14.4-35.5C45.8,27,57.6,22.2,71.6,22.2z M28.7,105.3l1.8,1.9c1,1.4,1.5,2.3,1.5,2.9
			c0,1.2-0.7,1.9-2.1,2.2c-0.2,0.1-0.3,0.1-0.5,0.1c-0.5,0-1-0.1-1.5-0.3l-0.8,5.3l-1.3-1.3l0.8-4.9l-0.8-0.8l-2.9,2.8l-1-1.2
			L28.7,105.3z M26.9,27.7l-2.3,2.2l-0.7-0.7l5.6-5.3l0.6,0.8l-2.3,2.1l5.4,5.9l-0.8,0.8L26.9,27.7z M71.6,24.6
			c-13.3,0-24.5,4.6-33.6,13.8S24.4,58.8,24.4,72.1c0,13.2,4.6,24.4,13.7,33.6c9.1,9.1,20.3,13.7,33.5,13.7
			c13.3,0,24.6-4.6,33.8-13.7c9.2-9.1,13.8-20.3,13.8-33.6c0-13.4-4.6-24.6-13.7-33.8C96.3,29.2,85,24.6,71.6,24.6z M27,108.7
			l1.9,2.2h0.3c0.9,0,1.4-0.5,1.4-1.6l-1.8-2.2L27,108.7z M33.4,110.3l1.1,1l-2.7,7.6l7.3-3.7l0.9,0.8l-9,4.7l-1.1-0.9L33.4,110.3z
			 M31.4,22.4l1-0.8l2.1,3.2l3.6-2.5L36,19.3l1-0.8l5.1,7.4L41,26.5L38.7,23l-3.6,2.5l2.5,3.5l-1.1,0.8L31.4,22.4z M40.2,116
			l5.5,3.2l-0.6,0.9l-4.2-2.5l-1.5,2.4l3.6,2.2l-0.6,0.8l-3.5-2l-1.7,2.8l4.4,2.6l-0.5,0.9l-5.8-3.4L40.2,116z M69.9,37.2v19.7h-9.4
			v-5.8c-6.6,2.4-10,6.9-10.4,13.4h20v42.2c-19-2.5-30.1-11.9-33.3-28h13c0.6,6.6,4.2,10.4,10.6,11.5V74.2H36.8
			C37.3,51.1,48.4,38.7,69.9,37.2z M40.2,16.7l4.6-2.2l0.3,0.8l-3.3,1.7l1.3,2.5l2.9-1.4l0.3,0.8l-2.8,1.5l1.4,2.9l3.7-1.9l0.4,0.8
			l-4.8,2.4L40.2,16.7z M51.8,123.3c-0.9-0.8-1.7-1.4-2.5-1.7c-0.5-0.2-0.9-0.3-1.3-0.3c-0.5,0-0.8,0.3-1,0.8
			c-0.1,0.2-0.1,0.3-0.1,0.5c0,0.1,0,0.2,0.1,0.3c0.3,0.6,0.6,1,1,1.3l0.8,0.5l0.7,0.7c0.8,0.8,1.2,1.6,1.2,2.3
			c0,0.2-0.1,0.5-0.2,0.8c-0.3,0.8-0.9,1.3-1.7,1.5c-0.3,0.1-0.6,0.1-0.8,0.1c-1.4,0-3-0.7-4.8-2.1l0.6-1.3c1.5,1.5,2.8,2.3,3.8,2.3
			c0.2,0,0.3,0,0.5-0.1c0.5-0.1,0.8-0.3,1-0.8c0.1-0.2,0.1-0.3,0.1-0.5c0-0.2,0-0.3-0.1-0.4c-0.2-0.2-0.6-0.7-1.2-1.4l-0.7-0.7
			c-0.8-0.6-1.3-1.2-1.4-1.8c-0.2-0.2-0.3-0.5-0.3-0.7c0-0.3,0.1-0.6,0.3-0.8c0.2-0.7,0.7-1.2,1.5-1.5c0.2-0.1,0.4-0.1,0.7-0.1
			c1,0,2.5,0.6,4.3,1.9L51.8,123.3z M53.1,19.1c0.8,0.1,1.5,0.2,2.1,0.2h0.6c0.8-0.5,1.3-1,1.3-1.6v-0.3c-0.3-0.5-0.9-1-1.9-1.4
			l-0.8-0.1c-1.6-0.3-2.5-1-2.6-2c-0.1-0.2-0.1-0.4-0.1-0.6c0-0.5,0.1-0.9,0.4-1.3c0.5-1,1.8-1.4,3.7-1.4l0.3,1.3
			c-0.5-0.1-0.9-0.1-1.3-0.1c-0.3,0-0.6,0-0.8,0.1c-0.8,0.1-1.3,0.5-1.3,1c0,0.2,0,0.3,0.1,0.5c0.1,0.6,0.7,1,1.9,1.1l0.7,0.3
			c0.7,0.2,1.3,0.4,2,0.7c0.3,0.3,0.6,0.7,0.8,1.4c0.1,0.2,0.1,0.4,0.1,0.6c0,0.5-0.2,1-0.5,1.4c-0.6,1-2.1,1.5-4.4,1.5L53.1,19.1z
			 M64.2,18.6c-0.3,0.1-0.7,0.1-0.9,0.1c-2.3,0-3.5-1.4-3.7-4.2c-0.1-0.5-0.2-1-0.2-1.4c0-2.2,1.2-3.5,3.7-3.8
			c0.3-0.1,0.5-0.1,0.8-0.1c2.2,0,3.5,1.4,3.9,4.3c0.1,0.4,0.1,0.8,0.1,1.1c0,1-0.3,1.8-0.8,2.4C66.4,17.9,65.4,18.4,64.2,18.6z
			 M63.5,125.5l-3.6-0.2l0.1-1l8.7,0.5l-0.2,1l-3.6-0.3l-0.6,8.4l-1.4-0.1L63.5,125.5z M64.1,17.7c1.6-0.3,2.4-1.6,2.4-3.7v-0.4
			c-0.3-1.2-0.7-2.1-1.1-2.6c-0.6-0.5-1.2-0.8-1.9-0.8h-0.3c-1.6,0.2-2.5,1.4-2.5,3.6v0.4c0.4,2.4,1.3,3.6,2.8,3.6
			C63.7,17.8,63.9,17.7,64.1,17.7z M69.3,124.6h1.5v4.1h3.9v-4.1h1.4v9.4h-1.4v-4.3h-3.9v4.3h-1.5V124.6z M71.9,9l-0.4,5.7v0.4
			c0,1.5,0.7,2.3,2,2.3h0.4c1,0,1.5-0.8,1.6-2.4l0.4-5.8L77,9.4l-0.3,5.6c0,0.4-0.1,1-0.4,1.9c-0.3,1-1.3,1.5-2.8,1.5h-0.3
			c-1.1-0.1-1.9-0.4-2.3-1.1c-0.5-0.5-0.7-1.2-0.7-2.4v-0.4l0.3-5.6L71.9,9z M73.6,106.8V37.3c21.2,1.4,32.2,13.4,33,35.8H96l7,13.8
			c-1.6,4.6-4.3,8-8.2,10.4L84.3,74.7v29.6C81.1,105.8,77.5,106.6,73.6,106.8z M77.4,124.1l6.3-0.8l0.2,1L79,125l0.4,2.8l4.2-0.7
			l0.2,1.1l-4.2,0.6l0.6,3.3l5.3-0.8l0.1,1.1l-6.6,1L77.4,124.1z M82.6,11.2l-3.1-0.7l0.3-1l7.5,1.8l-0.3,0.9l-3.1-0.7l-1.8,7.8
			L80.8,19L82.6,11.2z M84.7,50.3v14.2h11.1C94.9,57,91.2,52.2,84.7,50.3z M89.6,12l1.1,0.4L89.3,16l4.1,1.5l1.3-3.6l1.3,0.5
			l-3.2,8.4l-1.2-0.5l1.6-3.9l-4.1-1.5l-1.5,3.9l-1.2-0.4L89.6,12z M97.7,118.8c-1.1,0.1-2,0.3-2.8,0.7c-0.8,0.5-1.3,1-1.3,1.5
			c0,0.6,0.3,1,0.9,1.3c0.6,0,1.1,0,1.4-0.1l1-0.2l0.8-0.1h0.4c1.1,0,2,0.4,2.5,1.2c0.1,0.4,0.2,0.8,0.2,1.3c0,0.4-0.1,0.8-0.2,1.1
			c-0.7,1.4-2.5,2.4-5.3,2.9l-0.6-1.2c1.4-0.1,2.6-0.3,3.4-0.7c0.9-0.4,1.3-1,1.3-1.9c0-0.6-0.3-1-0.8-1.3h-1.8l-0.9,0.3
			c-0.4,0.1-0.7,0.1-1,0.1c-0.6,0-1-0.1-1.3-0.3c-0.5-0.1-0.9-0.4-1.2-1.1c-0.2-0.4-0.3-0.8-0.3-1.2c0-0.3,0.1-0.6,0.2-0.8
			c0.4-0.7,1-1.3,2-1.7c0.6-0.4,1.4-0.7,2.6-0.9L97.7,118.8z M99.3,16.2l4.4,2.5l-0.6,0.8l-3.1-1.8l-1.4,2.5l2.7,1.5l-0.5,0.8
			l-2.6-1.5l-1.7,2.8l3.5,2l-0.4,0.8l-4.6-2.6L99.3,16.2z M99.2,117.7c0.1-2.5,1.3-3.7,3.7-3.7c0.3,0,0.7,0,1.1,0.1
			c1,0.5,2,1.2,3,2.3c0.8,1.2,1.3,2.2,1.3,3.1v0.3c-0.3,2.5-1.6,3.7-3.8,3.7c-0.3,0-0.6-0.1-0.9-0.2c-2.9-0.6-4.3-2.4-4.3-5.5V117.7
			z M104,122.2c0.2,0.1,0.5,0.2,0.7,0.2c0.5,0,0.9-0.2,1.3-0.5c0.7-0.5,1-1.1,1-2c-0.3-2-1.5-3.5-3.5-4.4c-0.3-0.1-0.6-0.2-0.8-0.2
			c-0.5,0-0.9,0.1-1.3,0.4c-0.6,0.4-0.9,0.9-0.9,1.5c0,0.1,0,0.3,0.1,0.4C100.5,120,101.7,121.6,104,122.2z M106.1,20.4l2.1,1.5
			c0.6,0.6,1,1.2,1.2,1.8c0.1,0.3,0.1,0.5,0.1,0.8c0,1.1-0.6,1.7-1.9,1.8c-0.2,0.1-0.5,0.1-0.8,0.1c-0.3,0-0.6,0-0.8-0.1l-0.2,5.2
			l-1.3-1l0.3-4.6l-0.8-0.7l-2.5,3.1l-1-0.8L106.1,20.4z M104.9,24.7c0.5,0.5,1,0.7,1.6,0.7c0.5,0,1-0.2,1.4-0.7
			c0.2-0.3,0.3-0.6,0.3-0.8c0-0.5-0.3-1-1-1.5l-0.7-0.5l-2,2.5L104.9,24.7z M106,110.9l3.7,4.3c0.6,0.8,1.1,1.2,1.7,1.3
			c0.2,0.1,0.3,0.1,0.5,0.1c1.2,0,1.9-0.6,1.9-1.7v-0.4c0-0.6-0.3-1.3-0.9-2l-3.8-4.3l0.9-0.8l3.7,4.1c0.7,0.7,1.1,1.5,1.3,2.2
			c0.1,0.3,0.1,0.5,0.1,0.8c0,0.9-0.4,1.7-1.2,2.5c-0.8,0.6-1.5,0.9-2.2,0.9c-0.1,0-0.3,0-0.4-0.1c-0.8-0.1-1.6-0.6-2.5-1.6
			l-3.7-4.2L106,110.9z M113.2,26.2l0.8,0.8l-1.9,8.2l5-4.8l0.8,0.8l-6.5,6.2l-0.9-0.9l2-8.1l-5,4.9l-0.8-0.8L113.2,26.2z
			 M113.4,105.1l-2.3,2.8l-0.8-0.8l5.5-6.7l0.8,0.8l-2.2,2.7l6.5,5.3l-0.9,1.1L113.4,105.1z M115.8,99.7l1-1.1l3.3,2.3l2.3-3.2
			l-3.4-2.4l0.8-1.2l7.6,5.4l-0.8,1.1l-3.3-2.4l-2.4,3.2l3.5,2.5l-0.8,1.2L115.8,99.7z"/>
	</g>
</g>
</svg>
