<svg xmlns="http://www.w3.org/2000/svg" viewBox="0 0 612 612" xmlns:v="https://vecta.io/nano"><path fill="#0" d="M274.4 594.4c-5.3-1.5-10.6-3.4-16-4.5C139.7 566 63.2 495.6 28.2 380.1c-4.3-14.1-5.4-29.2-8.2-43.8-.3-1.4-1.6-2.6-2.4-3.8v-53.9c1.6-6.7 3.4-13.4 4.6-20.3 14.4-82 56.4-146.3 125.2-192.9 31-21 65.2-34.8 102-42.1 10.9-2.1 21.9-3.4 32.9-5l12.6-1.6h25.7l18.5 3.5L391.2 31l-.4.4.3-.3 6.5 2c-.3.3-.8.5-1 .8s-.2 1-.1 1l12 6.1 50.1 26.1c1.7.9 2.2 4.1 3.3 6.2-2.3-1-4.7-1.8-6.8-3.1C371.9 19.4 285 13.8 195.5 51 82.7 97.9 17.6 219.3 30 330.1c6.5 58.3 25.5 112 65.2 155.6C173.2 571.5 269 603 382.4 572c85.9-23.5 145.3-78.1 180.6-159.3 17.9-41 24.6-83.8 20.6-128.6-3.5-39.2-14.4-76-32.3-110.7-7.4-14.3-16.8-27.5-25.2-41.2.5-.4 1-.7 1.5-1 2.5 2.1 5.5 3.8 7.4 6.4 14.5 19 26.5 39.8 35 61.9 7.9 20.5 13.3 42.2 17.6 63.8C613.1 393 536.2 526 411.9 574.1c-22.4 8.7-45.4 14.5-69.2 17.7-2.3.3-4.4 1.7-6.7 2.5l-61.6.1z"/><path fill="#f5ee0b" d="M294.9 16.6l-12.6 1.6-2.8-1.6h15.4zM462 73.3c-1.1-2.1-1.6-5.3-3.3-6.2L408.6 41l-12-6.1c-.1-.1-.1-.8.1-1 .2-.3.6-.5 1-.8 39.2 12.5 73.3 33.7 103.5 61.4 1 .9 1.5 2.5 2.2 3.8-3.3-2-6.4-4.2-9.8-5.8-3.6-1.7-7.5-2.8-11.3-4.2l.3.3c-2.3-9.5-10.2-15.5-20.8-15.6l.2.3z"/><path fill="#0" d="M482.1 88.4c3.8 1.4 7.7 2.5 11.3 4.2 3.4 1.6 6.6 3.8 9.8 5.8.7 1.2 1.5 2.4 2.2 3.6l4.8 4.1 5.5 7.9 11.7 17.2c-.5.3-1 .7-1.5 1l-43.8-43.8z"/><path fill="#f5ee0b" d="M510.3 106.1l-4.8-4.1 4.8 4.1zM391.1 31l-.3.3.4-.4zm91 57.4l43.9 43.8c8.5 13.7 17.9 26.9 25.2 41.2 17.9 34.7 28.8 71.5 32.3 110.7 4 44.9-2.7 87.6-20.6 128.6-35.3 81.1-94.7 135.8-180.6 159.3-113.4 31-209.2-.5-287.2-86.3C55.6 442 36.6 388.4 30 330.1 17.6 219.3 82.7 97.9 195.5 51 285 13.8 371.9 19.4 455.2 70.2c2.1 1.3 4.5 2.1 6.8 3.1l-.3-.2 20.8 15.6c-.1 0-.4-.3-.4-.3zm84.3 138.4l-1.5-4.5c-.9-1.9-2.1-3.7-2.8-5.7C513.4 77.1 361 .9 218.8 49.6 88 94.4 9.1 234.6 44.5 372.8c33.7 131.6 161.2 218.1 294.2 201.4C403.9 566 459 538 504.3 490.3c18.1-19 31.7-41 45.1-63.3.5-1.1 1.1-2.1 1.6-3.2 1.1-3.2 2.1-6.4 3.4-9.6 18.9-44.8 27.2-91.2 20.7-139.7-2.1-16-5.7-31.8-8.7-47.7z"/><path d="M482.4 88.7l-20.8-15.6c10.6.1 18.6 6.1 20.8 15.6zm67 338.3c-13.3 22.3-27 44.3-45.1 63.3C459 538 403.9 566 338.7 574.2c-133 16.7-260.4-69.9-294.2-201.4C9.1 234.6 88 94.4 218.8 49.6 361 .9 513.4 77.1 562.1 216.7c.7 2 1.9 3.8 2.8 5.7l1.5 4.5c3 15.9 6.6 31.7 8.7 47.6 6.5 48.5-1.9 94.9-20.7 139.7-1.3 3.1-2.3 6.4-3.4 9.6-.5 1-1.1 2.1-1.6 3.2zm-83.7-234.3c-13.2-19.5-29.2-36.1-49.6-48.3-1.6-1.4-2.9-3-4.7-4.1-47.5-29.4-98.6-38.8-153-25.3-23 5.7-45.4 13.9-64.1 29.5-1.9.9-3.9 1.7-5.6 2.9-67.3 49.5-96.7 134.9-71.9 215 24.3 78.6 79.1 125.3 159.6 139 57.6 9.8 110.1-6.7 155.3-43.7 24.1-19.7 43-43.8 53.7-73.5 9.3-17 13.2-35.4 15.5-54.4 5.9-50.3-6.2-95.8-35.2-137.1zm7.4 307.4c1.7-.1 3.4-.2 5.2-.4l7-5.8-44.3-19.7c-6.2-2.5-12.4 2.8-11.1 9.1 3.1 14.8 6.7 29.4 10.2 44.5 7.5-1.6 10.3-4.9 7.9-11.9-.7-2.1-.9-5.2.2-7 4.3-7.5 16.1-11.4 24.9-8.8zM367.5 56.6L361.9 83c-2.6-3.8-4.1-5.8-5.3-7.9-4-7-7.6-14.4-12.1-21-1.9-2.8-5.7-4.2-8.7-6.2-1.5 2.7-4 5.3-4.5 8.2-1.6 11-2.8 22-3.6 33.1-.2 2.2 1.5 5.9 3.2 6.6 4.5 1.9 5.9-1.8 6.4-5.4.9-6.1 1.5-12.2 2.5-19.8 11.5 10.4 10.4 29.2 28.7 33.4l7.5-45.6c.1-.5-1.1-1.1-1.7-1.7-2.2-.1-4.5-.1-6.8-.1zM397.8 499c-9.3 1.1-12.9 4.9-13.1 12.7s-1.7 15.6-2.9 26.4c-6.5-8.4-10.8-14.6-15.8-20.2-2.3-2.5-6.3-5.6-8.8-5.1-2.3.4-4.6 5.2-5.5 8.4-2.2 7.9-3.5 16.1-5.8 27l-13.8-24.9c-3.4-6.4-7.6-6.9-13.8-3.1l20.5 38.6c2.4 4.8 5.8 5.2 10.5 4.6 4.6-.6 6.7-2.9 7.4-7.3 1.1-7 2.5-13.9 4.4-23.5 6 7.3 10.1 13 14.9 18.1 2 2.1 6 4.5 7.9 3.8 3.4-1.3 8.1-4.5 8.5-7.5 2.3-15.3 3.6-30.9 5.4-48zM247.5 67.8l.9-3.2c-12-11.5-27.5-11.7-39.9-1.2-10.8 9.2-8.8 25-1.8 36.2 7.8 12.6 33.6 13.7 43.3 2.5 5.8-6.7 5.9-16.7.7-25-4.5-7-10.2-4.1-15.8-2.4-3.4 1-8.2 1-6.8 6.9 1.1 4.7 4.5 3.9 8.1 3.8 2.1-.1 5.5.9 6.1 2.3.7 1.8-.1 5.7-1.5 6.6-3.7 2.3-8.2 4.9-12.3 4.8C218 99 211 88.5 212.7 77.2c1.2-8.3 10.5-13.4 20.9-11.6 4.6.9 9.2 1.5 13.9 2.2zm237 121.1l22.1-15.2c-1 14.8-14.7 25.8-8.9 42.2l36.8-21.4c3.2-1.8 6-3.7 3.5-7.9-2.4-4-5.2-2.8-8.6-.9-5.1 3-10.5 5.4-18.2 9.3 3.8-10.1 6.1-17.4 9.3-24.2 3.8-8 1.8-13.5-5.5-18.2l-30.9 23.2c-7 5.2-6.8 5.4.4 13.1zm-348.9-79.8l30.2 36.4 7.8-7-7.6-11.7c4.8-7.6 9.5-3.3 13.7-1.1 5.9 3.1 11 4.8 15.2-2.8l-15.9-8.3c.5-2.2.8-3.9 1.3-5.4 2.3-6.5 2.8-12.8-3.5-17.3-5.9-4.2-12-4-17.9.2l-23.3 17zm-22.8 346.8c4.5-.4 7.9-.3 11.1-1.1 13.8-3.4 18.2-12.8 11.2-24.9-3.9-6.8-9-12.9-13.7-19.6L90 432c-3.1 2.2-9.1 3.4-5.9 9.2 4.1 7.5 7.6-.7 11.5-.9h2.5c6.1 4.4 6.5 10 4.6 16.9-1.5 5.5-2.8 11.7 5.7 14.5l4.4-15.8zm61.1 71.9l6.1-48c.6-6-4.4-9.7-9.7-7.4l-43.6 19.8c0 .9-.1 1.9-.1 2.8 3.6 1.1 8.5 4.3 10.4 3 7.6-5 12 0 16.7 4 4.9 4.1 12.3 6.6 10.4 15.7-1.3 6.5 2.8 9.2 9.8 10.1zm290-364.7l13.6-45.8c2-7.3-4.5-13.7-10.6-10.6-14.1 7.2-27.7 15.3-41.6 23.2 4.5 6.7 8.6 6.2 14.1 3.9 7.5-3.2 19.5 6.2 17 13.7-2.5 7.4.5 11 7.5 15.6zM98.6 208.4l-26.4-2c-6.8-.4-9 2.8-7.7 9.6l42.4 3.3c7.1.4 11.9-6.3 7.9-11.5-9.4-12.2-20-23.6-30-35.2-8 6.8-7.9 12.1-1.6 18.2 5.1 4.8 9.3 10.5 15.4 17.6zm426.1 238c-15.4-14.8-15.3-14.8-19-34.6-1.1-6-2.5-12-4.2-19.9-12.3 14-2.5 27.1-2.2 39.5-25.5 4.5-25.5 4.5-28.6 11.3 17 .1 34.5-2.6 48 12.6l6-8.9zM257.8 562.7c10 4.9 20 3.3 29.6 4.1 3.3.3 7.1 1.1 7.6-4.1.6-5.6-3.1-6.2-7.2-6.6l-17.9-1.4c.7-11.9 1.7-22.5 1.8-33.1 0-2.1-2.9-4.2-4.5-6.3-1.9 1.7-5.1 3.3-5.4 5.2-1.6 13.9-2.7 27.9-4 42.2zM102 145.5l28.3 25.6c7.3 6.4 7.3 6.4 13.3-3.7l-34-30.4-7.6 8.5zM212 549l15.9-40c1.3-3.4 1-7.4-3.5-7.7-1.9-.1-5.1 2.4-6 4.5-5.5 12.3-10.4 24.7-15.8 37.6 2.9 1.7 5.4 3.1 9.4 5.6zM415.4 71.5l-16.6 37.1c-2.7 5.8-.7 8.5 5.9 9.7L422.2 81c3-6.3-.5-8.2-6.8-9.5zM283.3 93.7c6.9.5 11.9 2.3 12-4.6V47.6c-11.7 0-11.9 0-12 6v40.1zM79.7 314.1c-2-1.8-4.7-5.6-8.4-7.1-4.3-1.8-10.6 3.7-10.6 8.5 0 5.3 2.7 8.8 8.2 9.6 5.3.7 10.3-3.3 10.8-11zm467.3-4.8c-8.5.1-11 3.6-11 9 0 5.6 3.3 9 8.7 8.8 5.3-.1 9.5-4 8.7-9-.5-3.5-4.7-6.6-6.4-8.8z" fill="#0"/><path fill="#fcfcfc" d="M566.4 226.8l-1.5-4.5 1.5 4.5zm-17 200.2l1.6-3.2-1.6 3.2z"/><g fill="#f5ee0b"><path d="M485.4 384.2c-10.7 29.7-29.6 53.8-53.7 73.5-45.2 37-97.7 53.4-155.3 43.7-80.5-13.7-135.2-60.3-159.6-139-24.8-80.1 4.6-165.6 71.9-215 1.7-1.2 3.7-1.9 5.6-2.9.6.7 1.2 1.3 1.8 2l-8.1 6.3c-68.7 53-94.1 143-62.5 224 47.7 122 198.8 161.5 300.7 80.4 25.3-20.1 43.4-45.6 57.1-74.6.7.6 1.4 1.1 2.1 1.6zM397.8 499c-1.8 17-3.1 32.7-5.5 48.2-.5 3-5.1 6.3-8.5 7.5-2 .7-6-1.7-7.9-3.8-4.8-5.1-9-10.7-14.9-18.1l-4.4 23.5c-.7 4.4-2.8 6.6-7.4 7.3-4.7.7-8 .2-10.5-4.6-6.5-12.8-13.5-25.4-20.5-38.6 6.2-3.8 10.5-3.4 13.8 3.1 3.9 7.5 8.1 14.7 13.8 24.9 2.3-11 3.6-19.1 5.8-27 .9-3.2 3.2-7.9 5.5-8.4 2.6-.5 6.6 2.6 8.8 5.1 5 5.6 9.3 11.7 15.8 20.2 1.3-10.9 2.7-18.6 2.9-26.4.3-8 3.9-11.7 13.2-12.9zM247.5 67.8l-13.9-2.2c-10.3-1.8-19.7 3.3-20.9 11.6C211 88.5 218 99 228.4 99.3c4.1.1 8.6-2.5 12.3-4.8 1.5-.9 2.3-4.8 1.5-6.6-.6-1.4-4-2.4-6.1-2.3-3.6.1-6.9.9-8.1-3.8-1.4-5.9 3.4-5.9 6.8-6.9 5.6-1.7 11.3-4.7 15.8 2.4 5.3 8.2 5.2 18.3-.7 25-9.7 11.2-35.5 10-43.3-2.5-7-11.3-9-27 1.8-36.2 12.4-10.6 27.9-10.3 39.9 1.2-.2.9-.5 1.9-.8 3zm237 121.1c-7.2-7.7-7.4-7.9-.4-13.3l30.9-23.2c7.3 4.7 9.2 10.3 5.5 18.2-3.2 6.9-5.5 14.2-9.3 24.2 7.6-3.9 13.1-6.3 18.2-9.3 3.3-1.9 6.1-3.2 8.6.9 2.6 4.2-.3 6.1-3.5 7.9l-36.8 21.4c-5.8-16.4 7.8-27.4 8.9-42.2l-22.1 15.4zm-348.9-79.8l23.4-17c5.9-4.2 12-4.4 17.9-.2 6.4 4.5 5.8 10.8 3.5 17.3-.5 1.5-.8 3.2-1.3 5.4l15.9 8.3c-4.3 7.5-9.4 5.9-15.2 2.8-4.2-2.2-9-6.5-13.7 1.1l7.6 11.7-7.8 7-30.3-36.4zm22.6 8.8c11.1-9 13.2-12.9 9.7-16.8-3.1-3.4-9.2-2.1-14.3 3.4-6.4 7 1.5 8.9 4.6 13.4zm216.2-61.3c.6.6 1.7 1.2 1.7 1.7l-7.5 45.6c-18.4-4.2-17.2-23-28.7-33.4l-2.5 19.8c-.5 3.6-2 7.3-6.4 5.4-1.8-.7-3.4-4.4-3.2-6.6.8-11.1 2-22.1 3.6-33.1.4-2.9 2.9-5.5 4.5-8.2 2.9 2 6.8 3.4 8.7 6.2 4.5 6.7 8.1 14 12.1 21 1.2 2.1 2.7 4 5.3 7.9l5.6-26.4c2.2.1 4.5.1 6.8.1zM112.8 455.9l-4.3 15.7c-8.5-2.8-7.2-9-5.7-14.5 1.9-6.8 1.5-12.5-4.6-16.9h-2.5c-3.9.2-7.4 8.5-11.5.9-3.1-5.8 2.9-7 5.9-9.2l31.4-21.7c4.7 6.7 9.8 12.8 13.7 19.6 7 12.1 2.6 21.5-11.2 24.9-3.3.9-6.7.8-11.2 1.2zm-5.9-23.8c3.6 4.6 5.9 8.9 9.4 11.5 1.9 1.4 6.5 1 8.8-.4 1.5-.9 2.3-5.5 1.4-7.5-1.8-4-5-7.4-7.9-11.6l-11.7 8zm67 95.7c-6.9-1-11.1-3.6-9.7-10.1 2-9.1-5.5-11.6-10.4-15.7-4.7-4-9.1-9-16.7-4-2 1.3-6.9-1.9-10.4-3 0-.9.1-1.9.1-2.8l43.6-19.8c5.2-2.3 10.3 1.4 9.7 7.4-1.8 16-4.1 31.9-6.2 48zm-19.4-37.5l11.7 7.9 2.1-13.5-13.8 5.6zm309.4-327.2c-7-4.6-10-8.1-7.6-15.6 2.5-7.4-9.5-16.8-17-13.7-5.5 2.3-9.6 2.9-14.1-3.9 13.9-7.8 27.5-15.9 41.6-23.2 6.1-3.1 12.5 3.2 10.6 10.6-3.9 15.1-8.7 30-13.5 45.8zm-2.6-29.7l5.1-13.9-13.1 7 8 6.9zm11.8 366.7c-8.8-2.6-20.5 1.3-24.9 8.8-1 1.8-.9 4.9-.2 7 2.4 7-.4 10.3-7.9 11.9l-10.2-44.5c-1.3-6.3 4.9-11.6 11.1-9.1 14.4 5.9 28.4 12.6 44.3 19.7l-7 5.8c-1.8.2-3.5.3-5.2.4zm-28.5-.4c3.7-3.2 5.9-4.9 9.2-7.7l-12.7-4.8 3.5 12.5zm-346-291.3c-6.1-7-10.3-12.7-15.4-17.6-6.3-6.1-6.3-11.4 1.6-18.2 10 11.6 20.5 23 30 35.2 4 5.2-.8 11.9-7.9 11.5-14-.8-27.9-2.2-42.4-3.3-1.3-6.8.9-10 7.7-9.6l26.4 2zm426.1 238l-6.1 9c-13.4-15.2-31-12.5-48-12.6 3.1-6.8 3.1-6.8 28.6-11.3-.3-12.5-10.1-25.5 2.2-39.5l4.2 19.9c3.7 19.7 3.7 19.7 19.1 34.5z"/><path d="M194.3 144.5c18.7-15.6 41.2-23.8 64.1-29.5 54.4-13.5 105.5-4.1 153 25.3 1.7 1.1 3.1 2.7 4.7 4.1-.6.7-1.1 1.4-1.7 2.1-5.2-3-10.2-6.2-15.5-9-40-21.8-82.5-28.6-127.5-21.1-27.4 4.6-52.2 15.4-75.4 30.2-.5-.7-1.1-1.4-1.7-2.1zm271.4 48.2c29 41.3 41.1 86.9 35.2 137.2-2.2 19-6.2 37.4-15.5 54.4-.7-.5-1.4-1.1-2.1-1.6l3.8-10.8c14.3-40.6 16-81.8 2.4-122.5-6.4-19.1-17-36.7-25.7-55 .7-.6 1.3-1.2 1.9-1.7zm-207.9 370l4.1-42.2c.2-1.9 3.5-3.5 5.4-5.2 1.6 2.1 4.5 4.2 4.5 6.3-.2 10.6-1.1 21.2-1.8 33.1l17.9 1.4c4.1.3 7.8 1 7.2 6.6-.6 5.2-4.4 4.4-7.6 4.1-9.7-.9-19.7.8-29.7-4.1zM102 145.5l7.5-8.6 34 30.4c-5.9 10.1-6 10.1-13.3 3.7L102 145.5zM212 549l-9.4-5.7 15.8-37.6c.9-2.1 4.1-4.6 6-4.5 4.5.3 4.9 4.3 3.5 7.7-4.9 13-10.2 25.8-15.9 40.1zM415.4 71.5c6.4 1.3 9.9 3.1 6.8 9.6l-17.5 37.3c-6.6-1.2-8.6-3.9-5.9-9.7l16.6-37.2zM283.3 93.7V53.6c.1-6 .2-6 12-6v41.5c-.1 6.8-5.1 5.1-12 4.6zM79.7 314.1c-.5 7.7-5.5 11.7-10.8 11-5.5-.8-8.2-4.3-8.2-9.6 0-4.8 6.4-10.2 10.6-8.5 3.7 1.5 6.5 5.3 8.4 7.1zm467.3-4.8c1.7 2.2 5.9 5.3 6.4 8.9.7 5-3.4 8.9-8.7 9-5.4.1-8.7-3.2-8.7-8.8 0-5.5 2.5-9 11-9.1z"/><path d="M416.1 144.4c20.4 12.1 36.4 28.7 49.6 48.3-.6.6-1.3 1.1-1.9 1.7-14.6-17.8-30.4-34.5-49.3-47.9.5-.7 1.1-1.4 1.6-2.1z"/></g><path fill="#fcfcfc" d="M374.4 56.6h-6.9 6.9zm98.7 443.5l5.2-.4-5.2.4z"/><path fill="#0" d="M414.4 146.5c18.9 13.4 34.7 30 49.3 47.9 8.7 18.3 19.3 35.9 25.7 55 13.6 40.7 12 81.9-2.4 122.5l-3.8 10.8c-13.6 29-31.8 54.4-57.1 74.6-101.9 81.2-253 41.6-300.7-80.4-31.7-81-6.2-171 62.5-224l8.1-6.3c23.3-14.7 48-25.6 75.4-30.2 45-7.5 87.5-.8 127.5 21.1 5.3 2.8 10.4 5.9 15.5 9zM182.8 340.7c-.4-3-.6-6-1.3-8.9l-27.3-102.6c-1.1-4.2-2.8-8.2-4.5-13.4-10 11.6-13.7 21.6-9.4 36l54.1 190.7c.7 2.5 1.8 4.9 2.7 7.3.7-.1 1.4-.2 2-.4l40.3-303.9c-18.2.1-24.3 4.5-26 18l-16.2 133.6-8 57.2h-1.6l-3.5-9.3c-.4-1.4-.9-2.8-1.3-4.3zm176.4-210.2l13.1 338.6c3.5-1.7 5.7-2.9 8-3.8 9.7-4.2 13.4-10.6 12.7-21.8-2.4-41.4-3.7-82.9-5-124.3-.6-18.5-.1-37.1-.1-55.6l.9-.3 46 159.7c12.1-8.5 21.1-16.2 17.7-32-1.9-8.6-.7-17.9-1.1-26.9l-6-167.9c-.4-15.6-9.1-23.4-22.8-32.2l7.9 159.4c-2.4-1.5-3.5-3.3-4.1-5.2l-18.6-65.1-30-103.1c-2.5-9.3-7.4-15.9-18.6-19.5zm-16.3 70.7c2-18-.3-34.4-7-49.8s-22.3-24.2-35.9-20.9c-18.6 4.6-34.1 13.9-42.3 32.1-4.7 10.4-9.6 21.2-11.4 32.4-3.7 22.3-6.8 44.8-7.6 67.3-2 50.4-1.8 101 10.6 150.4 4.3 17.2 10.5 34.3 18.3 50.3 7.7 15.7 22.3 23.5 40.1 22.4 16.3-1 26.1-11.3 32.5-25.4 7.1-15.7 11.3-32.1 11.3-49.5v-92.7h-63.9V338l43.1 2.3c0 27.1.7 53.2-.4 79.2-.4 9.9-3.3 20.5-7.9 29.3-9.5 18-27.5 18.5-38 1.1-5.4-9-9.4-19.2-12-29.4-8.6-33.3-10.9-67.3-11-101.6-.2-42.3-1.1-84.6 7.8-126.4 2.9-13.5 7.2-26.4 15.3-37.6 10.6-14.6 25.7-13.3 32.8 2.8 1.7 3.8 2.8 8.1 3.4 12.3 1.4 10.4 2.4 20.8 3.5 31.4 6.2-.2 11.7-.2 18.7-.2zm-184.7-83.3c-3.1-4.5-11.1-6.3-4.6-13.4 5.1-5.5 11.2-6.8 14.3-3.4 3.5 3.9 1.4 7.8-9.7 16.8zm-51.3 314.2l11.7-8c3 4.2 6.1 7.6 7.9 11.6.9 2 .1 6.6-1.4 7.5-2.3 1.4-6.9 1.8-8.8.4-3.5-2.6-5.8-6.8-9.4-11.5zm47.6 58.2l13.8-5.6-2.1 13.5-11.7-7.9zm306.8-356.9l-8-6.9 13.1-7-5.1 13.9zm-16.7 366.3l-3.5-12.5 12.7 4.8-9.2 7.7z"/><path fill="#f5ee0b" d="M359.2 130.5c11.1 3.6 16 10.2 18.7 19.3l30 103.1 18.6 65.1c.6 1.9 1.7 3.7 4.1 5.2l-7.9-159.4c13.7 8.8 22.4 16.7 22.8 32.2l6 167.9c.3 9-.8 18.2 1.1 26.9 3.4 15.7-5.6 23.5-17.7 32l-46-159.7-.9.3c0 18.5-.5 37.1.1 55.6l5 124.3c.6 11.2-3 17.7-12.7 21.8-2.3 1-4.4 2.1-8 3.8l-13.2-338.4zm-16.3 70.7H324l-3.5-31.4c-.6-4.2-1.7-8.4-3.4-12.3-7.2-16.1-22.2-17.5-32.8-2.8-8.2 11.2-12.5 24.1-15.3 37.6-8.9 41.8-8 84-7.8 126.4.2 34.3 2.4 68.3 11 101.6 2.6 10.2 6.6 20.5 12 29.4 10.5 17.3 28.5 16.9 38-1.1 4.6-8.8 7.5-19.4 7.9-29.3 1.1-26 .4-52 .4-79.2l-43.1-2.3v-20.2h63.9v92.7c0 17.3-4.3 33.7-11.3 49.5-6.4 14.2-16.2 24.5-32.5 25.4-17.8 1.1-32.5-6.7-40.1-22.4-7.8-16-14-33-18.3-50.3-12.3-49.4-12.5-99.9-10.6-150.4.9-22.5 3.9-45.1 7.6-67.3 1.9-11.1 6.8-21.9 11.4-32.4 8.2-18.2 23.7-27.5 42.3-32.1 13.7-3.4 29.2 5.5 35.9 20.9 6.8 15.6 9.2 32 7.2 50zM184.1 345.1l3.5 9.3h1.6l8-57.2 16.2-133.6c1.7-13.5 7.8-17.9 26-18l-40.2 304c-.7.1-1.4.2-2 .4-.9-2.4-2-4.8-2.7-7.3L140.4 252c-4.3-14.5-.6-24.5 9.4-36 1.8 5.1 3.4 9.2 4.5 13.4L181.6 332c.8 2.9.9 5.9 1.3 8.9.3 1.3.8 2.7 1.2 4.2z"/><path fill="#fcfcfc" d="M184.1 345.1l-1.3-4.4 1.3 4.4z"/><path d="M306.5 26.9c37.6 0 74.1 7.4 108.4 21.9 33.2 14 63 34.1 88.6 59.7s45.7 55.4 59.7 88.6c14.5 34.3 21.9 70.8 21.9 108.4s-7.4 74.1-21.9 108.4c-14 33.2-34.1 63-59.7 88.6s-55.4 45.7-88.6 59.7c-34.3 14.5-70.8 21.9-108.4 21.9s-74.1-7.4-108.4-21.9c-33.2-14-63-34.1-88.6-59.7s-45.7-55.4-59.7-88.6c-14.5-34.3-21.9-70.8-21.9-108.4s7.4-74.1 21.9-108.4c14-33.2 34.1-63 59.7-88.6s55.4-45.7 88.6-59.7c34.3-14.5 70.8-21.9 108.4-21.9m0-10.3C147 16.6 17.6 146 17.6 305.5S147 594.4 306.5 594.4 595.4 465 595.4 305.5 466 16.6 306.5 16.6z"/></svg>