<svg xmlns="http://www.w3.org/2000/svg" viewBox="0 0 612 612" xmlns:v="https://vecta.io/nano"><path fill="#eee31b" d="M306 20.4c154.9-1.9 290.2 124.4 289.3 290.5-.7 143.1-113.8 289.9-296.8 285.5C143 592.5 16.4 461.1 19 303.8 21.7 139.5 159.1 18.7 306 20.4zm279.8 287.9C585.8 155.6 461.4 31 310 29.6 155.3 28.3 28.2 154.3 28.1 308.5c0 148 118.9 276 274.4 278.5 155.2 2.5 282.9-121.9 283.3-278.7z"/><path fill="#0" d="M585.8 308.3c-.4 156.8-128.1 281.2-283.3 278.7C147 584.6 28.1 456.6 28.1 308.5c0-154.2 127.2-280.2 281.8-278.9 151.5 1.4 275.9 126 275.9 278.7zM432.7 148.9l-.3.1c.3 4.8 1.5 9.8 1 14.6-1.4 17.3-.9 18.5 16 25.7l2.5-31.9c16 1.5 23.3-2.4 28.4-13.7 5-11-.8-18.8-8-25.7-6.9-6.5-14.5-12.2-22.5-18.7l-46.3 55.3 15 11.4 14.2-17.1zM79.6 351.3l2 2-22.3 20.9 5.3 11.6 36.4 5.1-32.3 11.6 5 13.3 68.7-21.5L137 381l-53.5-7.8 40.8-37.5-5.6-12.7-67.8 21.1 4.7 13.1 12.4-3 11.6-2.9zm226.7 113c86.3.1 156.6-69.6 156.7-155.4.1-86.2-69.5-156.3-155.4-156.5-86.5-.2-155.8 69.2-156.7 155.2-.7 81 65.3 156.3 155.4 156.7zM68.5 212l31.7 27.9c-.6.8-1 1.6-1.6 2.3l-41.5-6.9-7.9 17.3 73.9 11.6 8-17-29.9-30.4 41.4 6.1 8.6-17.2-54.7-51.9-8.3 17.4L122 203l-46.2-6.2c-1.9 4.4-3.7 8-7.3 15.2zm456.6-30.7l-64.8 28.4 8.1 16.9 39.1-16.3-26 48.6 8.1 16.7 65.5-28.7-7.7-16.9-39.7 16.2c7.5-13.8 12.5-24.5 18.9-34.2 6.9-10.3 8.1-19.6-1.5-30.7zm-54.8 218.6l-8.4 11.7 32.2 27.9c-17.2-.8-31-.8-44.5-2.1-8.2-.8-13.8 1.1-17.3 10.6l54.3 45.6 8.8-11.6-30.6-26.5c15.1-1.4 28.8-.9 42.6.7 9.1 1.1 14.3-2 17.7-10.8l-54.8-45.5zm5.9-11l67.8 25.6c3.8-10.1 7.5-18.9 10.4-28 5.6-18.1-3.4-36.9-20.5-43.9-18.4-7.4-37.5-.5-46.3 17.7-4.2 8.6-7.2 17.8-11.4 28.6zm-281.9 61.8l-34.7 63 12.5 7 15-25.1c14.9 11.1 3.4 27.4 11.3 40l11.7 5.4v-31.6c2.1-.5 3.6-.9 5.1-1.1 10.5-1.9 17.9-7.2 19.8-18.4 1.9-10.8-1.9-17.6-14-24.4l-26.7-14.8zm54.4-339.9l.9 5.5c-4.2 2-8.2 5.1-12.7 5.7-4.7.8-9.7-.7-15.2-1.2l-2.7 14.3c11.1 6.1 21.1 5 30.8 1.4 13.3-4.8 20-15.8 18-28.4-1.9-11.8-8.8-16.8-24.4-17.9-5.7-.5-12.4.7-15.2-6.2 4.4-9.5 12.8-7 20.5-7.1l1.9-16.1c-8.9 1-16.5.8-23.6 2.7-13.4 3.7-19.6 13.7-17.8 26.3 1.6 11.6 8.3 16.7 22.7 17.9 5.6.6 11.1 2.1 16.8 3.1zm125.5-48.4L347 129.3l37.7 15.3 5.9-14.5-19.5-9 4.3-9.8 19.5 6.1 5.2-13.8-18-8.2c1.2-3.5 2.4-6.5 3.7-10.2l20 7.5 6.4-14.3-38-16zM464.4 513l-60.1-49.6-12.8 8 8.3 76.7c5.5-3.2 9.3-5.3 13.2-7.4v-17.8l23.9-12.8 14.5 10.5c4-2.6 7.8-4.7 13-7.6zm-331.7-43.1l-7.4 16.2 10.5 10.9 35.7-67.8-9.2-11.6-74.1 23.6 10.1 11.5 17.7-3.6c5.7 7.5 11.1 14.1 16.7 20.8zm40.1-362.6l-9.9-11.9-32.5 23.9 42.9 58.1 32.9-24.5-9.2-12.4-18.1 12.3-6-9.1 15.8-13.5-9.8-11.4-16.2 11-6.3-8.8 16.4-13.7zm159.5-38.1V54.9h-48.1v14.4l15 1.4V125H318V71l14.3-1.8zM275 558.5c-3.8-30.1 19.4-45.7 34.1-67.3l-16.1-2-18.2 20.7c-9.8-9.9-5.3-32-27.9-27.4 7.4 24 23.5 45.8 11.4 73.3 6 1.1 10.2 1.7 16.7 2.7zm64.9-14.9l-8.6-56-14.6 1.4 5.4 35.6 5.3 36.1 51.4-7.9-2.8-14.1-36.1 4.9zm181.8-262c1.2 7.8-4.7 10.7-9.5 11.5l4.3 22c1.9-1.2 5-3.4 7.5-5.2l6.3 4.1 5.1-19.3-13.7-13.1zm-436.5 1.5l-11.4 11.7 4.7 16.5 13.5 1.9 4.5-18.8-11.3-11.3z"/><path fill="#eee31b" d="M306.3 464.3c-90.1-.5-156.1-75.8-155.4-156.6.9-85.9 70.2-155.5 156.7-155.2 85.9.2 155.5 70.2 155.4 156.5-.1 85.7-70.3 155.4-156.7 155.3zm.8-9.9c81.8-.6 146.8-65.3 146.4-146-.5-82.5-66-146.9-149.2-146.4-79.1.5-144.3 67-144 146.9.3 80.9 66.2 146.1 146.8 145.5zM68.5 212l7.5-15.1 46.2 6.2-33.9-31.7 8.3-17.4 54.7 51.9-8.6 17.2-41.4-6.1 29.9 30.4-8 17-73.9-11.6 7.9-17.3 41.5 6.9c.6-.8 1-1.6 1.6-2.3L68.5 212zm456.6-30.7c9.7 11.1 8.3 20.4 1.6 30.5-6.5 9.7-11.4 20.4-18.9 34.2l39.7-16.2 7.7 16.9-65.5 28.7-8.1-16.7 26-48.6-39.1 16.3-8.1-16.9 64.7-28.2zm-445.5 170l-11.8 3c-3.8 1-7.8 1.9-12.4 3l-4.7-13.1 67.8-21.1 5.6 12.7-40.8 37.5 53.5 7.8c1.5 3.5 3.2 7.5 5.4 13.3l-68.7 21.5-5-13.3 32.3-11.6-36.4-5.1-5.3-11.6 22.3-20.9c.7-.9 1.2-1.9 1.9-2.8-1.1.1-2.5.4-3.7.7zm353.1-202.4L418.4 166l-15-11.4 46.3-55.3c8 6.5 15.6 12.2 22.5 18.7 7.3 6.9 12.9 14.6 8 25.7-5.1 11.4-12.4 15.1-28.4 13.7l-2.5 31.9c-16.9-7.2-17.3-8.2-16-25.7.3-4.8-.7-9.8-1-14.6l.9.3c.1-.1-.5-.4-.5-.4zm11.7-14c5.3 6.4 10.2 8.7 15.2 3.6 6.1-6.2 1.1-10.5-4.1-15.5l-11.1 11.9zm25.9 265l54.6 45.5c-3.3 8.8-8.6 11.9-17.7 10.8-13.6-1.6-27.5-2-42.6-.7l30.6 26.5-8.8 11.6-54.3-45.6c3.5-9.5 9.1-11.4 17.3-10.6 13.5 1.4 27.2 1.4 44.5 2.1l-32.2-27.9c2.7-3.3 5-6.7 8.6-11.7zm5.9-11c4.3-10.7 7.2-20 11.4-28.6 8.8-18.1 27.9-25.1 46.3-17.7 17.1 7 26.1 25.8 20.5 43.9-2.8 9.1-6.6 17.9-10.4 28l-67.8-25.6zm58.1 6.1c6.6-11.3 10.4-21.5 2.4-32.2-5-6.6-12.2-9.1-20.3-7.7-13.2 2.4-17.2 12.5-20 25l37.9 14.9zm-340 55.7l26.8 14.9c11.9 6.9 15.8 13.7 14 24.4-1.9 11.1-9.3 16.4-19.8 18.4-1.5.2-2.9.7-5.1 1.1v31.6l-11.7-5.4c-8-12.7 3.5-28.9-11.3-40l-15 25.1-12.5-7 34.6-63.1zm20.1 43.6c8.3-11.6 5.3-15.4-15.3-21.4l-5.1 10.5 20.4 10.9zm34.3-383.5c-5.6-1-11.1-2.5-16.8-2.9-14.4-1.2-21.2-6.3-22.7-17.9-1.8-12.7 4.4-22.7 17.8-26.3 7.1-1.9 14.6-1.8 23.6-2.7l-1.9 16.1c-7.7.1-16-2.4-20.5 7.1 2.8 7 9.5 5.9 15.2 6.2 15.6 1.1 22.5 6.2 24.4 17.9 2.1 12.6-4.7 23.5-18 28.4-9.8 3.6-19.8 4.7-30.8-1.4l2.7-14.3c5.5.6 10.6 1.9 15.2 1.2 4.4-.7 8.4-3.7 12.7-5.7-.4-2-.6-3.8-.9-5.7zm125.5-48.4l38.1 15.8-6.4 14.3-20-7.5-3.7 10.2 18 8.2-5.2 13.8-19.5-6.1c-1.4 3-2.7 6.2-4.3 9.8l19.5 9-5.9 14.5-37.7-15.3 27.1-66.7zM464.4 513l-13.2 7.5-14.5-10.5-23.9 12.8v17.8l-13.2 7.4-8.3-76.7 12.8-8 60.3 49.7zm-54.3-6.4l13.7-7.5-15.5-12.9 1.8 20.4zm-277.4-36.7l-17-20.6-17.7 3.6-10.1-11.5 74.1-23.6 9.2 11.6-35.7 67.8c-3.9-4.2-7.2-7.5-10.5-10.9l7.7-16.4zm-2.2-26.6l10.6 12.2 8.1-17.9-18.7 5.7zm42.3-336l-16.7 13.5 6.3 8.8 16.2-11c3.3 3.7 6.2 7.1 9.8 11.4l-15.8 13.5 6 9.1 18.1-12.3 9.2 12.4-32.9 24.5-42.9-58.1 32.5-23.9c3.7 4.2 6.7 8 10.2 12.1zm159.5-38.1l-14.2 1.7v54h-18.8V70.6l-15-1.4V54.8h48.1l-.1 14.4zM275 558.5l-16.9-2.7c12.3-27.5-3.9-49.3-11.4-73.3 22.6-4.7 18.1 17.4 27.9 27.4l18.2-20.7 16.1 2c-14.4 21.6-37.6 37.3-33.9 67.3zm64.9-14.9l36-4.6 2.8 14.1-51.4 7.9-5.3-36.1-5.4-35.6 14.6-1.4 8.7 55.7zm181.8-262l13.6 12.9-5.1 19.3c-1.4-.8-3.4-2.1-6.3-4.1l-7.5 5.2-4.3-22c4.8-.6 10.8-3.5 9.6-11.3zm-436.5 1.5l11.4 11.4-4.5 18.8c-3.8-.6-8.7-1.2-13.5-1.9l-4.7-16.5c3.1-3.5 7.6-8.1 11.3-11.8z"/><path fill="#0" d="M307.1 454.4c-80.7.6-146.5-64.6-146.8-145.4-.3-80 64.8-146.5 144-146.9 83.2-.5 148.8 63.8 149.2 146.4.4 80.6-64.4 145.2-146.4 145.9zm1.9-42.2l1.8-19.3c10.8 5.5 10.8 26.8 29.2 18.1v-44.9h-13.2l-1.1 20.3c-11-6.4-11.3-26.6-29.4-19.6v46.3l12.7-.9zm79.7-28.4l-21.6-1.9v-4.3l23.1-2v-9.1h-37.8v45.8h38.5v-10.6c-4.6 0-8.7.2-12.6 0-3.7-.2-7.5-.9-11.8-1.5 1.7-9.9 8.4-6.6 13.3-7.1 4.8-.5 10.8 1.1 8.9-9.3zm-83-143.5c.6 2.4.8 4.5 1.7 6.2 5 9.2 14.4 12.8 26.1 10.2 8.4-1.9 13.6-7.5 14.4-15.6.8-9-3.5-13.5-16.8-18.2-3.3-1.2-6.3-3.2-9.5-4.7.3-1 .7-2 1-3l23.9 6.8c-5.1-15.4-8.3-17.7-21.8-17-9.8.5-15.8 4.6-17.1 12-1.5 7.7 2.3 13.1 11.8 17.1l15.6 6.8c-9.6 5.6-10.9 6.4-13.2 2.8-4.5-7.6-9.9-4.8-16.1-3.4zm-54.6 16.1c7.8.1 12.7 2 16.8-4.5 4.4-7.2 12.7-6.1 16.2-.7 5.2 8 10.2 5.6 17.4 3.8l-16.8-48.9h-16.9l-16.7 50.3zm101.7 38.9c-6.9-12.9-17-16.7-28-10.1-11.1 6.5-14.5 27.6-6.4 40 7.2 11 19.5 11.4 34.7.9V305h-20.2l8.7 14.3c-4.5 3.8-8.8 4.2-12.6-1.2-4.7-6.6-2.4-16.5 6.4-24.8 4.8 5 10.9 9.5 17.4 2zm-143.4-11.8V333c4.3-.3 7.5-.7 11.1-1l2.5-20.5 11 21.6 13.2-1.7-9.6-20.7c1-1.2 2-2.4 2.8-3.7 7.8-14 3.2-22.5-12.6-23.5-5.6-.3-11.2 0-18.4 0zm178.5.8l-1.4 15.3H376l-2.4-16c-4.2.6-7.4.9-10.1 1.4v48.7l11-2.4 1.2-18.1c4.2.2 7.4.5 10.7.7l1.9 19.5 10.4-1.8v-48.2l-10.8.9zm-139-58c-6.8-3.6-14 1.2-19.1-7.4l22-3.3v-9.2h-34.4V256h13.3l1.7-19.5 17.2-2.1c-.4-3.3-.5-5.8-.7-8.1zm35 67.3c-1.4-11.9-1.9-12-31.1-9v47.6h32v-9.3c-18-2.5-18-2.5-19-10.1l17.1-.8c-.2-3.9-.5-6.8-.7-8.8-5.7-3.6-13.8 1.9-18.7-7.3 7.6-1 13.3-1.6 20.4-2.3zm112.9-87.5h-43c.2 4.4.5 7.8.7 11l14.4 2.8v36.8l14.9-1.2v-36.1l13.1-2.1c-.1-4-.1-7.4-.1-11.2zM222.4 412.3h35.9v-11.5h-21.5v-34.6h-14.4v46.1zm220.1-127.8h-36.4l.5 10.4c4.1 1.1 7.8 2.3 12.5 3.6v34.7l11.9-1.5v-33.3l11.6-3.5c-.1-3.6-.1-6.5-.1-10.4zm-271.4 47.9h11l1.7-17.6c5.1-4.1 17.4 2.3 13.4-10.6-4.3-3.7-13.5 2-13.7-8.8l17.2-2c-.5-3.7-.8-6.4-1.1-9.2h-28.4l-.1 48.2zm97.6 81.3l13.6-1.8v-46.5c-5.2.3-9.3.7-13.6 1v47.3zm25.6-129.4v48h10.6v-48h-10.6zm-214.7 67c1.4-.2 2.6-.6 3.9-.8-.7.9-1.2 1.9-1.9 2.8-.8-.7-1.4-1.3-2-2zm364.8-216.4l11-11.9c5.3 5.1 10.1 9.3 4.1 15.5-4.8 5.1-9.8 2.8-15.1-3.6zm-11.7 14l.6.3-.9-.3zM534.3 395l-37.9-14.9c2.8-12.6 6.9-22.6 20-25 8.1-1.5 15.3 1 20.3 7.7 7.9 10.7 4.2 21-2.4 32.2zm-319.9 99.3L194 483.4l5.1-10.5c20.7 5.8 23.8 9.7 15.3 21.4zm195.7 12.3l-1.7-20.5 15.5 12.9c-5 2.9-8.7 4.9-13.8 7.6zm-279.6-63.3l18.7-5.7-8.1 17.9-10.6-12.2z"/><path fill="#eee31b" d="M309 412.2c-4.7.2-8.1.5-12.6.8v-46.3c18.1-6.9 18.4 13.2 29.4 19.6.5-7.2.8-13.4 1.1-20.3h13.2v44.9c-18.5 8.7-18.4-12.6-29.2-18.1l-1.9 19.4zm79.7-28.4c1.9 10.2-4.2 8.8-9.1 9.2-4.7.5-11.6-2.8-13.3 7.1 4.4.6 8.1 1.2 11.8 1.5 3.9.2 8 0 12.6 0v10.6h-38.5v-45.8H390v9.1l-23.1 2v4.3l21.8 2zm-83-143.5c6.2-1.4 11.6-4.2 16.2 3.3 2.3 3.6 3.6 2.8 13.2-2.8l-15.6-6.8c-9.6-4.1-13.2-9.5-11.8-17.1 1.4-7.4 7.3-11.6 17.1-12 13.5-.7 16.8 1.6 21.8 17l-23.9-6.8c-.3 1-.7 2-1 3 3.2 1.6 6.2 3.6 9.5 4.7 13.3 4.8 17.6 9.3 16.8 18.2-.7 8.1-5.9 13.7-14.4 15.6-11.7 2.6-21.3-1-26.1-10.2-1-1.6-1.1-3.8-1.8-6.1zm-54.6 16.1l16.9-50.2h16.9l16.8 48.9c-7.2 1.8-12.3 4.2-17.4-3.8-3.5-5.4-11.8-6.5-16.2.7-4.2 6.4-9.2 4.5-17 4.4zm21.8-21.1h7.8l-5.1-14.1-2.7 14.1zm79.9 60c-6.6 7.3-12.6 2.9-17.4-2-8.9 8.2-11.1 18.1-6.4 24.8 3.8 5.4 8.1 5 12.6 1.2l-8.7-14.3h20.2v21.1c-15.2 10.5-27.6 10.1-34.7-.9-8-12.4-4.6-33.4 6.4-40 11-6.5 21.1-2.8 28 10.1zm-143.4-11.8c7.2 0 12.8-.3 18.5 0 15.8 1 20.4 9.5 12.6 23.5-.7 1.4-1.8 2.5-2.8 3.7l9.6 20.7-13.2 1.7-11-21.6-2.5 20.5-11.1 1-.1-49.5zm11.2 17.2c1.2 1.1 2.4 2.3 3.6 3.4l6.5-6.5c-1.4-1.1-3.7-3.4-4.1-3.2-2.1 1.8-4.1 4.2-6 6.3zm167.3-16.4l10.9-.8v48.2l-10.4 1.8-1.9-19.5-10.7-.7-1.2 18.1-11 2.4v-48.7c2.7-.3 6-.8 10.1-1.4l2.4 16h10.5c.3-4.8.8-9.2 1.3-15.4zm-139-58c.1 2.3.3 4.7.6 8.1l-17.2 2.1-1.7 19.5h-13.3v-49.6h34.4v9.2l-22 3.3c5.2 8.8 12.5 3.8 19.2 7.4zm35 67.3l-20.3 2.1c4.8 9.3 12.9 3.7 18.7 7.3.1 2.1.3 5 .7 8.8l-17.1.8c1 7.7 1 7.7 19 10.1v9.3h-32v-47.6c29.1-2.9 29.7-2.7 31 9.2zm112.9-87.5v11.1l-13.1 2.1v36.1l-14.9 1.2v-36.8l-14.4-2.8-.7-11 43.1.1zM222.4 412.3v-46.2h14.4v34.6h21.5v11.5l-35.9.1zm220.1-127.8V295l-11.6 3.5v33.3l-11.9 1.5v-34.7l-12.5-3.6c-.1-3.2-.2-6.1-.5-10.4l36.5-.1zm-271.4 47.9v-48.1h28.4l1.1 9.2-17.2 2c.2 10.8 9.5 5.1 13.7 8.8 3.9 12.8-8.3 6.5-13.4 10.6l-1.7 17.6c-3.6-.1-6.8-.1-10.9-.1zm97.6 81.3v-47.3l13.6-1v46.5c-3.6.4-7.7 1-13.6 1.8zm25.6-129.4h10.6v48h-10.6v-48z"/><path fill="#0" d="M272.9 235.3l2.7-14.1 5.1 14.1h-7.8zm-52.3 65.4c2-2.1 3.8-4.5 6.1-6.3.3-.2 2.7 2 4.1 3.2l-6.5 6.5-3.7-3.4z"/><path d="M307 20.4c159.1 0 288 129 288 288s-129 288-288 288-288-129-288-288 128.9-288 288-288m0-3.4c-39.3 0-77.5 7.7-113.4 22.9-34.7 14.7-65.9 35.7-92.6 62.5-26.8 26.8-47.8 57.9-62.5 92.6-15.2 35.9-22.9 74.1-22.9 113.4s7.7 77.5 22.9 113.4c14.7 34.7 35.7 65.9 62.5 92.6 26.8 26.8 57.9 47.8 92.6 62.5 35.9 15.2 74.1 22.9 113.4 22.9s77.5-7.7 113.4-22.9c34.7-14.7 65.9-35.7 92.6-62.5 26.8-26.8 47.8-57.9 62.5-92.6 15.2-35.9 22.9-74.1 22.9-113.4s-7.7-77.5-22.9-113.4c-14.7-34.7-35.7-65.9-62.5-92.6-26.8-26.8-57.9-47.8-92.6-62.5C384.5 24.7 346.3 17 307 17z"/></svg>