<?xml version="1.0"?>
<svg version="1.1" viewBox="-30 -30 60 60" xmlns="http://www.w3.org/2000/svg" xmlns:xhtml="http://www.w3.org/1999/xhtml">
<g><clipPath id="aa2b2755-6558-4dea-86f0-af4df1bae878"><circle cx="0" cy="0" r="30"></circle></clipPath><g clip-path="url(#aa2b2755-6558-4dea-86f0-af4df1bae878)"><g transform="rotate(0)"><circle cx="0" cy="0" r="30" fill="#ffffff" stroke="none"></circle></g><svg viewBox="0 0 612 612" class="" x="-18.75" y="-18.75" height="37.5" width="37.5"><path d="M237.5 185.1c-14.3 14.2-28.5 28.2-42.5 42.2 15.6 15.4 30.7 30.6 46.2 45.9-8.8 8.8-17.1 17-25.8 25.5-15-15.2-30.2-30.3-45-45.3-14 14.2-28 28.3-42.2 42.6-4-4-7.4-7.1-10.6-10.3-21.5-21.5-43-43.3-64.9-64.7-9.8-9.6-14.2-21.2-15.3-34.4-1.8-21.1 2.1-41.5 7.8-61.7 1.3-4.7 2.8-9.3 4.5-13.9.4-1.3 1.7-2.7 3-3.1 24.8-8.5 50.1-14.6 76.6-12.2 13.7 1.3 25.5 6.4 35.1 16.7 13.3 14.2 27.3 27.5 41.2 41.2 10.6 10.3 21.2 20.8 31.9 31.5zm-14.4 120.7l25.3-25.3c5.4 5.5 10.6 11.2 16 16.7 14.9 15 29.9 30 44.9 45l58.9 58.9 36.5 36.5c11 11 22.2 22.1 33.1 33.3 1.7 1.7 3 2.3 5.4 1.4 22.2-8.1 41.6-3.4 58.2 13.2l17.1 17.1-6.8 6.8c-3.8-4-7.6-8.1-11.6-11.9-5.9-5.9-11.5-12.3-19.5-15.7-16.6-6.9-32.1-5.1-45.9 6.4-13.5 11.3-17.7 26.2-14 43.2 1.7 7.8 5.8 14.6 11.5 20.2 6.2 6.1 12.3 12.2 18.8 18.6-2.5 2.1-4.8 4-6.5 5.4-7.2-6.8-15-13.7-22.4-21.2-5.4-5.5-8.5-12.5-10.3-20-2.8-11-2.4-22.1 2-32.6 1-2.4.6-4-1.3-5.8-18.3-18.1-36.4-36.4-54.7-54.5-23.8-23.8-47.6-47.4-71.4-71.2l-62.6-62.6c0-.9-.3-1.3-.7-1.9zm350.6 22.4c-1.8-2.4-4-4.5-5.7-7.1-12.5-20-26.1-39.2-40.5-57.6-16.4-20.8-33.8-40.6-52.5-59.3-5.8-5.8-11.9-6.4-19-1.8-3.3 2.1-6.1 4.8-9.1 7.2-3.5 3-5.1 3.1-8.5-.3-7.4-7.2-14.6-14.6-21.9-21.8-4.7-4.7-9.3-9.2-13.9-13.9-3.8-3.8-3.7-5.5-.4-9.6 2.8-3.4 5.8-6.8 7.9-10.6 3.5-6.4 2.8-11.6-2.5-16.6-16.6-15.3-33-30.6-50.3-45.2-21-17.8-43.6-33.6-67-48.1-2.5-1.6-4.8-3.7-7.2-5.7.1-.4.3-.8.4-1.3 2 .3 4 .3 5.8 1 12.9 5 26.1 9.6 38.7 15.3 31.7 14.4 60.9 33.3 88.4 54.8 24.2 19.1 46.6 40.2 67.1 63.2 22.4 24.9 42.1 51.8 58.6 81 12.6 22.2 23.6 45.2 31.4 69.5.6 2 .8 4 1.4 6.1-.3.3-.7.6-1.2.8zm-328.1 15.1c7.5 7.6 14.9 15.2 22.5 22.8-3.3 3.4-6.9 7.1-10.5 10.9-16.9 17.1-33.8 34.3-50.6 51.5-20.4 21-40.8 41.8-60.9 62.9-17.1 18.1-34.1 36.5-50.8 54.9-7.4 8.1-9.1 7.8-15.4 1-5.9-6.5-12.6-12.6-18.8-18.8-3-3-2.8-5.5.4-8.6 4.1-4 8.4-7.6 12.5-11.5 16.7-15.6 33.6-31.2 50.1-46.9 23.2-22.2 46.4-44.6 69.4-67.1 16.7-16.3 33.4-32.9 50-49.3.7-.7 1.4-1.2 2.1-1.8zM396 181.2c11.6 11.8 22.8 23.1 34.1 34.6-42.1 35.1-84.7 69.7-121.6 110.5-7.6-7.8-15-15.2-22.8-23.1 40.2-36.9 75-79.5 110.3-122z"></path><path d="M458.2 562.1c-5.9-5.9-11.9-12-17.8-18 15.3-15.2 30.7-30.6 46.2-45.9 5.7 5.8 11.8 11.9 17.7 18.1-15.3 15.1-30.7 30.5-46.1 45.8zm33.5-400c-14-14.2-28.2-28.2-42.6-42.8 2.5-2.5 6.2-6.7 10.2-10.2 2.3-2.1 4.7-1.7 7.4.8l22.1 22.1c3.8 3.8 7.5 7.6 11.3 11.3 4.7 4.5 4.8 6.5.1 11.3-2.5 2.5-5.2 5.1-7.9 7.5-.4.4-.8.7-1.3 1 .2-.2.5-.6.7-1z"></path></svg></g><circle cx="0" cy="0" r="30" fill="none" stroke="#0a0a0a" stroke-width="1"></circle></g>
</svg>
