<?xml version="1.0"?>
<svg version="1.1" viewBox="-30 -30 60 60" xmlns="http://www.w3.org/2000/svg" xmlns:xhtml="http://www.w3.org/1999/xhtml">
<g><clipPath id="dcf016ad-d86c-47d5-89ce-ecd33d12e964"><circle cx="0" cy="0" r="30"></circle></clipPath><g clip-path="url(#dcf016ad-d86c-47d5-89ce-ecd33d12e964)"><g transform="rotate(0)"><circle cx="0" cy="0" r="30" fill="#0a0a0a" stroke="none"></circle></g><g transform="rotate(0)"><polyline points="1.5,0,1.5178187936321597,0.026493625592118233,1.535164249384033,0.05360911688471174,1.552020091438821,0.08133792639497114,1.5683701998184956,0.1096711280205138,1.5841986186403982,0.1385994199044634,1.599489564320794,0.16811312747336707,1.614227433721864,0.1982022066469616,1.6283968122386383,0.22885624721873163,1.6419824818223867,0.2600644764061318,1.6549694289370154,0.2918157625692764,1.6673428524450296,0.3240986190968302,1.6790881714196508,0.35690120845776563,1.6901910328797083,0.3902113464175854,1.700637319443939,0.42401650641753763,1.7104131569013679,0.45830382411528864,1.719504921694465,0.4930601020854481,1.7278992483118105,0.5282718146782769,1.7355830365870257,0.5639251130348415,1.742543458900761,0.6000058302568168,1.7487679672825756,0.6364994867290694,1.754244300409567,0.6733912955930964,1.7589604904986524,0.7106661683693267,1.7629048700894412,0.7483087207262326,1.7660660787146758,0.7863032783941368,1.768433069455263,0.8246338832215397,1.7699951153769498,0.8632842993717301,1.7707418158457529,0.9022380196573883,1.770663102719292,0.9414782720108253,1.7697492464112103,0.9809880260874507,1.7679908618259317,1.0207499999999998,1.7653789141610352,1.060746667181002,1.7619047245745905,1.1009602633709064,1.757559975714828,1.1413727937292415,1.7523367171095914,1.1819660400661176,1.7462273704130582,1.2227215681913424,1.739224734507262,1.2636207353783586,1.7313219904560235,1.3046446979401676,1.7225127063089334,1.3457744189143561,1.7127908417530908,1.386990675854289,1.7021507526103692,1.4282740687234903,1.6905871951780205,1.4696050278901855,1.6780953304105037,1.5109638222189377,1.664670727940475,1.5523305672562557,1.6503093699369336,1.5936852335070315,1.6350076547985943,1.6350076547985943,1.6187624006806014,1.6762775367291585,1.6015708488527682,1.717474465197379,1.583430666887602,1.7585779150097052,1.564339951676415,1.7995672585621885,1.5442972322719106,1.8404217745933447,1.5233014725556842,1.8811206570046706,1.5013520737291504,1.9216430237453523,1.4784488766264796,1.9619679257576816,1.4545921638481831,2.0020743559796825,1.42978266171407,2.0419412584013843,1.404021542034351,2.0815475371711987,1.3773104236977514,2.1208720657487854,1.3496513740755496,2.1598936961008013,1.3210469102405435,2.1985912679358823,1.2915,2.2369436179752045,1.261014062741735,2.274929589254925,1.2295929700925265,2.312528040456815,1.197241046388146,2.3497178552633544,1.1639630689543583,2.386477951733548,1.1297642681983247,2.422787291695724,1.094650327509901,2.4586248901535317,1.0586273829724142,2.493969824701369,1.0217020228825582,2.528801244945456,0.9838812870791449,2.5630983819267423,0.9451726660804857,2.5968405575418574,0.9055841000303043,2.630007193958279,0.8651239774521028,2.6625778230199115,0.8238011338120191,2.6945320956392464,0.7816248498902645,2.7258497911722905,0.7386048499613185,2.7565108267724283,0.6947512997831261,2.786495266719406,0.650074804395618,2.815783331719612,0.6045864057289626,2.844355408173833,0.5582975800220016,2.872192057408692,0.5112202350514431,2.8992740248679403,0.46336670717241596,2.9255822492598273,0.4147497581710917,2.9510978716567533,0.36538257193014295,2.9758022445434293,0.3152787509078963,2.9996769408097856,0.26445231243208167,3.0227037626848787,0.21291768480919412,3.044864750608061,0.16068970325052298,3.066142192033705,0.10778360561600432,3.086518630165775,0.05421502797709894,3.1059768726185712,1.9132044619679522e-16,3.1244999999999994,-0.05484505984948519,3.1420713744137174,-0.1103033492779238,3.1586746478765537,-0.16635768731163272,3.1742937706476257,-0.22299051961784544,3.18891299946558,-0.28018392399803427,3.2025169056904383,-0.33791961605166965,3.215090383346554,-0.39617895500862327,3.2266186570631916,-0.4549429497283576,3.237087289909319,-0.5141922648639874,3.2464821911191875,-0.5739072271892046,3.254789623705347,-0.6340678320860271,3.261996211955759,-0.694653750191215,3.268088948811718,-0.7556443341991934,3.2730552031233224,-0.817018625819198,3.276882726779295,-0.8787553628843339,3.279559661707959,-0.9408329866101628,3.2810745467462636,-1.0032296490003623,3.2814163243737617,-1.0659232203969433,3.280574347308503,-1.128891297172467,3.2785383849618506,-1.1921112095616182,3.2752986297492837,-1.2555600296294367,3.270845703254271,-1.3192145793734757,3.265170662242398,-1.3830514389570572,3.25826500452293,-1.4470469550707739,3.250120674655081,-1.5111772494193054,3.2407300694963013,-1.5754182273305866,3.2300860435899454,-1.6397455864842818,3.2181819143897563,-1.7041348257565039,3.205011467318619,-1.768561254177625,3.1905689606591587,-1.8329999999999989,3.174849130273752,-1.8974260198723851,3.1578471941516164,-1.9618141081177474,3.1395588567807047,-2.0261389061111528,3.1199803133421686,-2.090374911754345,3.0991082537252566,-2.154496489043616,3.076939866360526,-2.218477877727481,3.053472841869364,-2.28229320305067,3.02870537652785,-2.3459164855808883,3.0026361755430533,-2.4093216511147495,2.9752644561399406,-2.472482540659273,2.9465899504571484,-2.5353729204852655,2.9166129082499124,-2.5979664922489025,2.8853340993985306,-2.660236903177784,2.8527548162208176,-2.7221577563176713,2.818876875587073,-2.78370262083614,2.7837026208361406,-2.844845042379298,2.747234923491242,-2.905558553477721,2.7094771847742964,-2.965816683997732,2.6704333369175672,-3.0255929716340817,2.630107844271494,-3.0848609724401235,2.588505704207694,-3.1435942713915193,2.545632447816146,-3.2017664929794716,2.5014941403956823,-3.259351311829509,2.456097381736981,-3.316322463341784,2.409449306197306,-3.37265375434885,2.3615575825663453,-3.428319073786863,2.3124304137225793,-3.483292403376127,2.2620765360796615,-3.5375478283069146,2.2105052188223904,-3.5910595479264633,2.1577262629319267,-3.6438018864230255,2.1037499999999993,-3.6957493035028737,2.04858729083191,-3.7468764050561405,1.992249523838207,-3.797157953807357,1.9347486132150395,-3.8465688799465454,1.8760969969132142,-3.895084291736761,1.8163076343960909,-3.942679486093936,1.7553940041865392,-3.989329959134858,1.6933701012032407,-4.035011416689201,1.6302504338867083,-4.079699784771446,1.5660500211154844,-4.123371220008566,1.500784388913035,-4.166002120019369,1.4344695669459566,-4.207569133741388,1.367122084814205,-4.248049171701198,1.2987589681341063,-4.287419416224089,1.2293977344149818,-4.325657331579019,1.1590563887303644,-4.362740674054763,1.087753419184786,-4.398647501963226,1.0155077921772258,-4.4333561855659,0.9423389474624121,-4.466845416919422,0.868266793011199,-4.499094219636271,0.7933116996713708,-4.530081958556628,0.7174944956302712,-4.559788349327434,0.6408364606807186,-4.588193467884756,0.5633593202918052,-4.615277759835545,0.4850852394862006,-4.641022049734919,0.40603681652565465,-4.665407550255145,0.3262370764065262,-4.68841587124251,0.24570946416718467,-4.710029028658296,0.16447783800921553,-4.7302294534001295,0.08256646223446608,-4.748999999999999,5.815847649150778e-16,-4.766323955195275,-0.08319649410685083,-4.782185046369075,-0.16699758167113704,-4.796567449856431,-0.25137744822829433,-4.809455799112664,-0.33630991121517456,-4.820835192740479,-0.4217684280916037,-4.830691202372314,-0.5077261046299711,-4.839009880404518,-0.5941557033702869,-4.84577776758,-0.6810296522379846,-4.850981900415989,-0.7683200533218412,-4.854609818473678,-0.8559986918091336,-4.856649571466489,-0.9440370450752238,-4.857089726203785,-1.0324062919246644,-4.855919373366937,-1.1210773219808026,-4.853128134114651,-1.210020745220857,-4.8487061665145506,-1.2992069016533763,-4.842644171798062,-1.3886058711348772,-4.8349334004357125,-1.4781874833224466,-4.825565658029979,-1.5679213277590471,-4.81453331102294,-1.657776764088119,-4.8018292922159915,-1.7477229323941665,-4.787447106098974,-1.8377287636657775,-4.771380833986144,-1.9277629903776243,-4.753625138956419,-2.0177941571878817,-4.734175270595487,-2.10779063174741,-4.713027069537338,-2.197720615617071,-4.690176971802943,-2.2875521552894407,-4.6656220129337616,-2.377253153311173,-4.639359831917945,-2.4667913795021845,-4.611388674907107,-2.5561344822677987,-4.581707398721572,-2.6452500000000003,-4.550315474142198,-2.734105372563768,-4.5172129889868184,-2.822667952864588,-4.4824006509695105,-2.9109050184930645,-4.445879790340922,-2.998783783442573,-4.407652362307993,-3.086271409895889,-4.367720949231466,-3.1733350200766033,-4.326088762599679,-3.259941708161171,-4.282759644777174,-3.3460585522474173,-4.237738070526788,-3.431652626375212,-4.191029148303928,-3.516691012595056,-4.142638621321805,-3.601140813080344,-4.092572868386557,-3.684969162278868,-4.040838904501159,-3.768143239099312,-3.98744438123721,-3.8506302791283127,-3.932397586873688,-3.9323975868736865,-3.875707446301884,-4.013412548029434,-3.817383520695828,-4.093642641758062,-3.7574360069475334,-4.173055452985758,-3.695875736866575,-4.2516186847059725,-3.6327141761434776,-4.329300170286904,-3.5679634230766033,-4.40606788577837,-3.5016362070622122,-4.481889962213592,-3.433745886847484,-4.5567346979013355,-3.3643064485464285,-4.630570570703886,-3.29333250341862,-4.703366250296316,-3.2208392854108094,-4.775090610402527,-3.1468426484615732,-4.845712741003468,-3.0713590635692327,-4.915201960513029,-2.99440561562331,-4.983527827917044,-2.916000000000002,-5.050660154870845,-2.8361605189220827,-5.116569017750822,-2.754906077583885,-5.1812247696554685,-2.6722561800419338,-5.2445980523513605,-2.5882309248720725,-5.30665980815954,-2.50285100059386,-5.367381291777798,-2.4161376808631747,-5.426734082034342,-2.3281128194340646,-5.4846900935683465,-2.238798844890858,-5.541221588432947,-2.1482187551518273,-5.596301187616149,-2.056396111745587,-5.649901882475272,-1.9633550338616057,-5.701997046080459,-1.8691201921763076,-5.7525604444628655,-1.773716802456193,-5.801566247763147,-1.6771706189396929,-5.848989041275889,-1.5795079274994077,-5.894803836385611,-1.4807555385864464,-5.9389860813901185,-1.380940779958837,-5.98151167220684,-1.280091489195865,-6.022356962957967,-1.1782360060003993,-6.061498776430151,-1.0754031642912993,-6.098914414404603,-0.9716222840881269,-6.134581667853429,-0.8669231631903404,-6.168478826998115,-0.761336068653465,-6.2005846912260845,-0.6548917280645018,-6.230878578861306,-0.5476213206192236,-6.259340336784959,-0.4395564680038585,-6.28595034990223,-0.33072922508385005,-6.310689550451316,-0.22117207040243392,-6.333539427150815,-0.1109178964918334,-6.354482034181686,-1.170792956154848e-15,-6.373499999999999,0.11154792836421697,-6.390576535976831,0.22369181406435218,-6.405695444861595,0.3363972091449586,-6.418841129065235,0.44962930281250785,-6.429998598759748,0.5633529321851736,-6.439153479790519,0.677532593208273,-6.446292021398073,0.7921324517319491,-6.451401103745846,0.9071163547476105,-6.4544682452506805,1.0224478417796954,-6.455481609712789,1.1380901564290589,-6.454430013242011,1.2540062580644173,-6.45130293097722,1.3701588336581105,-6.446090503595852,1.4865103097624108,-6.438783543610552,1.603022864622516,-6.4293735414500075,1.7196584404224255,-6.41785267132114,1.8363787556595947,-6.40421379684986,1.953145317644534,-6.388450476497662,2.0699194351211463,-6.3705569687514565,2.1866622310037673,-6.350528237084031,2.303334655226712,-6.3283599546827,2.419897497702112,-6.304048508943682,2.536311401381773,-6.2775910057298905,2.652536875418706,-6.248985273389909,2.7685343084240515,-6.21822986653589,2.884263981814839,-6.185324069578375,2.999686083248298,-6.150267900015939,3.1147607201380683,-6.113062111477764,3.229447933247861,-6.073708196517273,3.34370771035797,-6.032208389155056,3.4575000000000005,-5.988565667169392,3.5707847252551503,-5.942783754132779,3.6835217976114287,-5.894867121192933,3.795671130874972,-5.844820988596853,3.9071926551307974,-5.792651326956589,4.018046330748165,-5.738364858255459,4.128192162425725,-5.6819690565935685,4.237590213271672,-5.623472148671506,4.3462006189139535,-5.562883114011291,4.453983601635672,-5.500211684913637,4.560899484530839,-5.435468346150708,4.666908705675421,-5.368664334393701,4.77197183230883,-5.299811637374586,4.876049575020837,-5.228922992781505,4.979102801938949,-5.156011886887353,5.081092552911231,-5.081092552911234,5.181980053679572,-5.004179969112526,5.281726730038407,-4.925289856617352,5.380294221973785,-4.844438676977496,5.477644397777866,-4.761643629461653,5.5737393681336815,-4.676922648079262,5.668541500165215,-4.590294398337069,5.762013431447708,-4.50177827372875,5.854118083973162,-4.411394391957986,5.944818678065987,-4.319163590895552,6.034078746243783,-4.225107424270896,6.1218621470181915,-4.129248157099039,6.2081330786308095,-4.0316087608434845,6.292856092719139,-3.9322129083160795,6.375996107907625,-3.831084968314694,6.457518423318664,-3.7282500000000027,6.53738873199877,-3.623733747012257,6.615573134254795,-3.517562631329565,6.692038150895364,-3.409763746868828,6.766750736372539,-3.3003648528309237,6.839678291818835,-3.189394366791627,6.910788677974747,-3.0768813575398126,6.980050228001833,-2.9628555376648964,7.047431760176692,-2.8473472558950075,7.112902590460853,-2.730387489188169,7.1764325449419815,-2.612007834578131,7.237991972141547,-2.4922405007772634,7.297551755184341,-2.3711182995384106,7.3550833238251005,-2.2486746367782726,7.4105586663276855,-2.1249435034644146,7.463950341192202,-1.9999594662684526,7.515231488725474,-1.8737576579881072,7.564375842450454,-1.7463737677404467,7.611357740350034,-1.6178440309293165,7.656152135940881,-1.488205218989591,7.698734609172934,-1.357494628911235,7.73908137715023,-1.2257500725459824,7.777169304668795,-1.0930098656999732,7.812975914567411,-0.959312817015134,7.846479397887064,-0.824698216642805,7.877658623835,-0.689205824712795,7.9064931495493145,-0.5528758596011839,7.93296322966012,-0.4157489860005135,7.957049825643337,-0.2778663027956413,7.978734614963243,-0.13926933074920803,7.997999999999998,-1.958945019916106e-15,8.01482911675839,0.13989936262158295,8.029205843354116,0.2803860464575579,8.04111480827404,0.42141697006162043,8.050541398406834,0.5629486944098387,8.057471766840559,0.7049374362787504,8.061892840423834,0.8473390817865749,8.063792327087175,0.9901092000936111,8.063158722921361,1.1332030572572291,8.05998131900959,1.2765756302375497,8.054250208010345,1.4201816210489862,8.045956290487947,1.56397547105362,8.03509128098792,1.707911375391559,8.021647713854167,1.8519432975440187,8.005618948785362,1.9960249840241822,7.986999176127734,2.140109979191464,7.9657834219016594,2.28415164018431,7.941967552559614,2.428103151966619,7.915548279472933,2.5719175424832477,7.886523163145122,2.7155476979194173,7.8548906171494055,2.858946378059266,7.820649911788386,3.0020662317384508,7.783801177473636,3.144859812385922,7.744345407823401,3.287279593649523,7.702284462476297,3.429277985100682,7.657621069619414,3.5708073480126052,7.610358828228935,3.7118200112071538,7.560502210021763,3.8522682869649674,7.508056561116601,3.9921044869935396,7.4530281034030015,4.13128093844815,7.395423935617216,4.269749999999993,7.335252034123361,4.407464077946533,7.272521253399047,4.544375642358269,7.207241326224195,4.680437243256883,7.139422863572255,4.815601526819025,7.069077354202925,4.949821251600438,6.9962171639556665,5.083049304774852,6.9208555347433345,5.215238718382174,6.843006583245409,5.346342685580484,6.762685299300491,5.476314576896127,6.679907543997488,5.605107956466622,6.594690047465593,5.732676598270499,6.507050406362609,5.8589745023388,6.417007081061849,5.983955910942365,6.324579392537487,6.107575324749594,6.229787518948788,6.229787518948773,6.132652491923167,6.35054755932971,6.033196192538881,6.469810818318748,5.9314413470074685,6.587532990961808,5.827411522056732,6.703670110849759,5.721131120015044,6.8181785659804595,5.612625373597525,6.9310151145520695,5.501920340395282,7.042136900681826,5.389042897068489,7.151501470044988,5.274020733244681,7.259066785428085,5.1568823451231705,7.364791242191249,5.037657028787262,7.46863368363386,4.916374873225397,7.570553416258151,4.7930667530629165,7.670510224925255,4.667764321006078,7.768464387898206,4.540499999999997,7.864376691766489,4.4113069751024385,7.958208446246714,4.280219185075245,8.049921498854122,4.147271313695723,8.139478249439367,4.0124987807897865,8.226841664585532,3.875937732989395,8.311975291859872,3.7376250342164505,8.394843273915152,3.597598255895708,8.475410362435328,3.4558956668991576,8.553641931920437,3.312556223224503,8.62950399330556,3.167619557410687,8.702963207408686,3.0211259676929085,8.773986898202638,2.8731164069005137,8.842543065905819,2.723632471100358,8.90860039988705,2.572716387989131,8.972128291379484,2.420411005037498,9.033096845998793,2.266759777389776,9.091476896060827,2.1118067555220565,9.147240012694068,1.9555965726627595,9.200358517742101,1.7981744319787962,9.250805495451608,1.639586093531157,9.298554803941267,1.4798778610038388,9.343581086447031,1.3190965682095923,9.385859782339475,1.1572895653767976,9.425367137908738,0.9945047052211086,9.462080216912824,0.8307903288063748,9.495976910885037,0.6661952511985236,9.527035949196398,0.5007687469171773,9.555236908868926,0.33456053518885437,9.580560224135857,0.1676207650065686,9.6029871957448,2.946040956198851e-15,9.622499999999999,-0.16825079687895725,9.639081697539947,-0.337080278850769,9.652716241846637,-0.5064367309782822,9.663388487482846,-0.6762680860071609,9.671084198053919,-0.8465219403723128,9.6757900538906,-1.0171455703648764,9.677493659449594,-1.1880859484552726,9.676183550428501,-1.3592897597668532,9.671849200592042,-1.5307034186953952,9.664481028306392,-1.7022730856689132,9.654070402778675,-1.8739446840428169,9.640609649998678,-2.0456639171250237,9.624092058379984,-2.2173762853256265,9.60451188409778,-2.3890271034258426,9.581864356120716,-2.5605615179605072,9.556145680934325,-2.7319245247090245,9.527353046953458,-2.9030609862886956,9.495484628621567,-3.0739156498453486,9.46053959019441,-3.2444331648350584,9.422518089206216,-3.414558100891806,9.381421279616116,-3.5842349657747974,9.337251314633086,-3.7534082233900614,9.290011349217387,-3.922022311880354,9.239705542256887,-4.0900216617773255,9.1863390584167,-4.2573507142103635,9.129918069660455,-4.42395393916601,9.070449756441933,-4.589775853791862,9.007942308565767,-4.754761040739218,8.942404925715927,-4.918854166538324,8.873847817650951,-5.081999999999991,8.802282204065039,-5.244143430637915,8.727720314113943,-5.405229487105117,8.650175385605158,-5.5652033556387925,8.569661663851535,-5.724010398507259,8.486194400187916,-5.8815961724527055,8.399789850150398,-6.0379064471239685,8.310465271317772,-6.192887223492668,8.218238920815168,-6.34648475224701,8.123130052479535,-6.498645552156592,8.025158913687335,-6.649316428402396,7.924346741844275,-6.798444490865577,7.820715760537489,-6.945977172368765,7.714289175350636,-7.091862246863905,7.605091169342178,-7.236047847560235,7.493146898187627,-7.378482484986329,7.378482484986321,-7.5191150649798475,7.26112501473381,-7.6578949065990916,7.14110252846041,-7.794771759949832,7.018444017037433,-7.929695823921651,6.8931794146518115,-8.062617763827234,6.765339591950837,-8.193488728938911,6.634956348857993,-8.32226036991595,6.502062407061809,-8.44888485611681,6.366691402179,-8.57331489279019,6.228877875593798,-8.69550373813871,6.088657265975454,-8.81540522024952,5.946065900475498,-8.932973753885491,5.801140985607308,-9.048164357131373,5.65392059780975,-9.160932667888785,5.5044436736974625,-9.27123496021431,5.352749999999997,-9.379028160494661,5.198880203192615,-9.484269863453447,5.042875738820925,-9.586918347983374,4.8847788805226084,-9.686932592798527,4.7246327087486435,-9.784272291900914,4.562481099187154,-9.878897869855553,4.398368710893097,-9.970770496868813,4.232340974126542,-10.059852103664179,4.064444077903317,-10.14610539615026,3.894724957260852,-10.229493869875396,3.723231280243229,-10.309981824263726,3.550011434608569,-10.387534376627293,3.375114514262617,-10.462117475949,3.1985903054224436,-10.533697916431287,3.0204892725138293,-10.602243350805384,2.8408625438065433,-10.667722303396188,2.65976189679142,-10.730104182937682,2.477239743303666,-10.789359295134169,2.29334911439621,-10.84545885496234,2.1081436449679956,-10.898374998709597,1.9216775581510859,-10.94808079574383,1.7340056494617044,-10.994550260010158,1.5451832707192286,-11.037758361250063,1.3552663137384713,-11.077681035938584,1.1643111937994222,-11.11429519793508,0.9723748328999382,-11.14757874884348,0.7795146427958664,-11.17751058807773,0.5857885078338412,-11.204070622628379,0.3912547675820678,-11.227239776526357,0.1959721992639266,-11.246999999999998,4.1320807650030834e-15,-11.263334278321505,-0.19660223113632425,-11.276226640339157,-0.39377451124398,-11.28566216669165,-0.5914564918949438,-11.291626997701,-0.78958747760451,-11.294108340940639,-0.9881064444658821,-11.293094478475352,-1.1869520589431877,-11.28857477376983,-1.386062696816924,-11.280539678262722,-1.5853764622764872,-11.268980737603194,-1.7848312071532475,-11.253890597547008,-1.9843645502888398,-11.235263009509413,-2.1839138970319936,-11.213092835772054,-2.3834164588584548,-11.187376054341394,-2.582809273107234,-11.158109763456075,-2.782029222827503,-11.12529218574091,-2.9810130567295703,-11.088922672005257,-3.1796974092337393,-11.049001704683514,-3.378018820610799,-11.005530900915886,-3.575913757207449,-10.958513015267298,-3.773318631750726,-10.907951942082827,-3.9701698237243535,-10.85385271747779,-4.166403699811137,-10.796221520961133,-4.361956634394208,-10.735065676690377,-4.556765030111179,-10.670393654357111,-4.750765338453943,-10.602215069701494,-4.9438940804081275,-10.53054068465493,-5.136087867124865,-10.455382407109779,-5.327283420618736,-10.376753290315254,-5.517417594484896,-10.294667531898899,-5.706427394628498,-10.209140472512848,-5.894250000000007,-10.120188594104524,-6.080822783329296,-10.02782951781127,-6.266083331851959,-9.932082001478877,-6.4499694680207025,-9.832965936803582,-6.632419270195485,-9.730502346097866,-6.813371093304977,-9.624713378679877,-6.99276358947309,-9.515622306886982,-7.170535728603183,-9.403253521713657,-7.346626818913538,-9.287632528074186,-7.520976527417053,-9.168785939691055,-7.693524900338177,-9.046741473609382,-7.864212383460655,-8.921527944338676,-8.032979842398714,-8.793175257622536,-8.199768582785419,-8.661714403837767,-8.364520370370876,-8.527177451023867,-8.527177451023876,-8.389597537544452,-8.687682570629985,-8.249008864381938,-8.845978994879433,-8.105446687067385,-9.002010528937873,-7.95894730724689,-9.155721536993543,-7.809548063886605,-9.307056961674025,-7.657287324118455,-9.45596234332576,-7.50220447372834,-9.60238383915007,-7.344339907289504,-9.746268242188636,-7.183735017942922,-9.88756300015229,-7.020432186827729,-10.026216234086174,-6.854474772163727,-10.162176756865183,-6.685907097989238,-10.295394091512819,-6.51477444255661,-10.425818489337475,-6.341123026388845,-10.553400947879366,-6.164999999999997,-10.678093228662128,-5.986453431282771,-10.799847874742618,-5.805532292566605,-10.918618228052773,-5.622286447349502,-11.034358446527378,-5.436766636707502,-11.147023521011524,-5.24902446538492,-11.25656929194195,-5.059112387569737,-11.362952465795956,-4.867083692357368,-11.4661306313023,-4.672992488907468,-11.566062275407925,-4.476893691297194,-11.662706798994963,-4.278843003075779,-11.756024532342106,-4.078896901524223,-11.845976750324812,-3.87711262162472,-11.93252568734877,-3.6735481397445517,-12.015634552010946,-3.4682621570385646,-12.09526754148308,-3.26131408257559,-12.171389855611976,-3.0527640161930796,-12.243967710731544,-2.842672731085276,-12.312968353181295,-2.63110165612966,-12.378360072526235,-2.4181128579571727,-12.440112214473073,-2.2037690227710156,-12.49819519347793,-1.9881334379195397,-12.552580505040634,-1.7712699732288564,-12.603240737680837,-1.553243062100114,-12.650149584591393,-1.3341176823777274,-12.693281854964342,-1.1139593369935101,-12.732613484985121,-0.8928340343932007,-12.768121548490566,-0.6708082687505053,-12.799784267286535,-0.44794899997530413,-12.8275810211209,-0.22432363352131612,-12.851492357307917,-5.5170644463288036e-15,-12.871499999999997,0.22495366539369105,-12.887586859103061,0.4504687436371909,-12.89973703883168,0.6764762528116051,-12.907935845900454,0.9029068692018417,-12.912169797348085,1.1296909485594513,-12.912426627990682,1.3567585475214903,-12.908695297501112,1.584039445178584,-12.900965997111156,1.8114631647861126,-12.889230155933404,2.0389589956111,-12.873480446899995,2.2664560149087665,-12.853710792315338,2.4938831100212098,-12.82991636902014,2.7211690005919023,-12.802093613164121,2.9482422608888412,-12.77024022458501,3.1750313422291407,-12.734355170791435,3.401464595498594,-12.694438690547507,3.6274702937584533,-12.650492297057056,3.8529766549328848,-12.602518780745465,4.07791186456955,-12.550522211637364,4.302204098666376,-12.494507941328388,4.5257815465569005,-12.434482604549535,4.7485724338474755,-12.370454120322496,4.970505045398355,-12.302431692704879,5.1915077483420236,-12.230425811123858,5.4115090151306,-12.154448250297511,5.6304374466058915,-12.074512069742532,5.848221795083698,-11.990631612867938,6.064790987445649,-11.902822505653774,6.2800741482305735,-11.81110165491458,6.494000622718651,-11.715487246146859,6.706499999999988,-11.61599874096068,6.917502136020678,-11.512656874095105,7.126937176598799,-11.405483650017384,7.334735580402612,-11.294502339106222,7.540828141883713,-11.179737473419246,7.745146014157268,-11.061214842045322,7.947620731822211,-10.938961486041979,8.148184233713666,-10.813005692958823,8.346768885580088,-10.683376990947762,8.543307502677512,-10.550106142461036,8.737733372273958,-10.413225137537836,8.929980276055714,-10.272767186681293,9.119982512428695,-10.128766713326689,9.307674918706946,-9.98125934590288,9.492992893181498,-9.830281909487923,9.675872417061422,-9.675872417061415,9.856250076280121,-9.518070060355093,10.034063083159776,-9.356915200303469,10.209249297925883,-9.192449357097368,10.381747250065436,-9.024715199841971,10.551496159520804,-8.853756535822386,10.718435957712606,-8.679618299378918,10.882507308384174,-8.502346540394893,11.043651628260477,-8.321988412399989,11.201811107514391,-8.138592160292045,11.35692873003364,-7.952207107680008,11.50894829348086,-7.762883643851936,11.657814429140172,-7.570673210371132,11.80347262154359,-7.375628287303454,11.945869227869935,-7.177802379080252,12.084951497109948,-6.977249999999997,12.220667588990556,-6.774026659372968,12.352966592652098,-6.568188846312285,12.481798545071369,-6.359794014176418,12.60711444922452,-6.14890056466636,12.728866291982987,-5.935567831582687,12.84700706173636,-5.719856064246376,12.961490765735801,-5.501826410588172,13.072272447151677,-5.2815408999115965,13.179308201839667,-5.059062425333536,13.282555194808804,-4.834454725908352,13.38197167638591,-4.607782368439852,13.477516998070247,-4.379110728986824,13.569151628072897,-4.14850597406664,13.656837166534878,-3.916035041563282,13.740536360418565,-3.6817656213446357,13.820213118066894,-3.445766135594764,13.895832523424911,-3.2081057188668867,13.967360849918302,-2.9688541978631107,14.034765573983798,-2.7280820709463938,14.098015388246262,-2.485860487390945,14.15708021433743,-2.2422612263774204,14.211931215351521,-1.9973566757384593,14.262540807932721,-1.7512198104617773,14.308882673990102,-1.503924170956033,14.350931772035162,-1.2555438410870565,14.388664348137652,-1.00615342599051,14.42205794649534,-0.7558280296671696,14.45109141961342,-0.5046432323685208,14.475744938089473,-0.25267506777866017,14.495999999999997,-7.100992000176011e-15,14.511839439884618,0.2533050996510319,14.5232474373242,0.5071629760304015,14.530209525109258,0.7614960137282663,14.53271259699517,1.0162262607991475,14.53074491504072,1.2712754526530203,14.52429611652687,1.5265650360997927,14.513357220452482,1.7820161935402694,14.497920633604085,2.0375498672957377,14.477980156196796,2.2930867840689517,14.453530987083667,2.5485474795287186,14.424569728530868,2.803852323010406,14.39109439055619,3.0589215423253497,14.353104394828629,3.313675248670423,14.310600578126785,3.568033461630823,14.263585195354102,3.821916134267637,14.21206192210886,4.075243178283142,14.156035856807415,4.327934489254971,14.095513522358843,4.5799099719316505,14.030502867389478,4.831089565582027,13.961013267016243,5.081393269389447,13.8870555231672,5.330741167883816,13.808641864448616,5.579053456402525,13.725785945557357,5.826250466572826,13.638502846237927,6.072252691807212,13.546809069783558,6.3169808128036795,13.450722541080923,6.560355723042575,13.35026260419779,6.802298554272519,13.245450019513896,7.042730701976275,13.136306960394796,7.281573850808845,13.022857009408503,7.518749999999985,12.9051251540857,7.754181488712037,12.783137782223498,7.987791021345641,12.656922676733563,8.219501692784522,12.52650901003491,8.44923701357194,12.391927337992803,8.676920935009521,12.253209593404081,8.902477874171332,12.110389079030638,9.125832738824188,11.9635004601819,9.346910952246597,11.812579756847885,9.565638477937974,11.6576643353846,9.78194184420976,11.498792899753168,9.99574816865081,11.336005482314734,10.206985182458638,11.169343434183206,10.415581254628494,10.998849415138045,10.621465415992155,10.82456738309898,10.82456738309895,10.646542583165756,11.024817581930241,10.464821536224996,11.222147171440115,10.279452027127334,11.416488066913907,10.09048309243705,11.607772963137327,9.89796500775817,11.795935357367584,9.701949274639379,11.980909572099455,9.502488607061405,12.162630777618308,9.299636917510512,12.341035014332286,9.093449302641147,12.516059214876508,8.883982028532262,12.687641225981121,8.671292515540186,12.85571983009651,8.455439322753067,13.020234766767498,8.236482132050273,13.181126753749714,8.014481731771614,13.338337507860526,7.789500000000021,13.491809765557754,7.561599887463119,13.641487303238517,7.330845400057967,13.787314957251425,7.097301581003315,13.92923864361537,6.861034492625218,14.067205377437515,6.6221111977804545,14.201163292024026,6.3805997409230155,14.331061657676763,6.136569128819021,14.456850900169279,5.890089310915773,14.578482618895414,5.641231159369852,14.69590960468438,5.390066448740878,14.80908585727552,5.13666783535553,14.917966602446993,4.8811088363489,15.02250830879173,4.623463808388703,15.122668704134854,4.363807926088,15.218406791586675,4.1022171601137085,15.309682865225149,3.8387682549964,15.396458525402256,3.573538706648497,15.478696693668525,3.3066067395965892,15.556361627310363,3.0380512839355935,15.629418933494527,2.7679519520108746,15.697835583014594,2.496389014835278,15.761579923634232,2.223443378248113,15.820621693022197,1.9491965588234401,15.874932031274048,1.6737306595343102,15.924483493015863,1.3971283451806542,15.9692500590852,1.1194728175878703,16.009207147784732,0.8408477905838058,16.04433162570415,0.561337464761709,16.07460181810594,0.28102650203605584,16.09999751887103,3.751962385609645e-14,16.1205,-0.281656533908424,16.136092020666172,-0.5638572084236119,16.14675783581672,-0.8465157746448986,16.15248320431807,-1.1295456523965044,16.15325539664225,-1.412859956746589,16.149063202090762,-1.6963715246780664,16.13989693555264,-1.9799929419019027,16.12574844379381,-2.263636569805362,16.106611111274766,-2.5472145725268325,16.082479865493596,-2.830638944148619,16.053351181852,-3.1138215359995733,16.019223088041603,-3.396674084058826,15.980095167948253,-3.679108236452055,15.935968565072237,-3.9610355810324545,15.886845985462148,-4.242367673036708,15.832731700160688,-4.52301606280788,15.773631547160651,-4.802892323577029,15.709552932869375,-5.081908079293723,15.64050483308033,-5.359975032497677,15.566497793450566,-5.637004992221994,15.487543929482952,-5.912909901920155,15.403656926011907,-6.187601867406674,15.314852036192363,-6.460993184803648,15.221146079990847,-6.732996368483874,15.122557442178321,-7.0035241790014195,15.019106069824609,-7.272489651001429,14.91081346929392,-7.539806121099437,14.79770270274178,-7.805387255721929,14.679798384113237,-8.069147078898993,14.55712667464276,-8.331000000000008,14.429715277856312,-8.590860841403442,14.297593434076271,-8.848644866092455,14.160791914429629,-9.104267805166458,14.01934301436089,-9.357645885260167,13.873280546650578,-9.608695855861793,13.72263983394027,-9.857335016520453,13.567457700766186,-10.10348124393469,13.407772465102466,-10.347053018913128,13.24362392941602,-10.587969453198435,13.075053371234736,-10.826150316145519,12.9021035332314,-11.061516061245888,12.724818612825063,-11.293987852488623,12.543244251302745,-11.52348759055,12.357427522463567,-11.749937938802816,12.167416920788163,-11.973262349136514,11.973262349136508,-12.193385087580397,11.775015105976378,-12.410231259720437,11.57272787214655,-12.623726835901955,11.36645469715728,-12.83379867620922,11.15625098503213,-13.040374555214342,10.942173479693977,-13.243383186486303,10.724280249899843,-13.442754246852425,10.502630673727937,-13.63841840040411,10.277285422621016,-13.830307322238594,10.048306444990294,-14.018353721928587,9.815756949384538,-14.202491366712191,9.579701387228392,-14.382655104394853,9.340205435134958,-14.558780885955812,9.097335976797142,-14.730805787851123,8.851161084462973,-14.898668034005588,8.60175,-15.06230701748645,8.34917311555332,-15.221663321850734,8.093501953803674,-15.376678742159388,7.8348091478301845,-15.527296305650509,7.573168420584076,-15.673460292065048,7.308654563978249,-15.81511625361718,7.041343417599627,-15.952211034602767,6.771311847049848,-16.084692790639156,6.498637721919924,-16.212511007529073,6.223399893406221,-16.335616519742228,5.9456781715734275,-16.45396152850809,5.665553302271154,-16.5674996195132,5.383106943711031,-16.676185780196796,5.098421642710818,-16.779976416638483,4.811580810612687,-16.87882937003175,4.522668698882728,-16.972703932737605,4.23177037439809,-17.061560863912142,3.938971694430077,-17.14536240470244,3.6443592813300123,-17.224072293005257,3.348020496924793,-17.297655777782918,3.0500434166308352,-17.366079632931037,2.750516803293106,-17.429312170692878,2.4495300807577416,-17.48732325461537,2.147173307185134,-17.54008431204162,1.8435371481126448,-17.58756834613524,1.5387128492742268,-17.62974994743182,1.2327922091851742,-17.66660530491295,0.9258675515004988,-17.69811221659846,0.6180316971549231,-17.72425009965259,0.30937793629339455,-17.744999999999997,1.0865678725434891e-14,-17.76034460144773,-0.3100079681657587,-17.770268234309242,-0.6205514408168536,-17.774756883526873,-0.931535535561588,-17.773798196289338,-1.242865043993804,-17.767381489140806,-1.5544444608401262,-17.75549775457839,-1.866178013256397,-17.73813966713514,-2.1779696902635624,-17.71530158894545,-2.4897232723149556,-17.686979574790396,-2.8013423609846866,-17.653171376620335,-3.1127304087685452,-17.61387644755233,-3.4237907489887984,-17.569095945340326,-3.7344266257922443,-17.518832735315854,-4.044541224233662,-17.4630913927975,-4.354037700434143,-17.401878204967282,-4.662819211805721,-17.33520117221246,-4.970788947332564,-17.263070008931326,-5.277850157899112,-17.185496143801807,-5.5839061866558195,-17.102492719511655,-5.888860499413327,-17.01407459194966,-6.19261671505454,-16.920258328856598,-6.4950786359565225,-16.82106220793611,-6.796150278410821,-16.71650621442434,-7.095735903034472,-16.606612038118712,-7.3937400451605395,-16.491403069865633,-7.690067545199211,-16.37090439750692,-7.984623578960284,-16.245142801285798,-8.277313687926299,-16.11414674871255,-8.568043809467635,-15.977946388890695,-8.856720306989192,-15.836573546304146,-9.143249999999979,-15.690061714066834,-9.42754019409485,-15.538446046635727,-9.709498710839323,-15.381763351988248,-9.98903391754834,-15.22005208326626,-10.266054756948366,-15.053352329887725,-10.540470776714093,-14.881705808128286,-10.812192158869573,-14.705155851174313,-11.081129749045164,-14.523747398650162,-11.347195085579633,-14.337526985621585,-11.610300428458892,-14.14654273107818,-11.8703587880813,-13.95084432589698,-12.12728395384094,-13.75048302029077,-12.380990522518585,-13.54551161074391,-12.631393926471526,-13.335984426438348,-12.878410461613411,-13.1219573151741,-13.121957315174013,-12.90348762878702,-13.361952593230532,-12.680634208068081,-13.598315348000778,-12.453457367187243,-13.830965604889979,-12.222018877627214,-14.059824389281113,-11.986381951629763,-14.284813753061123,-11.74661122516028,-14.505856800873168,-11.502772740394473,-14.722877716086545,-11.254933927731523,-14.935801786475936,-11.00316358733939,-15.144555429600713,-10.747531870236813,-15.349066217876056,-10.488110258916647,-15.549262903327836,-10.22497154751684,-15.74507544202221,-9.958189821543957,-15.936435018161944,-9.687840437154383,-16.123274067841688,-9.414000000000026,-16.30552630245339,-9.136746343643468,-16.483126731734412,-8.85615850754933,-16.65601168645008,-8.572316714657108,-16.824118840703374,-8.285302348542904,-16.987387233863522,-7.995197930175989,-17.1457572921061,-7.702087094276296,-17.29917084955757,-7.406054565280706,-17.44757116903624,-7.1071861329240456,-17.590902962382916,-6.805568627442563,-17.729112410373773,-6.50128989440601,-17.862147182208922,-6.194438769186806,-17.98995645456918,-5.885105051073134,-18.112490930234674,-5.573379477032908,-18.229702856258747,-5.259353695137467,-18.341546041690265,-4.943120237651774,-18.44797587483834,-4.624772493799755,-18.548949340072962,-4.304404682211752,-18.644425034155745,-3.982111823063463,-18.7343631820945,-3.657989709913993,-18.818725652515987,-3.3321348812507683,-18.89747597255125,-3.0046445917509614,-18.970579342227836,-2.6756167832673703,-19.03800264836356,-2.345150055546733,-19.099714477956706,-2.0133436366909168,-19.155685131067383,-1.6802973533677996,-19.20588663318528,-1.3461116007824725,-19.250292747078905,-1.0108873124171294,-19.288878984121755,-0.6747259295481375,-19.321622615090984,-0.3377293705507963,-19.348502680434144,2.1360705903916583e-14,-19.369499999999995,0.33835940242315626,-19.384597182229292,0.6772456732100319,-19.393778632801762,1.016555296478283,-19.397030562735672,1.3561844355911667,-19.39434099593642,1.696028964933726,-19.38569977619084,2.0359845018346645,-19.371098573604154,2.375946438625256,-19.350530890476463,2.7158099748246114,-19.323992066616125,3.0554701494425065,-19.291479284087202,3.3948218733884366,-19.252991571388673,3.7337599619779933,-19.20852980706306,4.072179167525691,-19.158096722732395,4.409974212015236,-19.10169690555948,4.747039819835801,-19.039336800132855,5.083270750574764,-18.971024709773875,5.418561831857276,-18.896770797264264,5.75280799222116,-18.816587084993287,6.0859042940179515,-18.730487454523274,6.417745966328944,-18.638487645572763,6.748228437887052,-18.54060525441638,7.077247369992833,-18.436859731701315,7.404698689414939,-18.32727237967987,7.730478621265326,-18.21186634885781,8.054483721837146,-18.090666634059133,8.376610911396947,-17.963700069906686,8.69675750691917,-17.8309953257199,9.014821254753222,-17.692582899829787,9.330700363213284,-17.54849511331189,9.644293535079395,-17.398766103138627,9.955500000000008,-17.24343181475195,10.264219546786205,-17.082529994057435,10.570352555586133,-16.91610017884186,10.87380002993028,-16.74418368961557,11.174463628636621,-16.56682361988191,11.472245697566334,-16.38406482583521,11.767049301218725,-16.19595391549037,12.058778254155692,-16.00253923724612,12.347337152246187,-15.80387086788426,12.632631403719323,-15.600000600008457,12.914567260017108,-15.390981928924942,13.193051846436042,-15.176870038968852,13.467993192548525,-14.957721789278823,13.739300262393028,-14.733595699024281,14.006882984424072,-14.504551932088463,14.27065228121158,-14.270652281211627,14.530520098880645,-14.03196015159769,14.78639943628114,-13.788540543989583,15.038204373877981,-13.540460037217235,15.28585010235298,-13.287786770222318,15.529252950907921,-13.03059042356552,15.768330415259998,-12.768942200420769,16.00300118532064,-12.502914807061032,16.23318517254778,-12.232582432841996,16.458803536962794,-11.958020729688542,16.6797787138235,-11.679306791089116,16.89603443994352,-11.396519130604847,17.107495779649533,-11.109737659898784,17.314089150368073,-10.819043666290769,17.515742347832283,-10.524519789845737,17.71238457090123,-10.22625,17.903946445982342,-9.924319571733674,18.090360051049423,-9.618815061294978,18.27155893924739,-9.309824281483973,18.4474781620765,-8.997436276501793,18.61805429214712,-8.68174129637379,18.78322544549799,-8.362830770952902,18.94293130346974,-8.040797283511502,19.097113134126648,-7.715734543928231,19.24571381321849,-7.387737361478872,19.38867784467564,-7.056901617238528,19.52595138063026,-6.723324236102493,19.65748224095614,-6.3871031584352735,19.783219932320705,-6.048337311354962,19.90311566674207,-5.7071265796621535,20.01712237964492,-5.363571776420857,20.125194747408305,-5.017774613201453,20.227289204399366,-4.66983766999333,20.32336395948656,-4.319864364796951,20.41337901202671,-3.967958922903229,20.49729616731959,-3.614226345870665,20.575079051524632,-3.258772380208854,20.646693126034233,-2.901703485777036,20.71210570129803,-2.5431268039084305,20.77128595009314,-2.183150125269257,20.824204920235324,-1.8218818574613351,20.87083554672599,-1.4594309923798394,20.911152663330558,-1.0959070733338288,20.9451330135835,-0.7314201619413148,20.972755261215703,-0.36608080480812966,20.993999999999996,-1.5426140940779717e-14,21.008849763010844,0.3667108366805593,21.017289031294283,0.7339399056032792,21.019304241944482,1.1015750573949088,21.014883795583504,1.46950382718846,21.00401806324088,1.8376134690273314,20.986699392629912,2.2057909904130004,20.962922113817793,2.57392318698688,20.932682544286802,2.9418966773342725,20.895978993383995,3.309597937900395,20.852811766157,3.676913338008396,20.803183166573795,4.043729174967153,20.747097500124454,4.409931709259174,20.68456107580308,4.7754071997968754,20.615582207468222,5.140041939237424,20.540171214580475,5.503722289343769,20.458340422316052,5.866334716382021,20.37010416105523,6.227765826543276,20.27547876524476,6.587902401380014,20.17448257163384,6.946631433244625,20.06713591688308,7.3038401607196315,19.953461134546032,7.659416104029135,19.833482551423632,8.013247100419049,19.70722648329132,8.365221339496118,19.57472122999955,8.715227398513747,19.43599706994771,9.063154277594744,19.291086253932914,9.408891434877994,19.14002299837381,9.752328821580079,18.982843477911203,10.093356916958996,18.819585817386592,10.431866763169538,18.65029008319975,10.767750000000039,18.474998274047998,11.100898899477619,18.293754311047955,11.431206400333004,18.106604027242934,11.758566142312159,17.913595156497554,12.08287250032488,17.714777321782655,12.40402061841864,17.510202022852493,12.721906443567812,17.299922623317972,13.036426759266163,17.08399433711836,13.347479218912747,16.862474214395284,13.654962378979809,16.635421126771746,13.95877573195286,16.402895752040724,14.258819739031146,16.164960558266827,14.554995862578512,15.921679787304601,14.84720659831458,15.673119437738631,15.135355507234685,15.419347247249148,15.41934724724915,15.160432674408307,15.699087604530808,14.896446879911146,15.974483524561457,14.627462707247233,16.24544314286598,14.353554662817375,16.511875815424894,14.074798895501337,16.773692148754673,13.79127317568126,17.03080402964682,13.50305687372754,17.283124654554783,13.210230937952533,17.530568558619585,12.912877872037695,17.77305164432487,12.611081711941363,18.010491209770986,12.304928002293108,18.242805976559165,11.994503772280728,18.46991611727685,11.679897511037641,18.69174328257417,11.361199142537155,18.908210627822847,11.038499999999967,19.119242839349067,10.711892799823817,19.32476616023031,10.381471615040692,19.52470841564873,10.047331848310831,19.71899903779141,9.709570204460617,19.907569090289517,9.368284662571524,20.09035129218817,9.023574447629576,20.267280041438376,8.675540001742293,20.438291437903246,8.324282954932345,20.603323305870408,7.969906095515248,20.76231521606318,7.612513340071116,20.915208507142335,7.252209703018108,21.06194630669136,6.889101265797344,21.202473551677627,6.523295145677087,21.336737008382645,6.154899464186832,21.464685291793877,5.784023315189868,21.58626888445152,5.410776732603082,21.701440154743672,5.035270657774979,21.81015337464297,4.657616906530367,21.912364736878637,4.2779281358923935,22.008032371537446,3.896317810490635,22.097116362087913,3.5129001686667527,22.17957876082143,3.127790188286628,22.255383603704917,2.741103552270134,22.32449692463935,2.3529566138476037,22.386886769118895,1.9634663615549455,22.44252320728536,1.5727503839772121,22.491378346373068,1.180926834250454,22.533426342539368,0.7881143943345669,22.568643412076025,0.3944322390655377,22.597007841997257,-2.2173739314740195e-14,22.618499999999997,-0.39506227093788765,22.633102343792405,-0.7906341379964514,22.640799429786803,-1.1865948183116093,22.641577921153285,-1.5828232187858278,22.635426595230587,-1.9791979731208618,22.622336350290926,-2.375597478991342,22.602300211655667,-2.771899935348579,22.57531333715912,-3.1679833798438595,22.541373021957487,-3.563725726358209,22.500478702680805,-3.9590048026283617,22.452631960925324,-4.353698387956384,22.397836526084514,-4.7476842509925845,22.336098277516527,-5.140840187578442,22.267425246046706,-5.533044058639119,22.191827614803564,-5.924173828112848,22.109317719387057,-6.314107600906697,22.019910047367862,-6.702723660865397,21.923621237117167,-7.089900508742151,21.82047007596623,-7.475516900160237,21.710477497694942,-7.859451883552138,21.5936665793498,-8.241584838065508,21.470062537390724,-8.62179551142323,21.33969272316736,-8.999964057726901,21.202586617724823,-9.375971075190343,21.058775825939975,-9.749697643792473,20.908294069988763,-10.12102536283681,20.751177182145927,-10.489836388407006,20.587463096917794,-10.856013470704637,20.417191842510547,-11.219439991259673,20.24040553163456,-11.580000000000005,20.05714835164759,-11.937578252168965,19.8674665540386,-12.292060245079877,19.671408443254048,-12.643332254694101,19.469024364870254,-12.991281372013074,19.26036669311324,-13.335795539270878,19.04548981773015,-13.67676358591697,18.824450130214576,-14.014075264376693,18.597306009389776,-14.347621285579246,18.364117806352507,-14.677293354240302,18.12494782878211,-15.002984203888671,17.8798603246185,-15.324587631626196,17.628921465112644,-15.641998532608447,17.372199327254883,-15.955112934236134,17.109763875584914,-16.263828030045353,16.841686943388744,-16.568042213286667,16.568042213286727,-16.867655110180912,16.288905197218977,-17.162567612841823,16.004353215832644,-17.452681911854032,15.71446537727717,-17.737901528496756,15.419322555412483,-18.01813134660148,15.11900736743709,-18.29327764403369,14.813604150941693,-18.563248123788874,14.503198940394103,-18.827951944691385,14.187879443063071,-19.087299751686995,13.86773501438679,-19.341203705718428,13.54285663279367,-19.589577513174806,13.213336873981376,-19.832336454904212,12.879269884662609,-20.06939741478026,12.540751355784518,-20.300678907813406,12.197878495228576,-20.526101107796865,11.850750000000003,-20.745585874478238,11.499466027914028,-20.959056780248073,11.144128168786334,-21.1664391363354,10.784839415137762,-21.36766001850249,10.42170413241951,-21.56264829222923,10.054828028769254,-21.751334637378797,9.684318124306179,-21.933651572336718,9.310282719973156,-22.109533477614168,8.932831365936458,-22.2789166189079,8.552074829551552,-22.441739169609054,8.168125062903629,-22.597941232752436,7.781095169933802,-22.747464862399116,7.391099373159408,-22.890254084444607,6.998252979999137,-23.026254916845666,6.6026723487115895,-23.1554153892581,6.204474853958956,-23.277685562079032,5.8037788520047044,-23.393017544886593,5.400703645556552,-23.501365514270695,4.995369448263859,-23.60268573104818,4.587897348881552,-23.69693655685625,4.178409275110527,-23.78407847011823,3.767027957124572,-23.86407408137559,3.3538768907962995,-23.936888147980685,2.9390803006317583,-24.002487588144657,2.5227631024258708,-24.0608414943354,2.1050508656485616,-24.11192114602015,1.6860697755745908,-24.155700021748167,1.2659465951671593,-24.192153810568545,0.8448086267278249,-24.221260422778816,0.4227836733228656,-24.242999999999995,2.0782378646210495e-14,-24.257354924573963,-0.42341370519520993,-24.264309828279323,-0.847328370389704,-24.26385160036209,-1.271614579228229,-24.255969394877678,-1.6961426103831152,-24.24065463734096,-2.1207824772144726,-24.217901030681432,-2.545403967569603,-24.187704560500453,-2.9698766837101975,-24.150063499628164,-3.3940700823535264,-24.1049784119776,-3.817853514816102,-24.052452155693665,-4.241096267248247,-23.99248988559524,-4.6636676009456215,-23.925099054908586,-5.085436792726073,-23.850289416290313,-5.506273175360088,-23.768073022138935,-5.926046178040735,-23.678464224193636,-6.344625366881932,-23.58147967241965,-6.7618804854314485,-23.477138313179136,-7.17768149518744,-23.36546138668772,-7.591898616104207,-23.24647242375602,-8.004402367075926,-23.120197241816495,-8.415063606384724,-22.98666394023544,-8.823753572101806,-22.84590289491109,-9.230343922427416,-22.6979467521583,-9.634706775957762,-22.542830421880364,-10.036714751867013,-22.380591070029823,-10.436241009990196,-22.21126811035891,-10.8331592907957,-22.03490319546182,-11.22734395523386,-21.8515402071099,-11.618670024450275,-21.661225245882488,-12.007013219349883,-21.464006620095432,-12.392249999999965,-21.259934834029206,-12.77425760486031,-21.049062575460184,-13.152914089826684,-20.83144470249762,-13.528098367075975,-20.607138229728882,-13.899690243701338,-20.37620231367759,-14.267570460123185,-20.138698237576698,-14.631620728266055,-19.89468939546158,-14.991723769487233,-19.6442412755866,-15.347763352245808,-19.387421443168982,-15.699624329500729,-19.12429952246531,-16.04719267582442,-18.854947178184506,-16.390355524221302,-18.579438096242882,-16.72900120263844,-18.29784796386529,-17.063019270157632,-18.010254449038914,-17.392300552855957,-17.71673717932424,-17.71673717932424,-17.417377720029528,-18.036222615831143,-17.11225955175421,-18.350651701122132,-16.801468047307107,-18.659920680842088,-16.485090448007604,-18.963927241568616,-16.16321583937291,-19.262570544448227,-15.835935126202125,-19.555751258420567,-15.503341007060676,-19.843371593022965,-15.16552794817354,-20.125335330763235,-14.822592156735881,-20.40154785904912,-14.474631553645986,-20.671916201665866,-14.121745745669571,-20.93634904979049,-13.764035997044486,-21.194756792531578,-13.401605200531403,-21.447051546986344,-13.034557847919924,-21.693147187804005,-12.663000000000043,-21.932959376244664,-12.287039256004245,-22.166405588726164,-11.906784722532054,-22.393405144847378,-11.522346981964699,-22.61387923487938,-11.133838060378329,-22.827750946715508,-10.741371394967059,-23.034945292270248,-10.34506180098286,-23.235389233319186,-9.945025438203944,-23.429011706770225,-9.541379776940646,-23.615743649357896,-9.134243563587935,-23.79551802175259,-8.723736785736138,-23.968269832075777,-8.309980636849499,-24.13393615881351,-7.893097480521553,-24.29245617312058,-7.47321081432118,-24.44377116050657,-7.050445233236352,-24.58782454189745,-6.6249263927279625,-24.7245618940647,-6.196780971406322,-24.853930969414403,-5.766136633338208,-24.975881715130196,-5.33312198999727,-25.09036629166277,-4.897866561870705,-25.19733909055892,-4.460500739730501,-25.29675675162457,-4.021155745582386,-25.388578179415042,-3.579963593305978,-25.472764559046265,-3.1370570489934675,-25.549279371322005,-2.692569591004132,-25.618088407170426,-2.2466353697421835,-25.679159781385433,-1.799389167171884,-25.732463945667234,-1.3509663560837795,-25.777973700956977,-0.9015028591210886,-25.815664209061058,-0.45113510758027975,-25.84551300356037,2.2190997235477856e-14,-25.867499999999996,0.45176513945261826,-25.881607505355518,0.9040226027828699,-25.887820226771844,1.3566343401448426,-25.886125279570898,1.8094620019804886,-25.876512194524757,2.2623669813079967,-25.858972924391004,2.715210456147858,-25.833501849707194,3.1678534320719014,-25.800095783841773,3.620156784863107,-25.758753977298852,4.07198130327391,-25.709478121274408,4.523187731868218,-25.652272350461985,4.973636813934775,-25.58714324510598,5.423189334459477,-25.514099832300662,5.871706163141739,-25.433153586533916,6.319048297442347,-25.344318429474303,6.765076905650931,-25.247610729000243,7.2096533699562055,-25.143049297471435,7.652639329509478,-25.0306553892411,8.093896723466349,-24.910452697409184,8.533287833991618,-24.782467349817093,8.970675329217226,-24.64672790428322,9.405922306138184,-24.50326534308013,9.838892333431605,-24.352113066654823,10.26944949418854,-24.193306886591806,10.697458428543689,-24.026885017820753,11.122784376187912,-23.852888070070883,11.545293218754514,-23.67135903857193,11.964851522060792,-23.482343294005805,12.381326578195907,-23.285888571709247,12.794586447440015,-23.082044960130464,13.204500000000003,-22.87086488854323,13.610936957551726,-22.652403114019766,14.013767934573483,-22.426716707666323,14.412864479457923,-22.193865040124937,14.808099115389524,-21.953909766344573,15.19934538097542,-21.706914809625086,15.586477870615136,-21.45294634493883,15.969372274597694,-21.19207278153343,16.347905418912305,-20.92436474482075,16.721955304761153,-20.649895057555863,17.091401147760234,-20.368738720312063,17.45612341681635,-20.080972891256433,17.816003872668368,-19.786676865230945,18.17092560607919,-19.4859320521456,18.520773075666696,-19.17882195468896,18.865432145361755,-18.865432145361822,19.204790121481246,-18.5458502428402,19.53873578940244,-18.220165887675776,19.86715944983008,-17.888470717337107,20.189952954640596,-17.55085834060258,20.507009742294976,-17.20742431130873,20.818224872807384,-16.85826610146262,21.123495062257163,-16.503483073727097,21.422718716835032,-16.143176453284088,21.715795966411196,-15.77744929908504,22.00262869761341,-15.406406474498148,22.283120586406127,-15.030154617357843,22.55717713015889,-14.648802109426436,22.82470567919248,-14.262459045278208,23.08561546779456,-13.871237200611352,23.339817644692506,-13.475250000000006,23.58722530297413,-13.074612484094384,23.827753509446683,-12.669441276277778,24.061319333423402,-12.259854548791552,24.287841874928482,-11.84597198833723,24.507242292311265,-11.427914761164873,24.719443829259607,-11.005805477659454,24.924371841203698,-10.579768156434813,25.121953821101624,-10.149928187944843,25.312119424597306,-9.716412297624233,25.49480049454247,-9.279348508568733,25.669931084874644,-8.83886610376502,25.837447483842038,-8.395095587883704,25.997288236568508,-7.948168648643312,26.149394166949286,-7.498218117760933,26.293708398871278,-7.045377931497056,26.43017637674975,-6.5897830908080275,26.558745885373842,-6.131569621119682,26.679367069054827,-5.670874531730769,26.791992450069642,-5.207835774859948,26.89657694639293,-4.742592204350292,26.99307788871183,-4.275283534040291,27.081455036716967,-3.806050295815469,27.161670594663327,-3.3350337973551833,27.233689226196176,-2.8623760795824844,27.29747806843549,-2.3882198738356175,27.353006745314318,-1.912708558769269,27.400247380165776,-1.435986117000491,27.43917460755359,-0.9581970915141637,27.46976558434193,-0.4794865418376999,27.491999999999994,-2.693439184172722e-14,27.505860086137076,0.48011657371003214,27.511330625264367,0.96071683517603,27.5083989587797,1.441654101061548,27.497054994171847,1.9227813935777698,27.47729121144105,2.4039514854015156,27.44910266873295,2.8850169447262046,27.412487007183106,3.3658301804335142,27.36744445496954,3.846243487372682,27.3139778305712,4.3261090917318095,27.25209254523033,4.805279196488097,27.1817966046167,5.2836060269240175,27.103100609692717,5.7609418761929705,27.016017756777543,6.2371391509233,26.920563836809624,6.712050416844142,26.816757233806847,7.1855284444199246,26.70461892252325,7.657426254480874,26.584172465303006,8.127597163831696,26.455444008130673,8.5958948308284,26.318462275878204,9.062173300907224,26.17325856674988,9.526287052049906,26.019866745924855,9.988091040174474,25.858323238398587,10.44744074443571,25.68866702102524,10.904192212419495,25.51093961376118,11.358202105220279,25.32518507011186,11.809327742385806,25.131449966784945,12.257427146713319,24.92978339254983,12.70235908888764,24.72023693630851,13.143983131941711,24.502864674378436,13.58215967553014,24.27772315699108,14.01674999999996,24.04487139401032,14.447616310243149,23.804370839872465,14.874621779320277,23.556285377752307,15.297630591839793,23.300681302960214,15.716507987077794,23.037627305572585,16.13112030182765,22.76719445230091,16.541335012964296,22.48945616760529,16.947020779708158,22.204488214054837,17.34804748557887,21.912368671942687,17.744286280021647,21.613177918158875,18.135609619695977,21.306998604328292,18.521891309411462,20.99391563421894,18.903006542698368,20.674016140425977,19.278831942000682,20.347389460339134,19.649245598477304,20.014127111399336,20.014127111399333,19.674322765650878,20.37335762713135,19.3280722235972,20.72681987768288,18.975473387367114,21.07439821881807,18.616626233197696,21.41597866771246,18.251632783244403,21.751448940141845,17.880597076723124,22.080698487194198,17.50362514039367,22.403618531491254,17.120824958394472,22.720102102906942,16.732306441434204,23.030044073773265,16.338181395350464,23.333341193560848,15.938563489045947,23.629892123021868,15.533568221808393,23.919597467786208,15.123312890025012,24.20235981139862,14.707916553302786,24.47808374778511,14.287500000000051,24.746675913140297,13.862185712184518,25.008045017222102,13.432097830023507,25.262101874045978,12.997362115618492,25.508759431967384,12.558105916296041,25.7479328031415,12.114458127362688,25.979539292352275,11.666549154336142,26.20349842519999,11.214510874665594,26.419731975637205,10.758476598948947,26.628163992845383,10.298581031660623,26.828720827441995,9.83496023140133,27.021331157009158,9.367751570680717,27.20592601093572,8.897093695245763,27.38243879456353,8.423126482965449,27.55080531263044,7.945991002285696,27.710963792001074,7.4658294702660575,27.86285490367788,6.982785210209738,28.006421784085088,6.497002608901338,28.141610055617445,6.008627073464174,28.268367846446903,5.517804987849196,28.386645809580358,5.024683668970269,28.496397141161253,4.529411322498202,28.597577598008623,4.0321369983251465,28.690145514387638,3.5330105457167003,28.77406181800467,3.032182568160843,28.84929004522193,2.52980437792924,28.91579635548552,2.026027950366454,28.97354954496141,1.5210058779172086,29.02252105937458,1.0148913239074278,29.062685006046106,0.5078379760949193,29.09401816512349,8.20301081626652e-14,29.116499999999995,-0.508468007967348,29.130112666918635,-1.0174110675691843,29.13484102375689,-1.526673861978156,29.13067263798851,-2.0361007851751483,29.117597793818923,-2.545535989495132,29.09560949849109,-3.054823433304454,29.064703487758717,-3.563806928795223,29.024878230524426,-4.072330189882353,28.976134932640214,-4.58023688018961,28.91847753986801,-5.087370661108072,28.851912739998653,-5.5935752399131635,28.77644996412744,-6.098694417926368,28.6921013870848,-6.602572138704853,28.598881927021168,-7.105052536245753,28.496809244144995,-7.605979983189013,28.38590373861343,-8.105199139005535,28.266188547575062,-8.602554998153735,28.137689541364974,-9.097892938190645,28.000435318852105,-9.591058767822823,27.854457201939308,-10.081898774882408,27.69978922921661,-10.570259774210957,27.536468148769504,-11.055989155439809,27.36453341014235,-11.538934930650276,27.184027155458747,-12.018945781896862,26.994994209701606,-12.495871108583522,26.79748207015292,-12.969561074672308,26.59154089499788,-13.439866655714482,26.377223491093858,-13.906639685687342,26.15458530090786,-14.369732903620447,25.923684388626313,-14.828999999999908,25.684581425438928,-15.284295662934486,25.437339674000928,-15.735475624067247,25.1820249720785,-16.182396704221656,24.918705715379676,-16.624916858765978,24.64745283957591,-17.06289522267996,24.368339801520026,-17.49619215531337,24.081442559663042,-17.924669284818698,23.78683955367709,-18.34818955224536,23.484611683288996,-18.766617255282064,23.174842286329568,-19.179818091631798,22.857617116005628,-19.5876592020065,22.533024317400223,-19.990009212728292,22.201154403207003,-20.386738277922245,21.86210022870629,-20.777718121287904,21.515956965989307,-21.16282207743684,21.16282207743692,-21.54192513278145,20.802795288461564,-21.914903965963187,20.435978559518766,-22.281636987806195,20.062476057396964,-22.64200438078431,19.68239412579282,-22.995888137988594,19.29584125518023,-23.343172101581143,18.902928051983466,-23.683742000725342,18.503767207060246,-24.01748548897874,18.098473463505016,-24.344292181135458,17.687163583783203,-24.664053689508286,17.269956316202784,-24.97666365963751,16.84697236073422,-25.282017805413513,16.418334334190355,-25.580013943604705,15.9841667347719,-25.87055202777577,15.544595905994038,-26.153534181588086,15.099750000000101,-26.428864731470025,14.64975894027474,-26.69645023864538,14.194754383769052,-26.956199530511356,13.734869682445439,-27.208023731354473,13.270239844254947,-27.45183629239338,12.801001493560317,-27.68755302114037,12.32729283101283,-27.91509211007067,11.849253592896469,-28.13437416458911,11.36702500995315,-28.345322230286673,10.880749765697017,-28.547861819475884,10.390571954233835,-28.741920936996788,9.89663703759642,-28.927430105284987,9.39909180260792,-29.104322388692406,8.898084317287488,-29.272533417052855,8.393763886810465,-29.432001408484485,7.886281009035052,-29.58266719142046,7.375787329611351,-29.724474225861044,6.862435596683,-29.85736862383898,6.3463796151975735,-29.98129916909108,5.8277742008384505,-30.096217335929573,5.306775133590251,-30.20207730730545,4.783539110955903,-30.298835992058315,4.258223700834831,-30.38645304134599,3.730987294078416,-30.464890864247707,3.2019890567389915,-30.53411464253556,2.671388882022868,-30.59409234460849,2.139347341963839,-30.644794738583393,1.6060256388337146,-30.686195404538626,1.0715855563006982,-30.718270745905045,0.5361894103523399,-30.740999999999996,1.430961517273361e-13,-30.754365247700193,-0.536819442224658,-30.758351422249405,-1.0741052999625509,-30.752946317197317,-1.6116936228947574,-30.738140593466017,-2.149420176772423,-30.71392778554112,-2.687120493588753,-30.680304306784482,-3.224629921882697,-30.637269453865763,-3.7617836771568296,-30.584825410310884,-4.298416892392031,-30.522977249164825,-4.834364668647407,-30.45173293476699,-5.369462125727946,-30.37110332363818,-5.903544452902303,-30.28110216447688,-6.43644695965976,-30.181746097264774,-6.96800512648651,-30.073054651480362,-7.498054655647357,-29.955050243420008,-8.02643152195811,-29.82775817262685,-8.552972023530298,-29.69120661742694,-9.077512832475765,-29.5454266295736,-9.599891045552697,-29.390452128000383,-10.11994423473852,-29.22631989168333,-10.637510497714903,-29.05306955161423,-11.152428508247247,-28.87074358188612,-11.664537566443903,-28.679387289892258,-12.17367764888105,-28.47904880564195,-12.679689458573645,-28.269779070193984,-13.182414474781234,-28.051631823210897,-13.681695002631113,-27.82466358963779,-14.177374222541518,-27.588933665507216,-14.669296239432969,-27.344504102874286,-15.15730613171057,-27.09143969388667,-15.641250000000046,-26.82980795399154,-16.12097501562582,-26.559679104284644,-16.59632946881404,-26.281126053007053,-17.067162816603513,-25.994224376191603,-17.53332573045416,-25.69905229746746,-17.994670143532275,-25.395690667025182,-18.451049297662443,-25.08422293974895,-18.902317789929153,-24.76473515252308,-19.34833161891193,-24.43731590071646,-19.788948230542477,-24.10205631385244,-20.224026563567534,-23.759050030472082,-20.653427094601618,-23.408393172194994,-21.077011882758296,-23.05018431698667,-21.494644613843732,-22.68452447163941,-21.90619064409859,-22.31151704347443,-22.31151704347442,-21.931267811272168,-22.71049263843162,-21.54388489544034,-23.102988054243486,-21.14947872742697,-23.488875756794187,-20.74816201838786,-23.86803009385624,-20.340049727116053,-24.240327335835335,-19.925259027243968,-24.60564571596796,-19.503909273726737,-24.963865469959487,-19.076121968615567,-25.314868875050532,-18.64202072613237,-25.658540288497527,-18.201731237054926,-25.994766185455845,-17.755381232422497,-26.323435196253143,-17.30310044657213,-26.64443814304094,-16.845020579518792,-26.957668075810783,-16.38127525868547,-27.263020307766325,-15.911999999999964,-27.56039245003599,-15.437332168364968,-27.84968444571794,-14.957410937514783,-28.13079860324468,-14.472377249272187,-28.403639629055437,-13.982373772213858,-28.66811465956744,-13.487544859758135,-28.924133292434394,-12.98803650768932,-29.171607617080845,-12.483996311127349,-29.410452244504135,-11.97557342095725,-29.64058433633288,-11.462918499733417,-29.861923633131358,-10.946183677066438,-30.07439248194257,-10.425522504512024,-30.277915863057896,-9.901089909969974,-30.472421416006483,-9.373042151609631,-30.657839464754343,-8.841536771335129,-30.83410304210467,-8.306732547804152,-31.00114791329106,-7.7687894490130684,-31.158912598755798,-7.227868584464557,-31.307338396104676,-6.6841321569310805,-31.446369401231035,-6.137743413827599,-31.575952528601817,-5.588866598210239,-31.696037530697897,-5.037666899413814,-31.806577016602237,-4.4843104033444074,-31.907526469729,-3.9289640424401377,-31.998844264687314,-3.3717955453173505,-32.080491683273465,-2.812973386116274,-32.15243292958561,-2.2526667335612305,-32.214635144255574,-1.6910453997504324,-32.267068417792196,-1.1282797886937446,-32.30970580303115,-0.5645408446097665,-32.3425233266866,1.983818660669533e-14,-32.3655,0.565170876481962,-32.378617828481744,1.130799532355705,-32.381861820741925,1.6967133838115829,-32.37521999640611,2.262739568369692,-32.358683393113104,2.8287049976822654,-32.33224607259117,3.394436410461164,-32.29590512581023,3.95976042551843,-32.2496606772071,4.5245035949016,-32.193515887981576,5.088492457105424,-32.12747695846159,5.651553590347813,-32.051553129535336,6.2135136658915515,-31.9657566831489,6.77419950139326,-31.87010294186894,7.33343811426806,-31.76461026750841,7.891056775049068,-31.649300058815708,8.446883060727094,-31.524196748226608,9.000744908054953,-31.38932779767866,9.552470666797904,-31.24472369348888,10.101889152914744,-31.090417940295097,10.648829701654115,-30.926447054061494,11.193122220547503,-30.752850554150022,11.734597242283531,-30.56967095445895,12.273085977448206,-30.3769537536298,12.808420367111816,-30.17474742432577,13.340433135250228,-29.963103401582377,13.868957840979155,-29.742076070234955,14.393828930589915,-29.51172275142392,14.914881789368357,-29.272103688181815,15.431952793178796,-29.023282030106458,15.944879359800693,-28.765323817122265,16.4535,-28.49829796233452,16.957654368317346,-28.22227623398204,17.45718331356083,-27.937333236490787,17.951928928985563,-27.6435463906343,18.44173460214233,-27.3409959128073,18.9264450643845,-27.029764793414966,19.4059064400117,-26.70993877438719,19.879966295039605,-26.38160632582082,20.34847368557842,-26.044858621757236,20.811279205803064,-25.6997895151032,21.26823503550327,-25.34649551169926,21.71919498719665,-24.985075743544016,22.164014552788302,-24.615631941182986,22.602550949765217,-24.23826840526706,23.034663166909183,-23.85309197728959,23.46021200951192,-23.46021200951202,23.879060144081716,-23.059740334082854,24.291072142523866,-22.65179123136183,24.696114525782175,-22.236481397456984,25.094055806928093,-21.81392991098299,25.484766533682148,-21.3842581990518,25.868119330354766,-20.947590002504473,26.243988939193642,-20.504051340393225,26.612252261122393,-20.053770473726026,26.972788395859595,-19.596877868481545,27.325478681403283,-19.13350615790725,27.67020673286877,-18.663790104110774,28.00685848066825,-18.187866558954095,28.33532220801699,-17.705874424265485,28.65548858775687,-17.217954611376907,28.967250718483783,-16.724250000000016,29.270504159965977,-16.224905396454997,29.565146967843976,-15.720067491260519,29.851079727599412,-15.209884816099136,30.12820558778051,-14.694507700172558,30.396430292475404,-14.174088225955957,30.655662213021223,-13.64878018436601,30.905812378937597,-13.118739029358233,31.146794508076596,-12.584121831961458,31.37852503597612,-12.045087233769602,31.600923144409254,-11.501795399899049,31.813910789118964,-10.954407971427733,32.017412726727976,-10.403088017332024,32.21135654081627,-9.847999985931777,32.395672667156454,-9.289309655859903,32.57029441809767,-8.727184086573143,32.73515800609113,-8.161791568414792,32.89020256634827,-7.593301572246225,33.03537017862309,-7.021884698664591,33.170605888112554,-6.447712626816741,33.295857725466234,-5.870958062830114,33.411076725899036,-5.2917946878717315,33.516216947399684,-4.7103971058539775,33.61123548802865,-4.126940790801746,33.696092502299216,-3.5416020338957153,33.770751216635645,-2.954557890209903,33.83517794390266,-2.3659861251585075,33.889342097001,-1.7760651606671567,33.93321620152367,-1.1849740210870154,33.966775907468154,-0.5928922788671989,33.989999999999995,-4.162574470301853e-14,34.00287040926331,0.5935223107395017,34.00537221923445,1.1874937647488526,33.997493675614926,1.7817331447281843,33.97922619276018,2.376058959967197,33.95056435964121,2.9702895017757713,33.911505944835994,3.564242899039406,33.8620519005484,4.157737173880265,33.80220636565226,4.750590297411162,33.73197666775841,5.342620245563221,33.651373324303684,5.933645054967675,33.56041004265964,6.523482878880685,33.459103719260995,7.111952043126764,33.347474437752034,7.698871102049602,33.225545466151075,8.284058894450666,33.09334325303319,8.867334599496196,32.950897422730485,9.448517792579606,32.798240769550844,10.027428501119928,32.635409251016554,10.603887260276899,32.46244198012256,11.177715168569819,32.27938121661675,11.748733943379992,32.08627235730368,12.316765976319813,31.883163925373577,12.8816343884523,31.670107558759238,13.44316308534269,31.447157997522808,14.001176811926808,31.214373070276018,14.555501207176865,30.971813679636895,15.10596285854882,30.71954378672585,15.652389356195195,30.45763039470582,16.194609346924427,30.186143531370185,16.73245258789091,29.90515623078237,17.26574999999994,29.61474451397265,17.79433372100868,29.314987368696936,18.318037158307614,29.005966728261676,18.836695041367424,28.687767449422946,19.350143473830606,28.3604772893624,19.85821998523682,28.024186881749397,20.360763582360672,27.678989711892616,20.85761480015015,27.32498209099132,21.348615752244992,26.96226312949001,21.833610181063577,26.59093470954601,22.3124435074391,26.211101456615864,22.784962879791774,25.822870710170967,23.251017222818312,25.426352493547363,23.710457285686786,25.021659482939686,24.163135689719866,24.60890697554944,24.608906975549598,24.188212856893458,25.047627649731897,23.75969756728331,25.479156230804247,23.32348406748681,25.903353294770323,22.879697803578026,26.32008152000002,22.428466670987532,26.729205731528964,21.969920977764797,27.130592944741732,21.50419340705981,27.52411240842773,21.03141897883648,27.909635647194253,20.55173501083072,28.287036503221657,20.065281078759572,28.656191177350713,19.572198975798855,29.016978269484532,19.07263267133606,29.36927881829555,18.566728269012387,29.712976340223072,18.054633964068135,30.047956867747544,17.53650000000007,30.374108986931567,17.01247862454522,30.691323874213893,16.482724045006037,30.999495332443384,15.947392382926084,31.298519826143387,15.40664162813147,31.588296515993484,14.860631592153783,31.86872729251641,14.309523861042708,32.1397168089616,13.753481747588898,32.40117251337116,13.192670242965669,32.65300467982031,12.627255967805999,32.8951264388208,12.057407122731432,33.12745380687603,11.483293438343445,33.34990571518003,10.905086124694185,33.56240403744943,10.322957820253695,33.764873616878276,9.737082540384682,33.95724229220823,9.147635625342248,34.13944092290424,8.554793687816522,34.31140341342648,7.9587345600278985,34.47306673659187,7.359637240397985,34.62437095601516,6.757681839806127,34.765259247623256,6.153049527450108,34.895677920234554,5.54592247632953,35.01557643519584,4.936483808363794,35.12490742507034,4.324917539163474,35.22362671136996,3.71140852247396,35.31169332132498,3.0961423943036634,35.38906950368567,2.4793055167559044,35.45572074354973,1.8610849215840126,35.51161577620979,1.2416682534804182,35.556726600016184,0.6212437131245109,35.59102848824971,2.355881245701057e-13,35.61449999999999,-0.6218737449966788,35.62712299004487,-1.2441879971421208,35.628882617726966,-1.866752905644653,35.619767354823736,-2.489378351564339,35.59976899240728,-3.1118740058693986,35.56888264669125,-3.7340493876177687,35.52710676386174,-4.355713922241739,35.474443123889756,-4.976676999920845,35.410896843322945,-5.596748034021135,35.3364763770552,-6.215736519587656,35.251193519072004,-6.8334520918699395,35.15506340217036,-7.449704584860274,35.04810449665304,-8.064304089831262,34.93033860799564,-8.677061013852384,34.801790873486425,-9.2877861382653,34.66248975783976,-9.896290677104373,34.512467047782266,-10.502386335442072,34.35175784561278,-11.10588536763906,34.18040056173801,-11.706600635485405,33.99843690618368,-12.304345666212598,33.80591187908344,-12.898934710356325,33.60287376014831,-13.490182799456385,33.38937409711735,-14.077905803573573,33.16546769319271,-14.661920488603615,32.93121259346314,-15.24204457337457,32.68667007031708,-15.818096786507732,32.431904607849866,-16.389896923022253,32.16698388526977,-16.957265900670045,31.891978759305175,-17.520025815981146,31.606963245618108,-18.077999999999882,31.312014499230223,-18.631013073700004,31.007212793963262,-19.178891003054613,30.69264150090296,-19.721461153749274,30.368387065889053,-20.25855234551888,30.034538986038573,-20.78999490608915,29.691189785309835,-21.315620724709834,29.338434989111466,-21.8352633052607,28.976373097964405,-22.348757818911576,28.605105560225404,-22.855941156323883,28.22473674387698,-23.35665197937492,27.835373907392746,-23.850730772386903,27.43712716968772,-24.338019892848134,27.030109479159123,-24.818363621608356,26.614436581827665,-25.29160821253037,26.190226988589963,-25.757601941587005,25.75760194158712,-26.216195155382074,25.31668537970405,-26.667240319084456,24.867603903204987,-27.110592063758222,24.41048673751692,-27.54610723307195,23.945465696173056,-27.973644929375624,23.472675142923467,-28.39306655912846,22.992251953025406,-28.80423587766188,22.504335473726293,-29.20701903326597,22.00906748394714,-29.601284610583793,21.506592153179792,-29.986903673298063,20.997055999612005,-30.363749806100092,20.480607847487246,-30.731699155922925,19.95739878371792,-31.09063047242908,19.427582113759392,-31.44042514773803,18.891313316759685,-31.780967255379416,18.34875000000002,-32.11214358846174,17.80005185263557,-32.433843697042626,17.24538059875189,-32.74595992468741,16.684899949752925,-33.04838744420639,16.118775556090505,-33.34102429255747,15.547174958351501,-33.62377140490203,14.970267537719288,-33.89653264780457,14.388224465819903,-34.15921485156409,13.801218653969768,-34.411727841665524,13.209424701842282,-34.65398446934267,12.613018845564165,-34.88590064124114,12.012178905259045,-35.107395348170925,11.407084232056228,-35.31839069294017,10.797915654575968,-35.518811917260045,10.184855424909342,-35.708587427710846,9.568087164111235,-35.88764882076191,8.947795807217874,-36.055930906835506,8.32416754780945,-36.21337173340724,7.697389782131374,-36.35991260713404,7.067651052795012,-36.4954981150029,6.435140992069979,-36.62007614449265,5.8000502647873216,-36.73359790274107,5.1625705108731035,-36.8360179347113,4.5228942875250775,-36.927294140350746,3.8812150110522,-37.007387790735734,3.2377268983969145,-37.07626354319683,2.5926249083531765,-37.13388945541861,1.9461046825003585,-37.180236998508704,1.2983624858735745,-37.21528106903128,0.6495951473818175,-37.23899999999999,-8.213442031605871e-14,-37.25137557082642,-0.650225179254103,-37.25239301621949,-1.300882229535395,-37.24204103403252,-1.9517726665616333,-37.22031179205435,-2.6026977431617278,-37.18720093374129,-3.2534585099630307,-37.142707582887496,-3.903855876196137,-37.08683434723107,-4.553690670603458,-37.019587320993615,-5.202763702430532,-36.94097608635202,-5.850875822478793,-36.851013713840324,-6.4978279842076425,-36.74971676168108,-7.143421304859198,-36.637105274045155,-7.787457126593528,-36.51320277823923,-8.429737077612929,-36.37803628082176,-9.070063133254106,-36.231636262646404,-9.708237677034152,-36.07403667283405,-10.344063561629145,-35.90527492167471,-10.977344169764217,-35.725391872459554,-11.607883475000975,-35.53443183224475,-12.235486102401113,-35.332442541550215,-12.859957389044956,-35.1194751629931,-13.481103444392481,-34.895584268861064,-14.09873121046059,-34.66082782762627,-14.712648521804212,-34.41526718940363,-15.322664165280072,-34.158967070358095,-15.928587939572392,-33.89199553606295,-16.530230714466406,-33.614423983813865,-17.127404489848974,-33.32632712390447,-17.71992245441578,-33.02778295986615,-18.307599044071143,-32.718872767678015,-18.890249999999934,-32.39968107395395,-19.46769242639121,-32.070295633109176,-20.039744847801284,-31.73080740351637,-20.60622726613124,-31.381310522654353,-21.166961217206936,-31.021902281257415,-21.721769826941255,-30.652683096473535,-22.27047786705901,-30.273756484036355,-22.812911810371034,-29.885229029459648,-23.34889988557795,-29.487210358263795,-23.878272131584396,-29.07981310523966,-24.400860451310546,-28.663152882759746,-24.916498664981827,-28.237348248147114,-25.425022562878144,-27.80252067010796,-25.92626995752993,-27.35879449424006,-26.42008073534105,-26.90629690762463,-26.906296907624597,-26.445157902514644,-27.38476266103226,-25.97551023912647,-27.85532440736484,-25.497489407546837,-28.317830832746292,-25.011233588768086,-28.772132946143888,-24.516883614859204,-29.21808412722244,-24.01458292828582,-29.65554017351535,-23.50447754039277,-30.084359346896044,-22.986715989057593,-30.50440241933783,-22.461449295528865,-30.915532717945933,-21.928830920464012,-31.317616169245717,-21.389016719175427,-31.71052134271579,-20.84216489609978,-32.0941194935503,-20.288435958505953,-32.468284604635365,-19.727992669451016,-32.83289342772864,-19.160999999999966,-33.18782552382727,-18.587625080725452,-33.53296330270985,-18.008037152497515,-33.86819206164198,-17.422407516579764,-34.193400023231455,-16.830909484049307,-34.50847837241941,-16.233718324549212,-34.81332129259854,-15.631011214395867,-35.107826000842465,-15.022967184050675,-35.39189278223808,-14.409767064973856,-35.665425023307854,-13.791593435878562,-35.92832924451026,-13.168630568396656,-36.18051513180939,-12.541064372174636,-36.42189556730225,-11.90908233941827,-36.652386658892425,-11.272873488897996,-36.871907769002135,-10.632628309433997,-37.08038154231186,-9.98853870288048,-37.27773393251739,-9.34079792661973,-37.46389422809722,-8.689600535590998,-37.63879507707913,-8.035142323865026,-37.80237251079927,-7.377620265784406,-37.954565966644736,-6.717232456689843,-38.09531830977124,-6.054178053245382,-38.224575853789425,-5.388657213382929,-38.342288380411716,-4.720871035886674,-38.448409158052634,-4.051021499630709,-38.54289495937649,-3.3793114024906865,-38.62570607778576,-2.7059442999507173,-38.6968063428439,-2.0311244434172266,-38.756163134627414,-1.355056718266725,-38.803747397001224,-0.6779465816393943,-38.83953364981283,-1.2376861403849426e-13,-38.863499999999995,0.6785766135115326,-38.87562815160798,1.3575764619283983,-38.87590341471201,2.0367924274780904,-38.86431471324134,2.716017134759122,-38.84085459170143,3.3950430140563923,-38.80551922079134,4.073662364774236,-38.75830840191328,4.751667418964908,-38.69922557057242,5.4288504049399515,-38.62827779866432,6.105003610936708,-38.54547579564883,6.779919448827632,-38.45083390860864,7.453390517848189,-38.34437012119185,8.125209668327038,-38.226106051437206,8.7951700653946,-38.09606694848283,9.463065252655563,-37.95428168815717,10.128689215803258,-37.800782767452986,10.791836446153921,-37.63560629788582,11.452302004086102,-37.458791997736725,12.109881582363135,-37.270383183181,12.764371569316825,-37.070426758305814,13.41556911187756,-36.858973204016905,14.06327217842888,-36.636076565837776,14.707279621464801,-36.40179444060478,15.347391240035348,-36.156187962059626,15.983407841956765,-35.899321785344,16.615131305770216,-35.6312640703991,17.242364642425567,-35.35208646427579,17.864912056675923,-35.06186408235784,18.482579008161515,-34.760675488503765,19.095172272161367,-34.44860267411407,19.70249999999999,-34.125731036125806,20.30437177908289,-33.79214935394436,20.900598692548176,-33.44794976531526,21.490993378513203,-33.09322774114367,22.075370088895447,-32.72808205926983,22.653544747793582,-32.35261477720484,23.225335009408184,-31.966931203835596,23.79056031548181,-31.57113987010798,24.349041952244526,-31.16535249869373,24.90060310684491,-30.7496839726506,25.445068923246378,-30.324252303086404,25.982266557576956,-29.889178595831595,26.512025232908158,-29.444587017135092,27.03417629345131,-28.99060475838845,27.548553258151735,-28.52736199989015,28.054991873662193,-28.054991873662125,28.553330166682255,-27.57363042532544,29.04340849564522,-27.083416575047952,29.525069601734362,-26.584492077576755,29.998158659215644,-26.077001481363325,30.462523325069256,-25.561092086794936,30.918013787902066,-25.03691390354645,31.364482816130035,-24.50461960705947,31.80178580540969,-23.96436449416804,32.229780825307905,-23.41630643787816,32.64832866519307,-22.86060584131646,33.05729287933149,-22.297425590863597,33.45653983117753,-21.726931008481866,33.84593873684137,-21.149289803252977,34.22536170771925,-20.564672022142343,34.594683792274985,-19.973250000000146,34.9537830169577,-19.375198308815815,35.3025404262412,-18.770693706243385,35.640840121775355,-18.159915083406847,35.96856930063244,-17.54304341200811,36.28561829263948,-16.920261690747175,36.59188059678278,-16.2917548910727,36.8872529166716,-15.657709902281441,37.17163519505152,-15.01831547597821,37.44493064735489,-14.3737621699151,37.70704579427613,-13.724242291229148,37.95789049336327,-13.069949839090492,38.19737796961383,-12.411080446780572,38.42542484506411,-11.74783132322002,38.641951167363594,-11.08040119395892,38.846880437323996,-10.408990241649466,39.04013963543259,-9.733800046021328,39.22165924732269,-9.055033523372817,39.39137328819135,-8.372894865598417,39.54921932615548,-7.68758947877354,39.695138504539585,-6.999323921309702,39.829075563086235,-6.3083058417031745,39.950978858082415,-5.6147439158924906,40.06080038139397,-4.918847784248267,40.15849577840225,-4.220827988208948,40.24402436483581,-3.520895906584191,40.317349142491004,-2.8192636915477025,40.37843681383622,-2.1161442043338257,40.42725779549375,-1.4117509506598704,40.46378623059439,-0.7062980158964135,40.48799999999999,-5.950019952465362e-14,40.499880732389535,0.7069280477689681,40.49941381320453,1.4142706943219594,40.486588392450145,2.1218121883948173,40.46139739134852,2.829336526356523,40.42383750784138,3.536627518150024,40.37390922093903,4.243468853352605,40.311616793913714,4.949644167326915,40.236968276334984,5.654937107449639,40.14997550494561,6.359131399394628,40.050654103376964,7.062010913447631,39.939023480702566,7.763359730837448,39.81510682882926,8.462962210060553,39.67893111872643,9.16060305317628,39.5305270954925,9.856067372057284,39.369929272259554,10.549140754572365,39.19717592293761,11.239609330678707,39.012309073798654,11.927259838408249,38.81537449390246,12.611879689725301,38.60642168436698,13.293257036232271,38.38550386648359,13.971180834710168,38.152677968682454,14.645440912465283,37.90800461234861,15.31582803246875,37.6515480964932,15.982133958265972,37.38337638128438,16.644151518633468,37.103561070440236,17.30167467196779,36.812177392488884,17.954498570384228,36.50930418090181,18.60241962350288,36.195023853103194,19.245235561907005,35.86942238836198,19.8827455002516,35.53258930457373,20.514749999999797,35.18461763393505,21.14105113177408,34.82560389752133,21.76145253729507,34.455648078771134,22.37575949089493,34.07485359588562,22.983778960583493,33.68332727315227,23.585319668645905,33.28117931119783,24.180192151757126,32.868523256179934,24.76820882059214,32.445475967927806,25.34918401891111,32.01215758703759,25.922934082105193,31.568691500933138,26.48927739518221,31.115204308903635,27.048034450171862,30.65182578612327,27.59902790293796,30.17868884666874,28.142082629372883,29.69592950554045,28.677025780962218,29.203686839699824,29.203686839699582,28.702102948136034,29.721897672332435,28.191322910969433,30.23149258392562,27.671494747606882,30.732308370722237,27.142769373958355,31.224184372287578,26.60530055873067,31.706962522916083,26.059244878806858,32.180487402288946,25.504761673725948,32.64460628536419,24.94201299927849,33.099169191481565,24.371163580227233,33.544028932670045,23.792380762168676,33.97904116114057,23.20583446255177,34.4040644159472,22.611697120863727,34.8189601688049,22.010143647999758,35.22359286904752,21.401351374833663,35.617829987709875,20.785499999999836,36.00154206072298,20.16277153690593,36.37460273120568,19.53335025998875,36.7368887908407,18.89742265023368,37.08828022031939,18.255177339966902,37.428660228845466,17.60680505694462,37.75791529268067,16.952498567749277,38.075935192723215,16.292452620512204,38.38261305110511,15.626863886982026,38.6778453667954,14.95593090395138,38.96153205019961,14.279854014061629,39.23357645674286,13.598835306005803,39.49388541942448,12.913078554142611,39.74236928033533,12.222789157542039,39.97894192112608,11.528174078483575,40.203520792415425,10.829441780418446,40.4160269421306,10.126802165422918,40.616385042767966,9.420466511154364,40.80452341756633,8.7106474073318,40.98037406558343,7.9975586917626655,41.14387268566622,7.281415385929851,41.29495869930788,6.562433630160962,41.433575272383045,5.8408306184020455,41.5596693357531,5.116824532610149,41.67319160473527,4.390634476787183,41.77409659742801,3.6624804106779867,41.862342651885825,2.932583083145256,41.93789194213808,2.2011639652504185,42.00071049304502,1.4684451830533085,42.050768193986265,0.7346494501540023,42.088038811375945" fill="none" stroke="#ffffff" stroke-width="3" stroke-linecap="round" clip-path="url(#dcf016ad-d86c-47d5-89ce-ecd33d12e964)"></polyline></g><rect x="-50" y="-9" width="100" height="18" fill="#118" stroke="#110a0c" clip-path="url(#dcf016ad-d86c-47d5-89ce-ecd33d12e964)"></rect><text font-family="Arial" font-weight="bolder" font-size="16" text-anchor="middle" stroke-width="0.5" stroke="none" fill="rgb(255, 255, 255)" x="0" y="5.5">MWM</text></g><circle cx="0" cy="0" r="30" fill="none" stroke="#707070" stroke-width="1"></circle></g>
</svg>
