<svg id="Layer_1" data-name="Layer 1" xmlns="http://www.w3.org/2000/svg" width="40" height="40" viewBox="0 0 40 40">
  <defs>
    <style>
      .cls-1 {
        fill: red;
      }

      .cls-2 {
        fill: #fff;
      }
    </style>
  </defs>
  <circle class="cls-1" cx="20" cy="20" r="19.62"/>
  <g>
    <path class="cls-2" d="M12,17a5,5,0,0,0-1.53-.21q-2.25,0-2.25,3.33c0,2.1.77,3.14,2.32,3.14A3.63,3.63,0,0,0,11.76,23a4.94,4.94,0,0,0,1-.48l.34-.23.75,1.22-.16.16c-.08.07-.23.19-.47.36a6.59,6.59,0,0,1-.76.45,5.11,5.11,0,0,1-1,.35,4.39,4.39,0,0,1-1.19.17,4.19,4.19,0,0,1-3.23-1.23,5.18,5.18,0,0,1-1.13-3.6,5.35,5.35,0,0,1,1.24-3.75A4.32,4.32,0,0,1,10.51,15a7.51,7.51,0,0,1,1.53.16,7.23,7.23,0,0,1,1.21.32l.44.16-.07,2.59H12.28Z"/>
    <path class="cls-2" d="M18.65,23.62V24.8H14.76V23.62l1-.34V16.8l-1-.41V15.26l3.52-.07,2,4.54,2.14-4.47,3.28-.07v1.2l-1,.41v6.48l1,.34V24.8H21.71V23.62l1.07-.34V18.11c-.17.43-.35.87-.57,1.33s-.45,1-.72,1.5-.47,1-.62,1.28l-1.47.06-1.57-3.23-.23-.71v4.94Z"/>
    <path class="cls-2" d="M30.1,16.8v2.28h2.75v1.5H30.1v2.63h2.41l.31-1.13h1.26V24.8H27V23.62l1-.34V16.8l-1-.41V15.26l3.14-.07h3.81v2.64H32.65l-.34-1Z"/>
  </g>
</svg>
