<svg id="Layer_1" data-name="Layer 1" xmlns="http://www.w3.org/2000/svg" width="40" height="40" viewBox="0 0 40 40">
  <defs>
    <style>
      .cls-1 {
        fill: purple;
      }

      .cls-2 {
        fill: #fff;
      }
    </style>
  </defs>
  <circle class="cls-1" cx="20" cy="20" r="19.62"/>
  <g>
    <path class="cls-2" d="M10.28,23.61V24.8H6.1V23.61l1-.34V16.8l-1-.41V15.26l4.18-.07v1.2l-1,.41v2.34h.93l2.27-3.88,2.49-.07v1.2l-1.22.38-1.8,3,2.55,3.53,1,.34V24.8H11.28V23.61l.79-.32-1.84-2.65h-1v2.63Z"/>
    <path class="cls-2" d="M20.23,23.61V24.8H16.05V23.61l1-.34V16.8l-1-.41V15.26l4.18-.07v1.2l-1.05.41v2.25h3.57V16.8l-1.05-.41V15.26l4.19-.07v1.2l-1,.41v6.47l1,.34V24.8H21.7V23.61l1.05-.34V20.64H19.18v2.63Z"/>
    <path class="cls-2" d="M28.57,21.84,28.78,23a2.84,2.84,0,0,0,1.33.28A2.27,2.27,0,0,0,31.29,23a.93.93,0,0,0,.47-.81.78.78,0,0,0-.34-.64,2.52,2.52,0,0,0-.85-.43,10.18,10.18,0,0,1-1.11-.4,11.48,11.48,0,0,1-1.11-.54,2.32,2.32,0,0,1-.85-.88,2.6,2.6,0,0,1-.34-1.37,2.57,2.57,0,0,1,1-2.13,3.94,3.94,0,0,1,2.5-.76,8.13,8.13,0,0,1,1.43.14,8.9,8.9,0,0,1,1.16.27l.41.14-.07,2.48H32.29L32,16.89a3.92,3.92,0,0,0-1.2-.2,1.82,1.82,0,0,0-1.07.27.81.81,0,0,0,0,1.34,2.71,2.71,0,0,0,.85.43,11.65,11.65,0,0,1,2.21.93,2.35,2.35,0,0,1,.85.84,2.46,2.46,0,0,1,.34,1.31,2.84,2.84,0,0,1-1,2.33,4,4,0,0,1-2.65.84,9.38,9.38,0,0,1-1.44-.13,9.58,9.58,0,0,1-1.19-.27l-.41-.12V21.84Z"/>
  </g>
</svg>
