<svg id="Layer_1" data-name="Layer 1" xmlns="http://www.w3.org/2000/svg" width="40" height="40" viewBox="0 0 40 40">
  <defs>
    <style>
      .cls-1 {
        fill: blue;
      }

      .cls-2 {
        fill: #fff;
      }
    </style>
  </defs>
  <circle class="cls-1" cx="20" cy="20" r="19.62"/>
  <g>
    <path class="cls-2" d="M10.59,23.62v1.19H6.4V23.62l1-.34V16.8l-1-.4V15.26l4.19-.07V16.4l-1.05.4v2.35h.92l2.28-3.89,2.48-.07V16.4L14,16.78l-1.8,3,2.55,3.53,1,.34v1.19H11.58V23.62l.79-.33-1.84-2.64h-1v2.63Z"/>
    <path class="cls-2" d="M20.6,23.62v1.19H16.45V23.62l1-.34V16.8l-1-.4V15.26l3.13-.07h1.3a3.59,3.59,0,0,1,2.43.77,2.63,2.63,0,0,1,.88,2.1,3.17,3.17,0,0,1-1,2.55,4.33,4.33,0,0,1-2.89.86h-.72v1.81Zm-1-6.82v3.07h.72a2,2,0,0,0,1.32-.39,1.47,1.47,0,0,0,.46-1.15,1.64,1.64,0,0,0-.36-1.1,1.3,1.3,0,0,0-1-.43Z"/>
    <path class="cls-2" d="M29.12,23.62v1.19H25V23.62l1-.34V16.8l-1-.4V15.26l3.13-.07h1a4.23,4.23,0,0,1,2.62.71A2.44,2.44,0,0,1,32.72,18a2.64,2.64,0,0,1-1.54,2.57,4.13,4.13,0,0,1,.58.89l.91,1.87.93.31v1.19H31.07l-1.14-2.53a4.36,4.36,0,0,0-.58-1,1,1,0,0,0-.73-.22h-.48v2.25Zm-1-6.82v2.8h.78a1.89,1.89,0,0,0,1.25-.38,1.29,1.29,0,0,0,.45-1,1.37,1.37,0,0,0-.36-1,1.35,1.35,0,0,0-1-.38Z"/>
  </g>
</svg>
