<svg id="Layer_1" data-name="Layer 1" xmlns="http://www.w3.org/2000/svg" width="40" height="40" viewBox="0 0 40 40">
  <defs>
    <style>
      .cls-1 {
        fill: green;
      }

      .cls-2 {
        fill: #fff;
      }
    </style>
  </defs>
  <circle class="cls-1" cx="20" cy="20" r="19.62"/>
  <g>
    <path class="cls-2" d="M8.46,23.62v1.19H4.27V23.62l1-.34V16.8l-1-.41V15.26l4.19-.07v1.2l-1.05.41v2.35h.92l2.28-3.89,2.48-.07v1.2l-1.21.39-1.8,3,2.55,3.53,1,.34v1.19H9.45V23.62l.79-.33L8.4,20.65h-1v2.63Z"/>
    <path class="cls-2" d="M17,24.81l-2.21-8-1-.4V15.26l4-.07v1.2l-1,.41L18,21.74,20,15.3l1.84-.11,1.83,6.53,1.3-4.92-1-.41V15.26l3.89-.07v1.2l-1,.41-2.33,8H22.54l-1.79-6.48c-.22.89-.57,2.15-1.07,3.77s-.77,2.52-.82,2.71Z"/>
    <path class="cls-2" d="M31.74,16.8v2.28h2.75v1.5H31.74v2.63h2.41l.31-1.13h1.26v2.73H28.6V23.62l1-.34V16.8l-1-.41V15.26l3.14-.07h3.82v2.64H34.29l-.34-1Z"/>
  </g>
</svg>
