<svg id="Layer_1" data-name="Layer 1" xmlns="http://www.w3.org/2000/svg" width="40" height="40" viewBox="0 0 40 40">
  <defs>
    <style>
      .cls-1 {
        fill: yellow;
      }

      .cls-2 {
        fill: #231f20;
      }
    </style>
  </defs>
  <circle class="cls-1" cx="19.99" cy="20" r="19.62"/>
  <g>
    <path class="cls-2" d="M6.76,24.81V23.62l1.12-.34V16.8H6.58l-.34,1.3H5V15.24l7.9-.05V18.1H11.62l-.34-1.3H10v6.48l1.13.34v1.19Z"/>
    <path class="cls-2" d="M16.26,24.81l-2.21-8-1-.4V15.26l4-.07v1.2l-1,.41,1.17,4.94,1.91-6.44,1.84-.11,1.83,6.53,1.31-4.92-1-.41V15.26l3.89-.07v1.2l-1,.41-2.33,8H21.82L20,18.33c-.22.89-.58,2.15-1.07,3.77s-.78,2.52-.83,2.71Z"/>
    <path class="cls-2" d="M31,16.8v2.28h2.76v1.5H31v2.63h2.42l.31-1.13H35v2.73H27.89V23.62l1-.34V16.8l-1-.41V15.26L31,15.19h3.82v2.64H33.57l-.34-1Z"/>
  </g>
</svg>
