<svg enable-background="new 0 0 477.313 529.182" version="1.1" viewBox="0 0 477.31 529.18" xmlns="http://www.w3.org/2000/svg"><defs><linearGradient id="a" x2="0" y1="529.18" y2="393.71" gradientUnits="userSpaceOnUse"><stop stop-color="#fff" offset="0"/><stop stop-color="#fbfbfb" offset=".1386"/><stop stop-color="#f0f0f0" offset=".2659"/><stop stop-color="#dedede" offset=".3888"/><stop stop-color="#c3c3c3" offset=".5091"/><stop stop-color="#a1a1a1" offset=".6273"/><stop stop-color="#787878" offset=".7442"/><stop stop-color="#474747" offset=".8599"/><stop stop-color="#0f0f0f" offset=".9719"/><stop offset="1"/></linearGradient></defs><g fill-rule="evenodd"><path d="m61.385,424.602c-33.696,3.816-53.244,9.686-60.012,18.289-6.588,8.531 11.664,21.203 20.592,32.58 8.856,11.268 14.4,33.947 32.58,34.848 18.36.576 55.08-30.203 75.996-30.275 20.592.143 28.764,34.164 47.448,30.275 18.72-4.393 44.316-52.813 64.008-54.863 19.512-1.801 36.864,30.959 52.596,43.451 15.553,12.348 26.532,30.637 40.572,30.275 14.04-.646 19.764-17.531 42.876-33.156 23.148-15.768 53.928-35.314 94.284-60.012v-42.299l-343.476,9.719c-22.464,7.056-44.964,14.113-67.464,21.168z" fill="url(#a)"/><path d="m60.773,116.262 59.724-54.828v-19.908l-3.6.324 31.032-28.08 9.144,5.868 33.624-2.304 .144-8.388-3.708-.396c.648-2.34 1.692-3.816 2.988-4.716 1.224-.972 3.384-.972 4.68-.54 1.296.468 2.34,1.908 2.988,2.952 .504.9.648,1.8.288,2.556l-3.672.144 .252,8.244 39.384-1.836-.288-9.108-3.96-.145c1.548-3.384 3.024-5.364 4.824-6.084 1.728-.756 4.32.972 5.544,1.98 1.08,1.008 1.512,2.16 1.152,3.852l-3.42.252 .576,8.82c16.127-.936 32.292-1.872 48.456-2.844v.108l7.236,44.928-2.952.72 2.232,113.4 25.02,32.148 .792,57.348 29.448,15.984 23.256,22.895-2.196.721v54.072h51.265l-.036-12.492h6.516v12.709l47.809.07 1.979,24.912-4.14-.18 .18,56.664-122.688-.359 .252-20.447-96.769-.217-14.04,5.688-81.576-.467-18.288,5.939-81.324.467 3.348-308.735-2.916-.036 .684-.792 .756-.863z" stroke="#000" stroke-miterlimit="10" stroke-width=".036"/><path d="m158.729,20.466 126.972-7.092-9,18.468-98.172,5.076-4.392-3.996 .432-5.652h3.96c-.252-2.412-1.08-3.996-2.484-4.896-1.476-1.008-4.572-1.152-5.94-.576-1.44.612-2.268,1.944-2.484,4.14l2.952,1.044-.216,3.744c-3.852-3.42-7.74-6.84-11.628-10.26z" fill="#a1a1a1" stroke="#000" stroke-miterlimit="10" stroke-width=".036"/><path d="m189.797,25.938c-6.732.9-11.556,1.692-11.412,2.808 .108,1.008 3.276,3.528 12.564,3.384 9.252-.252 31.5-3.204 42.732-4.428 11.16-1.332 17.568-3.204 23.94-3.096 6.192.144 10.548,3.42 13.752,3.852 3.204.252 5.724-1.044 5.472-1.8-.432-.72-8.315-.756-7.416-2.628 .937-2.16 12.78-8.136 12.889-9.324-.145-1.188-7.488,1.548-12.889,2.52-5.436.864-10.439,1.944-19.044,2.952-8.748.9-22.176,2.016-32.364,2.952-10.332.9-21.492,1.836-28.224,2.808z" fill="#808080"/><g stroke="#000" stroke-miterlimit="10" stroke-width=".036"><path d="m276.377,33.606-.468,116.928c-17.784-20.088-33.048-37.8-46.368-53.568-13.356-15.876-24.228-29.196-33.048-40.788v-4.86l2.808-.108c.036-1.224-.54-2.304-1.332-2.844-.936-.648-2.556-1.224-3.888-.9-1.404.252-2.844,1.152-4.32,2.556l-9.648-10.908 96.264-5.508z" fill="#fff"/><path d="m231.3 65.646h15.192v21.564h-15.192v-21.564z"/><path d="m278.033,33.499 8.172-16.524 6.552,38.844-3.275,1.332 2.088,111.78-13.968-18-.181-44.496 .612-72.936z" fill="#fff"/><path d="m282.35 151.36v-16.956l5.651 7.74v15.048l-3.275-4.032-2.376-1.8z"/><path d="m226.373,97.722-77.58-79.344-25.704,22.14-.18,24.12-.432-.072-57.816,52.632-2.7,306.396 7.092-.035 .216-12.527h8.856l.252,13.031 51.408-.252v-58.285l30.744-.215 .972,53.352 34.776-.791 33.732.576 2.268-106.309 .576-167.472-1.116-31.428-55.476-48.492v-4.932l49.896,40.104v-1.224l.216-.973z" fill="#fff"/><path d="m138.89 82.242h16.884v15.336h-16.884v-15.336z"/><path d="m175.29 85.302h12.132v8.676h-12.132v-8.676z"/><path d="m106.06 85.302h12.132v8.676h-12.132v-8.676z"/><path d="m234.365,115.218 82.332,90.072 .54,51.66-44.748-29.268-.288,36.936-24.588-15.192-.828,117.683 .288,48.564-6.624,2.232-8.568-.287 2.484-94.213 .54-79.416-.54-128.771z" fill="#a1a1a1"/><path d="m250.097,254.25 80.425,52.775 .252,102.457-10.765.252 .288-79.561-65.483-.287-.576,82.619-5.508,1.656 1.115-133.74 .252-26.171z" fill="#fff"/><path d="m256.721,331.615 .288,80.387 61.885.289-.54-80.389-61.633-.287z" fill="#a1a1a1"/><path d="m348.449,413.119v-40.32l6.912-18.541h11.88l.828-54.396-20.16-20.268-.54,33.445 4.68,3.6v3.023l-18.504-10.225-.54,104.186 15.444-.504z" fill="#a1a1a1"/><path d="m340.17 371.9v25.703l4.284 0.793-0.252-25.344-4.032-1.152z"/><path d="m354.82 300.04v12.996l3.708 2.734v-12.635l-3.708-3.095z"/><path d="m274.54 233.15 71.928 45.648-1.367 32.723-70.057-46.15-0.504-32.221z" fill="#fff"/><path d="m311.84 268.33h15.552v20.412h-15.552v-20.412z"/><path d="m356.12 355.7 117.58 0.252-1.62 19.332-122.11-1.621 6.156-17.963z" fill="#efefef"/></g><path d="m364.721,357.57c4.752-.18 21.421.217 23.076,1.332 1.477,1.045-11.88,3.348-13.968,5.111-2.16,1.766 3.564,4.248 1.08,5.365-2.664.971-14.652,1.295-16.38.539-1.62-.971 5.904-3.959 6.191-5.652 .036-1.727-5.363-3.203-5.363-4.283-.072-1.259.648-2.16 5.364-2.412z" fill="#c0c0c0"/><g stroke="#000" stroke-miterlimit="10" stroke-width=".036"><path d="m350.5 412.72 0.504-35.965 113.54 2.16 0.828 55.801-113-0.504 0.54-20.412-2.412-1.08z" fill="#fff"/><path d="m466.1 377.95 5.94 1.547-0.144 55.729-5.509-0.289-0.287-56.987z" fill="#efefef"/><path d="m353.09 381.12h8.893v15.768h-8.893v-15.768z"/><path d="m363.93 381.12h8.893v15.768h-8.893v-15.768z"/><path d="m413.14 381.12h8.855v15.768h-8.855v-15.768z"/><path d="m423.98 381.12h8.892v15.768h-8.892v-15.768z"/><path d="m446.22 396.16h16.776v39.205h-16.776v-39.205z"/><path d="m448.2 398h13.104v14.365h-13.104v-14.365z" fill="#c0c0c0"/><path d="m137.63 370.93h16.128v26.029h-16.128v-26.029z" fill="#c0c0c0"/></g></g></svg>
