<svg xmlns="http://www.w3.org/2000/svg" id="Layer_1" data-name="Layer 1" viewBox="0 0 28.35 28.35"><defs><clipPath id="clippath"><circle cx="14.17" cy="14.17" r="14.17" style="fill:none"/></clipPath><style>.cls-4{fill:#231f20}</style></defs><g style="clip-path:url(#clippath);fill:none"><circle cx="14.17" cy="14.17" r="18.43" style="fill:#fff" transform="rotate(-25.65 14.168 14.176)"/><path d="M8.53 15.46v2.65h-.9v-2.65H5.17v-.78h2.46v-2.4h.9v2.4h2.44v.78H8.53ZM17.19 16.15c-.19.7-.34 1.45-.47 1.95h-4.8v-.31c.63-.62 1.33-1.28 1.92-1.98.84-.99 1.32-1.89 1.32-2.8 0-.83-.43-1.43-1.26-1.43-.72 0-1.21.5-1.61 1.07l-.35-.29.77-1.13c.46-.44 1.05-.74 1.81-.74 1.19 0 2.18.8 2.18 2.13 0 .95-.49 1.69-1.68 2.82l-1.44 1.37h1.95c.72 0 .81-.02 1.26-.8l.4.14ZM23.15 14.37c0 1.75-.63 3.88-2.65 3.88s-2.66-2.14-2.66-3.87.68-3.88 2.66-3.88 2.65 2.13 2.65 3.87Zm-3.67-.04c0 1.62.25 3.43 1.04 3.43s.99-1.75.99-3.41S21.26 11 20.48 11s-1.01 1.74-1.01 3.34Z" class="cls-4"/></g></svg>