<svg xmlns="http://www.w3.org/2000/svg" id="Layer_1" data-name="Layer 1" viewBox="0 0 28.35 28.35"><defs><clipPath id="clippath"><circle cx="14.17" cy="14.17" r="14.17" style="fill:none"/></clipPath><style>.cls-3{fill:#fff}.cls-5{stroke:#231f20;fill:#c97645;fill-rule:evenodd;stroke-miterlimit:10;stroke-width:.1px}</style></defs><g style="clip-path:url(#clippath);fill:none"><circle cx="14.17" cy="14.17" r="18.43" style="stroke:#231f20;fill:#231f20;stroke-width:1.02px" transform="rotate(-.48 14.264 14.384)"/><g id="XHCE6c.tif"><path d="M18.78 15.91c.32-.05.62-.09.93-.14.4-.06.81-.13 1.21-.19.13-.02.23 0 .28.14l.48 1.26c0 .03 0 .06.02.12l-2.42.36v.03l2.49-.12c.03.15.06.31.09.49-.85.16-1.69.24-2.55.21.85.16 1.71.13 2.61.08 0 .4.03.79 0 1.18-.04.45-.15.89-.23 1.33 0 .02 0 .03-.01.04-.18.53-.2.55-.75.55H8.83c.38-.15.6-.46.77-.81.05-.1.1-.12.21-.11.75.04 1.5.07 2.25.11h.16c-.83-.12-1.63-.24-2.45-.36.05-.18.09-.36.14-.54 1.23.11 2.46.25 3.7.17-1.23-.04-2.43-.25-3.65-.46 0-.06.01-.11.02-.15.09-.86.03-1.7-.28-2.51-.14-.38-.35-.71-.69-.96.26.03.52.05.78.07.78.07 1.56.14 2.34.2.83.06 1.66.12 2.49.17.6.03 1.2.02 1.8.04.08 0 .18.03.24.08.3.21.62.35.99.4-.31-.16-.62-.33-.86-.61.29-.34.57-.67.86-1 .1-.12.21-.24.31-.37.07-.1.16-.15.28-.14.16.01.32.02.47.05.18.04.26.13.25.32-.03.3-.09.6-.14.9 0 .05-.02.09-.04.16Z" class="cls-5"/><path d="M7.03 18.5c0-.73.08-1.36.34-1.95.11-.25.26-.49.44-.69.35-.39.79-.38 1.16 0 .32.33.49.74.6 1.18.28 1.13.26 2.25-.19 3.33-.1.23-.25.46-.42.65-.34.37-.77.36-1.13.01-.27-.27-.43-.6-.55-.96a4.91 4.91 0 0 1-.25-1.55Zm2.34-.08c-.03-.26-.04-.53-.08-.79-.06-.38-.16-.74-.4-1.06-.3-.4-.7-.4-1 0-.1.13-.18.27-.23.42-.31.85-.32 1.72-.1 2.6.07.28.18.54.37.76.27.3.62.31.88 0 .12-.14.22-.31.29-.49.19-.46.25-.95.26-1.44Z" class="cls-5"/><path d="M9.37 18.42c-.02.5-.07.98-.26 1.44-.07.17-.17.34-.29.49-.26.31-.62.3-.88 0a1.8 1.8 0 0 1-.37-.76c-.22-.87-.22-1.75.1-2.6.06-.15.14-.29.23-.42.3-.39.7-.39 1 0 .23.31.34.68.4 1.06.04.26.06.53.08.79Zm-1.73.14c.02.15.04.44.09.73.06.31.15.62.36.88.19.23.41.24.58 0 .12-.17.22-.36.28-.56.23-.76.23-1.53.02-2.3-.06-.22-.17-.43-.3-.62-.17-.24-.4-.23-.58 0-.08.1-.14.21-.19.32-.2.45-.24.92-.26 1.55Z" class="cls-5"/><path d="M7.64 18.55c.01-.62.06-1.1.26-1.55.05-.11.11-.22.19-.32.18-.24.41-.25.58 0 .13.19.24.4.3.62.21.76.21 1.54-.02 2.3-.06.2-.16.39-.28.56-.17.24-.4.24-.58 0-.21-.26-.3-.56-.36-.88-.05-.29-.07-.58-.09-.73Zm.32-.13c.05.22.09.43.16.64.04.12.12.21.26.22.14 0 .22-.09.27-.21.17-.43.18-.87 0-1.3-.05-.11-.13-.21-.27-.21s-.23.1-.26.21c-.06.21-.11.42-.16.64Z" class="cls-5"/><path d="M7.96 18.42c.05-.22.1-.44.16-.64.04-.12.12-.21.26-.21s.22.1.27.21c.17.43.17.87 0 1.3-.04.11-.13.21-.27.21s-.22-.1-.26-.22c-.06-.21-.11-.42-.16-.64Zm.42.61c.21-.28.21-.99 0-1.22-.2.25-.2.92 0 1.22Z" class="cls-5"/><path d="M8.38 19.03c-.2-.3-.2-.96 0-1.22.21.22.21.94 0 1.22Z" class="cls-5"/></g><path d="M9.86 10.98v1.99h-.68v-1.99H7.33v-.59h1.85v-1.8h.68v1.8h1.84v.59H9.86ZM13.03 12.97v-.31c.71-.05.79-.18.79-.82V8.57c0-.47-.04-.53-.41-.56l-.46-.04v-.26c.59-.09 1.26-.25 2.05-.47v4.59c0 .62.06.77.78.82v.31h-2.76ZM20.85 10.16c0 1.31-.48 2.92-1.99 2.92s-2-1.61-2-2.91.51-2.92 2-2.92 1.99 1.6 1.99 2.91Zm-2.75-.03c0 1.22.19 2.58.78 2.58s.75-1.31.75-2.57-.19-2.52-.77-2.52-.76 1.31-.76 2.51Z" class="cls-3"/></g></svg>