<?xml version="1.0" encoding="UTF-8" standalone="no"?>
<svg
   xmlns:dc="http://purl.org/dc/elements/1.1/"
   xmlns:cc="http://creativecommons.org/ns#"
   xmlns:rdf="http://www.w3.org/1999/02/22-rdf-syntax-ns#"
   xmlns:svg="http://www.w3.org/2000/svg"
   xmlns="http://www.w3.org/2000/svg"
   xmlns:sodipodi="http://sodipodi.sourceforge.net/DTD/sodipodi-0.dtd"
   xmlns:inkscape="http://www.inkscape.org/namespaces/inkscape"
   width="17.409584mm"
   height="17.409584mm"
   viewBox="0 0 17.409584 17.409584"
   version="1.1"
   id="svg1870"
   inkscape:version="1.0.1 (3bc2e813f5, 2020-09-07)"
   sodipodi:docname="ATSF.svg">
  <defs
     id="defs1864" />
  <filter id="grayscale">
    <feColorMatrix type="saturate" values="0.4"/>
  </filter>
  <sodipodi:namedview
     id="base"
     pagecolor="#ffffff"
     bordercolor="#666666"
     borderopacity="1.0"
     inkscape:pageopacity="0.0"
     inkscape:pageshadow="2"
     inkscape:zoom="2.1760267"
     inkscape:cx="30.702679"
     inkscape:cy="137.18026"
     inkscape:document-units="mm"
     inkscape:current-layer="layer1"
     inkscape:document-rotation="0"
     showgrid="false"
     fit-margin-top="0"
     fit-margin-left="0"
     fit-margin-right="0"
     fit-margin-bottom="0"
     inkscape:window-width="1920"
     inkscape:window-height="1054"
     inkscape:window-x="0"
     inkscape:window-y="26"
     inkscape:window-maximized="1" />
  <metadata
     id="metadata1867">
    <rdf:RDF>
      <cc:Work
         rdf:about="">
        <dc:format>image/svg+xml</dc:format>
        <dc:type
           rdf:resource="http://purl.org/dc/dcmitype/StillImage" />
        <dc:title />
      </cc:Work>
    </rdf:RDF>
  </metadata>
  <g
     inkscape:label="Layer 1"
     inkscape:groupmode="layer"
     id="layer1"
     filter="url(#grayscale)"
     transform="translate(-102.28184,42.237323)">
    <circle
       class="st1"
       cx="110.98663"
       cy="-33.532532"
       id="circle3408"
       style="fill:#ffffff;stroke:#ffffff;stroke-width:0.264583;stroke-miterlimit:10"
       r="8.5725002" />
    <path
       d="m 110.37122,-26.291901 c -0.7398,-0.07133 -1.51321,-0.241607 -1.82701,-0.402819 -0.0568,-0.02858 -0.12629,-0.05137 -0.15259,-0.05137 -0.0554,0 -0.36196,-0.128089 -0.46324,-0.193461 -0.0372,-0.02317 -0.10131,-0.04995 -0.14168,-0.06038 -0.0995,-0.02317 -0.72209,-0.393742 -0.87831,-0.523171 -0.0659,-0.05496 -0.14214,-0.108522 -0.16848,-0.117147 -0.0886,-0.0336 -0.59448,-0.461418 -0.83199,-0.704377 -0.29475,-0.301556 -0.9192,-1.041348 -0.9846,-1.167146 -0.0267,-0.05317 -0.0871,-0.147142 -0.13487,-0.211173 -0.0958,-0.131257 -0.27838,-0.470045 -0.307,-0.569504 -0.0103,-0.03721 -0.0726,-0.168485 -0.13488,-0.294284 -0.0635,-0.126287 -0.12396,-0.259307 -0.13488,-0.294734 -0.009,-0.0372 -0.0514,-0.158046 -0.094,-0.26976 -0.11355,-0.29973 -0.26251,-0.863774 -0.30837,-1.167147 -0.27158,-1.786598 0.0886,-3.603164 1.0041,-5.068225 0.52136,-0.833805 1.22574,-1.580869 1.97961,-2.098583 0.3406,-0.234346 0.77521,-0.500476 0.81609,-0.500476 0.0128,0 0.064,-0.0282 0.11715,-0.06359 0.20208,-0.138516 0.87104,-0.386934 1.44371,-0.53952 0.67804,-0.17894 0.95643,-0.211187 1.83292,-0.209371 0.65078,0 0.83017,0.009 1.09949,0.05317 0.35513,0.06038 0.88012,0.198919 1.30746,0.344245 0.39556,0.136689 1.19396,0.535878 1.53274,0.768409 0.15803,0.108135 0.34788,0.233882 0.42053,0.2802 0.18121,0.115345 0.69211,0.581758 0.97777,0.892391 0.66168,0.723442 1.22754,1.685323 1.54317,2.62357 0.16304,0.487757 0.22889,0.773416 0.2961,1.309293 0.13307,1.043164 0.0835,1.92648 -0.16123,2.896973 -0.18618,0.736173 -0.7257,1.828835 -1.22253,2.47644 -0.41328,0.53907 -1.31975,1.392403 -1.76844,1.665794 -0.0726,0.04583 -0.14033,0.08857 -0.14714,0.09771 -0.007,0.009 -0.15805,0.09398 -0.33561,0.191194 -0.57268,0.314264 -1.17442,0.567676 -1.54863,0.653051 -0.0832,0.01957 -0.16303,0.04093 -0.1753,0.04957 -0.0285,0.01777 -0.46322,0.10672 -0.73978,0.150774 -0.17577,0.02858 -1.1549,0.08355 -1.37515,0.07813 -0.0585,-0.0013 -0.20936,-0.01403 -0.33516,-0.02445 z m -1.6994,-2.462357 c -0.0103,-0.720262 -0.0177,-1.548621 -0.0177,-1.839725 v -0.53226 l -1.87695,0.0077 c -1.03272,0.0051 -1.88423,0.01584 -1.89469,0.02638 -0.0231,0.02317 0.2625,0.619453 0.41509,0.867405 0.14396,0.234346 0.49864,0.713464 0.72572,0.98141 0.36695,0.432789 0.84243,0.849692 1.35516,1.192121 0.37785,0.251596 1.08766,0.606282 1.21346,0.606282 h 0.0977 z m 5.15496,1.108561 c 0.86061,-0.420533 1.70667,-1.098108 2.28706,-1.825192 0.21799,-0.277035 0.54633,-0.775219 0.64217,-0.979582 0.0423,-0.09037 0.0886,-0.17894 0.10259,-0.196654 0.0568,-0.07261 0.17394,-0.395558 0.15985,-0.434603 -0.0146,-0.0372 -0.20572,-0.04274 -1.73164,-0.04274 -0.94189,0 -1.77023,0.0077 -1.83972,0.01776 l -0.12398,0.01777 v 1.822025 c 0,1.727548 0.004,1.821562 0.0477,1.821562 0.0267,0 0.23252,-0.09037 0.45596,-0.200284 z m -8.20634,-4.699457 c 0.22526,-0.07454 0.30154,-0.136251 0.39737,-0.322902 0.055,-0.108135 0.069,-0.17348 0.0709,-0.335156 0.004,-0.450501 -0.099,-0.590833 -0.61174,-0.840614 -0.40281,-0.197091 -0.38693,-0.177575 -0.39919,-0.493204 -0.007,-0.133058 8.7e-4,-0.175746 0.0459,-0.223429 0.19892,-0.218447 0.49683,-0.158046 0.64398,0.131244 0.0658,0.131244 0.14895,0.182569 0.23977,0.147142 0.12577,-0.04814 -0.0176,-0.401004 -0.24341,-0.592649 -0.14169,-0.122168 -0.15259,-0.125772 -0.31563,-0.12397 -0.22343,0.0013 -0.33334,0.04223 -0.45233,0.163028 -0.13125,0.134887 -0.18076,0.287474 -0.17938,0.553604 0,0.376029 0.08,0.480483 0.51636,0.683032 0.30881,0.143511 0.39056,0.205729 0.45052,0.336972 0.0621,0.136702 0.0658,0.366941 0.0103,0.475489 -0.0531,0.1026 -0.26612,0.239328 -0.37421,0.239328 -0.15803,0 -0.39056,-0.209359 -0.39056,-0.35287 0,-0.113543 -0.0568,-0.161677 -0.17529,-0.152588 -0.10492,0.009 -0.10673,0.0103 -0.11356,0.125773 -0.0103,0.150772 0.0972,0.379659 0.22527,0.477303 0.0745,0.05677 0.3406,0.158045 0.44324,0.168486 0.0103,0.0013 0.10492,-0.02678 0.21298,-0.06398 z m 1.89287,-0.04762 c 0.0446,-0.02317 0.10994,-0.07261 0.14532,-0.111741 0.0909,-0.09578 0.10851,-0.08715 0.10851,0.04957 0,0.09758 0.0103,0.122554 0.0568,0.136689 0.083,0.02678 0.17711,-0.0077 0.19301,-0.06899 0.0231,-0.08535 -0.0128,-1.775695 -0.0372,-1.845185 -0.0159,-0.03901 -0.044,-0.06038 -0.0868,-0.06038 -0.0817,0 -0.11353,0.04082 -0.1367,0.168486 l -0.0177,0.101313 -0.0886,-0.09398 c -0.19165,-0.202098 -0.4773,-0.253861 -0.81064,-0.143511 -0.21118,0.069 -0.31245,0.161225 -0.41692,0.381474 -0.10491,0.219812 -0.13849,0.413273 -0.12628,0.698932 0.0159,0.386469 0.16168,0.643974 0.44915,0.794746 0.15259,0.07943 0.60991,0.07634 0.76796,-0.0077 z m 1.11764,-0.578129 c 0.009,-0.65305 0.0103,-0.667133 0.0781,-0.798377 0.0372,-0.07454 0.10814,-0.161676 0.15758,-0.193473 0.19165,-0.129428 0.47049,-0.03721 0.61219,0.200283 l 0.0745,0.128089 0.007,0.66487 0.009,0.663502 h 0.0907 c 0.18257,0 0.17348,0.02497 0.17348,-0.587216 0,-0.567674 -0.03,-0.822901 -0.11856,-0.993202 -0.12629,-0.242971 -0.37465,-0.404647 -0.62262,-0.406463 -0.19165,0 -0.27339,0.0354 -0.39239,0.168487 l -0.099,0.113542 v -0.09539 c -8.7e-4,-0.124485 -0.0536,-0.193473 -0.1367,-0.18302 -0.0621,0.009 -0.0659,0.02137 -0.0835,0.252047 -0.009,0.133059 -0.0177,0.56949 -0.0196,0.972308 l -0.004,0.728901 0.10132,0.0103 c 0.055,0.0051 0.11354,0.01287 0.13125,0.01635 0.0231,0.0026 0.0335,-0.175759 0.0408,-0.661688 z m 1.95508,-0.222077 v -0.888748 l 0.0832,0.01764 c 0.0446,0.0103 0.12256,0.0103 0.17394,0.0013 0.0781,-0.01584 0.0921,-0.0282 0.0921,-0.09038 -8.6e-4,-0.120751 -0.0354,-0.148957 -0.15623,-0.131243 -0.0763,0.01287 -0.11496,0.0077 -0.13805,-0.02137 -0.0178,-0.02137 -0.039,-0.168487 -0.0481,-0.335158 -0.0159,-0.328346 -0.0372,-0.371034 -0.1594,-0.330162 l -0.0763,0.02497 -0.0128,0.319258 -0.014,0.319271 -0.29429,0.02858 v 0.106205 c 0,0.09578 0.007,0.108136 0.0672,0.115344 0.0372,0.0039 0.10673,0.01287 0.15441,0.02137 l 0.0867,0.01403 v 0.679401 c 0,0.374214 0.007,0.753875 0.0177,0.842881 0.0178,0.170313 0.0286,0.184385 0.16349,0.189843 l 0.0604,0.0026 z m 1.69395,0.819734 c 0.0494,-0.02678 0.13852,-0.09037 0.19891,-0.143511 l 0.10621,-0.09578 0.009,0.123969 c 0.003,0.069 0.0227,0.138517 0.0404,0.152587 0.0518,0.04274 0.15258,0.0051 0.18119,-0.069 0.014,-0.03591 0.0246,-0.475488 0.0246,-0.977767 v -0.913284 l -0.11353,0.009 -0.11496,0.009 -0.007,0.133073 c -0.0103,0.150771 -0.0446,0.210723 -0.0725,0.122168 -0.0103,-0.0318 -0.0922,-0.111741 -0.18303,-0.177111 -0.14169,-0.103115 -0.18076,-0.11895 -0.29974,-0.11895 -0.16121,0 -0.40237,0.05857 -0.54815,0.133072 -0.12217,0.06179 -0.23932,0.233882 -0.3406,0.498184 -0.0904,0.236162 -0.0958,0.507738 -0.014,0.764778 0.0977,0.310634 0.24115,0.466401 0.52862,0.578128 0.1367,0.05175 0.47911,0.03592 0.60492,-0.0282 z m 1.94599,0.04081 c 0.0531,0 0.0568,-0.01584 0.0746,-0.569503 0.0103,-0.314264 0.0231,-0.57312 0.0285,-0.578579 0.004,-0.0051 0.18076,-0.01583 0.39374,-0.02445 0.23254,-0.01029 0.39376,-0.02858 0.40466,-0.04634 0.0128,-0.01583 0.0208,-0.06218 0.0208,-0.09951 0,-0.05999 -0.014,-0.07261 -0.10079,-0.08676 -0.055,-0.01029 -0.24115,-0.01776 -0.41509,-0.01776 h -0.31607 v -0.933263 l 0.39237,-0.01287 c 0.34923,-0.0103 0.39738,-0.01777 0.43097,-0.06398 0.0214,-0.0282 0.0354,-0.08677 0.03,-0.131256 l -0.007,-0.08124 -0.53224,0.0051 c -0.29292,0 -0.54135,0.01029 -0.54998,0.02137 -0.0103,0.0103 -0.0231,0.612178 -0.0268,1.336083 l -0.007,1.316104 0.0604,-0.01584 c 0.0336,-0.009 0.0867,-0.01584 0.11857,-0.01584 z m 2.3611,-0.0354 c 0.14941,-0.07813 0.44006,-0.434616 0.44006,-0.537705 0,-0.04094 -0.055,-0.07081 -0.13308,-0.07081 -0.0264,0 -0.1062,0.0672 -0.1771,0.150773 -0.13852,0.163041 -0.33879,0.278385 -0.48276,0.278385 -0.085,0 -0.30518,-0.09951 -0.40282,-0.182569 -0.094,-0.07813 -0.14169,-0.173932 -0.16122,-0.316079 l -0.0177,-0.136237 0.45051,-0.01777 c 0.24841,-0.01029 0.57495,-0.01777 0.72753,-0.01777 h 0.2784 l -8.6e-4,-0.101313 c 0,-0.246603 -0.13307,-0.560414 -0.32471,-0.769774 -0.10081,-0.111741 -0.15442,-0.145777 -0.28748,-0.184834 -0.21798,-0.06179 -0.37058,-0.05857 -0.5586,0.01454 -0.28929,0.109938 -0.4664,0.36877 -0.52498,0.766143 -0.0763,0.528617 0.16485,1.037718 0.5427,1.144437 0.17893,0.04957 0.52136,0.04042 0.63306,-0.01957 z m -7.94886,-3.57819 c 0.009,-0.02317 0.0159,-0.851518 0.0159,-1.837911 0,-1.788413 0,-1.797038 -0.0568,-1.82747 -0.0409,-0.02086 -0.0696,-0.01957 -0.11355,0.009 -0.0321,0.02137 -0.0958,0.04634 -0.14214,0.05496 -0.0781,0.01403 -0.78067,0.383303 -1.01637,0.534075 -0.34969,0.221628 -1.17986,0.966877 -1.40512,1.26116 -0.3247,0.425979 -0.42916,0.576751 -0.59583,0.856964 -0.10311,0.173932 -0.20573,0.361947 -0.22888,0.418719 -0.0231,0.05677 -0.0763,0.175295 -0.11895,0.264301 -0.0427,0.08857 -0.085,0.193473 -0.0958,0.233895 l -0.0176,0.07492 h 1.87878 c 1.68897,0 1.88016,-0.0039 1.89651,-0.04274 z m 8.4048,-0.02678 c -0.0227,-0.08857 -0.30517,-0.700746 -0.36331,-0.791116 -0.025,-0.0354 -0.089,-0.145328 -0.14215,-0.241157 -0.25522,-0.465035 -0.94914,-1.243884 -1.44734,-1.624908 -0.0568,-0.04454 -0.18484,-0.142147 -0.28067,-0.220263 -0.0958,-0.07633 -0.20027,-0.147142 -0.23023,-0.156231 -0.0304,-0.0103 -0.14579,-0.07762 -0.25569,-0.148956 -0.25523,-0.166671 -0.84244,-0.454146 -0.92781,-0.454146 -0.0654,0 -0.0654,0 -0.085,0.392379 -0.0103,0.214367 -0.0103,1.048171 0,1.851994 l 0.0196,1.461882 h 3.73031 z"
       style="fill:#0f679f;fill-opacity:1;fill-rule:nonzero;stroke:none;stroke-width:0.454141"
       id="path706" />
    <path
       d="m 107.00966,-32.545436 c -0.12255,-0.03901 -0.25568,-0.13306 -0.34243,-0.244774 -0.12075,-0.150785 -0.18483,-0.468228 -0.13851,-0.675773 0.0641,-0.285658 0.28566,-0.525436 0.53045,-0.569488 0.15077,-0.02858 0.36194,0.04582 0.49138,0.175745 0.15077,0.150786 0.19891,0.321087 0.18619,0.663054 -0.009,0.250232 -0.0128,0.264315 -0.1026,0.377845 -0.18801,0.234332 -0.42416,0.337422 -0.62443,0.273391 z"
       style="fill:#0f679f;fill-opacity:1;fill-rule:nonzero;stroke:none;stroke-width:0.454141"
       id="path708" />
    <path
       d="m 111.78133,-32.559507 c -0.28885,-0.07814 -0.45915,-0.381488 -0.43962,-0.789752 0.014,-0.283394 0.0886,-0.429172 0.29792,-0.583573 0.19529,-0.143513 0.312,-0.153966 0.52317,-0.04957 0.35151,0.175758 0.52182,0.654427 0.36196,1.011379 -0.0818,0.184384 -0.28566,0.376029 -0.44323,0.416451 -0.14943,0.03901 -0.13126,0.04082 -0.3002,-0.0051 z"
       style="fill:#0f679f;fill-opacity:1;fill-rule:nonzero;stroke:none;stroke-width:0.454141"
       id="path710" />
    <path
       d="m 115.65969,-33.50504 c 0,-0.117147 0.0373,-0.207543 0.13808,-0.331977 0.18801,-0.235697 0.50545,-0.282016 0.75568,-0.109938 0.1544,0.106205 0.25932,0.257042 0.27885,0.402819 l 0.014,0.108136 -0.59447,0.009 -0.59221,0.009 z"
       style="fill:#0f679f;fill-opacity:1;fill-rule:nonzero;stroke:none;stroke-width:0.454141"
       id="path712" />
  </g>
</svg>
