<?xml version="1.0" encoding="UTF-8" standalone="no"?>
<svg
   xmlns:dc="http://purl.org/dc/elements/1.1/"
   xmlns:cc="http://creativecommons.org/ns#"
   xmlns:rdf="http://www.w3.org/1999/02/22-rdf-syntax-ns#"
   xmlns:svg="http://www.w3.org/2000/svg"
   xmlns="http://www.w3.org/2000/svg"
   xmlns:sodipodi="http://sodipodi.sourceforge.net/DTD/sodipodi-0.dtd"
   xmlns:inkscape="http://www.inkscape.org/namespaces/inkscape"
   width="17.409584mm"
   height="17.409584mm"
   viewBox="0 0 17.409584 17.409584"
   version="1.1"
   id="svg1870"
   inkscape:version="1.0.1 (3bc2e813f5, 2020-09-07)"
   sodipodi:docname="FW.svg">
  <defs
     id="defs1864" />
   <filter id="grayscale">
    <feColorMatrix type="saturate" values="0.10"/>
  </filter>
 <sodipodi:namedview
     id="base"
     pagecolor="#ffffff"
     bordercolor="#666666"
     borderopacity="1.0"
     inkscape:pageopacity="0.0"
     inkscape:pageshadow="2"
     inkscape:zoom="2.1760267"
     inkscape:cx="30.702679"
     inkscape:cy="137.18026"
     inkscape:document-units="mm"
     inkscape:current-layer="layer1"
     inkscape:document-rotation="0"
     showgrid="false"
     fit-margin-top="0"
     fit-margin-left="0"
     fit-margin-right="0"
     fit-margin-bottom="0"
     inkscape:window-width="1920"
     inkscape:window-height="1054"
     inkscape:window-x="0"
     inkscape:window-y="26"
     inkscape:window-maximized="1" />
  <metadata
     id="metadata1867">
    <rdf:RDF>
      <cc:Work
         rdf:about="">
        <dc:format>image/svg+xml</dc:format>
        <dc:type
           rdf:resource="http://purl.org/dc/dcmitype/StillImage" />
        <dc:title />
      </cc:Work>
    </rdf:RDF>
  </metadata>
  <g
     inkscape:label="Layer 1"
     inkscape:groupmode="layer"
     id="layer1"
     filter="url(#grayscale)"
     transform="translate(-102.28184,42.237323)">
    <circle
       class="st1"
       cx="110.98663"
       cy="-33.532532"
       id="circle3408"
       style="fill:#ffffff;stroke:#ffffff;stroke-width:0.264583;stroke-miterlimit:10"
       r="8.5725002" />
    <path
       d="m 106.66947,-31.043601 c -0.007,-0.01104 -0.007,-1.130288 -0.006,-2.485995 l 0.006,-2.463522 4.32308,-8.39e-4 h 4.32308 l 0.0124,1.203423 c 0.007,0.661712 0.007,1.778377 0,2.480933 l -0.0124,1.278775 -4.31778,0.0055 c -3.44229,0.0018 -4.31999,0 -4.32838,-0.01741 z m 4.00338,-0.701281 c 0.11406,-0.0421 0.12954,-0.05699 0.1866,-0.177932 0.0761,-0.160844 0.0659,-0.486311 -0.0226,-0.712365 -0.0673,-0.175725 -0.35728,-0.258668 -0.54387,-0.153557 -0.0933,0.05195 -0.1521,0.164632 -0.18306,0.348899 -0.0482,0.28938 0.0451,0.609784 0.19677,0.68134 0.1123,0.05322 0.24539,0.05825 0.36612,0.01364 z m -0.2485,-0.105121 c -0.10211,-0.08894 -0.17289,-0.424251 -0.12953,-0.611049 0.0274,-0.122209 0.0691,-0.177932 0.15695,-0.220042 0.12297,-0.05698 0.20074,0.01105 0.25735,0.228908 0.035,0.123474 0.035,0.16685 0.0103,0.325153 -0.0345,0.214028 -0.0831,0.285583 -0.19852,0.293185 -0.0397,0.0036 -0.0832,-0.0055 -0.097,-0.01615 z m 1.28494,0.08769 c 0.12956,-0.06426 0.13841,-0.102581 0.14016,-0.603448 l 8.4e-4,-0.458767 -0.0828,0.0055 -0.0814,0.0045 -0.007,0.437873 c -0.006,0.38942 -0.0103,0.441347 -0.0486,0.482192 -0.0444,0.04722 -0.13267,0.0719 -0.20032,0.05698 -0.0226,-0.0055 -0.0601,-0.03455 -0.0863,-0.06426 -0.0398,-0.04934 -0.0451,-0.09657 -0.0537,-0.487261 l -0.0103,-0.43407 h -0.15875 l -0.005,0.374549 c 0,0.205476 -8.4e-4,0.37866 0,0.384683 0,0.0055 0.005,0.04335 0.007,0.08419 0.007,0.131075 0.0863,0.203888 0.25912,0.242513 0.11896,0.02594 0.24187,0.01705 0.32456,-0.02503 z m -2.3939,-0.08041 c 8.4e-4,-0.06301 8.4e-4,-0.234921 -8.4e-4,-0.383094 -0.006,-0.289693 0.0103,-0.313126 0.0951,-0.148494 0.0226,0.04435 0.0844,0.157038 0.13973,0.24981 0.0538,0.09276 0.12645,0.217502 0.16094,0.27703 0.0601,0.105111 0.0654,0.110174 0.15033,0.114922 0.0483,0.0027 0.0879,0.0027 0.0879,-0.0027 0,-0.0149 -0.11932,-0.226369 -0.26087,-0.464772 -0.0796,-0.134881 -0.14503,-0.258667 -0.14683,-0.276077 -8.4e-4,-0.02092 0.0242,-0.03707 0.0897,-0.05286 0.11405,-0.02846 0.21224,-0.110181 0.2454,-0.205474 0.0429,-0.121266 0.031,-0.316609 -0.0242,-0.409372 -0.0274,-0.04559 -0.0569,-0.08293 -0.0654,-0.08293 -0.0103,0 -0.0433,-0.01713 -0.0742,-0.03832 -0.0521,-0.03447 -0.0778,-0.03706 -0.32675,-0.03706 h -0.27107 l -0.006,0.764284 c -0.002,0.421721 -8.4e-4,0.775377 0.006,0.786774 0.006,0.0123 0.0499,0.02092 0.10529,0.02092 h 0.0932 z m 0.007,-0.816212 c -0.006,-0.01105 -0.007,-0.134557 -0.006,-0.273233 l 0.007,-0.252333 0.0654,-0.0062 c 0.0742,-0.0055 0.19323,0.02217 0.25735,0.06175 0.0327,0.02092 0.0397,0.05321 0.0397,0.188065 0,0.189016 -0.0259,0.25708 -0.10704,0.284308 -0.0797,0.02468 -0.24363,0.02343 -0.25736,-0.0027 z m 3.0209,0.441662 v -0.487253 h 0.0808 c 0.0778,0 0.0832,-0.0036 0.0832,-0.05825 0,-0.05322 -0.007,-0.05798 -0.0761,-0.06301 l -0.0778,-0.0055 -0.007,-0.140885 -0.007,-0.139627 -0.0863,0.0062 -0.0884,0.0055 -0.006,0.138361 -0.007,0.138669 h -0.0706 c -0.0623,0 -0.0691,0.0045 -0.0691,0.05798 0,0.05097 0.007,0.05825 0.0636,0.06337 l 0.0659,0.0045 0.006,0.462564 c 0.005,0.254862 0.0125,0.472372 0.0173,0.484722 0.007,0.0114 0.0486,0.02118 0.0933,0.02118 h 0.0849 z m 0.88742,0.458768 c 0.0659,-0.03958 0.14546,-0.191547 0.14546,-0.275765 v -0.06676 l -0.0884,0.0055 c -0.088,0.0045 -0.088,0.0045 -0.088,0.0814 0,0.130123 -0.12247,0.215294 -0.24362,0.168436 -0.0897,-0.03482 -0.13135,-0.122531 -0.14992,-0.328957 -0.006,-0.05698 8.4e-4,-0.06803 0.0413,-0.06936 0.026,0 0.16094,-0.0027 0.2989,-0.0036 l 0.25381,-0.0027 -8.4e-4,-0.122209 c -8.4e-4,-0.182052 -0.0773,-0.352705 -0.18128,-0.408114 -0.0464,-0.0237 -0.10159,-0.03357 -0.19676,-0.03357 -0.16404,0 -0.21091,0.02594 -0.31085,0.176981 -0.0724,0.107651 -0.0724,0.112398 -0.0706,0.3622 8.4e-4,0.313126 0.0553,0.4366 0.21933,0.518288 0.081,0.03832 0.30731,0.03832 0.37273,-8.39e-4 z m -0.44219,-0.613266 c 0,-0.01015 0.0125,-0.06677 0.0261,-0.126329 0.0415,-0.168122 0.19498,-0.258354 0.29536,-0.17445 0.0464,0.03958 0.12422,0.209272 0.12422,0.274814 v 0.04559 h -0.22284 c -0.15346,0 -0.22287,-0.0062 -0.22287,-0.01965 z m -0.65793,-1.220835 c 0.0451,-0.01615 0.10211,-0.05573 0.12778,-0.08768 0.047,-0.05698 0.0486,-0.09024 0.0553,-0.737064 l 0.006,-0.676592 h -0.097 c -0.0743,0 -0.0932,0.0055 -0.0829,0.02468 0.0191,0.0358 -0.0297,0.04934 -0.0742,0.01993 -0.0691,-0.04335 -0.20739,-0.05321 -0.28167,-0.01867 -0.17466,0.08167 -0.22461,0.195352 -0.2264,0.520504 -8.4e-4,0.202944 0.006,0.252332 0.0518,0.353962 0.0623,0.134557 0.12295,0.176666 0.27679,0.189015 0.0773,0.0062 0.11721,0 0.17246,-0.02819 l 0.0724,-0.03733 v 0.126328 c 0,0.147222 -0.0225,0.200406 -0.10336,0.238718 -0.12295,0.05673 -0.24894,-0.0071 -0.24894,-0.128858 0,-0.04685 -0.006,-0.04935 -0.0964,-0.04935 h -0.0986 l 0.0154,0.08678 c 0.007,0.04686 0.031,0.105112 0.0518,0.12727 0.0915,0.100049 0.31439,0.136146 0.4802,0.07664 z m -0.26397,-0.555336 c -0.10917,-0.08166 -0.1212,-0.126003 -0.11583,-0.422985 0.006,-0.214028 0.0138,-0.289379 0.0429,-0.333705 0.0678,-0.101629 0.20253,-0.108907 0.27989,-0.01615 0.0397,0.04559 0.047,0.09404 0.0537,0.33497 0.007,0.30426 -0.0221,0.433119 -0.11371,0.467626 -0.0641,0.02467 -0.0796,0.02091 -0.1468,-0.02979 z m -3.07792,0.118728 c 0.13616,-0.07278 0.14678,-0.10986 0.15341,-0.591101 0.005,-0.243787 0,-0.450214 -0.007,-0.458766 -0.007,-0.0098 -0.0518,-0.0149 -0.095,-0.01239 l -0.0796,0.0062 -8.3e-4,0.439131 c -0.005,0.425516 -0.006,0.441671 -0.0553,0.492324 -0.0536,0.05448 -0.11545,0.06551 -0.21933,0.03707 -0.0981,-0.0272 -0.11719,-0.108915 -0.12956,-0.560396 l -0.0103,-0.416659 h -0.13663 v 0.445153 c 0,0.371058 0.007,0.456542 0.038,0.513218 0.0379,0.06803 0.11932,0.122532 0.20913,0.139942 0.0897,0.0184 0.27282,0 0.33517,-0.03356 z m 4.86207,0.02253 c 0.057,-0.0072 0.12602,-0.06803 0.18659,-0.160835 0.0536,-0.08293 0.062,-0.122523 0.0724,-0.330224 0.0124,-0.214019 0.007,-0.249801 -0.0416,-0.367262 -0.0451,-0.107642 -0.0691,-0.139942 -0.14857,-0.188064 -0.0518,-0.0323 -0.11583,-0.05825 -0.1415,-0.05951 -0.27635,-0.01104 -0.39044,0.09276 -0.43906,0.399562 -0.0363,0.225103 -0.0125,0.4366 0.0623,0.556591 0.0932,0.151969 0.19012,0.184268 0.44925,0.149751 z m -0.21932,-0.127595 c -0.0588,-0.02594 -0.0796,-0.04935 -0.10044,-0.118725 -0.0328,-0.108908 -0.0328,-0.395755 0,-0.528097 0.0293,-0.122208 0.0778,-0.17445 0.17774,-0.188065 0.0678,-0.0098 0.0796,-0.0045 0.13842,0.05699 0.0553,0.06076 0.0654,0.09276 0.0795,0.251067 0.0274,0.311862 -0.0642,0.560397 -0.20561,0.559132 -0.007,0 -0.0504,-0.01364 -0.0897,-0.0323 z m -5.65843,0.08292 c 0.13309,-0.0595 0.18304,-0.159568 0.18483,-0.37961 8.4e-4,-0.175715 -8.4e-4,-0.18933 -0.0624,-0.256137 -0.0398,-0.0421 -0.0987,-0.08041 -0.15032,-0.09656 l -0.0863,-0.02468 0.081,-0.05448 c 0.0504,-0.03319 0.10388,-0.09371 0.13663,-0.155773 0.0451,-0.08642 0.0518,-0.119991 0.038,-0.234922 -0.0174,-0.159569 -0.0863,-0.275764 -0.18485,-0.309319 -0.0398,-0.01364 -0.16756,-0.02216 -0.32808,-0.02468 l -0.26441,-0.0036 -0.006,0.797534 -0.007,0.797849 0.28298,-0.01015 c 0.2317,-0.009 0.29892,-0.01713 0.3648,-0.0456 z m -0.43555,-0.384672 v -0.321678 h 0.0884 c 0.12603,0 0.24497,0.04846 0.29184,0.117781 0.0536,0.07916 0.057,0.310274 0.007,0.401771 -0.0413,0.07314 -0.0951,0.0953 -0.27458,0.112713 l -0.11232,0.01113 z m 0.0124,-0.458767 c -0.007,-0.01365 -0.0103,-0.152292 -0.007,-0.309321 l 0.007,-0.284318 0.10336,0.0045 c 0.13664,0.0072 0.20738,0.0421 0.23658,0.117783 0.0553,0.145956 8.4e-4,0.420446 -0.0915,0.456227 -0.0827,0.03106 -0.2348,0.04083 -0.24847,0.0149 z m 1.98447,0.560074 c 0,-0.466039 0.0416,-0.587303 0.20207,-0.608511 0.0536,-0.0062 0.0706,-0.0184 0.0761,-0.05537 0.006,-0.02593 8.3e-4,-0.05825 -0.006,-0.07063 -0.0209,-0.03833 -0.10882,-0.0071 -0.17113,0.06175 -0.0709,0.07691 -0.10703,0.08293 -0.0999,0.01867 0.0103,-0.09277 8.4e-4,-0.105119 -0.0724,-0.105119 h -0.0691 v 1.093239 h 0.13972 z m 0.59914,-0.503085 v -0.837426 l -0.0932,-0.0055 -0.0946,-0.0045 0.006,0.779173 c 8.4e-4,0.429 0.005,0.807343 0.006,0.842176 8.4e-4,0.06175 0.006,0.06301 0.0897,0.06301 h 0.088 z m 0.42314,0.782654 c 0.007,-0.0298 0.0103,-0.274499 0.007,-0.542985 l -0.007,-0.487253 -0.0879,-0.0062 -0.088,-0.0055 v 1.095773 h 0.0814 c 0.0724,0 0.0828,-0.0055 0.0946,-0.05448 z m 0.42848,-0.371066 c 0.005,-0.394492 0.007,-0.41919 0.0553,-0.482191 0.0569,-0.07189 0.11407,-0.09023 0.19853,-0.0681 0.11758,0.0323 0.12779,0.08041 0.12779,0.545516 v 0.430265 h 0.0814 c 0.0742,0 0.0832,-0.0055 0.097,-0.05698 0.007,-0.03195 0.0103,-0.238718 0.007,-0.458759 -0.0103,-0.431539 -0.0257,-0.493274 -0.13973,-0.550265 -0.0863,-0.04335 -0.23833,-0.0358 -0.32455,0.01615 -0.0742,0.04434 -0.12471,0.04182 -0.11405,-0.0072 0.006,-0.02091 -0.0138,-0.02853 -0.0814,-0.03319 l -0.088,-0.0055 v 1.098312 l 0.088,-0.0055 0.0884,-0.0062 z m 2.02777,0.395757 c 0,-0.01579 8.4e-4,-0.233658 0.006,-0.483457 l 0.007,-0.454012 0.0761,-0.0045 c 0.0694,-0.0055 0.0761,-0.01104 0.0761,-0.06301 0,-0.05097 -0.007,-0.05699 -0.0761,-0.06201 l -0.0761,-0.0045 -0.0138,-0.277029 h -0.16051 l -0.0138,0.277029 -0.0778,0.0045 c -0.0691,0.0055 -0.0761,0.01104 -0.0761,0.06201 0,0.05195 0.007,0.05798 0.0761,0.06301 l 0.0778,0.0045 0.006,0.483772 0.007,0.483456 h 0.0814 c 0.0618,0 0.0827,-0.0071 0.0827,-0.0298 z m 1.50293,-0.386889 c 8.4e-4,-0.399563 0.002,-0.418239 0.0537,-0.481242 0.0654,-0.08166 0.11054,-0.102581 0.18971,-0.08894 0.12119,0.02216 0.13306,0.06803 0.13306,0.548989 v 0.437866 h 0.18837 v -0.452745 c 0,-0.478387 -0.007,-0.520497 -0.11757,-0.603448 -0.0709,-0.05448 -0.23479,-0.05195 -0.33826,0.0055 -0.0814,0.04308 -0.10881,0.04083 -0.10881,-0.01238 0,-0.0272 -0.0141,-0.03106 -0.0884,-0.0272 l -0.0879,0.0062 -0.005,0.520817 c -0.002,0.28685 -8.4e-4,0.531902 0.005,0.542978 0.007,0.01105 0.0485,0.02092 0.0932,0.02092 h 0.0832 z m -3.97112,-0.91278 c 0.0104,0 0.031,-0.02343 0.0482,-0.05195 0.0297,-0.05062 0.0278,-0.05574 -0.0326,-0.09277 -0.0363,-0.02253 -0.0793,-0.03958 -0.0981,-0.03958 -0.0486,0 -0.12779,0.06049 -0.12779,0.09752 0,0.05698 0.0897,0.110182 0.16049,0.09403 0.0172,-0.0036 0.0398,-0.0071 0.05,-0.0071 z"
       style="fill:#000000;fill-opacity:1;fill-rule:nonzero;stroke:none;stroke-width:0.374157"
       id="path996" />
    <path
       d="m 105.43801,-30.327441 -0.0778,-0.0055 v -6.395138 l 2.93113,-0.009 c 1.61302,-0.0045 4.14002,-0.0098 5.61509,-0.0098 h 2.68043 l 0.0124,0.739585 c 0.007,0.40684 0.0138,1.852787 0.0138,3.214191 v 2.47492 l -5.54968,-0.0027 c -3.05184,-8.38e-4 -5.58235,-0.0055 -5.62526,-0.0071 z m 8.50643,-0.582554 h 1.56662 v -5.235091 l -0.36125,0.009 c -0.19853,0.0055 -2.26081,0.009 -4.58396,0.009 h -4.22449 l 0.006,2.007286 c 8.4e-4,1.104324 0.007,2.28305 0.0154,2.618334 l 0.0125,0.609471 3.00187,-0.009 c 1.65106,-0.0036 3.70671,-0.009 4.56849,-0.009 z"
       style="fill:#c72514;fill-opacity:1;fill-rule:nonzero;stroke:none;stroke-width:0.374157"
       id="path998" />
  </g>
</svg>
