<svg xmlns="http://www.w3.org/2000/svg" width="65.8" height="65.8" viewBox="0 0 17.41 17.41"><filter id="a"><feColorMatrix type="saturate" values=".1"/></filter><g filter="url(#a)" transform="translate(-102.282 42.237)"><circle class="st1" cx="110.987" cy="-33.533" r="8.573" fill="#fff" stroke="#fff" stroke-width=".265" stroke-miterlimit="10"/><path d="M111.158-29.435l-.126-.084c-.726-.493-1.007-.67-1.204-.751a7.613 7.613 0 00-.23-.098 1.487 1.487 0 00-.189-.061 2.498 2.498 0 01-.168-.051 5.14 5.14 0 00-.093-.039 2.044 2.044 0 01-.105-.043 4.597 4.597 0 00-.545-.159 8.972 8.972 0 00-.925-.159c-.04 0-.06-.011-.061-.038a3.793 3.793 0 01.015-.424l.01-.056-.373-.013c-.204-.007-.617-.02-.915-.027-.363-.01-.554-.02-.57-.036a.711.711 0 01-.067-.182 3.864 3.864 0 00-.055-.193c-.027-.069.08-.084.677-.09.313-.005.592-.014.617-.019.122-.034.286-.106.286-.128 0-.013-.061-.028-.15-.038l-.455-.042c-.93-.094-1.183-.119-1.187-.122l-.226-.503c-.12-.273-.238-.535-.263-.585a.474.474 0 01-.042-.113c0-.015.067-.028.193-.038a26.4 26.4 0 00.435-.034l.404-.032c.149-.011.162-.016.162-.058-.002-.126-.01-.132-.227-.147a31.87 31.87 0 01-.528-.046l-.464-.044-.14-.01-.066-.183a1.924 1.924 0 00-.086-.2c-.01-.01-.017-.039-.017-.064a.109.109 0 00-.02-.062 3.13 3.13 0 01-.126-.293l-.107-.273.046-.036c.04-.033.082-.039.298-.035.14.004.329.011.42.021.765.073 1.271.073 1.566-.004.093-.025.097-.044.023-.094-.04-.026-.112-.038-.266-.043a9.195 9.195 0 01-.432-.03c-.12-.009-.358-.024-.524-.031-.733-.027-1.026-.067-1.247-.167-.117-.054-.11-.042-.217-.355a18.91 18.91 0 00-.16-.46c-.12-.343-.14-.412-.126-.425.01-.01.302.072.61.172a17.189 17.189 0 00.983.27c.08.018.27.06.42.095.37.086 1.037.221 1.453.296.191.034.362.067.379.073.017.005.172.034.344.063.173.028.409.073.523.095l.491.094c.35.063.528.097.85.166.139.03.39.082.563.117.43.088.512.135.65.382.043.076.09.145.1.155a.717.717 0 00.169.019.87.87 0 01.18.026c.03.017.041.106.084.708.026.378.055.724.063.768l.014.082.135-.153a12.4 12.4 0 01.166-.184c.035-.034.02-.11-.086-.433a12.148 12.148 0 01-.09-.283c-.09-.292-.095-.65-.01-.783a.8.8 0 01.324-.25c.11-.041.448-.13.609-.161.068-.011.242-.05.386-.085a7.17 7.17 0 01.439-.084c.164-.02.445-.076.628-.122a1.9 1.9 0 01.169-.032 1.79 1.79 0 00.156-.033 9.464 9.464 0 01.795-.166c.566-.094 1.43-.283 1.75-.382.223-.069.209-.067.324-.088.045-.01.155-.038.24-.067.354-.11.918-.23.946-.2.011.009-.002.072-.026.139-.025.067-.086.26-.134.428l-.09.304-.216.05c-.12.024-.33.07-.47.1l-.334.075a8.391 8.391 0 01-.22.048c-.18.038-.383.084-.547.124-.28.067-1.005.222-1.04.222-.042 0-.108.061-.108.1 0 .077.1.072 1.402-.068 1.002-.108 1.28-.13 1.29-.105a.469.469 0 01-.032.15 12.65 12.65 0 00-.117.374c-.044.137-.093.298-.114.355a1.39 1.39 0 00-.052.182c-.008.044-.021.082-.03.088a4.148 4.148 0 01-.444.032c-.235.011-.524.029-.64.037l-.214.01-.046-.09a2.555 2.555 0 00-.315-.456c-.088-.09-.3-.233-.34-.233-.017 0-.039-.01-.044-.02a.607.607 0 00-.153-.068c-.205-.07-.598-.07-.816 0a.529.529 0 00-.153.063c0 .01-.034.03-.078.048a.613.613 0 00-.138.09.223.223 0 01-.077.053c-.046 0-.274.32-.318.443l-.048.134-.293.006c-.265.006-.296.011-.34.051-.026.025-.046.054-.042.063.008.023.183.083.392.133.086.019.16.038.164.041.005.002.011.084.017.18.011.214.048.357.148.596.067.16.099.207.248.356.141.143.207.191.367.27.31.152.594.188.951.124.165-.031.232-.033.534-.012.191.012.436.04.544.058.209.034.457.12.474.164a.428.428 0 01-.03.15c-.039.116-.042.124-.12.135-.077.014-.364.025-1.308.052-.426.014-.524.023-.524.051 0 .011-.013.021-.028.021-.016 0-.044.02-.065.042-.035.038-.036.065-.02.327.015.187.012.288-.001.3-.011.01-.15.036-.304.06-.283.047-.713.146-.732.17-.01.01-.168.055-.346.095a6.113 6.113 0 00-.351.134c-.17.068-.308.122-.308.116 0-.015-.335.134-.396.176a.265.265 0 01-.082.046.03.03 0 00-.029.017.89.89 0 01-.225.149c-.011 0-.023.01-.023.021 0 .011-.01.021-.021.021-.014 0-.096.05-.184.11-.181.122-.162.108-.317.248-.06.057-.132.103-.157.103a.37.37 0 01-.137-.061zm.053-1.185l.063-.03-.005-.184c-.005-.1-.027-.776-.05-1.502-.053-1.73-.065-2.05-.072-2.058-.005-.006-.04-.014-.08-.025-.09-.02-.061-.048-.514.518a7.6 7.6 0 01-.354.424c-.046 0-.11-.029-.11-.048a.633.633 0 00-.08-.128c-.043-.06-.167-.233-.274-.39a2.74 2.74 0 00-.214-.288.034.034 0 01-.018-.029c0-.017-.072-.103-.233-.27a.593.593 0 01-.063-.076.287.287 0 00-.065-.063c-.109-.084-.12-.057-.12.306.007.247.017.556.015.571l.015.465.033 1.162c.01.385.026.707.036.714.01.01.113.021.232.03l.213.009.056-.08c.073-.113.082-.262.04-.62-.051-.414-.021-.623.077-.561.023.013.225.43.31.642.043.105.057.12.1.114.039-.004.06-.026.079-.08a2.32 2.32 0 01.068-.17.662.662 0 00.046-.119c0-.01.011-.045.03-.078l.087-.202c.032-.079.07-.142.086-.142.034 0 .042.063.069.597.065 1.288.082 1.545.1 1.565a.464.464 0 00.16.034c.074.01.143.02.152.03.018.02.096.002.185-.04zm2.286-1.13c.168-.143.19-.32.056-.456-.062-.062-.07-.08-.054-.122.011-.027.033-.09.046-.138l.027-.088-.12-.138a.76.76 0 00-.139-.135c-.01 0-.044.01-.074.02-.034.015-.061.015-.069.002a8.515 8.515 0 00-.216-.238c-.364-.39-.347-.36-.263-.48a.218.218 0 00.038-.08c0-.012.014-.05.03-.085a.945.945 0 00.054-.212c.03-.214-.01-.34-.147-.48l-.105-.103h-.434l-.09.119a.684.684 0 00-.067.726c.062.117.071.08-.103.34-.3.445-.353.717-.216 1.076.117.304.444.503.826.503.153 0 .384-.058.418-.103.029-.037.174-.11.186-.094a.237.237 0 00.076.048.457.457 0 01.132.109c.038.045.082.082.098.082a.36.36 0 00.11-.073zm-1.324-.578l-.079-.086v-.192l.005-.215c.002-.042.11-.153.146-.153.019 0 .047.02.063.048.017.024.07.099.12.162.05.063.137.176.197.248.164.208.143.237-.193.26l-.182.01-.078-.084zm.166-1.64c-.017-.071.002-.117.053-.117.06 0 .092.073.06.126-.037.06-.098.054-.113-.01zm-4.315 1.854c.149-.022.277-.048.287-.058.01-.01.024-.248.032-.533l.015-.514-.05-.014c-.066-.017-.5-.015-.546.006-.038.015-.038.01.073.305.038.1.015.168-.073.212-.072.038-.124.038-.279-.001a.799.799 0 01-.4-.214c-.196-.191-.29-.36-.313-.562-.014-.118-.01-.137.062-.277.042-.082.076-.158.076-.17 0-.011.034-.069.077-.126.068-.09.099-.11.232-.16a.497.497 0 01.25-.045l.309.035c.116.01.25.025.297.03.087.011.09.009.167-.097.094-.126.155-.235.155-.275 0-.046-.19-.147-.379-.203-.149-.042-.22-.051-.46-.05-.224 0-.297.01-.348.037a.713.713 0 01-.155.05c-.08.01-.197.068-.355.173a.54.54 0 01-.088.048c-.254.212-.348.606-.382.937-.02.232.082.605.225.816.119.177.445.453.585.493.025.007.118.04.204.072.086.033.209.069.274.082.063.011.133.027.156.031.07.015.075.014.352-.027zm-.22-1.47c-.005-.048-.019-.051-.258-.074l-.409-.046a.605.605 0 00-.17-.009.237.237 0 00-.028.07c-.011.047-.005.057.067.077.09.03.76.065.789.045.01-.009.014-.037.01-.064zm8.58 1.194a5.658 5.658 0 01-.418-.068c-.046-.015-.029-.058.09-.224.051-.075.107-.158.12-.187a1.65 1.65 0 00.101-.388 3.142 3.142 0 01.063-.356c.008-.04.024-.041.5-.04.269.001.5.01.513.018.044.026.056-.018-.244.901l-.123.377-.109.011a2.906 2.906 0 01-.492-.044zm-1.563-.374a.74.74 0 01-.535-.426c-.048-.107-.053-.142-.048-.304a.57.57 0 01.058-.275.773.773 0 01.355-.348.454.454 0 01.275-.06c.226.002.36.054.505.197.166.167.214.28.216.514.002.165-.005.203-.056.302a.831.831 0 01-.093.16.78.78 0 01-.677.24z" fill="#c52b64"/></g></svg>