<svg xmlns="http://www.w3.org/2000/svg" width="65.8" height="65.8" viewBox="0 0 17.41 17.41"><filter id="a"><feColorMatrix type="saturate" values=".1"/></filter><g filter="url(#a)" transform="translate(-102.282 42.237)"><circle class="st1" cx="110.987" cy="-33.533" r="8.573" fill="#fff" stroke="#fff" stroke-width=".265" stroke-miterlimit="10"/><path d="M110.776-28.806l-.494-.34a161.81 161.81 0 01-.858-.584l-.693-.475a79.686 79.686 0 00-1.35-.933l-.565-.39-.581-.4a8.415 8.415 0 01-.44-.306 3.94 3.94 0 00-.148-.1l-.135-.088h-1.646l.007-1.086.005-1.087.797-.008c.734-.003.802-.008.846-.047.027-.024.13-.097.226-.163l.309-.21.528-.358c.218-.147.401-.275.408-.281.006-.009.123-.09.259-.182.615-.415 1.634-1.113 2.055-1.409l.411-.283c.15-.1.34-.231.425-.291.758-.52.797-.544.851-.515a.294.294 0 01.065.043c.014.018.244.178.67.462.426.287.849.583.911.637.03.024.172.126.322.226.147.102.445.304.657.452l.648.443c.14.097.326.223.41.282.187.131.187.131.376.259l1.104.754.294.202.457-.009h.83l.37.005v1.081c0 .595-.007 1.082-.017 1.082l-.877.007-.86.003-.117.077c-.066.04-.125.076-.134.076-.007 0-.017-.032-.017-.071v-.07h-.182c-.1.001-2.41-.001-5.136-.007-2.723-.004-4.959 0-4.964.01-.006.01.005.025.027.034.02.008.046.038.058.067a.076.076 0 00.075.053c.049 0 .135.054.63.398.097.067.292.202.435.299.14.096.306.21.363.251.058.042.186.13.282.194.097.064.182.124.19.13.004.01.09.067.186.132.097.064.367.25.6.409.674.467.698.482.737.508.02.012.138.092.261.176.123.085.44.301.705.48.266.178.498.34.519.356.056.05.086.041.217-.056.067-.047.194-.135.286-.193a36.614 36.614 0 001.563-1.081c.085-.056.253-.172.375-.255l.306-.207c.046-.03.109-.075.14-.097a117.048 117.048 0 011.894-1.291c.14-.116.207-.151.302-.162.16-.018.138.031-.075.163-.1.062-.287.187-.416.276-.129.09-.31.214-.4.275-.208.14-.579.397-.614.427a6.86 6.86 0 01-.333.225 14.07 14.07 0 01-.298.21l-.494.336c-.466.319-.69.476-.85.593a15.44 15.44 0 01-.475.33c-.182.121-.49.33-.685.463a3.28 3.28 0 01-.38.24.626.626 0 01-.158-.094zm-2.103-3.943a.363.363 0 00.122-.144c.051-.099.052-.13.05-.55a4.244 4.244 0 00-.028-.537.493.493 0 00-.124-.199l-.1-.104-.177.009c-.343.019-.413.155-.413.809 0 .472.051.685.18.735a.68.68 0 00.49-.017zm-.31-.166c-.08-.032-.101-.146-.101-.557 0-.497.037-.602.199-.56.112.026.133.118.13.558 0 .392-.029.559-.091.559a.192.192 0 00-.055.01.17.17 0 01-.081-.01zm1.798.156c.083-.074.12-.183.12-.351 0-.135-.007-.162-.088-.276a1.293 1.293 0 00-.23-.232.823.823 0 01-.172-.162c-.061-.129-.007-.263.102-.263.071 0 .112.05.129.16.013.081.02.088.115.1.055.008.106.008.11-.002a.534.534 0 00-.01-.139c-.035-.228-.178-.341-.397-.32-.148.013-.225.057-.277.16a.565.565 0 00-.004.405c.046.085.207.258.33.351.112.085.14.136.139.255-.001.1-.058.182-.124.182-.065 0-.133-.107-.152-.238l-.017-.117-.108.007-.11.009.008.163c.01.207.08.333.199.351.245.041.356.03.436-.042zm1.801.017c.072-.046.148-.228.156-.374l.007-.117-.119-.007-.12-.009-.016.131c-.02.162-.076.238-.158.218-.097-.026-.119-.114-.13-.522-.013-.445.013-.572.12-.61.056-.02.071-.015.109.03a.4.4 0 01.057.145c.016.094.017.094.12.094h.103v-.114c0-.12-.044-.258-.099-.302-.05-.043-.256-.08-.352-.065a.408.408 0 00-.271.248c-.04.128-.056.6-.03.83.014.116.045.256.07.312.038.086.06.105.157.135.13.041.314.031.396-.023zm1.432-.34c0-.202-.01-.441-.019-.535-.006-.091-.006-.168.003-.168.012 0 .039.085.06.187.023.104.072.275.111.382.04.107.094.26.12.34l.05.144.109.01c.06.004.115-.001.124-.015.01-.013.015-.353.012-.754l-.005-.727-.115-.009-.116-.006.014.555c.007.306.005.547-.005.536a1.78 1.78 0 01-.069-.232 10.162 10.162 0 00-.152-.528l-.102-.316-.12-.008-.123-.007v1.504l.077.008c.154.021.147.04.146-.36zm2.501.357c.024-.015.025-.03.005-.068a.709.709 0 01-.025-.214c0-.236-.037-.392-.11-.448l-.06-.048.061-.048c.119-.093.141-.42.04-.562-.074-.102-.15-.12-.461-.114l-.28.009-.007.746-.005.745h.235l.005-.31.006-.311.1-.01c.19-.013.231.057.248.419.007.2.007.2.077.216.101.022.136.022.171-.001zm-.598-.88a1.319 1.319 0 01-.005-.217l.006-.186.08-.008c.135-.014.19.013.23.105.073.177-.026.336-.208.336-.054 0-.097-.012-.103-.03zm1.01.74c.026-.218.023-.215.177-.215s.148-.006.179.228l.017.12.119.01a.48.48 0 00.14-.002 6.633 6.633 0 00-.111-.65c-.07-.348-.134-.682-.143-.744l-.017-.112h-.173c-.095 0-.174.009-.174.02 0 .043-.078.458-.117.628-.047.195-.164.793-.164.832 0 .026.08.04.18.029.07-.01.074-.015.088-.141zm.084-.439c0-.01.015-.112.034-.231.019-.117.043-.267.051-.331l.017-.118.032.21c.02.118.036.27.04.34l.002.128-.089.01c-.047.004-.088 0-.088-.008zm1.264.588l.123-.016v-.183h-.446v-1.317h-.236v1.502l.088.008a2.6 2.6 0 00.47.006zm-13.11-.77l.006-.746h-.258v.754l.001.753.12-.007.123-.009zm.915.66l.007-.09h-.45v-1.316h-.259v.738c0 .404.007.742.017.752.007.01.165.014.347.01l.33-.008zm.851.004v-.093h-.447v-1.317h-.234v1.505h.681zm.405.03c.007-.035.013-.373.013-.752l.004-.686h-.233v1.503h.102c.093 0 .104-.007.114-.065zm.479-.48a6.129 6.129 0 01-.001-.532c.006.009.039.124.07.257.03.134.101.371.157.526l.104.282.122.007.12.008v-1.505h-.234l-.004.205v.223c.014.097.05.662.041.669a.575.575 0 01-.063-.161c-.028-.096-.108-.342-.174-.55l-.123-.375-.12-.008-.121-.006v1.507h.241zm2.123-.208v-.75h-.234v1.503h.234zm3.643.658v-.093h-.197c-.14 0-.2-.01-.21-.03a1.295 1.295 0 010-.246l.014-.215.179-.01.178-.006-.001-.094v-.095l-.364-.014.014-.387.387-.014v-.21l-.646.013.005.74c.001.409.005.743.005.747.001.004.145.007.32.007h.316zm1.673-.545l.007-.641.14-.012c.153-.013.144-.002.132-.177 0-.03-.056-.034-.396-.029l-.392.007v.189l.134.006.136.009v.628c0 .347.007.637.015.646.007.01.061.015.117.015h.102zm1.456-1.298c-.012-.099-.02-.107-.105-.107-.052 0-.134-.04-.275-.135a6.772 6.772 0 01-.211-.147 6.502 6.502 0 00-.27-.188 73.797 73.797 0 01-.389-.264 39.332 39.332 0 00-.545-.374l-.145-.1a22.682 22.682 0 00-.577-.398 4.332 4.332 0 01-.26-.18 1.892 1.892 0 00-.187-.131 3.452 3.452 0 01-.189-.127 2.173 2.173 0 00-.165-.12 6.262 6.262 0 01-.273-.198c-.068-.05-.225-.161-.349-.247-.253-.17-.669-.458-.705-.485a15.61 15.61 0 00-.265-.18l-.24-.163-.1.067a360.844 360.844 0 01-.981.68c-.269.184-.456.313-.481.335-.014.01-.087.063-.165.113-.184.124-.622.424-.681.466-.23.166-.63.437-.646.437a.036.036 0 00-.029.017c-.004.01-.086.071-.183.136a3.597 3.597 0 00-.189.13c-.005.01-.085.063-.175.124-.209.14-.827.566-1.123.773a1.368 1.368 0 01-.261.159c-.02 0-.038.013-.038.03s-.032.05-.07.072c-.038.023-.07.049-.07.057 0 .01 2.329.017 5.174.017h5.175zm-9.672-.126c-.005-.012.08-.082.194-.158a6.04 6.04 0 00.216-.151c.007-.008.081-.06.165-.116l.387-.265.64-.436c.221-.152.425-.29.449-.31.025-.017.197-.136.384-.261.185-.126.384-.262.442-.303a19.818 19.818 0 01.822-.566c.007-.01.068-.052.134-.097.066-.043.25-.167.408-.274l.285-.196.204.138c.753.513.889.606.916.633.017.017.04.03.05.03.013 0 .035.016.052.033.017.016.116.087.22.157.103.07.198.139.212.154.012.015.096.075.186.134.092.06.208.138.259.175.052.038.22.155.377.26.155.106.33.226.387.267l.387.264c.155.105.288.197.294.203.014.016.519.357.794.537.107.07.194.136.194.146 0 .027-9.04.027-9.057.002zm4.343 5.533c-.078-.054-.168-.115-.199-.139-.07-.05-.182-.126-.584-.397a19.938 19.938 0 01-.471-.325c-.085-.06-.34-.238-.569-.396a75.901 75.901 0 01-.831-.574l-.467-.323c-.058-.037-.513-.351-.65-.445-.046-.033-.174-.12-.284-.194a2.335 2.335 0 01-.225-.165c-.02-.023.806-.03 4.45-.03 2.46 0 4.473.008 4.473.015 0 .019-.25.197-.705.503-.462.31-.62.42-.634.436-.007.01-.14.1-.294.206a127.141 127.141 0 00-1.056.726c-.053.034-.12.085-.153.112a9.061 9.061 0 01-.4.282c-.188.127-.533.36-.767.52-.235.16-.44.29-.46.289a.775.775 0 01-.174-.1z"/></g></svg>