<?xml version="1.0" encoding="UTF-8" standalone="no"?>
<svg
   xmlns:dc="http://purl.org/dc/elements/1.1/"
   xmlns:cc="http://creativecommons.org/ns#"
   xmlns:rdf="http://www.w3.org/1999/02/22-rdf-syntax-ns#"
   xmlns:svg="http://www.w3.org/2000/svg"
   xmlns="http://www.w3.org/2000/svg"
   xmlns:sodipodi="http://sodipodi.sourceforge.net/DTD/sodipodi-0.dtd"
   xmlns:inkscape="http://www.inkscape.org/namespaces/inkscape"
   width="17.409584mm"
   height="17.409584mm"
   viewBox="0 0 17.409584 17.409584"
   version="1.1"
   id="svg1870"
   inkscape:version="1.0.1 (3bc2e813f5, 2020-09-07)"
   sodipodi:docname="IC.svg">
  <defs
     id="defs1864" />
  <filter id="grayscale">
    <feColorMatrix type="saturate" values="0.10"/>
  </filter>
  <sodipodi:namedview
     id="base"
     pagecolor="#ffffff"
     bordercolor="#666666"
     borderopacity="1.0"
     inkscape:pageopacity="0.0"
     inkscape:pageshadow="2"
     inkscape:zoom="2.1760267"
     inkscape:cx="30.702679"
     inkscape:cy="137.18026"
     inkscape:document-units="mm"
     inkscape:current-layer="layer1"
     inkscape:document-rotation="0"
     showgrid="false"
     fit-margin-top="0"
     fit-margin-left="0"
     fit-margin-right="0"
     fit-margin-bottom="0"
     inkscape:window-width="1920"
     inkscape:window-height="1054"
     inkscape:window-x="0"
     inkscape:window-y="26"
     inkscape:window-maximized="1" />
  <metadata
     id="metadata1867">
    <rdf:RDF>
      <cc:Work
         rdf:about="">
        <dc:format>image/svg+xml</dc:format>
        <dc:type
           rdf:resource="http://purl.org/dc/dcmitype/StillImage" />
        <dc:title />
      </cc:Work>
    </rdf:RDF>
  </metadata>
  <g
     inkscape:label="Layer 1"
     inkscape:groupmode="layer"
     id="layer1"
     filter="url(#grayscale)"
     transform="translate(-102.28184,42.237323)">
    <circle
       class="st1"
       cx="110.98663"
       cy="-33.532532"
       id="circle3408"
       style="fill:#ffffff;stroke:#ffffff;stroke-width:0.264583;stroke-miterlimit:10"
       r="8.5725002" />
    <path
       d="m 110.77603,-28.805501 c -0.0714,-0.05091 -0.29401,-0.203546 -0.49451,-0.339668 -0.2005,-0.135702 -0.58586,-0.399264 -0.85769,-0.584554 -0.27009,-0.186583 -0.58281,-0.401004 -0.69327,-0.475371 -0.10874,-0.07483 -0.2092,-0.144405 -0.22269,-0.156574 -0.0222,-0.01874 -0.47711,-0.332728 -1.12821,-0.776353 -0.14091,-0.09875 -0.39579,-0.273573 -0.56366,-0.390574 -0.16832,-0.115642 -0.43014,-0.295753 -0.58107,-0.399264 -0.31271,-0.212683 -0.4232,-0.288788 -0.44014,-0.306185 -0.007,-0.0062 -0.0732,-0.05091 -0.14789,-0.09999 l -0.1344,-0.08827 h -1.6462 l 0.007,-1.085579 0.005,-1.08732 0.7968,-0.0073 c 0.73371,-0.0037 0.80157,-0.0086 0.84594,-0.04735 0.0273,-0.02391 0.12916,-0.09702 0.22615,-0.163097 0.0966,-0.06486 0.23616,-0.15962 0.30881,-0.209206 0.0731,-0.05091 0.31097,-0.212238 0.52843,-0.358382 0.21747,-0.147871 0.40101,-0.275301 0.40797,-0.281835 0.006,-0.0086 0.12218,-0.09 0.25834,-0.1818 0.61499,-0.414479 1.63402,-1.112987 2.05548,-1.408729 0.0782,-0.05437 0.26357,-0.181812 0.41101,-0.283584 0.14961,-0.09999 0.34011,-0.230941 0.42492,-0.290527 0.75765,-0.519742 0.7968,-0.54366 0.85117,-0.514526 0.0287,0.01515 0.0578,0.0339 0.0643,0.04217 0.014,0.01874 0.24486,0.178321 0.6698,0.462325 0.42622,0.287062 0.84941,0.582816 0.91203,0.637174 0.029,0.02343 0.1718,0.125703 0.32142,0.225739 0.14745,0.101713 0.44494,0.304013 0.65717,0.451884 0.214,0.146145 0.50453,0.346648 0.64763,0.443636 0.14091,0.09653 0.32619,0.222239 0.41099,0.281836 0.18661,0.130907 0.18661,0.130907 0.37535,0.258349 0.15788,0.108739 0.59804,0.409264 1.10429,0.754159 l 0.29402,0.202242 0.45711,-0.0086 c 0.25312,-0.0013 0.62499,-0.0013 0.82898,0 l 0.37055,0.0049 v 1.080809 c 0,0.59454 -0.007,1.082105 -0.0174,1.082105 -0.0104,0.0013 -0.40406,0.0037 -0.87639,0.0073 l -0.85986,0.0025 -0.117,0.07655 c -0.0666,0.04093 -0.1257,0.07655 -0.13439,0.07655 -0.007,0 -0.017,-0.03218 -0.017,-0.07138 v -0.06955 h -0.1818 c -0.1,0.0013 -2.41082,-0.0013 -5.13565,-0.0074 -2.72354,-0.0037 -4.95952,0 -4.96474,0.0099 -0.006,0.0099 0.005,0.02527 0.0274,0.0339 0.0206,0.0086 0.0456,0.03871 0.0578,0.0678 0.0134,0.0339 0.0391,0.05264 0.0748,0.05264 0.0492,0 0.13572,0.05437 0.63023,0.397528 0.0971,0.0678 0.29227,0.202241 0.43494,0.299231 0.14092,0.09653 0.30575,0.210501 0.36359,0.251383 0.0578,0.04217 0.18528,0.12918 0.28183,0.193548 0.0971,0.06436 0.18181,0.123953 0.18877,0.130918 0.005,0.0086 0.0901,0.06608 0.18702,0.130907 0.0966,0.06435 0.36665,0.249657 0.59934,0.409277 0.67456,0.46711 0.69849,0.482335 0.73763,0.507991 0.0205,0.01232 0.13743,0.09173 0.26139,0.176586 0.12268,0.08483 0.44015,0.300968 0.70502,0.47929 0.2653,0.178324 0.49799,0.339681 0.51844,0.356646 0.0561,0.04919 0.0865,0.04093 0.21747,-0.0561 0.0662,-0.04735 0.19353,-0.135703 0.2853,-0.193549 0.27184,-0.173539 1.11778,-0.752865 1.26914,-0.869853 0.0782,-0.05954 0.21049,-0.154836 0.294,-0.210944 0.0848,-0.05572 0.25314,-0.17137 0.37535,-0.254872 0.12395,-0.08482 0.26183,-0.178323 0.30575,-0.207024 0.0461,-0.03046 0.10875,-0.07484 0.13963,-0.09703 0.17831,-0.129181 1.5627,-1.073412 1.77189,-1.207795 0.0543,-0.03563 0.10874,-0.07311 0.12218,-0.08309 0.14091,-0.115644 0.20747,-0.151361 0.30228,-0.161803 0.16005,-0.01874 0.13786,0.03082 -0.0748,0.163098 -0.1,0.0614 -0.28707,0.187025 -0.41624,0.275312 -0.12874,0.09 -0.30924,0.213988 -0.39926,0.275312 -0.20877,0.139179 -0.57933,0.397527 -0.61499,0.426672 -0.0218,0.01998 -0.18658,0.130475 -0.33273,0.225727 -0.0188,0.01232 -0.0526,0.03563 -0.0732,0.05091 -0.0204,0.01516 -0.12092,0.08655 -0.22443,0.158314 -0.10355,0.06953 -0.32618,0.222249 -0.49449,0.336204 -0.4654,0.31924 -0.68937,0.475815 -0.84943,0.592814 -0.0779,0.05783 -0.29228,0.207455 -0.47538,0.329671 -0.1818,0.122178 -0.48929,0.33142 -0.68501,0.463633 -0.19355,0.132657 -0.36533,0.241385 -0.38056,0.239645 -0.017,0 -0.0865,-0.04217 -0.15788,-0.09345 z m -2.10332,-3.94307 c 0.0391,-0.02047 0.0934,-0.08483 0.12218,-0.144393 0.0513,-0.09875 0.0526,-0.13092 0.0495,-0.550626 -9.3e-4,-0.244429 -0.0139,-0.485814 -0.0273,-0.536706 -0.0134,-0.0561 -0.0626,-0.136122 -0.12396,-0.198752 l -0.1,-0.103561 -0.177,0.0086 c -0.34317,0.01874 -0.41275,0.154836 -0.41275,0.80853 0,0.472337 0.051,0.68502 0.18006,0.7359 0.14264,0.0561 0.37056,0.04746 0.48929,-0.01701 z m -0.30925,-0.166573 c -0.0814,-0.03217 -0.10171,-0.146144 -0.10171,-0.557147 0,-0.496255 0.0373,-0.601505 0.19877,-0.560624 0.11219,0.027 0.13395,0.118726 0.13091,0.558885 -9.3e-4,0.392301 -0.029,0.558886 -0.0917,0.558886 -0.0124,0 -0.0373,0.0037 -0.0543,0.0099 -0.0169,0.0049 -0.0527,0 -0.0817,-0.0099 z m 1.79758,0.156131 c 0.0831,-0.07434 0.12044,-0.183094 0.12044,-0.351418 0,-0.134395 -0.007,-0.161358 -0.0882,-0.275313 -0.0473,-0.06781 -0.15267,-0.173095 -0.23096,-0.232679 -0.08,-0.05954 -0.15611,-0.132657 -0.17178,-0.161358 -0.0609,-0.129182 -0.007,-0.263577 0.10224,-0.263577 0.0714,0 0.1122,0.05129 0.12917,0.160051 0.0134,0.08136 0.0205,0.08827 0.11528,0.09999 0.0543,0.0086 0.10566,0.0086 0.11046,-0.0013 0.005,-0.0099 0,-0.07138 -0.0103,-0.139178 -0.0356,-0.227896 -0.17833,-0.341419 -0.39752,-0.320978 -0.14788,0.01343 -0.22442,0.05746 -0.27706,0.161357 -0.051,0.09654 -0.0527,0.310549 -0.004,0.40405 0.0461,0.08531 0.20747,0.258349 0.32968,0.35186 0.11219,0.08482 0.14091,0.135705 0.13918,0.254873 -9.3e-4,0.09999 -0.0578,0.181799 -0.12396,0.181799 -0.0644,0 -0.13265,-0.107013 -0.15134,-0.237907 l -0.017,-0.117369 -0.10873,0.0073 -0.10874,0.0086 0.007,0.163096 c 0.0104,0.207024 0.08,0.332729 0.19875,0.35143 0.24488,0.04093 0.35665,0.0291 0.43668,-0.04266 z m 1.80106,0.01739 c 0.0714,-0.04612 0.14742,-0.227911 0.15612,-0.374043 l 0.007,-0.116998 -0.11921,-0.0074 -0.12045,-0.0086 -0.0153,0.130919 c -0.0204,0.161358 -0.0766,0.237894 -0.1583,0.217454 -0.0966,-0.02527 -0.11873,-0.113548 -0.1305,-0.521481 -0.0124,-0.444931 0.0134,-0.57236 0.12046,-0.609767 0.0561,-0.02047 0.0714,-0.01515 0.10873,0.02873 0.0221,0.02873 0.0492,0.0953 0.0578,0.146146 0.0152,0.09345 0.0169,0.09345 0.11872,0.09345 h 0.10395 v -0.113917 c 0,-0.120451 -0.0444,-0.258348 -0.0988,-0.302288 -0.051,-0.04266 -0.25661,-0.08001 -0.35186,-0.06486 -0.10702,0.01874 -0.23791,0.137874 -0.27185,0.24835 -0.0387,0.12743 -0.0561,0.599769 -0.0287,0.83071 0.0134,0.115644 0.0439,0.254872 0.0696,0.31098 0.0373,0.08654 0.0595,0.105287 0.15614,0.135703 0.13092,0.04093 0.31445,0.03082 0.39622,-0.02343 z m 1.4322,-0.340126 c -9.3e-4,-0.202241 -0.0104,-0.441455 -0.0188,-0.534957 -0.007,-0.09173 -0.007,-0.168323 0.002,-0.168323 0.0124,0 0.0392,0.08482 0.0612,0.187026 0.0221,0.103562 0.0714,0.275303 0.11045,0.382301 0.0391,0.107015 0.0935,0.259656 0.12045,0.339682 l 0.0496,0.144394 0.10874,0.0099 c 0.0592,0.0037 0.11526,-0.0013 0.12395,-0.01516 0.0104,-0.01344 0.0152,-0.353167 0.0124,-0.754172 l -0.005,-0.727209 -0.11526,-0.0086 -0.11565,-0.0062 0.0134,0.555397 c 0.007,0.305765 0.005,0.547149 -0.005,0.535399 -0.007,-0.0086 -0.0392,-0.113917 -0.0683,-0.231372 -0.0286,-0.115274 -0.0966,-0.353169 -0.15266,-0.528015 l -0.10224,-0.316195 -0.12045,-0.0086 -0.12218,-0.0062 v 1.503549 l 0.0766,0.0086 c 0.15442,0.02047 0.14788,0.03922 0.14614,-0.360122 z m 2.50084,0.357077 c 0.0234,-0.01566 0.0253,-0.03082 0.005,-0.0683 -0.0134,-0.027 -0.0253,-0.122178 -0.0253,-0.21399 0,-0.236168 -0.0373,-0.392301 -0.11046,-0.448408 l -0.0595,-0.04746 0.0612,-0.04783 c 0.11873,-0.09358 0.14091,-0.419704 0.0392,-0.562361 -0.0732,-0.101713 -0.14961,-0.120451 -0.46059,-0.113916 l -0.28052,0.0086 -0.006,0.7459 -0.005,0.7459 h 0.23442 l 0.005,-0.310966 0.006,-0.31098 0.10047,-0.0086 c 0.19006,-0.01343 0.23095,0.0561 0.24791,0.417969 0.007,0.200503 0.007,0.200503 0.0766,0.21616 0.10172,0.0217 0.13613,0.0217 0.17181,-0.0013 z m -0.598,-0.880296 c -0.007,-0.01701 -0.007,-0.115273 -0.005,-0.217467 l 0.006,-0.185274 0.08,-0.0086 c 0.13439,-0.01343 0.19049,0.01344 0.22921,0.105287 0.0732,0.176584 -0.0253,0.336204 -0.20704,0.336204 -0.0543,0 -0.0971,-0.01232 -0.10355,-0.03045 z m 1.01076,0.740687 c 0.0253,-0.219205 0.0222,-0.215729 0.17658,-0.215729 0.15311,0 0.14789,-0.0062 0.17833,0.227906 l 0.017,0.120453 0.11923,0.0099 c 0.0678,0.0074 0.12916,0.0013 0.13917,-0.0025 0.007,-0.0086 -0.041,-0.300967 -0.11046,-0.649339 -0.0696,-0.347955 -0.13398,-0.68284 -0.14267,-0.744175 l -0.017,-0.111822 h -0.17355 c -0.0948,0 -0.17308,0.0086 -0.17308,0.01874 0,0.04389 -0.0783,0.458418 -0.11701,0.628469 -0.0478,0.195287 -0.16483,0.793316 -0.16483,0.83246 0,0.02564 0.0797,0.03922 0.18007,0.02873 0.0695,-0.0099 0.0748,-0.01515 0.0883,-0.140917 z m 0.0831,-0.439718 c 0,-0.0099 0.0151,-0.112192 0.0339,-0.231373 0.0188,-0.117 0.0427,-0.266621 0.0513,-0.330988 l 0.0169,-0.11737 0.0322,0.210513 c 0.0188,0.11737 0.0355,0.268778 0.0392,0.340111 l 0.002,0.12743 -0.0882,0.0099 c -0.0475,0.0037 -0.0883,0 -0.0883,-0.0086 z m 1.2639,0.587601 0.12267,-0.01516 v -0.183536 h -0.44536 v -1.316535 h -0.23618 v 1.501811 l 0.0882,0.0074 c 0.20571,0.01701 0.35534,0.01825 0.47059,0.0062 z m -13.11052,-0.7694 0.007,-0.7459 h -0.25835 v 0.754173 l 9.3e-4,0.752854 0.12046,-0.0073 0.12218,-0.0086 z m 0.91553,0.658922 0.007,-0.08827 h -0.45015 v -1.316533 h -0.25835 v 0.737207 c 0,0.404481 0.007,0.742424 0.017,0.752866 0.007,0.0099 0.16484,0.01344 0.34664,0.0099 l 0.32968,-0.0086 z m 0.85116,0.0049 v -0.09345 h -0.44668 v -1.316535 h -0.23443 v 1.505288 h 0.68111 z m 0.40448,0.03045 c 0.007,-0.03563 0.0134,-0.373609 0.0134,-0.752434 l 0.004,-0.686314 h -0.23269 v 1.503549 h 0.10171 c 0.0935,0 0.10394,-0.0073 0.11394,-0.06486 z m 0.4793,-0.480598 c -0.007,-0.299231 -0.007,-0.538445 -9.3e-4,-0.531923 0.006,0.0086 0.039,0.123952 0.0695,0.25661 0.0304,0.134396 0.10172,0.371872 0.15788,0.526708 l 0.10392,0.281835 0.12219,0.0073 0.12046,0.0074 v -1.505174 h -0.23444 l -0.004,0.205284 c -9.3e-4,0.113918 -9.3e-4,0.212684 0,0.222682 0.0134,0.09703 0.0492,0.662397 0.041,0.669363 -0.005,0.0073 -0.0339,-0.06607 -0.063,-0.161358 -0.0287,-0.0953 -0.10874,-0.341419 -0.17484,-0.548887 l -0.12218,-0.375335 -0.12045,-0.0086 -0.12095,-0.0062 v 1.507026 h 0.24138 z m 2.12331,-0.207468 v -0.750686 h -0.2344 v 1.503549 h 0.23442 z m 3.64299,0.657614 v -0.09345 h -0.19747 c -0.13917,0 -0.2005,-0.0099 -0.20876,-0.03046 -0.007,-0.01688 -0.007,-0.127429 0,-0.24486 l 0.0134,-0.215729 0.17832,-0.0086 0.17832,-0.0073 -9.3e-4,-0.09358 v -0.0953 l -0.36362,-0.01343 0.0134,-0.387096 0.38752,-0.01394 v -0.210501 l -0.64588,0.01344 0.005,0.740685 c 9.3e-4,0.40797 0.005,0.742423 0.005,0.745913 9.3e-4,0.0037 0.14441,0.0074 0.31924,0.0074 h 0.3162 z m 1.67316,-0.545397 0.007,-0.64065 0.13917,-0.01233 c 0.1531,-0.01232 0.1444,-0.0013 0.13265,-0.176571 -9.3e-4,-0.03082 -0.0561,-0.0339 -0.39579,-0.0291 l -0.39273,0.0073 v 0.188753 l 0.13438,0.0062 0.1357,0.0086 v 0.62847 c 0,0.346647 0.007,0.637173 0.0156,0.645445 0.007,0.0099 0.0609,0.01566 0.117,0.01566 h 0.10172 z m 1.45616,-1.297833 c -0.0124,-0.09875 -0.0205,-0.107013 -0.10529,-0.107013 -0.0526,0 -0.13439,-0.03922 -0.27532,-0.134395 -0.10874,-0.07483 -0.20398,-0.140918 -0.21093,-0.147872 -0.006,-0.0074 -0.12876,-0.09173 -0.2701,-0.187025 -0.14265,-0.09654 -0.3175,-0.215727 -0.38883,-0.264871 -0.13265,-0.09357 -0.38405,-0.264869 -0.54539,-0.373609 -0.051,-0.03563 -0.11565,-0.08001 -0.14441,-0.100482 -0.0971,-0.07138 -0.33489,-0.234418 -0.57758,-0.397528 -0.13613,-0.09 -0.25314,-0.171357 -0.26008,-0.18006 -0.005,-0.0086 -0.0901,-0.06781 -0.18702,-0.130907 -0.0966,-0.06264 -0.18181,-0.120451 -0.18834,-0.127442 -0.007,-0.0086 -0.0799,-0.0609 -0.16483,-0.118726 -0.0836,-0.05782 -0.20747,-0.146143 -0.27357,-0.198763 -0.0678,-0.05091 -0.22442,-0.161359 -0.34837,-0.246612 -0.25314,-0.171356 -0.66937,-0.458418 -0.70503,-0.485812 -0.0134,-0.0099 -0.13266,-0.09174 -0.26489,-0.180061 l -0.24137,-0.163098 -0.0988,0.0678 c -0.0539,0.03736 -0.25793,0.178755 -0.45189,0.312719 -0.19355,0.136133 -0.43319,0.300968 -0.52975,0.367075 -0.26835,0.183537 -0.45537,0.312718 -0.48103,0.334465 -0.0134,0.0099 -0.0865,0.06313 -0.16484,0.113918 -0.18353,0.123952 -0.62152,0.423183 -0.68111,0.465804 -0.22921,0.166142 -0.6302,0.436239 -0.64541,0.436239 -0.0124,0 -0.0239,0.0086 -0.029,0.01739 -0.004,0.0099 -0.0865,0.07138 -0.18354,0.13569 -0.0966,0.06436 -0.1818,0.123965 -0.18832,0.130918 -0.005,0.0086 -0.0852,0.06263 -0.17527,0.123954 -0.20878,0.139179 -0.82725,0.565851 -1.12301,0.772875 -0.12395,0.08654 -0.24095,0.158313 -0.26138,0.158313 -0.0205,0 -0.0373,0.01344 -0.0373,0.03045 0,0.01701 -0.0322,0.04919 -0.0714,0.07138 -0.0373,0.02391 -0.0696,0.04919 -0.0696,0.05783 0,0.0099 2.32905,0.01701 5.1748,0.01701 h 5.1748 z m -9.67198,-0.125691 c -0.005,-0.01232 0.0797,-0.08174 0.19356,-0.158312 0.11218,-0.07607 0.20875,-0.144394 0.21571,-0.150916 0.007,-0.0074 0.0814,-0.05954 0.16484,-0.115643 0.0831,-0.0561 0.25834,-0.176585 0.38709,-0.264883 0.12917,-0.08827 0.41796,-0.284005 0.64065,-0.436659 0.22094,-0.15136 0.42493,-0.290538 0.44841,-0.309241 0.0257,-0.01701 0.19703,-0.136135 0.38406,-0.261824 0.18527,-0.125692 0.38403,-0.261394 0.44188,-0.302277 0.49452,-0.348385 0.7459,-0.521479 0.77634,-0.535399 0.0188,-0.0099 0.041,-0.0217 0.0457,-0.03046 0.007,-0.0099 0.0683,-0.05264 0.1344,-0.09703 0.0662,-0.04388 0.24964,-0.16788 0.40796,-0.274868 l 0.28532,-0.19572 0.20398,0.137873 c 0.75242,0.51322 0.88812,0.606288 0.91552,0.633696 0.0169,0.01701 0.041,0.03046 0.051,0.03046 0.0124,0 0.0339,0.01515 0.051,0.03218 0.017,0.01566 0.11564,0.08691 0.21919,0.156575 0.10395,0.06953 0.19876,0.139178 0.21268,0.154392 0.0124,0.01515 0.0966,0.07483 0.18659,0.134395 0.0917,0.05954 0.20745,0.137441 0.25835,0.174846 0.0527,0.03736 0.22095,0.154837 0.37707,0.260087 0.15485,0.105287 0.32968,0.225726 0.38754,0.266608 0.0578,0.04093 0.23267,0.159621 0.38708,0.263576 0.15484,0.105288 0.2875,0.197013 0.29402,0.203547 0.0134,0.01566 0.51842,0.357077 0.79331,0.537137 0.10738,0.06953 0.19397,0.135692 0.19397,0.146133 0,0.027 -9.04001,0.027 -9.05699,0.0013 z m 4.34234,5.533181 c -0.0783,-0.05437 -0.16831,-0.115275 -0.19876,-0.139179 -0.0696,-0.04919 -0.1818,-0.125692 -0.58454,-0.397527 -0.17485,-0.117371 -0.38709,-0.263564 -0.47059,-0.324456 -0.0848,-0.05954 -0.33967,-0.237907 -0.5689,-0.395788 -0.23139,-0.156575 -0.60325,-0.414924 -0.83116,-0.574544 -0.22746,-0.157881 -0.43796,-0.302276 -0.4671,-0.322717 -0.0578,-0.03736 -0.51323,-0.351416 -0.65066,-0.444931 -0.0456,-0.03266 -0.1731,-0.120944 -0.28357,-0.193979 -0.10875,-0.07484 -0.21094,-0.14744 -0.22443,-0.164836 -0.0205,-0.02343 0.8055,-0.03045 4.44978,-0.03045 2.45995,0 4.47325,0.0086 4.47325,0.01516 0,0.01874 -0.25009,0.197025 -0.70502,0.50322 -0.46234,0.310537 -0.62022,0.419264 -0.63369,0.436229 -0.007,0.0086 -0.13963,0.09875 -0.29403,0.205729 -0.15483,0.105287 -0.43492,0.297491 -0.62193,0.42666 -0.18833,0.128736 -0.38406,0.263132 -0.43495,0.298798 -0.0526,0.0339 -0.12044,0.08483 -0.15264,0.112192 -0.0327,0.02873 -0.21269,0.154392 -0.39928,0.281834 -0.18875,0.12743 -0.53366,0.360122 -0.76808,0.520174 -0.23443,0.159619 -0.44015,0.290526 -0.45885,0.288787 -0.017,0 -0.0953,-0.04611 -0.17485,-0.100482 z"
       style="fill:#000000;fill-opacity:1;fill-rule:nonzero;stroke:none;stroke-width:0.43493"
       id="path894" />
  </g>
</svg>
