<svg xmlns="http://www.w3.org/2000/svg" width="65.8" height="65.8" viewBox="0 0 17.41 17.41"><filter id="a"><feColorMatrix type="saturate" values=".1"/></filter><g filter="url(#a)" transform="translate(-102.282 42.237)"><circle class="st1" cx="110.987" cy="-33.533" r="8.573" fill="#fff" stroke="#fff" stroke-width=".265" stroke-miterlimit="10"/><path d="M110.604-27.71c-.257-.03-.839-.232-.839-.288 0-.011-.015-.023-.032-.023-.08 0-.537-.386-.68-.575l-.072-.092-1.13.02c-.622.01-1.272.023-1.447.027a3.13 3.13 0 00-.496.05c-.372.09-.365.088-.542.114-.1.016-.121.01-.155-.045-.02-.036-.229-.372-.46-.75-.63-1.032-.647-1.064-.597-1.064.069 0 .322-.083.322-.108 0-.01.102-.127.227-.255.26-.264.277-.287.476-.588.27-.408.499-.967.565-1.38a1.66 1.66 0 01.043-.207 2.95 2.95 0 00.014-.387 3.384 3.384 0 00-.575-1.943 3.411 3.411 0 00-.58-.713c-.144-.138-.253-.264-.244-.28.01-.014.06-.035.112-.044.227-.042.752-.309.901-.456.04-.038.132-.127.206-.196.148-.136.287-.309.287-.352 0-.015.011-.032.023-.036.036-.015.187-.348.238-.525a.582.582 0 01.066-.17 31.1 31.1 0 011.25-.02 24.885 24.885 0 001.26-.024c.015-.01.07-.095.121-.189.096-.183.427-.576.54-.646.038-.023.106-.074.151-.113a.33.33 0 01.11-.073c.014 0 .044-.014.068-.035.045-.038.303-.146.539-.225.088-.03.266-.053.497-.06.306-.012.391-.006.59.045.44.113.83.346 1.152.686.095.1.172.198.172.217 0 .019.01.034.02.034.012 0 .046.047.076.104.029.057.076.138.104.18l.052.075 2.6-.008.049.16c.062.192.181.436.317.641.1.153.456.524.5.524.013 0 .041.017.06.036.107.103.627.351.74.351.029 0 .059.01.069.027.01.017.04.028.067.028.114 0 .078.068-.158.297-.208.202-.584.657-.584.707 0 .005-.049.094-.11.19a3.308 3.308 0 00-.464 1.77c.003.186.019.345.028.356.01.011.21-.018.44-.066.233-.045.423-.081.425-.08.029.03.92 1.86.92 1.887 0 .02-.024.045-.052.057-.06.02-.554.495-.554.528 0 .011.026.038.06.06.072.048.046.105-.047.105-.036 0-.071.014-.081.028-.01.015-.042.026-.07.026-.164 0-.741.363-.96.604-.225.247-.467.712-.512.988l-.02.117-.942.004c-.516.003-1.155.006-1.417.01l-.479.008-.183.193a4.014 4.014 0 01-.336.314c-.42.332-1.085.513-1.639.445zm.913-.608a3.83 3.83 0 00.388-.17c.156-.085.574-.456.634-.563.027-.051.07-.055.645-.06.34-.006.922-.009 1.294-.01l.679-.001.03-.117a2.55 2.55 0 01.25-.579c.107-.187.468-.567.608-.638.308-.16.429-.216.552-.244.075-.019.138-.04.138-.05a.3.3 0 00-.066-.079l-.068-.062-.202.047a1.75 1.75 0 00-.92.495c-.25.246-.4.507-.482.838-.021.081-.05.153-.067.158-.015.006-.563.011-1.219.017l-1.19.008-.178.195c-.176.192-.52.452-.599.452-.02 0-.051.01-.066.024-.049.043-.382.138-.592.168-.277.04-.564 0-.876-.12-.354-.137-.492-.228-.768-.505-.094-.095-.192-.172-.217-.172-.041 0-.412.08-.74.16-.082.02-.009.023.267.012l.38-.017.214.22c.117.122.255.25.308.286a.988.988 0 01.111.08c.063.07.56.271.772.313.037.008.223.01.413.006.3-.006.37-.02.567-.091zm-5.573-.654c.261-.052.579-.12.709-.151.128-.03.295-.066.37-.081.132-.024.382-.078 1.102-.234.183-.038.425-.091.539-.114.113-.022.306-.066.426-.095.25-.058.787-.175 1.212-.26l.263-.057 1.417-.317c.06-.015.352-.076.648-.136.724-.152.724-.152 1.225-.265.244-.055.497-.108.565-.12.068-.012.31-.061.536-.11l.524-.112a68.492 68.492 0 001.005-.217l.388-.083c.143-.033.3-.065.35-.074.049-.011.09-.028.09-.042 0-.028-.573-1.185-.601-1.213-.01-.01-.068-.005-.13.006-.06.017-.29.066-.509.112-.219.045-.442.094-.497.105-.168.04-.5.112-.756.165a15.85 15.85 0 00-.372.08 10.31 10.31 0 01-.414.09c-.408.083-.586.12-.633.142-.022.01-.183.041-.36.073a8.07 8.07 0 00-.673.142c-.046.01-.176.044-.29.068-.317.066-.411.087-.605.132a108.207 108.207 0 01-1.859.402 5.397 5.397 0 01-.25.056c-.09.019-.27.056-.398.086a31.97 31.97 0 01-.841.176c-.178.036-.864.185-1.28.28-.098.022-.253.053-.345.07-.09.015-.184.036-.206.043-.023.01-.147.038-.276.063-.673.136-.98.2-1.019.213a1.118 1.118 0 01-.213.051c-.05.01-.09.025-.09.034 0 .011.042.083.094.16.05.078.213.341.36.585.148.244.28.444.293.444.016 0 .24-.044.501-.098zm-.491-.251c-.011-.043-.05-.199-.085-.346a2.538 2.538 0 01-.066-.344c0-.072.013-.08.141-.111.078-.02.152-.029.165-.02.013.006.081.133.15.277.069.143.137.253.152.243.014-.01.027-.092.029-.186 0-.093.01-.225.02-.292.017-.113.025-.123.142-.156.098-.029.13-.03.155-.004.044.047.206.77.178.799a.194.194 0 01-.102.015c-.074-.01-.082-.023-.148-.278-.037-.147-.077-.268-.089-.268-.01 0-.022.113-.026.255-.002.14-.003.278-.005.306-.004.057-.129.115-.191.09-.019-.005-.089-.112-.155-.235a1.1 1.1 0 00-.13-.214c-.006.006.016.117.049.248.034.132.055.245.045.253a.414.414 0 01-.113.032c-.09.015-.099.01-.116-.064zm1.63-.457c-.079-.305-.149-.652-.133-.667a.325.325 0 01.117-.015c.096 0 .102.005.119.104.02.124.07.204.09.149.044-.108.292-.361.383-.391.054-.02.105-.027.115-.017.007.01-.036.083-.098.166a.837.837 0 00-.114.18c0 .017-.014.03-.028.03-.016 0-.027.01-.027.028 0 .032.066.11.097.11.02 0 .26.162.312.212.018.018.046.035.06.035.015 0 .026.017.026.038 0 .025-.045.046-.124.057-.116.017-.138.01-.32-.11-.18-.12-.198-.126-.238-.085-.04.038-.042.06-.011.172.019.07.03.13.026.134a.759.759 0 01-.107.025l-.099.017zm-.593.017c-.019-.042-.024-.084-.01-.097a.858.858 0 01.192-.062c.187-.044.215-.032.232.092.01.06-.004.07-.154.1-.223.048-.221.048-.26-.035zm2.298-.237a8.78 8.78 0 01-.08-.312l-.067-.275-.164.005c-.157.006-.167.006-.178-.06-.008-.038 0-.08.017-.091.048-.036.76-.176.792-.155.01.005.022.042.03.081.011.057 0 .078-.053.097a.438.438 0 01-.134.026c-.085 0-.085.017.002.363.04.153.06.287.049.298-.047.044-.2.06-.215.023zm-.824-.062c-.045-.12-.024-.144.169-.176.194-.032.21-.028.24.07.022.077-.03.106-.237.133-.13.017-.156.01-.172-.027zm1.843-.187a8.542 8.542 0 01-.157-.693c-.01-.08-.005-.082.225-.14.41-.106.631-.033.633.213 0 .08-.01.104-.047.104-.042.001-.042.006.008.032.075.044.094.077.094.172 0 .044.02.104.047.13.057.063.042.08-.094.097-.104.015-.108.011-.142-.093-.047-.143-.112-.181-.27-.158-.138.02-.134.005-.076.281l.02.09h-.114c-.068 0-.12-.016-.127-.035zm.446-.53c.034-.024.062-.061.062-.082 0-.072-.087-.091-.266-.06-.167.027-.172.031-.155.1.01.037.023.08.03.092.019.036.254-.004.329-.05zm-1.04.426c-.019-.045-.026-.093-.015-.104.04-.04.373-.081.399-.05.07.084.045.135-.08.17-.286.073-.266.075-.304-.016zm1.562-.049a.938.938 0 01.022-.227c.021-.113.051-.3.07-.415.019-.116.042-.223.051-.237.01-.015.063-.036.12-.045.098-.019.103-.016.232.153.072.096.162.212.202.259.142.174.208.268.208.298 0 .016-.055.04-.121.055-.11.023-.127.02-.174-.037-.043-.056-.066-.06-.164-.046-.154.025-.216.062-.216.128 0 .039-.032.068-.096.097-.11.045-.118.045-.134.017zm.398-.41c.04-.011.038-.025-.014-.121-.064-.117-.1-.138-.1-.057a.871.871 0 01-.019.144c-.015.081-.01.087.036.068.029-.011.072-.027.096-.034zm.59.15a19.828 19.828 0 01-.16-.764c-.005-.03.022-.042.103-.042.099 0 .112.007.129.084.01.044.053.209.09.362.097.385.097.395-.04.395-.065 0-.114-.015-.122-.034zm.444-.069a5.387 5.387 0 01-.163-.707c-.008-.102-.002-.109.086-.128.109-.023.113-.017.185.366.026.15.062.269.08.269.014 0 .122-.017.235-.038.218-.042.276-.028.276.066 0 .038-.036.057-.145.078-.08.016-.23.047-.339.071-.225.051-.2.05-.215.023zm.83-.19a.59.59 0 01-.035-.12c-.01-.053-.05-.223-.086-.38a1.655 1.655 0 01-.055-.304c.008-.011.162-.045.344-.074.31-.047.334-.047.4-.004.121.078.165.169.13.267-.024.068-.022.098.01.145a.256.256 0 01.042.121c0 .036.02.095.043.13.044.067.042.067-.071.1-.125.039-.163.016-.165-.101 0-.104-.083-.15-.241-.13-.16.018-.161.024-.118.215a.73.73 0 01.021.115c-.023.021-.21.038-.22.02zm.347-.538a.552.552 0 00.136-.052c.032-.027-.002-.127-.047-.144-.062-.025-.361.048-.359.083l.007.09c.004.065.089.073.263.024zm.746.26c-.14-.035-.249-.275-.217-.477.027-.155.123-.26.303-.327.258-.098.435-.058.591.133.07.085.082.12.082.264-.002.176-.034.242-.165.322-.14.084-.43.126-.593.084zm.448-.193c.078-.05.102-.14.076-.276-.024-.135-.102-.204-.25-.22-.101-.01-.128-.003-.187.06-.188.204-.052.542.2.494a.536.536 0 00.161-.058zm.494.054c-.016-.026.14-.795.175-.861.015-.03.06-.053.095-.053a.373.373 0 00.108-.017c.038-.015.138.104.425.51.027.036.068.085.094.11.069.059.06.13-.013.151-.112.03-.172.017-.234-.049-.055-.058-.074-.062-.18-.041-.248.052-.24.048-.24.13 0 .056-.02.087-.07.11-.081.037-.142.041-.16.01zm.468-.434c.01-.03-.145-.225-.164-.204a.43.43 0 00-.032.132l-.017.119.102-.01c.057-.005.106-.022.111-.035zm.605.178c-.007-.021-.043-.182-.083-.357a7.137 7.137 0 00-.085-.36c-.023-.064.019-.092.193-.132.295-.066.387-.068.516-.006.196.095.281.348.188.564-.062.143-.084.162-.292.236-.231.08-.422.104-.437.055zm.416-.216c.12-.074.15-.141.123-.272-.046-.204-.125-.248-.37-.208-.088.015-.103.028-.103.085 0 .066.074.386.1.427.025.04.161.021.25-.032zm-4.413 2.35c.433-.056.631-.14.601-.256-.017-.064-.202-.125-.302-.1a1.46 1.46 0 00-.272.132l-.282.166c-.121.07-.115.112.014.093.056-.01.166-.024.242-.034zm-.578-.164c.03-.01.123-.05.206-.088.083-.038.212-.09.287-.116.159-.054.178-.086.1-.164-.077-.078-.202-.072-.387.011-.18.083-.609.373-.593.399.013.02.302-.01.387-.044zm2.672-.217c.102-.043.115-.068.063-.12-.044-.044-.133-.042-.38.01-.212.044-.273.066-.176.066a.14.14 0 01.081.025c.064.063.282.072.412.02zm-.816-.253c.28-.051.448-.095.48-.123.014-.01-.004-.036-.038-.053-.081-.043-.361-.038-.478.011-.05.021-.142.046-.204.057-.13.02-.163.052-.114.111.042.051.06.051.354-.003zm-7.854-.652c.081-.019.15-.047.151-.06.003-.015-.074-.05-.172-.076-.283-.076-.278-.062-.11-.225.218-.21.362-.37.458-.512.259-.38.5-.98.561-1.402.087-.594-.047-1.284-.37-1.892-.164-.306-.31-.5-.588-.779-.126-.126-.225-.243-.221-.258.005-.017.078-.046.16-.067.084-.02.256-.09.384-.152.437-.216.866-.722.966-1.138.019-.076.053-.153.078-.172.032-.027.298-.034 1.118-.034h1.075l.04-.09c.09-.209.359-.522.622-.726.323-.25.818-.39 1.264-.356.134.011.27.029.302.042.032.01.114.038.184.057.425.12.909.532 1.126.956l.058.117h1.123l1.12-.005.073.189c.109.29.245.525.41.705.077.086.42.349.457.349.011 0 .042.017.064.038.059.05.39.181.512.202.053.01.106.026.114.041.01.016-.082.121-.2.237-.33.32-.48.535-.732 1.033-.159.316-.26.705-.285 1.093-.017.257.023.706.064.748.011.011.059.011.104 0l.081-.02-.014-.22c-.032-.523-.004-.833.113-1.224.052-.17.214-.577.244-.605.008-.008.046-.07.082-.138.128-.233.306-.465.56-.726l.258-.263-.168-.045c-.217-.06-.578-.236-.716-.35-.425-.35-.61-.602-.745-1.013l-.059-.18-1.19-.005-1.19-.008-.048-.085a2.28 2.28 0 00-.506-.654c-.242-.2-.42-.298-.764-.416-.234-.079-.29-.088-.582-.088-.177 0-.346.01-.374.028a1.035 1.035 0 01-.185.059 1.967 1.967 0 00-.316.115c-.41.193-.7.47-.914.875l-.097.181-.468.006c-.258.004-.775.005-1.151.005-.522 0-.686.01-.694.034a3.399 3.399 0 01-.276.644c-.155.237-.499.56-.7.662a1.472 1.472 0 00-.141.081 1.78 1.78 0 01-.45.167l-.105.016.236.238c.298.303.327.337.478.57.204.313.299.506.403.812.26.777.226 1.533-.108 2.341a1.736 1.736 0 01-.127.252.303.303 0 00-.05.098c0 .093-.64.861-.717.861-.063 0-.023.084.047.1.042.009.113.027.159.039.112.03.117.03.283-.01zm11.431-.29c.005-.018-.008-.033-.032-.033a.044.044 0 00-.043.045c0 .047.058.04.075-.01zm-9.03-.228l.443-.106c.053-.014.22-.052.37-.087.545-.119.527-.107.443-.27-.08-.153-.584-.516-.641-.461-.024.025.06.365.108.435.068.102.066.217-.004.217-.044 0-.293-.164-.457-.298a4.056 4.056 0 00-.227-.155 1.63 1.63 0 01-.214-.156c-.045-.071-.07-.005-.064.169.004.164.017.213.083.31.093.138.1.185.025.164-.032-.006-.057-.024-.057-.038 0-.014-.02-.024-.041-.024a.938.938 0 01-.206-.083.909.909 0 00-.199-.082 1.42 1.42 0 01-.228-.092 1.877 1.877 0 00-.273-.112c-.077-.018-.077-.018-.058.082.022.126.264.436.397.51.054.03.141.085.194.123.106.077.066.08.607-.047zm1.757-.366c.022-.023.122-.516.107-.531-.03-.032-.172.07-.245.174-.08.113-.133.292-.108.364.01.027.045.034.12.023a.319.319 0 00.125-.03zm.381-.055c.046-.02.155-.074.246-.116.09-.041.21-.102.263-.135l.175-.108c.117-.072.042-.099-.177-.06a.69.69 0 00-.323.134.814.814 0 01-.17.104c-.038 0-.112.113-.112.172 0 .058-.002.058.098.01zm-1.926-2.174c.002-.3.01-.551.018-.559.007-.005.04.065.075.16.182.5.336.891.365.925.041.053.709.038.709-.015 0-.019-.037-.111-.08-.206-.076-.16-.166-.361-.3-.654-.03-.07-.091-.202-.133-.299l-.075-.173.072-.17c.04-.095.164-.382.277-.64.112-.258.202-.47.2-.473a10.278 10.278 0 00-.651-.011l-.098.004-.156.476c-.084.261-.164.504-.173.54-.036.13-.076-.015-.055-.204.011-.096.01-.319 0-.493l-.02-.32h-.71v1.318c0 .726.01 1.327.021 1.338.01.01.174.015.365.01l.346-.008zm2.089.44c.007-.048.017-.118.02-.156.008-.068.012-.07.256-.07h.247l.03.153.029.152.136.019c.193.024.53.026.546.004.008-.011-.074-.45-.18-.972a85.365 85.365 0 01-.217-1.115l-.056-.35c-.018-.102-.044-.198-.063-.213-.03-.025-.862-.025-.88 0-.008.01-.12.482-.2.837-.018.09-.082.365-.137.607-.299 1.292-.284 1.192-.202 1.204.036.002.198.002.36 0l.296-.01zm.143-.81c-.01-.02.021-.308.099-.856.035-.26.083-.344.098-.17.004.053.032.282.06.506.078.58.086.541-.094.541a.423.423 0 01-.163-.02zm2.192-.096l.005-1 .208-.015.206-.015-.005-.274c-.003-.153-.005-.299-.007-.325 0-.044-.055-.047-.742-.047-.564 0-.749.005-.764.034-.027.041-.043.476-.023.565.014.056.03.062.19.062.135 0 .179.01.192.044.01.023.017.476.017 1.005v.962h.716zm1.923.425v-.572l.11-.29.135-.342c.013-.03.038-.098.057-.15.019-.054.043-.122.056-.152.014-.03.042-.106.065-.167.02-.06.064-.177.096-.26a3.24 3.24 0 00.059-.159c0-.006-.165-.006-.365 0l-.363.005-.048.151-.12.394c-.042.132-.084.236-.095.229a.74.74 0 01-.07-.188 4.825 4.825 0 00-.189-.565c-.028-.045-.735-.05-.735-.004 0 .027.157.403.302.728.029.06.084.19.125.29.042.097.104.241.14.32.062.132.066.174.068.66.002.285.01.548.017.582.015.06.025.062.384.062h.37z" fill="#018471"/></g></svg>