<svg xmlns="http://www.w3.org/2000/svg" width="65.8" height="65.8" viewBox="0 0 17.41 17.41"><filter id="a"><feColorMatrix type="saturate" values=".1"/></filter><g filter="url(#a)" transform="translate(-102.282 42.237)"><circle class="st1" cx="110.987" cy="-33.533" r="8.573" fill="#fff" stroke="#fff" stroke-width=".265" stroke-miterlimit="10"/><path d="M110.28-28.208c-1.213-.17-2.38-.79-3.235-1.717a5.066 5.066 0 01-1-1.548c-.302-.717-.396-1.223-.392-2.125.002-.646.021-.821.138-1.251.165-.609.514-1.368.803-1.754.328-.434.973-1.072 1.377-1.36 1.793-1.275 4.131-1.284 5.987-.022.383.26 1.012.884 1.338 1.33.712.972 1.06 2.174.994 3.446-.046.871-.257 1.585-.714 2.396-.284.505-1.198 1.454-1.734 1.8-.443.283-1.27.627-1.756.727-.456.095-1.4.136-1.806.078zm-.425-2.674v-.799h-.26v1.298h-.618v-1.298h-.31v.743c0 .51.02.759.063.803.04.043.24.062.593.058l.532-.005zm.464.287c0-.315.02-.509.049-.49.026.016.167.227.314.47.255.426.37.542.537.542.069 0 .081-.11.081-.804v-.804h-.31v1.012l-.187-.312c-.317-.529-.474-.7-.643-.7h-.15v1.608h.309zm1.794.488c.241-.03.27-.045.27-.155 0-.114-.018-.121-.309-.121h-.31v-.364h.313c.31 0 .313-.001.297-.142-.016-.138-.027-.143-.314-.14h-.296v-.167c0-.167 0-.167.296-.183.282-.014.298-.023.314-.159l.016-.143h-.988v1.608h.221c.12 0 .34-.016.49-.034zm1.084-.082c.136-.068.23-.362.169-.524-.056-.15-.2-.273-.43-.37-.13-.055-.192-.113-.192-.183 0-.141.234-.14.31.001.074.138.31.141.31.004 0-.17-.058-.265-.21-.344-.343-.176-.719-.009-.719.32 0 .263.067.353.356.479.302.13.339.176.263.317-.081.155-.3.139-.34-.025-.025-.1-.066-.13-.182-.13-.121 0-.15.023-.15.123 0 .35.42.522.815.331zm-2.394-1.75c.095 0 .497-.36.497-.445 0-.11-.246-.092-.4.03-.4.317-.98-.105-.786-.573.12-.29.473-.387.747-.204.152.1.44.143.44.063a.476.476 0 00-.082-.155c-.204-.294-.805-.384-1.108-.165-.347.248-.436.735-.203 1.115.136.22.557.416.763.355a.647.647 0 01.132-.022zm3.515-.053c.151-.057.388-.293.388-.385 0-.113-.2-.1-.388.023-.201.134-.49.134-.661-.001-.277-.218-.21-.69.116-.827.182-.074.48-.033.573.08.067.08.41.105.41.028 0-.08-.355-.365-.49-.393l-.248-.051c-.337-.069-.77.253-.839.626-.074.393.192.84.564.95.16.047.372.028.575-.05zm-6.682-.222v-.277l.317-.074c.41-.096.536-.244.483-.564-.044-.263-.187-.34-.708-.395l-.335-.034-.034.2a5.971 5.971 0 000 1.224c.027.161.053.194.153.194.113 0 .124-.02.124-.274zm.954.03l.1-.22h.287c.286 0 .286 0 .413.232.093.17.158.232.245.232.063 0 .116-.031.116-.068 0-.078-.557-1.439-.611-1.495-.018-.02-.096-.023-.173-.006-.124.024-.175.109-.451.764-.173.407-.313.757-.313.776 0 .02.064.03.142.02.109-.012.165-.066.245-.235zm3.06-.528c.006-.412-.005-.766-.027-.79-.023-.022-.093-.027-.157-.01-.104.027-.115.062-.115.374 0 .189.016.538.034.774.032.398.042.43.141.414.104-.014.11-.048.123-.761zm.45.436l.037-.337h.247c.177 0 .256-.023.277-.081.06-.157.03-.178-.247-.178-.27 0-.278-.005-.3-.155-.012-.087-.012-.167.002-.182.015-.014.15-.026.302-.026.271 0 .275-.001.275-.155v-.155h-.878v1.605h.125c.117 0 .129-.024.16-.336zm.954-.432c0-.423-.013-.781-.026-.795-.016-.016-.085-.018-.156-.004l-.128.025.002.656c0 .79.021.886.185.886h.123zm-6.05-1.514l.017-.434.176.41c.097.223.2.43.224.454.102.104.247-.072.421-.511l.18-.455.016.502c.014.496.015.503.14.503h.128v-1.613l-.185.016c-.177.016-.19.032-.327.379-.077.2-.174.428-.216.51l-.078.145-.2-.458c-.246-.565-.262-.585-.445-.585h-.148v.774c0 .693.01.775.09.796.17.045.194 0 .208-.433zm1.735.388c.018-.046.032-.41.032-.807v-.725l-.143.016-.14.016-.015.687c-.016.69.023.894.164.894.039 0 .085-.037.102-.081zm.855.005c.081-.042.157-.106.17-.143.014-.044.078-.015.195.083.152.127.206.143.407.122.28-.034.416-.175.421-.444.002-.18.004-.182.055-.06.115.29.435.52.726.518.425-.003.809-.339.851-.744.029-.252-.137-.611-.356-.776-.197-.148-.704-.151-.898-.005a.857.857 0 00-.374.62c-.03.198-.048.231-.076.149-.021-.06-.15-.16-.294-.23-.173-.08-.258-.151-.258-.216 0-.162.154-.173.295-.02.07.076.167.132.215.124.137-.027.132-.233-.013-.377-.259-.261-.802-.13-.807.192-.005.102-.01.098-.071-.039-.118-.273-.361-.377-.645-.278-.194.066-.264.181-.264.428 0 .211.093.319.37.43.217.088.319.22.27.349-.051.135-.304.104-.372-.048-.04-.088-.1-.128-.189-.128-.194 0-.176.225.03.419.181.17.38.194.611.074zm3.77-.001a.567.567 0 00.203-.177c.083-.155.123-.64.083-1.011-.034-.31-.046-.34-.155-.34-.117 0-.12.013-.14.562-.02.599-.068.733-.27.733-.207 0-.237-.094-.237-.71v-.586h-.32l.036 1.304.17.15c.19.171.396.196.63.075zm.733-.27l.014-.35.274.35c.204.262.303.347.398.347.16 0 .16-.007-.013-.314l-.14-.252.147-.153a.439.439 0 00.145-.361c-.007-.397-.194-.526-.767-.526h-.328v.772c0 .78.009.818.192.83.04.002.068-.112.078-.343zm1.183.01c.02-.171.037-.527.039-.79l.004-.479h-.309v1.613l.117-.016c.1-.014.12-.056.148-.328z" fill="#c62024"/><path d="M110.722-26.913c-.104-.227-.21-.414-.234-.414-.025 0-.145.143-.268.317-.122.173-.24.296-.263.271a2.359 2.359 0 01-.155-.368c-.063-.178-.132-.322-.15-.322-.02 0-.158.126-.312.282-.153.155-.292.273-.311.26-.02-.01-.064-.185-.1-.385-.035-.202-.087-.38-.114-.395-.027-.018-.132.035-.235.116-.445.354-.435.349-.484.271-.026-.04-.046-.23-.047-.422 0-.228-.022-.35-.06-.35-.032 0-.218.092-.411.203l-.35.203.03-.435c.02-.28.014-.438-.02-.438-.03 0-.222.07-.429.156a10.2 10.2 0 01-.386.156 5.79 5.79 0 01.092-.442c.056-.243.09-.455.076-.469-.014-.014-.198.021-.406.08-.21.058-.407.105-.442.105-.04 0-.016-.11.069-.324.072-.178.144-.38.158-.444.027-.12.023-.122-.276-.088a8.078 8.078 0 00-.446.06c-.078.016-.141.012-.141-.007 0-.02.075-.166.17-.328.261-.451.263-.458.045-.495a3.672 3.672 0 00-.46-.032c-.15 0-.271-.014-.271-.03 0-.018.103-.164.232-.328.127-.164.233-.32.233-.35 0-.032-.146-.084-.323-.117-.573-.11-.56-.086-.204-.418.176-.164.319-.322.319-.352 0-.03-.187-.118-.416-.194l-.418-.141.248-.176c.138-.097.31-.22.38-.272l.128-.095-.409-.208-.409-.206.421-.22c.233-.122.424-.249.424-.28 0-.034-.165-.173-.365-.31-.201-.14-.35-.267-.332-.286.018-.018.212-.096.429-.17l.396-.135-.33-.328-.327-.33.405-.067c.224-.037.427-.074.451-.083.023-.006-.088-.181-.248-.387l-.29-.374h.195c.107 0 .317-.016.463-.033.304-.036.304-.02.025-.503-.095-.164-.166-.308-.155-.317.01-.01.192 0 .405.025.213.023.406.025.43.001.023-.023-.028-.224-.115-.446a3.345 3.345 0 01-.144-.418 2.27 2.27 0 01.37.088c.198.055.39.1.425.1.088 0 .083-.152-.014-.53-.044-.17-.067-.324-.051-.34.014-.015.185.034.377.11.194.075.37.137.395.137.023 0 .026-.197.007-.439l-.037-.438.372.206c.206.113.393.206.417.206.025 0 .046-.124.046-.273 0-.148.014-.358.032-.464l.031-.19.316.255c.174.141.34.25.368.24.028-.009.085-.196.125-.414.04-.219.092-.398.113-.398.02 0 .168.144.326.32.168.187.307.3.332.272.023-.027.107-.23.185-.45l.143-.401.13.193c.234.348.386.533.437.533.028 0 .122-.164.21-.364.09-.199.174-.362.19-.362.016 0 .099.133.183.296.085.162.182.303.215.313.034.01.156-.121.272-.292.114-.171.23-.325.255-.339.041-.024.102.115.327.744.045.124.053.118.377-.204.183-.182.341-.321.354-.31.013.015.058.209.106.436.046.226.093.422.107.434.013.014.18-.106.374-.264l.349-.29.035.443c.018.243.046.453.06.467.013.013.2-.072.413-.19l.389-.213-.03.468c-.021.309-.013.47.023.47.028 0 .208-.073.396-.161.189-.09.358-.148.377-.13.018.019-.009.209-.06.424-.05.215-.079.405-.063.421.018.016.217-.017.444-.076.23-.056.416-.09.416-.072 0 .016-.065.21-.142.43-.078.22-.127.414-.11.432.018.018.215.009.437-.02.224-.026.416-.04.427-.027.01.01-.078.185-.198.387-.12.203-.202.385-.183.404.02.02.219.044.442.053.226.01.41.026.41.037 0 .009-.115.17-.258.36-.143.188-.257.363-.257.387 0 .025.174.074.387.11.214.033.399.077.412.098.012.02-.105.16-.26.314-.155.153-.282.305-.282.335 0 .031.2.121.445.2.245.082.424.163.4.184-.025.021-.202.148-.394.284-.19.134-.347.254-.347.264 0 .013.189.12.418.24l.42.22-.343.173c-.187.095-.341.192-.341.217 0 .025.144.14.322.255l.32.214-.179.07c-.099.04-.29.113-.424.162-.135.05-.245.122-.245.16 0 .037.133.185.295.33.162.143.283.273.265.29-.018.019-.21.075-.427.128-.217.051-.409.107-.425.123-.015.016.101.189.258.382l.285.353-.432.027c-.236.014-.445.042-.465.06-.02.019.06.198.177.398.116.199.21.37.21.38 0 .01-.196.007-.438 0-.29-.013-.439 0-.439.036 0 .032.062.208.138.395.076.185.125.349.11.367-.017.015-.168-.007-.34-.053-.415-.108-.54-.106-.507.01.08.27.19.752.176.765-.009.009-.178-.051-.377-.132-.53-.217-.51-.231-.472.313.018.256.022.465.013.465-.013 0-.187-.095-.39-.213-.202-.116-.384-.197-.402-.178-.02.02-.047.219-.062.446l-.028.411-.333-.26c-.183-.142-.357-.25-.388-.24-.028.01-.084.199-.123.42l-.072.402-.298-.296c-.168-.167-.33-.285-.368-.271-.039.014-.125.194-.194.397-.067.202-.143.368-.166.368-.023 0-.136-.14-.253-.314-.117-.173-.24-.305-.272-.296-.034.01-.143.176-.242.367-.1.19-.192.347-.206.345-.014 0-.113-.187-.217-.414zm1.516-.929c1.36-.307 2.52-1.075 3.402-2.258.417-.562.576-.867.853-1.658.246-.703.341-1.82.224-2.64-.068-.46-.348-1.305-.609-1.825-.648-1.293-1.914-2.393-3.296-2.866a5.85 5.85 0 00-4.453.31c-1.247.63-2.385 1.878-2.835 3.108-.574 1.576-.521 3.158.152 4.604.562 1.205 1.453 2.122 2.66 2.739.617.317.913.418 1.593.543.647.118 1.64.095 2.309-.057z" fill="#c62024"/><path d="M111.226-34.224c-.2-.236-.185-.523.034-.724.234-.216.486-.21.708.015.148.152.165.193.142.4-.034.309-.212.47-.524.47-.188 0-.249-.027-.36-.161zm2.861-.592v-.233h.195c.224 0 .321.073.321.241 0 .14-.137.226-.36.226-.151 0-.156-.009-.156-.234zm-3.967.622c-.03-.07-.1-.128-.15-.128-.052 0-.132-.066-.178-.147-.048-.08-.201-.2-.348-.268-.176-.083-.26-.153-.26-.219 0-.156.14-.165.315-.019.1.085.196.126.254.108.07-.023.099 0 .11.088.011.081.098.162.265.254.35.188.432.278.348.38-.103.126-.286.1-.355-.049zm-1.35 1.479c0-.028.052-.155.114-.284l.113-.234.116.245c.064.136.118.262.12.285.002.021-.103.039-.23.039-.128 0-.232-.023-.232-.051zm-1.16-.044c-.015-.014-.027-.14-.027-.277 0-.264.028-.286.333-.257.226.021.388.352.224.455-.083.05-.497.112-.53.079z" fill="#c62024"/></g></svg>