<?xml version="1.0" encoding="UTF-8" standalone="no"?>
<svg
   xmlns:dc="http://purl.org/dc/elements/1.1/"
   xmlns:cc="http://creativecommons.org/ns#"
   xmlns:rdf="http://www.w3.org/1999/02/22-rdf-syntax-ns#"
   xmlns:svg="http://www.w3.org/2000/svg"
   xmlns="http://www.w3.org/2000/svg"
   xmlns:sodipodi="http://sodipodi.sourceforge.net/DTD/sodipodi-0.dtd"
   xmlns:inkscape="http://www.inkscape.org/namespaces/inkscape"
   width="17.409584mm"
   height="17.409584mm"
   viewBox="0 0 17.409584 17.409584"
   version="1.1"
   id="svg1870"
   inkscape:version="1.0.1 (3bc2e813f5, 2020-09-07)"
   sodipodi:docname="SLSF.svg">
  <defs
     id="defs1864" />
  <filter id="grayscale">
    <feColorMatrix type="saturate" values="0.10"/>
  </filter>
  <sodipodi:namedview
     id="base"
     pagecolor="#ffffff"
     bordercolor="#666666"
     borderopacity="1.0"
     inkscape:pageopacity="0.0"
     inkscape:pageshadow="2"
     inkscape:zoom="2.1760267"
     inkscape:cx="30.702679"
     inkscape:cy="137.18026"
     inkscape:document-units="mm"
     inkscape:current-layer="layer1"
     inkscape:document-rotation="0"
     showgrid="false"
     fit-margin-top="0"
     fit-margin-left="0"
     fit-margin-right="0"
     fit-margin-bottom="0"
     inkscape:window-width="1920"
     inkscape:window-height="1054"
     inkscape:window-x="0"
     inkscape:window-y="26"
     inkscape:window-maximized="1" />
  <metadata
     id="metadata1867">
    <rdf:RDF>
      <cc:Work
         rdf:about="">
        <dc:format>image/svg+xml</dc:format>
        <dc:type
           rdf:resource="http://purl.org/dc/dcmitype/StillImage" />
        <dc:title />
      </cc:Work>
    </rdf:RDF>
  </metadata>
  <g
     inkscape:label="Layer 1"
     inkscape:groupmode="layer"
     id="layer1"
     filter="url(#grayscale)"
     transform="translate(-102.28184,42.237323)">
    <circle
       class="st1"
       cx="110.98663"
       cy="-33.532532"
       id="circle3408"
       style="fill:#ffffff;stroke:#ffffff;stroke-width:0.264583;stroke-miterlimit:10"
       r="8.5725002" />
    <path
       d="m 110.78309,-30.592763 c 0,-0.0092 -0.007,-0.01608 -0.0161,-0.01608 -0.0105,0 -0.07,-0.03647 -0.13327,-0.07935 -0.0632,-0.04523 -0.12444,-0.07935 -0.13328,-0.07935 -0.009,0 -0.0254,-0.01307 -0.0378,-0.02536 -0.0105,-0.01425 -0.0576,-0.04523 -0.10104,-0.06641 -0.0452,-0.02353 -0.10288,-0.05621 -0.12955,-0.07425 -0.0254,-0.01987 -0.12641,-0.06823 -0.22366,-0.111636 -0.71848,-0.316813 -1.31659,-0.446867 -2.06227,-0.446867 -0.63225,0 -1.15289,0.09412 -1.75285,0.317272 -0.34956,0.129543 -0.76367,0.34403 -0.9924,0.513274 -0.0525,0.03777 -0.10105,0.06876 -0.10837,0.06876 -0.0131,0 -0.43764,-0.518804 -0.47914,-0.587511 -0.0217,-0.03229 -0.0131,-0.04836 0.10981,-0.226891 0.29375,-0.428868 0.5045,-0.994233 0.58567,-1.574371 0.12953,-0.920455 -0.0849,-1.880583 -0.58567,-2.621192 -0.0807,-0.122224 -0.15634,-0.232421 -0.16554,-0.243023 -0.009,-0.01307 -0.006,-0.03777 0.0105,-0.07189 0.0328,-0.07059 0.47038,-0.547849 0.50634,-0.552921 0.0143,-0.0039 0.10785,0.0447 0.20522,0.106014 0.58197,0.363848 1.29722,0.619798 1.99633,0.713407 0.0969,0.01307 0.30805,0.02863 0.46991,0.03412 1.05927,0.03595 2.05351,-0.246722 2.91126,-0.828702 0.0757,-0.0502 0.14388,-0.0936 0.1531,-0.0936 0.0105,0 0.0807,0.04523 0.15817,0.101047 0.43072,0.304357 0.94215,0.526176 1.58545,0.691733 0.35278,0.08994 0.54739,0.109805 1.14735,0.109805 0.48282,0 0.54415,-0.0013 0.73139,-0.03595 0.79272,-0.142498 1.47016,-0.419652 2.02999,-0.826847 0.0775,-0.05765 0.14618,-0.102876 0.15171,-0.102876 0.0286,0 0.60505,0.60734 0.64101,0.675589 0.0199,0.03777 0.0181,0.04706 -0.0502,0.133269 -0.16233,0.207519 -0.40719,0.668674 -0.51187,0.965658 -0.0738,0.21259 -0.14573,0.513261 -0.1817,0.758597 -0.0396,0.270238 -0.0378,0.84299 0,1.095241 0.0845,0.54185 0.29698,1.104 0.58382,1.538396 0.0627,0.09542 0.11347,0.181701 0.11347,0.194145 0,0.01987 -0.40905,0.468529 -0.54786,0.599969 l -0.0576,0.05399 -0.16556,-0.100525 c -0.59073,-0.363846 -1.06849,-0.563979 -1.65737,-0.693563 -0.3242,-0.07242 -0.4667,-0.09045 -0.7729,-0.106537 -0.68435,-0.03229 -1.26633,0.04143 -1.84829,0.234264 -0.44824,0.149413 -0.76183,0.304357 -1.205,0.594425 -0.12405,0.08117 -0.17108,0.09909 -0.17108,0.06693 z m 0.56584,-1.680908 c 0.12221,-0.03412 0.13649,-0.0434 0.23379,-0.142028 0.20752,-0.211205 0.26839,-0.394749 0.2504,-0.73508 -0.0162,-0.28637 -0.0646,-0.401664 -0.23241,-0.536777 -0.11164,-0.09229 -0.25365,-0.169244 -0.39428,-0.214435 -0.18539,-0.0613 -0.2956,-0.156798 -0.2956,-0.261479 0,-0.05033 0.0885,-0.1531 0.13188,-0.1531 0.0738,0 0.21951,0.126407 0.21951,0.190917 0,0.04889 0.0954,0.06693 0.32788,0.0613 l 0.20891,-0.0052 -0.006,-0.07242 c -0.006,-0.109806 -0.0646,-0.318658 -0.11164,-0.405352 -0.054,-0.09686 -0.18539,-0.217663 -0.30251,-0.27531 -0.0867,-0.0434 -0.10471,-0.04523 -0.30068,-0.04523 -0.19275,0 -0.21443,0.0013 -0.30113,0.0434 -0.11856,0.05582 -0.30067,0.230578 -0.35462,0.34033 -0.0885,0.18216 -0.0903,0.588896 -9.3e-4,0.781657 0.0465,0.102876 0.15863,0.227348 0.26469,0.295598 0.0414,0.02719 0.15126,0.07935 0.24489,0.118955 0.31172,0.131426 0.36385,0.169244 0.36385,0.268382 0,0.07189 -0.0341,0.149414 -0.0788,0.172944 -0.0434,0.02353 -0.1388,0.01987 -0.19276,-0.0079 -0.0544,-0.02863 -0.11713,-0.106015 -0.15173,-0.189075 l -0.023,-0.05948 h -0.52802 v 0.06876 c 9.3e-4,0.327873 0.27208,0.713393 0.5497,0.779799 0.10979,0.02536 0.34585,0.01608 0.47912,-0.01987 z m 1.73622,0.0013 c 0.11164,-0.05033 0.23243,-0.153113 0.29745,-0.250409 0.11714,-0.176629 0.23057,-0.50773 0.23057,-0.677432 v -0.07373 l -0.16416,-0.0092 c -0.15495,-0.0092 -0.28822,0.0013 -0.32604,0.02483 -0.009,0.0052 -0.0217,0.03595 -0.0268,0.06693 -0.004,0.03046 -0.0308,0.102354 -0.0576,0.160486 -0.0595,0.122223 -0.11347,0.160015 -0.21813,0.14757 -0.19828,-0.0217 -0.28453,-0.219976 -0.28453,-0.652073 -9.2e-4,-0.363847 0.0503,-0.591196 0.15864,-0.686661 0.0719,-0.06092 0.15125,-0.06457 0.2338,-0.0092 0.0885,0.0613 0.13188,0.14757 0.18032,0.363847 l 0.009,0.04523 h 0.4953 v -0.05582 c 0,-0.205675 -0.18401,-0.708334 -0.30622,-0.83423 -0.0669,-0.06823 -0.21259,-0.131427 -0.37123,-0.15863 -0.20521,-0.03778 -0.34586,-0.0039 -0.52802,0.128237 -0.32742,0.231963 -0.46114,0.637314 -0.43578,1.31106 0.0105,0.302971 0.029,0.407194 0.0954,0.56768 0.11346,0.27531 0.26471,0.462998 0.43948,0.545535 0.14803,0.07059 0.16786,0.07569 0.34586,0.07569 0.12824,0.0013 0.17479,-0.0052 0.23243,-0.03046 z m 1.86075,-0.01987 c 0.20015,-0.09176 0.42012,-0.371232 0.52434,-0.662674 0.0396,-0.115296 0.0576,-0.421494 0.0416,-0.787198 -0.0131,-0.320965 -0.0397,-0.461149 -0.12589,-0.637778 -0.0849,-0.169244 -0.27576,-0.378606 -0.41272,-0.445013 -0.0849,-0.04156 -0.10288,-0.0434 -0.29745,-0.0434 -0.19784,0.0013 -0.21213,0.0039 -0.31127,0.05033 -0.39844,0.185845 -0.64332,0.800101 -0.57645,1.442944 0.0627,0.581981 0.29329,0.969344 0.65899,1.104471 0.13007,0.04836 0.37122,0.03777 0.49896,-0.0217 z m -8.19052,-0.225055 c 0,-0.126406 0.006,-0.326029 0.0105,-0.446854 l 0.0105,-0.218121 0.28084,-0.0026 0.28083,-0.0052 v -0.558449 l -0.29191,-0.0052 -0.29144,-0.0039 v -0.426567 l 0.15633,-0.0092 c 0.0848,-0.0079 0.2541,-0.01046 0.37492,-0.01046 h 0.21812 l 0.006,-0.295598 0.006,-0.297442 h -0.66082 l -0.65945,0.0013 0.009,1.210524 c 0.006,0.664988 0.0131,1.227138 0.0181,1.245111 0.007,0.04288 0.0365,0.04654 0.32973,0.05033 l 0.20383,0.0039 z m 3.34151,-1.025136 v -1.255726 h -0.56398 l 0.007,1.219753 c 0.004,0.670059 0.0131,1.230353 0.0199,1.246497 0.0131,0.03085 0.0683,0.03595 0.36385,0.04143 l 0.17294,0.0039 z m -1.85383,0.819461 c 0,-0.230578 0.006,-0.430253 0.0143,-0.442698 0.0105,-0.0166 0.0414,-0.01987 0.14989,-0.01307 0.0757,0.0052 0.1531,0.01804 0.17108,0.02902 0.0522,0.0268 0.0918,0.135126 0.10236,0.278997 0.0272,0.326042 0.0452,0.495286 0.0576,0.529875 0.0148,0.03778 0.0166,0.03778 0.26148,0.03778 0.29697,0 0.29374,0.0013 0.26654,-0.156786 -0.0105,-0.05948 -0.029,-0.252251 -0.0416,-0.428867 -0.0143,-0.221363 -0.0268,-0.334801 -0.0452,-0.367547 -0.0286,-0.05399 -0.11347,-0.149414 -0.16925,-0.187231 l -0.0396,-0.02719 0.0649,-0.06823 c 0.0359,-0.03595 0.0794,-0.08994 0.0991,-0.117125 0.11347,-0.165544 0.10785,-0.652073 -0.009,-0.886336 -0.0521,-0.102354 -0.14388,-0.17846 -0.2647,-0.217663 -0.07,-0.0217 -0.17109,-0.02719 -0.63224,-0.03268 l -0.54784,-0.0066 0.006,1.22851 c 9.3e-4,0.675132 0.0105,1.237283 0.0162,1.248341 0.0105,0.01425 0.0849,0.01987 0.27761,0.01987 h 0.26102 z"
       style="fill:#c8242c;fill-opacity:1;fill-rule:nonzero;stroke:none;stroke-width:0.461151"
       id="path852" />
    <path
       d="m 114.5733,-32.88977 c -0.0669,-0.03412 -0.13143,-0.124054 -0.17108,-0.236107 -0.0396,-0.116602 -0.0508,-0.641001 -0.0161,-0.803329 0.0305,-0.145727 0.0969,-0.272081 0.16924,-0.318657 0.07,-0.04889 0.15818,-0.04889 0.21582,-0.0013 0.0576,0.0434 0.14803,0.237964 0.17661,0.378149 0.0309,0.140655 0.0309,0.520646 0,0.663144 -0.0286,0.136956 -0.10052,0.266539 -0.16185,0.296971 -0.0254,0.01307 -0.0595,0.02902 -0.0738,0.03595 -0.0414,0.01987 -0.0775,0.0166 -0.14064,-0.01425 z"
       style="fill:#c8242c;fill-opacity:1;fill-rule:nonzero;stroke:none;stroke-width:0.461151"
       id="path854" />
    <path
       d="m 108.22875,-33.943493 c 0.007,-0.286383 0.007,-0.28454 0.19462,-0.272082 0.0683,0.0052 0.14203,0.01804 0.16555,0.03085 0.13511,0.06457 0.1568,0.30067 0.0359,0.401664 -0.0483,0.03961 -0.0881,0.04836 -0.29146,0.06457 l -0.11019,0.0079 z"
       style="fill:#c8242c;fill-opacity:1;fill-rule:nonzero;stroke:none;stroke-width:0.461151"
       id="path856" />
    <path
       d="m 116.50968,-30.176798 c -0.60364,-0.459313 -1.3581,-0.765526 -2.17248,-0.877122 -0.27393,-0.03777 -0.85545,-0.03777 -1.12753,0 -0.77658,0.107845 -1.55455,0.419653 -2.16373,0.866507 -0.0737,0.05399 -0.14573,0.09869 -0.16002,0.09869 -0.0147,0 -0.0544,-0.02117 -0.0885,-0.04849 -0.33664,-0.259624 -0.83192,-0.526162 -1.26264,-0.679275 -1.09339,-0.387364 -2.20661,-0.358318 -3.29632,0.08483 -0.30297,0.122616 -0.69542,0.338488 -0.85589,0.468541 -0.0396,0.03229 -0.11347,0.08628 -0.16555,0.120394 l -0.0936,0.0613 -0.0954,-0.102877 c -0.20751,-0.225035 -0.80701,-0.9472 -0.80701,-0.97073 0,-0.0079 0.041,-0.0613 0.0936,-0.122616 0.24856,-0.29697 0.55662,-0.922298 0.66822,-1.36178 0.0794,-0.302513 0.10418,-0.509574 0.10287,-0.846676 0,-0.340331 -0.0308,-0.55845 -0.12444,-0.904323 -0.11712,-0.423338 -0.41781,-0.994234 -0.69542,-1.312891 -0.13142,-0.153113 -0.14204,-0.113465 0.10105,-0.383677 0.0899,-0.102878 0.20336,-0.230578 0.25041,-0.286383 0.14755,-0.176616 0.51141,-0.571366 0.52754,-0.571366 0.007,0 0.0811,0.04889 0.16233,0.108367 0.18032,0.13327 0.47176,0.311285 0.68619,0.419652 0.69912,0.350932 1.53841,0.516947 2.32376,0.459313 0.6613,-0.04706 1.35117,-0.255951 1.92577,-0.581981 0.1946,-0.111635 0.39797,-0.241179 0.44132,-0.286369 0.0143,-0.01307 0.0322,-0.02353 0.0414,-0.02353 0.009,0 0.0414,-0.0217 0.07,-0.04836 0.0452,-0.03961 0.0613,-0.04523 0.0923,-0.03268 0.0212,0.0079 0.14942,0.0885 0.28638,0.180316 0.45746,0.306212 0.9744,0.536778 1.51304,0.673746 0.54231,0.136956 1.21052,0.162329 1.79435,0.06823 0.72401,-0.115296 1.44802,-0.43394 2.06964,-0.907553 0.0664,-0.05072 0.12955,-0.0936 0.13881,-0.0936 0.0181,0 1.05882,1.069868 1.09525,1.125672 0.0268,0.04157 0.0323,0.03412 -0.14435,0.236108 -0.31358,0.362004 -0.54232,0.815787 -0.67928,1.354408 -0.054,0.210746 -0.0646,0.28131 -0.0788,0.540476 -0.0254,0.423338 -0.004,0.704178 0.0807,1.030208 0.0936,0.364317 0.21074,0.650686 0.37123,0.913539 0.10797,0.178473 0.28268,0.414123 0.37492,0.508202 0.0646,0.06641 0.0664,0.07007 0.041,0.107975 -0.0268,0.04143 -0.53679,0.580125 -0.88265,0.932913 l -0.19967,0.203819 z m 0.39428,-0.250408 c 0.3823,-0.409051 0.6613,-0.718936 0.68113,-0.754911 0.0217,-0.03961 0.0217,-0.03961 -0.18216,-0.338487 -0.38368,-0.565836 -0.58335,-1.180092 -0.61057,-1.876884 -0.0286,-0.790885 0.22873,-1.572998 0.74753,-2.262888 0.0775,-0.104184 0.1388,-0.194604 0.13512,-0.203362 -0.009,-0.02719 -0.93844,-0.985488 -0.95459,-0.985488 -0.009,0 -0.10104,0.0613 -0.20336,0.135126 -0.6613,0.477286 -1.39822,0.765512 -2.22507,0.873879 -0.38184,0.04836 -1.00853,0.02483 -1.41019,-0.05255 -0.55155,-0.107844 -1.22483,-0.388749 -1.75654,-0.732766 l -0.24488,-0.158629 -0.0649,0.03595 c -0.0359,0.01987 -0.16187,0.09922 -0.279,0.174773 -0.44133,0.284539 -0.94768,0.504502 -1.46462,0.635942 -0.93107,0.239336 -2.09318,0.135112 -2.98135,-0.270239 -0.35278,-0.160486 -0.52756,-0.259636 -0.90063,-0.508188 -0.0305,-0.0217 -0.0646,-0.03778 -0.0738,-0.03778 -0.009,0 -0.12444,0.118956 -0.2541,0.266539 -0.4178,0.470385 -0.5294,0.605497 -0.5294,0.647001 0,0.02353 0.0396,0.08444 0.10236,0.161871 0.0576,0.06876 0.1047,0.130067 0.1047,0.135113 0,0.0052 0.0434,0.08117 0.0973,0.167858 0.25778,0.410423 0.4593,0.954586 0.52248,1.42127 0.023,0.167401 0.023,0.707878 0,0.898795 -0.0489,0.403508 -0.13696,0.700492 -0.32603,1.097084 -0.10654,0.225035 -0.31359,0.572738 -0.41965,0.706021 -0.0365,0.04706 -0.0649,0.08994 -0.0649,0.09726 0,0.0092 0.0341,0.05582 0.0757,0.107844 0.0973,0.122616 0.69173,0.78397 0.70235,0.78397 0.006,0 0.1047,-0.0651 0.22365,-0.144342 0.50589,-0.338487 1.13674,-0.599967 1.73992,-0.722164 0.36755,-0.07425 0.62349,-0.09543 1.05927,-0.08301 0.51005,0.01307 0.84115,0.06823 1.31336,0.225035 0.4464,0.148028 0.73647,0.288225 1.19624,0.583824 0.10601,0.06823 0.21074,0.131426 0.23197,0.138811 0.0327,0.01307 0.0724,-0.0079 0.28314,-0.14804 0.73646,-0.484673 1.55823,-0.761826 2.38508,-0.805173 0.98871,-0.05216 2.00278,0.237964 2.86745,0.821317 0.13327,0.09033 0.25409,0.164171 0.26839,0.164171 0.0148,0 0.10837,-0.08667 0.2089,-0.194604 z"
       style="fill:#000000;fill-opacity:1;fill-rule:nonzero;stroke:none;stroke-width:0.461151"
       id="path858" />
  </g>
</svg>
