<?xml version="1.0" encoding="UTF-8" standalone="no"?>
<svg
   xmlns:dc="http://purl.org/dc/elements/1.1/"
   xmlns:cc="http://creativecommons.org/ns#"
   xmlns:rdf="http://www.w3.org/1999/02/22-rdf-syntax-ns#"
   xmlns:svg="http://www.w3.org/2000/svg"
   xmlns="http://www.w3.org/2000/svg"
   xmlns:sodipodi="http://sodipodi.sourceforge.net/DTD/sodipodi-0.dtd"
   xmlns:inkscape="http://www.inkscape.org/namespaces/inkscape"
   width="17.409584mm"
   height="17.409584mm"
   viewBox="0 0 17.409584 17.409584"
   version="1.1"
   id="svg1870"
   inkscape:version="1.0.1 (3bc2e813f5, 2020-09-07)"
   sodipodi:docname="SP.svg">
  <defs
     id="defs1864" />
  <filter id="grayscale">
    <feColorMatrix type="saturate" values="0.10"/>
  </filter>
  <sodipodi:namedview
     id="base"
     pagecolor="#ffffff"
     bordercolor="#666666"
     borderopacity="1.0"
     inkscape:pageopacity="0.0"
     inkscape:pageshadow="2"
     inkscape:zoom="2.1760267"
     inkscape:cx="34.838658"
     inkscape:cy="141.31624"
     inkscape:document-units="mm"
     inkscape:current-layer="layer1"
     inkscape:document-rotation="0"
     showgrid="false"
     fit-margin-top="0"
     fit-margin-left="0"
     fit-margin-right="0"
     fit-margin-bottom="0"
     inkscape:window-width="956"
     inkscape:window-height="1050"
     inkscape:window-x="960"
     inkscape:window-y="26"
     inkscape:window-maximized="1" />
  <metadata
     id="metadata1867">
    <rdf:RDF>
      <cc:Work
         rdf:about="">
        <dc:format>image/svg+xml</dc:format>
        <dc:type
           rdf:resource="http://purl.org/dc/dcmitype/StillImage" />
        <dc:title></dc:title>
      </cc:Work>
    </rdf:RDF>
  </metadata>
  <g
     inkscape:label="Layer 1"
     inkscape:groupmode="layer"
     id="layer1"
     filter="url(#grayscale)"
     transform="translate(-102.28184,42.237323)">
    <circle
       class="st1"
       cx="110.98663"
       cy="-33.532532"
       id="circle3408"
       style="fill:#ffffff;stroke:#ffffff;stroke-width:0.264583;stroke-miterlimit:10"
       r="8.5725002" />
    <g
       id="g258"
       transform="matrix(0.42437598,0,0,0.42437598,42.705411,-232.74591)">
      <path
         d="m 148.734,465.879 c -0.082,-0.16 -0.089,-0.18 -0.089,-0.242 0,-0.114 0.066,-0.215 0.312,-0.477 0.387,-0.41 0.52,-0.57 0.691,-0.832 0.379,-0.57 0.438,-1.016 0.157,-1.144 -0.09,-0.043 -0.153,-0.036 -0.266,0.043 -0.105,0.066 -0.223,0.191 -0.504,0.527 -0.789,0.941 -1.113,1.223 -1.414,1.223 -0.195,0 -0.379,-0.122 -0.676,-0.442 -0.172,-0.183 -0.215,-0.285 -0.203,-0.488 0.039,-0.641 0.367,-1.297 0.973,-1.953 0.168,-0.184 0.707,-0.703 0.719,-0.699 0.019,0.003 0.246,0.332 0.277,0.394 0.055,0.113 0.023,0.168 -0.199,0.348 -0.383,0.312 -0.711,0.711 -0.926,1.136 -0.117,0.235 -0.176,0.422 -0.176,0.575 0,0.144 0.035,0.257 0.102,0.312 0.183,0.152 0.605,-0.187 1.097,-0.875 0.207,-0.293 0.332,-0.422 0.567,-0.59 0.187,-0.133 0.461,-0.246 0.597,-0.246 0.075,0 0.137,0.028 0.282,0.113 0.203,0.118 0.406,0.313 0.468,0.442 0.055,0.113 0.063,0.191 0.059,0.437 -0.008,0.164 -0.012,0.25 -0.031,0.332 -0.113,0.524 -0.406,1.012 -0.969,1.61 -0.184,0.199 -0.367,0.363 -0.59,0.539 l -0.168,0.133 z"
         style="fill:#ff0000;fill-opacity:1;fill-rule:nonzero;stroke:#ffffff;stroke-width:0.00151662;stroke-linecap:butt;stroke-linejoin:miter;stroke-miterlimit:4;stroke-dasharray:none;stroke-opacity:1"
         id="path260" />
    </g>
    <g
       id="g262"
       transform="matrix(0.42437598,0,0,0.42437598,42.705411,-232.74591)">
      <path
         d="m 150.668,461.887 c -0.113,-0.02 -0.258,-0.071 -0.363,-0.121 -0.325,-0.164 -0.617,-0.469 -0.789,-0.828 -0.118,-0.25 -0.168,-0.454 -0.18,-0.719 -0.012,-0.289 0.035,-0.485 0.172,-0.758 0.246,-0.481 0.691,-0.961 1.074,-1.156 0.398,-0.203 0.867,-0.231 1.336,-0.075 0.144,0.047 0.379,0.168 0.508,0.258 0.203,0.145 0.398,0.367 0.512,0.574 0.316,0.583 0.179,1.43 -0.329,2.051 -0.101,0.125 -0.281,0.289 -0.418,0.383 -0.23,0.156 -0.605,0.313 -0.902,0.375 -0.152,0.031 -0.492,0.039 -0.621,0.016 z m 0.57,-0.539 c 0.395,-0.118 0.715,-0.317 0.934,-0.575 0.336,-0.398 0.453,-0.867 0.324,-1.273 -0.051,-0.148 -0.121,-0.266 -0.246,-0.391 -0.406,-0.406 -0.895,-0.492 -1.387,-0.246 -0.183,0.09 -0.32,0.192 -0.508,0.379 -0.293,0.293 -0.363,0.438 -0.382,0.785 -0.02,0.43 0.097,0.813 0.332,1.055 0.109,0.117 0.293,0.215 0.5,0.273 0.09,0.024 0.121,0.024 0.23,0.02 0.078,-0.004 0.153,-0.012 0.203,-0.027 z"
         style="fill:#ff0000;fill-opacity:1;fill-rule:nonzero;stroke:#ffffff;stroke-width:0.00151662;stroke-linecap:butt;stroke-linejoin:miter;stroke-miterlimit:4;stroke-dasharray:none;stroke-opacity:1"
         id="path264" />
    </g>
    <g
       id="g266"
       transform="matrix(0.42437598,0,0,0.42437598,42.705411,-232.74591)">
      <path
         d="m 154.594,459.152 c -0.418,-0.066 -0.774,-0.371 -1.219,-1.043 -0.316,-0.468 -0.824,-1.371 -0.824,-1.457 0,-0.019 0.015,-0.043 0.047,-0.074 0.113,-0.109 0.398,-0.266 0.523,-0.285 0.055,-0.012 0.008,-0.082 0.426,0.645 0.492,0.855 0.742,1.257 0.855,1.371 0.114,0.113 0.317,0.179 0.516,0.168 0.281,-0.02 0.52,-0.122 0.695,-0.293 0.133,-0.129 0.192,-0.25 0.192,-0.395 0,-0.137 -0.106,-0.465 -0.305,-0.93 -0.242,-0.57 -0.586,-1.414 -0.598,-1.476 -0.007,-0.024 0,-0.028 0.321,-0.141 0.218,-0.074 0.328,-0.109 0.332,-0.101 0.015,0.019 0.496,1.254 0.578,1.472 0.164,0.453 0.316,0.938 0.347,1.114 0.036,0.183 -0.015,0.355 -0.168,0.582 -0.074,0.113 -0.312,0.351 -0.449,0.449 -0.215,0.148 -0.59,0.312 -0.847,0.371 -0.129,0.027 -0.325,0.039 -0.422,0.023 z"
         style="fill:#ff0000;fill-opacity:1;fill-rule:nonzero;stroke:#ffffff;stroke-width:0.00151662;stroke-linecap:butt;stroke-linejoin:miter;stroke-miterlimit:4;stroke-dasharray:none;stroke-opacity:1"
         id="path268" />
    </g>
    <g
       id="g270"
       transform="matrix(0.42437598,0,0,0.42437598,42.705411,-232.74591)">
      <path
         d="m 158.699,457.883 c -0.051,-0.028 -0.109,-0.098 -0.148,-0.18 -0.074,-0.164 -0.137,-0.402 -0.293,-1.121 -0.113,-0.531 -0.203,-0.934 -0.254,-1.109 -0.031,-0.106 -0.043,-0.121 -0.066,-0.129 -0.063,-0.016 -0.352,0.023 -0.758,0.097 -0.321,0.063 -0.512,0.094 -0.575,0.094 -0.058,0 -0.05,0.016 -0.144,-0.347 -0.059,-0.247 -0.066,-0.286 -0.051,-0.29 0.008,0 0.434,-0.086 0.945,-0.183 1.961,-0.383 2.684,-0.516 2.704,-0.496 0.015,0.015 0.105,0.394 0.109,0.457 0.004,0.156 -0.051,0.179 -0.738,0.316 -0.328,0.067 -0.418,0.094 -0.477,0.149 -0.07,0.058 -0.09,0.109 -0.094,0.254 -0.007,0.191 0.008,0.296 0.184,1.238 0.137,0.742 0.168,1.008 0.129,1.113 -0.024,0.059 -0.055,0.078 -0.199,0.125 -0.11,0.035 -0.215,0.039 -0.274,0.012 z"
         style="fill:#ff0000;fill-opacity:1;fill-rule:nonzero;stroke:#ffffff;stroke-width:0.00151662;stroke-linecap:butt;stroke-linejoin:miter;stroke-miterlimit:4;stroke-dasharray:none;stroke-opacity:1"
         id="path272" />
    </g>
    <g
       id="g274"
       transform="matrix(0.42437598,0,0,0.42437598,42.705411,-232.74591)">
      <path
         d="m 163.605,458.062 c -0.105,-0.019 -0.207,-0.046 -0.23,-0.054 -0.125,-0.063 -0.121,-0.184 0.031,-0.977 0.063,-0.324 0.067,-0.371 0.035,-0.426 -0.043,-0.07 -0.152,-0.105 -0.546,-0.171 -0.493,-0.082 -0.704,-0.102 -0.825,-0.063 -0.058,0.016 -0.121,0.067 -0.148,0.121 -0.051,0.094 -0.07,0.391 -0.074,0.961 v 0.207 h -0.797 l 0.008,-0.055 c 0.043,-0.359 0.156,-1.66 0.253,-3.031 0.016,-0.183 0.028,-0.332 0.032,-0.336 0.004,-0.004 0.769,-0.078 0.773,-0.078 0,0.004 -0.019,0.223 -0.051,0.488 -0.058,0.579 -0.074,0.883 -0.043,0.961 0.028,0.067 0.059,0.082 0.215,0.094 0.215,0.02 0.84,0.102 1.352,0.176 0.012,0 0.035,-0.094 0.109,-0.457 0.051,-0.254 0.102,-0.504 0.117,-0.559 0.036,-0.136 0.094,-0.254 0.145,-0.293 0.039,-0.031 0.051,-0.031 0.168,-0.035 0.219,-0.008 0.301,0.024 0.355,0.133 0.032,0.062 0.032,0.074 0.032,0.219 0,0.082 -0.012,0.215 -0.02,0.289 -0.09,0.629 -0.5,2.531 -0.613,2.847 -0.024,0.067 -0.031,0.075 -0.055,0.079 -0.016,0 -0.117,-0.016 -0.223,-0.04 z"
         style="fill:#ff0000;fill-opacity:1;fill-rule:nonzero;stroke:#ffffff;stroke-width:0.00151662;stroke-linecap:butt;stroke-linejoin:miter;stroke-miterlimit:4;stroke-dasharray:none;stroke-opacity:1"
         id="path276" />
    </g>
    <g
       id="g278"
       transform="matrix(0.42437598,0,0,0.42437598,42.705411,-232.74591)">
      <path
         d="m 167.062,459.391 c -0.062,-0.012 -0.21,-0.075 -0.382,-0.161 -0.274,-0.136 -1.75,-0.925 -1.75,-0.933 0,-0.012 1.523,-3.035 1.531,-3.047 0.004,-0.004 1.129,0.527 1.488,0.707 0.563,0.277 0.828,0.449 0.828,0.539 0,0.031 -0.066,0.145 -0.136,0.234 -0.098,0.133 -0.192,0.153 -0.399,0.082 -0.054,-0.019 -0.383,-0.175 -0.73,-0.347 l -0.637,-0.317 -0.027,0.04 c -0.188,0.253 -0.336,0.503 -0.336,0.566 0,0.062 0.242,0.215 0.832,0.516 0.383,0.195 0.461,0.242 0.523,0.304 0.059,0.059 0.074,0.106 0.051,0.18 -0.023,0.082 -0.098,0.234 -0.137,0.281 -0.105,0.121 -0.187,0.102 -0.863,-0.234 -0.598,-0.293 -0.676,-0.324 -0.758,-0.281 -0.051,0.027 -0.121,0.14 -0.172,0.269 -0.058,0.156 -0.039,0.27 0.063,0.356 0.094,0.082 0.191,0.136 0.594,0.335 0.425,0.211 0.636,0.325 0.734,0.395 0.055,0.039 0.055,0.043 0.051,0.082 -0.016,0.082 -0.188,0.395 -0.231,0.418 -0.035,0.02 -0.086,0.023 -0.137,0.016 z"
         style="fill:#ff0000;fill-opacity:1;fill-rule:nonzero;stroke:#ffffff;stroke-width:0.00151662;stroke-linecap:butt;stroke-linejoin:miter;stroke-miterlimit:4;stroke-dasharray:none;stroke-opacity:1"
         id="path280" />
    </g>
    <g
       id="g282"
       transform="matrix(0.42437598,0,0,0.42437598,42.705411,-232.74591)">
      <path
         d="m 170.203,462.336 c -0.105,-0.109 -0.226,-0.266 -0.308,-0.391 l -0.051,-0.074 v -0.105 c 0,-0.2 0.051,-0.422 0.203,-0.957 0.051,-0.172 0.094,-0.321 0.094,-0.332 0,-0.016 -0.391,-0.375 -0.543,-0.497 -0.102,-0.082 -0.25,-0.179 -0.309,-0.203 -0.055,-0.023 -0.109,-0.007 -0.187,0.051 -0.122,0.086 -0.204,0.168 -0.391,0.391 -0.098,0.117 -0.191,0.222 -0.203,0.242 l -0.028,0.027 -0.234,-0.234 c -0.129,-0.129 -0.234,-0.238 -0.234,-0.242 0,-0.008 0.871,-1.043 1.281,-1.528 0.398,-0.464 0.828,-0.937 0.926,-1.015 l 0.043,-0.035 0.054,0.027 c 0.293,0.148 1.586,1.34 1.903,1.758 0.066,0.082 0.133,0.222 0.164,0.336 0.043,0.156 0.015,0.336 -0.086,0.601 -0.156,0.403 -0.406,0.598 -0.899,0.692 -0.382,0.07 -0.433,0.09 -0.515,0.172 -0.09,0.089 -0.137,0.195 -0.317,0.726 -0.14,0.41 -0.246,0.692 -0.257,0.692 -0.004,0 -0.051,-0.047 -0.106,-0.102 z m 1.309,-2.125 c 0.133,-0.059 0.211,-0.188 0.218,-0.371 0.004,-0.121 -0.011,-0.195 -0.074,-0.313 -0.082,-0.156 -0.269,-0.367 -0.5,-0.562 -0.121,-0.102 -0.801,-0.633 -0.812,-0.633 -0.004,0 -0.192,0.219 -0.387,0.449 -0.129,0.153 -0.246,0.313 -0.273,0.36 l -0.024,0.047 0.055,0.054 c 0.066,0.07 0.262,0.246 0.461,0.41 0.379,0.313 0.676,0.493 0.949,0.563 0.137,0.039 0.297,0.035 0.387,-0.004 z"
         style="fill:#ff0000;fill-opacity:1;fill-rule:nonzero;stroke:#ffffff;stroke-width:0.00151662;stroke-linecap:butt;stroke-linejoin:miter;stroke-miterlimit:4;stroke-dasharray:none;stroke-opacity:1"
         id="path284" />
    </g>
    <g
       id="g286"
       transform="matrix(0.42437598,0,0,0.42437598,42.705411,-232.74591)">
      <path
         d="m 172.043,465.699 c -0.051,-0.121 -0.109,-0.269 -0.129,-0.332 -0.039,-0.105 -0.043,-0.121 -0.039,-0.246 0,-0.117 0.004,-0.137 0.035,-0.23 0.051,-0.133 0.176,-0.387 0.332,-0.661 0.067,-0.121 0.199,-0.351 0.293,-0.519 0.328,-0.578 0.504,-0.914 0.504,-0.957 0,-0.027 -0.035,-0.02 -0.211,0.047 -0.183,0.074 -0.351,0.152 -0.851,0.398 -0.539,0.266 -0.688,0.328 -0.782,0.332 -0.082,0.004 -0.101,0 -0.14,-0.035 -0.075,-0.066 -0.184,-0.246 -0.211,-0.351 -0.016,-0.051 -0.012,-0.051 0.023,-0.086 0.11,-0.098 0.945,-0.582 1.785,-1.032 0.543,-0.289 1.168,-0.601 1.211,-0.601 0.047,0 0.172,0.203 0.325,0.519 l 0.101,0.219 -0.445,0.754 c -0.641,1.078 -0.891,1.512 -1.032,1.789 -0.074,0.156 -0.078,0.164 -0.042,0.164 0.07,0 0.515,-0.148 1.203,-0.394 0.73,-0.27 0.929,-0.332 1.097,-0.34 0.094,-0.004 0.106,-0.004 0.141,0.019 0.027,0.02 0.055,0.059 0.09,0.125 0.039,0.082 0.051,0.114 0.054,0.176 0.004,0.07 0,0.086 -0.027,0.137 -0.07,0.125 -0.266,0.234 -0.703,0.398 -0.145,0.051 -0.539,0.199 -0.875,0.324 -0.539,0.2 -1.508,0.559 -1.586,0.59 -0.031,0.012 -0.031,0.008 -0.121,-0.207 z"
         style="fill:#ff0000;fill-opacity:1;fill-rule:nonzero;stroke:#ffffff;stroke-width:0.00151662;stroke-linecap:butt;stroke-linejoin:miter;stroke-miterlimit:4;stroke-dasharray:none;stroke-opacity:1"
         id="path288" />
    </g>
    <g
       id="g290"
       transform="matrix(0.42437598,0,0,0.42437598,42.705411,-232.74591)">
      <path
         d="m 152.543,469.723 v -1.563 h 0.691 l 0.008,1.039 c 0.004,1.094 0.004,1.098 0.055,1.242 0.055,0.149 0.168,0.223 0.383,0.254 0.05,0.012 0.347,0.02 0.758,0.024 0.699,0.008 0.757,0.015 0.828,0.062 0.054,0.035 0.058,0.055 0.062,0.289 l 0.004,0.219 h -2.789 z"
         style="fill:#ff0000;fill-opacity:1;fill-rule:nonzero;stroke:#ffffff;stroke-width:0.00151662;stroke-linecap:butt;stroke-linejoin:miter;stroke-miterlimit:4;stroke-dasharray:none;stroke-opacity:1"
         id="path292" />
    </g>
    <g
       id="g294"
       transform="matrix(0.42437598,0,0,0.42437598,42.705411,-232.74591)">
      <path
         d="m 156.273,469.723 v -1.563 h 0.571 v 3.129 h -0.571 z"
         style="fill:#ff0000;fill-opacity:1;fill-rule:nonzero;stroke:#ffffff;stroke-width:0.00151662;stroke-linecap:butt;stroke-linejoin:miter;stroke-miterlimit:4;stroke-dasharray:none;stroke-opacity:1"
         id="path296" />
    </g>
    <g
       id="g298"
       transform="matrix(0.42437598,0,0,0.42437598,42.705411,-232.74591)">
      <path
         d="m 160.887,471.355 c -0.102,-0.019 -0.196,-0.043 -0.231,-0.062 -0.117,-0.055 -0.332,-0.293 -0.562,-0.613 -0.051,-0.075 -0.231,-0.34 -0.399,-0.59 -0.394,-0.594 -0.617,-0.895 -0.664,-0.895 -0.027,0 -0.051,0.137 -0.074,0.414 -0.004,0.09 -0.012,0.5 -0.016,0.918 l -0.007,0.762 h -0.68 v -3.129 h 0.359 c 0.395,0 0.465,0.008 0.559,0.063 0.105,0.062 0.246,0.226 0.437,0.515 0.047,0.074 0.2,0.305 0.34,0.52 0.352,0.531 0.61,0.871 0.656,0.871 0.063,0 0.094,-0.453 0.094,-1.367 v -0.602 h 0.696 v 0.047 c 0,0.027 -0.016,0.359 -0.036,0.738 -0.082,1.641 -0.125,2.262 -0.168,2.348 -0.023,0.051 -0.078,0.098 -0.109,0.098 -0.012,-0.004 -0.102,-0.016 -0.195,-0.036 z"
         style="fill:#ff0000;fill-opacity:1;fill-rule:nonzero;stroke:#ffffff;stroke-width:0.00151662;stroke-linecap:butt;stroke-linejoin:miter;stroke-miterlimit:4;stroke-dasharray:none;stroke-opacity:1"
         id="path300" />
    </g>
    <g
       id="g302"
       transform="matrix(0.42437598,0,0,0.42437598,42.705411,-232.74591)">
      <path
         d="m 163.316,471.391 c -0.207,-0.012 -0.461,-0.039 -0.527,-0.059 -0.035,-0.008 -0.039,-0.016 -0.047,-0.051 -0.031,-0.199 -0.051,-1.113 -0.051,-2.269 v -0.852 h 2.536 v 0.203 c 0,0.242 -0.008,0.274 -0.079,0.309 -0.086,0.043 -0.171,0.047 -0.988,0.055 l -0.789,0.003 v 0.7 l 0.75,0.008 c 0.625,0.003 0.758,0.007 0.824,0.023 0.141,0.031 0.16,0.059 0.164,0.234 0.008,0.196 -0.015,0.246 -0.136,0.282 -0.051,0.015 -0.161,0.019 -0.828,0.023 l -0.774,0.004 v 0.715 h 1.856 v 0.683 l -0.864,-0.004 c -0.472,0 -0.945,-0.003 -1.047,-0.007 z"
         style="fill:#ff0000;fill-opacity:1;fill-rule:nonzero;stroke:#ffffff;stroke-width:0.00151662;stroke-linecap:butt;stroke-linejoin:miter;stroke-miterlimit:4;stroke-dasharray:none;stroke-opacity:1"
         id="path304" />
    </g>
    <g
       id="g306"
       transform="matrix(0.42437598,0,0,0.42437598,42.705411,-232.74591)">
      <path
         d="m 167.234,471.355 c -0.437,-0.027 -0.648,-0.16 -0.687,-0.433 -0.02,-0.117 -0.016,-0.231 0.004,-0.254 0.027,-0.027 0.051,-0.023 0.234,0.039 0.192,0.066 0.356,0.098 0.606,0.113 0.3,0.024 0.652,-0.011 0.836,-0.086 0.093,-0.039 0.191,-0.129 0.234,-0.222 0.039,-0.078 0.051,-0.188 0.031,-0.254 -0.039,-0.125 -0.144,-0.168 -0.82,-0.324 -0.188,-0.043 -0.402,-0.102 -0.473,-0.125 -0.441,-0.153 -0.656,-0.368 -0.699,-0.7 -0.023,-0.179 0.016,-0.351 0.109,-0.496 0.149,-0.222 0.422,-0.351 0.871,-0.414 0.204,-0.031 0.754,-0.031 0.911,0 0.297,0.055 0.457,0.145 0.531,0.297 0.027,0.051 0.031,0.07 0.031,0.192 v 0.132 l -0.035,0.032 c -0.031,0.023 -0.039,0.027 -0.102,0.019 -0.039,-0.004 -0.195,-0.039 -0.347,-0.074 -0.344,-0.082 -0.485,-0.106 -0.696,-0.102 -0.289,0 -0.457,0.051 -0.558,0.172 -0.082,0.094 -0.082,0.231 0.004,0.317 0.086,0.086 0.219,0.14 0.644,0.261 0.43,0.125 0.664,0.219 0.86,0.352 0.375,0.25 0.437,0.574 0.183,0.949 -0.179,0.274 -0.406,0.461 -0.633,0.527 -0.203,0.063 -0.695,0.102 -1.039,0.082 z"
         style="fill:#ff0000;fill-opacity:1;fill-rule:nonzero;stroke:#ffffff;stroke-width:0.00151662;stroke-linecap:butt;stroke-linejoin:miter;stroke-miterlimit:4;stroke-dasharray:none;stroke-opacity:1"
         id="path308" />
    </g>
    <g
       id="g310"
       transform="matrix(0.42437598,0,0,0.42437598,42.705411,-232.74591)">
      <path
         d="m 170.191,480.715 c -0.218,-0.008 -0.281,-0.016 -0.386,-0.055 -0.137,-0.051 -0.293,-0.172 -0.504,-0.39 -0.27,-0.282 -0.434,-0.563 -0.516,-0.875 -0.152,-0.618 0.051,-1.243 0.582,-1.77 0.16,-0.152 0.242,-0.223 0.445,-0.355 0.321,-0.215 0.665,-0.352 0.891,-0.352 0.106,0 0.156,0.016 0.211,0.062 0.051,0.047 0.117,0.176 0.117,0.231 0,0.086 -0.082,0.137 -0.441,0.281 -0.238,0.094 -0.414,0.188 -0.555,0.289 -0.32,0.231 -0.555,0.524 -0.664,0.844 -0.176,0.492 -0.062,0.977 0.309,1.328 0.207,0.199 0.422,0.293 0.675,0.305 0.262,0.012 0.551,-0.078 0.821,-0.262 0.097,-0.062 0.324,-0.285 0.437,-0.426 0.106,-0.136 0.262,-0.371 0.34,-0.515 0.106,-0.196 0.141,-0.301 0.16,-0.481 0.016,-0.117 0.106,-0.164 0.317,-0.164 0.226,0 0.254,0.031 0.195,0.242 -0.105,0.395 -0.363,0.891 -0.648,1.25 -0.094,0.118 -0.313,0.34 -0.422,0.426 -0.188,0.152 -0.399,0.277 -0.543,0.328 -0.16,0.051 -0.438,0.074 -0.821,0.059 z"
         style="fill:#ff0000;fill-opacity:1;fill-rule:nonzero;stroke:#ffffff;stroke-width:0.00151662;stroke-linecap:butt;stroke-linejoin:miter;stroke-miterlimit:4;stroke-dasharray:none;stroke-opacity:1"
         id="path312" />
    </g>
    <g
       id="g314"
       transform="matrix(0.42437598,0,0,0.42437598,42.705411,-232.74591)">
      <path
         d="m 168.352,482.645 c -0.227,-0.321 -1.168,-2.032 -1.383,-2.52 -0.078,-0.18 -0.106,-0.262 -0.106,-0.34 0,-0.074 0.024,-0.113 0.106,-0.18 0.066,-0.05 0.234,-0.152 0.25,-0.152 0.004,0 0.043,0.051 0.082,0.113 0.324,0.493 1.398,2.485 1.519,2.821 l 0.028,0.07 -0.028,0.047 c -0.015,0.023 -0.05,0.062 -0.086,0.086 -0.062,0.043 -0.203,0.094 -0.289,0.101 -0.05,0.008 -0.054,0.008 -0.093,-0.046 z"
         style="fill:#ff0000;fill-opacity:1;fill-rule:nonzero;stroke:#ffffff;stroke-width:0.00151662;stroke-linecap:butt;stroke-linejoin:miter;stroke-miterlimit:4;stroke-dasharray:none;stroke-opacity:1"
         id="path316" />
    </g>
    <g
       id="g318"
       transform="matrix(0.42437598,0,0,0.42437598,42.705411,-232.74591)">
      <path
         d="m 163.73,484.445 c -0.113,-0.054 -0.199,-0.246 -0.312,-0.695 -0.125,-0.512 -0.527,-2.59 -0.504,-2.625 0.07,-0.113 2.172,-0.703 2.609,-0.734 l 0.102,-0.008 0.02,0.051 c 0.039,0.086 0.078,0.312 0.074,0.418 -0.004,0.086 -0.133,0.168 -0.391,0.246 -0.07,0.019 -0.324,0.09 -0.558,0.148 -0.485,0.125 -0.829,0.219 -0.993,0.27 -0.136,0.043 -0.14,0.043 -0.121,0.214 0.02,0.223 0.063,0.372 0.117,0.43 0.051,0.055 0.086,0.067 0.227,0.063 0.164,0 0.32,-0.032 0.926,-0.184 0.617,-0.156 0.812,-0.187 0.867,-0.133 0.008,0.008 0.019,0.059 0.027,0.114 0.004,0.054 0.024,0.14 0.039,0.195 0.036,0.117 0.036,0.121 -0.004,0.164 -0.074,0.09 -0.226,0.141 -1.05,0.34 -0.586,0.144 -0.723,0.199 -0.789,0.308 -0.055,0.102 -0.051,0.184 0.035,0.547 0.078,0.336 0.097,0.453 0.097,0.555 0.004,0.148 -0.027,0.191 -0.199,0.273 -0.105,0.055 -0.168,0.067 -0.219,0.043 z"
         style="fill:#ff0000;fill-opacity:1;fill-rule:nonzero;stroke:#ffffff;stroke-width:0.00151662;stroke-linecap:butt;stroke-linejoin:miter;stroke-miterlimit:4;stroke-dasharray:none;stroke-opacity:1"
         id="path320" />
    </g>
    <g
       id="g322"
       transform="matrix(0.42437598,0,0,0.42437598,42.705411,-232.74591)">
      <path
         d="m 161.184,484.781 c -0.012,0 -0.051,-0.008 -0.082,-0.015 -0.172,-0.036 -0.235,-0.168 -0.266,-0.567 -0.012,-0.101 -0.016,-0.656 -0.02,-1.578 l -0.004,-1.426 h 0.696 v 1.145 c 0,1.187 -0.016,1.984 -0.035,2.16 -0.02,0.148 -0.043,0.227 -0.082,0.262 -0.028,0.023 -0.043,0.027 -0.11,0.027 -0.043,0 -0.086,-0.004 -0.097,-0.008 z"
         style="fill:#ff0000;fill-opacity:1;fill-rule:nonzero;stroke:#ffffff;stroke-width:0.00151662;stroke-linecap:butt;stroke-linejoin:miter;stroke-miterlimit:4;stroke-dasharray:none;stroke-opacity:1"
         id="path324" />
    </g>
    <g
       id="g326"
       transform="matrix(0.42437598,0,0,0.42437598,42.705411,-232.74591)">
      <path
         d="m 157.992,484.543 c -0.215,-0.023 -0.472,-0.082 -0.66,-0.156 -0.703,-0.278 -1.164,-0.801 -1.277,-1.446 -0.02,-0.113 -0.02,-0.164 -0.016,-0.32 0.008,-0.266 0.047,-0.418 0.168,-0.656 0.18,-0.371 0.504,-0.676 0.926,-0.883 0.523,-0.254 1.012,-0.254 1.656,0 0.172,0.07 0.586,0.273 0.754,0.371 0.293,0.176 0.32,0.258 0.156,0.473 -0.058,0.074 -0.097,0.101 -0.168,0.101 -0.086,0 -0.176,-0.039 -0.539,-0.218 -0.59,-0.297 -0.797,-0.36 -1.148,-0.348 -0.149,0.004 -0.192,0.008 -0.278,0.035 -0.191,0.059 -0.375,0.16 -0.539,0.301 -0.187,0.164 -0.32,0.433 -0.379,0.765 -0.035,0.196 -0.027,0.422 0.02,0.571 0.133,0.461 0.711,0.805 1.449,0.863 0.301,0.02 0.582,-0.016 0.887,-0.117 0.191,-0.063 0.262,-0.078 0.324,-0.059 0.067,0.024 0.149,0.137 0.176,0.258 0.035,0.129 -0.063,0.223 -0.313,0.305 -0.203,0.066 -0.523,0.133 -0.75,0.156 -0.113,0.012 -0.359,0.012 -0.449,0.004 z"
         style="fill:#ff0000;fill-opacity:1;fill-rule:nonzero;stroke:#ffffff;stroke-width:0.00151662;stroke-linecap:butt;stroke-linejoin:miter;stroke-miterlimit:4;stroke-dasharray:none;stroke-opacity:1"
         id="path328" />
    </g>
    <g
       id="g330"
       transform="matrix(0.42437598,0,0,0.42437598,42.705411,-232.74591)">
      <path
         d="m 154.484,483.488 c -0.179,-0.062 -0.238,-0.097 -0.273,-0.156 -0.02,-0.043 -0.023,-0.062 -0.023,-0.191 0.003,-0.114 0.074,-0.821 0.101,-0.969 0.004,-0.027 -0.039,-0.063 -0.785,-0.582 l -0.789,-0.551 -0.403,0.223 c -0.496,0.277 -0.597,0.32 -0.707,0.328 -0.074,0.008 -0.089,0.004 -0.156,-0.028 -0.203,-0.093 -0.414,-0.281 -0.371,-0.328 0.027,-0.035 0.813,-0.531 2.317,-1.461 0.785,-0.484 0.832,-0.511 0.859,-0.5 0.016,0.012 0.195,0.125 0.402,0.254 l 0.379,0.243 v 0.078 c 0,0.117 -0.043,1.461 -0.058,1.769 -0.051,1.149 -0.118,1.793 -0.2,1.887 -0.043,0.051 -0.109,0.047 -0.293,-0.016 z m -0.148,-2.273 c 0.078,-0.121 0.098,-1.117 0.019,-1.18 -0.023,-0.019 -0.109,0.012 -0.273,0.11 -0.312,0.187 -0.695,0.484 -0.695,0.539 0,0.007 0.066,0.062 0.148,0.125 0.477,0.351 0.746,0.488 0.801,0.406 z"
         style="fill:#ff0000;fill-opacity:1;fill-rule:nonzero;stroke:#ffffff;stroke-width:0.00151662;stroke-linecap:butt;stroke-linejoin:miter;stroke-miterlimit:4;stroke-dasharray:none;stroke-opacity:1"
         id="path332" />
    </g>
    <g
       id="g334"
       transform="matrix(0.42437598,0,0,0.42437598,42.705411,-232.74591)">
      <path
         d="m 151.629,479.762 c -0.133,-0.035 -0.309,-0.125 -0.469,-0.235 -0.285,-0.199 -0.555,-0.465 -0.976,-0.953 -0.161,-0.187 -0.301,-0.34 -0.309,-0.34 -0.008,0 -0.242,0.164 -0.523,0.368 -0.278,0.199 -0.512,0.367 -0.516,0.367 -0.016,0.004 -0.215,-0.289 -0.258,-0.379 -0.027,-0.051 -0.043,-0.106 -0.047,-0.141 l -0.004,-0.058 0.106,-0.094 c 0.449,-0.383 2.297,-1.774 2.597,-1.953 l 0.067,-0.039 0.094,0.093 c 0.117,0.125 0.363,0.426 0.621,0.774 0.562,0.754 0.722,1.039 0.754,1.363 0.007,0.094 -0.012,0.336 -0.039,0.449 -0.032,0.114 -0.11,0.278 -0.176,0.356 -0.11,0.125 -0.227,0.211 -0.442,0.316 -0.175,0.086 -0.304,0.129 -0.367,0.129 -0.027,0 -0.078,-0.012 -0.113,-0.023 z m 0.305,-0.59 c 0.031,-0.016 0.086,-0.063 0.121,-0.102 0.133,-0.14 0.156,-0.308 0.074,-0.574 -0.086,-0.273 -0.375,-0.723 -0.746,-1.164 -0.094,-0.113 -0.102,-0.113 -0.219,-0.055 -0.281,0.141 -0.726,0.512 -0.726,0.606 0,0.097 0.566,0.773 0.894,1.062 0.137,0.121 0.238,0.192 0.332,0.231 0.086,0.039 0.188,0.035 0.27,-0.004 z"
         style="fill:#ff0000;fill-opacity:1;fill-rule:nonzero;stroke:#ffffff;stroke-width:0.00151662;stroke-linecap:butt;stroke-linejoin:miter;stroke-miterlimit:4;stroke-dasharray:none;stroke-opacity:1"
         id="path336" />
    </g>
    <path
       d="m 110.37853,-26.766123 c -2.05228,-0.144295 -3.90553,-1.259976 -5.0993,-3.069944 -1.00789,-1.525203 -1.32617,-3.396701 -0.89501,-5.251647 0.44433,-1.913096 1.7985,-3.622051 3.57409,-4.510698 3.69844,-1.850278 8.18749,0.02334 9.49032,3.958578 0.51563,1.561701 0.41929,3.341967 -0.26183,4.870562 -0.85215,1.910967 -2.52165,3.322023 -4.54549,3.843998 -0.54873,0.140902 -1.53667,0.210493 -2.26278,0.159151 z m 0.867,-1.0062 v -0.765995 h -0.29664 v 0.73799 c 0,0.760905 0.005,0.780417 0.2105,0.790606 0.0794,0.0036 0.0861,-0.06448 0.0861,-0.762601 z m -1.05924,0.611522 c 0.21686,-0.05473 0.25675,-0.1061 0.17739,-0.230438 -0.0302,-0.048 -0.073,-0.05137 -0.17569,-0.01311 -0.35011,0.134528 -0.83221,0.0096 -0.9714,-0.248686 -0.0895,-0.168895 -0.025,-0.495666 0.12264,-0.623408 0.22535,-0.193941 0.45408,-0.200305 0.78892,-0.02466 0.27203,0.142586 0.29834,0.147685 0.35478,0.06965 0.0811,-0.109469 0.0598,-0.137498 -0.22874,-0.283489 -0.36327,-0.184184 -0.61662,-0.202433 -0.88695,-0.06279 -0.67645,0.347991 -0.56527,1.196738 0.18588,1.423783 0.19521,0.0581 0.38279,0.05642 0.63317,-0.0072 z m 2.14012,-0.03777 c 0.0577,-0.03645 0.0577,-0.08661 0.006,-0.301725 -0.073,-0.306826 -0.0845,-0.297058 0.42436,-0.416319 0.28858,-0.06785 0.36666,-0.104416 0.34502,-0.160835 -0.0148,-0.04114 -0.0284,-0.102732 -0.0284,-0.139194 0,-0.05137 -0.0742,-0.04451 -0.35776,0.02839 -0.47572,0.123916 -0.51391,0.120945 -0.54531,-0.04162 -0.0153,-0.0747 -0.0183,-0.142587 -0.01,-0.152776 0.01,-0.0096 0.21388,-0.06616 0.45238,-0.12731 0.40952,-0.102732 0.43627,-0.11801 0.41971,-0.230438 -0.01,-0.06496 -0.0267,-0.129438 -0.0381,-0.14089 -0.0383,-0.03994 -1.15558,0.26524 -1.15728,0.316582 0,0.02803 0.0615,0.356485 0.13622,0.730784 0.1392,0.692999 0.17061,0.751138 0.35308,0.635281 z m -3.84272,-1.369457 0.0183,-0.575025 -0.1723,-0.111153 -0.17272,-0.109469 -0.65778,0.407826 c -0.36157,0.223653 -0.66967,0.417594 -0.68495,0.432438 -0.0131,0.01528 0.0302,0.06328 0.098,0.107785 0.11584,0.07639 0.1341,0.07302 0.36115,-0.05305 l 0.24062,-0.134106 0.66626,0.467662 -0.0297,0.261848 c -0.0297,0.25505 -0.0284,0.263531 0.11115,0.309797 0.1409,0.04668 0.14217,0.04499 0.174,-0.190548 0.0166,-0.129438 0.0383,-0.495678 0.048,-0.813957 z m -0.49058,-0.04451 c -0.0895,-0.06159 -0.17399,-0.124337 -0.18927,-0.139615 -0.0247,-0.02466 0.34163,-0.280096 0.40146,-0.280096 0.0399,0 0.0297,0.48591 -0.012,0.510522 -0.0195,0.01203 -0.11079,-0.02803 -0.2003,-0.09082 z m 6.28926,0.686215 c 0.0416,-0.0166 0.0781,-0.05305 0.0781,-0.08144 0,-0.06616 -0.65651,-1.273137 -0.69131,-1.271429 -0.0148,0.0012 -0.065,0.0314 -0.11284,0.06785 -0.0828,0.06328 -0.0645,0.109469 0.24699,0.689606 0.18418,0.343325 0.34799,0.623409 0.36624,0.625117 0.0183,0 0.0696,-0.01311 0.11284,-0.02971 z m 1.22007,-0.971399 c 0.19394,-0.147675 0.38619,-0.442616 0.46427,-0.716348 0.0263,-0.09419 0.012,-0.111154 -0.0964,-0.111154 -0.0844,0 -0.12603,0.02671 -0.12603,0.08313 0,0.14599 -0.2419,0.49907 -0.41419,0.605158 -0.23893,0.147266 -0.45282,0.134106 -0.62851,-0.04162 -0.31319,-0.313189 -0.12264,-0.830508 0.37643,-1.021044 0.23383,-0.08782 0.24528,-0.103094 0.17399,-0.215594 -0.0747,-0.11801 -0.43753,0.02298 -0.67773,0.263543 -0.34671,0.346295 -0.35308,0.792315 -0.0183,1.127146 0.1723,0.172299 0.21049,0.18884 0.46088,0.18884 0.23339,0 0.30639,-0.02466 0.48547,-0.162111 z m -9.16397,-4.680015 c -0.0263,1.236626 0.48761,2.448652 1.37286,3.335591 0.67136,0.67137 1.63427,1.160251 2.57086,1.30623 0.42099,0.06448 1.31981,0.02803 1.75225,-0.07302 1.55661,-0.36156 2.8497,-1.546844 3.36191,-3.080119 0.5555,-1.66779 0.0798,-3.57409 -1.19504,-4.78229 -0.85554,-0.810985 -1.81038,-1.22687 -2.96597,-1.291373 -1.59311,-0.08782 -3.17093,0.679429 -4.04641,1.96741 -0.40444,0.595391 -0.79232,1.574849 -0.81566,2.019173 m 0.1031,-0.173996 0.0212,-0.102732 4.48778,0.02165 c 2.46816,0.01311 4.49371,0.02971 4.5039,0.03777 0.0678,0.06159 0.10273,0.895432 0.0547,1.326174 -0.0416,0.381518 -0.15449,0.643353 -0.15449,0.643353 h -5.83177 l -3.02368,-0.0048 -0.0794,-0.422682 c -0.0314,-0.223642 -0.0497,-0.585214 -0.0331,-1.04905 0.0365,-0.301737 0.0428,-0.392981 0.0547,-0.449424 z m 4.00314,5.385765 c -0.25378,-0.03645 -0.7295,-0.0895 -0.91495,-0.243599 -0.0399,-0.02334 1.40723,0 1.40723,0 0,0 1.46706,-0.0166 1.43226,0 -0.48081,0.232135 -1.46028,0.311915 -1.92454,0.243599 z m -2.10703,-0.802071 c -0.61492,-0.391273 -1.29944,-1.236638 -1.61602,-1.995847 -0.11632,-0.277113 -0.17569,-0.492274 -0.17569,-0.492274 l 3.56051,0.0148 -0.0594,0.145558 h -0.31191 l -0.10442,0.15447 h 0.35308 l -0.0445,0.110793 h -0.38618 l -0.12138,0.18078 h 0.43287 l -0.0547,0.13283 h -0.47064 l -0.15914,0.232134 h 0.53684 l -0.0844,0.203697 h -0.59498 l -0.22576,0.329742 h 0.68324 l -0.10947,0.280517 h -0.76769 l -0.27499,0.409101 h 0.87038 l -0.17398,0.43286 h -0.25038 c -0.16594,0 -0.28858,-0.03645 -0.45112,-0.14089 z m 0.99304,0.139194 0.11452,-0.432871 h 2.93881 l 0.16083,0.432871 h -1.61135 c -0.88186,0 -1.60287,0.01828 -1.60287,0 z m 3.32711,-0.432871 h 0.87676 l -0.275,-0.409089 h -0.76769 l -0.11584,-0.280518 h 0.68452 l -0.21856,-0.329742 h -0.60007 l -0.0832,-0.203696 h 0.53896 l -0.15447,-0.232135 h -0.47869 l -0.0547,-0.13283 h 0.43922 l -0.12094,-0.18078 h -0.39127 l -0.0433,-0.110792 h 0.35647 l -0.1061,-0.154472 h -0.31489 l -0.0598,-0.145557 3.55755,-0.0048 -0.0331,0.159151 c -0.048,0.245282 -0.35308,0.858513 -0.5937,1.19504 -0.25844,0.36156 -0.81523,0.916652 -1.11865,1.119073 -0.18079,0.119213 -0.27203,0.144295 -0.50756,0.144295 -0.1392,0.0012 -0.23681,0 -0.23681,0 z m -2.93584,-0.689607 c 0,0 0.64336,0.0036 1.2133,0 h 1.19207 l 0.1061,0.280518 h -2.6273 z m 0.22196,-0.533438 h 1.98777 l 0.0764,0.203696 h -2.14183 z m 0.0848,-0.232135 0.0463,-0.13283 h 1.72254 l 0.048,0.13283 z m 0.11584,-0.31361 0.0433,-0.110792 h 1.50187 l 0.0412,0.110792 z m 0.098,-0.26524 0.0544,-0.145557 h 1.27993 l 0.0564,0.145557 h -0.6947 c -0.23214,0.0012 -0.46427,0.0048 -0.69598,0 z m -2.9859,2.887875 c 0.17908,-0.09299 0.24699,-0.213885 0.24699,-0.437527 0,-0.13283 -0.068,-0.261835 -0.29665,-0.570357 -0.16253,-0.220261 -0.31149,-0.401041 -0.32973,-0.401041 -0.0416,0 -1.14073,0.828812 -1.17553,0.885255 -0.0131,0.02165 0.012,0.08613 0.053,0.145557 l 0.0747,0.107785 0.22365,-0.160835 0.22237,-0.159139 0.22873,0.26524 c 0.19735,0.227455 0.42947,0.391273 0.56868,0.398058 0.0229,0 0.10441,-0.0314 0.18375,-0.07302 z m -0.50374,-0.429467 c -0.13113,-0.142586 -0.23722,-0.28178 -0.23722,-0.309797 0,-0.05473 0.33483,-0.301725 0.36496,-0.26862 0.33822,0.394666 0.44262,0.649716 0.31658,0.77575 -0.1061,0.106101 -0.20243,0.06328 -0.44432,-0.197333 z m 4.3316,-3.116196 c 0.012,-0.03477 0.0331,-0.346704 0.0497,-0.692999 l 0.0314,-0.630204 h -0.30174 v 0.421407 c 0,0.230439 -0.0166,0.419291 -0.0365,0.419291 -0.0195,-0.0012 -0.15913,-0.188852 -0.3081,-0.419291 -0.27031,-0.418003 -0.27372,-0.419711 -0.4825,-0.419711 l -0.2105,-0.0012 v 1.334667 h 0.29664 v -0.444323 c 0,-0.245295 0.0166,-0.444324 0.0383,-0.444324 0.02,0 0.16423,0.199029 0.31997,0.440931 0.19224,0.298333 0.32168,0.447716 0.39637,0.462573 0.0611,0.01203 0.12731,0.02502 0.14895,0.02839 0.0217,0.0024 0.0484,-0.02165 0.0581,-0.05474 z m 1.70727,-0.08661 v -0.148962 H 112.036 v -0.296637 h 0.37133 c 0.36327,0 0.37134,-0.0012 0.37134,-0.122641 0,-0.120945 -0.008,-0.124349 -0.37134,-0.124349 H 112.036 v -0.297058 h 0.39638 c 0.38788,0 0.39424,-0.0012 0.39424,-0.122642 v -0.124349 h -1.08215 l 10e-4,0.653542 c 0,0.359443 0.012,0.671369 0.0247,0.692577 0.0131,0.02165 0.25717,0.03813 0.54066,0.03813 h 0.51519 z m 1.4955,-0.04968 c 0.25675,-0.283476 0.13411,-0.500333 -0.35818,-0.631467 -0.25377,-0.06785 -0.32167,-0.106101 -0.32167,-0.18078 0,-0.137498 0.22704,-0.182068 0.52241,-0.106101 0.24189,0.06328 0.24528,0.06328 0.24528,-0.05474 0,-0.157442 -0.19394,-0.227033 -0.5589,-0.202 -0.32634,0.02286 -0.49227,0.142586 -0.49227,0.356472 0,0.188852 0.13452,0.308101 0.42437,0.3743 0.41122,0.09299 0.42778,0.09972 0.42778,0.199041 0,0.05137 -0.0428,0.116325 -0.0947,0.144282 -0.12264,0.06448 -0.45238,0.06616 -0.62129,0.0012 -0.12264,-0.04619 -0.12942,-0.04162 -0.11464,0.08613 0.0183,0.162531 0.1791,0.215581 0.55849,0.184172 0.19902,-0.0166 0.27372,-0.05004 0.38321,-0.171024 z m -5.69598,0.02502 c 0,-0.120945 -0.008,-0.12435 -0.36623,-0.12435 -0.54532,0 -0.5241,0.02334 -0.5241,-0.57375 v -0.513926 h -0.29664 v 1.334667 h 1.18697 z m 0.64166,-0.543628 v -0.668398 h -0.24698 v 1.334667 h 0.24698 z m -2.98718,-1.942796 c 0.22025,-0.258864 0.32296,-0.477417 0.33144,-0.711248 0.006,-0.162543 -0.0166,-0.222378 -0.12773,-0.31829 -0.0764,-0.06496 -0.17061,-0.11801 -0.21219,-0.11801 -0.1358,0 -0.35649,0.145991 -0.46724,0.308523 -0.30513,0.444323 -0.54066,0.566964 -0.54066,0.281792 0,-0.173996 0.22364,-0.525379 0.44433,-0.699374 0.14258,-0.111154 0.14597,-0.119695 0.0697,-0.230439 l -0.0811,-0.114521 -0.22067,0.215582 c -0.27669,0.270328 -0.44433,0.550412 -0.48719,0.817348 -0.0301,0.187156 -0.0183,0.223641 0.11753,0.357747 0.25547,0.25718 0.37303,0.199041 0.9018,-0.443891 0.12604,-0.152775 0.20073,-0.204129 0.26014,-0.180792 0.18588,0.07133 0.053,0.420986 -0.29834,0.782559 -0.19563,0.202 -0.21388,0.24189 -0.16422,0.33483 l 0.0564,0.106101 0.13113,-0.103093 c 0.0713,-0.05606 0.20031,-0.183764 0.28688,-0.284764 z m 10.56272,-0.0747 c 0.28349,-0.102732 0.33483,-0.173995 0.23892,-0.328467 -0.0381,-0.05774 -0.12773,-0.03946 -0.54702,0.116326 -0.27711,0.102733 -0.51052,0.179096 -0.519,0.168907 -0.008,-0.0084 0.1358,-0.270328 0.31997,-0.581821 l 0.33653,-0.565269 -0.0798,-0.164228 c -0.0428,-0.0913 -0.0925,-0.159139 -0.10911,-0.150658 -0.28688,0.119213 -1.28331,0.669662 -1.28331,0.707855 0,0.02803 0.0284,0.09299 0.0645,0.140903 0.0615,0.08276 0.0883,0.07639 0.46935,-0.114642 0.22196,-0.112476 0.40444,-0.188852 0.40444,-0.172299 0,0.01828 -0.11416,0.23383 -0.25505,0.479113 -0.28052,0.488881 -0.28349,0.500766 -0.19267,0.717623 l 0.0616,0.151079 0.40274,-0.151079 c 0.22237,-0.08108 0.53216,-0.195637 0.68791,-0.253355 z m -1.74376,-1.389401 c 0.10442,-0.311494 0.10947,-0.318278 0.31319,-0.351384 0.24868,-0.04114 0.35817,-0.129438 0.43117,-0.347991 0.0428,-0.131134 0.0381,-0.19394 -0.0217,-0.311914 -0.0747,-0.14089 -0.78254,-0.796982 -0.8619,-0.796982 -0.0217,0 -0.24699,0.246991 -0.50077,0.54702 l -0.46088,0.54702 0.20541,0.205405 0.13112,-0.155747 c 0.073,-0.08445 0.15744,-0.154051 0.18885,-0.154051 0.0319,0.0012 0.13114,0.06785 0.22238,0.150659 l 0.16253,0.149371 -0.0781,0.269907 c -0.0445,0.151079 -0.0645,0.300041 -0.0445,0.331859 0.0395,0.07133 0.17569,0.23341 0.19521,0.23341 0.007,0 0.0599,-0.142587 0.11801,-0.316582 z m -0.13113,-0.833901 c -0.14259,-0.114161 -0.25844,-0.220249 -0.25844,-0.23341 0,-0.01359 0.0645,-0.09972 0.14258,-0.190969 l 0.14259,-0.167199 0.24699,0.190549 c 0.28688,0.223641 0.376,0.36156 0.32974,0.50713 -0.0564,0.18078 -0.30682,0.136222 -0.60346,-0.106101 z m -7.77966,0.812681 c 0.42267,-0.20413 0.6268,-0.776183 0.40273,-1.132234 -0.2054,-0.325075 -0.65778,-0.457905 -0.98794,-0.286881 -0.19225,0.09936 -0.42777,0.379388 -0.49865,0.594982 -0.11633,0.353079 0.11921,0.805884 0.47402,0.913248 0.1723,0.05305 0.3811,0.02165 0.60984,-0.08914 z m -0.57164,-0.156168 c -0.16593,-0.06616 -0.26523,-0.248687 -0.26523,-0.485489 0,-0.179084 0.028,-0.243586 0.1655,-0.381517 0.26863,-0.268199 0.56357,-0.286448 0.80249,-0.048 0.25336,0.253775 0.0895,0.731204 -0.30851,0.896707 -0.18376,0.07639 -0.2436,0.07976 -0.39425,0.01828 z m 7.14777,-0.996011 c 10e-4,-0.01828 -0.14259,-0.09972 -0.31998,-0.182489 -0.32974,-0.154038 -0.35776,-0.192232 -0.26991,-0.356471 0.0497,-0.09299 0.0611,-0.0913 0.3446,0.05137 0.35308,0.179084 0.36496,0.18078 0.43117,0.03308 0.0497,-0.107785 0.0331,-0.124337 -0.26355,-0.269895 -0.17399,-0.08613 -0.31658,-0.174417 -0.31658,-0.195637 0,-0.02165 0.0348,-0.08781 0.0777,-0.147687 l 0.0764,-0.109469 0.33822,0.171025 c 0.3446,0.172299 0.36115,0.172299 0.46724,-0.01359 0.0267,-0.04451 -0.11079,-0.134093 -0.47402,-0.304696 l -0.51052,-0.242324 -0.32635,0.65015 -0.32847,0.651412 0.47572,0.253355 c 0.46937,0.248687 0.47743,0.250383 0.53726,0.147686 0.0314,-0.05642 0.0594,-0.117528 0.0611,-0.135801 z m -5.06068,0.01311 c 0.2368,-0.107785 0.41588,-0.316582 0.41588,-0.48591 0,-0.06616 -0.0895,-0.351383 -0.20073,-0.633163 l -0.19861,-0.510523 -0.28857,0.09924 0.0929,0.230438 c 0.0497,0.12773 0.1375,0.338223 0.19564,0.471054 0.0561,0.130713 0.10273,0.280084 0.10273,0.331438 0,0.240194 -0.44263,0.392969 -0.60346,0.207089 -0.0416,-0.048 -0.1706,-0.253343 -0.28688,-0.457472 -0.11585,-0.203697 -0.21728,-0.376417 -0.22195,-0.384489 -0.025,-0.02971 -0.27202,0.107785 -0.27202,0.150658 0,0.02671 0.11452,0.235527 0.25377,0.465965 0.35945,0.596678 0.58181,0.709551 1.01129,0.515611 z m 3.71328,-1.08088 c 0.15575,-0.759209 0.15236,-0.800795 -0.0666,-0.802491 -0.0878,0 -0.11248,0.04499 -0.16085,0.286869 l -0.0561,0.288577 -0.25887,-0.03825 c -0.14259,-0.01997 -0.29834,-0.03813 -0.3463,-0.03994 -0.0798,-0.0024 -0.0845,-0.03825 -0.0547,-0.328034 l 0.0331,-0.325074 -0.16762,0.0148 -0.16891,0.0166 -0.0314,0.444324 c -0.0183,0.245294 -0.0467,0.573761 -0.0616,0.729508 l -0.028,0.285173 h 0.34459 v -0.235527 c 10e-4,-0.339919 0.02,-0.354776 0.38491,-0.294941 0.30004,0.048 0.3098,0.05474 0.28646,0.179084 -0.0942,0.479125 -0.0942,0.488881 0.0284,0.512231 0.0628,0.01311 0.12774,0.02634 0.14429,0.02971 0.0166,0.0036 0.0959,-0.321683 0.17909,-0.722712 z m -2.19657,0.603463 c 0.0611,-0.02334 0.0577,-0.09467 -0.0183,-0.50713 -0.12773,-0.681546 -0.13919,-0.638264 0.20202,-0.706159 0.28517,-0.05473 0.29536,-0.06327 0.26522,-0.187577 -0.0183,-0.07134 -0.0348,-0.134105 -0.0381,-0.139194 -0.002,-0.0048 -0.35605,0.0581 -0.78382,0.142587 l -0.77576,0.150658 0.0314,0.129438 c 0.0166,0.07302 0.0348,0.135789 0.0399,0.142586 0.005,0.0072 0.1358,-0.01203 0.29155,-0.04283 0.15405,-0.03188 0.29027,-0.04668 0.30343,-0.03356 0.0131,0.01203 0.073,0.260561 0.13283,0.550413 0.11248,0.542352 0.14089,0.580125 0.34968,0.500766 z"
       style="fill:#000000;fill-opacity:1;fill-rule:nonzero;stroke:none;stroke-width:0.424375"
       id="path338" />
    <path
       d="m 108.85163,-34.751187 c 0.1723,-0.30513 0.45747,-0.606855 0.76769,-0.81226 0.51859,-0.343323 1.01766,-0.469357 1.64913,-0.418003 0.33525,0.02671 0.51391,0.07134 0.7694,0.192233 0.4842,0.232134 0.92513,0.626812 1.15726,1.03803 l 0.0679,0.119213 h -4.47928 z"
       style="fill:#ffff00;fill-opacity:1;fill-rule:nonzero;stroke:none;stroke-width:0.424375"
       id="path340" />
    <path
       d="m 108.21167,-34.98841 c -0.67603,-0.401041 -0.88991,-0.537264 -0.85852,-0.541931 0.0166,-0.0036 0.24699,0.06785 0.51052,0.157443 0.26524,0.0913 0.48889,0.165502 0.49738,0.165502 0.0381,0 -0.012,-0.05943 -0.36157,-0.434134 -0.20709,-0.22025 -0.376,-0.407826 -0.376,-0.417582 0,-0.02334 0.0263,-0.01203 0.4821,0.205392 0.46427,0.220682 0.53725,0.250383 0.55211,0.235527 0.0166,-0.01648 -0.0547,-0.126034 -0.28178,-0.427771 -0.23214,-0.306814 -0.37474,-0.512219 -0.36455,-0.520699 0.004,-0.0048 0.18036,0.11801 0.39255,0.270316 0.39977,0.288577 0.54744,0.384488 0.56399,0.367936 0.005,-0.0048 -0.1061,-0.236802 -0.24571,-0.513915 -0.1392,-0.278388 -0.24826,-0.510522 -0.24528,-0.515623 0.005,-0.0024 0.12136,0.0895 0.25716,0.210926 0.60686,0.533439 0.66458,0.580114 0.66458,0.528772 0,-0.03188 -0.0777,-0.303434 -0.20031,-0.696403 -0.05,-0.157443 -0.0878,-0.300042 -0.0849,-0.316582 0.004,-0.0148 0.10141,0.104416 0.21729,0.266924 0.27372,0.3794 0.37981,0.517319 0.41292,0.530467 0.0297,0.01203 0.0263,-0.03308 -0.0467,-0.67475 -0.0263,-0.223653 -0.0463,-0.422682 -0.0463,-0.444324 0,-0.05473 0.0828,0.08276 0.35647,0.596678 0.12774,0.238919 0.2385,0.434556 0.24699,0.436252 0.007,0 0.0131,-0.09804 0.0131,-0.217278 0,-0.119212 0.007,-0.381096 0.0131,-0.581821 l 0.0136,-0.363269 0.14725,0.421408 c 0.0814,0.232134 0.16085,0.447295 0.1774,0.479125 0.0284,0.05305 0.0314,0.05437 0.0497,0.0178 0.012,-0.02117 0.0483,-0.176955 0.0814,-0.346283 0.0878,-0.452384 0.1358,-0.662877 0.15574,-0.674762 0.028,-0.01829 0.068,0.147687 0.15236,0.638264 0.0866,0.487606 0.093,0.522408 0.10778,0.50713 0.005,-0.0048 0.0666,-0.190548 0.13792,-0.412493 0.15235,-0.479125 0.21516,-0.638264 0.24699,-0.606855 0.0131,0.01311 0.0229,0.200725 0.0297,0.535556 l 0.01,0.515622 0.25887,-0.447716 c 0.14089,-0.245294 0.2682,-0.462572 0.28348,-0.482517 0.0247,-0.0314 0.0263,-0.02971 0.0263,0.02839 0.001,0.03477 -0.0331,0.266935 -0.0764,0.516898 -0.0845,0.499058 -0.0845,0.492694 -0.0594,0.492694 0.008,0 0.14769,-0.167632 0.30639,-0.373024 0.30853,-0.394666 0.40657,-0.507551 0.42311,-0.490999 0.0148,0.01528 -0.0547,0.272025 -0.18587,0.681547 -0.0645,0.200725 -0.11753,0.369632 -0.11753,0.378113 0,0.05305 0.10105,-0.02839 0.48549,-0.388302 0.23722,-0.221946 0.43455,-0.40103 0.43795,-0.397637 0.002,0.0036 -0.11633,0.250383 -0.26523,0.548716 -0.14938,0.298333 -0.26397,0.541931 -0.25378,0.541931 0.01,0 0.12943,-0.07422 0.26523,-0.16721 0.36285,-0.245283 0.74605,-0.489303 0.75582,-0.479114 0.005,0.0048 -0.0947,0.144283 -0.22025,0.309786 -0.28858,0.378125 -0.41293,0.550424 -0.41293,0.572065 0,0.02165 0.1409,-0.03645 0.62341,-0.25718 0.23213,-0.1061 0.42608,-0.18884 0.43074,-0.183751 0.005,0.0048 -0.13579,0.160835 -0.31488,0.344598 -0.43583,0.449413 -0.52028,0.557197 -0.44433,0.557197 0.0136,0 0.26694,-0.06159 0.56188,-0.135789 0.29537,-0.0747 0.55042,-0.134527 0.56866,-0.134527 0.053,0 -0.86699,0.577142 -1.15345,0.722712 -0.1031,0.05137 -0.10478,0.05305 -0.13623,0.0148 -0.46086,-0.571632 -0.56696,-0.679417 -0.85681,-0.875054 -0.28348,-0.190548 -0.59836,-0.323378 -0.94508,-0.39807 -0.22705,-0.04968 -0.84706,-0.04968 -1.06901,0 -0.38321,0.08493 -0.74605,0.242324 -1.01129,0.43796 -0.23891,0.177388 -0.54702,0.497362 -0.70276,0.729076 -0.0747,0.109469 -0.14259,0.197332 -0.15447,0.195636 -0.012,0 -0.2037,-0.109108 -0.42608,-0.24189 z"
       style="fill:#ffff00;fill-opacity:1;fill-rule:nonzero;stroke:none;stroke-width:0.424375"
       id="path342" />
    <path
       d="m 106.57909,-34.694744 c 0.376,-1.07282 1.05585,-1.967831 1.86641,-2.549653 0.47573,-0.339931 1.02784,-0.577154 1.60796,-0.691314 0.59539,-0.11801 1.27652,-0.116326 1.86173,0.0036 1.0427,0.213452 1.92116,0.783822 2.60271,1.690706 0.31149,0.415898 0.58182,0.906896 0.77066,1.407229 0.0348,0.0913 0.0713,0.197345 0.0713,0.205826 0,0.0036 -0.87846,0.0036 -2.09685,0 -2.54794,-0.0072 -2.17661,-0.0072 -4.66346,0 l -2.05185,0.006 z m 6.68392,0.06448 c 0,-0.0072 -0.11115,-0.195637 -0.1392,-0.238919 -0.2457,-0.364544 -0.63996,-0.70107 -1.06432,-0.908171 -0.23893,-0.11801 -0.41463,-0.167632 -0.69132,-0.197333 -0.54362,-0.05642 -0.97648,0.0084 -1.39917,0.212189 -0.49227,0.235527 -0.87845,0.589882 -1.13562,1.04099 -0.0264,0.048 -0.048,0.08782 -0.048,0.0913 z m -4.50899,-0.255472 c 0.13919,-0.197332 0.24189,-0.319986 0.40952,-0.487185 0.24019,-0.24189 0.41249,-0.369632 0.66627,-0.495677 0.18546,-0.09287 0.39297,-0.169316 0.60685,-0.222367 0.15916,-0.03777 0.30471,-0.05137 0.60474,-0.05137 0.30513,0 0.45112,0.01359 0.62171,0.05474 0.30004,0.0747 0.59668,0.205825 0.85555,0.378125 0.26354,0.175691 0.38957,0.301725 0.75412,0.747745 0.1061,0.130713 0.12603,0.150658 0.14258,0.150658 0.0581,0 0.70447,-0.3794 1.10423,-0.64802 0.12901,-0.08782 0.15405,-0.107785 0.14726,-0.112837 -0.005,-0.0072 -0.14259,0.02502 -0.47233,0.107784 -0.42608,0.106101 -0.63656,0.155747 -0.65821,0.155747 -0.028,0 -0.0263,-0.0148 0,-0.0581 0.0399,-0.06279 0.12944,-0.163806 0.41632,-0.460443 0.21685,-0.227467 0.34119,-0.363269 0.34119,-0.374733 0,-0.01359 -0.0713,0.0166 -0.52197,0.220261 -0.41632,0.187565 -0.51732,0.22873 -0.52538,0.215582 -0.007,-0.0084 0.0942,-0.149383 0.33822,-0.475733 0.23341,-0.310218 0.29494,-0.398058 0.28985,-0.402725 -0.01,-0.01203 -0.22535,0.122641 -0.66967,0.417582 -0.30512,0.202433 -0.34501,0.227046 -0.34501,0.215581 0,-0.01492 0.0764,-0.179084 0.23722,-0.502462 0.2105,-0.429046 0.2767,-0.569936 0.27373,-0.573329 -0.005,-0.0048 -0.10141,0.08108 -0.42269,0.379388 -0.41122,0.379822 -0.50924,0.459181 -0.49439,0.396374 0.001,-0.0096 0.0484,-0.160847 0.1031,-0.33483 0.15744,-0.505855 0.21218,-0.702767 0.19563,-0.71932 -0.0166,-0.01528 -0.11115,0.09419 -0.40485,0.465544 -0.19691,0.25208 -0.31319,0.391274 -0.32634,0.394666 -0.0166,0.0048 -0.007,-0.0747 0.0433,-0.36624 0.0777,-0.460876 0.10273,-0.638264 0.0959,-0.671357 -0.005,-0.01828 -0.005,-0.01828 -0.0183,-0.0084 -0.0183,0.0166 -0.18078,0.293244 -0.47572,0.808867 l -0.0764,0.132831 v -0.09636 c 0,-0.31319 -0.02,-0.886939 -0.0331,-0.934889 -0.008,-0.03308 -0.0247,-0.02803 -0.048,0.01203 -0.0399,0.07001 -0.0895,0.209218 -0.26015,0.736293 -0.0547,0.168907 -0.0848,0.25208 -0.0895,0.248687 -0.008,-0.0096 -0.0301,-0.111153 -0.0878,-0.442627 -0.098,-0.54702 -0.13283,-0.699795 -0.16253,-0.699795 -0.005,0 -0.012,0.0084 -0.0166,0.01828 -0.0166,0.04499 -0.0581,0.224075 -0.11801,0.522408 -0.0861,0.42267 -0.1061,0.503738 -0.12562,0.503738 -0.017,0 -0.0713,-0.140903 -0.23723,-0.611535 -0.0547,-0.152775 -0.10273,-0.290273 -0.10778,-0.303421 l -0.01,-0.02334 -0.004,0.03645 c -0.005,0.05137 -0.0183,0.457484 -0.025,0.815652 -0.004,0.160835 -0.006,0.293665 -0.01,0.296637 -10e-4,0.0012 -0.007,0 -0.01,-0.0024 -0.012,-0.01203 -0.10779,-0.182477 -0.25166,-0.449412 -0.22873,-0.426075 -0.29706,-0.545324 -0.32847,-0.57375 l -0.0148,-0.01311 v 0.03825 c 0,0.01997 0.0233,0.24189 0.0514,0.493969 0.0564,0.505434 0.0633,0.581822 0.0514,0.596678 -0.0148,0.02165 -0.1061,-0.0913 -0.34799,-0.422682 -0.13114,-0.18078 -0.22704,-0.306393 -0.26354,-0.344587 -0.02,-0.02165 -0.0267,-0.02502 -0.0284,-0.0166 -0.002,0.0166 0.0364,0.163807 0.10309,0.381085 0.1375,0.446021 0.18714,0.626812 0.17569,0.638264 -0.0153,0.0148 -0.0861,-0.04331 -0.50416,-0.407825 -0.30343,-0.26524 -0.40613,-0.349687 -0.40952,-0.33992 -0.004,0.0096 0.0547,0.134526 0.23383,0.497362 0.19223,0.389577 0.25378,0.519015 0.24698,0.525379 -0.0131,0.01203 -0.15744,-0.08276 -0.52367,-0.34289 -0.32338,-0.232135 -0.41293,-0.291981 -0.42268,-0.288577 -0.012,0.0036 0.1091,0.180779 0.31318,0.455775 0.20201,0.272025 0.26694,0.359877 0.30343,0.419711 0.0247,0.03946 0.0331,0.07133 0.0183,0.07133 -0.0267,0 -0.16592,-0.06147 -0.61025,-0.272023 -0.35647,-0.168896 -0.41419,-0.192233 -0.41419,-0.168896 0,0.0096 0.13581,0.16211 0.39595,0.442628 0.23552,0.251647 0.29196,0.313189 0.32337,0.356052 0.028,0.03645 0.0314,0.04499 0.0131,0.04499 -0.006,0 -0.19903,-0.06147 -0.42778,-0.139194 -0.41079,-0.137919 -0.56824,-0.185881 -0.57502,-0.179083 -0.008,0.0084 0.0183,0.02971 0.12095,0.09756 0.16083,0.106101 0.8339,0.509248 1.06093,0.636556 l 0.10273,0.05642 0.0301,-0.03308 c 0.0183,-0.01828 0.056,-0.06797 0.0861,-0.111153 z"
       style="fill:#000000;fill-opacity:1;fill-rule:nonzero;stroke:none;stroke-width:0.424375"
       id="path344" />
  </g>
</svg>
