<svg xmlns="http://www.w3.org/2000/svg" width="65.8" height="65.8" viewBox="0 0 17.41 17.41"><filter id="a"><feColorMatrix type="saturate" values=".1"/></filter><g filter="url(#a)" transform="translate(-102.282 42.237)"><circle class="st1" cx="110.987" cy="-33.533" r="8.573" fill="#fff" stroke="#fff" stroke-width=".265" stroke-miterlimit="10"/><path d="M105.825-35.038c-.035-.068-.038-.076-.038-.103 0-.048.028-.091.132-.202a2.29 2.29 0 00.293-.353c.161-.242.186-.431.067-.486-.038-.018-.065-.015-.113.019-.044.028-.094.08-.214.223-.335.4-.472.52-.6.52-.083 0-.16-.053-.287-.188-.073-.078-.09-.121-.086-.208.017-.272.156-.55.413-.828.071-.078.3-.299.305-.297.008.001.105.14.118.167.023.048.01.072-.085.148a1.523 1.523 0 00-.393.482c-.05.1-.074.18-.074.244 0 .061.015.11.043.132.078.065.257-.079.466-.37a.892.892 0 01.24-.251.57.57 0 01.253-.105c.032 0 .059.012.12.048.086.05.172.133.199.188.023.048.026.08.025.185-.004.07-.005.106-.013.141-.048.223-.173.43-.412.683a2.09 2.09 0 01-.25.23l-.071.056zm.82-1.694a.67.67 0 01-.154-.052.774.774 0 01-.411-.656.586.586 0 01.073-.322c.104-.204.293-.408.456-.49a.727.727 0 01.567-.032c.06.02.16.071.215.11a.786.786 0 01.218.243c.134.247.076.607-.14.87a.967.967 0 01-.177.163 1.208 1.208 0 01-.383.159 1.026 1.026 0 01-.264.007zm.242-.229a.82.82 0 00.397-.244c.142-.169.192-.368.137-.54a.409.409 0 00-.104-.166c-.173-.172-.38-.209-.589-.104a.762.762 0 00-.216.16c-.124.125-.154.186-.162.333-.008.183.042.346.141.448a.47.47 0 00.212.116.404.404 0 00.184-.003zm1.424-.932c-.177-.028-.328-.157-.517-.442-.134-.2-.35-.582-.35-.619 0-.008.007-.018.02-.031a.598.598 0 01.222-.121c.024-.005.004-.035.181.274.209.362.315.533.363.581a.3.3 0 00.219.072.46.46 0 00.295-.125c.056-.054.081-.106.081-.167 0-.058-.045-.198-.13-.395-.102-.242-.248-.6-.253-.626-.003-.01 0-.012.136-.06a.799.799 0 01.141-.043c.007.008.21.532.246.625.07.192.134.398.147.472.015.078-.007.151-.072.247a1.037 1.037 0 01-.19.191 1.22 1.22 0 01-.36.157.614.614 0 01-.179.01zm1.742-.538a.178.178 0 01-.062-.077c-.032-.07-.058-.17-.125-.475a9.073 9.073 0 00-.107-.471c-.014-.045-.019-.051-.028-.055-.027-.007-.15.01-.322.041-.136.027-.217.04-.244.04-.025 0-.021.007-.061-.147-.025-.105-.028-.121-.022-.123.003 0 .184-.037.401-.078.832-.162 1.14-.219 1.148-.21.006.006.044.167.046.194.002.066-.022.076-.313.134-.14.028-.178.04-.203.063-.03.025-.038.046-.04.108-.003.08.004.125.078.525.059.315.072.428.055.472-.01.026-.023.034-.084.054-.047.014-.092.016-.117.005zm2.082.076a.916.916 0 01-.097-.023c-.053-.027-.052-.078.013-.415.027-.137.028-.157.015-.18-.018-.03-.065-.045-.232-.073-.21-.035-.299-.044-.35-.027a.11.11 0 00-.063.051c-.021.04-.03.166-.031.408v.088h-.338l.003-.023c.018-.153.066-.705.107-1.287.007-.077.012-.14.014-.142.002-.002.326-.033.328-.033 0 .001-.008.094-.022.207-.024.245-.031.375-.018.408.012.028.025.034.091.04.092.008.357.043.574.074.005 0 .015-.04.046-.194.022-.108.044-.214.05-.237.015-.058.04-.108.062-.124.016-.013.021-.013.07-.015.094-.004.129.01.151.056.014.027.014.032.014.093 0 .035-.005.091-.008.123a13.502 13.502 0 01-.26 1.208c-.01.028-.014.032-.024.034a.851.851 0 01-.095-.017zm1.468.564a.904.904 0 01-.163-.069 34.416 34.416 0 01-.742-.396c0-.005.646-1.288.65-1.293.001-.001.479.224.63.3.24.118.352.19.352.229a.315.315 0 01-.057.1c-.042.056-.082.064-.17.034a6.756 6.756 0 01-.31-.147l-.27-.135-.011.017c-.08.108-.143.214-.143.24 0 .027.103.092.353.22.163.082.196.102.222.129.025.025.032.044.022.076a.466.466 0 01-.058.12c-.045.05-.08.042-.367-.1-.253-.125-.286-.138-.321-.12-.022.012-.052.06-.073.115-.025.066-.017.114.026.15.04.036.082.059.253.143.18.09.27.138.311.168.023.016.023.018.022.034a.62.62 0 01-.098.178.096.096 0 01-.058.007zm1.332 1.249a1.255 1.255 0 01-.13-.166l-.022-.031v-.045c0-.084.022-.179.086-.406.022-.073.04-.136.04-.14 0-.007-.166-.16-.23-.211a.765.765 0 00-.131-.087c-.024-.01-.047-.003-.08.022a.822.822 0 00-.166.166c-.041.05-.08.094-.086.103l-.012.011-.099-.1a2.304 2.304 0 01-.1-.102c0-.003.37-.442.544-.648a6.94 6.94 0 01.393-.431l.019-.015.022.012c.125.062.673.568.808.746a.438.438 0 01.07.142c.018.066.006.143-.037.255-.066.171-.172.254-.381.294-.163.03-.184.038-.219.073-.038.038-.058.083-.134.308-.06.174-.105.294-.11.294l-.045-.044zm.556-.901c.056-.025.09-.08.092-.158a.227.227 0 00-.03-.133.929.929 0 00-.213-.238 11.21 11.21 0 00-.345-.269l-.164.19a1.58 1.58 0 00-.116.154l-.01.02.023.022c.028.03.112.105.196.174.16.133.287.21.403.24a.274.274 0 00.164-.002zm.225 2.329a2.232 2.232 0 01-.054-.141.192.192 0 01-.017-.105c0-.05.002-.058.015-.097.022-.057.075-.165.14-.28l.125-.221c.14-.245.214-.388.214-.406 0-.012-.015-.009-.09.02a5.327 5.327 0 00-.36.169c-.23.113-.293.139-.333.14-.034.002-.042 0-.059-.014a.392.392 0 01-.09-.15c-.006-.02-.005-.02.01-.036.047-.041.401-.247.758-.438.23-.122.495-.255.514-.255.02 0 .073.086.138.22l.042.093-.188.32a16.21 16.21 0 00-.438.76c-.032.066-.033.07-.018.07.03 0 .218-.064.51-.168.31-.115.395-.14.466-.144.04-.002.045-.002.06.008a.16.16 0 01.038.053.168.168 0 01.023.074c.002.03 0 .037-.012.059-.03.053-.112.099-.298.169-.061.021-.229.084-.371.137l-.673.25c-.013.005-.013.004-.052-.087zm-8.275 1.707v-.663h.293l.004.44c.001.465.001.467.023.528.023.063.071.095.163.108.02.005.147.008.321.01.297.003.321.006.352.026.022.015.024.024.026.123l.002.093h-1.184zm1.583 0v-.663h.242v1.328h-.242zm1.958.693a.448.448 0 01-.098-.026c-.05-.024-.14-.125-.239-.26a61.134 61.134 0 01-.169-.251c-.167-.252-.262-.38-.282-.38-.011 0-.021.058-.031.176-.002.038-.005.212-.007.39l-.003.323h-.288v-1.328h.152c.168 0 .197.003.237.027.045.026.105.096.186.218l.144.22c.15.226.259.37.278.37.027 0 .04-.192.04-.58v-.255h.296v.02l-.016.313c-.035.696-.053.96-.071.997-.01.021-.033.041-.046.041-.005-.002-.044-.007-.083-.015zm1.031.015a1.62 1.62 0 01-.224-.025c-.015-.003-.016-.007-.02-.022a12.5 12.5 0 01-.021-.962v-.362h1.076v.086c0 .103-.004.116-.034.131-.036.018-.072.02-.419.024h-.335v.298l.318.003c.266.002.322.003.35.01.06.013.068.025.07.1.003.083-.007.104-.058.119-.022.006-.068.008-.351.01l-.329.001v.304h.788v.29l-.367-.002c-.2 0-.4-.001-.444-.003zm1.663-.015c-.186-.012-.275-.068-.292-.184-.009-.05-.007-.098.002-.108.011-.011.021-.01.099.017a.886.886 0 00.257.048.906.906 0 00.355-.037.206.206 0 00.1-.094.166.166 0 00.012-.108c-.016-.053-.06-.071-.348-.137a3.103 3.103 0 01-.2-.053c-.187-.065-.279-.156-.297-.297a.312.312 0 01.046-.21c.064-.095.18-.15.37-.177.086-.013.32-.013.387 0 .126.024.193.062.225.127.011.021.013.03.013.081v.056l-.015.014c-.013.01-.016.011-.043.008a2.477 2.477 0 01-.147-.032 1.044 1.044 0 00-.296-.043c-.122 0-.194.022-.237.073a.098.098 0 00.002.135c.037.036.093.059.273.11.183.053.282.093.365.15.16.106.186.243.078.402a.515.515 0 01-.269.224 1.63 1.63 0 01-.44.035zm1.254 3.972a.445.445 0 01-.163-.023.646.646 0 01-.214-.166.836.836 0 01-.22-.371c-.064-.262.022-.528.248-.751.068-.065.102-.095.189-.151.136-.091.282-.15.378-.15.045 0 .066.007.09.027.02.02.049.075.049.098 0 .036-.035.058-.187.12a1.08 1.08 0 00-.236.122.755.755 0 00-.282.358.51.51 0 00.132.564.424.424 0 00.286.129.583.583 0 00.348-.111 1.14 1.14 0 00.33-.4.473.473 0 00.068-.204c.007-.05.045-.07.135-.07.095 0 .107.014.082.104a1.603 1.603 0 01-.275.53c-.04.05-.133.144-.179.18a.889.889 0 01-.23.14 1.132 1.132 0 01-.349.025zm-.78.819a12.854 12.854 0 01-.587-1.07.385.385 0 01-.045-.144c0-.031.01-.048.045-.076a.702.702 0 01.106-.065c.002 0 .018.022.035.048.137.21.593 1.055.645 1.198l.011.03-.011.02a.148.148 0 01-.037.036.32.32 0 01-.123.043c-.02.003-.022.003-.039-.02zm-1.962.763c-.047-.022-.084-.103-.132-.294-.053-.217-.224-1.1-.214-1.114.03-.048.922-.298 1.107-.312l.044-.003.008.022a.56.56 0 01.032.177c-.002.037-.057.071-.166.105-.03.008-.138.038-.237.062-.206.053-.352.093-.422.115-.057.018-.059.018-.05.09.008.095.026.159.049.183.021.024.036.029.096.027.07 0 .136-.014.393-.078.262-.066.345-.08.368-.057a.165.165 0 01.011.049.49.49 0 00.017.083c.015.05.015.05-.002.07-.031.037-.096.059-.445.143-.249.062-.307.085-.335.131-.023.043-.022.078.015.232.033.143.04.193.04.236.003.063-.01.08-.084.116-.044.023-.07.028-.093.018zm-1.08.144a.275.275 0 01-.035-.007c-.073-.015-.1-.071-.113-.24a16.231 16.231 0 01-.008-.67l-.002-.605h.296v.486c0 .503-.007.842-.015.916-.009.063-.019.097-.035.111-.012.01-.018.012-.047.012a.191.191 0 01-.041-.003zm-1.355-.101a1.17 1.17 0 01-.28-.067c-.298-.118-.494-.34-.542-.613a.553.553 0 01-.006-.136.566.566 0 01.07-.279.832.832 0 01.394-.374c.222-.108.43-.108.703 0 .073.03.248.116.32.157.124.075.135.11.066.2-.025.032-.041.044-.071.044-.037 0-.075-.017-.23-.093-.25-.126-.337-.153-.486-.147a.355.355 0 00-.118.014.643.643 0 00-.23.128.556.556 0 00-.16.325.557.557 0 00.009.242c.056.196.301.342.614.366a.957.957 0 00.377-.05c.08-.026.111-.032.137-.024.029.01.064.058.075.11.015.054-.027.094-.133.129a1.77 1.77 0 01-.318.066 1.44 1.44 0 01-.19.002zm-1.488-.448c-.076-.027-.101-.041-.116-.066-.009-.019-.01-.027-.01-.081.001-.049.031-.349.043-.412.002-.011-.017-.026-.333-.247l-.335-.234-.171.095c-.21.118-.253.136-.3.14-.031.003-.038.001-.066-.013-.086-.039-.176-.119-.158-.139.012-.015.345-.225.984-.62.333-.205.353-.217.364-.212l.17.108.162.103v.033c0 .05-.019.62-.025.75-.022.488-.05.762-.085.802-.018.021-.046.02-.124-.007zm-.063-.965c.033-.051.041-.474.008-.5-.01-.009-.046.005-.116.046-.132.08-.295.205-.295.229 0 .003.028.026.063.053.202.149.317.207.34.172zm-1.149-.616a.708.708 0 01-.199-.1c-.12-.085-.235-.198-.414-.405a2.012 2.012 0 00-.131-.144c-.004 0-.103.07-.222.156a7.244 7.244 0 01-.22.156.953.953 0 01-.109-.16.185.185 0 01-.02-.06l-.001-.025.045-.04a19.6 19.6 0 011.102-.829l.028-.017.04.04c.05.053.154.18.264.328.238.32.306.441.32.579a.893.893 0 01-.017.19.484.484 0 01-.075.151.54.54 0 01-.187.135.458.458 0 01-.156.054.205.205 0 01-.048-.01zm.13-.25a.236.236 0 00.05-.044c.057-.06.067-.13.032-.244-.036-.116-.159-.307-.316-.494-.04-.048-.044-.048-.093-.023-.12.06-.308.217-.308.257 0 .041.24.328.38.45a.532.532 0 00.14.099.14.14 0 00.115-.002z" fill="red" stroke="#fff" stroke-width=".001"/><path d="M110.379-26.766c-2.053-.144-3.906-1.26-5.1-3.07-1.008-1.525-1.326-3.397-.895-5.252.445-1.913 1.799-3.622 3.574-4.51 3.699-1.85 8.188.023 9.49 3.958.516 1.562.42 3.342-.261 4.87a6.841 6.841 0 01-4.546 3.845c-.548.14-1.536.21-2.262.159zm.867-1.006v-.766h-.297v.738c0 .76.005.78.21.79.08.004.086-.064.086-.762zm-1.06.611c.217-.055.257-.106.178-.23-.03-.048-.073-.052-.176-.013-.35.134-.832.01-.971-.249-.09-.169-.025-.496.122-.623.226-.194.454-.2.79-.025.271.142.297.148.354.07.081-.11.06-.138-.229-.284-.363-.184-.616-.202-.887-.063-.676.348-.565 1.197.186 1.424.195.058.383.056.633-.007zm2.14-.038c.058-.036.058-.086.006-.301-.073-.307-.084-.297.425-.417.288-.067.366-.104.345-.16a.498.498 0 01-.029-.14c0-.051-.074-.044-.357.029-.476.124-.514.12-.546-.042a.379.379 0 01-.01-.153c.01-.01.214-.066.453-.127.41-.103.436-.118.42-.23a.435.435 0 00-.039-.141c-.038-.04-1.155.265-1.157.316 0 .028.062.357.136.731.14.693.17.751.353.635zm-3.842-1.369l.018-.575-.172-.111-.173-.11-.658.408c-.361.224-.67.418-.685.433-.013.015.03.063.098.107.116.077.134.073.361-.053l.241-.134.666.468-.03.262c-.03.255-.028.263.112.31.14.046.142.045.174-.191.016-.13.038-.496.048-.814zm-.49-.045a2.507 2.507 0 01-.19-.14c-.025-.024.341-.28.401-.28.04 0 .03.487-.012.511-.02.012-.11-.028-.2-.09zm6.288.687c.042-.017.078-.053.078-.082 0-.066-.656-1.273-.69-1.271a.41.41 0 00-.114.068c-.082.063-.064.11.247.69.184.343.348.623.367.624.018 0 .07-.013.112-.03zm1.22-.972c.194-.147.387-.442.465-.716.026-.094.012-.111-.097-.111-.084 0-.126.026-.126.083 0 .146-.242.499-.414.605-.239.147-.453.134-.628-.042-.314-.313-.123-.83.376-1.02.234-.088.245-.104.174-.216-.075-.118-.438.023-.678.263-.346.347-.353.793-.018 1.127.172.173.21.19.46.19.234 0 .307-.025.486-.163zm-9.164-4.68c-.026 1.237.488 2.449 1.373 3.336a4.82 4.82 0 002.571 1.306c.421.065 1.32.028 1.752-.073 1.557-.361 2.85-1.547 3.362-3.08a4.646 4.646 0 00-1.195-4.782c-.855-.811-1.81-1.227-2.966-1.292-1.593-.088-3.17.68-4.046 1.968-.405.595-.792 1.575-.816 2.019m.103-.174l.022-.103 4.487.022c2.469.013 4.494.03 4.504.038.068.061.103.895.055 1.326-.042.381-.155.643-.155.643h-5.831l-3.024-.005-.08-.422a6.43 6.43 0 01-.032-1.05c.036-.301.042-.392.054-.449zm4.004 5.386c-.254-.037-.73-.09-.915-.244-.04-.023 1.407 0 1.407 0s1.467-.017 1.432 0c-.48.232-1.46.312-1.924.244zm-2.108-.802c-.614-.392-1.299-1.237-1.616-1.996a4.47 4.47 0 01-.175-.493l3.56.015-.06.146h-.311l-.104.154h.353l-.045.111h-.386l-.121.18h.432l-.054.134h-.47l-.16.232h.537l-.085.204h-.595l-.225.33h.683l-.11.28h-.767l-.275.409h.87l-.174.433h-.25a.757.757 0 01-.451-.141zm.994.139l.114-.433h2.939l.16.433h-1.61c-.883 0-1.604.018-1.604 0zm3.327-.433h.876l-.275-.41h-.767l-.116-.28h.684l-.218-.33h-.6l-.083-.203h.539l-.155-.232h-.479l-.054-.133h.439l-.121-.18h-.391l-.044-.112h.357l-.106-.154h-.315l-.06-.146 3.558-.005-.034.16c-.048.245-.353.858-.593 1.195-.259.361-.815.916-1.119 1.119-.18.119-.272.144-.507.144h-.237zm-2.936-.69s.643.004 1.213 0h1.192l.106.28h-2.627zm.222-.533h1.988l.076.204H109.9zm.085-.232l.046-.133h1.722l.048.133zm.115-.314l.044-.11h1.502l.04.11zm.098-.265l.055-.146h1.28l.056.146h-.695c-.232.001-.464.005-.696 0zm-2.986 2.888c.18-.093.247-.214.247-.438 0-.133-.068-.262-.296-.57-.163-.22-.312-.401-.33-.401-.041 0-1.14.829-1.175.885-.014.022.012.086.053.146l.074.107.224-.16.222-.16.229.266c.197.227.43.39.569.398a.686.686 0 00.183-.073zm-.503-.43c-.131-.142-.237-.282-.237-.31 0-.054.334-.301.364-.268.339.395.443.65.317.776-.106.106-.202.063-.444-.198zm4.331-3.116c.012-.035.033-.347.05-.693l.031-.63h-.301v.421c0 .23-.017.42-.037.42-.02-.002-.159-.19-.308-.42-.27-.418-.274-.42-.482-.42h-.21v1.334h.296v-.444c0-.246.016-.445.038-.445.02 0 .164.2.32.441.192.299.322.448.396.463.061.012.128.025.15.028.021.003.048-.021.057-.054zm1.708-.087v-.149h-.791v-.296h.371c.364 0 .372-.001.372-.123 0-.12-.008-.124-.372-.124h-.371v-.297h.396c.388 0 .395-.001.395-.123v-.124h-1.083l.001.653c0 .36.012.672.025.693.013.022.257.038.54.038h.516zm1.495-.05c.257-.283.134-.5-.358-.63-.254-.069-.322-.107-.322-.181 0-.138.227-.183.523-.107.242.064.245.064.245-.054 0-.158-.194-.227-.559-.202-.326.023-.492.142-.492.356 0 .189.134.308.424.374.411.093.428.1.428.2 0 .05-.043.116-.095.144-.122.064-.452.066-.621.001-.123-.046-.13-.042-.115.086.019.163.18.216.559.184.199-.016.274-.05.383-.17zm-5.696.026c0-.121-.008-.125-.366-.125-.545 0-.524.024-.524-.573v-.514h-.297v1.334h1.187zm.642-.544v-.668h-.247v1.334h.247zm-2.987-1.943c.22-.258.323-.477.331-.71.006-.163-.017-.223-.128-.32-.076-.064-.17-.117-.212-.117-.136 0-.356.146-.467.308-.305.445-.54.567-.54.282 0-.174.223-.525.444-.7.142-.11.146-.119.07-.23l-.082-.114-.22.215c-.277.27-.445.55-.488.818-.03.187-.018.223.118.357.255.258.373.2.902-.443.126-.153.2-.205.26-.181.186.071.053.42-.299.782-.195.202-.213.242-.164.335l.057.106.13-.103c.072-.056.201-.184.288-.285zm10.562-.074c.284-.103.335-.174.24-.329-.039-.058-.128-.04-.548.117-.277.102-.51.179-.519.168-.008-.008.136-.27.32-.581l.337-.566-.08-.164c-.043-.091-.093-.159-.11-.15-.286.119-1.282.67-1.282.707 0 .028.028.093.064.141.062.083.088.077.47-.114.221-.113.404-.19.404-.173a4.8 4.8 0 01-.255.48c-.28.488-.284.5-.193.717l.062.151.402-.151.688-.253zm-1.743-1.39c.104-.311.11-.318.313-.351.248-.041.358-.13.43-.348.044-.131.039-.194-.02-.312-.075-.14-.783-.797-.863-.797-.021 0-.247.247-.5.547l-.461.547.205.205.131-.155c.073-.085.158-.154.19-.154.031 0 .13.067.221.15l.163.15-.078.27c-.045.15-.065.3-.045.331.04.072.176.234.196.234.007 0 .06-.143.118-.317zm-.132-.834c-.142-.114-.258-.22-.258-.233 0-.014.065-.1.143-.191l.142-.167.247.19c.287.224.376.362.33.507-.056.181-.307.137-.604-.106zm-7.78.813c.423-.204.628-.776.404-1.132-.206-.325-.658-.458-.988-.287-.193.1-.428.38-.5.595-.115.353.12.806.475.913.172.053.381.022.61-.089zm-.57-.156c-.167-.066-.266-.249-.266-.486 0-.179.028-.243.165-.381.27-.268.564-.287.803-.048.253.254.09.731-.309.897-.183.076-.243.08-.394.018zm7.147-.996c0-.018-.143-.1-.32-.183-.33-.154-.358-.192-.27-.356.05-.093.061-.091.345.051.353.18.365.181.43.033.05-.107.034-.124-.263-.27-.174-.086-.316-.174-.316-.195 0-.022.034-.088.077-.148l.077-.11.338.172c.345.172.361.172.467-.014.027-.044-.11-.134-.474-.305l-.51-.242-.327.65-.328.652.476.253c.469.249.477.25.537.148a.613.613 0 00.061-.136zm-5.06.013c.236-.108.415-.317.415-.486 0-.066-.09-.351-.2-.633l-.2-.51-.288.099.093.23c.05.128.138.338.196.471.056.13.102.28.102.332 0 .24-.442.393-.603.207a4.661 4.661 0 01-.287-.458 28.006 28.006 0 00-.222-.384c-.025-.03-.272.107-.272.15 0 .027.115.236.254.466.36.597.582.71 1.011.516zm3.713-1.08c.155-.76.152-.802-.067-.803-.088 0-.113.045-.16.286l-.057.29-.259-.04a5.388 5.388 0 00-.346-.04c-.08-.002-.085-.037-.055-.327l.033-.325-.167.015-.17.016-.03.444a48.86 48.86 0 01-.062.73l-.028.285h.344v-.235c.001-.34.02-.355.385-.295.3.048.31.054.287.179-.095.479-.095.489.028.512l.144.03c.017.003.096-.322.18-.723zm-2.197.603c.061-.024.058-.095-.018-.508-.128-.681-.14-.638.202-.706.285-.054.295-.063.265-.187a2.012 2.012 0 00-.038-.14c-.002-.004-.356.059-.784.143l-.776.15.032.13a.957.957 0 00.04.143c.005.007.135-.012.291-.043.154-.032.29-.047.303-.034.014.012.073.26.133.55.113.543.141.58.35.502z"/><path d="M108.852-34.751c.172-.305.457-.607.767-.812.519-.344 1.018-.47 1.65-.418.335.026.513.07.769.192.484.232.925.627 1.157 1.038l.068.119h-4.48z" fill="#ff0"/><path d="M108.212-34.988c-.676-.401-.89-.538-.859-.542.017-.004.247.068.51.157.266.091.49.166.498.166.038 0-.012-.06-.362-.435a6.82 6.82 0 01-.376-.417c0-.023.027-.012.483.205.464.221.537.25.552.236.016-.017-.055-.126-.282-.428-.232-.307-.375-.512-.365-.52.004-.005.18.117.393.27.4.288.547.384.564.368a6.953 6.953 0 00-.246-.514 8.269 8.269 0 01-.245-.516c.005-.002.121.09.257.211.607.533.665.58.665.529a8.21 8.21 0 00-.2-.697c-.05-.157-.088-.3-.086-.316.004-.015.102.104.218.267.273.38.38.517.413.53.03.012.026-.033-.047-.675a11.252 11.252 0 01-.046-.444c0-.055.082.083.356.597.128.239.239.434.247.436a.933.933 0 00.013-.217c0-.12.007-.381.013-.582l.014-.363.147.421a9.6 9.6 0 00.178.48c.028.052.031.054.05.017.011-.021.048-.177.08-.346.088-.453.136-.663.156-.675.028-.018.068.148.153.638.086.488.093.523.108.507.005-.004.066-.19.137-.412.153-.48.216-.638.247-.607.014.013.023.2.03.536l.01.515.259-.448c.14-.245.268-.462.284-.482.024-.031.026-.03.026.028 0 .035-.033.267-.077.517-.084.5-.084.493-.059.493.008 0 .148-.168.306-.373.309-.395.407-.508.424-.491.014.015-.055.272-.186.681-.065.201-.118.37-.118.379 0 .053.101-.029.486-.389.237-.222.434-.4.438-.397.002.003-.117.25-.266.548-.15.299-.264.542-.253.542.01 0 .129-.074.265-.167.363-.245.746-.49.756-.48.005.006-.095.145-.22.31-.29.379-.414.551-.414.573 0 .021.141-.037.624-.257.232-.107.426-.19.43-.184a3.76 3.76 0 01-.314.344c-.436.45-.52.558-.445.558.014 0 .267-.062.562-.136.296-.075.55-.135.569-.135.053 0-.867.577-1.154.723-.103.051-.104.053-.136.015-.46-.572-.567-.68-.857-.875a2.694 2.694 0 00-.945-.398c-.227-.05-.847-.05-1.069 0a2.75 2.75 0 00-1.011.438 3.52 3.52 0 00-.703.729c-.074.11-.142.197-.154.195a5.9 5.9 0 01-.426-.242z" fill="#ff0"/><path d="M106.58-34.695c.375-1.073 1.055-1.968 1.865-2.55a4.153 4.153 0 011.608-.69 4.9 4.9 0 011.862.003c1.043.213 1.921.784 2.603 1.69a5.82 5.82 0 01.842 1.614c0 .003-.879.003-2.097 0-2.548-.008-2.177-.008-4.663 0l-2.052.006zm6.683.065c0-.007-.111-.196-.14-.24a2.811 2.811 0 00-1.064-.907 1.826 1.826 0 00-.69-.198c-.544-.056-.977.009-1.4.213a2.549 2.549 0 00-1.184 1.132zm-4.509-.256c.14-.197.242-.32.41-.487.24-.242.412-.37.666-.496a2.96 2.96 0 01.607-.222c.159-.038.304-.051.604-.051.306 0 .452.013.622.054.3.075.597.206.856.379.263.175.39.301.754.747.106.131.126.15.142.15.058 0 .705-.378 1.105-.647.129-.088.154-.108.147-.113-.005-.007-.143.025-.472.108a11.83 11.83 0 01-.659.156c-.028 0-.026-.015 0-.058.04-.063.13-.164.417-.46.216-.228.34-.364.34-.376 0-.013-.07.017-.521.22-.416.188-.517.23-.526.216-.007-.008.095-.15.339-.476.233-.31.295-.398.29-.402-.01-.012-.226.122-.67.417-.305.203-.345.227-.345.216 0-.015.076-.18.237-.503.21-.429.277-.57.274-.573-.005-.005-.102.081-.423.38-.411.38-.51.459-.494.396 0-.01.048-.161.103-.335.157-.506.212-.703.195-.72-.016-.015-.11.095-.404.466-.197.252-.314.392-.327.395-.016.005-.007-.075.044-.366.077-.461.102-.639.095-.672-.005-.018-.005-.018-.018-.008-.018.017-.18.293-.476.809l-.076.133v-.097c0-.313-.02-.887-.033-.935-.008-.033-.025-.028-.048.012-.04.07-.09.21-.26.737a1.532 1.532 0 01-.09.248c-.008-.01-.03-.11-.088-.442-.098-.547-.132-.7-.162-.7-.005 0-.012.008-.017.018a6.136 6.136 0 00-.118.523c-.086.422-.106.503-.125.503-.017 0-.072-.14-.237-.611l-.108-.304-.01-.023-.004.037c-.005.05-.019.457-.025.815-.004.161-.006.294-.01.297-.001.001-.007 0-.01-.003a7.7 7.7 0 01-.252-.449c-.229-.426-.297-.545-.328-.574l-.015-.013v.038c0 .02.023.242.051.494.057.506.063.582.052.597-.015.022-.107-.091-.348-.423a5.006 5.006 0 00-.264-.344c-.02-.022-.027-.025-.028-.017-.002.017.036.164.103.381.137.446.187.627.175.639-.015.014-.086-.044-.504-.408-.303-.266-.406-.35-.41-.34-.003.01.055.134.235.497.192.39.253.52.247.526-.014.012-.158-.083-.524-.343-.323-.233-.413-.292-.423-.289-.012.004.11.18.313.456.202.272.267.36.304.42.025.039.033.07.018.07-.027 0-.166-.06-.61-.271-.357-.169-.414-.192-.414-.169 0 .01.136.162.396.443.235.251.292.313.323.356.028.036.031.045.013.045-.006 0-.199-.062-.428-.14-.41-.137-.568-.185-.575-.179-.008.009.019.03.121.098.161.106.834.51 1.061.636l.103.057.03-.033c.018-.018.056-.068.086-.111z"/></g></svg>