<?xml version="1.0" encoding="UTF-8" standalone="no"?>
<svg
   xmlns:dc="http://purl.org/dc/elements/1.1/"
   xmlns:cc="http://creativecommons.org/ns#"
   xmlns:rdf="http://www.w3.org/1999/02/22-rdf-syntax-ns#"
   xmlns:svg="http://www.w3.org/2000/svg"
   xmlns="http://www.w3.org/2000/svg"
   xmlns:sodipodi="http://sodipodi.sourceforge.net/DTD/sodipodi-0.dtd"
   xmlns:inkscape="http://www.inkscape.org/namespaces/inkscape"
   width="17.409584mm"
   height="17.409584mm"
   viewBox="0 0 17.409584 17.409584"
   version="1.1"
   id="svg1870"
   inkscape:version="1.0.1 (3bc2e813f5, 2020-09-07)"
   sodipodi:docname="SSW.svg">
  <defs
     id="defs1864" />
  <filter id="grayscale">
    <feColorMatrix type="saturate" values="0.10"/>
  </filter>
  <sodipodi:namedview
     id="base"
     pagecolor="#ffffff"
     bordercolor="#666666"
     borderopacity="1.0"
     inkscape:pageopacity="0.0"
     inkscape:pageshadow="2"
     inkscape:zoom="2.1760267"
     inkscape:cx="30.702679"
     inkscape:cy="137.18026"
     inkscape:document-units="mm"
     inkscape:current-layer="layer1"
     inkscape:document-rotation="0"
     showgrid="false"
     fit-margin-top="0"
     fit-margin-left="0"
     fit-margin-right="0"
     fit-margin-bottom="0"
     inkscape:window-width="1920"
     inkscape:window-height="1054"
     inkscape:window-x="0"
     inkscape:window-y="26"
     inkscape:window-maximized="1" />
  <metadata
     id="metadata1867">
    <rdf:RDF>
      <cc:Work
         rdf:about="">
        <dc:format>image/svg+xml</dc:format>
        <dc:type
           rdf:resource="http://purl.org/dc/dcmitype/StillImage" />
        <dc:title />
      </cc:Work>
    </rdf:RDF>
  </metadata>
  <g
     inkscape:label="Layer 1"
     inkscape:groupmode="layer"
     id="layer1"
     filter="url(#grayscale)"
     transform="translate(-102.28184,42.237323)">
    <circle
       class="st1"
       cx="110.98663"
       cy="-33.532532"
       id="circle3408"
       style="fill:#ffffff;stroke:#ffffff;stroke-width:0.264583;stroke-miterlimit:10"
       r="8.5725002" />
    <path
       d="m 110.63398,-27.337641 c -0.0435,-0.0086 -0.17444,-0.02387 -0.28908,-0.03954 -1.11931,-0.146566 -2.57537,-0.756696 -3.2707,-1.370868 -0.30735,-0.271337 -0.85406,-0.854066 -1.07214,-1.141117 -0.15621,-0.208443 -0.31698,-0.481808 -0.29517,-0.503617 0.009,-0.0072 0.0912,0.0044 0.18258,0.0279 0.10097,0.02588 0.27895,0.04155 0.44732,0.04155 0.27742,0 0.27945,0 0.51528,-0.118607 0.39051,-0.196266 0.57867,-0.473687 0.54875,-0.816533 -0.0376,-0.439713 -0.22975,-1.025992 -0.5229,-1.600613 -0.12679,-0.245462 -0.35449,-0.535058 -0.47369,-0.59794 -0.0554,-0.02991 -0.29922,0.02947 -0.4042,0.09891 -0.13241,0.08526 -0.1704,0.433632 -0.0615,0.552812 0.0675,0.07102 0.24394,0.164321 0.31697,0.166348 0.11117,0 0.27743,-0.229748 0.2399,-0.334724 -0.005,-0.01825 -0.0675,-0.04011 -0.13485,-0.04973 -0.0669,-0.01006 -0.16027,-0.0335 -0.20996,-0.05176 -0.077,-0.03148 -0.0833,-0.04155 -0.0554,-0.09085 0.0376,-0.07146 0.1983,-0.13902 0.27945,-0.119178 0.0356,0.0086 0.10697,0.05579 0.16028,0.10293 0.0953,0.08927 0.0953,0.09129 0.10485,0.335227 0.0102,0.229747 0.005,0.257133 -0.0635,0.392041 -0.10695,0.207938 -0.23987,0.273366 -0.50309,0.251555 -0.60048,-0.05118 -0.94485,-0.328642 -1.08381,-0.869794 -0.0238,-0.09689 -0.0334,-0.398123 -0.0315,-1.130968 0.005,-1.149244 0.0531,-3.203761 0.079,-3.227093 0.0102,-0.0086 0.13844,-0.04772 0.28705,-0.08526 0.55687,-0.143044 1.02854,-0.370735 1.77509,-0.854068 0.21604,-0.140457 0.56092,-0.366682 0.76683,-0.499058 0.64613,-0.419933 1.062,-0.614171 1.66198,-0.770886 0.5391,-0.140457 0.90731,-0.192212 1.36935,-0.192212 0.82413,0 1.41447,0.154688 2.84264,0.74705 0.37834,0.156213 0.7511,0.306834 0.83023,0.334723 0.079,0.02991 0.23583,0.08324 0.3464,0.122772 0.11315,0.03954 0.20437,0.08108 0.20437,0.0933 0,0.01153 -0.14453,0.174456 -0.32306,0.360586 -0.54063,0.568538 -0.60606,0.669462 -0.64764,1.006212 -0.0579,0.447835 0.11254,0.996579 0.4316,1.402826 0.17649,0.225678 0.27741,0.269296 0.63193,0.269296 0.23379,0.0013 0.32103,-0.01006 0.46355,-0.05937 0.20641,-0.07145 0.42397,-0.216061 0.63039,-0.41638 0.13845,-0.136431 0.14861,-0.140456 0.18817,-0.09689 0.0633,0.06944 0.19425,0.376313 0.31089,0.723213 0.18004,0.538608 0.28706,1.196397 0.28706,1.75529 v 0.289094 l -0.13645,0.05176 c -0.077,0.02732 -0.17852,0.05938 -0.22567,0.06901 -0.11713,0.02588 -0.15671,0.09934 -0.1765,0.316967 -0.0238,0.253583 -0.15874,0.963112 -0.22368,1.171051 -0.0835,0.263719 -0.18459,0.689227 -0.18459,0.772411 0,0.05779 0.0416,0.119177 0.1704,0.252059 l 0.17042,0.17598 -0.12479,0.227721 c -0.20186,0.376815 -0.43007,0.671991 -0.80032,1.040197 -0.64206,0.635978 -1.29579,1.10561 -1.96727,1.410416 -0.80642,0.366683 -1.27806,0.467605 -2.2645,0.477754 -0.3408,0.0058 -0.65374,0.0044 -0.69733,-0.0013 z m -1.84812,-1.499694 c 0.17601,-0.08108 0.33069,-0.156716 0.34439,-0.168374 0.0238,-0.02387 -0.0198,-0.499563 -0.0751,-0.826179 -0.0356,-0.196265 -0.0179,-0.358559 0.0376,-0.358559 0.0102,0 0.0654,0.102941 0.11861,0.229746 0.2338,0.535058 0.27742,0.612145 0.45796,0.794219 0.36617,0.372764 0.88754,0.483835 1.3866,0.297203 0.18816,-0.069 0.17648,-0.100932 -0.0512,-0.122772 -0.37278,-0.0335 -0.69736,-0.170402 -0.88552,-0.376314 -0.19222,-0.207938 -0.33321,-0.582226 -0.35704,-0.954988 l -0.0112,-0.19779 0.13284,-0.103512 c 0.0888,-0.069 0.15623,-0.150116 0.20389,-0.247488 l 0.0714,-0.14658 0.0176,0.104938 c 0.0102,0.05737 0.0295,0.22417 0.0455,0.370737 0.0491,0.457467 0.19019,0.719159 0.43973,0.814 0.10906,0.04155 0.1288,0.04155 0.29311,0.0013 0.25156,-0.06341 0.38848,-0.150619 0.48132,-0.31494 0.12881,-0.222143 0.18258,-0.437687 0.21401,-0.863701 l 0.0299,-0.392545 -0.0737,-0.110552 c -0.20387,-0.309364 -0.39406,-0.467604 -0.5665,-0.467604 -0.12881,0 -0.31495,0.07505 -0.41384,0.168376 -0.0497,0.04557 -0.13685,0.156213 -0.19829,0.247504 -0.14455,0.218072 -0.20034,0.221623 -0.27946,0.01153 -0.075,-0.201843 -0.22772,-0.402177 -0.35653,-0.467101 -0.0932,-0.04557 -0.15469,-0.05176 -0.51326,-0.04973 -0.35452,0.0013 -0.42754,0.01153 -0.5604,0.06139 -0.30735,0.118607 -0.37074,0.229745 -0.32916,0.570552 0.0176,0.150635 0.0497,1.909976 0.0477,2.609356 0,0.01768 0.005,0.0335 0.0144,0.0335 0.009,0 0.15875,-0.06743 0.33524,-0.146582 z m 6.30558,-1.184738 c 0.0558,-0.124787 0.0376,-0.237856 -0.0512,-0.310886 -0.0435,-0.03809 -0.10148,-0.06944 -0.1268,-0.06944 -0.0694,0 -0.18664,-0.100922 -0.18664,-0.160265 0,-0.08526 0.0497,-0.15469 0.11316,-0.15469 0.0934,-0.0013 0.12882,-0.03954 0.15064,-0.16077 0.0259,-0.140456 0.0197,-0.152144 -0.10695,-0.241406 -0.12071,-0.08324 -0.18207,-0.188159 -0.13686,-0.233804 0.0144,-0.01566 0.10696,-0.0335 0.20237,-0.04155 l 0.17444,-0.01438 -0.0162,-0.269815 -0.23532,-0.08526 c -0.13082,-0.04513 -0.29923,-0.09071 -0.37277,-0.100922 l -0.13644,-0.01768 -0.0198,0.102929 c -0.0299,0.144539 -0.022,1.428171 0.005,1.521488 0.0238,0.07361 0.0536,0.08927 0.3408,0.190184 0.17243,0.05938 0.32712,0.111134 0.34284,0.111134 0.0156,0.0013 0.0416,-0.02789 0.0592,-0.06541 z m -2.47444,-0.130824 c 0.11712,-0.03551 0.14455,-0.05535 0.17851,-0.132837 0.0912,-0.217572 0.14045,-0.590335 0.1841,-1.340948 0.0198,-0.376316 0.005,-0.408259 -0.19626,-0.406233 -0.18207,0 -0.23534,0.02185 -0.25358,0.100922 -0.007,0.03809 -0.0315,0.305309 -0.0531,0.596429 -0.0218,0.289079 -0.0477,0.570553 -0.0554,0.625844 -0.0278,0.182578 -0.13486,0.15062 -0.19627,-0.05937 -0.0156,-0.05118 -0.0376,-0.328642 -0.0497,-0.616197 -0.0156,-0.398122 -0.0294,-0.528976 -0.0574,-0.546731 -0.032,-0.01984 -0.30886,-0.0058 -0.33673,0.01984 -0.0279,0.02387 0.0512,1.299863 0.0912,1.444402 0.077,0.297202 0.19374,0.394069 0.4453,0.370234 0.0872,-0.0072 0.22213,-0.03148 0.29922,-0.05535 z m 1.1751,-0.100922 c 0.007,-0.04557 0.0254,-0.316968 0.0395,-0.604537 0.0156,-0.316464 0.0376,-0.538608 0.0554,-0.560417 0.0157,-0.01984 0.0756,-0.04772 0.12882,-0.0614 0.14247,-0.03954 0.16836,-0.08122 0.15061,-0.253583 -0.009,-0.08122 -0.022,-0.154689 -0.032,-0.162294 -0.0274,-0.02991 -0.3961,-0.08526 -0.67149,-0.101491 -0.34438,-0.02186 -0.36466,-0.0072 -0.31903,0.21809 0.0339,0.166347 0.0675,0.220101 0.13904,0.220101 0.0813,0 0.10097,0.100922 0.1288,0.653734 0.0275,0.572594 0.0376,0.643598 0.0929,0.689243 0.0457,0.03751 0.19627,0.07361 0.24193,0.05737 0.0177,-0.0058 0.0376,-0.04917 0.0457,-0.09488 z m -2.54799,-2.226946 c 0.35297,-0.02947 0.51527,-0.09086 0.66388,-0.251556 0.14245,-0.152663 0.18815,-0.275393 0.2059,-0.528977 0.0198,-0.312914 -0.005,-0.431591 -0.1268,-0.594388 -0.14658,-0.193749 -0.15064,-0.229746 -0.0497,-0.445808 0.0974,-0.211995 0.12882,-0.459482 0.0796,-0.610117 -0.0415,-0.124787 -0.21401,-0.271325 -0.38036,-0.32052 -0.28148,-0.08367 -0.61825,-0.03809 -1.26791,0.171927 -0.21201,0.06743 -0.30127,0.0598 -0.35299,-0.03954 -0.0691,-0.1268 -0.19374,-0.05938 -0.18005,0.09733 0.009,0.08324 0.0156,0.08669 0.13284,0.100921 0.15823,0.01768 0.18411,0.04357 0.20794,0.216047 0.0294,0.207939 0.0259,1.632056 -0.005,1.899843 -0.0176,0.160252 -0.0176,0.243435 0,0.261188 0.0635,0.06341 0.57868,0.08526 1.07163,0.04357 z m 3.2352,-0.273365 c 0.002,-0.0013 0.0102,-0.112572 0.0176,-0.247503 0.0164,-0.239883 0.0144,-0.243938 -0.0415,-0.231774 -0.0315,0.0058 -0.10696,0.01767 -0.16635,0.02588 l -0.10696,0.01566 -0.0176,-0.742996 c -0.009,-0.408258 -0.0259,-0.748573 -0.0356,-0.758709 -0.0112,-0.01006 -0.12881,-0.02387 -0.2617,-0.03148 l -0.23988,-0.01153 -0.0156,0.13485 c -0.0102,0.07304 -0.0156,0.509178 -0.0156,0.968676 0,0.796246 0.002,0.835809 0.0518,0.86978 0.0395,0.02732 0.13846,0.0335 0.43973,0.02387 0.214,-0.0058 0.39002,-0.01153 0.39202,-0.01437 z m 0.92303,-0.542662 c 0.0163,-0.297202 0.032,-0.606063 0.032,-0.689243 0.005,-0.147069 0.005,-0.152648 0.11513,-0.224171 0.11056,-0.07505 0.11056,-0.07706 0.11861,-0.255611 0.005,-0.0969 -0.005,-0.194238 -0.0177,-0.211992 -0.036,-0.04155 -0.62989,-0.07102 -0.87791,-0.04357 -0.22567,0.02387 -0.2632,0.05938 -0.27742,0.26576 -0.0112,0.170403 0.0164,0.237857 0.10349,0.237857 0.0254,0 0.0888,0.0355 0.14047,0.08123 l 0.0929,0.08108 v 0.544703 c 0,0.608088 0.0112,0.730819 0.0756,0.749077 0.0238,0.0058 0.13844,0.01006 0.25359,0.0072 l 0.20996,-0.0044 z m -2.17724,0.501071 c 0.0579,-0.03148 0.0934,-0.253583 0.0558,-0.354505 -0.0259,-0.06341 -0.0376,-0.06743 -0.18817,-0.06743 -0.14103,0 -0.16837,-0.01006 -0.23582,-0.07705 -0.137,-0.137008 -0.10097,-0.184103 0.18006,-0.239898 l 0.1648,-0.0335 -0.009,-0.200333 -0.005,-0.199816 -0.16836,-0.01768 c -0.19223,-0.02185 -0.2394,-0.05176 -0.2394,-0.152646 0,-0.09129 0.0334,-0.104949 0.26323,-0.104949 0.21199,0 0.21807,-0.0086 0.20388,-0.291624 l -0.007,-0.1699 -0.13082,-0.01437 c -0.0731,-0.0058 -0.29314,-0.0072 -0.4894,-0.0044 l -0.35655,0.0086 0.002,0.959042 0.002,0.956514 0.10497,0.01006 c 0.23176,0.02186 0.80841,0.01767 0.85355,-0.0058 z m -5.21214,-0.936732 c 0.33118,-0.06743 0.58071,-0.170402 0.58071,-0.239882 0,-0.01984 -0.002,-0.03551 -0.005,-0.03551 -0.005,0 -0.0714,0.01768 -0.15064,0.03954 -0.19424,0.05118 -0.6872,0.05118 -0.85762,0 -0.0714,-0.02186 -0.18664,-0.08123 -0.25358,-0.130825 -0.14303,-0.104938 -0.4955,-0.51933 -0.57461,-0.671489 -0.0892,-0.176483 -0.15875,-0.521356 -0.17448,-0.856079 -0.0143,-0.299229 -0.0101,-0.328643 0.0654,-0.566513 0.15268,-0.479264 0.22367,-0.584253 0.61623,-0.889562 0.36819,-0.287053 0.42397,-0.350451 0.71103,-0.833782 0.28757,-0.485345 0.31699,-0.539113 0.30125,-0.554826 -0.005,-0.0058 -0.0934,0.03752 -0.19221,0.09891 -0.10097,0.05938 -0.35247,0.192211 -0.56245,0.291106 -0.20996,0.101491 -0.47573,0.237857 -0.59033,0.30531 -0.3606,0.214034 -0.71915,0.671488 -0.8916,1.137064 -0.17852,0.477252 -0.18815,0.528978 -0.18815,0.998607 -0.002,0.387988 0.005,0.455443 0.0592,0.618239 0.15467,0.459482 0.46558,0.895141 0.80232,1.124889 0.16028,0.109127 0.34488,0.200333 0.47926,0.235829 0.12283,0.03193 0.46965,0.0044 0.82619,-0.07102 z m 0.10097,-1.177132 c 0.33677,-0.156198 0.58882,-0.629896 0.59034,-1.111186 0.002,-0.453917 -0.15419,-0.87385 -0.38596,-1.034117 -0.12679,-0.08727 -0.13901,-0.08927 -0.3332,-0.07907 -0.35248,0.01984 -0.58629,0.18005 -0.75871,0.520853 -0.16636,0.326615 -0.22164,0.71308 -0.15013,1.057953 0.077,0.364655 0.18209,0.520853 0.43972,0.635978 0.2277,0.100911 0.39407,0.104937 0.59794,0.01006 z m 1.37136,-0.481289 0.11452,-0.04572 -0.0218,-0.621791 c -0.0315,-0.886011 -0.0356,-0.824136 0.0635,-0.91948 0.0852,-0.07907 0.0873,-0.08324 0.079,-0.285037 l -0.007,-0.206416 -0.28959,0.0044 c -0.23939,0.0013 -0.32256,0.01437 -0.48738,0.07146 -0.10857,0.03751 -0.21151,0.08927 -0.22974,0.11458 -0.0198,0.02588 -0.0334,0.123205 -0.0334,0.233801 v 0.190185 l 0.12479,0.02185 c 0.19221,0.03609 0.20033,0.06139 0.2201,0.83834 0.0112,0.36211 0.0198,0.663366 0.0218,0.669461 0.005,0.02588 0.34436,-0.02387 0.44579,-0.06541 z m 1.19032,-0.325091 c 0.0536,-0.06341 0.0737,-0.306833 0.0777,-0.889563 0,-0.233297 0.0112,-0.459496 0.0233,-0.501087 0.0112,-0.04155 0.0598,-0.112572 0.10695,-0.160265 0.0811,-0.08108 0.0852,-0.09533 0.0714,-0.220102 -0.0279,-0.225693 -0.0554,-0.235829 -0.5249,-0.166349 -0.424,0.06341 -0.41031,0.05737 -0.43972,0.166349 -0.0164,0.05377 -0.0279,0.15062 -0.0279,0.218074 0,0.102941 0.0102,0.124786 0.0654,0.150636 0.12882,0.05737 0.13845,0.106958 0.17041,0.83174 0.0156,0.374805 0.0356,0.689747 0.0417,0.701406 0.0218,0.03394 0.39202,-0.07505 0.43563,-0.130824 z m 1.21872,-0.106957 c 0.13644,-0.03148 0.31292,-0.207939 0.41181,-0.407754 0.1841,-0.374792 0.14046,-0.883482 -0.11514,-1.341455 -0.11055,-0.199814 -0.20387,-0.251556 -0.45138,-0.251556 -0.33116,0 -0.53303,0.16077 -0.64815,0.520868 -0.0432,0.139019 -0.0552,0.243938 -0.0552,0.49144 -0.002,0.29516 0.005,0.331173 0.0833,0.526934 0.14657,0.366683 0.27742,0.487385 0.52695,0.485359 0.0811,0 0.19222,-0.01006 0.24801,-0.02387 z m 1.05185,-0.05737 c 0.0852,-0.03751 0.10087,-0.112559 0.0833,-0.374287 -0.0197,-0.25561 0.0102,-0.329159 0.091,-0.233801 0.0279,0.0335 0.0694,0.128811 0.0934,0.209966 0.0654,0.225679 0.15875,0.392027 0.22976,0.412326 0.032,0.0072 0.0994,0.01566 0.14656,0.01566 0.0675,0 0.0912,-0.01438 0.11117,-0.06743 0.0356,-0.0933 0.0336,-1.658421 -0.002,-1.723345 -0.0552,-0.10552 -0.25762,-0.162797 -0.36463,-0.10552 -0.0376,0.02027 -0.0512,0.07361 -0.0654,0.267786 -0.0197,0.255612 -0.0293,0.297203 -0.071,0.271339 -0.0455,-0.0279 -0.15469,-0.271339 -0.1841,-0.408272 -0.0259,-0.116588 -0.0421,-0.138443 -0.11712,-0.17243 -0.0989,-0.03954 -0.24343,-0.04714 -0.2972,-0.01437 -0.0512,0.03394 -0.077,0.164322 -0.0512,0.267284 0.0144,0.04974 0.0334,0.436149 0.0432,0.858122 0.0112,0.421959 0.0299,0.778491 0.0401,0.796246 0.024,0.03752 0.23179,0.03954 0.31496,0 z"
       style="fill:#2b4a84;fill-opacity:1;fill-rule:nonzero;stroke:none;stroke-width:0.507163"
       id="path928" />
    <path
       d="m 110.76482,-26.664141 c -0.95701,-0.06341 -1.79281,-0.293134 -2.82893,-0.780519 -0.49958,-0.237855 -0.73692,-0.406245 -1.49564,-1.069612 -0.52897,-0.459999 -1.26234,-1.357166 -1.49005,-1.822742 -0.079,-0.158742 -0.14657,-0.310887 -0.15064,-0.336765 -0.0102,-0.05377 0.079,-0.111134 0.33271,-0.211994 0.0872,-0.03393 0.25004,-0.100922 0.36061,-0.148591 l 0.20437,-0.08727 0.17599,0.08927 c 0.13484,0.06901 0.21604,0.09086 0.355,0.0989 0.21758,0.01437 0.41994,-0.04772 0.49907,-0.148593 0.0694,-0.08727 0.0574,-0.251556 -0.0315,-0.435659 -0.0694,-0.143045 -0.0279,-0.134851 -0.47775,-0.07146 -0.52897,0.07706 -1.22632,-0.160267 -1.50576,-0.5168 -0.18004,-0.23025 -0.24952,-0.378858 -0.30278,-0.661857 -0.0974,-0.497519 -0.13486,-0.913397 -0.15469,-1.70001 -0.0198,-0.778492 0.005,-3.795618 0.0334,-3.823507 0.005,-0.0058 0.18816,0 0.40218,0.01768 0.28148,0.02185 0.46355,0.02185 0.65374,0.0044 0.47369,-0.05118 0.64411,-0.122772 1.25625,-0.531004 0.21402,-0.144539 0.48941,-0.320519 0.61215,-0.394069 0.12283,-0.07146 0.37074,-0.229732 0.54875,-0.350437 0.64764,-0.436162 1.18066,-0.648169 1.97135,-0.786613 0.46962,-0.08324 0.49701,-0.08526 1.28362,-0.08526 0.80232,0.0013 0.80232,0.0013 1.1964,0.08526 0.5452,0.116587 0.73894,0.184089 1.32979,0.467604 0.62178,0.297201 0.97427,0.435644 1.38658,0.542663 0.2972,0.07706 0.32864,0.08108 0.72525,0.06944 0.22771,-0.0058 0.41384,0 0.41384,0.01006 0,0.01153 -0.0415,0.190183 -0.0934,0.398123 -0.0615,0.245979 -0.12282,0.424 -0.17802,0.517315 -0.0478,0.08108 -0.25561,0.314942 -0.48129,0.540637 -0.21809,0.218074 -0.43211,0.455943 -0.47371,0.528975 -0.0714,0.123206 -0.0751,0.148594 -0.0751,0.434121 0,0.27742 0.005,0.314957 0.0731,0.453415 0.10098,0.204388 0.19426,0.265746 0.41588,0.279447 0.0974,0.0044 0.21809,-0.0044 0.2678,-0.01984 0.21959,-0.07346 0.48129,-0.396095 0.66945,-0.826177 0.0635,-0.148592 0.1288,-0.281472 0.14246,-0.29516 0.0361,-0.0355 0.37075,0.31697 0.52492,0.552797 0.15265,0.229749 0.39053,0.697353 0.49955,0.972745 0.31495,0.806394 0.48334,2.65247 0.27133,2.977563 -0.0435,0.06541 -0.13843,0.102929 -0.33067,0.128812 -0.11922,0.01566 -0.12478,0.01984 -0.16279,0.140455 -0.0471,0.143045 -0.26526,1.022443 -0.29111,1.16901 -0.0219,0.128812 0.0356,0.237855 0.16839,0.323064 0.21603,0.134418 0.21603,0.259162 -0.002,0.685176 -0.30481,0.5944 -0.56447,0.986946 -0.90732,1.359206 -0.50311,0.548744 -1.39469,1.276013 -1.8405,1.501707 -0.4458,0.225693 -1.21821,0.51122 -1.77507,0.657787 -0.39812,0.10293 -0.42196,0.104949 -0.90935,0.112572 -0.27538,0.0044 -0.64155,-0.0013 -0.81602,-0.01439 z m 1.42059,-0.475209 c 0.76834,-0.130826 1.63407,-0.455945 2.19094,-0.820585 0.27134,-0.175994 0.93521,-0.715106 1.23647,-1.004184 0.1344,-0.126801 0.30479,-0.312929 0.37834,-0.412328 0.13242,-0.180048 0.6654,-1.085338 0.69734,-1.188288 0.0144,-0.04155 -0.0182,-0.08927 -0.14302,-0.216047 -0.0928,-0.0933 -0.16026,-0.184102 -0.16026,-0.216062 0,-0.0552 0.2201,-1.267903 0.31291,-1.717752 0.0279,-0.134419 0.0614,-0.257135 0.0756,-0.271338 0.0156,-0.01566 0.10857,-0.04356 0.20793,-0.06341 0.0989,-0.01984 0.20795,-0.04916 0.24346,-0.06541 l 0.0614,-0.02732 -0.0156,-0.545191 c -0.0156,-0.584254 -0.0592,-0.931154 -0.16229,-1.307468 -0.1212,-0.445795 -0.42601,-1.178655 -0.55887,-1.347031 l -0.0457,-0.05737 -0.36617,0.271323 c -0.41234,0.308862 -0.6441,0.428055 -0.87384,0.451374 -0.23788,0.02387 -0.35249,-0.01769 -0.50312,-0.186131 -0.2693,-0.300737 -0.42599,-0.651692 -0.44782,-1.004185 -0.0279,-0.406231 0.11117,-0.679596 0.5726,-1.129445 0.1186,-0.11458 0.29719,-0.289093 0.39608,-0.384437 0.18816,-0.184103 0.24192,-0.289079 0.17853,-0.354505 -0.0218,-0.01984 -0.17446,-0.06541 -0.34283,-0.100922 -0.45544,-0.09691 -0.82819,-0.225693 -1.61481,-0.560417 -1.3014,-0.552812 -1.57272,-0.620266 -2.48614,-0.622292 -0.64966,0 -0.97273,0.0335 -1.60872,0.168374 -0.59034,0.124788 -0.91896,0.287053 -1.89781,0.941304 -0.78051,0.520854 -1.34144,0.875359 -1.53518,0.974254 -0.25967,0.12881 -0.49144,0.18462 -0.85203,0.200333 -0.17853,0.0086 -0.3327,0.02185 -0.34082,0.02947 -0.0279,0.0279 -0.0356,3.116524 -0.0102,4.065432 0.0253,0.992526 0.0253,0.988456 0.2414,1.25827 0.18208,0.225695 0.61621,0.402178 1.00469,0.403703 0.17396,0.0013 0.19019,-0.0028 0.424,-0.142469 0.25358,-0.148594 0.40167,-0.229748 0.42753,-0.229748 0.009,0 0.0144,0.01768 0.0144,0.04155 0,0.02186 0.0452,0.148594 0.10299,0.283502 0.20389,0.48333 0.24751,0.792191 0.13845,1.006211 -0.0574,0.11515 -0.21401,0.269311 -0.40217,0.398138 l -0.12072,0.08324 -0.35451,-0.02387 c -0.19425,-0.01439 -0.40421,-0.04155 -0.46761,-0.06341 -0.20995,-0.07505 -0.42398,-0.03148 -0.42398,0.08526 0,0.206415 0.58222,1.042224 0.99659,1.432743 0.22974,0.215542 0.81399,0.697351 1.11728,0.92303 0.43362,0.31901 1.11727,0.627871 1.92772,0.871822 0.25918,0.07705 0.71915,0.173954 1.13098,0.235827 0.0435,0.0072 0.36871,0.0072 0.72118,0 0.46558,-0.0086 0.72525,-0.02588 0.93521,-0.06182 z"
       style="fill:#2b4a84;fill-opacity:1;fill-rule:nonzero;stroke:none;stroke-width:0.507163"
       id="path930" />
    <path
       d="m 107.79691,-35.507552 c -0.10087,-0.08166 -0.15824,-0.248007 -0.15824,-0.475728 0.002,-0.426011 0.22163,-0.627869 0.44377,-0.40623 0.0614,0.05938 0.0654,0.08108 0.0654,0.374791 0,0.289079 -0.005,0.318507 -0.0654,0.398122 -0.0694,0.09691 -0.14453,0.15824 -0.18815,0.160268 -0.0156,0 -0.0592,-0.02186 -0.0974,-0.05118 z"
       style="fill:#2b4a84;fill-opacity:1;fill-rule:nonzero;stroke:none;stroke-width:0.507163"
       id="path932" />
    <path
       d="m 111.56108,-36.397115 c -0.12071,-0.130826 -0.16229,-0.432108 -0.0852,-0.594403 0.0477,-0.09934 0.18816,-0.200334 0.27945,-0.200334 0.12072,0 0.15874,0.05377 0.17445,0.241925 0.0112,0.148594 0.005,0.194239 -0.0574,0.326615 -0.11712,0.255611 -0.2181,0.329145 -0.31141,0.226197 z"
       style="fill:#2b4a84;fill-opacity:1;fill-rule:nonzero;stroke:none;stroke-width:0.507163"
       id="path934" />
    <path
       d="m 110.9033,-34.234071 c -0.0112,-0.01153 -0.0198,-0.110551 -0.0198,-0.221625 v -0.200334 l 0.17446,-0.0335 c 0.15672,-0.02789 0.18057,-0.02588 0.22365,0.01437 0.0654,0.05938 0.0635,0.140456 -0.0102,0.247502 -0.0852,0.126799 -0.31493,0.248006 -0.36872,0.194238 z"
       style="fill:#2b4a84;fill-opacity:1;fill-rule:nonzero;stroke:none;stroke-width:0.507163"
       id="path936" />
    <path
       d="m 110.89366,-33.156336 c 0.0102,-0.06743 0.0156,-0.194253 0.0156,-0.282998 v -0.162811 l 0.16229,-0.05937 c 0.14861,-0.05118 0.16838,-0.0532 0.22417,-0.01768 0.0334,0.02186 0.0731,0.06541 0.0912,0.0969 0.0416,0.07764 0.0395,0.311406 -0.002,0.392546 -0.0737,0.142469 -0.10348,0.156212 -0.31141,0.156212 h -0.19575 z"
       style="fill:#2b4a84;fill-opacity:1;fill-rule:nonzero;stroke:none;stroke-width:0.507163"
       id="path938" />
    <path
       d="m 110.76482,-30.432358 c -0.0573,-0.126799 -0.0654,-0.526948 -0.0144,-0.625843 0.0731,-0.136864 0.31493,-0.207939 0.36818,-0.109114 0.0416,0.07705 0.0356,0.566498 -0.007,0.669461 -0.0457,0.106958 -0.13485,0.174456 -0.23026,0.174456 -0.0551,0 -0.079,-0.02186 -0.11662,-0.108965 z"
       style="fill:#2b4a84;fill-opacity:1;fill-rule:nonzero;stroke:none;stroke-width:0.507163"
       id="path940" />
    <path
       d="m 109.16218,-30.838101 c -0.009,-0.02387 -0.0156,-0.164825 -0.0156,-0.315443 v -0.27489 h 0.0866 c 0.11712,0.0013 0.29924,0.0887 0.32103,0.156213 0.0613,0.194238 -0.32103,0.618224 -0.39203,0.43412 z"
       style="fill:#2b4a84;fill-opacity:1;fill-rule:nonzero;stroke:none;stroke-width:0.507163"
       id="path942" />
  </g>
</svg>
