<svg xmlns="http://www.w3.org/2000/svg" width="65.8" height="65.8" viewBox="0 0 17.41 17.41"><filter id="a"><feColorMatrix type="saturate" values=".1"/></filter><g filter="url(#a)" transform="translate(-102.282 42.237)"><circle class="st1" cx="110.987" cy="-33.533" r="8.573" fill="#fff" stroke="#fff" stroke-width=".265" stroke-miterlimit="10"/><path d="M110.634-27.338c-.044-.008-.174-.024-.29-.04-1.118-.146-2.574-.756-3.27-1.37a10.787 10.787 0 01-1.072-1.141c-.156-.209-.317-.482-.295-.504a.562.562 0 01.182.028c.101.026.28.042.448.042.277 0 .28 0 .515-.119.39-.196.579-.474.549-.816-.038-.44-.23-1.026-.523-1.601-.127-.246-.355-.535-.474-.598-.055-.03-.299.03-.404.099-.132.085-.17.434-.061.553.067.07.243.164.316.166.112 0 .278-.23.24-.335-.005-.018-.067-.04-.134-.05a1.29 1.29 0 01-.21-.051c-.077-.032-.084-.042-.056-.091.038-.071.198-.139.28-.12a.523.523 0 01.16.104c.095.089.095.091.105.335.01.23.005.257-.064.392-.107.208-.24.273-.503.252-.6-.052-.945-.33-1.084-.87-.023-.097-.033-.398-.031-1.131.005-1.15.053-3.204.079-3.227.01-.009.138-.048.287-.086.557-.143 1.028-.37 1.775-.854.216-.14.56-.366.767-.499.646-.42 1.062-.614 1.662-.77.539-.141.907-.193 1.37-.193.823 0 1.414.155 2.842.747.378.156.75.307.83.335.079.03.236.083.346.123.114.04.205.08.205.093 0 .012-.145.175-.323.36-.54.57-.606.67-.648 1.007-.058.448.113.996.432 1.403.176.225.277.269.632.269.233.001.32-.01.463-.06.207-.07.424-.215.63-.416.139-.136.15-.14.189-.097.063.07.194.377.31.724.18.538.288 1.196.288 1.755v.289l-.137.052a2.17 2.17 0 01-.225.069c-.118.026-.157.099-.177.317a9.679 9.679 0 01-.224 1.17c-.083.264-.184.69-.184.773 0 .058.041.12.17.252l.17.176-.124.228c-.202.377-.43.672-.8 1.04-.643.636-1.296 1.106-1.968 1.41-.806.367-1.278.468-2.264.478-.341.006-.654.005-.698-.001zm-1.848-1.5c.176-.08.33-.156.344-.168.024-.024-.02-.5-.075-.826-.035-.196-.018-.358.038-.358.01 0 .065.102.118.23.234.534.278.611.458.794.366.372.888.483 1.387.297.188-.07.176-.101-.051-.123-.373-.034-.698-.17-.886-.376-.192-.208-.333-.583-.357-.955l-.011-.198.133-.104a.698.698 0 00.204-.247l.071-.147.018.105c.01.058.03.224.045.371.05.457.19.72.44.814.109.042.129.042.293.001.252-.063.389-.15.481-.315.13-.222.183-.437.214-.863l.03-.393-.073-.11c-.204-.31-.394-.468-.567-.468a.7.7 0 00-.414.168c-.05.046-.137.156-.198.248-.145.218-.2.221-.28.011-.075-.202-.227-.402-.356-.467-.093-.045-.155-.052-.513-.05-.355.002-.428.012-.56.062-.308.118-.371.23-.33.57.018.151.05 1.91.048 2.61 0 .017.005.033.014.033.01 0 .159-.067.335-.146zm6.305-1.184c.056-.125.038-.238-.05-.311-.044-.038-.102-.07-.128-.07-.069 0-.186-.1-.186-.16 0-.085.05-.154.113-.154.093-.002.129-.04.15-.161.027-.14.02-.152-.106-.242-.121-.083-.182-.188-.137-.233.014-.016.107-.034.202-.042l.175-.014-.017-.27-.235-.085c-.13-.045-.3-.091-.373-.101l-.136-.018-.02.103c-.03.145-.022 1.428.005 1.521.024.074.054.09.34.19.173.06.328.112.344.112.015.001.041-.028.059-.066zm-2.474-.13c.117-.036.145-.056.179-.134.09-.217.14-.59.184-1.34.02-.377.005-.409-.197-.407-.182 0-.235.022-.253.101a12.68 12.68 0 00-.053.596c-.022.29-.048.571-.056.626-.028.183-.135.15-.196-.06a5.207 5.207 0 01-.05-.615c-.015-.398-.03-.53-.057-.547-.032-.02-.309-.006-.337.02-.028.024.051 1.3.091 1.444.077.297.194.394.446.37.087-.007.222-.031.299-.055zm1.175-.102c.007-.045.026-.317.04-.604.015-.317.037-.539.055-.56a.309.309 0 01.129-.062c.142-.04.168-.081.15-.254a.539.539 0 00-.032-.162c-.027-.03-.396-.085-.671-.102-.344-.021-.365-.007-.32.219.035.166.068.22.14.22.081 0 .1.1.129.653.027.573.037.644.093.69.045.037.196.073.242.057.017-.006.037-.05.045-.095zm-2.548-2.227c.353-.03.515-.09.664-.251.142-.153.188-.276.206-.53.02-.312-.005-.43-.127-.594-.146-.193-.15-.23-.05-.445.098-.212.13-.46.08-.61-.042-.125-.214-.272-.38-.321-.282-.084-.619-.038-1.268.172-.212.067-.302.06-.353-.04-.07-.127-.194-.06-.18.098.009.083.015.086.133.1.158.018.184.044.207.217.03.207.026 1.632-.005 1.9-.017.16-.017.243 0 .26.064.064.58.086 1.072.044zm3.235-.273a4.64 4.64 0 00.018-.248c.016-.24.014-.244-.042-.231a4.88 4.88 0 01-.166.025l-.107.016-.017-.743c-.01-.408-.026-.748-.036-.759a1.209 1.209 0 00-.262-.031l-.24-.012-.015.135c-.01.073-.016.51-.016.969 0 .796.002.836.052.87.04.027.138.033.44.024.214-.006.39-.012.392-.015zm.923-.543c.017-.297.032-.606.032-.689.005-.147.005-.153.115-.224.111-.075.111-.077.12-.256a.582.582 0 00-.019-.212c-.036-.041-.63-.07-.878-.043-.225.023-.263.059-.277.265-.011.17.016.238.104.238.025 0 .088.036.14.081l.093.082v.544c0 .608.011.731.076.75.023.005.138.01.253.007l.21-.005zm-2.177.501c.058-.031.094-.253.056-.354-.026-.064-.038-.068-.188-.068-.141 0-.169-.01-.236-.077-.137-.137-.101-.184.18-.24l.165-.033-.01-.2-.004-.2-.169-.018c-.192-.022-.239-.052-.239-.153 0-.09.033-.105.263-.105.212 0 .218-.008.204-.291l-.007-.17-.13-.014a7.935 7.935 0 00-.49-.005l-.357.009.002.959.002.956.105.01c.232.022.809.018.854-.005zm-5.212-.936c.331-.068.58-.17.58-.24 0-.02-.001-.036-.004-.036-.005 0-.072.018-.151.04-.194.05-.687.05-.858 0a1.021 1.021 0 01-.253-.131c-.143-.105-.496-.52-.575-.672-.089-.176-.159-.521-.174-.856-.015-.299-.01-.328.065-.566.153-.48.224-.584.616-.89.369-.287.424-.35.711-.834.288-.485.317-.539.302-.554a.785.785 0 00-.193.099 8.29 8.29 0 01-.562.29c-.21.102-.476.238-.59.306-.36.214-.72.671-.892 1.137-.178.477-.188.529-.188.999-.002.388.005.455.06.618.154.46.465.895.801 1.125.16.109.345.2.48.236.123.032.47.004.826-.071zm.1-1.178c.338-.156.59-.63.591-1.11.002-.455-.154-.875-.386-1.035-.126-.087-.139-.09-.333-.079-.352.02-.586.18-.759.52a1.643 1.643 0 00-.15 1.059c.077.365.182.52.44.636.228.1.394.105.598.01zm1.372-.48l.115-.047-.022-.621c-.031-.886-.036-.825.064-.92.085-.079.087-.083.079-.285l-.007-.206-.29.004c-.24.001-.323.014-.487.072-.109.037-.212.089-.23.114-.02.026-.034.123-.034.234v.19l.125.022c.192.036.2.061.22.838.011.362.02.664.022.67.005.026.344-.024.446-.066zm1.19-.326c.054-.063.074-.307.078-.89 0-.233.012-.459.024-.5a.468.468 0 01.107-.16c.08-.082.085-.096.071-.221-.028-.226-.055-.236-.525-.166-.424.063-.41.057-.44.166a.897.897 0 00-.028.218c0 .103.01.125.066.15.129.058.138.108.17.832.016.375.036.69.042.702.022.034.392-.075.436-.13zm1.22-.107c.136-.031.312-.208.411-.408.184-.374.14-.883-.115-1.341-.11-.2-.204-.252-.451-.252-.332 0-.533.161-.649.521-.043.14-.055.244-.055.492-.002.295.005.33.084.527.146.366.277.487.527.485.08 0 .192-.01.248-.024zm1.051-.057c.085-.038.101-.113.083-.375-.02-.255.01-.329.091-.233.028.033.07.128.094.21.065.225.159.392.23.412a.834.834 0 00.146.016c.068 0 .091-.015.111-.068.036-.093.034-1.658-.002-1.723-.055-.106-.257-.163-.364-.106-.038.02-.051.074-.066.268-.02.256-.029.297-.07.271-.046-.027-.155-.27-.185-.408-.026-.116-.042-.138-.117-.172-.099-.04-.243-.047-.297-.015-.051.034-.077.165-.051.268.014.05.033.436.043.858.011.422.03.778.04.796.024.038.232.04.315 0z" fill="#2b4a84"/><path d="M110.765-26.664c-.957-.064-1.793-.293-2.83-.78-.499-.239-.736-.407-1.495-1.07-.529-.46-1.262-1.357-1.49-1.823a2.904 2.904 0 01-.15-.337c-.01-.054.079-.11.332-.212.087-.034.25-.1.36-.148l.205-.088.176.09a.78.78 0 00.355.099c.218.014.42-.048.5-.15.069-.086.057-.25-.032-.435-.07-.143-.028-.135-.478-.071-.529.077-1.226-.16-1.506-.517a1.3 1.3 0 01-.302-.662c-.098-.497-.135-.913-.155-1.7-.02-.778.005-3.795.033-3.823.005-.006.188 0 .402.017.282.022.464.022.654.005.474-.051.644-.123 1.256-.531.214-.145.49-.32.613-.394.122-.072.37-.23.548-.35.648-.437 1.181-.649 1.972-.787.47-.084.497-.086 1.283-.086.803.002.803.002 1.197.086.545.116.739.184 1.33.467.621.297.974.436 1.386.543.297.077.329.081.725.07.228-.006.414 0 .414.01s-.041.19-.093.397c-.062.246-.123.424-.178.518-.048.08-.256.315-.482.54-.218.219-.432.456-.473.53-.072.123-.075.148-.075.434 0 .277.005.315.073.453.1.204.194.266.416.28.097.004.218-.005.267-.02.22-.074.482-.397.67-.827.063-.148.129-.281.142-.295.036-.035.371.317.525.553.153.23.39.697.5.973.315.806.483 2.652.271 2.977-.043.066-.138.103-.33.13-.12.015-.125.019-.163.14a22.535 22.535 0 00-.291 1.169c-.022.128.035.237.168.323.216.134.216.259-.002.685-.305.594-.565.987-.907 1.36-.504.548-1.395 1.275-1.84 1.5-.447.226-1.22.512-1.776.659-.398.102-.422.105-.91.112a11.43 11.43 0 01-.815-.014zm1.42-.475c.769-.131 1.634-.456 2.191-.82.272-.177.936-.716 1.237-1.005.134-.127.305-.313.378-.412.133-.18.666-1.086.697-1.189.015-.041-.018-.089-.143-.216-.092-.093-.16-.184-.16-.216 0-.055.22-1.268.313-1.718a1.25 1.25 0 01.076-.27.715.715 0 01.208-.064c.099-.02.208-.05.243-.066l.062-.027-.016-.545c-.016-.585-.06-.931-.162-1.308-.122-.446-.426-1.178-.56-1.347l-.045-.057-.366.271c-.412.31-.644.428-.874.452-.238.023-.352-.018-.503-.187-.27-.3-.426-.651-.448-1.004-.028-.406.111-.68.573-1.13l.396-.384c.188-.184.242-.289.178-.354-.021-.02-.174-.066-.343-.101-.455-.097-.828-.226-1.614-.56-1.302-.553-1.573-.62-2.486-.623-.65 0-.973.034-1.61.169-.59.124-.918.287-1.897.94-.78.522-1.341.876-1.535.975-.26.129-.492.185-.852.2a2.455 2.455 0 00-.341.03c-.028.028-.036 3.116-.01 4.065.025.993.025.989.241 1.259.182.225.616.402 1.005.403.174.002.19-.002.424-.142.253-.149.402-.23.427-.23.01 0 .015.018.015.042 0 .022.045.148.103.283.204.484.247.792.138 1.006-.057.116-.214.27-.402.399l-.12.083-.355-.024a2.852 2.852 0 01-.468-.063c-.21-.076-.424-.032-.424.085 0 .206.582 1.042.997 1.433.23.215.814.697 1.117.923.434.319 1.117.627 1.928.871a9.63 9.63 0 001.13.236c.044.007.37.007.722 0 .466-.008.725-.026.935-.062z" fill="#2b4a84"/><path d="M107.797-35.508c-.101-.081-.158-.248-.158-.475.002-.426.221-.628.443-.407.062.06.066.082.066.375 0 .29-.005.319-.066.398-.069.097-.144.159-.188.16a.25.25 0 01-.097-.05zm3.764-.889c-.12-.13-.162-.432-.085-.595.048-.099.188-.2.28-.2.12 0 .158.054.174.242a.5.5 0 01-.058.327c-.117.255-.218.329-.311.226zm-.658 2.163a.739.739 0 01-.02-.222v-.2l.175-.034c.157-.027.18-.025.224.015.065.06.063.14-.01.247-.086.127-.316.248-.37.195zm-.009 1.078a2.42 2.42 0 00.015-.283v-.163l.163-.06c.148-.05.168-.053.224-.017a.336.336 0 01.09.097c.043.077.04.311-.001.392-.074.143-.104.156-.311.156h-.196zm-.129 2.724c-.057-.127-.066-.527-.015-.626.074-.137.315-.208.369-.11.041.078.035.567-.007.67-.046.107-.135.175-.23.175-.056 0-.08-.022-.117-.11zm-1.603-.406a1.988 1.988 0 01-.015-.316v-.274h.086c.117 0 .3.088.321.156.062.194-.32.618-.392.434z" fill="#2b4a84"/></g></svg>