<?xml version="1.0" encoding="UTF-8" standalone="no"?>
<svg
   xmlns:dc="http://purl.org/dc/elements/1.1/"
   xmlns:cc="http://creativecommons.org/ns#"
   xmlns:rdf="http://www.w3.org/1999/02/22-rdf-syntax-ns#"
   xmlns:svg="http://www.w3.org/2000/svg"
   xmlns="http://www.w3.org/2000/svg"
   xmlns:sodipodi="http://sodipodi.sourceforge.net/DTD/sodipodi-0.dtd"
   xmlns:inkscape="http://www.inkscape.org/namespaces/inkscape"
   width="17.409584mm"
   height="17.409584mm"
   viewBox="0 0 17.409584 17.409584"
   version="1.1"
   id="svg1870"
   inkscape:version="1.0.1 (3bc2e813f5, 2020-09-07)"
   sodipodi:docname="TP.svg">
  <defs
     id="defs1864" />
  <filter id="grayscale">
    <feColorMatrix type="saturate" values="0.10"/>
  </filter>
  <sodipodi:namedview
     id="base"
     pagecolor="#ffffff"
     bordercolor="#666666"
     borderopacity="1.0"
     inkscape:pageopacity="0.0"
     inkscape:pageshadow="2"
     inkscape:zoom="2.1760267"
     inkscape:cx="30.702679"
     inkscape:cy="137.18026"
     inkscape:document-units="mm"
     inkscape:current-layer="layer1"
     inkscape:document-rotation="0"
     showgrid="false"
     fit-margin-top="0"
     fit-margin-left="0"
     fit-margin-right="0"
     fit-margin-bottom="0"
     inkscape:window-width="1920"
     inkscape:window-height="1054"
     inkscape:window-x="0"
     inkscape:window-y="26"
     inkscape:window-maximized="1" />
  <metadata
     id="metadata1867">
    <rdf:RDF>
      <cc:Work
         rdf:about="">
        <dc:format>image/svg+xml</dc:format>
        <dc:type
           rdf:resource="http://purl.org/dc/dcmitype/StillImage" />
        <dc:title></dc:title>
      </cc:Work>
    </rdf:RDF>
  </metadata>
  <g
     inkscape:label="Layer 1"
     inkscape:groupmode="layer"
     id="layer1"
     filter="url(#grayscale)"
     transform="translate(-102.28184,42.237323)">
    <circle
       class="st1"
       cx="110.98663"
       cy="-33.532532"
       id="circle3408"
       style="fill:#ffffff;stroke:#ffffff;stroke-width:0.264583;stroke-miterlimit:10"
       r="8.5725002" />
    <path
       d="m 109.61814,-29.92705 c -0.70621,-0.4049 -1.12759,-0.663847 -1.12195,-0.685976 0.005,-0.01836 0.0145,-0.108755 0.0222,-0.198683 0.0203,-0.263185 -0.0222,-0.312621 -0.45434,-0.568272 -0.83286,-0.487292 -1.66055,-0.963755 -1.8244,-1.046618 -0.25377,-0.130417 -0.43409,-0.121475 -0.66385,0.03673 l -0.0993,0.07015 -0.50001,-0.294258 c -0.274,-0.160077 -0.75988,-0.441624 -1.07816,-0.621474 -0.31779,-0.182205 -0.57909,-0.336632 -0.57909,-0.344166 -10e-4,-0.01268 0.5,-0.298024 0.92514,-0.527782 0.0974,-0.0532 0.45811,-0.248117 0.79991,-0.43409 l 0.62336,-0.336631 0.10317,0.10311 c 0.0955,0.09557 0.11771,0.104992 0.25,0.103111 0.1676,0 0.16007,0.0037 1.03391,-0.474581 1.0372,-0.568271 1.48588,-0.827688 1.5631,-0.910551 0.0881,-0.08993 0.13794,-0.266481 0.1121,-0.396897 l -0.0145,-0.08663 0.56638,-0.310736 c 0.31262,-0.170907 0.605,-0.332866 0.65114,-0.356878 0.0443,-0.02401 0.30179,-0.165726 0.57016,-0.312619 l 0.48729,-0.268365 0.2759,0.139832 c 0.37145,0.189267 1.44915,0.755656 1.78201,0.939744 l 0.19868,0.108289 -0.0164,0.169022 c -0.0296,0.287195 0.0512,0.375238 0.60122,0.647368 0.13608,0.06826 0.54098,0.283431 0.90114,0.478347 0.90679,0.492942 1.03391,0.553676 1.14596,0.553676 0.11211,0 0.23917,-0.05697 0.3437,-0.154426 l 0.0734,-0.06827 0.29615,0.15631 c 0.16196,0.08663 0.55368,0.29426 0.86817,0.461868 0.31451,0.169023 0.70811,0.376652 0.87196,0.463282 0.16525,0.08663 0.31073,0.165726 0.32155,0.176554 0.0164,0.01459 -1.09228,0.660081 -2.06168,1.199162 l -0.29615,0.163844 -0.1101,-0.08098 c -0.13983,-0.101229 -0.29803,-0.145481 -0.44115,-0.123356 -0.11771,0.01836 -0.37335,0.150659 -1.52685,0.798028 -0.22223,0.125238 -0.4082,0.226461 -0.41196,0.226461 -0.0386,0 -0.56075,0.318271 -0.60688,0.36959 -0.0773,0.08804 -0.10263,0.227873 -0.0697,0.395483 0.0184,0.09557 0.0184,0.141714 -0.004,0.160076 -0.0164,0.01268 -0.29427,0.170906 -0.61583,0.349343 -0.78014,0.434092 -1.51554,0.84417 -1.6516,0.921384 l -0.10877,0.06262 z m 1.2486,0.459513 c 0.0462,-0.04567 0.0462,-0.439268 0,-0.42279 -0.0367,0.01081 -0.0697,0.176556 -0.0734,0.354993 -0.004,0.104993 0.0184,0.125238 0.0734,0.0678 z m -0.0993,-0.174671 0.009,-0.181733 -0.0937,-0.05886 c -0.0536,-0.03343 -0.25047,-0.145481 -0.43785,-0.252355 -0.18786,-0.104525 -0.53908,-0.303204 -0.78155,-0.441152 -0.24483,-0.136066 -0.45435,-0.248119 -0.46705,-0.248119 -0.0151,0 -0.0885,0.02542 -0.16761,0.05885 -0.0918,0.03861 -0.13795,0.07156 -0.13226,0.09935 0.004,0.02166 0.32721,0.224107 0.71705,0.448685 0.38983,0.224108 0.84417,0.485409 1.00801,0.580984 0.16573,0.09745 0.30885,0.174673 0.31828,0.174673 0.0107,0 0.0235,-0.08098 0.0292,-0.180322 z m 0.23541,-0.102643 c 0.008,-0.163842 0,-0.209983 -0.0254,-0.200566 -0.024,0.0071 -0.0386,0.0791 -0.0443,0.222224 -0.008,0.163843 0,0.209983 0.0274,0.200566 0.024,-0.0071 0.0372,-0.0791 0.0424,-0.222224 z m 0.11958,-0.0095 c 0.005,-0.154427 0.005,-0.154427 0.0164,-0.02777 0.005,0.09039 0.0222,0.130883 0.0499,0.130883 0.0311,0 0.0386,-0.04614 0.0386,-0.218928 0,-0.182204 -0.008,-0.213279 -0.0404,-0.200567 -0.0222,0.0075 -0.0404,0.02589 -0.0404,0.04049 0,0.01268 -0.0164,0.02025 -0.0348,0.01648 -0.0334,-0.0071 -0.0866,0.349345 -0.0589,0.393601 0.0386,0.06074 0.0659,0.0075 0.0697,-0.134182 z m 0.21328,-0.18738 c 0,-0.153013 -0.009,-0.202449 -0.033,-0.194916 -0.0367,0.01268 -0.0645,0.321566 -0.0367,0.395013 0.0348,0.09039 0.0697,-0.01081 0.0697,-0.200097 z m 0.14172,0.04755 c 0.001,-0.0645 0.004,-0.0645 0.0145,-0.01081 0.0259,0.136065 0.0626,0.04943 0.0626,-0.145481 0,-0.152544 -0.007,-0.203863 -0.0348,-0.194917 -0.0184,0.0056 -0.0404,0.05886 -0.0499,0.117711 l -0.0164,0.106874 -0.003,-0.104992 c -0.004,-0.08992 -0.009,-0.101229 -0.0462,-0.07156 -0.0423,0.03485 -0.0518,0.161489 -0.0222,0.334748 0.0133,0.0824 0.024,0.09557 0.0532,0.07156 0.0203,-0.01648 0.0386,-0.0645 0.0404,-0.10311 z m 0.18218,-0.108289 c 0.004,-0.0499 0.024,-0.08663 0.0443,-0.08663 0.0216,0 0.0419,-0.02025 0.0494,-0.04755 0.009,-0.0372 0.0184,-0.03155 0.0424,0.0273 0.0348,0.08475 0.0866,0.101229 0.0866,0.02777 0,-0.03154 0.009,-0.03673 0.0198,-0.01648 0.0296,0.04567 1.0485,-0.533432 1.03767,-0.5904 -0.004,-0.02213 -0.0739,-0.07532 -0.15301,-0.117697 l -0.14312,-0.07722 -0.53156,0.294259 -0.52966,0.294258 v 0.20198 c 0,0.147365 0.009,0.196799 0.033,0.189738 0.0203,-0.0075 0.0386,-0.0518 0.0443,-0.09935 z m -0.56119,-0.136065 c 0.15489,-0.08851 0.53906,-0.303674 0.85734,-0.48023 0.31827,-0.174671 0.58475,-0.340397 0.59228,-0.365821 0.005,-0.02401 0.0273,-0.09935 0.0438,-0.16761 0.0462,-0.183617 0.22458,-0.443036 0.35688,-0.516482 0.0847,-0.04802 0.11771,-0.05556 0.13226,-0.02967 0.0151,0.02213 0.0278,0.02401 0.0386,0.0056 0.009,-0.01459 0.001,-0.03154 -0.0145,-0.03861 -0.0164,-0.0056 0.13418,-0.09935 0.33476,-0.209513 0.20056,-0.110637 0.48728,-0.2726 0.63841,-0.356876 0.44305,-0.253768 0.84935,-0.463751 0.8936,-0.463751 0.0222,0 0.0481,-0.01459 0.0533,-0.03485 0.008,-0.01836 0.12906,-0.09369 0.27071,-0.169023 0.24248,-0.129002 0.26649,-0.134181 0.50001,-0.143598 0.16008,-0.0075 0.29802,0.0037 0.39549,0.02965 l 0.15066,0.04002 0.36771,-0.205746 c 0.64029,-0.360643 0.73588,-0.419495 0.73588,-0.437856 0,-0.01081 -0.25378,-0.152544 -0.56263,-0.316387 l -0.56121,-0.295664 -0.15442,0.04379 c -0.19492,0.05508 -0.41574,0.05697 -0.59229,0.0037 -0.0734,-0.02213 -0.36017,-0.163844 -0.63795,-0.316387 -0.27778,-0.150661 -0.62194,-0.338515 -0.7632,-0.413846 -0.84417,-0.450568 -1.17185,-0.637952 -1.26365,-0.724582 -0.11585,-0.113934 -0.23729,-0.336632 -0.23729,-0.441151 0,-0.03861 -0.0145,-0.09039 -0.033,-0.113934 -0.0404,-0.0499 -1.60546,-0.895958 -1.65725,-0.895958 -0.0842,0 -1.59793,0.829573 -1.65867,0.910553 -0.0134,0.01648 -0.057,0.113934 -0.0993,0.217044 -0.14172,0.339928 -0.16197,0.356877 -1.51555,1.103116 -1.38844,0.766954 -1.35359,0.748593 -1.55416,0.763659 -0.10263,0.0071 -0.26649,-0.0019 -0.36394,-0.02025 l -0.17843,-0.03343 -0.43221,0.23164 c -0.23729,0.129002 -0.49671,0.270719 -0.57722,0.314506 l -0.14737,0.08098 0.0645,0.04049 c 0.0367,0.02401 0.27214,0.160075 0.52213,0.303674 0.38278,0.217044 0.46706,0.255651 0.51884,0.235406 0.13418,-0.05508 0.33993,-0.07721 0.52967,-0.05697 0.18738,0.02025 0.22975,0.04237 1.10312,0.533433 0.50047,0.281075 1.05415,0.595578 1.22694,0.698687 0.43597,0.253768 0.58663,0.432207 0.65819,0.768838 0.0278,0.136066 0.0367,0.148778 0.1822,0.227873 0.0847,0.04614 0.45811,0.257536 0.83335,0.468931 0.37335,0.211395 0.68927,0.386068 0.70244,0.386068 0.0145,0 0.14878,-0.07156 0.30133,-0.159608 z m -1.86301,-1.177034 v -0.354992 h 0.15301 c 0.12478,0 0.16149,0.01081 0.22034,0.06968 0.057,0.05885 0.0682,0.08851 0.0555,0.167609 -0.009,0.0532 -0.0372,0.120994 -0.0645,0.148778 -0.048,0.0532 -0.048,0.05886 0.0386,0.288609 0.009,0.02401 -0.0145,0.03531 -0.0734,0.03531 -0.057,0 -0.0904,-0.01695 -0.0993,-0.04802 -0.0386,-0.119579 -0.0499,-0.127119 -0.0588,-0.04049 -0.009,0.07721 -0.0203,0.08851 -0.0904,0.08851 h -0.081 z m 0.2467,-0.125237 c 0,-0.02025 -0.0184,-0.03861 -0.0404,-0.03861 -0.0424,0 -0.057,0.05697 -0.024,0.08993 0.0259,0.02589 0.0645,-0.0052 0.0645,-0.05131 z m 0.26271,0.241056 c 0.0354,-0.130883 0.0791,-0.290492 0.0961,-0.354993 0.0274,-0.106874 0.0367,-0.115816 0.11771,-0.115816 h 0.0881 l 0.0866,0.334749 c 0.0456,0.183617 0.0842,0.343694 0.0842,0.354993 0,0.01081 -0.0423,0.02024 -0.0956,0.02024 -0.0659,0 -0.0956,-0.01321 -0.0956,-0.04237 0,-0.02589 -0.0259,-0.04049 -0.081,-0.04049 -0.0551,0 -0.0829,0.01459 -0.0829,0.04049 0,0.02919 -0.0274,0.04237 -0.0918,0.04237 h -0.0937 z m 0.22835,-0.07722 c 0,-0.02213 -0.0133,-0.03531 -0.0278,-0.02589 -0.0145,0.0095 -0.0274,0.02919 -0.0274,0.04237 0,0.01459 0.0134,0.02589 0.0274,0.02589 0.0145,0 0.0278,-0.01883 0.0278,-0.04237 z m 0.29991,-0.03861 v -0.354993 h 0.16337 v 0.709987 h -0.16337 z m 0.21846,0.0019 v -0.356861 h 0.18974 v 0.518367 h 0.0974 c 0.0937,0 0.0974,0.0037 0.0881,0.08851 l -0.007,0.08804 -0.18409,0.0095 -0.18409,0.0071 z m 0.45245,0.305087 c -0.007,-0.02589 -0.033,-0.139829 -0.0589,-0.251882 -0.0235,-0.113934 -0.0551,-0.241056 -0.0697,-0.285313 -0.0367,-0.117697 -0.0315,-0.128534 0.0626,-0.119592 0.0734,0.0075 0.09,0.02401 0.11585,0.112519 0.0386,0.136065 0.0791,0.134182 0.10636,-0.0056 0.0164,-0.09369 0.0315,-0.112052 0.0847,-0.112052 0.0551,0 0.0682,0.01836 0.0829,0.108288 0.0259,0.152544 0.057,0.15631 0.0956,0.0146 0.0311,-0.108289 0.0443,-0.122889 0.11398,-0.122889 0.0424,0 0.0773,0.0089 0.0773,0.02025 0,0.01081 -0.0386,0.170905 -0.0881,0.354993 -0.0791,0.299438 -0.0956,0.334749 -0.14925,0.334749 -0.0494,0 -0.0678,-0.02589 -0.0974,-0.129002 -0.0404,-0.136064 -0.0475,-0.132298 -0.0993,0.02589 -0.0254,0.08098 -0.0475,0.103111 -0.0974,0.103111 -0.0386,0 -0.0697,-0.02025 -0.0791,-0.04802 z m 0.50235,0.03485 c 0,-0.01836 0.0773,-0.314504 0.10637,-0.410078 0.0151,-0.04614 0.0404,-0.134183 0.0551,-0.198685 0.0296,-0.106407 0.0372,-0.115816 0.12332,-0.115816 0.0645,0 0.0974,0.01459 0.1069,0.04802 0.009,0.02731 0.0456,0.170906 0.0842,0.321567 0.0386,0.149247 0.0777,0.294258 0.0847,0.320152 0.0133,0.03861 -10e-4,0.04802 -0.0847,0.04802 -0.0773,0 -0.10263,-0.01321 -0.11397,-0.05556 -0.009,-0.03485 -0.0367,-0.05508 -0.0829,-0.05508 -0.0438,0 -0.0715,0.02025 -0.0805,0.05508 -0.0107,0.04049 -0.0372,0.05556 -0.1069,0.05556 -0.0512,0 -0.0918,-0.0056 -0.0918,-0.01321 z m 0.32532,-0.281073 c -0.005,-0.04049 -0.0494,-0.12712 -0.0514,-0.09746 0,0.01836 -0.009,0.05132 -0.0184,0.07532 -0.0107,0.02731 -10e-4,0.04237 0.0273,0.04237 0.024,0 0.0424,-0.0095 0.0424,-0.02024 z m 0.3018,0.128534 c 0,-0.127119 -0.0184,-0.198683 -0.0829,-0.325331 -0.10317,-0.206217 -0.10317,-0.246707 -0.004,-0.246707 0.0683,0 0.0847,0.01648 0.12706,0.129001 l 0.0475,0.126653 0.0665,-0.126653 c 0.057,-0.115815 0.0734,-0.129001 0.15819,-0.129001 0.0532,0 0.0956,0.0075 0.0956,0.01459 0,0.0075 -0.0551,0.125238 -0.12332,0.259419 -0.0842,0.16761 -0.12145,0.27778 -0.12145,0.353109 0,0.104993 -0.005,0.110638 -0.0823,0.110638 h -0.081 z m -1.66432,-0.698687 c -0.0518,-0.0056 -0.19868,-0.02967 -0.3258,-0.05368 -0.76884,-0.137948 -1.35736,-0.608762 -1.54851,-1.237769 -0.0533,-0.174673 -0.0734,-0.584751 -0.0386,-0.772135 0.0715,-0.379005 0.31827,-0.783434 0.63089,-1.033905 0.40255,-0.321567 0.84794,-0.512716 1.35547,-0.580985 0.36959,-0.04943 0.5518,-0.04943 0.8955,0 0.84792,0.121475 1.43643,0.492942 1.71987,1.092287 0.13606,0.285313 0.17467,0.465635 0.16337,0.750477 -0.0145,0.338515 -0.12852,0.651136 -0.3437,0.941627 -0.18408,0.24859 -0.55744,0.537199 -0.80932,0.62524 -0.0715,0.02589 -0.15066,0.05697 -0.17467,0.06827 -0.024,0.01268 -0.17091,0.06262 -0.32721,0.112052 -0.25941,0.0791 -0.31826,0.08851 -0.69351,0.09369 -0.22457,0.0037 -0.45057,0.0019 -0.50377,-0.0033 z m -0.67138,-1.011778 c 0.007,-0.01268 0.0203,-0.26083 0.0292,-0.553677 0.009,-0.290492 0.024,-0.595579 0.0315,-0.674675 l 0.0145,-0.145482 0.14172,0.0037 c 0.31074,0.0095 0.29049,0.02025 0.29049,-0.163843 v -0.165255 l -1.21376,0.0146 -0.009,0.106874 c -0.004,0.05886 0,0.136066 0.009,0.172788 0.0165,0.06592 0.0203,0.06592 0.20951,0.04755 l 0.19303,-0.01836 -0.007,0.677029 c -0.004,0.373355 -0.005,0.68786 -0.004,0.698688 0.005,0.02779 0.29802,0.02779 0.31451,0 z m 2.14454,-0.235406 c 0,-0.253769 0.005,-0.260831 0.18927,-0.260831 0.27402,0 0.52968,-0.156781 0.62713,-0.382771 0.0512,-0.121475 0.0551,-0.158193 0.0311,-0.286726 -0.0145,-0.08098 -0.0456,-0.184088 -0.0678,-0.228345 -0.0607,-0.115815 -0.22081,-0.257534 -0.33663,-0.298024 -0.11397,-0.03861 -0.6841,-0.04191 -0.74671,-0.0033 -0.0296,0.01836 -0.0386,0.179851 -0.0462,0.856882 l -0.0107,0.831456 h 0.36064 z m 0.0603,-0.610646 c -0.0589,-0.0089 -0.0603,-0.02213 -0.0603,-0.268363 0,-0.184088 0.009,-0.261302 0.0348,-0.270247 0.0184,-0.0075 0.1013,-0.0037 0.18362,0.0071 0.12705,0.01836 0.15632,0.03531 0.20998,0.114414 0.0824,0.120994 0.0791,0.200095 -0.0133,0.305087 -0.0773,0.08475 -0.22411,0.130416 -0.35499,0.112052 z m -1.90349,0.590401 c 0.0386,-0.01836 0.0702,-0.0532 0.0702,-0.07722 0,-0.05132 0.11584,-0.115816 0.17091,-0.09557 0.0184,0.0075 0.0518,0 0.0734,-0.01268 0.0354,-0.02213 0.0335,-0.04614 -0.012,-0.184089 -0.0278,-0.08663 -0.0607,-0.176554 -0.0715,-0.198683 -0.0107,-0.02401 -0.0259,-0.06262 -0.0348,-0.08993 -0.008,-0.02589 -0.024,-0.04614 -0.0354,-0.04614 -0.0607,0 -0.0937,0.06638 -0.15443,0.312621 -0.11771,0.482113 -0.11771,0.441623 -0.005,0.391717 z m 0.12518,-0.358289 c 0,-0.0499 0.005,-0.05368 0.0278,-0.02025 0.033,0.0532 0.033,0.0824 0,0.0824 -0.017,0 -0.0278,-0.02731 -0.0278,-0.06074 z m 0.38278,0.06027 c 0.0419,-0.02166 0.0532,-0.05697 0.0532,-0.183618 l 0.001,-0.15631 0.0753,0.09181 c 0.0494,0.06074 0.0937,0.08851 0.12852,0.08286 0.0481,-0.0095 0.0537,-0.03861 0.0607,-0.31827 0.004,-0.167139 0,-0.305087 -0.007,-0.305087 -0.009,0 -0.0404,0.01268 -0.0702,0.0273 -0.0424,0.02401 -0.0532,0.05886 -0.0532,0.191151 v 0.161959 l -0.0974,-0.108289 c -0.14736,-0.161959 -0.17468,-0.121474 -0.17468,0.248119 0,0.163844 0.007,0.298026 0.0164,0.298026 0.008,0 0.0386,-0.01268 0.0678,-0.02967 z m 0.57721,-0.33475 c 0.13226,-0.0805 0.20057,-0.170905 0.23917,-0.314032 0.033,-0.123356 0.0184,-0.208099 -0.0481,-0.28343 -0.0551,-0.06262 -0.13606,-0.06074 -0.24435,0.0056 l -0.0885,0.05508 v 0.299908 c 0,0.165256 0.009,0.299438 0.0203,0.299438 0.0107,0 0.0663,-0.02919 0.12144,-0.06262 z m -0.005,-0.315916 c 0,-0.143598 0.008,-0.165725 0.0518,-0.165725 0.0678,0 0.09,0.09181 0.0494,0.211395 -0.0551,0.163843 -0.10129,0.143598 -0.10129,-0.04567 z m -5.37387,0.461409 v -0.272129 h -0.0678 c -0.0533,0 -0.0682,-0.01459 -0.0682,-0.06826 0,-0.0678 0.004,-0.0678 0.21893,-0.0678 0.21328,0 0.21704,0 0.21704,0.0678 0,0.05697 -0.0107,0.06826 -0.081,0.06826 h -0.0829 v 0.54426 h -0.13607 z m 0.79097,0.251885 c 0,-0.01081 0.0424,-0.08804 0.0937,-0.172788 l 0.0922,-0.154427 -0.0791,-0.143597 c -0.0424,-0.0791 -0.0791,-0.154427 -0.0791,-0.167139 0,-0.01321 0.0367,-0.02213 0.0805,-0.02213 0.0626,0 0.0922,0.01836 0.12332,0.08098 0.024,0.04567 0.0537,0.08286 0.0645,0.08286 0.0107,0 0.0424,-0.03719 0.0678,-0.08286 0.0372,-0.06074 0.0683,-0.08098 0.12906,-0.08098 0.0734,0 0.11584,0.06074 0.0588,0.08616 -0.0107,0.0037 -0.0533,0.0645 -0.0918,0.130883 l -0.0721,0.123356 0.0518,0.108289 c 0.0292,0.05886 0.0641,0.119579 0.0791,0.134181 0.0533,0.0532 0.0274,0.09746 -0.0536,0.09746 -0.0622,0 -0.09,-0.01836 -0.12292,-0.08098 -0.0537,-0.102644 -0.0702,-0.102644 -0.12905,10e-7 -0.0348,0.06262 -0.0659,0.08098 -0.12852,0.08098 -0.0462,0 -0.0847,-0.0089 -0.0847,-0.02025 z m 0.57391,0.01321 c 0,-0.0056 0.0533,-0.15631 0.11958,-0.334749 l 0.11958,-0.325805 h 0.1045 c 0.10129,0 0.10503,0.0019 0.13984,0.136065 0.0296,0.117698 0.0532,0.202449 0.13418,0.483996 0.0107,0.03861 -0.005,0.04755 -0.081,0.04755 -0.0715,0 -0.0974,-0.01268 -0.10824,-0.0532 -0.0107,-0.04425 -0.0367,-0.05508 -0.12852,-0.05508 -0.0922,0 -0.11771,0.01081 -0.12905,0.05508 -0.009,0.03861 -0.0367,0.0532 -0.0918,0.0532 -0.0443,0 -0.0791,-0.0037 -0.0791,-0.0071 z m 0.355,-0.34605 c 0,-0.04567 -0.0133,-0.08287 -0.0278,-0.08287 -0.0145,0 -0.0274,0.0095 -0.0274,0.02025 0,0.01134 -0.008,0.04802 -0.0169,0.08287 -0.0134,0.04425 -0.005,0.06074 0.0278,0.06074 0.0292,0 0.0443,-0.02401 0.0443,-0.08098 z m 0.33286,0.322036 c -0.0184,-0.01836 -0.0334,-0.06826 -0.0334,-0.110637 0,-0.06592 0.0107,-0.07532 0.0791,-0.07532 0.0443,0 0.0847,0.01459 0.0904,0.03154 0.0145,0.04567 0.10317,0.0071 0.10317,-0.04425 0,-0.03107 -0.0296,-0.04237 -0.10877,-0.04237 -0.12332,0 -0.16384,-0.04943 -0.16384,-0.200568 0,-0.154426 0.0739,-0.218927 0.25564,-0.22034 0.16197,-0.0019 0.20622,0.0273 0.20811,0.132297 0,0.04425 -0.0145,0.04755 -0.12519,0.03295 -0.11771,-0.01459 -0.12332,-0.01268 -0.11584,0.04425 0.008,0.04755 0.0296,0.0645 0.10503,0.06968 0.11584,0.01134 0.13418,0.03861 0.13608,0.198685 0,0.169493 -0.0551,0.215161 -0.25001,0.215161 -0.081,0 -0.16385,-0.01459 -0.18032,-0.03107 z m -1.66997,-0.322036 v -0.327216 h 0.19115 c 0.18598,0 0.19116,0.0019 0.19116,0.0678 0,0.06074 -0.0107,0.06826 -0.11011,0.06826 -0.0974,0 -0.10876,0.0056 -0.10876,0.0678 0,0.04991 0.0151,0.06826 0.0555,0.06826 0.0348,0 0.0533,0.01836 0.0533,0.05508 0,0.03485 -0.0184,0.0532 -0.0533,0.0532 -0.0424,0 -0.0555,0.01883 -0.0555,0.08286 0,0.07532 0.008,0.08098 0.0961,0.08098 0.0773,0 0.0956,0.01134 0.0956,0.05508 0,0.04802 -0.0184,0.05368 -0.17845,0.05368 h -0.17655 z m 7.32161,0.263184 c -0.008,-0.01836 -0.0107,-0.176555 -0.008,-0.347931 l 0.009,-0.312621 h 0.18173 c 0.10129,0 0.1968,0.01507 0.21328,0.03154 0.017,0.01648 0.0386,0.08098 0.0462,0.143598 0.0203,0.146894 -0.0386,0.235407 -0.16713,0.260831 -0.0942,0.01648 -0.0974,0.02213 -0.0974,0.139831 0,0.115816 -0.001,0.121475 -0.0829,0.121475 -0.0462,0 -0.0885,-0.01648 -0.0955,-0.03673 z m 0.25378,-0.403016 c 0.0367,-0.03861 0.0145,-0.106407 -0.0367,-0.106407 -0.0221,0 -0.0386,0.02731 -0.0386,0.0678 0,0.07392 0.0254,0.08663 0.0753,0.03861 z m 0.11584,0.425144 c 0,-0.0095 0.0494,-0.169492 0.1121,-0.356877 l 0.11024,-0.342281 0.0847,0.0095 c 0.0829,0.0071 0.0885,0.01648 0.18785,0.321565 0.0551,0.173261 0.10263,0.32957 0.10263,0.347932 0.004,0.05697 -0.12852,0.04049 -0.16148,-0.02025 -0.0203,-0.03861 -0.0574,-0.05508 -0.12145,-0.05508 -0.0665,0 -0.10316,0.01648 -0.12331,0.05508 -0.0184,0.03485 -0.057,0.05508 -0.11024,0.05508 -0.0443,0 -0.081,-0.0075 -0.081,-0.01459 z m 0.35499,-0.292375 c -0.001,-0.04425 -0.0536,-0.127119 -0.0536,-0.08475 -0.001,0.01836 -0.009,0.05132 -0.0184,0.07532 -0.009,0.02777 0,0.04237 0.0278,0.04237 0.024,0 0.0443,-0.01459 0.0443,-0.03295 z m 0.34557,0.257065 c -0.0367,-0.04002 -0.0462,-0.108289 -0.0462,-0.327216 0,-0.31827 0.0107,-0.332866 0.24105,-0.332866 0.14925,0 0.18598,0.02777 0.21328,0.160078 0.0164,0.08098 0.0134,0.08663 -0.0678,0.08663 -0.048,0 -0.0866,-0.01507 -0.0866,-0.02967 0,-0.01648 -0.0274,-0.02589 -0.0607,-0.02025 -0.0697,0.0095 -0.0918,0.101229 -0.0626,0.257535 0.0107,0.06638 0.0315,0.09181 0.0702,0.09181 0.0292,0 0.0533,-0.01268 0.0533,-0.0273 0,-0.01507 0.0367,-0.02779 0.0829,-0.02779 0.0663,0 0.081,0.01134 0.081,0.0645 0,0.101229 -0.081,0.154427 -0.23541,0.154427 -0.0993,0 -0.15113,-0.01459 -0.18221,-0.0499 z m 0.50049,-0.305087 v -0.354995 h 0.16337 v 0.709988 h -0.16337 z m 0.24435,0 v -0.354995 h 0.38277 v 0.08286 c 0,0.07722 -0.008,0.08098 -0.10877,0.08098 -0.0993,0 -0.1101,0.0071 -0.1101,0.0678 0,0.05697 0.0145,0.06826 0.0829,0.06826 0.0678,0 0.0805,0.01081 0.0805,0.0678 0,0.05886 -0.0133,0.06826 -0.0805,0.06826 -0.081,0 -0.0829,0.0037 -0.0829,0.136065 0,0.134183 0,0.137949 -0.081,0.137949 h -0.0829 z m 0.43597,0 v -0.354995 h 0.16385 v 0.709988 h -0.16385 z m 0.30697,0.322036 c -0.0456,-0.04614 -0.0456,-0.599816 0,-0.644073 0.0164,-0.01836 0.0956,-0.03295 0.17467,-0.03295 0.11771,0 0.15113,0.01134 0.18597,0.06074 0.024,0.03295 0.0424,0.08851 0.0424,0.123356 0,0.04943 -0.0151,0.06262 -0.0791,0.06262 -0.057,0 -0.0829,-0.01695 -0.0937,-0.05886 -0.008,-0.03155 -0.0315,-0.05178 -0.0499,-0.04425 -0.0259,0.0071 -0.0367,0.0678 -0.0367,0.198683 0,0.158193 0.009,0.191151 0.0475,0.198683 0.0296,0.0052 0.0481,-0.0075 0.0481,-0.03531 0,-0.02919 0.0259,-0.04237 0.0829,-0.04237 0.0734,0 0.081,0.0095 0.081,0.09039 0,0.124771 -0.0424,0.15631 -0.21892,0.15631 -0.0829,0 -0.16761,-0.01459 -0.18409,-0.03295 z m -5.73403,-2.653977 v -0.259417 h -0.0702 c -0.057,0 -0.0678,-0.01081 -0.0607,-0.06074 0.008,-0.05697 0.024,-0.06262 0.21893,-0.06968 0.2114,-0.0075 0.2114,-0.0075 0.2114,0.06074 0,0.05697 -0.0133,0.06968 -0.0678,0.06968 -0.0683,0 -0.0683,0 -0.0683,0.259417 v 0.259419 h -0.1635 z m 0.36017,-0.06262 0.009,-0.320152 0.0734,-0.0071 c 0.0734,-0.0095 0.0753,-0.0056 0.0753,0.128534 0,0.136064 0.001,0.137947 0.0829,0.137947 0.0791,0 0.081,-0.0019 0.081,-0.136064 0,-0.134182 0.001,-0.136065 0.0829,-0.136065 h 0.0805 v 0.654902 h -0.0805 c -0.0791,0 -0.0829,-0.0056 -0.0829,-0.123357 0,-0.117697 -10e-4,-0.123356 -0.081,-0.123356 -0.0791,0 -0.0829,0.0056 -0.0829,0.123356 0,0.117698 -0.001,0.123357 -0.0829,0.123357 h -0.0824 z m 0.59982,0 0.009,-0.320152 0.17091,-0.0071 c 0.15489,-0.0075 0.16948,-0.0037 0.16948,0.04755 0,0.04614 -0.0164,0.05509 -0.0956,0.05509 -0.0829,0 -0.0956,0.0095 -0.0956,0.06638 0,0.04802 0.0184,0.07015 0.0622,0.07532 0.0386,0.0056 0.0645,0.03155 0.0702,0.07015 0.007,0.04943 -0.004,0.06074 -0.0607,0.06074 -0.0533,0 -0.0715,0.0146 -0.0715,0.05508 0,0.04425 0.0184,0.05508 0.0956,0.05508 0.0881,0 0.0956,0.0056 0.0956,0.08098 v 0.08286 h -0.35497 z m -2.3762,5.285824 c 0.0697,-0.03673 0.10637,-0.07392 0.10637,-0.110637 0,-0.06592 0.005,-0.06592 -0.14689,0 -0.0903,0.03861 -0.12518,0.07015 -0.12518,0.108755 0,0.06968 0.0296,0.06968 0.16571,0.0019 z m 4.08996,-0.01134 c 0,-0.04943 -0.18739,-0.160076 -0.23919,-0.141715 -0.0533,0.02213 -0.0216,0.06074 0.0974,0.123356 0.12145,0.0645 0.14172,0.06827 0.14172,0.01836 z m -4.11961,-0.141711 c 0.0734,-0.02919 0.10877,-0.06074 0.10877,-0.09557 0,-0.06403 -0.0222,-0.06403 -0.16197,-0.0071 -0.0734,0.02919 -0.11024,0.06074 -0.11024,0.09369 0,0.0645 0.0216,0.0645 0.16338,0.0089 z m 4.1455,0.0095 c 0,-0.04049 -0.20246,-0.161959 -0.22788,-0.137949 -0.0334,0.03485 -0.0151,0.0645 0.0715,0.117698 0.10317,0.06262 0.15819,0.06968 0.15631,0.02025 z m 0.0274,-0.113934 c 0,-0.02025 -0.0419,-0.06262 -0.0956,-0.09369 -0.11771,-0.07015 -0.12105,-0.07015 -0.12105,-0.0095 0,0.04802 0.11918,0.139832 0.18362,0.141715 0.0184,0 0.033,-0.01648 0.033,-0.03673 z m -4.20766,-0.03343 c 0.12145,-0.04567 0.14737,-0.0824 0.0773,-0.108289 -0.0443,-0.01648 -0.23352,0.08804 -0.23352,0.128534 0,0.03531 0.0222,0.03155 0.15631,-0.02024 z m 4.25003,-0.08993 c 0,-0.02025 -0.0404,-0.06638 -0.0881,-0.10311 -0.0847,-0.06403 -0.0866,-0.06403 -0.11398,-0.01081 -0.0259,0.04567 -0.0164,0.06262 0.0589,0.110171 0.0937,0.05886 0.14312,0.06074 0.14312,0.0037 z m -4.24626,-0.04614 c 0.0494,-0.03295 0.057,-0.04755 0.0292,-0.0805 -0.0273,-0.03343 -0.0456,-0.02967 -0.12665,0.03295 -0.0518,0.03861 -0.0993,0.0645 -0.1069,0.05697 -0.007,-0.0075 0.0278,-0.04049 0.0773,-0.07532 0.0499,-0.03485 0.0956,-0.06638 0.1013,-0.07015 0.005,-0.0052 -0.005,-0.02731 -0.024,-0.04943 -0.0292,-0.03673 -0.0475,-0.03154 -0.13983,0.04237 -0.1045,0.0824 -0.1045,0.08428 -0.0589,0.148777 0.0537,0.07344 0.13092,0.07156 0.24859,-0.0056 z m 4.32913,-0.03861 c 0.009,-0.01648 -0.005,-0.05697 -0.033,-0.08804 l -0.0499,-0.06074 0.0607,0.0532 c 0.0443,0.03673 0.0721,0.04425 0.0922,0.02213 0.0367,-0.03673 -0.0404,-0.161959 -0.11437,-0.1855 -0.0607,-0.01836 -0.11585,0.0071 -0.0937,0.04379 0.009,0.01507 -0.001,0.02589 -0.024,0.02589 -0.0773,0 -0.0697,0.0791 0.0133,0.148777 0.09,0.0758 0.12145,0.08475 0.1469,0.04049 z m -4.52027,-0.134181 c 0.0589,-0.04943 0.0603,-0.11017 0.003,-0.11017 -0.012,0 -0.0697,0.04049 -0.12666,0.08804 l -0.10503,0.08663 0.0922,-0.09746 c 0.12479,-0.134181 0.0603,-0.172788 -0.0702,-0.04237 l -0.0974,0.09557 0.0791,0.04237 c 0.0829,0.04237 0.1101,0.03485 0.22457,-0.06262 z m -0.18221,-0.224106 c -0.0278,-0.02777 -0.0518,-0.01507 -0.12519,0.07344 -0.11958,0.143598 -0.0659,0.1855 0.0663,0.05508 0.0753,-0.07721 0.0862,-0.101228 0.0589,-0.128534 z m 4.88845,0.207628 c 0.0348,-0.01459 0.0292,-0.03107 -0.0315,-0.11017 -0.0773,-0.09417 -0.12478,-0.114414 -0.15818,-0.06262 -0.0134,0.02213 0.11063,0.189267 0.1417,0.189267 0.004,0 0.0259,-0.0071 0.0481,-0.01648 z m 0.09,-0.158194 c -0.0665,-0.08475 -0.15444,-0.128534 -0.15444,-0.07532 0,0.05509 0.13796,0.19115 0.17845,0.176555 0.0348,-0.01268 0.0292,-0.03107 -0.024,-0.101228 z m -5.1328,0.0075 c 0.0532,-0.0645 0.0641,-0.09369 0.0404,-0.115816 -0.0222,-0.02401 -0.0518,-0.0075 -0.11063,0.05885 -0.0438,0.04755 -0.0791,0.100762 -0.0791,0.115816 0,0.05508 0.0791,0.02354 0.14924,-0.05886 z m 5.41435,-0.101229 c -0.0683,-0.119592 -0.12332,-0.16761 -0.16385,-0.141715 -0.033,0.02025 -0.0292,0.03673 0.024,0.110171 0.0348,0.04614 0.057,0.09227 0.0494,0.09745 -0.007,0.0075 -0.0404,-0.02354 -0.0715,-0.06968 -0.033,-0.04614 -0.0773,-0.08286 -0.0974,-0.08286 -0.0715,0 -0.0715,0.05697 -0.001,0.151132 l 0.0715,0.09181 0.10877,-0.05509 c 0.0862,-0.04614 0.10317,-0.0645 0.081,-0.101229 z m -5.52687,0.04427 c 0.0499,-0.0645 0.0607,-0.09745 0.0386,-0.123356 -0.0419,-0.0532 -0.0603,-0.04425 -0.13796,0.0645 -0.11397,0.159606 -0.0216,0.213278 0.0993,0.05885 z m -0.0734,-0.171376 c -0.0203,-0.06215 -0.09,-0.03673 -0.15067,0.05697 -0.0514,0.08098 -0.057,0.104992 -0.0278,0.123356 0.0259,0.01648 0.0607,-0.0019 0.11251,-0.0645 0.0419,-0.04755 0.0715,-0.100749 0.0659,-0.115816 z m 5.73637,0.106874 c 0,-0.02401 -0.11584,-0.202449 -0.13226,-0.202449 -0.0107,0 -0.0354,0.01134 -0.0574,0.02589 -0.0311,0.02025 -0.0254,0.04049 0.0354,0.119593 0.0456,0.06262 0.0881,0.09181 0.11397,0.08286 0.0222,-0.0095 0.0404,-0.02024 0.0404,-0.02589 z m -5.91859,-0.06826 c 0.0555,-0.07721 0.0589,-0.161488 0.005,-0.161488 -0.033,0 -0.145,0.205746 -0.12331,0.227873 0.0335,0.03107 0.0589,0.01836 0.11771,-0.06638 z m 5.97556,-0.08993 c -0.0551,-0.08851 -0.13795,-0.128534 -0.13795,-0.06968 0,0.01836 0.0259,0.07344 0.057,0.12477 0.0462,0.07532 0.0645,0.08663 0.0956,0.06074 0.033,-0.02777 0.0315,-0.04425 -0.0145,-0.115816 z m -6.08949,0.02401 c 0.0626,-0.09227 0.0607,-0.151131 -0.004,-0.151131 -0.0438,0 -0.13936,0.178438 -0.11585,0.217045 0.0296,0.04614 0.0518,0.03531 0.11958,-0.06592 z m 6.23826,0.01268 c 0.0259,-0.04427 -0.0937,-0.217052 -0.13794,-0.200574 -0.0512,0.02025 -0.0512,0.03343 0.0151,0.139832 0.0551,0.09039 0.0918,0.110637 0.12291,0.06074 z m -6.34279,-0.0937 c 0.0589,-0.09369 0.0551,-0.152544 -0.008,-0.150661 -0.0311,0.0015 -0.12852,0.165256 -0.12852,0.218458 0,0.06074 0.0823,0.01836 0.13607,-0.0678 z m 6.44966,0.04237 c 0.0222,-0.03485 -0.0702,-0.220812 -0.10877,-0.220812 -0.0607,0 -0.0641,0.03485 -0.0107,0.139832 0.0533,0.104525 0.09,0.128534 0.11958,0.08098 z m -6.56029,-0.108756 c 0.0499,-0.09746 0.0499,-0.139831 0,-0.139831 -0.0255,0 -0.13418,0.173259 -0.13418,0.215162 0,0.07015 0.0847,0.02401 0.13418,-0.07534 z m 6.67424,0.04049 c 0.0203,-0.0532 -0.0645,-0.207629 -0.11397,-0.207629 -0.0518,0 -0.0499,0.03107 0.005,0.148777 0.0495,0.103111 0.0823,0.121475 0.10637,0.05886 z m -6.7848,-0.08621 c 0.0588,-0.09746 0.0551,-0.149249 -0.005,-0.149249 -0.0443,0 -0.13983,0.178439 -0.11584,0.217046 0.0311,0.0499 0.0626,0.03295 0.12144,-0.0678 z m 6.90211,0.0089 c 0,-0.02025 -0.0222,-0.07344 -0.0481,-0.123356 -0.0348,-0.06403 -0.057,-0.08052 -0.0862,-0.06215 -0.0348,0.02166 -0.033,0.03861 0.008,0.120994 0.0438,0.09416 0.13038,0.136066 0.12665,0.0645 z m -7.02171,-0.07344 c 0.057,-0.112052 0.0533,-0.130416 -0.0404,-0.18032 -0.081,-0.04049 -0.0829,-0.04049 -0.13607,0.04802 -0.0663,0.106407 -0.0697,0.158193 -0.0145,0.158193 0.0221,0 0.0641,-0.04614 0.0937,-0.10311 0.0292,-0.05697 0.0533,-0.09039 0.0533,-0.07534 0.001,0.01459 -0.0164,0.05886 -0.0386,0.09557 -0.0494,0.08804 -0.0494,0.136065 0,0.136065 0.0221,0 0.0588,-0.03485 0.0829,-0.0791 z m 7.1413,0.03107 c 0.0221,-0.03483 -0.0683,-0.224105 -0.10503,-0.224105 -0.0641,0 -0.0697,0.04755 -0.0222,0.148777 0.0424,0.09039 0.0993,0.123356 0.12706,0.07532 z m 0.2095,-0.106407 c 0.0443,-0.03861 0.0443,-0.0499 0.005,-0.149247 -0.0424,-0.106407 -0.10503,-0.137948 -0.13039,-0.06592 -0.009,0.02025 0.003,0.07721 0.0292,0.124771 0.024,0.04802 0.0386,0.09417 0.0315,0.101228 -0.009,0.0075 -0.0335,-0.03107 -0.0555,-0.08475 -0.0222,-0.05508 -0.0607,-0.09887 -0.0842,-0.09887 -0.0518,0 -0.0518,0.02354 0,0.148776 0.0348,0.08286 0.0533,0.09747 0.0993,0.08286 0.0311,-0.01134 0.0773,-0.03673 0.1045,-0.05886 z m -7.557,-0.05885 c 0.0499,-0.09935 0.0499,-0.139832 -0.001,-0.139832 -0.0315,0 -0.13466,0.205746 -0.11437,0.227875 0.0354,0.03485 0.0626,0.01321 0.11584,-0.08804 z m -0.10824,-0.04425 c 0.0589,-0.09557 0.0551,-0.150661 -0.009,-0.150661 -0.0456,0 -0.13418,0.158195 -0.11584,0.205746 0.024,0.06262 0.0626,0.04614 0.12518,-0.05509 z m 7.81266,0.01459 c 0.0254,-0.03861 -0.0626,-0.220811 -0.1069,-0.220811 -0.0513,0 -0.0513,0.0645 0,0.165726 0.0424,0.08098 0.0791,0.101228 0.1069,0.05508 z m -7.92283,-0.101229 c 0.033,-0.0532 0.0551,-0.100761 0.0512,-0.104525 -0.005,-0.0019 -0.0551,-0.03154 -0.11211,-0.0645 l -0.10316,-0.05886 -0.0513,0.113934 c -0.0296,0.0645 -0.0462,0.125238 -0.0386,0.136066 0.0292,0.04991 0.0844,0.01648 0.12852,-0.07721 0.0259,-0.0532 0.0551,-0.08993 0.0645,-0.08098 0.007,0.0075 -0.005,0.04614 -0.0296,0.08286 -0.024,0.03861 -0.0443,0.08851 -0.0443,0.110171 0,0.0758 0.0758,0.04425 0.13464,-0.05697 z m 8.03677,0.03531 c 0.008,-0.02213 -0.004,-0.08287 -0.0259,-0.136064 -0.0292,-0.07204 -0.0532,-0.09417 -0.0842,-0.08286 -0.0518,0.02025 -0.0518,0.01268 0.001,0.14501 0.0443,0.114414 0.0829,0.137948 0.10877,0.07392 z m 0.11958,-0.08098 c 0,-0.04425 -0.0626,-0.209982 -0.0791,-0.209982 -0.009,0 -0.0315,0.01134 -0.0499,0.02213 -0.0494,0.03155 0.0386,0.251885 0.0922,0.231639 0.0203,-0.0071 0.0367,-0.02731 0.0367,-0.04379 z m -8.40119,-0.08663 c 0.0588,-0.176556 -0.0475,-0.21328 -0.11585,-0.04237 -0.0386,0.101229 -0.0386,0.11252 0.001,0.134181 0.0607,0.03531 0.0773,0.02025 0.11584,-0.09181 z m 8.517,0.0532 c 0.0222,-0.02166 -0.0626,-0.23164 -0.0937,-0.23164 -0.0462,0 -0.0518,0.0791 -0.009,0.16196 0.0424,0.08098 0.0702,0.101229 0.10317,0.06968 z m -8.64364,-0.126652 c 0.0367,-0.09039 0.0386,-0.119593 0.0107,-0.136064 -0.057,-0.03673 -0.0663,-0.02779 -0.0956,0.09181 -0.0499,0.189266 0.0145,0.222694 0.0862,0.04425 z m 8.75947,0.06074 c 0.0203,-0.03343 -0.033,-0.246706 -0.0626,-0.246706 -0.009,0 -0.0367,0.01134 -0.057,0.02589 -0.0348,0.02025 -0.0348,0.04049 -0.004,0.136064 0.0354,0.104993 0.0885,0.141715 0.12331,0.08475 z m -9.80422,-0.03861 c 0,-0.02025 -0.008,-0.09369 -0.0184,-0.163843 -0.0164,-0.125238 -0.0184,-0.126653 -0.25566,-0.262714 -0.13092,-0.07581 -0.26318,-0.136536 -0.29613,-0.136536 -0.0315,0 -0.0551,-0.01459 -0.0518,-0.03295 0.005,-0.02589 -0.0583,-0.03673 -0.23541,-0.04237 -0.26649,-0.0089 -0.35641,0.0056 -0.28862,0.0499 0.0222,0.01268 0.0904,0.02731 0.14925,0.02919 0.0607,0.0019 0.0881,0.0075 0.0622,0.01507 -0.0255,0.0071 -0.0475,0.02166 -0.0475,0.03295 0,0.02401 0.90114,0.54426 0.94728,0.548026 0.0184,0 0.0348,-0.01648 0.0348,-0.03673 z m 0.95811,-0.165726 c 0.0133,-0.06968 -0.0753,-0.09181 -0.0956,-0.02401 -0.009,0.03154 -0.0134,0.02401 -0.009,-0.01836 0.004,-0.04237 -0.0107,-0.06968 -0.0386,-0.07532 -0.0626,-0.01268 -0.11584,0.1968 -0.0626,0.241056 0.0296,0.02589 0.0443,0.01836 0.0663,-0.03295 0.0222,-0.05368 0.0259,-0.05556 0.0203,-0.0095 -0.004,0.02967 0.005,0.07156 0.0203,0.09369 0.0184,0.03155 0.0311,0.02401 0.057,-0.04049 0.0184,-0.04379 0.0367,-0.104525 0.0423,-0.134181 z m 8.95487,0.05697 c -0.0315,-0.158193 -0.0423,-0.178438 -0.0829,-0.163372 -0.0462,0.01836 -0.0481,0.04379 -0.009,0.178438 0.0203,0.07344 0.0386,0.09745 0.0682,0.08616 0.0311,-0.01268 0.0367,-0.03861 0.0255,-0.101228 z m 1.53532,-0.227873 c 0.27401,-0.15631 0.49105,-0.296141 0.48211,-0.310738 -0.008,-0.01321 0.0164,-0.02401 0.0533,-0.02401 0.0367,0 0.0753,-0.01268 0.0847,-0.02589 0.009,-0.01648 -0.0607,-0.03107 -0.1695,-0.03673 -0.18173,-0.0089 -0.18173,-0.0089 0.0481,-0.01459 0.22598,-0.0056 0.36206,-0.04049 0.27213,-0.07015 -0.0221,-0.0071 -0.0588,-0.01836 -0.0829,-0.02542 -0.0222,-0.0075 0.0315,-0.0146 0.11771,-0.01648 0.0847,-0.0019 0.1563,-0.01507 0.1563,-0.02965 0,-0.03861 -0.61959,-0.03485 -0.6436,0.0037 -0.0107,0.01648 -0.001,0.04049 0.0184,0.0532 0.0259,0.01648 -0.001,0.02401 -0.0791,0.02401 -0.0715,0 -0.1101,0.01081 -0.10129,0.02777 0.009,0.01648 -10e-4,0.0273 -0.0254,0.0273 -0.0589,0 -0.70103,0.349344 -0.74482,0.4049 -0.0354,0.04379 -0.048,0.308854 -0.0169,0.339928 0.0222,0.02025 0.0134,0.02589 0.63089,-0.327216 z m -11.3287,0.257534 c 0,-0.02589 -0.004,-0.09039 -0.005,-0.145481 -0.004,-0.07534 -0.0145,-0.09557 -0.0533,-0.08804 -0.0259,0.0052 -0.0462,0.03107 -0.0462,0.05697 10e-4,0.02542 0.005,0.09181 0.008,0.145011 0.004,0.07722 0.0145,0.09557 0.0533,0.08851 0.0259,-0.0056 0.0462,-0.03154 0.0443,-0.05697 z m 9.91625,-0.09745 c 0,-0.125238 -0.0311,-0.174671 -0.0918,-0.151131 -0.0462,0.01695 -0.0462,0.07015 0,0.233994 0.024,0.08428 0.0918,0.02166 0.0918,-0.08286 z m -9.77643,0.07721 c 0.009,-0.01459 0.0274,-0.02025 0.0419,-0.01321 0.0151,0.0095 0.0404,0.0075 0.0588,-0.0052 0.0424,-0.02589 0.1069,-0.02965 0.14361,-0.0056 0.0533,0.03295 0.17467,0.05132 0.18927,0.02966 0.008,-0.01321 0.0221,-0.0758 0.0315,-0.139832 0.0165,-0.104992 0.0145,-0.115816 -0.033,-0.106874 -0.0335,0.0075 -0.0574,0.04237 -0.0702,0.104992 l -0.0184,0.09557 0.005,-0.108755 c 0.004,-0.08428 -0.008,-0.110171 -0.0443,-0.117711 -0.033,-0.0071 -0.048,0.0095 -0.0494,0.05368 -0.001,0.06215 -0.001,0.06215 -0.0222,-0.0037 -0.0134,-0.04049 -0.0367,-0.0645 -0.0589,-0.05885 -0.0221,0.0071 -0.0663,0.0089 -0.10129,0.0071 -0.048,-0.0015 -0.0607,0.01321 -0.0645,0.07204 -0.004,0.0645 -0.005,0.06592 -0.0145,0.01268 -0.008,-0.03862 -0.033,-0.06075 -0.0645,-0.06075 -0.0424,0 -0.0533,0.01836 -0.0533,0.09227 0,0.05131 0.008,0.113934 0.0164,0.137948 0.0184,0.04755 0.081,0.05697 0.1069,0.01459 z m 10.50855,-0.115816 c -0.008,-0.110637 -0.0184,-0.143598 -0.0551,-0.15113 -0.0404,-0.0071 -0.0481,0.01134 -0.0481,0.125238 0,0.139831 0.0134,0.169021 0.0734,0.169021 0.0278,0 0.0354,-0.03485 0.0296,-0.143128 z m -0.56827,-0.02777 c 0,-0.137948 -0.0296,-0.19115 -0.0904,-0.16714 -0.0824,0.03107 -0.0475,0.28296 0.0404,0.28296 0.0424,0 0.0499,-0.02025 0.0499,-0.115816 z m 0.41949,0.03154 c 0.0107,-0.04614 0.0184,-0.106874 0.0184,-0.134654 0,-0.05885 -0.0847,-0.09369 -0.11438,-0.04755 -0.0254,0.04237 -0.0292,0.224108 -0.005,0.250002 0.0419,0.04049 0.0862,0.01081 0.10116,-0.0678 z m -0.30932,-0.0791 c 0,-0.119592 -0.007,-0.136064 -0.057,-0.136064 -0.0423,0 -0.0533,0.01268 -0.0423,0.04379 0.009,0.02401 0.0164,0.08475 0.0164,0.136064 0,0.0645 0.0134,0.09417 0.0424,0.09417 0.0296,0 0.0404,-0.03531 0.0404,-0.137949 z m 0.15819,-0.0075 c 0.008,-0.125238 0.005,-0.132298 -0.0551,-0.123356 -0.0494,0.0075 -0.0645,0.02967 -0.0715,0.09935 -0.0107,0.121475 0.0133,0.174673 0.0697,0.163844 0.0367,-0.0075 0.0513,-0.04049 0.057,-0.139832 z m -11.3014,-0.401138 c 0.0367,-0.01459 -0.0367,-0.02354 -0.21139,-0.02542 -0.16008,0 -0.26459,0.0089 -0.26459,0.02542 0,0.03343 0.39877,0.03343 0.47598,0 z m -0.12852,-0.09181 c 0.0404,-0.04237 -0.0424,-0.05697 -0.27401,-0.04943 -0.26507,0.0089 -0.30179,0.01836 -0.23729,0.06215 0.0424,0.02779 0.47976,0.01695 0.5113,-0.01268 z m -0.18926,-0.09369 c 0.0734,-0.02589 -0.0315,-0.05885 -0.19868,-0.06262 -0.16197,-0.0056 -0.16197,-0.0056 -0.0423,-0.02213 0.081,-0.01081 0.11011,-0.02401 0.0881,-0.03861 -0.0475,-0.03107 -0.605,-0.05697 -0.605,-0.02731 0,0.03485 0.13794,0.08992 0.22975,0.09369 0.0462,0 0.0683,0.0071 0.0499,0.01459 -0.0203,0.0075 -0.0278,0.02589 -0.0184,0.04049 0.0165,0.02589 0.42279,0.02779 0.4967,0.0019 z m 13.69736,-0.08475 c 0,-0.01459 -0.0456,-0.03107 -0.10316,-0.03673 -0.0697,-0.0075 -0.0475,-0.01268 0.0683,-0.01459 0.16714,-0.0056 0.27778,-0.06074 0.11958,-0.06074 -0.13794,0 -0.11958,-0.04802 0.024,-0.06826 0.0753,-0.0089 0.13608,-0.02542 0.13608,-0.03673 0,-0.0089 -0.0702,-0.0532 -0.15632,-0.09935 -0.0866,-0.04379 -0.274,-0.143127 -0.41572,-0.218928 -0.14358,-0.07722 -0.46704,-0.246237 -0.72269,-0.380418 -0.25565,-0.132298 -0.4873,-0.257535 -0.51695,-0.27778 -0.0311,-0.02025 -0.0791,-0.03673 -0.10637,-0.03673 -0.0481,0 -0.0518,0.0146 -0.0372,0.154427 0.008,0.08475 0.0259,0.163843 0.0386,0.174672 0.0107,0.01134 0.31828,0.176555 0.68269,0.369588 l 0.66007,0.349344 -0.081,0.04991 c -0.0443,0.02589 -0.12145,0.07156 -0.16901,0.103111 l -0.0885,0.0532 h 0.33286 c 0.19162,0 0.33475,-0.01134 0.33475,-0.02401 z m -13.58907,-0.229756 c 0.11584,-0.06638 0.32721,-0.182205 0.46892,-0.257536 0.68598,-0.367705 0.63655,-0.330981 0.67327,-0.492941 0.0254,-0.119593 0.0254,-0.146893 -0.008,-0.158193 -0.0203,-0.0089 -0.32722,0.141714 -0.68222,0.334748 -0.35499,0.193034 -0.77261,0.419495 -0.92703,0.502358 -0.15254,0.0805 -0.28861,0.157722 -0.29991,0.169022 -0.0107,0.01081 0.11064,0.02025 0.2726,0.02025 h 0.29049 z m 1.63702,-0.653019 c 0.007,-0.08616 0,-0.101229 -0.048,-0.101229 -0.0443,0 -0.057,0.01836 -0.0589,0.08851 l -0.004,0.08804 -0.0165,-0.09369 c -0.0184,-0.09935 -0.0847,-0.146893 -0.0881,-0.0645 -0.004,0.04425 -0.005,0.04614 -0.0169,0.0019 -0.007,-0.02542 -0.0235,-0.04755 -0.0367,-0.04755 -0.0145,0 -0.0348,-0.0037 -0.0456,-0.0075 -0.012,-0.0037 -0.0296,0.02965 -0.0386,0.07532 -0.0188,0.0791 -0.0203,0.0791 -0.0151,-0.01268 0.004,-0.06826 -0.007,-0.09746 -0.0386,-0.104992 -0.033,-0.0052 -0.0494,0.02025 -0.0607,0.09369 -0.0184,0.116296 -0.0184,0.117711 0.0537,0.130883 0.0274,0.0056 0.0715,0.02025 0.0993,0.02919 0.0367,0.01507 0.0475,0.0056 0.0494,-0.04379 0.001,-0.06074 0.008,-0.05368 0.0386,0.04943 0.008,0.02025 0.0532,0.03107 0.11397,0.02777 0.0993,-0.0056 0.10504,-0.01134 0.11251,-0.108756 z m 0.145,0 c 0.004,-0.08286 0.005,-0.08286 0.0165,-0.01268 0.008,0.0532 0.0278,0.07534 0.0663,0.07534 0.0494,0 0.0533,-0.01268 0.0348,-0.115816 -0.0221,-0.143598 -0.0273,-0.147364 -0.0847,-0.09935 -0.0235,0.02025 -0.0678,0.03295 -0.0956,0.02919 -0.0424,-0.0071 -0.0494,0.0095 -0.0494,0.101229 0,0.09369 0.009,0.112519 0.0533,0.112519 0.0443,0 0.057,-0.02025 0.0589,-0.09039 z m 9.6738,-0.08286 c -0.0133,-0.130416 -0.0773,-0.126652 -0.0773,0.0056 0,0.08851 0.009,0.106874 0.0443,0.09369 0.0274,-0.01081 0.0386,-0.04379 0.033,-0.09935 z m -9.44027,-0.02025 c -0.0164,-0.128535 -0.0348,-0.15631 -0.0753,-0.115816 -0.0424,0.04237 -10e-4,0.226461 0.0499,0.226461 0.033,0 0.0386,-0.02401 0.0254,-0.112052 z m 9.18274,0.0499 c 0.0296,-0.108756 0.0203,-0.184088 -0.024,-0.184088 -0.0222,0 -0.0404,0.01648 -0.0404,0.03673 0,0.02025 -0.007,0.07581 -0.0164,0.123356 -0.0145,0.0645 -0.009,0.08475 0.024,0.08475 0.0222,0 0.048,-0.02777 0.057,-0.06074 z m 0.13418,-0.02777 c 0.0133,-0.08616 -0.0164,-0.158193 -0.0513,-0.122876 -0.009,0.0089 -0.0221,0.06026 -0.0296,0.113934 -0.0164,0.130416 0.0607,0.137949 0.081,0.0089 z m 0.26506,-0.02025 c 0,-0.0791 -0.0107,-0.11017 -0.0404,-0.11017 -0.0296,0 -0.0404,0.03107 -0.0404,0.11017 0,0.0791 0.0107,0.108756 0.0404,0.108756 0.0292,0 0.0404,-0.02966 0.0404,-0.108756 z m 0.1045,-0.02354 c 0.005,-0.08851 -0.001,-0.112519 -0.0348,-0.112519 -0.033,0 -0.0424,0.02966 -0.0424,0.125238 0,0.160077 0.0645,0.15066 0.0773,-0.01268 z m -9.54102,0.05508 c -10e-4,-0.07392 -0.0645,-0.224578 -0.0904,-0.215162 -0.0311,0.01081 -0.0348,0.152544 -0.007,0.229758 0.0133,0.03295 0.0974,0.02025 0.0974,-0.0146 z m 8.93084,-0.07203 c 0.0184,-0.119593 0.007,-0.178439 -0.0354,-0.178439 -0.0274,0 -0.09,0.242941 -0.0715,0.274014 0.0386,0.0645 0.09,0.01883 0.1069,-0.09557 z m 0.74484,-0.0033 c 0.007,-0.08663 -0.0278,-0.163843 -0.0665,-0.139831 -0.0367,0.02213 -0.009,0.242469 0.0278,0.229757 0.0184,-0.0056 0.0348,-0.04614 0.0386,-0.08992 z m -9.55987,0.02731 c 0.0165,-0.01836 -0.0296,-0.174672 -0.0626,-0.211395 -0.0494,-0.05509 -0.0753,0.01081 -0.0475,0.117698 0.0255,0.09935 0.0678,0.136065 0.1101,0.09369 z m 8.68415,-0.106407 c 0.0164,-0.06638 0.0222,-0.129001 0.0146,-0.136065 -0.0419,-0.04237 -0.0842,0 -0.11211,0.106407 -0.0386,0.15631 -0.0386,0.152543 0.0203,0.152543 0.0367,0 0.057,-0.03295 0.0773,-0.122889 z m -8.55561,0.02354 c 0,-0.0033 -0.0184,-0.05697 -0.0419,-0.117697 -0.0296,-0.07156 -0.0574,-0.102643 -0.0829,-0.09181 -0.048,0.01836 -0.048,0.04237 0.001,0.158192 0.0274,0.06827 0.0512,0.08993 0.081,0.0791 0.0235,-0.0095 0.0419,-0.02025 0.0419,-0.02589 z m 8.42896,-0.108288 c 0.0235,-0.108756 0.001,-0.169022 -0.0536,-0.134182 -0.0145,0.0089 -0.0292,0.04379 -0.0292,0.07722 0,0.03295 -0.0107,0.07721 -0.0259,0.09935 -0.0166,0.02542 -0.0145,0.0532 0.005,0.07722 0.0404,0.04755 0.0753,0.0089 0.10503,-0.119592 z m -8.31127,0.0532 c 0.0222,-0.02213 -0.0823,-0.227872 -0.11584,-0.227872 -0.0494,0 -0.0551,0.04943 -0.0145,0.146894 0.0386,0.09039 0.0885,0.123356 0.13038,0.08098 z m 8.17521,-0.108289 c 0.0292,-0.104992 0.0292,-0.129001 -10e-4,-0.149249 -0.0462,-0.0273 -0.0645,-0.01081 -0.10129,0.09935 -0.0278,0.08286 -0.004,0.176556 0.0462,0.176556 0.0134,0 0.0386,-0.05697 0.057,-0.126653 z m -8.0462,0.01268 c 0,-0.05509 -0.0866,-0.187385 -0.12332,-0.187385 -0.0791,0 -0.0715,0.06592 0.0221,0.211397 0.0222,0.03485 0.10117,0.01648 0.10117,-0.02401 z m 7.90636,-0.05509 c 0.0404,-0.115816 0.0386,-0.185971 -0.008,-0.185971 -0.0424,0 -0.13606,0.2081 -0.1121,0.246705 0.033,0.0532 0.09,0.02401 0.11958,-0.06074 z m -7.79808,-0.01134 c 0,-0.0791 -0.081,-0.20198 -0.12291,-0.1855 -0.0499,0.02025 -0.0499,0.0146 0.005,0.132298 0.0462,0.09746 0.11771,0.130883 0.11771,0.0532 z m 7.67284,-0.0791 c 0.0367,-0.102644 0.0367,-0.124771 0.004,-0.152544 -0.033,-0.02542 -0.0462,-0.0146 -0.081,0.06638 -0.0481,0.117698 -0.0494,0.134181 -0.008,0.176555 0.0443,0.04237 0.0386,0.04755 0.0847,-0.09039 z m -7.59891,-0.0824 c -0.0259,-0.0518 -0.0555,-0.09557 -0.0683,-0.09557 -0.0533,0 -0.0551,0.04002 -0.001,0.143127 0.0404,0.0791 0.0626,0.101228 0.0847,0.0791 0.024,-0.02213 0.0184,-0.05697 -0.0145,-0.126653 z m 7.47039,0.02354 c 0.0404,-0.09746 0.0367,-0.172789 -0.0107,-0.172789 -0.0311,0 -0.11771,0.217046 -0.0993,0.24859 0.0315,0.04755 0.0702,0.02025 0.11064,-0.07581 z m -7.29948,0.03155 c 0,-0.0075 -0.0203,-0.05509 -0.0462,-0.108756 -0.0424,-0.08992 -0.11771,-0.132298 -0.11771,-0.0678 0,0.05886 0.0866,0.189266 0.12518,0.189266 0.0222,0 0.0386,-0.0056 0.0386,-0.01268 z m 7.17424,-0.103111 c 0.0589,-0.09557 0.0589,-0.137948 -0.004,-0.15066 -0.0367,-0.0075 -0.10637,0.128534 -0.10637,0.207629 0,0.06074 0.0551,0.03155 0.11011,-0.05697 z m -7.06973,0.03861 c 0.0278,-0.01836 0.024,-0.04425 -0.0235,-0.123356 -0.0626,-0.104525 -0.0993,-0.122876 -0.12332,-0.06026 -0.0164,0.04002 0.0589,0.207629 0.0918,0.205746 0.012,0 0.0348,-0.01081 0.0551,-0.02213 z m 6.95202,-0.09746 c 0.0424,-0.08993 0.0348,-0.180322 -0.0145,-0.180322 -0.033,0 -0.11957,0.215162 -0.0993,0.248589 0.0311,0.04755 0.0678,0.02542 0.11211,-0.06826 z m -6.8103,0.0095 c 0,-0.0518 -0.0918,-0.189739 -0.12666,-0.189739 -0.0588,0 -0.0626,0.04425 -0.009,0.132765 0.0518,0.0824 0.13606,0.117697 0.13606,0.05697 z m 6.68366,-0.08098 c 0.0533,-0.104992 0.0533,-0.161961 -0.001,-0.161961 -0.0151,0 -0.0518,0.04943 -0.0829,0.112052 -0.0462,0.09227 -0.0499,0.117698 -0.0203,0.136066 0.0203,0.01321 0.0386,0.02401 0.0424,0.02401 0.004,0 0.0311,-0.04943 0.0626,-0.11017 z m -6.56597,0.03861 c 0.009,-0.0095 -0.007,-0.0645 -0.0367,-0.121474 -0.0367,-0.07156 -0.0663,-0.09935 -0.0956,-0.08993 -0.0494,0.02025 -0.0494,0.0146 0.005,0.132298 0.0438,0.08993 0.0862,0.117698 0.12666,0.0791 z m 6.42802,-0.09935 c 0.10449,-0.170913 0.033,-0.22647 -0.0777,-0.05697 -0.0512,0.0791 -0.057,0.10311 -0.0274,0.121474 0.0495,0.03295 0.0462,0.03485 0.10504,-0.0645 z m -6.3009,-0.0019 c 0,-0.05697 -0.12518,-0.19115 -0.15818,-0.170906 -0.0481,0.02919 0.0645,0.23729 0.11771,0.217046 0.0221,-0.0075 0.0404,-0.02965 0.0404,-0.04614 z m 6.19214,-0.0791 c 0.057,-0.09181 0.0589,-0.132298 0.008,-0.148777 -0.0278,-0.01134 -0.1436,0.159606 -0.1436,0.211395 0,0.05886 0.0866,0.01836 0.13607,-0.06262 z m -6.06925,0.03295 c 0.024,-0.03673 -0.0881,-0.189267 -0.13794,-0.189267 -0.0551,0 -0.0494,0.04614 0.017,0.137948 0.0607,0.08286 0.0937,0.09745 0.12105,0.05131 z m 5.94401,-0.08993 c 0.0829,-0.108755 0.0866,-0.127119 0.0222,-0.127119 -0.0419,0 -0.14124,0.134652 -0.14124,0.193505 0,0.05131 0.0532,0.02166 0.11904,-0.06638 z m -5.82065,0.01836 c 0,-0.0095 -0.033,-0.06074 -0.0715,-0.112052 -0.0918,-0.121474 -0.15443,-0.0791 -0.0663,0.04567 0.0537,0.07392 0.13794,0.115816 0.13794,0.06638 z m 5.71236,-0.08286 c 0.0443,-0.06592 0.0589,-0.112052 0.0424,-0.128535 -0.0462,-0.04614 -0.21328,0.143127 -0.17655,0.20198 0.0292,0.04802 0.0645,0.02967 0.13418,-0.07344 z m -5.62055,0.02589 c 0.008,-0.01268 -0.0216,-0.06262 -0.0622,-0.113934 -0.0922,-0.110638 -0.13092,-0.07534 -0.0518,0.04755 0.0537,0.08663 0.0885,0.106874 0.11398,0.06638 z m 5.49532,-0.106874 c 0.0922,-0.139832 0.0354,-0.178438 -0.0734,-0.04755 -0.0462,0.05697 -0.0773,0.112052 -0.0697,0.124771 0.0292,0.04614 0.081,0.01836 0.14312,-0.07722 z m -5.37763,0.05179 c 0.0222,-0.01507 0.008,-0.04991 -0.0456,-0.115815 -0.0551,-0.06638 -0.0885,-0.08663 -0.1069,-0.06638 -0.0203,0.01836 -0.0107,0.05509 0.0315,0.113934 0.0659,0.09557 0.0715,0.09935 0.12104,0.06826 z m 5.26934,-0.119592 c 0.0495,-0.06074 0.057,-0.09039 0.0348,-0.112053 -0.024,-0.02401 -0.0513,-0.0075 -0.11211,0.06215 -0.0937,0.110638 -0.10129,0.136066 -0.0348,0.134183 0.0254,-0.0015 0.0773,-0.03861 0.11211,-0.08428 z m -5.12574,0.03861 c 0,-0.01134 -0.0367,-0.0645 -0.0791,-0.115815 -0.0626,-0.07392 -0.0881,-0.08851 -0.1121,-0.0645 -0.0259,0.02589 -0.0184,0.05132 0.0311,0.115816 0.0589,0.07344 0.16197,0.115815 0.16009,0.0645 z m 5.05935,-0.198683 c -0.0386,-0.03673 -0.21704,0.146895 -0.18925,0.191151 0.0145,0.02401 0.0512,0.0019 0.11771,-0.0645 0.0678,-0.06591 0.09,-0.106407 0.0715,-0.126652 z m -4.96188,0.136066 c 0.0203,-0.03295 -0.0956,-0.185973 -0.14313,-0.189268 -0.0518,-0.0019 -0.0424,0.06403 0.0216,0.145011 0.0607,0.07722 0.0942,0.08851 0.12144,0.04425 z m 4.79098,-0.07156 c 0.0937,-0.09039 0.0955,-0.123356 0.009,-0.163842 -0.0607,-0.02777 -0.081,-0.02025 -0.17138,0.04943 -0.057,0.04614 -0.10636,0.08663 -0.11397,0.09227 -0.005,0.0071 0.0107,0.02025 0.0367,0.02919 0.0315,0.01321 0.0773,-0.01081 0.13983,-0.07344 0.0514,-0.04943 0.0937,-0.07722 0.0937,-0.05886 0,0.01648 -0.0311,0.0532 -0.0678,0.08286 -0.0721,0.05697 -0.0904,0.113934 -0.0348,0.113934 0.0184,0 0.0659,-0.03295 0.10824,-0.07156 z m -4.66952,-0.02025 c 0,-0.01836 -0.0367,-0.06826 -0.081,-0.110637 -0.0697,-0.06968 -0.0829,-0.07344 -0.0993,-0.03107 -0.0107,0.03107 0.009,0.07344 0.0589,0.125237 0.0734,0.07862 0.12145,0.08428 0.12145,0.01648 z m 4.47272,-0.09935 c 0.0514,-0.04426 0.0866,-0.08663 0.0753,-0.09557 -0.0424,-0.04425 -0.25754,0.09557 -0.226,0.146895 0.0274,0.04425 0.0456,0.03861 0.15066,-0.05132 z m -4.37902,0.03295 c 0.0222,-0.03673 -0.13795,-0.176554 -0.17468,-0.154426 -0.0222,0.01268 -0.007,0.04425 0.0443,0.09745 0.0791,0.08286 0.10636,0.09557 0.13039,0.05697 z m 4.28909,-0.115815 c 0.0805,-0.05132 0.10077,-0.106874 0.0367,-0.106874 -0.0499,0 -0.21704,0.114414 -0.20244,0.137948 0.0222,0.03861 0.0645,0.03155 0.16572,-0.03107 z m -4.18033,0.0075 c 0.0107,-0.02025 -0.15255,-0.169492 -0.18598,-0.169492 -0.0348,0 -0.0107,0.07015 0.0443,0.129001 0.0589,0.06215 0.11584,0.08098 0.14172,0.04049 z m 4.08994,-0.08851 c 0.0607,-0.03673 0.0904,-0.07156 0.081,-0.09557 -0.0184,-0.0499 -0.0145,-0.0499 -0.13039,0.01836 -0.0956,0.05697 -0.1125,0.08098 -0.0791,0.113934 0.0255,0.02589 0.0222,0.02589 0.12852,-0.03673 z m -4.0956,-0.09935 c -0.0773,-0.0645 -0.14171,-0.08098 -0.14171,-0.03861 0,0.0146 0.0386,0.05697 0.0885,0.09557 0.1121,0.08851 0.16336,0.03343 0.0533,-0.05697 z m 4.03298,-0.02731 c 0.0443,-0.02589 0.081,-0.06262 0.081,-0.08286 0,-0.04049 -0.033,-0.04614 -0.0697,-0.01134 -0.0145,0.01321 -0.057,0.03343 -0.0937,0.04237 -0.0481,0.01321 -0.0372,0 0.033,-0.03861 0.057,-0.03107 0.10317,-0.07344 0.10317,-0.09557 0,-0.0532 -0.024,-0.05132 -0.13093,0.01268 -0.0937,0.05886 -0.0956,0.06262 -0.0697,0.158193 0.0184,0.07392 0.0443,0.07534 0.14878,0.01507 z m -3.90256,-0.04614 c 0,-0.01836 -0.0475,-0.06074 -0.1045,-0.09369 -0.0866,-0.04802 -0.11064,-0.05368 -0.12145,-0.02213 -0.0145,0.04049 0.0348,0.09557 0.13039,0.146895 0.0607,0.03343 0.0956,0.02025 0.0956,-0.03107 z m 0.0404,-0.09745 c 0.0184,-0.02967 -0.13794,-0.137948 -0.19679,-0.137948 -0.0607,0 -0.0367,0.04755 0.0551,0.106407 0.0993,0.0645 0.11958,0.06826 0.14172,0.03155 z m 3.79616,-0.08475 c 0.0881,-0.05508 0.11958,-0.108289 0.0659,-0.108289 -0.0494,0 -0.19303,0.09746 -0.19303,0.130416 0,0.04614 0.0203,0.04237 0.12705,-0.02213 z m -3.21658,-0.314504 c 0.31074,-0.172788 0.57722,-0.325332 0.58851,-0.336632 0.0134,-0.01268 0.0184,-0.0824 0.0145,-0.154426 l -0.009,-0.134183 -0.0311,0.09557 c -0.0292,0.08851 -0.0311,0.09039 -0.033,0.02213 -0.004,-0.106407 -0.0551,-0.123356 -0.0753,-0.02401 -0.0133,0.06827 -0.024,0.07722 -0.0537,0.05368 -0.0292,-0.02401 -0.0438,-0.01695 -0.0626,0.03295 -0.0198,0.04755 -0.0274,0.0532 -0.0274,0.01836 -0.004,-0.04943 -0.057,-0.06968 -0.057,-0.02213 0,0.01648 -0.0184,0.02777 -0.0404,0.02777 -0.024,0 -0.0424,0.01268 -0.0424,0.02919 0,0.01648 -0.0107,0.02213 -0.024,0.01321 -0.0133,-0.0075 -0.09,0.02025 -0.17089,0.06215 -0.29615,0.158193 -0.78533,0.447273 -0.78533,0.463751 0,0.0146 0.21328,0.165256 0.23541,0.169022 0.004,0 0.2613,-0.141715 0.57393,-0.316386 z m 3.20906,0.176555 c 0.1563,-0.09746 0.16761,-0.08286 -0.21517,-0.282959 -0.13418,-0.07203 -0.46517,-0.250472 -0.73541,-0.395483 -0.88653,-0.478347 -0.9435,-0.504242 -0.97127,-0.461868 -0.0145,0.02024 -0.0222,0.09229 -0.0184,0.156309 l 0.008,0.117698 0.50375,0.272129 c 0.27778,0.149249 0.64549,0.347932 0.81828,0.439741 0.17279,0.09039 0.33852,0.182205 0.36817,0.202449 0.0734,0.05132 0.0918,0.04755 0.24247,-0.04802 z m -2.49766,-0.728348 c 0.004,-0.09369 -0.003,-0.169023 -0.0184,-0.169023 -0.0348,0 -0.0475,0.04802 -0.0551,0.215163 -0.005,0.11017 0.001,0.143597 0.0296,0.134182 0.0235,-0.0071 0.0386,-0.07156 0.0438,-0.180322 z m 0.1069,-0.04049 c 0.012,-0.143128 -0.0311,-0.174673 -0.057,-0.04191 -0.0259,0.128534 -0.0203,0.193032 0.0145,0.17985 0.0184,-0.0052 0.0367,-0.0678 0.0424,-0.137948 z m 0.0956,-0.0532 c 0.0133,-0.160077 0.0107,-0.169022 -0.0311,-0.145011 -0.0348,0.02166 -0.0386,0.288609 -0.004,0.288609 0.012,0 0.0292,-0.0645 0.0348,-0.143598 z m 0.16384,0.04425 c 0.0386,-0.01268 0.0475,-0.0499 0.0475,-0.178439 0,-0.169022 -0.0512,-0.206215 -0.057,-0.04237 -0.001,0.07534 -0.005,0.0791 -0.0203,0.02589 -0.0311,-0.112052 -0.0715,-0.06638 -0.081,0.09181 -0.005,0.117698 0,0.149248 0.0278,0.136065 0.0203,-0.0089 0.057,-0.02401 0.0829,-0.03295 z m 0.15443,-0.215161 c -0.004,-0.196802 -0.0607,-0.187856 -0.0734,0.0089 -0.005,0.11252 0,0.141715 0.033,0.141715 0.033,0 0.0404,-0.03295 0.0404,-0.150659 z m 2.36866,6.517942 c -0.0404,-0.08286 -0.0734,-0.15631 -0.0734,-0.163843 0,-0.03107 0.0791,-0.0075 0.14549,0.04425 0.0823,0.06592 0.0881,0.05508 0.0311,-0.05697 -0.033,-0.06262 -0.0348,-0.08098 -0.008,-0.08098 0.0183,0 0.0753,0.07344 0.12518,0.163373 0.0715,0.132765 0.081,0.163843 0.0443,0.163843 -0.024,0 -0.0753,-0.02589 -0.11438,-0.05508 -0.0862,-0.06827 -0.1101,-0.0499 -0.0512,0.03861 0.0533,0.08286 0.0551,0.09746 0.009,0.09746 -0.0184,0 -0.0683,-0.06638 -0.10877,-0.15066 z m -5.28347,0.09181 c -0.0721,-0.02777 -0.16385,-0.101229 -0.16385,-0.130416 0,-0.01134 0.0386,-0.07581 0.0847,-0.145481 0.0937,-0.143598 0.15066,-0.158195 0.27213,-0.07156 0.0993,0.06968 0.0993,0.11017 0.004,0.244353 -0.0885,0.125237 -0.1069,0.136064 -0.1968,0.10311 z m 0.10823,-0.156312 c 0.0404,-0.07532 0.0348,-0.137948 -0.0133,-0.137948 -0.0499,0 -0.13418,0.123356 -0.11064,0.16196 0.0278,0.04567 0.0922,0.03295 0.12332,-0.02401 z m 5.48968,-0.01134 c -0.0292,-0.05132 -0.0753,-0.122889 -0.10116,-0.161488 -0.0457,-0.07015 -0.0457,-0.07204 0.0404,-0.115815 0.0974,-0.0518 0.14547,-0.03343 0.0645,0.02542 -0.0404,0.02967 -0.0443,0.04614 -0.0184,0.07204 0.0259,0.02731 0.0424,0.02542 0.0753,-0.0019 0.0259,-0.02025 0.0404,-0.02401 0.0404,-0.0056 0,0.01648 -0.0107,0.03673 -0.0259,0.04614 -0.033,0.02025 -0.0348,0.06968 -0.004,0.119592 0.0188,0.02731 0.0372,0.02919 0.081,0.0052 0.0481,-0.02542 0.0589,-0.02401 0.0589,0.0056 0,0.02965 -0.1045,0.101228 -0.14877,0.101228 -0.005,0 -0.033,-0.04049 -0.0626,-0.09039 z m -6.01369,-0.07532 c -0.057,-0.02919 -0.10316,-0.06403 -0.10316,-0.07532 0,-0.04943 0.0386,-0.05509 0.11584,-0.0146 0.0607,0.03107 0.0885,0.03485 0.1121,0.01081 0.024,-0.02354 0.0134,-0.04567 -0.0438,-0.08616 -0.0829,-0.06074 -0.0961,-0.134183 -0.0315,-0.187855 0.0348,-0.02919 0.0626,-0.02542 0.16384,0.02401 0.13419,0.0645 0.1436,0.127119 0.0133,0.07721 -0.11023,-0.04049 -0.12852,-0.01081 -0.0443,0.07156 0.0683,0.07015 0.0702,0.121475 0.008,0.20245 -0.0348,0.04614 -0.0678,0.04237 -0.18925,-0.02213 z m 6.21238,-0.134181 c -0.0734,-0.07344 -0.12705,-0.141716 -0.11771,-0.15066 0.0222,-0.02213 0.13039,0.03673 0.13039,0.06968 0,0.01459 0.0134,0.02589 0.0278,0.02589 0.0184,0 0.0221,-0.03485 0.0107,-0.09557 -0.0216,-0.113934 10e-4,-0.117698 0.1069,-0.02025 l 0.0791,0.07532 -0.0203,-0.123356 c -0.0259,-0.167139 0.0222,-0.11017 0.0773,0.09557 0.0533,0.189737 0.0221,0.263185 -0.0626,0.15113 -0.0588,-0.07721 -0.10129,-0.06074 -0.057,0.02213 0.0734,0.13936 -0.0145,0.113934 -0.17466,-0.0499 z m -6.52877,-0.0678 c -0.0367,-0.03861 -0.0937,-0.06826 -0.13039,-0.06826 -0.10316,0 -0.0777,-0.04425 0.10076,-0.165727 0.22459,-0.152543 0.25377,-0.136065 0.17844,0.108756 -0.0311,0.106874 -0.0641,0.193034 -0.0715,0.193034 -0.008,0 -0.0424,-0.03107 -0.0773,-0.0678 z m 0.0645,-0.125238 c 0.0107,-0.01459 0.0134,-0.03485 0.005,-0.04049 -0.0184,-0.02025 -0.1013,0.01836 -0.1013,0.04614 0,0.03295 0.0739,0.02919 0.0961,-0.0056 z m 6.96098,0.03673 c -0.0626,-0.0678 -0.1069,-0.196801 -0.0885,-0.255653 0.0424,-0.130416 0.20245,-0.07156 0.2759,0.104993 0.0462,0.108288 0.0462,0.10311 -0.005,0.154426 -0.0551,0.05697 -0.12852,0.05508 -0.18173,-0.0037 z m 0.12665,-0.05697 c 0.0184,-0.02919 -0.0842,-0.194916 -0.11958,-0.194916 -0.0424,0 -0.033,0.08804 0.0151,0.156309 0.0438,0.0645 0.0805,0.07722 0.1045,0.03861 z m 0.0885,-0.176554 -0.0956,-0.169023 0.0956,-0.0499 c 0.11397,-0.05886 0.17278,-0.02731 0.17278,0.09181 0,0.0499 0.0259,0.09605 0.0753,0.134654 0.081,0.06215 0.0702,0.06403 -0.10504,0.01081 -0.057,-0.01836 -0.057,-0.01648 -0.0133,0.05131 0.0386,0.05886 0.0386,0.07015 0.004,0.08286 -0.0278,0.01134 -0.0683,-0.03485 -0.13418,-0.152544 z m 0.10263,-0.09746 c 0.0188,-0.02965 -0.0603,-0.101228 -0.0824,-0.07722 -0.024,0.02401 0.009,0.101228 0.0423,0.101228 0.0145,0 0.033,-0.01134 0.04,-0.02401 z m -7.80326,0.169022 c -0.0367,-0.01459 0.14359,-0.336632 0.18973,-0.336632 0.0145,0 0.0678,0.02589 0.11958,0.05744 0.19633,0.120994 0.0475,0.351227 -0.15678,0.242468 -0.04,-0.02213 -0.057,-0.02024 -0.0697,0.01321 -0.0164,0.04379 -0.0278,0.04755 -0.0829,0.02354 z m 0.30744,-0.120994 c 0.009,-0.01695 -0.001,-0.04991 -0.0278,-0.07392 -0.0424,-0.04237 -0.0481,-0.04237 -0.0847,0.0075 -0.0222,0.02919 -0.0404,0.06262 -0.0404,0.07532 0,0.03295 0.13092,0.02589 0.15301,-0.0089 z m 7.654,-0.09227 c -0.0805,-0.134181 -0.0937,-0.203862 -0.0386,-0.203862 0.0107,0 0.0555,0.06215 0.0974,0.137949 0.0589,0.106407 0.0904,0.136064 0.12905,0.124771 0.0678,-0.01648 0.0678,0.02589 0,0.06262 -0.0829,0.04426 -0.0937,0.03673 -0.18925,-0.121475 z m 0.19164,-0.115816 -0.0904,-0.154427 0.0626,-0.04802 c 0.0443,-0.03295 0.0702,-0.03861 0.0904,-0.01836 0.0184,0.02024 0.0164,0.03343 -0.008,0.04237 -0.0184,0.0075 -0.033,0.02965 -0.033,0.0518 0,0.02731 0.0184,0.03485 0.0734,0.02166 0.0715,-0.01648 0.0734,-0.01648 0.0222,0.02401 -0.0462,0.03485 -0.0481,0.04614 -0.0151,0.08663 0.0203,0.02589 0.0589,0.04049 0.0866,0.03295 0.0734,-0.02025 0.0753,0.04425 0.001,0.08286 -0.0367,0.02025 -0.0734,0.03485 -0.0847,0.03485 -0.009,-0.0019 -0.057,-0.07156 -0.10637,-0.15631 z m -8.62578,0.0532 -0.0607,-0.04943 0.1013,-0.156309 c 0.0537,-0.08663 0.11063,-0.148778 0.12518,-0.139832 0.0404,0.02401 0.0311,0.05885 -0.0462,0.180322 -0.0626,0.101228 -0.0659,0.115815 -0.0255,0.137948 0.0235,0.01268 0.0419,0.03673 0.0419,0.04943 0,0.04237 -0.0697,0.03154 -0.13608,-0.02213 z m 8.86825,-0.165256 c -0.0659,-0.185971 -0.0715,-0.222695 -0.0222,-0.222695 0.0372,0 0.29285,0.246707 0.29285,0.28343 0,0.01081 -0.0221,0.01459 -0.048,0.0052 -0.0532,-0.01648 -0.12332,0.01695 -0.11771,0.05556 0.004,0.01268 -0.005,0.02731 -0.0203,0.03107 -0.0145,0.0056 -0.0514,-0.0645 -0.0847,-0.152543 z m 0.12718,-0.0095 c -0.008,-0.01836 -0.0259,-0.03673 -0.0443,-0.04379 -0.0183,-0.0056 -0.0259,0.0071 -0.0145,0.03295 0.0184,0.04943 0.0753,0.06074 0.0589,0.01081 z m -9.27126,0.02213 -0.0989,-0.05886 0.0956,-0.148778 c 0.0533,-0.08287 0.10076,-0.15631 0.10636,-0.161959 0.0184,-0.02025 0.20056,0.07722 0.20056,0.106874 0,0.03485 -0.0462,0.03673 -0.0682,0 -0.0255,-0.04049 -0.0956,-0.03343 -0.0956,0.01268 0,0.02213 0.0259,0.05697 0.057,0.0791 0.0626,0.04237 0.0334,0.08475 -0.0311,0.04426 -0.0993,-0.0645 -0.17655,0.03295 -0.081,0.100761 0.0533,0.03908 0.0753,0.09416 0.0348,0.08851 -0.0107,-0.0019 -0.0641,-0.02919 -0.11957,-0.06262 z m 9.39084,-0.145006 c -0.048,-0.08286 -0.0866,-0.160076 -0.0866,-0.174671 0,-0.04049 0.0626,-0.02779 0.15066,0.02919 0.11624,0.07722 0.13654,0.06827 0.0663,-0.02919 -0.0348,-0.04802 -0.0494,-0.09417 -0.0348,-0.106874 0.0145,-0.01459 0.0663,0.04237 0.12478,0.136065 0.11771,0.187385 0.0961,0.229758 -0.0622,0.125238 -0.12145,-0.0791 -0.13093,-0.06826 -0.0555,0.05697 0.0404,0.06592 0.0443,0.08993 0.0188,0.101229 -0.0203,0.0071 -0.0702,-0.04802 -0.12145,-0.137949 z m 0.36771,-0.04802 c -0.008,-0.02025 0.004,-0.04425 0.0259,-0.0532 0.0641,-0.02401 0.0456,-0.09745 -0.0278,-0.09745 -0.10637,0 -0.15254,-0.02967 -0.15254,-0.09746 0,-0.06826 0.0937,-0.141715 0.12144,-0.09557 0.009,0.01459 0.003,0.03295 -0.0107,0.04191 -0.057,0.03531 -0.0254,0.06826 0.0645,0.06826 0.0791,0 0.0974,0.01268 0.12145,0.08098 0.0221,0.06262 0.0184,0.08616 -0.0184,0.117698 -0.0773,0.06592 -0.1069,0.07532 -0.12332,0.03485 z m -9.76939,-2.734956 c -0.0424,-0.07722 -0.0715,-0.100749 -0.11584,-0.09745 -0.0918,0.01134 -0.0715,-0.02542 0.0494,-0.09181 0.0791,-0.04237 0.10877,-0.04943 0.10877,-0.02213 0,0.01836 -0.0145,0.04049 -0.0315,0.04614 -0.0184,0.0056 -0.009,0.04425 0.0277,0.104992 0.0589,0.09557 0.0734,0.161489 0.0367,0.161489 -0.0107,0 -0.0443,-0.04567 -0.0753,-0.101228 z m 9.75291,0.05368 c 0,-0.01134 0.024,-0.06074 0.0532,-0.110638 0.0367,-0.05697 0.0499,-0.112052 0.0386,-0.15631 -0.0203,-0.0791 -0.0145,-0.08098 0.1121,-0.02025 0.0961,0.04425 0.11771,0.110637 0.0315,0.09557 -0.0259,-0.0052 -0.0715,0.03531 -0.11211,0.101228 -0.0626,0.09935 -0.12518,0.143598 -0.12331,0.09039 z m -9.57446,-0.185971 -0.0682,-0.123356 0.0682,-0.0532 c 0.0367,-0.02731 0.0773,-0.05132 0.0881,-0.0532 0.0372,0 0.0222,0.04755 -0.0203,0.0645 -0.0475,0.01836 -0.0551,0.08804 -0.0107,0.113934 0.0164,0.01081 0.0424,0.0056 0.0607,-0.01134 0.0164,-0.01648 0.0424,-0.03107 0.0588,-0.03107 0.0145,0.0019 -0.001,0.02401 -0.0367,0.05131 -0.0773,0.05886 -0.057,0.129002 0.024,0.08475 0.0844,-0.04425 0.0989,-0.02919 0.0274,0.02777 -0.0974,0.07722 -0.11584,0.06968 -0.19115,-0.07015 z m 9.40684,0.104992 c -10e-4,-0.01134 0,-0.05509 0.001,-0.09557 0.005,-0.09227 -0.0311,-0.09746 -0.0881,-0.01507 -0.0348,0.05368 -0.0443,0.05556 -0.0589,0.01883 -0.0203,-0.05179 0.11771,-0.298025 0.16713,-0.298025 0.0184,0 0.0665,0.02919 0.1069,0.06403 0.0829,0.07204 0.0753,0.149249 -0.0164,0.175144 -0.0481,0.01081 -0.0702,0.07156 -0.057,0.150659 0.001,0.01081 -0.009,0.02025 -0.024,0.02025 -0.0145,0 -0.0296,-0.0095 -0.0315,-0.02025 z m 0.0721,-0.24859 c 0,-0.04943 -0.0537,-0.04002 -0.0645,0.01134 -0.005,0.02777 0.004,0.04049 0.0278,0.03295 0.0203,-0.0071 0.0367,-0.02542 0.0367,-0.04425 z m -9.17003,0.08098 c 0.0145,-0.07722 0.008,-0.09369 -0.0645,-0.134181 -0.0862,-0.04943 -0.11211,-0.104525 -0.033,-0.07534 0.0847,0.03295 0.0993,0.02966 0.11063,-0.02589 0.0198,-0.104525 0.0641,-0.113934 0.0456,-0.0089 -0.0164,0.09181 -0.0134,0.104993 0.0663,0.14501 0.10637,0.05556 0.10824,0.0791 0.001,0.05556 -0.0702,-0.01507 -0.081,-0.01134 -0.081,0.03673 0,0.03107 -0.0145,0.06403 -0.0315,0.07534 -0.0235,0.01268 -0.0274,-0.0056 -0.0145,-0.06826 z m 8.72134,-0.04191 c -0.0404,-0.04802 -0.0151,-0.156781 0.0551,-0.232111 0.09,-0.09557 0.21516,-0.06591 0.21516,0.0518 0,0.158192 -0.18597,0.282958 -0.27025,0.18032 z m 0.16338,-0.101229 c 0.0404,-0.07722 -0.007,-0.125238 -0.0659,-0.0645 -0.0259,0.02401 -0.0443,0.06262 -0.0443,0.08286 0,0.06074 0.0753,0.04755 0.11023,-0.01836 z m -8.64555,-0.06262 c -0.0607,-0.244822 -0.0203,-0.268363 0.16385,-0.09557 0.0659,0.06074 0.0974,0.104525 0.0678,0.09557 -0.0589,-0.02025 -0.18927,0.05508 -0.16527,0.09369 0.009,0.0146 0.005,0.02777 -0.009,0.02777 -0.0145,0 -0.0404,-0.05508 -0.057,-0.121474 z m 0.13418,-0.04614 c 0,-0.02919 -0.0773,-0.0645 -0.0974,-0.04567 -0.008,0.0071 -0.005,0.03295 0.004,0.05697 0.0164,0.04379 0.0937,0.03485 0.0937,-0.01134 z m 8.06269,0.06262 c -0.009,-0.01648 0.0145,-0.09557 0.0551,-0.178438 l 0.0739,-0.148778 0.09,0.04237 c 0.11211,0.05508 0.12852,0.09745 0.0663,0.174673 -0.0424,0.05132 -0.0607,0.05697 -0.11437,0.03295 -0.0551,-0.02589 -0.0715,-0.02025 -0.11024,0.03673 -0.0259,0.03861 -0.0512,0.05508 -0.0607,0.04049 z m 0.24105,-0.198684 c -0.024,-0.03861 -0.0866,-0.02919 -0.10317,0.0146 -0.009,0.02213 0,0.04425 0.0164,0.05178 0.0424,0.0146 0.10503,-0.03485 0.0866,-0.06638 z m -8.15119,0.01321 c -0.0881,-0.154898 -0.0881,-0.158193 -10e-4,-0.1968 0.12705,-0.05744 0.17655,-0.02777 0.17655,0.108289 0,0.02919 0.0188,0.05886 0.0404,0.06826 0.0222,0.0089 0.0404,0.02731 0.0404,0.04191 0,0.01695 -0.0203,0.02025 -0.0475,0.0095 -0.0259,-0.01134 -0.0645,-0.02589 -0.0866,-0.03485 -0.0274,-0.01134 -0.033,0 -0.0221,0.04379 0.0296,0.108755 -0.0292,0.08663 -0.0993,-0.04002 z m 0.10503,-0.123356 c -0.024,-0.03673 -0.0937,-0.02777 -0.0937,0.01268 0,0.02025 0.007,0.04425 0.0164,0.05508 0.0259,0.02401 0.0956,-0.03673 0.0773,-0.0678 z m 7.63047,0.209509 c -0.0937,-0.05132 -0.0956,-0.05697 -0.0367,-0.169021 0.0993,-0.185971 0.0956,-0.184088 0.19116,-0.134183 0.0462,0.02354 0.0847,0.05697 0.0847,0.07156 0,0.03295 -0.0184,0.03295 -0.081,-0.0019 -0.0367,-0.01836 -0.057,-0.01648 -0.0697,0.0037 -0.0188,0.02731 0.0164,0.0645 0.0805,0.08616 0.0151,0.0056 0.017,0.02401 0.004,0.04237 -0.0145,0.02589 -0.0292,0.02777 -0.0589,0.0037 -0.0203,-0.01836 -0.0588,-0.02401 -0.0862,-0.01268 -0.0443,0.01648 -0.0423,0.02213 0.0145,0.0678 0.0993,0.08098 0.0753,0.106874 -0.0424,0.04237 z m -7.4445,-0.239173 c -0.0354,-0.06403 -0.0626,-0.132298 -0.0626,-0.15066 0,-0.04049 0.0456,-0.04425 0.0678,-0.0075 0.0296,0.04614 0.0645,0.03155 0.0734,-0.03107 0.005,-0.03295 0.024,-0.0645 0.0443,-0.07015 0.0259,-0.0089 0.0278,0.0056 0.005,0.06074 -0.0367,0.09605 -0.0404,0.08663 0.0753,0.151132 l 0.10316,0.05509 -0.11958,-0.01648 c -0.11023,-0.01648 -0.11584,-0.01507 -0.09,0.03673 0.0274,0.04943 0.0184,0.08804 -0.0203,0.08804 -0.009,0 -0.0443,-0.0532 -0.0773,-0.115816 z m 7.14648,0.08475 c -0.0184,-0.01836 -0.0222,-0.06074 -0.007,-0.115816 0.0107,-0.04614 0.0292,-0.119593 0.0386,-0.16196 0.0274,-0.121475 0.0791,-0.05697 0.0589,0.07344 l -0.0184,0.110637 0.0773,-0.07344 c 0.0734,-0.07203 0.14314,-0.09793 0.14314,-0.05556 0,0.02401 -0.22224,0.25377 -0.24625,0.25377 -0.009,0 -0.0296,-0.0146 -0.0462,-0.03107 z m -0.23729,-0.121475 c -0.0274,-0.02025 -0.0641,-0.04049 -0.0791,-0.04567 -0.0311,-0.01134 0.1125,-0.292845 0.14736,-0.292845 0.0533,0 0.16197,0.06638 0.16197,0.09935 0,0.04425 -0.0151,0.04614 -0.0829,0.0095 -0.0682,-0.03673 -0.1069,0.02213 -0.0443,0.0678 0.0645,0.04802 0.0551,0.07204 -0.024,0.0518 -0.0791,-0.02025 -0.0937,0.03295 -0.0222,0.08428 0.024,0.01883 0.0334,0.04049 0.0184,0.04802 -0.0133,0.0095 -0.0475,-0.0019 -0.0753,-0.02213 z m -6.56927,-0.04425 c -0.0386,-0.100761 -0.0512,-0.288609 -0.0221,-0.306971 0.0296,-0.01836 0.26696,0.165726 0.27213,0.209513 0.001,0.01134 -0.033,0.02025 -0.0753,0.02025 -0.0512,0 -0.0937,0.02213 -0.11958,0.06074 -0.0311,0.0499 -0.0404,0.05179 -0.0551,0.01648 z m 0.11585,-0.113934 c 0,-0.0052 -0.0184,-0.02542 -0.0404,-0.04425 -0.033,-0.02731 -0.0404,-0.02542 -0.0404,0.01134 0,0.02401 0.0184,0.04425 0.0404,0.04425 0.0221,0 0.0404,-0.0056 0.0404,-0.01134 z m 6.22744,0.04614 c -0.0184,-0.0075 -0.0259,-0.02965 -0.0165,-0.05131 0.007,-0.02213 0.005,-0.05932 -0.004,-0.08475 -0.0145,-0.04049 -0.0221,-0.03861 -0.0607,0.01648 -0.0259,0.03861 -0.0533,0.05131 -0.0683,0.03485 -0.0164,-0.0146 0.005,-0.07722 0.0588,-0.16196 0.0922,-0.146895 0.12332,-0.154427 0.24107,-0.06403 0.0551,0.04049 0.0607,0.05697 0.033,0.106407 -0.0166,0.03343 -0.0456,0.05886 -0.0659,0.05886 -0.0203,0 -0.048,0.03485 -0.0607,0.0791 -0.0133,0.04237 -0.0386,0.07204 -0.057,0.06638 z m 0.10117,-0.23729 c 0,-0.02025 -0.0184,-0.04614 -0.0404,-0.0532 -0.024,-0.0095 -0.0424,-0.01134 -0.0424,-0.0056 0,0.0056 -0.008,0.02919 -0.0164,0.0532 -0.0107,0.03155 0,0.04425 0.0424,0.04425 0.0311,0 0.057,-0.01836 0.057,-0.03861 z m -6.20719,0.04943 c -0.09,-0.152543 -0.0626,-0.203862 0.0702,-0.134181 0.10076,0.0518 0.12478,0.04049 0.0843,-0.03673 -0.0367,-0.0678 -0.0367,-0.08616 -0.005,-0.08616 0.0145,0 0.057,0.05508 0.0937,0.124771 0.081,0.143598 0.0512,0.180321 -0.0866,0.108756 -0.11398,-0.05886 -0.12145,-0.05556 -0.0734,0.03861 0.0697,0.132297 -0.004,0.121474 -0.0829,-0.01507 z m 5.80418,0.02213 c -0.024,-0.0071 -0.0254,-0.02542 -0.005,-0.06403 0.0513,-0.09417 -0.0536,-0.154898 -0.10503,-0.06074 -0.0145,0.02354 -0.0386,0.03673 -0.0551,0.02542 -0.0315,-0.01836 0.11584,-0.288609 0.15631,-0.288609 0.0438,0 0.0533,0.03485 0.0222,0.08475 -0.0259,0.04237 -0.0259,0.05886 0.007,0.0791 0.0296,0.02025 0.0533,0.01081 0.0904,-0.03343 0.0292,-0.03485 0.0589,-0.04755 0.0734,-0.03295 0.033,0.03295 -0.13983,0.30697 -0.18408,0.290492 z m -5.47509,-0.187385 c -0.009,-0.07015 -0.0235,-0.141714 -0.0311,-0.160076 -0.0296,-0.07722 0.0753,-0.05886 0.19115,0.03295 0.11584,0.08851 0.14737,0.169493 0.0532,0.132765 -0.0216,-0.0075 -0.0697,0.0146 -0.10637,0.0532 -0.0386,0.03673 -0.0734,0.0678 -0.0773,0.0678 -0.005,0 -0.0184,-0.05697 -0.0296,-0.126652 z m 0.11251,-0.06074 c -0.0499,-0.04802 -0.081,-0.03107 -0.057,0.03107 0.009,0.02401 0.0348,0.03673 0.0583,0.02777 0.0354,-0.01268 0.0354,-0.02025 -0.001,-0.05886 z m 4.96707,0.02025 c -0.0273,-0.0146 -0.0404,-0.04049 -0.0311,-0.05509 0.009,-0.01648 0.0292,-0.01507 0.0551,0.0052 0.048,0.04049 0.0866,0.0095 0.0424,-0.03485 -0.0866,-0.08616 0,-0.200566 0.13039,-0.170905 0.0993,0.02213 0.11063,0.0678 0.0151,0.0678 -0.0721,0 -0.0904,0.04991 -0.0372,0.103111 0.024,0.02401 0.024,0.04049 -10e-4,0.07392 -0.0404,0.04755 -0.10317,0.05132 -0.17327,0.01081 z"
       style="fill:#000000;fill-opacity:1;fill-rule:nonzero;stroke:none;stroke-width:0.470813"
       id="path2439" />
  </g>
</svg>
