<svg xmlns="http://www.w3.org/2000/svg" width="32" height="32" viewBox="-16 -16 32 32" xmlns:v="https://vecta.io/nano"><circle r="15" fill="#fff" stroke="#000"/><path d="M5.399 1.878h1.567v4.49H5.399zm2.491 0v4.507l3.477 1.549V.319zM-7.207-1.265c-.467 0-.88.37-.88.88v9.068c0 .467.37.88.88.88H3.639c.467 0 .88-.37.88-.88V-.385c0-.467-.37-.88-.88-.88h-9.983zm.845-9.895c2.483 0 4.49 2.007 4.49 4.49s-2.007 4.49-4.49 4.49-4.49-2.007-4.49-4.49 2.007-4.49 4.49-4.49zm8.997 0c2.483 0 4.49 2.007 4.49 4.49s-2.007 4.49-4.49 4.49-4.49-2.007-4.49-4.49 2.007-4.49 4.49-4.49z"/></svg>