<svg xmlns="http://www.w3.org/2000/svg" width="32" height="32" viewBox="-16 -16 32 32" xmlns:v="https://vecta.io/nano"><circle r="15" fill="#0efffd" stroke="#000"/><text x="-12.049" y="-2.205" font-family="lato" font-size="12" font-weight="700" letter-spacing="0" word-spacing="0"><tspan x="-7.896" y="-2.205">20</tspan></text><path d="M1.751 6.999h.939v2.691h-.939zm1.494 0v2.702l2.085.929V6.065zm-9.051-1.884c-.28 0-.528.222-.528.528v5.436c0 .28.222.528.528.528H.696c.28 0 .528-.222.528-.528V5.643c0-.28-.222-.528-.528-.528h-5.985zm.507-5.932a2.69 2.69 0 0 1 2.692 2.692 2.69 2.69 0 1 1-5.383 0A2.69 2.69 0 0 1-5.299-.817zm5.394 0a2.69 2.69 0 0 1 2.692 2.692A2.69 2.69 0 0 1 .094 4.566a2.69 2.69 0 0 1-2.691-2.691A2.69 2.69 0 0 1 .094-.817z"/></svg>