<?xml version="1.0" encoding="UTF-8" standalone="no"?>
<svg
   xmlns:dc="http://purl.org/dc/elements/1.1/"
   xmlns:cc="http://creativecommons.org/ns#"
   xmlns:rdf="http://www.w3.org/1999/02/22-rdf-syntax-ns#"
   xmlns:svg="http://www.w3.org/2000/svg"
   xmlns="http://www.w3.org/2000/svg"
   id="svg4615"
   version="1.1"
   y="-12.5"
   x="-12.5"
   class="icon-color-main-undefined"
   viewBox="-16 -16 32 32"
   height="32"
   width="32">
  <metadata
     id="metadata4621">
    <rdf:RDF>
      <cc:Work
         rdf:about="">
        <dc:format>image/svg+xml</dc:format>
        <dc:type
           rdf:resource="http://purl.org/dc/dcmitype/StillImage" />
        <dc:title></dc:title>
      </cc:Work>
    </rdf:RDF>
  </metadata>
  <defs
     id="defs4619" />
  <circle
     cx="0"
     cy="0"
     r="15"
     id="circle4607"
     style="fill:#00fffd;stroke:#000000;stroke-width:1;fill-opacity:1" />
  <g transform="scale(0.05) translate(-143, -20)">
    <path
        style="fill-rule:evenodd;fill:#b27b38"
        transform="matrix(.98992 0 0 1.0026 -197.71 -96.867)"
        d="m488.05 239.25c0 78.21-64.45 141.68-143.87 141.68-79.41 0-143.86-63.47-143.86-141.68 0-78.2 64.45-141.68 143.86-141.68 79.42 0.005 143.87 63.48 143.87 141.68z" />
    <path
        style="fill:#f1ab4f"
        d="m130.72 8.2673c-20.78 2.9257-41.094 8.5457-58.457 20.787-29.267 20.633-51.468 48.199-60.443 83.266-13.133 51.32 10.618 110.9 54.447 139.93 27.699 18.35 64.233 25.86 96.993 21.89 73.67-8.94 120.42-82.5 110.24-154-8.69-60.952-79.1-120.84-142.78-111.87z" />
    <path
        style="fill:#fbfdce"
        d="m136.62 29.749c-21.15 2.526-35.92 5.21-54.357 17.216-45.007 29.308-65.638 89.205-44.126 139.18 10.354 24.07 27.615 42.15 49.954 55.6 22.689 13.67 47.749 16.03 73.069 13.14 16.39-1.86 38.87-14.01 51.23-24.29 23.52-19.54 39.66-45.53 42.59-76.27 5.86-61.427-52.24-132.46-118.36-124.57z" />
    <path
        style="fill:#f6db68"
        d="m148.26 36.066c-9.72 0.205-23.96-1.47-29.95 8.36-2.83 4.645 0.38 9.337 1.65 13.895 3.29 11.746 5.66 23.512 10.06 35 3.18 8.319 4.55 16.889 8.61 24.999 1.04 2.1 2.89 6.79 5.75 6.79 5.82 0 12.35-21.01 14.5-25.789 5.49-12.22 9.24-25.251 13-38 1.45-4.904 4.64-10.695 2.49-15.892-3.26-7.858-18.82-9.516-26.11-9.363z" />
    <path
        style="fill:#f6db68"
        d="m98.262 54.338c-12.806-0.798-29.127 18.366-34.714 27.983-2.079 3.581-7.025 9.533-4.923 13.819 2.441 4.98 10.097 8.54 14.638 11.32 14.24 8.72 38.737 23.22 55.957 22.8 8.09-0.2 2.58-14.04 0.87-17.94-6.27-14.346-13.64-28.628-19.54-42.999-2.38-5.806-4.35-14.489-12.288-14.983z" />
    <path
        style="fill:#f6db68"
        d="m192.56 57.309c-5.01 2.688-7.29 10.327-9.97 15.012-7.2 12.6-14.78 24.845-20.83 37.999-2.14 4.65-7.46 12.41-5.11 17.85 2.09 4.84 10.16 1.53 13.61 0.08 11.48-4.8 21.16-12.24 32-18.14 8.39-4.56 20.15-10.326 23.86-19.789 5.42-13.854-19.16-40.729-33.56-33.012z" />
    <path
        style="fill:#f6db68"
        d="m233.26 112.61c-3.35-0.08-6.66 2.77-10 3.38-15.3 2.82-30.61 9.78-45 15.94-3.76 1.61-14.55 5.04-14.38 10.36 0.18 5.33 11.58 7.96 15.38 9.62 16.52 7.22 34.73 16.62 53.08 16.34 15.32-0.23 15.88-34.65 12.33-44.93-1.39-4.06-6.72-10.6-11.41-10.71z" />
    <path
        style="fill:#f6db68"
        d="m52.278 114.89c-9.355 2.72-10.732 15.41-10.875 23.43-0.316 17.7 0.639 36.69 23.86 30.46 14.673-3.93 30.788-9.73 43.997-17.16 3.77-2.12 11.94-4.61 13.03-9.43 1.52-6.67-10.85-9.06-15.03-11.14-9.487-4.71-19.208-7.01-28.997-10.72-7.546-2.85-17.602-7.87-25.985-5.44z" />
    <path
        style="fill:#f6db68"
        d="m125.26 152.17c-5.64 0.72-10.99 5.08-16 7.47-14.698 7-39.236 16.52-47.309 31.72-7.93 14.94 14.365 38.05 30.222 36.44 6.36-0.65 10.887-10.56 13.357-15.48 7.61-15.14 16.22-29.73 23.64-45 2.3-4.74 5.39-16.32-3.91-15.15z" />
    <path
        style="fill:#f6db68"
        d="m158.02 155.35c-5.39 4.5 5.73 25.99 8.13 30.97 5.13 10.64 9.63 21.42 14.83 32 2.1 4.27 3.7 10.2 9.32 10.81 7.26 0.8 14.56-6.92 19.68-11.18 6.3-5.23 23.36-22.32 19.54-31.52-4.21-10.15-25.09-16.33-34.26-20.77-8.92-4.33-17.31-8.05-27-10-2.84-0.58-7.65-2.47-10.24-0.31z" />
    <path
        style="fill:#f6db68"
        d="m141.32 162.46c-8.38 3.59-14.27 24.87-16.97 32.59-3.78 10.85-13.89 29.27-10.5 41.18 1.45 5.09 7.92 6.59 12.41 7.71 11.75 2.93 29.51 4.96 40.9-0.46 7.18-3.42 5.7-11.07 4.04-17.16-4.31-15.77-10.07-33.07-16.76-48-2.09-4.66-5.2-19.26-13.12-15.86z" />
  </g>
  <text
     id="text4625"
     y="-1.9945426"
     x="-7.0079994"
     style="font-style:normal;font-variant:normal;font-weight:bold;font-stretch:normal;font-size:12px;line-height:1.25;font-family:lato;-inkscape-font-specification:'lato Bold';letter-spacing:0px;word-spacing:0px;fill:#000000;fill-opacity:1;stroke:none"
     xml:space="preserve"><tspan
       y="-1.9945426"
       x="-7.0079994"
       id="tspan4623">30</tspan></text>
</svg>
