<svg xmlns="http://www.w3.org/2000/svg" y="-12.5" x="-12.5" class="icon-color-main-undefined" viewBox="-16 -16 32 32" height="32" width="32"><circle r="15" fill="#00fffd" stroke="#000"/><path d="M7.121 6.15c0 3.92-3.19 7.103-7.121 7.103-3.93 0-7.12-3.182-7.12-7.103C-7.12 2.23-3.93-.952 0-.952c3.931 0 7.121 3.182 7.121 7.102z" fill-rule="evenodd" fill="#b27b38"/><path d="M-.614-.587c-1.039.147-2.055.428-2.923 1.04C-5 1.484-6.11 2.863-6.559 4.616c-.657 2.566.53 5.545 2.722 6.997 1.385.917 3.212 1.293 4.85 1.094 3.684-.447 6.021-4.125 5.512-7.7C6.091 1.959 2.57-1.035-.614-.586z" fill="#f1ab4f"/><path d="M-.319.487c-1.057.127-1.796.26-2.718.861-2.25 1.466-3.282 4.46-2.206 6.96.518 1.203 1.38 2.107 2.498 2.78 1.134.683 2.387.8 3.653.656.82-.093 1.944-.7 2.562-1.214 1.176-.977 1.983-2.277 2.129-3.814C5.892 3.645 2.987.093-.319.488z" fill="#fbfdce"/><path d="M.263.803c-.486.01-1.198-.073-1.498.418-.141.233.02.467.083.695.164.587.283 1.176.503 1.75.159.416.227.845.43 1.25.052.105.145.34.288.34.291 0 .617-1.051.725-1.29.275-.611.462-1.263.65-1.9.072-.245.232-.535.125-.795C1.405.88.627.796.262.803zm-2.5.914c-.64-.04-1.456.918-1.736 1.4-.104.178-.35.476-.246.69.122.249.505.427.732.566.712.436 1.937 1.161 2.798 1.14.405-.01.129-.702.044-.897-.314-.717-.682-1.431-.977-2.15-.12-.29-.218-.724-.615-.75zm4.715.148c-.25.135-.365.517-.499.751-.36.63-.739 1.242-1.041 1.9-.107.233-.373.62-.256.893.105.242.508.076.681.004.574-.24 1.058-.613 1.6-.908.42-.228 1.008-.516 1.193-.989.271-.693-.958-2.036-1.678-1.65zM4.513 4.63c-.168-.003-.333.139-.5.17-.765.14-1.53.489-2.25.797-.188.08-.728.251-.719.517.009.267.579.398.769.481.826.361 1.736.831 2.654.817.766-.011.794-1.732.617-2.246-.07-.203-.336-.53-.571-.536zm-9.049.115c-.468.136-.537.77-.544 1.171-.016.885.032 1.835 1.193 1.523.734-.197 1.54-.487 2.2-.858.188-.106.597-.23.651-.472.076-.333-.542-.453-.751-.557-.474-.235-.96-.35-1.45-.536-.377-.142-.88-.393-1.3-.272zm3.649 1.863c-.282.036-.55.254-.8.374-.735.35-1.962.826-2.365 1.586-.397.747.718 1.902 1.51 1.822.319-.033.545-.528.669-.774.38-.757.81-1.487 1.182-2.25.115-.237.269-.816-.196-.758zm1.638.16c-.27.225.287 1.299.407 1.548.256.532.481 1.071.741 1.6.105.213.185.51.466.54.363.04.728-.345.984-.558.315-.262 1.168-1.116.977-1.576-.21-.508-1.254-.817-1.713-1.039-.446-.217-.865-.403-1.35-.5-.142-.029-.382-.124-.512-.015zm-.835.355c-.419.18-.714 1.244-.849 1.63-.189.542-.694 1.463-.525 2.059.073.254.396.329.621.385.587.147 1.475.248 2.045-.023.359-.171.285-.553.202-.858a17.093 17.093 0 00-.838-2.4c-.105-.233-.26-.963-.656-.793z" fill="#f6db68"/><text y="-1.995" x="-7.008" style="line-height:1.25;-inkscape-font-specification:'lato Bold'" font-weight="700" font-size="12" font-family="lato" letter-spacing="0" word-spacing="0"><tspan y="-1.995" x="-7.008">30</tspan></text></svg>