<svg xmlns="http://www.w3.org/2000/svg" width="32" height="32" viewBox="-16 -16 32 32" class="icon-color-main-undefined" x="-12.5" y="-12.5"><circle fill="#fff" stroke="#000" r="15"/><path d="M10.682 0c0 5.881-4.785 10.654-10.682 10.654-5.896 0-10.68-4.773-10.68-10.654 0-5.88 4.784-10.653 10.68-10.653C5.897-10.653 10.682-5.88 10.682 0z" fill-rule="evenodd" fill="#b27b38"/><path d="M-.921-10.105c-1.558.22-3.082.641-4.384 1.56-2.195 1.547-3.86 3.614-4.533 6.244-.985 3.849.796 8.318 4.083 10.495 2.077 1.376 4.817 1.94 7.274 1.642 5.526-.671 9.032-6.188 8.268-11.55-.651-4.572-5.932-9.063-10.708-8.39z" fill="#f1ab4f"/><path d="M-.479-8.494c-1.586.19-2.694.39-4.076 1.291-3.376 2.198-4.923 6.69-3.31 10.439.777 1.805 2.071 3.161 3.747 4.17 1.702 1.025 3.581 1.202 5.48.985 1.23-.14 2.915-1.05 3.842-1.821C6.968 5.104 8.18 3.155 8.4.85c.438-4.609-3.92-9.936-8.879-9.344z" fill="#fbfdce"/><path d="M.394-8.02c-.729.015-1.797-.11-2.246.627-.212.348.029.7.124 1.042.247.881.424 1.763.754 2.625.239.624.342 1.267.646 1.875.078.157.217.51.431.51.437 0 .927-1.577 1.088-1.935.412-.916.693-1.894.975-2.85.109-.368.348-.802.187-1.192C2.108-7.908.94-8.032.394-8.02zm-3.749 1.37c-.96-.06-2.185 1.378-2.604 2.1-.156.268-.527.714-.37 1.036.184.373.758.64 1.099.849 1.068.654 2.905 1.741 4.197 1.71.606-.015.193-1.053.065-1.346-.47-1.076-1.023-2.147-1.466-3.225-.178-.435-.326-1.087-.921-1.124zm7.072.223c-.376.202-.547.775-.748 1.126-.54.945-1.108 1.863-1.562 2.85-.16.349-.56.93-.383 1.339.157.363.762.115 1.02.006.862-.36 1.588-.918 2.4-1.36.63-.343 1.512-.775 1.79-1.485.406-1.039-1.437-3.055-2.517-2.476zM6.77-2.28c-.252-.005-.5.209-.75.254-1.148.212-2.296.734-3.376 1.196-.282.12-1.09.378-1.078.777.013.4.868.597 1.153.721C3.96 1.21 5.324 1.915 6.7 1.894c1.15-.017 1.191-2.599.925-3.37-.104-.304-.504-.795-.856-.803zm-13.574.172c-.702.204-.805 1.156-.816 1.757-.023 1.327.048 2.752 1.79 2.284 1.1-.294 2.309-.73 3.3-1.286.282-.16.895-.346.977-.708.114-.5-.814-.68-1.128-.835-.711-.353-1.44-.526-2.174-.804-.566-.214-1.32-.59-1.95-.408zM-1.33.688c-.423.054-.825.38-1.2.56-1.103.525-2.943 1.239-3.549 2.379C-6.673 4.747-5 6.481-3.812 6.36c.477-.049.817-.792 1.002-1.161.57-1.135 1.216-2.23 1.773-3.375C-.865 1.468-.633.6-1.33.688zm2.457.238c-.405.338.43 1.95.61 2.323.384.798.722 1.606 1.111 2.4.158.32.278.765.7.81.544.06 1.091-.518 1.475-.838.473-.392 1.753-1.674 1.466-2.364-.316-.761-1.882-1.225-2.57-1.558-.668-.324-1.298-.603-2.024-.75C1.682.906 1.32.764 1.127.926zm-1.253.534c-.629.269-1.07 1.865-1.273 2.444-.283.814-1.042 2.195-.787 3.088.108.382.594.495.93.579.882.22 2.214.372 3.068-.035.538-.257.427-.83.303-1.287-.323-1.183-.755-2.48-1.257-3.6-.157-.35-.39-1.445-.984-1.19z" fill="#f6db68"/></svg>