<svg id="Layer_1" data-name="Layer 1" xmlns="http://www.w3.org/2000/svg" width="114.93" height="77.31" viewBox="0 0 114.93 77.31">
  <defs>
    <style>
      .cls-1 {
        fill: #fff;
        stroke: #231f20;
        stroke-miterlimit: 10;
        stroke-width: 2.31px;
      }
    </style>
  </defs>
  <rect class="cls-1" x="1.15" y="1.15" width="112.62" height="75"/>
  <g>
    <path d="M6.65,56a8,8,0,0,0,3.24-.59,3.38,3.38,0,0,0,1.64-3.29V25.42q0-2.42-1.56-3.24a8.52,8.52,0,0,0-3.32-.64v-1.4H25.93v1.4c-2.24.07-3.74.38-4.48.94s-1.12,1.92-1.12,4.09V52.63a2.64,2.64,0,0,0,1,2.43,8,8,0,0,0,3.73.59,15.08,15.08,0,0,0,8.36-2.19c2.25-1.47,4.19-4.31,5.83-8.55h1.61L38.59,57.4H6.65Z"/>
    <path d="M44.38,44.53H46q1.32,6.18,4.25,9a9.47,9.47,0,0,0,6.73,2.8c2.46,0,4.2-.64,5.24-1.92a6.36,6.36,0,0,0,1.55-4.06,5.36,5.36,0,0,0-1.62-4,20,20,0,0,0-4.35-2.67l-3.51-1.77a23.35,23.35,0,0,1-7.37-5.23,9.63,9.63,0,0,1-2.15-6.39,11.71,11.71,0,0,1,2.84-7.54q2.85-3.51,8.73-3.5a18.44,18.44,0,0,1,5.78.91,22,22,0,0,0,3.19.92,1.39,1.39,0,0,0,1.25-.53,4.46,4.46,0,0,0,.55-1.38h1.64v12H67.18a16.86,16.86,0,0,0-3.8-7.18,8.62,8.62,0,0,0-6.62-3,6,6,0,0,0-4.33,1.52,5,5,0,0,0-1.59,3.71,4.86,4.86,0,0,0,1.49,3.9,33.8,33.8,0,0,0,6.56,3.88L63,36A15.8,15.8,0,0,1,67.3,39a10.48,10.48,0,0,1,3,7.58,11.77,11.77,0,0,1-3.24,7.87q-3.26,3.71-10.4,3.7a18,18,0,0,1-3.32-.31A17.68,17.68,0,0,1,50,56.92L49,56.51a6.62,6.62,0,0,0-.71-.17,2.81,2.81,0,0,0-.58-.07,1.28,1.28,0,0,0-1.17.5A5.08,5.08,0,0,0,46,58.18H44.38Z"/>
    <path d="M74.1,56a8,8,0,0,0,3.23-.59A3.38,3.38,0,0,0,79,52.12V25.42q0-2.42-1.56-3.24a8.46,8.46,0,0,0-3.31-.64v-1.4H93.38v1.4c-2.25.07-3.74.38-4.49.94s-1.11,1.92-1.11,4.09V52.63a2.64,2.64,0,0,0,1,2.43,8,8,0,0,0,3.73.59,15.06,15.06,0,0,0,8.36-2.19c2.25-1.47,4.2-4.31,5.83-8.55h1.62L106,57.4H74.1Z"/>
  </g>
</svg>
