<svg id="Layer_1" data-name="Layer 1" xmlns="http://www.w3.org/2000/svg" viewBox="0 0 85.47 124.29"><defs><style>.cls-1{fill:#43611a;}.cls-2{fill:#5f9a1a;}.cls-2,.cls-4{fill-rule:evenodd;}.cls-3{fill:#ab8f1f;}.cls-4{fill:#efc340;}.cls-5{fill:#826c13;}</style></defs><title>sugar-cane</title><path class="cls-1" d="M39.15,40.2a58.39,58.39,0,0,1-.68,7.17,57.49,57.49,0,0,1-1.53,7l-.07.26-4.21-1.52,0-.22a72.5,72.5,0,0,0-.41-28.74A126.79,126.79,0,0,0,24.6,1.05l-.45-1L25,.76c4.49,4,8,10.09,10.32,16.71A64.87,64.87,0,0,1,39.15,40.2ZM38,47.3a59.77,59.77,0,0,0,.67-7.11,64.43,64.43,0,0,0-3.78-22.54C32.66,11.53,29.54,5.9,25.54,2A123.16,123.16,0,0,1,32.8,24.09a73.29,73.29,0,0,1,.45,28.72L36.52,54A56.93,56.93,0,0,0,38,47.3Z"/><path class="cls-2" d="M38.89,40.2A60.34,60.34,0,0,1,36.7,54.33L33,53c4-21.23-2.37-38.33-8.12-52C34.42,9.51,39.27,27.52,38.89,40.2Z"/><path class="cls-1" d="M24.94.89A78.53,78.53,0,0,1,35.12,26.1a66.33,66.33,0,0,1-.28,27.68l-.26-.06a66,66,0,0,0,.29-27.57A78.13,78.13,0,0,0,24.72,1l.22-.13Z"/><path class="cls-3" d="M30.09,53.71q.39-7.18.45-14t-.21-13.24a.46.46,0,0,1,.44-.47H39.1a.45.45,0,0,1,.45.46v.06c-.23,4.2-.31,8.61-.29,13.13s.14,9.21.29,13.93v0q-.45,6.75-.45,13.45t.45,13.45v.07c-.06,3.74-.09,7.92-.08,12.4s0,9.29.08,14.28a.44.44,0,0,1-.26.41c-.36.18-.29,1.92-.19,4.65a75.65,75.65,0,0,1-.21,11.53.45.45,0,0,1-.45.41H30a.45.45,0,0,1-.46-.44l-.16-1.43c-.29-2.7-.44-4-.46-5.48,0-1.34.06-2.82.2-5.62l.19-3.66c.42-4.19.63-8.6.69-13.18s-.06-9.35-.28-14.25v0q.39-6.56.49-13.15t-.13-13.28v0Zm1.36-14q-.06,6.82-.44,14,.21,6.67.12,13.3c-.06,4.42-.23,8.82-.48,13.18.22,4.89.33,9.67.27,14.27s-.27,9.05-.69,13.25l-.18,3.63c-.15,2.79-.22,4.26-.2,5.56s.16,2.7.45,5.39l.12,1.05H38a77.22,77.22,0,0,0,.17-11c-.11-2.76-.18-4.63.45-5.31,0-4.9-.08-9.63-.09-14.06s0-8.67.09-12.42q-.47-6.74-.46-13.5t.46-13.49c-.15-4.71-.27-9.37-.29-13.93,0-4.39,0-8.66.26-12.74H31.26q.25,6.23.19,12.81Z"/><path class="cls-4" d="M30.55,53.73q.78-14.37.24-27.26H39.1c-.48,8.44-.3,17.71,0,27.14a198.82,198.82,0,0,0,0,27c-.14,7.5-.1,16.76,0,26.72-1.29.61.3,7.47-.66,16.54H30c-.84-7.66-.74-5.69-.24-16.12a192.24,192.24,0,0,0,.42-27.5c.51-8.75.65-17.57.36-26.48Z"/><path class="cls-1" d="M35.8,40.3A57.16,57.16,0,0,0,34.06,47a55.73,55.73,0,0,0-.9,6.59h3.38a70.84,70.84,0,0,1,9.91-26.06A119.08,119.08,0,0,1,60.39,9.76C55.43,12,50.73,16.13,46.71,21A62.59,62.59,0,0,0,35.8,40.3Zm-2.23,6.61a56.25,56.25,0,0,1,1.76-6.77,62.81,62.81,0,0,1,11-19.47c4.36-5.26,9.52-9.66,15-11.84l1-.41-.75.81A123.48,123.48,0,0,0,46.87,27.8,70.48,70.48,0,0,0,37,53.89l0,.21H32.62l0-.27a57.39,57.39,0,0,1,.93-6.92Z"/><path class="cls-2" d="M35.57,40.22a57.87,57.87,0,0,0-2.68,13.63h3.86C40.13,33.16,51.59,19.66,61.36,9.07c-11.57,4.64-22,19.47-25.79,31.15Z"/><path class="cls-1" d="M61.44,9.16A76,76,0,0,0,43.88,28.74,64.09,64.09,0,0,0,35,54l-.25,0a64.39,64.39,0,0,1,8.9-25.34A76.07,76.07,0,0,1,61.28,9l.16.19Z"/><polygon class="cls-5" points="30.55 53.27 39.05 53.27 39.05 54.19 30.55 54.19 30.55 53.27 30.55 53.27"/><path class="cls-1" d="M34.32,62.4A72.66,72.66,0,0,1,36.56,71a72.4,72.4,0,0,1,1.18,8.81l0,.34H32.24l-.05-.27A89.33,89.33,0,0,0,19.63,46.7C13.91,37.45,7.16,29.8,1,23.06L0,22l1.31.52c6.91,2.77,13.48,8.37,19,15.06a79.83,79.83,0,0,1,14,24.79Zm1.61,8.73a71.32,71.32,0,0,0-2.21-8.53A79.53,79.53,0,0,0,19.84,38c-5.12-6.18-11.1-11.4-17.41-14.29A151,151,0,0,1,20.17,46.36,90.18,90.18,0,0,1,32.78,79.52h4.3a69.82,69.82,0,0,0-1.15-8.39Z"/><path class="cls-2" d="M34,62.5a73.92,73.92,0,0,1,3.41,17.34H32.51c-4.29-26.33-18.89-43.51-31.32-57C15.92,28.76,29.13,47.63,34,62.5Z"/><path class="cls-1" d="M1.29,22.72a97,97,0,0,1,22.42,25A81.74,81.74,0,0,1,35,80l-.31,0A81.56,81.56,0,0,0,23.44,47.88,97,97,0,0,0,1.09,23l.2-.25Z"/><polygon class="cls-5" points="30.19 79.75 39.05 79.66 39.06 80.57 30.19 80.67 30.19 79.75 30.19 79.75"/><path class="cls-1" d="M37,82.51a106.21,106.21,0,0,0-4.84,24.32h6.19A129.73,129.73,0,0,1,56.47,59.16C64.3,46.52,73.43,36,82,26.63,72.91,30.78,64.3,38.29,57,47.17A113.93,113.93,0,0,0,37,82.51ZM32.92,94.6a102.68,102.68,0,0,1,3.21-12.38A114.89,114.89,0,0,1,56.25,46.59c8-9.63,17.41-17.67,27.34-21.65l1.88-.76L84.1,25.67c-8.93,9.68-18.62,20.68-26.85,34a128.8,128.8,0,0,0-18.06,47.72l-.06.39h-8l0-.49A102.78,102.78,0,0,1,32.92,94.6Z"/><path class="cls-2" d="M36.56,82.37a106.55,106.55,0,0,0-4.89,24.92h7.07c6.17-37.85,27.15-62.54,45-81.93-21.17,8.5-40.16,35.62-47.2,57Z"/><path class="cls-1" d="M84,25.6C71.06,36,60.12,47.8,51.83,61.39a117.34,117.34,0,0,0-16.2,46.16l-.59-.07a117.9,117.9,0,0,1,16.28-46.4A139.67,139.67,0,0,1,83.57,25.13l.38.47Z"/><polygon class="cls-5" points="29.56 107.25 39.22 106.98 39.24 107.9 29.59 108.17 29.56 107.25 29.56 107.25"/></svg>