<?xml version="1.0" encoding="utf-8"?>

<!DOCTYPE svg PUBLIC "-//W3C//DTD SVG 1.1//EN" "http://www.w3.org/Graphics/SVG/1.1/DTD/svg11.dtd">
<!-- Uploaded to: SVG Repo, www.svgrepo.com, Generator: SVG Repo Mixer Tools -->
<svg height="800px" width="800px" version="1.1" id="_x32_" xmlns="http://www.w3.org/2000/svg" xmlns:xlink="http://www.w3.org/1999/xlink" 
	 viewBox="0 0 512 512"  xml:space="preserve">
<style type="text/css">
	.st0{fill:#000000;}
</style>
<g>
	<polygon points="256,31 56,115 256,200 456,115" fill="#ffffff"/>
	<polygon points="41,127 247,215 247,479 50,395" fill="#ffffff"/>
	<polygon points="265,215 265,479 462,395 470,127" fill="#ffffff"/>
</g>
<g>
	<path class="st0" d="M474.01,89.302L273.876,3.673C268.215,1.235,262.201,0,256,0c-6.191,0-12.195,1.235-17.876,3.673
		L37.991,89.302c-16.74,7.161-27.564,23.558-27.564,41.777v249.853c0,18.21,10.824,34.606,27.564,41.777l200.143,85.628
		C243.815,510.766,249.819,512,256,512c6.18,0,12.186-1.234,17.876-3.663l200.134-85.628c16.739-7.171,27.563-23.567,27.563-41.777
		V131.078C501.573,112.86,490.749,96.462,474.01,89.302z M41.027,380.932V131.078c0-1.313,0.176-2.616,0.539-3.899l205.785,88.048
		V479.01L50.038,394.587C44.563,392.246,41.027,386.878,41.027,380.932z M461.962,394.587L264.659,479.01V215.228l205.776-88.048
		c0.363,1.283,0.538,2.586,0.538,3.899v249.853C470.973,386.878,467.437,392.246,461.962,394.587z M256,30.6
		c2.018,0,3.987,0.401,5.828,1.195l193.776,82.906L256,200.104L56.395,114.701l193.767-82.906C252.014,31.001,253.982,30.6,256,30.6
		z"/>
</g>
</svg>