<svg id="Layer_1" data-name="Layer 1" xmlns="http://www.w3.org/2000/svg" viewBox="0 0 34.02 34.02"><defs><style>.cls-1{fill:#15810f;}.cls-2{fill:#fff;}</style></defs><circle class="cls-1" cx="17.01" cy="17.01" r="17"/><path class="cls-2" d="M5.91,25.05V9H9.65q3,0,3,3.09V22.72c0,1.55-.86,2.33-2.58,2.33ZM8.06,23.1H9.67c.57,0,.86-.24.86-.72V12.08c0-.78-.33-1.17-1-1.17H8.06Z"/><path class="cls-2" d="M18.7,13.29V11.88a.85.85,0,0,0-.94-1h-.33c-.62,0-.92.33-.92,1v2.66a.81.81,0,0,0,.18.61,4.5,4.5,0,0,0,.58.4l2,1.1a9.21,9.21,0,0,1,1,.59,1.67,1.67,0,0,1,.44.52,2.92,2.92,0,0,1,.15,1.15v3.43c0,1.81-.86,2.71-2.6,2.71H16.93c-1.71,0-2.57-1-2.57-3v-.8h2.15v.87a.84.84,0,0,0,1,.94h.38c.57,0,.85-.31.85-.94V19.43a.81.81,0,0,0-.18-.61,4.5,4.5,0,0,0-.58-.4l-2-1.14a5.79,5.79,0,0,1-1-.61,1.39,1.39,0,0,1-.44-.64,3.2,3.2,0,0,1-.13-1V11.72c0-1.84.86-2.75,2.57-2.75h1.35c1.71,0,2.57.91,2.57,2.75v1.57Z"/><path class="cls-2" d="M22.64,25.05V9H28v1.94H24.8V15.8h2.82v1.95H24.8V23.1H28v1.95Z"/></svg>