<?xml version="1.0" encoding="UTF-8"?>
<svg id="dieline" xmlns="http://www.w3.org/2000/svg" viewBox="0 0 34.02 34.02">
  <defs>
    <style>
      .cls-1 {
        fill: #fff;
      }

      .cls-2 {
        fill: #ed1c24;
      }
    </style>
  </defs>
  <circle class="cls-2" cx="17.01" cy="17.01" r="17.01"/>
  <g>
    <g>
      <path class="cls-1" d="m17.68,22.35l-1.82.72c-.47.19-.68.73-.46,1.18l.84,1.72c.33.67,1.3.63,1.57-.06l.97-2.44c.28-.7-.42-1.4-1.12-1.12Z"/>
      <path class="cls-1" d="m17.26,20.38c1.06-.44,2.02-.92,2.89-1.39.23-.13.41-.34.49-.6l.9-2.68c.27-.81-.46-1.6-1.29-1.39-1.1.29-2.34.7-3.67,1.26-1.27.53-2.41,1.11-3.41,1.69-.45.26-.65.79-.49,1.28l.7,2.08c.19.56.78.86,1.34.69.79-.25,1.64-.56,2.53-.93Z"/>
      <path class="cls-1" d="m10.89,15.21c.15.34.61.51,1.01.38l.15-.06c.06-.02.11-.05.17-.07,1.18-.62,2.42-1.2,3.68-1.73,2.71-1.14,5.26-1.94,7.41-2.36h0c.88-.2.8-1.28-.04-1.32h-13.16c-.56-.02-.96.43-.77.87l1.54,4.29Z"/>
    </g>
    <path class="cls-1" d="m16.2,14.42c-6.68,2.8-11.77,6.67-11.37,8.63.4,1.97,6.14,1.29,12.81-1.51,6.68-2.8,11.77-6.67,11.37-8.63s-6.14-1.29-12.81,1.51Zm1.35,6.66c-5.04,2.11-9.4,2.44-9.75.73-.35-1.71,3.45-4.81,8.49-6.92,5.04-2.11,9.4-2.44,9.75-.73.35,1.71-3.45,4.81-8.49,6.92Z"/>
  </g>
</svg>