<svg id="Layer_1" data-name="Layer 1" xmlns="http://www.w3.org/2000/svg" viewBox="0 0 34.02 34.02"><defs><style>.cls-1{fill:#7f007f;}.cls-2{fill:#fff;}</style></defs><circle class="cls-1" cx="17.01" cy="17.01" r="17"/><path class="cls-2" d="M11.58,25.05V9h2.15V25.05Z"/><path class="cls-2" d="M22.18,21.29v1q0,2.73-2.58,2.73H18.21q-2.58,0-2.58-2.73V11.7Q15.63,9,18.21,9H19.6q2.58,0,2.58,2.73v1.81H20V11.86a.85.85,0,0,0-1-.95h-.42c-.57,0-.86.32-.86.95v10.3c0,.63.29.94.86.94h.53c.57,0,.86-.31.86-.94v-.87Z"/></svg>