<?xml version="1.0" encoding="UTF-8"?>
<svg id="dieline" xmlns="http://www.w3.org/2000/svg" viewBox="0 0 34.02 34.02">
  <defs>
    <style>
      .cls-1 {
        fill: #fff;
      }

      .cls-2 {
        fill: #a368ab;
      }
    </style>
  </defs>
  <circle class="cls-2" cx="17.01" cy="17.01" r="17.01"/>
  <g>
    <polygon class="cls-1" points="11.93 23.02 9.06 24.59 24.94 24.59 22.06 23.01 20.98 22.42 17.11 20.22 17.79 18.97 21.67 21.17 22.59 19.49 18.72 17.29 19.4 16.04 27.21 20.41 19.39 6.93 19.39 10.17 19.39 11.41 19.39 15.95 17.97 15.95 17.97 11.41 16.05 11.41 16.05 15.95 14.63 15.95 14.63 6.92 6.77 20.41 14.6 16.04 15.28 17.29 11.4 19.5 12.32 21.18 16.21 18.97 16.89 20.22 13 22.42 11.93 23.02"/>
    <polygon class="cls-1" points="29.64 24.59 27.85 21.5 27.47 22.17 23.66 20.08 22.74 21.76 26.55 23.86 26.15 24.59 29.64 24.59"/>
    <polygon class="cls-1" points="7.42 23.87 11.24 21.77 10.32 20.09 6.5 22.19 6.13 21.52 4.34 24.59 7.81 24.59 7.42 23.87"/>
    <polygon class="cls-1" points="16.05 5.75 16.05 10.17 17.97 10.17 17.97 5.75 18.7 5.75 17.01 2.83 15.31 5.75 16.05 5.75"/>
  </g>
</svg>