<?xml version="1.0" encoding="UTF-8"?>
<svg id="dieline" xmlns="http://www.w3.org/2000/svg" viewBox="0 0 34.02 34.02">
  <defs>
    <style>
      .cls-1 {
        fill: #fff;
      }

      .cls-2 {
        fill: #b59588;
      }
    </style>
  </defs>
  <circle class="cls-2" cx="17.01" cy="17.01" r="17.01"/>
  <g>
    <g>
      <path class="cls-1" d="m12.87,12.27c-.07.11-.16.22-.26.32-.2.2-.43.35-.67.45h.05v3.04c1.03-.17,2.01-.65,2.8-1.45.68-.68,1.12-1.5,1.35-2.36h-3.28Z"/>
      <path class="cls-1" d="m10.26,13.04h.05c-.24-.1-.47-.25-.67-.45-.82-.82-.82-2.15,0-2.97.82-.82,2.15-.82,2.97,0,.26.26.43.58.53.91h3.17c-.1-1.18-.6-2.34-1.5-3.25-2.03-2.03-5.32-2.03-7.35,0s-2.03,5.32,0,7.35c.79.79,1.78,1.27,2.8,1.45v-3.04Z"/>
    </g>
    <g>
      <path class="cls-1" d="m22.19,13.3c-.06-.03-.12-.05-.18-.08-.39-.23-.68-.56-.86-.95h-3.32c.37,2.21,2.13,3.93,4.35,4.26v-3.24Z"/>
      <path class="cls-1" d="m22.96,6.2c-2.57,0-4.71,1.87-5.12,4.33h3.32c.03-.06.05-.12.08-.18.58-1.01,1.87-1.35,2.87-.77,1.01.58,1.35,1.87.77,2.87-.23.39-.56.68-.95.86v3.2c2.41-.46,4.22-2.57,4.22-5.11,0-2.87-2.33-5.2-5.2-5.2Z"/>
    </g>
    <path class="cls-1" d="m12,17.8v3.15c.06.03.12.05.18.08,1.01.58,1.35,1.87.77,2.87-.58,1.01-1.87,1.35-2.87.77-1.01-.58-1.35-1.87-.77-2.87.23-.39.56-.68.95-.86v-3.14c-2.46.42-4.33,2.55-4.33,5.12,0,2.87,2.33,5.2,5.2,5.2s5.2-2.33,5.2-5.2c0-2.57-1.87-4.71-4.33-5.12Z"/>
    <path class="cls-1" d="m22.12,25.13c-.75-.34-1.28-1.09-1.28-1.97,0-1.19.97-2.16,2.16-2.16s2.16.97,2.16,2.16c0,.89-.53,1.65-1.3,1.98v3.31l5.29-5.29-6.15-6.15-6.15,6.15,5.26,5.26v-3.3Z"/>
  </g>
</svg>