<?xml version="1.0" encoding="UTF-8"?>
<svg id="dieline" xmlns="http://www.w3.org/2000/svg" viewBox="0 0 34.02 34.02">
  <defs>
    <style>
      .cls-1 {
        fill: #fff;
      }

      .cls-2 {
        fill: #57bd7d;
      }
    </style>
  </defs>
  <circle class="cls-2" cx="17.01" cy="17.01" r="17.01"/>
  <path class="cls-1" d="m17.01,28.8c6.48,0,11.75-5.27,11.75-11.75,0-6.48-5.27-11.75-11.75-11.75-6.48,0-11.75,5.27-11.75,11.75,0,6.48,5.27,11.75,11.75,11.75Zm-1.25-.84c.2-.07.39-.16.59-.26.16.13.34.24.53.34-.29,0-.59-.02-.88-.04-.08,0-.16-.02-.24-.03Zm.71-1.03c-.34-.37-.61-.87-.8-1.48.4-.05.84-.09,1.32-.09s.88.04,1.27.08c-.58.62-1.19,1.12-1.79,1.49Zm-3.43-.23c0-.39.73-.87,1.98-1.14.21.68.49,1.24.86,1.68-.53.24-1.06.37-1.57.37-.06,0-.11,0-.16-.01-.71-.27-1.1-.61-1.1-.9Zm-1.14-.4c.26-.09.51-.19.76-.31-.17.21-.27.45-.27.71,0,.06.01.12.02.18-.18-.16-.35-.36-.51-.58Zm5.44-4.38c1.13.03,2.19.21,3.09.5-.46.82-.95,1.56-1.47,2.22-.64.05-1.3.08-1.98.08-.52,0-1.02-.02-1.52-.05-.03-.17-.05-.35-.08-.53.7-.64,1.35-1.38,1.95-2.21Zm3.7.71c.83.34,1.48.77,1.88,1.27-.93.28-1.97.5-3.1.64.43-.58.84-1.22,1.22-1.91Zm-.29-.81c-.14-.05-.29-.09-.44-.14.19-.03.37-.06.55-.09-.04.08-.08.15-.11.22Zm-.92-4.81c.91.11,1.77.28,2.56.49-.1.4-.22.79-.34,1.19-.25.76-.53,1.49-.84,2.18-1.06.2-2.2.32-3.39.36.81-1.25,1.5-2.67,2.02-4.22Zm5.83,1.12c-.68-.43-1.52-.79-2.49-1.09.08-.36.16-.72.22-1.08,1.17-.37,2.15-.83,2.85-1.37-.06,1.11-.25,2.31-.58,3.55Zm1.22-3.07c.52.52.81,1.09.81,1.68s-.44,1.41-1.19,2.02c-.09-.08-.18-.16-.27-.24.34-1.21.56-2.38.65-3.47Zm-3.38.17c.09-.67.15-1.34.17-1.98.78.27,1.47.58,2.05.93-.57.4-1.33.76-2.22,1.06Zm1.97,3.55c-.08.27-.17.54-.27.81-.89.45-1.99.83-3.23,1.12.25-.59.48-1.19.69-1.82.13-.4.24-.81.35-1.21.98.3,1.82.68,2.46,1.1Zm-2.93-1.92c-.49-.13-1.01-.25-1.56-.34.6-.1,1.17-.22,1.7-.36-.04.23-.09.47-.15.7Zm-2.27-1.34c.25-1,.41-2,.5-2.98.8.13,1.56.3,2.25.5-.01.77-.08,1.57-.2,2.4-.81.23-1.72.41-2.68.54.04-.15.09-.3.13-.46Zm.58-5.15s0-.06,0-.08c-.01-.34-.03-.66-.06-.96,0,0,0,0,0,0,0-.11-.01-.22-.02-.32.3.03.65.07,1.01.15.31.07.59.14.83.23.06.23.14.55.2.93.05.29.08.51.1.68.06.44.1.9.12,1.37-.69-.19-1.43-.35-2.2-.47.01-.18.02-.37.02-.55,0-.31.01-.63,0-.97Zm1.5-1.69c-.29-.08-.61-.16-.94-.23-.26-.05-.5-.1-.74-.13-.04-.29-.09-.59-.16-.91-.06-.28-.12-.56-.19-.83.27.09.75.28,1.21.73.53.52.74,1.09.82,1.36Zm2.55.83c-.32-.15-.67-.29-1.04-.42-.24-.08-.47-.14-.68-.18-.09-.25-.2-.52-.34-.81-.13-.26-.26-.49-.39-.69.44.19,1.08.53,1.69,1.14.33.34.58.67.76.96Zm1.37,4.22s0,0,0,0c-.71-.45-1.58-.85-2.57-1.18-.01-.68-.06-1.34-.17-1.97-.06-.36-.14-.69-.22-1.01.98.31,1.81.69,2.42,1.12.35.81.54,1.84.55,3.03Zm.63-1.28c0,.06-.02.11-.02.17-.03-.24-.06-.47-.1-.69.03.05.05.1.08.16.03.12.05.24.05.37Zm.97,2.8c-.23-.36-.55-.7-.93-1.02,0-.1,0-.19,0-.29.18-.21.33-.43.43-.66.23.63.4,1.29.51,1.96Zm-.91,4.01c.44-.37.77-.76,1.01-1.18-.08.79-.23,1.55-.47,2.28-.08-.38-.27-.75-.54-1.1Zm-.06,1.53c0,1.03-1.07,1.98-2.77,2.69.6-1.01,1.14-2.13,1.58-3.33,0-.02.02-.05.03-.07.26-.14.5-.28.72-.44.29.36.45.75.45,1.14Zm-2.89,4.2c0-.24-.05-.48-.12-.7.94-.35,1.73-.77,2.33-1.24-.63.97-1.41,1.83-2.31,2.56.06-.2.1-.4.1-.61Zm-.62-1.54c-.46-.55-1.16-1.02-2.03-1.38.1-.19.19-.39.28-.59,1.21-.24,2.29-.57,3.23-.98-.43,1.06-.93,2.05-1.48,2.95Zm-1.88,3.63c.04-.11.07-.23.07-.36,0,0,0-.01,0-.02.06-.06.13-.11.19-.17.54-.52,1.06-1.14,1.55-1.82.02.09.03.19.03.28,0,.67-.48,1.29-1.26,1.8-.19.1-.38.19-.58.28Zm-1.52-1.88c.9-.11,1.74-.28,2.52-.48-.38.49-.77.94-1.17,1.33-.27-.35-.75-.64-1.35-.85Zm-2.63,2.38c-.14-.05-.28-.12-.41-.21.7-.45,1.39-1.05,2.04-1.78.98.22,1.64.57,1.85.9-.96.81-1.89,1.23-2.72,1.23-.27,0-.53-.04-.77-.13Z"/>
</svg>