<svg id="Layer_1" data-name="Layer 1" xmlns="http://www.w3.org/2000/svg" viewBox="0 0 34.02 34.02"><defs><style>.cls-1{fill:#8eceea;}.cls-2{fill:#231f20;}</style></defs><circle class="cls-1" cx="17.01" cy="17.01" r="17"/><path class="cls-2" d="M12.73,18.42l2-9.45H17.1V25.05H15l.22-10.53-1.61,7.62H11.9l-1.61-7.62.22,10.53H8.36V9h2.38Z"/><path class="cls-2" d="M21.15,25.05H19V11.72C19,9.88,19.86,9,21.58,9h1.61c1.72,0,2.58.91,2.58,2.75V25.05H23.62V19.16H21.15Zm2.47-7.84V11.86a.84.84,0,0,0-.94-.95h-.59a.84.84,0,0,0-.94.95v5.35Z"/></svg>