<svg id="Layer_1" data-name="Layer 1" xmlns="http://www.w3.org/2000/svg" viewBox="0 0 34.02 34.02"><defs><style>.cls-1{fill:#d0b48e;}.cls-2{fill:#231f20;}</style></defs><circle class="cls-1" cx="17.01" cy="17.01" r="17"/><path class="cls-2" d="M12.73,13.29V11.88a.85.85,0,0,0-.94-1h-.34c-.61,0-.92.33-.92,1v2.66a.81.81,0,0,0,.18.61,4.78,4.78,0,0,0,.59.4l2,1.1a10.49,10.49,0,0,1,.95.59,1.64,1.64,0,0,1,.43.52,2.7,2.7,0,0,1,.16,1.15v3.43c0,1.81-.87,2.71-2.6,2.71H11c-1.72,0-2.58-1-2.58-3v-.8h2.15v.87a.85.85,0,0,0,1,.94h.38c.57,0,.85-.31.85-.94V19.43a.81.81,0,0,0-.18-.61,4.5,4.5,0,0,0-.58-.4l-2-1.14a5.79,5.79,0,0,1-1-.61A1.32,1.32,0,0,1,8.52,16a3.17,3.17,0,0,1-.14-1V11.72C8.38,9.88,9.24,9,11,9H12.3c1.72,0,2.58.91,2.58,2.75v1.57Z"/><path class="cls-2" d="M21,18.42,23,9h2.38V25.05H23.26l.22-10.53-1.61,7.62H20.21L18.6,14.52l.22,10.53H16.67V9h2.38Z"/></svg>