<?xml version="1.0" encoding="UTF-8"?>
<svg id="dieline" xmlns="http://www.w3.org/2000/svg" viewBox="0 0 34.02 34.02">
  <defs>
    <style>
      .cls-1 {
        fill: #f7955b;
      }

      .cls-2 {
        fill: #fff;
      }
    </style>
  </defs>
  <circle class="cls-1" cx="17.01" cy="17.01" r="17.01"/>
  <g>
    <path class="cls-2" d="m18.27,28.57l-.45-3.15c.74-.11,1.46-.32,2.14-.63l1.33,2.89c-.96.44-1.97.74-3.02.89Zm-3.15-.03c-1.06-.16-2.06-.44-2.99-.84l1.26-2.92c.67.29,1.41.5,2.2.61l-.47,3.15Zm-5.67-2.51c-.81-.69-1.5-1.5-2.07-2.41l2.7-1.68c.39.63.88,1.19,1.44,1.67l-2.07,2.42Zm14.48-.05l-2.09-2.4c.57-.49,1.06-1.06,1.47-1.69l2.67,1.72c-.57.88-1.26,1.68-2.06,2.37Zm-17.81-5.23c-.28-1-.42-2.04-.42-3.09h3.18c0,.76.1,1.51.31,2.24l-3.06.85Zm21.18,0l-3.05-.89c.21-.72.32-1.46.32-2.22v-.04s3.18,0,3.18,0v.02c0,1.08-.15,2.12-.44,3.13Zm-18.12-5.34l-3.07-.84c.28-1.03.7-2,1.25-2.88l2.7,1.67c-.39.63-.69,1.32-.89,2.05Zm2.32-3.73l-2.08-2.41c.8-.69,1.7-1.25,2.68-1.68l1.27,2.92c-.69.3-1.32.7-1.88,1.17Z"/>
    <path class="cls-2" d="m17.69,24.6l-.29-2.01c.47-.07.93-.2,1.37-.4l.84,1.84c-.61.28-1.26.47-1.92.57Zm-2.01-.02c-.67-.1-1.31-.28-1.9-.53l.8-1.86c.43.18.9.32,1.4.39l-.3,2Zm-3.61-1.6c-.51-.44-.96-.95-1.32-1.53l1.72-1.07c.25.4.56.76.92,1.07l-1.32,1.54Zm9.23-.03l-1.33-1.53c.36-.31.68-.68.93-1.08l1.7,1.1c-.36.56-.8,1.07-1.31,1.51Zm-11.35-3.33c-.18-.64-.27-1.3-.27-1.97h2.03c0,.48.07.96.2,1.43l-1.95.54Zm13.49,0l-1.94-.57c.13-.46.2-.93.2-1.41l2.03-.03v.03c0,.67-.1,1.34-.28,1.98Zm-11.54-3.4l-1.95-.54c.18-.65.45-1.27.8-1.84l1.72,1.07c-.25.4-.44.84-.57,1.31Zm1.48-2.38l-1.32-1.53c.51-.44,1.08-.8,1.71-1.07l.81,1.86c-.44.19-.84.44-1.19.75Z"/>
    <path class="cls-2" d="m17.3,21.88l-.17-1.22c.29-.04.57-.12.83-.24l.51,1.12c-.37.17-.77.29-1.17.34Zm-1.22-.01c-.41-.06-.8-.17-1.16-.33l.49-1.13c.26.11.55.19.85.24l-.18,1.22Zm-2.2-.97c-.31-.27-.58-.58-.8-.93l1.05-.65c.15.25.34.46.56.65l-.8.94Zm5.61-.02l-.81-.93c.22-.19.41-.41.57-.66l1.04.67c-.22.34-.49.65-.8.92Zm-6.91-2.03c-.11-.39-.16-.79-.16-1.2h1.23c0,.29.04.59.12.87l-1.19.33Zm8.21,0l-1.18-.35c.08-.28.12-.57.12-.86l1.23-.02v.02c0,.41-.06.82-.17,1.21Zm-7.03-2.07l-1.19-.33c.11-.4.27-.77.49-1.12l1.05.65c-.15.24-.27.51-.34.8Zm.9-1.45l-.81-.93c.31-.27.66-.49,1.04-.65l.49,1.13c-.27.12-.51.27-.73.45Z"/>
    <circle class="cls-2" cx="21.49" cy="10.32" r="6.56"/>
  </g>
</svg>