<?xml version="1.0" encoding="UTF-8"?>
<svg id="dieline" xmlns="http://www.w3.org/2000/svg" viewBox="0 0 34.02 34.02">
  <defs>
    <style>
      .cls-1 {
        fill: #00aeef;
      }

      .cls-2 {
        fill: #fff;
      }
    </style>
  </defs>
  <circle class="cls-1" cx="17.01" cy="17.01" r="17.01"/>
  <g>
    <path class="cls-2" d="m18.11,19.59h.45v-.39h-.47c0,.16.01.27.02.39Z"/>
    <path class="cls-2" d="m17.01,2.52s-7.31,13.54-7.31,17.58,3.27,7.31,7.31,7.31,7.31-3.27,7.31-7.31S17.01,2.52,17.01,2.52Zm-3.62,14.99c.16,0,.27-.01.38-.02,0,.27-.03.51,0,.74.04.23.14.46.22.71.25-.08.35-.27.5-.4.15-.14.29-.3.45-.46.1.09.17.15.28.25-.35.33-.69.64-1.03.96.28.51.69.84,1.19,1.16-.12.09-.21.15-.3.21-.65-.31-.99-.85-1.3-1.48-.03.56-.05,1.05-.08,1.55,0,.05-.06.1-.1.18h-.75c-.03-.05-.07-.13-.13-.24.23-.02.42-.04.65-.05v-3.09Zm-1.43,1.29c0-.12-.02-.21-.03-.35.46,0,.9-.08,1.35.07-.21.83-.5,1.59-1.2,2.1-.07-.04-.1-.05-.13-.08-.04-.04-.08-.09-.14-.15.5-.41.91-.88,1.03-1.6h-.88Zm5.1,7.65c-2.18,0-4.1-1.1-5.25-2.77.93.74,2.1,1.19,3.39,1.19,2.99,0,5.41-2.42,5.41-5.41s-2.42-5.41-5.41-5.41c-.03,0-.06,0-.09,0,.62-.2,1.27-.31,1.96-.31,3.51,0,6.36,2.85,6.36,6.36s-2.85,6.36-6.36,6.36Zm-1.5-8.07s-.01-.04-.03-.08c.13-.19.35-.02.55-.17.01-.16.02-.37.04-.61.09-.02.18-.03.3-.05v.7c.17.02.32.03.48.05-.04.38-.28.63-.43.9.08.23.28.31.48.45.08-.47-.01-.93.06-1.41.24-.01.48-.03.75-.04.02-.2.03-.39.05-.6.1-.01.19-.02.29-.03v.63c.25.01.49.03.72.04.09.29.1,1.52.01,1.86-.24.05-.45-.27-.74-.04v.89c-.1.02-.18.03-.3.05v-.96c-.28-.1-.51-.07-.74.12-.04-.13-.07-.23-.1-.33-.04.03-.08.07-.15.12-.11-.09-.23-.19-.39-.32v1.32c-.1.02-.18.03-.24.04-.03-.03-.04-.04-.04-.05-.02-.4-.03-.79-.05-1.21-.17.12-.33.22-.5.34-.06-.11-.09-.18-.14-.28.47-.32.82-.73,1.06-1.24-.32-.03-.63-.06-.94-.09Z"/>
    <path class="cls-2" d="m18.6,18.86c-.01-.16-.02-.28-.03-.41-.18,0-.32.02-.48.02.01.16.02.27.03.39h.48Z"/>
    <path class="cls-2" d="m17.78,19.59c0-.16-.02-.27-.02-.39h-.55c0,.15.02.26.02.39h.55Z"/>
    <path class="cls-2" d="m17.76,18.47h-.53v.37h.56c-.01-.15-.02-.26-.03-.37Z"/>
  </g>
</svg>