<?xml version="1.0" encoding="UTF-8"?>
<svg id="dieline" xmlns="http://www.w3.org/2000/svg" viewBox="0 0 34.02 34.02">
  <defs>
    <style>
      .cls-1 {
        fill: #fff;
      }

      .cls-2 {
        fill: #ffcc4e;
      }
    </style>
  </defs>
  <circle class="cls-2" cx="17.01" cy="17.01" r="17.01"/>
  <g>
    <path class="cls-1" d="m10.83,11.3c.39-.07.8-.11,1.19-.11.62,0,1.23.09,1.81.27-.07-.87.04-1.74.31-2.56-.88-.56-1.9-.86-2.93-.86-.28,0-.57.02-.85.07-.17,1.06-.02,2.18.46,3.2,0,0,0,0,0,0Z"/>
    <path class="cls-1" d="m20.19,11.44c.57-.16,1.16-.25,1.76-.25.4,0,.8.04,1.19.11.07.01.14.03.21.05.51-1.03.66-2.16.49-3.25-.28-.05-.57-.07-.85-.07-1.09,0-2.17.33-3.08.95.08.24.14.49.19.74.11.57.13,1.14.09,1.71Z"/>
    <path class="cls-1" d="m16.61,13.14s.02.02.02.02c.12.13.24.26.35.4.03-.04.06-.08.1-.11.01-.02.03-.03.04-.05.14-.17.3-.33.46-.48,0,0,0,0,0,0,.48-.44,1.01-.81,1.59-1.09.1-.62.1-1.26-.02-1.92-.02-.08-.04-.16-.06-.24-.04-.18-.09-.35-.15-.52-.06-.16-.12-.32-.19-.48-.4-.87-1-1.61-1.75-2.15-.73.53-1.31,1.23-1.7,2.04-.07.15-.14.31-.2.46-.06.16-.12.33-.16.5-.2.74-.24,1.53-.1,2.33.65.32,1.25.76,1.76,1.29Z"/>
    <path class="cls-1" d="m8.93,15.68c.59-.32,1.22-.56,1.89-.69.39-.07.8-.11,1.19-.11,1.03,0,2.03.25,2.93.72.06-.09.13-.18.2-.27.07-.08.14-.17.21-.25.06-.07.12-.14.19-.21.05-.05.09-.1.14-.15.11-.11.23-.22.35-.33,0,0,0,0,.02-.01.07-.06.15-.12.22-.18-.28-.36-.61-.68-.97-.95-.22-.17-.45-.32-.7-.45-.19-.1-.38-.19-.58-.27-.62-.25-1.3-.38-2-.38-.22,0-.44.02-.67.05-.12.01-.23.03-.35.05-.06.01-.12.03-.18.04-.16.04-.33.08-.48.13-1.13.36-2.07,1.07-2.73,1.98.36.5.81.94,1.32,1.28Z"/>
    <path class="cls-1" d="m17.72,14.18c.08.06.16.12.23.19.01.01.03.02.04.03.12.1.24.22.35.33.05.05.1.1.15.15.06.07.12.14.18.21.07.09.15.17.22.26.07.09.13.18.19.27.35-.2.72-.36,1.1-.49.12-.04.23-.08.35-.11.16-.04.31-.08.47-.11.39-.07.8-.11,1.19-.11,1.06,0,2.1.27,3.01.76.43-.32.82-.71,1.14-1.16-.62-.86-1.5-1.54-2.54-1.91-.16-.06-.31-.11-.48-.15-.12-.03-.25-.07-.37-.09-.05,0-.09-.01-.14-.02-.29-.05-.59-.08-.88-.08-.68,0-1.33.13-1.94.36-.2.08-.39.16-.58.26-.24.12-.46.27-.68.42-.38.28-.73.61-1.03.99Z"/>
    <path class="cls-1" d="m18.08,16.29c.06-.05.12-.11.19-.16-.09-.13-.18-.25-.28-.37-.1-.12-.21-.24-.32-.35-.04-.04-.09-.08-.13-.13-.04-.04-.08-.08-.12-.12-.03-.03-.07-.05-.1-.08-.04-.04-.09-.07-.14-.11-.06-.04-.11-.09-.17-.13-.07.05-.13.1-.2.16-.01.01-.03.02-.04.03-.02.02-.04.03-.06.05-.09.07-.17.15-.26.23-.03.03-.06.06-.1.1-.11.11-.22.23-.32.36-.09.11-.18.22-.26.34.06.05.13.09.19.14.41.32.79.7,1.12,1.12.3-.4.64-.76,1.01-1.07Z"/>
    <path class="cls-1" d="m17.22,20.9c.31-.39.66-.74,1.05-1.05-.42-.33-.81-.71-1.14-1.14-.3.41-.66.78-1.04,1.1.42.31.79.68,1.13,1.09Z"/>
    <path class="cls-1" d="m18.03,24.05c-.06-.16-.12-.32-.19-.48-.07-.16-.14-.31-.22-.45-.08-.15-.18-.29-.27-.43-.04-.05-.09-.1-.13-.15-.12.15-.25.3-.39.44-.07.11-.13.23-.19.35-.07.14-.14.29-.2.45-.06.15-.12.31-.17.48-.34,1.07-.48,2.33-.34,3.62,0,.05.01.09.02.14h2.47c.09-.69.1-1.42.02-2.16-.07-.66-.22-1.27-.41-1.81Z"/>
    <path class="cls-1" d="m8.99,19.42c.63-.37,1.33-.64,2.07-.78.39-.07.8-.11,1.19-.11.54,0,1.07.07,1.58.2.16.04.32.09.47.14.16.05.31.11.47.18.16.07.32.15.47.23.45-.33.85-.73,1.17-1.18-.32-.44-.7-.83-1.13-1.15-.06-.05-.12-.09-.18-.13-.07-.05-.14-.1-.22-.14-.08-.05-.17-.1-.26-.15-.05-.03-.11-.06-.16-.09-.13-.07-.27-.13-.41-.18-.64-.26-1.32-.4-2.03-.4-.33,0-.67.03-1.02.1-.36.07-.7.17-1.03.3-.2.08-.38.17-.56.27-.16.09-.32.19-.47.29-.51.35-.96.79-1.32,1.29.38.52.85.97,1.38,1.32Z"/>
    <path class="cls-1" d="m19.14,19.3s.07-.04.11-.06c.16-.08.31-.15.48-.22.15-.06.31-.12.47-.17.26-.09.53-.16.81-.21.39-.07.8-.11,1.19-.11,1.08,0,2.12.28,3.05.78.52-.36.98-.8,1.35-1.31-.37-.51-.83-.96-1.35-1.31-.15-.1-.31-.2-.47-.28-.18-.1-.36-.18-.55-.26-.63-.25-1.31-.39-2.02-.39-.33,0-.67.03-1.02.1-.44.08-.86.23-1.26.41-.12.06-.25.12-.37.18-.06.03-.12.07-.17.1-.08.05-.16.1-.24.15-.07.05-.15.1-.22.15-.06.05-.12.09-.18.14-.36.3-.69.64-.96,1.02.37.51.83.95,1.35,1.3Z"/>
    <path class="cls-1" d="m16.06,22.4c.21-.2.4-.42.57-.65l-.02-.02.02-.03s-.02-.03-.03-.04c-.37-.5-.82-.92-1.33-1.27-.14-.09-.28-.18-.43-.26-.02,0-.03-.02-.05-.03-.15-.08-.31-.16-.47-.22-.03-.01-.06-.02-.09-.04-.13-.05-.27-.1-.41-.14-.5-.15-1.03-.24-1.57-.24-.33,0-.67.03-1.02.1-.43.08-.83.21-1.21.38-.19.08-.37.18-.55.28-.16.09-.31.2-.46.31-.45.33-.85.73-1.17,1.18,1.01,1.39,2.63,2.25,4.39,2.25.33,0,.67-.03,1.02-.1.69-.13,1.32-.39,1.88-.74.14-.09.27-.18.39-.27.13-.1.25-.2.37-.31.06-.05.11-.1.16-.15Z"/>
    <path class="cls-1" d="m25.25,20.42c-.16-.11-.32-.2-.48-.29-.19-.1-.38-.19-.58-.27-.62-.25-1.3-.38-1.99-.38-.33,0-.67.03-1.02.1-.34.06-.67.16-.99.29,0,0-.01,0-.02,0-.18.07-.35.15-.52.24-.01,0-.03.02-.04.03-.17.09-.33.19-.48.29,0,0-.02.01-.02.02-.51.35-.95.78-1.3,1.26,0,0,0,.01-.01.02,0,0,0,0,0,0,0,0,.01.01.02.02.09.12.18.24.28.35.07.08.13.15.2.22.11.12.23.23.35.33.12.1.25.2.38.3.9.65,2.01,1.03,3.17,1.03.33,0,.67-.03,1.02-.1,1.42-.27,2.6-1.07,3.39-2.15-.37-.51-.83-.95-1.35-1.3Z"/>
  </g>
</svg>