<svg xmlns="http://www.w3.org/2000/svg" viewBox="0 0 612 612"><circle class="color-reserved-white color-stroke-reserved-white" stroke="#000" stroke-miterlimit="10" stroke-width=".949" cx="306" cy="306" r="290.5"/><path class="color-reserved-gray" fill="#fff" d="M150.1 329.1c2.5-2.7 5.4-5 7.6-8 3.4-4.7 7.3-7.1 13.2-5.9 3.1.7 6.3.9 10.5 1.5 3.1-8.5 10.7-5.7 18.1-3.9 4.1 1 8.4 1.8 13.4 2.7-4.7 5.6-9 10.8-13.8 16.5 3.6.2 6.4.4 10 .7 0 9.5.1 19-.1 28.4 0 1.1-1.5 2.3-2.4 3.4-9 10.4-19.3 17.2-34 14.5-5.1-.9-10.7-.2-16-.2 0-.7-.2-1.2 0-1.3 6.3-5.7 7.6-12.9 6.9-21-.5-6.6.3-13.3.4-19.9 0-2-.2-3.8-.4-6.5h-13.3l-.1-1zm28.7 16.4c0 5.4-.1 10.5.1 15.4 0 .8 1.4 2.2 2.2 2.2 4 .2 8 .1 12 .1v-16.7c-4.9-.3-9.3-.6-14.3-1zm13.4-17.7c-11.7-2.5-15.5 2.2-12.1 14.1 4-4.6 7.8-9.1 12.1-14.1zm132.6-191.4c-5.3-5.1-9.1-10-10.4-16.4-.9-4.6-2.6-7-7.9-5.5-4.1 1.1-8.5 1-14.3 1.6 2.2-1.5 3.1-2.3 4.2-2.9 2.7-1.4 5.7-2.3 8.2-4 4.3-2.9 8.8-5.8 12.4-9.4 4.6-4.6-2.2-9.3-.3-14.6 1.1 2.1 2 3.9 3.2 5.7 1.4 2.1 2.9 4.2 4.7 5.9 1.5 1.5 3.5 2.5 6.5 4.6-1.3-8.1-4.4-13.5-8.7-18-4.3-4.4-9.4-8-14.1-12.6 4.2 1.7 8.5 3.5 12.7 5.1 8.9-20.8 15.9-25.4 33.5-22.1-5-5-14.4-5.6-22.5-1.4-5.8 3-7.9 5.4-15.3 18.6-.9-11.4 6.1-21.2 17.8-25 17.7-5.6 29.2-.2 43 22 4.5-4.7 8.6-9 12.6-13.2-.7-.7-1.3-1.6-2-2.3-2.2 1.1-4.3 2.2-6.4 3.2 1.2-4 8.6-9.6 12.6-8.9 1 .2 2.4 2.5 2.2 3.7-.5 3.5-1.6 6.9-1.4 10.8 2.4-4.4 4.9-8.9 7.5-13.4 3.7 2.3 5 6.3 3.6 10.5-1.3 4-3.4 8-5.9 11.3-5.9 7.8-3.2 18 6.1 21.3 9.9 3.5 20.8-2 24.2-12.3.7-2.1 1-4.1 1.5-6.3 5.1 5.5 2.9 18.7-4.2 25.3-10.8 10.1-27.3 7.8-41-5.7.3 2.1.4 4.1.9 6.1 1.1 3.8 2.7 7.5 3.7 11.2 2.1 7.6-1.5 16-8.6 18.7-2.4.9-5.7 0-8.5-.4-2-.3-3.7-1.2-5.9-2-2.8 7.4-6 14.3-4.3 22.8 1.8 9-.6 17.7-4.8 26.1-5 9.9-6.8 20.6-4.9 31.9.7 3.7-.2 7.9-.8 11.7-1 5.4-2.8 10.8-3.8 16.3-1.2 6.4 3 13 8.3 16.7 13.1 9.1 27.3 12.5 43.3 11 10.6-.9 21.2-.2 32 .6-14.5 3-29.2 5.3-43.4 9.1-10.4 2.8-19.4 1.9-28-4.1-10.8-7.4-21.8-6.7-34.2-4.5-15.8 2.9-29.9 8.7-43.3 16.8-7.6 4.7-15.6 7.2-24.4 7.8-14.7.9-27.8 6.5-40.6 13.5-3.3 1.8-7.5 2.5-11.2 2.7-8.7.4-17.5.1-26.6.1 8.8-3.8 17-8.5 20.5-17.8 3.2-8.6 5.6-17.5 8.1-25.7.6 2.3 1.5 6 2.6 10.8 2.6-4.7 4.3-8.8 6.8-12.2 8.1-11.1 15-22.8 17.2-36.7.3-1.6 1.9-3 2.9-4.4 5.7-7.7 11.5-15.3 17.3-23 1.3 3.1 3 7.3 5 12.2 13.6-11.8 30.5-20 31.1-41.4 2 8.9 6.3 15.7 14.4 21.3-1.3-4.1-2.2-7.3-3.7-11.9 7 5.1 13.9 8.6 18.5 14 3.4 4 3.6 10.6 5.1 16 .6 1.9.7 3.8 1.1 6.2 6.4-12.5 7.8-20 5.6-29.3-.3-1.3-.9-2.7-1.9-3.6-6.6-7.1-14.2-13.6-19.6-21.5-3-4.4-2.2-11.3-2.1-17.4 4.3 6.6 5.4 15.2 14.8 17.9 2.4-2.4 5.1-5.2 8.2-8.4.9 6.2 1.8 11.8 2.9 19.1 1.3-4.1 1.8-6.9 3.1-9.3 2-3.7 4-7.5 6.7-10.8 4.1-5 5.2-10.2 3.3-16.8-2.5 3-4.8 5.6-7 8.3l-1.1-.6c2-5.6 3.6-11.3 6-16.7 2-4.7 2.2-8.7-.8-13.1-4.3-6.1 2-10.6 3.6-15.8.4 1.5 1 3 1 4.5 0 4.5 2.5 6.1 6.4 8 3.9 2 7.1 5.7 10.2 9.1 3.7 4.1 8.1 6.1 14.2 6.3-1.5-2.7-2.7-4.7-4.5-7.9 3.5 1.3 5.6 2.2 7.7 2.9 2.5-4.3 2.5-4.3-7.4-9.6 5.3-1.6 4.1-4.8 3.2-8.6-1.3-5.3-1.5-10.9-2.3-17.6 2.3 1.6 3.6 2.4 4.8 3.3.4-.3.7-.6 1.1-.7-2-3.6-3.9-7.1-6.6-12-3.6 11.4-11.3 7.1-18 6.5 1.2-.5 2.3-.9 3.6-1.5-7.8-5.1-16.5 1.1-21.3 7.7-1.5 2.1-3 4.1-3.9 6.5-.7 1.5-.7 3.6-.3 5.1 1.2 3.4 4.2 7 .8 9.8-2.3 2-6.5 2.6-9.7 2.5-5.9-.2-7.3.6-7.2 6.4 0 3.6-.3 7.3.2 10.8.2 3.4 1.4 6.7 2.4 11.4zm-50.8 137c18.5-17 41.4-21 64-24.5 0-3.9-1-7.5.2-9.8 6.5-12.2.1-24.8 1.7-37.1-2.1 3.6-4.7 7.5-4.6 11.2.4 16.5-10.4 24.6-22.9 31.6-2.7 1.5-4.5.7-5.3-2.2-1.7-5.5 3.2-16.5 8.2-18.6 8.1-3.5 8.1-3.5 6.7-12.2-.4-2.1-.9-4-1.4-6.1-4.4 2.5-8.2 5.2-12.4 7.1-4.4 1.9-9.2 2.8-13.9 4.3 1.7 6.5-.2 11.6-4.1 15.9-3.5 3.6-7.3 7-11.2 10.1-12.6 9.7-13.2 11.4-6.8 26.2.2.9.6 1.6 1.8 4.1zm-60.7 15c.5.5 1 .8 1.5 1.3 12.2-8.2 25.8-12.4 40.4-13.4 4.4-.3 4.6-4.7 3.6-8-1.4-5.3-3.5-10.6-5.4-15.7-3.5-9.1-3.2-10.8 4.7-16.2 3.7-2.5 4.9-5 1.4-9.3-2.5 1.4-5.3 2.5-7.7 4.3-11.2 8.5-16.9 21.7-26 32-2.6 2.9-4.7 6.5-6.4 10-2.3 4.9-4.1 9.9-6.1 15zM332.4 82.5c4.9-4.1 9.7-8.2 14.6-12.4-3.2-3.7-6.4-4.2-10.8-1.5-5.4 3.4-6.6 8.2-3.8 13.9zm86.1 273.8c-17.2 10.7-35.9 17.6-55.5 22.5-35.7 9-71.1 19.1-106.9 28-6.6 1.7-14.2.1-21.2-.7-13.8-1.7-27.7-3.8-41.6-6.9 75.1-14.5 150.1-28.7 225.2-42.9zM281 315.2c0 16.2.1 32.1-.1 47.9 0 1.5-1.4 3.1-2.4 4.5-7.3 9.7-17.2 13.3-29.1 12.5-3.4-.2-6.8.4-9.5.6 4.5-5 9.3-10.5 13.8-15.7.4.2-.2-.2-.8-.4-9.1-3-9.1-3-9.1-12.9 0-6.5.1-13-.1-19.4-.1-3.3.7-5.6 3.4-7.9 13.1-11.4 13-11.5 30-9.5 1.2 0 2.3 0 3.9.3zm-21.7 14c0 5.7-.2 11.1.1 16.5.1 1.7 1.2 3.3 1.8 5 1.5-1.5 4.2-2.9 4.4-4.6.6-5.2.2-10.7.2-16.2-2.5-.4-4.2-.6-6.5-.7zm0 36.1c2.8-.2 4.5-.4 6.2-.6v-6.3c-2.2 2.5-3.7 4.2-6.2 6.9zm43.5-76.7v22c6.7-10.6 14.8-3.5 22-4.4 0 18.2 0 35.8-.1 53.4 0 1-.7 2.6-1.5 3.1-4.3 2.5-8.7 4.9-13.8 7.7 0-15.4-.2-29.7.1-44.1.1-4.7-1.6-6.3-6.7-5.4v26.2c0 9.8 0 9.8-9.7 11.4-1.6.3-3.2.6-5.5 1v-5.9c.1-16.7.2-33.6.1-50.3 0-3.9.8-6.4 4.6-8.1 3.2-1.8 6.5-4.1 10.5-6.6zm154.5 28.2c-1.4 2.4-2.8 5-4.3 7.4-4 6.7-6.1 7.4-13.2 3.7-1.1-.6-2-2.7-2.1-4.2-.2-6.3-.1-12.6-.1-18.9 0-7.3 0-7.3-8.2-7 0 9.8-.2 19.7.1 29.5.1 4-.9 5.9-5.2 6.2-3.2.2-6.4 1.1-9.9 1.8v-33.8c-1.8-.7-3.2-1.3-5.1-2.2 3-5.2 6-10.5 9.2-16.1 3.4 1.6 6.5 3.2 10 4.8 6.3-13.4 16.3-2.9 24.8-4.9 0 9.4-.2 18 .1 26.6.1 2.4 1.6 4.8 2.4 7.1.4.2.9.1 1.5 0zm-88.1-17.7c0 10.6.2 20.8-.1 31-.1 2.2-1.8 4.3-2.9 6.4-.2.5-.8.7-1.2 1-8.3 9.7-18.8 12-30.9 9-2.6-.7-3.6-1.4-3.6-4 .1-8.6-.2-17.3.2-25.9.1-2.2 1.7-4.6 3.3-6.4 12.3-13.9 12.4-13.9 30.9-11.8 1.4.2 3 .5 4.3.7zm-23.3 13.6v13c0 6.9.1 7 7.5 6.2v-18.8c-2.4-.2-4.6-.3-7.5-.4zm34.4 26v-30.6c-2.8-.7-5.3-1.4-8.2-2.2 3.2-5.1 6.2-10 9.3-15.1 3.6 1.2 7 2.3 10.8 3.6 1.6-2.1 3.2-4.1 4.9-6.5 4 2 7.9 3.8 11.7 5.6-2.7 7.7-8.1 13.2-12.8 12.7v18.9c4 .3 8 .6 12.2.8-5.8 11.6-14 17.3-27.9 12.8zm-166.7-2.3c1.8-3 3.2-5.4 4.8-7.8 5.7-8.3 3.1-6.7 12.2-3.8 3.1 1 4.1 2.6 3.9 5.8-.3 6.8 0 13.7-.1 20.6-.1 3.6 0 6.6 5.7 6.4-3.6 5.3-6.6 9.9-9.6 14.3-.7.1-1 .3-1.3.2C219 369 219 369 219 358.5c0-5.2-.2-10.5.1-15.7 0-3.8-.5-6.4-5.5-6.4z"/><path class="color-reserved-gray" fill="#fff" d="M241.7 172.8c-1.3 3.2-2.3 6.5-4 9.6-3.5 6.5-7.9 12.5-10.6 19.3-1.8 4.4-1.9 9.6-2.1 14.5-.4 7.7.7 15.5-.7 23-.8 4.7-5.1 8.7-7.9 13-.5-.2-.9-.5-1.3-.7.3-1 .4-2.2.8-3.1 4.8-9.8 5.8-19.8 2.6-30.4-2.1-6.9-1-13.7.7-20.8 2.8-12.5 12.1-18.3 20.9-25.1.6.4 1.1.5 1.6.7zm39.1-43.6c-.7 5.3-.7 10-2.2 14.1-1.3 3.8-3.6 8-6.5 10.6-5.8 5-9.9 10.7-11.8 18.2-.7 2.5-2.3 4.7-4.4 6.7v-17c-2.4.9-4.9 1.8-7.6 2.9 10.9-11.9 21.3-23.3 32.5-35.5zm-55.1 192.5c-3.5-2.1-6.5-3.8-10.2-6 3.8-3.4 7.3-6.5 11.1-9.8 2.5 1.6 5.8 3.6 9.5 6.1-3.8 3.5-7 6.6-10.4 9.7zM374.5 87c-3.5 3.6-6 6.4-8.5 9.1-3.2-3.5-6-6.4-9.1-9.7 5.9-2.9 11.1-2.8 17.6.6z"/><path class="color-reserved-white" d="M178.8 345.5c5 .4 9.5.7 14.4 1v16.7c-3.9 0-7.9.1-12-.1-.8-.1-2.2-1.4-2.2-2.2-.3-4.9-.2-9.9-.2-15.4zm13.4-17.7c-4.3 5-8.1 9.4-12.1 14.1-3.4-11.9.4-16.7 12.1-14.1zm81.8-54.4c-1.2-2.5-1.6-3.4-2-4.1-6.4-14.7-5.8-16.4 6.8-26.2 4-3.1 7.8-6.5 11.2-10.1 4-4.2 5.8-9.4 4.1-15.9 4.8-1.4 9.5-2.4 13.9-4.3 4.2-1.8 8-4.5 12.4-7.1.5 2 1 4 1.4 6.1 1.4 8.7 1.4 8.7-6.7 12.2-5 2.2-9.9 13.1-8.2 18.6.8 2.8 2.6 3.6 5.3 2.2 12.5-7 23.3-15 22.9-31.6-.1-3.7 2.5-7.6 4.6-11.2-1.6 12.3 4.9 25-1.7 37.1-1.2 2.3-.2 5.9-.2 9.8-22.4 3.6-45.3 7.6-63.8 24.5zm-60.7 15c2.1-5 3.8-10.1 6.2-15 1.7-3.6 3.7-7 6.4-10 9.2-10.3 14.8-23.5 26-32 2.3-1.8 5.1-3 7.7-4.3 3.5 4.3 2.3 6.7-1.4 9.3-7.9 5.3-8.1 7.2-4.7 16.2 2 5.1 4 10.4 5.4 15.7.9 3.3.7 7.8-3.6 8-14.6.9-28 5.1-40.4 13.4-.6-.5-1.1-.8-1.6-1.3zM332.4 82.5c-2.8-5.8-1.6-10.5 3.8-13.8 4.4-2.8 7.7-2.2 10.8 1.5-4.9 4.1-9.9 8.3-14.6 12.3zm-73.1 246.7c2.3.3 4 .4 6.5.7 0 5.5.4 10.9-.2 16.2-.2 1.7-2.8 3.1-4.4 4.6-.7-1.7-1.8-3.3-1.8-5-.2-5.4-.1-10.8-.1-16.5zm0 36.1c2.5-2.7 4-4.4 6.2-6.8v6.3c-1.8.2-3.4.4-6.2.5zm86.6-52.6c2.9.1 5 .3 7.5.4v18.8c-7.4.8-7.5.7-7.5-6.2v-13z"/><path class="color-reserved-gray" fill="#fff" d="M145.4 501.2c-4.5-8.5-9-17.1-13.6-25.5-3-.2-4.4-.3-7.4-.5-.3 6.2-.4 9.3-.7 15.3 4.2 1.5 6.3 2.2 10.5 3.6-6.5 5-9.7 7.6-16.2 12.5-4-2.2-6-3.3-10.1-5.4l1.4-45.2c-4.6-1.8-6.9-2.7-11.7-4.5 6.6-4.8 9.9-7.1 16.5-11.8 4.7 1.7 6.9 2.5 11.4 4.3 5.1-3.9 7.8-5.9 12.8-9.7 6.6.8 9.9 1.3 16.4 2.2-.5 7.5-.7 11.1-1.3 18.6-4.1 3.5-6.1 5.1-10.2 8.6 5.8 8.9 11.5 17.9 17.2 26.8-6 4.4-8.9 6.5-15 10.7zm-7.3-37.5c.3-5.5.5-8.2.7-13.7-5-.3-7.6-.4-12.7-.6-.4 7.9-.7 11.7-1 19.5 3.1-2.3 4.6-3.6 7.6-5.9 2.1.3 3.2.4 5.4.7z"/><path class="color-reserved-gray" fill="#fff" d="m184 425.3 25.7 3.3c-.7 15.6-1.7 31.1-2.5 46.7 3.7 1.1 5.7 1.8 9.5 2.9-6 4.8-8.9 7.2-14.9 12-4.2-1.8-6.3-2.6-10.5-4.4.4-7.9.7-11.8 1.1-19.7-6.5 1.3-9.6 2-16.2 3.2-3.2 5.7-4.9 8.5-8 14.2 5.2.4 7.9.7 13.1 1-5 5-7.5 7.5-12.3 12.5-5.5-1.6-8.3-2.4-13.8-3.9l33.7-55.3c-7.6-.5-11.3-.7-19-1.1 5.7-4.7 8.5-6.9 14.1-11.4zm-3.4 36.3c5-1 7.6-1.5 12.6-2.5.6-8.2.9-12.3 1.5-20.6-4.7 7.8-9.4 15.5-14.1 23.1zm55.7 6.5c4.4 1 6.5 1.6 10.8 2.7-6.5 5.3-9.9 8-16.6 13.5-4.1-1.8-6.2-2.7-10.2-4.5.7-15.3 1.5-30.7 2.2-45.9-3.6-2-5.5-2.9-9.1-4.9 5.6-4.9 8.4-7.3 13.9-12.1 4.1 2.3 6.3 3.6 10.5 5.9-.3 15.1-1 30.2-1.5 45.3zm30.9-5.8c9.2-.7 13.7-1.2 22.6-2-4.2 5.8-6.4 8.7-10.7 14.6-9.2.4-18.2.7-27.4 1 .6-16.1 1.2-32.1 1.9-48.1-3.6-2-5.5-2.9-9.2-4.9 5.6-4.9 8.3-7.2 13.8-12 4.1 2.3 6.2 3.6 10.3 5.9l-1.3 45.5zm60.4 2.6c-4.8-8.4-9.6-16.7-14.6-25.2-2.8-.2-4.2-.3-7-.6.1 6 .1 9 .1 15.1 4 1.5 6.1 2.2 10.2 3.7-6 4.9-9 7.3-15.1 12.2-3.8-2.2-5.8-3.3-9.7-5.4.2-14.8.1-29.5.2-44.4l-10.1-4.8c5.6-4.5 8.4-6.7 13.9-11.2 4 1.8 6 2.7 10.1 4.5 4.5-3.7 6.6-5.6 11.1-9.3 6 .9 9.1 1.4 15.1 2.3-.1 7.3 0 10.9.1 18.1-3.6 3.4-5.4 5-9.1 8.3 6.3 8.8 12.5 17.6 18.8 26.3-5.4 4.2-8.3 6.3-14 10.4zm-9.4-36.7c-.1-5.4-.2-8-.2-13.5-4.7-.3-6.9-.5-11.5-.7-.1 7.7 0 11.5 0 19.1 2.7-2.2 4-3.4 6.7-5.6 1.9.2 2.9.4 5 .7zm51.1 29.9c-9.7-2.1-14.5-3.1-24-5.1-.4-14-1-28-1.6-42 8.9-7.6 17.8-15.1 26.7-22.6 8.6 1.9 17.2 3.8 25.8 5.8.3 14.8 1.1 29.5 1.5 44.3-9.4 6.6-18.9 13.1-28.4 19.6zm11.4-13.3c-.3-12.9-1-25.9-1.6-38.8-7.8-1.4-11.6-2.2-18.9-3.6.4 13 .9 25.9 1.4 38.9 7.6 1.5 11.5 2.1 19.1 3.5zm44.9-67.7c9.2.9 18.2 1.8 27.4 2.6.1 15.5.5 31 .7 46.6l9.8 2.8c-5.8 4.8-8.7 7.2-14.6 12-4.4-1.7-6.5-2.5-10.9-4.2 0-7.8-.1-11.7-.3-19.5-6.6 1.3-9.9 2.1-16.5 3.4-2.8 5.6-4.3 8.4-7.2 14.1 5.4.4 8.2.6 13.7.9-4.8 5-7.2 7.5-12.1 12.4-5.8-1.5-8.7-2.3-14.5-3.8 10.2-18.3 20.2-36.7 30.4-55-8-.4-12.1-.5-20-.8 5.6-4.7 8.4-6.9 14.1-11.5zm-.8 36c5.2-1 7.8-1.6 13-2.6-.1-8.1-.2-12.2-.2-20.4-4.3 7.7-8.6 15.3-12.8 23zm61 21c-9.5-1.4-14.4-2.1-24.2-3.4 3.1-3.2 4.7-4.7 7.8-7.9-1.6-11.2-3.4-22.4-5-33.7 4.5-3.4 6.7-5 11.3-8.4-7.9-.6-12-.8-19.9-1.4 6.2-5.5 9.3-8.2 15.5-13.7l43.2 2.8-.6 46.4c-9.4 6.5-18.8 12.9-28.1 19.3zm12.1-13.2c.1-12.9.1-25.9.2-38.8-7.4-.5-11.1-.7-18.7-1 1.5 11.5 3 22.9 4.4 34.4-2.2 2-3.2 3-5.2 5 7.8 0 11.7.1 19.3.4z"/></svg>