<svg xmlns="http://www.w3.org/2000/svg" viewBox="0 0 612 612"><path class="color-brown" fill="#24180d" d="M590 343c-13.2 118.3-119.7 249-284.3 248.7-154.6-.3-289.1-127.3-285-293.4C24.4 155 133 42.2 261.2 23.5c86.3-12.6 164.1 7.7 230.5 64.4S599 213 590 343zM308.7 28.9C169.6 26.8 33.2 137.5 29.6 302c-3 141.2 107.3 274.5 266.8 280.9 148.1 5.9 278.5-109 286.1-263.3C590.4 163 466.2 30.7 308.7 28.9z"/><path class="color-red" fill="#ee1116" d="M308.7 28.9C466.3 30.8 590.4 163 582.6 319.6c-7.7 154.2-138 269.1-286.1 263.3C136.9 576.5 26.6 443.2 29.6 302c3.6-164.5 140-275.2 279.1-273.1zm-2 9.6c-31.2-.4-61.3 5.1-90.7 15.3-26.3 9.1-50.2 22.8-72.3 39.7-38 29.1-66.2 65.7-84.6 109.7-17.3 41.4-23.4 84.8-19 129.5 2.5 25.2 8.1 49.7 17.6 73.2 15.7 38.6 39.1 72 70.1 99.8 21.2 19 44.8 34.3 70.8 45.8 30 13.3 61.6 20 94.3 21.9 2.9.2 5.8 1.4 8.7 2 2.1.4 4.3.9 6.4.6 3.9-.6 7.7-2 11.6-2.5 7.1-.8 14.2-.8 21.2-1.8 44.4-6.3 85-21.6 121.5-48.3 44.9-32.9 77.2-75.1 95.8-127.4 18.8-52.8 20.7-106.7 5.9-160.6-18.9-68.6-59.6-121.3-120.1-158.7-42-26.1-88.1-37.6-137.2-38.2z"/><path class="color-brown" fill="#24180d" d="M306.7 38.5c49.1.6 95.2 12.1 137.3 38.1 60.6 37.4 101.2 90 120.1 158.7 14.8 53.9 12.9 107.8-5.9 160.6-18.6 52.4-50.9 94.5-95.8 127.4-36.4 26.7-77 42.1-121.4 48.3-7 1-14.2 1-21.2 1.8-3.9.5-7.7 1.9-11.6 2.5-2.1.3-4.3-.2-6.4-.6-2.9-.6-5.8-1.8-8.7-2-32.7-1.9-64.3-8.5-94.3-21.9-26-11.5-49.6-26.8-70.8-45.8-31-27.8-54.4-61.2-70.1-99.8-9.6-23.5-15.1-48-17.6-73.2-4.4-44.7 1.6-88.1 19-129.5 18.4-44 46.6-80.6 84.6-109.7 22.1-16.9 46-30.6 72.3-39.7 29.2-10.1 59.4-15.6 90.5-15.2zM41.8 305.8c.3 146.8 119 267.2 269 264.9 142.8-2.2 261-119 259.7-267.2C569.3 159.9 453.4 42 306.7 41.6 160.5 41.1 42.6 158.9 41.8 305.8z"/><path fill="#fbfbfa" d="M41.8 305.8c.8-146.9 118.7-264.6 264.9-264.3 146.7.4 262.5 118.3 263.8 261.9 1.3 148.3-116.9 265.1-259.7 267.2-150 2.3-268.6-118.1-269-264.8zm271.9 260.6c64.9-.6 127.2-26.2 178.1-77.7 49.1-49.7 73.4-110.4 74.5-180.1 2.3-142.8-114.3-261.7-257.4-263C165 44.3 46.5 160.7 46.1 305.2c-.4 145 117.2 261.8 267.6 261.2z"/><path class="color-brown" fill="#24180d" d="M313.7 566.4c-150.4.6-268-116.2-267.6-261.2C46.5 160.7 165 44.3 308.8 45.6c143.2 1.3 259.7 120.2 257.4 263-1.1 69.7-25.4 130.4-74.5 180.1-50.9 51.5-113.2 77-178 77.7zm85.1-63.8c-.7-1-1.4-1.9-2.1-2.9-1-2.2-1.6-4.7-3-6.5-3.2-4.1-2.5-6.9 2-9.2 1.6-.8 3.2-1.6 4.7-2.5 5.6-3.6 8.6-1.8 11 4.1 1.1 2.7 4.3 4.5 6.5 6.7.7-.4 1.4-.9 2.1-1.3-.5-2.6-.5-5.5-1.7-7.7-4.7-8.6-4.9-8.5 3.7-13.9.7-.4 1.5-.8 2.1-1.3 3.9-3.4 6.7-1.9 8.8 2 2.4 4.6 4.5 9.3 7.1 14.7 48.6-37.6 77.7-86.5 87.3-147.5-1.6-.3-2.6-.6-3.5-.6-6.5.5-13 1.1-11.5-8.9.1-.8-1.2-1.8-1.2-2.7-.1-4.2-.2-8.3.1-12.5.2-4.1 1.2-8.2 1.1-12.3-.1-3.3-1.6-6.5-2.2-9.9-.9-5.4-.9-11-2.3-16.2-3-11.3-6.6-22.5-10.1-33.7-2.1-6.9-3.6-14-8.8-19.6-2.3-2.5-5.5-5.4-2.2-9.5.3-.4-.3-1.9-.8-2.7-1.6-3-3.3-5.8-5-8.8-4.7.9-11.7-4.8-10.1-9.2 2.1-5.6-2.3-7.7-3.8-12-3.2 3-5.9 4.2-9.1.4-2.9-3.4-5.9-6.2-1.5-10.2-6.8-9.1-6.7-9.6 1.8-16.2 1.6-1.3 3.1-2.8 5.3-4.8-10.9-.1-11.8.6-13.2 9.2-.5 2.9-1.3 5.7-2.1 9.1-4.9-2.4-11.1-4.2-10-9.2 1.3-5.6-2.3-7.9-3.6-12-6.1 8-9.7 7.5-15.6-1.6 1.1-1.6 2.2-3.2 3.3-4.7-3-3.1-5.5-4.2-10.2-2.9-10 2.9-24.5-2.4-27.2-16.9-1.2-6.4-2.2-12.8-3.4-19.6-2.1 8-4.1 15.5-6 22.9-7.1-.1-11.8-1.8-13.8-9-1.7-6.1-5-11.7-8.2-19-1.4 6.7-2.6 11.6-3.5 16.5-.8 4.3-2.9 5.7-7.2 4.4-4-1.2-7.8-1.9-5.4-7.5.4-1.1.3-3.2-.4-3.7-4-2.8-2.9-6.1-1.6-9.8.9-2.6 1.5-5.3 2.4-8.4-7.5-1.2-14.2-3.7-19.6-.4 1.5 3.8 3.8 6.9 3.8 10 0 4.8-3.9 9.2-2.7 14.5.1.4-2.6 2.2-3.8 2-4.4-.8-8.6-2.1-14-3.5-.4.3-1.8 1.7-3.5 2.8-7.5 5.2-17.2 1.9-18.7-6.4-1.2-6.4-2.2-12.8-3.3-19.6-6.1 1.1-12 2.1-18 3.2 6.2 4.8 8.8 9.4 6.5 14.7-1.5 3.6-3.4 6.7-2.3 10.8.2.9-1.4 3-2.5 3.3-8.1 2.5-16.3 4.8-24.7 7.2-1.4-3.2-2.6-5.9-3.8-8.9-1.5 1-3.1 2.2-4.7 3.3 3.6 6.7 2.4 9.7-4.5 11.2-1.9.4-4.3-.6-6.2-1.5-4-2-7.8-4.3-11.2 1-.6.9-1.9 1.3-3 2 1.2 2.3 2.2 4.2 3.6 7-3.9 2-7.5 3.9-11.1 5.8-3.4-5.6-3.4-5.6-6.4-3.2.8 2.2 2.8 5.2 2 6.2-2.6 3.5-5.8 7.4-11 5.5-4-1.4-7.2-2.2-9.4 2.7-.6 1.3-2.4 2-3 2.4.6 3 2.3 6.7 1.2 7.8-3 3.3-6 8.4-12.5 4.1 4.4 5.1 1.5 8-1.6 11.2-3.2 3.4-6.4 6.9-9.1 10.7-2.9 4.1-5.9 7.1-11.1 3.7-3.5-4-7.1-8-10.6-12 .2 6 .2 6 10.7 12-.2 1.8-.1 3.7-.7 5.3-1.2 3.2-4 5.4-2.3 10.1 1.6 4.1-4.7 9.8-9.3 9.9-1.8 7-2.8 14.5-5.7 21.1-7.4 17.3-11.6 35.3-13.9 53.8-.1.8-.2 1.7.1 2.4 5.3 10.3.7 20.1-1.3 30.1-1.2 6-4.8 9.9-10 13-1.5.9-3 3.7-2.7 5.4 8.8 47.3 30.6 87.8 65.3 121.2 6.1 5.8 12.7 11 19.6 16.8 2.3-4.4 4.1-7.5 5.7-10.8 4.7-9.9 5-10.1 15-6-1.6-2.3-3.4-4.5-5.6-6.2-18.5-15-33.9-32.7-45.9-53.2-21.1-36.1-28.8-75-24.6-116.6 3.6-36 16.5-68.3 38.8-96.4 31.5-39.7 72.2-64.1 122.8-71.2 2.1-.3 4.1-2.5 6-4 .9-.7 1.5-2.2 2.4-2.5 8.3-2.9 15.9 1.6 23.8 2.6.3 0 .5.6.9.8 1.3.5 2.5 1.1 3.8 1.4 14.2 2.3 28.8 3 42.5 7 59.4 17.6 101.1 55.7 124.5 113 17.5 42.8 17.7 86.9 3.4 130.7-11.6 35.9-33.1 65.3-62.6 88.7-15.6 12.4-32.5 22.8-51.9 28.5-10.8 3.2-21.5 6.9-33.9 11 7.6-.3 6.8 4.2 7.4 8.3.7 5.1 1.9 10 2.9 15.1l3.3-.6c-.8-5.9-2-11.7-2.2-17.6-.1-2.2 1.8-6.2 3.3-6.4 4.7-.8 9.6-.3 14.5 0 .3 0 .5 2.6.7 4 .5 2.6 1 5.3 1.5 7.9 1.1-4.2 1.2-8.3 1.1-12.3-.1-3.4 0-6.8 4.2-7.6 4.9-.8 9.8-6.5 14.7.2 2.3 3 5.2 5.6 7.8 8.4.5.4 1.3 1.2 2.1 2 3.6 6.5 8.3 12.1 15.6 14.3 6 1.8 9.8 5.4 11.6 11.3.4 1.2 1.4 2.3 2.1 3.3 11.7-4.9 12.4-5.8 8-10.4-8.3 4.4-11 4.5-12.7-1.3-2-6.7-6.7-9-12.1-11.4-4.2-1.8-8.3-3.8-12.5-5.8zM372 334.2c-1.5 1.2-2.9 2.4-4.6 3.9.4-5.4.9-10.5 1.3-16.4-3 4.3-5.4 7.6-7.6 10.7-1.7-5.7-3.2-10.7-4.7-15.6-.3-.6-.6-1.3-.8-1.9-.2 0-.4.1-.6.1.1.9.2 1.7.3 2.6-.3 3.4-.5 6.9-.8 10.3-.6.1-1.3.3-1.9.4-2.2-2.8-5.1-5.3-6.5-8.4-1.3-3-1.1-6.7-1.6-10.4-1.3 1.3-2.2 2.1-3.7 3.5.9-10.9 1.9-20.8 10-28.5-5.3-.7-12.3 1.6-11.9-7.4-4.8.3-15.3-10.5-15.6-16-.6-11.3-1.7-22.7-1.3-34 .3-7.6-1.3-13.6-8.2-18.1 1.7-.5 2.7-.7 3.9-1.1-1.6-1.4-3-2.7-3.7-3.4 3.2-1.5 6.3-2.2 8-4 3.8-3.9 6.9-8.4 10.2-12.8 1.7-2.2 3.8-4.4 4.6-7 .6-2 .2-5.3-1.1-6.7-2-2.1-5-3.5-7.8-4.5-12-4.1-21.7-2.4-22.9 12.8-.1 1.3-.4 2.6-.6 3.9-.4-.5-.8-1.1-1.2-1.6-3.4 1.6-6.7 3.3-10.6 5.2 1.7 1.1 2.6 1.6 3.4 2.2-.2.5-.4.9-.6 1.4-1.5-.6-3.4-.9-4.5-1.9-4.4-3.9-8.7-8-12.7-12.3-1.1-1.2-1.9-3.8-1.4-5.2 1.8-5.1 3.9-10.2 6.6-15 1.2-2.1 3.7-3.9 6.1-4.8 6.9-2.6 14.1-4.5 21-7.1 6.6-2.5 10.8-9.8 10.5-16.4-.1-1 2.2-3.1 2.6-2.9 3.3 1.3 6.4 3.1 9.6 4.8 1.1.6 2 1.6 3.1 1.9 14.1 4.3 28.8 6.9 42.2 12.9 81 36.2 119.8 121 102.9 201.7-2.8 13.5-7.4 26.4-13.9 39-5.6 10.8-11.1 21.2-18.2 31.1-23.5 32.5-54.7 53.5-92.7 65.1-8.5 2.6-17.2 4.3-25.7 6.3v6.5c93.7-12.6 164.8-94.7 161.5-191.6-3.2-96.9-79.6-174.5-175.4-180.7.4 1.1.8 2.1.9 2.4-3.5 1-6.9 2-9.8 2.9-3.5-3.7-7.4-7.7-10.7-11.2-3.8.7-6.7 1.2-10.1 1.8-.4 4.8-3.9 5.5-8.3 5.9-5.8.6-11.6 1.8-17.3 3.2-90.6 21.9-150.8 106-142.5 198.8 7 78.3 62 143.6 137.9 164.3 18.8 5.1 38 5.9 57.3 6.9 4.5.2 5.3-2.7 4.9-6.5-.5-4.3-1-8.5-1.6-12.8-.1-.4-1-.7-1.6-1.1 4.3.3 8.2 1.6 12.2 2.3 2.2.4 5 .4 6.7-.6 7.4-4.5 14.6-9.3 21.6-14.3 10-7.2 21.5-12.3 29-22.9 1.2-1.7 5.7-1.6 8.7-1.4 4.4.2 8.8 1.1 13.3 1.7l.9-2.7c-4.6-2.5-9.2-5.1-13.9-7.7 2.8-.9 5.5-1.8 9.8-3.2-3.4-1.4-5.1-2.2-6.9-2.8-4.2-1.4-11.7-.5-6-8.8.4-.6-1-2.2-1-3.3 0-1 .8-2 1.4-3.5 1.7 2.7 3 4.7 4.2 6.7.4-.2.9-.4 1.3-.6-1.3-3.7-2.5-7.3-3.9-11.2 2.3.2 4.3.3 7 .5-3.4-3.2-6.3-5.9-9.4-8.9 2.7-1.6 4.8-2.9 6.5-3.9-3.2-2.6-6.2-5-9.7-7.9 2.2-.8 3.1-1.1 4.6-1.6-5-3.9-6.6-7.7-2.3-10.9-2.3-1.4-6.4-2.5-6.8-4.3-.4-2.4 2.1-5.4 3.2-7.9-1.1-.1-3.5-.2-5.8-.4.4-7.1.8-13.9 1.1-20.7h-1.5c-3 10.2-3 10.2-6 11.3.6-2.5 1.1-4.8 1.7-7.3-2.3-.5-4.4-.9-6.2-1.3.8-3.7 1.5-6.8 2.1-10h.8c0-.2-.1-.4-.1-.5-.3.4-.5.7-.7.9zM349.3 532c-7.5-8-7.2-18.3-8.6-28.4-4.4.6-8.1 1.2-11.9 1.7.6 5.5 1.5 10.4 1.4 15.2s-1.1 9.5-1.8 15.2c-9.8-8.5-9.6-18.8-10.5-28.9-4.2.3-7.9.6-12.8 1 1.4 7.3 1.5 14 4.1 19.7 3.3 7.3 8.7 13.7 12.8 20.7 2.1 3.6 5.3 4 8.3 2.7 2.1-.9 3.8-3.4 4.9-5.5 1.4-2.7 1.9-5.9 3.2-9.8 1.5 2.4 2.5 3.9 3.3 5.4.9 1.6 1.7 3.3 2.6 4.8 2.2 3.5 10.3 4.2 11.8.6 3.6-8.6 7.4-17.3 9.2-26.4 1.2-6-.9-12.7-1.6-19.6-4.9.9-8.8 1.6-13.4 2.4 3.4 10.3 4.5 19.8-1 29.2zm-154.5-5.7c.5-5.6 1.2-10.2 1.3-14.9.1-3.3 1.1-4.8 4.7-5.6 5.7-1.2 9.3-5.4 10.8-11.2s-.4-10.7-5-13.9c-6.9-4.8-14.3-8.9-21.5-13.4-8.1 13.4-15.6 26-23.5 39.2 3.8 2.3 7.4 4.4 11.3 6.7 1.9-3.7 3.2-7.1 5.2-10.1.7-1.1 3.1-1.7 4.4-1.4.9.2 1.8 2.5 1.8 3.9-.1 3.6-.9 7.1-1 10.7 0 1.4.7 3.2 1.8 4 2.9 2.2 6.1 3.8 9.7 6zm359.9-214.1c-7.7.4-14.6.8-21.5 1.1-.2-.5-.4-1-.7-1.6 5.5-4.2 10.7-8.9 16.7-12.3 6.6-3.8 6.8-8.8 5.2-14.8h-41.9c.3 4.1.5 7.8.8 11.3h23.4c-6.6 5-11.6 9-16.9 12.6-7.3 4.9-8.1 6.5-5.7 15.5h40.6v-11.8zM168.8 124.7l-1.2 1.5c-6.6-1.5-13.6-2.3-19.9-4.8-7.1-2.8-11.3-.7-14.7 5.3 8.8 10.6 17.5 21.2 26.5 32.1 3-2.4 5.8-4.7 8.5-6.9-2.6-5.9-9.5-8.3-9.7-16.5 6.1 1.2 11.6 1.6 16.6 3.4 6.6 2.4 10.9.4 14.4-5.3-8.6-10.8-17.1-21.5-25.9-32.6-3 2.7-5.8 5.3-8.6 7.9 4.7 5.4 9.4 10.7 14 15.9zm177.7-64c-3.3 12.8-6.6 26-10.1 39.7 4.1.8 7.7 1.6 11.6 2.4 1.7-7.4 3.2-14 4.8-20.7 4.6 7.5 7.3 15.1 11.2 22.1 1.4 2.5 5.4 3.9 8.5 4.9.7.2 3.3-3.3 3.9-5.5 3.1-11.2 5.9-22.6 9-34.6-3.9-.8-7.5-1.6-11.3-2.4-1.6 7.5-3.1 14.3-4.6 21.1-.6.1-1.1.1-1.7.2-2.3-5.9-4.9-11.7-7-17.7-2.3-6.4-5.1-11.7-14.3-9.5zm-153.2 45c12.3 3.3 21.3 16 35.1 7.6-6.4-12.9-12.5-25.2-18.8-37.8-3.6 2-6.6 3.6-9.9 5.4 3.6 6.5 7 12.8 10.5 19.2l-1.5 1.2c-4.3-2.5-8.8-4.7-13-7.4-9.5-6.1-13.6-6.1-20.6.8 6.2 12.1 12.5 24.2 18.8 36.4 3.8-2.1 6.9-3.7 9.9-5.4-3.5-6.8-6.8-13-10.5-20zm234.8-5.2c0-11.9-8.9-21.5-20.3-21.3-11 .2-22.5 8.1-22.8 22.8-.3 12.7 9.5 20.8 20.2 21.6 13 1 22.8-9.6 22.9-23.1zM242.8 544.3c0-16.1.3-31.7-.4-47.2-.1-1.7-5.1-3.6-8.1-4.8-1.2-.5-3.6.4-4.5 1.4-9.7 11.5-19.1 23.1-28.7 34.7 4.9 4.6 10.8 5.6 13.6 2.7 1.2-1.2 3.5-2.9 4.6-2.5 4.2 1.6 11.3 3.7 11.5 6 .7 9.3 7.8 7.2 12 9.7zM85.4 276.9c-.8-15 .4-16.1 14.2-13.6 1 .2 2 .2 3.8.4.8-3.8 1.6-7.6 2.4-11.6-14.2-2.4-27.7-4.6-41.7-6.9-.7 3.8-1.3 7.5-2 11.4 5.1.8 9.8 1.5 15.3 2.3-1.1 6-2 11.2-3 16.6-5.5-1.1-10-2-14.8-3-.8 4.1-1.4 7.6-2.1 11.6 13.9 2.4 27.4 4.7 41.5 7.1.7-3.8 1.4-7.4 2.2-11.6-5.6-.9-10.8-1.8-15.8-2.7zm420.3-121.2c-12 7.6-23.6 15.1-35.7 22.8 2.3 3.5 4.2 6.5 6.5 10 3.7-2.6 6.8-5.1 10.3-7.1 1.3-.7 4.4-.9 5-.1 2.8 3.6 5 7.6 7.6 11.9-5.2 3.1-9.8 5.8-14.7 8.7 2.5 3.7 4.6 6.8 6.7 9.9 12-7.7 23.6-15.1 35.5-22.6-2.3-3.4-4.3-6.5-6.5-9.8-4.4 3-8.2 5.7-12.6 8.7-3.1-5-5.9-9.5-9-14.5 4.7-2.9 8.9-5.4 13.1-8-2.2-3.5-4-6.4-6.2-9.9zm-90.2 372c-10.1-11.6-20-23.3-30.4-34.5-1.2-1.3-5.8 0-8.6.8-1.5.4-3.6 2.4-3.7 3.7-.3 15.3-.2 30.6-.2 45.9 8.8-1.1 9.5-1.7 11.9-9.2.9-3 13-7.1 15.5-5.2 5.2 4 9.2 3.7 15.5-1.5zm30.3-429.9c-9.7 12.4-18 23.1-26.6 34.2 3.2 2.5 6.3 4.9 9.6 7.4 3-4.3 5.7-8 8.3-11.7 5.8 2.5 4.1 6.5 3.1 10.1-2.5 9.3-1.7 11 7.6 15 .7-2.8 1.4-5.5 2.1-8.3.6-2.7 1.1-5.5 1.6-8 2.3-.4 4.1-.5 5.8-1 7.8-2.3 13.3-13.1 8.6-18.8-5.9-7-13.3-12.6-20.1-18.9zm100.4 141.5c-13.9 2.8-27.3 5.6-41.1 8.4 1 4.3 1.9 7.9 2.8 11.8 4.9-1.3 9.2-2.4 14.9-4-.7 3.2-.5 5.8-1.7 7.3-1.4 1.8-3.8 3.1-6 4-5.3 2.2-6.2 5.8-4 10.7.6 1.4 1.2 2.8 2 4.8 3.8-3 7.2-6 10.8-8.4 1.3-.9 4-1.3 5.1-.5 5.4 4.1 11 4.3 16.4.7 5.6-3.7 6.7-9.5 5.5-15.7-1.2-6.5-3.1-12.9-4.7-19.1zm-414-97.9c-3.6-1.3-5.3-8.2-10-3.3-5.9 6.2-10.9 13.3-15.6 19.1 9.1 8.7 17.7 17.1 26.6 25.2 1.3 1.1 5.4 1.2 6.4.2 6.1-6.4 11.6-13.3 17.3-20.1-1.3-1.6-2.4-2.8-3.4-4.1-2.9-3.9-4.9-3.7-7.2.7-1.5 3-3.9 5.7-6.5 7.9-1 .8-3.5-.1-5.3-.3.2-1.6-.1-3.5.7-4.6 2.3-3.2 5.1-6.1 7.5-8.8-2.4-2.6-4.5-4.9-6.8-7.5-2.4 3.3-4.6 6.2-6.8 9.1-3.3 4.4-4.9 4.2-8.3-1.1 3.6-4 7.3-8 11.4-12.4zm386.5 94.7c3.4-1.2 6.4-2.2 9.7-3.3-1.9-4-3.4-7.3-5-10.6-1.2-2.4-2-5.1 1.4-5.7 1.4-.3 4.1 1.7 4.9 3.2 1.8 3.7 2.9 7.8 4.4 12.2 3.2-1.8 5.9-3.3 8.8-4.9-3.7-9.1-7.1-17.6-10.6-26-13.2 5.2-25.9 10.1-39.2 15.3 3.2 7.2 4.9 14.7 8.3 21.5 3.2 6.4 4.4 6.6 11.8 2.4-1.7-4.1-3.9-8-5.1-12.3-.5-1.7 1.1-4 1.7-6 1.6 1.1 3.8 1.8 4.6 3.2 1.9 3.1 2.7 6.5 4.3 11zM68 232.9c13.2 5 26 9.8 39.2 14.8 3.5-9.2 6.9-18 10.4-27.3-3.2-1.7-6-3.2-9.2-4.9-1.6 5.2-2.6 9.8-4.6 13.9-.7 1.4-3.7 1.7-5.6 2.6-.4-1.8-1.4-3.8-.9-5.4 1-3.6 2.7-7 4.2-10.7-3.4-1.6-6.2-2.8-9.3-4.3-1.3 4.3-2 7.9-3.6 11.2-.8 1.7-3.4 3.9-4.8 3.6-3.9-.6-2.7-3.7-1.6-6.2 1.6-3.7 3.3-7.4 5.4-12-4.1 1.1-8.2-5.5-11 1.5-3.1 7.7-5.8 15.5-8.6 23.2zM240.6 92.2c5-1.5 9.8-2.8 14.9-4.3-.8-3.6-1.5-6.6-2.3-10.1-4.2 1.6-7.8 3.3-11.6 4.3-1.4.4-3.3-1-5-1.5.9-1.6 1.4-4.3 2.7-4.8 4.2-1.6 8.8-2.5 13.6-3.7-1.4-3.3-2.5-6-3.8-9-9.8 3-19 5.8-27.3 8.3 4 13.5 7.9 26.6 11.8 39.7 8.4-1.8 16.9-3.4 25.3-5.5 1.1-.3 2.3-2.8 2.4-4.3.1-2.5-.6-5-1-7.9-4.4 1.6-8 2.9-11.6 4.1-4.1 1.1-7.9 1.6-8.1-5.3zm200.2 422.1c-7.7-5.8-7.6-12.2-6.1-19.4 1.9-9.3.5-18.1-6.8-25.4-3.5 2.1-7.1 4.3-11.1 6.7 5.5 5.9 8.7 12 4.4 19.5-8.7-.2-11.7-7-15.1-13.4-4.1 2.1-7.6 4-11.1 5.8 2.8 7.7 6.8 13.3 14.6 16.2 7.8 3 15.6 6.7 17.8 16.3 0 .1.3.2 1.4.8 3.3-2 7-4.2 12-7.1zM309.6 88.4c1.2-5.6 11.5-4.8 6.3-14-3.8 2.1-7.8 4.2-11.9 6.5-1.2-1.5-2.7-3.4-4.4-5.4 4.5-4.2 10.1-7.9 5.9-14.9-2-3.3-10.1-5.1-13.9-2.7-4.1 2.6-6.5 6.1-2.9 17.7-10.8 8.2-13.2 15.2-5.5 23.6 7.5 8 13.3-1.9 19.6-5 4.5 4.5 9.5 6 15.7 3.7-.1-2.3-.3-4.5-.4-6.5-3.1-1.2-5.8-2.1-8.5-3zM70.8 299.2c-8.2-6.4-11.8-5.2-13.8 4.9-2.4 11.9.1 17.8 11.1 23.8 9.8 5.4 23.5 1.8 29.4-7.1 5.6-8.5 3.6-20.4-5.1-27.2-2.3 1.6-4.8 3.3-7.2 5 5.4 7.6 5.8 13.2 1.5 17.2-4.2 3.8-11.2 4.1-15.8.6-5-3.9-5-8.4-.1-17.2zM131 196.5c-10-1.3-12.6-8.5-15.3-15.5-2.9-7.4-8.2-12.2-16.2-14.8-1.8 3.4-3.6 6.7-5.6 10.6 7.4 2.2 12.1 6.4 13.2 15.8-6.8-1.4-12.8-2.7-18.8-3.9-.2-.7-.3-1.3-.5-2-2 3.3-3.9 6.5-6.6 10.9 5.5 2 10.3 5.3 15.1 5.3 9.5-.1 19.2-3.9 27.3 5.6 2.6-4.2 4.6-7.4 7.4-12zm157.2 344.3c1.1-12.3 2.1-23.8 3.1-35.5-2.9-.2-5.1-.1-7.3-.4-4.3-.6-5.8 1.5-6 5.4-.3 7.5-.5 15.1-.8 22.6-.1 2.4-.7 4.8-.8 7.2-.3 3.2-.4 6.5-.5 9.8 8.3.8 15.6 1.4 22.8 2.1 8.7.9 10.4-1 8.8-10.3-6-.3-12-.6-19.3-.9zM470.4 132c2.8 2.4 5.1 4.4 7.7 6.7-8.4 7.6-16.4 14.9-24.1 21.9 3.1 3.1 5.9 5.9 10.2 10.3 7-8.3 13.9-16.5 21-24.8 3.2 3.5 5.2 5.7 7.1 7.8 2.3-2.4 4.4-4.5 6.4-6.6-6.5-6.8-13.2-13.8-20-21-2.6 1.8-5 3.5-8.3 5.7zM252.1 545.7c4.3.8 8 1.6 12 2.3 3.1-15.3 6.1-29.9 9.1-44.8-4.4-.8-8.1-1.4-12-2.1-3 14.9-5.9 29.3-9.1 44.6zM199.3 517c14.5-6.3 22.1-19 32.2-29.5-4-1.9-7.9-3.8-11.9-5.7l-11.1-5.4c10.1 10.9 7.9 28-4.9 31.8-4.7 1.5-4.9 3.8-4.3 8.8zm73.7-17.3c-.1.2-.2.5-.3.7.8.4 1.7 1.1 2.5 1.2 4.1.4 8.3.7 12.5 1 6.5.4 7.8 2.6 6.3 9-1.1 4.6-1.2 9.5-1.3 14.3 0 1 1.7 2.8 2.8 3 3.1.4 6.2.1 9.6.1-.6-4.4-1.2-8-1.5-11.6-.9-10.9-.9-10.9 9-14.4l-39.6-3.3zm-26.5-6.1c0 8 .2 14.9 0 21.7-.2 5.3 2.1 7.5 7.6 6.7 1.8-8.4 3.6-16.7 5.4-25.4-4.7-1.1-8.9-2.1-13-3zm29.7 67.1c10.5.6 20.3 1.2 30.2 1.8.7-2.7 1.2-4.7 1.7-6.9-10.8-.7-21.2-1.3-31.9-1.9v7zm139.2-21.5c-2.3-4.2-4.9-5.4-8.9-3.8-1.7.7-5.1.3-6-.9-3.6-4.8-7.2-1.6-10.1-.1-1.8.9-2.3 4.1-4.3 7.9 7.3-1.7 12.9-6.4 17.3.8.3.5 2.7.2 4-.3 2.6-1 5.1-2.3 8-3.6zM228.3 542c-.7-9.3-5.1-11.6-12.9-7.2-1.9 1.1-4.7.4-7 .9-2.4.5-4.8 1.4-7.2 2.1l.6 2.1c4.8 1.3 9.5 7.4 14.5-.3.4-.7 2.7-.5 4-.2 2.7.7 5.3 1.7 8 2.6zm106.8 10.9c-1.3.1-2.2.1-2.9.3-9 2.7-9.1 2.7-14-5.2-3.3-5.2-6.7-10.4-10.1-15.6-.5 2.1-.1 3.8.8 5.2 4.1 6.7 8.6 13.2 12.4 20.2 2.2 4 4.6 4.8 8.7 3.7 4.3-1.2 5.8-3.7 5.1-8.6zm-17.8-51.4c7.5 8.4 1.8 19.3 9.4 26 .4-4.7.5-9.5-.3-14-1-5.8-3.1-11.7 7.4-12-.6-.7-1.1-1.4-1.7-2.1-4.8.7-9.6 1.4-14.8 2.1zm25 50.5c3.9 7.9 4.6 8.6 8 7.7 5-1.4 8.2-4.3 7.8-9.4-5.4.6-10.4 1.1-15.8 1.7zm-89.5-2.8c.3 2.7 0 6.1.7 6.4 3.3 1.1 7 1.7 10.5 1.6.8 0 1.5-3.7 2.3-6-3.1-.3-4.9-.5-6.7-.7-1.7-.4-3.5-.7-6.8-1.3zm-88.4-35.9c-3.9 3.5-3.4 4.2 8.6 9.7 1.2-2.3 2.4-4.6 3.4-6.5-4-1-7.4-2-12-3.2zm207.7 34.2c.2 2.3.4 4.2.6 6 9.2-.4 12.3-3.2 10.5-9.3-1.7.6-3.4 1.1-5.1 1.7-1.7.5-3.4.9-6 1.6zm-139.8-3.3c-1 6.8 1.8 9.2 10.8 9.5 2.5-6.8.9-5.9-10.8-9.5zm-47.4-19.5c-1.4 5.7 1.6 8.9 9.9 10.4v-5.7c-3.5-1.6-6.7-3.1-9.9-4.7z"/><path fill="#fbfbfa" d="M356.4 316.8c1.5 4.9 3 9.9 4.7 15.6 2.2-3.1 4.6-6.4 7.6-10.7-.5 5.9-.9 10.9-1.3 16.4 1.7-1.4 3.2-2.7 4.6-3.9l-.1-.2c-.7 3.2-1.4 6.4-2.1 10 1.8.4 3.9.8 6.2 1.3-.6 2.5-1.1 4.8-1.7 7.3 3-1.1 3-1.1 6-11.3h1.5c-.4 6.8-.7 13.5-1.1 20.7 2.3.2 4.8.3 5.8.4-1.1 2.5-3.6 5.4-3.2 7.9.3 1.8 4.4 2.9 6.8 4.3-4.3 3.2-2.7 7 2.3 10.9-1.5.5-2.4.9-4.6 1.6 3.5 2.9 6.5 5.3 9.7 7.9-1.7 1.1-3.8 2.3-6.5 3.9 3.2 3 6 5.7 9.4 8.9-2.7-.2-4.7-.4-7-.5 1.3 3.9 2.6 7.5 3.9 11.2-.4.2-.9.4-1.3.6-1.2-2-2.5-3.9-4.2-6.7-.6 1.5-1.4 2.5-1.4 3.5 0 1.1 1.4 2.7 1 3.3-5.7 8.3 1.8 7.4 6 8.8 1.8.6 3.6 1.4 6.9 2.8-4.3 1.4-7 2.3-9.8 3.2 4.6 2.6 9.3 5.1 13.9 7.7l-.9 2.7c-4.4-.6-8.8-1.5-13.3-1.7-3-.1-7.5-.3-8.7 1.4-7.4 10.6-19 15.7-29 22.9-7 5-14.2 9.8-21.6 14.3-1.7 1.1-4.5 1-6.7.6-4-.7-7.9-2.1-12.2-2.3.6.3 1.5.6 1.6 1.1.6 4.2 1.1 8.5 1.6 12.8.5 3.8-.3 6.7-4.9 6.5-19.2-1-38.4-1.7-57.3-6.9-75.9-20.6-130.9-85.9-137.9-164.3-8.3-92.8 52-176.9 142.5-198.8 5.7-1.4 11.5-2.6 17.3-3.2 4.4-.4 8-1.2 8.3-5.9 3.4-.6 6.3-1.1 10.1-1.8 3.3 3.5 7.1 7.5 10.7 11.2 2.9-.8 6.4-1.8 9.8-2.9-.1-.3-.5-1.3-.9-2.4 95.7 6.2 172.1 83.8 175.4 180.7 3.2 96.9-67.8 179-161.5 191.6v-6.5c8.4-2.1 17.2-3.7 25.7-6.3 37.9-11.6 69.2-32.7 92.7-65.1 7.1-9.9 12.7-20.3 18.2-31.1 6.5-12.6 11.1-25.4 13.9-39 16.9-80.7-21.9-165.6-102.9-201.7-13.3-5.9-28.1-8.6-42.2-12.9-1.1-.3-2-1.3-3.1-1.9-3.2-1.7-6.3-3.5-9.6-4.8-.4-.2-2.7 1.9-2.6 2.9.3 6.6-3.9 13.9-10.5 16.4-6.9 2.6-14.1 4.5-21 7.1-2.3.9-4.9 2.7-6.1 4.8-2.7 4.7-4.8 9.8-6.6 15-.5 1.4.3 4 1.4 5.2 4 4.3 8.3 8.4 12.7 12.3 1.1 1 3 1.3 4.5 1.9.2-.5.4-.9.6-1.4-.9-.6-1.8-1.1-3.4-2.2 3.9-1.9 7.2-3.5 10.6-5.2.4.5.8 1.1 1.2 1.6.2-1.3.5-2.6.6-3.9 1.2-15.2 11-16.9 22.9-12.8 2.8 1 5.8 2.4 7.8 4.5 1.3 1.4 1.7 4.7 1.1 6.7-.8 2.6-2.9 4.8-4.6 7-3.3 4.3-6.4 8.9-10.2 12.8-1.8 1.9-4.8 2.5-8 4 .7.6 2.1 1.9 3.7 3.4-1.1.3-2.2.6-3.9 1.1 6.9 4.5 8.4 10.5 8.2 18.1-.4 11.3.7 22.7 1.3 34 .3 5.4 10.8 16.2 15.6 16-.4 9 6.6 6.7 11.9 7.4-8.1 7.7-9.1 17.6-10 28.5 1.4-1.4 2.3-2.2 3.7-3.5.5 3.8.3 7.5 1.6 10.4 1.4 3.2 4.3 5.7 6.5 8.4.6-.1 1.3-.3 1.9-.4.3-3.4.5-6.9.8-10.3.4-.4.8-.7 1.2-1zm-183.7-64.5c3.7-5.5 7.5-10.3 10.5-15.6 3.2-5.6 5.2-11.9 8.7-17.3 3.9-6.1 9.7-6.8 15-1.8 8.1 7.6 14.6 16.3 13.8 28.5-.2 3-.4 6.2.2 9.1.7 3.7 1.7 6.7 7.3 5.1 3.8-1.1 8.6-.5 12.4.7 7.8 2.5 15.2 6 22.7 9.1.6-8.9 1.7-9.3 12-4.6.2-.8.5-1.5.6-2.3.1-1.8.1-3.7.1-5.5 0-15.3.3-30.7-.2-46-.1-4.3-1.8-8.9-3.8-12.9-2.8-5.6-6.3-10.8-9.9-15.9-3.3-4.7-2.1-8.5.9-12.7 3.5-4.9 7-10 9.9-15.3 1.2-2.1 1.6-5.1 1.1-7.4-.9-4.1-2.7-7.9-4.1-11.9-84.7 15-155 98.8-143.1 198.3 10.7 90 88.8 156.4 170.8 157.5-.1-1.9-.9-4.1-.3-5.7 1.9-5.2 2.2-9.9-1-14.9-1-1.5-.6-4.5.2-6.3 5.5-12.4 3.3-24.6-.6-36.8-2.3-7.2-5.1-14.5-6-21.9-1.4-11.4-2.9-21.9-14.7-27.7-2.9-1.4-4.7-4.9-7-7.5-.5.3-1 .6-1.5.8 1 5 2 10.1 3 15.1-.5.3-.9.5-1.4.8-1.9-1.6-4-3.1-5.8-4.8-5.3-5.3-6.5-13.1-12.6-18.2-4-3.4 1.1-7.1 2.5-10.6.7-1.7.6-3.6.9-5.5-.6-.1-1.2-.3-1.9-.4-4.7 8.1-9.5 16.2-13.3 22.7 4.8 6.7 8.6 12.4 12.9 17.7 3.4 4.2 4.2 8.4 2.3 13.2-8.7.6-13.7-4-17.5-10.7-1.2-2.2-3.7-3.6-5.6-5.4-.7.6-1.3 1.1-2 1.7 1.3 2.8 2.2 6 4.1 8.3 3.5 4.2 7.8 7.7 11.2 11.9 2.4 3 4.2 6.7 5.6 10.3 1.9 4.8 3.3 9.9 4.5 14.9 1.1 4.7 1.5 9.6 2.3 14.4-4.8-.8-9.9-1-14.5-2.5-4.5-1.4-5.8-4.9-4-9.8.7-1.9-.6-4.6-1.2-6.9-.4-1.7-1.1-3.3-1.8-4.9-2-4.4-3.3-9.5-6.4-13.1-3.6-4.2-8.8-7.2-13.2-10.7-7.2-5.9-13.9-12-6.5-22.2-6.5-4.1-12.4-7.6-18.1-11.5-6.3-4.3-6.4-7.1-1.7-12.9 2.1-2.7 4.5-5.3 6-8.3 6.5-13.3 7.2-27.4 5.2-41.7-1.8-12.8 2-23.7 11.2-32.1 5.2-4.7 4.2-8.6 1.2-13.1-1.1-1.6-3.3-2.5-5.1-3.7-.6 1.8-1.4 3.5-1.9 5.3-1 4-1.7 8-2.6 11.9-.3-.2-.6-.3-.9-.5-.6-4.6-1.2-9.1-1.7-13.7-.6.1-1.1.1-1.7.2-2.3 11.9-4.6 23.9-6.9 35.8h-1.6v-8.5c-5.7 16.1-10.7 22.8-20.1 25.2 2-3 5.2-4.7 3.7-9.6-.8-2.5 3.2-6.5 5-9.9-.5-.3-1.1-.5-1.6-.8-2.2.8-4.4 1.7-6.5 2.4 3.6-6 7.1-11.8 10.7-17.6-.4-.3-.8-.7-1.2-1-3.6 1.4-7.2 2.7-10.7 4.1 1.7-3.6 4.2-6 6.3-8.6 2.9-3.6 5.8-7.2 8.3-11.1.5-.8-.2-2.6-.7-3.8-.4-1-1.2-1.9-2.1-3.2-2.4.9-5.5 1.7-8.1 2.3zm142.9 224.6c.7 0 1.3 0 2-.1.1-1.3.3-2.6.4-3.9.6-4.8-.8-10.7 5.2-12.9 4.9-1.8 3.9-5.4 3.7-8.9-.6-7.9-1.7-15.8-2-23.7-.3-11.5-.1-23-.1-34.4-8.9-.6-11.2 1.1-10.5 7.3 1.8 15.9 0 31.5-3.1 47.1-2 10.5 2.7 19.8 4.4 29.5zm10.7-82c.8 18.6 1.7 36.7 2.5 54.8 1.8-.9 2.3-2 2.4-3 1-13.7 1.6-27.5 3.1-41.1.8-6.1-1.1-9-8-10.7zm10.6 6.3c-1.3 13.9-2.4 26.4-3.6 38.8 5.1-6.7 8.9-13.4 12.7-20.2.3-.5.1-1.2.2-1.8 1-7.1-2.9-11.7-9.3-16.8zm-26.6-137.4c-.9.1-1.7.2-2.6.3.2 6.1-1.9 14 1.2 17.9 7.9 10.2 15.6 12.1 23.6 9.6-11.7-5.9-20.6-13.9-22.2-27.8zm-93.9 89.5c-.5-.3-1-.7-1.5-1-2.5 2-5.8 3.6-7.3 6.3-.6 1.1 2.6 4.4 4.1 6.7.7-.1 1.5-.2 2.2-.3.9-4 1.7-7.9 2.5-11.7z"/><path class="color-red" fill="#ee1116" d="M132.8 195c5.2 3.4 8.1.4 11.1-3.7 2.7-3.8 5.9-7.3 9.1-10.7 3.1-3.2 6-6.2 1.6-11.2 6.6 4.4 9.6-.8 12.5-4.1 1-1.2-.7-4.8-1.2-7.8.6-.5 2.5-1.2 3-2.4 2.2-4.9 5.4-4.1 9.4-2.7 5.3 1.9 8.5-2 11-5.5.7-1-1.2-4-2-6.2 3.1-2.4 3.1-2.4 6.4 3.2 3.6-1.9 7.2-3.7 11.1-5.8-1.4-2.7-2.4-4.7-3.6-7 1.1-.7 2.4-1.1 3-2 3.4-5.3 7.2-3 11.2-1 1.9.9 4.3 1.9 6.2 1.5 7-1.5 8.1-4.5 4.5-11.2 1.6-1.1 3.2-2.3 4.7-3.3 1.3 2.9 2.4 5.6 3.8 8.9 8.5-2.4 16.6-4.7 24.7-7.2 1.1-.4 2.7-2.5 2.5-3.3-1.1-4.1.8-7.2 2.3-10.8 2.2-5.3-.3-9.9-6.5-14.7 5.9-1.1 11.9-2.1 18-3.2 1.1 6.8 2.1 13.2 3.3 19.6 1.6 8.3 11.2 11.6 18.7 6.4 1.6-1.1 3.1-2.5 3.5-2.8 5.4 1.4 9.7 2.7 14 3.5 1.2.2 3.9-1.6 3.8-2-1.2-5.4 2.6-9.7 2.7-14.5 0-3.1-2.2-6.2-3.8-10 5.4-3.2 12.2-.8 19.6.4-.9 3.1-1.5 5.8-2.4 8.4-1.3 3.6-2.4 6.9 1.6 9.8.7.5.9 2.7.4 3.7-2.3 5.7 1.5 6.4 5.4 7.5 4.3 1.3 6.4-.1 7.2-4.4.9-4.9 2.1-9.8 3.5-16.5 3.2 7.3 6.6 12.9 8.2 19 2 7.3 6.7 9 13.8 9 1.9-7.4 3.9-14.9 6-22.9 1.2 6.9 2.2 13.3 3.4 19.6 2.8 14.5 17.2 19.7 27.2 16.9 4.7-1.3 7.2-.3 10.2 2.9-1.1 1.6-2.2 3.2-3.3 4.7 6 9.2 9.6 9.6 15.6 1.6 1.3 4.1 4.9 6.4 3.6 12-1.1 5 5 6.8 10 9.2.8-3.3 1.6-6.2 2.1-9.1 1.4-8.5 2.3-9.3 13.2-9.2-2.2 2-3.7 3.6-5.3 4.8-8.6 6.6-8.7 7.1-1.8 16.2-4.4 4-1.4 6.8 1.5 10.2 3.2 3.7 5.9 2.5 9.1-.4 1.5 4.3 5.9 6.4 3.8 12-1.6 4.4 5.4 10.1 10.1 9.2 1.7 2.9 3.4 5.8 5 8.8.4.8 1.1 2.3.8 2.7-3.2 4.2-.1 7 2.2 9.5 5.1 5.6 6.6 12.8 8.8 19.6 3.5 11.2 7.1 22.4 10.1 33.7 1.4 5.2 1.4 10.8 2.3 16.2.5 3.3 2.1 6.5 2.2 9.9.1 4.1-.9 8.2-1.1 12.3-.2 4.2-.2 8.3-.1 12.5 0 .9 1.4 1.9 1.2 2.7-1.6 10 4.9 9.4 11.5 8.9 1-.1 1.9.3 3.5.6-9.5 61.1-38.7 109.9-87.3 147.5-2.6-5.4-4.7-10.1-7.1-14.7-2-3.9-4.9-5.4-8.8-2-.6.5-1.4.9-2.1 1.3-8.6 5.4-8.4 5.3-3.7 13.9 1.2 2.2 1.2 5.1 1.7 7.7-.7.4-1.4.9-2.1 1.3-2.2-2.2-5.4-4-6.5-6.7-2.4-5.9-5.4-7.7-11-4.1-1.5 1-3.1 1.7-4.7 2.5-4.5 2.3-5.2 5.1-2 9.2 1.4 1.8 2 4.3 3 6.5l-.4.4c-2.6-2.8-5.5-5.3-7.8-8.4-5-6.7-9.9-1-14.7-.2-4.3.7-4.3 4.1-4.2 7.6.1 4 0 8.1-1.1 12.3-.5-2.6-1-5.3-1.5-7.9-.3-1.4-.4-4-.7-4-4.8-.3-9.8-.8-14.5 0-1.5.3-3.4 4.2-3.3 6.4.2 5.9 1.4 11.7 2.2 17.6l-3.3.6c-1-5-2.2-10-2.9-15.1-.5-4.1.2-8.6-7.4-8.3 12.5-4 23.1-7.8 33.9-11 19.4-5.7 36.3-16.1 51.9-28.5 29.5-23.4 51-52.9 62.6-88.7 14.2-43.8 14-87.9-3.4-130.7-23.3-57.2-65.1-95.4-124.5-113-13.7-4-28.3-4.7-42.5-7-1.3-.2-2.6-.8-3.8-1.4-.3-.1-.6-.7-.9-.8-7.9-1-15.5-5.6-23.8-2.6-1 .3-1.5 1.8-2.4 2.5-1.9 1.4-3.8 3.6-6 4-50.6 7.1-91.3 31.6-122.8 71.2-22.3 28.1-35.2 60.4-38.8 96.4-4.2 41.6 3.5 80.5 24.6 116.6 12 20.5 27.4 38.2 45.9 53.2 2.2 1.7 4 3.9 5.6 6.2-10-4.1-10.3-4-15 6-1.5 3.3-3.4 6.5-5.7 10.8-6.8-5.8-13.5-11-19.6-16.8-34.7-33.4-56.5-73.9-65.3-121.2-.3-1.6 1.2-4.5 2.7-5.4 5.2-3 8.8-6.9 10-13 1.9-10 6.6-19.8 1.3-30.1-.3-.7-.2-1.6-.1-2.4 2.3-18.5 6.5-36.6 13.9-53.8 2.9-6.6 3.9-14.1 5.7-21.1 4.6-.1 10.8-5.7 9.3-9.9-1.8-4.7 1.1-6.8 2.3-10.1.9-1.1.8-3 1-4.8z"/><path fill="#fbfbfa" d="M349.3 532c5.5-9.4 4.4-19 1-29.2 4.6-.8 8.5-1.5 13.4-2.4.7 6.9 2.8 13.6 1.6 19.6-1.8 9-5.5 17.8-9.2 26.4-1.5 3.6-9.6 2.9-11.8-.6-1-1.6-1.7-3.2-2.6-4.8-.9-1.5-1.8-3-3.3-5.4-1.2 4-1.8 7.1-3.2 9.8-1.1 2.2-2.9 4.6-4.9 5.5-3 1.3-6.1.9-8.3-2.7-4.1-7-9.5-13.3-12.8-20.7-2.6-5.7-2.7-12.4-4.1-19.7 4.9-.4 8.6-.7 12.8-1 .9 10.1.7 20.4 10.5 28.9.7-5.7 1.7-10.4 1.8-15.2.1-4.8-.9-9.7-1.4-15.2 3.8-.5 7.5-1.1 11.9-1.7 1.4 10.1 1 20.4 8.6 28.4zm-154.5-5.7c-3.7-2.2-6.9-3.8-9.7-5.9-1-.8-1.8-2.7-1.8-4 .1-3.6.9-7.1 1-10.7 0-1.3-.9-3.6-1.8-3.9-1.3-.3-3.7.3-4.4 1.4-2 3-3.4 6.3-5.2 10.1-4-2.3-7.5-4.5-11.3-6.7 7.9-13.2 15.5-25.8 23.5-39.2 7.2 4.5 14.6 8.6 21.5 13.4 4.7 3.2 6.5 8.1 5 13.9-1.5 5.8-5 9.9-10.8 11.2-3.6.8-4.6 2.3-4.7 5.6-.1 4.6-.7 9.2-1.3 14.8zm-4.9-45.5c-1.7 4.7-3.8 8.4-3.9 12.2 0 1.2 5.6 3 8.8 3.3 1.3.1 3.8-3 4.2-4.9.9-5.7-3.8-7.3-9.1-10.6zm364.8-168.6v11.7h-40.6c-2.4-9-1.6-10.5 5.7-15.5 5.3-3.6 10.3-7.6 16.9-12.6h-23.4c-.2-3.5-.5-7.2-.8-11.3h41.9c1.6 6.1 1.4 11-5.2 14.8-5.9 3.4-11.1 8.2-16.7 12.3.2.5.4 1 .7 1.6 6.9-.3 13.8-.6 21.5-1zM168.8 124.7c-4.6-5.3-9.2-10.5-14.1-16 2.9-2.6 5.7-5.2 8.6-7.9 8.8 11.1 17.4 21.8 25.9 32.6-3.5 5.6-7.8 7.6-14.4 5.3-5-1.8-10.5-2.2-16.6-3.4.2 8.2 7.1 10.7 9.7 16.5-2.7 2.2-5.5 4.5-8.5 6.9-9-10.9-17.7-21.5-26.5-32.1 3.4-5.9 7.6-8.1 14.7-5.3 6.3 2.5 13.2 3.3 19.9 4.8.5-.4.9-.9 1.3-1.4zm177.7-64c9.2-2.1 12 3.1 14.2 9.5 2.1 6 4.6 11.8 7 17.7.6-.1 1.1-.1 1.7-.2 1.5-6.8 3-13.6 4.6-21.1 3.9.8 7.4 1.6 11.3 2.4-3.1 12-5.9 23.4-9 34.6-.6 2.1-3.2 5.7-3.9 5.5-3.1-1-7.1-2.4-8.5-4.9-3.9-7-6.6-14.7-11.2-22.1-1.5 6.7-3.1 13.3-4.8 20.7-3.9-.8-7.5-1.5-11.6-2.4 3.6-13.7 7-27 10.2-39.7zm-153.2 45c3.7 7 7 13.1 10.6 20-3 1.6-6.1 3.3-9.9 5.4-6.3-12.2-12.5-24.3-18.8-36.4 7-6.9 11-6.9 20.6-.8 4.2 2.7 8.6 5 13 7.4l1.5-1.2c-3.5-6.3-6.9-12.6-10.5-19.2 3.3-1.8 6.3-3.4 9.9-5.4 6.3 12.6 12.3 24.8 18.8 37.8-13.9 8.5-22.9-4.2-35.2-7.6zm234.8-5.2c0 13.5-9.8 24.1-22.9 23.1-10.7-.8-20.5-8.9-20.2-21.6.3-14.7 11.8-22.6 22.8-22.8 11.4-.2 20.3 9.5 20.3 21.3zm-22-9.3c-5.9-.1-9.9 4.3-9.9 10.9 0 6.2 3.6 10 9.5 10.2 6.4.1 11.7-5.1 11.9-11.8.1-5.3-4.7-9.2-11.5-9.3zM242.8 544.3c-4.2-2.5-11.3-.4-11.9-9.6-.2-2.3-7.3-4.5-11.5-6-1.1-.4-3.4 1.2-4.6 2.5-2.8 2.9-8.6 2-13.6-2.7 9.5-11.6 19-23.2 28.7-34.7.9-1.1 3.3-1.9 4.5-1.4 3 1.2 8 3 8.1 4.8.6 15.4.3 31 .3 47.1zM223.1 519c3.7 1 6 1.6 9.1 2.5.2-4.8.4-8.6.6-12.5-.4-.2-.8-.3-1.2-.5-2.6 3.1-5.1 6.3-8.5 10.5zM85.4 276.9c5 .9 10.1 1.8 15.8 2.8-.8 4.1-1.5 7.8-2.2 11.6-14.2-2.4-27.7-4.7-41.5-7.1.7-4 1.4-7.5 2.1-11.6 4.8 1 9.3 1.9 14.8 3 1-5.4 1.9-10.7 3-16.6-5.5-.8-10.2-1.6-15.3-2.3.7-3.9 1.3-7.6 2-11.4 13.9 2.3 27.4 4.6 41.7 6.9-.8 4-1.6 7.8-2.4 11.6-1.8-.2-2.8-.3-3.8-.4-13.7-2.6-14.9-1.5-14.2 13.5zm420.3-121.2c2.2 3.5 4 6.4 6.2 10-4.2 2.6-8.4 5.1-13.1 8 3.1 5 5.9 9.5 9 14.5 4.4-3.1 8.2-5.7 12.6-8.7 2.2 3.3 4.2 6.4 6.5 9.8-11.9 7.6-23.4 15-35.5 22.6-2.1-3.1-4.2-6.2-6.7-9.9 4.9-2.9 9.5-5.6 14.7-8.7-2.7-4.3-4.8-8.3-7.6-11.9-.7-.8-3.7-.7-5 .1-3.5 1.9-6.6 4.5-10.3 7.1-2.3-3.5-4.2-6.5-6.5-10 12.1-7.8 23.8-15.3 35.7-22.9zm-90.2 372c-6.3 5.2-10.3 5.5-15.4 1.5-2.4-1.9-14.6 2.2-15.5 5.2-2.3 7.5-3 8-11.9 9.2 0-15.3-.1-30.6.2-45.9 0-1.3 2.2-3.2 3.7-3.7 2.8-.8 7.3-2.1 8.6-.8 10.3 11.2 20.2 22.9 30.3 34.5zm-31.6-6c3.1-1.1 5.5-1.9 8.8-3-3.1-4.1-5.5-7.3-7.9-10.5l-1.5.6c.1 4 .3 7.9.6 12.9zm61.9-423.9c6.8 6.3 14.2 11.9 19.9 18.8 4.7 5.7-.8 16.5-8.6 18.8-1.7.5-3.6.6-5.8 1-.5 2.6-1 5.3-1.6 8-.6 2.8-1.4 5.5-2.1 8.3-9.3-3.9-10.1-5.7-7.6-15 1-3.6 2.7-7.6-3.1-10.1-2.6 3.7-5.2 7.4-8.3 11.7-3.3-2.5-6.4-4.9-9.6-7.4 8.8-11 17.1-21.7 26.8-34.1zm-4.8 23.1c4.6 3.4 7.6 8.5 12.9 4.1 3-2.5 2.1-8.4-1.6-10.6-7.4-4.3-6.8 4.4-11.3 6.5zm105.2 118.4c1.6 6.2 3.5 12.6 4.8 19.1 1.2 6.1 0 12-5.5 15.7-5.4 3.6-11 3.4-16.4-.7-1-.8-3.8-.4-5.1.5-3.7 2.4-7 5.4-10.8 8.4-.8-2-1.4-3.4-2-4.8-2.2-4.9-1.4-8.5 4-10.7 2.2-.9 4.6-2.2 6-4 1.2-1.5 1-4.1 1.7-7.3-5.7 1.5-10 2.7-14.9 4-.9-3.8-1.8-7.4-2.8-11.8 13.7-2.9 27.1-5.6 41-8.4zM529.9 253c-.5.8-1 1.5-1.5 2.3 1.9 3.1 3.3 6.7 5.9 9.1.8.8 5.8-.7 6.5-2.2 1.1-2.4 1.1-7.9.1-8.3-3.4-1.2-7.3-.7-11-.9zM132.2 141.4c-4.1 4.4-7.7 8.4-11.4 12.4 3.4 5.3 5 5.5 8.3 1.1 2.2-2.9 4.3-5.8 6.8-9.1 2.3 2.6 4.5 4.9 6.8 7.5-2.4 2.7-5.2 5.6-7.5 8.8-.8 1.1-.5 3.1-.7 4.6 1.8.1 4.3 1.1 5.3.3 2.6-2.2 5-4.9 6.5-7.9 2.3-4.5 4.3-4.6 7.2-.7 1 1.3 2.1 2.5 3.4 4.1-5.7 6.8-11.3 13.7-17.3 20.1-1 1.1-5.1 1-6.4-.2-8.9-8-17.5-16.5-26.6-25.2 4.7-5.9 9.7-13 15.6-19.1 4.6-4.9 6.4 2 10 3.3zm386.5 94.7c-1.6-4.4-2.5-7.8-4.1-10.8-.8-1.5-3-2.2-4.6-3.2-.6 2-2.2 4.3-1.7 6 1.2 4.2 3.3 8.2 5.1 12.3-7.5 4.2-8.6 3.9-11.8-2.4-3.5-6.8-5.1-14.3-8.3-21.5 13.2-5.2 26-10.2 39.2-15.3 3.4 8.4 6.9 16.9 10.6 26-2.9 1.6-5.6 3.1-8.8 4.9-1.5-4.5-2.6-8.6-4.4-12.2-.8-1.6-3.4-3.5-4.9-3.2-3.4.6-2.6 3.3-1.4 5.7 1.6 3.3 3.1 6.6 5 10.6-3.4.8-6.5 1.9-9.9 3.1zM68 232.9c2.8-7.7 5.4-15.5 8.5-23.2 2.8-7 6.9-.4 11-1.5-2.1 4.7-3.8 8.3-5.4 12-1.1 2.5-2.3 5.5 1.6 6.2 1.4.2 4-1.9 4.8-3.6 1.6-3.2 2.3-6.9 3.6-11.2 3.1 1.4 5.9 2.7 9.3 4.3-1.5 3.7-3.2 7.1-4.2 10.7-.4 1.6.6 3.6.9 5.4 1.9-.8 4.9-1.1 5.6-2.6 1.9-4.1 3-8.7 4.6-13.9 3.2 1.7 6.1 3.2 9.2 4.9-3.5 9.3-6.9 18.1-10.4 27.3-13.1-5-25.9-9.8-39.1-14.8zM240.6 92.2c.2 6.9 4 6.4 8 5.1 3.6-1.1 7.2-2.5 11.6-4.1.4 3 1.1 5.5 1 7.9-.1 1.5-1.2 4-2.4 4.3-8.4 2.1-16.9 3.7-25.3 5.5-3.9-13-7.8-26.1-11.8-39.7 8.3-2.5 17.6-5.3 27.3-8.3 1.3 3 2.4 5.7 3.8 9-4.9 1.3-9.4 2.1-13.6 3.7-1.3.5-1.8 3.1-2.7 4.8 1.7.6 3.5 1.9 5 1.5 3.8-1 7.3-2.7 11.6-4.3.8 3.5 1.5 6.5 2.3 10.1-5 1.7-9.8 3.1-14.8 4.5zm200.2 422.1c-5 2.9-8.7 5.1-12 7-1-.6-1.3-.7-1.4-.8-2.2-9.5-9.9-13.3-17.8-16.3-7.8-2.9-11.9-8.5-14.6-16.2 3.5-1.8 7-3.7 11.1-5.8 3.4 6.5 6.3 13.3 15.1 13.4 4.3-7.4 1-13.6-4.4-19.5 4-2.4 7.6-4.6 11.1-6.7 7.4 7.3 8.7 16.1 6.8 25.4-1.5 7.3-1.6 13.7 6.1 19.5zM309.6 88.4c2.7.9 5.4 1.9 8.5 2.9.1 2 .3 4.1.4 6.5-6.2 2.2-11.3.8-15.7-3.7-6.3 3.1-12.1 13.1-19.6 5-7.8-8.3-5.3-15.4 5.5-23.6-3.6-11.6-1.2-15.1 2.9-17.7 3.8-2.4 11.9-.6 13.9 2.7 4.2 7-1.3 10.7-5.9 14.9 1.6 2 3.1 3.9 4.4 5.4 4.1-2.2 8.1-4.4 11.9-6.5 5.3 9.2-5.1 8.4-6.3 14.1zM293 81.6c-.7-.2-1.4-.3-2.1-.5-.9 2.8-2.1 5.5-2.4 8.4-.1 1 2.5 3.2 3.7 3 2.4-.3 4.6-1.7 7.4-2.9-2.9-3.4-4.7-5.7-6.6-8zm3.9-9.7c1.5-3.4 2.7-6 3.8-8.7-1.7-.3-4.1-1.5-5.1-.8-3 2.4-2.7 5.4 1.3 9.5zM70.8 299.2c-5 8.8-4.9 13.3.1 17.1 4.6 3.5 11.6 3.2 15.8-.6 4.3-3.9 3.9-9.5-1.5-17.2 2.4-1.7 4.9-3.4 7.2-5 8.6 6.9 10.7 18.7 5.1 27.2-5.9 8.9-19.6 12.5-29.4 7.1-11-6-13.5-12-11.1-23.8 2-10 5.6-11.1 13.8-4.8zM131 196.5c-2.8 4.7-4.8 7.9-7.3 12-8.1-9.5-17.9-5.7-27.3-5.6-4.8.1-9.6-3.2-15.1-5.3 2.7-4.4 4.6-7.7 6.6-10.9.2.7.3 1.3.5 2 6 1.3 12 2.5 18.8 3.9-1.1-9.4-5.8-13.5-13.2-15.8 2.1-3.9 3.8-7.2 5.6-10.6 8.1 2.5 13.3 7.3 16.2 14.8 2.6 7 5.2 14.2 15.2 15.5zm157.2 344.3c7.2.3 13.3.6 19.3.9 1.6 9.3 0 11.2-8.8 10.3-7.3-.7-14.5-1.3-22.8-2.1.2-3.3.3-6.6.5-9.8.2-2.4.7-4.8.8-7.2.3-7.5.6-15.1.8-22.6.1-3.8 1.7-6 6-5.4 2.2.3 4.4.3 7.3.4-1 11.7-2 23.2-3.1 35.5zM470.4 132c3.3-2.3 5.8-4 8.3-5.7 6.8 7.2 13.5 14.2 20 21-2 2.1-4.1 4.2-6.4 6.6-1.9-2.1-3.9-4.3-7.1-7.8-7.1 8.4-14 16.6-21 24.8-4.4-4.4-7.1-7.2-10.2-10.3 7.8-7.1 15.8-14.3 24.1-21.9-2.7-2.2-5-4.3-7.7-6.7zM252.1 545.7c3.1-15.3 6.1-29.7 9.1-44.6 3.9.7 7.6 1.3 12 2.1-3 14.9-6 29.6-9.1 44.8-4-.8-7.7-1.5-12-2.3z"/><path class="color-red" fill="#ee1116" d="M199.3 517c-.6-5-.5-7.3 4.3-8.8 12.8-3.8 15-20.9 4.9-31.8l11.1 5.4c3.9 1.9 7.9 3.8 11.9 5.7-10.1 10.5-17.7 23.2-32.2 29.5zm73.7-17.3 39.6 3.3c-9.9 3.5-9.9 3.5-9 14.4.3 3.6.9 7.2 1.5 11.6-3.4 0-6.6.3-9.6-.1-1.1-.1-2.8-2-2.8-3 .1-4.8.2-9.6 1.3-14.3 1.5-6.4.3-8.6-6.3-9-4.2-.3-8.3-.6-12.5-1-.9-.1-1.7-.8-2.5-1.2.1-.2.2-.5.3-.7zm-26.5-6.1c4.1.9 8.4 1.9 13 3-1.8 8.7-3.6 17.1-5.4 25.4-5.6.8-7.8-1.4-7.6-6.7.1-6.8 0-13.7 0-21.7zm152.3 9c4.2 1.9 8.3 4 12.5 5.8 5.4 2.4 10.1 4.7 12.1 11.4 1.7 5.8 4.3 5.7 12.7 1.3 4.4 4.6 3.7 5.6-8 10.4-.7-1.1-1.7-2.1-2.1-3.3-1.8-5.9-5.6-9.5-11.6-11.3-7.4-2.2-12-7.8-15.6-14.3.1 0 0 0 0 0zm-122.6 58.1v-7c10.7.6 21.1 1.3 31.9 1.9-.5 2.2-1.1 4.2-1.7 6.9-9.9-.6-19.7-1.2-30.2-1.8zm139.2-21.5c-2.9 1.3-5.4 2.6-8 3.5-1.3.5-3.7.8-4 .3-4.4-7.2-10.1-2.5-17.3-.8 1.9-3.8 2.5-7 4.3-7.9 3-1.5 6.6-4.7 10.1.1.9 1.2 4.3 1.6 6 .9 4.1-1.5 6.6-.3 8.9 3.9zM228.3 542c-2.7-.9-5.3-1.9-8-2.6-1.3-.3-3.6-.5-4 .2-5 7.7-9.7 1.6-14.5.3l-.6-2.1c2.4-.7 4.8-1.6 7.2-2.1 2.3-.5 5.1.2 7-.9 7.9-4.3 12.2-2.1 12.9 7.2zm106.8 10.9c.7 4.9-.8 7.4-5.2 8.6-4.1 1.1-6.5.3-8.7-3.7-3.8-6.9-8.3-13.4-12.4-20.2-.9-1.4-1.3-3.1-.8-5.2 3.4 5.2 6.8 10.3 10.1 15.6 4.9 7.9 5 8 14 5.2.8-.2 1.7-.2 3-.3zm-17.8-51.4c5.2-.7 10-1.4 14.8-2.1.6.7 1.1 1.4 1.7 2.1-10.5.3-8.5 6.1-7.4 12 .8 4.6.7 9.3.3 14-7.6-6.6-1.9-17.6-9.4-26zm25 50.5c5.4-.6 10.4-1.1 15.8-1.7.4 5.1-2.8 8-7.8 9.4-3.4.9-4 .3-8-7.7zm-89.5-2.8c3.4.6 5.1.9 6.9 1.2 1.8.2 3.6.4 6.7.7-.9 2.4-1.5 6-2.3 6-3.5.1-7.2-.4-10.5-1.6-.9-.2-.6-3.6-.8-6.3zm-88.4-35.9c4.6 1.2 8 2.2 12 3.3-1 1.9-2.2 4.2-3.4 6.5-12-5.6-12.5-6.3-8.6-9.8zm207.7 34.2c2.5-.7 4.3-1.1 6-1.6s3.4-1.1 5.1-1.7c1.9 6.1-1.2 8.9-10.5 9.3-.2-1.8-.3-3.7-.6-6zm-139.8-3.3c11.8 3.5 13.4 2.7 10.8 9.5-9-.3-11.9-2.7-10.8-9.5zm-47.4-19.5c3.3 1.5 6.5 3.1 9.9 4.7v5.7c-8.3-1.5-11.3-4.6-9.9-10.4zM132.8 195c-10.5-6-10.5-6-10.7-12 3.6 4 7.1 8 10.7 12z"/><path class="color-red" fill="#ee1116" d="M396.7 499.8c.7 1 1.4 1.9 2.1 2.9l.1-.1c-.8-.8-1.7-1.6-2.5-2.4-.1 0 .3-.4.3-.4z"/><path fill="#fbfbfa" d="M355.2 317.6c-.1-.9-.2-1.7-.3-2.6.2 0 .4-.1.6-.1.3.6.6 1.3.8 1.9-.3.3-.7.6-1.1.8zm16.8 16.6c.2-.2.4-.4.6-.7 0 .2.1.4.1.5h-.8l.1.2z"/><path class="color-brown" fill="#24180d" d="M172.7 252.3c2.6-.6 5.7-1.4 7.9-1.9.9 1.3 1.7 2.2 2.1 3.2.5 1.2 1.2 3 .7 3.8-2.6 3.8-5.4 7.5-8.3 11.1-2.2 2.6-4.6 5-6.3 8.6 3.6-1.4 7.2-2.7 10.7-4.1.4.3.8.7 1.2 1-3.5 5.8-7 11.6-10.7 17.6 2.1-.8 4.3-1.6 6.5-2.4.5.3 1.1.5 1.6.8-1.8 3.3-5.8 7.4-5 9.9 1.6 4.8-1.7 6.6-3.7 9.6 9.4-2.4 14.4-9.2 20.1-25.2v8.5h1.6c2.3-11.9 4.6-23.9 6.9-35.8.6-.1 1.1-.1 1.7-.2.6 4.6 1.2 9.1 1.7 13.7.3.2.6.3.9.5.8-4 1.6-8 2.6-11.9.4-1.8 1.2-3.6 1.9-5.3 1.7 1.2 4 2.1 5.1 3.7 3 4.5 4 8.3-1.2 13.1-9.2 8.4-13.1 19.4-11.2 32.1 2.1 14.3 1.3 28.4-5.2 41.7-1.5 3-3.8 5.7-6 8.3-4.7 5.9-4.5 8.6 1.7 12.9 5.7 3.9 11.6 7.4 18.1 11.5-7.4 10.2-.7 16.3 6.5 22.2 4.4 3.6 9.6 6.5 13.2 10.7 3 3.6 4.4 8.6 6.4 13.1.7 1.6 1.4 3.2 1.8 4.9.6 2.3 1.9 5 1.2 6.9-1.7 4.9-.5 8.4 4 9.8 4.6 1.5 9.6 1.7 14.5 2.5-.7-4.8-1.2-9.7-2.3-14.4-1.2-5.1-2.6-10.1-4.5-14.9-1.4-3.6-3.2-7.3-5.6-10.3-3.4-4.3-7.8-7.7-11.2-11.9-1.9-2.3-2.8-5.5-4.1-8.3.7-.6 1.3-1.1 2-1.7 1.9 1.8 4.3 3.2 5.6 5.4 3.9 6.8 8.8 11.4 17.5 10.7 1.8-4.8 1-9-2.3-13.2-4.3-5.3-8.1-11.1-12.9-17.7 3.9-6.6 8.6-14.7 13.3-22.7.6.1 1.2.3 1.9.4-.3 1.8-.2 3.8-.9 5.5-1.4 3.5-6.5 7.2-2.5 10.6 6.1 5.1 7.3 12.9 12.6 18.2 1.8 1.8 3.8 3.2 5.8 4.8.5-.3.9-.5 1.4-.8-1-5-2-10.1-3-15.1.5-.3 1-.6 1.5-.8 2.3 2.6 4.2 6.1 7 7.5 11.8 5.8 13.4 16.3 14.7 27.7.9 7.5 3.7 14.7 6 21.9 3.9 12.2 6.1 24.4.6 36.8-.8 1.8-1.2 4.9-.2 6.3 3.2 4.9 3 9.7 1 14.9-.6 1.7.2 3.8.3 5.7-82-1-160.1-67.5-170.8-157.5C114.7 234.8 185 151 269.7 136c1.4 3.9 3.2 7.8 4.1 11.9.5 2.3 0 5.3-1.1 7.4-3 5.3-6.4 10.3-9.9 15.3-3 4.2-4.2 8-.9 12.7 3.6 5.1 7.1 10.3 9.9 15.9 2 4 3.7 8.5 3.8 12.9.4 15.3.2 30.7.2 46 0 1.8 0 3.7-.1 5.5 0 .8-.4 1.5-.6 2.3-10.3-4.7-11.4-4.3-12 4.6-7.5-3.1-14.9-6.6-22.7-9.1-3.9-1.3-8.7-1.8-12.4-.7-5.5 1.6-6.6-1.4-7.3-5.1-.5-3-.4-6.1-.2-9.1.9-12.2-5.7-20.8-13.8-28.5-5.3-5-11.1-4.3-15 1.8-3.5 5.4-5.5 11.7-8.7 17.3-2.9 4.9-6.6 9.7-10.3 15.2zm142.9 224.6c-1.7-9.8-6.4-19-4.4-29.4 3-15.6 4.9-31.2 3.1-47.1-.7-6.1 1.6-7.9 10.5-7.3 0 11.4-.3 22.9.1 34.4.2 7.9 1.4 15.8 2 23.7.3 3.5 1.3 7-3.7 8.9-6 2.2-4.5 8.1-5.2 12.9-.2 1.3-.3 2.6-.4 3.9h-2zm10.7-82c6.9 1.7 8.7 4.6 8 10.7-1.6 13.7-2.1 27.4-3.1 41.1-.1 1.1-.6 2.1-2.4 3-.8-18.1-1.6-36.2-2.5-54.8zm10.6 6.3c6.4 5.1 10.3 9.7 9.3 16.8-.1.6.1 1.3-.2 1.8-3.7 6.8-7.5 13.5-12.7 20.2 1.2-12.4 2.4-24.9 3.6-38.8zm-26.6-137.4c1.6 13.9 10.5 21.9 22.2 27.8-7.9 2.5-15.7.5-23.6-9.6-3-3.9-.9-11.8-1.2-17.9.8-.2 1.7-.3 2.6-.3z"/><path class="color-brown" fill="#24180d" d="M216.4 353.3c-.8 3.9-1.6 7.7-2.4 11.6-.7.1-1.5.2-2.2.3-1.5-2.3-4.7-5.5-4.1-6.7 1.4-2.6 4.7-4.2 7.3-6.3.5.4 1 .7 1.4 1.1zm-26.5 127.5c5.3 3.3 10.1 4.9 9.1 10.5-.3 1.9-2.9 5.1-4.2 4.9-3.2-.3-8.8-2.1-8.8-3.3 0-3.7 2.2-7.4 3.9-12.1zm3.8 5-2.1.3c-.9 1.5-1.9 3-3.9 6.3h7.7c-.5-2.2-1.1-4.4-1.7-6.6zM406.1 91.2c6.8.1 11.6 4 11.5 9.3-.2 6.6-5.5 11.9-11.9 11.8-5.9-.1-9.5-4-9.5-10.2 0-6.6 4-11 9.9-10.9zM223.1 519c3.4-4.2 5.9-7.4 8.4-10.5.4.2.8.3 1.2.5-.2 3.9-.4 7.7-.6 12.5-2.9-.9-5.3-1.5-9-2.5zm160.8 2.7c-.3-4.9-.5-8.9-.7-12.9l1.5-.6c2.4 3.2 4.8 6.4 7.9 10.5-3.2 1.1-5.6 1.9-8.7 3zM441 120.9c4.4-2.1 3.9-10.8 11.2-6.5 3.7 2.2 4.6 8.1 1.6 10.6-5.2 4.4-8.2-.7-12.8-4.1zM529.9 253c3.7.2 7.6-.3 10.9.9 1 .4 1.1 5.9-.1 8.3-.7 1.5-5.7 3-6.5 2.2-2.5-2.4-4-6-5.9-9.1.6-.7 1.1-1.5 1.6-2.3zM293 81.6c1.9 2.3 3.8 4.6 6.6 8-2.8 1.2-5 2.6-7.4 2.9-1.2.1-3.8-2.1-3.7-3 .3-2.8 1.5-5.6 2.4-8.4.7.1 1.4.3 2.1.5zm3.9-9.7c-4.1-4.2-4.4-7.1-1.3-9.5 1-.7 3.4.5 5.1.8-1.1 2.7-2.2 5.4-3.8 8.7z"/><path class="color-red" fill="#ee1116" d="M193.7 485.8c.6 2.2 1.1 4.4 1.7 6.6h-7.7c2.1-3.3 3-4.8 3.9-6.3.8-.1 1.4-.2 2.1-.3z"/></svg>