<svg xmlns="http://www.w3.org/2000/svg" viewBox="25 25 587 587"><circle fill="#9A9A9D" r="281" cx="306" cy="306"/><path fill="#fff" d="M109.4 109.4h393.2v393.2H109.4V109.4z"/><path class="color-black color-reserved-gray" d="M500.6 111.4v389.2H111.4V111.4h389.2m4-4H107.4v397.2h397.2V107.4z"/><path class="color-black color-reserved-gray" fill="#2a2a2a" d="M408.1 306c4.4 0 3.8 2.3 2.5 5.1-8.7 18.8-17.5 37.6-26.2 56.4-3 6.6-6.4 13-9.2 19.7-1.2 2.9-2.9 3.7-5.7 3.4-1.5-.1-3.2-.3-4.7 0-15.9 2.9-28.5-4.3-40.2-13.7-3.6-2.9-6.8-3.4-11.2-1-17.1 9.1-34.4 17.7-51.6 26.3-1.5.8-3.9.9-5.4.2-12.2-5.7-24.2-11.7-36.3-17.6.4-1.1.7-2.2 1-3.3.6.5 1.1 1.2 1.8 1.5 11.4 5.7 22.9 11.3 34.4 16.8 1.2.6 3.3 0 4.7-.7 19.1-9.6 38.1-19.3 57.1-29 8.3 5.4 16.6 10.7 24.9 16.1-.5-5.4-1.6-10.2-3.2-14.9-2-5.9-2-11.2 1.7-16.7 3.6-5.4 6-11.6 9-17.4 5.1-9.6 10.2-19.2 15.3-28.9l-.1.1c1.6.3 3.3.8 4.9.9 8.5.1 17 .1 25.5 0 2.9 0 5.8-.5 8.7-.8.3-.4.7-.7 1-1 .5-.6.9-1 1.3-1.5zm-72.2-81.9 13.2 40.2c-.3 1.3-.6 2.5-.9 3.8 0 4-.1 8.1-.1 12.1-6.8-2.2-13.6-4.2-20.4-6.5-3.3-1.1-3.6-4-3.1-6.9 2.2-12.8 4.6-25.6 6.7-38.3.3-3 1.5-4.5 4.6-4.4z"/><path class="color-black color-reserved-gray" fill="#2a2a2a" d="M335.9 224.1c-3-.1-4.3 1.4-4.8 4.4-2.1 12.8-4.4 25.6-6.7 38.3-.5 2.9-.2 5.8 3.1 6.9 6.7 2.3 13.6 4.3 20.4 6.5v3.7c-2-.3-4.2-.3-6.2-.8-7.4-2.1-14.7-4.3-22-6.5-.1-.6-.5-1.2-.4-1.7 1.5-10.1 3.1-20.2 4.7-30.2 1.6-9.9 3.2-19.8 4.9-29.7.5-3-.7-3.9-3.5-3.9-4.3.1-8.7 0-13 0-.3-.6-.6-1.3-.9-1.9h19.2c1.6 4.5 3.4 9.7 5.2 14.9z"/><path class="color-black color-reserved-gray" fill="#575858" d="M214.5 262.5c.7-1.1 1.1-2.6 2-3.3 24-16.5 48.1-32.8 72.1-49.2.7-.5 1.6-.6 2.4-.9 0 .6.1 1.3.1 1.9-2.1 1.6-4.1 3.4-6.2 4.8-11.8 8-23.7 16-35.4 24-10.9 7.5-21.6 15-32.5 22.5-.8.2-1.7.2-2.5.2z"/><path class="color-black color-reserved-gray" fill="#292929" d="M209.6 344.8c3.1-6.2 6.2-12.5 9.4-18.7.6-.9 1.3-1.9 1.9-2.8 1.9 1.6 3.5 3.5 5.6 4.8 1.9 1.2 4.3 1.8 6.4 2.6-6.9 5-13.8 9.9-20.7 14.9-.8-.3-1.7-.6-2.6-.8z"/><path class="color-black color-reserved-gray" fill="#282828" d="M220.9 323.2c-.6.9-1.3 1.9-1.9 2.8-.6-5.3-1.4-10.6-1.8-15.9-.5-7.1-.6-14.2-1-21.3-.5-8.7-1.1-17.5-1.7-26.2h2.6c.1.3.2.5.3.8 0 4.3-.2 8.7.1 13 1 15.6 2.3 31.2 3.4 46.8z"/><path class="color-black color-reserved-gray" fill="#5b5b5b" d="M291.1 211.1c0-.6-.1-1.3-.1-1.9h20.6c.3.6.6 1.3.9 1.9 2.5 2.3 5.1 4.5 7.3 7.1.7.8 1 3.2.4 3.7-2.7 2.3-5.8 4.2-9.7 6.9 0-5.1-.1-8.8 0-12.5.2-3.7-1.1-5.4-5.1-5.2-4.6.1-9.5 0-14.3 0z"/><path class="color-black color-reserved-gray" fill="#595959" d="M348.1 268.2c.3-1.3.6-2.5.9-3.8 7.7 5.3 15.5 10.6 23.2 15.9 4.4 3.1 8.8 6.2 13.3 9.3-1.3.4-2.6 1-3.9 1.1-4.3.3-8.5.5-12.8.7-.5-.3-1-.6-1.6-1 .1-.3.1-.6.2-.9h11.8c-8.5-7-17.2-13-26-19-1.6-1-3.4-1.6-5.1-2.3z"/><path class="color-black color-reserved-gray" fill="#282828" d="M368.7 291.4c4.3-.2 8.6-.4 12.8-.7 1.3-.1 2.7-.7 3.9-1.1 6.6 4.6 13.2 9.1 19.7 13.8 1.1.8 1.9 1.8 2.9 2.7-.4.5-.8.9-1.1 1.4-5.6-3.4-10.8-7.5-16.8-9.9-6.8-2.9-14.2-4.3-21.4-6.2z"/><path class="color-black color-reserved-gray" fill="#575858" d="M209.6 344.8c.9.3 1.8.5 2.6.8-1.5 2.9-3.1 5.7-4.4 8.7-.6 1.5-1.6 3.7-1 4.7 4.5 7.5 9.3 14.9 14 22.3l.3.2c-.4 1.1-.7 2.2-1 3.3-1.9-2.5-4-4.9-5.7-7.6-3.4-5.2-6.7-10.4-9.6-15.9-.9-1.8-.9-4.7-.1-6.7 1.1-3.5 3.2-6.6 4.9-9.8z"/><path class="color-black color-reserved-gray" fill="#3c3c3b" d="M319.1 370c-19 9.7-38 19.4-57.1 29-1.4.7-3.5 1.3-4.7.7-11.5-5.4-23-11.1-34.4-16.8-.7-.3-1.2-1-1.8-1.5l-.3-.2c4.5-4.9 9-9.9 13.4-14.8 8.4-9.4 16.6-18.7 24.9-28.1 3.2-1.6 6.5-3 9.5-4.8 7.8-4.5 15.5-9.2 23.2-13.8 6.2-3.2 12.5-6.3 18.7-9.4 5.9-3.2 11.9-6.3 18.9-10.1-3.4 24.1-6.9 47-10.3 69.8z"/><path class="color-black color-reserved-gray" fill="#4c4c4c" d="M319.1 370c3.4-22.8 6.9-45.7 10.6-69.9-7.1 3.8-13 6.9-18.9 10.1-1.8-4.7-3.7-9.4-5.5-14.1 2.2-.6 4.2-1.5 6.4-1.7 5-.5 10-.7 15-1-2.2-5.6-4.5-11.1-6.7-16.7 7.3 2.2 14.7 4.4 22 6.5 2 .5 4.1.6 6.2.8 6.3 8.1 12.5 16.2 18.8 24.2-5.1 9.6-10.3 19.2-15.3 28.9-3 5.8-5.4 12-9 17.4-3.8 5.6-3.7 10.8-1.7 16.7 1.6 4.7 2.8 9.5 3.2 14.9-8.5-5.3-16.8-10.7-25.1-16.1z"/><path class="color-black color-reserved-gray" fill="#908f8f" d="M366.8 308.2c-6.3-8.1-12.5-16.2-18.8-24.2v-3.7c0-4 .1-8.1.1-12.1 1.6.8 3.5 1.4 5 2.4 8.8 6 17.6 12 26 19h-11.8c-.1.3-.1.6-.2.9.5.3 1 .6 1.6 1 7.2 2 14.7 3.3 21.5 6.1 5.9 2.4 11.2 6.5 16.8 9.9-.3.4-.7.7-1 1-13 0-26.1-.1-39.2-.1v-.2z"/><path class="color-black color-reserved-gray" fill="#202020" d="M366.8 308.3c13 0 26.1.1 39.2.1-2.9.3-5.8.8-8.7.8-8.5.1-17 .1-25.5 0-1.7 0-3.4-.6-5-.9z"/><path class="color-black color-reserved-gray" fill="#908f8f" d="M305.2 296.1c1.8 4.7 3.7 9.4 5.5 14.1-6.2 3.2-12.5 6.3-18.7 9.4-7.4-5.7-14.7-11.4-22.2-17-3-2.2-3-3.8-.1-6 4.7-3.7 9.2-7.7 14.7-12.3-2.8-.1-4.3-.3-5.7-.3-9.5 0-19 .3-28.4-.2-3.3-.1-6.9-1.5-9.7-3.4-7.9-5.4-15.5-11.4-23.2-17.1-.1-.3-.1-.5-.3-.8 10.8-7.5 21.6-15.1 32.5-22.5 11.8-8 23.7-15.9 35.5-24 2.2-1.5 4.2-3.2 6.2-4.8 4.8 0 9.6.1 14.4-.1 3.9-.2 5.2 1.5 5.1 5.2-.2 3.7 0 7.4 0 12.5 3.9-2.7 7-4.6 9.7-6.9.6-.5.3-2.9-.4-3.7-2.2-2.5-4.9-4.7-7.3-7.1 4.3 0 8.7.1 13 0 2.8 0 4 .9 3.5 3.9-1.7 9.9-3.3 19.8-4.9 29.7-1.6 10.1-3.2 20.2-4.7 30.2-.1.5.3 1.1.4 1.7 2.2 5.6 4.5 11.1 6.7 16.7-6.1 0-12.3-.1-18.4 0-1.9 0-4.5-.6-3.2 2.8zm-3.1-28.2c0-4.6.1-8.5-.1-12.3 0-.8-1.2-1.8-2-2.1-7.9-2.8-19.5 1.9-23.8 9.9 8.4 1.4 16.8 2.9 25.9 4.5z"/><path class="color-black color-reserved-gray" fill="#5b5b5b" d="M217.3 263.3c7.7 5.7 15.3 11.7 23.2 17.1 2.8 1.9 6.4 3.3 9.7 3.4 9.5.5 19 .1 28.4.2 1.5 0 2.9.1 5.7.3-5.5 4.7-10 8.6-14.7 12.3-2.8 2.3-2.9 3.8.1 6 7.5 5.5 14.8 11.3 22.2 17-7.7 4.6-15.4 9.3-23.2 13.8-3.1 1.8-6.3 3.2-9.5 4.8-8.7-2.5-17.5-5.1-26.2-7.6-2.2-.9-4.5-1.4-6.4-2.6-2.1-1.3-3.8-3.2-5.6-4.8-1.2-15.6-2.4-31.2-3.5-46.8-.4-4.4-.2-8.8-.2-13.1z"/><path class="color-black color-reserved-gray" fill="#908f8f" d="M233 330.6c8.7 2.5 17.5 5.1 26.2 7.6-8.3 9.4-16.6 18.8-24.9 28.1-4.4 5-8.9 9.9-13.4 14.8-4.7-7.4-9.6-14.7-14-22.3-.6-1 .4-3.2 1-4.7 1.3-3 2.9-5.8 4.4-8.7 6.9-4.8 13.8-9.8 20.7-14.8z"/><path class="color-black color-reserved-gray" fill="#454545" d="M305.2 296.1c-1.3-3.4 1.4-2.7 3-2.8 6.1-.1 12.3 0 18.4 0-5 .3-10 .5-15 1-2.2.3-4.3 1.2-6.4 1.8z"/><path class="color-black color-reserved-gray" fill="#5b5b5b" d="M302.1 267.9c-9.1-1.6-17.4-3-25.9-4.5 4.3-8 15.8-12.7 23.8-9.9.9.3 2 1.4 2 2.1.2 3.8.1 7.6.1 12.3z"/><path fill="#fff" fill-rule="evenodd" d="M215.1 160.9c-3.1-15.4-4.5-23.6-4.4-23.2-2.9 12-4.9 20.8-6 25.7 4.2-1 6.3-1.5 10.4-2.5zm70-29.7c0-.3-.1-.6-.3-.9-.2-.3-.3-.5-.6-.6-.6-.3-1.2-.5-1.7-.6-.6-.1-1.3-.1-1.9-.1-1.2 0-2.9 0-4.8.1-1.9 0-2.8.1-4.7.1 0 6.3.1 9.4.2 15.7 4-.3 6.1-.4 10.1-.6 1.4 0 2.4-.2 3.1-.5.6-.2.8-.6.8-1-.2-4.6-.2-6.9-.2-11.6zm61.7.6c0-.7-.3-1.3-.8-1.7-.3-.3-.8-.5-1.5-.6-.6-.1-1.7-.2-3.4-.3-3.3-.1-5-.1-8.3-.2 0 5.4-.1 8-.1 13.4 4.5.2 6.7.4 11.2.7 1.2.1 2-.2 2.5-.9.2-.2.3-.6.4-1.1v-9.3zm-1.1 32.1c.2-.2.3-.6.3-1.2 0-3.7.1-5.6.1-9.3 0-.6-.1-.9-.2-1-.4-.4-1.1-.8-2.1-1-1.1-.3-2.3-.4-3.3-.5-3.2-.3-4.7-.4-7.9-.6-.1 5.1-.1 7.7-.1 12.9 3.9.4 5.8.6 9.7 1.2.8.1 1.2.2 1.4.2 1-.2 1.7-.3 2.1-.7zm60.5 13.4c0-.2.1-.9.1-2.1-.4-12.8-.9-25.5-1.3-38.3 0-1-.1-1.7-.3-2-.5-1.1-1.5-2-2.9-2.6-1.4-.7-3-1-4.9-1-2.1.1-3.7.6-4.7 1.6-.4.5-.6 1-.6 1.6.4 12.7.7 25.5 1 38.2.1.5.5 1.1 1.2 1.9.6.6 1.1 1.1 1.7 1.5 1.2.9 2.7 1.6 4.3 2.1 1.9.6 3.5.8 5 .3.8 0 1.2-.5 1.4-1.2z" clip-rule="evenodd"/><path fill="#fff" d="M109.4 502.6V109.4h393.1v393.2H109.4zm2-2h389.1V111.4H111.4v389.2z"/><path class="color-black color-reserved-gray" d="M504.5 107.4H107.4v397.2h397.2-.1V107.4zM113.4 498.6V113.4h385.1v385.2H113.4z"/><path class="color-black color-reserved-gray" d="M499.6 263.2c-13.6-11.8-55.1-47.8-123.1-70.1-35.7-11.7-106.4-9.6-141.2 0-61.3 17-104.4 54.1-122.8 70l-3.9-4.5c18.7-16.1 62.5-53.9 125.1-71.2 35.5-9.8 108-12 144.6 0 69.1 22.7 111.3 59.3 125.1 71.3l-3.8 4.5zM310.7 429.3c-28.4 0-57.2-3-75.8-8.2-62.6-17.3-106.4-55.1-125.1-71.2l3.9-4.5c18.4 15.9 61.5 53 122.8 70 34.7 9.6 105.4 11.8 141.2 0 59.8-19.6 98.2-49.2 121.9-69.8l3.9 4.5c-24.1 20.9-63.2 51-124 71-17.4 5.7-43 8.2-68.8 8.2zm-10.3 36.1H319l.2 9.5h-18.8zM171.6 183.5c0 1.6 0 2.5-.1 2.7-.1 2.4-.8 4.9-1.9 7.4-1.8 4-4.2 7.9-7.3 11.5-1.8 2.1-3.8 4.1-5.9 5.9-2.7 2.3-5.1 4.1-7.2 5.4-2.5 1.5-4.9 2.6-7.3 3.4-3.6 1.2-6.7 1.2-9.2.2-1.4-.7-2.6-1.7-3.6-3.2-.9-1.3-1.5-3.2-1.7-5.4-.1-1-.2-2.6-.2-4.8v-23.5c0-1.4-.1-2.2-.1-2.3-.3-1.2-.6-2-.8-2.2-.3-.3-1.4-.8-3.4-1.4 1.8-1.7 2.9-3 3.4-3.9.3-.5.5-1.1.7-1.8.2-1 .3-1.5.3-1.6 0-8.7 0-13.1.1-21.9.1-4.2.2-6.9.3-8.3.4-3.6 1.5-7.1 3.5-10.1 1.1-1.8 2.5-3.2 4-4.4 3.1-2.1 6.2-3.3 9.2-3.4.7 0 2.3-.1 4.6 0 1.9.1 3.8.5 5.5 1.1.9.3 1.7.7 2.4 1.2.5-.6 1.2-.9 2-1 .9-.1 2.4-.2 4.3-.2h7.5c0 11 0 15.3-.1 23.1-6.2.6-9.3.9-15.4 1.5 0-3.6-.1-5.3 0-4.7-.1-1.6-.7-2.8-1.9-3.5-1-.7-2.7-1-4.7-.8-1.8.2-3.2.9-4.1 2.1-.8 1.1-1.3 2.7-1.6 4.8-.1.7-.1 2.5-.2 5.3-.1 15-.3 29.9-.4 44.9 0 2.2.1 3.5.1 3.7.2 2 1.2 3 2.7 3.2 1.6.2 3.5-.5 5.5-2.1 1.4-1.1 2.7-2.6 3.7-4.4.7-1.1 1-2.2 1-3.2v-5.2c6.5-3.3 9.7-4.9 16.4-7.9-.1 1.4-.1 2.2-.1 3.8zm66.8-20.6c.4.1 1.6-.1 3.7-.5V176c-3.8.7-6.1 1.3-7 1.5-1.2.3-2.2.2-3-.1-.9-.4-1.4-.6-1.6-.7.1 0-.2.3-1.1 1-1.2 1.1-2.5 1.9-3.9 2.2-3.2.9-4.9 1.4-8.1 2.6v-14c.7-.2 1.1-.4 1.9-.6.4-.1.8-.4 1.2-.9.3-.3.4-.8.5-1.4 0 .2-.1-.1-.1-.8 0-.5-.1-.8-.3-1.1-.1-.2-.1-.6-.2-1-.1-.5-.2-.8-.2-1-7.3 2.1-11 3.3-18.1 5.9 0 .2-.1.7-.2 1.2s-.1.9-.2 1.2c-.3 1.4-.5 2.3-.5 2.6-.1 1 .4 1.5 1.6 1.1.2-.1.5-.2.9-.4s.6-.2 1-.4c-.1 4.7-.1 7.4-.1 14.3-3.5 1.5-5.3 2.3-8.7 3.8-1.2.5-2.4.6-3.4.3-.7-.1-1-.2-.9-.3-1.4 1.8-3 3.3-5.1 4.3-2.6 1.3-3.9 1.9-6.3 3.2 0-7 .1-9.9.1-15.2 2.1-1 3.2-1.7 3.5-1.9 1.2-.9 2.1-2.1 2.4-3.3.6-2.4 1.2-6 2.1-9.7 1-4.1 1.7-6.5 2.1-8 .2-.4 0-.8-.6-1.3-.8-.3-1.3-.5-2.1-.8 1.3-.8 1.9-1.1 1.6-1 1.2-.8 2-1.3 2.3-1.7l.3-.6c1-3.3 2-6.6 3-10.2.1-.4.3-1.3.7-2.6.3-1.1.5-2.1.7-2.8 0-.2.1-.5.1-.9s.1-.7.2-.9c.2-.7-.1-1.3-.8-1.5-.5-.2-1.6-.3-3.1-.3.1-5 .1-7.8.2-14.7h11.8c2.3.1 4 .3 4.8.6.6.2 1.2.7 1.8 1.2.9-.8 1.8-1.3 2.7-1.5 1-.2 1.9-.3 2.7-.3h13.1v13.8c-1.6 0-2.7.2-3.3.5-.5.2-.8.7-.7 1.2 0 .1.1.5.2.9s.1.7.2.9c3.1 10.7 4.6 10.6 4.4 10.3.6.2 1 .3 1 .3.8.1 1.8.2 2.8.3-.5.2-.8.3-1.1.4-.5.2-.9.4-1.1.5-.5.4-.7.7-.5.9.4.8 1.1 1.9 1.9 3.9.9 2 1.5 4 2 5.6.1.4.2.6.2.7.7 1.2 1.5 1.6 2.6 1.6zm-22-6.8c-3.5-9-5.1-15.1-5.1-14.8-2.5 10.3-4.3 14.1-5.3 17.4 4.1-1.1 6.2-1.6 10.4-2.6zm84.4-13.4c-.6.3-.9.5-.9.6v2c0 .3-.1.5-.3.8-.4.3-1.1.6-2 .9-1.2.4-2.8.7-4.9 1.1.5.5 1.3 1.2 2.3 2.7 1 1.5 1.8 3.1 2.4 4.3.3.6.8 1.1 1.3 1.4.4.2 1.5.3 2.9.2h1.9c0 .6 0 1.6-.1 3 0 1.5-.1 2.7-.1 3.6 0 .4 0 1.4-.1 3.2 0 1.3 0 2.5-.1 3.5-1.6 0-2.5.1-4.1.1-.6.1-1.5.1-2.6-.1-.8-.1-1.7-.6-2.5-1.2-.6.7-1.5 1.1-2.2 1.3-.4.1-2.2.3-5.5.6 0-.3-.2-1.4-.6-3.1-.4-1.9-1-4.2-1.7-6.5-1-3.2-1.5-4.4-1.7-4.8-.5-1.1-1.9-4.5-4.2-7-2.7.2-4.1.3-6.8.4 0 2 .1 3.1.1 7.5 0 .3 0 .5.1.6.3.4.6.7 1 .7.3 0 1.7 0 4-.1v13.3c-1.9.2-2.8.2-4.6.4-1.4.1-2.1.2-3.5.3-1.2 0-2.1-.2-2.7-.4-.5-.2-1.1-.5-1.6-.9-.9.9-1.8 1.6-2.8 1.9-.7.2-1.5.5-2.5.6-2.9.4-4.4.6-7.3 1v-13.5c2.2-.3 3.4-.5 3.7-.6.8-.2 1.3-.5 1.5-.8.1-.2.2-.5.2-1 0-6.2-.1-7.3-.1-9.8 0-.1-.2-.2-.8-.4-.6-.2-1.6-.4-3.2-.6 1.5-.3 2.4-.6 3-.8.3-.1.6-.3 1-.7h.5-.5c-.1-.7-.1-1.7-.1-3.3V138c0-1.1-.1-1.8-.1-2-.3-.5-.8-.7-1.2-.8-.2 0-1.5-.1-3.9-.1v-13.4h6c1.7 0 3 .1 4 .4.8.2 1.7.7 2.6 1.4 1.2-.9 2.6-1.5 4.1-1.7.4 0 2.1-.1 5.1-.1 6.7-.1 9.9 0 9.2 0 3.5.2 6.4.9 8.5 2.1 1.4.8 2.8 1.8 4 2.9 1.9 1.7 3.3 3.7 4.2 5.7.3.7.6 1.8.9 3.1.1.6.2 1.2.1 1.9v2.9c0 .1 0 .2.1.3.7.4 2 .8 4 1.3-1.7.1-2.7.5-3.4.8zm-15.6-5.1c0-.3-.1-.6-.3-1-.2-.3-.3-.6-.5-.8-.6-.4-1.2-.6-1.7-.7-.6-.1-1.3-.2-1.9-.2h-9.5c0 7.9.1 8.7.1 11.2 4-.2 6-.2 10-.4 1.4 0 2.4-.1 3.1-.2.6-.1.8-.2.8-.4-.1-1.8-.1-2.7-.1-7.5zm78.1 12.8c.3.3.4.7.2 1.2 0 2.1.1 3.4.1 7.4 0 1.4-.2 2.7-.6 4-.5 1.5-1.4 2.9-2.6 4.1-1.9 1.9-4.6 3.5-8.1 4.2-3.1.7-6.7.8-10.7.3-3.6-.4-5.4-.5-8.9-.8-1.8-.2-2.7-.3-2.5-.2-1.5-.3-2.5-.6-3.1-1-.4-.2-.9-.6-1.5-1.1-.9.7-1.8 1.2-2.8 1.4-1 .2-1.9.2-2.7.2-2.8-.1-4.2-.1-7-.1v-13.2h3.5c.7-.1 1.1-.2 1.3-.4.4-.4.5-.7.5-1 0-5.6 0-6.4-.1-8.4 0-.2-.2-.4-.7-.6-.5-.2-1-.3-1.5-.3.3 0-.5 0-2.5-.2 1.7-.2 2.6-.3 3-.3.7-.1 1.1-.2 1.3-.3.2-.2.4-.3.4-.3 0-1.9 0-2.7-.1-8.5 0-.4-.2-.8-.7-1.1-.4-.2-1.1-.3-2.1-.4-.8 0-1.6 0-2.5-.1v-13.1h8c1.1.1 2.1.4 2.7.6.6.3 1.2.7 1.9 1.2.9-.8 1.8-1.3 2.8-1.5 1-.2 1.9-.3 2.6-.3h15.2c2.2.2 4.1.6 5.6 1.2 1.9.7 3.5 1.7 4.9 2.7 1.4 1.1 2.5 2.3 3.3 3.4 1.7 2.5 2.8 4.9 3 7.1 0 .1 0 .9.1 2.1.1 4.4.1 5.5.1 7.8 0 .4-.1.7-.3 1-.4.4-1.1.7-2.2.9-.6.1-1.5.2-2.6.3.5.1 1.4.4 2.6.8 1.4.2 2.3.7 2.7 1.3zM347 137.7c0-.7-.3-1.3-.8-1.8-.3-.3-.8-.6-1.5-.7-.6-.1-1.7-.2-3.4-.3h-8.2v10c4.4.1 6.6.2 11.1.4 1.2.1 2-.1 2.5-.4.2-.1.3-.3.4-.5-.1-1.9-.1-2.9-.1-6.7zm-.8 20c.2-.2.3-.7.3-1.3v-6.7c0-.3-.1-.4-.2-.5-.4-.2-1.1-.4-2.1-.5-1.1-.2-2.2-.3-3.3-.3-3.1-.2-4.7-.3-7.8-.5v9.5c3.7.3 5.7.5 9.5.9.8.1 1.2.1 1.4.1 1.1-.1 1.8-.3 2.2-.7zm73.3-1.5c.4.3.8.7 1.2 1.1-.1-.1.8.4 2.7 1.7-1.9.3-3.3.8-4 1.4 0 .1-.1.4-.1.8s.1 1 .1 1.8.1 1.5 0 1.9v1.3c.1.6 0 1 0 1.3-.1 2.2.1 4.5.2 6.4 0 1.8-.3 3.6-1 5.2-1.2 2.5-3.3 4.5-6.2 5.7-4.1 1.7-8.8 1.7-14.1-.2-3.1-1.1-6.1-2.8-9.1-5.1-2.9-2.3-5.5-5-7.6-7.9-3-4-4.5-7.8-4.6-10.8-.1-4.9-.1-6.2-.2-8.9 0-.2-.1-.4-.2-.4-.6-.5-1.5-.9-2.7-1.4-.5-.2-.9-.3-1.1-.4 1.2-.1 2.1-.2 2.5-.3.6-.1 1-.2 1.1-.3.3-.2.4-.3.4-.3-.1-2.9-.1-4.1-.2-9.4-.1-2.7.9-5.7 3.2-8.8 1.6-2.2 3.9-4.3 6.8-5.9 3.3-1.9 6.9-2.9 10.7-2.9 3.1 0 5.9.7 8.5 1.9 2.4 1.1 4.6 2.6 6.4 4.3 2 1.8 3.5 3.8 4.7 6 1.3 2.2 2 4.5 2.1 6.7.1 2.1.1 5 .1 8.1.1 2.9.1 4.2.1 6.9.1.1.2.3.3.5zm-14.9 13.7c0-.2.1-.9.1-1.9-.2-13.8-.2-13.4-.4-27.4 0-.9-.1-1.6-.2-1.9-.5-1.1-1.4-1.9-2.8-2.6-1.4-.6-3-1-4.8-.8-2.1.2-3.7.9-4.7 2-.4.5-.6 1.1-.6 1.7.2 14.7.2 11.6.3 26.4 0 .5.4 1.1 1.1 1.9.5.6 1.1 1.1 1.6 1.6 1.2.9 2.6 1.7 4.1 2.2 1.8.6 3.4.7 4.8.3.9-.4 1.3-.9 1.5-1.5zm84.8-48.3V139c-2.4 0-3.9.2-4.4.5-.6.4-.8 1-.8 1.7 0 9.6 0 19.3.1 28.9.1.9.5 2.1 1.3 3.4.8 1.2 1.3 1.9 1.6 2.1.2.2.6.6 1.1 1.2-1.1.3-2 .7-2.6 1.3-.9.9-1.4 2-1.4 3.4 0 9.5 0 19.1.1 28.6 0 .7.2 1.4.7 2 .2.3.8.9 1.7 1.7-.2-.1.7.4 2.6 1.7V233c-2.8-1.9-4.2-2.8-7.2-4.7-1.7-1.3-3-2.3-3.7-3.1-.5-.6-1-1.3-1.6-2.1-1 .3-2.3 0-4-.8-.7-.3-1.3-.6-1.6-.9-5.4-18.8-11.5-37.5-19.2-55.6 0 9.9 0 14.6-.1 26.4 0 .4.1.8.4 1.2.7.9 1.3 1.5 1.9 1.8 1.2.6 1.8 1 3 1.6 0 6 0 9.2-.1 16.2-2.1-1.2-3.1-1.8-5.1-3-2-1.2-3-1.8-3.3-2-1.2-.9-2.2-1.6-2.8-2.3-.5-.5-1-1.2-1.5-2-.9.4-1.8.4-2.8.1-.6-.2-2.3-1-5.2-2.5-1.5-.8-2.2-1.2-3.7-2 0-7 0-9.9-.1-15.2 2 .9 3.1 1.4 3.1 1.4.9.3 1.4.2 1.6-.1.1-.2.2-.9.3-2 0-8-.1-11.1-.1-17.5 0-.9-.1-1.4-.2-1.6-.2-.6-.7-1.2-1.5-1.9-1-.8-1.8-1.4-2.4-1.8 1.1-.2 1.6-.3 1.7-.4.3-.1.9-.3 1.5-.8.5-.4.8-.9.8-1.4-.1-6.9-.1-10.3-.1-19.2 0-.9-.3-1.5-1.1-1.8-.4-.2-1.8-.4-4.1-.6 0-5.3-.1-8.2-.1-15.1h7.4c1.3.1 2.2.2 2.8.4.8.2 1.7.8 2.6 1.5.7-.6 1.3-1.1 2-1.3 0 0 1-.2 3.2-.5h2c5.1 16 11.4 31.5 17.1 47.3v-28.3c0-.5-.1-1.1-.5-1.8-.3-.3-1-.6-1.8-.7-.5-.1-1.4-.1-2.9-.2v-16.2h7.4c2.4.2 4.2.8 5.4 1.9.7-.6 1.3-1 2-1.2.4-.2 1.4-.4 3.2-.6h7.4z"/><path class="color-black color-reserved-gray" d="M170.4 469.5v2.8c-.1 2.5-.7 4.7-1.7 6.7-1.7 3.1-4 5.7-6.9 7.5-1.7 1.1-3.6 2-5.6 2.5-2.6.7-5 1-7.1.9-2.4-.1-4.9-.4-7.3-1.2-3.7-1.1-6.9-3.1-9.4-5.8-1.5-1.6-2.7-3.5-3.8-5.7-.9-2-1.5-4.3-1.8-6.8-.1-1.1-.2-2.9-.2-5.2-.1-12.9-.2-19.1-.2-18.4v-7.1c0-1.6-.1-2.5-.1-2.6-.3-1.5-.6-2.5-.8-3-.3-.6-1.4-1.8-3.2-3.8 1.7-.7 2.7-1.3 3.2-1.9.3-.4.5-.9.6-1.5.2-.9.3-1.4.3-1.5-.1-9.6-.1-14.3-.1-23.8 0-4.4.1-7.3.2-8.5.3-3.6 1.3-6.3 3-8.2 1-1.1 2.2-1.6 3.5-1.8 2.8-.1 5.6.7 8.4 2.5.6.4 2.2 1.3 4.4 2.9 1.9 1.4 3.7 2.9 5.4 4.6.9.9 1.7 1.8 2.4 2.7.5-.2 1.2-.1 2 .2.9.4 2.4 1.3 4.5 2.5 3.1 1.9 4.7 2.8 8 4.7.1 11.1.1 15.6.3 24.1-6.5-3.2-9.6-4.8-15.8-8-.2-4-.2-5.7-.2-5.1-.1-1.8-.8-3.4-2-4.9-1.1-1.4-2.6-2.8-4.7-3.9-1.8-1-3.1-1.1-3.9-.4-.8.6-1.2 2-1.3 4.1-.1.7-.1 2.6 0 5.6.3 16.3.7 32.7 1 49 .1 2.4.2 3.8.2 4 .3 2.3 1.3 4 2.8 5.1 1.7 1.3 3.6 1.8 5.5 1.4 1.4-.3 2.6-1 3.6-2.3.6-.8.9-1.7.9-2.7-.1-2.3-.1-3.4-.1-5.6 6.4.7 9.6 1 16.1 1.7-.1 1.6-.1 2.5-.1 4.2zm51.8-41.4c1.1.2 3.9 1 6.9 1.8 1.4.4 2.1.6 3.6 1v13.9c-1.4-.4-2.3-.6-2.8-.7-.7-.1-1.3-.2-1.6-.1-.2 0-.3.2-.5.4-.2.3-.2.5-.2.7v3.3c0 .2 0 .5.1.8v5.5c0 .4.1.9.1 1.6v1.5c0 .4.1.6.2.7.2.2.6.4 1.2.7-.1-.1.6.3 2.3 1-1 0-1.5.1-1.8.1-.9.2-1.5.4-1.7.5-.2.2-.4.5-.4.9v10.8c0 1.2-.2 2.4-.8 3.7-1.6 3.6-4.6 7.3-9 9.9-2.5 1.5-4.9 2.6-7.2 3.1s-4.7.8-6.8.5c-3.3-.4-6.3-1.4-8.9-3-1.4-.8-2.7-1.8-4-3-2.3-2-4-4.4-5.1-6.8-.9-1.9-1.4-3.9-1.4-5.9-.2-7.8-.3-10.9-.5-17.1-.1-.9-.2-1.5-.3-1.8-.2-.4-.7-.9-1.4-1.5 0 0-.9-.6-2.4-1.7 1.4-.3 2.5-.7 3.3-1.2.3-.2.4-.5.4-.7 0-1.1-.1-2.9-.1-5.5-.1-2.4-.1-4.4-.1-5.8 0-1.3.5-4.5-.1-8.2-.1-.3-.3-.8-.6-1.4-.2-.4-.7-.8-1.5-1.4-.3-.1-1.2-.6-2.7-1.4-.1-5.5-.1-8.5-.1-15.4 1.3.7 1.9 1.1 3.2 1.8 1.3.7 2.5 1.3 3.3 1.8 1 .6 2 1.3 2.6 1.8.7.6 1.5 1.6 2.3 2.7.6-.4 1.3-.6 1.9-.5.9.2 1.6.4 2 .5 2.8 1.4 4.2 2.1 7.2 3.4.2 6.9.2 9.7.4 14.6-1.4-.6-2.4-.8-2.9-.8-.7.1-1 .5-1 1.4.4 12.3 1.3 24.6 1.7 36.9 0 .7.4 1.5 1.2 2.2 1 .9 2.4 1.4 3.5 1.8.8.2 1.9.5 3.2.4 1.1-.1 2-.4 2.8-.9.5-.2.8-.3 1-.5 1.1-1 1.7-2 1.7-3-.4-10-1.1-20-1.4-30-.1-1.1-.2-1.8-.3-2.1-.3-.7-.7-1.3-1.4-1.8-.4-.3-1.4-.8-2.9-1.4-.2-4.8-.2-7.6-.4-14.5 2 .8 3 1.2 5.1 2.1 2.6.9 4.6 1.9 5.9 3 .7.6 1.4 1.2 2 1.8 1-.4 2.1-.7 3.2-.5zm83.7 12.2c0 11.8 0 14.7-.1 18.9-6.6-.1-9.9-.2-16.5-.4v-5.5c-3.2-.1-4.8-.2-8.1-.3 0 6.9 0 8-.1 10.4 0 .2.1.3.1.3.4.3.6.4.8.5.5.2 1.7.4 3.6.7-1.9.1-2.6.2-2.2.2-1.2.1-2 .3-2.2.7 0 0-.1.2-.1.5 0 2.2-.1 3.2-.1 8.8 0 .5.1.8.3 1 .2.2.8.4 1.7.6.2 0 1.3.1 3.3.1v13.4h-7.2c-1.2-.1-2.1-.2-2.8-.4-.8-.3-1.7-.8-2.5-1.5-.8.7-1.6 1.2-2.5 1.4-.6.2-1.6.4-2.9.5h-7.3v-13.4h3c.9-.1 1.6-.3 1.9-.6.3-.2.4-.5.4-.9v-9.7l-.4-.6c-.1-.2-.5-.4-1.2-.6-.1 0-1.1-.2-2.8-.6 1.5-.1 2.2-.2 2.1-.1 1.1-.1 1.7-.3 1.9-.5.3-.2.4-.4.4-.4v-11c-3.2-.4-4.9-.7-8.1-1.2v5.8c-6.7-1-10-1.6-16.6-2.9 0-5.1 0-8.2-.1-20 2.9.7 4.3 1.1 7.3 1.7 2.5.5 4.1.9 4.9 1.2 1.7.5 3.1 1.4 4.2 2.4 1-.7 2.7-.9 5-.8.6 0 1.7.4 2.1.2l.1-.1c.3-.1 1.5.3 2.6.4 1.1.2 2 .2 2.5.3-.3 0 2.8.4 9.2.8 3.1.2 5.3.4 6.6.6 1.6.2 2.9.8 3.8 1.7 1.1-.9 2.6-1.4 4.5-1.5h7c1.7-.1 2.6-.1 4.5-.1zm64.2 21.5c.4.1.7.2 1.1.3-.1 0 .8 0 2.7.2-1.9.6-3.3 1.2-4 1.7 0 0-.1.2-.1.5 0 .2 0 .6.1 1v2.7c-.1 1.3 0 3 0 4.4 0 1.4-.3 2.9-1.1 4.5-1.3 2.6-3.4 5.3-6.3 7.6-4.1 3.3-8.7 5.3-13.9 5.3-3 0-6-.6-8.9-1.9-2.9-1.3-5.4-3.3-7.6-5.5-3-3.1-4.5-6.4-4.4-9.1v-7.1c0-.1-.1-.2-.2-.3-.6-.3-1.5-.5-2.7-.6-.5-.1-.8-.1-1.1-.2 1.2-.2 2.1-.3 2.5-.4.6-.1 1-.2 1.1-.3.3-.2.4-.2.4-.3V457c-.1-2.3 1-5.2 3.4-8.3 1.6-2.2 3.9-4.4 6.8-6.2 3.3-2.1 6.9-3.4 10.7-3.8 3.1-.3 5.9 0 8.5.8 2.4.7 4.5 1.8 6.4 3.1 1.9 1.3 3.5 2.9 4.6 4.5 1.2 1.7 1.9 3.4 2 5v9.5c-.2 0-.1.2 0 .2zM355 474.2c0-.2.1-.7.1-1.6 0-10.8 0-6.7.1-17.7 0-.7-.1-1.2-.2-1.5-.4-.8-1.4-1.4-2.7-1.8-1.4-.4-3-.4-4.8-.1-2.1.4-3.7 1.2-4.7 2.3-.4.5-.6 1-.6 1.5V474c0 .4.4.8 1.1 1.3.5.4 1 .7 1.6.9 1.1.5 2.5.7 4 .7 1.7 0 3.4-.4 4.8-1.3.7-.2 1.1-.8 1.3-1.4zm66.5-58.5c1.3-.6 2.9-1.4 4.9-2.4 2-1 2.9-1.5 4.8-2.4v24c-6.3 2.6-9.6 3.9-16.3 6.4v-7.8c-4.8 2.1-7.3 3.1-12.2 5V454c2.4-.6 3.6-1 3.7-1 .9-.3 1.6-.6 2.1-1 .7-.4 1.1-.8 1.1-1.2v-1c4.8-1.5 7.3-2.2 12-3.7v2.6c0 1.3-.1 2.2-.2 2.5-.2.6-.6 1.2-1.4 1.9.7.2 1.2.6 1.4.9.2.4.3 1 .3 1.5v3.8c-4.8.8-7.2 1.1-12 1.9v-1c0-.4-.4-.6-1.2-.7-.9-.1-2 0-2.9.1-1.1.2-1.7.3-2.9.5v13.6c0 .4 0 .7.1.9.2.5.5.9.9 1 .2.1 1.6.1 4.1.1v14.5h-7.2c-1.2-.1-2.2-.2-2.8-.4-.9-.2-1.7-.8-2.5-1.5-.8.7-1.6 1.3-2.5 1.5-1 .3-2.6.4-4.6.4h-5.4v-13.9c2.4-.1 3.6-.1 3.7-.2.6-.1 1-.4 1.2-.7.1-.2.3-.8.3-1.6v-11.1c0-.6-.1-.9-.2-1-.2-.2-.6-.5-1.2-.6-.3-.1-1.3-.1-3.1-.2 1.4-.5 2.2-.8 2.5-.9.9-.4 1.5-.8 1.7-1.1.2-.4.4-.7.4-.7v-12.4c0-.4-.2-.7-.5-.8-.4-.1-1-.1-1.9.1-.4.1-1.3.4-2.7.8v-14c5.3-1.7 7.6-2.6 7.1-2.4 1.3-.4 2.3-.6 2.9-.6.7 0 1.5.2 2.2.6.8-1.1 1.8-2.1 2.7-2.7.9-.6 3-1.5 6-2.8.8-.3 1.2-.5 2-.8.9-.4 1.8-.9 2-.9.1 0 .2.1.3 0 1.1-.5 2.4-1 3.7-1.4 1.3-.4 2.4-.5 3.2-.1 1.4-2.1 3.6-3.7 6.4-5.1zm57.7-34.1c1.2-1 2.9-2.2 4.8-3.8 1.9-1.5 2.8-2.3 4.6-3.8v30.4c-6 4.1-9.4 6.1-16.1 10 0-4.5 0-6.7.1-11.3-4.9 3.2-7.4 4.7-12.5 7.7V436c2.5-1 3.7-1.5 3.8-1.6.9-.5 1.6-1.1 2.2-1.6.7-.6 1.1-1.4 1.1-2.2v-1.9c4.9-2.2 7.4-3.4 12.1-5.8v4.8c0 2.4-.1 4-.3 4.8-.2 1.1-.6 2.3-1.5 3.5.7.5 1.2 1.2 1.4 1.9.2.9.3 1.9.3 2.9v7c-4.7 1.2-7.2 1.8-12 2.9v-2c0-.7-.5-1.2-1.2-1.4-.9-.3-2-.2-3 0-1.2.3-1.7.5-2.9.8v22.7c0 .6 0 1 .1 1.2.2.7.5 1.1.9 1.3.2.1 1.6.1 4.1.1v16.4H458c-1.2-.1-2.2-.2-2.8-.4-.9-.2-1.7-.8-2.5-1.5-.8.8-1.6 1.3-2.5 1.5-1 .3-2.6.4-4.6.4h-5.4c0-6.9 0-10-.1-15.5 2.4-.1 3.6-.2 3.7-.2.6-.1 1-.5 1.2-.9.1-.3.3-1.1.3-2.2-.1-8.3-.1-11.8-.2-18.8-.1-1.2-.1-1.9-.2-2.1-.2-.5-.6-1-1.2-1.4-.3-.2-1.4-.4-3.2-.6 1.4-1 2.3-1.6 2.5-1.8.9-.8 1.5-1.5 1.7-2.2.3-.9.3-1.4.3-1.5-.1-7.9-.1-11.7-.2-21.1 0-.6-.2-.9-.6-1-.4-.1-1.1-.1-1.9.3-.4.2-1.4.6-2.7 1.3 0-5.6-.1-8.6-.1-15.6 5.2-2.8 7.8-4.3 7.2-4 1.3-.6 2.3-1.1 3-1.3.8-.2 1.6-.2 2.3.1.9-1.3 1.8-2.5 2.8-3.3 1-.8 3.1-2.2 6.3-4.2.8-.5 1.2-.8 2-1.3.9-.6 1.8-1.4 2.1-1.4 0 0 .2 0 .3-.1 1.1-.8 2.4-1.6 3.8-2.3 1.3-.7 2.4-1 3.2-.8 1.7-1.9 3.9-4.1 6.7-6.3z"/></svg>