<svg xmlns="http://www.w3.org/2000/svg" viewBox="0 0 612 612"><circle class="color-violet color-main" fill="#502f85" stroke="#000" stroke-miterlimit="10" cx="306" cy="306" r="282.7"/><circle fill="#fff" stroke="#000" stroke-miterlimit="10" cx="306" cy="307.9" r="195.7"/><path class="color-gold" fill="#d09e2b" d="M291.3 408.2c.1-9.9.2-19.9.4-29.9.2-3.7.5-7.5.7-11.2.1-8.3.1-16.5.2-24.8v-2.1c.1-.7.1-1.4.2-2.1.1-1.3.2-2.5.3-3.8V332c.9-2.6-.8-3-2.7-2.9-2.5.1-3.8-.9-4-3.4v-16.5c.1-.7.1-1.4.1-2.1 1.3-3.2-1-2.8-2.8-2.8-9.9.1-19.8.3-29.7.3-3.3 0-5.1 1.3-5.6 4.5-.3.3-.6.7-.9 1-10.2 16.2-20.4 32.3-30.6 48.4-.4.7-.8 1.4-1.3 2.1-.4.5-.9 1-1.2 1.6-.8 1.3-1.4 2.6-2.1 4 1.5.2 2.9.5 4.3.5 20.6.1 41.2.1 61.8.1.1 4.1.1 8.3.1 12.4l-.1.1H193c-4.6 0-4.7-.1-2.3-4.1 9.6-15.4 19.3-30.8 29-46.1 4.5-7.2 9-14.4 13.4-21.6.3-.6.2-2.3 0-2.3-4.1-1.2-7.6.3-9.9 4.1-3.3 5.4-6.6 10.7-9.9 16-11.3 18-22.6 35.9-33.8 54-1.3 2.1-2.4 4.3-3.7 6.5 2.6.2 5.3.5 7.9.5 29 0 58-.1 86.9 0 8.7 0 7.6-1.5 7.9 7.9.2 4.1-1.3 4.8-4.9 4.8-8.7-.2-17.5.1-26.2.2h-32.9c-13 0-26.1 0-39.1-.1h-20.5c-1.2-.4-3.9.7-1.8-2.5 8.1-12.6 15.9-25.3 24-37.9 10.3-16.2 20.6-32.4 30.9-48.7.6-.9.8-2.2 1.1-3.3-1 .1-1.9.2-2.9.3-9 .8-18 1.6-27 2.3-1.2.1-3.1-.7-3.4-1.6-.7-1.6-.8-3.7 1.6-4.7 6-2.3 11.9-4.9 17.9-7.1 3.7-1.3 7.4-2.3 11.2-3.4.6-.3 1.3-.5 1.9-.8l.1-.1c2.6-.9 5.2-1.7 7.9-2.6.5.1.9.2 1.3.3 2.4-.6 4.8-1.2 7.2-1.9 1-.1 2.1-.2 3.1-.3.6-.2 1.3-.5 2-.7l3-.3c.7-.2 1.5-.5 2.2-.8.7-.1 1.4-.1 2.1-.2 1.3-.3 2.7-.6 4.1-.9.3-.1.7-.1 1-.2l5.1-.9c.7-.1 1.4-.1 2-.2 4.8-.6 9.6-1.2 14.4-1.9 2.4-.1 4.8-.2 7.3-.3 3.7-.2 7.4-.5 11.2-.6 3.4-.2 7.9 1 9.9-.6 1.8-1.5 1.2-6.3 1.2-9.6.1-2.4.9-3.3 3.3-3.3 5.5.1 11-.1 16.5-.2h2.1c2.6-.1 3.7 1 3.5 3.7-.2 2.2-.2 4.5.1 6.6.2 1.9 1 3.3 3.5 3.4 6.5.1 12.9.6 19.4.8 1.3.1 2.6-.2 4-.4-.5-1.3-1.1-2.7-1.7-4.1-.1-.2-.5-.4-.8-.6-3.4-5.5-6.9-11-10.3-16.5-3.1-4.8-6.2-9.7-9.2-14.5-.1-.3-.2-.7-.2-1-.3-.3-.5-.6-.8-1-2.4-3.5-4.8-6.9-7.2-10.4l-1-1c-.7-1.7-1.4-3.3-2.2-5l-.1-.1c-1.5-2.6-3-5.3-4.7-7.9-.2-.4-2.2-.3-2.4.1-3.2 4.9-6.3 9.9-9.4 15-1.7 2.7-3.4 5.5-5.2 8.2-2.4 3.8-4.8 7.6-7.2 11.3-1.4 2-2.7 4.1-4.1 6.2-1.7 2.7-3.5 5.5-5.2 8.2s-3.4 5.5-5.2 8.3c-1 .1-2 .1-3 .2l-5.1.9c-1 .1-2 .2-3.1.2-1.7-.1-3.4-.2-5.2-.3 0-.3 0-.6.1-.9l.9-1.2v-.1c1-1.7 2.1-3.4 3.1-5.1 7.5-11.6 15-23.1 22.4-34.7 8.4-13.1 16.7-26.2 24.9-39.3 1.9-3 2.9-2.6 4.5.2 1.7 3.1 3.8 6 5.7 9.1 8.3 12.9 16.6 25.8 24.8 38.7 7.4 11.6 14.6 23.4 21.7 35.2 2.4 4 5.6 5.8 10.2 5.2 1.8-.2 2-.8 1.1-2.2-1.9-2.8-3.8-5.6-5.6-8.5-19.5-30.8-39-61.6-58.4-92.5-1.5-2.4-2-3.1-3.8-.1-14.1 22.5-28.5 45-42.7 67.4-3.8 6-7.4 12.2-11 18.3-.3.3-.6.7-.9 1.1l-.1.1c-.2.3-.4.5-.6.8-.1.3-.3.8-.4 1.1-.7.9-1.7 1.7-2.1 2.8-2.3 6.1-7.3 7.9-13.1 8.6-1.1.1-2.2.6-3.3.9-1.3-.1-2.7-.3-4-.4.5-1.2.8-2.6 1.5-3.7l51-80.1 25.5-40.2c2.6-4.1 2.7-4.1 5.1-.2 10.2 16.3 20.4 32.7 30.6 48.9 13.4 21.1 26.9 42.2 40.3 63.3 3.1 4.9 6.2 9.8 9 14.8 1.3 2.4 2.9 3.8 5.6 4.7 12.4 3.7 24.9 7.6 37.3 11.5 1.7.5 3.4 1.3 5.1 2 .3 6.2.3 6.2-5.5 6-2-.1-4-.5-6-.7-4.2-.3-8.4-.7-12.6-1-.5 0-1-.1-1.6-.1-1.7-.1-3.5-.1-5.2-.2l-21.6-1.8h-3.1c-4.5 0-9 0-13.4-.1-12.5-.3-25-.6-37.5-1-3.5-.1-4.9 1.1-4.8 4.8.2 5.3 0 10.6.1 15.9 0 2.3-.4 4.2-3.3 4-4-.2-3.9 2.4-3.7 5.1.3 2.7.6 5.4.7 8.1.1 6.9.2 13.7.1 20.6-.1 2.7.5 4 3.6 4 24.5-.1 49.1-.1 73.6-.1 3.8 0 4-.2 1.8-3.5-8.9-13.9-17.8-27.8-26.8-41.6-.3-.6-.6-1.3-.9-2l-.1-.1c-.3-.3-.6-.7-.9-1-.1-.3-.2-.6-.3-1-.2-.3-.5-.7-.8-1s-.6-.8-.9-1.1c-.4-1.1-1-2.2-1.2-3.3-.1-.5.7-1.7 1-1.7 4.9.1 9.9-.9 14.4 2 .1.3.2.6.3 1 .2.3.5.6.7 1v.1c.3.3.6.8.9 1.1l.1-.1c2 3.4 4.1 6.9 6.2 10.3.3.3.6.7 1 1 .1.3.2.7.3 1 .2.3.5.6.8 1l4.2 7.2c.6.7 1.3 1.5 1.9 2.2 1 2 2.2 4 3.2 6l.1.1 3 4.2c4.8 7.6 9.6 15.1 14.4 22.7.7 1.3 1.5 2.6 2.2 3.8.4.5.8.9 1.2 1.3l-1.2 3.3c-1.4 0-2.7 0-4.1.1h-17.6c-13.3-.1-26.6-.2-40-.2-11.6 0-23.2-.1-34.8.1-1.5 0-4-1.3-4.2 1.9 0 1-.1 2-.1 3.1.2.4.5.8.7 1.2v-.1c1.3.2 2.6.7 3.9.7 32.5.1 65 .1 97.5.1 1.3 0 2.6-.5 3.8-.8 2 .1 4 .4 6 .3 4-.1 4.2-.5 2.2-3.8-7.5-11.9-15.1-23.8-22.6-35.7-1-1.3-2.1-2.7-3.1-4l-1.2-1.2-.9-3-.1-.1c-.3-.3-.6-.8-.9-1.1 0-.3-.1-.6-.3-.9-.6-.6-1.2-1.3-1.8-2-.4-.8-.8-1.5-1.2-2.2-.6-1-1.3-2.1-1.9-3.1-.3-.7-.7-1.4-1-2.1-.7-1-1.4-2-2.1-3.1-.3-.6-.7-1.3-1-1.9l-.1-.1c-.3-.3-.6-.6-.9-1-.3-.3-.6-.8-1-1.1-1-1.7-2.1-3.4-3.1-5.1-.3-1.8-.2-3.3 2.3-3.1 2 .1 4-.1 5.9-.2 1.3 0 2.7 0 4.1.1 1 .8 2.2 1.5 2.8 2.4 2.9 4 5.6 8.1 8.4 12.2 1.5 2.5 3.1 5 4.6 7.5l.2.3c0 .2.1.3.3.4 2.1 3.4 4.2 6.9 6.3 10.3 5.8 9.2 11.5 18.6 17.3 27.8 4.8 7.7 9.8 15.3 14.5 23 2.1 3.4.2 4.6-3 4.8-1.5-.3-2.8-.9-4.3-.9-41.9-.1-83.7-.1-125.6-.1-4.9 0-4.9.1-4.6 5.2.1 1.7.2 3.4.2 5.1.2 3.1.3 6.2.5 9.3l.3 29.8c.1 1 .1 2.2.2 3.2v2.1l-.3 3c-.5.2-.9.5-1.3.6-4.4 0-8.7-.1-13.1-.1-5.2 0-10.5-.1-15.7-.1-.3-1.6-.9-3.2-.9-4.8-.2-3.4-.1-6.8-.2-10.2.1-7.9.1-15.8.2-23.7.1-.4.1-.8.2-1.3l.3-8.1c.3.8.4.5.2.2z"/><path fill="#f9f3eb" d="M247.4 399.2c8.7-.1 17.5-.3 26.2-.2 3.7.1 5.1-.7 4.9-4.8-.3-9.5.8-7.9-7.9-7.9-29-.1-58 0-86.9 0-2.6 0-5.3-.3-7.9-.5 1.2-2.2 2.4-4.4 3.7-6.5 11.3-18 22.6-35.9 33.8-54 3.3-5.3 6.6-10.6 9.9-16 2.3-3.8 5.8-5.3 9.9-4.1.2.1.3 1.7 0 2.3-4.4 7.3-9 14.4-13.4 21.6-9.7 15.4-19.4 30.7-29 46.1-2.4 4-2.3 4.1 2.3 4.1h85.4c-.6 1.8-2.5 3.3.3 5.3 4.7 3.3 2.1 8.8 2.7 13.3.1 1-4.1 3.6-6.3 3.7-8.1.5-16.3.1-24.5.2-2 .2-3.3-.4-3.2-2.6z"/><path fill="#f9f4d9" d="M321 404c-.3-5.1-.3-5.2 4.6-5.2 41.9 0 83.7.1 125.6.1 1.5 0 2.8.6 4.3.9-20 0-40.1 0-60.1.1-2.5 0-5.7-1-6.3 3.1-.1.5-2.1.9-3.2.9-13.7.1-27.4.1-41.1.1-.7 0-1.4.1-2-.1-.3-.1-.6-.6-.9-.9.3-.3.7-.8 1-.8 1.2-.1 2.4-.1 3.6-.1h28.3c1.2 0 2.4.1 3.6-.1.5-.1.9-.7 1.4-1-.5-.3-1-.8-1.6-.9-1.2-.1-2.4-.1-3.6-.1-14 0-28.1.1-42.1-.1-4.5 0-8.9-.6-11.5 4.1z"/><path fill="#f9f3eb" d="M216.8 358.7c10.2-16.2 20.4-32.3 30.6-48.4 1.6 3.3-.3 5.7-2 8.3-2 2.9-3.4 6.1-5.2 9.1-1.1 1.9-2.4 3.7-3.7 5.5-1.9 2.7-4 5.4-5.9 8.1-3.7 5.4-7.2 10.8-10.8 16.1-.6.6-2 .8-3 1.3zm61.5 8.2c-20.6 0-41.2 0-61.8-.1-1.5 0-2.9-.3-4.3-.5.7-1.3 1.4-2.7 2.1-4 .3-.6.8-1 1.2-1.6.2 3.6 2.6 4.1 5.6 4.1 17.4-.1 34.8-.1 52.2 0 1.9.1 4.4-1.1 5 2.1zm-29.9-57.7c.5-3.2 2.3-4.5 5.6-4.5l29.7-.3c1.8 0 4.2-.3 2.8 2.8h-20.8c-5.9 0-11.8-.6-17.3 2z"/><path fill="#f9f5dd" d="M412.8 307.5c4.2.3 8.4.6 12.6 1 2 .2 4 .7 6 .7 5.8.1 5.8.1 5.5-6 2.3.1 2.1 1.6 2 3.3-.1 1.5.1 3 .1 4.5 0 1.7-.2 2.3-2.3 1.4-2.2-.9-4.9-.6-7.4-.9-3.3-.4-6.8 1.2-9.7-1.6-.4-.4-2 0-2.7.5-.9.6-1.5 1.6-2.2 2.5-1.6-1.7-3.3-3-1.9-5.4z"/><path fill="#f9f6eb" d="m247.4 283.4-5.1.9c-.6-.8-1.3-2.3-1.9-2.3-3.5-.1-6.9.2-10.4.5 1.1-.3 2.2-.8 3.3-.9 5.9-.6 10.9-2.4 13.1-8.6.4-1 1.4-1.9 2.1-2.8-.5 3.1-.1 7.2-1.9 9-2.6 2.7-1.1 3.1.8 4.2z"/><path fill="#f9f5dd" d="M415.3 325.8c-2.8-4.1-5.6-8.2-8.4-12.2-.7-1-1.9-1.6-2.8-2.4.7-1.3 1.4-2.7 2.1-4 1.7.1 3.5.1 5.2.2-1.2 1.2-3.5 2.5-3.4 3.7 0 1.5 2.1 2.9 2.9 4.5 1.5 3.4 2.9 6.8 4.4 10.2z"/><path fill="#f9f4d9" d="M290.5 442.1c.1 3.4 0 6.8.2 10.2.1 1.6.6 3.2.9 4.8l-2.7-.3c.7-2.8-3.6-5.1-.6-8.3.6-.6-.1-2.6-.5-3.8-.5-2.4 1.1-2.6 2.7-2.6z"/><path fill="#f9f3eb" d="M286.4 325.7c.2 2.4 1.5 3.5 4 3.4 1.9-.1 3.5.3 2.7 2.9-1.8-.1-3.7.2-5.5-.2-1.1-.2-2.7-1.3-2.7-2.2-.1-1.2.9-2.6 1.5-3.9zm-71.9 73.4h11.4c-.1.5-.1 1.5-.2 1.5-2.5.5-5.1 1.3-7.6 1.2-1.2-.1-2.4-1.8-3.6-2.7zm64-19.8c-.1-4.1-.1-8.3-.1-12.4.5.1 1.2.1 1.5.4 2.3 2.9 1.6 9.1-1.4 12z"/><path fill="#f9f4c4" d="M426.6 344.3c-2.1-3.4-4.2-6.9-6.3-10.3.4 0 .8 0 1.2-.1 3.8 2.5 6.1 5.6 5.1 10.4z"/><path fill="#f9f3eb" d="M154.8 399h20.5-20.5z"/><path fill="#f9f6eb" d="M224.8 287.6c-2.4.6-4.8 1.2-7.2 1.9 1.4-4.8 1.4-4.8 7.2-1.9zm-8.6 1.5c-2.6.9-5.2 1.7-7.9 2.6-.2-2.8.1-4.9 3.9-3.3 1.2.5 2.7.5 4 .7z"/><path fill="#f9f4d9" d="M321.7 418.4c-.2-3.1-.3-6.2-.5-9.3 2.5 3 1.7 6.1.5 9.3z"/><path fill="#f9f3eb" d="M235.1 399.1h6.2c.2 2.3-1 2.8-3.1 2.8-2.1.1-3.3-.5-3.1-2.8zm57.3-32.1c-.2 3.7-.5 7.5-.7 11.2-2.2-3.9.4-7.5.7-11.2z"/><path fill="#f9f5dd" d="M419.8 333.3c-1.5-2.5-3.1-5-4.6-7.5 2.9 1.7 5.4 3.6 4.6 7.5z"/><path fill="#f9f4d9" d="M307.3 457.1c4.4 0 8.7.1 13.1.1-4.3-.1-8.7-.1-13.1-.1z"/><path fill="#f9f3eb" d="M292.6 340.1v2.1c-1.5-.3-3-.7-4.4-1 1.4-.4 2.9-.7 4.4-1.1z"/><path fill="#f9f4d9" d="M322.1 451.4c-.1-1-.1-2.2-.2-3.2 2.3 1 2.4 2 .2 3.2z"/><path fill="#f9f6eb" d="M235.1 285.5c-.7.2-1.5.5-2.2.8.8-.3 1.5-.5 2.2-.8zm6.1-1c-1.3.3-2.7.6-4.1.9 1.4-.3 2.8-.6 4.1-.9z"/><path fill="#f9f3eb" d="M293 334.3c-.1 1.3-.2 2.5-.3 3.8.2-1.3.3-2.6.3-3.8z"/><path fill="#f9f4d9" d="m321.8 456.5.3-3-.3 3z"/><path fill="#f9f6eb" d="M229.9 286.6c-.6.2-1.3.5-2 .7.7-.3 1.3-.5 2-.7zm-21.6 5.1c-.6.3-1.3.5-1.9.8.5-.2 1.2-.5 1.9-.8z"/><path fill="#f9f5dd" d="M421.5 334c-.4 0-.8 0-1.2.1-.2-.1-.3-.2-.3-.4.5 0 1 .2 1.5.3z"/><path fill="#f9f3eb" d="M291.3 408.2c.2.3.1.6-.2.9-.1-.2-.1-.5-.1-.6.1-.2.2-.3.3-.3zm-.5 8.9c-.1.4-.1.8-.2 1.3.1-.5.2-.9.2-1.3zm-4.4-107.8v1c-.1-.2-.2-.5-.3-.8-.1 0 .2-.1.3-.2z"/><path fill="#f9f6eb" d="M250.5 267c3.7-6.1 7.3-12.3 11-18.3 14.2-22.5 28.6-44.9 42.7-67.4 1.9-3 2.3-2.3 3.8.1 19.4 30.8 38.9 61.6 58.4 92.5 1.8 2.8 3.8 5.6 5.6 8.5.9 1.4.7 2-1.1 2.2-4.7.6-7.8-1.3-10.2-5.2-7.2-11.8-14.4-23.5-21.7-35.2-8.2-13-16.6-25.8-24.8-38.7-1.9-3-4-5.9-5.7-9.1-1.5-2.7-2.6-3.3-4.5-.2-8.2 13.1-16.6 26.2-24.9 39.3-7.4 11.6-14.9 23.1-22.4 34.7.5-2 .9-3.9 1.3-5.9.1-.6.1-1.2.1-1.9-.5.3-1.3.4-1.5.8-1.1 2.9-3.6 3.3-6.1 3.8z"/><path fill="#fafaee" d="M384.5 315.4h3.1c.7-.7 1.3-1.4 2-2 .7.3 1.4.7 2.1 1 .1 2.3.1 4.6 3.1 5.1.3.3.6.8 1 1.1.3.3.6.6.9 1l.1.1c.3.6.7 1.3 1 1.9.7 1 1.4 2 2.1 3.1.3.7.7 1.4 1 2.1.6 1 1.3 2.1 1.9 3.1.4.8.8 1.5 1.2 2.2.6.6 1.2 1.3 1.8 2 .2.3.2.6.3.9.3.3.6.8.9 1.1l.1.1.9 3 1.2 1.2c0 1.3.1 2.6.1 4-.1.6-.1 1.2-.2 1.7.4-.6.8-1.2 1.2-1.7h2c7.6 11.9 15.1 23.8 22.6 35.7 2 3.3 1.8 3.7-2.2 3.8-2 .1-4-.2-6-.3-35.1.1-70.1.1-105.2.1v.1c-.2-.4-.5-.8-.7-1.2 0-1 .1-2 .1-3.1h2.8c1.1.7 2.3 1.9 3.4 2 8.7.2 17.4.2 26.2 0 1.2 0 2.3-1.3 3.4-2 1.6-.3 3.2-.9 4.8-1 11.2-.1 22.3 0 33.4-.1 1.6 0 3.3-.5 4.9-.8h6.3c3.1.6 6.2 1.3 9.2 1.7.6.1 1.3-1 2-1.6 1.4 0 2.7 0 4.1-.1.8.5 1.6.9 2.4 1.4.2-.8.7-1.6.5-2.3-.3-.9-1.1-1.6-1.7-2.4-.4-.5-.8-.9-1.2-1.3 0-1.2 0-2.3-.1-3.5-.1-4-1.5.1-2.1-.3-4.8-7.6-9.6-15.1-14.4-22.7.1-2.2.3-4.4-3-4.2l-.1-.1c1-3.1.2-5.3-3.2-6-.6-.7-1.3-1.5-1.9-2.2l-4.2-7.2c-.2-.3-.5-.6-.8-1-.1-.3-.2-.7-.3-1-.3-.3-.6-.7-1-1-1.8-3.5-3.8-7-5.8-10.4z"/><path fill="#f9f6eb" d="M290.7 266c2.7-.7 5.5-1.4 8.2-2.1h6.1c.3 2.8 2.5 1.8 4.1 2h1c1 .3 2 .5 3 .8-5.5.1-11 .2-16.5.2-2.4-.1-3.3.8-3.3 3.3-.1 3.3.6 8.1-1.2 9.6-2 1.7-6.5.5-9.9.6-3.7.2-7.5.5-11.2.6.9-2.4 2.8-2.7 5.2-2.8 4.8-.1 9.5-.6 14.2-.9 1.1-.8 3-1.3 1-3.1-.3-.7-.7-1.4-1-2 .3-2.1.3-4.1.3-6.2z"/><path fill="#faf2dc" d="M323.7 381.4h-2.8c.2-3.3 2.7-1.9 4.2-1.9 11.6-.1 23.2-.1 34.8-.1 13.3.1 26.6.1 40 .2-1.6.2-3.3.7-4.9.8-11.2.1-22.3 0-33.4.1-1.6 0-3.2.6-4.8 1-11.2-.2-22.2-.1-33.1-.1z"/><path fill="#f9f6eb" d="M343.2 276.3c.3.2.7.3.8.6.6 1.3 1.1 2.7 1.7 4.1-1.3.1-2.6.5-4 .4-6.5-.2-12.9-.7-19.4-.8-2.6-.1-3.3-1.5-3.5-3.4-.2-2.2-.2-4.4-.1-6.6.2-2.7-.9-3.8-3.5-3.7v-2.8h4.1c1.3 4 3 7.9 1.7 12.3-.1.5 1.4 2 2.2 2 5.8.2 11.5.2 17.3 0 .8 0 1.6-1.2 2.4-1.8l.3-.3z"/><path fill="#faf2dc" d="M321.5 385.6c35.1-.1 70.1-.1 105.2-.1-1.3.3-2.6.8-3.8.8-32.5.1-65 0-97.5-.1-1.3 0-2.6-.4-3.9-.6z"/><path fill="#fbfaf1" d="M389.5 311.3c-2-1.5-5.2-1.6-5.1-5.1 7.2.3 14.4.6 21.6 1-.7 1.3-1.4 2.7-2.1 4-1.3 0-2.7 0-4.1-.1-.6-2.9-3-1.9-4.5-1.7-1.9.3-3.9 1.2-5.8 1.9z"/><path fill="#f9f6eb" d="M249.5 283.3c1-2 2.1-4 3.1-5.9 1.7.1 3.4.2 5.2.3-.1 1.7.4 2.8 2.4 2.8 1.2 0 2.4.6 3.7.9-4.8.6-9.6 1.2-14.4 1.9zm83.4-23.5c3.4 5.5 6.9 11 10.3 16.5l-.2.2c-3.7-.6-4.8-4.1-7-6.3-.3-.7-.7-1.4-1-2-.7-1.4-1.4-2.7-2-4.1-.1-1.3-.1-2.6-.2-4l.1-.3z"/><path fill="#f9f6eb" d="M329.9 258.8c-3.1-4-5.3-8.4-6.2-13.4 3.1 4.8 6.2 9.7 9.2 14.5l-.2.2c-.9-.5-1.9-.9-2.8-1.3z"/><path fill="#f8f1c4" d="M368 315.4c-2.7-.3-3.4-2.5-2.8-4.5.2-.9 2.6-1.5 4.1-1.6 3.4-.2 6.8.1 10.2-.1 2.3-.1 3.1 1 2.9 3.1-4.5-2.9-9.5-2-14.4-2-.3 0-1.2 1.2-1 1.7 0 1.2.6 2.3 1 3.4z"/><path fill="#f9f5dd" d="M406 307.2c-7.2-.3-14.4-.6-21.6-1v-.8l21.6 1.8z"/><path fill="#f9f6eb" d="M290.7 242.3c0 .3.1.7.1 1-1.7 3.4-3.5 6.9-5.2 10.3-.6.1-1.3.1-1.9.2l-.2-.2c2.4-3.8 4.8-7.6 7.2-11.3z"/><path fill="#fbfaf1" d="M381.3 305.4c-.6.6-1.3 1.7-2 1.7-3.1.2-6.3.2-9.5 0-.7-.1-1.3-1.2-1.9-1.7 4.5-.1 8.9 0 13.4 0z"/><path fill="#f9f5dd" d="M389.5 311.3c1.9-.7 3.8-1.6 5.8-1.9 1.6-.2 4-1.2 4.5 1.7-2 .1-4 .3-5.9.2-2.6-.2-2.6 1.3-2.3 3.1-.7-.3-1.4-.7-2.1-1 .1-.7 0-1.4 0-2.1z"/><path fill="#f9f6eb" d="M279.4 259.8v4.1c-.7 1.4-1.4 2.7-2 4.1-1 .1-2 .1-3 .2l-.2-.2c1.7-2.7 3.4-5.4 5.2-8.2z"/><path fill="#f9f6eb" d="M273.2 273.2c-1.4 1-2.8 2-4.2 3.1 1.7-2.7 3.4-5.5 5.2-8.3l.2.2c-.4 1.7-.8 3.3-1.2 5z"/><path fill="#faf2dc" d="M417.4 379.6c-.7.6-1.5 1.7-2 1.6-3.1-.4-6.2-1-9.2-1.7 3.7.1 7.5.1 11.2.1z"/><path fill="#faf4d1" d="M398.8 338.1c3.4.8 4.2 2.9 3.2 6-1.1-1.9-2.1-4-3.2-6z"/><path fill="#f9f6eb" d="M253.6 275.2c.3-2.2-1.2-5.4 3.1-5.1-1 1.7-2 3.4-3.1 5.1zm12.4 1.3c-1.2 3-3.1 2.3-5.1.9 1.7-.3 3.4-.7 5.1-.9z"/><path fill="#faf2dc" d="M422.7 376.2c.6.8 1.4 1.5 1.7 2.4.2.6-.3 1.5-.5 2.3-.8-.5-1.6-.9-2.4-1.4l1.2-3.3z"/><path fill="#f9f6eb" d="m283.5 255.7-4.1 4.1c1.4-2 2.7-4.1 4.1-6.2l.2.2c-.1.6-.1 1.3-.2 1.9z"/><path fill="#f9f5dd" d="M394.8 319.5c-3-.5-3-2.8-3.1-5.1 1 1.7 2 3.4 3.1 5.1z"/><path fill="#fbf3cf" d="M412.2 346.4h-3c0-1.3-.1-2.6-.1-4 1.1 1.3 2.1 2.6 3.1 4z"/><path fill="#faf2dc" d="M419.4 371.1c.6.5 2-3.7 2.1.3 0 1.2 0 2.3.1 3.5-.8-1.3-1.5-2.5-2.2-3.8z"/><path fill="#faf4d1" d="M402 344.2c3.3-.2 3 2 3 4.2l-3-4.2z"/><path fill="#faf2ca" d="M402.8 331.9c-.6-1-1.3-2.1-1.9-3.1.6 1 1.2 2.1 1.9 3.1z"/><path fill="#fbf6c6" d="m408 341.2-.9-3c.2.9.5 2 .9 3z"/><path fill="#faf4d1" d="M396.9 336c.6.7 1.3 1.5 1.9 2.2-.6-.8-1.3-1.5-1.9-2.2z"/><path fill="#fbf6c6" d="M405.8 336.1c-.6-.6-1.2-1.3-1.8-2 .6.7 1.2 1.3 1.8 2z"/><path fill="#faf2ca" d="M400.9 328.8c-.3-.7-.7-1.4-1-2.1.3.7.7 1.4 1 2.1z"/><path fill="#f9f5dd" d="M397.8 323.7c-.3-.6-.7-1.3-1-1.9.3.6.6 1.2 1 1.9z"/><path fill="#f8f1c4" d="M371.9 321.6c-.3-.6-.6-1.3-.9-2 .3.7.6 1.3.9 2z"/><path fill="#fbf6c6" d="M407 338.1c-.3-.3-.6-.8-.9-1.1.3.4.6.7.9 1.1z"/><path fill="#fbf7dd" d="M391.9 327.8c.2.3.5.6.8 1-.3-.4-.5-.6-.8-1zm-1.3-2.1c.3.3.6.7 1 1l-1-1z"/><path fill="#f9f5dd" d="M396.6 321.6c-.3-.3-.6-.6-.9-1 .3.4.6.7.9 1z"/><path fill="#faf2dc" d="M320.8 384.4c.2.4.5.8.7 1.2-.3-.3-.5-.7-.7-1.2z"/><path fill="#f9f6eb" d="m252.6 276.4.9-1.2c-.2.4-.5.8-.9 1.2z"/><path fill="#f8f1c4" d="M370.9 319.6c-.3-.3-.6-.7-.9-1 .3.3.6.7.9 1zm-1.2-2.1c-.2-.3-.5-.7-.8-1 .3.4.6.7.8 1zm13.8-3.1c.3.3.6.8.9 1.1-.3-.4-.6-.8-.9-1.1z"/><path fill="#f9f6eb" d="M250.5 267c-.3.3-.6.7-.9 1.1.3-.4.6-.7.9-1.1z"/><path fill="#f8f1c4" d="M382.7 313.3c.2.3.5.6.7 1-.2-.3-.5-.6-.7-1z"/><path fill="#f9f6eb" d="M249.5 268.2c-.2.3-.4.5-.6.8.2-.2.5-.5.6-.8z"/><path fill="#fbfaf1" d="M389.6 313.4c-.7.7-1.3 1.4-2 2 .6-.7 1.3-1.3 2-2z"/><path fill="#fcfcf1" d="M409.2 346.3h1c-.4.6-.8 1.2-1.2 1.7.1-.5.1-1.1.2-1.7z"/><path fill="#f9f6eb" d="M289.7 255.7c.3 1.4.7 2.7 1 4.1h-2v-2c.3-.7.6-1.4 1-2.1zm36 3.1c-1.7 1.7-1.9.3-2-1 .6.3 1.3.6 2 1z"/><path fill="#fff" d="M139 134.7c6.7 5.5 10.8 11.9 12.4 19.1 1.7 7.5.3 13.9-4.2 19.3l-25.3 30.5-5.7-4.7c1.6-1.9 2.5-4 2.6-6.1.1-2.2-.6-3.8-2-5L91 166.5c-1.4-1.1-3.1-1.5-5.3-1-2.1.5-4 1.7-5.6 3.6l-5.6-4.6L99.8 134c4.5-5.4 10.5-8 18-7.8 7.5.2 14.6 3 21.2 8.5zm-12.2 14.6c-5.5-4.5-10.2-7.3-14.1-8.4-5.1-1.4-9.4 0-12.8 4.1l-1.9 2.3 36.1 29.9 1.9-2.3c3.4-4.1 3.9-8.6 1.6-13.4-1.6-3.5-5.3-7.6-10.8-12.2zm94.8-31-54.3 32.4-3.8-6.3c2.2-1.3 3.9-3.1 5.1-5.4 1.2-2.3 1.3-4.1.4-5.7l-17.2-28.7c-.9-1.5-2.7-2.3-5.2-2.4-2.5 0-4.9.6-7.1 1.9l-3.7-6.2 54.3-32.4 11.4 19.1-6.6 3.9c-1.6-2.7-4.4-4.8-8.2-6.2-3.8-1.4-7-1.4-9.4.1l-12.1 7.3 9 15.1 3.4-2c3.2-1.9 3.7-4.5 1.7-7.8l-1.6-2.6 7.6-4.5 13.3 22.3-7.6 4.5-1.6-2.6c-2-3.3-4.6-4.1-7.7-2.2l-3.4 2 10.1 16.9 9.9-5.9c3.2-1.9 5.2-5.2 6-10 .7-4.4.2-8-1.5-10.9l6.6-3.9 12.2 20.2zm70.5-70.8-1.3.2c-2.5.5-4.5 1.5-6 3.1s-2.1 3.3-1.8 5.1l8.5 46.8-7.1 1.3-42.3-33.8 4.8 26.4c.3 1.8 1.5 3.2 3.4 4.2s4.1 1.2 6.6.8l1.3-.2 1.3 7.2-27.8 5.1-1.3-7.2 1.3-.2c2.5-.4 4.5-1.5 6-3.1s2.1-3.3 1.8-5.1l-6-32.9c-.3-1.8-1.5-3.2-3.4-4.1-2-1-4.2-1.3-6.7-.8l-1.3.2-1.3-7.1 25.7-4.7 32.8 26.9-3.3-18.4c-.3-1.8-1.5-3.2-3.4-4.1-2-1-4.2-1.3-6.6-.8l-1.4.3-1.3-7.1 27.5-5 1.3 7zM388 59.1l-3.5-.6c-4.5-.7-8.1 1-10.8 5L345 107.1l-13.2-2.1-9.9-49.5c-.9-4.8-3.3-7.5-7.2-8.2l-3.1-.5 1.2-7.1L352 46l-1.2 7.1-3.8-.6c-3.3-.5-5 .1-5.3 1.8-.2 1.1-.2 2.2 0 3.2l6.6 31.1 17.5-26.5c1-1.4 1.5-2.6 1.7-3.6.3-1.8-1-2.9-3.7-3.3l-5.5-.9 1.2-7.1 29.7 4.8-1.2 7.1zm47.8 85L380.1 114l3.5-6.5c2.3 1.2 4.7 1.8 7.2 1.6 2.5-.1 4.2-1 5.1-2.6l15.9-29.4c.9-1.6.7-3.5-.6-5.7-1.3-2.2-3-3.9-5.3-5.2l3.4-6.4L465 90l-10.6 19.6-6.7-3.7c1.5-2.8 1.9-6.2 1.1-10.2-.8-4-2.4-6.7-4.9-8L431.5 81l-8.4 15.5 3.5 1.9c3.2 1.7 5.8.9 7.6-2.5l1.4-2.7 7.8 4.2-12.3 22.8-7.8-4.2 1.4-2.7c1.9-3.4 1.2-6-2.1-7.8l-3.5-1.9-9.4 17.3 10.2 5.5c3.3 1.8 7.2 1.8 11.6 0 4.1-1.6 7-3.9 8.6-6.9l6.7 3.6-11 21zm69 54.9c-3.2 2.8-6.6 4-10 3.8-3.8-.3-7.2-2.2-10.4-5.9s-4.8-8-4.8-13c-.1-5 1.2-8.7 3.7-10.9l7.5-6.5c2.6-2.3 2.7-4.8.3-7.6l-4.7-5.5-11.6 10c-1.4 1.2-2 2.9-1.9 5.1.2 2.2 1.1 4.2 2.7 6.1l.9 1.1-5.6 4.8-25.9-30.2 5.6-4.8.8 1c1.6 1.9 3.5 3.1 5.7 3.6 2.1.5 3.9.1 5.3-1.1l25.3-21.9c1.4-1.2 2-2.9 1.8-5.1-.1-2.2-1-4.3-2.7-6.2l-.8-1 5.5-4.7 29.9 34.6c7.5 8.7 7.8 16.1.8 22.1-4.7 4-9.6 4.7-14.8 1.8.6 2.9.3 5.9-1 8.9-.9 2.2-2 3.9-3.4 5l-7 6.1c-.7.6-1.1 1.4-1.2 2.3-.1.9.2 1.7.7 2.3 1.3 1.5 2.8 1.6 4.5.1l4.8 5.7zm3.4-45.5c2.1-1.8 3.1-3.9 3.2-6.3 0-2.1-.6-3.9-1.9-5.3l-4.1-4.7-13.1 11.3 4.1 4.7c1.4 1.6 3.1 2.5 5.1 2.7 2.4.2 4.7-.6 6.7-2.4zM150.4 472.8c-4.5 3.8-9 5.4-13.4 4.7-3.7-.6-7.1-2.7-10.2-6.4l-10.4-12.4-10.3 8.7c-1.4 1.2-2.1 2.9-1.9 5.1.1 2.2 1 4.2 2.6 6.1l.9 1.1-5.6 4.7-25.7-30.5 5.6-4.7.8 1c1.6 1.9 3.5 3.1 5.6 3.7 2.1.5 3.9.2 5.3-1l25.6-21.6c1.4-1.2 2-2.8 1.9-5.1-.1-2.2-1-4.3-2.6-6.2l-.8-1 5.5-4.7 29.4 34.9c3.1 3.7 4.7 7.4 4.7 11.1-.1 4.5-2.4 8.6-7 12.5zm-11.6-14.3c2.3-1.9 3.6-4.2 4-6.6.3-2-.2-3.7-1.3-5.1l-4.6-5.5-14.7 12.4 4.6 5.5c1.3 1.5 3 2.2 5.2 2.2 2.3.1 4.5-.9 6.8-2.9zm58.8 96.3L162 533.5l3.8-6.3 3.5 2.1c3.1 1.8 5.4 1.5 6.9-.9.4-.7.7-1.5.8-2.3l.7-5.1-18-10.8-4.4 2.9c-.7.5-1.3 1.1-1.7 1.8-1.5 2.5-.7 4.6 2.4 6.5l3.5 2.1-3.8 6.3-26-15.6 3.8-6.3 2.6 1.6c3.7 2.2 7.6 1.9 11.6-.9l42.9-29.6 13.1 7.8-9.5 49.6c-.9 4.7.7 8.2 4.7 10.6l2.6 1.6-3.9 6.2zm-18.8-43.3 2.1-16-13.4 9.2 11.3 6.8zm98.6 27.8-7.4-1.7.6-2.5c1-4.6.6-8.8-1.3-12.6-1.9-3.8-4.7-6.2-8.4-7-3.8-.9-7.4 0-10.7 2.7-3.4 2.6-5.6 6.2-6.6 10.8l-2.3 10.2c-1 4.5-.6 8.7 1.3 12.5 1.9 3.8 4.7 6.2 8.5 7 3 .7 5.9.1 8.6-1.6 2.7-1.8 4.8-4.4 6.2-7.9l8.2 1.9c-1.4 6.3-5.1 11.1-11 14.2-5.9 3.2-12.3 4-19.3 2.4-8.4-1.9-14.9-6.6-19.5-14s-5.8-15.4-3.9-24c2-8.6 6.6-15.2 13.9-19.9 7.3-4.7 15.2-6.1 23.6-4.2 3.9.9 7.5 2.4 10.8 4.6 2.2 1.5 3.5 2.3 3.8 2.4 1.6.4 2.6-.1 2.9-1.6l8 1.8-6 26.5zm60 33.3-39.8 1.6-.3-7.3 1.3-.1c2.5-.1 4.6-.8 6.3-2.2 1.7-1.4 2.5-3 2.5-4.9l-1.4-33.5c-.1-1.8-1-3.3-2.8-4.6-1.8-1.3-4-1.8-6.5-1.7l-1.3.1-.3-7.2 39.8-1.6.3 7.2-1.4.1c-2.4.1-4.5.9-6.2 2.3-1.7 1.4-2.5 3-2.5 4.8l1.4 33.5c.1 1.9 1 3.4 2.8 4.6 1.8 1.2 3.9 1.8 6.4 1.7l1.4-.1.3 7.3zm75.6-61-7.3 2.5c-1-3-3.3-5.6-6.7-7.8-3.5-2.2-6.5-2.8-9.2-1.9l-13.4 4.5 5.7 16.7 3.8-1.3c3.5-1.2 4.6-3.6 3.3-7.3l-1-2.9 8.4-2.8 8.3 24.5-8.4 2.8-1-2.9c-1.2-3.7-3.6-4.9-7.1-3.8l-3.8 1.3 4.4 12.9c.6 1.7 2.1 2.8 4.6 3.4 2.5.6 4.9.4 7.4-.4l2.4 7-37.7 12.9-2.4-7c2.5-.8 4.5-2.2 6.1-4.2 1.6-2 2.1-3.8 1.6-5.5l-10.8-31.7c-.6-1.7-2.1-2.8-4.6-3.4-2.5-.6-4.9-.4-7.4.4l-2.3-6.9 59.9-20.3 7.2 21.2zm69.8-.6-32.5 23.1-4.3-6 1.1-.8c2.1-1.5 3.4-3.2 4.1-5.3.7-2.1.5-3.9-.6-5.4l-19.4-27.3c-1-1.5-2.7-2.2-4.9-2.3-2.2-.1-4.3.6-6.4 2.1l-1.1.8-4.2-5.9 32.5-23.1 4.2 5.9-1.1.8c-2 1.4-3.3 3.2-4 5.3-.7 2.1-.5 3.9.6 5.4l19.4 27.3c1.1 1.5 2.7 2.3 4.9 2.3s4.3-.7 6.3-2.1l1.1-.8 4.3 6zm28-81.5-4.7 5.9-2-1.6c-3.6-2.9-7.6-4.4-11.9-4.4-4.3 0-7.6 1.5-10 4.5-2.4 3-3.2 6.6-2.3 10.8.9 4.2 3.2 7.7 6.8 10.7l8.2 6.6c3.6 2.9 7.5 4.3 11.8 4.3 4.3 0 7.6-1.6 10.1-4.6 1.9-2.4 2.7-5.2 2.3-8.4-.4-3.2-1.9-6.2-4.4-9.1l5.3-6.6c5.1 4.1 7.7 9.4 8 16.1.3 6.7-1.8 12.8-6.3 18.4-5.4 6.7-12.5 10.5-21.1 11.4-8.7.8-16.4-1.5-23.3-7-6.8-5.5-10.8-12.6-11.8-21.2s1.1-16.3 6.6-23.1c2.5-3.1 5.5-5.7 8.8-7.7 2.4-1.3 3.6-2.1 3.8-2.3 1-1.3 1-2.4-.1-3.3l5.1-6.4 21.1 17z"/></svg>