<svg xmlns="http://www.w3.org/2000/svg" viewBox="0 0 612 612"><circle class="color-brown color-main" fill="#4e2c1c" stroke="#f6bd1a" stroke-miterlimit="10" stroke-width="4" cx="306" cy="306" r="262.7"/><circle fill="#fff" stroke="#f6bd1a" stroke-miterlimit="10" stroke-width="4" cx="306" cy="306" r="189"/><g class="color-gold color-main color-reserved-white" fill="#ffc62a"><path d="m110.6 263-3.6 25-49.9-7.1 1.2-8.6 41.1 5.8 2.3-16.4 8.9 1.3z"/><path d="m119.9 231.8-2.6 8.6-8.7-.2-3.4 11.1 7.4 4.6-2.6 8.6-44.3-27.7 1.9-6.4 52.3 1.4zm-20.3 8.1-13.1-.3 11.1 6.9 2-6.6zm34.8-37-4.2 8.4-23-1.2-1.3 2.5 19 9.4-3.8 7.7L76 207.3l6.6-13.3c1.8-3.6 4.6-6.1 8.4-7.3 3.8-1.3 7.5-1 11.2.8 2.7 1.3 4.8 3.3 6.2 5.9 1.4 2.6 2.1 5.3 1.9 8.2l24.1 1.3zm-36.1-7.8c-1.5-.7-3-.8-4.6-.3-1.6.5-2.7 1.5-3.5 3l-2.8 5.6 10.7 5.3 2.8-5.6c.7-1.5.8-3 .3-4.5-.4-1.6-1.4-2.7-2.9-3.5zm56.2-20.1-5.3 7.3-8.2-3.1-6.8 9.4 5.5 6.8-5.3 7.3-32.7-40.8 3.9-5.4 48.9 18.5zm-21.8 1-12.2-4.6 8.2 10.1 4-5.5zm47.7-25.9-6.2 6-15.2-15.8 10.3 20.3-2.4 2.3-19.9-11.2 15.1 15.8-6.2 6-34.8-36.5 6.6-6.3 23.6 13.4-12-24.5 6.2-6 34.9 36.5zm14.7-10.1-7.1 5-28.9-41.3 7.1-5 28.9 41.3zm30.4-17.2-22.3 11.7L179.8 90 202 78.2l4 7.6-14.6 7.7 4.7 8.9 9.1-4.8 4 7.6-9.1 4.8 6.7 12.7 14.7-7.7 4 7.8zm11.2-9.3c.6 1.4.5 2.7-.1 3.8l-5.2 9.4-3.8-9.7c-.5-1.3-.5-2.5.1-3.7.5-1.2 1.4-2.1 2.7-2.6 1.3-.5 2.5-.5 3.7.1 1.3.6 2.1 1.5 2.6 2.7zm62.6-7.5-8.6.9-16.2-28.7 3.3 30.1-8.6.9-5.4-50.1 8.6-.9 16 27-3.1-28.4 8.6-.9 5.4 50.1zm41.2-23c-.6 7-2 12.6-4.3 16.8-3.2 5.9-7.9 8.5-14.1 8.1-3.4-.3-6.4-1.5-8.9-3.8-2.5-2.2-4.1-5-4.8-8.2-1-5.1-1.4-10.2-.9-15.5 1.4-17.1 7.5-25.2 18.5-24.3 11.1.8 15.9 9.8 14.5 26.9zm-8.6-.7c.9-11.3-1.3-17.1-6.6-17.6-5.3-.4-8.3 5-9.2 16.3-.3 4.4-.1 8.7.8 13 .3 1.4.9 2.6 2 3.6s2.3 1.5 3.8 1.6c5.3.4 8.3-5.2 9.2-16.9zm41.7 35.2-9.1-2.5-3.3-22.8-2.7-.7L353 112l-8.3-2.2 13-48.8 14.4 3.9c3.9 1 6.8 3.3 8.9 6.8 2 3.5 2.5 7.2 1.4 11.1-.8 2.9-2.3 5.3-4.6 7.3-2.3 1.9-4.8 3.1-7.7 3.4l3.5 24zm.5-36.9c.4-1.6.2-3.1-.6-4.5s-2-2.4-3.6-2.8l-6-1.6-3.1 11.5 6 1.6c1.6.4 3.1.2 4.5-.6s2.4-2 2.8-3.6zm50.3 13.5L413 88.7l-18.1 38.5-7.8-3.7L405.2 85l-11.4-5.4 3.3-7.1L427.7 87l-3.3 7.1zm9.6 58.1-7-5 13.1-18.3-10.2-7.3-13.1 18.3-7-5 29.3-41 7 5-11.2 15.6 10.2 7.3 11.2-15.6 7 5-29.3 41zm70.5 26.3c-3.2 2.4-6.8 3.3-10.8 2.8-4-.6-7.2-2.5-9.6-5.7l-3.8-5-16.9 12.7-5.2-6.9 40.3-30.2 8.9 11.9c2.4 3.2 3.3 6.8 2.8 10.8-.6 3.9-2.5 7.1-5.7 9.6zm-5.2-7c1.3-1 2.1-2.3 2.3-3.9.2-1.6-.1-3.1-1.1-4.4l-3.8-5-9.6 7.2 3.8 5c1 1.3 2.3 2.1 3.9 2.3 1.7.2 3.2-.1 4.5-1.2zm-8.5 57.2-4.2-8 6.4-6-5.4-10.3-8.5 1.9-4.2-8 51-11.2 3.1 5.9-38.2 35.7zm8.7-20.1 9.6-8.9-12.7 2.9 3.1 6zm1.2 50.8-2.9-9 17.3-15.3-.9-2.7-20.1 6.6-2.7-8.2 47.9-15.6 4.6 14.2c1.2 3.8 1 7.6-.9 11.2-1.8 3.6-4.7 6-8.5 7.3-2.9.9-5.7 1-8.6.1-2.8-.8-5.2-2.4-7.1-4.6l-18.1 16zm31.2-19.7c1.6-.5 2.7-1.5 3.5-3 .8-1.5.9-3 .4-4.6l-1.9-6-11.4 3.7 1.9 6c.5 1.6 1.5 2.7 2.9 3.5 1.5.8 3 .9 4.6.4zm-26 55.9-1.2-9.2 21.2-11.9-6.1-2.5-16.7 2.2-1.1-8.6 50-6.6 1.1 8.6-16 2.1 17.2 7 1.3 9.9-19.4-8-30.3 17z"/></g><path class="color-gold color-main color-reserved-white" fill="#ffc62a" d="m190.6 528.9-9.1-5.8-.5-7.6c-3.1.9-5.6 1.4-7.3 1.5-2.7.1-5.1-.6-7.4-2.1-3.6-2.3-5.9-5.6-6.8-9.7-.9-4.2-.2-8.1 2.1-11.7 1.4-2.2 3.9-4.1 7.4-5.5 2-.9 5.3-1.9 9.9-3l-.3-4.9c-.2-2.4.3-4.5 1.6-6.5 1.6-2.4 3.8-4 6.6-4.6 2.9-.6 5.5-.2 8 1.4 2.5 1.6 4 3.8 4.6 6.7.6 2.9.1 5.5-1.4 7.9-1.6 2.5-4.9 4.5-10 6l1 13.8 4-1.2.9 6.8-4.4 2 1.1 16.5zm-10.2-21.5-1-14.4c-5.7 1.4-9.2 3.1-10.5 5.1-1 1.6-1.3 3.4-.9 5.2.4 1.9 1.4 3.3 3 4.3 2 1.3 5.2 1.3 9.4-.2zm10.8-26.9c.4-.6.5-1.2.3-1.8-.1-.7-.5-1.2-1.1-1.6-.6-.4-1.2-.5-1.8-.3-.7.1-1.2.5-1.5 1.1-.3.4-.3 2-.1 4.6v.2c2.2-.7 3.7-1.4 4.2-2.2zm77.3 37.1c-1 3.9-3.3 6.9-6.7 8.9-3.5 2-7.2 2.6-11.1 1.6l-6.1-1.6-5.3 20.5-8.4-2.2 12.6-48.8 14.4 3.7c3.9 1 6.9 3.3 8.9 6.7 2.2 3.6 2.7 7.3 1.7 11.2zm-8.3-2.2c.4-1.6.2-3.1-.7-4.5-.8-1.4-2.1-2.4-3.6-2.8l-6.1-1.6-3 11.6 6.1 1.6c1.6.4 3.1.2 4.5-.6 1.4-.9 2.3-2.1 2.8-3.7zm39.6 41-9-.8-1.5-8.6-11.5-1.1-3.1 8.2-9-.8 18.3-48.9 6.7.6 9.1 51.4zm-12-18.2-2.3-12.9-4.5 12.2 6.8.7zm51.2 5c-.5 3.5-2.1 6.4-4.7 8.8-2.6 2.4-5.7 3.8-9.3 4-6.3.4-11.1-2.3-14.3-8.2-2.3-4.2-3.7-9.9-4.2-16.9-1.2-17.1 3.8-26 14.8-26.8 3-.2 5.8.4 8.4 1.9 2.6 1.5 4.6 3.5 6 6.1l-7.5 4.4c-1.3-2.7-3.4-3.9-6.3-3.7-5.3.4-7.5 6.2-6.7 17.5.8 11.7 3.9 17.3 9.2 17 1.5-.1 2.9-.7 4-1.7s1.8-2.3 2-3.8l8.6 1.4zm21.7 6.8-8.5 1.7-10.1-49.4 8.5-1.7 10.1 49.4zm26.1-51.5-15.7 5.3 3.2 9.5 9.8-3.3 2.8 8.2-9.8 3.3 7.4 21.8-8.2 2.8-16.2-47.7 23.9-8.1 2.8 8.2zm31.8 30.7-7.8 3.8-22-45.4 7.8-3.8 22 45.4zm32.9-33.1c1.2 3.3 1.3 6.6.3 10-1.1 3.4-3.1 6.1-6.1 8.1-5.3 3.5-10.8 3.5-16.5-.1-4.1-2.5-8.1-6.7-12-12.6-9.5-14.3-9.6-24.5-.4-30.6 2.5-1.7 5.3-2.5 8.3-2.5 3 0 5.7.8 8.2 2.3l-4.3 7.5c-2.4-1.7-4.9-1.7-7.3-.1-4.4 2.9-3.5 9.1 2.8 18.5 6.5 9.8 11.9 13.2 16.4 10.2 1.3-.8 2.2-2 2.6-3.5.5-1.5.4-2.9-.1-4.3l8.1-2.9zM202.6 267.9c1.1-3.5 2.5-6.9 3.1-10.4.8-4.7 2.6-8.9 4.1-13.3.3-.7.4-1.6.1-2.3-1.4-4.4-.5-8.4 1.8-12.2 2.3-3.8 4.7-7.7 7-11.5 2.5-4.3 6.4-6.3 11.1-6.5 2.9-.2 5.9.4 8.8.9 2.5.5 5 1.3 7.3 2.2 1.5.6 2.7 1.8 3.9 2.8.8.7 1.4 1.7 2.2 2.5 2.1 2.3 3.6 5.1 4.1 8.1.7 4 1.5 8 1.9 12.1.4 4.6-.4 9.1-1.7 13.5-.2.5-.3 1.1-.5 1.8 4.4.1 8.7.3 12.9.4 6 .3 12 1.2 16.6 5.4 2.7 2.3 5.1 4.4 8.9 3.7.7-1.9 1.5-4.1 2.3-6.4.1-.3-.2-.9-.4-1.2-2.8-3.9-4.1-8.3-4.1-13 0-4.9.6-9.8.8-14.7.1-3.1.2-6.2.2-9.3 0-2.7-1.7-4.5-3.5-6.2-7-6.6-11.5-14.4-12.8-24.1-.5-4.2.7-7.4 3.7-10.2 4.9-4.5 9.6-9.2 14.4-13.7l1-1c-1.1-1-2.1-2-3.2-3-3.3-3-5.9-6.4-7-10.9-1.3-5.4 1-10 6-12.3 4.8-2.2 9.7-2.8 14.9-2.3.4 0 1.1 0 1.5-.3 1.8-1.6 3.5-3.4 5.2-5.1h3.9c1.6.7 3.1 1.5 4.7 2.2.3.1.8.1 1.1.1 4.1-.4 7.9 2.7 8.4 6.8.1.9.1 1.8.1 2.8 0 3.6-.1 3.6 3.3 5 5.4 2.2 9.2 5.9 11.3 11.3.4 1.1.4 2.2.5 3.3.1.5-.3 1.1 0 1.5 1 2.2-.3 3.7-1.6 5.1-7.1 7.3-15.4 10.5-25.5 7.3-2-.6-3.5-.6-5.3.6-1.9 1.3-4.2 2.1-6.1 3.4-2.9 2-5.6 4.4-8.6 6.7 2.8 3.5 5.2 6.7 7.5 9.5 2.3-1.3 4.3-2.4 6.3-3.5.3-.1.4-.4.6-.6 2.5-3.9 5.4-4.6 9.4-2.2.1.1.2.1.6.3 1.1-1.5 2.4-3.2 3.7-4.7.5-.6 1.1-1.3 1.9-1.5 5.1-2.2 10.1-4.4 15.8-3.7 4.1.4 8 1.6 10.7 4.8 2.1 2.3 4.9 4.1 5.8 7.4 0 .1.1.2.2.3.7.6 1.9 1.1 2 1.8.6 3.3 1 6.7 1.4 10.1.1.5-.4 1.2-.8 1.6-2 1.8-3.9 3.6-5.2 6-1 1.8-3.1 2.5-5.2 2.2-1.5-.3-2.2.3-3 1.5-1.6 2.8-4.1 3.8-7.4 3.7-1.8-.1-3.7.8-5.4 1.5-.3.1-.4 1.8-.1 2.4 5.2 9.2 5.3 19.5 6.1 29.6.7 8.9.7 18 2.6 26.9 1.3 0 2.7-.1 4 0 .8.1 1.6.6 2.2 1.1 4.1 3.9 5.6 8.9 6.2 14.3 0 .4-.3 1-.6 1.4-1.9 2.2-4.3 2.9-7 2.2-1.1 1.6-2.2 3-3.3 4.6 1.5 1.9 3 4 4.6 6.2.2-2.3.4-4.5.6-6.8 1.9-.3 3.7-.6 5.4-.7 3-.1 5.2 2.5 5.2 5.4 0 2.2.1 4.4.6 6.5.8 3.5 1.9 7 2.9 10.4.1.4.4.9.7 1.1 3 1.9 4.8 4.7 5.8 8.1.7 2.4 1.8 4.2 3.9 5.8 2.9 2.2 4.1 5.3 3.2 9-.1.4.2 1.1.5 1.4 4.6 3.8 7.8 8.5 9.6 14.2.1.5.7 1 1.3 1.3 5 2.4 8.5 6.3 11.3 10.9.8 1.4 1.2 3.3 1.1 5-.2 3.3-1.5 4.4-5.8 4.8 2.2 2 4 3.9 5.9 5.5 2.4 2 4.1 4.4 4.6 7.4s-2.3 5.9-5.8 6.4c2.6 3.9 6.6 7.5 2.6 12.9 2.3 3.4.9 8-3.1 9.4-4.2 1.5-8.3 3.1-12.5 4.5-2.5.8-4.4 2.4-6.2 4.4-1.8 1.9-3.7 3.7-5.7 5.4-.9.7-2.2 1.3-3.3 1.5-7.5 1.3-13.9 5.3-20.5 8.8-4 2-8.2 3.6-12.3 5.3-1.3.6-2.5.4-3.7-.4-1.9-1.2-3.8-2.4-5.8-3.7-.1-.1-.2-.1-.4-.2v.4c.4 6.6 2.7 12.6 4.2 19 .1.2.1.4.2.7.9 2.7.4 4.8-2.4 6.1h-5.2c-2.5-1.2-5-2.3-7.5-3.5-1.3-.6-2.6-1.1-3.7-1.9-1.6-1.1-2.5-2.5-2.6-4.8 0-2.4-.9-4.8-1.5-7.1-1-3.6-2.6-7.4-1.1-11 2.3-5.6 1.3-11.2.6-16.9-.2-1.5-1-2.8-1.5-4.3-1.1-3.4-2.2-6.9-2-10.6 0-.8-.1-1.6-.4-2.4-2.1-6.1-4.3-12.2-6.3-18.3-1.4-4.2-2.7-8.5-3.5-12.8-.4-2.7.3-5.6.4-8.5 0-.4.2-1-.1-1.3-2-2-4-3.9-6-5.9-.1.3-.2.8-.2 1.2-.3 3-2.3 4.9-5.9 5.8-3 .7-4.7-.8-6.1-3.2-1.6-2.8-3.5-5.5-4.9-8.4-1.3-2.8-2.2-5.6-4.8-7.8-2.2-1.7-3.3-4.5-4.9-7-.2-.4-.2-1 0-1.4.5-1.1 1.1-2.2 1.7-3.3 1.1-2.2 2.2-4.4 5.2-5.1-.8-1.5-1.5-2.7-2.1-3.9h-.6c-3.3 6.3-6.7 12.6-10.1 19 2.3 1.5 4.7 3.1 7 4.7.6.4 1.2 1.1 1.6 1.8 2.3 4.4 3.3 9 4 13.9.1.9.1 1.9.5 2.7 1.4 2.8.3 5.4-.3 8.1-.5 2.7-2.5 4.3-5.6 4.4.3.4.4.7.5.9 4.8 4.7 5.9 11.1 7.3 17.3 1 4.4.9 8.9-.7 13.3-1.6 4.5-5.9 5.9-9.8 3.2-1.2-.9-2.5-1.8-3.4-3-2.5-3.3-4.9-6.6-7-10.2-.8-1.4-.9-3.5-.8-5.2.1-1.1-.2-1.9-.8-2.7-1.2-1.8-2.5-3.6-3.3-5.5-1.1-2.9-2.9-5.3-5.1-7.5-3.2-3.2-6.6-6.3-9.9-9.5-2-1.9-3.9-3.9-5.8-5.9-3.5-3.9-3.1-8-1.1-12.7.1-.4.4-.7.7-1.3-4.5-1.6-9.1-3.3-13.7-4.9-1.6-.6-3.3-1-4.9-1.8-5.2-2.5-7-6.7-5.3-12.3 1.2-3.9 3.6-7 6.4-9.9 2.3-2.3 4.5-4.6 6.8-6.8 1.5-1.4 3-2.8 4.6-4.1 1-.8 1.1-1.4.6-2.5-2.3-5.2-4.6-10.4-6.7-15.7-.7-1.9-.7-4.1-1.1-6.6-.4.9-.6 1.5-.9 2.1-1.1 1.8-2.2 3.7-3.5 5.4-1.5 2-3.7 2.3-5.9 1.7-.4-.1-.9-.5-1.1-.9-1.6-2.2-2.1-4.8-1.5-7.5.3-1.1.5-2.3.9-3.3.6-1.8.7-3.3-.7-4.8-.6-.7-.6-2.2-.6-3.3 0-1.3.4-2.6.6-3.9.4-3 .8-6.1 1.1-9.2.1-.7-.3-1.5-.6-2.2-.5-1.1-1.1-2.2-1.6-3.2-.3-.7-.3-1.5-.3-2.3zm131.9-48.8c2.5-.7 5.1-1.5 7.6-2.2.5-.1 1-.3 1.5-.2 2.6.5 3.8 0 4.9-2.3 1-1.9 3.1-2.8 5.4-2.5 1.2.2 2.3-.1 2.9-1.4.4-.9 1-2 1.8-2.6 3.7-2.5 4.1-5.6 2.3-9.3-.3-.7-.4-1.5-.8-2.2-.6-1.1-1.5-2-2-3-.7-1.4-1.5-2.6-3-3.2-.5-.2-.8-.9-1.2-1.4-.6-.7-1-1.6-1.8-2.1-3.1-2-6.6-3.2-10.3-2.5-3.6.7-7 1.9-10.5 3-.6.2-1 1.1-1.5 1.8-.4.5-.7 1.3-1.2 1.6-2.2 1.3-2.9 2.7-2.6 5.2.1 1.1.3 2.1.3 3.1 0 .3-.3.9-.4.9-.4 0-1-.2-1.1-.4-.6-1.1-1-2.2-1.6-3.3-.7-1.1-1.3-2.3-2.3-3-.8-.5-2.2-.5-3.1-.3-.4.1-.8 1.4-.8 2.2 0 1.3-.8 1.6-1.7 1.5-2.2-.3-3.6.9-4.9 2.4-.6.6-1.1 1.2-1.8 1.7-.9.8-1.8.9-2.7-.1-2.8-3.5-5.8-6.9-8.5-10.4-1.6-2.2-1.5-3.7.5-5.6 3.3-3.2 6.7-6.5 11.1-8.3 1.3-.5 2.7-1.1 3.7-2 2.3-2.3 4.7-1.8 7.4-.8 7.5 2.8 14.1.6 20.3-4.1 3.5-2.6 3.3-7 2-10-2.3-5.1-6.7-7.6-11.7-9.4-2-.7-2.6-1.9-2.7-3.7 0-1.7.1-3.4 0-5.1-.1-3-2.8-4.9-5.8-4-1 .3-1.5.3-2.2-.6-1.7-2.2-4.8-2.3-6.8-.4-1.3 1.2-2.6 2.4-3.9 3.5-.5.4-1.4.6-2 .5-5.5-.9-10.7 0-15.6 2.5-1.6.8-2.3 2-2.6 3.7-.8 3.8.3 7.1 2.7 9.9 2 2.3 4.2 4.3 6.4 6.4 1.9 1.9 2 2.9 0 4.8-5.3 5.1-10.6 10.2-15.9 15.2-1.8 1.7-2.6 3.6-2.4 6.1.8 8.9 4.9 16.1 11.2 22.3 2.2 2.2 4.5 4.1 4.9 7.4.2 1.6.4 3.3.4 4.9-.3 5.2-.8 10.4-1.1 15.5-.4 6 0 11.8 3.8 16.8 1.1 1.5 1.1 2.8.4 4.4-.7 1.6-1.2 3.3-1.6 4.9-.4 1.4-.4 2.8-.7 4.3-.5-.1-.8-.2-1.1-.3-2.6-.6-5.2-1.6-7.9-.8-.4.1-1.1-.5-1.5-.9-2.7-3.7-6.3-6.4-10.9-7.1-5-.8-10-1-15.1-1.4-2.3-.2-4.7-.2-7-.4-1.6-.1-2.5-1.3-2-2.6 3.7-8.7 3.4-17.5 1.2-26.6-1.1-4.5-3.9-7.6-6.6-10.9-.3-.4-.8-.6-1.2-.7-4-1.1-8-2.3-12-3.1-3.7-.7-9.7.8-12.1 5.5-1.8 3.5-4 6.8-6.1 10.2-2.3 3.6-3.1 7.4-1.5 11.5.2.6.1 1.4-.1 2-1.3 4.1-2.7 8.1-4 12.3-.8 2.7-1.5 5.5-2.2 8.2-.3 1.2-.8 2.5-.9 3.7-.1 1.1 0 2.6.6 3.1 2.2 1.6 1.4 3.6 1.2 5.6-.3 2.8-.7 5.7-1 8.5-.2 1.6-.4 3.3-.5 5.1 1.7 1.8 2.1 3.3 1.5 6.1-.4 1.9-1.1 3.8-1.3 5.8-.1 1 .7 2.2 1.1 3.2.9-.5 2-.8 2.6-1.6.9-1.2 1.6-2.7 2.3-4.1.6-1.3.9-2.7 1.5-3.9.9-1.6 1.9-3.6 3.3-4.5 2.2-1.4 3.4-3.2 3.9-5.6.9-4.8 1.7-9.7 2.2-14.7.3-3.2.5-6.3 2.2-9 .8-1.4 1.4-3 1.9-4.5.9-3 1.7-5.9 2.3-8.9.3-1.5 1.5-1.3 2.4-1.6.4-.1 1.1.1 1.3.4 2.5 4.5 5 8.9 5.9 14.1.3 1.6-.2 2.8-1.5 4-2.7 2.9-5.6 5.9-8.2 9-1.7 2-3.3 4.4-4.3 6.8-1.8 4.4-3.1 9-4.6 13.6-1.3 4.2-1.1 8.3.6 12.3 1.9 4.6 3.9 9.2 6.2 13.7 1.2 2.4.5 3.7-.9 5.1-3.7 3.7-7.6 7.3-11.5 11-2.7 2.6-5 5.4-6.1 9-1.2 4-.1 6.3 3.5 8.2.6.3 1.1.5 1.8.7 5.6 2 11.3 4 17 5.9 1.1.4 2.2.7 3.4 1.2-.8 1.6-1.7 2.9-2.3 4.3-1.6 4-2.2 6.8 1.1 10 1.5 1.5 2.8 3 4.3 4.4 3.7 3.6 7.6 7.1 11.2 10.9 1.6 1.7 3.2 3.7 4.2 5.8 1.6 3.5 3.2 7 6.6 9.4-2.6 3.3-1.5 6 1 8.6.9.9 1.5 2.1 2.1 3.2 1.4 2.4 3 4.5 5.4 6.1 2.1 1.3 3.9.8 4.7-1.6.5-1.5.9-3.2 1.1-4.8.6-6.3-1.8-12.2-3.5-18.1-.1-.4-.5-.8-.8-1.1-5.6-7.1-11.3-14.3-17-21.4-1.6-2-1.9-4.1-.8-6.6 2.3 1.5 4.4 3.3 7.7 2.7-.6 1.3-.9 2.2-1.3 3-1.4 3.2-1.1 4.4 1.8 6.7 1.1.9 2.4 1.6 3.3 2.6 1.5 1.8 3.5 2.5 5.6 3 .6.2 2.2-.6 2.2-1 .2-2.3 1.8-4.6.6-7.1-.3-.6-.3-1.4-.4-2.1-.7-4.3-1.2-8.7-3.3-12.6-.4-.9-1.1-1.8-2-2.3-2.9-2-5.9-3.9-9-5.8.8-1.4 1.8-2.7 2.6-4.2 3.1-5.8 6.2-11.5 9.3-17.3 1.5-2.8 2.3-2.8 5.1-1.3 2.4 1.4 2.6 4.1 4 6 .8 1.2.7 2-.8 2.7-1.3.6-2.9 1.3-3.7 2.5-2.8 3.9-2.7 3.9.1 7.8.4.6.8 1.4 1.3 1.9 1.1.9 1.8 2.8 4 1.8 0 4.1 1.5 7.5 3.5 10.7.9 1.5 1.9 2.9 2.8 4.4.6 1 1.2 2 2.7 1.5 2.2-.6 3.2-1.4 3.2-3.1 0-2.8 0-5.6.1-8.4 0-.7.2-1.4.3-2.1 1.2 1.1 2 2.4 2.9 3.5 3.2 3.9 5.7 8.5 10.8 10.6 1.1.4 1.5 1.3.4 2.3-1.8 1.5-2.4 3.5-2.2 5.8.2 2.2.1 4.6.8 6.7 2.7 8.5 5.7 16.9 8.5 25.3.4 1.1.8 2.2.9 3.3.2 4.5 1.1 8.9 2.8 13.1.5 1.2.8 2.6 1 3.9.3 2 .6 4.1.6 6.1 0 2.6.5 5.4-.5 7.6-1.7 3.8-1.4 7.3-.4 11.1.8 3 1.8 5.9 2.2 9 .3 1.9 1 2.8 2.6 3.5 2.9 1.3 5.9 2.6 8.8 3.9.4.2.8.3 1.1.4 1.8.4 2.7-.4 2.2-2.2-1.6-7.2-3.3-14.4-4.8-21.6-1.4-6.4-3.7-12.6-3-19.4 0-.5-.1-1.1-.3-1.5-.4-1.8-.9-3.7-1-5.5-.3-5.2-.4-10.4-.6-15.5-.3-7.8 0-15.5 1.5-23.2.1-.6.4-1.4.9-1.7 2.6-1.8 5.3-3.4 8-5 .9-.6 2.1-.8 3.4-1.3v2.3c.4 5.6.8 11.3 1.1 16.9.6 9.3 1.1 18.7 1.6 28 0 .5-.3 1.2-.6 1.5-2.3 1.7-4.6 3.3-6.9 5-1.9 1.4-3 3.2-3 5.6 0 2.8 1.4 3.8 3.9 2.6 1.5-.8 2.8-2 4.3-3 .6-.4 1.4-.7 2.2-1.1.4 2.1-.6 3.2-1.9 3.9-1.4.9-2.9 1.5-4.4 2.3-2.2 1.1-2.8 3.6-1.1 5.3 1.9 1.9 4.1 3.5 6.3 5 .7.4 2 .6 2.8.3 4.5-1.9 9-3.9 13.3-6.1 5.9-3.2 11.8-6.2 18.5-7.7 2.2-.5 4.1-2.4 5.9-3.8 1-.8 1.8-1.9 2.6-2.8 1.7-2 3.8-3.3 6.3-4.2 4.4-1.5 8.8-3.2 13.2-4.8.6-.3 1.5-1 1.5-1.6.1-.9.1-2-1.2-2.6-2.5-1.2-5-2.6-7.4-4-.5-.3-1.1-1.3-.9-1.7.2-.6 1.1-1.1 1.7-1.3 2.1-.3 3.6.7 4.8 2.3.6.9 1.3 1 2.2.5 1.8-1 2.2-1.8 1.3-3.7-.7-1.5-1.7-3.1-2.9-4.3-1.7-1.7-3.6-3.2-5.6-4.5-1.8-1.2-3-2.8-3.7-4.8-.3-.8-.3-1.6-.4-2.5.8 0 1.7 0 2.5.1.7.1 1.3.5 1.9.9 1.5 1.1 2.9 2.2 4.4 3.2.9.6 2 1.1 3 1.3 1.5.3 3-1.7 2.3-3-.8-1.6-1.9-3-3-4.4-1.2-1.4-2.8-2.5-4.1-3.7-2.5-2.4-4.9-4.9-7.3-7.2 2.2-.5 3.2-2.8 4.4-5.2.6.8 1.1 1.3 1.5 1.9.5.6.9 1.4 1.6 1.9.4.4 1.3.7 1.7.5.4-.2.8-1.1.7-1.5-.2-1.2-.4-2.5-1-3.4-1.5-2.1-3.3-4.1-5.1-5.9-2.2-2.3-5-3.5-8.2-3.9-2.8-.3-5.8-.7-7.8-3-.3-.4-.4-1-.5-1.5.5 0 1.1-.1 1.5.1 1.5.8 2.9 1.8 4.4 2.5.6.3 1.8.3 2.2-.2.4-.4.5-1.5.3-2.2-1.4-4.1-3.9-7.6-7.3-10.3-2.8-2.2-5.9-4.1-8.9-6.1.2-.4.4-.8.8-1.5 1 .8 1.9 1.5 2.7 2.2.9.9 1.8 1 2.8.3 1.1-.7.8-1.7.5-2.7-.8-2.7-2.8-4.2-5.4-5.1-.7-.3-1.4-.4-1.2-1.5.7-3.3-2.2-9.6-6-10.7-.4-.1-.9-.7-1.1-1.1-1-3.8-2-7.7-2.8-11.5-.4-2-.9-4-.9-6 0-3.9.1-3.9-3.6-3.3-.1 0-.2.1-.4.3 0 .2-.1.5-.1.8-.3 3.4-.4 6.9-.8 10.3-.1.7-.7 1.3-1 1.9-.5-.4-1.2-.6-1.6-1.1-.7-1-1.1-2.2-1.7-3.3-1.9-3.9-3.5-7.9-7.7-10.1-1.3-.7-1-2.7.4-3.2 2.5-.8 3.8-2.5 3.9-5.2 0-1.1.4-2.2.7-3.5 1.4 1.1 2.2 2 3.2 2.4.9.4 2 .2 3 0 .3 0 .7-.9.6-1.4-.6-3.5-1.6-6.8-4-9.6-1.1-1.3-2.2-1.5-3.7-1.1-1.4.5-2.8 1-4 1.5-.1-1.4-.2-2.7-.4-4-.3-2.2-.9-4.2-1-6.4-.8-9.7-1.3-19.5-2.2-29.2-.6-7-1.5-14-5.1-20.2-.5-.8-.6-1.9-.7-2.8-.1-1.5 0-2.9 0-4.1zm-5 213.7c2.2-1.5 4.1-2.7 6.1-4.1 1.3-.9 2.3-2 2.2-3.7-.7-10-1.3-20-2-30-.2-3-.4-6.1-.7-9.3-1.7 1.1-3.1 2.2-4.6 2.9-1.1.6-1.6 1.2-1.6 2.4-.4 5.8-1 11.6-1 17.4-.1 8.1.1 16.2 1.6 24.4zm-102.3-161 8.7-8.7c.3-.3.5-.7.4-1-.7-3.2-1.5-6.4-3.6-9.2-.3.8-.4 1.5-.7 2.2-1.1 3.1-2.2 6.3-3.6 9.2-1 2.4-1.4 4.9-1.2 7.5z"/><path class="color-main color-brown" fill="#4e2c1c" d="M334.5 219.1c0 1.2-.1 2.6 0 3.9.1 1 .3 2 .7 2.8 3.7 6.3 4.5 13.2 5.1 20.2.9 9.7 1.5 19.5 2.2 29.2.2 2.2.7 4.2 1 6.4.2 1.3.3 2.6.4 4 1.2-.4 2.6-1 4-1.5 1.5-.5 2.6-.2 3.7 1.1 2.4 2.8 3.3 6.1 4 9.6.1.4-.3 1.3-.6 1.4-1 .2-2.1.3-3 0-1.1-.4-1.9-1.3-3.2-2.4-.3 1.4-.7 2.4-.7 3.5-.1 2.7-1.4 4.4-3.9 5.2-1.4.4-1.8 2.5-.4 3.2 4.2 2.2 5.8 6.3 7.7 10.1.6 1.1 1 2.2 1.7 3.3.3.5 1.1.7 1.6 1.1.4-.6.9-1.2 1-1.9.3-3.4.5-6.9.8-10.3 0-.3.1-.6.1-.8.2-.1.3-.3.4-.3 3.7-.5 3.6-.5 3.6 3.3 0 2 .5 4.1.9 6 .9 3.9 1.8 7.7 2.8 11.5.1.4.6 1 1.1 1.1 3.7 1.1 6.6 7.4 6 10.7-.2 1.1.4 1.3 1.2 1.5 2.6.9 4.5 2.3 5.4 5.1.3 1 .5 2-.5 2.7-1 .7-1.9.5-2.8-.3-.8-.8-1.7-1.4-2.7-2.2-.4.6-.6 1.1-.8 1.5 3.1 2.1 6.1 4 8.9 6.1 3.4 2.7 5.9 6.1 7.3 10.3.2.6.1 1.8-.3 2.2-.4.4-1.6.4-2.2.2-1.5-.7-3-1.7-4.4-2.5-.4-.2-.9-.1-1.5-.1.2.5.2 1.1.5 1.5 2.1 2.3 5 2.7 7.8 3 3.2.4 6 1.6 8.2 3.9 1.8 1.9 3.6 3.9 5.1 5.9.7.9.8 2.2 1 3.4.1.5-.3 1.4-.7 1.5-.4.2-1.3-.1-1.7-.5-.6-.5-1.1-1.2-1.6-1.9-.4-.5-.8-1.1-1.5-1.9-1.3 2.4-2.2 4.7-4.4 5.2 2.3 2.3 4.8 4.8 7.3 7.2 1.3 1.3 2.9 2.4 4.1 3.7 1.2 1.3 2.3 2.8 3 4.4.7 1.3-.9 3.2-2.3 3-1.1-.2-2.1-.7-3-1.3-1.5-1-2.9-2.2-4.4-3.2-.6-.4-1.2-.7-1.9-.9-.8-.2-1.7-.1-2.5-.1.1.8.1 1.7.4 2.5.7 2 1.9 3.5 3.7 4.8 1.9 1.4 3.9 2.9 5.6 4.5 1.2 1.2 2.2 2.8 2.9 4.3.9 1.9.5 2.7-1.3 3.7-.9.5-1.5.4-2.2-.5-1.1-1.6-2.7-2.6-4.8-2.3-.6.1-1.5.7-1.7 1.3-.2.4.4 1.4.9 1.7 2.4 1.5 4.9 2.8 7.4 4 1.3.6 1.3 1.6 1.2 2.6-.1.6-.9 1.3-1.5 1.6-4.4 1.7-8.7 3.3-13.2 4.8-2.5.9-4.6 2.2-6.3 4.2-.8 1-1.6 2.1-2.6 2.8-1.9 1.5-3.7 3.3-5.9 3.8-6.7 1.5-12.6 4.6-18.5 7.7-4.3 2.3-8.9 4.2-13.3 6.1-.8.3-2.1.2-2.8-.3-2.2-1.5-4.4-3.1-6.3-5-1.8-1.7-1.1-4.2 1.1-5.3 1.5-.8 3-1.4 4.4-2.3 1.2-.8 2.2-1.9 1.9-3.9-.8.4-1.6.7-2.2 1.1-1.5.9-2.8 2.2-4.3 3-2.5 1.2-3.9.2-3.9-2.6 0-2.5 1.1-4.2 3-5.6 2.3-1.7 4.7-3.3 6.9-5 .4-.3.6-1 .6-1.5-.5-9.3-1.1-18.7-1.6-28-.4-5.6-.8-11.3-1.1-16.9v-2.3c-1.4.5-2.5.8-3.4 1.3-2.7 1.6-5.4 3.3-8 5-.5.3-.8 1.1-.9 1.7-1.5 7.7-1.7 15.4-1.5 23.2.2 5.2.3 10.4.6 15.5.1 1.9.7 3.7 1 5.5.1.5.3 1.1.3 1.5-.7 6.7 1.7 13 3 19.4 1.5 7.2 3.2 14.4 4.8 21.6.4 1.8-.4 2.6-2.2 2.2-.4-.1-.8-.2-1.1-.4-2.9-1.3-5.9-2.6-8.8-3.9-1.5-.7-2.3-1.6-2.6-3.5-.4-3-1.4-6-2.2-9-1-3.7-1.4-7.2.4-11.1 1-2.2.5-5.1.5-7.6 0-2-.3-4.1-.6-6.1-.2-1.3-.5-2.6-1-3.9-1.7-4.2-2.6-8.5-2.8-13.1 0-1.1-.5-2.3-.9-3.3-2.8-8.5-5.8-16.8-8.5-25.3-.7-2.1-.6-4.5-.8-6.7-.2-2.2.4-4.3 2.2-5.8 1.1-1 .7-1.8-.4-2.3-5.1-2-7.6-6.7-10.8-10.6-.9-1.1-1.6-2.4-2.9-3.5-.1.7-.3 1.4-.3 2.1 0 2.8 0 5.6-.1 8.4 0 1.7-1 2.5-3.2 3.1-1.5.4-2.1-.5-2.7-1.5-.9-1.5-2-2.9-2.8-4.4-2-3.3-3.5-6.7-3.5-10.7-2.2 1-2.9-.9-4-1.8-.6-.4-.9-1.2-1.3-1.9-2.7-3.9-2.8-4-.1-7.8.8-1.1 2.4-1.8 3.7-2.5 1.5-.7 1.6-1.5.8-2.7-1.3-2-1.6-4.6-4-6-2.8-1.6-3.6-1.5-5.1 1.3-3.2 5.7-6.2 11.5-9.3 17.3-.8 1.5-1.8 2.9-2.6 4.2 3 2 6 3.8 9 5.8.8.6 1.5 1.5 2 2.3 2.1 4 2.6 8.3 3.3 12.6.1.7.1 1.5.4 2.1 1.1 2.5-.4 4.8-.6 7.1 0 .4-1.5 1.2-2.2 1-2.1-.5-4.1-1.2-5.6-3-.9-1.1-2.2-1.8-3.3-2.6-2.8-2.2-3.1-3.5-1.8-6.7.4-.9.8-1.8 1.3-3-3.3.7-5.3-1.1-7.7-2.7-1.1 2.4-.8 4.5.8 6.6 5.7 7.1 11.3 14.3 17 21.4.3.4.7.7.8 1.1 1.8 5.9 4.1 11.8 3.5 18.1-.1 1.6-.5 3.2-1.1 4.8-.8 2.3-2.6 2.9-4.7 1.6-2.4-1.5-4.1-3.7-5.4-6.1-.6-1.1-1.2-2.3-2.1-3.2-2.5-2.6-3.7-5.3-1-8.6-3.4-2.4-4.9-5.9-6.6-9.4-1-2.2-2.5-4.1-4.2-5.8-3.6-3.7-7.5-7.2-11.2-10.9-1.5-1.5-2.9-2.9-4.3-4.4-3.3-3.3-2.6-6.1-1.1-10 .6-1.5 1.5-2.8 2.3-4.3-1.3-.4-2.3-.8-3.4-1.2-5.7-2-11.3-4-17-5.9-.6-.2-1.2-.4-1.8-.7-3.7-1.9-4.7-4.2-3.5-8.2 1.1-3.7 3.4-6.5 6.1-9 3.9-3.7 7.7-7.3 11.5-11 1.5-1.5 2.2-2.7.9-5.1-2.2-4.4-4.3-9-6.2-13.7-1.6-4-1.9-8.1-.6-12.3 1.5-4.5 2.8-9.2 4.6-13.6 1-2.5 2.6-4.7 4.3-6.8 2.7-3.2 5.6-6.1 8.5-9 1.3-1.2 1.7-2.3 1.5-4-.9-5.2-3.4-9.6-5.9-14.1-.2-.3-.9-.5-1.3-.4-.9.3-2 .1-2.4 1.6-.7 3-1.5 6-2.3 8.9-.4 1.5-1 3.2-1.9 4.5-1.8 2.8-1.9 5.9-2.2 9-.5 4.9-1.3 9.8-2.2 14.7-.4 2.3-1.7 4.1-3.9 5.6-1.5.9-2.4 2.9-3.3 4.5-.7 1.2-.9 2.6-1.5 3.9-.7 1.4-1.3 2.9-2.3 4.1-.6.8-1.8 1.1-2.6 1.6-.4-1.1-1.3-2.2-1.1-3.2.2-2 .9-3.9 1.3-5.8.7-2.8.3-4.3-1.5-6.1.2-1.8.4-3.4.5-5.1.4-2.8.8-5.6 1-8.5.2-1.9.9-4-1.2-5.6-.6-.4-.7-2-.6-3.1.1-1.3.6-2.5.9-3.7.7-2.7 1.4-5.6 2.2-8.2 1.3-4.1 2.7-8.1 4-12.3.2-.6.3-1.4.1-2-1.6-4.1-.8-7.8 1.5-11.5 2.2-3.3 4.4-6.7 6.1-10.2 2.4-4.7 8.4-6.3 12.1-5.5 4.1.8 8 2 12 3.1.4.1.9.4 1.2.7 2.7 3.3 5.6 6.4 6.6 10.9 2.2 9 2.4 17.9-1.2 26.6-.5 1.3.3 2.4 2 2.6 2.3.2 4.7.2 7 .4 5.1.4 10.1.6 15.1 1.4 4.5.7 8.1 3.3 10.9 7.1.4.4 1.1 1.1 1.5.9 2.8-.8 5.3.2 7.9.8.3.1.6.1 1.1.3.2-1.5.3-2.9.7-4.3.4-1.7.9-3.3 1.6-4.9.7-1.6.8-2.9-.4-4.4-3.9-5-4.2-10.9-3.8-16.8.4-5.2.8-10.4 1.1-15.5.1-1.6-.1-3.3-.4-4.9-.4-3.3-2.8-5.2-4.9-7.4-6.6-6.1-10.7-13.3-11.5-22.3-.2-2.5.6-4.4 2.4-6.1 5.4-5 10.7-10.1 15.9-15.2 2-1.9 1.9-2.8 0-4.8-2.2-2.2-4.4-4.1-6.4-6.4-2.4-2.8-3.5-6.1-2.7-9.9.4-1.6 1.1-2.8 2.6-3.7 4.9-2.5 10.1-3.5 15.6-2.5.6.1 1.5-.1 2-.5 1.4-1.1 2.7-2.3 3.9-3.5 2-1.9 5.1-1.8 6.8.4.7.9 1.2 1 2.2.6 2.9-1 5.6.9 5.8 4 .1 1.7 0 3.4 0 5.1 0 1.8.7 3 2.7 3.7 4.9 1.8 9.4 4.2 11.7 9.4 1.3 3 1.5 7.4-2 10-6.2 4.6-12.8 6.8-20.3 4.1-2.7-1-5.1-1.5-7.4.8-.9.9-2.3 1.5-3.7 2-4.4 1.9-7.8 5.1-11.1 8.3-2 1.9-2.2 3.4-.5 5.6 2.7 3.5 5.7 7 8.5 10.4.9 1.1 1.8 1 2.7.1.6-.6 1.2-1.1 1.8-1.7 1.3-1.5 2.7-2.7 4.9-2.4.8.1 1.7-.2 1.7-1.5 0-.8.4-2 .8-2.2.9-.3 2.3-.3 3.1.3 1 .7 1.6 1.9 2.3 3 .6 1.1 1 2.2 1.6 3.3.2.3.7.4 1.1.4.1 0 .4-.6.4-.9 0-1.1-.2-2.1-.3-3.1-.3-2.5.4-3.9 2.6-5.2.5-.3.8-1.1 1.2-1.6.4-.6.8-1.6 1.5-1.8 3.5-1.1 7-2.4 10.5-3 3.7-.7 7.2.5 10.3 2.5.7.4 1.1 1.4 1.8 2.1.4.5.7 1.2 1.2 1.4 1.6.6 2.3 1.8 3 3.2.6 1.1 1.4 2 2 3 .4.7.4 1.5.8 2.2 1.8 3.7 1.4 6.8-2.3 9.3-.8.5-1.3 1.6-1.8 2.6-.6 1.3-1.7 1.6-2.9 1.4-2.3-.4-4.4.5-5.4 2.5-1.1 2.3-2.3 2.8-4.9 2.3-.5-.1-1 0-1.5.2-2.6 1-5.1 1.7-7.6 2.4zm12.9 204.2c.3 0 .5 0 .7.1 1.3-2.2 2.7-4.2 3.9-6.4 1.1-2.1 2-4.3 3.1-6.4 1-1.8 2.2-3.4 3.2-5.2.3-.5.3-1.4 0-1.9-3-5-6-10-9.1-14.9-.9-1.4-2.1-2.6-3.1-3.9-.2.1-.4.1-.6.2.6 12.8 1.2 25.6 1.9 38.4zm-19.7-166.9c-.3 0-.6-.1-.9-.1-.7 3.6-1.5 7.2-2.2 10.8-.2 1-.2 2.2.2 3.1 1.5 3.9 1.2 8 1.1 12.1-.1 2.6 0 5.2 2 7.1 1.5-.5 2.8-.9 4.2-1.5 1.1-.4 1.5-1.2.8-2.3-2.6-4.2-4.2-8.6-4.7-13.5-.4-4.2-1.5-8.3-.6-12.5.3-1.1.1-2.2.1-3.2zm-88.6 92.7c1.6-3.5 3.1-6.8 4.7-10.4-4 2.2-7.7 4.1-11.5 6.2 2.4 1.4 4.5 2.7 6.8 4.2z"/><path class="color-gold color-main color-reserved-white" fill="#ffc62a" d="M347.4 423.3c-.6-12.8-1.3-25.6-1.9-38.4.2-.1.4-.1.6-.2 1.1 1.3 2.2 2.5 3.1 3.9 3.1 4.9 6.1 9.9 9.1 14.9.3.5.3 1.4 0 1.9-1 1.8-2.2 3.4-3.2 5.2-1.1 2.1-2 4.3-3.1 6.4-1.2 2.2-2.6 4.2-3.9 6.4-.2 0-.5-.1-.7-.1zm2.8-11.1c1.6-2.4 3-4.5 4.3-6.7.3-.5.3-1.5 0-2-1.1-2.2-2.5-4.4-3.7-6.5-.4-.6-.8-1.3-1.4-2.2.2 5.9.5 11.5.8 17.4zm-22.5-155.8c0 1.1.2 2.2 0 3.2-.9 4.2.1 8.3.6 12.5.5 4.9 2.1 9.4 4.7 13.5.7 1.1.2 1.9-.8 2.3-1.3.6-2.7 1-4.2 1.5-2-2-2.1-4.6-2-7.1.1-4.1.4-8.1-1.1-12.1-.4-.9-.4-2.1-.2-3.1.7-3.6 1.5-7.2 2.2-10.8.2 0 .5 0 .8.1zm-88.6 92.7c-2.3-1.5-4.4-2.8-6.8-4.2 3.8-2.1 7.5-4.1 11.5-6.2-1.6 3.5-3.1 6.8-4.7 10.4z"/></svg>