<svg version="1.0" width="739.33" height="739.33" xmlns="http://www.w3.org/2000/svg"><defs><filter id="a" color-interpolation-filters="sRGB" x="-.017" y="-.062" width="1.033" height="1.123"><feGaussianBlur stdDeviation="1.311"/></filter><filter id="b" color-interpolation-filters="sRGB" x="-.017" y="-.062" width="1.033" height="1.123"><feGaussianBlur stdDeviation="1.311"/></filter><filter id="c" color-interpolation-filters="sRGB" x="-.017" y="-.062" width="1.033" height="1.123"><feGaussianBlur stdDeviation="1.311"/></filter><filter id="d" color-interpolation-filters="sRGB" x="-.017" y="-.062" width="1.033" height="1.123"><feGaussianBlur stdDeviation="1.311"/></filter><path id="e" d="M265.058 316.991h255.386v203.321H265.058z"/></defs><path stroke-width="2.127" stroke="#000" fill-rule="evenodd" d="M371.435 13.825c-54.64 2.39-226.74-3.12-226.74 46.41v586.15c0 49.53 100.33 89.405 224.97 89.405 124.63 0 224.97-39.875 224.97-89.405V60.235c0-49.53-153.4-43.972-223.19-46.41z"/><path stroke="#000" stroke-width="1.988" fill="none" d="M144.694 132.485v510.8c0 43.237 100.37 78.055 225.03 78.055s225.03-34.818 225.03-78.055v-510.8z"/><path stroke-width="14.601" stroke="#1d1d1d" d="M471 76.071c0 30.1-90.438 54.5-202 54.5s-202-24.4-202-54.5 90.438-54.5 202-54.5 202 24.4 202 54.5z" transform="matrix(1.1601 0 0 1.0759 57.598 -15.054)"/><path stroke-width="14.601" stroke="#1d1d1d" d="M471 76.071c0 30.1-90.438 54.5-202 54.5s-202-24.4-202-54.5 90.438-54.5 202-54.5 202 24.4 202 54.5z" transform="matrix(1.1601 0 0 1.0759 57.598 181.135)"/><path stroke-width="14.601" stroke="#1d1d1d" d="M471 76.071c0 30.1-90.438 54.5-202 54.5s-202-24.4-202-54.5 90.438-54.5 202-54.5 202 24.4 202 54.5z" transform="matrix(1.1601 0 0 1.0759 57.598 590.695)"/><path stroke-width="14.601" stroke="#1d1d1d" d="M471 76.071c0 30.1-90.438 54.5-202 54.5s-202-24.4-202-54.5 90.438-54.5 202-54.5 202 24.4 202 54.5z" transform="matrix(1.1601 0 0 1.0759 57.598 398.165)"/><path opacity=".075" d="M471 76.071c0 30.1-90.438 54.5-202 54.5s-202-24.4-202-54.5 90.438-54.5 202-54.5 202 24.4 202 54.5z" transform="matrix(1.1601 0 0 1.0759 57.093 -14.284)" filter="url(#a)" stroke="#cacaca" stroke-width="7.161"/><path opacity=".075" d="M471 76.071c0 30.1-90.438 54.5-202 54.5s-202-24.4-202-54.5 90.438-54.5 202-54.5 202 24.4 202 54.5z" transform="matrix(1.1601 0 0 1.0759 57.093 181.915)" filter="url(#b)" stroke="#cacaca" stroke-width="7.161"/><path d="M143.427 195.845h452.31v67.014h-452.31z"/><path opacity=".075" d="M471 76.071c0 30.1-90.438 54.5-202 54.5s-202-24.4-202-54.5 90.438-54.5 202-54.5 202 24.4 202 54.5z" transform="matrix(1.1601 0 0 1.0759 57.093 398.935)" filter="url(#c)" stroke="#cacaca" stroke-width="7.161"/><path d="M143.427 412.235h452.31v67.014h-452.31z"/><path opacity=".075" d="M471 76.071c0 30.1-90.438 54.5-202 54.5s-202-24.4-202-54.5 90.438-54.5 202-54.5 202 24.4 202 54.5z" transform="matrix(1.1601 0 0 1.0759 57.093 590.465)" filter="url(#d)" stroke="#cacaca" stroke-width="7.161"/><path d="M143.427 605.055h452.31v67.014h-452.31z"/><path d="M272.93 338.457v10.684h6.328q3.183 0 4.707-1.309 1.543-1.328 1.543-4.043 0-2.734-1.543-4.023-1.524-1.309-4.707-1.309zm0-11.992v8.789h5.84q2.89 0 4.296-1.074 1.426-1.094 1.426-3.32 0-2.208-1.426-3.301-1.406-1.094-4.296-1.094zm-3.946-3.242h10.079q4.511 0 6.953 1.875 2.441 1.875 2.441 5.332 0 2.675-1.25 4.257-1.25 1.583-3.672 1.973 2.91.625 4.512 2.617 1.621 1.973 1.621 4.942 0 3.906-2.656 6.035-2.657 2.129-7.559 2.129h-10.469z" aria-label="B" transform="translate(-3408.874 -4199.906) scale(13.52734)" style="font-size:40px;line-height:1.25;-inkscape-font-specification:'sans-serif, Normal';white-space:pre;shape-inside:url(#e);fill:#fff"/></svg>