<svg xmlns="http://www.w3.org/2000/svg" viewBox="0 0 612 612"><circle fill="#492F24" r="306" cx="306" cy="306"/><path class="color-white color-reserved-gray" fill="#fff" d="M139.4 258.6v-46.4c0-9.6 2.9-17.6 8.6-24.1 5.4-6 12.7-10 21.8-12 9.1-1.9 16.4-1 22 2.8s8.4 10.5 8.4 20.2v46.4c0 9-2.7 16.8-8.2 23.3s-12.9 10.7-22.2 12.8c-9.2 2-16.6.9-22.1-3.2-5.6-4.1-8.3-10.7-8.3-19.8zm23.6-53.5v50.5c0 3.1.5 5.3 1.5 6.8 1 1.2 2.8 1.6 5.3 1 2.8-.6 4.8-2.2 5.9-4.8.6-1.9.9-3.9.9-5.9v-50.5c0-2.5-.3-4.4-.8-5.7-1-2.1-3-2.8-6-2.2-2.8.6-4.8 2.1-5.9 4.6-.6 1.9-.9 4-.9 6.2z"/><path class="color-white color-reserved-gray" fill="#fff" fill-rule="evenodd" d="M262.3 263c-.8-.4-1.7-1-2.6-2s-1.5-3.1-1.5-5.1v-24.8c0-3.4-1-6-3-7.9-1.9-2.1-4.6-3-8-2.9 4.8-2.4 8-5.5 9.6-9.1 1.2-3 1.8-7.1 1.8-12.3 0-7.3-1.8-12-5.6-14.1-3.8-2.2-9.9-2.3-18.3-.5l-25 5.4v81.6l19-3.9v-35.3l3.5-.8c2.6-.6 4.4-.4 5.5.5s1.6 2.5 1.6 4.7c0 0 .4 23.3 1.4 26.8s3 8.6 10.6 13.1c4.6 2.7 16.2 0 16.2 0l.5-14s-2.6 1.9-5.7.6zm-33.7-63.5v18.6l4.5-1c2.7-.6 4.5-1.9 5.5-3.9l.6-2.6.4-4.5c0-3.2-.3-5.3-.9-6.4-1-1.4-3.1-1.7-6.5-1l-3.6.8z" clip-rule="evenodd"/><path class="color-white color-reserved-gray" fill="#fff" d="M266.8 259.1v-81.6l42-9v15.7l-23.1 5v16.2l20.2-4.3v15.7l-20.2 4.3v18.2l24-5.2v15.7l-42.9 9.3zm51.3-33.3v-37.1c0-7.7 2.3-14.1 6.9-19.3 4.3-4.8 10.1-8 17.5-9.6 7.3-1.6 12.9-1.4 16.9.5 4.9 2.3 7.4 7.1 7.4 14.3v9.1l-18 3.9v-8.2c0-4.3-2-6-6-5.2-2 .4-3.6 1.7-4.8 3.8-.7 1.6-1 3.3-1 4.9v40.4c0 2.5.4 4.3 1.2 5.5.8 1 2.2 1.3 4.2.8 4-.9 6.1-3.3 6.1-7.4v-10.5l-6.7 1.4V198l25-5.4v45l-16.5 3.6v-4c-4.1 5.6-8.4 7.2-14.8 8.5-6.1 1.3-10.7-.1-13.8-4.2-2.4-3.5-3.6-8.7-3.6-15.7zm57.1-12.3v-37.1c0-7.7 2.3-14.1 6.9-19.3 4.3-4.8 10.1-8 17.5-9.6 7.3-1.6 13.1-.8 17.6 2.2 4.5 3.1 6.7 8.4 6.7 16.1V203c0 7.2-2.2 13.4-6.6 18.6-4.4 5.2-10.3 8.6-17.8 10.2-7.4 1.6-13.3.7-17.7-2.5-4.4-3.2-6.6-8.5-6.6-15.8zm18.9-42.8v40.4c0 2.5.4 4.3 1.2 5.5.8 1 2.2 1.3 4.2.8 2.3-.5 3.8-1.8 4.7-3.9.5-1.5.7-3.1.7-4.8v-40.4c0-2-.2-3.5-.6-4.6-.8-1.7-2.4-2.2-4.8-1.7-2.3.5-3.8 1.7-4.7 3.7-.4 1.6-.7 3.2-.7 5zm38.2 52.8v-81.6l20.6-4.4 15.2 44.8.2-48.2 18.3-3.9v81.6l-20.5 4.4-15.3-47.2-.2 50.5-18.3 4zM47.2 376.2l22.9-4.9v7.5c0 3.4.5 5.8 1.4 7.1 1.4 1.8 3.5 2.4 6.5 1.8 2.5-.5 4.4-1.7 5.9-3.6s2.2-3.9 2.2-6c0-4.6-2.9-8.7-8.6-12.3l-10.1-5.4c-7.4-4.5-11.8-7.4-13-8.7-1.8-1.8-3.3-4.1-4.5-7-.9-2.8-1.4-5.9-1.4-9.3 0-9.5 2.6-17.2 7.8-23.1s12.6-9.9 22.4-12c9.9-2.1 17.3-1.5 22.2 2 4.9 3.5 7.3 9.2 7.3 17.3v9.2l-22.1 4.7V328c0-3.1-.4-5.5-1.2-7.3-1.2-2.2-3.3-3-6.3-2.4-2.5.5-4.5 1.6-5.9 3.2-1.5 1.6-2.2 3.7-2.2 6.2 0 3.2 3 6.7 9.1 10.3l10.5 5.8c9.3 6.3 14.6 10.3 15.8 12.2 2.6 4 3.9 9.6 3.9 16.8 0 6.3-2.3 12.4-6.8 18.2-5.8 7.5-14.2 12.4-25.3 14.8-10.5 2.3-18.5 1.1-24-3.5-4.4-3.7-6.5-8.7-6.5-15.2v-10.9zm71.2 19.3v-81.6l18.9-4.1v30.6l10.9-2.3v-30.6l18.9-4.1V385l-18.9 4.1v-34.7l-10.9 2.3v34.7zm57.1-34.6v-37.1c0-7.7 2.3-14.1 6.9-19.3 4.3-4.8 10.1-8 17.5-9.6 7.3-1.6 13.1-.8 17.6 2.2 4.5 3.1 6.7 8.4 6.7 16.1v37.1c0 7.2-2.2 13.4-6.6 18.6-4.4 5.2-10.3 8.6-17.8 10.2-7.4 1.6-13.3.7-17.7-2.5-4.4-3.1-6.6-8.4-6.6-15.7zm18.9-42.7v40.4c0 2.5.4 4.3 1.2 5.5.8 1 2.2 1.3 4.2.8 2.3-.5 3.8-1.8 4.7-3.9.5-1.5.7-3.1.7-4.8v-40.4c0-2-.2-3.5-.6-4.6-.8-1.7-2.4-2.2-4.8-1.7-2.3.5-3.8 1.7-4.7 3.7-.4 1.5-.7 3.2-.7 5zm38.2 52.7v-81.6l25-5.4c8.4-1.8 14.5-1.7 18.3.5 3.8 2.1 5.6 6.8 5.6 14.1 0 5.2-.6 9.3-1.8 12.3-1.6 3.6-4.8 6.7-9.6 9.1 3.4-.1 6.1.8 8 2.9 2 1.9 3 4.5 3 7.9v24.8c0 2 .7 3.5 2 4.6l-18.7 4c-.6-.5-1.2-2-1.6-4.4-.3-2.1-.4-4.1-.5-6 0-1.9-.1-3.4-.1-4.5v-13.1c0-2.2-.5-3.8-1.6-4.7-1.1-.9-2.9-1.1-5.5-.5l-3.5.8V367l-19 3.9zm18.9-71.8v18.6l4.5-1c2.7-.6 4.5-1.9 5.5-3.9l.6-2.6.4-4.5c0-3.2-.3-5.3-.9-6.4-1-1.4-3.1-1.7-6.5-1l-3.6.8zm35.1-5.7v-15.7l43.3-9.3v15.7l-12.2 2.6v65.9l-18.9 4.1v-65.9l-12.2 2.6zm77.2 75.6V249.8l18.9-4.9v103.3l30.4-7.1v15.8L363.8 369z"/><path class="color-white color-reserved-gray" fill="#fff" d="M394.2 337.2v-81.6l18.9-4.1v81.6zm29.4-6.1v-81.6l20.6-4.4 15.2 44.8.2-48.2 18.3-3.9v81.6l-20.5 4.4-15.3-47.2-.2 50.5-18.3 4zm62.8-13.5V236l42-9v15.7l-23.1 5v16.2l20.2-4.3v15.7l-20.2 4.3v18.2l24-5.2v15.7z"/><path class="color-white color-reserved-gray" fill="#fff" fill-rule="evenodd" d="M532.7 425.4c-2.6-7.3-13.3-8.1-17.1-8-18.5 1.1-34.4 12.4-42.5 19.7l-8.4 9 11.2-6.6c7.4-6.6 19.6-12.5 32.7-15.5 3.4-.7 15.8-3.2 18.7 3.2 1.7 3.9.6 9.6-34.1 23.2-27.8 12.3-45.7 17.2-72.5 21.4-18.2 2.8-34.4.9-50.1-3.4-11.1-3.1-19.1-6.1-24.4-12h.1c-1.9-2.5-2-4.1-2-7.7-.1-1.9-.1-2.8-.2-4.7-.2-4.6-.3-6.8-.6-11.3-.2-2.6-1.3-4.8-3-6.4-1.7-1.7-4.1-2.7-7-3 3.9-1.4 6.5-3.5 7.7-6.2.9-2.1 1.2-5.3 1-9.4-.3-5.8-2-9.8-5.2-11.9-3.1-2.2-8.2-3-15.3-2.7-8.5.3-12.8.4-21.8.3v64.3c7.5.4 11.1.5 18.2.5-.1-9.4-.3-18.7-.6-28.1 1.2 0 1.9-.1 3.1-.1 2.4-.1 4 .3 5 1.1 1 .9 1.5 2.1 1.6 3.9.2 4.1.3 6.1.4 10.3.1.9.1 2.1.2 3.6 0 1.6.1 3.3.5 5 2.2 9.5 11 18.2 32.1 23.3 19.2 4.6 38.5 7.6 64.3 3.6 28.5-4.5 41.4-8.1 73.2-21.7 29.1-12.3 39.3-22.4 34.8-33.7zm-216-20.9c.1 6 .2 8.9.4 14.7 1.6 0 2.4-.1 4-.1 2.3-.1 3.9-.9 4.7-2.4.2-.8.3-1.2.4-1.9.1-1.4.1-2.1.2-3.5-.1-2.5-.4-4.3-1-5.2-.8-1.2-2.7-1.7-5.6-1.6h-3.1z" clip-rule="evenodd"/><path class="color-white color-reserved-gray" fill="#fff" d="M348.7 456c2.7-17.5 4.8-35.1 7-52.8 6.6-1 9.9-1.5 16.6-2.9 4.7 16.2 10.3 32.1 14.4 48.5-5.5 1.3-8.2 1.9-13.6 3-.5-3.7-.9-5.5-1.5-9.1-3.6.7-5.4 1-9 1.7-.3 3.8-.5 5.7-1 9.6-5.1.9-7.7 1.3-12.9 2zm14.7-21c2.6-.4 3.8-.7 6.4-1.2-2-9.7-3.2-14.4-5.1-24.1-.6 10.2-.7 15.1-1.3 25.3zm27.3 13c-.7-17-2.8-33.8-4-50.7 5.2-1.2 8-2 13.2-3.2 1.2 16.9 3.4 33.7 4 50.7-5.2 1.2-7.9 1.9-13.2 3.2zm19.1-4.9c-.7-17-2.8-33.7-3.9-50.6 5-1.3 7.5-1.9 12.3-3.1 1 13.4 2.7 26.8 3.6 40.3 5.3-1.5 7.9-2.3 13.1-3.9.3 3.9.4 5.9.6 10.1-10.2 3.1-15.3 4.5-25.7 7.2zm29.6-8.6c-1-16.7-3-33.2-4.4-49.8 6.2-1.8 9.3-2.8 15.5-4.9 5.2-1.8 9.1-2.3 11.6-1.5s4 3.4 4.5 7.6c.3 3.1.2 5.5-.4 7.4-.8 2.3-2.7 4.5-5.5 6.5 2.2-.5 3.9-.2 5.3.7 1.3.9 2.2 2.3 2.4 4.3.3 3.4.5 5.2.9 8.7.1 1.4.2 2.2.3 3.6 0 .5.1 1 .1 1.5s.1.9.1 1.5c.1 1.3.6 2.2 1.5 2.7-4.7 2-7 2.9-11.7 4.7-.4-.3-.9-1.3-1.3-2.7-.3-1.3-.5-2.6-.6-3.8-.1-1.2-.2-2.1-.3-2.8-.3-3.2-.4-4.8-.8-8-.1-1.3-.6-2.2-1.3-2.6-.7-.4-1.9-.3-3.5.3-.9.3-1.3.5-2.2.8.9 8.4 1.3 12.6 1.9 21.8-4.9 1.7-7.3 2.5-12.1 4zm8.1-45.1c.4 4.4.7 6.6 1.1 11 1.1-.4 1.7-.6 2.8-1 1.7-.6 2.8-1.5 3.3-2.9.1-.6.1-.9.2-1.6v-2.7c-.2-1.9-.5-3.2-1-3.7-.6-.7-2.1-.7-4.2 0-.8.5-1.3.6-2.2.9zM474 407c-.9-9-1.3-13.2-2.2-21.8-.5-4.5.6-8.6 3.3-12.4 2.5-3.6 6.4-6.7 10.9-8.9s7.9-2.7 10.6-1.6 4.2 3.9 4.7 8.3c.8 8.5 1.2 12.5 2.1 21.5.4 4.4-.4 8.8-2.6 12.9s-5.5 7.4-10.2 9.7c-4.7 2.3-8.4 2.6-11.4 1.1-3-1.3-4.7-4.4-5.2-8.8zm9.7-28.3c.9 9.4 1.3 13.9 2.2 23.8.1 1.5.5 2.6 1.1 3.2.5.5 1.5.4 2.7-.2 1.4-.7 2.3-1.8 2.8-3.3.2-1 .3-2.1.2-3.1-.9-9.9-1.3-14.4-2.1-23.7-.1-1.1-.3-2-.6-2.5-.6-.8-1.6-.9-3.1-.1-1.4.7-2.5 1.8-2.9 3.1-.3.7-.4 1.8-.3 2.8zm23.7 26.5c.8-17.7 1.9-35.3 2.6-53 4.8-2.7 7.1-4.1 11.7-6.9 4.6 14.6 9.1 29.2 13.2 44-3.9 2.3-5.8 3.5-9.6 5.7-.8-4.1-1.2-5.9-1.9-9.5-2.5 1.6-3.8 2.3-6.4 3.9 0 4 0 6 .1 10.4-3.8 2.1-5.7 3.2-9.7 5.4zM517 380c1.8-1.1 2.7-1.7 4.5-2.8-1.9-8.9-2.7-12.6-4.6-21.1.2 9.6.1 13.9.1 23.9zm20.4 7.8c-1.9-16.2-3.7-32.4-6.2-48.5 5.3-3.5 8-5.3 14-9.4 4-2.8 7.4-3.7 9.8-2.7 2 .9 3.5 3.2 4.1 6.9 1.4 8.3 1.9 11.9 3.3 22 .6 4.4-.2 9.3-2.5 13.9-1.9 3.9-4.6 6.9-7.8 8.9-6.2 3.8-9.1 5.5-14.7 8.9zm4.3-46.7c1.6 10.2 2.8 20.4 4.1 30.7.6-.4 1-.6 1.6-1 2.8-1.8 4.2-4.4 3.8-7.4-1.3-10.2-1.8-13.9-3.1-22.4-.4-2.5-2.1-2.8-4.8-.9-.7.4-1 .6-1.6 1z"/></svg>