<svg xmlns="http://www.w3.org/2000/svg" viewBox="0 0 612 612"><circle fill="#FEFEFE" r="306" cx="306" cy="306"/><path class="color-black" d="M82.8 87.7h446.5v436.7H82.8V87.7z"/><path class="color-stroke-black" fill="none" stroke="#000" stroke-width="12" d="M82.8 87.7h446.5v436.7H82.8V87.7z"/><path fill="#fff" d="M529.2 87.7v436.7H82.8V87.7h446.4m2.9-2.8H79.9v442.3H532V84.9h.1z"/><path fill="#fff" d="M170.8 218h-11.6v-98.3h35.7c9 0 13.5 5.6 13.5 16.7v25.3c0 2.4-.4 4.6-1.2 6.6-.8 2-1.7 3.3-2.6 4.1l-1.2.8c.3.1.7.4 1.1.8.5.5 1.2 1.6 2 3.4.8 1.8 1.3 3.8 1.6 5.8l3.7 34.6h-12l-3.6-31.5c-.4-4.1-2.3-6.2-5.6-6.2h-19.7V218zm0-85.1v34.4h20.5c1.5 0 2.7-.6 3.7-1.9.9-1.3 1.4-2.8 1.4-4.7v-21.4c0-4.3-1.7-6.5-5.1-6.5h-20.5zm62.1 70.7v-9.7c0-4.3 1.1-7.9 3.4-10.8 2.3-2.9 5.5-4.5 9.7-4.9l18.7-1.5V167c0-3.7-1.4-5.6-4.3-5.6h-24.5l.6-13.4h31.2c2.7 0 4.8 1 6.3 3.1s2.2 4.8 2.2 8.3V218h-8.1l-2.6-3.5-2.7 3.5h-18.9c-7.4 0-11-4.8-11-14.4zm11.5-7.3v2.7c0 3.9 1.6 5.9 4.7 5.9h11.1c2.9 0 4.4-2.1 4.4-6.3v-10l-15.9 1.4c-2.8.2-4.3 2.3-4.3 6.3zm72.7 21.7-2.5-3.1v34l-11.7 1.4V148h8.8l2.9 3.7 2.5-3.7h19c3.6 0 6.5 1.3 8.6 3.9 2.1 2.6 3.2 6 3.2 10.3v41.6c0 4.1-1 7.5-3.1 10.2-2.1 2.7-4.9 4-8.6 4h-19.1zm-2.7-50.7v31.6c0 4.1 1.5 6.2 4.5 6.2h13.4c3 0 4.5-2.1 4.5-6.2v-31.6c0-4.1-1.5-6.2-4.4-6.2H319c-3.1 0-4.6 2.1-4.6 6.2zm68.4-27.6h-11.5v-14.6h11.5v14.6zm-.4 78.3h-11.1v-70h11.1v70zm26-14.2v-41.6c0-4.3 1.1-7.8 3.2-10.3 2.1-2.6 5-3.9 8.6-3.9H439l2.9 3.9v-32.1l11.2-1.1V218h-8.4l-2.7-3.2-2.5 3.2h-19.3c-3.8 0-6.7-1.3-8.7-3.9-2.1-2.5-3.1-5.9-3.1-10.3zm11.1-36.5v31.6c0 4.1 1.5 6.2 4.5 6.2h13.4c3 0 4.5-2.1 4.5-6.2v-31.6c0-4.1-1.5-6.2-4.4-6.2h-13.4c-3 0-4.6 2.1-4.6 6.2zM106 335.7v-63.8c0-3.7.7-7.2 2-10.4 1.9-4.5 5.7-6.7 11.5-6.7h35.2l.7 12.9h-32.7c-3.4 0-5.1 2.1-5.1 6.2v59.7c0 4.2 1.5 6.3 4.5 6.3h33.4V353h-36c-4.9 0-8.4-1.5-10.5-4.4s-3-7.3-3-12.9zm74 2.8v-9.7c0-4.3 1.1-7.9 3.4-10.8 2.3-2.9 5.5-4.5 9.7-4.8l18.7-1.5V302c0-3.7-1.4-5.6-4.3-5.6H183l.6-13.4h31.2c2.7 0 4.8 1 6.3 3.1s2.2 4.8 2.2 8.3V353h-8.1l-2.6-3.5-2.6 3.5h-18.9c-7.4 0-11.1-4.8-11.1-14.5zm11.6-7.3v2.7c0 3.9 1.6 5.9 4.7 5.9h11.1c2.9 0 4.4-2.1 4.4-6.3v-10l-15.9 1.4c-2.8.3-4.3 2.4-4.3 6.3zm70.1 21.8h-11.6v-70h8.7l2.8 3.2 2.5-3.2h21.8c2.5 0 4.6 1 6.1 3s2.3 4.8 2.3 8.4V353h-11.7v-51.3c0-3.7-1.4-5.5-4.2-5.5h-12.3c-3 0-4.5 2-4.5 6V353zm59.4-11.4V283h11.7v51.3c0 3.7 1.4 5.5 4.2 5.5h11.8c3 0 4.5-2 4.5-5.9V283h11.6v88.1c0 4.2-1.1 7.6-3.3 10.3-2.2 2.6-5.1 3.9-8.9 3.9h-29.1l-.6-13.5h25.8c3 0 4.5-2.1 4.5-6.2v-16l-2.6 3.4h-21c-2.5 0-4.6-1-6.2-3-1.6-2-2.4-4.8-2.4-8.4zm69.4-2.8v-41.6c0-4.2 1-7.6 3.1-10.3 2.1-2.6 4.9-3.9 8.6-3.9h21.4c3.7 0 6.5 1.3 8.6 3.9 2.1 2.6 3.1 6 3.1 10.3v41.6c0 4.2-1 7.6-3.1 10.3-2.1 2.6-4.9 3.9-8.6 3.9h-21.4c-3.7 0-6.5-1.3-8.6-3.9-2.1-2.7-3.1-6.1-3.1-10.3zm11.1-36.5v31.6c0 4.1 1.5 6.2 4.5 6.2h13.4c3 0 4.5-2.1 4.5-6.2v-31.6c0-4.1-1.5-6.2-4.4-6.2h-13.4c-3.1 0-4.6 2-4.6 6.2zm70.9 50.7h-11.6v-70h8.7l2.8 3.2 2.5-3.2h21.8c2.5 0 4.6 1 6.1 3s2.3 4.8 2.3 8.4V353h-11.7v-51.3c0-3.7-1.4-5.5-4.2-5.5H477c-3 0-4.5 2-4.5 6V353zM239.6 488h-40.5v-98.3h11.6v85.2h28.9V488zm36-78.3h-11.5V395h11.5v14.7zm-.3 78.3h-11.1v-70h11.1v70zm38.6 0h-11.6v-70h8.7l2.8 3.2 2.5-3.2h21.8c2.5 0 4.6 1 6.1 3s2.3 4.8 2.3 8.4V488h-11.7v-51.3c0-3.7-1.4-5.5-4.2-5.5h-12.3c-3 0-4.5 2-4.5 6V488zm58.3-14.2v-41.6c0-4.3 1-7.8 3.1-10.3 2.1-2.6 4.9-3.9 8.5-3.9h21.3c3.7 0 6.6 1.3 8.7 3.9 2.1 2.6 3.1 6 3.1 10.3v14.5c0 4.5-1 7.9-2.9 10.3s-4.7 3.6-8.3 3.6h-19l-3.5-3.2v11.5c0 4.1 1.5 6.2 4.6 6.2H415l-.7 12.9H384c-3.8 0-6.7-1.3-8.7-3.8-2.1-2.6-3.1-6-3.1-10.4zm11.1-37.3v11.4h18.4c2.6 0 3.9-1.6 3.9-4.9v-6.2c0-3.8-1.5-5.8-4.5-5.8h-13.4c-2.9 0-4.4 1.9-4.4 5.5z"/></svg>