<svg xmlns="http://www.w3.org/2000/svg" viewBox="0 0 612 612"><circle fill="#004D95" r="306" cx="306" cy="306"/><path class="color-black" d="M413.3 178.1c1.5 1.1 2.5.4 4-.1 23.6-9.1 47-17.9 70.6-27.1 17.8-6.8 40.6-15.5 58.3-22.2v3.3c.1 3 .2 5.7.2 8.7-74 27.8-148.2 55.4-222.2 83.2.1 3.2.2 5.8.3 8.9 74.3-27.9 148.2-55.4 222.7-83.4 1.5 43.4 2.7 86.4 4.3 129.5-162.8 61.3-325.2 122.2-488.2 183.5-1.2-43.5-2.5-86.5-3.9-129.7C129 306.6 198.2 280.2 268 254c-.2-2.8-.2-5.8-.2-8.7-69.5 26.4-139.1 52.6-208.8 79.1-.3-3.6-.3-7.4-.5-11 1.1-.7 1.9-1.5 3-1.9 8.9-3.3 18.1-6.6 27-9.9 14.5-5.6 29-11.1 43.5-16.7 1.4-.5 2.8-1 4.1-1.8.7-.3 1-.9 1.5-1.6m175.2-34c-1.6 16.8-3.3 33.4-4.9 50-.2.1-.5.2-.8 0-.3-.9-.8-2.1-1.1-3.1-2.6-10.8-5.2-21.5-7.6-32.4-.7-2.7-1.4-5.3-2.2-8.3-1.6.6-2.8 1-4.2 1.5-2.1 16.2-4 32.1-5.9 48-.2.1-.6-.1-.8 0-2.9-13.9-5.9-27.9-8.7-42.1-4.2 1.5-8 2.9-12 4.4 6.3 32.6 12.5 65 18.9 97.8 2.8-1 5.2-1.9 7.5-2.7.6-4.2 1-8.3 1.5-12.6.6-4.2 1.2-8.4 1.7-12.9.6-4.2 1.2-8.4 1.6-12.3.6-4.2.2-8.3 1.1-12.4.2-.1.8 0 1-.1 3.4 14.5 7 28.6 10.5 43.3 2.4-.9 4.5-1.6 6.8-2.5 3.1-36 7-72.1 10-108.4-4.6 1.9-8.4 3.3-12.4 4.8zM97.5 327.6c.4 15 1 29.7 1.6 44.5-.5.2-.9.3-1.3.2-4.7-12.9-9.1-26.3-13.8-39.2-4 1.5-8 2.9-11.8 4.3 1.4 34.6 2.8 69 4 103.8 4.2-1.5 8.2-3 12-4.4-.7-18.1-1.2-36.1-1.8-53.9.2-.1.5-.2.7-.3.6.9 1.2 1.7 1.5 2.7.5 1.4.9 3.1 1.4 4.6 3.8 10.3 7.5 20.7 11.4 31.3 1.1 3.1 2.3 6.3 3.3 9.2 2.6-.9 4.9-1.8 7.3-2.7-1-34.8-2.2-69.5-3.2-104.3-3.6 1.4-7.3 2.8-11.3 4.2zm425.9-140.4c.1 5.3.3 10.3.4 15.6 0 5.1.8 10.1.2 15.1-.2.1-.5.2-.8 0-3.5-8.8-7-17.7-10.6-26.8-3.3 1.2-6.3 2.3-9.6 3.5.5 28.3 1.3 56.8 1.8 85.4 4-1.5 8-2.9 12-4.4-.6-14.2-.9-28.2-1.6-42.3.2-.1.5-.2.7-.3.6.9 1.1 1.5 1.4 2.4 3.2 8.7 6.1 17.5 9.3 26.2 1.1 3.1 2.2 6.1 3.6 9.1 2.8-1 4.9-1.8 6.8-2.5-.8-28.5-1.5-56.7-2.1-85.3-4.2 1.6-7.7 2.9-11.5 4.3zm-42.7 67c.5 1.4 1.2 2.5 1.6 3.7 2.7 8.1 5.1 16.2 7.9 24.6.3.9 1 2 1.4 3 3.8-1.4 7.3-2.7 10.6-3.9-3.5-11-6.9-21.7-10.3-32.7.4-.4.5-.7.9-1.1 2.9-1.6 3.5-4.2 3.5-7.1.1-1.9.1-4 0-5.9-.3-8.1-.5-16.6-.8-24.8-.3-6.8-4.4-9.9-10.7-8.1-6.8 1.9-13.2 4.8-19.5 7.1-.3 18.8 1.5 83.1 2.6 85.4 3.5-1.3 7.3-2.7 11.1-4-.2-11.6-.6-22.9-.9-34.6.3-.5 1.2-1.1 2.6-1.6zm-297 111.2c.5-.7 1.2-1.2 1.5-1.6 2.7-2.1 3.8-4.9 3.6-8.5-.3-3.1-.3-6-.3-8.9-.3-7.4-.4-15-.9-22.3-.3-5.2-3.9-7.7-8.9-6.9-1.3.2-2.3.3-3.5.7-4.9 1.8-9.6 3.8-14.5 5.6-1.2.4-2.4.9-3.4 1.5.7 28.2 1.7 56.4 2.4 84.7 4.2-1.5 7.8-2.8 11.5-4.2-.5-11.5-.9-22.9-1-34.3.9-.3 2-.5 3.1-.9 3.5 10.4 6.7 20.5 10.1 30.7 3.5-1.3 6.8-2.5 10.3-3.8-3.5-10.4-6.6-21-10-31.8zm-51.5-31 .1.2c-2.1.8-4.2 1.5-6.1 2.2-4.5 1.6-7.2 5-7.3 9.9-.2 4.6-.1 9.1-.1 13.6.5 13.7.6 27.2 1.3 40.8.2 5 .4 10 .9 14.9.4 4.1 2.8 5.4 6.8 4.7 6.1-.9 11.5-3.4 16.8-5.9 5.5-2.5 7.6-7 7.6-12.9-.2-2.6-.1-5.3-.1-7.7-.6-18.4-1.2-36.9-1.8-55.3-.1-4.7-4.4-9.9-11-7.5-2.6 1.4-4.8 2.2-7.1 3zm124-47.1c-3.8 1.4-7.3 2.7-11.1 4 .3 10.3.4 20.9.7 31.2-2.8 1-5.4 2-8.7 3.2-.4-10.5-.8-20.5-1.1-30.8-4 1.5-7.8 2.8-11.3 4.1 1 28.4 2.1 56.8 3.1 85.2 3.8-1.4 7.5-2.7 11.1-4-.5-14.5-.9-28.7-1.3-43 2.9-.8 5.5-2.5 8.5-2.3.6 14.2 1.1 27.8 1.5 42.1 2.1-.8 4-1.5 5.6-2.1 1.6-.6 3.5-1.3 5.6-2.1-1-28.5-1.8-57-2.6-85.5zM374 274.2c-.7-1.3-1.3-2.2-1.4-3-.3-3.6-.2-7.1-.2-10.8-.1-2.4 1.4-4.2 3.7-5.1 1.6-.6 3.4-2.3 5.2.3.2 2.1.4 4.7.4 7 3.8-1.4 7.3-2.7 10.8-3.9 0-1.3-.2-2.6 0-3.7-.3-3.6-.3-7.4-.9-11.1-.3-3.1-2.1-4.3-4.8-4.4-1.3 0-2.9 0-4.1.4-4.1 1.2-7.8 2.8-11.8 4.1-6.4 2.1-9.8 6.8-9.7 13.7.2 7.9.4 15.8.8 24 .3 5.2 4.1 7.6 9 5.8 2.4-.9 4.9-1.8 7.3-2.7 2.7-.7 4 .1 4.3 3 .3 6.8.5 13.7.7 20.2.1 5.3-2 7.7-7.5 8-.3-.1-.6-.3-.7-.5-.4-3.3-.8-6.6-1.3-10.2-3.8 1.4-7.3 2.7-11.1 4 .1 1.8-.1 3.3-.1 4.8.2 2.6.6 5.4.3 8.1-.6 5.8 5.9 8.8 9.9 7.3 4.7-1.7 9.2-3.3 13.8-5.3 4.5-1.6 6.6-5.3 7.4-9.6.3-1.4.5-3.1.3-4.9-.4-10-.9-19.9-1.3-29.9-.1-6.9-5.8-10.7-12.1-8.4-2.2 1.1-4.3 1.8-6.9 2.8zm85-50.2c0-4.3-.2-8.5 0-12.5-9.4 3.4-18.3 6.7-27.3 10 .9 28.7 1.8 56.9 2.9 85.3 9.2-3.3 18.1-6.6 26.8-9.8l-.6-12.6c-5.1 1.3-9.3 4.5-14.8 5.4-.3-10.3-.5-20.3-.9-30.3 3.1-1.1 5.6-2.1 8.2-3 0-3.7-.3-7.4-.2-11.6-2.8 1-5.4 2-8.2 3-.2-6.3-.4-12.1-.7-18.1 4.7-2.1 9.7-3.9 14.8-5.8zm-129 35.6c.8 28.5 1.5 56.7 2.3 85.2 8.5-3.1 16.7-6.1 24.9-9.1-.2-4.2-.2-7.9-.4-12.1-4.5 1.6-8.7 3.2-13.2 4.8-.1-10.4-.2-20.2-.4-30.2 3.1-1.1 6.1-2.2 8.7-3.2-.2-4.2-.2-7.9-.4-12.1-3.3 1.2-5.9 2.1-8.9 3.3-.2-6.3-.4-12.1-.6-18.4 4.5-1.6 8.9-3.3 13.2-4.8-.3-4.4-.4-8.4-.5-12.3-8.4 3-16.4 5.9-24.7 8.9zm-108.6 41c-10.3 4-20.3 7.9-30.5 11.9.1 4 .2 7.9.4 12.1 3.3-1.2 6.1-2.2 9.2-3.3.8 24.2 1.8 48.1 2.7 72.3 4.2-1.5 8-2.9 11.8-4.3-.8-24.2-1.7-48.4-2.7-72.5 3.3-1.2 6.3-2.3 9.6-3.5-.4-4.3-.5-8.2-.5-12.7zm198.5 11.7c-.8-24.2-1.9-48.3-2.8-72.8 2.6-.9 5.6-2.1 8.2-3-.3-4.4-.4-8.4-.5-12.3-9.9 3.6-19.3 7-28.7 10.5 0 4.5.2 8.5.4 12.9 3.3-1.2 5.9-2.9 9.2-3.3.7 24.5 1.4 48.5 2.3 72.7 3.9-1.8 7.6-3.1 11.9-4.7zm-122.1-79.1c-.2 2.5-.2 4.6-.2 7.5-2.1-2.2-3.8-3.9-5.5-5.7-.4.4-1.1.7-1.2 1-.1 4-.1 7.8-.1 12.3 1.1-.7 1.8-.9 2.5-1.2-.1-2.4-.1-4.7-.1-6.9.2-.1.2-.1.5-.2 1.7 1.8 3.1 3.4 4.9 5.4.7-.3 1.3-.7 2-1-.3-3.9-.4-7.6-.8-11.7-.8.4-1.3.3-2 .5zm5.9-2.1c.1 4 .2 7.9.6 11.8 2.8-.2 5.2-1.1 7.2-2.9 1.9-2 2.5-5.7 1-8.1-1.3-2.2-3.3-2.5-6.7-1.6-.7.3-1.2.5-2.1.8zm-22.1 8.1c-1.3 4.5-2.5 9.2-4 14 .9-.3 1.6-.6 2.1-.8.2-.9.7-1.8.9-2.7 1.6-.6 3.1-1.1 4.5-1.6.7.5 1.2 1.2 1.7 1.8.5-.2.9-.3 1.3-.7-1.4-3.8-2.7-7.3-4-11.1-.9.5-1.6.7-2.5 1.1zM64.2 483.4c-.4-4.7-.5-8.6-.6-12.6 162.6-61.2 325.2-122.1 488.1-183.4.2 4.5 1 12 1.8 17.4"/><path class="color-red" fill="#ee422a" d="M460.4 338.8c4-1.5 8.2-3 12.2-4.5-1.5 12-5.5 20.1-10.2 31.2-3.6 8.3-7.1 16.4-11.3 24.6-7 13.7-16.5 25.5-27.8 36.3-9.6 9.4-20.1 18-31.6 25.1-12.4 7.7-25.3 14-39.6 17.9-11.6 3.2-23.4 5.9-35.7 6.6-17.1 1.2-34.2.5-50.9-3.6-8.4-2-16.9-5.3-25.2-8.4-15.4-5.8-28.9-15.6-42.3-24.8-1.9-1.7-3.1-2.1-4.4-3.2 4.2-1.5 8.7-3.2 12.9-4.7.7.5 1 .5 1.7 1 13.3 10.1 27.7 17.6 43.4 23.3 16.6 5.9 33.3 8.9 51.2 8.8 16.7-.2 32.9-2.7 48.6-7.6 12.2-3.9 23.8-9.2 34.9-16.2 19.4-11.9 35.6-27.4 48.5-45.9 8.6-12.2 15-25.4 19.6-39.7m-67.7-183.5c-20.2-12.3-42-19.6-65.6-22.2-21.4-2.3-42.6.1-63.2 6.3-15.9 4.7-30.2 12.1-43.7 21.3-20 13.9-36 31.3-47.7 52.6-6.8 12.1-12 24.9-15.3 38.4-.8 3-.9 6.5-1.2 9.2-4 1.5-8.2 3-12.2 4.4 1.5-9.9 3.6-19.4 6.9-29.2 2.6-7.4 6.3-14.3 9.5-21.3 5.6-11.6 12.5-21.9 20.6-31.8 5.3-6.7 11.4-12.7 17.4-18.9 10.3-10.4 22.4-18.3 35-25.3 11.8-6.4 24.2-10.4 36.8-13.7 9.3-2.3 18.9-3.7 28.4-4.8 15.4-1.6 30.8-.3 45.8 3 12.7 2.8 24.9 6.9 36.7 12.2 13.1 5.9 24.6 14.2 36 22.8.7 1.3 1.6 2.3 2.6 3.6-4 1.5-8 3.1-12 4.5"/><path class="color-red" fill="#ee422a" d="M158.1 273.8c.3-1.4.5-3.6 1-5.1 5.6-21.2 15.3-40.5 29.4-57.4 13.1-16 28.9-28.9 47.5-38.4 18-9.2 37-15.4 57.3-16.7 18.5-1.2 36.7.5 54.4 6 16.2 5.6 31.3 13.6 45.1 23.5M349 202"/><path fill="#fff" d="M312.8 247.5c4-1.5 7.8-2.8 12-4.4-2.9 36.5-6.7 72.2-10 108.4-2.4.9-4.5 1.6-6.8 2.5-3.5-14.7-7.1-28.9-10.5-43.3-.2.1-.8 0-1 .1-.9 4.1-.7 8.3-1.1 12.4-.6 4.2-1.2 8.4-1.6 12.3-.6 4.2-1.2 8.4-1.7 12.9-.6 4.2-1 8.3-1.5 12.6-2.4.9-4.7 1.7-7.5 2.7l-18.9-97.8c4-1.5 7.8-2.8 12-4.4 3 14.1 6 28.2 8.7 42.1.2-.1.6.1.8 0 1.9-15.9 4.1-31.9 5.9-48 1.4-.5 2.6-.9 4.2-1.5.8 2.9 1.5 5.6 2.2 8.3 2.6 10.8 5.2 21.5 7.6 32.4.1 1 .8 2.1 1.1 3.1.2-.1.5-.2.8 0 1.8-16.9 3.5-33.5 5.3-50.4zM97.5 327.6c3.8-1.4 7.5-2.7 11.8-4.3 1 34.8 2.2 69.5 3.2 104.3-2.4.9-4.7 1.7-7.3 2.7-1.1-3.1-2.2-6.1-3.3-9.2-3.8-10.3-7.5-20.7-11.4-31.3-.5-1.4-.9-3.1-1.4-4.6-.3-.9-.9-1.8-1.5-2.7-.2.1-.5.2-.7.3.7 17.9 1.1 35.8 1.8 53.9-4 1.5-8 2.9-12 4.4-1.4-34.6-2.8-69-4-103.8 3.8-1.4 7.8-2.8 11.8-4.3 4.7 12.9 9.1 26.3 13.8 39.2.5-.2.9-.3 1.3-.2-1.1-14.6-1.5-29.4-2.1-44.4zm295.1-141.8c-13.8-10.1-29.2-17.9-45.5-23.1-17.7-5.5-35.9-7.1-54.4-6-20.3 1.3-39.4 7.4-57.3 16.7-18.4 9.4-34.2 22.3-47.5 38.4-14 17.1-23.3 36-29.1 57.3-.3 1.4-.5 3.2-.9 4.8-2.8 1-5.1 2.1-8 3.2.5-3.1-.5-6.4.3-9.4 3.3-13.5 8.5-26.3 15.3-38.4 12-21.2 27.7-38.6 47.7-52.6 13.6-9.5 28-16.6 43.7-21.3 20.7-6.2 41.6-8.5 63.2-6.3 23.6 2.6 45.4 9.8 65.6 22.2 4.2 2.7 8.4 5.5 12.3 8.3 1 .7 2.6 1.8 3.5 2.8m121.9 4.8c3.8-1.4 7.3-2.7 11.3-4.1.8 28.5 1.5 56.7 2.1 85.3-1.9.7-4.2 1.5-6.8 2.5-1.1-3.1-2.5-6-3.6-9.1-3.2-8.7-6.1-17.5-9.3-26.2-.3-.7-1.1-1.5-1.4-2.4-.2.1-.5.2-.7.3.5 13.9.9 28.2 1.6 42.3-4 1.5-7.8 2.8-12 4.4-.6-28.6-1.1-57.1-1.8-85.4 3.3-1.2 6.3-2.3 9.6-3.5 3.6 9.1 7.1 17.9 10.6 26.8.2-.1.5-.2.8 0 .6-5-.2-10.1-.2-15.1.1-5.5.1-10.6-.2-15.8zm-42.7 67c-1.4.5-2.3 1.1-3.2 1.4.2 11.6.6 22.9.9 34.6-3.8 1.4-7.3 2.7-11.1 4-.9-2.4-3-66.6-2.6-85.4 6.6-2.4 12.8-5.2 19.5-7.1 6.3-1.8 10.1 1.4 10.7 8.1.4 8.4.7 16.5.8 24.8.2 2.1.1 4 0 5.9 0 2.9-.6 5.6-3.5 7.1-.2.1-.6.5-.9 1.1 3.4 10.8 6.8 21.5 10.3 32.7-3.5 1.3-6.8 2.5-10.6 3.9-.3-.9-1-2-1.4-3-2.7-8.1-5.1-16.2-7.9-24.6.2-1-.5-2.1-1-3.5zm-3.2-11.7c4.7-.4 7.4-3 7.3-6.4-.1-4.7-.1-9.8-.3-14.6-.1-1.8-.6-3.8-.7-5.6-3-1-5 .2-7.2 1.5.2 8.4.5 16.8.9 25.1zM183.7 365.4c3.4 10.8 6.5 21.4 9.8 31.9-3.5 1.3-6.8 2.5-10.3 3.8-3.5-10.2-6.6-20.2-10.1-30.7-1.2.4-2.2.5-3.1.9.5 11.5.9 22.9 1 34.3-3.8 1.4-7.3 2.7-11.5 4.2-.8-28.5-1.7-56.4-2.4-84.7 1.2-.4 2.3-1.1 3.4-1.5 4.9-2 9.6-3.8 14.5-5.6 1.2-.4 2.4-.6 3.5-.7 5-.8 8.6 1.7 8.9 6.9.6 7.5.7 14.9.9 22.3 0 2.9.1 6.1.3 8.9.5 3.5-.7 6.1-3.6 8.5-.1.3-.6 1-1.3 1.5zM169 333c-.8 5.1.4 23.8 1.5 25.3 3.9-.9 6.8-3.3 6.7-6.4.1-5.6-.2-11.4-.6-16.8-.2-2.6-1.8-3.6-4.4-3.2-.9.2-2 .7-3.2 1.1zm-36.8 1.4c2.4-.9 4.5-1.6 6.8-2.5 6.6-2.4 10.8 2.5 11 7.5.6 18.4 1.2 36.9 1.8 55.3.2 2.6.1 5.3.1 7.7.2 5.8-2.1 10.4-7.6 12.9s-10.9 5.1-16.8 5.9c-4 .7-6.2-.9-6.8-4.7-.7-4.8-.9-9.8-.9-14.9-.5-13.7-.9-27.4-1.3-40.8 0-4.5-.2-9.3.1-13.6.1-4.8 2.9-8.2 7.3-9.9 2.1-.8 4.2-1.5 6.1-2.2.3-.5.3-.5.2-.7zm6.7 11.7c-4.6-1.8-9 .9-9 5.2-.1 2.7.3 5.2.5 7.8.4 15 .8 29.8 1.4 44.8.1 1 .5 2.2.9 3.1 6.2-.6 8.1-2.7 8.4-8.4.1-1.1 0-2.1-.1-3.2-.3-6-.7-12-.7-17.9-.2-8.5-.3-16.9-.5-25.4-.6-2.1-.8-4.2-.9-6zm117.3-58.8c.8 28.5 1.8 56.9 2.6 85.4-2.1.8-3.8 1.4-5.6 2.1-1.6.6-3.5 1.3-5.6 2.1-.6-14.2-1.1-27.8-1.5-42.1-3-.2-5.6 1.5-8.5 2.3.5 14.5.8 28.5 1.3 43-3.5 1.3-7.3 2.7-11.1 4-1-28.4-2-56.6-3.1-85.2 3.5-1.3 7.3-2.7 11.3-4.1.3 10.3.7 20.2 1.1 30.8 3.1-1.1 5.9-2.1 8.7-3.2-.3-10.3-.4-20.9-.7-31.2 3.8-1.2 7.4-2.5 11.1-3.9zM374 274.2c2.6-.9 4.7-1.7 6.8-2.5 6.6-2.4 12 1.5 12.1 8.4.4 10 .9 19.9 1.3 29.9 0 1.6.1 3.2-.3 4.9-.7 4.5-2.9 8-7.4 9.6-4.7 1.7-9.2 3.3-13.8 5.3-4 1.5-10.2-1.6-9.9-7.3.1-2.7-.3-5.2-.3-8.1 0-1.6-.1-3.2.1-4.8 3.8-1.4 7.3-2.7 11.1-4 .5 3.5.9 6.9 1.3 10.2.1.2.4.4.7.5 5.5-.4 7.5-2.7 7.5-8-.1-6.9-.4-13.5-.7-20.2-.2-2.6-1.6-3.7-4.3-3-2.4.9-4.9 1.8-7.3 2.7-4.9 1.8-8.7-.5-9-5.8-.2-7.9-.5-16.1-.8-24 0-6.7 3.3-11.3 9.7-13.7 4-1.5 7.8-2.8 11.8-4.1 1.2-.4 2.8-.5 4.1-.4 2.9 0 4.5 1.3 4.8 4.4.5 3.5.5 7.3.9 11.1.2 1.3.1 2.4 0 3.7-3.5 1.3-7.1 2.6-10.8 3.9-.1-2.4-.5-4.9-.4-7-1.7-2.6-3.8-1-5.2-.3-2.1.8-3.7 2.4-3.7 5.1-.1 3.5 0 7.2.2 10.8.2.7.8 1.6 1.5 2.7zm85-50.2c-5.2 1.9-9.9 3.6-15 5.5.3 6 .6 11.8.7 18.1 2.8-1 5.4-2 8.2-3 .2 4.2.2 7.9.2 11.6-2.6.9-5.2 1.9-8.2 3 .2 10.1.6 20 .9 30.3 5.5-.9 9.8-3.8 14.8-5.4.2 4.2.3 8.1.6 12.6-8.7 3.2-17.6 6.4-26.8 9.8-1-28.4-2-56.6-2.9-85.3 8.7-3.2 17.9-6.5 27.3-10 .1 4.3.2 8.3.2 12.8zm-129 35.6c8.2-3 16.2-5.9 24.5-8.9.1 4 .5 7.8.5 12.3-4.2 1.5-8.7 3.2-13.2 4.8.2 6.3.4 12.1.6 18.4 3.1-1.1 5.6-2.1 8.9-3.3.2 4.2.2 7.9.4 12.1-2.8 1-5.6 2.1-8.7 3.2.2 10.1.3 19.9.4 30.2 4.7-1.7 8.7-3.2 13.2-4.8.2 4.2.2 7.9.4 12.1-8.2 3-16.5 6-24.9 9.1-.6-28.5-1.3-56.7-2.1-85.2zm-108.6 41c0 4.3.1 8.2.3 12.4-3.1 1.1-6.1 2.2-9.6 3.5.8 24.2 1.9 48.3 2.7 72.5-3.8 1.4-7.8 2.8-11.8 4.3-.8-24-1.7-47.9-2.7-72.3-3.1 1.1-5.9 2.1-9.2 3.3-.2-4.2-.3-8.1-.4-12.1 10.4-3.7 20.4-7.6 30.7-11.6zm198.5 11.7c-4 1.5-8 2.9-12 4.4-.8-24.2-1.6-48.2-2.3-72.7-3.3.4-5.8 2.4-9.2 3.3-.2-4.2-.2-8.5-.4-12.9 9.6-3.5 19-6.9 28.7-10.5.1 4 .2 7.9.5 12.3-2.8 1-5.6 2.1-8.2 3 1 24.8 1.8 49 2.9 73.1zm-122.1-79.1c.7-.3 1.2-.4 2.2-.5.3 3.9.5 7.8.8 11.7-.7.3-1.3.7-2 1-1.7-1.8-3.4-3.5-4.9-5.4-.2.1-.2.1-.5.2 0 2.1 0 4.5.1 6.9-.7.3-1.3.7-2.5 1.2 0-4.5-.1-8.2.1-12.3-.1-.2.6-.5 1.2-1 1.7 1.8 3.4 3.5 5.5 5.7v-7.5zm5.9-2.1c.7-.3 1.4-.5 1.9-.7 3.4-1 5.4-.6 6.7 1.6 1.4 2.4 1.1 6-1 8.1-1.9 2-4.3 2.9-7.2 2.9 0-4.1-.1-8-.4-11.9zm3 9c2.4-.6 3.7-1.6 3.8-3.5 0-1.3-.2-2.8-1-4.2-.7-1.1-2.2-.8-3.3.4-.1 2.2.2 4.5.5 7.3zm-25.1-.9c.9-.3 1.6-.6 2.7-1.3 1.4 3.8 2.7 7.3 4 11.1-.5.2-.9.3-1.3.7-.5-.6-1.2-1.2-1.7-1.8-1.4.5-3.1 1.1-4.5 1.6-.2.9-.5 1.5-.9 2.7-.5.2-1.2.4-2.1.8 1.2-4.7 2.5-9.1 3.8-13.8zm1.8 3.6c-.2.1-.6-.1-.8 0-.4 1.2-.5 2.3-1 3.8 1.4-.5 2.1-.8 3.1-1.1-.4-.9-.7-1.9-1.3-2.7z"/><path class="color-red" fill="#ee422a" d="M451.3 342.1c-1.2 4.7-2 6.4-3.4 11.1-6.8 20.9-19.5 38.5-34.4 54.5-15.1 16.2-33.1 28.3-53.7 36.9-15.3 6.4-31.3 9.8-47.6 11.2-10.3.8-20.7.3-31.2-1.4-18.7-3-36.3-8.9-52.5-18.4-4.3-3-8.3-5.2-12.8-8.1m190.8-45.8c.2-.1.3.1.6.1.2 5 .5 10.2.6 15.5 1.9-.7 3.3-1.2 4.9-1.8-.1-10.6-.6-21.4-1.2-32.6-2.3 1.1-4.1 1.8-5.6 2.3-2.3 6.7-3 13.6-5.5 19.9-.2.1-.6-.1-.8 0-1.9-5.2-3.8-10.3-5.7-15.5-1.9.7-3.3 1.2-4.9 1.8.2 10.8.5 21.7.8 32.2 2.1-.8 3.5-1.3 5.4-2 0-5.1-.2-10.1-.4-15 1.5 1.9 1.5 4.2 2.8 6.2 1 2 1.6 4.5 2.5 6.8 1.1-.7 2-1 2.7-1.5 1.3-5 2.4-10.8 3.8-16.4zm-129 31.4c-1.2 1.8-2.3 3.2-3.1 4.6 0 3.7.3 7.4.3 11.1 1.1.9 2.4 2.1 3.7 2.9 2.6-.9 4.9-1.8 8-2.9 0 2.9.2 5.5.4 8.4-1.9.7-3.5 1.3-5.4 2-.2-1.3-.5-2.2-.7-3.5-1.9.7-3.8 1.4-5.9 2.1.2 2.1.6 3.8.7 5.6 1.6.7 2.9 1.3 4.4 1.9 2.8-1 5.6-2.1 8.7-3.2 2.6-.9 4.3-2.9 4.1-5.5.1-4-.3-8.1-.4-12.1-1.8-2-3.7-2.1-5.8-1.3-1.9.7-3.6 1.1-6 1.9.1-2.7-.1-4.7-.1-7.4 1.9-.7 3.7-1.6 5.6-2.3.4 1.2.5 2.2.9 3.1 1.6-.6 3.3-1.2 4.9-1.8 0-1.6-.1-3.2-.2-5-1.1-.9-2.5-1.8-3.3-2.5-4 1.4-7.5 2.7-10.8 3.9zm43.2 14c.8.8 1.5 1.3 2.5 1.8 3.8-1.4 7.8-2.8 11.5-4.2 3.7-4.5 3.4-4.5 2.2-17.3-1-.7-1.9-1.5-3.2-2.3-2.6.9-4.9 1.8-7.8 2.8-.2-2.8-.3-5.2-.5-7.8 1.9-.7 3.8-1.4 5.6-2.1.4 1.2.7 1.9.9 3.1 1.6-.6 3.3-1.2 4.9-1.8 0-1.6-.1-3.2-.2-5-1.4-.8-2.7-1.7-4-2.3-4.8 2.3-10.9 2.4-13 9 .2 3.4.2 7.1.3 11.1.8.8 1.6 1.5 2.4 2.1 2.9-.8 5.7-1.8 8.9-2.7.2 3.4.3 6 .5 8.6-2.1.8-3.5 1.3-5.2 1.9-.3-1.5-.5-2.8-.7-4-2.1.8-3.8 1.4-5.6 2.1.3 2.6.5 4.7.5 7zm46.5-47.3c.5 10.8.9 21.5 1.2 32.6 5.4-2 10.3-3.8 15.3-5.6-.1-1.8-.2-3.4-.4-5.5-3.3 1.2-6.1 2.2-9.4 3.4-.1-3.2-.2-5.8-.5-8.6 2.4-.9 4.9-1.8 7.3-2.7-.1-1.8-.2-3.4-.3-5.2-2.4.6-4.6 1.4-7.1 2.3-.2-2.6-.2-5-.3-7.4 3.1-1.1 5.9-2.1 8.9-3.3-.1-1.8-.2-3.4-.3-5.2-4.6 1.6-9.3 3.4-14.4 5.2zm-72.3 26.9c2.1 4.3 3.6 8.5 6 12.7 1.9 3.8 3.3 7.6 2.8 12-.2 1.7.1 3.2.1 4.7 2.1-.8 3.8-1.4 5.4-2-.1-1 0-2.1-.1-3.2.1-3.5-.6-6.7.6-10.1 1.4-4.8 2.9-9.6 4.1-14.3.6-2.6 1.4-5 2.1-8.2-2.5 1.2-4.4 1.9-6.2 2.8-1.4 4.8-2.9 9.6-4.2 14.1-.2.1-.6-.1-.8 0-1.5-3.4-3-6.9-4.8-10.2-1.7.5-3.3 1.1-5 1.7zm54.1-14.6c.4 9.2.7 17.9 1 26.8 2.4-.9 4-1.5 5.9-2.1-.3-8.9-.7-17.9-1-26.8 2.6-.9 4.9-1.8 7.3-2.7.1-1.9 0-3.7-.2-5.5-7.1 2.6-13.9 5.1-20.7 7.5.1 1.8 0 3.7.2 5.5 2.8-1 4.9-1.8 7.5-2.7z"/><path fill="#fff" d="M206.7 431.4c3.7-1.5 5.9-2.2 9-3.3 4.3 3 8.5 5.2 13 7.8 16.3 9.5 34.1 15.3 52.5 18.4 10.2 1.6 20.8 2.3 31.2 1.4 16.4-1.2 32.3-4.9 47.6-11.2 20.6-8.6 38.5-20.7 53.7-36.9 15-15.9 27.5-33.4 34.3-54.3 1.4-4.8 2.3-6.2 3.4-11.1 2.8-1 6.3-2.3 9.1-3.3-.2 1.7-2.1-.6-2.6.9-1.1 4.9-2.2 10.1-3.9 15-4.7 14.2-11 27.5-19.6 39.7-12.9 18.8-29.1 34.1-48.5 45.9-10.9 6.6-22.5 12.2-34.9 16.2-15.8 5-31.9 7.6-48.6 7.6-17.5.3-34.6-2.8-51.2-8.8"/><path d="M477.5 242.5c-.2-8.7-.6-16.8-.9-25.2 2.2-1.3 4.1-2.6 7.2-1.5.4 1.7.5 3.5.7 5.6.2 5 .4 9.7.3 14.6-.1 3.6-2.6 6.2-7.3 6.5zM169 333c1.2-.4 2.3-1.1 3.3-1.2 2.5-.4 4.2.6 4.4 3.2.2 5.8.6 11.2.6 16.8.1 3.2-2.8 5.5-6.7 6.4-1.2-1.4-2.4-20.1-1.6-25.2zm-30.1 13.1c.2 2.1.3 3.9.3 6 .2 8.5.3 16.9.5 25.4.1 6.1.7 12 .7 17.9.1 1 0 2.1.1 3.2-.2 5.4-2.1 7.4-8.4 8.4-.3-.9-.8-2.1-.9-3.1-.4-15-1-29.7-1.4-44.8-.2-2.6-.5-5.1-.5-7.8.8-4.4 4.9-7 9.6-5.2zm167.8-106c-.2-2.6-.2-5-.5-7.3 1.2-1.2 2.7-1.5 3.3-.4.7 1.1 1 2.8 1 4.2-.1 1.9-1.6 3-3.8 3.5zm-23.3 2.7c.3.9.8 1.6 1.5 2.7-.9.3-1.9.7-3.1 1.1.5-1.5.9-2.7 1-3.8h.6z"/><path fill="#fff" d="M406.5 382.2c-1.2 5.5-2.5 11.3-3.9 17.1-.7.3-1.6.8-2.7 1.5-.9-2.4-1.5-4.8-2.5-6.8s-1.1-4.4-2.8-6.2c.2 5 .1 9.8.4 15-1.9.7-3.3 1.2-5.4 2-.2-10.8-.4-21.4-.8-32.2 1.6-.6 3.1-1.1 4.9-1.8 1.9 5.2 3.8 10.3 5.7 15.5.2-.1.6.1.8 0 2.4-6.5 2.9-13.3 5.5-19.9 1.6-.6 3.2-1.4 5.6-2.3.6 11.2.8 21.8 1.2 32.6-1.6.6-3.1 1.1-4.9 1.8-.1-5.3-.4-10.5-.6-15.5-.3-.9-.5-.8-.5-.8zm-129 31.4c3.5-1.3 6.8-2.5 10.8-3.9 1 .7 2.2 1.6 3.3 2.5 0 1.6.1 3.2.2 5-1.6.6-3.3 1.2-4.9 1.8-.3-.9-.6-1.6-.9-3.1-1.9.7-3.7 1.6-5.6 2.3.2 2.6.1 4.7.1 7.4 2.4-.9 4.3-1.3 6-1.9 2.4-.9 4-.7 5.8 1.3.1 4 .3 8.1.4 12.1-.1 2.7-1.8 4.6-4.1 5.5-2.8 1-5.9 2.1-8.7 3.2-1.5-.5-2.8-1.1-4.4-1.9-.4-1.7-.5-3.5-.7-5.6 2.1-.8 3.8-1.4 5.9-2.1.2 1.3.5 2.2.7 3.5 1.9-.7 3.3-1.2 5.4-2-.2-2.6-.3-5.2-.4-8.4-2.8 1-5.4 2-8 2.9-1.2-1.2-2.6-2-3.7-2.9 0-3.7-.3-7.4-.3-11.1.9-1.2 1.9-2.9 3.1-4.6zm43.2 14c-.1-2.4-.1-4.7-.3-6.8 1.9-.7 3.5-1.3 5.6-2.1.2 1.3.4 2.5.7 4 1.6-.6 3.3-1.2 5.2-1.9-.2-2.6-.4-5.5-.5-8.6-3.1.9-5.7 1.8-8.9 2.7-.7-.5-1.5-1.3-2.4-2.1-.1-4-.1-7.7-.3-11.1 1.9-6.5 8-6.6 13-9 1.4.8 2.7 1.7 4 2.3.1 1.8.2 3.4.2 5-1.6.6-3.3 1.2-4.9 1.8-.3-.9-.7-1.9-.9-3.1-1.9.7-3.8 1.4-5.6 2.1.2 2.6.2 5 .5 7.8 2.8-1 5.2-1.9 7.8-2.8 1.1.9 2.2 1.6 3.2 2.3 1.1 12.6 1.6 12.5-2.2 17.3-4 1.5-7.8 2.8-11.5 4.2-1.1-.7-1.9-1.2-2.7-2zm46.4-47.3c5.2-1.9 9.9-3.6 14.8-5.4.1 1.8.2 3.4.3 5.2-2.8 1-5.9 2.1-8.9 3.3.1 2.4 0 4.5.3 7.4 2.4-.6 4.6-1.4 7.1-2.3.1 1.8.2 3.4.3 5.2-2.4.9-4.7 1.7-7.3 2.7 0 2.9.2 5.5.5 8.6 3.1-1.1 6.1-2.2 9.4-3.4.2 2.1.3 3.6.4 5.5-4.9 1.8-9.9 3.6-15.3 5.6-.9-10.8-1.3-21.5-1.6-32.4zm-72.2 26.9c1.9-.7 3.3-1.2 5.2-1.9 1.5 3.4 3.3 6.8 4.8 10.2.2-.1.6.1.8 0 1.3-4.5 2.7-9.3 4.2-14.1 1.8-.9 3.7-1.6 6.2-2.8-.7 3.2-1.3 5.8-2.1 8.2-1.4 4.8-2.6 9.7-4.1 14.3-1.2 3.4-.5 6.6-.6 10.1.1 1 .2 2.1.1 3.2-1.6.6-3.3 1.2-5.4 2 0-1.6-.3-3.1-.1-4.7.3-4.4-.9-8.2-2.8-12-2.5-3.7-4.3-8.1-6.2-12.5zm54.1-14.7c-2.6.9-4.7 1.7-7.3 2.7 0-2.1 0-3.7-.2-5.5 6.8-2.5 13.6-5 20.7-7.5-.1 1.9 0 3.7.2 5.5-2.4.9-4.7 1.7-7.3 2.7.3 8.9.7 17.9 1 26.8-1.9.7-3.8 1.4-5.9 2.1-.6-8.9-.8-17.6-1.2-26.8zM212.5 247.7l-6.5 2.4-4.8-22.1-3.3 25.1-7.1 2.6-6-33.2 5.5-2 4.8 23.7 3.5-26.7 4.9-1.8 5.3 23.5 2.8-26.5 5.1-1.9-4.2 36.9zm19.5-22 .5 14.7-5.5 2-.5-14.7L219 210l5.7-2.1 4.6 12.5 3.8-15.6 5.1-1.9-6.2 22.8zm28.2-1.6-4.5 7.8-9 3.3-4.9-4.3-.8-23.1 4.3-7.5 9.4-3.5 4.7 4.2.8 23.1zm-7.6-19.2-4.8 1.8-1.2 2.1.6 17.2 1.4 1.3 4.7-1.7 1.3-2.3-.6-17.2-1.4-1.2zm34.3 15.5-5.2 1.9-.8-25.3-4.2 13.2-2.2.8-4.9-9.9.8 25.3-5.2 1.9-1.2-34.9 6.7-2.5 4.8 10.2 4.1-13.4 6.2-2.3 1.1 35zm11-4-5.5 2-1.2-34.9 5.5-2 1.2 34.9zm24.2-8.9-5.4 2-9.4-19.6.8 22.8-4.7 1.7-1.2-34.9 6.2-2.3 8.5 18.5-.7-21.3 4.7-1.7 1.2 34.8zm22.4-31.3-5.5 2-.1-3.4-1.2-1.1-4.8 1.8-1.4 2.4.6 16.8 1.5 1.4 4.3-1.6 1.5-2.7-.2-5.1-3.6 1.3-.2-5.1 9.1-3.4.7 19.4-5.2 2.1-.1-3.1-2.3 4-5.7 2.1-5.2-4.7-.7-22.2 4.6-8 9.4-3.5 4.4 3.9.1 6.7z"/></svg>