<svg xmlns="http://www.w3.org/2000/svg" width="48" height="48" viewBox="0 0 12.7 12.7" xmlns:v="https://vecta.io/nano"><defs><clipPath id="A"><path d="M36 18c0 9.941-8.059 18-18 18S0 27.941 0 18 8.059 0 18 0s18 8.059 18 18" clip-rule="evenodd"/></clipPath><clipPath id="B"><path d="M0 0h36v36H0z" clip-rule="evenodd"/></clipPath></defs><g clip-path="url(#A)" transform="matrix(.35278 0 0 -.35278 0 12.7)"><g clip-path="url(#B)"><path d="M38 18c0 11.046-8.954 20-20 20S-2 29.046-2 18 6.954-2 18-2s20 8.954 20 20" fill="#078800" fill-rule="evenodd"/><g fill="#fff"><path d="M16.61 17.86h.6c1.3-.06 3.06-.36 3.06-3.22 0-1.22-.26-3-2.46-3-.84 0-1.2.32-1.2 1.22zm0 5.08c.02.46.04.98 1.06.98 1.62 0 2.06-1.18 2.06-2.58 0-2.04-.44-2.88-3.12-2.88zM11.65 11h6.44c4.22.08 5.62 2.04 5.62 3.72 0 2.28-2.1 3.28-3.78 3.56v.04c.84.26 3.1.78 3.1 3 0 3.12-4.08 3.2-5.2 3.2h-6.18v-.5c.92-.06 1.76-.1 1.76-1.42v-9.68c0-1.22-.64-1.3-1.76-1.42z"/></g><path d="M36 18c0 9.941-8.059 18-18 18S0 27.941 0 18 8.059 0 18 0s18 8.059 18 18" fill="none" stroke="#000" stroke-miterlimit="10" stroke-width=".5"/></g></g></svg>