<svg xmlns="http://www.w3.org/2000/svg" width="48" height="48" viewBox="0 0 12.7 12.7"><defs><clipPath id="A"><path d="M40 22c0 9.941-8.059 18-18 18S4 31.941 4 22 12.059 4 22 4s18 8.059 18 18" clip-rule="evenodd"/></clipPath><clipPath id="B"><path d="M0 0h44v44H0z" clip-rule="evenodd"/></clipPath></defs><g clip-path="url(#A)" transform="matrix(.35278 0 0 -.35278 -1.4012 14.129)"><g clip-path="url(#B)"><g fill="#ffef00" fill-rule="evenodd"><path d="M0 22h44v22H0z"/><path d="M0 0h44v22H0z"/></g><text transform="matrix(1 0 0 -1 14.5 18.9)" fill="#000" font-family="Times" font-size="10" font-weight="bold"><tspan x="0 7.78" y="0">GR</tspan></text><path d="M40 22c0 9.941-8.059 18-18 18S4 31.941 4 22 12.059 4 22 4s18 8.059 18 18" fill="none" stroke="#000" stroke-miterlimit="10" stroke-width=".5"/></g></g></svg>