<svg xmlns="http://www.w3.org/2000/svg" width="48" height="48" viewBox="0 0 12.7 12.7" xmlns:v="https://vecta.io/nano"><defs><clipPath id="A"><path d="M40 22c0 9.941-8.059 18-18 18S4 31.941 4 22 12.059 4 22 4s18 8.059 18 18" clip-rule="evenodd"/></clipPath><clipPath id="B"><path d="M0 0h44v44H0z" clip-rule="evenodd"/></clipPath></defs><g clip-path="url(#A)" transform="matrix(.35278 0 0 -.35278 -1.411 14.111)"><g clip-path="url(#B)"><g fill-rule="evenodd"><path d="M22 22l17.798 12.931-11 7.992z"/><path d="M22 22l6.798 20.923H15.201z" fill="#ff69b4"/><path d="M22 22l-6.798 20.923-11-7.992z"/><path d="M22 22L4.202 34.931 0 22z" fill="#ff69b4"/><path d="M22 22H0L4.202 9.069z"/><path d="M22 22L4.202 9.069l11-7.992z" fill="#ff69b4"/><path d="M22 22L15.202 1.077h13.597z"/><path d="M22 22l6.798-20.923 11 7.992z" fill="#ff69b4"/><path d="M22 22L39.798 9.069 44 22z"/><path d="M22 22h22l-4.202 12.931z" fill="#ff69b4"/><path d="M30 22a8 8 0 1 1-16 0 8 8 0 1 1 16 0" fill="#ffb6c1"/></g><path d="M21.992 20.916h-.232c-.368-.904-.816-1.568-2.024-1.568-.536 0-.712.064-.712.448v3.776c0 .704.248.712.808.736v.2H17.04v-.2c.36-.024.688-.04.688-.568v-3.872c0-.488-.24-.512-.688-.568v-.2h4.624zm.36 3.392c.376-.024.704-.04.704-.568v-3.872c0-.496-.248-.52-.704-.568v-.2h2.88v.2c-.56.024-.88.04-.88.568v1.864c1.008 0 1.136-.584 1.224-1.24h.2v2.704h-.2c-.112-.64-.232-1.208-1.224-1.192v1.856c0 .344.144.376.576.376 1.376 0 1.592-.504 1.768-1.336h.192v1.608h-4.536z"/><path d="M40 22c0 9.941-8.059 18-18 18S4 31.941 4 22 12.059 4 22 4s18 8.059 18 18" fill="none" stroke="#000" stroke-miterlimit="10" stroke-width=".5"/></g></g></svg>