<svg xmlns="http://www.w3.org/2000/svg" width="48" height="48" viewBox="0 0 12.7 12.7"><defs><clipPath id="A"><path d="M36 18c0 9.941-8.059 18-18 18S0 27.941 0 18 8.059 0 18 0s18 8.059 18 18" clip-rule="evenodd"/></clipPath><clipPath id="B"><path d="M0 0h36v36H0z" clip-rule="evenodd"/></clipPath></defs><g clip-path="url(#A)" transform="matrix(.35278 0 0 -.35278 0 12.7)"><g clip-path="url(#B)"><g fill-rule="evenodd"><path d="M18 18l17.798 12.931-11 7.992z" fill="#d90000"/><path d="M18 18l6.798 20.923H11.201z" fill="#f0dc82"/><path d="M18 18l-6.798 20.923-11-7.992z" fill="#d90000"/><path d="M18 18L.202 30.931-4 18z" fill="#f0dc82"/><path d="M18 18H-4L.202 5.069z" fill="#d90000"/><path d="M18 18L.202 5.069l11-7.992z" fill="#f0dc82"/><path d="M18 18L11.202-2.923h13.597z" fill="#d90000"/><path d="M18 18l6.798-20.923 11 7.992z" fill="#f0dc82"/><path d="M18 18L35.798 5.069 40 18z" fill="#d90000"/><path d="M18 18h22l-4.202 12.931z" fill="#f0dc82"/><path d="M0 0h36v18H0z" fill="#d90000"/><path d="M0 14h36v8H0z" fill="#fff" stroke="#000" stroke-miterlimit="10" stroke-width=".5"/></g><path d="M9.24 15.1h1.816v.2c-.592.064-.76.216-.76.792v3.2h.016l3.56-4.336h.224v4.712c0 .384.048.568.624.64v.2H13v-.2c.648-.048.744-.312.744-.792v-2.424h-.016l-2.776 3.416H9.264v-.2c.104 0 .232-.024.68-.576V15.94c0-.528-.224-.584-.704-.64zm7.024 1.832c0 .912.04 1.704.632 1.704.488 0 .624-.472.624-1.704 0-1.016-.064-1.696-.616-1.696-.64 0-.64.832-.64 1.696zm-1.176 0c0-1.04.696-1.944 1.808-1.944 1.088 0 1.8.88 1.8 1.944 0 1.112-.752 1.952-1.8 1.952-1.112 0-1.808-.92-1.808-1.952zm6.16-1.64c-.488.024-.584.144-.584.632v1.512c0 .584.352.76.472.76.256 0 .248-.472.712-.472.4 0 .512.328.512.536 0 .192-.12.624-.664.624-.52 0-.88-.48-1.048-.728h-.016v.632H19.12v-.192c.24-.032.432-.072.432-.472v-2.352c0-.4-.176-.432-.432-.48V15.1h2.128zm5.464.152c-.456.016-.472.248-.472.464v4.6h-1.72v-.192c.44-.032.608-.04.608-.464v-1.464c-.192.208-.464.496-.944.496-.752 0-1.544-.664-1.544-2.056 0-1.168.736-1.84 1.4-1.84.6 0 .824.224 1.112.528v-.52c.496.136.568.144 1.56.264zm-1.584.552c0-.088-.296-.56-.664-.56-.64 0-.64 1.04-.64 1.504 0 .776.112 1.496.68 1.496.448 0 .624-.488.624-.496z"/><path d="M36 18c0 9.941-8.059 18-18 18S0 27.941 0 18 8.059 0 18 0s18 8.059 18 18" fill="none" stroke="#000" stroke-miterlimit="10" stroke-width=".5"/></g></g></svg>