<svg xmlns="http://www.w3.org/2000/svg" width="48" height="48" viewBox="0 0 12.7 12.7"><defs><clipPath id="A"><path d="M40 22c0 9.941-8.059 18-18 18S4 31.941 4 22 12.059 4 22 4s18 8.059 18 18" clip-rule="evenodd"/></clipPath><clipPath id="B"><path d="M0 0h44v44H0z" clip-rule="evenodd"/></clipPath></defs><g clip-path="url(#A)" transform="matrix(.35278 0 0 -.35278 -1.4111 14.111)"><g clip-path="url(#B)"><g fill="#0247fe" fill-rule="evenodd"><path d="M0 22h44v22H0z"/><path d="M0 0h44v22H0z"/></g><g fill="#ffe135"><path d="M0 30h44v4H0zm0-20h44v4H0z" fill-rule="evenodd"/></g><path d="M0 18h44v8H0z" fill="#fff" fill-rule="evenodd" stroke="#000" stroke-miterlimit="10" stroke-width=".5"/><text transform="matrix(1 0 0 -1 12 18.9)" fill="#000" font-family="Times" font-size="8" font-weight="bold"><tspan x="0 6.224 10.672 14.224 17.336" y="0">Ouest</tspan></text><path d="M40 22c0 9.941-8.059 18-18 18S4 31.941 4 22 12.059 4 22 4s18 8.059 18 18" fill="none" stroke="#000" stroke-miterlimit="10" stroke-width=".5"/></g></g></svg>