<svg xmlns="http://www.w3.org/2000/svg" width="48" height="48" viewBox="0 0 12.7 12.7" xmlns:v="https://vecta.io/nano"><defs><clipPath id="A"><path d="M40 22c0 9.941-8.059 18-18 18S4 31.941 4 22 12.059 4 22 4s18 8.059 18 18" clip-rule="evenodd"/></clipPath><clipPath id="B"><path d="M0 0h44v44H0z" clip-rule="evenodd"/></clipPath></defs><g clip-path="url(#A)" transform="matrix(.35278 0 0 -.35278 -1.411 14.111)"><g clip-path="url(#B)"><g fill-rule="evenodd"><path d="M0 22h44v22H0z" fill="#6495ed"/><path d="M0 0h44v22H0z" fill="#00f"/><path d="M0 30h44v4H0z" fill="#6495ed"/><path d="M0 10h44v4H0z" fill="#00f"/><path d="M0 18h44v8H0z" fill="#fff" stroke="#000" stroke-miterlimit="10" stroke-width=".5"/></g><path d="M15.112 24.364c1.12 0 1.416-1.408 1.416-2.576 0-.696-.048-2.576-1.416-2.576s-1.416 1.88-1.416 2.576c0 1.168.296 2.576 1.416 2.576zm0 .264c-1.544 0-2.832-1.096-2.832-2.84 0-1.68 1.192-2.84 2.832-2.84s2.832 1.16 2.832 2.84c0 1.744-1.288 2.84-2.832 2.84zm7.408-5.184c-.36.008-.448.152-.448.464v2.88h-1.608v-.192c.272-.024.496-.032.496-.472V19.86c-.152-.152-.352-.352-.656-.352-.44 0-.448.344-.448.568v2.712h-1.504v-.192c.328-.056.392-.152.392-.472v-2.016c0-.568.272-1.12 1.088-1.12.536 0 .904.328 1.136.528v-.52c.456.152.568.16 1.552.264zm1.464 1.912c0 1.104.272 1.28.568 1.28.28 0 .384-.2.432-.376.064-.24.064-.656.072-.904zm1.904-1.256c-.152-.184-.432-.536-.904-.536-.76 0-.936.816-.96 1.496h2.016c-.024.432-.128 1.824-1.52 1.824-.92 0-1.648-.752-1.648-1.936 0-1.368.816-1.96 1.624-1.96.64 0 1.096.256 1.584 1zm3.056 1.608v1.16h-.176c-.024-.064-.056-.16-.2-.16-.152 0-.48.176-.856.176-.736 0-1.272-.472-1.272-1.176 0-1.232 1.904-1.184 1.904-1.92 0-.24-.168-.528-.568-.528-.888 0-1.08.84-1.128 1.056h-.224v-1.32h.2c.08.16.128.224.216.224.072 0 .616-.232 1.016-.232.744 0 1.256.472 1.256 1.232 0 1.312-1.872 1.128-1.872 1.944 0 .248.224.456.512.456.456 0 .824-.344.992-.912zm2.832 1.08h-.752v1.352h-.2c-.544-.776-.904-1.128-1.328-1.488v-.216h.416v-2.592c.008-.168.04-.84.904-.84.72 0 1.008.552 1.176.896l-.2.088c-.088-.168-.224-.416-.456-.416-.32 0-.312.328-.312.456v2.408h.752z"/><path d="M40 22c0 9.941-8.059 18-18 18S4 31.941 4 22 12.059 4 22 4s18 8.059 18 18" fill="none" stroke="#000" stroke-miterlimit="10" stroke-width=".5"/></g></g></svg>