<svg xmlns="http://www.w3.org/2000/svg" width="48" height="48" viewBox="0 0 12.7 12.7"><defs><clipPath id="A"><path d="M36 18c0 9.941-8.059 18-18 18S0 27.941 0 18 8.059 0 18 0s18 8.059 18 18" clip-rule="evenodd"/></clipPath><clipPath id="B"><path d="M0 0h36v36H0z" clip-rule="evenodd"/></clipPath></defs><g clip-path="url(#A)" transform="matrix(.35278 0 0 -.35278 0 12.7)"><g clip-path="url(#B)"><path d="M38 18c0 11.046-8.954 20-20 20S-2 29.046-2 18 6.954-2 18-2s20 8.954 20 20" fill="#8601af" fill-rule="evenodd"/><g transform="matrix(-.707107 .707107 -.707107 -.707107 32.849242 28.606602)"><path d="M0 0h6v36H0z" fill="#ffef00" fill-rule="evenodd"/></g><path d="M0 14h36v8H0z" fill="#fff" fill-rule="evenodd" stroke="#000" stroke-miterlimit="10" stroke-width=".5"/><path d="M9.24 15.1h2.672v.2c-.552.072-.704.088-.704.736v1.488c1.056.008 1.464.016 1.976.304a1.35 1.35 0 0 1 .728 1.208c0 1.352-1.456 1.472-2.096 1.472H9.24v-.2c.424-.04.672-.064.672-.736v-3.536c0-.448-.112-.552-.208-.624-.056-.04-.072-.048-.464-.112zm1.968 4.848c.008.176.112.28.384.28.656 0 .944-.304.944-1.216 0-.992-.36-1.224-1.328-1.208zm7.896-3.032h-.232c-.368-.904-.816-1.568-2.024-1.568-.536 0-.712.064-.712.448v3.776c0 .704.248.712.808.736v.2h-2.792v-.2c.36-.024.688-.04.688-.568v-3.872c0-.488-.24-.512-.688-.568v-.2h4.624zm7.6-1.616c-.528.072-.704.096-.704.736v3.536c0 .688.256.704.704.736v.2h-2.016l-1.6-3.776-1.6 3.776h-2.024v-.2c.568-.04.712-.152.712-.568v-3.8c0-.464-.104-.584-.728-.64v-.2h1.872v.2c-.664.04-.808.232-.808.792v3.72h.016l2-4.712h.216l2 4.832h.016V15.9c0-.528-.232-.552-.712-.6v-.2h2.656z"/><path d="M36 18c0 9.941-8.059 18-18 18S0 27.941 0 18 8.059 0 18 0s18 8.059 18 18" fill="none" stroke="#000" stroke-miterlimit="10" stroke-width=".5"/></g></g></svg>