<svg xmlns="http://www.w3.org/2000/svg" width="48" height="48" viewBox="0 0 12.7 12.7"><defs><clipPath id="A"><path d="M40 22c0 9.941-8.059 18-18 18S4 31.941 4 22 12.059 4 22 4s18 8.059 18 18" clip-rule="evenodd"/></clipPath><clipPath id="B"><path d="M0 0h44v44H0z" clip-rule="evenodd"/></clipPath></defs><g clip-path="url(#A)" transform="matrix(.35278 0 0 -.35278 -1.411 14.109)"><g clip-path="url(#B)"><path d="M46 22c0 13.255-10.745 24-24 24S-2 35.255-2 22 8.745-2 22-2 46 8.745 46 22" fill="#8601af" fill-rule="evenodd"/><g transform="matrix(-.707107 .707107 -.707107 -.707107 40.384776 34.727922)"><path d="M0 0h8v44H0z" fill="#ffef00" fill-rule="evenodd"/></g><path d="M0 18h44v8H0z" fill-rule="evenodd" stroke="#000" stroke-miterlimit="10" stroke-width=".5"/><g fill="#fff"><path d="M13.24 19.1h2.672v.2c-.552.072-.704.088-.704.736v1.488c1.056.008 1.464.016 1.976.304a1.35 1.35 0 0 1 .728 1.208c0 1.352-1.456 1.472-2.096 1.472H13.24v-.2c.424-.04.672-.064.672-.736v-3.536c0-.448-.112-.552-.208-.624-.056-.04-.072-.048-.464-.112zm1.968 4.848c.008.176.112.28.384.28.656 0 .944-.304.944-1.216 0-.992-.36-1.224-1.328-1.208zm7.896-3.032h-.232c-.368-.904-.816-1.568-2.024-1.568-.536 0-.712.064-.712.448v3.776c0 .704.248.712.808.736v.2h-2.792v-.2c.36-.024.688-.04.688-.568v-3.872c0-.488-.24-.512-.688-.568v-.2h4.624zm7.6-1.616c-.528.072-.704.096-.704.736v3.536c0 .688.256.704.704.736v.2h-2.016l-1.6-3.776-1.6 3.776h-2.024v-.2c.568-.04.712-.152.712-.568v-3.8c0-.464-.104-.584-.728-.64v-.2h1.872v.2c-.664.04-.808.232-.808.792v3.72h.016l2-4.712h.216l2 4.832h.016V19.9c0-.528-.232-.552-.712-.6v-.2h2.656z"/></g><path d="M40 22c0 9.941-8.059 18-18 18S4 31.941 4 22 12.059 4 22 4s18 8.059 18 18" fill="none" stroke="#000" stroke-miterlimit="10" stroke-width=".5"/></g></g></svg>