<svg xmlns="http://www.w3.org/2000/svg" width="48" height="48" viewBox="0 0 12.7 12.7"><defs><clipPath id="A"><path d="M40 22c0 9.941-8.059 18-18 18S4 31.941 4 22 12.059 4 22 4s18 8.059 18 18" clip-rule="evenodd"/></clipPath><clipPath id="B"><path d="M0 0h44v44H0z" clip-rule="evenodd"/></clipPath></defs><g clip-path="url(#A)" transform="matrix(.35278 0 0 -.35278 -1.4111 14.111)"><g clip-path="url(#B)"><g fill-rule="evenodd"><path d="M46 22c0 13.255-10.745 24-24 24S-2 35.255-2 22 8.745-2 22-2 46 8.745 46 22" fill="#a76bcf"/><path d="M35 22c0 7.18-5.82 13-13 13S9 29.18 9 22 14.82 9 22 9s13 5.82 13 13"/><path d="M31 22a9 9 0 1 1-18 0 9 9 0 1 1 18 0" fill="#a76bcf"/><path d="M0 18h44v8H0z" fill="#fff" stroke="#000" stroke-miterlimit="10" stroke-width=".5"/></g><text transform="matrix(1 0 0 -1 13.112 18.9)" fill="#000" font-family="Times" font-size="8" font-weight="bold"><tspan x="0 4.888 10.224" y="0">PLM</tspan></text><path d="M40 22c0 9.941-8.059 18-18 18S4 31.941 4 22 12.059 4 22 4s18 8.059 18 18" fill="none" stroke="#000" stroke-miterlimit="10" stroke-width=".5"/></g></g></svg>