<svg xmlns="http://www.w3.org/2000/svg" viewBox="0 0 8 8"><circle cx="4" cy="4" r="4" fill="#f9f9f9"/><path d="M2.268 4.814v.361H.546v-2.35h.547v1.989zm.939-1.641v.696h1.102v.349H3.207v.957h-.549v-2.35h1.854v.348zm2.299.637h.128q.077 0 .128-.016.051-.018.087-.055l.811-.821q.051-.052.106-.071.057-.021.142-.021h.472l-.99.977q-.087.089-.181.127.067.019.12.055.055.034.104.091l1.02 1.1h-.482q-.098 0-.146-.021-.047-.023-.079-.065l-.831-.868q-.039-.044-.089-.062-.051-.018-.146-.018h-.173v1.034H4.96v-2.35h.547z" fill="#333"/></svg>