<svg data-name="Layer 1" xmlns="http://www.w3.org/2000/svg" viewBox="0 0 28 28"><circle cx="14" cy="14" r="13.75" fill="#0ff"/><path d="M2.16 8.59h2.46a6.56 6.56 0 011.77.18 1.75 1.75 0 011 .73 3.4 3.4 0 01.36 1.79 1.84 1.84 0 01-.26 1.15 1.79 1.79 0 01-1 .51 1.84 1.84 0 011.16.64A2.51 2.51 0 017.9 15v.88a3.44 3.44 0 01-.22 1.43 1.18 1.18 0 01-.7.63 6.94 6.94 0 01-2 .17H2.16zm2.46 1.62v2.11h.25c.24 0 .4-.06.46-.18a2.83 2.83 0 00.1-1 1.53 1.53 0 00-.08-.62.37.37 0 00-.21-.23 1.87 1.87 0 00-.52-.08zm0 3.58v2.66a1.12 1.12 0 00.67-.16c.1-.1.14-.34.14-.73v-.88c0-.41 0-.65-.13-.74a1.25 1.25 0 00-.68-.15zm6.53-5.2v1.23H8.71V8.59zm0 1.71v7.77H8.71V10.3zm6.23 0v6a15.58 15.58 0 01-.05 1.56 1.54 1.54 0 01-.4.75 2.09 2.09 0 01-.95.61 5 5 0 01-1.52.2 3.67 3.67 0 01-1.82-.42 1.63 1.63 0 01-.71-1.51h2.3c0 .35.12.52.37.52a.39.39 0 00.36-.16 1.58 1.58 0 00.09-.66v-.59a2.52 2.52 0 01-.64.42 1.91 1.91 0 01-.71.14 2 2 0 01-1-.26 1.34 1.34 0 01-.57-.68 3.66 3.66 0 01-.15-1.19v-2.79a2.52 2.52 0 01.4-1.6 1.49 1.49 0 011.21-.48 1.79 1.79 0 01.81.18 1.88 1.88 0 01.66.54l.17-.58zM15 12.36a2.3 2.3 0 00-.06-.68.27.27 0 00-.28-.15.31.31 0 00-.29.17 1.84 1.84 0 00-.08.66V15a2.34 2.34 0 00.06.68.27.27 0 00.27.15.3.3 0 00.31-.18 3.46 3.46 0 00.07-.85zm10.17-3.77v6.2h.67v1.61h-.67v1.67H22.8V16.4H20v-1.61l2-6.2zm-2.37 6.2v-4l-1.05 4z" fill="#231f20"/></svg>