<svg id="Layer_1" data-name="Layer 1" xmlns="http://www.w3.org/2000/svg" viewBox="0 0 28 28"><defs><style>.cls-1{fill:cyan;}.cls-2{fill:#231f20;}</style></defs><circle class="cls-1" cx="14" cy="14" r="13.75"/><path class="cls-2" d="M2.16,8.59H4.62a6.56,6.56,0,0,1,1.77.18,1.75,1.75,0,0,1,1,.73,3.4,3.4,0,0,1,.36,1.79,1.84,1.84,0,0,1-.26,1.15,1.79,1.79,0,0,1-1,.51,1.84,1.84,0,0,1,1.16.64A2.51,2.51,0,0,1,7.9,15v.88a3.44,3.44,0,0,1-.22,1.43,1.18,1.18,0,0,1-.7.63,6.94,6.94,0,0,1-2,.17H2.16Zm2.46,1.62v2.11h.25c.24,0,.4-.06.46-.18a2.83,2.83,0,0,0,.1-1,1.53,1.53,0,0,0-.08-.62.37.37,0,0,0-.21-.23A1.87,1.87,0,0,0,4.62,10.21Zm0,3.58v2.66a1.12,1.12,0,0,0,.67-.16c.1-.1.14-.34.14-.73v-.88c0-.41,0-.65-.13-.74A1.25,1.25,0,0,0,4.62,13.79Z"/><path class="cls-2" d="M11.15,8.59V9.82H8.71V8.59Zm0,1.71v7.77H8.71V10.3Z"/><path class="cls-2" d="M17.38,10.3v6a15.58,15.58,0,0,1-.05,1.56,1.54,1.54,0,0,1-.4.75,2.09,2.09,0,0,1-.95.61,5,5,0,0,1-1.52.2A3.67,3.67,0,0,1,12.64,19a1.63,1.63,0,0,1-.71-1.51h2.3c0,.35.12.52.37.52a.39.39,0,0,0,.36-.16,1.58,1.58,0,0,0,.09-.66v-.59a2.52,2.52,0,0,1-.64.42,1.91,1.91,0,0,1-.71.14,2,2,0,0,1-1-.26,1.34,1.34,0,0,1-.57-.68,3.66,3.66,0,0,1-.15-1.19V12.24a2.52,2.52,0,0,1,.4-1.6,1.49,1.49,0,0,1,1.21-.48,1.79,1.79,0,0,1,.81.18,1.88,1.88,0,0,1,.66.54l.17-.58ZM15,12.36a2.3,2.3,0,0,0-.06-.68.27.27,0,0,0-.28-.15.31.31,0,0,0-.29.17,1.84,1.84,0,0,0-.08.66V15a2.34,2.34,0,0,0,.06.68.27.27,0,0,0,.27.15.3.3,0,0,0,.31-.18,3.46,3.46,0,0,0,.07-.85Z"/><path class="cls-2" d="M25.17,8.59v6.2h.67V16.4h-.67v1.67H22.8V16.4H20V14.79l2-6.2Zm-2.37,6.2v-4l-1.05,4Z"/></svg>
