<svg xmlns="http://www.w3.org/2000/svg" width="200" height="200" viewBox="0 0 200 200">
    <circle class="color-blue color-main" fill="#0092c8" cx="100" cy="100" r="100"/>
    <path class="color-white" fill="#fff" d="M97.435897 81.05413l23.646723 3.276354c-9.97151 19.943016-24.643874 29.772086-43.874644 29.772086-10.826211-.71226-20.655271-4.41596-29.34473-11.39602-8.689459-6.980054-13.390314-18.660967-13.960115-35.185184.712251-13.817664 4.985755-24.643876 12.962964-32.621084 7.977208-7.834758 18.091168-12.250713 30.341881-12.820513 14.957266.14245 25.925924 3.561253 32.621084 10.39886 6.69516 6.837608 10.39886 12.962964 11.11111 18.23362l-24.358974 2.279202c-1.566951-1.709402-3.418803-3.133903-5.413105-4.273505-3.418804-1.851851-6.980057-2.706552-10.541311-2.706552-3.703704 0-7.122508.854701-10.683761 2.706552-3.418804 1.851852-6.125357 4.415955-7.977209 7.977209-1.994302 3.561254-2.991453 7.122507-2.991453 10.826211 0 3.703704.854701 7.264958 2.706553 10.683761 1.851852 3.418804 4.558405 6.125357 7.977208 7.977209 3.418804 1.851852 6.980058 2.706552 10.826212 2.706552 3.703704 0 7.264957-.997151 10.683761-2.849003 2.421652-1.282051 4.558405-2.991453 6.267806-4.985755zm-21.794872 51.4245c.2849-6.5527 1.282051-10.82621 2.849003-12.53561 18.945869 0 35.327632-11.39601 48.860402-34.045585 13.24786 1.424502 22.93447 6.410257 29.34473 14.957265 6.26781 8.26211 9.40171 19.37322 9.40171 33.33334 0 7.26495-2.2792 14.95726-6.69516 22.64957h.14245c-9.97151 13.81766-22.64957 20.79772-38.17664 21.08262-27.920227-2.5641-43.019943-17.80627-45.726495-45.4416zm35.470085-18.66097c-3.4188 1.85186-6.12535 4.41596-8.11966 7.97721-1.85185 3.41881-2.849 7.12251-2.849 10.82621 0 3.70371.8547 7.26496 2.70655 10.68377 1.85186 3.4188 4.55841 6.12535 7.97721 7.9772 3.41881 1.85186 6.98006 2.70656 10.82621 2.70656 3.70371 0 7.26496-.8547 10.68376-2.70656 3.41881-1.85185 6.12536-4.5584 7.97721-7.9772 1.85185-3.41881 2.84901-6.98006 2.84901-10.68377 0-3.84615-.99716-7.26495-2.84901-10.82621-1.9943-3.4188-4.70085-6.12535-8.11966-7.97721-3.4188-1.85185-6.98005-2.70655-10.54131-2.70655-3.56125 0-7.1225.8547-10.54131 2.70655zm7.69231-50.997149h2.99145l5.84046 10.968662h-3.56126l-1.28205-2.279203h-5.698l-.99715 2.279203h-3.13391zm-.8547 6.267807h3.27635l-1.7094-3.276354zm12.67806-6.267807l5.84046 5.840456v-5.840456h2.42165v10.968662h-2.2792l-5.84046-5.840456v5.840456h-2.42165V62.820511zm16.80912 0c3.7037.284901 5.41311 1.994302 5.41311 5.270656-.28491 3.846154-1.85186 5.698006-4.84331 5.698006h-6.69516V62.820511zm-3.4188 2.564103v5.982906h2.99145c1.56695 0 2.42165-.997151 2.42165-2.849003 0-2.136752-.71225-3.133903-2.42165-3.133903z"/>
</svg>