<?xml version="1.0" encoding="utf-8"?>
<!-- Generator: Adobe Illustrator 24.1.2, SVG Export Plug-In . SVG Version: 6.00 Build 0)  -->
<svg version="1.1" id="Layer_1" xmlns="http://www.w3.org/2000/svg" xmlns:xlink="http://www.w3.org/1999/xlink" x="0px" y="0px"
	 viewBox="0 0 200 200" style="enable-background:new 0 0 200 200;" xml:space="preserve">
<style type="text/css">
	.st0{fill:#ADD8E6;}
</style>
<circle class="st0" cx="100" cy="100" r="100"/>
<path d="M97.4,81.1l23.6,3.3c-10,19.9-24.6,29.8-43.9,29.8c-10.8-0.7-20.7-4.4-29.3-11.4S34.5,84,33.9,67.5c0.7-13.8,5-24.6,13-32.6
	c8-7.8,18.1-12.3,30.3-12.8c15,0.1,25.9,3.6,32.6,10.4c6.7,6.8,10.4,13,11.1,18.2L96.6,53c-1.6-1.7-3.4-3.1-5.4-4.3
	c-3.4-1.9-7-2.7-10.5-2.7c-3.7,0-7.1,0.9-10.7,2.7c-3.4,1.9-6.1,4.4-8,8c-2,3.6-3,7.1-3,10.8s0.9,7.3,2.7,10.7s4.6,6.1,8,8
	c3.4,1.9,7,2.7,10.8,2.7c3.7,0,7.3-1,10.7-2.8C93.6,84.8,95.7,83,97.4,81.1z M75.6,132.5c0.3-6.6,1.3-10.8,2.8-12.5
	c18.9,0,35.3-11.4,48.9-34c13.2,1.4,22.9,6.4,29.3,15c6.3,8.3,9.4,19.4,9.4,33.3c0,7.3-2.3,15-6.7,22.6h0.1
	c-10,13.8-22.6,20.8-38.2,21.1C93.4,175.4,78.3,160.1,75.6,132.5z M111.1,113.8c-3.4,1.9-6.1,4.4-8.1,8c-1.9,3.4-2.8,7.1-2.8,10.8
	s0.9,7.3,2.7,10.7c1.9,3.4,4.6,6.1,8,8c3.4,1.9,7,2.7,10.8,2.7c3.7,0,7.3-0.9,10.7-2.7s6.1-4.6,8-8c1.9-3.4,2.8-7,2.8-10.7
	c0-3.8-1-7.3-2.8-10.8c-2-3.4-4.7-6.1-8.1-8c-3.4-1.9-7-2.7-10.5-2.7C118.1,111.1,114.5,112,111.1,113.8z M118.8,62.8h3l5.8,11h-3.6
	l-1.3-2.3h-5.7l-1,2.3H113L118.8,62.8z M117.9,69.1h3.3l-1.7-3.3L117.9,69.1z M130.6,62.8l5.8,5.8v-5.8h2.4v11h-2.3l-5.8-5.8v5.8
	h-2.4v-11H130.6z M147.4,62.8c3.7,0.3,5.4,2,5.4,5.3c-0.3,3.8-1.9,5.7-4.8,5.7h-6.7v-11H147.4z M144,65.4v6h3c1.6,0,2.4-1,2.4-2.8
	c0-2.1-0.7-3.1-2.4-3.1L144,65.4z"/>
</svg>
