<svg xmlns="http://www.w3.org/2000/svg" viewBox="0 0 200 200"><circle cx="100" cy="100" r="100" fill="#add8e6"/><path d="M97.4 81.1l23.6 3.3c-10 19.9-24.6 29.8-43.9 29.8-10.8-.7-20.7-4.4-29.3-11.4S34.5 84 33.9 67.5c.7-13.8 5-24.6 13-32.6 8-7.8 18.1-12.3 30.3-12.8 15 .1 25.9 3.6 32.6 10.4 6.7 6.8 10.4 13 11.1 18.2L96.6 53c-1.6-1.7-3.4-3.1-5.4-4.3-3.4-1.9-7-2.7-10.5-2.7-3.7 0-7.1.9-10.7 2.7-3.4 1.9-6.1 4.4-8 8-2 3.6-3 7.1-3 10.8s.9 7.3 2.7 10.7 4.6 6.1 8 8c3.4 1.9 7 2.7 10.8 2.7 3.7 0 7.3-1 10.7-2.8 2.4-1.3 4.5-3.1 6.2-5zm-21.8 51.4c.3-6.6 1.3-10.8 2.8-12.5 18.9 0 35.3-11.4 48.9-34 13.2 1.4 22.9 6.4 29.3 15 6.3 8.3 9.4 19.4 9.4 33.3 0 7.3-2.3 15-6.7 22.6h.1c-10 13.8-22.6 20.8-38.2 21.1-27.8-2.6-42.9-17.9-45.6-45.5zm35.5-18.7c-3.4 1.9-6.1 4.4-8.1 8-1.9 3.4-2.8 7.1-2.8 10.8s.9 7.3 2.7 10.7c1.9 3.4 4.6 6.1 8 8 3.4 1.9 7 2.7 10.8 2.7 3.7 0 7.3-.9 10.7-2.7s6.1-4.6 8-8c1.9-3.4 2.8-7 2.8-10.7 0-3.8-1-7.3-2.8-10.8-2-3.4-4.7-6.1-8.1-8-3.4-1.9-7-2.7-10.5-2.7-3.7 0-7.3.9-10.7 2.7zm7.7-51h3l5.8 11H124l-1.3-2.3H117l-1 2.3h-3l5.8-11zm-.9 6.3h3.3l-1.7-3.3-1.6 3.3zm12.7-6.3l5.8 5.8v-5.8h2.4v11h-2.3l-5.8-5.8v5.8h-2.4v-11h2.3zm16.8 0c3.7.3 5.4 2 5.4 5.3-.3 3.8-1.9 5.7-4.8 5.7h-6.7v-11h6.1zm-3.4 2.6v6h3c1.6 0 2.4-1 2.4-2.8 0-2.1-.7-3.1-2.4-3.1l-3-.1z"/></svg>