<svg xmlns="http://www.w3.org/2000/svg" width="200" height="200" viewBox="0 0 200 200">
    <circle class="color-yellow color-main" fill="#d2c535" cx="100" cy="100" r="100"/>
    <path class="color-black color-reserved-white" d="M100.71225 9.686606L9.686606 100.71225c29.772081 29.77208 60.398863 58.97436 91.025644 89.60114 32.47863-31.48148 59.68661-58.83191 89.60114-89.60114-30.76923-32.905984-55.4131-56.837609-89.60114-91.025644z"/>
    <path class="color-black" d="M100.71225 190.88319l-.2849-.2849c-15.669516-15.81196-31.623933-31.33903-47.150999-46.43874-14.387465-14.10257-29.34473-28.63248-43.874646-43.1624l-.2849-.2849L100.71225 9.116805l.2849.2849c7.12251 7.122508 13.96012 13.817665 20.37037 20.370372 24.07408 23.931625 44.8718 44.729346 69.23077 70.655273l.2849.2849-.2849.2849c-34.75783 35.75499-60.82621 61.68092-89.60114 89.60114zm-90.313393-90.17094c14.387464 14.38747 29.20228 28.77493 43.589745 42.8775 15.384616 14.95726 31.196583 30.48433 46.866098 46.15384 28.63248-27.63533 54.41596-53.56125 89.03134-89.03134-24.21652-25.783476-44.87179-46.438748-68.94587-70.370373L100.8547 10.256406z"/>
    <path class="color-yellow color-main" fill="#d2c535" d="M182.05129 100.71225c-27.92023-29.77208-50.28491-51.566953-81.19659-82.478635-27.635328 27.492878-55.128207 54.985757-82.621085 82.478635 27.065528 27.06553 54.843307 53.41881 82.478635 81.19659 29.48718-28.49003 54.13106-53.27636 81.33904-81.19659zM93.874644 147.7208c-33.760686-5.12821-51.566954-44.15955-33.190885-72.792026 18.80342-29.05983 60.968661-29.487181 79.914531-.997151 6.69516 10.11396 9.54416 23.789175 7.26496 35.470087-2.2792 11.82336-10.96866 24.64388-21.22507 31.19658-8.83191 5.69801-22.50713 8.68946-32.763536 7.12251zM80.91168 123.07692s0-2.13675.14245-5.27065h-9.40171c-.14245-6.69516-.2849-8.83191 0-14.52992h9.11681c-.14245-2.13675.2849-3.56125.14245-6.125353h-9.25926c.142451-4.700855-.14245-9.40171 0-13.960115h9.25926c.14245-2.564102.14245-2.849003-.14245-5.982906H66.096865c-.427351 15.669517-.569801 36.182334-.427351 45.726494 6.125357 0 15.242166.14245 15.242166.14245zm11.396012-19.65812H100c.14245 8.54701.14245 10.11396.14245 19.65812 1.85185.14245 2.849 0 4.98575 0 0 0-.14245-5.1282 0-10.82621-.42735-9.40171 1.13961-10.54131-2.5641-11.25356 2.99146-.99715 2.70656-2.991452 2.5641-11.965811 0-12.250713.28491-11.823363-10.683756-11.823363h-6.980057l-.427351 45.726494h5.128206c0-9.54416.14245-22.22222.14245-19.51567zm-.14245-20.227918h8.119658s-.14245 8.262109 0 13.960115h-7.977208c0-5.413106-.14245-7.977208-.14245-13.960115zm23.931628-5.840456h-4.84331c.14245 15.527067.2849 45.584044.2849 45.584044h4.55841c0-15.52706.2849-30.056977 0-45.584044zm20.94017 45.584044v-5.1282h-8.40456c0-4.70086-.14245-9.68661-.14245-14.52992h8.40456c0-2.70655.14245-2.99145 0-5.982903h-8.40456c.14245-5.982906.14245-7.549858 0-14.529915 4.8433-.14245 5.41311-.14245 8.54701 0v-5.555556h-14.38747c-.2849 17.236468-.14245 18.376069.14245 45.726494z"/>
    <path class="color-white color-reserved-gray" fill="#fff" d="M80.91168 123.07692s0-2.13675.14245-5.27065h-9.40171c-.14245-6.69516-.2849-8.83191 0-14.52992h9.11681c-.14245-2.13675.2849-3.56125.14245-6.125353h-9.25926c.142451-4.700855-.14245-9.40171 0-13.960115h9.25926c.14245-2.564102.14245-2.849003-.14245-5.982906H66.096865c-.427351 15.669517-.569801 36.182334-.427351 45.726494 6.125357 0 15.242166.14245 15.242166.14245zm24.21652-10.82621c-.42734-9.40171 1.13961-10.54131-2.5641-11.25356 2.99146-.99715 2.70656-2.991452 2.5641-11.965811 0-12.250713.28491-11.823363-10.683756-11.823363h-6.980057l-.427351 45.726494h5.128206v-19.65812h7.692308C100 111.82336 100 113.39031 100 122.93447c1.85185.14245 2.849 0 4.98575 0 .14245.14245 0-4.98575.14245-10.68376zm-4.8433-14.957263h-7.977208c.14245-5.413105 0-7.977208-.14245-13.960114h8.119658s-.14245 8.262108 0 13.960114zm15.81197-19.943021h-4.84331c.14245 15.527067.2849 45.584044.2849 45.584044h4.55841c0-15.52706.2849-30.056977 0-45.584044zm20.94017 45.584044v-5.1282h-8.40456c0-4.70086-.14245-9.68661-.14245-14.52992h8.40456c0-2.70655.14245-2.99145 0-5.982903h-8.40456c.14245-5.982906.14245-7.549858 0-14.529915 4.8433-.14245 5.41311-.14245 8.54701 0v-5.555556h-14.38747c-.2849 17.236468-.14245 18.376069.14245 45.726494z"/>
</svg>