<svg id="Layer_1" data-name="Layer 1" xmlns="http://www.w3.org/2000/svg" viewBox="0 0 200 200"><defs><style>.cls-1{fill:#fff500}</style></defs><circle class="cls-1" cx="100" cy="100" r="100"/><path d="M100.71 9.69l-91 91c29.77 29.77 60.4 59 91 89.6 32.48-31.48 59.69-58.83 89.6-89.6-30.77-32.88-55.41-56.82-89.6-91z"/><path d="M100.71 190.88l-.28-.28c-15.67-15.81-31.63-31.34-47.15-46.44C38.89 130.06 23.93 115.53 9.4 101l-.28-.29 91.59-91.59.29.28c7.12 7.12 14 13.82 20.37 20.37 24.07 23.93 44.87 44.73 69.23 70.66l.28.28-.28.29c-34.76 35.75-60.83 61.68-89.6 89.6zM10.4 100.71c14.39 14.39 29.2 28.78 43.6 42.88 15.38 15 31.2 30.48 46.86 46.15 28.64-27.63 54.42-53.56 89-89-24.19-25.81-44.86-46.47-68.92-70.4l-20.09-20.08z"/><path class="cls-1" d="M182.05 100.71c-27.92-29.77-50.28-51.56-81.2-82.48q-41.44 41.25-82.62 82.48c27.07 27.07 54.85 53.42 82.48 81.2 29.49-28.49 54.13-53.28 81.34-81.2zm-88.18 47c-33.76-5.13-51.56-44.16-33.19-72.79 18.81-29.06 61-29.49 79.92-1 6.69 10.12 9.54 23.79 7.26 35.47s-11 24.65-21.22 31.2c-8.83 5.71-22.51 8.7-32.77 7.13zm-13-24.64s0-2.14.14-5.27h-9.4c-.14-6.7-.28-8.84 0-14.53h9.12c-.14-2.14.28-3.56.14-6.13h-9.22c.14-4.7-.14-9.4 0-14h9.26a29.26 29.26 0 00-.14-6H66.1c-.43 15.67-.57 36.18-.43 45.72 6.12.07 15.24.22 15.24.22zm11.4-19.66H100c.14 8.55.14 10.11.14 19.66 1.85.14 2.85 0 5 0 0 0-.14-5.13 0-10.83-.43-9.4 1.14-10.54-2.57-11.25 3-1 2.71-3 2.57-12 0-12.25.28-11.82-10.69-11.82h-7L87 122.93h5.13c.04-9.54.18-22.22.18-19.51zm-.14-20.23h8.11s-.14 8.26 0 14h-8c.07-5.44-.07-8.01-.07-13.99zm23.93-5.84h-4.85c.15 15.53.29 45.58.29 45.58h4.56c.04-15.51.32-30.04.04-45.57zM137 122.93v-5.12h-8.41c0-4.7-.14-9.69-.14-14.53h8.4c0-2.71.15-3 0-6h-8.4c.14-6 .14-7.55 0-14.53a85.15 85.15 0 018.55 0v-5.54h-14.35c-.29 17.23-.14 18.37.14 45.72z"/><path d="M80.91 123.08s0-2.14.14-5.27h-9.4c-.14-6.7-.28-8.84 0-14.53h9.12c-.14-2.14.28-3.56.14-6.13h-9.26c.14-4.7-.14-9.4 0-14h9.26a29.26 29.26 0 00-.14-6H66.1c-.43 15.67-.57 36.18-.43 45.72 6.12.06 15.24.21 15.24.21zm24.22-10.83c-.43-9.4 1.14-10.54-2.57-11.25 3-1 2.71-3 2.57-12 0-12.25.28-11.82-10.69-11.82h-7L87 122.93h5.13v-19.65h7.69c.14 8.54.14 10.11.14 19.65 1.85.15 2.85 0 5 0 .17.15.04-4.93.17-10.68zm-4.85-15h-8c.14-5.41 0-8-.14-14h8.11s-.11 8.35.03 14.04zm15.82-19.9h-4.85c.15 15.53.29 45.58.29 45.58h4.56c0-15.52.28-30.05 0-45.58zm20.9 45.58v-5.12h-8.41c0-4.7-.14-9.69-.14-14.53h8.4c0-2.71.15-3 0-6h-8.4c.14-6 .14-7.55 0-14.53a85.15 85.15 0 018.55 0v-5.54h-14.35c-.29 17.23-.14 18.37.14 45.72z" fill="#fff"/></svg>