<svg id="Layer_1" data-name="Layer 1" xmlns="http://www.w3.org/2000/svg" viewBox="0 0 200 200"><defs><style>.cls-1{fill:#ff0;}.cls-2{fill:#fff;}</style></defs><circle class="cls-1" cx="100" cy="100" r="100"/><path d="M100.71,9.69l-91,91c29.77,29.77,60.4,59,91,89.6,32.48-31.48,59.69-58.83,89.6-89.6C159.54,67.81,134.9,43.87,100.71,9.69Z"/><path d="M100.71,190.88l-.28-.28c-15.67-15.81-31.63-31.34-47.15-46.44C38.89,130.06,23.93,115.53,9.4,101l-.28-.29L100.71,9.12l.29.28c7.12,7.12,14,13.82,20.37,20.37,24.07,23.93,44.87,44.73,69.23,70.66l.28.28-.28.29c-34.76,35.75-60.83,61.68-89.6,89.6ZM10.4,100.71C24.79,115.1,39.6,129.49,54,143.59c15.38,15,31.2,30.48,46.86,46.15,28.64-27.63,54.42-53.56,89-89C165.67,74.93,145,54.27,120.94,30.34L100.85,10.26Z"/><path class="cls-1" d="M182.05,100.71c-27.92-29.77-50.28-51.56-81.2-82.48Q59.41,59.48,18.23,100.71c27.07,27.07,54.85,53.42,82.48,81.2,29.49-28.49,54.13-53.28,81.34-81.2Zm-88.18,47c-33.76-5.13-51.56-44.16-33.19-72.79,18.81-29.06,61-29.49,79.92-1,6.69,10.12,9.54,23.79,7.26,35.47s-11,24.65-21.22,31.2C117.81,146.3,104.13,149.29,93.87,147.72Zm-13-24.64s0-2.14.14-5.27h-9.4c-.14-6.7-.28-8.84,0-14.53h9.12c-.14-2.14.28-3.56.14-6.13H71.65c.14-4.7-.14-9.4,0-14h9.26a29.26,29.26,0,0,0-.14-6H66.1c-.43,15.67-.57,36.18-.43,45.72C71.79,122.93,80.91,123.08,80.91,123.08Zm11.4-19.66H100c.14,8.55.14,10.11.14,19.66,1.85.14,2.85,0,5,0,0,0-.14-5.13,0-10.83-.43-9.4,1.14-10.54-2.57-11.25,3-1,2.71-3,2.57-12,0-12.25.28-11.82-10.69-11.82h-7L87,122.93h5.13C92.17,113.39,92.31,100.71,92.31,103.42Zm-.14-20.23h8.11s-.14,8.26,0,14h-8C92.31,91.74,92.17,89.17,92.17,83.19Zm23.93-5.84h-4.85c.15,15.53.29,45.58.29,45.58h4.56C116.1,107.41,116.38,92.88,116.1,77.35ZM137,122.93v-5.12h-8.41c0-4.7-.14-9.69-.14-14.53h8.4c0-2.71.15-3,0-6h-8.4c.14-6,.14-7.55,0-14.53a85.15,85.15,0,0,1,8.55,0V77.21H122.65c-.29,17.23-.14,18.37.14,45.72Z"/><path class="cls-2" d="M80.91,123.08s0-2.14.14-5.27h-9.4c-.14-6.7-.28-8.84,0-14.53h9.12c-.14-2.14.28-3.56.14-6.13H71.65c.14-4.7-.14-9.4,0-14h9.26a29.26,29.26,0,0,0-.14-6H66.1c-.43,15.67-.57,36.18-.43,45.72C71.79,122.93,80.91,123.08,80.91,123.08Zm24.22-10.83c-.43-9.4,1.14-10.54-2.57-11.25,3-1,2.71-3,2.57-12,0-12.25.28-11.82-10.69-11.82h-7L87,122.93h5.13V103.28h7.69c.14,8.54.14,10.11.14,19.65,1.85.15,2.85,0,5,0C105.13,123.08,105,118,105.13,112.25Zm-4.85-15h-8c.14-5.41,0-8-.14-14h8.11S100.14,91.6,100.28,97.29ZM116.1,77.35h-4.85c.15,15.53.29,45.58.29,45.58h4.56C116.1,107.41,116.38,92.88,116.1,77.35ZM137,122.93v-5.12h-8.41c0-4.7-.14-9.69-.14-14.53h8.4c0-2.71.15-3,0-6h-8.4c.14-6,.14-7.55,0-14.53a85.15,85.15,0,0,1,8.55,0V77.21H122.65c-.29,17.23-.14,18.37.14,45.72Z"/></svg>