<svg xmlns="http://www.w3.org/2000/svg" viewBox="0 0 144 144">
    <circle fill="#f58121" cx="72" cy="72" r="70.2"/>
    <path fill="#fff" d="M32.3 39h82.3v74.8H32.3z"/>
    <path fill="#010101" d="M70.1 134s-.4-.1-.8-.1c-.9 0-1.1-.1-1.5-.6-.3-.4-.3-.4-.3-.9 0-.3.1-.6.2-.7.1-.1.2-.4.3-.7.1-.3.2-.7.3-.8.1-.1.2-.5.2-.8.1-.3.2-1 .3-1.4.2-.9.5-1.7.7-2.8.1-.3.2-.9.4-1.3.1-.4.3-1 .3-1.3s.2-.8.3-1c.1-.3.2-.7.3-1 0-.3.2-.7.3-1.1.3-.7.3-1.1 0-1.3-.2-.2-.4-.1-1.8.9-.1.1-.4.2-.5.3-.2.1-.5.3-.6.5-.2.1-.4.3-.5.4s-.4.2-.6.3c-.2.1-.5.3-.6.4-.3.2-.5.3-1.3.8-.2.1-.5.3-.6.4-.2.1-.5.3-.8.5-.3.1-.6.4-.7.5-.1.1-.4.2-.5.3-.1 0-.4.2-.6.4-.2.2-.4.3-.5.3s-.3.1-.5.2c-.5.3-1.4.5-1.7.4-.4-.2-.5-.5-.2-1.2.3-.9.3-1 .1-1.1s-.3-.1-.8-.1c-.3.1-.8.2-1 .3-.2.1-.8.2-1.2.3-.5.1-1 .2-1.3.3-.2.1-.8.2-1.2.3-1.1.3-1.5.4-2.3.6-.4.1-1 .3-1.5.4-.4.1-1.1.3-1.4.4-.7.2-1.7.3-2.1.1-.2-.1-.5-.5-.5-.7 0-.1.1-.3.2-.5s.2-.4.2-.5.1-.2.2-.4c.1-.1.2-.4.3-.6s.2-.5.4-.7c.2-.3.3-.7.2-.9 0-.1-.3-.2-.5-.3-.6-.3-1.7-.4-2.7-.1-.4.1-1.2.2-1.7.3s-1.1.2-1.5.3c-.3.1-.9.2-1.3.2s-1.1.2-1.6.3c-.5.1-1.1.2-1.5.3-.3 0-.9.1-1.3.2s-1.1.2-1.5.3c-.4.1-.9.1-1.1.2h-1c-.5-.1-.6-.2-.9-.5-.6-.7-.3-1.5.8-2.4.2-.2.6-.4.8-.6s.4-.3.5-.3 1.2-.7 1.2-.8c0-.1.1-.1-2.3-.1-1.8 0-2.1 0-2.2-.2-.2-.2-.2-.6-.2-8v-7.8l-.2-.2c-.1-.1-.3-.2-.4-.2s-.3-.1-.4-.2c-.2-.1-.5-.3-.7-.3-.2-.1-.5-.2-.6-.3-.1-.1-.4-.2-.7-.3-.3-.1-.6-.2-.6-.3-.1-.1-.2-.2-.4-.2-.1 0-.5-.2-.9-.3-1.1-.5-1.8-.9-2-.9-.4-.1-.3-.7.3-1.2.5-.4.7-.7.5-.9-.1-.1-.2-.1-.2-.1-.1 0-.4-.1-.7-.3-.3-.2-.7-.3-.7-.3-.1 0-.4-.1-.6-.2s-.5-.2-.6-.2-.4-.1-.7-.2c-.4-.1-.8-.2-1-.2s-.6-.2-.8-.3c-.3-.1-.7-.3-1.1-.4-1-.3-1.5-.5-2-.8-.3-.1-.7-.3-.9-.3-.2-.1-.5-.2-.6-.2-.1-.1-.4-.2-.6-.2-.2-.1-.6-.2-.9-.4-.3-.1-.6-.3-.7-.3-.2-.1-.9-.5-1.8-1-.2-.1-.5-.4-.7-.5-.4-.3-.4-.3-.2-.6.2-.4.7-.7 1.3-.9.2-.1.6-.2.7-.2.1-.1.5-.2.8-.2.3-.1.8-.2 1-.3.3-.1.7-.2 1-.3.3 0 .7-.2 1-.3.2-.1.7-.2 1.1-.3.4-.1.9-.2 1.2-.3.3-.1.9-.2 1.4-.3.5-.1.9-.2 1-.3.1-.1.4-.2.7-.3.3-.1.7-.2.8-.3.1-.1.4-.2.6-.2.2-.1.5-.2.5-.2.1-.1.3-.2.5-.3.5-.3 1.5-1.2 1.5-1.6.1-.5-.1-1.2-.4-1.7-.4-.6-1.4-1.7-2-2.2-.3-.2-.7-.5-.9-.7-.2-.1-.4-.3-.5-.3s-.4-.2-.6-.4c-.3-.2-.6-.3-.7-.4-.1 0-.2-.1-.2-.1s-.2-.2-.4-.3c-1.3-.7-3.4-2.5-4.1-3.6-.3-.5-.4-.6-.6-1.1-.2-.4-.2-.7-.2-1.1 0-.5 0-.5.4-.8.4-.4.8-.4 1.7-.1.5.1 1 .2 1.7.2.9 0 1 0 1.3-.2.5-.3.5-.6.1-1.4-.4-.7-.8-1.4-1.5-2.2-.2-.3-.5-.6-.6-.7s-.3-.5-.6-.8c-.5-.7-.8-1.1-1-1.6l-.3-.6c-.1-.2-.2-.4-.2-.8 0-.5 0-.6.4-.9.3-.3.5-.4 1-.4 1.2-.1 1.2-.1 1.2-.5 0-.1-.1-.3-.1-.4-.1 0-.4-.4-.6-.7-.3-.4-.6-.7-.6-.8-.1-.1-.2-.2-.2-.3s-.1-.2-1.7-1.8c-1.9-2-2.6-2.9-2.9-3.7-.2-.7-.1-1.3.3-1.7l.3-.3h1.1c1.1 0 1.1.1 1.8.4 1.4.7 3.5 1.8 3.8 1.8.2 0 .5.1.7.2.2.1.6.2.9.3s.6.2.7.2c.1.1.5.2.8.3s.7.2.9.3c.6.3.6.1.6-1.5 0-1.2 0-1.4.2-1.6.2-.2.3-.2.7-.2.3 0 .6.1.8.2.1.1.4.2.6.3l.6.3c.1.1.4.2.6.3s.5.3.6.4l.4.2c.1 0 .2.1.4.2s.4.3.6.4c.2.1.5.2.6.4.2.1.4.2.5.2.2 0 .2-.1.2-8.5 0-6 0-8.6.1-8.8.1-.3.2-.4.5-.4.2-.1 2.8-.1 8.3-.1 7.7 0 7.9 0 8-.2.1-.3 0-1.2-.2-1.9-.1-.4-.2-1-.3-1.4s-.2-.8-.2-.9c-.1-.1-.2-.5-.3-.8s-.2-.8-.4-1c-.1-.2-.2-.5-.2-.6s-.1-.5-.2-.8c-.2-.7-.5-1.8-.5-2.3 0-.7.4-1.1 1.2-1.1.5 0 .7.1 3.2 2.8 1.1 1.2 3 3.1 4.1 4.3 1.1 1.2 2.4 2.4 2.7 2.8 1 1 .9 1 2.2 1 1.5 0 1.8-.1 2.4-.6.3-.2.5-.5.6-.6.3-.5.6-1.5.6-2.3 0-.5.2-1.1.3-1.5.2-.5.2-.7.1-1.9-.1-.7-.1-1.3-.1-1.4s-.1-.8-.1-1.5c-.1-.7-.2-1.7-.2-2.1-.1-.8 0-1.2.4-1.4.5-.2.9-.1 1.3.5 1 1.3 1.3 1.6 1.8 1.9 1 .5 2 .3 2.3-.5l.2-.4s.1-.2.2-.5c0-.2.2-.6.3-.8.1-.2.2-.7.3-1 .1-.4.2-.9.3-1.1.1-.2.2-.9.3-1.5.1-.6.2-1.2.3-1.5.1-.3.2-.9.3-1.3.1-.5.2-1.1.3-1.3.1-.3.2-.6.2-.7 0-.1.1-.4.2-.7s.3-.7.4-.9.2-.5.3-.6c0-.1.2-.3.3-.5.5-1.1 1-1.8 1.6-2.2.6-.5 1.6-.6 2.1-.1.4.3.8 1.1.9 1.8.1.3.2.8.3 1.1.4 1.2.6 1.9.8 2.6.1.4.2 1 .3 1.2.1.2.2.7.3 1s.2.8.3 1c.1.2.2.7.3 1.2.1.5.2 1.1.3 1.3.1.3.2.7.2 1.1 0 .3.2 1 .4 1.5.3.8.4 1 .9 1.5.4.4.9.8 1.3 1 .6.3.8.4 1.3.4.6 0 .7 0 1.2-.4.6-.4 1.5-1.3 2-1.9.2-.2.5-.5.7-.6.3-.2.3-.2.7 0 .7.4.8 1 .4 2-.1.2-.3.8-.4 1.3s-.3 1.1-.3 1.4c-.1.3-.2 1.2-.2 2.1-.1.9-.2 2-.2 2.4-.1.5-.1 1.1-.1 1.3 0 .8.5 1.8 1.1 2 .5.2 2.9.2 3.2 0 .1-.1.5-.3.8-.4.3-.1.5-.3.6-.4 0-.1.1-.2.2-.2s.3-.2.4-.3.4-.4.7-.5c.4-.3 1.8-1.4 2.2-1.8.1-.1.4-.4.7-.6 1-.8 1.9-1.6 3.2-2.9 1.5-1.5 2.9-2.8 3.5-3.3.3-.3.5-.3.8-.3.4.1.9.4 1 .8 0 .1 0 .3-.1.5-.3.5-.6 1.4-.8 2-.1.3-.2.7-.3.9-.1.2-.2.5-.2.8-.1.3-.2.7-.3 1-.2.5-.2.8-.3 2.5v2.2c.1.1.7.2 7.5.2 7.2 0 7.4 0 7.6.2l.2.2v15.8h.4c.2 0 .6-.1 1-.3.3-.2.7-.3.9-.4.2 0 .5-.2.7-.3s.5-.2.6-.2.4-.1.6-.2c.2-.1.6-.3.7-.3.2 0 .6-.2.9-.4.9-.4 1.7-.4 2.1.2.3.4.3.6.1.8-.2.2-.8 1.1-.8 1.2 0 .1-.1.2-.2.3-.2.2-.2.3-.2.5s.1.2.4.2c.2 0 .6-.1 1-.3.3-.2.7-.3.7-.3.1 0 1.3-.6 2-.9.3-.1.5-.2.6-.2s.4-.1.7-.3.6-.3.7-.3c.1 0 .3-.1.6-.2s.7-.3 1-.4c.3-.1.7-.2.9-.3.3-.1.6-.2 1-.2.6 0 .7 0 1 .4.5.6.5.8.2 1.9-.5 1.8-1.3 2.9-3.7 5-1.1 1-1.6 1.6-1.4 2 .1.3.5.4 1.2.4.6-.1 1.1.1 1.3.5.2.3.1 1.1-.1 1.3-.1.1-.3.3-.4.5-.3.5-.6.9-1.1 1.5-.2.3-.5.7-.6.9-.1.2-.3.5-.5.7-.3.4-.5.8-1.4 2-.4.6-.5 1.3-.3 1.5s2.4.1 3.2-.1c.3-.1 1.2-.2 2-.2h1.4l.4.3c.5.3.9 1.1.8 1.3-.2.5-.5.8-2.3 2-.8.5-.9.6-1.1.8-.1.1-.3.2-.5.3-.2.1-.6.4-.9.6-.3.2-.7.5-.9.6s-.3.2-.4.3c0 .1-.1.1-.2.1s-.3.1-.5.3c-.2.2-.5.4-.6.4-.2.1-.5.3-.7.5s-.6.4-.8.5-.4.3-.5.4-.2.2-.3.2c-.1 0-.2.1-.4.2-.1.1-.5.4-.9.7-.4.3-.8.7-1 1-.4.4-.4.5-.5 1.1v1.2c.1.5.1.6.9 1.3.4.4.9.9 1.1.9.2.1.4.2.5.3.1.1.4.2.6.3l.4.2s.3.2.6.3c.3.1.7.2.9.4.2.1.6.2.9.3s.7.2.9.2c.2.1.9.2 1.6.3.7.1 1.5.2 1.8.3.3.1.8.2 1.1.3.3 0 .7.1.9.2s.5.2.7.2c.4.1.5.2.5.6s-.2.7-.7.9c-.2.1-.5.3-.5.3-.1.1-.2.2-.3.2s-.4.1-.7.3c-1 .5-1.6.8-2 .9-.2.1-.5.2-.6.2-.1.1-.4.2-.7.3-.3.1-.7.2-.9.3-.2.1-.4.2-.5.2s-.4.1-.7.2-.7.3-.9.3c-.2.1-.5.1-.6.2s-.6.2-1 .4c-.5.2-1 .4-1.3.5-.6.2-2.1 1-2.2 1.1-.2.2 0 .4.3.4.4 0 1.7.6 1.8.9.1.2.1.7 0 .9-.4.3-.8.6-1.1.9-.2.2-.5.3-.6.4-.6.4-2 1.3-2.7 1.7-.2.1-.7.4-1 .5-.3.2-.8.4-1 .5s-.6.3-.8.5l-.3.3v16.4l-.2.2c-.2.2-.3.2-1.7.1-1.5 0-1.8 0-1.3.3.1.1.4.3.6.5.3.3.3.4.3.8 0 .8-.2 1-1.7 1.3-.9.2-1.3.3-2.2.3-.7 0-1.2 0-1.5-.1-.2-.1-.8-.2-1.3-.2-.5-.1-1.2-.2-1.6-.3-.4-.1-1-.2-1.5-.3-.5-.1-1.2-.2-1.6-.3-.4-.1-1.1-.2-1.6-.3l-.9-.1-.3.3c-.4.3-.4.7-.2 2 .1.8.1 1-.2 1.7-.2.4-.3.6-.9.7-.4.1-2.4-.1-3.4-.4-.4-.1-1-.2-1.2-.3-.3-.1-.6-.2-.8-.3-.2-.1-.4-.2-.5-.2-.2-.1-1-.4-2.1-.9-.7-.4-1.9-.4-2.2-.1-.2.2-.4.9-.3 1.7.1.7.1.7-.2 1.1-.5.6-.9.6-1.8-.2-.3-.3-.6-.5-.7-.5s-.2-.1-.3-.2c-.1-.1-.4-.3-.6-.4s-.5-.4-.8-.5c-.2-.2-.5-.4-.7-.5s-.6-.4-.9-.6-.7-.4-.8-.5c-.1-.1-.3-.1-.3-.2 0 0-.2-.2-.5-.4-.7-.4-1.1-.7-2.1-1.4-.5-.3-1-.7-1.2-.8-.2-.1-.4-.3-.6-.4-.2-.2-.4-.2-.8-.2-.9 0-.9.1-.9 1.8 0 1.2-.1 2.5-.3 4.5 0 .3-.1.7-.2.9-.1.2-.2.6-.3.9-.1.3-.2.9-.3 1.3-.1.4-.2.8-.2 1s-.1.6-.2.9c-.1.3-.2.9-.3 1.2-.2 1.1-1.3 2.7-2.3 3.3-1.1.5-1.7.6-1.9.5zm.6-1.4c.3-.1.7-1 .8-1.7.1-.3.2-.9.3-1.2.1-.3.3-.8.3-1.1s.1-.8.2-1.1c.1-.3.3-1.3.4-2.3s.2-1.9.3-2.1c.1-.4.4-2.8.4-3.8 0-.7 0-.9-.1-1s-.2-.1-.2 0c-.2.2-.4 1.2-.4 2 0 .5-.1 1-.1 1.3-.1.3-.2.7-.2 1s-.1.7-.2 1-.2.9-.3 1.3c-.1.4-.2 1-.3 1.2-.1.2-.2.7-.3 1-.1.3-.2.7-.3.9-.1.2-.2.6-.3.9-.1.3-.2.5-.2.6l-.2.6c-.2.5-.5 1.2-.8 1.9-.2.5-.2.6.3.8.1 0 .4 0 .9-.2zM98 122.3c0-.1-.1-.3-.3-.5-.2-.2-.3-.3-.3-1s0-.8.3-1.4c.4-.6.7-1 1.1-1.1.1 0 1.4 0 2.8.1 2.8.1 7.9.2 8.9.1.5-.1.6-.1.6-.2-.1-.4.4-.4-21.5-.4-7.7 0-9.5 0-9.5.1s.3.4.8.6c.4.3.9.6 1.1.8.2.2.5.4.7.5s.5.4.7.5c.2.2.5.4.7.5.8.6 1 .7 1.2.9.3.3.6.2.8-.3.2-.5.5-.9 1.4-1.3.6-.3.7-.3 1.6-.3.6 0 1.1.1 1.3.2.2.1.7.2 1.1.3.4.1.7.2.8.3.1 0 .4.2.8.3.6.2 1 .3 2.4.8.2.1.8.2 1.2.4.4.1.9.3 1 .3.1.2.3.1.3-.2zm-48.9.2c.1-.1.5-.2.7-.2.3 0 .8-.2 1.1-.3.4-.1.8-.2.9-.2.1 0 .6-.1 1.1-.3.5-.2 1.1-.3 1.3-.4s.7-.1 1-.2.6-.2.8-.2.7-.1 1.2-.3l.8-.2.8.3c.6.2.9.4 1.2.6.3.3.4.4.3.7-.1.7.2.8.8.3.2-.1.5-.4.8-.6s.7-.5.9-.6.5-.4.7-.5.5-.4.7-.5c.2-.1.4-.3.6-.4s.5-.3.8-.6c.3-.2.6-.4.8-.5l.2-.2c0-.1-1.5-.1-14.1-.1-9.7 0-14.4 0-15.1.1-1.1.1-1.5.3-2.2.9-.6.5-.9.7-1.1.8-.2.1-.2.4-.1.4.3 0 3-.4 3.3-.5.2-.1.9-.1 1.5-.2s1.5-.2 2-.2c.8-.1 1.1-.2 3.7-.5 1.2-.1 1.4-.1 2 0 1.3.3 2.4 1.3 2.6 2.1 0 .4-.2 1-.4 1-.1 0-.3.5-.2.7.2 0 .3-.1.6-.2zM46.8 112c.2-.2.3-.8.5-1.8.1-.5.2-1 .2-1.3.1-.2.2-.9.3-1.4s.2-1.2.3-1.4c.1-.2.2-.7.2-1.2.1-.4.2-1.2.3-1.8.1-.6.3-1.4.4-1.8.3-1.5.5-2.4.6-3.1.1-.4.2-1 .3-1.5.1-.4.2-1 .3-1.4.1-.3.2-1 .3-1.5s.2-1.1.2-1.3c.5-2 .5-2.1.4-2.4-.1-.2-.1-.2-1-.2-.7 0-.9 0-1.1.2-.2.2-.5 1.2-.6 2.2 0 .3-.2 1-.3 1.5s-.2 1.1-.2 1.2c0 .2-.1.7-.2 1.3-.1.5-.3 1.4-.4 2-.1 1-.4 1.9-.6 2.2-.2.2-.5 0-.6-.2 0-.1-.1-.7-.1-1.3-.1-.6-.2-1.4-.3-1.8s-.2-1.2-.3-1.8c-.1-.6-.2-1.2-.2-1.4l-.2-1c-.2-1.5-.4-2.4-.6-2.7-.2-.2-.3-.2-.7-.1-.6.1-.7.3-.7.9 0 .4-.1.9-.3 1.7-.1.3-.2.9-.2 1.3-.1.4-.2 1-.2 1.2-.1.2-.2.9-.3 1.4s-.2 1.1-.3 1.3c-.1.2-.2.9-.2 1.4-.1 1.2-.4 1.7-.8 1.2-.2-.3-.5-1.1-.6-2.2s-.2-1.7-.4-2.1c-.1-.1-.1-.7-.2-1.2s-.2-1.2-.3-1.6-.2-1.2-.3-1.8c-.1-.9-.1-1.1-.4-1.3-.2-.2-.3-.2-1.6-.2-.7 0-1.4.1-1.4.1-.1.1-.1.4 0 .7.1.1.2.7.2 1.3.1.6.2 1.4.3 1.7.1.3.2 1.1.3 1.7s.2 1.5.3 1.9c.1.5.2 1.3.3 1.8s.2 1.2.2 1.4c.1.3.2.9.2 1.4.1.5.2 1.3.3 1.8s.2 1.3.3 1.8c0 .5.2 1.3.3 1.8.1.4.2 1.2.3 1.8.1 1.1.4 2.3.6 2.4.2.1 1.1.1 1.4 0 .3-.1.4-.4.6-1.3.1-.4.2-1 .3-1.3s.2-.8.3-1.2c.1-.4.2-1 .3-1.5s.3-1.1.3-1.5c.1-.3.2-.8.2-1.1.1-.3.2-.7.2-.9 0-.2.1-.5.2-.6.2-.2.2-.2.3-.1s.2.6.3 1.1.2.9.2 1c0 0 .1.6.2 1.1.1.6.2 1.3.3 1.5s.2.9.3 1.5.2 1.3.3 1.6c.1.3.2.8.2 1.1 0 .4 0 .5.2.6.4.4 1.4.4 1.6.2zm64.1 0c.1-.1 0-1.9-.1-2s-12-.1-30.2-.1c-26.3 0-30.1 0-30.2.1-.1.2-.1 1.8.1 2s60.3.1 60.4 0zm-51-4.4c.1 0 .2-.2.2-1s0-1-.2-1c-.1 0-.9-.1-1.7-.1-2.1 0-1.9.2-1.9-2.5 0-2.6-.1-2.4 1.8-2.4 1.1 0 1.4 0 1.5-.1s.1-.4.1-.9v-.7h-1.6c-1.3 0-1.6-.1-1.7-.2 0-.1-.1-.7-.1-1.5 0-1.8-.1-1.7 2-1.8 1.3 0 1.7-.1 1.7-.2.1-.1.1-.5.1-.9 0-.7 0-.7-.2-.8-.1-.1-1.7-.1-3.7-.1-3.3 0-3.4 0-3.5.2s-.1 13.8 0 13.9c0 .2 7 .2 7.2.1zm9-.3c.2-.2.5-.3.5-.3.1 0 .9-.8.9-.9 0 0 .1-.3.3-.6.3-.5.3-.5.3-1.5 0-.9 0-1-.3-1.6-.3-.7-.9-1.3-1.3-1.4-.1 0-.2-.1-.2-.2s-.1-.2-.3-.2c-.2-.1-.5-.2-.6-.4-.2-.1-.4-.3-.5-.3s-.2-.1-.2-.2-.2-.2-.5-.3c-.8-.4-1.3-.7-1.7-1.1-.5-.5-.6-.7-.6-1.3 0-.7.3-1.1.9-1.4s.6-.3 2.8-.2c1.2.1 1.4.1 1.6-.1.2-.1.2-.2.2-.9 0-.6 0-.7-.3-.8-.2-.1-.9-.1-2.7-.1-2.1 0-2.5 0-3 .2-.9.3-1.7 1-2.2 2.1-.3.6-.4.9-.4 1.5 0 .7 0 .8.2 1.1.1.2.2.4.2.5 0 .2 1.8 1.9 2.1 2 .1 0 .3.1.4.2.2.2.3.2 1.4.8.6.3.9.5 1.4 1 .4.4.4.4.4.9 0 .7-.2 1-.9 1.4l-.5.3h-2.1c-1.4 0-2.1 0-2.2.1-.1.1-.1 1.8 0 1.9s.9.1 3.2.1h3.1l.6-.3zm7.9.2c.1-.1.1-1.8.1-6 0-5.2 0-5.9.1-6.1s.2-.2 1.1-.2c.5 0 1.1 0 1.2-.1.2-.1.2-.1.2-.7 0-1 .3-.9-4.3-.9-3.2 0-3.9 0-4 .1s-.1.4-.1.9v.7h1.2c1 0 1.3.1 1.4.2.2.1.2.5.2 6.1 0 4.7 0 6 .1 6 .4.2 2.7.2 2.8 0zm11.4.1c0-.1.1-.5.1-1v-.9h-1.7c-1.4 0-1.8-.1-1.9-.2s-.2-.4-.2-2.2c0-1.1 0-2.1.1-2.2.1-.3.6-.4 1.9-.3.6 0 1.2 0 1.3-.1.2-.1.3-1.3.1-1.5-.1-.1-.4-.1-1.6-.1s-1.5 0-1.6-.2c-.1-.1-.2-.4-.2-1.2 0-2.2-.2-2.1 2-2.1 1.2 0 1.7 0 1.7-.1.1-.1.2-1.3.1-1.6l-.1-.2h-7.4v13.9c0 .1.9.1 3.7.1 2.8 0 3.6 0 3.7-.1zm5.1 0c0-.1.1-1.3 0-2.7 0-3.2-.1-3 1.2-3 .5 0 1 .1 1.1.1.4.1.8.6 1.1 1.1.2.5.3.5.3 2.4 0 1.1 0 2 .1 2 .1.1 2.2.1 2.5 0 .2-.1.2-.3.1-2.1 0-1.1-.1-2.2-.1-2.3-.1-.4-.7-.9-1-1-.4-.1-.7-.5-.7-.8 0-.2.1-.3.3-.4.4-.2 1.3-1.2 1.4-1.5.1-.2.1-.3.2-.4.3-.3.4-.9.3-1.8-.1-1.6-.7-2.5-2-3.1-.6-.3-.9-.4-1.9-.4-1.5-.1-5.5-.1-5.7.1-.1.1-.1 2.2-.1 7v6.9l.2.1c.6-.1 2.7-.1 2.7-.2zm.3-7.2c-.2-.1-.2-.4-.2-2.7 0-2.4 0-2.5.2-2.7.1-.1.3-.2.6-.2.6 0 2 .4 2.4.8.9.7 1.2 2.1.6 3.3-.3.7-.5.9-1.2 1.3-.4.2-.6.3-1.4.3-.7.1-.8.1-1-.1zm10.8 7.2c.1-.1.1-.6.1-2.8 0-1.5-.1-2.9-.1-3.1 0-.6.2-.7.6-.5.3.1.4.3.5.6.1.3.3.8.6 1.2.7 1.3 1.5 2.8 1.9 3.7l.5.9h2.2l.2-.1v-6.9c0-5.2 0-6.9-.1-7s-.4-.1-1-.1c-.8 0-.9 0-1 .2s-.1.9-.1 3.8v3.8c0 .1-.2.2-.3.2-.3 0-.8-.7-1-1.2-.1-.3-.2-.5-.3-.6-.1-.1-.2-.3-.3-.6-.1-.2-.2-.5-.3-.7-.1-.1-.2-.3-.2-.4s-.2-.4-.3-.8-.3-.8-.3-.8c0-.1-.1-.1-.1-.2-.1-.1-.2-.3-.3-.6-.1-.2-.2-.5-.3-.6-.1-.1-.2-.4-.3-.6-.1-.2-.3-.6-.4-.7-.3-.2-.4-.2-1.1-.2-.5 0-.8 0-.9.1s-.1 13.8 0 14c.1.2 2 .1 2.1 0zm-75.1-8.5c0-.1.1-2.2.1-4.7 0-5.1 0-5-.6-4.8-.1.1-.6.2-1 .2-.4.1-1 .2-1.3.3-.5.2-.8.2-4.2.2-3.8 0-4.1 0-4.1-.4s.3-.5 2.8-.6c1.3 0 2.4-.1 2.5-.1s.9-.1 1.8-.2c1-.1 1.9-.3 2.2-.4.3-.1.8-.2 1-.2.9 0 .8.6.8-7 0-6.2 0-6.8-.2-6.9s-3.5.1-4.4.3c-.8.2-2.9.3-3.2.2-.5-.1-.5-.9-.1-1.1.1-.1.8-.1 1.7-.1.8 0 2.2 0 3.2-.1 1.8-.1 1.9-.1 2.7-.5l.2-.1v-2.9c0-2.7 0-2.9-.2-3.1s-.5-.2-2.3-.3c-2.2-.1-2.8-.2-3.6-.4-.2-.1-1-.2-1.8-.2-1.1-.1-1.4-.1-1.6-.3-.4-.3-.4-.4-.5-.6 0-.3.3-.4 1.4-.4.8 0 1.3.1 2 .2.5.1 1.4.3 2 .3 1.5.1 2.4.2 2.8.4.2.1.4.1.5.1.1-.1-.2-.4-1.4-1.4-.4-.3-.9-.7-1-.8-.5-.7-1.5-1.4-1.9-1.8-.2-.2-.5-.4-.6-.5s-.3-.2-.5-.3c-.1-.1-.3-.2-.3-.2 0-.1-.2-.2-.4-.3s-.4-.3-.5-.4c0-.1-.2-.2-.3-.2s-.3-.2-.4-.3-.4-.4-.7-.6c-.3-.2-.6-.5-.7-.6l-.3-.3s-.2-.1-.3-.2c-.1-.1-.4-.4-.7-.6-.7-.5-1.1-.8-1.4-1.2-.2-.2-.5-.5-.8-.7-.6-.5-.9-.9-.7-1.1.1-.1.2-.1.3.1.1.1.3.2.4.3.1.1.4.2.6.3.2.1.5.3.7.5.6.4 1.1.8 1.4 1.1.1.1.3.2.3.2s.2.1.4.3c.2.1.5.4.7.6.2.2.5.4.6.5s.4.3.5.4c.2.1.3.2.3.2s.1.1.3.2l.6.3c.1.1.4.3.5.4.8.5 1.5 1 2.6 1.9.3.3.4.4 1.8 1.5.4.4.9.7 1.1.9.1.1.3.2.4.2s.2.1.4.3c.3.3.6.4.7.2.1-.3-.2-1.9-.5-2.3-.1-.3-.2-.5-.2-.6s-.1-.4-.3-.6-.3-.7-.3-.9-.1-.5-.2-.6-.2-.4-.3-.6c0-.2-.1-.5-.2-.5-.1-.1-.2-.4-.3-.6-.1-.3-.2-.5-.2-.5-.1 0-.8-1.4-.8-1.6 0-.2.2-.4.6-.4s.5.1.7.8c.1.3.2.5.3.6.1.1.2.3.2.5.1.2.2.5.3.6.1.1.2.4.2.6 0 .2.2.5.3.7.1.2.3.5.3.7.1.4.2.6.4.5.1-.1 0-3.9 0-4s-.2-.2-.4-.2l-.6-.3c-.9-.5-3.5-1.7-3.5-1.6 0 .1 0 .3.1.6s.2.6.2.8c0 .4-.4.9-.9 1-.5.2-1.9 0-2.8-.2-.4-.1-.9-.3-1.1-.3s-.4-.1-.5-.2c-.1-.1-.5-.2-.8-.3s-.8-.2-1-.3-.5-.2-.6-.2-.8-.3-1.5-.6c-.7-.4-1.3-.6-1.4-.6s-.3-.1-.6-.2c-.2-.1-.5-.2-.6-.2s-.3-.1-.4-.2c-.1-.1-.4-.2-.5-.2-.4 0-.3.3.3.9.3.4 1 1.1 1.5 1.6l1.3 1.3c1.8 1.5 2.3 2.2 2.4 3.2.2 1.2-.1 1.8-1.2 2.5-.6.4-.7.6-.3 1 .2.2.4.5.6.7.1.2.5.6.7.9.8 1 1.1 1.4 1.5 2.1.2.3.5.7.5.8.1.1.2.4.3.6.1.2.2.5.3.7.1.2.2.5.2.7 0 .5-.7 1.5-1.6 2.1l-.5.3h-1.3c-1.6 0-1.5 0-1.5.1s.3.3.6.5l1.2.8c.3.2.7.5.9.6.3.2.6.4 1.2.9.2.1.4.3.4.3.1 0 .3.2 1.7 1.3 1.1.9 1.6 1.4 2.1 2.1.2.2.4.5.5.7.2.3.7 1.3.8 1.9.1.2.1.9.1 1.5 0 1 0 1.1-.2 1.4-.3.4-1.5 1.4-2.1 1.7-.3.2-.7.4-.8.5 0-.3-.3-.1-.5-.1-.2.1-.5.2-.7.3-.2.1-.6.2-.9.3-.3.1-.7.2-.8.3-.1.1-.7.2-1.3.3-.6.1-1.2.2-1.4.3-.2.1-.9.2-1.4.3-.5.1-1.1.2-1.3.3-.2.1-.6.2-1 .2-.7.1-1 .2-.9.4.1.2.6.4.9.4.1 0 .5.1.8.3.3.2.7.3.8.3s.4.1.6.2c.3.1.7.3.9.4s.5.2.6.2c.1.1.3.2.6.2.2.1.6.2.9.3.2.1.6.3.7.3.2 0 .5.2.8.3.3.1.5.2.6.2s.4.1.7.3c.3.2.6.3.7.3s.4.1.7.3c.3.2.7.3.7.3s.3.1.6.3c1.8 1.2 2.1 1.8 1.5 2.6-.5.6-.4.9.6 1.1.2 0 .5.1.6.2s.5.2.8.3c.4.1.9.3 1.1.4.5.3.9.4 1 .2zm88.4-1.1c.3-.2.8-.4 1-.5.3-.1.8-.4 1.1-.6.3-.2.8-.4 1.1-.6.8-.4.8-.5.2-1.3-.3-.4-.6-.8-.7-.9-.2-.3 0-.8.4-1.3.4-.4 1.4-1 1.6-1 .1 0 .4-.1.7-.3.3-.2.7-.3.9-.4.2 0 .5-.2.8-.3.2-.1.5-.2.6-.2s.5-.1.8-.3c.4-.2.8-.3.9-.3s.4-.1.7-.2.8-.3 1.2-.4c.4-.1.9-.2 1.1-.3.2-.1.6-.2.9-.2.4-.1 1.1-.3 1.8-.7.1 0 .2-.2.2-.3 0-.2.1-.2-1.6-.5-.7-.1-1.5-.3-1.8-.4s-.6-.2-.8-.2-.5-.1-.8-.2-.7-.3-.9-.3c-.2 0-.5-.1-.6-.2s-.5-.2-.7-.3c-.3-.1-.6-.2-.6-.3-.1-.1-.3-.2-.5-.2-.2-.1-.5-.2-.6-.3-.2-.2-.6-.4-1.2-.7-.7-.4-1.6-1.4-2-2.4-.3-.6-.3-.8-.3-1.5 0-.6 0-.9.2-1 .1-.1.2-.4.3-.7.3-1 1.7-2.4 3.1-3.1.2-.1.5-.3.7-.4.2-.2.4-.3.5-.3 0 0 .1-.1.2-.1.1-.1.3-.2.4-.3.6-.4 1.2-.9 1.2-.9s.1-.1.3-.2c.2-.1.4-.2.5-.3.1-.1.4-.3.7-.6.3-.2.7-.5.8-.6s.5-.3.8-.6c1-.6.9-.7-1-.6-1.6.1-1.7.1-2.1-.2-.2-.1-.5-.3-.6-.4-.2-.2-.6-1.5-.6-2 0-.4.4-1.6.6-1.9.1-.1.2-.3.3-.5.1-.2.3-.5.5-.7.4-.5.9-1.2 1.7-2.3.3-.4.5-.7.5-.8s-.2-.1-.4-.2c-.9-.2-1.7-1.1-1.6-1.8 0-.2.1-.4.2-.5s.2-.3.2-.5c.1-.2.2-.4.2-.5.1-.1.3-.5.6-.8.2-.4.7-1 .9-1.3s.5-.7.6-.9c.3-.5.6-.9 1.3-1.8.7-.9.8-1.1.6-1.1s-1.3.4-1.6.6l-.6.3c-.1 0-.4.2-.5.3-.2.1-.3.2-.4.2-.1 0-.3.1-.5.3-.4.2-1.5.7-2.4.8-.2 0-.4.2-.6.3s-.4.2-.5.2-.4.1-.7.3c-.4.2-.8.3-1.3.3h-.7l-.3-.4c-.4-.5-.6-1-.5-1.7.1-.8-.1-1-.7-.6-.2.1-.5.3-.8.4-.6.2-1.4.5-2 .8-.3.1-.6.3-.7.3s-.3.1-.4.2c-.2.2-.2 2.3 0 2.3.1 0 .4-.3.8-.7.7-.7 1.4-1.1 1.5-1 0 0 .1.2.1.3 0 .2-.2.5-.7 1.1-.1.2-.4.4-.5.6-.2.2-.4.5-.5.6s-.2.3-.2.3l-.2.4-.2.3v4.2s.3-.2.5-.5c.8-.8 1.9-1.7 2-1.7s.2-.1.3-.2c.1-.1.4-.3.6-.4.2-.1.4-.2.4-.3 0 0 .1-.1.3-.2.2-.1.4-.2.5-.4.1-.1.2-.2.3-.2.1 0 .2-.1.4-.3.1-.1.5-.4.7-.6.3-.2.6-.5.7-.6.2-.1.5-.4.7-.5.2-.2.5-.4.7-.6.2-.1.4-.3.4-.3.1 0 .3-.1.5-.3s.4-.3.5-.3.3-.1.4-.2c.2-.2.4-.2.7-.2.5 0 .6.4 0 .9-.2.2-.4.4-.5.4 0 0-.3.2-.5.3-.2.2-.5.3-.5.3-.1 0-.2.1-.3.2-.1.1-.2.2-.3.2-.1 0-.3.2-.5.3-.2.2-.5.4-.6.4s-.2.1-.2.1c0 .1-.2.2-.4.3-.2.1-.4.2-.4.3s-.1.1-.3.2c-.2.1-.4.2-.4.3-.1.1-.2.3-.4.3-.1 0-.4.2-.6.3-.2.2-.5.4-.6.5s-.4.3-.6.5-.4.4-.6.4c-.1.1-.5.4-.8.6-.3.3-.7.6-.9.8-.2.2-.6.6-1 .9l-.7.6v.5c0 .4.1.5.2.5.3 0 1.3-.4 1.6-.6.1-.1.5-.2.8-.3.3-.1.6-.2.8-.3.1-.1.4-.2.6-.2s.5-.2.7-.3c.1-.1.5-.2.7-.3.2 0 .5-.2.7-.3.1-.1.4-.2.5-.2s.4-.1.6-.2c.5-.2.7-.1.7.3 0 .3-.2.5-.7.7-.2.1-.5.2-.6.3-.1.1-.3.2-.5.3-.2 0-.4.2-.6.3-.2.1-.5.3-.7.3-.2.1-.4.2-.5.2-.1.1-.3.2-.5.3-.2.1-.6.2-.7.3-.2.1-.5.3-.7.3s-.5.2-.8.3c-.2.1-.5.2-.6.2s-.3.1-.5.3l-.3.3v1.8c0 1 0 1.9.1 1.9h.9c.4 0 2.3-.1 4.1-.1 3.3 0 3.4 0 3.5.2.2.2.2.2 0 .4-.2.4-1.3.6-2.9.6-.7 0-2.2.1-3.2.1-1 .1-1.9.1-2 .1s-.2.1-.3.1c-.2.1-.2.5-.2 7 0 3.8 0 6.9.1 6.9.1.1.7.2 2.7.3.9.1 2 .2 2.5.2.4.1 1.5.2 2.3.3 1.6.1 1.9.2 1.9.7 0 .6-.3.6-3.1.4-2.5-.2-6.2-.4-6.3-.3-.1.1-.1 8.9-.1 9.6.2.7.3.6.9.3zM52.5 86.7c.1-.1.1-1.2.1-9.9v-9.9c0-.4.8-.6 1.2-.2.1.1.4.3.7.4.2.1.5.3.5.3.1.1.7.4.9.4s.3-.1.4-.3c.2-.4.6-1.1 1.1-1.7.5-.8 1.1-.7-6.5-.7h-6.8v.2c0 .1.1.3.2.4.1.1.3.4.4.6.1.2.3.6.5.9.2.4.3.5.5.5s1.1-.5 1.8-1c.4-.3.9-.3 1.1-.1.1.1.1 2.5.1 10.1 0 6.6 0 10 .1 10.1.1.1 3.5.1 3.7-.1zm53 0c.1-.1 0-1.5-.1-1.6-.2-.2-49.4-.2-49.5 0-.1.1-.1.4-.1.8 0 .6 0 .7.1.8.1.1 4.4.1 24.9.1 13.5 0 24.7-.1 24.7-.1zm-28.2-4.5c1-.2 2.2-.9 2.6-1.6.6-1.1.6-.6.6-6.6 0-4.4 0-5.5-.1-5.6-.2-.1-2.6 0-2.7.1s-.1 1.7-.1 4.9c0 5.5 0 5.3-.8 5.9-.8.7-1.8.7-2.8 0-.8-.5-.7-.2-.7-5.8 0-4.8 0-4.9-.2-5-.3-.1-2.3-.1-2.5 0s-.2.5-.1 5.6c0 5 0 5.5.2 5.8.3.6.7 1.1.9 1.2l.2.2s.3.2.7.4c1.4.7 2.9.8 4.8.5zm21 .1s.1-1.4 0-3v-4.1h.3c.4 0 .6.3.7.9.1.3.2.8.3 1.1.1.3.2.6.2.7s.1.4.2.6.3.6.3.8c0 .2.2.5.3.8.1.2.3.6.3.8.1.6.5 1.3.8 1.4h1.6c1.3 0 1.4 0 1.4-.2 0-.1-.1-.5-.3-.8-.2-.3-.3-.7-.4-.9 0-.2-.2-.5-.3-.6-.1-.2-.3-.5-.3-.8-.1-.3-.2-.6-.3-.7-.1-.1-.2-.4-.2-.6-.1-.2-.2-.6-.4-.9-.1-.2-.2-.5-.2-.6s-.1-.4-.2-.6-.2-.5-.2-.6-.1-.4-.2-.7c-.3-.5-.3-.9-.1-1 .1 0 .2-.2.3-.5.1-.2.3-.7.5-1s.4-.8.5-1 .2-.5.3-.6c.1-.1.2-.4.3-.6.1-.3.3-.5.4-.6s.1-.3.1-.4c0-.2-.1-.2-1.5-.2h-1.4l-.3.3c-.2.2-.4.4-.4.6-.1.3-.4.8-.8 1.2-.1.1-.2.4-.3.6-.1.4-.4.6-.8.5l-.2-.1V70c0-1.1 0-1.5-.1-1.6-.2-.1-2.6-.2-2.7-.1s-.1 1.5-.1 6.9c0 3.7 0 6.9.1 6.9.1.2.2.2 1.4.1.7.2 1.4.2 1.4.1zm-38.2-.1v-2.6c0-3-.1-2.9 1.2-2.9.7 0 .9 0 1.3.3.3.2.6.5.8.8l.3.5v2c0 1.1.1 2 .1 2.1.1.1.7.1 1.5.1h1.4v-1.9c0-1.8 0-1.9-.2-2.3-.3-.5-.8-1-1.4-1.2-.5-.2-.6-.6-.1-1 .2-.2.3-.3.4-.3.3 0 1.3-1.2 1.4-1.8.3-1 .2-2.8-.2-3.3-.1-.2-.3-.4-.3-.5l-.3-.3c-.1 0-.3-.2-.5-.3-.1-.1-.7-.4-1.2-.5-.9-.3-.9-.3-4-.3-2 0-3.1 0-3.2.1-.1.1-.1 1.6-.1 6.8 0 3.7.1 6.8.1 6.8s.7.1 1.5.1c1.3-.2 1.4-.3 1.5-.4zm.3-6.8c-.1 0-.2-.2-.3-.3 0-.1-.1-1.3-.1-2.6 0-2.3 0-2.4.2-2.6s.3-.2 1-.1c1 .1 1.7.4 2.2 1 .4.5.5 1 .4 2.1-.1.9-.1 1.1-.8 1.7-.4.3-.5.4-1.3.6-.7.3-1 .4-1.3.2zm25.2 6.9c.2-.1.2-.2.2-2.3 0-1.2 0-2.5-.1-2.9-.1-.9-.1-1.2.3-1.2.3 0 .9.5.9.8 0 .1.1.4.2.6s.3.5.4.7c.2.4.6 1 .8 1.3.2.3.6 1 .8 1.4.1.2.3.5.4.6.1.2.2.4.2.5s.1.2.2.3c.3.2 2.4.2 2.6 0 .1-.1.1-1 .1-6.8-.1-4-.1-6.8-.2-6.8-.1-.1-2-.2-2.1 0 0 .1-.1 1.8-.1 3.8 0 2.6 0 3.8-.1 3.9-.2.3-.5.2-.7-.2-.1-.2-.3-.5-.4-.6s-.2-.4-.3-.6c-.1-.2-.2-.4-.2-.5-.1 0-.2-.3-.3-.6-.1-.3-.4-.8-.6-1.1-.2-.3-.4-.7-.4-.8-.1-.1-.2-.4-.3-.5-.1-.2-.3-.5-.4-.8s-.3-.6-.4-.7-.2-.4-.3-.6c-.1-.2-.3-.5-.4-.6-.2-.2-.3-.2-1-.2-.4 0-.9 0-.9.1-.1.1-.1 1.5-.1 6.9 0 3.7 0 6.8.1 6.9.2.1 1.8.1 2.1 0zM41.4 62.9c.2-.1.7-.2 1.2-.2.6-.1 1-.2 1.3-.4.6-.4 1.2-.9 1.2-1.1 0-.1.1-.3.3-.5.3-.4.7-.5.9-.2.1.1.4.5.7.8.3.4.6.7.7.8.1.1.2.2.3.2.2 0 .2-.1.2-4.8 0-3.6 0-4.8-.1-4.9-.2-.1-3.6-.2-3.8-.1-.1.1-.1 1.2-.1 3v2.9l-.3.4c-.5.6-1.1 1.1-1.7 1.1-.6 0-1.4-.5-1.8-1.2l-.4-.5V44.4l.3-.5c.2-.3.4-.6.6-.8.4-.4 1.5-.9 1.9-.9s1.2.6 1.6 1c.4.5.4.8.4 2.1 0 .9 0 1.1.1 1.1s.7-.5 2.5-2.2c.4-.4.7-.7.7-.8s-.1-.3-.2-.6c-.2-.6-.5-1.2-1.1-1.7-.7-.7-.9-.8-1.9-1.1-.8-.2-1.1-.3-2.2-.3s-1.4 0-1.9.2c-.3.1-.6.2-.7.2s-.4.1-.6.3c-.2.2-.5.3-.5.3-.1 0-1.5 1.3-1.5 1.5l-.2.4c-.2.3-.7 1.3-.8 2.1-.1.2-.1 3.2-.1 7.4v7l.3.8c.3.6.5.9.9 1.4.3.3.6.6.7.6s.3.1.4.2c.2.1.6.3.8.3.3.1.7.2.9.2.5.4.6.4 1 .3zm55.2-1c.1-.1.1-.4.1-.7 0-.5 0-.6-.3-.7-.2-.1-4.8-.1-23-.1-20.2 0-22.8 0-22.9.1-.1.1-.1.3-.1.7 0 .3 0 .6.1.7 0 0 10.4.1 23 .1 18.3 0 23-.1 23.1-.1zm-42.2-7.1v-2.6l.2-.2c.2-.2.4-.2 1.1-.2.7 0 .9.1 1.3.4.3.2.6.5.8.8l.3.5v1.9c0 1 0 1.9.1 2s2.7.1 2.8 0c0-.1.1-.9 0-1.9 0-1.3-.1-1.8-.2-2.1-.1-.2-.1-.3-.1-.4 0-.2-.9-.9-1.1-.9-.3 0-.6-.3-.6-.6s.4-.8.5-.8c.2 0 .9-.7 1.1-1.1.1-.1.2-.4.3-.5.2-.3.3-1.9.2-2.7-.2-1-1.4-2.1-2.4-2.3-.3-.1-.8-.2-1.2-.3-.6-.1-1.2-.1-3.5-.1h-2.8v13.6c.1.1.4.1 1.5.1h1.4l.3-2.6zm.2-4.2c-.1-.1-.2-.2-.2-.3v-2.4c0-1.8 0-2.4.1-2.5.1-.2.3-.2.9-.2.7 0 .9 0 1.4.3 1.2.6 1.6 1.3 1.4 2.9-.1 1.3-.8 1.9-2.3 2.2-1.1.2-1.1.2-1.3 0zm10.1 6.5c.2-.8.6-1.5.8-1.6.1 0 1-.1 1.9 0 2 0 1.9 0 2.2.9.4 1.1.2 1 1.6 1s1.5 0 1.1-.9c-.1-.3-.3-.8-.4-1.1s-.2-.7-.3-1c-.1-.2-.2-.7-.3-1-.1-.3-.2-.8-.3-1-.1-.2-.2-.6-.2-.9 0-.3-.1-.7-.2-.9s-.2-.7-.3-1c-.1-.3-.2-.8-.3-1-.1-.2-.2-.8-.3-1.2l-.2-.8c0-.1-.2-.5-.3-1-.1-.5-.3-1.1-.4-1.3l-.2-.4h-1.8l-.3.7c-.2.4-.4 1-.4 1.4-.1.4-.2.8-.3 1.1-.1.2-.2.7-.3.9 0 .3-.2.9-.4 1.3-.1.5-.3 1-.3 1.1s-.1.5-.2.7-.2.7-.3 1-.2.8-.3 1.1c-.1.3-.2.7-.3 1.1-.1.3-.2.8-.3 1s-.2.7-.2.9c0 .3-.1.6-.2.8-.2.5-.1.6.8.5.9-.1.9-.1.9-.4zm1.3-3.8c-.3-.3-.2-.6 0-1.3.1-.3.3-.9.4-1.3.2-.8.5-1.5.7-1.6h.4c.2 0 .3.2.5.9.2.5.3 1 .4 1.2 0 .2.2.6.3 1 .2.5.2.6.1.8-.1.1-.2.3-.2.3-.1 0-.6.1-1.3.1-1 .1-1.1.1-1.3-.1zm11.1 4.1c0-.1.1-1.5 0-3.1 0-2.6 0-3 .1-3.1.2-.2.5-.1.7.4.1.2.3.5.4.6s.1.2.1.4c0 .1.1.4.2.5.1.2.3.6.5.9.1.3.3.6.3.7s.2.3.2.4c.3.5.5 1 .6 1.2.1.1.2.4.3.7.1.2.3.5.4.5.1.1.6.1 1.2.1h1V44.2c0-.2-.1-.2-1-.2-.7 0-.9 0-1 .1 0 .1-.1 1.8-.1 3.8s0 3.7-.1 3.7c0 .1-.2.2-.3.2-.2 0-.3-.1-.4-.4-.1-.2-.2-.5-.3-.5-.1-.1-.2-.2-.2-.4s-.6-1.3-1.2-2.5-1.1-2.3-1.2-2.4c-.1-.3-.6-1.2-.8-1.3-.1 0-.4-.1-.9-.1-.7 0-.8 0-.9.2-.1.4-.1 13.1 0 13.3.6-.2 2.3-.2 2.4-.3zm17.1-.1c.7-.4.8-.4 1.1-.6.5-.5.5-.4.5-5.7v-4.9l-.3-.6c-.4-.8-1-1.2-2-1.5-.8-.2-1.1-.2-3.6-.3-1.6 0-2.8 0-2.9.1s-.1 13.4 0 13.6c.1.2 6.8.1 7.2-.1zm-4.1-1.2c-.1 0-.2-.2-.3-.3 0-.1-.1-2.4-.1-5.1 0-4.5 0-4.9.2-5.1.2-.2.6-.2 1.5-.1.5.1.7.2.9.4l.3.3v9l-.4.3c-.4.6-1.6.8-2.1.6zM52.8 36.9c.2-.2-1.5-2.2-3.3-3.7-.2-.2-1.1-1.2-2-2.2s-1.6-1.8-1.7-1.8h-.2c0 .1.4 1.6.6 2 .1.3.2.7.2.8 0 .2.1.5.2.9.1.3.3.9.3 1.2.1.3.2.8.3 1.1s.2.6.2.8c0 .5.2.9.5 1 .5 0 4.8 0 4.9-.1zm15 0c0-.1-.5-1-.7-1.1-.1-.1-.1-.2-.1-.3s-.1-.2-.2-.4-.3-.4-.4-.6c-.1-.2-.3-.5-.5-.8s-.4-.7-.5-.9c-.2-.4-.2-.4-.5-.8-.4-.6-.1-1.5.4-1 .4.5.8.9.9 1.2l.8 1.2c.1.2.3.4.3.4l.2.4c.1.1.2.3.2.3 0 .1.3.4.9 1.2l.2.4c0 .1.2.3.4.5l.4.3h1c.6 0 1.1 0 1.2-.1.2-.1.3-1.4.3-3.4v-2l-.3-.6c-.2-.4-.3-.7-.3-.7 0-.1-.1-.2-.2-.4s-.3-.5-.3-.7-.2-.5-.3-.7c-.1-.2-.2-.5-.3-.7 0-.2-.1-.4-.3-.5-.4-.3-.2-.7.3-.7.4 0 .8.4.8.8 0 .2.1.4.2.6s.2.4.2.5c0 .4.3.8.5.8s.2 0 .2-1v-3.3c.1-2 0-2.4-.1-2.8-.1-.2-.2-.5-.2-.6 0-.3.3-.6.7-.6.3 0 .4 0 .5.4.1.3.1.7.1 2.7-.1 4.7 0 5.9.1 5.9s.2-.2.4-.5c.3-.5.7-1 1.3-1.7.1-.2.2-.3.2-.4s.7-.9.9-.9c.4 0 .5.5.1.9l-.2.4c0 .1-.1.3-.2.5-1 1.2-1.6 1.9-2 2.3-.3.3-.5.6-.5.8 0 .2-.1 1.2-.1 2.2 0 1.7-.1 2-.2 2.4-.2.5-.2.6-.2.9.1.3.3.3 1.5.3s1.4 0 1.7-.2c.2-.1.4-.2.4-.3 0 0 .1-.2.3-.4.3-.3 1.3-1.5 1.7-2.1.2-.2.4-.5.5-.6s.4-.4.5-.7c.2-.3.6-.8 1-1.1.6-.6.7-.7 1.1-.7.3 0 .4 0 .4.3 0 .2-.2.4-.6.9-.3.3-.7.8-.9 1.1-.2.2-.5.6-.6.8-.2.2-.4.4-.5.6-.1.1-.5.6-.8 1-.7.9-1.1 1.4-1.1 1.5s6.8.1 6.9 0 0-.4-.3-.8c-.3-.5-.6-2.5-.6-4.9 0-1.8 0-2.2.2-2.7.3-1 .2-1.3-.3-.8-.1.1-.3.2-.3.2-.1 0-.2.1-.4.2-.3.2-.4.2-1.3.2-1.1 0-1.2 0-2.8-.9-.8-.4-1.6-1.3-2.1-2.3-.1-.2-.3-.5-.3-.6-.1-.1-.2-.3-.2-.5-.1-.2-.2-.5-.2-.5-.1-.1-.2-.4-.3-.7-.1-.3-.2-.7-.3-.8-.1-.1-.2-.6-.3-1-.1-.4-.2-.9-.3-1.1-.1-.2-.2-.6-.2-.9-.1-.7-.2-1.4-.4-2-.1-.2-.2-.7-.2-1 0-.3-.2-.8-.3-1.1-.1-.3-.2-.7-.3-1-.1-.3-.2-.7-.3-.9-.1-.2-.2-.5-.2-.6 0-.2-.1-.4-.1-.5-.2-.2-.5-.1-.7.4-.1.2-.3.4-.4.6-.1.2-.3.4-.3.6 0 .2-.2.7-.4 1.2s-.3 1-.3 1.2c0 .2-.1.6-.1.9-.1.3-.2.9-.3 1.4-.1.5-.2 1.1-.3 1.4-.1.3-.3.9-.3 1.3-.2 1.3-.8 3.1-1.4 4.6-.5 1.3-.9 1.9-1.4 2.3l-.5.4h-.9c-.8 0-1 0-1.5-.3-.3-.2-.6-.3-.7-.3-.1 0-.2-.1-.2-.1-.1-.1-.2-.1-.3-.1-.2 0-.2.5 0 1 .2.4.3 2.8.3 4.2 0 .9-.1 1.2-.3 1.8-.2.4-.3.7-.3.8 0 0-.3.4-.7.8-.4.4-.7.8-.7.9 0 .1 1.3.1 3.6.1 1.7-.2 3.3-.2 3.3-.3zm31.2 0c0-.1.1-.7.1-1.3 0-.8.1-1.4.2-1.7.1-.2.2-.9.3-1.4.1-.5.2-1.1.3-1.2.1-.2.1-.4.1-.6 0-.3 0-.3-.2-.3s-.5.2-3.8 3c-.2.2-.5.4-.6.5-.8.7-1.1.9-1.5 1.2-.2.2-.6.4-.7.5s-.3.3-.5.3c-1 .6-1.4.9-1.4 1.1.2.1 7.6 0 7.7-.1z"/>
    <path fill="#010101" d="M32.7 38.7h81.8v75.7H32.7z"/>
    <path fill="none" stroke="#fff" stroke-miterlimit="10" d="M30.8 39.2h84.3v77.2H30.8z"/>
    <path fill="#fff" d="M58.2 113c-.1-.1-.3-.1-.3-.2 0 0-.1-.3-.1-.6 0-.5 0-.6.1-.6.1-.1 1.6-.1 17-.1 9.2 0 19 .1 21.7.1h4.9l.1.2c0 .1.1.4.1.6 0 .4 0 .5-.1.6l-.2.1H79.9c-19.2 0-21.5-.1-21.7-.1zm-7.9-.3c-1-.2-1.9-.9-2.7-2-.1-.2-.2-.3-.2-.4 0 0-.1-.1-.1-.2-.1-.1-.4-.8-.4-1 0-.1.3-.3.6-.3.1 0 .3-.1.5-.1.7-.3 1.1-.1 1.4.5.2.3.4.6.8.9.3.2.9.4 1.1.4.2 0 .7-.2 1-.5.2-.2.2-.2.3-.5 0-.3 0-.4-.1-.6-.1-.1-.2-.3-.2-.3s-.1-.2-.2-.3c-.1-.1-.2-.2-.2-.3 0-.1-1.6-1.6-2.2-2.3-.4-.4-.9-1-1.4-1.6-.4-.6-.8-1.1-.9-1.6-.2-.4-.2-.6-.2-1.2 0-.7 0-.7.2-1.1.2-.6.8-1.2 1.3-1.5l.4-.2s.1-.1.2-.1c.2-.2 1.1-.4 1.7-.4.4 0 .6 0 1.1.1.9.2 1.4.6 2 1.2.3.4.4.6.6 1.1 0 .2.1.5.2.6.1.3 0 .5-.2.6-.3.1-1.1.1-1.3.1-.2-.1-.4-.3-.4-.6-.1-.4-.9-1-1.4-1-.4 0-.9.2-1.1.5-.2.2-.2.3-.2.5.1.7.5 1.2 2 2.6.5.5 1.6 1.5 2 1.9.3.3.7.9 1 1.5.2.4.5 1.4.5 1.7 0 .3-.4 1.7-.5 2-.3.6-1.1 1.2-1.9 1.6-.9.4-2.1.5-3.1.3zm18.7-2.3c-.3 0-.7-.1-.8-.2-.6-.3-1.8-1.3-1.9-1.8-.1-.2-.1-.3 0-.4.1-.2.2-.3.5-.3.5-.1.7-.1 1 .2.2.2.7.5 1 .6.1 0 .4.1.5 0 .3 0 .3-.1.5-.3.4-.4.5-.3-1.1-1.9-.8-.8-1.5-1.6-1.6-1.8-.3-.5-.4-1.2-.3-1.7s.2-.7.5-1c.1-.1.2-.3.2-.3s.2-.1.4-.3c.9-.5 2.6-.5 3.5 0s1.7 1.9 1.3 2.3c-.1.1-.2.1-.6.2-.6 0-.7 0-1-.5-.2-.3-.3-.4-.8-.5-.4-.1-.8.1-.8.3 0 .2.6.8 1.3 1.6.3.4.8.8 1 1s.3.4.4.4c.2.2.3.5.5.9.1.5.1.9 0 1.5-.1.3-.4.9-.5 1 0 0-.1.1-.1.2-.1.2-.9.5-1.4.6-1 .3-1 .3-1.7.2zm23.6-.3c-.2-.1-.4-.1-.4-.1-.1 0-.1-.9-.1-3.9v-3.9l.1-.1c.3-.2 1.3-.2 2.2-.1.4.1.5.1.6.3.1.1.3.5.5.7.3.6.6 1 .9 1.4.1.1.3.4.3.6.2.3.3.5.4.4l.2-.4c.3-.5 1-1.7 1.1-1.9.1-.1.1-.1.1-.2s.6-.8.7-.9c.1 0 .5-.1 1.1-.1.8 0 1 0 1.1.1s.1.2.2 1.2c.1 1.3.1 4.1 0 5.6 0 .9-.1 1.1-.1 1.2-.1.1-.2.1-1.1.1-1.1 0-1.2 0-1.3-.3-.1-.3-.2-1.8-.2-2.9 0-1 0-1.1-.1-1.1s-.4.6-.6 1.1c0 .1-.1.2-.2.4-.1.1-.2.3-.3.5-.1.1-.2.3-.3.5-.3.5-.7.8-.9.8-.1 0-.5-.5-.5-.6 0 0-.3-.5-.7-.9-.4-.5-.7-1-.7-1.1-.1-.3-.4-.7-.5-.7 0 0-.1.6-.1 1.7 0 1.7-.1 2.6-.2 2.7s-1-.1-1.2-.1zm-8.9-.1c-.6 0-.6 0-.6-1.5.1-5.4.1-6.4.2-6.5l.1-.1h3c2.9 0 3 0 3.1.1s.1.2.1.6c0 .5 0 .5-.1.7l-.1.1h-3.6l-.1.2c0 .1-.1.3-.1.4-.1.5 0 .5 1.3.5 1.2 0 1.5.1 1.6.3 0 .1.1.3.1.6 0 .5 0 .5-.2.7l-.2.2H87c-1.2 0-1.3 0-1.3.1-.1.1-.1.2-.1.3 0 .1.1.5.1.8s.1.6.1.7.5.1 2 .1H90c.4.1.5.2.5.9 0 .9.4.8-3.3.8-1.7.1-3.2.1-3.5 0zm-7.3-.1c-.1-.2-.2-1.4-.2-3.7 0-2.2 0-2.3-.1-2.4s-.2-.2-1.1-.2c-.5 0-1-.1-1-.1s-.1-.3-.1-.6c-.1-1 .1-1.1 1.2-1 .3 0 1.5.1 2.5.1 2.4 0 3.6.1 3.7.2s.1.3.1.6c0 .8 0 .8-.2.9s-1.1.2-1.7.2c-.5 0-.5 0-.5 1.9 0 2.3-.1 4.1-.2 4.3-.1.1-.1.1-1.2.1-1.1-.2-1.1-.2-1.2-.3zm-16.8 0c-.4-.1-.4-.1-.4-1.7 0-1.4 0-1.4-.2-1.8-.1-.2-.2-.5-.3-.5-.2-.2-.7-.9-1.2-1.5-.2-.3-.4-.6-.5-.7s-.3-.4-.4-.6c-.1-.2-.3-.5-.4-.6-.3-.3-.3-.4-.1-.6l.1-.1H59l.2.2c.1.1.2.3.4.5.4.5 1.2 1.6 1.3 1.8.1.2.3.2.4.1 0-.1.2-.3.4-.5s.4-.5.5-.6c.4-.5 1-1.2 1.2-1.3.3-.1 1.4-.1 1.5 0 .2.2.1.6-.6 1.3-.1.1-.5.6-.9 1.1s-.8 1-.9 1.1c-.1.1-.3.4-.4.6-.1.3-.1.4-.1 1 0 1.6 0 2.5-.2 2.8l-.1.2h-.9c-.6-.1-1.1-.2-1.2-.2zm-8.8-13c-.1 0-.8-.1-1.4-.1-1.6 0-1.6 0-1.5-.9.1-.7.1-.7.3-.8.1-.1 3.2-.1 14 0h37.1l.1.2c.1.2.1.3.1.6 0 .4-.1.7-.2.8H83.2c-8.8 0-18 0-20.5.1-5.9.2-11.6.2-11.9.1zm-5.6-8c.4-.1.8-.4 1.2-.8.2-.3.5-.7.5-.8 0 0 0-.1.1-.2.1-.2.4-1.3.4-1.6 0-.1 0-.3-.1-.5 0-.2-.1-.4-.1-.5 0-.3-.3-.7-.6-1.1-.2-.3-.2-.3-.4-.5-1-.9-1.4-1-5.2-1-2.7 0-3.2 0-3.2.1-.2.2-.2 1-.2 7.6 0 5.8 0 6.8.1 6.9 0 .1.1.2.2.2.4 0 1.2.1 1.2.1.1.1 1.4 0 1.5 0 .3-.1.3-.1.3-3.5v-3.2c0-.1.1-.2.1-.3.1-.1.2-.1.7-.1.3 0 .7.1.8.1.2.1.8.7.9.9.2.9.2 1.6.2 3.5v2.2l.1.1.2.2h1.4c1.2 0 1.4 0 1.5-.1s.1-.2.1-1.7c0-3.3 0-3.3-.2-4s-.4-.9-.9-1.3c-.3-.2-.5-.3-.7-.3s-.4-.1-.4-.1c-.1-.1.2-.2.5-.3zm-2.3-1.4c-.3.1-.4.1-1.1.2-.9 0-1.1 0-1.2-.3-.1-.3 0-.8.1-1.6.1-.5.1-.9.1-1.3v-.6l.2-.1c.1-.1.3-.1 1-.1.8 0 .9.1 1.2.2.7.3 1 .8 1.1 1.5-.1.9-.5 1.6-1.4 2.1zm22.2 6.1s-.5-.1-1.2-.1c-1-.1-1.1-.1-1.2-.2-.1-.1-.1-.4-.1-3.9 0-3.7 0-3.8.1-4l.1-.2h.9c.7 0 .9 0 1 .1s.2 1.6.2 4v2.2c0 .1.1.2.2.2s.9.1 1.8.1c2 0 1.8 0 1.8.8s.1.7-1.6.8c-.8 0-1.6.1-1.8.1-.1.1-.2.1-.2.1zm24.7-.9c-.1-.1-.2-.4-.2-.5-.1-.2-.2-.6-.4-1.1-.1-.2-.2-.6-.3-.9-.3-.7-.4-1.1-.5-1.3 0-.1-.2-.4-.3-.7-.1-.3-.3-.6-.3-.8-.1-.2-.2-.4-.2-.5-.1-.1-.2-.4-.3-.6-.1-.2-.2-.5-.2-.5 0-.2-.3-.7-.5-.8-.2-.1-.3-.1-1.2-.2-.8 0-.9 0-1.1.3-.1.1-.2.4-.3.5-.1.1-.2.3-.2.4-.1.1-.1.3-.2.4 0 .1-.1.3-.2.5-.1.1-.1.3-.2.4 0 .1-.1.4-.2.6-.8 2-1.1 2.8-1.6 3.8-.3.6-.5 1-.6 1.5-.1.3 0 .3.8.3.7 0 .7 0 .8-.2.1-.1.2-.3.2-.5.1-.2.2-.5.2-.6.1-.1.1-.4.2-.5s.1-.2.2-.3c.2-.1 2.5-.1 2.8 0 .1 0 .2.1.3.2.2.3.5 1 .6 1.3s.3.5.7.6c.5.1 2.1 0 2.2-.1.2 0 .2-.4 0-.7zm-4.3-2.6c-.4.1-.6.1-.8 0-.2-.1-1.1 0-1.1-.2 0-.1 0-.3.1-.3.2-.4.6-1.3.8-1.9.2-.5.3-.6.5-.6s.2.2.3.7c0 .1.1.4.1.5.1.1.1.3.1.3 0 .1.1.3.2.6.4.7.3.8-.2.9zm7.5 3.5c-.1 0-.2-.1-.2-.1s-.1-.6-.1-1.3c0-1.7-.1-2.2-.5-2.7-.6-.7-1.2-1.6-1.5-2 0-.1-.2-.2-.3-.4-.1-.2-.2-.3-.2-.4 0 0-.1-.1-.2-.3-.1-.1-.3-.4-.3-.5-.1-.3-.1-.3-.1-.4.2-.2 1-.3 2-.2.5 0 1 0 1.1.1.1 0 .2.2.4.4.1.2.3.4.4.5s.3.3.5.6.9 1 .9 1.1.1.3.2.3c0 0 .1-.1.1-.2.1-.1.5-.6 1.1-1.2.5-.6 1.1-1.1 1.2-1.2l.2-.2h.9c1 0 1.2 0 1.2.3 0 .1-.2.4-1.1 1.2-.6.6-1.2 1.2-1.3 1.4-.2.2-.5.6-.8.9l-.5.5v1.4c0 1.6-.1 2.3-.2 2.5-.1.1-.2.1-1.2.1-1-.2-1.6-.2-1.7-.2zm-15.9-.1h-.6l-.1-.2c-.1-.2-.5-1.1-.8-2.1-.3-.9-.4-1.2-.4-1.5 0-.2-.1-.4-.1-.4 0-.1-.1-.3-.1-.5-.1-.4-.1-.6-.3-.4-.1.1-.2.5-.3.9 0 .1-.1.3-.1.5-.1.2-.3.6-.4 1.2 0 .2-.1.5-.2.8s-.2.6-.2.7c-.1.3-.3.9-.5 1-.1 0-.3.1-.7.1-.6 0-.6 0-.8-.2-.2-.2-.3-.6-.4-1.1 0-.2-.1-.4-.1-.5-.1-.1-.2-.3-.4-1 0-.1-.1-.4-.2-.6s-.1-.4-.1-.5-.1-.3-.1-.4-.1-.3-.2-.5c0-.2-.1-.5-.2-.6-.2-.5-.3-1.1-.4-1.3 0-.1-.1-.4-.2-.6-.1-.4-.2-.8 0-1 .1-.1.2-.1 1-.1.9 0 .9 0 1.1.2.1.1.2.2.2.4 0 .1.2.6.3 1 .1.4.3.8.3.9s0 .2.1.3c0 .1.1.4.1.6.1.2.1.5.1.6.1.3.4.2.5-.2.1-.4.3-1 .5-1.6.1-.3.3-.8.4-1.2.1-.4.3-.8.4-.9.1-.2.1-.2.6-.3.5 0 .8 0 .9.1s.6 1.1.7 1.7c.1.3.2.7.4 1.1.1.1.1.4.2.6 0 .2.1.5.2.6 0 .1.1.3.1.4 0 .2.1.5.2.5s.3-.3.3-.4c0 0 .1-.3.2-.5.3-.7.7-1.7.7-1.9.1-.2.6-1.6.7-1.8.1-.1.1-.1.7-.1s.6 0 .7.1.1.2 0 .5c-.1.4-.4 1.4-.5 1.7-.2.5-.4 1-.6 1.6-.1.4-.2.7-.3.8 0 .1-.1.3-.2.5s-.2.6-.3.8c-.1.3-.2.6-.3.8 0 .1-.1.3-.2.4s-.1.3-.2.6c-.1.4-.3.6-.5.6 0-.2-.3-.2-.6-.2zM55.3 92c-.1-.1-.1-.3-.1-.3s-.1-.3-.1-.5c-.2-.7-.3-.8-.4-1.2-.2-.7-.3-1-.4-1.3-.1-.1-.1-.3-.1-.4s-.1-.3-.1-.4c-.1-.1-.1-.3-.1-.4s-.1-.3-.1-.4c-.1-.1-.1-.3-.1-.4s-.1-.3-.1-.4c-.1-.1-.1-.2-.1-.3 0-.2-.2-.7-.4-.7-.1-.1-.9-.2-1.3-.2-.6 0-.8.2-1 .6-.1.2-.2.6-.4.9-.1.3-.3.8-.4 1.1-.1.3-.2.5-.2.5s-.1.3-.3.6c-.1.3-.3.6-.3.7s-.1.2-.1.4c0 .1-.4.9-.5 1.1s-.2.5-.3.6c-.1.3-.3.7-.4 1.1-.1.2-.1.3 0 .5s.1.2.3.2h.5c.4 0 .5-.1.6-.5.1-.2.2-.5.2-.5.1-.1.1-.2.1-.3 0-.1.1-.3.2-.5.2-.3.2-.4.4-.4.3-.1.5-.1 1.4-.1.8 0 .9.1 1 .4 0 .1.1.3.1.3 0 .1.1.2.1.4.1.4.3.9.5 1.1.1.1.2.1 1.1.1 1 0 1 0 1.1-.1s.1-.2.1-.3c-.1-.3-.3-.8-.4-1zm-3.7-2.3H51c-.6.1-.8 0-.5-.4.1-.2.4-.9.6-1.7.1-.3.1-.4.2-.4s.1 0 .2.3c.1.2.1.4.2.6 0 .1.1.5.2.7.1.3.2.6.2.7 0 .4-.1.4-.5.2zm6 3.6c-.2-.2-.3-1.3-.2-1.7.1-.2.1-.5 0-1.1v-1.1c0-.1 0-1.1.1-2.2 0-1.3 0-2 .1-2 0-.1.3-.1.9-.1 1.1 0 1.1 0 1.2.6.1 1.4.2 3.3.1 4.5 0 .7 0 1.7-.1 2.1 0 .5 0 .8-.1.8 0 0-.4.1-1 .1-.8.2-1 .2-1 .1zM72 82.1c-.1-.1-.6-.1-4.4-.1-3.5 0-4.3 0-4.4-.1l-.2-.1v-1.2l.2-.2.2-.1h7.3c10.2 0 30.1.1 33 .2 1.7 0 2.4.1 2.5.1.2.1.3.4.2.9 0 .3 0 .4-.2.5s-1.5.2-5.1.2H73.9c-1.5 0-1.7-.1-1.9-.1zm-18.7-.2c-.1 0-.2-.1-.2-.2-.1-.1-.1-.4-.1-4.7 0-8.9-.1-10.4-.1-10.5-.1-.1-2.9-.1-3.1 0-.3.1-.7.4-.8.6-.1.1-.2.3-.3.4s-.1.1-.3.1c-.1 0-.2-.3-.4-.6-.1-.3-.3-.6-.3-.7-.1-.2-.3-.8-.5-1.3s-.1-.6.6-.6h12.5c1.1 0 2 0 2.1.1.1 0 .1.1.1.3 0 .3-.6 1.3-.9 1.7-.1.1-.2.2-.2.3 0 .1-.3.4-.5.5s-.3.1-.4-.2c-.1-.1-.1-.2-.2-.2s-.6-.4-1.2-.4c-.4 0-2.4-.1-2.5 0s-.1.2-.1 3.2c0 3.7 0 8.1-.1 10.3-.1 1.7-.1 1.9-.3 1.9h-2.8zm23.5-3.4c-.4-.1-1.1-.3-1.5-.6-.4-.2-.8-.8-1-1.3s-.5-1.4-.5-1.8c0-.2 0-.5-.1-.7-.1-.5-.1-6.7 0-6.9 0-.1.1-.2.2-.2h2.8l.1.2c.1.1.1.2.2 1.3v7l.2.2.2.2s1.1.6 1.5.5c.1-.1.3-.2.3-.2l.1-.1c.1 0 .4-.4.5-.5.1-.2.1-1 .1-3.4.1-2.2.1-3.7.1-4.3 0-.3.1-.5.2-.6.2-.1 1.4-.1 1.5.1 0 0 .1.2.1.3v4c0 3.1-.1 3.8-.1 4 0 .1-.1.3-.1.5s-.1.5-.2.7c-.1.3-.2.5-.5.8-.5.5-.6.6-1.1.7-.8.2-2.1.3-3 .1zm26.2-.1h-.4c-.4 0-.6-.2-1.6-1.5-.8-1.1-1-1.3-1.3-1.8-.5-.9-.8-1.1-1-1 0 0-.1.2-.1.3s0 .4-.1.5v.5c0 .1.1.7.1 1.4 0 1 0 1.1-.1 1.3l-.2.2H97c-1 0-1.2 0-1.3-.1-.1-.1-.2-.1-.2-.1v-4.3c0-2.9 0-4.3.1-5.1.1-1.4.1-1.4.9-1.4h.7c.1 0 .4.1.7.1.7 0 .7 0 .7 1.4 0 .6 0 1.4-.1 1.8-.1 1 .1 1.2.5.6.5-.6.5-.7 1.1-1.2.3-.3.7-.8 1-1.1.2-.3.5-.6.6-.7l.4-.4c.1-.2.3-.3.4-.4.2-.1 1.6 0 1.8 0 .2.1.1.4-.1.6-.1.1-.2.3-.3.4-.1.2-1.4 1.7-1.9 2.2-.5.6-1 1.3-1 1.4s.1.2.2.3c.1.1.2.3.3.4.1.1.2.3.3.4.1.1.3.4.4.6s.4.6.7.9c.5.7 1 1.4 1.3 1.8.3.5.7 1.1.8 1.2.2.2.3.4.3.6 0 .4-2.2.2-2.3.2zm-32.7-6.2c.2-.1.9-.7 1.1-.9.2-.2.3-.5.4-1.2.1-.8.1-1.2-.3-1.8-.3-.5-.6-.8-1.4-1.2l-.2-.1h-3c-3 0-3.8 0-4 .2-.1.1-.1.9-.1 5.1v5.4c.1.5.2.6.7.6h1.6c.1 0 .3-.1.4-.1.2-.1.2-.4.2-2.3 0-2.2 0-2.3.1-2.3 0-.1.3-.1.8-.1.7 0 .8 0 1.1.2.3.2.4.2.5.4.2.5.3 1.2.3 2.6 0 .8 0 1.4.1 1.4.1.2.4.2 1.1.2h1.1c.9.1.9.1.9-1.7 0-1.4-.1-2-.2-2.7-.1-.4-.2-.5-.4-.8-.2-.2-.5-.4-.6-.5-.2-.1-.3-.2-.2-.4-.1.1 0 0 0 0zm-1.6-1.8c-.1.4-.2.5-.4.7-.3.3-.4.3-.8.4s-1.4.1-1.6.1c-.2-.1-.3-.3-.2-1.1.1-.6.1-.8 0-1.3-.1-.6-.1-.6 0-.7s.2-.1 1.1-.1 1.4.2 1.6.6c.1.1.2.3.2.3s.1.2.1.3l.1.3-.1.5zm22.5 7.8c-.4-.2-.6-.4-1-.9-.2-.3-.6-.9-.9-1.2-.3-.4-.7-1-1-1.3-1.7-2.6-1.7-2.6-1.8-2.5-.1.1-.1.7-.1 2.4 0 1.3 0 2.6-.1 2.9-.1.7-.1.7-1 .7-.7 0-.7 0-.8-.2l-.2-.2v-5.1c0-4.7 0-5.2.1-5.3l.2-.2c.1 0 .5-.1 1-.1 1 0 1.1 0 1.5.5l.4.4c.2.3.5.6.5.7s.4.6.5.7l.4.6c.2.3.4.7.6.8.1.2.3.5.5.7 1 1.5 1 1.6 1.1 1.5s.1-.6 0-.9v-.8c0-.3.1-1.3.1-2.2 0-1.1.1-1.7.1-1.8.1-.2.5-.2 1.1-.1.9.1.8 0 .9 1.9.1 2.1.1 4.3 0 4.5v.8c0 .1-.1.8-.1 1.8s0 1.7-.1 1.7c-.1.2-.3.2-1.1.3-.4 0-.7-.1-.8-.1zm-44-16.5c-.6-.1-.8-.2-1.2-.4-.2-.1-.5-.3-.6-.3-.1-.1-.3-.2-.4-.3-.3-.2-1.1-1-1.3-1.4-.5-.7-1-1.9-1.2-2.6-.2-.7-.4-1.6-.4-2 0-.2-.1-.6-.1-.8-.1-.5-.1-2.4 0-3.1.1-.8.2-1.5.4-2.1.1-.6.2-.7.5-1.3.1-.2.1-.4.2-.4.1-.2.6-1.2.8-1.4l.4-.4c.2-.3.6-.6.9-.8.3-.3.8-.6.8-.6l.4-.2c1.2-.5 3-.9 3.7-.6.1 0 .4.1.6.1.3 0 .6.2 1.4.6.5.3.7.5 1.2 1s.8 1.1.9 1.4c0 .1.1.4.1.7.1.3.1.7.1 1 0 .5 0 .6-.1.7l-.1.2h-1.1c-.8 0-1.1 0-1.2-.1-.1-.1-.2-.6-.2-.9 0-.3-.1-1.1-.4-1.5-.5-1.1-2-1.5-3.3-.8-.5.3-.9 1.1-1 2.1-.1 1.4-.2 3.6-.1 5.5v2.4c0 .1.1.4.1.7 0 .7.3 1.4.7 1.8.3.4.5.4 1.1.5.4.1.6.1.8 0 .1 0 .3-.1.4-.1.2 0 .8-.3 1-.5.3-.3.4-.4.4-1.5 0-.8.1-3.8.1-4.4 0-.1.1-.2.2-.3l.2-.2h1.7c.9 0 1.7 0 1.8.1.3.1.3 0 .3 4.3v4.7c0 .6 0 .7-.1.8s-.1.1-.3.1c-.3-.1-.9-.7-1.7-1.6-.5-.6-.6-.6-.9-.2-.1.1-.2.3-.3.3l-.1.1c0 .1-.5.6-.8.8s-1.3.7-1.7.7c-.2 0-.5.1-.6.1-.7.2-1.7.2-2 .1zm38.6-.5c-.1 0-6.4-.1-14.2-.1-12.3 0-14.1 0-14.2-.1-.2-.1-.2-.1-.2-.5-.1-.9 0-1 1.3-1.1 1.2-.1 9.4-.1 18.4 0 4 0 10.1.1 13.7.1s6.6 0 6.7.1c.3 0 .4.3.4.9 0 .4 0 .5-.1.6l-.1.1H85.8zM98 49.9c-.1-.3-.3-.8-.4-1s-.2-.5-.3-.6c-.1-.3-.5-.8-.9-1.2-.6-.5-.8-.7-1.3-.9l-.5-.2H92c-2.5 0-3.2 0-3.3.1 0 0-.1.2-.1.4-.1.3-.1 1.3-.1 4.1 0 2-.1 4.1-.1 4.5 0 .8.1 1.8.2 2s.6.3 1.3.3h2c2.5.1 3.1 0 4.2-.8 1-.6 1.4-1.3 1.7-2.8.2-1.1.3-1.2.3-2.4.1-.9 0-1-.1-1.5zM94.7 52v1.8l-.2.5c-.1.3-.2.6-.4.8-.3.3-.9.7-1.2.7-.1 0-.2 0-.3.1-.1.1-.8.1-1.1.1-.1 0-.2-.1-.3-.2-.1-.2-.1-1.4 0-1.7s.1-1.8 0-3.1c-.1-.7 0-.9 0-1.1.1-.3.1-.4 0-.6-.1-.7-.1-1.1.3-1.2.2-.1 1-.1 1.3 0 .1 0 .4.1.5.1.2 0 .3.1.4.1.4.5.4.5.6 1.2l.2.7.2 1.8zm-28.3-2.4c0-.1 0-.2.1-.4.2-.6 0-1.3-.7-2.2-.3-.4-.6-.7-1.1-.9l-.3-.2h-6.9l-.1.1c-.1.2-.2 1.6-.2 6.8 0 3.2 0 4.2.1 4.2 0 .1.2.1.4.2s.5.1 1 .1h1c.2 0 .4 0 .5-.1l.1-.1v-4.4c.1-.2.5-.3 1.1-.2 1.3.1 1.7.5 1.8 1.9.1 2.5.1 2.7.2 2.8.1.1 1.2.3 1.6.2.2 0 .6-.1.9-.1s.6-.1.7-.1c.1-.1.1-.2.1-1.5 0-.8 0-1.8-.1-2.2 0-.6 0-.7-.1-.9-.1-.1-.1-.3-.1-.3 0-.1-.2-.4-.6-.6-.2-.1-.3-.3-.3-.3 0-.1.2-.3.4-.5.2-.4.5-1 .5-1.3zm-3.2.2c-.1.6-.4.8-1.2 1-.3.1-1.4.1-1.7 0s-.3-.1-.3-1.7c0-1.2 0-1.5.1-1.6h.9c.8 0 .9 0 1.1.1.2.1.4.1.4.1.1 0 .2.1.3.2.2.2.2.3.3.8.2.6.2.7.1 1.1zm20.6 7.6c-.4-.1-.7-.2-.8-.4-.1-.1-.2-.3-.3-.5-.1-.2-.3-.5-.4-.6-.1-.2-.2-.4-.3-.5 0-.1-.2-.3-.3-.4-.1-.1-.2-.3-.3-.5 0-.1-.3-.5-.5-.9s-.4-.7-.4-.7-.1-.2-.5-.6c-.1-.1-.2-.1-.3 0v.9c.1 1.3 0 3.8-.1 3.9-.1.2-.4.2-1.1.2-.4 0-.5-.1-.5-.1-.1-.1-.1-.9-.1-4.5v-5.4c0-1.2 0-1.2 1.1-1.2.7 0 .8 0 1 .1s.3.2.6.7c.2.3.3.6.4.7.1.1.1.2.2.2 0 .1 1 1.4 1.3 2 .4.7.9 1.6 1.1 2.1.1.1.2.3.2.4.1.3.3.5.4.4s.2-.7.2-1.8c0-1.3.1-4.3.2-4.5s.2-.3.6-.2c.2 0 .5 0 .7.1.2 0 .4 0 .4.1.1.1.1.4.1 1.2v1.3c0 .5-.1 5.9-.1 6.6 0 1.1-.1 1.7-.3 1.8-.1.1-.3.1-.8.1-.4 0-.8.1-1 .1 0 0-.3 0-.4-.1zm-7.2-1.7c-.2-.3-.3-.7-.4-1.1 0-.2-.1-.4-.1-.5s-.1-.4-.2-.7-.1-.6-.2-.8c-.2-.7-.5-1.6-.6-2 0-.1-.1-.3-.1-.3-.1-.1-.2-.5-.4-1.5-.1-.3-.2-.6-.2-.7-.1-.1-.4-1.1-.4-1.2s-.4-.7-.6-.8c-.4-.1-2.3-.1-2.4 0-.2.2-.8 1.6-.9 2.3 0 .2-.3.8-.3.9 0 .1-.1.3-.1.5-.1.1-.2.6-.3.9-.1.4-.3.8-.3.9 0 .1-.1.4-.2.6-.1.2-.2.5-.2.7-.1.2-.1.4-.2.6-.1.2-.1.5-.2.6-.1.3-.2.5-.4 1.2-.1.2-.2.6-.3.9-.3.9-.3.9-.1 1 .2.1 1.5.1 1.7 0 .1-.1.2-.3.4-.8.1-.2.2-.4.2-.5s.1-.3.1-.5c0-.4.3-.8.5-.9h2.5c.2 0 .4.1.4.4 0 .1 0 .3.1.4.1.1.1.4.2.6.2.7.4 1.1.5 1.2.1.1.5.1 1.4.1 1.2 0 1.2 0 1.4-.1l.2-.2c-.2-.1-.4-1-.5-1.2zm-3.7-2.6c-.1.2-2 .1-2.2 0-.1-.1 0-.6.1-.9.1-.1.1-.3.1-.3s.1-.3.2-.5.2-.5.2-.6c0-.2.4-.9.5-.9s.3.1.3.3c0 .1 0 .2.1.3 0 .1.2.6.4 1.1.2.5.3.9.3 1v.5z"/>
</svg>