<svg xmlns="http://www.w3.org/2000/svg" viewBox="0 0 144 144"><circle cx="72" cy="72" r="70.2" fill="#f58121"/><path d="M70.1 134c-5.737-1.14 1.083-9.415.7-13.4 1.406-5.816-6.354 2.823-8.8 3.3-4.174 3.272-1.394-3.787-5.8-.9-4.769 1.492-12.239 4.008-9.3-2.5-5.069-.536-10.106 1.829-15.2 2-4.36-2.239 7.069-5.866-.989-4.703-2.733-2.137-.793-7.96-1.311-11.77.452-3.007-.034-5.568-3.6-6.027-2.433-.618-4.344-1.618-2.7-3.6-4.898-2.021-10.422-2.83-14.725-6.1 3.872-3.674 10.456-2.452 14.662-5.763 1.576-5.428-7.053-6.425-9.237-10.538-4.278-5.631 7.629-.448 3.762-5.562-2.711-2.389-5.075-6.846-1.062-7.837-1.346-2.589-9.162-7.743-4.3-9.3 4.058.559 10.831 6.702 11.1.2 2.891.661 7.245 5.472 5.897-.728 1.261-4.09-2.463-12.565 1.867-14.147 4.663-.758 11.799 1.395 15.049-1.024-.6-2.832-4.736-13.781 1.253-8.096C50.73 30.706 58.06 41.827 60.8 32.999c1.018-4.079-1.854-13.675 4.239-7.155 4.467-1.926 2.438-9.359 5.161-13.045 4.011-8.111 6.448 3.403 7.2 7.1-.429 5.986 5.634 8.841 9 3.9.925 3.553-4.102 15.424 4.3 12.1 4.547-2.849 7.968-7.387 12.3-10.3 2.57 2.072-3.944 9.52.237 10.838 4.005 1.416 13.249-2.675 14.062 2.249v14.014c2.764-.845 10.501-4.543 6.888 1.075 3.704-1.494 14.812-6.592 9.106 1.895-1.903 1.711-5.614 4.595-.994 4.93-.324 3.311-8.591 10.121-.387 8.162 7.162-.794.392 5.415-3.012 6.537-3.268 1.575-8.94 6.105-3.2 8.7 2.123 2.74 12.763 1.074 9.7 4.8-3.491 2.368-10.107 2.818-12.1 5.5 5.655 3.509-7.039 3.98-5.7 8.386-.134 4.91.267 10.042-.2 14.814-3.288.095-3.172-.321-2.155 2.198-4.171 2.619-9.31-.242-13.845-.498.215 3.892-2.12 6.133-6.2 4-3.495-2.145-5.943-1.816-6.85 1.725-4.077-2.031-7.516-6.089-11.87-7.183-1.42 4.927.207 14.69-6.38 16.258zm.6-1.4c1.736-3.347 3.284-12.752 2.125-13.525 1.078 3.979-4.661 12.079-2.125 13.525zM98 122.3c-2.299-7.321 9.645-2.134 13.046-4.132-10.268-.514-20.648-.244-30.946-.168 3.217 2.799 5.597 4.864 9 1.9 2.95.148 6.356 2.518 8.9 2.4zm-48.9.2c3.484-.129 9.58-4.769 11.338-.1 2.766-1.76 9.565-5.46 2.061-4.295-8.775.186-17.621-.422-26.348.357-5.932 3.686 5.521.174 7.477.541 3.842-1.425 5.719 2.049 5.473 3.496zM29.3 99.1c-.181-4.318 2.216-12.327-4.98-8.803-2.367.539-9.477-.585-3.32-.997 4.757.246 10.394-.338 8.301-6.569.147-4.352 1.158-10.793-5.396-7.801-7.508-1.094 4.162-.662 5.295-2.187.336-3.598.228-7.515-4.825-6.105-3.241.267-7.682-2.294-1.775-1.537 2.659.379 7.778 1.626 2.9-1.4-3.244-3.336-7.824-5.575-10.5-9.3 3.476 2.04 6.722 5.017 10.2 7.3 3.235 3.889 5.744 3.435 3.1-1.3-1.705-2.449-2.232-7.314.1-2.3 1.579 6.26 2.555-3.855-1.887-3.025-2.099-1.598-.953 3.957-4.812 1.625-2.596-.19-12.878-6.162-6.947-.547 2.899 1.904 4.624 5.448 1.947 7.747 3.762 2.403 5.801 10.127-.65 8.912 2.757 2.846 8.639 4.895 9.337 9.787-.307 6.069-8.643 5.226-13.138 6.862 3.206 2.314 8.947 2.857 12.528 5.638.488 3.101.367 3.133 4.522 4zm88.4-1.1c2.296-1.005 5.145-1.954 2.675-4.475 2.266-3.793 11.295-3.323 11.992-5.948-4.397-.988-11.781-2.067-11.742-7.864 1.783-4.465 7.279-5.57 10.262-8.975-7.547 1.706-3.56-6.685-1.687-9.038-5.71-1.778 7.194-10.842.8-8.3-3.096 1.826-8.652 4.34-9.1 0-4.054.291-5.5 5.316-1.5 2.6-2.229 1.93-2.621 4.475-2.3 7.23 2.58-1.74 6.345-5.001 9.5-7.13 3.71-.669-2.901 2.923-3.963 3.987-2.789 1.089-9.818 7.803-2.638 4.513 2.409-1.662 6.713-1.719 2.1.4-3.089.867-7.21 2.777-4.843 6.2 2.346-.509 12.518.095 5.243 1.1-8.635-2.505-5.021 7.211-5.687 12.175-1.21 4.966 9.849.592 8.987 4.025-6.214-1.283-11.07-.848-8.997 6.683.25.637-.678 3.719.897 2.817zM52.8 36.9c-1.891-2.137-9.357-11.935-6.2-4 .107 4.705 2.31 4.374 6.2 4zm15 0c-1.932-2.298-4.463-8.873-.8-3.5.946 3.847 6.41 5.267 5.1-.357.871-2.045-3.921-7.683-.9-5.843 1.659 4.695 1.038-3.758 1-5.2 2.517-4.457-.811 13.33 3.1 5.2 3.583-1.679-4.162 4.816-2.017 7.236-.346 6.584 6.204-.988 7.842-3.411 2.591.838-8.173 7.97-.213 6.15 6.165 2.156 1.304-7.432 2.487-9.275-5.35 2.626-8.408-4.484-9-8.7-.348-2.582-1.906-10.77-3.6-4.3-1.471 4.297-.731 11.74-5.5 13.5-5.966-3.023.331 6.811-4.4 8.7 2.297.245 4.613.048 6.9-.2zm31.2 0c-.209-2.625 2.876-9.655-1.897-4.433-2.163 2.286-9.173 5.577-1.915 4.558 1.271-.029 2.544-.018 3.813-.125z"/><path d="M30.8 39.2h84.3v77.2H30.8z" fill="none" stroke="#fff" stroke-miterlimit="10"/><path d="M59.582 112.74c-.1-.1-.3-.1-.3-.2 0 0-.1-.3-.1-.6 0-.5 0-.6.1-.6.1-.1 1.6-.1 17-.1l21.7.1h4.9l.1.2c0 .1.1.4.1.6 0 .4 0 .5-.1.6l-.2.1h-21.5c-19.2 0-21.5-.1-21.7-.1zm-7.9-.3c-1.932-.683-3.917-2.524-3.4-3.6 2.458-.884 1.988 1.168 4.4 1.4.516-.085.7-.2 1-.5 1.09-1.371-1.465-2.999-2.6-4.3-.4-.4-.9-1-1.4-1.6-.968-1.22-1.183-2.439-.9-3.9.876-1.54 1.978-1.961 3.6-2.2 1.237-.077 2.217.317 3.1 1.3.899 1.292 1.182 1.879.6 2.3-.3.1-1.1.1-1.3.1-.472-.745-.626-1.394-1.8-1.6-2.533.814-.026 2.919.7 3.6 2.991 2.564 4.801 6.466 1.1 8.7-.9.4-2.1.5-3.1.3zm17.9-2.5c-2.058-1.164-2.421-1.821-1.4-2.5.5-.1.7-.1 1 .2.856.834 1.612.992 2 .3.27-.567-.4-1.2-1.1-1.9-1.196-1.033-1.85-2.037-1.9-3.5.152-.79.62-1.14 1.1-1.6.9-.5 2.6-.5 3.5 0s1.7 1.9 1.3 2.3c-.1.1-.2.1-.6.2-.6 0-.338.176-1-.5-.67-.733-1.365-.858-1.6-.2-.117.92 2.454 2.433 3.2 3.9.1.5.1.9 0 1.5-.319 1.077-1.064 1.494-2 1.8-1.094.338-1.516.272-2.5 0zm24-.2c.008-2.742-.1-4.407-.1-7.8 1.074-.343 1.755-.118 2.757-.043.691 1.039 1.642 2.462 2.243 3.243.677-1.194 1.359-2.504 2.1-3.4.768-.149 1.446-.084 2.2 0 .335 2.167.371 5.658.1 8-.1.1-.2.1-1.1.1-1.1 0-1.2 0-1.3-.3s-.2-1.8-.2-2.9c0-1 0-1.1-.1-1.1-.717 1.191-1.124 2.474-2.3 3.3-.968-1-1.574-2.213-2.4-3.3-.155 1.431-.042 2.99-.3 4.4-.537.056-1.076-.096-1.6-.2zm-8.5 0c-.6 0-.6 0-.6-1.5.001-2.152-.022-4.266.135-6.531 2.011.033 4.32-.151 6.265.031.264.498.193 1.428-.1 1.4-3.863.043-3.596-.186-3.8.6-.1.5 0 .5 1.3.5 1.2 0 1.5.1 1.6.3.308.692.235 1.514-.3 1.5h-1.2c-1.2 0-1.3 0-1.3.1-.217.55.032 1.297.1 1.8 1.455.185 2.421.1 4.2.1.4.1.5.2.5.9 0 .9.4.8-3.3.8-1.7.1-3.2.1-3.5 0zm-7.3-.1c-.1-.2-.2-1.4-.2-3.7 0-2.2 0-2.3-.1-2.4s-.2-.2-1.1-.2c-.5 0-1-.1-1-.1s-.1-.3-.1-.6c-.1-1 .1-1.1 1.2-1 .3 0 1.5.1 2.5.1 2.4 0 3.6.1 3.7.2s.1.3.1.6c0 .8 0 .8-.2.9s-1.1.2-1.7.2c-.5 0-.5 0-.5 1.9 0 2.3-.1 4.1-.2 4.3-.1.1-.1.1-1.2.1-1.1-.2-1.1-.2-1.2-.3zm-16.8 0c-.4-.1-.4-.1-.4-1.7 0-1.4 0-1.4-.2-1.8-1.006-1.491-1.899-2.549-2.8-3.9-.3-.3-.3-.4-.1-.6l.1-.1h2.8c.717.761 1.298 1.634 1.9 2.5.1.2.3.2.4.1.61-.81 1.364-1.646 2.1-2.4.3-.1 1.4-.1 1.5 0-.23 1.525-1.911 2.78-2.8 4.1-.208 1.242-.064 2.724-.4 4-.712.058-1.404-.084-2.1-.2zm-10.2-13.1c-1.6 0-1.6 0-1.5-.9.1-.7.1-.7.3-.8h51.1c.298.559.156 1.054 0 1.6h-16.1c-11.959-.075-23.401.05-33.8.1zm-4.2-7.9c1.512-.652 2.208-1.503 2.2-3.4-.681-4.097-4.595-3.598-6.4-3.6-2.7 0-3.2 0-3.2.1-.2.2-.2 1-.2 7.6l.1 6.9c.04.421 1.895.301 2.9.3.3-.1.3-.1.3-3.5v-3.2c.041-.482.442-.349.8-.4.826-.034 1.211-.031 1.7 1 .2.9.193 1.6.2 3.5l.008 2.288c.559.361 1.053.212 1.691.212 1.2 0 1.4 0 1.5-.1s.1-.2.1-1.7c0-3.3 0-3.3-.2-4-.382-1.099-1.033-1.43-2-1.7-.1-.1.2-.2.5-.3zm-3.4-1.2c-.9 0-1.1 0-1.2-.3.022-1.338.167-2.284.2-3.5.722-.377 1.442-.259 2.4 0 2.263 1.127.268 3.706-1.4 3.8zm20.9 5.6c-.129-2.445-.358-4.15-.101-8.04.623-.045 1.546-.027 2.101.04.278 2.379.14 3.94.204 6.358.1 0 1.096.142 1.996.142 2 0 1.8 0 1.8.8s.1.7-1.6.8a30.33 30.33 0 0 1-4.4-.1zm27.1-.6c-.809-2.314-1.729-4.6-2.7-6.9 0-.2-.3-.7-.5-.8s-.3-.1-1.2-.2c-.8 0-.9 0-1.1.3-1.22 2.04-1.889 4.562-2.9 6.6-.3.6-.5 1-.6 1.5-.1.3 0 .3.8.3.7 0 .7 0 .8-.2.244-.633.528-1.338.8-1.9.2-.1 2.5-.1 2.8 0 .1 0 .2.1.3.2.2.3.5 1 .6 1.3s.3.5.7.6c.5.1 2.1 0 2.2-.1.2 0 .2-.4 0-.7zm-4.3-2.709c-1.047.02-1.46-.024-1.9-.091.208-.703.615-1.471.9-2.2.2-.5.3-.6.5-.6.312.542.462 1.315.7 2.1.217.797.3.691-.2.791zm7.5 3.609c-.417-.277-.275-1.025-.3-1.4 0-1.7-.1-2.2-.5-2.7a25.97 25.97 0 0 1-2.5-3.6c-.1-.3-.1-.3-.1-.4 1.124-.363 1.99-.226 3.1-.1.825.875 1.697 1.947 2.4 2.9.866-1.096 1.713-1.962 2.6-2.8h.9c1 0 1.2 0 1.2.3-1.092 1.231-2.435 2.72-3.7 4 .034 1.304.011 2.637-.172 3.908-.965.229-1.682-.012-2.928-.108zm-16.675-.052c-.987-1.557-.82-3.592-1.625-5.148-.676 1.666-.969 3.71-1.7 5.1-.1 0-.3.1-.7.1-.6 0-.6 0-.8-.2-.884-2.285-1.383-4.572-2.3-7.1-.1-.4-.2-.8 0-1 .1-.1.2-.1 1-.1.9 0 .9 0 1.1.2a15.53 15.53 0 0 1 1.1 3.8c.1.3.4.2.5-.2s.3-1 .5-1.6c.1-.3.3-.8.4-1.2s.3-.8.4-.9c.1-.2.1-.2.6-.3.5 0 .8 0 .9.1.808 1.625 1.213 3.316 1.8 4.9.904-1.367 1.385-3.25 1.9-4.6.518-.219 1.006-.084 1.653-.017-.812 2.525-1.834 6.253-3.353 8.317-.615-.102-.912-.152-1.375-.152zM54.582 85.04c-.1-.1-.9-.2-1.3-.2-.6 0-.8.2-1 .6-.874 2.357-2.078 4.845-2.9 7-.1.2-.151.315-.051.515.274.316.468.132.851.185.4 0 .5-.1.6-.5.204-.684.559-1.303.9-1.7.3-.1.5-.1 1.4-.1.8 0 .9.1 1 .4.166.651.397 1.207.7 1.8.1.1.2.1 1.1.1 1.216.049 1.246.053 1.2-.4l-2.5-7.7zm-1.89 4.526c-1.389.012-.775-.497-.81-.526.1-.2.4-.9.6-1.7.1-.3.1-.4.2-.4.36.517.569 1.491.8 2.3 0 .4.206.321-.79.326zm6.29 3.474c-.341-2.716-.258-5.436 0-8.1 0-.1.3-.1.9-.1 1.1 0 1.1 0 1.2.6.119 2.627.178 5.176-.1 7.4-.67.118-1.423.164-2 .2zm14.4-11.2c-.1-.1-.6-.1-4.4-.1-3.5 0-4.3 0-4.4-.1l-.2-.1v-1.2l.2-.2.2-.1h7.3l33 .2c1.7 0 2.4.1 2.5.1.2.1.3.4.2.9 0 .3 0 .4-.2.5s-1.5.2-5.1.2h-27.2c-1.5 0-1.7-.1-1.9-.1zm-18.7-.2c-.699.039-.269-.149-.3-4.9l-.1-10.5c-.1-.1-2.9-.1-3.1 0-.3.1-.7.4-.8.6-.061.347-.353.663-.6.5-.588-.818-.871-1.717-1.2-2.6-.2-.5-.1-.6.6-.6h12.5c1.1 0 2 0 2.1.1.1 0 .1.1.1.3-.298.968-.966 1.833-1.6 2.5-.2.1-.3.1-.4-.2-.336-.411-1.006-.468-1.4-.6-.4 0-2.4-.1-2.5 0s-.1.2-.1 3.2l-.1 10.3c-.1 1.7-.1 1.9-.3 1.9zm23.5-3.4c-.4-.1-1.1-.3-1.5-.6-.4-.2-.8-.8-1-1.3s-.5-1.4-.5-1.8c0-.2 0-.5-.1-.7-.1-.5-.1-6.7 0-6.9 0-.1.1-.2.2-.2h2.8l.1.2c.1.1.1.2.2 1.3v7l.4.4s1.1.6 1.5.5c.1-.1.3-.2.3-.2l.1-.1c.1 0 .4-.4.5-.5.1-.2.1-1 .1-3.4.1-2.2.1-3.7.1-4.3 0-.3.1-.5.2-.6.2-.1 1.4-.1 1.5.1 0 0 .1.2.1.3v4c0 3.1-.1 3.8-.1 4 0 .1-.1.3-.1.5s-.1.5-.2.7c-.1.3-.2.5-.5.8-.5.5-.6.6-1.1.7-.8.2-2.1.3-3 .1zm26.2-.1h-.4c-.4 0-.6-.2-1.6-1.5-.8-1.1-1-1.3-1.3-1.8-.5-.9-.8-1.1-1-1 0 0-.1.2-.1.3s0 .4-.1.5v.5c0 .1.1.7.1 1.4 0 1 0 1.1-.1 1.3l-.2.2h-1.3c-1 0-1.2 0-1.3-.1s-.2-.1-.2-.1v-4.3c0-2.9 0-4.3.1-5.1.1-1.4.1-1.4.9-1.4h.7c.1 0 .4.1.7.1.7 0 .7 0 .7 1.4 0 .6 0 1.4-.1 1.8-.1 1 .1 1.2.5.6.5-.6.5-.7 1.1-1.2.3-.3.7-.8 1-1.1.2-.3.5-.6.6-.7l.4-.4c.1-.2.3-.3.4-.4.2-.1 1.6 0 1.8 0 .2.1.1.4-.1.6-.1.1-.2.3-.3.4-.1.2-1.4 1.7-1.9 2.2-.5.6-1 1.3-1 1.4s.1.2.2.3.2.3.3.4.2.3.3.4.3.4.4.6.4.6.7.9l1.3 1.8c.3.5.7 1.1.8 1.2.2.2.3.4.3.6 0 .4-2.2.2-2.3.2zm-32.7-6.2c.2-.1.9-.7 1.1-.9s.3-.5.4-1.2c.1-.8.1-1.2-.3-1.8-.3-.5-.6-.8-1.4-1.2l-.2-.1h-3c-3 0-3.8 0-4 .2-.1.1-.1.9-.1 5.1v5.4c.1.5.2.6.7.6h1.6c.1 0 .3-.1.4-.1.2-.1.2-.4.2-2.3 0-2.2 0-2.3.1-2.3 0-.1.3-.1.8-.1.7 0 .8 0 1.1.2s.4.2.5.4c.2.5.3 1.2.3 2.6 0 .8 0 1.4.1 1.4.1.2.4.2 1.1.2h1.1c.9.1.9.1.9-1.7 0-1.4-.1-2-.2-2.7-.1-.4-.2-.5-.4-.8-.2-.2-.5-.4-.6-.5-.2-.1-.3-.2-.2-.4-.1.1 0 0 0 0zm-1.6-1.8c-.1.4-.2.5-.4.7-.3.3-.4.3-.8.4s-1.4.1-1.6.1c-.2-.1-.3-.3-.2-1.1.1-.6.1-.8 0-1.3-.1-.6-.1-.6 0-.7s.2-.1 1.1-.1 1.4.2 1.6.6a1.44 1.44 0 0 1 .2.3s.1.2.1.3l.1.3zm22.5 7.8c-.4-.2-.6-.4-1-.9-.2-.3-.6-.9-.9-1.2-.3-.4-.7-1-1-1.3-1.7-2.6-1.7-2.6-1.8-2.5s-.1.7-.1 2.4c0 1.3 0 2.6-.1 2.9-.1.7-.1.7-1 .7-.7 0-.7 0-.8-.2l-.2-.2v-5.1c0-4.7 0-5.2.1-5.3l.2-.2c.1 0 .5-.1 1-.1 1 0 1.1 0 1.5.5l.4.4c.2.3.5.6.5.7s.4.6.5.7l.4.6c.2.3.4.7.6.8a3.04 3.04 0 0 0 .5.7c1 1.5 1 1.6 1.1 1.5s.1-.6 0-.9v-.8c0-.3.1-1.3.1-2.2 0-1.1.1-1.7.1-1.8.1-.2.5-.2 1.1-.1.9.1.8 0 .9 1.9.1 2.1.1 4.3 0 4.5v.8c0 .1-.1.8-.1 1.8s0 1.7-.1 1.7c-.1.2-.3.2-1.1.3-.4 0-.7-.1-.8-.1zm-44-16.5c-3.403-.672-4.785-4.828-5.2-7.8-.585-5.457 2.294-11.258 8.1-10.9 1.256.158 2.389.951 3.2 1.7 1 1.267 1.059 2.665.9 4h-1.1c-.8 0-1.1 0-1.2-.1s-.2-.6-.2-.9-.1-1.1-.4-1.5c-.5-1.1-2-1.5-3.3-.8-.5.3-.9 1.1-1 2.1-.186 2.845-.1 5.112-.1 7.9.123 1.323.336 2.904 1.9 3 1.293.015 1.457-.179 2.2-.6.3-.3.4-.4.4-1.5 0-.8.1-3.8.1-4.4.023-.69 1.227-.5 2.1-.5.9 0 1.938 0 2.038.1.121 2.957.282 5.665-.038 9.8-.769.084-1.563-1.01-2-1.5-.5-.6-.6-.6-.9-.2-1.326 1.481-3.591 2.16-5.5 2.1zm38.6-.5c-.1 0-6.4-.1-14.2-.1-12.3 0-14.1 0-14.2-.1-.2-.1-.2-.1-.2-.5-.1-.9 0-1 1.3-1.1 1.2-.1 9.4-.1 18.4 0l13.7.1c3.6 0 6.6 0 6.7.1.3 0 .4.3.4.9 0 .4 0 .5-.1.6l-.1.1zm11.8-12.3c-1.036-2.197-3.559-2.905-5.6-2.9-2.5 0-3.2 0-3.3.1l-.17 11.147c1.564.262 5.905.452 7.57-.647 1-.6 1.4-1.3 1.7-2.8.31-1.949.175-3.1-.2-4.9zm-3.5 6.2c-.951.771-1.817.99-2.9.7-.144-2.291-.266-5.184.081-7.641 1.789-.314 2.516.098 3.019 1.341.355 2.006.528 4.94-.2 5.6zm-28.3-8.1c-.836-1.44-4.88-1.099-8.3-1.1l-.1.1c-.1.2-.2 1.6-.2 6.8 0 3.2 0 4.2.1 4.2.869.5 2.145.245 3 .1v-4.4c.1-.2.5-.3 1.1-.2 1.3.1 1.7.5 1.8 1.9.1 2.5.1 2.7.2 2.8 1.097.351 2.117.155 3.2 0-.159-3.36.201-5.192-1.1-5.8 1.355-1.588 1.237-2.73.3-4.4zm-5.5 3.8c-.3-.1-.3-.1-.3-1.7 0-1.2 0-1.5.1-1.6 2.592-.123 2.879.129 3 1.2.137 2.126-1.094 2.21-2.8 2.1zm22.7 6.2c-1.069-1.508-1.967-3.46-3-4.7-.499-.108-.279.021-.3.9.1 1.3 0 3.8-.1 3.9-.1.2-.4.2-1.1.2-.4 0-.5-.1-.5-.1-.19-3.382-.1-5.584-.1-9.9-.157-1.438.212-1.188 2.1-1.1 1.548 1.621 2.779 4.733 4.2 6.5.39-1.971.182-4.063.4-6.3.506-.412 1.141-.13 1.7 0 .09 3.809.121 7.953-.3 10.9-1.088.285-2.018.226-3-.3zm-9.6-10.9c-.4-.1-2.3-.1-2.4 0-1.314 3.285-2.396 6.935-3.4 10.1-.3.9-.3.9-.1 1s1.5.1 1.7 0c.563-.809.61-1.843 1.2-2.7h2.5c.608.544.768 1.662 1.2 2.6 1.19.296 3 .3 3-.2-1.741-4.18-2.637-10.726-3.7-10.8zm-.5 7c-.1.2-2 .1-2.2 0 .077-1.109.509-2.276 1.1-3.2.614.763 1.022 2.02 1.1 3.2z" fill="#fff"/></svg>
