<svg id="Layer_1" data-name="Layer 1" xmlns="http://www.w3.org/2000/svg" viewBox="0 0 200 200"><defs><style>.cls-1{fill:#fff;}.cls-2{fill:green;}</style></defs><circle class="cls-1" cx="100" cy="100" r="100"/><path class="cls-2" d="M14.07,100.24c0-4.23,0-8.46,0-12.69,0-.41.12-.46.48-.46q7.79,0,15.58-.11c.86,0,1.72-.09,2.58-.13a2.58,2.58,0,0,0,1.51-.61c2.29-1.71,4.68-3.26,7-4.87,3.4-2.34,6.82-4.64,10.21-7,8.79-6.11,17.7-12,26.47-18.16,1.79-1.25,3.61-2.48,5.4-3.75,1.58-1.11,3.19-2.18,4.78-3.28q2.76-1.9,5.53-3.8c1.7-1.17,3.4-2.34,5.18-3.39a1.46,1.46,0,0,1,1.81.15c1.64,1.32,3.42,2.44,5.14,3.62,2.69,1.85,5.39,3.67,8.07,5.51,1.9,1.31,3.82,2.6,5.67,4,3,2.24,6.14,4.29,9.21,6.42,3.77,2.62,7.57,5.19,11.35,7.79s7.65,5.26,11.48,7.89l9.3,6.37L165.67,87a1.23,1.23,0,0,0,.79.23c4.4-.07,8.81-.15,13.21-.11,2,0,4,.07,6,.08.31,0,.4.08.39.4,0,7.46.06,14.93-.09,22.39,0,1-.07,2-.08,3,0,.31-.11.39-.41.39-1.13,0-2.26,0-3.4,0l-16.78.08a1.43,1.43,0,0,0-.83.26c-.8.51-1.58,1-2.42,1.49-.38.2-.39,0-.41-.26a8.18,8.18,0,0,1,0-1c0-.28-.06-.36-.35-.35-1.42,0-2.84,0-4.26,0l-9.17,0c-2.88,0-5.76,0-8.64,0-3.07,0-6.14,0-9.21,0H114.15q-26.59,0-53.2,0-9.62,0-19.24.06c-1.35,0-2.69,0-4,0-.12,0-.29-.06-.33.11s.11.23.22.28a1.59,1.59,0,0,1,.81.9.8.8,0,0,0,.61.56,4.79,4.79,0,0,1,2.2,1c2.19,1.4,4.28,2.93,6.42,4.39,4.39,3,8.8,6,13.15,9,5.29,3.73,10.67,7.33,16,11,4.66,3.24,9.37,6.4,14.06,9.58,2.49,1.69,5,3.35,7.46,5.08,1.12.8,1.22.82,2.36,0,3.71-2.61,7.54-5,11.27-7.57s7.64-5.38,11.45-8.07c3.3-2.33,6.68-4.54,10-6.85q10.17-7.08,20.48-14c1.49-1,2.92-2.06,4.4-3.06a4.28,4.28,0,0,1,2.79-.64c.3,0,.39.16.2.41a3.19,3.19,0,0,1-.8.71c-1.74,1.15-3.53,2.25-5.23,3.45-3.78,2.67-7.66,5.17-11.42,7.86-3.54,2.54-7.18,5-10.76,7.44-3.11,2.16-6.26,4.26-9.38,6.42-3.79,2.61-7.48,5.36-11.31,7.93-3.63,2.44-7.24,4.9-10.87,7.34-.57.38-1.16.7-1.74,1.06a.74.74,0,0,1-.89,0c-2.19-1.4-4.25-3-6.42-4.4-1.54-1-3-2.06-4.56-3.09q-2.85-1.93-5.69-3.88c-1.47-1-2.93-2-4.38-3-1.62-1.13-3.27-2.24-4.9-3.36-1.35-.93-2.67-1.91-4-2.85-1.49-1-3-2.07-4.49-3.08-2-1.3-3.89-2.65-5.83-4l-4.84-3.33c-1.74-1.21-3.47-2.44-5.22-3.64-1.32-.92-2.67-1.82-4-2.73-1.75-1.19-3.5-2.37-5.24-3.57s-3.42-2.49-5.23-3.61a1,1,0,0,0-.58-.16q-9.49,0-19,0c-.46,0-.53-.14-.52-.55q0-6.3,0-12.61Zm22.6-13.4,0,.14h2.44l16.78.08q9.55,0,19.11,0h86.33c.38,0,.47-.09.38-.45s-.07-.56-.12-.85c-.1-.66-.25-.82-.92-.82a3.46,3.46,0,0,1-1.75-.51c-.58-.34-1.16-.67-1.72-1l-10-6.91c-7.47-5.13-15-10.24-22.41-15.4-2.59-1.79-5.11-3.7-7.68-5.51-5.77-4-11.56-8.07-17.41-12a.46.46,0,0,0-.63,0c-2,1.44-4.12,2.85-6.18,4.29-4.19,2.94-8.45,5.8-12.64,8.75s-8.44,5.73-12.6,8.67c-2,1.4-4,2.7-6,4.09-1.71,1.19-3.39,2.4-5.1,3.58-5,3.46-10,6.89-15,10.36A10.05,10.05,0,0,1,38.58,85a.3.3,0,0,0-.21.2c-.07.47-.44.68-.78.92A4.18,4.18,0,0,0,36.67,86.84Zm22,17.86a4.35,4.35,0,0,1-.49-1.13Q56.3,97.8,54.46,92a.46.46,0,0,0-.5-.39c-.72,0-1.43-.06-2.15-.13-.32,0-.4.05-.4.38,0,2.42,0,4.84,0,7.27,0,3.38,0,6.77,0,10.15,0,.35.09.44.43.43.67,0,1.35,0,2,0,.38,0,.47-.08.46-.47-.09-3.75-.25-7.51-.26-11.27a6.17,6.17,0,0,1,.09-1.3c.13.45.24.78.31,1.13A84,84,0,0,0,58,109.27a.37.37,0,0,0,.38.3c.77,0,1.55.08,2.32.15.28,0,.36,0,.36-.34,0-1.72,0-3.44,0-5.17q0-6.15,0-12.3c0-.29-.05-.41-.37-.4-.73,0-1.46,0-2.19,0-.23,0-.29.07-.3.3a61.79,61.79,0,0,0,.23,8.16A43.8,43.8,0,0,1,58.65,104.7Zm15.44-3.14c0-2.32-.08-4.11-.17-5.9a4.66,4.66,0,0,0-.82-2.5A21.13,21.13,0,0,0,71.16,91a.41.41,0,0,0-.39-.1c-.89.06-1.78.09-2.66.18a3.62,3.62,0,0,0-3.62,2.87A12.18,12.18,0,0,0,64.1,96a49.66,49.66,0,0,0-.14,6.79,19.87,19.87,0,0,0,.57,4.73,3,3,0,0,0,2.53,2.4,12.46,12.46,0,0,0,3.17.08A4.24,4.24,0,0,0,74,106.06,37.35,37.35,0,0,0,74.09,101.56Zm54.79-4.72a2.77,2.77,0,0,1,.48,1.17,99.73,99.73,0,0,0,3.6,11.35c0,.14.06.28.26.29a11.47,11.47,0,0,0,2.27.08c.26,0,.41-.14.41-.44s0-.71.06-1.07c.1-5.42,0-10.84,0-16.27,0-.24-.07-.31-.31-.32-.67,0-1.35-.06-2-.14-.41,0-.48.09-.47.47.08,3.34.14,6.68.2,10,0,.87,0,1.73,0,2.59h-.12a3.74,3.74,0,0,1-.34-1c-1-3.9-2.18-7.76-3.42-11.6-.09-.26-.19-.35-.46-.36-.72,0-1.44-.07-2.15-.14-.36,0-.44.05-.44.42,0,5.52,0,11,0,16.56,0,.39-.19.91.09,1.14s.77.14,1.16.2c1.27.21,1.36-.12,1.39-1.25.09-3.26,0-6.51-.21-9.77A9.15,9.15,0,0,1,128.88,96.84Zm28.1,3.48A3.67,3.67,0,0,0,158.75,98a7.42,7.42,0,0,0,.17-3.28,3.33,3.33,0,0,0-3.48-3.15c-1.9-.08-3.79,0-5.68,0-.35,0-.48.07-.48.46,0,2.54,0,5.08-.05,7.62,0,3.19,0,6.39-.09,9.59,0,.34.09.43.43.42.7,0,1.4,0,2.1,0,.25,0,.34-.07.32-.32a6,6,0,0,1,0-.73q.06-3.08.13-6.15c0-.15-.08-.37.21-.37.61,0,1.2-.12,1.81-.08a1.76,1.76,0,0,1,1.65,1.22,8.64,8.64,0,0,1,.41,2.19c.1,1.17.17,2.34.26,3.51a.68.68,0,0,0,.58.7c.46.09.93.16,1.4.23a1.38,1.38,0,0,0,.82-.16.42.42,0,0,0,.23-.63,3.12,3.12,0,0,1-.28-1c-.15-1-.09-2.09-.18-3.13C158.89,103.25,158.84,101.43,157,100.32Zm14,9.5v0h.6c.32,0,.46-.11.4-.47-.11-.57-.17-1.16-.27-1.74-.88-5.28-2.14-10.49-3-15.79,0-.22-.09-.31-.34-.31-1.11,0-2.23,0-3.35.08-.34,0-.62.08-.59.53a2.08,2.08,0,0,1-.09.6c-.65,3.88-1.57,7.71-2.34,11.57-.32,1.6-.6,3.21-.91,4.81-.09.42.09.58.46.64a4,4,0,0,0,1.24.06c1.33-.15,1.37-.19,1.5-1.53.07-.61.15-1.22.25-1.83s.35-.91,1.05-1c.52,0,1,0,1.55,0,.78,0,1.06.23,1.19,1,.17,1,.3,1.92.42,2.89,0,.23.11.31.34.32C169.72,109.7,170.34,109.77,171,109.82Zm-88.67-4.93h0c0,.31,0,.63,0,.94a6.14,6.14,0,0,0,.78,2.87,2.14,2.14,0,0,0,1.43,1.08,14.08,14.08,0,0,0,3.43.29,3.21,3.21,0,0,0,2.77-1.68,7.56,7.56,0,0,0,.66-4.4,3.44,3.44,0,0,0-.62-1.67,13.63,13.63,0,0,0-2.94-3.17,19.05,19.05,0,0,1-2-1.73,2.62,2.62,0,0,1-.46-2.8,1.47,1.47,0,0,1,1.35-.84,1.27,1.27,0,0,1,1.22.85A4.66,4.66,0,0,1,88.38,96a.87.87,0,0,0,.81.85c.48.06,1,.13,1.45.15.33,0,.46-.1.44-.45a9.19,9.19,0,0,0-.32-2.08,3.86,3.86,0,0,0-3-3,6,6,0,0,0-3.1.19,3.06,3.06,0,0,0-2.07,2.12,7.07,7.07,0,0,0-.27,2.59,4.48,4.48,0,0,0,1,2.8,22.31,22.31,0,0,0,3.43,3.37,3.32,3.32,0,0,1,1.07,4.68,1.08,1.08,0,0,1-1.82,0,4.15,4.15,0,0,1-.77-1.47,11.19,11.19,0,0,1-.34-2c0-.26-.1-.36-.36-.32s-.72,0-1.08.08-1-.13-1.18.16S82.28,104.47,82.28,104.89Zm24.89-4.16a34.21,34.21,0,0,1,.07-4,4.62,4.62,0,0,1,.59-2.18,1.28,1.28,0,0,1,2.34.1,5.36,5.36,0,0,1,.46,1.29c.25,1.19,0,1.27,1.59,1.27.36,0,.87.16,1.07-.08s.06-.71.06-1.08a6.93,6.93,0,0,0-.75-3.31,1.78,1.78,0,0,0-1-.86,13.3,13.3,0,0,0-2.43-.52c-2.37-.42-4.52,1.91-4.74,3.63a42,42,0,0,0-.13,9.83,12.29,12.29,0,0,0,.9,3.65,2,2,0,0,0,1.19,1.16,8.15,8.15,0,0,0,3.85.43,3,3,0,0,0,2.54-1.85,11,11,0,0,0,1-4.37c0-.21-.07-.24-.24-.25l-1.72-.11c-1-.07-.93-.08-1,.86a6.6,6.6,0,0,1-.64,2.61,1.14,1.14,0,0,1-1,.71,1.33,1.33,0,0,1-1.24-.77,4.13,4.13,0,0,1-.34-1.15A43.34,43.34,0,0,1,107.17,100.73ZM120,91.5v.15h-3.57c-.28,0-.36.07-.35.35,0,1.35,0,2.7,0,4.05q0,6.58.08,13.16c0,.22-.08.45.31.45,2.37,0,4.73,0,7.1.07.23,0,.29-.08.29-.3,0-.53,0-1.06,0-1.59,0-.34-.09-.42-.42-.42a31.91,31.91,0,0,1-3.91-.09c-.43,0-.62-.23-.63-.68,0-1.6.1-3.19.18-4.77,0-.31.09-.41.42-.42,1.2,0,2.4-.09,3.61-.13.27,0,.33-.09.32-.34,0-.55,0-1.09,0-1.64,0-.26-.1-.29-.33-.3-1.23,0-2.46-.12-3.69-.14-.35,0-.39-.12-.38-.42.06-1.3.12-2.61.15-3.91,0-.31.12-.37.39-.38,1.31,0,2.61-.1,3.92-.13.28,0,.4,0,.39-.37,0-.62,0-1.24,0-1.85,0-.3-.09-.35-.37-.35C122.33,91.51,121.15,91.5,120,91.5ZM24.71,101c0,2.23,0,5,.13,7.76,0,.84,0,.85.9.87,2.37.06,4.73,0,7.1-.06.23,0,.27-.09.28-.3,0-.5.05-1,.13-1.5,0-.31-.07-.35-.33-.35-1.54,0-3.07,0-4.61,0-.41,0-.47-.13-.47-.5q0-7.5,0-15c0-.31-.07-.42-.4-.41-.77,0-1.55,0-2.32,0-.33,0-.44.08-.43.42C24.72,94.77,24.71,97.61,24.71,101Zm116.48,1.22c0,2,0,4.42.12,6.84,0,.44.2.56.58.59.56.06,1.12,0,1.67.08.39,0,.47-.1.47-.47,0-4.85.1-9.7.12-14.55,0-.41.12-.53.52-.55.71,0,1.43-.08,2.14-.16s.71-.25.72-.82c0-.11,0-.23,0-.34-.06-1.2.16-1.22-1.27-1.25-2.68,0-5.36,0-8,.06-.24,0-.29.09-.28.3,0,.54,0,1.09,0,1.63,0,.32.12.38.4.39.8,0,1.6.09,2.4.1.37,0,.49.1.48.49C141.18,97,141.19,99.37,141.19,102.21Zm32.67-1.61c0,2.89,0,5.77,0,8.65,0,.35.12.44.42.45.82,0,1.63.13,2.45.17a28.66,28.66,0,0,0,5.07-.16c.24,0,.34-.11.33-.38a13.36,13.36,0,0,1,0-1.55c0-.31-.1-.37-.39-.37-1.51,0-3,0-4.52,0-.4,0-.52-.07-.52-.5,0-5,0-10,0-15,0-.32-.07-.41-.4-.4-.68,0-1.37,0-2.06,0-.33,0-.4.09-.4.4C173.87,94.81,173.86,97.71,173.86,100.6Zm-138.63,0v8.69c0,.24,0,.42.34.42,2.52,0,5,0,7.57,0,.28,0,.33-.1.32-.35,0-.53,0-1.06,0-1.59,0-.32-.09-.37-.38-.37-1.52,0-3,0-4.56,0-.4,0-.46-.12-.46-.48,0-3.17,0-6.34,0-9.51,0-1.85,0-3.7,0-5.55,0-.3-.09-.39-.39-.38-.67,0-1.35,0-2,0-.36,0-.45.1-.44.45C35.24,94.84,35.23,97.73,35.23,100.61ZM22,100.54h.17c0-2.89,0-5.77,0-8.65,0-.29-.07-.39-.37-.38-.82,0-1.64,0-2.46,0-.24,0-.31.08-.31.32q0,8.79,0,17.59c0,.3.12.31.35.3.75-.06,1.49-.12,2.23-.14.31,0,.37-.11.37-.4Q22,104.86,22,100.54Zm57.83.06c0-2.87,0-5.74,0-8.61,0-.41-.13-.5-.5-.48-.65,0-1.3,0-1.94,0-.34,0-.43.09-.42.43,0,2.64,0,5.28,0,7.92,0,3.12,0,6.25,0,9.38,0,.35,0,.51.45.48a18.68,18.68,0,0,1,2,0c.34,0,.43-.09.42-.43C79.83,106.4,79.84,103.5,79.84,100.6Zm-34.1,0c0,2.9,0,5.8,0,8.69,0,.34.08.45.43.43s.8,0,1.2,0c.78,0,1-.2,1-1,.25-5.63.13-11.27.2-16.91,0-.24-.06-.32-.31-.32-.69,0-1.38,0-2.06,0-.36,0-.46.07-.46.44C45.75,94.83,45.74,97.72,45.74,100.6Z"/><path class="cls-2" d="M45.45,115.84a24.94,24.94,0,0,1,3-.17c4.1,0,8.21-.12,12.31-.12,3.31,0,6.62,0,9.94,0q22.74,0,45.48,0,14.94,0,29.87.09c2.35,0,4.7.05,7,.08h.29a2.49,2.49,0,0,1-.67.61c-2.38,1.8-4.86,3.44-7.32,5.12s-5,3.31-7.46,5.07c-5.23,3.77-10.67,7.24-15.89,11-5.92,4.28-12,8.35-18,12.45-1.36.93-2.74,1.82-4.16,2.66a1,1,0,0,1-1.06,0c-1.38-.78-2.63-1.73-3.93-2.62-4.36-3-8.73-5.95-13.08-8.95-4.52-3.11-9-6.26-13.53-9.38-5.48-3.8-11-7.57-16.48-11.37-1.94-1.35-3.94-2.6-5.82-4Z"/><path class="cls-2" d="M154.3,84.82q-54.84.36-109.51,0a.69.69,0,0,1,.34-.51c1.1-.94,2.35-1.68,3.53-2.52,5.84-4.17,11.84-8.11,17.73-12.2,3.43-2.39,6.91-4.72,10.35-7.09s7-4.86,10.48-7.27c4-2.73,8-5.43,12-8.15a.46.46,0,0,1,.6,0c4.15,2.86,8.31,5.7,12.47,8.56,2.13,1.46,4.28,2.89,6.36,4.43,5.31,3.94,10.85,7.56,16.29,11.32,5.25,3.62,10.44,7.3,15.77,10.8,1,.65,2,1.27,3,2A2.75,2.75,0,0,1,154.3,84.82Z"/><path class="cls-2" d="M71,100.39a32.47,32.47,0,0,1-.25,5.49c0,.13,0,.26-.07.38-.25,1.07-.49,1.27-1.58,1.31a1.53,1.53,0,0,1-1.64-1.22,7.8,7.8,0,0,1-.31-2,57.42,57.42,0,0,1,.07-7.87A8.1,8.1,0,0,1,67.47,95c.22-.76.65-1.15,1.25-1.18a1.85,1.85,0,0,1,1.86,1A6.8,6.8,0,0,1,71,97.21C71,98.27,71,99.33,71,100.39Z"/><path class="cls-2" d="M156.15,96.6a2.78,2.78,0,0,1-3.68,2.75.55.55,0,0,1-.4-.54c-.1-1.44,0-2.89.06-4.33,0-.19.06-.29.26-.3a11.82,11.82,0,0,1,1.88-.07,1.79,1.79,0,0,1,1.49,1.07A3.35,3.35,0,0,1,156.15,96.6Z"/><path class="cls-2" d="M166.59,94.65c.3,1.9.62,3.74.77,5.61,0,.73.07,1.46.11,2.19,0,.17,0,.28-.21.29-.53,0-1,.12-1.59.1-.29,0-.35-.13-.31-.41.33-2.1.66-4.21,1-6.31A10,10,0,0,1,166.59,94.65Z"/></svg>