<svg id="Layer_1" data-name="Layer 1" xmlns="http://www.w3.org/2000/svg" viewBox="0 0 200 200"><defs><style>.cls-2{fill:green}</style></defs><circle cx="100" cy="100" r="100" fill="#fff"/><path class="cls-2" d="M14.07 100.24V87.55c0-.41.12-.46.48-.46q7.79 0 15.58-.11c.86 0 1.72-.09 2.58-.13a2.58 2.58 0 001.51-.61c2.29-1.71 4.68-3.26 7-4.87 3.4-2.34 6.82-4.64 10.21-7 8.79-6.11 17.7-12 26.47-18.16 1.79-1.25 3.61-2.48 5.4-3.75 1.58-1.11 3.19-2.18 4.78-3.28q2.76-1.9 5.53-3.8c1.7-1.17 3.4-2.34 5.18-3.39a1.46 1.46 0 011.81.15c1.64 1.32 3.42 2.44 5.14 3.62 2.69 1.85 5.39 3.67 8.07 5.51 1.9 1.31 3.82 2.6 5.67 4 3 2.24 6.14 4.29 9.21 6.42 3.77 2.62 7.57 5.19 11.35 7.79s7.65 5.26 11.48 7.89l9.3 6.37 4.85 3.26a1.23 1.23 0 00.79.23c4.4-.07 8.81-.15 13.21-.11 2 0 4 .07 6 .08.31 0 .4.08.39.4 0 7.46.06 14.93-.09 22.39 0 1-.07 2-.08 3 0 .31-.11.39-.41.39h-3.4l-16.78.08a1.43 1.43 0 00-.83.26c-.8.51-1.58 1-2.42 1.49-.38.2-.39 0-.41-.26a8.18 8.18 0 010-1c0-.28-.06-.36-.35-.35H60.95q-9.62 0-19.24.06h-4c-.12 0-.29-.06-.33.11s.11.23.22.28a1.59 1.59 0 01.81.9.8.8 0 00.61.56 4.79 4.79 0 012.2 1c2.19 1.4 4.28 2.93 6.42 4.39 4.39 3 8.8 6 13.15 9 5.29 3.73 10.67 7.33 16 11 4.66 3.24 9.37 6.4 14.06 9.58 2.49 1.69 5 3.35 7.46 5.08 1.12.8 1.22.82 2.36 0 3.71-2.61 7.54-5 11.27-7.57s7.64-5.38 11.45-8.07c3.3-2.33 6.68-4.54 10-6.85q10.17-7.08 20.48-14c1.49-1 2.92-2.06 4.4-3.06a4.28 4.28 0 012.79-.64c.3 0 .39.16.2.41a3.19 3.19 0 01-.8.71c-1.74 1.15-3.53 2.25-5.23 3.45-3.78 2.67-7.66 5.17-11.42 7.86-3.54 2.54-7.18 5-10.76 7.44-3.11 2.16-6.26 4.26-9.38 6.42-3.79 2.61-7.48 5.36-11.31 7.93-3.63 2.44-7.24 4.9-10.87 7.34-.57.38-1.16.7-1.74 1.06a.74.74 0 01-.89 0c-2.19-1.4-4.25-3-6.42-4.4-1.54-1-3-2.06-4.56-3.09q-2.85-1.93-5.69-3.88c-1.47-1-2.93-2-4.38-3-1.62-1.13-3.27-2.24-4.9-3.36-1.35-.93-2.67-1.91-4-2.85-1.49-1-3-2.07-4.49-3.08-2-1.3-3.89-2.65-5.83-4L53.75 127c-1.74-1.21-3.47-2.44-5.22-3.64-1.32-.92-2.67-1.82-4-2.73-1.75-1.19-3.5-2.37-5.24-3.57s-3.42-2.49-5.23-3.61a1 1 0 00-.58-.16h-19c-.46 0-.53-.14-.52-.55v-12.61zm22.6-13.4v.14h2.44l16.78.08h105.44c.38 0 .47-.09.38-.45s-.07-.56-.12-.85c-.1-.66-.25-.82-.92-.82a3.46 3.46 0 01-1.75-.51c-.58-.34-1.16-.67-1.72-1l-10-6.91c-7.47-5.13-15-10.24-22.41-15.4-2.59-1.79-5.11-3.7-7.68-5.51-5.77-4-11.56-8.07-17.41-12a.46.46 0 00-.63 0c-2 1.44-4.12 2.85-6.18 4.29-4.19 2.94-8.45 5.8-12.64 8.75s-8.44 5.73-12.6 8.67c-2 1.4-4 2.7-6 4.09-1.71 1.19-3.39 2.4-5.1 3.58-5 3.46-10 6.89-15 10.36A10.05 10.05 0 0138.58 85a.3.3 0 00-.21.2c-.07.47-.44.68-.78.92a4.18 4.18 0 00-.92.72zm22 17.86a4.35 4.35 0 01-.49-1.13Q56.3 97.8 54.46 92a.46.46 0 00-.5-.39c-.72 0-1.43-.06-2.15-.13-.32 0-.4.05-.4.38v17.42c0 .35.09.44.43.43h2c.38 0 .47-.08.46-.47-.09-3.75-.25-7.51-.26-11.27a6.17 6.17 0 01.09-1.3c.13.45.24.78.31 1.13A84 84 0 0058 109.27a.37.37 0 00.38.3c.77 0 1.55.08 2.32.15.28 0 .36 0 .36-.34V91.91c0-.29-.05-.41-.37-.4H58.5c-.23 0-.29.07-.3.3a61.79 61.79 0 00.23 8.16 43.8 43.8 0 01.22 4.73zm15.44-3.14c0-2.32-.08-4.11-.17-5.9a4.66 4.66 0 00-.82-2.5A21.13 21.13 0 0071.16 91a.41.41 0 00-.39-.1c-.89.06-1.78.09-2.66.18a3.62 3.62 0 00-3.62 2.87A12.18 12.18 0 0064.1 96a49.66 49.66 0 00-.14 6.79 19.87 19.87 0 00.57 4.73 3 3 0 002.53 2.4 12.46 12.46 0 003.17.08 4.24 4.24 0 003.77-3.94 37.35 37.35 0 00.09-4.5zm54.79-4.72a2.77 2.77 0 01.48 1.17 99.73 99.73 0 003.6 11.35c0 .14.06.28.26.29a11.47 11.47 0 002.27.08c.26 0 .41-.14.41-.44s0-.71.06-1.07c.1-5.42 0-10.84 0-16.27 0-.24-.07-.31-.31-.32-.67 0-1.35-.06-2-.14-.41 0-.48.09-.47.47.08 3.34.14 6.68.2 10v2.59h-.12a3.74 3.74 0 01-.34-1c-1-3.9-2.18-7.76-3.42-11.6-.09-.26-.19-.35-.46-.36-.72 0-1.44-.07-2.15-.14-.36 0-.44.05-.44.42v16.56c0 .39-.19.91.09 1.14s.77.14 1.16.2c1.27.21 1.36-.12 1.39-1.25.09-3.26 0-6.51-.21-9.77a9.15 9.15 0 01-.02-1.91zm28.1 3.48a3.67 3.67 0 001.75-2.32 7.42 7.42 0 00.17-3.28 3.33 3.33 0 00-3.48-3.15c-1.9-.08-3.79 0-5.68 0-.35 0-.48.07-.48.46 0 2.54 0 5.08-.05 7.62 0 3.19 0 6.39-.09 9.59 0 .34.09.43.43.42h2.1c.25 0 .34-.07.32-.32a6 6 0 010-.73q.06-3.08.13-6.15c0-.15-.08-.37.21-.37.61 0 1.2-.12 1.81-.08a1.76 1.76 0 011.65 1.22 8.64 8.64 0 01.41 2.19c.1 1.17.17 2.34.26 3.51a.68.68 0 00.58.7c.46.09.93.16 1.4.23a1.38 1.38 0 00.82-.16.42.42 0 00.23-.63 3.12 3.12 0 01-.28-1c-.15-1-.09-2.09-.18-3.13-.14-1.69-.19-3.51-2.03-4.62zm14 9.5h.6c.32 0 .46-.11.4-.47-.11-.57-.17-1.16-.27-1.74-.88-5.28-2.14-10.49-3-15.79 0-.22-.09-.31-.34-.31-1.11 0-2.23 0-3.35.08-.34 0-.62.08-.59.53a2.08 2.08 0 01-.09.6c-.65 3.88-1.57 7.71-2.34 11.57-.32 1.6-.6 3.21-.91 4.81-.09.42.09.58.46.64a4 4 0 001.24.06c1.33-.15 1.37-.19 1.5-1.53.07-.61.15-1.22.25-1.83s.35-.91 1.05-1h1.55c.78 0 1.06.23 1.19 1 .17 1 .3 1.92.42 2.89 0 .23.11.31.34.32.61.05 1.23.12 1.89.17zm-88.67-4.93v.94a6.14 6.14 0 00.78 2.87 2.14 2.14 0 001.43 1.08 14.08 14.08 0 003.43.29 3.21 3.21 0 002.77-1.68 7.56 7.56 0 00.66-4.4 3.44 3.44 0 00-.62-1.67 13.63 13.63 0 00-2.94-3.17 19.05 19.05 0 01-2-1.73 2.62 2.62 0 01-.46-2.8 1.47 1.47 0 011.35-.84 1.27 1.27 0 011.22.85 4.66 4.66 0 01.43 1.37.87.87 0 00.81.85c.48.06 1 .13 1.45.15.33 0 .46-.1.44-.45a9.19 9.19 0 00-.32-2.08 3.86 3.86 0 00-3-3 6 6 0 00-3.1.19 3.06 3.06 0 00-2.07 2.12 7.07 7.07 0 00-.27 2.59 4.48 4.48 0 001 2.8 22.31 22.31 0 003.43 3.37 3.32 3.32 0 011.07 4.68 1.08 1.08 0 01-1.82 0 4.15 4.15 0 01-.77-1.47 11.19 11.19 0 01-.34-2c0-.26-.1-.36-.36-.32s-.72 0-1.08.08-1-.13-1.18.16.01.8.01 1.22zm24.89-4.16a34.21 34.21 0 01.07-4 4.62 4.62 0 01.59-2.18 1.28 1.28 0 012.34.1 5.36 5.36 0 01.46 1.29c.25 1.19 0 1.27 1.59 1.27.36 0 .87.16 1.07-.08s.06-.71.06-1.08a6.93 6.93 0 00-.75-3.31 1.78 1.78 0 00-1-.86 13.3 13.3 0 00-2.43-.52c-2.37-.42-4.52 1.91-4.74 3.63a42 42 0 00-.13 9.83 12.29 12.29 0 00.9 3.65 2 2 0 001.19 1.16 8.15 8.15 0 003.85.43 3 3 0 002.54-1.85 11 11 0 001-4.37c0-.21-.07-.24-.24-.25l-1.72-.11c-1-.07-.93-.08-1 .86a6.6 6.6 0 01-.64 2.61 1.14 1.14 0 01-1 .71 1.33 1.33 0 01-1.24-.77 4.13 4.13 0 01-.34-1.15 43.34 43.34 0 01-.48-5.01zM120 91.5v.15h-3.57c-.28 0-.36.07-.35.35v4.05q0 6.58.08 13.16c0 .22-.08.45.31.45 2.37 0 4.73 0 7.1.07.23 0 .29-.08.29-.3v-1.59c0-.34-.09-.42-.42-.42a31.91 31.91 0 01-3.91-.09c-.43 0-.62-.23-.63-.68 0-1.6.1-3.19.18-4.77 0-.31.09-.41.42-.42 1.2 0 2.4-.09 3.61-.13.27 0 .33-.09.32-.34v-1.64c0-.26-.1-.29-.33-.3-1.23 0-2.46-.12-3.69-.14-.35 0-.39-.12-.38-.42.06-1.3.12-2.61.15-3.91 0-.31.12-.37.39-.38 1.31 0 2.61-.1 3.92-.13.28 0 .4 0 .39-.37v-1.85c0-.3-.09-.35-.37-.35-1.18.01-2.36 0-3.51 0zM24.71 101c0 2.23 0 5 .13 7.76 0 .84 0 .85.9.87 2.37.06 4.73 0 7.1-.06.23 0 .27-.09.28-.3 0-.5.05-1 .13-1.5 0-.31-.07-.35-.33-.35h-4.61c-.41 0-.47-.13-.47-.5v-15c0-.31-.07-.42-.4-.41h-2.32c-.33 0-.44.08-.43.42.03 2.84.02 5.68.02 9.07zm116.48 1.22c0 2 0 4.42.12 6.84 0 .44.2.56.58.59.56.06 1.12 0 1.67.08.39 0 .47-.1.47-.47 0-4.85.1-9.7.12-14.55 0-.41.12-.53.52-.55.71 0 1.43-.08 2.14-.16s.71-.25.72-.82v-.34c-.06-1.2.16-1.22-1.27-1.25-2.68 0-5.36 0-8 .06-.24 0-.29.09-.28.3v1.63c0 .32.12.38.4.39.8 0 1.6.09 2.4.1.37 0 .49.1.48.49-.08 2.44-.07 4.81-.07 7.65zm32.67-1.61v8.65c0 .35.12.44.42.45.82 0 1.63.13 2.45.17a28.66 28.66 0 005.07-.16c.24 0 .34-.11.33-.38a13.36 13.36 0 010-1.55c0-.31-.1-.37-.39-.37h-4.52c-.4 0-.52-.07-.52-.5v-15c0-.32-.07-.41-.4-.4h-2.06c-.33 0-.4.09-.4.4.03 2.89.02 5.79.02 8.68zm-138.63 0v8.69c0 .24 0 .42.34.42h7.57c.28 0 .33-.1.32-.35v-1.59c0-.32-.09-.37-.38-.37h-4.56c-.4 0-.46-.12-.46-.48V91.87c0-.3-.09-.39-.39-.38h-2c-.36 0-.45.1-.44.45.01 2.9 0 5.79 0 8.67zM22 100.54h.17v-8.65c0-.29-.07-.39-.37-.38h-2.46c-.24 0-.31.08-.31.32v17.59c0 .3.12.31.35.3.75-.06 1.49-.12 2.23-.14.31 0 .37-.11.37-.4q.02-4.32.02-8.64zm57.83.06v-8.61c0-.41-.13-.5-.5-.48h-1.94c-.34 0-.43.09-.42.43v17.3c0 .35 0 .51.45.48a18.68 18.68 0 012 0c.34 0 .43-.09.42-.43-.01-2.89 0-5.79 0-8.69zm-34.1 0v8.69c0 .34.08.45.43.43s.8 0 1.2 0c.78 0 1-.2 1-1 .25-5.63.13-11.27.2-16.91 0-.24-.06-.32-.31-.32h-2.06c-.36 0-.46.07-.46.44.02 2.9.01 5.79.01 8.67z"/><path class="cls-2" d="M45.45 115.84a24.94 24.94 0 013-.17c4.1 0 8.21-.12 12.31-.12h55.42q14.94 0 29.87.09c2.35 0 4.7.05 7 .08h.29a2.49 2.49 0 01-.67.61c-2.38 1.8-4.86 3.44-7.32 5.12s-5 3.31-7.46 5.07c-5.23 3.77-10.67 7.24-15.89 11-5.92 4.28-12 8.35-18 12.45-1.36.93-2.74 1.82-4.16 2.66a1 1 0 01-1.06 0c-1.38-.78-2.63-1.73-3.93-2.62-4.36-3-8.73-5.95-13.08-8.95-4.52-3.11-9-6.26-13.53-9.38-5.48-3.8-11-7.57-16.48-11.37-1.94-1.35-3.94-2.6-5.82-4zM154.3 84.82q-54.84.36-109.51 0a.69.69 0 01.34-.51c1.1-.94 2.35-1.68 3.53-2.52 5.84-4.17 11.84-8.11 17.73-12.2 3.43-2.39 6.91-4.72 10.35-7.09s7-4.86 10.48-7.27c4-2.73 8-5.43 12-8.15a.46.46 0 01.6 0c4.15 2.86 8.31 5.7 12.47 8.56 2.13 1.46 4.28 2.89 6.36 4.43 5.31 3.94 10.85 7.56 16.29 11.32 5.25 3.62 10.44 7.3 15.77 10.8 1 .65 2 1.27 3 2a2.75 2.75 0 01.59.63zM71 100.39a32.47 32.47 0 01-.25 5.49c0 .13 0 .26-.07.38-.25 1.07-.49 1.27-1.58 1.31a1.53 1.53 0 01-1.64-1.22 7.8 7.8 0 01-.31-2 57.42 57.42 0 01.07-7.87 8.1 8.1 0 01.25-1.48c.22-.76.65-1.15 1.25-1.18a1.85 1.85 0 011.86 1 6.8 6.8 0 01.42 2.39v3.18zm85.15-3.79a2.78 2.78 0 01-3.68 2.75.55.55 0 01-.4-.54c-.1-1.44 0-2.89.06-4.33 0-.19.06-.29.26-.3a11.82 11.82 0 011.88-.07 1.79 1.79 0 011.49 1.07 3.35 3.35 0 01.39 1.42zm10.44-1.95c.3 1.9.62 3.74.77 5.61 0 .73.07 1.46.11 2.19 0 .17 0 .28-.21.29-.53 0-1 .12-1.59.1-.29 0-.35-.13-.31-.41.33-2.1.66-4.21 1-6.31a10 10 0 01.23-1.47z"/></svg>