<svg xmlns="http://www.w3.org/2000/svg" width="239.99998" height="240.367" viewBox="0 0 63.499525 63.595998">
    <path class="color-main color-green" d="M30.964539 49.354773a103.49562 103.49562 0 00-1.832887-1.266358 1016.0483 1016.0483 0 01-3.187765-2.173429c-1.009129-.691498-2.168222-1.484014-2.576456-1.762071a23.473448 23.473448 0 01-.828964-.58215c-.08019-.06873-1.776651-1.239281-4.191688-2.889921a367.74374 367.74374 0 01-2.095322-1.445481c-.624848-.434269-1.596486-1.103898-2.160932-1.486096-1.163258-.78835-1.574617-1.074738-1.637101-1.138264a9.890299 9.890299 0 00-.544659-.370743l-.499879-.327004H5.291627l.02291-4.038599.02291-4.0386 2.960737-.02083c2.728502-.0177 2.975317-.03124 3.142984-.179123.09998-.08748.476967-.359288.837296-.602978a724.00694 724.00694 0 013.113825-2.114066c.809178-.546742 1.48922-1.018502 1.514214-1.047662.02395-.02916.456139-.332211.960183-.671711a721.3732 721.3732 0 007.640847-5.2331c.28743-.200993.975804-.675877 1.527753-1.052869.551948-.378033 1.263234-.864373 1.578782-1.083069 2.817022-1.931821 2.957612-2.017217 3.160688-1.910993.107265.05728.214531.127052.238483.156212.0552.06769.914361.661297 2.488977 1.720414 1.582948 1.064324 3.156523 2.15989 3.392924 2.364007a26.868454 26.868454 0 001.190335.841462 446.03716 446.03716 0 012.445237 1.676675c.792516.546742 1.873502 1.288228 2.401499 1.647515.527996.359288 1.215328.832089 1.527752 1.048703.695664.485298.697747.48634 1.397576.962266.58944.400944 2.224459 1.51838 4.103167 2.803483l1.091401.746693 1.70271-.02395c.937272-.0125 2.322351-.01458 3.078417-.0042l1.374665.02083v4.016729c0 2.208837-.02916 4.018813-.06457 4.019854-.03645.0031-1.501717.01354-3.256498.02395l-3.190889.01875-.440518.282223c-.242649.156212-.466553.282223-.498836.282223-.03124 0-.05728-.11768-.05728-.261395v-.262436l-.676919.0042c-.371784.0021-8.960317-.01041-19.084933-.02499-10.123575-.01666-18.426761.0021-18.450713.03957-.02395.03853.02083.09477.09998.124969.07811.03124.17704.143715.217655.249939.04686.12497.147881.196827.277016.196827.187454 0 .504044.200993 2.342138 1.48089.360329.25098 1.087234.750858 1.614189 1.111187.529038.360329 1.138265.78106 1.353837.934148.216614.153087.687333.475925 1.048703.716492.359288.241607.673794.461346.697747.489464.02395.02812.338459.246815.698788.48634.360329.239525 1.362168.923733 2.226541 1.520462 2.507722 1.733953 2.592076 1.791231 2.738916 1.882875.07602.04791.513416.345749.970597.662339.45718.315548 1.636059 1.116394 2.621236 1.779774.984135.662339 1.851632 1.258027 1.927655 1.324678.207241.179123.320755.149963.807095-.208283a23.68173 23.68173 0 011.0612-.720658c1.010171-.643593 4.153155-2.797235 4.717601-3.231504a23.525518 23.525518 0 011.0914-.783143c.312424-.209324.940396-.636303 1.396535-.948727.456139-.312424.967473-.660256 1.13514-.772728.168709-.112473.399903-.271809.514458-.355122.666505-.484257 5.80796-3.991736 6.583813-4.492655.202034-.130177.406151-.268685.455097-.308259.523831-.42802.775853-.562363 1.128892-.600895.591523-.06561.509251.114556-.281182.606102-.369701.231194-1.066406.693581-1.546498 1.027875-.480091.334294-1.148678.792515-1.484013 1.018502-.775853.520706-2.151559 1.478806-2.28486 1.588155-.08331.07082-.694623.483215-1.235116.835213a44.558935 44.558935 0 01-1.108063.775852c-.385323.262436-1.209081.827924-1.832887 1.254903-1.73187 1.184086-2.568124 1.767278-3.157564 2.201547a73.367541 73.367541 0 01-1.767278 1.224702c-.676918.456138-1.822472 1.231991-2.544172 1.724579-.72274.491547-1.362168.893533-1.419445.89145-.05832 0-.322838-.159336-.586316-.350956zM23.149776 34.70001c.144756-.08019.349915-.318673.458222-.535286.183288-.366578.194744-.491547.182247-2.045335-.0062-.909154-.05207-1.808935-.101017-1.999513-.05207-.2062-.237442-.50092-.460305-.734196l-.373867-.39053-.65609.03332c-1.275731.06457-1.536084.573819-1.537126 3.005518 0 1.754781.192662 2.538964.671712 2.728502.53112.210365 1.374665.181205 1.816224-.06249zm-1.145554-.618599c-.305134-.123929-.382199-.542577-.382199-2.069288 0-1.843301.13955-2.239038.739403-2.088033.416566.104141.496754.443642.48634 2.076577-.0073 1.45902-.11039 2.078661-.341583 2.078661a.774811.774811 0 00-.200993.03853.546742.546742 0 01-.30201-.03645zm6.679622.576942c.308259-.275974.447808-.681084.447808-1.302807 0-.50092-.03332-.601937-.328045-1.022668a4.659281 4.659281 0 00-.864373-.866455c-.293678-.218697-.579026-.489464-.632138-.599854-.231193-.476967-.03749-.978928.379075-.978928.259312 0 .412399.190578.47905.594646.04895.303052.07394.325963.425938.372826.205158.02812.390529.02395.410316-.0083.02083-.03124.0042-.263478-.03645-.515499-.133301-.843545-.662339-1.272607-1.478807-1.195542-.549866.05103-.830006.214531-1.030998.600895-.187455.360329-.19162 1.158051-.0083 1.504841.166626.31659.770646.9581 1.225743 1.303849.414483.314507.519665.50821.513417.945603-.0062.374909-.209324.676919-.459263.676919-.241608 0-.494671-.39782-.561322-.879994l-.0604-.439476-.406151.02604-.406151.02604.02916.61131c.03541.769604.296802 1.233033.733154 1.30489.91332.148922 1.329885.108307 1.62877-.158295zm6.691078.06769c.264519-.173916.544659-.846669.577985-1.388203l.02708-.437394-.444683-.02604-.445725-.02604-.0604.482174c-.07498.600895-.281181.885201-.586315.808136-.358246-.0906-.440518-.419689-.483216-1.937028-.04686-1.652722.04686-2.126565.444684-2.267156.208282-.0729.269726-.05728.404068.108307.08644.107266.18433.351998.216614.544659.05832.344708.06248.348873.443642.348873h.385322v-.426979c0-.444683-.168709-.9581-.369701-1.124726-.189537-.158295-.949769-.295761-1.301766-.236401-.403027.06873-.889367.50821-1.014337.918527-.145797.473843-.205158 2.231748-.106224 3.089872.04999.428021.164544.946644.256188 1.151803.141632.321796.222862.391571.586315.507168.483216.153087 1.163259.111431 1.470475-.08956zm5.317455-1.267399a31.172613 31.172613 0 00-.06561-1.983892c-.03228-.343666-.02604-.625889.01354-.625889.04166 0 .140591.312424.222863.694622.08227.382199.268684 1.020585.414482 1.418405.145798.398861.34679.966431.447808 1.263234l.182247.537369.399902.03437c.222863.01875.429062-.0062.465512-.05728.03541-.05207.0552-1.310098.04374-2.799318l-.02083-2.707674-.428021-.02604-.42802-.02812.04686 2.065122c.02603 1.136182.01875 2.032838-.01458 1.992223-.03332-.04062-.14788-.426979-.255146-.859165a38.279215 38.279215 0 00-.56965-1.964098l-.374908-1.17888-.450932-.02708-.450932-.02604v5.586139l.283264.03645c.575902.0729.546742.143715.538411-1.343423zm9.29461 1.328843c.0906-.05728.09581-.116639.02083-.254105-.05207-.09893-.09581-.456139-.09581-.792515 0-.879994-.142674-1.456937-.411358-1.668344l-.222863-.175999.22807-.179123c.441559-.347832.525913-1.555871.144756-2.090116-.267643-.374908-.551949-.445724-1.705834-.418648l-1.044538.02499-.02395 2.772242-.02291 2.772241h.870621l.02395-1.155969.02499-1.158051.367619-.02604c.708161-.05207.86229.208283.922692 1.554829.03332.739404.03437.742528.288471.796681.376992.08227.504044.08123.635262-.0021zm-2.220292-3.270037c-.02499-.06353-.03332-.426979-.01874-.807095l.02604-.690457.295761-.02916c.495713-.04686.708161.05207.851876.395736.27285.654008-.09373 1.248655-.770646 1.248655-.203075 0-.357204-.04791-.384281-.11768zm3.757418 2.74933c.09477-.814385.08227-.798764.655049-.798764.569652 0 .549866-.02395.66338.843545l.05936.450932.447808.03645c.246815.02083.476967.0125.513416-.01874.03541-.02916-.148922-1.113271-.409275-2.407747-.260353-1.294476-.499878-2.541048-.533203-2.768076l-.05936-.415523h-.645676c-.35408 0-.644635.0302-.644635.06561 0 .166626-.289512 1.708958-.437393 2.335889-.170792.727947-.610268 2.954488-.610268 3.095079 0 .09893.299927.145798.667546.105183.264519-.02916.277016-.04895.333252-.523831zm.308258-1.631894c0-.03333.05728-.418648.127052-.857083.06873-.437393.15413-.993508.187455-1.233033l.0604-.437393.124969.786267c.06769.432186.131218.999756.13955 1.260109l.01458.474884-.328045.03333c-.180164.01875-.327003.0062-.327003-.02708zm4.692607 2.182801l.458221-.05207v-.68525H55.32527v-4.889434h-.873745v5.577808l.328045.02708c.760231.06249 1.315304.06977 1.745408.02083zM7.806639 31.964218l.02604-2.773283h-.962265l.0042 2.798277.0042 2.798277.450932-.02604.450931-.02604zm3.406462 2.444196l.02708-.328045H9.571837v-4.889434h-.960183v2.735792c0 1.504842.02708 2.762869.0604 2.796194.03333.03333.612351.04999 1.287187.03645l1.227826-.02395zm3.160688.02083v-.348875h-1.658971v-4.889434h-.872704v5.588222h2.532717zm1.5038.109349c.02291-.131218.04686-1.389245.05207-2.794111l.01041-2.553545h-.868538v5.588222h.382198c.348874 0 .385323-.02083.423855-.239525zm1.780817-1.782899c-.03124-1.113271-.03437-2.001596-.0083-1.97556.02708.02708.142674.456138.257229.954975.114556.497796.381157 1.376748.592564 1.952649l.38324 1.047662.450932.02708.451973.02604v-5.597595h-.872704l-.01041.764397c-.0062.41969-.0062.791474-.0021.8248.05311.362411.181206 2.4619.152046 2.491059-.02083.02083-.127052-.249939-.235359-.601936a191.42211 191.42211 0 00-.650883-2.037004l-.454056-1.397576-.447808-.02604-.447807-.02708v5.597594h.896656zm7.891827-.770646v-2.794111h-.873746v5.588222h.873746zm13.533161 2.445238v-.349915h-.732113c-.516541 0-.745652-.03333-.775853-.112472-.02395-.06144-.02291-.472802.0021-.91332l.04478-.800846.664421-.02499.664421-.02604-.0042-.348874-.0042-.348873-.673794-.02604-.674836-.02604.02499-.716492.02604-.716492.719616-.02499.720658-.02604v-.783143l-1.199708.02395-1.200749.02499.01666 2.74933c.0083 1.513173.01875 2.760786.02083 2.773283.0052.0125.537369.02083 1.185128.02083h1.178879zm6.220359-2.030755l.02291-2.378587.520707-.04374c.562363-.04791.535286-.01041.492588-.657131-.0083-.114556-.211407-.130177-1.471516-.109349l-1.462144.02395v.697746l.501961.02708.501961.02604v2.339014c0 1.286145.02604 2.364007.05832 2.396291.03124.03124.22807.05832.435311.05832h.376991zm5.405975-4.823825c-.04166-.362412-.0729-.392613-.389489-.392613-.194744 0-.499878-.149963-1.020584-.501961a18.47779 18.47779 0 01-.785226-.548826 29.243917 29.243917 0 00-1.004963-.697747c-.527996-.357205-1.176797-.799805-1.440274-.983094a223.4768 223.4768 0 00-2.028673-1.389245 26.014495 26.014495 0 01-.535286-.370743 94.064582 94.064582 0 00-2.151559-1.475682c-.504044-.338459-.93623-.640469-.960183-.671711-.02395-.03124-.338459-.247857-.697746-.482175-.360329-.233276-.674836-.447807-.698788-.476967a9.222753 9.222753 0 00-.61131-.440517c-.312424-.21349-.770645-.544659-1.020584-.737321-.248898-.19162-.830007-.604019-1.291352-.916443a173.63478 173.63478 0 01-2.622278-1.809976 56.350854 56.350854 0 00-.983094-.668587l-.895615-.601937-.366578.250981c-.202034.138508-.958099.661297-1.679799 1.162217a461.88747 461.88747 0 01-1.967229 1.359044c-1.001839.685249-1.693337 1.166382-1.790188 1.247612-.04791.03957-.322839.229111-.61131.422814-.683167.458222-2.308812 1.568368-2.531675 1.728745-.853958.616517-2.343179 1.62148-2.401498 1.62148a.120804.120804 0 00-.102058.06665c-.01666.03645-.322838.262437-.684209.501962-.359287.239525-.673794.458222-.697746.487381a10.086084 10.086084 0 01-.656091.461346 329.23229 329.23229 0 00-4.167734 2.871176c-.462388.322838-.901864.589439-.976846.589439-.07602 0-.137466.04999-.137466.111432 0 .06248-.11768.182247-.261395.267643-.144756.08435-.262436.181206-.262436.214531 0 .03333 8.654142.06144 19.231773.06144h19.231773zm-35.934995-.466555c-.02499-.04166.296803-.305134.715451-.586316.417606-.282222.780018-.534244.803971-.559238.02395-.02604.298885-.219738.611309-.431145s.960183-.654008 1.440274-.983094l2.376504-1.623563c.826882-.564446 1.578782-1.080987 1.671468-1.147637.09373-.06665.733155-.505085 1.42257-.97268.689416-.468636 1.42986-.976845 1.645433-1.128891 1.836011-1.291352 2.7712-1.934946 2.882631-1.983892a.53112.53112 0 00.173916-.118721c.02395-.03228.246815-.192661.495712-.355122.247856-.16246.928941-.623806 1.514215-1.02475l1.062241-.727948.756066.5155c2.796193 1.905785 3.301279 2.254659 3.403337 2.355676.06353.06249.149964.114555.190579.114555.04166 0 .127052.05103.190578.113514.06249.06248.429062.325962.813344.583191.385323.258271.738362.5155.786266.572777.04791.05624.362412.283265.697747.503003.336377.219738.768563.512375.961224.649842.19162.136425.820634.570694 1.396535.964348.576943.392613 1.224702.838337 1.441316.989342.215572.149964.864372.593606 1.440274.983094a33.116931 33.116931 0 011.0914.756066c.05207.05624 1.926614 1.322594 2.947199 1.992223.395737.259312.720658.506127.720658.547783 0 .09789-33.591816.09998-33.652218.0021zm16.135652 20.56374a47.84251 47.84251 0 01-.742527-.517582c-.259312-.187455-.672753-.470719-2.173429-1.48089a89.384472 89.384472 0 01-1.74645-1.20179c-.312423-.224945-1.264275-.887284-2.117192-1.472558a656.53483 656.53483 0 01-3.085707-2.132814 219.01955 219.01955 0 00-1.733952-1.200749 357.08487 357.08487 0 01-2.416078-1.657929c-.172875-.120804-.647759-.443642-1.054951-.718575-.408234-.273892-.783143-.548825-.835214-.610268-.07602-.09165 2.989897-.112473 16.533472-.112473 9.143606 0 16.626158.02604 16.626158.05832 0 .06665-.932065.731072-2.619154 1.866212-1.718331 1.155969-2.308812 1.561078-2.357759 1.619397a26.701828 26.701828 0 01-1.0914.763356 448.90105 448.90105 0 00-2.31402 1.587113c-.695664.480092-1.42257.978929-1.61419 1.108064a7.28989 7.28989 0 00-.568612.422813c-.119762.104142-.788349.573819-1.484013 1.044538-.696705.47176-1.979726 1.34134-2.851389 1.933903-.872704.593606-1.639184 1.07578-1.70271 1.072656-.06457-.0021-.357204-.169751-.650883-.370744z"/>
</svg>