<svg data-name="Layer 1" xmlns="http://www.w3.org/2000/svg" viewBox="0 0 28 28"><circle cx="14" cy="14" r="13.75" fill="pink"/><path d="M14.59 9.26v9.48h-2.15v-6.4l-.86 6.4h-1.53l-.91-6.25v6.25H7V9.26h3.2c.09.57.19 1.24.29 2l.35 2.42.57-4.43zm6.22 2.87h-2.29v-.71a1.34 1.34 0 00-.09-.62.32.32 0 00-.29-.14.38.38 0 00-.34.18 1.18 1.18 0 00-.11.56 1.5 1.5 0 00.13.71 1.87 1.87 0 00.69.58 7 7 0 012.08 1.61 3.7 3.7 0 01.43 2 3.51 3.51 0 01-.24 1.49 1.87 1.87 0 01-.92.81 3.71 3.71 0 01-1.58.32 3.54 3.54 0 01-1.69-.37 1.85 1.85 0 01-.92-1 5 5 0 01-.21-1.55v-.63h2.29v1.13a1.6 1.6 0 00.09.68.37.37 0 00.35.16.4.4 0 00.36-.2 1.1 1.1 0 00.12-.57 1.75 1.75 0 00-.23-1.1 7 7 0 00-1.15-.86 11.64 11.64 0 01-1.22-.88 2.13 2.13 0 01-.49-.76 3.41 3.41 0 01-.2-1.25 3.4 3.4 0 01.28-1.59 1.81 1.81 0 01.9-.79 3.56 3.56 0 011.5-.28 3.9 3.9 0 011.64.31 1.7 1.7 0 01.89.78 4.06 4.06 0 01.22 1.6z" fill="#231f20"/></svg>