<svg id="Layer_1" data-name="Layer 1" xmlns="http://www.w3.org/2000/svg" viewBox="0 0 28 28"><defs><style>.cls-1{fill:pink;}.cls-2{fill:#231f20;}</style></defs><circle class="cls-1" cx="14" cy="14" r="13.75"/><path class="cls-2" d="M14.59,9.26v9.48H12.44v-6.4l-.86,6.4H10.05l-.91-6.25v6.25H7V9.26h3.2c.09.57.19,1.24.29,2l.35,2.42.57-4.43Z"/><path class="cls-2" d="M20.81,12.13H18.52v-.71a1.34,1.34,0,0,0-.09-.62.32.32,0,0,0-.29-.14.38.38,0,0,0-.34.18,1.18,1.18,0,0,0-.11.56,1.5,1.5,0,0,0,.13.71,1.87,1.87,0,0,0,.69.58,7,7,0,0,1,2.08,1.61,3.7,3.7,0,0,1,.43,2,3.51,3.51,0,0,1-.24,1.49,1.87,1.87,0,0,1-.92.81,3.71,3.71,0,0,1-1.58.32,3.54,3.54,0,0,1-1.69-.37,1.85,1.85,0,0,1-.92-1A5,5,0,0,1,15.46,16v-.63h2.29V16.5a1.6,1.6,0,0,0,.09.68.37.37,0,0,0,.35.16.4.4,0,0,0,.36-.2,1.1,1.1,0,0,0,.12-.57,1.75,1.75,0,0,0-.23-1.1,7,7,0,0,0-1.15-.86,11.64,11.64,0,0,1-1.22-.88,2.13,2.13,0,0,1-.49-.76,3.41,3.41,0,0,1-.2-1.25,3.4,3.4,0,0,1,.28-1.59,1.81,1.81,0,0,1,.9-.79,3.56,3.56,0,0,1,1.5-.28,3.9,3.9,0,0,1,1.64.31,1.7,1.7,0,0,1,.89.78,4.06,4.06,0,0,1,.22,1.6Z"/></svg>
