<?xml version="1.0" encoding="utf-8"?>
<!-- Generator: Adobe Illustrator 24.1.2, SVG Export Plug-In . SVG Version: 6.00 Build 0)  -->
<svg version="1.1" id="Layer_1" xmlns="http://www.w3.org/2000/svg" xmlns:xlink="http://www.w3.org/1999/xlink" x="0px" y="0px"
	 viewBox="0 0 200 200" style="enable-background:new 0 0 200 200;" xml:space="preserve">
<style type="text/css">
	.st0{fill:none;stroke:#FFFFFF;stroke-width:1.4245;stroke-miterlimit:10;}
	.st1{fill:#FFFFFF;}
</style>
<circle cx="100" cy="100" r="100"/>
<path class="st0" d="M99.9,156.3c-23.8,0-46.2-5.7-63.1-16C19.4,129.6,9.8,115.2,9.8,99.9s9.5-29.6,27.1-40.3
	c17-10.3,39.3-16,63.1-16s46.2,5.7,63.1,16C180.5,70.2,190,84.5,190,99.9s-9.5,29.6-27.1,40.3C146.2,150.6,123.8,156.3,99.9,156.3
	L99.9,156.3z"/>
<path class="st1" d="M44.3,83.9c-0.6,0.1-1,0.3-1.6,0.3c-0.4,0-0.9-0.3-1.4-0.3c-1.6-0.1-3-0.4-4.4-0.3c-6.1,0.9-10,4.6-12.3,10
	c-2,4.6-1.6,9.1-0.1,13.8c2.6,7.8,9.4,13.2,17.5,13.2c4,0,7.8-1,11.3-3.4c0.3-0.3,0.6-0.4,0.9-0.7c-1.4,0.6-2.7,1.3-4,1.7
	c-4.1,1.3-8.3,1.6-12.3-0.4c-2.7-1.4-4.8-3-6.4-5.7c-2.1-4-3.4-8.4-3-13.1c0.3-3.4,1-6.7,2.8-9.7c2.7-4.6,7.1-5.4,11.4-3
	c0.7,0.4,1.4,1,2,1.6C44.6,86.6,44.6,85.2,44.3,83.9z M63.1,92v0.3c0.3,0.3,0.4,0.3,0.7,0.6c0.9,0.6,1.1,1.3,1.1,2.3
	c-0.1,4.3-0.1,8.5-0.3,12.8c0,1.9,0.1,3.6-1,5.3v0.1H67c-0.3-0.7-0.6-1.4-0.6-2c0-4,0.1-8.3,0.1-12.3c0-0.4,0.1-0.9,0.1-1.6
	c5,5.6,9.5,11.3,14.4,16.7c0.6-1.6,1-3.1,1.6-4.6c0.3-0.4,0.3-0.7-0.3-0.9c-0.3-0.1-0.7-0.4-0.7-0.9c-0.3-0.7-0.4-1.6-0.4-2.1
	c0-3.1,0.1-6.4,0.1-9.5c0-1.4,0.3-2.6,1.3-3.6c0.1-0.1,0.1-0.3,0.1-0.3h-3.8c0,0.1-0.1,0.1-0.1,0.3c0.1,0.1,0.3,0.1,0.4,0.3
	c0.9,0.6,1,1.3,1,2.3c-0.1,2.7,0,5.6-0.1,8.3c0,0.9-0.1,1.7-0.1,2.7c-0.3-0.1-0.6-0.3-0.9-0.6c-3.3-3.8-6.4-7.5-9.5-11.4
	c-0.3-0.3-0.6-0.9-0.4-1.3s-0.1-0.7-0.6-0.7h-2.4C65.1,92,64.1,92,63.1,92L63.1,92z"/>
<path class="st1" d="M60.7,107.5c-1,0.9-2,2-3,2.6c-0.9,0.6-2,1.1-3,1.1c-2.7,0.1-5.3,0-7.8,0.1c-0.7,0-0.9-0.3-0.9-0.9
	c0.1-2.7,0.1-5.7,0.1-8.4c0-0.6,0.3-0.7,0.7-0.7c1.4,0.1,2.7,0.1,4.1,0.1s2.6,0.3,3.7,1.1c0.3,0.1,0.3,0.3,0.6,0.3l0.1-0.1
	c-0.6-1.6-1.1-3-1.9-4.7c-0.3,0.4-0.4,0.9-0.7,1c-0.3,0.3-0.6,0.6-0.9,0.6h-5.4c-0.4,0-0.4-0.3-0.4-0.6v-4c0-0.6,0-1.1,0.1-1.9h5.4
	c1.1,0,2.3,0,3.4,0.1c1.6,0.3,2.7,1,4,2.1c-0.3-1.1-0.4-2.3-0.9-3.4c0-0.1-0.4-0.3-0.7-0.3H40.2c0.4,0.4,0.9,0.7,1.1,1
	c0.6,0.6,0.9,1.1,0.9,2c0,4.6-0.1,9.3,0,13.8c0,1.4-0.3,2.7-1.1,3.8c-0.1,0.1-0.1,0.3-0.3,0.4c0.3,0,0.3,0.1,0.4,0.1
	c5.4,0.1,10.8,0.1,16.2,0.1c0.3,0,0.6-0.3,0.7-0.6c0.7-1.4,1.4-2.7,2-4.1C60.4,108.3,60.5,108,60.7,107.5L60.7,107.5z M142.6,127.1
	c0.1,0,0.3,0,0.3,0.1c-0.3,4.3,0.3,8.5-0.4,12.8h3.7c-0.3-1-0.6-2-0.6-2.8v-8.1c0-1.1,0.1-2.1,0.6-3.3c0.1-0.3,0.3-0.6,0.3-0.9h-5.3
	c0.3,0.9-2.7,7-3.8,7.7c-0.7-1.4-1.4-2.7-2-4c-0.4-1.1-1.6-2.1-0.9-3.7h-4.7c0.4,5.1,0.3,10.1-0.1,15.2h3.1c-0.3-0.4-0.4-0.7-0.6-1
	c-0.3-0.4-0.6-1-0.6-1.6c0-2.6,0-5.1,0.1-7.7c0-0.1,0.1-0.3,0.1-0.4h0.3c1.6,3.4,3.1,7,4.7,10.5c0.6-0.7,1-1.3,1.6-1.7
	c0.9-0.9,0.9-1.6,0.3-2.6c-0.3-0.4-0.3-0.9,0-1.6c0.9-1.4,1.6-2.7,2.1-4C141.5,129.1,142,128.2,142.6,127.1L142.6,127.1z
	 M107.5,96.4C107.5,96.4,107.7,96.4,107.5,96.4c-0.4-1.3-0.9-2.6-1.6-3.7c-0.1-0.3-0.4-0.3-0.7-0.4H88.2c-0.4,0-0.9,0.3-0.9,0.7
	c-0.3,0.9-0.9,1.7-1.3,2.7c-0.1,0.3-0.3,0.4-0.3,0.7c0.3,0,0.3-0.1,0.4-0.1c2.1-1.7,4.6-2.4,7.4-2.3c0.7,0,0.9,0.3,0.9,0.9
	c-0.1,5-0.3,10-0.3,14.8c0,1.3-0.1,2.6-0.9,3.6c-0.1,0.1-0.1,0.3-0.1,0.4h7.1c-1.1-1-1.7-2.1-1.7-3.6c0-5.1,0.1-10.1,0.1-15.2
	c0-0.6,0.1-0.9,0.9-0.9c0.4,0.1,0.9,0,1.3,0c1.7,0.1,3.3,0.1,4.7,1C106.3,95.4,106.8,96,107.5,96.4L107.5,96.4z M166.2,112.4v-6.3
	c0-2.8,0.1-5.8,0.1-8.8c0-1.6,0.1-3,1.6-4V93h-7.7c0.4,0.4,0.9,0.9,1.3,1.1c0.3,0.3,0.6,0.9,0.6,1.4c0,5.3,0,10.4-0.1,15.7
	c0,0.6-0.3,1.1-0.7,1.6c-0.3,0.4-0.7,0.9-1.1,1.3c0.3,0.1,0.4,0.1,0.6,0.1c2.4,0,5,0,7.4,0.1c3.1,0,6.3,0,9.4,0.1
	c0.4,0,0.7-0.1,0.9-0.4c0.4-0.9,0.9-1.6,1.6-2.6c0.3-0.4,0.4-0.9,0.7-1.4c0-0.1-0.1-0.1-0.1-0.3C175.8,113,170.9,112.8,166.2,112.4
	L166.2,112.4z M87.7,74.8h-0.3c-0.7-1.9-1.3-3.7-2-5.4c-0.3-1-0.7-2-0.3-3c0,0,0-0.1-0.1-0.3h-3.7c0.4,1.3,0.1,2.3-0.3,3.4
	c-0.3,0.9-0.6,1.6-0.9,2.3c-0.4,1-0.9,2.1-1.6,3.4c-0.1-0.3-0.3-0.3-0.3-0.4c-0.7-2.1-1.6-4.4-2.1-6.6c-0.1-0.4,0-0.9,0-1.4
	c0-0.3,0.1-0.3,0.3-0.7h-4.8c0.3,0.3,0.4,0.6,0.6,0.9c0.3,0.4,0.6,1,0.9,1.6c1.4,4.3,2.7,8.4,4,12.7c0.1,0.3,0.3,0.9,0.4,1.1
	c0.9-1.1,1.6-2.1,2.1-3.3c0.1-0.1,0-0.3-0.1-0.4c-0.4-0.9-0.4-1.7,0-2.7c0.6-1.3,1-2.6,1.6-3.7c0.3-0.9,0.7-1.7,1.1-2.7
	c1.6,4.6,3,8.8,4.4,13.1c0.9-1.3,1.7-2.4,2.6-3.7l-0.3-0.3c-0.7-0.9-0.9-1.6-0.4-2.6c0.9-2.4,1.9-5,2.7-7.5c0.3-0.9,0.7-1.7,1.6-2.1
	v-0.1h-2.1C90.2,69.2,88.6,71.9,87.7,74.8L87.7,74.8z M153.1,74.2c0.3,0.3,0.4,0.6,0.6,0.9c0.9,1.6,1.9,3.3,2.7,5
	c0.3,0.6,0.3,1.3,0.3,1.9s0.1,0.7,0.6,0.7h4.4c-0.6-0.7-1.1-1.3-1.6-1.9c-1.4-2.6-2.6-5.3-4-7.7c-0.6-1-0.7-1.7,0.3-2.7
	c0.9-0.9,1.7-2,2.7-3c0.3-0.3,0.4-0.3,0.9-0.7h-2.7c-0.3,0.7-0.4,1.3-0.9,1.7c-1.3,1.6-2.7,3.3-4,4.8c-0.7,0.7-1.3,1.4-2.1,2.3v-5.3
	c0-1.1-0.1-2.4,1-3.4h-4.6c0.1,0.3,0.1,0.4,0.3,0.6c0.4,0.7,0.6,1.4,0.6,2.1c-0.1,3-0.1,6-0.1,9.1c0,1.3,0,2.7-0.9,3.8v0.3h4.6
	c-0.3-0.6-0.7-1.1-0.9-1.7c-0.4-1-0.6-2.1-0.1-3.1C151,76.5,152.1,75.4,153.1,74.2L153.1,74.2z M94.3,124.1h-2
	c-1.6-0.1-3-0.3-4.6-0.3c-2.1,0.1-3.4,1.4-4,3.3c-0.4,2,0.1,4,1.7,5c0.9,0.6,2,0.9,2.8,1.3c0.9,0.3,1.9,0.6,2.7,0.9
	c1.4,0.7,1.6,2.1,0.3,3.1c-0.3,0.3-0.7,0.4-1,0.4c-1.9,0.3-3.4,0-5-1c-0.3-0.3-0.7-0.6-1.1-0.9v3.3c1,0.3,2.1,0.3,3.1,0.6
	c1.9,0.3,3.6,0.3,5.3-0.4c1.9-0.9,2.8-2.3,2.8-4.3c0-1.9-0.9-3.3-2.7-4c-0.7-0.3-1.6-0.6-2.3-0.9c-0.7-0.3-1.6-0.6-2.3-1
	c-0.9-0.6-1.3-1.4-1-2.1c0.3-1,1.1-1.7,2.1-1.7c0.7,0,1.6,0.3,2.1,0.6c0.9,0.4,1.9,1,2.7,1.6C94.3,126.2,94.3,125.1,94.3,124.1z
	 M54.3,135.5c0,0.6,0.1,1.1,0.1,1.9c0.1,0.9,0.3,1.6,1.6,1.9c2.1,0.6,4,1,6.3,0.3c2.7-0.9,4.3-4,3.3-6.4c-0.7-1.7-2.1-2.4-3.8-3
	c-0.9-0.3-1.9-0.7-2.7-1.1c-0.9-0.3-1.1-1-1-1.9c0.1-0.9,0.7-1.4,1.6-1.6c0.9-0.3,1.9-0.3,2.7,0.3c0.9,0.4,1.6,1,2.7,1.6
	c-0.1-1-0.1-2-0.3-2.7c-1.4-0.3-2.6-0.3-3.8-0.6c-2.7-0.4-4.6,0.6-5.7,2.8c-1,2.1-0.6,3.7,1.3,5c0.9,0.6,2.1,1.1,3.1,1.6
	c0.9,0.4,1.7,0.9,2.4,1.4c0.9,0.7,0.9,1.4,0.1,2.1c-0.6,0.7-1.3,1.1-2.1,1.1c-1.6,0.1-2.8-0.3-4-1.4C55,136.2,54.6,135.9,54.3,135.5
	z M118.2,126.4c2.4-0.3,4.7,0,7.1,0.7v-1.6c0-0.6-0.3-0.9-0.9-0.9c-2.1,0-4.4-0.1-6.6-0.1h-3.4c0.9,5.3,0.7,10.1,0,15.2h0.1
	c3.3,0.1,6.4,0.1,9.8,0.1c0.1,0,0.4-0.1,0.4-0.3c0.3-0.9,0.7-1.7,1.1-2.7c-2.7,0.7-5.3,0.7-7.8,0.4v-4.6c0-0.4,0.3-0.6,0.6-0.6
	c0.7,0,1.6-0.1,2.1,0c1,0.1,2.1,0.3,3.1,0.3c-0.3-0.7-0.4-1.3-0.7-1.9c-0.1-0.4-0.3-0.6-0.9-0.4c-1.3,0.1-2.6,0.3-3.8,0.3
	c-0.6,0-0.7-0.3-0.7-0.7C118.2,128.8,118.2,127.5,118.2,126.4L118.2,126.4z M51.3,76.5c-0.3-0.3-0.4-0.4-0.6-0.7
	c-2.7-3.1-5.3-6.3-7.8-9.3c-0.3-0.3-0.4-0.4-0.7-0.4c-0.9-0.1-1.6,0-2.6,0c0.3,0.3,0.3,0.6,0.6,0.9c0.7,0.9,1,1.7,0.9,2.7
	c-0.1,2.3-0.3,4.6-0.3,7c0,1.7,0.1,3.4-0.9,4.8v0.3h2.7c-0.3-0.9-0.6-2-0.6-2.8c-0.1-2.1,0-4.3,0-6.4v-1.3c0.1,0,0.1-0.1,0.3-0.1
	c3.4,4,6.8,7.8,10.3,11.8c0.3-1.4,0.7-2.6,1-4c-0.9-0.3-0.9-1.3-0.9-2.1c0-1.6-0.1-3.1,0-4.7c0.3-2-0.6-4.1,0.9-6.1h-2.4
	c0.3,0.7,0.6,1.3,0.6,1.9c0,2.6-0.1,5.1-0.1,7.7C51.4,75.8,51.3,76.1,51.3,76.5z M65.5,70.8c-1.3,1.3-2.3,1.3-3.8,1.1
	c-0.1,0-0.4-0.3-0.4-0.4v-3.7c0-0.4,0.3-0.6,0.7-0.6c1.1,0,2.3-0.1,3.4,0c0.9,0.1,1.9,0.4,2.7,0.7c0.3,0.1,0.4,0.3,0.7,0.4
	c0-0.9,0.1-1.6,0.1-2.3H57.3c0.1,0.3,0.3,0.4,0.3,0.6c0.6,0.6,0.7,1.4,0.7,2.3c-0.1,3.4-0.3,6.8-0.3,10.3c0,0.6-0.1,1.1-0.6,1.6
	c-0.3,0.3-0.7,0.7-1.3,1.1h16.1c-1.1-1.4-2.1-2.7-3.4-4.3c0,1-0.1,1.9-0.1,2.7c0,0.4-0.3,0.6-0.6,0.6c-2.1-0.1-4.3-0.1-6.4-0.3
	c-0.6,0-0.7-0.3-0.7-0.9c0.1-2.1,0.1-4.1,0.1-6.3c0-0.6,0.3-0.7,0.9-0.7c1.6,0,3.3,0,4.8,0.7C66.5,72.8,66.1,71.8,65.5,70.8z
	 M106.8,139.7c-0.1-0.3-0.3-0.4-0.4-0.7c-0.9-1-1.1-2.1-1-3.6c0.1-1.6,0.1-3.3,0.1-4.8v-4.3c2.1-0.1,4.1,0.3,6.1,1.1
	c-0.3-0.9-0.4-1.6-0.7-2.3c-0.1-0.6-0.4-0.9-1-0.9h-3.3c-2.7,0-5.3,0-8-0.1c-0.3,0-0.6,0-0.7,0.1c-0.6,0.9-1,1.7-1.6,2.6
	c0.3,0.1,0.6,0.1,0.7,0c1.4-0.6,2.7-0.9,4.3-0.7c0.6,0,0.9,0.3,0.9,0.9c0,2.1-0.1,4.4-0.1,6.6c0,1.9,0.1,3.8-0.9,5.7v0.3
	C103.3,139.7,105,139.7,106.8,139.7L106.8,139.7z M110.5,66.2c-0.3,1.3-3.4,5.3-4.8,6.1c-0.9-1.3-1.9-2.4-2.8-3.7
	c-0.6-0.7-1-1.6-0.9-2.6h-5.3c0.3,0.3,0.3,0.4,0.6,0.7l5.6,6.8c0.3,0.3,0.4,0.7,0.4,1c0,1.3,0,2.7-0.1,4c-0.1,1.1-0.3,2.1-0.4,3.4
	h4.4c-0.3-0.7-0.4-1.4-0.4-2.1c0-2,0-3.8,0.1-5.8c0-0.4,0.3-0.9,0.4-1.3c1.4-1.6,2.7-3.3,4.3-5c0.4-0.6,1-1.3,1.4-1.7
	C112.1,66.2,111.5,66.2,110.5,66.2z M71.7,124.1H66c0.4,0.4,0.9,0.7,1.3,0.9c0.3,0.3,0.7,0.4,0.9,0.9c1.3,1.6,2.4,3.3,3.6,4.8
	c0.3,0.3,0.3,0.7,0.3,1c-0.1,2.6,0.3,5-0.6,7.7h4.1c-0.1-0.9-0.3-1.6-0.3-2.3c0-1.7,0-3.4,0.1-5.1c0-0.3,0.1-0.7,0.3-1
	c1.9-2.1,3.3-4.8,5.8-6.6h-4c0.1,2.4-1.7,3.7-3,5.6C73.5,127.8,71.5,126.6,71.7,124.1L71.7,124.1z M128.6,111.8
	c-1.3-2.4-2.4-4.8-3.6-7.3c-0.3-0.6-0.6-1.3-0.9-2c0.6-0.1,1-0.3,1.4-0.3c2-0.3,3.6-1,4.8-2.7c0.9-1.1,1-2.3,0.4-3.7
	c-0.6-1.3-1.9-2-3-2.6c-2-0.9-4.1-0.9-6.3-0.9c-2.6,0-5.1-0.1-7.7-0.1h-3.7c0.3,0.3,0.6,0.6,0.7,0.9c0.3,0.7,0.9,1.3,0.9,2
	c0,4.1,0,8.4-0.1,12.5c-0.1,2,0.4,4.1-1.1,5.8v0.3h6.8c-0.4-0.3-0.9-0.6-1-0.9c-0.3-0.4-0.7-1-0.7-1.6v-7.7c0-0.4,0.1-0.7,0.7-0.7
	h2.7c0.6,0,0.9,0.3,1.1,0.7c1.3,2.6,2.7,5.3,4,7.7c0.3,0.9,0.6,1.6,0.9,2.7h5.4C129.9,113.4,129.1,112.8,128.6,111.8z M122.4,100.1
	c-2.1,1.6-4.4,1.3-6.8,1.1v-7.1h4.8c1,0,2.1,0.3,3.3,0.4c0.3,0.1,0.7,0.3,1,0.3c1,0.6,1.9,1.6,1.7,2.7c0,1.3-0.9,2.3-2,2.8
	C123.8,101,122.9,100.9,122.4,100.1z M149.1,114.1h7.3c-0.3-0.7-0.9-1.3-1.1-2c-2.7-6.4-5.7-12.8-8.4-19.4c-0.3-0.9-0.7-1.6-1-2.3
	c-0.1,0.3-0.3,0.3-0.3,0.3c-0.6,1.4-1.3,2.7-2.4,3.6c-0.1,0.1,0,0.4,0,0.7c0,0.3,0.1,0.9,0,1.1c-0.7,1.6-1.4,3-2.1,4.6
	c-0.4,1-1,2-1.6,3.1c-0.4-0.3-0.9-0.4-1.3-0.7c-1.4-0.9-1.4-0.9-2.1,0.6c-0.3,0.9-0.9,1.6-1.1,2.4c0.9,0.3,1.7,0.3,2.6,0.6
	c0.3,0.1,0.6,0.3,0.3,0.7c-1,2.1-1.6,4.4-3.6,5.8c-0.1,0.1-0.3,0.3-0.4,0.6h4.7c-1.3-0.9-0.9-1.9-0.3-2.8c0.4-0.9,0.9-1.9,1.3-2.7
	c0.3-0.4,0.4-0.6,0.9-0.3c0.9,0.4,1.6,0.9,2.1,1.6c0.6,0.4,1,0.9,1.6,1.6c1.1-1.6,2.1-3.4,4-4.4c0.3,0.3,0.3,0.6,0.6,0.9
	c0.6,1.1,1,2.3,1.6,3.4c0.3,0.6,0.3,1,0,1.6C149.9,112.8,149.6,113.4,149.1,114.1z M146.6,105.3c-1,1.3-2.1,2.4-3,3.7
	c-1-1.1-2.1-2.3-3.3-3.6c-0.1-0.1-0.1-0.3,0-0.3c0.9-2.3,2-4.6,3.1-7.1c0.3,0.4,0.4,0.7,0.6,0.9c0.9,1.9,1.7,3.8,2.6,5.7
	C146.7,104.8,146.7,105.1,146.6,105.3L146.6,105.3z M141.2,73.4c1.1-0.3,2.1-1,2.7-2.1c0.7-1.3,0.4-2.7-0.7-3.4
	c-0.9-0.7-2.1-1.1-3.3-1.3c-2.8-0.1-5.8-0.1-8.7-0.1h-1c0.1,0.3,0.1,0.3,0.3,0.4c0.4,0.6,0.6,1.3,0.4,2.1c-0.1,3.4-0.3,6.7-0.3,10.1
	c0,1-0.3,1.9-0.9,2.7c-0.1,0.1-0.3,0.3-0.3,0.6h5.1c-0.3-0.6-0.9-1.3-0.9-2c-0.1-2,0-4,0-6c0-0.4,0.3-0.7,0.6-0.6c0.6,0,1,0.1,1.6,0
	c0.6,0,0.9,0.1,1,0.6c0.6,1.3,1.1,2.6,1.7,4c0.4,1.1,0.9,2.4,1.3,3.6c0.1,0.3,0.3,0.4,0.4,0.4h3.4c-1.6-2.8-2.8-5.7-4.3-8.7
	C140.3,73.5,140.7,73.5,141.2,73.4L141.2,73.4z M133.6,73.2v-4.6c0-0.1,0.3-0.4,0.4-0.4c1.6,0,3.1,0,4.6,0.3c1.3,0.1,2,0.9,2.1,2
	c0.1,1-0.6,2.1-1.9,2.4C137.3,73.4,135.5,73.2,133.6,73.2z M127.9,70.9c-1-2.8-3.3-4.6-6.3-5.1c-2.8-0.4-5.3,0.6-7.1,2.7
	c-1.6,1.9-2,4-1.7,6.4c0.3,3.1,3,6.3,6,7c3.6,1,9.5-1.9,9.5-8C128.2,73.1,128.2,72.1,127.9,70.9L127.9,70.9z M124.6,73.6
	c0,2.1-0.1,4-1.1,5.7c-0.9,1.3-1.9,2.1-3.4,2c-1.6,0-2.7-0.9-3.4-2.1c-1.1-2.3-1.1-4.7-0.6-7.1c0.3-0.7,0.4-1.6,0.9-2.1
	c1.6-2.3,5-2.1,6.7,0.1C124.5,71.2,124.8,72.5,124.6,73.6z"/>
</svg>
