<svg xmlns="http://www.w3.org/2000/svg" width="200" height="200" viewBox="0 0 200 200">
    <circle class="color-black color-main" fill="#474548" cx="100" cy="100" r="100"/>
    <path class="color-stroke-white" fill="none" stroke="#fff" stroke-miterlimit="10" stroke-width="1.4245" d="M99.857552 156.26781c-23.789174 0-46.153848-5.69801-63.105416-15.95442-17.378918-10.68376-26.923077-25.07122-26.923077-40.455838 0-15.384616 9.544159-29.62963 27.065527-40.313392C53.846154 49.28775 76.210828 43.589744 100 43.589744c23.78918 0 46.15385 5.698006 63.10542 15.954416 17.37891 10.683762 26.92307 24.928776 26.92307 40.313392 0 15.384618-9.54416 29.629628-27.06552 40.313388-16.80912 10.39886-39.17379 16.09687-63.105418 16.09687z"/>
    <path class="color-white" fill="#fff" d="M44.301995 83.903136c-.569801.14245-.997152.2849-1.566952.2849-.427351 0-.854701-.2849-1.424502-.2849-1.566951-.14245-2.991453-.427351-4.415955-.2849-6.125356.8547-9.97151 4.558404-12.250712 9.97151-1.994303 4.558405-1.566952 9.116804-.142451 13.817664 2.564103 7.83476 9.40171 13.24786 17.521369 13.24786 3.988604 0 7.834758-.99715 11.253562-3.4188.2849-.2849.5698-.42735.854701-.71225-1.424502.5698-2.706553 1.28205-3.988604 1.7094-4.131055 1.28205-8.262109 1.56695-12.250714-.42735-2.706552-1.4245-4.843305-2.99145-6.410256-5.69801-2.136753-3.9886-3.418804-8.40455-2.991453-13.105408.2849-3.418804.997151-6.695157 2.849003-9.686611 2.706552-4.558404 7.122507-5.413105 11.396012-2.991453.712251.427351 1.424501.997151 1.994302 1.566952-.14245-1.282051-.14245-2.706553-.42735-3.988604zm18.803419 8.119658v.284901c.2849.2849.427351.2849.712251.5698.854701.569801 1.139601 1.282052 1.139601 2.279203-.14245 4.273504-.14245 8.547012-.2849 12.820512 0 1.85185.14245 3.56125-.997151 5.27066v.14245h3.276353c-.2849-.71225-.5698-1.42451-.5698-1.99431 0-3.9886.14245-8.2621.14245-12.250708 0-.427351.14245-.854701.14245-1.566952 4.985755 5.55556 9.54416 11.25356 14.387465 16.66667.5698-1.56695.997151-3.13391 1.566952-4.55841.2849-.42735.2849-.71225-.284901-.8547-.2849-.14245-.712251-.42735-.712251-.8547-.2849-.71225-.42735-1.56695-.42735-2.13675 0-3.13391.14245-6.410258.14245-9.544161 0-1.424502.2849-2.564103 1.282052-3.561254.14245-.14245.14245-.2849.14245-.2849h-3.846154c0 .14245-.142451.14245-.142451.2849.142451.14245.284901.14245.427351.2849.854701.569801.997151 1.282052.997151 2.279203-.14245 2.706553 0 5.555552-.14245 8.262112 0 .8547-.14245 1.7094-.14245 2.70655-.284901-.14245-.569801-.2849-.854701-.5698-3.276354-3.84616-6.410257-7.549859-9.54416-11.396013-.2849-.284901-.569801-.854701-.427351-1.282052.142451-.42735-.14245-.71225-.5698-.71225h-2.421653c-.997151-.284901-1.994302-.284901-2.991453-.284901z"/>
    <path class="color-white" fill="#fff" d="M60.683762 107.54986c-.997151.8547-1.994302 1.9943-2.991453 2.5641-.854701.5698-1.994303 1.1396-2.991454 1.1396-2.706552.14245-5.270655 0-7.834758.14245-.712251 0-.854701-.2849-.854701-.8547.14245-2.70655.14245-5.698.14245-8.40456 0-.5698.284901-.71225.712251-.71225 1.424502.14245 2.706553.14245 4.131055.14245 1.424501 0 2.564102.2849 3.703703 1.1396.284901.14246.284901.28491.569801.28491l.14245-.14245c-.5698-1.56696-1.139601-2.991458-1.851852-4.700859-.2849.42735-.42735.854701-.712251.997151-.2849.2849-.5698.5698-.8547.5698h-5.413106c-.427351 0-.427351-.2849-.427351-.5698v-3.988604c0-.569801 0-1.139602.142451-1.851852h5.413105c1.139601 0 2.279203 0 3.418804.14245 1.566951.2849 2.706553.997151 3.988604 2.136752-.2849-1.139601-.42735-2.279202-.854701-3.418804 0-.14245-.42735-.2849-.712251-.2849H40.17094c.427351.427351.854701.712251 1.139601.997151.569801.569801.854701 1.139601.854701 1.994302 0 4.558405-.14245 9.259263 0 13.817663 0 1.4245-.2849 2.70655-1.139601 3.84616-.14245.14245-.14245.2849-.2849.42735.2849 0 .2849.14245.42735.14245 5.413106.14245 10.826212.14245 16.239317.14245.284901 0 .569801-.2849.712251-.5698.712251-1.42451 1.424501-2.70656 1.994302-4.13106.2849-.2849.42735-.5698.569801-.99715zm81.908838 19.51567c.14245 0 .2849 0 .2849.14245-.2849 4.2735.2849 8.54701-.42736 12.82051h3.70371c-.2849-.99715-.5698-1.9943-.5698-2.849v-8.11966c0-1.1396.14245-2.13675.5698-3.27635.14245-.2849.2849-.5698.2849-.8547h-5.27066c.2849.8547-2.70655 6.98005-3.84615 7.6923-.71225-1.4245-1.4245-2.70655-1.9943-3.9886-.42735-1.1396-1.56695-2.13675-.8547-3.7037h-4.70086c.42735 5.1282.2849 10.11396-.14245 15.24216h3.1339c-.2849-.42735-.42735-.71225-.5698-.99715-.2849-.42735-.5698-.99715-.5698-1.56695 0-2.5641 0-5.12821.14245-7.69231 0-.14245.14245-.2849.14245-.42735h.2849c1.56696 3.4188 3.13391 6.98006 4.70086 10.54131.5698-.71225.99715-1.28205 1.56695-1.7094.8547-.8547.8547-1.56695.2849-2.5641-.2849-.42735-.2849-.8547 0-1.56695.8547-1.42451 1.56695-2.70656 2.13675-3.98861.5698-1.1396 1.1396-1.9943 1.70941-3.1339zm-35.04274-30.626781s.14245 0 0 0c-.42735-1.282051-.8547-2.564103-1.56695-3.703704-.14245-.2849-.42735-.2849-.71225-.42735H88.17664c-.42735 0-.854701.2849-.854701.71225-.2849.854701-.8547 1.709402-1.282051 2.706553-.14245.2849-.2849.427351-.2849.712251.2849 0 .2849-.14245.42735-.14245 2.136752-1.709402 4.558405-2.421653 7.407408-2.279203.712251 0 .854701.284901.854701.854701-.14245 4.985755-.2849 9.971513-.2849 14.814813 0 1.28205-.142451 2.5641-.854701 3.56126-.14245.14245-.14245.2849-.14245.42735h7.122504c-1.139598-.99715-1.709399-2.13676-1.709399-3.56126 0-5.1282.14245-10.11396.14245-15.242163 0-.5698.14245-.854701.854701-.854701.427348.142451.854698 0 1.282048 0 1.7094.142451 3.27636.142451 4.70086.997151.71225.427351 1.28205.997151 1.9943 1.424502zm58.68946 15.954421v-6.26781c0-2.849.14245-5.84046.14245-8.83191 0-1.566952.14245-2.991453 1.56695-3.988604v-.284901h-7.69231c.42735.427351.8547.854701 1.28205 1.139602.28491.2849.56981.8547.56981 1.424501 0 5.270652 0 10.398862-.14245 15.669512 0 .5698-.2849 1.13961-.71226 1.56696-.2849.42735-.71225.8547-1.1396 1.28205.2849.14245.42735.14245.5698.14245 2.42166 0 4.98576 0 7.40741.14245 3.1339 0 6.26781 0 9.40171.14245.42735 0 .71225-.14245.8547-.42735.42735-.8547.8547-1.56695 1.56695-2.56411.2849-.42735.42735-.8547.71225-1.4245 0-.14245-.14245-.14245-.14245-.2849-4.70085 3.13391-9.54416 2.99146-14.24501 2.56411zM87.74929 74.786326h-.2849c-.712251-1.851852-1.282052-3.703704-1.994303-5.413105-.2849-.997151-.71225-1.994302-.2849-2.991453 0 0 0-.142451-.14245-.284901h-3.703704c.427351 1.282052.14245 2.279203-.2849 3.418804-.2849.854701-.569801 1.566951-.854701 2.279202-.42735.997151-.854701 2.136752-1.566952 3.418804-.14245-.284901-.2849-.284901-.2849-.427351-.712251-2.136752-1.566952-4.415954-2.136752-6.552706-.14245-.427351 0-.854701 0-1.424502 0-.2849.14245-.2849.2849-.712251h-4.843305c.2849.284901.427351.569801.569801.854701.2849.427351.5698.997151.854701 1.566952 1.424501 4.273504 2.706552 8.404559 3.988604 12.678063.14245.2849.2849.854701.42735 1.139601.854701-1.139601 1.566952-2.136752 2.136752-3.276353.142451-.14245 0-.284901-.14245-.427351-.42735-.854701-.42735-1.709401 0-2.706552.569801-1.282052.997151-2.564103 1.566952-3.703704.2849-.854701.712251-1.709402 1.139601-2.706553 1.566952 4.558405 2.991453 8.831909 4.415955 13.105414.854701-1.282052 1.709401-2.421653 2.564102-3.703704l-.2849-.284901c-.712251-.854701-.854701-1.566951-.42735-2.564102.8547-2.421653 1.851852-4.985756 2.706552-7.549858.284901-.854701.712251-1.709402 1.566952-2.136752v-.142451h-2.136752c-.427351 2.991454-1.994302 5.698006-2.849003 8.547009zm65.38462-.5698c.2849.2849.42735.5698.5698.854701.8547 1.566951 1.85185 3.276353 2.70655 4.985755.2849.5698.2849 1.282051.2849 1.851852 0 .5698.14245.712251.5698.712251h4.41596c-.56981-.712251-1.13961-1.282052-1.56696-1.851852-1.4245-2.564103-2.5641-5.270656-3.9886-7.692308-.5698-.997151-.71225-1.709402.2849-2.706553.8547-.854701 1.7094-1.994302 2.70655-2.991453.2849-.284901.42735-.284901.8547-.712251h-2.70655c-.2849.712251-.42735 1.282051-.8547 1.709402-1.28205 1.566951-2.70655 3.276353-3.9886 4.843305-.71226.71225-1.28206 1.424501-2.13676 2.279202v-5.270655c0-1.139602-.14245-2.421653.99715-3.418804h-4.5584c.14245.2849.14245.42735.2849.569801.42735.71225.5698 1.424501.5698 2.136752-.14245 2.991453-.14245 5.982906-.14245 9.116809 0 1.282052 0 2.706553-.8547 3.846154v.284901h4.5584c-.2849-.569801-.71225-1.139602-.8547-1.709402-.42735-.997151-.5698-2.136752-.14245-3.133903.8547-1.424502 1.99431-2.564103 2.99146-3.703704zM94.301997 124.07408h-1.994302c-1.566952-.14245-2.991454-.2849-4.558405-.2849-2.136752.14245-3.418804 1.4245-3.988604 3.27635-.427351 1.9943.14245 3.9886 1.709401 4.98575.854701.5698 1.994303.8547 2.849003 1.28206.854701.2849 1.851852.5698 2.706553.8547 1.424502.71225 1.566952 2.13675.284901 3.1339-.284901.2849-.712251.42735-.997151.42735-1.851852.2849-3.418804 0-4.985756-.99715-.2849-.2849-.71225-.5698-1.139601-.8547v3.27635c.997151.2849 2.136752.2849 3.133903.5698 1.851852.2849 3.561254.2849 5.270656-.42735 1.851852-.8547 2.849003-2.2792 2.849003-4.2735 0-1.85185-.854701-3.27636-2.706553-3.98861-.712251-.2849-1.566952-.5698-2.279202-.8547-.712251-.2849-1.566952-.5698-2.279203-.99715-.854701-.5698-1.282051-1.4245-.997151-2.13675.284901-.99715 1.139601-1.7094 2.136752-1.7094.712251 0 1.566952.2849 2.136753.5698.854701.42735 1.851852.99715 2.706553 1.56695.14245-1.28205.14245-2.42165.14245-3.4188zm-40.028492 11.39601c0 .5698.14245 1.1396.14245 1.85185.14245.8547.2849 1.56695 1.566952 1.85185 2.136752.5698 3.988604.99715 6.267806.2849 2.706553-.8547 4.273505-3.9886 3.276354-6.41025-.712251-1.70941-2.136753-2.42166-3.846154-2.99146-.854701-.2849-1.851852-.71225-2.706553-1.1396-.854701-.2849-1.139601-.99715-.997151-1.85185.14245-.8547.712251-1.4245 1.566951-1.56695.854701-.2849 1.851852-.2849 2.706553.2849.854701.42735 1.566952.99715 2.706553 1.56695-.14245-.99715-.14245-1.9943-.2849-2.70655-1.424502-.2849-2.564103-.2849-3.846154-.5698-2.706553-.42735-4.558405.5698-5.698006 2.849-.997151 2.13675-.569801 3.7037 1.282051 4.98575.854701.5698 2.136752 1.13961 3.133903 1.56696.854701.42735 1.709402.8547 2.421653 1.4245.854701.71225.854701 1.4245.14245 2.13675-.5698.71225-1.282051 1.1396-2.136752 1.1396-1.566952.14245-2.849003-.2849-3.988604-1.4245-.997151-.5698-1.424502-.8547-1.709402-1.28205zm63.960115-9.11681c2.42165-.2849 4.70086 0 7.12251.71225v-1.56695c0-.5698-.2849-.8547-.8547-.8547-2.13675 0-4.41596-.14245-6.55271-.14245h-3.4188c.8547 5.27065.71225 10.11396 0 15.24216h.14245c3.27635.14245 6.41025.14245 9.82906.14245.14245 0 .42735-.14245.42735-.2849.2849-.8547.71225-1.7094 1.1396-2.70655-2.70655.71225-5.27066.71225-7.83476.42735v-4.55841c0-.42735.2849-.5698.5698-.5698.71225 0 1.56695-.14245 2.13675 0 .99716.14245 2.13676.2849 3.13391.2849-.2849-.71225-.42735-1.28205-.71225-1.85185-.14245-.42735-.2849-.5698-.8547-.42735-1.28206.14245-2.56411.2849-3.84616.2849-.5698 0-.71225-.2849-.71225-.71225.2849-.99715.2849-2.2792.2849-3.4188zM51.282052 76.495728c-.2849-.2849-.427351-.42735-.569801-.712251-2.706553-3.133903-5.270655-6.267806-7.834758-9.259259-.2849-.284901-.42735-.427351-.712251-.427351-.854701-.14245-1.566951 0-2.564102 0 .2849.284901.2849.569801.5698.854701.712251.854701.997151 1.709402.854701 2.706553-.14245 2.279202-.2849 4.558405-.2849 6.980057 0 1.709402.14245 3.418804-.854701 4.843305v.284901h2.706553c-.284901-.854701-.569801-1.994302-.569801-2.849003-.14245-2.136753 0-4.273505 0-6.410257v-1.282051c.14245 0 .14245-.142451.2849-.142451 3.418804 3.988605 6.837608 7.834759 10.256411 11.823363.2849-1.424502.712251-2.564103.997151-3.988604-.854701-.284901-.854701-1.282052-.854701-2.136753 0-1.566951-.14245-3.133903 0-4.700854.284901-1.994303-.5698-4.131055.854701-6.125357h-2.421652c.2849.712251.5698 1.282051.5698 1.851852 0 2.564103-.14245 5.128205-.14245 7.692308-.14245.2849-.2849.569801-.2849.997151zm14.245015-5.698006c-1.282052 1.282052-2.279203 1.282052-3.846154 1.139601-.14245 0-.427351-.2849-.427351-.42735v-3.703704c0-.42735.284901-.569801.712251-.569801 1.139601 0 2.279202-.14245 3.418804 0 .8547.142451 1.851851.427351 2.706552.712251.284901.14245.427351.284901.712251.427351 0-.854701.14245-1.566952.14245-2.279203H57.264958c.14245.284901.2849.427351.2849.569801.569801.5698.712251 1.424501.712251 2.279202-.14245 3.418804-.2849 6.837607-.2849 10.256411 0 .569801-.14245 1.139601-.569801 1.566952-.2849.2849-.712251.71225-1.282051 1.139601h16.096867c-1.139602-1.424502-2.136753-2.706553-3.418804-4.273505 0 .997151-.14245 1.851852-.14245 2.706553 0 .427351-.2849.569801-.569801.569801-2.136752-.14245-4.273504-.14245-6.410256-.284901-.569801 0-.712251-.2849-.712251-.8547.14245-2.136753.14245-4.131055.14245-6.267807 0-.569801.2849-.712251.854701-.712251 1.566952 0 3.276353 0 4.843305.712251-.2849-.712251-.712251-1.709402-1.282051-2.706553zm41.310543 68.945868c-.14245-.2849-.2849-.42735-.42735-.71225-.8547-.99715-1.1396-2.13675-.99715-3.56125.14245-1.56695.14245-3.27636.14245-4.84331v-4.2735c2.13675-.14245 4.13105.2849 6.12535 1.1396-.2849-.8547-.42735-1.56695-.71225-2.2792-.14245-.5698-.42735-.8547-.99715-.8547h-3.27635c-2.70655 0-5.27066 0-7.977209-.14245-.2849 0-.5698 0-.71225.14245-.569801.8547-.997151 1.7094-1.566952 2.5641.2849.14245.569801.14245.712251 0 1.424501-.5698 2.706552-.8547 4.2735-.71225.5698 0 .8547.2849.8547.8547 0 2.13675-.14245 4.41595-.14245 6.55271 0 1.85185.14245 3.84615-.8547 5.698v.2849c1.99431.14245 3.70371.14245 5.55556.14245zm3.7037-73.504273c-.2849 1.282052-3.4188 5.270656-4.8433 6.125357-.8547-1.282052-1.85185-2.421653-2.849-3.703704-.56981-.712251-.99716-1.566952-.85471-2.564103h-5.270651c.284901.284901.284901.427351.569801.712251l5.55556 6.837607c.2849.2849.42735.712251.42735.997151 0 1.282052 0 2.706553-.14245 3.988604-.14245 1.139602-.2849 2.136753-.42736 3.418804h4.41596c-.2849-.712251-.42735-1.424502-.42735-2.136752 0-1.994302 0-3.846154.14245-5.840456 0-.427351.2849-.854701.42735-1.282052 1.4245-1.566951 2.70655-3.276353 4.2735-4.985755.42735-.569801.99716-1.282051 1.42451-1.709402-.85471.14245-1.42451.14245-2.42166.14245zM71.652423 124.07408h-5.698006c.427351.42735.854701.71225 1.282051.8547.284901.2849.712251.42735.854701.8547 1.282052 1.56695 2.421653 3.27635 3.561254 4.8433.2849.2849.2849.71225.2849.99715-.14245 2.56411.284901 4.98576-.5698 7.69231h4.131054c-.14245-.8547-.2849-1.56695-.2849-2.2792 0-1.7094 0-3.4188.14245-5.12821 0-.2849.14245-.71225.2849-.99715 1.851852-2.13675 3.276354-4.8433 5.840456-6.5527h-3.988604c.14245 2.42165-1.709402 3.7037-2.991453 5.55555-.997151-2.13675-2.991453-3.27635-2.849003-5.84045zm56.980057-12.25072c-1.28205-2.42165-2.42165-4.8433-3.56125-7.26495-.2849-.5698-.5698-1.28205-.8547-1.99431.5698-.14245.99715-.2849 1.4245-.2849 1.9943-.2849 3.56125-.99715 4.8433-2.706548.8547-1.139601.99715-2.279202.42735-3.703704-.5698-1.282051-1.85185-1.994302-2.99145-2.564102-1.9943-.854701-4.13105-.854701-6.26781-.854701-2.5641 0-5.1282-.14245-7.6923-.14245h-3.70371c.2849.2849.5698.5698.71225.854701.2849.71225.8547 1.282051.8547 1.994302 0 4.131054 0 8.404562-.14245 12.535612-.14245 1.9943.42735 4.13105-1.1396 5.84046v.2849h6.83761c-.42735-.2849-.8547-.5698-.99715-.8547-.2849-.42735-.71225-.99716-.71225-1.56696v-7.6923c0-.42735.14245-.71225.71225-.71225h2.70655c.5698 0 .8547.2849 1.1396.71225 1.28205 2.5641 2.70656 5.27065 3.98861 7.6923.2849.8547.5698 1.56696.8547 2.70656h5.4131c-.5698-.71225-1.4245-1.28205-1.85185-2.27921zm-6.2678-11.68091c-2.13676 1.56695-4.41596 1.28205-6.83761 1.1396v-7.122503h4.8433c.99715 0 2.13676.2849 3.27636.42735.2849.14245.71225.2849.99715.2849.99715.569801 1.85185 1.566952 1.7094 2.706553 0 1.282051-.8547 2.279202-1.9943 2.849-.5698.5698-1.4245.42735-1.9943-.2849zm26.78062 13.96012h7.26496c-.2849-.71225-.8547-1.28205-1.1396-1.99431-2.70655-6.41025-5.69801-12.820508-8.40456-19.373215-.2849-.854701-.71225-1.566952-.99715-2.279202-.14245.2849-.2849.2849-.2849.2849-.5698 1.424501-1.28205 2.706553-2.42165 3.561254-.14245.14245 0 .42735 0 .71225 0 .284901.14245.854701 0 1.139602-.71226 1.566951-1.42451 2.991453-2.13676 4.558401-.42735.99715-.99715 1.9943-1.56695 3.13391-.42735-.2849-.8547-.42735-1.28205-.71225-1.4245-.85471-1.4245-.85471-2.13675.5698-.2849.8547-.8547 1.56695-1.1396 2.42165.8547.2849 1.7094.2849 2.5641.5698.2849.14245.5698.2849.2849.71225-.99715 2.13675-1.56695 4.41595-3.56125 5.84046-.14245.14245-.2849.2849-.42735.5698h4.70085c-1.28205-.8547-.8547-1.85186-.2849-2.84901.42735-.8547.8547-1.85185 1.28205-2.70655.2849-.42735.42735-.5698.8547-.2849.8547.42735 1.56695.8547 2.13675 1.56695.56981.42735.99716.8547 1.56696 1.56695 1.1396-1.56695 2.13675-3.4188 3.9886-4.41595.2849.2849.2849.5698.5698.8547.5698 1.1396.99715 2.2792 1.56695 3.4188.2849.5698.2849.99715 0 1.56696-.2849.2849-.5698.8547-.99715 1.56695zm-2.5641-8.83191c-.99715 1.28205-2.13675 2.42165-2.99145 3.7037-.99715-1.1396-2.13676-2.2792-3.27636-3.56125-.14245-.14245-.14245-.2849 0-.2849.8547-2.2792 1.9943-4.55841 3.13391-7.122509.2849.42735.42735.71225.5698.8547.8547 1.851849 1.7094 3.846149 2.5641 5.698009.14245.2849.14245.5698 0 .71225zm-5.41311-31.908835c1.1396-.2849 2.13676-.997151 2.70656-2.136752.71225-1.282052.42735-2.706553-.71225-3.418804-.85471-.712251-2.13676-1.139601-3.27636-1.282051-2.849-.14245-5.84045-.14245-8.68946-.14245h-.99715c.14245.2849.14245.2849.2849.42735.42735.569801.5698 1.282051.42735 2.136752-.14245 3.418804-.2849 6.695157-.2849 10.113961 0 .997151-.2849 1.851852-.8547 2.706553-.14245.14245-.2849.2849-.2849.5698h5.12821c-.2849-.5698-.8547-1.282051-.8547-1.994302-.14245-1.994302 0-3.988604 0-5.982906 0-.427351.2849-.712251.5698-.569801.5698 0 .99715.14245 1.56695 0 .5698 0 .8547.14245.99715.569801.5698 1.282051 1.1396 2.564103 1.7094 3.988604.42735 1.139601.8547 2.421653 1.28205 3.561254.14245.2849.2849.42735.42735.42735h3.41881c-1.56696-2.849003-2.84901-5.698006-4.27351-8.689459.8547-.14245 1.28205-.14245 1.7094-.2849zm-7.54985-.14245V68.66097c0-.14245.2849-.42735.42735-.42735 1.56695 0 3.1339 0 4.5584.2849 1.28205.14245 1.9943.854701 2.13675 1.994302.14245.997151-.5698 2.136752-1.85185 2.421652-1.56695.427351-3.4188.284901-5.27065.284901zm-5.69801-2.279203c-.99715-2.849003-3.27635-4.558404-6.26781-5.128205-2.849-.42735-5.27065.569801-7.1225 2.706553-1.56695 1.851852-1.9943 3.988604-1.7094 6.410256.2849 3.133904 2.99145 6.267807 5.9829 6.980058 3.56126.997151 9.54416-1.851852 9.54416-7.977209-.14245-.8547-.14245-1.851851-.42735-2.991453zm-3.27635 2.706553c0 2.136752-.14245 3.988604-1.1396 5.698006-.8547 1.282051-1.85186 2.136752-3.41881 1.994302-1.56695 0-2.70655-.854701-3.4188-2.136752-1.1396-2.279202-1.1396-4.700855-.5698-7.122507.2849-.712251.42735-1.566952.8547-2.136753 1.56695-2.279202 4.98576-2.136752 6.69516.14245.8547 1.139602 1.1396 2.421653.99715 3.561254z"/>
</svg>