<?xml version="1.0" encoding="utf-8"?>
<!-- Generator: Adobe Illustrator 24.1.2, SVG Export Plug-In . SVG Version: 6.00 Build 0)  -->
<svg version="1.1" id="Layer_1" xmlns="http://www.w3.org/2000/svg" xmlns:xlink="http://www.w3.org/1999/xlink" x="0px" y="0px"
	 viewBox="0 0 200 200" style="enable-background:new 0 0 200 200;" xml:space="preserve">
<style type="text/css">
	.st0{fill:#FF0000;}
	.st1{fill:#FFFFFF;}
</style>
<circle class="st0" cx="100" cy="100" r="100"/>
<path class="st1" d="M59.6,184.6C48.4,149.7,18.7,56.3,18.9,55.5c14.7-0.3,16.2,0.2,24.4-0.1c-0.6-4.4-3.9-13.5-6.8-25.9
	c20.8,0,119.7,0,126.9,0.1c-2.1,8.6-3.8,16.2-6.4,24.9c10.3,0.6,13.5,0.2,23.7,0.3c-25.5,81.5-30.6,98.1-40.8,129.7
	C105.2,184.5,94.5,184.6,59.6,184.6z M137.2,181.4c18.3-56.1,23.1-70.2,39.5-123.7h-24.4c2.7-10.1,4.3-14.3,7.1-25.6
	c-31.1-0.2-96.3,0.1-118.8,0.2c2.5,11.1,3.3,13.4,7.1,26.3c-10.1,0.1-13.6-0.1-24.5,0c12.2,40.3,27.4,86.4,39.4,122.9
	C95.9,181.7,102.5,181.4,137.2,181.4z M66.6,177.4C53.1,137.5,48.7,122.3,33.3,74c-1.9-5.9-3.2-10.9-3.1-11.2c9.1,0,13.9-0.1,23.7,0
	c-2.8-9.9-3.9-12.9-7.5-26.4c41.6-0.6,63.4-0.3,105.6,0c-2.3,10.4-2.8,12.6-6.2,24.9C157,61.9,160,61.7,170,62
	c-14.5,48.3-15.3,50.4-36.9,115.4C100.7,177.6,95.5,177.5,66.6,177.4L66.6,177.4z M88.5,145.2c-3.9-3.9-5.9-6-9.3-9.6
	c-0.2,13.3,0.2,14.9,0.1,28.7c3.4,0.4,6,0.1,9.2-0.1C88.3,157.8,88.4,151.5,88.5,145.2z M115.6,120.9c7.1,10.3,8.2,12.3,15.5,22.9
	c4.1-0.1,5.9,0.2,10.3-0.1c-7.4-12.7-9.5-16.1-15.7-27.5c1.2-0.9,1.3-1.3,3.1-2c4.8-1.7,11.4-6.5,14.6-10.6
	c6.1-7.6,5.4-17.4-1.3-21.4c-2-1.2-3.4-1.9-19.1-1.4l-17.1,0.4c-0.1,11.1,0,12,0,21.5c0.7,0.4,7.3-4.2,9.5-6.7
	c-0.2-2.1-0.4-3.2-0.1-5.5h21.4l0.8,1.7c1.8,3.7-1.2,7.5-8.6,11.5c-2.4,1.2-6.5,4.7-9.8,6.8c-6.9,4.5-8.4,4.1-13.1,6.2
	c-0.1,15-0.9,17-0.4,27.2c3.9,0.1,5.7,0.3,9.6,0.2C115.4,134,114.7,131.6,115.6,120.9L115.6,120.9z M66.8,119.6
	c10.1,10.8,12.5,13.9,23.2,24.3c4.4,0,5.7,0,10.6-0.1c-7.9-9.5-14.6-17.2-23.5-26.9c-0.2-3.1,0.1-5.4,0-10.3c-0.2,0-2.1,0.9-3.7,1.6
	c-1.8,0.7-3.7,0.9-4.7,0.7l-1.7-0.4V90.6l10.2-0.1c11.7-0.1,12.5,0,13.4,0.8c0.3,0.3,0.6,5.7,0.4,13.7c-0.1,8.8,0,13.3,0.4,13.5
	c0.9,0.6,11.4-3,17.1-5.9c2.5-1.3,6.8-3.8,9.4-5.5c5.7-3.8,16.1-13.6,15.6-14.9c-3.7-0.1-6.1,0-10.4-0.2l-6.2,4.3
	c-3.8,2.5-8,6.2-10,7.2c-4.3,2.1-13.5,5.3-14,4.9c-0.1-0.1,0.8-1.4,2.2-2.8c3.8-3.8,5.5-7.9,5.5-12.9c0-4.9-1-7.6-5.3-10.8
	c-14.7-0.4-21.4-0.2-38.1-0.1c-0.3,19.5-0.1,50.4-0.1,61.2c3.5,0.2,6.2,0.2,9.4,0.1C66.9,133.2,67.3,129,66.8,119.6L66.8,119.6z
	 M88.2,93c-3.8,0-5.9,0-8.9,0.1c-0.1,7.9-0.1,14.6-0.2,22.9c4.8,5,5.2,5.8,8.9,9.3C88.3,112.2,88.3,104.3,88.2,93z M88.5,66.8
	c12.6-0.7,20,0.2,25.8,1.2c5.5,0.9,9.2,3.2,11.3,7.2l0.6,3.1h9.6l-0.1-2.1c0.6-5.3-4.7-12.5-11.1-15.4c-2-0.9-5.4-1.9-7.8-2.3
	c-4.3-0.7-12.1-0.7-37.4-0.3c-0.1,8.2,0.3,13.5,0.1,21c4,0.2,5.8,0.2,9.2,0.2C88.8,75.4,88.5,70.8,88.5,66.8z"/>
</svg>
