<svg xmlns="http://www.w3.org/2000/svg" width="200" height="200" viewBox="0 0 200 200">
    <circle class="color-green color-main" fill="#637f2a" cx="100" cy="100" r="100"/>
    <path class="color-white" fill="#fff" d="M59.609766 184.630819C48.414112 149.713679 18.706831 56.268762 18.928527 55.492825c14.742793-.332544 16.183817.221697 24.386574-.110848-.55424-4.433922-3.879682-13.523463-6.761732-25.938446 20.839436 0 119.715908 0 126.921032.110848-2.106113 8.646149-3.768834 16.183817-6.429188 24.940814 10.30887.55424 13.523464.221696 23.721486.332544-25.495055 81.473326-30.594065 98.100536-40.792087 129.692234-34.806292 0-45.447706.110848-80.364846.110848zm77.593644-3.214594c18.28993-56.08912 23.056397-70.166824 39.46191-123.706438h-24.386573c2.660353-10.087174 4.323074-14.2994 7.094276-25.605903-31.148306-.221696-96.326967.110848-118.829124.221696 2.549506 11.084807 3.325442 13.412616 7.094276 26.270991-10.087173.110848-13.634311-.110848-24.497421 0 12.193286 40.348695 27.379471 86.350641 39.351062 122.930502 33.365267.221696 40.01615-.110848 74.711594-.110848zm-70.610216-3.99053c-13.523463-39.905303-17.846538-55.091488-33.254419-103.421243-1.884417-5.874947-3.214593-10.86311-3.103745-11.195654 9.08954 0 13.856007-.110848 23.721485 0-2.771202-9.865478-3.879682-12.858376-7.537668-26.38184 41.568023-.55424 63.405092-.332544 105.638204 0-2.32781 10.419719-2.771202 12.63668-6.207492 24.940815 11.195654.55424 14.188552.332544 24.164878.665088-14.521096 48.329756-15.297033 50.435869-36.912405 115.392834-32.367634.221696-37.577493.110848-66.508838 0zm21.947917-32.256787c-3.879683-3.879682-5.874948-5.985795-9.311238-9.643781-.221696 13.301767.221697 14.85364.110848 28.709648 3.43629.443392 5.985796.110848 9.20039-.110848-.221696-6.31834-.110848-12.63668 0-18.955019zm27.046927-24.275725c7.094276 10.30887 8.202757 12.304135 15.518729 22.945549 4.101378-.110848 5.874947.221696 10.30887-.110848-7.42682-12.747528-9.532934-16.07297-15.740425-27.49032 1.219328-.886785 1.330176-1.330177 3.103745-1.995265 4.766467-1.662721 11.41735-6.540036 14.631945-10.641414 6.096643-7.648517 5.431555-17.403146-1.330177-21.393676-1.995265-1.219329-3.43629-1.884417-19.065867-1.441025l-17.070601.443392c-.110849 11.084806 0 11.97159 0 21.504524.665088.443393 7.315972-4.212226 9.532933-6.650883-.221696-2.106114-.443392-3.214594-.110848-5.542404h21.393676l.775936 1.662721c1.77357 3.657986-1.219328 7.537669-8.646148 11.528199-2.438658 1.219329-6.540036 4.655618-9.75463 6.761732-6.87258 4.54477-8.424453 4.101378-13.080071 6.207491-.110848 14.964489-.886785 16.959754-.443393 27.157776 3.879683.110848 5.653252.332544 9.643782.221696.110848-10.087174-.55424-12.414983.332544-23.167245zm-48.773148-1.330177c10.087174 10.752262 12.525831 13.856008 23.167245 24.275726 4.433923 0 5.653252 0 10.641415-.110848-7.870213-9.532934-14.631945-17.18145-23.49979-26.93608-.221696-3.103746.110848-5.431555 0-10.30887-.221696 0-2.106113.886785-3.657986 1.551873-1.773569.665089-3.657986.886785-4.655619.665089l-1.66272-.443393V90.631661l10.198021-.110848c11.749895-.110848 12.525831 0 13.412616.775937.332544.332544.55424 5.653251.443392 13.74516-.110848 8.756997 0 13.301767.443392 13.523463.886785.55424 11.41735-2.992897 17.070602-5.874947 2.549506-1.330177 6.761732-3.768834 9.422085-5.542403 5.653252-3.768834 16.07297-13.634312 15.629577-14.85364-3.657986-.110849-6.096643 0-10.419718-.221697l-6.207491 4.323075c-3.768834 2.549505-7.98106 6.207491-9.976326 7.205124-4.323074 2.106113-13.523463 5.320707-13.966856 4.877315-.110848-.110849.775937-1.441025 2.216962-2.771202 3.768834-3.768834 5.542403-7.870212 5.542403-12.858375 0-4.877315-.997633-7.648517-5.320707-10.752262-14.742793-.443393-21.393676-.221697-38.131734-.110848-.332544 19.509259-.110848 50.435868-.110848 61.18813 3.547138.221696 6.207492.221696 9.422085.110848.110848-10.087173.443393-14.2994 0-23.721485zM88.208566 92.95947c-3.768834 0-5.874947 0-8.867845.110848-.110848 7.870212-.110848 14.631944-.221696 22.945549 4.766467 4.988163 5.20986 5.7641 8.867845 9.311237.332545-13.080071.332545-21.061132.221696-32.367634zm.332545-26.160143c12.636679-.665088 19.952651.221696 25.827598 1.219329 5.542403.886784 9.20039 3.214593 11.306503 7.205124l.55424 3.103745h9.643781l-.110848-2.106113c.55424-5.320707-4.655618-12.52583-11.084806-15.40788-1.995265-.886785-5.431555-1.884418-7.759364-2.32781-4.323075-.665088-12.08244-.665088-37.355797-.332544-.110848 8.202757.332544 13.523464.110848 20.950284 3.99053.221696 5.764099.221696 9.200389.221696-.110848-3.879682-.332544-8.5353-.332544-12.525831z"/>
</svg>