<svg xmlns="http://www.w3.org/2000/svg" viewBox="0 0 200 200"><circle cx="100" cy="100" r="100" fill="red"/><path d="M59.6 184.6C48.4 149.7 18.7 56.3 18.9 55.5c14.7-.3 16.2.2 24.4-.1-.6-4.4-3.9-13.5-6.8-25.9 20.8 0 119.7 0 126.9.1-2.1 8.6-3.8 16.2-6.4 24.9 10.3.6 13.5.2 23.7.3-25.5 81.5-30.6 98.1-40.8 129.7-34.7 0-45.4.1-80.3.1zm77.6-3.2c18.3-56.1 23.1-70.2 39.5-123.7h-24.4c2.7-10.1 4.3-14.3 7.1-25.6-31.1-.2-96.3.1-118.8.2 2.5 11.1 3.3 13.4 7.1 26.3-10.1.1-13.6-.1-24.5 0C35.4 98.9 50.6 145 62.6 181.5c33.3.2 39.9-.1 74.6-.1zm-70.6-4C53.1 137.5 48.7 122.3 33.3 74c-1.9-5.9-3.2-10.9-3.1-11.2 9.1 0 13.9-.1 23.7 0-2.8-9.9-3.9-12.9-7.5-26.4 41.6-.6 63.4-.3 105.6 0-2.3 10.4-2.8 12.6-6.2 24.9 11.2.6 14.2.4 24.2.7-14.5 48.3-15.3 50.4-36.9 115.4-32.4.2-37.6.1-66.5 0zm21.9-32.2c-3.9-3.9-5.9-6-9.3-9.6-.2 13.3.2 14.9.1 28.7 3.4.4 6 .1 9.2-.1-.2-6.4-.1-12.7 0-19zm27.1-24.3c7.1 10.3 8.2 12.3 15.5 22.9 4.1-.1 5.9.2 10.3-.1-7.4-12.7-9.5-16.1-15.7-27.5 1.2-.9 1.3-1.3 3.1-2 4.8-1.7 11.4-6.5 14.6-10.6 6.1-7.6 5.4-17.4-1.3-21.4-2-1.2-3.4-1.9-19.1-1.4l-17.1.4c-.1 11.1 0 12 0 21.5.7.4 7.3-4.2 9.5-6.7-.2-2.1-.4-3.2-.1-5.5h21.4l.8 1.7c1.8 3.7-1.2 7.5-8.6 11.5-2.4 1.2-6.5 4.7-9.8 6.8-6.9 4.5-8.4 4.1-13.1 6.2-.1 15-.9 17-.4 27.2 3.9.1 5.7.3 9.6.2.2-10.1-.5-12.5.4-23.2zm-48.8-1.3c10.1 10.8 12.5 13.9 23.2 24.3 4.4 0 5.7 0 10.6-.1-7.9-9.5-14.6-17.2-23.5-26.9-.2-3.1.1-5.4 0-10.3-.2 0-2.1.9-3.7 1.6-1.8.7-3.7.9-4.7.7l-1.7-.4V90.6l10.2-.1c11.7-.1 12.5 0 13.4.8.3.3.6 5.7.4 13.7-.1 8.8 0 13.3.4 13.5.9.6 11.4-3 17.1-5.9 2.5-1.3 6.8-3.8 9.4-5.5 5.7-3.8 16.1-13.6 15.6-14.9-3.7-.1-6.1 0-10.4-.2l-6.2 4.3c-3.8 2.5-8 6.2-10 7.2-4.3 2.1-13.5 5.3-14 4.9-.1-.1.8-1.4 2.2-2.8 3.8-3.8 5.5-7.9 5.5-12.9 0-4.9-1-7.6-5.3-10.8-14.7-.4-21.4-.2-38.1-.1-.3 19.5-.1 50.4-.1 61.2 3.5.2 6.2.2 9.4.1.4-9.9.8-14.1.3-23.5zM88.2 93c-3.8 0-5.9 0-8.9.1-.1 7.9-.1 14.6-.2 22.9 4.8 5 5.2 5.8 8.9 9.3.3-13.1.3-21 .2-32.3zm.3-26.2c12.6-.7 20 .2 25.8 1.2 5.5.9 9.2 3.2 11.3 7.2l.6 3.1h9.6l-.1-2.1c.6-5.3-4.7-12.5-11.1-15.4-2-.9-5.4-1.9-7.8-2.3-4.3-.7-12.1-.7-37.4-.3-.1 8.2.3 13.5.1 21 4 .2 5.8.2 9.2.2.1-4-.2-8.6-.2-12.6z" fill="#fff"/></svg>