<?xml version="1.0" encoding="UTF-8" standalone="no"?>
<!DOCTYPE svg PUBLIC "-//W3C//DTD SVG 1.1//EN" "http://www.w3.org/Graphics/SVG/1.1/DTD/svg11.dtd">
<svg width="100%" height="100%" viewBox="0 0 38 38" version="1.1" xmlns="http://www.w3.org/2000/svg" xmlns:xlink="http://www.w3.org/1999/xlink" xml:space="preserve" xmlns:serif="http://www.serif.com/" style="fill-rule:evenodd;clip-rule:evenodd;stroke-linejoin:round;stroke-miterlimit:2;">
    <path d="M36.72,18.72C36.72,8.845 28.595,0.72 18.72,0.72C8.845,0.72 0.72,8.845 0.72,18.72C0.72,28.595 8.845,36.72 18.72,36.72C28.595,36.72 36.72,28.595 36.72,18.72" style="fill:rgb(32,32,32);fill-rule:nonzero;"/>
    <path d="M13.29,29L13.14,28.82L13.14,27.95L13.29,27.77C14.348,27.721 15.402,27.591 16.44,27.38C16.615,27.32 16.756,27.189 16.83,27.02C17.044,26.076 17.135,25.108 17.1,24.14C17.19,21.32 17.22,18.8 17.22,16.64C17.22,13.76 17.19,12.17 17.13,11.87C17.13,11.69 17.04,11.6 16.86,11.6C16.713,11.609 16.569,11.65 16.44,11.72L12.44,13.55L12.23,13.43C12.177,12.833 12.077,12.241 11.93,11.66L12,11.4C15.103,10.545 18.157,9.523 21.15,8.34L21.54,8.58C21.39,9.93 21.3,11.79 21.24,14.13C21.18,16.47 21.15,19.29 21.15,22.62C21.105,24.042 21.165,25.466 21.33,26.88C21.37,27.086 21.488,27.269 21.66,27.39C22.639,27.643 23.648,27.764 24.66,27.75L24.81,27.93L24.81,28.8L24.66,28.98L22.83,28.98C21,28.98 19.74,28.92 19.11,28.92C17.33,28.9 15.39,28.927 13.29,29Z" style="fill:white;fill-rule:nonzero;"/>
</svg>
