<svg id="Layer_1" data-name="Layer 1" xmlns="http://www.w3.org/2000/svg" viewBox="0 0 37.44 37.44"><defs><style>.cls-1{fill:#fff;}.cls-2{fill:#231f20;}</style></defs><path class="cls-1" d="M36.72,18.72a18,18,0,1,0-18,18,18,18,0,0,0,18-18"/><path class="cls-2" d="M244.54,24.08V24l.91-.29a7.36,7.36,0,0,0,2.2,2.74,4.16,4.16,0,0,0,2.45.71A3.38,3.38,0,0,0,252.72,26a4.37,4.37,0,0,0,1-3,4.1,4.1,0,0,0-1.06-3,3.64,3.64,0,0,0-2.82-1.11,4.7,4.7,0,0,0-1.57.26,6.83,6.83,0,0,0-1.68.94l-.57-.31c.17-2.34.26-4.22.26-5.73,0-1.85-.09-3.51-.23-5l.2-.17c2.05.11,4,.17,5.67.17s3.17-.06,4.48-.17l.17.31a8.79,8.79,0,0,0-.17,1.57c0,.25,0,.71.06,1.4l-.2.17c-1.71-.06-3.4-.09-5.08-.09-1.14,0-2.25,0-3.36.06l-.14,4.61a7.11,7.11,0,0,1,1.79-.82,7.49,7.49,0,0,1,1.88-.23,6.09,6.09,0,0,1,4.31,1.43,5.27,5.27,0,0,1,1.51,4,7,7,0,0,1-2.37,5.27,8.36,8.36,0,0,1-5.93,2.22,8.7,8.7,0,0,1-1.79-.17,7.54,7.54,0,0,1-1.63-.51A36,36,0,0,0,244.54,24.08Zm-13,4.39-.14-.17v-.83l.14-.17a20.22,20.22,0,0,0,3-.37.66.66,0,0,0,.37-.34,10.63,10.63,0,0,0,.25-2.74c.09-2.68.12-5.07.12-7.12,0-2.74,0-4.25-.09-4.54s-.11-.25-.25-.25a1,1,0,0,0-.4.11l-3.82,1.74-.2-.12a10.55,10.55,0,0,0-.29-1.68l.12-.23a84.28,84.28,0,0,0,8.69-2.9l.37.23c-.14,1.28-.23,3.05-.28,5.27s-.09,4.9-.09,8.07a27.91,27.91,0,0,0,.17,4,.81.81,0,0,0,.31.49,11.25,11.25,0,0,0,2.86.34l.14.17v.83l-.14.17-1.74,0c-1.74,0-2.94-.06-3.54-.06C235.42,28.38,233.57,28.41,231.57,28.47Zm-25.22-7.33.23-9.49A36.93,36.93,0,0,0,204,15.81a59.85,59.85,0,0,0-2.74,5.33c1,0,1.77.06,2.43.06Zm0,2.34c-2.68,0-5,0-7,.06l-.05-.37-.15-.83a72,72,0,0,1,3.34-6.58,62.49,62.49,0,0,1,4-6.19c1-.17,2.14-.4,3.56-.71l.32.28c-.09,1.31-.15,2.68-.2,4.08l-.2,7.92c1,0,1.88,0,2.56,0l.09.2v.46l0,.83v.88l-.06.11c-.82-.08-1.68-.11-2.56-.11v.66a8.34,8.34,0,0,0,.2,2.7,4.67,4.67,0,0,0,2.36.49l.15.08v1l-.15.09c-1.76-.09-3.3-.15-4.56-.15-.71,0-1.34,0-1.85,0l-3.08.12-.11-.12V27.33l.11-.12a22.52,22.52,0,0,0,2.65-.2.78.78,0,0,0,.52-.48A20.19,20.19,0,0,0,206.35,23.48Zm-19.78,5-.14-.17v-.83l.14-.17a20.22,20.22,0,0,0,3-.37.66.66,0,0,0,.37-.34,10.63,10.63,0,0,0,.25-2.74c.09-2.68.12-5.07.12-7.12,0-2.74,0-4.25-.09-4.54s-.11-.25-.25-.25a1,1,0,0,0-.4.11l-3.82,1.74-.2-.12a10.55,10.55,0,0,0-.29-1.68l.12-.23a84.28,84.28,0,0,0,8.69-2.9l.37.23c-.14,1.28-.23,3.05-.28,5.27s-.09,4.9-.09,8.07a27.91,27.91,0,0,0,.17,4,.81.81,0,0,0,.31.49,11.25,11.25,0,0,0,2.86.34l.14.17v.83l-.14.17-1.74,0c-1.74,0-2.94-.06-3.54-.06C190.42,28.38,188.57,28.41,186.57,28.47ZM154.8,23.54l1-.26a6.55,6.55,0,0,0,1.91,3,4.09,4.09,0,0,0,2.62.88,3.41,3.41,0,0,0,2.59-1.05,4,4,0,0,0,1-2.8,3.68,3.68,0,0,0-1-2.76,3.78,3.78,0,0,0-2.82-1,8.27,8.27,0,0,0-1.65.23l-.17-.2c.17-.54.37-1.28.57-2.2a5,5,0,0,0,.85.06,3.7,3.7,0,0,0,2.51-.85,2.9,2.9,0,0,0,.94-2.2,2.47,2.47,0,0,0-.77-1.91,2.9,2.9,0,0,0-2.08-.74,4.44,4.44,0,0,0-1.65.31,2.67,2.67,0,0,0-1,.66,8.8,8.8,0,0,0-.8,1.94l-1.11-.06a28.87,28.87,0,0,0,.91-4.45A9.13,9.13,0,0,1,158.76,9a9.21,9.21,0,0,1,2.42-.31A5.65,5.65,0,0,1,165,9.86a3.73,3.73,0,0,1,1.37,3,3.88,3.88,0,0,1-.71,2.36,6.41,6.41,0,0,1-2.51,1.94,6.61,6.61,0,0,1,2.51.72A3.61,3.61,0,0,1,167,19.38a4.72,4.72,0,0,1,.51,2.22A6.52,6.52,0,0,1,164.55,27,9.25,9.25,0,0,1,159,28.75a7.36,7.36,0,0,1-1.8-.2,8.65,8.65,0,0,1-1.74-.62C155.28,26.56,155.05,25.08,154.8,23.54Zm-13.23,4.93-.14-.17v-.83l.14-.17a20.22,20.22,0,0,0,3-.37.66.66,0,0,0,.37-.34,10.63,10.63,0,0,0,.25-2.74c.09-2.68.12-5.07.12-7.12,0-2.74,0-4.25-.09-4.54s-.11-.25-.25-.25a1,1,0,0,0-.4.11l-3.82,1.74-.2-.12a10.55,10.55,0,0,0-.29-1.68l.12-.23a84.28,84.28,0,0,0,8.69-2.9l.37.23c-.14,1.28-.23,3.05-.28,5.27s-.09,4.9-.09,8.07a27.91,27.91,0,0,0,.17,4,.81.81,0,0,0,.31.49,11.25,11.25,0,0,0,2.86.34l.14.17v.83l-.14.17-1.74,0c-1.74,0-2.94-.06-3.54-.06C145.42,28.38,143.57,28.41,141.57,28.47Zm-31.94.06V27l2.88-2.79a29.17,29.17,0,0,0,4.56-5.28,7.07,7.07,0,0,0,1-3.5,3.75,3.75,0,0,0-.82-2.6,2.92,2.92,0,0,0-2.28-.91,3.78,3.78,0,0,0-1.91.46,2.18,2.18,0,0,0-1,.94c-.06.14-.26.94-.6,2.36h-1.17a45.76,45.76,0,0,0,.57-4.9,7,7,0,0,1,2.31-1.57A8,8,0,0,1,116,8.69a6.05,6.05,0,0,1,4.36,1.48,5,5,0,0,1,1.6,3.88,6.83,6.83,0,0,1-1.25,3.82q-1.25,1.92-6.93,7.06l.08.17h3.25c2.43,0,4.28-.05,5.62-.17l.14.17c-.08.8-.14,1.4-.14,1.8a11.5,11.5,0,0,0,.14,1.48l-.14.15c-1.83-.09-3.88-.15-6.21-.15C114.76,28.38,112.48,28.44,109.63,28.53Zm-13.06-.06-.14-.17v-.83l.14-.17a20.22,20.22,0,0,0,3-.37.66.66,0,0,0,.37-.34,10.63,10.63,0,0,0,.25-2.74c.09-2.68.12-5.07.12-7.12,0-2.74,0-4.25-.09-4.54s-.11-.25-.25-.25a1,1,0,0,0-.4.11l-3.82,1.74-.2-.12A10.55,10.55,0,0,0,95.26,12l.12-.23a84.28,84.28,0,0,0,8.69-2.9l.37.23c-.14,1.28-.23,3.05-.28,5.27s-.09,4.9-.09,8.07a27.91,27.91,0,0,0,.17,4,.81.81,0,0,0,.31.49,11.25,11.25,0,0,0,2.86.34l.14.17v.83l-.14.17-1.74,0c-1.74,0-2.94-.06-3.54-.06C100.42,28.38,98.57,28.41,96.57,28.47Zm-30.75,0-.14-.17v-.83l.14-.17a20.22,20.22,0,0,0,3-.37.66.66,0,0,0,.37-.34,10.63,10.63,0,0,0,.25-2.74c.09-2.68.12-5.07.12-7.12,0-2.74,0-4.25-.09-4.54s-.11-.25-.25-.25a1,1,0,0,0-.4.11L65,13.79l-.2-.12A10.55,10.55,0,0,0,64.51,12l.12-.23a84.28,84.28,0,0,0,8.69-2.9l.37.23c-.14,1.28-.23,3.05-.28,5.27s-.09,4.9-.09,8.07a27.91,27.91,0,0,0,.17,4,.81.81,0,0,0,.31.49,11.25,11.25,0,0,0,2.86.34l.14.17v.83l-.14.17-1.74,0c-1.74,0-2.94-.06-3.54-.06C69.67,28.38,67.82,28.41,65.82,28.47Zm-14.25,0-.14-.17v-.83l.14-.17a20.22,20.22,0,0,0,3-.37.66.66,0,0,0,.37-.34,10.63,10.63,0,0,0,.25-2.74c.09-2.68.12-5.07.12-7.12,0-2.74,0-4.25-.09-4.54s-.11-.25-.25-.25a1,1,0,0,0-.4.11l-3.82,1.74-.2-.12A10.55,10.55,0,0,0,50.26,12l.12-.23a84.28,84.28,0,0,0,8.69-2.9l.37.23c-.14,1.28-.23,3.05-.28,5.27s-.09,4.9-.09,8.07a27.91,27.91,0,0,0,.17,4,.81.81,0,0,0,.31.49,11.25,11.25,0,0,0,2.86.34l.14.17v.83l-.14.17-1.74,0c-1.74,0-2.94-.06-3.54-.06C55.42,28.38,53.57,28.41,51.57,28.47ZM23.33,17.18a39.35,39.35,0,0,0,.4,6.56,5.9,5.9,0,0,0,1.17,2.9,2,2,0,0,0,1.45.6,2.08,2.08,0,0,0,2-1.22c.57-1,.83-3,.83-5.87a30.19,30.19,0,0,0-.77-7.93c-.4-1.37-1.14-2-2.25-2a2.25,2.25,0,0,0-2.06,1.31C23.59,12.39,23.33,14.3,23.33,17.18ZM19.88,19a17.88,17.88,0,0,1,.8-6.13A6.62,6.62,0,0,1,23,9.71a6.22,6.22,0,0,1,3.59-1,5.7,5.7,0,0,1,3.34.88,5.5,5.5,0,0,1,2,2.79,18.51,18.51,0,0,1,.69,5.85,17.85,17.85,0,0,1-.83,6.24,6.6,6.6,0,0,1-2.25,3.25A5.74,5.74,0,0,1,26,28.75a5.76,5.76,0,0,1-3.39-1,5.46,5.46,0,0,1-2.08-2.85A18.37,18.37,0,0,1,19.88,19ZM6.57,28.47l-.14-.17v-.83l.14-.17a20.22,20.22,0,0,0,3-.37.66.66,0,0,0,.37-.34,10.63,10.63,0,0,0,.25-2.74c.09-2.68.12-5.07.12-7.12,0-2.74,0-4.25-.09-4.54s-.11-.25-.25-.25a1,1,0,0,0-.4.11L5.75,13.79l-.2-.12A10.55,10.55,0,0,0,5.26,12l.12-.23a84.28,84.28,0,0,0,8.69-2.9l.37.23c-.14,1.28-.23,3.05-.28,5.27s-.09,4.9-.09,8.07a27.91,27.91,0,0,0,.17,4,.81.81,0,0,0,.31.49,11.25,11.25,0,0,0,2.86.34l.14.17v.83l-.14.17-1.74,0c-1.74,0-2.94-.06-3.54-.06C10.42,28.38,8.57,28.41,6.57,28.47Z"/></svg>