<?xml version="1.0" encoding="UTF-8" standalone="no"?>
<!DOCTYPE svg PUBLIC "-//W3C//DTD SVG 1.1//EN" "http://www.w3.org/Graphics/SVG/1.1/DTD/svg11.dtd">
<svg width="100%" height="100%" viewBox="0 0 38 38" version="1.1" xmlns="http://www.w3.org/2000/svg" xmlns:xlink="http://www.w3.org/1999/xlink" xml:space="preserve" xmlns:serif="http://www.serif.com/" style="fill-rule:evenodd;clip-rule:evenodd;stroke-linejoin:round;stroke-miterlimit:2;">
    <path d="M36.72,18.72C36.72,8.845 28.595,0.72 18.72,0.72C8.845,0.72 0.72,8.845 0.72,18.72C0.72,28.595 8.845,36.72 18.72,36.72C28.595,36.72 36.72,28.595 36.72,18.72" style="fill:rgb(32,32,32);fill-rule:nonzero;"/>
    <path d="M19.56,28.53L19.56,27L22.44,24.21C24.174,22.632 25.706,20.845 27,18.89C27.636,17.832 27.981,16.624 28,15.39C28.06,14.45 27.763,13.521 27.17,12.79C26.582,12.166 25.747,11.832 24.89,11.88C24.224,11.863 23.565,12.022 22.98,12.34C22.555,12.539 22.205,12.868 21.98,13.28C21.92,13.42 21.72,14.22 21.38,15.64L20.25,15.64C20.523,14.017 20.713,12.382 20.82,10.74C21.477,10.067 22.262,9.533 23.13,9.17C24.023,8.843 24.969,8.68 25.92,8.69C27.511,8.592 29.078,9.124 30.28,10.17C31.349,11.17 31.933,12.587 31.88,14.05C31.857,15.422 31.418,16.754 30.62,17.87C29.8,19.15 27.493,21.503 23.7,24.93L23.78,25.1L27,25.1C29.42,25.1 31.28,25.05 32.62,24.93L32.76,25.1C32.683,25.697 32.637,26.298 32.62,26.9C32.63,27.396 32.676,27.891 32.76,28.38L32.62,28.53C30.79,28.44 28.74,28.38 26.4,28.38C24.69,28.38 22.41,28.44 19.56,28.53ZM6.56,28.47L6.42,28.3L6.42,27.47L6.56,27.3C7.568,27.254 8.571,27.13 9.56,26.93C9.728,26.873 9.865,26.75 9.94,26.59C10.136,25.69 10.22,24.77 10.19,23.85C10.28,21.17 10.31,18.78 10.31,16.73C10.31,13.99 10.31,12.48 10.22,12.19C10.13,11.9 10.11,11.94 9.96,11.94C9.821,11.951 9.685,11.988 9.56,12.05L5.69,13.79L5.49,13.67C5.438,13.106 5.341,12.548 5.2,12L5.32,11.77C8.264,10.958 11.162,9.987 14,8.86L14.37,9.09C14.23,10.37 14.14,12.14 14.08,14.36C14.02,16.58 14,19.26 14,22.43C13.961,23.766 14.018,25.102 14.17,26.43C14.209,26.626 14.32,26.801 14.48,26.92C15.412,27.155 16.369,27.269 17.33,27.26L17.48,27.43L17.48,28.26L17.33,28.43L15.59,28.43C13.86,28.43 12.66,28.37 12.06,28.37C10.36,28.38 8.51,28.41 6.51,28.47L6.56,28.47Z" style="fill:white;fill-rule:nonzero;"/>
</svg>
