<svg id="Layer_1" data-name="Layer 1" xmlns="http://www.w3.org/2000/svg" viewBox="0 0 37.44 37.44"><defs><style>.cls-1{fill:#fff;}.cls-2{fill:#231f20;}</style></defs><path class="cls-1" d="M36.72,18.72a18,18,0,1,0-18,18,18,18,0,0,0,18-18"/><path class="cls-2" d="M154.48,24.08V24l.91-.29a7.36,7.36,0,0,0,2.2,2.74,4.16,4.16,0,0,0,2.45.71A3.38,3.38,0,0,0,162.66,26a4.37,4.37,0,0,0,1-3,4.1,4.1,0,0,0-1.06-3,3.64,3.64,0,0,0-2.82-1.11,4.7,4.7,0,0,0-1.57.26,6.83,6.83,0,0,0-1.68.94l-.57-.31c.17-2.34.26-4.22.26-5.73,0-1.85-.09-3.51-.23-5l.2-.17c2.05.11,4,.17,5.67.17S165,9,166.34,8.89l.17.31a8,8,0,0,0-.17,1.57c0,.25,0,.71,0,1.4l-.2.17c-1.71-.06-3.39-.09-5.07-.09-1.14,0-2.25,0-3.36.06l-.15,4.61a7.32,7.32,0,0,1,1.8-.82,7.49,7.49,0,0,1,1.88-.23,6.11,6.11,0,0,1,4.31,1.43,5.27,5.27,0,0,1,1.51,4,7,7,0,0,1-2.37,5.27,8.38,8.38,0,0,1-5.93,2.22,8.63,8.63,0,0,1-1.79-.17,7.37,7.37,0,0,1-1.63-.51A36,36,0,0,0,154.48,24.08Zm-13,4.39-.14-.17v-.83l.14-.17a19.74,19.74,0,0,0,3-.37.65.65,0,0,0,.38-.34,11.16,11.16,0,0,0,.25-2.74c.09-2.68.12-5.07.12-7.12,0-2.74,0-4.25-.09-4.54s-.11-.25-.26-.25a1.09,1.09,0,0,0-.4.11l-3.81,1.74-.2-.12A10.55,10.55,0,0,0,140.2,12l.12-.23A84.28,84.28,0,0,0,149,8.86l.37.23c-.14,1.28-.23,3.05-.29,5.27s-.08,4.9-.08,8.07a27.91,27.91,0,0,0,.17,4,.81.81,0,0,0,.31.49,11.21,11.21,0,0,0,2.85.34l.15.17v.83l-.15.17-1.74,0c-1.73,0-2.93-.06-3.53-.06C145.36,28.38,143.51,28.41,141.51,28.47Zm-25.22-7.33.23-9.49a36.93,36.93,0,0,0-2.62,4.16,57.29,57.29,0,0,0-2.74,5.33c1,0,1.77.06,2.42.06Zm0,2.34c-2.68,0-5,0-7,.06l-.06-.37-.14-.83a72,72,0,0,1,3.34-6.58,59,59,0,0,1,4-6.19c1-.17,2.14-.4,3.56-.71l.31.28c-.08,1.31-.14,2.68-.19,4.08l-.2,7.92c1,0,1.88,0,2.56,0l.09.2v.46l0,.83v.88l-.06.11c-.83-.08-1.68-.11-2.56-.11v.66a8.34,8.34,0,0,0,.2,2.7,4.6,4.6,0,0,0,2.36.49l.14.08v1l-.14.09c-1.77-.09-3.31-.15-4.56-.15-.71,0-1.34,0-1.85,0l-3.08.12-.11-.12V27.33l.11-.12a22.52,22.52,0,0,0,2.65-.2.75.75,0,0,0,.51-.48A19.52,19.52,0,0,0,116.29,23.48Zm-19.78,5-.14-.17v-.83l.14-.17a19.74,19.74,0,0,0,3-.37.65.65,0,0,0,.38-.34,11.16,11.16,0,0,0,.25-2.74c.09-2.68.12-5.07.12-7.12,0-2.74,0-4.25-.09-4.54s-.11-.25-.26-.25a1.09,1.09,0,0,0-.4.11l-3.81,1.74-.2-.12A10.55,10.55,0,0,0,95.2,12l.12-.23A84.28,84.28,0,0,0,104,8.86l.37.23c-.14,1.28-.23,3.05-.29,5.27s-.08,4.9-.08,8.07a27.91,27.91,0,0,0,.17,4,.81.81,0,0,0,.31.49,11.21,11.21,0,0,0,2.85.34l.15.17v.83l-.15.17-1.74,0c-1.73,0-2.93-.06-3.53-.06C100.36,28.38,98.51,28.41,96.51,28.47ZM64.74,23.54l1-.26a6.64,6.64,0,0,0,1.91,3,4.13,4.13,0,0,0,2.63.88,3.41,3.41,0,0,0,2.59-1.05,4,4,0,0,0,1-2.8,3.68,3.68,0,0,0-1-2.76,3.78,3.78,0,0,0-2.82-1,8.18,8.18,0,0,0-1.65.23l-.17-.2c.17-.54.37-1.28.57-2.2a5,5,0,0,0,.85.06,3.72,3.72,0,0,0,2.51-.85,2.9,2.9,0,0,0,.94-2.2,2.51,2.51,0,0,0-.77-1.91,2.92,2.92,0,0,0-2.08-.74,4.44,4.44,0,0,0-1.65.31,2.59,2.59,0,0,0-1,.66,8.8,8.8,0,0,0-.8,1.94l-1.11-.06a28.87,28.87,0,0,0,.91-4.45A9,9,0,0,1,68.7,9a9.21,9.21,0,0,1,2.42-.31,5.66,5.66,0,0,1,3.82,1.17,3.73,3.73,0,0,1,1.37,3,3.88,3.88,0,0,1-.71,2.36,6.48,6.48,0,0,1-2.51,1.94,6.61,6.61,0,0,1,2.51.72,3.61,3.61,0,0,1,1.31,1.51,4.72,4.72,0,0,1,.51,2.22A6.5,6.5,0,0,1,74.48,27a9.2,9.2,0,0,1-5.55,1.79,7.36,7.36,0,0,1-1.8-.2,8.65,8.65,0,0,1-1.74-.62C65.22,26.56,65,25.08,64.74,23.54ZM51.51,28.47l-.14-.17v-.83l.14-.17a19.74,19.74,0,0,0,3-.37.65.65,0,0,0,.38-.34,11.16,11.16,0,0,0,.25-2.74c.09-2.68.12-5.07.12-7.12,0-2.74,0-4.25-.09-4.54s-.11-.25-.26-.25a1.09,1.09,0,0,0-.4.11l-3.81,1.74-.2-.12A10.55,10.55,0,0,0,50.2,12l.12-.23A84.28,84.28,0,0,0,59,8.86l.37.23c-.14,1.28-.23,3.05-.29,5.27S59,19.26,59,22.43a27.91,27.91,0,0,0,.17,4,.81.81,0,0,0,.31.49,11.21,11.21,0,0,0,2.85.34l.15.17v.83l-.15.17-1.74,0c-1.73,0-2.93-.06-3.53-.06C55.36,28.38,53.51,28.41,51.51,28.47Zm-31.95.06V27l2.88-2.79A28.36,28.36,0,0,0,27,18.89a7,7,0,0,0,1-3.5,3.75,3.75,0,0,0-.83-2.6,2.91,2.91,0,0,0-2.28-.91,3.8,3.8,0,0,0-1.91.46,2.2,2.2,0,0,0-1,.94c-.06.14-.26.94-.6,2.36H20.25a48.49,48.49,0,0,0,.57-4.9,7,7,0,0,1,2.31-1.57,7.88,7.88,0,0,1,2.79-.48,6.07,6.07,0,0,1,4.36,1.48,5.06,5.06,0,0,1,1.6,3.88,6.76,6.76,0,0,1-1.26,3.82q-1.23,1.92-6.92,7.06l.08.17H27c2.42,0,4.28-.05,5.62-.17l.14.17a18,18,0,0,0-.14,1.8,9.94,9.94,0,0,0,.14,1.48l-.14.15c-1.83-.09-3.88-.15-6.22-.15C24.69,28.38,22.41,28.44,19.56,28.53Zm-13-.06-.14-.17v-.83l.14-.17a19.74,19.74,0,0,0,3-.37.65.65,0,0,0,.38-.34,11.16,11.16,0,0,0,.25-2.74c.09-2.68.12-5.07.12-7.12,0-2.74,0-4.25-.09-4.54s-.11-.25-.26-.25a1.09,1.09,0,0,0-.4.11L5.69,13.79l-.2-.12A10.55,10.55,0,0,0,5.2,12l.12-.23A84.28,84.28,0,0,0,14,8.86l.37.23c-.14,1.28-.23,3.05-.29,5.27S14,19.26,14,22.43a27.91,27.91,0,0,0,.17,4,.81.81,0,0,0,.31.49,11.21,11.21,0,0,0,2.85.34l.15.17v.83l-.15.17-1.74,0c-1.73,0-2.93-.06-3.53-.06C10.36,28.38,8.51,28.41,6.51,28.47Zm-30.75,0-.14-.17v-.83l.14-.17a19.74,19.74,0,0,0,3-.37.6.6,0,0,0,.37-.34,10.41,10.41,0,0,0,.26-2.74c.09-2.68.12-5.07.12-7.12,0-2.74,0-4.25-.09-4.54s-.11-.25-.26-.25a1.09,1.09,0,0,0-.4.11l-3.81,1.74-.2-.12A11.82,11.82,0,0,0-25.55,12l.11-.23a83.74,83.74,0,0,0,8.7-2.9l.37.23c-.14,1.28-.23,3.05-.29,5.27s-.08,4.9-.08,8.07a27.91,27.91,0,0,0,.17,4,.81.81,0,0,0,.31.49,11.21,11.21,0,0,0,2.85.34l.15.17v.83l-.15.17-1.74,0c-1.73,0-2.93-.06-3.53-.06C-20.39,28.38-22.24,28.41-24.24,28.47Zm-14.25,0-.14-.17v-.83l.14-.17a19.74,19.74,0,0,0,3-.37.65.65,0,0,0,.38-.34,11.16,11.16,0,0,0,.25-2.74c.09-2.68.12-5.07.12-7.12,0-2.74,0-4.25-.09-4.54s-.11-.25-.26-.25a1.09,1.09,0,0,0-.4.11l-3.81,1.74-.2-.12A10.55,10.55,0,0,0-39.8,12l.12-.23A84.28,84.28,0,0,0-31,8.86l.37.23c-.14,1.28-.23,3.05-.29,5.27s-.08,4.9-.08,8.07a27.91,27.91,0,0,0,.17,4,.81.81,0,0,0,.31.49,11.21,11.21,0,0,0,2.85.34l.15.17v.83l-.15.17-1.74,0c-1.73,0-2.93-.06-3.53-.06C-34.64,28.38-36.49,28.41-38.49,28.47ZM-66.73,17.18a39.35,39.35,0,0,0,.4,6.56,5.71,5.71,0,0,0,1.17,2.9,2,2,0,0,0,1.45.6,2.08,2.08,0,0,0,2-1.22c.57-1,.82-3,.82-5.87a30.28,30.28,0,0,0-.76-7.93c-.4-1.37-1.14-2-2.26-2a2.25,2.25,0,0,0-2,1.31C-66.47,12.39-66.73,14.3-66.73,17.18ZM-70.18,19a17.88,17.88,0,0,1,.8-6.13,6.62,6.62,0,0,1,2.31-3.17,6.22,6.22,0,0,1,3.59-1,5.65,5.65,0,0,1,3.33.88,5.51,5.51,0,0,1,2,2.79,18.57,18.57,0,0,1,.68,5.85,17.89,17.89,0,0,1-.82,6.24,6.66,6.66,0,0,1-2.25,3.25A5.74,5.74,0,0,1-64,28.75a5.76,5.76,0,0,1-3.39-1,5.46,5.46,0,0,1-2.08-2.85A18.37,18.37,0,0,1-70.18,19Zm-13.31,9.46-.14-.17v-.83l.14-.17a19.74,19.74,0,0,0,3-.37.65.65,0,0,0,.38-.34,11.16,11.16,0,0,0,.25-2.74c.09-2.68.12-5.07.12-7.12,0-2.74,0-4.25-.09-4.54s-.11-.25-.26-.25a1.09,1.09,0,0,0-.4.11l-3.81,1.74-.2-.12A10.55,10.55,0,0,0-84.8,12l.12-.23A84.28,84.28,0,0,0-76,8.86l.37.23c-.14,1.28-.23,3.05-.29,5.27s-.08,4.9-.08,8.07a27.91,27.91,0,0,0,.17,4,.81.81,0,0,0,.31.49,11.21,11.21,0,0,0,2.85.34l.15.17v.83l-.15.17-1.74,0c-1.73,0-2.93-.06-3.53-.06C-79.64,28.38-81.49,28.41-83.49,28.47Z"/></svg>