<svg xmlns="http://www.w3.org/2000/svg" viewBox="0 0 38 38"  fill-rule="nonzero" stroke-linejoin="round" stroke-miterlimit="2" xmlns:v="https://vecta.io/nano"><path d="M36.72 18.72c0-9.875-8.125-18-18-18s-18 8.125-18 18 8.125 18 18 18 18-8.125 18-18" fill="#202020"/><path d="M19.56 28.53V27l2.88-2.79c1.734-1.578 3.266-3.365 4.56-5.32.636-1.058.981-2.266 1-3.5a3.75 3.75 0 0 0-.83-2.6 2.91 2.91 0 0 0-2.28-.91 3.8 3.8 0 0 0-1.91.46c-.425.199-.775.528-1 .94-.06.14-.26.94-.6 2.36h-1.13a48.58 48.58 0 0 0 .57-4.9c.657-.673 1.442-1.207 2.31-1.57.893-.327 1.839-.49 2.79-.48 1.591-.098 3.158.434 4.36 1.48 1.069 1 1.653 2.417 1.6 3.88a6.76 6.76 0 0 1-1.26 3.82c-.82 1.28-3.127 3.633-6.92 7.06l.08.17H27l5.62-.17.14.17a18.06 18.06 0 0 0-.14 1.8c.01.496.056.991.14 1.48l-.14.15-6.22-.15-6.84.15zm-13-.06l-.14-.17v-.83l.14-.17c1.008-.046 2.011-.17 3-.37a.65.65 0 0 0 .38-.34c.196-.9.28-1.82.25-2.74l.12-7.12-.09-4.54c-.09-.29-.11-.25-.26-.25-.139.011-.275.048-.4.11l-3.87 1.74-.2-.12A10.61 10.61 0 0 0 5.2 12l.12-.23A84.12 84.12 0 0 0 14 8.86l.37.23c-.14 1.28-.23 3.05-.29 5.27L14 22.43c-.039 1.336.018 2.672.17 4a.81.81 0 0 0 .31.49 11.22 11.22 0 0 0 2.85.34l.15.17v.83l-.15.17h-1.74c-1.73 0-2.93-.06-3.53-.06l-5.55.1h.05z" fill="#fff"/></svg>