<svg id="Layer_1" data-name="Layer 1" xmlns="http://www.w3.org/2000/svg" viewBox="0 0 37.44 37.44"><defs><style>.cls-1{fill:#fff;}.cls-2{fill:#231f20;}</style></defs><path class="cls-1" d="M36.72,18.72a18,18,0,1,0-18,18,18,18,0,0,0,18-18"/><path class="cls-2" d="M109.45,24.08V24l.91-.29a7.45,7.45,0,0,0,2.19,2.74,4.21,4.21,0,0,0,2.46.71A3.39,3.39,0,0,0,117.63,26a4.41,4.41,0,0,0,1-3,4.14,4.14,0,0,0-1.06-3,3.64,3.64,0,0,0-2.82-1.11,4.7,4.7,0,0,0-1.57.26,6.83,6.83,0,0,0-1.68.94l-.57-.31c.17-2.34.26-4.22.26-5.73,0-1.85-.09-3.51-.23-5l.2-.17c2,.11,4,.17,5.67.17S120,9,121.31,8.89l.17.31a8,8,0,0,0-.17,1.57c0,.25,0,.71,0,1.4l-.2.17c-1.71-.06-3.39-.09-5.07-.09-1.14,0-2.25,0-3.36.06l-.15,4.61a7.32,7.32,0,0,1,1.8-.82,7.49,7.49,0,0,1,1.88-.23,6.07,6.07,0,0,1,4.3,1.43,5.24,5.24,0,0,1,1.51,4,7,7,0,0,1-2.36,5.27,8.38,8.38,0,0,1-5.93,2.22,8.73,8.73,0,0,1-1.8-.17,7.28,7.28,0,0,1-1.62-.51A36,36,0,0,0,109.45,24.08Zm-13,4.39-.14-.17v-.83l.14-.17a19.74,19.74,0,0,0,3-.37.63.63,0,0,0,.37-.34,10.41,10.41,0,0,0,.26-2.74c.09-2.68.11-5.07.11-7.12,0-2.74,0-4.25-.08-4.54s-.11-.25-.26-.25a1,1,0,0,0-.4.11l-3.82,1.74-.2-.12A10.65,10.65,0,0,0,95.17,12l.11-.23a83.74,83.74,0,0,0,8.7-2.9l.37.23c-.15,1.28-.23,3.05-.29,5.27s-.08,4.9-.08,8.07a26.44,26.44,0,0,0,.17,4,.77.77,0,0,0,.31.49,11.21,11.21,0,0,0,2.85.34l.14.17v.83l-.14.17-1.74,0c-1.74,0-2.93-.06-3.53-.06C100.33,28.38,98.48,28.41,96.48,28.47ZM71.26,21.14l.23-9.49a36.93,36.93,0,0,0-2.62,4.16,57.29,57.29,0,0,0-2.74,5.33c1,0,1.77.06,2.42.06Zm0,2.34c-2.68,0-5,0-7,.06l-.06-.37L64,22.34a72,72,0,0,1,3.34-6.58,59,59,0,0,1,4-6.19c1-.17,2.13-.4,3.56-.71l.31.28c-.08,1.31-.14,2.68-.2,4.08l-.2,7.92c1,0,1.89,0,2.57,0l.09.2v.46l0,.83v.88l-.06.11c-.83-.08-1.68-.11-2.57-.11v.66a8.68,8.68,0,0,0,.2,2.7,4.68,4.68,0,0,0,2.37.49l.14.08v1l-.14.09c-1.77-.09-3.31-.15-4.56-.15-.71,0-1.34,0-1.85,0l-3.08.12-.12-.12V27.33l.12-.12a22.77,22.77,0,0,0,2.65-.2.75.75,0,0,0,.51-.48A19.52,19.52,0,0,0,71.26,23.48Zm-19.78,5-.14-.17v-.83l.14-.17a19.74,19.74,0,0,0,3-.37.63.63,0,0,0,.37-.34,10.41,10.41,0,0,0,.26-2.74c.09-2.68.11-5.07.11-7.12,0-2.74,0-4.25-.08-4.54s-.11-.25-.26-.25a1,1,0,0,0-.4.11l-3.82,1.74-.2-.12A10.65,10.65,0,0,0,50.17,12l.11-.23A83.74,83.74,0,0,0,59,8.86l.37.23c-.15,1.28-.23,3.05-.29,5.27S59,19.26,59,22.43a26.44,26.44,0,0,0,.17,4,.77.77,0,0,0,.31.49,11.21,11.21,0,0,0,2.85.34l.14.17v.83l-.14.17-1.74,0c-1.74,0-2.93-.06-3.53-.06C55.33,28.38,53.48,28.41,51.48,28.47ZM19.7,23.54l1-.26a6.64,6.64,0,0,0,1.91,3,4.11,4.11,0,0,0,2.63.88,3.41,3.41,0,0,0,2.59-1.05,4,4,0,0,0,1-2.8,3.72,3.72,0,0,0-1-2.76,3.78,3.78,0,0,0-2.82-1,8.18,8.18,0,0,0-1.65.23l-.18-.2c.18-.54.37-1.28.58-2.2a5,5,0,0,0,.85.06,3.72,3.72,0,0,0,2.51-.85,2.9,2.9,0,0,0,.94-2.2,2.51,2.51,0,0,0-.77-1.91,2.92,2.92,0,0,0-2.08-.74,4.54,4.54,0,0,0-1.66.31,2.62,2.62,0,0,0-1,.66,8.8,8.8,0,0,0-.8,1.94l-1.11-.06a28.87,28.87,0,0,0,.91-4.45A9,9,0,0,1,23.67,9a9.21,9.21,0,0,1,2.42-.31,5.66,5.66,0,0,1,3.82,1.17,3.73,3.73,0,0,1,1.37,3,3.83,3.83,0,0,1-.72,2.36,6.36,6.36,0,0,1-2.5,1.94,6.55,6.55,0,0,1,2.5.72,3.56,3.56,0,0,1,1.32,1.51,4.72,4.72,0,0,1,.51,2.22A6.5,6.5,0,0,1,29.45,27a9.21,9.21,0,0,1-5.56,1.79,7.34,7.34,0,0,1-1.79-.2,8.65,8.65,0,0,1-1.74-.62C20.19,26.56,20,25.08,19.7,23.54ZM6.48,28.47l-.14-.17v-.83l.14-.17a19.74,19.74,0,0,0,3-.37.63.63,0,0,0,.37-.34,10.41,10.41,0,0,0,.26-2.74c.09-2.68.11-5.07.11-7.12,0-2.74,0-4.25-.08-4.54s-.11-.25-.26-.25a1,1,0,0,0-.4.11L5.65,13.79l-.2-.12A10.65,10.65,0,0,0,5.17,12l.11-.23A83.74,83.74,0,0,0,14,8.86l.37.23c-.15,1.28-.23,3.05-.29,5.27S14,19.26,14,22.43a26.44,26.44,0,0,0,.17,4,.77.77,0,0,0,.31.49,11.21,11.21,0,0,0,2.85.34l.14.17v.83l-.14.17-1.74,0c-1.74,0-2.93-.06-3.53-.06C10.33,28.38,8.48,28.41,6.48,28.47Zm-31.95.06V27l2.88-2.79A28.36,28.36,0,0,0-18,18.89a7,7,0,0,0,1-3.5,3.75,3.75,0,0,0-.83-2.6,2.91,2.91,0,0,0-2.28-.91,3.8,3.8,0,0,0-1.91.46,2.2,2.2,0,0,0-1,.94c-.06.14-.26.94-.6,2.36h-1.17a48.49,48.49,0,0,0,.57-4.9A7,7,0,0,1-21.9,9.17a7.88,7.88,0,0,1,2.79-.48,6.07,6.07,0,0,1,4.36,1.48,5.06,5.06,0,0,1,1.6,3.88,6.76,6.76,0,0,1-1.26,3.82q-1.23,1.92-6.92,7.06l.08.17H-18c2.42,0,4.28-.05,5.62-.17l.14.17a18,18,0,0,0-.14,1.8,9.94,9.94,0,0,0,.14,1.48l-.14.15c-1.83-.09-3.88-.15-6.22-.15C-20.34,28.38-22.62,28.44-25.47,28.53Zm-13.05-.06-.14-.17v-.83l.14-.17a19.74,19.74,0,0,0,3-.37.63.63,0,0,0,.37-.34,10.41,10.41,0,0,0,.26-2.74c.09-2.68.11-5.07.11-7.12,0-2.74,0-4.25-.08-4.54s-.11-.25-.26-.25a1,1,0,0,0-.4.11l-3.82,1.74-.2-.12A10.65,10.65,0,0,0-39.83,12l.11-.23A83.74,83.74,0,0,0-31,8.86l.37.23c-.15,1.28-.23,3.05-.29,5.27s-.08,4.9-.08,8.07a26.44,26.44,0,0,0,.17,4,.77.77,0,0,0,.31.49,11.21,11.21,0,0,0,2.85.34l.14.17v.83l-.14.17-1.74,0c-1.74,0-2.93-.06-3.53-.06C-34.67,28.38-36.52,28.41-38.52,28.47Zm-30.75,0-.14-.17v-.83l.14-.17a20,20,0,0,0,3-.37.63.63,0,0,0,.37-.34,10.41,10.41,0,0,0,.26-2.74c.09-2.68.11-5.07.11-7.12,0-2.74,0-4.25-.08-4.54s-.11-.25-.26-.25a1,1,0,0,0-.4.11l-3.82,1.74-.2-.12A10.65,10.65,0,0,0-70.58,12l.11-.23a83.74,83.74,0,0,0,8.7-2.9l.37.23c-.15,1.28-.23,3.05-.29,5.27s-.08,4.9-.08,8.07a26.44,26.44,0,0,0,.17,4,.77.77,0,0,0,.31.49,11.21,11.21,0,0,0,2.85.34l.14.17v.83l-.14.17-1.74,0c-1.74,0-2.93-.06-3.53-.06C-65.42,28.38-67.27,28.41-69.27,28.47Zm-14.25,0-.14-.17v-.83l.14-.17a19.74,19.74,0,0,0,3-.37.63.63,0,0,0,.37-.34,10.41,10.41,0,0,0,.26-2.74c.09-2.68.11-5.07.11-7.12,0-2.74,0-4.25-.08-4.54s-.11-.25-.26-.25a1,1,0,0,0-.4.11l-3.82,1.74-.2-.12A10.65,10.65,0,0,0-84.83,12l.11-.23A83.74,83.74,0,0,0-76,8.86l.37.23c-.15,1.28-.23,3.05-.29,5.27s-.08,4.9-.08,8.07a26.44,26.44,0,0,0,.17,4,.77.77,0,0,0,.31.49,11.21,11.21,0,0,0,2.85.34l.14.17v.83l-.14.17-1.74,0c-1.74,0-2.93-.06-3.53-.06C-79.67,28.38-81.52,28.41-83.52,28.47Zm-28.24-11.29a39.35,39.35,0,0,0,.4,6.56,5.71,5.71,0,0,0,1.17,2.9,2,2,0,0,0,1.45.6,2.09,2.09,0,0,0,2-1.22c.57-1,.82-3,.82-5.87a29.76,29.76,0,0,0-.77-7.93c-.4-1.37-1.14-2-2.25-2a2.24,2.24,0,0,0-2,1.31C-111.5,12.39-111.76,14.3-111.76,17.18ZM-115.21,19a17.88,17.88,0,0,1,.8-6.13,6.62,6.62,0,0,1,2.31-3.17,6.19,6.19,0,0,1,3.59-1,5.65,5.65,0,0,1,3.33.88,5.51,5.51,0,0,1,2,2.79,18.87,18.87,0,0,1,.68,5.85,17.89,17.89,0,0,1-.82,6.24,6.67,6.67,0,0,1-2.26,3.25A5.71,5.71,0,0,1-109,28.75a5.81,5.81,0,0,1-3.4-1,5.51,5.51,0,0,1-2.08-2.85A18.73,18.73,0,0,1-115.21,19Zm-13.31,9.46-.14-.17v-.83l.14-.17a19.74,19.74,0,0,0,3-.37.6.6,0,0,0,.37-.34,10.41,10.41,0,0,0,.26-2.74c.09-2.68.11-5.07.11-7.12,0-2.74,0-4.25-.08-4.54s-.11-.25-.26-.25a1.09,1.09,0,0,0-.4.11l-3.82,1.74-.2-.12a10.65,10.65,0,0,0-.28-1.68l.11-.23a83.74,83.74,0,0,0,8.7-2.9l.37.23c-.14,1.28-.23,3.05-.29,5.27s-.08,4.9-.08,8.07a26.44,26.44,0,0,0,.17,4,.81.81,0,0,0,.31.49,11.21,11.21,0,0,0,2.85.34l.14.17v.83l-.14.17-1.74,0c-1.74,0-2.93-.06-3.53-.06C-124.67,28.38-126.52,28.41-128.52,28.47Z"/></svg>