<svg xmlns="http://www.w3.org/2000/svg" viewBox="0 0 38 38"  fill-rule="nonzero" stroke-linejoin="round" stroke-miterlimit="2" xmlns:v="https://vecta.io/nano"><path d="M36.72 18.72c0-9.875-8.125-18-18-18s-18 8.125-18 18 8.125 18 18 18 18-8.125 18-18" fill="#202020"/><path d="M19.7 23.54l1-.26a6.64 6.64 0 0 0 1.91 3 4.11 4.11 0 0 0 2.63.88 3.41 3.41 0 0 0 2.59-1.05 4 4 0 0 0 1-2.8c.059-1.018-.303-2.016-1-2.76a3.78 3.78 0 0 0-2.82-1c-.556.02-1.109.097-1.65.23l-.18-.2c.18-.54.37-1.28.58-2.2.281.044.565.064.85.06a3.72 3.72 0 0 0 2.51-.85 2.9 2.9 0 0 0 .94-2.2 2.51 2.51 0 0 0-.77-1.91c-.57-.509-1.317-.775-2.08-.74a4.55 4.55 0 0 0-1.66.31c-.38.14-.722.366-1 .66-.343.612-.612 1.264-.8 1.94l-1.11-.06c.42-1.457.724-2.945.91-4.45.652-.473 1.365-.857 2.12-1.14.789-.21 1.603-.314 2.42-.31 1.373-.087 2.732.329 3.82 1.17.897.732 1.404 1.842 1.37 3a3.83 3.83 0 0 1-.72 2.36 6.37 6.37 0 0 1-2.5 1.94 6.54 6.54 0 0 1 2.5.72c.576.366 1.034.891 1.32 1.51.349.687.524 1.45.51 2.22-.016 2.173-1.121 4.2-2.94 5.39-1.61 1.184-3.562 1.812-5.56 1.79-.603.007-1.204-.06-1.79-.2a8.67 8.67 0 0 1-1.74-.62l-.66-4.43zM6.48 28.47l-.14-.17v-.83l.14-.17c1.008-.046 2.011-.17 3-.37a.63.63 0 0 0 .37-.34 10.39 10.39 0 0 0 .26-2.74l.11-7.12-.08-4.54c-.08-.29-.11-.25-.26-.25-.14.008-.276.046-.4.11l-3.83 1.74-.2-.12c-.049-.563-.142-1.122-.28-1.67l.11-.23c2.958-.81 5.869-1.781 8.72-2.91l.37.23c-.15 1.28-.23 3.05-.29 5.27L14 22.43a26.33 26.33 0 0 0 .17 4c.036.197.147.373.31.49a11.22 11.22 0 0 0 2.85.34l.14.17v.83l-.14.17h-1.74c-1.74 0-2.93-.06-3.53-.06l-5.58.1z" fill="#fff"/></svg>