<svg xmlns="http://www.w3.org/2000/svg" viewBox="0 0 38 38"  fill-rule="nonzero" stroke-linejoin="round" stroke-miterlimit="2" xmlns:v="https://vecta.io/nano"><path d="M36.72 18.72c0-9.875-8.125-18-18-18s-18 8.125-18 18 8.125 18 18 18 18-8.125 18-18" fill="#202020"/><path d="M26.23 21.14l.23-9.49a35.46 35.46 0 0 0-2.62 4.16c-1.01 1.725-1.924 3.505-2.74 5.33l2.42.06 2.71-.06zm0 2.34l-7 .06-.06-.37-.17-.83c.996-2.249 2.108-4.445 3.33-6.58a60.55 60.55 0 0 1 4-6.19l3.56-.71.31.28-.2 4.08-.2 7.92h2.57l.08.2v2.17l-.06.11c-.83-.08-1.68-.11-2.57-.11v.66c-.075.905-.007 1.816.2 2.7.733.368 1.551.537 2.37.49l.14.08v1l-.14.09-4.56-.15h-1.85l-3.08.12-.12-.12v-1.05l.12-.12c.886-.015 1.771-.082 2.65-.2a.77.77 0 0 0 .51-.48 19.56 19.56 0 0 0 .17-3.05zm-19.78 5l-.14-.17v-.83l.14-.17a19.91 19.91 0 0 0 3-.37.63.63 0 0 0 .37-.34 10.39 10.39 0 0 0 .26-2.74l.11-7.12-.08-4.54c-.08-.29-.12-.25-.26-.25-.14.008-.276.046-.4.11l-3.83 1.73-.2-.12c-.049-.563-.142-1.122-.28-1.67l.11-.23A83.83 83.83 0 0 0 14 8.86l.37.23c-.15 1.28-.23 3.05-.29 5.27L14 22.43a26.33 26.33 0 0 0 .17 4c.036.197.147.373.31.49a11.22 11.22 0 0 0 2.85.34l.14.17v.83l-.14.17h-1.74c-1.74 0-2.93-.06-3.53-.06l-5.61.1v.01zm-163.19-11.29c-.05 2.194.084 4.388.4 6.56.113 1.057.518 2.061 1.17 2.9a2 2 0 0 0 1.45.6c.852.04 1.646-.444 2-1.22.57-1 .82-3 .82-5.87.1-2.666-.159-5.333-.77-7.93-.4-1.37-1.14-2-2.25-2-.884-.022-1.701.481-2.08 1.28-.54.88-.79 2.79-.79 5.67l.05.01zm-3.5 1.81c-.091-2.074.179-4.149.8-6.13a6.62 6.62 0 0 1 2.31-3.17c1.065-.694 2.319-1.043 3.59-1a5.65 5.65 0 0 1 3.33.88 5.51 5.51 0 0 1 2 2.79 18.88 18.88 0 0 1 .68 5.85c.095 2.113-.186 4.226-.83 6.24a6.6 6.6 0 0 1-2.25 3.25 5.73 5.73 0 0 1-3.47 1.05c-1.21.032-2.4-.318-3.4-1a5.51 5.51 0 0 1-2.08-2.85 18.72 18.72 0 0 1-.68-5.91zm-13.31 9.46l-.14-.17v-.83l.14-.17a19.91 19.91 0 0 0 3-.37.63.63 0 0 0 .37-.34 10.39 10.39 0 0 0 .26-2.74l.11-7.12-.08-4.54c-.08-.29-.12-.25-.26-.25-.14.008-.276.046-.4.11l-3.82 1.74-.2-.12c-.048-.567-.142-1.128-.28-1.68l.11-.23c2.951-.807 5.855-1.775 8.7-2.9l.37.23c-.15 1.28-.23 3.05-.29 5.27l-.08 8.07a26.33 26.33 0 0 0 .17 4c.036.197.147.373.31.49a11.22 11.22 0 0 0 2.85.34l.14.17v.83l-.14.17h-1.74c-1.74 0-2.93-.06-3.53-.06l-5.57.11v-.01z" fill="#fff"/></svg>