<svg id="Layer_1" data-name="Layer 1" xmlns="http://www.w3.org/2000/svg" viewBox="0 0 37.44 37.44"><defs><style>.cls-1{fill:#fff;}.cls-2{fill:#231f20;}</style></defs><path class="cls-1" d="M36.72,18.72a18,18,0,1,0-18,18,18,18,0,0,0,18-18"/><path class="cls-2" d="M64.42,24.08V24l.91-.29a7.45,7.45,0,0,0,2.19,2.74,4.18,4.18,0,0,0,2.45.71A3.4,3.4,0,0,0,72.6,26a4.41,4.41,0,0,0,1-3,4.14,4.14,0,0,0-1-3,3.64,3.64,0,0,0-2.82-1.11,4.66,4.66,0,0,0-1.57.26,6.83,6.83,0,0,0-1.68.94l-.57-.31c.17-2.34.26-4.22.26-5.73,0-1.85-.09-3.51-.23-5l.2-.17c2.05.11,4,.17,5.67.17S75,9,76.27,8.89l.18.31a8,8,0,0,0-.18,1.57c0,.25,0,.71.06,1.4l-.2.17c-1.71-.06-3.39-.09-5.07-.09-1.14,0-2.25,0-3.37.06l-.14,4.61a7.32,7.32,0,0,1,1.8-.82,7.49,7.49,0,0,1,1.88-.23,6.07,6.07,0,0,1,4.3,1.43,5.24,5.24,0,0,1,1.51,4,7,7,0,0,1-2.36,5.27,8.38,8.38,0,0,1-5.93,2.22,8.73,8.73,0,0,1-1.8-.17,7.28,7.28,0,0,1-1.62-.51A36,36,0,0,0,64.42,24.08Zm-13,4.39-.14-.17v-.83l.14-.17a20,20,0,0,0,3-.37.63.63,0,0,0,.37-.34,10.41,10.41,0,0,0,.26-2.74c.09-2.68.11-5.07.11-7.12,0-2.74,0-4.25-.08-4.54s-.12-.25-.26-.25a1,1,0,0,0-.4.11l-3.82,1.74-.2-.12A10.65,10.65,0,0,0,50.14,12l.11-.23A83.74,83.74,0,0,0,59,8.86l.37.23c-.15,1.28-.23,3.05-.29,5.27S59,19.26,59,22.43a26.44,26.44,0,0,0,.17,4,.77.77,0,0,0,.31.49,11.21,11.21,0,0,0,2.85.34l.14.17v.83l-.14.17-1.74,0c-1.74,0-2.93-.06-3.53-.06C55.3,28.38,53.45,28.41,51.45,28.47ZM26.23,21.14l.23-9.49a35.51,35.51,0,0,0-2.62,4.16,54.94,54.94,0,0,0-2.74,5.33c1,0,1.77.06,2.42.06Zm0,2.34c-2.68,0-5,0-7,.06l-.06-.37L19,22.34a71.73,71.73,0,0,1,3.33-6.58,60.65,60.65,0,0,1,4-6.19c1-.17,2.13-.4,3.56-.71l.31.28c-.08,1.31-.14,2.68-.2,4.08l-.2,7.92c1,0,1.88,0,2.57,0l.08.2v.46l0,.83v.88l-.06.11c-.83-.08-1.68-.11-2.57-.11v.66a8.68,8.68,0,0,0,.2,2.7,4.68,4.68,0,0,0,2.37.49l.14.08v1l-.14.09c-1.77-.09-3.31-.15-4.56-.15-.71,0-1.34,0-1.85,0l-3.08.12-.12-.12V27.33l.12-.12a22.77,22.77,0,0,0,2.65-.2.77.77,0,0,0,.51-.48A19.52,19.52,0,0,0,26.23,23.48Zm-19.78,5-.14-.17v-.83l.14-.17a20,20,0,0,0,3-.37.63.63,0,0,0,.37-.34,10.41,10.41,0,0,0,.26-2.74c.09-2.68.11-5.07.11-7.12,0-2.74,0-4.25-.08-4.54s-.12-.25-.26-.25a1,1,0,0,0-.4.11L5.62,13.79l-.2-.12A10.65,10.65,0,0,0,5.14,12l.11-.23A83.74,83.74,0,0,0,14,8.86l.37.23c-.15,1.28-.23,3.05-.29,5.27S14,19.26,14,22.43a26.44,26.44,0,0,0,.17,4,.77.77,0,0,0,.31.49,11.21,11.21,0,0,0,2.85.34l.14.17v.83l-.14.17-1.74,0c-1.74,0-2.93-.06-3.53-.06C10.3,28.38,8.45,28.41,6.45,28.47Zm-31.78-4.93,1-.26a6.64,6.64,0,0,0,1.91,3,4.1,4.1,0,0,0,2.62.88,3.44,3.44,0,0,0,2.6-1.05,4,4,0,0,0,1-2.8,3.72,3.72,0,0,0-1-2.76,3.78,3.78,0,0,0-2.82-1,8.36,8.36,0,0,0-1.66.23l-.17-.2c.17-.54.37-1.28.57-2.2a5.05,5.05,0,0,0,.86.06A3.74,3.74,0,0,0-18,16.53a2.93,2.93,0,0,0,.94-2.2,2.51,2.51,0,0,0-.77-1.91,2.92,2.92,0,0,0-2.08-.74,4.54,4.54,0,0,0-1.66.31,2.62,2.62,0,0,0-1,.66,8.8,8.8,0,0,0-.8,1.94l-1.11-.06a30.11,30.11,0,0,0,.91-4.45A8.78,8.78,0,0,1-21.36,9a9.15,9.15,0,0,1,2.42-.31,5.68,5.68,0,0,1,3.82,1.17,3.73,3.73,0,0,1,1.37,3,3.83,3.83,0,0,1-.72,2.36A6.33,6.33,0,0,1-17,17.15a6.55,6.55,0,0,1,2.51.72,3.48,3.48,0,0,1,1.31,1.51,4.61,4.61,0,0,1,.52,2.22A6.5,6.5,0,0,1-15.58,27a9.21,9.21,0,0,1-5.56,1.79,7.28,7.28,0,0,1-1.79-.2,8.65,8.65,0,0,1-1.74-.62C-24.84,26.56-25.07,25.08-25.33,23.54Zm-13.22,4.93-.14-.17v-.83l.14-.17a20,20,0,0,0,3-.37.63.63,0,0,0,.37-.34,10.41,10.41,0,0,0,.26-2.74c.09-2.68.11-5.07.11-7.12,0-2.74,0-4.25-.08-4.54s-.12-.25-.26-.25a1,1,0,0,0-.4.11l-3.82,1.74-.2-.12A10.65,10.65,0,0,0-39.86,12l.11-.23A83.74,83.74,0,0,0-31,8.86l.37.23c-.15,1.28-.23,3.05-.29,5.27s-.08,4.9-.08,8.07a26.44,26.44,0,0,0,.17,4,.77.77,0,0,0,.31.49,11.21,11.21,0,0,0,2.85.34l.14.17v.83l-.14.17-1.74,0c-1.74,0-2.93-.06-3.53-.06C-34.7,28.38-36.55,28.41-38.55,28.47Zm-31.95.06V27l2.88-2.79a28.36,28.36,0,0,0,4.56-5.28,7,7,0,0,0,1-3.5,3.75,3.75,0,0,0-.83-2.6,2.91,2.91,0,0,0-2.28-.91,3.8,3.8,0,0,0-1.91.46,2.29,2.29,0,0,0-1,.94c0,.14-.25.94-.59,2.36h-1.17a48.49,48.49,0,0,0,.57-4.9,7,7,0,0,1,2.31-1.57,7.88,7.88,0,0,1,2.79-.48,6.07,6.07,0,0,1,4.36,1.48,5.06,5.06,0,0,1,1.6,3.88,6.76,6.76,0,0,1-1.26,3.82q-1.23,1.92-6.92,7.06l.08.17H-63c2.42,0,4.28-.05,5.62-.17l.14.17a18,18,0,0,0-.14,1.8,9.94,9.94,0,0,0,.14,1.48l-.14.15c-1.83-.09-3.88-.15-6.22-.15C-65.37,28.38-67.65,28.44-70.5,28.53Zm-13-.06-.14-.17v-.83l.14-.17a20,20,0,0,0,3-.37.63.63,0,0,0,.37-.34,10.41,10.41,0,0,0,.26-2.74c.09-2.68.11-5.07.11-7.12,0-2.74,0-4.25-.08-4.54s-.12-.25-.26-.25a1,1,0,0,0-.4.11l-3.82,1.74-.2-.12A10.65,10.65,0,0,0-84.86,12l.11-.23A83.74,83.74,0,0,0-76,8.86l.37.23c-.15,1.28-.23,3.05-.29,5.27s-.08,4.9-.08,8.07a26.44,26.44,0,0,0,.17,4,.77.77,0,0,0,.31.49,11.21,11.21,0,0,0,2.85.34l.14.17v.83l-.14.17-1.74,0c-1.74,0-2.93-.06-3.53-.06C-79.7,28.38-81.55,28.41-83.55,28.47Zm-30.75,0-.14-.17v-.83l.14-.17a20,20,0,0,0,3-.37.63.63,0,0,0,.37-.34,10.41,10.41,0,0,0,.26-2.74c.09-2.68.11-5.07.11-7.12,0-2.74,0-4.25-.08-4.54s-.12-.25-.26-.25a1,1,0,0,0-.4.11l-3.82,1.74-.2-.12a10.65,10.65,0,0,0-.28-1.68l.11-.23a83.74,83.74,0,0,0,8.7-2.9l.37.23c-.15,1.28-.23,3.05-.29,5.27s-.08,4.9-.08,8.07a26.44,26.44,0,0,0,.17,4,.77.77,0,0,0,.31.49,11.21,11.21,0,0,0,2.85.34l.14.17v.83l-.14.17-1.74,0c-1.74,0-2.93-.06-3.53-.06C-110.45,28.38-112.31,28.41-114.3,28.47Zm-14.25,0-.14-.17v-.83l.14-.17a20,20,0,0,0,3-.37.63.63,0,0,0,.37-.34,10.41,10.41,0,0,0,.26-2.74c.09-2.68.11-5.07.11-7.12,0-2.74,0-4.25-.08-4.54s-.12-.25-.26-.25a1,1,0,0,0-.4.11l-3.82,1.74-.2-.12a10.65,10.65,0,0,0-.28-1.68l.11-.23a83.74,83.74,0,0,0,8.7-2.9l.37.23c-.15,1.28-.23,3.05-.29,5.27s-.08,4.9-.08,8.07a26.44,26.44,0,0,0,.17,4,.77.77,0,0,0,.31.49,11.21,11.21,0,0,0,2.85.34l.14.17v.83l-.14.17-1.74,0c-1.74,0-2.93-.06-3.53-.06C-124.7,28.38-126.55,28.41-128.55,28.47Zm-28.24-11.29a39.35,39.35,0,0,0,.4,6.56,5.71,5.71,0,0,0,1.17,2.9,2,2,0,0,0,1.45.6,2.09,2.09,0,0,0,2-1.22c.57-1,.82-3,.82-5.87a29.76,29.76,0,0,0-.77-7.93c-.4-1.37-1.14-2-2.25-2A2.24,2.24,0,0,0-156,11.51C-156.54,12.39-156.79,14.3-156.79,17.18ZM-160.24,19a17.88,17.88,0,0,1,.8-6.13,6.62,6.62,0,0,1,2.31-3.17,6.19,6.19,0,0,1,3.59-1,5.65,5.65,0,0,1,3.33.88,5.51,5.51,0,0,1,2,2.79,18.87,18.87,0,0,1,.68,5.85,17.85,17.85,0,0,1-.83,6.24,6.6,6.6,0,0,1-2.25,3.25,5.73,5.73,0,0,1-3.47,1.05,5.77,5.77,0,0,1-3.4-1,5.51,5.51,0,0,1-2.08-2.85A18.73,18.73,0,0,1-160.24,19Zm-13.31,9.46-.14-.17v-.83l.14-.17a20,20,0,0,0,3-.37.63.63,0,0,0,.37-.34,10.41,10.41,0,0,0,.26-2.74c.09-2.68.11-5.07.11-7.12,0-2.74,0-4.25-.08-4.54s-.12-.25-.26-.25a1,1,0,0,0-.4.11l-3.82,1.74-.2-.12a10.65,10.65,0,0,0-.28-1.68l.11-.23a83.74,83.74,0,0,0,8.7-2.9l.37.23c-.15,1.28-.23,3.05-.29,5.27s-.08,4.9-.08,8.07a26.44,26.44,0,0,0,.17,4,.77.77,0,0,0,.31.49,11.21,11.21,0,0,0,2.85.34l.14.17v.83l-.14.17-1.74,0c-1.74,0-2.93-.06-3.53-.06C-169.7,28.38-171.55,28.41-173.55,28.47Z"/></svg>