<svg id="Layer_1" data-name="Layer 1" xmlns="http://www.w3.org/2000/svg" viewBox="0 0 37.44 37.44"><defs><style>.cls-1{fill:#fff;}.cls-2{fill:#231f20;}</style></defs><path class="cls-1" d="M36.72,18.72a18,18,0,1,0-18,18,18,18,0,0,0,18-18"/><path class="cls-2" d="M19.39,24.08V24l.91-.29a7.45,7.45,0,0,0,2.19,2.74,4.18,4.18,0,0,0,2.45.71A3.4,3.4,0,0,0,27.57,26a4.41,4.41,0,0,0,1-3,4.14,4.14,0,0,0-1-3,3.65,3.65,0,0,0-2.82-1.11,4.66,4.66,0,0,0-1.57.26,6.49,6.49,0,0,0-1.68.94l-.57-.31c.17-2.34.25-4.22.25-5.73,0-1.85-.08-3.51-.22-5l.2-.17c2,.11,4,.17,5.67.17s3.16-.06,4.47-.17l.17.31a8.79,8.79,0,0,0-.17,1.57c0,.25,0,.71.06,1.4l-.2.17c-1.71-.06-3.39-.09-5.07-.09-1.14,0-2.25,0-3.37.06l-.14,4.61a7.32,7.32,0,0,1,1.8-.82,7.49,7.49,0,0,1,1.88-.23,6.07,6.07,0,0,1,4.3,1.43,5.24,5.24,0,0,1,1.51,4,7.06,7.06,0,0,1-2.36,5.27,8.39,8.39,0,0,1-5.93,2.22,8.73,8.73,0,0,1-1.8-.17,7.28,7.28,0,0,1-1.62-.51A38.41,38.41,0,0,0,19.39,24.08Zm-13,4.39-.14-.17v-.83l.14-.17a20,20,0,0,0,3-.37.66.66,0,0,0,.37-.34A10.41,10.41,0,0,0,10,23.85c.08-2.68.11-5.07.11-7.12,0-2.74,0-4.25-.08-4.54s-.12-.25-.26-.25a1,1,0,0,0-.4.11L5.59,13.79l-.2-.12A10.65,10.65,0,0,0,5.11,12l.11-.23a83.74,83.74,0,0,0,8.7-2.9l.37.23c-.15,1.28-.23,3.05-.29,5.27s-.08,4.9-.08,8.07a26.44,26.44,0,0,0,.17,4,.77.77,0,0,0,.31.49,11.21,11.21,0,0,0,2.85.34l.14.17v.83l-.14.17-1.74,0c-1.74,0-2.93-.06-3.53-.06C10.27,28.38,8.41,28.41,6.42,28.47ZM-18.8,21.14l.23-9.49a36.61,36.61,0,0,0-2.63,4.16,57,57,0,0,0-2.73,5.33c1,0,1.76.06,2.42.06Zm0,2.34c-2.68,0-5,0-7,.06l-.06-.37-.14-.83a71.73,71.73,0,0,1,3.33-6.58,60.65,60.65,0,0,1,4-6.19c1-.17,2.13-.4,3.56-.71l.31.28c-.08,1.31-.14,2.68-.2,4.08l-.2,7.92c1,0,1.88,0,2.57,0l.08.2v.46l0,.83v.88l0,.11c-.83-.08-1.68-.11-2.57-.11v.66a8.68,8.68,0,0,0,.2,2.7,4.68,4.68,0,0,0,2.37.49l.14.08v1l-.14.09c-1.77-.09-3.31-.15-4.56-.15-.72,0-1.34,0-1.86,0l-3.07.12-.12-.12V27.33l.12-.12a22.77,22.77,0,0,0,2.65-.2.79.79,0,0,0,.51-.48A19.52,19.52,0,0,0-18.8,23.48Zm-19.78,5-.14-.17v-.83l.14-.17a20,20,0,0,0,3-.37.66.66,0,0,0,.37-.34A10.41,10.41,0,0,0-35,23.85c.08-2.68.11-5.07.11-7.12,0-2.74,0-4.25-.08-4.54s-.12-.25-.26-.25a1,1,0,0,0-.4.11l-3.82,1.74-.2-.12A10.65,10.65,0,0,0-39.89,12l.11-.23a83.74,83.74,0,0,0,8.7-2.9l.37.23c-.15,1.28-.23,3.05-.29,5.27s-.08,4.9-.08,8.07a26.44,26.44,0,0,0,.17,4,.77.77,0,0,0,.31.49,11.21,11.21,0,0,0,2.85.34l.14.17v.83l-.14.17-1.74,0c-1.74,0-2.93-.06-3.53-.06C-34.73,28.38-36.59,28.41-38.58,28.47Zm-31.78-4.93,1-.26a6.55,6.55,0,0,0,1.91,3,4.1,4.1,0,0,0,2.62.88,3.44,3.44,0,0,0,2.6-1.05,4,4,0,0,0,1-2.8,3.71,3.71,0,0,0-1-2.76,3.81,3.81,0,0,0-2.82-1,8.36,8.36,0,0,0-1.66.23l-.17-.2c.17-.54.37-1.28.57-2.2a5.05,5.05,0,0,0,.86.06A3.74,3.74,0,0,0-63,16.53a2.93,2.93,0,0,0,.94-2.2,2.51,2.51,0,0,0-.77-1.91,2.93,2.93,0,0,0-2.08-.74,4.54,4.54,0,0,0-1.66.31,2.62,2.62,0,0,0-1,.66,8.8,8.8,0,0,0-.8,1.94l-1.11-.06a30.11,30.11,0,0,0,.91-4.45A8.9,8.9,0,0,1-66.4,9,9.23,9.23,0,0,1-64,8.69a5.68,5.68,0,0,1,3.82,1.17,3.73,3.73,0,0,1,1.37,3,3.83,3.83,0,0,1-.72,2.36A6.33,6.33,0,0,1-62,17.15a6.55,6.55,0,0,1,2.51.72,3.54,3.54,0,0,1,1.31,1.51,4.61,4.61,0,0,1,.52,2.22A6.5,6.5,0,0,1-60.61,27a9.23,9.23,0,0,1-5.56,1.79,7.23,7.23,0,0,1-1.79-.2,8.65,8.65,0,0,1-1.74-.62C-69.87,26.56-70.1,25.08-70.36,23.54Zm-13.22,4.93-.14-.17v-.83l.14-.17a20,20,0,0,0,3-.37.66.66,0,0,0,.37-.34A10.41,10.41,0,0,0-80,23.85c.08-2.68.11-5.07.11-7.12,0-2.74,0-4.25-.08-4.54s-.12-.25-.26-.25a1,1,0,0,0-.4.11l-3.82,1.74-.2-.12A10.65,10.65,0,0,0-84.89,12l.11-.23a83.74,83.74,0,0,0,8.7-2.9l.37.23c-.15,1.28-.23,3.05-.29,5.27s-.08,4.9-.08,8.07a26.44,26.44,0,0,0,.17,4,.77.77,0,0,0,.31.49,11.21,11.21,0,0,0,2.85.34l.14.17v.83l-.14.17-1.74,0c-1.74,0-2.93-.06-3.53-.06C-79.73,28.38-81.59,28.41-83.58,28.47Zm-31.95.06V27l2.88-2.79a28.36,28.36,0,0,0,4.56-5.28,7.08,7.08,0,0,0,1-3.5,3.75,3.75,0,0,0-.83-2.6,2.91,2.91,0,0,0-2.28-.91,3.8,3.8,0,0,0-1.91.46,2.23,2.23,0,0,0-1,.94c0,.14-.25.94-.6,2.36h-1.16a48.49,48.49,0,0,0,.57-4.9A7.1,7.1,0,0,1-112,9.17a8,8,0,0,1,2.8-.48,6.08,6.08,0,0,1,4.36,1.48,5,5,0,0,1,1.59,3.88,6.75,6.75,0,0,1-1.25,3.82c-.83,1.28-3.13,3.64-6.93,7.06l.09.17h3.25c2.42,0,4.28-.05,5.61-.17l.15.17c-.09.8-.15,1.4-.15,1.8a10.12,10.12,0,0,0,.15,1.48l-.15.15c-1.82-.09-3.87-.15-6.21-.15C-110.4,28.38-112.68,28.44-115.53,28.53Zm-13.05-.06-.14-.17v-.83l.14-.17a20,20,0,0,0,3-.37.66.66,0,0,0,.37-.34,10.41,10.41,0,0,0,.26-2.74c.08-2.68.11-5.07.11-7.12,0-2.74,0-4.25-.08-4.54s-.12-.25-.26-.25a1,1,0,0,0-.4.11l-3.82,1.74-.2-.12a10.65,10.65,0,0,0-.28-1.68l.11-.23a83.74,83.74,0,0,0,8.7-2.9l.37.23c-.15,1.28-.23,3.05-.29,5.27s-.08,4.9-.08,8.07a26.44,26.44,0,0,0,.17,4,.77.77,0,0,0,.31.49,11.21,11.21,0,0,0,2.85.34l.14.17v.83l-.14.17-1.74,0c-1.74,0-2.93-.06-3.53-.06C-124.73,28.38-126.59,28.41-128.58,28.47Zm-30.75,0-.14-.17v-.83l.14-.17a20,20,0,0,0,3-.37.66.66,0,0,0,.37-.34,10.91,10.91,0,0,0,.26-2.74c.08-2.68.11-5.07.11-7.12,0-2.74,0-4.25-.08-4.54s-.12-.25-.26-.25a1,1,0,0,0-.4.11l-3.82,1.74-.2-.12a10.65,10.65,0,0,0-.28-1.68l.11-.23a83.74,83.74,0,0,0,8.7-2.9l.37.23c-.15,1.28-.23,3.05-.29,5.27s-.08,4.9-.08,8.07a26.44,26.44,0,0,0,.17,4,.77.77,0,0,0,.31.49,11.21,11.21,0,0,0,2.85.34l.14.17v.83l-.14.17-1.74,0c-1.74,0-2.93-.06-3.53-.06C-155.48,28.38-157.34,28.41-159.33,28.47Zm-14.25,0-.14-.17v-.83l.14-.17a20,20,0,0,0,3-.37.66.66,0,0,0,.37-.34,10.41,10.41,0,0,0,.26-2.74c.08-2.68.11-5.07.11-7.12,0-2.74,0-4.25-.08-4.54s-.12-.25-.26-.25a1,1,0,0,0-.4.11l-3.82,1.74-.2-.12a10.65,10.65,0,0,0-.28-1.68l.11-.23a83.74,83.74,0,0,0,8.7-2.9l.37.23c-.15,1.28-.23,3.05-.29,5.27s-.08,4.9-.08,8.07a26.44,26.44,0,0,0,.17,4,.77.77,0,0,0,.31.49,11.21,11.21,0,0,0,2.85.34l.14.17v.83l-.14.17-1.74,0c-1.74,0-2.93-.06-3.53-.06C-169.73,28.38-171.59,28.41-173.58,28.47Zm-28.24-11.29a39.35,39.35,0,0,0,.4,6.56,5.81,5.81,0,0,0,1.16,2.9,2,2,0,0,0,1.46.6,2.09,2.09,0,0,0,2-1.22c.56-1,.82-3,.82-5.87a30.19,30.19,0,0,0-.77-7.93c-.4-1.37-1.14-2-2.25-2a2.24,2.24,0,0,0-2.05,1.31C-201.57,12.39-201.82,14.3-201.82,17.18ZM-205.27,19a17.64,17.64,0,0,1,.8-6.13,6.62,6.62,0,0,1,2.31-3.17,6.19,6.19,0,0,1,3.59-1,5.67,5.67,0,0,1,3.33.88,5.57,5.57,0,0,1,2,2.79,18.87,18.87,0,0,1,.68,5.85,17.85,17.85,0,0,1-.83,6.24,6.6,6.6,0,0,1-2.25,3.25,5.74,5.74,0,0,1-3.48,1.05,5.76,5.76,0,0,1-3.39-1,5.51,5.51,0,0,1-2.08-2.85A18.73,18.73,0,0,1-205.27,19Zm-13.31,9.46-.14-.17v-.83l.14-.17a20,20,0,0,0,3-.37.66.66,0,0,0,.37-.34,10.41,10.41,0,0,0,.26-2.74c.08-2.68.11-5.07.11-7.12,0-2.74,0-4.25-.08-4.54s-.12-.25-.26-.25a1,1,0,0,0-.4.11l-3.82,1.74-.2-.12a10.65,10.65,0,0,0-.28-1.68l.11-.23a83.74,83.74,0,0,0,8.7-2.9l.37.23c-.15,1.28-.23,3.05-.29,5.27s-.08,4.9-.08,8.07a26.44,26.44,0,0,0,.17,4,.77.77,0,0,0,.31.49,11.21,11.21,0,0,0,2.85.34l.14.17v.83l-.14.17-1.74,0c-1.74,0-2.93-.06-3.53-.06C-214.73,28.38-216.59,28.41-218.58,28.47Z"/></svg>