<svg xmlns="http://www.w3.org/2000/svg" viewBox="0 0 38 38"  fill-rule="nonzero" stroke-linejoin="round" stroke-miterlimit="2" xmlns:v="https://vecta.io/nano"><path d="M36.72 18.72c0-9.875-8.125-18-18-18s-18 8.125-18 18 8.125 18 18 18 18-8.125 18-18" fill="#202020"/><path d="M19.39 24.08V24l.91-.29a7.44 7.44 0 0 0 2.19 2.74c.723.486 1.579.734 2.45.71 1.004.021 1.968-.404 2.63-1.16a4.41 4.41 0 0 0 1-3 4.14 4.14 0 0 0-1-3 3.65 3.65 0 0 0-2.82-1.11c-.534-.004-1.065.084-1.57.26a6.48 6.48 0 0 0-1.68.94l-.57-.31.25-5.73-.22-5 .2-.17 5.67.17 4.47-.17.17.31a8.72 8.72 0 0 0-.17 1.57l.06 1.4-.2.17-5.07-.09-3.37.06-.14 4.61a7.32 7.32 0 0 1 1.8-.82 7.49 7.49 0 0 1 1.88-.23 6.07 6.07 0 0 1 4.3 1.43 5.24 5.24 0 0 1 1.51 4 7.06 7.06 0 0 1-2.36 5.27 8.39 8.39 0 0 1-5.93 2.22 8.7 8.7 0 0 1-1.8-.17c-.558-.106-1.102-.277-1.62-.51-.251-1.356-.575-2.698-.97-4.02zm-13 4.39l-.14-.17v-.83l.14-.17a19.91 19.91 0 0 0 3-.37.66.66 0 0 0 .37-.34c.201-.899.282-1.82.24-2.74l.11-7.12-.08-4.54c-.08-.29-.12-.25-.26-.25-.14.008-.276.046-.4.11l-3.78 1.74-.2-.12c-.049-.563-.142-1.122-.28-1.67l.11-.23c2.951-.807 5.855-1.775 8.7-2.9l.37.23c-.15 1.28-.23 3.05-.29 5.27l-.08 8.07a26.33 26.33 0 0 0 .17 4c.036.197.147.373.31.49a11.22 11.22 0 0 0 2.85.34l.14.17v.83l-.14.17h-1.74c-1.74 0-2.93-.06-3.53-.06l-5.59.09z" fill="#fff"/></svg>