<svg xmlns="http://www.w3.org/2000/svg" viewBox="0 0 38 38"  fill-rule="nonzero" stroke-linejoin="round" stroke-miterlimit="2" xmlns:v="https://vecta.io/nano"><path d="M36.72 18.72c0-9.875-8.125-18-18-18s-18 8.125-18 18 8.125 18 18 18 18-8.125 18-18" fill="#202020"/><path d="M12.12 29v-1.61l3-2.94c1.847-1.644 3.486-3.508 4.88-5.55.65-1.121.995-2.394 1-3.69a3.92 3.92 0 0 0-.87-2.73 3 3 0 0 0-2.4-1 4.06 4.06 0 0 0-2 .48c-.444.218-.811.567-1.05 1-.06.15-.27 1-.63 2.49h-1.21c.291-1.708.491-3.431.6-5.16.69-.709 1.516-1.271 2.43-1.65a8.28 8.28 0 0 1 2.94-.51 6.4 6.4 0 0 1 4.59 1.59 5.3 5.3 0 0 1 1.68 4.08c-.027 1.436-.487 2.83-1.32 4-.88 1.35-3.3 3.84-7.29 7.44l.09.18H20c2.55 0 4.49-.06 5.9-.18l.16.18c-.09.84-.16 1.47-.16 1.89a11.44 11.44 0 0 0 .1 1.58l-.16.15a138.52 138.52 0 0 0-6.54-.15c-1.78 0-4.18.11-7.18.11z" fill="#fff"/></svg>