<svg id="Layer_1" data-name="Layer 1" xmlns="http://www.w3.org/2000/svg" viewBox="0 0 37.44 37.44"><defs><style>.cls-1{fill:#fff;}.cls-2{fill:#231f20;}</style></defs><path class="cls-1" d="M36.72,18.72a18,18,0,1,0-18,18,18,18,0,0,0,18-18"/><path class="cls-2" d="M147,24.36v-.12l1-.3a7.8,7.8,0,0,0,2.32,2.88,4.31,4.31,0,0,0,2.57.75,3.56,3.56,0,0,0,2.76-1.17,4.62,4.62,0,0,0,1.05-3.18A4.32,4.32,0,0,0,155.57,20a3.84,3.84,0,0,0-3-1.17,5,5,0,0,0-1.65.27,7.23,7.23,0,0,0-1.77,1l-.59-.33c.17-2.46.26-4.44.26-6,0-1.95-.09-3.69-.24-5.22l.21-.18c2.16.12,4.17.18,6,.18s3.33-.06,4.71-.18l.18.33a8.89,8.89,0,0,0-.18,1.65c0,.27,0,.75.06,1.47l-.21.18c-1.8-.06-3.57-.09-5.34-.09-1.2,0-2.37,0-3.54.06l-.15,4.86a7.28,7.28,0,0,1,1.9-.87,7.64,7.64,0,0,1,2-.24,6.45,6.45,0,0,1,4.53,1.5,5.54,5.54,0,0,1,1.59,4.17,7.42,7.42,0,0,1-2.49,5.55,8.8,8.8,0,0,1-6.23,2.34,9.8,9.8,0,0,1-1.9-.18,8.11,8.11,0,0,1-1.71-.54A37.56,37.56,0,0,0,147,24.36Zm-37.83-3.09.24-10a39,39,0,0,0-2.75,4.38,55.13,55.13,0,0,0-2.88,5.61c1,0,1.86.06,2.54.06Zm0,2.46c-2.81,0-5.27,0-7.4.06l-.07-.39-.14-.87a70.9,70.9,0,0,1,3.51-6.93,62,62,0,0,1,4.17-6.51c1-.18,2.25-.42,3.75-.75l.33.3c-.1,1.38-.16,2.82-.22,4.29l-.21,8.34c1.08,0,2,0,2.7,0l.09.21v.48l0,.87v.93l-.07.12a26.31,26.31,0,0,0-2.7-.12v.69a9.09,9.09,0,0,0,.21,2.85,5,5,0,0,0,2.49.51l.15.09V29l-.15.09c-1.85-.09-3.48-.15-4.8-.15-.75,0-1.41,0-2,0l-3.23.12-.12-.12V27.78l.12-.12a27.12,27.12,0,0,0,2.79-.21.88.88,0,0,0,.54-.51A21.7,21.7,0,0,0,109.19,23.73Zm-51.89.06,1-.27a6.85,6.85,0,0,0,2,3.12,4.25,4.25,0,0,0,2.76.93,3.57,3.57,0,0,0,2.72-1.11,4.15,4.15,0,0,0,1-2.94,3.91,3.91,0,0,0-1.07-2.91,4,4,0,0,0-3-1.08,8.43,8.43,0,0,0-1.74.24l-.18-.21c.18-.57.39-1.35.6-2.31a5.37,5.37,0,0,0,.89.06,3.9,3.9,0,0,0,2.65-.9,3.07,3.07,0,0,0,1-2.31,2.61,2.61,0,0,0-.8-2,3.06,3.06,0,0,0-2.2-.78,4.67,4.67,0,0,0-1.73.33,2.7,2.7,0,0,0-1.08.69,9.15,9.15,0,0,0-.84,2l-1.17-.06a31,31,0,0,0,1-4.68,8.85,8.85,0,0,1,2.31-1.14A9.7,9.7,0,0,1,64,8.16a6,6,0,0,1,4,1.23,3.92,3.92,0,0,1,1.43,3.15A4.08,4.08,0,0,1,68.72,15a6.72,6.72,0,0,1-2.63,2,6.85,6.85,0,0,1,2.63.75,3.72,3.72,0,0,1,1.38,1.59,4.87,4.87,0,0,1,.54,2.34,6.85,6.85,0,0,1-3.09,5.64,9.71,9.71,0,0,1-5.84,1.89,8.11,8.11,0,0,1-1.89-.21A9,9,0,0,1,58,28.41C57.81,27,57.57,25.41,57.3,23.79ZM12.12,29V27.39l3-2.94A30.27,30.27,0,0,0,20,18.9,7.42,7.42,0,0,0,21,15.21a3.92,3.92,0,0,0-.87-2.73,3,3,0,0,0-2.4-1,4.06,4.06,0,0,0-2,.48,2.41,2.41,0,0,0-1.05,1c-.06.15-.27,1-.63,2.49H12.84a48.94,48.94,0,0,0,.6-5.16,7.29,7.29,0,0,1,2.43-1.65,8.28,8.28,0,0,1,2.94-.51A6.4,6.4,0,0,1,23.4,9.72a5.3,5.3,0,0,1,1.68,4.08,7.12,7.12,0,0,1-1.32,4c-.88,1.35-3.3,3.84-7.29,7.44l.09.18H20c2.55,0,4.49-.06,5.9-.18l.16.18c-.09.84-.16,1.47-.16,1.89A11.44,11.44,0,0,0,26,28.89l-.16.15c-1.91-.09-4.08-.15-6.54-.15C17.52,28.89,15.12,29,12.12,29ZM-31.62,29l-.15-.18v-.87l.15-.18a20.6,20.6,0,0,0,3.15-.39.66.66,0,0,0,.39-.36,11.22,11.22,0,0,0,.27-2.88c.09-2.82.12-5.34.12-7.5q0-4.32-.09-4.77,0-.27-.27-.27a1,1,0,0,0-.42.12l-4,1.83-.21-.12a11.34,11.34,0,0,0-.3-1.77l.12-.24a89.8,89.8,0,0,0,9.15-3.06l.39.24c-.15,1.35-.24,3.21-.3,5.55s-.09,5.16-.09,8.49a28.76,28.76,0,0,0,.18,4.26.81.81,0,0,0,.33.51,11.34,11.34,0,0,0,3,.36l.15.18v.87l-.15.18L-22,29c-1.83,0-3.09-.06-3.72-.06Q-28.47,28.89-31.62,29Z"/></svg>