<svg xmlns="http://www.w3.org/2000/svg" viewBox="0 0 38 38"  fill-rule="nonzero" stroke-linejoin="round" stroke-miterlimit="2" xmlns:v="https://vecta.io/nano"><path d="M36.72 18.72c0-9.875-8.125-18-18-18s-18 8.125-18 18 8.125 18 18 18 18-8.125 18-18" fill="#202020"/><path d="M12.38 23.79l1-.27a6.84 6.84 0 0 0 2 3.12 4.27 4.27 0 0 0 2.76.93c1.026.036 2.02-.368 2.73-1.11A4.2 4.2 0 0 0 22 23.52a3.92 3.92 0 0 0-1.08-2.91c-.807-.76-1.894-1.151-3-1.08a8.51 8.51 0 0 0-1.74.24l-.18-.21c.18-.57.39-1.35.6-2.31a5.65 5.65 0 0 0 .9.06 3.86 3.86 0 0 0 2.64-.9c.655-.586 1.021-1.431 1-2.31a2.62 2.62 0 0 0-.81-2 3.05 3.05 0 0 0-2.19-.78 4.71 4.71 0 0 0-1.74.33c-.409.142-.779.379-1.08.69a9.17 9.17 0 0 0-.84 2l-1.17-.06c.453-1.532.788-3.097 1-4.68.713-.487 1.49-.871 2.31-1.14.832-.222 1.689-.333 2.55-.33a6 6 0 0 1 4 1.23c.941.77 1.473 1.935 1.44 3.15a4.08 4.08 0 0 1-.8 2.49c-.701.875-1.608 1.562-2.64 2a6.99 6.99 0 0 1 2.64.75 3.79 3.79 0 0 1 1.38 1.59c.367.725.553 1.528.54 2.34-.029 2.275-1.188 4.392-3.09 5.64a9.73 9.73 0 0 1-5.85 1.89c-.636.004-1.27-.066-1.89-.21a9.01 9.01 0 0 1-1.83-.66l-.69-4.55z" fill="#fff"/></svg>