<svg id="Layer_1" data-name="Layer 1" xmlns="http://www.w3.org/2000/svg" viewBox="0 0 37.44 37.44"><defs><style>.cls-1{fill:#fff;}.cls-2{fill:#231f20;}</style></defs><path class="cls-1" d="M36.72,18.72a18,18,0,1,0-18,18,18,18,0,0,0,18-18"/><path class="cls-2" d="M102.11,24.36v-.12l1-.3a7.79,7.79,0,0,0,2.31,2.88,4.36,4.36,0,0,0,2.58.75,3.56,3.56,0,0,0,2.76-1.17,4.62,4.62,0,0,0,1-3.18A4.32,4.32,0,0,0,110.66,20a3.84,3.84,0,0,0-3-1.17,4.88,4.88,0,0,0-1.65.27,7.23,7.23,0,0,0-1.77,1l-.6-.33c.18-2.46.27-4.44.27-6,0-1.95-.09-3.69-.24-5.22l.21-.18c2.16.12,4.17.18,6,.18s3.33-.06,4.71-.18l.18.33a8.89,8.89,0,0,0-.18,1.65c0,.27,0,.75.06,1.47l-.21.18c-1.8-.06-3.57-.09-5.34-.09-1.2,0-2.37,0-3.54.06l-.15,4.86A7.39,7.39,0,0,1,107.3,16a7.78,7.78,0,0,1,2-.24,6.45,6.45,0,0,1,4.53,1.5,5.54,5.54,0,0,1,1.59,4.17,7.42,7.42,0,0,1-2.49,5.55,8.81,8.81,0,0,1-6.24,2.34,9.62,9.62,0,0,1-1.89-.18,8.11,8.11,0,0,1-1.71-.54A37.56,37.56,0,0,0,102.11,24.36ZM64.28,21.27l.24-10a38.67,38.67,0,0,0-2.76,4.38,59.56,59.56,0,0,0-2.88,5.61c1,0,1.86.06,2.55.06Zm0,2.46c-2.82,0-5.28,0-7.41.06l-.06-.39-.15-.87a75.68,75.68,0,0,1,3.51-6.93,65.4,65.4,0,0,1,4.17-6.51c1-.18,2.25-.42,3.75-.75l.33.3c-.09,1.38-.15,2.82-.21,4.29L68,21.27c1.08,0,2,0,2.7,0l.09.21v.48l0,.87v.93l-.06.12a26.31,26.31,0,0,0-2.7-.12v.69a9.09,9.09,0,0,0,.21,2.85,4.91,4.91,0,0,0,2.49.51l.15.09V29L70.7,29c-1.86-.09-3.48-.15-4.8-.15-.75,0-1.41,0-2,0L60.71,29l-.12-.12V27.78l.12-.12a26.5,26.5,0,0,0,2.79-.21.83.83,0,0,0,.54-.51A21,21,0,0,0,64.28,23.73Zm-51.9.06,1-.27a6.85,6.85,0,0,0,2,3.12,4.27,4.27,0,0,0,2.76.93,3.6,3.6,0,0,0,2.73-1.11A4.2,4.2,0,0,0,22,23.52a3.92,3.92,0,0,0-1.08-2.91,4,4,0,0,0-3-1.08,8.52,8.52,0,0,0-1.74.24L16,19.56c.18-.57.39-1.35.6-2.31a5.54,5.54,0,0,0,.9.06,3.86,3.86,0,0,0,2.64-.9,3,3,0,0,0,1-2.31,2.62,2.62,0,0,0-.81-2,3.05,3.05,0,0,0-2.19-.78,4.73,4.73,0,0,0-1.74.33,2.77,2.77,0,0,0-1.08.69,9.15,9.15,0,0,0-.84,2l-1.17-.06a31,31,0,0,0,1-4.68,9.17,9.17,0,0,1,2.31-1.14,9.72,9.72,0,0,1,2.55-.33,6,6,0,0,1,4,1.23,3.93,3.93,0,0,1,1.44,3.15A4.08,4.08,0,0,1,23.81,15a6.77,6.77,0,0,1-2.64,2,7,7,0,0,1,2.64.75,3.79,3.79,0,0,1,1.38,1.59,5,5,0,0,1,.54,2.34,6.85,6.85,0,0,1-3.09,5.64,9.73,9.73,0,0,1-5.85,1.89,8.11,8.11,0,0,1-1.89-.21,9,9,0,0,1-1.83-.66C12.89,27,12.65,25.41,12.38,23.79ZM-32.8,29V27.39l3-2.94A30.27,30.27,0,0,0-25,18.9a7.42,7.42,0,0,0,1.08-3.69,3.92,3.92,0,0,0-.87-2.73,3,3,0,0,0-2.4-1,4.06,4.06,0,0,0-2,.48,2.41,2.41,0,0,0-1,1c-.06.15-.27,1-.63,2.49h-1.23a48.94,48.94,0,0,0,.6-5.16A7.29,7.29,0,0,1-29,8.67a8.28,8.28,0,0,1,2.94-.51,6.4,6.4,0,0,1,4.59,1.56,5.3,5.3,0,0,1,1.68,4.08,7.12,7.12,0,0,1-1.32,4c-.87,1.35-3.3,3.84-7.29,7.44l.09.18h3.42c2.55,0,4.5-.06,5.91-.18l.15.18c-.09.84-.15,1.47-.15,1.89a11.24,11.24,0,0,0,.15,1.56L-19,29c-1.92-.09-4.08-.15-6.54-.15C-27.4,28.89-29.8,29-32.8,29ZM-76.54,29l-.15-.18v-.87l.15-.18a20.6,20.6,0,0,0,3.15-.39A.66.66,0,0,0-73,27a11.22,11.22,0,0,0,.27-2.88c.09-2.82.12-5.34.12-7.5q0-4.32-.09-4.77,0-.27-.27-.27a1,1,0,0,0-.42.12l-4,1.83-.21-.12a11.34,11.34,0,0,0-.3-1.77l.12-.24a89.8,89.8,0,0,0,9.15-3.06l.39.24c-.15,1.35-.24,3.21-.3,5.55s-.09,5.16-.09,8.49a28.76,28.76,0,0,0,.18,4.26.81.81,0,0,0,.33.51,11.34,11.34,0,0,0,3,.36l.15.18v.87l-.15.18L-67,29c-1.83,0-3.09-.06-3.72-.06Q-73.39,28.89-76.54,29Z"/></svg>