<?xml version="1.0" encoding="UTF-8" standalone="no"?>
<!DOCTYPE svg PUBLIC "-//W3C//DTD SVG 1.1//EN" "http://www.w3.org/Graphics/SVG/1.1/DTD/svg11.dtd">
<svg width="100%" height="100%" viewBox="0 0 38 38" version="1.1" xmlns="http://www.w3.org/2000/svg" xmlns:xlink="http://www.w3.org/1999/xlink" xml:space="preserve" xmlns:serif="http://www.serif.com/" style="fill-rule:evenodd;clip-rule:evenodd;stroke-linejoin:round;stroke-miterlimit:2;">
    <path d="M36.72,18.72C36.72,8.845 28.595,0.72 18.72,0.72C8.845,0.72 0.72,8.845 0.72,18.72C0.72,28.595 8.845,36.72 18.72,36.72C28.595,36.72 36.72,28.595 36.72,18.72" style="fill:rgb(32,32,32);fill-rule:nonzero;"/>
    <path d="M19.36,21.27L19.6,11.27C18.583,12.667 17.661,14.13 16.84,15.65C15.795,17.472 14.847,19.348 14,21.27C15,21.27 15.86,21.33 16.55,21.33L19.36,21.27ZM19.36,23.73C16.54,23.73 14.08,23.73 11.95,23.79L11.89,23.4L11.74,22.53C12.791,20.161 13.962,17.848 15.25,15.6C16.51,13.35 17.903,11.176 19.42,9.09C20.42,8.91 21.67,8.67 23.17,8.34L23.5,8.64C23.41,10.02 23.35,11.46 23.29,12.93L23.08,21.27L25.78,21.27L25.87,21.48L25.87,23.76L25.81,23.88C24.913,23.794 24.011,23.754 23.11,23.76L23.11,24.45C23.029,25.405 23.1,26.367 23.32,27.3C24.091,27.686 24.95,27.861 25.81,27.81L25.96,27.9L25.96,29L25.81,29.09C23.95,29 22.33,28.94 21.01,28.94L19.06,28.94L15.79,29L15.67,28.88L15.67,27.78L15.79,27.66C16.723,27.639 17.654,27.569 18.58,27.45C18.83,27.375 19.03,27.185 19.12,26.94C19.282,25.878 19.362,24.805 19.36,23.73Z" style="fill:white;fill-rule:nonzero;"/>
</svg>
