<svg id="Layer_1" data-name="Layer 1" xmlns="http://www.w3.org/2000/svg" viewBox="0 0 37.44 37.44"><defs><style>.cls-1{fill:#fff;}.cls-2{fill:#231f20;}</style></defs><path class="cls-1" d="M36.72,18.72a18,18,0,1,0-18,18,18,18,0,0,0,18-18"/><path class="cls-2" d="M18.93,18.72a2.56,2.56,0,0,0-2,.81,3.84,3.84,0,0,0-.72,2.58A8.45,8.45,0,0,0,17,26.43a2.6,2.6,0,0,0,2.22,1.26,2.24,2.24,0,0,0,1.92-1,5.18,5.18,0,0,0,.75-3.15A6.77,6.77,0,0,0,21,19.74,2.44,2.44,0,0,0,18.93,18.72Zm-2.67-.18a13.05,13.05,0,0,1,2.34-2,5.18,5.18,0,0,1,2.19-.42,4.35,4.35,0,0,1,3.42,1.5,6.16,6.16,0,0,1,1.32,4.23,7.81,7.81,0,0,1-2,5.49,6,6,0,0,1-4.65,2,6.45,6.45,0,0,1-3.48-1,6.73,6.73,0,0,1-2.34-2.79,12.08,12.08,0,0,1-.81-4.83,14.18,14.18,0,0,1,1.38-6.63,11,11,0,0,1,4-4.26,10.83,10.83,0,0,1,5.64-1.65l1.26,1.11-.51.51a6.24,6.24,0,0,0-1.29-.15,5.13,5.13,0,0,0-2.94,1,6.91,6.91,0,0,0-2.4,2.82A14.35,14.35,0,0,0,16.26,18.54Z"/></svg>