<svg xmlns="http://www.w3.org/2000/svg" viewBox="0 0 38 38"  fill-rule="nonzero" stroke-linejoin="round" stroke-miterlimit="2" xmlns:v="https://vecta.io/nano"><path d="M36.72 18.72c0-9.875-8.125-18-18-18s-18 8.125-18 18 8.125 18 18 18 18-8.125 18-18" fill="#202020"/><path d="M62.54 19.38c-.645.522-1.171 1.177-1.54 1.92-.328.693-.492 1.453-.48 2.22a4.33 4.33 0 0 0 1.08 3 3.61 3.61 0 0 0 2.69 1.17 3.05 3.05 0 0 0 2.38-1 3.53 3.53 0 0 0 1-2.58c.009-.593-.125-1.179-.39-1.71A4.41 4.41 0 0 0 66 21.06a24.54 24.54 0 0 0-3.46-1.68zm3.12-2.88c.557-.427 1.014-.969 1.34-1.59a4.08 4.08 0 0 0 .45-1.86c.061-.895-.254-1.777-.87-2.43a3.06 3.06 0 0 0-2.34-.87c-.815-.053-1.617.229-2.22.78a2.67 2.67 0 0 0-.82 2 2.82 2.82 0 0 0 .82 2c1.09.863 2.322 1.529 3.64 1.97zm-4.42 2.28a6.11 6.11 0 0 1-2.33-2 5.19 5.19 0 0 1-.72-2.78c-.033-1.592.628-3.123 1.81-4.19a6.74 6.74 0 0 1 4.77-1.65c1.417-.093 2.819.346 3.93 1.23a4.29 4.29 0 0 1 1.3 3.33 4.31 4.31 0 0 1-.59 2.28c-.612.83-1.401 1.514-2.31 2 1.045.35 1.984.959 2.73 1.77a5.29 5.29 0 0 1 1.11 3.51 6.75 6.75 0 0 1-2 4.95 7.11 7.11 0 0 1-5.18 2c-1.617.081-3.203-.48-4.41-1.56a5.12 5.12 0 0 1-1.68-3.93 5.19 5.19 0 0 1 .78-2.91c.74-.91 1.7-1.616 2.79-2.05zM27.11 8.46v1.41c-2 3.45-3.87 7-5.61 10.71A90.72 90.72 0 0 0 18 29c-.587-.072-1.178-.112-1.77-.12a13.22 13.22 0 0 0-1.71.12l-.15-.45c1-1.59 2-3.12 2.82-4.59s2.22-3.75 4-6.84l2.64-4.65-.15-.24H18c-.914-.049-1.83.011-2.73.18a.77.77 0 0 0-.39.42c-.281.946-.443 1.924-.48 2.91l-.12.12-1.2-.09c.06-1.11.12-2.4.12-3.9 0-1-.06-2-.12-3.3l.24-.24c2.85.15 5.79.24 8.79.24l5-.11z" fill="#fff"/></svg>