<svg id="Layer_1" data-name="Layer 1" xmlns="http://www.w3.org/2000/svg" viewBox="0 0 37.44 37.44"><defs><style>.cls-1{fill:#fff;}.cls-2{fill:#231f20;}</style></defs><path class="cls-1" d="M36.72,18.72a18,18,0,1,0-18,18,18,18,0,0,0,18-18"/><path class="cls-2" d="M17.62,19.38A5.77,5.77,0,0,0,16,21.3a5,5,0,0,0-.48,2.22,4.33,4.33,0,0,0,1.08,3,3.61,3.61,0,0,0,2.7,1.17,3,3,0,0,0,2.37-1,3.53,3.53,0,0,0,1-2.58,3.59,3.59,0,0,0-.39-1.71,4.15,4.15,0,0,0-1.2-1.32A24.54,24.54,0,0,0,17.62,19.38Zm3.12-2.88a4.84,4.84,0,0,0,1.38-1.59,4,4,0,0,0,.45-1.86,3.22,3.22,0,0,0-.87-2.43,3.06,3.06,0,0,0-2.34-.87,3,3,0,0,0-2.22.78,2.67,2.67,0,0,0-.81,2,2.81,2.81,0,0,0,.81,2A12,12,0,0,0,20.74,16.5Zm-4.41,2.28a6.07,6.07,0,0,1-2.34-2A5.19,5.19,0,0,1,13.27,14a5.49,5.49,0,0,1,1.8-4.2,6.74,6.74,0,0,1,4.77-1.65,5.71,5.71,0,0,1,3.93,1.23,4.25,4.25,0,0,1,1.35,3.33A4.31,4.31,0,0,1,24.49,15a6.93,6.93,0,0,1-2.31,2,6.52,6.52,0,0,1,2.73,1.77A5.29,5.29,0,0,1,26,22.35a6.74,6.74,0,0,1-2,4.95,7.13,7.13,0,0,1-5.19,2,6.15,6.15,0,0,1-4.41-1.56,5.12,5.12,0,0,1-1.68-3.93,5.19,5.19,0,0,1,.78-2.91A6.84,6.84,0,0,1,16.33,18.78ZM-17.81,8.46V9.87c-2,3.45-3.87,7-5.61,10.71A90.59,90.59,0,0,0-27,29a16.55,16.55,0,0,0-1.77-.12,13.28,13.28,0,0,0-1.71.12l-.15-.45c1-1.59,1.95-3.12,2.82-4.59s2.22-3.75,4-6.84l2.64-4.65-.15-.24-3,0H-26.9a11.45,11.45,0,0,0-2.73.18.77.77,0,0,0-.39.42,11.78,11.78,0,0,0-.48,2.91l-.12.12-1.2-.09c.06-1.11.12-2.4.12-3.9,0-1-.06-2-.12-3.3l.24-.24c2.85.15,5.79.24,8.79.24C-21.41,8.55-19.73,8.52-17.81,8.46Z"/></svg>