<svg id="Layer_1" data-name="Layer 1" xmlns="http://www.w3.org/2000/svg" viewBox="0 0 37.44 37.44"><defs><style>.cls-1{fill:#fff;}.cls-2{fill:#231f20;}</style></defs><path class="cls-1" d="M36.72,18.72a18,18,0,1,0-18,18,18,18,0,0,0,18-18"/><path class="cls-2" d="M19.21,18.39a2.36,2.36,0,0,0,1.92-.84,3.88,3.88,0,0,0,.72-2.61A7.49,7.49,0,0,0,21,10.8a2.53,2.53,0,0,0-2.22-1.23,2.39,2.39,0,0,0-1.95,1,5.23,5.23,0,0,0-.72,3.06,6.38,6.38,0,0,0,.9,3.78A2.54,2.54,0,0,0,19.21,18.39Zm2.55.18a10.74,10.74,0,0,1-2.34,2,4.74,4.74,0,0,1-2.19.45,4.35,4.35,0,0,1-3.42-1.5,6.32,6.32,0,0,1-1.32-4.23A7.39,7.39,0,0,1,14.38,10a6.26,6.26,0,0,1,4.77-2,6.37,6.37,0,0,1,3.48,1A6.23,6.23,0,0,1,25,11.7a11.63,11.63,0,0,1,.81,4.8,15,15,0,0,1-1.35,6.78,10.8,10.8,0,0,1-3.87,4.35,11.51,11.51,0,0,1-5.82,1.83l-1.26-1,.36-.54c.6.06,1,.09,1.23.09a5.56,5.56,0,0,0,3.18-1,6.75,6.75,0,0,0,2.37-2.91A16.72,16.72,0,0,0,21.76,18.57Z"/></svg>