<svg id="Layer_1" data-name="Layer 1" xmlns="http://www.w3.org/2000/svg" viewBox="0 0 37.44 37.44"><defs><style>.cls-1{fill:#fffcd5;}.cls-2,.cls-4{fill:#231f20;}.cls-2,.cls-3,.cls-5{fill-rule:evenodd;}.cls-3{fill:#fff;}.cls-5{fill:#ffcb05;}</style></defs><path class="cls-1" d="M37,18.72a18,18,0,1,0-18,18,18,18,0,0,0,18-18"/><path class="cls-2" d="M6.33,14c-.15-.52.16-.81.39-.84s.38.4.38.4A2.48,2.48,0,0,0,8,14c.12,0,.25,0,.38.06A3.89,3.89,0,0,0,9.17,14a24.22,24.22,0,0,0,2.46-.6c.16-.05.27-.08.19-.27s-.42-.28-.42-.28c-.52,0-2.13.71-3.41.19s-1.32-.7-1.43-1.18,0-1,.46-1,.17.3.31.54c.69,1.06,3.38,1.1,3.91,1.1s.87-.12.82-.35-.82-.39-2.45-.66S6.39,10,6.44,8.91,7.69,8,7.69,8c-.23,2.69,4,3.19,4.26,3.11s-.08-.34-.08-.34c.42.15,2.06.42,2.84.67s.24,1.13.24,1.13c-.16,0,.05.66.5.9s2.2-.27,1.1-2-1.76-1.63-2.26-1.71-.74.11-1.49.08-.54-.55-.54-.55.19.47.59.06-.21-.8-.48-.8a1.91,1.91,0,0,0-.7.27c-.08-.9,1.25-.87,1.25-.87A1.18,1.18,0,0,1,14,7.62c.24,0,.79.22,1,.22a2.91,2.91,0,0,0,.74-.22.49.49,0,0,0,.07.85,6.06,6.06,0,0,0,1,.28c-.23.24.24.61.45.66a3.42,3.42,0,0,1,.73.47l-.28.19a7.69,7.69,0,0,1,1.33,2h.14a9.22,9.22,0,0,1,1.32-2l-.25-.19a3.31,3.31,0,0,1,.72-.47c.2-.05.68-.42.44-.66a6.75,6.75,0,0,0,1-.28.49.49,0,0,0,.07-.85,2.91,2.91,0,0,0,.74.22c.24,0,.78-.19,1-.22A1.21,1.21,0,0,1,25.25,8s1.33,0,1.25.87a1.91,1.91,0,0,0-.7-.27c-.29,0-.87.43-.48.8s.6-.06.6-.06.17.5-.55.55-1-.17-1.49-.08-1.18,0-2.26,1.71.63,2.23,1.08,2,.66-.9.5-.9c0,0-.53-.91.25-1.13s2.42-.52,2.85-.67c0,0-.3.28-.08.34S30.71,10.7,30.47,8c0,0,1.23-.17,1.26.9s-1.52,2.26-3.17,2.54-2.42.41-2.47.66.29.35.83.35,3.11,0,3.81-1c.16-.24,0-.64.42-.64s.58.56.47,1-.29.7-1.46,1.18c-.95.39-2.89-.19-3.39-.19,0,0-.35.08-.43.28s0,.22.19.27S28,13.84,29,14a5.07,5.07,0,0,0,1.25.14c.74-.06.84-.58.84-.58s.11-.43.38-.4a.61.61,0,0,1,.39.84,1.85,1.85,0,0,1-.22.45,1.4,1.4,0,0,1-1.33.66c-.74.08-2.94-.89-3.52-1L26.58,14h0l-.06.14c-.09.2.19.5.37.54a6.31,6.31,0,0,1,1.85,1.21,2.9,2.9,0,0,0,1.39.48c.36-.05.89-.08,1-.36s.15-.54.42-.51,1,.76-.08,1.48a1.66,1.66,0,0,1-1.08.33,3.61,3.61,0,0,1-2.08-.91,3.81,3.81,0,0,0-1.74-1.13c-.25,0,0,.58,0,.58a13.15,13.15,0,0,1,1.74,1A6.4,6.4,0,0,0,30,18.31a1.2,1.2,0,0,0,1.19-.45c.13-.09.91-.13.49.88a1.26,1.26,0,0,1-1.41.73c-.68,0-1.14-.34-1.81-1.28a4.33,4.33,0,0,0-2.14-1.51c-.28-.05-.75.27-.58.39s.11-.17.54.12a13.93,13.93,0,0,1,1.8,2.17,4.56,4.56,0,0,0,1.16,1l0,0a2.26,2.26,0,0,0,1,.26,1,1,0,0,0,.7-.29c.16-.11.5-.21.63.13a1.11,1.11,0,0,1-.11,1,1.79,1.79,0,0,1-1.22.5A3.54,3.54,0,0,1,28,20.39a14,14,0,0,0-1.71-2.34c-.35-.19-.87-.48-.93-.08s.06.18.43.58c.13.16.71.94,1.38,1.84s2.37,2.91,3.06,2.91c.86,0,.55-.23.91-.2s.34.2.39.6-.63.92-1.07.89c-1-.08-1.94-1.05-3-2.58-.37-.5-1-1.64-1-1.65-.71-1-1.44-1.84-2.16-1.34a.48.48,0,0,0,.11.45c.1.11.4.47.74.89,0,0,.65.92.86,1.34s.58.77.74.81.31-.13.47.16a.46.46,0,0,1-.78.4,15.25,15.25,0,0,1-1.64-2.31,3.7,3.7,0,0,1-.34-.4c-.26-.34-.49-.86-.83-.89s-.42.44-.32.78,1.18,1.22,1.18,1.45,0,.18-.19.18-.79-.57-.91-.73-.58-.78-.6-.79-.22-.19-.3-.15l0,.18a3.76,3.76,0,0,0,2.81,3.23c.16,0-.15.53-.31.94s.08.34.08.34,2.6,1.68,2.92,2,.24-.11.28-.27c0,0,.11-.55.43-.47,0,0,.28-.94.7-.78l.08.11a.28.28,0,0,1,.38-.08,1.45,1.45,0,0,1,.52,1s-.21-.32-.43-.32-.47.35-.63.4-.23.11-.17.23a.44.44,0,0,0,.52,0c.11-.08.82,0,1,.39a.76.76,0,0,1,0,.67.37.37,0,0,0-.19-.25c-.15-.06-.2.16-.31.11s-.24-.34-.39-.3-.35.08-.27.27.34.33.27.6c0,0,.13.32,0,.47s-.14.22-.3.3a1.73,1.73,0,0,1-.39.15l.15-.26a.24.24,0,0,0,.12-.27c0-.21-.32-.32-.43-.44a.88.88,0,0,0-.52-.35.73.73,0,0,0-.53.08.51.51,0,0,0-.47.47,1,1,0,0,1-.32.24.91.91,0,0,1-.34.11s-.52,0-.28.55c0,0-.74-.21-.58-.79.12-.42.29-.26.42-.39s0-.29.2-.4c0,0,.48.34.85-.38.26-.48-.8-.74-1.27-1s-1.34-.94-1.6-.9c-.42.08-.4.21-.57.67a1.36,1.36,0,0,0-.26-.11A14.4,14.4,0,0,1,22,23.73c-.16-.32-.6-1.13-1-1a4.25,4.25,0,0,0,.52,2c.79,1.12,2,2.39,3,2.39.23,0,.5.16.26.42a.86.86,0,0,1-1.28.25,22.15,22.15,0,0,0-1.9-1.69c-.21.2,0,1.05.58,1.69s1.61,1,1.15,1.42-1.07-.52-1.36-.81-.82-1.25-1-1.17S20.8,28.53,21,29s.83,1.17,1.26,1.22.08.3-.08.41-.56.52-1.14-.25a5.59,5.59,0,0,1-.83-1.92c-.06-.2-.55-.46-.61,0,0,.27-.15,1.34,1.26,3.53a8,8,0,0,0-1.78,1.2h0A8,8,0,0,0,17.29,32c1.41-2.19,1.3-3.26,1.26-3.53-.06-.46-.55-.2-.61,0a5.29,5.29,0,0,1-.84,1.92c-.58.77-1,.38-1.13.25s-.52-.38-.08-.41,1-.8,1.26-1.22.42-1.68.18-1.76-.78.91-1,1.17-1,1.13-1.36.81.53-.72,1.16-1.42.78-1.49.58-1.69a19.42,19.42,0,0,0-1.9,1.69.88.88,0,0,1-1.29-.25c-.25-.26,0-.42.27-.42.94,0,2.16-1.27,3-2.39a4.29,4.29,0,0,0,.53-2c-.44-.12-.87.69-1,1A16.69,16.69,0,0,1,14.6,26a1.36,1.36,0,0,0-.26.11c-.16-.46-.15-.59-.57-.67-.26,0-1.13.67-1.59.9s-1.54.5-1.3,1c.37.72.88.38.88.38s.09.3.19.4.31,0,.42.39c.16.58-.58.79-.58.79.24-.58-.28-.55-.28-.55a1.08,1.08,0,0,1-.66-.35s0-.15-.11-.28a1,1,0,0,0-.36-.19.77.77,0,0,0-.55-.08.93.93,0,0,0-.5.35c-.11.12-.38.23-.43.44a.24.24,0,0,0,.11.27l.16.26A1.73,1.73,0,0,1,8.78,29c-.16-.08-.16-.08-.3-.3s0-.47,0-.47c-.08-.27.19-.4.27-.6s-.13-.22-.27-.27-.28.27-.39.3-.16-.17-.3-.11a.4.4,0,0,0-.21.25.72.72,0,0,1,0-.67c.16-.43.87-.47,1-.39s.39.12.5,0,0-.2-.14-.23-.41-.4-.63-.4-.44.32-.44.32a1.45,1.45,0,0,1,.52-1,.28.28,0,0,1,.38.08l.08-.11c.42-.16.7.78.7.78.32-.08.44.47.44.47,0,.16,0,.54.27.27s2.92-2,2.92-2,.24,0,.08-.34-.47-.91-.3-.94c2.13-.55,2.81-3.15,2.81-3.15a.51.51,0,0,0,0-.26c-.08,0-.19,0-.32.15s-.52.69-.58.79-.71.69-.91.66-.16,0-.19-.11,1-.81,1.18-1.45c.08-.44.08-.81-.32-.78s-1.09,1.18-1.17,1.29a16.81,16.81,0,0,1-1.64,2.31c-.5.37-.91-.18-.78-.4s.31-.12.47-.16.45-.26.74-.81a12.57,12.57,0,0,1,1.6-2.23.48.48,0,0,0,.11-.45c-.74-.5-1.45.31-2.16,1.34,0,0-.68,1.15-1,1.65-1.1,1.53-2.09,2.5-3,2.58-.44,0-1.1-.52-1.05-.89s0-.61.32-.61.23.24,1,.21S10,21.73,11,20.39c0,0,1.24-1.68,1.37-1.84.35-.4.52-.19.43-.58s-.58-.11-.93.08a25.13,25.13,0,0,0-1.73,2.34C9.28,21.44,8.57,22,7.85,22a1.7,1.7,0,0,1-1.21-.5,1,1,0,0,1-.07-1.11c.16-.18.34-.16.58,0a1.24,1.24,0,0,0,.7.29,2.29,2.29,0,0,0,1-.26,7.85,7.85,0,0,0,1.2-1,16.12,16.12,0,0,1,1.79-2.17c.42-.29.39,0,.55-.12s-.31-.44-.6-.39a4.43,4.43,0,0,0-2.15,1.51c-.66.94-1.13,1.28-1.79,1.28a1.26,1.26,0,0,1-1.41-.73c-.43-1,.36-1,.47-.88s.23.53,1.21.45A5.55,5.55,0,0,0,10,17c.27-.24,1.73-1.13,1.73-1.13s.19-.54,0-.58A3.77,3.77,0,0,0,10,16.4a3.61,3.61,0,0,1-2.08.91A1.66,1.66,0,0,1,6.8,17c-1.08-.72-.36-1.43-.08-1.48s.38.29.42.51.59.31.93.36a2.88,2.88,0,0,0,1.38-.45,7,7,0,0,1,1.87-1.24c.19,0,.45-.34.39-.54s-.21-.1-.31-.08c-.6.16-2.78,1.13-3.52,1a1.38,1.38,0,0,1-1.32-.66A1.2,1.2,0,0,1,6.33,14"/><path class="cls-3" d="M24.43,8.59a.7.7,0,0,0-.16.32s-.47-.08-.58-.21a1.48,1.48,0,0,1,.74-.11"/><path class="cls-2" d="M27.4,8.31s.34,0,.42.28a.46.46,0,0,1-.19.55,1.27,1.27,0,0,1-1,.19,4,4,0,0,1-.52-.14,8.48,8.48,0,0,0-1.13,0,10.38,10.38,0,0,1,1.17-.13c.4,0,.54.13.79.08s.74-.28.43-.83"/><path class="cls-3" d="M13.74,8.59a.72.72,0,0,1,.15.32s.48-.08.59-.21a1.51,1.51,0,0,0-.74-.11"/><path class="cls-2" d="M10.77,8.31s-.36,0-.42.28a.44.44,0,0,0,.19.55,1.27,1.27,0,0,0,1,.19A4.89,4.89,0,0,0,12,9.19a8.48,8.48,0,0,1,1.13,0A10.35,10.35,0,0,0,12,9.06c-.39,0-.56.13-.77.08s-.75-.28-.44-.83"/><path class="cls-4" d="M12.92,7.76l-.08,0s-.14-.29-.32-.59-.18-.3-.26-.43a1,1,0,0,0-.19-.22l-.19-.09.2-.07a1.54,1.54,0,0,1,.46-.07,1.12,1.12,0,0,1,1.12.82l-.08,0h-.09V7.08a1.12,1.12,0,0,1,.23-.82h0a1.69,1.69,0,0,0,.35-.31,1.9,1.9,0,0,0,.16-.2l.09-.13.07.14s.19.43.26.53l-.07,0,.07-.06a1.35,1.35,0,0,1,.4.91H15l-.07,0a1.86,1.86,0,0,1,1.33-.86h.15l.15,0-.09.12s-.18.25-.36.55a2.21,2.21,0,0,0-.36.79l-.08.12a.55.55,0,0,1-.28,0H13.1l-.21-.08,0,0,0,0,.08,0,0-.08.2.08,0,.08V7.75h2.25a.35.35,0,0,0,.19,0h0l0,0h-.06l0,0,0,0h-.06a2.3,2.3,0,0,1,.39-.89c.18-.3.37-.55.37-.55l.07,0v.09h-.13a1.25,1.25,0,0,0-.84.39,1.21,1.21,0,0,0-.25.27l-.09.12-.16-.05a1.25,1.25,0,0,0-.37-.8h0c-.08-.13-.27-.55-.28-.56l.09,0,.07,0a2.54,2.54,0,0,1-.57.57l-.05-.08.06.07c-.13.09-.17.49-.16.68v.1l-.17,0a1,1,0,0,0-1-.7,1.17,1.17,0,0,0-.29,0l-.11,0,0-.09,0-.08a1,1,0,0,1,.26.28c.26.39.59,1,.59,1l-.08,0,0-.08Z"/><path class="cls-5" d="M12.92,7.76a5.83,5.83,0,0,0-.81-1.28,1.13,1.13,0,0,1,1.47.7s0-.66.19-.85a2.43,2.43,0,0,0,.55-.54s.19.42.27.54a1.27,1.27,0,0,1,.38.85s.59-.93,1.4-.81a4.55,4.55,0,0,0-.74,1.39s0,.08-.27.08H13.11l-.19-.08"/><path class="cls-4" d="M22.61,7.76l-.08,0s-.15-.29-.32-.59L22,6.78a.91.91,0,0,0-.2-.22l-.18-.09.19-.07a1.74,1.74,0,0,1,.47-.07,1.12,1.12,0,0,1,1.12.82l-.08,0h-.09V7.08a1.16,1.16,0,0,1,.22-.82h0a1.69,1.69,0,0,0,.35-.31,1.9,1.9,0,0,0,.16-.2L24,5.61l.07.14s.19.43.26.53l-.07,0,.07-.06a1.4,1.4,0,0,1,.4.91h-.09l-.07,0a1.83,1.83,0,0,1,1.33-.86h.15l.15,0-.09.12s-.18.25-.36.55a2.21,2.21,0,0,0-.36.79l-.08.12a.58.58,0,0,1-.28,0H22.79l-.21-.08,0,0v0l.08,0,0-.08.2.08,0,.08V7.75h2.25a.35.35,0,0,0,.19,0h0l0,0h-.05l0,0,0,0h-.05a2.42,2.42,0,0,1,.38-.89c.19-.3.37-.55.37-.55l.08,0v.09h-.13a1.3,1.3,0,0,0-.85.39,1.41,1.41,0,0,0-.24.27l-.09.12-.17-.05a1.16,1.16,0,0,0-.37-.8h0c-.09-.13-.27-.55-.28-.56l.08,0,.08,0a2.8,2.8,0,0,1-.57.57l-.05-.08.06.07c-.13.09-.17.49-.17.68v.1l-.18,0a.94.94,0,0,0-.95-.7,1.17,1.17,0,0,0-.29,0l-.12,0,0-.09,0-.08a.88.88,0,0,1,.25.28,11.26,11.26,0,0,1,.6,1l-.08,0,0-.08Z"/><path class="cls-5" d="M22.61,7.76a5.83,5.83,0,0,0-.81-1.28,1.13,1.13,0,0,1,1.47.7s0-.66.19-.85A2.29,2.29,0,0,0,24,5.79s.2.42.27.54a1.23,1.23,0,0,1,.39.85s.58-.93,1.4-.81a4.55,4.55,0,0,0-.74,1.39s0,.08-.27.08H22.8l-.19-.08"/></svg>