<svg id="Layer_1" data-name="Layer 1" xmlns="http://www.w3.org/2000/svg" viewBox="0 0 37.44 37.44"><defs><style>.cls-1{fill:#ffcb05;}.cls-2{fill:#231f20;fill-rule:evenodd;}</style></defs><path class="cls-1" d="M36.72,18.72a18,18,0,1,0-18,18,18,18,0,0,0,18-18"/><path class="cls-2" d="M18.44,19c2.19,0,4,1.15,4,2.56s-1.78,2.55-4,2.55a5.54,5.54,0,0,1-2.27-.46V19.46A5.54,5.54,0,0,1,18.44,19m-.29-5.95c1.89,0,3.41,1,3.41,2.27S20,17.59,18.15,17.59a4.58,4.58,0,0,1-2-.43V13.47A4.58,4.58,0,0,1,18.15,13.05Zm5,5.45c1.64.72,2.68,1.82,2.68,3.06,0,2.19-3.31,4-7.38,4h-.16a9.74,9.74,0,0,1-6.16-1.92l-.39-.3a3.29,3.29,0,0,0,.54-.62h.49a.56.56,0,0,0,.57-.54V15.29a.56.56,0,0,0-.57-.54h-.49a3.7,3.7,0,0,0-.54-.62,10.67,10.67,0,0,1,6.7-2.22h0c3.45,0,6.25,1.78,6.25,4A3.33,3.33,0,0,1,23.14,18.5Z"/><path class="cls-2" d="M18.44,9.64c7.21,0,13.06,4.07,13.06,9.08S25.65,27.8,18.44,27.8,5.37,23.73,5.37,18.72s5.85-9.08,13.07-9.08m0-1.13c8.78,0,15.9,4.57,15.9,10.21s-7.12,10.21-15.9,10.21S2.53,24.36,2.53,18.72,9.66,8.51,18.44,8.51Z"/></svg>