<svg id="Layer_1" data-name="Layer 1" xmlns="http://www.w3.org/2000/svg" width="37.44" height="37.44" viewBox="0 0 37.44 37.44">
  <defs>
    <style>
      .cls-1 {
        fill: #fff200;
      }

      .cls-2, .cls-3 {
        fill: #231f20;
      }

      .cls-10, .cls-11, .cls-3, .cls-4, .cls-6, .cls-7, .cls-8, .cls-9 {
        fill-rule: evenodd;
      }

      .cls-4 {
        fill: #fff;
      }

      .cls-5, .cls-6 {
        fill: #000100;
      }

      .cls-7 {
        fill: #c6c6c7;
      }

      .cls-8 {
        fill: #efeeed;
      }

      .cls-9 {
        fill: #5c6363;
      }

      .cls-10 {
        fill: #848787;
      }

      .cls-11 {
        fill: #b0b1b3;
      }

      .cls-12 {
        fill: none;
      }
    </style>
  </defs>
  <path class="cls-1" d="M36.72,18.72c.34-23.35-36.34-23.35-36,0-.34,23.35,36.34,23.35,36,0"/>
  <path class="cls-2" d="M9.2,17.35c-3-.76,8.35-1.82,5.43.61,0,1.14,2.26-.42,1.86,1.22-1.42.36-3.35-.58-3-1.67.41,0-2.78,0-4.32,0,1.46-.71,4.94-.31,4.6.08-.53,1,2.85,2,2.41,1-1.22.57-2,.09-1.73-1.64C14.48,17.13,7.56,16.36,9.2,17.35Zm6.51,3c-.14.59-1.34,2.26,0,1.89.25-.4.07-1.86.41-1.63-.07.36-.76-.44-.3-.16.43-.85.8,2.65-.59,2.11C14,22.34,15.54,19.91,15.71,20.38ZM9.53,17.24c.19.48-5.37-.13-5.34.24.69.12,6.08.84,5.34-.23,1.54,1.06-6.64,1.22-5.5,0C4.22,17,10.16,17,9.53,17.24Zm5.58,3.08c-1.62,3.71.87,1.23.11.1.3-.82.63,1.38.07,2C13.29,23.3,14.65,19.85,15.11,20.32Zm-.39-.17c-.3.67-1.65,2.5-.26,1.92.33-.42.81-2.39.87-1.64-.14.05-1-.33-.51-.17a.18.18,0,0,1-.07-.25c1.48-.08.24,1.36-.07,2.23C12.64,23.32,14,19.78,14.72,20.15ZM14.2,20c-.18.68-1.66,1.36-.61,2,.32-.07,1.18-2.53,1.29-1.79a2.38,2.38,0,0,1-.6-.08c1.56-1.18.21,1.48-.69,2.16C12.13,22,13.69,19.74,14.2,20Zm-.52-.41c-.56.87-1.55,1.69-.57,2.08-.34-.35,1-1.81,1.17-1.81s-.9-.27-.52-.15c1.51-.8-.06,1.12-.52,2C11.48,22.31,12.89,19.35,13.68,19.62Zm-.2-.41c.09.72-2.43,1.41-1,2.06-.44-.25.36-1.1.67-1.36,0,.07.72-.61.5-.49.13.11.13.1,0,0,.27.12-.1.13,0,0,.11.05.13.11.05.21-.19-.18.17-.19,0,0,.19-.31-.07.25.07-.13.14.16,0,.21,0,0,.06.1.11.18,0,0,.12.16,0,0,.08.1,0,.34-.82-.64-.34-.32-.28-.55.69.38.15.1.76.18-1.38,1.24-1.06,2C10.33,21.32,13.36,18.91,13.48,19.21Zm-.77-.14c-.57.49-2.82,1.55-.87,1.49.41-.27,1.9-2.11,1.79-1.31-.15.08-1.27-.18-.86-.05,3.64-1.31-3.8,3.94-1.71.48C10.69,20.07,12.85,18.54,12.71,19.07Zm-.23-.37c.34.42-3.65.73-3,1.24,1.2.53,2.83-1.15,3.56-1,0,.27-.71-.08-.77-.27.16-.3.29-.09.25.14,0-.15,0-.15-.07,0-.08-.05,0-.17,0,0-.07-.12-.05-.15.09-.13-.11.25-.2,0,0-.1,0,.25-.24-.19.3.13,1.25.36-1.28,1-1.86,1.37-4.8.9.81-2.2,1.49-1.25Zm-1.41,0c.4.27-4.4.69-3.56.55.74,1.33,6.93-1.35,3.59-.41-.17-.57,1.28-.6,1.29.08-.6,0-3.72,1.52-4.93.88C5.85,18.59,11.66,18.56,11.07,18.72Zm.4-.48c-.55.61-6.63.34-5,.93.35.06,5.73-.76,4.84-.34,0-.13,0-.94.12-.45,1.49.4-4.71,1.75-5.6.62C5.51,18.44,11.25,18,11.47,18.24Zm-.72-.16c-.87.5-5.31.07-5.33.44.84.55,6-.36,5.19.14,0-.14,0-.94.15-.44,1.93.8-7,1.19-5.2.06C5.09,18,10.76,17.83,10.75,18.08Zm-.64-.37c.18.47-5.38-.13-5.34.23,0,.53,5.37-.12,5.31.34-.22.13-.19-.71,0-.57,1.72,1.2-7.71,1.06-5.2-.14C4.81,17.65,11.07,17.39,10.11,17.71Zm6.24.84c-1.87.72-1.92-.39-1.87-1.64-1.29,0-9.72,0-11,0,.82,1,10.3-.4,10.3.62-.42,1.26,1.74,1.31,2.55,1.52-.26.05-.21-.67.15-.49,0,1.72-3.74.08-2.95-1.07-.48.07-4.92,0-6.67,0-11.37-.16,7.72-2.35,8,0C13.6,18.93,16.71,18.09,16.35,18.55Zm8.12.62c2.37,1,.9,3.67-.67.52-.68-.42.89-.92.67-.53.06.3-.85.26-.54.27.34.16,1.54,1.95,1.15,1.77C26.17,20.81,24.42,19.42,24.47,19.17Zm3.78-1.82c1.6-1-5.31-.23-5.29-.44.22,1.86-.41,2.15-1.72,1.64-.44,1,2.93,0,2.4-1-.38-.4,3.18-.8,4.61-.09-2.49,0-4.4.07-4.34,0,.4,1.13-1.58,2-3,1.66-.53-1.67,2.8.09,1.61-1.72C20.67,15.9,31.36,16.49,28.25,17.35Zm-3.39,1.89c.45-.16,2.11.56,1.57,1.25-.8.56-2.88-1.69-1.57-1.25.24.24-.53.35-.18,0,.36.41,2,1.7,1.4.66C26.26,19.92,24.59,19.44,24.86,19.24Zm-3.6,1.47c1.63.34-.13,1.74-.76,1.47,0-.11,0-.1,0,0,0-.12,0-.12,0,0,0-.1,0-.1,0,0-.19-.34.21.16-.09-.11.31-.26-.1.22.1-.11-.44.12.74-.27.22,0,.36-2.1.95-1.16.16.18-.71.22-.86-.3.13-.32S21.21,20.75,21.26,20.71Zm.53-.07c1.18,0,.62,2-.55,1.35.17-.36-.34-2.08.6-1.49,0,.14-.06.35-.26.24-.36,2.12,1.26.56.18,0Zm-.06-.26c3.17,4.27-2.56,1.08,0,0,.22.12-.4.51-.42.26.49-.27-.09,2,.87,1.66.59.22-.56-2-.37-1.8Zm6.17-3.14c-.07-.22,5.93-.41,5.63.24,0,.89-7.27.74-5.63-.24-.84,1.1,4.53.23,5.26.36.56-.67-6,.19-5.11-.36Zm-5.58,3.08c3.12,3.9-2.52,1.37,0,0C21.31,22.14,24.06,23.56,22.32,20.32Zm.39-.17c1-.09,1.89,3.12,0,2.09-.54-1.13-1.32-2.67,0-2.09.19.18-.73.38-.64.14s.93,1.64.8,1.87c1.77.35-.22-1.82-.13-1.87Zm.53-.12c1-.27,1.91,3,.25,2.06-.61-1.25-1.9-2.7-.25-2.06.17.2-.83.3-.7.06.35-.15.91,1.76,1.31,1.93,1.1-.43-.67-1.81-.6-1.85Zm.52-.41c1-.06,2.08,2.62.43,2.15-.21-1.11-2.32-2.11-.39-2.3.13.31-.45.39-.61.44,0-.33,1.58,2,1.18,1.76C25.51,21.17,23.67,20,23.76,19.62ZM25,18.7c.14-.29,4,.88,3.39,1.09-.29,1.51-5.69-.89-3.42-1.21.05.07-.06-.06.08.11-.22,0-.1-.22,0,0s-.26-.08,0,0c-.1.31,0-.16,0,.14-.09,0,0-.24,0-.07s-.11,0,0-.2c0,.29-.15-.06,0,0s.2.25,0,.3c-1.88-.18,3,1.91,2.89.84C27.84,19.62,24.26,18.76,25,18.7Zm1.4,0c-.17-.22,4.21.21,3.87.63-.94,2.07-8-1.59-3.85-.78-3.44-.2,2.73,1.77,3.55.7C30.78,19.41,25.93,19,26.36,18.72ZM26,18.24c1.09-.16,5.68.2,5.58.77-.94,1.08-7.23-.21-5.58-.77.33-.14,0,1,0,.44.11-.05,4.7.6,5.24.42C31.6,18.55,26.14,18.75,26,18.24Zm.73-.17c1.29,0,6.64-.54,5.42.79-1.56.11-6.87.36-5.42-.78-.82.89,3.76.6,5.32.44C32,18.19,27,18.5,26.7,18.07Zm.64-.36c-.07-.22,5.92-.4,5.62.23,0,.88-7.27.75-5.62-.23.22-.14.24.7,0,.57-.05-.46,5.34.19,5.32-.34.06-.35-6,.22-5.18-.23Zm-6.24.84c.67-.48,2.18.36,1.56-1.19-.39-1.18,13.09-1.45,11.38,0-2.1.37-8.77,0-10.13.15.79,1.48-3.89,2.56-2.81,1,0,.89,2.89.19,2.54-1-.1-1,9.5.36,10.29-.62-1.2,0-9.69,0-11,0C23,18.24,23.06,19.21,21.1,18.55Z"/>
  <path class="cls-3" d="M9.2,17.35c-1.76-1.14,6.31-.41,5.29-.59.13,3.19.75.73,1.86,2.28-3.13.29-2.13-2.59-7.15-1.69m6.5,3c-1,.5-.92,3.17.22,1.67C15.93,21.15,16.4,20.61,15.7,20.38ZM9.53,17.24c-.12.22-7.35-.58-4.9.59C4.88,17.57,10.28,18.46,9.53,17.24Zm5.58,3.08c-1,.52-.93,3.16.23,1.68C15.33,21.09,15.83,20.54,15.11,20.32Zm-.39-.17c-.82.56-1.7,2.65-.15,2C14.76,21.46,16,20.13,14.72,20.15ZM14.2,20a3.14,3.14,0,0,0-1.12,1.4C13.27,23.58,15.93,19.34,14.2,20Zm-.52-.41c-.89.57-1.8,2-.57,2.08.06-.81,2.09-2,.57-2.08m-.2-.41c-.44.51-2.63,1.81-1,2.06C12.23,20.54,14.31,19.77,13.48,19.21Zm-.77-.14c-.83.2-3.5,1.76-.77,1.59C12.48,19.82,14.78,18.85,12.71,19.07Zm-.23-.37-3,.84C7.89,21,14.58,19.22,12.48,18.7Zm-1.41,0-3.69.49C7,21.07,15,18,11.07,18.72Zm.4-.48c-1.21.3-7.23.23-4.84,1.07C8,18.9,12.13,19.4,11.47,18.24Zm-.72-.17c-1.23.23-7.21-.22-4.88.77C7.28,18.53,11.35,19.27,10.75,18.07Zm-.65-.36c-.12.21-7.33-.57-4.9.57C5.45,18,10.84,18.9,10.1,17.71Zm6.25.84c-.76.07-2.64.06-1.56-1.19.63-1.38-11.2-.25-11.29-.6-.55,1.39,9.93.23,9.94.6C13.83,19.12,16.14,19.73,16.35,18.55Zm8.12.62c.89.56,1.8,2,.56,2.06-.06-.8-2.09-2-.56-2.06m3.78-1.82c.52,0,1.06-.59.21-.6-3.08.29-5.92-.69-5.8.61,1.06,1.25-.82,1.27-1.57,1.19-.09.83,2.5,1.05,2.69-1C23.86,17.07,25.87,17.47,28.25,17.35Zm-3.39,1.89c.79.1,2.52,1.46.83,1.1C25.34,19.93,24.13,19.36,24.86,19.24Zm-3.6,1.47c.34.21,1.13,1-.17,1.23s-.17,0-.17,0Zm.53-.07c1.59,1.07-1.05,2.17-.35-.07Zm-.06-.26c1,.5.92,3.17-.22,1.67C21.51,21.14,21,20.61,21.73,20.38Zm6.17-3.14c.09.22,7.39-.58,4.9.58C32.55,17.57,27.16,18.45,27.9,17.24Zm-5.58,3.08c1,.52.93,3.16-.22,1.68C22.1,21.09,21.61,20.54,22.32,20.32Zm.39-.17c.82.55,1.71,2.65.16,2C22.68,21.46,21.47,20.14,22.71,20.15Zm.53-.12c.61.12,1.83,2.45.37,2C23.23,21,21.79,19.81,23.24,20Zm.52-.41c.88.57,1.8,2,.55,2.08,0-.83-2.09-2-.55-2.08M25,18.7l3,.84C29.53,21,22.85,19.21,25,18.7Zm1.4,0,3.7.49C30.4,21.07,22.44,18,26.36,18.72ZM26,18.24c1.22.32,7.17.19,4.84,1.07C29.4,18.9,25.33,19.4,26,18.24Zm.73-.17,5.18.21C32.89,19.28,25.49,18.94,26.7,18.07Zm.64-.36h5.19C34.26,18.49,26.39,18.73,27.34,17.71Zm-6.24.84c1.73.21,1.9-.25,1.6-1.7.49-.24,11.07,0,11.24-.09.56,1.39-9.95.23-9.95.6C23.62,19.14,21.28,19.71,21.1,18.55Z"/>
  <path class="cls-2" d="M16.62,18.92c-1.7.67-1.9-.32-1.78-1.54H4.34c1,.82,9.26-.14,9.76.35-.47,1.42,2.19,1.44,2.38,1.64,0-.25-.07-.55.29-.45.05,1.54-3.42.24-2.88-1,.52-.26-8.74.69-9.88-.47-.22-.56,11-1.16,11.2.46,0-.23-.52.89.19.86C14.94,18.92,17.35,18.58,16.62,18.92Z"/>
  <path class="cls-4" d="M16.62,18.92c-1.65.18-1.84-.22-1.54-1.61-.51-.22-10.58,0-10.76-.08-.52,1.32,9.52.21,9.52.57.36,1.66,2.6,2.21,2.78,1.12"/>
  <path class="cls-2" d="M10.64,18.13c.16.46-5.07-.12-5.1.21.29.19,6,.57,5-.21,2,1-5.54,1-5.24.21C4.8,17.69,11.43,17.93,10.64,18.13Z"/>
  <path class="cls-4" d="M10.64,18.13h-5c-1.65.73,5.88,1,5,0"/>
  <path class="cls-2" d="M11.26,18.46c-.72.46-5.47.19-5,.34.09.76,5.34-.37,5,.21-.32.15-.08-1,0-.41,1.53.18-5.1,1.68-5.34.1C6,18.34,11,18.25,11.26,18.46Z"/>
  <path class="cls-4" d="M11.26,18.46l-5,.2c-1,.95,6.09.6,5-.2"/>
  <path class="cls-2" d="M12,18.62c-.8.56-5,.38-5.07.72.81.46,5.74-.7,5-.17,0-.14-.07-.87.12-.4,1.45.34-4.52,1.65-5.37.57,0-.48.49-.25.39-.37C6.75,19.12,12.07,18.22,12,18.62Z"/>
  <path class="cls-4" d="M12,18.62l-5,.49c-.91,1,6.12.24,5-.49"/>
  <path class="cls-2" d="M11.57,19.07c.32.42-4.27.44-3.42.6,1.16.87,6.44-1.08,3.42-.6C15,18.13,9.87,21,8.11,20.12c-1.55-1.23,3.84-.95,3.44-1.19Z"/>
  <path class="cls-4" d="M11.57,19.07,8,19.53c-.34,1.76,7.3-1.12,3.54-.46"/>
  <path class="cls-2" d="M12.92,19.05c.33.25-2.87.85-2.87.94.19,1.31,3.38-1.33,3.36-.56-.12-.06-1-.29-.55-.53.22.16,0,.22,0,.29,0-.16,0,.1,0-.13.12.25-.11-.1.14,0-.11.25-.2,0,0-.09,0,.24-.24-.18.29.11,1.22.34-1.21,1-1.78,1.32-4.61.84.77-2.13,1.42-1.19Z"/>
  <path class="cls-4" d="M12.92,19.05l-2.9.8c-1.47,1.38,4.93-.28,2.9-.8"/>
  <path class="cls-2" d="M13.14,19.4c0,.59-3.56,1.2-.75,1.5-.17-.28,1.74-1.8,1.63-1.47.14.44-1.28-.13-.82.1,2.26-1.42-.88,2.54-1.86,1.42C10.4,20.15,12.78,19.25,13.14,19.4Z"/>
  <path class="cls-4" d="M13.13,19.4c-.78.19-3.34,1.66-.73,1.5.52-.81,2.71-1.7.73-1.5"/>
  <path class="cls-2" d="M13.88,19.53c.11.68-2.29,1.31-.92,1.95-.36-1,1.68-2,1.12-1.73.13.08.13.08,0,.08,0-.22.32.15.14.14,0-.29.16,0,0,0,0-.19.07-.06.08,0,.16.28-.85-.52-.3-.31-.27-.55.65.37.12.08.15-.18.14.32.05,0,.09-.05.07.3,0,0,0,.13,0,.13,0,0,.68.24-1.34,1.17-1.06,1.95C10.84,21.53,13.8,19.18,13.88,19.53Z"/>
  <path class="cls-4" d="M13.88,19.53c-1.62.76-2,3.27-.17.76.86-.77.42-.3.17-.76"/>
  <path class="cls-2" d="M14.06,19.93c-.38.78-1.6,1.46-.53,1.94-.38-.34,1-1.67,1.06-1.71.24.21-.88-.32-.45-.11-.35-.44.47-.2.67,0,.17.55-1,1-1.14,1.9C12,22.55,13.29,19.61,14.06,19.93Z"/>
  <path class="cls-4" d="M14.06,19.93c-.86.52-1.72,1.93-.53,1.94.06-.77,2-1.88.53-1.94"/>
  <path class="cls-2" d="M14.57,20.3c-1.06.87-1.1,3,.14.73.28-.51.46-1,.5-.52-.16.09-1-.28-.56-.09,1.46-1.13.23,1.4-.67,2C12.54,22.19,14.1,20,14.57,20.3Z"/>
  <path class="cls-4" d="M14.57,20.3a3.06,3.06,0,0,0-1.08,1.33c.19,2,2.71-1.94,1.08-1.33"/>
  <path class="cls-2" d="M15.07,20.42c-1.6,2-.11,2.56.47.08.55.41-.94-.12-.37,0a.2.2,0,0,1-.07-.25c1.41-.07.23,1.28-.06,2.12C13.05,23.42,14.43,20,15.07,20.42Z"/>
  <path class="cls-4" d="M15.07,20.42c-.78.53-1.64,2.49-.15,1.89.18-.66,1.33-1.91.15-1.89"/>
  <path class="cls-2" d="M15.45,20.58c-.1.57-1.3,2.12,0,1.78.12-.4.26-2.06.31-1.41-.16,0-.59-.48-.2-.27C17.72,21.38,12.43,24.8,15.45,20.58Z"/>
  <path class="cls-4" d="M15.44,20.58c-.95.49-.89,3,.21,1.59,0-.87.46-1.37-.21-1.59"/>
  <path class="cls-2" d="M10.1,17.69c.15.47-5.07-.12-5.11.22.3.18,6,.56,5-.22,2,1-5.55,1-5.25.22C4.26,17.25,10.88,17.5,10.1,17.69Z"/>
  <path class="cls-4" d="M10.1,17.69h-5c-1.67.74,5.88,1,5,0"/>
  <path class="cls-2" d="M16,20.63c-.28.71-1.24,2.49.22,1.59-.4-.15.2-1.94.1-1.22-.17,0-.6-.48-.22-.27C18.25,22.11,13,24.39,16,20.63Z"/>
  <path class="cls-4" d="M16,20.63c-1,.5-.9,3,.22,1.59,0-.87.46-1.37-.22-1.59"/>
  <path class="cls-2" d="M16,20.89c-.41.67-.55.92.37,1.17-.26.08-.2-1.56-.32-1,.17-1.23.66.7.47,1.14C15.31,22.83,14.86,20.79,16,20.89Z"/>
  <path class="cls-4" d="M16,20.89c-1.55,1,1,2.05.33-.07l-.33.07"/>
  <path class="cls-2" d="M16.45,21c-1,1.28.95.91.76,1.24,0-.32,0,.15,0-.14.38.24-.2.2.14.15-.16.27,0-.22,0,.1-.15.13-.39-.15-.1-.1-.3.31.07-.25-.08.12.13-.27.07.06,0,0s.08-.14,0,0c0-.13,0-.14,0,0-.6.37-1.08-1.7-.66-1.27-.07-.68.39,1,.39,1-.28.09-.1-.19.1-.08.74-.05,0,.68.09.08C16.63,23.12,14.9,20.92,16.45,21Z"/>
  <path class="cls-4" d="M16.45,21c-.32.2-1.07,1,.17,1.16,1.09.41-.34-.37-.17-1.16"/>
  <path class="cls-2" d="M12.83,17.7c.11.44-3.06-.08-3.19.21.17.41,2.27.05,2,.31,0-.15,0,.13,0-.1,0,.14,0,.14,0,0,0,.13,0,.13,0,0,.07.14.07.14,0,0,.07-.07.18.24,0,0,.22.3-.22-.13.1.1-.28.28.08-.24-.08.12l-1.36.08c.27.6,2.92-.29,3,.1-1-.74-.2-1.33.22.12-.43.39-5.14.24-3-.41-.18-.21,1.66-.31,1.32.1C6.83,18.56,11.77,16.76,12.83,17.7Z"/>
  <path class="cls-4" d="M12.83,17.7c-1.09-.32-5.74.53-1.17.56-4.66-.12,3,1.62,1.17-.56"/>
  <path class="cls-2" d="M13.39,18.49c.24.38-3.47.32-2,.68.17.19,2.77-1,2.36-.32-.21,0-.53-.5-.33-.22,2.14-.65-3.17,2.12-2.5.11A5.32,5.32,0,0,1,13.39,18.49Z"/>
  <path class="cls-4" d="M13.39,18.49c-.39,0-4.21.54-1.79.81.38-.2,3.11-.46,1.79-.81"/>
  <path class="cls-2" d="M13.59,18.74c.14.3-1.42.47-1.79.65.34.68,2-.59,2.36-.63s.21.3,0,.33-.83-.46-.51-.21c-.1-.66.69.25.52-.11h0c.08.13.06.16,0,0,.19.29-.13-.17.08.12-.26-.28.15.14-.11-.1.11.1.12.1,0,.1,0-.25.27.14.15.14,1-.43-3.61,1.89-2.45.05C11.56,19.29,13.8,18.31,13.59,18.74Z"/>
  <path class="cls-4" d="M13.59,18.74c-.65-.07-3.66,1.41-.67.76,2.16-1.06,1.21-.3.67-.76"/>
  <path class="cls-2" d="M14.06,18.94c-.25.6-2.34.8-.79,1-.17-.24,1.38-1.43,1-.78-.24,0-.3-.42-.16-.13-.29-.47.78-.06.32.11C12.6,21.5,11.71,18.86,14.06,18.94Z"/>
  <path class="cls-4" d="M14.06,18.94c-.75.08-2.41,1.37-.79,1,.34-.39,1.5-.92.79-1"/>
  <path class="cls-2" d="M14.24,19.12c0,.39-1.44,1.3-.24.84.28-.3.77-.89.55-.67.53.17-.76-.2-.21-.06-.36-.4.32-.13.46-.1s-.91,1.82-1.48,1.18C12.83,19.87,14.27,18.79,14.24,19.12Z"/>
  <path class="cls-4" d="M14.24,19.12c-.56.24-1.51,1.71-.14.94.84-1,.71-.75.14-.94"/>
  <path class="cls-2" d="M14.6,19.34c-.89,1.9-.13.71.62.08.18.45-1.17-.08-.5,0-.33-.29.29-.09.46-.15.68-.19-.65,1.6-.94,1.47C13.06,20.71,14.55,19,14.6,19.34Z"/>
  <path class="cls-4" d="M14.6,19.34c-.2.25-.5.65-.62.81-.23,1.32,2.16-1,.62-.81"/>
  <path class="cls-2" d="M15.1,19.51c-.65,1.86-.14,1.09.59,0,.12.41-1-.08-.46,0-.43-.34.49-.1.69-.19-.17.66-1,2.53-1.58,1.14C14.34,20.64,15,19.12,15.1,19.51Z"/>
  <path class="cls-4" d="M15.1,19.51a4.38,4.38,0,0,1-.56.86c-.17,1.56,2.09-1.13.56-.86"/>
  <path class="cls-2" d="M15.64,19.62c.34.21-.62.91-.13,1.23-.07,0,.84-.4.57-.39.05,0,.09-1.24.25-.68-.12,0-1.07-.07-.56-.09-.56-.34.61-.16.71-.2.49,1.29-1.89,2.52-1.24.61C15.24,20.4,15.52,19.1,15.64,19.62Z"/>
  <path class="cls-4" d="M15.64,19.62c-.11.23-.16.28-.28.55-.76,2.34,2.39-.89.28-.55"/>
  <path class="cls-2" d="M16.47,19.66c-.09.68-1.14,1.16.13,1.37-.3.19-.45-1.86,0-1.26-.12-.54.38,1.46.05,1.41C14.27,21.72,16.92,18.7,16.47,19.66Z"/>
  <path class="cls-4" d="M16.47,19.66C16.1,20,15,21.27,16.6,21a7.85,7.85,0,0,1-.13-1.37"/>
  <path class="cls-2" d="M12.17,17.7c.27-.22,2.86-.55,2.21.72-.56-.1-3,.38-2.5-.79.27-.24.44.2.16.24.49.31,2.58.61,2.05-.17.8.33-2.42,0-1.92.15Z"/>
  <path class="cls-4" d="M12.17,17.7c.37.16,2.55-.46,2.07.57-.34.07-3.21,0-2.07-.57"/>
  <path class="cls-2" d="M14.4,18.25c-.28.28-3.28.22-.57.39,1.29.14-.2-.06.72-.4C14.38,20.46,10,17.34,14.4,18.25Z"/>
  <path class="cls-4" d="M14.4,18.25H13c-1.56.38,2.34,1.12,1.45,0"/>
  <path class="cls-2" d="M14.48,18.48c.23.23-.71.29-.77.36-1.28.66,1.81-.24,1.09.09.29,0,0,.18-.12.19s-.44-.95-.16-.5c-.09-.65.61.65.18.19.12,0,.06.12.05,0,.06.17,0,.12,0,0,.06.12.07.16,0,0,0,.13.06.12,0,0,.06.11.06.11,0,0,.06.09.06.1,0,0,.24.13-.12.14,0,0,.23.12-.08.14,0,0,.28.29.34.1-.58.47C11.66,19.73,14.34,17.77,14.48,18.48Z"/>
  <path class="cls-4" d="M14.48,18.48l-.79.22c-1.9.73,2.22.72.79-.22"/>
  <path class="cls-2" d="M14.47,18.86c-.37.85-.32.8.43.05.45.6-.86-.2-.34.06-.11-.63,1.36.26,0,.49C13.55,20.82,13.94,18.33,14.47,18.86Z"/>
  <path class="cls-4" d="M14.47,18.86l-.31.25c-.71,1.22,1.77-.23.31-.25"/>
  <path class="cls-2" d="M14.93,19c.21.33-.7.82.27.46-.32-.15.41-.93.4-.4,0,.35-1-.08-.56,0-.52-.4.85-.14.28-.12.06-.06.19.09,0,0,0,0,.22.09,0,.06,0-.1.28,0,0,0,.09-.05.22,0,0,0,.1,0,.11,0,0,0,.2-.15.19.2,0,0,.1-.11.34.05.14.09,0-.07.29-.38-.15.38C14.3,20.82,14.35,18.57,14.93,19Z"/>
  <path class="cls-2" d="M15.41,19.07c.28,0-.11.39-.13.49,0,.62.82-.71.62-.52.32.16-.24-.06.14.05-.33.24.13-.19-.11.11.31-.23-.13.22.11-.1.21.34-.19-.14.09.1-.19-.15.09-.11-.05.1-.12,0-1.06-.18-.54-.15-.56-.49.95.05.34-.08.35-.29.39.06,0,.57C14.85,21,14.91,18.58,15.41,19.07Z"/>
  <path class="cls-4" d="M15.41,19.07c-.39.3-.34,1.36.36.5s0-.24-.36-.5"/>
  <path class="cls-2" d="M16,19.18c-.16,1.08,0,.86.54.1l.08,0c-.14-.05-.13-.07,0,0-.17-.12,0,.1-.12-.05.46.3-.31.1.13.05.21.13,0,.23,0,0h0c.15.07.11.13,0,0,.09,0,.13.09.05.18s-1.14-.33-.57-.26c-.07-.61,1.46.29-.1,1C15.06,20.15,15.92,18.69,16,19.18Z"/>
  <path class="cls-4" d="M16,19.18c-.43.33-.28,1.41.37.63.72-.95-.07-.3-.37-.63"/>
  <path class="cls-2" d="M9.77,17.78c-2.93-.72,8-1.74,5.21.58,0,1.06,2.16-.42,1.79,1.16-5.14.15.25-2.13-7-1.59,1.38-.64,4.68-.4,4.4.07-.5.94,2.74,1.85,2.3.92-1.14.47-1.92.28-1.64-1.54C14.81,17.58,8.19,16.85,9.77,17.78Z"/>
  <path class="cls-4" d="M9.77,17.78c-1.94-1.11,6.23-.36,5.07-.55.13,3,.71.68,1.78,2.14-3,.26-2.07-2.43-6.85-1.59"/>
  <path class="cls-2" d="M21.16,18.92c.63-.5,2.09.36,1.5-1.13-.37-1.13,12.56-1.39,10.9,0-1.73.32-10.09.07-9.68.12.72,1.71-4.16,2.22-2.58,1-.25.95,2.8,0,2.38-1.19.53-.51,8.78.5,9.79-.37-1,.05-9.34,0-10.52,0C23.05,18.7,23,19.54,21.16,18.92Z"/>
  <path class="cls-4" d="M21.16,18.92c.71.06,2.52.06,1.5-1.13-.61-1.3,10.72-.23,10.81-.56.5,1.32-9.51.21-9.52.57-.37,1.64-2.59,2.22-2.79,1.12"/>
  <path class="cls-2" d="M27.14,18.13c0-.32,5.06-.19,5.27-.05.9,1.39-7,.77-5.27.05.22-.14.25.66,0,.54-.14-.54,5.6.31,5-.4.1-.08-5.78.19-4.83-.15Z"/>
  <path class="cls-4" d="M27.14,18.13c.11.19,7-.53,4.69.54-.23-.24-5.38.58-4.69-.54"/>
  <path class="cls-2" d="M26.53,18.46c1-.13,6.3-.42,5.2.75-1.5.15-6.94.22-5.05-.75-.94.83,3.55.55,4.94.43.56-.35-4.8.05-4.94-.43Z"/>
  <path class="cls-4" d="M26.53,18.46l5,.2c1,.94-6.11.61-5-.2"/>
  <path class="cls-2" d="M25.83,18.62c1.26,0,6.34-.16,5.19,1-1.39,0-6.54.12-5.17-1.17-.85.75,3.43,1,5,.86.18-.29-4.9-.26-4.92-.71Z"/>
  <path class="cls-4" d="M25.83,18.62l5,.49c.91,1-6.11.24-5-.49"/>
  <path class="cls-2" d="M26.22,19.07c-.17-.21,4,.17,3.7.6-.92,2-7.7-1.51-3.68-.74-3.16-.14,2.57,1.62,3.37.66C30.46,19.72,25.8,19.35,26.22,19.07Z"/>
  <path class="cls-4" d="M26.22,19.07l3.52.46c.35,1.75-7.3-1.12-3.52-.46"/>
  <path class="cls-2" d="M24.86,19.05c6.83.88.75,2.65-.58.11.23-.08.68-.28.62-.13-.23-.16.2.07-.12,0,0-.2.19,0,.1.13-.18-.35.1.1,0-.12,0,.21-.1.14,0-.15-.18.08.36-.12.06.29-1.49-.08,1.93,1.3,2.77,1C28.24,19.76,24.14,19.26,24.86,19.05Z"/>
  <path class="cls-4" d="M24.86,19.05l2.9.8c1.48,1.38-4.9-.28-2.9-.8"/>
  <path class="cls-2" d="M24.64,19.4c0-.4,1.92.86,1.58.57,2.05,3-5-1-1.51-.7.11.35-1,.43-.95.16,0-.47,1.88,1.6,1.68,1.33,2.7.23-1.13-1.34-.79-1.21Z"/>
  <path class="cls-4" d="M24.64,19.4l1.53.71c1.75,2.43-4.48-1.22-1.53-.71"/>
  <path class="cls-2" d="M23.91,19.53c.68.09,2.77,1.93.79,2.12.15-.88-1.66-1.85-1.11-1.82-.25.29-.13-.32.1-.11-.36.35.06-.35.21-.39s-.09.19.11.3c-.14.23-.66.49-.46.24,0-.06-.09.13,0,0-.14.17.08-.07-.07.1.07-.09.06-.12.08,0-.13-.07.05-.22,0,0,0-.12,0-.12,0,0,0-.16,0-.16.05,0-.08.08-.14-.27,0,0-.2-.17.16-.15,0,0-.09-.12-.09-.12.06-.1-.16,0-.15,0,0-.11.11.18-.25.12,0,0-.17.19-.06-.09,0,.1-.3.05,0-.15,0,0s-.15,0,0-.08c-.51-.44,1.85,1.67,1.09,1.59C26.32,21.16,23.34,19.58,23.91,19.53Z"/>
  <path class="cls-4" d="M23.91,19.53c1.62.78,2,3.26.16.76-.84-.78-.43-.3-.16-.76"/>
  <path class="cls-2" d="M23.72,19.93c4.08,3.26-2.89.87,0-.15.17.28-.56.45-.55.4.19,0,1.52,1.89,1.09,1.67,1.05-.23-.57-1.83-.57-1.77Z"/>
  <path class="cls-4" d="M23.72,19.93c.85.52,1.72,1.93.53,1.94-.06-.77-2-1.88-.53-1.94"/>
  <path class="cls-2" d="M23.22,20.3c1-.29,1.85,2.81.24,2-.63-1.21-1.79-2.56-.24-2,.17.2-.79.31-.67.07.33-.16.88,1.63,1.25,1.81C24.9,21.65,23,20.53,23.22,20.3Z"/>
  <path class="cls-4" d="M23.22,20.3c3.57,3.87-2.51.07,0,0"/>
  <path class="cls-2" d="M22.72,20.42c.62-.09,1.89,2.18.46,2.17-1.12-.28-1.53-3.24-.43-2-1.33-.17.35.82.12,1.75,1.69.3-.25-1.7-.12-1.75Z"/>
  <path class="cls-4" d="M22.72,20.42c.78.53,1.63,2.5.15,1.89-.19-.66-1.35-1.91-.15-1.89"/>
  <path class="cls-2" d="M22.35,20.58c1.33.05.82,3.52-.37,1.59-.28-1,.05-2.26.44-1.47-.1,0-.43.4-.47.13.44-.29,0,1.52.58,1.57,1.11.31-.39-1.82-.11-1.7Z"/>
  <path class="cls-4" d="M22.34,20.58c.95.49.88,3-.21,1.59,0-.87-.46-1.38.21-1.59"/>
  <path class="cls-2" d="M27.68,17.69c0-.31,5.06-.19,5.28,0,.9,1.38-7,.76-5.28,0,.22-.14.25.66,0,.54-.16-.54,5.61.31,4.95-.4.1-.08-5.77.2-4.83-.15Z"/>
  <path class="cls-4" d="M27.68,17.69h5c1.67.74-5.86,1-5,0"/>
  <path class="cls-2" d="M21.77,20.63c1.34,0,.85,3.53-.35,1.59-.28-1,0-2.25.43-1.47-.51,0-.35,1.24.11,1.7,1.12.31-.39-1.82-.11-1.7Z"/>
  <path class="cls-4" d="M21.77,20.63c.38.36,1.24,1.68.45,1.95s-1.1-1.78-.45-1.95"/>
  <path class="cls-2" d="M21.83,20.89c1.13,0,.61,1.92-.53,1.27.16-.37-.34-2,.59-1.41C20.88,22.84,22.89,21.91,21.83,20.89Z"/>
  <path class="cls-4" d="M21.83,20.89c1.53,1-1,2-.34-.07l.34.07"/>
  <path class="cls-2" d="M21.33,21c1.85.28-.68,1.95-.62,1.25-.06.33-.31-.06,0,0a.15.15,0,0,1-.29,0c0-.19.65-.3.58-.07-.35.13.3-1.34.25-1.4.39.11,0,1.88-.67,1.59v0a.74.74,0,0,0,0-.12c.06.24,0-.12,0,.14,0-.14,0-.14,0,0,0-.11,0-.11,0,0-.22-.23.22-.11,0,0-.2-.25.26-.07-.08,0s0-.51,0-.14a.62.62,0,0,0,0-.15c1-.06,1.11-.15.93-1.06Z"/>
  <path class="cls-4" d="M21.33,21c.32.2,1.08,1-.17,1.16-1.1.41.35-.37.17-1.16"/>
  <path class="cls-2" d="M25,17.7c.16-.3,3.95-.3,3.48.21-.13.7-2.51.73-2.4.24.22-.17,1.56.15,1.33,0,2,1-4.92,1.47-2.5-.57.36-.08-.1,1.21-.35,1s3.6.47,2.82-.14c-1.7,0-1.11-.21-1.16,0-.06-.15-.06-.15,0,0-.07,0-.15-.26,0,0-.18-.34.21.15-.09-.12.33-.23-.12.2.1-.1-.46-.19.5.23,1.9-.22.09-.27-3.77,0-3-.18Z"/>
  <path class="cls-4" d="M25,17.7c1.08-.3,5.4.46,1.18.56,4.57-.13-3,1.62-1.18-.56"/>
  <path class="cls-2" d="M24.41,18.49c.46-.22,2.66,0,2.66.58-.13,1.1-4.62-.52-2.66-.58.2.13-.43.48-.43.23.28-.38,2.33.83,2.81.35,0-.22-2.86-.46-2.32-.45Z"/>
  <path class="cls-4" d="M24.41,18.49c.38,0,4.19.54,1.76.81-.38-.2-3.12-.46-1.76-.81"/>
  <path class="cls-2" d="M24.2,18.74c3.13,0,1.81,2.14-.68.29h0c.09-.2,0,.11.05-.13h0c0,.36-.1-.17.12.08-.14.2-.19-.22,0,0-.1-.07-.1-.07,0,0-.22,0,0-.27,0-.06-.19,0-.11,0-.07-.13,0,.16-.07.06,0,0-.15.22.18-.18,0,.17.5-.85,1,.25-.13.09-.4-1,1.92,1.09,2.47.42C25.55,19.13,23.84,19,24.2,18.74Z"/>
  <path class="cls-4" d="M24.2,18.74c.65-.07,3.64,1.41.66.76-2.15-1.06-1.2-.3-.66-.76"/>
  <path class="cls-2" d="M23.72,18.94c.49-.29,2.51,1,1.18,1.31-.71-.18-2.42-1.6-1.18-1.31.23.25-.5.33-.16,0,.36.4,1.89,1.61,1.32.64.35.08-1.53-.61-1.09-.54Z"/>
  <path class="cls-4" d="M23.72,18.94c.75.09,2.42,1.37.79,1-.34-.39-1.48-.92-.79-1"/>
  <path class="cls-2" d="M23.55,19.12c.92-.18,1.47,2.16,0,1-1.25-.9,0-1.55,0-.9-.38.15-.57,0-.34,0-.27-.3.52,1,1,.87C24.45,19.76,23.23,19.39,23.55,19.12Z"/>
  <path class="cls-4" d="M23.55,19.12a6.32,6.32,0,0,0,.74.63c.72,1.59-2.35-.82-.74-.63"/>
  <path class="cls-2" d="M23.18,19.34c.53.09,1.33,1.28.36,1.41-.85-.55-1.73-1.59-.34-1.61.35.31-.65.7-.63.28.36-.22.79,1.64,1.14.84-.06-.08-.95-1.12-.44-.81Z"/>
  <path class="cls-4" d="M23.18,19.34l.63.81c.22,1.32-2.15-1-.63-.81"/>
  <path class="cls-2" d="M22.68,19.51c.39,0,.68.92.76,1-.54,1.61-2.53-1.67-.68-1.18.18.25-.68.58-.66.21.51.07.35,1.45,1,1.11C23.16,20.15,22.33,19.66,22.68,19.51Z"/>
  <path class="cls-4" d="M22.68,19.51a4.38,4.38,0,0,0,.56.86c.18,1.57-2.09-1.13-.56-.86"/>
  <path class="cls-2" d="M22.14,19.62c.41.08.67.77.47,1.33-1.08,1-2.28-2.7-.47-1.18-.08-.05-.83.14-.69-.14.37-.13.07,1.23.25.83,1.36,1.3.17-1.08.44-.69Z"/>
  <path class="cls-4" d="M22.14,19.62c.11.23.17.28.29.55.75,2.34-2.4-.89-.29-.55"/>
  <path class="cls-2" d="M21.33,19.66c2.22,1.25-1.08,2.72-.14-.33.32.08.45,1.56,0,1.71C22.39,21,21.22,19.78,21.33,19.66Z"/>
  <path class="cls-4" d="M21.32,19.66c.37.36,1.46,1.61-.14,1.37a7,7,0,0,0,.14-1.37"/>
  <path class="cls-2" d="M25.62,17.7c.25.24-2.33.24-2.08,0s.1.48.15.57c-.69-.31,2.64,0,1.93-.42,1.48-.22-1.41,1.07-2.22.56C22.75,17.14,25.36,17.48,25.62,17.7Z"/>
  <path class="cls-4" d="M25.62,17.7c-.37.16-2.57-.46-2.08.57.34.07,3.19,0,2.08-.57"/>
  <path class="cls-2" d="M23.38,18.25c-.16-.38,1.84,0,1.45-.14,2.07.6-2.44,1.68-1.59,0,.24-.09.43.71.1.66,0-.39,1.4.09,1.78-.27,0-.24-2.3,0-1.6-.24Z"/>
  <path class="cls-4" d="M23.38,18.25h1.45c1.56.38-2.34,1.11-1.45,0"/>
  <path class="cls-2" d="M23.3,18.48c1.71-.46,1.78,1.76-.34.6-.07,0,.07-.22,0,0h0c0-.16,0-.16,0,0-.08-.05,0-.2.12-.05-.12.2-.2-.24,0,0-.09-.08-.1-.08,0,0-.13,0-.13-.07,0-.16-.11.11-.1.11,0,0,.08,0-.17.25,0,0-.09.18,0,0,0,0,.07-.14,0,.06,0,.11-.31,0,.2-.54.2-.64.3,0,0,.91-.27.76-.5-.79,1.09.4,1.48,0,0-.23-1.64-.45-1-.49Z"/>
  <path class="cls-4" d="M23.3,18.48c3.24.64-1.33,1.21,0,0"/>
  <path class="cls-2" d="M23.31,18.86c2.41,1.46-2.54.35,0-.15.28.27-.86.66-.47.2.14.07.61.83.72.48-.13-.33,0-.08-.38-.41C23.35,18.7,23.38,19.19,23.31,18.86Z"/>
  <path class="cls-4" d="M23.31,18.86l.31.25c.7,1.22-1.77-.23-.31-.25"/>
  <path class="cls-2" d="M22.86,19c1.14,0-.15,1.72-.27.46-.17.19-.58-.58-.27-.46s-.3.15-.1-.1.35.06.13.14c-.2-.24.93-.26.51,0,0,.38-.79.07-.66.09.26-.19-.12.12.12-.08-.19.23,0-.14,0,.14-.22,0,.08-.28,0,0a.16.16,0,0,1-.1-.25c.13-.08.1,0,.1.11-.2-.13.05-.24,0,0-.33-.3.44,0,0,0,.34-.13-.18.08.13-.07,0-.1.52,1,.61.57-.16-.08-.35-.77-.19-.37Z"/>
  <path class="cls-4" d="M22.85,19c1.37,1.65-1.62-.24,0,0"/>
  <path class="cls-2" d="M22.37,19.07c.77-.08.3,1.77-.48.57-.26-.28-.42-.93,0-.57-.53,0,.42-.18.54-.15.17.25-.63.5-.79.3s.16-.09,0,0c.11-.21.18.05,0,0,.05-.19.28,0,.08,0,0-.15,0-.16.1,0-.11-.11-.11-.11.05-.09,0,.18-.27-.09,0,0-.15-.09-.17-.2.51.64.3-.08-.35-.92,0-.54Z"/>
  <path class="cls-4" d="M22.37,19.07c.39.29.34,1.36-.36.5s0-.24.36-.5"/>
  <path class="cls-2" d="M21.8,19.18c1.32.52-.55,1.7-.74.23.11-.09.08-.07,0,0,.14-.16-.07.1.1-.1,0,.37-.15-.16.12.08-.18.17-.17-.19,0,0-.29-.22.25.08-.12-.08.16-.08.19,0,0,0l.12,0c-.49.09.41-.3.58-.27.23.22-.71.66-.83.39.23-.7.54.66.74.54C22.17,19.66,21.53,19.15,21.8,19.18Z"/>
  <path class="cls-4" d="M21.8,19.18c.45.32.28,1.41-.36.63-.72-.95,0-.31.36-.63"/>
  <path class="cls-2" d="M28,17.78c1.58-.92-5.06-.2-5.06-.4a.21.21,0,0,0-.2.31C24.27,19,21,19.4,21.3,18.92c-.31.82,2.34.24,2.44-.92-.58-.6,2.42-.46,4.27-.22a18.6,18.6,0,0,1-4.18.12c.5,1.24-1.59,1.88-2.82,1.62-.37-1.58,1.74-.09,1.79-1.16C20,16,31,17.07,28,17.78Z"/>
  <path class="cls-4" d="M28,17.78c1.87-1.09-6.17-.37-5.07-.55-.57.9.43,2.11-1.78,1.68,2.05,1.86,2.33-2.3,6.85-1.13"/>
  <path class="cls-2" d="M18.3,21.11c-.43-.18-1.12,1.62-.72,1.74a10.11,10.11,0,0,0,.72-1.74c.36.12-.5,2.58-1,1.7C16.86,22.23,18.26,20.19,18.3,21.11Zm.1.64c-.36,2.13.15.27.09,0-.43,0,.24-.34.2.13C18.87,23.57,17.32,22.74,18.4,21.75Zm2-1.84c-.05,1.16-1.72,3.68-3.06,3.41C19.66,26.4,20,21,20.53,19.94,20.12,26.46,15.48,25,20.43,19.91ZM19,22.16c-.21.08-.14-.49-.14-.29-.2,1.08-.19.16,0,.3.4-.07-.15.52-.32.3C18.37,21.51,19.45,21.64,19,22.16Zm-.87-1.84c-.85-1.08-1.26.43-.83.79.23-.11.75-.83.8-.4-.22,0-.13-.47.13-.39,0,.62-.44.18-.22.33-.19-.11.14,0-.09,0,0-.13.2,0,0,0,.17-.06.05.17,0,0,.11,0,.11,0,.05.08.08-.1,0-.11.06,0,0-.12,0,0,0,0C15.56,22.66,18,17.87,18.17,20.32Zm1.29,1.31c-.14.14-.22-.26-.18-.13a2.57,2.57,0,0,0,0,.5c-.51.09.38-.64.1-.33.46-.16-.34.78-.32.22C18.81,21.11,19.8,21.38,19.46,21.63ZM18.28,19c-.31-.18-.46-.85-.82-1.15-.81.71.9,2.3.72,1.17.94.73-1.11.72-1.09-.27C16.79,16.88,18.48,18.2,18.28,19Zm.74.83c-.22.1-.1-.44-.1-.16-.27-.28-.11.76-.13.75h0c.24-1.12.67-.2,0,.21C18,20.38,19.16,18.73,19,19.86Zm1,.91c-.37,0-.69-.2-.37.49-.15.5.29-.85.31-.41C19.51,23,18.9,19.32,20,20.77Zm-1.28-2.62c-.25,0-.06-.21-.06-.08,0,.59-.22.41.06.08.39.06-.24.81-.3.18C18.21,17.81,19,17.82,18.72,18.15Zm1.63,1.25c-.17-.49-1,.26-.63.82.09-.3.45.05.45-.17,0,.23,0-.67.18-.65.49.34-.34,1.32-.87.8C18.88,19.49,20.73,18.45,20.35,19.4Zm-2.11-2.86c-.69-1.45-.36,2.3,0,0,.52.34-.47,1.6-.59.41C17.29,16.06,18.53,15.66,18.24,16.54Zm2,.93c-.2.06-.17-.34-.13-.18-.09-.17.07.21-.18.1-.05.72-.87,2.51.11.91a1.3,1.3,0,0,0,.1-.81c.68,0-.21,2-.71,1.64C19,18.56,20.25,16.32,20.22,17.47ZM19,16.07c-.83-1.92-.21,2.59-.1.1.31-.47.31,1-.13,1C17.64,16.57,19.13,14.21,19,16.07Zm.42-.15c-.07.62-.32,2.6-.24,2.48h0c.27-.77.64-2.2.24-2.48,1.5,1.66-1.62,4.4-.06-.08Zm1.09,2.41c.33,1.82.12,5.58-2,6.49-5.49-2.18.94-17,2-6.49C15.05,3.68,17,37.52,20.54,18.33Zm.09-.09c-3.13-13.93-6.93,12.08-.77,5,.82-1.5.4-3.82.87-5.05,0,2,0,7.26-2.88,6.63C13.31,21.2,19.48,7.78,20.63,18.24Zm.08-.09a9.47,9.47,0,0,1-1.24,6.49c-7.53,2.68-.56-20.37,1.24-6.49C19.06,8.31,14.36,19.68,17.2,24,20,27.68,21,19.55,20.61,18.16Z"/>
  <path class="cls-5" d="M18.3,21.11c-.34-.52-1.18,1.22-.89,1.66.45.53.89-1.29.89-1.66m.1.64c-.19.44-.61,1.55.13.89,0-.2.22-1.09-.13-.89m2-1.84c-.52,1.4-1.43,3.17-3.06,3.41,1.8,3.2,3.15-1.81,3.06-3.41M19,22.16c-.1-.8-.37-.22-.33.31Zm-.87-1.84c-.66-1.92-2,1.89-.28.47.26-.22.27-.19.28-.47m1.29,1.31c-.32-.8-.48.83-.14.19ZM18.28,19c-.16-.36-.49-1.23-.91-1.21-.87.69.94,2.63.91,1.21m.74.83c-.11-.64-.48,0-.37.37.11.78.51-.08.37-.37m1,.91c-.49-.51-.79.09-.45.54.14.21.34-.38.45-.54m-1.28-2.62c0-.38-.26-.07-.2.17.05.42.27,0,.2-.17m1.63,1.25c-.07-1-1.37.67-.63.82.52.09.74-.35.63-.82m-2.11-2.86c-.6-1.72-.7,1.87,0,.51a1.73,1.73,0,0,0,0-.51m2,.93c-.27-.81-.84,1.12-.77,1.46C19.73,19.45,20.44,17.86,20.22,17.47ZM19,16.07c-.27-1.45-.81.34-.37.89.39.35.4-.64.37-.89m.43-.15c-.2.62-.64,2.2-.18,2.55.16-.7.89-2.11.18-2.55m1.08,2.41c.87,3-2.35,9.89-3.74,3.75-1.62-4.18,2.88-11.85,3.74-3.75m.09-.09c-1.38-9.62-6.25,1.55-3.43,5.64C19.81,27.44,21,20.16,20.63,18.24Zm.08-.09c.39,2-.85,9.62-3.61,5.93C14.09,19.73,19.28,8,20.71,18.15Z"/>
  <path class="cls-6" d="M18.9,24.7c-.92.45-2.09-1.52-.79-.42A1.13,1.13,0,0,0,18.9,24.7Z"/>
  <path class="cls-6" d="M17.87,24c-.68.17-.73-.71-.92-1.2C17.66,22.64,17.51,23.54,17.87,24Z"/>
  <path class="cls-6" d="M17.41,22.8c-.68.12-.55-.64-.67-1.12C17.18,21.13,17.3,22.38,17.41,22.8Z"/>
  <path class="cls-6" d="M17.18,21.62c-.74.08-.48-.77-.57-1.28C17.18,19.81,17.1,21.18,17.18,21.62Z"/>
  <path class="cls-6" d="M17.08,20.32c-.74,0-.42-.73-.45-1.24C17.22,18.59,17.07,19.87,17.08,20.32Z"/>
  <path class="cls-6" d="M17.11,19.09c-.75,0-.34-.77-.32-1.29C17.44,17.35,17.15,18.63,17.11,19.09Z"/>
  <path class="cls-6" d="M17.27,17.85c-.77-.11-.26-.84-.18-1.36C17.85,16.19,17.33,17.37,17.27,17.85Z"/>
  <path class="cls-6" d="M17.58,16.6c-.8-.18-.15-.88.07-1.36C18.45,15.48,17.65,16.05,17.58,16.6Z"/>
  <path class="cls-7" d="M18.09,15.5c-1.42-.54,1.57-1.43.63-.63A2.1,2.1,0,0,0,18.09,15.5Z"/>
  <path class="cls-4" d="M19,14.75c-.89-.58.31-.19.59.15A.75.75,0,0,0,19,14.75Z"/>
  <path class="cls-2" d="M18.9,24.7c-3.27.95-3.1-10-.16-10.35.27,0,1.12.35.83.63a.82.82,0,0,0-1.11.22c-1,1.1-.7,1.88-1.23,2.92a1.66,1.66,0,0,1-.14,1.25c.18.09.15,1.06,0,1.08.47,1,0,3.59,1.82,4.14-.67.86-1.82-1.84-1.8-2.82-.22-2-.32-6.85,2.26-7.11.76.43-.16.16-.44-.09-1.1-.07-1.52,1.34-1.8,2.19a19.43,19.43,0,0,0-.45,4.39c.15-.08.21.45,0,.4.17,0,.33.86.16.88.15-.08.28.45.11.44.41.29.13.66.77,1.36.22.54,1.14.17,1.14.57Z"/>
  <path class="cls-8" d="M18.88,24.92c-.54,0-.33.1,0-.12s.47-.65.91-.54A1.4,1.4,0,0,1,18.88,24.92Z"/>
  <path class="cls-6" d="M19.83,24.26c-.87.37.57-1.8.53-1A4.55,4.55,0,0,1,19.83,24.26Z"/>
  <path class="cls-6" d="M20.41,23.1c-.72.28.09-1.83.31-1.1A6.9,6.9,0,0,1,20.41,23.1Z"/>
  <path class="cls-6" d="M20.75,21.9c-.57,0-.23-.45-.22-.82C20.78,19.72,21.06,21.31,20.75,21.9Z"/>
  <path class="cls-6" d="M20.94,20.64c-.53,0-.26-.51-.29-.88C20.75,18.4,21.2,20,20.94,20.64Z"/>
  <path class="cls-6" d="M21,19.32c-.56-.07-.29-.67-.38-1.08C20.71,17.23,21.16,18.88,21,19.32Z"/>
  <path class="cls-6" d="M21,18.05c-.55-.13-.35-.76-.49-1.19C20.46,16,21,17.64,21,18.05Z"/>
  <path class="cls-6" d="M20.75,16.77c-.55-.21-.45-.9-.72-1.35C20.31,15.26,20.69,16.36,20.75,16.77Z"/>
  <path class="cls-6" d="M20.36,15.59c-.5-.24-.6-.86-1-1.2A3.09,3.09,0,0,1,20.36,15.59Z"/>
  <path class="cls-2" d="M18.88,24.92c-.41.37-.58-.09.07-.27a3.27,3.27,0,0,0,.91-1.37c.35-.53.42-2.21.7-2.42-.23-.1,0-.71,0-1,.09,0-.13-.48.12-.56-.26-.1,0-.69-.11-.7.06-.31-.22-1,0-1.08-.37-.57-.18-1.15-.52-1.81.15,0-.16-.27-.3-.64s-.7-.6-.42-.84c2,1.44,1.84,4.42,1.7,6.63-.27,1.45-.48,3.68-2.13,4.16,1.6-1.17,1.56-2.87,2-4.28-.23-.3.08-1.15,0-1.64.08-.66-.25-1.26,0-1.61-.16.07-.28-.64-.11-.62-.17,0-.41-.86-.27-1-.21-.21-.84-1.21-1.24-1.61.95.35,1.23,2.17,1.4,3.2a12.63,12.63,0,0,1-.54,5.69c-.31.74-.75,1.73-1.64,1.85-.16-.43.53-.07.39-.23Z"/>
  <path class="cls-6" d="M18.86,25.15c-.81.47-2.3-1.38-.78-.33A1.11,1.11,0,0,0,18.86,25.15Z"/>
  <path class="cls-6" d="M17.81,24.5c-.7.19-.8-.71-1-1.19C17.51,23.16,17.4,24.09,17.81,24.5Z"/>
  <path class="cls-6" d="M17.26,23.32c-.7.15-.58-.66-.74-1.14C17,21.57,17.12,22.91,17.26,23.32Z"/>
  <path class="cls-6" d="M17,22.09c-.74.1-.5-.74-.61-1.24C16.87,20.26,16.89,21.64,17,22.09Z"/>
  <path class="cls-6" d="M16.82,20.8c-.72,0-.45-.68-.49-1.18C16.85,19.06,16.82,20.35,16.82,20.8Z"/>
  <path class="cls-6" d="M16.81,19.59c-.76,0-.4-.74-.4-1.26C17,17.8,16.84,19.13,16.81,19.59Z"/>
  <path class="cls-6" d="M16.9,18.34c-.76-.07-.33-.78-.29-1.3C17.27,16.57,17,17.88,16.9,18.34Z"/>
  <path class="cls-6" d="M17.11,17.1c-.77-.14-.27-.81-.16-1.33C17.71,15.46,17.2,16.62,17.11,17.1Z"/>
  <path class="cls-6" d="M17.45,15.89c-.81-.2-.14-.88.11-1.35C18.46,14.48,17.56,15.38,17.45,15.89Z"/>
  <path class="cls-7" d="M18.05,14.74c-1.23-.48,1.09-1.36.95-.66A1.59,1.59,0,0,0,18.05,14.74Z"/>
  <path class="cls-4" d="M19.12,14.07c-.87-.62.27-.1.55.21A1,1,0,0,0,19.12,14.07Z"/>
  <path class="cls-2" d="M18.86,25.15c-3.61,1-3.42-11.21-.13-11.48.29,0,1.17.41.88.7-.51-.44-1.16,0-1.48.43-.95,1.25-.84,2.69-1.29,4.17.15,0,.13.21,0,.15.16-.05.13.69,0,.63.14-.06.2.42,0,.45.29,0,0,.59.12.44-.06.15.15.34-.08.45.46.92.18,3.36,2,4.06-1.45.25-1.9-2.43-2.07-3.62-.25-1.82,0-8.23,2.83-7.4.23.59-.76-.51-1.12-.23-1.23.37-1.3,2.09-1.79,2.69.18,0,0,.55-.1.45.16,0,.1.24,0,.16.16,0,.11.24,0,.16.2.49-.09.64,0,1-.12.26.1.86-.19,1.28.15-.05.15.21,0,.16.17,0,.18.62,0,.62.14-.1.25.88.07.9.16,0,.2.3,0,.29.13-.06.26.38.07.44.16-.05.22.29.05.29.28.07.18.69.25.61,0,.21.33.6.14.79.82,1.05.42,1,1.92,1.53Z"/>
  <path class="cls-6" d="M19.58,18.67c-.37-.15-.35-.09-.2-.44s.05-1.24.62-.76C19.84,17.82,19.9,18.46,19.58,18.67Z"/>
  <path class="cls-6" d="M20,17.47c-.69-.17,0-.88-.33-1.38C19.94,15.77,20.32,17,20,17.47Z"/>
  <path class="cls-6" d="M20,16.2a3.52,3.52,0,0,1-.45-.3A3.91,3.91,0,0,1,20,16.2Z"/>
  <path class="cls-2" d="M19.58,18.67c-1.09.2.58-1.8-.08-2.67.89-.49.77,1.44.46,2-.09.24-.06.75-.4.75a8,8,0,0,1,.24-.93,2.92,2.92,0,0,0,.18-1.4c0-.27-.78-.45-.34-.6.47.79,0,2-.36,2.76-.16.06-.09-.11-.05-.19s.46.39.37.16Z"/>
  <path class="cls-6" d="M19.14,17.25c-.59-.15.09-.56-.12-1.26C19.28,15.5,19.77,17.2,19.14,17.25Z"/>
  <path class="cls-6" d="M19.39,16.09a1.17,1.17,0,0,1-.57-.61C19,15.61,19.38,15.79,19.39,16.09Z"/>
  <path class="cls-2" d="M19.14,17.25c-.92.21.24-1-.39-1.7.72-.47,1.08,1.36.55,1.79-.21.13-.23-.1-.09-.17a2.18,2.18,0,0,0,.12-.78.85.85,0,0,0-.56-.83c.08-.18.17-.17.24,0,.15.44.32,1.4-.24,1.59C18.49,16.85,19.3,17.08,19.14,17.25Z"/>
  <path class="cls-6" d="M19.93,19.27c-.77-.12.3-.71.3-1.23C21,18.19,20.21,19,19.93,19.27Z"/>
  <path class="cls-6" d="M20.58,18.22c-.53-.1-.24-.58-.42-.95C20.3,17.11,20.78,17.84,20.58,18.22Z"/>
  <path class="cls-2" d="M19.93,19.27c-.76.22-.15-.63,0-.81s.11-.77.32-.86c-.65-.68.56-.5.46.22.24.68-1.22,2.24-.6,1.1a1.59,1.59,0,0,0,.39-1.18c.08-.34-.65-.35-.32-.62l.08.1a1.81,1.81,0,0,1-.68,2c-.12-.52.55.23.34-.06Z"/>
  <path class="cls-6" d="M18.38,17.59s-.64-.21-.32-.2a1.2,1.2,0,0,0,.13-1.08C18.5,16,19,17.45,18.38,17.59Z"/>
  <path class="cls-6" d="M18.57,16.45a1.88,1.88,0,0,1-.54-.38C18.14,16.15,18.54,16.3,18.57,16.45Z"/>
  <path class="cls-2" d="M18.38,17.59c-.6.12-.4-.22-.24-.67s-.24-.69-.06-.94a1,1,0,0,1,.37,1.72c-.26-.05.08-.18.1-.52.22-.69-.41-.8-.52-1.11.41-.13.47,1.27,0,1.43-.17.06-.1-.1-.05-.19s.51.41.42.18Z"/>
  <path class="cls-9" d="M18.89,24.39c-.58,0-.29.1.06-.13s.45-.7.91-.57C19.63,24,19.32,24.4,18.89,24.39Z"/>
  <path class="cls-6" d="M19.86,23.69c-.77.14.16-.72.15-1.16C20.74,22.45,20,23.34,19.86,23.69Z"/>
  <path class="cls-6" d="M20.37,22.57c-.69.08-.05-.81-.1-1.24C20.94,21.32,20.41,22.15,20.37,22.57Z"/>
  <path class="cls-6" d="M20.63,21.4c-.59,0-.23-.54-.25-.92C20.65,19.44,20.86,20.94,20.63,21.4Z"/>
  <path class="cls-6" d="M20.77,20.22c-.15-.06-.45-.08-.34-.31C20.58,20,20.88,20,20.77,20.22Z"/>
  <path class="cls-2" d="M18.89,24.39c-.71.36-.24-.18.22-.41a3.69,3.69,0,0,0,.69-1.16,10.63,10.63,0,0,0,.52-2.73c.23-.76.76.21.5.68-.15,1.16-.56,3.78-1.93,3.62,1.26-.4,1.44-2.66,1.69-2.69-.22-.26.18-1.38.09-1.49-.25-.5-.22,1.14-.35,1.44-.22,1.05-.56,2.48-1.7,2.85C18.12,24.45,18.91,24.1,18.89,24.39Z"/>
  <path class="cls-6" d="M19,18.66c-.55-.12-.17-.23-.31-.65C18.79,17.89,19.45,18.46,19,18.66Z"/>
  <path class="cls-2" d="M19,18.66c-.49.23-.5-.37-.3-.78.42.06.8.6.35.89-.19.08.06-.39,0-.1-.08-.06.08-.16,0-.45.21.17-.67-.42-.21-.24.08.2.09.65-.22.62,0-.49.55.2.45,0Z"/>
  <path class="cls-6" d="M20.37,20.87a1.58,1.58,0,0,1-.72-.33A1.74,1.74,0,0,1,20.37,20.87Z"/>
  <path class="cls-2" d="M20.37,20.87c-.08.23-1-.17-.72-.44.52.17.86.2.69.53,0-.11,0-.1,0,0-.21-.16,0-.05-.17-.12s-.7-.08-.48-.4c.22.27.86.2.65.52Z"/>
  <path class="cls-6" d="M20,21.48c-.87.09.34-1.12.32-.5A4.26,4.26,0,0,1,20,21.48Z"/>
  <path class="cls-2" d="M20,21.48c-1,.47,0-1.46.47-.57-.3.92-.9.56-.21.17-.17,0,0-.34.12-.21a.87.87,0,0,0-.64.55c-.43-.13.55,0,.18,0Z"/>
  <path class="cls-6" d="M19.18,20.65c-.71,0,.18-.54-.25-1C19.22,19.41,19.78,20.41,19.18,20.65Z"/>
  <path class="cls-2" d="M19.18,20.65c-.47.27-.38-.21-.25-.58-.08-.47-.13-.74.43-.45a.8.8,0,0,1-.11,1.13c-.25,0,.25-.58.05-.86,0-.2-.57-.12-.43-.33s.07-.11.13,0a.86.86,0,0,1-.11,1.1c-.16.09-.13-.07-.09-.18s.49.32.38.1Z"/>
  <path class="cls-6" d="M18.51,19.7c-.25-.14-.5,0-.24-.27a1.06,1.06,0,0,0-.2-.86C18.2,18.21,19.17,19.51,18.51,19.7Z"/>
  <path class="cls-6" d="M18.44,18.64c-.48-.06-.62-.52-.9-.83C17.8,17.79,18.28,18.29,18.44,18.64Z"/>
  <path class="cls-2" d="M18.51,19.7c-.63.22-.31-.19-.34-.69S16.86,17.33,18,17.9c.35.4,1.31,1.66.46,1.9.64-1-1.3-2-.88-2.07.34.47,1.25,1.48.54,1.95-.32-.38.55.06.39-.07Z"/>
  <path class="cls-6" d="M19.85,21.7a.66.66,0,0,1-.56-.3C19.48,21.43,19.8,21.46,19.85,21.7Z"/>
  <path class="cls-2" d="M19.85,21.7c-.85.42-.57-1,.09-.05-.11.18-.13.14-.25,0s-.59,0-.36-.31c.08.22.75.27.43.44Z"/>
  <path class="cls-6" d="M19.56,22.07c-.47,0-.36-.11-.11-.42C19.91,21.63,19.83,21.78,19.56,22.07Z"/>
  <path class="cls-2" d="M19.56,22.07c0,.25-.73,0-.34-.28.08-.42,1.08-.28.46.29-.19.23-.21-.18,0-.29s.22-.18.18,0c-.21.05-.48-.23-.31-.07-.09,0,0,.07-.23.29s-.15,0-.11-.11.6.18.3.09Z"/>
  <path class="cls-6" d="M18.48,20.76c-.67,0-.11-.45-.43-.85C18,19.71,19,20.32,18.48,20.76Z"/>
  <path class="cls-2" d="M18.48,20.76c-.68.37-.24-.53-.55-.81.23-.55,1.07.34.69.8s-.08-.31-.16-.51-.92-.43-.34-.41a.79.79,0,0,1,0,.87c-.49-.29.69.06.24,0Z"/>
  <path class="cls-4" d="M18.49,23c-.08,0-.68,0-.27-.13.11-.12.87-.28.62-.06C18.73,22.83,18.58,22.85,18.49,23Z"/>
  <path class="cls-2" d="M18.49,23c-.07.3-.88-.1-.23-.26.24-.28,1.14-.09.52.21s-.16-.41.16-.22c.09.16-.52.1-.41,0,.2.16-.26.23-.36.32-.45-.28.63,0,.25-.09Z"/>
  <path class="cls-6" d="M19.43,22.21c-.37,0-.4-.15-.51-.44C19.06,21.75,19.51,21.86,19.43,22.21Z"/>
  <path class="cls-2" d="M19.43,22.21c-1.13.43-.24-1.45.1,0-.11.24-.35-.2-.21-.36,0,.15-.54.07-.43-.07s.23.15.23.27.57,0,.21.18Z"/>
  <path class="cls-10" d="M19.12,22.51c-.44,0-.42,0-.1-.34C19.45,22.15,19.46,22.24,19.12,22.51Z"/>
  <path class="cls-2" d="M19.12,22.51c-.25.29-.75-.1-.25-.33.24-.3.95,0,.42.31s-.11-.5.14-.28c.08.17-.51.09-.39-.05.18.1-.14.23-.21.34-.47-.17.58,0,.21-.06Z"/>
  <path class="cls-4" d="M20,20.32c-.57-.16-.22-.07.15-.15.36-.27-.11-1,.52-.64C20.79,20,20.6,20.43,20,20.32Z"/>
  <path class="cls-6" d="M20.71,19.53c-.29,0-.37-.22-.46-.45C20.46,19.15,20.75,19.25,20.71,19.53Z"/>
  <path class="cls-2" d="M20,20.32c0,.23-.61-.07-.32-.2s.32,0,.4,0c.12.3.06-.79.17-1.1.89,0,.56,1.87-.1,1.33,0,.27-.29,0-.1-.1.13.12,0,.05.1,0s.41.11.3,0a1.11,1.11,0,0,0,.08-.86c-.21,0-.53-.41-.18-.23.1.35.18,1-.25,1.18-.16,0-.32,0-.48,0-.05-.49.52.13.39-.1Z"/>
  <path class="cls-6" d="M18.94,22.68c-.69.09-.24-.5-.38-.92C18.93,21.46,19.09,22.19,18.94,22.68Z"/>
  <path class="cls-2" d="M18.94,22.68c-.23.32-.67-.11-.47-.51.13.11-.11-.34.05-.47-.27.12.44-.31.55.1a3,3,0,0,1,0,.89c-.39.12-.06-.37-.17-.84.28-.15-.62.18-.34-.25.32.2.09.7.1,1-.49-.07.68-.08.21.05Z"/>
  <path class="cls-6" d="M18,23c-.39-.06-.45.09-.2-.29s.18-1.11.78-.85C18.38,22.19,18.38,22.76,18,23Z"/>
  <path class="cls-6" d="M18.59,21.84c-.76,0-.06-.46-.35-.87C18.48,20.78,19,21.33,18.59,21.84Z"/>
  <path class="cls-2" d="M18,23c-.9.48,0-.82.08-1.28.09-.21.21-.5.05-.69,0-.41.81-.05.7.33a4,4,0,0,1-.76,1.73c-.13,0-.09-.22,0-.26s0,0,0,0c.23-.57.27-.73.47-1.18a.54.54,0,0,0,0-.48c-.28.08-.61-.39-.23-.18a.88.88,0,0,1-.05.82c0,.09-.21-.07,0,0-.15.07-.07-.07,0,.07A4.55,4.55,0,0,1,17.71,23c-.13.11-.14-.05-.13-.16s.61.19.41,0Z"/>
  <path class="cls-11" d="M17.85,21.27c-1.13,0,.66-.93.55-.45Z"/>
  <path class="cls-2" d="M17.85,21.27c-1.35.39.59-1.4.63-.41.13-.06-.41.35-.57.49s0-.46.12-.23c-.14-.15.32-.38.46-.47,0,.37-.56.07-.43,0,0,.28-.31.29-.59.61-.33-.45.68.1.31-.08Z"/>
  <path class="cls-2" d="M18.72,21.19c-.34,0,.08-.33-.22,0-.56.63-.73,1.56-.49,1.66a4.37,4.37,0,0,0,.61-1.66c.57-.12-.11.94-.16,1.24-.26,1-.88.55-.76-.15C17.65,21.9,18.84,20.25,18.72,21.19Zm.09.62c.12,0,0,.45-.14.36.17,0,0,.75-.16.68.34.12-.27.15,0,0s.58-.19.35-.15a2.73,2.73,0,0,0,0-.82c.07,0,0-.05.06,0s-.18-.14,0,0c-.32-.17.11-.35.18-.08a2.35,2.35,0,0,1-.06.95c-.61.61-.79-.15-.39-.38C18.41,22.39,18.68,21.58,18.81,21.81Zm2-1.79a4.36,4.36,0,0,1-2.86,3.41c1.68,2.61,2.27-1.36,2.65-1.74-.14-.13,0-1.91.3-1.63-.06.86-.24,3.07-1.23,4.05-.59,1.15-2.71-.75-1.45-.94C19.89,22.55,20.37,20.36,20.79,20Zm-1.36,2.19c-.23.11-.1-.57-.15-.28.07-.28-.13.71-.06.53,0,.14-.28,0-.09-.1s.43-.24.2-.14c.49,0-.53.78-.3,0C19.07,21.2,19.81,22.17,19.43,22.21Zm-.84-1.78c-.2.07-.06-.3-.22-.35-.33,0-.53.16-.57-.07,0,.4-.59,1.09.23,1.11-.14-.11.52-.68.53-.3-.33-.09.11-.48-.07-.38.31-.1.21.23.07.38-.3-.32,0,.15-.08-.07.15.09-.34.49-.4.32.12.38-.6.32-.65-.08C17,19.76,19,19.47,18.59,20.43Zm1.26,1.27c-.13.12-.12-.08-.22-.13.06-.22.07.13,0-.08.07.06.08.6-.06.58s.13-.28.18-.41.15.12,0,0c.07,0,.11.07,0,.1.45-.11-.45.85-.32.06C19.36,21,20.19,21.65,19.85,21.7ZM18.7,19.18c-.27,0-.73-1.71-.95-.79s.73,1,.64,1.26c.07-.27.3.21.15,0,.07-.16.13-.54.06-.42.39-.2.23.73-.11.6-.49-.33-.81-.18-1-.94s.37-1.5.82-.54C18.44,18.54,19,19.08,18.7,19.18Zm.72.8c-.17.06-.08-.14-.19-.2.09-.23,0,.17,0-.09,0,.25-.19.58,0,.87-.1.27.25-.75.09-.57.71,0-.32,1.48-.36.31,0-.24,0-.73.35-.71C19.43,19.62,19.64,20,19.42,20Zm.95.89c-.32.19-.51-.63-.45.27.11.28,0,.07.14.26-.26.32,0-.5.19-.32-.26-.06.23-.42.06-.13.32-.3-.18.82-.42.56s-.29-1.24.26-.92C20.24,20.65,20.62,20.89,20.37,20.87Zm-1.25-2.55c-.13.06-.17-.12-.05-.16-.16.22,0-.15,0,.09,0-.17,0,0,0,.23,0,.44,0-.15,0-.15.54-.17-.05.87-.18.24S19.46,18,19.12,18.32Zm1.59,1.21c-.31,0,0-.47-.2-.17-.06.07-.69.33-.49.8.64.31.61-.44.59-.62.39-.13.2.68,0,.83-.37,0-.44.16-.74-.06C19.3,19.6,21.1,18.59,20.71,19.53Zm-2.05-2.77c-.15.12-.29-.66-.24-.37-.32.33-.05.88,0,1.21.12-.2.21-.9.15-.82.61-.13-.09,1.6-.42.63-.09-.37-.18-1,.23-1.22C18.61,16.13,18.9,16.76,18.66,16.76Zm1.92.91c-.13.07-.21-.21-.12-.27-.09.17,0-.07-.05.14a3.46,3.46,0,0,0-.48,1.73c.08-.43.65-.8.57-1.33-.06-.16.2-.07,0-.12,0-.09.2-.06,0,0-.09-.13.21-.13,0-.09.72.07-.25,1.43-.4,1.61-.72.26-.19-1.53.12-1.53-.2,0,.06-.45.21-.47S20.79,17.67,20.58,17.67ZM19.42,16.3c-.21.05-.09-.38-.26-.49s0,.1,0-.09a2.92,2.92,0,0,0-.07,1c.19,1.14.32-.47.27-.44.64-.09-.13,1.92-.45.62-.06-.41-.18-1.08.24-1.33C19.39,15.54,19.66,16.28,19.42,16.3Zm.42-.15c.12.23-.18.48-.07.55-.14-.14.13.46-.16.42.23.08,0,.62,0,.86s.06.35,0,.68c0-.18.28-.91.42-1.61.1-.32-.09-.65-.1-.92,0,.25-.1-.12,0,.1-.05,0-.12-.16,0,0-.24-.14,0-.28.14-.1a1,1,0,0,1,.17.51c-.07.63-.14,1.76-.64,2.14C19.17,18.87,19.54,15.82,19.84,16.15Zm1.05,2.35c1,4.7-3.22,10.41-3.91,1.95-.39-2.12,1.58-8.94,3.61-4.19a8.42,8.42,0,0,1,.38,2c.08.66-.46-.15-.12-.22-.29-.18-.08-.46-.22-.81.08,0-.24-.42,0-.49-.13.07-.17-.09,0-.09-1.57-3.7-2.7-.92-3.37,1.47a1.66,1.66,0,0,1-.14,1.25c.18.09.15,1.06,0,1.08.46,1.78.11,1.93.81,3.33,1.39,2.38,2.72-1.38,2.71-2.08a11.47,11.47,0,0,0,.18-1.29c.11-.23-.13-.72.14-1.15-.16,0-.19-.69,0-.65C20.75,18.66,20.74,18.46,20.89,18.5Zm.08-.09c-.14.05-.15-.15,0-.12-.16,0-.26-.76-.09-.8-.16.07-.28-.64-.11-.62-.17,0-.41-.86-.27-1-.26,0-.14-.23-.27-.36-.86-2.09-2.38-.51-2.69,1-.45,1.26-.14,1.48-.53,2.23.17.09.09,1-.07,1,.27.62,0,1.61.28,2.33a8.3,8.3,0,0,0,.27,1.13c-.24,0,.23,0-.06.13.12-.11.31.36.14.36,2.17,3.22,2.94-1.65,3.36-3-.09,0-.16-2.62.15-2.34.08,2.08,0,4.42-1.34,6.13-2,1.8-2.84-2.19-2.87-3.62,0-2-.06-6.16,2.39-6.59C20.66,14.82,21.16,17.26,21,18.41Zm.09-.09c.83,1.87-1.37,10.45-3.79,5.35-.87-3-1-6.8,1-9.33,2.16-1.47,2.81,2.51,2.89,4-.34.19-.34-1.23-.22-1.07-.3.05,0-.34-.14-.21-.05-.24,0-.18-.08-.42.1,0-.33-.64-.16-.92-.88-1.7-2-2.26-2.92,0-.45.76-.45,2.33-.8,3.27.15,0,.13.21,0,.15.16-.05.13.69,0,.62.14,0,.2.43,0,.46.29,0,0,.59.12.44-.05.15.15.33-.08.45,1.34,7.35,4.13,3.25,4.24-2.4C20.86,18.65,21,18.18,21.06,18.32Z"/>
  <path class="cls-4" d="M18.72,21.19c-.27-.64-1.39,1.58-.71,1.8a3.24,3.24,0,0,0,.71-1.8m.09.62c-.11.25-.52,1.35-.1,1C19.05,22.83,19.14,21.64,18.81,21.81Zm2-1.78a5.23,5.23,0,0,1-2.56,3.23c-1,.12.82,1.81,1.35.79C20.55,23,20.64,21.41,20.79,20Zm-1.36,2.18c-.08-.74-.39-.1-.31.29A3.85,3.85,0,0,0,19.43,22.21Zm-.84-1.78c0-1-1.45-.23-1.06.52C17.73,21.61,18.58,20.81,18.59,20.43Zm1.26,1.27c-.26-.62-.41.31-.26.33S19.76,21.81,19.85,21.7ZM18.7,19.18A4.84,4.84,0,0,0,18,18c-.48-.19-.44.82-.32,1.11S18.89,20.06,18.7,19.18Zm.72.8c-.18-.74-.51.24-.33.55S19.5,20.17,19.42,20Zm.95.88c-.44-.47-.74,0-.49.45S20.24,21,20.37,20.86Zm-1.25-2.54c-.08-.42-.28.09-.17.27S19.16,18.43,19.12,18.32Zm1.59,1.21c0-.72-1,.19-.81.61S20.9,20.09,20.71,19.53Zm-2.05-2.76c-.19-1-.69.05-.44.55C18.47,18,18.77,17.1,18.66,16.77Zm1.92.9c-.2-.86-.89,1.18-.73,1.49C20.23,19.36,20.74,18.1,20.58,17.67ZM19.42,16.3c-.24-1.37-.7.1-.43.68C19.28,17.76,19.53,16.64,19.42,16.3Zm.42-.15c-.18.29-.61,2.6-.16,2.47C19.82,17.94,20.53,16.59,19.84,16.15Zm1.05,2.35c.53,2.16-1.48,9.6-3.45,4.4a10.89,10.89,0,0,1,.47-7.08C19.57,12.85,21,16.81,20.89,18.5Zm.08-.09c-.43-5.95-3.7-4.57-4,.48,0,1.72-.23,5.85,2.07,6C21.06,23.59,21,20.55,21,18.41Zm.09-.09c0,2.26.07,5.42-2,6.8-2.51-.18-2.27-4.76-2.17-6.62C17.33,13.07,20.7,12.45,21.06,18.32Z"/>
  <path class="cls-6" d="M18.9,24.7c-.92.45-2.09-1.52-.79-.42A1.13,1.13,0,0,0,18.9,24.7Z"/>
  <path class="cls-6" d="M17.87,24c-.68.17-.73-.71-.92-1.2C17.66,22.64,17.51,23.54,17.87,24Z"/>
  <path class="cls-6" d="M17.41,22.8c-.68.12-.55-.64-.67-1.12C17.18,21.13,17.3,22.38,17.41,22.8Z"/>
  <path class="cls-6" d="M17.18,21.62c-.74.08-.48-.77-.57-1.28C17.18,19.81,17.1,21.18,17.18,21.62Z"/>
  <path class="cls-6" d="M17.08,20.32c-.74,0-.42-.73-.45-1.24C17.22,18.59,17.07,19.87,17.08,20.32Z"/>
  <path class="cls-6" d="M17.11,19.09c-.75,0-.34-.77-.32-1.29C17.44,17.35,17.15,18.63,17.11,19.09Z"/>
  <path class="cls-6" d="M17.27,17.85c-.77-.11-.26-.84-.18-1.36C17.85,16.19,17.33,17.37,17.27,17.85Z"/>
  <path class="cls-6" d="M17.58,16.6c-.8-.18-.15-.88.07-1.36C18.45,15.48,17.65,16.05,17.58,16.6Z"/>
  <path class="cls-7" d="M18.09,15.5c-1.42-.54,1.57-1.43.63-.63A2.1,2.1,0,0,0,18.09,15.5Z"/>
  <path class="cls-4" d="M19,14.75c-.89-.58.31-.19.59.15A.75.75,0,0,0,19,14.75Z"/>
  <path class="cls-2" d="M18.9,24.7c-3.27.95-3.1-10-.16-10.35.27,0,1.12.35.83.63a.82.82,0,0,0-1.11.22c-1,1.1-.7,1.88-1.23,2.92a1.66,1.66,0,0,1-.14,1.25c.18.09.15,1.06,0,1.08.47,1,0,3.59,1.82,4.14-.67.86-1.82-1.84-1.8-2.82-.22-2-.32-6.85,2.26-7.11.76.43-.16.16-.44-.09-1.1-.07-1.52,1.34-1.8,2.19a19.43,19.43,0,0,0-.45,4.39c.15-.08.21.45,0,.4.17,0,.33.86.16.88.15-.08.28.45.11.44.41.29.13.66.77,1.36.22.54,1.14.17,1.14.57Z"/>
  <path class="cls-8" d="M18.88,24.92c-.54,0-.33.1,0-.12s.47-.65.91-.54A1.4,1.4,0,0,1,18.88,24.92Z"/>
  <path class="cls-6" d="M19.83,24.26c-.87.37.57-1.8.53-1A4.55,4.55,0,0,1,19.83,24.26Z"/>
  <path class="cls-6" d="M20.41,23.1c-.72.28.09-1.83.31-1.1A6.9,6.9,0,0,1,20.41,23.1Z"/>
  <path class="cls-6" d="M20.75,21.9c-.57,0-.23-.45-.22-.82C20.78,19.72,21.06,21.31,20.75,21.9Z"/>
  <path class="cls-6" d="M20.94,20.64c-.53,0-.26-.51-.29-.88C20.75,18.4,21.2,20,20.94,20.64Z"/>
  <path class="cls-6" d="M21,19.32c-.56-.07-.29-.67-.38-1.08C20.71,17.23,21.16,18.88,21,19.32Z"/>
  <path class="cls-6" d="M21,18.05c-.55-.13-.35-.76-.49-1.19C20.46,16,21,17.64,21,18.05Z"/>
  <path class="cls-6" d="M20.75,16.77c-.55-.21-.45-.9-.72-1.35C20.31,15.26,20.69,16.36,20.75,16.77Z"/>
  <path class="cls-6" d="M20.36,15.59c-.5-.24-.6-.86-1-1.2A3.09,3.09,0,0,1,20.36,15.59Z"/>
  <path class="cls-2" d="M18.88,24.92c-.41.37-.58-.09.07-.27a3.27,3.27,0,0,0,.91-1.37c.35-.53.42-2.21.7-2.42-.23-.1,0-.71,0-1,.09,0-.13-.48.12-.56-.26-.1,0-.69-.11-.7.06-.31-.22-1,0-1.08-.37-.57-.18-1.15-.52-1.81.15,0-.16-.27-.3-.64s-.7-.6-.42-.84c2,1.44,1.84,4.42,1.7,6.63-.27,1.45-.48,3.68-2.13,4.16,1.6-1.17,1.56-2.87,2-4.28-.23-.3.08-1.15,0-1.64.08-.66-.25-1.26,0-1.61-.16.07-.28-.64-.11-.62-.17,0-.41-.86-.27-1-.21-.21-.84-1.21-1.24-1.61.95.35,1.23,2.17,1.4,3.2a12.63,12.63,0,0,1-.54,5.69c-.31.74-.75,1.73-1.64,1.85-.16-.43.53-.07.39-.23Z"/>
  <path class="cls-6" d="M18.86,25.15c-.81.47-2.3-1.38-.78-.33A1.11,1.11,0,0,0,18.86,25.15Z"/>
  <path class="cls-6" d="M17.81,24.5c-.7.19-.8-.71-1-1.19C17.51,23.16,17.4,24.09,17.81,24.5Z"/>
  <path class="cls-6" d="M17.26,23.32c-.7.15-.58-.66-.74-1.14C17,21.57,17.12,22.91,17.26,23.32Z"/>
  <path class="cls-6" d="M17,22.09c-.74.1-.5-.74-.61-1.24C16.87,20.26,16.89,21.64,17,22.09Z"/>
  <path class="cls-6" d="M16.82,20.8c-.72,0-.45-.68-.49-1.18C16.85,19.06,16.82,20.35,16.82,20.8Z"/>
  <path class="cls-6" d="M16.81,19.59c-.76,0-.4-.74-.4-1.26C17,17.8,16.84,19.13,16.81,19.59Z"/>
  <path class="cls-6" d="M16.9,18.34c-.76-.07-.33-.78-.29-1.3C17.27,16.57,17,17.88,16.9,18.34Z"/>
  <path class="cls-6" d="M17.11,17.1c-.77-.14-.27-.81-.16-1.33C17.71,15.46,17.2,16.62,17.11,17.1Z"/>
  <path class="cls-6" d="M17.45,15.89c-.81-.2-.14-.88.11-1.35C18.46,14.48,17.56,15.38,17.45,15.89Z"/>
  <path class="cls-7" d="M18.05,14.74c-1.23-.48,1.09-1.36.95-.66A1.59,1.59,0,0,0,18.05,14.74Z"/>
  <path class="cls-4" d="M19.12,14.07c-.87-.62.27-.1.55.21A1,1,0,0,0,19.12,14.07Z"/>
  <path class="cls-2" d="M18.86,25.15c-3.61,1-3.42-11.21-.13-11.48.29,0,1.17.41.88.7-.51-.44-1.16,0-1.48.43-.95,1.25-.84,2.69-1.29,4.17.15,0,.13.21,0,.15.16-.05.13.69,0,.63.14-.06.2.42,0,.45.29,0,0,.59.12.44-.06.15.15.34-.08.45.46.92.18,3.36,2,4.06-1.45.25-1.9-2.43-2.07-3.62-.25-1.82,0-8.23,2.83-7.4.23.59-.76-.51-1.12-.23-1.23.37-1.3,2.09-1.79,2.69.18,0,0,.55-.1.45.16,0,.1.24,0,.16.16,0,.11.24,0,.16.2.49-.09.64,0,1-.12.26.1.86-.19,1.28.15-.05.15.21,0,.16.17,0,.18.62,0,.62.14-.1.25.88.07.9.16,0,.2.3,0,.29.13-.06.26.38.07.44.16-.05.22.29.05.29.28.07.18.69.25.61,0,.21.33.6.14.79.82,1.05.42,1,1.92,1.53Z"/>
  <path class="cls-6" d="M19.58,18.67c-.37-.15-.35-.09-.2-.44s.05-1.24.62-.76C19.84,17.82,19.9,18.46,19.58,18.67Z"/>
  <path class="cls-6" d="M20,17.47c-.69-.17,0-.88-.33-1.38C19.94,15.77,20.32,17,20,17.47Z"/>
  <path class="cls-6" d="M20,16.2a3.52,3.52,0,0,1-.45-.3A3.91,3.91,0,0,1,20,16.2Z"/>
  <path class="cls-2" d="M19.58,18.67c-1.09.2.58-1.8-.08-2.67.89-.49.77,1.44.46,2-.09.24-.06.75-.4.75a8,8,0,0,1,.24-.93,2.92,2.92,0,0,0,.18-1.4c0-.27-.78-.45-.34-.6.47.79,0,2-.36,2.76-.16.06-.09-.11-.05-.19s.46.39.37.16Z"/>
  <path class="cls-6" d="M19.14,17.25c-.59-.15.09-.56-.12-1.26C19.28,15.5,19.77,17.2,19.14,17.25Z"/>
  <path class="cls-6" d="M19.39,16.09a1.17,1.17,0,0,1-.57-.61C19,15.61,19.38,15.79,19.39,16.09Z"/>
  <path class="cls-2" d="M19.14,17.25c-.92.21.24-1-.39-1.7.72-.47,1.08,1.36.55,1.79-.21.13-.23-.1-.09-.17a2.18,2.18,0,0,0,.12-.78.85.85,0,0,0-.56-.83c.08-.18.17-.17.24,0,.15.44.32,1.4-.24,1.59C18.49,16.85,19.3,17.08,19.14,17.25Z"/>
  <path class="cls-6" d="M19.93,19.27c-.77-.12.3-.71.3-1.23C21,18.19,20.21,19,19.93,19.27Z"/>
  <path class="cls-6" d="M20.58,18.22c-.53-.1-.24-.58-.42-.95C20.3,17.11,20.78,17.84,20.58,18.22Z"/>
  <path class="cls-2" d="M19.93,19.27c-.76.22-.15-.63,0-.81s.11-.77.32-.86c-.65-.68.56-.5.46.22.24.68-1.22,2.24-.6,1.1a1.59,1.59,0,0,0,.39-1.18c.08-.34-.65-.35-.32-.62l.08.1a1.81,1.81,0,0,1-.68,2c-.12-.52.55.23.34-.06Z"/>
  <path class="cls-6" d="M18.38,17.59s-.64-.21-.32-.2a1.2,1.2,0,0,0,.13-1.08C18.5,16,19,17.45,18.38,17.59Z"/>
  <path class="cls-6" d="M18.57,16.45a1.88,1.88,0,0,1-.54-.38C18.14,16.15,18.54,16.3,18.57,16.45Z"/>
  <path class="cls-2" d="M18.38,17.59c-.6.12-.4-.22-.24-.67s-.24-.69-.06-.94a1,1,0,0,1,.37,1.72c-.26-.05.08-.18.1-.52.22-.69-.41-.8-.52-1.11.41-.13.47,1.27,0,1.43-.17.06-.1-.1-.05-.19s.51.41.42.18Z"/>
  <path class="cls-9" d="M18.89,24.39c-.58,0-.29.1.06-.13s.45-.7.91-.57C19.63,24,19.32,24.4,18.89,24.39Z"/>
  <path class="cls-6" d="M19.86,23.69c-.77.14.16-.72.15-1.16C20.74,22.45,20,23.34,19.86,23.69Z"/>
  <path class="cls-6" d="M20.37,22.57c-.69.08-.05-.81-.1-1.24C20.94,21.32,20.41,22.15,20.37,22.57Z"/>
  <path class="cls-6" d="M20.63,21.4c-.59,0-.23-.54-.25-.92C20.65,19.44,20.86,20.94,20.63,21.4Z"/>
  <path class="cls-6" d="M20.77,20.22c-.15-.06-.45-.08-.34-.31C20.58,20,20.88,20,20.77,20.22Z"/>
  <path class="cls-2" d="M18.89,24.39c-.71.36-.24-.18.22-.41a3.69,3.69,0,0,0,.69-1.16,10.63,10.63,0,0,0,.52-2.73c.23-.76.76.21.5.68-.15,1.16-.56,3.78-1.93,3.62,1.26-.4,1.44-2.66,1.69-2.69-.22-.26.18-1.38.09-1.49-.25-.5-.22,1.14-.35,1.44-.22,1.05-.56,2.48-1.7,2.85C18.12,24.45,18.91,24.1,18.89,24.39Z"/>
  <path class="cls-6" d="M19,18.66c-.55-.12-.17-.23-.31-.65C18.79,17.89,19.45,18.46,19,18.66Z"/>
  <path class="cls-2" d="M19,18.66c-.49.23-.5-.37-.3-.78.42.06.8.6.35.89-.19.08.06-.39,0-.1-.08-.06.08-.16,0-.45.21.17-.67-.42-.21-.24.08.2.09.65-.22.62,0-.49.55.2.45,0Z"/>
  <path class="cls-6" d="M20.37,20.87a1.58,1.58,0,0,1-.72-.33A1.74,1.74,0,0,1,20.37,20.87Z"/>
  <path class="cls-2" d="M20.37,20.87c-.08.23-1-.17-.72-.44.52.17.86.2.69.53,0-.11,0-.1,0,0-.21-.16,0-.05-.17-.12s-.7-.08-.48-.4c.22.27.86.2.65.52Z"/>
  <path class="cls-6" d="M20,21.48c-.87.09.34-1.12.32-.5A4.26,4.26,0,0,1,20,21.48Z"/>
  <path class="cls-2" d="M20,21.48c-1,.47,0-1.46.47-.57-.3.92-.9.56-.21.17-.17,0,0-.34.12-.21a.87.87,0,0,0-.64.55c-.43-.13.55,0,.18,0Z"/>
  <path class="cls-6" d="M19.18,20.65c-.71,0,.18-.54-.25-1C19.22,19.41,19.78,20.41,19.18,20.65Z"/>
  <path class="cls-2" d="M19.18,20.65c-.47.27-.38-.21-.25-.58-.08-.47-.13-.74.43-.45a.8.8,0,0,1-.11,1.13c-.25,0,.25-.58.05-.86,0-.2-.57-.12-.43-.33s.07-.11.13,0a.86.86,0,0,1-.11,1.1c-.16.09-.13-.07-.09-.18s.49.32.38.1Z"/>
  <path class="cls-6" d="M18.51,19.7c-.25-.14-.5,0-.24-.27a1.06,1.06,0,0,0-.2-.86C18.2,18.21,19.17,19.51,18.51,19.7Z"/>
  <path class="cls-6" d="M18.44,18.64c-.48-.06-.62-.52-.9-.83C17.8,17.79,18.28,18.29,18.44,18.64Z"/>
  <path class="cls-2" d="M18.51,19.7c-.63.22-.31-.19-.34-.69S16.86,17.33,18,17.9c.35.4,1.31,1.66.46,1.9.64-1-1.3-2-.88-2.07.34.47,1.25,1.48.54,1.95-.32-.38.55.06.39-.07Z"/>
  <path class="cls-6" d="M19.85,21.7a.66.66,0,0,1-.56-.3C19.48,21.43,19.8,21.46,19.85,21.7Z"/>
  <path class="cls-2" d="M19.85,21.7c-.85.42-.57-1,.09-.05-.11.18-.13.14-.25,0s-.59,0-.36-.31c.08.22.75.27.43.44Z"/>
  <path class="cls-6" d="M19.56,22.07c-.47,0-.36-.11-.11-.42C19.91,21.63,19.83,21.78,19.56,22.07Z"/>
  <path class="cls-2" d="M19.56,22.07c0,.25-.73,0-.34-.28.08-.42,1.08-.28.46.29-.19.23-.21-.18,0-.29s.22-.18.18,0c-.21.05-.48-.23-.31-.07-.09,0,0,.07-.23.29s-.15,0-.11-.11.6.18.3.09Z"/>
  <path class="cls-6" d="M18.48,20.76c-.67,0-.11-.45-.43-.85C18,19.71,19,20.32,18.48,20.76Z"/>
  <path class="cls-2" d="M18.48,20.76c-.68.37-.24-.53-.55-.81.23-.55,1.07.34.69.8s-.08-.31-.16-.51-.92-.43-.34-.41a.79.79,0,0,1,0,.87c-.49-.29.69.06.24,0Z"/>
  <path class="cls-4" d="M18.49,23c-.08,0-.68,0-.27-.13.11-.12.87-.28.62-.06C18.73,22.83,18.58,22.85,18.49,23Z"/>
  <path class="cls-2" d="M18.49,23c-.07.3-.88-.1-.23-.26.24-.28,1.14-.09.52.21s-.16-.41.16-.22c.09.16-.52.1-.41,0,.2.16-.26.23-.36.32-.45-.28.63,0,.25-.09Z"/>
  <path class="cls-6" d="M19.43,22.21c-.37,0-.4-.15-.51-.44C19.06,21.75,19.51,21.86,19.43,22.21Z"/>
  <path class="cls-2" d="M19.43,22.21c-1.13.43-.24-1.45.1,0-.11.24-.35-.2-.21-.36,0,.15-.54.07-.43-.07s.23.15.23.27.57,0,.21.18Z"/>
  <path class="cls-10" d="M19.12,22.51c-.44,0-.42,0-.1-.34C19.45,22.15,19.46,22.24,19.12,22.51Z"/>
  <path class="cls-2" d="M19.12,22.51c-.25.29-.75-.1-.25-.33.24-.3.95,0,.42.31s-.11-.5.14-.28c.08.17-.51.09-.39-.05.18.1-.14.23-.21.34-.47-.17.58,0,.21-.06Z"/>
  <path class="cls-4" d="M20,20.32c-.57-.16-.22-.07.15-.15.36-.27-.11-1,.52-.64C20.79,20,20.6,20.43,20,20.32Z"/>
  <path class="cls-6" d="M20.71,19.53c-.29,0-.37-.22-.46-.45C20.46,19.15,20.75,19.25,20.71,19.53Z"/>
  <path class="cls-2" d="M20,20.32c0,.23-.61-.07-.32-.2s.32,0,.4,0c.12.3.06-.79.17-1.1.89,0,.56,1.87-.1,1.33,0,.27-.29,0-.1-.1.13.12,0,.05.1,0s.41.11.3,0a1.11,1.11,0,0,0,.08-.86c-.21,0-.53-.41-.18-.23.1.35.18,1-.25,1.18-.16,0-.32,0-.48,0-.05-.49.52.13.39-.1Z"/>
  <path class="cls-6" d="M18.94,22.68c-.69.09-.24-.5-.38-.92C18.93,21.46,19.09,22.19,18.94,22.68Z"/>
  <path class="cls-2" d="M18.94,22.68c-.23.32-.67-.11-.47-.51.13.11-.11-.34.05-.47-.27.12.44-.31.55.1a3,3,0,0,1,0,.89c-.39.12-.06-.37-.17-.84.28-.15-.62.18-.34-.25.32.2.09.7.1,1-.49-.07.68-.08.21.05Z"/>
  <path class="cls-6" d="M18,23c-.39-.06-.45.09-.2-.29s.18-1.11.78-.85C18.38,22.19,18.38,22.76,18,23Z"/>
  <path class="cls-6" d="M18.59,21.84c-.76,0-.06-.46-.35-.87C18.48,20.78,19,21.33,18.59,21.84Z"/>
  <path class="cls-2" d="M18,23c-.9.48,0-.82.08-1.28.09-.21.21-.5.05-.69,0-.41.81-.05.7.33a4,4,0,0,1-.76,1.73c-.13,0-.09-.22,0-.26s0,0,0,0c.23-.57.27-.73.47-1.18a.54.54,0,0,0,0-.48c-.28.08-.61-.39-.23-.18a.88.88,0,0,1-.05.82c0,.09-.21-.07,0,0-.15.07-.07-.07,0,.07A4.55,4.55,0,0,1,17.71,23c-.13.11-.14-.05-.13-.16s.61.19.41,0Z"/>
  <path class="cls-11" d="M17.85,21.27c-1.13,0,.66-.93.55-.45Z"/>
  <path class="cls-2" d="M17.85,21.27c-1.35.39.59-1.4.63-.41.13-.06-.41.35-.57.49s0-.46.12-.23c-.14-.15.32-.38.46-.47,0,.37-.56.07-.43,0,0,.28-.31.29-.59.61-.33-.45.68.1.31-.08Z"/>
  <path class="cls-2" d="M18.72,21.19c-.34,0,.08-.33-.22,0-.56.63-.73,1.56-.49,1.66a4.37,4.37,0,0,0,.61-1.66c.57-.12-.11.94-.16,1.24-.26,1-.88.55-.76-.15C17.65,21.9,18.84,20.25,18.72,21.19Zm.09.62c.12,0,0,.45-.14.36.17,0,0,.75-.16.68.34.12-.27.15,0,0s.58-.19.35-.15a2.73,2.73,0,0,0,0-.82c.07,0,0-.05.06,0s-.18-.14,0,0c-.32-.17.11-.35.18-.08a2.35,2.35,0,0,1-.06.95c-.61.61-.79-.15-.39-.38C18.41,22.39,18.68,21.58,18.81,21.81Zm2-1.79a4.36,4.36,0,0,1-2.86,3.41c1.68,2.61,2.27-1.36,2.65-1.74-.14-.13,0-1.91.3-1.63-.06.86-.24,3.07-1.23,4.05-.59,1.15-2.71-.75-1.45-.94C19.89,22.55,20.37,20.36,20.79,20Zm-1.36,2.19c-.23.11-.1-.57-.15-.28.07-.28-.13.71-.06.53,0,.14-.28,0-.09-.1s.43-.24.2-.14c.49,0-.53.78-.3,0C19.07,21.2,19.81,22.17,19.43,22.21Zm-.84-1.78c-.2.07-.06-.3-.22-.35-.33,0-.53.16-.57-.07,0,.4-.59,1.09.23,1.11-.14-.11.52-.68.53-.3-.33-.09.11-.48-.07-.38.31-.1.21.23.07.38-.3-.32,0,.15-.08-.07.15.09-.34.49-.4.32.12.38-.6.32-.65-.08C17,19.76,19,19.47,18.59,20.43Zm1.26,1.27c-.13.12-.12-.08-.22-.13.06-.22.07.13,0-.08.07.06.08.6-.06.58s.13-.28.18-.41.15.12,0,0c.07,0,.11.07,0,.1.45-.11-.45.85-.32.06C19.36,21,20.19,21.65,19.85,21.7ZM18.7,19.18c-.27,0-.73-1.71-.95-.79s.73,1,.64,1.26c.07-.27.3.21.15,0,.07-.16.13-.54.06-.42.39-.2.23.73-.11.6-.49-.33-.81-.18-1-.94s.37-1.5.82-.54C18.44,18.54,19,19.08,18.7,19.18Zm.72.8c-.17.06-.08-.14-.19-.2.09-.23,0,.17,0-.09,0,.25-.19.58,0,.87-.1.27.25-.75.09-.57.71,0-.32,1.48-.36.31,0-.24,0-.73.35-.71C19.43,19.62,19.64,20,19.42,20Zm.95.89c-.32.19-.51-.63-.45.27.11.28,0,.07.14.26-.26.32,0-.5.19-.32-.26-.06.23-.42.06-.13.32-.3-.18.82-.42.56s-.29-1.24.26-.92C20.24,20.65,20.62,20.89,20.37,20.87Zm-1.25-2.55c-.13.06-.17-.12-.05-.16-.16.22,0-.15,0,.09,0-.17,0,0,0,.23,0,.44,0-.15,0-.15.54-.17-.05.87-.18.24S19.46,18,19.12,18.32Zm1.59,1.21c-.31,0,0-.47-.2-.17-.06.07-.69.33-.49.8.64.31.61-.44.59-.62.39-.13.2.68,0,.83-.37,0-.44.16-.74-.06C19.3,19.6,21.1,18.59,20.71,19.53Zm-2.05-2.77c-.15.12-.29-.66-.24-.37-.32.33-.05.88,0,1.21.12-.2.21-.9.15-.82.61-.13-.09,1.6-.42.63-.09-.37-.18-1,.23-1.22C18.61,16.13,18.9,16.76,18.66,16.76Zm1.92.91c-.13.07-.21-.21-.12-.27-.09.17,0-.07-.05.14a3.46,3.46,0,0,0-.48,1.73c.08-.43.65-.8.57-1.33-.06-.16.2-.07,0-.12,0-.09.2-.06,0,0-.09-.13.21-.13,0-.09.72.07-.25,1.43-.4,1.61-.72.26-.19-1.53.12-1.53-.2,0,.06-.45.21-.47S20.79,17.67,20.58,17.67ZM19.42,16.3c-.21.05-.09-.38-.26-.49s0,.1,0-.09a2.92,2.92,0,0,0-.07,1c.19,1.14.32-.47.27-.44.64-.09-.13,1.92-.45.62-.06-.41-.18-1.08.24-1.33C19.39,15.54,19.66,16.28,19.42,16.3Zm.42-.15c.12.23-.18.48-.07.55-.14-.14.13.46-.16.42.23.08,0,.62,0,.86s.06.35,0,.68c0-.18.28-.91.42-1.61.1-.32-.09-.65-.1-.92,0,.25-.1-.12,0,.1-.05,0-.12-.16,0,0-.24-.14,0-.28.14-.1a1,1,0,0,1,.17.51c-.07.63-.14,1.76-.64,2.14C19.17,18.87,19.54,15.82,19.84,16.15Zm1.05,2.35c1,4.7-3.22,10.41-3.91,1.95-.39-2.12,1.58-8.94,3.61-4.19a8.42,8.42,0,0,1,.38,2c.08.66-.46-.15-.12-.22-.29-.18-.08-.46-.22-.81.08,0-.24-.42,0-.49-.13.07-.17-.09,0-.09-1.57-3.7-2.7-.92-3.37,1.47a1.66,1.66,0,0,1-.14,1.25c.18.09.15,1.06,0,1.08.46,1.78.11,1.93.81,3.33,1.39,2.38,2.72-1.38,2.71-2.08a11.47,11.47,0,0,0,.18-1.29c.11-.23-.13-.72.14-1.15-.16,0-.19-.69,0-.65C20.75,18.66,20.74,18.46,20.89,18.5Zm.08-.09c-.14.05-.15-.15,0-.12-.16,0-.26-.76-.09-.8-.16.07-.28-.64-.11-.62-.17,0-.41-.86-.27-1-.26,0-.14-.23-.27-.36-.86-2.09-2.38-.51-2.69,1-.45,1.26-.14,1.48-.53,2.23.17.09.09,1-.07,1,.27.62,0,1.61.28,2.33a8.3,8.3,0,0,0,.27,1.13c-.24,0,.23,0-.06.13.12-.11.31.36.14.36,2.17,3.22,2.94-1.65,3.36-3-.09,0-.16-2.62.15-2.34.08,2.08,0,4.42-1.34,6.13-2,1.8-2.84-2.19-2.87-3.62,0-2-.06-6.16,2.39-6.59C20.66,14.82,21.16,17.26,21,18.41Zm.09-.09c.83,1.87-1.37,10.45-3.79,5.35-.87-3-1-6.8,1-9.33,2.16-1.47,2.81,2.51,2.89,4-.34.19-.34-1.23-.22-1.07-.3.05,0-.34-.14-.21-.05-.24,0-.18-.08-.42.1,0-.33-.64-.16-.92-.88-1.7-2-2.26-2.92,0-.45.76-.45,2.33-.8,3.27.15,0,.13.21,0,.15.16-.05.13.69,0,.62.14,0,.2.43,0,.46.29,0,0,.59.12.44-.05.15.15.33-.08.45,1.34,7.35,4.13,3.25,4.24-2.4C20.86,18.65,21,18.18,21.06,18.32Z"/>
  <path class="cls-4" d="M18.72,21.19c-.27-.64-1.39,1.58-.71,1.8a3.24,3.24,0,0,0,.71-1.8m.09.62c-.11.25-.52,1.35-.1,1C19.05,22.83,19.14,21.64,18.81,21.81Zm2-1.78a5.23,5.23,0,0,1-2.56,3.23c-1,.12.82,1.81,1.35.79C20.55,23,20.64,21.41,20.79,20Zm-1.36,2.18c-.08-.74-.39-.1-.31.29A3.85,3.85,0,0,0,19.43,22.21Zm-.84-1.78c0-1-1.45-.23-1.06.52C17.73,21.61,18.58,20.81,18.59,20.43Zm1.26,1.27c-.26-.62-.41.31-.26.33S19.76,21.81,19.85,21.7ZM18.7,19.18A4.84,4.84,0,0,0,18,18c-.48-.19-.44.82-.32,1.11S18.89,20.06,18.7,19.18Zm.72.8c-.18-.74-.51.24-.33.55S19.5,20.17,19.42,20Zm.95.88c-.44-.47-.74,0-.49.45S20.24,21,20.37,20.86Zm-1.25-2.54c-.08-.42-.28.09-.17.27S19.16,18.43,19.12,18.32Zm1.59,1.21c0-.72-1,.19-.81.61S20.9,20.09,20.71,19.53Zm-2.05-2.76c-.19-1-.69.05-.44.55C18.47,18,18.77,17.1,18.66,16.77Zm1.92.9c-.2-.86-.89,1.18-.73,1.49C20.23,19.36,20.74,18.1,20.58,17.67ZM19.42,16.3c-.24-1.37-.7.1-.43.68C19.28,17.76,19.53,16.64,19.42,16.3Zm.42-.15c-.18.29-.61,2.6-.16,2.47C19.82,17.94,20.53,16.59,19.84,16.15Zm1.05,2.35c.53,2.16-1.48,9.6-3.45,4.4a10.89,10.89,0,0,1,.47-7.08C19.57,12.85,21,16.81,20.89,18.5Zm.08-.09c-.43-5.95-3.7-4.57-4,.48,0,1.72-.23,5.85,2.07,6C21.06,23.59,21,20.55,21,18.41Zm.09-.09c0,2.26.07,5.42-2,6.8-2.51-.18-2.27-4.76-2.17-6.62C17.33,13.07,20.7,12.45,21.06,18.32Z"/>
  <path class="cls-12" d="M0,0C43.3-.66,38.08-5.79,37.44,37.44-5.86,38.1-.64,43.23,0,0Z"/>
</svg>
