<svg id="Layer_1" data-name="Layer 1" xmlns="http://www.w3.org/2000/svg" viewBox="0 0 37.44 37.44"><defs><style>.cls-1{fill:#00a651;}.cls-2{fill:#fff;}</style></defs><path class="cls-1" d="M37,18.72a18,18,0,1,0-18,18,18,18,0,0,0,18-18"/><path class="cls-2" d="M31.24,18.72h0a44,44,0,0,0-.41-6.08c-.06-.37-.11-.75-.18-1.12,0-.21-.07-.42-.11-.64-1.35-.3-2.77-.54-4.24-.73l-1-.12A58.52,58.52,0,0,0,19,9.69h0a56.73,56.73,0,0,0-8.91.69c-.52.08-1,.18-1.58.28l-1,.22c-.18.94-.32,1.91-.43,2.89,0,.27,0,.49-.07.67-.13,1.39-.2,2.82-.2,4.28h0a44,44,0,0,0,.41,6.08c0,.37.11.75.17,1.12l.12.64c1.34.29,2.76.54,4.24.73l1,.11a56.07,56.07,0,0,0,6.32.34h0a56.58,56.58,0,0,0,8.91-.68c.52-.08,1-.18,1.58-.28l1.05-.22c.18-.94.32-1.91.43-2.89,0-.27.05-.5.07-.67.13-1.39.2-2.82.2-4.28m1.44,0h0c0,1.51-.08,3-.21,4.41,0,.29,0,.52-.07.7-.14,1.19-.31,2.35-.53,3.46a.74.74,0,0,1-.58.58l-1.53.32c-.51.1-1.05.2-1.62.29a58.68,58.68,0,0,1-9.14.7h0a61.13,61.13,0,0,1-6.48-.34l-1-.12c-1.71-.22-3.33-.51-4.84-.86a.73.73,0,0,1-.55-.57h0c-.07-.36-.14-.73-.2-1.13S5.8,25.39,5.75,25a45.76,45.76,0,0,1-.43-6.28h0q0-2.26.21-4.41c0-.29,0-.52.07-.7.14-1.19.31-2.35.53-3.46a.72.72,0,0,1,.59-.58l1.52-.32c.51-.1,1-.2,1.62-.29A58.49,58.49,0,0,1,19,8.26h0a61.13,61.13,0,0,1,6.48.34l1,.12c1.71.22,3.33.51,4.84.86a.73.73,0,0,1,.55.57h0c.07.35.14.73.2,1.13s.13.77.18,1.16A45.65,45.65,0,0,1,32.68,18.72Z"/><path class="cls-2" d="M29,14.79c-.85,0-3.94-.49-4.65,0a.43.43,0,0,0-.18.37.58.58,0,0,0,.09.3,2,2,0,0,0,.26.36l3.15,3.53a6.34,6.34,0,0,1,1.07,1.59,3.81,3.81,0,0,1,.35,1.57A3.18,3.18,0,0,1,28.78,24a3,3,0,0,1-.93,1.12,3.31,3.31,0,0,1-1.32.55,32.68,32.68,0,0,1-6.22.49l-.26-3c1-.17,3.75-.24,4.51-.8a.51.51,0,0,0,.17-.41.54.54,0,0,0-.08-.26,1.75,1.75,0,0,0-.21-.32L21,17.5a4.52,4.52,0,0,1-.82-1.33,4,4,0,0,1-.28-1.46,3.75,3.75,0,0,1,.17-1.12,3.24,3.24,0,0,1,.5-1,2.8,2.8,0,0,1,1.34-1c2-.69,4.7-.07,6.83.12l.29,3"/><path class="cls-2" d="M17.69,11.33l-.05,3.13L13.2,15V18.8h3.71l0,3.09H13.2v4.23l-3.86-.39c-.08.24,0-7.81,0-13.73l8.38-.66"/></svg>