<svg xmlns="http://www.w3.org/2000/svg" viewBox="0 0 37.44 37.44"  xmlns:v="https://vecta.io/nano"><style><![CDATA[.E{fill:#231f20}.F{fill:#fff}.G{fill-rule:evenodd}]]></style><path d="M37,18.72a18,18,0,1,0-18,18,18,18,0,0,0,18-18" class="E"/><g class="F G"><path d="M19,7.56A11.16,11.16,0,1,1,7.84,18.72,11.16,11.16,0,0,1,19,7.56"/><path d="M16.34 21.69a6.46 6.46 0 0 1-1.56 2.84 9.48 9.48 0 0 0-1.43-.53c-.18 0-.32.41-.32.41v.3l.34-.25.06.16a7.73 7.73 0 0 0 1.16.2l-1.18 1.52c-.07.17.45.73.56.83s-.07-.41 0-.55l.76-1.52a9.46 9.46 0 0 0 0 1.72 4 4 0 0 0 1 .52l-.47-.58h.38S15 25.18 15.06 25l1.49.73c.14.04.07.41.07.41s.34-.38.16-.66v-.24s-.48-.24-1.48-.54a14.85 14.85 0 0 1 1.7-2.35l-.11-.73-.58.07"/></g><g class="E"><path d="M14.77 24.5a6.41 6.41 0 0 0 1.54-2.82h0l.59-.07.1.73a14.36 14.36 0 0 0-1.7 2.32l1.49.51v.22c.18.3-.17.69-.17.69h-.05s.06-.36-.05-.39-1.27-.62-1.47-.72a8.43 8.43 0 0 0 .65 1.72h0-.33l.44.55a4 4 0 0 1-1.06-.53h0a7.22 7.22 0 0 1 0-1.6l-.7 1.39c-.09.11 0 .54 0 .54h0a3.06 3.06 0 0 1-.5-.62l-.06-.13v-.11c.06-.16 1-1.27 1.15-1.49a8 8 0 0 1-1.12-.19h0v-.13l-.31.23v-.35s.14-.46.34-.44a8.82 8.82 0 0 1 1.42.51m1.59-2.79A6.56 6.56 0 0 1 15 24.37h0a9.08 9.08 0 0 0-1.66-.37c-.15 0-.27.35-.28.4v.24l.29-.22.06.15a8.9 8.9 0 0 0 1.14.2h.05l-1.17 1.51v.2a3.78 3.78 0 0 0 .44.55.94.94 0 0 1 .05-.5h0c.1-.13.76-1.51.76-1.51h.05a9.38 9.38 0 0 0 0 1.71 3.17 3.17 0 0 0 .94.48l-.41-.52h.35A6.13 6.13 0 0 1 15 25h0l1.48.73c.13.04.11.24.1.36a.55.55 0 0 0 .11-.57h0v-.22c-.1 0-.61-.24-1.5-.51h0A14.62 14.62 0 0 1 17 22.34l-.1-.69z"/><path d="M14.77 24.5h0a7.42 7.42 0 0 0 1.25-2 4.78 4.78 0 0 0 .22-.6v-.16-.06h.06l.59-.07H17v.08l.1.73h0a13.75 13.75 0 0 0-1.69 2.3h-.05v-.05l1.11.37.28.1h.07 0v.05-.05.05-.05.28h-.05l.06.21a1 1 0 0 1-.23.54h0-.08a1.3 1.3 0 0 0 0-.18v-.12c-.14 0-1.27-.62-1.47-.72h0a4.29 4.29 0 0 0 .32.95l.33.71v.07h-.23l.38.48v.07l-.49-.2a1.5 1.5 0 0 1-.59-.36h0a1.1 1.1 0 0 1 0-.43c0-.39 0-.94.06-1.19h.05l-.71 1.4a.65.65 0 0 0 0 .24 2.46 2.46 0 0 0 0 .27h0-.07a4 4 0 0 1-.51-.63h0l-.06-.14v-.12a6.4 6.4 0 0 1 .54-.73l.62-.77v.06c-.33 0-.61-.09-.81-.13l-.23-.05h-.06 0 0v-.07l-.25.19-.07.06v-.44a1.22 1.22 0 0 1 .1-.23c.06-.11.14-.24.28-.24h0a8.91 8.91 0 0 1 1.45.51v.05.05a9 9 0 0 0-1.76-.53h0c-.06 0-.14.09-.19.19l-.07.15v.34H13h0l.31-.23h.05l.07.19h-.05v-.05.05-.06a8.44 8.44 0 0 0 1.11.19h.09l-.06.08-.62.76a7.39 7.39 0 0 0-.52.71h-.05.05v.22a4.9 4.9 0 0 0 .49.61h.05v.05a1.38 1.38 0 0 1 0-.27.58.58 0 0 1 .06-.3h0c.08-.1.53-1 .7-1.38h.1c0 .26-.07.81-.07 1.19a1.11 1.11 0 0 0 0 .38h0a1.6 1.6 0 0 0 .54.32l.48.19v.05l-.41-.52-.06-.07.42-.05v.05h-.05.05A8.58 8.58 0 0 1 15 25v-.11h.07l1.45.71c.11.05.1.16.11.26v.17h-.06v-.05.05a.78.78 0 0 0 .21-.46v-.4h.05v-.05.05s-.51-.21-1.48-.51h-.07v-.06A13.24 13.24 0 0 1 17 22.33h0l-.1-.73h.1v.05l-.59.06h.05a6.34 6.34 0 0 1-1.55 2.85h0zm1.59-2.79h.05a6.71 6.71 0 0 1-1.57 2.86h0-.05 0a9.22 9.22 0 0 0-1.41-.51h0s-.1.07-.15.16l-.08.2v.15l.22-.16h.06v.1l.06.15v-.05a7.93 7.93 0 0 0 1.14.19h.14l-.09.11-.56.7a9 9 0 0 0-.6.8h0v.07l.05.11h-.05.05a3.09 3.09 0 0 0 .43.54h0v-.19a.63.63 0 0 1 .07-.34h0c.09-.12.75-1.5.75-1.51h.09v.05l-.08 1.34a1.24 1.24 0 0 0 0 .33h0a1.19 1.19 0 0 0 .39.24l.52.22-.41-.51-.06-.08h.48A7.8 7.8 0 0 1 15 25v-.09-.05h.07l.7.35.77.37c.13.05.14.21.14.32v.1h-.06a.69.69 0 0 0 .15-.36v-.15-.23h.05v.05c-.1 0-.61-.24-1.49-.52h0-.06l.05-.08A14.44 14.44 0 0 1 17 22.3h0l-.09-.64-.5.05v-.1l.55-.06H17l.1.74a15.13 15.13 0 0 0-1.71 2.33h0-.05v.05-.05l1.5.51v.25l.06.2a.81.81 0 0 1-.16.42h-.1c0-.11 0-.22-.07-.22h0c-.08 0-.44-.2-.8-.38l-.48-.24-.19-.16h0-.1a8.17 8.17 0 0 0 .68 1.66v.07h-.46l.41.51-.06.08a3.8 3.8 0 0 1-.53-.22 1.19 1.19 0 0 1-.44-.27h0a1 1 0 0 1 0-.39c0-.51.07-1.34.08-1.36h.05v.05-.05l-.76 1.52a.63.63 0 0 0 0 .28v.18l-.09.05a4 4 0 0 1-.44-.57h0l-.06-.12v-.13h-.05a7.48 7.48 0 0 1 .62-.83l.39-.48.12-.15v-.05.05h-.05a8.85 8.85 0 0 1-1.15-.2h0l-.06-.17h.05l-.3.22-.08.06v-.34s0-.12.09-.22.12-.2.24-.21h0a9.3 9.3 0 0 1 1.45.52h0 0a6.58 6.58 0 0 0 1.55-2.81h0z"/></g><path d="M21.59 21.69a6.49 6.49 0 0 0 1.55 2.84 9.28 9.28 0 0 1 1.44-.53c.19 0 .31.41.31.41v.3l-.34-.25-.06.16a7.73 7.73 0 0 1-1.16.2l1.18 1.52c.07.17-.45.73-.55.83s.06-.41 0-.55-.77-1.52-.77-1.52a8.64 8.64 0 0 1 0 1.72 3.81 3.81 0 0 1-1 .52l.49-.58h-.41a7.63 7.63 0 0 0 .61-1.76l-1.5.73c-.14.04-.07.41-.07.41s-.34-.38-.17-.66v-.24s.52-.21 1.52-.52a15.53 15.53 0 0 0-1.73-2.35l.1-.73.59.07" class="F G"/><g class="E"><path d="M23.12 24.55a6.6 6.6 0 0 1-1.55-2.84l-.57-.06-.09.69a14.62 14.62 0 0 1 1.72 2.35h0l-1.51.51v.22c-.12.2 0 .44.11.56 0-.12 0-.32.09-.35s1.54-.63 1.54-.63h0a6.5 6.5 0 0 1-.63 1.75h.43l-.44.52a3.35 3.35 0 0 0 .93-.48 9.38 9.38 0 0 0 0-1.71h.05l.76 1.51a.85.85 0 0 1 .05.5 3.21 3.21 0 0 0 .44-.55v-.2a18.76 18.76 0 0 0-1.17-1.51h.05a8.9 8.9 0 0 0 1.14-.2l.06-.15.29.22v-.24c0-.05-.13-.41-.29-.4a9.92 9.92 0 0 0-1.43.51h0m-1.51-2.87a6.55 6.55 0 0 0 1.54 2.82 9 9 0 0 1 1.45-.52h0c.21 0 .34.44.34.44h0v.35l-.31-.23-.05.13a7.69 7.69 0 0 1-1.11.19l1.15 1.49v.11l-.06.13a3.49 3.49 0 0 1-.49.62h0s.07-.41 0-.54l-.71-1.39a7.22 7.22 0 0 1 0 1.6h0a4.08 4.08 0 0 1-1 .53h0l.46-.55h-.36a9.06 9.06 0 0 0 .42-1.88l-1.47.72c-.13.03-.05.39-.05.39h-.05s-.34-.39-.18-.68v-.23s.51-.21 1.49-.51a13.91 13.91 0 0 0-1.71-2.32h0l.1-.73.59.07z"/><path d="M23.12 24.55h0a6.58 6.58 0 0 1-1.57-2.86h.05v.05l-.49-.05-.09.64h-.05a15.32 15.32 0 0 1 1.74 2.36h-.05.05-.1l-1.5.52v-.05h.05v.22.14a.69.69 0 0 0 .15.36h0-.06v-.11c0-.11 0-.25.14-.3h0c.05 0 .44-.2.79-.37l.69-.35h.05V25a7.41 7.41 0 0 1-.65 1.72h.53l-.09.12-.43.51.52-.22c.19-.09.37-.19.38-.24h0a.73.73 0 0 0 0-.33c0-.51-.07-1.34-.07-1.35h.08l.76 1.51h-.05a.7.7 0 0 1 .08.33v.2H24a3.07 3.07 0 0 0 .42-.54h.05v-.18a10 10 0 0 0-.61-.8l-.56-.7-.06-.07h.14a7.11 7.11 0 0 0 1.13-.19v.05h-.05l.06-.15v-.06l.08.06.22.16v-.15l-.09-.2c0-.09-.11-.16-.14-.16h0a10 10 0 0 0-1.41.51h-.06 0 0a8.92 8.92 0 0 1 1.46-.83h0c.12 0 .18.11.24.21s.08.2.09.22h0v.35l-.37-.28h0l-.07.15a8.9 8.9 0 0 1-1.14.2h0v-.05h0l.57.69a8.39 8.39 0 0 1 .61.83h0v.09l-.06.13a3.41 3.41 0 0 1-.44.56h-.09v-.19a.5.5 0 0 0-.05-.27h.05c-.11-.15-.77-1.51-.77-1.52h.05v.05h-.05v-.05h.05c0 .05.08.85.08 1.35a1.18 1.18 0 0 1-.05.39h0a1.16 1.16 0 0 1-.42.27l-.53.22-.06-.08.44-.51h0-.5v-.07a8.51 8.51 0 0 0 .7-1.69h0 .05c-.08.05-1.34.69-1.49.73v-.05.05s-.07.1-.07.2V26h-.1a.81.81 0 0 1-.16-.42l.05-.19h.05l-.05-.2c.11 0 .62-.24 1.51-.51v.05-.05h0a15.9 15.9 0 0 0-1.72-2.33h0l.1-.72v-.05l.59.07a6.49 6.49 0 0 0 1.54 2.81h0zm-1.51-2.87h.06a6.29 6.29 0 0 0 1.52 2.79h0v-.05a8.77 8.77 0 0 1 1.44-.51h0c.14 0 .22.13.28.24l.07.16v.05h0 0v.45l-.12-.09-.25-.19v.07h-.05a8.92 8.92 0 0 1-1.11.2v-.06l.62.77a6.4 6.4 0 0 1 .54.73h-.05v.06h.06v.18l-.06.13a4 4 0 0 1-.51.63h0-.08a2.46 2.46 0 0 0 0-.27.49.49 0 0 0 0-.24h0c-.1-.12-.55-1.05-.71-1.4h.05c0 .26.07.82.07 1.21a1.26 1.26 0 0 1-.05.42h0v-.05h.05a1.5 1.5 0 0 1-.59.36l-.49.2v-.07l.43-.5h-.38l.05-.1.33-.73a4.25 4.25 0 0 0 .32-.94h.05l-1.48.72v.11a1.54 1.54 0 0 0 0 .2h0-.07a.91.91 0 0 1-.24-.54l.05-.21h-.05v-.28h.05v.05-.05.05-.05s.52-.21 1.5-.51v.05a14.49 14.49 0 0 0-1.7-2.3h0l.1-.73v-.08H21l.59.07v.06h-.06l-.53-.04v-.05l-.11.73h-.05a14 14 0 0 1 1.73 2.33v.06h-.06l-1.12.37-.28.1h-.07v.06h.05v.23.16a.71.71 0 0 0 .1.32l.08.11v-.05h.05v.05h-.05a1.56 1.56 0 0 1 0-.21c0-.09 0-.2.1-.24h0c.12 0 1.27-.61 1.47-.71h.06V25a8.16 8.16 0 0 1-.66 1.71h0v-.05h.47l-.51.59v-.05l.48-.19a1.72 1.72 0 0 0 .54-.32h0-.05v-.05h.05v.05a1.22 1.22 0 0 0 0-.37c0-.39 0-.94-.06-1.2h.1l.7 1.39a.49.49 0 0 1 .06.3v.27-.05a4.9 4.9 0 0 0 .49-.61h0-.05l.06-.12v-.1h.05 0a5.88 5.88 0 0 0-.57-.71l-.62-.76-.06-.08h.1l.8-.12.22-.05h.06v.05l.06-.13v-.06l.36.27v-.34h.05a.78.78 0 0 0-.14-.21c-.05-.11-.13-.19-.19-.19h0a9.86 9.86 0 0 0-1.41.51h0a6.44 6.44 0 0 1-1.55-2.84h.05z"/></g><path d="M18.57,11.26s-2,.09-2.39-.55a4.46,4.46,0,0,0,2.46.33l-.07.22" class="F G"/><g class="E"><path d="M16.26 10.77c.45.52 2.1.48 2.29.47l.05-.17a4.69 4.69 0 0 1-2.34-.3m2.31.52s-2 .09-2.41-.57h0a4.49 4.49 0 0 0 2.45.34h0l-.08.22z"/><path d="M16.26 10.77h0c.33.39 1.5.45 2 .45h.24v.05h-.05l.06-.16h-.58a4.49 4.49 0 0 1-1.79-.33v-.05a4.52 4.52 0 0 0 1.75.32h.65l-.08.25h-.28c-.52 0-1.69 0-2.09-.48l.06-.08zm2.31.52v.05h-.25c-.56 0-1.87 0-2.21-.6h0l.07-.06A4.24 4.24 0 0 0 18 11a4.45 4.45 0 0 0 .61 0h.13v.12l-.08.22v.05h-.06v-.1h-.05l.08-.23h.05v.05h-.66a5.06 5.06 0 0 1-1.38-.18l-.36-.13h-.09 0v-.05.05-.05h0c.25.48 1.57.56 2.12.55h.25z"/></g><path d="M17.93 8.86s-.89-.24-1.23.26c-.47.68.25 1.76.25 1.76s0-.43.58-.43 1.14.29 1 .76c0 .14-1.34 0-1.49 0 0 0-.19.17 1.85.43l.22-.17-.87-2.57h-.31" class="F G"/><g class="E"><path d="M16.68 9.11h0c.34-.51 1.2-.29 1.25-.27h.31l.9 2.56-.22.17c-2.09-.26-1.86-.47-1.86-.47h0c.1 0 .45.05.79.07a1.65 1.65 0 0 0 .66 0h0v-.07a.5.5 0 0 0-.19-.36 1.4 1.4 0 0 0-.46-.22 2.2 2.2 0 0 0-.36 0c-.54 0-.56.41-.56.41h0s-.72-1.1-.24-1.79m1.24-.22s-.87-.24-1.2.25h0c-.39.57.07 1.44.21 1.67a.55.55 0 0 1 .6-.38 1.61 1.61 0 0 1 .37 0 1.26 1.26 0 0 1 .48.23.52.52 0 0 1 .21.4v.12c0 .08-.36.1-.71.08l-.79-.07c-.11-.02.18.16 1.82.37l.2-.15-.88-2.53h-.29z"/><path d="M16.68 9.11h0a.94.94 0 0 1 .81-.36 1.81 1.81 0 0 1 .5.07v.05-.09h.36v.05l.9 2.55v.05l-.22.17h-.13a9.84 9.84 0 0 1-1.58-.29c-.26-.09-.32-.14-.33-.22v-.06h.05a6.19 6.19 0 0 0 .79.07h.61 0v.05h-.05v-.11a.43.43 0 0 0-.18-.32 1.12 1.12 0 0 0-.44-.2 1.33 1.33 0 0 0-.34-.05.48.48 0 0 0-.44.18l-.06.13h-.08 0a2.87 2.87 0 0 1-.42-1.25 1 1 0 0 1 .18-.6h0a.92.92 0 0 0-.15.54 2.57 2.57 0 0 0 .4 1.2h0v-.05H17v.05a.52.52 0 0 1 .09-.24.61.61 0 0 1 .52-.22 1.55 1.55 0 0 1 .37 0 1.26 1.26 0 0 1 .48.23.53.53 0 0 1 .21.4h0v.11h0l-.07.06a1.22 1.22 0 0 1-.32 0h-.32c-.34 0-.7-.05-.8-.07h0v-.05h0l.05.05a6.21 6.21 0 0 0 1.77.36v.05-.05l.22-.16h-.05l-.89-2.56h.05v.06H18a1.76 1.76 0 0 0-.47-.06.84.84 0 0 0-.73.31h0zm1.24-.22h0a2.1 2.1 0 0 0-.45 0 .77.77 0 0 0-.68.29h0a.89.89 0 0 0-.14.51 2.48 2.48 0 0 0 .35 1.1h-.1a.58.58 0 0 1 .65-.42 1.56 1.56 0 0 1 .88.28.55.55 0 0 1 .23.44h0v.13l-.19.11h-.57a7.32 7.32 0 0 1-.8-.07h.05a6.45 6.45 0 0 0 1.77.34h0l.17-.13L18.18 9h-.26v-.1h.3l.9 2.59-.23.17a14.13 14.13 0 0 1-1.53-.25c-.25-.07-.31-.09-.34-.16v-.08h.08c.1 0 .46.05.78.07h.64v-.13a.47.47 0 0 0-.19-.36 1.4 1.4 0 0 0-.46-.22 2.2 2.2 0 0 0-.36 0c-.42 0-.51.23-.55.35L17 11l-.06-.11a2.64 2.64 0 0 1-.38-1.16 1 1 0 0 1 .17-.57h0v.05a.89.89 0 0 1 .77-.33 2.18 2.18 0 0 1 .49.06v.05z"/><path d="M23.58 11.48h0m-3.77 10.16h0zm0 0l.94 2zm.94 2L21 22zM21 22h0zm0 0l1.46.14zm1.46.14l-2.28-2.75a6.17 6.17 0 0 0 .71-2.39c-.1 0-.36 0 .14-.06h0v3l.82.87V17h.39v4.24l.84.91v-5.22l.35-.08v5.72l.84.89v-6.92a.74.74 0 0 0 .3-.14h0v7.46l.85.89v-9.09a1.31 1.31 0 0 0 .4-.41h0v10l.85.92V13a2.94 2.94 0 0 0-1.51-2.54h0c.22-.14.11-.59.07-.73a1.05 1.05 0 0 1-.27.2h-.06a1 1 0 0 1-.42.1 1.84 1.84 0 0 1-.41-.06 2.09 2.09 0 0 0-.35 0c-1.13 0-1.39.5-1.43.59a3 3 0 0 0 1.06.94h0a.76.76 0 0 0 .45.11 1 1 0 0 0 .42-.2h0a3.23 3.23 0 0 1 .59 1.43v.06a2.57 2.57 0 0 1-.66 1.59 3.05 3.05 0 0 1-2.23 1h-1a.4.4 0 0 1-.21 0h0a10.55 10.55 0 0 0-.39-5.49h0a2.24 2.24 0 0 0 .4-.22 2.88 2.88 0 0 1-.72-.26l-.34-.11-.95-.26-.46-.09c-.22 0-.3 0-.32.15a1.47 1.47 0 0 0 .12.59v.06a1.77 1.77 0 0 0 .28.44 5.89 5.89 0 0 1 .37.55h0a2.26 2.26 0 0 1 .25.58A1.55 1.55 0 0 1 19 12h0-.33a2.8 2.8 0 0 1-.69 1.19h0a3.45 3.45 0 0 0-1.07 2.22h0-1a3.1 3.1 0 0 1-2.29-1 2.6 2.6 0 0 1-.67-1.61v-.05a3.35 3.35 0 0 1 .59-1.43h0a1 1 0 0 0 .42.2.75.75 0 0 0 .45-.11h0a2.82 2.82 0 0 0 1-.94c0-.09-.29-.59-1.42-.59a1.48 1.48 0 0 0-.35 0 2.55 2.55 0 0 1-.41.05 1 1 0 0 1-.59-.2l-.1-.07-.06-.06c0 .14-.14.59.07.73h0A2.94 2.94 0 0 0 11.07 13v13.17l.85-.92v-10a1.39 1.39 0 0 0 .4.41v9.09l.86-.89V16.4a.88.88 0 0 0 .3.14h0v6.93l.84-.89v-5.72l.35.08v5.25l.85-.91V17h.38v3.8l.82-.87v-3a13.37 13.37 0 0 0 .79 2.41h0l-2.01 2.78L17 22l.23 1.65.93-2a29.77 29.77 0 0 1-.26 4 2.63 2.63 0 0 1-.51 1.38 2.12 2.12 0 0 1-1.12.45 1.29 1.29 0 0 0 1 .58 1.52 1.52 0 0 0 1-.48h0l.68.74.66-.74a1.47 1.47 0 0 0 1 .48 1.27 1.27 0 0 0 1-.58 2.12 2.12 0 0 1-1.12-.45 2.63 2.63 0 0 1-.51-1.38 29.77 29.77 0 0 1-.26-4zm-2.23-2.77l2.31 2.78-1.48-.15-.23 1.71c-.16-.3-.75-1.58-.93-2a27.8 27.8 0 0 0 .27 3.91A2.54 2.54 0 0 0 20.6 27h0a2.15 2.15 0 0 0 1.13.45h0a1.31 1.31 0 0 1-1 .64 1.51 1.51 0 0 1-1-.48l-.66.75-.67-.75a1.54 1.54 0 0 1-1.05.48 1.33 1.33 0 0 1-1-.64h0a2.11 2.11 0 0 0 1.04-.45h0a2.5 2.5 0 0 0 .5-1.35 30 30 0 0 0 .26-3.91l-.92 2-.29-1.74-1.49.14 2.31-2.79a14.09 14.09 0 0 1-.76-2.14v2.72l-.87.95V17h-.32v4.3l-.9 1V17l-.3-.06v5.72l-.89.94v-7a.79.79 0 0 1-.26-.12v7.44l-.91.94V15.7a1.37 1.37 0 0 1-.36-.36v9.92l-.91 1V13a3 3 0 0 1 1.5-2.56c-.24-.22 0-.8 0-.8h0l.08.08.1.07a1 1 0 0 0 .56.19 2.57 2.57 0 0 0 .4 0 1.51 1.51 0 0 1 .08-.14c1.26 0 1.48.64 1.48.64h0a2.85 2.85 0 0 1-1.08 1 .75.75 0 0 1-.9-.08 3.08 3.08 0 0 0-.57 1.37h0v.05a2.53 2.53 0 0 0 .66 1.57 3 3 0 0 0 2.25 1h1a3.54 3.54 0 0 1 1.08-2.24 2.61 2.61 0 0 0 .64-1.15h.34a1.45 1.45 0 0 0 0-.54 2.19 2.19 0 0 0-.25-.56h0a5.74 5.74 0 0 0-.36-.55A1.71 1.71 0 0 1 18 9.9v-.06a1.57 1.57 0 0 1-.12-.62c0-.15.12-.23.38-.19h0l.46.09 1 .26.34.11c.33.11.7.23.81.13h0a2.91 2.91 0 0 1-.5.3 10.64 10.64 0 0 1 .66 5.4.38.38 0 0 0 .17 0h1a3 3 0 0 0 2.19-1 2.54 2.54 0 0 0 .65-1.56v-.06a3 3 0 0 0-.57-1.37.75.75 0 0 1-.9.08h0a3 3 0 0 1-1.08-1h0s.22-.64 1.48-.64a2.23 2.23 0 0 1 .36.05 1.76 1.76 0 0 0 .4.06.82.82 0 0 0 .4-.1h.06a1.14 1.14 0 0 0 .28-.21h.05s.19.59-.05.8A3 3 0 0 1 27 13v13.23l-.9-1v-9.88a1.34 1.34 0 0 1-.36.35v9.11l-.9-.94v-7.42a1.07 1.07 0 0 1-.26.12v7l-.9-.94v-5.74l-.3.06v5.3l-.89-1v-4.2h-.33v3.84L21 19.93V17h-.07a6.33 6.33 0 0 1-.66 2.35z"/><path d="M20.24 19.35l2.32 2.8L21 22l-.24 1.73-1-2.08c.06 3.95.38 5 .75 5.4a2.23 2.23 0 0 0 1.15.45 1.33 1.33 0 0 1-1 .63 1.51 1.51 0 0 1-1-.49l-.68.76-.69-.76a1.52 1.52 0 0 1-1.05.49 1.35 1.35 0 0 1-1-.63 2.15 2.15 0 0 0 1.14-.45c.38-.38.7-1.45.76-5.4l-1 2.08L17 22l-1.52.14 2.32-2.8a12.64 12.64 0 0 1-.8-2.42v3l-.86.93V17h-.38v4.25l-.9 1v-5.32a3.28 3.28 0 0 0-.35-.07v5.73l-.89.94v-7a.79.79 0 0 1-.32-.14v7.47l-.9.94v-9.12a1.47 1.47 0 0 1-.41-.42v10l-.9 1V13a3 3 0 0 1 1.51-2.56c-.26-.18-.06-.79-.06-.79a1.15 1.15 0 0 0 .76.35c.28 0 .52-.11.76-.11 1.24 0 1.45.62 1.45.62a3 3 0 0 1-1.07 1 .73.73 0 0 1-.9-.1 3.22 3.22 0 0 0-.59 1.41A2.85 2.85 0 0 0 16 15.41h.83a3.51 3.51 0 0 1 1.08-2.25 2.71 2.71 0 0 0 .69-1.2l.4.04a1.27 1.27 0 0 0-.23-1.14c-.19-.37-.58-.79-.65-1-.14-.42-.33-.92.21-.83a8.8 8.8 0 0 1 1.41.35c.37.09 1 .38 1.18.24a2.71 2.71 0 0 1-.52.31 10.63 10.63 0 0 1 .6 5.44.38.38 0 0 0 .2 0h.8a2.84 2.84 0 0 0 3.05-2.64 3.22 3.22 0 0 0-.59-1.41.73.73 0 0 1-.9.1 3 3 0 0 1-1.07-1s.2-.62 1.45-.62c.24 0 .49.11.76.11a1.15 1.15 0 0 0 .76-.35s.21.61-.07.79A3 3 0 0 1 27 13v13.23l-.9-1v-10a1.33 1.33 0 0 1-.41.42v9.13l-.9-.94V16.4a.79.79 0 0 1-.31.14v7l-.9-.94v-5.74a3.28 3.28 0 0 0-.35.07v5.32l-.89-1V17h-.39v3.87l-.95-.94v-3h-.12a6.08 6.08 0 0 1-.68 2.4" class="G"/><path d="M13.38 24.48s-.2-.36-.07-.44h0c-.11.07.08.41.08.41h0m.12 1.81a1.2 1.2 0 0 0 .51.37h0a1.17 1.17 0 0 1-.53-.37h0m1.83.53l-.55-.04v-.02l.55.04v.02m1.47-1.32s-.12.21-.24.25h0c.12 0 .23-.23.23-.24h0m7.75-1.01s.18-.34.08-.41h0c.12.08-.07.44-.07.44h0m-.1 1.78a1.24 1.24 0 0 1-.53.37h0a1.2 1.2 0 0 0 .51-.37h0m-1.78.49l.52-.04.01.02-.52.04-.01-.02m-1.49-1.32s.12.21.23.24h0c-.13 0-.25-.25-.25-.25h0"/></g><path d="M18.35,9.46a.2.2,0,0,0,.2-.19.19.19,0,0,0-.2-.19.19.19,0,0,0-.19.19.2.2,0,0,0,.19.19" class="F G"/><g class="E"><path d="M18.35 9.48h0l-.16-.06-.07-.17.07-.17.14-.08.17.07.07.18-.07.16-.17.07v-.05h.14l.05-.13h.05l-.1-.14-.14-.05h0l-.13.05-.06.14h-.05.05l.06.13h.13v.05-.05.05-.05zm0-.05h0 .1v-.09h.05l-.05-.1h-.1v-.05.06-.15l-.1.05v.1h-.05.05v.09h.1v.05l-.11-.05-.06-.14.06-.13h.26l.06.14-.05.13-.14.05z"/><path d="M18.35 9.48h0l-.15-.06-.07-.15.07-.16.15-.06.16.06.06.16-.06.15-.16.06m0-.05h.12l.05-.11-.05-.12-.12-.05-.12.05-.05.12.05.11z"/></g><g class="F"><path d="M6.4 24.24l.95-.46.32.65c.21.44.17.73-.16.89s-.57 0-.78-.39zM7.27 23l-2.93 1.42c-.13.06-.16.07-.27-.07h-.1l.49 1h.09c0-.17 0-.2.12-.27l1.2-.58.29.59-.92 1.17-.1.1-.14-.1h-.09l.51 1.06.09-.05A.43.43 0 0 1 5.6 27l1-1.24a1 1 0 0 0 1.22.24c.66-.32.83-.93.45-1.72l-.79-1.61-.08.05c.04.18 0 .2-.13.28zm-1.33 5l1.67 2c.09.11.09.16 0 .28l.07.08.76-.64-.07-.07c-.14.07-.19.06-.28-.05L7 28.31l.84-.71.6.72c.1.11.1.17 0 .29l.07.08.74-.63L9.2 28c-.14.08-.19.06-.28 0l-.61-.73.75-.63 1 1.24c.09.11.09.17 0 .29l.06.08.76-.64-.07-.08c-.14.07-.19.07-.28 0l-1.61-2.04-.08.06c.08.15.07.19 0 .28l-2.5 2.1c-.11.09-.16.09-.28 0z"/><path d="M8.48 30.78l.87.73.07-.08c-.1-.13-.1-.18 0-.29l2.09-2.5c.09-.1.15-.11.29 0l.07-.08-.87-.77-.07.08c.09.13.09.18 0 .29l-2.09 2.5c-.09.1-.14.11-.28 0zm4.65 2.6h.09L13 32.23h-.1v.17c-.11.19-.52.27-1 0s-.62-1-.22-1.68 1-1 1.55-.72.58.66.5.8l-.1.1.06.07.9-.53v-.08h-.15a2.43 2.43 0 0 0-.85-.91 1.83 1.83 0 0 0-2.52.91 1.82 1.82 0 0 0 .55 2.64 2.72 2.72 0 0 0 1.41.22z"/><path d="M13.7 33.92l1.07.25v-.11c-.15-.07-.17-.11-.13-.25l.36-1.43 1.56.36-.34 1.43c0 .14-.07.17-.23.17v.1l1.08.25v-.1c-.15-.07-.18-.12-.14-.25l.73-3.19c0-.13.08-.16.24-.16v-.1l-1.08-.25v.1c.14.07.17.11.14.25l-.27 1.16-1.56-.36.27-1.16c0-.14.07-.17.23-.17v-.1l-1.08-.25v.1c.14.07.16.12.13.26L14 33.65c0 .13-.06.17-.23.17zm4.3.61h.09l.15-.12a4.74 4.74 0 0 0 1.35.27c1 0 1.59-.59 1.57-1.3a1.09 1.09 0 0 0-.89-1c-.85-.24-1.48-.21-1.5-.64 0-.25.24-.45.65-.47s.91.24.92.41v.14h.09l.55-1h-.09l-.14.09a4.4 4.4 0 0 0-1.32-.26c-.85 0-1.36.54-1.34 1.18s.34.8 1 1c.91.21 1.36.25 1.37.65s-.31.57-.84.59-1.05-.29-1.06-.47v-.14h-.09z"/><path d="M22.91 33.62l-.36-1.1.84-.27c.43-.14.74 0 .85.33s0 .62-.46.75zM22.36 32l-.29-.9.85-.27c.34-.11.6 0 .69.25s-.06.53-.41.65zm.44-1.77l-1.8.59v.09c.17 0 .2 0 .25.15l1 3.11c0 .14 0 .18-.11.27v.1l1.92-.63a1.12 1.12 0 0 0 .94-1.47 1 1 0 0 0-1-.71.88.88 0 0 0 .35-1c-.23-.57-.77-.8-1.55-.55zm3.45.97l-.34-1.47 1.15 1zm.3 1.27l-.16-.69 1.12-.71.55.46.07.07-.07.18.05.09.93-.58-.04-.09a.26.26 0 0 1-.29-.07l-2.63-2.21-.08-.09.09-.16-.09-.08-1.07.66.06.09c.09 0 .14-.05.17 0v.12l.84 3.36a.24.24 0 0 1-.08.3l.06.09.89-.56-.05-.08h-.23zm3.06-1.69l.75-.81-.08-.07c-.13.09-.18.09-.28 0l-1.08-1L30 27.71l1.08 1c.1.09.1.15 0 .29l.08.07.76-.82-.08-.07c-.13.09-.19.1-.29 0L29.19 26c-.1-.1-.11-.15 0-.29l-.07-.07-.76.81.08.07c.13-.09.18-.09.29 0l.87.81-1.09 1.18-.87-.81c-.11-.1-.11-.15 0-.29l-.08-.07-.75.81.08.07c.13-.09.18-.09.28 0l2.39 2.22c.11.1.11.15 0 .29zm3.11-3.7l.45-1h-.09c-.08.11-.14.13-.25.08l-2.26-1.05 2.9-.28c.08 0 .09.09.05.2h.09l.48-1L34 24c-.07.11-.12.11-.23.06l-3-1.4c-.14-.06-.17-.08-.12-.25h-.09l-.44.94h.09c.08-.13.13-.13.27-.07l2 .93-2.48.25h-.13v-.14l-.09-.05-.53 1.13.1.05c.06-.11.09-.12.2-.08l3 1.42c.1 0 .13.14.09.28zM7.19 14.57l-2.47-1.05.17-.4c.34-.82.83-1 1.73-.66s1.09.88.72 1.76zm.21 1.1l.54-1.29a1.76 1.76 0 0 0-1-2.63 1.84 1.84 0 0 0-1.94.07 2.32 2.32 0 0 0-.69 1l-.51 1.33h.09c.1-.12.15-.14.28-.08l3 1.27a.18.18 0 0 1 .13.26zm1.9-4.03l1.82-1.88c.09-.1.14-.11.28 0l.07-.08-.72-.68h-.07c.09.14.09.19 0 .29L9.5 10.54l-.79-.76.66-.68c.09-.1.15-.12.28 0l.07-.1L9 8.32v.07c.09.13.08.19 0 .29l-.66.68-.7-.68 1.05-1.17c.1-.1.16-.1.29 0l.07-.07-.71-.69-.07.07c.08.14.08.19 0 .29L6.49 8.93l.07.07c.14-.09.19-.08.29 0l2.35 2.29c.1.09.11.14 0 .28zm1.17-5.93l1 2.07c.4.78 1.07.94 2 .48s1.13-1.08.73-1.87l-1.01-2.07c-.07-.12 0-.18.07-.28v-.09l-1 .49v.09c.15 0 .21 0 .27.11l1.06 2.07c.21.41.08.74-.41 1s-.83.16-1-.25l-1.06-2.09c-.06-.12 0-.17.08-.28V5l-1 .51v.09c.15-.03.2-.02.27.11zM16.61 7l1.09-.18v-.1c-.16 0-.19 0-.21-.18L17 3.66l.91-.15c.13 0 .18 0 .24.15h.1l-.16-1H18c0 .15 0 .21-.18.23l-2.51.39c-.15 0-.21 0-.24-.14h-.11l.16 1h.1a.19.19 0 0 1 .19-.22l.87-.14.46 2.92c0 .14 0 .18-.15.24z"/><path d="M19.37 6.51h.08l.17-.09A4.7 4.7 0 0 0 20.9 7c1 .15 1.68-.28 1.79-1A1.08 1.08 0 0 0 22 4.85c-.79-.4-1.41-.5-1.34-.92 0-.25.31-.4.72-.34s.85.41.83.58l-.07.13h.08l.72-.83-.07-.06-.16.07A4.06 4.06 0 0 0 21.46 3c-.84-.13-1.44.26-1.54.9s.19.85.8 1.12c.86.39 1.29.51 1.23.91s-.42.5-.94.41-1-.47-1-.66l.05-.13h-.08zm7.07 2.31h.09l-.19-1.13h-.1v.17c-.11.19-.51.27-.94 0s-.63-1-.23-1.68 1-1 1.55-.71.58.65.5.79l-.1.1.06.07.9-.53-.05-.08h-.15a2.43 2.43 0 0 0-.85-.91 1.83 1.83 0 0 0-2.52.91 1.84 1.84 0 0 0 .57 2.62 3 3 0 0 0 1.41.22zm.4.85l.74.81.07-.07c-.07-.14-.07-.18 0-.28l1.09-1 1.07 1.18-1.09 1c-.11.09-.16.09-.29 0l-.08.07.74.82.08-.07c-.08-.14-.07-.19 0-.29l2.43-2.18c.1-.09.15-.09.28 0L32 9.6l-.74-.82-.08.07c.08.14.08.19 0 .28l-.88.8-1.07-1.19.88-.74c.11-.1.16-.1.29 0l.07-.07-.73-.82-.08.07c.08.14.07.19 0 .29L27.2 9.59c-.1.09-.15.1-.28 0zm2.79 3.48l.94 2.44c.05.13 0 .17-.1.26v.1l.93-.36v-.09c-.16 0-.2 0-.25-.14l-.61-1.56 1-.4.34.88c.05.14 0 .19-.1.27v.1l.91-.35v-.1c-.15 0-.2 0-.25-.13l-.34-.89.92-.35.58 1.51c0 .13 0 .19-.1.27v.1l.93-.36v-.09c-.16 0-.21 0-.26-.14l-.91-2.37h-.1c0 .16 0 .21-.13.26l-3 1.17c-.13 0-.18 0-.27-.1z"/></g></svg>