<svg id="Layer_1" data-name="Layer 1" xmlns="http://www.w3.org/2000/svg" viewBox="0 0 37.44 37.44"><defs><style>.cls-1,.cls-3{fill:#231f20;}.cls-2,.cls-4{fill:#fff;}.cls-2,.cls-3{fill-rule:evenodd;}</style></defs><path class="cls-1" d="M37,18.72a18,18,0,1,0-18,18,18,18,0,0,0,18-18"/><path class="cls-2" d="M19,7.56A11.16,11.16,0,1,1,7.84,18.72,11.16,11.16,0,0,1,19,7.56"/><path class="cls-2" d="M16.34,21.69a6.46,6.46,0,0,1-1.56,2.84A9.48,9.48,0,0,0,13.35,24c-.18,0-.32.41-.32.41l0,.3.34-.25.06.16a7.73,7.73,0,0,0,1.16.2s-1.11,1.35-1.18,1.52.45.73.56.83-.07-.41,0-.55.76-1.52.76-1.52a9.46,9.46,0,0,0,0,1.72,4,4,0,0,0,1,.52l-.47-.58.38,0S15,25.18,15.06,25c0,0,1.35.69,1.49.73s.07.41.07.41.34-.38.16-.66l0-.24S16.3,25,15.3,24.7A14.85,14.85,0,0,1,17,22.35l-.11-.73-.58.07"/><path class="cls-1" d="M14.77,24.5a6.41,6.41,0,0,0,1.54-2.82h0l.59-.07h0v0l.1.73h0a14.36,14.36,0,0,0-1.7,2.32c1,.3,1.49.51,1.49.51h0v0l0,.22c.18.3-.17.69-.17.69l-.05,0s.06-.36-.05-.39-1.27-.62-1.47-.72a8.43,8.43,0,0,0,.65,1.72l0,0h0l-.33,0,.44.55,0,0a4,4,0,0,1-1.06-.53h0a7.22,7.22,0,0,1,0-1.6c-.16.35-.61,1.28-.7,1.39s0,.54,0,.54l0,0a3.06,3.06,0,0,1-.5-.62l-.06-.13v-.11c.06-.16,1-1.27,1.15-1.49a8,8,0,0,1-1.12-.19h0l0-.13-.31.23,0,0v-.05l0-.3h0s.14-.46.34-.44a8.82,8.82,0,0,1,1.42.51m1.59-2.79a6.56,6.56,0,0,1-1.56,2.84h0A9.08,9.08,0,0,0,13.34,24c-.15,0-.27.35-.28.4l0,.24.29-.22,0,0v0l.06.15a8.9,8.9,0,0,0,1.14.2h.05l0,0s-1.11,1.34-1.17,1.51h0v.08l0,.12a3.78,3.78,0,0,0,.44.55.94.94,0,0,1,.05-.5h0c.1-.13.76-1.51.76-1.51h.05a9.38,9.38,0,0,0,0,1.71,3.17,3.17,0,0,0,.94.48l-.41-.52,0,0h0l.35,0A6.13,6.13,0,0,1,15,25l0,0h0s1.35.69,1.48.73.11.24.1.36a.55.55,0,0,0,.11-.57h0l0-.22c-.1,0-.61-.24-1.5-.51h0l0,0A14.62,14.62,0,0,1,17,22.34l-.1-.69Z"/><path class="cls-1" d="M14.77,24.5l0,0a7.42,7.42,0,0,0,1.25-2,4.78,4.78,0,0,0,.22-.6l0-.16v0h0v-.06h.06v0l.59-.07H17v.08l.1.73h0v0l0,0,0,0,0,0a13.75,13.75,0,0,0-1.69,2.3l-.05,0,0-.05c.49.15.86.28,1.11.37l.28.1.07,0h0l0,0,0,0h0l0,0,0,0,0,.05v-.05h0l0,.05v-.05h0l0,0v.05h0l0,.23h-.05l0,0,.06.21a1,1,0,0,1-.23.54l0,0-.08,0,0,0v0a1.3,1.3,0,0,0,0-.18l0-.12,0,0h0c-.14,0-1.27-.62-1.47-.72l0,0h0v0a4.29,4.29,0,0,0,.32.95c.16.37.32.71.33.71h0v0l0,.07H15.7l-.23,0,.38.48,0,0,0,.07,0,0h0l-.49-.2a1.5,1.5,0,0,1-.59-.36h0l0,0a1.1,1.1,0,0,1,0-.43c0-.39,0-.94.06-1.19h.05l0,0c-.17.35-.61,1.28-.71,1.4l0,0,0,0a.65.65,0,0,0,0,.24,2.46,2.46,0,0,0,0,.27v0l-.07,0,0,0,0,0a4,4,0,0,1-.51-.63h0l-.06-.14h0v-.12h0a6.4,6.4,0,0,1,.54-.73l.62-.77,0,0v.06c-.33,0-.61-.09-.81-.13l-.23-.05-.06,0h0v0h0v0h0v0h0v0h0v0h0l0-.07-.25.19h0l0,0-.07.06v-.14l0-.3h0v0a1.22,1.22,0,0,1,.1-.23c.06-.11.14-.24.28-.24h0a8.91,8.91,0,0,1,1.45.51l0,.05,0,0,0,0,0,.05A9,9,0,0,0,13.34,24v0h0c-.06,0-.14.09-.19.19l-.07.15,0,0v0h0l0,.29v.05H13l0,0,0,0,0,0,0,0,.31-.23.05,0,.07.19h0l-.05,0v-.05h0l0,.05v-.06h0a8.44,8.44,0,0,0,1.11.19h.09l-.06.08-.62.76a7.39,7.39,0,0,0-.52.71l-.05,0h.05v.1l0,.12,0,0,0,0a4.9,4.9,0,0,0,.49.61l0,0,0,0,.05,0,0,.05h0a1.38,1.38,0,0,1,0-.27.58.58,0,0,1,.06-.3h0c.08-.1.53-1,.7-1.38l.1,0c0,.26-.07.81-.07,1.19a1.11,1.11,0,0,0,0,.38h0v0h0l0,0a1.6,1.6,0,0,0,.54.32c.25.11.48.19.48.19v.05l0,0h0l-.41-.52-.06-.07.42-.05h0v.05l-.05,0,0,0,.05,0-.05,0A8.58,8.58,0,0,1,15,25v-.11l.07,0c.19.1,1.34.68,1.45.71h0c.11.05.1.16.11.26v.17h-.06l0-.05,0,0,0,.05,0,0h0a.78.78,0,0,0,.21-.46l0-.16v0l0-.24h0v0h.05l0,0h0l0-.05v.05h0s-.51-.21-1.48-.51l-.07,0,0-.06A13.24,13.24,0,0,1,17,22.33h0l0,0H17l-.1-.73v0H17v.05h0l-.59.06h0v0h.05a6.34,6.34,0,0,1-1.55,2.85l0,0h0Zm1.59-2.79h.05a6.71,6.71,0,0,1-1.57,2.86l0,0,0,0h0l0,0-.05,0h0l0,0,0,0h0l0,0,0,0a9.22,9.22,0,0,0-1.41-.51v0h0s-.1.07-.15.16l-.08.2h0v.15l.22-.16h0l0,0,.06,0,0,.1.06.15,0,0v-.05a7.93,7.93,0,0,0,1.14.19v0h.14l-.09.11,0,0,0,0-.56.7a9,9,0,0,0-.6.8h0l0,0h0v.07l.05.11-.05,0,.05,0a3.09,3.09,0,0,0,.43.54l0,0h0v-.19a.63.63,0,0,1,.07-.34h0l0,0,0,0c.09-.12.75-1.5.75-1.51l0,0,.09,0h0v.05h0s-.08.85-.08,1.34a1.24,1.24,0,0,0,0,.33h0a1.19,1.19,0,0,0,.39.24l.52.22v0l0,0-.41-.51,0,0-.06-.08h.14l.34,0v0l-.05,0A7.8,7.8,0,0,1,15,25l0-.09h0v0l0-.05.07,0,0,0,0,0,.7.35c.35.17.72.36.77.37h0c.13.05.14.21.14.32V26h-.06l0,0a.69.69,0,0,0,.15-.36l0-.15h0v0h0l0-.23h.05l0,.05c-.1,0-.61-.24-1.49-.52h0l-.06,0,.05-.08h0A14.44,14.44,0,0,1,17,22.3l0,0H17l-.09-.64-.5.05v-.05h0v-.05l.55-.06H17l.1.74v0l0,0a15.13,15.13,0,0,0-1.71,2.33l0,0,0,0v0l-.05,0,0,0h0l0,.05,0-.05c.89.27,1.4.47,1.5.51l0,0,0,.25h0l0,0,.06.2a.81.81,0,0,1-.16.42l-.1,0V26c0-.11,0-.22-.07-.22h0c-.08,0-.44-.2-.8-.38l-.48-.24L15.1,25l0,0h0l0,0,0,0v0L15,25l.05,0v0a8.17,8.17,0,0,0,.63,1.66l0,.07-.41,0h-.05v0l0,0,0,0,.41.51-.06.08a3.8,3.8,0,0,1-.53-.22,1.19,1.19,0,0,1-.44-.27l0,0,0,0a1,1,0,0,1,0-.39c0-.51.07-1.34.08-1.36h.05l0,.05h0l0-.05,0,0s-.64,1.37-.76,1.52h0l0,0,0,0a.63.63,0,0,0,0,.28v.18l-.09.05a4,4,0,0,1-.44-.57h0l-.06-.12h0v-.13l0,0-.05,0a7.48,7.48,0,0,1,.62-.83l.39-.48.12-.15,0-.05h0l0,0,0,0v.05h-.05a8.85,8.85,0,0,1-1.15-.2h0l-.06-.17,0,0h.05l0,0,0,0h0l-.3.22-.08.06,0-.34h0s0-.12.09-.22.12-.2.24-.21h0a9.3,9.3,0,0,1,1.45.52l0,0,0,0h0l0,0,0,0v0h0a6.58,6.58,0,0,0,1.55-2.81v0h0Z"/><path class="cls-2" d="M21.59,21.69a6.49,6.49,0,0,0,1.55,2.84A9.28,9.28,0,0,1,24.58,24c.19,0,.31.41.31.41v.3l-.34-.25-.06.16a7.73,7.73,0,0,1-1.16.2s1.11,1.35,1.18,1.52-.45.73-.55.83.06-.41,0-.55-.77-1.52-.77-1.52a8.64,8.64,0,0,1,0,1.72,3.81,3.81,0,0,1-1,.52l.49-.58-.41,0A7.63,7.63,0,0,0,22.88,25s-1.36.69-1.5.73-.07.41-.07.41-.34-.38-.17-.66l0-.24s.52-.21,1.52-.52a15.53,15.53,0,0,0-1.73-2.35l.1-.73.59.07"/><path class="cls-1" d="M23.12,24.55a6.6,6.6,0,0,1-1.55-2.84L21,21.65l-.09.69a14.62,14.62,0,0,1,1.72,2.35l0,0h0c-.89.27-1.4.47-1.51.51l0,.22h0c-.12.2,0,.44.11.56,0-.12,0-.32.09-.35S22.86,25,22.86,25h0v0a6.5,6.5,0,0,1-.63,1.75l.38,0h.05l0,0-.44.52a3.35,3.35,0,0,0,.93-.48,9.38,9.38,0,0,0,0-1.71h.05s.66,1.38.76,1.51h0a.85.85,0,0,1,.05.5,3.21,3.21,0,0,0,.44-.55l0-.12v-.08a18.76,18.76,0,0,0-1.17-1.51l0,0h.05a8.9,8.9,0,0,0,1.14-.2l.06-.15v0l0,0,.29.22,0-.24c0-.05-.13-.41-.29-.4a9.92,9.92,0,0,0-1.43.51h0m-1.51-2.87a6.55,6.55,0,0,0,1.54,2.82A9,9,0,0,1,24.58,24h0c.21,0,.34.44.34.44h0l0,.3v.05l0,0-.31-.23-.05.13h0a7.69,7.69,0,0,1-1.11.19c.18.22,1.09,1.33,1.15,1.49h0v.11l-.06.13a3.49,3.49,0,0,1-.49.62l0,0s.07-.41,0-.54-.54-1-.71-1.39a7.22,7.22,0,0,1,0,1.6h0a4.08,4.08,0,0,1-1,.53l0,0,.46-.55-.36,0h0l0,0A9.06,9.06,0,0,0,22.86,25c-.2.1-1.34.69-1.47.72s-.05.39-.05.39l-.05,0s-.34-.39-.18-.68l0-.23v0h0s.51-.21,1.49-.51a13.91,13.91,0,0,0-1.71-2.32h0l.1-.73v0h0l.59.07h0Z"/><path class="cls-1" d="M23.12,24.55l0,0a6.58,6.58,0,0,1-1.57-2.86h.05v.05l-.49-.05-.09.64h-.05l0,0a15.32,15.32,0,0,1,1.74,2.36l-.05,0,.05,0v0l0,0-.1,0h0c-.89.28-1.4.48-1.5.52l0-.05h.05l0,.22h0v0h0l0,.14a.69.69,0,0,0,.15.36l0,0h-.06v-.11c0-.11,0-.25.14-.3h0c.05,0,.44-.2.79-.37l.69-.35,0,0,0,0h0l.05,0,0,.07h0V25a7.41,7.41,0,0,1-.65,1.72l0,0v0l.38,0h.15l-.09.12h0l-.43.51,0,0,0,0,.52-.22c.19-.09.37-.19.38-.24h0a.73.73,0,0,0,0-.33c0-.51-.07-1.34-.07-1.35v0l.08,0h0l0,0s.67,1.39.76,1.51h0v0h-.05l0,0a.7.7,0,0,1,.08.33l0,.2H24l0,0a3.07,3.07,0,0,0,.42-.54l.05,0-.05,0,.05-.11v-.07h0l0,0a10,10,0,0,0-.61-.8l-.56-.7h0l0,0-.06-.07.14,0v0a7.11,7.11,0,0,0,1.13-.19l0,.05-.05,0,.06-.15h0v0l0-.06.08.06.22.16v-.15h0l-.09-.2c0-.09-.11-.16-.14-.16h0v0a10,10,0,0,0-1.41.51h-.06l0,0,0,0,0,0,0,0,0,0,0,0,0,0,0,0h0l0,0,0,0A8.92,8.92,0,0,1,24.58,24h0c.12,0,.18.11.24.21s.08.2.09.22h0v.35l-.37-.28,0,0,0,0,0,0v0l-.07.15v0h0a8.9,8.9,0,0,1-1.14.2h0v-.05l0,0,0,0,0,0,0,0s.28.33.57.69a8.39,8.39,0,0,1,.61.83h0v.09h0l-.06.13h0a3.41,3.41,0,0,1-.44.56l-.09,0v-.19a.5.5,0,0,0-.05-.27h0v0h.05l0,0c-.11-.15-.77-1.51-.77-1.52l.05,0v.05h-.05v-.05h.05c0,.05.08.85.08,1.35a1.18,1.18,0,0,1-.05.39l0,0,0,0a1.16,1.16,0,0,1-.42.27l-.53.22-.06-.08.44-.51,0,0,0,0,0,0,0,0v0h-.05l-.38,0h-.07l0-.07A8.51,8.51,0,0,0,22.86,25v0l0,0,0,0v0l.05,0,0,0h0c-.08.05-1.34.69-1.49.73l0-.05,0,.05s-.07.1-.07.2V26l-.1,0a.81.81,0,0,1-.16-.42l.05-.19.05,0h-.05l0-.2v0l0,0c.11,0,.62-.24,1.51-.51l0,.05,0-.05h0l0,0,0,0,0,0h0a15.9,15.9,0,0,0-1.72-2.33l0,0,.1-.72v-.05l.59.07h0v0a6.49,6.49,0,0,0,1.54,2.81h0Zm-1.51-2.87h.06a6.29,6.29,0,0,0,1.52,2.79l0,0,0-.05a8.77,8.77,0,0,1,1.44-.51h0v0h0c.14,0,.22.13.28.24l.07.16,0,.05v0h0l0,0,0,0h0l0,0,0,0h0v0h0v.45l-.12-.09-.25-.19,0,.07h0v0h-.05v0h0v0a8.92,8.92,0,0,1-1.11.2v-.06l0,0,.62.77a6.4,6.4,0,0,1,.54.73h-.05V26.3h.06v.18l-.06.13h0a4,4,0,0,1-.51.63l0,0-.08,0,0,0v0a2.46,2.46,0,0,0,0-.27.49.49,0,0,0,0-.24l0,0,0,0c-.1-.12-.55-1.05-.71-1.4l0,0h.05c0,.26.07.82.07,1.21a1.26,1.26,0,0,1-.05.42l0,0h0v-.05h.05a1.5,1.5,0,0,1-.59.36l-.49.2h0l0-.07,0,0,.43-.5-.27,0h-.11l.05-.1h0l.33-.73a4.25,4.25,0,0,0,.32-.94v0h.05l0,0c-.2.1-1.33.68-1.48.72v0l0,0v.11a1.54,1.54,0,0,0,0,.2v0l-.07,0h0l0,0a.91.91,0,0,1-.24-.54l.05-.21,0,0h-.05l0-.23v-.05l.05,0h0v.05l0-.05h0v.05l0-.05s.52-.21,1.5-.51v.05l0,0a14.49,14.49,0,0,0-1.7-2.3h0l0,0v0l.1-.73h0v-.08H21l.59.07h0l0,.06h-.06v0h0L21,21.65h0v-.05H21v0h0l-.11.73v0h-.05l0,0h0a14,14,0,0,1,1.73,2.33l0,.06-.06,0c-.5.15-.87.28-1.12.37l-.28.1-.07,0h0V25.2l0,.05h0l0,0h.05v0l0,.23v0h0l0,.16a.71.71,0,0,0,.1.32l.08.11,0,0h0l0,0,0-.05.05,0,0,.05h-.05a1.56,1.56,0,0,1,0-.21c0-.09,0-.2.1-.24h0c.12,0,1.27-.61,1.47-.71l.06,0V25a8.16,8.16,0,0,1-.66,1.71l0,0,0,0v0l0,0v-.05h0l.37,0h.1l-.51.59h0l0,0,0-.05s.23-.08.48-.19a1.72,1.72,0,0,0,.54-.32l0,0h-.05v-.05h.05v.05l0,0a1.22,1.22,0,0,0,0-.37c0-.39,0-.94-.06-1.2l.1,0c.16.35.62,1.29.7,1.39h0a.49.49,0,0,1,.06.3v.27h0l0-.05,0,0,0,0,0,0a4.9,4.9,0,0,0,.49-.61l0,0-.05,0,.06-.12v-.1h.05v0h-.05v0h.05l-.05,0a5.88,5.88,0,0,0-.52-.71l-.62-.76-.06-.08h.1l.8-.12.22-.05.06,0h0v0h0v.05h0v0h0l.06-.13,0-.06.36.27,0,0,0,0h0v-.05l0-.29h.05l-.05,0h0a.78.78,0,0,0-.09-.21c-.05-.11-.13-.19-.19-.19h0v0a9.86,9.86,0,0,0-1.41.51h0l0,0a6.44,6.44,0,0,1-1.55-2.84h.05Z"/><path class="cls-2" d="M18.57,11.26s-2,.09-2.39-.55a4.46,4.46,0,0,0,2.46.33l-.07.22"/><path class="cls-1" d="M16.26,10.77c.45.52,2.1.48,2.29.47l.05-.17a4.69,4.69,0,0,1-2.34-.3m2.31.52s-2,.09-2.41-.57l0,0a4.49,4.49,0,0,0,2.45.34h0v0l-.08.22v0Z"/><path class="cls-1" d="M16.26,10.77l0,0c.33.39,1.5.45,2,.45h.24v.05l-.05,0,.06-.16h0v0l-.58,0a4.49,4.49,0,0,1-1.79-.33l0-.05,0,0,0,0,0,0a4.52,4.52,0,0,0,1.75.32l.57,0h.08l-.08.25v0h-.28c-.52,0-1.69,0-2.09-.48l.06-.08Zm2.31.52v.05h-.25c-.56,0-1.87,0-2.21-.6l0,0,.07-.06,0,0h0A4.24,4.24,0,0,0,18,11a4.45,4.45,0,0,0,.61,0v0h.13l0,.12,0,0,0,0-.08.22h0v.05h-.06v-.1h0v0l-.05,0h0l.08-.23h0v0h.05v.05h-.05l-.61,0a5.06,5.06,0,0,1-1.38-.18l-.36-.13-.09,0,0,0h0v0h0v0l0-.05v.05h0l0-.05v0l0,0,0,0,0,0,0,0c.25.48,1.57.56,2.12.55h.25Z"/><path class="cls-2" d="M17.93,8.86s-.89-.24-1.23.26c-.47.68.25,1.76.25,1.76s0-.43.58-.43,1.14.29,1,.76c0,.14-1.34,0-1.49,0,0,0-.19.17,1.85.43l.22-.17L18.24,8.9l-.31,0"/><path class="cls-1" d="M16.68,9.11h0c.34-.51,1.2-.29,1.25-.27l.31,0h0v0l.9,2.56v0h0l-.22.17h0c-2.09-.26-1.86-.47-1.86-.47h0c.1,0,.45.05.79.07a1.65,1.65,0,0,0,.66,0h0V11.1a.5.5,0,0,0-.19-.36,1.4,1.4,0,0,0-.46-.22,2.2,2.2,0,0,0-.36,0c-.54,0-.56.41-.56.41h0s-.72-1.1-.24-1.79m1.24-.22s-.87-.24-1.2.25h0c-.39.57.07,1.44.21,1.67a.55.55,0,0,1,.6-.38,1.61,1.61,0,0,1,.37,0,1.26,1.26,0,0,1,.48.23.52.52,0,0,1,.21.4v.12h0c0,.08-.36.1-.71.08s-.68-.05-.79-.07.18.16,1.82.37l.2-.15-.88-2.53-.29,0Z"/><path class="cls-1" d="M16.68,9.11l0,0a.94.94,0,0,1,.81-.36,1.81,1.81,0,0,1,.5.07l0,.05V8.78l.31,0v0h.05v.05l.9,2.55v.05l0,0h0l-.22.17H18.9a9.84,9.84,0,0,1-1.58-.29c-.26-.09-.32-.14-.33-.22l0-.06h0l0,0h.05a6.19,6.19,0,0,0,.79.07h.61l0,0h0l0,0h0v0h0v.05h-.05v-.11h0a.43.43,0,0,0-.18-.32,1.12,1.12,0,0,0-.44-.2,1.33,1.33,0,0,0-.34-.05.48.48,0,0,0-.44.18l-.06.13v0h0v0l-.08,0h0l0,0,0,0,0,0h0l0,0,0,0a2.87,2.87,0,0,1-.42-1.25,1,1,0,0,1,.18-.6l0,0,0,0,0,0,0,0a.92.92,0,0,0-.15.54,2.57,2.57,0,0,0,.4,1.2l0,0v-.05H17v.05h0a.52.52,0,0,1,.09-.24.61.61,0,0,1,.52-.22,1.55,1.55,0,0,1,.37,0,1.26,1.26,0,0,1,.48.23.53.53,0,0,1,.21.4h0v.11h0v0h0v0h0l-.07.06a1.22,1.22,0,0,1-.32,0h-.32c-.34,0-.7-.05-.8-.07v0h0l0-.05,0,0v0l0,0,0,0h0l.05.05a6.21,6.21,0,0,0,1.77.36v.05l0-.05h0l.22-.16h0l0,0h-.05l-.89-2.56v0l.05,0v.06h0l-.31,0h0a1.76,1.76,0,0,0-.47-.06.84.84,0,0,0-.73.31h0Zm1.24-.22v0h0a2.1,2.1,0,0,0-.45,0,.77.77,0,0,0-.68.29l0,0h0v0l0,0a.89.89,0,0,0-.14.51A2.48,2.48,0,0,0,17,10.79l-.05,0h-.05a.58.58,0,0,1,.65-.42,1.56,1.56,0,0,1,.88.28.55.55,0,0,1,.23.44h0v.13h0l-.19.11-.32,0h-.25a7.32,7.32,0,0,1-.8-.07v0l.05,0h0a6.45,6.45,0,0,0,1.77.34v0l0,0,.17-.13L18.18,9l-.26,0h0v-.1h0l.3,0h0l.9,2.59-.23.17v0h0a14.13,14.13,0,0,1-1.53-.25c-.25-.07-.31-.09-.34-.16l0-.08.08,0c.1,0,.46.05.78.07h.56l.08,0h0v-.13h0a.47.47,0,0,0-.19-.36,1.4,1.4,0,0,0-.46-.22,2.2,2.2,0,0,0-.36,0c-.42,0-.51.23-.55.35L17,11l-.06-.11a2.64,2.64,0,0,1-.38-1.16,1,1,0,0,1,.17-.57v0h0v.05l0,0a.89.89,0,0,1,.77-.33,2.18,2.18,0,0,1,.49.06l0,.05v0Z"/><path class="cls-1" d="M23.58,11.48v0M19.81,21.64h0Zm0,0s.7,1.53.94,2Zm.94,2L21,22ZM21,22l0,0Zm0,0,1.46.14Zm1.46.14-2.28-2.75v0A6.17,6.17,0,0,0,20.89,17c-.1,0-.36,0,.14-.06h0l0,0v3s.64.68.82.87V17l0,0,.39,0,0,0v4.24l.84.91V16.93l0,0,.35-.08h0l0,0v5.72l.84.89V16.54l0,0a.74.74,0,0,0,.3-.14h0l0,0v7.46l.85.89V15.66a1.31,1.31,0,0,0,.4-.41h0l0,0v10l.85.92V13a2.94,2.94,0,0,0-1.51-2.54h0v0c.22-.14.11-.59.07-.73a1.05,1.05,0,0,1-.27.2l-.06,0a1,1,0,0,1-.42.1,1.84,1.84,0,0,1-.41-.06,2.09,2.09,0,0,0-.35,0c-1.13,0-1.39.5-1.43.59a3,3,0,0,0,1.06.94h0a.76.76,0,0,0,.45.11,1,1,0,0,0,.42-.2h0a3.23,3.23,0,0,1,.59,1.43v.06a2.57,2.57,0,0,1-.66,1.59,3.05,3.05,0,0,1-2.23,1h-1a.4.4,0,0,1-.21,0h0v0A10.55,10.55,0,0,0,20.32,10h0l0,0a2.24,2.24,0,0,0,.4-.22A2.88,2.88,0,0,1,20,9.52l-.34-.11h0l-.95-.26-.46-.09h0c-.22,0-.3,0-.32.15a1.47,1.47,0,0,0,.12.59l0,.06h0a1.77,1.77,0,0,0,.28.44,5.89,5.89,0,0,1,.37.55h0a2.26,2.26,0,0,1,.25.58A1.55,1.55,0,0,1,19,12h0l0,0-.33,0a2.8,2.8,0,0,1-.69,1.19h0a3.45,3.45,0,0,0-1.07,2.22h0l0,0h-1a3.1,3.1,0,0,1-2.29-1,2.6,2.6,0,0,1-.67-1.61v-.05a3.35,3.35,0,0,1,.59-1.43h0a1,1,0,0,0,.42.2.75.75,0,0,0,.45-.11h0a2.82,2.82,0,0,0,1-.94c0-.09-.29-.59-1.42-.59a1.48,1.48,0,0,0-.35,0,2.55,2.55,0,0,1-.41.05,1,1,0,0,1-.59-.2l-.1-.07-.06-.06c0,.14-.14.59.07.73h0v0A2.94,2.94,0,0,0,11.07,13V26.17l.85-.92v-10h0a1.39,1.39,0,0,0,.4.41v9.09l.86-.89V16.4h0a.88.88,0,0,0,.3.14l0,0v6.93l.84-.89V16.86h0l0,0,.35.08,0,0v5.25l.85-.91V17h0l0,0,.38,0h0l0,0V20.8c.18-.19.82-.85.82-.87v-3l0,0,0,0a13.37,13.37,0,0,0,.79,2.41v0L15.5,22.12,17,22h0l0,0,.23,1.65c.23-.47.93-2,.93-2h0l0,0a29.77,29.77,0,0,1-.26,4,2.63,2.63,0,0,1-.51,1.38,2.12,2.12,0,0,1-1.12.45,1.29,1.29,0,0,0,1,.58,1.52,1.52,0,0,0,1-.48h0l.68.74.66-.74h0a1.47,1.47,0,0,0,1,.48,1.27,1.27,0,0,0,1-.58,2.12,2.12,0,0,1-1.12-.45,2.63,2.63,0,0,1-.51-1.38,29.77,29.77,0,0,1-.26-4Zm-2.23-2.77,2.31,2.78v0h0L21.06,22l-.23,1.71,0,0h0c-.16-.3-.75-1.58-.93-2a27.8,27.8,0,0,0,.27,3.91A2.54,2.54,0,0,0,20.6,27h0a2.15,2.15,0,0,0,1.13.45l0,0h0a1.31,1.31,0,0,1-1,.64,1.51,1.51,0,0,1-1-.48l-.66.75h0l-.67-.75a1.54,1.54,0,0,1-1.05.48,1.33,1.33,0,0,1-1-.64v0h0A2.11,2.11,0,0,0,17.39,27h0a2.5,2.5,0,0,0,.5-1.35,30,30,0,0,0,.26-3.91c-.18.39-.77,1.67-.92,2h0l0,0L16.94,22l-1.49.14,0,0v0h0l2.31-2.79A14.09,14.09,0,0,1,17,17.21v2.72l-.87.95h0V17l-.32,0V21.3l-.9,1h0V17l-.3-.06v5.72l-.89.94h0v-7a.79.79,0,0,1-.26-.12v7.44l-.91.94h0V15.7a1.37,1.37,0,0,1-.36-.36v9.92h0l-.91,1h0V13a3,3,0,0,1,1.5-2.56c-.24-.22,0-.8,0-.8l0,0h0l.08.08.1.07a1,1,0,0,0,.56.19,2.57,2.57,0,0,0,.4,0A1.51,1.51,0,0,1,14,9.84c1.26,0,1.48.64,1.48.64v0a2.85,2.85,0,0,1-1.08,1,.75.75,0,0,1-.9-.08,3.08,3.08,0,0,0-.57,1.37h0v.05a2.53,2.53,0,0,0,.66,1.57,3,3,0,0,0,2.25,1h1a3.54,3.54,0,0,1,1.08-2.24A2.61,2.61,0,0,0,18.56,12l0,0,.34,0a1.45,1.45,0,0,0,0-.54,2.19,2.19,0,0,0-.25-.56h0a5.74,5.74,0,0,0-.36-.55,1.71,1.71,0,0,1-.29-.45l0-.06a1.57,1.57,0,0,1-.12-.62c0-.15.12-.23.38-.19h0l.46.09,1,.26h0l.34.11c.33.11.7.23.81.13h0v0h0a2.91,2.91,0,0,1-.5.3,10.64,10.64,0,0,1,.66,5.4.38.38,0,0,0,.17,0h1a3,3,0,0,0,2.19-1,2.54,2.54,0,0,0,.65-1.56v-.06h0a3,3,0,0,0-.57-1.37.75.75,0,0,1-.9.08h0a3,3,0,0,1-1.08-1v0s.22-.64,1.48-.64a2.23,2.23,0,0,1,.36.05,1.76,1.76,0,0,0,.4.06.82.82,0,0,0,.4-.1l.06,0a1.14,1.14,0,0,0,.28-.21h.05s.19.59-.05.8A3,3,0,0,1,27,13V26.23l0,0h0l-.9-1h0V15.35a1.34,1.34,0,0,1-.36.35v9.11l0,0h0l-.9-.94V16.45a1.07,1.07,0,0,1-.26.12v7l0,0h0l-.9-.94V16.89l-.3.06v5.3l0,0h0l-.89-1V17.05l-.33,0v3.84l0,0h0L21,19.93V17h-.07A6.33,6.33,0,0,1,20.27,19.35Z"/><path class="cls-3" d="M20.24,19.35l2.32,2.8L21,22l-.24,1.73c-.18-.35-1-2.08-1-2.08.06,3.95.38,5,.75,5.4a2.23,2.23,0,0,0,1.15.45,1.33,1.33,0,0,1-1,.63,1.51,1.51,0,0,1-1-.49l-.68.76-.69-.76a1.52,1.52,0,0,1-1.05.49,1.35,1.35,0,0,1-1-.63,2.15,2.15,0,0,0,1.14-.45c.38-.38.7-1.45.76-5.4,0,0-.79,1.73-1,2.08L17,22l-1.52.14,2.32-2.8a12.64,12.64,0,0,1-.8-2.42v3l-.86.93V17l-.38,0v4.25l-.9,1V16.93a3.28,3.28,0,0,0-.35-.07v5.73l-.89.94v-7a.79.79,0,0,1-.32-.14v7.47l-.9.94V15.68a1.47,1.47,0,0,1-.41-.42v10l-.9,1V13a3,3,0,0,1,1.51-2.56c-.26-.18-.06-.79-.06-.79a1.15,1.15,0,0,0,.76.35c.28,0,.52-.11.76-.11,1.24,0,1.45.62,1.45.62a3,3,0,0,1-1.07,1,.73.73,0,0,1-.9-.1,3.22,3.22,0,0,0-.59,1.41A2.85,2.85,0,0,0,16,15.41h.83a3.51,3.51,0,0,1,1.08-2.25,2.71,2.71,0,0,0,.69-1.2L19,12a1.27,1.27,0,0,0-.23-1.14c-.19-.37-.58-.79-.65-1-.14-.42-.33-.92.21-.83a8.8,8.8,0,0,1,1.41.35c.37.09,1,.38,1.18.24a2.71,2.71,0,0,1-.52.31A10.63,10.63,0,0,1,21,15.37a.38.38,0,0,0,.2,0H22a2.84,2.84,0,0,0,3.05-2.64,3.22,3.22,0,0,0-.59-1.41.73.73,0,0,1-.9.1,3,3,0,0,1-1.07-1s.2-.62,1.45-.62c.24,0,.49.11.76.11a1.15,1.15,0,0,0,.76-.35s.21.61-.07.79A3,3,0,0,1,27,13V26.23l-.9-1v-10a1.33,1.33,0,0,1-.41.42v9.13l-.9-.94V16.4a.79.79,0,0,1-.31.14v7l-.9-.94V16.86a3.28,3.28,0,0,0-.35.07v5.32l-.89-1V17l-.39,0v3.87L21,19.93v-3l-.12,0a6.08,6.08,0,0,1-.68,2.4"/><path class="cls-1" d="M13.38,24.48s-.2-.36-.07-.44v0c-.11.07.08.41.08.41h0"/><path class="cls-1" d="M13.51,26.26a1.2,1.2,0,0,0,.51.37v0a1.17,1.17,0,0,1-.53-.37l0,0"/><polyline class="cls-1" points="15.32 26.79 14.77 26.75 14.77 26.73 15.32 26.77 15.32 26.79"/><path class="cls-1" d="M16.79,25.47s-.12.21-.24.25v0c.12,0,.23-.23.23-.24l0,0"/><path class="cls-1" d="M24.53,24.47s.18-.34.08-.41v0c.12.08-.07.44-.07.44h0"/><path class="cls-1" d="M24.44,26.28a1.24,1.24,0,0,1-.53.37v0a1.2,1.2,0,0,0,.51-.37l0,0"/><polyline class="cls-1" points="22.64 26.77 23.16 26.73 23.17 26.75 22.65 26.79 22.64 26.77"/><path class="cls-1" d="M21.15,25.45s.12.21.23.24v0c-.13,0-.25-.25-.25-.25l0,0"/><path class="cls-2" d="M18.35,9.46a.2.2,0,0,0,.2-.19.19.19,0,0,0-.2-.19.19.19,0,0,0-.19.19.2.2,0,0,0,.19.19"/><path class="cls-1" d="M18.35,9.48v0h0l-.16-.06h0l-.07-.17h0l.07-.17v0L18.33,9h0l.17.07h0l.07.18h0l-.07.16v0l-.17.07h0v0l0-.05.14,0,.05-.13.05,0h0l-.05,0-.05-.14-.14-.05,0,0v0h0v0l0,0-.13.05-.06.14-.05,0h0l.05,0,.06.13.13,0,0,.05V9.43h0v.05l0-.05Zm0-.05v0h0v0l0,0,.1,0,0-.09.05,0h0l-.05,0,0-.1-.1,0,0-.05v.06h0V9.1l0,.05-.1,0,0,.1-.05,0h0l.05,0,0,.09.1,0,0,0v0l0,.05-.11-.05h0l-.06-.14h0l.06-.13v0l.13,0h0l.13,0h0l.06.14h0l-.05.13v0l-.14.05h0Z"/><path class="cls-1" d="M18.35,9.48h0l-.15-.06-.07-.15h0l.07-.16.15-.06h0l.16.06.06.16h0l-.06.15-.16.06m0-.05h0l.12,0,.05-.11h0l-.05-.12-.12-.05h0l-.12.05-.05.12h0l.05.11Z"/><path class="cls-4" d="M6.4,24.24l.95-.46.32.65c.21.44.17.73-.16.89s-.57,0-.78-.39ZM7.27,23,4.34,24.42c-.13.06-.16.07-.27-.07l-.1,0,.49,1,.09,0c0-.17,0-.2.12-.27l1.2-.58.29.59-.92,1.17-.1.1L5,26.26l-.09,0,.51,1.06.09-.05A.43.43,0,0,1,5.6,27l1-1.24A1,1,0,0,0,7.82,26c.66-.32.83-.93.45-1.72l-.79-1.61-.08.05C7.44,22.9,7.4,22.92,7.27,23Z"/><path class="cls-4" d="M5.94,28l1.67,2c.09.11.09.16,0,.28l.07.08.76-.64-.07-.07c-.14.07-.19.06-.28-.05L7,28.31l.84-.71.6.72c.1.11.1.17,0,.29l.07.08.74-.63L9.2,28c-.14.08-.19.06-.28,0l-.61-.73.75-.63,1,1.24c.09.11.09.17,0,.29l.06.08.76-.64-.07-.08c-.14.07-.19.07-.28,0L8.92,25.49l-.08.06c.08.15.07.19,0,.28l-2.5,2.1c-.11.09-.16.09-.28,0Z"/><path class="cls-4" d="M8.48,30.78l.87.73.07-.08c-.1-.13-.1-.18,0-.29l2.09-2.5c.09-.1.15-.11.29,0l.07-.08L11,27.79l-.07.08c.09.13.09.18,0,.29l-2.09,2.5c-.09.1-.14.11-.28,0Z"/><path class="cls-4" d="M13.13,33.38l.09,0L13,32.23l-.1,0,0,.17c-.11.19-.52.27-1,0s-.62-1-.22-1.68,1-1,1.55-.72.58.66.5.8l-.1.1.06.07.9-.53,0-.08h-.15a2.43,2.43,0,0,0-.85-.91,1.83,1.83,0,0,0-2.52.91A1.82,1.82,0,0,0,11.62,33a2.72,2.72,0,0,0,1.41.22Z"/><path class="cls-4" d="M13.7,33.92l1.07.25,0-.11c-.15-.07-.17-.11-.13-.25L15,32.38l1.56.36-.34,1.43c0,.14-.07.17-.23.17l0,.1,1.08.25,0-.1c-.15-.07-.18-.12-.14-.25l.73-3.19c0-.13.08-.16.24-.16l0-.1-1.08-.25,0,.1c.14.07.17.11.14.25l-.27,1.16-1.56-.36.27-1.16c0-.14.07-.17.23-.17l0-.1-1.08-.25,0,.1c.14.07.16.12.13.26L14,33.65c0,.13-.06.17-.23.17Z"/><path class="cls-4" d="M18,34.53l.09,0,.15-.12a4.74,4.74,0,0,0,1.35.27c1,0,1.59-.59,1.57-1.3a1.09,1.09,0,0,0-.89-1c-.85-.24-1.48-.21-1.5-.64,0-.25.24-.45.65-.47s.91.24.92.41l0,.14.09,0,.55-1-.09,0-.14.09a4.4,4.4,0,0,0-1.32-.26c-.85,0-1.36.54-1.34,1.18s.34.8,1,1c.91.21,1.36.25,1.37.65s-.31.57-.84.59-1.05-.29-1.06-.47l0-.14-.09,0Z"/><path class="cls-4" d="M22.91,33.62l-.36-1.1.84-.27c.43-.14.74,0,.85.33s0,.62-.46.75ZM22.36,32l-.29-.9.85-.27c.34-.11.6,0,.69.25s-.06.53-.41.65Zm.44-1.77-1.8.59,0,.09c.17,0,.2,0,.25.15l1,3.11c0,.14,0,.18-.11.27l0,.1,1.92-.63A1.12,1.12,0,0,0,25,32.44,1,1,0,0,0,24,31.73a.88.88,0,0,0,.35-1C24.12,30.16,23.58,29.93,22.8,30.18Z"/><path class="cls-4" d="M26.25,31.2l-.34-1.47,1.15,1Zm.3,1.27-.16-.69,1.12-.71.55.46.07.07-.07.18.05.09.93-.58L29,31.2a.26.26,0,0,1-.29-.07l-2.63-2.21L26,28.83l.09-.16L26,28.59l-1.07.66.06.09c.09,0,.14-.05.17,0l0,.12L26,32.82a.24.24,0,0,1-.08.3l.06.09.89-.56-.05-.08c-.11,0-.19,0-.23,0Z"/><path class="cls-4" d="M29.61,30.78l.75-.81-.08-.07c-.13.09-.18.09-.28,0l-1.08-1L30,27.71l1.08,1c.1.09.1.15,0,.29l.08.07.76-.82-.08-.07c-.13.09-.19.1-.29,0L29.19,26c-.1-.1-.11-.15,0-.29l-.07-.07-.76.81.08.07c.13-.09.18-.09.29,0l.87.81-1.09,1.18-.87-.81c-.11-.1-.11-.15,0-.29l-.08-.07-.75.81.08.07c.13-.09.18-.09.28,0l2.39,2.22c.11.1.11.15,0,.29Z"/><path class="cls-4" d="M32.72,27.08l.45-1-.09,0c-.08.11-.14.13-.25.08l-2.26-1.05,2.9-.28,0,0c.08,0,.09.09.05.2l.09,0,.48-1L34,24c-.07.11-.12.11-.23.06l-3-1.4c-.14-.06-.17-.08-.12-.25l-.09,0-.44.94.09,0c.08-.13.13-.13.27-.07l2,.93L30,24.46h-.13l0-.14v0l-.09-.05-.53,1.13.1.05c.06-.11.09-.12.2-.08l3,1.42c.1,0,.13.14.09.28Z"/><path class="cls-4" d="M7.19,14.57,4.72,13.52l.17-.4c.34-.82.83-1,1.73-.66s1.09.88.72,1.76Zm.21,1.1.54-1.29a1.76,1.76,0,0,0-1-2.63A1.84,1.84,0,0,0,5,11.82a2.32,2.32,0,0,0-.69,1L3.8,14.15l.09,0c.1-.12.15-.14.28-.08l3,1.27c.13.06.16.1.13.26Z"/><path class="cls-4" d="M9.3,11.64l1.82-1.88c.09-.1.14-.11.28,0l.07-.08L10.75,9,10.68,9c.09.14.09.19,0,.29L9.5,10.54l-.79-.76.66-.68c.09-.1.15-.12.28,0L9.72,9,9,8.32,9,8.39c.09.13.08.19,0,.29l-.66.68-.7-.68L8.69,7.51c.1-.1.16-.1.29,0l.07-.07-.71-.69-.07.07c.08.14.08.19,0,.29L6.49,8.93,6.56,9c.14-.09.19-.08.29,0L9.2,11.29c.1.09.11.14,0,.28Z"/><path class="cls-4" d="M10.47,5.71l1,2.07c.4.78,1.07.94,2,.48s1.13-1.08.73-1.87L13.19,4.32c-.07-.12,0-.18.07-.28l0-.09-1,.49,0,.09c.15,0,.21,0,.27.11l1.06,2.07c.21.41.08.74-.41,1s-.83.16-1-.25L11.12,5.37c-.06-.12,0-.17.08-.28l0-.09-1,.51,0,.09C10.35,5.57,10.4,5.58,10.47,5.71Z"/><path class="cls-4" d="M16.61,7l1.09-.18,0-.1c-.16,0-.19,0-.21-.18L17,3.66l.91-.15c.13,0,.18,0,.24.15l.1,0-.16-1H18c0,.15,0,.21-.18.23l-2.51.39c-.15,0-.21,0-.24-.14l-.11,0,.16,1,.1,0a.19.19,0,0,1,.19-.22l.87-.14.46,2.92c0,.14,0,.18-.15.24Z"/><path class="cls-4" d="M19.37,6.51l.08,0,.17-.09A4.7,4.7,0,0,0,20.9,7c1,.15,1.68-.28,1.79-1A1.08,1.08,0,0,0,22,4.85c-.79-.4-1.41-.5-1.34-.92,0-.25.31-.4.72-.34s.85.41.83.58l-.07.13.08,0,.72-.83-.07-.06-.16.07A4.06,4.06,0,0,0,21.46,3c-.84-.13-1.44.26-1.54.9s.19.85.8,1.12c.86.39,1.29.51,1.23.91s-.42.5-.94.41-1-.47-1-.66l.05-.13-.08,0Z"/><path class="cls-4" d="M26.44,8.82l.09,0-.19-1.13-.1,0,0,.17c-.11.19-.51.27-.94,0s-.63-1-.23-1.68,1-1,1.55-.71.58.65.5.79l-.1.1.06.07.9-.53-.05-.08h-.15a2.43,2.43,0,0,0-.85-.91,1.83,1.83,0,0,0-2.52.91,1.84,1.84,0,0,0,.57,2.62,3,3,0,0,0,1.41.22Z"/><path class="cls-4" d="M26.84,9.67l.74.81.07-.07c-.07-.14-.07-.18,0-.28l1.09-1,1.07,1.18-1.09,1c-.11.09-.16.09-.29,0l-.08.07.74.82.08-.07c-.08-.14-.07-.19,0-.29l2.43-2.18c.1-.09.15-.09.28,0L32,9.6l-.74-.82-.08.07c.08.14.08.19,0,.28l-.88.8L29.23,8.74,30.11,8c.11-.1.16-.1.29,0l.07-.07-.73-.82-.08.07c.08.14.07.19,0,.29L27.2,9.59c-.1.09-.15.1-.28,0Z"/><path class="cls-4" d="M29.63,13.15l.94,2.44c.05.13,0,.17-.1.26l0,.1.93-.36,0-.09c-.16,0-.2,0-.25-.14l-.61-1.56,1-.4.34.88c.05.14,0,.19-.1.27l0,.1.91-.35,0-.1c-.15,0-.2,0-.25-.13l-.34-.89.92-.35.58,1.51c0,.13,0,.19-.1.27l0,.1.93-.36,0-.09c-.16,0-.21,0-.26-.14l-.91-2.37-.1,0c0,.16,0,.21-.13.26l-3,1.17c-.13,0-.18,0-.27-.1Z"/></svg>