<svg xmlns="http://www.w3.org/2000/svg" viewBox="0 0 37.44 37.44"  xmlns:v="https://vecta.io/nano"><style><![CDATA[.E{fill-rule:evenodd}.F{fill:#ffcb05}.G{fill:#231f20}]]></style><circle cx="18.72" cy="18.72" r="18" fill="#fff"/><g fill="#8ed8f8" class="E"><path d="M21.63 31.05l-.33-1.79-3.03-.55.51 3.07 1.7.29 1.15-1.02m-7.52-8.95l-2.85-.52.13.97.18.96.32 1.13 2.77.48-.55-3.02m1.56 8.8l-.46-2.71-1.88-.33.34.57.45.68.5.64.48.56.39.4.18.19m2.07-5.24l-3.07-.53.54 3.06 3.06.52-.53-3.05m1.27 7.4l-.22-1.28-2.73-.47.31.26.62.51.59.44.58.36.57.34.28-.16m-5.95-17.1l-1.67-.28-.2 1.69-.06.73.01.5 2.44.42-.52-3.06m2.86-.41h-2.95l.09.41 3.06.53-.2-.94m.73 4l-3.07-.53.54 3.06 3.06.53-.53-3.06"/><path d="M19.18 17.02l-3.06-.53.53 3.06 3.06.53-.53-3.06"/><path d="M21.89 15.55h-2.96l.25 1.47 3.06.53-.35-2m-1.64 7.61l-3.05-.54.52 3.05 3.06.53-.53-3.04m2.53-2.54l-3.06-.53.53 3.07 3.07.52-.54-3.06m2.54-2.53l-3.06-.52.52 3.05 3.07.53-.53-3.06m.95-.68l-.1-.84-.14-1.02h-1.14l.43 2.54.98.17-.03-.85m-2.21 10.6l-.22-1.28-3.06-.53.53 3.06 1.69.29 1.06-1.54m.97-1.9l.33-.87.35-1.15-2.39-.41.52 3.05.83.15.36-.77m.82-4.96l.23 1.24.15-1.19-.38-.05"/></g><path d="M26,15.55c2.09,13.19-7.31,17.67-7.31,17.67s-9.39-4.5-7.31-17.67H26m.73-.88c2.3,14.51-8,19.44-8,19.44s-10.33-5-8-19.44Z" class="E F"/><path d="M26 15.55h.09a23.61 23.61 0 0 1 .3 3.71c0 10.39-7.65 14-7.66 14h0S11 29.62 11 19.23a23.28 23.28 0 0 1 .3-3.69v-.08h14.81v.08H26v.09H11.41v-.09h.08a24.37 24.37 0 0 0-.3 3.67A16.08 16.08 0 0 0 15 30.05a14.86 14.86 0 0 0 2.6 2.37c.36.25.65.43.86.55a2.77 2.77 0 0 0 .32.17v.08-.08A3.33 3.33 0 0 0 19 33c1.44-.83 7.24-4.71 7.24-13.72a24.62 24.62 0 0 0-.3-3.69H26zm.73-.88h.09a26.2 26.2 0 0 1 .33 4.08c0 11.43-8.41 15.45-8.42 15.45h0s-8.42-4-8.42-15.46a26 26 0 0 1 .33-4.07v-.07h16.2v.07h-.09v.08H10.68v-.08h.08a25.62 25.62 0 0 0-.33 4 17.69 17.69 0 0 0 4.17 11.9 15.82 15.82 0 0 0 2.86 2.61 10.47 10.47 0 0 0 .95.61c.22.13.35.19.35.19v.08-.08l.36-.19c1.59-.92 8-5.19 8-15.11a27.1 27.1 0 0 0-.33-4.05h.08z" class="G"/><path d="M25.47,11.06s2.1-2,.43-3.81a3.5,3.5,0,0,0-3.49-.7,1.37,1.37,0,0,1,.79.79,5.23,5.23,0,0,1,.82.09,1.65,1.65,0,0,1,1.33,1.48,2.1,2.1,0,0,1-.67,1.36c-.12.08-.73.43-.28.74s.07.38-.06.52,0,1,1.13-.4v-.07" class="E F"/><g class="G"><path d="M25.47 11.06l-.06-.06a1.64 1.64 0 0 0 .17-.18 3.44 3.44 0 0 0 .88-2.05 2.08 2.08 0 0 0-.62-1.46h0a2.9 2.9 0 0 0-2.16-.87 4.05 4.05 0 0 0-.89.1 3.08 3.08 0 0 0-.36.09v-.16a1.44 1.44 0 0 1 .84.84h-.17v-.08h.06a7.29 7.29 0 0 0 .82.09 1.73 1.73 0 0 1 1.4 1.57 2.17 2.17 0 0 1-.69 1.43h0a1.58 1.58 0 0 0-.25.17.43.43 0 0 0-.16.24c0 .05 0 .11.13.18h0c.15.1.24.19.24.31a.28.28 0 0 1-.13.22l-.15.11v.18l.1.05c.11 0 .41-.15.88-.74l.06.05h-.08V11l.06.06h.09v.1c-.48.6-.78.8-1 .8a.27.27 0 0 1-.24-.12l-.07-.22.06-.18.06.06-.06-.06.17-.14.07-.08s0-.07-.17-.17h0a.4.4 0 0 1-.2-.32.5.5 0 0 1 .22-.37 1.54 1.54 0 0 1 .27-.19v.07l-.05-.06.09-.1a2 2 0 0 0 .54-1.2A1.56 1.56 0 0 0 24 7.51l-.8-.09v-.08h0v.07-.07h.08v.07-.07h.08-.17v-.07a1.44 1.44 0 0 0-.72-.66v-.14a4.26 4.26 0 0 1 1.3-.2 3.05 3.05 0 0 1 2.23.92h0a2.26 2.26 0 0 1 .67 1.58 3.79 3.79 0 0 1-1.11 2.36l-.06-.07z"/><path d="M25.41 11a1.64 1.64 0 0 0 .17-.18 3.44 3.44 0 0 0 .88-2.05 2.08 2.08 0 0 0-.62-1.46h0a2.9 2.9 0 0 0-2.16-.87 4.05 4.05 0 0 0-.89.1 3.08 3.08 0 0 0-.36.09v-.16a1.44 1.44 0 0 1 .84.84h-.17v-.08h.06a7.29 7.29 0 0 0 .82.09 1.73 1.73 0 0 1 1.4 1.57 2.17 2.17 0 0 1-.69 1.43h0a1.58 1.58 0 0 0-.25.17.43.43 0 0 0-.16.24c0 .05 0 .11.13.18h0c.15.1.24.19.24.31a.28.28 0 0 1-.13.22l-.15.11v.18l.1.05c.11 0 .41-.15.88-.74l.13.11c-.48.6-.78.8-1 .8a.27.27 0 0 1-.24-.12l-.07-.22.06-.18.06.06-.06-.06.17-.14.07-.08s0-.07-.17-.17h0a.4.4 0 0 1-.2-.32.5.5 0 0 1 .22-.37 1.54 1.54 0 0 1 .27-.19v.07l-.05-.06.09-.1a2 2 0 0 0 .54-1.2A1.56 1.56 0 0 0 24 7.51l-.8-.09v-.08h0v.07-.07h.08v.07-.07h.08-.17v-.07a1.44 1.44 0 0 0-.72-.66v-.14a4.26 4.26 0 0 1 1.3-.2 3.05 3.05 0 0 1 2.23.92h0a2.26 2.26 0 0 1 .67 1.58 3.79 3.79 0 0 1-1.11 2.36z"/><path d="M24.82 10.37a3.07 3.07 0 0 0 .38-.46 1.77 1.77 0 0 0 .38-1h0a1.67 1.67 0 0 0-1.38-1.54h0a3.42 3.42 0 0 0-.76-.09 1.85 1.85 0 0 0-.3 0v-.17a2.4 2.4 0 0 1 .33 0 3.8 3.8 0 0 1 .8.09h0a1.86 1.86 0 0 1 1.52 1.71h0a2.73 2.73 0 0 1-.82 1.59z"/></g><path d="M23.39,9c0-.18-.37,1.14,0,1.66,0,0-1.27.27-1.4.52a8.92,8.92,0,0,1-1.14-.71,9.07,9.07,0,0,0,.64-1c.23-.45.72-1.45.31-2a3.06,3.06,0,0,0-2.44-.69l.09-.54s2.17-.47,3.35.5A2.56,2.56,0,0,1,23.39,9" class="E F"/><g class="G"><path d="M23.39 9h-.08.08 0v.09l-.08-.06h.08V9l.07.06h-.07V9l.07.06L23.4 9h.07 0s0 .15-.08.33a3.16 3.16 0 0 0-.07.65 1.08 1.08 0 0 0 .14.61l.08.11h-.13l-.65.16a4.05 4.05 0 0 0-.46.17.59.59 0 0 0-.23.14v.08h-.08a9.19 9.19 0 0 1-1.16-.73l-.07-.05.06-.06a9.74 9.74 0 0 0 .63-1h.08a3.45 3.45 0 0 0 .38-1.42.79.79 0 0 0-.14-.49l.07-.06-.07.06a2.8 2.8 0 0 0-2-.69h-.5l.12-.71h.06a6.61 6.61 0 0 1 1.21-.11 3.58 3.58 0 0 1 2.22.63l-.06.07.05-.07a2.5 2.5 0 0 1 .68 1.8 3.05 3.05 0 0 1-.05.52h-.17a2.77 2.77 0 0 0 0-.49 2.31 2.31 0 0 0-.6-1.66h0a3.35 3.35 0 0 0-2.11-.6 7.74 7.74 0 0 0-1.18.11h0 .08l-.09.54h-.08v-.09a2.6 2.6 0 0 1 .4 0 3 3 0 0 1 2.12.76h0a1 1 0 0 1 .17.6 3.59 3.59 0 0 1-.47 1.5h0a9.6 9.6 0 0 1-.65 1l-.07-.05v-.07a11.42 11.42 0 0 0 1.13.71v.07h-.07a.58.58 0 0 1 .31-.22 7 7 0 0 1 1.15-.34v.08l-.07.05a1.19 1.19 0 0 1-.17-.71 3.63 3.63 0 0 1 .07-.71 2.07 2.07 0 0 0 .06-.24V9h.06l.09.06v.05h-.17z"/><path d="M21.89 10.89a1.61 1.61 0 0 1-.63-.39l-.08-.06.07-.07a1.75 1.75 0 0 0 .23-.24 2.05 2.05 0 0 0 .36-.57h.08a3.86 3.86 0 0 0 .32-1.34 1.2 1.2 0 0 0-.19-.67h0a2 2 0 0 0-1.86-.85 5.67 5.67 0 0 0-.79.06v-.17a6 6 0 0 1 .81-.06 2.17 2.17 0 0 1 2 .92h0a1.43 1.43 0 0 1 .23.77 4.08 4.08 0 0 1-.44 1.4h0a3 3 0 0 1-.63.87l-.06-.06.06-.07a2.24 2.24 0 0 0 .44.3l.09.05z"/></g><path d="M12,11.08s-2.1-2-.43-3.8A3.44,3.44,0,0,1,15,6.59a1.31,1.31,0,0,0-.79.78,3.35,3.35,0,0,0-.82.09A1.65,1.65,0,0,0,12.09,9a2.2,2.2,0,0,0,.67,1.36c.12.07.73.41.3.72s-.09.39,0,.52,0,1-1.12-.4v-.07" class="E F"/><g class="G"><path d="M12 11.08l-.06.06A3.71 3.71 0 0 1 10.8 8.8a2.26 2.26 0 0 1 .67-1.58h0a3.07 3.07 0 0 1 2.29-.92 4.26 4.26 0 0 1 1.3.2v.16a1.45 1.45 0 0 0-.61.48l-.11.18v.07h-.17l.03.07v-.07h.08l-.05.07v-.05.07.02a6.6 6.6 0 0 0-.78.09h0A1.55 1.55 0 0 0 12.18 9a1.72 1.72 0 0 0 .32.91 2.76 2.76 0 0 0 .22.28l.09.11-.05.06v-.08a2.41 2.41 0 0 1 .27.19.51.51 0 0 1 .23.37.41.41 0 0 1-.19.31h0c-.16.1-.19.17-.18.19l.06.07.17.12.06.19-.07.22a.27.27 0 0 1-.23.12c-.24 0-.53-.21-1-.8h0v-.09h.09l-.06.06.06-.06h.08v.07h-.09l.07-.05c.46.59.75.75.87.74l.09-.05v-.17l-.14-.11a.32.32 0 0 1-.14-.21c0-.13.09-.22.26-.33l.05.07L13 11c.1-.07.11-.12.11-.17s-.06-.16-.16-.24a1 1 0 0 0-.25-.16h0A2.24 2.24 0 0 1 12 9a1.72 1.72 0 0 1 1.41-1.57h0a7.88 7.88 0 0 1 .8-.1h.08v.07h-.17a1.36 1.36 0 0 1 .88-.89v.16a2.81 2.81 0 0 0-.35-.1 4.13 4.13 0 0 0-.89-.1 2.9 2.9 0 0 0-2.16.87h0A2.08 2.08 0 0 0 11 8.8a3 3 0 0 0 .52 1.56 4 4 0 0 0 .36.48A1.64 1.64 0 0 0 12 11h0z"/><path d="M11.91 11.14A3.71 3.71 0 0 1 10.8 8.8a2.26 2.26 0 0 1 .67-1.58h0a3.07 3.07 0 0 1 2.29-.92 4.26 4.26 0 0 1 1.3.2v.16a1.45 1.45 0 0 0-.61.48l-.11.18v.07h-.17l.03.07v-.07h.08l-.05.07v-.05.07.02a6.6 6.6 0 0 0-.78.09h0A1.55 1.55 0 0 0 12.18 9a1.72 1.72 0 0 0 .32.91 2.76 2.76 0 0 0 .22.28l.09.11-.05.06v-.08a2.41 2.41 0 0 1 .27.19.51.51 0 0 1 .23.37.41.41 0 0 1-.19.31h0c-.16.1-.19.17-.18.19l.06.07.17.12.06.19-.07.22a.27.27 0 0 1-.23.12c-.24 0-.53-.21-1-.8l.13-.11c.46.59.75.75.87.74l.09-.05v-.17l-.14-.11a.32.32 0 0 1-.14-.21c0-.13.09-.22.26-.33l.05.07V11c.1-.07.11-.12.11-.17s-.06-.16-.16-.24a1 1 0 0 0-.25-.16h0A2.24 2.24 0 0 1 12 9a1.72 1.72 0 0 1 1.41-1.57h0a7.88 7.88 0 0 1 .8-.1h.08v.07h-.17a1.36 1.36 0 0 1 .88-.89v.16a2.81 2.81 0 0 0-.35-.1 4.13 4.13 0 0 0-.89-.1 2.9 2.9 0 0 0-2.16.87h0A2.08 2.08 0 0 0 11 8.8a3 3 0 0 0 .52 1.56 4 4 0 0 0 .36.48A1.64 1.64 0 0 0 12 11z"/><path d="M12.51 10.53A2.78 2.78 0 0 1 11.68 9h0a1.88 1.88 0 0 1 1.52-1.78h0a4.29 4.29 0 0 1 .8-.09h.29v.18a1.52 1.52 0 0 0-.27 0 3.87 3.87 0 0 0-.8.09v-.09.09A1.68 1.68 0 0 0 11.86 9h0a1.9 1.9 0 0 0 .38 1 3.61 3.61 0 0 0 .4.47z"/></g><path d="M14.05 9.05c0-.17.37 1.17 0 1.67 0 0 1.27.27 1.4.54a9.3 9.3 0 0 0 1.15-.75 9.62 9.62 0 0 1-.6-.95c-.22-.45-.7-1.45-.29-2a3.1 3.1 0 0 1 2.42-.68L18 6.32s-2.17-.47-3.35.5a2.55 2.55 0 0 0-.59 2.23" class="E F"/><g class="G"><path d="M14.05 9.05h-.09V9h.15a3.94 3.94 0 0 1 .16 1 1.16 1.16 0 0 1-.17.71h-.07v-.08l.66.17a4.65 4.65 0 0 1 .49.17.6.6 0 0 1 .31.24h-.07v-.08a8 8 0 0 0 1.14-.74l.05.07-.06.05a8.48 8.48 0 0 1-.66-1h0a4.09 4.09 0 0 1-.46-1.5 1 1 0 0 1 .18-.62h0a3 3 0 0 1 2.1-.74 2.6 2.6 0 0 1 .4 0v.08h-.08l-.09-.54H18v.08a6.16 6.16 0 0 0-1.17-.11 3.35 3.35 0 0 0-2.11.6h0a2.31 2.31 0 0 0-.6 1.66 2.77 2.77 0 0 0 0 .49h-.17a3.15 3.15 0 0 1-.05-.52 2.5 2.5 0 0 1 .68-1.8l.05.07-.06-.07a3.56 3.56 0 0 1 2.22-.63 6.61 6.61 0 0 1 1.21.27h.06l.12.72h-.12a2.36 2.36 0 0 0-.38 0 2.75 2.75 0 0 0-2 .67l-.07-.06h.07a.9.9 0 0 0-.14.52A3.6 3.6 0 0 0 16 9.52h-.08l.08-.01c.23.41.64.94.64 1l.05.06-.06.05a8.5 8.5 0 0 1-1.16.76l-.08.05v-.08a.55.55 0 0 0-.23-.16 7 7 0 0 0-1.16-.38h-.13l.08-.11a1.06 1.06 0 0 0 .14-.61 3.52 3.52 0 0 0-.09-.71v-.29h.07.01L14.05 9v.09h-.07l.07-.09h.08l-.08.07V9h.08-.17z"/><path d="M15.52 10.74h0a2.32 2.32 0 0 0 .53-.35l.06.06-.06.07a2.63 2.63 0 0 1-.62-.88h.09A3.8 3.8 0 0 1 15 8.22a1.38 1.38 0 0 1 .22-.75h0a2.17 2.17 0 0 1 2-.92 5.7 5.7 0 0 1 .8.06v.17a5.54 5.54 0 0 0-.78-.06 2 2 0 0 0-1.87.84h-.07.07a1.27 1.27 0 0 0-.18.66 3.76 3.76 0 0 0 .41 1.36h0a2 2 0 0 0 .34.56 1.56 1.56 0 0 0 .23.25l.07.07-.08.06c-.43.35-.6.39-.63.39z"/></g><path d="M18.76,11.08l1.3-.64c-.38-.29-.51-1.64-.51-2.24a4.6,4.6,0,0,1,.42-2,9.83,9.83,0,0,0-1.21-.18,6.66,6.66,0,0,0-1.21.16,5.33,5.33,0,0,1,.46,2,4.08,4.08,0,0,1-.61,2.24l1.36.64" class="E F"/><g class="G"><path d="M18.76 11.08V11l1.24-.64v.14a1.77 1.77 0 0 1-.42-1.05 7.74 7.74 0 0 1-.11-1.25 4.85 4.85 0 0 1 .42-2h.08v.08a4.49 4.49 0 0 0-.69-.12l-.49-.05h-.5a3.67 3.67 0 0 0-.69.12v-.08h.07a5.22 5.22 0 0 1 .48 2v.05a6 6 0 0 1-.17 1.26 2 2 0 0 1-.48 1l-.05-.06v-.08l1.35.68v.08V11v.16l-1.5-.71.12-.08a2 2 0 0 0 .41-.95 5.6 5.6 0 0 0 .16-1.22h0v-.06a4.7 4.7 0 0 0-.22-1.29l-.23-.61v-.08h.08A6.64 6.64 0 0 1 18.76 6h0a10.21 10.21 0 0 1 1.24.14h.1l-.1.13v.13a5 5 0 0 0-.34 1.8 7.41 7.41 0 0 0 .11 1.22 1.76 1.76 0 0 0 .36.95l.11.08-1.45.73z"/><path d="M18.58 6.11l-.06 1.59v.62l-.06 1.78v.35h-.08l.05-.07.34.23.31-.24.05.07h-.09a4.73 4.73 0 0 0 0-.65l-.07-1.67v-.24c0-.86-.09-1.77-.09-1.77h.17l.09 1.79v.23l.07 1.67q0 .33 0 .66h0l-.43.35-.49-.33v-.36l.07-1.78V7.7l.06-1.61z"/></g><path d="M18.82 13.05h5.29a12.51 12.51 0 0 1 .72-1.36l-6.07-.27-5.91.27a11.09 11.09 0 0 1 .7 1.36c1.81-.09 5.27 0 5.27 0" class="E F"/><path d="M18.82 13.05V13h5.29v.09L24 13a13.14 13.14 0 0 1 .73-1.37h.07v.09l-2.3-.14-3.76-.13-3.7.13-2.21.14v-.09h.07a10.12 10.12 0 0 1 .7 1.38h-.08V13h5.28v.18h-5.33v-.06a10.08 10.08 0 0 0-.69-1.34l-.08-.13h.15l5.92-.27 6.07.27H25l-.08.13a10.4 10.4 0 0 0-.71 1.35v.05h-5.35z" class="G"/><path d="M18.73 12.8h5.42a5.92 5.92 0 0 1 .52-.9l-5.94-.25-5.69.27a2.64 2.64 0 0 1 .41.88h5.28" class="E F"/><path d="M18.73 12.8v-.09h5.42v.09h-.08a7 7 0 0 1 .53-.91l.07.05V12l-2.23-.12-3.7-.13-3.59.13-2.1.12v-.09l.07-.05a2.81 2.81 0 0 1 .43.91h-.09v-.09h5.28v.18H13.4v-.07a2.09 2.09 0 0 0-.08-.25A3.3 3.3 0 0 0 13 12l-.08-.12h.15l5.69-.26 5.94.25h.16l-.09.12a7.35 7.35 0 0 0-.52.89v.05h-5.47z" class="G"/><path d="M18.76 11.42l6.07.27a1.09 1.09 0 0 1 .46-.61 1.65 1.65 0 0 1-.91.27c-.43 0-.38-.22-.52-.41a1.22 1.22 0 0 1-.88.32 1 1 0 0 1-.86-.45 1.12 1.12 0 0 1-.92.36 1 1 0 0 1-.82-.36 1.1 1.1 0 0 1-1.62 0 1.12 1.12 0 0 1-.75.37 1.14 1.14 0 0 1-.84-.39 1 1 0 0 1-.84.41 1.1 1.1 0 0 1-.9-.36 1 1 0 0 1-.88.45 1.22 1.22 0 0 1-.88-.32c-.12.19-.09.37-.5.41a1.33 1.33 0 0 1-.92-.27 2.53 2.53 0 0 1 .6.61l5.91-.27" class="E F"/><path d="M18.76 11.42v-.09l6.07.27v.09h-.09a1.18 1.18 0 0 1 .51-.66v.07l.05.07a1.82 1.82 0 0 1-.88.29h-.09a.58.58 0 0 1-.43-.17c-.07-.1-.09-.19-.15-.27l.07-.05.06.06a1.34 1.34 0 0 1-.84.35H23a1.11 1.11 0 0 1-.92-.48l.07-.06h.07a1.21 1.21 0 0 1-.94.4h-.08a1.1 1.1 0 0 1-.89-.4h.07l.06.06a1.26 1.26 0 0 1-.88.37h0a1.27 1.27 0 0 1-.81-.41l.06-.05.07.05a1.2 1.2 0 0 1-.81.41h0a1.21 1.21 0 0 1-.88-.43l.07-.05.07.05a1.09 1.09 0 0 1-.91.45h0a1.17 1.17 0 0 1-.92-.4h.07l.07.06a1.11 1.11 0 0 1-.95.48h0-.11a1.34 1.34 0 0 1-.84-.35l.06-.06h.07a2.43 2.43 0 0 1-.14.28.57.57 0 0 1-.42.17h0-.15a1.48 1.48 0 0 1-.83-.3l.1-.14a2.47 2.47 0 0 1 .62.63h-.07v-.06l5.92-.27v.18l-3.66.13-2.25.14a1.2 1.2 0 0 0-.15-.2 2.33 2.33 0 0 0-.42-.39l.05-.07.06-.07a1.22 1.22 0 0 0 .67.22h.13c.2 0 .26-.06.3-.11s.07-.15.14-.26l.06-.09.07.08a1.1 1.1 0 0 0 .67.26h.09a.91.91 0 0 0 .82-.41l.07-.09.07.09a1 1 0 0 0 .74.28h0a.93.93 0 0 0 .78-.37l.06-.1.08.09.05.06a1 1 0 0 0 .69.31h0a1 1 0 0 0 .7-.34l.06-.08.07.08a1.08 1.08 0 0 0 .69.34h0a1.05 1.05 0 0 0 .55-.16l.15-.11.06-.05.07-.07.06.08a.9.9 0 0 0 .76.32h0a1.15 1.15 0 0 0 .61-.16l.2-.06.07-.09.07.09a.88.88 0 0 0 .8.41h.09a1.1 1.1 0 0 0 .51-.15l.16-.11h.05l.07-.08.06.09c.08.11.11.21.15.26s.1.09.31.11h.07a1.53 1.53 0 0 0 .54-.12l.25-.13.09.14a1.18 1.18 0 0 0-.35.38l-.06.13v.12h-.08l-2.32-.14-3.74-.13z" class="G"/><path d="M18.5 5.1h.57v-.59h.57v-.59h-.57v-.59h-.57v.59h-.59v.59h.59v.59" class="E F"/><path d="M18.5 5.1v-.09h.48v-.59h.58V4h-.58v-.59h-.4V4h-.59v.42h.59v.68h-.08v-.09.09h-.09v-.5h-.59v-.77h.59v-.59h.75v.59h.57v.77h-.57v.59h-.75V5.1h.09z" class="G"/><path d="M18.71,6.8a.91.91,0,1,0,0-1.81.91.91,0,0,0,0,1.81" class="E F"/><g class="G"><path d="M18.71,6.8V6.71a.82.82,0,1,0,0-1.63.82.82,0,0,0,0,1.63v.18a1,1,0,0,1-1-1,1,1,0,1,1,1,1Z"/><path d="M17.79 5.92a2.16 2.16 0 0 1 .9-.28 2.09 2.09 0 0 1 .93.32l-.09.14a2.6 2.6 0 0 0-.29-.1 1.42 1.42 0 0 0-.55-.15 1.64 1.64 0 0 0-.54.13 1.6 1.6 0 0 0-.27.13z"/></g><path d="M26.76 16.34l.01.1.08.11.1.06.12.02h.23l.2.02.19.06.14.06.09.06.1.1.15.18.21-2.22-1.51.54-.11.91" class="E F"/><path d="M26.76 16.34l.08-.01.02.08.05.07.07.05.1.02h.23l.2.02h.01l.19.06h.01l.14.05.02.01.09.07.11.11h.01l.01.02.18-1.87-1.33.48-.11.85-.08-.01.08-.01-.08.01-.09-.01.11-.91.06-.07 1.51-.54.12.09-.22 2.22-.15.04-.14-.17-.09-.1-.08-.05-.13-.05-.18-.05-.18-.02h-.25l-.12-.03-.02-.01-.11-.06-.02-.02-.08-.11-.01-.04-.02-.1v-.02l.09.01z" class="G"/><path d="M28.74 14.98l-.02.15-.06.11-.08.08-.16.11-.17.08-.16.06-.18.05-.5.12-.21.02-.17.06-.12.08-.07.12-.05.15-.03.17-.03-1.86 1.83-.54.18 1.04" class="E F"/><path d="M28.74 14.98l.08.01-.01.15-.01.03-.06.11-.1.1-.01.02-.16.1-.01.01-.17.08h-.01l-.17.06-.17.05h-.01l-.5.12h-.01l-.2.03-.15.05-.09.06-.06.1-.04.13-.03.16-.17-.01-.04-1.86.06-.08 1.84-.54.11.07.17 1.03v.03l-.08-.01-.09.01-.16-.94-1.68.49.04 1.79-.09.01-.08-.02.03-.17v-.01l.04-.14.01-.02.1-.15.12-.08.02-.01.17-.06h.02l.2-.03.5-.12.17-.05.16-.05.16-.08.14-.09.07-.08.05-.08.01-.13.09.01-.09.01.09-.01z" class="G"/><path d="M10.69 16.34l-.02.1-.07.1-.11.07-.12.02h-.23l-.19.02-.2.05-.14.06-.09.06-.1.1-.14.19-.22-2.22 1.51.54.12.91" class="E F"/><path d="M10.69 16.34l.08.01-.02.1-.01.03-.07.11-.03.03-.1.06-.03.01-.13.02-.01.01h-.22l-.19.01-.18.06-.13.05-.08.05-.09.09-.13.18-.16-.05-.21-2.21.11-.09 1.51.54.06.07.11.91v.02l-.08-.01-.09.01-.11-.86-1.33-.47.18 1.86.13-.13.09-.06.02-.01.14-.05.01-.01.19-.05.02-.01.19-.01.01-.01h.22l.1-.02.08-.04.05-.08.01-.08.09.02-.09.01.09-.01z" class="G"/><path d="M8.71 14.97l.01.15.06.11.09.09.15.1.17.08.17.06.17.05.5.12.22.03.16.05.13.09.07.12.04.14.03.17.04-1.86-1.84-.53-.17 1.03" class="E F"/><path d="M8.71 14.97l.08-.01.02.14.04.08.07.07.15.1.15.07.16.06.17.05.5.11.21.03h.02l.16.06.02.01.13.09.02.03.07.11.01.02.04.15.04.18-.09.01h-.08l.03-1.79-1.68-.49-.16.94-.08-.02.08-.01-.08.01-.09-.01.18-1.04.11-.07 1.83.54.07.08-.04 1.86-.17.02-.03-.17-.04-.13-.06-.09-.1-.07-.14-.05-.21-.02-.01-.01-.5-.11-.18-.06-.17-.05-.01-.01-.17-.08h-.01l-.15-.11-.02-.01-.08-.09-.01-.02-.06-.1-.01-.04-.02-.15v-.02l.09.01z" class="G"/><path d="M8.7 15.01l.08-.23.1-.13.11-.09.17-.07h.22l.31.04.33.08.39.1.37.12.38.13.39.08.49.06.43.01.84.02h11.33l.38-.02.39-.03.44-.08.39-.09.4-.09.39-.12.33-.07.32-.1.23-.04.19-.01.15.01.15.04.11.07.11.09.07.14.05.23v-2.79l-.03-.21-.07-.18-.07-.1-.11-.1-.15-.08-.15-.03h-.19l-.19.02-.22.04-.28.08-.33.1-.26.11-.33.11-.33.09-.37.08-.44.07-.38.04-.31.01H12.71l-.41-.03-.45-.05-.42-.08-.54-.12-.55-.16-.35-.1-.31-.09-.2-.03h-.19l-.18.05-.13.07-.12.1-.09.15-.04.13-.03.15v2.7" class="E F"/><g class="G"><path d="M8.7 15.01l-.08-.02.09-.27.1-.12.01-.01.11-.1.03-.01.17-.07h.26l.31.04h.01l.33.07.39.1.01.01.36.12-.02.08.02-.08.39.12.37.09.49.06.42.01.84.01h11.33l.37-.01.38-.04.44-.08.39-.08.39-.09.39-.12h.01l.33-.07.31-.1h.01l.23-.04h.01l.2-.01h.01l.15.01h.01l.15.04.02.01.12.07.01.01.1.08.02.03.08.14v.02l.05.23-.08.02h-.09v-2.79l-.02-.19-.06-.15-.07-.09-.09-.09-.13-.07-.13-.03h-.17l-.19.02-.21.04-.27.08-.33.1-.26.11h-.01l-.32.11-.33.09h-.01l-.37.09-.45.06v.01l-.38.03h-.01l-.31.02H12.71l-.41-.04h-.01l-.45-.05h-.01l-.42-.07-.54-.13h-.01l-.55-.16-.35-.1-.3-.09-.19-.02H9.3l-.16.04-.11.06-.1.09-.08.12-.04.12-.02.14v2.69H8.7l-.08-.02.08.02h-.08l-.01-2.7v-.01l.03-.15v-.01l.04-.14.02-.02.09-.15.01-.01.12-.11.02-.01.13-.07.02-.01.18-.04.02-.01h.19l.01.01.2.02h.01l.31.09h.01l.34.11-.02.08.02-.08.55.15.54.13.41.07.45.05.41.03h11.81l.3-.01.38-.04.44-.06.36-.09.33-.09.32-.1.26-.11h.01l.32-.11h.01l.28-.08h.01l.21-.04h.01l.19-.02h.22l.14.04h.03l.15.08.02.01.11.11v.01l.08.1.02.02.06.18.01.01.03.22v2.8l-.17.02-.05-.22-.06-.12-.09-.07-.1-.06-.12-.03-.14-.01-.19.01-.21.04-.31.09-.01.01-.33.07-.39.11-.4.1-.4.08-.44.08h-.01l-.38.04h-.01l-.38.02H13.31l-1.27-.03-.5-.06h-.01l-.39-.09-.39-.12v-.01l-.37-.12-.38-.1-.32-.07-.3-.04h-.21l-.14.05-.09.08-.08.11-.07.22-.17-.03h.08z"/><path d="M27.6 13.78h.18l.1.16v.18l-.16.1h-.19l-.09-.17v-.17l.16-.1m-1.6.69h.17a.46.46 0 0 0 .3-.19.55.55 0 0 0 0-.39.53.53 0 0 0-.11-.24l-.18-.11a.59.59 0 0 0-.26 0h-.15l.09.38.09.39zm-.24-1.06h.07a.57.57 0 0 0 .34-.17.4.4 0 0 0 0-.31.32.32 0 0 0-.14-.23.44.44 0 0 0-.29 0l-.17.05q.11.46.12.57zm-.29 1.36v-.07l.11-.12c0-.14-.08-.45-.19-.92l-.18-.71-.07-.13a.62.62 0 0 0-.23 0v-.12l.29-.06.22-.05.29-.07.27-.07a.83.83 0 0 1 .5 0 .37.37 0 0 1 .21.27.45.45 0 0 1-.06.36 1.06 1.06 0 0 1-.36.27h0a1.31 1.31 0 0 1 .39 0l.21.13a.51.51 0 0 1 .13.24.56.56 0 0 1 0 .36.87.87 0 0 1-.23.31 1.36 1.36 0 0 1-.48.2h-.39zm-.64-.42l.17.07.08.17-.06.17-.17.08-.18-.07-.08-.17.07-.17zm-1.73 0h.11a1 1 0 0 0 0 .22l.07.08.15.08h.2a.43.43 0 0 0 .28-.09.33.33 0 0 0 .1-.23L24 14.2a.45.45 0 0 0-.26-.1 1.3 1.3 0 0 1-.39-.09l-.16-.14a.48.48 0 0 1-.06-.24.53.53 0 0 1 .16-.39.75.75 0 0 1 .52-.16h.25l.21.07v.14a1.1 1.1 0 0 0 0 .21h-.11a1.37 1.37 0 0 0 0-.21l-.16-.03h-.21a.34.34 0 0 0-.26.08l-.1.21v.13l.11.09a2.16 2.16 0 0 0 .29.06 1.24 1.24 0 0 1 .27.06l.18.14a.49.49 0 0 1 .06.25.54.54 0 0 1-.19.43.81.81 0 0 1-.55.17 1.12 1.12 0 0 1-.27 0l-.26-.09v-.16a1.02 1.02 0 0 0 .05-.33zm-1.43.52v-.1h.2v-1.38h-.46v.22h-.1v-.4h1.58q0 .16 0 .39h-.1v-.22h-.39v1.42h.19v.1h-.81zm-2.11-.64h.13a1 1 0 0 0 0 .26l.09.1.19.11h.24a.5.5 0 0 0 .35-.12.35.35 0 0 0 .13-.28.3.3 0 0 0-.09-.24.54.54 0 0 0-.33-.12 2 2 0 0 1-.48-.12l-.2-.18a.55.55 0 0 1-.08-.29.64.64 0 0 1 .21-.49.89.89 0 0 1 .64-.2 1.42 1.42 0 0 1 .31 0 1.09 1.09 0 0 1 .28.08h0L21 13a1.47 1.47 0 0 0 0 .27h-.13a1.2 1.2 0 0 0 0-.26l-.15-.11a.54.54 0 0 0-.27-.06.46.46 0 0 0-.32.11.31.31 0 0 0-.12.26l.05.17.13.11.37.07a1.53 1.53 0 0 1 .34.08.47.47 0 0 1 .23.18.57.57 0 0 1 .07.31.71.71 0 0 1-.24.54 1 1 0 0 1-.68.21 1.9 1.9 0 0 1-.35 0 1.66 1.66 0 0 1-.32-.13v-.19c-.04-.14-.03-.25-.03-.38zm-.61.18l.17.07.07.18-.07.17-.17.07-.17-.07-.08-.17.08-.17zm-1.58.46v-.1h.18v-.33a.78.78 0 0 0 0-.21 2.74 2.74 0 0 0-.18-.32l-.25-.36-.12-.28h-.11v-.09l.4-.09.11.07a1.74 1.74 0 0 1 .17.24 5.84 5.84 0 0 1 .28.53l.1-.17.37-.64h.19v.06a4.19 4.19 0 0 0-.24.35l-.31.51a.77.77 0 0 0 0 .18v.49h.19v.1h-.81zm-1.55-1.29l-.26.62h.52zM15 14.71h.15l.05-.09a4.34 4.34 0 0 0 .19-.44l.44-1.06H16l.55 1.31a2 2 0 0 0 .13.28h.16v.1h-.74v-.1h.17l-.05-.16-.08-.2h-.64v.14l-.05.17h.17v.1H15zm-1.34-.06h.17a.43.43 0 0 0 .33-.12.53.53 0 0 0 .12-.37.63.63 0 0 0-.05-.26l-.15-.15a.6.6 0 0 0-.26 0h-.16v.92zm0-1.09h.08a.56.56 0 0 0 .36-.09.37.37 0 0 0 .11-.29.33.33 0 0 0-.09-.26.41.41 0 0 0-.28-.08h-.14v.57zm-.59 1.26v-.07l.14-.1v-1.8a.43.43 0 0 0-.23 0v-.13h1.1a.77.77 0 0 1 .48.12.36.36 0 0 1 .15.31.41.41 0 0 1-.15.33.74.74 0 0 1-.41.18h0a.9.9 0 0 1 .38.08l.18.17a.48.48 0 0 1 .07.26.66.66 0 0 1-.11.35.62.62 0 0 1-.29.24 1.25 1.25 0 0 1-.52.09h-.76zm-.61-.48l.17.07.06.18-.07.17-.17.07-.18-.08-.06-.17.07-.17zm-2.64-.11v-.12h.21l.05-.08a3.32 3.32 0 0 0 .15-.42l.17-.55c0-.18.1-.32.12-.44a.85.85 0 0 0 .05-.21h0a.78.78 0 0 0-.2-.09v-.12l.47.15.47.14v.12h-.22l-.06.09c0 .06-.1.3-.24.73h0a5.22 5.22 0 0 0 .55-.27l.57-.33v-.11l.27.09.27.07v.13h-.22l-.19.06-.47.22-.33.17.08.2.37.84a3.06 3.06 0 0 0 .15.31l.13.06v.12h-.08l-.26-.09-.27-.07-.25-.61-.27-.58h-.06v.11l-.13.45a2 2 0 0 0-.05.23h0a.63.63 0 0 0 .2.09v.12l-.47-.15z"/></g></svg>