<svg id="Layer_1" data-name="Layer 1" xmlns="http://www.w3.org/2000/svg" viewBox="0 0 37.44 37.44"><defs><style>.cls-1{fill:#00a4e4;}.cls-2{fill:#333133;}.cls-10,.cls-11,.cls-12,.cls-14,.cls-15,.cls-16,.cls-2,.cls-4,.cls-5,.cls-6,.cls-8,.cls-9{fill-rule:evenodd;}.cls-3,.cls-6{fill:#231f20;}.cls-4{fill:#fd0;}.cls-5{fill:#ed1b2f;}.cls-11,.cls-7{fill:#fff;}.cls-8{fill:#ed1a3a;}.cls-9{fill:#f15b5b;}.cls-10{fill:#58595b;}.cls-12{fill:#00a651;}.cls-13{fill:#fff200;}.cls-14{fill:#ffcb05;}.cls-15{fill:#a3238e;}.cls-16{fill:#034ea2;}</style></defs><path class="cls-1" d="M36.72,18.72a18,18,0,1,0-18,18,18,18,0,0,0,18-18"/><path class="cls-2" d="M16.09,15c.34.32.23,8.06.23,8.06s0,1.17-.26,1.37-.46-.28-.46-.28c.18-2-.65-9.81-.65-9.81.3.2.12,11.7,0,12s-1-.14-1-.14c1-1.5-.35-13.09-.35-13.09.28.36.24,10.4-.09,10.41a5.46,5.46,0,0,1-1.09-.28c1.09-1.24,0-11.26,0-11.26.35.63-.45,8.43-.4,9s-1-.09-1-.09c1-1.34.17-10.25.17-10.25.08.33-.45,7.32-.6,8.22s-.93,0-.93,0c1-1.07.46-8.56.39-9.55,0,0,0-1.55.57-.77s3.6,6.6,8,6.33S26.61,9.27,27,8.75s.37.58.37.58c-.07,1-.6,8.48.39,9.55,0,0-.78.91-.94,0s-.66-7.89-.59-8.22c0,0-.82,8.91.18,10.25,0,0-1.08.71-1,.09s-.75-8.41-.38-9c0,0-1.1,10,0,11.26a5.37,5.37,0,0,1-1.07.28c-.34,0-.39-10-.1-10.41,0,0-1.32,11.59-.35,13.09,0,0-.89.44-1,.14s-.26-11.8,0-12c0,0-.82,7.8-.66,9.81,0,0-.24.48-.44.28s-.26-1.37-.26-1.37-.12-7.74.23-8.06H16.09"/><path class="cls-3" d="M16.12,15a1.34,1.34,0,0,1,.14.65c.1,1,.12,3.12.12,4.83,0,1.45,0,2.62,0,2.62s0,.3-.05.62a1.52,1.52,0,0,1-.22.79l0,0,0,0-.15.06c-.23,0-.39-.36-.4-.36h0v0c0-.2,0-.46,0-.77,0-1.36-.17-3.62-.34-5.53s-.33-3.49-.33-3.49l0-.1.09,0,.06.15c.09.5.12,2.36.12,4.47,0,1.66,0,3.47,0,4.89s-.06,2.43-.08,2.54a.21.21,0,0,1-.24.14,2.09,2.09,0,0,1-.79-.25l0,0,0,0a7.47,7.47,0,0,0,.35-3c0-2-.18-4.49-.36-6.53s-.35-3.58-.35-3.59l.09,0a1.64,1.64,0,0,1,.09.48c.07.76.1,2.35.1,4.05,0,1.41,0,2.88-.07,4,0,.56-.05,1-.09,1.37a2.87,2.87,0,0,1-.05.4l0,.11-.07.07h0a6.15,6.15,0,0,1-1.11-.29l-.06,0,0-.05c.34-.38.47-1.73.47-3.36s-.13-3.64-.25-5.18S12.43,12,12.43,12l.08,0a2.55,2.55,0,0,1,.1,1c0,2.16-.5,7.18-.5,8V21h0v.07l-.07.18-.16,0a2.21,2.21,0,0,1-.84-.35l0,0,0,0c.36-.47.49-2.06.49-3.83,0-1.47-.08-3.06-.16-4.29s-.16-2.09-.16-2.1h.09v.17c0,1.12-.48,7.23-.61,8.07,0,.3-.19.44-.35.44-.32,0-.66-.43-.66-.43l0,0,0,0c.45-.46.6-2.34.59-4.3,0-2.28-.18-4.69-.21-5.22h0V9.24a2.89,2.89,0,0,1,0-.55c0-.19.1-.38.27-.39s.21.07.33.23c.61.8,3.48,6.33,7.66,6.33h.29c4.32-.26,7.92-5.6,8.28-6.13l0,0,0,0c.07-.1.13-.16.2-.16l.16.14a2.27,2.27,0,0,1,.1.63h0c0,.53-.21,2.9-.21,5.16,0,2,.14,3.89.58,4.36l0,0,0,0s-.35.42-.67.43c-.16,0-.3-.13-.35-.44h0c-.13-.85-.6-7.07-.6-8.1v-.14h.09s-.08.86-.16,2.09-.16,2.83-.16,4.29c0,1.77.13,3.36.48,3.84l0,0,0,0a2.14,2.14,0,0,1-.83.35l-.17,0-.07-.18V21h0v-.08c0-.83-.49-5.78-.49-8A2.9,2.9,0,0,1,25,12l.08,0s-.12,1.13-.25,2.68-.24,3.52-.24,5.19A7.19,7.19,0,0,0,25,23.2l0,.05-.06,0a6.06,6.06,0,0,1-1.09.29h0l-.07-.07a10.39,10.39,0,0,1-.19-2.12c0-1.11-.07-2.5-.07-3.82,0-1.12,0-2.2.05-3,0-.41,0-.75.06-1a1.26,1.26,0,0,1,.1-.47l.08,0s-.18,1.55-.35,3.59-.36,4.56-.36,6.52a7.5,7.5,0,0,0,.35,3l0,0-.05,0a2.16,2.16,0,0,1-.79.25.21.21,0,0,1-.24-.14h0c0-.11-.05-1.16-.08-2.62s0-3.31,0-5c0-1.17,0-2.25,0-3.05,0-.39,0-.72.05-1s0-.21,0-.28l.06-.15.08-.06v.11S22.4,16,22.23,17.9s-.34,4.24-.34,5.57a6.32,6.32,0,0,0,0,.67h0s-.15.34-.38.36l-.14-.07,0,0,0,0a1.74,1.74,0,0,1-.22-.79c0-.32,0-.61,0-.62h0s0-1.29,0-2.85c0-1.12,0-2.38,0-3.38,0-.5,0-.93.08-1.26a1.21,1.21,0,0,1,.14-.61l.06.07a1.59,1.59,0,0,0-.11.55c-.1,1-.12,2.95-.12,4.63s0,2.85,0,2.85h0s0,.29.05.61a1.59,1.59,0,0,0,.19.73h0l.07,0,.2-.14.1-.16,0,0h-.05c0-.18,0-.41,0-.67,0-2.68.68-9.14.68-9.14h.05l0,0v0l0,0h0v0l0,0a1.22,1.22,0,0,0-.06.39c-.06.72-.08,2.25-.08,4s0,3.53,0,5,.05,2.53.07,2.59h0s0,.07.14.07a2.48,2.48,0,0,0,.75-.24l0,0,0,0a7.26,7.26,0,0,1-.37-3c0-3.93.71-10.12.71-10.12h0l0,0a1.44,1.44,0,0,0-.08.42c-.07.74-.1,2.32-.1,4,0,1.41,0,2.9.07,4,0,.57.05,1.05.09,1.39q0,.26.06.39l0,.09v0h0v0h0v0A5.49,5.49,0,0,0,25,23.18l0,.05,0,0c-.37-.44-.47-1.78-.48-3.42,0-3.35.5-7.87.5-7.88H25l0,0A2.91,2.91,0,0,0,25,13c0,2.18.48,7.13.48,8V21h0v.06c0,.11,0,.13.14.14a2.24,2.24,0,0,0,.78-.34l0,0,0,0c-.39-.54-.5-2.12-.5-3.9,0-2.93.32-6.38.32-6.39h.09v.12c0,1,.47,7.25.6,8.09h0c0,.29.15.36.26.36a.71.71,0,0,0,.39-.19,1.57,1.57,0,0,0,.2-.2l0,0,0,0c-.49-.54-.61-2.43-.61-4.42,0-2.26.17-4.64.21-5.17h0a1.5,1.5,0,0,0,0-.36l-.06-.23-.07-.09s-.06,0-.12.13h0c-.36.52-4,5.89-8.34,6.16h-.3c-4.26,0-7.13-5.59-7.73-6.36-.12-.15-.21-.2-.26-.2s-.15.12-.18.32a3.79,3.79,0,0,0,0,.53v.09h0c0,.54.22,2.95.22,5.23,0,2-.13,3.83-.62,4.36l0,0,0,0,.2.2a.71.71,0,0,0,.39.19c.1,0,.2-.06.25-.35.14-.83.61-7,.61-8.06v-.15h.09s.32,3.46.32,6.4c0,1.78-.11,3.35-.5,3.89l0,0,0,0,.3.17a1.2,1.2,0,0,0,.49.17c.09,0,.13,0,.14-.14V21h0v-.09c0-.85.49-5.86.49-8a3.13,3.13,0,0,0-.08-.93l0,0h0s.5,4.53.5,7.88c0,1.64-.11,3-.49,3.42l0,0v-.05a6,6,0,0,0,1.08.28v0h0v0h0a2.32,2.32,0,0,0,.1-.59c.1-1.05.15-3.24.15-5.28,0-1.13,0-2.21-.05-3,0-.41,0-.75-.06-1a1.38,1.38,0,0,0-.07-.43l0,0h0s.71,6.2.71,10.13a7.46,7.46,0,0,1-.36,3l0,0,0,0a2.48,2.48,0,0,0,.75.24c.09,0,.13,0,.15-.08s.05-1.1.08-2.51,0-3.23,0-4.89c0-1.21,0-2.33,0-3.16,0-.42,0-.76,0-1s0-.22,0-.29l0-.07v0h0l0,0v0h0l0,0v0l0,0H15s.67,6.29.67,9c0,.31,0,.58,0,.78h0l0,0,.1.15.21.15.08,0h0a1.57,1.57,0,0,0,.2-.73,5.55,5.55,0,0,0,0-.61s0-1.17,0-2.62c0-1.14,0-2.45-.05-3.5,0-.53,0-1-.07-1.33a1.72,1.72,0,0,0-.11-.58Z"/><path class="cls-3" d="M17,22.91l0,0a40.71,40.71,0,0,1-3.22,3.54h0a6.1,6.1,0,0,1-1.17,1,2.35,2.35,0,0,1-1.25.29c-.31,0-.62,0-.92,0a2,2,0,0,0-1.09.24l0,0,0,0a.68.68,0,0,0-.23.4l0,.11,0,0,0,0h0s.22-.13.33-.21h0a.63.63,0,0,1,.37-.1c.22,0,.45.07.69.07h.17l.17.12c0,.08-.08.15-.23.24l0,0,0,0c-.71.45-1.34.94-1.34,1.76v0h0l0,0,.19,0,.06,0h0l0,0h0a1.79,1.79,0,0,1,.52-.79h0c.45-.33.66-.71,1.33-.93l0,0v.05c.22.85.18,1.8,1,2.25l0,.05h0v0c0-.59-.35-1.23-.35-1.78a.8.8,0,0,1,.1-.43,1.38,1.38,0,0,1,1.31-.68,4.74,4.74,0,0,1,2.17.69l0,0-.05,0a2.09,2.09,0,0,0-1.69-1.13h-.18l0-.07c.29-.89,1-1.24,1.58-1.89s1.22-1.57,1.92-2.3l0,0,0,0-.29-.39,0,0,0,0,0,0,0,0,.32.42,0,0c-.7.72-1.22,1.52-1.92,2.29s-1.29,1-1.56,1.86h0v0h.12a2.23,2.23,0,0,1,1.78,1.19l-.07.06A4.63,4.63,0,0,0,13.49,28a1.29,1.29,0,0,0-1.23.63.79.79,0,0,0-.09.38c0,.51.35,1.16.35,1.78v.13l-.07,0c-.91-.49-.87-1.5-1.08-2.31l0,0,0,.05c-.64.21-.84.57-1.3.92l0,0,0,0a1.71,1.71,0,0,0-.5.74h0l-.15.08-.17,0H9.25V30.3c0-.87.67-1.39,1.37-1.84h0c.14-.08.19-.15.18-.16h-.1v0h-.15c-.26,0-.49-.08-.69-.08a.62.62,0,0,0-.32.09l0,0,0,0c-.11.07-.26.22-.38.23l-.05,0h0L9,28.33a.7.7,0,0,1,.27-.47h0a2.28,2.28,0,0,1,1.14-.24l.92,0a2.3,2.3,0,0,0,1.2-.27,6.65,6.65,0,0,0,1.16-1l0,0,0,0a43.65,43.65,0,0,0,3.21-3.52l0-.05,0,.05Z"/><path class="cls-4" d="M17,22.91a40.5,40.5,0,0,1-3.22,3.52,5.75,5.75,0,0,1-1.17,1c-1,.62-2.28-.07-3.25.5-.1.06-.38.4-.19.57s.25-.13.37-.21c.35-.22.73,0,1.18,0,.2,0,.23.11,0,.27-.71.46-1.37,1-1.35,1.83.1,0,.26,0,.29-.09a1.71,1.71,0,0,1,.51-.76c.46-.34.66-.71,1.31-.93.22.84.18,1.81,1.06,2.29,0-.8-.57-1.66-.25-2.25s1.47-1,3.42,0a2.13,2.13,0,0,0-1.85-1.15c.28-.88,1-1.22,1.56-1.88s1.22-1.57,1.92-2.3L17,22.91"/><path class="cls-3" d="M12,30.36l0,0a.61.61,0,0,1,.36-.14l.16.08,0,.16c0,.13,0,.3-.12.37h0l-.41-.45,0,0,0,0,0,0,.36.39,0,0,0,0s.08-.16.07-.28V30.3h-.07l-.3.11,0,0,0,0Z"/><path class="cls-5" d="M12,30.36c.15-.13.42-.16.45-.08s0,.42-.09.48l-.36-.4"/><path class="cls-3" d="M15.11,28.47h0a.42.42,0,0,1,.32-.33l.08,0,0,0,0,0a.63.63,0,0,1,.22.41l0,.09,0,0-.58-.17v-.05h0l0,0,.51.15,0,0,0,0v0a.62.62,0,0,0-.18-.33h0s-.21.13-.23.26h-.05l0,0Z"/><path class="cls-5" d="M15.11,28.47c0-.19.26-.35.32-.28s.26.32.19.43l-.51-.15"/><path class="cls-3" d="M9.28,29.84v0h.11l.24,0,.13.15v0h0l-.12.22c-.07.08-.14.16-.24.16h0l-.11-.57h0v0h.05l.09.5h0v-.05l.17-.13.1-.18h0l-.07-.06-.2,0H9.29v-.05h0Z"/><path class="cls-5" d="M9.28,29.84c.2,0,.44.06.42.15s-.19.35-.32.35l-.1-.5"/><path class="cls-3" d="M9.22,28v0a.44.44,0,0,1,.25.08l.14.18,0,.05,0,0,0,0a.7.7,0,0,1-.41.28h0l0,0,.07-.57h.05v0h0l-.07.5h0v0h0l.33-.24h0l-.09-.1L9.22,28V28h0Z"/><path class="cls-5" d="M9.22,28c.18,0,.38.16.33.24s-.29.3-.4.26l.07-.5"/><path class="cls-3" d="M20.49,22.91l0,0a43.8,43.8,0,0,0,3.22,3.52l0,0,0,0a6.65,6.65,0,0,0,1.16,1,2.24,2.24,0,0,0,1.19.27l.91,0a2.23,2.23,0,0,1,1.14.24h0a.74.74,0,0,1,.27.47l-.08.18h0l-.05,0c-.12,0-.27-.16-.37-.23l0,0,0,0a.65.65,0,0,0-.32-.09c-.21,0-.44.08-.69.08h-.14v0h-.11s0,.08.19.16h0c.69.45,1.37,1,1.37,1.84v.08h-.06l-.18,0-.15-.08h0a1.63,1.63,0,0,0-.49-.74c-.47-.35-.66-.71-1.3-.92v-.05l.05,0c-.23.81-.17,1.82-1.07,2.31l-.07,0v-.18c0-.61.33-1.24.33-1.74a.87.87,0,0,0-.08-.37l0,0,0,0A1.31,1.31,0,0,0,24,28a4.59,4.59,0,0,0-2.11.67l-.07-.05a2.19,2.19,0,0,1,1.77-1.2h.11v0h-.05c-.24-.85-.94-1.2-1.53-1.86l0,0,0,0c-.72-.77-1.23-1.57-1.94-2.29l0,0,.36-.47,0,.05,0,0,0,0-.3.39,0,0,0,0c.71.73,1.22,1.54,1.94,2.3h0c.57.65,1.29,1,1.55,1.89l0,.07h-.17a2.08,2.08,0,0,0-1.68,1.12h-.05l0,0A4.67,4.67,0,0,1,24,27.89a1.39,1.39,0,0,1,1.31.68h0a.86.86,0,0,1,.09.42c0,.53-.33,1.16-.33,1.74v.1h0l0-.05c.85-.45.8-1.4,1-2.25v-.05l.05,0c.67.22.88.6,1.32.93a1.81,1.81,0,0,1,.53.79h-.05l.05,0h0s.16,0,.26.06v0h-.05v0c0-.81-.63-1.31-1.32-1.76l0,0,0,0c-.16-.09-.24-.15-.25-.24l.18-.12h.17c.23,0,.46-.07.69-.07a.65.65,0,0,1,.37.1h0c.11.08.28.22.32.21h0l0,0,0,0,0-.11a.63.63,0,0,0-.23-.4l0,0,0,0A2.09,2.09,0,0,0,27,27.7c-.29,0-.6,0-.91,0a2.29,2.29,0,0,1-1.24-.29,6.1,6.1,0,0,1-1.17-1h0a44.49,44.49,0,0,1-3.24-3.54l0,0,0,0Z"/><path class="cls-4" d="M20.49,22.91a42.31,42.31,0,0,0,3.23,3.52,5.75,5.75,0,0,0,1.17,1c1,.62,2.26-.07,3.24.5.09.06.37.4.19.57s-.26-.13-.38-.21c-.35-.22-.74,0-1.16,0-.22,0-.25.11,0,.27.7.46,1.35,1,1.34,1.83-.11,0-.27,0-.3-.09a1.69,1.69,0,0,0-.5-.76c-.46-.34-.66-.71-1.32-.93-.23.84-.17,1.81-1,2.29-.06-.8.55-1.66.24-2.25s-1.48-1-3.41,0a2.1,2.1,0,0,1,1.84-1.15c-.26-.88-1-1.22-1.54-1.88-.73-.77-1.24-1.57-1.95-2.3l.3-.38"/><path class="cls-3" d="M25.49,30.36l0,0-.3-.11h-.07l0,0h0v.1c0,.12,0,.32.07.32l0,0,0,0,.35-.39,0,0,0,0,0,0,0,0-.37.41h0c-.12-.08-.12-.27-.13-.41v-.11h0l.16-.08a.56.56,0,0,1,.36.14l0,0,0,0Z"/><path class="cls-5" d="M25.49,30.36c-.14-.13-.42-.16-.44-.08s0,.42.09.48l.35-.4"/><path class="cls-3" d="M22.36,28.47l0,0c0-.14-.2-.28-.25-.27h0a.68.68,0,0,0-.18.34v0l0,0v0l.52-.15v0l0,0,0,0,0,.05-.56.16,0,0v-.07a.79.79,0,0,1,.21-.42l0,0,0,0,.07,0a.47.47,0,0,1,.34.33v.05h0Z"/><path class="cls-5" d="M22.36,28.47c-.05-.19-.26-.35-.33-.28s-.24.32-.19.43l.52-.15"/><path class="cls-3" d="M28.17,29.84v.05h-.09l-.2,0L27.8,30h-.05l.05,0,.12.19.16.13v.05h0l.09-.5h.05v0h0l-.11.53h0c-.1,0-.17-.08-.24-.16L27.71,30h0v0l.12-.14.24-.05h.15v0Z"/><path class="cls-5" d="M28.17,29.84c-.19,0-.43.06-.42.15s.21.35.32.35l.1-.5"/><path class="cls-3" d="M28.25,28V28l-.22.07-.09.1h0l0,0,0,0,.35.24h0l0,0h-.05L28.2,28h.05v0h.05l.07.53,0,0h0a.79.79,0,0,1-.43-.28h0v-.05c0-.14.2-.26.4-.26h0v0Z"/><path class="cls-5" d="M28.25,28c-.2,0-.39.16-.35.24s.31.3.42.26l-.07-.5"/><path class="cls-2" d="M18.72,31.48c-.09.4-.64.84-.74,1.27,0,.2.1.33.18.49s-.27.94-.55,1.16c-.1-.32.28-.48.16-1.06s-.07-1.12-.63-1.46c-.34.69-1,1.29-.51,2.08a2.36,2.36,0,0,1,0-2.48,4.3,4.3,0,0,0-.95.44c-.15.08-.45.26-.59.31-1,.24-.06,1-.28,1-.34-.45-.8-1-.09-1.14a1.73,1.73,0,0,0,1.38-1.24l-.16-.15c-.12-.08-.22,0-.33.09s-.34.27-.6.46a2.48,2.48,0,0,1-.79.22c.5-.36,1.24-.94,1.79-1.29a3.8,3.8,0,0,0,1.35-1.6s.11-.19-.05-.12A11,11,0,0,0,16,29c1-.5,1.22-1.61,1.69-2.47-.34.08-.19.27-.42.34s-.17,0-.35.05C17.34,26.54,18,26,18,25.45c0,.19-.51.3-.8.33.2-.46.86-.77.68-1.19-.07-.14-.39.23-.68.22a4.26,4.26,0,0,0,.43-1.29c-.51,0-.83.5-1.36.41a1.66,1.66,0,0,1,.47-.93c.2-.19.44-.32.55-.61-.25.09-.4.25-.68.17A10.15,10.15,0,0,0,17,20.89a3,3,0,0,0,0-1.19c0-.1-.24.53-.26.46a18.74,18.74,0,0,1,0-2.25,7.64,7.64,0,0,0,0-2.24c-.58,2.15-1.62-1-1.62-1-1.21,1.85-1.28-1.29-1.28-1.29-1,1.72-1.35-1.64-1.35-1.64-.94,1.41-1.14-1.38-1.14-1.38-.94,1.61-1-1.3-1-1.3-.13.55-1.58,1.15-1.58,1.15.45-.35.89-4.68,1.83-4s.41.17.69.81c.44,1,0,.71-.43.33l-.13.82s.63.39.63.75c0,0,.43-.12.64.62,0,0,.16-1.19.79.14,0,0,.78.28.35.89,0,0,.94,1.26,1.44,1.4,0,0,.24-.78.91.6,0,0,0-.1.29.2s.89-.2,1.1-.36a3.55,3.55,0,0,0,.46-1A10.8,10.8,0,0,0,17.36,10c0-.08-.12-.38,0-.6s-.08-.75-.08-.75a1,1,0,0,1,.05.66l-.2-.49a1.42,1.42,0,0,0-.24-.42c0,.11,0,.17,0,.16s0-.16-.16-.22v.08l-.11-.16,0,.08-.15-.21v.06L16.27,8a.47.47,0,0,0-.19,0,1.5,1.5,0,0,1-.42.05A2.23,2.23,0,0,1,15.19,8a.51.51,0,0,1,.38-.15h.25a1.37,1.37,0,0,0,.39-.08l.1-.06c.14-.22.05-.23-.14-.38S16,7.05,16,7s.16-.08.29-.11,0-.2.5-.3.48-.07.51-.07a4.38,4.38,0,0,1,.57,0,3.12,3.12,0,0,1,.86.23,2.12,2.12,0,0,1,.37.28,2.4,2.4,0,0,1,.5,1.24,3.93,3.93,0,0,0,.23,1s.1,1,.22,1.81a2.53,2.53,0,0,0,.06,1.23,3.37,3.37,0,0,0,.65.77c1.18.08,1.2-.45,1.2-.45.69-1.38.94-.6.94-.6.47-.14,1.41-1.4,1.41-1.4-.43-.61.35-.89.35-.89.64-1.33.77-.14.77-.14.23-.74.66-.62.66-.62,0-.36.63-.75.63-.75l-.15-.82c-.41.38-.85.66-.41-.33.28-.64-.23-.14.71-.81s1.37,3.65,1.8,4c0,0-1.44-.6-1.59-1.15,0,0-.06,2.91-1,1.3,0,0-.21,2.79-1.14,1.38,0,0-.35,3.36-1.34,1.64,0,0,0,3.14-1.27,1.29,0,0-1.05,3.19-1.64,1a9.33,9.33,0,0,0,0,2.24,15.35,15.35,0,0,1,0,2.25c0,.07-.23-.56-.23-.46a3,3,0,0,0,0,1.19,10.19,10.19,0,0,0,.41,1.67c-.28.08-.43-.08-.69-.17.11.29.35.42.57.61a1.77,1.77,0,0,1,.45.93c-.52.09-.86-.41-1.35-.41a3.58,3.58,0,0,0,.43,1.29c-.3,0-.62-.36-.69-.22-.17.42.49.73.69,1.19-.31,0-.82-.14-.82-.33,0,.55.71,1.09,1.07,1.44-.17,0-.24,0-.35-.05s-.08-.26-.41-.34c.47.86.71,2,1.69,2.47a12,12,0,0,0-1.28-.54c-.16-.07-.06.12-.06.12a3.9,3.9,0,0,0,1.36,1.6c.55.35,1.29.93,1.8,1.29a2.33,2.33,0,0,1-.8-.22c-.26-.19-.34-.28-.61-.46-.09-.06-.19-.17-.33-.09l-.15.15a1.7,1.7,0,0,0,1.37,1.24c.73.17.27.69-.08,1.14-.23.06.72-.73-.27-1-.16,0-.44-.23-.61-.31a4.16,4.16,0,0,0-.93-.44,2.38,2.38,0,0,1,0,2.48c.47-.79-.19-1.39-.51-2.08-.57.34-.52.94-.65,1.46s.26.74.19,1.06c-.31-.22-.7-.95-.56-1.16s.21-.29.17-.49c-.09-.43-.65-.87-.76-1.27"/><path class="cls-3" d="M18.76,31.49c-.1.43-.65.87-.73,1.27h0v.07c0,.13.1.24.18.38l0,0,0,0,0,.13a2.06,2.06,0,0,1-.59,1.1l-.06.05,0-.07V34.3c0-.25.2-.4.19-.73l0-.22h0c-.12-.53-.07-1.11-.61-1.43l0,0,0,0c-.26.52-.67,1-.67,1.5a1.18,1.18,0,0,0,.16.54l-.08.05a2.19,2.19,0,0,1-.36-1.22,2.61,2.61,0,0,1,.36-1.31l0,0v0a4.69,4.69,0,0,0-.94.44l0,0,0,0a4.87,4.87,0,0,1-.6.31h0c-.35.09-.43.23-.43.37a.75.75,0,0,0,.1.32.73.73,0,0,1,.12.23l0,0,0,0h-.05v0a1.77,1.77,0,0,1-.47-.83c0-.17.13-.31.41-.38v0a1.69,1.69,0,0,0,1.35-1.2h0l0,0-.16-.14,0,0,0,0-.07,0-.22.11,0-.05,0,0c-.25.19-.33.28-.61.47a2.41,2.41,0,0,1-.8.22l0-.08c.51-.36,1.24-.94,1.8-1.29h0a3.71,3.71,0,0,0,1.33-1.58h0l0-.08h0v0h0v0h0a11,11,0,0,0-1.27.53l0,0,0,0c.95-.48,1.19-1.58,1.67-2.45l0,0v.05c-.16,0-.19.09-.22.14a.29.29,0,0,1-.2.19v0l0,0c-.12.06-.2,0-.36.06l0-.09c.38-.34,1.05-.88,1-1.4h.1c0,.14-.16.21-.32.27a2.73,2.73,0,0,1-.53.1h-.08l0-.07c.19-.42.71-.72.7-1l0-.13,0,0,0,0h0s-.13.05-.24.12a.82.82,0,0,1-.38.13h-.1l.05-.07a3.88,3.88,0,0,0,.42-1.27h0v.05c-.44,0-.75.41-1.23.41h-.18v0a1.66,1.66,0,0,1,.48-1l0,0,0,0c.21-.19.44-.32.54-.58h0l0,.05a1.87,1.87,0,0,1-.55.18l-.16,0h-.06l0-.05A9.58,9.58,0,0,0,17,20.88a1.71,1.71,0,0,0,.06-.43c0-.16,0-.37-.06-.75h0v0l0,0h0v0l0,0h0v0l0,0a1.13,1.13,0,0,0-.11.24l-.07.15,0,.05-.05,0-.05-.05h0c0-.32-.06-1-.06-1.61a5.36,5.36,0,0,1,0-.64,6.29,6.29,0,0,0,.07-.93,10.4,10.4,0,0,0-.1-1.3h.09c-.14.55-.32.78-.54.78s-.59-.47-.81-.92a9.6,9.6,0,0,1-.36-.9h.05l0,0c-.28.43-.5.61-.7.61s-.48-.51-.57-1a7.32,7.32,0,0,1-.09-.94h0l0,0c-.21.36-.39.51-.58.51-.36,0-.54-.56-.67-1.1a9.62,9.62,0,0,1-.19-1.06h.05l0,0c-.19.28-.36.41-.52.42-.33,0-.47-.49-.58-.93s-.13-.9-.13-.9h.05l0,0c-.21.35-.37.51-.54.51s-.24-.14-.32-.31A5.67,5.67,0,0,1,10.27,9h.09c-.16.6-1.61,1.18-1.61,1.19l-.05-.08A1.94,1.94,0,0,0,9,9.39c.16-.6.34-1.42.55-2.1s.45-1.22.81-1.24l.22.09c.46.34.55.36.6.42a1.26,1.26,0,0,0,.12.4,1.67,1.67,0,0,1,.18.59l0,.11-.09,0a1.41,1.41,0,0,1-.57-.36l0,0h0l-.13.82h-.05l0,0s.64.38.65.79h0v0h.08c.15,0,.46.09.62.66h-.09A1,1,0,0,1,12,9.24c0-.13.12-.27.26-.28s.33.18.56.65l-.05,0,0-.05s.5.17.51.59a.66.66,0,0,1-.14.38l0,0,0,0s.23.31.53.64a2.44,2.44,0,0,0,.88.73v0h0s.07-.25.28-.25.4.19.72.84l0,0,0,0v-.06l.05,0c.06,0,.11,0,.31.23h0l.22.09c.28,0,.65-.33.81-.45l0,0,0,0a1.58,1.58,0,0,0,.29-.56c.09-.24.15-.45.15-.45h0A9.07,9.07,0,0,0,17.32,10h0a3.19,3.19,0,0,1,0-.34l.07-.27h0l.05-.18a1.55,1.55,0,0,0-.14-.52l.08,0a.67.67,0,0,1,.09.36,3.14,3.14,0,0,1,0,.32h-.09l-.2-.48-.23-.41,0,0,0,0,0,.15v0l-.05,0h0l0,0v0l-.06,0-.12-.17,0,0h0v.08l-.09,0-.07-.11v0l0,0-.18-.27,0,0h.05v.06l-.08,0L16.23,8l0,0v.05h0l-.15,0a1.52,1.52,0,0,1-.43.06,1.91,1.91,0,0,1-.48-.1L15.1,8,15.16,8a.6.6,0,0,1,.38-.16h0l.26,0v0a1.37,1.37,0,0,0,.38-.08v0l0,0,.1-.07,0,0,0,0,.06-.14s0-.07-.19-.17h0A.48.48,0,0,1,16,7.06L16,6.93h0c.09-.1.2-.09.32-.12v0h0c0-.07.07-.24.53-.34a2,2,0,0,1,.45-.07h.07l.43,0h.16a2.84,2.84,0,0,1,.88.24l0,0,0,0a1.34,1.34,0,0,1,.37.3l0,0,0,0a2.45,2.45,0,0,1,.52,1.26,3.76,3.76,0,0,0,.23,1h0s.09,1,.21,1.81h0a3.58,3.58,0,0,0-.05.58,1.49,1.49,0,0,0,.11.62,3.11,3.11,0,0,0,.64.75l0,0v-.05H21a1.12,1.12,0,0,0,.81-.22l.1-.13,0-.06h0c.33-.65.55-.84.74-.84s.28.25.29.25h0v0a2.77,2.77,0,0,0,.86-.74c.29-.33.52-.64.52-.64l0,0,0,0a.66.66,0,0,1-.14-.38c0-.42.51-.59.51-.59l0,.05-.05,0c.24-.47.4-.64.56-.65s.21.15.26.28a1.23,1.23,0,0,1,.05.26h-.09c.17-.57.48-.66.63-.66h.08v0h0c0-.41.65-.78.65-.79l0,0h0l-.15-.82h0l0,0a1.32,1.32,0,0,1-.56.36l-.09,0,0-.11A1.6,1.6,0,0,1,26.16,7a1.38,1.38,0,0,0,.11-.4c.05-.06.14-.09.61-.42l.22-.09c.24,0,.42.26.58.62a14.58,14.58,0,0,1,.6,2.06,4.45,4.45,0,0,0,.46,1.41l0,.08S27.25,9.63,27.08,9h.09a7.82,7.82,0,0,1-.08.9,2.68,2.68,0,0,1-.15.62c-.07.17-.17.31-.32.31s-.32-.16-.53-.51l0,0h.05a8,8,0,0,1-.14.9c-.1.44-.25.91-.57.93-.16,0-.33-.14-.52-.42l0,0H25a10,10,0,0,1-.19,1.07,3.22,3.22,0,0,1-.25.74c-.11.2-.24.35-.42.35s-.36-.15-.57-.51l0,0h.05a7.32,7.32,0,0,1-.09.94c-.09.47-.22,1-.57,1-.2,0-.42-.18-.7-.61l0,0h0a7.18,7.18,0,0,1-.36.9c-.22.45-.49.91-.81.92s-.4-.23-.55-.78h.09A12.41,12.41,0,0,0,20.71,17a7.59,7.59,0,0,0,.05.92h0a5.54,5.54,0,0,1,0,.79c0,.55,0,1.17-.06,1.46h0l-.06.05-.05,0c0-.06-.08-.17-.12-.27l-.05-.13,0,0h0l0,0v0l0,0,0,0v0h.05l-.05,0v0h.05c0,.43-.08.64-.08.82a1.2,1.2,0,0,0,.05.36,9.59,9.59,0,0,0,.4,1.66l0,.05h0l-.16,0a1.69,1.69,0,0,1-.55-.18v-.05h.05c.1.26.33.39.55.58a1.86,1.86,0,0,1,.47.95V24H21c-.48,0-.8-.42-1.22-.41v-.05h0a3.88,3.88,0,0,0,.42,1.27l.06.07h-.11a.91.91,0,0,1-.38-.13c-.1-.07-.2-.13-.23-.12h0l-.05,0,.05,0,0,.13c0,.3.52.6.71,1l0,.07h-.08a2.73,2.73,0,0,1-.53-.1c-.17-.06-.32-.13-.33-.27h.1c0,.51.69,1.06,1.05,1.41l0,.08a1.29,1.29,0,0,1-.36-.06l0,0v0a.31.31,0,0,1-.2-.19c0-.05-.05-.1-.21-.14V26.5l0,0c.47.87.71,2,1.67,2.45l0,0,0,0a10.12,10.12,0,0,0-1.26-.53h0v0h0v0h0l0,.07,0,0,0,0a3.83,3.83,0,0,0,1.35,1.58h0c.55.35,1.29.93,1.8,1.29l0,.08a2.45,2.45,0,0,1-.82-.22h0c-.26-.19-.34-.28-.6-.47l0,0,0,0-.21-.1-.08,0,0,0,0,0-.15.14,0,0h.05A1.64,1.64,0,0,0,22.74,32v0c.29.07.43.21.42.38s-.27.56-.48.84h-.05l-.05,0,0,0a1,1,0,0,1,.12-.23.68.68,0,0,0,.11-.32c0-.14-.08-.28-.42-.37h0a5,5,0,0,1-.61-.31,4.16,4.16,0,0,0-.93-.44l0,0,0,0a2.62,2.62,0,0,1,.36,1.3A2.32,2.32,0,0,1,20.88,34l-.08-.05A1.06,1.06,0,0,0,21,33.4c0-.51-.42-1-.66-1.5l0,0,0,0c-.54.32-.5.9-.62,1.43h0l0,.21c0,.35.21.5.22.77v.08l0,.08-.06-.05a1.85,1.85,0,0,1-.61-1.09l0-.14,0,0,0,0c.07-.14.18-.25.17-.38v-.07h0c-.09-.4-.65-.84-.77-1.27l.09,0c.1.37.66.82.77,1.27h0v.09c0,.18-.13.3-.19.43h0l0,.09a1.79,1.79,0,0,0,.57,1l0,0h0v-.06c0-.2-.21-.38-.22-.77l0-.23h0c.12-.51.07-1.14.66-1.49l.05,0,0,.05c.24.51.68,1,.68,1.54a1.1,1.1,0,0,1-.17.58l0,0,0,0a2.18,2.18,0,0,0,.34-1.18,2.52,2.52,0,0,0-.34-1.25l.05-.07a4.6,4.6,0,0,1,.95.45,4.69,4.69,0,0,0,.59.3v0c.36.09.5.27.5.46a.85.85,0,0,1-.12.36l-.08.14,0,0h0l0,0,0,0h0l0,0v0h0v0h0l0,.05,0,0c.22-.27.47-.58.46-.78s-.07-.22-.35-.29h0a1.75,1.75,0,0,1-1.4-1.27v0l.17-.16h0l.13,0c.12,0,.19.08.26.11h0c.27.19.35.28.6.47l0,0,0,0a2.7,2.7,0,0,0,.79.2v.05l0,0c-.51-.37-1.25-.94-1.79-1.29l0,0,0,0a3.89,3.89,0,0,1-1.38-1.61h0l0-.12,0-.06.07,0,.07,0a10.21,10.21,0,0,1,1.28.54l0,.08c-1-.51-1.25-1.64-1.71-2.49l-.05-.09.1,0a.4.4,0,0,1,.28.2c0,.07,0,.11.14.14h0c.09.05.15,0,.34.05v.05l0,0c-.36-.34-1.08-.88-1.09-1.47h.1c0,.05.09.13.26.18a2.42,2.42,0,0,0,.51.1v.05H20.2c-.16-.38-.7-.66-.71-1.05l0-.16h0l.1-.07a1,1,0,0,1,.28.14.76.76,0,0,0,.33.11h0v0l0,0a3.85,3.85,0,0,1-.44-1.3v-.06h.06c.48,0,.8.42,1.22.41h.12v.05h0a1.79,1.79,0,0,0-.45-.9c-.2-.18-.46-.32-.57-.62l0-.09.1,0a1.9,1.9,0,0,0,.52.18l.13,0,0,0,0,0a9.8,9.8,0,0,1-.41-1.68,1.28,1.28,0,0,1-.05-.38c0-.19,0-.4.07-.83h0v0l0,0,.05,0a1.43,1.43,0,0,1,.11.26l.07.15,0,0h0l0,0v0l0,0,0,0v0l0,0,0,0v.05l0,0,0,0h0v0l0,0h0a13.61,13.61,0,0,0,.06-1.45,7.73,7.73,0,0,0,0-.78h0a7.75,7.75,0,0,1-.05-.93,12.43,12.43,0,0,1,.08-1.32h.09c.14.54.32.71.46.71s.52-.42.73-.87a7.58,7.58,0,0,0,.35-.89l0-.09.06.08c.27.42.49.57.62.56s.4-.42.48-.89a6.3,6.3,0,0,0,.08-.93l.09,0c.2.34.37.46.49.46s.23-.11.33-.31a4,4,0,0,0,.34-1.1c.07-.38.1-.67.1-.67l.08,0c.19.28.34.37.44.37s.39-.41.48-.85.13-.88.14-.88l.08,0c.2.34.36.46.45.46s.16-.09.23-.25A5.79,5.79,0,0,0,27.08,9h.09c.06.24.45.53.82.75a7.67,7.67,0,0,0,.73.37v0l0,0a2,2,0,0,1-.33-.8c-.16-.6-.33-1.42-.54-2.09s-.46-1.19-.71-1.17l-.16.06c-.47.33-.59.39-.59.4h0a.93.93,0,0,1-.11.39,1.74,1.74,0,0,0-.18.55l0,.06a1.22,1.22,0,0,0,.49-.33l.07-.06.16.94h0a2.3,2.3,0,0,0-.31.24.76.76,0,0,0-.3.47V9l-.06,0h-.06c-.11,0-.37.05-.54.59h-.09a1.17,1.17,0,0,0-.05-.24c0-.12-.11-.22-.17-.22s-.24.13-.47.61h0a.85.85,0,0,0-.22.13.46.46,0,0,0-.22.37.58.58,0,0,0,.12.33l0,0,0,0S23.46,11.82,23,12h0v-.05l0-.09-.15-.09c-.11,0-.34.15-.65.79l-.05,0h.05a.4.4,0,0,1-.15.25A1.21,1.21,0,0,1,21,13h-.26a2.81,2.81,0,0,1-.66-.78,1.42,1.42,0,0,1-.12-.66A3.84,3.84,0,0,1,20,11h0c-.12-.8-.21-1.81-.21-1.81h0a3.46,3.46,0,0,1-.23-1,2.44,2.44,0,0,0-.29-.89A1.76,1.76,0,0,0,19.1,7h0a1.8,1.8,0,0,0-.35-.27h0a2.81,2.81,0,0,0-.84-.22v0h-.14a2.83,2.83,0,0,0-.43,0h-.07a2,2,0,0,0-.43.07c-.45.12-.43.21-.46.28v0h0c-.14,0-.22,0-.27.09l0,0,0,0,0,.08c0,.06,0,.14.15.25l0,0,0,0c.12.1.22.13.23.25l-.08.19h0l-.1.07h0a1.6,1.6,0,0,1-.4.08h-.25v0h0a.45.45,0,0,0-.32.13l0,0,0,0a1.6,1.6,0,0,0,.45.09,1.42,1.42,0,0,0,.41,0l.17,0h.05l.2.22,0,0h0V8.15l.08,0,.11.16,0,0,0-.06.15.22,0,0h0V8.29l.06,0,.15.15,0,.06h0l0,0v0h0l0,0v0h0v0h0v0l0,0,0,0v0l0,0h0l0-.12.08,0a2.1,2.1,0,0,1,.25.45l.2.48,0,0h-.05c0-.07,0-.18,0-.32a.61.61,0,0,0-.08-.32l0,0,0,0a1.58,1.58,0,0,1,.15.56l-.07.24,0,0,0,0-.06.21a2.27,2.27,0,0,0,.05.34v0l0,0h0a9.55,9.55,0,0,1-.07,1.33h0s-.06.22-.15.46a1.66,1.66,0,0,1-.32.6h0c-.16.12-.53.47-.87.47a.42.42,0,0,1-.29-.11l0,0,0,0-.2-.18,0,0h0v0l0,0h0v0l0,0,0,0h0v0l0,0h0l-.08,0c-.31-.64-.54-.8-.64-.79s-.19.18-.19.18V12h-.05c-.53-.16-1.45-1.41-1.46-1.42l0,0,0,0a.58.58,0,0,0,.12-.33A.47.47,0,0,0,13,9.81a1,1,0,0,0-.23-.13h0c-.22-.48-.39-.61-.47-.61s-.13.1-.17.22a1.8,1.8,0,0,0-.06.24h-.09c-.16-.54-.42-.58-.53-.59h-.06l-.06,0V8.88c0-.15-.14-.33-.3-.47a2.65,2.65,0,0,0-.3-.24h0l.15-.94.06.06c.21.18.43.34.51.33l0-.06A1.74,1.74,0,0,0,11.21,7a1,1,0,0,1-.1-.32V6.61h0s-.13-.07-.57-.4l-.17-.06c-.16,0-.34.2-.49.56a13,13,0,0,0-.61,2,4.12,4.12,0,0,1-.5,1.46l0,0,0,0a6.19,6.19,0,0,0,.74-.37c.38-.21.76-.51.82-.75h.09a7.74,7.74,0,0,0,.08.89,2.39,2.39,0,0,0,.15.6c.07.16.15.25.23.25s.26-.12.46-.46l.09,0a6.53,6.53,0,0,0,.13.88c.09.44.27.87.48.85s.25-.09.44-.37l.09,0a8.07,8.07,0,0,0,.18,1.05c.12.53.34,1.05.58,1s.3-.12.5-.47l.09,0a7.24,7.24,0,0,0,.09.93c.08.47.25.91.48.89s.35-.14.62-.56l0-.08,0,.09a8.86,8.86,0,0,0,.36.89c.21.45.5.88.72.87s.31-.17.45-.71h.1A12.55,12.55,0,0,1,16.85,17a6.32,6.32,0,0,1-.07.94,5.06,5.06,0,0,0,0,.63c0,.57,0,1.29.06,1.6h0v0l0,0h0v0l0,0,0,0v0l0,0s.06-.14.11-.25l.07-.15,0-.05.06,0,0,0h0c0,.38.06.59.06.76a1.47,1.47,0,0,1-.06.45,9.75,9.75,0,0,1-.39,1.68l0,0v0l.14,0c.17,0,.3-.11.52-.18l.09,0,0,.09a1.71,1.71,0,0,1-.57.62h0a1.58,1.58,0,0,0-.45.9h-.05v-.05h.12c.42,0,.73-.41,1.23-.41h.06l0,.06a4.06,4.06,0,0,1-.43,1.3l0,0v0h0a.68.68,0,0,0,.33-.11,1,1,0,0,1,.29-.14l.09.07h0l0,.16c0,.39-.56.67-.72,1.05h0v-.05a2.42,2.42,0,0,0,.51-.1c.16-.05.26-.13.25-.18h.1c0,.59-.7,1.13-1.08,1.48l0,0v-.05c.18,0,.24,0,.33-.05h0c.1,0,.1-.07.14-.14a.38.38,0,0,1,.28-.2l.1,0-.05.09c-.47.85-.71,2-1.71,2.49l0-.08a10.08,10.08,0,0,1,1.27-.54l.08,0,.06,0,0,.05,0,.13,0,0,0,0A3.94,3.94,0,0,1,16,30.19l0,0,0,0c-.55.35-1.29.92-1.8,1.29l0,0,0-.05a2.72,2.72,0,0,0,.78-.2c.26-.19.34-.28.6-.47h0c.07,0,.15-.11.26-.11l.12,0h0l.17.15h0v0a1.77,1.77,0,0,1-1.41,1.27h0c-.27.07-.34.17-.34.29s.24.51.44.78l0,0v-.05h0v0l0,0h0v0l0,0,0,0h0v0l0,0h0a1.59,1.59,0,0,1-.22-.55c0-.19.14-.37.5-.46l0,0,0,0a4,4,0,0,0,.58-.3h0a4.14,4.14,0,0,1,.95-.45l.06.07a2.61,2.61,0,0,0-.35,1.27,2,2,0,0,0,.35,1.16l0,0,0,0a1.1,1.1,0,0,1-.17-.58c0-.56.43-1,.68-1.54l0,0,0,0c.59.35.53,1,.65,1.49h0l0,.24c0,.36-.21.54-.2.73v.09h0l0,0a1.9,1.9,0,0,0,.55-1v-.08h0a1,1,0,0,1-.18-.43v-.09h0c.1-.45.65-.9.73-1.27Z"/><path class="cls-3" d="M16.31,7.73l0,0,.06-.13c0-.06-.07-.11-.17-.19l0,0,0,0a.38.38,0,0,1-.2-.29l.09-.2,0,0V7a2.9,2.9,0,0,0-.52.09h0a1,1,0,0,0-.69.92V8h0a1,1,0,0,0,.15.55l.1.1,0,0h0v0l0,0h0v0l0,0,0,0h0a.86.86,0,0,1-.1-.24h0l0-.18.05-.24a.73.73,0,0,1,.39-.3v0l0,0,.15,0h.17l.18,0,.16,0h0l.19-.08,0,0,0,0,0,0,0,0-.19.08,0,0,0,0-.2.05-.19,0v0h-.16l-.11,0h0a.61.61,0,0,0-.33.24l0,.2,0,.15h0l0,.14,0,0,0,.05v0h-.05c-.09,0-.38-.15-.39-.75h0V8a1.07,1.07,0,0,1,.77-1V7l0,0a2.43,2.43,0,0,1,.53-.09l0,.08-.06.13s0,.13.16.21h0c.09.08.2.13.21.27l-.09.19h0Z"/><path class="cls-4" d="M16.31,7.73c.16-.22,0-.27-.12-.39s-.23-.29-.11-.41a2.15,2.15,0,0,0-.52.09,1,1,0,0,0-.73,1c0,.62.34.73.35.72a1,1,0,0,1-.09-.23.58.58,0,0,1,0-.39.65.65,0,0,1,.36-.27.49.49,0,0,1,.3,0,.58.58,0,0,0,.36,0l.19-.08"/><polyline class="cls-6" points="17.5 7.46 17.62 7.37 17.5 7.28 17.39 7.37 17.5 7.46"/><polyline class="cls-7" points="17.41 7.31 17.52 7.28 17.53 7.32 17.42 7.35"/><polyline class="cls-7" points="17.45 7.31 17.51 7.29 17.52 7.33 17.46 7.35"/><polygon class="cls-3" points="17.5 7.49 17.49 7.47 17.6 7.37 17.5 7.28 17.39 7.37 17.51 7.47 17.5 7.49 17.49 7.47 17.5 7.49 17.49 7.5 17.35 7.38 17.34 7.37 17.49 7.23 17.5 7.22 17.65 7.35 17.66 7.37 17.51 7.5 17.5 7.51 17.49 7.5 17.5 7.49"/><polygon class="cls-3" points="17.5 7.5 17.49 7.49 17.62 7.37 17.5 7.26 17.38 7.37 17.51 7.49 17.5 7.5 17.49 7.49 17.5 7.5 17.49 7.52 17.34 7.38 17.32 7.37 17.49 7.22 17.5 7.21 17.66 7.35 17.68 7.37 17.51 7.52 17.5 7.53 17.49 7.52 17.5 7.5"/><polygon class="cls-3" points="17.5 7.5 17.49 7.49 17.63 7.37 17.5 7.24 17.37 7.37 17.51 7.49 17.5 7.5 17.49 7.49 17.5 7.5 17.49 7.52 17.33 7.38 17.31 7.37 17.5 7.18 17.69 7.37 17.5 7.53 17.49 7.52 17.5 7.5"/><polygon class="cls-3" points="17.36 7.34 17.5 7.23 17.64 7.35 17.6 7.36 17.5 7.27 17.4 7.34 17.36 7.34"/><path class="cls-3" d="M17.61,7.35l-.11-.11-.12.11h0c0-.1.09-.14.15-.14l.15.15Z"/><path class="cls-3" d="M17.5,7.51h0c.1,0,.15,0,.15-.13a.14.14,0,0,0-.15-.13v0l-.17.14h0l.15.13h0v0a.18.18,0,0,1-.19-.17h0l.18-.16h0a.18.18,0,0,1,.19.17.17.17,0,0,1-.19.17Z"/><path class="cls-3" d="M17.5,7.53v0a.16.16,0,0,0,.17-.16c0-.06-.07-.12-.17-.12s-.17.06-.17.12a.16.16,0,0,0,.17.16v0a.2.2,0,0,1-.21-.2c0-.09.1-.16.21-.16s.21.07.21.16a.2.2,0,0,1-.21.2Z"/><path class="cls-3" d="M17.32,7.19l.09,0h.12l.16,0v0a1.13,1.13,0,0,1,.22.07l.34.21,0,0-.34-.22a1.24,1.24,0,0,0-.21-.06h0l-.15,0h-.11v0l-.09,0Z"/><path class="cls-3" d="M17.37,7.38l.13.1.12-.07,0,0-.15.09a.17.17,0,0,1-.17-.14Z"/><polygon class="cls-3" points="17.36 7.39 17.5 7.5 17.63 7.43 17.66 7.46 17.5 7.54 17.32 7.4 17.36 7.39"/><path class="cls-3" d="M17.63,7.21c.1,0,.11.07.16.07h0a4,4,0,0,1,.41.21l0,0-.4-.2v0l-.18-.07Z"/><polyline class="cls-3" points="17.7 7.27 17.99 7.4 17.97 7.44 17.68 7.31"/><polyline class="cls-3" points="17.69 7.26 17.74 7.34 17.71 7.36 17.66 7.28"/><polyline class="cls-3" points="17.59 7.18 17.73 7.33 17.7 7.36 17.57 7.21"/><path class="cls-3" d="M17.67,7.19a.45.45,0,0,1,.11.14l0,0a.38.38,0,0,0-.1-.13Z"/><path class="cls-3" d="M17.61,7.2a.19.19,0,0,1,.11.18h0a.14.14,0,0,0-.08-.14Z"/><path class="cls-3" d="M17.23,7.32c.05,0,.14.2.26.2v0c.13,0,.26-.12.36-.12h0v0l.23.06,0,0-.22,0h0c-.07,0-.21.11-.35.12h0c-.15,0-.25-.19-.28-.2Z"/><path class="cls-3" d="M17.19,7.33c.06,0,.13.19.27.19h0a2.39,2.39,0,0,0,.38-.09h0l.4.08v0l-.41-.08v0a1.6,1.6,0,0,1-.38.09v0h0c-.17,0-.25-.17-.29-.2Z"/><path class="cls-3" d="M16,7a.54.54,0,0,1,.36-.11v0A.51.51,0,0,0,16,7Z"/><path class="cls-3" d="M16,7.07a.56.56,0,0,1,.37-.14V7A.5.5,0,0,0,16,7.1Z"/><path class="cls-3" d="M16,7.12A1.39,1.39,0,0,1,16.39,7h0V7h0a1.07,1.07,0,0,0-.37.12Z"/><path class="cls-3" d="M16,7.15a1.55,1.55,0,0,1,.41-.09h0l0,0h0a1.57,1.57,0,0,0-.4.09Z"/><polyline class="cls-3" points="16.05 7.19 16.44 7.13 16.44 7.17 16.05 7.23"/><polyline class="cls-3" points="16.09 7.23 16.44 7.2 16.44 7.24 16.09 7.27"/><polyline class="cls-3" points="16.11 7.25 16.36 7.25 16.36 7.29 16.11 7.29"/><polyline class="cls-3" points="16.16 7.31 16.4 7.33 16.4 7.37 16.16 7.35"/><polyline class="cls-3" points="16.3 7.4 16.47 7.44 16.46 7.48 16.29 7.44"/><polyline class="cls-3" points="16.36 7.47 16.53 7.51 16.52 7.55 16.36 7.51"/><polyline class="cls-3" points="16.38 7.62 16.58 7.67 16.57 7.71 16.37 7.66"/><polyline class="cls-3" points="16.69 7.56 16.81 7.51 16.82 7.55 16.7 7.6"/><polyline class="cls-3" points="16.45 7.2 16.57 7.3 16.55 7.33 16.43 7.24"/><polyline class="cls-3" points="16.55 7.51 16.66 7.51 16.66 7.55 16.55 7.55"/><polyline class="cls-3" points="16.39 7.22 16.48 7.3 16.45 7.33 16.36 7.25"/><polyline class="cls-3" points="16.38 7.27 16.45 7.31 16.43 7.34 16.36 7.31"/><polyline class="cls-3" points="16.41 7.31 16.44 7.32 16.42 7.36 16.39 7.35"/><polyline class="cls-3" points="16.48 7.13 16.56 7.24 16.53 7.26 16.45 7.15"/><polyline class="cls-3" points="16.45 7.1 16.33 6.99 16.36 6.96 16.48 7.07"/><polygon class="cls-3" points="16.44 7.11 16.34 7 16.36 6.99 16.38 6.98 16.47 7.11 16.44 7.14 16.34 7 16.38 6.98 16.47 7.08 16.44 7.11"/><polyline class="cls-3" points="16.83 7.5 16.94 7.62 16.91 7.65 16.8 7.53"/><polyline class="cls-3" points="16.83 7.53 16.87 7.57 16.84 7.6 16.8 7.56"/><polyline class="cls-3" points="16.75 7.58 16.83 7.58 16.83 7.62 16.75 7.62"/><path class="cls-3" d="M17.52,8.15a1.4,1.4,0,0,0-.49-.1h-.18l-.07,0v0h0v0l.1-.07H17a1.36,1.36,0,0,1,.5.1Z"/><path class="cls-3" d="M15.26,8a1.29,1.29,0,0,0,.48.1v0a2.56,2.56,0,0,0,.49-.1h0l.19,0v0l-.19,0V8a2.89,2.89,0,0,1-.5.1h0a1.42,1.42,0,0,1-.5-.1Z"/><polygon class="cls-3" points="17.36 7.26 17.32 7.35 17.37 7.45 17.34 7.48 17.28 7.35 17.34 7.23 17.36 7.26"/><polygon class="cls-3" points="17.27 7.43 17.26 7.38 17.31 7.24 17.34 7.26 17.3 7.38 17.3 7.42 17.27 7.43"/><polygon class="cls-3" points="17.33 7.27 17.29 7.33 17.3 7.39 17.27 7.4 17.25 7.33 17.3 7.25 17.33 7.27"/><polyline class="cls-3" points="17.29 7.3 17.29 7.38 17.25 7.38 17.25 7.3"/><polyline class="cls-3" points="17.36 7.21 17.5 7.19 17.5 7.23 17.37 7.25"/><path class="cls-3" d="M17.06,7.31a1.11,1.11,0,0,0,.18,0v0a.72.72,0,0,1-.18,0Z"/><polyline class="cls-3" points="17.22 7.34 17.33 7.48 17.3 7.5 17.19 7.37"/><polyline class="cls-3" points="17.09 7.28 17.18 7.34 17.15 7.37 17.07 7.32"/><polyline class="cls-3" points="17.15 7.31 17.23 7.31 17.23 7.35 17.15 7.35"/><polyline class="cls-3" points="17.21 7.31 17.35 7.2 17.38 7.24 17.23 7.34"/><polyline class="cls-3" points="17.19 7.32 17.25 7.31 17.26 7.35 17.2 7.36"/><polyline class="cls-3" points="17.05 7.24 17.34 7.19 17.34 7.23 17.06 7.28"/><path class="cls-3" d="M15.22,7.22a1.11,1.11,0,0,0-.34.62h0V8a1.79,1.79,0,0,0,0,.34h0c.1.25.13.28.24.36v0h0a.78.78,0,0,1-.23-.41h0l0-.23c0-.1,0-.19,0-.23v0h0a1.09,1.09,0,0,1,.33-.58l0,0a1.15,1.15,0,0,0-.32.55h0v0s0,.14,0,.23l0,.21h0a.84.84,0,0,0,.22.4l0,0a.7.7,0,0,1-.24-.39h0a1.34,1.34,0,0,1,0-.35V7.82l0,0h0a1.17,1.17,0,0,1,.35-.65Z"/><path class="cls-3" d="M15.26,7.29a1.07,1.07,0,0,0-.3.47h0a.9.9,0,0,0-.05.34l0,.18h0a1,1,0,0,0,.16.33l.09.09h0l0,0a1.09,1.09,0,0,1-.26-.55A1.77,1.77,0,0,1,15,7.7a1,1,0,0,1,.19-.3l0,0a1.21,1.21,0,0,0-.18.29,1.69,1.69,0,0,0-.07.48,1,1,0,0,0,.25.52l0,0s-.17-.1-.27-.44h0l0-.19a1.15,1.15,0,0,1,.05-.36h0a1,1,0,0,1,.31-.5Z"/><path class="cls-3" d="M15.19,7.61c-.16.1-.21.44-.22.54h0v0a2.26,2.26,0,0,0,.21.55h0A2,2,0,0,1,15,8.15V8.1a.85.85,0,0,1,.12-.37l0,0a.65.65,0,0,0-.12.35v0a2.32,2.32,0,0,0,.19.58l0,0a2.25,2.25,0,0,1-.22-.57v0h0c0-.09.05-.44.24-.56Z"/><path class="cls-3" d="M15.19,7.75,15,8h0l0,.13a1.5,1.5,0,0,0,.16.56h0A1.42,1.42,0,0,1,15,8.17V8.05h0l.05-.11,0-.06,0,0L15.08,8l0,.09h0v.11a1.65,1.65,0,0,0,.14.56l0,0A1.59,1.59,0,0,1,15,8.17L15,8h0a.59.59,0,0,1,.17-.32Z"/><path class="cls-3" d="M16.12,7.81l-.13,0a1.34,1.34,0,0,1-.25,0v0h-.13c-.12,0-.13,0-.26.1h0a.45.45,0,0,0-.27.25h0v.14a.8.8,0,0,0,.13.43l0,0A.87.87,0,0,1,15,8.3l0-.16h0l.11-.21h0a1.12,1.12,0,0,1,.24-.15h0a.53.53,0,0,1,.19,0h.17l.26,0a.41.41,0,0,0,.19,0l0,0a.37.37,0,0,1-.21,0l-.27,0h-.16l-.18,0v0a1.21,1.21,0,0,0-.22.14v0h0l-.1.21h0l0,.15a.79.79,0,0,0,.14.42l0,0h0A.93.93,0,0,1,15,8.29V8.14h0a.51.51,0,0,1,.29-.27v0c.13-.07.15-.1.28-.1h.14a1.25,1.25,0,0,0,.24,0l.1,0Z"/><path class="cls-3" d="M15,8.34V8.26a.49.49,0,0,1,.34-.44h0a.76.76,0,0,1,.26-.06h.1l.23,0,.23,0v0a.86.86,0,0,1-.24,0l-.24,0v0h-.09a.86.86,0,0,0-.25.07v0h0c-.28.13-.32.31-.32.41v.07Z"/><path class="cls-3" d="M15,8.21a.61.61,0,0,1,.15-.35l0,0a.38.38,0,0,0-.1.17.54.54,0,0,0,0,.15Z"/><path class="cls-3" d="M15,8.11,15.1,8h0l.23-.2h0a.49.49,0,0,1,.24-.07h.08v0l.44,0,.19,0v0h-.71a.38.38,0,0,0-.22.07v0L15.13,8l-.07.12Z"/><path class="cls-3" d="M15.07,8a.76.76,0,0,1,.43-.29v0A.78.78,0,0,0,15.1,8Z"/><polyline class="cls-3" points="15.74 6.96 16.05 6.93 16.05 6.97 15.74 7"/><polyline class="cls-3" points="15.71 6.99 16.04 6.96 16.04 7 15.72 7.03"/><polyline class="cls-3" points="15.71 7.03 16.04 6.97 16.04 7.01 15.72 7.07"/><polyline class="cls-3" points="15.7 7.05 16.01 7 16.02 7.04 15.71 7.09"/><polyline class="cls-3" points="15.67 7.08 16.01 7.04 16.01 7.08 15.68 7.12"/><polyline class="cls-3" points="15.67 7.12 16.01 7.07 16.02 7.11 15.68 7.16"/><polyline class="cls-3" points="15.7 7.15 16.01 7.12 16.01 7.16 15.7 7.19"/><polyline class="cls-3" points="16.49 7.02 16.39 6.88 16.42 6.86 16.52 6.99"/><polygon class="cls-3" points="16.08 7.05 16.07 7.03 16.12 7 16.13 7 16.26 7.08 16.27 7.08 16.32 7.2 16.33 7.21 16.3 7.28 16.29 7.31 16.05 7.04 16.07 7.03 16.08 7.05 16.09 7.03 16.27 7.24 16.28 7.21 16.24 7.11 16.13 7.04 16.09 7.06 16.08 7.05 16.09 7.03 16.08 7.05"/><polyline class="cls-6" points="16.08 7.05 16.13 7.02 16.25 7.1 16.31 7.21 16.28 7.28 16.08 7.05"/><path class="cls-3" d="M16,7h0L16,7.13l0,0h0l.31.23h0l0,0c-.07-.08-.27-.21-.27-.38V7h0V7l0,0,0,0h0V7h0V7h0V7h0v0h0c0,.14.18.27.26.35l0,0-.31-.23h0l0-.07L16,7V7h0Z"/><path class="cls-6" d="M16,7s-.11.08-.05.18l.31.23c-.08-.08-.29-.21-.27-.37s0,0,0,0"/><polygon class="cls-3" points="15.97 7.18 15.91 7.21 16.4 7.58 16.37 7.61 15.84 7.2 15.95 7.15 15.97 7.18"/><polyline class="cls-3" points="15.87 7.36 16.13 7.36 16.13 7.4 15.87 7.4"/><polyline class="cls-3" points="15.74 7.43 15.97 7.4 15.97 7.44 15.74 7.47"/><polyline class="cls-3" points="15.71 7.45 15.91 7.43 15.92 7.47 15.72 7.5"/><polyline class="cls-3" points="15.67 7.5 15.81 7.47 15.81 7.51 15.68 7.53"/><polygon class="cls-3" points="15.88 7.33 16.01 7.33 16.11 7.33 16.1 7.37 16.01 7.37 15.88 7.37 15.88 7.33"/><polyline class="cls-3" points="15.93 7.32 16.05 7.31 16.05 7.35 15.93 7.36"/><polyline class="cls-3" points="15.93 7.29 16.01 7.28 16.02 7.32 15.93 7.33"/><polyline class="cls-3" points="16.07 7.37 16.16 7.37 16.16 7.42 16.07 7.42"/><polygon class="cls-3" points="16.09 7.05 16.11 7.05 16.1 7.16 16.19 7.26 16.25 7.31 16.27 7.25 16.21 7.13 16.08 7.06 16.09 7.05 16.11 7.05 16.09 7.05 16.1 7.03 16.23 7.09 16.24 7.1 16.31 7.24 16.32 7.25 16.27 7.35 16.26 7.37 16.16 7.29 16.16 7.29 16.06 7.18 16.06 7.17 16.07 7.04 16.08 7.01 16.1 7.03 16.09 7.05"/><polyline class="cls-6" points="16.09 7.05 16.08 7.17 16.17 7.28 16.25 7.34 16.29 7.25 16.23 7.11 16.09 7.05"/><path class="cls-3" d="M15.22,8s-.05.09-.12.25v.11a.85.85,0,0,0,.12.35h0a.81.81,0,0,1-.13-.38l0-.11h0A.6.6,0,0,1,15.19,8l0,0a.8.8,0,0,0-.12.2h0l0,.12a.94.94,0,0,0,.13.39h0A.94.94,0,0,1,15,8.32l0-.15h0A.9.9,0,0,0,15.13,8l0,0,0,0,0,0h0v0h0v0h0l-.07.12h0l0,.14a1,1,0,0,0,.13.41l0,0A.93.93,0,0,1,15,8.34l0-.14h0c.08-.17.08-.16.12-.2l0,0a1,1,0,0,0-.12.25h0v.1a.9.9,0,0,0,.12.36l0,0a.74.74,0,0,1-.13-.37l0-.12L15.19,8Z"/><path class="cls-3" d="M15,8.34l0-.22h0a.71.71,0,0,1,.29-.24l0,0a.61.61,0,0,0-.27.22h0l0,.23Z"/><path class="cls-3" d="M15.11,8.22A.38.38,0,0,1,15.26,8l0,0a.32.32,0,0,0-.14.19Z"/><polygon class="cls-3" points="15.07 8.3 15.09 8.18 15.1 8.18 15.23 8 15.25 8.01 15.26 8.03 15.12 8.21 15.08 8.19 15.23 8 15.26 8.02 15.13 8.2 15.11 8.31 15.07 8.3"/><path class="cls-6" d="M16.75,7.7c.09,0,.27.07.39.08s.39,0,.43.08L17.51,8c-.06,0-.2-.08-.41-.08s-.07,0-.08,0l.27.12,0,0A2.89,2.89,0,0,0,16.78,8l-.31-.07-.47,0,.29-.11.3,0a1.24,1.24,0,0,1,.23,0h-.07"/><path class="cls-3" d="M16.75,7.68c.1,0,.27.07.39.08v0c.09,0,.38,0,.44.09h0L17.53,8h0a2.74,2.74,0,0,0-.4-.08H17v0h0v0h0v0h0v0l.29.13,0,.05h0c-.09,0-.36-.07-.47-.07h0l-.31-.06L16,7.9v0l.3-.11h0l.3,0v0a1.32,1.32,0,0,1,.24,0v0a1.39,1.39,0,0,0-.23,0h0l-.29,0v0l-.2.07.37,0,.31.07V8h0c.11,0,.39.06.47.07V8h0L17,7.9v0h.1a1.9,1.9,0,0,1,.4.08h0V8h0l.05-.11h0l-.41-.07h0c-.13,0-.3-.08-.39-.08Z"/><path class="cls-3" d="M15.24,8l.46.08v0c.17,0,.37-.07.51-.08l.2,0V8l-.2,0c-.13,0-.33.06-.51.08h0A4.41,4.41,0,0,1,15.23,8Z"/><path class="cls-3" d="M15.25,8a4.36,4.36,0,0,0,.47.06h0V8l.5-.08h.18V8h-.18V8l-.5.08h0A4.29,4.29,0,0,1,15.24,8Z"/><path class="cls-3" d="M16.32,8a.33.33,0,0,1,.15.14l0,0a.26.26,0,0,0-.14-.12Z"/><polyline class="cls-3" points="16.39 8.04 16.5 8.15 16.47 8.17 16.36 8.07"/><polyline class="cls-3" points="15.28 7.92 15.71 7.99 15.7 8.03 15.27 7.96"/><path class="cls-3" d="M15.33,7.9a3.53,3.53,0,0,0,.39,0V8a3.46,3.46,0,0,1-.4,0Z"/><path class="cls-3" d="M15.34,7.9l.33,0v0a1.93,1.93,0,0,0,.48-.06v0a2.43,2.43,0,0,1-.49.05h0l-.32,0Z"/><path class="cls-3" d="M15.44,7.83c.09,0,.2,0,.28,0v0l.29,0v0l-.28,0h0a2.89,2.89,0,0,1-.29,0Z"/><path class="cls-3" d="M15.47,7.83l.22,0c.09,0,.18,0,.24,0v0s-.14,0-.24,0a1,1,0,0,1-.24,0Z"/><path class="cls-3" d="M15.5,7.81l.19,0v0h.15v0h-.15a.72.72,0,0,1-.21,0Z"/><polyline class="cls-3" points="15.56 7.8 15.74 7.82 15.74 7.86 15.55 7.84"/><path class="cls-3" d="M15,8.48V8.35l0-.21h0a.51.51,0,0,1,.24-.24v0l-.22.21h0l0,.19v.13Z"/><polyline class="cls-3" points="15.29 7.96 15.37 7.89 15.39 7.92 15.31 7.99"/><path class="cls-3" d="M15.32,7.93l.39.05V8A3.24,3.24,0,0,1,15.31,8Z"/><polygon class="cls-3" points="15.99 7.9 15.7 7.94 15.39 7.9 15.4 7.86 15.7 7.9 15.98 7.86 15.99 7.9"/><polyline class="cls-3" points="15.41 7.9 15.61 7.94 15.61 7.98 15.4 7.94"/><polyline class="cls-3" points="15.82 7.98 16.25 7.9 16.26 7.94 15.83 8.02"/><path class="cls-3" d="M15.46,7.83h.45v0l-.36,0h-.07Z"/><path class="cls-3" d="M16,7.88a2,2,0,0,0-.31,0,.37.37,0,0,0-.22.05l0,0a.37.37,0,0,1,.25-.06l.32,0Z"/><path class="cls-3" d="M15.26,8a.52.52,0,0,1,.22-.16l0,0a.49.49,0,0,0-.21.14Z"/><path class="cls-3" d="M16,7.83l.31-.09h0l.39-.06a1.78,1.78,0,0,1,.39.06c.2,0,.27,0,.51.06v0c-.24,0-.3,0-.51-.06a1.74,1.74,0,0,0-.38-.06l-.39.06v0a3.09,3.09,0,0,1-.31.09Z"/><path class="cls-3" d="M15.26,8a1,1,0,0,0,.34.08v0A1.49,1.49,0,0,1,15.24,8Z"/><path class="cls-3" d="M16.41,7.56l.26.07.13,0h0l.14,0v0l-.14,0v0h0l-.13,0a.72.72,0,0,1-.28-.07Z"/><path class="cls-3" d="M17.07,8.54a1.27,1.27,0,0,1,.33.57h0A1.3,1.3,0,0,0,17,8.56Z"/><path class="cls-3" d="M17.41,8.15c.14.06.28.12.3.25h0c0-.09-.14-.16-.27-.21Z"/><path class="cls-3" d="M17,8c.17.07.29,0,.4.11l0,0c-.1-.07-.22,0-.4-.11Z"/><path class="cls-3" d="M16.69,8A2,2,0,0,1,17,8a.88.88,0,0,1,.35.06v0a.62.62,0,0,0,.26.06h0l0-.09-.06-.13,0,0,.08.16,0,.13-.07,0a1.35,1.35,0,0,1-.27-.07h0A.91.91,0,0,0,17,8a1.19,1.19,0,0,0-.31,0Z"/><path class="cls-3" d="M16.6,8.34A.6.6,0,0,1,16.41,8l0-.12,0,0,0,.09c0,.07,0,.17.18.34Z"/><path class="cls-3" d="M16.51,7.84a.22.22,0,0,0-.05.15.6.6,0,0,0,.18.37l0,0a.63.63,0,0,1-.19-.4.26.26,0,0,1,.06-.18Z"/><path class="cls-3" d="M16.53,7.86l0,.15c0,.08,0,.18.19.34l0,0a.51.51,0,0,1-.2-.36l0-.17Z"/><polyline class="cls-3" points="16.74 8.45 16.54 7.9 16.58 7.88 16.78 8.43"/><path class="cls-3" d="M16.55,7.88l0,.13a.42.42,0,0,0,.13.27h0v0l0,0,0,0A.68.68,0,0,1,16.45,8l.06-.11,0,0,0,.08.08.21.06.08,0,0h0v0h0l0,0v0h0v0a.5.5,0,0,1-.14-.3l0-.14Z"/><path class="cls-3" d="M16.67,7.9v0a.8.8,0,0,0,.17.45l0,0a.86.86,0,0,1-.18-.48V7.89Z"/><path class="cls-3" d="M16.6,7.88l0-.07,0,0,0,.11a.8.8,0,0,0,.13.38l0,0a.85.85,0,0,1-.13-.4l0-.13,0,0,0,.07Z"/><path class="cls-3" d="M16.57,7.84h0V7.9a.9.9,0,0,0,.11.36h0a.78.78,0,0,1-.12-.37l0-.09Z"/><path class="cls-3" d="M17.35,7.74a.83.83,0,0,1,.33,0v0a.76.76,0,0,0-.32,0Z"/><path class="cls-3" d="M17.41,7.76c.11,0,.27,0,.35.06l0,0s-.2,0-.33,0Z"/><polygon class="cls-3" points="16.69 7.87 16.68 7.93 16.75 8.15 16.72 8.17 16.64 7.93 16.65 7.86 16.69 7.87"/><polygon class="cls-3" points="16.54 7.82 16.54 7.91 16.59 8.1 16.56 8.12 16.5 7.91 16.5 7.82 16.54 7.82"/><polygon class="cls-3" points="16.64 7.82 16.62 7.95 16.63 8 16.6 8.02 16.58 7.95 16.59 7.82 16.64 7.82"/><polygon class="cls-3" points="16.77 7.91 16.77 7.94 16.78 8.03 16.76 8.07 16.73 8.04 16.74 8.03 16.73 7.94 16.73 7.9 16.77 7.91"/><path class="cls-3" d="M16.72,7.82V8h0l0,0h.38l.21,0,0,0-.18,0h-.28L16.68,8h0V7.82Z"/><polyline class="cls-3" points="16.88 8.01 16.63 7.99 16.63 7.95 16.88 7.96"/><path class="cls-3" d="M17,8.43a2.14,2.14,0,0,1,.27.39l0,0A3.68,3.68,0,0,0,17,8.45Z"/><path class="cls-3" d="M17.07,8.43c.16.16.17.18.18.21h0l0,0v0h0l0,0L17,8.45Z"/><path class="cls-3" d="M17.33,8.43a.68.68,0,0,1,.15.27l0,0a.7.7,0,0,0-.14-.27Z"/><path class="cls-3" d="M17.23,8.28c.15.12.17.24.21.27l0,0c-.06-.05-.07-.15-.21-.27Z"/><path class="cls-3" d="M17.49,8.36a1.37,1.37,0,0,1,.19.24l0,0a.68.68,0,0,0-.18-.24Z"/><path class="cls-3" d="M17,8a1.16,1.16,0,0,1,.4.1l0,0A1.32,1.32,0,0,0,17,8.07Z"/><path class="cls-3" d="M16.91,8c.12.07.28.07.46.15h0a.93.93,0,0,1,.2.14v0c-.08,0,0,0-.2-.13v0c-.17-.08-.33-.08-.47-.15Z"/><path class="cls-3" d="M17.39,8.33c.11.07.18.05.24.1l0,0s-.12,0-.24-.1Z"/><path class="cls-3" d="M17.74,8a.74.74,0,0,1,.14.2l0,0a1,1,0,0,0-.13-.2Z"/><path class="cls-3" d="M17.73,8c.1.09.12.19.22.23l0,0c-.11,0-.14-.15-.23-.23Z"/><polygon class="cls-3" points="16.67 7.85 16.64 8 16.65 8.06 16.61 8.07 16.59 8 16.63 7.85 16.67 7.85"/><polyline class="cls-3" points="16.53 7.8 16.5 7.97 16.46 7.97 16.49 7.79"/><polyline class="cls-3" points="16.66 8.11 16.66 7.78 16.7 7.78 16.7 8.11"/><path class="cls-3" d="M16.61,8.31A1.21,1.21,0,0,1,16.55,8l0-.17,0,0,0,.15a1.2,1.2,0,0,0,.06.33Z"/><path class="cls-3" d="M16.76,8.08l0-.17.06-.09v0h0a.33.33,0,0,0-.05.22Z"/><polyline class="cls-3" points="17.76 7.24 18.09 7.43 18.07 7.47 17.74 7.28"/><path class="cls-3" d="M17.79,7.34a1.25,1.25,0,0,0,.29.1v0a1,1,0,0,1-.3-.11Z"/><path class="cls-3" d="M17.75,7.36a.94.94,0,0,0,.22.07v0a1.55,1.55,0,0,1-.23-.07Z"/><path class="cls-3" d="M16.8,8.37A1,1,0,0,1,16.71,8l.1-.22,0,0L16.75,8a1.08,1.08,0,0,0,.08.34Z"/><path class="cls-3" d="M16.62,8.24a.88.88,0,0,1-.08-.3l.08-.16,0,0-.06.12a.79.79,0,0,0,.08.28Z"/><polygon class="cls-3" points="17.65 7.46 17.79 7.4 17.79 7.42 17.79 7.44 17.7 7.44 17.68 7.44 17.67 7.3 17.71 7.3 17.72 7.4 17.79 7.4 17.8 7.44 17.67 7.49 17.65 7.46"/><path class="cls-3" d="M18.1,7.49s-.28,0-.38-.08v0c.09,0,.34.06.4.09Z"/><path class="cls-3" d="M17.72,7.21a.8.8,0,0,1,.41.21l0,0a.8.8,0,0,0-.39-.2Z"/><path class="cls-3" d="M16.82,8.39A2,2,0,0,1,16.73,8l.08-.14v0l-.05.1a1.49,1.49,0,0,0,.09.41Z"/><path class="cls-6" d="M16.48,7.8a.34.34,0,0,0,0,.36V7.8"/><path class="cls-6" d="M16.44,8.05c0-.06,0-.29.11-.29l-.11.29"/><path class="cls-6" d="M16.52,8.23a.48.48,0,0,1-.08-.37l.08.37"/><path class="cls-3" d="M15.31,8a1.69,1.69,0,0,0,.38.07h.07c.13,0,.41-.07.47-.07h.18V8h-.18c-.05,0-.34.07-.47.07v0h-.07a2,2,0,0,1-.4-.07Z"/><polygon class="cls-3" points="17.79 7.46 17.88 7.45 18.03 7.47 18.02 7.51 17.88 7.49 17.8 7.5 17.79 7.46"/><path class="cls-3" d="M17.39,7.78c.06,0,.2,0,.21.12l0,.09-.06,0-.09,0h0A1.27,1.27,0,0,0,17,7.88v0h0l.15,0,.16.11v0h0L17.16,8l-.1,0-.08,0,.06,0h0a1.45,1.45,0,0,1,.39.11V8l.09,0,0-.07c0-.08-.09-.06-.19-.08Z"/><path class="cls-3" d="M17.53,7.7c.07,0,.2,0,.31,0l.15,0,0,0-.13,0c-.11,0-.23,0-.31,0Z"/><polygon class="cls-3" points="17.8 7.67 17.95 7.66 18.09 7.69 18.07 7.72 17.95 7.7 17.81 7.71 17.8 7.67"/><polyline class="cls-3" points="17.59 7.83 17.68 7.9 17.66 7.93 17.57 7.87"/><polyline class="cls-3" points="17.61 7.87 17.7 7.94 17.68 7.97 17.58 7.91"/><polyline class="cls-3" points="17.61 7.92 17.7 7.98 17.68 8.02 17.58 7.95"/><polyline class="cls-3" points="17.59 7.94 17.7 8.01 17.68 8.04 17.57 7.98"/><polyline class="cls-3" points="17.59 7.97 17.68 8.03 17.66 8.07 17.57 8"/><polyline class="cls-3" points="17.56 7.99 17.66 8.05 17.64 8.08 17.54 8.03"/><polyline class="cls-3" points="17.51 8 17.61 8.06 17.58 8.1 17.49 8.03"/><polyline class="cls-3" points="17.47 8 17.55 8.05 17.53 8.08 17.45 8.03"/><polyline class="cls-3" points="17.41 7.98 17.51 8.03 17.49 8.07 17.4 8.02"/><polyline class="cls-3" points="17.35 7.95 17.45 8.02 17.42 8.05 17.33 7.99"/><path class="cls-3" d="M18.27,7.72a1.31,1.31,0,0,0-.34-.06.75.75,0,0,0-.24,0v0a.85.85,0,0,1,.25,0,1.9,1.9,0,0,1,.35.06Z"/><path class="cls-3" d="M17.76,7.75a.54.54,0,0,0,.18,0v0a.58.58,0,0,1-.19,0Z"/><path class="cls-3" d="M17.37,7.67a1.29,1.29,0,0,1,.5.07l0,0a1.29,1.29,0,0,0-.48-.06Z"/><path class="cls-3" d="M17.34,7.71a1.46,1.46,0,0,1,.38,0v0a1.32,1.32,0,0,0-.37,0Z"/><path class="cls-3" d="M17.33,7.74c.1,0,.36,0,.42.12h0c0-.07-.28-.08-.39-.09Z"/><path class="cls-3" d="M17.47,7.74a.49.49,0,0,1,.3.07l0,0c-.06,0-.12,0-.27-.06Z"/><polygon class="cls-3" points="17.9 7.64 17.96 7.64 18.21 7.7 18.19 7.73 17.96 7.68 17.91 7.68 17.9 7.64"/><polyline class="cls-3" points="17.79 7.3 18.06 7.4 18.04 7.44 17.77 7.33"/><path class="cls-3" d="M18,7.62a.88.88,0,0,1,.2,0v0a.79.79,0,0,0-.2,0Z"/><path class="cls-3" d="M17.34,7.78h.09c.07,0,.17,0,.17.11v0h0L17.5,8l-.11,0a1.37,1.37,0,0,0-.31-.08h0v0l.28.12,0,0L17,7.91v0h0A1.33,1.33,0,0,1,17.4,8l.1,0,.06-.08h0v0l-.13-.06h-.09Z"/><polygon class="cls-3" points="17.17 7.89 17.3 7.95 17.37 7.99 17.36 8.03 17.28 7.99 17.16 7.92 17.17 7.89"/><path class="cls-3" d="M17.48,7.78a1.6,1.6,0,0,1,.43.11l0,0a1.62,1.62,0,0,0-.42-.1Z"/><path class="cls-3" d="M17.63,7.81a1.84,1.84,0,0,1,.23.06l0,0a2.35,2.35,0,0,0-.23-.07Z"/><polyline class="cls-3" points="17.68 7.83 17.79 7.87 17.77 7.91 17.67 7.87"/><polyline class="cls-3" points="17.62 7.78 17.82 7.82 17.82 7.86 17.62 7.82"/><path class="cls-3" d="M16.67,8,17,8a1,1,0,0,1,.44.08v0a.44.44,0,0,0,.16.06h0v0h0l.05-.17-.11-.1v0a1.9,1.9,0,0,1,.4.11l0,0a1.79,1.79,0,0,0-.38-.11v0h0l.12.11h0l0,.19v0H17.6a.62.62,0,0,1-.18-.07h0A1,1,0,0,0,17,8l-.33,0Z"/><path class="cls-3" d="M18.39,7.59a.9.9,0,0,1,.28.08v0a.9.9,0,0,0-.28-.08Z"/><path class="cls-3" d="M18.08,7.56a2.4,2.4,0,0,1,.52.1l0,0a2.38,2.38,0,0,0-.5-.09Z"/><path class="cls-3" d="M18,7.58a1.93,1.93,0,0,1,.46.08l0,0A2.07,2.07,0,0,0,18,7.62v0Z"/><path class="cls-3" d="M17,7.92c.11.1.32.22.45.33l0,0c-.12-.1-.33-.22-.44-.33Z"/><path class="cls-3" d="M17,7.94a2,2,0,0,0,.3.23l0,0A2,2,0,0,1,17,8Z"/><path class="cls-3" d="M17.24,8.1A2.25,2.25,0,0,1,17,8l0,0a2.12,2.12,0,0,0,.21.11Z"/><path class="cls-3" d="M17.21,7.63a1.07,1.07,0,0,0,.29,0l.28,0v0l-.29,0a1.87,1.87,0,0,1-.3,0Z"/><path class="cls-3" d="M17.61,7.18a.89.89,0,0,1,.3.09l0,0a1.11,1.11,0,0,0-.29-.1Z"/><path class="cls-3" d="M17.72,7.24a.34.34,0,0,1,.18.06l0,0a.32.32,0,0,0-.17,0Z"/><path class="cls-3" d="M17.73,7.3a.65.65,0,0,0,.2.07v0l-.21-.09Z"/><polyline class="cls-3" points="17.75 7.33 17.91 7.4 17.89 7.44 17.73 7.37"/><polyline class="cls-3" points="17.67 7.44 17.8 7.4 17.81 7.44 17.68 7.48"/><polyline class="cls-3" points="17.73 7.35 17.75 7.42 17.71 7.42 17.69 7.36"/><polygon class="cls-3" points="16.99 8.13 16.83 7.85 16.87 7.81 16.9 7.82 16.89 7.86 16.87 7.85 16.87 7.85 17.02 8.11 16.99 8.13"/><path class="cls-3" d="M17.18,8.12,17,8l0,0a1.82,1.82,0,0,1,.2.15Z"/><polyline class="cls-3" points="17.05 8.12 16.93 7.97 16.96 7.95 17.09 8.09"/><polyline class="cls-3" points="16.99 8.07 16.88 7.97 16.91 7.94 17.02 8.04"/><polyline class="cls-6" points="17.16 7.45 17.39 7.54 17.16 7.45"/><polyline class="cls-6" points="17.69 7.25 18.01 7.38 17.69 7.25"/><polyline class="cls-6" points="17.71 7.29 17.98 7.39 17.71 7.29"/><polyline class="cls-6" points="17.65 7.5 17.89 7.45 17.65 7.5"/><polyline class="cls-6" points="17.69 7.5 17.9 7.46 17.69 7.5"/><polyline class="cls-6" points="17.78 7.38 17.93 7.42 17.78 7.38"/><polyline class="cls-6" points="17.74 7.38 17.79 7.39 17.74 7.38"/><polyline class="cls-6" points="17.9 7.45 18.14 7.5 17.9 7.45"/><polyline class="cls-8" points="17.5 7.48 17.61 7.37 17.5 7.26 17.39 7.37 17.5 7.48"/><polyline class="cls-7" points="17.41 7.31 17.52 7.28 17.53 7.32 17.42 7.35"/><polyline class="cls-7" points="17.45 7.31 17.51 7.29 17.52 7.33 17.46 7.35"/><polygon class="cls-3" points="17.36 7.34 17.5 7.23 17.64 7.35 17.6 7.36 17.5 7.27 17.4 7.34 17.36 7.34"/><path class="cls-3" d="M17.32,7.19l.09,0h.09l.19,0a1.13,1.13,0,0,1,.22.07l.34.21,0,0-.34-.22a1.24,1.24,0,0,0-.21-.06l-.18,0h-.08v0l-.09,0Z"/><path class="cls-3" d="M17.63,7.21c.1,0,.11.07.16.07h0a4,4,0,0,1,.41.21l0,0-.4-.2v0l-.18-.07Z"/><polyline class="cls-3" points="17.7 7.27 17.99 7.4 17.97 7.44 17.68 7.31"/><polyline class="cls-3" points="17.67 7.26 17.75 7.34 17.73 7.37 17.65 7.29"/><polyline class="cls-3" points="17.59 7.18 17.73 7.33 17.7 7.36 17.57 7.21"/><path class="cls-3" d="M17.67,7.19a.45.45,0,0,1,.11.14l0,0a.38.38,0,0,0-.1-.13Z"/><path class="cls-3" d="M17.6,7.2a.2.2,0,0,1,.12.18h0a.14.14,0,0,0-.09-.14Z"/><path class="cls-3" d="M17.19,7.33c.06,0,.13.19.27.19h0a2.7,2.7,0,0,0,.38-.09h0l.4.08v0l-.41-.08v0a1.93,1.93,0,0,1-.38.09v0h0c-.17,0-.25-.17-.29-.2Z"/><path class="cls-3" d="M16,7.15a1.55,1.55,0,0,1,.41-.09h0l0,0h0a1.57,1.57,0,0,0-.4.09Z"/><polyline class="cls-3" points="16.05 7.19 16.44 7.15 16.44 7.19 16.05 7.23"/><polyline class="cls-3" points="16.09 7.23 16.44 7.2 16.44 7.24 16.09 7.27"/><polyline class="cls-3" points="16.16 7.31 16.4 7.33 16.4 7.37 16.16 7.35"/><polyline class="cls-3" points="16.28 7.4 16.47 7.44 16.46 7.48 16.27 7.44"/><polyline class="cls-3" points="16.38 7.62 16.58 7.67 16.57 7.71 16.37 7.66"/><polyline class="cls-3" points="16.67 7.56 16.79 7.51 16.81 7.55 16.69 7.6"/><polyline class="cls-3" points="16.41 7.32 16.57 7.38 16.55 7.41 16.39 7.36"/><polyline class="cls-3" points="16.55 7.51 16.66 7.51 16.66 7.55 16.55 7.55"/><polyline class="cls-3" points="16.39 7.22 16.48 7.3 16.45 7.33 16.36 7.25"/><polyline class="cls-3" points="16.41 7.31 16.44 7.32 16.42 7.36 16.39 7.35"/><polyline class="cls-3" points="16.47 7.13 16.56 7.23 16.53 7.26 16.44 7.15"/><polyline class="cls-3" points="16.44 7.11 16.33 6.99 16.36 6.96 16.47 7.08"/><polygon class="cls-3" points="16.44 7.11 16.34 7 16.36 6.99 16.38 6.98 16.47 7.11 16.44 7.14 16.34 7 16.38 6.98 16.47 7.08 16.44 7.11"/><polyline class="cls-3" points="16.83 7.5 16.94 7.62 16.91 7.65 16.8 7.53"/><polyline class="cls-3" points="16.83 7.53 16.87 7.57 16.84 7.6 16.8 7.56"/><polyline class="cls-3" points="16.75 7.58 16.83 7.58 16.83 7.62 16.75 7.62"/><path class="cls-3" d="M17.52,8.15a1.4,1.4,0,0,0-.49-.1h-.18l-.07,0v0h0v0l.1-.08H17a1.36,1.36,0,0,1,.5.1Z"/><polygon class="cls-3" points="17.52 8.11 17.7 8.1 17.71 8.01 17.66 7.84 17.69 7.83 17.75 8.01 17.75 8.01 17.73 8.12 17.73 8.14 17.53 8.15 17.52 8.11"/><polygon class="cls-3" points="17.36 7.26 17.31 7.37 17.34 7.45 17.31 7.47 17.27 7.37 17.34 7.23 17.36 7.26"/><polygon class="cls-3" points="17.27 7.43 17.26 7.38 17.31 7.24 17.34 7.26 17.3 7.38 17.3 7.42 17.27 7.43"/><polygon class="cls-3" points="17.33 7.27 17.29 7.33 17.3 7.39 17.27 7.4 17.25 7.33 17.3 7.25 17.33 7.27"/><polyline class="cls-3" points="17.29 7.3 17.29 7.38 17.25 7.38 17.25 7.3"/><polyline class="cls-3" points="17.36 7.21 17.5 7.19 17.5 7.23 17.37 7.25"/><path class="cls-3" d="M17.06,7.31a1.11,1.11,0,0,0,.18,0v0a.72.72,0,0,1-.18,0Z"/><polyline class="cls-3" points="17.22 7.34 17.33 7.48 17.3 7.5 17.19 7.37"/><polyline class="cls-3" points="17.08 7.28 17.17 7.34 17.16 7.37 17.06 7.32"/><polyline class="cls-3" points="17.15 7.31 17.23 7.31 17.23 7.35 17.15 7.35"/><polyline class="cls-3" points="17.21 7.31 17.35 7.2 17.38 7.24 17.23 7.34"/><polyline class="cls-3" points="17.19 7.32 17.25 7.31 17.26 7.35 17.2 7.36"/><polyline class="cls-3" points="17.05 7.24 17.34 7.19 17.34 7.23 17.06 7.28"/><path class="cls-3" d="M15.18,7.61c-.16.1-.2.44-.21.54h0v0a2.26,2.26,0,0,0,.21.55l0,0a1.69,1.69,0,0,1-.19-.6V8.1h0a.65.65,0,0,1,.12-.37l0,0a.54.54,0,0,0-.12.35h0v0a1.58,1.58,0,0,0,.18.58l0,0a2.25,2.25,0,0,1-.22-.57v0h0c0-.09,0-.44.23-.56Z"/><path class="cls-3" d="M15.07,8a.69.69,0,0,1,.41-.29v0A.75.75,0,0,0,15.1,8Z"/><polyline class="cls-3" points="15.74 6.96 16.05 6.93 16.05 6.97 15.74 7"/><polyline class="cls-3" points="15.71 6.99 16.04 6.96 16.04 7 15.72 7.03"/><polyline class="cls-3" points="15.7 7.03 16.04 6.97 16.04 7.01 15.71 7.07"/><polyline class="cls-3" points="15.7 7.05 16.01 7 16.02 7.04 15.71 7.09"/><polyline class="cls-3" points="15.67 7.08 15.99 7.04 16 7.08 15.68 7.12"/><polyline class="cls-3" points="15.67 7.12 15.99 7.08 16 7.12 15.68 7.16"/><polyline class="cls-3" points="15.68 7.15 16.01 7.12 16.01 7.16 15.68 7.19"/><polyline class="cls-3" points="16.48 7.02 16.38 6.88 16.42 6.86 16.51 6.99"/><polygon class="cls-3" points="16.08 7.05 16.08 7.03 16.13 7.03 16.14 7.03 16.26 7.08 16.27 7.08 16.32 7.2 16.33 7.21 16.3 7.28 16.29 7.31 16.03 7.03 16.08 7.03 16.08 7.05 16.09 7.03 16.27 7.24 16.28 7.21 16.24 7.11 16.13 7.07 16.08 7.07 16.08 7.05 16.09 7.03 16.08 7.05"/><polyline class="cls-6" points="16.08 7.05 16.13 7.05 16.25 7.1 16.31 7.21 16.28 7.28 16.08 7.05"/><path class="cls-3" d="M16,7h0l0,.1,0,.06h0l.3.23h0l0,0c-.07-.08-.27-.22-.27-.39V7h0V7h0V7h0v.06c0,.14.18.28.26.36l0,0L16,7.21h0l0-.09L16,7l0,0h0Z"/><path class="cls-6" d="M16,7s-.1.09,0,.18l.3.23c-.08-.08-.27-.21-.27-.37V7"/><polygon class="cls-3" points="15.97 7.18 15.91 7.21 16.39 7.58 16.36 7.61 15.84 7.2 15.95 7.15 15.97 7.18"/><polyline class="cls-3" points="15.87 7.36 16.13 7.36 16.13 7.4 15.87 7.4"/><polyline class="cls-3" points="15.74 7.43 15.97 7.4 15.97 7.44 15.74 7.47"/><polyline class="cls-3" points="15.71 7.45 15.9 7.43 15.91 7.47 15.72 7.5"/><polyline class="cls-3" points="15.67 7.5 15.81 7.47 15.81 7.51 15.68 7.53"/><path class="cls-3" d="M15.87,7.36a.78.78,0,0,1,.19,0h.05v0h0l-.18,0Z"/><polyline class="cls-3" points="15.9 7.32 16.05 7.31 16.05 7.35 15.91 7.36"/><polyline class="cls-3" points="15.93 7.29 16.01 7.28 16.02 7.32 15.93 7.33"/><polyline class="cls-3" points="16.07 7.37 16.16 7.37 16.16 7.42 16.07 7.42"/><path class="cls-3" d="M15.22,8s-.05.09-.12.25v.11a.85.85,0,0,0,.12.35h0a.81.81,0,0,1-.13-.38l0-.11h0l.07-.19,0-.05h0V8h0V8h0V8h0l-.11.2h0l0,.12a.94.94,0,0,0,.13.39h0A1,1,0,0,1,15,8.33l0-.17,0-.09v0h0V8l0,0,0,0,0,0h0l0,0h0v0l0,0h0s0,0-.06.13l0,.15a1,1,0,0,0,.14.4l0,0A.93.93,0,0,1,15,8.34l0-.14h0a.74.74,0,0,1,.11-.2h0a2.61,2.61,0,0,0-.12.26h0v.1a.9.9,0,0,0,.12.36l0,0a.74.74,0,0,1-.13-.37l0-.12L15.19,8Z"/><path class="cls-3" d="M16.32,8a.29.29,0,0,1,.15.16l0,0c-.06-.11-.07-.1-.14-.14Z"/><polyline class="cls-3" points="16.39 8.04 16.49 8.13 16.47 8.16 16.36 8.07"/><path class="cls-3" d="M15.49,7.83h.2v0h-.2Z"/><polyline class="cls-3" points="15.56 7.8 15.75 7.83 15.74 7.87 15.55 7.84"/><polyline class="cls-3" points="15.29 7.96 15.37 7.89 15.39 7.92 15.31 7.99"/><polyline class="cls-3" points="15.82 7.98 16.25 7.9 16.26 7.94 15.83 8.02"/><polygon class="cls-3" points="15.62 7.8 16.01 7.83 16.01 7.87 15.53 7.86 15.53 7.82 16.01 7.83 16.01 7.85 16.01 7.87 15.62 7.84 15.62 7.8"/><polyline class="cls-3" points="15.68 7.83 15.78 7.83 15.78 7.87 15.68 7.87"/><path class="cls-3" d="M15.24,8a.75.75,0,0,1,.24-.16v0a.61.61,0,0,0-.23.15Z"/><polyline class="cls-3" points="15.25 7.98 15.57 8.06 15.56 8.1 15.24 8.02"/><path class="cls-3" d="M16.41,7.57l.24.06v0h.18l.13,0,0,0-.11,0h-.18a.62.62,0,0,1-.26-.07Z"/><path class="cls-3" d="M17.07,8.54a1.27,1.27,0,0,1,.33.57h0A1.3,1.3,0,0,0,17,8.56Z"/><path class="cls-3" d="M17.41,8.15c.14.06.27.13.3.25h0a.41.41,0,0,0-.27-.22Z"/><path class="cls-3" d="M17,8c.17.07.29,0,.4.11l0,0c-.1-.07-.22,0-.4-.11Z"/><path class="cls-3" d="M16.69,8A1.89,1.89,0,0,1,17,8a1,1,0,0,1,.36.06v0a.62.62,0,0,0,.26.06h0l0-.09-.06-.13,0,0,.08.16,0,.13-.07,0a1.35,1.35,0,0,1-.27-.07h0A1.06,1.06,0,0,0,17,8a1.15,1.15,0,0,0-.3,0Z"/><path class="cls-3" d="M16.6,8.35A.62.62,0,0,1,16.41,8l0-.12,0,0,0,.09a.56.56,0,0,0,.18.35Z"/><path class="cls-3" d="M16.51,7.84a.22.22,0,0,0-.05.15.6.6,0,0,0,.18.37l0,0a.63.63,0,0,1-.19-.4.26.26,0,0,1,.06-.18Z"/><polygon class="cls-3" points="16.64 7.82 16.62 7.95 16.63 8 16.6 8.02 16.58 7.95 16.59 7.82 16.64 7.82"/><polygon class="cls-3" points="16.77 7.91 16.77 7.94 16.78 8.03 16.76 8.07 16.73 8.04 16.74 8.03 16.73 7.94 16.73 7.9 16.77 7.91"/><path class="cls-3" d="M16.72,7.85V8h0l0,0h.4l.19,0,0,0-.16,0h-.3L16.68,8h0V7.85Z"/><polyline class="cls-3" points="16.88 8.01 16.63 7.99 16.63 7.95 16.88 7.96"/><path class="cls-3" d="M17.05,8.43a4.24,4.24,0,0,1,.26.39l0,0c-.06-.07-.13-.24-.26-.39Z"/><path class="cls-3" d="M17.33,8.43a1,1,0,0,1,.14.27l0,0a.82.82,0,0,0-.13-.27Z"/><path class="cls-3" d="M17.23,8.28c.15.12.17.25.21.26l0,0c-.07,0-.07-.15-.21-.27Z"/><path class="cls-3" d="M17.49,8.36a1.37,1.37,0,0,1,.19.24l0,0a.68.68,0,0,0-.18-.24Z"/><path class="cls-3" d="M17,8a1.45,1.45,0,0,1,.41.1l0,0a1.59,1.59,0,0,0-.4-.09Z"/><path class="cls-3" d="M16.91,8c.11.07.27.07.45.15a.87.87,0,0,1,.21.14v0c-.08,0,0,0-.22-.13s-.33-.08-.45-.15Z"/><path class="cls-3" d="M17.39,8.33c.1.07.18.05.24.1l0,0s-.13,0-.24-.1Z"/><path class="cls-3" d="M17.74,8a.74.74,0,0,1,.14.2l0,0a1,1,0,0,0-.13-.2Z"/><path class="cls-3" d="M17.73,8c.1.09.12.19.22.23l0,0c-.11,0-.14-.15-.23-.23Z"/><polygon class="cls-3" points="16.67 7.85 16.64 8 16.65 8.06 16.61 8.07 16.59 8 16.63 7.85 16.67 7.85"/><path class="cls-3" d="M16.76,8.08c0-.12,0-.24.08-.25v0l0,.06v.15Z"/><path class="cls-3" d="M17.79,7.34a1.25,1.25,0,0,0,.29.1v0a1,1,0,0,1-.3-.11Z"/><polyline class="cls-3" points="17.75 7.36 17.95 7.43 17.93 7.47 17.73 7.4"/><polygon class="cls-3" points="17.65 7.46 17.79 7.4 17.79 7.42 17.8 7.44 17.71 7.47 17.68 7.47 17.67 7.3 17.71 7.3 17.72 7.42 17.79 7.4 17.8 7.44 17.67 7.49 17.65 7.46"/><path class="cls-3" d="M18.1,7.49s-.28,0-.38-.08v0c.09,0,.34.06.4.09Z"/><path class="cls-6" d="M16.48,7.8a.34.34,0,0,0,0,.36V7.8"/><polygon class="cls-3" points="17.78 7.46 17.87 7.45 18.03 7.47 18.02 7.51 17.87 7.49 17.78 7.5 17.78 7.46"/><path class="cls-9" d="M17.38,7.8c.08,0,.2,0,.2.1s-.13.07-.16.07A1.77,1.77,0,0,0,17,7.86c-.12,0,0,.06.12.08s.16.06.14.11l.08-.25"/><path class="cls-3" d="M17.39,7.75l.13,0,.11.13,0,.11-.08,0H17.4L17,7.91v0h0l0,0h0l0,0,0,0h0l0,0,0,0h0l0,0h0l.14,0h0l.11,0,.06.09v0l-.08,0h0l-.11,0V8l-.1,0-.05,0L17,7.88l0,0H17a1.4,1.4,0,0,1,.4.11l0,0v0l.09,0h0v0l0,0-.14,0Z"/><polygon class="cls-3" points="17.8 7.67 17.95 7.66 18.09 7.69 18.07 7.72 17.95 7.7 17.81 7.71 17.8 7.67"/><polyline class="cls-3" points="17.59 7.83 17.68 7.9 17.66 7.93 17.57 7.87"/><polyline class="cls-3" points="17.61 7.87 17.7 7.94 17.68 7.97 17.58 7.91"/><polyline class="cls-3" points="17.61 7.92 17.7 7.98 17.68 8.02 17.58 7.95"/><polyline class="cls-3" points="17.59 7.94 17.68 8.01 17.66 8.04 17.57 7.97"/><polyline class="cls-3" points="17.58 7.97 17.67 8.03 17.65 8.07 17.55 8"/><polyline class="cls-3" points="17.56 7.99 17.66 8.05 17.64 8.08 17.54 8.03"/><polyline class="cls-3" points="17.51 8 17.61 8.06 17.58 8.1 17.49 8.03"/><polyline class="cls-3" points="17.47 8 17.55 8.05 17.53 8.08 17.45 8.03"/><polyline class="cls-3" points="17.41 7.98 17.51 8.03 17.49 8.07 17.4 8.02"/><polyline class="cls-3" points="17.35 7.95 17.45 8.02 17.42 8.05 17.33 7.99"/><path class="cls-3" d="M18.27,7.74a1.13,1.13,0,0,0-.37-.08l-.21,0v0l.22,0a1.08,1.08,0,0,1,.38.08Z"/><path class="cls-3" d="M17.37,7.67a1.31,1.31,0,0,1,.5.07l0,0a1.32,1.32,0,0,0-.48-.06Z"/><polygon class="cls-3" points="17.9 7.64 17.96 7.64 18.21 7.7 18.19 7.73 17.96 7.68 17.91 7.68 17.9 7.64"/><path class="cls-3" d="M18,7.62a.88.88,0,0,1,.2,0v0a.79.79,0,0,0-.2,0Z"/><path class="cls-3" d="M17.34,7.78h.05c.08,0,.21,0,.21.11v0L17.5,8l-.12,0V8a1.37,1.37,0,0,0-.31-.08h0v0l.28.12,0,0L17,7.91v0h0A1.33,1.33,0,0,1,17.4,8h0l.1,0,.06-.08h0l0-.06h-.17Z"/><polygon class="cls-3" points="17.18 7.89 17.28 7.95 17.37 7.99 17.36 8.03 17.26 7.99 17.26 7.99 17.15 7.92 17.18 7.89"/><path class="cls-3" d="M17.48,7.78a1.6,1.6,0,0,1,.43.11l0,0a1.62,1.62,0,0,0-.42-.1Z"/><path class="cls-3" d="M17.63,7.83a1.84,1.84,0,0,1,.23.06l0,0-.22,0Z"/><polyline class="cls-3" points="17.68 7.83 17.79 7.87 17.77 7.91 17.67 7.87"/><path class="cls-3" d="M16.67,8,17,8a1,1,0,0,1,.44.08.38.38,0,0,0,.16.06h0v0h0l.05-.17-.11-.1v0a1.51,1.51,0,0,1,.38.11l0,0a1.41,1.41,0,0,0-.36-.11v0h0l.12.11h0l0,.19v0H17.6a.46.46,0,0,1-.18-.07A1,1,0,0,0,17,8l-.33,0Z"/><path class="cls-3" d="M18.39,7.59a.9.9,0,0,1,.28.08v0a.9.9,0,0,0-.28-.08Z"/><path class="cls-3" d="M18.08,7.56a2.4,2.4,0,0,1,.52.1l0,0a2.38,2.38,0,0,0-.5-.09Z"/><path class="cls-3" d="M18,7.58a1.93,1.93,0,0,1,.46.08l0,0A2.07,2.07,0,0,0,18,7.62v0Z"/><path class="cls-3" d="M17,7.92c.11.1.32.22.45.33l0,0c-.12-.1-.33-.22-.44-.33Z"/><path class="cls-3" d="M17,7.94a2.2,2.2,0,0,0,.3.23l0,0A1.62,1.62,0,0,1,17,8Z"/><path class="cls-3" d="M17.24,8.1A1.5,1.5,0,0,1,17,8l0,0a1,1,0,0,0,.21.11Z"/><path class="cls-3" d="M17.21,7.63a1.07,1.07,0,0,0,.29,0l.25,0v0l-.26,0a1.87,1.87,0,0,1-.3,0Z"/><path class="cls-3" d="M17.61,7.18a.79.79,0,0,1,.29.09l0,0-.28-.1Z"/><path class="cls-3" d="M17.72,7.24a.29.29,0,0,1,.17.06l0,0a.27.27,0,0,0-.16,0Z"/><polyline class="cls-3" points="17.75 7.33 17.91 7.4 17.89 7.44 17.73 7.37"/><polyline class="cls-3" points="17.67 7.44 17.8 7.4 17.81 7.44 17.68 7.48"/><polyline class="cls-3" points="17.73 7.36 17.73 7.42 17.69 7.42 17.69 7.36"/><path class="cls-3" d="M17.18,8.12,17,8l0,0a1.82,1.82,0,0,1,.2.15Z"/><polyline class="cls-3" points="17.05 8.12 16.93 7.97 16.96 7.95 17.09 8.09"/><polyline class="cls-3" points="16.99 8.07 16.88 7.97 16.91 7.94 17.02 8.04"/><polyline class="cls-6" points="17.16 7.45 17.39 7.54 17.16 7.45"/><polyline class="cls-6" points="17.69 7.5 17.89 7.46 17.69 7.5"/><polyline class="cls-6" points="17.74 7.38 17.79 7.39 17.74 7.38"/><path class="cls-10" d="M15.18,8.11a.59.59,0,0,1,.36-.26l-.36.26"/><path class="cls-3" d="M15.14,8.08a.68.68,0,0,1,.38-.27l0,.08a.62.62,0,0,0-.34.24Z"/><path class="cls-10" d="M15.84,7.86a2.15,2.15,0,0,0,.39-.06.65.65,0,0,1,.28-.06l-.67.12"/><path class="cls-3" d="M15.84,7.82a1.52,1.52,0,0,0,.38-.07v0l0,0a.68.68,0,0,1,.31-.06v.09l-.26,0h0a1.72,1.72,0,0,1-.39.07Z"/><path class="cls-5" d="M16.75,7.7c.09,0,.27.07.37.08s.41,0,.43.08l0,.11c-.06,0-.21-.08-.41-.08s-.08,0-.08,0l.27.12,0,0A3.2,3.2,0,0,0,16.78,8l-.31-.07-.47,0,.29-.1c.06,0,.19,0,.3,0a1.07,1.07,0,0,1,.21,0h-.05"/><path class="cls-3" d="M16.76,7.66c.1,0,.27.07.37.08v0h.25c.1,0,.18,0,.23.1h0l0,.13V8H17.5a2.33,2.33,0,0,0-.4-.08H17l0,0v0h0l0,0v0l0,0,0,0v0l0,0,0,0h0v0l0,0h0l0,0,.31.14,0,.07v0h0L16.8,8h0L16.46,8l-.46,0,0-.1.3-.09v0l0,0a1.46,1.46,0,0,1,.31,0v0a.69.69,0,0,1,.22,0v.09a.68.68,0,0,0-.2,0h0a1.31,1.31,0,0,0-.28,0h-.06l.22,0h0l.32.07v0h0c.11,0,.39.06.48.07V8l0,0V8l.05,0,0,0L17,7.92v0h0v0l0,0h.08a1.59,1.59,0,0,1,.4.09h0V8l0,0,0-.1h0l0,0h0l-.16,0h-.23c-.12,0-.29-.07-.38-.08Z"/><path class="cls-11" d="M18.75,13h.35l-.18.43.42-.07v.51L19,13.67c-.16,0-.22.71.16.71,3.74,0,5.78-3.63,5.78-3.63s-.33.19-.51,0-.19-.36,0-.48a.31.31,0,0,1,.43.12s0-.45.37-.45.31.43.09.57c0,0,.5-.29.5.16s-.4.28-.63.2a7,7,0,0,1-12.95,0c-.24.08-.64.17-.64-.2s.51-.16.51-.16c-.23-.14-.32-.57.1-.57s.35.45.35.45a.33.33,0,0,1,.45-.12c.24.12.16.33,0,.48s-.53,0-.53,0,2,3.63,5.81,3.63c.35,0,.32-.71.16-.71l-.36.18v-.51l.42.07L18.4,13h.35"/><path class="cls-3" d="M20.7,4.91h0l-.08.28h0c-.09.09-.22.21-.22.35v.05h0a.22.22,0,0,1-.18.19v0h0c-.12.21-.25.37-.36.55h0L20,6.5h0l-.11.08h-.07l0,0h0l.11.42H19.8l-.2,0c-.05,0-.08,0-.1.11h0l.06.17,0,.07h-.18a2.41,2.41,0,0,0-1.85-.82h-.16v0h0v0h0a2.35,2.35,0,0,0-1,.33h0l-.1-.12h0v0c0-.1.11-.11.16-.16v0h0V6.53c0-.13-.17-.12-.28-.21h0c0-.13.18-.22.17-.3l0-.07h0V6l-.12-.07h0l.1-.15h0A4.61,4.61,0,0,0,16,4.87h0V4.77a1.87,1.87,0,0,0-.09-.46h0l-.07-.05-.08-.07v0h0v0A.16.16,0,0,1,15.9,4h0l.17.06h0l.09.14.19,0v0l.06.08v0l.05.06h.05l.09.1h0v.07l.13,0h0l0,.08c0,.1-.1.15-.1.2l0,.05h0L16.6,5h0c-.1,0-.17-.08-.24-.08l-.08,0h0l.08.16h.22l0,.18h0l-.12.09v0h0c.07.1.21.1.34.1v0a.45.45,0,0,0,.36-.28h0v0l-.16,0h0l-.11-.09-.17-.07h0v0c0-.09.1-.13.09-.17v0h0v0c0-.1.11-.1.1-.14l0,0h0L17,4.46h0l0-.07.09-.12h0l.21,0h0l0,.13h0v0h0l.17.12h0v0l.14.08h0l.05.08.08.09h0c-.11.08-.07.27-.25.28h0l-.19,0v0h0c0,.12.1.24.24.25h.05a.5.5,0,0,0,.37-.29h0l0-.12L18,4.87h0l0-.16v0l.15,0,0-.09L18,4.66h0l-.16-.13h0c0-.08-.13,0-.14-.17v0h0l.14-.17h.08L17.94,4h0l.18,0,0-.18h0c.1,0,.17,0,.2-.12h0l.22,0h0l.06.12h0v0s.12,0,.13.16h0l-.07.18.2,0h0l0,.07,0,.11.06,0h0l0,.21v0h-.06c-.07,0-.07.15-.19.15h0v0h0l-.11-.08-.06-.06,0,.06h0v0c0,.06.15.1.16.21l0,.1h0l-.17,0V5h0v.19l.05.2.21.14h0v0L19,5.39v0c-.08,0-.19,0-.24-.15h0v0L18.68,5l.07-.11h.11l.13-.1h0l0,0,0,0,.09-.07h.05l.06,0,.15,0,.12.09h0l0,0,.05,0,.08.08V5l-.1.18.06,0h0l0,.24h0l-.1.12h-.05l-.12,0,0,0v0h-.14l-.07-.07v0h0v0l.11.21h0v0a.54.54,0,0,0,.37.15h0V6h0l0-.21v0h.22l0,0,.12-.13,0,0h0v0l-.17,0-.17,0h0l0-.26h0l0,0,0-.2h0l.08,0,.15,0,0-.07V5l.21,0h0L20.31,5h0l.13.06.13-.12h.15v0h0v0h-.1L20.46,5h0l-.12,0-.14.11h0l0,0-.19,0v0h0l-.07.11-.15,0,0,0h0l0,.21h0l0,0,0,.23h0v0l.16,0,.15,0h0l0,.09h0l-.18.19,0-.08h-.16l0,.2h-.05a.6.6,0,0,1-.39-.16h0l-.11-.23,0-.06v0l.08.09h.1v0h0l.07-.08.12,0h0v0h0l.09-.12,0-.22h0v0l-.09-.08.1-.18h0L19.55,5l-.07-.06,0-.07h0l-.08-.06-.15,0-.09,0,0,0v0h0l-.05,0-.07.06-.07,0v0l-.13.1h-.12v0h0L18.72,5l.05.19,0,.07h0c0,.1.11.06.22.12l0,0-.27.18h0a.32.32,0,0,1-.24-.16l-.06-.22V5l.17,0V5h0l0-.07c0-.07-.15-.1-.16-.21v0h0l.06-.09.09.08.08.06h.05c.07,0,.07-.15.19-.16l0,0h0l0-.19h0v0l-.09-.08,0-.11,0,0v0l-.23,0h0l.09-.22h0c0-.08-.11-.05-.13-.16v0h0l-.05-.1-.2,0v0h0c-.05.09-.13.11-.23.14v0h0l0,.2V4l-.19,0,0,.13h-.09l-.13.16h0c0,.08.13.05.14.17h0l.13.11.17-.09h0l0,.16v0l-.17,0,0,.12.12.09h0l0,.15h0a.54.54,0,0,1-.41.32h-.06v0c-.17,0-.24-.16-.28-.28v0l.22,0v0c.14,0,.1-.16.23-.27v0h0l-.06-.06-.07-.11h0v0l-.15-.1h0V4.53h0l-.13-.09h0l0-.12-.19,0v0l-.06.08L17,4.49v0h0l-.11.14,0,0h0l0,.07-.1.14v0h0l0,.06-.09.17v0h0v0l.18.07h0l.1.07.15,0h0v0a.49.49,0,0,1-.4.31h0a.44.44,0,0,1-.38-.12h0l.12-.09,0-.13-.19,0h0L16.21,5V5h0l.11,0c.09,0,.16.09.24.08h0V5h0l.13-.11h0l0,0,0-.08.1-.2,0-.06h0v0l-.15,0h0l0-.09-.07-.09h0v0h0l-.09-.11v0l0,0h0l-.2,0h0l-.09-.14L15.9,4V4l-.1.12v0h0v0l0,0,.1.07h0a2.44,2.44,0,0,1,.09.47v.09h0a4.9,4.9,0,0,1,.19.88h0l-.09.12.11.06h0l0,.09c0,.12-.18.21-.17.3h0v0c.08.08.29.06.3.24v.06h0l-.14.13v0h0l.09.11h0v0a2.65,2.65,0,0,1,1.05-.34v0h0l0,0h0v0h0v0h.15a2.48,2.48,0,0,1,1.88.83h0v0h.15v0h0l0,0-.06-.16h0c0-.1.07-.14.14-.14l.2,0h0V7h0l-.11-.41h0l.09-.06h.07l.07,0h0l-.08-.18h0c.11-.2.24-.36.36-.56h0l.15-.15h0V5.56c0-.17.15-.29.23-.38h0l.08-.28h0v0Z"/><path class="cls-4" d="M20.7,4.91l-.08.28c-.09.11-.25.25-.21.42s-.07.16-.16.17c-.12.21-.26.37-.36.56l.08.17c0,.13-.19,0-.23.11l.11.4c-.14,0-.33-.14-.37.09,0,.08.08.14,0,.23h-.14a2.5,2.5,0,0,0-2-.81v0a2.35,2.35,0,0,0-1,.33l-.1-.11c0-.1.08-.12.15-.17.05-.22-.17-.19-.28-.28s.25-.23.15-.38l-.13-.07.1-.13A5,5,0,0,0,16,4.86a1.44,1.44,0,0,0-.08-.55c0-.08-.17,0-.15-.13A.15.15,0,0,1,15.9,4l.18.06.09.14.2,0c.1,0,0,.2.15.16l.08.09v.08l.15,0c.1.16-.16.2-.05.33L16.59,5c-.14,0-.23-.16-.36,0l.08.17h.21l0,.16-.11.08c.08.11.23.11.36.11a.49.49,0,0,0,.38-.3l-.16,0-.11-.08-.18-.06c0-.12.15-.15.07-.26s.16-.09.08-.23L17,4.47c.12,0,0-.18.13-.19l.2,0,0,.12c.1,0,.18,0,.19.11v0l.15.09c0,.12.14.09.13.19s-.08.27-.24.27l-.19,0c0,.12.11.26.26.27s.37-.15.44-.29l0-.14L18,4.86l0-.15.16,0,0-.13L18,4.64l-.15-.12c0-.1-.16-.06-.14-.18l.13-.16h.08L18,4l.19,0,0-.2c.09,0,.17-.05.21-.13l.21,0,.06.11c0,.12.12.08.12.19l-.08.2.23,0c.1.07-.11.19.08.22l0,.18c-.15-.06-.12.19-.27.14s-.16-.27-.22-.07.26.15.11.32l-.16,0a.56.56,0,0,0,0,.4.28.28,0,0,0,.25.15L19,5.41c-.09-.06-.19,0-.23-.14s-.12-.22,0-.34h.11L19,4.83c.14.1.08-.13.22-.08s.26-.08.32.08c-.12.11.08.08.09.18s-.21.18,0,.25l0,.23-.09.12c-.07,0-.17-.12-.2,0h-.11l-.07-.07c0,.09.06.18.1.27a.61.61,0,0,0,.41.15l0-.22h.19l0,.07.15-.16,0-.07a.39.39,0,0,1-.32,0l0-.24,0,0,0-.21c.07-.13.26.12.26-.09l.18,0,0,0L20.33,5l.12,0,.15-.12h.1"/><polygon class="cls-3" points="20.29 5.72 20.29 5.74 20.24 5.75 20.11 5.64 20.11 5.62 20.11 5.61 20.2 5.48 20.21 5.46 20.38 5.55 20.39 5.56 20.3 5.73 20.3 5.73 20.29 5.74 20.29 5.72 20.27 5.71 20.34 5.58 20.23 5.51 20.14 5.64 20.13 5.62 20.15 5.63 20.15 5.64 20.24 5.7 20.28 5.7 20.29 5.72 20.27 5.71 20.29 5.72"/><path class="cls-12" d="M20.29,5.72c-.1,0-.18,0-.16-.1l.09-.13.15.08-.08.15"/><path class="cls-13" d="M19.85,6.29l0,0-.13-.12,0,0h0L19.93,6h0l0,0a.63.63,0,0,1-.34.12h0L19.47,6V6l.18,0,.1,0h0l0-.16v0h.17v.14h0v0l.2-.18v0l.11.07h0v0a3.77,3.77,0,0,0-.34.51h0l0,0h0a5.65,5.65,0,0,1,.34-.51h0v0l-.09,0v0h0a.36.36,0,0,1-.22.2h0V5.82h-.08l0,.14h0l-.14.07-.18,0V6h0l.14.12h0v0A.61.61,0,0,0,19.94,6l0,0c0,.11-.17.13-.25.17v0h0l.14.12Z"/><path class="cls-14" d="M19.85,6.29l-.14-.12c.08,0,.22-.06.24-.16a.54.54,0,0,1-.32.12L19.48,6c.1,0,.23.07.3,0l0-.16h.12v.12a.38.38,0,0,0,.22-.19l.09,0c-.13.15-.21.35-.33.51"/><path class="cls-13" d="M20.07,5.57v0h0l-.19,0-.1,0h0l0-.17h0l.15-.06h0s-.12,0-.16-.12h0l.1-.12h0l.09.07.05.05h0l0-.15v0l.17,0h0v0a1.06,1.06,0,0,1,.07.37h0l-.11.14h0v0h0l.1-.14,0,0h0a1,1,0,0,0-.07-.36h0v0H20l0,.13h0l-.05,0-.08-.07-.06,0h0v0h0l-.09.11,0,0h0l.16.12v0l-.14,0,0,.15h0v0l.07,0,.19,0h0v0h0Z"/><path class="cls-14" d="M20.07,5.57c-.1,0-.2.08-.29,0l0-.16.13-.06s-.13,0-.16-.12l.1-.1c.09,0,.08.17.18.1l0-.14.14,0a1.06,1.06,0,0,1,.07.37l-.11.13"/><path class="cls-13" d="M19.85,6.54h0a3.33,3.33,0,0,0-2.33-.94,2.82,2.82,0,0,0-.71.09v0a4.53,4.53,0,0,0-.59.21h-.1l0-.1h0a3.23,3.23,0,0,1,1.38-.3,3.46,3.46,0,0,1,2.23.78h0c0,.05.16.1.17.19l-.08.09h0v0l.05-.06-.17-.17h0l0,0a3.36,3.36,0,0,0-2.2-.78,3.19,3.19,0,0,0-1.37.3v0h0v.06h0v0c.19-.08.39-.14.59-.21h0a2.9,2.9,0,0,1,.72-.09,3.37,3.37,0,0,1,2.36.95Z"/><path class="cls-14" d="M19.85,6.54a3.34,3.34,0,0,0-3.06-.86c-.2.07-.4.13-.59.21h-.07V5.8a3.46,3.46,0,0,1,3.6.48c0,.08.29.15.11.26"/><path class="cls-3" d="M19.82,7V7h-.1c-.09,0-.2,0-.2-.13h0l0-.17v0l.23,0h0v0l.1.29V7h0V7h0a2.43,2.43,0,0,1-.09-.3h0v0l-.2,0,0,.15h0c0,.08.07.09.16.09h.1V7h0Z"/><path class="cls-15" d="M19.82,7c-.1,0-.28,0-.28-.11l0-.17.21,0,.1.3"/><path class="cls-13" d="M19.51,6.63v0h-.08v0h0a2,2,0,0,1,.08.37h0l-.07.09h0a2.82,2.82,0,0,0-1.93-.78,2.14,2.14,0,0,0-.8.14,1.34,1.34,0,0,1-.3.12h0l0-.14h0c.07-.11.19-.18.24-.29h0l0,0c-.09-.06-.32,0-.33-.22h0a3,3,0,0,1,1.25-.27,3.2,3.2,0,0,1,2.23.88h0l-.05.11-.1,0h-.11v0h.11l.11-.09h0v0a3.2,3.2,0,0,0-2.21-.87,2.87,2.87,0,0,0-1.23.27v0h0c0,.12.2.12.32.19h0c-.06.13-.18.2-.24.3h0l0,.11h0v0a1.38,1.38,0,0,0,.29-.12,2.19,2.19,0,0,1,.81-.14,2.86,2.86,0,0,1,2,.79h0L19.49,7h0a1.6,1.6,0,0,0-.08-.36l0,0h.12Z"/><path class="cls-14" d="M19.51,6.63h-.08a1.74,1.74,0,0,1,.08.36l-.07.08a2.73,2.73,0,0,0-2.75-.64,1,1,0,0,1-.29.12l0-.12c.07-.11.19-.17.24-.3s-.33,0-.32-.21a3.2,3.2,0,0,1,3.46.6c0,.15-.15.1-.24.11"/><path class="cls-13" d="M19.44,7.34v0c-.15-.06-.22-.21-.3-.26h0a2.32,2.32,0,0,0-1.61-.6,2.12,2.12,0,0,0-.91.19h0c-.1,0-.2.13-.31.13h-.07V6.67h0a2.71,2.71,0,0,1,1.34-.35,2.37,2.37,0,0,1,1.28.35,1.54,1.54,0,0,1,.66.58h0l-.06.09v0h0v0h0l.05-.08h0a1.63,1.63,0,0,0-.65-.57,2.38,2.38,0,0,0-1.26-.34,2.73,2.73,0,0,0-1.32.34v0h0v.11h0v0h0c.09,0,.18-.1.3-.13v0a2.21,2.21,0,0,1,.93-.19,2.41,2.41,0,0,1,1.64.61v0c.1.06.16.2.29.25v0h0Z"/><path class="cls-14" d="M19.44,7.34c-.13,0-.2-.2-.29-.25a2.4,2.4,0,0,0-2.55-.42c-.12,0-.23.16-.35.12V6.68a2.65,2.65,0,0,1,2.6,0,1.68,1.68,0,0,1,.66.58l-.06.08"/><polygon class="cls-13" points="19.46 6.48 19.44 6.5 19.38 6.45 19.36 6.43 19.44 6.35 19.48 6.36 19.48 6.48 19.48 6.53 19.44 6.5 19.46 6.48 19.44 6.48 19.44 6.41 19.42 6.43 19.47 6.47 19.46 6.48 19.44 6.48 19.46 6.48"/><polyline class="cls-14" points="19.46 6.48 19.39 6.43 19.46 6.36 19.46 6.48"/><polyline class="cls-11" points="19.46 6.44 19.42 6.4 19.46 6.36 19.46 6.44"/><path class="cls-13" d="M19.52,5.57v0h0l-.12-.09v0h0l-.08.14v0l-.1-.18,0-.06.05,0h0v0l.15.08h0v0h0c0-.06-.11-.11-.11-.21v0h.24l0,.13v0l-.08,0v0h0l.06,0,.06.08h0l-.08.1h0v0h0l.08-.1v0h0l0,0-.09-.05,0,0,.08,0V5.25h-.2v0h0v0l.11.19v0h-.05l-.14-.07v0h0l-.08,0v0l.07.11.06-.11v0h0l.1.09h0v0h0Z"/><path class="cls-14" d="M19.52,5.57c-.09,0-.09-.07-.14-.09l-.08.14-.08-.14c-.06-.1.05-.07.06-.1l.14.07h0c0-.08-.13-.12-.11-.23h.22v.12l-.07,0c0,.07.12,0,.12.1l-.08.09"/><polygon class="cls-13" points="19.28 6.79 19.27 6.81 19.19 6.72 19.16 6.7 19.3 6.67 19.34 6.66 19.3 6.8 19.29 6.83 19.27 6.81 19.28 6.79 19.26 6.79 19.28 6.71 19.24 6.72 19.3 6.78 19.28 6.79 19.26 6.79 19.28 6.79"/><polyline class="cls-14" points="19.28 6.79 19.2 6.71 19.31 6.68 19.28 6.79"/><polyline class="cls-11" points="19.28 6.74 19.24 6.72 19.28 6.7 19.34 6.7 19.28 6.74"/><path class="cls-13" d="M19.43,5.19v0h-.07l-.06,0,0,0v0h0l.09-.19h0V5c-.06,0-.11.13-.22.13h0v0l0-.2.1-.12h0l.08.06,0,0h0l0,0h0l.09-.08v0l.07.12h0l0,.09h0V5h.08V5l-.15.2h0v0h0L19.54,5V5h0V5h-.07l-.06,0,0-.09h0l0-.07-.07.06v0l-.05,0-.06-.06-.05,0v0l-.07.09,0,.2h0v0h0c.07,0,.12-.11.22-.13h0l-.11.23h0v0l.05,0h.07v0h0Z"/><path class="cls-14" d="M19.43,5.19c-.07,0-.15,0-.13-.06l.09-.19c-.08,0-.13.15-.23.13s-.12-.25,0-.31.07.18.15.08l.08-.08.05.1s-.09.11,0,.12h.07a.18.18,0,0,1-.12.22"/><path class="cls-13" d="M19.1,6.51v0a.46.46,0,0,1-.38-.31h0l.12-.12h0a.46.46,0,0,1,.41.29h0l-.1.16-.07,0,0,0v0l0,0,0,0,0-.08h0a.42.42,0,0,0-.37-.26v0h0l-.1.11,0,0h0a.43.43,0,0,0,.35.28h0Z"/><path class="cls-14" d="M19.1,6.51a.44.44,0,0,1-.37-.3l.11-.1a.44.44,0,0,1,.39.28c0,.05,0,.19-.13.12"/><path class="cls-3" d="M19.12,6.48v0a.58.58,0,0,1-.38-.28h0l.14-.08h0a.32.32,0,0,1,.31.26h0l-.06.1v0h0v0h0l.06-.09h0a.29.29,0,0,0-.27-.22v0h0l-.12.07v0h0a.48.48,0,0,0,.35.26v0h0Z"/><path class="cls-5" d="M19.12,6.48a.56.56,0,0,1-.36-.27l.12-.06a.31.31,0,0,1,.29.24l-.05.09"/><path class="cls-13" d="M19,5.69h0V5.55l-.21.14-.11-.05v0A.4.4,0,0,0,19,5.36v0h0l.1.14v.13l0,.11h0l.1.14,0,0S19,5.85,19,5.7h0c0,.1.14.11.21.16l0,0h0l-.1-.13h0l-.05-.14V5.49L19,5.39v0h0a.45.45,0,0,1-.36.26v0l.1,0,.25-.16v.21h0Z"/><path class="cls-14" d="M19,5.69V5.52l-.23.14-.11,0A.44.44,0,0,0,19,5.37c.17,0,0,.25.12.38l.09.13s-.23,0-.21-.19"/><path class="cls-3" d="M19.15,5.38v0L19,5.32h0l.1-.18h0c.07,0,.14,0,.17.12h0l-.15.15h0v0h0l.14-.14v0h0c0-.09-.05-.06-.15-.09v0h0l-.09.14.11.07v0h0Z"/><path class="cls-16" d="M19.15,5.38,19,5.3l.09-.16c.08,0,.14,0,.16.11l-.13.13"/><polygon class="cls-13" points="18.88 5.7 18.87 5.69 18.96 5.61 18.98 5.59 19.03 5.76 19.05 5.81 18.87 5.72 18.84 5.71 18.87 5.69 18.88 5.7 18.89 5.69 18.98 5.73 18.96 5.66 18.89 5.72 18.88 5.7 18.89 5.69 18.88 5.7"/><polyline class="cls-14" points="18.88 5.7 18.97 5.62 19.01 5.77 18.88 5.7"/><path class="cls-13" d="M19.05,5.13v0l-.16-.06v0h0c0,.06.1.1.1.2v0h-.23V5.19h0l0,0-.09-.07h0L18.78,5v0l.11,0V5h0L19,4.84h0c.12,0,.11.16.14.2h0l-.06.09h0v0h0L19.09,5h0L19,4.88v0h0L18.93,5,19,5l0,0-.13,0,0,.08.09.07h0l-.05,0v.08H19v0h0v0c0-.07-.09-.1-.1-.2v0l.19.06v0h0Z"/><path class="cls-14" d="M19.06,5.13l-.17-.06c0,.08.12.12.1.23H18.8V5.19l0,0-.11-.08L18.8,5,19,5l0-.07L19,4.86c.09,0,.09.13.12.19l-.05.08"/><polygon class="cls-13" points="18.88 4.59 18.87 4.61 18.75 4.55 18.77 4.7 18.77 4.73 18.59 4.63 18.58 4.63 18.54 4.46 18.53 4.44 18.66 4.42 18.55 4.38 18.54 4.38 18.54 4.37 18.53 4.33 18.61 4.25 18.66 4.19 18.66 4.17 18.84 4.18 18.86 4.18 18.9 4.32 18.91 4.33 18.85 4.36 18.97 4.45 18.99 4.47 18.9 4.6 18.89 4.62 18.87 4.61 18.88 4.59 18.86 4.58 18.93 4.47 18.8 4.36 18.77 4.34 18.86 4.31 18.82 4.22 18.68 4.21 18.68 4.19 18.7 4.19 18.62 4.28 18.57 4.33 18.58 4.36 18.56 4.36 18.57 4.34 18.75 4.41 18.75 4.45 18.58 4.47 18.62 4.6 18.72 4.66 18.71 4.51 18.71 4.47 18.89 4.57 18.88 4.59 18.86 4.58 18.88 4.59"/><path class="cls-14" d="M18.88,4.59l-.15-.08,0,.19-.15-.08,0-.16.19,0-.19-.07c0-.1.12-.08.12-.17h.16l0,.12-.07,0,.15.12-.08.12"/><polygon class="cls-13" points="18.69 6 18.69 6.02 18.63 6.02 18.61 6.02 18.61 5.92 18.61 5.9 18.68 5.9 18.7 5.9 18.71 6 18.72 6.02 18.69 6.02 18.69 6 18.67 6 18.66 5.94 18.64 5.94 18.64 5.98 18.69 5.98 18.69 6 18.67 6 18.69 6"/><polyline class="cls-14" points="18.69 6 18.63 6 18.63 5.92 18.68 5.92 18.69 6"/><polyline class="cls-11" points="18.66 5.99 18.61 5.95 18.64 5.92 18.66 5.99"/><polygon class="cls-13" points="18.56 6.39 18.55 6.4 18.48 6.35 18.46 6.34 18.53 6.24 18.54 6.23 18.65 6.3 18.67 6.32 18.57 6.4 18.56 6.42 18.55 6.4 18.56 6.39 18.55 6.37 18.61 6.32 18.55 6.28 18.52 6.33 18.57 6.37 18.56 6.39 18.55 6.37 18.56 6.39"/><polyline class="cls-14" points="18.56 6.39 18.49 6.33 18.55 6.25 18.64 6.32 18.56 6.39"/><polyline class="cls-11" points="18.53 6.36 18.55 6.31 18.6 6.32 18.53 6.36"/><path class="cls-13" d="M18.44,5.56h0a.55.55,0,0,1-.19-.47h0a1.1,1.1,0,0,1-.34.38h0l-.18,0H17.6a.26.26,0,0,1-.26-.13l-.05-.07h0c-.06.1-.15.23-.27.23H17l0,0c.11-.12.26-.26.25-.43V5h.12c0,.15,0,.3.15.38h0l.17.07.13,0a.63.63,0,0,0,.35-.52h0v0l-.18,0h0V4.75h0l.15,0h0l0,.06h0l0-.2v0h.18l.07,0h0l0,.21h0s.14,0,.15.11h0L18.49,5h0L18.4,5V5h0l0,.16,0,.26h0a.55.55,0,0,0,.2.2v0l-.17,0h0v0l.16,0v0a.47.47,0,0,1-.21-.21h0l0-.26,0-.18h0l.07,0,.1-.12v0h0l-.13-.08h0l0-.19h-.18l0,.19h0l0,0,0,0,0-.08-.11,0v.09h.18v0a.66.66,0,0,1-.38.56l-.14,0-.2-.08h0v0c-.16-.11-.13-.28-.17-.4h0V5h-.08V5h0V5a.71.71,0,0,1-.26.46h0v0h0c.09,0,.18-.12.23-.21l0,0,.06.1a.24.24,0,0,0,.23.11h.14l.2,0v0a1.15,1.15,0,0,0,.33-.37h0a.52.52,0,0,0,.17.44Z"/><path class="cls-14" d="M18.44,5.56a.55.55,0,0,1-.18-.46,1.16,1.16,0,0,1-.33.38c-.22-.1-.44.06-.58-.15l0-.07c0,.09-.15.22-.25.22h0c.12-.14.28-.29.25-.5h.08c0,.13,0,.29.16.39a.31.31,0,0,0,.32,0,.63.63,0,0,0,.37-.54l-.18,0V4.75l.14,0,0,.07,0,0,0-.2h.16l.07,0,0,.18s.13,0,.14.1l-.1.12-.07,0a.7.7,0,0,0,0,.43.43.43,0,0,0,.2.2l-.16,0"/><path class="cls-13" d="M18.34,6.2v0a5.24,5.24,0,0,1-.53-.08h0a1.5,1.5,0,0,1,0-.29h0l.09,0h0l.51.1-.08.33h0v0h0l.07-.28-.46-.09-.08,0v0h0a1.27,1.27,0,0,0,0,.28h0v0a4,4,0,0,0,.52.08v0h0Z"/><path class="cls-14" d="M18.34,6.2a4.67,4.67,0,0,1-.52-.08,1.33,1.33,0,0,1,0-.28l.08,0,.48.1-.07.29"/><path class="cls-13" d="M18.53,4.24h0l-.08-.1h0a.51.51,0,0,0,0-.22h0c-.06.08-.05.25-.18.27h0v0c0-.09-.15-.17-.15-.28l0-.09h.15v0h0l.09-.14,0,0,.17.12h0l0,.13.09,0h0l0,.13h0c0,.12-.16.16-.19.26v0l0,0h0c0-.12.17-.16.19-.26h0l0-.09-.1,0h0l.05-.16-.13-.09-.08.11V3.9l0,0,0-.08h-.1l0,.06c0,.08.11.17.15.27h0v0c.09,0,.1-.15.15-.25h0a.56.56,0,0,1,0,.23h0l.08.11Z"/><path class="cls-14" d="M18.53,4.24l-.08-.11a.49.49,0,0,0,0-.22c-.06.09-.06.25-.16.27S18.1,4,18.2,3.83h.12l.05.08V3.78l.09-.13.16.11,0,.15.12,0,0,.11c0,.1-.15.14-.19.25"/><path class="cls-3" d="M18.32,6.15v0a3.2,3.2,0,0,1-.46-.06h0l.1-.28h0a3.25,3.25,0,0,1,.42.11h0l0,.2v0h0v0h0l0-.19h0V6c-.12-.05-.28-.07-.41-.11v0h0l-.08.24h0v0a3.4,3.4,0,0,0,.46.06v0h0Z"/><path class="cls-16" d="M18.32,6.15a3.4,3.4,0,0,1-.46-.06l.08-.24a4.26,4.26,0,0,1,.42.11l0,.19"/><path class="cls-13" d="M18,5.46h0l.19-.25v0c.06.1.07.2.14.3l0,0L18,5.48l0,0h0v0l.31.07v0h0c-.07-.11-.08-.21-.13-.29l0,0v0L18,5.47h0v0Z"/><path class="cls-14" d="M18,5.46l.18-.23a2.48,2.48,0,0,0,.13.3L18,5.46"/><path class="cls-3" d="M18.38,4.5v0l-.15,0h0l.05-.24v0l.22,0h0l0,.09a.15.15,0,0,1-.14.16h0v0l.1-.12,0-.07h0v0l-.18,0,0,.17.13,0Z"/><path class="cls-5" d="M18.38,4.5l-.14,0,0-.21.2,0c0,.07,0,.22-.1.22"/><path class="cls-13" d="M18,4.31v0h0l.16.08h0a.27.27,0,0,1-.23.19h0l-.06-.07h0l0-.13-.13,0h0l0-.15v0l.12-.09h0l.11.05h0l0-.16v0h.21l.08.17-.11.13-.09,0v0l.07,0,.07-.09-.06-.13v0H18l0,.15h0l0,0h0l-.1,0-.09.06,0,.1.14,0h0l0,.17,0,.06h0v0h0l.19-.17h0v0l-.23-.12v0H18Z"/><path class="cls-14" d="M18,4.31h-.09l.23.12c0,.08-.12.19-.23.17l-.05-.06,0-.15-.16,0,0-.14.1-.08.11.06,0,0,0-.17h.18c.1.06.12.33-.1.24"/><polygon class="cls-13" points="17.63 6.19 17.61 6.2 17.59 6.14 17.59 6.13 17.61 6.06 17.62 6.05 17.63 6.05 17.72 6.14 17.66 6.21 17.63 6.21 17.62 6.2 17.61 6.2 17.63 6.19 17.64 6.17 17.66 6.17 17.68 6.14 17.63 6.09 17.63 6.07 17.65 6.07 17.63 6.13 17.65 6.18 17.63 6.19 17.64 6.17 17.63 6.19"/><path class="cls-14" d="M17.63,6.19l0-.06,0-.06c.1,0,.1.14,0,.12"/><polyline class="cls-11" points="17.62 6.16 17.61 6.11 17.67 6.11 17.62 6.16"/><polygon class="cls-13" points="17.65 5.81 17.63 5.82 17.61 5.75 17.61 5.72 17.76 5.75 17.76 5.79 17.66 5.83 17.63 5.84 17.63 5.82 17.65 5.81 17.64 5.79 17.68 5.78 17.66 5.77 17.67 5.81 17.65 5.81 17.64 5.79 17.65 5.81"/><polyline class="cls-14" points="17.65 5.81 17.63 5.75 17.75 5.77 17.65 5.81"/><polyline class="cls-11" points="17.66 5.78 17.65 5.77 17.71 5.77 17.66 5.78"/><path class="cls-13" d="M17.69,4.94V5l-.09,0h0v0h0L17.7,5l0,0-.11.1h0c-.13,0-.17-.08-.24-.14h0c0-.11.15-.13.21-.16v0l-.13,0h0l.16-.18h.11v.11h0l-.09.08v0h0l.12,0,.09,0h0L17.7,5h0v0h0l.09-.12h0l-.05,0-.12,0h-.06l.1-.09V4.65h-.05l-.11.12.1,0v0L17.39,5h0V5c.07.07.1.13.21.13v0h0L17.66,5l-.11-.08,0,0,0,0h0l.1,0v0h0Z"/><path class="cls-14" d="M17.69,4.94l-.1,0h0l.12.1-.1.09c-.12,0-.16-.07-.23-.13s.14-.13.21-.15l-.14,0,.14-.15h.08v.09l-.08.07c.06,0,.16-.07.21,0l-.09.12"/><path class="cls-13" d="M17.42,6.07h0a.55.55,0,0,1-.33.09h0l-.19-.08h0l0-.16h0a.69.69,0,0,1,.37-.13l.21.07h0V6h0l-.09,0h0v0l.07,0V5.85h0v0l-.19-.06a.73.73,0,0,0-.35.12h0l0,.13.17.08v0a.53.53,0,0,0,.31-.08h0Z"/><path class="cls-14" d="M17.42,6.07a.59.59,0,0,1-.32.08l-.19-.08,0-.15a.5.5,0,0,1,.56-.07V6l-.08,0"/><path class="cls-3" d="M17.29,6.07v0l-.19,0L17,6.05h0V5.92h0a.6.6,0,0,1,.32-.1l.18,0h0l0,.08c0,.1-.17.14-.22.17h0v0l.19-.13,0-.06h0v0l-.16,0a.54.54,0,0,0-.3.1v0h0V6h0V6l.11.05.19,0Z"/><path class="cls-5" d="M17.29,6.07c-.1,0-.22.06-.31,0V5.92a.51.51,0,0,1,.48-.07c.11.12-.11.19-.17.22"/><polygon class="cls-13" points="17.2 5.45 17.19 5.44 17.27 5.33 17.28 5.31 17.41 5.41 17.44 5.43 17.21 5.47 17.19 5.44 17.2 5.45 17.2 5.43 17.34 5.41 17.29 5.37 17.22 5.46 17.2 5.45 17.2 5.43 17.2 5.45"/><polyline class="cls-14" points="17.2 5.45 17.29 5.34 17.39 5.42 17.2 5.45"/><polygon class="cls-13" points="17.41 4.68 17.39 4.7 17.29 4.66 17.2 4.57 17.2 4.53 17.22 4.54 17.24 4.54 17.16 4.73 17.15 4.75 16.96 4.75 16.94 4.75 16.93 4.57 16.93 4.55 17.07 4.52 17.07 4.51 17.12 4.54 17.05 4.4 17.05 4.38 17.18 4.27 17.19 4.26 17.32 4.3 17.33 4.31 17.29 4.57 17.27 4.56 17.27 4.54 17.28 4.54 17.43 4.41 17.51 4.45 17.51 4.46 17.52 4.46 17.54 4.54 17.41 4.7 17.4 4.71 17.39 4.7 17.41 4.68 17.4 4.67 17.5 4.54 17.48 4.48 17.5 4.47 17.48 4.48 17.43 4.45 17.28 4.58 17.27 4.58 17.25 4.58 17.29 4.33 17.2 4.3 17.1 4.39 17.18 4.57 17.16 4.59 17.07 4.56 16.97 4.58 16.98 4.7 17.12 4.7 17.2 4.53 17.24 4.54 17.23 4.57 17.3 4.62 17.42 4.67 17.41 4.68 17.4 4.67 17.41 4.68"/><path class="cls-14" d="M17.41,4.68c-.05-.06-.22,0-.19-.14l-.08.18H17V4.56l.12,0,.09,0-.09-.19.12-.11.12,0,0,.24c.08,0,.11-.21.23-.09a.14.14,0,0,1-.09.21"/><polygon class="cls-3" points="17.22 4.91 17.2 4.93 17.11 4.83 17.09 4.82 17.27 4.7 17.29 4.68 17.38 4.82 17.39 4.84 17.23 4.93 17.21 4.94 17.2 4.93 17.22 4.91 17.21 4.89 17.34 4.83 17.28 4.74 17.16 4.82 17.23 4.9 17.22 4.91 17.21 4.89 17.22 4.91"/><polyline class="cls-16" points="17.22 4.91 17.12 4.82 17.29 4.71 17.36 4.83 17.22 4.91"/><path class="cls-13" d="M17,5.18h0l0-.11-.15,0h0l0-.13h0l.09,0-.05-.13h0l.08,0,.16,0h0l0,0L17,4.9l.17,0h0V5A.26.26,0,0,1,17,5.2h0v0a.23.23,0,0,0,.19-.2h0V5L17,4.93h0l.11-.14h0v0h0l-.16-.05-.05,0h0l.06.15V5l-.1,0v.07L17,5h0l.06.13h0v0Z"/><path class="cls-14" d="M17,5.18,17,5.06l-.16,0V5l.1,0-.06-.15c.08-.11.16,0,.26,0l-.1.12.2.06a.25.25,0,0,1-.2.21"/><polygon class="cls-13" points="16.75 6.29 16.74 6.31 16.68 6.27 16.66 6.25 16.76 6.17 16.77 6.16 16.78 6.17 16.85 6.26 16.79 6.32 16.74 6.31 16.74 6.31 16.74 6.31 16.75 6.29 16.75 6.28 16.79 6.28 16.81 6.26 16.77 6.21 16.78 6.19 16.79 6.2 16.73 6.25 16.76 6.28 16.75 6.29 16.75 6.28 16.75 6.29"/><path class="cls-14" d="M16.75,6.29l-.06,0,.09-.07c.06,0,.08.15,0,.1"/><polyline class="cls-11" points="16.75 6.28 16.7 6.25 16.79 6.23 16.75 6.28"/><polygon class="cls-13" points="16.71 6.01 16.7 6.03 16.61 5.95 16.59 5.92 16.71 5.87 16.75 5.86 16.73 6.01 16.72 6.06 16.7 6.03 16.71 6.01 16.69 6.01 16.7 5.92 16.66 5.94 16.72 6 16.71 6.01 16.69 6.01 16.71 6.01"/><polyline class="cls-14" points="16.71 6.01 16.63 5.93 16.72 5.89 16.71 6.01"/><polyline class="cls-11" points="16.7 5.95 16.67 5.92 16.73 5.92 16.7 5.95"/><path class="cls-13" d="M16.41,5.53h0l-.16-.19h0a.49.49,0,0,0,.22.25l0,0-.3.1v0c0-.21-.12-.39-.12-.61V5h.14V5c0,.08.1.15.11.25h0l.06-.13v0l.14,0h0v.14l-.08.06H16.4l0,0h0c.06.09.2.09.34.13v0l-.23.06-.13-.08h0l.1.06.23-.06v0c-.13,0-.29,0-.36-.15h0l0-.07,0,0h.05l0,0V5.18H16.4l0,.12h0c0-.08-.1-.15-.11-.26V5h0V5h-.1V5h0v.08c0,.21.12.38.12.61h0v0l.22-.08v0a.65.65,0,0,1-.24-.28h0v0h0l.16.19h0Z"/><path class="cls-14" d="M16.41,5.53l-.16-.19h0a.51.51,0,0,0,.23.27l-.23.08c0-.25-.16-.44-.12-.69h.1c0,.1.09.18.1.28l.06-.14.12,0v.12c0,.09-.22,0-.1.11s.22.1.35.14c-.12,0-.25.12-.35,0"/><path class="cls-3" d="M16.37,6.37v0c-.05,0-.22,0-.23-.13v0h0c.06,0,.1-.16.2-.16l.1,0v0l.12,0h0l-.2.26h0v0h0l.15-.2-.09,0h0l-.07,0-.17.15h0v0l.21.1Z"/><path class="cls-15" d="M16.37,6.37c-.08,0-.27,0-.21-.14s.13-.23.27-.12l.12,0-.18.22"/><path class="cls-13" d="M16.64,4.76v0h-.11v0h0c0,.06.13,0,.15.15h0L16.63,5h0a2.21,2.21,0,0,0-.3-.07h0V4.83h0l.16-.08h-.14v0c.1,0,.06-.29.22-.3h.06l0,.19.15,0h0l0,.09-.13.13v0h0l.09-.1,0-.06h0v0l-.18,0h0l0-.22h0c-.11,0-.08.22-.2.3v0h.22v0l-.2.1v.09h0v0h0a1.8,1.8,0,0,1,.31.07V5h0l.07-.09h0c0-.09-.07,0-.14-.12l0,0h.15Z"/><path class="cls-14" d="M16.64,4.76h-.11c.06.07.14,0,.15.14L16.61,5a1.08,1.08,0,0,0-.33-.06v-.1l.21-.11h-.21c.12-.07.07-.35.25-.29l0,.2.17,0a.11.11,0,0,1-.08.18"/><polygon class="cls-13" points="16.21 4.68 16.2 4.67 16.29 4.54 16.32 4.56 16.23 4.7 16.2 4.67 16.21 4.68 16.2 4.67 16.29 4.54 16.32 4.56 16.23 4.7 16.2 4.67 16.21 4.68"/><polyline class="cls-14" points="16.21 4.68 16.31 4.55 16.21 4.68"/><polygon class="cls-3" points="16.15 4.97 16.13 4.98 16.04 4.9 16.03 4.9 16.03 4.76 16.03 4.74 16.23 4.77 16.23 4.77 16.24 4.78 16.27 4.86 16.16 4.99 16.14 4.99 16.14 4.99 16.13 4.98 16.15 4.97 16.15 4.95 16.16 4.95 16.23 4.86 16.21 4.81 16.23 4.79 16.22 4.81 16.07 4.79 16.07 4.88 16.16 4.95 16.15 4.97 16.15 4.95 16.15 4.97"/><path class="cls-12" d="M16.14,5l-.09-.08V4.76l.18,0a.11.11,0,0,1-.09.18"/><path class="cls-13" d="M16.16,4.24h0c0-.11,0-.07-.12-.17h0v0l-.2,0,0,.09L16,4.14v0L16,4.24l.06.22h0l.15.22v0h0c0-.15.25-.27.24-.36l-.1-.11v0l-.14,0h0v0h0v0l.14,0h0l.12.15c0,.13-.23.25-.24.37v0h0c-.11,0-.11-.18-.17-.24h0l-.06-.22.09-.1v0l-.15.08h0l-.06-.16v0l.26,0h0c.09.09.1.08.13.19h0v0Z"/><path class="cls-14" d="M16.16,4.24c0-.11,0-.08-.12-.17l-.23,0,0,.13L16,4.16c-.16,0,0,.2,0,.31s.06.2.16.23c0-.19.43-.34.13-.5l-.13,0"/><polygon class="cls-13" points="16.15 4.43 16.13 4.43 16.14 4.25 16.18 4.26 16.16 4.43 16.13 4.43 16.15 4.43 16.13 4.43 16.14 4.25 16.18 4.26 16.16 4.43 16.13 4.43 16.15 4.43"/><polyline class="cls-14" points="16.14 4.43 16.16 4.25 16.14 4.43"/><path class="cls-13" d="M20.69,4.91v0l-.22.14,0,.1h0c0-.08,0-.18-.11-.18V5l-.1.14,0,.23v.06h0v0l.15.06v0h0a2.74,2.74,0,0,0,.23-.36h0l.09-.21h0v0h0l-.1.2h0a2.58,2.58,0,0,1-.22.37h0l-.17-.06h0v0l0-.23A.18.18,0,0,1,20.31,5h0c.15,0,.12.16.14.2h0l0-.1c0-.12.18-.13.24-.17l0,0Z"/><path class="cls-14" d="M20.69,4.91c-.07,0-.2.06-.23.15l0,.11c0-.06,0-.19-.12-.19s0,.29-.09.44l.15.06c.06-.13.17-.22.23-.37l.09-.2"/><polygon class="cls-13" points="20.36 5.37 20.34 5.36 20.39 5.21 20.43 5.23 20.37 5.38 20.34 5.36 20.36 5.37 20.34 5.36 20.39 5.21 20.43 5.23 20.37 5.38 20.34 5.36 20.36 5.37"/><polyline class="cls-14" points="20.36 5.37 20.41 5.22 20.36 5.37"/><polygon class="cls-13" points="20.03 5.42 20.01 5.43 19.97 5.27 20.01 5.26 20.05 5.42 20.01 5.43 20.03 5.42 20.01 5.43 19.97 5.27 20.01 5.26 20.05 5.42 20.01 5.43 20.03 5.42"/><polyline class="cls-14" points="20.03 5.42 19.99 5.26 20.03 5.42"/></svg>