<svg id="Layer_1" data-name="Layer 1" xmlns="http://www.w3.org/2000/svg" viewBox="0 0 37.44 37.44"><defs><style>.cls-1,.cls-2{fill:#ed1c24;}.cls-2{fill-rule:evenodd;}.cls-3{fill:#fff;}</style></defs><path class="cls-1" d="M35.83,18.72a18,18,0,1,0-18,18,18,18,0,0,0,18-18"/><path class="cls-1" d="M18.72,2V.12A18.6,18.6,0,1,1,.12,18.72,18.6,18.6,0,0,1,18.72.12V3.84A14.89,14.89,0,1,0,29.24,8.2,14.81,14.81,0,0,0,18.72,3.84Z"/><path class="cls-2" d="M18.72,2A16.74,16.74,0,1,1,2,18.72,16.75,16.75,0,0,1,18.72,2"/><path class="cls-3" d="M31.63,26.24a13.48,13.48,0,0,1-5.14,5.6,14.83,14.83,0,0,1-7.71,1.94A14.83,14.83,0,0,1,8,29.55,14.65,14.65,0,0,1,3.64,18.69,14.51,14.51,0,0,1,8.06,7.93,15.08,15.08,0,0,1,19,3.65a14.69,14.69,0,0,1,6.89,1.5,11.85,11.85,0,0,1,4.85,4.46L28.87,10.8a10.15,10.15,0,0,0-3.64-3.93,9.33,9.33,0,0,0-5-1.32,9.2,9.2,0,0,0-7.57,3.57C10.82,11.5,9.9,14.77,9.9,18.87s.87,7.06,2.67,9.26A8.9,8.9,0,0,0,20,31.44a10.24,10.24,0,0,0,5.67-1.59,11.7,11.7,0,0,0,4-4.72Z"/><polygon class="cls-3" points="14.78 29.75 14.78 7.69 25.76 7.69 25.76 9.34 17.99 9.34 17.99 17.42 25.29 17.42 25.29 18.97 17.99 18.97 17.99 29.75 14.78 29.75"/><path class="cls-3" d="M12.77,22A3.87,3.87,0,0,0,14,23.32a3.21,3.21,0,0,0,1.64.48,2.78,2.78,0,0,0,1.94-.68,2.28,2.28,0,0,0,.75-1.76c0-1.14-1.12-2.11-3.32-2.93l0,0a6.5,6.5,0,0,1-2.53-1.51,3,3,0,0,1-.75-2.11A3.68,3.68,0,0,1,13,11.9a4.82,4.82,0,0,1,3.32-1.12A5.65,5.65,0,0,1,19,11.4a3.81,3.81,0,0,1,1.7,1.78l-1,.6a3.27,3.27,0,0,0-1.1-1.47,3.08,3.08,0,0,0-1.75-.5,2.56,2.56,0,0,0-1.77.62,2.18,2.18,0,0,0-.69,1.66A1.84,1.84,0,0,0,15,15.45a6.18,6.18,0,0,0,2.12,1.18,9,9,0,0,1,3.25,1.84,3.36,3.36,0,0,1,.78,2.25,3.72,3.72,0,0,1-1.39,3,5.19,5.19,0,0,1-3.51,1.18,5.69,5.69,0,0,1-2.64-.54,4.94,4.94,0,0,1-1.93-1.65Z"/><path class="cls-1" d="M12.77,22l.05,0a4,4,0,0,0,1.23,1.3l0,0,0,0a3.11,3.11,0,0,0,1.6.46,2.66,2.66,0,0,0,1.88-.66,2.2,2.2,0,0,0,.74-1.72c0-1.09-1.08-2.05-3.28-2.87h0l-.05,0,0-.05,0,.05a6.26,6.26,0,0,1-2.55-1.52,3.08,3.08,0,0,1-.76-2.14A3.75,3.75,0,0,1,13,11.87a4.91,4.91,0,0,1,3.36-1.13,5.62,5.62,0,0,1,2.71.63,3.94,3.94,0,0,1,1.72,1.8l0,0-1.08.67,0-.07a3.06,3.06,0,0,0-1.07-1.44l0,0,0,0a3,3,0,0,0-1.71-.48,2.5,2.5,0,0,0-1.72.6l-.05,0,.05,0a2.07,2.07,0,0,0-.66,1.61A1.78,1.78,0,0,0,15,15.43h0a6.07,6.07,0,0,0,2.09,1.16h0a9,9,0,0,1,3.26,1.85h0a3.37,3.37,0,0,1,.79,2.29,3.8,3.8,0,0,1-1.4,3l-.05-.05.05.05A5.28,5.28,0,0,1,16.24,25a5.77,5.77,0,0,1-2.66-.55l0,0,0,.05a5.15,5.15,0,0,1-1.95-1.67l0,0,1.2-.77,0,.06-.05,0,0,0-1.09.7,0,0,.05,0a5.09,5.09,0,0,0,1.91,1.63h0a5.74,5.74,0,0,0,2.6.53,5.08,5.08,0,0,0,3.45-1.17h0a3.64,3.64,0,0,0,1.37-2.94,3.32,3.32,0,0,0-.76-2.22l.05,0-.05,0a9.17,9.17,0,0,0-3.22-1.82h0A6.07,6.07,0,0,1,15,15.5l0,0,0,0a1.85,1.85,0,0,1-.59-1.4,2.22,2.22,0,0,1,.7-1.69h0a2.67,2.67,0,0,1,1.81-.64,3.11,3.11,0,0,1,1.79.51h0a3.21,3.21,0,0,1,1.11,1.49l-.06,0,0,0,1-.6,0,0-.06,0A3.77,3.77,0,0,0,19,11.47a5.45,5.45,0,0,0-2.64-.62A4.82,4.82,0,0,0,13,12a3.64,3.64,0,0,0-1.28,2.85,3,3,0,0,0,.74,2.07A6.18,6.18,0,0,0,15,18.36h0l0,0,0,0,0-.05c2.2.83,3.35,1.81,3.35,3a2.33,2.33,0,0,1-.77,1.8,2.83,2.83,0,0,1-2,.69A3.29,3.29,0,0,1,14,23.37h0A4.09,4.09,0,0,1,12.71,22l.06,0,0,0Z"/><polygon class="cls-3" points="22.61 24.9 22.61 10.78 24.61 10.78 30.68 20.53 30.68 10.78 31.72 10.78 31.72 24.9 30.68 24.9 23.65 13.65 23.65 24.9 22.61 24.9"/><polygon class="cls-1" points="22.62 24.9 22.57 24.9 22.57 10.79 24.64 10.79 30.67 20.38 30.67 10.79 31.81 10.79 31.81 24.95 30.69 24.95 23.71 13.88 23.71 24.95 22.57 24.95 22.57 24.9 22.62 24.9 22.62 24.84 23.61 24.84 23.61 13.71 23.7 13.68 30.74 24.84 31.72 24.84 31.72 10.91 30.76 10.91 30.76 20.55 30.68 20.59 24.59 10.91 22.66 10.91 22.66 24.9 22.62 24.9 22.62 24.84 22.62 24.9"/></svg>