<svg xmlns="http://www.w3.org/2000/svg" xmlns:xlink="http://www.w3.org/1999/xlink" width="56.719" height="56.719" viewBox="0 0 1500.723 1500.723" fill-rule="evenodd"><g transform="translate(-14405.944 -3539.032)"><circle transform="rotate(60)" r="750.362" cx="11292.945" cy="-10980.979" fill="#fff"/><g transform="matrix(1.21 0 0 1.21 -3182.8241 -900.77271)"><path transform="rotate(315 12467.056 -15453.229)" d="M0 0h817v817H0z" stroke="#a75f4a" stroke-width="35.28" fill="#fabc48"/><g fill="#2b2a29" fill-rule="nonzero"><use xlink:href="#B"/><use xlink:href="#C"/><use xlink:href="#D"/></g><g stroke="#2b2a29" stroke-width="7.62" fill="none"><use xlink:href="#B"/><use xlink:href="#C"/><use xlink:href="#D"/></g><rect x="14704" y="4523" width="884" height="156" rx="78" stroke="#a75f4a" stroke-width="35.28" fill="#fabc48"/></g></g><defs ><path id="B" d="M14782 4418c-6 0-10-1-12-2-3-2-4-4-4-8 0-3 3-7 10-11 2-2 5-3 6-4 2-2 4-4 5-8 1-3 2-9 2-16v-212c0-6-1-11-1-14-1-2-2-5-3-7-2-2-5-4-11-7-5-4-8-7-8-11 0-3 1-6 4-7 2-2 6-2 12-2h113c30 0 52 5 66 17 15 11 22 29 22 52 0 15-5 29-16 41-11 13-26 23-46 31 25 3 45 12 59 27 15 16 22 34 22 57 0 13-2 26-8 38s-14 21-24 29c-8 6-17 10-27 13-11 2-28 4-53 4zm41-137v78c0 15 3 25 7 29 5 4 18 7 41 7 31 0 54-6 70-16 15-10 23-26 23-47 0-17-6-32-18-44-13-12-30-20-52-24-17 5-32 8-44 11-11 3-20 5-27 6zm0-24c42-7 72-17 92-31 21-13 31-29 31-48 0-17-6-28-18-36-11-7-30-11-56-11-23 0-36 2-41 5-5 4-8 14-8 32z"/><path id="C" d="M15161 4427c-41 0-74-14-99-43-24-29-37-68-37-117 0-24 3-46 10-65 6-20 16-37 29-52 14-17 29-29 47-37s37-12 59-12c20 0 38 3 55 9s29 12 34 20c2 2 4 8 5 17s1 22 1 37c0 5 0 8-1 9-1 2-3 3-6 3-4 0-8-4-11-12-2-6-5-11-7-14-9-15-19-27-32-34-13-8-27-12-43-12-29 0-53 13-72 39-18 25-27 59-27 101s9 75 27 99c19 24 44 36 76 36 12 0 24-2 35-6s22-11 33-20c4-4 10-10 16-18 7-8 11-12 14-12 2 0 5 1 7 3s3 5 3 8c0 4-3 11-7 18s-10 14-17 20c-13 12-27 21-42 27-15 5-32 8-50 8z"/><path id="D" d="M15315 4418c-6 0-11-1-13-2-3-2-4-4-4-8 0-3 4-7 10-11 3-2 5-3 6-4 3-2 4-4 5-8 1-3 2-9 2-16v-212c0-6 0-11-1-14 0-2-1-5-3-7-1-2-5-4-10-7-6-4-9-7-9-11 0-3 1-6 4-7 2-2 7-2 13-2h113c29 0 51 5 66 17 14 11 22 29 22 52 0 15-6 29-17 41-11 13-26 23-46 31 25 3 45 12 60 27 14 16 22 34 22 57 0 13-3 26-9 38-5 12-13 21-23 29-8 6-18 10-28 13-10 2-28 4-53 4zm41-137v78c0 15 2 25 7 29 4 4 18 7 41 7 31 0 54-6 69-16 16-10 23-26 23-47 0-17-6-32-18-44s-29-20-51-24c-18 5-33 8-44 11-12 3-21 5-27 6zm0-24c41-7 72-17 92-31 20-13 30-29 30-48 0-17-6-28-17-36-12-7-31-11-57-11-22 0-36 2-41 5-5 4-7 14-7 32z"/></defs></svg>