<svg width="56.719" height="56.719" fill-rule="evenodd" version="1.1" viewBox="0 0 1500.7 1500.7" xmlns="http://www.w3.org/2000/svg" xmlns:xlink="http://www.w3.org/1999/xlink"><circle transform="matrix(.5 .86602 -.86602 .5 -8937.5 -3606.7)" cx="8617.3" cy="-6211.4" r="750.36" fill="#fff"/><g transform="matrix(1.21 0 0 1.21 -10972 -4468.7)"><path d="m9688 3809 495 186c0 195-39 373-118 534-78 162-204 287-377 375-163-88-288-212-373-371s-126-340-122-542z" fill="#ecf0c6" stroke="#dbe285" stroke-width="35.28"/><path d="m9375 4598 447-720 165 62-495 800c-48-47-79-85-117-142zm130 154 499-805 34 12-507 816c-12-10-18-16-26-23z" fill="#dbe285"/><g fill="#2b2a29" fill-rule="nonzero"><use width="100%" height="100%" xlink:href="#A"/><use width="100%" height="100%" xlink:href="#B"/><use width="100%" height="100%" xlink:href="#C"/></g><g fill="none" stroke="#2b2a29" stroke-width="7.62"><use width="100%" height="100%" xlink:href="#A"/><use width="100%" height="100%" xlink:href="#B"/><use width="100%" height="100%" xlink:href="#C"/></g></g><defs><path id="A" d="m9355 4330c-7 0-11-1-13-2-3-2-4-4-4-8 0-3 3-7 10-11 3-2 5-3 6-4 3-2 4-4 5-8 1-3 2-9 2-16v-212c0-6 0-11-1-14-1-2-2-5-3-7s-5-4-10-7c-6-4-9-7-9-11 0-3 1-6 4-7 2-2 6-2 13-2h113c29 0 51 5 66 17 14 11 21 29 21 52 0 15-5 29-16 41-11 13-26 23-46 31 25 3 45 12 60 27 14 16 22 34 22 57 0 13-3 26-9 38-5 12-13 21-23 29-9 6-18 10-28 13-11 2-28 4-53 4zm41-137v78c0 15 2 25 6 29 5 4 19 7 41 7 31 0 55-6 70-16 16-10 23-26 23-47 0-17-6-32-18-44s-30-20-52-24c-17 5-32 8-44 11-11 3-20 5-26 6zm0-24c41-7 72-17 92-31 20-13 30-29 30-48 0-17-6-28-18-36-11-7-30-11-56-11-22 0-36 2-41 5-5 4-7 14-7 32z"/><path id="B" d="m9673 4330c-5 0-9-1-11-2-2-2-3-4-3-7 0-4 3-8 10-11 3-1 6-3 8-4s4-4 5-7c1-4 1-10 1-19v-215c0-10-1-16-3-18-3-3-7-4-14-4-8 0-17 1-24 3-8 3-15 6-22 11-3 2-8 7-14 13-5 6-10 9-14 9-2 0-4-1-5-2 0-1-1-4-1-7 0-10 1-19 2-28 2-9 3-14 5-16 1-2 3-3 6-4s7-1 14-1h186c3 1 5 2 7 3 2 2 5 7 6 16 2 8 3 18 3 30 0 3-1 6-1 7-1 1-2 2-5 2-4 0-9-3-15-10l-7-7c-8-6-16-11-24-14-9-4-18-5-28-5-7 0-12 1-14 4-2 2-3 8-3 18v215c0 8 0 13 1 16 0 3 1 6 3 8 1 2 5 4 11 7 6 2 9 6 9 10 0 3-1 5-3 7-2 1-6 2-11 2z"/><path id="C" d="m9849 4330c-6 0-10-1-13-2-2-2-3-4-3-8 0-3 3-7 10-11 2-2 4-3 6-4 2-2 4-4 5-8 1-3 2-9 2-16v-212c0-6-1-11-1-14-1-2-2-5-3-7-2-2-5-4-11-7-5-4-8-7-8-11 0-3 1-6 3-7 3-2 7-2 13-2h168c12 0 20 2 22 7 3 4 4 17 4 38 0 3 0 5-1 6-1 2-2 3-4 3-3 0-6-3-11-8s-9-9-13-12c-5-4-14-7-25-9-11-1-27-2-47-2-14 0-24 0-31 1-6 1-11 3-14 5s-5 4-6 8c-1 3-1 11-1 23v68h93c4-1 6-2 8-3s4-2 6-4c5-4 8-6 10-6 3 0 5 1 6 3s2 5 2 10v24c0 5-1 9-2 11s-3 3-6 3c-2 0-5-2-10-6-2-2-4-3-6-4-1-1-4-2-8-3-4 0-9-1-16-1h-77v93c0 18 2 29 5 33 4 4 12 6 25 6h42c14 0 25-1 35-3 10-1 18-4 25-9 5-2 10-7 15-13s9-9 12-9 5 0 6 2c1 1 1 4 1 7 0 9 0 18-2 27-2 8-3 14-5 16s-5 4-9 5-12 2-22 2z"/></defs></svg>
