<svg xmlns="http://www.w3.org/2000/svg" xmlns:xlink="http://www.w3.org/1999/xlink" width="56.719" height="56.719" viewBox="0 0 1500.723 1500.723" fill-rule="evenodd"><circle transform="matrix(.5 .866025 -.866025 .5 -10294.638 -5331.918)" r="750.362" cx="10789.95" cy="-6524.042" fill="#0971b7"/><g fill="#fefefe" fill-rule="nonzero"><use xlink:href="#B"/><use xlink:href="#C"/></g><g stroke="#fefefe" stroke-width="7.62" fill="none"><use xlink:href="#B"/><use xlink:href="#C"/></g><defs ><path id="B" d="M609.362 766.082v4c21 9 38 23 50 42 13 20 19 42 19 66s-5 45-15 63-24 33-43 45l2 4c24-11 42-27 56-47 13-21 20-44 20-70 0-27-8-49-23-68-16-18-38-31-66-39zm-30-233l-2 4c23 11 41 26 53 47 13 21 19 45 19 73 0 11-2 20-4 28-3 8-7 16-14 25l4 2c10-10 17-20 22-32 5-13 8-26 8-41 0-26-8-49-24-68-15-20-36-33-62-38zm-216 2c11 7 19 16 24 28 6 12 8 28 8 46v283c0 29-2 50-6 63-5 13-12 25-21 35 15-4 26-13 33-27 6-14 9-39 9-73v-276c0-23-3-41-10-54-8-12-20-20-37-25zm105 378c0 31 5 52 16 62s32 15 62 15c36 0 64-9 85-29 20-20 31-47 31-80 0-37-13-66-37-86-25-21-59-31-103-31-23 0-38 2-44 8-7 5-10 20-10 44zm167-176c35 2 63 15 85 39s33 54 33 90c0 22-4 44-13 64s-22 38-38 52-36 25-57 31c-22 7-52 10-89 10-25 0-51-1-80-3l-48-3c-16 0-35 1-56 3-20 2-32 3-36 3-5 0-10-1-13-3-3-3-4-7-4-12 0-7 6-13 18-18 7-4 12-6 15-8 10-7 18-15 22-26 5-11 7-25 7-42v-284c0-24-1-41-4-51-3-9-8-17-15-24-8-7-21-12-38-15-17-2-25-8-25-16 0-5 1-9 5-11 3-3 7-4 13-4 2 0 6 0 12 1 27 2 53 4 78 4 15 0 38-1 71-3 32-2 57-2 74-2 50 0 91 11 120 33 30 23 45 54 45 91 0 26-7 47-20 64-14 17-34 30-62 40zm-167-42c0 16 4 26 13 31s32 7 69 7c30 0 51-6 64-18 12-12 19-33 19-61 0-35-11-63-33-83-21-22-49-32-83-32-19 0-31 4-39 13-7 9-10 26-10 53z"/><path id="C" d="M1112.362 532.082l-1 3c9 4 16 9 20 14 5 6 7 13 7 21 0 4-1 8-2 13s-2 10-5 16l4 2c6-7 10-13 13-20 3-8 5-14 5-20 0-9-3-16-10-21s-17-8-31-8zm-288 6l-2 2c7 5 13 12 19 18 6 7 10 13 12 17l105 199c7 13 12 27 15 41s4 34 4 60v31c0 24-1 41-5 52-4 10-10 19-19 26l1 3c16-6 27-14 33-25s9-35 9-70v-17c0-48-9-87-27-117-2-5-4-8-5-10l-89-168c-5-10-12-18-21-26-8-7-18-12-30-16zm336 47l-105 192c-3 6-5 10-6 15s-2 11-2 19v87c0 28 2 47 5 57 4 11 10 19 19 26 5 3 17 6 35 9 18 2 27 8 27 17 0 5-2 10-5 12-3 3-7 4-13 4-4 0-18-1-40-3-23-2-44-3-62-3-19 0-42 1-68 3l-48 3c-7 0-12-1-16-4-3-2-5-6-5-11 0-8 7-13 22-16 15-4 25-7 32-11 11-6 18-13 22-23 5-9 7-27 7-52v-83c0-11-3-22-9-33-1-1-1-2-2-3l-105-194c-6-12-13-23-22-32-8-10-16-16-23-20-4-1-9-3-17-4-14-3-21-8-21-16 0-5 1-8 4-10 3-1 8-2 15-2h10c28 3 55 4 83 4 22 0 46-1 71-3 6-1 10-1 11-1 7 0 12 0 14 2 3 2 4 5 4 9 0 6-7 11-21 17-13 5-20 12-20 23 0 4 1 8 3 13s4 11 7 17l81 154c1 2 3 4 4 5 2 2 3 2 4 2 2 0 3-1 5-2 1-1 3-4 5-7l69-127 2-3c8-16 12-28 12-34 0-11-2-19-8-25-5-6-13-10-24-12-5-2-11-3-19-4-13-3-19-8-19-15 0-5 1-8 4-10 2-2 7-3 12-3 2 0 6 0 12 1 23 2 45 3 65 3 5 0 10 0 15-1h2c2 0 9 0 19-2 11-1 21-1 29-1 5 0 9 1 11 3 3 2 4 5 4 8 0 7-4 12-12 16-5 2-8 4-10 5-7 1-15 5-22 13-8 7-15 18-22 31z"/></defs></svg>