<svg xmlns="http://www.w3.org/2000/svg" xmlns:xlink="http://www.w3.org/1999/xlink" width="56.719" height="56.719" viewBox="0 0 1500.723 1500.723" fill-rule="evenodd"><g transform="translate(-5517.955 -3575.975)"><circle transform="rotate(60)" r="750.362" cx="6880.897" cy="-3265.31" fill="#fff"/><g transform="matrix(1.21 0 0 1.21 -1316.3466 -908.53081)"><path transform="rotate(315 8067.656 -4706.006)" d="M0 0h817v817H0z" stroke="#2b2a29" stroke-width="35.28" fill="#fefefe"/><g fill="#2b2a29" fill-rule="nonzero"><use xlink:href="#B"/><use xlink:href="#C"/><use xlink:href="#D"/></g><g stroke="#2b2a29"><g stroke-width="7.62" fill="none"><use xlink:href="#B"/><use xlink:href="#C"/><use xlink:href="#D"/></g><rect x="5816" y="4560" width="884" height="156" rx="78" stroke-width="35.28" fill="#fefefe"/></g></g></g><defs ><path id="B" d="M5977 4480c-6 0-10-1-13-2-2-1-3-4-3-7 0-4 3-8 10-12 2-1 4-3 6-4s4-4 5-7c1-4 2-9 2-16v-212c0-7-1-11-1-14-1-3-2-5-3-7-2-2-5-5-11-8-5-3-8-7-8-11 0-3 1-5 3-7 3-1 7-2 13-2h168c12 0 20 2 22 7 3 5 4 17 4 38 0 3 0 6-1 7s-2 2-4 2c-3 0-6-3-11-8s-9-9-13-12c-5-4-14-6-25-8s-27-3-47-3c-14 0-24 1-31 2-6 1-11 2-14 5-3 1-5 4-6 7-1 4-1 12-1 24v68h77c7 0 12 0 16-1 4 0 6-1 8-2s4-3 6-5c5-4 8-5 10-5 3 0 5 1 6 2 1 2 2 6 2 11v23c0 5-1 9-2 11s-3 3-6 3c-2 0-5-2-10-5-2-2-4-4-6-5s-4-2-8-2c-4-1-9-1-16-1h-77v92c0 18 2 29 5 33 4 5 12 7 25 7h42c14 0 25-1 35-3s18-5 25-9c5-3 10-7 15-13 5-7 9-10 12-10s5 1 6 2c1 2 1 4 1 8 0 8 0 17-2 26s-3 14-5 16c-2 3-5 5-9 6s-12 1-22 1z"/><path id="C" d="M6259 4432c0 6 1 10 1 13 1 3 2 6 3 8 1 1 5 4 11 7s8 7 8 11c0 3-1 6-3 7s-7 2-13 2h-47c-7 0-11-1-13-2-3-1-4-4-4-7 0-4 3-8 10-12 3-1 5-3 6-4 3-1 4-4 5-7 1-4 2-9 2-16v-212c0-7 0-11-1-14s-2-5-3-7-5-5-10-8c-6-3-9-7-9-11 0-3 1-5 4-7 2-1 6-2 13-2h47c6 0 11 1 13 2 2 2 3 4 3 7 0 4-3 8-9 12-3 1-6 3-7 4-3 2-4 4-5 8-1 3-2 8-2 16v115c33-33 60-62 79-86 20-23 30-38 30-45 0-2-1-4-2-6-1-1-3-3-6-5-1-1-2-2-4-3-4-3-7-6-7-11 0-3 2-5 4-6 3-1 8-2 15-2h43c8 0 13 1 15 2 3 2 4 4 4 7 0 4-3 8-10 12s-13 9-17 14l-3 4c-32 41-56 69-71 85 15 15 30 34 45 56 14 23 29 50 43 81 1 1 2 4 3 7 4 8 7 13 9 15 2 0 3 2 6 3 6 4 9 7 9 11s-2 7-5 9-7 3-14 3h-37c-8 0-14-1-16-2-3-1-4-4-4-8 0-2 0-4 1-5 1-2 3-4 6-6 1 0 2-1 3-2 3-1 5-4 5-7 0-11-7-29-22-54-14-26-33-51-55-76-7 8-14 16-22 23l-25 25z"/><path id="D" d="M6546 4404v-185c0-5-1-10-1-13-1-3-2-6-3-8-2-1-5-3-9-5-3-1-5-2-6-2-4-2-7-4-8-6-1-1-2-3-2-5 0-3 2-6 4-7s6-2 12-2h52c6 0 10 1 13 2 2 2 3 4 3 7 0 4-3 8-9 11-3 2-5 4-7 5s-3 4-4 7-1 9-1 16v185c0 28-6 50-19 64s-31 22-56 22c-23 0-41-6-54-17-12-12-19-27-19-48 0-16 4-29 11-39 8-10 17-15 29-15 6 0 11 2 14 5 4 3 6 8 6 13 0 4-1 7-4 9-2 3-6 5-13 7-8 3-13 6-15 9-3 3-4 8-4 14 0 11 4 20 12 28 9 7 19 11 32 11 16 0 27-5 35-15 7-10 11-26 11-48z"/></defs></svg>