<svg xmlns="http://www.w3.org/2000/svg" xmlns:xlink="http://www.w3.org/1999/xlink" width="56.719" height="56.719" viewBox="0 0 1500.723 1500.723" fill-rule="evenodd"><g transform="translate(-10724.045 -3462.043)"><circle transform="rotate(60)" r="750.362" cx="9385.302" cy="-7830.867" fill="#fff"/><g transform="matrix(1.21 0 0 1.21 -2409.6253 -884.6051)"><path transform="rotate(315 10533.173 -11047.278)" d="M0 0h817v817H0z" stroke="#4e565a" stroke-width="35.28" fill="#b2d0c7"/><g fill="#2b2a29" fill-rule="nonzero"><use xlink:href="#B"/><use xlink:href="#C"/></g><g stroke="#2b2a29" stroke-width="7.62" fill="none"><use xlink:href="#B"/><use xlink:href="#C"/></g><rect x="11023" y="4446" width="884" height="156" rx="78" stroke="#4e565a" stroke-width="35.28" fill="#b2d0c7"/></g></g><defs ><path id="B" d="M11171 4303l6-207c0-4-1-7-2-10s-2-6-4-8c-1-1-3-2-7-3-3-1-6-2-8-3-3-1-5-2-6-4-2-1-2-3-2-6s1-5 4-7c2-1 7-2 15-2h31c9 0 15 1 17 3 3 2 5 5 7 11 2 3 4 9 7 19 22 61 46 120 70 178 16-34 31-67 44-100 14-32 25-64 36-96 2-6 4-10 7-12 2-2 7-3 15-3h29c9 0 14 1 18 3 3 1 5 4 5 8 0 2-1 4-2 5 0 2-2 3-3 4-2 2-5 3-10 4-5 2-8 3-9 5-2 1-3 4-4 8 0 3-1 9-1 16l3 195c0 11 1 18 2 23 0 5 1 8 3 10 0 2 2 3 3 4s3 3 6 4c1 1 2 2 4 2 5 3 8 6 8 10 0 3-1 5-4 7-2 1-8 2-17 2h-46c-7 0-12-1-14-2s-4-4-4-7c0-4 4-7 11-10 3-2 6-3 8-4 2-2 3-4 4-7 1-2 2-7 2-13v-7l-3-206c-3 12-10 31-21 59s-26 62-43 103c-2 3-4 9-7 15-11 26-18 38-23 38s-14-16-29-49c-14-33-36-90-66-171l-3 212v14c1 3 2 5 3 7s4 4 9 6c1 1 2 1 3 2 0 0 1 0 1 1 6 2 9 6 9 10 0 3-1 6-4 7-2 1-7 2-16 2h-42c-7 0-12-1-14-2s-3-3-3-7 3-7 9-10l10-5c2-2 4-5 6-9 1-4 1-13 2-27z"/><path id="C" d="M11477 4053h44c7 0 12 1 15 2 2 2 4 4 4 7 0 4-4 8-11 11-3 1-6 2-8 4-2 1-4 3-5 6-1 4-2 8-2 13 0 15 5 43 15 84 9 41 22 86 38 133 19-47 34-91 45-132 11-40 16-70 16-88 0-4 0-6-1-9-1-2-2-4-3-5-2-2-5-3-9-6-5-2-7-5-7-9s1-6 3-8c3-2 7-3 13-3h40c7 0 12 1 14 3 3 1 4 4 4 8s-2 7-7 10c-1 0-2 1-3 2-5 3-8 6-9 9-2 3-2 7-2 13 0 18 5 48 17 88 11 39 27 82 46 126 16-46 29-89 39-129 9-41 14-70 14-88 0-4 0-7-1-9-1-3-3-5-5-6s-5-3-9-5c-7-3-11-7-11-12 0-3 1-6 4-7 2-2 6-3 11-3h38c7 0 11 1 14 3 2 1 3 4 3 7 0 4-2 7-7 12-4 4-7 8-9 11-2 4-4 14-7 32-1 8-2 15-3 20l-19 89c-8 29-16 59-26 88v1c-12 37-22 56-30 56s-18-17-31-51c0-2-1-3-1-4-11-28-20-54-29-79-8-26-14-49-19-70-19 68-35 119-48 153s-23 51-32 51c-6 0-14-11-21-31-8-21-19-58-32-113-8-32-16-69-24-112-2-12-4-20-5-25-1-4-2-7-3-9 0-3-1-4-3-5 0-1-1-2-3-3-5-3-7-7-7-11 0-3 1-6 3-7 3-2 6-3 12-3z"/></defs></svg>