<svg xmlns="http://www.w3.org/2000/svg" xmlns:xlink="http://www.w3.org/1999/xlink" width="56.719" height="56.719" viewBox="0 0 1500.723 1500.723" fill-rule="evenodd"><circle transform="matrix(.5 .866025 -.866025 .5 -17738.505 -3606.686)" r="750.362" cx="13017.833" cy="-13833.224" fill="#fff"/><g transform="matrix(1.21 0 0 1.21 -21621.1671 -4468.74939)"><path d="M18489 3809l495 186c0 195-39 373-118 534-78 162-204 287-377 375-163-88-288-212-373-371s-126-340-122-542z" stroke="#b2ad81" stroke-width="35.28" fill="#fffbdb"/><path d="M18176 4598l448-720 164 62-495 800c-48-47-79-85-117-142zm130 154l499-805 34 12-507 816c-12-10-18-16-26-23z" fill="#dccf73"/><g fill="#2b2a29" fill-rule="nonzero"><use xlink:href="#B"/><use xlink:href="#C"/><use xlink:href="#D"/></g><g stroke="#2b2a29" stroke-width="7.62" fill="none"><use xlink:href="#B"/><use xlink:href="#C"/><use xlink:href="#D"/></g></g><defs ><path id="B" d="M18074 4256v-181c0-8 0-13-1-16 0-4-1-6-2-8-2-3-5-5-11-7-1-1-2-1-2-1-1-1-3-1-5-2-7-3-10-6-10-11 0-3 1-6 3-7 2-2 7-2 14-2h42c2 0 4 1 5 1 4 2 9 7 16 15 6 7 19 24 37 48 19 26 38 53 56 80l53 84v-171c0-13 0-20-1-24 0-4-1-7-2-8-2-2-5-4-9-6h-2c-1-1-2-1-4-2-5-2-8-5-8-9 0-3 1-5 3-7 2-1 6-1 12-1h38c9 0 15 0 18 1 2 2 4 4 4 7 0 4-3 8-8 10-6 3-9 5-11 7s-3 5-4 8-1 9-1 18v238c0 11-1 18-2 20s-3 3-6 3c-5 0-12-9-23-28l-10-18c-23-40-48-79-73-116-26-37-53-73-81-106v204c0 6 1 11 1 16 1 5 2 9 3 13 1 2 2 4 3 5 2 2 4 3 8 5 2 1 5 2 8 3 7 2 11 5 11 10 0 3-2 5-4 7-3 1-8 2-15 2h-53c-6 0-10-1-12-2-3-1-4-3-4-6 0-2 0-4 1-5 0-1 1-2 2-3 2-1 5-2 10-5 4-2 8-4 10-7s4-8 5-15c1-6 1-17 1-31z"/><path id="C" d="M18341 4021h45c7 0 12 0 14 1 3 2 4 4 4 7 0 5-3 8-10 11-4 1-6 3-8 4-3 1-4 3-6 7-1 3-1 7-1 12 0 15 4 43 14 84 10 42 22 86 38 133 19-47 34-91 45-131 11-41 17-71 17-89 0-3-1-6-1-8-1-2-2-4-4-6-1-1-4-3-9-6-4-2-7-5-7-9 0-3 1-6 4-8 2-2 6-2 12-2h40c7 0 12 0 15 2 2 1 4 4 4 8s-3 7-7 10c-2 1-3 1-3 2-5 3-8 6-10 9-1 3-2 7-2 13 0 19 6 48 17 88 12 40 27 82 47 127 16-46 29-90 38-130 10-41 15-70 15-87 0-5-1-8-2-10-1-3-2-4-4-6l-10-5c-7-3-10-7-10-12 0-3 1-5 3-7 3-2 6-2 11-2h38c7 0 12 0 14 2 3 1 4 4 4 7 0 4-3 8-7 12-5 4-8 8-10 12-1 3-4 13-6 31-2 8-3 15-4 20-5 30-12 59-19 89s-16 59-25 88v1c-12 37-22 56-30 56s-19-17-31-51c-1-2-1-3-2-4l-28-79c-8-26-15-49-20-70-18 68-34 119-47 153s-24 51-32 51c-7 0-14-11-22-31-8-21-18-58-32-113l-23-111c-3-12-4-21-5-26-1-4-2-7-3-9s-2-4-3-5-2-2-4-3c-4-3-7-6-7-11 0-3 1-5 4-7 2-2 6-2 11-2z"/><path id="D" d="M18719 4330c-6 0-11-1-13-2-3-2-4-4-4-8 0-3 4-7 10-11 3-2 5-3 6-4 3-2 4-4 5-8 1-3 2-9 2-16v-212c0-6 0-11-1-14 0-2-1-5-3-7-1-2-5-4-10-7-6-4-9-7-9-11 0-3 1-6 4-7 2-2 7-2 13-2h113c29 0 51 5 66 17 14 11 22 29 22 52 0 15-6 29-17 41-11 13-26 23-46 31 25 3 45 12 60 27 14 16 22 34 22 57 0 13-3 26-9 38-5 12-13 21-23 29-8 6-18 10-28 13-10 2-28 4-53 4zm41-137v78c0 15 2 25 7 29 4 4 18 7 40 7 31 0 55-6 70-16 16-10 23-26 23-47 0-17-6-32-18-44s-29-20-51-24c-18 5-33 8-44 11-12 3-21 5-27 6zm0-24c41-7 72-17 92-31 20-13 30-29 30-48 0-17-6-28-17-36-12-7-31-11-57-11-22 0-36 2-41 5-5 4-7 14-7 32z"/></defs></svg>