<svg xmlns="http://www.w3.org/2000/svg" width="56.719" height="56.719" viewBox="0 0 1500.723 1500.723"  fill-rule="evenodd"><g transform="translate(-12617.244 -3447.304)"><circle transform="rotate(60)" r="750.362" cx="10319.146" cy="-9477.789" fill="#fff"/><g transform="matrix(1.21 0 0 1.21 -2807.1972 -881.50955)"><path transform="rotate(315 11461.979 -13339.942)" d="M0 0h817v817H0z" stroke="#ae4a84" stroke-width="35.28" fill="#f5b2b6"/><path d="M13032 4172c0 43 9 77 26 102s41 37 71 37 53-12 71-37c17-25 25-59 25-102s-8-77-25-101c-18-25-41-37-71-37s-54 12-71 37c-17 24-26 58-26 101zm-40 0c0-25 4-48 11-69 7-20 19-38 34-54 12-13 26-22 41-29 16-7 33-10 51-10s35 3 50 10c16 6 30 16 42 29 15 16 26 34 33 54 8 20 11 43 11 69s-3 49-11 70c-7 20-18 38-33 54-12 13-26 22-42 29-15 7-32 10-50 10-19 0-35-3-51-10-15-6-29-16-41-29-15-16-27-34-34-55-7-20-11-43-11-69zm357 105c0 7 0 11 1 14s2 6 3 8c1 1 5 4 12 7 6 2 10 6 10 10s-2 6-4 8c-2 1-7 2-14 2h-50c-7 0-11-1-14-2-2-2-4-4-4-8s4-8 11-11l8-4c3-2 4-4 5-8 1-3 2-9 2-16v-212c0-6-1-10-1-13-1-3-2-6-3-7-1-2-5-5-10-8-6-3-9-7-9-11 0-3 1-5 4-7 2-1 6-2 13-2h155c15 0 24 3 28 8 4 6 6 18 6 35 0 4-1 7-2 8-1 2-3 2-5 2-3 0-7-2-12-8-5-5-9-9-13-11-8-4-19-7-33-10-14-2-31-3-51-3-13 0-22 2-27 7-4 4-6 13-6 28v83h49c8 0 16-1 21-1 6 0 11-1 15-1 4-1 8-3 14-6s10-4 12-4c4 0 6 1 7 3 2 2 2 6 2 11v20c0 5 0 9-2 11-1 2-3 3-7 3-2 0-6-2-12-5-5-3-10-5-14-6s-10-2-16-2c-6-1-13-1-20-1h-49zm181 49c-6 0-11-1-13-2-3-1-4-4-4-7 0-4 4-8 10-12 3-1 5-3 6-4 3-2 4-4 5-8 1-3 2-8 2-16v-212c0-6 0-10-1-13 0-3-1-6-3-7-1-2-5-5-10-8-6-3-9-7-9-11 0-3 1-5 4-7 2-1 7-2 13-2h167c13 0 20 2 23 7 3 4 4 17 4 38 0 3-1 5-1 7-1 1-3 2-5 2s-6-3-10-8c-5-5-9-9-13-12-6-4-14-7-26-8-11-2-27-3-47-3-14 0-24 1-30 2-7 0-12 2-15 5-2 1-4 4-5 7-1 4-2 12-2 24v68h77c7 0 12-1 16-1 4-1 7-1 9-3 1-1 3-2 6-4 4-4 7-6 10-6 2 0 4 1 5 3 2 2 2 5 2 11v23c0 5 0 9-2 11-1 2-3 3-5 3-3 0-6-2-10-5-3-2-5-4-6-5-2-1-5-2-9-2-4-1-9-1-16-1h-77v92c0 18 2 29 6 33s12 7 25 7h41c14 0 26-1 35-3 10-2 18-5 25-9 5-3 10-7 15-14 6-6 10-9 13-9 2 0 4 1 5 2 1 2 2 4 2 7 0 9-1 18-3 27-1 9-3 14-4 16-2 3-5 4-10 5-4 2-11 2-22 2z" fill="#2b2a29" fill-rule="nonzero"/><rect x="12916" y="4431" width="884" height="156" rx="78" stroke="#ae4a84" stroke-width="35.28" fill="#f5b2b6"/></g></g></svg>