<svg xmlns="http://www.w3.org/2000/svg" xmlns:xlink="http://www.w3.org/1999/xlink" width="56.719" height="56.719" viewBox="0 0 1500.723 1500.723" fill-rule="evenodd"><circle transform="matrix(.5 .866025 -.866025 .5 -8237.628 -5331.918)" r="750.362" cx="9761.434" cy="-4742.626" fill="#2b2a29"/><g fill="#fefefe" fill-rule="nonzero"><use xlink:href="#B"/><use xlink:href="#C"/></g><g stroke="#fefefe" stroke-width="7.62" fill="none"><use xlink:href="#B"/><use xlink:href="#C"/></g><defs ><path id="B" d="M569.372 518.082l-1 3c22 13 39 31 51 52 12 22 18 45 18 70 0 23-4 42-13 58-8 17-20 30-35 38v5c22-10 39-25 50-43 12-19 18-40 18-64 0-26-8-50-24-72-16-21-37-37-64-47zm-209 0c11 7 19 16 24 28s8 27 8 46v280c0 29-3 50-7 63s-11 24-21 34c16-3 27-12 33-26 7-14 10-38 10-73v-273c0-24-4-42-11-54s-19-20-36-25zm105 90v284c0 19 3 34 8 46 5 11 13 19 24 24 5 2 11 5 20 7 14 4 21 10 21 18 0 5-2 9-5 12-3 2-8 4-14 4-1 0-12-1-31-3s-38-3-56-3c-19 0-39 1-61 3l-38 3c-5 0-10-2-13-4s-4-6-4-11c0-7 6-13 18-19 7-3 12-5 15-7 10-7 17-15 22-26s7-25 7-42v-282c0-23-1-39-4-49s-8-18-15-25-19-12-34-15c-16-3-23-8-23-16 0-5 1-8 4-11s8-4 13-4c1 0 12 1 32 3s39 3 57 3c22 0 47-1 77-3 29-2 48-3 55-3 53 0 95 12 126 37 30 25 46 59 46 102 0 42-14 76-43 104-28 27-64 41-107 41-23 0-41-3-55-8-13-5-20-12-20-20 0-3 1-5 3-7s5-3 8-3c0 0 4 1 11 2s14 1 21 1c30 0 53-8 68-24 15-17 23-41 23-74 0-36-10-65-30-87-20-23-46-34-78-34-19 0-31 5-38 14s-10 33-10 72z"/><path id="C" d="M991.372 757.082l-1 5c3 3 7 7 10 11 3 5 7 11 11 19l55 110c13 26 27 47 41 62 14 14 29 23 44 27l1-4c-9-4-20-14-32-29-12-16-24-37-37-61l-63-123c-4-8-7-13-10-15s-8-3-13-3h-3c-1 1-2 1-3 1zm19-236c21 15 37 32 48 51 10 19 15 40 15 63 0 17-2 32-6 45-3 12-10 23-18 33l1 2c14-9 23-21 30-35 7-15 11-32 11-51 0-27-7-50-21-68-14-19-34-33-60-40zm-216-3c11 7 19 16 24 28s8 27 8 46v280c0 29-2 50-6 63-5 13-11 24-21 34 15-3 26-12 33-26 6-14 9-38 9-73v-273c0-24-3-42-11-54-7-12-19-20-36-25zm262 224c5 3 9 6 13 11 4 4 8 11 12 19l73 135c10 19 19 32 26 38s16 9 27 9h9c4-1 7-1 8-1 4 0 7 1 8 2 2 2 3 4 3 8 0 9-9 18-25 27-16 8-34 13-53 13-21 0-41-10-59-29-18-20-39-53-62-102-2-3-4-8-6-14-25-50-41-79-48-85-5-4-11-7-17-9-7-2-19-3-35-3-12 0-20 2-25 5-4 4-6 10-6 20v106c0 19 3 34 8 46 5 11 13 19 24 24 4 2 10 4 19 7 13 4 20 10 20 18 0 5-1 10-4 12s-7 4-13 4c-2 0-12-1-32-3-19-2-37-3-55-3s-39 1-61 3l-37 3c-6 0-10-2-13-4s-5-6-5-10c0-8 7-14 19-20 6-3 11-5 15-7 10-7 17-15 22-26 4-11 6-25 6-42v-282c0-24-1-41-4-50-2-10-7-18-14-24-7-7-18-12-33-15-16-3-23-8-23-16 0-5 1-9 4-11 3-3 7-4 13-4 2 0 7 0 15 1 29 3 55 5 79 5 13 0 33-1 63-3 29-2 53-3 70-3 53 0 95 12 124 35s44 57 44 99c0 29-8 53-23 72-16 19-39 34-71 44zm-155-47c0 16 3 25 10 29 7 3 23 5 49 5 36 0 62-7 78-20s24-35 24-66c0-37-10-67-31-89s-50-33-86-33c-17 0-28 4-35 12-6 7-9 22-9 46z"/></defs></svg>