<svg xmlns="http://www.w3.org/2000/svg" xmlns:xlink="http://www.w3.org/1999/xlink" width="56.719" height="56.719" viewBox="0 0 1500.723 1500.723" fill-rule="evenodd"><circle transform="matrix(.5 .866025 -.866025 .5 -6137.268 -5331.918)" r="750.362" cx="8711.242" cy="-2923.668" fill="#e31e24"/><g fill="#2b2a29" fill-rule="nonzero"><use xlink:href="#B"/><use xlink:href="#C"/></g><g stroke="#2b2a29" stroke-width="7.62" fill="none"><use xlink:href="#B"/><use xlink:href="#C"/></g><defs ><path id="B" d="M377.732 545.082l-3-2c-8 15-14 28-18 40s-5 25-5 37c0 31 8 57 26 77 18 21 50 41 97 61 1 1 4 2 7 3 91 39 136 80 136 123v10c-1 4-1 9-2 14l4 1c2-7 4-14 5-19 1-6 1-12 1-17 0-24-7-45-23-62-15-17-40-34-75-49-6-3-15-7-27-12-92-40-139-88-139-144 0-10 2-21 4-31 3-10 6-20 12-30zm158-33v2c16 8 30 18 42 30 12 11 23 27 35 46h3c-2-25-10-43-22-54-12-12-31-20-58-24zm-197 336l23 102c2 6 4 11 6 13 3 2 7 3 12 3 1 0 2 0 3-1s1-2 1-3v-5l-38-112c0-1-1-2-1-4-1-3-2-4-4-4-1 0-2 0-2 1-1 0-1 1-1 2s0 2 1 5v3zm15 113l-23-105c-1-3-1-5-2-8 0-2-1-4-1-4 0-7 1-11 4-14 2-2 6-3 11-3 6 0 11 8 16 23 6 16 12 31 20 44 16 27 34 48 56 63 21 15 44 23 66 23 29 0 53-9 72-27s28-41 28-69c0-37-39-71-116-104-2-1-3-1-3-1-63-27-103-50-119-71s-24-49-24-84c0-40 13-73 40-100s61-41 102-41c21 0 43 5 65 14 23 9 37 13 44 13 6 0 13-2 19-5s10-4 12-4c4 0 8 1 9 3 2 2 3 7 3 12v12c-1 5-1 10-1 14 0 11 2 27 5 49 3 21 5 37 5 46 0 5-1 8-3 10s-4 4-8 4c-7 0-13-8-17-24-5-15-11-30-20-45-12-20-29-36-50-48s-43-18-66-18c-24 0-43 6-58 20s-23 31-23 51 8 37 22 50c15 14 41 29 80 43 4 2 11 4 20 8 47 18 78 34 94 49 14 14 24 30 32 49 7 19 11 40 11 63 0 50-15 89-44 119-30 29-69 44-119 44-16 0-36-4-61-12-26-8-43-12-53-13-13-2-21-8-23-20-1-3-1-5-2-6z"/><path id="C" d="M819.732 909.082l-2-2c-19 23-35 39-47 50-12 12-24 20-35 26l3 1c18 0 34-6 46-17 13-12 25-31 35-58zm249-395l-2 3c7 2 12 5 16 10 3 5 5 10 5 17 0 8-5 20-16 38v1l3 2c2-2 4-4 6-7 15-18 22-32 22-41 0-6-3-11-9-15-6-5-14-7-25-8zm-322 1l-1 2c7 2 17 9 27 19 11 10 21 22 31 37l232 341c4 7 8 13 10 19 2 7 3 13 3 18 0 4-1 8-2 12-2 3-4 7-7 10l3 1c6-2 11-7 14-13 3-5 4-12 4-20 0-7-1-14-5-23-3-8-8-17-15-26l-230-336c-8-12-17-21-29-28-12-8-24-12-35-13zm144 62l68 100c2 3 4 5 6 7 2 1 3 2 5 2s4-1 6-2c1-1 3-3 5-6l70-88c8-10 14-18 16-24 3-6 4-12 4-18 0-8-2-14-5-17-4-4-11-7-20-9-3-1-5-2-9-2-13-3-19-8-20-15 0-4 2-7 4-10 3-2 6-3 11-3 4 0 14 1 32 3 17 2 32 3 46 3 13 0 27-1 43-3 15-2 25-3 27-3 7 0 11 1 13 3 3 2 4 5 4 10 0 8-7 14-20 17-7 1-12 3-16 5-10 4-22 13-36 27-15 14-31 32-48 54l-79 99c-2 2-4 4-5 6 0 2-1 5-1 7s0 4 1 6l3 6 114 164c10 16 21 30 32 43s20 23 29 30c4 3 9 5 16 7 10 3 15 8 15 14 0 5-1 9-4 12-3 2-8 4-14 4-8 0-21-1-40-4-20-2-36-3-48-3-17 0-35 1-53 3-18 3-28 4-30 4-6 0-11-2-15-4-3-3-5-6-5-11 0-6 6-12 20-16 13-5 20-13 20-24 0-5-2-11-5-18-2-7-6-14-11-21l-76-109c-1-2-3-4-4-6-2-2-3-2-4-2-2 0-3 0-5 2l-5 5-73 93c-10 13-16 22-19 29-4 7-5 14-5 20 0 11 8 19 24 23 3 1 5 2 7 2 2 1 6 3 11 4 13 4 20 9 20 17 0 5-2 9-5 12-4 2-9 4-15 4-4 0-14-1-30-3s-31-3-44-3-28 1-45 3c-16 2-27 3-31 3-5 0-10-2-13-4-4-3-6-6-6-10 0-6 7-12 19-16 6-3 11-5 14-7 11-5 23-13 34-23 10-10 25-27 44-51l96-121 3-6c1-3 1-5 1-7s0-4-1-6-2-5-4-8l-94-139c-11-15-22-30-34-44-12-13-21-23-29-29-6-5-15-9-26-12-12-4-18-9-18-17 0-5 1-8 4-11 3-2 8-3 14-3 10 0 25 1 47 3 21 2 38 3 49 3 16 0 34-1 52-3 19-2 30-3 34-3 6 0 10 1 13 3s4 5 4 10c0 7-4 12-13 15-2 1-3 1-4 2-8 1-14 4-18 8-4 5-6 12-6 20 0 4 1 8 2 12 2 5 5 10 9 15z"/></defs></svg>