<svg xmlns="http://www.w3.org/2000/svg" xmlns:xlink="http://www.w3.org/1999/xlink" width="56.719" height="56.719" viewBox="0 0 1500.723 1500.723" fill-rule="evenodd"><circle transform="matrix(.5 .866025 -.866025 .5 -4032.708 -5331.918)" r="750.362" cx="7658.951" cy="-1101.072" fill="#ae4a84"/><g fill="#fefefe" fill-rule="nonzero"><use xlink:href="#B"/><use xlink:href="#C"/></g><g stroke="#fefefe" stroke-width="7.62" fill="none"><use xlink:href="#B"/><use xlink:href="#C"/></g><defs ><path id="B" d="M729.292 472.082v3c16 4 27 12 35 24 8 11 12 26 13 44h3c0-2 1-5 1-9 0-12 1-21 1-25 0-13-5-22-13-28s-21-9-40-9zm-350 12l-1 3c8 5 13 13 16 25 3 11 5 30 5 57v134c0 96 10 160 29 191 20 30 55 51 106 63v-3c-44-16-75-39-92-67s-26-83-26-164v-158c0-25-3-44-8-55-6-12-16-20-29-26zm92 123v127c0 39 2 67 5 84 3 18 8 33 15 46 12 22 28 38 49 50 20 11 43 17 69 17 24 0 47-4 67-13 20-8 36-20 50-36 14-17 24-38 30-63s9-62 9-109v-126c0-30-2-51-6-64-5-13-12-23-22-29-7-3-19-6-36-8-16-3-25-8-25-17 0-4 2-8 5-10s7-3 14-3c3 0 13 1 29 3 17 2 33 3 46 3s28-1 43-3l25-3c6 0 10 1 13 3 2 2 3 5 3 9 0 6-5 11-14 15-10 3-17 7-22 11-6 4-10 13-13 27-2 14-3 48-3 102v93c0 88-18 153-55 196-37 44-92 66-166 66-70 0-120-19-150-57-31-38-47-100-47-187v-178c0-19-1-34-5-42-3-9-10-16-19-20-8-3-18-6-30-8-15-3-22-8-22-16 0-5 2-8 5-11 3-2 7-3 14-3 1 0 12 1 32 3s40 3 58 3c17 0 36-1 57-3l37-3c7 0 12 1 15 3s5 5 5 9c0 7-6 12-17 15s-19 7-24 11c-7 5-12 14-15 29s-4 44-4 87z"/><path id="C" d="M940.292 1008.082v-2c-10 4-17 8-21 14-5 6-7 13-7 22 0 12 4 22 13 30 8 9 20 14 35 17l1-2c-10-5-18-11-24-20s-9-19-9-29c0-5 1-11 3-15 2-5 5-10 9-15zm1-101l-4-1c0 5-1 9-1 11v5c0 39 35 59 104 61h9c38 2 63 6 76 12s19 16 19 30v6h4l3-9c1-3 1-5 1-8 0-29-33-44-99-45-17-1-31-2-42-2-26-2-44-7-53-15-9-9-15-24-17-45zm26-223l-2-1c-15 6-27 16-36 30-8 14-13 30-13 48 0 16 5 30 13 43 9 12 22 24 39 35l3-2c-12-14-22-27-28-41s-9-28-9-43c0-14 3-26 8-37s13-22 25-32zm105-8l-1 2c12 10 21 22 26 35 6 13 9 28 9 47 0 13-2 25-5 34-2 10-7 19-13 27h2c11-9 19-19 25-32 6-12 9-26 9-40 0-17-5-32-15-46-9-13-22-22-37-27zm65 10l13 19c8-4 15-8 19-14s6-12 6-20v-4c-5 5-11 9-17 13-6 3-13 5-21 6zm-112 307c-4 0-7-1-11-1h-13c-15 0-25 3-31 9s-9 16-9 30c0 18 7 31 20 40 14 9 34 14 60 14 29 0 52-5 69-14 16-9 25-21 25-37 0-13-5-22-13-28-9-6-23-9-44-10zm133-267c2 6 3 12 3 17 1 6 1 10 1 14 0 32-12 57-36 76s-56 29-97 29c-6 0-13 0-21-1-8 0-13-1-16-1-8 0-15 3-20 9s-8 14-8 23c0 12 4 20 12 24 8 5 21 7 39 7h37c60 0 98 5 115 16s26 31 26 59c0 35-15 62-46 81s-74 29-131 29c-38 0-66-6-85-16-20-11-29-28-29-49 0-15 4-26 11-35 8-9 22-16 41-23-10-8-18-19-23-30-5-12-8-24-8-36 0-11 3-23 10-35 7-11 17-23 30-33-21-12-36-24-45-39-9-14-14-32-14-52 0-33 12-60 37-81 24-22 54-32 90-32 30 0 58 7 85 21 7 5 13 7 15 7 17 0 31-8 40-23s14-23 16-23c3 0 5 2 6 4 2 3 3 7 3 12 0 26-3 45-9 58s-16 20-29 23zm-127-54c-18 0-33 7-42 21-10 15-15 35-15 63 0 25 5 45 16 61 11 17 25 25 42 25 19 0 33-7 44-21s16-32 16-56c0-29-5-52-16-68-11-17-26-25-45-25z"/></defs></svg>