<svg xmlns="http://www.w3.org/2000/svg" xmlns:xlink="http://www.w3.org/1999/xlink" width="56.719" height="56.719" viewBox="0 0 1500.723 1500.723" fill-rule="evenodd"><g transform="translate(-7199.355 -3630.935)"><circle transform="rotate(60)" r="750.362" cx="7769.202" cy="-4693.96" fill="#fff"/><g transform="matrix(1.21 0 0 1.21 -1669.4405 -920.07227)"><path transform="rotate(315 8974.698 -6708.156)" d="M0 0h817v817H0z" stroke="#4e565a" stroke-width="35.28" fill="#009846"/><g fill="#fefefe" fill-rule="nonzero"><use xlink:href="#B"/><use xlink:href="#C"/><use xlink:href="#D"/></g><g stroke="#fefefe" stroke-width="7.62" fill="none"><use xlink:href="#B"/><use xlink:href="#C"/><use xlink:href="#D"/></g><rect x="7498" y="4615" width="884" height="156" rx="78" stroke="#4e565a" stroke-width="35.28" fill="#009846"/></g></g><defs ><path id="B" d="M7548 4222h36c8 0 13 1 15 2 3 1 4 4 4 7s-2 6-7 9c-1 1-2 1-3 2 0 0-1 1-2 1-6 4-9 10-9 18 0 10 2 25 7 46 5 20 12 43 21 70 8 23 16 43 24 62 8 18 17 36 26 51 11-20 22-42 32-66 9-24 19-51 28-80l14-52c3-13 4-23 4-30 0-4 0-8-1-10s-2-4-4-5-5-3-8-5c-7-3-11-8-11-13 0-2 1-4 3-5 3-1 8-2 15-2h37c6 0 11 1 13 2s3 3 3 7c0 2-2 6-5 10s-6 7-7 10-4 14-9 33c-5 18-9 35-14 49-18 60-36 110-54 149-19 39-32 58-41 58-7 0-18-13-31-41-14-27-29-63-45-109-6-17-12-37-18-58l-19-73c-1-5-4-11-8-16-4-6-5-10-5-13s1-5 3-6c3-1 8-2 16-2z"/><path id="C" d="M7816 4531c-6 0-10-1-13-2-2-1-3-4-3-7 0-4 3-8 9-12 3-1 5-3 7-4s4-4 5-7c1-4 1-9 1-16v-213c0-6 0-10-1-13 0-3-1-5-3-7-1-2-4-5-10-8s-8-7-8-10c0-4 1-6 3-8 3-1 7-2 13-2h113c30 0 52 6 66 17 15 12 22 29 22 52 0 15-5 29-16 42s-27 23-46 30c25 4 44 13 59 28s22 34 22 56c0 14-3 27-8 38-6 12-14 22-24 30-8 6-17 10-28 12-10 3-28 4-52 4zm41-137v78c0 15 2 25 7 30 4 4 18 6 41 6 31 0 54-5 70-15 15-11 23-26 23-47 0-17-6-32-19-44-12-12-29-20-51-24-18 4-32 8-44 10-12 3-21 5-27 6zm0-23c41-8 72-18 92-31s30-29 30-49c0-16-5-28-17-35-12-8-30-11-56-11-23 0-37 1-42 5-4 3-7 14-7 32z"/><path id="D" d="M8061 4222h45c7 0 12 1 14 2 3 1 4 3 4 6 0 5-3 9-10 12-4 1-6 2-8 3-3 2-5 4-6 7s-2 7-2 13c0 15 5 43 15 84 9 41 22 85 38 132 19-46 34-90 45-131 11-40 16-70 16-88 0-4 0-7-1-9 0-2-1-4-3-6-2-1-5-3-9-5-5-3-7-6-7-9 0-4 1-7 4-8 2-2 6-3 12-3h40c7 0 12 1 15 2 2 2 4 5 4 8 0 4-3 8-7 10-2 1-3 2-4 2-4 3-8 6-9 9s-2 8-2 14c0 18 6 47 17 87 12 40 27 82 46 127 17-46 30-89 39-130 10-40 14-69 14-87 0-4 0-8-1-10s-2-4-5-5c-2-2-5-3-9-5-7-4-10-8-10-12s1-6 3-7c3-2 6-3 11-3h38c7 0 12 1 14 2 2 2 4 4 4 8 0 3-3 7-7 11-5 5-8 8-10 12-1 4-4 14-7 31-1 9-2 15-3 20-5 30-12 60-19 89-7 30-16 59-25 88l-1 1c-12 38-22 56-29 56-8 0-19-17-31-50-1-2-2-3-2-4-11-28-20-54-28-80-8-25-15-48-20-70-18 69-34 120-47 153-13 34-24 51-32 51-7 0-14-10-22-31-8-20-18-58-32-113-8-31-16-68-24-111l-4-25c-1-4-2-7-3-10-1-2-2-4-3-5-1 0-2-1-4-2-5-3-7-7-7-11 0-3 1-6 4-7 2-2 6-3 11-3z"/></defs></svg>