<svg width="500" height="198" xmlns="http://www.w3.org/2000/svg"><g fill="none" fill-rule="evenodd"><path fill="khaki" d="M250 0l85.737 49.5v99L250 198l-85.737-49.5v-99z"/><path d="M31.885 133V70.695h-7.47L7.52 79.777l2.685 6.836 10.693-3.222V133h10.987zM75 134.904c3.841 0 7.357-.814 10.547-2.441 3.19-1.628 5.713-3.841 7.568-6.64 1.856-2.8 2.783-5.909 2.783-9.327 0-3.353-1.033-6.543-3.1-9.57-2.067-3.028-4.76-5.469-8.081-7.324 2.637-1.758 4.81-3.923 6.518-6.495 1.71-2.571 2.564-5.175 2.564-7.812 0-2.897-.798-5.59-2.393-8.081-1.595-2.49-3.784-4.468-6.567-5.933-2.783-1.465-5.868-2.197-9.253-2.197-3.353 0-6.445.757-9.277 2.27-2.832 1.514-5.079 3.557-6.739 6.128-1.66 2.572-2.49 5.372-2.49 8.399 0 2.637.798 5.208 2.393 7.715 1.595 2.506 3.678 4.606 6.25 6.299-3.483 1.92-6.275 4.402-8.374 7.446-2.1 3.043-3.15 6.193-3.15 9.448 0 3.32.912 6.364 2.735 9.13 1.823 2.768 4.32 4.957 7.495 6.568 3.174 1.612 6.697 2.417 10.571 2.417zm1.611-39.892c-5.468-2.865-8.203-6.071-8.203-9.62 0-1.171.293-2.254.88-3.246.585-.993 1.407-1.783 2.465-2.369 1.058-.586 2.238-.879 3.54-.879s2.506.31 3.613.928c1.107.619 1.986 1.44 2.637 2.466.651 1.025.977 2.124.977 3.296 0 1.758-.546 3.467-1.636 5.127-1.09 1.66-2.515 3.092-4.273 4.297zm-1.416 29.785a9.153 9.153 0 01-4.565-1.196c-1.416-.798-2.54-1.864-3.37-3.199-.83-1.334-1.244-2.767-1.244-4.297 0-2.278.732-4.41 2.197-6.396 1.465-1.986 3.353-3.58 5.664-4.785 3.092 1.107 5.566 2.702 7.422 4.785 1.855 2.083 2.783 4.313 2.783 6.69 0 1.562-.382 2.978-1.147 4.247-.765 1.27-1.823 2.28-3.174 3.028-1.351.749-2.873 1.123-4.566 1.123zM115.283 133l9.62-15.82L135.106 133H147.9l-16.796-24.023 14.892-22.657h-12.11l-9.081 15.088-9.522-15.088h-12.597l15.918 22.998L102.49 133h12.793zm50 0l9.62-15.82L185.106 133H197.9l-16.796-24.023 14.892-22.657h-12.11l-9.081 15.088-9.522-15.088h-12.597l15.918 22.998L152.49 133h12.793zm58.74 1.318c1.205 0 2.32-.3 3.345-.903a6.642 6.642 0 002.442-2.49 6.841 6.841 0 00.903-3.443 6.487 6.487 0 00-.903-3.344 6.752 6.752 0 00-2.442-2.442 6.488 6.488 0 00-3.345-.903 6.841 6.841 0 00-3.442.903 6.642 6.642 0 00-2.49 2.442 6.488 6.488 0 00-.904 3.344c0 1.237.302 2.385.904 3.443a6.535 6.535 0 002.49 2.49 6.841 6.841 0 003.442.903zm52.979.489c3.71 0 7.145-.57 10.303-1.71 3.157-1.139 6.217-2.945 9.18-5.42v-26.171h-21.192v9.473h10.596v11.718c-2.246 1.726-5.209 2.588-8.887 2.588-2.67 0-5.054-.968-7.153-2.905-2.1-1.937-3.736-4.736-4.908-8.399-1.171-3.662-1.757-7.95-1.757-12.866 0-5.208.642-9.497 1.928-12.866 1.286-3.37 2.954-5.819 5.005-7.349 2.051-1.53 4.28-2.295 6.69-2.295 1.953 0 3.613.383 4.98 1.148 1.367.765 2.458 1.668 3.272 2.71.813 1.042 1.66 2.311 2.539 3.808.65 1.14 1.155 1.921 1.513 2.344l.05-.049 7.519-7.275c-2.051-3.743-4.802-6.714-8.252-8.911-3.45-2.197-7.26-3.296-11.426-3.296-3.678 0-7.446.993-11.304 2.978-3.857 1.986-7.17 5.42-9.936 10.303-2.767 4.883-4.15 11.36-4.15 19.434 0 6.543.992 12.296 2.978 17.26 1.986 4.965 4.883 8.83 8.691 11.597 3.809 2.767 8.382 4.15 13.721 4.15zm11.572-45.655l.39-.39-.145-.11c-.468-.35-.761-.525-.88-.525-.097 0-.146.065-.146.195v.05l.781.78zm30.322 45.069c2.898 0 5.608-.48 8.13-1.44 2.523-.961 4.68-2.288 6.47-3.98V133h10.693v-28.418c0-7.064-1.847-12.126-5.542-15.186-3.694-3.06-8.618-4.59-14.77-4.59-3.255 0-6.567.684-9.937 2.051-3.369 1.368-6.518 3.386-9.448 6.055l5.713 7.373c1.953-2.018 4.085-3.589 6.397-4.712 2.31-1.123 4.54-1.684 6.689-1.684 3.385 0 5.908.87 7.568 2.612 1.66 1.742 2.653 4.647 2.979 8.716h-3.418c-5.501 0-10.23.61-14.185 1.83-3.955 1.222-6.982 3.004-9.082 5.348-2.1 2.343-3.15 5.175-3.15 8.496 0 4.101 1.27 7.348 3.81 9.74 2.539 2.393 6.233 3.59 11.083 3.59zm3.614-8.545c-2.311 0-4.126-.423-5.445-1.27-1.318-.846-1.977-2.18-1.977-4.004 0-2.669 1.318-4.622 3.955-5.859s6.82-1.856 12.549-1.856h2.246c-.39 4.493-1.546 7.78-3.467 9.864-1.92 2.083-4.54 3.125-7.861 3.125zM363.28 133v-31.006c0-3.288.35-5.59 1.05-6.909.7-1.318 1.717-1.978 3.052-1.978.879 0 1.587.554 2.124 1.66.537 1.107.805 3.158.805 6.153V133h10.303v-30.713c0-6.12 1.27-9.18 3.809-9.18 1.074 0 1.839.562 2.295 1.685.455 1.123.683 2.987.683 5.59V133h10.4V98.479c0-4.85-.691-8.423-2.074-10.718-1.384-2.295-3.8-3.443-7.251-3.443-2.181 0-4.004.456-5.47 1.368-1.464.911-2.799 2.31-4.003 4.199-.879-1.953-2.035-3.37-3.467-4.248-1.432-.88-2.946-1.319-4.54-1.319-1.53 0-3.004.367-4.42 1.099s-2.677 1.831-3.784 3.296v-2.93h-9.57V133h10.058zm63.721 1.611c7.064 0 12.956-2.8 17.676-8.398l-6.201-6.201c-1.4 1.79-3.19 3.182-5.372 4.175-2.18.992-4.345 1.489-6.494 1.489-3.027 0-5.631-1.083-7.812-3.247-2.181-2.165-3.516-5.38-4.004-9.644h30.615l.098-1.367c.13-1.432.195-2.54.195-3.32 0-4.85-.879-8.993-2.637-12.427-1.757-3.434-4.142-6.022-7.153-7.764-3.011-1.741-6.388-2.612-10.132-2.612-4.232 0-8.024 1.017-11.377 3.052-3.353 2.034-5.973 4.94-7.861 8.716-1.888 3.776-2.832 8.186-2.832 13.232 0 4.98 1 9.302 3.003 12.964 2.002 3.662 4.76 6.47 8.276 8.423 3.516 1.953 7.52 2.93 12.012 2.93zm7.52-30.029h-19.336c.358-3.32 1.432-5.965 3.222-7.935 1.79-1.969 4.053-2.954 6.787-2.954 1.856 0 3.492.497 4.908 1.49 1.416.992 2.506 2.319 3.271 3.98.765 1.66 1.147 3.466 1.147 5.419zm41.992 30.03c3.45 0 6.575-.717 9.375-2.15 2.8-1.431 5.005-3.328 6.616-5.688 1.611-2.36 2.417-4.89 2.417-7.592 0-2.507-.505-4.59-1.514-6.25-1.009-1.66-2.604-3.085-4.785-4.273-2.18-1.188-5.192-2.368-9.033-3.54-2.767-.846-4.891-1.579-6.372-2.197-1.481-.619-2.588-1.31-3.32-2.075-.733-.765-1.1-1.685-1.1-2.76 0-1.171.668-2.099 2.003-2.782 1.334-.684 2.995-1.026 4.98-1.026 2.54 0 4.891.537 7.056 1.612a13.912 13.912 0 015.298 4.54v.025c0 .016.016.024.049.024l.048-.097 5.664-7.862c-2.539-2.44-5.314-4.256-8.325-5.444-3.01-1.188-6.34-1.782-9.985-1.782-3.646 0-6.828.594-9.546 1.782-2.718 1.188-4.801 2.832-6.25 4.932-1.449 2.1-2.173 4.5-2.173 7.202 0 3.743 1.49 6.681 4.468 8.813 2.978 2.133 7.153 3.899 12.524 5.298 2.507.716 4.476 1.4 5.909 2.051 1.432.651 2.474 1.367 3.125 2.148.65.782.976 1.71.976 2.784 0 3.515-2.67 5.273-8.008 5.273-3.808 0-7.04-.561-9.692-1.684-2.653-1.123-5.119-2.922-7.398-5.396l-.097-.098-.049.098-4.688 8.203c2.898 2.767 6.088 4.777 9.57 6.03 3.484 1.254 7.57 1.88 12.257 1.88zm11.23-33.497l.195-.244-.067-.045-.187-.125-.258-.172c-.244-.162-.415-.244-.513-.244-.065 0-.098.033-.098.098v.097l.928.635zm.562-.024c.146.081.22.106.22.073 0-.098-.115-.325-.342-.684l-.245.391c.098.065.22.138.367.22zm-27.564 17.456c.065 0 .098-.033.098-.098l-.049-.146-.977-.586-.195.342c.163.065.366.162.61.293.245.13.416.195.513.195zm-1.318-.147l.195-.341-.537-.245c-.033 0-.049.009-.049.025v.024c0 .098.13.277.39.537z" fill="#000" fill-rule="nonzero"/></g></svg>