<svg xmlns="http://www.w3.org/2000/svg" viewBox="0 0 100 100">
  <!-- SP=#76a042  NP=#95c054  TP=#7b352a  CN=#add8e6 — 4 equal 90° segments from top -->
  <path d="M 50,50 L 50,3 A 47,47 0 0,1 97,50 Z" fill="#76a042"/>
  <path d="M 50,50 L 97,50 A 47,47 0 0,1 50,97 Z" fill="#95c054"/>
  <path d="M 50,50 L 50,97 A 47,47 0 0,1 3,50 Z" fill="#7b352a"/>
  <path d="M 50,50 L 3,50 A 47,47 0 0,1 50,3 Z" fill="#add8e6"/>
  <line x1="50" y1="50" x2="50" y2="3" stroke="white" stroke-width="2"/>
  <line x1="50" y1="50" x2="97" y2="50" stroke="white" stroke-width="2"/>
  <line x1="50" y1="50" x2="50" y2="97" stroke="white" stroke-width="2"/>
  <line x1="50" y1="50" x2="3" y2="50" stroke="white" stroke-width="2"/>
  <circle cx="50" cy="50" r="47" fill="none" stroke="white" stroke-width="3"/>
  <!-- centre label -->
  <circle cx="50" cy="50" r="24" fill="white" fill-opacity="0.9"/>
  <text x="50" y="47" text-anchor="middle" font-family="sans-serif" font-size="16" font-weight="bold" fill="#333">200</text>
  <text x="50" y="63" text-anchor="middle" font-family="sans-serif" font-size="16" font-weight="bold" fill="#333">+60</text>
</svg>
