<svg id="art" xmlns="http://www.w3.org/2000/svg" xmlns:xlink="http://www.w3.org/1999/xlink" viewBox="0 0 34.02 34.02"><defs><style>.cls-1{fill:none;}.cls-2{clip-path:url(#clip-path);}.cls-3{fill:#2ab24b;}.cls-4{fill:#fff;}</style><clipPath id="clip-path"><circle class="cls-1" cx="17.01" cy="17.01" r="16.67"/></clipPath></defs><g class="cls-2"><path class="cls-3" d="M37.84,17A20.84,20.84,0,1,1,17-3.83,20.83,20.83,0,0,1,37.84,17Z"/></g><path class="cls-4" d="M12.82,9.61,16,23.26a2.26,2.26,0,0,0,.49,1v.13H13.14v-.15a1.23,1.23,0,0,0,.21-1.05l-.53-2.07H10.74l-.59,2.18a1.11,1.11,0,0,0,.17.94v.15H7.22V24.3a2.08,2.08,0,0,0,.4-.75L10.89,10.7a1,1,0,0,0-.32-.95V9.61Zm-1.68,9.54h1.32L11.82,16Z"/><path class="cls-4" d="M23.91,24.41l-2.29-7.29-1,1.59v4.42A2.29,2.29,0,0,0,21,24.26v.15H17.78v-.15a2.31,2.31,0,0,0,.36-1.13V11a2.38,2.38,0,0,0-.36-1.13V9.75H21V9.9A2.23,2.23,0,0,0,20.64,11v3.62l2.27-3.83A.87.87,0,0,0,23,9.9V9.75h3.33v.11a5.44,5.44,0,0,0-.76,1l-2.29,3.64,3,9a2.4,2.4,0,0,0,.56.81v.11Z"/></svg>