<svg xmlns="http://www.w3.org/2000/svg" viewBox="0 0 34.02 34.02" xmlns:v="https://vecta.io/nano"><style><![CDATA[.I{fill:#0b86c8}.J{fill:#f8ec1c}.K{fill-rule:evenodd}]]></style><defs><clipPath id="A"><path d="M34-22.37C33.63 0 .38 0 0-22.37c.38-22.36 33.64-22.36 34 0z" fill="none"/></clipPath><clipPath id="B"><path d="M-7.85-22.37C-8.23 0-41.49 0-41.87-22.37c.38-22.36 33.64-22.36 34.02 0z" fill="none"/></clipPath><clipPath id="C"><path d="M34,17C33.63,39.37.38,39.36,0,17,.38-5.35,33.64-5.35,34,17Z" fill="none"/></clipPath></defs><g clip-path="url(#A)" class="K"><path d="M17-47.1c32.86.48,33,49.36.12,50-32.86-.49-33-49.37-.12-50" fill="#85c87a"/></g><g clip-path="url(#B)" class="K"><path d="M-24.86-48.38c34.19.58,34.18,51.44,0,52-34.19-.59-34.18-51.44,0-52" fill="#ed1c24"/></g><g clip-path="url(#C)"><g class="I"><path d="M-5.86-5.86h45.73v45.73H-5.86z"/><path d="M24.46,5.79,22,26.39H20.83c-.23,4.84-7.41,4.84-7.64,0H12L9.55,5.79h1.21V4.88H23.25v.91Z"/></g><path d="M24.21,6H23V5.1H11V6H9.81l2.35,20.16h1.23c0,4.84,7.21,4.84,7.24,0h1.23Z" class="J"/><path d="M23.86,6.33,21.55,25.86H20.31c.32,4.81-6.92,4.81-6.6,0H12.46L10.16,6.33H11.3V5.42H22.71v.91Z" class="I"/><path d="M12.61,13.65l-.48-1.38-.34,0-.32,1.46a1.51,1.51,0,0,0,.3,0l.05-.25h.43l.08.21a1.16,1.16,0,0,0,.28,0" class="J"/><path d="M12.14 13.2h-.25l.1-.46.15.46z" class="I"/><g class="J"><path d="M12.85 10.73l-.29-.81h-.2l-.28.81h.18l.03-.11h.33l.03.11h.2zm3.35 5.35c-.3-.64-.89.58-1 1.07l-.83 1c-.77-.77-1.9.34-.77.91l-1.35 1.59.09.11c.11 0 1.37-1.61 1.44-1.65 1.05.26 1.24-.89 1.57-1.81.15-.23.88-.86.84-1.17"/></g><path d="M12.55 10.44h-.19l.1-.25.09.25z" class="I"/><g class="J"><path d="M13.74 8.12a.51.51 0 0 0-.18-.41C14 6.93 13 6.92 12.47 7v1.7c.47 0 1.33.16 1.27-.58m.1 5.28l-.5-.54c.4-.5-.09-.95-.62-.7v1.48l.3-.05V13h.05l.44.47.33-.07z"/></g><g class="I"><path d="M13.34 7.41c0 .22-.4.14-.54.15v-.27c.11 0 .55-.08.54.12m.08.71c0 .36-.4.25-.62.27V7.9c.19 0 .65-.07.62.22m-.23 4.37a.23.23 0 0 1-.17.24v-.34h.08l.09.1"/></g><g class="J"><path d="M13.66 10.73v-.81h-.19v.42l-.26-.42h-.16v.81h.19v-.43l.29.43h.13zm.34 4.44l-.25-.54c.41-.51-.23-.71-.64-.62v1.16h.21v-.46h.22l.22.46z"/></g><g class="I"><path d="M14.27 18.25l-.53.6c-1-.38-.06-1.23.53-.6m-.59-3.89c0 .2-.22.12-.32.14v-.27h.21l.11.13"/></g><g class="J"><path d="M15.07 23.33l-.08-1.72h-.29l-.42 1.2-.42-1.2h-.29l-.1 1.72h.34l.03-.76.27.76h.33l.26-.76.05.76h.32zm.14-10.84c.1-1-1.64-1-1.53 0-.11 1 1.63 1 1.53 0m.1-3.78l-.57-1.74h-.37l-.58 1.74h.34l.15-.44h.54l.14.44h.35zm-.71 12.4v-1.03h-.18v.62l-.38-.62h-.16v1.03h.18v-.64l.39.64h.15z"/></g><path d="M15 17.63c-.2.44-.35 1.37-1.09 1.28L15 17.63z" class="I"/><path d="M14.69,10.3c0-.46-.43-.38-.73-.38v.81c.32,0,.76.07.73-.43" class="J"/><path d="M14.9,12.49c.07.63-1,.63-.94,0s1-.63.94,0" class="I"/><path d="M15.06,15.17,14.7,14h-.23l-.37,1.16h.23l.09-.25h.33l.07.25Z" class="J"/><g class="I"><path d="M14.5 10.3c0 .28-.18.24-.35.24v-.44c.15 0 .37 0 .35.2m.2-2.37h-.32l.17-.47.15.47zm-.01 6.77h-.21l.1-.32.11.32z"/></g><path d="M15.88,20.59c.08-.75-1.19-.75-1.11,0-.08.74,1.19.74,1.11,0" class="J"/><path d="M15.7,20.59c.05.5-.81.49-.76,0s.81-.5.76,0" class="I"/><g class="J"><path d="M16.62 11.82c.11-1-1.64-1.05-1.53 0-.11 1 1.64 1 1.53 0m4.98 5.27l-.1-.1a4.25 4.25 0 0 0-1.46.45l.3-1.21-.08-.09-.1.09c-.12.49-.28.77-.64.64 0-.35.09-.6.55-.57l.09-.09c-.55-.44-.73.57-1.05.83.16-.45-.19-.57-.52-.49l-.08.07c-.06.16-.06.74-.37.79a.07.07 0 0 1 0-.07h0c.11-.46.16-.63.16-.5l-.1-.09a.61.61 0 0 1-.3.22l-.13-.17a9.17 9.17 0 0 0-.48.86 5.21 5.21 0 0 1-.05-.57l-.08-.09-.1.08v.45c-.17.31-.31.49-.52.46a3.45 3.45 0 0 1 .35-.88l-.48.09a.16.16 0 1 0-.32 0l.1.13c0 .35-.57 1.35-.78.74l.59-.33c-.18-.73-.78-.37-.77.37.23.82 1 .06 1.14-.78h.2c-.48.76 0 1.14.54.44.27.19.36-.13.64-.68a.34.34 0 0 0 .22 0 1.83 1.83 0 0 0-.1.46l.08.08.11-.08a.39.39 0 0 0 .28-.11h.09l.08-.07c-.06-.38.51-1.27.37-.27l.1.12a.69.69 0 0 0 .41-.23.58.58 0 0 0 .61.01l-.15.55c-2.49 1.35-.18 3 .15.14a4.22 4.22 0 0 1 1.53-.51l.1-.08m-6.34-3.09h.22v1.16h-.22zm1.48 9.32l-.52-1.72h-.37l-.54 1.72h.36l.08-.3h.56l.1.3h.33z"/></g><path d="M16.32,11.82c.06.63-1,.63-.94,0s1-.66.94,0" class="I"/><path d="M16.54 8.71V6.97h-.34v.86l-.47-.86h-.29v1.74h.32v-1l.58 1h.2z" class="J"/><g class="I"><path d="M15.83 17.68l-.32.2c.07-.2.13-.31.2-.31l.12.11m.17-1.57a2.58 2.58 0 0 1-.5.67c.18-.43.34-.66.5-.69z"/></g><path d="M16.35 15.17v-.22h-.3v-.94h-.22v1.16h.52z" class="J"/><path d="M16.23 22.71h-.35l.19-.59.16.59z" class="I"/><path d="M16.81,21.11l-.26-.44c.32-.41-.1-.71-.5-.6v1h.18v-.37h.16l.22.37Z" class="J"/><path d="M16.49,20.4c0,.18-.14.16-.26.15v-.3c.12,0,.27,0,.26.15" class="I"/><g class="J"><path d="M18 27.39l-.4-.64h.22l-.36-.44h.15l-.27-.3h.17l-.35-.43-.37.43h.17l-.27.3h.15l-.35.44h.22l-.41.64.42-.09-.23.49.47-.1c0 .41.07.54-.29.69v.05h1v-.05c-.25-.11-.32-.31-.29-.69l.48.1-.24-.49zm-.5-12.22l-.27-.54c.44-.48-.21-.72-.62-.62v1.16h.21v-.46H17l.22.46zm-.19-3.65c.07-.27-.72-.7-.22-.79v-.29c-1.23.08.41 1.19-.28 1.31v.29c.32.06.53-.17.52-.52m1.14-3.69v-.15h-.74V8h.39c-1 1.49-1.75-1.39 0-.62l.13-.31c-3.12-.88-.74 3.57.2.76"/></g><path d="M17.14,14.36c0,.19-.21.12-.32.14v-.27H17l.11.13" class="I"/><g class="J"><path d="M17.4 20.25v-.18h-.54v.18h.18v.86h.19v-.86h.17zm-.37 1.36h.33v1.72h-.33zm1.17-11.34V10a5.65 5.65 0 0 0-.84.34v.29l.3-.14v1.16l.34-.15v-1.15zm.54 4.33c.09-.85-1.31-.83-1.23 0-.08.8 1.32.82 1.23 0m-.32 6.51v-1.03h-.18v.31h-.36v-.31h-.18v1.03h.18v-.54h.36v.54h.18z"/></g><path d="M18.52,14.6c.06.52-.84.51-.79,0s.85-.55.79,0" class="I"/><g class="J"><path d="M19.11 23.33v-1.72h-.32v1.02l-.67-1.02h-.27v1.72h.32v-1.04l.69 1.04h.25zm-.69-7l-.07-.1c-.05 0-.08.05-.1.15l.07.08.1-.13m1.4-5.82c.11-1-1.64-1-1.53 0-.11 1 1.64 1 1.53 0"/></g><path d="M19.53,10.51c.07.64-1,.62-1,0s1-.64,1,0" class="I"/><g class="J"><path d="M20.39 7.83a.89.89 0 0 0-1.77 0 .89.89 0 0 0 1.77 0m-1.24 12.42v-.18h-.47v1.02h.43v-.18h-.25v-.34h.27v-.18h-.27v-.14h.29z"/><path d="M19.72 15.17l-.35-1.16h-.24l-.36 1.16h.22l.09-.25h.34l.08.25h.22z"/></g><g class="I"><path d="M19.75 17.79c-.11.45-.32 1.38-.72 1.35-.52-.31.08-1 .72-1.35m.32-9.96c.08.77-1.2.76-1.13 0s1.21-.75 1.13 0m-.72 6.87h-.2l.1-.32.1.32z"/></g><path d="M20.19,21.11l-.25-.44c.36-.4-.1-.71-.51-.6v1h.19v-.37h.17l.2.37Z" class="J"/><path d="M19.87,20.4c0,.18-.14.16-.25.15v-.3c.11,0,.26,0,.25.15" class="I"/><g class="J"><path d="M21 23.3v-.32h-1.06v-.46H21v-.33h-1.06v-.26H21v-.32h-1.38v1.69H21zm.4-12.88c.11-1-1.64-1-1.53 0-.11 1 1.64 1.05 1.53 0m-.62 4.18c0-.63-.47-.59-.89-.58v1.15c.42 0 .92.07.89-.57"/></g><g class="I"><path d="M20.56 14.6c0 .38-.2.36-.45.35v-.71c.24 0 .46 0 .45.36m.55-4.18c.07.63-1 .63-.94 0s1-.63.94 0"/></g><g class="J"><path d="M21.05 21.11v-1.03h-.19v.62l-.37-.62h-.15v1.03h.19v-.64l.37.64h.15zm.82-12.39l-.48-.82c.68-.63-.17-1.09-.81-.93V8.7h.33V8h.14l.43.76z"/></g><path d="M21.3,7.44c0,.22-.23.21-.39.2V7.29c.13,0,.41-.06.39.15" class="I"/><path d="M22.58 11.7l-.42-1.23.32-.28-.25-.19-.44.4v-.55l-.29-.07v1.45l.29.07v-.49l.13-.14.27.8a1.8 1.8 0 0 1 .39.23" class="J"/></g></svg>