<svg id="art" xmlns="http://www.w3.org/2000/svg" xmlns:xlink="http://www.w3.org/1999/xlink" viewBox="0 0 34.02 34.02"><defs><style>.cls-1{fill:none;}.cls-2{clip-path:url(#clip-path);}.cls-3{fill:#ec2785;}.cls-4{clip-path:url(#clip-path-2);}.cls-5{fill:#fff;}</style><clipPath id="clip-path"><circle class="cls-1" cx="17.01" cy="17.01" r="16.67"/></clipPath><clipPath id="clip-path-2"><circle class="cls-1" cx="17.01" cy="58.04" r="16.67"/></clipPath></defs><g class="cls-2"><path class="cls-3" d="M37.84,17A20.84,20.84,0,1,1,17-3.83,20.83,20.83,0,0,1,37.84,17Z"/></g><g class="cls-4"><path class="cls-5" d="M12.69,11.26v.1a2.3,2.3,0,0,0-.19.41.85.85,0,0,0-.06.31v8.65a1.28,1.28,0,0,0,.25.72v.1H10.44v-.1a1.8,1.8,0,0,0,.26-.8V16.77H8.89v3.88A1,1,0,0,0,9,21a3.72,3.72,0,0,0,.2.44v.1H6.82v-.1a1.71,1.71,0,0,0,.27-.8V12.16a1.71,1.71,0,0,0-.27-.8v-.1H9.16v.1a1.71,1.71,0,0,0-.27.8v3H10.7v-3a1.8,1.8,0,0,0-.26-.8v-.1Z"/><path class="cls-5" d="M20.06,11.26v.1a1.75,1.75,0,0,0-.23.8v9.39h-.6L16,15.29v5.36a1.36,1.36,0,0,0,.27.78v.12H14v-.12a1.58,1.58,0,0,0,.27-.78V12.16a1.12,1.12,0,0,0-.06-.38,3.53,3.53,0,0,0-.19-.42v-.1h1.89l2.19,4.47V12.16a1.32,1.32,0,0,0-.26-.8v-.1Z"/><path class="cls-5" d="M27.2,11.26v.1a2.3,2.3,0,0,0-.19.41.85.85,0,0,0-.06.31v8.65a1.28,1.28,0,0,0,.25.72v.1H25v-.1a1.8,1.8,0,0,0,.26-.8V16.77H23.4v3.88a1,1,0,0,0,.07.36,3.72,3.72,0,0,0,.2.44v.1H21.33v-.1a1.71,1.71,0,0,0,.27-.8V12.16a1.71,1.71,0,0,0-.27-.8v-.1h2.34v.1a1.71,1.71,0,0,0-.27.8v3h1.81v-3a1.8,1.8,0,0,0-.26-.8v-.1Z"/></g><path class="cls-5" d="M7.82,9.68c1.76,0,2.78,1.51,2.78,3.77a4.22,4.22,0,0,1-1,2.76,4.17,4.17,0,0,1,1.76,3.73c0,2.64-1.4,4.4-3.5,4.4H4.6v-.15a2.59,2.59,0,0,0,.31-1.13V11A2.63,2.63,0,0,0,4.6,9.83V9.68Zm.91,3.77c0-1-.39-1.63-.92-1.63H7v3.7A1.85,1.85,0,0,0,8.73,13.45ZM9.12,20c0-1.49-.41-2.47-1.23-2.47H7v4.88h.8C8.59,22.39,9.12,21.43,9.12,20Z"/><path class="cls-5" d="M18.82,23.94a3.87,3.87,0,0,1-2.12.54c-2.7,0-4.5-2.87-4.5-7.14,0-4.69,1.8-7.81,4.54-7.81a3.59,3.59,0,0,1,2,.46l.11,3.19-.07,0c-.18-.25-1.09-1.45-2-1.45-1.36,0-2.26,2.16-2.26,5.59,0,2.83.9,4.71,2.22,4.71a3.78,3.78,0,0,0,2.19-1H19Z"/><path class="cls-5" d="M29.54,11v12.1a2.46,2.46,0,0,0,.29,1.13v.15H27.27v-.15a2.62,2.62,0,0,0,.28-1.13V14.48l-2.26,5.29H25.1l-2.28-5.29v8.68a1.86,1.86,0,0,0,.34,1v.15H20.47v-.15a2.14,2.14,0,0,0,.37-1.13V10.81a2,2,0,0,0-.33-1V9.68h2.56l2.13,5.23,2-5.23h2.68v.15A1.85,1.85,0,0,0,29.54,11Z"/></svg>