<svg id="art" xmlns="http://www.w3.org/2000/svg" xmlns:xlink="http://www.w3.org/1999/xlink" viewBox="0 0 34.02 34.02"><defs><style>.cls-1{fill:none;}.cls-2{clip-path:url(#clip-path);}.cls-3{fill:#b94e27;}.cls-4{fill:#fff;}</style><clipPath id="clip-path"><circle class="cls-1" cx="17.01" cy="17.01" r="16.67"/></clipPath></defs><g class="cls-2"><path class="cls-3" d="M37.84,17A20.84,20.84,0,1,1,17-3.83,20.83,20.83,0,0,1,37.84,17Z"/></g><path class="cls-4" d="M16,23.94a5.32,5.32,0,0,1-2.53.54c-3.22,0-5.36-2.87-5.36-7.14,0-4.69,2.14-7.81,5.41-7.81a4.92,4.92,0,0,1,2.35.46L16,13.18l-.09,0a3.88,3.88,0,0,0-2.39-1.45c-1.62,0-2.7,2.16-2.7,5.59,0,2.83,1.08,4.71,2.65,4.71a4.89,4.89,0,0,0,2.61-1h.09Z"/><path class="cls-4" d="M22.08,9.68c2.33,0,3.88,1.78,3.88,4.44s-1.7,4.58-4.24,4.58h-.94v4.36a1.89,1.89,0,0,0,.45,1.13v.15H17.92v-.15a2.31,2.31,0,0,0,.36-1.13V11a2.34,2.34,0,0,0-.36-1.13V9.68Zm1.18,4.52c0-1.53-.78-2.53-2-2.53h-.49v5h.91C22.65,16.63,23.26,15.67,23.26,14.2Z"/></svg>