<svg id="art" xmlns="http://www.w3.org/2000/svg" xmlns:xlink="http://www.w3.org/1999/xlink" viewBox="0 0 34.02 34.02"><defs><style>.cls-1{fill:none;}.cls-2{clip-path:url(#clip-path);}.cls-3{fill:#584232;}.cls-4{fill:#fff;}</style><clipPath id="clip-path"><circle class="cls-1" cx="17.01" cy="17.01" r="16.67"/></clipPath></defs><g class="cls-2"><path class="cls-3" d="M37.84,17A20.84,20.84,0,1,1,17-3.83,20.83,20.83,0,0,1,37.84,17Z"/></g><path class="cls-4" d="M9.73,24.85,7.51,17.29l-1,1.65v4.58a2.51,2.51,0,0,0,.35,1.17v.16H3.78v-.16a2.44,2.44,0,0,0,.35-1.17V11a2.51,2.51,0,0,0-.35-1.17V9.66H6.91v.15A2.44,2.44,0,0,0,6.56,11v3.75l2.2-4a.92.92,0,0,0,.08-.95V9.66h3.23v.11a5.68,5.68,0,0,0-.74,1L9.11,14.54,12,23.89a2.55,2.55,0,0,0,.53.85v.11Z"/><path class="cls-4" d="M23.35,24.67v.18h-3l-.76-1.24a4.05,4.05,0,0,1-2.92,1.47c-2.26,0-3.74-1.62-3.74-4.33,0-1.92,1.15-3.11,2.38-4.13a1.21,1.21,0,0,0-.16-.26,7.39,7.39,0,0,1-1.28-3.58,3,3,0,0,1,3.17-3.19,2.94,2.94,0,0,1,3.19,3.19A5.29,5.29,0,0,1,18.16,17c.43.7.91,1.48,1.4,2.26a11.36,11.36,0,0,0,.23-2.17h2.59v.15a1.4,1.4,0,0,0-.49.93A14.45,14.45,0,0,1,21,21.53c.6,1,1.13,1.84,1.3,2A5.12,5.12,0,0,0,23.35,24.67Zm-4.84-2.82-2.08-3.43a3.17,3.17,0,0,0-1.09,2.33c0,.88.44,1.93,1.59,1.93A2,2,0,0,0,18.51,21.85ZM16,12.72c0,.67.25,1.1,1,2.38a3.31,3.31,0,0,0,1.09-2.34c0-.5-.18-1.45-1-1.45S16,12.26,16,12.72Z"/><path class="cls-4" d="M27.69,9.66c2.26,0,3.76,1.84,3.76,4.6S29.81,19,27.34,19h-.91v4.51a2,2,0,0,0,.44,1.17v.16H23.66v-.16A2.55,2.55,0,0,0,24,23.52V11a2.63,2.63,0,0,0-.35-1.17V9.66Zm1.15,4.68c0-1.58-.76-2.62-1.93-2.62h-.48v5.14h.89C28.24,16.86,28.84,15.86,28.84,14.34Z"/></svg>