<svg xmlns="http://www.w3.org/2000/svg" viewBox="0 0 34.02 34.02" xmlns:v="https://vecta.io/nano"><defs><clipPath id="A"><path d="M34-22.37C33.63 0 .38 0 0-22.37c.38-22.36 33.64-22.36 34 0z" fill="none"/></clipPath><clipPath id="B"><path d="M75.88-22.37C75.5 0 42.24 0 41.87-22.37c.38-22.36 33.63-22.36 34.01 0z" fill="none"/></clipPath><clipPath id="C"><path d="M34,17C33.63,39.37.38,39.36,0,17,.38-5.35,33.64-5.35,34,17Z" fill="none"/></clipPath></defs><g clip-path="url(#A)"><path d="M17-45.93C48-45.4,48,.66,17,1.18c-31-.53-31-46.59,0-47.11" fill="#ffd900" fill-rule="evenodd"/></g><g clip-path="url(#B)"><path d="M58.88-47.87c33.51.57,33.51,50.43,0,51-33.52-.58-33.52-50.44,0-51" fill-rule="evenodd" fill="#b53e96"/></g><g clip-path="url(#C)"><path d="M-5.18-6.58h45.73v45.73H-5.18z" fill="#08944b"/><g fill-rule="evenodd" fill="#f0b81c"><path d="M15.78,3.66c15-1.7,19.34,18.74,8.44,24.76C4.92,39-6.16,6.86,15.78,3.66M17.49,4.8c0,.68-.81,4,.19,4,.56-.78.49-2.93.38-4Zm-2.09,2a7.09,7.09,0,0,0-1.14-1.71c-.44,0-.55.26-.75.47.23.86-.51,3.55.28,3.8.49,0,.29-.72.47-1a1.57,1.57,0,0,1,.86-.19c.34.26.56.94,1.23.57a4,4,0,0,0-1-1.89m5.31-1.43a14.14,14.14,0,0,0-1.51,3.7c1,.33.78-1.27,1.42-1.61.31.7-.12,2.14.57,2.47.69-.25.78-1.18,1-1.81s.9-1.28.67-2c-.08,0-.19,0-.19-.09-.81.17-.53,1.43-1.24,1.7-.17-.74,0-1.85-.37-2.37ZM10.37,6.89h-.28c-.85.63.2,1.46.19,2.37-.78-.1-1.65-1.11-2.37-.38.59.76,2.17,3.37,3.13,2.56,0-.65-1-.82-.85-1.32.44.14.94.66,1.42.47.21-.37-.47-1.09-.29-1.42.46.23.85,1.25,1.52.66-.52-1.28-1.69-1.92-2.47-2.94m14.42.76a13.3,13.3,0,0,0-2.46,3.13c.45.34,1,1.38,1.7.85,0-.66-.69-.57-.76-1.14.44-1.24,1.11.62,1.81-.09,0-.7-.64-.68-.76-1.23.72-1.06.73,0,1.61.09A.47.47,0,0,1,26.22,9c-.22-.7-.83-1-1.43-1.33m-8.63,6.07c-.27.49-.7.82-.95,1.33,1.32.37-.85,1.24-1,2,.38.11.66-.29.76.09-.39.78-1.27,1.08-1.7,1.81.69.12,1.09-.55,1.61-.29-.56.93-1.7,1.27-2.37,2.09,1.12.34,2.53-.8,3.6-.19,0,.22-.15.36-.09.66a4.57,4.57,0,0,0,2.08,0c.06-.43-.21-.54-.19-.94,1.31-.24,2.78,1,3.8.28-.84-.65-1.94-1-2.47-2,.53.14,1.37.86,1.9.38-.73-.54-1.82-1.22-2-2a2.69,2.69,0,0,0,1.14.28c-.43-.74-1.57-1.28-1.71-2,.22,0,.35.15.66.09-.22-.75-1-1-1.23-1.71.13-.09.35-.08.38-.28a4,4,0,0,1-1.14-2.18c-.12,0-.13-.12-.29-.1-.07,1.06-1.25,1.72-.85,2.66M6.39,20.93c-.62,1-.45,2.73.86,2.85.47-1-1.29-2.59.85-2.85,1.24,0,.69,1.27,2.09,1.23.43-2.1-2.76-2.85-3.8-1.23m18.21-.57c-.05.23-.36.2-.28.57a19.92,19.92,0,0,0,3.42,1.61c.44-.41,1.13-1.37.75-2-.72-.09-.55.71-.95.95-1.11-.25-1.85-.86-2.94-1.14m-1.33,2a2.75,2.75,0,0,0-.56.57A13.24,13.24,0,0,0,25,26.43c.57-.34.26-.88.1-1.42.31-1,1.63.27,1.8-.76a21.27,21.27,0,0,0-3.61-1.9m-12.42.19c-1.11,1.08-4.31,3.19-1.23,4.18,0-.14.21-.11.28-.19.13-.76-.58-.69-.66-1.24.45-.92.88.17,1.52.19.74-.65-.21-.81-.39-1.42.46-1,.88.06,1.52.19a.47.47,0,0,1,.29-.28,2.08,2.08,0,0,0-1.33-1.43m8.73,2.37c.52.88,1,4.07,2.27,3.23,0-.65-.52-.87-.57-1.52.85.15,1.45,1.45,2.28.76-.09-.83-1.15-.68-1.33-1.42,1.06-2.26-1.8-2-2.65-1.05m-6.46-.66c-.48,1.19-1.4,2.45-1.32,3.89,1,0,.69-1.4,1.32-1.8.35.79-.21,2.5.86,2.56a13.79,13.79,0,0,0,1.52-3.8c-1.15-.42-.79,1.41-1.52,1.71-.21-.73,0-1.87-.38-2.47-.23,0-.21-.17-.48-.09m4.37.95c-.58,0-1.4-.05-1.33.47s1,.08,1.05.57c.15,1-.24,2.7.47,3,.85-.5.12-2.2.28-3.23,1.65-.4,1.06-1.06-.47-.85"/><path d="M14.67,8.29c.28,0,.32.27.32.57-.44.14-.31-.28-.32-.57"/></g></g></svg>