<svg id="art" xmlns="http://www.w3.org/2000/svg" xmlns:xlink="http://www.w3.org/1999/xlink" viewBox="0 0 34.02 34.02"><defs><style>.cls-1{fill:none;}.cls-2{clip-path:url(#clip-path);}.cls-3{fill:#584232;}.cls-4{fill:#fff;}</style><clipPath id="clip-path"><circle class="cls-1" cx="17.01" cy="17.01" r="16.67"/></clipPath></defs><g class="cls-2"><path class="cls-3" d="M37.84,17A20.84,20.84,0,1,1,17-3.83,20.83,20.83,0,0,1,37.84,17Z"/></g><path class="cls-4" d="M17.15,9.68c2.33,0,3.88,1.78,3.88,4.44s-1.7,4.58-4.24,4.58h-.94v4.36a1.89,1.89,0,0,0,.45,1.13v.15H13v-.15a2.31,2.31,0,0,0,.36-1.13V11A2.34,2.34,0,0,0,13,9.83V9.68Zm1.18,4.52c0-1.53-.78-2.53-2-2.53h-.49v5h.91C17.72,16.63,18.33,15.67,18.33,14.2Z"/></svg>