<svg id="art" xmlns="http://www.w3.org/2000/svg" xmlns:xlink="http://www.w3.org/1999/xlink" viewBox="0 0 34.02 34.02"><defs><style>.cls-1{fill:none;}.cls-2{clip-path:url(#clip-path);}.cls-3{fill:#bdaf32;}</style><clipPath id="clip-path"><circle class="cls-1" cx="17.01" cy="17.01" r="16.67"/></clipPath></defs><g class="cls-2"><path class="cls-3" d="M37.84,17A20.84,20.84,0,1,1,17-3.83,20.83,20.83,0,0,1,37.84,17Z"/></g><path d="M12.48,9.68c2.33,0,3.88,1.78,3.88,4.44s-1.7,4.58-4.24,4.58h-.93v4.36a1.94,1.94,0,0,0,.44,1.13v.15H8.32v-.15a2.31,2.31,0,0,0,.36-1.13V11a2.34,2.34,0,0,0-.36-1.13V9.68Zm1.19,4.52c0-1.53-.79-2.53-2-2.53h-.48v5h.91C13.05,16.63,13.67,15.67,13.67,14.2Z"/><path d="M25.52,23.94a5.24,5.24,0,0,1-2.52.54c-3.22,0-5.37-2.87-5.37-7.14,0-4.69,2.15-7.81,5.41-7.81A5,5,0,0,1,25.4,10l.12,3.19-.08,0A3.88,3.88,0,0,0,23,11.75c-1.61,0-2.69,2.16-2.69,5.59,0,2.83,1.08,4.71,2.65,4.71a4.93,4.93,0,0,0,2.61-1h.08Z"/></svg>