<svg id="art" xmlns="http://www.w3.org/2000/svg" xmlns:xlink="http://www.w3.org/1999/xlink" viewBox="0 0 34.02 34.02"><defs><style>.cls-1{fill:none;}.cls-2{clip-path:url(#clip-path);}.cls-3{fill:#b43e95;}.cls-4{fill:#fff;}</style><clipPath id="clip-path"><circle class="cls-1" cx="17.01" cy="17.01" r="16.67"/></clipPath></defs><g class="cls-2"><path class="cls-3" d="M37.84,17A20.84,20.84,0,1,1,17-3.83,20.83,20.83,0,0,1,37.84,17Z"/></g><path class="cls-4" d="M7.46,9.6c2.34,0,3.88,1.78,3.88,4.43S9.65,18.62,7.1,18.62H6.17V23a2,2,0,0,0,.44,1.14v.14H3.3v-.14A2.26,2.26,0,0,0,3.67,23V10.87A2.32,2.32,0,0,0,3.3,9.74V9.6Zm1.19,4.52c0-1.53-.78-2.53-2-2.53H6.17v5h.91C8,16.55,8.65,15.59,8.65,14.12Z"/><path class="cls-4" d="M22.31,24.08v.17H19.24l-.79-1.19a4.29,4.29,0,0,1-3,1.42c-2.33,0-3.86-1.57-3.86-4.18,0-1.85,1.19-3,2.46-4a1.13,1.13,0,0,0-.17-.25,6.88,6.88,0,0,1-1.32-3.46,3,3,0,0,1,3.27-3.08,2.94,2.94,0,0,1,3.29,3.08A5,5,0,0,1,17,16.67c.44.67.93,1.43,1.44,2.18a10.56,10.56,0,0,0,.23-2.09h2.68v.14a1.34,1.34,0,0,0-.51.9,13,13,0,0,1-1,3.25c.62.94,1.17,1.78,1.34,2A5.49,5.49,0,0,0,22.31,24.08Zm-5-2.72-2.15-3.31a3,3,0,0,0-1.12,2.25,1.68,1.68,0,0,0,1.63,1.86A2.15,2.15,0,0,0,17.33,21.36Zm-2.59-8.81c0,.65.25,1.07,1,2.3a3.11,3.11,0,0,0,1.12-2.26c0-.48-.19-1.4-1.06-1.4S14.74,12.11,14.74,12.55Z"/><path class="cls-4" d="M28.66,24.25l-1.89-6.11h-.72V23a2.39,2.39,0,0,0,.34,1.14v.14h-3.2v-.14A2.41,2.41,0,0,0,23.55,23V10.87a2.41,2.41,0,0,0-.36-1.13V9.6H27.3c2.3,0,3.82,1.65,3.82,4.1a4.68,4.68,0,0,1-2.25,4.19l2,5.15a4.06,4.06,0,0,0,.63,1.07v.14ZM28.49,14a1.8,1.8,0,0,0-2-2h-.43V16h.72A1.87,1.87,0,0,0,28.49,14Z"/></svg>