<svg id="art" xmlns="http://www.w3.org/2000/svg" xmlns:xlink="http://www.w3.org/1999/xlink" viewBox="0 0 34.02 34.02"><defs><style>.cls-1{fill:none;}.cls-2{clip-path:url(#clip-path);}.cls-3{fill:#6dcef5;}</style><clipPath id="clip-path"><circle class="cls-1" cx="17.01" cy="17.01" r="16.67"/></clipPath></defs><g class="cls-2"><path class="cls-3" d="M37.84,17A20.84,20.84,0,1,1,17-3.83,20.84,20.84,0,0,1,37.84,17Z"/></g><path d="M8.66,9.68c2.34,0,3.88,1.78,3.88,4.44S10.85,18.7,8.3,18.7H7.37v4.36a1.94,1.94,0,0,0,.44,1.13v.15H4.5v-.15a2.23,2.23,0,0,0,.37-1.13V11A2.26,2.26,0,0,0,4.5,9.83V9.68ZM9.85,14.2c0-1.53-.78-2.53-2-2.53H7.37v5h.91C9.23,16.63,9.85,15.67,9.85,14.2Z"/><path d="M15.83,22.51c.87,0,1.57-.69,1.57-1.9s-.7-2.26-2.1-3.73a5.91,5.91,0,0,1-1.91-4.21c0-1.88,1.44-3.14,3.63-3.14A4.42,4.42,0,0,1,19,9.85l.09,2.89h-.17A2.47,2.47,0,0,0,17,11.54a1.09,1.09,0,0,0-1,1.16,2.94,2.94,0,0,0,1,2.09c1.93,2,2.9,3.81,2.9,5.73a3.72,3.72,0,0,1-3.9,4,3.28,3.28,0,0,1-2.4-.73l-.06-2.83h.17A2.25,2.25,0,0,0,15.83,22.51Z"/><path d="M25.63,9.68c2.33,0,3.88,1.78,3.88,4.44s-1.7,4.58-4.24,4.58h-.93v4.36a1.87,1.87,0,0,0,.44,1.13v.15H21.47v-.15a2.31,2.31,0,0,0,.36-1.13V11a2.34,2.34,0,0,0-.36-1.13V9.68Zm1.19,4.52c0-1.53-.79-2.53-2-2.53h-.48v5h.91C26.2,16.63,26.82,15.67,26.82,14.2Z"/></svg>