<svg xmlns="http://www.w3.org/2000/svg" viewBox="0 0 34.02 34.02" xmlns:v="https://vecta.io/nano"><style><![CDATA[.I{fill-rule:evenodd}.J{fill:#12b25a}.K{fill:#ffffd5}]]></style><defs><clipPath id="A"><path d="M34-22.37C33.63 0 .38 0 0-22.37c.38-22.36 33.64-22.36 34 0z" fill="none"/></clipPath><clipPath id="B"><path d="M34,17C33.63,39.36.38,39.36,0,17,.38-5.35,33.64-5.34,34,17Z" fill="none"/></clipPath></defs><g clip-path="url(#A)" class="I"><path d="M17-48.38c34.18.58,34.18,51.44,0,52-34.19-.59-34.18-51.44,0-52" fill="#ed1c24"/></g><g clip-path="url(#B)"><g class="K"><path d="M-5.86-5.86h45.73v45.73H-5.86z"/><g class="I"><path d="M15.05,6.22c-2.38.72-3.72,6.18-7,2.9a45.68,45.68,0,0,0,.1,4.73c6.27-.07,11.75.12,17.87.1V9.31c-3.22,3.43-4-4-7.35-3-1.33.67-1,2.19.68,1.74-.34,1.74-4,1.58-4.15-.2.3-.17.76.45,1.25.1.93-1.6-.71-1.84-1.35-1.74"/></g></g><g class="J I"><path d="M6.55 15.3c-.44-.72-1.43-.48-2.51-.58-1-.44-1.43.17-.29.48v3.48c-.11.18-.63-.05-.48.39.39.22 1.19 0 1.74.09-.09-.41-.86-.77-.29-1.25.45.43 2.06 2.29 2.8.67a1.71 1.71 0 0 1-1.93-1 1.57 1.57 0 0 0 1-2.32m1.31-.44c.86 1.45-.86 5.43 2.61 4.25 1.13-.73-.13-3.14.87-4.25-.52 0-.64-.14-1.06 0 1.65 5.45-2.72 5.32-1.06 0a2 2 0 0 0-1.36 0m4.1 0c0 .34-.26.51-.19 1 .66 0 .58-.84 1.44-.67.1 1.13.37 3.25-.29 4a2.39 2.39 0 0 0 1.45 0c-.72-.76-.29-2.75-.29-4a2 2 0 0 1 1.36.67c.25-.32 0-.77-.2-1zm4.31.48v3.19c0 .33-.58.19-.49.67h2.71a1.52 1.52 0 0 0 .48-1c-.57-.1-.9.82-1.93.58.08-1.31-.19-3 .19-4h-1.16c-.23.22.15.25.2.48m3.86-.31c.46 1.15-.76 3.06-1.06 4.25h1a1.38 1.38 0 0 1 .1-1.45h1.16a1.81 1.81 0 0 1-.19 1.45h1.45a12.52 12.52 0 0 1-1.16-4.34c-.42 0-1-.1-1.26.09m3.15.49c0 1.35.28 2.52-.19 3.76.29-.09 1 .21 1-.19-.46-.5-.35-2.27-.19-2.8.7 1 1.09 2.26 1.93 3.09.82-1-.4-3.47.58-4.35a1.3 1.3 0 0 0-1.06 0 3.44 3.44 0 0 1 .19 2.42c-.64-.71-1-1.73-1.55-2.51h-.86c-.27.26.24.24.19.58m6.72 3.6c2.19-2.41 0-4.88-2.8-4.06.71.64.26 2.45.38 3.67-.11.24-.59.12-.48.58 1.28.08 2.12.35 2.9-.19"/></g><path d="M8.1,20.13c-.16,1.46-.08,3.71-.1,5.6,3.58-2.21,5.16,5.86,9.27.1A3.19,3.19,0,0,0,21,27.57c1.82-.63,2.94-3.42,5-2.13.07-1.9-.11-3.56-.09-5.41-6,0-12.06-.07-17.87.1" fill="#13351a" class="I"/><path d="M16.4,8c-.49.35-.95-.27-1.25-.1.19,1.78,3.81,1.94,4.15.2-1.67.45-2-1.07-.68-1.74,3.35-1.05,4.13,6.42,7.35,3V14c-6.12,0-11.6-.17-17.87-.1A45.68,45.68,0,0,1,8,9.12c2.75,2.83,4.67-1,6.18-2.51C15,6,17.44,5.92,16.4,8M10,12.5c.33.44,1.47.42,1.26-.48h-.58c.28.64-.37.41-.39,0,0-.66.81-.15.87-.68-.86-.43-1.43.42-1.16,1.16m2.12.19c.51-.2.54-.14,1,.1a2.79,2.79,0,0,1,.19-1.16c-.11-.4-.6-.43-1.16-.39Zm1.93,0c.18.13.94.22,1-.09s-.46,0-.48-.2.32-.13.29-.38c-.13-.1-.36-.1-.39-.29.15-.18.66,0,.58-.39-.18-.17-.64-.07-1-.1Zm1.74.1c.36-.06,1,.18,1-.29-.26,0-.57.05-.58-.2.13,0,.18-.13.39-.09.11-.44-.54-.1-.39-.58.2-.06.67.16.58-.19-.84-.79-1.39.57-1,1.35m1.84,0c.41.12.3-.28.48-.39.28.08.25.46.68.39.09-.29.32-1.45-.2-1.45-.27,0,.08.6-.19.58s-.23-.73-.77-.58Zm2.9,0c.48-.1.5-.45.87,0,.09-.13.09-.36.29-.39.38,1.16.68-.64.38-1.06-.51-.06-.39.51-.77.58-.22-.23-.23-.67-.77-.58Zm2.51-1c.05.4-.19,1.09.38,1-.11-.69.08-1.09.49-1.26-.2-.29-.8-.17-1.26-.19-.17.46.27.31.39.48" class="I J"/><g class="K I"><path d="M11.19 11.34c-.06.53-.82 0-.87.68 0 .41.67.64.39 0h.58c.21.9-.93.92-1.26.48-.27-.74.3-1.59 1.16-1.16m.97-.1c.55 0 1 0 1.15.39a2.79 2.79 0 0 0-.19 1.16c-.43-.24-.46-.3-1-.1zm.38.68h.19c0-.1.08-.11.1-.19s-.14-.13-.29-.1zm1.54-.68c.33 0 .79-.07 1 .1.08.4-.43.21-.58.39 0 .19.26.19.39.29 0 .25-.38.07-.29.38s.42 0 .48.2-.79.22-1 .09zm2.71.2c.09.35-.38.13-.58.19-.15.48.5.15.39.58-.21 0-.26.07-.39.09 0 .25.32.2.58.2.05.47-.61.23-1 .29-.42-.78.13-2.14 1-1.35m.87-.1c.55-.15.44.44.77.58s-.08-.6.19-.58c.52 0 .29 1.16.2 1.45-.43.07-.4-.31-.68-.39-.18.11-.07.51-.48.39zm2.9 0c.54-.09.55.35.77.58.38-.07.26-.64.77-.58.3.42 0 2.22-.38 1.06-.2 0-.2.26-.29.39-.37-.45-.39-.1-.87 0zm2.12 0c.46 0 1.06-.1 1.26.19-.41.17-.6.57-.49 1.26-.57.12-.33-.57-.38-1-.12-.17-.56 0-.39-.48"/></g><g class="J I"><path d="M12.54 11.63c.15 0 .17.09.29.1s-.1.09-.1.19h-.19zm-6.95 5.99a1.71 1.71 0 0 0 1.93 1c-.74 1.62-2.35-.24-2.8-.67-.57.48.2.84.29 1.25-.55-.06-1.35.13-1.74-.09-.15-.44.37-.21.48-.39V15.2c-1.14-.31-.68-.92.29-.48 1.08.1 2.07-.14 2.51.58a1.57 1.57 0 0 1-1 2.32m-.87-2.51l-.1.09c-.58 3.1 1.84 2.66 1.06.1-.25-.12-.71-.38-1-.19m4.62-.29c-1.66 5.33 2.71 5.45 1.06 0 .42-.14.54 0 1.06 0-1 1.11.26 3.52-.87 4.25a1.85 1.85 0 0 1-2.22-.39 24.84 24.84 0 0 1-.1-3.28c.12-.35-.64-.31-.29-.58a2 2 0 0 1 1.36 0m5.98 0c.18.19.45.64.2 1a2 2 0 0 0-1.36-.67c0 1.21-.43 3.2.29 4a2.36 2.36 0 0 1-1.44 0c.65-.71.38-2.83.29-4-.87-.17-.79.63-1.45.67-.07-.45.15-.62.19-1zm.87 0h1.16c-.38 1-.11 2.65-.19 4 1 .24 1.36-.68 1.93-.58a1.52 1.52 0 0 1-.48 1h-2.71c-.09-.48.44-.34.49-.67V15.3c0-.23-.43-.26-.2-.48"/><path d="M21.43 14.82a12.52 12.52 0 0 0 1.16 4.34h-1.45a1.81 1.81 0 0 0 .19-1.45h-1.16a1.38 1.38 0 0 0-.1 1.45h-1c.3-1.19 1.52-3.1 1.06-4.25.26-.19.84-.05 1.26-.09m-1.16 2.51h.87a4.93 4.93 0 0 0-.49-1.74c0 .66-.37 1.05-.38 1.74m2.93-2.51H24c.58.78.91 1.8 1.55 2.51a3.44 3.44 0 0 0-.19-2.42 1.3 1.3 0 0 1 1.06 0c-1 .88.24 3.37-.58 4.35-.84-.83-1.23-2.12-1.93-3.09-.16.53-.27 2.3.19 2.8 0 .4-.67.1-1 .19.48-1.24.21-2.4.2-3.76.05-.34-.46-.32-.2-.58m4.12 4.34c-.11-.46.37-.34.48-.58-.12-1.22.33-3-.38-3.67 4.77-1.34 5 5.63-.1 4.25m1.35-.38c2 .19 1.92-3.66.1-3.58a17.87 17.87 0 0 0-.1 3.58"/></g><g class="K I"><path d="M5.68 15.3c.78 2.57-1.64 3-1.06-.1.24-.34.77 0 1.06.1m22.99-.1c1.82-.08 1.86 3.77-.1 3.58a17.87 17.87 0 0 1 .1-3.58m-8.02.39a4.93 4.93 0 0 1 .49 1.74h-.87c0-.69.33-1.08.38-1.74"/></g><path d="M26 20l.09 5.41c-2.08-1.29-3.2 1.5-5 2.13a3.19 3.19 0 0 1-3.77-1.74c-4.12 5.76-5.68-2.3-9.27-.1l.1-5.6L26 20M9.74 22.25c-.28.73.15 1.25 1 1.16a.65.65 0 0 0 .29-.67.86.86 0 0 0-.58-.1c0 .23.2.42-.1.48-.69-.34 0-.83.48-.87-.07-.6-.84-.12-1.06 0m2.32 1.16a2.79 2.79 0 0 1 1.15 0c.06-.6-.27-.81-.29-1.35-.18 0-.21-.11-.38-.1a4.76 4.76 0 0 0-.48 1.45m2-1.16c.56 0 .29.82.49 1.16.47.06.23-.6.29-1 .14-.15.55 0 .48-.39-.27-.13-1.25-.25-1.26.19m2.23 1.16c.36-.06 1 .18 1-.29-.52.13-.94-.3-.19-.29.06-.38-.53-.11-.39-.58h.58c.06-.47-.6-.23-1-.29a2.39 2.39 0 0 0 0 1.45m2.51 0c.25 0 .14-.37.38-.38s.12.46.49.38a3.23 3.23 0 0 0 .47-1.37c-.55-.16-.22.56-.68.49 0-.24-.08-.5-.38-.49s-.11.54-.49.49c-.05-.24-.08-.5-.38-.49 0 .36.09 1.31.58 1.45m2.12 0a1.2 1.2 0 0 1 1.16 0c.13-.36-.17-1-.29-1.45-.79 0-.64.91-.87 1.45m2.42-.58c.05.16-.18.52.19.49.22-.43.38-.91.58-1.36-.61.33-.6.2-1.25 0 .05.33.37.56.48.87" class="I J"/><g class="K I"><path d="M10.8 22.25c-.51 0-1.17.53-.48.87.3-.06.13-.25.1-.48a.86.86 0 0 1 .58.1.65.65 0 0 1-.29.67c-.82.09-1.25-.43-1-1.16.22-.12 1-.6 1.06 0m1.77-.25c.17 0 .2.12.39.1 0 .54.34.75.28 1.35a2.79 2.79 0 0 0-1.15 0 4.76 4.76 0 0 1 .48-1.45m.29 1c0-.08-.26-.12-.29 0s.38.21.29 0m2.51-.94c.07.36-.34.24-.48.39-.06.36.18 1-.29 1-.2-.34.07-1.16-.49-1.16 0-.44 1-.32 1.26-.19m.97-.1c.36.06 1-.18 1 .29h-.58c-.14.47.45.2.39.58-.76 0-.33.42.19.29.06.47-.6.23-1 .29a2.39 2.39 0 0 1 0-1.45m1.93 0c.3 0 .33.25.38.49.38.05.25-.4.49-.49s.33.25.38.49c.46.07.13-.65.68-.49a3.23 3.23 0 0 1-.48 1.45c-.37.08-.21-.37-.49-.38-.62 1-1-.51-1-1.07m3.61 0c.12.43.42 1.09.29 1.45a1.2 1.2 0 0 0-1.16 0c.23-.54.08-1.46.87-1.45m-.38 1c.09 0 .11.08.19.1s.08-.12.1-.2-.12-.08-.2-.09-.08.11-.09.19m1.44-1c.66.2.65.33 1.26 0l-.58 1.36c-.37 0-.14-.33-.19-.49s-.43-.54-.49-.87"/></g><g class="J I"><path d="M21.52 22.74c.08 0 .1.09.2.09s-.1.1-.1.2-.1-.1-.19-.1.09-.1.09-.19m-8.98.19c0-.12.26-.08.29 0s-.35.22-.29 0"/></g></g></svg>