<svg id="art" xmlns="http://www.w3.org/2000/svg" xmlns:xlink="http://www.w3.org/1999/xlink" viewBox="0 0 34.02 34.02"><defs><style>.cls-1{fill:none;}.cls-2{clip-path:url(#clip-path);}.cls-3{fill:#ec1e29;}.cls-4{fill:#fff;}</style><clipPath id="clip-path"><circle class="cls-1" cx="17.01" cy="17.01" r="16.67"/></clipPath></defs><g class="cls-2"><path class="cls-3" d="M37.84,17A20.84,20.84,0,1,1,17-3.83,20.83,20.83,0,0,1,37.84,17Z"/></g><path class="cls-4" d="M13.55,24.34l-1.89-6.12h-.72v4.84a2.36,2.36,0,0,0,.34,1.13v.15H8.08v-.15a2.38,2.38,0,0,0,.36-1.13V11a2.34,2.34,0,0,0-.36-1.13V9.68h4.11c2.29,0,3.82,1.65,3.82,4.1A4.66,4.66,0,0,1,13.76,18l2,5.15a3.91,3.91,0,0,0,.63,1.07v.15ZM13.38,14a1.8,1.8,0,0,0-2-2h-.43v4.13h.72A1.88,1.88,0,0,0,13.38,14Z"/><path class="cls-4" d="M21.78,9.68c2.1,0,3.31,1.51,3.31,3.77a3.84,3.84,0,0,1-1.25,2.76,4,4,0,0,1,2.1,3.73,4.06,4.06,0,0,1-4.18,4.4H17.94v-.15a2.31,2.31,0,0,0,.36-1.13V11a2.34,2.34,0,0,0-.36-1.13V9.68Zm1.08,3.77c0-1-.46-1.63-1.1-1.63h-1v3.7A2,2,0,0,0,22.86,13.45ZM23.33,20c0-1.49-.49-2.47-1.47-2.47H20.8v4.88h1C22.69,22.39,23.33,21.43,23.33,20Z"/></svg>