<svg id="art" xmlns="http://www.w3.org/2000/svg" xmlns:xlink="http://www.w3.org/1999/xlink" viewBox="0 0 34.02 34.02"><defs><style>.cls-1{fill:none;}.cls-2{clip-path:url(#clip-path);}.cls-3{fill:#09743b;}.cls-4{fill:#fff;}</style><clipPath id="clip-path"><circle class="cls-1" cx="17.01" cy="17.01" r="16.67"/></clipPath></defs><g class="cls-2"><path class="cls-3" d="M37.84,17A20.84,20.84,0,1,1,17-3.83,20.83,20.83,0,0,1,37.84,17Z"/></g><path class="cls-4" d="M11.15,24.37,9.27,18.25H8.55v4.84a2.33,2.33,0,0,0,.33,1.13v.15H5.68v-.15A2.38,2.38,0,0,0,6,23.09V11a2.38,2.38,0,0,0-.36-1.13V9.71H9.8c2.29,0,3.81,1.66,3.81,4.11A4.67,4.67,0,0,1,11.37,18l2,5.15A4,4,0,0,0,14,24.22v.15ZM11,14.07A1.8,1.8,0,0,0,9,12H8.55v4.12h.72A1.87,1.87,0,0,0,11,14.07Z"/><path class="cls-4" d="M15.44,9.71h2.9v.17a1.11,1.11,0,0,0-.08.94l1.27,6,1.61-7.14h1.47l1.46,7.14,1.4-5.8a1.43,1.43,0,0,0,0-1.11V9.71h2.86v.13a3.08,3.08,0,0,0-.38.88L25,24.37H23.52l-1.76-8.29L20,24.37H18.43L15.82,10.93a2.81,2.81,0,0,0-.38-1.07Z"/></svg>