<svg id="art" xmlns="http://www.w3.org/2000/svg" xmlns:xlink="http://www.w3.org/1999/xlink" viewBox="0 0 34.02 34.02"><defs><style>.cls-1{fill:none;}.cls-2{clip-path:url(#clip-path);}.cls-3{fill:#e5df17;}.cls-4{clip-path:url(#clip-path-2);}</style><clipPath id="clip-path"><circle class="cls-1" cx="17.01" cy="17.01" r="16.67"/></clipPath><clipPath id="clip-path-2"><circle class="cls-1" cx="17.01" cy="99.07" r="16.67"/></clipPath></defs><g class="cls-2"><path class="cls-3" d="M37.84,17A20.84,20.84,0,1,1,17-3.83,20.83,20.83,0,0,1,37.84,17Z"/></g><path d="M14.4,9.68h2.91v.11a2.24,2.24,0,0,0-.39.75l-3.37,13.8h-1.8l-3-13.42a3.29,3.29,0,0,0-.51-1.09V9.68h3.11v.15a1.4,1.4,0,0,0-.1,1l1.55,7.41L14.42,11a1.87,1.87,0,0,0,0-1.15Z"/><path d="M25.62,23.94a5.3,5.3,0,0,1-2.52.54c-3.23,0-5.37-2.87-5.37-7.14,0-4.69,2.14-7.81,5.41-7.81a4.92,4.92,0,0,1,2.35.46l.13,3.19-.09,0a3.88,3.88,0,0,0-2.39-1.45c-1.61,0-2.7,2.16-2.7,5.59,0,2.83,1.09,4.71,2.66,4.71a4.89,4.89,0,0,0,2.6-1h.09Z"/></svg>