<svg id="art" xmlns="http://www.w3.org/2000/svg" xmlns:xlink="http://www.w3.org/1999/xlink" viewBox="0 0 34.02 34.02"><defs><style>.cls-1{fill:none;}.cls-2{clip-path:url(#clip-path);}.cls-3{fill:#231f20;}.cls-4{fill:#fff;}</style><clipPath id="clip-path"><circle class="cls-1" cx="17.01" cy="17.01" r="16.67"/></clipPath></defs><g class="cls-2"><path class="cls-3" d="M37.84,17A20.84,20.84,0,1,1,17-3.83,20.83,20.83,0,0,1,37.84,17Z"/></g><path class="cls-4" d="M13.68,9.68h2.9v.11a2.41,2.41,0,0,0-.38.75l-3.37,13.8H11L8,10.92a3.29,3.29,0,0,0-.51-1.09V9.68h3.11v.15a1.35,1.35,0,0,0-.1,1l1.55,7.41L13.7,11a2,2,0,0,0,0-1.15Z"/><path class="cls-4" d="M23.6,9.68h2.91v.11a2,2,0,0,0-.38.75l-3.37,13.8H21l-3-13.42a3.1,3.1,0,0,0-.51-1.09V9.68h3.12v.15a1.4,1.4,0,0,0-.11,1L22,18.24,23.63,11a2,2,0,0,0,0-1.15Z"/></svg>