<svg data-name="Layer 1" xmlns="http://www.w3.org/2000/svg" width="114.93" height="77.31"><path fill="#fff" stroke="#231f20" stroke-miterlimit="10" stroke-width="2.31" d="M1.31 1.15h112.62v75H1.31z"/><path d="M9.1 46.77v-6.58h13.37V26.91H29v13.28h13.33v6.58H29v13.38h-6.53V46.77zm37.32 5.55a3.73 3.73 0 012.86-1.12q2.31 0 6.21 2.79c2.6 1.86 4.61 2.79 6 2.79A6.05 6.05 0 0065.9 55a6.34 6.34 0 001.84-4.8 7.26 7.26 0 00-2.09-5.2 15.32 15.32 0 00-4.71-3.33 25.22 25.22 0 00-6.36-1.87c-1.53-.25-4-.49-7.39-.72L53.4 17H74l-2.8 8.13H53.51l-1.46 5.18a34.29 34.29 0 0112 2.15q8.67 3.61 8.67 12.85a13.84 13.84 0 01-5.18 11.08 19.51 19.51 0 01-13 4.35A12.76 12.76 0 0148 59.18a4.65 4.65 0 01-2.63-4.12 3.83 3.83 0 011.05-2.74zm36.03-31.08c2.71-3.33 5.8-5 9.3-5q6 0 10.19 6.15 4.22 6.3 4.21 15.84 0 11.26-4.77 17.54-4 5.27-9.6 5.27a10.15 10.15 0 01-6.71-2.31 19.83 19.83 0 01-4.74-6A22.62 22.62 0 0178 45.7a60.26 60.26 0 01-.66-6.7q0-11.49 5.11-17.76zm6.08 35.3q1.09 2.73 3.31 2.73c1.85 0 3.1-1.68 3.74-5.06a47.48 47.48 0 00.53-8.21V31.36c0-5.18-.37-8.69-1.11-10.51s-1.81-2.73-3.22-2.73-2.53.92-3.28 2.76-1.12 5.34-1.12 10.48V46c.04 5.21.43 8.72 1.15 10.54z"/></svg>