<?xml version="1.0" encoding="utf-8"?>
<!-- Generator: Adobe Illustrator 24.1.2, SVG Export Plug-In . SVG Version: 6.00 Build 0)  -->
<svg version="1.1" id="Layer_1" xmlns="http://www.w3.org/2000/svg" xmlns:xlink="http://www.w3.org/1999/xlink" x="0px" y="0px"
	 viewBox="0 0 30.6 30.6" style="enable-background:new 0 0 30.6 30.6;" xml:space="preserve">
<style type="text/css">
	.st0{fill:#FFA100;}
</style>
<g id="Company_Homes">
	<circle class="st0" cx="15.3" cy="15.3" r="15.3"/>
</g>
<path d="M14,21.4c-0.3,0.2-0.6,0.3-0.9,0.3c-0.4,0.1-0.8,0.1-1.3,0.1c-0.9,0-1.7-0.3-2.4-0.8c-0.7-0.6-1.3-1.3-1.6-2.2
	c-0.4-1-0.6-2.2-0.6-3.3c0-1.2,0.2-2.4,0.6-3.6c0.3-0.9,0.9-1.8,1.6-2.4C10.1,9,11,8.7,11.9,8.7c0.4,0,0.9,0,1.3,0.1
	c0.3,0,0.5,0.1,0.7,0.3l0.1,2.8h-0.1c-0.3-0.3-0.6-0.6-0.9-0.8c-0.3-0.3-0.7-0.4-1.2-0.4c-0.5,0-0.9,0.2-1.2,0.6
	c-0.4,0.5-0.7,1.1-0.8,1.8c-0.2,0.8-0.3,1.7-0.3,2.6c0,0.7,0.1,1.5,0.3,2.2c0.1,0.5,0.4,1,0.8,1.5c0.3,0.3,0.7,0.5,1.2,0.5
	c0.4,0,0.9-0.1,1.3-0.3c0.4-0.2,0.7-0.3,1-0.6h0.1L14,21.4z"/>
<path d="M23.4,8.8V9c-0.2,0.3-0.3,0.6-0.3,1v11.7h-0.8l-4.1-7.9v6.7c0,0.4,0.1,0.7,0.3,1v0.1h-2.8v-0.1c0.2-0.3,0.3-0.6,0.3-1V10
	c0-0.2,0-0.4-0.1-0.5c-0.1-0.2-0.1-0.3-0.2-0.5V8.8h2.4l2.7,5.6V10c0-0.4-0.1-0.7-0.3-1V8.8H23.4z"/>
</svg>
