<svg data-name="Layer 1" xmlns="http://www.w3.org/2000/svg" viewBox="0 0 30.56 30.56"><circle cx="15.28" cy="15.28" r="15.28" fill="#247237"/><path d="M9.61 21.38a3.07 3.07 0 01-.92.34 5.91 5.91 0 01-1.28.14A4 4 0 015 21.07a5.08 5.08 0 01-1.64-2.21 8.78 8.78 0 01-.58-3.29A10.45 10.45 0 013.33 12 5.51 5.51 0 015 9.56a3.85 3.85 0 012.45-.86 6 6 0 011.32.14 1.75 1.75 0 01.73.27l.11 2.8h-.08a5.76 5.76 0 00-.9-.83 1.86 1.86 0 00-1.18-.44 1.57 1.57 0 00-1.22.6A4.07 4.07 0 005.41 13a10 10 0 00-.3 2.6 7.18 7.18 0 00.3 2.18 3.36 3.36 0 00.81 1.45 1.61 1.61 0 001.19.52 2.86 2.86 0 001.3-.3 5.53 5.53 0 001-.57h.07zM19 8.83V9a2.16 2.16 0 00-.29 1v11.73h-.76l-4.09-7.85v6.72a1.79 1.79 0 00.34 1v.15h-2.88v-.15a2.06 2.06 0 00.33-1V10a1.43 1.43 0 00-.07-.48 3.24 3.24 0 00-.24-.52v-.17h2.37l2.75 5.6V10a1.69 1.69 0 00-.33-1v-.17zm6.37 12.9l-1.63-5.38h-.63v4.25a2.3 2.3 0 00.29 1v.13h-2.78v-.13a2.14 2.14 0 00.32-1V10a2.14 2.14 0 00-.32-1v-.17h3.58a3.09 3.09 0 012.4 1 3.69 3.69 0 01.91 2.61 4.46 4.46 0 01-.58 2.29 3.48 3.48 0 01-1.37 1.4l1.69 4.53a4 4 0 00.56.94v.13zM24.78 14a1.9 1.9 0 00.45-1.33 1.57 1.57 0 00-1.75-1.8h-.37v3.63h.63a1.4 1.4 0 001.04-.5z" fill="#fff"/></svg>