<svg id="Layer_1" data-name="Layer 1" xmlns="http://www.w3.org/2000/svg" viewBox="0 0 30.56 30.56"><defs><style>.cls-1{fill:#247237;}.cls-2{fill:#fff;}</style></defs><circle class="cls-1" cx="15.28" cy="15.28" r="15.28"/><path class="cls-2" d="M9.61,21.38a3.07,3.07,0,0,1-.92.34,5.91,5.91,0,0,1-1.28.14A4,4,0,0,1,5,21.07a5.08,5.08,0,0,1-1.64-2.21,8.78,8.78,0,0,1-.58-3.29A10.45,10.45,0,0,1,3.33,12,5.51,5.51,0,0,1,5,9.56,3.85,3.85,0,0,1,7.45,8.7a6,6,0,0,1,1.32.14,1.75,1.75,0,0,1,.73.27l.11,2.8-.08,0a5.76,5.76,0,0,0-.9-.83,1.86,1.86,0,0,0-1.18-.44,1.57,1.57,0,0,0-1.22.6A4.07,4.07,0,0,0,5.41,13a10,10,0,0,0-.3,2.6,7.18,7.18,0,0,0,.3,2.18,3.36,3.36,0,0,0,.81,1.45,1.61,1.61,0,0,0,1.19.52,2.86,2.86,0,0,0,1.3-.3,5.53,5.53,0,0,0,1-.57h.07Z"/><path class="cls-2" d="M19,8.83V9a2.16,2.16,0,0,0-.29,1V21.73h-.76l-4.09-7.85V20.6a1.79,1.79,0,0,0,.34,1v.15H11.32v-.15a2.06,2.06,0,0,0,.33-1V10a1.43,1.43,0,0,0-.07-.48A3.24,3.24,0,0,0,11.34,9V8.83h2.37l2.75,5.6V10a1.69,1.69,0,0,0-.33-1V8.83Z"/><path class="cls-2" d="M25.37,21.73l-1.63-5.38h-.63V20.6a2.3,2.3,0,0,0,.29,1v.13H20.62V21.6a2.14,2.14,0,0,0,.32-1V10a2.14,2.14,0,0,0-.32-1V8.83H24.2a3.09,3.09,0,0,1,2.4,1,3.69,3.69,0,0,1,.91,2.61,4.46,4.46,0,0,1-.58,2.29,3.48,3.48,0,0,1-1.37,1.4l1.69,4.53a4,4,0,0,0,.56.94v.13ZM24.78,14a1.9,1.9,0,0,0,.45-1.33,1.57,1.57,0,0,0-1.75-1.8h-.37v3.63h.63A1.4,1.4,0,0,0,24.78,14Z"/></svg>