<svg data-name="Layer 1" xmlns="http://www.w3.org/2000/svg" viewBox="0 0 30.56 30.56"><circle cx="15.28" cy="15.28" r="15.28" fill="#d91a3e"/><path d="M10.08 21.38a3.07 3.07 0 01-.92.34 5.91 5.91 0 01-1.28.14 4 4 0 01-2.44-.79 5.08 5.08 0 01-1.64-2.21 8.78 8.78 0 01-.58-3.29A10.45 10.45 0 013.8 12a5.51 5.51 0 011.65-2.44 3.85 3.85 0 012.47-.86 6 6 0 011.32.14 1.75 1.75 0 01.73.27l.11 2.8H10a5.76 5.76 0 00-.9-.83 1.86 1.86 0 00-1.18-.44 1.57 1.57 0 00-1.22.6A4.07 4.07 0 005.88 13a10 10 0 00-.3 2.6 7.18 7.18 0 00.3 2.18 3.36 3.36 0 00.81 1.45 1.61 1.61 0 001.19.52 2.86 2.86 0 001.3-.3 5.53 5.53 0 001-.57h.07zM15.4 8.83a3.26 3.26 0 011.76.49 3.32 3.32 0 011.19 1.37 4.72 4.72 0 01.42 2.05 4.66 4.66 0 01-.46 2.12A3.35 3.35 0 0117 16.27a3.62 3.62 0 01-1.92.5h-.81v3.83a1.79 1.79 0 00.38 1v.13h-2.86v-.13a2.11 2.11 0 00.31-1V10a2.21 2.21 0 00-.31-1v-.17zm.66 5.54a2.86 2.86 0 00.37-1.56 2.62 2.62 0 00-.43-1.62 1.52 1.52 0 00-1.26-.61h-.42V15h.79a1.13 1.13 0 00.95-.63zm8.84 7.36l-1.63-5.38h-.63v4.25a2.3 2.3 0 00.29 1v.13h-2.78v-.13a2.14 2.14 0 00.32-1V10a2.14 2.14 0 00-.32-1v-.17h3.58a3.09 3.09 0 012.4 1 3.69 3.69 0 01.87 2.61 4.46 4.46 0 01-.58 2.29 3.48 3.48 0 01-1.37 1.4l1.69 4.53a4 4 0 00.56.94v.13zM24.31 14a1.9 1.9 0 00.45-1.33A1.57 1.57 0 0023 10.86h-.37v3.63h.63a1.4 1.4 0 001.05-.49z" fill="#fff"/></svg>