<svg id="Layer_1" data-name="Layer 1" xmlns="http://www.w3.org/2000/svg" viewBox="0 0 30.56 30.56"><defs><style>.cls-1{fill:#d91a3e;}.cls-2{fill:#fff;}</style></defs><circle class="cls-1" cx="15.28" cy="15.28" r="15.28"/><path class="cls-2" d="M10.08,21.38a3.07,3.07,0,0,1-.92.34,5.91,5.91,0,0,1-1.28.14,4,4,0,0,1-2.44-.79A5.08,5.08,0,0,1,3.8,18.86a8.78,8.78,0,0,1-.58-3.29A10.45,10.45,0,0,1,3.8,12,5.51,5.51,0,0,1,5.45,9.56,3.85,3.85,0,0,1,7.92,8.7a6,6,0,0,1,1.32.14,1.75,1.75,0,0,1,.73.27l.11,2.8-.08,0a5.76,5.76,0,0,0-.9-.83,1.86,1.86,0,0,0-1.18-.44,1.57,1.57,0,0,0-1.22.6A4.07,4.07,0,0,0,5.88,13a10,10,0,0,0-.3,2.6,7.18,7.18,0,0,0,.3,2.18,3.36,3.36,0,0,0,.81,1.45,1.61,1.61,0,0,0,1.19.52,2.86,2.86,0,0,0,1.3-.3,5.53,5.53,0,0,0,1-.57h.07Z"/><path class="cls-2" d="M15.4,8.83a3.26,3.26,0,0,1,1.76.49,3.32,3.32,0,0,1,1.19,1.37,4.72,4.72,0,0,1,.42,2.05,4.66,4.66,0,0,1-.46,2.12A3.35,3.35,0,0,1,17,16.27a3.62,3.62,0,0,1-1.92.5h-.81V20.6a1.79,1.79,0,0,0,.38,1v.13H11.79V21.6a2.11,2.11,0,0,0,.31-1V10a2.21,2.21,0,0,0-.31-1V8.83Zm.66,5.54a2.86,2.86,0,0,0,.37-1.56A2.62,2.62,0,0,0,16,11.19a1.52,1.52,0,0,0-1.26-.61h-.42V15h.79A1.13,1.13,0,0,0,16.06,14.37Z"/><path class="cls-2" d="M24.9,21.73l-1.63-5.38h-.63V20.6a2.3,2.3,0,0,0,.29,1v.13H20.15V21.6a2.14,2.14,0,0,0,.32-1V10a2.14,2.14,0,0,0-.32-1V8.83h3.58a3.09,3.09,0,0,1,2.4,1A3.69,3.69,0,0,1,27,12.44a4.46,4.46,0,0,1-.58,2.29,3.48,3.48,0,0,1-1.37,1.4l1.69,4.53a4,4,0,0,0,.56.94v.13ZM24.31,14a1.9,1.9,0,0,0,.45-1.33A1.57,1.57,0,0,0,23,10.86h-.37v3.63h.63A1.4,1.4,0,0,0,24.31,14Z"/></svg>