<svg id="Layer_1" data-name="Layer 1" xmlns="http://www.w3.org/2000/svg" viewBox="0 0 30.56 30.56"><defs><style>.cls-1{fill:#fff;}</style></defs><circle cx="15.28" cy="15.28" r="15.28"/><path class="cls-1" d="M14.64,15.78V20a2.38,2.38,0,0,1-1,1.39,3.57,3.57,0,0,1-1.88.47A3.39,3.39,0,0,1,9.51,21,5.81,5.81,0,0,1,7.9,18.67a9,9,0,0,1-.59-3.32,9.49,9.49,0,0,1,.6-3.53A5.22,5.22,0,0,1,9.56,9.51a3.79,3.79,0,0,1,2.38-.81A3.58,3.58,0,0,1,13.38,9a3.42,3.42,0,0,1,.91.6V12h-.07a3.31,3.31,0,0,0-.93-.82,2.33,2.33,0,0,0-1.19-.32A2,2,0,0,0,10.3,12a7,7,0,0,0-.63,3.36A7,7,0,0,0,10,17.58a4.72,4.72,0,0,0,.88,1.63,1.43,1.43,0,0,0,1,.6.77.77,0,0,0,.57-.22v-4a1.62,1.62,0,0,0-.33-.83v-.13H15v.13A1.71,1.71,0,0,0,14.64,15.78Z"/><path class="cls-1" d="M18.25,21.73V21.6a3.11,3.11,0,0,0,.31-.53,1.1,1.1,0,0,0,.1-.47V10.82h-1a2.43,2.43,0,0,0-1.14.43l-.22.14h-.07V8.83h7v2.56h-.08L23,11.25a2.43,2.43,0,0,0-1.14-.43h-1V20.6a1.12,1.12,0,0,0,.11.47,2.47,2.47,0,0,0,.3.53v.13Z"/></svg>