<svg data-name="Layer 1" xmlns="http://www.w3.org/2000/svg" viewBox="0 0 30.56 30.56"><circle cx="15.28" cy="15.28" r="15.28"/><path d="M14.64 15.78V20a2.38 2.38 0 01-1 1.39 3.57 3.57 0 01-1.88.47A3.39 3.39 0 019.51 21a5.81 5.81 0 01-1.61-2.33 9 9 0 01-.59-3.32 9.49 9.49 0 01.6-3.53 5.22 5.22 0 011.65-2.31 3.79 3.79 0 012.38-.81 3.58 3.58 0 011.44.3 3.42 3.42 0 01.91.6V12h-.07a3.31 3.31 0 00-.93-.82 2.33 2.33 0 00-1.19-.32A2 2 0 0010.3 12a7 7 0 00-.63 3.36 7 7 0 00.33 2.22 4.72 4.72 0 00.88 1.63 1.43 1.43 0 001 .6.77.77 0 00.57-.22v-4a1.62 1.62 0 00-.33-.83v-.13H15v.13a1.71 1.71 0 00-.36 1.02zm3.61 5.95v-.13a3.11 3.11 0 00.31-.53 1.1 1.1 0 00.1-.47v-9.78h-1a2.43 2.43 0 00-1.14.43l-.22.14h-.07V8.83h7v2.56h-.08l-.15-.14a2.43 2.43 0 00-1.14-.43h-1v9.78a1.12 1.12 0 00.11.47 2.47 2.47 0 00.3.53v.13z" fill="#fff"/></svg>