<svg id="Layer_1" data-name="Layer 1" xmlns="http://www.w3.org/2000/svg" viewBox="0 0 30.56 30.56"><defs><style>.cls-1{fill:#ffd330;}</style></defs><g id="Company_Homes" data-name="Company Homes"><circle class="cls-1" cx="15.28" cy="15.28" r="15.28"/></g><path d="M10.46,8.83V9a5.15,5.15,0,0,0-.24.51,1.07,1.07,0,0,0-.07.39V20.7a1.6,1.6,0,0,0,.31.9v.13H7.64V21.6a2.07,2.07,0,0,0,.34-1V15.74H5.71V20.6a1.33,1.33,0,0,0,.08.45c.06.15.14.33.25.55v.13H3.11V21.6a2.15,2.15,0,0,0,.33-1V10a2.15,2.15,0,0,0-.33-1V8.83H6V9a2.15,2.15,0,0,0-.33,1v3.81H8V10a2.07,2.07,0,0,0-.34-1V8.83Z"/><path d="M15.46,8.83a2.59,2.59,0,0,1,2.1.91,3.59,3.59,0,0,1,.77,2.41,3,3,0,0,1-.3,1.32,3.63,3.63,0,0,1-.79,1.11,3.38,3.38,0,0,1,1.37,1.33,4,4,0,0,1,.46,1.95,4.43,4.43,0,0,1-.46,2,3.23,3.23,0,0,1-1.28,1.36,3.69,3.69,0,0,1-1.89.48H12.12V21.6a2.11,2.11,0,0,0,.31-1V10a2.21,2.21,0,0,0-.31-1V8.83Zm.46,4.61a1.92,1.92,0,0,0,.47-1.29,1.81,1.81,0,0,0-.26-1,.81.81,0,0,0-.69-.41h-.83V14A1.69,1.69,0,0,0,15.92,13.44Zm.5,6a2.77,2.77,0,0,0,.38-1.53,3.39,3.39,0,0,0-.32-1.6,1,1,0,0,0-1-.58h-.92V20h.83A1.12,1.12,0,0,0,16.42,19.43Z"/><path d="M25,21.73l-1.64-5.38h-.63V20.6a2.3,2.3,0,0,0,.29,1v.13H20.26V21.6a2.14,2.14,0,0,0,.32-1V10a2.14,2.14,0,0,0-.32-1V8.83h3.58a3.09,3.09,0,0,1,2.4,1,3.69,3.69,0,0,1,.91,2.61,4.46,4.46,0,0,1-.58,2.29,3.48,3.48,0,0,1-1.37,1.4l1.69,4.53a4,4,0,0,0,.56.94v.13ZM24.42,14a1.9,1.9,0,0,0,.45-1.33,1.57,1.57,0,0,0-1.75-1.8h-.37v3.63h.63A1.38,1.38,0,0,0,24.42,14Z"/></svg>