<svg data-name="Layer 1" xmlns="http://www.w3.org/2000/svg" viewBox="0 0 30.56 30.56"><circle cx="15.28" cy="15.28" r="15.28" fill="#ffd330" data-name="Company Homes"/><path d="M10.46 8.83V9a5.15 5.15 0 00-.24.51 1.07 1.07 0 00-.07.39v10.8a1.6 1.6 0 00.31.9v.13H7.64v-.13a2.07 2.07 0 00.34-1v-4.86H5.71v4.86a1.33 1.33 0 00.08.45c.06.15.14.33.25.55v.13H3.11v-.13a2.15 2.15 0 00.33-1V10a2.15 2.15 0 00-.33-1v-.17H6V9a2.15 2.15 0 00-.33 1v3.81H8V10a2.07 2.07 0 00-.34-1v-.17zm5 0a2.59 2.59 0 012.1.91 3.59 3.59 0 01.77 2.41 3 3 0 01-.3 1.32 3.63 3.63 0 01-.79 1.11 3.38 3.38 0 011.37 1.33 4 4 0 01.46 1.95 4.43 4.43 0 01-.46 2 3.23 3.23 0 01-1.28 1.36 3.69 3.69 0 01-1.89.48h-3.32v-.1a2.11 2.11 0 00.31-1V10a2.21 2.21 0 00-.31-1v-.17zm.46 4.61a1.92 1.92 0 00.47-1.29 1.81 1.81 0 00-.26-1 .81.81 0 00-.69-.41h-.83V14a1.69 1.69 0 001.31-.56zm.5 6a2.77 2.77 0 00.38-1.53 3.39 3.39 0 00-.32-1.6 1 1 0 00-1-.58h-.92V20h.83a1.12 1.12 0 001.03-.57zM25 21.73l-1.64-5.38h-.63v4.25a2.3 2.3 0 00.29 1v.13h-2.76v-.13a2.14 2.14 0 00.32-1V10a2.14 2.14 0 00-.32-1v-.17h3.58a3.09 3.09 0 012.4 1 3.69 3.69 0 01.91 2.61 4.46 4.46 0 01-.58 2.29 3.48 3.48 0 01-1.37 1.4l1.69 4.53a4 4 0 00.56.94v.13zM24.42 14a1.9 1.9 0 00.45-1.33 1.57 1.57 0 00-1.75-1.8h-.37v3.63h.63a1.38 1.38 0 001.04-.5z"/></svg>