<?xml version="1.0" encoding="UTF-8" standalone="no"?>
<svg
   xmlns:dc="http://purl.org/dc/elements/1.1/"
   xmlns:cc="http://creativecommons.org/ns#"
   xmlns:rdf="http://www.w3.org/1999/02/22-rdf-syntax-ns#"
   xmlns:svg="http://www.w3.org/2000/svg"
   xmlns="http://www.w3.org/2000/svg"
   version="1.1"
   viewBox="0 0 13.62 13.62"
   data-name="Layer 1"
   id="Layer_1">
  <metadata
     id="metadata13">
    <rdf:RDF>
      <cc:Work
         rdf:about="">
        <dc:format>image/svg+xml</dc:format>
        <dc:type
           rdf:resource="http://purl.org/dc/dcmitype/StillImage" />
        <dc:title></dc:title>
      </cc:Work>
    </rdf:RDF>
  </metadata>
  <defs
     id="defs4">
    <style
       id="style2">.cls-1{fill:#fff;}.cls-2{fill:#231f20;}</style>
  </defs>
  <circle
     style="fill:#f9f9f9"
     id="circle6"
     r="6.81"
     cy="6.81"
     cx="6.81"
     class="cls-1" />
  <path
     id="path8"
     transform="translate(0 0)"
     d="M9.3,2.61v.08a1.36,1.36,0,0,0-.19.65V11H8.62L6,5.9v4.38a1.07,1.07,0,0,0,.22.63V11H4.32v-.1a1.36,1.36,0,0,0,.22-.63V3.34a1.06,1.06,0,0,0,0-.31,2,2,0,0,0-.16-.34V2.61H5.88L7.67,6.26V3.34a1.06,1.06,0,0,0-.22-.65V2.61Z"
     class="cls-2" />
</svg>
