<svg id="Layer_1" data-name="Layer 1" xmlns="http://www.w3.org/2000/svg" viewBox="0 0 30.56 30.56"><defs><style>.cls-1{fill:#7f117e;}.cls-2{fill:#fff;}</style></defs><circle class="cls-1" cx="15.28" cy="15.28" r="15.28"/><path class="cls-2" d="M11.64,23.4a2.29,2.29,0,0,1-1.17.32,2.61,2.61,0,0,1-1.31-.57A21,21,0,0,1,7.1,21.5a3.6,3.6,0,0,1-1.83-1.15,6.14,6.14,0,0,1-1.22-2.27,10.55,10.55,0,0,1-.43-3.14,9.88,9.88,0,0,1,.54-3.41A5.32,5.32,0,0,1,5.68,9.25a3.42,3.42,0,0,1,2.25-.81,3.38,3.38,0,0,1,2.25.82,5.24,5.24,0,0,1,1.51,2.32A10.42,10.42,0,0,1,12.22,15a9.68,9.68,0,0,1-.68,3.79,4.65,4.65,0,0,1-1.88,2.31c1.07,1,1.74,1.45,2,1.45a2.28,2.28,0,0,0,.68-.14.52.52,0,0,1,.17-.06l.2-.05a.16.16,0,0,1,.11,0l.11.11A7.68,7.68,0,0,1,11.64,23.4ZM7,10.9a4.23,4.23,0,0,0-.65,1.62,10.61,10.61,0,0,0-.23,2.38,11.28,11.28,0,0,0,.23,2.45A4.45,4.45,0,0,0,7,19a1.19,1.19,0,0,0,1,.59c.55,0,1-.42,1.33-1.25a8.92,8.92,0,0,0,.49-3.26,9.94,9.94,0,0,0-.49-3.45c-.34-.87-.78-1.31-1.33-1.31A1.19,1.19,0,0,0,7,10.9Z"/><path class="cls-2" d="M16.77,8.56v.13a2.09,2.09,0,0,0-.33,1v9.78h1.95a1,1,0,0,0,.49-.12,7.92,7.92,0,0,0,.8-.54h.08v2.65H14v-.13a2.14,2.14,0,0,0,.32-1V9.69a2.17,2.17,0,0,0-.32-1V8.56Z"/><path class="cls-2" d="M24,8.56v.13a2.12,2.12,0,0,0-.34,1v9.78h2a1.07,1.07,0,0,0,.49-.12,7.92,7.92,0,0,0,.8-.54h.07v2.65h-5.8v-.13a2.11,2.11,0,0,0,.31-1V9.69a2.14,2.14,0,0,0-.31-1V8.56Z"/></svg>