<svg data-name="Layer 1" xmlns="http://www.w3.org/2000/svg" viewBox="0 0 30.56 30.56"><circle cx="15.28" cy="15.28" r="15.28" fill="#7f117e"/><path d="M11.64 23.4a2.29 2.29 0 01-1.17.32 2.61 2.61 0 01-1.31-.57A21 21 0 017.1 21.5a3.6 3.6 0 01-1.83-1.15 6.14 6.14 0 01-1.22-2.27 10.55 10.55 0 01-.43-3.14 9.88 9.88 0 01.54-3.41 5.32 5.32 0 011.52-2.28 3.42 3.42 0 012.25-.81 3.38 3.38 0 012.25.82 5.24 5.24 0 011.51 2.32 10.42 10.42 0 01.53 3.42 9.68 9.68 0 01-.68 3.79 4.65 4.65 0 01-1.88 2.31c1.07 1 1.74 1.45 2 1.45a2.28 2.28 0 00.68-.14.52.52 0 01.17-.06l.2-.05a.16.16 0 01.11 0l.11.11a7.68 7.68 0 01-1.29.99zM7 10.9a4.23 4.23 0 00-.65 1.62 10.61 10.61 0 00-.23 2.38 11.28 11.28 0 00.23 2.45A4.45 4.45 0 007 19a1.19 1.19 0 001 .59c.55 0 1-.42 1.33-1.25a8.92 8.92 0 00.49-3.26 9.94 9.94 0 00-.49-3.45c-.34-.87-.78-1.31-1.33-1.31a1.19 1.19 0 00-1 .58zm9.77-2.34v.13a2.09 2.09 0 00-.33 1v9.78h1.95a1 1 0 00.49-.12 7.92 7.92 0 00.8-.54h.08v2.65H14v-.13a2.14 2.14 0 00.32-1V9.69a2.17 2.17 0 00-.32-1v-.13zm7.23 0v.13a2.12 2.12 0 00-.34 1v9.78h2a1.07 1.07 0 00.49-.12 7.92 7.92 0 00.8-.54h.07v2.65h-5.8v-.13a2.11 2.11 0 00.31-1V9.69a2.14 2.14 0 00-.31-1v-.13z" fill="#fff"/></svg>