<svg id="Layer_1" data-name="Layer 1" xmlns="http://www.w3.org/2000/svg" viewBox="0 0 30.56 30.56"><defs><style>.cls-1{fill:#008ccd;}.cls-2{fill:#fff;}</style></defs><circle class="cls-1" cx="15.28" cy="15.28" r="15.28"/><path class="cls-2" d="M9.49,19.76a1.7,1.7,0,0,0,1.13.36,1.25,1.25,0,0,0,1-.45A1.85,1.85,0,0,0,12,18.45a3.06,3.06,0,0,0-.45-1.5,9.37,9.37,0,0,0-1.37-1.78,6.52,6.52,0,0,1-1.25-1.8,4.54,4.54,0,0,1-.41-1.9,2.52,2.52,0,0,1,.87-2,3.36,3.36,0,0,1,2.28-.76,5.13,5.13,0,0,1,1.11.1,2,2,0,0,1,.59.18l.07,2.54h-.15a2.91,2.91,0,0,0-.68-.73,1.55,1.55,0,0,0-.94-.32.75.75,0,0,0-.63.31,1.16,1.16,0,0,0-.23.71,2.69,2.69,0,0,0,.82,1.84,11.19,11.19,0,0,1,1.9,2.57,5.33,5.33,0,0,1,.63,2.47,3.48,3.48,0,0,1-.93,2.53,3.27,3.27,0,0,1-2.46,1,3.74,3.74,0,0,1-1.36-.21,1.68,1.68,0,0,1-.72-.44l-.06-2.49h.15A2.88,2.88,0,0,0,9.49,19.76Z"/><path class="cls-2" d="M21.91,21.38a3,3,0,0,1-.92.34,5.81,5.81,0,0,1-1.27.14,3.94,3.94,0,0,1-2.44-.79,5,5,0,0,1-1.64-2.21,8.59,8.59,0,0,1-.58-3.29,10.22,10.22,0,0,1,.58-3.6,5.51,5.51,0,0,1,1.65-2.41,3.83,3.83,0,0,1,2.47-.86,5.91,5.91,0,0,1,1.31.14,1.75,1.75,0,0,1,.73.27l.11,2.8-.07,0a5.76,5.76,0,0,0-.9-.83,1.91,1.91,0,0,0-1.18-.44,1.59,1.59,0,0,0-1.23.6A4.2,4.2,0,0,0,17.71,13a10.07,10.07,0,0,0-.29,2.6,7.19,7.19,0,0,0,.29,2.18,3.58,3.58,0,0,0,.81,1.45,1.63,1.63,0,0,0,1.2.52,2.86,2.86,0,0,0,1.3-.3,5.53,5.53,0,0,0,1-.57h.07Z"/></svg>