<svg data-name="Layer 1" xmlns="http://www.w3.org/2000/svg" viewBox="0 0 30.56 30.56"><circle cx="15.28" cy="15.28" r="15.28" fill="#008ccd"/><path d="M9.49 19.76a1.7 1.7 0 001.13.36 1.25 1.25 0 001-.45 1.85 1.85 0 00.38-1.22 3.06 3.06 0 00-.45-1.5 9.37 9.37 0 00-1.37-1.78 6.52 6.52 0 01-1.25-1.8 4.54 4.54 0 01-.41-1.9 2.52 2.52 0 01.87-2 3.36 3.36 0 012.28-.76 5.13 5.13 0 011.11.1 2 2 0 01.59.18l.07 2.54h-.15a2.91 2.91 0 00-.68-.73 1.55 1.55 0 00-.94-.32.75.75 0 00-.63.31 1.16 1.16 0 00-.23.71 2.69 2.69 0 00.82 1.84 11.19 11.19 0 011.9 2.57 5.33 5.33 0 01.63 2.47 3.48 3.48 0 01-.93 2.53 3.27 3.27 0 01-2.46 1 3.74 3.74 0 01-1.36-.21 1.68 1.68 0 01-.72-.44l-.06-2.49h.15a2.88 2.88 0 00.71.99zm12.42 1.62a3 3 0 01-.92.34 5.81 5.81 0 01-1.27.14 3.94 3.94 0 01-2.44-.79 5 5 0 01-1.64-2.21 8.59 8.59 0 01-.58-3.29 10.22 10.22 0 01.58-3.6 5.51 5.51 0 011.65-2.41 3.83 3.83 0 012.47-.86 5.91 5.91 0 011.31.14 1.75 1.75 0 01.73.27l.11 2.8h-.07a5.76 5.76 0 00-.9-.83 1.91 1.91 0 00-1.18-.44 1.59 1.59 0 00-1.23.6 4.2 4.2 0 00-.82 1.76 10.07 10.07 0 00-.29 2.6 7.19 7.19 0 00.29 2.18 3.58 3.58 0 00.81 1.45 1.63 1.63 0 001.2.52 2.86 2.86 0 001.3-.3 5.53 5.53 0 001-.57h.07z" fill="#fff"/></svg>