<?xml version="1.0" encoding="UTF-8" standalone="no"?>
<svg
xmlns:dc="http://purl.org/dc/elements/1.1/"
xmlns:cc="http://creativecommons.org/ns#"
xmlns:rdf="http://www.w3.org/1999/02/22-rdf-syntax-ns#"
xmlns:svg="http://www.w3.org/2000/svg"
xmlns="http://www.w3.org/2000/svg"
xmlns:sodipodi="http://sodipodi.sourceforge.net/DTD/sodipodi-0.dtd"
xmlns:inkscape="http://www.inkscape.org/namespaces/inkscape"
id="Layer_1"
data-name="Layer 1"
viewBox="0 0 36 36"
version="1.1"
sodipodi:docname="BHIR.svg"
inkscape:version="0.92.3 (2405546, 2018-03-11)">
<metadata
id="metadata1593">
<rdf:RDF>
<cc:Work
rdf:about="">
<dc:format>image/svg+xml</dc:format>
<dc:type
rdf:resource="http://purl.org/dc/dcmitype/StillImage" />
<dc:title></dc:title>
</cc:Work>
</rdf:RDF>
</metadata>
<defs
id="defs1582">
<style
id="style1580">.cls-1{fill:#37383a;}.cls-2{fill:#fff;}</style>
</defs>
<circle
class="cls-1"
cx="17.91"
cy="17.94"
r="17.5"
id="circle1584"
style="fill:#8b008b;fill-opacity:1" />
<g
aria-label="BHI&amp;R"
transform="scale(0.62906205,1.5896683)"
style="font-style:normal;font-variant:normal;font-weight:500;font-stretch:normal;font-size:13.14685154px;line-height:1.25;font-family:'Century Schoolbook L';-inkscape-font-specification:'Century Schoolbook L, Medium';font-variant-ligatures:normal;font-variant-caps:normal;font-variant-numeric:normal;font-feature-settings:normal;text-align:start;letter-spacing:0px;word-spacing:0px;writing-mode:lr-tb;text-anchor:start;fill:#ffffff;fill-opacity:1;stroke:none;stroke-width:0.98603272"
id="text914">
<path
d="m 4.425025,6.6544404 v 0.70993 h 0.1972028 c 0.6836363,0 0.9597202,0.052587 1.0780418,0.1840559 0.092028,0.1183217 0.092028,0.1577622 0.092028,0.9991607 v 5.705734 c 0,0.828251 0,0.880839 -0.092028,0.986013 C 5.581948,15.38395 5.3058641,15.436537 4.6222278,15.436537 H 4.425025 v 0.70993 h 5.3244749 c 1.3672721,0 2.0640561,-0.105175 2.7345451,-0.394405 0.841399,-0.381259 1.393566,-1.209511 1.393566,-2.09035 0,-0.920279 -0.525874,-1.66965 -1.498741,-2.103496 -0.446993,-0.21035 -0.841398,-0.315524 -1.525035,-0.407552 0.644196,-0.105175 1.012308,-0.197203 1.38042,-0.368112 0.788811,-0.381259 1.20951,-1.0123078 1.20951,-1.8011189 0,-0.7493705 -0.394405,-1.4461536 -1.038601,-1.8011186 C 11.682087,6.7596152 11.064185,6.6544404 9.4997097,6.6544404 Z M 8.1587309,10.91402 V 8.1268878 c 0,-0.3812587 0.026294,-0.4864335 0.1577622,-0.5916083 C 8.4479616,7.4169578 8.6451644,7.3643704 8.8949545,7.3643704 h 0.3944056 c 1.1569229,0 1.7748249,0.5784614 1.7748249,1.6696501 0,0.6441958 -0.223496,1.1569225 -0.644196,1.4855945 -0.354965,0.28923 -0.8019576,0.394405 -1.6170624,0.394405 z m 0,0.723077 h 0.9071327 c 0.8282517,0 1.2095104,0.07888 1.5776224,0.315525 0.446993,0.302377 0.723077,0.880839 0.723077,1.564475 0,0.631049 -0.236644,1.20951 -0.617902,1.525035 -0.328672,0.276084 -0.7625178,0.394405 -1.3935666,0.394405 H 8.9606888 c -0.4601398,0 -0.6836363,-0.07888 -0.7625174,-0.262937 -0.03944,-0.105175 -0.03944,-0.144615 -0.03944,-0.578461 z"
style="font-style:normal;font-variant:normal;font-weight:bold;font-stretch:normal;font-size:13.14685154px;font-family:'Century Schoolbook L';-inkscape-font-specification:'Century Schoolbook L Bold';font-variant-ligatures:normal;font-variant-caps:normal;font-variant-numeric:normal;font-feature-settings:normal;text-align:start;writing-mode:lr-tb;text-anchor:start;fill:#ffffff;fill-opacity:1;stroke-width:0.98603272"
id="path1000" />
<path
d="m 21.849122,11.689685 v 2.563636 c 0,0.828251 0,0.880839 -0.09203,0.986013 -0.118321,0.144616 -0.394405,0.197203 -1.078042,0.197203 H 20.48185 v 0.70993 h 5.114125 v -0.70993 h -0.197203 c -0.683636,0 -0.972867,-0.05259 -1.091188,-0.197203 -0.09203,-0.105174 -0.09203,-0.144615 -0.09203,-0.986013 V 8.5607339 c 0,-0.8413985 0,-0.8939859 0.09203,-0.9991607 0.118321,-0.1446154 0.407552,-0.1972028 1.091188,-0.1972028 h 0.197203 v -0.70993 H 20.48185 v 0.70993 h 0.197202 c 0.683637,0 0.959721,0.052587 1.078042,0.1972028 0.09203,0.1051748 0.09203,0.170909 0.09203,0.9991607 V 10.900873 H 18.417794 V 8.5607339 c 0,-0.8413985 0,-0.8939859 0.09203,-0.9991607 0.118322,-0.1446154 0.407552,-0.1972028 1.091189,-0.1972028 h 0.197202 v -0.70993 h -5.114125 v 0.70993 h 0.197203 c 0.683636,0 0.95972,0.052587 1.078042,0.1972028 0.09203,0.1051748 0.09203,0.1577622 0.09203,0.9991607 v 5.6925871 c 0,0.828251 0,0.880839 -0.09203,0.986013 -0.118322,0.144616 -0.394406,0.197203 -1.078042,0.197203 h -0.197203 v 0.70993 h 5.114125 v -0.70993 h -0.197202 c -0.683637,0 -0.972867,-0.05259 -1.091189,-0.197203 -0.09203,-0.105174 -0.09203,-0.144615 -0.09203,-0.986013 v -2.563636 z"
style="font-style:normal;font-variant:normal;font-weight:bold;font-stretch:normal;font-size:13.14685154px;font-family:'Century Schoolbook L';-inkscape-font-specification:'Century Schoolbook L Bold';font-variant-ligatures:normal;font-variant-caps:normal;font-variant-numeric:normal;font-feature-settings:normal;text-align:start;writing-mode:lr-tb;text-anchor:start;fill:#ffffff;fill-opacity:1;stroke-width:0.98603272"
id="path1002" />
<path
d="m 27.582999,14.253321 c 0,0.828251 0,0.880839 -0.09203,0.986013 -0.118322,0.144616 -0.394406,0.197203 -1.078042,0.197203 h -0.197203 v 0.70993 h 5.114125 v -0.70993 h -0.197202 c -0.683637,0 -0.972867,-0.05259 -1.091189,-0.197203 -0.09203,-0.105174 -0.09203,-0.144615 -0.09203,-0.986013 V 8.547587 c 0,-0.8413985 0,-0.880839 0.09203,-0.9860138 0.118322,-0.1446154 0.407552,-0.1972028 1.091189,-0.1972028 h 0.197202 v -0.70993 h -5.114125 v 0.70993 h 0.197203 c 0.683636,0 0.95972,0.052587 1.078042,0.1972028 0.09203,0.1051748 0.09203,0.1577622 0.09203,0.9860138 z"
style="font-style:normal;font-variant:normal;font-weight:bold;font-stretch:normal;font-size:13.14685154px;font-family:'Century Schoolbook L';-inkscape-font-specification:'Century Schoolbook L Bold';font-variant-ligatures:normal;font-variant-caps:normal;font-variant-numeric:normal;font-feature-settings:normal;text-align:start;writing-mode:lr-tb;text-anchor:start;fill:#ffffff;fill-opacity:1;stroke-width:0.98603272"
id="path1004" />
<path
d="m 42.154434,10.782552 h -3.58909 v 0.70993 c 0.828251,0.01315 1.17007,0.197203 1.17007,0.644195 0,0.368112 -0.184056,0.762518 -0.631049,1.301539 -0.315525,-0.341818 -1.17007,-1.63021 -1.84056,-2.773986 0.801958,-0.328671 1.13063,-0.512727 1.551329,-0.8413984 0.473287,-0.3812587 0.74937,-0.9202796 0.74937,-1.4855942 0,-1.1174824 -0.95972,-1.8799998 -2.392727,-1.8799998 -0.854545,0 -1.551328,0.2366434 -2.064055,0.6967832 -0.473287,0.4338461 -0.775664,1.1043355 -0.775664,1.7485312 0,0.6310489 0.131468,1.104336 0.512727,1.893147 -0.499581,0.223496 -0.762518,0.354965 -1.091189,0.552167 -1.012308,0.604756 -1.564475,1.459301 -1.564475,2.445315 0,0.644196 0.24979,1.248951 0.70993,1.735384 0.512727,0.539021 1.327832,0.828252 2.313846,0.828252 1.051748,0 1.945734,-0.289231 2.773985,-0.880839 0.578462,0.578461 1.262098,0.867692 2.077203,0.867692 0.920279,0 1.525035,-0.341818 2.024615,-1.17007 0.223496,-0.381258 0.341818,-0.723077 0.394405,-1.20951 l -0.657342,-0.144616 c -0.157762,0.723077 -0.46014,1.104336 -0.907133,1.104336 -0.473287,0 -0.893986,-0.276084 -1.340979,-0.867692 0.368112,-0.499581 0.473287,-0.683636 0.828252,-1.327832 0.512727,-0.999161 0.815105,-1.209511 1.748531,-1.235804 z m -6.994125,0.670489 c 0.565315,1.17007 1.327832,2.34014 2.300699,3.523356 -0.315524,0.223497 -0.539021,0.289231 -0.867692,0.289231 -0.788811,0 -1.41986,-0.46014 -1.866853,-1.367272 -0.197203,-0.394406 -0.302378,-0.788811 -0.302378,-1.143776 0,-0.565315 0.249791,-0.999161 0.736224,-1.301539 z m 1.735385,-1.406713 C 36.36982,9.1391953 36.172617,8.6264681 36.172617,8.1268878 c 0,-0.5521678 0.394405,-0.9860139 0.920279,-0.9860139 0.591609,0 1.025455,0.5390209 1.025455,1.2620978 0,0.6704894 -0.354965,1.2226571 -1.012308,1.5513284 -0.06573,0.026294 -0.09203,0.039441 -0.210349,0.092028 z"
style="font-style:normal;font-variant:normal;font-weight:bold;font-stretch:normal;font-size:13.14685154px;font-family:'Century Schoolbook L';-inkscape-font-specification:'Century Schoolbook L Bold';font-variant-ligatures:normal;font-variant-caps:normal;font-variant-numeric:normal;font-feature-settings:normal;text-align:start;writing-mode:lr-tb;text-anchor:start;fill:#ffffff;fill-opacity:1;stroke-width:0.98603272"
id="path1006" />
<path
d="m 46.868402,11.58451 h 0.736224 c 0.565315,0 0.933426,0.131468 1.17007,0.394405 0.210349,0.24979 0.262937,0.407553 0.315524,1.156923 0.07888,0.880839 0.144616,1.433007 0.184056,1.643357 0.223497,1.025454 0.95972,1.564475 2.103496,1.564475 1.41986,0 2.234965,-0.801958 2.234965,-2.195524 v -0.157762 h -0.70993 c -0.01315,0.828251 -0.210349,1.24895 -0.604755,1.24895 -0.144615,0 -0.302378,-0.07888 -0.381259,-0.197202 -0.07888,-0.105175 -0.09203,-0.197203 -0.157762,-0.617902 0,-0.05259 -0.02629,-0.184056 -0.05259,-0.368112 l -0.09203,-0.499581 c -0.197203,-1.183216 -0.696783,-1.774825 -1.84056,-2.156083 0.696784,-0.131469 1.038602,-0.223497 1.367273,-0.381259 0.801958,-0.407552 1.262098,-1.1306291 1.262098,-1.9851745 0,-0.7888111 -0.381259,-1.4593005 -1.064895,-1.9062934 -0.499581,-0.3155245 -1.38042,-0.4732867 -2.58993,-0.4732867 h -5.613706 v 0.70993 h 0.197203 c 0.683636,0 0.95972,0.052587 1.078042,0.1840559 0.09203,0.1183217 0.09203,0.1577622 0.09203,0.9991607 v 5.692587 c 0,0.841398 0,0.880839 -0.09203,0.99916 -0.118322,0.131469 -0.394406,0.184056 -1.078042,0.184056 h -0.197203 v 0.70993 h 5.258741 v -0.70993 h -0.341818 c -0.683636,0 -0.972867,-0.05259 -1.091189,-0.184056 -0.09203,-0.118321 -0.09203,-0.157762 -0.09203,-0.99916 z m 0,-0.723077 V 8.2057689 c 0,-0.7493706 0.09203,-0.8413985 0.933427,-0.8413985 h 0.315524 c 1.222657,0 1.774825,0.5390209 1.774825,1.7353844 0,1.3409792 -0.552168,1.7616782 -2.300699,1.7616782 z"
style="font-style:normal;font-variant:normal;font-weight:bold;font-stretch:normal;font-size:13.14685154px;font-family:'Century Schoolbook L';-inkscape-font-specification:'Century Schoolbook L Bold';font-variant-ligatures:normal;font-variant-caps:normal;font-variant-numeric:normal;font-feature-settings:normal;text-align:start;writing-mode:lr-tb;text-anchor:start;fill:#ffffff;fill-opacity:1;stroke-width:0.98603272"
id="path1008" />
</g>
</svg>
