<?xml version="1.0" encoding="UTF-8"?>
<svg data-name="Layer 1" version="1.1" viewBox="0 0 36 36" xmlns="http://www.w3.org/2000/svg" xmlns:cc="http://creativecommons.org/ns#" xmlns:dc="http://purl.org/dc/elements/1.1/" xmlns:rdf="http://www.w3.org/1999/02/22-rdf-syntax-ns#">
<metadata>
<rdf:RDF>
<cc:Work rdf:about="">
<dc:format>image/svg+xml</dc:format>
<dc:type rdf:resource="http://purl.org/dc/dcmitype/StillImage"/>
<dc:title/>
</cc:Work>
</rdf:RDF>
</metadata>
<defs>
<style>.cls-1{fill:#37383a;}.cls-2{fill:#fff;}</style>
</defs>
<circle class="cls-1" cx="17.91" cy="17.94" r="17.5" fill="#8b008b"/>
<g transform="scale(.62906 1.5897)" fill="#fff" stroke-width=".98603" style="font-feature-settings:normal;font-variant-caps:normal;font-variant-ligatures:normal;font-variant-numeric:normal" aria-label="BHI&amp;R">
<path d="m4.425 6.6544v0.70993h0.1972c0.68364 0 0.95972 0.052587 1.078 0.18406 0.092028 0.11832 0.092028 0.15776 0.092028 0.99916v5.7057c0 0.82825 0 0.88084-0.092028 0.98601-0.11832 0.14462-0.39441 0.1972-1.078 0.1972h-0.1972v0.70993h5.3245c1.3673 0 2.0641-0.10518 2.7345-0.3944 0.8414-0.38126 1.3936-1.2095 1.3936-2.0904 0-0.92028-0.52587-1.6696-1.4987-2.1035-0.44699-0.21035-0.8414-0.31552-1.525-0.40755 0.6442-0.10518 1.0123-0.1972 1.3804-0.36811 0.78881-0.38126 1.2095-1.0123 1.2095-1.8011 0-0.74937-0.3944-1.4462-1.0386-1.8011-0.72308-0.4207-1.341-0.52587-2.9055-0.52587zm3.7337 4.2596v-2.7871c0-0.38126 0.026294-0.48643 0.15776-0.59161 0.13147-0.11832 0.32867-0.17091 0.57846-0.17091h0.39441c1.1569 0 1.7748 0.57846 1.7748 1.6697 0 0.6442-0.2235 1.1569-0.6442 1.4856-0.35496 0.28923-0.80196 0.3944-1.6171 0.3944zm0 0.72308h0.90713c0.82825 0 1.2095 0.07888 1.5776 0.31552 0.44699 0.30238 0.72308 0.88084 0.72308 1.5645 0 0.63105-0.23664 1.2095-0.6179 1.525-0.32867 0.27608-0.76252 0.3944-1.3936 0.3944h-0.39441c-0.46014 0-0.68364-0.07888-0.76252-0.26294-0.03944-0.10518-0.03944-0.14462-0.03944-0.57846z" style="font-feature-settings:normal;font-variant-caps:normal;font-variant-ligatures:normal;font-variant-numeric:normal"/>
<path d="m21.849 11.69v2.5636c0 0.82825 0 0.88084-0.09203 0.98601-0.11832 0.14462-0.3944 0.1972-1.078 0.1972h-0.1972v0.70993h5.1141v-0.70993h-0.1972c-0.68364 0-0.97287-0.05259-1.0912-0.1972-0.09203-0.10517-0.09203-0.14462-0.09203-0.98601v-5.6926c0-0.8414 0-0.89399 0.09203-0.99916 0.11832-0.14462 0.40755-0.1972 1.0912-0.1972h0.1972v-0.70993h-5.1141v0.70993h0.1972c0.68364 0 0.95972 0.052587 1.078 0.1972 0.09203 0.10517 0.09203 0.17091 0.09203 0.99916v2.3401h-3.4313v-2.3401c0-0.8414 0-0.89399 0.09203-0.99916 0.11832-0.14462 0.40755-0.1972 1.0912-0.1972h0.1972v-0.70993h-5.1141v0.70993h0.1972c0.68364 0 0.95972 0.052587 1.078 0.1972 0.09203 0.10517 0.09203 0.15776 0.09203 0.99916v5.6926c0 0.82825 0 0.88084-0.09203 0.98601-0.11832 0.14462-0.39441 0.1972-1.078 0.1972h-0.1972v0.70993h5.1141v-0.70993h-0.1972c-0.68364 0-0.97287-0.05259-1.0912-0.1972-0.09203-0.10517-0.09203-0.14462-0.09203-0.98601v-2.5636z" style="font-feature-settings:normal;font-variant-caps:normal;font-variant-ligatures:normal;font-variant-numeric:normal"/>
<path d="m27.583 14.253c0 0.82825 0 0.88084-0.09203 0.98601-0.11832 0.14462-0.39441 0.1972-1.078 0.1972h-0.1972v0.70993h5.1141v-0.70993h-0.1972c-0.68364 0-0.97287-0.05259-1.0912-0.1972-0.09203-0.10517-0.09203-0.14462-0.09203-0.98601v-5.7057c0-0.8414 0-0.88084 0.09203-0.98601 0.11832-0.14462 0.40755-0.1972 1.0912-0.1972h0.1972v-0.70993h-5.1141v0.70993h0.1972c0.68364 0 0.95972 0.052587 1.078 0.1972 0.09203 0.10517 0.09203 0.15776 0.09203 0.98601z" style="font-feature-settings:normal;font-variant-caps:normal;font-variant-ligatures:normal;font-variant-numeric:normal"/>
<path d="m42.154 10.783h-3.5891v0.70993c0.82825 0.01315 1.1701 0.1972 1.1701 0.6442 0 0.36811-0.18406 0.76252-0.63105 1.3015-0.31552-0.34182-1.1701-1.6302-1.8406-2.774 0.80196-0.32867 1.1306-0.51273 1.5513-0.8414 0.47329-0.38126 0.74937-0.92028 0.74937-1.4856 0-1.1175-0.95972-1.88-2.3927-1.88-0.85454 0-1.5513 0.23664-2.0641 0.69678-0.47329 0.43385-0.77566 1.1043-0.77566 1.7485 0 0.63105 0.13147 1.1043 0.51273 1.8931-0.49958 0.2235-0.76252 0.35496-1.0912 0.55217-1.0123 0.60476-1.5645 1.4593-1.5645 2.4453 0 0.6442 0.24979 1.249 0.70993 1.7354 0.51273 0.53902 1.3278 0.82825 2.3138 0.82825 1.0517 0 1.9457-0.28923 2.774-0.88084 0.57846 0.57846 1.2621 0.86769 2.0772 0.86769 0.92028 0 1.525-0.34182 2.0246-1.1701 0.2235-0.38126 0.34182-0.72308 0.3944-1.2095l-0.65734-0.14462c-0.15776 0.72308-0.46014 1.1043-0.90713 1.1043-0.47329 0-0.89399-0.27608-1.341-0.86769 0.36811-0.49958 0.47329-0.68364 0.82825-1.3278 0.51273-0.99916 0.8151-1.2095 1.7485-1.2358zm-6.9941 0.67049c0.56532 1.1701 1.3278 2.3401 2.3007 3.5234-0.31552 0.2235-0.53902 0.28923-0.86769 0.28923-0.78881 0-1.4199-0.46014-1.8669-1.3673-0.1972-0.39441-0.30238-0.78881-0.30238-1.1438 0-0.56532 0.24979-0.99916 0.73622-1.3015zm1.7354-1.4067c-0.52587-0.90713-0.72308-1.4199-0.72308-1.9194 0-0.55217 0.3944-0.98601 0.92028-0.98601 0.59161 0 1.0255 0.53902 1.0255 1.2621 0 0.67049-0.35496 1.2227-1.0123 1.5513-0.06573 0.026294-0.09203 0.039441-0.21035 0.092028z" style="font-feature-settings:normal;font-variant-caps:normal;font-variant-ligatures:normal;font-variant-numeric:normal"/>
<path d="m46.868 11.585h0.73622c0.56532 0 0.93343 0.13147 1.1701 0.3944 0.21035 0.24979 0.26294 0.40755 0.31552 1.1569 0.07888 0.88084 0.14462 1.433 0.18406 1.6434 0.2235 1.0255 0.95972 1.5645 2.1035 1.5645 1.4199 0 2.235-0.80196 2.235-2.1955v-0.15776h-0.70993c-0.01315 0.82825-0.21035 1.249-0.60476 1.249-0.14462 0-0.30238-0.07888-0.38126-0.1972-0.07888-0.10518-0.09203-0.1972-0.15776-0.6179 0-0.05259-0.02629-0.18406-0.05259-0.36811l-0.09203-0.49958c-0.1972-1.1832-0.69678-1.7748-1.8406-2.1561 0.69678-0.13147 1.0386-0.2235 1.3673-0.38126 0.80196-0.40755 1.2621-1.1306 1.2621-1.9852 0-0.78881-0.38126-1.4593-1.0649-1.9063-0.49958-0.31552-1.3804-0.47329-2.5899-0.47329h-5.6137v0.70993h0.1972c0.68364 0 0.95972 0.052587 1.078 0.18406 0.09203 0.11832 0.09203 0.15776 0.09203 0.99916v5.6926c0 0.8414 0 0.88084-0.09203 0.99916-0.11832 0.13147-0.39441 0.18406-1.078 0.18406h-0.1972v0.70993h5.2587v-0.70993h-0.34182c-0.68364 0-0.97287-0.05259-1.0912-0.18406-0.09203-0.11832-0.09203-0.15776-0.09203-0.99916zm0-0.72308v-2.6557c0-0.74937 0.09203-0.8414 0.93343-0.8414h0.31552c1.2227 0 1.7748 0.53902 1.7748 1.7354 0 1.341-0.55217 1.7617-2.3007 1.7617z" style="font-feature-settings:normal;font-variant-caps:normal;font-variant-ligatures:normal;font-variant-numeric:normal"/>
</g>
</svg>
