<svg xmlns="http://www.w3.org/2000/svg" data-name="Layer 1" viewBox="0 0 36 36"><defs><style/></defs><circle cx="17.91" cy="17.94" r="17.5" fill="#8b008b"/><g style="line-height:1.25;-inkscape-font-specification:'Century Schoolbook L, Medium';font-variant-ligatures:normal;font-variant-caps:normal;font-variant-numeric:normal;font-feature-settings:normal;text-align:start"><path d="M2.784 10.578v1.128h.124c.43 0 .603.085.678.293.058.189.058.251.058 1.59v9.069c0 1.317 0 1.4-.058 1.567-.075.23-.248.315-.678.315h-.124v1.128h3.349c.86 0 1.299-.168 1.72-.628.53-.605.877-1.923.877-3.322 0-1.462-.33-2.655-.943-3.345-.281-.333-.529-.5-.96-.647.406-.168.637-.314.869-.585.497-.607.761-1.61.761-2.864 0-1.19-.248-2.299-.654-2.862-.454-.669-.842-.837-1.827-.837zm2.349 6.772v-4.43c0-.606.016-.775.098-.942.083-.187.208-.27.364-.27h.248c.728 0 1.117.919 1.117 2.653 0 1.024-.14 1.84-.405 2.362-.224.46-.505.627-1.017.627zm0 1.149h.57c.52 0 .761.126.992.502.281.48.456 1.4.456 2.487 0 1.003-.15 1.923-.39 2.424-.206.439-.48.628-.876.628h-.248c-.29 0-.43-.127-.48-.418-.025-.169-.025-.23-.025-.92zm8.612.084v4.075c0 1.317 0 1.4-.059 1.567-.074.23-.247.315-.678.315h-.124v1.128h3.217V24.54h-.124c-.43 0-.612-.085-.686-.315-.058-.167-.058-.229-.058-1.567v-9.049c0-1.338 0-1.421.058-1.59.074-.228.256-.313.686-.313h.124v-1.128h-3.217v1.128h.124c.43 0 .604.085.678.315.058.167.058.27.058 1.588v3.72h-2.158v-3.721c0-1.339 0-1.422.058-1.59.074-.229.256-.313.686-.313h.124v-1.129H9.237v1.129h.124c.43 0 .604.084.678.314.058.167.058.25.058 1.589v9.048c0 1.318 0 1.4-.058 1.567-.074.23-.248.315-.678.315h-.124v1.129h3.217v-1.129h-.124c-.43 0-.612-.084-.686-.315-.058-.167-.058-.229-.058-1.567v-4.073zm3.606 4.075c0 1.317 0 1.4-.058 1.567-.074.23-.247.315-.678.315h-.124v1.128h3.217V24.54h-.123c-.43 0-.613-.085-.687-.315-.058-.167-.058-.229-.058-1.567v-9.07c0-1.338 0-1.4.058-1.567.074-.23.256-.315.687-.315h.123v-1.128h-3.217v1.128h.124c.43 0 .604.085.678.315.058.167.058.25.058 1.567zm9.166-5.517H24.26v1.13c.521.02.736.312.736 1.023 0 .585-.116 1.211-.397 2.068-.198-.544-.736-2.591-1.158-4.41.505-.521.711-.814.976-1.337.298-.605.472-1.462.472-2.362 0-1.776-.604-2.989-1.506-2.989-.537 0-.976.377-1.298 1.108a1.542 3.898 0 00-.488 2.78c0 1.002.083 1.756.323 3.01a6.91 6.91 0 00-.687.878c-.637.961-.984 2.32-.984 3.886 0 1.024.157 1.987.446 2.76.323.857.836 1.316 1.456 1.316.662 0 1.224-.46 1.745-1.4.364.919.794 1.38 1.307 1.38.578 0 .959-.544 1.274-1.86a1.761 4.451 0 00.247-1.924l-.413-.23c-.1 1.15-.29 1.756-.57 1.756-.299 0-.563-.439-.844-1.38.231-.794.297-1.087.52-2.11.324-1.589.513-1.924 1.1-1.966zm-4.4 1.065c.357 1.86.836 3.72 1.448 5.6-.199.357-.339.462-.546.462-.496 0-.893-.731-1.174-2.175a9.538 9.538 0 01-.19-1.817c0-.9.157-1.59.463-2.07zm1.093-2.236c-.331-1.442-.455-2.258-.455-3.052 0-.876.248-1.566.579-1.566.372 0 .645.857.645 2.006 0 1.065-.224 1.944-.637 2.466-.042.042-.058.063-.132.146zm6.273 2.446h.463c.356 0 .587.209.736.627.133.397.166.647.199 1.839.05 1.399.09 2.278.115 2.612.141 1.63.604 2.488 1.324 2.488.893 0 1.406-1.275 1.406-3.491v-.252h-.447c-.008 1.318-.132 1.988-.38 1.988a.302.763 0 01-.24-.315c-.05-.167-.058-.313-.1-.983 0-.082-.016-.292-.033-.585l-.058-.794c-.124-1.881-.438-2.82-1.157-3.428.438-.208.653-.354.86-.604.504-.648.794-1.798.794-3.157 0-1.254-.24-2.32-.67-3.03-.315-.502-.868-.753-1.63-.753h-3.53v1.128h.123c.43 0 .604.085.679.293.057.189.057.251.057 1.59v9.048c0 1.338 0 1.4-.057 1.59-.075.206-.248.29-.679.29h-.123v1.13h3.307v-1.13h-.214c-.43 0-.612-.082-.687-.292-.058-.188-.058-.25-.058-1.588zm0-1.15v-4.221c0-1.192.058-1.339.587-1.339h.198c.77 0 1.117.859 1.117 2.76 0 2.13-.347 2.8-1.447 2.8z" style="-inkscape-font-specification:'Century Schoolbook L Bold';font-variant-ligatures:normal;font-variant-caps:normal;font-variant-numeric:normal;font-feature-settings:normal;text-align:start" aria-label="BHI&amp;R" font-weight="700" font-size="13.147" font-family="Century Schoolbook L" letter-spacing="0" word-spacing="0" fill="#fff" stroke-width=".986"/></g></svg>