<?xml version="1.0" encoding="UTF-8" standalone="no"?>
<svg
xmlns:dc="http://purl.org/dc/elements/1.1/"
xmlns:cc="http://creativecommons.org/ns#"
xmlns:rdf="http://www.w3.org/1999/02/22-rdf-syntax-ns#"
xmlns:svg="http://www.w3.org/2000/svg"
xmlns="http://www.w3.org/2000/svg"
xmlns:sodipodi="http://sodipodi.sourceforge.net/DTD/sodipodi-0.dtd"
xmlns:inkscape="http://www.inkscape.org/namespaces/inkscape"
data-name="Layer 1"
version="1.1"
viewBox="0 0 36 36"
id="svg2353"
sodipodi:docname="CN.svg"
inkscape:version="0.92.3 (2405546, 2018-03-11)">
<metadata
id="metadata2335">
<rdf:RDF>
<cc:Work
rdf:about="">
<dc:format>image/svg+xml</dc:format>
<dc:type
rdf:resource="http://purl.org/dc/dcmitype/StillImage" />
<dc:title />
</cc:Work>
</rdf:RDF>
</metadata>
<defs
id="defs2339">
<style
id="style2337">.cls-1{fill:#37383a;}.cls-2{fill:#fff;}</style>
</defs>
<circle
class="cls-1"
cx="17.91"
cy="17.94"
r="17.5"
fill="#00bfff"
id="circle2341"
style="fill:#00bfff;fill-opacity:1" />
<g
aria-label="C&amp;N"
id="g2351">
<g
transform="matrix(.93083 0 0 1.1832 1.1739 -3.7184)"
id="g2349">
<path
d="m10.549 13.178h-0.57333l-0.72 0.65333c-0.88-0.53333-1.4933-0.70667-2.44-0.70667-2.9333 0-5.04 2.1467-5.04 5.1333 0 1.3867 0.41333 2.48 1.2667 3.4267 0.92 1.0133 2.0533 1.4667 3.6133 1.4667 2.36 0 3.72-1.1467 4.2267-3.5333l-0.82667-0.2c-0.36 1.8533-1.4267 2.9067-2.96 2.9067-1.8133 0-2.6667-1.3733-2.6667-4.3067 0-2.76 0.85333-4.2 2.4933-4.2 1.48 0 2.4533 1.0267 3.0533 3.2533l0.70667-0.08z"
id="path2343" />
<path
d="m22.234 17.511h-3.64v0.72c0.84 0.01333 1.1867 0.2 1.1867 0.65333 0 0.37333-0.18667 0.77333-0.64 1.32-0.32-0.34667-1.1867-1.6533-1.8667-2.8133 0.81333-0.33333 1.1467-0.52 1.5733-0.85333 0.48-0.38667 0.76-0.93333 0.76-1.5067 0-1.1333-0.97333-1.9067-2.4267-1.9067-0.86667 0-1.5733 0.24-2.0933 0.70667-0.48 0.44-0.78667 1.12-0.78667 1.7733 0 0.64 0.13333 1.12 0.52 1.92-0.50667 0.22667-0.77333 0.36-1.1067 0.56-1.0267 0.61333-1.5867 1.48-1.5867 2.48 0 0.65333 0.25333 1.2667 0.72 1.76 0.52 0.54667 1.3467 0.84 2.3467 0.84 1.0667 0 1.9733-0.29333 2.8133-0.89333 0.58667 0.58667 1.28 0.88 2.1067 0.88 0.93333 0 1.5467-0.34667 2.0533-1.1867 0.22667-0.38667 0.34667-0.73333 0.4-1.2267l-0.66667-0.14667c-0.16 0.73333-0.46667 1.12-0.92 1.12-0.48 0-0.90667-0.28-1.36-0.88 0.37333-0.50667 0.48-0.69333 0.84-1.3467 0.52-1.0133 0.82667-1.2267 1.7733-1.2533zm-7.0933 0.68c0.57333 1.1867 1.3467 2.3733 2.3333 3.5733-0.32 0.22667-0.54667 0.29333-0.88 0.29333-0.8 0-1.44-0.46667-1.8933-1.3867-0.2-0.4-0.30667-0.8-0.30667-1.16 0-0.57333 0.25333-1.0133 0.74667-1.32zm1.76-1.4267c-0.53333-0.92-0.73333-1.44-0.73333-1.9467 0-0.56 0.4-1 0.93333-1 0.6 0 1.04 0.54667 1.04 1.28 0 0.68-0.36 1.24-1.0267 1.5733-0.06667 0.02667-0.09333 0.04-0.21333 0.09333z"
id="path2345" />
<path
d="m26.561 13.324h-3.36v0.73333c0.6 0.01333 1.08 0.26667 1.4133 0.74667v5.2533c0 1.1733-0.06667 1.5067-0.34667 1.8-0.21333 0.22667-0.52 0.33333-1.0933 0.36v0.72h3.8v-0.72c-0.57333-0.02667-0.90667-0.13333-1.12-0.36-0.28-0.29333-0.34667-0.62667-0.34667-1.8v-4.3867l6.2 7.3733h0.89333v-6.8267c0-1.1867 0.06667-1.52 0.34667-1.8133 0.21333-0.22667 0.58667-0.34667 1.12-0.36v-0.72h-3.8v0.72c0.52 0.01333 0.88 0.13333 1.0933 0.36 0.28 0.29333 0.34667 0.64 0.34667 1.8133v3.1333z"
id="path2347" />
</g>
</g>
</svg>
