<?xml version="1.0" encoding="UTF-8" standalone="no"?>
<svg
   xmlns:dc="http://purl.org/dc/elements/1.1/"
   xmlns:cc="http://creativecommons.org/ns#"
   xmlns:rdf="http://www.w3.org/1999/02/22-rdf-syntax-ns#"
   xmlns:svg="http://www.w3.org/2000/svg"
   xmlns="http://www.w3.org/2000/svg"
   xmlns:sodipodi="http://sodipodi.sourceforge.net/DTD/sodipodi-0.dtd"
   xmlns:inkscape="http://www.inkscape.org/namespaces/inkscape"
   id="Layer_1"
   data-name="Layer 1"
   viewBox="0 0 36 36"
   version="1.1"
   sodipodi:docname="CN.svg"
   inkscape:version="0.92.3 (2405546, 2018-03-11)">
  <metadata
     id="metadata1593">
    <rdf:RDF>
      <cc:Work
         rdf:about="">
        <dc:format>image/svg+xml</dc:format>
        <dc:type
           rdf:resource="http://purl.org/dc/dcmitype/StillImage" />
        <dc:title />
      </cc:Work>
    </rdf:RDF>
  </metadata>
  <sodipodi:namedview
     pagecolor="#ffffff"
     bordercolor="#666666"
     borderopacity="1"
     objecttolerance="10"
     gridtolerance="10"
     guidetolerance="10"
     inkscape:pageopacity="0"
     inkscape:pageshadow="2"
     inkscape:window-width="1311"
     inkscape:window-height="713"
     id="namedview1591"
     showgrid="false"
     inkscape:zoom="7.6111111"
     inkscape:cx="34.926725"
     inkscape:cy="9.4204278"
     inkscape:window-x="55"
     inkscape:window-y="27"
     inkscape:window-maximized="1"
     inkscape:current-layer="text1616" />
  <defs
     id="defs1582">
    <style
       id="style1580">.cls-1{fill:#37383a;}.cls-2{fill:#fff;}</style>
  </defs>
  <circle
     class="cls-1"
     cx="17.91"
     cy="17.94"
     r="17.5"
     id="circle1584"
     style="fill:#00bfff;fill-opacity:1" />
  <g
     aria-label="C&amp;N"
     style="font-style:normal;font-variant:normal;font-weight:bold;font-stretch:normal;font-size:13.33333302px;line-height:1.25;font-family:'Century Schoolbook L';-inkscape-font-specification:'Century Schoolbook L Bold';letter-spacing:0px;word-spacing:0px;fill:#000000;fill-opacity:1;stroke:none"
     id="text1616">
    <g
       id="g891"
       transform="matrix(0.93083207,0,0,1.1832088,1.1739399,-3.7183896)">
      <path
         id="path1618"
         d="M 10.549372,13.17782 H 9.9760385 l -0.72,0.653333 c -0.88,-0.533333 -1.4933333,-0.706667 -2.44,-0.706667 -2.9333332,0 -5.0399998,2.146667 -5.0399998,5.133334 0,1.386666 0.4133333,2.48 1.2666666,3.426666 0.92,1.013333 2.0533333,1.466667 3.6133332,1.466667 2.36,0 3.7199995,-1.146667 4.2266665,-3.533333 l -0.826667,-0.2 c -0.3599995,1.853333 -1.4266662,2.906666 -2.9599995,2.906666 -1.8133333,0 -2.6666666,-1.373333 -2.6666666,-4.306666 0,-2.76 0.8533333,-4.2 2.4933333,-4.2 1.48,0 2.4533333,1.026666 3.0533333,3.253333 l 0.7066665,-0.08 z"
         inkscape:connector-curvature="0" />
      <path
         id="path1620"
         d="m 22.233955,17.511153 h -3.64 v 0.72 c 0.84,0.01333 1.186666,0.2 1.186666,0.653333 0,0.373334 -0.186666,0.773334 -0.639999,1.32 -0.32,-0.346666 -1.186667,-1.653333 -1.866667,-2.813333 0.813333,-0.333333 1.146667,-0.52 1.573333,-0.853333 0.48,-0.386667 0.76,-0.933334 0.76,-1.506667 0,-1.133333 -0.973333,-1.906667 -2.426666,-1.906667 -0.866667,0 -1.573334,0.24 -2.093334,0.706667 -0.48,0.44 -0.786666,1.12 -0.786666,1.773333 0,0.64 0.133333,1.12 0.52,1.92 -0.506667,0.226667 -0.773334,0.36 -1.106667,0.56 -1.026667,0.613334 -1.586667,1.48 -1.586667,2.48 0,0.653334 0.253334,1.266667 0.72,1.76 0.52,0.546667 1.346667,0.84 2.346667,0.84 1.066667,0 1.973333,-0.293333 2.813333,-0.893333 0.586667,0.586666 1.28,0.88 2.106667,0.88 0.933333,0 1.546666,-0.346667 2.053333,-1.186667 0.226667,-0.386666 0.346667,-0.733333 0.4,-1.226666 l -0.666667,-0.146667 c -0.16,0.733333 -0.466666,1.12 -0.92,1.12 -0.48,0 -0.906666,-0.28 -1.359999,-0.88 0.373333,-0.506667 0.479999,-0.693333 0.839999,-1.346667 0.52,-1.013333 0.826667,-1.226666 1.773334,-1.253333 z m -7.093333,0.68 c 0.573333,1.186667 1.346666,2.373333 2.333333,3.573333 -0.32,0.226667 -0.546667,0.293333 -0.88,0.293333 -0.8,0 -1.44,-0.466666 -1.893333,-1.386666 -0.2,-0.4 -0.306667,-0.8 -0.306667,-1.16 0,-0.573333 0.253333,-1.013333 0.746667,-1.32 z m 1.76,-1.426667 c -0.533334,-0.92 -0.733334,-1.44 -0.733334,-1.946666 0,-0.56 0.4,-1 0.933334,-1 0.6,0 1.04,0.546666 1.04,1.28 0,0.68 -0.36,1.24 -1.026667,1.573333 -0.06667,0.02667 -0.09333,0.04 -0.213333,0.09333 z"
         inkscape:connector-curvature="0" />
      <path
         id="path1622"
         d="m 26.561455,13.324486 h -3.36 v 0.733334 c 0.6,0.01333 1.08,0.266666 1.413334,0.746666 v 5.253334 c 0,1.173333 -0.06667,1.506666 -0.346667,1.799999 -0.213333,0.226667 -0.52,0.333334 -1.093333,0.36 v 0.72 h 3.8 v -0.72 c -0.573334,-0.02667 -0.906667,-0.133333 -1.12,-0.36 -0.28,-0.293333 -0.346667,-0.626666 -0.346667,-1.799999 v -4.386667 l 6.2,7.373333 h 0.893333 V 16.21782 c 0,-1.186667 0.06667,-1.52 0.346667,-1.813334 0.213333,-0.226666 0.586666,-0.346666 1.12,-0.36 v -0.72 h -3.8 v 0.72 c 0.52,0.01333 0.88,0.133334 1.093333,0.36 0.28,0.293334 0.346667,0.64 0.346667,1.813334 v 3.133333 z"
         inkscape:connector-curvature="0" />
    </g>
  </g>
</svg>
