<svg xmlns="http://www.w3.org/2000/svg" data-name="Layer 1" viewBox="0 0 36 36"><defs><style/></defs><circle cx="17.91" cy="17.94" r="17.5" fill="#00bfff"/><path d="M10.993 11.874h-.533l-.67.773c-.82-.63-1.39-.835-2.271-.835-2.732 0-4.692 2.539-4.692 6.073 0 1.641.385 2.934 1.179 4.055.856 1.198 1.912 1.734 3.364 1.734 2.196 0 3.462-1.356 3.933-4.18l-.769-.237c-.335 2.193-1.328 3.44-2.755 3.44-1.688 0-2.482-1.626-2.482-5.096 0-3.266.794-4.97 2.32-4.97 1.378 0 2.284 1.216 2.843 3.85l.657-.095zm10.877 5.127h-3.388v.852c.782.015 1.105.237 1.105.773 0 .442-.174.915-.596 1.561-.298-.409-1.105-1.955-1.738-3.328.757-.394 1.068-.615 1.464-1.01a2.563 2.563 0 00.708-1.782c0-1.34-.906-2.257-2.258-2.257-.807 0-1.466.284-1.95.837-.446.52-.731 1.325-.731 2.098 0 .757.124 1.325.484 2.271-.472.269-.72.426-1.03.663-.957.726-1.478 1.751-1.478 2.934 0 .774.237 1.5.67 2.083.484.647 1.254.994 2.185.994.993 0 1.837-.347 2.618-1.057.547.695 1.192 1.041 1.962 1.041.868 0 1.44-.41 1.91-1.404a2.644 3.36 0 00.373-1.45l-.62-.175c-.149.868-.435 1.325-.856 1.325-.447 0-.845-.33-1.266-1.04.347-.6.447-.82.782-1.595.484-1.198.769-1.451 1.65-1.482zm-6.602.805c.533 1.404 1.253 2.807 2.171 4.227-.298.269-.509.348-.819.348-.744 0-1.34-.553-1.762-1.641a3.82 3.82 0 01-.286-1.373c0-.678.236-1.198.696-1.561zm1.638-1.689c-.497-1.088-.683-1.704-.683-2.302 0-.663.372-1.184.87-1.184.558 0 .967.646.967 1.515 0 .805-.335 1.467-.956 1.861-.062.032-.086.047-.198.11zm8.992-4.07H22.77v.867c.559.017 1.005.316 1.315.884v6.215c0 1.39-.061 1.784-.322 2.13-.199.269-.484.395-1.018.426v.852h3.537v-.852c-.533-.03-.843-.157-1.042-.426-.261-.346-.322-.74-.322-2.13v-5.19l5.77 8.725h.832V15.47c0-1.403.062-1.799.323-2.145.198-.269.545-.41 1.043-.426v-.852h-3.538v.852c.484.015.82.157 1.018.426.26.346.323.757.323 2.145v3.708z" aria-label="C&amp;N"/></svg>