<?xml version="1.0" encoding="UTF-8"?>
<svg data-name="Layer 1" version="1.1" viewBox="0 0 36 36" xmlns="http://www.w3.org/2000/svg" xmlns:cc="http://creativecommons.org/ns#" xmlns:dc="http://purl.org/dc/elements/1.1/" xmlns:rdf="http://www.w3.org/1999/02/22-rdf-syntax-ns#">
<metadata>
<rdf:RDF>
<cc:Work rdf:about="">
<dc:format>image/svg+xml</dc:format>
<dc:type rdf:resource="http://purl.org/dc/dcmitype/StillImage"/>
<dc:title/>
</cc:Work>
</rdf:RDF>
</metadata>
<defs>
<style>.cls-1{fill:#37383a;}.cls-2{fill:#fff;}</style>
</defs>
<circle class="cls-1" cx="17.91" cy="17.94" r="17.5" fill="#008000"/>
<g transform="scale(.88245 1.1332)" fill="#fff" stroke-width="1.2213" style="font-feature-settings:normal;font-variant-caps:normal;font-variant-ligatures:normal;font-variant-numeric:normal" aria-label="FYN">
<path d="m13.107 10.32h-9.689v0.76535h0.29311c1.319 0 1.4656 0.08142 1.4656 0.76535v8.6957c0 0.68393-0.14656 0.76535-1.4656 0.76535h-0.29311v0.76535h5.5854v-0.76535h-0.53737c-1.319 0-1.4656-0.08142-1.4656-0.76535v-4.1687h0.32568c1.0096 0 1.4004 0.0977 1.7424 0.43967 0.4071 0.42338 0.56994 0.94447 0.60251 1.9052h0.76535v-5.3412h-0.76535c-0.08142 1.5958-0.73278 2.2309-2.2798 2.2309h-0.39082v-3.7128c0-0.70021 0.14656-0.8142 1.0259-0.8142h0.74906c2.6869 0 3.3871 0.61879 3.843 3.4034h0.7165z" style="font-feature-settings:normal;font-variant-caps:normal;font-variant-ligatures:normal;font-variant-numeric:normal"/>
<path d="m20.158 16.264-2.7357-4.413c-0.13027-0.19541-0.17912-0.34196-0.17912-0.45595 0-0.21169 0.19541-0.3094 0.63508-0.3094h0.96076v-0.76535h-5.2272v0.76535h0.35825c0.70021 0 0.94447 0.14656 1.319 0.74906l3.5173 5.5691v3.1428c0 0.68393-0.14656 0.76535-1.4656 0.76535h-0.42338v0.76535h5.5854v-0.76535h-0.42338c-1.319 0-1.4493-0.06514-1.4493-0.76535v-3.3382l2.4263-4.3804c0.35825-0.63508 0.56994-0.94447 0.8142-1.1887 0.37453-0.34196 0.89562-0.55366 1.433-0.55366h0.13027v-0.76535h-4.6247v0.76535h0.37453c0.89562 0 1.2702 0.21169 1.2702 0.73278 0 0.24426-0.0977 0.52109-0.27683 0.84677z" style="font-feature-settings:normal;font-variant-caps:normal;font-variant-ligatures:normal;font-variant-numeric:normal"/>
<path d="m28.937 10.32h-3.3545v0.76535h0.4071c0.83048 0 1.205 0.13027 1.4981 0.53737v6.9207c0 2.2309-0.32568 2.7031-1.8889 2.7683v0.76535h4.6409v-0.76535c-1.547-0.06514-1.8727-0.53737-1.8727-2.7683v-6.0414l7.2627 9.803h0.68393v-8.4514c0-2.2309 0.32568-2.7031 1.8889-2.7683v-0.76535h-4.6409v0.76535c1.547 0.06514 1.8727 0.53737 1.8727 2.7683v5.1132z" style="font-feature-settings:normal;font-variant-caps:normal;font-variant-ligatures:normal;font-variant-numeric:normal"/>
</g>
</svg>
