<svg xmlns="http://www.w3.org/2000/svg" data-name="Layer 1" viewBox="0 0 36 36"><defs><style/></defs><circle cx="17.91" cy="17.94" r="17.5" fill="green"/><g style="line-height:1.25;-inkscape-font-specification:'Century Schoolbook L, Medium';font-variant-ligatures:normal;font-variant-caps:normal;font-variant-numeric:normal;font-feature-settings:normal;text-align:start"><path d="M11.566 11.695h-8.55v.868h.259c1.165 0 1.293.091 1.293.867v9.854c0 .775-.13.867-1.293.867h-.259v.867h4.93v-.867H7.47c-1.164 0-1.293-.092-1.293-.867V18.56h.287c.891 0 1.235.11 1.538.498.36.48.503 1.07.531 2.159h.676v-6.053h-.677c-.071 1.808-.647 2.528-2.012 2.528h-.344v-4.207c0-.793.129-.922.906-.922h.66c2.37 0 2.99.7 3.392 3.856h.632zm6.222 6.735l-2.414-5c-.115-.221-.159-.388-.159-.517 0-.24.173-.351.561-.351h.848v-.867H12.01v.868h.317c.618 0 .833.165 1.164.848l3.103 6.311v3.562c0 .775-.13.867-1.293.867h-.374v.867h4.929v-.867h-.373c-1.164 0-1.28-.074-1.28-.867V19.5l2.142-4.963c.316-.72.503-1.07.718-1.348a1.9 2.44 0 011.265-.626h.114v-.868h-4.08v.868h.33c.791 0 1.122.239 1.122.83 0 .277-.086.59-.244.959zm7.747-6.735h-2.96v.868h.359c.732 0 1.063.147 1.322.608v7.842c0 2.53-.287 3.064-1.667 3.138v.867h4.095v-.867c-1.365-.074-1.652-.609-1.652-3.137v-6.847l6.409 11.109h.603v-9.577c0-2.528.288-3.063 1.668-3.136v-.868h-4.097v.868c1.365.073 1.653.608 1.653 3.136v5.794z" style="-inkscape-font-specification:'Century Schoolbook L, Medium';font-variant-ligatures:normal;font-variant-caps:normal;font-variant-numeric:normal;font-feature-settings:normal;text-align:start" aria-label="FYN" font-weight="500" font-size="16.284" font-family="Century Schoolbook L" letter-spacing="0" word-spacing="0" fill="#fff" stroke-width="1.221"/></g></svg>