<svg xmlns="http://www.w3.org/2000/svg" data-name="Layer 1" viewBox="0 0 36 36"><defs><style/></defs><circle cx="17.91" cy="17.94" r="17.5" fill="red"/><path d="M4.812 21.604c0 .993 0 1.057-.095 1.184-.122.172-.408.236-1.118.236h-.204v.851h5.302v-.852h-.205c-.709 0-1.008-.062-1.13-.237-.096-.125-.096-.172-.096-1.183v-6.848c0-1.01 0-1.058.095-1.183.123-.174.422-.237 1.131-.237h.205v-.852H3.395v.852h.204c.71 0 .995.063 1.118.237.095.125.095.189.095 1.183zm9.928-9.358c-1.323 0-2.44.441-3.327 1.342-1.144 1.136-1.826 2.919-1.826 4.765 0 3.346 2.127 5.76 5.084 5.76 1.39 0 2.467-.395 3.38-1.232 1.172-1.088 1.826-2.697 1.826-4.544 0-1.83-.695-3.63-1.826-4.75-.913-.914-1.976-1.341-3.311-1.341zm.013.82c.736 0 1.308.41 1.703 1.217.45.946.695 2.366.695 4.07 0 3.204-.844 4.94-2.397 4.94-.791 0-1.364-.396-1.746-1.217-.45-.978-.695-2.367-.695-4.024 0-1.703.232-2.965.695-3.865.396-.774.94-1.12 1.745-1.12zm15.359 6.739l-1.458-5.617c-.068-.237-.082-.332-.082-.427 0-.3.164-.379.804-.426v-.852h-4.033v.852c.531.032.667.158.871.836l.491 1.784-1.09 3.96-1.58-5.65c-.083-.267-.11-.425-.11-.535 0-.284.163-.363.804-.395v-.852h-4.225v.852h.027c.614 0 .79.158 1.009.914l2.78 9.863h1.023l1.798-6.421 1.704 6.421h.995l2.372-8.662c.395-1.563.654-1.926 1.47-2.115v-.852H30.25v.852c.395.016.585.047.763.142a.818.947 0 01.464.868c0 .22-.028.394-.177.962z" aria-label="IOW" font-weight="700" font-size="14.665" font-family="Century Schoolbook L" letter-spacing="0" word-spacing="0" fill="#fff" stroke-width="1.1"/></svg>