<?xml version="1.0" encoding="UTF-8"?>
<svg data-name="Layer 1" version="1.1" viewBox="0 0 36 36" xmlns="http://www.w3.org/2000/svg" xmlns:cc="http://creativecommons.org/ns#" xmlns:dc="http://purl.org/dc/elements/1.1/" xmlns:rdf="http://www.w3.org/1999/02/22-rdf-syntax-ns#">
<metadata>
<rdf:RDF>
<cc:Work rdf:about="">
<dc:format>image/svg+xml</dc:format>
<dc:type rdf:resource="http://purl.org/dc/dcmitype/StillImage"/>
<dc:title/>
</cc:Work>
</rdf:RDF>
</metadata>
<defs>
<style>.cls-1{fill:#37383a;}.cls-2{fill:#fff;}</style>
</defs>
<circle class="cls-1" cx="17.91" cy="17.94" r="17.5" fill="#f00"/>
<g transform="scale(.92936 1.076)" fill="#fff" stroke-width="1.0999" style="font-feature-settings:normal;font-variant-caps:normal;font-variant-ligatures:normal;font-variant-numeric:normal" aria-label="IOW">
<path d="m5.1784 20.078c0 0.92388 0 0.98254-0.10265 1.0999-0.13198 0.16131-0.43994 0.21997-1.2025 0.21997h-0.21997v0.7919h5.7046v-0.7919h-0.21997c-0.76257 0-1.0852-0.05866-1.2172-0.21997-0.10265-0.11732-0.10265-0.16131-0.10265-1.0999v-6.3645c0-0.93855 0-0.98254 0.10265-1.0999 0.13198-0.16131 0.45461-0.21997 1.2172-0.21997h0.21997v-0.7919h-5.7046v0.7919h0.21997c0.76257 0 1.0705 0.05866 1.2025 0.21997 0.10265 0.11732 0.10265 0.17598 0.10265 1.0999z"/>
<path d="m15.86 11.381c-1.4225 0-2.625 0.41061-3.5782 1.2465-1.2318 1.0559-1.9651 2.713-1.9651 4.4288 0 3.1089 2.2877 5.3526 5.47 5.3526 1.4958 0 2.6543-0.36662 3.6369-1.1439 1.2612-1.0119 1.9651-2.5077 1.9651-4.2235 0-1.7011-0.7479-3.3729-1.9651-4.4141-0.98254-0.85056-2.1264-1.2465-3.5635-1.2465zm0.01467 0.76257c0.7919 0 1.4078 0.38128 1.8331 1.1292 0.48394 0.87989 0.7479 2.1997 0.7479 3.7835 0 2.977-0.90922 4.5901-2.581 4.5901-0.85056 0-1.4665-0.36662-1.8771-1.1292-0.48394-0.90922-0.7479-2.1997-0.7479-3.7395 0-1.5838 0.2493-2.757 0.7479-3.5929 0.42528-0.71857 1.0119-1.0412 1.8771-1.0412z"/>
<path d="m32.401 18.406-1.5691-5.2207c-0.07332-0.21997-0.08799-0.30796-0.08799-0.39595 0-0.27863 0.17598-0.35196 0.86522-0.39595v-0.7919h-4.3408v0.7919c0.57193 0.02933 0.71858 0.14665 0.93855 0.77723l0.52793 1.6571-1.1732 3.6809-1.7011-5.25c-0.08799-0.2493-0.11732-0.39595-0.11732-0.4986 0-0.26397 0.17598-0.33729 0.86522-0.36662v-0.7919h-4.5461v0.7919h0.02933c0.65992 0 0.85056 0.14665 1.0852 0.85056l2.9916 9.1655h1.0999l1.9358-5.9686 1.8331 5.9686h1.0705l2.5517-8.051c0.42528-1.4518 0.70391-1.7891 1.5838-1.9651v-0.7919h-3.6955v0.7919c0.42528 0.01466 0.63058 0.04399 0.82123 0.13198 0.30796 0.14665 0.4986 0.45461 0.4986 0.80656 0 0.20531-0.02933 0.36662-0.19064 0.89455z"/>
</g>
</svg>
