<?xml version="1.0" encoding="UTF-8"?>
<svg data-name="Layer 1" version="1.1" viewBox="0 0 36 36" xmlns="http://www.w3.org/2000/svg" xmlns:cc="http://creativecommons.org/ns#" xmlns:dc="http://purl.org/dc/elements/1.1/" xmlns:rdf="http://www.w3.org/1999/02/22-rdf-syntax-ns#">
<metadata>
<rdf:RDF>
<cc:Work rdf:about="">
<dc:format>image/svg+xml</dc:format>
<dc:type rdf:resource="http://purl.org/dc/dcmitype/StillImage"/>
<dc:title/>
</cc:Work>
</rdf:RDF>
</metadata>
<defs>
<style>.cls-1{fill:#37383a;}.cls-2{fill:#fff;}</style>
</defs>
<circle class="cls-1" cx="17.91" cy="17.94" r="17.5"/>
<g transform="scale(.75485 1.3248)" fill="#fff" stroke-width="1.0447" style="font-feature-settings:normal;font-variant-caps:normal;font-variant-ligatures:normal;font-variant-numeric:normal" aria-label="IWNJ">
<path d="m5.4244 16.879c0 0.87756 0 0.93328-0.097507 1.0447-0.12537 0.15322-0.41789 0.20894-1.1422 0.20894h-0.20894v0.75219h5.4186v-0.75219h-0.20894c-0.72434 0-1.0308-0.05572-1.1562-0.20894-0.097507-0.11144-0.097507-0.15322-0.097507-1.0447v-6.0454c0-0.89149 0-0.93328 0.097507-1.0447 0.12537-0.15322 0.43182-0.20894 1.1562-0.20894h0.20894v-0.75219h-5.4186v0.75219h0.20894c0.72434 0 1.0169 0.055718 1.1422 0.20894 0.097507 0.11144 0.097507 0.16715 0.097507 1.0447z"/>
<path d="m19.665 15.291-1.4905-4.9589c-0.06965-0.20894-0.08358-0.29252-0.08358-0.3761 0-0.26466 0.16715-0.33431 0.82184-0.3761v-0.75219h-4.1231v0.75219c0.54325 0.027859 0.68255 0.1393 0.89149 0.73827l0.50146 1.574-1.1144 3.4963-1.6158-4.9868c-0.08358-0.2368-0.11144-0.3761-0.11144-0.4736 0-0.25073 0.16715-0.32038 0.82184-0.34824v-0.75219h-4.3181v0.75219h0.027859c0.62683 0 0.80791 0.1393 1.0308 0.80791l2.8416 8.706h1.0447l1.8387-5.6693 1.7412 5.6693h1.0169l2.4237-7.6473c0.40396-1.379 0.66862-1.6994 1.5044-1.8666v-0.75219h-3.5102v0.75219c0.40396 0.013929 0.59897 0.041789 0.78005 0.12537 0.29252 0.1393 0.4736 0.43182 0.4736 0.76612 0 0.19501-0.02786 0.34824-0.18108 0.8497z"/>
<path d="m27.18 8.8277h-3.5102v0.76612c0.62683 0.013929 1.1283 0.27859 1.4765 0.78005v5.4882c0 1.2258-0.06965 1.574-0.36217 1.8805-0.22287 0.2368-0.54325 0.34824-1.1422 0.3761v0.75219h3.9699v-0.75219c-0.59897-0.02786-0.94721-0.1393-1.1701-0.3761-0.29252-0.30645-0.36217-0.65469-0.36217-1.8805v-4.5828l6.4772 7.703h0.93328v-7.1319c0-1.2397 0.06965-1.588 0.36217-1.8944 0.22287-0.2368 0.6129-0.36217 1.1701-0.3761v-0.75219h-3.9699v0.75219c0.54325 0.013929 0.91935 0.1393 1.1422 0.3761 0.29252 0.30645 0.36217 0.66862 0.36217 1.8944v3.2734z"/>
<path d="m42.474 10.834c0-0.89149 0-0.93328 0.09751-1.0447 0.12536-0.15322 0.43182-0.20894 1.1562-0.20894h0.20894v-0.75219h-5.4186v0.75219h0.20894c0.72434 0 1.0169 0.055718 1.1422 0.20894 0.09751 0.11144 0.09751 0.15322 0.09751 1.0447v4.6385c0 1.0029-0.09751 1.5322-0.3761 1.9501-0.34824 0.50146-1.0169 0.82184-1.7412 0.82184-0.86363 0-1.6437-0.48753-1.6437-1.0308 0-0.15322 0.11144-0.26466 0.26466-0.26466 0.04179 0 0.09751 0.01393 0.16716 0.02786 0.12536 0.02786 0.22287 0.04179 0.33431 0.04179 0.73826 0 1.2815-0.55718 1.2815-1.3094 0-0.82184-0.59897-1.4208-1.4347-1.4208-1.0029 0-1.7273 0.86363-1.7273 2.0616 0 1.6994 1.2815 2.7441 3.3709 2.7441 1.1422 0 2.0755-0.27859 2.7859-0.8497 0.87756-0.69648 1.2258-1.6019 1.2258-3.2595z"/>
</g>
</svg>
