<svg xmlns="http://www.w3.org/2000/svg" data-name="Layer 1" viewBox="0 0 36 36"><defs><style/></defs><circle cx="17.91" cy="17.94" r="17.5"/><path d="M4.094 22.36c0 1.164 0 1.237-.073 1.385-.094.203-.315.277-.862.277h-.158v.996h4.09v-.996h-.158c-.546 0-.777-.074-.872-.278-.074-.146-.074-.203-.074-1.383v-8.008c0-1.182 0-1.238.074-1.385.095-.203.326-.278.872-.278h.159v-.995H3v.996h.158c.547 0 .768.074.862.277.073.147.073.221.073 1.385zm10.75-2.103l-1.125-6.57a2.5 2.5 0 01-.063-.498c0-.35.126-.442.62-.498v-.996h-3.112v.996c.41.037.516.186.674.978l.378 2.085-.841 4.633-1.22-6.607a3.326 3.326 0 01-.085-.628c0-.33.127-.424.62-.46v-.997H7.432v.996h.022c.473 0 .61.186.777 1.07l2.145 11.534h.79l1.387-7.511 1.314 7.511h.768l1.83-10.132c.304-1.827.504-2.25 1.135-2.472v-.996h-2.65v.996c.306.019.453.056.59.166.22.185.357.572.357 1.015 0 .258-.022.462-.136 1.126zm5.673-8.562h-2.65v1.015c.474.018.852.368 1.114 1.033v7.27c0 1.625-.052 2.086-.273 2.491-.168.314-.41.462-.862.5V25h2.997v-.996c-.453-.038-.715-.186-.883-.499-.221-.406-.274-.867-.274-2.49v-6.073l4.89 10.205h.704v-9.448c0-1.643.053-2.104.273-2.51.169-.314.463-.48.883-.498v-.996H23.44v.996c.41.019.694.186.862.498.22.406.274.887.274 2.51v4.337zm11.544 2.658c0-1.182 0-1.238.074-1.385.095-.203.327-.278.873-.278h.158v-.995h-4.09v.996h.158c.546 0 .767.074.862.277.073.147.073.203.073 1.385v6.144c0 1.329-.073 2.03-.284 2.583-.262.665-.767 1.09-1.314 1.09-.652 0-1.24-.646-1.24-1.365 0-.204.083-.351.2-.351.03 0 .072.018.125.035a.66.66 0 00.252.056c.557 0 .968-.738.968-1.736 0-1.087-.453-1.88-1.083-1.88-.757 0-1.304 1.144-1.304 2.731 0 2.25.967 3.635 2.544 3.635.863 0 1.567-.37 2.104-1.126.662-.922.924-2.122.924-4.319z" aria-label="IWNJ" font-weight="700" font-size="13.93" font-family="Century Schoolbook L" letter-spacing="0" word-spacing="0" fill="#fff" stroke-width="1.045"/></svg>