<?xml version="1.0" encoding="UTF-8" standalone="no"?>
<svg
   xmlns:dc="http://purl.org/dc/elements/1.1/"
   xmlns:cc="http://creativecommons.org/ns#"
   xmlns:rdf="http://www.w3.org/1999/02/22-rdf-syntax-ns#"
   xmlns:svg="http://www.w3.org/2000/svg"
   xmlns="http://www.w3.org/2000/svg"
   xmlns:sodipodi="http://sodipodi.sourceforge.net/DTD/sodipodi-0.dtd"
   xmlns:inkscape="http://www.inkscape.org/namespaces/inkscape"
   id="Layer_1"
   data-name="Layer 1"
   viewBox="0 0 36 36"
   version="1.1"
   sodipodi:docname="IWNJ.svg"
   inkscape:version="0.92.3 (2405546, 2018-03-11)">
  <metadata
     id="metadata1593">
    <rdf:RDF>
      <cc:Work
         rdf:about="">
        <dc:format>image/svg+xml</dc:format>
        <dc:type
           rdf:resource="http://purl.org/dc/dcmitype/StillImage" />
        <dc:title></dc:title>
      </cc:Work>
    </rdf:RDF>
  </metadata>
  <sodipodi:namedview
     pagecolor="#ffffff"
     bordercolor="#666666"
     borderopacity="1"
     objecttolerance="10"
     gridtolerance="10"
     guidetolerance="10"
     inkscape:pageopacity="0"
     inkscape:pageshadow="2"
     inkscape:window-width="1311"
     inkscape:window-height="713"
     id="namedview1591"
     showgrid="false"
     inkscape:zoom="7.6111111"
     inkscape:cx="34.926725"
     inkscape:cy="10.682596"
     inkscape:window-x="55"
     inkscape:window-y="27"
     inkscape:window-maximized="1"
     inkscape:current-layer="Layer_1" />
  <defs
     id="defs1582">
    <style
       id="style1580">.cls-1{fill:#37383a;}.cls-2{fill:#fff;}</style>
  </defs>
  <circle
     class="cls-1"
     cx="17.91"
     cy="17.94"
     r="17.5"
     id="circle1584"
     style="fill:#000000;fill-opacity:1" />
  <g
     aria-label="IWNJ"
     transform="scale(0.75484637,1.3247729)"
     style="font-style:normal;font-variant:normal;font-weight:bold;font-stretch:normal;font-size:13.92952156px;line-height:1.25;font-family:'Century Schoolbook L';-inkscape-font-specification:'Century Schoolbook L, Bold';font-variant-ligatures:normal;font-variant-caps:normal;font-variant-numeric:normal;font-feature-settings:normal;text-align:start;letter-spacing:0px;word-spacing:0px;writing-mode:lr-tb;text-anchor:start;fill:#ffffff;fill-opacity:1;stroke:none;stroke-width:1.04471421"
     id="text914">
    <path
       d="m 5.4244067,16.878962 c 0,0.87756 0,0.933278 -0.097507,1.044714 -0.1253657,0.153225 -0.4178856,0.208943 -1.1422208,0.208943 H 3.9757364 v 0.752194 H 9.3943203 V 18.132619 H 9.1853775 c -0.7243351,0 -1.0307846,-0.05572 -1.1561503,-0.208943 -0.097507,-0.111436 -0.097507,-0.153224 -0.097507,-1.044714 V 10.83355 c 0,-0.8914895 0,-0.9332781 0.097507,-1.0447143 C 8.1545929,9.635611 8.4610424,9.5798929 9.1853775,9.5798929 H 9.3943203 V 8.8276987 H 3.9757364 v 0.7521942 h 0.2089428 c 0.7243352,0 1.0168551,0.055718 1.1422208,0.2089428 0.097507,0.1114362 0.097507,0.1671543 0.097507,1.0447143 z"
       style="fill:#ffffff;fill-opacity:1;stroke-width:1.04471421"
       id="path942" />
    <path
       d="m 19.665384,15.290997 -1.490459,-4.95891 c -0.06965,-0.208943 -0.08358,-0.29252 -0.08358,-0.376097 0,-0.2646609 0.167154,-0.3343085 0.821842,-0.3760971 V 8.8276987 h -4.123139 v 0.7521942 c 0.543252,0.027859 0.682547,0.1392952 0.89149,0.7382651 l 0.501462,1.574035 -1.114361,3.49631 -1.615825,-4.986768 c -0.08358,-0.236802 -0.111436,-0.376097 -0.111436,-0.4736041 0,-0.2507313 0.167154,-0.320379 0.821842,-0.348238 V 8.8276987 H 9.8450711 v 0.7521942 h 0.027859 c 0.6268289,0 0.8079119,0.1392952 1.0307849,0.8079121 l 2.841622,8.705951 h 1.044714 l 1.838697,-5.669315 1.74119,5.669315 h 1.016855 l 2.423737,-7.647307 c 0.403956,-1.379023 0.668617,-1.6994018 1.504388,-1.8665561 V 8.8276987 h -3.510239 v 0.7521942 c 0.403956,0.013929 0.598969,0.041789 0.780053,0.1253657 0.29252,0.1392952 0.473604,0.4318154 0.473604,0.7661234 0,0.195014 -0.02786,0.348238 -0.181084,0.849701 z"
       style="fill:#ffffff;fill-opacity:1;stroke-width:1.04471421"
       id="path944" />
    <path
       d="m 27.179925,8.8276987 h -3.510239 v 0.7661237 c 0.626828,0.013929 1.128291,0.2785905 1.476529,0.7800536 v 5.488231 c 0,1.225798 -0.06965,1.574036 -0.362168,1.880486 -0.222872,0.236801 -0.543251,0.348238 -1.142221,0.376097 v 0.752194 H 27.61174 V 18.11869 c -0.598969,-0.02786 -0.947207,-0.139296 -1.17008,-0.376097 -0.29252,-0.30645 -0.362167,-0.654688 -0.362167,-1.880486 v -4.582812 l 6.477227,7.703025 h 0.933278 v -7.131915 c 0,-1.239727 0.06965,-1.587966 0.362168,-1.894415 0.222872,-0.2368019 0.612899,-0.3621676 1.17008,-0.3760971 V 8.8276987 h -3.969914 v 0.7521942 c 0.543251,0.013929 0.919348,0.1392952 1.142221,0.3760971 0.29252,0.306449 0.362167,0.668617 0.362167,1.894415 v 3.273437 z"
       style="fill:#ffffff;fill-opacity:1;stroke-width:1.04471421"
       id="path946" />
    <path
       d="m 42.474323,10.83355 c 0,-0.8914895 0,-0.9332781 0.09751,-1.0447143 0.125365,-0.1532247 0.431815,-0.2089428 1.15615,-0.2089428 h 0.208943 V 8.8276987 h -5.418584 v 0.7521942 h 0.208943 c 0.724335,0 1.016855,0.055718 1.142221,0.2089428 0.09751,0.1114362 0.09751,0.1532248 0.09751,1.0447143 v 4.638531 c 0,1.002925 -0.09751,1.532247 -0.376097,1.950133 -0.348238,0.501462 -1.016855,0.821841 -1.74119,0.821841 -0.86363,0 -1.643684,-0.487533 -1.643684,-1.030784 0,-0.153225 0.111437,-0.264661 0.264661,-0.264661 0.04179,0 0.09751,0.01393 0.167155,0.02786 0.125365,0.02786 0.222872,0.04179 0.334308,0.04179 0.738265,0 1.281516,-0.55718 1.281516,-1.309375 0,-0.821841 -0.598969,-1.420811 -1.434741,-1.420811 -1.002925,0 -1.72726,0.863631 -1.72726,2.061569 0,1.699402 1.281516,2.744116 3.370944,2.744116 1.142221,0 2.075499,-0.27859 2.785904,-0.849701 0.87756,-0.696476 1.225798,-1.601895 1.225798,-3.259508 z"
       style="fill:#ffffff;fill-opacity:1;stroke-width:1.04471421"
       id="path948" />
  </g>
</svg>
