<svg xmlns="http://www.w3.org/2000/svg" data-name="Layer 1" viewBox="0 0 36 36"><defs><style/></defs><circle cx="17.91" cy="17.94" r="17.5" fill="#ff0"/><g style="line-height:1.25;-inkscape-font-specification:'Century Schoolbook L, Medium';font-variant-ligatures:normal;font-variant-caps:normal;font-variant-numeric:normal;font-feature-settings:normal;text-align:start"><path d="M5.04 10.578H2.793v1.15c.401.021.723.418.945 1.17v8.235c0 1.838-.044 2.36-.231 2.821-.143.355-.348.522-.732.564v1.128h2.542v-1.128c-.383-.042-.606-.209-.748-.564-.188-.459-.232-.983-.232-2.821v-6.876l4.147 11.557h.597v-10.7c0-1.86.045-2.384.232-2.843.143-.355.392-.543.749-.565v-1.128H7.52v1.128c.347.022.588.21.73.567.188.459.233 1 .233 2.84v4.912zm11.443-.23h-.392l-.527 1.046c-.624-.836-1.061-1.13-1.704-1.13-1.025 0-1.9.857-2.559 2.53-.606 1.504-.883 3.26-.883 5.559 0 4.514 1.267 7.628 3.113 7.628.544 0 1.087-.314 1.497-.857.224-.314.366-.585.625-1.213l.438 2.049h.472v-4.305c0-1.317 0-1.42.062-1.589.08-.208.223-.271.732-.29v-1.13H14.19v1.128h.098c.776 0 .812.062.812 1.589v.29c0 1.966-.526 3.241-1.32 3.241-.544 0-.99-.669-1.213-1.797-.24-1.212-.366-2.905-.366-4.87 0-2.215.18-4.055.51-5.308.258-.982.73-1.568 1.257-1.568 1.051 0 1.828 1.819 2.123 4.995h.472zm6.269.085h-.401l-.464.96c-.5-.795-.981-1.129-1.606-1.129-1.373 0-2.31 1.883-2.31 4.661 0 2.55.803 4.368 2.204 4.976l.552.25c.571.25.75.354.963.627.25.312.393.94.393 1.671 0 1.462-.508 2.445-1.284 2.445-1.008 0-1.891-1.86-2.382-4.995h-.454l.053 5.915h.401l.554-1.234c.543.962 1.114 1.401 1.828 1.401 1.39 0 2.354-2.048 2.354-4.975 0-2.653-.668-4.136-2.211-4.93l-.429-.23c-.686-.314-.686-.314-.91-.503-.4-.333-.605-.94-.605-1.797 0-1.275.499-2.195 1.203-2.195.928 0 1.668 1.526 2.194 4.495h.473zm4.111 5.35h-1.16v-4.14h-.561c-.143 2.676-.625 4.077-1.472 4.307v1.086h.634v4.996c0 1.714.035 2.215.187 2.8.187.731.57 1.148 1.079 1.148.508 0 .91-.395 1.15-1.149.223-.669.357-1.671.357-2.571 0-.103 0-.271-.01-.48h-.472c.009 1.547-.196 2.424-.561 2.424-.26 0-.33-.375-.33-1.797v-5.369h1.159zm6.177 4.263c-.177 1.442-.337 2.235-.579 2.925-.365 1.025-.874 1.568-1.507 1.568h-.187c-.437 0-.553-.041-.66-.292-.116-.251-.143-.481-.143-1.171v-9.488c0-1.317 0-1.401.063-1.568.08-.23.268-.314.74-.314h.196v-1.128h-3.531v1.128h.133c.464 0 .651.084.732.314.062.168.062.251.062 1.568v9.05c0 1.336 0 1.42-.063 1.587-.08.23-.267.314-.731.314h-.133v1.128h5.975l.107-5.62z" style="-inkscape-font-specification:'Century Schoolbook L Bold';font-variant-ligatures:normal;font-variant-caps:normal;font-variant-numeric:normal;font-feature-settings:normal;text-align:start" aria-label="NGStL" font-weight="700" font-size="13.652" font-family="Century Schoolbook L" letter-spacing="0" word-spacing="0" fill="#000016" stroke-width="1.024"/></g></svg>