<?xml version="1.0" encoding="UTF-8" standalone="no"?>
<svg
xmlns:dc="http://purl.org/dc/elements/1.1/"
xmlns:cc="http://creativecommons.org/ns#"
xmlns:rdf="http://www.w3.org/1999/02/22-rdf-syntax-ns#"
xmlns:svg="http://www.w3.org/2000/svg"
xmlns="http://www.w3.org/2000/svg"
xmlns:sodipodi="http://sodipodi.sourceforge.net/DTD/sodipodi-0.dtd"
xmlns:inkscape="http://www.inkscape.org/namespaces/inkscape"
id="Layer_1"
data-name="Layer 1"
viewBox="0 0 36 36"
version="1.1"
sodipodi:docname="NGStL.svg"
inkscape:version="0.92.3 (2405546, 2018-03-11)">
<metadata
id="metadata1593">
<rdf:RDF>
<cc:Work
rdf:about="">
<dc:format>image/svg+xml</dc:format>
<dc:type
rdf:resource="http://purl.org/dc/dcmitype/StillImage" />
<dc:title></dc:title>
</cc:Work>
</rdf:RDF>
</metadata>
<defs
id="defs1582">
<style
id="style1580">.cls-1{fill:#37383a;}.cls-2{fill:#fff;}</style>
</defs>
<circle
class="cls-1"
cx="17.91"
cy="17.94"
r="17.5"
id="circle1584"
style="fill:#ffff00;fill-opacity:1" />
<g
aria-label="NGStL"
transform="scale(0.65324312,1.5308236)"
style="font-style:normal;font-variant:normal;font-weight:500;font-stretch:normal;font-size:13.652215px;line-height:1.25;font-family:'Century Schoolbook L';-inkscape-font-specification:'Century Schoolbook L, Medium';font-variant-ligatures:normal;font-variant-caps:normal;font-variant-numeric:normal;font-feature-settings:normal;text-align:start;letter-spacing:0px;word-spacing:0px;writing-mode:lr-tb;text-anchor:start;fill:#000016;fill-opacity:1;stroke:none;stroke-width:1.02393568"
id="text914">
<path
d="M 7.7162265,6.9102345 H 4.2758683 v 0.7508718 c 0.6143497,0.013652 1.1058295,0.2730443 1.4471348,0.764524 v 5.3789727 c 0,1.201395 -0.068261,1.5427 -0.3549576,1.843049 -0.2184354,0.232088 -0.5324363,0.341305 -1.1194816,0.36861 v 0.737219 H 8.1394452 V 16.016262 C 7.5524,15.988957 7.2110946,15.87974 6.9926591,15.647652 6.7059626,15.347303 6.6377015,15.005998 6.6377015,13.804603 V 9.3130243 L 12.985982,16.862699 H 13.90068 V 9.8727651 c 0,-1.2150471 0.06826,-1.5563525 0.354958,-1.8567012 0.218435,-0.2320877 0.600697,-0.3549576 1.146786,-0.3686098 V 6.9102345 h -3.890882 v 0.7372196 c 0.532437,0.013652 0.901046,0.1365221 1.119482,0.3686098 0.286696,0.3003487 0.354958,0.6553063 0.354958,1.8567012 v 3.2082709 z"
style="font-style:normal;font-variant:normal;font-weight:bold;font-stretch:normal;font-size:13.652215px;font-family:'Century Schoolbook L';-inkscape-font-specification:'Century Schoolbook L Bold';font-variant-ligatures:normal;font-variant-caps:normal;font-variant-numeric:normal;font-feature-settings:normal;text-align:start;writing-mode:lr-tb;text-anchor:start;fill:#000016;fill-opacity:1;stroke-width:1.02393568"
id="path1030" />
<path
d="m 25.231805,6.7600601 h -0.600698 l -0.80548,0.6826108 C 22.869971,6.8965823 22.201013,6.7054513 21.218053,6.7054513 c -1.570004,0 -2.907921,0.5597408 -3.918185,1.651918 -0.928351,0.9829595 -1.35157,2.1297457 -1.35157,3.6314887 0,2.948879 1.938615,4.983059 4.764624,4.983059 0.832785,0 1.66557,-0.204783 2.293572,-0.559741 0.341305,-0.204783 0.55974,-0.382262 0.955655,-0.791828 l 0.668958,1.337917 h 0.723568 v -2.812357 c 0,-0.860089 0,-0.92835 0.09557,-1.037568 0.12287,-0.136522 0.341305,-0.177479 1.119482,-0.191131 v -0.73722 h -4.846537 v 0.73722 h 0.150175 c 1.187742,0 1.242351,0.04096 1.242351,1.037568 v 0.191131 c 0,1.283309 -0.80548,2.116094 -2.020527,2.116094 -0.832786,0 -1.515396,-0.436871 -1.856702,-1.174091 -0.36861,-0.791828 -0.559741,-1.897658 -0.559741,-3.180966 0,-1.447135 0.273045,-2.6485295 0.778177,-3.4676624 0.395914,-0.6416541 1.119481,-1.0239162 1.924962,-1.0239162 1.610961,0 2.798704,1.1877427 3.249227,3.2628796 h 0.723568 z"
style="font-style:normal;font-variant:normal;font-weight:bold;font-stretch:normal;font-size:13.652215px;font-family:'Century Schoolbook L';-inkscape-font-specification:'Century Schoolbook L Bold';font-variant-ligatures:normal;font-variant-caps:normal;font-variant-numeric:normal;font-feature-settings:normal;text-align:start;writing-mode:lr-tb;text-anchor:start;fill:#000016;fill-opacity:1;stroke-width:1.02393568"
id="path1032" />
<path
d="m 34.829098,6.814669 h -0.61435 L 33.504833,7.4426709 C 32.740309,6.9238867 32.00309,6.7054513 31.047435,6.7054513 c -2.102442,0 -3.535924,1.2286993 -3.535924,3.0444439 0,1.6655698 1.228699,2.8533128 3.372097,3.2492268 l 0.846437,0.163827 c 0.873742,0.163827 1.146786,0.232088 1.47444,0.409566 0.382262,0.204784 0.600697,0.61435 0.600697,1.092178 0,0.955655 -0.778176,1.597309 -1.965919,1.597309 -1.5427,0 -2.89427,-1.215047 -3.645141,-3.26288 h -0.696263 l 0.08191,3.863577 h 0.61435 l 0.846437,-0.80548 c 0.832785,0.628001 1.706527,0.914698 2.798704,0.914698 2.129746,0 3.604185,-1.337917 3.604185,-3.249227 0,-1.733832 -1.023916,-2.703139 -3.38575,-3.221923 l -0.655306,-0.150174 c -1.05122,-0.204784 -1.05122,-0.204784 -1.392526,-0.327653 -0.614349,-0.2184359 -0.92835,-0.6143502 -0.92835,-1.174091 0,-0.8327851 0.764524,-1.4334826 1.843049,-1.4334826 1.41983,0 2.552964,0.9966117 3.358445,2.9352266 h 0.723567 z"
style="font-style:normal;font-variant:normal;font-weight:bold;font-stretch:normal;font-size:13.652215px;font-family:'Century Schoolbook L';-inkscape-font-specification:'Century Schoolbook L Bold';font-variant-ligatures:normal;font-variant-caps:normal;font-variant-numeric:normal;font-feature-settings:normal;text-align:start;writing-mode:lr-tb;text-anchor:start;fill:#000016;fill-opacity:1;stroke-width:1.02393568"
id="path1034" />
<path
d="M 41.122343,10.309636 H 39.347555 V 7.6064974 h -0.86009 C 38.26903,9.353981 37.53181,10.268679 36.23485,10.418854 v 0.709915 h 0.969307 v 3.262879 c 0,1.119482 0.05461,1.447135 0.286697,1.829397 0.286696,0.477828 0.873741,0.750872 1.651918,0.750872 0.778176,0 1.392526,-0.259392 1.761135,-0.750872 0.341306,-0.436871 0.546089,-1.092177 0.546089,-1.679222 0,-0.06826 0,-0.177479 -0.01365,-0.314001 h -0.723568 c 0.01365,1.010264 -0.300348,1.583657 -0.860089,1.583657 -0.395914,0 -0.505132,-0.24574 -0.505132,-1.174091 v -3.508619 h 1.774788 z"
style="font-style:normal;font-variant:normal;font-weight:bold;font-stretch:normal;font-size:13.652215px;font-family:'Century Schoolbook L';-inkscape-font-specification:'Century Schoolbook L Bold';font-variant-ligatures:normal;font-variant-caps:normal;font-variant-numeric:normal;font-feature-settings:normal;text-align:start;writing-mode:lr-tb;text-anchor:start;fill:#000016;fill-opacity:1;stroke-width:1.02393568"
id="path1036" />
<path
d="m 50.580343,13.094688 c -0.273045,0.942003 -0.518784,1.460787 -0.887394,1.91131 -0.559741,0.668959 -1.337917,1.023916 -2.307225,1.023916 h -0.286696 c -0.668959,0 -0.846437,-0.0273 -1.010264,-0.191131 -0.177479,-0.163826 -0.218435,-0.314001 -0.218435,-0.764524 V 8.8761534 c 0,-0.8600895 0,-0.9146984 0.09557,-1.0239161 0.12287,-0.1501743 0.409567,-0.2047832 1.133134,-0.2047832 h 0.300349 V 6.9102345 H 41.9931 v 0.7372196 h 0.204783 c 0.709915,0 0.996611,0.054609 1.119481,0.2047832 0.09557,0.1092177 0.09557,0.1638266 0.09557,1.0239161 v 5.9114096 c 0,0.873741 0,0.92835 -0.09557,1.037568 -0.12287,0.150174 -0.409566,0.204783 -1.119481,0.204783 H 41.9931 v 0.73722 h 9.146984 l 0.163826,-3.672446 z"
style="font-style:normal;font-variant:normal;font-weight:bold;font-stretch:normal;font-size:13.652215px;font-family:'Century Schoolbook L';-inkscape-font-specification:'Century Schoolbook L Bold';font-variant-ligatures:normal;font-variant-caps:normal;font-variant-numeric:normal;font-feature-settings:normal;text-align:start;writing-mode:lr-tb;text-anchor:start;fill:#000016;fill-opacity:1;stroke-width:1.02393568"
id="path1038" />
</g>
</svg>
