<?xml version="1.0" encoding="UTF-8"?>
<svg data-name="Layer 1" version="1.1" viewBox="0 0 36 36" xmlns="http://www.w3.org/2000/svg" xmlns:cc="http://creativecommons.org/ns#" xmlns:dc="http://purl.org/dc/elements/1.1/" xmlns:rdf="http://www.w3.org/1999/02/22-rdf-syntax-ns#">
<metadata>
<rdf:RDF>
<cc:Work rdf:about="">
<dc:format>image/svg+xml</dc:format>
<dc:type rdf:resource="http://purl.org/dc/dcmitype/StillImage"/>
<dc:title/>
</cc:Work>
</rdf:RDF>
</metadata>
<defs>
<style>.cls-1{fill:#37383a;}.cls-2{fill:#fff;}</style>
</defs>
<circle class="cls-1" cx="17.91" cy="17.94" r="17.5" fill="#ff0"/>
<g transform="scale(.65324 1.5308)" fill="#000016" stroke-width="1.0239" style="font-feature-settings:normal;font-variant-caps:normal;font-variant-ligatures:normal;font-variant-numeric:normal" aria-label="NGStL">
<path d="m7.7162 6.9102h-3.4404v0.75087c0.61435 0.013652 1.1058 0.27304 1.4471 0.76452v5.379c0 1.2014-0.068261 1.5427-0.35496 1.843-0.21844 0.23209-0.53244 0.3413-1.1195 0.36861v0.73722h3.8909v-0.73722c-0.58705-0.027305-0.92835-0.13652-1.1468-0.36861-0.2867-0.30035-0.35496-0.64165-0.35496-1.843v-4.4916l6.3483 7.5497h0.9147v-6.9899c0-1.215 0.06826-1.5564 0.35496-1.8567 0.21844-0.23209 0.6007-0.35496 1.1468-0.36861v-0.73722h-3.8909v0.73722c0.53244 0.013652 0.90105 0.13652 1.1195 0.36861 0.2867 0.30035 0.35496 0.65531 0.35496 1.8567v3.2083z" style="font-feature-settings:normal;font-variant-caps:normal;font-variant-ligatures:normal;font-variant-numeric:normal"/>
<path d="m25.232 6.7601h-0.6007l-0.80548 0.68261c-0.95566-0.54609-1.6246-0.73722-2.6076-0.73722-1.57 0-2.9079 0.55974-3.9182 1.6519-0.92835 0.98296-1.3516 2.1297-1.3516 3.6315 0 2.9489 1.9386 4.9831 4.7646 4.9831 0.83278 0 1.6656-0.20478 2.2936-0.55974 0.3413-0.20478 0.55974-0.38226 0.95566-0.79183l0.66896 1.3379h0.72357v-2.8124c0-0.86009 0-0.92835 0.09557-1.0376 0.12287-0.13652 0.3413-0.17748 1.1195-0.19113v-0.73722h-4.8465v0.73722h0.15018c1.1877 0 1.2424 0.04096 1.2424 1.0376v0.19113c0 1.2833-0.80548 2.1161-2.0205 2.1161-0.83279 0-1.5154-0.43687-1.8567-1.1741-0.36861-0.79183-0.55974-1.8977-0.55974-3.181 0-1.4471 0.27304-2.6485 0.77818-3.4677 0.39591-0.64165 1.1195-1.0239 1.925-1.0239 1.611 0 2.7987 1.1877 3.2492 3.2629h0.72357z" style="font-feature-settings:normal;font-variant-caps:normal;font-variant-ligatures:normal;font-variant-numeric:normal"/>
<path d="m34.829 6.8147h-0.61435l-0.70992 0.628c-0.76452-0.51878-1.5017-0.73722-2.4574-0.73722-2.1024 0-3.5359 1.2287-3.5359 3.0444 0 1.6656 1.2287 2.8533 3.3721 3.2492l0.84644 0.16383c0.87374 0.16383 1.1468 0.23209 1.4744 0.40957 0.38226 0.20478 0.6007 0.61435 0.6007 1.0922 0 0.95566-0.77818 1.5973-1.9659 1.5973-1.5427 0-2.8943-1.215-3.6451-3.2629h-0.69626l0.08191 3.8636h0.61435l0.84644-0.80548c0.83278 0.628 1.7065 0.9147 2.7987 0.9147 2.1297 0 3.6042-1.3379 3.6042-3.2492 0-1.7338-1.0239-2.7031-3.3858-3.2219l-0.65531-0.15017c-1.0512-0.20478-1.0512-0.20478-1.3925-0.32765-0.61435-0.21844-0.92835-0.61435-0.92835-1.1741 0-0.83279 0.76452-1.4335 1.843-1.4335 1.4198 0 2.553 0.99661 3.3584 2.9352h0.72357z" style="font-feature-settings:normal;font-variant-caps:normal;font-variant-ligatures:normal;font-variant-numeric:normal"/>
<path d="m41.122 10.31h-1.7748v-2.7031h-0.86009c-0.21844 1.7475-0.95566 2.6622-2.2526 2.8124v0.70992h0.96931v3.2629c0 1.1195 0.05461 1.4471 0.2867 1.8294 0.2867 0.47783 0.87374 0.75087 1.6519 0.75087 0.77818 0 1.3925-0.25939 1.7611-0.75087 0.34131-0.43687 0.54609-1.0922 0.54609-1.6792 0-0.06826 0-0.17748-0.01365-0.314h-0.72357c0.01365 1.0103-0.30035 1.5837-0.86009 1.5837-0.39591 0-0.50513-0.24574-0.50513-1.1741v-3.5086h1.7748z" style="font-feature-settings:normal;font-variant-caps:normal;font-variant-ligatures:normal;font-variant-numeric:normal"/>
<path d="m50.58 13.095c-0.27304 0.942-0.51878 1.4608-0.88739 1.9113-0.55974 0.66896-1.3379 1.0239-2.3072 1.0239h-0.2867c-0.66896 0-0.84644-0.0273-1.0103-0.19113-0.17748-0.16383-0.21844-0.314-0.21844-0.76452v-6.1981c0-0.86009 0-0.9147 0.09557-1.0239 0.12287-0.15017 0.40957-0.20478 1.1331-0.20478h0.30035v-0.73722h-5.4063v0.73722h0.20478c0.70992 0 0.99661 0.054609 1.1195 0.20478 0.09557 0.10922 0.09557 0.16383 0.09557 1.0239v5.9114c0 0.87374 0 0.92835-0.09557 1.0376-0.12287 0.15017-0.40957 0.20478-1.1195 0.20478h-0.20478v0.73722h9.147l0.16383-3.6724z" style="font-feature-settings:normal;font-variant-caps:normal;font-variant-ligatures:normal;font-variant-numeric:normal"/>
</g>
</svg>
