<svg xmlns="http://www.w3.org/2000/svg" data-name="Layer 1" viewBox="0 0 36 36"><defs><style/></defs><circle cx="17.91" cy="17.94" r="17.5" fill="#00008b"/><g style="line-height:1.25;-inkscape-font-specification:'Century Schoolbook L, Medium';font-variant-ligatures:normal;font-variant-caps:normal;font-variant-numeric:normal;font-feature-settings:normal;text-align:start"><path d="M10.825 10.788h-.593l-.687.94c-.74-.777-1.453-1.104-2.377-1.104-2.034 0-3.421 1.838-3.421 4.552 0 2.49 1.189 4.266 3.262 4.858l.818.245c.846.245 1.11.348 1.427.612.37.307.581.92.581 1.633 0 1.43-.753 2.387-1.901 2.387-1.493 0-2.8-1.815-3.527-4.877h-.673l.079 5.776h.595l.818-1.203c.806.938 1.65 1.367 2.708 1.367 2.06 0 3.486-2.001 3.486-4.858 0-2.592-.99-4.04-3.276-4.818l-.634-.223c-1.016-.306-1.016-.306-1.346-.49-.594-.327-.899-.919-.899-1.756 0-1.245.74-2.143 1.784-2.143 1.373 0 2.47 1.49 3.249 4.389h.7zm11.583 6.552h-3.606v1.102c.832.02 1.176.307 1.176 1 0 .572-.185 1.184-.634 2.02-.318-.53-1.176-2.53-1.85-4.306.806-.51 1.136-.795 1.559-1.305.475-.593.752-1.43.752-2.308 0-1.735-.963-2.919-2.403-2.919-.858 0-1.558.368-2.074 1.082a2.463 3.807 0 00-.778 2.715c0 .98.132 1.716.514 2.939-.502.348-.765.55-1.096.858-1.017.938-1.57 2.265-1.57 3.795 0 1.001.25 1.94.712 2.696.515.836 1.333 1.285 2.324 1.285 1.057 0 1.955-.449 2.787-1.367.58.897 1.268 1.347 2.086 1.347.925 0 1.533-.53 2.034-1.817.225-.592.343-1.123.396-1.878l-.66-.223c-.158 1.121-.463 1.713-.911 1.713-.475 0-.898-.428-1.347-1.347.37-.775.475-1.061.832-2.06.515-1.552.819-1.878 1.757-1.92zm-7.027 1.04a31.913 31.913 0 002.311 5.47c-.317.349-.541.45-.87.45-.793 0-1.427-.714-1.877-2.123a5.884 5.884 0 01-.303-1.776c0-.878.251-1.55.74-2.02zm1.743-2.184c-.527-1.408-.726-2.204-.726-2.98 0-.857.397-1.53.925-1.53.594 0 1.03.837 1.03 1.96 0 1.04-.357 1.898-1.017 2.407-.066.041-.093.063-.212.143zm15.222-5.49h-.568l-.713 1c-.872-.816-1.48-1.082-2.417-1.082-2.905 0-4.992 3.287-4.992 7.859 0 2.123.41 3.796 1.255 5.246.911 1.55 2.033 2.245 3.58 2.245 2.336 0 3.683-1.755 4.185-5.409l-.819-.306c-.357 2.837-1.413 4.45-2.931 4.45-1.797 0-2.642-2.103-2.642-6.593 0-4.226.845-6.43 2.47-6.43 1.466 0 2.43 1.571 3.024 4.98l.7-.123z" style="-inkscape-font-specification:'Century Schoolbook L Bold';font-variant-ligatures:normal;font-variant-caps:normal;font-variant-numeric:normal;font-feature-settings:normal;text-align:start" aria-label="S&amp;C" font-weight="700" font-size="16.418" font-family="Century Schoolbook L" letter-spacing="0" word-spacing="0" fill="#fff" stroke-width="1.261"/></g></svg>