<?xml version="1.0" encoding="UTF-8"?>
<svg data-name="Layer 1" version="1.1" viewBox="0 0 36 36" xmlns="http://www.w3.org/2000/svg" xmlns:cc="http://creativecommons.org/ns#" xmlns:dc="http://purl.org/dc/elements/1.1/" xmlns:rdf="http://www.w3.org/1999/02/22-rdf-syntax-ns#">
<metadata>
<rdf:RDF>
<cc:Work rdf:about="">
<dc:format>image/svg+xml</dc:format>
<dc:type rdf:resource="http://purl.org/dc/dcmitype/StillImage"/>
<dc:title/>
</cc:Work>
</rdf:RDF>
</metadata>
<defs>
<style>.cls-1{fill:#37383a;}.cls-2{fill:#fff;}</style>
</defs>
<circle class="cls-1" cx="17.91" cy="17.94" r="17.5" fill="#00008b"/>
<g transform="scale(.80438 1.2432)" fill="#fff" stroke-width="1.2608" style="font-feature-settings:normal;font-variant-caps:normal;font-variant-ligatures:normal;font-variant-numeric:normal" aria-label="S&amp;C">
<path d="m13.458 8.6775h-0.73881l-0.85374 0.75523c-0.91941-0.62389-1.806-0.88658-2.9553-0.88658-2.5284 0-4.2523 1.4776-4.2523 3.6612 0 2.003 1.4776 3.4314 4.0553 3.9075l1.0179 0.19702c1.0508 0.19702 1.3791 0.27911 1.7732 0.49254 0.45971 0.24627 0.7224 0.73881 0.7224 1.3134 0 1.1493-0.93583 1.9209-2.3642 1.9209-1.8552 0-3.4806-1.4612-4.3836-3.9239h-0.83732l0.098509 4.6463h0.73881l1.0179-0.96867c1.0015 0.75523 2.0523 1.1 3.3657 1.1 2.5612 0 4.3344-1.609 4.3344-3.9075 0-2.0851-1.2314-3.2508-4.0717-3.8747l-0.78807-0.1806c-1.2642-0.24627-1.2642-0.24627-1.6746-0.39403-0.73881-0.26269-1.1164-0.73881-1.1164-1.412 0-1.0015 0.91941-1.7239 2.2164-1.7239 1.7075 0 3.0702 1.1985 4.0389 3.5299h0.87016z" style="font-feature-settings:normal;font-variant-caps:normal;font-variant-ligatures:normal;font-variant-numeric:normal"/>
<path d="m27.857 13.948h-4.4821v0.88658c1.0343 0.01642 1.4612 0.24627 1.4612 0.80449 0 0.45971-0.22985 0.95225-0.78807 1.6254-0.39403-0.42687-1.4612-2.0358-2.2985-3.4642 1.0015-0.41045 1.412-0.6403 1.9373-1.0508 0.59105-0.47612 0.93583-1.1493 0.93583-1.8552 0-1.3955-1.1985-2.3478-2.9881-2.3478-1.0672 0-1.9373 0.29553-2.5776 0.87016-0.59105 0.5418-0.96867 1.3791-0.96867 2.1836 0 0.78807 0.16418 1.3791 0.64031 2.3642-0.62389 0.27911-0.95225 0.44329-1.3627 0.68956-1.2642 0.75523-1.9538 1.8224-1.9538 3.0538 0 0.80449 0.31194 1.5597 0.88658 2.1672 0.64031 0.67314 1.6582 1.0343 2.8896 1.0343 1.3134 0 2.4299-0.3612 3.4642-1.1 0.7224 0.7224 1.5761 1.0836 2.5941 1.0836 1.1493 0 1.9045-0.42687 2.5284-1.4612 0.27911-0.47612 0.42687-0.903 0.49254-1.5105l-0.8209-0.1806c-0.19702 0.903-0.57463 1.3791-1.1328 1.3791-0.59105 0-1.1164-0.34478-1.6746-1.0836 0.45971-0.62389 0.59105-0.85374 1.0343-1.6582 0.64031-1.2478 1.0179-1.5105 2.1836-1.5433zm-8.7344 0.83732c0.70598 1.4612 1.6582 2.9224 2.8732 4.4-0.39403 0.27911-0.67314 0.3612-1.0836 0.3612-0.98509 0-1.7732-0.57463-2.3314-1.7075-0.24627-0.49254-0.37762-0.98509-0.37762-1.4284 0-0.70598 0.31194-1.2478 0.91941-1.6254zm2.1672-1.7567c-0.65672-1.1328-0.903-1.7732-0.903-2.397 0-0.68956 0.49254-1.2314 1.1493-1.2314 0.73882 0 1.2806 0.67314 1.2806 1.5761 0 0.83732-0.44329 1.5269-1.2642 1.9373-0.08209 0.03284-0.11493 0.04926-0.26269 0.11493z" style="font-feature-settings:normal;font-variant-caps:normal;font-variant-ligatures:normal;font-variant-numeric:normal"/>
<path d="m40.212 8.6119h-0.70598l-0.88658 0.80449c-1.0836-0.65672-1.8388-0.87016-3.0045-0.87016-3.612 0-6.206 2.6433-6.206 6.321 0 1.7075 0.50896 3.0538 1.5597 4.2194 1.1328 1.2478 2.5284 1.806 4.4493 1.806 2.906 0 4.5806-1.412 5.2045-4.3508l-1.0179-0.24627c-0.44329 2.2821-1.7567 3.5791-3.6448 3.5791-2.2329 0-3.2836-1.6911-3.2836-5.303 0-3.3985 1.0508-5.1717 3.0702-5.1717 1.8224 0 3.0209 1.2642 3.7597 4.006l0.87016-0.09851z" style="font-feature-settings:normal;font-variant-caps:normal;font-variant-ligatures:normal;font-variant-numeric:normal"/>
</g>
</svg>
