<?xml version="1.0" encoding="UTF-8"?>
<svg data-name="Layer 1" version="1.1" viewBox="0 0 36 36" xmlns="http://www.w3.org/2000/svg" xmlns:cc="http://creativecommons.org/ns#" xmlns:dc="http://purl.org/dc/elements/1.1/" xmlns:rdf="http://www.w3.org/1999/02/22-rdf-syntax-ns#">
<metadata>
<rdf:RDF>
<cc:Work rdf:about="">
<dc:format>image/svg+xml</dc:format>
<dc:type rdf:resource="http://purl.org/dc/dcmitype/StillImage"/>
<dc:title/>
</cc:Work>
</rdf:RDF>
</metadata>
<defs>
<style>.cls-1{fill:#37383a;}.cls-2{fill:#fff;}</style>
</defs>
<circle class="cls-1" cx="17.91" cy="17.94" r="17.5" fill="#9acd32"/>
<g transform="scale(.71344 1.4017)" stroke-width="1.1183" style="font-feature-settings:normal;font-variant-caps:normal;font-variant-ligatures:normal;font-variant-numeric:normal" aria-label="VYSC">
<path d="m10.465 15.312-2.3153-5.883c-0.087372-0.23299-0.13106-0.39317-0.13106-0.48054 0-0.26211 0.26211-0.36405 0.90284-0.36405h0.3058v-0.78634h-5.2714v0.78634c0.85915 0 1.0921 0.16018 1.4271 1.0048l3.5385 8.941h1.2814l3.3347-8.0964c0.46598-1.165 1.1213-1.762 2.0095-1.8494v-0.78634h-4.2958v0.78634c0.46598 0 0.69897 0.043686 0.90284 0.16018 0.32036 0.16018 0.50967 0.48054 0.50967 0.83003 0 0.16018-0.04368 0.33492-0.13106 0.55335z" style="font-feature-settings:normal;font-variant-caps:normal;font-variant-ligatures:normal;font-variant-numeric:normal"/>
<path d="m21.398 12.546-1.9222-3.1891c-0.14562-0.23299-0.17474-0.32036-0.17474-0.45142 0-0.21843 0.26212-0.32036 0.81547-0.32036h0.23299v-0.78634h-5.2423v0.78634c0.65529 0 0.87372 0.10193 1.1504 0.52423l2.9706 4.7617v2.3445c0 0.90284 0 0.97565-0.10193 1.0921-0.13106 0.16018-0.43686 0.21843-1.2086 0.21843h-0.32036v0.78634h5.883v-0.78634h-0.32036c-0.77178 0-1.0776-0.05825-1.2086-0.21843-0.10193-0.1165-0.10193-0.17474-0.10193-1.0921v-2.5338l2.1843-3.7424c0.55335-0.90284 1.1358-1.296 1.9513-1.3543v-0.78634h-4.2958v0.78634h0.3058c0.64072 0 1.063 0.27668 1.063 0.69897 0 0.17474-0.08737 0.43686-0.20387 0.66985z" style="font-feature-settings:normal;font-variant-caps:normal;font-variant-ligatures:normal;font-variant-numeric:normal"/>
<path d="m34.368 7.6965h-0.65529l-0.75722 0.66985c-0.81547-0.55335-1.6018-0.78634-2.6211-0.78634-2.2425 0-3.7715 1.3106-3.7715 3.2473 0 1.7766 1.3106 3.0434 3.5968 3.4657l0.90284 0.17474c0.93196 0.17474 1.2232 0.24755 1.5727 0.43686 0.40773 0.21843 0.64072 0.65529 0.64072 1.165 0 1.0193-0.83003 1.7037-2.0969 1.7037-1.6455 0-3.0871-1.296-3.888-3.4803h-0.74266l0.08737 4.121h0.65529l0.90284-0.85915c0.88828 0.66985 1.8202 0.97565 2.9852 0.97565 2.2717 0 3.8443-1.4271 3.8443-3.4657 0-1.8494-1.0921-2.8833-3.6114-3.4366l-0.69897-0.16018c-1.1213-0.21843-1.1213-0.21843-1.4853-0.34949-0.65529-0.23299-0.99021-0.65529-0.99021-1.2523 0-0.88828 0.81547-1.529 1.9659-1.529 1.5144 0 2.7231 1.063 3.5822 3.1308h0.77178z" style="font-feature-settings:normal;font-variant-caps:normal;font-variant-ligatures:normal;font-variant-numeric:normal"/>
<path d="m45.696 7.6382h-0.62616l-0.78634 0.71353c-0.96109-0.58248-1.6309-0.77178-2.6648-0.77178-3.2036 0-5.5044 2.3445-5.5044 5.6063 0 1.5144 0.45142 2.7085 1.3834 3.7424 1.0048 1.1067 2.2425 1.6018 3.9463 1.6018 2.5775 0 4.0628-1.2523 4.6161-3.8589l-0.90284-0.21843c-0.39317 2.0241-1.5581 3.1745-3.2327 3.1745-1.9804 0-2.9124-1.4999-2.9124-4.7035 0-3.0143 0.93196-4.587 2.7231-4.587 1.6164 0 2.6794 1.1213 3.3347 3.5531l0.77178-0.08737z" style="font-feature-settings:normal;font-variant-caps:normal;font-variant-ligatures:normal;font-variant-numeric:normal"/>
</g>
</svg>
