<svg xmlns="http://www.w3.org/2000/svg" data-name="Layer 1" viewBox="0 0 36 36"><defs><style/></defs><circle cx="17.91" cy="17.94" r="17.5" fill="#9acd32"/><g aria-label="VYSC" style="line-height:1.25;-inkscape-font-specification:'Century Schoolbook L, Medium';font-variant-ligatures:normal;font-variant-caps:normal;font-variant-numeric:normal;font-feature-settings:normal;text-align:start" font-weight="700" font-size="14.562" font-family="Century Schoolbook L" letter-spacing="0" word-spacing="0" stroke-width="1.118"><path d="M7.466 21.462l-1.651-8.244a4.342 4.342 0 01-.093-.673c0-.367.186-.51.643-.51h.219v-1.103H2.822v1.103c.614 0 .78.224 1.018 1.408l2.525 12.531h.914l2.38-11.348c.332-1.633.8-2.47 1.434-2.593v-1.101H8.028v1.103c.332 0 .498.06.644.224.228.224.364.673.364 1.163 0 .225-.032.47-.094.776z" style="-inkscape-font-specification:'Century Schoolbook L Bold';font-variant-ligatures:normal;font-variant-caps:normal;font-variant-numeric:normal;font-feature-settings:normal;text-align:start"/><path d="M15.266 17.585l-1.371-4.471c-.104-.325-.125-.449-.125-.63 0-.31.187-.45.582-.45h.167V10.93h-3.741v1.103c.468 0 .623.143.82.735l2.12 6.675v3.285c0 1.266 0 1.368-.073 1.53-.092.225-.31.308-.862.308h-.228v1.101h4.197v-1.101h-.229c-.55 0-.769-.082-.862-.307-.073-.163-.073-.244-.073-1.53v-3.553l1.559-5.245c.394-1.266.81-1.816 1.392-1.898V10.93h-3.064v1.103h.218c.456 0 .758.387.758.98 0 .244-.062.613-.145.94zm9.254-6.798h-.469l-.54.94c-.581-.776-1.143-1.102-1.869-1.102-1.6 0-2.69 1.836-2.69 4.55 0 2.492.934 4.268 2.565 4.86l.644.244c.665.246.872.347 1.122.613.291.305.457.918.457 1.633 0 1.428-.592 2.387-1.496 2.387-1.174 0-2.202-1.817-2.774-4.878h-.53l.062 5.776h.468l.644-1.205c.634.939 1.298 1.37 2.13 1.37 1.62 0 2.743-2.002 2.743-4.859 0-2.593-.78-4.04-2.576-4.817l-.5-.225c-.799-.305-.799-.305-1.06-.49-.467-.325-.706-.918-.706-1.755 0-1.245.583-2.143 1.403-2.143 1.08 0 1.943 1.49 2.556 4.388h.55zm8.081-.081h-.446l-.561 1c-.686-.816-1.164-1.081-1.901-1.081-2.286 0-3.927 3.285-3.927 7.857 0 2.124.322 3.798.987 5.247.717 1.55 1.6 2.245 2.815 2.245 1.84 0 2.899-1.756 3.293-5.41l-.643-.306c-.282 2.837-1.112 4.45-2.307 4.45-1.413 0-2.078-2.102-2.078-6.593 0-4.224.665-6.43 1.943-6.43 1.153 0 1.911 1.572 2.379 4.98l.55-.121z" style="-inkscape-font-specification:'Century Schoolbook L Bold';font-variant-ligatures:normal;font-variant-caps:normal;font-variant-numeric:normal;font-feature-settings:normal;text-align:start"/></g></svg>