<svg xmlns="http://www.w3.org/2000/svg" viewBox="0 0 612 792">
    <path d="M583.91566 293.470146c1.193262 2.984074 3.844954 6.357375 3.314616 9.081965-8.88317 37.625281-18.296678 75.12082-27.577601 112.746102-10.474185 42.425748-20.94837 84.98124-31.55514 127.406988-.795507 3.243558-1.856184 6.487117-3.18203 11.157842-27.84277-21.53723-55.95071-38.792963-93.074404-24.78079-37.388863 14.141917-45.211355 45.020596-49.719232 79.272577h-149.82062c-2.121355-9.990161-4.242709-20.110065-6.496647-30.229968-6.231477-27.375636-29.433786-47.874927-57.67431-52.934879-26.38434-4.800467-47.465294 5.578921-67.352987 20.36955-3.579785 2.724589-7.15957 5.449178-11.667447 8.952221-6.8944-27.63512-13.656215-54.491787-20.418031-81.348453-11.004523-44.371884-22.009047-88.614025-33.01357-132.985909-2.916862-11.676811-5.966308-23.353623-8.618-35.030434-.795508-3.503044-2.121355-8.044026 3.579784-9.600934 1.325846.129742 2.651692.259484 3.977539.259484h538.823895c3.579785-.259484 7.026985-1.68665 10.474185-2.335362zM378.542084 530.249935c-.397754-1.297424-.795508-2.465105-1.193262-3.762528-3.314615-1.037939-6.761815-2.72459-10.209015-2.984074-26.251755-1.556909-52.636095-3.632786-78.88785-3.762528-14.982061 0-29.964123 3.113816-44.8136 5.57892-2.784278.389228-5.038216 3.892271-7.42474 6.097891 2.916862 1.167681 5.833724 3.373301 8.88317 3.373301 40.040555.259485 80.213695.259485 120.25425 0 4.507877 0 8.88317-2.984074 13.391047-4.540982zm-120.121666 48.783123c20.020278 10.50913 85.119326 8.562996 97.317111-2.465104-20.020277-12.325523-83.79348-11.0281-97.31711 2.465105zM30.90521 291.653753c-7.955077-5.319436-5.1708-14.141916-3.049446-19.201868 1.98877-4.670724 10.871939-9.860418 16.175324-9.341449 14.05397 1.167681 18.827016-7.135829 23.865231-16.736763 3.4472-6.487117 7.955077-12.585008 10.474185-19.33161 3.977539-11.157842 12.462955-12.585008 22.804555-13.622947 6.364062-.51897 14.716893-2.20562 18.164093-6.357375 9.015754-10.898357 20.815785-11.806554 33.27874-12.71475 4.640461-.259485 9.280923 0 14.584308 0 8.485415-30.619195 34.339416-41.777037 61.12151-51.767198 1.591015-.51897 4.110123-.389227 5.435969.51897 6.098892 4.151755 12.0652 8.692737 16.440493 11.936296 4.507877-1.427166 7.822492-3.243559 11.137108-3.373301 18.164093-.259485 36.46077-.129743 54.624863-.129743 19.22477 0 29.83154 7.265572 37.123694 25.040274.530338 1.427166 1.325846 2.854332 1.98877 4.41124 7.689907 16.217793 10.739353 18.293671 28.373108 15.179855 30.361878-5.449179 57.276556 3.113816 82.467634 18.553156 6.62923 4.022013 13.258462 8.562995 18.429262 14.141916 11.534862 12.585008 26.914678 14.92037 42.559663 15.958309 10.474185.648712 19.357354 2.465105 27.179847 10.50913 3.71237 3.89227 10.474185 5.968148 16.175323 7.13583 16.573078 3.243558 22.93714 14.531143 13.7888 25.688985-4.64046-.129743-9.280922-.259485-13.921384-.259485H233.096756c-63.242864 0-126.618312-.129742-189.861176.129742-4.110123 0-8.220246 2.335363-12.33037 3.632786zm116.144127-49.302093c-.662923.778454-1.45843 1.427166-2.121354 2.20562-5.435969-3.89227-10.871938-7.654798-16.175323-11.806554-7.15957-5.708663-30.494463-7.78454-35.26751-1.427165-6.761815 8.82248-11.534861 19.072125-18.164092 30.489452 6.364062.389227 10.209016.778454 13.921385.778454h377.733582c9.678678 0 18.561847-2.075878 27.445017-8.173768-10.871939-7.13583-20.6832-13.493205-29.56637-19.33161-9.546093 4.022013-6.8944 18.163929-20.152863 19.33161 3.314616-12.066039 6.098893-22.57517 9.14834-33.733011-7.822493-2.594847-16.175325-3.89227-22.539386-7.914284-9.678678-5.968148-14.451724-1.037938-19.622524 5.44918-4.507877 5.449178-9.015754 11.028099-13.523631 16.477278-.662923-.51897-1.458431-.908197-2.121354-1.427166 1.591015-4.151755 3.18203-8.30351 4.640461-12.455266 1.458431-4.151755 2.651693-8.433253 4.242708-13.752689-7.424738-.648712-13.52363-.778454-19.622523-1.946135-19.755109-3.632786-22.406801-2.335362-32.350648 13.882431-3.4472 5.708664-5.43597 13.103978-14.584308 14.271659-14.05397 1.816393-27.975355 4.540982-41.89674 7.006087-10.474185 1.816393-13.258462-.648712-12.595539-12.195781 6.364062-.908197 12.860708-1.68665 19.22477-2.854332 17.633755-2.984074 37.388863-1.556908 44.018094-24.651046 2.386523-8.433253-4.507877-31.138164-13.523631-33.0843-13.7888-2.984074-27.84277-5.708663-41.89674-5.968148-13.7888-.259484-25.854001 4.670725-30.096709 20.110064-1.7236 6.227633-5.1708 11.936297-7.822492 17.774702-1.458431-.259484-2.916862-.389227-4.375293-.648711 0-6.487118.530339-13.103978-.26517-19.461353-.530338-4.151755-1.856184-9.341449-4.773045-11.806554-10.474185-8.952222-22.141632-7.265571-34.339417-2.854331-11.269693 4.151755-13.656216 11.806553-12.33037 22.185941.397754 3.503044.26517 7.13583.132585 10.638873-.26517 6.357375 3.18203 8.82248 9.280923 8.30351 3.579785-.389226 7.15957-1.427165 10.739355-1.68665 7.026984-.51897 13.7888.129742 17.368585 8.952222-16.573078 3.762528-32.218063 7.525056-49.586648 11.417327v-26.726924c-18.9596 5.708663-36.46077 10.898357-55.287787 16.60702 6.231477 10.509131 11.534862 19.33161 16.705662 28.024348z"/>
    <path d="M522.131227 596.288791c.26517 37.49554-28.505693 62.795297-64.038371 62.92504-34.604586.129742-62.977695-27.63512-63.11028-62.535813-.132584-35.808888 27.975356-63.703494 64.303542-63.314267 33.809078.389227 63.242863 24.391562 62.84511 62.92504zm-62.712525-30.100225c-18.561847.129742-31.55514 12.066038-31.952893 29.970483-.397754 15.698824 12.595539 30.229967 31.55514 30.489452 14.982061.259485 29.56637-11.0281 30.892216-30.229968 1.060677-16.217793-13.7888-30.229967-30.494463-30.229967zm-241.569178 29.970483c1.856185 37.884766-29.831539 63.184524-63.773202 62.92504-35.400093-.259485-63.110279-27.245894-63.242863-63.184525-.132585-34.77095 28.373108-62.535813 62.977694-62.535813 34.074247 0 65.761972 25.040274 64.038371 62.795298zm-64.436125 30.35971c18.031508.129742 32.615817-12.974235 32.615817-29.19203 0-17.644959-13.7888-31.138163-31.82031-31.138163-17.236 0-29.56637 12.19578-29.831539 29.321771-.265169 18.423414 11.534862 30.87868 29.036032 31.008422z"/>
    <path fill="#8b8b8b" d="M30.90521 291.653753c4.110124-1.297423 8.220247-3.632786 12.33037-3.632786 63.242864-.259484 126.618312-.129742 189.861176-.129742H570.12686c4.640462 0 9.280923.129742 13.921385.259485v5.319436c-3.4472.778454-7.026985 2.075878-10.474185 2.075878-179.65216.129742-359.171736.129742-538.823896 0-1.325846 0-2.651692-.129743-3.977538-.259485 0-1.167681.132584-2.335362.132584-3.632786z"/>
    <path d="M5.05121 526.876634c23.865231 1.427166 46.006863 2.72459 68.281079 4.41124 1.856184.129742 4.375292 2.594847 5.038215 4.540982 2.386523 5.838406 3.579785 12.19578 6.098893 18.034187 4.90563 11.547069.132584 21.926457-3.71237 32.176102-.795507 1.946136-6.62923 3.503044-9.678677 2.984074-20.152862-3.503043-40.040555-7.395313-60.060833-11.547069-2.253938-.51897-5.701138-3.762528-5.701138-5.838405-.530339-14.401401-.26517-28.932544-.26517-44.761111zm602.597097.389226c0 15.43934.26517 29.970484-.265169 44.501627-.132585 2.075878-4.242708 5.319436-7.026985 5.968148-21.478708 4.800467-42.957417 8.952222-65.231633 13.493204-6.496646-13.882431-12.728123-28.024347-3.314615-43.463687 1.193261-1.816393 1.988769-4.151755 2.253938-6.227633 1.193262-8.952222 6.629231-10.379388 15.114647-10.50913 16.042739-.259485 31.952893-2.335362 47.995632-3.632786 3.049447-.389227 6.364062-.129742 10.474185-.129742z"/>
    <path fill="#8b8b8b" d="M378.542084 530.249935c-4.507877 1.556908-8.88317 4.540982-13.391047 4.540982-40.040555.389227-80.213695.259485-120.25425 0-2.916862 0-5.833723-2.20562-8.88317-3.373301 2.519108-2.075878 4.640462-5.578921 7.42474-6.09789 14.849477-2.335363 29.831539-5.578921 44.8136-5.578921 26.251755.129742 52.636095 2.20562 78.88785 3.762528 3.4472.259484 6.761815 1.946135 10.209015 2.984074.397754 1.16768.795508 2.465104 1.193262 3.762528zm-120.121666 48.783124c13.523631-13.493205 77.296834-14.790628 97.317111-2.465105-12.197785 11.157842-77.296833 12.974235-97.31711 2.465105z"/>
    <path fill="#696969" d="M147.049337 242.35166c-5.303384-8.82248-10.474185-17.515217-16.573077-27.764863 18.827016-5.57892 36.195601-10.898357 55.287786-16.60702V224.7067c17.368586-4.022013 33.146155-7.654799 49.586648-11.417327-3.579784-8.82248-10.3416-9.471192-17.368585-8.952222-3.579785.259484-7.15957 1.297423-10.739354 1.68665-6.098893.51897-9.546093-1.816393-9.280924-8.30351.132585-3.503044.397754-7.13583-.132584-10.638873-1.193262-10.379388 1.193261-18.034187 12.33037-22.185942 12.197785-4.540982 23.997816-6.227633 34.339416 2.854332 2.916862 2.465105 4.242708 7.654799 4.773046 11.806554.795508 6.357375.26517 12.974235.26517 19.461352 1.45843.259485 2.916861.389227 4.375292.648712 2.651693-5.968148 6.098893-11.676811 7.822493-17.774702 4.242708-15.43934 16.307908-20.369549 30.096708-20.110064 14.05397.259485 28.10794 2.984074 41.89674 5.968148 9.015755 1.946135 15.910155 24.651046 13.523632 33.0843-6.496647 23.094138-26.38434 21.666972-44.018094 24.651046-6.496647 1.037939-12.993293 1.946135-19.22477 2.854331-.662923 11.54707 2.121354 14.012174 12.595539 12.195781 13.921385-2.465104 27.84277-5.319436 41.89674-7.006087 9.148338-1.16768 11.137108-8.562995 14.584308-14.271658 9.943846-16.347536 12.462954-17.515217 32.350647-13.882432 5.966308 1.03794 12.197785 1.167682 19.622524 1.946136-1.591016 5.319436-2.784277 9.600934-4.242708 13.752689-1.45843 4.151755-3.049446 8.30351-4.640462 12.455265.662923.51897 1.458431.908197 2.121354 1.427166 4.507877-5.449178 9.015754-11.0281 13.523632-16.477278 5.1708-6.357375 9.943846-11.417327 19.622523-5.449179 6.496647 4.022013 14.716893 5.319436 22.539386 7.914283-3.049447 11.157843-5.833724 21.666973-9.14834 33.733011 13.391048-1.16768 10.60677-15.43934 20.152863-19.33161 8.88317 5.838406 18.694432 12.195781 29.56637 19.33161-9.015754 6.227633-17.766339 8.173769-27.445016 8.173769H89.375028c-3.844954 0-7.689908-.389228-13.921385-.778455 6.62923-11.417326 11.402277-21.666972 18.164093-30.489452 4.90563-6.357375 28.107939-4.281497 35.267508 1.427166 5.1708 4.151755 10.739355 7.914283 16.175324 11.806554.530339-.908197 1.325846-1.68665 1.98877-2.465105z"/>
    <path fill="#8b8b8b" d="M459.418702 566.188566c16.705662 0 31.55514 14.012174 30.494463 30.229967-1.193262 19.201868-15.77757 30.35971-30.892217 30.229968-18.9596-.259485-31.952893-14.790628-31.55514-30.489452.397755-17.904445 13.391047-29.970483 31.952894-29.970483zm0 15.569082c-9.413508 0-14.716893 5.189694-14.849477 14.271658-.132585 8.433253 6.098892 14.660886 14.584308 14.790628 9.015754.129743 15.379816-6.227633 15.247231-15.179855-.265169-9.471191-5.038215-13.882431-14.982062-13.882431zM153.4134 626.518759c-17.50117-.129743-29.168617-12.585008-29.036033-30.87868.132585-17.255732 12.462955-29.32177 29.83154-29.32177 18.031508 0 31.820309 13.493204 31.820309 31.138163 0 16.088052-14.584309 29.062287-32.615817 29.062287zm.928092-15.698825c8.618-.129742 15.5124-6.357375 15.644985-14.271658.265169-8.30351-7.026985-14.92037-16.04274-14.92037-8.618.129742-15.5124 6.357375-15.644984 14.271658-.132585 8.30351 7.026984 15.050113 16.042739 14.92037z"/>
    <path d="M459.418702 581.757648c9.943847 0 14.716893 4.540982 14.982062 14.012174.132585 8.952222-6.098892 15.309597-15.247231 15.179855-8.485416-.129743-14.716893-6.357376-14.584308-14.790628.132584-9.211707 5.43597-14.401401 14.849477-14.401401zm-305.07721 29.062286c-9.015755.129743-16.175324-6.61686-16.04274-14.92037.26517-7.914283 7.026985-14.141916 15.644986-14.271659 9.015754-.129742 16.175323 6.61686 16.042739 14.92037-.132585 8.044026-7.026985 14.27166-15.644985 14.27166z"/>
</svg>
