<svg xmlns="http://www.w3.org/2000/svg" viewBox="0 0 612 612"><path fill="#493727" d="M103.3 94.4c0-.3-.1-.7-.1-1 .3-1.1.9-2.2.8-3.3-.6-7-.7-14.3-2.5-21-.8-3 0-8.4-5.3-9.3-.1-.3-.2-.7-.3-1-.1-1.5.4-3.5-.4-4.5-3.1-4.1-.7-4.8 2.8-5l-.1-.1c.4.7.6 1.6 1.1 2.2 2.5 3 5.9 5.5 7.3 8.9 1.7 4.3 6.4 6.7 6.6 12 .1 1.6 3.1 3.1 4.8 4.6 1.1 3.5 2.2 6.9 3.3 10.4-.3.9-.9 1.9-.8 2.8.5 3.8 1.8 7.5 1.8 11.3.2 9.6 2.6 18.7 5.2 27.9 2.6 9 4.3 18.2 7.4 27 2.9 8.2 6.7 16.2 10.7 23.9 1.6 3.1 5.1 5.3 7.8 7.8l-.3.3.3-.3c.6.8 1.2 1.6 1.8 2.3-.6 4.7 4.2 6.1 5.6 9.3 1.7 3.7 4 3.7 7 3.3l.3.2c.5 1.4.6 3.5 1.6 4.1 4 2.5 7.8 5.8 13 5.6 1.2 0 2.5.7 3.7 1.2 2.6.9 5.1 2 7.7 2.8 2.2.7 4.6.8 6.8 1.6 8 2.8 15.8 5.9 23.8 8.7 4.7 1.6 5.4 3.3 2.7 7.8-.4.7-.8 1.5-.9 2.3-.9 6.5-1 13.1-5 18.8-.3.4.1 1.3.2 1.9v.1c-1.6 1.9-3.3 3.9-4.9 5.8-2.1 2.5-4 5.5-8 2.3-1.2-.9-3.5-.5-5.2-.6l-.3-.2c0-.8.4-2.1 0-2.3-3.8-2.6-7.7-5-11.6-7.3-1.4-.8-3.6-.8-4.4-1.9-3-3.9-6.8-4.2-11.1-3.1l.1.1c-.7-.4-1.4-.7-2.2-1.1.5-2.7-.5-4-3.3-4.4-2-.3-3.9-1.5-5.7-2.5-1.9-1-3.7-2.3-5.5-3.4-2.6-1.6-5.5-2.8-7.7-4.8-3.4-3.1-6.6-6.2-11.6-5.9l-.1-.1c1.2-3.3.3-5.6-2.6-7.8-3.7-2.8-6.8-6.2-10.4-9.2-.8-.7-2.2-.8-3.3-1.2l-.1-.1c0-1.6.5-3.4 0-4.9-1-2.8-2.6-5.4-3.9-8.1-1.2-2.6-1.6-5.9-3.5-7.6-7.3-6.6-7.4-16-8-24-1.4-21 .5-42.1-2.5-63-.3-3.1-1.7-5.7-2.6-8.3zM512 77c-.1.7-.2 1.5-.3 2.2-1.3 2-3.5 3.9-3.6 6-1 16.2-1.6 32.4-2.1 48.7-.3 9 .2 18-.1 27-.2 5.1-1.2 10.2-1.9 15.2.1.4.3.7.4 1.1h-.1c-3.4 1.9-6.5 3.6-6.6 8.4-.1 3.4-.6 7.6-2.7 9.8-1.8 1.9-3 3.3-3.9 5.9-1.6 4.3-5 7.9-7.4 11.9-1.1 1.9-1.5 4.3-2.2 6.5-.3.3-.6.7-.9 1-9.4 2.8-9.1 1.4-8.9 8.5l-.3-.3.3.2c-2.9-.7-5.2-.5-6.6 2.8-.6 1.3-2.5 2.1-3.9 2.9-3.9 2.2-8.4 3.6-11.8 6.4-7.3 6-15.7 9.4-24.5 12.3-3.2 1-6 3.2-8.8 5.1-.6.4-.3 2.2-.4 3.3-4-.3-7.7-1.5-11 3-2.7 3.6-7.3 1.9-9.3-2.5-1-2.2-1.9-4.4-3.2-6.3-3.3-4.5-4.9-9.4-4.3-15 .1-.1.2-.3.2-.4-.1.1-.2.3-.2.4-.7-.3-1.4-.7-2.1-1-.2-1.1-.3-2.3-.7-3.4-1.5-5-.6-7.4 3.7-9.6 1.8-.9 3.7-1.9 5.7-2.1 1.3-.2 3.2 1.7 4 1.3 1.5-.9 2.8-4.2 3.6-4 3.5.8 3.7-2.1 5.1-3.7h.3c6.4.3 12.9 1.3 18.1-3.9.3-.3.8-.5 1.3-.7 4.4-2 9.3-.7 13.7-5 5.1-5 11.3-8.9 16.3-14.5 4.6-5.1 7.9-10.6 11-16.6 2-3.8 4.7-7.3 6.4-11.2 2.3-5.2 3.2-11.1 5.9-16 3.9-6.8 4-14 4.2-21.4l-.2-.2c2.5-1.5 3.3-3.6 3.7-6.6 1.1-8 3.1-15.8 4.3-23.8 1-6.3 1.5-12.7 2.2-19.1v-.1c5.5.4 4.2-4.4 5.5-7.1 1.1-2.2 1.9-4.5 2.9-6.7 1.9-3.9 3.9-7.8 5.9-11.7l.3.4-.2-.4c.3-.3.6-.7.9-1l.1-.1c2.7.6 5.4 1.4 6.8-2.3.2-.6 1.9-.7 2.9-1.1-.2 1-.2 2-.6 2.9-2 4.4-4.6 8.7-5.9 13.3-1.3 3.7-.8 7.6-1 11.3z"/><path fill="#c4c4b7" d="m220.3 316.1.1-.4.4-.1c.8-1 1.7-2 2.5-3.1.7-1 1.4-2.1 2.1-3.1l-.1.1c.4-.3.8-.7 1.2-1 2.4-5.8 4.7-11.6 7.1-17.4-.1-1.7-.1-3.4-.2-5-3.4-3.1-6.8-6.1-10.1-9.2-1.1-3.4 1-8.5-4.9-9.5 1.1-3.2 2.2-6.4 3.3-9.7v-.1c1.7-3.2 4.3-6.2 4.7-9.5.7-5.9 2.7-10.9 6-15.7 6.1 1.6 12.3 3.1 18.4 4.7-2.2 5-4.3 10.1-6.5 15.1-1.5 3.4-3.1 6.8-4.7 10.2-1.7 2.1-3.6 4-5.1 6.2-3.1 4.3-2.6 7.4 1.3 10.9 1 .9 2.2 1.7 2.9 2.8 1.2 1.8 2.7 3.8 2.8 5.8.6 9.7-3.5 18.1-9 25.5-4.4 6-7.4 12.3-8.4 19.6-2.3-1.6-4.5-3.3-7-4.7-2.3-1.3-2.3-2.9-1.2-4.9 1.5-2.3 2.9-4.9 4.4-7.5zM350 491.6s-.1 0 0 0c0 1.5 0 3 .1 4.5.3 1.4.5 2.8.8 4.2 0 1.7.1 3.4.1 5.1v12.3c0 2-.1 4.1-.1 6.1-.3 1.4-.5 2.8-.8 4.2-.1 1.7-.3 3.3-.4 5-1.3 6.2-3.1 12.4-3.8 18.7-.6 5.2-2.6 8.8-7.1 11.2 1.7-7.6 3.7-15.2 5.1-22.9 1.1-6.3 1.1-12.7 2.2-19 2-12.6 0-24.8-3.3-36.9-1.5-4.8 1-8.7 3.3-12.2 5.3-8 10.5-16.3 17-23.3 4.1-4.4 6.5-8.6 6.2-14.4-.2-5.2-2.9-6.9-8.2-5.1.6-1.5 1.3-2.9 1.9-4.4.8-1.9 2-3.9 2.1-5.8.1-3.5-.9-7-.7-10.5.5-6.9-.6-14.2 4.8-20 1.3 1.3 2.6 2.6 3.9 4-.6 6.5-1.2 12.9-1.8 19.4.1.6.2 1.1.2 1.7.4 1.8.7 3.6 1.1 5.3 1.3 3.7-.1 8.2 3.6 11.1.6.5.8 1.5 1 2.3 1.3 4.8-1 10.1-4.7 13.5-3.4 3.1-6.2 7-9.2 10.5l-.1.4-.4.1c-.5.3-1 .7-1.6 1l.1-.1-2.1 3.6c-1 1.2-2 2.4-3.1 3.6v-.1c-.4.7-.7 1.4-1.1 2.1l-2.1 2.1.1-.1c-1.2 1.7-2.5 3.4-3.7 5.1-.8 1.7-1.6 3.5-2.4 5.2.3 2.3.6 4.7.9 7 .8 1.8 1.5 3.7 2.2 5.5zm-105.8-43.2-.4-.1-.1-.4c-.7-1-1.2-2.2-2.1-3-4.2-4.2-5.6-10.6-2.8-15.8 3.8-6.9 5-14.3 4.7-21.9-.1-5-1.2-10-1.9-14.9 1.3-1 2.6-1.9 4-2.9.4 0 .8-.1 1.1-.1 3.4 8.2 5.2 16.7 3.5 25.5-1 5.2-2.6 10.1 3.5 13.3.2.1.2.6.2 1-.7-.2-1.3-.2-1.9-.5-5-2.1-5.6-1.3-6.3 4.1-1 7.6 2.4 13.7 7.4 17.7 6 4.8 8.7 11.4 12.9 17.2 2.8 3.9 4.9 8.3 7.3 12.4-3.9 11-5.3 22.3-5.1 33.9.2 15.1 3.4 29.8 6.2 44.5-.7-.2-1.4-.4-2.2-.6-.3-.1-.7-.2-1-.2l.1.1-1.1-1.1.1.1c-.7-3.4-1.4-6.8-2.1-10.3-.6-2.1-1.1-4.1-1.7-6.2-.5-3.4-.9-6.8-1.4-10.2-1.6-15.8-1.6-31.6 2.9-47v-3.9c-1.6-2.7-3.3-5.5-4.9-8.2h.1l-1.1-1.1v.1c-.3-.9-.6-1.8-.9-2.6-2.8-3.5-5.5-7.1-8.3-10.6-1.9-3.9-4-7.5-8.7-8.3z"/><path fill="#343332" d="M216 323.8c-1.1 2-1.1 3.6 1.2 4.9 2.4 1.4 4.7 3.1 7 4.7 5 4.2 10 8.6 15.1 12.7 6.7 5.3 12.3 11.4 15.5 19.5-.1-.1-.3-.2-.5-.1-.3-.1-.5-.2-.8-.2-.1 0-.3.2-.3.3-.7 3.2-1.4 6.5-2.2 9.7-7.9-2.1-14.3-6.5-20.3-11.8-3.4-3.9-6.9-7.7-10.3-11.6-.8-.2-1.7-.4-2.5-.6.4-4.9.2-9.4-2.8-13.9-2.8-4-2.6-8.9-.5-13.5.4 0 .9 0 1.4-.1zm184.8 1.1c1.9 4.3 1.6 8.8-.8 12.6-2.6 4.1-3.3 8.3-3 12.9-.4.3-.8.7-1.2 1-1.5 1.5-3.1 2.9-4.5 4.5-7.9 8.5-15.8 17.1-28.2 19.1-.4-2.6-.8-5.3-1.2-7.9-.3-1.1-.6-2.3-.9-3.4 4-8.5 10.5-14.7 18.2-20 3.8-2.7 7.1-6.1 10.7-9.3 2.7-1.9 5.6-3.7 8.1-5.8 1-.8 1.3-2.4 1.8-3.6.3-.1.6-.1 1-.1z"/><path fill="#a3a398" d="M363.1 375c12.3-2 20.2-10.6 28.2-19.1 1.4-1.6 3-3 4.5-4.5.1 2.8.1 5.5.2 8.3-.5 2.7-1 5.4-1.6 8-2.6 4.6-5.2 9.2-7.7 13.9l-1.5 1.5-6.6 5.1c-1.8 1.3-3.6 2.7-5.4 4-1.3-1.3-2.6-2.6-3.9-4l-.9-3.3c0-.7-.1-1.3-.1-2l.1.1c-.5-.7-1-1.4-1.6-2.1-1.3-1.9-2.5-3.9-3.7-5.9z"/><path fill="#343332" d="M103.3 94.4c.9 2.7 2.4 5.3 2.7 8 3 20.9 1.1 42.1 2.5 63 .6 8 .6 17.4 8 24 1.9 1.7 2.3 5.1 3.5 7.6 1.3 2.7 2.9 5.3 3.9 8.1.5 1.4 0 3.2 0 4.9-13.3-18.9-19-40.1-19.5-62.9-.4-17.6-.8-35.2-1.1-52.7zm381 35c-.2 7.4-.3 14.5-4.2 21.4-2.7 4.9-3.6 10.8-5.9 16-1.7 3.9-4.5 7.4-6.4 11.2-3 6-6.3 11.5-11 16.6-5 5.6-11.2 9.5-16.3 14.5-4.4 4.3-9.4 3-13.7 5-.4.2-1 .3-1.3.7-5.2 5.3-11.7 4.2-18.1 3.9 5.6-2 11-4.4 16.7-5.8 17.6-4.4 29.7-15.6 39.1-30.4 9.3-14.6 14.9-30.7 19.3-47.3.4-2.1 1.1-4 1.8-5.8z"/><path fill="#a3a398" d="M220.3 351.9c3.4 3.9 6.9 7.7 10.3 11.6.2 2.5-.3 5.2.7 7.3 1.9 3.9 4.6 7.4 7.2 10.9 3.6 5 4.7 5.1 8.3 1.3-.4 2.1-.8 4.1-1.2 6.2-1.3 1-2.6 1.9-4 2.9l-10.8-8.1-.4-.1-.1-.4c-.7-.8-1.4-1.7-2.1-2.5-.3-.4-.7-.7-1-1.1l-2.7-4.2c-1.1-2.4-2.3-4.7-3.4-7.1-.5-1.6-1.3-3.2-1.3-4.8.1-3.8.4-7.8.5-11.9z"/><path fill="#343332" d="M232.5 232.7c-3.3 4.7-5.3 9.8-6 15.7-.4 3.3-3.1 6.3-4.7 9.5-.1-.7-.5-1.5-.2-1.9 3.9-5.7 4.1-12.3 5-18.8.1-.8.5-1.6.9-2.3 2.7-4.5 2-6.2-2.7-7.8-8-2.8-15.8-5.8-23.8-8.7-2.2-.8-4.6-.9-6.8-1.6-2.6-.8-5.1-1.9-7.7-2.8-1.2-.4-2.5-1.2-3.7-1.2-5.3.2-9-3.1-13-5.6-1-.6-1.1-2.7-1.6-4.1 8.7 6.9 19.5 9 29.7 12.6 7.3 2.5 14.7 5.1 22.1 7.4 5.3 1.7 10.2 3.7 13.7 8.3-.5.3-.8.8-1.2 1.3zm-79.1-44.8c-2.6-2.6-6.1-4.7-7.8-7.8-4.1-7.7-7.9-15.6-10.7-23.9-3.1-8.8-4.8-18-7.4-27-2.6-9.1-5-18.2-5.2-27.9-.1-3.8-1.3-7.5-1.8-11.3-.1-.9.5-1.9.8-2.8 2 10.7 3.9 21.3 5.9 32 .1.6.2 1.1.3 1.7 4.8 23.8 12.1 46.6 25.9 67zM504 176.1c.6-5.1 1.7-10.1 1.9-15.2.3-9-.1-18 .1-27 .5-16.2 1.2-32.5 2.1-48.7.1-2.1 2.4-4 3.6-6-3 20.2-3.7 40.5-3.2 60.9.3 12.1-.5 24.1-3.8 35.8-.2.1-.4.1-.7.2z"/><path fill="#d5d5c8" d="M239.7 262.7c1.6-3.4 3.2-6.8 4.7-10.2 2.2-5 4.4-10 6.5-15.1 1-3 2-6 3-8.9l.1-.4.4-.1c2.1-1.4 4.1-2.7 6.2-4.1h1c.9-.3 1.7-.7 2.6-1 2.3-.8 4.6-1.5 6.8-2.3 0 4.7-4.5 4.5-7.1 5.9-3.1 1.7-5.4 3.5-5.7 7.1-.6 8.8-6.7 14.9-10.9 21.8-1.8 2.9-5 4.9-7.6 7.3z"/><path fill="#343332" d="M415.5 262c.1-1.1-.2-2.9.4-3.3 2.8-1.9 5.7-4.1 8.8-5.1 8.8-2.8 17.2-6.3 24.5-12.3 3.4-2.8 7.9-4.2 11.8-6.4 1.4-.8 3.3-1.6 3.9-2.9 1.5-3.2 3.8-3.5 6.6-2.8-6.5 4.7-12.7 10-19.7 13.9-11.8 6.9-24.1 12.7-36.3 18.9zm65.9-42.2c.7-2.2 1.1-4.5 2.2-6.5 2.3-4.1 5.7-7.7 7.4-11.9 1-2.6 2.1-4 3.9-5.9 2.1-2.2 2.6-6.4 2.7-9.8.1-4.8 3.3-6.5 6.6-8.4-4 16-11.4 30.3-22.8 42.5z"/><path fill="#585852" d="m231 384.1 10.8 8.1c.7 5 1.7 9.9 1.9 14.9.2 7.6-.9 15-4.7 21.9-2.9 5.2-1.5 11.5 2.8 15.8.8.8 1.4 2 2.1 3-7.7-4.3-10.2-12.2-6-20.3 4.8-9.2 4.6-18.8 3.6-28.7-.8-6.7-5.8-10.6-10.5-14.7z"/><path fill="#343332" d="M385.5 240.2c.7.3 1.4.7 2.1 1-.6 5.6 1.1 10.5 4.3 15 1.4 1.9 2.2 4.2 3.2 6.3 2 4.4 6.6 6.1 9.3 2.5 3.3-4.5 7-3.3 11-3-5.8 3.3-11.6 6.6-17.4 10-1.3-.8-2.7-1.6-4-2.4-.3-2.4.2-5.2-1-7.1-4.2-6.9-7.8-13.8-7.7-22.1l.2-.2zM494.3 79.7c-.7 6.4-1.2 12.8-2.2 19.1-1.3 8-3.2 15.8-4.3 23.8-.4 2.9-1.1 5.1-3.7 6.6 2.8-14.9 5.7-29.8 8.5-44.7.3-1.7 1.1-3.2 1.7-4.8z"/><path fill="#585852" d="M331.9 210.4c8.5 4.9 17.1 9.6 25.3 14.8 2.8 1.8 5.2 4.8 6.8 7.8 1.2 2.1 2.1 2.6 4.2 2 3.4-1 6.8-1.9 10.2-2.8.3.3.7.6 1 .9l-14.4 4.5c-.7-1-1.4-2.1-2.2-3-2.6-2.9-4.9-6.2-7.9-8.5-3.3-2.4-7.3-3.9-11.1-5.8-1-.6-2.1-1.2-3.1-1.8-.7-.4-1.3-.8-2-1.3-.4-.2-.7-.4-1.1-.6-1.7-1.2-3.3-2.4-5-3.6-.5-.6-1.1-1.2-1.6-1.9.4-.2.7-.5.9-.7z"/><path fill="#343332" d="M512 77c.2-3.7-.3-7.6.7-11.1 1.4-4.6 4-8.8 5.9-13.3.4-.9.4-1.9.6-2.9-1 .3-2.6.4-2.9 1.1-1.4 3.7-4.1 2.8-6.8 2.3 3.9-4.3 8.9-6.6 14.6-7.5.7-.1 1.5.3 2.2.5-.3.6-.4 1.3-.8 1.7-8.3 6.2-9.9 15.8-12.5 24.9-.2 1.4-.6 2.8-1 4.3zM379.5 233.1c-.3-.3-.7-.6-1-.9.8-.3 2-.5 2.2-1 2-5.4 7-6.2 11.5-7.7 4.9-1.7 9.9-3.2 14.8-4.8-1.4 1.6-1.5 4.5-5.1 3.7-.8-.2-2.1 3.1-3.6 4-.8.5-2.7-1.4-4-1.3-1.9.2-3.9 1.2-5.7 2.1-4.4 2.2-5.2 4.6-3.7 9.6.3 1.1.4 2.3.7 3.4l-.2.2c-2-2.4-4-4.8-5.9-7.3zm-239.2-4.6c5-.2 8.2 2.8 11.6 5.9 2.2 2 5.1 3.2 7.7 4.8 1.8 1.1 3.6 2.4 5.5 3.4 1.8 1 3.7 2.2 5.7 2.5 2.9.4 3.8 1.8 3.3 4.4-12.4-4.9-23.8-11.8-33.8-21z"/><path fill="#585852" d="M363.2 456c3.1-3.5 5.8-7.3 9.2-10.5 3.7-3.4 6-8.7 4.7-13.5-.2-.8-.4-1.8-1-2.3-3.7-2.9-2.3-7.4-3.6-11.1h1.2c1.2 3.1 2.3 6.2 3.7 9.2 3.4 7.2 1.6 14.4-4.6 19.4-3.3 2.8-6.4 5.9-9.6 8.8zM268 482.9c-4.4 15.5-4.5 31.2-2.9 47H264c-2.9-15.9-2.3-31.6 2.7-47h1.3z"/><path fill="#343332" d="M176.2 250.6c4.3-1.2 8-.9 11.1 3.1.9 1.1 3 1.1 4.4 1.9 4 2.3 7.8 4.8 11.6 7.3.3.2 0 1.5 0 2.3-9-4.8-18-9.7-27.1-14.6z"/><path fill="#585852" d="M338.8 562.9c4.5-2.4 6.6-6 7.1-11.2.7-6.3 2.5-12.5 3.8-18.7h1.1c-1.1 7.3-1.7 14.7-3.5 21.8-1.3 5.2-4.3 9.9-10.9 10.4-3.4.2-6.7.9-10 1.4v-1c4.1-1 8.2-1.9 12.4-2.7z"/><path fill="#343332" d="M117.9 76.8c-1.7-1.5-4.7-3-4.8-4.6-.2-5.3-4.9-7.7-6.6-12-1.3-3.4-4.8-5.9-7.3-8.9-.5-.6-.7-1.5-1.1-2.2 10.8 6.3 15.8 16.6 19.8 27.7zm390.7-22.6c-2 3.9-4 7.7-5.9 11.7-1.1 2.2-1.9 4.5-2.9 6.7-1.3 2.8-.1 7.6-5.5 7.1 2.8-9.6 6.8-18.5 14.3-25.5zM124 210.2c1.1.4 2.5.5 3.3 1.2 3.5 3 6.7 6.4 10.4 9.2 2.9 2.2 3.7 4.5 2.6 7.8-5.5-6.1-10.9-12.1-16.3-18.2zM96.2 59.7c5.4 1 4.5 6.3 5.3 9.3 1.8 6.7 1.9 13.9 2.5 21 .1 1.1-.5 2.2-.8 3.3-2.3-11.2-4.7-22.4-7-33.6z"/><path fill="#585852" d="M271 220.5c-2.3.8-4.6 1.5-6.8 2.3 3.9-2.6 7.9-5.2 11.8-7.8 3.7-2.5 7.4-5.1 11.1-7.7l.8.8-13.5 10.5c-1.1.7-2.2 1.4-3.2 2.1l-.2-.2z"/><path fill="#343332" d="M221.8 257.9c-1.1 3.2-2.2 6.4-3.3 9.7-.1.7-.1 1.4-.2 2.1-.2.8-.4 1.5-.7 2.3-.7.1-1.3.2-2 .4-4-2.3-8-4.6-12-7 1.8.2 4.1-.3 5.2.6 4.1 3.2 5.9.1 8-2.3 1.7-1.9 3.3-3.9 5-5.8zM98.3 49.1c-3.5.3-5.9.9-2.8 5 .8 1 .3 3 .4 4.5-2.8-3.7-5.7-7.4-8.5-11.1-.3-.5-.4-1.1-.7-1.7.6-.2 1.3-.6 1.8-.4 3.3 1.2 6.5 2.5 9.8 3.7z"/><path fill="#585852" d="M272.3 557.7c.7.2 1.4.4 2.2.6 7.5 2.6 15 5.1 22.5 7.6.6.2 1.3-.2 2-.3 0 .5 0 .9.1 1.4-.9.2-2 .8-2.7.6-7.5-2.4-14.9-4.8-22.3-7.3-.6-.2-1.1-.8-1.6-1.2-.2-.5-.2-.9-.2-1.4zm110.3-265.5c3.8 7.7 7.7 15.4 11.5 23.1-.3.2-.5.5-.8.7-5.6-7.1-10.2-14.7-11.8-23.8h1.1zm-9.5 100c1.8-1.3 3.6-2.7 5.4-4-5.3 7-6 15-5.3 23.3-.7 0-1.3.1-2 .1.7-6.5 1.3-12.9 1.9-19.4zm-60.3 156.1c-1.4-1.7-2.7-3.4-4.1-5.1-1 2.1-2.1 4.1-2.9 6.3-1 2.9-1.8 6-2.7 9h-1c.8-3.5 1.2-7.1 2.4-10.3 1-2.7 3.2-4.9 4.8-7.3 1.5 2.2 2.9 4.3 4.4 6.5.2.3.2.6.3 1-.4-.1-.8-.1-1.2-.1zm-58.9-319.9c-1 3-2 6-3 8.9-6.1-1.6-12.3-3.1-18.4-4.7.3-.5.7-1 1-1.5 4.1 1.1 8.2 2.1 12.2 3.4 2.8.9 4.8 1 5.6-2.6.3-1.2 1.7-2.3 2.6-3.5z"/><path fill="#343332" d="M167.7 202.8c-3 .4-5.4.4-7-3.3-1.4-3.2-6.2-4.6-5.6-9.3l12.6 12.6z"/><path fill="#585852" d="M220.3 351.9c-.1 4-.4 8-.4 12 0 1.6.8 3.2 1.3 4.8H220c-2.8-5.6-3.6-11.4-2.3-17.5.9.3 1.8.5 2.6.7zm13.3-60.7c-2.4 5.8-4.7 11.6-7.1 17.4h-1.1c2.4-5.8 4.7-11.5 7.1-17.3.3-.1.7-.1 1.1-.1z"/><path fill="#343332" d="M471.6 229.4c-.1-7-.4-5.6 8.9-8.5-3 2.8-6 5.6-8.9 8.5z"/><path fill="#585852" d="M386.7 381.6c2.6-4.6 5.2-9.2 7.7-13.9h1.2c-3 4.6-6 9.2-8.9 13.9zm7.3-112c1.3.8 2.7 1.6 4 2.4-2.1.8-4.2 1.4-4.9 4.2-.4 1.7-2.6 2.9-4 4.3-.3-.3-.5-.6-.8-.8 2-2.7 5.6-4.7 3.7-9 0-.1 1.3-.8 2-1.1zM223.3 277c3.4 3.1 6.8 6.1 10.1 9.2h-1.2c-1.8-1.6-3.8-3.2-5.5-4.9-1.3-1.3-2.3-2.9-3.4-4.3zm29.6 179.5c2.8 3.5 5.5 7.1 8.3 10.6v1.5c-2.8-4-5.6-8-8.3-12.1zm98.1 61.2v-12.3h1.1v12.3H351z"/><path fill="#585852" d="M218.3 269.7c.1-.7.1-1.4.2-2.1 5.9 1 3.8 6 4.9 9.5-.9-1.3-1.7-2.7-2.6-4-.9-1.2-1.7-2.3-2.5-3.4zm25.9 178.7c4.6.9 6.7 4.5 8.7 8.2-2.9-2.8-5.8-5.5-8.7-8.2zm156.6-123.5h-1.1c-2.1-2.9-4.3-5.9-6.4-8.8.3-.2.5-.5.8-.7 2.2 3.1 4.5 6.3 6.7 9.5zm-84.7 237.7c-1-3.8-1.9-7.5-2.9-11.3h1.1c1 3.8 1.9 7.5 2.9 11.3h-1.1z"/><path fill="#343332" d="M297.9 203.5h19.4c.1.3.1.7 0 1-4.1.1-8.1.1-12.2.2H304c-2-.1-4.1-.1-6.1-.2-.1-.3-.1-.6 0-1zm-29.7 342.8c.7 3.4 1.4 6.8 2.1 10.3-.8-1.5-1.7-2.9-2.2-4.5-.6-1.9-.7-3.9-1.1-5.8h1.2z"/><path fill="#585852" d="M389.1 280.5c-2.1 1.9-4.2 3.8-6.4 5.7h-1.2c2.2-2.2 4.5-4.3 6.7-6.5.4.2.6.5.9.8zm6.9 79.1c-.1-2.8-.1-5.5-.2-8.3.4-.3.8-.7 1.2-1 0 3.1.1 6.2.1 9.3H396zm-180-35.8c-.5 0-1 .1-1.5.1 1.9-2.6 3.8-5.2 5.8-7.8-1.5 2.6-2.9 5.2-4.3 7.7zm47.1 147c1.6 2.7 3.3 5.5 4.9 8.2h-1.2c-1.2-2.7-2.5-5.5-3.7-8.2z"/><path fill="#343332" d="M320.4 203.9c2.4 1.2 4.9 2.3 7.3 3.5l-.5.5c-2.3-.9-4.6-1.8-6.8-2.7v-1.3z"/><path fill="#585852" d="m378.5 388.2 6.6-5.1-6.6 5.1z"/><path fill="#493727" d="M220.1 368.8h1.2c1.1 2.4 2.3 4.7 3.4 7.1h-1.2c-1.1-2.4-2.2-4.8-3.4-7.1z"/><path fill="#585852" d="M260.6 223.8c-2.1 1.4-4.1 2.7-6.2 4.1 2.1-1.3 4.2-2.7 6.2-4.1z"/><path fill="#493727" d="M347.9 486c-.3-2.3-.6-4.7-.9-7h1.1c.3 2.3.6 4.7 1 7h-1.2z"/><path fill="#343332" d="M264 530h1.1c.5 3.4.9 6.8 1.4 10.2h-1.1c-.5-3.5-.9-6.9-1.4-10.2z"/><path fill="#585852" d="M323.4 566.7c-2.1 0-4.1.1-6.2.1 0-.5.1-.9.1-1.4 2 .1 4 .2 6.1.2 0 .4-.1.8 0 1.1zm24.7-87.7H347c.8-1.7 1.6-3.5 2.4-5.2h1.4c-1 1.7-1.9 3.5-2.7 5.2z"/><path fill="#343332" d="M396 359.6h1.1c-.5 2.7-1 5.4-1.5 8h-1.2c.5-2.6 1-5.3 1.6-8z"/><path fill="#585852" d="M265.4 540.1h1.1c.6 2.1 1.1 4.1 1.7 6.2H267c-.5-2.1-1.1-4.2-1.6-6.2zm-41.9-164.3h1.2l2.7 4.2-3.9-4.2z"/><path fill="#343332" d="M350.7 473.7h-1.4c1.2-1.7 2.5-3.4 3.7-5.1-.7 1.8-1.5 3.5-2.3 5.1z"/><path fill="#585852" d="M350.8 500.3c-.3-1.4-.5-2.8-.8-4.2h1.1c.2 1.4.5 2.8.7 4.2h-1z"/><path fill="#343332" d="M288.5 206.4c1.8-.7 3.5-1.4 5.3-2.1v1.1c-1.6.5-3.1 1.1-4.7 1.6l-.6-.6z"/><path fill="#585852" d="M350.1 527.9c.3-1.4.5-2.8.8-4.2h1l-.6 4.2h-1.2zm-56.4-322.6v-1.1c1.4-.2 2.8-.5 4.1-.7-.1.3-.1.6 0 1-1.3.3-2.7.6-4.1.8zM347.9 486h1.1c.3 1.9.6 3.8.9 5.6-.6-1.8-1.3-3.7-2-5.6z"/><path fill="#343332" d="M302.1 558.5h1c-.7 1.7-1.3 3.5-2 5.2l-.4-.3c.5-1.6.9-3.2 1.4-4.9z"/><path fill="#585852" d="M223.3 312.6c-.8 1-1.7 2-2.5 3.1.8-1.1 1.7-2.1 2.5-3.1z"/><path fill="#343332" d="M381.6 286.2h1.2c0 2-.1 4-.1 6h-1.1c-.1-2 0-4 0-6zm-29.7 237.6h-1c0-2 .1-4.1.1-6.1h1.1c-.1 2-.2 4-.2 6.1z"/><path fill="#585852" d="M356.1 464.7c1-1.2 2-2.4 3.1-3.6-1.1 1.2-2.1 2.4-3.1 3.6zm-35.7-260.8v1.3c-1-.2-2.1-.4-3.1-.6.1-.3.1-.7 0-1 1 .1 2 .2 3.1.3z"/><path fill="#343332" d="M373.8 418.6h-1.2c-.4-1.8-.7-3.6-1.1-5.3l1.8.3c.2 1.7.3 3.4.5 5zM232.2 286.2h1.2c.1 1.7.1 3.4.2 5h-1.1c-.1-1.6-.2-3.3-.3-5zm117.9 241.7h1.2c-.2 1.7-.3 3.3-.5 5h-1.1c.1-1.6.3-3.3.4-5zM225.4 309.5c-.7 1-1.4 2.1-2.1 3.1.7-1 1.4-2.1 2.1-3.1z"/><path fill="#585852" d="m359.1 461.1 2.1-3.6-2.1 3.6z"/><path fill="#343332" d="M350.8 500.3h1c.1 1.7.1 3.4.2 5.1h-1.1c0-1.7 0-3.4-.1-5.1z"/><path fill="#585852" d="M228.4 381.1c.7.8 1.4 1.7 2.1 2.5-.7-.8-1.4-1.7-2.1-2.5z"/><path fill="#343332" d="M155.1 190.2c-.6-.8-1.2-1.6-1.8-2.3.6.7 1.2 1.5 1.8 2.3zm162.2 375.3c0 .5-.1.9-.1 1.4-.4-1.4-.7-2.8-1.1-4.3h1c.1.9.2 1.9.2 2.9zm33.8-69.3H350c0-1.5-.1-3.1-.1-4.6.4 1.5.8 3 1.2 4.6zM266.8 479h1.2v3.9h-1.3c0-1.3.1-2.6.1-3.9zm86.1-10.2 2.1-2.1-2.1 2.1z"/><path fill="#a3a398" d="m373.3 413.6-1.8-.3c-.1-.6-.2-1.1-.2-1.7.7 0 1.3-.1 2-.1v2.1z"/><path fill="#343332" d="M323.4 566.7v-1c1-.1 2-.2 3-.2v1c-1 .1-2 .1-3 .2zm-9.2-15.4h-1.1c-.1-1-.2-2-.4-3h1.2c.2 1 .2 2 .3 3zm-13.1 12.4c-.4.7-.7 1.4-1.1 2-.1-.1-.2-.3-.4-.4.4-.6.7-1.3 1.1-1.9l.4.3zm-40-95v-1.5c.3.9.6 1.8.9 2.6-.2-.4-.5-.7-.9-1.1zm67.8-260.6c.6.5 1.1 1 1.7 1.4-.2.2-.3.4-.5.6-.6-.4-1.2-.9-1.8-1.3.2-.3.4-.5.6-.7zM355 466.7c.4-.7.7-1.4 1.1-2.1-.4.7-.7 1.4-1.1 2.1z"/><path fill="#585852" d="M264.2 222.8c-.9.3-1.7.7-2.6 1 .8-.3 1.7-.7 2.6-1z"/><path fill="#343332" d="M174.2 249.6c.7.4 1.4.7 2.2 1.1-.8-.4-1.5-.7-2.2-1.1zm51.2 59h1.1c-.4.3-.8.7-1.2 1 .1-.4.1-.7.1-1z"/><path fill="#585852" d="M215.6 272.3c.7-.1 1.3-.2 2-.4-.7.2-1.3.3-2 .4zm145.5 185.3c.5-.3 1-.7 1.6-1-.5.3-1 .6-1.6 1zM227.4 380c.3.4.7.7 1 1.1-.4-.4-.7-.7-1-1.1z"/><path fill="#343332" d="M330.6 209.5c.4.3.9.6 1.3.8-.2.3-.5.6-.7.8l-1.1-1.1c.2-.1.3-.3.5-.5zm-68.5 260.2 1.1 1.1c-.4-.3-.8-.7-1.1-1.1zm65.6-262.4c.4.3.8.5 1.3.8-.2.2-.4.4-.6.7-.4-.3-.7-.6-1.1-.9 0-.2.2-.4.4-.6zm-57.5 349.1 1.1 1.1c-.4-.3-.7-.7-1.1-1.1zm2.1 1.3v1.4c-.4-.5-.7-1.1-1.1-1.6.4 0 .7.1 1.1.2zm14.8-350.4c.5-.3.9-.6 1.4-.9l.6.6c-.4.4-.8.7-1.2 1.1-.3-.3-.5-.6-.8-.8z"/><path fill="#585852" d="M504 176.1c.3-.1.5-.2.8-.2-.1.4-.3.9-.4 1.3-.1-.3-.3-.7-.4-1.1zm-376.6-55.2c-.1-.6-.2-1.1-.3-1.7.1.6.2 1.1.3 1.7z"/><path fill="#343332" d="M299 567c0-.5 0-.9-.1-1.4l.3-.3h.5c.1.1.2.3.4.4-.4.5-.8.9-1.1 1.3zM509.5 53.1c-.3.3-.6.7-.9 1 .3-.3.6-.6.9-1zM387.6 241.2c.1-.1.2-.3.2-.4 0 .1-.1.3-.2.4z"/><path fill="#dcdcd0" d="M287.9 208.1c.4-.4.8-.7 1.2-1.1 1.6-.5 3.1-1.1 4.7-1.6 1.4-.3 2.8-.5 4.1-.8 2 .1 4.1.1 6.1.2.3 11.7.7 23.4 1 35 .4 15.2.7 30.5 1 45.7.3 16.1.8 32.2 1 48.3.1 10 .1 20 0 30.1 0 1.6-.6 3.3-1 4.9-6.1 1.1-8.8 3.7-9.2 9.2-.3.7-.7 1.4-1 2.1s-.7 1.4-1 2.1c-.7 1-1.4 2.1-2.1 3.1-.3.7-.7 1.4-1 2.1-.6.6-1.5 1-1.7 1.7-1.6 5.9-3 11.8-4.4 17.7-.5.1-1.2.1-1.4.4-2.1 2.8-3.1 3.3-5-.6-3.5-7.3-7.8-14.3-12-21.2-1-1.7-3.2-2.8-4.8-4.1l-7.5-15.3c-3.2-8.1-8.8-14.2-15.5-19.5-5.2-4.1-10.1-8.4-15.1-12.7 1-7.3 4-13.6 8.4-19.6 5.5-7.4 9.6-15.8 9-25.5-.1-2-1.7-4-2.8-5.8-.7-1.1-1.9-1.9-2.9-2.8-3.9-3.5-4.3-6.6-1.3-10.9 1.5-2.2 3.4-4.2 5.1-6.2 2.6-2.4 5.8-4.4 7.6-7.3 4.2-7 10.3-13.1 10.9-21.8.3-3.5 2.6-5.4 5.7-7.1 2.7-1.4 7.1-1.2 7.1-5.9l.1.1c1.1-.7 2.2-1.4 3.2-2.1 4.5-3.9 9-7.4 13.5-10.8zM261.2 329c-.4-.5-.7-1.1-1.1-1.6-.1-.2-.3-.4-.5-.5-.5-.3-1-.6-1.4-1l-.1-.1c-.6-2.4-1.3-4.7-1.9-7.1v-4.1c.4-4.2.7-8.5 1.1-12.7-.6.1-1.1.3-1.7.4-4.7 2.2-4.1 6.8-5.1 10.8-2.4 9.3 1.3 16.7 7.4 22.9 3.8 3.9 9.6 5.7 10.8 12 .1.7.9 1.5 1.6 1.9.5.3 1.9.1 2-.2.8-2.8 1.5-5.7 2.2-8.6l-2-2-1.1-1.1.1.1c-1.1-.7-2.1-1.4-3.2-2.1l.1.1-1.1-1.1.1.1c-.4-.5-.7-1.1-1.1-1.6-.1-.2-.3-.3-.4-.4l-1.6-1.6c-.1-.2-.2-.3-.4-.4-.5-.4-1.1-.7-1.6-1.1l.1.1c-.6-.5-.9-.8-1.2-1.1zm38.5 236.4h-.5l-.3.3c-.7.1-1.4.5-2 .3-7.5-2.5-15-5.1-22.5-7.6-2.8-14.7-6-29.4-6.2-44.5-.2-11.6 1.2-22.9 5.1-33.9 3.5 1.5 5.6 0 7.1-3.2 2-4.1 2.6-4.6 5.1-5.1-.5 3.1-1 6.1-1.5 9.2-1.9 6.2-3.5 12.6-5.9 18.7-3.1 7.6-3.2 15.4-2.4 23.3l1.8 11.1c.9 3.3 1.7 6.7 2.8 9.9.4 1.2 1.5 2.2 2.3 3.3.3.7.7 1.4 1 2.1l-.1-.1 1.1 1.1-.1-.1c.7.4 1.4.7 2.2 1.1v-.1c.7.3 1.4.7 2.1 1l3 2.1 2.1-.9c1.1-2.5 2.3-4.8 3.1-7.4 2.4-7.8 4.5-15.6 6.8-23.4l1.5-6c1.1-3.1 1-3.4-1.4-3.4l.1-.2c.3-.9.6-1.7 1-2.6-.2-2.4-.5-4.8-.7-7.2.1-1.1.2-2.3.2-3.4 3.1.2 6.2.4 9.4.6.5 4.4 1 8.7 1.5 13.1.8 1.4 1.7 2.7 2.5 4.1.2.3.3.6.5.9-.4.7-1.1 1.4-1.2 2.1-.2 2.8-.3 5.5-.4 8.3.1 1.4.2 2.7.3 4.1.4.3.8.6 1.3 1 .4.7.7 1.4 1.1 2.1l-.1-.1 1.1 1.1v-.1c1.7 4.3 3.4 8.5 5.1 12.8.2.5.3 1 .5 1.5.5.7 1 1.4 1.6 2.1l-.1-.1c.3.4.7.7 1 1.1h6.1c1.7-1.3 4.6-2.6 4.8-4 .4-4.7-.3-9.5-.6-14.3-.2-2.7-.5-5.4-.7-8.1l1.5-5.1c.5-2.4 1.1-4.7 1.6-7.1-.7-3.8-1.3-7.6-2-11.3-.6-2.4-1.1-4.7-1.7-7.1-1.2-7.8-2.4-15.5-3.6-23.3 3.1-.5 4.4.6 4.9 3.9.4 2.2 2.5 4.1 3.9 6.1 3.3 12.1 5.3 24.3 3.3 36.9-1 6.3-1 12.8-2.2 19-1.4 7.7-3.4 15.3-5.1 22.9-4.1.9-8.2 1.7-12.4 2.6-1 .1-2 .2-3 .2-2-.1-4-.2-6.1-.2-.1-1-.1-1.9-.2-2.9-1-3.8-1.9-7.5-2.9-11.3l-.3-3c-.1-.3-.1-.7-.3-1-1.4-2.2-2.9-4.3-4.4-6.5-1.6 2.4-3.8 4.7-4.8 7.3-1.3 3.3-1.7 6.9-2.4 10.3-.4 1.7-.9 3.3-1.3 5-.3.7-.6 1.3-1 2z"/><path fill="#d5d5c8" d="m363.1 375 3.6 6c.5.7 1 1.4 1.6 2.1l-.1-.1c0 .7.1 1.3.1 2l.9 3.3c-5.3 5.7-4.3 13.1-4.8 20-.3 3.5.8 7 .7 10.5-.1 2-1.3 3.9-2.1 5.8-.6 1.5-1.3 3-1.9 4.4l-4.1 4.1c-1.5-.3-3.2-.2-4.3-.9-3.8-2.4-5.2-.5-5.9 3-.7 1.4-1.4 2.7-2.1 4.1-.3 2-.7 4.1-1 6.1-5.1 2.2-5.1 2.2-5.1-3.7v-5.5c.3-1 .7-2.1 1-3.1.3-1.7.7-3.4 1-5.1v-11.3c-.3-.7-.6-1.3-1-2-.4-1.4-.7-2.7-1.1-4.1-.3-.7-.7-1.4-1-2.1v-2.1c3.1-5.7 6-11.4 9.3-17 1.6-2.8 3.8-5.3 5.7-7.9 1.8-4.3 3.6-8.6 5.3-12.9l-.1.1c.4-.7.7-1.4 1.1-2.1l-.1.1c1 .1 1.9.2 2.9.3.7 2.7 1.1 5.3 1.5 8z"/><path fill="#d5d5c8" d="M342.7 484c-1.4-2-3.5-3.9-3.9-6.1-.5-3.3-1.9-4.4-4.9-3.9-.2-2.8-.3-5.5-.5-8.3.7-.7 1.4-1.3 2.2-2 .3-.7.7-1.4 1-2.1s1-1.5 1-2.2c-.4-5-.2-9.6 5.3-12 .5-.2.6-1.5.9-2.2.3-2 .7-4.1 1-6.1.7-1.4 1.4-2.7 2.1-4.1 2-.9 3.7-2.4 6.1-.4.5.4 2.7-1.1 4.1-1.7 3 .3 3.7-1.7 4.1-4.1 5.3-1.8 7.9-.2 8.2 5.1.3 5.8-2.1 10-6.2 14.4-6.5 7-11.7 15.3-17 23.3-2.5 3.7-5 7.6-3.5 12.4zm-80.3-103c1.6 1.4 3.8 2.4 4.8 4.1 4.2 6.9 8.5 13.9 12 21.2 1.9 3.9 2.9 3.4 5 .6.2-.3.9-.3 1.4-.4-2 3.1-4 6.1-6 9.2-3.6 4-3.6 8.1-.1 11.2v1c.3 1 .7 2.1 1 3.1.4 1 .7 2.1 1.1 3.1.3.7.7 1.3 1 2-1 1.5-1.7 3.4-4.1 2.1-.7-.3-1.4-.7-2.1-1l-1-1c-.4-2.9-2.3-3.8-4.9-3.6l-11.4.6-1-1-2-2c-.7-.3-1.4-.7-2.1-1-.1-.3 0-.9-.2-1-6.1-3.2-4.5-8.1-3.5-13.3 1.8-8.8 0-17.3-3.5-25.5.1-.1.2-.3.2-.4-.1.1-.2.3-.2.4-.4 0-.8.1-1.1.1.4-2.1.8-4.1 1.2-6.2v-.1c.3-.7.7-1.3 1-2 .4-.7.7-1.4 1.1-2.1l-.1.1 1.1-1.1-.1.1c.4-.9.7-1.8 1.1-2.7.7-3.2 1.4-6.5 2.2-9.7 0-.1.2-.3.3-.3.3 0 .5.1.8.2 2.1 4.7 4.1 9.4 6.2 14.1.3.4 1.2.7 1.9 1.2z"/><path fill="#d5d5c8" d="M285.6 471.7c-2.5.4-3.2 1-5.2 5.1-1.5 3.1-3.6 4.7-7.1 3.2-2.4-4.2-4.5-8.6-7.3-12.4-4.2-5.8-6.9-12.4-12.9-17.2-5-4-8.4-10.2-7.4-17.7.7-5.5 1.3-6.2 6.3-4.1.6.3 1.3.3 1.9.5.7.3 1.4.7 2.1 1l2 2 1 1c1.3.6 2.8 2.1 3.8 1.8 4.5-1.5 8.5-.7 12.5 1.3l1 1c.7.3 1.4.7 2.1 1l5.1 5.1c.7 3.1 1.4 6.1 2.1 9.2 0 .8-.1 1.6 0 2.4.1.5.5 1 .8 1.5.1-.6.1-1.3.2-1.9h1.8c-.8 5.7-1.5 11.4-2.3 17-.1 0-.3.1-.5.2z"/><path fill="#c4c4b7" d="M251 375.3c-.4.9-.7 1.7-1.1 2.6l.1-.1-1.1 1.1.1-.1c-.4.7-.7 1.4-1.1 2.1-.3.7-.7 1.3-1 2v.1c-3.7 3.8-4.8 3.7-8.3-1.3-2.5-3.5-5.2-7-7.2-10.9-1-2-.5-4.8-.7-7.3 5.9 5.3 12.4 9.8 20.3 11.8z"/><path fill="#585852" d="M262.4 381c-.6-.4-1.6-.7-1.8-1.3-2.1-4.7-4.2-9.4-6.2-14.1.2-.1.4 0 .5.1 2.4 5.1 4.9 10.2 7.5 15.3z"/><path fill="#dcdcd0" d="M288.5 454.4h-1.8c-.3-.7-.7-1.4-1-2-.7-3.1-1.4-6.1-2.1-9.2-.3-2.4-.7-4.8-1-7.2-.3-.7-.7-1.3-1-2-.4-1-.7-2.1-1.1-3.1-.3-1-.7-2.1-1-3.1v-1c0-3.7 0-7.5.1-11.2 2-3.1 4-6.1 6-9.2 1-1.5 2.5-2.8 2.9-4.4 1.3-4.9 2.2-10 3.2-15 .3-.7.7-1.4 1-2.1.7-1 1.4-2.1 2.1-3.1.3-.7.7-1.4 1-2.1s.7-1.4 1-2.1l9.2-9.2c1.1-.5 4.5 1.3 2.2-2.4-.4-.6-.2-1.7-.2-2.5-.3-16.6-.7-33.2-1-49.8-.3-15.9-.7-31.9-1-47.8-.4-20.5-.7-41-1-61.5 4.1-.1 8.1-.1 12.2-.2 1 .2 2.1.4 3.1.6 2.3.9 4.6 1.8 6.8 2.7.4.3.7.6 1.1.9.6.4 1.2.9 1.8 1.3l1.1 1.1c.5.6 1.1 1.2 1.6 1.9-.4 4.1 2.4 3.7 5 3.6.4.2.7.4 1.1.6.2.7.4 1.4.5 2 .5-.3.9-.5 1.4-.8 1 .6 2.1 1.2 3.1 1.8 1.8 2 3.4 4.6 5.6 6 3 1.9 6.8 3.2 7.3 7 1.1 8.8 6.1 15.5 11.2 22.2 2.3 3.1 5.6 5.5 8.4 8.2l3 4.5c4.5 6.3 4.3 7.5-2 12.6-2.6 2.1-4.1 4.4-4.2 8.1-.3 10.3 4.5 18.8 10 26.5 4.3 6 7.1 11.7 6.6 19-3.5 3.1-6.8 6.6-10.7 9.3-7.7 5.3-14.2 11.5-18.2 20-.7 1-1.3 2.1-2 3.1l.1-.1c-.4.7-.7 1.4-1.1 2.1l.1-.1c-1.8 4.3-3.6 8.6-5.3 12.9-1.9 2.6-4.1 5.1-5.7 7.9-3.3 5.6-6.2 11.3-9.3 17-.3-1-.7-2-1-3-.5-3-.9-6-1.5-8.9-.1-.5-.8-1-1.2-1.4-.1.6-.4 1.4-.3 1.9.9 2.8 1.9 5.6 2.9 8.4.3 1.7.7 3.4 1 5.1.3.7.7 1.4 1 2.1.4 1.4.7 2.7 1.1 4.1.3.7.6 1.3 1 2v11.3c-.3 1.7-.7 3.4-1 5.1-.3 1-.7 2.1-1 3.1v2c-.7 7.8-1.4 15.7-2.1 23.5-.3.7-.7 1.4-1 2.1-.7.7-1.4 1.3-2.2 2-.3-2.4-.7-4.7-1-7.1-.9-5.5-1.8-10.9-2.8-16.4-.1-.4-.7-.8-1.1-1.2-.2.4-.4.9-.5 1.3-.2 4.7-.3 9.4-.4 14.2-.4 9.5-.9 19-1.3 28.5.4.9.8 1.7 1.1 2.6-.1.4-.3.9-.4 1.3-.8 2.8-1.6 5.7-2.4 8.5-.2.7-.5 1.5-.7 2.2-.4-.7-.9-1.4-1.1-2.2-.8-3.8-1.4-7.6-2.2-11.5-.1-.6-.4-1.3-.6-1.9-.6.5-1.2 1-1.6 1.6-1.4 2.1-2.8 4.2-4.2 6.4-.7-.4-1.4-.7-2.1-1.1-.5-1.1-.9-2.2-1.4-3.3-.7.6-1.6 1.1-2.2 1.9-.6.7-1.1 1.7-1.6 2.5-.6-.1-1.2-.1-1.8-.2-.9-2-1.7-4.1-2.6-6-.3-.7-1-1.1-1.6-1.7-.3.7-.8 1.4-.9 2.2-.5 3.2-.9 6.4-1.5 9.5-.2 1.1-.8 2.2-1.2 3.3-.5-1.2-1.2-2.4-1.3-3.6-.9-11.3-1.6-22.6-2.4-33.9-.1-.7-.1-1.5-.2-2.2-.2-3-.3-6.1-.5-9.1s-.6-6.1-.8-9.1c-.8 3.2-1.7 6.4-2.5 9.6v.5c-.3 1.3-.6 2.3-1 3.3zm27.7-80.6 1 1c.7.3 1.4.7 2 1 .5.1.9.2 1.4.4-.5-.1-.9-.3-1.4-.4-.7-.3-1.4-.7-2-1l-1-1c-.3-.4-.7-.7-1-1-.1-.1-.1-.3-.2-.4s-.2-.1-.3-.1l.4.4c.4.5.8.8 1.1 1.1zm28.6-33.7c-.3.3-.6.6-1 .9.3 2.2.4 4.3.9 6.4.3 1.2 1.2 2.3 1.8 3.4.8-1 1.7-1.9 2.4-2.9 2.8-3.6 4.8-8.3 8.5-10.4 3.5-2 5.3-4.4 6.8-7.5 1-2.1 1.8-4.4 2.8-6.5 2.8-5.8.5-16.5-4.6-21.2-.7-.1-1.3-.3-2-.4.1 2.2.3 4.3.4 6.5.1 4.8.2 9.6.2 14.4l.1-.1c-.7 1-1.4 2.1-2.1 3.1l.1-.1c-.4.7-.7 1.4-1.1 2.1l.1-.1-1.1 1.1.1-.1c-.9.7-1.8 1.4-2.6 2.1-.8.9-1.7 1.7-2.5 2.6-1 .8-2 1.7-3 2.5l-2.1 2.1.1-.1-1.1 1.1.1-.1c-.5.6-.9 1-1.2 1.2zm-20.4 38.8c-.5-.1-.9-.3-1.4-.4.5.2.9.3 1.4.4.3.7.7 1.4 1 2l6.1 6.1c.4 1 .9 2.1 1.3 3.1.2-.3.7-.7.7-.8-.6-.8-1.3-1.5-2-2.3l-6.1-6.1c-.4-.6-.7-1.3-1-2zm-12.6-8.8c0 .1 0 .3.1.3.1.1.3.1.4.1 0-.2-.1-.4-.1-.6-.1.1-.3.2-.4.2z"/><path fill="#c4c4b7" d="M389.8 334.3c.5-7.3-2.3-13-6.6-19-5.5-7.6-10.3-16.2-10-26.5.1-3.7 1.6-6.1 4.2-8.1 6.3-5 6.5-6.3 2-12.6l-3-4.5c-1.3-2.5-2.6-5-4-7.5-3.1-5.9-7.3-11.4-7.3-18.6l14.4-4.5c1.9 2.4 3.9 4.9 5.8 7.3-.1 8.3 3.6 15.2 7.7 22.1 1.1 1.9.7 4.7 1 7.1-.7.4-2 1-2 1 1.9 4.3-1.7 6.3-3.7 9-2.2 2.2-4.5 4.3-6.7 6.5 0 2 0 4.1-.1 6.1 1.6 9.1 6.2 16.7 11.8 23.8 2.1 2.9 4.3 5.9 6.4 8.8-.6 1.2-.9 2.8-1.8 3.6-2.6 2.3-5.4 4.1-8.1 6z"/><path fill="#585852" d="M359 366.7c.7-1 1.3-2.1 2-3.1.3 1.1.6 2.3.9 3.4-1-.1-1.9-.2-2.9-.3zm9.3 18.3c0-.7-.1-1.3-.1-2 0 .6.1 1.3.1 2zm-.1-1.9c-.5-.7-1-1.4-1.6-2.1.6.7 1.1 1.4 1.6 2.1z"/><path fill="#d5d5c8" d="M365.1 237.6c0 7.1 4.2 12.7 7.3 18.6 1.3 2.5 2.6 5 4 7.5-2.8-2.7-6.1-5.1-8.4-8.2-5-6.7-10.1-13.3-11.2-22.2-.5-3.8-4.3-5.1-7.3-7-2.2-1.4-3.8-4-5.6-6 3.7 1.9 7.8 3.3 11.1 5.8 3.1 2.3 5.4 5.6 7.9 8.5.9.9 1.5 2 2.2 3zm-27.3-20.9c-2.6 0-5.4.5-5-3.6 1.6 1.2 3.3 2.4 5 3.6zm3 1.9c-.5.3-.9.5-1.4.8-.2-.7-.4-1.4-.5-2 .6.3 1.2.7 1.9 1.2zm-66.4-.1c-1.1.7-2.2 1.4-3.2 2.1 1-.7 2.1-1.4 3.2-2.1z"/><path fill="#c4c4b7" d="M305 204.7c.3 20.5.6 41 1 61.5.3 15.9.7 31.9 1 47.8.3 16.6.7 33.2 1 49.8 0 .8-.2 1.9.2 2.5 2.3 3.7-1.1 1.9-2.2 2.4.3-1.6 1-3.3 1-4.9.1-10 .2-20 0-30.1-.2-16.1-.6-32.2-1-48.3-.3-15.2-.6-30.5-1-45.7-.3-11.7-.7-23.4-1-35h1z"/><path fill="#d5d5c8" d="M263.7 331c.2.1.3.2.4.4l1.6 1.6c.2.1.3.2.4.4.4.5.7 1.1 1.1 1.6l-.1-.1 1.1 1.1-.1-.1c1.1.7 2.1 1.4 3.2 2.1l-.1-.1 1.1 1.1 2 2c-.7 2.9-1.4 5.8-2.2 8.6-.1.2-1.5.4-2 .2-.7-.4-1.5-1.2-1.6-1.9-1.2-6.2-7-8.1-10.8-12-6-6.2-9.7-13.6-7.4-22.9 1-4 .4-8.6 5.1-10.8-.2 4.1-.3 8.2-.5 12.4v3.9l3 7.2.1.1c.5.3 1 .6 1.4 1 .2.1.4.3.5.5.4.5.7 1.1 1.1 1.6l-.1-.1 1.1 1.1-.1-.1c.8.5 1.3.9 1.8 1.2z"/><path fill="#c4c4b7" d="M291.7 387.1c-1.1 5-1.9 10.1-3.2 15-.4 1.6-1.9 2.9-2.9 4.4 1.5-5.9 2.9-11.8 4.4-17.7.2-.7 1.2-1.2 1.7-1.7z"/><path fill="#a3a398" d="M255.1 314.8c.2-4.1.3-8.2.5-12.4.6-.1 1.1-.3 1.7-.4-.4 4.2-.7 8.5-1.1 12.7-.4 0-.7 0-1.1.1z"/><path fill="#c4c4b7" d="m306 368.7-9.2 9.2c.5-5.4 3.1-8.1 9.2-9.2z"/><path fill="#a3a398" d="m258.1 325.9-3-7.2c.4 0 .7.1 1.1.1.6 2.3 1.2 4.7 1.9 7.1z"/><path fill="#585852" d="M271.4 338.2c-1.1-.7-2.1-1.4-3.2-2.1 1.1.7 2.1 1.4 3.2 2.1z"/><path fill="#c4c4b7" d="M294.8 382c-.7 1-1.4 2.1-2.1 3.1.7-1.1 1.4-2.1 2.1-3.1z"/><path fill="#585852" d="M256.2 318.8c-.4 0-.7-.1-1.1-.1v-3.9c.4 0 .7-.1 1.1-.1v4.1z"/><path fill="#a3a398" d="m274.4 341.2-2-2 2 2z"/><path fill="#c4c4b7" d="M295.8 379.9c-.3.7-.7 1.4-1 2.1.3-.7.7-1.4 1-2.1zm1-2c-.3.7-.7 1.4-1 2.1.3-.7.7-1.4 1-2.1zm-4 7.1c-.3.7-.7 1.4-1 2.1.3-.7.6-1.4 1-2.1z"/><path fill="#585852" d="m272.4 339.2-1.1-1.1 1.1 1.1zm-4.1-3.1-1.1-1.1c.4.4.7.8 1.1 1.1z"/><path fill="#585852" d="M267.3 335.1c-.4-.5-.7-1.1-1.1-1.6.4.5.7 1.1 1.1 1.6zm-1.5-2-1.6-1.6 1.6 1.6zm-2.1-2.1c-.5-.4-1.1-.7-1.6-1.1.6.4 1.1.8 1.6 1.1zm-1.5-1-1.1-1.1 1.1 1.1zm-1-1c-.4-.5-.7-1.1-1.1-1.6.4.5.7 1.1 1.1 1.6z"/><path fill="#a3a398" d="M259.6 326.9c-.5-.3-1-.6-1.4-1 .4.3.9.7 1.4 1z"/><path fill="#343332" d="m293.6 461.6 2.4 33.9c.1 1.2.9 2.4 1.3 3.6.4-1.1 1-2.1 1.2-3.3.6-3.2.9-6.3 1.5-9.5.1-.8.6-1.5.9-2.2.5.5 1.2 1 1.6 1.7 1 2 1.8 4 2.6 6-.3.9-.7 1.7-1 2.6l.3 5.4c-.1 1.1-.2 2.3-.2 3.4h-1.1c-.1-4-.1-8.1-.3-12.1 0-.8-.8-1.7-1.3-2.5-.2.8-.4 1.5-.6 2.3-.6 2.6-1 5.3-1.8 7.9-.4 1.3-1.7 2.3-2.5 3.4-.6-1.3-1.7-2.5-1.8-3.8-1-11.9-1.8-23.9-2.7-35.8.6-.3 1-.6 1.5-1zm24.8 49c-.6.7-1.1 1.3-1.7 2-.5.3-1 .7-1.5 1-.5-4.4-1-8.7-1.5-13.1-.4-2.8-.7-5.5-1.1-8.3.5 0 1 0 1.6-.1 1.4-2.1 2.7-4.3 4.2-6.4.4-.6 1.1-1.1 1.6-1.6.2.6.5 1.2.6 1.9.7 3.8 1.4 7.7 2.2 11.5.2.8.7 1.5 1.1 2.2.2-.7.5-1.5.7-2.2.8-2.8 1.6-5.7 2.4-8.5-.4 3.7-.7 7.4-1.3 11.1-.1.8-1 1.5-1.5 2.3-.7-.7-1.7-1.2-2-2-.9-3.1-1.4-6.2-2.2-9.3-.1-.6-.7-1.1-1.1-1.6-.3.4-.7.7-1 1.1-4.2 5.7-2.6 12.3-2.3 18.6.1.4 1.9.9 2.8 1.4z"/><path fill="#585852" d="M275.8 522.8c-.8-7.9-.7-15.7 2.4-23.3 2.5-6 4-12.4 5.9-18.7h1.4c-.5 2.1-.9 4.3-1.6 6.4-3.5 11.6-8.3 23-6.7 35.6h-1.4z"/><path fill="#a3a398" d="M312.7 492.2c.4 2.8.7 5.5 1.1 8.3-3.1-.2-6.2-.4-9.4-.6l-.3-5.4c.9-.8 1.9-1.6 2.8-2.4 1.7-.3 3.5-.7 5.2-1 .3.3.4.7.6 1.1z"/><path fill="#493727" d="M332.4 458.6c.3 2.4.7 4.7 1 7.1.2 2.8.3 5.5.5 8.3 1.2 7.8 2.4 15.5 3.6 23.3h-1c-.3-.8-.8-1.5-.9-2.3-1.6-12.1-3.1-24.2-4.7-36.3.5-.1 1-.1 1.5-.1z"/><path fill="#585852" d="M293.7 551.7c2.9-9.7 5.8-19.3 8.6-29h1.4c-2.2 7.8-4.4 15.6-6.8 23.4-.8 2.5-2.1 4.9-3.1 7.4 0-.7-.1-1.2-.1-1.8zm40.8 1.6c3.2-1.2 3.8-4 3.8-6.8 0-3.5-.5-7-.7-10.4h1.1c.3 4.8.9 9.6.6 14.3-.1 1.5-3.1 2.7-4.8 4 .1-.4.1-.8 0-1.1zm3.5-36.6c-.1-.7-.2-1.4-.3-2.2.3-.4.7-.8 1-1.1 0-1-.1-1.9-.1-2.9v.1c-.3-2.1-.6-4.2-.9-6.2h1.5c.7 3.8 1.3 7.6 2 11.3-1.1.3-2.1.7-3.2 1zm-58.8 17.2c1.1 4.4 2.3 8.8 3.4 13.3-.8-1.1-1.8-2.1-2.3-3.3-1.1-3.2-1.9-6.6-2.8-9.9.6-.1 1.2-.1 1.7-.1z"/><path fill="#343332" d="M279.2 533.9h-1.7l-1.8-11.1h1.5c.1 1.8-.2 3.7.4 5.3.4 1.1 1.9 1.9 2.9 2.8l.1.1c-.4 1-.9 2-1.4 2.9z"/><path fill="#585852" d="M320.3 537c4.9 3 5.5 7.7 5.1 12.8-1.6-4.3-3.3-8.6-5.1-12.8z"/><path fill="#493727" d="M303.1 503.4h1.1c.2 2.4.5 4.8.7 7.2-.9.2-1.9.4-2.8.6h-.1v-1.3c.3-2.3.7-4.4 1.1-6.5z"/><path fill="#343332" d="M338 516.7c1-.4 2.1-.7 3.1-1.1-.5 2.4-1.1 4.7-1.6 7.1h-1.1c-.1-2-.2-4-.4-6zm-52.5-35.8h-1.4c.5-3.1 1-6.1 1.5-9.2.2-.1.4-.2.6-.2.2.1.3.3.5.4-.4 2.9-.8 6-1.2 9zm53.3 55.1h-1.1c-.3-2.7-.6-5.4-.8-8.1h1.2c.2 2.7.4 5.4.7 8.1zm-20.5-17.5-.3 10.3c-.4 0-.8 0-1.2.1.1-2.8.1-5.5.4-8.3 0-.7.7-1.4 1.1-2.1z"/><path fill="#585852" d="M338.1 527.9h-1.2c.6-1.7 1.1-3.5 1.7-5.2h1.1c-.6 1.7-1.1 3.5-1.6 5.2z"/><path fill="#343332" d="M339.2 504.3h-1.5c-.4-2.4-.9-4.7-1.3-7.1h1c.7 2.4 1.2 4.8 1.8 7.1z"/><path fill="#585852" d="M316.8 528.9c.4 0 .8 0 1.2-.1.1 1.4.1 2.8.2 4.1H317c0-1.3-.1-2.6-.2-4z"/><path fill="#343332" d="M303.7 522.7h-1.4l1.8-6h1.1l-1.5 6z"/><path fill="#585852" d="M315.3 513.5c.5-.3 1-.7 1.5-1 .3 1.7.7 3.4 1 5.1-.8-1.3-1.7-2.7-2.5-4.1z"/><path fill="#343332" d="M334.5 553.3v1.1h-6.1c-.2-.5-.4-1.1-.6-1.6 2.3.1 4.5.3 6.7.5z"/><path fill="#585852" d="M305.3 516.7h-1.1c-.1-1.1-.2-2.3-.3-3.4 2.4-.1 2.5.3 1.4 3.4zm-16.6 35.6c1 .3 2 .6 3.1.9v1.2c-1.1-.7-2.1-1.4-3.1-2.1z"/><path fill="#343332" d="M302.1 511.1c.9-.2 1.9-.4 2.8-.6-.3.9-.6 1.7-1 2.6-.6-.7-1.2-1.4-1.8-2zm-10.4 43.3v-1.2c.6-.5 1.3-1 1.9-1.5 0 .6.1 1.1.1 1.7-.6.3-1.3.6-2 1z"/><path fill="#585852" d="M325.9 551.2c.5.7 1 1.4 1.6 2.1-.5-.6-1-1.4-1.6-2.1zm-39.2 0c.7.3 1.4.7 2.1 1-.8-.3-1.4-.6-2.1-1z"/><path fill="#343332" d="M284.6 550.2c.7.4 1.4.7 2.2 1.1-.8-.4-1.5-.7-2.2-1.1z"/><path fill="#585852" d="M282.6 547.2c.3.7.7 1.4 1 2.1-.3-.7-.6-1.4-1-2.1z"/><path fill="#343332" d="M318.3 533.9c.4.7.7 1.4 1.1 2.1-.4-.7-.8-1.4-1.1-2.1z"/><path fill="#343332" d="M317.1 533h1.2c0 .3.1.7.1 1-.5-.4-.9-.7-1.3-1zm2.2 2.9 1.1 1.1c-.4-.3-.8-.7-1.1-1.1zm-35.7 13.3 1.1 1.1c-.4-.4-.8-.7-1.1-1.1z"/><path fill="#585852" d="M327.9 552.7c.2.5.4 1.1.6 1.6-.3-.4-.7-.7-1-1.1 0-.2.1-.4.4-.5z"/><path fill="#c4c4b7" d="M336.6 461.6c.7-7.8 1.4-15.7 2.1-23.5v3.5c0 5.9 0 5.9 5.1 3.7-.3.8-.4 2-.9 2.2-5.5 2.4-5.7 7-5.3 12 0 .6-.7 1.3-1 2.1z"/><path fill="#585852" d="M352.7 381.6c1.8-4.3 3.6-8.6 5.3-12.9-1.7 4.3-3.5 8.6-5.3 12.9z"/><path fill="#c4c4b7" d="M357 433c-1.4.6-3.6 2.1-4.1 1.7-2.4-2-4.1-.5-6.1.4.7-3.5 2-5.4 5.9-3 1.2.7 2.9.6 4.3.9zm-16.3-5.1v-11.3 11.3zm20.4 1c-.4 2.4-1.1 4.4-4.1 4.1l4.1-4.1zm-16.3 10.2c-.3 2-.7 4.1-1 6.1.3-2 .6-4 1-6.1zm2-4.1c-.7 1.4-1.4 2.7-2.1 4.1.7-1.3 1.4-2.7 2.1-4.1zm-10.2-31.6c.3 1 .7 2 1 3v2.1c-.3-1.7-.7-3.4-1-5.1zm3.1 29.6c.3-1.7.7-3.4 1-5.1-.4 1.7-.7 3.4-1 5.1zm0-18.3c-.4-1.4-.7-2.7-1.1-4.1.4 1.3.8 2.7 1.1 4.1zm-1.1 21.4c.3-1 .7-2.1 1-3.1-.3 1-.6 2-1 3.1zm0-25.5c-.3-.7-.7-1.4-1-2.1.4.7.7 1.4 1 2.1z"/><path fill="#585852" d="M358 368.8c.4-.7.7-1.4 1.1-2.1-.4.7-.8 1.4-1.1 2.1z"/><path fill="#c4c4b7" d="M335.6 463.7c.3-.7.7-1.4 1-2.1-.3.7-.7 1.4-1 2.1zm-60.2-27.6c-4-2-8.1-2.8-12.5-1.3-1 .3-2.5-1.1-3.8-1.8l11.4-.6c2.6-.1 4.5.8 4.9 3.7zm7.2-.1c.3 2.4.7 4.8 1 7.2l-5.1-5.1c2.3 1.3 3.1-.6 4.1-2.1zm-3-20.3c0 3.7 0 7.5-.1 11.2-3.6-3.1-3.6-7.3.1-11.2zM258.1 432l-2-2 2 2zm21.4-4.2c.3 1 .7 2.1 1 3.1-.3-1-.7-2-1-3.1zm1 3.1c.4 1 .7 2.1 1.1 3.1-.4-1-.7-2-1.1-3.1zm-24.5-1c-.7-.3-1.4-.7-2.1-1 .8.4 1.5.7 2.1 1zm22.5 8.2c-.7-.3-1.4-.7-2.1-1 .7.3 1.4.7 2.1 1z"/><path fill="#a3a398" d="M246.9 383c.3-.7.7-1.3 1-2-.4.7-.7 1.3-1 2z"/><path fill="#585852" d="M247.8 381c.4-.7.7-1.4 1.1-2.1-.3.7-.7 1.4-1.1 2.1zm2.1-3c.4-.9.7-1.8 1.1-2.7-.4.9-.8 1.8-1.1 2.7z"/><path fill="#585852" d="m248.9 379 1.1-1.1c-.4.4-.8.7-1.1 1.1z"/><path fill="#c4c4b7" d="M246.9 389.1c.1-.1.2-.3.2-.4-.1.2-.2.3-.2.4zm29.5 48-1-1c.3.3.7.6 1 1zm-17.3-4.1-1-1 1 1z"/><path fill="#493727" d="M288.5 454.4c.4-1 .7-2 1.1-3.1h1.1l-3.9 20.4c-.2-.1-.4-.2-.5-.4.7-5.5 1.4-11.2 2.2-16.9z"/><path fill="#c4c4b7" d="M283.6 443.2c.7 3.1 1.4 6.1 2.1 9.2-.8-3.1-1.4-6.2-2.1-9.2zm2 9.2c.3.7.7 1.4 1 2-.1.6-.1 1.3-.2 1.9-.3-.5-.7-1-.8-1.5-.1-.8 0-1.6 0-2.4z"/><path fill="#a3a398" d="M336.4 497.3c.4 2.4.9 4.7 1.3 7.1.3 2.1.6 4.2.9 6.2-4.4-1.7-8.8-3.6-13.3-4.9-1-.3-2.6 1.2-4 1.9l.1-.1-3.1 3.1h.1c-1-.5-2.7-1-2.8-1.6-.3-6.3-1.9-12.8 2.3-18.6.3-.4.7-.7 1-1.1.4.5.9 1 1.1 1.6.8 3.1 1.3 6.3 2.2 9.3.2.8 1.3 1.3 2 2 .5-.8 1.4-1.5 1.5-2.3.6-3.7.9-7.4 1.3-11.1.1-.4.3-.9.4-1.3 0-.9-.1-1.7-.1-2.6.6-9.5 1.1-18.9 1.7-28.4.3-1.1.6-2.2.9-3.2.2 1 .4 1.9.6 2.9.2.8.3 1.6.5 2.4 1.5 12.1 3.1 24.2 4.7 36.3 0 .9.4 1.6.7 2.4z"/><path fill="#d5d5c8" d="M362.4 302.4c5.1 4.7 7.4 15.4 4.6 21.2-1 2.1-1.8 4.4-2.8 6.5-1.5 3.2-3.3 5.5-6.8 7.5-3.6 2.1-5.7 6.8-8.5 10.4-.8 1-1.6 1.9-2.4 2.9-.6-1.1-1.5-2.2-1.8-3.4-.5-2.1-.6-4.3-.9-6.4.3-.3.6-.6 1-.9l-.1.1 1.1-1.1-.1.1 1.1-1.1-.1.1 2.1-2.1c1-.8 2-1.7 3-2.5.8-.9 1.7-1.7 2.5-2.6.9-.7 1.8-1.4 2.6-2.1l-.1.1 1.1-1.1-.1.1c.4-.7.7-1.4 1.1-2.1l-.1.1c.7-1 1.4-2.1 2.1-3.1l-.1.1c.3-4.7.6-9.4.9-14.2.4-2.3.6-4.4.7-6.5z"/><path fill="#585852" d="M330.9 458.6c-.2-.8-.3-1.6-.5-2.4-.2-1-.4-1.9-.6-2.9-.3 1.1-.6 2.2-.9 3.2-.5 0-.9-.1-1.4-.1.1-4.7.3-9.4.4-14.2 0-.5.3-.9.5-1.3.4.4 1 .7 1.1 1.2 1 5.5 1.9 10.9 2.8 16.4-.4.1-.9.1-1.4.1z"/><path fill="#343332" d="M327.6 456.5c.5 0 .9.1 1.4.1-.6 9.5-1.1 18.9-1.7 28.4h-1c.4-9.5.9-19 1.3-28.5zm-37-5.1h-1.1c0-.2-.1-.4 0-.5.8-3.2 1.7-6.4 2.5-9.6.3 3 .6 6.1.8 9.1.2 3 .3 6.1.5 9.1h-1.5c-.3-2.7-.7-5.4-1.2-8.1z"/><path fill="#585852" d="M362 308.7c-.3 4.7-.6 9.4-.9 14.2-.1-4.8-.2-9.6-.2-14.4.3.1.7.1 1.1.2z"/><path fill="#c4c4b7" d="m325.4 381 6.1 6.1-6.1-6.1zm11.2 22.4c-1-2.8-2-5.6-2.9-8.4-.2-.6.2-1.3.3-1.9.4.5 1.1.9 1.2 1.4.5 3 .9 5.9 1.4 8.9z"/><path fill="#a3a398" d="M362 308.7c-.4-.1-.8-.2-1.1-.2-.1-2.2-.3-4.3-.4-6.5.7.1 1.3.3 2 .4-.2 2.1-.4 4.2-.5 6.3z"/><path fill="#585852" d="M312.2 491.1c-1.7.3-3.5.7-5.2 1 .5-.8 1-1.8 1.6-2.5s1.5-1.2 2.2-1.9c.5 1.2.9 2.3 1.4 3.4z"/><path fill="#c4c4b7" d="M331.5 387.1c.7.8 1.4 1.5 2 2.3 0 .1-.4.5-.7.8-.4-1-.9-2.1-1.3-3.1z"/><path fill="#a3a398" d="M351.9 333.6c-1 .8-2 1.7-3 2.5 1-.9 2-1.7 3-2.5z"/><path fill="#585852" d="M307 492.1c-.9.8-1.9 1.6-2.8 2.4.3-.9.7-1.7 1-2.6.6.1 1.2.1 1.8.2zm-15.1-32.7h1.5c.1.7.1 1.5.2 2.2-.4.3-.9.7-1.3 1-.2-1-.3-2.1-.4-3.2zm69.2-136.6c-.7 1-1.4 2.1-2.1 3.1.7-1 1.4-2.1 2.1-3.1zm-4 6.1c-.9.7-1.8 1.4-2.6 2.1.8-.7 1.7-1.4 2.6-2.1zm-8.2 7.2-2.1 2.1 2.1-2.1z"/><path fill="#493727" d="M326.3 485h1c0 .9.1 1.7.1 2.6-.3-.8-.7-1.7-1.1-2.6z"/><path fill="#585852" d="M312.7 492.2c-.2-.4-.3-.7-.5-1.1.7.4 1.4.7 2.1 1.1-.6-.1-1.1 0-1.6 0z"/><path fill="#c4c4b7" d="M325.4 381c-.3-.7-.7-1.4-1-2 .3.6.6 1.3 1 2zm-1-2.1c-.5-.1-.9-.3-1.4-.4.5.2.9.3 1.4.4zm-5.1-3c.5.1.9.3 1.4.4-.5-.2-1-.3-1.4-.4zm-2.1-1c.7.3 1.4.7 2 1-.6-.4-1.3-.7-2-1zm-5.4-4.8c.1 0 .2-.1.4-.1 0 .2.1.4.1.6-.1 0-.3 0-.4-.1s-.1-.3-.1-.4z"/><path fill="#585852" d="M359.1 325.8c-.4.7-.7 1.4-1.1 2.1.4-.6.7-1.3 1.1-2.1zm-1 2.1L357 329c.3-.4.7-.7 1.1-1.1zm-12.3 11.2-1.1 1.1c.4-.3.8-.7 1.1-1.1z"/><path fill="#585852" d="M344.8 340.1c-.3.3-.6.6-1 .9.4-.3.7-.6 1-.9z"/><path fill="#c4c4b7" d="m315.2 372.8-.4-.4c.1 0 .2 0 .3.1 0 .1 0 .2.1.3zm1 1-1-1c.3.4.7.7 1 1zm0 0 1 1c-.3-.3-.7-.6-1-1z"/><path fill="#585852" d="m346.9 338.1-1.1 1.1c.3-.4.7-.7 1.1-1.1z"/><path fill="#343332" d="M321.3 507.6c1.3-.7 2.9-2.2 4-1.9 4.5 1.4 8.9 3.2 13.3 4.9v-.1c0 1 .1 1.9.1 2.9-.3.4-.7.8-1 1.1-.5-3-2-4.7-5.3-4.9-1.4-.1-2.8-.9-4.3-1.2-2.2-.3-4.5-.5-6.8-.8zm-3 3 3.1-3.1-3.1 3.1zm-18.6-.9c-4.5-2.5-9.2-1.3-13.9-1l-.2-.2c4.9-3.2 10.2-2.9 14.2 1l-.1.2z"/><path fill="#343332" d="M285.8 508.7c-.3 4.3-.5 8.7-1 13-.3 2.2-1.3 4.3-2 6.4l-.2-.2c.3-5.1.5-10.2 1-15.3.1-1.4 1.3-2.7 2-4.1l.2.2zm-3 19.4-2.1 3-.1-.1c.7-1 1.4-2 2-3.1l.2.2zm19.1-18.3v1.3c-.7-.5-1.5-.9-2.2-1.4l.1-.1c.7 0 1.4.1 2.1.2z"/><path fill="#a3a398" d="M301.9 509.8c-.7-.1-1.4-.1-2.1-.2-4-3.9-9.3-4.3-14.2-1-.7 1.4-1.9 2.7-2 4.1-.5 5.1-.7 10.2-1 15.3-.7 1-1.4 2-2 3.1-1-.9-2.5-1.7-2.9-2.8-.6-1.6-.3-3.5-.4-5.3-1.7-12.6 3.1-24 6.7-35.6.6-2.1 1-4.2 1.6-6.4.4-3 .8-6.1 1.3-9.1l3.9-20.4c.4 2.7.8 5.4 1.3 8.1.1 1.1.2 2.1.3 3.2.9 11.9 1.7 23.9 2.7 35.8.1 1.3 1.1 2.5 1.8 3.8.9-1.1 2.1-2.1 2.5-3.4.8-2.5 1.2-5.2 1.8-7.9.2-.8.4-1.5.6-2.3.4.8 1.2 1.6 1.3 2.5.2 4 .2 8.1.3 12.1-.7 2.1-1.1 4.2-1.5 6.4zm36.8 3.6c0-1-.1-1.9-.1-2.9 0 1 .1 2 .1 2.9z"/><g fill="none"><path stroke="#231f20" stroke-miterlimit="10" stroke-width="2" d="M250.9 237.4c-2.1 5.1-4.3 10.1-6.5 15.1-1.5 3.4-3.1 6.8-4.7 10.2 2.6-2.4 5.8-4.4 7.6-7.3 4.2-6.9 10.3-13 10.9-21.8.3-3.6 2.6-5.4 5.7-7.1 2.6-1.4 7.1-1.2 7.1-5.9-2.2.8-4.5 1.5-6.8 2.3-.9.3-1.7.7-2.6 1h-1c-2.1 1.4-4.1 2.7-6.2 4.1l-.4.1-.1.4c-1 2.9-2 5.9-3 8.9z"/><path stroke="#231f20" stroke-miterlimit="10" stroke-width="6" d="M296.7 568.4c-.2 0-.4 0-.5-.1-6.1-2-14.2-4.6-22.3-7.3-.3-.1-.6-.3-.9-.5v.6l-1.3-1.6-.6-.9c-.1-.1-.2-.3-.2-.4h-.1l-.1-.2-1.1-1.1-.1-.3c-.2-.3-.3-.6-.5-.9-.6-1.1-1.3-2.3-1.7-3.6-.4-1.2-.6-2.5-.8-3.7-.1-.7-.2-1.5-.4-2.2l-.9-3.6c-.2-.7-.3-1.3-.5-1.9h-.1l-.1-.6-.6-4.5c-.3-1.9-.5-3.8-.8-5.7l-.1-.6c-2.9-16.3-2-32 2.8-46.7 0-.6 0-1.2.1-1.9v-1.8c-.6-1.3-1.2-2.6-1.8-4-.6-1.2-1.1-2.5-1.7-3.7v-.1l-.2-.3-.8-.8.3-.3-.5.1h-.1c-.1-.3-.4-.5-.8-.9l-.2-.2v-.3c-2.3-3.3-4.7-6.8-7.1-10.3l-1-1.3-.1-.1c-2.8-2.7-5.6-5.3-8.4-7.9l-.6-.2-.1-.6-.6-.6c-7.2-4.7-9.3-12.7-5.2-20.6 4.9-9.5 4.4-19.6 3.5-28.3-.7-6-4.9-9.6-9.3-13.4l-.5-.4-.5-.3-.7-.2-.2-.6c-.3-.4-.6-.8-.9-1.1-.3-.4-.7-.8-1-1.2-.2-.2-.3-.4-.5-.5l-.6-.6-.2-.4-3.1-3.3h-.1l-.3-.4c-1-2.3-2.1-4.6-3.2-6.8h-.1l-.2-.4c-2.9-5.8-3.7-11.8-2.4-18l.2-.8h.1c.3-4.6-.1-8.6-2.8-12.5-2.6-3.7-2.9-8.3-1-13.2h-.4l.8-1.1c1.8-2.5 3.7-5.1 5.7-7.7l.2-.7.6-.1c.2-.3.5-.6.7-.9.5-.6 1.1-1.3 1.6-2 .3-.5.7-1 1-1.5.3-.4.6-.8.8-1.2h-.3l.4-.9v-.6h.2c1.1-2.7 2.2-5.5 3.3-8.2 1.2-2.8 2.3-5.7 3.5-8.6-.1-1.5-.2-3.1-.3-4.6-.5-.5-1-.9-1.6-1.4-1.3-1.1-2.6-2.2-3.7-3.4-.9-.9-1.7-2-2.4-3-.3-.5-.7-.9-1-1.4-.4-.6-.9-1.3-1.3-1.9-.4-.7-.8-1.3-1.3-2-.6-.8-1.1-1.5-1.6-2.2l-.3.9-.1.4-.4.1c-.7.1-1.3.2-1.9.4l-.3.1-.3-.2c-3.8-2.2-7.7-4.4-11.7-6.8h-.2l-.8-.5v-.1c-5.7-3.1-11.4-6.1-17.2-9.3-3.1-1.7-6.2-3.4-9.4-5.1l-.1.1c-.4-.3-.9-.5-1.4-.7-.3-.1-.5-.2-.8-.4l-.5-.2v-.1c-12.4-5-23.6-11.9-33.1-20.5h-.2l-.3-.2-.4-.4.1-.2c-4.8-5.3-10.2-11.4-15.6-17.4-.1 0-.2 0-.2-.1l-.2-.1-.4-.4v-.5c-12.5-17.9-18.9-38.5-19.4-63v-.3c-.4-17.2-.8-35-1.1-52.3v-.5c0-.2-.1-.4-.1-.6-1.1-5.6-2.3-11.2-3.5-16.8-1.2-5.5-2.3-11-3.4-16.5v-.1c-.1-.2-.1-.3-.2-.5 0-.2-.1-.3-.1-.5v-.2c-1.4-1.8-2.7-3.6-4.1-5.4-1.4-1.9-2.9-3.7-4.3-5.6-.2-.4-.4-.7-.5-1.1-.1-.2-.2-.5-.3-.7L85 45l.8-.3c.1 0 .3-.1.4-.1.4-.2.9-.3 1.3-.3.2 0 .4 0 .6.1 1.6.6 3.3 1.2 4.9 1.8 1.6.6 3.2 1.2 4.9 1.8v.1c11 6.5 16.1 17.2 20 27.9l.1.1.1.2c.5 1.7 1.1 3.5 1.6 5.2.3 1 .7 2.1 1 3.1l.2-.5.5 2.6c1 5.4 2 10.7 3 16 1 5.3 1.9 10.6 2.9 16 .1.3.1.6.2.9.1.3.1.6.2.9 5.6 27.8 13.8 49 25.8 66.7.6.8 1.2 1.6 1.8 2.3l12 12 .9.7c6.5 5.2 14.5 7.7 22.2 10.1 2.4.8 4.9 1.5 7.3 2.4l3.9 1.4c5.9 2 12.1 4.2 18.1 6 4.7 1.5 9.9 3.5 13.6 8 .9.2 1.8.5 2.7.7 3.1.8 6.3 1.6 9.4 2.6 1.1.3 1.8.5 2.4.5.9 0 1.8-.3 2.3-2.6.2-1 1-1.8 1.8-2.7.3-.4.7-.7 1-1.1l1.3.7c-1 3-2 6-3 8.9l-.2.6-.2-.1c-1 2.3-2 4.5-2.9 6.8-1.1 2.5-2.2 5.1-3.3 7.6-1.2 2.8-2.6 5.7-3.9 8.4.2-.2.5-.4.7-.6 1.9-1.6 3.8-3.1 5-5 1.1-1.8 2.3-3.6 3.5-5.3 3.5-5.1 6.9-9.9 7.3-16.2.3-4 3.1-6.1 6.1-7.7.8-.4 1.6-.7 2.4-.9 2.2-.7 4-1.3 4.3-3.8-.7.2-1.4.5-2.1.7-1.3.4-2.6.8-3.8 1.3l-.6-1.3c2-1.3 3.9-2.6 5.9-3.9 2-1.3 3.9-2.6 5.9-3.9 3.7-2.5 7.5-5.1 11.1-7.7.3-.2.5-.3.7-.5.2-.2.5-.3.7-.5h.2c.9-.3 1.8-.7 2.6-1 .7-.3 1.4-.6 2.1-.8v-.3l.6-.1c.8-.1 1.5-.2 2.3-.4l1.5-.3v-.1h.4l1.1-.2-.1.2h19l.1.2c.8.1 1.7.2 2.6.2h.1l.1.1c1.2.6 2.4 1.2 3.6 1.7 1 .5 2.1 1 3.1 1.5l.1-.1.6.3c.3.2.5.3.8.5l.4.3.8.5-.2.2c.3.3.7.6 1 .8.4.3.8.6 1.2.8l.7.4-.1.1c2 1.2 4 2.3 6 3.4 6.2 3.5 12.6 7.2 18.7 11 2.7 1.7 5.2 4.6 7 8.1.9 1.6 1.4 1.9 2.2 1.9.3 0 .7-.1 1.2-.2 3.4-1 6.9-1.9 10.2-2.8l.4-.1c.1 0 .3-.1.4-.1.4-.1.9-.3 1.1-.4 1.8-4.9 6-6.2 10.1-7.5l1.8-.6c3.1-1.1 6.3-2.1 9.5-3.1 1.8-.6 3.6-1.1 5.3-1.7l.1-.1h.3l2.1-.7-.1.1c1-.4 1.9-.7 2.9-1.1 3.8-1.5 7.8-3 11.8-4 15.9-4 28.1-13.5 38.7-30.1 8-12.5 13.9-27 19.2-47.1.3-1.6.8-3.1 1.3-4.6l.3-1.4c1.4-7.4 2.8-14.9 4.2-22.3 1.4-7.5 2.9-14.9 4.3-22.4.2-1.3.7-2.4 1.2-3.6.2-.4.4-.9.5-1.3 3.4-11.6 7.8-19.5 14.4-25.7l.6-1.1.2.2.2-.3c3.8-4.1 8.8-6.7 15-7.7h.3c.6 0 1.1.2 1.6.4.2.1.4.1.5.2l.8.2-.4.8c-.1.2-.2.4-.2.6-.2.5-.3.9-.7 1.3-7 5.2-9.1 12.9-11.3 21-.3 1.2-.6 2.4-1 3.6-.2 1.2-.5 2.4-.9 3.7l-.1.5c0 .3-.3 2.3-.3 2.3-2.7 18.2-3.7 38-3.2 60.6.3 13.7-.8 24.9-3.6 35.1h.1l-.2.9c-.1.2-.1.5-.2.7-.1.2-.1.4-.2.6l-.1.5h-.2c-4.1 16.2-11.7 30.4-22.6 42.1l-.2.2c-.1.1-.3.3-.4.5-.2.2-.3.4-.5.5l-.1.1v.1c-2.6 2.4-5.3 4.9-7.8 7.4l-.1.1-2.2 2.2v-.6c-1.5 1.1-3.1 2.3-4.6 3.5-4.5 3.4-9.1 7-14.1 9.7-8.9 5.2-18.2 9.8-27.2 14.3-3 1.5-6 3-8.9 4.5l-1.3.7c-5.4 3.1-10.9 6.2-16.4 9.4h-.1l-.5.2c-1.9.7-3.5 1.3-4 3.5-.3 1.4-1.6 2.4-2.8 3.4-.5.4-1 .8-1.4 1.2-2 1.8-4 3.6-6.1 5.4v5.8c1.8 3.7 3.7 7.4 5.5 11.1 1.9 3.9 3.9 7.7 5.8 11.6l.1.3 1.3 1.8c1.6 2.3 3.4 4.7 5 7.1h.1l.2.4.7 1.1h-.3c1.5 4.2 1.1 8.5-1.3 12.3-2.1 3.3-3 6.8-2.9 11.1h.1v6c0 1.6.1 3.1.1 4.7v.2c-.5 2.7-1 5.4-1.5 8l-.1.6h-1.3c-2.5 4.4-5.1 9-7.5 13.6l-.1.1-1.6 1.6-6.7 5.2-.1.1c-5.3 7.2-5.5 15.4-5 21.9h.2v2.8c.1.7.2 1.6.2 2.4.1.9.2 1.7.3 2.5v.3c.2.6.4 1.1.6 1.7.9 2.3 1.8 4.7 2.9 7 3.5 7.4 1.7 15-4.8 20.3-2.1 1.7-4.1 3.7-6 5.5-.8.7-1.5 1.4-2.3 2.2-.3.3-.6.7-.9 1.1l-.2.7-.7.2c-.1.1-.3.2-.4.3-.3.2-.5.4-.9.5l-2 3.4c-1 1.2-2 2.4-3.1 3.6l-.1.1c-.1.2-.2.5-.4.7-.2.4-.4.7-.6 1.1v.1l-2 2-.1.2c-.6 1.5-1.3 3-2.1 4.6l-.2.4h-1.3c-.4.8-.7 1.6-1.1 2.4-.4.8-.7 1.6-1.1 2.4l.8 6.1h1.2l.1.6c.3 1.7.5 3.4.8 5.1l.2.5v.4c.3 1.1.6 2.3.9 3.5h.1l.1.6.3 2.1c.1.7.3 1.4.4 2.1.1.9.1 1.8.1 2.6 0 .6 0 1.2.1 1.9l.1.7v12.3c-.1 2-.2 4-.2 6.1v.7h-.1l-.2 3.9c-.1.8-.2 1.6-.2 2.5-.1.6-.1 1.2-.2 1.8s-.2 1.1-.2 1.2v.2c-.3 2-.5 3.9-.8 5.9-.7 5.1-1.4 10.4-2.6 15.5-1.7 6.8-5.6 10.5-11.5 10.9-2.4.1-4.8.5-7.2.9-.9.2-1.8.3-2.8.5l-.8.1v-.2h-.7c-.5 0-1 0-1.5.1-1.1 0-2.1 0-3.2.1h-3.1v-.5l-.7.1-.6-2.4c-.2-.6-.3-1.2-.5-1.9l-1.5-5.7c-.4-1.7-.9-3.4-1.3-5.1h-.2s-.1-1-.1-1.2l-.1-.2-.3-2.1c-.6-.8-1.2-1.5-1.8-2.2-.4-.6-.9-1.1-1.3-1.7-.1.2-.2.5-.3.7-.8 1.5-1.5 3-2 4.5-.7 1.9-1.2 3.9-1.8 5.9l-.9 3c-.4.9-.7 1.8-1 2.6-.3.9-.7 1.8-1 2.6-.2.3-.3.6-.5.9-.1.2-.2.3-.3.5l.2.1-.5.7c-.2.2-.4.5-.6.7-.1.1-.2.2-.2.3l.1.5-.7.1-.9.3c-.6.2-1.2.4-1.7.4zm31.7-16.3c2.1.1 4.1.3 6 .5 2.2-.9 3.2-2.7 3.2-6.1 0-2.2-.2-4.4-.4-6.5-.1-1.3-.2-2.6-.3-3.8v-.8h.1c-.3-2.5-.5-5-.7-7.4v-.2l.1-.1c.3-.8.6-1.7.8-2.6.2-.7.4-1.3.6-2v-.4c-.1-2-.2-4-.4-6-.1-.7-.2-1.4-.3-2.2-.5-2.8-1.9-4.1-4.6-4.3-.9-.1-1.8-.4-2.6-.7-.6-.2-1.2-.4-1.8-.5-1.1-.1-2.3-.3-3.5-.4-1-.1-1.9-.2-2.9-.3l-2.4 2.4-.3.4-1.4 1.6c.1.7.3 1.5.4 2.2.1.7.3 1.5.4 2.2l.1.1c.1.1.2.3.3.5.1.1.1.2.2.4l.2.4-.2.4-.3 9.9c0 .6.1 1.3.1 2 0 .5 0 1 .1 1.5h.1v1.5c.2.3.3.6.5.9.2.3.3.6.5.9l.9.9c5 3.3 5.4 8.5 5.2 12.7l.1.3c.1.3.2.5.3.8.1.2.1.4.2.6.3.4.6.8.8 1.1h.1l.6-.2.2.3zm-39-.3 2.1.6c.2-.2.4-.3.7-.5.3-.2.6-.5.9-.7l1.5-5.2c2.3-7.7 4.7-15.6 7-23.5l1.8-6.1-.2-2.4h-.5l.3-.7c-.4-.4-.7-.8-1-1.1l-.2-.2h-.4v-.3l-.9-.6c-.4-.2-.8-.5-1.1-.7-1.8-1-3.8-1.4-6.2-1.4-1.5 0-3 .2-4.4.3-.7.1-1.4.1-2.2.2-.1.9-.1 1.8-.2 2.7-.2 3.2-.4 6.5-.8 9.7-.2 1.7-.8 3.2-1.4 4.7l-.6 1.8v.1L281 532c-.3.7-.6 1.3-1 2 .5 1.9.9 3.7 1.4 5.6.6 2.5 1.3 4.9 1.9 7.4.1.3.3.6.5 1 .2.3.3.6.5 1l.7.7c.4.2.8.4 1.3.6.1 0 .1 0 .2.1l.6.2c.4.2.7.3 1.1.5.3.2.7.3 1 .5h.1l.1.2zm-12.9-29.7c-1.1-10.4 2-20.1 5.1-29.5.6-1.8 1.2-3.6 1.7-5.4.3-1.1.6-2.2.8-3.3.2-1 .5-2 .8-3.1l.1-.9c.2-1.6.4-3.2.7-4.8-.1.5-.7 4.4-1 5.9-.6 1.9-1.1 3.7-1.6 5.5-1.3 4.4-2.6 9-4.3 13.4-3.2 7.8-3 15.9-2.4 22.2h.1z"/><path stroke="#231f20" stroke-miterlimit="10" stroke-width="2" d="M382.6 292.2zm4.1 89.4c2.9-4.7 5.9-9.3 8.9-13.9h-1.2c-2.5 4.7-5.1 9.3-7.7 13.9zM254.4 227.9c2.1-1.3 4.2-2.7 6.2-4.1-2.1 1.4-4.1 2.7-6.2 4.1zm95 245.9c-.8 1.7-1.6 3.5-2.4 5.2.3 2.3.6 4.7.9 7h1.2c-.4-2.3-.7-4.7-1-7 .8-1.7 1.7-3.5 2.7-5.2h-1.4zm-85.2-251c-.9.3-1.8.7-2.6 1 .9-.3 1.7-.7 2.6-1zM509.5 53.1c-.3.3-.6.7-.9 1 .3-.3.6-.6.9-1zM261.2 329zm97.5 37.7c.1 0 .1-.1.1-.1l-.1.1zm-96.6-36.8c.6.4 1.1.8 1.6 1.1-.5-.4-1.1-.7-1.6-1.1z"/><path d="M284.1 480.8c-1.9 6.3-3.4 12.7-5.9 18.7-3.1 7.6-3.2 15.4-2.4 23.3h1.4c-1.6-12.6 3.2-24 6.7-35.6.7-2.1 1.1-4.2 1.6-6.3.4-3 .8-6.1 1.2-9-.2-.1-.3-.3-.5-.4-.2 0-.4.1-.6.2-.5 3.1-1 6-1.5 9.1z"/><path stroke="#231f20" stroke-miterlimit="10" stroke-width="2" d="M279.2 533.9zm3.4 13.3c.3.7.7 1.4 1 2.1-.3-.7-.6-1.4-1-2.1zm2.1 3.1-1.1-1.1c.3.4.7.7 1.1 1.1zm53.9-114.2c.4-1.1.7-2.1 1-3.1-.3 1-.7 2.1-1 3.1zm-58.1-5.2c.4 1.1.7 2.1 1.1 3.1-.4-1-.7-2.1-1.1-3.1zM246.9 383c.3-.7.7-1.3 1-2-.4.7-.7 1.3-1 2zm36.7 60.2c.7 3 1.3 6.1 2.1 9.2-.7-3.1-1.4-6.1-2.1-9.2zm62.2-104 1.1-1.1c-.4.4-.8.7-1.1 1.1zm-60 169.5zm-3 19.4zm19.1-18.3z"/></g></svg>