<svg xmlns="http://www.w3.org/2000/svg" viewBox="0 0 203.333 203.333"><path d="M203.333 104.983v82.451a5 5 0 0 1-5 5H5a5 5 0 0 1-5-5v-58.34a5 5 0 0 1 2.768-4.474l48.333-24.111a5 5 0 0 1 7.232 4.474v16.029l29.597-14.764V57.416a5 5 0 0 1 5-5h9.074a5 5 0 0 1 5 5v63.428l33.021-16.472 2.044-88.589a5 5 0 0 1 4.999-4.885h21.797a5 5 0 0 1 4.999 4.885l2.186 94.729 20.051-10.002a5 5 0 0 1 7.232 4.473zM35.078 151.969H21.553v19.006h13.525v-19.006zm36.625 0H58.178v19.006h13.525v-19.006zm36.626 0H94.804v19.006h13.525v-19.006zm36.626 0H131.43v19.006h13.525v-19.006z"/></svg>