<?xml version="1.0" encoding="UTF-8" standalone="no"?>
<!DOCTYPE svg PUBLIC "-//W3C//DTD SVG 1.1//EN" "http://www.w3.org/Graphics/SVG/1.1/DTD/svg11.dtd">
<svg width="100%" height="100%" viewBox="0 0 48 48" version="1.1" xmlns="http://www.w3.org/2000/svg" xmlns:xlink="http://www.w3.org/1999/xlink" xml:space="preserve" xmlns:serif="http://www.serif.com/" style="fill-rule:evenodd;clip-rule:evenodd;stroke-linejoin:round;stroke-miterlimit:2;">
    <g>
        <path d="M36.856,10.347L37.506,9.697L41.303,13.493L40.748,14.048L42.824,16.024L41.303,26.125L34.987,19.809L28.875,25.921L41.303,38.348L37.506,42.144L25.079,29.717L12.652,42.144L8.856,38.348L21.283,25.921L15.412,20.05L10.754,24.737L5.176,19.194L9.851,14.489L8.856,13.493L12.652,9.697L13.635,10.681L18.422,5.864L24,11.407L19.196,16.241L25.079,22.124L31.19,16.013L26.584,11.407L32.135,5.856L36.856,10.347Z" style="fill-opacity:0.68;"/>
    </g>
</svg>
