<svg xmlns="http://www.w3.org/2000/svg" viewBox="0 0 612 792">
    <path d="M168.304459 447.441183h-22.211632v-29.661016c7.121287 0 14.581682.546747 21.702969-.273373 3.391088-.41006 8.477722-3.007108 8.986385-5.194095 10.173266-39.365773 19.668315-78.868232 29.332918-118.37069.169554-.820121 0-1.640241 0-3.143795-4.408415-.273374-8.647276-.546747-13.564355-.82012v-28.020776c.508663-.273374 1.017326-.82012 1.52599-.82012 20.346533-1.093494 20.346533-1.093494 24.585394-17.769273 2.543316-9.56807 5.256187-19.136139 7.121286-28.840895 1.017327-4.920722 3.730198-6.150902 9.325494-6.014216 17.464108.273374 34.928215.136687 53.748758.136687v-51.804263h36.28465V208.6495c18.650988 0 36.115096.136687 53.579203-.136687 6.10396-.136686 8.81683 1.23018 10.003712 6.424276 3.221534 15.172224 7.460395 30.34445 11.360147 46.06342h22.042078v28.70421c-4.408416.41006-8.986386.683434-14.581682 1.23018 3.899752 16.129032 7.62995 31.711317 11.529702 47.430289 5.934405 24.05686 12.20792 47.977035 17.803216 72.033896 1.356435 5.604155 4.23886 7.92783 11.360147 7.517769 6.612623-.41006 13.394801-.136687 20.516088-.136687v29.11427h-22.720295c23.568067 95.270636 46.96658 189.44778 70.534647 284.308356h49.170787v29.250956H48.259916V731.74954h49.340341c23.737622-95.13395 47.136135-189.311093 70.704202-284.308357zm101.054446 213.231268c-35.775987-15.718972-70.025984-30.75451-105.123753-46.200108-8.647276 34.718424-16.955444 68.343355-25.772275 103.8819 44.592818-19.682887 86.981428-38.408966 130.896028-57.681792zm76.129944 0c44.084154 19.409513 86.472764 37.998905 130.896027 57.408418-8.81683-35.675231-17.124998-69.163475-25.772275-103.608526-35.436877 15.582285-69.347765 30.617823-105.123752 46.200108zM421.9579 499.655507l-12.886137-51.94095h-83.081676v78.731545c32.215344-9.021323 63.582915-17.769273 95.967813-26.790595zm-229.237603-.136687c32.554453 8.74795 64.091579 17.222525 95.798259 25.697101v-77.63805H205.43688c-4.23886 17.222525-8.308167 34.308363-12.716583 51.940949zm133.100236 136.413336c33.063115-14.48879 64.600241-28.430835 98.17202-43.193-34.249996-9.15801-65.956677-17.632585-98.17202-26.243848v69.436848zm-36.962868-67.933294c-31.70668 8.884636-62.056925 17.359212-94.272269 26.380535 32.554453 14.215417 62.904697 27.610715 94.272269 41.416073v-67.796608zm-.169555 117.687257c-34.589105 15.172225-67.652221 29.797703-103.0891 45.379988h103.0891v-45.379988zm140.730185 45.379988c-35.94554-15.855659-69.347765-30.481137-103.089099-45.243301v45.2433h103.0891zm-140.89974-440.677953h-34.75866c-3.05198 0-5.934405.136686-9.15594.273373-1.356435 4.920722-2.71287 9.431383-3.899751 13.942044-4.57797 18.589393-4.57797 18.589393 16.107672 28.020776 10.34282 4.647348 20.685641 9.431383 31.537125 14.488791.169555-19.682886.169555-37.862218.169555-56.724984zm37.810641.273373v56.451611c16.78589-7.791142 32.724007-14.898851 48.323015-22.41662 1.695545-.82012 3.05198-3.553855 2.712871-5.194095-2.034653-9.56807-4.747524-19.13614-7.121286-28.840896h-43.9146zM175.5953 568.408922c25.772275-7.244396 50.01856-13.942045 74.434399-20.77638-.169554-.683434-.339109-1.23018-.339109-1.913614-21.02475-5.604155-41.879947-11.20831-63.922024-17.222526-3.560643 13.258611-6.782177 25.970475-10.173266 39.91252zm191.257408-22.143247c24.754948 6.697649 47.136134 12.711864 71.551974 19.272826-3.221535-13.258611-6.10396-24.740295-9.15594-36.632038-20.855196 5.740841-40.523511 11.20831-62.396034 17.359212zm-148.868798-149.1252c18.31188-8.474577 34.75866-16.129033 52.561876-24.330235-14.751236-6.69765-27.806928-12.848551-41.710392-19.13614-3.730198 14.762165-7.121287 28.29415-10.851484 43.466374zm178.71038-.136688c-3.899753-15.308911-7.121287-28.840895-10.851485-43.329687-13.903464 6.424276-27.12871 12.575178-41.540837 19.13614 17.97277 8.337889 34.41955 15.855658 52.392322 24.193547zM257.32054 238.447204c-1.865099 7.791142-3.560643 14.762164-5.425742 22.00656h36.28465v-22.00656H257.32054zm68.669548 21.5965h36.62376c-2.034654-7.791142-3.730199-14.625478-5.595297-21.5965h-31.028463v21.5965zm37.81064 157.46309c.169555-.41006.508664-.956807.678218-1.366867-12.547029-5.740842-25.094057-11.61837-38.319303-17.632586v18.999453h37.641085zm-75.112617-19.13614c-13.903464 6.424276-26.280938 12.165118-41.032174 18.999453h41.032174v-18.999453zm54.766084-263.39529c21.194305-23.373427 51.374996-32.531437 79.181924-24.330234 24.585394 7.244396 42.38861 34.03499 36.28465 54.537997-3.899752 12.848551-25.263612 18.31602-40.353957 9.704757-5.934405-3.280481-10.512375-8.201203-15.2599-12.848551-5.086632-5.057408-9.325493-10.661563-14.412127-15.718972-10.512375-10.251503-23.568067-15.035538-40.184402-11.61837-1.695544.273373-3.221534.136687-5.256188.273373zm-69.008657 2.597048c-21.702968-13.258611-40.353956-6.560962-58.665836 4.373975-6.443069 3.827227-13.055692 8.611262-20.516087 10.251503-8.138613 1.913614-18.142325 2.46036-26.111384.41006-14.412127-3.827228-18.481434-11.61837-13.73391-23.373427 7.460396-18.589393 22.550741-31.848004 46.96658-35.675232 23.228959-3.553854 42.558165 3.417168 56.631183 18.72608 6.443069 7.107708 11.529702 15.172224 17.124999 22.82668-.508664.82012-1.186881 1.64024-1.695545 2.46036zM323.78588 91.09893c-5.934405-12.02843-7.121286-24.330234-.847772-35.401857 6.782178-12.165118 15.429454-24.193548 26.111384-34.308365 5.76485-5.467468 17.124998-9.294696 26.450493-9.97813 23.907176-1.776927 44.084154 6.424276 59.344054 21.323127 10.173266 9.97813 7.799504 17.359212-5.934406 23.920174-9.664603 4.647349-19.83787 4.647349-30.350245 2.323675-7.460395-1.640241-14.751236-3.963915-22.042077-5.740842-16.107672-3.553855-26.620047-.82012-35.606432 10.661563-6.443069 8.474576-11.190593 17.769272-17.124999 27.200655z"/>
</svg>
