<svg xmlns="http://www.w3.org/2000/svg" width="1706.667" height="1292" viewBox="0 0 1280 969" preserveAspectRatio="xMidYMid meet"><path d="M563.8 32.6L499 65v195.3 195.2l-117.5 58.8L263.1 573c-.4 0-53.4-26.2-117.6-58.2C19.7 452.2 23.7 454 14.5 457c-2.1.7-5.7 3.1-7.9 5.4-8.4 8.4-8.7 21.2-.6 29.7 2.8 3 88.7 46.3 461.7 232.7l472 233.5c25.8 8.4 47.1 11.4 74.8 10.4 42.4-1.5 80.6-9.8 118.5-25.7 33-13.8 38.7-18.7 37.8-32.9-.7-12-7.9-19.3-19.9-19.9-6.4-.4-7.2-.2-13.6 3.4-25.8 14.4-49.8 23.5-75.3 28.3-37.5 7-78.4 4.7-113.5-6.6-6.8-2.2-554.7-276.2-554.1-277.1.2-.4 53.1-27 117.5-59.2L629 520.5V390.8l1-129.8c.6 0 29.8 14.4 65 32l64 32 .2 130.2.3 130.3 64 32.2 65.8 32.2c1.7.1 129.7-63.5 129.7-64.4 0-.3-29.2-15.1-65-33L889 520V325 130L759 65 628.8.1c-.2 0-29.4 14.6-65 32.5zm573.7 98c-31.7 3.5-58.8 16.6-80.7 39.2-17.4 18-27.7 36.6-33.9 61.7-3 12-3.7 36.1-1.4 49.5 4.5 27.5 16.8 51.3 36.5 71 19.6 19.6 43.6 32 70.9 36.5 12.5 2.1 36.3 1.6 48.1-1 62.6-13.8 106.1-70.6 102.7-134-3.2-59.8-46.7-109.7-105.7-121.1-7.7-1.5-29.3-2.6-36.5-1.8z"/></svg>