<svg xmlns="http://www.w3.org/2000/svg" width="1706.667" height="1492" viewBox="0 0 1280 1119"  xmlns:v="https://vecta.io/nano"><path d="M584 48v48h51v290H263V276.2l5.3-3c7.1-4 15.2-12.9 18.7-20.4 4.2-9 5.2-17.5 4.8-41.6-.3-18.7-.5-21.3-2.1-22.9-1.7-1.7-6.1-1.8-71.1-2.1-69-.2-69.3-.2-71.9 1.9l-2.7 2v23.3c0 12.8.5 25.8 1 28.7 2.4 13.1 12.6 26.5 24.3 32.2l5.7 2.8v108.7l-24.2.5c-27.5.5-31.4 1.1-46.3 8.2-21.2 9.9-35.2 26.1-40.4 46.6l-1.7 6.9-3.2-4.5c-6.3-8.9-13.5-11.4-33.2-11.5-11.7 0-13 .9-13 9.8-.1 6.4-.2 6.8-3.3 8.7-1.9 1.2-4.4 4.4-6.2 7.9l-3 6v48.2l3 6c1.8 3.5 4.3 6.7 6.2 7.9 2.9 1.8 3.2 2.5 3.3 6.8 0 8.7.1 8.7 15.8 8.7 17.8 0 20.3-.7 27.5-8.1l5.7-5.8v110.2c0 101 .3 116.9 2.5 123.8.6 1.8-.3 1.9-29.9 1.9H4v119h125.8l-4.5 6.7c-9.8 14.6-17.2 32.5-21.5 51.4-2 8.9-2.3 13.1-2.3 29.9s.3 21 2.3 29.9c6.5 28.9 19.7 53.4 39.7 73.6 50.2 50.9 128 58.9 187.7 19.3 12.1-8.1 32.4-28.2 40-39.8 10.6-16.2 18.9-35.3 22.1-51.2l1.3-6.3 54.5-.3 54.4-.2 1.2 6.2c4.7 24 19.1 51.1 37.6 70.5 21.6 22.6 47.9 37.1 78.5 43.5 8.8 1.8 13.9 2.2 28.7 2.2 19.9 0 30.8-1.7 48-7.6 47.6-16 86.3-59.7 96.5-108.6l1.3-6.2h108.5l1.7 7.7c5.8 26 19.6 51.1 39 70.8 50.1 50.9 128 58.9 187.7 19.3 12.1-8 32.4-28.2 40-39.8 11.6-17.6 19.9-37.9 23.4-57 2.4-13 2.4-39 0-52-3.3-18.4-11.5-39-21.5-54.3l-5.1-7.7h76v-59.5c0-58.8 0-59.5-2-59.5s-2-.7-2-334V96h39V0H584v48zm505 210v103l-331.5-.5-.3-102.8L757 155h332v103zM529.3 884.2c-.4.7-2.4 3.8-4.4 6.8-14.6 22-23.9 53.6-23.9 81.4v5.1H397.3l-.6-12.1c-1.4-27.5-9.6-53.2-23.8-75L368 883h81.1c64.6 0 80.9.3 80.2 1.2zm397 5.5c-14.5 21.7-22.8 47.2-24 73.8l-.6 14-52.1-.2-52.1-.3-.7-13.2c-.7-15.2-2.6-26-6.9-39-3.4-10.5-10.7-25.6-16.7-34.6-2.3-3.5-4.2-6.5-4.2-6.8 0-.2 36.4-.4 80.9-.4h80.9l-4.5 6.7z"/><g stroke="red" stroke-width="60.875"><path d="M0-7.899l1274.3 1126.9" fill="none"/><path d="M1280 0L7.9 1113.7z" fill="red"/></g></svg>