<svg version="1.1" id="Layer_1" xmlns="http://www.w3.org/2000/svg" xmlns:xlink="http://www.w3.org/1999/xlink" x="0" y="0" viewBox="0 0 36 36" xml:space="preserve"><style>.st3{fill:none;stroke:#010101;stroke-width:.5;stroke-miterlimit:10}</style><defs><path id="SVGID_1_" d="M36 18c0-9.9-8.1-18-18-18S0 8.1 0 18s8.1 18 18 18 18-8.1 18-18"/></defs><clipPath id="SVGID_2_"><use xlink:href="#SVGID_1_" overflow="visible"/></clipPath><g clip-path="url(#SVGID_2_)"><path d="M-4-4h44v22H-4zm0 22h44v22H-4z" fill="#fff"/><path fill="#efde82" d="M-4 14h44v8H-4z"/><path class="st3" d="M-4 14h44v8H-4z"/><text transform="translate(8.25 21.1)" font-size="9" font-family="Times-Bold" fill="#010101">C&amp;P</text><path class="st3" d="M36 18c0-9.9-8.1-18-18-18S0 8.1 0 18s8.1 18 18 18 18-8.1 18-18"/></g></svg>