<svg version="1.1" id="Layer_1" xmlns="http://www.w3.org/2000/svg" xmlns:xlink="http://www.w3.org/1999/xlink" x="0" y="0" viewBox="0 0 36 36" xml:space="preserve"><style>.st4{fill:none;stroke:#010101;stroke-width:.5;stroke-miterlimit:10}</style><defs><path id="SVGID_1_" d="M36 18c0-9.9-8.1-18-18-18S0 8.1 0 18s8.1 18 18 18 18-8.1 18-18"/></defs><clipPath id="SVGID_2_"><use xlink:href="#SVGID_1_" overflow="visible"/></clipPath><g clip-path="url(#SVGID_2_)"><path d="M42 18C42 4.7 31.3-6 18-6S-6 4.7-6 18 4.7 42 18 42s24-10.7 24-24" fill-rule="evenodd" clip-rule="evenodd" fill="#d91f26"/><path d="M-4 6h44v4H-4zm0 20h44v4H-4z" fill="#f6eb16"/><path fill="#fff" d="M-4 14h44v8H-4z"/><path class="st4" d="M-4 14h44v8H-4z"/><text transform="translate(10.25 21.1)" font-size="9" font-family="Times-Bold" fill="#010101">NW</text><path class="st4" d="M36 18c0-9.9-8.1-18-18-18S0 8.1 0 18s8.1 18 18 18 18-8.1 18-18"/></g></svg>