<svg xmlns="http://www.w3.org/2000/svg" xmlns:xlink="http://www.w3.org/1999/xlink" viewBox="0 0 36 36"><defs><path id="a" d="M36 18c0-9.9-8.1-18-18-18S0 8.1 0 18s8.1 18 18 18 18-8.1 18-18"/></defs><clipPath id="b"><use xlink:href="#a" overflow="visible"/></clipPath><g clip-path="url(#b)"><path d="M42 18C42 4.7 31.3-6 18-6S-6 4.7-6 18 4.7 42 18 42s24-10.7 24-24" fill-rule="evenodd" clip-rule="evenodd" fill="#ed2224"/><text transform="translate(8.75 21.1)" font-size="9" font-family="Times-Bold" fill="#fff">PRR</text><path d="M36 18c0-9.9-8.1-18-18-18S0 8.1 0 18s8.1 18 18 18 18-8.1 18-18" fill="none" stroke="#010101" stroke-width=".5" stroke-miterlimit="10"/></g></svg>