<?xml version="1.0" encoding="utf-8"?><svg version="1.1" id="Layer_1" xmlns="http://www.w3.org/2000/svg" xmlns:xlink="http://www.w3.org/1999/xlink" x="0px" y="0px" viewBox="0 0 122.88 110.5" style="enable-background:new 0 0 122.88 110.5" xml:space="preserve"><style type="text/css">.st0{fill-rule:evenodd;clip-rule:evenodd;}</style><g><path class="st0" d="M94.3,31.77c-0.85-1.74-1.65-3.5-2.05-5.36c-0.32-1.48-0.38-3.04,0-4.7c-0.7,1.23-1.37,2.47-2.02,3.72 c-2.68,5.18-5.55,11.54-1.68,16.92c1.14,1.58,2.77,2.64,4.84,2.36c1.79-0.24,3.27-1.68,3.53-4.15 C97.27,37.3,95.65,34.56,94.3,31.77L94.3,31.77z M10.63,30.94C6.72,24.16,3.81,17.02,0.74,9.56c1.79,7.02,3.66,13.96,6.54,20.88 L10.63,30.94L10.63,30.94z M23.21,26.23c-1.06-7.76-2.7-15.52-4.84-23.3c3.09,6.46,5.33,13.52,7.18,20.85L23.21,26.23L23.21,26.23z M7.61,0c3.39,12.6,1.89,14.07,3.23,24.21c0.23,1.76,0.49,3.41,1.34,4.74c0.49,0.75,1.17,1.41,2.15,1.91 c4.06,2.1,6.47-0.25,7.4-4.1c0.11-1.28-0.24-2.7-0.96-4.18c-0.95-1.95-2.53-4-4.55-5.96C11.08,11.66,10.28,6.75,7.61,0L7.61,0z M42.81,110.5c-1.21-6.08-3.73-10.61-6.87-14.88l8.39-2.15c0.14,4.88,0.45,9.64,1.29,14.34L42.81,110.5L42.81,110.5z M25.65,85.01 c-1.92-0.25-3.83-0.55-5.6-1.25c-1.41-0.55-2.74-1.36-3.93-2.59c0.64,1.26,1.3,2.5,1.99,3.74c2.85,5.09,6.58,10.98,13.2,10.72 c1.95-0.08,3.73-0.86,4.63-2.74c0.78-1.62,0.4-3.65-1.52-5.23C31.9,85.57,28.72,85.41,25.65,85.01L25.65,85.01z M21.39,71.5 c-1.91-0.31-3.81-0.66-5.56-1.41c-1.39-0.59-2.7-1.44-3.85-2.7c0.6,1.27,1.23,2.54,1.88,3.79c2.7,5.17,6.25,11.17,12.88,11.11 c1.95-0.02,3.75-0.75,4.71-2.61c0.83-1.6,0.51-3.64-1.36-5.27C27.62,72.25,24.45,72,21.39,71.5L21.39,71.5z M17.57,59.09 c-1.89-0.41-3.77-0.85-5.49-1.69c-1.36-0.66-2.62-1.57-3.71-2.89c0.54,1.3,1.1,2.6,1.69,3.88c2.43,5.3,5.68,11.48,12.3,11.74 c1.95,0.08,3.78-0.56,4.84-2.36c0.91-1.56,0.69-3.61-1.09-5.34C23.76,60.15,20.6,59.74,17.57,59.09L17.57,59.09z M13.01,46.04 c-1.91-0.33-3.8-0.7-5.55-1.47c-1.39-0.61-2.69-1.46-3.82-2.74c0.59,1.28,1.2,2.55,1.84,3.81c2.65,5.2,6.13,11.24,12.76,11.24 c1.95,0,3.76-0.71,4.74-2.56c0.84-1.59,0.54-3.63-1.31-5.29C19.24,46.85,16.07,46.57,13.01,46.04L13.01,46.04z M8.95,33.3 c-1.87-0.5-3.72-1.04-5.39-1.96c-1.33-0.73-2.54-1.7-3.56-3.07c0.47,1.33,0.97,2.65,1.49,3.96c2.17,5.42,5.09,11.74,11.7,12.34 c1.94,0.18,3.81-0.37,4.95-2.12c0.98-1.51,0.87-3.57-0.83-5.38C15.08,34.67,11.95,34.1,8.95,33.3L8.95,33.3z M44.5,77.95 c1.3-1.43,2.57-2.88,3.48-4.56c0.72-1.33,1.23-2.8,1.34-4.51c0.32,1.37,0.61,2.75,0.88,4.14c1.1,5.73,2.04,12.64-3.2,16.7 c-1.54,1.2-3.41,1.74-5.31,0.88c-1.64-0.74-2.65-2.54-2.21-4.98C40.08,82.4,42.41,80.24,44.5,77.95L44.5,77.95z M39.89,65.04 c1.3-1.43,2.57-2.88,3.48-4.56c0.72-1.33,1.23-2.8,1.34-4.51c0.32,1.37,0.61,2.75,0.88,4.14c1.1,5.73,2.04,12.64-3.2,16.7 c-1.54,1.19-3.41,1.74-5.31,0.88c-1.64-0.74-2.65-2.54-2.21-4.98C35.47,69.49,37.79,67.33,39.89,65.04L39.89,65.04z M35.27,52.13 c1.3-1.43,2.57-2.88,3.48-4.56c0.72-1.33,1.23-2.8,1.34-4.51c0.32,1.37,0.61,2.75,0.88,4.14c1.1,5.73,2.04,12.64-3.2,16.7 c-1.54,1.19-3.41,1.74-5.31,0.88c-1.64-0.74-2.65-2.54-2.21-4.98C30.85,56.58,33.18,54.42,35.27,52.13L35.27,52.13z M30.88,39.16 c1.3-1.43,2.57-2.88,3.48-4.56c0.72-1.33,1.23-2.8,1.34-4.51c0.32,1.37,0.61,2.75,0.88,4.14c1.1,5.73,2.04,12.64-3.2,16.7 c-1.54,1.19-3.41,1.74-5.31,0.88c-1.64-0.74-2.65-2.54-2.21-4.98C26.46,43.61,28.79,41.45,30.88,39.16L30.88,39.16z M26.11,26.21 c1.23-1.49,2.43-3.01,3.25-4.73c0.66-1.37,1.08-2.86,1.11-4.57c0.39,1.36,0.75,2.72,1.09,4.09c1.38,5.67,2.67,12.52-2.36,16.84 c-1.48,1.27-3.32,1.91-5.26,1.15c-1.68-0.66-2.78-2.4-2.45-4.86C21.91,30.88,24.13,28.61,26.11,26.21L26.11,26.21z M108.23,40.01 c5.4-5.67,9.91-11.92,14.65-18.44c-3.39,6.4-6.85,12.7-11.28,18.74L108.23,40.01L108.23,40.01z M97.11,32.47 c2.86-7.29,6.28-14.45,10.2-21.5c-4.53,5.55-8.37,11.88-11.9,18.57L97.11,32.47L97.11,32.47z M118.46,10.66 c-6.26,11.45-5.15,13.23-8.85,22.77c-0.64,1.65-1.28,3.2-2.42,4.29c-0.65,0.62-1.46,1.09-2.54,1.35c-4.45,1.09-6.23-1.77-6.23-5.72 c0.2-1.26,0.87-2.56,1.92-3.83c1.38-1.67,3.4-3.29,5.83-4.72C112.33,21.17,114.27,16.58,118.46,10.66L118.46,10.66z M58.19,109.74 c2.61-5.63,6.13-9.44,10.19-12.84l-7.65-4.07c-1.29,4.71-2.71,9.27-4.63,13.63L58.19,109.74L58.19,109.74z M80.88,89.01 c1.92,0.21,3.85,0.37,5.74,0.11c1.5-0.2,2.98-0.67,4.43-1.59c-0.92,1.07-1.86,2.12-2.82,3.16c-3.97,4.27-8.98,9.12-15.36,7.31 c-1.87-0.53-3.42-1.72-3.85-3.76c-0.38-1.76,0.47-3.64,2.71-4.73C74.68,88.08,77.8,88.68,80.88,89.01L80.88,89.01z M88.21,76.89 c1.93,0.15,3.86,0.25,5.74-0.06c1.5-0.25,2.96-0.76,4.38-1.72c-0.89,1.1-1.79,2.18-2.72,3.24c-3.84,4.39-8.7,9.39-15.13,7.76 c-1.89-0.48-3.47-1.61-3.96-3.64c-0.43-1.75,0.37-3.65,2.57-4.81C81.98,76.15,85.11,76.66,88.21,76.89L88.21,76.89z M94.84,65.74 c1.93,0.05,3.86,0.06,5.73-0.35c1.48-0.32,2.92-0.91,4.29-1.94c-0.83,1.14-1.68,2.27-2.56,3.38c-3.62,4.58-8.22,9.81-14.72,8.51 c-1.91-0.38-3.55-1.44-4.14-3.44c-0.52-1.73,0.18-3.67,2.32-4.93C88.58,65.31,91.74,65.65,94.84,65.74L94.84,65.74z M102.35,54.13 c1.93,0.13,3.86,0.21,5.74-0.12c1.49-0.26,2.96-0.79,4.36-1.76c-0.88,1.1-1.77,2.2-2.69,3.27c-3.8,4.43-8.61,9.48-15.05,7.92 c-1.89-0.46-3.49-1.58-4-3.6c-0.45-1.75,0.33-3.66,2.52-4.83C96.11,53.45,99.25,53.92,102.35,54.13L102.35,54.13z M109.3,42.7 c1.93-0.04,3.86-0.13,5.71-0.63c1.46-0.4,2.87-1.05,4.18-2.15c-0.77,1.18-1.56,2.35-2.38,3.5c-3.38,4.75-7.72,10.21-14.28,9.24 c-1.93-0.29-3.61-1.26-4.31-3.23c-0.6-1.7,0-3.67,2.07-5.04C103.02,42.59,106.19,42.77,109.3,42.7L109.3,42.7z M64.23,77.71 c-0.93-1.7-1.82-3.41-2.31-5.25c-0.39-1.47-0.53-3.01-0.24-4.7c-0.63,1.26-1.25,2.53-1.83,3.82c-2.42,5.31-4.96,11.8-0.83,16.99 c1.21,1.52,2.9,2.5,4.95,2.11c1.77-0.33,3.18-1.84,3.32-4.32C67.47,83.08,65.72,80.43,64.23,77.71L64.23,77.71z M71.75,66.25 c-0.93-1.7-1.82-3.41-2.31-5.25c-0.39-1.47-0.53-3.01-0.24-4.7c-0.63,1.26-1.25,2.53-1.83,3.82c-2.42,5.31-4.96,11.8-0.83,16.99 c1.21,1.52,2.9,2.5,4.95,2.11c1.77-0.33,3.18-1.84,3.32-4.32C75,71.62,73.25,68.97,71.75,66.25L71.75,66.25z M79.28,54.79 c-0.93-1.7-1.82-3.41-2.31-5.25c-0.39-1.47-0.53-3.01-0.24-4.7c-0.63,1.26-1.25,2.53-1.83,3.82c-2.42,5.31-4.96,11.8-0.83,16.99 c1.21,1.52,2.9,2.5,4.95,2.11c1.77-0.33,3.18-1.84,3.32-4.32C82.53,60.16,80.77,57.51,79.28,54.79L79.28,54.79z M86.61,43.22 c-0.93-1.7-1.82-3.41-2.31-5.25c-0.39-1.46-0.53-3.01-0.24-4.7c-0.63,1.26-1.25,2.53-1.83,3.82c-2.42,5.31-4.96,11.8-0.83,16.99 c1.21,1.52,2.9,2.5,4.95,2.11c1.77-0.33,3.18-1.84,3.32-4.32C89.85,48.59,88.1,45.94,86.61,43.22L86.61,43.22z"/></g></svg>