<?xml version="1.0" encoding="UTF-8"?>
<!DOCTYPE svg PUBLIC "-//W3C//DTD SVG 1.1//EN" "http://www.w3.org/Graphics/SVG/1.1/DTD/svg11.dtd">
<!-- Creator: CorelDRAW -->
<svg xmlns="http://www.w3.org/2000/svg" xml:space="preserve" width="0.506945in" height="0.506945in" style="shape-rendering:geometricPrecision; text-rendering:geometricPrecision; image-rendering:optimizeQuality; fill-rule:evenodd; clip-rule:evenodd"
viewBox="0 0 0.0285328 0.0285328"
 xmlns:xlink="http://www.w3.org/1999/xlink">
 <defs>
  <style type="text/css">
   <![CDATA[
    .fil1 {fill:none}
    .fil0 {fill:#327E4F;fill-rule:nonzero}
   ]]>
  </style>
 </defs>
 <g id="Layer_x0020_1">
  <metadata id="CorelCorpID_0Corel-Layer"/>
  <g id="_297319520">
   <path id="_821710656" class="fil0" d="M0.0146291 0.00988556l0.00465272 0 0 -0.00234508 -0.004709 0c-0.00144144,-3.10226e-006 -0.00263293,0.000247072 -0.00357092,0.000750303 -0.000938211,0.000500349 -0.00163223,0.00126638 -0.0020887,0.00229523 -0.000456696,0.00102884 -0.000684934,0.00233578 -0.000681831,0.00391482 0,0.00121963 0.000168851,0.00227019 0.00051298,0.00315499 0.000340805,0.000881927 0.000856666,0.00160099 0.00155091,0.00215452 0.000434537,0.000343907 0.000872399,0.000603389 0.00131004,0.00077224 0.000437861,0.000172175 0.000894336,0.000281419 0.00136965,0.000337703 0.000472208,5.31815e-005 0.000981864,7.51189e-005 0.00152276,7.20166e-005l0.00478412 0 0 -0.00234508 -0.00465272 0c-0.000741217,3.10226e-006 -0.00134771,-0.000103261 -0.00181992,-0.000319089 -0.000472208,-0.000215607 -0.000819217,-0.00056594 -0.00104435,-0.00105056 -0.000225135,-0.000484617 -0.000340805,-0.00112878 -0.000343907,-0.00193248l0.00786089 0 0 -0.00234508 -0.00784228 0c5.31815e-005,-0.00105056 0.000344129,-0.00183543 0.000869296,-0.00234841 0.000525389,-0.000512759 0.00130095,-0.000769138 0.00232027,-0.000766036z"/>
  </g>
 </g>
</svg>
