<?xml version="1.0" encoding="UTF-8"?>
<!DOCTYPE svg PUBLIC "-//W3C//DTD SVG 1.1//EN" "http://www.w3.org/Graphics/SVG/1.1/DTD/svg11.dtd">
<!-- Creator: CorelDRAW -->
<svg xmlns="http://www.w3.org/2000/svg" xml:space="preserve" width="0.506945in" height="0.506945in" style="shape-rendering:geometricPrecision; text-rendering:geometricPrecision; image-rendering:optimizeQuality; fill-rule:evenodd; clip-rule:evenodd"
viewBox="0 0 0.0285328 0.0285328"
 xmlns:xlink="http://www.w3.org/1999/xlink">
 <defs>
  <style type="text/css">
   <![CDATA[
    .str0 {stroke:black;stroke-width:0.000390884}
    .fil3 {fill:#fff}
    .fil0 {fill:black}
    .fil2 {fill:black;fill-rule:nonzero}
    .fil1 {fill:black;fill-rule:nonzero}
   ]]>
  </style>
 </defs>
 <g id="Layer_x0020_1">
  <metadata id="CorelCorpID_0Corel-Layer"/>
  <g id="_822801512">
   <circle class="fil3 str0" cx="0.0142664" cy="0.0142664" r="0.0140709"/>
   <g>
    <path id="_822859248" class="fil0" d="M0.0125708 0.0231384c0,0.00122118 -0.000990284,0.00221523 -0.00221146,0.00221523 -0.00122118,0 -0.00221545,-0.000994051 -0.00221545,-0.00221523 0,-0.00121387 0.000994273,-0.00221169 0.00221545,-0.00221169 0.00122118,0 0.00221146,0.000997818 0.00221146,0.00221169z"/>
    <path id="_8228592481" class="fil1" d="M0.0103593 0.0254381l0 -0.000168851 0 0 0.000109465 -2.88067e-006 0.000108136 -8.19882e-006 0.000106363 -1.3517e-005 0.00010459 -1.88351e-005 0.000103039 -2.37101e-005 0.000100602 -2.88067e-005 9.90506e-005 -3.36816e-005 9.63915e-005 -3.81134e-005 9.41756e-005 -4.27668e-005 9.19597e-005 -4.71986e-005 8.9079e-005 -5.11872e-005 8.61984e-005 -5.53974e-005 8.33177e-005 -5.96076e-005 8.04371e-005 -6.31531e-005 7.71132e-005 -6.73633e-005 7.4011e-005 -7.04655e-005 7.04655e-005 -7.4011e-005 6.69201e-005 -7.73348e-005 6.31531e-005 -8.06586e-005 5.91644e-005 -8.35393e-005 5.53974e-005 -8.66416e-005 5.11872e-005 -8.9079e-005 4.71986e-005 -9.17381e-005 4.25452e-005 -9.43972e-005 3.78918e-005 -9.68347e-005 3.346e-005 -9.8829e-005 2.88067e-005 -0.000101045 2.37101e-005 -0.000102818 1.86135e-005 -0.000104812 1.3517e-005 -0.000106585 8.19882e-006 -0.000107914 2.88067e-006 -0.000109687 0.000168851 0 -2.88067e-006 0.000118107 -9.08518e-006 0.000116335 -1.44033e-005 0.000115005 -2.03863e-005 0.000113232 -2.54828e-005 0.000111238 -3.10226e-005 0.000109022 -3.61191e-005 0.000106806 -4.09941e-005 0.000104369 -4.60907e-005 0.000101931 -5.0744e-005 9.92722e-005 -5.51758e-005 9.61699e-005 -5.98292e-005 9.32893e-005 -6.40394e-005 9.0187e-005 -6.8028e-005 8.68632e-005 -7.22382e-005 8.35393e-005 -7.57837e-005 7.97723e-005 -7.97723e-005 7.62268e-005 -8.33177e-005 7.22382e-005 -8.66416e-005 6.84712e-005 -8.99654e-005 6.40394e-005 -9.32893e-005 5.98292e-005 -9.61699e-005 5.5619e-005 -9.90506e-005 5.0744e-005 -0.00010171 4.63122e-005 -0.000104369 4.12157e-005 -0.000106585 3.63407e-005 -0.000109022 3.10226e-005 -0.000111016 2.54828e-005 -0.000113011 2.06078e-005 -0.000115227 1.44033e-005 -0.000116556 9.08518e-006 -0.000117886 2.88067e-006 0 0zm-0.00229988 -0.00229966l0.000168851 0 0 0 2.88067e-006 0.000109687 8.19882e-006 0.000107914 1.3517e-005 0.000106363 1.88351e-005 0.000104812 2.37101e-005 0.000103039 2.88067e-005 0.000100823 3.36816e-005 9.90506e-005 3.81134e-005 9.66131e-005 4.27668e-005 9.43972e-005 4.71986e-005 9.19597e-005 5.14088e-005 8.9079e-005 5.53974e-005 8.66416e-005 5.9386e-005 8.35393e-005 6.35962e-005 8.04371e-005 6.69201e-005 7.75564e-005 7.04655e-005 7.37894e-005 7.42325e-005 7.06871e-005 7.75564e-005 6.71417e-005 8.04371e-005 6.33746e-005 8.35393e-005 5.9386e-005 8.642e-005 5.53974e-005 8.93006e-005 5.14088e-005 9.19597e-005 4.71986e-005 9.43972e-005 4.27668e-005 9.66131e-005 3.81134e-005 9.90506e-005 3.36816e-005 0.000100823 2.88067e-005 0.000103039 2.37101e-005 0.000104812 1.88351e-005 0.000106363 1.3517e-005 0.000107914 8.19882e-006 0.000109687 2.88067e-006 0 0.000168851 -0.000118107 -2.88067e-006 -0.000116335 -9.08518e-006 -0.000115227 -1.44033e-005 -0.000113232 -2.06078e-005 -0.000111016 -2.54828e-005 -0.000109244 -3.10226e-005 -0.000106585 -3.63407e-005 -0.00010459 -4.12157e-005 -0.000101931 -4.63122e-005 -9.90506e-005 -5.0744e-005 -9.63915e-005 -5.53974e-005 -9.30677e-005 -5.98292e-005 -9.0187e-005 -6.4261e-005 -8.70847e-005 -6.82496e-005 -8.33177e-005 -7.24598e-005 -7.99939e-005 -7.60053e-005 -7.62268e-005 -7.99939e-005 -7.22382e-005 -8.33177e-005 -6.84712e-005 -8.70847e-005 -6.4261e-005 -9.0187e-005 -5.98292e-005 -9.32893e-005 -5.53974e-005 -9.61699e-005 -5.0744e-005 -9.90506e-005 -4.63122e-005 -0.000101931 -4.12157e-005 -0.00010459 -3.63407e-005 -0.000106585 -3.10226e-005 -0.000109244 -2.54828e-005 -0.000111016 -2.06078e-005 -0.000113232 -1.44033e-005 -0.000115227 -9.08518e-006 -0.000116335 -2.88067e-006 -0.000118107 0 0zm0.00229988 -0.00229611l0 0.000168851 0 0 -0.000109687 2.88067e-006 -0.000107693 8.19882e-006 -0.000106585 1.37386e-005 -0.000104812 1.86135e-005 -0.000102818 2.39317e-005 -0.000101045 2.90282e-005 -9.90506e-005 3.346e-005 -9.66131e-005 3.8335e-005 -9.43972e-005 4.27668e-005 -9.19597e-005 4.74202e-005 -8.93006e-005 5.11872e-005 -8.61984e-005 5.5619e-005 -8.37609e-005 5.96076e-005 -8.04371e-005 6.33746e-005 -7.75564e-005 6.71417e-005 -7.42325e-005 7.04655e-005 -7.04655e-005 7.42325e-005 -6.69201e-005 7.73348e-005 -6.35962e-005 8.04371e-005 -5.9386e-005 8.35393e-005 -5.5619e-005 8.642e-005 -5.11872e-005 8.9079e-005 -4.71986e-005 9.17381e-005 -4.27668e-005 9.3954e-005 -3.81134e-005 9.66131e-005 -3.36816e-005 9.86074e-005 -2.88067e-005 0.00010038 -2.37101e-005 0.000102596 -1.88351e-005 0.000104369 -1.3517e-005 0.00010592 -8.42041e-006 0.000107249 -2.65908e-006 0.000109022 -0.000168851 0 3.10226e-006 -0.000117443 8.86359e-006 -0.000116113 1.44033e-005 -0.00011434 2.06078e-005 -0.000112789 2.54828e-005 -0.000110573 3.10226e-005 -0.000108801 3.63407e-005 -0.000106585 4.12157e-005 -0.000104147 4.63122e-005 -0.000101488 5.0744e-005 -9.8829e-005 5.5619e-005 -9.61699e-005 5.96076e-005 -9.30677e-005 6.4261e-005 -9.0187e-005 6.84712e-005 -8.70847e-005 7.22382e-005 -8.30961e-005 7.62268e-005 -7.99939e-005 7.99939e-005 -7.62268e-005 8.33177e-005 -7.24598e-005 8.70847e-005 -6.82496e-005 8.99654e-005 -6.40394e-005 9.32893e-005 -6.00508e-005 9.63915e-005 -5.5619e-005 9.90506e-005 -5.09656e-005 0.000101931 -4.63122e-005 0.00010459 -4.14373e-005 0.000106585 -3.61191e-005 0.000109022 -3.12441e-005 0.000111238 -2.57044e-005 0.000113232 -2.03863e-005 0.000115005 -1.46249e-005 0.000116556 -9.08518e-006 0.000118107 -2.88067e-006 0 0zm0.00229589 0.00229611l-0.000168851 0 0 0 -2.65908e-006 -0.000109022 -8.42041e-006 -0.000107249 -1.3517e-005 -0.00010592 -1.86135e-005 -0.00010459 -2.37101e-005 -0.000102374 -2.88067e-005 -0.00010038 -3.346e-005 -9.8829e-005 -3.78918e-005 -9.66131e-005 -4.25452e-005 -9.37324e-005 -4.71986e-005 -9.17381e-005 -5.11872e-005 -8.9079e-005 -5.53974e-005 -8.642e-005 -5.91644e-005 -8.35393e-005 -6.31531e-005 -8.06586e-005 -6.69201e-005 -7.71132e-005 -7.04655e-005 -7.42325e-005 -7.4011e-005 -7.04655e-005 -7.71132e-005 -6.73633e-005 -8.04371e-005 -6.31531e-005 -8.33177e-005 -5.96076e-005 -8.61984e-005 -5.5619e-005 -8.9079e-005 -5.14088e-005 -9.19597e-005 -4.71986e-005 -9.41756e-005 -4.27668e-005 -9.63915e-005 -3.8335e-005 -9.90506e-005 -3.346e-005 -0.000100823 -2.90282e-005 -0.000102818 -2.39317e-005 -0.00010459 -1.86135e-005 -0.000106585 -1.37386e-005 -0.000107914 -8.19882e-006 -0.000109465 -2.88067e-006 0 -0.000168851 0.000117886 2.88067e-006 0.000116778 9.08518e-006 0.000115005 1.46249e-005 0.000113011 2.03863e-005 0.000111238 2.57044e-005 0.000108801 3.12441e-005 0.000106585 3.61191e-005 0.000104369 4.14373e-005 0.00010171 4.63122e-005 9.90506e-005 5.11872e-005 9.61699e-005 5.53974e-005 9.32893e-005 6.00508e-005 8.99654e-005 6.40394e-005 8.66416e-005 6.84712e-005 8.33177e-005 7.22382e-005 7.97723e-005 7.62268e-005 7.57837e-005 7.99939e-005 7.22382e-005 8.33177e-005 6.8028e-005 8.68632e-005 6.40394e-005 9.0187e-005 5.98292e-005 9.30677e-005 5.51758e-005 9.61699e-005 5.0744e-005 9.8829e-005 4.60907e-005 0.00010171 4.09941e-005 0.000104147 3.61191e-005 0.000106363 3.10226e-005 0.000108801 2.54828e-005 0.000110795 2.03863e-005 0.000112568 1.44033e-005 0.00011434 8.86359e-006 0.000116113 3.10226e-006 0.000117443 0 0z"/>
   </g>
   <g>
    <path class="fil0" d="M0.0209854 0.0231384c0,0.00122118 -0.000994051,0.00221523 -0.00221169,0.00221523 -0.00122118,0 -0.00221523,-0.000994051 -0.00221523,-0.00221523 0,-0.00121387 0.000994051,-0.00221169 0.00221523,-0.00221169 0.00121764,0 0.00221169,0.000997818 0.00221169,0.00221169z"/>
    <path id="1" class="fil1" d="M0.0187737 0.0254381l0 -0.000168851 0 0 0.000109244 -2.88067e-006 0.000107693 -8.19882e-006 0.000106141 -1.3517e-005 0.00010459 -1.88351e-005 0.000102818 -2.37101e-005 0.000100602 -2.88067e-005 9.86074e-005 -3.36816e-005 9.66131e-005 -3.81134e-005 9.41756e-005 -4.27668e-005 9.17381e-005 -4.71986e-005 8.9079e-005 -5.11872e-005 8.61984e-005 -5.53974e-005 8.35393e-005 -5.96076e-005 8.04371e-005 -6.33746e-005 7.71132e-005 -6.71417e-005 7.42325e-005 -7.04655e-005 7.04655e-005 -7.4011e-005 6.69201e-005 -7.73348e-005 6.33746e-005 -8.06586e-005 5.9386e-005 -8.35393e-005 5.53974e-005 -8.66416e-005 5.14088e-005 -8.9079e-005 4.71986e-005 -9.17381e-005 4.25452e-005 -9.43972e-005 3.81134e-005 -9.68347e-005 3.36816e-005 -9.90506e-005 2.88067e-005 -0.000100823 2.39317e-005 -0.000103039 1.86135e-005 -0.00010459 1.3517e-005 -0.000106585 8.19882e-006 -0.000107914 2.88067e-006 -0.000109687 0.000168851 0 -2.88067e-006 0.000118107 -9.08518e-006 0.000116335 -1.44033e-005 0.000115005 -2.03863e-005 0.000113454 -2.57044e-005 0.000111016 -3.10226e-005 0.000109244 -3.63407e-005 0.000106585 -4.12157e-005 0.000104369 -4.60907e-005 0.000101931 -5.0744e-005 9.92722e-005 -5.53974e-005 9.61699e-005 -5.98292e-005 9.32893e-005 -6.4261e-005 9.0187e-005 -6.82496e-005 8.68632e-005 -7.22382e-005 8.35393e-005 -7.62268e-005 7.97723e-005 -7.95507e-005 7.62268e-005 -8.33177e-005 7.24598e-005 -8.70847e-005 6.82496e-005 -8.97438e-005 6.40394e-005 -9.32893e-005 5.98292e-005 -9.61699e-005 5.5619e-005 -9.8829e-005 5.0744e-005 -0.00010171 4.63122e-005 -0.000104147 4.12157e-005 -0.000106585 3.63407e-005 -0.000109022 3.10226e-005 -0.000110795 2.54828e-005 -0.000113011 2.06078e-005 -0.000114562 1.44033e-005 -0.000116556 9.08518e-006 -0.000117664 2.88067e-006 0 0zm-0.00229966 -0.00229966l0.000168851 0 0 0 2.88067e-006 0.000109687 8.19882e-006 0.000107914 1.3517e-005 0.000106363 1.88351e-005 0.000104812 2.37101e-005 0.000103039 2.88067e-005 0.000100823 3.36816e-005 9.90506e-005 3.81134e-005 9.66131e-005 4.27668e-005 9.43972e-005 4.71986e-005 9.19597e-005 5.14088e-005 8.9079e-005 5.53974e-005 8.66416e-005 5.9386e-005 8.35393e-005 6.33746e-005 8.04371e-005 6.71417e-005 7.75564e-005 7.04655e-005 7.4011e-005 7.4011e-005 7.04655e-005 7.75564e-005 6.71417e-005 8.04371e-005 6.33746e-005 8.35393e-005 5.9386e-005 8.66416e-005 5.53974e-005 8.9079e-005 5.14088e-005 9.19597e-005 4.71986e-005 9.43972e-005 4.27668e-005 9.66131e-005 3.81134e-005 9.90506e-005 3.36816e-005 0.000100823 2.88067e-005 0.000103039 2.37101e-005 0.000104812 1.88351e-005 0.000106363 1.3517e-005 0.000107914 8.19882e-006 0.000109687 2.88067e-006 0 0.000168851 -0.000118107 -2.88067e-006 -0.000116335 -9.08518e-006 -0.000115227 -1.44033e-005 -0.000113232 -2.06078e-005 -0.000111016 -2.54828e-005 -0.000109244 -3.10226e-005 -0.000106585 -3.63407e-005 -0.00010459 -4.12157e-005 -0.000101931 -4.63122e-005 -9.90506e-005 -5.0744e-005 -9.61699e-005 -5.53974e-005 -9.32893e-005 -5.98292e-005 -9.0187e-005 -6.4261e-005 -8.70847e-005 -6.82496e-005 -8.33177e-005 -7.24598e-005 -7.97723e-005 -7.62268e-005 -7.62268e-005 -7.97723e-005 -7.24598e-005 -8.33177e-005 -6.82496e-005 -8.70847e-005 -6.4261e-005 -9.0187e-005 -5.98292e-005 -9.32893e-005 -5.53974e-005 -9.61699e-005 -5.0744e-005 -9.90506e-005 -4.63122e-005 -0.000101931 -4.12157e-005 -0.00010459 -3.63407e-005 -0.000106585 -3.10226e-005 -0.000109244 -2.54828e-005 -0.000111016 -2.06078e-005 -0.000113232 -1.44033e-005 -0.000115227 -9.08518e-006 -0.000116335 -2.88067e-006 -0.000118107 0 0zm0.00229966 -0.00229611l0 0.000168851 0 0 -0.000109687 2.88067e-006 -0.000107693 8.19882e-006 -0.000106585 1.37386e-005 -0.000104812 1.86135e-005 -0.000102818 2.39317e-005 -0.000101045 2.90282e-005 -9.90506e-005 3.346e-005 -9.66131e-005 3.8335e-005 -9.43972e-005 4.27668e-005 -9.19597e-005 4.71986e-005 -8.9079e-005 5.14088e-005 -8.642e-005 5.58406e-005 -8.37609e-005 5.9386e-005 -8.04371e-005 6.33746e-005 -7.75564e-005 6.71417e-005 -7.37894e-005 7.04655e-005 -7.06871e-005 7.42325e-005 -6.71417e-005 7.73348e-005 -6.33746e-005 8.04371e-005 -5.9386e-005 8.35393e-005 -5.5619e-005 8.642e-005 -5.11872e-005 8.9079e-005 -4.71986e-005 9.17381e-005 -4.27668e-005 9.3954e-005 -3.81134e-005 9.66131e-005 -3.36816e-005 9.86074e-005 -2.88067e-005 0.00010038 -2.37101e-005 0.000102596 -1.88351e-005 0.000104369 -1.3517e-005 0.00010592 -8.42041e-006 0.000107249 -2.65908e-006 0.000109022 -0.000168851 0 3.10226e-006 -0.000117443 8.86359e-006 -0.000116113 1.44033e-005 -0.00011434 2.06078e-005 -0.000112789 2.54828e-005 -0.000110573 3.10226e-005 -0.000108801 3.63407e-005 -0.000106585 4.12157e-005 -0.000104147 4.63122e-005 -0.000101488 5.0744e-005 -9.8829e-005 5.5619e-005 -9.61699e-005 5.96076e-005 -9.30677e-005 6.4261e-005 -9.0187e-005 6.82496e-005 -8.70847e-005 7.24598e-005 -8.30961e-005 7.60053e-005 -7.99939e-005 7.99939e-005 -7.62268e-005 8.33177e-005 -7.24598e-005 8.70847e-005 -6.82496e-005 8.99654e-005 -6.4261e-005 9.35108e-005 -5.98292e-005 9.61699e-005 -5.53974e-005 9.90506e-005 -5.11872e-005 0.000101931 -4.63122e-005 0.00010459 -4.14373e-005 0.000106585 -3.61191e-005 0.000109022 -3.12441e-005 0.000111238 -2.57044e-005 0.000113232 -2.03863e-005 0.000115005 -1.46249e-005 0.000116556 -9.08518e-006 0.000118107 -2.88067e-006 0 0zm0.00229611 0.00229611l-0.000168851 0 0 0 -2.65908e-006 -0.000109022 -8.42041e-006 -0.000107249 -1.3517e-005 -0.00010592 -1.86135e-005 -0.000104369 -2.39317e-005 -0.000102374 -2.88067e-005 -0.000100602 -3.36816e-005 -9.86074e-005 -3.81134e-005 -9.66131e-005 -4.25452e-005 -9.3954e-005 -4.71986e-005 -9.17381e-005 -5.11872e-005 -8.9079e-005 -5.5619e-005 -8.642e-005 -5.9386e-005 -8.35393e-005 -6.33746e-005 -8.04371e-005 -6.69201e-005 -7.73348e-005 -7.06871e-005 -7.42325e-005 -7.4011e-005 -7.04655e-005 -7.71132e-005 -6.71417e-005 -8.04371e-005 -6.33746e-005 -8.35393e-005 -5.96076e-005 -8.61984e-005 -5.5619e-005 -8.93006e-005 -5.14088e-005 -9.15165e-005 -4.71986e-005 -9.41756e-005 -4.27668e-005 -9.66131e-005 -3.8335e-005 -9.86074e-005 -3.346e-005 -0.000100823 -2.90282e-005 -0.000102596 -2.39317e-005 -0.00010459 -1.86135e-005 -0.000106141 -1.37386e-005 -0.000107693 -8.19882e-006 -0.000109244 -2.88067e-006 0 -0.000168851 0.000117664 2.88067e-006 0.000116556 9.08518e-006 0.000114562 1.46249e-005 0.000113011 2.03863e-005 0.000111016 2.57044e-005 0.000108801 3.12441e-005 0.000106585 3.61191e-005 0.000104147 4.14373e-005 0.00010171 4.63122e-005 9.90506e-005 5.11872e-005 9.59483e-005 5.53974e-005 9.32893e-005 6.00508e-005 8.97438e-005 6.40394e-005 8.70847e-005 6.82496e-005 8.33177e-005 7.24598e-005 7.97723e-005 7.62268e-005 7.60053e-005 7.99939e-005 7.22382e-005 8.30961e-005 6.82496e-005 8.70847e-005 6.4261e-005 9.0187e-005 5.96076e-005 9.30677e-005 5.5619e-005 9.61699e-005 5.0744e-005 9.8829e-005 4.60907e-005 0.000101488 4.12157e-005 0.000104147 3.63407e-005 0.000106585 3.10226e-005 0.000108579 2.57044e-005 0.000110795 2.03863e-005 0.000112789 1.44033e-005 0.00011434 8.86359e-006 0.000116113 3.10226e-006 0.000117443 0 0z"/>
   </g>
   <g>
    <polygon class="fil0" points="0.00819239,0.0211204 0.00501635,0.0155913 0.0236325,0.0155913 0.0208476,0.0210721 0.0206019,0.0208299 0.0203599,0.02064 0.0199801,0.0204279 0.0194662,0.0202604 0.0189599,0.0202008 0.0186397,0.020197 0.0183009,0.0202008 0.01791,0.0202825 0.0175078,0.0204503 0.017251,0.0205954 0.0169383,0.0208188 0.0166553,0.021057 0.0164096,0.0213475 0.0162235,0.0216491 0.0160743,0.0219804 0.015985,0.0222746 0.0159181,0.0225053 0.0158585,0.0228069 0.0158361,0.0229968 0.0132932,0.0229968 0.0132856,0.0227289 0.0132149,0.0223229 0.013055,0.0219358 0.0128613,0.0216006 0.0126193,0.0212618 0.0123326,0.0209788 0.0120421,0.0207333 0.0117219,0.0205283 0.0113571,0.0203721 0.0109363,0.0202529 0.0105751,0.0202045 0.0102439,0.020197 0.0100243,0.0202045 0.0095401,0.0203012 0.00915675,0.0204465 0.00884387,0.020614 0.00857951,0.0207964 0.00840822,0.020938 0.00828923,0.0210346 0.00819239,0.0211204 "/>
    <path id="1" class="fil1" d="M0.00508947 0.0155492l0.00317604 0.00552911 -0.000146249 8.42041e-005 -0.00317604 -0.00552911 7.31246e-005 -0.000126528 7.31246e-005 4.23236e-005zm0.0185431 0.000126528l-0.0186162 0 0 -0.000168851 0.0186162 0 7.53405e-005 0.000122761 -7.53405e-005 4.60907e-005zm-0.00286028 0.00535804l0.00278494 -0.0054808 0.000150681 7.667e-005 -0.00278494 0.0054808 -0.000134505 2.17158e-005 -1.6176e-005 -9.83858e-005zm-0.000111238 -0.000263913l0.000245743 0.000242198 -0.000118329 0.000120102 -0.000245743 -0.000242198 0.000111238 -0.000126528 7.09087e-006 6.4261e-006zm-0.000249067 -0.000196328l0.000241976 0.000189902 -0.000104147 0.000132954 -0.000241976 -0.000189902 9.32893e-005 -0.000140266 1.08579e-005 7.31246e-006zm-0.000390663 -0.000219374l0.000379805 0.000212061 -8.24314e-005 0.000147579 -0.000379805 -0.000212061 6.73633e-005 -0.000154005 1.50681e-005 6.4261e-006zm-0.000528935 -0.000173948l0.000513866 0.000167522 -5.22952e-005 0.000160431 -0.000513866 -0.000167522 3.61191e-005 -0.000163976 1.6176e-005 3.54543e-006zm-0.000522508 -6.31531e-005l0.000506332 5.96076e-005 -1.99431e-005 0.000167522 -0.000506332 -5.96076e-005 1.08579e-005 -0.000168187 9.08518e-006 6.64769e-007zm-0.000329282 -4.43179e-006l0.000320197 3.76702e-006 -1.77272e-006 0.000168851 -0.000320197 -3.76702e-006 0 -0.000168851 1.77272e-006 0zm-0.000340583 3.76702e-006l0.000338811 -3.76702e-006 1.77272e-006 0.000168851 -0.000338811 3.76702e-006 -1.81704e-005 -0.000167079 1.63976e-005 -1.77272e-006zm-0.000407282 8.35393e-005l0.000390884 -8.17666e-005 3.4568e-005 0.000165306 -0.000390884 8.17666e-005 -4.98577e-005 -0.000160653 1.52897e-005 -4.65338e-006zm-0.000417475 0.000172397l0.000402185 -0.000167743 6.51474e-005 0.000155999 -0.000402185 0.000167743 -7.4011e-005 -0.000151567 8.86359e-006 -4.43179e-006zm-0.000265686 0.000149573l0.000256822 -0.000145141 8.28745e-005 0.000147136 -0.000256822 0.000145141 -9.04086e-005 -0.000142261 7.53405e-006 -4.87497e-006zm-0.000320197 0.000228237l0.000312663 -0.000223362 9.79426e-005 0.000137386 -0.000312663 0.000223362 -0.000103261 -0.000133175 5.31815e-006 -4.2102e-006zm-0.000288288 0.000242419l0.00028297 -0.000238209 0.000108579 0.000128965 -0.00028297 0.000238209 -0.000118772 -0.000118994 1.01931e-005 -9.97154e-006zm-0.000255936 0.000300476l0.000245743 -0.000290504 0.000128965 0.000109022 -0.000245743 0.000290504 -0.000136278 -9.8829e-005 7.31246e-006 -1.01931e-005zm-0.000193448 0.000311777l0.000186135 -0.000301584 0.00014359 8.86359e-005 -0.000186135 0.000301584 -0.000148687 -7.88859e-005 5.09656e-006 -9.74995e-006zm-0.000154226 0.000341027l0.00014913 -0.000331277 0.000153783 6.9136e-005 -0.00014913 0.000331277 -0.000157772 -5.91644e-005 3.98861e-006 -9.97154e-006zm-9.32893e-005 0.000304243l8.93006e-005 -0.000294271 0.00016176 4.91929e-005 -8.93006e-005 0.000294271 -0.000161982 -4.8085e-005 2.2159e-007 -1.10795e-006zm-6.71417e-005 0.000231783l6.69201e-005 -0.000230675 0.000162204 4.6977e-005 -6.69201e-005 0.000230675 -0.000163976 -3.98861e-005 1.77272e-006 -7.09087e-006zm-6.13803e-005 0.000308674l5.96076e-005 -0.000301584 0.000165749 3.27953e-005 -5.96076e-005 0.000301584 -0.000166635 -2.63692e-005 8.86359e-007 -6.4261e-006zm-2.32669e-005 0.000196328l2.23806e-005 -0.000189902 0.000167522 1.99431e-005 -2.23806e-005 0.000189902 -8.37609e-005 7.44541e-005 -8.37609e-005 -9.43972e-005zm-0.0024592 -7.44541e-005l0.00254296 0 0 0.000168851 -0.00254296 0 -8.44257e-005 -8.19882e-005 8.44257e-005 -8.68632e-005zm7.68916e-005 -0.000185914l7.53405e-006 0.000267902 -0.000168851 4.87497e-006 -7.53405e-006 -0.000267902 0.000167522 -1.68408e-005 1.32954e-006 1.19658e-005zm-7.20166e-005 -0.000417918l7.06871e-005 0.000405952 -0.000166192 2.88067e-005 -7.06871e-005 -0.000405952 0.000161096 -4.67554e-005 5.09656e-006 1.79488e-005zm-0.000165084 -0.000405066l0.000159988 0.000387117 -0.000155999 6.47042e-005 -0.000159988 -0.000387117 0.000151124 -7.46757e-005 4.87497e-006 9.97154e-006zm-0.000198544 -0.000345237l0.000193669 0.000335265 -0.000146249 8.46473e-005 -0.000193669 -0.000335265 0.000141817 -9.12949e-005 4.43179e-006 6.64769e-006zm-0.000246408 -0.000345458l0.000241976 0.000338811 -0.000137386 9.79426e-005 -0.000241976 -0.000338811 0.000128079 -0.000109022 9.30677e-006 1.10795e-005zm-0.000296044 -0.000294049l0.000286737 0.00028297 -0.000118772 0.000120102 -0.000286737 -0.00028297 0.000113897 -0.000124533 4.87497e-006 4.43179e-006zm-0.000295379 -0.000249953l0.000290504 0.000245521 -0.000109022 0.000128965 -0.000290504 -0.000245521 9.99369e-005 -0.000135613 9.08518e-006 6.64769e-006zm-0.000329282 -0.000211618l0.000320197 0.00020497 -9.08518e-005 0.000142261 -0.000320197 -0.00020497 7.86643e-005 -0.000148687 1.21874e-005 6.4261e-006zm-0.000376924 -0.000162647l0.000364737 0.000156221 -6.64769e-005 0.000155113 -0.000364737 -0.000156221 5.62838e-005 -0.00015888 1.01931e-005 3.76702e-006zm-0.000430992 -0.000122982l0.000420799 0.000119215 -4.60907e-005 0.000162647 -0.000420799 -0.000119215 3.43464e-005 -0.000165084 1.17443e-005 2.43749e-006zm-0.000372935 -5.0744e-005l0.000361191 4.83065e-005 -2.26021e-005 0.000167522 -0.000361191 -4.83065e-005 1.32954e-005 -0.000168187 9.30677e-006 6.64769e-007zm-0.000340583 -8.19882e-006l0.000331277 7.53405e-006 -3.98861e-006 0.000168851 -0.000331277 -7.53405e-006 -8.86359e-007 -0.000168851 4.87497e-006 0zm-0.00022447 7.53405e-006l0.000219595 -7.53405e-006 5.76133e-006 0.000168851 -0.000219595 7.53405e-006 -1.94999e-005 -0.0001673 1.37386e-005 -1.55113e-006zm-0.000497912 9.81642e-005l0.000484173 -9.66131e-005 3.32385e-005 0.000165749 -0.000484173 9.66131e-005 -4.65338e-005 -0.00016176 1.32954e-005 -3.98861e-006zm-0.000396646 0.000149351l0.00038335 -0.000145363 5.98292e-005 0.000157772 -0.00038335 0.000145363 -6.98007e-005 -0.00015334 9.97154e-006 -4.43179e-006zm-0.000322856 0.000171954l0.000312885 -0.000167522 7.97723e-005 0.000148908 -0.000312885 0.000167522 -8.77495e-005 -0.000144033 7.97723e-006 -4.87497e-006zm-0.000272334 0.000187243l0.000264356 -0.000182368 9.57267e-005 0.000139158 -0.000264356 0.000182368 -0.00010171 -0.000134727 5.98292e-006 -4.43179e-006zm-0.000177272 0.000146028l0.000171289 -0.000141596 0.000107693 0.000130295 -0.000171289 0.000141596 -6.64769e-007 4.43179e-007 -0.000107028 -0.000130738zm-0.000118329 9.61699e-005l0.000118994 -9.66131e-005 0.000106363 0.000131181 -0.000118994 9.66131e-005 -0.000109244 -0.000128744 2.88067e-006 -2.43749e-006zm-9.97154e-005 8.81927e-005l9.68347e-005 -8.57552e-005 0.000112124 0.000126306 -9.68347e-005 8.57552e-005 -0.000129187 -2.1051e-005 1.70624e-005 -0.000105255zm5.60622e-005 6.31531e-005l0 0 0 0 0 0 -7.31246e-005 4.2102e-005 7.31246e-005 -4.2102e-005z"/>
   </g>
   <g>
    <polygon class="fil0" points="0.0228656,0.0150628 0.00554506,0.0150628 0.00549675,0.0142919 0.0059324,0.0135697 0.00660249,0.0135249 0.00699337,0.0130893 0.00708666,0.0124154 0.00761515,0.0119836 0.00833753,0.0119353 0.00881794,0.0123186 0.00915675,0.0118384 0.00929812,0.0112129 0.00982684,0.0109224 0.0102142,0.0108255 0.0108395,0.0112129 0.0112268,0.0110677 0.0113682,0.0106842 0.0118039,0.0104422 0.0120906,0.0100103 0.0126193,0.00986495 0.0132001,0.00981664 0.0136805,0.0103006 0.0140601,0.0104422 0.014492,0.0100586 0.0148793,0.0096715 0.0152143,0.00962674 0.0155532,0.00962674 0.0157914,0.0096715 0.0162235,0.0096715 0.0166553,0.00981664 0.0169942,0.0102485 0.0171393,0.010539 0.0175229,0.0105873 0.0180031,0.0105873 0.0184387,0.011023 0.0185355,0.0113097 0.0186769,0.0118867 0.0188668,0.0121249 0.0193025,0.0119836 0.0196898,0.0117416 0.0200731,0.0117416 0.0204082,0.0119353 0.0206504,0.0123186 0.0211306,0.0123671 0.0212757,0.0126574 0.0212757,0.0130893 0.0216145,0.013376 0.0219498,0.0134281 0.0222401,0.0134281 0.0224783,0.0135697 0.0225751,0.01386 0.0225751,0.0141988 0.0228135,0.0143887 0.0229104,0.0145786 0.0229104,0.0147723 0.0228656,0.0150628 "/>
    <path id="1" class="fil1" d="M0.00554506 0.0149784l0.0173206 0 0 0.000168851 -0.0173206 0 -8.42041e-005 -7.91075e-005 8.42041e-005 -8.97438e-005zm3.58975e-005 -0.000691803l4.83065e-005 0.00077091 -0.000168408 1.06363e-005 -4.83065e-005 -0.00077091 1.19658e-005 -4.89713e-005 0.000156442 3.8335e-005zm0.000423679 -0.000673189l-0.000435645 0.000722161 -0.000144476 -8.73063e-005 0.000435645 -0.000722161 6.66985e-005 -4.05509e-005 7.7778e-005 0.000127857zm0.000603389 -4.2102e-006l-0.000670087 4.47611e-005 -1.10795e-005 -0.000168408 0.000670087 -4.47611e-005 6.84712e-005 0.000140488 -5.73917e-005 2.79203e-005zm0.000448276 -0.000463566l-0.000390884 0.000435645 -0.000125863 -0.000112568 0.000390884 -0.000435645 0.000146471 6.78064e-005 -2.06078e-005 4.47611e-005zm0.000113897 -0.000718615l-9.32893e-005 0.000673854 -0.000167079 -2.30453e-005 9.32893e-005 -0.000673854 3.01362e-005 -5.38463e-005 0.000136942 7.68916e-005zm0.000498355 -0.000378032l-0.000528491 0.000431878 -0.000106806 -0.000130738 0.000528491 -0.000431878 4.78634e-005 -1.88351e-005 5.89429e-005 0.000149573zm0.000674519 -2.94714e-005l-0.000722382 4.83065e-005 -1.10795e-005 -0.000168408 0.000722382 -4.83065e-005 5.82781e-005 1.81704e-005 -4.71986e-005 0.000150238zm0.000422128 0.00036518l-0.000480406 -0.00038335 0.000105477 -0.000132067 0.000480406 0.00038335 1.6176e-005 0.000114783 -0.000121653 1.7284e-005zm0.000460463 -0.000497469l-0.000338811 0.000480185 -0.000137829 -9.74995e-005 0.000338811 -0.000480185 0.000151346 6.73633e-005 -1.3517e-005 3.01362e-005zm0.000154891 -0.000655684l-0.000141374 0.000625548 -0.000164863 -3.72271e-005 0.000141374 -0.000625548 4.18804e-005 -5.53974e-005 0.000122982 9.26245e-005zm0.000486833 -0.000235107l-0.000528713 0.000290504 -8.11018e-005 -0.000148022 0.000528713 -0.000290504 2.01647e-005 -7.97723e-006 6.09372e-005 0.000155999zm0.000367174 -8.88575e-005l-0.000387339 9.68347e-005 -4.07725e-005 -0.000163976 0.000387339 -9.68347e-005 6.49258e-005 1.01931e-005 -2.41533e-005 0.000153783zm0.0005604 0.000377146l-0.000625326 -0.000387339 8.9079e-005 -0.00014359 0.000625326 0.000387339 -1.48465e-005 0.000150903 -7.42325e-005 -7.31246e-006zm0.000461571 -0.000137829l-0.000387339 0.000145141 -5.9386e-005 -0.000158215 0.000387339 -0.000145141 0.000108801 0.000108357 -4.94145e-005 4.98577e-005zm0.000190789 -0.000433429l-0.000141374 0.000383572 -0.000158215 -5.84997e-005 0.000141374 -0.000383572 3.81134e-005 -4.45395e-005 0.000120102 0.000103039zm0.000397532 -0.000197436l-0.000435645 0.000241976 -8.19882e-005 -0.000147579 0.000435645 -0.000241976 0.000111238 0.000120545 -2.92498e-005 2.70339e-005zm0.000315987 -0.000458912l-0.000286737 0.000431878 -0.000140488 -9.35108e-005 0.000286737 -0.000431878 4.78634e-005 -3.4568e-005 9.26245e-005 0.000128079zm0.00048085 -0.000110795l-0.000528713 0.000145363 -4.47611e-005 -0.000162647 0.000528713 -0.000145363 1.52897e-005 -2.88067e-006 2.94714e-005 0.000165527zm0.000565497 -4.54259e-005l-0.000580787 4.83065e-005 -1.41817e-005 -0.000168408 0.000580787 -4.83065e-005 6.69201e-005 2.4818e-005 -5.27383e-005 0.00014359zm0.000413486 0.000459134l-0.000480406 -0.000483952 0.000119658 -0.000118772 0.000480406 0.000483952 -8.93006e-005 0.000138494 -3.03578e-005 -1.97215e-005zm0.000409941 0.000161317l-0.000379583 -0.000141596 5.89429e-005 -0.000158215 0.000379583 0.000141596 2.65908e-005 0.000142261 -8.55336e-005 1.59545e-005zm0.000517412 -0.000399526l-0.000431878 0.000383572 -0.000112124 -0.000126306 0.000431878 -0.000383572 0.00011567 0.000122761 -3.54543e-006 3.54543e-006zm0.000390884 -0.000390663l-0.000387339 0.000387117 -0.000119215 -0.000119215 0.000387339 -0.000387117 4.85281e-005 -2.41533e-005 7.06871e-005 0.000143369zm0.000286515 -2.06078e-005l-0.000335044 4.47611e-005 -2.2159e-005 -0.000167522 0.000335044 -4.47611e-005 1.10795e-005 -6.64769e-007 1.10795e-005 0.000168187zm0.000327731 6.64769e-007l-0.000338811 0 0 -0.000168851 0.000338811 0 1.55113e-005 1.55113e-006 -1.55113e-005 0.0001673zm0.000222698 4.321e-005l-0.000238209 -4.47611e-005 3.10226e-005 -0.000165749 0.000238209 4.47611e-005 -1.55113e-005 0.0001673 -1.55113e-005 -1.55113e-006zm0.000447611 1.55113e-006l-0.0004321 0 0 -0.000168851 0.0004321 0 2.68124e-005 4.43179e-006 -2.68124e-005 0.00016442zm0.000405066 0.000140709l-0.000431878 -0.000145141 5.36247e-005 -0.000159988 0.000431878 0.000145141 3.96646e-005 2.79203e-005 -9.32893e-005 0.000132067zm0.000299146 0.000403958l-0.000338811 -0.000431878 0.000132954 -0.000104147 0.000338811 0.000431878 9.08518e-006 1.44033e-005 -0.000142039 8.97438e-005zm0.000136056 0.000276101l-0.000145141 -0.000290504 0.000151124 -7.53405e-005 0.000145141 0.000290504 -8.61984e-005 0.000121431 -6.49258e-005 -4.60907e-005zm0.000448498 9.43972e-005l-0.000383572 -4.83065e-005 2.12726e-005 -0.000167522 0.000383572 4.83065e-005 -1.06363e-005 0.000168187 -1.06363e-005 -6.64769e-007zm0.000490821 6.64769e-007l-0.000480185 0 0 -0.000168851 0.000480185 0 5.96076e-005 2.4818e-005 -5.96076e-005 0.000144033zm0.000376038 0.000410827l-0.000435645 -0.000435645 0.000119215 -0.000119215 0.000435645 0.000435645 2.03863e-005 3.25737e-005 -0.000139601 8.66416e-005zm7.64484e-005 0.000254163l-9.68347e-005 -0.000286737 0.000159988 -5.40679e-005 9.68347e-005 0.000286737 1.99431e-006 6.86928e-006 -0.000161982 4.71986e-005zm0.00013938 0.00057015l-0.000141374 -0.00057702 0.000163976 -4.03293e-005 0.000141374 0.00057702 -0.000148022 7.26814e-005 -1.59545e-005 -3.23521e-005zm0.000205857 0.000270561l-0.000189902 -0.000238209 0.000132067 -0.000105034 0.000189902 0.000238209 -3.98861e-005 0.000132732 -9.21813e-005 -2.76987e-005zm0.000527827 -0.000113676l-0.000435645 0.000141374 -5.22952e-005 -0.000160431 0.000435645 -0.000141374 7.09087e-005 0.000151789 -1.86135e-005 8.642e-006zm0.000405952 -0.000250618l-0.000387339 0.000241976 -8.95222e-005 -0.000143147 0.000387339 -0.000241976 4.47611e-005 -1.28522e-005 4.47611e-005 0.000155999zm0.000338589 1.28522e-005l-0.00038335 0 0 -0.000168851 0.00038335 0 4.23236e-005 1.13011e-005 -4.23236e-005 0.00015755zm0.00029272 0.000182368l-0.000335044 -0.000193669 8.46473e-005 -0.000146249 0.000335044 0.000193669 2.90282e-005 2.81419e-005 -0.000113676 0.000118107zm0.000213169 0.000355208l-0.000242198 -0.00038335 0.000142704 -8.99654e-005 0.000242198 0.00038335 -7.97723e-005 0.000128965 -6.29315e-005 -3.89998e-005zm0.000543116 8.75279e-005l-0.000480185 -4.85281e-005 1.68408e-005 -0.000167965 0.000480185 4.85281e-005 6.71417e-005 4.63122e-005 -8.39825e-005 0.000121653zm7.79996e-005 0.00024397l-0.000145141 -0.000290282 0.000151124 -7.53405e-005 0.000145141 0.000290282 8.86359e-006 3.76702e-005 -0.000159988 3.76702e-005zm-8.86359e-006 0.000394208l0 -0.000431878 0.000168851 0 0 0.000431878 -0.000138937 6.44826e-005 -2.99146e-005 -6.44826e-005zm0.000368725 0.00035122l-0.000338811 -0.000286737 0.000109022 -0.000128965 0.000338811 0.000286737 -6.73633e-005 0.0001478 -4.16589e-005 -1.88351e-005zm0.000376924 7.09087e-005l-0.000335265 -5.20736e-005 2.57044e-005 -0.000166635 0.000335265 5.20736e-005 -1.28522e-005 0.000167743 -1.28522e-005 -1.10795e-006zm0.000303135 1.10795e-006l-0.000290282 0 0 -0.000168851 0.000290282 0 4.321e-005 1.17443e-005 -4.321e-005 0.000157107zm0.000194999 0.000129852l-0.000238209 -0.000141596 8.642e-005 -0.000145363 0.000238209 0.000141596 3.67839e-005 4.58691e-005 -0.000123204 9.94938e-005zm6.00508e-005 0.000244413l-9.68347e-005 -0.000290282 0.000159988 -5.36247e-005 9.68347e-005 0.000290282 4.43179e-006 2.68124e-005 -0.00016442 2.68124e-005zm-4.43179e-006 0.000311998l0 -0.000338811 0.000168851 0 0 0.000338811 -0.000136942 6.60337e-005 -3.19089e-005 -6.60337e-005zm0.000270339 0.000255936l-0.00023843 -0.000189902 0.000105034 -0.000132067 0.00023843 0.000189902 2.26021e-005 2.76987e-005 -0.000127636 0.000104369zm7.42325e-005 0.000162204l-9.68347e-005 -0.000189902 0.000150238 -7.667e-005 9.68347e-005 0.000189902 9.30677e-006 3.8335e-005 -0.000159545 3.8335e-005zm-9.30677e-006 0.000155334l0 -0.000193669 0.000168851 0 0 0.000193669 -8.86359e-007 1.28522e-005 -0.000167965 -1.28522e-005zm-4.38748e-005 0.000277652l4.47611e-005 -0.000290504 0.000167079 2.57044e-005 -4.47611e-005 0.000290504 -8.35393e-005 7.15735e-005 -8.35393e-005 -9.72779e-005zm8.35393e-005 1.28522e-005l0 0 0 0 0 0 0 8.44257e-005 0 -8.44257e-005z"/>
   </g>
   <polygon class="fil2" points="0.00980734,0.00480761 0.00980734,0.00625215 0.00840667,0.00625215 0.00840667,0.00708378 0.00980734,0.00708378 0.00980734,0.00853475 0.0106642,0.00853475 0.0106642,0.00708378 0.0120649,0.00708378 0.0120649,0.00625215 0.0106642,0.00625215 0.0106642,0.00480761 "/>
   <path id="1" class="fil2" d="M0.0133909 0.00853475l0.00317051 0 0 -0.00023134 -0.000537798 -4.38748e-005c-0.000112568,-9.30677e-006 -0.000196993,-3.12441e-005 -0.000253277,-6.55905e-005 -5.62838e-005,-3.346e-005 -9.28461e-005,-8.44257e-005 -0.000110573,-0.000152232 -1.77272e-005,-6.86928e-005 -2.4818e-005,-0.000158437 -2.39317e-005,-0.000269896l0 -0.0034958c-0.000364737,0.000195885 -0.000737894,0.000352328 -0.00111836,0.000466889 -0.000381356,0.00011567 -0.000777558,0.000192783 -0.00118927,0.000233556l0 0.000212504c6.89144e-005,-3.10226e-006 0.000137607,-5.09656e-006 0.000206522,-5.09656e-006 6.86928e-005,-1.10795e-006 0.000137607,-1.10795e-006 0.0002063,-1.10795e-006 0.000127192,-1.10795e-006 0.000232448,1.99431e-006 0.000314657,9.30677e-006 8.35393e-005,8.42041e-006 0.000147136,2.72555e-005 0.000193891,5.62838e-005 4.58691e-005,2.92498e-005 7.82212e-005,7.62268e-005 9.70563e-005,0.000139823 1.77272e-005,6.44826e-005 2.70339e-005,0.000152011 2.5926e-005,0.000263692l0 0.00199475c1.10795e-006,0.000102153 -3.98861e-006,0.000190789 -1.44033e-005,0.00026901 -1.15227e-005,7.71132e-005 -3.346e-005,0.000142704 -6.78064e-005,0.000195885 -3.346e-005,5.31815e-005 -8.44257e-005,9.3954e-005 -0.000152232,0.000122982 -6.78064e-005,2.81419e-005 -0.000158437,4.58691e-005 -0.000272112,5.00793e-005l-0.000475088 1.88351e-005 0 0.00023134z"/>
   <path id="12" class="fil2" d="M0.0190066 0.00480118c0.000230453,-8.86359e-007 0.000398197,0.000136721 0.000505446,0.000410827 0.000106363,0.000272998 0.000158437,0.000686706 0.00015755,0.00124024 1.99431e-006,0.000555525 -5.00793e-005,0.000970341 -0.000155334,0.00124356 -0.000105255,0.000271891 -0.000275214,0.00040839 -0.000507662,0.000407503 -0.000233556,8.86359e-007 -0.000403293,-0.000135613 -0.000510764,-0.000407503 -0.000107249,-0.00027322 -0.000159323,-0.000688036 -0.000158437,-0.00124356 -8.86359e-007,-0.000553531 5.20736e-005,-0.000967239 0.000160653,-0.00124024 0.000109465,-0.000274106 0.000278317,-0.000411714 0.000508548,-0.000410827zm0 -0.000525168c-0.000276101,1.10795e-006 -0.000530486,5.20736e-005 -0.000760939,0.000154226 -0.00023134,0.000102153 -0.000432543,0.000247959 -0.000602281,0.000438748 -0.000169959,0.000190789 -0.000302248,0.000419026 -0.000395094,0.000686928 -9.37324e-005,0.000266794 -0.000141817,0.000564832 -0.000142704,0.00089633 8.86359e-007,0.000329282 4.89713e-005,0.000627542 0.000142704,0.000893228 9.28461e-005,0.000265908 0.000225135,0.000494145 0.000395094,0.000683826 0.000169738,0.000190567 0.000370941,0.000336595 0.000602281,0.000438748 0.000230453,0.000102153 0.000484838,0.000153118 0.000760939,0.000154226 0.000278317,-1.10795e-006 0.000532702,-5.20736e-005 0.000762933,-0.000154226 0.00023134,-0.000102153 0.000430549,-0.00024818 0.0005994,-0.000438748 0.000168851,-0.000189681 0.000300032,-0.000417918 0.000391771,-0.000683826 9.28461e-005,-0.000265686 0.000139823,-0.000563946 0.000140709,-0.000893228 -8.86359e-007,-0.000328396 -4.78634e-005,-0.000625326 -0.000139601,-0.000891234 -9.17381e-005,-0.000266794 -0.000222033,-0.000496139 -0.000389776,-0.000686706 -0.000168851,-0.000191897 -0.000368947,-0.000338811 -0.0005994,-0.000442071 -0.00023134,-0.000103039 -0.000486611,-0.000155113 -0.000766036,-0.000156221z"/>
  </g>
 </g>
</svg>
