<?xml version="1.0" encoding="UTF-8"?>
<!DOCTYPE svg PUBLIC "-//W3C//DTD SVG 1.1//EN" "http://www.w3.org/Graphics/SVG/1.1/DTD/svg11.dtd">
<!-- Creator: CorelDRAW -->
<svg xmlns="http://www.w3.org/2000/svg" xml:space="preserve" width="0.506945in" height="0.506945in" style="shape-rendering:geometricPrecision; text-rendering:geometricPrecision; image-rendering:optimizeQuality; fill-rule:evenodd; clip-rule:evenodd"
viewBox="0 0 0.0285328 0.0285328"
 xmlns:xlink="http://www.w3.org/1999/xlink">
 <defs>
  <style type="text/css">
   <![CDATA[
    .str1 {stroke:black;stroke-width:0.000390884}
    .str0 {stroke:black;stroke-width:0.000553974}
    .fil2 {fill:#fff}
    .fil0 {fill:#FEFEFE}
    .fil1 {fill:black;fill-rule:nonzero}
   ]]>
  </style>
 </defs>
 <g id="Layer_x0020_1">
  <metadata id="CorelCorpID_0Corel-Layer"/>
  <g id="Service_x0020_bonus">
   <circle id="_824948888" class="fil2 str1" cx="0.0142664" cy="0.0142664" r="0.0140709"/>
   <polygon id="_825004608" class="fil0 str0" points="0.0142664,0.00734836 0.0143761,0.00741904 0.0250066,0.0142664 0.0250066,0.0142664 0.0143761,0.0211137 0.0142664,0.0211844 0.0142664,0.0211844 0.00352616,0.0142664 0.00352616,0.0142664 0.0142664,0.00734836 "/>
   <polygon id="_824993184" class="fil1" points="0.00980734,0.0126253 0.00980734,0.0140698 0.00840667,0.0140698 0.00840667,0.0149015 0.00980734,0.0149015 0.00980734,0.0163524 0.0106642,0.0163524 0.0106642,0.0149015 0.0120649,0.0149015 0.0120649,0.0140698 0.0106642,0.0140698 0.0106642,0.0126253 "/>
   <path id="_8249931841" class="fil1" d="M0.0133909 0.0163524l0.00317051 0 0 -0.00023134 -0.000537798 -4.38748e-005c-0.000112568,-9.30677e-006 -0.000196993,-3.12441e-005 -0.000253277,-6.55905e-005 -5.62838e-005,-3.346e-005 -9.28461e-005,-8.44257e-005 -0.000110573,-0.000152232 -1.77272e-005,-6.86928e-005 -2.4818e-005,-0.000158437 -2.39317e-005,-0.000269896l0 -0.0034958c-0.000364737,0.000195885 -0.000737894,0.000352328 -0.00111836,0.000466889 -0.000381356,0.00011567 -0.000777558,0.000192783 -0.00118927,0.000233556l0 0.000212504c6.89144e-005,-3.10226e-006 0.000137607,-5.09656e-006 0.000206522,-5.09656e-006 6.86928e-005,-1.10795e-006 0.000137607,-1.10795e-006 0.0002063,-1.10795e-006 0.000127192,-1.10795e-006 0.000232448,1.99431e-006 0.000314657,9.30677e-006 8.35393e-005,8.42041e-006 0.000147136,2.72555e-005 0.000193891,5.62838e-005 4.58691e-005,2.92498e-005 7.82212e-005,7.62268e-005 9.70563e-005,0.000139823 1.77272e-005,6.44826e-005 2.70339e-005,0.000152011 2.5926e-005,0.000263692l0 0.00199475c1.10795e-006,0.000102153 -3.98861e-006,0.000190789 -1.44033e-005,0.00026901 -1.15227e-005,7.71132e-005 -3.346e-005,0.000142704 -6.78064e-005,0.000195885 -3.346e-005,5.31815e-005 -8.44257e-005,9.3954e-005 -0.000152232,0.000122982 -6.78064e-005,2.81419e-005 -0.000158437,4.58691e-005 -0.000272112,5.00793e-005l-0.000475088 1.88351e-005 0 0.00023134z"/>
   <path id="_82499318412" class="fil1" d="M0.0190066 0.0126189c0.000230453,-8.86359e-007 0.000398197,0.000136721 0.000505446,0.000410827 0.000106363,0.000272998 0.000158437,0.000686706 0.00015755,0.00124024 1.99431e-006,0.000555525 -5.00793e-005,0.000970341 -0.000155334,0.00124356 -0.000105255,0.000271891 -0.000275214,0.00040839 -0.000507662,0.000407503 -0.000233556,8.86359e-007 -0.000403293,-0.000135613 -0.000510764,-0.000407503 -0.000107249,-0.00027322 -0.000159323,-0.000688036 -0.000158437,-0.00124356 -8.86359e-007,-0.000553531 5.20736e-005,-0.000967239 0.000160653,-0.00124024 0.000109465,-0.000274106 0.000278317,-0.000411714 0.000508548,-0.000410827zm0 -0.000525168c-0.000276101,1.10795e-006 -0.000530486,5.20736e-005 -0.000760939,0.000154226 -0.00023134,0.000102153 -0.000432543,0.000247959 -0.000602281,0.000438748 -0.000169959,0.000190789 -0.000302248,0.000419026 -0.000395094,0.000686928 -9.37324e-005,0.000266794 -0.000141817,0.000564832 -0.000142704,0.00089633 8.86359e-007,0.000329282 4.89713e-005,0.000627542 0.000142704,0.000893228 9.28461e-005,0.000265908 0.000225135,0.000494145 0.000395094,0.000683826 0.000169738,0.000190567 0.000370941,0.000336595 0.000602281,0.000438748 0.000230453,0.000102153 0.000484838,0.000153118 0.000760939,0.000154226 0.000278317,-1.10795e-006 0.000532702,-5.20736e-005 0.000762933,-0.000154226 0.00023134,-0.000102153 0.000430549,-0.00024818 0.0005994,-0.000438748 0.000168851,-0.000189681 0.000300032,-0.000417918 0.000391771,-0.000683826 9.28461e-005,-0.000265686 0.000139823,-0.000563946 0.000140709,-0.000893228 -8.86359e-007,-0.000328396 -4.78634e-005,-0.000625326 -0.000139601,-0.000891234 -9.17381e-005,-0.000266794 -0.000222033,-0.000496139 -0.000389776,-0.000686706 -0.000168851,-0.000191897 -0.000368947,-0.000338811 -0.0005994,-0.000442071 -0.00023134,-0.000103039 -0.000486611,-0.000155113 -0.000766036,-0.000156221z"/>
  </g>
 </g>
</svg>
