<svg xmlns="http://www.w3.org/2000/svg" width="144" height="144" viewBox="0 0 7.2 7.2">
    <clipPath id="boe_s">
        <path d="M0 0v30h60V0z"/>
    </clipPath>
    <clipPath id="boe_t">
        <path d="M30 15h30v15zm0 0v15H0zm0 0H0V0zm0 0V0h30z"/>
    </clipPath>
    <circle class="color-main color-white" fill="#fff" cx="3.6" cy="3.6" r="3.51"/>
    <g clip-path="url(#boe_s)" transform="translate(1.1 2.35) scale(.08333)">
        <path class="color-reserved-gray" fill="#00008b" d="M0 0v30h60V0z"/>
        <path stroke="#fff" stroke-width="6" d="M0 0l60 30m0-30L0 30"/>
        <path class="color-stroke-reserved-gray" stroke="red" stroke-width="4" d="M0 0l60 30m0-30L0 30" clip-path="url(#boe_t)"/>
        <path stroke="#fff" stroke-width="10" d="M30 0v30M0 15h60"/>
        <path class="color-stroke-reserved-gray" stroke="red" stroke-width="6" d="M30 0v30M0 15h60"/>
    </g>
</svg>
