<svg xmlns="http://www.w3.org/2000/svg" viewBox="0 0 144 144">
    <circle class="color-black color-main" cx="72" cy="72" r="70.2"/>
    <path class="color-white" fill="#fff" d="M72 108.1c-17.3 0-33.5-3.7-45.8-10.3C13.7 91 6.8 81.8 6.8 72s6.9-19 19.4-25.8C38.5 39.5 54.7 35.9 72 35.9s33.5 3.7 45.8 10.3c12.5 6.8 19.4 16 19.4 25.8s-6.9 19-19.4 25.8c-12.3 6.7-28.5 10.3-45.8 10.3zm0-69.2c-16.8 0-32.5 3.5-44.3 10C16.2 55.1 9.8 63.3 9.8 72s6.3 16.9 17.9 23.2c11.8 6.4 27.6 10 44.3 10s32.5-3.5 44.3-10c11.5-6.3 17.9-14.5 17.9-23.2s-6.3-16.9-17.9-23.2c-11.8-6.4-27.5-9.9-44.3-9.9z"/>
    <path class="color-white" fill="#fff" d="M53 68.2l-1.5.3c-1.5-2.9-3-4.9-4.3-6.1-1.4-1.2-3-1.7-4.8-1.7-2.4 0-4.4.9-5.9 2.7-1.5 1.8-2.2 4.2-2.2 7.1 0 3.8 1 7 3.1 9.5 2 2.5 4.6 3.8 7.7 3.8 2 0 3.7-.5 5.2-1.6s2.7-2.7 3.6-4.8l1.2.3-3.4 9.8c-.4-.1-.8-.2-1.3-.3-.4-.1-.8-.1-1.2-.1-.6 0-1.7.1-3.3.3-1.6.2-2.9.3-3.9.3-5.2 0-9.4-1.6-12.6-4.8-3.2-3.2-4.8-7.3-4.8-12.5 0-4.7 1.3-8.2 4-10.6 2.7-2.4 6.6-3.6 11.8-3.6 1.2 0 2.5.1 4.1.2 1.6.2 2.6.2 3 .2.4 0 .9-.1 1.4-.2.5-.1 1.1-.3 1.8-.5L53 68.2zm11.7-7.1c.1-.2.2-.4.2-.7 0-.2.1-.4.1-.6 0-.3-.1-.6-.3-.9-.2-.2-.5-.4-.9-.6V57h13.7v1.3c-.4.1-.7.3-.9.6-.2.2-.3.5-.3.8 0 .2 0 .4.1.6 0 .2.1.5.2.9l6.8 20.2c.6 1.9 1.2 3.1 1.7 3.6s1.1.8 1.9.9v1.3H71.6v-1.3c.8-.1 1.4-.4 1.8-.8.4-.4.5-1 .5-1.7 0-1.9-1-3.7-3-5.1-2-1.5-4.5-2.3-7.5-2.5l-1.8 4.9c-.2.6-.4 1.2-.5 1.7-.1.5-.2 1-.2 1.3 0 .7.2 1.2.6 1.6.4.4 1 .5 1.8.5v1.3H53.2v-1.3c1-.2 1.9-.6 2.5-1.3.6-.7 1.3-2.1 2.2-4.3l6.8-19.1zm-.1 11.3c1.3.1 2.4.4 3.5.7 1.1.4 2 .8 2.9 1.4l-3.3-10.8-3.1 8.7zm23.1 14.7v-1.3c.8-.1 1.4-.5 1.7-1 .3-.5.5-1.7.5-3.6V63c0-1.9-.2-3.1-.5-3.6s-.9-.9-1.7-1v-1.3h21.1c2.2 0 3.9.4 4.9 1.2 1.1.8 1.6 2 1.6 3.6 0 1.4-.5 2.7-1.4 3.9-.9 1.2-2.5 2.4-4.7 3.7 1.2 1.3 2.4 3 3.5 4.9 1.1 1.9 2.2 4.2 3.3 7l.1.2c1.1 2.6 2.2 4 3.4 4.2v1.3h-14v-1.3c.6-.3 1-.5 1.2-.8.2-.3.3-.6.3-1.1 0-1.2-.6-2.9-1.8-5.2-1.2-2.2-2.7-4.3-4.5-6.1l-1.7.5v8c0 1.9.2 3.1.5 3.6s.9.9 1.7 1V87H87.7zm11.5-17.3c2.2-.5 4-1.3 5.2-2.4 1.2-1.1 1.8-2.5 1.8-4 0-1.1-.3-2-.9-2.5-.6-.5-1.6-.8-3-.8-1.2 0-2 .1-2.5.4-.4.3-.7 1-.7 2.1v7.2z"/>
</svg>
