<svg xmlns="http://www.w3.org/2000/svg" viewBox="0 0 144 144">
    <circle class="color-main color-gray" fill="#b4bbbc" cx="72" cy="72" r="70.2"/>
    <path class="color-white" fill="#fff" d="M115.7 114.3c-1.6-.4-3-1.2-4.4-2.1-2.9-1.9-5.9-3.7-8.7-5.9-4-3.1-7.3-6.8-10.1-11-.1-.2-.3-.4-.4-.6-.6-1-1-2.1-1-3.3v-1.9c0-.4 0-.9-.1-1.3-.1-.8-.5-1.4-1-2-1.1-1.1-2.3-2.2-3.7-2.9-1.7-1-3.3-1.9-5-2.8s-3.3-1.9-4.9-3c-1.5-1.1-2.4-2.5-2.8-4.2-.1-.5-.1-1-.1-1.5 0-.6 0-1.3-.1-1.9-.1-1-.7-1.8-1.6-2.3-.7-.4-1.5-.6-2.2-.8-1.8-.5-3.5-.9-5.3-1.5-4.1-1.3-8-2.9-11.8-4.8-3-1.5-6-3-8.9-4.5-3.8-2-7.4-4.5-10.7-7.2-4.6-3.8-8.8-8-12.5-12.7-.4-.5-.7-1-1.1-1.5-.4-.6-.7-1.1-.9-1.8 0-.1-.1-.1-.2-.2v-.7l.1-.1c.2-.5.5-.8.9-1.1h.5c.6.3 1.2.5 1.7.9.9.6 1.7 1.3 2.5 2 4.4 4 8.8 8 13.4 11.7 4 3.3 8.4 6.1 13.1 8.3 2 1 4.1 1.5 6.3 1.6 2 .1 3.9-.2 5.7-.9 3.2-1.2 6.1-3 8.8-5.1 1.7-1.4 3.3-3 4.9-4.5.9-.9 1.9-1.7 2.8-2.6 1-.9 2.3-1.4 3.7-1.4 1.8-.1 3.4.3 5 1.2 1.2.7 2.2 1.5 3.1 2.4 1.5 1.5 2.9 2.9 4.4 4.5 1.4 1.5 2.7 3.1 4 4.7 1.3 1.8 3 3 5.1 3.8 1.6.6 3.1.5 4.6-.4 1-.6 1.9-1.2 2.7-1.9.3-.2.5-.5.8-.7.3-.3.4-.6.4-1 0-.5-.1-1-.1-1.5-.2-1.2-.2-2.3.2-3.5.6-1.7 1.4-3.3 2.4-4.8.2-.2.4-.5.6-.7.1-.1.3-.2.5-.3.1.2.1.3.1.4.1 1.1.5 2 .8 3 .2.6.4 1.3.4 1.9 0 .2.1.3.1.5.3-.1.4-.3.6-.5.9-1.4 1.9-2.7 3-3.9.1-.2.3-.3.5-.4.2-.2.4-.1.5.2.1.2.1.4.1.6.2 1.8.2 3.7 0 5.5-.1 1.2-.3 2.5-.9 3.6-.1.3-.2.6-.2 1 0 .6.1 1.3.1 1.9.1.7.4 1.3.8 1.9.3.4.7.8 1 1.2.6.8 1.1 1.6 1.3 2.6.3 1.4.6 2.9 1 4.3.1.6.3 1.3.5 1.9.1.2.1.5.1.7v2.2c0 .1-.1.1-.1.2-.1.7-.5 1.3-1.1 1.7-.7.5-1.5.9-2.3 1-1.1.2-1.8-.2-2.3-1.1-.2-.3-.3-.7-.5-1-.2-.5-.4-.9-.6-1.4-.3-.6-.7-1-1.2-1.3-.9-.6-2-1-3.1-1.2-.6-.1-1.3-.2-1.9.1-1.7.7-3.3 1.6-4.7 2.7l-.9.9c-.5.6-.5 1.3-.1 2 .1.2.3.4.4.6.3.3.7.6 1 .8.8.6 1.4 1.3 1.6 2.2.2.8.2 1.6.1 2.4-.1.5-.2.9-.6 1.3-.9 1-2 1.7-3.3 2-.8.2-1.4-.1-1.6-.9-.2-.7-.1-1.4-.1-2 .5-.2 1-.3 1.4-.5l.6-.3c.4-.3.4-.8 0-1.1l-.6-.3-2.7-.9c-.5-.1-1-.2-1.5-.2s-.8.2-.8.7c-.1.6-.3 1.1-.5 1.6-.2.4-.4.9-.5 1.3-.8 2.4-1.3 4.8-1.8 7.2-.4 1.9-.3 3.8.2 5.6.6 2.2 1.7 4.1 3.2 5.8 2 2.5 4.4 4.6 7 6.3 1.9 1.3 3.8 2.4 5.8 3.4.7.4 1.4.8 2.1 1.3 1.1.8 1.7 1.9 2 3.2.2.8-.1 1.1-.8 1.1-.3 0-.5.1-.8.2-.2-.2-.8-.2-1.4-.2z"/>
</svg>
