<svg xmlns="http://www.w3.org/2000/svg" width="144" height="144" viewBox="0 0 1.5 1.5"><g transform="translate(-8.083 -19.973)"><circle class="color-main color-blue" fill="#55c3ec" cx="8.833" cy="20.723" r=".731"/><path class="color-reserved-gray" fill="#00008B" d="M8.312 20.376v.695h1.042v-.695H8.312z"/><path fill="#fff" d="M8.573 20.793l.02.061.061-.022-.035.054.055.034-.064.007.008.064-.045-.046-.045.046.008-.064-.065-.007.056-.034-.036-.054.061.022zm.52-.35l.01.029.03-.011-.017.026.026.016-.03.003.003.03-.021-.021-.022.022.004-.03-.03-.004.026-.016-.017-.026.029.01zm0 .462l.01.03.03-.011-.017.026.026.016-.03.003.003.03-.021-.021-.022.022.004-.03-.03-.004.026-.016-.017-.026.029.01z"/><path class="color-reserved-gray" fill="#00008B" d="M8.312 20.376h.521v.347h-.52z"/><path fill="#fff" d="M8.312 20.376l.174.116h-.039l-.135-.09v.013l.116.077h-.116v.116h.116l-.116.077v.038l.174-.115h.029v.006l-.164.11h.02l.144-.097v.096h.116v-.096l.144.096h.058l-.173-.115h.039l.134.09v-.013l-.115-.077h.115v-.116h-.115l.115-.077v-.039l-.173.116h-.03v-.007l.165-.109h-.02l-.144.096v-.096h-.116v.096l-.144-.096h-.059z"/><path class="color-reserved-gray" fill="red" d="M8.547 20.376h-.009v.14h-.226v.069h.226v.138h.07v-.138h.225v-.07h-.225v-.139h-.01z"/><path class="color-reserved-gray" fill="red" d="M8.795 20.376l-.164.11v.006h.029l.173-.116h-.038zm-.483 0v.026l.135.09h.039zm.174.232l-.174.115h.04l.163-.109v-.006h-.029zm.347.115v-.026l-.134-.09h-.04z"/><path fill="#fff" d="M9.163 20.722l.008.018.02.002-.015.013.004.02-.017-.01-.017.01.005-.02-.015-.013.02-.002zm-.243-.093l.01.03.029-.011-.017.026.026.016-.03.003.004.03-.022-.022-.021.022.003-.03-.03-.003.026-.016-.017-.026.03.01zm.328-.046l.01.03.029-.011-.017.026.026.016-.03.003.004.03-.022-.022-.021.022.003-.03-.03-.003.026-.016-.017-.026.03.01z"/></g></svg>