<svg xmlns="http://www.w3.org/2000/svg" width="144" height="144" viewBox="0 0 1.5 1.5">
    <g transform="translate(-8.083305 -19.973438)">
        <circle class="color-main color-blue" fill="#025aaa" cx="8.833305" cy="20.723438" r=".73125"/>
        <path class="color-reserved-gray" fill="#00008B" d="M8.312472 20.376223v.694458H9.35414v-.694444H8.312475z"/>
        <path fill="#fff" d="M8.57289 20.792791l.020632.06132.060808-.0221-.035079.05436.055193.03376-.064375.0065.00802.0642-.045196-.0463-.045196.0463.00802-.0642-.064376-.0065.055193-.03376-.035079-.05436.060808.0221zm.520831-.350428l.00983.0292.028956-.01053-.016704.02589.026282.01608-.030655.0031.00382.03057-.021522-.02205-.021522.02205.00382-.03057-.030655-.0031.026282-.01608-.016704-.02589.028956.01053zm0 .462962l.00983.0292.028956-.01052-.016704.02589.026282.01608-.030655.0031.00382.03057-.021522-.02205-.021522.02205.00382-.03057-.030655-.0031.026282-.01608-.016704-.02589.028956.01052z"/>
        <path class="color-reserved-gray" fill="#00008B" d="M8.312474 20.376223h.520831v.34722h-.520831z"/>
        <path fill="#fff" d="M8.312475 20.376223v.000105l.173569.115652h-.038846l-.134725-.08977v.01293l.115309.07683h-.11531v.115734h.11531l-.11531.07683v.03882l.17357-.115652h.028982v.0066l-.163853.109176h.019423l.144432-.09624v.09624h.09259v.000001h.023148v-.09623l.14443.09623h.058112v-.000136l-.173567-.115664h.038846l.134727.08977v-.01293l-.11531-.076837h.11531v-.115735h-.11531l.11531-.07683v-.03882l-.17357.115653H8.63077v-.0066l.16385-.109156h-.019423l-.14443.09623v-.09623H8.6163v-.000001h-.10127v.09624l-.144431-.0962h-.058113z"/>
        <path class="color-reserved-gray" fill="red" d="M8.54685 20.376223v.000002h-.00868v.138885h-.225696v.06944h.225693v.138888h.069444v-.138888h.225691v-.06944h-.22569v-.138885h-.00868v-.000002z"/>
        <path class="color-reserved-gray" fill="red" d="M8.794613 20.376223l-.163855.109177v.0066h.028974l.173569-.115653v-.000105h-.03869zm-.482139.000089v.02588l.134727.08977h.038846zm.17357.231389l-.17357.115653v.000105h.03869v.000001l.163859-.109178v-.0066H8.48604zm.347261.115653v-.02588l-.134727-.08977h-.038846z"/>
        <path fill="#fff" d="M9.163165 20.722158l.00776.01825.019754.0017-.014956.01302.00444.01933-.017008-.0102-.017008.0102.00444-.01933-.014956-.01302.019755-.0017zm-.243055-.093004l.00983.0292.028957-.01052-.016704.02589.026282.01608-.030655.0031.00382.03057-.021522-.02205-.021522.02205.00382-.03057-.030655-.0031.026282-.01608-.016704-.02589.028956.01052zm.327931-.046209l.00983.0292.028956-.01052-.016704.02589.026282.01608-.030655.0031.00382.03057-.021522-.02205-.021522.02205.00382-.03057-.030655-.0031.026282-.01608-.016704-.02589.028956.01052z"/>
    </g>
</svg>
