<svg viewBox="0 0 144 144" xmlns="http://www.w3.org/2000/svg"><circle class="color-main color-orange" fill="#ff9027" cx="72" cy="72" r="70.2"/><path fill="#ffffff" d="m 67.6875,40.269531 c -0.675372,-0.046 -1.275045,9.54e-4 -1.794922,0.01172 -7.188955,-0.01943 -14.383586,-0.0264 -21.576172,0.01367 a 1.2294503,1.2294503 0 0 0 -0.06641,0.002 c -2.302526,0.137596 -3.871764,1.71767 -5.033203,2.988281 -9.389118,9.406972 -18.825281,18.777971 -28.181641,28.230469 a 1.2294503,1.2294503 0 0 0 -0.101562,0.115234 c -0.597514,0.777476 -0.733452,1.75803 -0.548828,2.587891 0.184624,0.829861 0.64987,1.556698 1.320312,2.080078 l -0.109375,-0.09375 c 5.411043,5.350876 10.744748,10.809696 16.220703,16.142578 a 1.2294503,1.2294503 0 0 0 0.06836,0.0625 c 1.900697,1.589406 4.263013,1.342112 5.960937,1.31836 h 50.644531 c -3.259504,3.252685 -6.551103,6.483434 -9.765625,9.812504 a 1.2294503,1.2294503 0 0 0 -0.179687,0.23828 c -0.898709,1.5576 0.649645,3.45737 2.353516,2.98047 l -0.34375,0.0449 c 5.760229,0.0549 11.510382,0.004 17.246093,0.0254 a 1.2294503,1.2294503 0 0 0 0.02344,0 c 2.139645,-0.0338 4.358171,0.0604 6.628901,-0.0996 a 1.2294503,1.2294503 0 0 0 0.13477,-0.0176 c 2.77775,-0.50828 4.18312,-2.81849 5.51172,-4.01953 a 1.2294503,1.2294503 0 0 0 0.0469,-0.043 c 9.01857,-9.041423 18.09527,-18.039388 27.07618,-27.134765 a 1.2294503,1.2294503 0 0 0 0.13867,-0.167969 c 1.10567,-1.609658 0.42384,-3.645339 -0.98633,-4.642578 l 0.1582,0.132813 C 127.1574,65.487135 121.83215,60.064293 116.38477,54.75 a 1.2294503,1.2294503 0 0 0 -0.0703,-0.0625 c -1.90581,-1.593677 -4.27767,-1.340961 -5.97656,-1.318359 H 59.720703 c 3.251896,-3.256876 6.538155,-6.485925 9.757813,-9.814453 a 1.2294503,1.2294503 0 0 0 0.21289,-0.296876 C 70.083212,42.489272 69.886046,41.551964 69.408203,41 68.93036,40.448036 68.172333,40.132704 67.369141,40.289062 Z" /><path fill="#ff5739" d="m 22.349533,77.549533 h 99.500937 a 0.82842705,0.82842705 67.500002 0 1 0.58579,1.414213 L 101.21421,100.18579 A 4.8284276,4.8284276 157.5 0 1 97.8,101.6 H 86 a 0.82842712,0.82842712 67.5 0 1 -0.585786,-1.41421 L 95.685786,89.914214 A 0.82842712,0.82842712 67.5 0 0 95.1,88.5 H 33.3 a 4.8284271,4.8284271 22.5 0 1 -3.414214,-1.414214 l -8.122039,-8.122039 a 0.82842712,0.82842712 112.5 0 1 0.585786,-1.414214 z"/><path fill="#c5271a" d="M 121.84969,69.548123 H 22.348749 A 0.82842705,0.82842705 67.500002 0 1 21.762963,68.13391 L 42.985005,46.911869 a 4.8284276,4.8284276 157.5 0 1 3.414214,-1.414213 h 11.8 a 0.82842712,0.82842712 67.5 0 1 0.585786,1.414214 L 48.513433,57.183442 a 0.82842712,0.82842712 67.5 0 0 0.585786,1.414214 l 61.800001,0 a 4.8284281,4.8284281 22.499996 0 1 3.41421,1.414213 l 8.12205,8.122041 a 0.82842696,0.82842696 112.5 0 1 -0.58579,1.414213 z"/></svg>