<svg xmlns="http://www.w3.org/2000/svg" viewBox="0 0 144 144">
    <circle fill="#32763f" cx="72" cy="72" r="70.2" color="color-main color-green"/>
    <path fill="#fff" d="M122.9 44.3l-72.4.2c-2.2 0-4.3 1.1-5.5 3L16.5 90.7c-2.6 3.9.2 9 4.9 9h57.5c3.8 0 6.4-3.9 4.9-7.5l-13.2-30c-.8-1.9-2.6-3.2-4.7-3.2-2.8 0-5.1 2.3-5.1 5.1 0 .7.1 1.3.3 1.8v.1l9.4 23.2-40.3.1 22.2-34.8 60.2-.1-9.6 14.4-16.3.3c-3.5.1-5.8 3.7-4.4 6.9l8.9 20.2c.9 2.5 3.6 3.9 6.3 3.2 2.7-.8 4.3-3.6 3.5-6.4-.1-.3-.2-.6-.3-.8l-5-12.9h10.8c1.6 0 3.1-.8 4-2.1l16.7-24.6c2.8-3.8.3-8.3-4.3-8.3z" color="color-white"/>
</svg>
