<svg xmlns="http://www.w3.org/2000/svg" width="144" height="144"><circle class="color-violet color-main" fill="#9e2a97" cx="72" cy="72" r="70.2"/><path class="color-white" fill="#fff" d="M83.27 125.026c-1.931-.108-2.253-.108-2.576-.322-.536-.43-12.344-50.665-12.558-51.416-.43-1.288-.43-2.147 0-2.469.322-.322.43-.322 3.22-.322 3.327 0 3.864.108 4.186.859.108.215 12.13 51.416 12.344 51.845.215.537.322.966.215 1.18-.107.537-.859.752-1.825.752-.43-.107-1.717-.107-3.005-.107zm-28.766-.43c-.43-.322-.43-.966 0-1.932.214-.43 10.948-42.614 11.056-43.15.214-1.61 1.61-3.22 1.824-3.22.43 0 .86.644.86 1.288 0 .322 2.468 11.163 2.575 11.485.108.43.108.751 0 1.073-.107.215-9.124 34.027-9.338 34.242-.322.429-6.548.429-6.977.214zm48.946-1.395c-.214-.215-.429-.537-.429-.859-.107-.751 1.18-12.451 1.825-17.174 0-.322-1.074-2.684-1.288-2.79-.215-.108-.537-.216-.752-.43-.214-.108-1.61-.537-1.824-1.074-.215-.536.214-5.796.214-5.796s1.503-1.288 2.254-1.395c1.289-.108 1.396-.215 2.04-1.074.537-.751 1.503-7.514 1.503-8.265 0-.537-.644-1.717-1.074-2.04-.107 0-2.254-.321-2.361-.429-.537-.322-.644-1.395-.215-4.723.215-1.824.43-2.146 1.074-2.469.536-.214 7.728.645 8.694 1.61 1.288 1.181 1.61 5.153 1.61 5.153-.751 7.836-1.825 12.88-2.254 13.74-.322.536-.751 1.073-.859 1.18-.858.537-.751 1.61 0 2.684.322.322-.107 8.909-.214 9.338-.108.43-1.61 14.813-1.718 15.028-.322.536-.43.536-4.186.429.107-.215-1.718-.322-2.04-.644zm-12.666-.644c-.214-.322 3.543-37.462 3.65-39.823.107-3.864.537-7.406.751-7.836.322-.644 5.582-.644 6.011-.43 1.074.43 1.396 1.504.966 3.006-.107.43-3.971 44.439-4.079 44.76-.214.538-1.395 1.182-1.932 1.182-.214 0-1.288-.108-2.361-.108-.107 0-2.684-.214-3.006-.751zm-54.206-.859c-.537-.215-2.254-1.288-3.006-2.147-.75-.966-1.073-1.288-1.18-1.61-.108-.322-.322-.751-.43-.966-.429-.751-.644-4.937-.751-5.474-.215-1.396-.107-1.718.43-1.932.214-.108 6.225-.108 6.44.214.214.322.644 1.718.858 2.899.215 1.288.644 2.04 1.289 2.361.322.107.75.322 1.073.322.537 0 1.503.644 1.717 1.18.108.216.215.86.215 1.396 0 .537.107 1.503.215 2.04.107 1.288-.108 1.717-.859 2.254-.644.43-.751.43-2.254.43-1.18-.215-3.22-.752-3.757-.967z"/><path class="color-white" fill="#fff" d="M45.058 121.805c-.215-.107-.537-.214-.537-.322-.107-.107-.215-1.073-.215-2.361-.107-3.542-.322-6.655-.536-7.514-.108-.43-.215-1.288-.322-2.04-.108-1.61-1.932-4.615-3.006-5.151-1.073-.537-1.503-.752-1.932-.86-.43-.107-3.22-1.395-3.542-1.61-.322-.321-1.503-.965-2.79-2.039-.645-.536-2.255-3.435-2.47-3.864-.322-.644-.644-7.621-1.073-9.983-.43-2.898-.644-5.044-.43-6.44.108-.644 1.289-3.65 1.933-4.293.966-.967 1.288-1.181 2.683-1.396 1.288-.215 1.718-.107 2.362.322.429.322.536.322 1.073-.107.43-.322.43-.322 2.576-.322 1.18 0 2.898.107 3.757.214 1.395.108 1.61.215 2.254.644.644.537 2.254 2.362 2.576 2.684.752.859 1.396 3.22 1.396 5.045 0 .43.214 3.65-.322 3.864-.644.215-5.904.215-6.548 0-.644-.215-.751-.644-.859-2.469-.107-1.18-.107-1.288-.644-2.04-.536-.858-1.503-1.395-2.469-1.61-.644-.107-.966-.429-1.073-1.502-.107-.43-.215-.966-.322-1.18-.107-.323-.107-.323-.322 0-.107.107-.107.75-.107 1.395 0 1.717.322 6.655.536 7.62.108.752.322 2.577.644 5.153.108.859.215 1.288.644 1.825.215.43.644.859.86.966.214.107 2.039 1.18 2.575 1.503.43.214 3.65 1.502 4.186 1.61 1.718.536 2.899 1.395 4.187 3.113.43.536.751 1.61.751 2.683 0 .43 1.074 10.841.859 13.203-.108 1.503-.215 1.717-.43 2.147-.214.214-1.717 2.576-2.361 2.898-.644.215-3.006.322-3.542.215zm29.303-5.474s-7.62-.214-7.835-.43c-.322-.321-.644-.429-.752-1.18 0-.322 0-1.395.108-2.147.107-1.502.429-2.361 1.288-3.327l.214-.215c.108-.107.322-.215.43-.215 1.288.108 7.192.322 7.299.43.322.107.644.644.751 1.395 0 .322.537 2.898.537 3.65.107 1.073-.107 1.395-.322 1.717-.322.215-1.718.322-1.718.322zm44.117-29.625c-.43-.215-1.288-3.65-1.395-5.582-.108-.966 0-1.074.107-1.396.107-.107.322-.322.43-.322.107 0 .536-.322.858-.644.751-.751 1.288-1.717 1.288-2.468 0-.537 1.395-8.373 1.503-9.339.214-2.147.322-2.469 1.18-2.683.752-.215 6.012-.108 6.548.107.537.215.644.644.43 1.932-.108.644-2.362 13.632-2.47 13.954-.107.537-5.474 4.938-5.58 4.938-.108 0-2.362 1.717-2.577 1.61 0 .107-.215 0-.322-.107zM77.582 73.825c-.108-.215-.108-.644-.108-.966 0-.43 1.503-3.113 1.61-3.328.215-.214 9.446-50.342 9.446-50.342s5.26 1.288 5.582 1.395c.859.43.966.86.966 2.362 0 .859-8.695 48.517-8.91 48.732-.214.215-2.468 4.079-3.005 4.83-.214.322-.966.322-1.395.108-.107.107-4.079-2.362-4.186-2.791zM125.24 62.66c-3.005-.107-3.434-.214-4.293-1.395-.322-.43-6.655-12.773-7.3-13.203-.429-.322-9.016-9.124-8.801-9.982.107-.537 2.898-3.542 3.22-3.864 1.18-1.396 1.61-1.289 3.864 1.073.859.966 6.977 7.299 7.192 7.514 1.18 1.073 1.503 1.395 1.61 1.932.107.322 7.407 14.49 7.514 14.92.107.43 1.395 2.79.966 3.113-.322.214-2.576 0-3.972-.108zM97.332 32.606c-2.04-1.824-2.147-1.932-1.61-3.864.107-.644 1.18-5.152 1.503-5.26.322 0 1.288.43 1.825.967.214.214 8.909 7.191 8.909 7.62 0 .323-3.865 5.153-4.616 5.153-.537 0-.751-.107-1.288-.537 0 0-3.757-3.22-4.723-4.079zM24.342 84.56c-.108.107-.323.107-.43.107-.215 0-2.362-1.825-2.469-1.825-.107 0-5.152-4.615-5.26-5.152-.107-.322-1.61-13.417-1.717-14.061-.107-1.289 0-1.718.537-1.933.536-.214 5.796 0 6.547.215.752.215.86.644.967 2.684 0 .966 1.073 8.909 1.073 9.445 0 .752.43 1.825 1.18 2.577.323.429.752.751.86.751.107 0 .321.107.429.322.214.215.214.43.107 1.395-.322 1.933-1.395 5.26-1.825 5.475zm37.353-7.943c-.429.214-1.18.107-1.395-.108-.537-.751-2.576-4.723-2.79-4.937-.216-.322-6.227-48.303-6.227-49.162 0-1.503.215-1.932 1.074-2.254.322-.107 5.582-1.073 5.582-1.073s6.44 50.45 6.655 50.771c.107.108 1.502 2.898 1.502 3.328 0 .322-.107.751-.214.966-.108.214-4.187 2.469-4.187 2.469zm-46.692-16.53c-.322-.43.966-2.684 1.073-3.114.107-.322 8.158-14.168 8.265-14.49.215-.537.537-.966 1.718-1.932.322-.215 6.655-6.226 7.62-7.085 2.362-2.254 2.792-2.254 3.865-.859.322.43 2.898 3.543 3.006 4.08.107.858-8.91 9.23-9.339 9.445-.644.43-7.728 12.452-8.05 12.88-.86 1.074-1.289 1.289-4.294 1.182-1.288 0-3.65.107-3.864-.108zm28.445-24.581c-.537.536-.752.536-1.288.536-.752 0-4.294-5.045-4.294-5.474 0-.43 9.124-6.977 9.339-7.084.536-.43 1.502-.86 1.932-.86.322.108 1.073 4.616 1.18 5.26.322 1.933.322 2.04-1.824 3.757-1.074.86-5.045 3.865-5.045 3.865z"/></svg>