<svg xmlns="http://www.w3.org/2000/svg" width="144" height="144" viewBox="0 0 144 144">
    <circle class="color-violet color-main" fill="#593e8f" cx="72" cy="72" r="70.199997"/>
    <path class="color-white" fill="#fff" d="M83.270641 125.02569c-1.93211-.10734-2.254128-.10734-2.576147-.32202-.536697-.42936-12.344036-50.664221-12.558715-51.415598-.429358-1.288073-.429358-2.146789 0-2.468807.322018-.322018.429358-.322018 3.220183-.322018 3.327523 0 3.86422.107339 4.186239.858715.107339.214679 12.129357 51.415598 12.344036 51.844958.214679.53669.322019.96605.214679 1.18073-.107339.5367-.858715.75138-1.824771.75138-.429357-.10734-1.717431-.10734-3.005504-.10734zm-28.766972-.42936c-.429358-.32202-.429358-.96606 0-1.93211.214679-.42936 10.948624-42.613762 11.055963-43.15046.214679-1.610091 1.610092-3.220183 1.824771-3.220183.429358 0 .858715.644037.858715 1.288073 0 .322019 2.468808 11.163303 2.576147 11.485321.10734.429358.10734.751376 0 1.073395-.107339.214678-9.123853 34.026604-9.338532 34.241284-.322018.42936-6.547706.42936-6.977064.21468zm48.946791-1.39541c-.21468-.21468-.42936-.5367-.42936-.85872-.10734-.75138 1.18073-12.45138 1.82477-17.17431 0-.32202-1.0734-2.68349-1.28808-2.79083-.21467-.10734-.53669-.21468-.75137-.42936-.21468-.10734-1.61009-.53669-1.82477-1.07339-.21468-.5367.21468-5.79633.21468-5.79633s1.50275-1.288073 2.25413-1.395413c1.28807-.107339 1.39541-.214679 2.03945-1.073394.53669-.751376 1.50275-7.513761 1.50275-8.265138 0-.536697-.64404-1.717431-1.0734-2.039449-.10734 0-2.25413-.322018-2.36147-.429358-.53669-.322018-.64403-1.395413-.21467-4.722936.21467-1.82477.42935-2.146788 1.07339-2.468807.5367-.214679 7.72844.644037 8.6945 1.610092 1.28807 1.180734 1.61009 5.152293 1.61009 5.152293-.75138 7.83578-1.82477 12.880734-2.25413 13.73945-.32202.536697-.75137 1.073394-.85871 1.180734-.85872.536697-.75138 1.610091 0 2.683488.32201.32202-.10734 8.909178-.21468 9.338528-.10734.42936-1.61009 14.81285-1.71743 15.02753-.32202.53669-.42936.53669-4.18624.42935.10733-.21468-1.71744-.32202-2.03945-.64403zm-12.666058-.64404c-.214679-.32202 3.542202-37.461468 3.649541-39.822936.10734-3.86422.536698-7.406422.751377-7.83578.322018-.644037 5.58165-.644037 6.01101-.429358 1.07339.429358 1.39541 1.502753.96605 3.005505-.10734.429358-3.971556 44.438529-4.078895 44.760549-.214679.5367-1.395413 1.18074-1.93211 1.18074-.214679 0-1.288074-.10734-2.361468-.10734-.10734 0-2.683486-.21468-3.005505-.75138zm-54.20642-.85872c-.536698-.21468-2.254129-1.28807-3.005505-2.14679-.751376-.96605-1.073394-1.28807-1.180734-1.61009-.107339-.32202-.322018-.75137-.429358-.96605-.429357-.75138-.644036-4.93762-.751376-5.47431-.214679-1.39542-.107339-1.71743.429358-1.93211.214679-.10734 6.225688-.10734 6.440367.21468.214679.32201.644036 1.71743.858715 2.89816.214679 1.28807.644037 2.03945 1.288074 2.36147.322018.10734.751376.32202 1.073394.32202.536697 0 1.502752.64403 1.717431 1.18073.10734.21468.214679.85872.214679 1.39541 0 .5367.10734 1.50276.214679 2.03945.10734 1.28808-.107339 1.71743-.858715 2.25413-.644037.42936-.751377.42936-2.254129.42936-1.180734-.21468-3.220183-.75138-3.75688-.96606z"/>
    <path class="color-white" fill="#fff" d="M45.057798 121.8055c-.214679-.10734-.536697-.21468-.536697-.32202-.10734-.10733-.214679-1.07339-.214679-2.36146-.10734-3.5422-.322019-6.65505-.536698-7.51376-.107339-.42936-.214678-1.28808-.322018-2.03945-.107339-1.61009-1.93211-4.6156-3.005504-5.1523-1.073395-.5367-1.502753-.75138-1.93211-.85872-.429358-.10733-3.220184-1.39541-3.542202-1.61009-.322019-.32202-1.502752-.96605-2.790826-2.039448-.644036-.53669-2.254128-3.434859-2.468807-3.864217-.322018-.644037-.644037-7.621101-1.073395-9.982568-.429357-2.898165-.644036-5.044954-.429357-6.440367.107339-.644037 1.288073-3.649541 1.93211-4.293578.966055-.966055 1.288073-1.180734 2.683486-1.395413 1.288073-.214679 1.717431-.107339 2.361468.322018.429357.322019.536697.322019 1.073394-.107339.429358-.322018.429358-.322018 2.576147-.322018 1.180734 0 2.898165.107339 3.756881.214679 1.395412.107339 1.610091.214678 2.254128.644036.644037.536697 2.254128 2.361468 2.576147 2.683486.751376.858716 1.395412 3.220184 1.395412 5.044954 0 .429358.214679 3.649542-.322018 3.86422-.644037.214679-5.903669.214679-6.547706 0-.644037-.214678-.751376-.644036-.858716-2.468807-.107339-1.180734-.107339-1.288073-.644036-2.039449-.536698-.858716-1.502753-1.395413-2.468808-1.610092-.644036-.107339-.966055-.429358-1.073394-1.502752-.10734-.429358-.214679-.966055-.322018-1.180734-.10734-.322019-.10734-.322019-.322019 0-.107339.107339-.107339.751376-.107339 1.395413 0 1.717431.322018 6.655045.536697 7.6211.107339.751377.322018 2.576147.644037 5.152294.107339.858715.214679 1.288073.644036 1.82477.214679.429358.644037.858716.858716.966055.214679.10734 2.039449 1.180734 2.576147 1.502753.429357.214679 3.649541 1.502752 4.186238 1.610091 1.717431.536698 2.898165 1.395415 4.186238 3.112843.429358.5367.751377 1.61009.751377 2.68349 0 .42935 1.073394 10.84128.858715 13.20275-.107339 1.50275-.214679 1.71743-.429358 2.14679-.214678.21468-1.717431 2.57615-2.361467 2.89816-.644037.21468-3.005505.32202-3.542202.21468zm29.303669-5.47431s-7.621101-.21468-7.83578-.42936c-.322018-.32201-.644036-.42935-.751376-1.18073 0-.32202 0-1.39541.10734-2.14679.107339-1.50275.429357-2.36147 1.288073-3.32752l.214679-.21468c.107339-.10734.322018-.21468.429358-.21468 1.288073.10734 7.191743.32202 7.299082.42936.322018.10734.644037.64403.751376 1.39541 0 .32202.536697 2.89817.536697 3.64954.10734 1.0734-.107339 1.39541-.322018 1.71743-.322018.21468-1.717431.32202-1.717431.32202zm44.116513-29.625687c-.42936-.214679-1.28807-3.649541-1.39541-5.581651-.10734-.966055 0-1.073394.10734-1.395413.10734-.107339.32202-.322018.42935-.322018.10734 0 .5367-.322018.85872-.644037.75138-.751376 1.28807-1.717431 1.28807-2.468807 0-.536697 1.39542-8.372477 1.50276-9.338532.21467-2.146789.32201-2.468807 1.18073-2.683486.75138-.214679 6.01101-.10734 6.54771.107339.53669.214679.64403.644037.42935 1.93211-.10734.644037-2.36146 13.63211-2.4688 13.954128-.10734.536698-5.47432 4.937615-5.58165 4.937615-.10734 0-2.36147 1.717431-2.57615 1.610092 0 .107339-.21468 0-.32202-.10734zM77.58165 73.82477c-.107339-.214679-.107339-.644037-.107339-.966055 0-.429358 1.502752-3.112844 1.610092-3.327523.214678-.214679 9.445871-50.342201 9.445871-50.342201s5.259633 1.288073 5.581651 1.395413c.858716.429358.966055.858715.966055 2.361468 0 .858715-8.694495 48.51743-8.909174 48.732109-.214679.214679-2.468807 4.078899-3.005504 4.830275-.214679.322018-.966055.322018-1.395413.107339-.10734.10734-4.078899-2.361468-4.186239-2.790825zm47.65872-11.163303c-3.00551-.107339-3.43487-.214679-4.29358-1.395413-.32202-.429357-6.65505-12.773394-7.29908-13.202752-.42936-.322018-9.01652-9.123853-8.80184-9.982568.10734-.536697 2.89817-3.542202 3.22019-3.86422 1.18073-1.395413 1.61009-1.288074 3.86421 1.073394.85872.966055 6.97707 7.299083 7.19175 7.513761 1.18073 1.073395 1.50275 1.395413 1.61009 1.93211.10734.322019 7.40642 14.490826 7.51376 14.920184.10734.429357 1.39541 2.790825.96606 3.112844-.32202.214678-2.57615 0-3.97156-.10734zM97.332109 32.606422c-2.03945-1.824771-2.146789-1.93211-1.610092-3.86422.107339-.644037 1.180734-5.152294 1.502752-5.259633.322018 0 1.288073.429358 1.824773.966055.21468.214679 8.909178 7.191743 8.909178 7.621101 0 .322018-3.86423 5.152293-4.6156 5.152293-.5367 0-.75138-.107339-1.28808-.536697 0 0-3.756878-3.220183-4.722931-4.078899zM24.341285 84.558714c-.10734.10734-.322019.10734-.429358.10734-.214679 0-2.361468-1.824771-2.468808-1.824771-.107339 0-5.152293-4.615596-5.259632-5.152293-.107339-.322019-1.610092-13.417431-1.717431-14.061468-.10734-1.288073 0-1.717431.536697-1.93211.536697-.214679 5.79633 0 6.547706.214679.751376.214679.858716.644037.966055 2.683486 0 .966055 1.073394 8.909174 1.073394 9.445872 0 .751376.429358 1.82477 1.180734 2.576146.322019.429358.751376.751376.858716.751376.107339 0 .322018.10734.429358.322019.214679.214679.214679.429358.107339 1.395413-.322018 1.93211-1.395413 5.259632-1.82477 5.474311zm37.354127-7.943119c-.429358.214679-1.180734.10734-1.395413-.107339-.536697-.751376-2.576146-4.722936-2.790825-4.937615-.214679-.322018-6.225688-48.302751-6.225688-49.161466 0-1.502753.214679-1.932111 1.073394-2.254129.322019-.107339 5.581651-1.073394 5.581651-1.073394s6.440367 50.44954 6.655046 50.771558c.10734.10734 1.502752 2.898165 1.502752 3.327523 0 .322018-.107339.751376-.214678.966055-.10734.214679-4.186239 2.468807-4.186239 2.468807zM15.002753 60.08532c-.322018-.429357.966055-2.683486 1.073395-3.112844.107339-.322018 8.157797-14.168807 8.265137-14.490825.214678-.536697.536697-.966055 1.717431-1.93211.322018-.214679 6.655045-6.225688 7.6211-7.084403 2.361468-2.254129 2.790826-2.254129 3.864221-.858716.322018.429358 2.898165 3.542202 3.005504 4.078899.10734.858716-8.909174 9.231192-9.338532 9.445871-.644037.429358-7.72844 12.451376-8.050458 12.880734-.858716 1.073394-1.288074 1.288073-4.293578 1.180734-1.288074 0-3.649541.107339-3.86422-.10734zm28.444953-24.580733c-.536697.536697-.751376.536697-1.288073.536697-.751376 0-4.293578-5.044954-4.293578-5.474312 0-.429357 9.123853-6.977064 9.338532-7.084403.536697-.429358 1.502752-.858716 1.93211-.858716.322018.10734 1.073394 4.615597 1.180734 5.259633.322018 1.93211.322018 2.03945-1.824771 3.756881-1.073394.858716-5.044954 3.86422-5.044954 3.86422z"/>
</svg>
