<svg xmlns="http://www.w3.org/2000/svg" viewBox="0 0 144 144">
    <circle class="color-main color-yellow" fill="#ffe600" cx="72" cy="72" r="65.4"/>
    <path class="color-black color-reserved-white" d="M113.4 44.9c-.1-.2-.4-.9-.6-1.7-.2-.7-.7-1.8-1-2.3s-.9-1.9-1.2-2.3c-.3-.4-.8-1.2-1.1-1.6-1.3-2-9.5-8.7-9.8-8.9-.4-.2-3.3-2-3.6-2.2-.3-.2-16-5.1-16.2-4.8-.4.4-20.1 98.2-20.2 98.9-.7 3-.7 3.5 1.6 4 .5.1 7 .9 7.7.6.8-.4 1.1-.9 1.6-3.6.4-2.1 7.6-38.2 7.8-38.4.3-.3.4-.4.6-.2.5.4 13.9 37.6 14.4 37.6.4 0 7.1-3.9 7.7-4.3 1.2-.9 1.2-1.2.7-2.3-.2-.4-7-20.2-7.2-20.5s-4-11.7-4-12.5c0-.5.1-.7.6-.9.4-.2 1.4-.4 2.2-.5.9-.1 1.9-.4 2.4-.7.4-.2 1.3-.6 2-.7.6-.2 1.6-.6 2.2-.9.5-.3 1.1-.6 1.2-.6s.8-.4 1.4-.8a25 25 0 001.3-.8c.1 0 .5-.3 1-.7.5-.4.9-.7 1-.7s.9-.7 1.8-1.6c1.5-1.5 2.4-2.6 3.3-4.3.2-.4.7-1.2 1-1.7s.7-1.4.8-1.9c.2-.5.5-1.5.7-2.1.5-1.3 1.2-5.8 1.2-8.5-.1-2.6-.8-7.3-1.3-8.1zM103 58.1c-.5 1.3-1.6 3.6-1.8 4-.9 1.8-4.5 4.9-6.3 5.4-.5.2-3.1 1.2-4.1 1.3-1.4.2-7.3.2-8 .1-.8-.2-1.3-.5-1.4-.7 0-.2.1-.7.2-1.3.2-.5 6.2-31.9 6.5-32.3.3-.4 1.2-.3 1.9.2.4.2 1.1.6 1.7.8s4.3 2.4 4.9 2.8c1.2.7 3.9 3.4 4.8 4.8.2.3.6 1 .8 1.5.2.5.6 1.2.7 1.5.8 1.5.9 2 .9 5.8l-.8 6.1zm-52.7 61.4c-.1-.3-.3-.7-.3-.8 0-.1-26.4-68.3-26.2-69.1.1-.3.4-1.1.8-1.7.4-.6.8-1.4.9-1.7.3-.6 3.1-4.9 3.3-5.1.4-.4 1.6-.5 1.9-.1.1.1 16.9 46.2 17.2 46.2.5 0 13.8-63.1 13.9-64.2.1-1.2.6-2 1.3-2.4.8-.4 9.3-1 9.3-1l.4.5c.5.5-21.6 100.1-22 100.1-.1-.1-.3-.3-.5-.7z"/>
    <path class="color-black" d="M72 1.8C33.2 1.8 1.8 33.2 1.8 72s31.4 70.2 70.2 70.2 70.2-31.4 70.2-70.2S110.8 1.8 72 1.8zm0 131.1c-33.6 0-60.9-27.3-60.9-60.9S38.4 11.1 72 11.1s60.9 27.3 60.9 60.9-27.3 60.9-60.9 60.9z"/>
</svg>
