<?xml version="1.0" encoding="UTF-8" standalone="no"?>
<!-- Created with Inkscape (http://www.inkscape.org/) -->

<svg
   width="100"
   height="100"
   viewBox="0 0 26.458333 26.458334"
   version="1.1"
   id="svg1965"
   inkscape:version="1.2.1 (9c6d41e410, 2022-07-14)"
   sodipodi:docname="SOO.svg"
   xmlns:inkscape="http://www.inkscape.org/namespaces/inkscape"
   xmlns:sodipodi="http://sodipodi.sourceforge.net/DTD/sodipodi-0.dtd"
   xmlns="http://www.w3.org/2000/svg"
   xmlns:svg="http://www.w3.org/2000/svg">
  <sodipodi:namedview
     id="namedview1967"
     pagecolor="#ffffff"
     bordercolor="#666666"
     borderopacity="1.0"
     inkscape:showpageshadow="2"
     inkscape:pageopacity="0.0"
     inkscape:pagecheckerboard="0"
     inkscape:deskcolor="#d1d1d1"
     inkscape:document-units="px"
     showgrid="false"
     inkscape:zoom="4.7572176"
     inkscape:cx="60.539589"
     inkscape:cy="47.927175"
     inkscape:window-width="1415"
     inkscape:window-height="1193"
     inkscape:window-x="2929"
     inkscape:window-y="72"
     inkscape:window-maximized="0"
     inkscape:current-layer="layer1" />
  <defs
     id="defs1962" />
  <g
     inkscape:label="Layer 1"
     inkscape:groupmode="layer"
     id="layer1">
    <circle
       style="fill:#C40017;stroke-width:0.908662;stroke-linecap:square;stroke-linejoin:round"
       id="path2138"
       cx="13.229167"
       cy="13.229167"
       r="13.229167" />
    <g
       id="g2274"
       transform="translate(-4.7908199,-1.3425438)">
      <path
         class="st0"
         d="m 26.252347,13.278247 c 0,2.663433 0,5.327128 0,7.990561 0,0.106527 0,0.107049 -0.1047,0.123498 -0.804173,0.127153 -1.608086,0.254307 -2.412259,0.38146 -0.690336,0.109138 -1.380672,0.219059 -2.071269,0.327936 -0.749344,0.118276 -1.498948,0.234986 -2.248553,0.353262 -0.627412,0.09896 -1.254302,0.199215 -1.881714,0.298954 -0.566054,0.09008 -1.132109,0.180417 -1.698425,0.269972 -0.785113,0.124282 -1.570227,0.247519 -2.35534,0.371539 -0.511486,0.08068 -1.022972,0.161879 -1.534457,0.242819 -0.646211,0.102088 -1.292422,0.203915 -1.938633,0.306003 -0.05248,0.0084 -0.1057436,0.01384 -0.1577015,0.02454 -0.046214,0.0094 -0.063968,-0.0084 -0.062402,-0.05274 5.222e-4,-0.01697 0,-0.0342 0,-0.05118 0,-5.327127 0,-10.653993 0,-15.9811208 0,-0.1169707 0,-0.1167096 0.1156652,-0.1352474 0.5744103,-0.091644 1.1490803,-0.18355 1.7234903,-0.2746722 0.568143,-0.090078 1.136548,-0.1798947 1.704952,-0.2691893 C 14.063635,7.0892372 14.796007,6.9746164 15.52864,6.8592122 16.33908,6.7315366 17.14952,6.6035999 17.95996,6.4751411 18.848206,6.3346718 19.736452,6.1934192 20.624699,6.05295 21.435138,5.9247522 22.245578,5.7968155 23.056018,5.6688788 23.923377,5.5320648 24.790474,5.3952509 25.657833,5.258437 25.834594,5.2305 26.011878,5.20439 26.188378,5.174364 c 0.05039,-0.00862 0.06736,0.00809 0.06449,0.055613 -0.0013,0.021149 -2.61e-4,0.042559 -2.61e-4,0.063968 -2.61e-4,2.6616055 -2.61e-4,5.32295 -2.61e-4,7.984294 z"
         id="path4"
         style="fill:#ffffff;stroke-width:0.0261095" />
      <path
         d="m 10.605689,15.734893 c 0,-2.428709 2.61e-4,-4.857417 -0.0016,-7.2861256 0,-0.067624 0.01854,-0.088772 0.08486,-0.098694 0.528196,-0.080678 1.055869,-0.1657955 1.583804,-0.249346 0.468927,-0.074151 0.938115,-0.14778 1.407304,-0.2216699 0.609918,-0.096083 1.219837,-0.1924273 1.829756,-0.2887714 0.607829,-0.095822 1.215659,-0.191644 1.823489,-0.287727 0.60783,-0.096083 1.21566,-0.1924273 1.82349,-0.2882493 0.60783,-0.096083 1.215659,-0.1916439 1.823489,-0.287727 0.605741,-0.095561 1.211482,-0.1913828 1.817224,-0.2872048 0.609918,-0.096344 1.219837,-0.1924272 1.829755,-0.2887714 0.258746,-0.040992 0.51723,-0.082506 0.775715,-0.1242814 0.08068,-0.013055 0.08094,-0.013577 0.08094,0.06919 0,4.8639448 0,9.7276278 0.001,14.5915718 0,0.05091 -0.0086,0.07206 -0.06632,0.08094 -0.505219,0.07676 -1.009916,0.158224 -1.514614,0.23838 -0.746471,0.118537 -1.492942,0.237597 -2.239675,0.355612 -0.631067,0.09974 -1.262135,0.19791 -1.893202,0.297387 -0.61018,0.09608 -1.220098,0.193211 -1.830017,0.289555 -0.658482,0.103916 -1.316965,0.20731 -1.975447,0.311487 -0.612007,0.09687 -1.223754,0.195038 -1.836022,0.291382 -0.689814,0.108877 -1.379889,0.216187 -2.069964,0.324542 -0.462661,0.07285 -0.925583,0.144646 -1.387721,0.221408 -0.06736,0.01123 -0.0671,-0.01384 -0.0671,-0.06423 7.84e-4,-1.772054 7.84e-4,-3.543847 7.84e-4,-5.3159 0,-0.660572 0,-1.321665 0,-1.982758 z"
         id="path6"
         style="stroke-width:0.0261095" />
      <path
         class="st0"
         d="m 13.239096,21.682122 c 0.0078,-0.02246 0.01149,-0.03917 0.0188,-0.05431 0.106265,-0.212793 0.132636,-0.437335 0.125848,-0.674148 -0.01071,-0.366578 -0.0044,-0.733417 -0.0013,-1.100256 5.22e-4,-0.06266 -0.01514,-0.08433 -0.08016,-0.09608 -0.832894,-0.150913 -1.36109,-0.654566 -1.647773,-1.434196 -0.121931,-0.33133 -0.192166,-0.67441 -0.231852,-1.024277 -0.0037,-0.03133 -0.01175,-0.06266 -0.02167,-0.09269 -0.0099,-0.0295 -0.0248,-0.05718 -0.04465,-0.101827 0.430024,0.207832 0.845687,0.408614 1.26344,0.610441 -0.02663,0.03551 -0.08825,0.03159 -0.09138,0.06658 -0.0037,0.0436 0.01906,0.09008 0.03316,0.134203 0.06945,0.21932 0.166579,0.423757 0.324803,0.594514 0.120887,0.130547 0.266839,0.222714 0.433157,0.285638 0.05379,0.02037 0.06292,0.0091 0.06266,-0.04465 -0.0016,-0.675976 -0.001,-1.351952 -0.001,-2.027927 0,-0.622713 -7.84e-4,-1.245425 0.0013,-1.867876 2.61e-4,-0.05196 -0.01723,-0.07963 -0.06057,-0.104961 -0.305482,-0.178589 -0.605219,-0.365533 -0.876497,-0.594775 -0.442295,-0.373627 -0.692425,-0.846732 -0.75561,-1.422969 -0.05744,-0.524279 -0.0097,-1.033415 0.205221,-1.518791 0.285638,-0.645167 0.753782,-1.08929 1.442291,-1.2830227 0.03316,-0.0094 0.04465,-0.021149 0.04439,-0.055091 -10e-4,-0.2516958 -10e-4,-0.5031306 0,-0.7548265 0,-0.025848 -0.0099,-0.044386 -0.02454,-0.063185 -0.03368,-0.043342 -0.06632,-0.087467 -0.106005,-0.1402082 0.358745,-0.046736 0.707568,-0.092167 1.059264,-0.1381194 0,0.011488 0.0021,0.018538 -2.61e-4,0.022976 -0.06893,0.1214093 -0.07676,0.2524791 -0.07311,0.3887709 0.0052,0.2002601 0.0052,0.4010423 -7.83e-4,0.6013024 -0.0021,0.070235 0.02219,0.088511 0.08538,0.096866 0.227675,0.030287 0.44334,0.101305 0.64595,0.2096595 0.405481,0.21697 0.689813,0.548822 0.897645,0.951953 0.0342,0.06606 0.06553,0.133681 0.0953,0.202088 0.03342,0.07728 0.0517,0.165534 0.156657,0.178067 -0.007,0.02898 -0.02742,0.03368 -0.0423,0.04334 -0.280155,0.186422 -0.560311,0.372844 -0.840988,0.558483 -0.01541,0.01018 -0.03107,0.03107 -0.04909,0.02402 -0.02063,-0.0081 -0.01175,-0.03368 -0.01149,-0.05144 0.0018,-0.191122 -0.0846,-0.354307 -0.167362,-0.516708 -0.149608,-0.293471 -0.358745,-0.527413 -0.678065,-0.643861 -0.08929,-0.03238 -0.08929,-0.03238 -0.08929,0.06423 0,1.079107 5.22e-4,2.157953 -0.0013,3.23706 0,0.05431 0.01697,0.08225 0.06318,0.10966 0.328197,0.194255 0.653261,0.39321 0.955087,0.627673 0.370233,0.287727 0.682764,0.622451 0.869447,1.06083 0.125848,0.295299 0.186422,0.604436 0.201827,0.923755 0.02872,0.598431 -0.0483,1.178062 -0.324019,1.717746 -0.336813,0.659005 -0.874409,1.050648 -1.602865,1.180673 -0.05196,0.0094 -0.120364,0.0034 -0.151435,0.0342 -0.03238,0.03238 -0.0094,0.101305 -0.0097,0.154307 -10e-4,0.213315 0.0016,0.42663 -0.0018,0.639684 -7.83e-4,0.05378 0.01567,0.0624 0.06397,0.05457 0.306526,-0.05065 0.613313,-0.09922 0.919839,-0.148041 0.413836,-0.06606 0.827933,-0.131592 1.241769,-0.19765 0.415925,-0.06632 0.83185,-0.133158 1.247775,-0.199215 0.413836,-0.06606 0.827933,-0.131592 1.241769,-0.197388 0.439162,-0.06971 0.878325,-0.139686 1.317226,-0.20966 0.44334,-0.07076 0.886418,-0.141514 1.329758,-0.212531 0.26684,-0.04256 0.533679,-0.08538 0.800518,-0.127676 0.02846,-0.0044 0.0517,-0.01906 0.07546,-0.03264 0.07885,-0.04543 0.157701,-0.09138 0.236291,-0.137075 0.01932,0.02167 0.0081,0.03942 0.0031,0.05666 -0.09008,0.308092 -0.180678,0.615924 -0.26945,0.924277 -0.01071,0.03734 -0.02559,0.05405 -0.0671,0.06057 -0.737594,0.116449 -1.474666,0.235769 -2.211999,0.353262 -0.682764,0.108877 -1.365789,0.215665 -2.048554,0.324542 -0.735244,0.117231 -1.470227,0.236291 -2.205472,0.353523 -0.680675,0.108615 -1.361612,0.215403 -2.042287,0.323758 -0.199216,0.03159 -0.39817,0.0658 -0.597125,0.09843 -0.0084,7.83e-4 -0.01697,-2.61e-4 -0.03342,-2.61e-4 z"
         id="path8"
         style="fill:#ffffff;stroke-width:0.0261095" />
      <path
         class="st0"
         d="m 24.384471,10.767555 c -0.0026,0.576498 -0.135509,1.118271 -0.451434,1.604953 -0.300782,0.462922 -0.731589,0.725061 -1.280933,0.791379 -0.297649,0.03577 -0.585637,0.0154 -0.857699,-0.125325 -0.18851,-0.09765 -0.330807,-0.244647 -0.454044,-0.413314 -0.227414,-0.310965 -0.350912,-0.662921 -0.408876,-1.040726 -0.03969,-0.257701 -0.05483,-0.516969 -0.03838,-0.77702 0.03655,-0.580153 0.199477,-1.1177486 0.570755,-1.5754487 0.287988,-0.3553507 0.668665,-0.5498667 1.12036,-0.6122685 0.217231,-0.030026 0.432112,-0.031331 0.646211,0.021671 0.315664,0.078329 0.540206,0.2764999 0.719056,0.5381174 0.239686,0.350651 0.366578,0.7407273 0.40992,1.1605688 0.01436,0.142036 0.02846,0.284071 0.02507,0.427413 z"
         id="path10"
         style="fill:#ffffff;stroke-width:0.0261095" />
      <path
         class="st0"
         d="m 16.652656,11.707759 c -0.0039,-0.554305 0.108615,-1.047514 0.364228,-1.502865 0.31723,-0.5652709 0.800518,-0.8767576 1.448817,-0.9328931 0.291383,-0.025326 0.568927,0.00914 0.826106,0.1566572 0.219842,0.126109 0.3671,0.3214083 0.49582,0.5318511 0.196605,0.3216698 0.296082,0.6749318 0.337074,1.0477758 0.04151,0.377805 0.03368,0.752737 -0.05222,1.123493 -0.09399,0.404959 -0.250129,0.781719 -0.52193,1.102344 -0.271278,0.319842 -0.617751,0.508875 -1.029237,0.580154 -0.241513,0.04178 -0.483027,0.0483 -0.72219,-0.01593 -0.295299,-0.07911 -0.516446,-0.260834 -0.692686,-0.504697 -0.228197,-0.315664 -0.354828,-0.670493 -0.411225,-1.052998 -0.02794,-0.187727 -0.04413,-0.376238 -0.04256,-0.532895 z"
         id="path12"
         style="fill:#ffffff;stroke-width:0.0261095" />
      <path
         class="st0"
         d="m 20.306423,17.086583 c 0,-0.136292 -0.0018,-0.266056 2.61e-4,-0.39582 0.0078,-0.472844 0.01645,-0.945687 0.02559,-1.418792 0.0016,-0.08512 0.0097,-0.170234 0.0084,-0.255351 -0.0013,-0.09843 0.03603,-0.208877 -0.08903,-0.276239 0.0052,-0.0039 0.01044,-0.0076 0.01567,-0.01149 0.294777,-0.04647 0.589814,-0.09295 0.88668,-0.139686 0.0018,0.0107 0.0055,0.01802 0.0031,0.02141 -0.07833,0.121931 -0.07154,0.259006 -0.07389,0.395037 -0.0089,0.575193 -0.01854,1.150386 -0.02872,1.72584 -0.0078,0.434462 -0.01671,0.869186 -0.02533,1.303648 -0.0026,0.129765 -0.0065,0.25979 -0.0097,0.389555 -0.0023,0.09295 -0.01932,0.190077 0.08747,0.259528 -0.110183,0.03264 -0.208616,0.04047 -0.305482,0.05692 -0.152741,0.02559 -0.306004,0.04648 -0.458483,0.07311 -0.06031,0.01071 -0.09661,0.0044 -0.128981,-0.05953 -0.334725,-0.66031 -0.673626,-1.318531 -1.011745,-1.977275 -0.0141,-0.02742 -0.02428,-0.05822 -0.06371,-0.09452 0,0.08198 7.83e-4,0.149085 -2.61e-4,0.215926 -0.0052,0.36005 -0.0097,0.720101 -0.01645,1.080412 -0.0055,0.291644 -0.01201,0.583548 -0.02219,0.875192 -0.0023,0.06423 0.05718,0.08616 0.07728,0.144385 -0.297126,0.047 -0.591642,0.09373 -0.886418,0.140208 -0.0013,-0.0089 -0.0037,-0.01358 -0.0021,-0.01619 0.08146,-0.151435 0.07023,-0.316447 0.07258,-0.479893 0.0037,-0.249346 0.0084,-0.498431 0.01306,-0.747777 0.0084,-0.457961 0.01671,-0.915922 0.02585,-1.373622 0.0081,-0.415403 0.01514,-0.830544 0.02663,-1.245686 0.0026,-0.09138 -0.0063,-0.173106 -0.10026,-0.240207 0.125064,-0.02037 0.232635,-0.03812 0.340207,-0.05509 0.146996,-0.02324 0.294776,-0.04256 0.441251,-0.06997 0.0517,-0.0097 0.07389,0.0013 0.09765,0.04804 0.352218,0.696863 0.706524,1.392682 1.061092,2.08824 0.0065,0.01227 0.0076,0.02976 0.03995,0.03969 z"
         id="path14"
         style="fill:#ffffff;stroke-width:0.0261095" />
      <path
         class="st0"
         d="m 21.677957,14.507223 c 0.160574,-0.02585 0.319581,-0.05144 0.478588,-0.07676 0.373366,-0.05901 0.746993,-0.117754 1.120621,-0.176501 0.295821,-0.04647 0.591642,-0.09269 0.887463,-0.138641 0.04047,-0.0063 0.104438,0.04543 0.104438,0.08877 0.001,0.264229 5.22e-4,0.528457 5.22e-4,0.79138 -0.006,0.0016 -0.0084,0.0034 -0.0099,0.0026 -0.164229,-0.07781 -0.329502,-0.02663 -0.493731,-0.0016 -0.372061,0.05692 -0.743599,0.116971 -1.11566,0.174412 -0.09713,0.01488 -0.09687,0.01253 -0.09869,0.109921 -0.0031,0.189555 -0.0055,0.379111 -0.01149,0.568666 -0.0016,0.04726 0.01462,0.05849 0.05822,0.0517 0.33603,-0.05379 0.67232,-0.106527 1.00835,-0.159269 0.126109,-0.01984 0.252218,-0.0389 0.378327,-0.05875 0.02506,-0.0039 0.05483,-0.0029 0.07415,-0.01593 0.06789,-0.04595 0.06501,-0.0016 0.06501,0.04569 -2.61e-4,0.272583 -2.61e-4,0.544906 -2.61e-4,0.821145 -0.140992,-0.07389 -0.2765,-0.0042 -0.411225,0.01436 -0.370756,0.05065 -0.739683,0.114882 -1.109916,0.169973 -0.06136,0.0091 -0.08486,0.02663 -0.08486,0.09399 -5.23e-4,0.261879 -0.0084,0.524018 -0.01514,0.785897 -0.001,0.04282 0.0034,0.05718 0.05457,0.04883 0.442818,-0.07206 0.88668,-0.139686 1.329758,-0.209921 0.128459,-0.02037 0.246474,-0.07833 0.372844,-0.109921 0.01567,0.01671 0.0086,0.03655 0.0086,0.05405 5.22e-4,0.249346 -7.84e-4,0.498953 0.0013,0.748299 5.22e-4,0.04909 -0.01123,0.06867 -0.06475,0.07676 -0.394515,0.05953 -0.788507,0.123759 -1.1825,0.186161 -0.413575,0.06554 -0.826889,0.130286 -1.240464,0.19556 -0.05013,0.0078 -0.100522,0.01619 -0.150913,0.02428 -7.83e-4,-0.0065 -0.0029,-0.01149 -0.0013,-0.01358 0.109138,-0.134464 0.07337,-0.296343 0.07807,-0.447517 0.01149,-0.362139 0.01201,-0.724278 0.01828,-1.086679 0.0078,-0.443078 0.01645,-0.886157 0.02559,-1.329236 0.007,-0.342818 0.01358,-0.685897 0.0235,-1.028454 0.0018,-0.05796 -0.01018,-0.103133 -0.05379,-0.141514 -0.01619,-0.01462 -0.03525,-0.02977 -0.0436,-0.05822 z"
         id="path16"
         style="fill:#ffffff;stroke-width:0.0261095" />
      <path
         class="st0"
         d="m 17.881109,15.10487 c -0.122193,0.224281 -0.06919,0.457178 -0.07885,0.68172 -0.01801,0.410703 -0.01593,0.82245 -0.02324,1.233675 -0.0078,0.443079 -0.0141,0.886157 -0.02663,1.329236 -0.0063,0.21932 -0.0052,0.438901 -0.01306,0.658221 -0.0021,0.05796 0.01071,0.102611 0.05065,0.14282 0.0154,0.01566 0.03603,0.03029 0.03969,0.06136 -0.319058,0.05013 -0.637333,0.100261 -0.957697,0.150652 -0.0057,-0.03473 0.0091,-0.05953 0.0201,-0.08251 0.05065,-0.106527 0.05953,-0.218276 0.0611,-0.334985 0.006,-0.524019 0.01697,-1.048298 0.02663,-1.572316 0.0081,-0.432374 0.01697,-0.865009 0.02533,-1.297383 0.0037,-0.183289 0.006,-0.366317 0.01097,-0.549605 0.0026,-0.09556 0.01932,-0.193211 -0.08616,-0.271017 0.324802,-0.05118 0.631328,-0.09948 0.95117,-0.149869 z"
         id="path18"
         style="fill:#ffffff;stroke-width:0.0261095" />
      <path
         d="m 14.238307,15.30043 c 0.524802,0.336552 0.947515,0.739161 1.066314,1.369184 0.09869,0.523496 0.07467,1.040204 -0.171018,1.525841 -0.173106,0.342035 -0.454828,0.554827 -0.826366,0.650388 -0.05666,0.01462 -0.07024,0.0052 -0.06997,-0.05483 0.0021,-0.682242 0.0013,-1.364484 0.0013,-2.046726 0,-0.454044 0,-0.90835 0,-1.362395 -2.62e-4,-0.02324 -2.62e-4,-0.04621 -2.62e-4,-0.08146 z"
         id="path20"
         style="stroke-width:0.0261095" />
      <path
         d="m 13.375388,13.656835 c -0.174673,-0.12637 -0.333419,-0.257701 -0.468144,-0.416186 -0.152741,-0.179894 -0.232897,-0.389815 -0.250652,-0.623234 -0.02898,-0.377022 -0.01175,-0.749344 0.137336,-1.104172 0.116188,-0.2765 0.298432,-0.49347 0.58146,-0.62689 0,0.923755 0,1.84255 0,2.770482 z"
         id="path22"
         style="stroke-width:0.0261095" />
      <path
         d="m 23.531211,10.943533 c 0.0034,0.391643 -0.05979,0.735244 -0.243079,1.049864 -0.134464,0.230547 -0.326369,0.375977 -0.598953,0.405481 -0.261617,0.0282 -0.465794,-0.0705 -0.622973,-0.27415 -0.148041,-0.191905 -0.218276,-0.416969 -0.265534,-0.649866 -0.06423,-0.31697 -0.08825,-0.637073 -0.05091,-0.959003 0.03185,-0.274933 0.101566,-0.5391619 0.253785,-0.775192 0.179372,-0.2780665 0.480676,-0.4101807 0.80339,-0.3524787 0.155613,0.027676 0.270495,0.1190595 0.362661,0.2422965 0.181462,0.2430797 0.272584,0.5219292 0.320103,0.8174892 0.02768,0.174673 0.04621,0.350129 0.04151,0.495559 z"
         id="path24"
         style="stroke-width:0.0261095" />
      <path
         d="m 19.295723,11.61507 c 0.0039,0.383288 -0.05901,0.722973 -0.237335,1.03446 -0.13342,0.233158 -0.325064,0.383288 -0.600258,0.414097 -0.267101,0.03003 -0.473888,-0.07154 -0.632634,-0.280678 -0.13812,-0.181983 -0.208354,-0.393992 -0.253785,-0.614096 -0.08355,-0.403914 -0.107571,-0.809917 -0.01932,-1.216704 0.04726,-0.217753 0.118798,-0.427413 0.257962,-0.60548 0.198433,-0.253784 0.462139,-0.345951 0.775714,-0.290599 0.147519,0.02611 0.25744,0.118276 0.345429,0.235769 0.183028,0.244646 0.275195,0.525324 0.322714,0.823234 0.02794,0.175195 0.04648,0.350651 0.04151,0.499997 z"
         id="path26"
         style="stroke-width:0.0261095" />
    </g>
  </g>
</svg>
