<svg xmlns="http://www.w3.org/2000/svg" viewBox="0 0 65.8 65.8"><style/><circle cx="32.9" cy="32.9" r="32.4" fill="#8f4199" stroke="#fff" stroke-miterlimit="10"/><path d="M52.4 45.7l-2.3-5.2h1.3v-5.7h-3.8L39 15.2H28.8l-9.7 19.6h-4.4v5.7h1.6l-2.6 5.3h-1.9v5h13.6v-5h-1.9l2.3-5.3H33l1.9 5.2H33v5h21.4v-5h-2zM28.3 34.9l1.5-3.4 1.2 3.4h-2.7z"/><path d="M52 45.3l-2.3-5.2H51v-5.7h-3.8l-8.6-19.6H28.4l-9.7 19.6h-4.4v5.7H16l-2.6 5.3h-1.9v5h13.6v-5h-1.9l2.3-5.3h7.1l1.9 5.2h-1.9v5H54v-5h-2zM27.9 34.4l1.5-3.4 1.2 3.4h-2.7z" fill="#fff"/></svg>