<svg version="1.1" id="Layer_1" xmlns="http://www.w3.org/2000/svg" x="0" y="0" viewBox="0 0 65.8 65.8" xml:space="preserve"><style>.st22{fill:#ee3f80}</style><circle cx="32.9" cy="32.9" r="32.4" fill="#fff" stroke="#fff" stroke-miterlimit="10"/><path class="st22" d="M55.1 24.3c-.2.1-.4.2-.6.2-.5.1-.6.3-.6.7 0 .9-.2 1.8-.3 2.6-.1.7-.1 1.4-.2 2.1.3-.1.4-.1.6-.2.4-.1.6-.3.6-.7 0-.4.1-.9.1-1.3.1.3.2.5.2.8.1.3.1.5.2.8 1.2-.2 1.2-.2 1.3-1.4.1-1.4.3-2.8.4-4.2-.8 0-1.1.2-1.2.9 0 .5-.1 1-.2 1.5h-.1c.1-.5 0-1.1-.2-1.8zm-4.8 6.6c1.2-.2 1.2-.2 1.3-1.3 0-.2 0-.5.1-.7.1-.2.2-.3.3-.5.1 0 .1.1.2.1 0 .6-.1 1.2-.1 1.8 1.2-.2 1.2-.2 1.3-1.3 0-.3.1-.5.1-.8 0-.3-.1-.5-.2-.7.5-.6.5-1.5.4-2.3 0-.1-.3-.3-.4-.3-.7.2-1.5.4-2.2.6-.1.5-.2 1-.2 1.5v.2c-.3 1.3-.4 2.5-.6 3.7zm.3-5.2c-.7.2-1.5.5-2.2.7-.1 0-.2.2-.2.4-.1.9-.2 1.9-.3 2.8-.1.7-.1 1.4-.2 2.2.6-.2 1.2-.4 1.7-.5.8-.3.8-.3.7-1.3-.4.1-.7.2-1.1.3-.1-.9 0-1.1.5-1.2.8-.3.8-.3.7-1.2-.3.1-.6.2-1 .3 0-.9 0-.9.6-1.1.8-.4.9-.4.8-1.4zm-4.5 1.4c-.3.1-.4.2-.6.2-.5.1-.6.3-.6.8l-.3 3.6c0 .4-.1.7-.1 1.1.3-.1.5-.2.7-.2.4-.1.5-.2.5-.6 0-.4.1-.9.1-1.3s.2-.5.6-.5c-.1.7-.1 1.3-.2 2.1.3-.1.4-.1.6-.2.5-.1.6-.3.7-.8l.3-3.6c0-.4.1-.7.1-1.1-1.2.2-1.2.2-1.3 1.3 0 .2-.1.5-.1.7 0 .4-.2.5-.5.5 0-.7 0-1.3.1-2zm-3.9 6.4c.3-.1.5-.1.6-.2.5-.1.6-.3.7-.8l.3-3.3c0-.2.2-.4.3-.5.6-.3.7-.5.6-1.2l-2.1.6c-.8.3-.9.4-.7 1.3.2-.1.5-.1.8-.2-.3 1.5-.4 2.8-.5 4.3zm-2.3-4.4c-1 .1-1.2.2-1.3 1.1 0 .3-.1.6-.1.9-.1.9-.2 1.9-.2 2.8 0 .5.2.7.7.6.5-.1.9-.3 1.3-.4.5-.2.8-.6.9-1.2 0-.4.1-.8.1-1.3.1-1 .2-2 .3-3.1-.3.1-.5.2-.7.2-.4.1-.5.3-.6.7-.1 1.1-.2 2.3-.3 3.4 0 .4-.2.5-.5.5.2-1.5.3-2.8.4-4.2zm-1.5 1.6v-.3c0-.6-.2-.8-.8-.7-.5.1-1 .2-1.4.5-.3.2-.6.5-.7.9-.2 1.3-.3 2.5-.4 3.8 0 .5.3.7.7.5.5-.1.9-.3 1.3-.4.5-.2.8-.6.9-1.2.2-1 .3-2.1.4-3.1zm-4.8.9c1.5-.2 1.8-.5 1.7-1.9 0-.5-.3-.7-.7-.6-.8.2-1.6.5-2.4.8-.3.1-.5.5-.5.8-.2.7-.2 1.4-.3 2.2 0 .4.2.6.5.7.3.1.6.1.9.1.5.1.6.1.5.6v.3c0 .4-.3.5-.6.5 0-.3 0-.6.1-1-.5.2-1 .3-1.4.5-.1 0-.2.2-.2.3 0 .5-.1.9-.1 1.4 0 .4.3.6.6.5.9-.1 1.8-.3 2.6-.9.3-.2.5-.5.5-.8.2-.7.2-1.5.3-2.2 0-.4-.2-.7-.6-.7-.3 0-.6 0-.9-.1-.4 0-.6-.1-.5-.5.1-.6.1-.7.6-.7-.1.1-.1.3-.1.7zm-4 2.7c-.4.1-.7.1-.9.3-.2.1-.2.5-.3.7-.2-.3-.4-.5-.5-.8-.3-.5-.2-.5.3-.7 0 .2.1.5.1.7.5-.3.6-1.3.2-1.7-.1-.1-.2-.1-.3-.1-1.2.1-2 1.1-1.6 2.1.1.3 0 .5-.1.7-.2.4-.5.7-.5 1.1-.3 1.1.5 1.8 1.5 1.5l1.8-.6c.1 0 .2-.1.4-.1-.1-.1-.1-.2-.2-.3-.3-.4-.4-.7-.2-1.2s.2-1 .3-1.6zm-6.7 0c-.2.1-.4.2-.5.2-.5.1-.6.4-.7.8-.1 1.4-.3 2.9-.4 4.3v.4c.2-.1.4-.2.6-.2.4-.1.6-.3.6-.7 0-.5.1-.9.1-1.3h.1c.1.5.2 1.1.3 1.7.3-.1.5-.2.7-.2.4-.1.5-.3.5-.6.1-1.2.2-2.5.4-3.7 0-.4.1-.7.1-1.1-.2.1-.4.1-.5.1-.4.1-.6.3-.6.7 0 .5-.1 1-.2 1.6h-.1c-.1-.7-.3-1.3-.4-2zm-1.5 1.6c0-.9-.2-1-1-.8-.4.1-.8.3-1.1.4-.5.2-.7.5-.8 1.1-.1.5-.1 1-.2 1.5-.1.6-.1 1.3-.2 2 0 .6.2.8.8.7.4-.1.7-.2 1.1-.3.6-.2 1-.6 1.1-1.3.1-1.2.2-2.3.3-3.3zm-5.6 5.7c.3-.1.5-.1.6-.2.4-.1.6-.3.6-.7.1-1.1.2-2.3.3-3.4 0-.2.2-.4.3-.5.6-.3.7-.5.6-1.2-.7.2-1.5.5-2.2.7-.7.2-.8.4-.7 1.2.2-.1.5-.1.7-.2 0 1.5-.1 2.9-.2 4.3zm-8 6V34c0-.5.2-.7.6-.9L26.1 28c7.1-2 14.3-4.1 21.4-6.1 3.3-.9 6.7-1.9 10-2.8.2 0 .3-.1.5-.1v13.3c0 .9 0 .9-.9 1.2-5.6 1.6-11.3 3.3-16.9 4.9-5.7 1.6-11.5 3.3-17.2 4.9-4.6 1.3-9.2 2.6-13.9 4-.3 0-.8.1-1.3.3zm.7-3.7c.4-.1.8-.3 1.1-.3.4-.1.5-.3.6-.6.1-.8.2-.8 1.1-.9 0 .3 0 .7.1 1 .4-.1.7-.3 1.1-.3.4-.1.5-.2.5-.6-.1-1.5-.1-3-.2-4.6 0-.5-.1-1.1-.1-1.7-.7.2-1.3.5-1.9.6-.4.1-.5.3-.6.7-.3 1.5-.6 2.9-1 4.4-.3.7-.5 1.4-.7 2.3zm6.3-7.1c-.3.1-.5.2-.7.2-.4.1-.5.3-.6.7l-.3 2.7c-.1.7-.1 1.3-.2 2h.2c.5-.2 1-.3 1.5-.5.7-.2.8-.4.7-1.2-.3.1-.6.2-1.1.3.3-1.4.4-2.8.5-4.2zM7.9 49.2c-.3-.7-.2-1 .5-1.2 3.9-1.1 7.8-2.3 11.7-3.4 1.2-.4 2.5-.7 3.7-1.1.4-.1.8-.1 1.1.2 4.5 3.9 12.6 4.1 17.7-.8 1.5-1.4 2.6-3.2 3.3-5.1.2-.5.4-.8.9-.9 3.6-1 7.2-2.1 10.8-3.1.1 0 .3-.1.5-.1v1c0 .1-.2.3-.4.3-3 .9-6 1.8-8.9 2.7-.5.2-1.1.3-1.7.5.3.5.5.9.8 1.5-.6.2-1.2.3-1.8.5l.6 1.8c-.6.1-1.2.1-1.8.2l.3 1.8c-.6 0-1.2-.1-1.8-.1v1.7c-.6-.2-1.2-.3-1.8-.5l-.3 1.8c-.4-.2-.7-.3-1.1-.5-.5-.2-.6-.2-.8.4l-.3.9c0 .1-.1.2-.1.3-.5-.3-1-.6-1.6-.9-.3.6-.5 1.1-.8 1.7-.5-.4-.9-.8-1.4-1.2-.4.5-.7 1-1.1 1.5-.4-.5-.8-.9-1.2-1.4-.4.5-.8.9-1.3 1.4-.4-.6-.6-1.1-1-1.7-.5.4-1 .7-1.5 1.1-.3-.6-.5-1.1-.8-1.7-.5.3-1.1.6-1.6.9-.2-.6-.3-1.2-.5-1.8-.6.2-1.1.4-1.7.6-.1-.6-.2-1.3-.2-2-5.6 1.6-11 3.2-16.4 4.7zm24.4-32.6c.4.5.8.9 1.2 1.5.4-.5.8-.9 1.3-1.4.4.5.7 1.1 1 1.6.5-.4.9-.7 1.5-1.1.3.6.5 1.1.7 1.7.5-.3 1.1-.6 1.6-.9.2.6.3 1.2.5 1.8l1.8-.6c.1.7.1 1.3.2 1.9 1.5 0 2.8-.3 4.2-.6l11.4-3.3c.1 0 .2 0 .4-.1v1c0 .1-.2.3-.4.3-1.5.5-3 .9-4.5 1.3-3.3.9-6.6 1.9-9.8 2.8-.5.1-1 .1-1.5-.3-2.5-2.1-5.4-3-8.5-3.1-5-.1-8.8 2.2-11.5 6.3-.5.8-.9 1.7-1.2 2.6-.3.6-.6 1-1.3 1.2-2.3.6-4.6 1.3-6.9 1.9-1.5.4-3 .9-4.5 1.3h-.2v-.6c0-.3.1-.4.4-.5 2.4-.7 4.7-1.4 7.1-2 1.4-.4 2.7-.8 4.1-1.2l-.9-1.8c.5-.1.9-.2 1.4-.3.3-.1.4-.2.3-.5l-.3-.9c-.2-.5-.1-.5.3-.5h1.4c-.1-.7-.2-1.4-.3-2.2.6 0 1.2.1 1.8.1v-1.9c.6.2 1.2.3 1.9.4.1-.6.2-1.2.3-1.9.6.2 1.1.5 1.7.7.2-.6.4-1.2.5-1.8.5.3 1 .6 1.6 1 .3-.6.5-1.1.8-1.7.5.4.9.8 1.4 1.2.2-.4.6-.9 1-1.4z"/><path class="st22" d="M11.3 37.9v2.3c0 .5-.4.4-.7.5.2-1 .4-1.9.6-2.8h.1zm41.1-11.7c.1 1 0 1.3-.5 1.4-.1-1 0-1.3.5-1.4zm-32.3 10c-.1.6-.1 1.3-.2 2 0 .3-.1.6-.1.9 0 .3-.2.5-.5.5v-.7c.1-.7.2-1.5.2-2.2.1-.4.2-.6.6-.5zm17.1-5.3l-.3 3c0 .1-.3.3-.4.4l-.1-.1c.1-.7.1-1.4.2-2.1 0-.3.1-.5.1-.8-.1-.2 0-.4.5-.4zM27.3 36c.2.3.4.6.5.9 0 0 0 .1-.1.1-.2 0-.5 0-.5-.1-.1-.3-.1-.5-.2-.8.1 0 .2-.1.3-.1z"/></svg>