<?xml version="1.0" encoding="utf-8"?>
<!-- Generator: Adobe Illustrator 21.0.0, SVG Export Plug-In . SVG Version: 6.00 Build 0)  -->
<svg version="1.1" id="Layer_1" xmlns="http://www.w3.org/2000/svg" xmlns:xlink="http://www.w3.org/1999/xlink" x="0px" y="0px"
	 viewBox="0 0 65.8 65.8" style="enable-background:new 0 0 65.8 65.8;" xml:space="preserve">
<style type="text/css">
	.st0{fill:#FFFFFF;stroke:#000000;stroke-miterlimit:10;}
	.st1{fill:#FFFFFF;stroke:#FFFFFF;stroke-miterlimit:10;}
	.st2{fill:none;stroke:#BE2026;stroke-width:2;stroke-miterlimit:10;}
	.st3{fill:#FFDEA7;}
	.st4{fill:#BE2026;}
	.st5{fill:#1C94D2;stroke:#FFFFFF;stroke-miterlimit:10;}
	.st6{fill:#FFFFFF;}
	.st7{fill:#00AFAD;stroke:#FFFFFF;stroke-miterlimit:10;}
	.st8{fill:#FFFFFF;stroke:#000000;stroke-width:0.25;stroke-miterlimit:10;}
	.st9{fill:#06884B;}
	.st10{fill:#BEC8CC;stroke:#FFFFFF;stroke-miterlimit:10;}
	.st11{clip-path:url(#SVGID_2_);}
	.st12{fill:#E22126;stroke:#FBE904;stroke-width:0.75;stroke-miterlimit:10;}
	.st13{fill:#191817;}
	.st14{fill:#FBE904;}
	.st15{fill:#E63229;}
	.st16{fill:#FEF16E;stroke:#FFFFFF;stroke-miterlimit:10;}
	.st17{fill:#1F4180;}
	.st18{fill:none;stroke:#E21E26;stroke-width:2;stroke-miterlimit:10;}
	.st19{fill:#E96F2B;}
	.st20{fill:#F29220;}
	.st21{fill:#EF8322;}
	.st22{fill:#EE3F80;}
	.st23{fill:#F1A847;}
	.st24{fill:#FDBA3A;}
	.st25{clip-path:url(#SVGID_4_);}
	.st26{fill:#383635;}
	.st27{clip-path:url(#SVGID_6_);}
	.st28{fill:#181A10;stroke:#FFFFFF;stroke-miterlimit:10;}
	.st29{fill:#EF4323;stroke:#FFFFFF;stroke-miterlimit:10;}
	.st30{fill:#BEDB86;stroke:#FFFFFF;stroke-miterlimit:10;}
	.st31{fill:#FFFFFF;stroke:#000000;stroke-width:0.5;stroke-miterlimit:10;}
	.st32{fill:#E38328;stroke:#FFFFFF;stroke-miterlimit:10;}
	.st33{fill:#020202;}
	.st34{fill:none;stroke:#FFFFFF;stroke-miterlimit:10;}
	.st35{fill:#BFDEF3;stroke:#FFFFFF;stroke-miterlimit:10;}
	.st36{fill:#994573;}
	.st37{fill:#F6F6F6;}
	.st38{fill:#8F4199;stroke:#FFFFFF;stroke-miterlimit:10;}
	.st39{fill:#175633;}
	.st40{fill:#984D2D;}
</style>
<circle class="st1" cx="32.9" cy="32.9" r="32.4"/>
<g>
	<g>
		<path class="st22" d="M55.1,24.3c-0.2,0.1-0.4,0.2-0.6,0.2c-0.5,0.1-0.6,0.3-0.6,0.7c0,0.9-0.2,1.8-0.3,2.6
			c-0.1,0.7-0.1,1.4-0.2,2.1c0.3-0.1,0.4-0.1,0.6-0.2c0.4-0.1,0.6-0.3,0.6-0.7c0-0.4,0.1-0.9,0.1-1.3c0.1,0.3,0.2,0.5,0.2,0.8
			c0.1,0.3,0.1,0.5,0.2,0.8c1.2-0.2,1.2-0.2,1.3-1.4c0.1-1.4,0.3-2.8,0.4-4.2c-0.8,0-1.1,0.2-1.2,0.9c0,0.5-0.1,1-0.2,1.5
			c0,0,0,0-0.1,0C55.4,25.6,55.3,25,55.1,24.3z M50.3,30.9c1.2-0.2,1.2-0.2,1.3-1.3c0-0.2,0-0.5,0.1-0.7c0.1-0.2,0.2-0.3,0.3-0.5
			c0.1,0,0.1,0.1,0.2,0.1c0,0.6-0.1,1.2-0.1,1.8c1.2-0.2,1.2-0.2,1.3-1.3c0-0.3,0.1-0.5,0.1-0.8c0-0.3-0.1-0.5-0.2-0.7
			c0.5-0.6,0.5-1.5,0.4-2.3c0-0.1-0.3-0.3-0.4-0.3c-0.7,0.2-1.5,0.4-2.2,0.6c-0.1,0.5-0.2,1-0.2,1.5c0,0.1,0,0.2,0,0.2
			C50.6,28.5,50.5,29.7,50.3,30.9z M50.6,25.7c-0.7,0.2-1.5,0.5-2.2,0.7c-0.1,0-0.2,0.2-0.2,0.4c-0.1,0.9-0.2,1.9-0.3,2.8
			c-0.1,0.7-0.1,1.4-0.2,2.2c0.6-0.2,1.2-0.4,1.7-0.5c0.8-0.3,0.8-0.3,0.7-1.3c-0.4,0.1-0.7,0.2-1.1,0.3c-0.1-0.9,0-1.1,0.5-1.2
			c0.8-0.3,0.8-0.3,0.7-1.2c-0.3,0.1-0.6,0.2-1,0.3c0-0.9,0-0.9,0.6-1.1C50.6,26.7,50.7,26.7,50.6,25.7z M46.1,27.1
			c-0.3,0.1-0.4,0.2-0.6,0.2c-0.5,0.1-0.6,0.3-0.6,0.8c-0.1,1.2-0.2,2.4-0.3,3.6c0,0.4-0.1,0.7-0.1,1.1c0.3-0.1,0.5-0.2,0.7-0.2
			c0.4-0.1,0.5-0.2,0.5-0.6c0-0.4,0.1-0.9,0.1-1.3c0-0.4,0.2-0.5,0.6-0.5c-0.1,0.7-0.1,1.3-0.2,2.1c0.3-0.1,0.4-0.1,0.6-0.2
			c0.5-0.1,0.6-0.3,0.7-0.8c0.1-1.2,0.2-2.4,0.3-3.6c0-0.4,0.1-0.7,0.1-1.1c-1.2,0.2-1.2,0.2-1.3,1.3c0,0.2-0.1,0.5-0.1,0.7
			c0,0.4-0.2,0.5-0.5,0.5C46,28.4,46,27.8,46.1,27.1z M42.2,33.5c0.3-0.1,0.5-0.1,0.6-0.2c0.5-0.1,0.6-0.3,0.7-0.8
			c0.1-1.1,0.2-2.2,0.3-3.3c0-0.2,0.2-0.4,0.3-0.5c0.6-0.3,0.7-0.5,0.6-1.2c-0.7,0.2-1.4,0.4-2.1,0.6c-0.8,0.3-0.9,0.4-0.7,1.3
			c0.2-0.1,0.5-0.1,0.8-0.2C42.4,30.7,42.3,32,42.2,33.5z M39.9,29.1c-1,0.1-1.2,0.2-1.3,1.1c0,0.3-0.1,0.6-0.1,0.9
			c-0.1,0.9-0.2,1.9-0.2,2.8c0,0.5,0.2,0.7,0.7,0.6c0.5-0.1,0.9-0.3,1.3-0.4c0.5-0.2,0.8-0.6,0.9-1.2c0-0.4,0.1-0.8,0.1-1.3
			c0.1-1,0.2-2,0.3-3.1c-0.3,0.1-0.5,0.2-0.7,0.2c-0.4,0.1-0.5,0.3-0.6,0.7c-0.1,1.1-0.2,2.3-0.3,3.4c0,0.4-0.2,0.5-0.5,0.5
			C39.7,31.8,39.8,30.5,39.9,29.1z M38.4,30.7L38.4,30.7c0-0.1,0-0.2,0-0.3c0-0.6-0.2-0.8-0.8-0.7c-0.5,0.1-1,0.2-1.4,0.5
			c-0.3,0.2-0.6,0.5-0.7,0.9c-0.2,1.3-0.3,2.5-0.4,3.8c0,0.5,0.3,0.7,0.7,0.5c0.5-0.1,0.9-0.3,1.3-0.4c0.5-0.2,0.8-0.6,0.9-1.2
			C38.2,32.8,38.3,31.7,38.4,30.7z M33.6,31.6c1.5-0.2,1.8-0.5,1.7-1.9c0-0.5-0.3-0.7-0.7-0.6c-0.8,0.2-1.6,0.5-2.4,0.8
			c-0.3,0.1-0.5,0.5-0.5,0.8c-0.2,0.7-0.2,1.4-0.3,2.2c0,0.4,0.2,0.6,0.5,0.7c0.3,0.1,0.6,0.1,0.9,0.1c0.5,0.1,0.6,0.1,0.5,0.6
			c0,0.1,0,0.2,0,0.3c0,0.4-0.3,0.5-0.6,0.5c0-0.3,0-0.6,0.1-1c-0.5,0.2-1,0.3-1.4,0.5c-0.1,0-0.2,0.2-0.2,0.3
			c0,0.5-0.1,0.9-0.1,1.4c0,0.4,0.3,0.6,0.6,0.5c0.9-0.1,1.8-0.3,2.6-0.9c0.3-0.2,0.5-0.5,0.5-0.8c0.2-0.7,0.2-1.5,0.3-2.2
			c0-0.4-0.2-0.7-0.6-0.7c-0.3,0-0.6,0-0.9-0.1c-0.4,0-0.6-0.1-0.5-0.5c0.1-0.6,0.1-0.7,0.6-0.7C33.6,31,33.6,31.2,33.6,31.6z
			 M29.6,34.3c-0.4,0.1-0.7,0.1-0.9,0.3c-0.2,0.1-0.2,0.5-0.3,0.7c-0.2-0.3-0.4-0.5-0.5-0.8c-0.3-0.5-0.2-0.5,0.3-0.7
			c0,0.2,0.1,0.5,0.1,0.7c0.5-0.3,0.6-1.3,0.2-1.7c-0.1-0.1-0.2-0.1-0.3-0.1c-1.2,0.1-2,1.1-1.6,2.1c0.1,0.3,0,0.5-0.1,0.7
			c-0.2,0.4-0.5,0.7-0.5,1.1c-0.3,1.1,0.5,1.8,1.5,1.5c0.6-0.2,1.2-0.4,1.8-0.6c0.1,0,0.2-0.1,0.4-0.1c-0.1-0.1-0.1-0.2-0.2-0.3
			c-0.3-0.4-0.4-0.7-0.2-1.2C29.5,35.4,29.5,34.9,29.6,34.3z M22.9,34.3c-0.2,0.1-0.4,0.2-0.5,0.2c-0.5,0.1-0.6,0.4-0.7,0.8
			c-0.1,1.4-0.3,2.9-0.4,4.3c0,0.1,0,0.3,0,0.4c0.2-0.1,0.4-0.2,0.6-0.2c0.4-0.1,0.6-0.3,0.6-0.7c0-0.5,0.1-0.9,0.1-1.3
			c0,0,0.1,0,0.1,0c0.1,0.5,0.2,1.1,0.3,1.7c0.3-0.1,0.5-0.2,0.7-0.2c0.4-0.1,0.5-0.3,0.5-0.6c0.1-1.2,0.2-2.5,0.4-3.7
			c0-0.4,0.1-0.7,0.1-1.1c-0.2,0.1-0.4,0.1-0.5,0.1c-0.4,0.1-0.6,0.3-0.6,0.7c0,0.5-0.1,1-0.2,1.6c0,0,0,0-0.1,0
			C23.2,35.6,23,35,22.9,34.3z M21.4,35.9c0-0.9-0.2-1-1-0.8c-0.4,0.1-0.8,0.3-1.1,0.4c-0.5,0.2-0.7,0.5-0.8,1.1
			c-0.1,0.5-0.1,1-0.2,1.5c-0.1,0.6-0.1,1.3-0.2,2c0,0.6,0.2,0.8,0.8,0.7c0.4-0.1,0.7-0.2,1.1-0.3c0.6-0.2,1-0.6,1.1-1.3
			C21.2,38,21.3,36.9,21.4,35.9z M15.8,41.6c0.3-0.1,0.5-0.1,0.6-0.2c0.4-0.1,0.6-0.3,0.6-0.7c0.1-1.1,0.2-2.3,0.3-3.4
			c0-0.2,0.2-0.4,0.3-0.5c0.6-0.3,0.7-0.5,0.6-1.2c-0.7,0.2-1.5,0.5-2.2,0.7c-0.7,0.2-0.8,0.4-0.7,1.2c0.2-0.1,0.5-0.1,0.7-0.2
			C16,38.8,15.9,40.2,15.8,41.6z M7.8,47.6c0-0.3,0-0.5,0-0.7c0-4.3,0-8.7,0-12.9c0-0.5,0.2-0.7,0.6-0.9c5.9-1.7,11.8-3.4,17.7-5.1
			c7.1-2,14.3-4.1,21.4-6.1c3.3-0.9,6.7-1.9,10-2.8c0.2,0,0.3-0.1,0.5-0.1c0,0.2,0,0.4,0,0.6c0,4.2,0,8.5,0,12.7
			c0,0.9,0,0.9-0.9,1.2c-5.6,1.6-11.3,3.3-16.9,4.9c-5.7,1.6-11.5,3.3-17.2,4.9c-4.6,1.3-9.2,2.6-13.9,4C8.8,47.3,8.3,47.4,7.8,47.6
			z M8.5,43.9c0.4-0.1,0.8-0.3,1.1-0.3c0.4-0.1,0.5-0.3,0.6-0.6c0.1-0.8,0.2-0.8,1.1-0.9c0,0.3,0,0.7,0.1,1c0.4-0.1,0.7-0.3,1.1-0.3
			c0.4-0.1,0.5-0.2,0.5-0.6c-0.1-1.5-0.1-3-0.2-4.6c0-0.5-0.1-1.1-0.1-1.7c-0.7,0.2-1.3,0.5-1.9,0.6c-0.4,0.1-0.5,0.3-0.6,0.7
			c-0.3,1.5-0.6,2.9-1,4.4C8.9,42.3,8.7,43,8.5,43.9z M14.8,36.8c-0.3,0.1-0.5,0.2-0.7,0.2c-0.4,0.1-0.5,0.3-0.6,0.7
			c-0.1,0.9-0.2,1.8-0.3,2.7c-0.1,0.7-0.1,1.3-0.2,2c0.1,0,0.1,0,0.2,0c0.5-0.2,1-0.3,1.5-0.5c0.7-0.2,0.8-0.4,0.7-1.2
			c-0.3,0.1-0.6,0.2-1.1,0.3C14.6,39.6,14.7,38.2,14.8,36.8z"/>
	</g>
	<g>
		<path class="st22" d="M7.9,49.2c-0.3-0.7-0.2-1,0.5-1.2c3.9-1.1,7.8-2.3,11.7-3.4c1.2-0.4,2.5-0.7,3.7-1.1
			c0.4-0.1,0.8-0.1,1.1,0.2c4.5,3.9,12.6,4.1,17.7-0.8c1.5-1.4,2.6-3.2,3.3-5.1c0.2-0.5,0.4-0.8,0.9-0.9c3.6-1,7.2-2.1,10.8-3.1
			c0.1,0,0.3-0.1,0.5-0.1c0,0.4,0,0.7,0,1c0,0.1-0.2,0.3-0.4,0.3c-3,0.9-6,1.8-8.9,2.7c-0.5,0.2-1.1,0.3-1.7,0.5
			c0.3,0.5,0.5,0.9,0.8,1.5c-0.6,0.2-1.2,0.3-1.8,0.5c0.2,0.6,0.4,1.2,0.6,1.8c-0.6,0.1-1.2,0.1-1.8,0.2c0.1,0.6,0.2,1.2,0.3,1.8
			c-0.6,0-1.2-0.1-1.8-0.1c0,0.5,0,1.1,0,1.7c-0.6-0.2-1.2-0.3-1.8-0.5c-0.1,0.6-0.2,1.2-0.3,1.8c-0.4-0.2-0.7-0.3-1.1-0.5
			c-0.5-0.2-0.6-0.2-0.8,0.4c-0.1,0.3-0.2,0.6-0.3,0.9c0,0.1-0.1,0.2-0.1,0.3c-0.5-0.3-1-0.6-1.6-0.9c-0.3,0.6-0.5,1.1-0.8,1.7
			c-0.5-0.4-0.9-0.8-1.4-1.2c-0.4,0.5-0.7,1-1.1,1.5c-0.4-0.5-0.8-0.9-1.2-1.4c-0.4,0.5-0.8,0.9-1.3,1.4c-0.4-0.6-0.6-1.1-1-1.7
			c-0.5,0.4-1,0.7-1.5,1.1c-0.3-0.6-0.5-1.1-0.8-1.7c-0.5,0.3-1.1,0.6-1.6,0.9c-0.2-0.6-0.3-1.2-0.5-1.8c-0.6,0.2-1.1,0.4-1.7,0.6
			c-0.1-0.6-0.2-1.3-0.2-2C18.7,46.1,13.3,47.7,7.9,49.2z"/>
	</g>
	<g>
		<path class="st22" d="M32.3,16.6c0.4,0.5,0.8,0.9,1.2,1.5c0.4-0.5,0.8-0.9,1.3-1.4c0.4,0.5,0.7,1.1,1,1.6c0.5-0.4,0.9-0.7,1.5-1.1
			c0.3,0.6,0.5,1.1,0.7,1.7c0.5-0.3,1.1-0.6,1.6-0.9c0.2,0.6,0.3,1.2,0.5,1.8c0.6-0.2,1.2-0.4,1.8-0.6c0.1,0.7,0.1,1.3,0.2,1.9
			c1.5,0,2.8-0.3,4.2-0.6c3.8-1.1,7.6-2.2,11.4-3.3c0.1,0,0.2,0,0.4-0.1c0,0.4,0,0.7,0,1c0,0.1-0.2,0.3-0.4,0.3
			c-1.5,0.5-3,0.9-4.5,1.3c-3.3,0.9-6.6,1.9-9.8,2.8c-0.5,0.1-1,0.1-1.5-0.3c-2.5-2.1-5.4-3-8.5-3.1c-5-0.1-8.8,2.2-11.5,6.3
			c-0.5,0.8-0.9,1.7-1.2,2.6c-0.3,0.6-0.6,1-1.3,1.2c-2.3,0.6-4.6,1.3-6.9,1.9c-1.5,0.4-3,0.9-4.5,1.3c0,0-0.1,0-0.2,0
			c0-0.2,0-0.4,0-0.6c0-0.3,0.1-0.4,0.4-0.5c2.4-0.7,4.7-1.4,7.1-2c1.4-0.4,2.7-0.8,4.1-1.2c-0.3-0.6-0.6-1.2-0.9-1.8
			c0.5-0.1,0.9-0.2,1.4-0.3c0.3-0.1,0.4-0.2,0.3-0.5c-0.1-0.3-0.2-0.6-0.3-0.9c-0.2-0.5-0.1-0.5,0.3-0.5c0.4,0,0.9,0,1.4,0
			c-0.1-0.7-0.2-1.4-0.3-2.2c0.6,0,1.2,0.1,1.8,0.1c0-0.6,0-1.2,0-1.9c0.6,0.2,1.2,0.3,1.9,0.4c0.1-0.6,0.2-1.2,0.3-1.9
			c0.6,0.2,1.1,0.5,1.7,0.7c0.2-0.6,0.4-1.2,0.5-1.8c0.5,0.3,1,0.6,1.6,1c0.3-0.6,0.5-1.1,0.8-1.7c0.5,0.4,0.9,0.8,1.4,1.2
			C31.5,17.6,31.9,17.1,32.3,16.6z"/>
	</g>
	<g>
		<path class="st22" d="M11.3,37.9c0,0.8,0,1.5,0,2.3c0,0.5-0.4,0.4-0.7,0.5c0.2-1,0.4-1.9,0.6-2.8C11.2,37.9,11.3,37.9,11.3,37.9z"
			/>
	</g>
	<g>
		<path class="st22" d="M52.4,26.2c0.1,1,0,1.3-0.5,1.4C51.8,26.6,51.9,26.3,52.4,26.2z"/>
	</g>
	<g>
		<path class="st22" d="M20.1,36.2c-0.1,0.6-0.1,1.3-0.2,2c0,0.3-0.1,0.6-0.1,0.9c0,0.3-0.2,0.5-0.5,0.5c0-0.2,0-0.5,0-0.7
			c0.1-0.7,0.2-1.5,0.2-2.2C19.6,36.3,19.7,36.1,20.1,36.2z"/>
	</g>
	<g>
		<path class="st22" d="M37.2,30.9c-0.1,1-0.2,2-0.3,3c0,0.1-0.3,0.3-0.4,0.4c0,0-0.1-0.1-0.1-0.1c0.1-0.7,0.1-1.4,0.2-2.1
			c0-0.3,0.1-0.5,0.1-0.8C36.6,31.1,36.7,30.9,37.2,30.9z"/>
	</g>
	<g>
		<path class="st22" d="M27.3,36c0.2,0.3,0.4,0.6,0.5,0.9c0,0,0,0.1-0.1,0.1c-0.2,0-0.5,0-0.5-0.1c-0.1-0.3-0.1-0.5-0.2-0.8
			C27.1,36.1,27.2,36,27.3,36z"/>
	</g>
</g>
</svg>
