<?xml version="1.0" encoding="utf-8"?>
<!-- Generator: Adobe Illustrator 21.1.0, SVG Export Plug-In . SVG Version: 6.00 Build 0)  -->
<svg version="1.1" id="Layer_1" xmlns="http://www.w3.org/2000/svg" xmlns:xlink="http://www.w3.org/1999/xlink" x="0px" y="0px"
	 viewBox="0 0 170.1 170.1" style="enable-background:new 0 0 170.1 170.1;" xml:space="preserve">
<style type="text/css">
	.st0{fill:#FFFFFF;}
	.st1{fill:#181716;}
	.st2{fill:none;stroke:#181716;stroke-width:2;stroke-miterlimit:10;}
</style>
<g>
	<g>
		<path class="st0" d="M160.9,85.7c-0.1,12.6-3.2,24.4-9,35.4c-5.2,9.8-12.2,18.2-21.2,25c-7.8,5.9-16.2,10.3-25.6,12.9
			c-6.7,1.8-13.6,2.9-20.6,2.8c-10.6-0.2-20.7-2.3-30.4-6.7c-11.8-5.3-21.5-13.2-29.3-23.5c-6.6-8.6-11.1-18.3-13.6-28.7
			C7.4,87.3,8.4,72,14.3,57.1c2.5-6.2,5.3-12.2,9.2-17.6c8.6-11.7,19.5-20.5,33-25.7c14.6-5.6,29.6-6.8,44.8-3.2
			c12.7,3,24.1,8.8,33.9,17.7c7,6.5,12.8,13.9,17.1,22.4c3.6,7.2,6.2,14.8,7.3,22.8C160.2,77.6,160.5,81.6,160.9,85.7z M82.1,66.5
			c-0.4,0.3-0.8,0.6-1.2,0.8c-1.8,0.8-2.8,2.2-3.3,4.1c-0.6,2.1,0.4,4.2,2.2,4.7c1.9,0.5,3.9-0.7,4.7-2.7c0.8-2.2,0.6-4.2-0.5-6.2
			c-1.4-2.6-3.5-4.3-6.1-5.6c-6.2-3.1-7.5-10.3-2.6-15c1.7-1.7,4-2.8,6.5-2c2.5,0.8,3.8,2.9,4.1,5.5c0.2,1.7-0.8,2.8-2.2,3.6
			c-1.5,0.8-2.9,0.2-4-0.8c-1-0.9-1.4-2.1-1-3.5c1.8,0.1,2.8-0.2,2.8-1.2c0-0.9-0.3-2.1-1-2.8c-0.9-1-2.1-0.3-3,0.5
			c-0.3,0.3-0.6,0.6-0.8,1c-1.7,3-0.5,6.4,3,8.3c1.3,0.7,2.7,1.2,3.7,2.1c5.8,4.9,5.3,11.7,1.1,17.3c-1.6,2.1-4.1,2.6-6.4,3
			c-0.2,1.1-0.5,2-0.6,3c-0.1,1.6,0.1,3.2,0.1,4.8c-0.1,11.1-0.2,22.1-0.3,33.2c0,4.5,0,9,0,13.4c0,1.4,0.2,2.7,2.2,2.2
			c-7.1,2.6-14.2,5.1-21.3,7.7c-0.1-0.1-0.1-0.3-0.2-0.4c0.5-0.2,0.9-0.5,1.4-0.7c1.8-0.5,2.4-1.8,2.5-3.4
			c0.4-5.7-1.3-11.1-2.8-16.7c-1.2,0.5-2.3,0.7-3.3,1.2c-2,1-3.4,3.6-2.7,5.4c0.3,0.7,1.2,1.6,1.9,1.7c0.6,0.1,1.7-0.9,1.8-1.5
			c0.1-0.9-0.5-1.9-0.8-2.7c1.1,0.4,1.9,1.4,2,3c0.1,2-0.6,2.8-3.3,3.8c1.9,4,1.4,6.7-1.3,7.3c1.8-1.7,2.1-3,1.2-4.6
			c-0.4-0.8-1-1.5-1.7-2c-1.3-1.2-2.1-2.7-1.9-4.4c0.1-1.6,0.8-3.1,1.3-4.9c-1,0.8-2.7,1.5-2.8,2.4c-0.5,3.9-0.8,7.9-0.7,11.9
			c0,2.6-0.4,5.5,2.4,7.4c-3,1.1-5.8,2-8.7,3.1c0.3,0.3,0.3,0.5,0.5,0.6c7.5,4.9,15.5,8.6,24.1,10.6c10.5,2.5,21.1,2.8,31.8,0.7
			c8.2-1.6,16-4.3,23.2-8.7c7.6-4.7,14.4-10.2,20.1-17.1c5.5-6.8,10-14.2,12.9-22.5c4-11.4,5.3-23.1,3.8-35.1
			c-1.1-8.3-3.3-16.2-6.9-23.6c-5.7-11.8-13.9-21.6-24.7-29.2C112.9,13,96.7,8.7,79.1,9.8c-10.1,0.7-19.9,3.2-28.9,7.9
			C36.3,25,25.5,35.5,18.4,49.6c-6.1,12.1-9.1,25-8.5,38.6c0.5,12,3.7,23.2,9.5,33.7c5.3,9.7,12.5,17.9,21.4,24.5
			c1,0.7,1.7,1,2.4-0.3c0.5-1,1.3-2,1.6-3.1c1.1-3.6,2.1-7.2,3-10.9c0.6-2.3,0.8-4.6,1.2-7.3c-2.4,1.4-4.4,2.6-6.4,3.7
			c-6.7,3.7-14.9,0.5-17.2-6.8c-1.3-4-0.8-7.8,2.3-10.9c2.5-2.6,5.5-3.8,9.1-2.8c3,0.8,5.8,4,5.9,7c0.1,4.7-1.8,7.7-5.4,8.9
			c-2.3,0.7-4.9-0.3-6-2.4c-1.2-2.2-0.7-5.5,0.9-6.9c1.2-1,2.5-1.1,3.9-0.5c1.3,0.6,1.8,1.8,1.5,3.2c-0.1,0.6-0.8,1.2-1.4,1.6
			c-0.4,0.2-1,0-1.5,0c0-0.1,0-0.3,0.1-0.4c2.2-0.3,3-1.6,1.9-3c-0.8-1.1-2.8-1.2-3.9-0.3c-1.5,1.2-1.9,4.2-0.8,6.2
			c1.1,1.9,3.4,2.7,5.5,2c4.6-1.6,5.3-6.4,4.3-9.6c-1.2-3.9-5.3-6.1-9.1-5.1c-3.5,1-6,3.3-6.9,6.8c-1,4.2-0.1,8.1,3.1,11.1
			c3.6,3.4,10,3.7,14.9,0.8c1.3-0.8,2.4-1.8,3.8-2.4c1.2-0.6,1.7-1.4,1.9-2.6c1.3-8.7,2.6-17.4,3.9-26.1c0.2-1.3-0.4-2.1-1.7-2.3
			c-0.3-0.1-0.7-0.2-0.9-0.2c6.1-2.5,5.3-8.2,6.4-13.4c0.2,0.6,0.3,0.9,0.3,1.1c0.5,3.7,0.7,7.5,1.5,11.1c2.9,13.1,6,26.1,9.1,39.1
			c0.4,1.9,1.2,3.7,1.8,5.5c0.2,0,0.4,0,0.6,0c0.3-0.7,0.8-1.4,1-2.1c0.2-1.1,0.2-2.2,0.2-3.3c0.1-7.1,0.1-14.3,0.2-21.4
			c0-3.5,0-7.1-0.2-10.6c-0.1-2.7-1.1-3.6-3.7-4.3c-0.6-0.2-1.3-0.4-2.4-0.7c0.7-0.1,0.8-0.2,1-0.2c4.1,0.9,6.3-0.8,8.1-4.8
			c1.7-3.8,2.4-7.8,2.6-12.1c-3.7-0.2-6.6,1.6-9.3,3.8c5.5-5.9,5.5-12.8,4-20C76.1,67.7,77.5,68.5,82.1,66.5z M54.2,97.7
			c-0.1,0-0.2,0-0.4,0c-1.3,8.6-2.6,17.1-3.9,25.7c3.1-1.1,6.1-2.2,9.4-3.3C57.6,112.7,55.9,105.2,54.2,97.7z"/>
	</g>
	<g>
		<path class="st1" d="M82.4,66.4c-4.5,1.9-6,1.2-10-5.1c1.5,7.2,1.5,14.1-4,20c2.8-2.2,5.7-3.9,9.3-3.8c-0.3,4.3-0.9,8.3-2.6,12.1
			c-1.8,4-4,5.7-8.1,4.8c-0.1,0-0.3,0.1-1,0.2c1.1,0.3,1.7,0.6,2.4,0.7c2.7,0.7,3.6,1.6,3.7,4.3c0.2,3.5,0.2,7.1,0.2,10.6
			c0,7.1-0.1,14.3-0.2,21.4c0,1.1,0,2.2-0.2,3.3c-0.1,0.7-0.6,1.4-1,2.1c-0.2,0-0.4,0-0.6,0c-0.6-1.8-1.4-3.7-1.8-5.5
			c-3.1-13-6.2-26-9.1-39.1c-0.8-3.6-1-7.4-1.5-11.1c0-0.3-0.1-0.5-0.3-1.1c-1.1,5.2-0.4,10.9-6.4,13.4c0.2,0.1,0.6,0.2,0.9,0.2
			c1.3,0.2,1.9,1,1.7,2.3c-1.3,8.7-2.6,17.4-3.9,26.1c-0.2,1.3-0.7,2.1-1.9,2.6c-1.3,0.6-2.5,1.6-3.8,2.4
			c-4.9,2.9-11.3,2.6-14.9-0.8c-3.2-3-4.1-7-3.1-11.1c0.9-3.5,3.4-5.8,6.9-6.8c3.8-1.1,7.8,1.2,9.1,5.1c1,3.1,0.3,8-4.3,9.6
			c-2.1,0.7-4.4-0.1-5.5-2c-1.1-2-0.7-4.9,0.8-6.2c1.1-0.9,3.1-0.8,3.9,0.3c1.1,1.5,0.3,2.7-1.9,3c0,0.1,0,0.3-0.1,0.4
			c0.5,0,1.2,0.3,1.5,0c0.6-0.4,1.3-0.9,1.4-1.6c0.3-1.3-0.2-2.5-1.5-3.2c-1.4-0.7-2.7-0.5-3.9,0.5c-1.7,1.4-2.1,4.7-0.9,6.9
			c1.1,2.1,3.7,3.1,6,2.4c3.7-1.1,5.6-4.2,5.4-8.9c-0.1-3-2.8-6.2-5.9-7c-3.7-1-6.6,0.2-9.1,2.8c-3.1,3.1-3.6,6.9-2.3,10.9
			c2.3,7.2,10.5,10.4,17.2,6.8c2-1.1,4-2.3,6.4-3.7c-0.4,2.7-0.7,5.1-1.2,7.3c-0.9,3.6-1.9,7.3-3,10.9c-0.3,1.1-1.1,2-1.6,3.1
			c-0.6,1.3-1.4,1-2.4,0.3c-8.9-6.6-16.1-14.8-21.4-24.5c-5.8-10.5-9-21.7-9.5-33.7c-0.5-13.6,2.4-26.5,8.5-38.6
			c7.1-14.1,17.8-24.6,31.8-31.9c9.1-4.7,18.8-7.2,28.9-7.9C97,8.5,113.2,12.9,127.7,23c10.8,7.6,19,17.4,24.7,29.2
			c3.6,7.4,5.8,15.4,6.9,23.6c1.5,12,0.2,23.7-3.8,35.1c-2.9,8.3-7.4,15.6-12.9,22.5c-5.7,7-12.5,12.5-20.1,17.1
			c-7.1,4.4-15,7.1-23.2,8.7c-10.6,2.1-21.2,1.8-31.8-0.7c-8.7-2-16.7-5.8-24.1-10.6c-0.1-0.1-0.2-0.2-0.5-0.6c2.9-1,5.7-2,8.7-3.1
			c-2.8-1.9-2.4-4.8-2.4-7.4c0-4,0.2-8,0.7-11.9c0.1-0.9,1.8-1.6,2.8-2.4c-0.5,1.8-1.1,3.3-1.3,4.9c-0.2,1.7,0.6,3.2,1.9,4.4
			c0.7,0.6,1.2,1.3,1.7,2c0.9,1.6,0.6,2.9-1.2,4.6c2.7-0.5,3.2-3.3,1.3-7.3c2.7-1,3.4-1.7,3.3-3.8c-0.1-1.6-0.8-2.6-2-3
			c0.3,0.8,0.9,1.8,0.8,2.7c-0.1,0.6-1.2,1.6-1.8,1.5c-0.7-0.1-1.6-0.9-1.9-1.7c-0.6-1.8,0.8-4.4,2.7-5.4c1-0.5,2-0.8,3.3-1.2
			c1.5,5.6,3.2,11,2.8,16.7c-0.1,1.6-0.8,3-2.5,3.4c-0.5,0.1-0.9,0.4-1.4,0.7c0.1,0.1,0.1,0.3,0.2,0.4c7.1-2.6,14.2-5.1,21.3-7.7
			c-2,0.5-2.2-0.8-2.2-2.2c0-4.5,0-9,0-13.4c0.1-11.1,0.2-22.1,0.3-33.2c0-1.6-0.1-3.2-0.1-4.8c0-1,0.3-1.9,0.6-3
			c2.3-0.4,4.8-0.9,6.4-3c4.2-5.6,4.7-12.5-1.1-17.3c-1.1-0.9-2.5-1.4-3.7-2.1c-3.5-1.9-4.7-5.3-3-8.3c0.2-0.4,0.5-0.8,0.8-1
			c0.9-0.7,2-1.4,3-0.5c0.6,0.6,1,1.8,1,2.8c0,0.9-1,1.3-2.8,1.2c-0.4,1.4,0,2.6,1,3.5c1.1,1,2.5,1.6,4,0.8c1.4-0.8,2.4-1.9,2.2-3.6
			c-0.3-2.6-1.6-4.7-4.1-5.5c-2.5-0.8-4.7,0.3-6.5,2c-5,4.8-3.7,12,2.6,15c2.6,1.3,4.7,3,6.1,5.6c1.1,2.1,1.3,4.1,0.5,6.2
			c-0.7,2-2.8,3.3-4.7,2.7c-1.8-0.5-2.8-2.6-2.2-4.7c0.5-1.9,1.5-3.3,3.3-4.1C81.6,67,81.9,66.7,82.4,66.4z M26.9,67.1
			c0,1.9,0,3.5,0,5.2c0,0.4-0.3,1-0.6,1.2c-5.4,3.4-9.1,8.1-10.5,14.5c-1.4,5.8,0.1,10.4,4.5,13.3c4.3,2.9,8.9,2.7,13.5,1
			C44.1,98.4,51,91.3,54.3,80.7c2.5-7.9-0.3-16-6-20.3c-1-0.7-2.1-1.3-3.2-2c3.7-3.5,6.3-7.4,7.2-12.4c1.3-6.7-3.3-12-9.7-11.8
			c-3.1,0.1-5.7,1.3-8.1,3c-1.8,1.3-3.4,2.9-5.3,4.3c-1.5,1.1-3.2,2-4.8,3c1.7,0.1,2.6,0.9,2.7,2.9c0.1,3.3,0,6.5,0,9.8
			c0,1.1-0.4,1.7-1.4,2.3c-1.6,1-3.2,2.2-4.6,3.5c-0.6,0.6-0.9,2-0.7,2.8c0.2,0.6,1.4,1.1,2.2,1.3C24.1,67.2,25.4,67.1,26.9,67.1z
			 M78.2,150.6c-0.1,0.2-0.2,0.4-0.3,0.5c-2.2-1-4.5-2-6.7-3.1c-1.3-0.7-1.8-1.8-1.4-3.4c0.1-0.6,0-1.3-0.4-1.8
			c-0.8-1-1.8-1.6-3.2-1c-1.9,0.9-2.9,2.3-2.6,4.1c0.2,1.7,1.1,3,2.6,3.8c3.6,1.9,7.5,2.6,11.5,2.7c0.9,0,1.8,0.2,2.7,0.4
			c2.7,0.8,5.4,2.1,8.2,2.4c5.8,0.7,11.5-0.5,17-2.1c7.4-2.1,14-5.6,19.7-10.8c3.2-2.9,5-6.4,4.9-10.8c0-0.8,0.3-1.7,0.8-2.3
			c2.2-3,4.8-5.7,6.7-8.8c5.6-9.1,8.7-19.2,11.4-29.4c1.6-6.4,3.4-12.6,7.6-18c-4.3,1.6-8.5,3.1-13.1,4.8c3.2,0.9,3.7,1.2,4.3,3
			c0.5,1.6,0.8,3.3,1,5c0.4,4.5-1.6,8.6-2.6,12.9c-0.3,1.1-0.7,2.3-1.1,3.4c-0.2,0-0.3,0-0.5,0c-1.6-6.1-3.1-12.2-4.8-18.2
			c-0.6-2.2-0.5-4.2,1.9-5.4c-3.8,1.4-7.7,2.7-11.5,4.1c3-0.1,4.1,2,4.8,4.4c2.3,7.7,4.5,15.5,6.7,23.3c0.2,0.7,0,1.6-0.3,2.2
			c-1.3,2.7-2.7,5.3-4.2,7.9c-2,3.4-4.3,6.5-7.4,9.2c-1.8-3.2-4.5-4.6-8-4.4c-6.7,0.3-12.9,2.3-18.7,5.6c-0.6,0.3-1.3,0.8-1.9,0.9
			c-6.6,0.5-12.4,3-17.7,6.8C79.1,141.5,77.2,146.2,78.2,150.6z M139.1,60.1c0.8-0.7,1.5-1.5,2.4-1.7c0.4-0.1,1.5,0.9,1.6,1.5
			c0.2,0.9,0,2.2-0.6,2.7c-0.8,0.7-2.2,1.1-3.2,1.1c-1.6-0.1-2.4-1.4-2.8-2.9c-0.5-2.1,0.5-4.6,2.4-5.9c2-1.3,4.6-1.4,6.5,0
			c2.6,1.8,3.3,4.5,2.9,7.5c-0.4,3.7-3.5,6.5-7.7,7.1c-3.3,0.5-6.2-1.6-7.2-4.8c-0.9-2.7-1.2-5.6-1.2-8.5c0.1-5.4,0.7-10.7,0.9-16
			c0.1-3.4-0.6-6.7-2.2-9.7c-1.7-3.2-5.1-3.4-7.2-0.5c-0.3,0.4-0.6,0.9-0.9,1.3c-0.1,0-0.2-0.1-0.3-0.1c0.1-1.8,0.3-3.7,0.4-5.5
			c-1.5,4.2-4.9,5.7-9.1,6.1c0.1,0.2,0.1,0.3,0.2,0.5c1,0,2,0,3.3,0c0,2.4,0.1,4.6,0,6.8c-0.1,3.4-0.2,6.9-0.5,10.3
			c-0.3,4.3-0.7,8.6-1.1,12.9c-0.1,1.3-0.8,2.2-2.2,2.6c-0.5,0.1-0.9,0.4-1.3,0.6c0.1,0.2,0.1,0.3,0.2,0.5c4.4-1.5,8.9-3,13.3-4.5
			c-0.5-0.2-0.9-0.2-1.3-0.1c-2.2,0.5-2.9-0.1-3-2.2c0-0.4,0-0.9,0-1.3c0.3-7.6,0.6-15.3,1.1-22.9c0.1-1.6,1.1-3.3,2-4.8
			c0.6-1.1,1.8-0.9,2.2,0.3c0.4,1.2,0.8,2.6,0.8,3.8c-0.1,6.4-0.5,12.8-0.5,19.2c-0.1,4.5,1,8.8,4.1,12.3c1.9,2.2,4.2,4.3,7.2,4.7
			c4.4,0.6,9.6-1.8,10.8-7.7c0.7-3.7-0.9-7.2-4.1-8.8c-2.2-1.1-5-1-7,0.9c-2,1.9-2.6,4.8-1.6,7.1c1,2.3,3.4,3.3,5.6,2.3
			c2-0.9,2.6-2.9,1.6-5.2c-0.5-1.2-1.6-1.5-2.6-1.1C139.8,58.1,138.9,59,139.1,60.1z M87.6,128.7c2.6,2,4.4,2.2,6.1,0.2
			c0.6-0.7,1.1-1.6,1.6-2.5c2.4-4.8,3.1-10,3.2-15.2c0.1-4.6-0.9-8.8-3.9-12.5c-2.1-2.6-4.8-2.5-6.4,0.3c-0.1,0.3-0.3,0.5-0.6,0.9
			c0-8.2,0-16.2,0-24.2c-0.4,0.4-0.4,0.9-0.5,1.3c-0.4,2.6-0.6,5.1-1.2,7.7c-0.9,3.8-2.9,6.6-7,7.7c3.4,0.7,3.7,1,3.8,4.4
			c0,0.2,0,0.4,0,0.7c-0.1,10.7-0.3,21.4-0.4,32.1c0,1.5,0.2,3.1-1.1,4.3c2.6-0.9,5.2-1.8,7.4-2.6C88.1,130.2,87.9,129.5,87.6,128.7
			z M127.3,117.9c0-0.1,0-0.1,0-0.2c-0.3,0-0.6,0-0.9,0c-2.9,0.3-3.3,0-3.3-3.1c0.1-7.7,0.1-15.5,0.2-23.2c0-2,0.4-3.9,1.9-5.3
			c0.5-0.5,1.2-0.7,1.8-1c0.2,0.6,0.6,1.3,0.6,1.9c0.1,6.8,0,13.6,0.1,20.4c0,1.8,0.2,3.8,0.7,5.5c0.7,2.4,3.6,3.5,5.8,2.6
			c2.2-0.9,4.1-4.3,3.3-6.1c-0.2,0.7-0.4,1.5-0.8,2.1c-0.3,0.5-0.9,1.1-1.3,1c-0.5-0.1-1.2-0.6-1.4-1.1c-0.3-1.1-0.5-2.3-0.5-3.4
			c0-4.2,0-8.4,0-12.6c0-3.1-0.6-6.1-2.3-8.7c-1.7-2.6-5.1-4-7.3,0c-0.1,0.2-0.3,0.5-0.4,0.7c-0.1,0-0.2-0.1-0.3-0.1
			c0.1-0.7,0.3-1.4,0.4-2.2c-3.2,1.1-6.4,2.2-9.6,3.3c2.7-0.1,3.8,0.8,3.9,3.8c0.1,9.7,0.7,19.4-0.8,29.1
			C120.6,120.1,123.9,119,127.3,117.9z M96.8,14.5c-0.1,0-0.2,0-0.3,0c-0.1,0.1-0.2,0.3-0.2,0.4c-0.1,0.4-0.1,0.9-0.1,1.3
			c-0.3,4.3-1.3,8.5-3.2,12.5c-1.9,4.1-4.6,7.5-9.3,8.7c-1.6,0.4-3.1,1-4.7,1.6c-3.9,1.4-7.8,2.8-12.1,2.7c-3.1-0.1-5.9-1-7.9-3.5
			c-4.3-5.4-1.8-13.1,4.8-15.1c3.9-1.2,7.8,0.5,9.2,3.9c1.6,4,0.3,8-3.5,9.9c-2,1-4.8,0.7-6.5-0.8c-1.5-1.3-2-3.9-1.2-6
			c0.7-2,3.2-3.3,5.1-2.6c1.2,0.4,1.9,1.3,2,2.6c0.1,1.3-0.4,2.4-1.6,2.8c-0.7,0.2-1.5-0.1-2.3-0.2c0.1-0.6,0.2-1.3,0.4-2.1
			c-0.3,0.1-1.1,0.2-1.1,0.4c-0.2,0.6-0.2,1.4,0.1,1.8c0.9,1.5,3.1,1.4,4.4,0c1.1-1.3,1.2-3.5,0.1-4.7c-1.6-1.7-4.2-1.9-6-0.4
			c-1.9,1.5-2.7,4.5-1.8,6.8c0.8,2.3,3.4,4,5.8,3.9c3.5-0.1,6.6-2.7,7.3-5.9c0.8-3.8-0.9-7.7-4.1-9.3c-4.2-2.1-9.1-0.7-12,3.7
			c-3.8,5.7-1.5,13.2,5.9,15.3c3.7,1.1,7.6,0.1,11.3-1c3.4-1,6.8-2.3,10.2-3.4c2.1-0.7,3.5,0,4.3,2.1c0.4,1.1,0.7,2.4,0.7,3.6
			c0.1,5.7,0,11.5,0.1,17.3c0,2.8,0.2,5.6,0.6,8.4c0.4,2.6,3.2,3.7,5.4,2.4c1-0.6,2-1.4,2.7-2.4c1.7-2.3,1.6-5.6-0.2-7.4
			c0.2,1.2,0.6,2.3,0.7,3.5c0.1,1.2-0.2,2.4-1.7,2.6c-1.2,0.2-2.3-0.8-2.6-2.3c-0.1-0.4-0.1-0.9-0.1-1.3c0-2.5-0.1-5.1,0-7.6
			c0.1-5.4,0-10.7,0.5-16.1c0.4-4.3,2.3-8.1,7.2-9.2c1.8-0.4,3.6-1.2,5.3-1.8c0.5-0.2,1-0.6,1.5-0.9c-2.4,0.3-4.6,0.8-6.7,1.5
			c-2.3,0.8-4.4,1.9-6.8,3C96.4,26.6,96.6,20.6,96.8,14.5z M116,121.6c-1.3,0.1-1.4-0.7-1.4-1.7c0-4,0.1-8.1,0.1-12.1
			c0-4.1-0.1-8.3-2-12.1c-1.3-2.5-3.1-4.4-6.1-4.4c-3.8-0.1-7.5,5.9-5.9,9.4c0.6,1.3,2.4,1.7,3.6,0.8c1.7-1.4,1.8-3.5,2.2-5.1
			c-0.7,0.2-1.8,0.7-2.1,0.4c-0.6-0.5-1.1-1.6-0.9-2.2c0.2-0.9,1-2.1,1.7-2.3c0.9-0.3,2.4,0,3.2,0.6c2.1,1.6,2.4,6.8,0.7,8.7
			c-0.7,0.8-1.5,1.6-2.4,2.2c-5.1,3.5-7.2,8.3-6.9,14.3c0.1,2.6,1,4.9,3,6.6c1.7,1.4,4.1,1,5.2-0.9c0.6-1,1.1-2.1,1.6-3.2
			c0.1,0,0.3,0.1,0.4,0.1c-0.4,1.2-0.9,2.5-1.3,3.7C111.1,123.4,113.5,122.5,116,121.6z M114.5,50.6c0.2-4.8-0.5-8.5-2.2-12
			c-0.9-1.9-2.1-4-4.5-4.1c-2.3-0.1-3.7,1.5-4.9,3.4c-2.5,4.2-3.6,8.7-4,13.5c-0.5,5.3,0.3,10.3,3.8,14.5c2.3,2.7,4.4,2.6,6.7-0.2
			C113.2,61,114.6,55.6,114.5,50.6z M71.1,65c0.1-4.2-1-8.3-3.1-12c-2.8-4.8-4.9-4-7.3-0.4c-4.1,6-5,12.7-4.3,19.7
			c0.3,3.1,1.3,6.2,3.2,8.8c1.8,2.4,4,3.3,6.2,0.5c0.3-0.3,0.6-0.6,0.8-1C69.3,75.7,71.3,70.7,71.1,65z M127.8,79.3
			c0-0.2-0.1-0.3-0.1-0.5c-0.4,0.1-0.9,0.2-1.3,0.3c-2.1,0.6-2.4,0.4-2.4-1.8c0-3.7,0-7.4,0.1-11.1c0-1,0.2-2,0.4-3.1
			c-0.9,2.2-1.9,4-4.9,3.3c0.1,0.2,0.1,0.3,0.2,0.5c0.6,0.1,1.2,0.2,1.9,0.4c0,1.1,0,2.2,0,3.3c-4.9,1-7.2,4.5-5.7,8.9
			c0.5,1.6,2.2,2.7,3.8,2.3c1.5-0.4,3-1,4.6-1.5C125.4,80,126.6,79.6,127.8,79.3z M107.5,85.8c-0.2-0.8-0.5-1.5-0.6-2.3
			c-0.1-1.5,0-3.1,0-4.6c-0.1-1.5,0.6-2.5,1.8-3.3c1.3-0.9,2.2-0.5,2.3,1.1c0.1,1.5,0,3,0,4.5c0,1.4,0.3,3-1.5,3.8
			c0.1,0.1,0.2,0.2,0.4,0.3c1.7-0.7,3.5-1.4,5.2-2c0-0.1,0-0.3,0.1-0.4c-1.9,0.5-2-0.6-2-1.8c0-1,0.2-2.2,0-3.1
			c-0.3-1.1-0.9-2.5-1.8-3.1c-0.6-0.4-2,0.2-3,0.5c-0.4,0.1-0.7,0.5-1.1,0.8c-0.1-0.5-0.2-0.9-0.3-1.1c-1.6,0.8-3.2,1.6-4.7,2.4
			c0.7,0,1.3,0,2.2,0c0,3.2,0,6.3,0,9.6C105.5,86.4,106.6,86.1,107.5,85.8z M102.7,87.5c-0.3-0.6-0.6-0.9-0.7-1.3
			c-0.1-1.3-0.2-2.6-0.2-4c0-1.6-0.2-3.1-1.8-3.8c-1.5-0.7-2.7,0.3-3.9,1.1c-0.3,0.2-0.6,0.4-0.8,0.6c-0.2,0.5-0.4,1-0.4,1.5
			c0,0.2,0.7,0.6,0.9,0.5c0.4-0.3,0.8-0.7,1.1-1.2c0.1-0.2-0.1-0.7,0.1-0.8c0.6-0.4,1.2-0.9,1.9-1c0.2,0,0.8,0.8,0.9,1.3
			c0.2,0.7,0,1.5,0,2.3c-0.1-0.1-0.2-0.2-0.3-0.3c-1.4,0.8-3,1.5-4.2,2.6c-1,0.8-1.4,2.2-0.5,3.5c0.8,1.2,2.1,1.1,3.3,0.7
			c0.6-0.2,1.2-0.8,1.5-1C100.9,88.5,101.8,87.7,102.7,87.5z"/>
	</g>
	<g>
		<path class="st1" d="M54.2,97.7c1.7,7.5,3.4,15,5.1,22.4c-3.2,1.1-6.2,2.2-9.4,3.3c1.3-8.6,2.6-17.1,3.9-25.7
			C54,97.7,54.1,97.7,54.2,97.7z"/>
	</g>
	<g>
		<path class="st0" d="M26.6,67.2c-1.4,0-2.8,0.2-4.1-0.1c-0.8-0.1-2.1-0.7-2.2-1.3c-0.2-0.8,0.1-2.2,0.7-2.8
			c1.3-1.4,2.9-2.5,4.6-3.5c1-0.6,1.4-1.2,1.4-2.3c0-3.3,0.1-6.5,0-9.8c-0.1-2-1-2.8-2.7-2.9c1.6-1,3.3-1.9,4.8-3
			c1.8-1.3,3.4-3,5.3-4.3c2.4-1.7,5-2.9,8.1-3c6.3-0.3,10.9,5,9.7,11.8c-0.9,4.9-3.5,8.9-7.2,12.4c1.1,0.7,2.2,1.3,3.2,2
			c5.7,4.2,8.5,12.4,6,20.3c-3.3,10.6-10.3,17.7-20.6,21.5c-4.6,1.7-9.2,1.9-13.5-1c-4.4-3-5.9-7.5-4.5-13.3
			c1.5-6.3,5.1-11,10.5-14.5c0.3-0.2,0.6-0.8,0.6-1.2C26.6,70.7,26.6,69.1,26.6,67.2z M43.4,59.7c-2.4,1.5-4.5,3.3-6.9,4.3
			c-3.2,1.2-4.8,2.9-4.1,6.3c0,0.1,0,0.1,0,0.2c-0.1,1,0.2,1.4,1.3,1.5c3.7,0.4,6.4,2.9,6.8,6.6c0.3,2.5-0.7,6.1-3.5,6.8
			c-1.3,0.4-2.9-0.3-3.3-1.5c-0.4-1.3,0.5-3.1,1.7-3.5c1.8-0.5,2.5-1.7,2.5-3.5c-0.1-2.5-2.3-4.6-5.4-4.3c-0.1,0.7-0.2,1.5-0.2,2.2
			c0.1,4.5,0.1,8.9,0.3,13.4c0.1,2.9,1.7,4,4.5,3.4c0.8-0.2,1.5-0.4,2.3-0.6c0,0.1,0.1,0.2,0.1,0.4c-6.1,2.2-12.2,4.4-18.3,6.6
			c0-0.4,0.1-0.6,0.2-0.6c3.9-1.4,4.7-4.7,4.8-8.3c0.1-4.3,0.1-8.5,0.1-12.8c0-0.7,0-1.4,0-2.3c-6.4,3.7-10.8,11-10.9,17.9
			c0,2.8,0.8,5.3,2.7,7.3c4.8,4.7,10.9,4.7,16.1,2c4.2-2.2,7.1-5.9,9.4-9.9c3.6-6.3,4.9-13.2,4.1-20.5
			C47.4,66.7,46.3,62.8,43.4,59.7z M33,56.9c2.5-0.8,5.2-0.7,7.8,0.2c1.2,0.4,1.8,0.1,2.1-1.1c0.7-3.4,1.5-6.9,2-10.3
			c0.3-2.4-0.3-4.7-1.7-6.8c-1.4-2.1-3.4-2.9-5.9-2.6c-2.2,0.3-3.3,1.9-3.8,3.9c-0.3,1.2-0.5,2.5-0.5,3.8C33,48.3,33,52.6,33,56.9z
			 M32.6,65.1c3.8-1.3,6.8-3.3,8.9-6.7c-2-1.3-6.1-1.9-8.1-1.1c-0.3,0.1-0.7,0.7-0.7,1.1C32.6,60.5,32.6,62.7,32.6,65.1z M26.7,59.7
			c-1.8,0.5-4.5,2.6-5.6,4.1c-0.9,1.3-0.4,2.6,1.2,2.8c1.4,0.2,2.8,0,4.4,0C26.7,64.2,26.7,62,26.7,59.7z"/>
	</g>
	<g>
		<path class="st0" d="M77.9,150.7c-1.1-4.4,0.9-9.1,5.2-12.1c5.3-3.7,11.1-6.3,17.7-6.8c0.7-0.1,1.3-0.5,1.9-0.9
			c5.8-3.3,12-5.3,18.7-5.6c3.5-0.2,6.2,1.2,8,4.4c3-2.7,5.3-5.8,7.4-9.2c1.5-2.6,2.9-5.2,4.2-7.9c0.3-0.6,0.5-1.5,0.3-2.2
			c-2.2-7.8-4.4-15.5-6.7-23.3c-0.7-2.4-1.8-4.4-4.8-4.4c3.8-1.4,7.7-2.7,11.5-4.1c-2.4,1.3-2.5,3.2-1.9,5.4
			c1.6,6.1,3.2,12.2,4.8,18.2c0.2,0,0.3,0,0.5,0c0.4-1.1,0.8-2.2,1.1-3.4c1.1-4.3,3.1-8.4,2.6-12.9c-0.2-1.7-0.5-3.4-1-5
			c-0.6-1.8-1.1-2.1-4.3-3c4.6-1.7,8.8-3.3,13.1-4.8c-4.2,5.4-6,11.6-7.6,18c-2.6,10.2-5.8,20.3-11.4,29.4c-1.9,3.1-4.5,5.8-6.7,8.8
			c-0.5,0.6-0.8,1.5-0.8,2.3c0.1,4.4-1.7,7.9-4.9,10.8c-5.7,5.3-12.3,8.7-19.7,10.8c-5.6,1.6-11.2,2.7-17,2.1
			c-2.8-0.3-5.4-1.6-8.2-2.4c-0.9-0.3-1.8-0.4-2.7-0.4c-4-0.1-7.9-0.8-11.5-2.7c-1.5-0.8-2.4-2.1-2.6-3.8c-0.3-1.8,0.7-3.3,2.6-4.1
			c1.4-0.6,2.4-0.1,3.2,1c0.3,0.5,0.5,1.2,0.4,1.8c-0.3,1.5,0.1,2.7,1.4,3.4c2.2,1.1,4.4,2.1,6.7,3.1
			C77.7,151.1,77.8,150.9,77.9,150.7z M121.7,137.3c-3.1,3.2-7.1,5-11.2,6.3c-3,0.9-6.2,1.2-8.6,3.5c-0.2,0.2-0.5,0.3-0.7,0.4
			c-4.2,2.4-8.9,3.6-13.6,4.4c-2,0.3-4.1,0.5-6.1,0.8c0,0.1,0,0.3-0.1,0.4c1.4,0.4,2.8,1,4.2,1.2c4.3,0.8,8.6,0.3,12.8-0.4
			c6.2-1,12-2.8,17-6.9c3.2-2.6,6-5.5,7.1-9.7C122.2,137.4,121.9,137.4,121.7,137.3c0.7-0.9,1.6-1.8,1.5-3.3c-0.3-4.5-4-7.8-8.5-6.8
			c-3.3,0.7-6.5,2.1-9.7,3.2c-0.9,0.3-1.6,0.9-2.8,1.5c3.2,0.5,5.7,1.3,6.5,4.3c0.7,2.8-0.5,5.2-2.5,7.5c3.8-0.5,6.9-1.6,9.9-3.2
			C117.9,139.5,119.8,138.4,121.7,137.3z M96.3,135.6c-7.3,0.8-13.3,3.2-17.1,9.4c-0.7,1.1-1,2.5-1,3.8c-0.1,2,0.5,2.5,2.5,2.6
			c5.4,0.1,10.5-1.3,15.4-3.5c1.4-0.6,2.7-1.6,4.2-2.6C94.2,144.3,92.8,141,96.3,135.6z M95,140.5c-0.1,2.7,2.6,3.8,5.3,4.1
			c1.2,0.1,3.3-2.5,3.4-4.1c0-2.3-3.1-4.9-5.8-4.8C96.6,135.8,95,138.4,95,140.5z"/>
	</g>
	<g>
		<path class="st0" d="M138.8,60.3c-0.2-1.1,0.6-2,1.7-2.4c1-0.4,2.1-0.1,2.6,1.1c1,2.3,0.4,4.3-1.6,5.2c-2.2,1-4.6,0.1-5.6-2.3
			c-1-2.3-0.4-5.3,1.6-7.1c2-1.8,4.7-1.9,7-0.9c3.2,1.5,4.9,5.1,4.1,8.8c-1.2,5.9-6.4,8.3-10.8,7.7c-3-0.4-5.2-2.5-7.2-4.7
			c-3.1-3.5-4.1-7.8-4.1-12.3c0.1-6.4,0.4-12.8,0.5-19.2c0-1.3-0.3-2.6-0.8-3.8c-0.4-1.2-1.6-1.4-2.2-0.3c-0.9,1.5-1.9,3.2-2,4.8
			c-0.5,7.6-0.7,15.2-1.1,22.9c0,0.4,0,0.9,0,1.3c0.1,2.2,0.9,2.7,3,2.2c0.4-0.1,0.8-0.1,1.3,0.1c-4.4,1.5-8.9,3-13.3,4.5
			c-0.1-0.2-0.1-0.3-0.2-0.5c0.4-0.2,0.8-0.5,1.3-0.6c1.4-0.3,2.1-1.3,2.2-2.6c0.4-4.3,0.8-8.6,1.1-12.9c0.2-3.4,0.4-6.8,0.5-10.3
			c0.1-2.2,0-4.4,0-6.8c-1.3,0-2.3,0-3.3,0c-0.1-0.2-0.1-0.3-0.2-0.5c4.2-0.5,7.6-1.9,9.1-6.1c-0.1,1.8-0.3,3.7-0.4,5.5
			c0.1,0,0.2,0.1,0.3,0.1c0.3-0.4,0.6-0.9,0.9-1.3c2.2-2.9,5.5-2.7,7.2,0.5c1.7,3,2.4,6.3,2.2,9.7c-0.2,5.4-0.8,10.7-0.9,16
			c0,2.8,0.3,5.8,1.2,8.5c1,3.2,4,5.3,7.2,4.8c4.2-0.6,7.2-3.3,7.7-7.1c0.3-3-0.3-5.6-2.9-7.5c-1.9-1.3-4.6-1.3-6.5,0
			c-1.9,1.3-2.9,3.8-2.4,5.9c0.4,1.5,1.3,2.8,2.8,2.9c1.1,0.1,2.4-0.4,3.2-1.1c0.6-0.5,0.7-1.8,0.6-2.7c-0.1-0.6-1.2-1.6-1.6-1.5
			C140.3,58.8,139.7,59.6,138.8,60.3z"/>
	</g>
	<g>
		<path class="st0" d="M87.3,128.8c0.2,0.7,0.5,1.5,0.8,2.5c-2.2,0.8-4.8,1.7-7.4,2.6c1.3-1.3,1.1-2.8,1.1-4.3
			c0.1-10.7,0.3-21.4,0.4-32.1c0-0.2,0-0.4,0-0.7c-0.1-3.4-0.4-3.7-3.8-4.4c4.2-1.1,6.2-4,7-7.7c0.6-2.5,0.8-5.1,1.2-7.7
			c0.1-0.4,0.1-0.9,0.5-1.3c0,8,0,16,0,24.2c0.3-0.4,0.4-0.6,0.6-0.9c1.6-2.8,4.3-2.9,6.4-0.3c3,3.7,4,7.9,3.9,12.5
			c-0.1,5.3-0.8,10.5-3.2,15.2c-0.4,0.9-0.9,1.8-1.6,2.5C91.7,131,90,130.9,87.3,128.8z M92.4,113.3c0.1,0,0.2,0,0.3,0
			c0-3.4,0.1-6.8-0.1-10.1c-0.1-1.5-0.6-3-1.2-4.4c-0.7-1.4-2-1.4-2.8,0c-0.8,1.4-1.4,2.9-1.5,4.5c-0.2,2.5,0,5,0,7.5
			c0.1,5.4,0.1,10.7,0.3,16.1c0,1.2,1.7,3.1,2.7,3c1.4-0.2,1.9-1.4,2.2-2.6c0.1-0.4,0.2-0.9,0.2-1.3
			C92.5,121.7,92.4,117.5,92.4,113.3z"/>
	</g>
	<g>
		<path class="st0" d="M127,118c-3.4,1.1-6.7,2.2-10.1,3.3c1.5-9.7,0.9-19.4,0.8-29.1c0-3-1.2-4-3.9-3.8c3.2-1.1,6.3-2.2,9.6-3.3
			c-0.2,0.8-0.3,1.5-0.4,2.2c0.1,0,0.2,0.1,0.3,0.1c0.1-0.2,0.3-0.5,0.4-0.7c2.2-4,5.7-2.6,7.3,0c1.7,2.6,2.3,5.6,2.3,8.7
			c0,4.2-0.1,8.4,0,12.6c0,1.1,0.2,2.3,0.5,3.4c0.2,0.5,0.9,1.1,1.4,1.1c0.4,0.1,1-0.6,1.3-1c0.4-0.6,0.5-1.4,0.8-2.1
			c0.8,1.8-1.1,5.2-3.3,6.1c-2.2,0.9-5.1-0.3-5.8-2.6c-0.5-1.7-0.7-3.7-0.7-5.5c-0.1-6.8,0-13.6-0.1-20.4c0-0.6-0.4-1.3-0.6-1.9
			c-0.6,0.3-1.3,0.6-1.8,1c-1.5,1.5-1.8,3.4-1.9,5.3c-0.1,7.7-0.1,15.5-0.2,23.2c0,3.1,0.3,3.4,3.3,3.1c0.3,0,0.6,0,0.9,0
			C127,117.9,127,117.9,127,118z"/>
	</g>
	<g>
		<path class="st0" d="M96.5,14.6c-0.2,6.1-0.3,12.1-0.5,18.6c2.4-1.1,4.6-2.2,6.8-3c2.1-0.8,4.4-1.2,6.7-1.5
			c-0.5,0.3-1,0.7-1.5,0.9c-1.8,0.7-3.5,1.4-5.3,1.8c-4.9,1.2-6.8,4.9-7.2,9.2C94.9,46,95.1,51.4,95,56.7c0,2.5,0,5.1,0,7.6
			c0,0.4,0,0.9,0.1,1.3c0.3,1.5,1.4,2.5,2.6,2.3c1.5-0.2,1.8-1.4,1.7-2.6c-0.1-1.2-0.4-2.3-0.7-3.5c1.7,1.8,1.9,5.1,0.2,7.4
			c-0.7,0.9-1.7,1.8-2.7,2.4c-2.2,1.3-5,0.2-5.4-2.4c-0.5-2.8-0.6-5.6-0.6-8.4c-0.1-5.7,0-11.5-0.1-17.3c0-1.2-0.3-2.4-0.7-3.6
			c-0.8-2.1-2.2-2.8-4.3-2.1c-3.4,1.1-6.8,2.3-10.2,3.4c-3.7,1.1-7.6,2-11.3,1c-7.5-2.2-9.8-9.6-5.9-15.3c2.9-4.3,7.8-5.8,12-3.7
			c3.2,1.6,4.9,5.5,4.1,9.3c-0.7,3.2-3.8,5.8-7.3,5.9c-2.4,0.1-5-1.6-5.8-3.9c-0.8-2.3,0-5.3,1.8-6.8c1.8-1.4,4.4-1.2,6,0.4
			c1.1,1.2,1.1,3.4-0.1,4.7c-1.3,1.5-3.6,1.5-4.4,0c-0.3-0.5-0.2-1.3-0.1-1.8c0.1-0.3,0.8-0.3,1.1-0.4c-0.1,0.9-0.2,1.5-0.4,2.1
			c0.8,0.1,1.6,0.4,2.3,0.2c1.3-0.4,1.7-1.5,1.6-2.8c-0.1-1.3-0.8-2.1-2-2.6c-1.9-0.7-4.4,0.6-5.1,2.6c-0.8,2.1-0.3,4.7,1.2,6
			c1.7,1.5,4.5,1.9,6.5,0.8c3.7-1.9,5.1-5.8,3.5-9.9c-1.4-3.4-5.3-5.1-9.2-3.9c-6.6,2-9.1,9.7-4.8,15.1c2,2.5,4.8,3.4,7.9,3.5
			c4.3,0.1,8.1-1.3,12.1-2.7c1.6-0.5,3.1-1.1,4.7-1.6c4.7-1.2,7.4-4.6,9.3-8.7c1.9-3.9,2.9-8.1,3.2-12.5c0-0.4,0.1-0.9,0.1-1.3
			c0-0.1,0.1-0.3,0.2-0.4C96.3,14.7,96.4,14.7,96.5,14.6z"/>
	</g>
	<g>
		<path class="st0" d="M115.7,121.7c-2.5,0.9-4.9,1.9-7.3,2.8c0.4-1.3,0.9-2.5,1.3-3.7c-0.1,0-0.3-0.1-0.4-0.1
			c-0.5,1.1-1,2.2-1.6,3.2c-1.1,1.9-3.5,2.3-5.2,0.9c-2.1-1.7-2.9-4-3-6.6c-0.3-6,1.8-10.9,6.9-14.3c0.9-0.6,1.7-1.4,2.4-2.2
			c1.7-2,1.5-7.2-0.7-8.7c-0.8-0.6-2.2-0.8-3.2-0.6c-0.8,0.2-1.5,1.4-1.7,2.3c-0.2,0.7,0.3,1.7,0.9,2.2c0.3,0.3,1.4-0.2,2.1-0.4
			c-0.3,1.7-0.4,3.7-2.2,5.1c-1.2,1-3,0.6-3.6-0.8c-1.6-3.5,2.1-9.5,5.9-9.4c3,0.1,4.8,1.9,6.1,4.4c2,3.8,2,8,2,12.1
			c0,4,0,8.1-0.1,12.1C114.3,121,114.4,121.8,115.7,121.7z M110.1,101c-4.1,4.4-4.2,4.7-4.5,8.7c-0.1,1.4-0.3,2.8-0.2,4.1
			c0,2.8,0.1,5.6,0.3,8.4c0,0.5,0.5,0.9,0.8,1.4c0.4-0.3,1-0.6,1.1-1c0.7-1.7,1.6-3.5,1.7-5.3C109.8,112,109.9,106.7,110.1,101z"/>
	</g>
	<g>
		<path class="st0" d="M114.2,50.7c0.2,5-1.3,10.4-5.1,15.1c-2.3,2.8-4.4,2.9-6.7,0.2c-3.5-4.2-4.3-9.2-3.8-14.5
			c0.4-4.8,1.5-9.3,4-13.5c1.1-1.9,2.6-3.5,4.9-3.4c2.4,0.1,3.6,2.2,4.5,4.1C113.7,42.2,114.4,45.9,114.2,50.7z M104.1,49
			c-0.1,0-0.2,0-0.3,0c0,5.1,0,10.3,0,15.4c0,1.3,0.2,2.6,1.8,2.9c1.1,0.2,2.1-1.1,2.4-2.7c0-0.2,0-0.3,0.1-0.5
			c0.3-6.1,0.8-12.2,1-18.3c0.1-3-0.1-6-0.4-8.9c0-0.6-0.7-1.5-1.2-1.5c-0.6-0.1-1.5,0.3-2,0.8c-0.4,0.4-0.6,1.2-0.7,1.8
			C104.5,41.6,104.3,45.3,104.1,49z"/>
	</g>
	<g>
		<path class="st0" d="M70.8,65.1c0.3,5.8-1.7,10.7-4.6,15.5c-0.2,0.4-0.6,0.7-0.8,1c-2.2,2.7-4.4,1.9-6.2-0.5
			c-1.9-2.6-2.8-5.7-3.2-8.8c-0.7-7,0.3-13.7,4.3-19.7c2.4-3.5,4.5-4.4,7.3,0.4C69.8,56.8,70.9,60.9,70.8,65.1z M61.1,65.5
			c-0.1,0-0.5,4.5-0.4,6.8c0.1,2.9,0.2,5.7,0.5,8.6c0.1,0.6,0.9,1.1,1.3,1.7c0.5-0.5,1.2-1,1.6-1.6c0.4-0.6,0.6-1.5,0.6-2.2
			c0.4-6.7,0.8-13.3,1-20c0.1-2.3-0.3-4.6-0.6-6.8c-0.1-0.5-0.9-1.2-1.3-1.2c-0.6,0-1.4,0.5-1.7,1c-0.5,1-0.9,2.2-1,3.3
			C61.1,58.4,61.1,62,61.1,65.5z"/>
	</g>
	<g>
		<path class="st0" d="M127.5,79.4c-1.2,0.3-2.3,0.7-3.5,1c-1.5,0.5-3,1.1-4.6,1.5c-1.6,0.4-3.3-0.7-3.8-2.3
			c-1.5-4.4,0.8-7.9,5.7-8.9c0-1.1,0-2.2,0-3.3c-0.8-0.1-1.3-0.3-1.9-0.4c-0.1-0.2-0.1-0.3-0.2-0.5c3,0.7,4-1.2,4.9-3.3
			c-0.1,1-0.4,2-0.4,3.1c-0.1,3.7-0.1,7.4-0.1,11.1c0,2.2,0.3,2.4,2.4,1.8c0.4-0.1,0.9-0.2,1.3-0.3
			C127.4,79.1,127.4,79.3,127.5,79.4z M121.7,71.7c-0.2-0.1-0.3-0.3-0.5-0.4c-0.9,0.4-2.1,0.7-2.5,1.4c-1.5,2.4-1.8,5-0.6,7.6
			c0.2,0.5,1.2,1.1,1.6,1c0.7-0.2,1.8-0.9,1.9-1.5C121.8,77.1,121.7,74.4,121.7,71.7z"/>
	</g>
	<g>
		<path class="st0" d="M107.2,85.9c-0.9,0.3-2,0.7-3.1,1.1c0-3.2,0-6.4,0-9.6c-0.9,0-1.6,0-2.2,0c1.6-0.8,3.1-1.6,4.7-2.4
			c0,0.2,0.2,0.6,0.3,1.1c0.4-0.3,0.7-0.7,1.1-0.8c1-0.3,2.4-0.9,3-0.5c0.9,0.6,1.4,2,1.8,3.1c0.3,1,0,2.1,0,3.1
			c0,1.2,0.1,2.3,2,1.8c0,0.1,0,0.3-0.1,0.4c-1.7,0.7-3.5,1.4-5.2,2c-0.1-0.1-0.2-0.2-0.4-0.3c1.9-0.8,1.5-2.4,1.5-3.8
			c0-1.5,0.1-3,0-4.5c-0.1-1.6-1-2-2.3-1.1c-1.2,0.8-1.9,1.8-1.8,3.3c0.1,1.5,0,3.1,0,4.6C106.7,84.4,107,85.1,107.2,85.9z"/>
	</g>
	<g>
		<path class="st0" d="M102.4,87.6c-0.9,0.3-1.9,1-3.2,0.6c-0.4,0.3-0.9,0.8-1.5,1c-1.2,0.4-2.5,0.5-3.3-0.7
			c-0.8-1.2-0.4-2.7,0.5-3.5c1.2-1.1,2.8-1.7,4.2-2.6c0.1,0.1,0.2,0.2,0.3,0.3c0-0.8,0.1-1.5,0-2.3c-0.1-0.5-0.7-1.3-0.9-1.3
			c-0.7,0.2-1.3,0.6-1.9,1c-0.1,0.1,0,0.6-0.1,0.8c-0.3,0.4-0.6,0.9-1.1,1.2c-0.1,0.1-0.9-0.3-0.9-0.5c0-0.5,0.2-1,0.4-1.5
			c0.1-0.3,0.5-0.5,0.8-0.6c1.2-0.8,2.4-1.8,3.9-1.1c1.6,0.7,1.8,2.2,1.8,3.8c0,1.3,0.1,2.6,0.2,4C101.8,86.7,102.1,87,102.4,87.6z
			 M99.3,83.6c-2.3,0.1-3.4,1.3-3.3,3.5c0,0.5,0.3,1.1,0.7,1.3c0.4,0.2,1-0.1,1.5-0.3C100.2,87.1,99.7,85.4,99.3,83.6z"/>
	</g>
	<g>
		<path class="st1" d="M43.4,59.7c2.9,3.1,4,7,4.5,11c0.8,7.2-0.5,14.1-4.1,20.5c-2.3,4-5.2,7.7-9.4,9.9c-5.1,2.8-11.3,2.8-16.1-2
			c-2-1.9-2.8-4.5-2.7-7.3C15.6,84.9,20,77.6,26.4,74c0,0.9,0,1.6,0,2.3c0,4.3,0,8.5-0.1,12.8c-0.1,3.6-1,6.8-4.8,8.3
			c-0.1,0.1-0.2,0.2-0.2,0.6c6.1-2.2,12.2-4.4,18.3-6.6c0-0.1-0.1-0.2-0.1-0.4c-0.8,0.2-1.5,0.4-2.3,0.6c-2.8,0.6-4.4-0.5-4.5-3.4
			c-0.1-4.5-0.2-8.9-0.3-13.4c0-0.7,0.1-1.5,0.2-2.2c3-0.4,5.3,1.8,5.4,4.3c0.1,1.8-0.7,3-2.5,3.5c-1.2,0.4-2.2,2.2-1.7,3.5
			c0.4,1.2,2,1.9,3.3,1.5c2.8-0.8,3.8-4.3,3.5-6.8c-0.4-3.6-3.2-6.2-6.8-6.6c-1-0.1-1.4-0.5-1.3-1.5c0-0.1,0-0.1,0-0.2
			c-0.7-3.5,0.9-5.1,4.1-6.3C38.9,63.1,41,61.2,43.4,59.7z"/>
	</g>
	<g>
		<path class="st1" d="M33,56.9c0-4.4,0-8.6,0-12.9c0-1.3,0.2-2.5,0.5-3.8c0.5-2,1.5-3.6,3.8-3.9c2.5-0.4,4.5,0.5,5.9,2.6
			c1.4,2,2,4.4,1.7,6.8c-0.4,3.5-1.3,6.9-2,10.3c-0.2,1.1-0.8,1.5-2.1,1.1C38.2,56.2,35.6,56.1,33,56.9z"/>
	</g>
	<g>
		<path class="st1" d="M32.6,65.1c0-2.4,0-4.6,0-6.8c0-0.4,0.4-0.9,0.7-1.1c2.1-0.8,6.1-0.2,8.1,1.1C39.4,61.8,36.4,63.8,32.6,65.1z
			"/>
	</g>
	<g>
		<path class="st1" d="M26.7,59.7c0,2.3,0,4.5,0,6.9c-1.6,0-3,0.1-4.4,0c-1.6-0.2-2.1-1.4-1.2-2.8C22.1,62.3,24.9,60.2,26.7,59.7z"
			/>
	</g>
	<g>
		<path class="st1" d="M96.3,135.6c-3.5,5.4-2.1,8.7,4,9.7c-1.6,1-2.8,2-4.2,2.6c-4.9,2.1-10,3.6-15.4,3.5c-2,0-2.6-0.6-2.5-2.6
			c0.1-1.3,0.4-2.7,1-3.8C83.1,138.8,89.1,136.4,96.3,135.6z"/>
	</g>
	<g>
		<path class="st1" d="M121.7,137.3c-1.9,1.1-3.8,2.2-5.7,3.3c-3,1.6-6.1,2.8-9.9,3.2c2-2.3,3.2-4.7,2.5-7.5
			c-0.8-3.1-3.3-3.9-6.5-4.3c1.2-0.7,1.9-1.2,2.8-1.5c3.2-1.1,6.4-2.5,9.7-3.2c4.5-0.9,8.3,2.3,8.5,6.8
			C123.3,135.6,122.4,136.4,121.7,137.3L121.7,137.3z"/>
	</g>
	<g>
		<path class="st1" d="M121.7,137.4c0.3,0,0.5,0,0.9,0c-1.1,4.2-3.9,7-7.1,9.7c-5,4.1-10.8,5.9-17,6.9c-4.3,0.7-8.5,1.3-12.8,0.4
			c-1.4-0.3-2.8-0.8-4.2-1.2c0-0.1,0-0.3,0.1-0.4c2-0.3,4.1-0.4,6.1-0.8c4.8-0.8,9.4-2,13.6-4.4c0.2-0.1,0.5-0.2,0.7-0.4
			c2.4-2.3,5.6-2.6,8.6-3.5C114.6,142.3,118.6,140.5,121.7,137.4L121.7,137.4z"/>
	</g>
	<g>
		<path class="st1" d="M95,140.5c0-2.1,1.5-4.7,2.8-4.8c2.8-0.1,5.9,2.5,5.8,4.8c0,1.6-2.1,4.2-3.4,4.1
			C97.6,144.3,95,143.2,95,140.5z"/>
	</g>
	<g>
		<path class="st1" d="M92.4,125.9c0,0.4-0.1,0.9-0.2,1.3c-0.3,1.2-0.7,2.4-2.2,2.6c-1,0.1-2.7-1.8-2.7-3
			c-0.1-5.4-0.2-10.7-0.3-16.1c0-2.5-0.3-5,0-7.5c0.1-1.5,0.8-3.1,1.5-4.5c0.8-1.4,2-1.4,2.8,0c0.7,1.3,1.2,2.9,1.2,4.4
			c0.2,3.4,0.1,6.7,0.1,10.1C92.6,113.3,92.5,121.7,92.4,125.9z"/>
	</g>
	<g>
		<path class="st1" d="M110.1,101c-0.2,5.7-0.3,11-0.8,16.3c-0.1,1.8-1.1,3.6-1.7,5.3c-0.2,0.4-0.7,0.7-1.1,1
			c-0.3-0.5-0.7-0.9-0.8-1.4c-0.2-2.8-0.3-5.6-0.3-8.4c0-1.4,0.2-2.8,0.2-4.1C105.9,105.7,106.1,105.4,110.1,101z"/>
	</g>
	<g>
		<path class="st1" d="M104.1,49c0.2-3.7,0.5-7.4,0.7-11.1c0-0.6,0.2-1.4,0.7-1.8c0.5-0.5,1.4-0.9,2-0.8c0.5,0.1,1.1,1,1.2,1.5
			c0.2,3,0.5,6,0.4,8.9c-0.2,6.1-0.6,12.2-1,18.3c0,0.2,0,0.3-0.1,0.5c-0.3,1.6-1.3,2.9-2.4,2.7c-1.6-0.3-1.8-1.6-1.8-2.9
			C103.7,59.2,104,49,104.1,49z"/>
	</g>
	<g>
		<path class="st1" d="M61.2,54.9c0-1.1,0.5-2.3,1-3.3c0.3-0.5,1.1-1,1.7-1c0.5,0,1.3,0.7,1.3,1.2c0.3,2.3,0.7,4.6,0.6,6.8
			c-0.2,6.7-0.6,13.3-1,20c0,0.8-0.2,1.6-0.6,2.2c-0.4,0.6-1,1.1-1.6,1.6c-0.5-0.6-1.3-1.1-1.3-1.7c-0.3-2.8-0.4-5.7-0.5-8.6
			C60.6,70,61.1,58.4,61.2,54.9z"/>
	</g>
	<g>
		<path class="st1" d="M121.7,71.7c0,2.7,0.1,5.4-0.1,8.1c0,0.6-1.1,1.3-1.9,1.5c-0.4,0.1-1.4-0.5-1.6-1c-1.2-2.6-0.9-5.2,0.6-7.6
			c0.5-0.7,1.7-0.9,2.5-1.4C121.3,71.4,121.5,71.6,121.7,71.7z"/>
	</g>
	<g>
		<path class="st1" d="M99.3,83.6c0.3,1.7,0.8,3.4-1.1,4.5c-0.4,0.2-1.1,0.5-1.5,0.3c-0.4-0.2-0.7-0.8-0.7-1.3
			C95.9,84.9,97,83.7,99.3,83.6z"/>
	</g>
	<circle class="st2" cx="85" cy="85" r="78"/>
</g>
</svg>
