<svg version="1.1" id="Layer_1" xmlns="http://www.w3.org/2000/svg" x="0" y="0" viewBox="0 0 65.8 65.8" xml:space="preserve"><style>.st6{fill:#fff}</style><circle cx="32.9" cy="32.9" r="32.4" fill="#ef4323" stroke="#fff" stroke-miterlimit="10"/><path class="st6" d="M62.6 33.1c0 4.9-1.3 9.6-3.5 13.9-2 3.8-4.8 7.1-8.3 9.8-3.1 2.3-6.3 4-10 5.1-2.6.7-5.3 1.1-8.1 1.1-4.2-.1-8.1-.9-11.9-2.6-4.6-2.1-8.4-5.2-11.5-9.2C6.8 47.7 5 43.9 4 39.8c-1.5-6.1-1.1-12.1 1.2-17.9 1-2.4 2.1-4.8 3.6-6.9 3.4-4.6 7.6-8 12.9-10.1 5.7-2.2 11.6-2.7 17.5-1.3 5 1.2 9.4 3.4 13.3 6.9 2.7 2.5 5 5.4 6.7 8.8 1.4 2.8 2.4 5.8 2.9 8.9.3 1.7.4 3.3.5 4.9zm-30.8-7.5c-.2.1-.3.2-.5.3-.7.3-1.1.9-1.3 1.6-.2.8.2 1.6.9 1.8.7.2 1.5-.3 1.8-1.1.3-.9.2-1.6-.2-2.4-.5-1-1.4-1.7-2.4-2.2-2.4-1.2-2.9-4-1-5.9.7-.7 1.6-1.1 2.5-.8s1.5 1.1 1.6 2.2c.1.7-.3 1.1-.9 1.4-.6.3-1.1.1-1.6-.3-.4-.4-.5-.8-.4-1.4.7 0 1.1-.1 1.1-.5s-.1-.8-.4-1.1c-.4-.4-.8-.1-1.2.2-.1.1-.2.2-.3.4-.7 1.2-.2 2.5 1.2 3.3.5.3 1.1.5 1.4.8 2.3 1.9 2.1 4.6.4 6.8-.6.8-1.6 1-2.5 1.2-.1.4-.2.8-.2 1.2V33c0 4.3-.1 8.7-.1 13v5.2c0 .5.1 1.1.9.9-2.8 1-5.6 2-8.3 3 0 0 0-.1-.1-.2.2-.1.4-.2.5-.3.7-.2.9-.7 1-1.3.2-2.2-.5-4.3-1.1-6.5-.5.2-.9.3-1.3.5-.8.4-1.3 1.4-1.1 2.1.1.3.5.6.7.7.2 0 .7-.4.7-.6 0-.4-.2-.7-.3-1.1.4.2.7.5.8 1.2 0 .8-.2 1.1-1.3 1.5.7 1.6.5 2.6-.5 2.9.7-.7.8-1.2.5-1.8-.2-.3-.4-.6-.7-.8-.5-.5-.8-1.1-.7-1.7 0-.6.3-1.2.5-1.9-.4.3-1.1.6-1.1.9-.2 1.5-.3 3.1-.3 4.7 0 1-.2 2.2.9 2.9-1.2.4-2.3.8-3.4 1.2.1.1.1.2.2.2 2.9 1.9 6.1 3.4 9.4 4.2 4.1 1 8.3 1.1 12.5.3 3.2-.6 6.3-1.7 9.1-3.4 3-1.8 5.6-4 7.9-6.7 2.2-2.7 3.9-5.6 5.1-8.8 1.6-4.5 2.1-9 1.5-13.7-.4-3.3-1.3-6.3-2.7-9.2-2.2-4.6-5.4-8.5-9.7-11.4-5.6-4.1-12-5.8-18.9-5.4-4 .3-7.8 1.3-11.3 3.1-5.4 2.9-9.7 7-12.5 12.5C4.2 23.9 3 29 3.3 34.3 3.5 39 4.7 43.4 7 47.5c2.1 3.8 4.9 7 8.4 9.6.4.3.7.4.9-.1.2-.4.5-.8.6-1.2.4-1.4.8-2.8 1.2-4.3.2-.9.3-1.8.5-2.9-.9.5-1.7 1-2.5 1.4-2.6 1.4-5.8.2-6.7-2.7-.5-1.6-.3-3.1.9-4.3 1-1 2.2-1.5 3.6-1.1 1.2.3 2.3 1.6 2.3 2.7 0 1.8-.7 3-2.1 3.5-.9.3-1.9-.1-2.3-.9-.5-.9-.3-2.2.4-2.7.5-.4 1-.4 1.5-.2s.7.7.6 1.3c0 .2-.3.5-.5.6-.2.1-.4 0-.6 0V46c.9-.1 1.2-.6.7-1.2-.3-.4-1.1-.5-1.5-.1-.6.5-.7 1.6-.3 2.4.4.7 1.3 1.1 2.2.8 1.8-.6 2.1-2.5 1.7-3.8-.5-1.5-2.1-2.4-3.6-2-1.4.4-2.3 1.3-2.7 2.7-.4 1.6 0 3.2 1.2 4.3 1.4 1.3 3.9 1.4 5.8.3.5-.3.9-.7 1.5-.9.5-.2.7-.5.7-1l1.5-10.2c.1-.5-.2-.8-.7-.9-.1 0-.3-.1-.4-.1 2.4-1 2.1-3.2 2.5-5.2.1.2.1.4.1.4.2 1.4.3 2.9.6 4.3 1.1 5.1 2.3 10.2 3.6 15.3.2.7.5 1.4.7 2.2h.2c.1-.3.3-.5.4-.8.1-.4.1-.9.1-1.3 0-2.8 0-5.6.1-8.4 0-1.4 0-2.8-.1-4.2 0-1.1-.4-1.4-1.4-1.7-.2-.1-.5-.2-.9-.3.3 0 .3-.1.4-.1 1.6.4 2.5-.3 3.2-1.9.7-1.5.9-3.1 1-4.7-1.4-.1-2.6.6-3.6 1.5 2.2-2.3 2.2-5 1.6-7.8 1.6 2.4 2.2 2.8 4 2zM20.9 37.8h-.2c-.5 3.4-1 6.7-1.5 10.1 1.2-.4 2.4-.9 3.7-1.3-.7-2.9-1.4-5.9-2-8.8z"/><path class="st6" d="M10.1 25.9c-.5 0-1.1.1-1.6 0-.3 0-.8-.3-.9-.5-.1-.3 0-.9.3-1.1.5-.5 1.1-1 1.8-1.4.4-.2.5-.5.5-.9v-3.8c0-.8-.4-1.1-1.1-1.1.6-.4 1.3-.7 1.9-1.2.7-.5 1.3-1.2 2.1-1.7.9-.7 2-1.1 3.2-1.2 2.5-.1 4.3 2 3.8 4.6-.4 1.9-1.4 3.5-2.8 4.9.4.3.9.5 1.3.8 2.2 1.6 3.3 4.9 2.3 7.9-1.3 4.2-4 6.9-8.1 8.4-1.8.7-3.6.7-5.3-.4-1.7-1.2-2.3-3-1.8-5.2.6-2.5 2-4.3 4.1-5.7.1-.1.2-.3.2-.5.1-.6.1-1.2.1-1.9zm6.5-3c-.9.6-1.8 1.3-2.7 1.7-1.3.5-1.9 1.1-1.6 2.5v.1c0 .4.1.5.5.6 1.4.2 2.5 1.1 2.7 2.6.1 1-.3 2.4-1.4 2.7-.5.2-1.1-.1-1.3-.6-.2-.5.2-1.2.7-1.4.7-.2 1-.7 1-1.4 0-1-.9-1.8-2.1-1.7 0 .3-.1.6-.1.9 0 1.8 0 3.5.1 5.2 0 1.1.7 1.6 1.8 1.3.3-.1.6-.2.9-.2v.2c-2.4.9-4.8 1.7-7.2 2.6 0-.2 0-.2.1-.2 1.5-.5 1.8-1.8 1.9-3.3v-5.9c-2.5 1.4-4.2 4.3-4.3 7 0 1.1.3 2.1 1.1 2.9 1.9 1.8 4.3 1.8 6.3.8 1.6-.9 2.8-2.3 3.7-3.9 1.4-2.5 1.9-5.2 1.6-8-.1-1.7-.5-3.3-1.7-4.5zm-4-1.1c1-.3 2-.3 3.1.1.5.2.7 0 .8-.4.3-1.3.6-2.7.8-4 .1-.9-.1-1.8-.7-2.7-.5-.8-1.3-1.1-2.3-1-.9.1-1.3.7-1.5 1.5-.1.5-.2 1-.2 1.5v5zm-.2 3.2c1.5-.5 2.7-1.3 3.5-2.6-.8-.5-2.4-.7-3.2-.4-.1 0-.3.3-.3.4V25zm-2.3-2.1c-.7.2-1.8 1-2.2 1.6-.4.5-.2 1 .5 1.1.5.1 1.1 0 1.7 0v-2.7zm20 35.7c-.4-1.7.4-3.6 2-4.7 2.1-1.4 4.3-2.5 6.9-2.7.3 0 .5-.2.7-.4 2.3-1.3 4.7-2.1 7.3-2.2 1.4-.1 2.4.5 3.1 1.7 1.2-1.1 2.1-2.3 2.9-3.6.6-1 1.1-2 1.6-3.1.4-.2.4-.6.4-.8-.9-3.1-1.7-6.1-2.6-9.1-.3-.9-.7-1.7-1.9-1.7 1.5-.5 3-1.1 4.5-1.6-.9.5-1 1.3-.7 2.1.6 2.4 1.3 4.8 1.9 7.1h.2c.2-.4.3-.9.4-1.3.4-1.7 1.2-3.3 1-5.1-.1-.7-.2-1.3-.4-2s-.4-.8-1.7-1.2c1.8-.7 3.4-1.3 5.1-1.9-1.6 2.1-2.3 4.5-3 7-1 4-2.3 7.9-4.5 11.5-.7 1.2-1.8 2.3-2.6 3.4-.2.2-.3.6-.3.9 0 1.7-.7 3.1-1.9 4.2-2.2 2.1-4.8 3.4-7.7 4.2-2.2.6-4.4 1.1-6.7.8-1.1-.1-2.1-.6-3.2-.9-.4-.1-.7-.2-1.1-.2-1.6 0-3.1-.3-4.5-1.1-.6-.3-.9-.8-1-1.5-.1-.7.3-1.3 1-1.6.5-.2.9 0 1.3.4.1.2.2.5.2.7-.1.6 0 1.1.5 1.3.9.4 1.7.8 2.6 1.2.2.3.2.2.2.2zm17.2-5.3c-1.2 1.3-2.8 2-4.4 2.5-1.2.4-2.4.5-3.4 1.4-.1.1-.2.1-.3.2-1.6.9-3.5 1.4-5.3 1.7l-2.4.3v.2c.5.2 1.1.4 1.6.5 1.7.3 3.4.1 5-.2 2.4-.4 4.7-1.1 6.7-2.7 1.3-1 2.3-2.2 2.8-3.8-.1-.1-.2-.1-.3-.1.3-.4.6-.7.6-1.3-.1-1.8-1.6-3.1-3.3-2.7-1.3.3-2.5.8-3.8 1.3-.4.1-.6.4-1.1.6 1.3.2 2.2.5 2.5 1.7.3 1.1-.2 2-1 2.9 1.5-.2 2.7-.6 3.9-1.3.7-.3 1.4-.8 2.2-1.2zm-10-.7c-2.9.3-5.2 1.3-6.7 3.7-.3.4-.4 1-.4 1.5 0 .8.2 1 1 1 2.1 0 4.1-.5 6-1.4.5-.2 1.1-.6 1.6-1-2.3-.4-2.8-1.6-1.5-3.8zm-.5 2c0 1.1 1 1.5 2.1 1.6.5 0 1.3-1 1.3-1.6 0-.9-1.2-1.9-2.3-1.9-.4 0-1.1 1-1.1 1.9zM54 23.1c-.1-.4.2-.8.7-.9.4-.2.8 0 1 .4.4.9.2 1.7-.6 2-.9.4-1.8 0-2.2-.9-.4-.9-.2-2.1.6-2.8.8-.7 1.8-.7 2.7-.4 1.3.6 1.9 2 1.6 3.4-.5 2.3-2.5 3.3-4.2 3-1.2-.2-2-1-2.8-1.8-1.2-1.4-1.6-3.1-1.6-4.8 0-2.5.2-5 .2-7.5 0-.5-.1-1-.3-1.5-.2-.5-.6-.5-.9-.1-.4.6-.7 1.3-.8 1.9-.2 3-.3 6-.4 9v.5c0 .9.4 1.1 1.2.9h.5c-1.7.6-3.5 1.2-5.2 1.8 0-.1 0-.1-.1-.2.2-.1.3-.2.5-.2.5-.1.8-.5.9-1 .2-1.7.3-3.4.4-5.1.1-1.3.2-2.7.2-4v-2.7h-1.3c0-.1 0-.1-.1-.2 1.6-.2 3-.7 3.6-2.4 0 .7-.1 1.4-.2 2.2h.1c.1-.2.2-.4.4-.5.9-1.1 2.2-1.1 2.8.2.7 1.2.9 2.5.9 3.8-.1 2.1-.3 4.2-.4 6.3 0 1.1.1 2.3.5 3.3.4 1.3 1.6 2.1 2.8 1.9 1.6-.2 2.8-1.3 3-2.8.1-1.2-.1-2.2-1.1-2.9-.7-.5-1.8-.5-2.5 0s-1.1 1.5-.9 2.3c.2.6.5 1.1 1.1 1.1.4 0 .9-.2 1.3-.4.2-.2.3-.7.2-1.1 0-.2-.5-.6-.6-.6-.4.3-.7.6-1 .8z"/><path class="st6" d="M33.8 50c.1.3.2.6.3 1-.9.3-1.9.7-2.9 1 .5-.5.4-1.1.4-1.7 0-4.2.1-8.4.2-12.6v-.3c0-1.3-.2-1.4-1.5-1.7 1.6-.4 2.4-1.6 2.7-3 .2-1 .3-2 .5-3 0-.2 0-.4.2-.5v9.5c.1-.2.2-.2.2-.4.6-1.1 1.7-1.1 2.5-.1 1.2 1.4 1.6 3.1 1.5 4.9 0 2.1-.3 4.1-1.3 6-.2.4-.4.7-.6 1-.5.7-1.1.7-2.2-.1zm2-6.1h.1v-4c0-.6-.2-1.2-.5-1.7s-.8-.5-1.1 0c-.3.5-.5 1.1-.6 1.8-.1 1 0 2 0 2.9 0 2.1 0 4.2.1 6.3 0 .5.7 1.2 1.1 1.2.5-.1.7-.5.9-1 0-.2.1-.4.1-.5 0-1.7-.1-3.4-.1-5zm13.6 1.8c-1.3.4-2.6.9-4 1.3.6-3.8.4-7.6.3-11.4 0-1.2-.5-1.6-1.5-1.5 1.3-.4 2.5-.9 3.8-1.3-.1.3-.1.6-.2.9h.1c0-.1.1-.2.2-.3.9-1.6 2.2-1 2.9 0 .7 1 .9 2.2.9 3.4v4.9c0 .4.1.9.2 1.3.1.2.4.4.5.4.2 0 .4-.2.5-.4.2-.2.2-.5.3-.8.3.7-.4 2-1.3 2.4-.9.4-2-.1-2.3-1-.2-.7-.3-1.4-.3-2.2v-8c0-.2-.2-.5-.2-.7-.2.1-.5.2-.7.4-.6.6-.7 1.3-.7 2.1 0 3 0 6.1-.1 9.1 0 1.2.1 1.3 1.3 1.2h.4l-.1.2zm-12-40.4c-.1 2.4-.1 4.7-.2 7.3.9-.4 1.8-.9 2.7-1.2.8-.3 1.7-.5 2.6-.6-.2.1-.4.3-.6.4-.7.3-1.4.5-2.1.7-1.9.5-2.7 1.9-2.8 3.6-.2 2.1-.2 4.2-.2 6.3v3.5c.1.6.5 1 1 .9.6-.1.7-.5.7-1s-.2-.9-.3-1.4c.7.7.7 2 .1 2.9-.3.4-.7.7-1.1.9-.9.5-2 .1-2.1-.9-.1-1.2-.1-2.3-.1-3.4v-6.8c0-.5-.1-.9-.3-1.4-.3-.8-.9-1.1-1.7-.8-1.3.4-2.7.9-4 1.3-1.4.4-3 .8-4.4.4-2.9-.9-3.8-3.8-2.3-6 1.1-1.7 3.1-2.3 4.7-1.4 1.3.6 1.9 2.2 1.6 3.6-.3 1.3-1.5 2.3-2.9 2.3-.9 0-2-.6-2.3-1.5-.3-.9 0-2.1.7-2.7.7-.5 1.7-.5 2.3.2.4.5.4 1.3 0 1.8-.5.6-1.4.6-1.7 0-.1-.2-.1-.5 0-.7 0-.1.3-.1.4-.2 0 .4-.1.6-.2.8.3 0 .6.2.9.1.5-.2.7-.6.6-1.1 0-.5-.3-.8-.8-1-.7-.3-1.7.2-2 1-.3.8-.1 1.8.5 2.3.7.6 1.8.7 2.5.3 1.4-.7 2-2.3 1.4-3.9-.5-1.3-2.1-2-3.6-1.5-2.6.8-3.6 3.8-1.9 5.9.8 1 1.9 1.3 3.1 1.4 1.7 0 3.2-.5 4.7-1.1l1.8-.6c1.8-.5 2.9-1.8 3.6-3.4.7-1.5 1.1-3.2 1.3-4.9v-.5s0-.1.1-.2c.2.3.3.3.3.3zm7.5 41.9c-1 .4-1.9.7-2.9 1.1.2-.5.4-1 .5-1.4h-.2c-.2.4-.4.9-.6 1.3-.4.7-1.4.9-2 .4-.8-.7-1.1-1.6-1.2-2.6-.1-2.3.7-4.3 2.7-5.6.4-.2.7-.5.9-.9.7-.8.6-2.8-.3-3.4-.3-.2-.9-.3-1.3-.2-.3.1-.6.5-.7.9-.1.3.1.7.4.9.1.1.5-.1.8-.2-.1.7-.2 1.4-.9 2-.5.4-1.2.2-1.4-.3-.6-1.4.8-3.7 2.3-3.7 1.2 0 1.9.7 2.4 1.7.8 1.5.8 3.1.8 4.7v4.7c.2.3.2.6.7.6zm-2.1-8.1c-1.6 1.7-1.6 1.8-1.8 3.4 0 .5-.1 1.1-.1 1.6 0 1.1 0 2.2.1 3.3 0 .2.2.4.3.5.2-.1.4-.2.4-.4.3-.7.6-1.4.7-2.1.2-2 .3-4.1.4-6.3z"/><path class="st6" d="M44.4 19.4c.1 2-.5 4.1-2 5.9-.9 1.1-1.7 1.1-2.6.1-1.4-1.6-1.7-3.6-1.5-5.7.2-1.9.6-3.6 1.6-5.3.4-.7 1-1.4 1.9-1.3.9 0 1.4.9 1.8 1.6.6 1.4.8 2.8.8 4.7zm-4-.7h-.1v6c0 .5.1 1 .7 1.1.4.1.8-.4.9-1.1v-.2c.1-2.4.3-4.8.4-7.2 0-1.2 0-2.3-.2-3.5 0-.2-.3-.6-.5-.6s-.6.1-.8.3c-.2.2-.2.5-.3.7.1 1.6 0 3.1-.1 4.5zm-13 6.3c.1 2.3-.7 4.2-1.8 6.1-.1.2-.2.3-.3.4-.9 1.1-1.7.7-2.4-.2-.7-1-1.1-2.2-1.3-3.4-.3-2.7.1-5.4 1.7-7.7.9-1.4 1.8-1.7 2.9.2.8 1.4 1.2 3 1.2 4.6zm-3.8.2s-.2 1.8-.2 2.7c0 1.1.1 2.2.2 3.4 0 .2.4.4.5.7.2-.2.5-.4.6-.6.2-.2.2-.6.2-.9.2-2.6.3-5.2.4-7.8 0-.9-.1-1.8-.2-2.7 0-.2-.4-.5-.5-.5-.2 0-.5.2-.7.4-.2.4-.4.9-.4 1.3.1 1.2.1 2.6.1 4zm26 5.4c-.5.1-.9.3-1.4.4l-1.8.6c-.6.2-1.3-.3-1.5-.9-.6-1.7.3-3.1 2.2-3.5v-1.3c-.3 0-.5-.1-.7-.2 0-.1 0-.1-.1-.2 1.2.3 1.6-.5 1.9-1.3 0 .4-.2.8-.2 1.2v4.3c0 .9.1.9.9.7.2 0 .4-.1.5-.1.1.2.1.3.2.3zm-2.3-3c-.1 0-.1-.1-.2-.2-.4.2-.8.3-1 .5-.6.9-.7 2-.2 3 .1.2.5.4.6.4.3-.1.7-.4.7-.6.1-1 .1-2 .1-3.1zm-5.7 5.6c-.4.1-.8.3-1.2.4v-3.8h-.9l1.8-.9c0 .1.1.2.1.4.2-.1.3-.3.4-.3.4-.1.9-.4 1.2-.2.4.2.5.8.7 1.2.1.4 0 .8 0 1.2 0 .5 0 .9.8.7v.2c-.7.3-1.4.5-2 .8 0 0-.1-.1-.2-.1.7-.3.6-.9.6-1.5v-1.8c0-.6-.4-.8-.9-.4-.5.3-.7.7-.7 1.3v1.8c.1.4.2.7.3 1zm-1.9.6c-.4.1-.7.4-1.3.2-.2.1-.4.3-.6.4-.5.2-1 .2-1.3-.3-.3-.5-.2-1.1.2-1.4.5-.4 1.1-.7 1.6-1l.1.1v-.9c0-.2-.3-.5-.4-.5-.3.1-.5.2-.7.4v.3c-.1.2-.2.4-.4.5 0 0-.4-.1-.4-.2 0-.2.1-.4.2-.6 0-.1.2-.2.3-.2.5-.3.9-.7 1.5-.4.6.3.7.9.7 1.5 0 .5 0 1 .1 1.6.2.2.3.3.4.5zm-1.2-1.5c-.9 0-1.3.5-1.3 1.4 0 .2.1.4.3.5s.4 0 .6-.1c.8-.5.6-1.1.4-1.8z"/></svg>