<?xml version="1.0" encoding="utf-8"?>
<!-- Generator: Adobe Illustrator 21.0.0, SVG Export Plug-In . SVG Version: 6.00 Build 0)  -->
<svg version="1.1" id="Layer_1" xmlns="http://www.w3.org/2000/svg" xmlns:xlink="http://www.w3.org/1999/xlink" x="0px" y="0px"
	 viewBox="0 0 65.8 65.8" style="enable-background:new 0 0 65.8 65.8;" xml:space="preserve">
<style type="text/css">
	.st0{fill:#FFFFFF;stroke:#000000;stroke-miterlimit:10;}
	.st1{fill:#FFFFFF;stroke:#FFFFFF;stroke-miterlimit:10;}
	.st2{fill:none;stroke:#BE2026;stroke-width:2;stroke-miterlimit:10;}
	.st3{fill:#FFDEA7;}
	.st4{fill:#BE2026;}
	.st5{fill:#1C94D2;stroke:#FFFFFF;stroke-miterlimit:10;}
	.st6{fill:#FFFFFF;}
	.st7{fill:#00AFAD;stroke:#FFFFFF;stroke-miterlimit:10;}
	.st8{fill:#FFFFFF;stroke:#000000;stroke-width:0.25;stroke-miterlimit:10;}
	.st9{fill:#06884B;}
	.st10{fill:#BEC8CC;stroke:#FFFFFF;stroke-miterlimit:10;}
	.st11{clip-path:url(#SVGID_2_);}
	.st12{fill:#E22126;stroke:#FBE904;stroke-width:0.75;stroke-miterlimit:10;}
	.st13{fill:#191817;}
	.st14{fill:#FBE904;}
	.st15{fill:#E63229;}
	.st16{fill:#FEF16E;stroke:#FFFFFF;stroke-miterlimit:10;}
	.st17{fill:#1F4180;}
	.st18{fill:none;stroke:#E21E26;stroke-width:2;stroke-miterlimit:10;}
	.st19{fill:#E96F2B;}
	.st20{fill:#F29220;}
	.st21{fill:#EF8322;}
	.st22{fill:#EE3F80;}
	.st23{fill:#F1A847;}
	.st24{fill:#FDBA3A;}
	.st25{clip-path:url(#SVGID_4_);}
	.st26{fill:#383635;}
	.st27{clip-path:url(#SVGID_6_);}
	.st28{fill:#181A10;stroke:#FFFFFF;stroke-miterlimit:10;}
	.st29{fill:#EF4323;stroke:#FFFFFF;stroke-miterlimit:10;}
	.st30{fill:#BEDB86;stroke:#FFFFFF;stroke-miterlimit:10;}
	.st31{fill:#FFFFFF;stroke:#000000;stroke-width:0.5;stroke-miterlimit:10;}
	.st32{fill:#E38328;stroke:#FFFFFF;stroke-miterlimit:10;}
	.st33{fill:#020202;}
	.st34{fill:none;stroke:#FFFFFF;stroke-miterlimit:10;}
	.st35{fill:#BFDEF3;stroke:#FFFFFF;stroke-miterlimit:10;}
	.st36{fill:#994573;}
	.st37{fill:#F6F6F6;}
	.st38{fill:#8F4199;stroke:#FFFFFF;stroke-miterlimit:10;}
	.st39{fill:#175633;}
	.st40{fill:#984D2D;}
</style>
<circle class="st29" cx="32.9" cy="32.9" r="32.4"/>
<g>
	<g>
		<path class="st6" d="M62.6,33.1c0,4.9-1.3,9.6-3.5,13.9c-2,3.8-4.8,7.1-8.3,9.8c-3.1,2.3-6.3,4-10,5.1c-2.6,0.7-5.3,1.1-8.1,1.1
			c-4.2-0.1-8.1-0.9-11.9-2.6c-4.6-2.1-8.4-5.2-11.5-9.2C6.8,47.7,5,43.9,4,39.8c-1.5-6.1-1.1-12.1,1.2-17.9c1-2.4,2.1-4.8,3.6-6.9
			c3.4-4.6,7.6-8,12.9-10.1c5.7-2.2,11.6-2.7,17.5-1.3c5,1.2,9.4,3.4,13.3,6.9c2.7,2.5,5,5.4,6.7,8.8c1.4,2.8,2.4,5.8,2.9,8.9
			C62.4,29.9,62.5,31.5,62.6,33.1z M31.8,25.6c-0.2,0.1-0.3,0.2-0.5,0.3c-0.7,0.3-1.1,0.9-1.3,1.6c-0.2,0.8,0.2,1.6,0.9,1.8
			c0.7,0.2,1.5-0.3,1.8-1.1c0.3-0.9,0.2-1.6-0.2-2.4c-0.5-1-1.4-1.7-2.4-2.2c-2.4-1.2-2.9-4-1-5.9c0.7-0.7,1.6-1.1,2.5-0.8
			s1.5,1.1,1.6,2.2c0.1,0.7-0.3,1.1-0.9,1.4c-0.6,0.3-1.1,0.1-1.6-0.3c-0.4-0.4-0.5-0.8-0.4-1.4c0.7,0,1.1-0.1,1.1-0.5
			c0-0.4-0.1-0.8-0.4-1.1c-0.4-0.4-0.8-0.1-1.2,0.2c-0.1,0.1-0.2,0.2-0.3,0.4c-0.7,1.2-0.2,2.5,1.2,3.3c0.5,0.3,1.1,0.5,1.4,0.8
			c2.3,1.9,2.1,4.6,0.4,6.8c-0.6,0.8-1.6,1-2.5,1.2c-0.1,0.4-0.2,0.8-0.2,1.2c0,0.6,0,1.3,0,1.9c0,4.3-0.1,8.7-0.1,13
			c0,1.8,0,3.5,0,5.2c0,0.5,0.1,1.1,0.9,0.9c-2.8,1-5.6,2-8.3,3c0,0,0-0.1-0.1-0.2c0.2-0.1,0.4-0.2,0.5-0.3c0.7-0.2,0.9-0.7,1-1.3
			c0.2-2.2-0.5-4.3-1.1-6.5c-0.5,0.2-0.9,0.3-1.3,0.5c-0.8,0.4-1.3,1.4-1.1,2.1c0.1,0.3,0.5,0.6,0.7,0.7c0.2,0,0.7-0.4,0.7-0.6
			c0-0.4-0.2-0.7-0.3-1.1c0.4,0.2,0.7,0.5,0.8,1.2c0,0.8-0.2,1.1-1.3,1.5c0.7,1.6,0.5,2.6-0.5,2.9c0.7-0.7,0.8-1.2,0.5-1.8
			c-0.2-0.3-0.4-0.6-0.7-0.8c-0.5-0.5-0.8-1.1-0.7-1.7c0-0.6,0.3-1.2,0.5-1.9c-0.4,0.3-1.1,0.6-1.1,0.9c-0.2,1.5-0.3,3.1-0.3,4.7
			c0,1-0.2,2.2,0.9,2.9c-1.2,0.4-2.3,0.8-3.4,1.2c0.1,0.1,0.1,0.2,0.2,0.2c2.9,1.9,6.1,3.4,9.4,4.2c4.1,1,8.3,1.1,12.5,0.3
			c3.2-0.6,6.3-1.7,9.1-3.4c3-1.8,5.6-4,7.9-6.7c2.2-2.7,3.9-5.6,5.1-8.8c1.6-4.5,2.1-9,1.5-13.7c-0.4-3.3-1.3-6.3-2.7-9.2
			c-2.2-4.6-5.4-8.5-9.7-11.4c-5.6-4.1-12-5.8-18.9-5.4c-4,0.3-7.8,1.3-11.3,3.1c-5.4,2.9-9.7,7-12.5,12.5
			c-2.4,4.7-3.6,9.8-3.3,15.1c0.2,4.7,1.4,9.1,3.7,13.2c2.1,3.8,4.9,7,8.4,9.6c0.4,0.3,0.7,0.4,0.9-0.1c0.2-0.4,0.5-0.8,0.6-1.2
			c0.4-1.4,0.8-2.8,1.2-4.3c0.2-0.9,0.3-1.8,0.5-2.9c-0.9,0.5-1.7,1-2.5,1.4c-2.6,1.4-5.8,0.2-6.7-2.7c-0.5-1.6-0.3-3.1,0.9-4.3
			c1-1,2.2-1.5,3.6-1.1c1.2,0.3,2.3,1.6,2.3,2.7c0,1.8-0.7,3-2.1,3.5c-0.9,0.3-1.9-0.1-2.3-0.9c-0.5-0.9-0.3-2.2,0.4-2.7
			c0.5-0.4,1-0.4,1.5-0.2c0.5,0.2,0.7,0.7,0.6,1.3c0,0.2-0.3,0.5-0.5,0.6c-0.2,0.1-0.4,0-0.6,0c0,0,0-0.1,0-0.2
			c0.9-0.1,1.2-0.6,0.7-1.2c-0.3-0.4-1.1-0.5-1.5-0.1c-0.6,0.5-0.7,1.6-0.3,2.4c0.4,0.7,1.3,1.1,2.2,0.8c1.8-0.6,2.1-2.5,1.7-3.8
			c-0.5-1.5-2.1-2.4-3.6-2c-1.4,0.4-2.3,1.3-2.7,2.7c-0.4,1.6,0,3.2,1.2,4.3c1.4,1.3,3.9,1.4,5.8,0.3c0.5-0.3,0.9-0.7,1.5-0.9
			c0.5-0.2,0.7-0.5,0.7-1c0.5-3.4,1-6.8,1.5-10.2c0.1-0.5-0.2-0.8-0.7-0.9c-0.1,0-0.3-0.1-0.4-0.1c2.4-1,2.1-3.2,2.5-5.2
			c0.1,0.2,0.1,0.4,0.1,0.4c0.2,1.4,0.3,2.9,0.6,4.3c1.1,5.1,2.3,10.2,3.6,15.3c0.2,0.7,0.5,1.4,0.7,2.2c0.1,0,0.2,0,0.2,0
			c0.1-0.3,0.3-0.5,0.4-0.8c0.1-0.4,0.1-0.9,0.1-1.3c0-2.8,0-5.6,0.1-8.4c0-1.4,0-2.8-0.1-4.2c0-1.1-0.4-1.4-1.4-1.7
			c-0.2-0.1-0.5-0.2-0.9-0.3c0.3,0,0.3-0.1,0.4-0.1c1.6,0.4,2.5-0.3,3.2-1.9c0.7-1.5,0.9-3.1,1-4.7c-1.4-0.1-2.6,0.6-3.6,1.5
			c2.2-2.3,2.2-5,1.6-7.8C29.4,26,30,26.4,31.8,25.6z M20.9,37.8c0,0-0.1,0-0.2,0c-0.5,3.4-1,6.7-1.5,10.1c1.2-0.4,2.4-0.9,3.7-1.3
			C22.2,43.7,21.5,40.7,20.9,37.8z"/>
	</g>
	<g>
		<path class="st6" d="M10.1,25.9c-0.5,0-1.1,0.1-1.6,0c-0.3,0-0.8-0.3-0.9-0.5c-0.1-0.3,0-0.9,0.3-1.1c0.5-0.5,1.1-1,1.8-1.4
			c0.4-0.2,0.5-0.5,0.5-0.9c0-1.3,0-2.5,0-3.8c0-0.8-0.4-1.1-1.1-1.1c0.6-0.4,1.3-0.7,1.9-1.2c0.7-0.5,1.3-1.2,2.1-1.7
			c0.9-0.7,2-1.1,3.2-1.2c2.5-0.1,4.3,2,3.8,4.6c-0.4,1.9-1.4,3.5-2.8,4.9c0.4,0.3,0.9,0.5,1.3,0.8c2.2,1.6,3.3,4.9,2.3,7.9
			c-1.3,4.2-4,6.9-8.1,8.4c-1.8,0.7-3.6,0.7-5.3-0.4C5.8,38,5.2,36.2,5.7,34c0.6-2.5,2-4.3,4.1-5.7c0.1-0.1,0.2-0.3,0.2-0.5
			C10.1,27.2,10.1,26.6,10.1,25.9z M16.6,22.9c-0.9,0.6-1.8,1.3-2.7,1.7c-1.3,0.5-1.9,1.1-1.6,2.5c0,0,0,0,0,0.1
			c0,0.4,0.1,0.5,0.5,0.6c1.4,0.2,2.5,1.1,2.7,2.6c0.1,1-0.3,2.4-1.4,2.7c-0.5,0.2-1.1-0.1-1.3-0.6c-0.2-0.5,0.2-1.2,0.7-1.4
			c0.7-0.2,1-0.7,1-1.4c0-1-0.9-1.8-2.1-1.7c0,0.3-0.1,0.6-0.1,0.9c0,1.8,0,3.5,0.1,5.2c0,1.1,0.7,1.6,1.8,1.3
			c0.3-0.1,0.6-0.2,0.9-0.2c0,0,0,0.1,0,0.2c-2.4,0.9-4.8,1.7-7.2,2.6c0-0.2,0-0.2,0.1-0.2c1.5-0.5,1.8-1.8,1.9-3.3c0-1.7,0-3.3,0-5
			c0-0.3,0-0.5,0-0.9c-2.5,1.4-4.2,4.3-4.3,7c0,1.1,0.3,2.1,1.1,2.9c1.9,1.8,4.3,1.8,6.3,0.8c1.6-0.9,2.8-2.3,3.7-3.9
			c1.4-2.5,1.9-5.2,1.6-8C18.2,25.7,17.8,24.1,16.6,22.9z M12.6,21.8c1-0.3,2-0.3,3.1,0.1c0.5,0.2,0.7,0,0.8-0.4
			c0.3-1.3,0.6-2.7,0.8-4c0.1-0.9-0.1-1.8-0.7-2.7c-0.5-0.8-1.3-1.1-2.3-1c-0.9,0.1-1.3,0.7-1.5,1.5c-0.1,0.5-0.2,1-0.2,1.5
			C12.6,18.4,12.6,20.1,12.6,21.8z M12.4,25c1.5-0.5,2.7-1.3,3.5-2.6c-0.8-0.5-2.4-0.7-3.2-0.4c-0.1,0-0.3,0.3-0.3,0.4
			C12.4,23.2,12.4,24.1,12.4,25z M10.1,22.9c-0.7,0.2-1.8,1-2.2,1.6c-0.4,0.5-0.2,1,0.5,1.1c0.5,0.1,1.1,0,1.7,0
			C10.1,24.7,10.1,23.8,10.1,22.9z"/>
	</g>
	<g>
		<path class="st6" d="M30.1,58.6c-0.4-1.7,0.4-3.6,2-4.7c2.1-1.4,4.3-2.5,6.9-2.7c0.3,0,0.5-0.2,0.7-0.4c2.3-1.3,4.7-2.1,7.3-2.2
			c1.4-0.1,2.4,0.5,3.1,1.7c1.2-1.1,2.1-2.3,2.9-3.6c0.6-1,1.1-2,1.6-3.1C55,43.4,55,43,55,42.8c-0.9-3.1-1.7-6.1-2.6-9.1
			c-0.3-0.9-0.7-1.7-1.9-1.7c1.5-0.5,3-1.1,4.5-1.6c-0.9,0.5-1,1.3-0.7,2.1c0.6,2.4,1.3,4.8,1.9,7.1c0.1,0,0.1,0,0.2,0
			c0.2-0.4,0.3-0.9,0.4-1.3c0.4-1.7,1.2-3.3,1-5.1c-0.1-0.7-0.2-1.3-0.4-2c-0.2-0.7-0.4-0.8-1.7-1.2c1.8-0.7,3.4-1.3,5.1-1.9
			c-1.6,2.1-2.3,4.5-3,7c-1,4-2.3,7.9-4.5,11.5c-0.7,1.2-1.8,2.3-2.6,3.4c-0.2,0.2-0.3,0.6-0.3,0.9c0,1.7-0.7,3.1-1.9,4.2
			c-2.2,2.1-4.8,3.4-7.7,4.2c-2.2,0.6-4.4,1.1-6.7,0.8c-1.1-0.1-2.1-0.6-3.2-0.9c-0.4-0.1-0.7-0.2-1.1-0.2c-1.6,0-3.1-0.3-4.5-1.1
			c-0.6-0.3-0.9-0.8-1-1.5c-0.1-0.7,0.3-1.3,1-1.6c0.5-0.2,0.9,0,1.3,0.4c0.1,0.2,0.2,0.5,0.2,0.7c-0.1,0.6,0,1.1,0.5,1.3
			c0.9,0.4,1.7,0.8,2.6,1.2C30.1,58.7,30.1,58.6,30.1,58.6z M47.3,53.3c-1.2,1.3-2.8,2-4.4,2.5c-1.2,0.4-2.4,0.5-3.4,1.4
			c-0.1,0.1-0.2,0.1-0.3,0.2c-1.6,0.9-3.5,1.4-5.3,1.7c-0.8,0.1-1.6,0.2-2.4,0.3c0,0,0,0.1,0,0.2c0.5,0.2,1.1,0.4,1.6,0.5
			c1.7,0.3,3.4,0.1,5-0.2c2.4-0.4,4.7-1.1,6.7-2.7c1.3-1,2.3-2.2,2.8-3.8C47.5,53.3,47.4,53.3,47.3,53.3c0.3-0.4,0.6-0.7,0.6-1.3
			c-0.1-1.8-1.6-3.1-3.3-2.7c-1.3,0.3-2.5,0.8-3.8,1.3c-0.4,0.1-0.6,0.4-1.1,0.6c1.3,0.2,2.2,0.5,2.5,1.7c0.3,1.1-0.2,2-1,2.9
			c1.5-0.2,2.7-0.6,3.9-1.3C45.8,54.2,46.5,53.7,47.3,53.3z M37.3,52.6c-2.9,0.3-5.2,1.3-6.7,3.7c-0.3,0.4-0.4,1-0.4,1.5
			c0,0.8,0.2,1,1,1c2.1,0,4.1-0.5,6-1.4c0.5-0.2,1.1-0.6,1.6-1C36.5,56,36,54.8,37.3,52.6z M36.8,54.6c0,1.1,1,1.5,2.1,1.6
			c0.5,0,1.3-1,1.3-1.6c0-0.9-1.2-1.9-2.3-1.9C37.5,52.7,36.8,53.7,36.8,54.6z"/>
	</g>
	<g>
		<path class="st6" d="M54,23.1c-0.1-0.4,0.2-0.8,0.7-0.9c0.4-0.2,0.8,0,1,0.4c0.4,0.9,0.2,1.7-0.6,2c-0.9,0.4-1.8,0-2.2-0.9
			c-0.4-0.9-0.2-2.1,0.6-2.8c0.8-0.7,1.8-0.7,2.7-0.4c1.3,0.6,1.9,2,1.6,3.4c-0.5,2.3-2.5,3.3-4.2,3c-1.2-0.2-2-1-2.8-1.8
			c-1.2-1.4-1.6-3.1-1.6-4.8c0-2.5,0.2-5,0.2-7.5c0-0.5-0.1-1-0.3-1.5c-0.2-0.5-0.6-0.5-0.9-0.1c-0.4,0.6-0.7,1.3-0.8,1.9
			c-0.2,3-0.3,6-0.4,9c0,0.2,0,0.4,0,0.5c0,0.9,0.4,1.1,1.2,0.9c0.2,0,0.3,0,0.5,0c-1.7,0.6-3.5,1.2-5.2,1.8c0-0.1,0-0.1-0.1-0.2
			c0.2-0.1,0.3-0.2,0.5-0.2c0.5-0.1,0.8-0.5,0.9-1c0.2-1.7,0.3-3.4,0.4-5.1c0.1-1.3,0.2-2.7,0.2-4c0-0.9,0-1.7,0-2.7
			c-0.5,0-0.9,0-1.3,0c0-0.1,0-0.1-0.1-0.2c1.6-0.2,3-0.7,3.6-2.4c0,0.7-0.1,1.4-0.2,2.2c0,0,0.1,0,0.1,0c0.1-0.2,0.2-0.4,0.4-0.5
			c0.9-1.1,2.2-1.1,2.8,0.2c0.7,1.2,0.9,2.5,0.9,3.8c-0.1,2.1-0.3,4.2-0.4,6.3c0,1.1,0.1,2.3,0.5,3.3c0.4,1.3,1.6,2.1,2.8,1.9
			c1.6-0.2,2.8-1.3,3-2.8c0.1-1.2-0.1-2.2-1.1-2.9c-0.7-0.5-1.8-0.5-2.5,0c-0.7,0.5-1.1,1.5-0.9,2.3c0.2,0.6,0.5,1.1,1.1,1.1
			c0.4,0,0.9-0.2,1.3-0.4c0.2-0.2,0.3-0.7,0.2-1.1c0-0.2-0.5-0.6-0.6-0.6C54.6,22.6,54.3,22.9,54,23.1z"/>
	</g>
	<g>
		<path class="st6" d="M33.8,50c0.1,0.3,0.2,0.6,0.3,1c-0.9,0.3-1.9,0.7-2.9,1c0.5-0.5,0.4-1.1,0.4-1.7c0-4.2,0.1-8.4,0.2-12.6
			c0-0.1,0-0.2,0-0.3c0-1.3-0.2-1.4-1.5-1.7c1.6-0.4,2.4-1.6,2.7-3c0.2-1,0.3-2,0.5-3c0-0.2,0-0.4,0.2-0.5c0,3.1,0,6.3,0,9.5
			c0.1-0.2,0.2-0.2,0.2-0.4c0.6-1.1,1.7-1.1,2.5-0.1c1.2,1.4,1.6,3.1,1.5,4.9c0,2.1-0.3,4.1-1.3,6c-0.2,0.4-0.4,0.7-0.6,1
			C35.5,50.8,34.9,50.8,33.8,50z M35.8,43.9c0,0,0.1,0,0.1,0c0-1.3,0-2.7,0-4c0-0.6-0.2-1.2-0.5-1.7c-0.3-0.5-0.8-0.5-1.1,0
			c-0.3,0.5-0.5,1.1-0.6,1.8c-0.1,1,0,2,0,2.9c0,2.1,0,4.2,0.1,6.3c0,0.5,0.7,1.2,1.1,1.2c0.5-0.1,0.7-0.5,0.9-1
			c0-0.2,0.1-0.4,0.1-0.5C35.9,47.2,35.8,45.5,35.8,43.9z"/>
	</g>
	<g>
		<path class="st6" d="M49.4,45.7c-1.3,0.4-2.6,0.9-4,1.3c0.6-3.8,0.4-7.6,0.3-11.4c0-1.2-0.5-1.6-1.5-1.5c1.3-0.4,2.5-0.9,3.8-1.3
			c-0.1,0.3-0.1,0.6-0.2,0.9c0,0,0.1,0,0.1,0c0-0.1,0.1-0.2,0.2-0.3c0.9-1.6,2.2-1,2.9,0c0.7,1,0.9,2.2,0.9,3.4c0,1.6,0,3.3,0,4.9
			c0,0.4,0.1,0.9,0.2,1.3c0.1,0.2,0.4,0.4,0.5,0.4c0.2,0,0.4-0.2,0.5-0.4c0.2-0.2,0.2-0.5,0.3-0.8c0.3,0.7-0.4,2-1.3,2.4
			c-0.9,0.4-2-0.1-2.3-1c-0.2-0.7-0.3-1.4-0.3-2.2c0-2.7,0-5.3,0-8c0-0.2-0.2-0.5-0.2-0.7c-0.2,0.1-0.5,0.2-0.7,0.4
			c-0.6,0.6-0.7,1.3-0.7,2.1c0,3,0,6.1-0.1,9.1c0,1.2,0.1,1.3,1.3,1.2c0.1,0,0.2,0,0.4,0C49.4,45.7,49.4,45.7,49.4,45.7z"/>
	</g>
	<g>
		<path class="st6" d="M37.4,5.3c-0.1,2.4-0.1,4.7-0.2,7.3c0.9-0.4,1.8-0.9,2.7-1.2c0.8-0.3,1.7-0.5,2.6-0.6
			c-0.2,0.1-0.4,0.3-0.6,0.4c-0.7,0.3-1.4,0.5-2.1,0.7c-1.9,0.5-2.7,1.9-2.8,3.6c-0.2,2.1-0.2,4.2-0.2,6.3c0,1,0,2,0,3
			c0,0.2,0,0.4,0,0.5c0.1,0.6,0.5,1,1,0.9c0.6-0.1,0.7-0.5,0.7-1s-0.2-0.9-0.3-1.4c0.7,0.7,0.7,2,0.1,2.9c-0.3,0.4-0.7,0.7-1.1,0.9
			c-0.9,0.5-2,0.1-2.1-0.9C35,25.5,35,24.4,35,23.3c0-2.2,0-4.5,0-6.8c0-0.5-0.1-0.9-0.3-1.4c-0.3-0.8-0.9-1.1-1.7-0.8
			c-1.3,0.4-2.7,0.9-4,1.3c-1.4,0.4-3,0.8-4.4,0.4c-2.9-0.9-3.8-3.8-2.3-6c1.1-1.7,3.1-2.3,4.7-1.4c1.3,0.6,1.9,2.2,1.6,3.6
			c-0.3,1.3-1.5,2.3-2.9,2.3c-0.9,0-2-0.6-2.3-1.5c-0.3-0.9,0-2.1,0.7-2.7c0.7-0.5,1.7-0.5,2.3,0.2c0.4,0.5,0.4,1.3,0,1.8
			c-0.5,0.6-1.4,0.6-1.7,0c-0.1-0.2-0.1-0.5,0-0.7c0-0.1,0.3-0.1,0.4-0.2c0,0.4-0.1,0.6-0.2,0.8c0.3,0,0.6,0.2,0.9,0.1
			c0.5-0.2,0.7-0.6,0.6-1.1c0-0.5-0.3-0.8-0.8-1c-0.7-0.3-1.7,0.2-2,1c-0.3,0.8-0.1,1.8,0.5,2.3c0.7,0.6,1.8,0.7,2.5,0.3
			c1.4-0.7,2-2.3,1.4-3.9c-0.5-1.3-2.1-2-3.6-1.5c-2.6,0.8-3.6,3.8-1.9,5.9c0.8,1,1.9,1.3,3.1,1.4c1.7,0,3.2-0.5,4.7-1.1
			c0.6-0.2,1.2-0.4,1.8-0.6c1.8-0.5,2.9-1.8,3.6-3.4c0.7-1.5,1.1-3.2,1.3-4.9c0-0.2,0-0.4,0-0.5c0,0,0-0.1,0.1-0.2
			C37.3,5.3,37.4,5.3,37.4,5.3z"/>
	</g>
	<g>
		<path class="st6" d="M44.9,47.2c-1,0.4-1.9,0.7-2.9,1.1c0.2-0.5,0.4-1,0.5-1.4c0,0-0.1,0-0.2,0c-0.2,0.4-0.4,0.9-0.6,1.3
			c-0.4,0.7-1.4,0.9-2,0.4c-0.8-0.7-1.1-1.6-1.2-2.6c-0.1-2.3,0.7-4.3,2.7-5.6c0.4-0.2,0.7-0.5,0.9-0.9c0.7-0.8,0.6-2.8-0.3-3.4
			c-0.3-0.2-0.9-0.3-1.3-0.2c-0.3,0.1-0.6,0.5-0.7,0.9c-0.1,0.3,0.1,0.7,0.4,0.9c0.1,0.1,0.5-0.1,0.8-0.2c-0.1,0.7-0.2,1.4-0.9,2
			c-0.5,0.4-1.2,0.2-1.4-0.3c-0.6-1.4,0.8-3.7,2.3-3.7c1.2,0,1.9,0.7,2.4,1.7c0.8,1.5,0.8,3.1,0.8,4.7c0,1.6,0,3.2,0,4.7
			C44.4,46.9,44.4,47.2,44.9,47.2z M42.8,39.1c-1.6,1.7-1.6,1.8-1.8,3.4c0,0.5-0.1,1.1-0.1,1.6c0,1.1,0,2.2,0.1,3.3
			c0,0.2,0.2,0.4,0.3,0.5c0.2-0.1,0.4-0.2,0.4-0.4c0.3-0.7,0.6-1.4,0.7-2.1C42.6,43.4,42.7,41.3,42.8,39.1z"/>
	</g>
	<g>
		<path class="st6" d="M44.4,19.4c0.1,2-0.5,4.1-2,5.9c-0.9,1.1-1.7,1.1-2.6,0.1c-1.4-1.6-1.7-3.6-1.5-5.7c0.2-1.9,0.6-3.6,1.6-5.3
			c0.4-0.7,1-1.4,1.9-1.3c0.9,0,1.4,0.9,1.8,1.6C44.2,16.1,44.4,17.5,44.4,19.4z M40.4,18.7c0,0-0.1,0-0.1,0c0,2,0,4,0,6
			c0,0.5,0.1,1,0.7,1.1c0.4,0.1,0.8-0.4,0.9-1.1c0-0.1,0-0.1,0-0.2c0.1-2.4,0.3-4.8,0.4-7.2c0-1.2,0-2.3-0.2-3.5
			c0-0.2-0.3-0.6-0.5-0.6c-0.2,0-0.6,0.1-0.8,0.3c-0.2,0.2-0.2,0.5-0.3,0.7C40.6,15.8,40.5,17.3,40.4,18.7z"/>
	</g>
	<g>
		<path class="st6" d="M27.4,25c0.1,2.3-0.7,4.2-1.8,6.1c-0.1,0.2-0.2,0.3-0.3,0.4c-0.9,1.1-1.7,0.7-2.4-0.2c-0.7-1-1.1-2.2-1.3-3.4
			c-0.3-2.7,0.1-5.4,1.7-7.7c0.9-1.4,1.8-1.7,2.9,0.2C27,21.8,27.4,23.4,27.4,25z M23.6,25.2c0,0-0.2,1.8-0.2,2.7
			c0,1.1,0.1,2.2,0.2,3.4c0,0.2,0.4,0.4,0.5,0.7c0.2-0.2,0.5-0.4,0.6-0.6c0.2-0.2,0.2-0.6,0.2-0.9c0.2-2.6,0.3-5.2,0.4-7.8
			c0-0.9-0.1-1.8-0.2-2.7c0-0.2-0.4-0.5-0.5-0.5c-0.2,0-0.5,0.2-0.7,0.4c-0.2,0.4-0.4,0.9-0.4,1.3C23.6,22.4,23.6,23.8,23.6,25.2z"
			/>
	</g>
	<g>
		<path class="st6" d="M49.6,30.6c-0.5,0.1-0.9,0.3-1.4,0.4c-0.6,0.2-1.2,0.4-1.8,0.6c-0.6,0.2-1.3-0.3-1.5-0.9
			c-0.6-1.7,0.3-3.1,2.2-3.5c0-0.4,0-0.9,0-1.3c-0.3,0-0.5-0.1-0.7-0.2c0-0.1,0-0.1-0.1-0.2c1.2,0.3,1.6-0.5,1.9-1.3
			c0,0.4-0.2,0.8-0.2,1.2c0,1.4,0,2.9,0,4.3c0,0.9,0.1,0.9,0.9,0.7c0.2,0,0.4-0.1,0.5-0.1C49.5,30.5,49.5,30.6,49.6,30.6z
			 M47.3,27.6c-0.1,0-0.1-0.1-0.2-0.2c-0.4,0.2-0.8,0.3-1,0.5c-0.6,0.9-0.7,2-0.2,3c0.1,0.2,0.5,0.4,0.6,0.4
			c0.3-0.1,0.7-0.4,0.7-0.6C47.3,29.7,47.3,28.7,47.3,27.6z"/>
	</g>
	<g>
		<path class="st6" d="M41.6,33.2c-0.4,0.1-0.8,0.3-1.2,0.4c0-1.3,0-2.5,0-3.8c-0.4,0-0.6,0-0.9,0c0.6-0.3,1.2-0.6,1.8-0.9
			c0,0.1,0.1,0.2,0.1,0.4c0.2-0.1,0.3-0.3,0.4-0.3c0.4-0.1,0.9-0.4,1.2-0.2c0.4,0.2,0.5,0.8,0.7,1.2c0.1,0.4,0,0.8,0,1.2
			c0,0.5,0,0.9,0.8,0.7c0,0,0,0.1,0,0.2c-0.7,0.3-1.4,0.5-2,0.8c0,0-0.1-0.1-0.2-0.1c0.7-0.3,0.6-0.9,0.6-1.5c0-0.6,0-1.2,0-1.8
			c0-0.6-0.4-0.8-0.9-0.4c-0.5,0.3-0.7,0.7-0.7,1.3c0,0.6,0,1.2,0,1.8C41.4,32.6,41.5,32.9,41.6,33.2z"/>
	</g>
	<g>
		<path class="st6" d="M39.7,33.8c-0.4,0.1-0.7,0.4-1.3,0.2c-0.2,0.1-0.4,0.3-0.6,0.4c-0.5,0.2-1,0.2-1.3-0.3
			c-0.3-0.5-0.2-1.1,0.2-1.4c0.5-0.4,1.1-0.7,1.6-1c0,0,0.1,0.1,0.1,0.1c0-0.3,0-0.6,0-0.9c0-0.2-0.3-0.5-0.4-0.5
			c-0.3,0.1-0.5,0.2-0.7,0.4c0,0,0,0.2,0,0.3c-0.1,0.2-0.2,0.4-0.4,0.5c0,0-0.4-0.1-0.4-0.2c0-0.2,0.1-0.4,0.2-0.6
			c0-0.1,0.2-0.2,0.3-0.2c0.5-0.3,0.9-0.7,1.5-0.4c0.6,0.3,0.7,0.9,0.7,1.5c0,0.5,0,1,0.1,1.6C39.5,33.5,39.6,33.6,39.7,33.8z
			 M38.5,32.3c-0.9,0-1.3,0.5-1.3,1.4c0,0.2,0.1,0.4,0.3,0.5s0.4,0,0.6-0.1C38.9,33.6,38.7,33,38.5,32.3z"/>
	</g>
</g>
</svg>
