<?xml version="1.0" encoding="UTF-8" standalone="no"?>
<!-- Created with Inkscape (http://www.inkscape.org/) -->

<svg
   xmlns:dc="http://purl.org/dc/elements/1.1/"
   xmlns:cc="http://creativecommons.org/ns#"
   xmlns:rdf="http://www.w3.org/1999/02/22-rdf-syntax-ns#"
   xmlns:svg="http://www.w3.org/2000/svg"
   xmlns="http://www.w3.org/2000/svg"
   version="1.1"
   width="469.99957"
   height="518.10657"
   id="svg4960">
  <defs
     id="defs4962">
    <clipPath
       id="clipPath4346-8">
      <path
         d="m 36.001,240.005 100.239,0 0,-110.504 -100.239,0 0,110.504 z"
         id="path4348-4" />
    </clipPath>
    <clipPath
       id="clipPath4270-7">
      <path
         d="m 36.001,240.005 100.239,0 0,-110.504 -100.239,0 0,110.504 z"
         id="path4272-3" />
    </clipPath>
  </defs>
  <metadata
     id="metadata4965">
    <rdf:RDF>
      <cc:Work
         rdf:about="">
        <dc:format>image/svg+xml</dc:format>
        <dc:type
           rdf:resource="http://purl.org/dc/dcmitype/StillImage" />
        <dc:title></dc:title>
      </cc:Work>
    </rdf:RDF>
  </metadata>
  <g
     transform="translate(-182.14307,-339.03492)"
     id="layer1">
    <path
       d="m 184.48746,574.0136 c 0,-128.4916 104.16146,-232.65773 232.65775,-232.65773 128.49159,0 232.65304,104.16613 232.65304,232.65773 0,128.49159 -104.16145,232.65304 -232.65304,232.65304 -128.49629,0 -232.65775,-104.16145 -232.65775,-232.65304"
       id="path4264"
       style="fill:#fdba3a;fill-opacity:1;fill-rule:nonzero;stroke:none" />
    <g
       transform="matrix(4.6887895,0,0,-4.6887895,13.341961,1464.3444)"
       id="g4266">
      <g
         clip-path="url(#clipPath4270-7)"
         id="g4268">
        <path
           d="m 36.501,189.885 c 0,27.404 22.215,49.62 49.62,49.62 27.404,0 49.619,-22.216 49.619,-49.62 0,-27.404 -22.215,-49.619 -49.619,-49.619 -27.405,0 -49.62,22.215 -49.62,49.619 z"
           id="path4274"
           style="fill:none;stroke:#373535;stroke-width:1;stroke-linecap:butt;stroke-linejoin:miter;stroke-miterlimit:3.86400008;stroke-opacity:1;stroke-dasharray:none" />
      </g>
    </g>
    <path
       d="m 445.8775,367.35216 c -7.82562,0.25784 -13.61054,9.56985 -14.6875,18.34375 -1.15344,9.4104 2.67271,19.34816 11,20.375 5.04982,0.61892 7.31056,-2.16411 8.65625,-2 0.88149,0.10788 1.21092,1.53259 1.28125,2.34375 l 0.625,0.0937 1.59375,-12.875 -0.625,-0.0937 -0.5,1.75 c -1.11125,4.1871 -5.07506,10.5408 -10.5,9.875 -4.79663,-0.59079 -5.977,-6.4418 -4.40625,-19.21875 1.64576,-13.40994 4.78321,-18.08295 9.03125,-17.5625 4.79664,0.5861 7.48594,8.20788 7.5,13.65625 l 0.78125,0.0937 1.53125,-12.40625 -0.78125,-0.0937 c -0.17818,1.10186 -0.681,1.51877 -1.5625,1.40625 -1.76768,-0.21569 -4.31479,-3.25459 -7.34375,-3.625 -0.53892,-0.0662 -1.07204,-0.0797 -1.59375,-0.0625 z m -42.65625,0.0937 -7.59375,0.9375 0.125,0.9375 0.5625,-0.0625 c 1.89427,-0.23444 2.5812,0.35431 2.75,1.71875 0.10787,0.89555 -0.0609,2.16519 -0.375,3.75 l -3.28125,14.8125 -9.375,-19.03125 3.03125,-0.375 -0.125,-0.9375 -12.9375,1.59375 0.125,0.9375 2.75,-0.34375 11.03125,22.1875 1.4375,11.9375 -3.21875,0.40625 0.125,0.9375 13.03125,-1.59375 -0.125,-0.9375 -3.21875,0.375 -1.75,-14.125 3.75,-16.75 c 0.82054,-4.10269 1.66367,-5.23276 3.09375,-5.40625 l 0.28125,-0.0312 -0.0937,-0.9375 z m -43.96875,7.4375 -0.625,0.1875 0.53125,35.40625 c 0.0281,1.81925 -0.32146,3.25139 -1.8125,3.875 l -0.53125,0.15625 0.28125,0.9375 7.34375,-2.25 -0.28125,-0.90625 -1.15625,0.34375 c -0.81116,0.2485 -1.98892,0.38795 -2.5,-1.28125 -0.17349,-0.55797 -0.18281,-1.18425 -0.1875,-1.625 l -0.25,-7.71875 7.875,-2.40625 6.1875,9.625 -3.25,1 0.28125,0.90625 12.0625,-3.6875 -0.25,-0.90625 -2,0.59375 -21.71875,-32.25 z m 120.1875,0.6875 c -6.68142,-0.0702 -13.0602,6.46675 -15.71875,15.15625 -3.05709,9.42446 0.0137,20.39939 7.1875,22.59375 7.17385,2.19435 15.8555,-5.19581 18.59375,-14.71875 3.03365,-9.93085 0.47399,-20.24935 -7.1875,-22.59375 -0.9571,-0.29246 -1.92051,-0.42747 -2.875,-0.4375 z m 0.78125,1.09375 c 0.61782,-0.034 1.22699,0.0707 1.8125,0.25 3.12274,0.95182 5.55134,3.58623 0.65625,19.59375 -3.9339,12.86604 -6.75964,17.32851 -11.5,15.875 -4.74506,-1.44884 -4.59014,-6.72301 -0.65625,-19.59375 3.97727,-13.00611 7.01027,-15.97767 9.6875,-16.125 z m -141.25,3.875 -6.75,3.90625 0.46875,0.8125 0.25,-0.125 c 2.16153,-1.25191 3.17488,-0.31428 3.625,0.46875 0.37041,0.64236 0.78424,1.86513 1.28125,3.65625 l 5.3125,18.90625 -0.0625,0.0312 -18.125,-18.46865 2.875,-1.65625 -0.46875,-0.84375 -11.40625,6.59375 0.5,0.8125 2.625,-1.53125 7.71875,7.84375 3.96875,14.1875 -0.0625,0.0312 -18.1875,-18.25 2.21875,-1.28125 -0.5,-0.8125 -10.59375,6.125 0.46875,0.8125 2.4375,-1.40625 27.3125,27.15625 0.9375,-0.53125 -6.71875,-24.74995 0.0625,-0.0312 18.09375,18.1875 0.875,-0.5 -8.59375,-32 c -1.11124,-4.12614 -0.43152,-5.74046 0.5625,-6.3125 l 0.34375,-0.1875 -0.46875,-0.84375 z m 164.8125,3.875 -0.4375,0.84375 2.8125,1.5625 -14.96875,26.96875 c -1.10655,1.99274 -2.57745,3.78476 -5.0625,2.40625 l -0.125,-0.0937 -0.46875,0.84375 7.1875,4 0.46875,-0.84375 -0.53125,-0.28125 c -2.00211,-1.10656 -2.42557,-2.18646 -0.34375,-5.9375 l 14.5625,-26.28125 0.0937,0.0312 -8.625,36.4375 1,0.53125 25.8125,-26.15625 0.0625,0.0312 -16.6875,30.125 -3.1875,-1.75 -0.46875,0.8125 11.75,6.53125 0.46875,-0.84375 -2.78125,-1.53125 17.15625,-30.96875 2.78125,1.5625 0.46875,-0.84375 -8.9375,-4.96875 -18.6875,18.90625 -0.0625,-0.0312 6.25,-25.78125 -9.5,-5.28125 z m -143.875,2.625 7.4375,11.75 -7.21875,2.1875 -0.3125,-13.90625 0.0937,-0.0312 z m 185.875,22.5 -0.625,0.75 2.625,2.1875 -22.75,27.12499 -2.625,-2.21874 -0.625,0.75 10.9375,9.15624 0.59375,-0.75 -3.21875,-2.6875 10.28125,-12.24999 c 0.87211,0.93776 2.01056,1.94969 3.375,3.09375 4.90447,4.11676 11.44106,4.12791 15.5625,-0.78125 4.18709,-4.98888 3.74531,-9.8565 -1.9375,-14.625 l -11.59375,-9.75 z m -254.71875,1.34375 -10.625,8.90625 0.625,0.75 2.625,-2.21875 22.75,27.09374 -2.65625,2.21875 0.625,0.71875 19.0625,-15.96874 -8.15625,-9.75 -0.59375,0.5 0.6875,0.8125 c 3.95265,4.70754 5.55627,9.27367 -0.1875,14.09375 l -3.71875,3.12499 -22.75,-27.09374 2.90625,-2.46875 -0.59375,-0.71875 z m 261.78125,5.8438 2.625,2.21875 c 3.50721,2.93986 2.51525,5.47201 -1.8125,10.625 -4.0183,4.78725 -7.57394,5.8337 -11.4375,2.59375 -0.45481,-0.3798 -0.89679,-0.89831 -1.1875,-1.34375 l 11.8125,-14.09375 z m -282.6875,13 -8.8125,10.18749 0.71875,0.625 2.25,-2.59374 26.6875,23.21874 -2.25,2.59375 0.71875,0.625 8.84375,-10.1875 -0.71875,-0.625 -2.25,2.59375 -26.71875,-23.21874 2.25,-2.59375 -0.71875,-0.625 z m 306.71875,7.84375 -32.09375,14.90624 c -1.65515,0.76427 -3.13561,1.01754 -4.3125,-0.0937 l -0.34375,-0.40625 -0.71875,0.625 5.03125,5.78125 0.71875,-0.625 -0.78125,-0.90625 c -0.55796,-0.63767 -1.19255,-1.66375 0.125,-2.8125 0.44075,-0.37979 1.00301,-0.62964 1.40625,-0.8125 l 6.96875,-3.375 5.40625,6.21875 -6.28125,9.5625 -2.25,-2.5625 -0.71875,0.625 8.3125,9.5312 0.71875,-0.625 -1.375,-1.5625 20.625,-32.96874 -0.4375,-0.5 z m -10.46875,5.96874 0.0625,0.0625 -7.6875,11.59375 -4.96875,-5.71875 12.59375,-5.9375 z m 24.78125,14.5 -0.8125,0.5 0.6875,1.125 -1.71875,3.21875 -24.40625,14.65625 c -2.77126,1.66451 -3.88731,0.90656 -4.5625,-0.21875 l -0.25,-0.40625 -0.15625,-0.25 -0.8125,0.46875 4.125,6.875 0.8125,-0.46875 -0.1875,-0.34375 c -1.22377,-2.03493 -1.24446,-3.10426 1.34375,-4.65625 l 23.1875,-13.9375 0.0625,0.0625 -17.4375,33.53125 0.90625,1.5 29.25,-17.5625 c 1.13469,-0.68456 2.85911,-0.79264 3.84375,0.84375 l 0.3125,0.53125 0.8125,-0.5 -4.125,-6.875 -0.8125,0.5 0.40625,0.6875 c 0.9612,1.59888 0.63173,2.99502 -1.09375,4.03125 l -18.625,11.1875 -0.0312,-0.0937 13.78125,-26.90625 -4.5,-7.5 z m -347.28125,2.65625 -0.34375,0.53125 23.625,26.375 c 1.20971,1.35975 1.87364,2.67147 1.15625,4.125 l -0.28125,0.46875 0.8125,0.5 4.0625,-6.5 -0.8125,-0.5 -0.625,1 c -0.44544,0.72207 -1.26835,1.61119 -2.75,0.6875 -0.49701,-0.30946 -0.8968,-0.76552 -1.1875,-1.09375 l -5.25,-5.6875 4.34375,-6.96875 11,3.21875 -1.78125,2.875 0.78125,0.5 6.6875,-10.71875 -0.78125,-0.5 -1.125,1.78125 -37.53125,-10.09375 z m 8.46875,8.75 13.3125,3.96875 -4,6.40625 -9.375,-10.3125 0.0625,-0.0625 z m -17.8125,19.125 c -4.83752,0.28525 -7.45627,5.3709 -8.8125,8.90625 l -4.78125,12.4375 0.90625,0.34375 1.21875,-3.21875 33.03125,12.6875 -1.21875,3.1875 0.875,0.34375 4.875,-12.6875 -0.875,-0.34375 -1.28125,3.3125 -16.75,-6.40625 0.78125,-2.125 c 1.66452,-4.03705 3.44,-5.11959 11.40625,-2.0625 5.439,2.0912 9.59642,2.51522 11.21875,-1.71875 0.5814,-1.5051 0.9424,-3.58855 0.1875,-5.46875 l -0.84375,-0.0312 c 0.17817,0.56735 0.24375,1.28895 0.0937,1.6875 -0.60954,1.58012 -1.58224,1.83986 -9.375,-1.0625 -5.32178,-1.95523 -9.21952,-0.16404 -12.09375,5.40625 l -0.125,-0.0625 c 1.18626,-4.13083 1.26415,-10.17124 -4.71875,-12.46875 -1.36356,-0.52397 -2.6024,-0.72208 -3.71875,-0.65625 z m 373.65625,1.09375 -0.875,0.34375 1,2.625 -18.875,16.03125 -11.21875,4.3125 -1.1875,-3.03125 -0.875,0.34375 4.71875,12.25 0.875,-0.34375 -1.15625,-3.03125 13.28125,-5.125 17.15625,-0.40625 c 4.1824,-0.19693 5.48424,0.37306 6,1.71875 l 0.0937,0.25 0.90625,-0.34375 -2.75,-7.09375 -0.875,0.3125 0.1875,0.53125 c 0.68456,1.78175 0.25818,2.63268 -1.03125,3.125 -0.83929,0.32353 -2.06988,0.4203 -3.6875,0.5 l -15.1875,0.4375 16.1875,-13.71875 1.09375,2.84375 0.90625,-0.34375 -4.6875,-12.1875 z m -378.125,4.8125 c 1.1749,-0.0633 2.7939,0.30483 5.09375,1.1875 6.22671,2.2553 7.94884,4.24091 6.5,8.90625 l -0.84375,2.21875 -15.375,-5.90625 1.09375,-2.90625 c 0.80589,-2.10116 1.57308,-3.39455 3.53125,-3.5 z m 377.65625,48.1875 c -3.39937,0.061 -5.25158,2.06819 -5.21875,4.09375 0.0704,3.93389 4.72862,6.50315 8.625,6.4375 1.72734,-0.0311 3.25833,-0.52807 4.28125,-1.40625 l 0.0312,2.53125 c -2.63979,-0.60955 -13.01445,-1.8184 -22.96875,-3.09375 -4.82008,-0.60485 -7.1453,-1.26655 -7.1875,-3.625 l 0.0625,0 c 0.15005,0.75959 1.03555,1.55469 2.4375,1.53125 1.22377,-0.0188 2.49688,-0.75113 2.46875,-2.3125 -0.0235,-1.30347 -1.00726,-2.28281 -3,-2.25 -1.86145,0.0329 -2.80469,1.75433 -2.78125,3.0625 0.0891,5.22331 16.3007,9.07018 19.4375,9.5625 l 11.625,1.8125 0.0625,3.15625 0.8125,0.125 -0.0625,-3.15625 c 1.63639,0.26257 3.14654,0.64525 4.375,0.875 6.86909,1.33163 8.81092,2.48541 8.84375,4.375 l -0.15625,0 c -0.52046,-1.11594 -1.32772,-1.5547 -2.78125,-1.53125 -1.54261,0.0281 -2.58125,1.01528 -2.5625,2.28125 0.0235,1.341 1.24327,2.31408 2.96875,2.28125 1.99274,-0.0329 3.09063,-1.45115 3.0625,-2.9375 -0.0704,-4.13551 -7.52953,-8.40738 -13.8125,-9.96875 l -0.0625,-2.65625 -0.75,-0.125 c 0.78487,-0.70339 1.27037,-1.63254 1.25,-2.78125 -0.0469,-2.86954 -3.58914,-6.37502 -9,-6.28125 z m -2.8125,2.5625 c 1.5473,-0.0281 5.89453,0.87946 8.75,1.71875 1.18158,0.35166 2.66406,0.80431 2.6875,2.1875 0.0187,1.04091 -0.48249,1.4453 -1.6875,1.46875 -1.08311,0.0188 -7.13389,-1.05454 -8.90625,-1.59375 -1.18158,-0.35165 -2.84686,-0.77146 -2.875,-2.28125 -0.014,-0.89086 0.6715,-1.47655 2.03125,-1.5 z m -392.8125,3.5 -1.75,26.75 11.625,0.75 0.0625,-0.75 c -5.79534,-1.01747 -10.54854,-2.75786 -10.1875,-8.28125 l 0.125,-1.71875 35.46875,2.28125 -0.28125,3.96875 0.96875,0.0625 0.9375,-14.53125 -0.96875,-0.0625 -0.25,3.9375 -35.46875,-2.28125 0.125,-1.75 c 0.35635,-5.5187 5.27182,-6.61711 11.15625,-6.875 l 0.0625,-0.75 -11.625,-0.75 z m 35.625,27.09375 -12.71875,0.65625 0.0625,0.75 1.0625,-0.0625 c 6.13763,-0.31884 10.76239,1.16356 11.15625,8.65625 l 0.25,4.84375 -35.34375,1.875 -0.1875,-3.8125 -0.96875,0.0312 0.75,13.84375 0.9375,-0.0625 -0.1875,-3.40625 35.34375,-1.84375 0.1875,3.40625 0.9375,-0.0312 -1.28125,-24.84375 z m 356.59375,6.90625 c -8.21519,-0.0708 -15.97843,3.63628 -17,10.90625 -0.708,5.03576 2.03599,7.34651 1.84375,8.6875 -0.12188,0.8815 -1.56385,1.19374 -2.375,1.25 l -0.0937,0.625 12.84375,1.8125 0.0937,-0.625 -1.75,-0.5 c -4.16834,-1.18626 -10.44709,-5.27194 -9.6875,-10.6875 0.67519,-4.78256 6.56369,-5.85361 19.3125,-4.0625 13.37712,1.88021 18.00172,5.10509 17.40625,9.34375 -0.67519,4.78256 -8.36881,7.3297 -13.8125,7.25 l -0.0937,0.75 12.375,1.75 0.0937,-0.75 c -1.09717,-0.19694 -1.49691,-0.71226 -1.375,-1.59375 0.2485,-1.76299 3.32332,-4.26167 3.75,-7.28125 1.20971,-8.60394 -8.65992,-15.28089 -18,-16.59375 -1.17337,-0.16469 -2.35765,-0.27113 -3.53125,-0.28125 z m -353.75,21.59375 -11.59375,2.875 0.1875,0.75 0.71875,-0.1875 c 2.93049,-0.73145 10.16516,-1.49249 11.84375,5.25 l 1.5,5.9375 -17.6875,4.40625 -0.71875,-2.84375 c -0.66581,-2.67261 2.12868,-4.84037 5.78125,-5.75 l 1.1875,-0.3125 -0.1875,-0.71875 -16.25,4.03125 0.1875,0.75 0.5625,-0.15625 c 4.88103,-1.21908 7.142,-0.29761 7.8125,2.375 l 0.6875,2.84375 -15.71875,3.9375 -1.21875,-4.84375 c -1.21909,-4.8951 2.00809,-8.64499 6.6875,-9.8125 l 0.71875,-0.15625 -0.1875,-0.75 -10.21875,2.53125 5.71875,23 0.9375,-0.21875 -0.84375,-3.34375 34.34375,-8.5625 0.8125,3.34375 0.9375,-0.25 -6,-24.125 z m 335.09375,4.28125 -3.71875,12.96875 0.90625,0.25 0.9375,-3.28125 17.53125,5 -3.03125,10.59375 -17.53125,-5 0.9375,-3.3125 -0.90625,-0.25 -3.71875,12.9375 0.9375,0.28125 0.9375,-3.3125 34,9.75 -0.9375,3.3125 0.9375,0.25 3.6875,-12.96875 -0.90625,-0.25 -0.9375,3.3125 -15.59375,-4.46875 3.03125,-10.59375 15.59375,4.46875 -0.9375,3.28125 0.90625,0.28125 3.71875,-12.96875 -0.90625,-0.25 -0.96875,3.28125 -34,-9.75 0.9375,-3.28125 -0.90625,-0.28125 z M 253.1275,633.7584 c -1.32949,0.008 -2.69026,0.30531 -4.03125,0.875 -5.85161,2.48506 -7.20219,8.02979 -4.9375,13.375 l -0.0937,0.0312 c -1.98336,-3.57755 -5.97357,-6.90061 -11.1875,-4.6875 -5.65937,2.40066 -6.10676,8.16599 -4.25,12.53125 l 5.28125,12.4375 0.875,-0.375 -1.09375,-2.625 32.5625,-13.8125 1.125,2.59375 0.875,-0.34375 -5.0938,-12.0312 c -2.3104,-5.44368 -6.04278,-7.99249 -10.03125,-7.96875 z m 4.4375,6.03125 c 2.59019,0.038 4.29757,1.38213 5.34375,3.84375 l 0.78125,1.78125 -16.78125,7.125 -1,-2.375 c -1.47697,-3.4744 0.83295,-6.80565 6,-9 2.23128,-0.94597 4.10214,-1.3978 5.65625,-1.375 z m 316.9375,2.53125 -5.90625,12.09375 0.84375,0.40625 1.5,-3.0625 31.8125,15.5 -1.5,3.09375 0.84375,0.40625 5.90625,-12.09375 -0.84375,-0.4375 -1.5,3.09375 -31.8125,-15.5 1.5,-3.09375 -0.84375,-0.40625 z m -334.25,5.5625 c 2.56285,-0.0185 4.19161,1.32573 4.875,2.9375 l 0.90625,2.09375 -14.9375,6.34375 -0.875,-2.09375 c -1.40664,-3.31966 0.31407,-5.91184 5.96875,-8.3125 1.55463,-0.65936 2.89757,-0.96034 4.0625,-0.96875 z m 330.96875,12.5 c -4.2117,0.0791 -7.96267,1.69121 -10.1875,5.25 -2.69136,4.31369 -1.15761,7.5075 -1.875,8.65625 -0.47356,0.7549 -1.92323,0.46883 -2.6875,0.1875 l -0.3125,0.53125 11,6.875 0.34375,-0.53125 -1.40625,-1.15625 c -3.32435,-2.77576 -7.39768,-9.08154 -4.5,-13.71875 2.56008,-4.098 8.36575,-2.66594 19.28125,4.15625 11.4594,7.15979 14.39438,11.99119 12.125,15.625 -2.56008,4.098 -10.65176,3.28814 -15.59375,1 l -0.375,0.65625 10.59375,6.625 0.40625,-0.65625 c -0.919,-0.6283 -1.09856,-1.27635 -0.625,-2.03125 0.94245,-1.50979 4.75737,-2.50554 6.375,-5.09375 4.6044,-7.36609 -1.65717,-17.50175 -9.65625,-22.5 -4.02064,-2.51084 -8.69455,-3.95412 -12.90625,-3.875 z m -290.0625,12.75 -9.25,7.5 0.46875,0.59375 0.5625,-0.46875 c 2.34909,-1.89896 8.59411,-5.65149 12.96875,-0.25 l 3.84375,4.75 -14.15625,11.46875 -1.84375,-2.28125 c -1.73486,-2.1381 -0.14455,-5.28841 2.78125,-7.65625 l 0.96875,-0.75 -0.5,-0.59375 -13,10.53125 0.46875,0.59375 0.46875,-0.375 c 3.91514,-3.16494 6.32765,-3.29434 8.0625,-1.15625 l 1.84375,2.28125 -12.59375,10.21875 -3.15625,-3.90625 c -3.17431,-3.91984 -1.84009,-8.65385 1.90625,-11.6875 l 0.59375,-0.46875 -0.46875,-0.59375 -8.21875,6.65625 14.9375,18.40625 0.71875,-0.625 -2.15625,-2.65625 27.5,-22.28125 2.15625,2.6875 0.75,-0.59375 -15.65625,-19.34375 z m 270.8125,6.8125 -5.125,5.6875 0.6875,0.65625 0.8125,-0.875 c 0.56734,-0.63299 1.5137,-1.39095 2.8125,-0.21875 0.43606,0.38918 0.739,0.90146 0.96875,1.28125 l 4.1875,6.53125 -5.5,6.09375 -10.25,-5.0625 2.28125,-2.53125 -0.71875,-0.625 -8.4375,9.375 0.6875,0.65625 1.40625,-1.5625 35.21875,16.4375 0.4375,-0.46875 -18.6875,-30.0625 c -0.9612,-1.5473 -1.39401,-2.94651 -0.4375,-4.25 l 0.375,-0.4375 -0.71875,-0.625 z m 4.84375,13.9375 7.4375,11.78125 -0.0625,0.0625 -12.4375,-6.21875 5.0625,-5.625 z m -255.4375,3.03125 -0.59375,0.75 2.71875,2.125 -21.78125,27.875 -2.71875,-2.125 -0.59375,0.75 10.625,8.3125 0.59375,-0.75 -2.71875,-2.125 10,-12.78125 8.6875,6.8125 -10,12.75 -2.6875,-2.09375 -0.59375,0.75 10.625,8.28125 0.59375,-0.75 -2.71875,-2.125 21.78125,-27.875 2.71875,2.125 0.59375,-0.75 -10.625,-8.3125 -0.59375,0.75 2.6875,2.125 -11.21875,14.34375 -8.65625,-6.78125 11.21875,-14.34375 2.6875,2.09375 0.59375,-0.75 -10.625,-8.28125 z m 224.125,9.25 c -2.43747,0.0969 -4.72066,0.85458 -6.65625,2.3125 -4.06049,3.06178 -5.78737,6.80529 -6.21875,10.3125 l 4.8125,6.40625 -1.96875,1.46875 0.5625,0.78125 9.5625,-7.1875 -0.59375,-0.78125 -2.5,1.90625 -3.53125,-4.71875 c -2.35846,-3.13211 -1.66936,-5.81673 0.5625,-7.5 3.21651,-2.4241 6.73946,-2.50518 16.65625,10.65625 6.43771,8.54297 9.8777,15.76945 5.71875,18.90625 -4.36996,3.29153 -10.54728,0.32002 -14.78125,-4.3125 l -0.59375,0.4375 7.3125,9.75 0.625,-0.46875 c -0.60954,-0.80178 -0.71239,-1.59048 0,-2.125 0.91431,-0.68925 5.13665,-0.33842 8.25,-2.6875 5.99227,-4.51531 5.92228,-14.83646 -1.21875,-24.3125 -4.55822,-6.05059 -10.63756,-9.05693 -16,-8.84375 z m -191.71875,14.40625 -0.4375,0.84375 3.46875,1.84375 -16.625,31.25 -1.53125,-0.8125 c -4.86227,-2.58821 -3.83185,-7.49382 -1.65625,-12.9375 l -0.65625,-0.375 -5.46875,10.25 23.59375,12.53125 5.4375,-10.25 -0.6875,-0.34375 c -3.29621,4.84821 -6.79397,8.43196 -11.65625,5.84375 l -1.53125,-0.8125 16.625,-31.25 3.46875,1.84375 0.4375,-0.8125 -12.78125,-6.8125 z m 161.5625,3.78125 c -1.418,0.01 -2.79829,0.32034 -4.0625,0.9375 -6.74248,3.28684 -8.05435,14.60851 -3.5625,23.4375 4.55283,9.33069 13.45428,15.10565 20.65625,11.59375 7.19729,-3.5119 8.11531,-14.10681 3.5625,-23.4375 -3.40202,-7.29546 -10.44908,-12.57308 -16.59375,-12.53125 z m -1.21875,1.21875 c 3.42265,0.15814 6.64497,4.61244 11.4375,14.4375 7.34264,15.05101 5.34142,18.03867 2.40625,19.46875 -2.9305,1.43008 -6.50579,1.17133 -13.84375,-13.875 -5.89849,-12.09239 -6.8606,-17.29785 -2.40625,-19.46875 0.83607,-0.40792 1.61641,-0.59899 2.40625,-0.5625 z"
       id="path4276"
       style="fill:#373535;fill-opacity:1;fill-rule:evenodd;stroke:none" />
    <path
       d="m 526.29085,488.83704 -107.26075,75.00657 -106.80125,-77.4635 -24.0488,45.31247 101.01058,68.44226 -0.80646,93.55074 53.22714,0.80646 2.41941,-94.3572 102.42193,-66.93715 -20.1618,-44.36065 z"
       id="path4336"
       style="fill:#373535;fill-opacity:1;fill-rule:nonzero;stroke:#373535;stroke-width:2.34439468;stroke-linecap:butt;stroke-linejoin:miter;stroke-miterlimit:3.86400008;stroke-opacity:1;stroke-dasharray:none" />
    <path
       d="m 389.99711,709.815 45.16242,0.80648 c 5.1858,0.0937 10.04808,-1.10187 12.90355,3.22588 1.76768,2.6773 1.61294,4.85759 1.61294,8.06473 l 0,20.96826 -59.67891,-33.06535 z"
       id="path4338"
       style="fill:#373535;fill-opacity:1;fill-rule:nonzero;stroke:#373535;stroke-width:1.17219734;stroke-linecap:butt;stroke-linejoin:miter;stroke-miterlimit:3.86400008;stroke-opacity:1;stroke-dasharray:none" />
    <path
       d="m 465.46787,755.63386 0.33759,-40.17355 c 0.0562,-6.2736 -0.44544,-10.85455 -4.83883,-15.32296 -4.5997,-4.6841 -9.56045,-4.83884 -16.12943,-4.83884 l -54.03362,0 c -6.61118,0 -10.85455,2.3866 -15.32296,7.25825 -5.83755,6.37207 -4.03236,13.14737 -4.03236,21.7888 l 0,69.34252 c 0,4.9748 0.90494,8.2382 4.03236,12.10176 3.37124,4.14958 6.75185,6.37207 12.09708,6.45178 l 42.50856,0.6236"
       id="path4340"
       style="fill:none;stroke:#373535;stroke-width:9.37757874;stroke-linecap:butt;stroke-linejoin:bevel;stroke-miterlimit:2;stroke-opacity:1;stroke-dasharray:none" />
    <g
       transform="matrix(4.6887895,0,0,-4.6887895,13.341961,1464.3444)"
       id="g4342">
      <g
         clip-path="url(#clipPath4346-8)"
         id="g4344">
        <path
           d="m 79.127,158.686 0,-16.168 c 1.487,-0.204 2.449,-0.005 3.784,-0.688 7.396,-3.784 12.556,-11.181 20.984,-12.041 3.653,-0.372 5.829,0.316 9.288,1.548 l 2.58,16.685 c -4.988,-2.924 -6.908,-0.645 -12.212,0.172 -6.489,0.998 -9.225,5.958 -15.48,9.116 -2.973,1.501 -4.681,2.293 -7.74,3.612 -0.607,-0.38 -1.204,-2.236 -1.204,-2.236"
           id="path4350"
           style="fill:#fdba3a;fill-opacity:1;fill-rule:nonzero;stroke:none" />
        <path
           d="m 79.127,158.686 0,-16.168 c 1.487,-0.204 2.449,-0.005 3.784,-0.688 7.396,-3.784 12.556,-11.181 20.984,-12.041 3.653,-0.372 5.829,0.316 9.288,1.548 l 2.58,16.685 c -4.988,-2.924 -6.908,-0.645 -12.212,0.172 -6.489,0.998 -9.225,5.958 -15.48,9.116 -2.973,1.501 -4.681,2.293 -7.74,3.612 -0.607,-0.38 -1.204,-2.236 -1.204,-2.236 z"
           id="path4352"
           style="fill:none;stroke:#373535;stroke-width:0.375;stroke-linecap:butt;stroke-linejoin:miter;stroke-miterlimit:3.86400008;stroke-opacity:1;stroke-dasharray:none" />
      </g>
    </g>
    <path
       d="m 375.14772,703.95871 c -55.5856,-18.42695 -95.68414,-70.82886 -95.68414,-132.60366 0,-77.13527 62.5297,-139.66965 139.66967,-139.66965 77.13997,0 139.66966,62.53438 139.66966,139.66965 0,60.4807 -38.44339,111.98236 -92.2238,131.40801"
       id="path4354"
       style="fill:none;stroke:#373535;stroke-width:14.0663681;stroke-linecap:butt;stroke-linejoin:miter;stroke-miterlimit:3.86400008;stroke-opacity:1;stroke-dasharray:none" />
    <path
       d="m 384.35181,720.29914 0,75.80835 c 6.97222,0.95183 11.48285,0.0235 17.74237,3.22589 4.0183,2.05838 7.89593,4.34182 11.6704,6.7753"
       id="path4356"
       style="fill:none;stroke:#373535;stroke-width:1.75829601;stroke-linecap:butt;stroke-linejoin:miter;stroke-miterlimit:3.86400008;stroke-opacity:1;stroke-dasharray:none" />
    <path
       d="m 365.02462,753.74428 c 7.53019,4.51999 14.39928,9.48073 19.31313,9.48073 4.85758,0 8.82898,-1.64577 9.48541,-5.96883 0.69864,-4.5997 -3.95265,-9.41509 -8.07878,-8.7821 -4.56688,0.70332 -6.67215,2.81327 -9.8324,4.91854 -3.53533,2.35846 -6.64401,0.21568 -10.88736,0.35166"
       id="path4358"
       style="fill:#fdba3a;fill-opacity:1;fill-rule:nonzero;stroke:none" />
    <path
       d="m 365.02462,753.74428 c 7.53019,4.51999 14.39928,9.48073 19.31313,9.48073 4.85758,0 8.82898,-1.64577 9.48541,-5.96883 0.69864,-4.5997 -3.95265,-9.41509 -8.07878,-8.7821 -4.56688,0.70332 -6.67215,2.81327 -9.8324,4.91854 -3.53533,2.35846 -6.64401,0.21568 -10.88736,0.35166 z"
       id="path4360"
       style="fill:none;stroke:#373535;stroke-width:1.75829601;stroke-linecap:butt;stroke-linejoin:bevel;stroke-miterlimit:2;stroke-opacity:1;stroke-dasharray:none" />
  </g>
</svg>
