<svg version="1.1" id="Layer_1" xmlns="http://www.w3.org/2000/svg" xmlns:xlink="http://www.w3.org/1999/xlink" x="0" y="0" viewBox="0 0 65.8 65.8" xml:space="preserve"><style>.st23{fill:#f1a847}.st24{fill:#fdba3a}.st26{fill:#383635}</style><circle cx="32.9" cy="32.9" r="32.4" fill="#fff" stroke="#fff" stroke-miterlimit="10"/><g id="layer1_1_" transform="translate(-182.143 -339.035)"><path class="st23" d="M190.3 372.3c0-13.7 11.1-24.7 24.7-24.7 13.7 0 24.7 11.1 24.7 24.7S228.7 397 215 397c-13.6 0-24.7-11-24.7-24.7" id="path4264_1_"/><path class="st24" d="M210.9 396.3h6.6v1.4h-6.6z"/><g transform="matrix(4.68879 0 0 -4.68879 13.342 1464.344)" id="g4266_1_"><defs><path id="SVGID_3_" d="M37.7 238.2h10.6v-11.7H37.7v11.7z"/></defs><clipPath id="SVGID_2_"><use xlink:href="#SVGID_3_" overflow="visible"/></clipPath><g id="g4268_1_" clip-path="url(#SVGID_2_)"><path class="st26" d="M43 227.6c-1.4 0-2.7.6-3.7 1.5-1 1-1.5 2.3-1.5 3.7s.6 2.7 1.5 3.7c1 1 2.3 1.5 3.7 1.5 1.4 0 2.7-.6 3.7-1.5 1-1 1.5-2.3 1.5-3.7s-.6-2.7-1.5-3.7c-.9-.9-2.3-1.5-3.7-1.5zm0 10.6c-2.9 0-5.3-2.4-5.3-5.3s2.4-5.3 5.3-5.3 5.3 2.4 5.3 5.3-2.4 5.3-5.3 5.3z" id="path4274_1_"/></g></g><path class="st26" d="M218.1 350.3c-.8 0-1.4 1-1.6 2-.1 1 .3 2.1 1.2 2.2.5.1.8-.2.9-.2.1 0 .1.2.1.2h.1l.2-1.4h-.1l-.1.2c-.1.4-.5 1.1-1.1 1.1-.5-.1-.6-.7-.5-2 .2-1.4.5-1.9 1-1.9.5.1.8.9.8 1.5h.1l.2-1.3h-.1c0 .1-.1.2-.2.1-.2 0-.5-.3-.8-.4 0-.1-.1-.1-.1-.1zm-4.5 0l-.8.1v.1h.1c.2 0 .3 0 .3.2v.4l-.3 1.6-1-2h.3v-.1l-1.4.2v.1h.3l1.2 2.4.2 1.3h-.3v.1l1.4-.2v-.1h-.3l-.2-1.5.4-1.8c.1-.4.2-.6.3-.6l-.2-.2zm-4.7.8v3.8c0 .2 0 .3-.2.4h-.1v.1l.8-.2v-.1h-.1c-.1 0-.2 0-.3-.1v-1l.8-.3.7 1-.3.1v.1l1.3-.4v-.1l-.2.1-2.4-3.4zm12.8.1c-.7 0-1.4.7-1.7 1.6-.3 1 0 2.2.8 2.4s1.7-.6 2-1.6c.3-1.1.1-2.2-.8-2.4h-.3zm0 .1h.2c.3.1.6.4.1 2.1-.4 1.4-.7 1.8-1.2 1.7-.5-.2-.5-.7-.1-2.1.4-1.4.8-1.7 1-1.7zm-15 .4l-.7.4v.1c.2-.1.3 0 .4 0 0 .1.1.2.1.4l.6 2-1.9-2 .3-.2v-.1l-1.2.7.1.1.3-.2.8.8.4 1.5-1.9-1.9.2-.1-.1-.1-1.1.7v.1l.3-.1 2.9 2.9.1-.1-.7-2.6 1.9 1.9.1-.1-.9-3.4c-.1-.4 0-.6.1-.7h-.1zm17.6.4l.3.3-1.6 2.9c-.1.2-.3.4-.5.3v.1l.8.4v-.1h-.1c-.2-.1-.3-.2 0-.6l1.5-2.8-.9 3.9.1.1 2.7-2.8-1.8 3.2-.3-.2v.1l1.2.7v-.1l-.3-.2 1.8-3.3.3.2v-.1l-1-.5-2 2 .7-2.7-.9-.8zm-15.4.3l.8 1.2-.8.2v-1.4zm19.8 2.4l.2.3-2.4 2.9-.3-.2-.1.1 1.2 1 .1-.1-.3-.3 1.1-1.3c.1.1.2.2.4.3.5.4 1.2.4 1.7-.1.4-.5.4-1-.2-1.6l-1.4-1zm-27.1.1l-1.1.9.1.1.3-.2 2.4 2.9-.3.2.1.1 2-1.7-.9-1-.1.1.1.1c.4.5.6 1 0 1.5l-.4.3-2.4-2.9.2-.4zm27.9.7l.3.2c.4.3.3.6-.2 1.1-.4.5-.8.6-1.2.3l-.1-.1 1.2-1.5zm-30.1 1.3l-.9 1.1.1.1.2-.3 2.8 2.5-.2.3.1.1.9-1.1-.1-.1-.2.3-2.8-2.5.1-.4zm32.6.9l-3.4 1.6c-.2.1-.3.1-.5 0l-.1.1.5.6.1-.1-.1-.1c-.1-.1-.1-.2 0-.3l.1-.1.7-.4.6.7-.7 1-.2-.3-.1.1.9 1 .1-.1-.1-.2 2.2-3.5zm-1.1.6l-.8 1.2-.5-.6 1.3-.6zm2.6 1.5v.2l-.2.3-2.6 1.6c-.3.2-.4.1-.5 0h-.1l.4.7h.1c-.1-.2-.1-.3.1-.5l2.5-1.5-1.9 3.6.1.2 3.1-1.9c.1-.1.3-.1.4.1v.1l.1-.1-.4-.7-.1.1v.1c.1.2.1.3-.1.4l-2 1.2 1.5-2.9-.4-1zm-36.9.3l2.5 2.9c.1.1.2.3.1.4l.1.1.4-.7-.1-.1-.1.1c0 .1-.1.2-.3.1-.1 0-.1-.1-.1-.1l-.6-.6.5-.7 1.2.3-.2.3.1.1.7-1.1-.1-.1-.1.2-4-1.1zm.9 1l1.4.4-.4.7-1-1.1zm-1.9 2c-.5 0-.8.6-.9.9l-.5 1.3h.1l.1-.3 3.5 1.3-.1.3h.1l.5-1.3h-.1l-.1.4-1.8-.7.1-.2c.2-.4.4-.5 1.2-.2.6.2 1 .3 1.2-.2.1-.2.1-.4 0-.6h-.1v.2c-.1.2-.2.2-1-.1-.6-.2-1 0-1.3.6.1-.4.1-1.1-.5-1.3-.1-.1-.3-.1-.4-.1zm39.8.1v.3l-2 1.7-1.2.5-.1-.3h-.1l.5 1.3h.1l-.1-.3 1.4-.5h1.8c.4 0 .6 0 .6.2h.1l-.3-.8h-.1v.1c.1.2 0 .3-.1.3s-.2 0-.4.1h-1.6l1.7-1.5.1.3h.1l-.4-1.4zm-40.3.5c.1 0 .3 0 .5.1.7.2.8.5.7.9l-.1.2-1.6-.6.1-.3c.1-.1.2-.3.4-.3zm40.2 5.1c-.4 0-.6.2-.6.4 0 .4.5.7.9.7.2 0 .3-.1.5-.1v.3c-.3-.1-1.4-.2-2.4-.3-.5-.1-.8-.1-.8-.4 0 .1.1.2.3.2.1 0 .3-.1.3-.2s-.1-.2-.3-.2c-.2 0-.3.2-.3.3 0 .6 1.7 1 2.1 1l1.2.2v.3h.1v-.3c.2 0 .3.1.5.1.7.1.9.3.9.5-.1-.1-.1-.2-.3-.2-.2 0-.3.1-.3.2s.1.2.3.2c.2 0 .3-.2.3-.3 0-.4-.8-.9-1.5-1.1v-.3h-.1c.1-.1.1-.2.1-.3.1-.3-.3-.7-.9-.7zm-.3.3c.2 0 .6.1.9.2.1 0 .3.1.3.2s-.1.2-.2.2-.8-.1-.9-.2c-.1 0-.3-.1-.3-.2s.1-.2.2-.2zm-41.8.4l-.2 2.8 1.2.1v-.1c-.6-.1-1.1-.3-1.1-.9v-.2l3.8.2v.4h.1l.1-1.5h-.1v.4l-3.8-.2v-.2c0-.6.6-.7 1.2-.7v-.1h-1.2zm3.8 2.9l-1.4.1v.1h.1c.7 0 1.1.1 1.2.9v.5l-3.8.2v-.4h-.1l.1 1.5h.1v-.4l3.8-.2v.4h.1l-.1-2.7zm37.9.7c-.9 0-1.7.4-1.8 1.2-.1.5.2.8.2.9 0 .1-.2.1-.3.1v.1l1.4.2v-.1l-.2-.1c-.4-.1-1.1-.6-1-1.1.1-.5.7-.6 2.1-.4 1.4.2 1.9.5 1.9 1-.1.5-.9.8-1.5.8v.1l1.3.2v-.1c-.1 0-.2-.1-.1-.2 0-.2.4-.5.4-.8.1-.9-.9-1.6-1.9-1.8h-.5zm-37.6 2.3l-1.2.3v.1h.1c.3-.1 1.1-.2 1.3.6l.2.6-1.9.5-.1-.3c-.1-.3.2-.5.6-.6h.1v-.1l-1.7.4v.1h.1c.5-.1.8 0 .8.3l.1.3-1.7.4-.1-.5c-.1-.5.2-.9.7-1h.1v-.1l-1.1.3.6 2.4h.1l-.1-.4 3.7-.9.1.4h.1l-.8-2.8zm35.7.5l-.4 1.4h.1l.1-.3 1.9.5-.3 1.1-1.9-.5.1-.4h-.1l-.4 1.4h.1l.1-.4 3.6 1-.1.4h.1l.4-1.4h-.1l-.1.4-1.7-.5.3-1.1 1.7.5-.1.3h.1l.4-1.4h-.1l-.1.3-3.6-1v-.3zm-35.4 2.6c-.1 0-.3 0-.4.1-.6.3-.8.9-.5 1.4-.2-.4-.6-.7-1.2-.5-.6.3-.6.9-.5 1.3l.6 1.3h.1l-.1-.3 3.5-1.5.1.3h.1l-.5-1.3c-.4-.5-.8-.8-1.2-.8zm.5.7c.3 0 .5.1.6.4l.1.2-1.8.8-.1-.3c-.2-.4.1-.7.6-1 .2-.1.4-.1.6-.1zm33.7.2l-.6 1.3h.1l.2-.3 3.4 1.6-.2.3h.1l.6-1.3h-.1l-.2.3-3.4-1.6.1-.3zm-35.6.6c.3 0 .4.1.5.3l.1.2-1.6.7-.1-.2c-.1-.4 0-.6.6-.9.3 0 .4-.1.5-.1zm35.2 1.4c-.4 0-.8.2-1.1.6-.3.5-.1.8-.2.9-.1.1-.2 0-.3 0v.1l1.2.7v-.1l-.1-.1c-.4-.3-.8-1-.5-1.5.3-.4.9-.3 2.1.4 1.2.8 1.5 1.3 1.3 1.7-.3.4-1.1.3-1.7.1v.1l1.1.7v-.1c-.1-.1-.1-.1-.1-.2.1-.2.5-.3.7-.5.5-.8-.2-1.9-1-2.4-.4-.3-.9-.4-1.4-.4zm-30.8 1.3l-1 .8v.1h.1c.2-.2.9-.6 1.4 0l.4.5-1.5 1.2-.2-.2c-.2-.2 0-.6.3-.8l.1-.1-.1-.1-1.4 1.1v.1c.4-.3.7-.4.9-.1l.2.2-1.3 1.1-.3-.4c-.3-.4-.2-.9.2-1.2h.1v-.1l-.9.7 1.6 2 .1-.1-.3-.5 2.9-2.4.2.3.1-.1-1.6-2zm28.8.8l-.5.6.1.1.1-.1c.1-.1.2-.1.3 0l.1.1.4.7-.6.6-1.1-.5.2-.3-.1-.1-.9 1 .1.1.1-.2 3.7 1.7-2-3.2c-.1-.2-.1-.3 0-.5h.1zm.5 1.4l.8 1.3-1.3-.7.5-.6zm-27.2.4l.2.3-2.3 3-.3-.2-.1.1 1.1.9.1-.1-.3-.2 1.1-1.4.9.7-1.1 1.4-.3-.2-.1.1 1.1.9.1-.1-.3-.2 2.3-3 .3.2.1-.1-1.1-.9-.1.1.3.2-1.2 1.5-.9-.7 1.2-1.5.3.2.1-.1-1.1-.9zm23.9.9c-.3 0-.5.1-.7.2-.4.3-.6.7-.7 1.1l.5.7-.2.2.1.1 1-.8-.1-.1-.3.2-.4-.5c-.3-.3-.2-.6.1-.8.3-.3.7-.3 1.8 1.1.7.9 1.1 1.7.6 2-.5.4-1.1 0-1.6-.5h-.1l.8 1h.1c-.1-.1-.1-.2 0-.2.1-.1.5 0 .9-.3.6-.5.6-1.6-.1-2.6-.5-.5-1.2-.8-1.7-.8zm-20.4 1.6l.3.3-1.8 3.3-.2-.1c-.5-.3-.4-.8-.2-1.4h-.1l-.6 1.1 2.5 1.3.6-1.1h-.1c-.4.5-.7.9-1.2.6l-.2-.1 1.8-3.3.4.2v-.1l-1.2-.7zm17.2.4c-.2 0-.3 0-.4.1-.7.3-.9 1.6-.4 2.5.5 1 1.4 1.6 2.2 1.2.8-.4.9-1.5.4-2.5-.4-.8-1.2-1.3-1.8-1.3zm-.2.1c.4 0 .7.5 1.2 1.5.8 1.6.6 1.9.3 2.1-.3.2-.7.1-1.5-1.5-.6-1.3-.7-1.8-.3-2.1h.3z" id="path4276_1_"/><g id="path4354_1_"><path d="M210.6 386.1c-5.9-2-10.2-7.5-10.2-14.1 0-8.2 6.7-14.9 14.9-14.9s14.9 6.7 14.9 14.9c0 6.4-4.1 11.9-9.8 14" fill="#fff"/><path class="st26" d="M210.3 386.8c-6.4-2.1-10.7-8.1-10.7-14.8 0-8.6 7-15.6 15.6-15.6s15.6 7 15.6 15.6c0 6.6-4.1 12.5-10.3 14.7l-.5-1.4c5.6-2 9.3-7.3 9.3-13.3 0-7.8-6.3-14.1-14.1-14.1s-14.1 6.3-14.1 14.1c0 6.1 3.9 11.5 9.7 13.4l-.5 1.4z"/></g><g id="path4336_1_"><path class="st26" d="M226.6 363.2l-11.4 8-11.4-8.2-2.6 4.8 10.7 7.3-.1 10 5.7.1.3-10 10.9-7.1-2.1-4.9z"/><path class="st26" d="M217.8 385.2l-5.9-.1.1-10-10.8-7.3 2.7-5 .1.1 11.3 8.2 11.5-8 2.3 5-10.9 7.1-.4 10zm-5.7-.3l5.4.1.3-10 10.9-7.1-2-4.5-11.4 7.9-11.3-8.2-2.4 4.6 10.7 7.3-.2 9.9z"/></g><g id="path4338_1_"><path class="st26" d="M212.1 386.7l4.8.1c.6 0 1.1-.1 1.4.3.2.3.2.5.2.9v2.2l-6.4-3.5z"/><path class="st26" d="M218.6 390.4l-6.4-3.6v-.1l4.8.1h.3c.4 0 .8 0 1.1.4.2.3.2.5.2.8v2.4zm-6.2-3.6l6 3.3v-2.2c0-.3 0-.5-.2-.7-.2-.3-.6-.3-1-.3h-.3l-4.5-.1z"/></g><path class="st24" d="M211 385.6h8.5v1H211z"/><path class="st26" d="M216.4 398.2l-4.5-.1c-.9 0-1.3-.5-1.7-.9-.4-.6-.5-1-.5-1.6v-7.9c0-.7-.1-1.5.6-2.2.6-.7 1.2-.9 2-.9h5.7c.7 0 1.4 0 2.1.7.6.6.7 1.3.7 2v4.3h-1v-4.3c0-.6 0-.9-.4-1.3-.3-.3-.6-.4-1.4-.4h-5.7c-.5 0-.8.2-1.3.6-.3.4-.3.7-.3 1.4v7.9c0 .4.1.7.3 1 .3.4.5.5.9.5l4.5.1v1.1z" id="path4340_1_"/><g transform="matrix(4.68879 0 0 -4.68879 13.342 1464.344)" id="g4342_1_"><defs><path id="SVGID_5_" d="M37.7 238.2h10.6v-11.7H37.7v11.7z"/></defs><clipPath id="SVGID_4_"><use xlink:href="#SVGID_5_" overflow="visible"/></clipPath><g id="g4344_1_" clip-path="url(#SVGID_4_)"><path class="st23" d="M42.3 229.6v-1.7c.2 0 .3 0 .4-.1.8-.4 1.3-1.2 2.2-1.3.4 0 .6 0 1 .2l.3 1.8c-.5-.3-.7-.1-1.3 0-.7.1-1 .6-1.6 1-.3.2-.5.2-.8.4-.2-.1-.2-.3-.2-.3" id="path4350_1_"/><path class="st26" d="M45.1 226.5h-.2c-.6.1-1 .4-1.4.7-.3.2-.5.4-.8.6-.1.1-.2.1-.3.1h-.1v1.7l.1.2c.3-.1.5-.2.8-.4.3-.1.5-.3.7-.5.3-.2.6-.5 1-.5.2 0 .3-.1.4-.1.3-.1.5-.1.9.1l-.3-1.8c-.3 0-.5-.1-.8-.1zm-2.8 1.4h.1c.1 0 .2 0 .3-.1.3-.1.6-.4.8-.6.4-.3.9-.7 1.4-.7.4 0 .6 0 1 .2l.3 1.8c-.4-.2-.6-.2-.9-.1-.1 0-.2.1-.4.1-.4.1-.7.3-1 .5-.2.2-.4.3-.7.5-.3.2-.5.2-.8.4-.1 0-.1-.2-.1-.2v-1.8z" id="path4352_1_"/></g></g><path class="st26" d="M214.6 397.1c-.4-.3-.8-.5-1.2-.7-.4-.2-.8-.3-1.2-.3-.2 0-.4 0-.6-.1h-.1v-8.1h.2v8h.5c.4 0 .8.1 1.3.3.4.2.8.4 1.2.7l-.1.2z" id="path4356_1_"/><path class="st24" d="M209.5 391.4c.8.5 1.5 1 2.1 1 .5 0 .9-.2 1-.6.1-.5-.4-1-.9-.9-.5.1-.7.3-1 .5-.4.2-.8 0-1.2 0" id="path4358_1_"/><path class="st26" d="M211.5 392.5c-.5 0-1-.3-1.7-.8-.1-.1-.3-.2-.4-.3v-.2h.5c.2 0 .4.1.7-.1.1 0 .1-.1.2-.1.3-.2.5-.3.9-.4.2 0 .5.1.7.3.2.2.3.5.3.8-.1.6-.5.8-1.2.8zm-1.6-1c0 .1 0 .1 0 0 .7.4 1.3.8 1.7.8.4 0 .8-.1.9-.6 0-.2-.1-.4-.2-.6-.2-.2-.4-.2-.5-.2-.4.1-.6.2-.8.4-.1 0-.1.1-.2.1-.4.2-.6.2-.9.1z" id="path4360_1_"/></g></svg>