<?xml version="1.0" encoding="utf-8"?>
<!-- Generator: Adobe Illustrator 21.0.0, SVG Export Plug-In . SVG Version: 6.00 Build 0)  -->
<svg version="1.1" id="Layer_1" xmlns="http://www.w3.org/2000/svg" xmlns:xlink="http://www.w3.org/1999/xlink" x="0px" y="0px"
	 viewBox="0 0 65.8 65.8" style="enable-background:new 0 0 65.8 65.8;" xml:space="preserve">
<style type="text/css">
	.st0{fill:#FFFFFF;stroke:#000000;stroke-miterlimit:10;}
	.st1{fill:#FFFFFF;stroke:#FFFFFF;stroke-miterlimit:10;}
	.st2{fill:none;stroke:#BE2026;stroke-width:2;stroke-miterlimit:10;}
	.st3{fill:#FFDEA7;}
	.st4{fill:#BE2026;}
	.st5{fill:#1C94D2;stroke:#FFFFFF;stroke-miterlimit:10;}
	.st6{fill:#FFFFFF;}
	.st7{fill:#00AFAD;stroke:#FFFFFF;stroke-miterlimit:10;}
	.st8{fill:#FFFFFF;stroke:#000000;stroke-width:0.25;stroke-miterlimit:10;}
	.st9{fill:#06884B;}
	.st10{fill:#BEC8CC;stroke:#FFFFFF;stroke-miterlimit:10;}
	.st11{clip-path:url(#SVGID_2_);}
	.st12{fill:#E22126;stroke:#FBE904;stroke-width:0.75;stroke-miterlimit:10;}
	.st13{fill:#191817;}
	.st14{fill:#FBE904;}
	.st15{fill:#E63229;}
	.st16{fill:#FEF16E;stroke:#FFFFFF;stroke-miterlimit:10;}
	.st17{fill:#1F4180;}
	.st18{fill:none;stroke:#E21E26;stroke-width:2;stroke-miterlimit:10;}
	.st19{fill:#E96F2B;}
	.st20{fill:#F29220;}
	.st21{fill:#EF8322;}
	.st22{fill:#EE3F80;}
	.st23{fill:#F1A847;}
	.st24{fill:#FDBA3A;}
	.st25{clip-path:url(#SVGID_4_);}
	.st26{fill:#383635;}
	.st27{clip-path:url(#SVGID_6_);}
	.st28{fill:#181A10;stroke:#FFFFFF;stroke-miterlimit:10;}
	.st29{fill:#EF4323;stroke:#FFFFFF;stroke-miterlimit:10;}
	.st30{fill:#BEDB86;stroke:#FFFFFF;stroke-miterlimit:10;}
	.st31{fill:#FFFFFF;stroke:#000000;stroke-width:0.5;stroke-miterlimit:10;}
	.st32{fill:#E38328;stroke:#FFFFFF;stroke-miterlimit:10;}
	.st33{fill:#020202;}
	.st34{fill:none;stroke:#FFFFFF;stroke-miterlimit:10;}
	.st35{fill:#BFDEF3;stroke:#FFFFFF;stroke-miterlimit:10;}
	.st36{fill:#994573;}
	.st37{fill:#F6F6F6;}
	.st38{fill:#8F4199;stroke:#FFFFFF;stroke-miterlimit:10;}
	.st39{fill:#175633;}
	.st40{fill:#984D2D;}
</style>
<circle class="st1" cx="32.9" cy="32.9" r="32.4"/>
<g id="layer1_1_" transform="translate(-182.14307,-339.03492)">
	<g id="path4264_1_">
		<path class="st23" d="M190.3,372.3c0-13.7,11.1-24.7,24.7-24.7c13.7,0,24.7,11.1,24.7,24.7S228.7,397,215,397
			C201.4,397,190.3,386,190.3,372.3"/>
	</g>
	<g>
		<rect x="210.9" y="396.3" class="st24" width="6.6" height="1.4"/>
	</g>
	<g id="g4266_1_" transform="matrix(4.6887895,0,0,-4.6887895,13.341961,1464.3444)">
		<g>
			<defs>
				<polygon id="SVGID_3_" points="37.7,238.2 48.3,238.2 48.3,226.5 37.7,226.5 37.7,238.2 				"/>
			</defs>
			<clipPath id="SVGID_2_">
				<use xlink:href="#SVGID_3_"  style="overflow:visible;"/>
			</clipPath>
			<g id="g4268_1_" class="st11">
				<g id="path4274_1_">
					<path class="st26" d="M43,227.6c-1.4,0-2.7,0.6-3.7,1.5c-1,1-1.5,2.3-1.5,3.7s0.6,2.7,1.5,3.7c1,1,2.3,1.5,3.7,1.5
						c1.4,0,2.7-0.6,3.7-1.5c1-1,1.5-2.3,1.5-3.7s-0.6-2.7-1.5-3.7C45.8,228.2,44.4,227.6,43,227.6z M43,238.2
						c-2.9,0-5.3-2.4-5.3-5.3c0-2.9,2.4-5.3,5.3-5.3c2.9,0,5.3,2.4,5.3,5.3C48.3,235.8,45.9,238.2,43,238.2z"/>
				</g>
			</g>
		</g>
	</g>
	<g id="path4276_1_">
		<path class="st26" d="M218.1,350.3c-0.8,0-1.4,1-1.6,2c-0.1,1,0.3,2.1,1.2,2.2c0.5,0.1,0.8-0.2,0.9-0.2c0.1,0,0.1,0.2,0.1,0.2
			l0.1,0l0.2-1.4l-0.1,0l-0.1,0.2c-0.1,0.4-0.5,1.1-1.1,1.1c-0.5-0.1-0.6-0.7-0.5-2c0.2-1.4,0.5-1.9,1-1.9c0.5,0.1,0.8,0.9,0.8,1.5
			l0.1,0l0.2-1.3l-0.1,0c0,0.1-0.1,0.2-0.2,0.1c-0.2,0-0.5-0.3-0.8-0.4C218.2,350.3,218.1,350.3,218.1,350.3z M213.6,350.3l-0.8,0.1
			l0,0.1l0.1,0c0.2,0,0.3,0,0.3,0.2c0,0.1,0,0.2,0,0.4l-0.3,1.6l-1-2l0.3,0l0-0.1l-1.4,0.2l0,0.1l0.3,0l1.2,2.4l0.2,1.3l-0.3,0
			l0,0.1l1.4-0.2l0-0.1l-0.3,0l-0.2-1.5l0.4-1.8c0.1-0.4,0.2-0.6,0.3-0.6L213.6,350.3L213.6,350.3L213.6,350.3z M208.9,351.1
			L208.9,351.1l0,3.8c0,0.2,0,0.3-0.2,0.4l-0.1,0l0,0.1l0.8-0.2l0-0.1l-0.1,0c-0.1,0-0.2,0-0.3-0.1c0-0.1,0-0.1,0-0.2l0-0.8l0.8-0.3
			l0.7,1l-0.3,0.1l0,0.1l1.3-0.4l0-0.1l-0.2,0.1L208.9,351.1z M221.7,351.2c-0.7,0-1.4,0.7-1.7,1.6c-0.3,1,0,2.2,0.8,2.4
			s1.7-0.6,2-1.6c0.3-1.1,0.1-2.2-0.8-2.4C221.9,351.2,221.8,351.2,221.7,351.2z M221.7,351.3c0.1,0,0.1,0,0.2,0
			c0.3,0.1,0.6,0.4,0.1,2.1c-0.4,1.4-0.7,1.8-1.2,1.7c-0.5-0.2-0.5-0.7-0.1-2.1C221.1,351.6,221.5,351.3,221.7,351.3z M206.7,351.7
			l-0.7,0.4l0,0.1l0,0c0.2-0.1,0.3,0,0.4,0c0,0.1,0.1,0.2,0.1,0.4l0.6,2l0,0l-1.9-2l0.3-0.2l0-0.1l-1.2,0.7l0.1,0.1l0.3-0.2l0.8,0.8
			l0.4,1.5l0,0l-1.9-1.9l0.2-0.1l-0.1-0.1l-1.1,0.7l0,0.1l0.3-0.1l2.9,2.9l0.1-0.1l-0.7-2.6l0,0l1.9,1.9l0.1-0.1l-0.9-3.4
			c-0.1-0.4,0-0.6,0.1-0.7L206.7,351.7L206.7,351.7L206.7,351.7z M224.3,352.1L224.3,352.1l0.3,0.3l-1.6,2.9
			c-0.1,0.2-0.3,0.4-0.5,0.3l0,0l0,0.1l0.8,0.4l0-0.1l-0.1,0c-0.2-0.1-0.3-0.2,0-0.6l1.5-2.8l0,0l-0.9,3.9l0.1,0.1l2.7-2.8l0,0
			l-1.8,3.2l-0.3-0.2l0,0.1l1.2,0.7l0-0.1l-0.3-0.2l1.8-3.3l0.3,0.2l0-0.1l-1-0.5l-2,2l0,0l0.7-2.7L224.3,352.1L224.3,352.1z
			 M208.9,352.4l0.8,1.2l-0.8,0.2L208.9,352.4L208.9,352.4L208.9,352.4z M228.7,354.8L228.7,354.8l0.2,0.3l-2.4,2.9l-0.3-0.2
			l-0.1,0.1l1.2,1l0.1-0.1l-0.3-0.3l1.1-1.3c0.1,0.1,0.2,0.2,0.4,0.3c0.5,0.4,1.2,0.4,1.7-0.1c0.4-0.5,0.4-1-0.2-1.6L228.7,354.8z
			 M201.6,354.9l-1.1,0.9l0.1,0.1l0.3-0.2l2.4,2.9l-0.3,0.2l0.1,0.1l2-1.7l-0.9-1l-0.1,0.1l0.1,0.1c0.4,0.5,0.6,1,0,1.5l-0.4,0.3
			l-2.4-2.9L201.6,354.9L201.6,354.9z M229.5,355.6l0.3,0.2c0.4,0.3,0.3,0.6-0.2,1.1c-0.4,0.5-0.8,0.6-1.2,0.3c0,0-0.1-0.1-0.1-0.1
			L229.5,355.6z M199.4,356.9l-0.9,1.1l0.1,0.1l0.2-0.3l2.8,2.5l-0.2,0.3l0.1,0.1l0.9-1.1l-0.1-0.1l-0.2,0.3l-2.8-2.5L199.4,356.9
			L199.4,356.9z M232,357.8l-3.4,1.6c-0.2,0.1-0.3,0.1-0.5,0l0,0l-0.1,0.1l0.5,0.6l0.1-0.1l-0.1-0.1c-0.1-0.1-0.1-0.2,0-0.3
			c0,0,0.1-0.1,0.1-0.1l0.7-0.4l0.6,0.7l-0.7,1l-0.2-0.3l-0.1,0.1l0.9,1l0.1-0.1l-0.1-0.2L232,357.8L232,357.8z M230.9,358.4
			L230.9,358.4l-0.8,1.2l-0.5-0.6L230.9,358.4z M233.5,359.9L233.5,359.9l0,0.2l-0.2,0.3l-2.6,1.6c-0.3,0.2-0.4,0.1-0.5,0l0,0l0,0
			l-0.1,0l0.4,0.7l0.1,0l0,0c-0.1-0.2-0.1-0.3,0.1-0.5l2.5-1.5l0,0l-1.9,3.6l0.1,0.2l3.1-1.9c0.1-0.1,0.3-0.1,0.4,0.1l0,0.1l0.1-0.1
			l-0.4-0.7l-0.1,0.1l0,0.1c0.1,0.2,0.1,0.3-0.1,0.4l-2,1.2l0,0l1.5-2.9L233.5,359.9L233.5,359.9z M196.6,360.2L196.6,360.2l2.5,2.9
			c0.1,0.1,0.2,0.3,0.1,0.4l0,0l0.1,0.1l0.4-0.7l-0.1-0.1l-0.1,0.1c0,0.1-0.1,0.2-0.3,0.1c-0.1,0-0.1-0.1-0.1-0.1l-0.6-0.6l0.5-0.7
			l1.2,0.3l-0.2,0.3l0.1,0.1l0.7-1.1l-0.1-0.1l-0.1,0.2L196.6,360.2z M197.5,361.2l1.4,0.4l-0.4,0.7L197.5,361.2L197.5,361.2z
			 M195.6,363.2c-0.5,0-0.8,0.6-0.9,0.9l-0.5,1.3l0.1,0l0.1-0.3l3.5,1.3l-0.1,0.3l0.1,0l0.5-1.3l-0.1,0l-0.1,0.4l-1.8-0.7l0.1-0.2
			c0.2-0.4,0.4-0.5,1.2-0.2c0.6,0.2,1,0.3,1.2-0.2c0.1-0.2,0.1-0.4,0-0.6l-0.1,0c0,0.1,0,0.1,0,0.2c-0.1,0.2-0.2,0.2-1-0.1
			c-0.6-0.2-1,0-1.3,0.6l0,0c0.1-0.4,0.1-1.1-0.5-1.3C195.9,363.2,195.7,363.2,195.6,363.2L195.6,363.2z M235.4,363.3L235.4,363.3
			l0,0.3l-2,1.7l-1.2,0.5l-0.1-0.3l-0.1,0l0.5,1.3l0.1,0l-0.1-0.3l1.4-0.5l1.8,0c0.4,0,0.6,0,0.6,0.2l0,0l0.1,0l-0.3-0.8l-0.1,0
			l0,0.1c0.1,0.2,0,0.3-0.1,0.3c-0.1,0-0.2,0-0.4,0.1l-1.6,0l1.7-1.5l0.1,0.3l0.1,0L235.4,363.3L235.4,363.3z M195.1,363.8
			c0.1,0,0.3,0,0.5,0.1c0.7,0.2,0.8,0.5,0.7,0.9l-0.1,0.2l-1.6-0.6l0.1-0.3C194.8,364,194.9,363.8,195.1,363.8z M235.3,368.9
			c-0.4,0-0.6,0.2-0.6,0.4c0,0.4,0.5,0.7,0.9,0.7c0.2,0,0.3-0.1,0.5-0.1l0,0.3c-0.3-0.1-1.4-0.2-2.4-0.3c-0.5-0.1-0.8-0.1-0.8-0.4h0
			c0,0.1,0.1,0.2,0.3,0.2c0.1,0,0.3-0.1,0.3-0.2c0-0.1-0.1-0.2-0.3-0.2c-0.2,0-0.3,0.2-0.3,0.3c0,0.6,1.7,1,2.1,1l1.2,0.2l0,0.3
			l0.1,0l0-0.3c0.2,0,0.3,0.1,0.5,0.1c0.7,0.1,0.9,0.3,0.9,0.5h0c-0.1-0.1-0.1-0.2-0.3-0.2c-0.2,0-0.3,0.1-0.3,0.2
			c0,0.1,0.1,0.2,0.3,0.2c0.2,0,0.3-0.2,0.3-0.3c0-0.4-0.8-0.9-1.5-1.1l0-0.3l-0.1,0c0.1-0.1,0.1-0.2,0.1-0.3
			C236.3,369.3,235.9,368.9,235.3,368.9L235.3,368.9z M235,369.2c0.2,0,0.6,0.1,0.9,0.2c0.1,0,0.3,0.1,0.3,0.2
			c0,0.1-0.1,0.2-0.2,0.2c-0.1,0-0.8-0.1-0.9-0.2c-0.1,0-0.3-0.1-0.3-0.2C234.8,369.3,234.9,369.2,235,369.2z M193.2,369.6l-0.2,2.8
			l1.2,0.1l0-0.1c-0.6-0.1-1.1-0.3-1.1-0.9l0-0.2l3.8,0.2l0,0.4l0.1,0l0.1-1.5l-0.1,0l0,0.4l-3.8-0.2l0-0.2c0-0.6,0.6-0.7,1.2-0.7
			l0-0.1L193.2,369.6z M197,372.5l-1.4,0.1l0,0.1l0.1,0c0.7,0,1.1,0.1,1.2,0.9l0,0.5l-3.8,0.2l0-0.4l-0.1,0l0.1,1.5l0.1,0l0-0.4
			l3.8-0.2l0,0.4l0.1,0L197,372.5z M234.9,373.2c-0.9,0-1.7,0.4-1.8,1.2c-0.1,0.5,0.2,0.8,0.2,0.9c0,0.1-0.2,0.1-0.3,0.1l0,0.1
			l1.4,0.2l0-0.1l-0.2-0.1c-0.4-0.1-1.1-0.6-1-1.1c0.1-0.5,0.7-0.6,2.1-0.4c1.4,0.2,1.9,0.5,1.9,1c-0.1,0.5-0.9,0.8-1.5,0.8l0,0.1
			l1.3,0.2l0-0.1c-0.1,0-0.2-0.1-0.1-0.2c0-0.2,0.4-0.5,0.4-0.8c0.1-0.9-0.9-1.6-1.9-1.8C235.2,373.2,235.1,373.2,234.9,373.2z
			 M197.3,375.5l-1.2,0.3l0,0.1l0.1,0c0.3-0.1,1.1-0.2,1.3,0.6l0.2,0.6l-1.9,0.5l-0.1-0.3c-0.1-0.3,0.2-0.5,0.6-0.6l0.1,0l0-0.1
			l-1.7,0.4l0,0.1l0.1,0c0.5-0.1,0.8,0,0.8,0.3l0.1,0.3l-1.7,0.4l-0.1-0.5c-0.1-0.5,0.2-0.9,0.7-1l0.1,0l0-0.1l-1.1,0.3l0.6,2.4
			l0.1,0l-0.1-0.4l3.7-0.9l0.1,0.4l0.1,0L197.3,375.5z M233,376l-0.4,1.4l0.1,0l0.1-0.3l1.9,0.5l-0.3,1.1l-1.9-0.5l0.1-0.4l-0.1,0
			l-0.4,1.4l0.1,0l0.1-0.4l3.6,1l-0.1,0.4l0.1,0l0.4-1.4l-0.1,0l-0.1,0.4l-1.7-0.5l0.3-1.1l1.7,0.5l-0.1,0.3l0.1,0l0.4-1.4l-0.1,0
			l-0.1,0.3l-3.6-1L233,376L233,376z M197.6,378.6c-0.1,0-0.3,0-0.4,0.1c-0.6,0.3-0.8,0.9-0.5,1.4l0,0c-0.2-0.4-0.6-0.7-1.2-0.5
			c-0.6,0.3-0.6,0.9-0.5,1.3l0.6,1.3l0.1,0l-0.1-0.3l3.5-1.5l0.1,0.3l0.1,0l-0.5-1.3C198.4,378.9,198,378.6,197.6,378.6z
			 M198.1,379.3c0.3,0,0.5,0.1,0.6,0.4l0.1,0.2l-1.8,0.8l-0.1-0.3c-0.2-0.4,0.1-0.7,0.6-1C197.7,379.3,197.9,379.3,198.1,379.3z
			 M231.8,379.5l-0.6,1.3l0.1,0l0.2-0.3l3.4,1.6l-0.2,0.3l0.1,0l0.6-1.3l-0.1,0l-0.2,0.3l-3.4-1.6L231.8,379.5L231.8,379.5z
			 M196.2,380.1c0.3,0,0.4,0.1,0.5,0.3l0.1,0.2l-1.6,0.7l-0.1-0.2c-0.1-0.4,0-0.6,0.6-0.9C196,380.2,196.1,380.1,196.2,380.1z
			 M231.4,381.5c-0.4,0-0.8,0.2-1.1,0.6c-0.3,0.5-0.1,0.8-0.2,0.9c-0.1,0.1-0.2,0-0.3,0l0,0.1l1.2,0.7l0-0.1l-0.1-0.1
			c-0.4-0.3-0.8-1-0.5-1.5c0.3-0.4,0.9-0.3,2.1,0.4c1.2,0.8,1.5,1.3,1.3,1.7c-0.3,0.4-1.1,0.3-1.7,0.1l0,0.1l1.1,0.7l0-0.1
			c-0.1-0.1-0.1-0.1-0.1-0.2c0.1-0.2,0.5-0.3,0.7-0.5c0.5-0.8-0.2-1.9-1-2.4C232.4,381.6,231.9,381.5,231.4,381.5z M200.6,382.8
			l-1,0.8l0,0.1l0.1,0c0.2-0.2,0.9-0.6,1.4,0l0.4,0.5l-1.5,1.2l-0.2-0.2c-0.2-0.2,0-0.6,0.3-0.8l0.1-0.1l-0.1-0.1l-1.4,1.1l0,0.1
			l0,0c0.4-0.3,0.7-0.4,0.9-0.1l0.2,0.2l-1.3,1.1l-0.3-0.4c-0.3-0.4-0.2-0.9,0.2-1.2l0.1,0l0-0.1l-0.9,0.7l1.6,2l0.1-0.1L199,387
			l2.9-2.4l0.2,0.3l0.1-0.1L200.6,382.8z M229.4,383.6l-0.5,0.6l0.1,0.1l0.1-0.1c0.1-0.1,0.2-0.1,0.3,0c0,0,0.1,0.1,0.1,0.1l0.4,0.7
			l-0.6,0.6l-1.1-0.5l0.2-0.3l-0.1-0.1l-0.9,1l0.1,0.1l0.1-0.2l3.7,1.7l0,0l-2-3.2c-0.1-0.2-0.1-0.3,0-0.5L229.4,383.6L229.4,383.6z
			 M229.9,385l0.8,1.3l0,0l-1.3-0.7L229.9,385z M202.7,385.4L202.7,385.4l0.2,0.3l-2.3,3l-0.3-0.2l-0.1,0.1l1.1,0.9l0.1-0.1
			l-0.3-0.2l1.1-1.4l0.9,0.7l-1.1,1.4l-0.3-0.2l-0.1,0.1l1.1,0.9l0.1-0.1l-0.3-0.2l2.3-3l0.3,0.2l0.1-0.1l-1.1-0.9l-0.1,0.1l0.3,0.2
			l-1.2,1.5l-0.9-0.7l1.2-1.5l0.3,0.2l0.1-0.1L202.7,385.4z M226.6,386.3c-0.3,0-0.5,0.1-0.7,0.2c-0.4,0.3-0.6,0.7-0.7,1.1l0.5,0.7
			l-0.2,0.2l0.1,0.1l1-0.8l-0.1-0.1l-0.3,0.2l-0.4-0.5c-0.3-0.3-0.2-0.6,0.1-0.8c0.3-0.3,0.7-0.3,1.8,1.1c0.7,0.9,1.1,1.7,0.6,2
			c-0.5,0.4-1.1,0-1.6-0.5l-0.1,0l0.8,1l0.1,0c-0.1-0.1-0.1-0.2,0-0.2c0.1-0.1,0.5,0,0.9-0.3c0.6-0.5,0.6-1.6-0.1-2.6
			C227.8,386.6,227.1,386.3,226.6,386.3z M206.2,387.9L206.2,387.9l0.3,0.3l-1.8,3.3l-0.2-0.1c-0.5-0.3-0.4-0.8-0.2-1.4l-0.1,0
			l-0.6,1.1l2.5,1.3l0.6-1.1l-0.1,0c-0.4,0.5-0.7,0.9-1.2,0.6l-0.2-0.1l1.8-3.3l0.4,0.2l0-0.1L206.2,387.9z M223.4,388.3
			c-0.2,0-0.3,0-0.4,0.1c-0.7,0.3-0.9,1.6-0.4,2.5c0.5,1,1.4,1.6,2.2,1.2c0.8-0.4,0.9-1.5,0.4-2.5
			C224.8,388.8,224,388.3,223.4,388.3z M223.2,388.4c0.4,0,0.7,0.5,1.2,1.5c0.8,1.6,0.6,1.9,0.3,2.1c-0.3,0.2-0.7,0.1-1.5-1.5
			c-0.6-1.3-0.7-1.8-0.3-2.1C223.1,388.4,223.1,388.4,223.2,388.4z"/>
	</g>
	<g id="path4354_1_">
		<path class="st6" d="M210.6,386.1c-5.9-2-10.2-7.5-10.2-14.1c0-8.2,6.7-14.9,14.9-14.9s14.9,6.7,14.9,14.9c0,6.4-4.1,11.9-9.8,14"
			/>
		<path class="st26" d="M210.3,386.8c-6.4-2.1-10.7-8.1-10.7-14.8c0-8.6,7-15.6,15.6-15.6c8.6,0,15.6,7,15.6,15.6
			c0,6.6-4.1,12.5-10.3,14.7l-0.5-1.4c5.6-2,9.3-7.3,9.3-13.3c0-7.8-6.3-14.1-14.1-14.1c-7.8,0-14.1,6.3-14.1,14.1
			c0,6.1,3.9,11.5,9.7,13.4L210.3,386.8z"/>
	</g>
	<g id="path4336_1_">
		<path class="st26" d="M226.6,363.2l-11.4,8l-11.4-8.2l-2.6,4.8l10.7,7.3l-0.1,10l5.7,0.1l0.3-10l10.9-7.1L226.6,363.2L226.6,363.2
			z"/>
		<path class="st26" d="M217.8,385.2l-5.9-0.1l0.1-10l-10.8-7.3l2.7-5l0.1,0.1l11.3,8.2l11.5-8l2.3,5l-10.9,7.1L217.8,385.2z
			 M212.1,384.9l5.4,0.1l0.3-10l10.9-7.1l-2-4.5l-11.4,7.9l-11.3-8.2l-2.4,4.6l10.7,7.3L212.1,384.9z"/>
	</g>
	<g id="path4338_1_">
		<path class="st26" d="M212.1,386.7l4.8,0.1c0.6,0,1.1-0.1,1.4,0.3c0.2,0.3,0.2,0.5,0.2,0.9v2.2L212.1,386.7L212.1,386.7z"/>
		<path class="st26" d="M218.6,390.4l-6.4-3.6l0-0.1l4.8,0.1c0.1,0,0.2,0,0.3,0c0.4,0,0.8,0,1.1,0.4c0.2,0.3,0.2,0.5,0.2,0.8l0,0.1
			V390.4z M212.4,386.8l6,3.3l0-2.2c0-0.3,0-0.5-0.2-0.7c-0.2-0.3-0.6-0.3-1-0.3c-0.1,0-0.2,0-0.3,0L212.4,386.8z"/>
	</g>
	<g>
		<rect x="211" y="385.6" class="st24" width="8.5" height="1"/>
	</g>
	<g id="path4340_1_">
		<path class="st26" d="M216.4,398.2l-4.5-0.1c-0.9,0-1.3-0.5-1.7-0.9c-0.4-0.6-0.5-1-0.5-1.6v-7.4c0-0.2,0-0.3,0-0.5
			c0-0.7-0.1-1.5,0.6-2.2c0.6-0.7,1.2-0.9,2-0.9h5.7c0.7,0,1.4,0,2.1,0.7c0.6,0.6,0.7,1.3,0.7,2l0,4.3l-1,0l0-4.3
			c0-0.6,0-0.9-0.4-1.3c-0.3-0.3-0.6-0.4-1.4-0.4h-5.7c-0.5,0-0.8,0.2-1.3,0.6c-0.3,0.4-0.3,0.7-0.3,1.4c0,0.2,0,0.4,0,0.5v7.4
			c0,0.4,0.1,0.7,0.3,1c0.3,0.4,0.5,0.5,0.9,0.5l4.5,0.1L216.4,398.2z"/>
	</g>
	<g id="g4342_1_" transform="matrix(4.6887895,0,0,-4.6887895,13.341961,1464.3444)">
		<g>
			<defs>
				<polygon id="SVGID_5_" points="37.7,238.2 48.3,238.2 48.3,226.5 37.7,226.5 37.7,238.2 				"/>
			</defs>
			<clipPath id="SVGID_4_">
				<use xlink:href="#SVGID_5_"  style="overflow:visible;"/>
			</clipPath>
			<g id="g4344_1_" class="st25">
				<g id="path4350_1_">
					<path class="st23" d="M42.3,229.6v-1.7c0.2,0,0.3,0,0.4-0.1c0.8-0.4,1.3-1.2,2.2-1.3c0.4,0,0.6,0,1,0.2l0.3,1.8
						c-0.5-0.3-0.7-0.1-1.3,0c-0.7,0.1-1,0.6-1.6,1c-0.3,0.2-0.5,0.2-0.8,0.4C42.3,229.8,42.3,229.6,42.3,229.6"/>
				</g>
				<g id="path4352_1_">
					<path class="st26" d="M45.1,226.5c-0.1,0-0.1,0-0.2,0c-0.6,0.1-1,0.4-1.4,0.7c-0.3,0.2-0.5,0.4-0.8,0.6
						c-0.1,0.1-0.2,0.1-0.3,0.1c0,0-0.1,0-0.1,0l0,0l0,1.7c0,0,0.1,0.2,0.1,0.2l0,0l0,0c0.3-0.1,0.5-0.2,0.8-0.4
						c0.3-0.1,0.5-0.3,0.7-0.5c0.3-0.2,0.6-0.5,1-0.5c0.2,0,0.3-0.1,0.4-0.1c0.3-0.1,0.5-0.1,0.9,0.1l0,0l0,0l-0.3-1.8l0,0
						C45.6,226.6,45.4,226.5,45.1,226.5z M42.3,227.9c0,0,0.1,0,0.1,0c0.1,0,0.2,0,0.3-0.1c0.3-0.1,0.6-0.4,0.8-0.6
						c0.4-0.3,0.9-0.7,1.4-0.7c0.4,0,0.6,0,1,0.2l0.3,1.8c-0.4-0.2-0.6-0.2-0.9-0.1c-0.1,0-0.2,0.1-0.4,0.1c-0.4,0.1-0.7,0.3-1,0.5
						c-0.2,0.2-0.4,0.3-0.7,0.5c-0.3,0.2-0.5,0.2-0.8,0.4c-0.1,0-0.1-0.2-0.1-0.2V227.9z"/>
				</g>
			</g>
		</g>
	</g>
	<g id="path4356_1_">
		<path class="st26" d="M214.6,397.1c-0.4-0.3-0.8-0.5-1.2-0.7c-0.4-0.2-0.8-0.3-1.2-0.3c-0.2,0-0.4,0-0.6-0.1l-0.1,0v-8.1h0.2v8
			c0.2,0,0.4,0,0.5,0c0.4,0,0.8,0.1,1.3,0.3c0.4,0.2,0.8,0.4,1.2,0.7L214.6,397.1z"/>
	</g>
	<g id="path4358_1_">
		<path class="st24" d="M209.5,391.4c0.8,0.5,1.5,1,2.1,1c0.5,0,0.9-0.2,1-0.6c0.1-0.5-0.4-1-0.9-0.9c-0.5,0.1-0.7,0.3-1,0.5
			C210.3,391.6,209.9,391.4,209.5,391.4"/>
	</g>
	<g id="path4360_1_">
		<path class="st26" d="M211.5,392.5c-0.5,0-1-0.3-1.7-0.8c-0.1-0.1-0.3-0.2-0.4-0.3l0-0.2c0.2,0,0.3,0,0.5,0c0.2,0,0.4,0.1,0.7-0.1
			c0.1,0,0.1-0.1,0.2-0.1c0.3-0.2,0.5-0.3,0.9-0.4c0.2,0,0.5,0.1,0.7,0.3c0.2,0.2,0.3,0.5,0.3,0.8
			C212.6,392.3,212.2,392.5,211.5,392.5z M209.9,391.5C209.9,391.6,209.9,391.6,209.9,391.5c0.7,0.4,1.3,0.8,1.7,0.8
			c0.4,0,0.8-0.1,0.9-0.6c0-0.2-0.1-0.4-0.2-0.6c-0.2-0.2-0.4-0.2-0.5-0.2c-0.4,0.1-0.6,0.2-0.8,0.4c-0.1,0-0.1,0.1-0.2,0.1
			C210.4,391.6,210.2,391.6,209.9,391.5C209.9,391.5,209.9,391.5,209.9,391.5z"/>
	</g>
</g>
</svg>
