<svg xmlns="http://www.w3.org/2000/svg" viewBox="0 0 65.8 65.8"><style/><circle cx="32.9" cy="32.9" r="32.4" fill="#181a10" stroke="#fff" stroke-miterlimit="10"/><path d="M10.5 20.1l3.3 2.4c.5.5.7 1.2.7 2.1V30c0 .7-.3 1.3-.8 1.8.5.6.8 1.2.8 1.9V42c0 1.2-1.3 2.4-4 3.4h-.2c-.1 0-.1 0-.1-.1s0-.1.2-.3c.2-.1.3-.2.3-.4V21c0-.2-.1-.3-.3-.5-.1-.1-.1-.2-.1-.3h.1l.1-.1zm1.5 3v8h.4c.6 0 .9-.3.9-1V25c0-.8-.2-1.2-.6-1.4l-.7-.5zm0 9.6v10.8c.9-.4 1.3-.9 1.3-1.4v-8.2c0-.8-.3-1.1-1-1.1l-.3-.1zm4-8.9c1.5.8 2.8 1.5 4.1 2v1.6c0 .2-.1.2-.2.2s-.2-.2-.4-.5l-1.9-1v5h.9c.2 0 .3-.1.3-.4.1-.1.2-.1.3-.1.1 0 .1 0 .2.1V33c0 .1-.1.1-.2.1s-.2 0-.3-.1c0-.3-.1-.4-.3-.4h-.8V41l1.8-.6c.2-.4.3-.6.4-.6.1 0 .1.1.2.3v1.4l-4 1.5c-.1 0-.2-.1-.2-.2v-.2c.2-.2.3-.4.3-.6V25c0-.4-.1-.7-.4-.9v-.2c0-.1 0-.1.1-.1h.1zm7.4 3c.5 0 .9.1 1.4.3.1-.2.2-.3.3-.3.1 0 .2.2.3.6V29c0 .2-.1.2-.2.2s-.3-.2-.4-.5c-.1-.3-.5-.4-1.3-.4-.6.1-.8.4-.8.8v1c0 .6.6 1.8 1.9 3.4.7.9 1.1 1.9 1.1 2.9v2c0 1.1-.5 1.9-1.6 2.4-.5.3-1.2.4-2.3.4-.2.3-.3.4-.4.4-.1 0-.1-.1-.2-.3v-1.6c0-.3.1-.5.3-.5.1 0 .2.1.3.3.1 0 .3.1.5.1s.4 0 .6-.1c.8-.1 1.2-.5 1.3-1.3v-2c0-.6-.2-1.2-.6-1.7-1.6-2.2-2.4-3.7-2.4-4.4V29c0-1.5.6-2.2 2-2.2h.2zm6.9-6.3h5c1.3 0 2 .4 2.2 1.2v3.4c-1.8.3-2.8.6-3.1 1.1-.3.8-.4 1.8-.4 3.1v.4c0 3.3.3 7 .8 11.1 0 .9.5 1.5 1.4 1.8l7.3 1.8v1.4h-21v-1.4l7.2-1.8c.9-.2 1.3-.8 1.6-1.7.4-4.3.6-8 .6-11.2 0-1.4-.2-2.5-.6-3.4-.3-.6-1.3-.9-3.1-1.2v-3.4c.1-.8.8-1.2 2.1-1.2zm-2 7.4c.4 0 .8.1 1.2.2.1 0 .3-.1.4-.2h.1c.1 0 .1 0 .2.1v1.6c0 .1-.1.1-.2.1h-.1c-.4-.3-.8-.6-1.2-.6-.7.1-1 .5-1 1.2 0 .5.3 1.1.9 1.9 1.2 1.5 1.9 2.8 1.9 4v1.6c0 .7-.3 1.2-.8 1.7-.6.4-1.2.6-1.9.6-.6 0-1 .1-1.1.3h-.1c-.1 0-.1 0-.2-.1v-1.7c0-.1.1-.1.2-.1 0 0 .1 0 .2.1.2.2.5.3.9.3 1 0 1.6-.5 1.6-1.6 0-1.4-.3-2.5-1-3.2-1.2-1.7-1.9-2.7-1.9-3V30c0-1 .5-1.6 1.4-2 .1 0 .2-.1.5-.1zm10.6-.5v1.5c0 .3-.1.4-.2.4h-.1c-.1 0-.1-.1-.2-.2 0-.1-.1-.1-.2-.1l-1.5.2v2.5h.7c.2 0 .3-.1.3-.4.1 0 .2-.1.3-.1.1 0 .2 0 .2.1v2.2s-.1.1-.2.1-.2 0-.3-.1c0-.2-.1-.3-.3-.3h-.7v5.6l1.5.1c.2 0 .3-.1.3-.3.1-.1.1-.1.2-.1s.2.1.2.3v1.5c0 .1-.1.2-.2.2l-3.6-.5c-.1 0-.1 0-.1-.1 0 0 0-.1.1-.1.3-.1.4-.3.4-.5V28.7c0-.3-.2-.4-.5-.5-.1-.1-.1-.1-.1-.2s0-.1.1-.2l3.9-.4zm6.4-1.9c.1 0 .1 0 .1.1 0 0 0 .1-.1.2 0 0-.1.1-.3.2-.1.1-.2.2-.2.3v.1l.2 14.3c0 .2.1.3.4.5v.1c0 .1 0 .1-.2.1l-2-.4c-.1-.1-.1-.1-.1-.2s0-.1.1-.1c.3 0 .4-.2.4-.5v-8.8l-1.1 3.9-1.2-3.3v7.8c0 .3.1.5.4.6 0 .1.1.2.1.2 0 .1 0 .1-.1.1h-.1l-1.9-.3c-.1 0-.2-.1-.2-.2v-.1c.3 0 .4-.2.4-.6l-.1-11.7c-.1-.2-.2-.3-.3-.3l-.1-.1s0-.1.1-.1l1.8-.4 1.2 3.6 1.2-4.4 1.6-.6zm4.6-2.2c.1 0 .2 0 .2.1v1.8c0 .2-.1.2-.2.2h-.1l-.2-.2h-.1l-1.7.6v5h.8c.2 0 .3-.1.3-.4.1-.1.2-.1.3-.1.1 0 .1 0 .2.1v2.2c-.1.1-.2.1-.2.1-.1 0-.1 0-.2-.1 0-.3-.1-.4-.3-.4h-.8v8.2c.1.2.7.4 1.7.6.2 0 .3-.1.4-.3l.1-.1c.1 0 .1.1.2.3v1.5c0 .1 0 .2-.1.2h-.1l-4.1-1c-.1-.1-.1-.1-.1-.2v-.1c.2 0 .3-.2.4-.4v-15c0-.2 0-.3-.1-.3s-.2 0-.3-.1l-.1-.1v-.1l4.1-2zm4.4-3.1c.1 0 .2-.1.3-.1.2 0 .3.1.3.3v.2l.1 9.1c-.1.9-.3 1.5-.8 1.8.5.6.8 1.2.8 1.9V44c0 .3.2.6.5.8.1 0 .1.1.1.2s0 .1-.1.1l-2.2-.9c-.1-.1-.1-.1-.1-.2 0 0 0-.1.1-.1.2 0 .3-.1.3-.3V33.4c-.1-.7-.5-1.1-1.1-1.1v10.9c0 .2.1.3.3.4l.2.2v.1c0 .1 0 .1-.1.1l-2.1-.9c-.1 0-.1-.1-.1-.1s0-.1.1-.1c.2 0 .3-.1.4-.3l-.1-19.1c0-.2-.1-.3-.3-.3h-.1c-.1 0-.1 0-.1-.1 0 0 0-.1.1-.2 1.4-1 2.7-1.9 3.6-2.7zm-1.9 3.2v7.5c.5 0 .9-.3 1-1V23c0-.1 0-.2-.1-.2h-.1l-.8.6z" fill="#fff"/></svg>