<?xml version="1.0" encoding="utf-8"?>
<!-- Generator: Adobe Illustrator 21.0.0, SVG Export Plug-In . SVG Version: 6.00 Build 0)  -->
<svg version="1.1" id="Layer_1" xmlns="http://www.w3.org/2000/svg" xmlns:xlink="http://www.w3.org/1999/xlink" x="0px" y="0px"
	 viewBox="0 0 65.8 65.8" style="enable-background:new 0 0 65.8 65.8;" xml:space="preserve">
<style type="text/css">
	.st0{fill:#FFFFFF;stroke:#000000;stroke-miterlimit:10;}
	.st1{fill:#FFFFFF;stroke:#FFFFFF;stroke-miterlimit:10;}
	.st2{fill:none;stroke:#BE2026;stroke-width:2;stroke-miterlimit:10;}
	.st3{fill:#FFDEA7;}
	.st4{fill:#BE2026;}
	.st5{fill:#1C94D2;stroke:#FFFFFF;stroke-miterlimit:10;}
	.st6{fill:#FFFFFF;}
	.st7{fill:#00AFAD;stroke:#FFFFFF;stroke-miterlimit:10;}
	.st8{fill:#FFFFFF;stroke:#000000;stroke-width:0.25;stroke-miterlimit:10;}
	.st9{fill:#06884B;}
	.st10{fill:#BEC8CC;stroke:#FFFFFF;stroke-miterlimit:10;}
	.st11{clip-path:url(#SVGID_2_);}
	.st12{fill:#E22126;stroke:#FBE904;stroke-width:0.75;stroke-miterlimit:10;}
	.st13{fill:#191817;}
	.st14{fill:#FBE904;}
	.st15{fill:#E63229;}
	.st16{fill:#FEF16E;stroke:#FFFFFF;stroke-miterlimit:10;}
	.st17{fill:#1F4180;}
	.st18{fill:none;stroke:#E21E26;stroke-width:2;stroke-miterlimit:10;}
	.st19{fill:#E96F2B;}
	.st20{fill:#F29220;}
	.st21{fill:#EF8322;}
	.st22{fill:#EE3F80;}
	.st23{fill:#F1A847;}
	.st24{fill:#FDBA3A;}
	.st25{clip-path:url(#SVGID_4_);}
	.st26{fill:#383635;}
	.st27{clip-path:url(#SVGID_6_);}
	.st28{fill:#181A10;stroke:#FFFFFF;stroke-miterlimit:10;}
	.st29{fill:#EF4323;stroke:#FFFFFF;stroke-miterlimit:10;}
	.st30{fill:#BEDB86;stroke:#FFFFFF;stroke-miterlimit:10;}
	.st31{fill:#FFFFFF;stroke:#000000;stroke-width:0.5;stroke-miterlimit:10;}
	.st32{fill:#E38328;stroke:#FFFFFF;stroke-miterlimit:10;}
	.st33{fill:#020202;}
	.st34{fill:none;stroke:#FFFFFF;stroke-miterlimit:10;}
	.st35{fill:#BFDEF3;stroke:#FFFFFF;stroke-miterlimit:10;}
	.st36{fill:#994573;}
	.st37{fill:#F6F6F6;}
	.st38{fill:#8F4199;stroke:#FFFFFF;stroke-miterlimit:10;}
	.st39{fill:#175633;}
	.st40{fill:#984D2D;}
</style>
<circle class="st28" cx="32.9" cy="32.9" r="32.4"/>
<g>
	<path class="st6" d="M10.5,20.1l3.3,2.4c0.5,0.5,0.7,1.2,0.7,2.1V30v0c0,0.7-0.3,1.3-0.8,1.8c0.5,0.6,0.8,1.2,0.8,1.9V42
		c0,1.2-1.3,2.4-4,3.4c-0.1,0-0.2,0-0.2,0c-0.1,0-0.1,0-0.1-0.1s0-0.1,0.2-0.3c0.2-0.1,0.3-0.2,0.3-0.4V21c0-0.2-0.1-0.3-0.3-0.5
		c-0.1-0.1-0.1-0.2-0.1-0.3v0c0,0,0.1,0,0.1,0L10.5,20.1z M12,23.1v4v4h0.4c0.6,0,0.9-0.3,0.9-1V25c0-0.8-0.2-1.2-0.6-1.4L12,23.1z
		 M12,32.7v10.8c0.9-0.4,1.3-0.9,1.3-1.4v-8.2c0-0.8-0.3-1.1-1-1.1L12,32.7L12,32.7z M16,23.8c1.5,0.8,2.8,1.5,4.1,2v1.6
		c0,0.2-0.1,0.2-0.2,0.2c-0.1,0-0.2-0.2-0.4-0.5l-1.9-1v5h0.9c0.2,0,0.3-0.1,0.3-0.4v0c0.1-0.1,0.2-0.1,0.3-0.1c0.1,0,0.1,0,0.2,0.1
		V33c0,0.1-0.1,0.1-0.2,0.1s-0.2,0-0.3-0.1c0-0.3-0.1-0.4-0.3-0.4h-0.8V41h0l1.8-0.6c0.2-0.4,0.3-0.6,0.4-0.6c0.1,0,0.1,0.1,0.2,0.3
		v1.4l-4,1.5c-0.1,0-0.2-0.1-0.2-0.2c0,0,0-0.1,0-0.2c0.2-0.2,0.3-0.4,0.3-0.6V25c0-0.4-0.1-0.7-0.4-0.9c0-0.1,0-0.1,0-0.2
		s0-0.1,0.1-0.1C15.9,23.8,15.9,23.8,16,23.8z M23.4,26.8c0.5,0,0.9,0.1,1.4,0.3c0.1-0.2,0.2-0.3,0.3-0.3c0.1,0,0.2,0.2,0.3,0.6V29
		c0,0.2-0.1,0.2-0.2,0.2c-0.1,0-0.3-0.2-0.4-0.5c-0.1-0.3-0.5-0.4-1.3-0.4c-0.6,0.1-0.8,0.4-0.8,0.8v1c0,0.6,0.6,1.8,1.9,3.4
		c0.7,0.9,1.1,1.9,1.1,2.9v2c0,1.1-0.5,1.9-1.6,2.4c-0.5,0.3-1.2,0.4-2.3,0.4c-0.2,0.3-0.3,0.4-0.4,0.4c-0.1,0-0.1-0.1-0.2-0.3v-1.6
		c0-0.3,0.1-0.5,0.3-0.5c0.1,0,0.2,0.1,0.3,0.3c0.1,0,0.3,0.1,0.5,0.1c0.2,0,0.4,0,0.6-0.1c0.8-0.1,1.2-0.5,1.3-1.3v-2
		c0-0.6-0.2-1.2-0.6-1.7c-1.6-2.2-2.4-3.7-2.4-4.4v-1.1v0c0-1.5,0.6-2.2,2-2.2L23.4,26.8L23.4,26.8z M30.3,20.5L30.3,20.5L30.3,20.5
		h5c1.3,0,2,0.4,2.2,1.2v3.4c-1.8,0.3-2.8,0.6-3.1,1.1C34.1,27,34,28,34,29.3v0.4c0,3.3,0.3,7,0.8,11.1v0c0,0.9,0.5,1.5,1.4,1.8
		l7.3,1.8v1.4H22.5v-1.4l7.2-1.8c0.9-0.2,1.3-0.8,1.6-1.7c0.4-4.3,0.6-8,0.6-11.2c0-1.4-0.2-2.5-0.6-3.4c-0.3-0.6-1.3-0.9-3.1-1.2
		v-3.4C28.3,20.9,29,20.5,30.3,20.5z M28.3,27.9c0.4,0,0.8,0.1,1.2,0.2c0.1,0,0.3-0.1,0.4-0.2c0,0,0.1,0,0.1,0c0.1,0,0.1,0,0.2,0.1
		v1.6c0,0.1-0.1,0.1-0.2,0.1c0,0-0.1,0-0.1,0c-0.4-0.3-0.8-0.6-1.2-0.6c-0.7,0.1-1,0.5-1,1.2c0,0.5,0.3,1.1,0.9,1.9
		c1.2,1.5,1.9,2.8,1.9,4v1.6c0,0.7-0.3,1.2-0.8,1.7c-0.6,0.4-1.2,0.6-1.9,0.6c-0.6,0-1,0.1-1.1,0.3c0,0-0.1,0-0.1,0
		c-0.1,0-0.1,0-0.2-0.1v-1.7c0-0.1,0.1-0.1,0.2-0.1c0,0,0.1,0,0.2,0.1c0.2,0.2,0.5,0.3,0.9,0.3c1,0,1.6-0.5,1.6-1.6
		c0-1.4-0.3-2.5-1-3.2c-1.2-1.7-1.9-2.7-1.9-3l0-0.6V30c0-1,0.5-1.6,1.4-2C27.9,28,28,27.9,28.3,27.9z M38.9,27.4v1.5
		c0,0.3-0.1,0.4-0.2,0.4c0,0,0,0-0.1,0c-0.1,0-0.1-0.1-0.2-0.2c0-0.1-0.1-0.1-0.2-0.1h0l-1.5,0.2v2.5h0.7c0.2,0,0.3-0.1,0.3-0.4
		c0.1,0,0.2-0.1,0.3-0.1c0.1,0,0.2,0,0.2,0.1v2.2c0,0-0.1,0.1-0.2,0.1c-0.1,0-0.2,0-0.3-0.1c0-0.2-0.1-0.3-0.3-0.3h-0.7v5.6l1.5,0.1
		c0.2,0,0.3-0.1,0.3-0.3c0.1-0.1,0.1-0.1,0.2-0.1s0.2,0.1,0.2,0.3v1.5c0,0.1-0.1,0.2-0.2,0.2L35.1,40c-0.1,0-0.1,0-0.1-0.1
		c0,0,0-0.1,0.1-0.1c0.3-0.1,0.4-0.3,0.4-0.5V28.7c0-0.3-0.2-0.4-0.5-0.5c-0.1-0.1-0.1-0.1-0.1-0.2s0-0.1,0.1-0.2L38.9,27.4z
		 M45.3,25.5c0.1,0,0.1,0,0.1,0.1c0,0,0,0.1-0.1,0.2c0,0-0.1,0.1-0.3,0.2c-0.1,0.1-0.2,0.2-0.2,0.3v0.1L45,40.7
		c0,0.2,0.1,0.3,0.4,0.5c0,0,0,0.1,0,0.1c0,0.1,0,0.1-0.2,0.1L43.2,41c-0.1-0.1-0.1-0.1-0.1-0.2s0-0.1,0.1-0.1
		c0.3,0,0.4-0.2,0.4-0.5l0-8.8l-1.1,3.9L41.3,32l0,7.8v0c0,0.3,0.1,0.5,0.4,0.6c0,0.1,0.1,0.2,0.1,0.2c0,0.1,0,0.1-0.1,0.1
		c0,0,0,0-0.1,0l-1.9-0.3c-0.1,0-0.2-0.1-0.2-0.2s0-0.1,0-0.1c0.3,0,0.4-0.2,0.4-0.6l-0.1-11.7c-0.1-0.2-0.2-0.3-0.3-0.3h0
		c0,0-0.1-0.1-0.1-0.1c0,0,0-0.1,0.1-0.1l1.8-0.4l1.2,3.6l1.2-4.4L45.3,25.5z M49.9,23.3L49.9,23.3c0.1,0,0.2,0,0.2,0.1v1.8
		c0,0.2-0.1,0.2-0.2,0.2c0,0-0.1,0-0.1,0c-0.1-0.1-0.2-0.2-0.2-0.2s0,0-0.1,0l-1.7,0.6v5h0.8c0.2,0,0.3-0.1,0.3-0.4
		c0.1-0.1,0.2-0.1,0.3-0.1c0.1,0,0.1,0,0.2,0.1v2.2c-0.1,0.1-0.2,0.1-0.2,0.1c-0.1,0-0.1,0-0.2-0.1c0-0.3-0.1-0.4-0.3-0.4h-0.8v8.2
		c0.1,0.2,0.7,0.4,1.7,0.6c0.2,0,0.3-0.1,0.4-0.3c0,0,0.1-0.1,0.1-0.1c0.1,0,0.1,0.1,0.2,0.3v1.5v0c0,0.1,0,0.2-0.1,0.2
		c0,0-0.1,0-0.1,0L46,41.6c-0.1-0.1-0.1-0.1-0.1-0.2s0-0.1,0-0.1c0.2,0,0.3-0.2,0.4-0.4l0-15c0-0.2,0-0.3-0.1-0.3
		c-0.1,0-0.2,0-0.3-0.1s-0.1-0.1-0.1-0.1c0,0,0-0.1,0-0.1L49.9,23.3z M54.3,20.2c0.1,0,0.2-0.1,0.3-0.1c0.2,0,0.3,0.1,0.3,0.3
		c0,0,0,0.1,0,0.2l0.1,9.1c-0.1,0.9-0.3,1.5-0.8,1.8c0.5,0.6,0.8,1.2,0.8,1.9l0,10.6c0,0.3,0.2,0.6,0.5,0.8c0.1,0,0.1,0.1,0.1,0.2
		s0,0.1-0.1,0.1h0l-2.2-0.9c-0.1-0.1-0.1-0.1-0.1-0.2c0,0,0-0.1,0.1-0.1c0.2,0,0.3-0.1,0.3-0.3V33.4c-0.1-0.7-0.5-1.1-1.1-1.1v10.9
		c0,0.2,0.1,0.3,0.3,0.4l0.2,0.2c0,0,0,0,0,0.1s0,0.1-0.1,0.1l-2.1-0.9c-0.1,0-0.1-0.1-0.1-0.1c0,0,0-0.1,0.1-0.1
		c0.2,0,0.3-0.1,0.4-0.3l-0.1-19.1c0-0.2-0.1-0.3-0.3-0.3c0,0,0,0-0.1,0c-0.1,0-0.1,0-0.1-0.1c0,0,0-0.1,0.1-0.2
		C52.1,21.9,53.4,21,54.3,20.2z M52.4,23.4l0,7.5c0.5,0,0.9-0.3,1-1l0-6.7V23c0-0.1,0-0.2-0.1-0.2c0,0,0,0-0.1,0L52.4,23.4z"/>
</g>
</svg>
