<?xml version="1.0" encoding="utf-8"?>
<!-- Generator: Adobe Illustrator 21.1.0, SVG Export Plug-In . SVG Version: 6.00 Build 0)  -->
<svg version="1.1" id="Layer_1" xmlns="http://www.w3.org/2000/svg" xmlns:xlink="http://www.w3.org/1999/xlink" x="0px" y="0px"
	 viewBox="0 0 170.1 170.1" style="enable-background:new 0 0 170.1 170.1;" xml:space="preserve">
<style type="text/css">
	.st0{fill:#60344A;}
	.st1{fill:#F6F6F6;}
</style>
<g>
	<g>
		<g>
			<rect x="14.7" y="44" class="st0" width="141.7" height="83.3"/>
		</g>
		<g>
			
				<rect x="50" y="20.9" transform="matrix(-1.836970e-16 1 -1 -1.836970e-16 171.2258 0.1395)" class="st0" width="71.2" height="129.6"/>
			<path class="st1" d="M151.4,122.3H19.7V49h131.7V122.3z M21.8,120.2h127.4v-69H21.8V120.2z"/>
		</g>
		<g>
			<path class="st1" d="M35.5,82.4h-9.2V67.9h1.9v12.8h7.3V82.4z"/>
			<path class="st1" d="M45.7,82.4h-1.8v-1.2c-0.2,0.1-0.4,0.3-0.7,0.5c-0.3,0.2-0.5,0.4-0.8,0.5c-0.3,0.1-0.7,0.3-1.1,0.4
				c-0.4,0.1-0.9,0.2-1.4,0.2c-1,0-1.8-0.3-2.5-1c-0.7-0.6-1-1.5-1-2.5c0-0.8,0.2-1.5,0.5-2c0.4-0.5,0.9-0.9,1.5-1.2
				c0.7-0.3,1.5-0.5,2.4-0.6c0.9-0.1,1.9-0.2,3-0.2V75c0-0.4-0.1-0.8-0.2-1s-0.4-0.5-0.6-0.6c-0.3-0.1-0.6-0.3-0.9-0.3
				c-0.4-0.1-0.7-0.1-1.1-0.1c-0.5,0-1,0.1-1.6,0.2c-0.6,0.1-1.2,0.3-1.8,0.6h-0.1v-1.9c0.4-0.1,0.9-0.2,1.5-0.3
				c0.7-0.1,1.3-0.2,2-0.2c0.8,0,1.4,0.1,2,0.2c0.6,0.1,1.1,0.3,1.5,0.6c0.4,0.3,0.7,0.7,0.9,1.2c0.2,0.5,0.3,1.1,0.3,1.8V82.4z
				 M43.9,79.8v-3c-0.6,0-1.2,0.1-2,0.1c-0.8,0.1-1.4,0.2-1.8,0.3c-0.5,0.1-1,0.4-1.3,0.7c-0.3,0.3-0.5,0.7-0.5,1.3
				c0,0.6,0.2,1.1,0.6,1.4c0.4,0.3,1,0.5,1.7,0.5c0.6,0,1.2-0.1,1.8-0.4C43,80.4,43.5,80.1,43.9,79.8z"/>
			<path class="st1" d="M57.3,81.8c-0.6,0.3-1.2,0.5-1.7,0.7s-1.1,0.2-1.8,0.2c-0.8,0-1.5-0.1-2.2-0.3c-0.7-0.2-1.2-0.6-1.7-1
				c-0.5-0.5-0.8-1.1-1.1-1.8c-0.3-0.7-0.4-1.6-0.4-2.5c0-1.8,0.5-3.2,1.5-4.2c1-1,2.3-1.5,3.9-1.5c0.6,0,1.2,0.1,1.8,0.3
				s1.2,0.4,1.7,0.6v2h-0.1c-0.6-0.4-1.1-0.8-1.7-1s-1.2-0.4-1.7-0.4c-1,0-1.9,0.4-2.5,1c-0.6,0.7-0.9,1.7-0.9,3.1
				c0,1.3,0.3,2.3,0.9,3c0.6,0.7,1.4,1.1,2.5,1.1c0.4,0,0.7,0,1.1-0.1c0.4-0.1,0.7-0.2,1-0.4c0.3-0.1,0.5-0.3,0.8-0.4
				s0.4-0.3,0.6-0.4h0.1V81.8z"/>
			<path class="st1" d="M69.6,82.4h-2.4l-4.4-4.8l-1.2,1.1v3.6h-1.8V67.3h1.8V77l5.3-5.4h2.3l-5.1,5L69.6,82.4z"/>
			<path class="st1" d="M79.9,82.4h-1.8v-1.2c-0.2,0.1-0.4,0.3-0.7,0.5c-0.3,0.2-0.5,0.4-0.8,0.5c-0.3,0.1-0.7,0.3-1.1,0.4
				c-0.4,0.1-0.9,0.2-1.4,0.2c-1,0-1.8-0.3-2.5-1c-0.7-0.6-1-1.5-1-2.5c0-0.8,0.2-1.5,0.5-2c0.4-0.5,0.9-0.9,1.5-1.2
				c0.7-0.3,1.5-0.5,2.4-0.6c0.9-0.1,1.9-0.2,3-0.2V75c0-0.4-0.1-0.8-0.2-1s-0.4-0.5-0.6-0.6C77,73.1,76.7,73,76.3,73
				c-0.4-0.1-0.7-0.1-1.1-0.1c-0.5,0-1,0.1-1.6,0.2c-0.6,0.1-1.2,0.3-1.8,0.6h-0.1v-1.9c0.4-0.1,0.9-0.2,1.5-0.3
				c0.7-0.1,1.3-0.2,2-0.2c0.8,0,1.4,0.1,2,0.2c0.6,0.1,1.1,0.3,1.5,0.6c0.4,0.3,0.7,0.7,0.9,1.2c0.2,0.5,0.3,1.1,0.3,1.8V82.4z
				 M78.1,79.8v-3c-0.6,0-1.2,0.1-2,0.1c-0.8,0.1-1.4,0.2-1.8,0.3c-0.5,0.1-1,0.4-1.3,0.7c-0.3,0.3-0.5,0.7-0.5,1.3
				c0,0.6,0.2,1.1,0.6,1.4c0.4,0.3,1,0.5,1.7,0.5c0.6,0,1.2-0.1,1.8-0.4C77.2,80.4,77.7,80.1,78.1,79.8z"/>
			<path class="st1" d="M97.1,71.6l-2.8,10.9h-1.7L89.7,74L87,82.4h-1.7l-2.9-10.9h1.9l2,8.4l2.7-8.4h1.5l2.8,8.4l1.9-8.4H97.1z"/>
			<path class="st1" d="M108,82.4h-1.8v-1.2c-0.2,0.1-0.4,0.3-0.7,0.5c-0.3,0.2-0.5,0.4-0.8,0.5c-0.3,0.1-0.7,0.3-1.1,0.4
				c-0.4,0.1-0.9,0.2-1.4,0.2c-1,0-1.8-0.3-2.5-1c-0.7-0.6-1-1.5-1-2.5c0-0.8,0.2-1.5,0.5-2c0.4-0.5,0.9-0.9,1.5-1.2
				c0.7-0.3,1.5-0.5,2.4-0.6c0.9-0.1,1.9-0.2,3-0.2V75c0-0.4-0.1-0.8-0.2-1s-0.4-0.5-0.6-0.6c-0.3-0.1-0.6-0.3-0.9-0.3
				c-0.4-0.1-0.7-0.1-1.1-0.1c-0.5,0-1,0.1-1.6,0.2c-0.6,0.1-1.2,0.3-1.8,0.6h-0.1v-1.9c0.4-0.1,0.9-0.2,1.5-0.3s1.3-0.2,2-0.2
				c0.8,0,1.4,0.1,2,0.2c0.6,0.1,1.1,0.3,1.5,0.6c0.4,0.3,0.7,0.7,0.9,1.2c0.2,0.5,0.3,1.1,0.3,1.8V82.4z M106.2,79.8v-3
				c-0.6,0-1.2,0.1-2,0.1c-0.8,0.1-1.4,0.2-1.8,0.3c-0.5,0.1-1,0.4-1.3,0.7c-0.3,0.3-0.5,0.7-0.5,1.3c0,0.6,0.2,1.1,0.6,1.4
				c0.4,0.3,1,0.5,1.7,0.5c0.6,0,1.2-0.1,1.8-0.4C105.2,80.4,105.7,80.1,106.2,79.8z"/>
			<path class="st1" d="M120.6,82.4h-1.8v-6.2c0-0.5,0-1-0.1-1.4c-0.1-0.4-0.2-0.8-0.3-1c-0.2-0.3-0.4-0.5-0.7-0.6
				c-0.3-0.1-0.7-0.2-1.2-0.2c-0.5,0-1,0.1-1.6,0.4c-0.5,0.2-1.1,0.6-1.6,0.9v8.1h-1.8V71.6h1.8v1.2c0.6-0.5,1.2-0.8,1.8-1.1
				c0.6-0.3,1.2-0.4,1.9-0.4c1.2,0,2.1,0.4,2.7,1.1c0.6,0.7,0.9,1.7,0.9,3.1V82.4z"/>
			<path class="st1" d="M133.2,82.4h-1.8v-6.2c0-0.5,0-1-0.1-1.4c-0.1-0.4-0.2-0.8-0.3-1c-0.2-0.3-0.4-0.5-0.7-0.6
				c-0.3-0.1-0.7-0.2-1.2-0.2c-0.5,0-1,0.1-1.6,0.4c-0.5,0.2-1.1,0.6-1.6,0.9v8.1h-1.8V71.6h1.8v1.2c0.6-0.5,1.2-0.8,1.8-1.1
				c0.6-0.3,1.2-0.4,1.9-0.4c1.2,0,2.1,0.4,2.7,1.1c0.6,0.7,0.9,1.7,0.9,3.1V82.4z"/>
			<path class="st1" d="M145.2,82.4h-1.8v-1.2c-0.2,0.1-0.4,0.3-0.7,0.5c-0.3,0.2-0.5,0.4-0.8,0.5c-0.3,0.1-0.7,0.3-1.1,0.4
				c-0.4,0.1-0.9,0.2-1.4,0.2c-1,0-1.8-0.3-2.5-1c-0.7-0.6-1-1.5-1-2.5c0-0.8,0.2-1.5,0.5-2c0.4-0.5,0.9-0.9,1.5-1.2
				c0.7-0.3,1.5-0.5,2.4-0.6c0.9-0.1,1.9-0.2,3-0.2V75c0-0.4-0.1-0.8-0.2-1s-0.4-0.5-0.6-0.6c-0.3-0.1-0.6-0.3-0.9-0.3
				c-0.4-0.1-0.7-0.1-1.1-0.1c-0.5,0-1,0.1-1.6,0.2c-0.6,0.1-1.2,0.3-1.8,0.6h-0.1v-1.9c0.4-0.1,0.9-0.2,1.5-0.3s1.3-0.2,2-0.2
				c0.8,0,1.4,0.1,2,0.2c0.6,0.1,1.1,0.3,1.5,0.6c0.4,0.3,0.7,0.7,0.9,1.2c0.2,0.5,0.3,1.1,0.3,1.8V82.4z M143.4,79.8v-3
				c-0.6,0-1.2,0.1-2,0.1c-0.8,0.1-1.4,0.2-1.8,0.3c-0.5,0.1-1,0.4-1.3,0.7c-0.3,0.3-0.5,0.7-0.5,1.3c0,0.6,0.2,1.1,0.6,1.4
				c0.4,0.3,1,0.5,1.7,0.5c0.6,0,1.2-0.1,1.8-0.4C142.5,80.4,143,80.1,143.4,79.8z"/>
			<path class="st1" d="M58.9,106.4h-2.5l-4.9-5.8h-2.7v5.8h-1.9V91.9h4.1c0.9,0,1.6,0.1,2.2,0.2c0.6,0.1,1.1,0.3,1.6,0.6
				c0.5,0.3,0.9,0.7,1.2,1.3c0.3,0.5,0.4,1.1,0.4,1.9c0,1-0.3,1.9-0.8,2.6s-1.3,1.2-2.2,1.6L58.9,106.4z M54.4,96
				c0-0.4-0.1-0.8-0.2-1.1s-0.4-0.6-0.7-0.8c-0.3-0.2-0.6-0.3-1-0.4s-0.8-0.1-1.4-0.1h-2.3V99h1.9c0.6,0,1.1-0.1,1.6-0.2
				s0.8-0.3,1.2-0.6c0.3-0.3,0.5-0.6,0.6-0.9C54.3,97,54.4,96.5,54.4,96z"/>
			<path class="st1" d="M68.7,106.4h-1.8v-1.2c-0.2,0.1-0.4,0.3-0.7,0.5c-0.3,0.2-0.5,0.4-0.8,0.5c-0.3,0.1-0.7,0.3-1.1,0.4
				c-0.4,0.1-0.9,0.2-1.4,0.2c-1,0-1.8-0.3-2.5-1c-0.7-0.6-1-1.5-1-2.5c0-0.8,0.2-1.5,0.5-2c0.4-0.5,0.9-0.9,1.5-1.2
				c0.7-0.3,1.5-0.5,2.4-0.6c0.9-0.1,1.9-0.2,3-0.2v-0.3c0-0.4-0.1-0.8-0.2-1s-0.4-0.5-0.6-0.6c-0.3-0.1-0.6-0.3-0.9-0.3
				c-0.4-0.1-0.7-0.1-1.1-0.1c-0.5,0-1,0.1-1.6,0.2c-0.6,0.1-1.2,0.3-1.8,0.6h-0.1v-1.9c0.4-0.1,0.9-0.2,1.5-0.3
				c0.7-0.1,1.3-0.2,2-0.2c0.8,0,1.4,0.1,2,0.2c0.6,0.1,1.1,0.3,1.5,0.6c0.4,0.3,0.7,0.7,0.9,1.2c0.2,0.5,0.3,1.1,0.3,1.8V106.4z
				 M66.8,103.7v-3c-0.6,0-1.2,0.1-2,0.1c-0.8,0.1-1.4,0.2-1.8,0.3c-0.5,0.1-1,0.4-1.3,0.7c-0.3,0.3-0.5,0.7-0.5,1.3
				c0,0.6,0.2,1.1,0.6,1.4c0.4,0.3,1,0.5,1.7,0.5c0.6,0,1.2-0.1,1.8-0.4C65.9,104.4,66.4,104.1,66.8,103.7z"/>
			<path class="st1" d="M74.2,93.7h-2.1v-1.9h2.1V93.7z M74,106.4h-1.8V95.5H74V106.4z"/>
			<path class="st1" d="M79.5,106.4h-1.8V91.2h1.8V106.4z"/>
			<path class="st1" d="M89.9,97.5L89.9,97.5c-0.4-0.1-0.6-0.1-0.9-0.1c-0.3,0-0.6,0-0.9,0c-0.6,0-1.1,0.1-1.6,0.4
				c-0.5,0.3-1,0.6-1.5,1v7.7h-1.8V95.5H85v1.6c0.7-0.6,1.4-1,1.9-1.2c0.6-0.2,1.1-0.4,1.7-0.4c0.3,0,0.6,0,0.7,0
				c0.1,0,0.4,0,0.6,0.1V97.5z"/>
			<path class="st1" d="M100.9,101c0,1.8-0.5,3.2-1.4,4.2c-0.9,1-2.1,1.5-3.7,1.5c-1.5,0-2.8-0.5-3.7-1.5c-0.9-1-1.4-2.4-1.4-4.2
				s0.5-3.2,1.4-4.2c0.9-1,2.1-1.5,3.7-1.5c1.5,0,2.7,0.5,3.7,1.5C100.5,97.8,100.9,99.2,100.9,101z M99.1,101
				c0-1.4-0.3-2.5-0.8-3.1c-0.6-0.7-1.3-1-2.3-1c-1,0-1.8,0.3-2.3,1c-0.5,0.7-0.8,1.7-0.8,3.1c0,1.4,0.3,2.4,0.8,3.1
				c0.6,0.7,1.3,1.1,2.3,1.1c1,0,1.7-0.4,2.3-1C98.8,103.4,99.1,102.3,99.1,101z"/>
			<path class="st1" d="M112.2,106.4h-1.8v-1.2c-0.2,0.1-0.4,0.3-0.7,0.5c-0.3,0.2-0.5,0.4-0.8,0.5c-0.3,0.1-0.7,0.3-1.1,0.4
				c-0.4,0.1-0.9,0.2-1.4,0.2c-1,0-1.8-0.3-2.5-1c-0.7-0.6-1-1.5-1-2.5c0-0.8,0.2-1.5,0.5-2c0.4-0.5,0.9-0.9,1.5-1.2
				c0.7-0.3,1.5-0.5,2.4-0.6c0.9-0.1,1.9-0.2,3-0.2v-0.3c0-0.4-0.1-0.8-0.2-1s-0.4-0.5-0.6-0.6c-0.3-0.1-0.6-0.3-0.9-0.3
				c-0.4-0.1-0.7-0.1-1.1-0.1c-0.5,0-1,0.1-1.6,0.2c-0.6,0.1-1.2,0.3-1.8,0.6H104v-1.9c0.4-0.1,0.9-0.2,1.5-0.3s1.3-0.2,2-0.2
				c0.8,0,1.4,0.1,2,0.2c0.6,0.1,1.1,0.3,1.5,0.6c0.4,0.3,0.7,0.7,0.9,1.2c0.2,0.5,0.3,1.1,0.3,1.8V106.4z M110.4,103.7v-3
				c-0.6,0-1.2,0.1-2,0.1c-0.8,0.1-1.4,0.2-1.8,0.3c-0.5,0.1-1,0.4-1.3,0.7c-0.3,0.3-0.5,0.7-0.5,1.3c0,0.6,0.2,1.1,0.6,1.4
				c0.4,0.3,1,0.5,1.7,0.5c0.6,0,1.2-0.1,1.8-0.4C109.5,104.4,110,104.1,110.4,103.7z"/>
			<path class="st1" d="M124.6,106.4h-1.8v-1.1c-0.5,0.5-1.1,0.8-1.6,1.1c-0.6,0.3-1.2,0.4-1.9,0.4c-1.3,0-2.3-0.5-3.1-1.5
				c-0.8-1-1.1-2.4-1.1-4.2c0-0.9,0.1-1.7,0.4-2.5c0.3-0.7,0.6-1.3,1.1-1.8c0.4-0.5,1-0.9,1.5-1.1c0.6-0.3,1.2-0.4,1.8-0.4
				c0.6,0,1.1,0.1,1.5,0.2c0.4,0.1,0.9,0.3,1.4,0.6v-4.7h1.8V106.4z M122.8,103.7v-6.2c-0.5-0.2-0.9-0.4-1.3-0.5
				c-0.4-0.1-0.8-0.1-1.3-0.1c-1,0-1.8,0.4-2.4,1.1c-0.6,0.7-0.9,1.7-0.9,3c0,1.3,0.2,2.3,0.7,2.9c0.4,0.7,1.1,1,2.1,1
				c0.5,0,1-0.1,1.6-0.3C121.8,104.4,122.3,104.1,122.8,103.7z"/>
		</g>
	</g>
</g>
</svg>
