<svg version="1.1" id="Layer_1" xmlns="http://www.w3.org/2000/svg" x="0" y="0" viewBox="0 0 65.8 65.8" xml:space="preserve"><style>.st36{fill:#994573}.st37{fill:#f6f6f6}</style><circle cx="32.9" cy="32.9" r="32.4" fill="#fff" stroke="#fff" stroke-miterlimit="10"/><path class="st36" d="M7 17.7h51.8v30.4H7z"/><path class="st36" d="M9.2 19.9h47.4v26H9.2z"/><path class="st37" d="M57 46.3H8.8V19.5H57v26.8zm-47.4-.8h46.6V20.3H9.6v25.2z"/><path class="st37" d="M14.6 31.7h-3.4v-5.3h.7v4.7h2.7v.6zm3.7 0h-.7v-.4c-.1 0-.1.1-.3.2-.1.1-.2.1-.3.2-.1 0-.3.1-.4.1-.1 0-.3.1-.5.1-.4 0-.7-.1-.9-.4-.3-.2-.4-.5-.4-.9 0-.3.1-.5.2-.7.1-.2.3-.3.5-.4.3-.1.5-.2.9-.2.3 0 .7-.1 1.1-.1V29c0-.1 0-.3-.1-.4 0-.1-.1-.2-.2-.2s-.2-.1-.3-.1h-.4c-.2 0-.4 0-.6.1s-.4.1-.7.2v-.7c.1 0 .3-.1.5-.1.3 0 .5-.1.7-.1.3 0 .5 0 .7.1.2 0 .4.1.5.2s.3.3.3.4c.1.2.1.4.1.7.3 0 .3 2.6.3 2.6zm-.6-.9v-1.1H17c-.3 0-.5.1-.7.1-.2 0-.4.1-.5.3-.1.1-.2.3-.2.5s.1.4.2.5c.1.1.4.2.6.2.2 0 .4 0 .7-.1.2-.2.4-.3.6-.4zm4.9.7l-.6.3c-.2.1-.4.1-.7.1-.3 0-.5 0-.8-.1-.3-.1-.4-.2-.6-.4-.2-.2-.3-.4-.4-.7-.1-.3-.1-.6-.1-.9 0-.7.2-1.2.5-1.5s.8-.5 1.4-.5c.2 0 .4 0 .7.1.2.1.4.1.6.2v.7c-.2-.1-.4-.3-.6-.4-.2-.1-.4-.1-.6-.1-.4 0-.7.1-.9.4-.2.3-.3.6-.3 1.1 0 .5.1.8.3 1.1.2.3.5.4.9.4h.4c.1 0 .3-.1.4-.1.1 0 .2-.1.3-.1s.1-.1.2-.1l-.1.5zm4.5.2h-.9l-1.6-1.8-.4.4v1.3h-.7v-5.5h.7v3.5l1.9-2h.8L25 29.4l2.1 2.3zm3.7 0h-.7v-.4c-.1 0-.1.1-.3.2-.1.1-.2.1-.3.2-.1 0-.3.1-.4.1s-.3.1-.5.1c-.4 0-.7-.1-.9-.4-.3-.2-.4-.5-.4-.9 0-.3.1-.5.2-.7.1-.2.3-.3.5-.4.3-.1.5-.2.9-.2.3 0 .7-.1 1.1-.1V29c0-.1 0-.3-.1-.4 0-.1-.1-.2-.2-.2-.1-.1-.2-.1-.3-.1H29c-.2 0-.4 0-.6.1-.2 0-.4.1-.7.2v-.7c.1 0 .3-.1.5-.1.3 0 .5-.1.7-.1.3 0 .5 0 .7.1.2 0 .4.1.5.2.1.1.3.3.3.4.1.2.1.4.1.7.3-.1.3 2.6.3 2.6zm-.6-.9v-1.1h-.7c-.3 0-.5.1-.7.1-.2 0-.4.1-.5.3-.1.1-.2.3-.2.5s.1.4.2.5.4.2.6.2c.2 0 .4 0 .7-.1.2-.2.4-.3.6-.4zm6.9-3l-1 4h-.6l-1.1-3.1-1 3.1h-.6l-1.1-4h.7l.7 3.1 1-3.1h.5l1 3.1.7-3.1h.8zm4 3.9h-.7v-.4c-.1 0-.1.1-.3.2-.1.1-.2.1-.3.2-.1 0-.3.1-.4.1-.1 0-.3.1-.5.1-.4 0-.7-.1-.9-.4-.3-.2-.4-.5-.4-.9 0-.3.1-.5.2-.7.1-.2.3-.3.5-.4.3-.1.5-.2.9-.2s.7-.1 1.1-.1V29c0-.1 0-.3-.1-.4s-.1-.2-.2-.2-.2-.1-.3-.1h-.4c-.2 0-.4 0-.6.1s-.4.1-.7.2v-.7c.1 0 .3-.1.5-.1s.5-.1.7-.1c.3 0 .5 0 .7.1.2 0 .4.1.5.2.1.1.3.3.3.4.1.2.1.4.1.7.3 0 .3 2.6.3 2.6zm-.7-.9v-1.1h-.7c-.3 0-.5.1-.7.1-.2 0-.4.1-.5.3-.1.1-.2.3-.2.5s.1.4.2.5c.1.1.4.2.6.2.2 0 .4 0 .7-.1.3-.2.5-.3.6-.4zm5.3.9H45v-2.8c0-.1-.1-.3-.1-.4-.1-.1-.1-.2-.3-.2-.1 0-.3-.1-.4-.1-.2 0-.4 0-.6.1l-.6.3v3h-.7v-3.9h.7v.4c.2-.2.4-.3.7-.4.2-.1.4-.1.7-.1.4 0 .8.1 1 .4s.3.6.3 1.1v2.6zm4.6 0h-.7v-2.8c0-.1-.1-.3-.1-.4-.1-.1-.1-.2-.3-.2-.1 0-.3-.1-.4-.1-.2 0-.4 0-.6.1l-.6.3v3H47v-3.9h.7v.4c.2-.2.4-.3.7-.4.2-.1.4-.1.7-.1.4 0 .8.1 1 .4.2.3.3.6.3 1.1l-.1 2.6zm4.4 0H54v-.4c-.1 0-.1.1-.3.2-.1.1-.2.1-.3.2-.1 0-.3.1-.4.1-.1 0-.3.1-.5.1-.4 0-.7-.1-.9-.4-.3-.2-.4-.5-.4-.9 0-.3.1-.5.2-.7.1-.2.3-.3.5-.4.3-.1.5-.2.9-.2.3 0 .7-.1 1.1-.1V29c0-.1 0-.3-.1-.4 0-.1-.1-.2-.2-.2s-.2-.1-.3-.1h-.4c-.2 0-.4 0-.6.1s-.4.1-.7.2v-.7c.1 0 .3-.1.5-.1s.5-.1.7-.1c.3 0 .5 0 .7.1.2 0 .4.1.5.2s.3.3.3.4c.1.2.1.4.1.7l.3 2.6zm-.7-.9v-1.1h-.7c-.3 0-.5.1-.7.1-.2 0-.4.1-.5.3-.1.1-.2.3-.2.5s.1.4.2.5c.1.1.4.2.6.2.2 0 .4 0 .7-.1.3-.2.5-.3.6-.4zm-30.9 9.7h-.9l-1.8-2.1h-1v2.1h-.7v-5.3h1.5c.3 0 .6 0 .8.1.2 0 .4.1.6.2.2.1.3.3.4.5.1.2.1.4.1.7 0 .4-.1.7-.3 1-.2.3-.5.4-.8.6l2.1 2.2zm-1.6-3.8c0-.1 0-.3-.1-.4 0-.1-.1-.2-.3-.3-.1-.1-.2-.1-.4-.1h-1.3v2h.7c.2 0 .4 0 .6-.1.2 0 .3-.1.4-.2.1-.1.2-.2.2-.3.2-.3.2-.4.2-.6zm5.2 3.8H26V40c-.1 0-.1.1-.3.2-.1.1-.2.1-.3.2-.1 0-.3.1-.4.1s-.3.1-.5.1c-.4 0-.7-.1-.9-.4-.3-.2-.4-.5-.4-.9 0-.3.1-.5.2-.7.1-.2.3-.3.5-.4.3-.1.5-.2.9-.2.3 0 .7-.1 1.1-.1v-.1c0-.1 0-.3-.1-.4 0-.1-.1-.2-.2-.2s-.2-.1-.3-.1h-.4c-.2 0-.4 0-.6.1-.2 0-.4.1-.7.2v-.7c.1 0 .3-.1.5-.1.3 0 .5-.1.7-.1.3 0 .5 0 .7.1s.4.1.5.2c.1.1.3.3.3.4.1.2.1.4.1.7.3-.1.3 2.6.3 2.6zm-.7-1v-1.1h-.7c-.3 0-.5.1-.7.1-.2 0-.4.1-.5.3-.1.1-.2.3-.2.5s.1.4.2.5c.1.1.4.2.6.2.2 0 .4 0 .7-.1.3-.2.5-.3.6-.4zm2.7-3.7H28v-.7h.8v.7zm0 4.7H28v-4h.7v4zm2 0H30v-5.6h.7v5.6zm3.8-3.3h-.6c-.2 0-.4 0-.6.1-.2.1-.4.2-.5.4v2.8H32v-4h.7v.6c.3-.2.5-.4.7-.4.2-.1.4-.1.6-.1h.5v.6zm4 1.3c0 .7-.2 1.2-.5 1.5-.3.4-.8.5-1.4.5-.5 0-1-.2-1.4-.5-.3-.4-.5-.9-.5-1.5s.2-1.2.5-1.5c.3-.4.8-.5 1.4-.5.5 0 1 .2 1.4.5.4.3.5.8.5 1.5zm-.7 0c0-.5-.1-.9-.3-1.1-.2-.3-.5-.4-.8-.4-.4 0-.7.1-.8.4-.2.3-.3.6-.3 1.1s.1.9.3 1.1c.2.3.5.4.8.4.4 0 .6-.1.8-.4.2-.2.3-.6.3-1.1zm4.8 2H42V40c-.1 0-.1.1-.3.2-.1.1-.2.1-.3.2-.1 0-.3.1-.4.1s-.3.1-.5.1c-.4 0-.7-.1-.9-.4-.3-.2-.4-.5-.4-.9 0-.3.1-.5.2-.7.1-.2.3-.3.5-.4.3-.1.5-.2.9-.2.3 0 .7-.1 1.1-.1v-.1c0-.1 0-.3-.1-.4 0-.1-.1-.2-.2-.2s-.2-.1-.3-.1h-.4c-.2 0-.4 0-.6.1-.2 0-.4.1-.7.2v-.7c.1 0 .3-.1.5-.1s.5-.1.7-.1c.3 0 .5 0 .7.1s.4.1.5.2c.1.1.3.3.3.4.1.2.1.4.1.7.2-.1.2 2.6.2 2.6zm-.6-1v-1.1h-.7c-.3 0-.5.1-.7.1-.2 0-.4.1-.5.3-.1.1-.2.3-.2.5s.1.4.2.5c.1.1.4.2.6.2.2 0 .4 0 .7-.1.2-.2.4-.3.6-.4zm5.2 1h-.7v-.4c-.2.2-.4.3-.6.4-.2.1-.4.1-.7.1-.5 0-.8-.2-1.1-.5-.3-.4-.4-.9-.4-1.5 0-.3 0-.6.1-.9.1-.3.2-.5.4-.7.1-.2.4-.3.5-.4.2-.1.4-.1.7-.1.2 0 .4 0 .5.1.1 0 .3.1.5.2V35h.7c.1 0 .1 5.5.1 5.5zm-.7-1v-2.3c-.2-.1-.3-.1-.5-.2h-.5c-.4 0-.7.1-.9.4s-.3.6-.3 1.1.1.8.3 1.1c.1.3.4.4.8.4.2 0 .4 0 .6-.1.1-.2.3-.3.5-.4z"/></svg>