<?xml version="1.0" encoding="utf-8"?>
<!-- Generator: Adobe Illustrator 21.0.0, SVG Export Plug-In . SVG Version: 6.00 Build 0)  -->
<svg version="1.1" id="Layer_1" xmlns="http://www.w3.org/2000/svg" xmlns:xlink="http://www.w3.org/1999/xlink" x="0px" y="0px"
	 viewBox="0 0 65.8 65.8" style="enable-background:new 0 0 65.8 65.8;" xml:space="preserve">
<style type="text/css">
	.st0{fill:#FFFFFF;stroke:#000000;stroke-miterlimit:10;}
	.st1{fill:#FFFFFF;stroke:#FFFFFF;stroke-miterlimit:10;}
	.st2{fill:none;stroke:#BE2026;stroke-width:2;stroke-miterlimit:10;}
	.st3{fill:#FFDEA7;}
	.st4{fill:#BE2026;}
	.st5{fill:#1C94D2;stroke:#FFFFFF;stroke-miterlimit:10;}
	.st6{fill:#FFFFFF;}
	.st7{fill:#00AFAD;stroke:#FFFFFF;stroke-miterlimit:10;}
	.st8{fill:#FFFFFF;stroke:#000000;stroke-width:0.25;stroke-miterlimit:10;}
	.st9{fill:#06884B;}
	.st10{fill:#BEC8CC;stroke:#FFFFFF;stroke-miterlimit:10;}
	.st11{clip-path:url(#SVGID_2_);}
	.st12{fill:#E22126;stroke:#FBE904;stroke-width:0.75;stroke-miterlimit:10;}
	.st13{fill:#191817;}
	.st14{fill:#FBE904;}
	.st15{fill:#E63229;}
	.st16{fill:#FEF16E;stroke:#FFFFFF;stroke-miterlimit:10;}
	.st17{fill:#1F4180;}
	.st18{fill:none;stroke:#E21E26;stroke-width:2;stroke-miterlimit:10;}
	.st19{fill:#E96F2B;}
	.st20{fill:#F29220;}
	.st21{fill:#EF8322;}
	.st22{fill:#EE3F80;}
	.st23{fill:#F1A847;}
	.st24{fill:#FDBA3A;}
	.st25{clip-path:url(#SVGID_4_);}
	.st26{fill:#383635;}
	.st27{clip-path:url(#SVGID_6_);}
	.st28{fill:#181A10;stroke:#FFFFFF;stroke-miterlimit:10;}
	.st29{fill:#EF4323;stroke:#FFFFFF;stroke-miterlimit:10;}
	.st30{fill:#BEDB86;stroke:#FFFFFF;stroke-miterlimit:10;}
	.st31{fill:#FFFFFF;stroke:#000000;stroke-width:0.5;stroke-miterlimit:10;}
	.st32{fill:#E38328;stroke:#FFFFFF;stroke-miterlimit:10;}
	.st33{fill:#020202;}
	.st34{fill:none;stroke:#FFFFFF;stroke-miterlimit:10;}
	.st35{fill:#BFDEF3;stroke:#FFFFFF;stroke-miterlimit:10;}
	.st36{fill:#994573;}
	.st37{fill:#F6F6F6;}
	.st38{fill:#8F4199;stroke:#FFFFFF;stroke-miterlimit:10;}
	.st39{fill:#175633;}
	.st40{fill:#984D2D;}
</style>
<circle class="st1" cx="32.9" cy="32.9" r="32.4"/>
<g>
	<g>
		<g>
			<rect x="7" y="17.7" class="st36" width="51.8" height="30.4"/>
		</g>
		<g>
			<rect x="9.2" y="19.9" class="st36" width="47.4" height="26"/>
			<path class="st37" d="M57,46.3H8.8V19.5H57V46.3z M9.6,45.5h46.6V20.3H9.6V45.5z"/>
		</g>
		<g>
			<path class="st37" d="M14.6,31.7h-3.4v-5.3h0.7v4.7h2.7V31.7z"/>
			<path class="st37" d="M18.3,31.7h-0.7v-0.4c-0.1,0-0.1,0.1-0.3,0.2c-0.1,0.1-0.2,0.1-0.3,0.2c-0.1,0-0.3,0.1-0.4,0.1
				c-0.1,0-0.3,0.1-0.5,0.1c-0.4,0-0.7-0.1-0.9-0.4c-0.3-0.2-0.4-0.5-0.4-0.9c0-0.3,0.1-0.5,0.2-0.7c0.1-0.2,0.3-0.3,0.5-0.4
				c0.3-0.1,0.5-0.2,0.9-0.2c0.3,0,0.7-0.1,1.1-0.1V29c0-0.1,0-0.3-0.1-0.4c0-0.1-0.1-0.2-0.2-0.2c-0.1,0-0.2-0.1-0.3-0.1
				c-0.1,0-0.3,0-0.4,0c-0.2,0-0.4,0-0.6,0.1s-0.4,0.1-0.7,0.2h0v-0.7c0.1,0,0.3-0.1,0.5-0.1c0.3,0,0.5-0.1,0.7-0.1
				c0.3,0,0.5,0,0.7,0.1c0.2,0,0.4,0.1,0.5,0.2s0.3,0.3,0.3,0.4c0.1,0.2,0.1,0.4,0.1,0.7C18.3,29.1,18.3,31.7,18.3,31.7z M17.7,30.8
				v-1.1c-0.2,0-0.4,0-0.7,0c-0.3,0-0.5,0.1-0.7,0.1c-0.2,0-0.4,0.1-0.5,0.3c-0.1,0.1-0.2,0.3-0.2,0.5c0,0.2,0.1,0.4,0.2,0.5
				c0.1,0.1,0.4,0.2,0.6,0.2c0.2,0,0.4,0,0.7-0.1C17.3,31,17.5,30.9,17.7,30.8z"/>
			<path class="st37" d="M22.6,31.5c-0.2,0.1-0.4,0.2-0.6,0.3s-0.4,0.1-0.7,0.1c-0.3,0-0.5,0-0.8-0.1c-0.3-0.1-0.4-0.2-0.6-0.4
				c-0.2-0.2-0.3-0.4-0.4-0.7c-0.1-0.3-0.1-0.6-0.1-0.9c0-0.7,0.2-1.2,0.5-1.5s0.8-0.5,1.4-0.5c0.2,0,0.4,0,0.7,0.1
				c0.2,0.1,0.4,0.1,0.6,0.2v0.7h0c-0.2-0.1-0.4-0.3-0.6-0.4c-0.2-0.1-0.4-0.1-0.6-0.1c-0.4,0-0.7,0.1-0.9,0.4
				c-0.2,0.3-0.3,0.6-0.3,1.1c0,0.5,0.1,0.8,0.3,1.1c0.2,0.3,0.5,0.4,0.9,0.4c0.1,0,0.3,0,0.4,0c0.1,0,0.3-0.1,0.4-0.1
				c0.1,0,0.2-0.1,0.3-0.1s0.1-0.1,0.2-0.1h0L22.6,31.5L22.6,31.5z"/>
			<path class="st37" d="M27.1,31.7h-0.9l-1.6-1.8l-0.4,0.4v1.3h-0.7v-5.5h0.7v3.5l1.9-2h0.8l-1.9,1.8L27.1,31.7z"/>
			<path class="st37" d="M30.8,31.7h-0.7v-0.4c-0.1,0-0.1,0.1-0.3,0.2c-0.1,0.1-0.2,0.1-0.3,0.2c-0.1,0-0.3,0.1-0.4,0.1
				s-0.3,0.1-0.5,0.1c-0.4,0-0.7-0.1-0.9-0.4c-0.3-0.2-0.4-0.5-0.4-0.9c0-0.3,0.1-0.5,0.2-0.7c0.1-0.2,0.3-0.3,0.5-0.4
				c0.3-0.1,0.5-0.2,0.9-0.2c0.3,0,0.7-0.1,1.1-0.1V29c0-0.1,0-0.3-0.1-0.4c0-0.1-0.1-0.2-0.2-0.2c-0.1-0.1-0.2-0.1-0.3-0.1
				c-0.1,0-0.3,0-0.4,0c-0.2,0-0.4,0-0.6,0.1c-0.2,0-0.4,0.1-0.7,0.2h0v-0.7c0.1,0,0.3-0.1,0.5-0.1c0.3,0,0.5-0.1,0.7-0.1
				c0.3,0,0.5,0,0.7,0.1c0.2,0,0.4,0.1,0.5,0.2c0.1,0.1,0.3,0.3,0.3,0.4c0.1,0.2,0.1,0.4,0.1,0.7C30.8,29,30.8,31.7,30.8,31.7z
				 M30.2,30.8v-1.1c-0.2,0-0.4,0-0.7,0c-0.3,0-0.5,0.1-0.7,0.1c-0.2,0-0.4,0.1-0.5,0.3c-0.1,0.1-0.2,0.3-0.2,0.5
				c0,0.2,0.1,0.4,0.2,0.5s0.4,0.2,0.6,0.2c0.2,0,0.4,0,0.7-0.1C29.8,31,30,30.9,30.2,30.8z"/>
			<path class="st37" d="M37.1,27.8l-1,4h-0.6l-1.1-3.1l-1,3.1h-0.6l-1.1-4h0.7l0.7,3.1l1-3.1h0.5l1,3.1l0.7-3.1L37.1,27.8
				L37.1,27.8z"/>
			<path class="st37" d="M41.1,31.7h-0.7v-0.4c-0.1,0-0.1,0.1-0.3,0.2c-0.1,0.1-0.2,0.1-0.3,0.2c-0.1,0-0.3,0.1-0.4,0.1
				c-0.1,0-0.3,0.1-0.5,0.1c-0.4,0-0.7-0.1-0.9-0.4c-0.3-0.2-0.4-0.5-0.4-0.9c0-0.3,0.1-0.5,0.2-0.7c0.1-0.2,0.3-0.3,0.5-0.4
				c0.3-0.1,0.5-0.2,0.9-0.2s0.7-0.1,1.1-0.1V29c0-0.1,0-0.3-0.1-0.4s-0.1-0.2-0.2-0.2c-0.1,0-0.2-0.1-0.3-0.1c-0.1,0-0.3,0-0.4,0
				c-0.2,0-0.4,0-0.6,0.1s-0.4,0.1-0.7,0.2h0v-0.7c0.1,0,0.3-0.1,0.5-0.1s0.5-0.1,0.7-0.1c0.3,0,0.5,0,0.7,0.1
				c0.2,0,0.4,0.1,0.5,0.2c0.1,0.1,0.3,0.3,0.3,0.4c0.1,0.2,0.1,0.4,0.1,0.7C41.1,29.1,41.1,31.7,41.1,31.7z M40.4,30.8v-1.1
				c-0.2,0-0.4,0-0.7,0c-0.3,0-0.5,0.1-0.7,0.1c-0.2,0-0.4,0.1-0.5,0.3c-0.1,0.1-0.2,0.3-0.2,0.5c0,0.2,0.1,0.4,0.2,0.5
				c0.1,0.1,0.4,0.2,0.6,0.2c0.2,0,0.4,0,0.7-0.1C40.1,31,40.3,30.9,40.4,30.8z"/>
			<path class="st37" d="M45.7,31.7H45v-2.3c0-0.2,0-0.4,0-0.5s-0.1-0.3-0.1-0.4c-0.1-0.1-0.1-0.2-0.3-0.2c-0.1,0-0.3-0.1-0.4-0.1
				c-0.2,0-0.4,0-0.6,0.1c-0.2,0.1-0.4,0.2-0.6,0.3v3h-0.7v-3.9H43v0.4c0.2-0.2,0.4-0.3,0.7-0.4c0.2-0.1,0.4-0.1,0.7-0.1
				c0.4,0,0.8,0.1,1,0.4s0.3,0.6,0.3,1.1C45.7,29.2,45.7,31.7,45.7,31.7z"/>
			<path class="st37" d="M50.3,31.7h-0.7v-2.3c0-0.2,0-0.4,0-0.5s-0.1-0.3-0.1-0.4c-0.1-0.1-0.1-0.2-0.3-0.2c-0.1,0-0.3-0.1-0.4-0.1
				c-0.2,0-0.4,0-0.6,0.1c-0.2,0.1-0.4,0.2-0.6,0.3v3H47v-3.9h0.7v0.4c0.2-0.2,0.4-0.3,0.7-0.4c0.2-0.1,0.4-0.1,0.7-0.1
				c0.4,0,0.8,0.1,1,0.4c0.2,0.3,0.3,0.6,0.3,1.1L50.3,31.7L50.3,31.7z"/>
			<path class="st37" d="M54.7,31.7H54v-0.4c-0.1,0-0.1,0.1-0.3,0.2c-0.1,0.1-0.2,0.1-0.3,0.2c-0.1,0-0.3,0.1-0.4,0.1
				c-0.1,0-0.3,0.1-0.5,0.1c-0.4,0-0.7-0.1-0.9-0.4c-0.3-0.2-0.4-0.5-0.4-0.9c0-0.3,0.1-0.5,0.2-0.7c0.1-0.2,0.3-0.3,0.5-0.4
				c0.3-0.1,0.5-0.2,0.9-0.2c0.3,0,0.7-0.1,1.1-0.1V29c0-0.1,0-0.3-0.1-0.4c0-0.1-0.1-0.2-0.2-0.2c-0.1,0-0.2-0.1-0.3-0.1
				c-0.1,0-0.3,0-0.4,0c-0.2,0-0.4,0-0.6,0.1s-0.4,0.1-0.7,0.2h0v-0.7c0.1,0,0.3-0.1,0.5-0.1s0.5-0.1,0.7-0.1c0.3,0,0.5,0,0.7,0.1
				c0.2,0,0.4,0.1,0.5,0.2s0.3,0.3,0.3,0.4c0.1,0.2,0.1,0.4,0.1,0.7L54.7,31.7L54.7,31.7z M54,30.8v-1.1c-0.2,0-0.4,0-0.7,0
				c-0.3,0-0.5,0.1-0.7,0.1c-0.2,0-0.4,0.1-0.5,0.3c-0.1,0.1-0.2,0.3-0.2,0.5c0,0.2,0.1,0.4,0.2,0.5c0.1,0.1,0.4,0.2,0.6,0.2
				c0.2,0,0.4,0,0.7-0.1C53.7,31,53.9,30.9,54,30.8z"/>
			<path class="st37" d="M23.1,40.5h-0.9l-1.8-2.1h-1v2.1h-0.7v-5.3h1.5c0.3,0,0.6,0,0.8,0.1c0.2,0,0.4,0.1,0.6,0.2
				c0.2,0.1,0.3,0.3,0.4,0.5c0.1,0.2,0.1,0.4,0.1,0.7c0,0.4-0.1,0.7-0.3,1c-0.2,0.3-0.5,0.4-0.8,0.6L23.1,40.5z M21.5,36.7
				c0-0.1,0-0.3-0.1-0.4c0-0.1-0.1-0.2-0.3-0.3c-0.1-0.1-0.2-0.1-0.4-0.1c-0.1,0-0.3,0-0.5,0h-0.8v2h0.7c0.2,0,0.4,0,0.6-0.1
				c0.2,0,0.3-0.1,0.4-0.2c0.1-0.1,0.2-0.2,0.2-0.3C21.5,37,21.5,36.9,21.5,36.7z"/>
			<path class="st37" d="M26.7,40.5h-0.7V40c-0.1,0-0.1,0.1-0.3,0.2c-0.1,0.1-0.2,0.1-0.3,0.2c-0.1,0-0.3,0.1-0.4,0.1
				s-0.3,0.1-0.5,0.1c-0.4,0-0.7-0.1-0.9-0.4c-0.3-0.2-0.4-0.5-0.4-0.9c0-0.3,0.1-0.5,0.2-0.7c0.1-0.2,0.3-0.3,0.5-0.4
				c0.3-0.1,0.5-0.2,0.9-0.2c0.3,0,0.7-0.1,1.1-0.1v-0.1c0-0.1,0-0.3-0.1-0.4c0-0.1-0.1-0.2-0.2-0.2c-0.1,0-0.2-0.1-0.3-0.1
				c-0.1,0-0.3,0-0.4,0c-0.2,0-0.4,0-0.6,0.1c-0.2,0-0.4,0.1-0.7,0.2h0v-0.7c0.1,0,0.3-0.1,0.5-0.1c0.3,0,0.5-0.1,0.7-0.1
				c0.3,0,0.5,0,0.7,0.1s0.4,0.1,0.5,0.2c0.1,0.1,0.3,0.3,0.3,0.4c0.1,0.2,0.1,0.4,0.1,0.7C26.7,37.8,26.7,40.5,26.7,40.5z M26,39.5
				v-1.1c-0.2,0-0.4,0-0.7,0c-0.3,0-0.5,0.1-0.7,0.1c-0.2,0-0.4,0.1-0.5,0.3c-0.1,0.1-0.2,0.3-0.2,0.5s0.1,0.4,0.2,0.5
				c0.1,0.1,0.4,0.2,0.6,0.2c0.2,0,0.4,0,0.7-0.1C25.7,39.7,25.9,39.6,26,39.5z"/>
			<path class="st37" d="M28.7,35.8H28v-0.7h0.8V35.8z M28.7,40.5H28v-4h0.7V40.5z"/>
			<path class="st37" d="M30.7,40.5H30v-5.6h0.7V40.5z"/>
			<path class="st37" d="M34.5,37.2L34.5,37.2c-0.1,0-0.2,0-0.3,0c-0.1,0-0.2,0-0.3,0c-0.2,0-0.4,0-0.6,0.1
				c-0.2,0.1-0.4,0.2-0.5,0.4v2.8H32v-4h0.7v0.6c0.3-0.2,0.5-0.4,0.7-0.4c0.2-0.1,0.4-0.1,0.6-0.1c0.1,0,0.2,0,0.3,0s0.1,0,0.2,0
				C34.5,36.5,34.5,37.2,34.5,37.2z"/>
			<path class="st37" d="M38.5,38.5c0,0.7-0.2,1.2-0.5,1.5c-0.3,0.4-0.8,0.5-1.4,0.5c-0.5,0-1-0.2-1.4-0.5c-0.3-0.4-0.5-0.9-0.5-1.5
				s0.2-1.2,0.5-1.5c0.3-0.4,0.8-0.5,1.4-0.5c0.5,0,1,0.2,1.4,0.5C38.4,37.3,38.5,37.8,38.5,38.5z M37.8,38.5c0-0.5-0.1-0.9-0.3-1.1
				c-0.2-0.3-0.5-0.4-0.8-0.4c-0.4,0-0.7,0.1-0.8,0.4c-0.2,0.3-0.3,0.6-0.3,1.1s0.1,0.9,0.3,1.1c0.2,0.3,0.5,0.4,0.8,0.4
				c0.4,0,0.6-0.1,0.8-0.4C37.7,39.4,37.8,39,37.8,38.5z"/>
			<path class="st37" d="M42.6,40.5H42V40c-0.1,0-0.1,0.1-0.3,0.2c-0.1,0.1-0.2,0.1-0.3,0.2c-0.1,0-0.3,0.1-0.4,0.1
				s-0.3,0.1-0.5,0.1c-0.4,0-0.7-0.1-0.9-0.4c-0.3-0.2-0.4-0.5-0.4-0.9c0-0.3,0.1-0.5,0.2-0.7c0.1-0.2,0.3-0.3,0.5-0.4
				c0.3-0.1,0.5-0.2,0.9-0.2c0.3,0,0.7-0.1,1.1-0.1v-0.1c0-0.1,0-0.3-0.1-0.4c0-0.1-0.1-0.2-0.2-0.2c-0.1,0-0.2-0.1-0.3-0.1
				c-0.1,0-0.3,0-0.4,0c-0.2,0-0.4,0-0.6,0.1c-0.2,0-0.4,0.1-0.7,0.2h0v-0.7c0.1,0,0.3-0.1,0.5-0.1c0.2,0,0.5-0.1,0.7-0.1
				c0.3,0,0.5,0,0.7,0.1s0.4,0.1,0.5,0.2c0.1,0.1,0.3,0.3,0.3,0.4c0.1,0.2,0.1,0.4,0.1,0.7C42.6,37.8,42.6,40.5,42.6,40.5z M42,39.5
				v-1.1c-0.2,0-0.4,0-0.7,0c-0.3,0-0.5,0.1-0.7,0.1c-0.2,0-0.4,0.1-0.5,0.3c-0.1,0.1-0.2,0.3-0.2,0.5s0.1,0.4,0.2,0.5
				c0.1,0.1,0.4,0.2,0.6,0.2c0.2,0,0.4,0,0.7-0.1C41.6,39.7,41.8,39.6,42,39.5z"/>
			<path class="st37" d="M47.2,40.5h-0.7v-0.4c-0.2,0.2-0.4,0.3-0.6,0.4c-0.2,0.1-0.4,0.1-0.7,0.1c-0.5,0-0.8-0.2-1.1-0.5
				c-0.3-0.4-0.4-0.9-0.4-1.5c0-0.3,0-0.6,0.1-0.9c0.1-0.3,0.2-0.5,0.4-0.7c0.1-0.2,0.4-0.3,0.5-0.4c0.2-0.1,0.4-0.1,0.7-0.1
				c0.2,0,0.4,0,0.5,0.1c0.1,0,0.3,0.1,0.5,0.2V35h0.7C47.2,35,47.2,40.5,47.2,40.5z M46.5,39.5v-2.3c-0.2-0.1-0.3-0.1-0.5-0.2
				c-0.1,0-0.3,0-0.5,0c-0.4,0-0.7,0.1-0.9,0.4s-0.3,0.6-0.3,1.1s0.1,0.8,0.3,1.1c0.1,0.3,0.4,0.4,0.8,0.4c0.2,0,0.4,0,0.6-0.1
				C46.1,39.7,46.3,39.6,46.5,39.5z"/>
		</g>
	</g>
</g>
</svg>
