<svg viewBox="0 0 144 144" xmlns="http://www.w3.org/2000/svg"><style/><circle cx="72.919" cy="73.017" r="70.2" fill="#e5832b"/><path d="M70.534 135.16c-5.737-1.14 1.083-9.415.7-13.4 1.407-5.816-6.354 2.823-8.8 3.3-4.174 3.272-1.393-3.787-5.8-.9-4.77 1.492-12.239 4.008-9.3-2.5-5.069-.536-10.106 1.829-15.2 2-4.36-2.239 7.069-5.866-.99-4.703-2.732-2.137-.792-7.96-1.31-11.77.452-3.007-.034-5.568-3.6-6.028-2.433-.617-4.344-1.617-2.7-3.6-4.898-2.02-10.422-2.83-14.725-6.1 3.948-3.4 10.541-2.284 14.663-5.762 1.576-5.428-7.053-6.426-9.237-10.538-4.278-5.63 7.628-.448 3.762-5.563-2.711-2.389-5.075-6.845-1.062-7.837-1.347-2.589-9.163-7.743-4.3-9.3 4.058.559 10.83 6.702 11.1.2 2.89.661 7.245 5.472 5.896-.728 1.262-4.09-2.463-12.565 1.867-14.147 4.663-.758 11.8 1.395 15.05-1.025-.6-2.831-4.737-13.78 1.252-8.095 3.365 3.202 10.695 14.323 13.435 5.495 1.019-4.079-1.854-13.675 4.24-7.154 4.466-1.926 2.437-9.36 5.16-13.045 4.011-8.112 6.448 3.403 7.2 7.1-.429 5.986 5.634 8.84 9 3.9.925 3.552-4.102 15.424 4.3 12.1 4.547-2.85 7.968-7.387 12.3-10.3 2.57 2.071-3.944 9.52.238 10.838 4.004 1.416 13.249-2.676 14.062 2.249V53.86c2.763-.846 10.5-4.544 6.887 1.075 3.704-1.495 14.812-6.593 9.106 1.894-1.902 1.712-5.614 4.595-.993 4.93-.324 3.312-8.592 10.122-.388 8.163 7.162-.794.392 5.415-3.012 6.538-3.269 1.574-8.94 6.104-3.2 8.7 2.122 2.74 12.763 1.074 9.7 4.8-3.491 2.367-10.107 2.818-12.1 5.5 5.654 3.509-7.04 3.98-5.7 8.386-.134 4.91.267 10.042-.2 14.814-3.288.095-3.173-.32-2.155 2.198-4.171 2.62-9.31-.241-13.845-.498.214 3.892-2.12 6.133-6.2 4-3.495-2.145-5.944-1.816-6.85 1.725-4.078-2.03-7.516-6.09-11.87-7.183-1.42 4.927.207 14.69-6.38 16.258zm.6-1.4c1.736-3.347 3.284-12.752 2.125-13.525 1.078 3.979-4.661 12.079-2.125 13.525zm27.3-10.3c-2.299-7.32 9.645-2.134 13.046-4.132-10.268-.514-20.648-.244-30.946-.168 3.217 2.8 5.597 4.864 9 1.9 2.95.148 6.356 2.518 8.9 2.4zm-48.9.2c3.484-.13 9.58-4.769 11.338-.1 2.766-1.76 9.565-5.46 2.06-4.295-8.774.186-17.62-.422-26.347.358-5.932 3.686 5.52.173 7.477.54 3.842-1.425 5.72 2.05 5.473 3.497zm-19.8-23.4c-.181-4.318 2.216-12.327-4.98-8.803-2.366.54-9.477-.586-3.32-.997 4.757.246 10.394-.338 8.3-6.569.147-4.352 1.159-10.793-5.395-7.801-7.509-1.094 4.161-.663 5.295-2.187.336-3.598.228-7.515-4.825-6.105-3.241.267-7.682-2.294-1.775-1.538 2.659.38 7.778 1.626 2.9-1.4-3.244-3.336-7.824-5.575-10.5-9.3 3.476 2.04 6.722 5.017 10.2 7.3 3.235 3.89 5.744 3.435 3.1-1.3-1.705-2.449-2.232-7.314.1-2.3 1.58 6.26 2.555-3.855-1.887-3.025-2.1-1.598-.953 3.957-4.813 1.625-2.596-.19-12.878-6.162-6.947-.547 2.898 1.904 4.623 5.448 1.947 7.747 3.762 2.403 5.8 10.127-.65 8.913 2.757 2.845 8.64 4.894 9.338 9.787-.308 6.069-8.643 5.226-13.138 6.863 3.206 2.314 8.947 2.856 12.528 5.637.487 3.1.366 3.133 4.521 4zm88.4-1.1c2.296-1.005 5.146-1.954 2.675-4.475 2.265-3.793 11.295-3.323 11.992-5.948-4.397-.988-11.781-2.068-11.742-7.864 1.783-4.466 7.28-5.57 10.262-8.976-7.547 1.707-3.56-6.685-1.688-9.037-5.71-1.778 7.195-10.842.8-8.3-3.096 1.826-8.651 4.34-9.1 0-4.054.291-5.5 5.316-1.5 2.6-2.229 1.93-2.62 4.475-2.3 7.23 2.58-1.74 6.345-5 9.5-7.13 3.71-.669-2.9 2.923-3.962 3.987-2.789 1.09-9.818 7.803-2.638 4.513 2.41-1.662 6.714-1.719 2.1.4-3.089.867-7.21 2.777-4.842 6.2 2.346-.509 12.518.095 5.242 1.1-8.635-2.505-5.02 7.21-5.687 12.175-1.21 4.966 9.85.592 8.987 4.025-6.213-1.283-11.07-.848-8.997 6.683.25.638-.678 3.72.897 2.817zm-64.9-61.1c-1.89-2.137-9.357-11.935-6.2-4 .107 4.705 2.31 4.374 6.2 4zm15 0c-1.932-2.298-4.463-8.873-.8-3.5.946 3.847 6.41 5.267 5.1-.357.871-2.045-3.92-7.683-.9-5.843 1.659 4.695 1.038-3.758 1-5.2 2.517-4.456-.81 13.33 3.1 5.2 3.583-1.68-4.162 4.816-2.017 7.236-.346 6.584 6.204-.988 7.842-3.411 2.59.838-8.173 7.97-.213 6.15 6.165 2.156 1.304-7.432 2.488-9.275-5.35 2.626-8.408-4.484-9-8.7-.348-2.582-1.906-10.77-3.6-4.3-1.471 4.297-.73 11.74-5.5 13.5-5.966-3.023.331 6.81-4.4 8.7 2.297.245 4.613.048 6.9-.2zm31.2 0c-.209-2.625 2.876-9.655-1.897-4.433-2.164 2.286-9.174 5.577-1.916 4.558 1.272-.029 2.545-.018 3.813-.125z" fill="#010101"/><path d="M31.393 40.038h84.3v77.2h-84.3z" stroke="#fff" stroke-miterlimit="10" fill="#010101"/><path d="M58.661 113.784c-.1-.1-.3-.1-.3-.2 0 0-.1-.3-.1-.6 0-.5 0-.6.1-.6.1-.1 1.6-.1 17-.1 9.2 0 19 .1 21.7.1h4.9l.1.2c0 .1.1.4.1.6 0 .4 0 .5-.1.6l-.2.1h-21.5c-19.2 0-21.5-.1-21.7-.1zm-7.9-.3c-1-.2-1.9-.9-2.7-2-.309-.503-.513-1.088-.7-1.6.127-.185.274-.202.943-.434.884-.255 1.257-.066 1.557.534.2.3.4.6.8.9.3.2.9.4 1.1.4s.7-.2 1-.5c.2-.2.2-.2.3-.5 0-.3 0-.4-.1-.6-.141-.193-.276-.415-.4-.6-.65-.949-1.625-1.711-2.4-2.6-.4-.4-.9-1-1.4-1.6-.4-.6-.8-1.1-.9-1.6-.2-.4-.2-.6-.2-1.2 0-.7 0-.7.2-1.1.2-.6.8-1.2 1.3-1.5.714-.443 1.558-.587 2.3-.7.4 0 .6 0 1.1.1.9.2 1.4.6 2 1.2.448.595.573 1.068.8 1.7.1.3 0 .5-.2.6-.3.1-1.1.1-1.3.1-.2-.1-.4-.3-.4-.6-.1-.4-.9-1-1.4-1-.4 0-.9.2-1.1.5-.2.2-.2.3-.2.5.1.7.5 1.2 2 2.6.5.5 1.6 1.5 2 1.9.3.3.7.9 1 1.5.2.4.506 1.4.5 1.7-.013.699-.287 1.566-.5 2-.3.6-1.1 1.2-1.9 1.6-.9.4-2.1.5-3.1.3zm18.7-2.3c-.3 0-.7-.1-.8-.2-.6-.3-1.744-1.325-1.9-1.8-.036-.075-.057-.188-.025-.368.1-.2.204-.232.525-.332.5-.1.7-.1 1 .2.2.2.7.5 1 .6.1 0 .185.1.509.054.3 0 .291-.154.491-.354.4-.4.5-.3-1.1-1.9-.8-.8-1.5-1.6-1.6-1.8-.3-.5-.4-1.2-.3-1.7.136-.61.31-.9.7-1.3 0 0 .134-.14.4-.3.9-.5 2.6-.5 3.5 0s1.7 1.9 1.3 2.3c-.1.1-.2.1-.6.2-.6 0-.7 0-1-.5-.2-.3-.3-.4-.8-.5-.4-.1-.8.1-.8.3s.6.8 1.3 1.6c.3.4.8.8 1 1 .438.377.681.87.9 1.3.1.5.1.9 0 1.5-.1.3-.4.9-.5 1-.296.51-.965.625-1.5.8-1 .3-1 .3-1.7.2zm23.6-.3c-.2-.1-.4-.1-.4-.1-.1 0-.1-.9-.1-3.9v-3.9l.1-.1c.3-.2 1.3-.2 2.2-.1.4.1.5.1.6.3.632.861 1.212 1.864 1.7 2.7.2.3.3.5.4.4l.2-.4c.623-1.067 1.112-2.064 1.9-3 .1 0 .5-.1 1.1-.1.8 0 1 0 1.1.1s.1.2.2 1.2c.1 1.3.1 4.1 0 5.6 0 .9-.1 1.1-.1 1.2-.1.1-.2.1-1.1.1-1.1 0-1.2 0-1.3-.3s-.2-1.8-.2-2.9c0-1 0-1.1-.1-1.1-.631 1.196-1.374 2.36-2.3 3.3-.969-.986-1.69-2.356-2.4-3.3 0 0-.1.6-.1 1.7 0 1.7-.1 2.6-.2 2.7s-1-.1-1.2-.1zm-8.9-.1c-.6 0-.6 0-.6-1.5.1-5.4.1-6.4.2-6.5l.1-.1h3c2.9 0 3 0 3.1.1s.1.2.1.6c0 .5 0 .5-.1.7l-.1.1h-3.6l-.1.2c0 .1-.1.3-.1.4-.1.5 0 .5 1.3.5 1.2 0 1.5.1 1.6.3 0 .1.1.3.1.6 0 .5 0 .5-.2.7l-.2.2h-1.2c-1.2 0-1.3 0-1.3.1-.217.55.032 1.297.1 1.8 0 .1.5.1 2 .1h2.2c.4.1.5.2.5.9 0 .9.4.8-3.3.8-1.7.1-3.2.1-3.5 0zm-7.3-.1c-.1-.2-.2-1.4-.2-3.7 0-2.2 0-2.3-.1-2.4s-.2-.2-1.1-.2c-.5 0-1-.1-1-.1s-.1-.3-.1-.6c-.1-1 .1-1.1 1.2-1 .3 0 1.5.1 2.5.1 2.4 0 3.6.1 3.7.2s.1.3.1.6c0 .8 0 .8-.2.9s-1.1.2-1.7.2c-.5 0-.5 0-.5 1.9 0 2.3-.1 4.1-.2 4.3-.1.1-.1.1-1.2.1-1.1-.2-1.1-.2-1.2-.3zm-16.8 0c-.4-.1-.4-.1-.4-1.7 0-1.4 0-1.4-.2-1.8-1.028-1.482-1.902-2.553-2.8-3.9-.3-.3-.3-.4-.1-.6l.1-.1h2.8l.2.2c.1.1.2.3.4.5.4.5 1.2 1.6 1.3 1.8s.229.2.4.1a26.721 26.721 0 012.1-2.4c.3-.1 1.4-.1 1.5 0 .2.2.1.6-.6 1.3-.636.758-1.148 1.41-1.8 2.2-.1.1-.3.4-.4.6-.1.3-.1.4-.1 1 0 1.6 0 2.5-.2 2.8-.17.365-.631.2-1 .2-.6-.1-1.1-.2-1.2-.2zm-8.8-13c-.1 0-.8-.1-1.4-.1-1.6 0-1.6 0-1.5-.9.1-.7.1-.7.3-.8.1-.1 3.2-.1 14 0h37.1l.1.2c.1.2.1.3.1.6 0 .4-.1.7-.2.8h-16.1c-8.8 0-18 0-20.5.1-5.9.2-11.6.2-11.9.1zm-5.6-8c.4-.1.8-.4 1.2-.8.25-.3.446-.734.6-1 .325-.701.378-1.453.3-2.1-.04-.632-.402-1.156-.7-1.6-.2-.3-.2-.3-.4-.5-1-.9-1.4-1-5.2-1-2.7 0-3.2 0-3.2.1-.2.2-.2 1-.2 7.6 0 5.8 0 6.8.1 6.9 0 .1.1.2.2.2.4 0 1.2.1 1.2.1.1.1 1.4 0 1.5 0 .3-.1.3-.1.3-3.5v-3.2c0-.1.1-.2.1-.3.1-.1.2-.1.7-.1.3 0 .7.1.8.1.2.1.8.7.9.9.2.9.2 1.6.2 3.5v2.2l.3.3h1.4c1.2 0 1.4 0 1.5-.1s.1-.2.1-1.7c0-3.3 0-3.3-.2-4s-.4-.9-.9-1.3c-.3-.2-.5-.3-.7-.3s-.4-.1-.4-.1c-.1-.1.2-.2.5-.3zm-2.3-1.4c-.3.1-.4.1-1.1.2-.9 0-1.1 0-1.2-.3-.01-1.214.193-2.35.2-3.5l.2-.1c.1-.1.3-.1 1-.1.8 0 .9.1 1.2.2.7.3 1 .8 1.1 1.5-.1.9-.5 1.6-1.4 2.1zm22.2 6.1s-.5-.1-1.2-.1c-1-.1-1.1-.1-1.2-.2s-.1-.4-.1-3.9c0-3.7 0-3.8.1-4l.1-.2h.9c.7 0 .9 0 1 .1s.2 1.6.2 4v2.2c0 .1.1.2.2.2s.9.1 1.8.1c2 0 1.8 0 1.8.8s.1.7-1.6.8c-.8 0-1.6.1-1.8.1-.1.1-.2.1-.2.1zm24.7-.9c-1.064-2.487-1.808-5.653-3.2-7.7-.2-.1-.3-.1-1.2-.2-.8 0-.9 0-1.1.3-1.22 2.04-1.889 4.562-2.9 6.6-.3.6-.5 1-.6 1.5-.1.3 0 .3.8.3.7 0 .7 0 .8-.2.27-.5.414-1.078.6-1.6.1-.1.1-.2.2-.3.2-.1 2.5-.1 2.8 0 .1 0 .2.1.3.2.2.3.5 1 .6 1.3s.3.5.7.6c.5.1 2.1 0 2.2-.1.2 0 .2-.4 0-.7zm-4.3-2.6c-.635.146-1.46-.133-1.9-.2.208-.703.615-1.47.9-2.2.2-.5.3-.6.5-.6s.2.2.3.7c.077.511.268.984.4 1.4.4.7.3.8-.2.9zm7.3 3.4s-.1-.6-.1-1.3c0-1.7-.1-2.2-.5-2.7a25.97 25.97 0 01-2.5-3.6c-.1-.3-.1-.3-.1-.4.2-.2 1-.3 2-.2.5 0 1 0 1.1.1.1 0 .2.2.4.4.678.845 1.43 1.748 2 2.5.762-.944 1.504-1.772 2.4-2.6l.2-.2h.9c1 0 1.2 0 1.2.3-.933 1.144-2.092 2.231-3.2 3.5l-.5.5v1.4c0 1.6-.1 2.3-.2 2.5-.1.1-.2.1-1.2.1-1.463-.039-1.763-.11-1.9-.3zm-15.7 0h-.6l-.1-.2c-.74-1.462-1.02-2.959-1.4-4.5-.1-.4-.1-.6-.3-.4-.1.1-.2.5-.3.9-.428 1.413-.806 3.07-1.4 4.2-.1 0-.3.1-.7.1-.6 0-.6 0-.8-.2-.884-2.285-1.383-4.572-2.3-7.1-.1-.4-.2-.8 0-1 .1-.1.2-.1 1-.1.9 0 .9 0 1.1.2.1.1.2.2.2.4.365 1.168.74 2.21.9 3.4.1.3.4.2.5-.2.446-1.378.7-2.476 1.3-3.7.1-.2.1-.2.6-.3.5 0 .8 0 .9.1.75 1.481 1.102 2.904 1.6 4.4 0 .2.1.5.2.5s.3-.3.3-.4c0 0 .1-.3.2-.5.3-.7.7-1.7.7-1.9.1-.2.6-1.6.7-1.8.1-.1.1-.1.7-.1s.6 0 .7.1.1.2 0 .5c-.713 2.6-1.699 4.773-2.6 7.2-.1.4-.3.6-.5.6 0-.2-.3-.2-.6-.2zm-21.8-1.5c-.72-2.018-1.199-4.23-1.7-6 0-.2-.2-.7-.4-.7-.1-.1-.9-.2-1.3-.2-.6 0-.8.2-1 .6-.879 2.359-2.089 4.853-2.9 7-.1.2-.1.3 0 .5s.1.2.3.2h.5c.4 0 .5-.1.6-.5a5.274 5.274 0 01.9-1.7c.3-.1.5-.1 1.4-.1.8 0 .9.1 1 .4.154.643.454 1.276.7 1.8.1.1.2.1 1.1.1 1 0 1 0 1.1-.1s.1-.2.1-.3c-.1-.3-.3-.8-.4-1zm-4.279-2.177c-.66.005-.749-.052-.52-.523.136-.292.4-.9.6-1.7.1-.3.1-.4.2-.4s.1 0 .2.3c.24.724.598 1.867.575 1.992.006.427-.134.32-1.055.33zm6.498 3.477c-.273-.424-.224-.832-.184-1.736.104-2.19.066-4.314.265-6.364 0-.1.3-.1.9-.1 1.1 0 1.1 0 1.2.6.106 2.489.286 4.994-.1 7.4 0 0-.35.15-.975.252-.886.14-.993.083-1.106-.052zm14.48-11.2c-.1-.1-.6-.1-4.4-.1-3.5 0-4.3 0-4.4-.1l-.2-.1v-1.2l.2-.2.2-.1h7.3c10.2 0 30.1.1 33 .2 1.7 0 2.4.1 2.5.1.2.1.3.4.2.9 0 .3 0 .4-.2.5s-1.5.2-5.1.2h-27.2c-1.5 0-1.7-.1-1.9-.1zm-18.7-.2c-.1 0-.2-.1-.2-.2-.1-.1-.1-.4-.1-4.7 0-8.9-.1-10.4-.1-10.5-.1-.1-2.9-.1-3.1 0-.3.1-.7.4-.8.6-.1.1-.2.3-.3.4s-.1.1-.3.1c-.1 0-.2-.3-.4-.6-.305-.66-.57-1.382-.8-2-.2-.5-.1-.6.6-.6h12.5c1.1 0 2 0 2.1.1.1 0 .1.1.1.3-.321 1.049-.932 2.039-1.6 2.5-.2.1-.3.1-.4-.2-.336-.41-.916-.575-1.4-.6-.4 0-2.4-.1-2.5 0s-.1.2-.1 3.2c0 3.7 0 8.1-.1 10.3-.1 1.7-.1 1.9-.3 1.9zm23.5-3.4c-.4-.1-1.1-.3-1.5-.6-.4-.2-.8-.8-1-1.3s-.5-1.4-.5-1.8c0-.2 0-.5-.1-.7-.1-.5-.1-6.7 0-6.9 0-.1.1-.2.2-.2h2.8l.1.2c.1.1.1.2.2 1.3.09 2.404-.276 6.914.155 7.28.309.527.83.507 1.515.585.386-.135.878-.328 1.13-.765.142-.45.1-1 .1-3.4.1-2.2.1-3.7.1-4.3 0-.3.1-.5.2-.6.2-.1 1.4-.1 1.5.1 0 0 .1.2.1.3v4c0 3.1-.025 3.59-.1 4-.058.419-.141.817-.3 1.2-.1.3-.2.5-.5.8-.5.5-.6.6-1.1.7-.8.2-2.1.3-3 .1zm26.2-.1h-.4c-.4 0-.6-.2-1.6-1.5-.8-1.1-1-1.3-1.3-1.8-.5-.9-.8-1.1-1-1-.4 1.3-.067 2.784-.2 4l-.2.2h-1.3c-1 0-1.2 0-1.3-.1s-.2-.1-.2-.1v-4.3c0-2.9 0-4.3.1-5.1.1-1.4.1-1.4.9-1.4.475-.04.995.042 1.4.1.7 0 .7 0 .7 1.4 0 .6 0 1.4-.1 1.8-.1 1 .1 1.2.5.6 1.242-1.449 2.362-2.596 3.5-3.8.2-.1 1.6 0 1.8 0 .2.1.1.4-.1.6-.1.1-.2.3-.3.4-.1.2-1.4 1.7-1.9 2.2-.5.6-1 1.3-1 1.4 1.514 2.087 2.645 3.63 4 5.6.2.2.3.4.3.6 0 .4-2.2.2-2.3.2zm-32.7-6.2c.046-.096.9-.7 1.1-.9s.3-.5.4-1.2c.1-.8.1-1.2-.3-1.8-.3-.5-.6-.8-1.4-1.2-1.046-.165-2.136-.108-3.2-.1-3 .022-3.8 0-4 .2-.1.1-.1.9-.1 5.1v5.4c.1.5.2.6.7.6h1.6c.1 0 .244.043.4-.1.166-.15.2-.4.2-2.3 0-2.2-.06-2.189.077-2.326.097-.097.324-.074.824-.074.7 0 .8 0 1.1.2s.4.2.5.4c.2.5.3 1.2.3 2.6 0 .8 0 1.4.1 1.4.1.2.4.2 1.1.2h1.1c.9.1.9.1.9-1.7 0-1.4-.1-2-.2-2.7-.1-.4-.185-.557-.4-.8-.276-.224-.466-.394-.6-.5-.118-.092-.33-.164-.2-.4zm-2-1.1c-.3.3-.4.3-.8.4s-1.4.1-1.6.1c-.2-.1-.422.013-.323-1.097-.013-.982.054-1.33.124-2.003.1-.1.2-.1 1.1-.1s1.296.03 1.64.499c.232.27.26.421.36 1.001-.048.62-.168.908-.5 1.2zm22.9 7.1c-1.789-1.473-3.247-4.128-4.7-5.9-.1.1-.1.7-.1 2.4 0 1.3 0 2.6-.1 2.9-.1.7-.1.7-1 .7-.671.108-.838-.02-1-.4v-5.1c0-4.7 0-5.2.1-5.3l.2-.2c.1 0 .5-.1 1-.1 1 0 1.1 0 1.5.5 1.484 1.708 2.79 3.858 4 5.4.1-.1.1-.6 0-.9v-.8c0-.3.1-1.3.1-2.2 0-1.1.1-1.7.1-1.8.1-.2.5-.2 1.1-.1.9.1.8 0 .9 1.9.07 3.035.047 6.087-.2 8.8-.1.2-.3.2-1.1.3-.4 0-.7-.1-.8-.1zm-44-16.5c-.6-.1-.8-.2-1.2-.4-.2-.1-.5-.3-.6-.3-.1-.1-.3-.2-.4-.3-.3-.2-1.1-1-1.3-1.4-.5-.7-1-1.9-1.2-2.6s-.4-1.6-.4-2c0-.2-.1-.6-.1-.8-.1-.5-.1-2.4 0-3.1.1-.8.2-1.5.4-2.1.1-.6.2-.7.5-1.3.1-.2.1-.4.2-.4.1-.2.6-1.2.8-1.4l.4-.4c.2-.3.6-.6.9-.8.3-.3.8-.6.8-.6l.4-.2c1.2-.5 3-.9 3.7-.6.1 0 .4.1.6.1.3 0 .6.2 1.4.6.5.3.7.5 1.2 1s.8 1.1.9 1.4c0 .1.1.4.1.7.1.3.1.7.1 1 0 .5 0 .6-.1.7l-.1.2h-1.1c-.8 0-1.1 0-1.2-.1s-.2-.6-.2-.9-.1-1.1-.4-1.5c-.5-1.1-2-1.5-3.3-.8-.5.3-.9 1.1-1 2.1-.1 1.4-.2 3.6-.1 5.5v2.4c0 .1.1.4.1.7 0 .7.3 1.4.7 1.8.3.4.5.4 1.1.5.4.1.6.1.8 0 .1 0 .3-.1.4-.1.2 0 .8-.3 1-.5.3-.3.4-.4.4-1.5 0-.8.1-3.8.1-4.4 0-.1.1-.2.2-.3l.2-.2h1.7c.9 0 1.7 0 1.8.1.3.1.3 0 .3 4.3v4.7c0 .6 0 .7-.1.8s-.1.1-.3.1c-.3-.1-.9-.7-1.7-1.6-.5-.6-.6-.6-.9-.2-.1.1-.2.3-.3.3l-.1.1c0 .1-.5.6-.8.8s-1.3.7-1.7.7c-.2 0-.5.1-.6.1-.7.2-1.7.2-2 .1zm38.6-.5c-.1 0-6.4-.1-14.2-.1-12.3 0-14.1 0-14.2-.1-.2-.1-.2-.1-.2-.5-.1-.9 0-1 1.3-1.1 11.527-.196 20.313.089 32.1.1 3.6 0 6.6 0 6.7.1.3 0 .4.3.4.9 0 .4 0 .5-.1.6l-.1.1zm12.2-11.3c-.307-1.067-.974-2.013-1.6-2.8-.6-.5-.8-.7-1.3-.9l-.5-.2h-2.6c-2.5 0-3.2 0-3.3.1 0 0-.1.2-.1.4-.1.3-.1 1.3-.1 4.1 0 2-.1 4.1-.1 4.5 0 .8.1 1.8.2 2s.6.3 1.3.3h2c2.5.1 3.1 0 4.2-.8 1-.6 1.4-1.3 1.7-2.8.308-1.552.417-2.53.2-3.9zm-3.3 2.1c.082.816.02 1.544-.2 2.3-.1.3-.2.6-.4.8-.796.679-1.592.858-2.6.9-.1 0-.2-.1-.3-.2-.17-1.874-.148-4.45-.117-6.321.022-1.011.018-1.279.418-1.379.2-.1 1-.1 1.3 0 .872.068 1.187.679 1.5 1.4l.2.7zm-28.3-2.4c0-.1 0-.2.1-.4.2-.6 0-1.3-.7-2.2-.3-.4-.6-.7-1.1-.9l-.3-.2h-6.9l-.1.1c-.1.2-.2 1.6-.2 6.8 0 3.2 0 4.2.1 4.2 0 .1.2.1.4.2s.5.1 1 .1h1c.2 0 .4 0 .5-.1l.1-.1v-4.4c.1-.2.5-.3 1.1-.2 1.3.1 1.7.5 1.8 1.9.1 2.5.1 2.7.2 2.8s1.2.3 1.6.2c.2 0 .6-.1.9-.1s.6-.1.7-.1c.1-.1.1-.2.1-1.5 0-.8 0-1.8-.1-2.2 0-.6 0-.7-.1-.9-.1-.1-.1-.3-.1-.3 0-.1-.2-.4-.6-.6-.2-.1-.3-.3-.3-.3 0-.1.2-.3.4-.5.2-.4.5-1 .5-1.3zm-3.2.2c-.1.6-.4.8-1.2 1-.3.1-1.4.1-1.7 0s-.3-.1-.3-1.7c0-1.2 0-1.5.1-1.6h.9c.8 0 .9 0 1.1.1s.4.1.4.1c.1 0 .2.1.3.2.2.2.2.3.3.8.2.6.2.7.1 1.1zm20.6 7.6c-.4-.1-.7-.2-.8-.4-.1-.1-.2-.3-.3-.5-.82-1.213-1.497-2.37-2.2-3.6 0 0-.1-.2-.5-.6-.1-.1-.2-.1-.3 0v.9c.1 1.3 0 3.8-.1 3.9-.1.2-.4.2-1.1.2-.4 0-.5-.1-.5-.1-.1-.1-.1-.9-.1-4.5v-5.4c0-1.2 0-1.2 1.1-1.2.7 0 .8 0 1 .1s.3.2.6.7c1.1 1.737 2.323 3.47 3.2 5.4.1.3.3.5.4.4s.2-.7.2-1.8c0-1.3.1-4.3.2-4.5s.2-.3.6-.2c.2 0 .5 0 .7.1.2 0 .4 0 .4.1.1.1.1.4.1 1.2.01 2.634-.072 5.267-.1 7.9 0 1.1-.1 1.7-.3 1.8-.1.1-.3.1-.8.1-.4 0-.8.1-1 .1 0 0-.3 0-.4-.1zm-7.2-1.7c-.903-2.97-1.764-5.936-2.6-8.8 0-.1-.4-.7-.6-.8-.4-.1-2.3-.1-2.4 0-.2.2-.8 1.6-.9 2.3-.796 2.723-1.704 5.28-2.5 7.8-.3.9-.3.9-.1 1s1.5.1 1.7 0c.1-.1.2-.3.4-.8.207-.711.403-1.322.8-1.9h2.5c.2 0 .4.1.4.4.128.762.529 1.558.8 2.2.1.1.5.1 1.4.1 1.2 0 1.2 0 1.4-.1.337-.341-.149-.938-.3-1.4zm-3.7-2.6c-.1.2-2 .1-2.2 0-.003-.806.324-1.546.6-2.3 0-.2.4-.9.5-.9s.3.1.3.3c.262.84.57 1.556.8 2.4z" fill="#fff"/></svg>