<?xml version="1.0" encoding="utf-8"?><svg version="1.1" id="Layer_1" xmlns="http://www.w3.org/2000/svg" x="0" y="0" viewBox="0 0 144 144" xml:space="preserve"><style>.st1{fill:#FFFFFF}.st2{fill:#010101}</style><circle cx="72" cy="72" r="70.2" fill="#E5832B"/><path class="st1" d="M32.3 39h82.3v74.8H32.3z"/><path class="st2" d="M70.1 134l-.8-.1c-.9 0-1.1-.1-1.5-.6-.3-.4-.3-.4-.3-.9l.2-.7.3-.7.3-.8.2-.8.3-1.4.7-2.8.4-1.3.3-1.3.3-1 .3-1 .3-1.1c.3-.7.3-1.1 0-1.3-.2-.2-.4-.1-1.8.9l-.5.3-.6.5-.5.4-.6.3-.6.4-1.3.8-.6.4-.8.5-.7.5-.5.3-.6.4-.5.3-.5.2c-.5.3-1.4.5-1.7.4-.4-.2-.5-.5-.2-1.2.3-.9.3-1 .1-1.1l-.8-.1-1 .3-1.2.3-1.3.3-1.2.3-2.3.6-1.5.4-1.4.4c-.7.2-1.7.3-2.1.1-.2-.1-.5-.5-.5-.7l.2-.5.2-.5.2-.4.3-.6.4-.7c.2-.3.3-.7.2-.9l-.5-.3a4 4 0 00-2.7-.1l-1.7.3-1.5.3a5 5 0 01-1.3.2l-1.6.3-1.5.3-1.3.2-1.5.3-1.1.2h-1c-.5-.1-.6-.2-.9-.5-.6-.7-.3-1.5.8-2.4l.8-.6.5-.3a5 5 0 001.2-.8c0-.1.1-.1-2.3-.1-1.8 0-2.1 0-2.2-.2-.2-.2-.2-.6-.2-8v-7.8l-.2-.2a.8.8 0 00-.4-.2.8.8 0 01-.4-.2l-.7-.3-.6-.3-.7-.3-.6-.3-.4-.2-.9-.3-2-.9c-.4-.1-.3-.7.3-1.2.5-.4.7-.7.5-.9l-.2-.1-.7-.3-.7-.3a2 2 0 01-.6-.2l-.6-.2a4 4 0 01-.7-.2l-1-.2-.8-.3-1.1-.4-2-.8-.9-.3a2 2 0 00-.6-.2 1 1 0 00-.6-.2l-.9-.4-.7-.3-1.8-1-.7-.5c-.4-.3-.4-.3-.2-.6.2-.4.7-.7 1.3-.9l.7-.2.8-.2 1-.3 1-.3 1-.3 1.1-.3 1.2-.3 1.4-.3a3 3 0 001-.3l.7-.3.8-.3.6-.2.5-.2.5-.3c.5-.3 1.5-1.2 1.5-1.6.1-.5-.1-1.2-.4-1.7a13.7 13.7 0 00-2.9-2.9l-.5-.3-.6-.4-.7-.4-.2-.1-.4-.3c-1.3-.7-3.4-2.5-4.1-3.6l-.6-1.1c-.2-.4-.2-.7-.2-1.1 0-.5 0-.5.4-.8.4-.4.8-.4 1.7-.1l1.7.2c.9 0 1 0 1.3-.2.5-.3.5-.6.1-1.4-.4-.7-.8-1.4-1.5-2.2l-.6-.7-.6-.8-1-1.6-.3-.6-.2-.8c0-.5 0-.6.4-.9.3-.3.5-.4 1-.4 1.2-.1 1.2-.1 1.2-.5l-.1-.4-.6-.7-.6-.8-.2-.3-1.7-1.8a13 13 0 01-2.9-3.7c-.2-.7-.1-1.3.3-1.7l.3-.3h1.1c1.1 0 1.1.1 1.8.4 1.4.7 3.5 1.8 3.8 1.8l.7.2.9.3.7.2.8.3.9.3c.6.3.6.1.6-1.5 0-1.2 0-1.4.2-1.6.2-.2.3-.2.7-.2l.8.2.6.3.6.3.6.3.6.4.4.2.4.2.6.4c.2.1.5.2.6.4l.5.2c.2 0 .2-.1.2-8.5l.1-8.8c.1-.3.2-.4.5-.4l8.3-.1c7.7 0 7.9 0 8-.2.1-.3 0-1.2-.2-1.9l-.3-1.4-.2-.9-.3-.8c-.1-.3-.2-.8-.4-1a2 2 0 01-.2-.6l-.2-.8a12 12 0 01-.5-2.3c0-.7.4-1.1 1.2-1.1.5 0 .7.1 3.2 2.8l4.1 4.3 2.7 2.8c1 1 .9 1 2.2 1 1.5 0 1.8-.1 2.4-.6l.6-.6c.3-.5.6-1.5.6-2.3l.3-1.5c.2-.5.2-.7.1-1.9l-.1-1.4-.1-1.5-.2-2.1c-.1-.8 0-1.2.4-1.4.5-.2.9-.1 1.3.5 1 1.3 1.3 1.6 1.8 1.9 1 .5 2 .3 2.3-.5l.2-.4.2-.5.3-.8.3-1 .3-1.1.3-1.5.3-1.5.3-1.3.3-1.3.2-.7.2-.7.4-.9.3-.6.3-.5a5 5 0 011.6-2.2c.6-.5 1.6-.6 2.1-.1.4.3.8 1.1.9 1.8l.3 1.1.8 2.6.3 1.2.3 1 .3 1 .3 1.2.3 1.3.2 1.1.4 1.5c.3.8.4 1 .9 1.5l1.3 1c.6.3.8.4 1.3.4.6 0 .7 0 1.2-.4.6-.4 1.5-1.3 2-1.9l.7-.6c.3-.2.3-.2.7 0 .7.4.8 1 .4 2l-.4 1.3-.3 1.4-.2 2.1-.2 2.4-.1 1.3c0 .8.5 1.8 1.1 2 .5.2 2.9.2 3.2 0l.8-.4.6-.4.2-.2.4-.3.7-.5 2.2-1.8.7-.6 3.2-2.9a67 67 0 013.5-3.3c.3-.3.5-.3.8-.3.4.1.9.4 1 .8l-.1.5-.8 2-.3.9-.2.8-.3 1c-.2.5-.2.8-.3 2.5v2.2c.1.1.7.2 7.5.2 7.2 0 7.4 0 7.6.2l.2.2v15.8h.4l1-.3.9-.4.7-.3.6-.2.6-.2.7-.3.9-.4c.9-.4 1.7-.4 2.1.2.3.4.3.6.1.8l-.8 1.2-.2.3c-.2.2-.2.3-.2.5s.1.2.4.2l1-.3.7-.3 2-.9.6-.2.7-.3.7-.3.6-.2 1-.4.9-.3a3 3 0 011-.2c.6 0 .7 0 1 .4.5.6.5.8.2 1.9-.5 1.8-1.3 2.9-3.7 5-1.1 1-1.6 1.6-1.4 2 .1.3.5.4 1.2.4.6-.1 1.1.1 1.3.5.2.3.1 1.1-.1 1.3l-.4.5-1.1 1.5-.6.9a3 3 0 01-.5.7l-1.4 2c-.4.6-.5 1.3-.3 1.5.2.2 2.4.1 3.2-.1l2-.2h1.4l.4.3c.5.3.9 1.1.8 1.3-.2.5-.5.8-2.3 2l-1.1.8-.5.3-.9.6-.9.6-.4.3-.2.1-.5.3-.6.4a3 3 0 00-.7.5l-.8.5-.5.4-.3.2-.4.2-.9.7-1 1c-.4.4-.4.5-.5 1.1v1.2c.1.5.1.6.9 1.3.4.4.9.9 1.1.9l.5.3.6.3.4.2.6.3c.3.1.7.2.9.4l.9.3.9.2 1.6.3 1.8.3 1.1.3.9.2.7.2c.4.1.5.2.5.6 0 .4-.2.7-.7.9l-.5.3-.3.2-.7.3a12.7 12.7 0 01-2.6 1.1l-.7.3-.9.3-.5.2a4 4 0 00-.7.2l-.9.3-.6.2-1 .4-1.3.5-2.2 1.1c-.2.2 0 .4.3.4.4 0 1.7.6 1.8.9v.9l-1.1.9-.6.4-2.7 1.7-1 .5-1 .5-.8.5-.3.3v16.4l-.2.2c-.2.2-.3.2-1.7.1-1.5 0-1.8 0-1.3.3l.6.5c.3.3.3.4.3.8 0 .8-.2 1-1.7 1.3-.9.2-1.3.3-2.2.3l-1.5-.1a4 4 0 00-1.3-.2l-1.6-.3-1.5-.3-1.6-.3-1.6-.3-.9-.1-.3.3c-.4.3-.4.7-.2 2 .1.8.1 1-.2 1.7-.2.4-.3.6-.9.7-.4.1-2.4-.1-3.4-.4l-1.2-.3-.8-.3-.5-.2-2.1-.9c-.7-.4-1.9-.4-2.2-.1-.2.2-.4.9-.3 1.7.1.7.1.7-.2 1.1-.5.6-.9.6-1.8-.2l-.7-.5-.3-.2-.6-.4-.8-.5a3 3 0 00-.7-.5l-.9-.6-.8-.5-.3-.2-.5-.4-2.1-1.4-1.2-.8-.6-.4c-.2-.2-.4-.2-.8-.2-.9 0-.9.1-.9 1.8a45.5 45.5 0 01-.5 5.4l-.3.9-.3 1.3-.2 1-.2.9-.3 1.2a5.9 5.9 0 01-2.3 3.3c-1.1.5-1.7.6-1.9.5zm.6-1.4c.3-.1.7-1 .8-1.7l.3-1.2.3-1.1.2-1.1.4-2.3.3-2.1c.1-.4.4-2.8.4-3.8l-.1-1c-.1-.1-.2-.1-.2 0-.2.2-.4 1.2-.4 2l-.1 1.3-.2 1-.2 1-.3 1.3-.3 1.2-.3 1-.3.9-.3.9-.2.6-.2.6-.8 1.9c-.2.5-.2.6.3.8l.9-.2zM98 122.3l-.3-.5c-.2-.2-.3-.3-.3-1s0-.8.3-1.4c.4-.6.7-1 1.1-1.1l2.8.1c2.8.1 7.9.2 8.9.1l.6-.2c-.1-.4.4-.4-21.5-.4l-9.5.1c0 .1.3.4.8.6l1.1.8.7.5.7.5.7.5 1.2.9c.3.3.6.2.8-.3.2-.5.5-.9 1.4-1.3.6-.3.7-.3 1.6-.3l1.3.2 1.1.3.8.3.8.3 2.4.8 1.2.4 1 .3c.1.2.3.1.3-.2zm-48.9.2l.7-.2 1.1-.3.9-.2 1.1-.3 1.3-.4 1-.2.8-.2a4 4 0 001.2-.3l.8-.2.8.3 1.2.6c.3.3.4.4.3.7-.1.7.2.8.8.3l.8-.6.9-.6.7-.5.7-.5.6-.4.8-.6.8-.5.2-.2-14.1-.1-15.1.1c-1.1.1-1.5.3-2.2.9l-1.1.8c-.2.1-.2.4-.1.4l3.3-.5 1.5-.2a15 15 0 012-.2l3.7-.5h2c1.3.3 2.4 1.3 2.6 2.1 0 .4-.2 1-.4 1-.1 0-.3.5-.2.7l.6-.2zM46.8 112c.2-.2.3-.8.5-1.8l.2-1.3.3-1.4.3-1.4.2-1.2.3-1.8.4-1.8.6-3.1.3-1.5.3-1.4.3-1.5.2-1.3c.5-2 .5-2.1.4-2.4-.1-.2-.1-.2-1-.2-.7 0-.9 0-1.1.2-.2.2-.5 1.2-.6 2.2l-.3 1.5a14 14 0 00-.2 1.2l-.2 1.3-.4 2a6 6 0 01-.6 2.2c-.2.2-.5 0-.6-.2L46 99l-.3-1.8-.3-1.8-.2-1.4-.2-1a8.9 8.9 0 00-.6-2.7c-.2-.2-.3-.2-.7-.1-.6.1-.7.3-.7.9l-.3 1.7a5 5 0 00-.2 1.3l-.2 1.2-.3 1.4-.3 1.3-.2 1.4c-.1 1.2-.4 1.7-.8 1.2-.2-.3-.5-1.1-.6-2.2a6.3 6.3 0 00-.4-2.1l-.2-1.2-.3-1.6-.3-1.8c-.1-.9-.1-1.1-.4-1.3-.2-.2-.3-.2-1.6-.2l-1.4.1v.7l.2 1.3.3 1.7.3 1.7.3 1.9.3 1.8.2 1.4.2 1.4.3 1.8.3 1.8.3 1.8.3 1.8c.1 1.1.4 2.3.6 2.4h1.4c.3-.1.4-.4.6-1.3l.3-1.3.3-1.2.3-1.5.3-1.5.2-1.1.2-.9.2-.6c.2-.2.2-.2.3-.1l.3 1.1.2 1 .2 1.1.3 1.5.3 1.5.3 1.6.2 1.1c0 .4 0 .5.2.6.4.4 1.4.4 1.6.2zm64.1 0c.1-.1 0-1.9-.1-2l-30.2-.1-30.2.1c-.1.2-.1 1.8.1 2 .2.2 60.3.1 60.4 0zm-51-4.4c.1 0 .2-.2.2-1s0-1-.2-1l-1.7-.1c-2.1 0-1.9.2-1.9-2.5 0-2.6-.1-2.4 1.8-2.4l1.5-.1.1-.9v-.7h-1.6c-1.3 0-1.6-.1-1.7-.2l-.1-1.5c0-1.8-.1-1.7 2-1.8 1.3 0 1.7-.1 1.7-.2l.1-.9c0-.7 0-.7-.2-.8l-3.7-.1c-3.3 0-3.4 0-3.5.2v13.9c0 .2 7 .2 7.2.1zm9-.3l.5-.3.9-.9.3-.6c.3-.5.3-.5.3-1.5 0-.9 0-1-.3-1.6-.3-.7-.9-1.3-1.3-1.4l-.2-.2c0-.1-.1-.2-.3-.2-.2-.1-.5-.2-.6-.4l-.5-.3a.2.2 0 01-.2-.2l-.5-.3c-.8-.4-1.3-.7-1.7-1.1-.5-.5-.6-.7-.6-1.3 0-.7.3-1.1.9-1.4.6-.3.6-.3 2.8-.2 1.2.1 1.4.1 1.6-.1.2-.1.2-.2.2-.9 0-.6 0-.7-.3-.8l-2.7-.1c-2.1 0-2.5 0-3 .2-.9.3-1.7 1-2.2 2.1-.3.6-.4.9-.4 1.5 0 .7 0 .8.2 1.1l.2.5a10 10 0 002.1 2l.4.2 1.4.8c.6.3.9.5 1.4 1 .4.4.4.4.4.9 0 .7-.2 1-.9 1.4l-.5.3h-2.1l-2.2.1a6 6 0 000 1.9l3.2.1h3.1l.6-.3zm7.9.2l.1-6 .1-6.1c.1-.2.2-.2 1.1-.2l1.2-.1c.2-.1.2-.1.2-.7 0-1 .3-.9-4.3-.9a20 20 0 00-4 .1l-.1.9v.7h1.2c1 0 1.3.1 1.4.2.2.1.2.5.2 6.1l.1 6c.4.2 2.7.2 2.8 0zm11.4.1l.1-1v-.9h-1.7c-1.4 0-1.8-.1-1.9-.2-.1-.1-.2-.4-.2-2.2l.1-2.2c.1-.3.6-.4 1.9-.3l1.3-.1c.2-.1.3-1.3.1-1.5l-1.6-.1c-1.2 0-1.5 0-1.6-.2-.1-.1-.2-.4-.2-1.2 0-2.2-.2-2.1 2-2.1l1.7-.1a4 4 0 00.1-1.6l-.1-.2h-7.4v13.9l3.7.1 3.7-.1zm5.1 0v-2.7c0-3.2-.1-3 1.2-3l1.1.1c.4.1.8.6 1.1 1.1.2.5.3.5.3 2.4l.1 2h2.5c.2-.1.2-.3.1-2.1l-.1-2.3c-.1-.4-.7-.9-1-1-.4-.1-.7-.5-.7-.8 0-.2.1-.3.3-.4a5 5 0 001.4-1.5l.2-.4c.3-.3.4-.9.3-1.8-.1-1.6-.7-2.5-2-3.1-.6-.3-.9-.4-1.9-.4-1.5-.1-5.5-.1-5.7.1l-.1 7v6.9l.2.1 2.7-.2zm.3-7.2c-.2-.1-.2-.4-.2-2.7 0-2.4 0-2.5.2-2.7l.6-.2c.6 0 2 .4 2.4.8.9.7 1.2 2.1.6 3.3-.3.7-.5.9-1.2 1.3-.4.2-.6.3-1.4.3-.7.1-.8.1-1-.1zm10.8 7.2l.1-2.8-.1-3.1c0-.6.2-.7.6-.5.3.1.4.3.5.6l.6 1.2a68 68 0 011.9 3.7l.5.9h2.2l.2-.1v-6.9l-.1-7-1-.1c-.8 0-.9 0-1 .2l-.1 3.8v3.8l-.3.2c-.3 0-.8-.7-1-1.2l-.3-.6-.3-.6-.3-.7a.8.8 0 01-.2-.4l-.3-.8-.3-.8-.1-.2-.3-.6-.3-.6-.3-.6-.4-.7c-.3-.2-.4-.2-1.1-.2l-.9.1v14c.1.2 2 .1 2.1 0zm-75.1-8.5l.1-4.7c0-5.1 0-5-.6-4.8l-1 .2-1.3.3c-.5.2-.8.2-4.2.2-3.8 0-4.1 0-4.1-.4s.3-.5 2.8-.6l2.5-.1 1.8-.2 2.2-.4 1-.2c.9 0 .8.6.8-7 0-6.2 0-6.8-.2-6.9-.2-.1-3.5.1-4.4.3-.8.2-2.9.3-3.2.2-.5-.1-.5-.9-.1-1.1l1.7-.1 3.2-.1c1.8-.1 1.9-.1 2.7-.5l.2-.1v-2.9c0-2.7 0-2.9-.2-3.1-.2-.2-.5-.2-2.3-.3-2.2-.1-2.8-.2-3.6-.4l-1.8-.2c-1.1-.1-1.4-.1-1.6-.3-.4-.3-.4-.4-.5-.6 0-.3.3-.4 1.4-.4l2 .2 2 .3c1.5.1 2.4.2 2.8.4l.5.1c.1-.1-.2-.4-1.4-1.4l-1-.8c-.5-.7-1.5-1.4-1.9-1.8l-.6-.5-.5-.3-.3-.2-.4-.3-.5-.4-.3-.2-.4-.3-.7-.6-.7-.6-.3-.3-.3-.2-.7-.6a6 6 0 01-1.4-1.2l-.8-.7c-.6-.5-.9-.9-.7-1.1.1-.1.2-.1.3.1l.4.3.6.3.7.5 1.4 1.1.3.2.4.3.7.6.6.5.5.4.3.2.3.2.6.3.5.4 2.6 1.9 1.8 1.5 1.1.9.4.2.4.3c.3.3.6.4.7.2a5 5 0 00-.5-2.3l-.2-.6-.3-.6c-.2-.2-.3-.7-.3-.9a1 1 0 00-.2-.6l-.3-.6-.2-.5-.3-.6-.2-.5a6 6 0 01-.8-1.6c0-.2.2-.4.6-.4.4 0 .5.1.7.8l.3.6.2.5.3.6.2.6.3.7.3.7c.1.4.2.6.4.5v-4l-.4-.2-.6-.3-3.5-1.6.1.6.2.8c0 .4-.4.9-.9 1a7 7 0 01-2.8-.2l-1.1-.3a.8.8 0 01-.5-.2l-.8-.3-1-.3a2 2 0 00-.6-.2l-1.5-.6-1.4-.6-.6-.2-.6-.2a.8.8 0 01-.4-.2 1 1 0 00-.5-.2c-.4 0-.3.3.3.9l1.5 1.6 1.3 1.3c1.8 1.5 2.3 2.2 2.4 3.2.2 1.2-.1 1.8-1.2 2.5-.6.4-.7.6-.3 1l.6.7.7.9 1.5 2.1.5.8.3.6.3.7.2.7c0 .5-.7 1.5-1.6 2.1l-.5.3h-1.3c-1.6 0-1.5 0-1.5.1l.6.5 1.2.8.9.6a12 12 0 011.6 1.2l1.7 1.3a10.2 10.2 0 012.6 2.8c.2.3.7 1.3.8 1.9l.1 1.5c0 1 0 1.1-.2 1.4-.3.4-1.5 1.4-2.1 1.7l-.8.5c0-.3-.3-.1-.5-.1l-.7.3-.9.3-.8.3-1.3.3-1.4.3-1.4.3-1.3.3-1 .2c-.7.1-1 .2-.9.4.1.2.6.4.9.4l.8.3.8.3.6.2.9.4.6.2.6.2.9.3.7.3.8.3.6.2.7.3.7.3.7.3.7.3.6.3c1.8 1.2 2.1 1.8 1.5 2.6-.5.6-.4.9.6 1.1l.6.2.8.3 1.1.4c.5.3.9.4 1 .2zm88.4-1.1l1-.5a6 6 0 001.1-.6l1.1-.6c.8-.4.8-.5.2-1.3l-.7-.9c-.2-.3 0-.8.4-1.3a5 5 0 011.6-1l.7-.3.9-.4.8-.3.6-.2.8-.3.9-.3.7-.2 1.2-.4 1.1-.3.9-.2c.4-.1 1.1-.3 1.8-.7l.2-.3c0-.2.1-.2-1.6-.5l-1.8-.4-.8-.2-.8-.2-.9-.3a1 1 0 01-.6-.2l-.7-.3-.6-.3a.8.8 0 00-.5-.2l-.6-.3-1.2-.7a5.4 5.4 0 01-2-2.4c-.3-.6-.3-.8-.3-1.5 0-.6 0-.9.2-1l.3-.7c.3-1 1.7-2.4 3.1-3.1l.7-.4.5-.3.2-.1.4-.3 1.2-.9.3-.2.5-.3.7-.6.8-.6.8-.6c1-.6.9-.7-1-.6-1.6.1-1.7.1-2.1-.2l-.6-.4c-.2-.2-.6-1.5-.6-2 0-.4.4-1.6.6-1.9l.3-.5.5-.7 1.7-2.3.5-.8-.4-.2c-.9-.2-1.7-1.1-1.6-1.8l.2-.5.2-.5.2-.5.6-.8.9-1.3.6-.9 1.3-1.8c.7-.9.8-1.1.6-1.1l-1.6.6-.6.3-.5.3-.4.2-.5.3c-.4.2-1.5.7-2.4.8l-.6.3-.5.2-.7.3c-.4.2-.8.3-1.3.3h-.7l-.3-.4a2 2 0 01-.5-1.7c.1-.8-.1-1-.7-.6l-.8.4-2 .8-.7.3-.4.2c-.2.2-.2 2.3 0 2.3l.8-.7c.7-.7 1.4-1.1 1.5-1l.1.3c0 .2-.2.5-.7 1.1l-.5.6-.5.6-.2.3-.2.4-.2.3v4.2l.5-.5a13.4 13.4 0 012.9-2.3l.4-.3.3-.2.5-.4.3-.2.4-.3.7-.6.7-.6.7-.5.7-.6.4-.3.5-.3.5-.3.4-.2c.2-.2.4-.2.7-.2.5 0 .6.4 0 .9l-.5.4-.5.3-.5.3-.3.2-.3.2-.5.3-.6.4-.2.1-.4.3-.4.3-.3.2-.4.3c-.1.1-.2.3-.4.3l-.6.3-.6.5-.6.5c-.2.2-.4.4-.6.4l-.8.6-.9.8-1 .9-.7.6v.5c0 .4.1.5.2.5.3 0 1.3-.4 1.6-.6l.8-.3.8-.3.6-.2.7-.3.7-.3.7-.3.5-.2.6-.2c.5-.2.7-.1.7.3 0 .3-.2.5-.7.7l-.6.3-.5.3-.6.3-.7.3-.5.2-.5.3-.7.3-.7.3-.8.3a2 2 0 01-.6.2l-.5.3-.3.3v1.8l.1 1.9h.9l4.1-.1c3.3 0 3.4 0 3.5.2.2.2.2.2 0 .4-.2.4-1.3.6-2.9.6l-3.2.1-2 .1-.3.1c-.2.1-.2.5-.2 7l.1 6.9c.1.1.7.2 2.7.3l2.5.2 2.3.3c1.6.1 1.9.2 1.9.7 0 .6-.3.6-3.1.4-2.5-.2-6.2-.4-6.3-.3l-.1 9.6c.2.7.3.6.9.3zM52.5 86.7l.1-9.9v-9.9c0-.4.8-.6 1.2-.2l.7.4.5.3.9.4c.2 0 .3-.1.4-.3l1.1-1.7c.5-.8 1.1-.7-6.5-.7h-6.8v.2l.2.4.4.6.5.9c.2.4.3.5.5.5l1.8-1c.4-.3.9-.3 1.1-.1l.1 10.1.1 10.1c.1.1 3.5.1 3.7-.1zm53 0c.1-.1 0-1.5-.1-1.6-.2-.2-49.4-.2-49.5 0l-.1.8.1.8 24.9.1 24.7-.1zm-28.2-4.5c1-.2 2.2-.9 2.6-1.6.6-1.1.6-.6.6-6.6l-.1-5.6a12 12 0 00-2.7.1l-.1 4.9c0 5.5 0 5.3-.8 5.9-.8.7-1.8.7-2.8 0-.8-.5-.7-.2-.7-5.8 0-4.8 0-4.9-.2-5h-2.5c-.2.1-.2.5-.1 5.6 0 5 0 5.5.2 5.8.3.6.7 1.1.9 1.2l.2.2.7.4c1.4.7 2.9.8 4.8.5zm21 .1v-3-4.1h.3c.4 0 .6.3.7.9l.3 1.1.2.7.2.6.3.8.3.8.3.8c.1.6.5 1.3.8 1.4h1.6c1.3 0 1.4 0 1.4-.2a2 2 0 00-.3-.8l-.4-.9-.3-.6c-.1-.2-.3-.5-.3-.8l-.3-.7a1 1 0 01-.2-.6l-.4-.9a2 2 0 01-.2-.6 2 2 0 00-.2-.6 2 2 0 01-.2-.6 4 4 0 00-.2-.7c-.3-.5-.3-.9-.1-1l.3-.5.5-1 .5-1 .3-.6.3-.6.4-.6.1-.4c0-.2-.1-.2-1.5-.2h-1.4l-.3.3c-.2.2-.4.4-.4.6-.1.3-.4.8-.8 1.2l-.3.6c-.1.4-.4.6-.8.5l-.2-.1V70l-.1-1.6c-.2-.1-2.6-.2-2.7-.1l-.1 6.9.1 6.9c.1.2.2.2 1.4.1.7.2 1.4.2 1.4.1zm-38.2-.1v-2.6c0-3-.1-2.9 1.2-2.9.7 0 .9 0 1.3.3l.8.8.3.5v2l.1 2.1 1.5.1h1.4v-1.9c0-1.8 0-1.9-.2-2.3-.3-.5-.8-1-1.4-1.2-.5-.2-.6-.6-.1-1l.4-.3c.3 0 1.3-1.2 1.4-1.8.3-1 .2-2.8-.2-3.3l-.3-.5-.3-.3-.5-.3-1.2-.5c-.9-.3-.9-.3-4-.3l-3.2.1-.1 6.8.1 6.8 1.5.1c1.3-.2 1.4-.3 1.5-.4zm.3-6.8l-.3-.3-.1-2.6c0-2.3 0-2.4.2-2.6.2-.2.3-.2 1-.1 1 .1 1.7.4 2.2 1 .4.5.5 1 .4 2.1-.1.9-.1 1.1-.8 1.7-.4.3-.5.4-1.3.6-.7.3-1 .4-1.3.2zm25.2 6.9c.2-.1.2-.2.2-2.3l-.1-2.9c-.1-.9-.1-1.2.3-1.2.3 0 .9.5.9.8l.2.6.4.7.8 1.3.8 1.4.4.6.2.5.2.3c.3.2 2.4.2 2.6 0l.1-6.8-.2-6.8c-.1-.1-2-.2-2.1 0l-.1 3.8-.1 3.9c-.2.3-.5.2-.7-.2l-.4-.6-.3-.6-.2-.5-.3-.6a6 6 0 00-.6-1.1l-.4-.8-.3-.5-.4-.8-.4-.7-.3-.6-.4-.6c-.2-.2-.3-.2-1-.2l-.9.1-.1 6.9.1 6.9h2.1zM41.4 62.9l1.2-.2c.6-.1 1-.2 1.3-.4.6-.4 1.2-.9 1.2-1.1l.3-.5c.3-.4.7-.5.9-.2l.7.8.7.8.3.2c.2 0 .2-.1.2-4.8l-.1-4.9c-.2-.1-3.6-.2-3.8-.1l-.1 3v2.9l-.3.4c-.5.6-1.1 1.1-1.7 1.1-.6 0-1.4-.5-1.8-1.2l-.4-.5V44.4l.3-.5.6-.8c.4-.4 1.5-.9 1.9-.9.4 0 1.2.6 1.6 1 .4.5.4.8.4 2.1l.1 1.1a17.1 17.1 0 003.2-3l-.2-.6c-.2-.6-.5-1.2-1.1-1.7-.7-.7-.9-.8-1.9-1.1-.8-.2-1.1-.3-2.2-.3s-1.4 0-1.9.2l-.7.2-.6.3-.5.3c-.1 0-1.5 1.3-1.5 1.5l-.2.4c-.2.3-.7 1.3-.8 2.1l-.1 7.4v7l.3.8.9 1.4.7.6.4.2.8.3.9.2c.5.4.6.4 1 .3zm55.2-1l.1-.7c0-.5 0-.6-.3-.7l-23-.1-22.9.1-.1.7.1.7 23 .1 23.1-.1zm-42.2-7.1v-2.6l.2-.2c.2-.2.4-.2 1.1-.2.7 0 .9.1 1.3.4l.8.8.3.5v1.9l.1 2H61v-1.9c0-1.3-.1-1.8-.2-2.1l-.1-.4c0-.2-.9-.9-1.1-.9a.6.6 0 01-.6-.6c0-.3.4-.8.5-.8.2 0 .9-.7 1.1-1.1l.3-.5c.2-.3.3-1.9.2-2.7-.2-1-1.4-2.1-2.4-2.3l-1.2-.3-3.5-.1h-2.8V57.3l1.5.1h1.4l.3-2.6zm.2-4.2l-.2-.3v-2.4l.1-2.5c.1-.2.3-.2.9-.2.7 0 .9 0 1.4.3 1.2.6 1.6 1.3 1.4 2.9-.1 1.3-.8 1.9-2.3 2.2-1.1.2-1.1.2-1.3 0zm10.1 6.5c.2-.8.6-1.5.8-1.6h1.9c2 0 1.9 0 2.2.9.4 1.1.2 1 1.6 1 1.4 0 1.5 0 1.1-.9l-.4-1.1-.3-1-.3-1-.3-1-.2-.9-.2-.9-.3-1-.3-1-.3-1.2-.2-.8-.3-1-.4-1.3-.2-.4h-1.8l-.3.7c-.2.4-.4 1-.4 1.4l-.3 1.1-.3.9-.4 1.3-.3 1.1-.2.7-.3 1-.3 1.1-.3 1.1-.3 1a3 3 0 00-.2.9l-.2.8c-.2.5-.1.6.8.5.9-.1.9-.1.9-.4zm1.3-3.8c-.3-.3-.2-.6 0-1.3l.4-1.3c.2-.8.5-1.5.7-1.6h.4c.2 0 .3.2.5.9l.4 1.2.3 1c.2.5.2.6.1.8l-.2.3-1.3.1c-1 .1-1.1.1-1.3-.1zm11.1 4.1v-3.1l.1-3.1c.2-.2.5-.1.7.4l.4.6.1.4.2.5.5.9.3.7.2.4.6 1.2.3.7.4.5 1.2.1h1V51v-6.8c0-.2-.1-.2-1-.2l-1 .1-.1 3.8-.1 3.7-.3.2c-.2 0-.3-.1-.4-.4l-.3-.5-.2-.4-1.2-2.5-1.2-2.4c-.1-.3-.6-1.2-.8-1.3l-.9-.1c-.7 0-.8 0-.9.2v13.3c.6-.2 2.3-.2 2.4-.3zm17.1-.1l1.1-.6c.5-.5.5-.4.5-5.7v-4.9l-.3-.6c-.4-.8-1-1.2-2-1.5-.8-.2-1.1-.2-3.6-.3l-2.9.1v13.6c.1.2 6.8.1 7.2-.1zm-4.1-1.2l-.3-.3-.1-5.1c0-4.5 0-4.9.2-5.1.2-.2.6-.2 1.5-.1.5.1.7.2.9.4l.3.3v9l-.4.3c-.4.6-1.6.8-2.1.6zM52.8 36.9c.2-.2-1.5-2.2-3.3-3.7l-2-2.2-1.7-1.8h-.2l.6 2 .2.8.2.9.3 1.2.3 1.1.2.8c0 .5.2.9.5 1l4.9-.1zm15 0c0-.1-.5-1-.7-1.1l-.1-.3-.2-.4-.4-.6-.5-.8a9 9 0 01-.5-.9l-.5-.8c-.4-.6-.1-1.5.4-1l.9 1.2.8 1.2.3.4.2.4.2.3.9 1.2.2.4.4.5.4.3h1l1.2-.1c.2-.1.3-1.4.3-3.4v-2l-.3-.6a6 6 0 01-.3-.7l-.2-.4-.3-.7-.3-.7-.3-.7c0-.2-.1-.4-.3-.5-.4-.3-.2-.7.3-.7.4 0 .8.4.8.8l.2.6.2.5c0 .4.3.8.5.8s.2 0 .2-1v-3.3c.1-2 0-2.4-.1-2.8a2 2 0 01-.2-.6c0-.3.3-.6.7-.6.3 0 .4 0 .5.4l.1 2.7c-.1 4.7 0 5.9.1 5.9l.4-.5 1.3-1.7.2-.4c0-.1.7-.9.9-.9.4 0 .5.5.1.9l-.2.4-.2.5a40.3 40.3 0 01-2.5 3.1l-.1 2.2c0 1.7-.1 2-.2 2.4l-.2.9c.1.3.3.3 1.5.3s1.4 0 1.7-.2l.4-.3.3-.4 1.7-2.1.5-.6.5-.7a5 5 0 011-1.1c.6-.6.7-.7 1.1-.7.3 0 .4 0 .4.3 0 .2-.2.4-.6.9l-.9 1.1-.6.8-.5.6-.8 1-1.1 1.5h6.9c.1-.1 0-.4-.3-.8-.3-.5-.6-2.5-.6-4.9 0-1.8 0-2.2.2-2.7.3-1 .2-1.3-.3-.8l-.3.2-.4.2c-.3.2-.4.2-1.3.2-1.1 0-1.2 0-2.8-.9a5.3 5.3 0 01-2.1-2.3l-.3-.6a.8.8 0 01-.2-.5l-.2-.5-.3-.7-.3-.8-.3-1-.3-1.1-.2-.9-.4-2a3 3 0 01-.2-1l-.3-1.1-.3-1-.3-.9a2 2 0 01-.2-.6l-.1-.5c-.2-.2-.5-.1-.7.4l-.4.6-.3.6-.4 1.2a4 4 0 00-.3 1.2l-.1.9-.3 1.4-.3 1.4a23.8 23.8 0 01-1.7 5.9c-.5 1.3-.9 1.9-1.4 2.3l-.5.4h-.9c-.8 0-1 0-1.5-.3l-.7-.3-.2-.1-.3-.1c-.2 0-.2.5 0 1 .2.4.3 2.8.3 4.2 0 .9-.1 1.2-.3 1.8l-.3.8-.7.8a3 3 0 00-.7.9l3.6.1 3.3-.3zm31.2 0l.1-1.3.2-1.7.3-1.4.3-1.2.1-.6c0-.3 0-.3-.2-.3s-.5.2-3.8 3l-.6.5-1.5 1.2-.7.5c-.1.1-.3.3-.5.3-1 .6-1.4.9-1.4 1.1.2.1 7.6 0 7.7-.1z"/><g id="Layer_2"><path class="st2" d="M32.7 38.7h81.8v75.7H32.7z"/><path fill="none" stroke="#FFF" stroke-miterlimit="10" d="M30.8 39.2h84.3v77.2H30.8z"/></g><g><path class="st1" d="M58.2 113l-.3-.2-.1-.6.1-.6 17-.1 21.7.1h4.9l.1.2.1.6-.1.6-.2.1H79.9l-21.7-.1zM50.3 112.7c-1-.2-1.9-.9-2.7-2l-.2-.4-.1-.2a3 3 0 01-.4-1c0-.1.3-.3.6-.3l.5-.1c.7-.3 1.1-.1 1.4.5l.8.9 1.1.4c.2 0 .7-.2 1-.5l.3-.5-.1-.6-.2-.3-.2-.3-.2-.3-2.2-2.3-1.4-1.6c-.4-.6-.8-1.1-.9-1.6-.2-.4-.2-.6-.2-1.2 0-.7 0-.7.2-1.1.2-.6.8-1.2 1.3-1.5l.4-.2.2-.1c.2-.2 1.1-.4 1.7-.4l1.1.1c.9.2 1.4.6 2 1.2l.6 1.1.2.6c.1.3 0 .5-.2.6l-1.3.1a.7.7 0 01-.4-.6c-.1-.4-.9-1-1.4-1-.4 0-.9.2-1.1.5-.2.2-.2.3-.2.5.1.7.5 1.2 2 2.6l2 1.9 1 1.5.5 1.7-.5 2c-.3.6-1.1 1.2-1.9 1.6-.9.4-2.1.5-3.1.3zM69 110.4l-.8-.2c-.6-.3-1.8-1.3-1.9-1.8-.1-.2-.1-.3 0-.4.1-.2.2-.3.5-.3.5-.1.7-.1 1 .2l1 .6h.5c.3 0 .3-.1.5-.3.4-.4.5-.3-1.1-1.9l-1.6-1.8c-.3-.5-.4-1.2-.3-1.7.1-.5.2-.7.5-1l.2-.3.4-.3c.9-.5 2.6-.5 3.5 0 .9.5 1.7 1.9 1.3 2.3l-.6.2c-.6 0-.7 0-1-.5-.2-.3-.3-.4-.8-.5-.4-.1-.8.1-.8.3 0 .2.6.8 1.3 1.6l1 1 .4.4.5.9v1.5l-.5 1-.1.2c-.1.2-.9.5-1.4.6-1 .3-1 .3-1.7.2zM92.6 110.1l-.4-.1-.1-3.9v-3.9l.1-.1c.3-.2 1.3-.2 2.2-.1.4.1.5.1.6.3l.5.7.9 1.4.3.6c.2.3.3.5.4.4l.2-.4 1.1-1.9.1-.2.7-.9 1.1-.1 1.1.1.2 1.2v5.6l-.1 1.2-1.1.1c-1.1 0-1.2 0-1.3-.3l-.2-2.9-.1-1.1-.6 1.1-.2.4-.3.5-.3.5c-.3.5-.7.8-.9.8l-.5-.6-.7-.9-.7-1.1-.5-.7-.1 1.7c0 1.7-.1 2.6-.2 2.7l-.5.1-.4.1c0-.2-.1-.3-.3-.3zM83.7 110c-.6 0-.6 0-.6-1.5l.2-6.5.1-.1h3l3.1.1.1.6-.1.7-.1.1h-3.6l-.1.2-.1.4c-.1.5 0 .5 1.3.5 1.2 0 1.5.1 1.6.3l.1.6c0 .5 0 .5-.2.7l-.2.2H87l-1.3.1-.1.3.1.8.1.7 2 .1H90c.4.1.5.2.5.9 0 .9.4.8-3.3.8h-3.5zM76.4 109.9c-.1-.2-.2-1.4-.2-3.7l-.1-2.4c-.1-.1-.2-.2-1.1-.2l-1-.1-.1-.6c-.1-1 .1-1.1 1.2-1l2.5.1c2.4 0 3.6.1 3.7.2l.1.6c0 .8 0 .8-.2.9l-1.7.2c-.5 0-.5 0-.5 1.9 0 2.3-.1 4.1-.2 4.3l-1.2.1-1.2-.3zM59.6 109.9c-.4-.1-.4-.1-.4-1.7 0-1.4 0-1.4-.2-1.8l-.3-.5-1.2-1.5-.5-.7-.4-.6-.4-.6c-.3-.3-.3-.4-.1-.6l.1-.1H59l.2.2.4.5 1.3 1.8c.1.2.3.2.4.1l.4-.5.5-.6 1.2-1.3h1.5c.2.2.1.6-.6 1.3a29.7 29.7 0 00-2.2 2.8l-.1 1c0 1.6 0 2.5-.2 2.8l-.1.2h-.9l-1.2-.2zM50.8 96.9l-1.4-.1c-1.6 0-1.6 0-1.5-.9.1-.7.1-.7.3-.8h51.1l.1.2.1.6-.2.8H83.2l-20.5.1c-5.9.2-11.6.2-11.9.1zM45.2 88.9c.4-.1.8-.4 1.2-.8l.5-.8.1-.2.4-1.6-.1-.5-.1-.5c0-.3-.3-.7-.6-1.1l-.4-.5c-1-.9-1.4-1-5.2-1l-3.2.1c-.2.2-.2 1-.2 7.6l.1 6.9.2.2 1.2.1h1.5c.3-.1.3-.1.3-3.5v-3.2l.1-.3.7-.1.8.1.9.9c.2.9.2 1.6.2 3.5v2.2l.1.1.2.2h1.4l1.5-.1.1-1.7c0-3.3 0-3.3-.2-4-.2-.7-.4-.9-.9-1.3l-.7-.3-.4-.1c-.1-.1.2-.2.5-.3zm-2.3-1.4l-1.1.2c-.9 0-1.1 0-1.2-.3-.1-.3 0-.8.1-1.6l.1-1.3v-.6l.2-.1 1-.1c.8 0 .9.1 1.2.2.7.3 1 .8 1.1 1.5-.1.9-.5 1.6-1.4 2.1zM65.1 93.6l-1.2-.1-1.2-.2-.1-3.9.1-4 .1-.2h.9l1 .1c.1.1.2 1.6.2 4v2.2l.2.2 1.8.1c2 0 1.8 0 1.8.8s.1.7-1.6.8l-1.8.1-.2.1zM89.8 92.7a1 1 0 01-.2-.5l-.4-1.1-.3-.9-.5-1.3-.3-.7-.3-.8-.2-.5-.3-.6-.2-.5c0-.2-.3-.7-.5-.8l-1.2-.2c-.8 0-.9 0-1.1.3l-.3.5-.2.4-.2.4-.2.5-.2.4-.2.6-1.6 3.8-.6 1.5c-.1.3 0 .3.8.3.7 0 .7 0 .8-.2l.2-.5.2-.6.2-.5.2-.3a13 13 0 012.8 0l.3.2.6 1.3c.1.3.3.5.7.6.5.1 2.1 0 2.2-.1.2 0 .2-.4 0-.7zm-4.3-2.6c-.4.1-.6.1-.8 0l-.5-.1c-.6.1-.6.1-.6-.1l.1-.3.8-1.9c.2-.5.3-.6.5-.6s.2.2.3.7l.1.5.1.3.2.6c.4.7.3.8-.2.9zM93 93.6l-.2-.1-.1-1.3c0-1.7-.1-2.2-.5-2.7l-1.5-2-.3-.4-.2-.4-.2-.3-.3-.5-.1-.4c.2-.2 1-.3 2-.2l1.1.1.4.4.4.5.5.6.6.7.3.4.2.3.1-.2 1.1-1.2 1.2-1.2.2-.2h.9c1 0 1.2 0 1.2.3 0 .1-.2.4-1.1 1.2l-1.3 1.4-.8.9-.5.5v1.4c0 1.6-.1 2.3-.2 2.5l-1.2.1-1.7-.2zM77.1 93.5h-.6l-.1-.2a16 16 0 01-.8-2.1l-.4-1.5-.1-.4-.1-.5c-.1-.4-.1-.6-.3-.4a3 3 0 00-.3.9l-.1.5a4 4 0 00-.4 1.2l-.2.8-.2.7c-.1.3-.3.9-.5 1l-.7.1c-.6 0-.6 0-.8-.2-.2-.2-.3-.6-.4-1.1l-.1-.5-.4-1a2 2 0 00-.2-.6l-.1-.5-.1-.4-.2-.5a1 1 0 00-.2-.6l-.4-1.3a2 2 0 00-.2-.6c-.1-.4-.2-.8 0-1l1-.1c.9 0 .9 0 1.1.2l.2.4.3 1 .3.9.1.3.1.6.1.6c.1.3.4.2.5-.2l.5-1.6.4-1.2.4-.9c.1-.2.1-.2.6-.3l.9.1c.1.1.6 1.1.7 1.7l.4 1.1.2.6.2.6.1.4.2.5.3-.4.2-.5.7-1.9.7-1.8.7-.1.7.1v.5a37 37 0 01-1.4 4.1l-.2.5-.3.8-.3.8-.2.4-.2.6c-.1.4-.3.6-.5.6 0-.2-.3-.2-.6-.2zM55.3 92l-.1-.3-.1-.5-.4-1.2-.4-1.3-.1-.4-.1-.4-.1-.4-.1-.4-.1-.4-.1-.4-.1-.3c0-.2-.2-.7-.4-.7a4 4 0 00-1.3-.2c-.6 0-.8.2-1 .6l-.4.9-.4 1.1-.2.5-.3.6-.3.7-.1.4-.2.5-.3.6-.3.6-.4 1.1v.5c.1.2.1.2.3.2h.5c.4 0 .5-.1.6-.5l.2-.5.1-.3.2-.5c.2-.3.2-.4.4-.4l1.4-.1c.8 0 .9.1 1 .4l.1.3.1.4.5 1.1 1.1.1 1.1-.1.1-.3-.4-1zm-3.7-2.3H51c-.6.1-.8 0-.5-.4l.6-1.7.2-.4.2.3.2.6.2.7.2.7c0 .4-.1.4-.5.2zM57.6 93.3c-.2-.2-.3-1.3-.2-1.7v-1.1-1.1l.1-2.2.1-2 .9-.1c1.1 0 1.1 0 1.2.6.1 1.4.2 3.3.1 4.5l-.1 2.1-.1.8-1 .1c-.8.2-1 .2-1 .1zM72 82.1l-4.4-.1-4.4-.1-.2-.1v-.6-.6l.2-.2.2-.1h7.3l33 .2 2.5.1c.2.1.3.4.2.9 0 .3 0 .4-.2.5-.2.1-1.5.2-5.1.2H73.9l-1.9-.1zM53.3 81.9a.2.2 0 01-.2-.2L53 77l-.1-10.5a16 16 0 00-3.1 0l-.8.6-.3.4-.3.1-.4-.6-.3-.7-.5-1.3c-.2-.5-.1-.6.6-.6h12.5l2.1.1.1.3c0 .3-.6 1.3-.9 1.7l-.2.3-.5.5c-.2.1-.3.1-.4-.2l-.2-.2-.2-.1c-.2-.2-.4-.3-1-.3h-1c-.3.1-.5.1-.8 0h-.7l-.1 3.2-.1 10.3c-.1 1.7-.1 1.9-.3 1.9h-2.8zM76.8 78.5c-.4-.1-1.1-.3-1.5-.6-.4-.2-.8-.8-1-1.3a7 7 0 01-.5-1.8l-.1-.7a79.3 79.3 0 01.2-7.1h2.8l.1.2.2 1.3v7l.2.2.2.2.3.3c.4.3.8.3 1.2.2l.3-.2.1-.1.5-.5.1-3.4.1-4.3.2-.6c.2-.1 1.4-.1 1.5.1l.1.3v4l-.1 4-.1.5-.2.7-.5.8c-.5.5-.6.6-1.1.7-.8.2-2.1.3-3 .1zM103 78.4h-.4c-.4 0-.6-.2-1.6-1.5l-1.3-1.8c-.5-.9-.8-1.1-1-1l-.1.3-.1.5v.5l.1 1.4-.1 1.3-.2.2H97l-1.3-.1-.2-.1v-.2-4.1l.1-5.1c.1-1.4.1-1.4.9-1.4h.7l.7.1c.7 0 .7 0 .7 1.4l-.1 1.8c-.1 1 .1 1.2.5.6.5-.6.5-.7 1.1-1.2l1-1.1.6-.7.4-.4.4-.4h1.8c.2.1.1.4-.1.6l-.3.4a26 26 0 01-1.9 2.2l-1 1.4.2.3.3.4.3.4.4.6.7.9a119.8 119.8 0 002.4 3.6c0 .4-.1.4-1.6.4-.2-.2-.6-.2-.7-.2zM70.3 72.2l1.1-.9c.2-.2.3-.5.4-1.2.1-.8.1-1.2-.3-1.8-.3-.5-.6-.8-1.4-1.2l-.2-.1h-3c-3 0-3.8 0-4 .2l-.1 5.1v5.4c.1.5.2.6.7.6h1.6l.4-.1c.2-.1.2-.4.2-2.3l.1-2.3.8-.1c.7 0 .8 0 1.1.2l.5.4c.2.5.3 1.2.3 2.6l.1 1.4c.1.2.4.2 1.1.2h1.1c.9.1.9.1.9-1.7 0-1.4-.1-2-.2-2.7l-.4-.8-.6-.5-.3-.3.1-.1zm-1.6-1.8c-.1.4-.2.5-.4.7-.3.3-.4.3-.8.4l-1.6.1c-.2-.1-.3-.3-.2-1.1v-2l1.1-.1c.9 0 1.4.2 1.6.6l.2.3.1.3.1.3-.1.5zM91.2 78.2c-.4-.2-.6-.4-1-.9l-.9-1.2-1-1.3c-1.7-2.6-1.7-2.6-1.8-2.5l-.1 2.4-.1 2.9c-.1.7-.1.7-1 .7-.7 0-.7 0-.8-.2l-.2-.2v-5.1l.1-5.3.2-.2 1-.1c1 0 1.1 0 1.5.5l.4.4.5.7.5.7.4.6.6.8.5.7c1 1.5 1 1.6 1.1 1.5v-.9-.8l.1-2.2.1-1.8c.1-.2.5-.2 1.1-.1.9.1.8 0 .9 1.9V74.5l-.1 1.8-.1 1.7c-.1.2-.3.2-1.1.3l-.8-.1zM47.2 61.7l-1.2-.4-.6-.3-.4-.3c-.3-.2-1.1-1-1.3-1.4a10 10 0 01-1.6-4.6l-.1-.8a16 16 0 01.4-5.2c.1-.6.2-.7.5-1.3l.2-.4.8-1.4.4-.4.9-.8.8-.6.4-.2c1.2-.5 3-.9 3.7-.6l.6.1c.3 0 .6.2 1.4.6l1.2 1c.5.5.8 1.1.9 1.4l.1.7.1 1-.1.7-.1.2h-1.1l-1.2-.1-.2-.9a3 3 0 00-.4-1.5c-.5-1.1-2-1.5-3.3-.8-.5.3-.9 1.1-1 2.1-.1 1.4-.2 3.6-.1 5.5v2.4l.1.7c0 .7.3 1.4.7 1.8.3.4.5.4 1.1.5.4.1.6.1.8 0l.4-.1 1-.5c.3-.3.4-.4.4-1.5l.1-4.4.2-.3.2-.2h1.7l1.8.1c.3.1.3 0 .3 4.3v4.7l-.1.8-.3.1a7 7 0 01-1.7-1.6c-.5-.6-.6-.6-.9-.2l-.3.3-.1.1-.8.8a5 5 0 01-1.7.7l-.6.1c-.7.2-1.7.2-2 .1zM85.8 61.2l-14.2-.1-14.2-.1c-.2-.1-.2-.1-.2-.5-.1-.9 0-1 1.3-1.1h18.4l13.7.1 6.7.1c.3 0 .4.3.4.9l-.1.6-.1.1H85.8zM98 49.9l-.4-1-.3-.6-.9-1.2c-.6-.5-.8-.7-1.3-.9l-.5-.2H92l-3.3.1-.1.4-.1 4.1-.1 4.5.2 2c.1.2.6.3 1.3.3h2c2.5.1 3.1 0 4.2-.8 1-.6 1.4-1.3 1.7-2.8.2-1.1.3-1.2.3-2.4.1-.9 0-1-.1-1.5zM94.7 52v1.8l-.2.5-.4.8c-.3.3-.9.7-1.2.7l-.3.1-1.1.1-.3-.2v-1.7-4.2-.6c-.1-.7-.1-1.1.3-1.2h1.3l.5.1.4.1c.4.5.4.5.6 1.2l.2.7V52zM66.4 49.6l.1-.4c.2-.6 0-1.3-.7-2.2-.3-.4-.6-.7-1.1-.9l-.3-.2h-6.9l-.1.1c-.1.2-.2 1.6-.2 6.8l.1 4.2.4.2 1 .1h1l.5-.1.1-.1v-1.8-2.2-.4c.1-.2.5-.3 1.1-.2 1.3.1 1.7.5 1.8 1.9l.2 2.8c.1.1 1.2.3 1.6.2l.9-.1.7-.1.1-1.5-.1-2.2-.1-.9-.1-.3c0-.1-.2-.4-.6-.6l-.3-.3.4-.5c.2-.4.5-1 .5-1.3zm-3.2.2c-.1.6-.4.8-1.2 1h-1.7c-.3-.1-.3-.1-.3-1.7l.1-1.6h.9l1.1.1.4.1.3.2c.2.2.2.3.3.8.2.6.2.7.1 1.1zM83.8 57.4c-.4-.1-.7-.2-.8-.4l-.3-.5-.4-.6-.3-.5-.3-.4-.3-.5-.5-.9-.4-.7-.5-.6h-.3v.9c.1 1.3 0 3.8-.1 3.9-.1.2-.4.2-1.1.2l-.5-.1-.1-4.5v-5.4c0-1.2 0-1.2 1.1-1.2l1 .1.6.7.4.7.2.2.3.4 1 1.6a22 22 0 011.3 2.5c.1.3.3.5.4.4.1-.1.2-.7.2-1.8l.2-4.5c.1-.2.2-.3.6-.2l.7.1.4.1.1 1.2v1.3l-.1 6.6c0 1.1-.1 1.7-.3 1.8l-.8.1-1 .1-.4-.1zM76.6 55.7l-.4-1.1-.1-.5a4 4 0 00-.2-.7l-.2-.8-.6-2-.1-.3-.4-1.5-.2-.7-.4-1.2-.6-.8H71c-.2.2-.8 1.6-.9 2.3l-.2.5-.1.4-.1.5-.3.9-.3.9-.2.6-.2.7-.2.6-.2.6-.4 1.2-.3.9c-.3.9-.3.9-.1 1h1.7l.4-.8.2-.5.1-.5c0-.4.3-.8.5-.9h2.5c.2 0 .4.1.4.4l.1.4.2.6.5 1.2 1.4.1 1.4-.1.2-.2c-.2-.1-.4-1-.5-1.2zm-3.7-2.6c-.1.2-2 .1-2.2 0-.1-.1 0-.6.1-.9l.1-.3.2-.5.2-.6.5-.9c.1 0 .3.1.3.3l.1.3.4 1.1.3 1v.5z"/></g></svg>