<?xml version="1.0" encoding="utf-8"?>
<!-- Generator: Adobe Illustrator 21.0.0, SVG Export Plug-In . SVG Version: 6.00 Build 0)  -->
<svg version="1.1" id="Layer_1" xmlns="http://www.w3.org/2000/svg" xmlns:xlink="http://www.w3.org/1999/xlink" x="0px" y="0px"
	 viewBox="0 0 65.8 65.8" style="enable-background:new 0 0 65.8 65.8;" xml:space="preserve">
<style type="text/css">
	.st0{fill:#FFFFFF;stroke:#000000;stroke-miterlimit:10;}
	.st1{fill:#FFFFFF;stroke:#FFFFFF;stroke-miterlimit:10;}
	.st2{fill:none;stroke:#BE2026;stroke-width:2;stroke-miterlimit:10;}
	.st3{fill:#FFDEA7;}
	.st4{fill:#BE2026;}
	.st5{fill:#1C94D2;stroke:#FFFFFF;stroke-miterlimit:10;}
	.st6{fill:#FFFFFF;}
	.st7{fill:#00AFAD;stroke:#FFFFFF;stroke-miterlimit:10;}
	.st8{fill:#FFFFFF;stroke:#000000;stroke-width:0.25;stroke-miterlimit:10;}
	.st9{fill:#06884B;}
	.st10{fill:#BEC8CC;stroke:#FFFFFF;stroke-miterlimit:10;}
	.st11{clip-path:url(#SVGID_2_);}
	.st12{fill:#E22126;stroke:#FBE904;stroke-width:0.75;stroke-miterlimit:10;}
	.st13{fill:#191817;}
	.st14{fill:#FBE904;}
	.st15{fill:#E63229;}
	.st16{fill:#FEF16E;stroke:#FFFFFF;stroke-miterlimit:10;}
	.st17{fill:#1F4180;}
	.st18{fill:none;stroke:#E21E26;stroke-width:2;stroke-miterlimit:10;}
	.st19{fill:#E96F2B;}
	.st20{fill:#F29220;}
	.st21{fill:#EF8322;}
	.st22{fill:#EE3F80;}
	.st23{fill:#F1A847;}
	.st24{fill:#FDBA3A;}
	.st25{clip-path:url(#SVGID_4_);}
	.st26{fill:#383635;}
	.st27{clip-path:url(#SVGID_6_);}
	.st28{fill:#181A10;stroke:#FFFFFF;stroke-miterlimit:10;}
	.st29{fill:#EF4323;stroke:#FFFFFF;stroke-miterlimit:10;}
	.st30{fill:#BEDB86;stroke:#FFFFFF;stroke-miterlimit:10;}
	.st31{fill:#FFFFFF;stroke:#000000;stroke-width:0.5;stroke-miterlimit:10;}
	.st32{fill:#E38328;stroke:#FFFFFF;stroke-miterlimit:10;}
	.st33{fill:#020202;}
	.st34{fill:none;stroke:#FFFFFF;stroke-miterlimit:10;}
	.st35{fill:#BFDEF3;stroke:#FFFFFF;stroke-miterlimit:10;}
	.st36{fill:#994573;}
	.st37{fill:#F6F6F6;}
	.st38{fill:#8F4199;stroke:#FFFFFF;stroke-miterlimit:10;}
	.st39{fill:#175633;}
	.st40{fill:#984D2D;}
</style>
<circle class="st35" cx="32.9" cy="32.9" r="32.4"/>
<g>
	<path d="M19.2,22.7c0.2,0.1,0.6,0.3,0.7,0.4c0.1,0.1,0.2,0.2,0.3,0.3c0.1,0.1,0.1,0.3,0.2,0.5c0.2,0,1.3,0,1.6,0c1.1,0,2.2,0,3.3,0
		c0.3,0,0.5,0,0.8,0c0-0.2,0-0.4,0-0.6c0.1-0.1,0.1-0.1,0.2-0.2c0.8-0.2,1.1,0.3,1,0.8c-0.3,0.5-0.8,0.8-1.4,0.8
		c-1.8,0-5.6,0.1-5.5,0.1c0.1,0.3-0.3,2.2-0.3,2.2c-0.1,0.1-0.8,1.6-0.8,1.6c0,0.1-0.1,0.1-0.1,0.2c0.4,0.4,0.7,0.8,0.8,1.3
		c0,0.1,0.1,0.2,0.1,0.3c0,0,0,0,0,0c0,0.1,0.1,0.2,0.1,0.3c0.1,0.3,0.1,4.2,0,4.6c0,0.2-0.1,0.4-0.1,0.5c-0.1,0.2-0.8,1.4-1,1.5
		c-0.2,0.2-0.4,0.4-0.7,0.4c-0.3,0-0.6,0-1,0c-0.2,0-0.3-0.1-0.4-0.2c-0.1-0.1-0.3-0.2-0.2-0.2c-0.1-0.1-0.4-0.4-0.6-0.6
		c0,0-0.1-0.1-0.1-0.2c0,0-0.3-0.8-0.4-1.2c0-0.2-0.1-3.1-0.1-3.3c-0.1,0.1-1.2,0.6-1.4,0.7c0,0,0,0.1,0,0.2c0,0.2,0,1.6,0,2.1
		c0,1.2,0,2.5-0.1,3.7c0,0.2,0,0.4,0,0.6c0,0.1,0.1,0.2,0.1,0.3c0,0.4,0.2,0.7,0.5,1c0,0,0.1,0,0.1,0.1c0.1,0,0.2,0.1,0.2,0.1
		c2,0.3,4,0.1,6,0.3c0-0.2,0.1-0.4,0.1-0.6c0-0.2,0.2-0.3,0.4-0.4c0.2-0.1,0.3,0,0.5,0.1c0,0,0.2,0.3,0.2,0.3c0.2,0.7-0.2,0.9-0.8,1
		c-0.8,0.1-7.8,0.2-9.7,0.2c-0.1-0.1-0.2-0.1-0.2-0.2c0,0-0.2-0.4-0.2-0.5c0.2-0.1,0.4-0.2,0.5-0.3c0.2-0.4,0.5-0.7,0.6-1.1
		c0-0.4,0.2-4.7,0.2-6.5c-0.9,0-1.9,0-2.8,0c0,0.3-0.1,3.9-0.1,4.4c0,0.1,0,1.5,0.1,1.9c0,0.3,0.1,0.5,0.1,0.8c0.1,0,0.5,0.7,1,0.7
		c0,0.2-0.2,0.6-0.2,0.6c-0.1,0.1-0.3,0.3-0.4,0.3c-0.9,0-1.8,0-2.7,0c-0.3,0-0.5-0.1-0.8-0.3c0,0-0.1-0.2-0.1-0.3c0,0,0,0,0-0.1
		c0.7-0.4,1-1.1,1.1-1.8c0.1-0.7,0.2-3.9,0.2-4.4c0-2.6,0.1-8.3-0.1-8.9c-0.2-0.6-0.1-0.6-0.3-0.8c-0.3-0.3-0.5-0.3-0.5-0.4
		c-0.1,0-0.2-0.1-0.3-0.2c0,0,0-0.2,0.1-0.2c0.1-0.2,0.8-0.7,1-0.7c0.6,0,2.4,0,2.6,0.3c0.1,0.2,0.3,0.4,0.4,0.6
		c-0.1,0.1-0.1,0.2-0.2,0.2c-0.1,0.1-0.5,0.3-0.6,0.4c0,0.1-0.1,0.3-0.1,0.5c0,0-0.2,0.6-0.2,0.9c-0.1,1-0.1,5.5-0.1,5.6
		c0.7,0,2,0,2,0c0.1,0,0.7,0,0.9,0c0-2.2,0-4.5,0-6.7c-0.1-0.2-0.3-0.5-0.3-0.5c-0.1-0.1-0.3-0.2-0.3-0.2c-0.1,0-0.1,0-0.3-0.1
		c0.1-0.2,0.1-0.3,0.2-0.4c0.1-0.1,0.8-0.6,1-0.7c0.9,0,1.7,0,2.6,0c0.2,0,0.3,0,0.5,0.1c0.1-0.2,0.2-0.5,0.4-0.7s0.4-0.4,0.9-0.5
		C17.9,22.4,19.2,22.7,19.2,22.7z M17.9,26.2c-0.4,0.2-1,0.1-1.4-0.3c-0.1,0-0.4-0.6-0.4-0.9c0-0.1-0.1-0.3-0.1-0.3s-0.2,0-0.3,0
		c-0.2,0-0.6,0.2-0.8,0.4c-0.1,0.2-0.2,0.6-0.2,0.6c-0.1,0.3-0.1,0.6-0.2,1c0,1.6-0.1,3.4-0.2,5.2c0.2-0.1,0.9-0.5,1-0.5
		c0.1-0.1,0.7-0.4,0.7-0.7c0-0.3,0.8-1.4,0.8-1.4c0-0.1,1.3-0.8,2-0.6c0.2-0.3,0.1-0.1,0.6-1.3s0.4-1.6,0.5-1.7c0-0.3,0-0.6,0-0.9
		c-1.1,0-2.1,0-3.2,0c0,0.1,0,0.3,0.1,0.7c0.2,0.5,0.6,0.4,0.6,0.2c0-0.1,0-0.3,0.3-0.4C18,25,18.5,25.9,17.9,26.2z M17.6,37.1
		c0.2,0.1,0.8,0.1,1,0.1c0,0,0.3-0.6,0.3-0.8C18.9,36,19,35,19,34.9c0-1.2,0-4,0-4.2c0-0.4,0-0.8-0.1-1.1c-0.1,0-1.6,1.4-1.7,1.4
		c0,1.8-0.1,4.6,0,5.3S17.5,37,17.6,37.1z M16.8,23.9c0.9,0,2.2,0,3,0c0,0-0.1-0.7-1.4-0.7C17.1,23.1,16.8,23.9,16.8,23.9z
		 M17.4,29.8c0,0-0.1,0.2-0.1,0.3c0.1,0,1.3-0.9,1.4-1.1c-0.2,0.1-0.3,0.1-0.7,0.3S17.4,29.8,17.4,29.8z"/>
	<path d="M23.8,28.5c0.6,0,1.2-0.1,1.9-0.1c0,0.1-0.1,0.2-0.1,0.2c0,2.6,0,5.3,0,7.9c0,0.2,0.2,0.4,0.2,0.6c0,0,0.3,0.3,0.3,0.5
		c-0.2,0-0.3,0.1-0.5,0.1c-0.8,0-1.6,0-2.4,0c-0.4,0-0.7-0.1-1-0.1c-0.2,0-0.3-0.1-0.5-0.2c0,0-0.1-0.1-0.2-0.2
		c-0.2,0-0.3,0-0.3-0.3c0,0,0.1,0,0.1-0.1c0.3-0.3,0.2-0.8,0.3-1.2c0-0.6,0.1-1.1,0.1-1.7c0-0.5,0-1.1,0-1.6c0-1,0-1.9,0-2.9
		c0-0.1,0-0.1-0.2-0.3c-0.2-0.3-0.4-0.3-0.5-0.3c0-0.1-0.1-0.2-0.1-0.2c0.1-0.1,0.2-0.2,0.3-0.2c0.3,0,1.5,0,1.7,0c0,0,0,0.1,0,0.1
		c0,0.7-0.1,4.5-0.1,4.5c0,1.3,0.1,2.5,0.1,3.7c0,0.1,0.1,0.2,0.1,0.3c0.2,0,0.5,0.1,0.8,0.1c0,0,0.1-0.1,0.1-0.1
		c0-0.4,0.1-0.8,0.1-1.2c0-1.6,0-3.3,0-4.9c0-0.4,0-0.9,0-1.3c0-0.2,0-0.3-0.2-0.4C23.7,29,23.8,28.8,23.8,28.5z"/>
	<path d="M44.7,28.7C44.7,28.6,44.8,28.6,44.7,28.7c0.1-0.3,0.1-0.4,0.1-0.5c0.4,0.1,0.9,0.1,1.3,0.2c0,0,0.1,0,0.1,0
		c0.3,0,0.5,0,0.8,0c0.5,0,1,0,1.4,0.1c0.4,0.1,0.8,0.2,1,0.3c0.3,0.4,0.2,0.8,0.2,1.1c0,0.1-0.1,1.1-0.1,1.5
		c-0.1,0.7-0.3,3.4-0.2,3.8c-0.1,0.6,0.3,1.8,0.4,2c0.1,0.1,0.2,0.1,0.2,0.2c0,0.1-0.1,0.3-0.2,0.3c-0.5,0-1,0-1.5,0
		c0,0-0.1,0-0.1,0c0-0.1-0.1-0.1-0.1-0.1c0-0.2,0-0.3,0-0.4c0-0.8,0-1.7,0-2.5c0-0.7,0-1.4,0-2c0-0.9,0.1-1.9,0.1-2.8
		c0-0.2-0.1-0.4-0.2-0.6c-0.3-0.2-1.1-0.2-1.2,0c0,0,0,0.8,0,0.8c0,2.2,0,4.5,0,6.7c0,0.2,0.1,0.4,0.2,0.6c0.1,0,0.2,0,0.3,0
		c0,0.1,0,0.3-0.1,0.4c-0.1,0.1-0.3,0.1-0.4,0.1c-0.2,0-1.3,0-1.7,0c-0.1,0-0.3-0.1-0.4-0.1c0-0.1,0-0.2,0-0.2
		c0.1-0.1,0.2-0.1,0.3-0.2c0.1-0.2,0.4-0.7,0.4-0.7c0-0.5,0.1-1,0.1-1.5c0-0.7,0-1.4,0-2.1c0-0.9,0-1.9,0-2.8c0-0.3,0-0.6-0.3-0.9
		C45.3,29.1,44.9,28.8,44.7,28.7z"/>
	<path d="M26.8,41.2c0,0,0-0.1,0-0.1c0,0,0-0.1,0-0.1c-0.2-1.1,0-2.2,0.3-3.2c0,0-0.1,0-0.1,0c-0.4,0-0.3-0.2-0.3-0.5
		c0-0.7,0-1.4,0-2.1c0-0.1-0.1-0.3-0.1-0.4c0.1-0.1,0.3-0.1,0.4-0.2c0.1,0.6,0.3,1.3,0.4,1.9c0.1-0.1,1-2.7,1.1-2.9
		c-0.1-0.1-1.2-1.2-1.2-1.2c0,0-0.2-0.3-0.2-0.3c-0.1-0.1-0.4-0.6-0.4-0.6c0,0-0.2-0.7-0.2-1c0-0.6,0.2-1.1,0.7-1.4
		c0.4-0.4,0.9-0.4,1.4-0.5c0.4,0,0.8,0,1.3,0c0.2,0,0.5,0,0.7,0.1c0.1,0,0.2,0.2,0.3,0.3c0,0.1,0,0.2-0.1,0.3c0,0.1-0.2,0.4-0.2,0.4
		c0,0.1-0.1,0.2-0.1,0.2c-0.4,0.8-0.8,1.7-1.1,2.4c0.4,0.4,1.1,1.1,1.1,1.1c0.1,0.1,0.3,0.4,0.4,0.6c0,0,0.2,1.2,0.2,1.8
		c0,0.6-0.3,1.1-0.7,1.5c-0.1,0.1-0.3,0.2-0.4,0.3c-0.3,0.1-0.6,0.2-0.8,0.2c-0.2,0-0.3,0-0.5,0c-0.2,0-0.4,0-0.7,0
		c-0.1,0-0.2,0.1-0.2,0.2c-0.1,0.3-0.2,0.7-0.2,1c0,0.1,0,0.3,0,0.4c0,0.3,0,0.6,0,1c0.2-0.1,0.4-0.2,0.6-0.2
		c0.1,0.1,0.2,0.2,0.3,0.3c0,0,0,0.1,0,0.1c0.2,0.3,0.1,0.6-0.2,0.9C27.7,41.7,27.4,41.6,26.8,41.2z M28.4,34.4
		c-0.3,0.8-0.5,1.6-0.8,2.4c0,0,0,0.1,0.1,0.1c0.4,0.4,1.5,0.5,1.8-0.1c0.3-0.5,0.3-0.5,0.3-0.9c-0.2-0.6-0.5-1.1-0.7-1.5
		s-0.3-0.3-0.3-0.3C28.8,34.1,28.4,34.4,28.4,34.4z M27.7,29.4c-0.6,1.1,0.9,2.3,1.1,2.5c0,0,0,0,0.1,0c0.1-0.4,0.3-0.8,0.4-1.2
		c0.1-0.4,0-1.1,0-1.1c-0.1-0.7-0.7-0.8-1-0.6C27.9,29.1,27.7,29.4,27.7,29.4z"/>
	<path d="M40.7,37.4c-0.9-0.7-1.2-2.5-1.2-2.6c0,0,0-3.4,0-3.7c0.1-0.3,0.1-0.5,0.2-0.8c0.1-0.2,0.2-0.4,0.3-0.6
		c0-0.1,0.7-0.9,0.7-0.9c0.1-0.2,1.4-0.5,2-0.1c0.1,0.1,0.6,0.5,0.6,0.6c0,0,0.5,0.9,0.6,1.1c0.1,0.2,0.1,0.4,0.2,0.6
		c0,0,0.1,0.7,0.1,1.1c0,0.6,0,1.1,0,1.7c0,0.4-0.1,0.8-0.1,1.2c-0.1,0.4-0.3,0.7-0.4,1.1c0,0.1-0.8,1.5-1.1,1.6
		C42.4,37.8,41.2,37.9,40.7,37.4z M41.2,37c0.6,0.4,0.8,0,1.1-0.3c0.1-0.1,0.3-0.9,0.4-1.2c0.1-0.4,0.1-1.8,0.1-2c0-0.5,0.2-3,0-3.5
		c-0.2-0.5-0.9-1-1.1-1S41,29.3,41,29.3c-0.6,0.9-0.4,3.2-0.4,3.6C40.6,33.2,40.8,36.6,41.2,37z"/>
	<path d="M32.7,29.3c0.2,0.2,0.3,0.4,0.2,0.6c-0.2,0.5-1,0.5-1.2,0.3c-0.2-0.2-0.3-0.7-0.1-1.1c0,0,0.6-0.6,0.9-0.6
		c0.6,0,1.2,0,1.8,0.1c0.2,0,0.4,0.3,0.6,0.4c0.1,0.1,0.1,0.2,0.2,0.3c0,0,0.2,2,0.2,2.9c0,0.4,0,0.7,0,1.1c0,1.2-0.2,2.4,0.1,3.6
		c0.1,0.1,0.1,0.2,0.1,0.2c0.2,0,0.3,0,0.5,0.1c0.1,0,0.2,0.1,0.2,0.1c0,0.1-0.1,0.2-0.2,0.3c-0.5,0.1-1.1,0.2-1.6,0
		c-0.2-0.1-0.6-0.4-0.6-0.5c-0.1,0.1-0.2,0.3-0.4,0.5c-0.6,0.3-1.1,0.2-1.6-0.2c-0.3-0.2-0.3-0.2-0.5-0.8c-0.2-1.2,0.8-4,1.3-4.5
		c0-0.1,0.3-0.4,0.5-0.5c0,0,0.1,0,0.1,0.1c-0.1,0.4-0.4,1.7-0.5,1.7c0,0.4-0.1,0.9-0.1,1.3c-0.3,2.3,1.1,2.1,1.2,2
		c0,0,0.5-1,0.5-1.3c0.2-1.4,0.3-3.6-0.2-5.8c-0.1-0.3-0.4-0.6-0.6-0.7c-0.2-0.1-0.5,0-0.7,0C32.5,29,32.5,29.1,32.7,29.3z"/>
	<path d="M38,26.1c0,0.8,0,1.6,0,2.4c0.1,0,0.8-0.1,1-0.1c0.2,0,0.2,0.3,0,0.4c0,0-0.1,0.1-0.2,0.2c-0.1,0-0.4,0-0.4,0
		c-0.1,0-0.3,0.1-0.4,0.1c0,0.1-0.1,6.8-0.1,7.3c0,0.4,0.2,0.5,0.4,0.7c0.1,0.1,0.2,0.1,0.4,0.2c0,0-0.1,0.4-0.1,0.3
		c-0.4,0-0.8,0-1.2-0.1c-0.2,0-0.6-0.4-0.7-0.4c0,0-0.2-0.1-0.2-0.2c0,0,0-0.4,0-0.6c0-0.1,0-0.1,0-0.2c0-1.4,0.1-6.6,0.1-6.9
		c0,0,0-0.1,0-0.2c-0.2,0-0.3,0-0.4,0c-0.1-0.3,0.1-0.6,0.4-0.7c0-0.1,0-0.3,0-0.5c0,0-0.1,0-0.1,0c-0.1-0.1-0.1-0.3,0-0.4
		C36.9,27.2,37.9,26.2,38,26.1z"/>
	<path d="M51.1,28.4c0,0,0.8,0,1.3,0.1c0,0,0.1,0.1,0.1,0.1c0,1,0,3.3,0,3.3c0,1.1,0,2.3,0,3.4c0,0.6-0.1,2.1,0.5,1.9c0,0,0,0,0.1,0
		c0.1,0.3,0,0.4-0.2,0.4c-0.7,0-1.4,0-2.1,0c-0.1,0-0.2,0-0.2,0c0-0.3,0.3-0.3,0.4-0.5c0,0,0.1-0.2,0.1-0.2c0-0.2,0.1-0.8,0.1-0.9
		c0-1.8,0-3.7,0-5.5c0-0.5,0.1-1-0.3-1.3c-0.1,0-0.1-0.1-0.1-0.1c-0.1-0.1-0.2-0.2-0.4-0.3C50.7,28.5,50.9,28.4,51.1,28.4z"/>
	<path d="M51.3,25.7c0.2-0.2,0.8-0.2,1.1,0.1c0.1,0.1,0.2,0.3,0.2,0.4c0,0.2,0,0.6-0.2,0.9c-0.3,0.3-1,0.2-1.3-0.2
		C51,26.7,51,26,51.3,25.7z"/>
	<path d="M58.6,34.2c-0.1,0.4-0.3,1.5-0.5,1.9c-0.2,0.4-0.8,0.8-1,0.8c-0.2,0.1-0.7,0.1-1,0c-0.1,0-0.1,0-0.2-0.1
		c0.2-0.6,0.4-1.4,0.4-1.4c0,0,0,0-0.1,0c0,0-0.2,0.8-0.4,1.3c-0.1-0.1-0.2-0.2-0.3-0.3c-0.1-0.3-0.2-0.5-0.3-0.9
		c0-0.1-0.1-0.1-0.1-0.2c0-0.6,0-1.1,0-1.7c0-0.8,0-1.7,0-2.5c0-0.4,0.1-0.8,0.2-1.2c0.1-0.4,0.2-0.7,0.5-1c0.2-0.3,0.8-0.4,1.1-0.3
		c0,0,0.1,0,0.1,0.1c0.2,0.2,0.3,0.4,0.5,0.7c-0.1,0.3-0.1,0.5-0.2,0.8c0,0.3-0.3,1.3-0.3,1.5c-0.1,0.2-0.1,0.5-0.2,0.7
		c0.1,0,0.1,0,0.2,0c0.1-0.3,0.6-1.7,0.8-2.2c0,0,0.5-1.6,0.6-2c-1,0-2,0-2.9,0c-0.1,0.1-0.2,0.2-0.4,0.3c0,0-0.9,1.1-0.9,1.1
		c0,0.1-0.3,0.5-0.3,0.7c-0.1,0.2-0.3,0.9-0.3,1.1c0,0.3,0,2.2,0,2.9c0,0.2,0.1,1.2,0.4,1.7c0.6,0.8,1.2,1.1,1.5,1.2
		c0,0,0,0.1,0,0.1l0,0l0,0c0,0,0,0,0,0.1c-0.1,0.2-0.3,0.9-0.3,1.1c-0.1,0.3-0.2,0.5-0.3,0.8c-0.1,0.2-0.1,0.4-0.2,0.6
		c-0.1,0.3-0.1,0.6-0.2,0.9c-0.1,0.3-0.1,0.6-0.2,0.8c0,0.2,0,0.5,0.1,0.7c0.1,0.2,0.5,0.6,0.6,0.6c0.1,0,0.5,0,0.6,0
		c0.1,0,0.7-0.2,0.8-0.3c0,0,0.2-0.4,0.3-0.6c0-0.7-0.6-0.9-0.8-0.8c-0.2,0-0.4,0.1-0.5,0.2s-0.1,0.7,0,0.9c0,0-0.1-0.1-0.1-0.1
		c-0.1,0-0.3-0.5-0.3-0.7c0-0.3,0-0.5,0.1-0.8c0-0.3,0.2-1,0.2-1.1c0-0.3,0.2-0.9,0.2-0.9c0.1-0.3,0.1-0.7,0.2-1
		c0,0,0.1-0.2,0.1-0.3h0v0c0,0,0,0,0-0.1c0,0,0,0,0,0c0.5,0,2.5,0.3,2.9-1.4c0.2-0.4,0.3-1.7,0.3-1.8C58.8,34.3,58.7,34.3,58.6,34.2
		z"/>
</g>
</svg>
