<svg xmlns="http://www.w3.org/2000/svg" viewBox="0 0 65.8 65.8"><style/><circle cx="32.9" cy="32.9" r="32.4" fill="#bfdef3" stroke="#fff" stroke-miterlimit="10"/><path d="M19.2 22.7c.2.1.6.3.7.4l.3.3c.1.1.1.3.2.5h5.7v-.6l.2-.2c.8-.2 1.1.3 1 .8-.3.5-.8.8-1.4.8-1.8 0-5.6.1-5.5.1.1.3-.3 2.2-.3 2.2-.1.1-.8 1.6-.8 1.6 0 .1-.1.1-.1.2.4.4.7.8.8 1.3 0 .1.1.2.1.3 0 .1.1.2.1.3.1.3.1 4.2 0 4.6 0 .2-.1.4-.1.5-.1.2-.8 1.4-1 1.5-.2.2-.4.4-.7.4h-1c-.2 0-.3-.1-.4-.2-.1-.1-.3-.2-.2-.2l-.6-.6s-.1-.1-.1-.2c0 0-.3-.8-.4-1.2 0-.2-.1-3.1-.1-3.3-.1.1-1.2.6-1.4.7V35c0 1.2 0 2.5-.1 3.7v.6c0 .1.1.2.1.3 0 .4.2.7.5 1 0 0 .1 0 .1.1.1 0 .2.1.2.1 2 .3 4 .1 6 .3 0-.2.1-.4.1-.6 0-.2.2-.3.4-.4.2-.1.3 0 .5.1l.2.3c.2.7-.2.9-.8 1-.8.1-7.8.2-9.7.2-.1-.1-.2-.1-.2-.2 0 0-.2-.4-.2-.5.2-.1.4-.2.5-.3.2-.4.5-.7.6-1.1 0-.4.2-4.7.2-6.5H9.8c0 .3-.1 3.9-.1 4.4 0 .1 0 1.5.1 1.9 0 .3.1.5.1.8.1 0 .5.7 1 .7 0 .2-.2.6-.2.6-.1.1-.3.3-.4.3H7.6c-.3 0-.5-.1-.8-.3 0 0-.1-.2-.1-.3v-.1c.7-.4 1-1.1 1.1-1.8.1-.7.2-3.9.2-4.4 0-2.6.1-8.3-.1-8.9-.2-.6-.1-.6-.3-.8-.3-.3-.5-.3-.5-.4-.1 0-.2-.1-.3-.2 0 0 0-.2.1-.2.1-.2.8-.7 1-.7.6 0 2.4 0 2.6.3.1.2.3.4.4.6-.1.1-.1.2-.2.2-.1.1-.5.3-.6.4 0 .1-.1.3-.1.5 0 0-.2.6-.2.9-.1 1-.1 5.5-.1 5.6h2.9v-6.7c-.1-.2-.3-.5-.3-.5-.1-.1-.3-.2-.3-.2-.1 0-.1 0-.3-.1.1-.2.1-.3.2-.4.1-.1.8-.6 1-.7h2.6c.2 0 .3 0 .5.1.1-.2.2-.5.4-.7s.4-.4.9-.5c.6-.1 1.9.2 1.9.2zm-1.3 3.5c-.4.2-1 .1-1.4-.3-.1 0-.4-.6-.4-.9 0-.1-.1-.3-.1-.3h-.3c-.2 0-.6.2-.8.4-.1.2-.2.6-.2.6-.1.3-.1.6-.2 1 0 1.6-.1 3.4-.2 5.2.2-.1.9-.5 1-.5.1-.1.7-.4.7-.7 0-.3.8-1.4.8-1.4 0-.1 1.3-.8 2-.6.2-.3.1-.1.6-1.3s.4-1.6.5-1.7v-.9h-3.2c0 .1 0 .3.1.7.2.5.6.4.6.2 0-.1 0-.3.3-.4.3-.3.8.6.2.9zm-.3 10.9c.2.1.8.1 1 .1 0 0 .3-.6.3-.8 0-.4.1-1.4.1-1.5v-4.2c0-.4 0-.8-.1-1.1-.1 0-1.6 1.4-1.7 1.4 0 1.8-.1 4.6 0 5.3s.3.7.4.8zm-.8-13.2h3s-.1-.7-1.4-.7c-1.3-.1-1.6.7-1.6.7zm.6 5.9s-.1.2-.1.3c.1 0 1.3-.9 1.4-1.1-.2.1-.3.1-.7.3s-.6.5-.6.5z"/><path d="M23.8 28.5c.6 0 1.2-.1 1.9-.1 0 .1-.1.2-.1.2v7.9c0 .2.2.4.2.6 0 0 .3.3.3.5-.2 0-.3.1-.5.1h-2.4c-.4 0-.7-.1-1-.1-.2 0-.3-.1-.5-.2l-.2-.2c-.2 0-.3 0-.3-.3 0 0 .1 0 .1-.1.3-.3.2-.8.3-1.2 0-.6.1-1.1.1-1.7v-4.5c0-.1 0-.1-.2-.3-.2-.3-.4-.3-.5-.3 0-.1-.1-.2-.1-.2.1-.1.2-.2.3-.2h1.7v.1c0 .7-.1 4.5-.1 4.5 0 1.3.1 2.5.1 3.7 0 .1.1.2.1.3.2 0 .5.1.8.1l.1-.1c0-.4.1-.8.1-1.2v-6.2c0-.2 0-.3-.2-.4-.1-.2 0-.4 0-.7zm20.9.2c0-.1.1-.1 0 0 .1-.3.1-.4.1-.5.4.1.9.1 1.3.2h.9c.5 0 1 0 1.4.1.4.1.8.2 1 .3.3.4.2.8.2 1.1 0 .1-.1 1.1-.1 1.5-.1.7-.3 3.4-.2 3.8-.1.6.3 1.8.4 2 .1.1.2.1.2.2s-.1.3-.2.3h-1.6c0-.1-.1-.1-.1-.1v-4.9c0-.9.1-1.9.1-2.8 0-.2-.1-.4-.2-.6-.3-.2-1.1-.2-1.2 0v7.5c0 .2.1.4.2.6h.3c0 .1 0 .3-.1.4-.1.1-.3.1-.4.1H45c-.1 0-.3-.1-.4-.1v-.2c.1-.1.2-.1.3-.2.1-.2.4-.7.4-.7 0-.5.1-1 .1-1.5v-4.9c0-.3 0-.6-.3-.9.2-.3-.2-.6-.4-.7zM26.8 41.2V41c-.2-1.1 0-2.2.3-3.2H27c-.4 0-.3-.2-.3-.5v-2.1c0-.1-.1-.3-.1-.4.1-.1.3-.1.4-.2.1.6.3 1.3.4 1.9.1-.1 1-2.7 1.1-2.9l-1.2-1.2-.2-.3c-.1-.1-.4-.6-.4-.6s-.2-.7-.2-1c0-.6.2-1.1.7-1.4.4-.4.9-.4 1.4-.5h1.3c.2 0 .5 0 .7.1.1 0 .2.2.3.3 0 .1 0 .2-.1.3 0 .1-.2.4-.2.4 0 .1-.1.2-.1.2-.4.8-.8 1.7-1.1 2.4l1.1 1.1c.1.1.3.4.4.6 0 0 .2 1.2.2 1.8 0 .6-.3 1.1-.7 1.5-.1.1-.3.2-.4.3-.3.1-.6.2-.8.2H28c-.1 0-.2.1-.2.2-.1.3-.2.7-.2 1v1.4c.2-.1.4-.2.6-.2l.3.3v.1c.2.3.1.6-.2.9-.6.2-.9.1-1.5-.3zm1.6-6.8c-.3.8-.5 1.6-.8 2.4 0 0 0 .1.1.1.4.4 1.5.5 1.8-.1.3-.5.3-.5.3-.9-.2-.6-.5-1.1-.7-1.5s-.3-.3-.3-.3l-.4.3zm-.7-5c-.6 1.1.9 2.3 1.1 2.5h.1c.1-.4.3-.8.4-1.2.1-.4 0-1.1 0-1.1-.1-.7-.7-.8-1-.6-.4.1-.6.4-.6.4zm13 8c-.9-.7-1.2-2.5-1.2-2.6v-3.7c.1-.3.1-.5.2-.8l.3-.6c0-.1.7-.9.7-.9.1-.2 1.4-.5 2-.1.1.1.6.5.6.6 0 0 .5.9.6 1.1.1.2.1.4.2.6 0 0 .1.7.1 1.1v1.7c0 .4-.1.8-.1 1.2-.1.4-.3.7-.4 1.1 0 .1-.8 1.5-1.1 1.6-.2.1-1.4.2-1.9-.3zm.5-.4c.6.4.8 0 1.1-.3.1-.1.3-.9.4-1.2.1-.4.1-1.8.1-2 0-.5.2-3 0-3.5s-.9-1-1.1-1-.7.3-.7.3c-.6.9-.4 3.2-.4 3.6 0 .3.2 3.7.6 4.1zm-8.5-7.7c.2.2.3.4.2.6-.2.5-1 .5-1.2.3-.2-.2-.3-.7-.1-1.1 0 0 .6-.6.9-.6.6 0 1.2 0 1.8.1.2 0 .4.3.6.4.1.1.1.2.2.3 0 0 .2 2 .2 2.9v1.1c0 1.2-.2 2.4.1 3.6.1.1.1.2.1.2.2 0 .3 0 .5.1.1 0 .2.1.2.1 0 .1-.1.2-.2.3-.5.1-1.1.2-1.6 0-.2-.1-.6-.4-.6-.5-.1.1-.2.3-.4.5-.6.3-1.1.2-1.6-.2-.3-.2-.3-.2-.5-.8-.2-1.2.8-4 1.3-4.5 0-.1.3-.4.5-.5 0 0 .1 0 .1.1-.1.4-.4 1.7-.5 1.7 0 .4-.1.9-.1 1.3-.3 2.3 1.1 2.1 1.2 2 0 0 .5-1 .5-1.3.2-1.4.3-3.6-.2-5.8-.1-.3-.4-.6-.6-.7-.2-.1-.5 0-.7 0-.3.1-.3.2-.1.4zm5.3-3.2v2.4c.1 0 .8-.1 1-.1.2 0 .2.3 0 .4l-.2.2h-.4c-.1 0-.3.1-.4.1 0 .1-.1 6.8-.1 7.3 0 .4.2.5.4.7.1.1.2.1.4.2 0 0-.1.4-.1.3-.4 0-.8 0-1.2-.1-.2 0-.6-.4-.7-.4 0 0-.2-.1-.2-.2v-.8c0-1.4.1-6.6.1-6.9V29h-.4c-.1-.3.1-.6.4-.7v-.5h-.1c-.1-.1-.1-.3 0-.4.4-.2 1.4-1.2 1.5-1.3zm13.1 2.3s.8 0 1.3.1l.1.1v6.7c0 .6-.1 2.1.5 1.9h.1c.1.3 0 .4-.2.4h-2.3c0-.3.3-.3.4-.5l.1-.2c0-.2.1-.8.1-.9v-5.5c0-.5.1-1-.3-1.3-.1 0-.1-.1-.1-.1-.1-.1-.2-.2-.4-.3.3-.3.5-.4.7-.4zm.2-2.7c.2-.2.8-.2 1.1.1.1.1.2.3.2.4 0 .2 0 .6-.2.9-.3.3-1 .2-1.3-.2-.1-.2-.1-.9.2-1.2zm7.3 8.5c-.1.4-.3 1.5-.5 1.9-.2.4-.8.8-1 .8-.2.1-.7.1-1 0-.1 0-.1 0-.2-.1.2-.6.4-1.4.4-1.4h-.1s-.2.8-.4 1.3l-.3-.3c-.1-.3-.2-.5-.3-.9 0-.1-.1-.1-.1-.2v-4.2c0-.4.1-.8.2-1.2.1-.4.2-.7.5-1 .2-.3.8-.4 1.1-.3 0 0 .1 0 .1.1.2.2.3.4.5.7-.1.3-.1.5-.2.8 0 .3-.3 1.3-.3 1.5-.1.2-.1.5-.2.7h.2c.1-.3.6-1.7.8-2.2 0 0 .5-1.6.6-2h-2.9c-.1.1-.2.2-.4.3l-.9 1.1c0 .1-.3.5-.3.7-.1.2-.3.9-.3 1.1v2.9c0 .2.1 1.2.4 1.7.6.8 1.2 1.1 1.5 1.2v.2c-.1.2-.3.9-.3 1.1-.1.3-.2.5-.3.8-.1.2-.1.4-.2.6-.1.3-.1.6-.2.9-.1.3-.1.6-.2.8 0 .2 0 .5.1.7.1.2.5.6.6.6h.6c.1 0 .7-.2.8-.3l.3-.6c0-.7-.6-.9-.8-.8-.2 0-.4.1-.5.2s-.1.7 0 .9l-.1-.1c-.1 0-.3-.5-.3-.7 0-.3 0-.5.1-.8 0-.3.2-1 .2-1.1 0-.3.2-.9.2-.9.1-.3.1-.7.2-1 0 0 .1-.2.1-.3v-.1c.5 0 2.5.3 2.9-1.4.2-.4.3-1.7.3-1.8-.2.2-.3.2-.4.1z"/></svg>