<?xml version="1.0" encoding="utf-8"?>
<!-- Generator: Adobe Illustrator 21.1.0, SVG Export Plug-In . SVG Version: 6.00 Build 0)  -->
<svg version="1.1" id="Layer_1" xmlns="http://www.w3.org/2000/svg" xmlns:xlink="http://www.w3.org/1999/xlink" x="0px" y="0px"
	 viewBox="0 0 170.1 170.1" style="enable-background:new 0 0 170.1 170.1;" xml:space="preserve">
<style type="text/css">
	.st0{fill:#014A31;}
	.st1{fill:#FCF186;stroke:#412714;stroke-width:0.25;stroke-miterlimit:10;}
</style>
<rect x="29.8" y="29.4" transform="matrix(0.7071 -0.7071 0.7071 0.7071 -34.8916 84.8297)" class="st0" width="110.2" height="110.2"/>
<g>
	<path class="st1" d="M85,157.9L11.6,84.5L85,11.2l73.4,73.4L85,157.9z M14.4,84.5L85,155.1l70.5-70.5L85,14L14.4,84.5z"/>
</g>
<g>
	<g>
		<path class="st1" d="M54.9,83.4c0-1.8,0-3.5,0-5.3c-0.1-1.8,0.4-3.7-0.7-5.4c-0.2-0.3-0.3-1.3,0.6-1.3c1.9,0,3.8-0.1,5.7,0
			c1.8,0.1,4.1,2.5,4.3,4.2c0.3,3.1,0.2,6.2-2,8.7c-0.5,0.5-1.1,0.9-0.1,1.5c1.6,1,1.6,2.9,2,4.4c0.3,1.1,0.8,1.6,0.8,2.5
			c0,0.2,0.3,0.3,0.4,0.4c0.1-0.2,0.3-0.4,0.3-0.6c0-3.8,0.1-7.5,0-11.3c-0.1-3.3,0.6-6.7-1.4-9.7c-0.2-0.3,0-0.7,0.6-1
			c1.5-0.9,3.1-0.7,4.7-0.6c0.3,0,0.6,0.5,0.4,0.8c-1.4,2.4-0.4,5-0.7,7.5c0,0.3,0.1,0.8,0.4,0.7c0.4-0.1,0.4-0.7,0.6-1
			c0.8-1.4,1.8-5,2.4-6.2c0.2-0.5,0.2-0.8-0.2-1.2c-0.3-0.3-1-0.7-0.9-1c0.2-0.7,1.1-0.7,1.6-0.9c1-0.4,2.2-0.6,3.3,0.2
			c0.7,0.5,0.9,0.4,1.4-0.5c1.8-2.8,3.9-3.3,6.6-2.2c2.5,1.1,2.5,3,1.4,5.9c-0.4,1.1-2,0.8-2.6-0.2c-0.4-0.7,0.6-1.6-0.3-2.2
			c-0.7-0.5-1-0.6-1.8,0c-1,0.7-1.2,1.1-1.2,2.7c0.4,0.7,0.8,1.3,1.2,1.9c0.5,0.7,1.4,1.1,2.2,1.5c4.3,2.3,5.3,5.1,3.7,9.9
			c-1.1,3.3-3.2,4.8-6.4,4.7c-0.9,0-1.5-0.4-2.1-1c-1.4-1.5-1.5-2.5-2-4.4c-0.2-1.1,0.5-2.9,1.5-3.2c0.9-0.3,2,0.3,2.4,0.9
			c0.5,0.7,0.4,1.6,0.1,2.7c-0.1,0.6,0.8,0.7,1.3,0.7c1.4-0.1,2,0.4,2.2-2.4c0.2-2.4-1.1-3.6-2.9-4.6c-0.4-0.2-0.7-0.6-1.1-0.8
			c-2.1-0.9-3.1-2.4-3.1-4.7c0-1.1,0-2.1,0-3.2c0-0.2-0.2-0.4-0.3-0.6c-0.1,0.2-0.3,0.3-0.4,0.5c-1.2,2.8-2,5.8-3.5,8.5
			c-0.2,0.4-0.1,1.1,0.3,1.6c1.4,1.8,1.5,4.1,2.4,6.1c0.6,1.3,0.8,2.7,1.9,3.8c0.5,0.5,0.5,1,0,1.4c-1.3,0.9-2.6,1.7-4.1,2.1
			c-0.3,0.1-0.8,0-1-0.2c-0.4-0.4-0.3-1.1,0-1.5c0.2-0.2,0.3-0.4,0.5-0.6c0.6-0.7,0.7-1.2,0.4-1.9c-0.6-1.4-0.6-1.5-1-3.1
			c-0.5-1.8-1-1.7-1.1-1.9c-0.2,0.1-0.4,0.2-0.5,0.3c-0.7,0.7-1.3,1.3-1.4,2.6c-0.1,1.1,0,2.1,0,3.2c0,0.6-0.1,1.1,0.4,1.6
			c0.5,0.4,1.4,1.5,0.9,2.2c-0.6,0.8-1.2,1.6-2.6,1.3c-1.6-0.3-3,1.1-4.7,0.8c-0.9-0.2-1.7-0.6-1.7-1.4c0-1.8-0.1-2-0.4-3.9
			c-0.2-1.3-0.7-2.4-0.6-2.5c0.1-0.9-1.6-2.4-2.2-2.1c-0.8,0.5-1.1,1.2-1.2,2.3c0,2.4-0.4,4.5,1.4,6.4c0.7,0.7,0.4,1.9-0.6,2.2
			c-0.7,0.2-1.5,0.4-2.4,0.4c-3.2-0.1-6.4,0-9.5,0c-0.1,0-0.2,0-0.4,0c-1.1,0.1-2-0.1-2.6-1.2c0-1.2,0.2-2.1,1.5-2.3
			c0.2,0,0.4-0.2,0.6-0.3c0.1-1.9-0.1-4.6,0-5.5c0.2-4,0.1-8,0.1-12c0-0.9,0.1-1.9-0.9-2.5c-0.6-0.4-0.5-1-0.5-1.5
			c0-0.9,0-1.6,1.2-1.5c1.3,0.1,2.6,0.1,3.9,0c1.1-0.1,2,0.4,2.9,0.8c1.4,0.6,1.7,1.6,0.5,2.8c-0.6,0.6-0.8,0.1-1.3-0.2
			c-1.5-0.6-2.2,0.1-2.2,1.6c0,1.5,0,3.1,0,4.6c0,0.5-0.1,1,0.5,1.1c0.5,0.1,1,0,0.9-0.7c-0.1-0.4,0.2-0.7,0.5-0.9
			c0.8-0.6,1.1-0.3,1.2,0.2c0.7,1.9,0.7,3.8,0,5.7c-0.2,0.5-0.3,0.8-1.2,0.1c-0.3-0.2-0.5-0.4-0.5-0.9c0-0.7-0.8-1.3-1-1.3
			c-0.7,0.2-0.4,0.9-0.4,1.4c0,2.6,0,5.2,0,7.8c0,0.7,1.5,1.9,2.1,1.9c1.5-0.1,2.3-0.2,2.7-1c0.3-0.7,0.9-1.5,0.9-2.5
			C54.8,89.1,54.9,86.3,54.9,83.4z M59.4,75c-0.9-0.1-1.5,0.6-1.6,1.1c-0.2,2.1-0.1,4.2-0.1,6.3c0,0.5,1,0.7,1.7,0.4
			c0.4-0.2,0.9,0,1.1-0.5c0.7-1.9,1.7-3.7,0.7-5.8C60.9,75.5,60.5,74.9,59.4,75z"/>
		<path class="st1" d="M119.3,67.2c0-1.6,0-3.3,0-4.9c0-1.1,0.1-2.1-1-2.8c-0.8-0.6-0.5-1.2,0.2-1.7c0.7-0.6,6.4-0.7,7.1-0.2
			c0.9,0.6,1.3,2.3,0.8,3.3c-0.7,1.3-0.8,1.3-2,0.4c-0.2-0.1-0.3-0.4-0.5-0.4c-0.3-0.1-0.9-0.1-0.9,0.3c-0.1,0.9-0.3,1.9,0,2.8
			c0.2,0.8,1.3,0.6,1.8,0.3c0.6-0.5,0.9-0.4,1.3,0.1c0.7,1.2,0.6,2.4,0.1,3.6c-0.4,0.8-1,0.7-1.8-0.2c-0.2-0.3-0.4-0.5-0.8-0.4
			c-0.4,0.1-0.6,0.2-0.6,0.7c0,0.8,0,1.7,0,2.5c0.1,1-0.5,2.6,0.3,3c1.1,0.6,2.7,0.6,4-0.1c0.2-0.1,0.4-0.3,0.6-0.3
			c1.1-0.3,1.4,0.1,1.6,1.1c0.3,1.5-0.8,2.1-1.6,2.9c-0.3,0.3-0.7,0.3-1,0.2c-3-1.4-6.2-0.5-9.2-0.5c-1.7,0-2.7-0.2-3.1-1.7
			c-0.4-1.6-0.2-3.4-1.8-4.5c-0.2-0.2-0.6-0.3-0.9-0.3c-0.4,0-0.9,0.4-0.9,0.8c-0.1,1.6-0.1,3.2,0.8,4.6c0.4,0.5,0.5,0.7,0,1.3
			c-0.7,0.9-1.7,1.1-2.5,1.7c-0.6,0.4-1.7,0.5-2.3,0c-1.1-0.8,0.3-1.5,0.6-2c0.6-1,0.6-1.9,0.6-2.9c0-3.4,0-6.8,0-10.3
			c0-1.2-0.1-2.3-1.1-3.1c-0.8-0.7-0.2-1.4,0.4-1.7c2.1-1,4.4-1.5,6.6-1c1.4,0.3,2.4,2,2.5,3.4c0.3,2.4,0.6,5.1-1.6,7.1
			c-0.5,0.4,0.3,1.1,1,1.8c0,0,0.6,1,0.7,1.3c0.5,1.1,0.5,1.7,0.7,2.6c0.3,1.1,1,0.7,1.6,0.7c0.7,0,0.6-0.6,0.6-1
			C119.3,71.2,119.3,69.2,119.3,67.2z M110.8,63.2c0,0.8,0,1.6,0,2.4c0,0.4,0,0.8,0.4,0.9c0.3,0.1,0.6,0.1,0.9-0.2
			c1.4-1.2,2.1-3.8,1.3-5.2c-0.4-0.7-1.1-1.1-2-0.9c-0.9,0.1-0.6,0.8-0.6,1.3C110.7,62,110.8,62.6,110.8,63.2z"/>
		<path class="st1" d="M37.2,70c1.9,0.5,2.1,0.7,3.7,1.3c1.8,0.7,2.3,2.1,3.4,4.9c0.2,0.6,0.2,1.5-0.1,2.4c-0.3,0.8-0.7,1.5-1.2,2.1
			c-0.8,0.9-0.3,2.3-0.1,2.4c1.8,0.8,1.7,2.7,1.9,4.2c0.1,1.5,0,2.9-0.4,4.2c-0.5,1.8-1,3.2-2.2,4.4c-1.8,1.7-5.5,2.2-7.9,1.3
			c-0.8-0.3-1.3-1.3-2.4-1c-0.7,0.2-0.7-0.4-0.9-1.7c-0.2-1.7,0-0.7,0.1-0.7c2.3-1.3,2-3.1,2.1-5.1c0-4.4,0-8.7,0-13.1
			c0-0.9,0-1.7-0.8-2.5c-0.9-0.8-0.7-1.7,0.4-2.1C33.6,70.4,36,69.5,37.2,70z M36.5,88.6c0,1.5,0,3.1,0,4.6c0,0.8,0.4,0.9,1.1,0.9
			c1,0,2.1-0.7,2.3-1.1c0.8-1.7,1.9-3.2,1.6-5.3c-0.2-1.6-1.5-3.1-2.1-3.7c-0.8-0.8-1.7-0.5-2.5-0.4c-0.6,0.1-0.3,1-0.3,1.5
			C36.5,86.2,36.5,87.4,36.5,88.6z M36.5,76.5c0,0.9-0.1,1.9,0,2.8c0.1,1,1.1,1.3,2.2,0.9c1.5-0.5,2-1.9,1.8-3
			c-0.3-2.2-2.7-3.4-3-3.6c-0.6-0.2-1.1-0.1-1.1,0.7C36.5,75.1,36.5,75.8,36.5,76.5z"/>
		<path class="st1" d="M93.1,78.4c0,1.2,0,2.4,0,3.5c0,0.6,0,1.1,0.4,1.6c1,1.3,0.8,1.2-0.4,2c-1,0.7-2,1.4-3.3,1.5
			c-0.7,0-1.2-0.2-1-1c1.5-5.6,0.3-11.4,0.7-17c0.1-0.9,0.2-1.7-1.2-2c-0.7-0.1-1.2-1.1-0.9-2c0.3-0.8,0.8-1.2,1.7-1.4
			c1.2-0.2,2.3-0.7,3.4-1.2c0.9-0.4,1.4-0.1,1.2,0.9c-0.3,1.9-0.9,3.7-0.7,5.7c0.1,1.2,0.2,1,1.1,0.4c1.3-0.9,1.7-0.4,1.8-2.7
			c0-1.1,0.6-1.5-0.3-2.3c-0.5-0.5-1.2-1.4-0.7-2.1c0.9-1.3,2.5-1.5,4-1.4c0.6,0.1,0.6,0.7,0.5,1.1c-1.5,5.2-0.3,10.4-0.7,15.6
			c-0.1,0.9,0,1.7,0.7,2.2c1.6,1.1,1.2,1.9-0.9,3c-0.4,0.2-1,0.5-1.3,0.8c-0.8,0.8-0.8,0.9-1.5,0.6c-0.9-0.3-0.6-1.3-0.4-1.8
			c1.2-2.8,0.5-5.7,0.6-8.6c0.1-1-0.3-1.2-1.3-0.7c-0.8,0.4-1.9,0.7-1.6,2.1C93.3,76.3,93.1,77.4,93.1,78.4z"/>
		<path class="st1" d="M88.9,109.1c0,0.9,0,1.8,0,2.7c0,0.4,0,0.8,0.3,1.2c0.7,1,0.6,0.9-0.3,1.5c-0.8,0.5-1.5,1.1-2.5,1.1
			c-0.6,0-0.9-0.2-0.7-0.7c1.1-4.3,0.2-8.6,0.5-12.9c0-0.7,0.2-1.3-0.9-1.5c-0.6-0.1-0.9-0.8-0.7-1.5c0.2-0.6,0.6-0.9,1.3-1.1
			c0.9-0.1,1.7-0.6,2.6-0.9c0.7-0.3,1-0.1,0.9,0.7c-0.2,1.4-0.7,2.8-0.6,4.3c0.1,0.9,0.2,0.7,0.8,0.3c1-0.7,1.3-0.3,1.4-2
			c0-0.8,0.5-1.1-0.2-1.8c-0.4-0.4-0.9-1.1-0.5-1.6c0.7-1,1.9-1.2,3-1.1c0.5,0,0.5,0.5,0.4,0.8c-1.1,3.9-0.2,7.9-0.5,11.8
			c-0.1,0.7,0,1.3,0.5,1.7c1.2,0.9,0.9,1.4-0.7,2.2c-0.3,0.1-0.7,0.4-1,0.6c-0.6,0.6-0.6,0.7-1.1,0.5c-0.7-0.3-0.5-1-0.3-1.4
			c0.9-2.1,0.4-4.3,0.5-6.5c0-0.8-0.2-0.9-1-0.5c-0.6,0.3-1.4,0.5-1.2,1.6C89.1,107.5,88.9,108.3,88.9,109.1z"/>
		<path class="st1" d="M108.7,101.1c0-1.6,0-3.3,0-4.9c0-0.5,0.1-1,0-1.4c-0.2-0.8-1.3-1.9-0.6-2.4c1.2-0.9,2.7-1.3,4.2-1.8
			c0.4-0.2,0.7,0.2,0.7,0.6c0,0.4,0.1,1.2-0.2,1.3c-1.6,1-1.2,2.6-1.2,4.1c0,2.2,0,4.5,0,6.7c0,0.5-0.3,1.3,0.5,1.4
			c0.7,0.1,1.7,0.2,1.8-0.6c0.3-1.9,3.4-2,2.7-4.5c-0.1-0.4,0.7-1.3,1.4-1.2c0.5,0.1,1.2,0.2,1.5,0.7c0.2,0.3-0.3,1.4-0.1,1.7
			c0.5,0.7,0,1.5,1.7,1.8c1-0.3,1.6-1.1,1.8-2c0.1-0.9,0.3-1.8-0.7-2.5c-1-0.7-2.2-1.2-3.2-1.6c-1.3-0.5-1.6-1.4-2.2-2.3
			c-0.7-1.2-0.4-2.5-0.2-3.7c0.3-2,2.4-3.3,4.8-3.3c1.4,0,3,1.5,3.6,3.2c0.4,1.2-0.2,2.2-1.2,2.7c-0.8,0.4-0.8,0.1-1.3-0.2
			c-1-0.6,0.1-1.2-0.1-1.7c-0.3-0.6-1-1.3-1.8-1.2c-0.4,0.1-0.8,0.5-1.1,0.8c-0.4,0.6-0.5,1.3,0,1.9c0.5,0.6,1,1.3,1.8,1.5
			c0.5,0.1,1,0.5,1.5,0.7c1.2,0.6,2.4,1.5,2.7,2.6c0.4,1.5,0.6,3.5-0.1,4.8c-0.7,1.5-2.3,3.2-4.2,3.1c-1.4-0.1-3.5,0-4.1-2.1
			c-0.1-0.2-0.2-0.4-0.3-0.6c-0.1,0.2-0.4,0.3-0.4,0.5c0,0.6,0,1.2,0,1.8c0.1,1.3-0.6,1.9-1.8,2c-1.1,0.1-4.1,0.8-4.5,1
			c-1.4,0.6-1.4,0.5-1.4-1C108.6,104.9,108.7,103,108.7,101.1z"/>
		<path class="st1" d="M76.1,47.7c0-2.5,0-4.9,0-7.4c0-1.1-0.1-2-1-2.8c-0.7-0.6-0.4-1.5,0.5-1.9c0.5-0.2,1.5-0.9,2-1.1
			c0.8-0.3,1.1-1.1,2.2-0.3c0.7,0.6-0.2,1.7-0.2,2.6c0.1,1.5,0.1,3.1,0,4.6c-0.1,1.1,0.1,1.3,0.8,1.3c0.4,0,1.7-0.8,2-1
			c0.9-0.6,2.4,0.7,3.2,1.4c1.1,0.9,1.7,2.9,1.8,3.2c0.3,1.7-0.6,3.5,0.7,5c0.5,0.6-1.3,1.5-1.6,1.7c-1.2,0.7-1.2,0.5-2.4,1.3
			c-0.5,0.4-1-0.4-1.4-0.8c-0.4-0.4-0.3-0.8,0-1.2c1.3-1.3,1.2-2.9,1.1-4.5c-0.1-1.2-1.2-2.4-2.3-2.5c-0.6-0.1-1.6,1.3-1.6,1.9
			c0.1,1.3-0.1,2.3,0.1,3.4c0.1,0.9,0,1.8,0.9,2.6c0.4,0.4,0.1,0.6-0.6,1.1c-1.4,1-2.9,2.9-3.7,2.1c-1-1.5-0.8-2.8-0.7-4.7
			C76,50.4,76.1,49.1,76.1,47.7z"/>
		<path class="st1" d="M72.6,38.9c2.1,0,2.6,0.6,2.8,2c0.2,1.1-0.7,2.4-0.8,2.5c-0.3,0.3-0.7,0.5-1.1,0.2c-0.3-0.2-0.6-0.5-0.7-0.7
			c-0.5-0.8-1.3-0.7-1.9-0.5c-0.7,0.3-1.2,0.9-1.2,1.9c0.1,2.6,0,5.2,0,7.8c0,1.6-0.2,3.3,0,4.9c0.2,1.3-0.5,1.5-1.4,1.9
			c-0.7,0.3-2,1.3-2.1,1.1c-0.7-0.8,0.3-12.7,0.6-14.2c0.1-0.5,0.3-1.3-0.6-1.3c-0.6,0-1,0-1.6,0.4c-0.9,0.6-1.8,1.3-2.1,2.7
			c-0.1,0.7-1,0.7-1.3,0.1c-0.5-1-0.9-2.1-0.1-3.3c0.8-1,1.5-2.2,2.7-2.6C67,40.6,70.1,39.7,72.6,38.9z"/>
		<path class="st1" d="M64.1,122c-0.5,1.3-1.5,1.2-1.9,0.9c-1.6-1.1-0.9-2-1.4-3.7c-0.1-0.5-0.8-2.1-1.4-2.5
			c-0.3-0.2-0.5-0.3-0.7-0.5c-0.1,0.2-0.2,0.4-0.2,0.6c0,0.1,0,0.2,0,0.4c-0.1,1,0.5,2.5-0.3,3c-1.3,0.7-2.2-1-3.5-1.3
			c-0.7-0.1-0.6-1.5-0.2-1.8c1.8-1.2,1.4-3.3,1.8-4.9c0.4-1.6,0.8-3.7-0.3-5.4c-0.3-0.5,0.2-0.5,0.3-0.7c0.3-0.4,0.5-0.4,1-0.1
			c1.4,0.8,2.9,1.6,4.1,2.8c0.8,0.8,1.7,1.6,2.5,2.5c1.5,1.6,1.4,2.9-0.7,4.2c-1.2,0.7-1.1,1.7-0.4,2.3
			C64.1,118.8,63.1,120.5,64.1,122z M58.9,112.1c0,0.3,0.2,0.7,0.3,1c0,0.9,0.7,0.9,1.1,0.6c0.5-0.4,1.6-1,0.9-2.1
			c-0.4-0.6-0.3-1.6-1.6-1.3C58.7,110.6,59.1,111.6,58.9,112.1z"/>
		<path class="st1" d="M101.2,71c0-2.5-0.1-4.8-0.1-7.3c0-0.6,0-1.3-0.2-1.8c-0.9-1.7-0.8-2,1-2.4c0.5-0.1,1.3-0.4,1.6-0.5
			c1-0.4,1.8-0.9,2.2,0.1c0.3,0.7,0.1,1.4-0.5,2.2c-0.7,1-0.9,2.2-0.8,3.5c0.1,3.1,0,6.1,0,9.2c0,1.5-0.4,3,1.2,4.1
			c0.6,0.4,0.1,1.1-0.4,1.4c-0.8,0.5-1.8,0.8-2.7,1.3c-1.7,0.8-2.2,0.5-1.8-1.1C101.4,77.1,101.2,74,101.2,71z"/>
		<path class="st1" d="M95.2,52.4c-1.5,0.2-2.6-0.1-3.8-0.8c-0.7-0.4-1.5-1-1.9-2.6v-2.9c0.1-3.2,2.6-4.6,5.1-4.9
			c1.9-0.2,2.4,0.2,3.9,1c1,0.5,1.7,1.8,1.6,2.6c-0.1,1.5-1,2.5-3.3,2.6c-1.1,0.1-2-0.4-3.4,0.7c-0.7,0.5-0.6,1-0.5,1.1
			c0.3,0.2,1,0.4,1.4,0.4c0.9,0,1.9,0.4,2.6-0.6c0.2-0.3,1.6-1.2,2.2-1.1c0.7,0.1,0.5,0,0.9,0.6c0.4,0.7,0.3,1.5-0.4,2.2
			C98.3,51.7,97.2,52,95.2,52.4z M95.2,43.7c-0.3,0-0.7,0.1-1,0c-1.1-0.1-1.9,1-1.7,1.8c0.4,1.5,1.5,0.5,2.1,0.3
			c0.6-0.2,1-0.4,1.7-0.5c0.3,0,0.4-0.5,0.4-0.8c0-0.2-0.2-0.5-0.4-0.5C95.9,43.9,95.5,43.7,95.2,43.7z"/>
		<path class="st1" d="M75.5,122.2c-0.1-1.3,0.2-3.4-0.3-3.9c-1-1.3-0.1-1.8,1.4-1.6c0.5,0.1,0.8,0.3,1.2,0.6
			c1.1,0.9,1.5,1.3,1.1,1.9c-1.3,2-0.8,4-0.6,6.1c0.1,0.6,0.6,1.2,1.4,1.3c0.6,0,1.2,0.3,1.4-0.9c0.4-1.6,0.8-3.4,0.2-4.9
			c-0.8-1.9-0.6-1.9,1.3-1.9c2.1,0,2.6,0.2,1.6,2c-0.4,0.7-0.3,5.4-0.4,6c-0.3,1.9-1.3,2.5-2.9,2.6c-3.8,0.1-5.4-1.4-5.4-5.2
			C75.4,123.5,75.5,122.2,75.5,122.2z"/>
		<path class="st1" d="M108,106.4c0.1,1.3-0.3,2-1.6,2.5c-1.4,0.5-2.8,1.3-4.4,1.3c-0.5,0-1.3,0.3-1.6-0.2c-0.5-0.8,0.3-1.3,0.8-1.7
			c0.5-0.4,0.5-1,0.5-1.6c0-3.2,0.1-6.3,0-9.5c-0.1-3.1-0.2-3.1,2.4-3.9c0.2-0.1,0.4,0,0.7-0.1c0.9-0.1,1.3,0.3,1.2,1.2
			c0,0.2,0,0.6-0.1,0.7c-1.9,1.2-1.3,3.1-1.3,4.7c0,2,0,4,0,6c0,0.5-0.3,1.2,0.4,1.6c0.1,0.1,0.7-0.6,1-0.9c0.3-0.3,0.8-0.5,0.8-1.1
			c0-0.6,0.4-0.8,0.9-0.7c0.7,0.1,0.6,0.6,0.6,1.1C107.9,106,108,106.2,108,106.4z"/>
		<path class="st1" d="M64.8,120c0-2.1,0.7-3.7,2.2-5.2c0.7-0.7,1.4-1,2.4-1c2.1-0.1,3.2,0.8,4.2,2.6c0.6,1.1,0.8,5.7,0,6.8
			c-1.1,1.6-3.4,3-5.2,2.6c-1.7-0.3-3.5-2.7-3.6-4.6C64.8,121,64.8,120.7,64.8,120z M72,119.2c0.1-1-0.2-1.9-1.1-2.4
			c-0.8-0.4-2.2,0.1-3.1,0.7c-1.3,1-0.8,2.3-0.8,3.5c0,1.3,1.4,2.7,2.5,2.7c1.1,0,2.4-1.5,2.4-2.8C71.9,120.6,72,119.4,72,119.2z"/>
		<path class="st1" d="M99.3,130.8c-1.2,0-2.4,0.1-3.5,0c-0.6,0-0.7-0.8-0.4-1c2.1-1.9,1.6-4,0.7-6.3c-0.2-0.6,0.5-1.8,1.1-1.8
			c2.5-0.1,5-0.2,7.4,0c1.2,0.1,0.5,1.4,0.5,2.1c0.1,0.9-0.7,0.9-1.1,0.5c-0.8-0.6-1.4-1.5-2.7-1.3c-0.6,0.1-1.2,0.1-1.1,0.9
			c0.1,0.7-0.4,1.6,0.4,1.9c1.1,0.5,0.9-0.7,1.2-1.2c0.1-0.1,0.4-0.2,0.6-0.2c0.4,0,0.6,0.2,0.6,0.6c0,0.4,0,0.7,0,1.1
			c0,1.2-0.1,1.3-1.4,0.7c-0.4-0.2-0.8-0.5-1.2-0.2c-0.4,0.3-0.2,0.9-0.2,1.3c0,0.7,0.5,0.6,1,0.7c1.6,0.4,2.3-0.8,3.2-1.7
			c0.2-0.2,0.6-0.6,0.7-0.1c0.2,0.9,0.3,2,0,2.8c-0.2,0.5-1.2,1-1.9,1.1C101.9,131,100.6,130.8,99.3,130.8z"/>
		<path class="st1" d="M98.1,94.8c0.5,0,0.9,0,1.4,0c0.7,0,1,0.8,0.5,1.2c-1.3,0.9-1.2,2.1-1.2,3.4c0,2.8,0.2,5.6-0.1,8.4
			c-0.1,1,1.5,1.3,0.6,2.5c-0.7,1-1.6,0.6-2.5,0.9c-1.5,0.6-2,0.4-1.6-1c1.1-3.4,0.5-6.8,0.6-10.3c0-0.9,0.1-1.7-0.5-2.6
			c-0.8-1.3,0.1-2.4,1.6-2.6C97.4,94.7,97.8,94.8,98.1,94.8z"/>
		<path class="st1" d="M92.4,125.8c0.1,1.3-0.3,2.7,1.1,3.7c0.7,0.5-0.3,0.9-0.4,0.9c-1.6,0.6-3.3,0.7-4.9,0c-0.8-0.4-1-1,0.3-1
			c1.5-1.9,1.3-4,0.9-6.1c-0.1-0.5-0.9-1.6-1.9-0.6c-0.4,0.4-0.8,0.6-1.2,0.3c-0.6-0.6-0.2-1.5-0.3-2.3c0-0.3,0.5-0.4,0.8-0.4
			c2.6,0,5.1,0.6,7.5,1.4c0.8,0.2,0.9,0.6,0.8,1.2c-0.1,0.5,0.3,1.2-0.3,1.6c-0.4,0.3-0.9,0-1.2-0.4c-0.3-0.3-0.7-0.9-1-0.9
			c-0.5,0.1-0.3,0.8-0.3,1.2C92.4,124.8,92.4,125.3,92.4,125.8z"/>
	</g>
</g>
</svg>
