<?xml version="1.0" encoding="utf-8"?>
<!-- Generator: Adobe Illustrator 21.1.0, SVG Export Plug-In . SVG Version: 6.00 Build 0)  -->
<svg version="1.1" id="Layer_1" xmlns="http://www.w3.org/2000/svg" xmlns:xlink="http://www.w3.org/1999/xlink" x="0px" y="0px"
	 viewBox="0 0 170.1 170.1" style="enable-background:new 0 0 170.1 170.1;" xml:space="preserve">
<style type="text/css">
	.st0{fill:#006531;}
	.st1{fill:#F9B231;}
</style>
<g>
	<ellipse class="st0" cx="83.6" cy="84.4" rx="74.4" ry="77.2"/>
	<path class="st1" d="M7.1,85.6C6.4,42.7,40.5,8.2,83,7.3c44.3-0.9,79.4,32.9,80,76.6c0.6,41.6-34.1,76.8-76,77.7
		C43.2,162.5,7.1,127.3,7.1,85.6z M30.3,83.2c0.2-0.5,0.2-0.7,0.3-1c1.1-5.7,2.2-11.4,3.3-17.1c1.2,0,2.4-0.1,3.5-0.1
		c0.7,0,2.2-2.7,2.6-3.8c1-2.6-0.1-3.8-2.6-3.6c-4.5,0.4-9.1,0.1-13.6,0.3c-0.6,0-0.9,0.4-1.2,0.9c-0.2,0.3-0.5,0.5-0.6,0.8
		c-0.5,1.6-1.5,3.3-0.9,4.7c0.6,1.4,2.5,0.5,3.8,0.6c1.4,0.1,1.3,0.8,1.1,1.8c-1,4.9-2,9.8-2.9,14.6c-0.7,3.5-0.7,3.6,3,3.5
		C27.4,84.6,29.8,85.5,30.3,83.2z M76.8,76.1c0.3-2.2,2.6-1.6,4-1.4c1.2,0.1,3,0.5,3.4-1.1c0.6-2.1,0.5-3.3,0.1-4.8
		c-0.4-1.4-2.3-0.5-3.5-0.6c-0.3,0-0.7,0.1-1,0c-0.9-0.2-1.1,0-1-1.6c0-0.4,0.1-0.8,0.3-1.2c0.1-0.3,0.4-0.5,0.7-0.5
		c0.8,0,1.7,0,2.5,0c1.3-0.1,2.8,0.5,3.6-1.2c1.1-0.6,1.3-5.9-0.9-5.9c-3.5-0.1-7-0.1-10.5,0c-1.4,0-3.5,0.7-3.8,2.4
		c-1.7,7.6-2.9,15.2-4.5,22.8c-0.3,1.6,0.5,1.7,1.7,1.7c4.3,0,8.6,0,12.9,0c1,0,1.9-0.1,2.5-1c2.5-4.6,1.7-5.9-3.5-6.1
		C78.5,77.6,76.6,78.2,76.8,76.1z M77.2,135.9c-0.1,0.1-0.1,0.2-0.1,0.3c-2,0.5-4,0.5-5.9,0.2c-2.6-0.5-5-1.6-5.8-4.5
		c1-0.5,6.1-1.7,7.5-2.7c4.6-3.5,6.9-8.3,7.9-13.5c1.4-7.1-3.9-13.9-11.1-13.9c-4.4,0-13.6,4.5-14.5,5.3c-9.6,8.6-10.8,21.5-3,31.8
		c6.9,9.1,24.2,13.4,35,8c0.1-0.1,1.7-0.4,3.9-1.5c3.4-1.4,6.9-3.3,9.6-5.9c5.5-5.1,7.4-12.1,8.6-19c1.1-6.5,2.6-13,3.7-19.5
		c0.4-2.3,0.4-4.7,1.1-6.9c1.2-3.8,1.8-7.8,2.7-11.7c0.8-3.9,1.4-7.9,2.2-11.8c1.3-6.1,2.3-12.3,3.5-18.5c1.5,0,2.9,0.1,4.4,0
		c1.8-0.1,4.1,0.3,5.4-1.5c0.5-0.6,0.5-0.3,0.6-1c1-4,1.7-8,2.1-12.2c0.2-2.1-0.6-2.6-2.6-2.6c-12.9,0.1-25.8,0-38.8,0
		c-1,0-5.2-0.4-5.8,1.6c-0.4,0-2,9.5-2.6,13.9c-0.1,0.8,0.5,1.6,1.4,1.6c2.8,0,5.5,0.1,8.2,0c1.6-0.1,1.9,0.6,1.6,2
		c-0.3,1.3-0.6,2.6-0.8,3.9c-3.1,16.9-6.1,33.8-9.2,50.7c-0.9,5.2-2.1,10.5-2.9,15.7C82.8,128.8,81.2,132.9,77.2,135.9L77.2,135.9z
		 M63.5,58.1c0,0,0.1,0.1,0.1,0.1C63.5,58.2,63.5,58.2,63.5,58.1c-0.9,0.1-1.8,0.2-2.6,0.1c-2.4-0.3-3.8,0.6-4.1,3.2
		c-0.2,1.9-0.8,3.7-1.2,5.6c-0.3,1.5-1.2,2-2.6,1.7c-1.4-0.3-2.1-0.7-1.3-2.5c0.7-1.7,0.3-3.9,1.2-5.7c0.4-0.8-0.1-1.6-0.8-2.2
		c0,0-3.6-0.2-5.3,0.3c-1.1,0.3-1.7,0.8-1.9,1.8c-1.7,7.6-3.4,15.2-5.1,22.8c-0.1,0.6-0.4,1.2,0.4,1.6c1.1,0.6,6.2-0.2,7.1-1.1
		c1.1-1.8,1.4-3.8,1.6-5.8c0.1-0.6,0.6-1,1.1-1c0.5,0,0.7,0,1,0.1c2.5,0.4,2.5,0.9,2,2.6c-0.4,1.3-0.6,2.7-0.9,4.1
		c-0.1,0.4-0.3,0.8,0.2,1.2c0.9,0.7,6.5-0.1,7.4-1.1c0.9-3.4,2.1-6.7,2.6-10.2c0.6-4.2,1.9-8.2,2.7-12.3
		C65.3,59.2,65,58.6,63.5,58.1z"/>
</g>
</svg>
