<?xml version="1.0" encoding="utf-8"?>
<!-- Generator: Adobe Illustrator 21.0.0, SVG Export Plug-In . SVG Version: 6.00 Build 0)  -->
<svg version="1.1" id="Layer_1" xmlns="http://www.w3.org/2000/svg" xmlns:xlink="http://www.w3.org/1999/xlink" x="0px" y="0px"
	 viewBox="0 0 65.8 65.8" style="enable-background:new 0 0 65.8 65.8;" xml:space="preserve">
<style type="text/css">
	.st0{fill:#FFFFFF;stroke:#000000;stroke-miterlimit:10;}
	.st1{fill:#FFFFFF;stroke:#FFFFFF;stroke-miterlimit:10;}
	.st2{fill:none;stroke:#BE2026;stroke-width:2;stroke-miterlimit:10;}
	.st3{fill:#FFDEA7;}
	.st4{fill:#BE2026;}
	.st5{fill:#1C94D2;stroke:#FFFFFF;stroke-miterlimit:10;}
	.st6{fill:#FFFFFF;}
	.st7{fill:#00AFAD;stroke:#FFFFFF;stroke-miterlimit:10;}
	.st8{fill:#FFFFFF;stroke:#000000;stroke-width:0.25;stroke-miterlimit:10;}
	.st9{fill:#06884B;}
	.st10{fill:#BEC8CC;stroke:#FFFFFF;stroke-miterlimit:10;}
	.st11{clip-path:url(#SVGID_2_);}
	.st12{fill:#E22126;stroke:#FBE904;stroke-width:0.75;stroke-miterlimit:10;}
	.st13{fill:#191817;}
	.st14{fill:#FBE904;}
	.st15{fill:#E63229;}
	.st16{fill:#FEF16E;stroke:#FFFFFF;stroke-miterlimit:10;}
	.st17{fill:#1F4180;}
	.st18{fill:none;stroke:#E21E26;stroke-width:2;stroke-miterlimit:10;}
	.st19{fill:#E96F2B;}
	.st20{fill:#F29220;}
	.st21{fill:#EF8322;}
	.st22{fill:#EE3F80;}
	.st23{fill:#F1A847;}
	.st24{fill:#FDBA3A;}
	.st25{clip-path:url(#SVGID_4_);}
	.st26{fill:#383635;}
	.st27{clip-path:url(#SVGID_6_);}
	.st28{fill:#181A10;stroke:#FFFFFF;stroke-miterlimit:10;}
	.st29{fill:#EF4323;stroke:#FFFFFF;stroke-miterlimit:10;}
	.st30{fill:#BEDB86;stroke:#FFFFFF;stroke-miterlimit:10;}
	.st31{fill:#FFFFFF;stroke:#000000;stroke-width:0.5;stroke-miterlimit:10;}
	.st32{fill:#E38328;stroke:#FFFFFF;stroke-miterlimit:10;}
	.st33{fill:#020202;}
	.st34{fill:none;stroke:#FFFFFF;stroke-miterlimit:10;}
	.st35{fill:#BFDEF3;stroke:#FFFFFF;stroke-miterlimit:10;}
	.st36{fill:#994573;}
	.st37{fill:#F6F6F6;}
	.st38{fill:#8F4199;stroke:#FFFFFF;stroke-miterlimit:10;}
	.st39{fill:#175633;}
	.st40{fill:#984D2D;}
</style>
<circle class="st30" cx="32.9" cy="32.9" r="32.4"/>
<path class="st31" d="M42,15c2.4,0,4.8,0,7.3,0c0.2,0,0.4-0.1,0.6,0c0.3,0.3,0.8,0.6,0.8,1c0,0.3-0.5,0.7-0.8,1
	c-0.1,0.1-0.3,0-0.5,0.1c-2.2,0.2-3.1,0.9-3.6,3c-1.7,6.5-3.3,13.1-5.1,19.6c-0.5,2-1.4,3.9-2.5,5.7c-1.7,3-4.5,4.6-7.8,5.1
	c-3.7,0.6-7.2,0.5-10.7-1.1c-4.9-2.3-5.8-9.3-2.2-13.2c1.9-2,5.7-2.3,7.9-0.7c1.5,1.1,2,3.3,1.2,5.3c-0.7,1.5-2.5,2.4-4.4,2
	c-0.7-0.1-1.3-0.4-2-0.6c-1.1-0.3-1.7,0.2-1.8,1.4c-0.1,1.7,0.9,3.4,2.6,4.2c3.5,1.7,7.6,0.3,9.3-3.1c1.8-3.5,2.7-7.2,3.7-10.9
	c1.2-4.4,2.3-8.9,3.4-13.3c0.5-2.1,0-2.9-2.1-3.3c-0.6-0.1-1.3-0.2-2-0.3c-0.4-0.1-1,0.1-0.8-0.6c0.1-0.4,0.4-0.9,0.7-1
	c0.6-0.2,1.4-0.3,2-0.3C37.5,15,39.7,15,42,15C42,15,42,15,42,15z"/>
</svg>
