<svg xmlns="http://www.w3.org/2000/svg" viewBox="0 0 65.8 65.8"><style/><circle cx="32.9" cy="32.9" r="32.4" fill="#bedb86" stroke="#fff" stroke-miterlimit="10"/><path d="M42 15h7.3c.2 0 .4-.1.6 0 .3.3.8.6.8 1 0 .3-.5.7-.8 1-.1.1-.3 0-.5.1-2.2.2-3.1.9-3.6 3-1.7 6.5-3.3 13.1-5.1 19.6-.5 2-1.4 3.9-2.5 5.7-1.7 3-4.5 4.6-7.8 5.1-3.7.6-7.2.5-10.7-1.1-4.9-2.3-5.8-9.3-2.2-13.2 1.9-2 5.7-2.3 7.9-.7 1.5 1.1 2 3.3 1.2 5.3-.7 1.5-2.5 2.4-4.4 2-.7-.1-1.3-.4-2-.6-1.1-.3-1.7.2-1.8 1.4-.1 1.7.9 3.4 2.6 4.2 3.5 1.7 7.6.3 9.3-3.1 1.8-3.5 2.7-7.2 3.7-10.9 1.2-4.4 2.3-8.9 3.4-13.3.5-2.1 0-2.9-2.1-3.3-.6-.1-1.3-.2-2-.3-.4-.1-1 .1-.8-.6.1-.4.4-.9.7-1 .6-.2 1.4-.3 2-.3H42s0 0 0 0z" fill="#fff" stroke="#000" stroke-width=".5" stroke-miterlimit="10"/></svg>