<svg version="1.1" id="Layer_1" xmlns="http://www.w3.org/2000/svg" x="0" y="0" viewBox="0 0 65.8 65.8" xml:space="preserve"><style>.st3{fill:#ffdea7}.st4{fill:#be2026}</style><circle cx="32.9" cy="32.9" r="32.4" fill="#fff" stroke="#fff" stroke-miterlimit="10"/><path d="M32.9 63L2.8 32.9 32.9 2.8 63 32.9 32.9 63zM6.5 32.9l26.4 26.5 26.5-26.5L32.9 6.4 6.5 32.9z" fill="none" stroke="#be2026" stroke-width="2" stroke-miterlimit="10"/><path transform="rotate(-45.001 32.892 32.89)" class="st3" d="M11.6 11.6h42.6v42.6H11.6z"/><circle class="st4" cx="32.9" cy="32.9" r="16.5"/><path class="st4" d="M32.6 25.4v14.4h-2.2V30l-3.3 8.3-3.3-8.3v9.8h-2.2V25.4h2.8l2.7 7.6 2.6-7.6h2.9z"/><path class="st3" d="M33.1 40.3h-3.2v-7.6l-2.8 7-2.8-7v7.6H21V24.9h3.7l2.4 6.5 2.3-6.5h3.7v15.4zm-2.2-1h1.2V25.9h-2l-3 8.6-3.1-8.6h-2v13.4h1.2V27.4L27 37l3.9-9.6v11.9z"/><path class="st4" d="M35.2 25.4h8.2v2.8h-8.2z"/><path class="st3" d="M44 28.7h-9.3v-3.9H44v3.9zm-8.3-1h7.2v-1.8h-7.2v1.8z"/><path class="st4" d="M35.2 31.5h8.2v2.7h-8.2z"/><path class="st3" d="M44 34.6h-9.3v-3.7H44v3.7zm-8.3-1h7.2v-1.7h-7.2v1.7z"/><path class="st4" d="M35.2 37.4h8.2v2.4h-8.2z"/><path class="st3" d="M44 40.3h-9.3v-3.4H44v3.4zm-8.3-1h7.2v-1.4h-7.2v1.4z"/></svg>