<?xml version="1.0" encoding="utf-8"?>
<!-- Generator: Adobe Illustrator 21.1.0, SVG Export Plug-In . SVG Version: 6.00 Build 0)  -->
<svg version="1.1" id="Layer_1" xmlns="http://www.w3.org/2000/svg" xmlns:xlink="http://www.w3.org/1999/xlink" x="0px" y="0px"
	 viewBox="0 0 170.1 170.1" style="enable-background:new 0 0 170.1 170.1;" xml:space="preserve">
<style type="text/css">
	.st0{fill:#BE111F;}
	.st1{fill:#E4D057;}
</style>
<g>
	<circle class="st0" cx="85.9" cy="85.4" r="78"/>
	<g>
		<g>
			<path class="st1" d="M18.7,83.9c-0.8,36,28.6,69.3,69.3,68.3c34.1-0.8,64.4-27.3,65.1-66.3c0.4-19.9-7.4-36.9-22.2-50.3
				c-12.3-11.2-27-17-43.6-17.3C50,17.5,19.2,46.4,18.7,83.9z M155.6,85.4c0,36.1-28,67.5-66.1,69.2c-39.9,1.8-71.8-29.3-73.2-67.5
				c-1.5-39.5,29-68.6,64.4-70.9C123.5,13.5,155.5,46.9,155.6,85.4z"/>
		</g>
		<g>
			<path class="st0" d="M129.2,60.7c-0.3,0.5-0.5,0.9-0.7,1.3c-3.3,6.6-5.8,13.5-8,20.5c-2.1,6.7-3.8,13.5-4.9,20.3
				c-0.7,4.2-1.3,8.4-1.8,12.5c-0.4,3.6-0.6,7.3-0.8,11c0,0.4-0.2,0.9,0.2,1.1c0.4,0.2,0.7-0.2,1.1-0.5c4.1-2.6,7.5-5.8,10.6-9.5
				c4.5-5.3,7.7-11.3,9.7-17.9c1.9-6.6,2.6-13.3,1.7-20.2c-0.8-6-2.5-11.6-5.5-16.8C130.3,61.9,130,61.2,129.2,60.7z M103.5,81
				c0.3-0.9,0.6-1.5,0.8-2.2c1.9-5.8,3.9-11.6,6.2-17.2c2-4.9,4.3-9.7,6.8-14.5c0.3-0.6,0.5-1-0.2-1.5c-6.6-5-14-8.4-22.2-10
				c-0.9-0.2-1.1,0.1-1.2,1c-0.2,1.6,0.2,3.1,0.4,4.6c0.4,3.3,0.7,6.7,1.3,10c0.7,3.4,1.7,6.7,2.6,10c1.1,4,2,8.1,3.1,12.1
				C101.8,75.8,102.6,78.2,103.5,81z M18.7,83.9C19.2,46.4,50,17.5,87.2,18.4c16.6,0.4,31.3,6.2,43.6,17.3
				C145.6,49.1,153.4,66.1,153,86c-0.7,39-30.9,65.5-65.1,66.3C47.3,153.2,17.8,119.9,18.7,83.9z M34.9,85c0.3,8.8,2.4,16.6,6.4,24
				c2.5,4.6,5.5,8.7,9.3,12.2c2.4,2.3,4.9,4.6,7.9,6.2c0.7,0.4,1.1,0.4,1-0.6c-0.1-1.2-0.2-2.4-0.3-3.6c-0.1-4.7-0.9-9.4-1.6-14.1
				c-1-6.1-2.4-12.1-4.2-18c-3.1-10.1-6.3-20.1-11.4-29.4c-0.2-0.4-0.2-1.1-0.7-1.1c-0.6,0-0.6,0.7-0.9,1.1
				C36.6,69.2,34.8,77.1,34.9,85z M85.8,135.7c3.1,0,6.2-0.3,9.3-0.8c1-0.2,1.4-0.5,1.4-1.6c0-3.1-0.7-6.2-1.1-9.2
				c-0.6-4.4-1.7-8.7-2.5-13.1c-1.2-6.2-2.9-12.3-4.6-18.3c-0.4-1.4-0.7-2.9-1.5-4.2c-0.6-1-1.1-1-1.7,0c-0.4,0.8-0.8,1.6-1,2.5
				c-2.1,8.8-3.8,17.6-5.2,26.5c-0.8,5.2-1.6,10.5-2,15.7c-0.1,1.3,0.3,1.9,1.5,2C80.8,135.3,83.3,135.7,85.8,135.7z M68.3,79.9
				c0.2-0.7,0.3-1,0.4-1.4c1.8-7.1,3.6-14.3,5.4-21.4c1.7-6.7,2.9-13.5,3.2-20.4c0-1-0.2-1.3-1.3-1.1c-7.2,1.3-13.8,4-19.8,8.2
				c-3.1,2.1-3,2.1-1.3,5.4c3.9,7.2,7.3,14.6,10.2,22.2C66.2,74.2,67.2,76.9,68.3,79.9z"/>
		</g>
		<g>
			<circle class="st1" cx="86.6" cy="85.3" r="64.7"/>
		</g>
		<g>
			<path class="st0" d="M34.9,85c0-7.9,1.7-15.8,5.6-23.2c0.2-0.4,0.3-1.1,0.9-1.1c0.5,0,0.5,0.7,0.7,1.1c5,9.3,8.3,19.3,11.4,29.4
				c1.8,5.9,3.2,11.9,4.2,18c0.7,4.7,1.5,9.3,1.6,14.1c0,1.2,0.2,2.4,0.3,3.6c0.1,1-0.3,1-1,0.6c-3-1.6-5.4-3.9-7.9-6.2
				c-3.8-3.6-6.8-7.7-9.3-12.2C37.2,101.6,35.2,93.8,34.9,85z"/>
		</g>
		<g>
			<path class="st0" d="M129.2,60.7c0.8,0.5,1.1,1.2,1.5,1.9c3.1,5.2,4.7,10.8,5.5,16.8c0.9,6.9,0.2,13.6-1.7,20.2
				c-1.9,6.6-5.2,12.6-9.7,17.9c-3.1,3.7-6.6,6.9-10.6,9.5c-0.3,0.2-0.7,0.6-1.1,0.5c-0.5-0.2-0.3-0.7-0.2-1.1
				c0.2-3.7,0.4-7.3,0.8-11c0.5-4.2,1-8.4,1.8-12.5c1.2-6.9,2.8-13.7,4.9-20.3c2.2-7,4.8-13.9,8-20.5
				C128.7,61.6,129,61.2,129.2,60.7z"/>
		</g>
		<g>
			<path class="st0" d="M85.8,135.7c-2.5,0.1-5-0.3-7.5-0.6c-1.3-0.1-1.7-0.7-1.5-2c0.5-5.3,1.2-10.5,2-15.7
				c1.4-8.9,3.1-17.7,5.2-26.5c0.2-0.9,0.5-1.7,1-2.5c0.6-1,1-1,1.7,0c0.8,1.3,1.1,2.8,1.5,4.2c1.7,6.1,3.4,12.2,4.6,18.3
				c0.9,4.4,2,8.7,2.5,13.1c0.4,3.1,1.1,6.1,1.1,9.2c0,1.1-0.3,1.4-1.4,1.6C92,135.4,88.9,135.6,85.8,135.7z"/>
		</g>
		<g>
			<path class="st0" d="M103.5,81c-0.8-2.7-1.7-5.1-2.3-7.6c-1.1-4-2.1-8.1-3.1-12.1c-0.9-3.3-1.9-6.6-2.6-10
				c-0.7-3.3-0.9-6.7-1.3-10c-0.2-1.5-0.7-3-0.4-4.6c0.1-0.8,0.3-1.1,1.2-1c8.2,1.6,15.5,5,22.2,10c0.7,0.5,0.5,0.9,0.2,1.5
				c-2.4,4.7-4.7,9.5-6.8,14.5c-2.3,5.7-4.3,11.4-6.2,17.2C104,79.4,103.8,80,103.5,81z"/>
		</g>
		<g>
			<path class="st0" d="M68.3,79.9c-1.1-3.1-2.1-5.8-3.1-8.5c-2.9-7.6-6.3-15.1-10.2-22.2c-1.8-3.3-1.8-3.2,1.3-5.4
				c6-4.2,12.6-6.9,19.8-8.2c1.1-0.2,1.3,0.2,1.3,1.1c-0.3,6.9-1.6,13.7-3.2,20.4c-1.8,7.1-3.6,14.3-5.4,21.4
				C68.6,78.9,68.5,79.2,68.3,79.9z"/>
		</g>
	</g>
</g>
</svg>
