<?xml version="1.0" encoding="utf-8"?>
<!-- Generator: Adobe Illustrator 21.1.0, SVG Export Plug-In . SVG Version: 6.00 Build 0)  -->
<svg version="1.1" id="Layer_1" xmlns="http://www.w3.org/2000/svg" xmlns:xlink="http://www.w3.org/1999/xlink" x="0px" y="0px"
	 viewBox="0 0 170.1 170.1" style="enable-background:new 0 0 170.1 170.1;" xml:space="preserve">
<style type="text/css">
	.st0{fill:#EFD416;stroke:#181716;stroke-width:3.5484;stroke-miterlimit:10;}
	.st1{fill:#181716;}
</style>
<g>
	<g>
		<g>
			<circle class="st0" cx="85.7" cy="85.5" r="78"/>
		</g>
		<g>
			<path class="st1" d="M120,22.2l7.3,37.3l-1.5,0.4c-1.8-4.9-4.3-9.2-7.5-12.9c-3.1-3.7-6.6-6.7-10.4-8.9c-3.8-2.2-7.8-3.9-12-5
				c-4.2-1.1-8.3-1.7-12.4-1.7c-5.9,0-11,1.3-15.4,3.9c-4.4,2.6-6.9,6.5-7.7,11.9c0.1,2.2,1,4.1,2.6,5.7c1.6,1.6,3.9,3,6.8,4.3
				c2.9,1.3,6.3,2.5,10.3,3.7C84.1,62,87.7,63,91,64c3.3,1,7.4,2.2,12.2,3.7c4.8,1.4,8.8,2.7,11.9,3.8c3.1,1.1,5.6,2.1,7.4,3.1
				c5.8,3.1,10.3,7.4,13.5,12.8c3.2,5.5,4.8,11.5,4.8,17.9c0,8.9-2.7,16.7-8,23.4c-5.3,6.8-12.2,12-20.5,15.6
				c-8.4,3.6-16.8,5.5-25.3,5.5c-8.6,0-16.9-1.5-25-4.5c-2.9-1-5.2-1.5-6.9-1.5c-3.9,0-6.6,1.1-8.1,3.4l-11-46.9l1.9-0.4
				c1.5,5.9,4.3,11.9,8.6,17.9c4.3,6,9.7,11.1,16.4,15.1c6.6,4,14,6.1,22,6.3c5.9-0.3,11.6-1.3,17.1-3.1c5.5-1.8,10.1-4.5,13.8-8.3
				c3.8-3.7,5.8-8.5,6-14.4c0-4.2-0.7-7.6-2-10.1c-1.3-2.6-3.4-4.7-6.1-6.5c-2.7-1.8-6.7-3.7-12-5.8c-3.5-1.5-7.9-3-13.4-4.5
				c-5.4-1.5-10.2-2.9-14.2-4c-4-1.1-7.8-2.4-11.4-3.8c-3.6-1.4-6.7-3.1-9.4-5C45.8,68.4,42,61.4,41.6,52.9c0.5-3.7,0.8-6.3,0.9-7.7
				c1.8-7.5,6.7-13.4,14.6-17.6s17-6.3,27.3-6.3c2.9,0,5.7,0.2,8.6,0.7c2.8,0.5,6.5,1.2,10.9,2.1c4.4,0.9,7.3,1.5,8.5,1.7
				C116,25.6,118.6,24.3,120,22.2z"/>
		</g>
	</g>
</g>
</svg>
