<svg xmlns="http://www.w3.org/2000/svg" viewBox="0 0 65.8 65.8"><style/><circle cx="32.9" cy="32.9" r="32.4" fill="#00afad" stroke="#fff" stroke-miterlimit="10"/><path d="M53.5 53c-.3-.3-.5-.6-.7-.9-.7-1.2-1.8-1.7-3.1-1.7-1.4 0-2.9.1-4.3.2-.5 0-.8.3-.7.8.1.7.2 1.5.4 2.2.3.9.3 1.4-.3 2.3-2.2-1.9-4.7-1.4-7.3-1.1-2.2.3-4.5.4-6.7.4-.7 0-1.5-.3-2.2-.5-.4-.1-.7-.1-1.1.1-1.9 1.1-4.9.1-5.8-1.8.7-.1 1.4 0 2.1-.3 1.1-.3 1.8-1.1 2-2.2.3-1.3.6-2.6.7-3.9.1-2.8 0-5.5 0-8.3 0-.9-.7-.7-1.1-.8-.2 0-.8.3-.9.5-.3 1.3-.4 2.6.3 3.8.3.5.7.8 1.1 1.3-.5.7-1.2.5-1.8.6-.4 0-.8 0-1.2.2-1.2.5-2.4-.1-2.7-1.5h.3c1.1 0 1.7-.5 1.7-1.5-.1-2.2-.3-4.3-.5-6.5 0-.4-.2-.6-.6-.8-.8-.4-1.6-.8-2.4-1.3v3.9l.3 8.7c0 .5 0 1.1.1 1.6.2 1.7 1.1 2.4 2.7 2.3h.6c-.1.9-.8 1.8-1.8 2-.9.2-1.6.2-2.4.2-.6 0-1 0-1.3.6-.1.2-.4.4-.6.6-1.6 1.4-2.5 1.4-4.2.1-1-.8-1.6-1.4-1.7-2.2.2.1.4.1.5.2.7.5 1.6.7 2.4.3.9-.5 1.4-1.4 1.4-2.4V19.1c0-.7-.2-1.4-.6-1.9-.6-.9-1.5-1.1-2.6-.8-.2 0-.3.1-.5.1.4-1.4 1.8-2.2 3-1.9 1.4.4 2.8.7 4.3.5 1.2-.1 2.1-.5 2.7-1.6.9-1.6 2.9-1.8 4.2-.5.1.1.2.2.3.5 0-1.5-.5-2.2-2.3-3.1 0-1.1 0-1.1 1.1-1.1.4 0 .7-.1 1.1-.1.6-.2 1.2-.7 1.5-1.5h.2c1 1.1 2.1.5 3.2.4 1.9-.2 3.6.3 5.1 1.5v.2c-.5 0-1.1.1-1.6.1-2.3-.3-2.9.7-3.6 2.6-.3.8-.4 1.7-.5 2.6 1.7.5 3.2 1.2 4.1 2.8.9-.4 1.7-.9 2.6-1.3.9-.4 1.9-.5 2.7.1 1.1.8 2.4 1 3.6.9 2.5 0 5.1-.2 7.6-.3 1 0 1.8-.5 2.3-1.4.1-.2.3-.4.4-.7.8.7 1.3 1.5 1.2 2.5-.1.9-.3 1.8-.4 2.6-.4 2-.1 3.7 1.5 5v.1c-.9.5-2.7-.2-3.3-1.1-.6-.9-1.1-1.8-1.4-2.8-.4-1-.9-1.6-2-1.6-1.7 0-3.3 0-5 .1-1.4.1-2 1.2-2.2 2.4-.2 2.1-.3 4.1-.4 6.2 0 .2.2.4.3.5 1.5.5 2.5 1.5 3 3 1.3-.8 1.4-1.6.1-3.6 1.5-.4 3.2.2 3.8 1.2.7 1.2.3 2.1-1.6 3.8 1.2.9 2.1 1.9 1.3 3.6-.5 1.1-1.4 1.6-2.9 1.5.7-1.4 1.3-2.8-.6-3.6-.7.9-1.4 1.8-2 2.5.6 1.4 1.3 3 2 4.5.4.9 1.2 1.3 2.2 1 .3-.1.6-.2.8-.3-.2 1.3-1.2 2.2-2.4 2.3-1.1.1-2.3-.6-2.7-1.7 0-.5-.3-1.3-.5-2.3-.4 2 .3 5.4 1.1 5.9.8-.4 1.7-.9 2.5-1.3 0 .1.1.1.2.2-.1.2-.3.4-.4.7-.2.3-.4.6-.5.9-.2.7-.1 1 .7 1 1.1 0 2.2 0 3.3-.2 1.3-.2 2.2-1 2.8-2.1.6-1 1.3-1.8 2.4-2.3 0 .1.1.1.1.1-1.1 2-.2 3.9.1 5.8.3 1.7.2 2.4-.6 3.3zm-23.2-9.5c-.1 0-.2 0-.2.1.3 2 .5 4 .8 6 .2 1.2.9 2.1 2 2.6 2.6 1.1 5.1.7 7.3-1 .4-.3.7-.8 1.1-1.3-.6-.4-1-.3-1.4 0-1.8 1-3.6 1.3-5.4-.1-.4-.4-.8-.7-.7-1.5.3.2.5.3.7.4 1.3.6 2.4.4 2.8-.8.4-1 .5-2.1.7-3.2h-3.3c-.7.1-1.3.1-1.8-.4-.1-.1-.4-.2-.5-.2-.8.3-1.5 0-2.1-.6zm-8.8-18.7c-1.6.7-2.9 1.8-2.5 3.8.2 1.4 1.2 2.3 2.4 3.1.3-1.2-.5-1.9-1.3-2.6.4-.1.7-.3.9-.3.7.1 1.4.3 2.2.5.2 0 .5.2.7.2.8-.2 1.6-.5 2.5-.8 0 0 0 0 0 0 0-1.4-.1-2.9-.1-4.3 0-1.1-.1-1.1-1-.7-1.4.6-3.3.3-4-.7-.8-1.3-1.2-2.6-.4-4.1.3-.5.6-1 .8-1.5.1-.2 0-.5-.1-.7 0-.1-.4-.1-.5-.1-2.5.8-3.5 4.7-1.6 6.6.5.6 1.3 1 2 1.6zm12.4 18c.1-.4.3-.8.4-1.2.3-2.4.4-4.9 0-7.3-.1-.8-.3-1.7-1.1-2.4 0 1.1.2 2.2 0 3.1-.3.9-1.1 1.6-1.7 2.4.1.3.3.6.4 1 .2.8.3 1.6.5 2.3 0 .9.2 1.9 1.5 2.1zm3.9-17.5v-3.9c0-.7 0-1.4-.2-2.2-.1-.9-.7-1.4-1.5-1.4 0 .8 0 1.6.1 2.4 0 1.1 0 2.2.1 3.2.2.9.6 1.6 1.5 1.9zm0 3.7v-2.8h-.2c-1.5.1-2 1.3-2.5 2.5-.3.6-.5 1.2-.8 1.8v.2c.2.1.4.2.5.3 0-.1 0-.1-.1-.2 1.1-.6 2-1.1 3.1-1.8zm-6.5.7c1.4-1.8.8-5-1-5.6v4.3c.1.7.3 1.1 1 1.3zm6.7 6.8v-4.7c-.9.3-1.6 1.2-1.6 2.2 0 1.2.6 2.2 1.6 2.5zm-7.6-13.6c.7.1 1.2.2 1.5-.5.6-1.1-.4-3.4-1.6-3.8v.3c-.1 1.3 0 2.7.1 4zm7.6 16c-1.1.4-1.4 1.1-1.4 2.4 0 1 .1 2.1 1.4 2.6v-5zM22.8 19.1c-.7 1-.8 2.2-.2 2.9.5.5 1.4.6 2.2.1-.7-1-1.3-2-2-3zm1.8.3c.4-.3.6-.7.9-.8.9-.2.7-.9.7-1.4 0-.2-.2-.4-.3-.5-.3 0-.7-.1-.9.1-.4.4-.8.9-1.2 1.4.2.3.5.7.8 1.2zm0 13.3c.6 0 1.2.1 1.8.1 0-.7-.1-1.2-.1-1.9-.8.4-1.6.7-1.7 1.8zm1.8 2.5c-.6-.1-1.1-.3-1.7-.4-.1 1 .5 1.5 1.7 1.5v-1.1zm15.2-3.8c-.1 0-.1.1-.2.1 0 .5 0 1 .1 1.5.4 0 .8 0 1.4-.1-.5-.5-.9-1-1.3-1.5zM26.2 19.9c-.8.3-.9.7-.3 1.4.6-.4.3-.9.3-1.4zm5 14.3c-1.1 0-.7.6-.7 1.1.1 0 .2.1.3.1 0-.4.2-.8.4-1.2zm11.5 1.1h-1.1v1h.2c.3-.2.6-.6.9-1z" fill="#fff" stroke="#000" stroke-width=".25" stroke-miterlimit="10"/></svg>