<?xml version="1.0" encoding="utf-8"?>
<!-- Generator: Adobe Illustrator 21.1.0, SVG Export Plug-In . SVG Version: 6.00 Build 0)  -->
<svg version="1.1" id="Layer_1" xmlns="http://www.w3.org/2000/svg" xmlns:xlink="http://www.w3.org/1999/xlink" x="0px" y="0px"
	 viewBox="0 0 170.1 170.1" style="enable-background:new 0 0 170.1 170.1;" xml:space="preserve">
<style type="text/css">
	.st0{fill:#ECC21D;stroke:#1A0B01;stroke-width:6.039;stroke-miterlimit:10;}
	.st1{fill:#1A0B01;}
	.st2{fill:#ECC21D;}
</style>
<g>
	<circle class="st0" cx="85" cy="85" r="78"/>
	<g>
		<g>
			<g>
				<path class="st1" d="M131.9,133c-0.6-0.7-1.1-1.3-1.5-2c-1.6-2.8-4.1-3.8-7.1-3.8c-3.3,0-6.6,0.3-9.9,0.5
					c-1.2,0.1-1.8,0.6-1.5,1.9c0.3,1.7,0.5,3.5,1,5.1c0.6,2.1,0.6,3.1-0.6,5.3c-5-4.4-10.8-3.3-16.6-2.6c-5.1,0.6-10.2,0.8-15.3,0.9
					c-1.7,0-3.5-0.6-5.1-1.1c-0.9-0.3-1.6-0.3-2.5,0.2c-4.4,2.4-11.1,0.3-13.2-4c1.5-0.2,3.2-0.1,4.7-0.6c2.4-0.7,4-2.5,4.6-4.9
					c0.7-2.9,1.4-5.9,1.5-8.8c0.2-6.3-0.1-12.6-0.1-18.9c0-2-1.6-1.7-2.6-1.9c-0.5-0.1-1.9,0.7-2,1.2c-0.6,2.9-0.8,5.9,0.6,8.6
					c0.6,1.1,1.7,1.9,2.6,2.9c-1.1,1.5-2.7,1.2-4.2,1.3c-0.9,0.1-1.9,0.1-2.8,0.4c-2.7,1.1-5.4-0.3-6.1-3.4c0.2,0,0.4-0.1,0.6-0.1
					c2.4,0.1,3.9-1.1,3.8-3.5c-0.3-4.9-0.7-9.8-1.1-14.8c-0.1-0.9-0.5-1.4-1.4-1.8c-1.8-0.8-3.6-1.9-5.5-3c0,3-0.1,5.9,0,8.8
					c0.2,6.6,0.4,13.3,0.6,19.9c0,1.2,0.1,2.5,0.3,3.7c0.4,3.8,2.4,5.5,6.2,5.3c0.4,0,0.9-0.1,1.4-0.1c-0.2,2.1-1.9,4.1-4,4.5
					c-1.7,0.3-3.5,0.3-5.2,0.2c-1.3-0.1-2.3,0.1-3,1.3c-0.3,0.5-0.8,0.9-1.3,1.4c-3.6,3.2-5.7,3.3-9.6,0.3c-2.3-1.8-3.6-3.3-3.9-4.9
					c0.4,0.2,0.8,0.2,1.1,0.4c1.7,1.2,3.6,1.7,5.4,0.6c2-1.2,3.1-3.1,3.1-5.5c0-7.8-0.1-15.6-0.1-23.4c0-14.3,0.1-28.5,0-42.8
					c0-1.5-0.5-3.2-1.3-4.4c-1.3-2.1-3.5-2.5-5.9-1.8c-0.4,0.1-0.7,0.2-1.2,0.3c0.9-3.1,4.1-5.1,6.9-4.4c3.2,0.8,6.4,1.5,9.7,1.2
					c2.7-0.3,4.8-1.2,6.2-3.7c2-3.6,6.7-4.1,9.5-1.1c0.2,0.2,0.4,0.5,0.7,1.1c0.1-3.4-1.1-4.9-5.3-7.1c0.1-2.4,0.1-2.4,2.4-2.6
					c0.8-0.1,1.6-0.2,2.4-0.3c2-0.2,3.3-1.3,4-3.1c0.3,0,0.4,0,0.4,0c2.2,2.6,4.8,1.2,7.4,0.9c4.4-0.5,8.3,0.6,11.7,3.4
					c0,0.2,0,0.3,0,0.5c-1.2,0.1-2.4,0.3-3.6,0.2c-5.3-0.7-6.7,1.7-8.3,5.9c-0.7,1.8-0.8,3.8-1.2,5.9c3.9,1.1,7.2,2.7,9.4,6.4
					c2-1,3.9-2.1,5.9-3c2.1-1,4.3-1.1,6.2,0.3c2.5,1.9,5.4,2.2,8.2,2.1c5.8-0.1,11.6-0.4,17.3-0.7c2.2-0.1,4-1.2,5.2-3.1
					c0.3-0.5,0.6-0.9,1-1.6c1.9,1.6,2.9,3.5,2.7,5.8c-0.2,2-0.6,4-1,6c-1,4.5-0.2,8.5,3.5,11.5c0.1,0.1,0.1,0.2,0.1,0.3
					c-2,1.2-6.2-0.5-7.5-2.5c-1.3-2-2.4-4.1-3.2-6.3c-0.8-2.2-2.1-3.6-4.5-3.6c-3.8,0-7.6,0-11.4,0.3c-3.3,0.2-4.6,2.8-4.9,5.5
					c-0.5,4.7-0.6,9.4-0.8,14.1c0,0.4,0.4,1,0.7,1.1c3.5,1.1,5.7,3.4,6.9,6.8c3-1.8,3.1-3.6,0.2-8.2c3.4-0.8,7.4,0.4,8.6,2.7
					c1.5,2.7,0.6,4.7-3.7,8.6c2.8,2,4.8,4.4,3,8.1c-1.2,2.5-3.2,3.7-6.6,3.5c1.5-3.2,2.9-6.4-1.4-8.3c-1.6,2.1-3.1,4-4.5,5.8
					c1.4,3.3,2.9,6.8,4.5,10.3c0.9,2.1,2.8,2.9,5.1,2.3c0.6-0.2,1.3-0.4,1.9-0.6c-0.4,2.9-2.7,4.9-5.5,5.2c-2.6,0.3-5.3-1.4-6.2-3.9
					c-0.6-1.8-1.1-3.7-1.7-5.8c-0.8,4.5,0.7,12.2,2.6,13.5c1.9-1,3.8-2,5.8-3c0.1,0.2,0.2,0.3,0.4,0.5c-0.3,0.5-0.6,1-0.9,1.5
					c-0.4,0.7-0.9,1.4-1.1,2.1c-0.5,1.7-0.2,2.3,1.6,2.3c2.5,0,5.1-0.1,7.6-0.5c2.9-0.4,4.9-2.2,6.4-4.7c1.3-2.2,2.9-4.2,5.4-5.2
					c0.1,0.2,0.3,0.3,0.2,0.3c-2.4,4.5-0.5,8.9,0.2,13.3C133.9,129.3,133.8,131.1,131.9,133z M79.1,111.5c-0.2,0.1-0.4,0.1-0.5,0.2
					c0.6,4.5,1.2,9.1,1.9,13.6c0.5,2.7,2,4.8,4.6,5.9c6,2.4,11.6,1.6,16.7-2.3c1-0.7,1.7-1.9,2.5-2.9c-1.4-0.8-2.3-0.7-3.3-0.1
					c-4.1,2.2-8.3,3-12.4-0.2c-1-0.8-1.9-1.7-1.7-3.4c0.7,0.4,1.1,0.7,1.5,0.9c3,1.4,5.5,0.8,6.4-1.8c0.8-2.3,1.1-4.8,1.6-7.3
					c-1.9,0-3.4,0-4.9,0c-0.9,0-1.7-0.1-2.6,0.1c-1.5,0.3-2.9,0.2-4.1-0.9c-0.3-0.3-0.8-0.5-1.1-0.4
					C81.9,113.4,80.4,112.8,79.1,111.5z M59,68.7c-3.7,1.7-6.5,4.2-5.7,8.7c0.5,3.2,2.7,5.3,5.4,7c0.7-2.8-1.1-4.3-3-5.9
					c0.9-0.3,1.5-0.7,2-0.6c1.7,0.3,3.3,0.7,4.9,1.1c0.5,0.1,1.1,0.5,1.5,0.4c1.9-0.5,3.7-1.1,5.8-1.8c-0.1,0.1,0,0,0-0.1
					c-0.1-3.2-0.2-6.5-0.2-9.7c0-2.4-0.2-2.5-2.3-1.6c-3.2,1.4-7.6,0.7-9.1-1.5c-1.9-2.9-2.8-5.9-1-9.3c0.6-1.1,1.3-2.3,1.8-3.5
					c0.2-0.4,0-1.1-0.2-1.5c-0.1-0.2-0.8-0.3-1.1-0.2c-5.7,1.9-7.9,10.8-3.6,15C55.5,66.6,57.3,67.5,59,68.7z M87.2,109.7
					c0.3-1,0.6-1.8,0.8-2.7c0.7-5.5,0.9-11.1,0-16.6c-0.3-1.9-0.7-3.8-2.6-5.4c0,2.6,0.5,5-0.1,7c-0.7,2-2.6,3.7-3.9,5.5
					c0.2,0.6,0.7,1.4,1,2.3c0.4,1.8,0.6,3.6,1.1,5.3C83.9,107.1,84.2,109.3,87.2,109.7z M96.2,69.9c0-3,0-5.9,0-8.8
					c0-1.6-0.1-3.3-0.4-4.9c-0.3-2-1.7-3.2-3.4-3.2c0.1,1.8,0.1,3.6,0.2,5.4c0.1,2.4,0.1,4.9,0.3,7.3C93.1,67.6,94,69.2,96.2,69.9z
					 M96.2,78.4c0-1.8,0-4,0-6.3C96,72,95.9,72,95.8,72c-3.4,0.3-4.6,2.9-5.7,5.6c-0.6,1.4-1.2,2.8-1.8,4.2c0,0.1,0,0.2,0,0.4
					c0.4,0.2,0.8,0.5,1.2,0.7c-0.1-0.2-0.1-0.3-0.2-0.5C91.5,81.2,93.6,79.9,96.2,78.4z M81.4,80c3.1-4.2,1.8-11.5-2.2-12.7
					c0,3.3,0.1,6.6,0,9.8C79.2,78.7,79.8,79.6,81.4,80z M96.6,95.4c0-3.5,0-7.1,0-10.8c-2.1,0.6-3.6,2.7-3.6,4.9
					C92.9,92.6,94.3,94.7,96.6,95.4z M79.2,64.5c1.5,0.2,2.7,0.4,3.4-1.1c1.3-2.5-0.9-7.7-3.7-8.7c0,0.2-0.1,0.4-0.1,0.6
					C78.9,58.4,79.1,61.4,79.2,64.5z M96.7,101c-2.4,1-3.3,2.4-3.1,5.5c0.1,2.3,0.2,4.7,3.1,5.9C96.7,108.5,96.7,104.8,96.7,101z
					 M61.9,55.8c-1.7,2.2-1.8,5-0.5,6.5c1.1,1.2,3.2,1.3,5,0.2C64.9,60.3,63.5,58.1,61.9,55.8z M66,56.5c0.8-0.7,1.3-1.7,2.1-1.9
					c2-0.5,1.7-2,1.5-3.3c0-0.4-0.4-1-0.7-1.1c-0.6-0.1-1.5-0.2-2,0.2c-1,0.9-1.8,2-2.8,3.1C64.7,54.4,65.3,55.4,66,56.5z M66,86.9
					c1.4,0.1,2.7,0.2,4.2,0.3c-0.1-1.6-0.2-2.8-0.2-4.3C68,83.7,66.4,84.4,66,86.9z M70.2,92.6c-1.3-0.3-2.5-0.6-3.9-0.9
					c-0.2,2.3,1.1,3.5,3.9,3.5C70.2,94.4,70.2,93.5,70.2,92.6z M104.9,83.9c-0.2,0.1-0.3,0.2-0.5,0.3c0.1,1.1,0.1,2.2,0.2,3.5
					c1-0.1,1.9-0.1,3.3-0.2C106.7,86.1,105.8,85,104.9,83.9z M69.7,57.6c-1.8,0.6-2,1.6-0.7,3.1C70.5,59.9,69.8,58.7,69.7,57.6z
					 M81,90.3c-2.5,0.1-1.7,1.4-1.7,2.4c0.2,0.1,0.4,0.2,0.6,0.2C80.2,92.1,80.6,91.2,81,90.3z M107.3,92.7c-1,0-1.6,0-2.4,0
					c0.1,0.9,0.1,1.6,0.1,2.3c0.1,0,0.3,0.1,0.4,0.1C106,94.5,106.6,93.7,107.3,92.7z"/>
				<path class="st2" d="M79.1,111.5c1.3,1.3,2.8,1.9,4.6,1.3c0.3-0.1,0.8,0.2,1.1,0.4c1.2,1.2,2.6,1.3,4.1,0.9
					c0.8-0.2,1.7-0.1,2.6-0.1c1.5,0,3,0,4.9,0c-0.5,2.5-0.8,5-1.6,7.3c-0.9,2.6-3.4,3.2-6.4,1.8c-0.4-0.2-0.9-0.5-1.5-0.9
					c-0.1,1.7,0.7,2.6,1.7,3.4c4.1,3.2,8.3,2.5,12.4,0.2c1.1-0.6,1.9-0.8,3.3,0.1c-0.9,1-1.6,2.1-2.5,2.9
					c-5.1,3.9-10.7,4.6-16.7,2.3c-2.7-1-4.2-3.1-4.6-5.9c-0.8-4.5-1.3-9.1-1.9-13.6C78.8,111.6,79,111.6,79.1,111.5z"/>
				<path class="st2" d="M59,68.7c-1.8-1.2-3.5-2.1-4.8-3.5c-4.2-4.2-2-13.1,3.6-15c0.3-0.1,1,0,1.1,0.2c0.2,0.4,0.3,1.1,0.2,1.5
					c-0.5,1.2-1.2,2.3-1.8,3.5c-1.8,3.3-0.9,6.4,1,9.3c1.5,2.3,5.9,2.9,9.1,1.5c2.2-0.9,2.3-0.8,2.3,1.6c0.1,3.2,0.1,6.5,0.2,9.7
					c0,0.1-0.1,0.2,0,0.1c-2,0.6-3.9,1.3-5.8,1.8c-0.5,0.1-1-0.2-1.5-0.4c-1.6-0.4-3.3-0.8-4.9-1.1c-0.5-0.1-1.1,0.3-2,0.6
					c1.9,1.7,3.7,3.1,3,5.9c-2.7-1.7-4.9-3.8-5.4-7C52.5,72.9,55.3,70.4,59,68.7z"/>
				<path class="st2" d="M87.2,109.7c-2.9-0.4-3.3-2.6-3.8-4.6c-0.5-1.7-0.6-3.6-1.1-5.3c-0.2-0.9-0.7-1.7-1-2.3
					c1.3-1.8,3.2-3.4,3.9-5.5c0.7-2,0.1-4.4,0.1-7c1.9,1.6,2.3,3.5,2.6,5.4c0.9,5.5,0.7,11.1,0,16.6
					C87.8,107.9,87.4,108.7,87.2,109.7z"/>
				<path class="st2" d="M96.2,69.9c-2.2-0.7-3.1-2.3-3.3-4.3c-0.3-2.4-0.2-4.9-0.3-7.3c-0.1-1.8-0.1-3.6-0.2-5.4
					c1.7,0.1,3.1,1.2,3.4,3.2c0.2,1.6,0.3,3.3,0.4,4.9C96.2,64,96.2,66.9,96.2,69.9z"/>
				<path class="st2" d="M96.2,78.4c-2.6,1.5-4.7,2.8-6.8,4.1c0.1,0.2,0.1,0.3,0.2,0.5c-0.4-0.3-0.8-0.5-1.2-0.7
					c0-0.2-0.1-0.3,0-0.4c0.6-1.4,1.2-2.8,1.8-4.2c1.1-2.6,2.3-5.3,5.7-5.6c0.1,0,0.2,0.1,0.4,0.1C96.2,74.3,96.2,76.6,96.2,78.4z"
					/>
				<path class="st2" d="M81.4,80c-1.6-0.4-2.2-1.3-2.2-2.8c0.1-3.3,0-6.6,0-9.8C83.2,68.5,84.4,75.7,81.4,80z"/>
				<path class="st2" d="M96.6,95.4c-2.3-0.7-3.7-2.8-3.6-5.8c0-2.3,1.5-4.4,3.6-4.9C96.6,88.2,96.6,91.8,96.6,95.4z"/>
				<path class="st2" d="M79.2,64.5c-0.1-3.2-0.3-6.1-0.4-9.1c0-0.2,0-0.4,0.1-0.6c2.8,1,5,6.2,3.7,8.7
					C81.9,64.9,80.7,64.8,79.2,64.5z"/>
				<path class="st2" d="M96.7,101c0,3.8,0,7.5,0,11.4c-2.9-1.3-3-3.6-3.1-5.9C93.4,103.4,94.3,102,96.7,101z"/>
				<path class="st2" d="M61.9,55.8c1.6,2.3,3,4.5,4.5,6.7c-1.8,1.1-3.9,1-5-0.2C60.1,60.8,60.2,58.1,61.9,55.8z"/>
				<path class="st2" d="M66,56.5c-0.6-1-1.2-2-1.8-3c1-1.1,1.8-2.2,2.8-3.1c0.4-0.4,1.3-0.3,2-0.2c0.3,0.1,0.6,0.7,0.7,1.1
					c0.1,1.4,0.5,2.8-1.5,3.3C67.3,54.8,66.7,55.8,66,56.5z"/>
				<path class="st2" d="M66,86.9c0.4-2.5,2-3.2,4-4c0.1,1.5,0.1,2.7,0.2,4.3C68.8,87.1,67.5,87,66,86.9z"/>
				<path class="st2" d="M70.2,92.6c0,0.9,0,1.8,0,2.6c-2.7,0-4-1.2-3.9-3.5C67.6,92,68.9,92.3,70.2,92.6z"/>
				<path class="st2" d="M104.9,83.9c0.9,1.1,1.8,2.2,3,3.6c-1.4,0.1-2.3,0.2-3.3,0.2c-0.1-1.3-0.1-2.4-0.2-3.5
					C104.6,84.1,104.7,84,104.9,83.9z"/>
				<path class="st2" d="M69.7,57.6c0,1.1,0.7,2.3-0.7,3.1C67.8,59.1,67.9,58.2,69.7,57.6z"/>
				<path class="st2" d="M81,90.3c-0.4,0.9-0.8,1.8-1.2,2.7c-0.2-0.1-0.4-0.2-0.6-0.2C79.3,91.7,78.6,90.4,81,90.3z"/>
				<path class="st2" d="M107.3,92.7c-0.7,1-1.3,1.7-1.8,2.4c-0.1,0-0.3-0.1-0.4-0.1c0-0.7-0.1-1.5-0.1-2.3
					C105.7,92.7,106.3,92.7,107.3,92.7z"/>
			</g>
		</g>
	</g>
</g>
</svg>
