<?xml version="1.0" encoding="utf-8"?>
<!-- Generator: Adobe Illustrator 21.0.0, SVG Export Plug-In . SVG Version: 6.00 Build 0)  -->
<svg version="1.1" id="Layer_1" xmlns="http://www.w3.org/2000/svg" xmlns:xlink="http://www.w3.org/1999/xlink" x="0px" y="0px"
	 viewBox="0 0 65.8 65.8" style="enable-background:new 0 0 65.8 65.8;" xml:space="preserve">
<style type="text/css">
	.st0{fill:#FFFFFF;stroke:#000000;stroke-miterlimit:10;}
	.st1{fill:#FFFFFF;stroke:#FFFFFF;stroke-miterlimit:10;}
	.st2{fill:none;stroke:#BE2026;stroke-width:2;stroke-miterlimit:10;}
	.st3{fill:#FFDEA7;}
	.st4{fill:#BE2026;}
	.st5{fill:#1C94D2;stroke:#FFFFFF;stroke-miterlimit:10;}
	.st6{fill:#FFFFFF;}
	.st7{fill:#00AFAD;stroke:#FFFFFF;stroke-miterlimit:10;}
	.st8{fill:#FFFFFF;stroke:#000000;stroke-width:0.25;stroke-miterlimit:10;}
	.st9{fill:#06884B;}
	.st10{fill:#BEC8CC;stroke:#FFFFFF;stroke-miterlimit:10;}
	.st11{clip-path:url(#SVGID_2_);}
	.st12{fill:#E22126;stroke:#FBE904;stroke-width:0.75;stroke-miterlimit:10;}
	.st13{fill:#191817;}
	.st14{fill:#FBE904;}
	.st15{fill:#E63229;}
	.st16{fill:#FEF16E;stroke:#FFFFFF;stroke-miterlimit:10;}
	.st17{fill:#1F4180;}
	.st18{fill:none;stroke:#E21E26;stroke-width:2;stroke-miterlimit:10;}
	.st19{fill:#E96F2B;}
	.st20{fill:#F29220;}
	.st21{fill:#EF8322;}
	.st22{fill:#EE3F80;}
	.st23{fill:#F1A847;}
	.st24{fill:#FDBA3A;}
	.st25{clip-path:url(#SVGID_4_);}
	.st26{fill:#383635;}
	.st27{clip-path:url(#SVGID_6_);}
	.st28{fill:#181A10;stroke:#FFFFFF;stroke-miterlimit:10;}
	.st29{fill:#EF4323;stroke:#FFFFFF;stroke-miterlimit:10;}
	.st30{fill:#BEDB86;stroke:#FFFFFF;stroke-miterlimit:10;}
	.st31{fill:#FFFFFF;stroke:#000000;stroke-width:0.5;stroke-miterlimit:10;}
	.st32{fill:#E38328;stroke:#FFFFFF;stroke-miterlimit:10;}
	.st33{fill:#020202;}
	.st34{fill:none;stroke:#FFFFFF;stroke-miterlimit:10;}
	.st35{fill:#BFDEF3;stroke:#FFFFFF;stroke-miterlimit:10;}
	.st36{fill:#994573;}
	.st37{fill:#F6F6F6;}
	.st38{fill:#8F4199;stroke:#FFFFFF;stroke-miterlimit:10;}
	.st39{fill:#175633;}
	.st40{fill:#984D2D;}
</style>
<circle class="st7" cx="32.9" cy="32.9" r="32.4"/>
<g>
	<g>
		<g>
			<g>
				<path class="st8" d="M53.5,53c-0.3-0.3-0.5-0.6-0.7-0.9c-0.7-1.2-1.8-1.7-3.1-1.7c-1.4,0-2.9,0.1-4.3,0.2
					c-0.5,0-0.8,0.3-0.7,0.8c0.1,0.7,0.2,1.5,0.4,2.2c0.3,0.9,0.3,1.4-0.3,2.3c-2.2-1.9-4.7-1.4-7.3-1.1c-2.2,0.3-4.5,0.4-6.7,0.4
					c-0.7,0-1.5-0.3-2.2-0.5c-0.4-0.1-0.7-0.1-1.1,0.1c-1.9,1.1-4.9,0.1-5.8-1.8c0.7-0.1,1.4,0,2.1-0.3c1.1-0.3,1.8-1.1,2-2.2
					c0.3-1.3,0.6-2.6,0.7-3.9c0.1-2.8,0-5.5,0-8.3c0-0.9-0.7-0.7-1.1-0.8c-0.2,0-0.8,0.3-0.9,0.5c-0.3,1.3-0.4,2.6,0.3,3.8
					c0.3,0.5,0.7,0.8,1.1,1.3c-0.5,0.7-1.2,0.5-1.8,0.6c-0.4,0-0.8,0-1.2,0.2c-1.2,0.5-2.4-0.1-2.7-1.5c0.1,0,0.2,0,0.3,0
					c1.1,0,1.7-0.5,1.7-1.5c-0.1-2.2-0.3-4.3-0.5-6.5c0-0.4-0.2-0.6-0.6-0.8c-0.8-0.4-1.6-0.8-2.4-1.3c0,1.3,0,2.6,0,3.9
					c0.1,2.9,0.2,5.8,0.3,8.7c0,0.5,0,1.1,0.1,1.6c0.2,1.7,1.1,2.4,2.7,2.3c0.2,0,0.4,0,0.6,0c-0.1,0.9-0.8,1.8-1.8,2
					C19.7,51,19,51,18.2,51c-0.6,0-1,0-1.3,0.6c-0.1,0.2-0.4,0.4-0.6,0.6c-1.6,1.4-2.5,1.4-4.2,0.1c-1-0.8-1.6-1.4-1.7-2.2
					c0.2,0.1,0.4,0.1,0.5,0.2c0.7,0.5,1.6,0.7,2.4,0.3c0.9-0.5,1.4-1.4,1.4-2.4c0-3.4,0-6.8,0-10.3c0-6.3,0-12.5,0-18.8
					c0-0.7-0.2-1.4-0.6-1.9c-0.6-0.9-1.5-1.1-2.6-0.8c-0.2,0-0.3,0.1-0.5,0.1c0.4-1.4,1.8-2.2,3-1.9c1.4,0.4,2.8,0.7,4.3,0.5
					c1.2-0.1,2.1-0.5,2.7-1.6c0.9-1.6,2.9-1.8,4.2-0.5c0.1,0.1,0.2,0.2,0.3,0.5c0-1.5-0.5-2.2-2.3-3.1c0-1.1,0-1.1,1.1-1.1
					c0.4,0,0.7-0.1,1.1-0.1C26,9,26.6,8.5,26.9,7.7c0.1,0,0.2,0,0.2,0c1,1.1,2.1,0.5,3.2,0.4c1.9-0.2,3.6,0.3,5.1,1.5
					c0,0.1,0,0.1,0,0.2c-0.5,0-1.1,0.1-1.6,0.1c-2.3-0.3-2.9,0.7-3.6,2.6c-0.3,0.8-0.4,1.7-0.5,2.6c1.7,0.5,3.2,1.2,4.1,2.8
					c0.9-0.4,1.7-0.9,2.6-1.3c0.9-0.4,1.9-0.5,2.7,0.1c1.1,0.8,2.4,1,3.6,0.9c2.5,0,5.1-0.2,7.6-0.3c1,0,1.8-0.5,2.3-1.4
					c0.1-0.2,0.3-0.4,0.4-0.7c0.8,0.7,1.3,1.5,1.2,2.5c-0.1,0.9-0.3,1.8-0.4,2.6c-0.4,2-0.1,3.7,1.5,5c0,0,0,0.1,0,0.1
					c-0.9,0.5-2.7-0.2-3.3-1.1c-0.6-0.9-1.1-1.8-1.4-2.8c-0.4-1-0.9-1.6-2-1.6c-1.7,0-3.3,0-5,0.1c-1.4,0.1-2,1.2-2.2,2.4
					c-0.2,2.1-0.3,4.1-0.4,6.2c0,0.2,0.2,0.4,0.3,0.5c1.5,0.5,2.5,1.5,3,3c1.3-0.8,1.4-1.6,0.1-3.6c1.5-0.4,3.2,0.2,3.8,1.2
					c0.7,1.2,0.3,2.1-1.6,3.8c1.2,0.9,2.1,1.9,1.3,3.6c-0.5,1.1-1.4,1.6-2.9,1.5c0.7-1.4,1.3-2.8-0.6-3.6c-0.7,0.9-1.4,1.8-2,2.5
					c0.6,1.4,1.3,3,2,4.5c0.4,0.9,1.2,1.3,2.2,1c0.3-0.1,0.6-0.2,0.8-0.3c-0.2,1.3-1.2,2.2-2.4,2.3c-1.1,0.1-2.3-0.6-2.7-1.7
					C42.3,42.8,42,42,41.8,41c-0.4,2,0.3,5.4,1.1,5.9c0.8-0.4,1.7-0.9,2.5-1.3c0,0.1,0.1,0.1,0.2,0.2c-0.1,0.2-0.3,0.4-0.4,0.7
					c-0.2,0.3-0.4,0.6-0.5,0.9c-0.2,0.7-0.1,1,0.7,1c1.1,0,2.2,0,3.3-0.2c1.3-0.2,2.2-1,2.8-2.1c0.6-1,1.3-1.8,2.4-2.3
					c0,0.1,0.1,0.1,0.1,0.1c-1.1,2-0.2,3.9,0.1,5.8C54.4,51.4,54.3,52.1,53.5,53z M30.3,43.5c-0.1,0-0.2,0-0.2,0.1
					c0.3,2,0.5,4,0.8,6c0.2,1.2,0.9,2.1,2,2.6c2.6,1.1,5.1,0.7,7.3-1c0.4-0.3,0.7-0.8,1.1-1.3c-0.6-0.4-1-0.3-1.4,0
					c-1.8,1-3.6,1.3-5.4-0.1c-0.4-0.4-0.8-0.7-0.7-1.5c0.3,0.2,0.5,0.3,0.7,0.4c1.3,0.6,2.4,0.4,2.8-0.8c0.4-1,0.5-2.1,0.7-3.2
					c-0.8,0-1.5,0-2.2,0c-0.4,0-0.7,0-1.1,0c-0.7,0.1-1.3,0.1-1.8-0.4c-0.1-0.1-0.4-0.2-0.5-0.2C31.6,44.4,30.9,44.1,30.3,43.5z
					 M21.5,24.8c-1.6,0.7-2.9,1.8-2.5,3.8c0.2,1.4,1.2,2.3,2.4,3.1c0.3-1.2-0.5-1.9-1.3-2.6c0.4-0.1,0.7-0.3,0.9-0.3
					c0.7,0.1,1.4,0.3,2.2,0.5c0.2,0,0.5,0.2,0.7,0.2c0.8-0.2,1.6-0.5,2.5-0.8c0,0,0,0,0,0c0-1.4-0.1-2.9-0.1-4.3
					c0-1.1-0.1-1.1-1-0.7c-1.4,0.6-3.3,0.3-4-0.7c-0.8-1.3-1.2-2.6-0.4-4.1c0.3-0.5,0.6-1,0.8-1.5c0.1-0.2,0-0.5-0.1-0.7
					c0-0.1-0.4-0.1-0.5-0.1c-2.5,0.8-3.5,4.7-1.6,6.6C20,23.8,20.8,24.2,21.5,24.8z M33.9,42.8c0.1-0.4,0.3-0.8,0.4-1.2
					c0.3-2.4,0.4-4.9,0-7.3c-0.1-0.8-0.3-1.7-1.1-2.4c0,1.1,0.2,2.2,0,3.1c-0.3,0.9-1.1,1.6-1.7,2.4c0.1,0.3,0.3,0.6,0.4,1
					c0.2,0.8,0.3,1.6,0.5,2.3C32.4,41.6,32.6,42.6,33.9,42.8z M37.8,25.3c0-1.3,0-2.6,0-3.9c0-0.7,0-1.4-0.2-2.2
					c-0.1-0.9-0.7-1.4-1.5-1.4c0,0.8,0,1.6,0.1,2.4c0,1.1,0,2.2,0.1,3.2C36.5,24.3,36.9,25,37.8,25.3z M37.8,29c0-0.8,0-1.8,0-2.8
					c-0.1,0-0.1,0-0.2,0c-1.5,0.1-2,1.3-2.5,2.5c-0.3,0.6-0.5,1.2-0.8,1.8c0,0,0,0.1,0,0.2c0.2,0.1,0.4,0.2,0.5,0.3
					c0-0.1,0-0.1-0.1-0.2C35.8,30.2,36.7,29.7,37.8,29z M31.3,29.7c1.4-1.8,0.8-5-1-5.6c0,1.4,0,2.9,0,4.3
					C30.4,29.1,30.6,29.5,31.3,29.7z M38,36.5c0-1.5,0-3.1,0-4.7c-0.9,0.3-1.6,1.2-1.6,2.2C36.4,35.2,37,36.2,38,36.5z M30.4,22.9
					c0.7,0.1,1.2,0.2,1.5-0.5c0.6-1.1-0.4-3.4-1.6-3.8c0,0.1,0,0.2,0,0.3C30.2,20.2,30.3,21.6,30.4,22.9z M38,38.9
					c-1.1,0.4-1.4,1.1-1.4,2.4c0,1,0.1,2.1,1.4,2.6C38,42.2,38,40.6,38,38.9z M22.8,19.1c-0.7,1-0.8,2.2-0.2,2.9
					c0.5,0.5,1.4,0.6,2.2,0.1C24.1,21.1,23.5,20.1,22.8,19.1z M24.6,19.4c0.4-0.3,0.6-0.7,0.9-0.8c0.9-0.2,0.7-0.9,0.7-1.4
					c0-0.2-0.2-0.4-0.3-0.5c-0.3,0-0.7-0.1-0.9,0.1c-0.4,0.4-0.8,0.9-1.2,1.4C24,18.5,24.3,18.9,24.6,19.4z M24.6,32.7
					c0.6,0,1.2,0.1,1.8,0.1c0-0.7-0.1-1.2-0.1-1.9C25.5,31.3,24.7,31.6,24.6,32.7z M26.4,35.2c-0.6-0.1-1.1-0.3-1.7-0.4
					c-0.1,1,0.5,1.5,1.7,1.5C26.4,36,26.4,35.6,26.4,35.2z M41.6,31.4c-0.1,0-0.1,0.1-0.2,0.1c0,0.5,0,1,0.1,1.5
					c0.4,0,0.8,0,1.4-0.1C42.4,32.4,42,31.9,41.6,31.4z M26.2,19.9c-0.8,0.3-0.9,0.7-0.3,1.4C26.5,20.9,26.2,20.4,26.2,19.9z
					 M31.2,34.2c-1.1,0-0.7,0.6-0.7,1.1c0.1,0,0.2,0.1,0.3,0.1C30.8,35,31,34.6,31.2,34.2z M42.7,35.3c-0.4,0-0.7,0-1.1,0
					c0,0.4,0,0.7,0,1c0,0,0.1,0,0.2,0C42.1,36.1,42.4,35.7,42.7,35.3z"/>
			</g>
		</g>
	</g>
</g>
</svg>
