<?xml version="1.0" encoding="utf-8"?>
<!-- Generator: Adobe Illustrator 21.1.0, SVG Export Plug-In . SVG Version: 6.00 Build 0)  -->
<svg version="1.1" id="Layer_1" xmlns="http://www.w3.org/2000/svg" xmlns:xlink="http://www.w3.org/1999/xlink" x="0px" y="0px"
	 viewBox="0 0 170.1 170.1" style="enable-background:new 0 0 170.1 170.1;" xml:space="preserve">
<style type="text/css">
	.st0{fill:#F9B231;}
	.st1{fill:#008D34;}
</style>
<polygon class="st0" points="162.2,102.7 114.5,102.7 86.3,121.9 58,102.3 7.8,102.7 7.8,67.2 54.3,67.2 85.1,47.8 115.1,67.2 
	162.2,67.2 "/>
<g>
	<path class="st1" d="M7.4,103.9c0-12.5,0-25,0-37.5c15.8,0,31.6,0,47.4,0c0.6,0,1.2-0.2,1.7-0.6c1.4-0.9,2.6-2,4-2.9
		c8.3-5.7,16.7-11.3,25.1-17.1c1.8,1.3,3.7,2.7,5.6,4c7.5,5.2,14.9,10.4,22.4,15.6c0.7,0.5,1.6,0.9,2.4,0.9c15.8,0,31.6,0,47.4,0
		c0,12.5,0,25,0,37.5c-15.4,0-30.9,0-46.3-0.1c-1.6,0-2.8,0.4-4.1,1.3c-8.3,5.7-16.6,11.5-24.9,17.1c-1.4,0.9-2.9,1.6-4.7,0.3
		c-7.9-5.7-15.9-11.3-23.9-16.9c-0.7-0.5-1.5-1.2-2.4-1.4c-1.7-0.3-3.4-0.3-5.2-0.3C37.1,103.8,22.3,103.9,7.4,103.9z M8.9,72.3
		c0.8,0,1.5,0,2.2,0c32.9,0,65.7,0,98.6,0c16.9,0,33.7,0,50.6,0c1,0,1.8,0,1.3-1.4c-50.9,0-101.8,0-152.7,0
		C8.9,71.3,8.9,71.7,8.9,72.3z M161.9,101c0-0.2-0.1-0.4-0.1-0.6c-50.9,0-101.9,0-152.8,0c0,0.2-0.1,0.4-0.1,0.5
		c0.5,0.1,1.1,0.3,1.6,0.3c14.8,0,29.6,0,44.4,0c0.8,0,1.7,0.2,2.3,0.7c9,6.1,17.9,12.3,26.8,18.5c1.2,0.8,1.9,0.8,3,0
		c4.8-3.4,9.7-6.8,14.6-10.1c3.3-2.3,6.5-4.6,9.8-6.8c1.6-1,2.9-2.3,5.1-2.3c14.6,0.1,29.1,0.1,43.7,0.1
		C160.8,101.2,161.3,101.1,161.9,101z M111,92.4c-0.6,0-1-0.1-1.4-0.1c-22.3,0-44.7,0-67,0c-4.4,0-8.8,0-13.1,0
		c-1.1,0-1.5,0.4-1.4,1.5c0.1,1.3,1.1,0.9,1.8,0.9c26.5,0,53,0,79.6,0c0.5,0,1,0,1.6-0.1C111,93.9,111,93.2,111,92.4z M162,97.8
		c-0.1-0.1-0.3-0.3-0.4-0.4c-0.5,0-1,0-1.5,0c-49.8,0-99.6,0-149.4,0c-0.3,0-0.7-0.1-1,0c-0.3,0.1-0.5,0.4-0.8,0.6
		c0.2,0.2,0.5,0.5,0.8,0.6c0.4,0.1,0.9,0,1.3,0c49.7,0,99.4,0,149.1,0c0.3,0,0.7,0.1,1,0C161.4,98.4,161.7,98,162,97.8z M161.7,68.9
		c0-0.2,0-0.3,0-0.5c-0.6,0-1.1,0-1.7,0c-14.8,0-29.5,0-44.3,0c-0.9,0-1.9-0.3-2.7-0.8c-2.7-1.8-5.3-3.7-8-5.6
		c-6.3-4.4-12.5-8.8-18.8-13.2c-0.6-0.5-1-0.5-1.6,0c-1.2,0.9-2.5,1.7-3.7,2.6c-7.6,5.4-15.3,10.8-23,16.1c-0.8,0.5-1.9,0.9-2.8,0.9
		c-14.9,0.1-29.7,0-44.6,0c-0.6,0-1.1,0.1-1.7,0.2c0,0.1,0,0.2,0,0.4C59.9,68.9,110.8,68.9,161.7,68.9z M10.2,93.2
		c1.3,0,2.3-0.1,3.3,0c2.5,0.4,4.9,1.5,7.6,0.9c2.5-0.5,4.3-2,4.8-4.4c0.5-2.4-0.4-5.2-2.4-6.3c-2-1-4.2-1.5-6.3-2.1
		c-1.2-0.4-2.2-0.8-2.2-2.3c0-1.6,0.8-2.6,2.2-3c2.2-0.5,4.1,0.7,4.8,3c0.1,0.4,0.3,0.7,0.6,1.5c1-2.2,1.9-4,2.7-5.7
		c-1.4-0.1-2.6-0.2-3.7-0.3c-1.5-0.2-3.1-0.6-4.6-0.5c-2.9,0.1-5.6,2.9-5.5,6c0.1,2.4,1.5,4.4,4.8,5.2c1.6,0.4,3.3,0.6,4.7,1.3
		c0.8,0.4,1.6,1.4,1.9,2.3c0.3,1.1,0,2.3-1.3,3c-1.6,0.9-5.1,0.7-6.3-0.6c-0.9-1.1-1.6-2.5-2.4-3.8C12.1,89.3,11.2,91.3,10.2,93.2z
		 M67.1,85.5c-0.7-2.3-1.4-4.6-2.1-6.9c-0.3-1-0.8-1.2-1.5-0.9c-0.9,2.8-1.8,5.5-2.8,8.5c-0.4-1.3-0.7-2.3-0.9-3.3
		c-0.3-1.6-1.5-3.2,0.1-4.8c0,0,0-0.2-0.1-0.3c-1.8,0-3.6,0-5.8,0c0.4,0.6,0.7,1,0.9,1.4c0.5,0.8,1,1.6,1.4,2.5
		c0.6,1.8,1.1,3.6,1.7,5.4c0.2,0.7,0.6,1.5,0.6,2.2c-0.1,0.7-0.7,1.3-1,2c1.7,0,3.4,0,5.4,0c-0.4-0.5-0.8-0.8-0.9-1.2
		c-0.2-0.5-0.5-1.1-0.4-1.5c0.4-1.5,1-3,1.6-4.8c0.5,1.6,0.8,2.9,1.3,4.1c0.6,1.3,0.8,2.4-1,3.3c2.1,0,3.9,0,5.7,0
		c-1.4-2-1.4-2-0.6-4.6c0.1-0.4,0.2-0.9,0.3-1.3c0.9-2.5,1.7-5.1,2.7-7.6c0.4-1.1,1.3-1.9,1.9-2.9c-0.1-0.1-0.2-0.3-0.3-0.4
		c-1.7,0.8-3.5,1.5-5.2,2.3C70.1,79.9,67.9,82.6,67.1,85.5z M116.2,76.5c0.5,0.6,0.7,0.9,1,1.1c1.1,0.8,1.3,1.9,1.3,3.2
		c-0.1,3.3-0.1,6.6,0,9.9c0.1,1.7-0.3,2.9-1.9,3.8c0.5,0.2,1,0.2,1.4,0.2c7,0,14,0,21,0c2.1,0,4.1,0.1,6.2,0.1c0-0.8,0-1.8,0-2.8
		c-8,0-15.8,0-23.8,0c0-3.6,0-7.2,0-10.8c0-1.4-0.2-2.8,1.2-3.7c0.2-0.2,0.3-0.6,0.4-1.1C120.8,76.5,118.7,76.5,116.2,76.5z
		 M78.5,77.7c-2.3-0.2-4.2-0.4-6.5,0.2c2,1.1,1.9,2.6,1.8,4.1c0,1.1,0,2.2,0,3.2c-0.1,2.1,0.7,4.3-2.1,5.8c2.1,0,3.7,0,5.1,0
		c-0.5-0.9-1.3-1.7-1.4-2.6c-0.2-2-0.1-4.1-0.1-6.1c0.5,0.4,0.8,0.9,1.1,1.4c1.1,2.1,2.1,4.3,3.2,6.4c0.2,0.5,0.9,1.1,1.3,1
		c0.5-0.1,1-0.7,1.2-1.2c0.7-1.8,1.2-3.6,1.8-5.4c0.1,0,0.2,0.1,0.4,0.1c-0.8,2,1.1,4.6-1.7,6.5c1.8,0,3.4,0,5,0
		c0.1-0.1,0.3-0.2,0.4-0.2c-1.9-0.8-1.4-2.2-1.5-3.5c0-1.7,0-3.4,0-5.2c0-1.4-0.2-2.9,1.1-3.9c0.1-0.1,0-0.4,0-0.5
		c-1.6,0-3.2,0-4.6,0c0.2,0.9,0.6,1.8,0.4,2.5c-0.7,2.4-1.5,4.6-2.4,7.2c-1.4-2.8-2.7-5.4-4.1-8C77.3,79,77.8,78.5,78.5,77.7z
		 M46,77.7c2.2,2,0.6,3.5-0.1,5.2c-0.5-0.2-1-0.3-1.4-0.5c-0.4,0.7-0.7,1.4-0.8,1.7c0.5,0.6,1.2,1.4,1.1,1.6c-0.9,1.5-1.9,2.9-3,4.4
		c-0.2,0.3-0.5,0.6-0.9,1c2.1,0,3.9,0,5.6,0c-0.5-0.6-1.3-1.2-1.2-1.6c0.2-1,0.8-1.9,1.2-2.9c0.7,0.8,1.3,1.4,1.9,2.1
		c0.7-0.7,1.3-1.3,1.9-1.9c0.9,1.5,1.5,2.9-0.3,4.3c2.1,0,3.9,0,6.1,0c-2.5-1.6-2.3-4-3.3-6.2c0.8,0,1.2,0,1.9,0
		c-0.4-1.2-0.8-2.2-1.2-3.3c-0.5,0.4-1,0.8-1.5,1.2c-0.6-1.7-2-3.1-0.7-5.1C49.6,77.7,48,77.7,46,77.7z M35,77.7
		c-0.1,0.1-0.3,0.2-0.4,0.3c2.8,1.4,1.5,3.6,1.8,5.6c-1.3,0-2.5,0-3.7,0c-0.1-2.1-0.5-4.2,1.3-5.9c-2,0-3.7,0-5.4,0
		c-0.1,0.1-0.2,0.2-0.2,0.3c2.4,1.4,1.2,3.6,1.5,5.5c-1.1,0.4-1.8,1-1.7,2.2c0.6-0.1,1.1-0.2,1.7-0.3c-0.4,2,0.9,4.1-1.5,5.6
		c1.9,0,3.5,0,5.2,0c-1.2-2.1-1.4-3.1-0.9-5.4c1.1,0,2.3,0,3.6,0c-0.3,1.9,0.9,4-1.7,5.4c2,0,3.7,0,5.4,0c-0.5-0.7-1.3-1.3-1.3-1.8
		c0.4-3.8-1.3-7.9,1.2-11.6C38.3,77.7,36.6,77.7,35,77.7z M139.2,91.1c-0.6-0.9-1.4-1.8-1.5-2.6c-0.2-2.1-0.1-4.3-0.1-6.9
		c0.4,0.7,0.7,1,0.8,1.3c1.1,2.2,2.2,4.4,3.3,6.6c0.9,1.9,1.3,2,3.5,1.4c0-3.2,0-6.3,0-9.5c0-1.3-0.1-2.7,1.5-3.2
		c0.1,0,0.1-0.3,0.1-0.6c-1.5,0-2.8,0-4.2,0c-0.2,0-0.5,0.2-0.7,0.3c0.2,0.2,0.3,0.4,0.5,0.6c0.3,0.5,0.9,1,0.9,1.5
		c0.1,2.2,0,4.4,0,6.6c-0.1,0-0.2,0.1-0.2,0.1c-1.3-2.4-2.7-4.8-3.9-7c0.5-0.6,0.9-1.2,1.6-2c-2.4,0-4.3,0-6.2,0
		c-0.2,0.1-0.3,0.2-0.5,0.3c2.7,1.2,1.8,3.4,1.9,5.3c0.1,0.8,0,1.7,0,2.5c0,2,0.3,4.1-1.9,5.3C135.9,91.1,137.6,91.1,139.2,91.1z
		 M156.1,86.7c0-2,0-3.6,0-5.2c-1,1.6-2.1,2.2-3.9,1.5c0-1.2,0-2.3,0-3.6c1.1,0,2.2-0.2,3.1,0.1c0.9,0.3,1.6,1.1,2.3,1.7
		c0.5-1.1,1-2.2,1.7-3.5c-3.8,0-7.6,0-11.6,0c0.5,0.5,0.9,0.8,1,1.2c0.3,1.1,0.5,2.3,0.6,3.5c0,0.3-0.7,0.6-0.9,1
		c-0.4,0.6-0.7,1.2-1,1.9c0.1,0.1,0.2,0.2,0.4,0.2c0.5-0.2,0.9-0.4,1.7-0.7c-0.5,2.2,1,4.5-1.5,6.2c3.9,0,7.6,0,11.5,0
		c-0.7-1.3-1.4-2.6-2.1-4c-1,2.2-2.2,2.7-5.2,2c0-1.4,0-2.9,0-4.5c0.8,0.1,1.6-0.1,2.2,0.2C155,85.2,155.4,85.9,156.1,86.7z
		 M88.6,77.7c0.1,0.3,0.1,0.7,0.3,0.7c1.2,0.6,1.3,1.6,1.2,2.7c-0.1,1.9,0,3.7,0,5.6c0,3.1,0.9,4.3,3.9,4.7c2.9,0.3,5.1-0.5,5.2-4.3
		c0-1.4,0-2.9,0-4.3c0-1.8-0.5-3.7,1.3-5.1c-1.5,0-2.9,0-4.5,0c0.6,0.9,1.3,1.5,1.3,2.2c0.1,2.6,0.1,5.3,0,8c0,1-0.6,1.8-1.8,1.7
		c-1.2-0.1-2.7,0.4-2.8-1.5c-0.3-3.5-1.2-7.1,1-10.5C92,77.7,90.3,77.7,88.6,77.7z M102.8,81.7c0.8-2.6,1.6-2.9,4.4-2.1
		c0,2.5,0,5.1,0,7.6c0,1.4,0.5,3-1.3,3.8c1.6,0,3.3,0,4.9,0c-1.6-1-1.2-2.5-1.2-3.9c0-1.5,0-3,0-4.4c0-1.1,0-2.2,0-3.3
		c3.7-0.3,3.7-0.3,4.7,2c0.6-1.2,1.1-2.4,1.7-3.8c-5.3,0-10.1,0-15.2,0C101.5,79.1,102,80.2,102.8,81.7z M128,77.6
		c-0.1,0.1-0.2,0.2-0.4,0.3c1.8,1.5,1.4,3.4,1.4,5.3c0,1.2,0,2.5,0,3.7c-0.1,1.5,0.5,3.1-1.4,4.2c1.9,0,3.5,0,5.6,0
		c-2.2-1.4-1.5-3.2-1.5-4.8c-0.1-1.3,0-2.7,0-4c0-1.4-0.3-3,1.1-4c0.1-0.1,0-0.4,0-0.6C131.2,77.6,129.6,77.6,128,77.6z M148.3,94.7
		c3.8,0,7.4,0,11,0c0.9,0,1.4-0.2,1.4-1.2c0-1.1-0.5-1.2-1.4-1.2c-3.3,0-6.6,0-9.9,0c-0.4,0-0.7,0.1-1.1,0.1
		C148.3,93.2,148.3,93.9,148.3,94.7z"/>
	<path class="st1" d="M58.9,101.3c17.8,0,35.5,0,53.7,0c-1.4,1.1-2.5,1.9-3.7,2.7c-5.5,3.8-10.9,7.5-16.4,11.3
		c-1.9,1.3-3.8,2.6-5.7,4c-1,0.7-1.7,0.7-2.7,0c-4.3-3.1-8.7-6.2-13-9.2c-3.9-2.7-7.8-5.5-11.8-8.2c-0.2-0.1-0.5-0.2-0.7-0.3
		C58.8,101.5,58.9,101.4,58.9,101.3z"/>
	<path class="st1" d="M112.3,68.4c-17.8,0-35.3,0-53.1,0c0.9-0.7,1.6-1.3,2.4-1.9C69,61.2,76.6,56,84.1,50.6
		c1.1-0.8,1.8-0.7,2.9,0.1c7.3,5.1,14.6,10.1,21.9,15.1C109.9,66.6,110.9,67.4,112.3,68.4z"/>
	<path class="st1" d="M47,84.3c0.4-1,0.8-1.8,1.3-2.9c0.4,0.9,0.8,1.6,1,2.3c0.1,0.5-0.1,1-0.1,1.5c-0.5-0.1-1-0.2-1.4-0.4
		C47.5,84.8,47.3,84.6,47,84.3z"/>
</g>
</svg>
