<?xml version="1.0" encoding="utf-8"?>
<!-- Generator: Adobe Illustrator 21.0.0, SVG Export Plug-In . SVG Version: 6.00 Build 0)  -->
<svg version="1.1" id="Layer_1" xmlns="http://www.w3.org/2000/svg" xmlns:xlink="http://www.w3.org/1999/xlink" x="0px" y="0px"
	 viewBox="0 0 65.8 65.8" style="enable-background:new 0 0 65.8 65.8;" xml:space="preserve">
<style type="text/css">
	.st0{fill:#FFFFFF;stroke:#000000;stroke-miterlimit:10;}
	.st1{fill:#FFFFFF;stroke:#FFFFFF;stroke-miterlimit:10;}
	.st2{fill:none;stroke:#BE2026;stroke-width:2;stroke-miterlimit:10;}
	.st3{fill:#FFDEA7;}
	.st4{fill:#BE2026;}
	.st5{fill:#1C94D2;stroke:#FFFFFF;stroke-miterlimit:10;}
	.st6{fill:#FFFFFF;}
	.st7{fill:#00AFAD;stroke:#FFFFFF;stroke-miterlimit:10;}
	.st8{fill:#FFFFFF;stroke:#000000;stroke-width:0.25;stroke-miterlimit:10;}
	.st9{fill:#06884B;}
	.st10{fill:#BEC8CC;stroke:#FFFFFF;stroke-miterlimit:10;}
	.st11{clip-path:url(#SVGID_2_);}
	.st12{fill:#E22126;stroke:#FBE904;stroke-width:0.75;stroke-miterlimit:10;}
	.st13{fill:#191817;}
	.st14{fill:#FBE904;}
	.st15{fill:#E63229;}
	.st16{fill:#FEF16E;stroke:#FFFFFF;stroke-miterlimit:10;}
	.st17{fill:#1F4180;}
	.st18{fill:none;stroke:#E21E26;stroke-width:2;stroke-miterlimit:10;}
	.st19{fill:#E96F2B;}
	.st20{fill:#F29220;}
	.st21{fill:#EF8322;}
	.st22{fill:#EE3F80;}
	.st23{fill:#F1A847;}
	.st24{fill:#FDBA3A;}
	.st25{clip-path:url(#SVGID_4_);}
	.st26{fill:#383635;}
	.st27{clip-path:url(#SVGID_6_);}
	.st28{fill:#181A10;stroke:#FFFFFF;stroke-miterlimit:10;}
	.st29{fill:#EF4323;stroke:#FFFFFF;stroke-miterlimit:10;}
	.st30{fill:#BEDB86;stroke:#FFFFFF;stroke-miterlimit:10;}
	.st31{fill:#FFFFFF;stroke:#000000;stroke-width:0.5;stroke-miterlimit:10;}
	.st32{fill:#E38328;stroke:#FFFFFF;stroke-miterlimit:10;}
	.st33{fill:#020202;}
	.st34{fill:none;stroke:#FFFFFF;stroke-miterlimit:10;}
	.st35{fill:#BFDEF3;stroke:#FFFFFF;stroke-miterlimit:10;}
	.st36{fill:#994573;}
	.st37{fill:#F6F6F6;}
	.st38{fill:#8F4199;stroke:#FFFFFF;stroke-miterlimit:10;}
	.st39{fill:#175633;}
	.st40{fill:#984D2D;}
</style>
<circle class="st1" cx="32.9" cy="32.9" r="32.4"/>
<g>
	<path class="st9" d="M3.9,40.1c0-4.7,0-9.3,0-14c5.9,0,11.8,0,17.6,0c0.2,0,0.4-0.1,0.6-0.2c0.5-0.3,1-0.7,1.5-1.1
		c3.1-2.1,6.2-4.2,9.3-6.4c0.7,0.5,1.4,1,2.1,1.5c2.8,1.9,5.5,3.9,8.3,5.8c0.3,0.2,0.6,0.3,0.9,0.3c5.9,0,11.8,0,17.6,0
		c0,4.7,0,9.3,0,14c-5.7,0-11.5,0-17.2,0c-0.6,0-1,0.1-1.5,0.5c-3.1,2.1-6.2,4.3-9.3,6.4c-0.5,0.3-1.1,0.6-1.7,0.1
		c-2.9-2.1-5.9-4.2-8.9-6.3c-0.3-0.2-0.6-0.4-0.9-0.5c-0.6-0.1-1.3-0.1-1.9-0.1C14.9,40.1,9.4,40.1,3.9,40.1z M4.4,28.4
		c0.3,0,0.6,0,0.8,0c12.2,0,24.5,0,36.7,0c6.3,0,12.5,0,18.8,0c0.4,0,0.7,0,0.5-0.5c-18.9,0-37.9,0-56.8,0C4.4,28,4.4,28.1,4.4,28.4
		z M61.4,39c0-0.1,0-0.1,0-0.2c-18.9,0-37.9,0-56.9,0c0,0.1,0,0.1,0,0.2c0.2,0,0.4,0.1,0.6,0.1c5.5,0,11,0,16.5,0
		c0.3,0,0.6,0.1,0.9,0.3c3.4,2.3,6.7,4.6,10,6.9c0.4,0.3,0.7,0.3,1.1,0c1.8-1.3,3.6-2.5,5.4-3.8c1.2-0.9,2.4-1.7,3.6-2.5
		c0.6-0.4,1.1-0.9,1.9-0.9c5.4,0,10.8,0,16.3,0C61,39.1,61.1,39.1,61.4,39z M42.4,35.8c-0.2,0-0.4,0-0.5,0c-8.3,0-16.6,0-24.9,0
		c-1.6,0-3.3,0-4.9,0c-0.4,0-0.6,0.1-0.5,0.6c0,0.5,0.4,0.3,0.7,0.3c9.9,0,19.7,0,29.6,0c0.2,0,0.4,0,0.6,0
		C42.4,36.4,42.4,36.1,42.4,35.8z M61.4,37.9c0,0-0.1-0.1-0.1-0.1c-0.2,0-0.4,0-0.6,0c-18.5,0-37.1,0-55.6,0c-0.1,0-0.3,0-0.4,0
		s-0.2,0.1-0.3,0.2c0.1,0.1,0.2,0.2,0.3,0.2c0.1,0,0.3,0,0.5,0c18.5,0,37,0,55.5,0c0.1,0,0.3,0,0.4,0C61.2,38.1,61.3,37.9,61.4,37.9
		z M61.3,27.1c0-0.1,0-0.1,0-0.2c-0.2,0-0.4,0-0.6,0c-5.5,0-11,0-16.5,0c-0.3,0-0.7-0.1-1-0.3c-1-0.7-2-1.4-3-2.1
		c-2.3-1.6-4.7-3.3-7-4.9c-0.2-0.2-0.4-0.2-0.6,0c-0.4,0.3-0.9,0.6-1.4,1c-2.8,2-5.7,4-8.6,6c-0.3,0.2-0.7,0.3-1,0.3
		c-5.5,0-11.1,0-16.6,0c-0.2,0-0.4,0-0.6,0.1c0,0,0,0.1,0,0.1C23.4,27.1,42.3,27.1,61.3,27.1z M4.9,36.1c0.5,0,0.9,0,1.2,0
		c0.9,0.1,1.8,0.6,2.8,0.3c0.9-0.2,1.6-0.7,1.8-1.6c0.2-0.9-0.1-1.9-0.9-2.3c-0.7-0.4-1.6-0.6-2.3-0.8c-0.4-0.1-0.8-0.3-0.8-0.9
		c0-0.6,0.3-1,0.8-1.1C8.3,29.6,9,30,9.3,30.9c0,0.1,0.1,0.3,0.2,0.6c0.4-0.8,0.7-1.5,1-2.1c-0.5,0-1-0.1-1.4-0.1
		C8.6,29.1,8,29,7.4,29c-1.1,0-2.1,1.1-2,2.2c0,0.9,0.6,1.6,1.8,1.9c0.6,0.1,1.2,0.2,1.7,0.5c0.3,0.1,0.6,0.5,0.7,0.9
		c0.1,0.4,0,0.9-0.5,1.1c-0.6,0.3-1.9,0.3-2.3-0.2C6.5,35,6.2,34.5,5.9,34C5.6,34.7,5.3,35.4,4.9,36.1z M26.1,33.3
		c-0.3-0.9-0.5-1.7-0.8-2.6c-0.1-0.4-0.3-0.4-0.6-0.3c-0.3,1-0.7,2-1,3.2c-0.1-0.5-0.3-0.9-0.3-1.2c-0.1-0.6-0.6-1.2,0-1.8
		c0,0,0-0.1,0-0.1c-0.7,0-1.3,0-2.2,0c0.1,0.2,0.3,0.4,0.3,0.5c0.2,0.3,0.4,0.6,0.5,0.9c0.2,0.7,0.4,1.3,0.6,2
		c0.1,0.3,0.2,0.6,0.2,0.8c0,0.3-0.3,0.5-0.4,0.7c0.6,0,1.3,0,2,0c-0.1-0.2-0.3-0.3-0.3-0.4c-0.1-0.2-0.2-0.4-0.1-0.6
		c0.1-0.6,0.4-1.1,0.6-1.8c0.2,0.6,0.3,1.1,0.5,1.5c0.2,0.5,0.3,0.9-0.4,1.2c0.8,0,1.5,0,2.1,0c-0.5-0.7-0.5-0.7-0.2-1.7
		c0-0.1,0.1-0.3,0.1-0.5c0.3-0.9,0.6-1.9,1-2.8c0.1-0.4,0.5-0.7,0.7-1.1c0,0-0.1-0.1-0.1-0.1c-0.6,0.3-1.3,0.6-1.9,0.9
		C27.2,31.2,26.4,32.2,26.1,33.3z M44.4,29.9c0.2,0.2,0.3,0.3,0.4,0.4c0.4,0.3,0.5,0.7,0.5,1.2c0,1.2,0,2.5,0,3.7
		c0,0.6-0.1,1.1-0.7,1.4c0.2,0.1,0.4,0.1,0.5,0.1c2.6,0,5.2,0,7.8,0c0.8,0,1.5,0,2.3,0c0-0.3,0-0.7,0-1c-3,0-5.9,0-8.9,0
		c0-1.3,0-2.7,0-4c0-0.5-0.1-1,0.4-1.4c0.1-0.1,0.1-0.2,0.1-0.4C46.1,29.9,45.3,29.9,44.4,29.9z M30.3,30.4
		c-0.9-0.1-1.6-0.1-2.4,0.1c0.7,0.4,0.7,1,0.7,1.5c0,0.4,0,0.8,0,1.2c0,0.8,0.3,1.6-0.8,2.2c0.8,0,1.4,0,1.9,0
		c-0.2-0.3-0.5-0.6-0.5-1c-0.1-0.7,0-1.5,0-2.3c0.2,0.1,0.3,0.3,0.4,0.5c0.4,0.8,0.8,1.6,1.2,2.4c0.1,0.2,0.3,0.4,0.5,0.4
		c0.2,0,0.4-0.3,0.4-0.4c0.3-0.7,0.4-1.3,0.7-2c0,0,0.1,0,0.1,0c-0.3,0.7,0.4,1.7-0.6,2.4c0.7,0,1.3,0,1.9,0c0,0,0.1-0.1,0.1-0.1
		c-0.7-0.3-0.5-0.8-0.6-1.3c0-0.6,0-1.3,0-1.9c0-0.5-0.1-1.1,0.4-1.5c0,0,0-0.1,0-0.2c-0.6,0-1.2,0-1.7,0c0.1,0.3,0.2,0.7,0.1,0.9
		c-0.3,0.9-0.6,1.7-0.9,2.7c-0.5-1-1-2-1.5-3C29.9,30.9,30.1,30.7,30.3,30.4z M18.2,30.4c0.8,0.7,0.2,1.3,0,1.9
		c-0.2-0.1-0.4-0.1-0.5-0.2c-0.1,0.3-0.3,0.5-0.3,0.6c0.2,0.2,0.4,0.5,0.4,0.6c-0.3,0.6-0.7,1.1-1.1,1.6c-0.1,0.1-0.2,0.2-0.3,0.4
		c0.8,0,1.5,0,2.1,0c-0.2-0.2-0.5-0.4-0.4-0.6c0.1-0.4,0.3-0.7,0.4-1.1c0.3,0.3,0.5,0.5,0.7,0.8c0.3-0.3,0.5-0.5,0.7-0.7
		c0.3,0.6,0.6,1.1-0.1,1.6c0.8,0,1.5,0,2.3,0c-0.9-0.6-0.9-1.5-1.2-2.3c0.3,0,0.4,0,0.7,0c-0.1-0.4-0.3-0.8-0.4-1.2
		c-0.2,0.1-0.4,0.3-0.6,0.4c-0.2-0.6-0.7-1.2-0.3-1.9C19.6,30.4,19,30.4,18.2,30.4z M14.1,30.4c0,0-0.1,0.1-0.1,0.1
		c1,0.5,0.6,1.3,0.7,2.1c-0.5,0-0.9,0-1.4,0c0-0.8-0.2-1.6,0.5-2.2c-0.7,0-1.4,0-2,0c0,0-0.1,0.1-0.1,0.1c0.9,0.5,0.4,1.3,0.6,2
		c-0.4,0.1-0.7,0.4-0.6,0.8c0.2,0,0.4-0.1,0.6-0.1c-0.1,0.7,0.3,1.5-0.6,2.1c0.7,0,1.3,0,1.9,0c-0.4-0.8-0.5-1.2-0.3-2
		c0.4,0,0.9,0,1.3,0c-0.1,0.7,0.3,1.5-0.6,2c0.7,0,1.4,0,2,0c-0.2-0.3-0.5-0.5-0.5-0.7c0.1-1.4-0.5-2.9,0.4-4.3
		C15.4,30.4,14.7,30.4,14.1,30.4z M52.9,35.4c-0.2-0.3-0.5-0.7-0.6-1c-0.1-0.8,0-1.6,0-2.6c0.1,0.3,0.3,0.4,0.3,0.5
		c0.4,0.8,0.8,1.6,1.2,2.5c0.3,0.7,0.5,0.7,1.3,0.5c0-1.2,0-2.3,0-3.5c0-0.5,0-1,0.6-1.2c0,0,0-0.1,0-0.2c-0.6,0-1,0-1.6,0
		c-0.1,0-0.2,0.1-0.3,0.1c0.1,0.1,0.1,0.1,0.2,0.2c0.1,0.2,0.3,0.4,0.3,0.6c0,0.8,0,1.6,0,2.5c0,0-0.1,0-0.1,0
		c-0.5-0.9-1-1.8-1.5-2.6c0.2-0.2,0.3-0.4,0.6-0.7c-0.9,0-1.6,0-2.3,0c-0.1,0-0.1,0.1-0.2,0.1c1,0.4,0.7,1.3,0.7,2
		c0,0.3,0,0.6,0,0.9c0,0.7,0.1,1.5-0.7,2C51.7,35.4,52.3,35.4,52.9,35.4z M59.2,33.7c0-0.7,0-1.3,0-1.9c-0.4,0.6-0.8,0.8-1.5,0.6
		c0-0.4,0-0.9,0-1.3c0.4,0,0.8-0.1,1.2,0c0.3,0.1,0.6,0.4,0.9,0.6c0.2-0.4,0.4-0.8,0.6-1.3c-1.4,0-2.8,0-4.3,0
		c0.2,0.2,0.3,0.3,0.4,0.4c0.1,0.4,0.2,0.9,0.2,1.3c0,0.1-0.3,0.2-0.3,0.4c-0.1,0.2-0.3,0.4-0.4,0.7c0,0,0.1,0.1,0.1,0.1
		c0.2-0.1,0.3-0.1,0.6-0.3c-0.2,0.8,0.4,1.7-0.6,2.3c1.5,0,2.8,0,4.3,0c-0.3-0.5-0.5-1-0.8-1.5c-0.4,0.8-0.8,1-1.9,0.7
		c0-0.5,0-1.1,0-1.7c0.3,0,0.6,0,0.8,0.1C58.8,33.2,59,33.4,59.2,33.7z M34.1,30.4c0,0.1,0,0.3,0.1,0.3c0.4,0.2,0.5,0.6,0.4,1
		c0,0.7,0,1.4,0,2.1c0,1.2,0.3,1.6,1.5,1.7c1.1,0.1,1.9-0.2,1.9-1.6c0-0.5,0-1.1,0-1.6c0-0.7-0.2-1.4,0.5-1.9c-0.6,0-1.1,0-1.7,0
		c0.2,0.3,0.5,0.6,0.5,0.8c0,1,0,2,0,3c0,0.4-0.2,0.7-0.7,0.6c-0.4,0-1,0.1-1-0.6c-0.1-1.3-0.4-2.6,0.4-3.9
		C35.3,30.4,34.7,30.4,34.1,30.4z M39.4,31.9c0.3-1,0.6-1.1,1.6-0.8c0,0.9,0,1.9,0,2.8c0,0.5,0.2,1.1-0.5,1.4c0.6,0,1.2,0,1.8,0
		c-0.6-0.4-0.4-0.9-0.4-1.5c0-0.6,0-1.1,0-1.6c0-0.4,0-0.8,0-1.2c1.4-0.1,1.4-0.1,1.7,0.7c0.2-0.4,0.4-0.9,0.6-1.4c-2,0-3.8,0-5.7,0
		C38.9,30.9,39.1,31.3,39.4,31.9z M48.8,30.3c0,0-0.1,0.1-0.1,0.1c0.7,0.6,0.5,1.3,0.5,2c0,0.4,0,0.9,0,1.4c0,0.6,0.2,1.2-0.5,1.6
		c0.7,0,1.3,0,2.1,0c-0.8-0.5-0.6-1.2-0.6-1.8c0-0.5,0-1,0-1.5c0-0.5-0.1-1.1,0.4-1.5c0,0,0-0.1,0-0.2
		C49.9,30.3,49.3,30.3,48.8,30.3z M56.3,36.7c1.4,0,2.8,0,4.1,0c0.3,0,0.5-0.1,0.5-0.4c0-0.4-0.2-0.4-0.5-0.4c-1.2,0-2.5,0-3.7,0
		c-0.1,0-0.3,0-0.4,0C56.3,36.1,56.3,36.4,56.3,36.7z"/>
	<path class="st9" d="M23,39.2c6.6,0,13.2,0,20,0c-0.5,0.4-0.9,0.7-1.4,1c-2,1.4-4.1,2.8-6.1,4.2c-0.7,0.5-1.4,1-2.1,1.5
		c-0.4,0.3-0.6,0.3-1,0c-1.6-1.2-3.2-2.3-4.8-3.4c-1.5-1-2.9-2-4.4-3.1c-0.1,0-0.2-0.1-0.3-0.1C23,39.2,23,39.2,23,39.2z"/>
	<path class="st9" d="M42.9,26.9c-6.6,0-13.1,0-19.8,0c0.3-0.3,0.6-0.5,0.9-0.7c2.8-2,5.6-3.9,8.4-5.9c0.4-0.3,0.7-0.3,1.1,0
		c2.7,1.9,5.4,3.8,8.2,5.6C42,26.2,42.4,26.5,42.9,26.9z"/>
	<path class="st9" d="M18.6,32.8c0.1-0.4,0.3-0.7,0.5-1.1c0.1,0.3,0.3,0.6,0.4,0.9c0,0.2,0,0.4,0,0.6c-0.2,0-0.4-0.1-0.5-0.1
		C18.8,33,18.7,32.9,18.6,32.8z"/>
</g>
</svg>
