<?xml version="1.0" encoding="utf-8"?>
<!-- Generator: Adobe Illustrator 21.0.0, SVG Export Plug-In . SVG Version: 6.00 Build 0)  -->
<svg version="1.1" id="Layer_1" xmlns="http://www.w3.org/2000/svg" xmlns:xlink="http://www.w3.org/1999/xlink" x="0px" y="0px"
	 viewBox="0 0 64.8 64.8" style="enable-background:new 0 0 64.8 64.8;" xml:space="preserve">
<style type="text/css">
	.st0{fill:#FFFFFF;stroke:#000000;stroke-miterlimit:10;}
	.st1{fill:#FFFFFF;stroke:#FFFFFF;stroke-miterlimit:10;}
	.st2{fill:none;stroke:#BE2026;stroke-width:2;stroke-miterlimit:10;}
	.st3{fill:#FFDEA7;}
	.st4{fill:#BE2026;}
	.st5{fill:#1C94D2;stroke:#FFFFFF;stroke-miterlimit:10;}
	.st6{fill:#FFFFFF;}
	.st7{fill:#00AFAD;stroke:#FFFFFF;stroke-miterlimit:10;}
	.st8{fill:#FFFFFF;stroke:#000000;stroke-width:0.25;stroke-miterlimit:10;}
	.st9{fill:#06884B;}
	.st10{fill:#BEC8CC;stroke:#FFFFFF;stroke-miterlimit:10;}
	.st11{clip-path:url(#SVGID_2_);}
	.st12{fill:#E22126;stroke:#FBE904;stroke-width:0.75;stroke-miterlimit:10;}
	.st13{fill:#191817;}
	.st14{fill:#FBE904;}
	.st15{fill:#E63229;}
	.st16{fill:#FEF16E;stroke:#FFFFFF;stroke-miterlimit:10;}
	.st17{fill:#1F4180;}
	.st18{fill:none;stroke:#E21E26;stroke-width:2;stroke-miterlimit:10;}
	.st19{fill:#E96F2B;}
	.st20{fill:#F29220;}
	.st21{fill:#EF8322;}
	.st22{fill:#EE3F80;}
	.st23{fill:#F1A847;}
	.st24{fill:#FDBA3A;}
	.st25{clip-path:url(#SVGID_4_);}
	.st26{fill:#383635;}
	.st27{clip-path:url(#SVGID_6_);}
	.st28{fill:#181A10;stroke:#FFFFFF;stroke-miterlimit:10;}
	.st29{fill:#EF4323;stroke:#FFFFFF;stroke-miterlimit:10;}
	.st30{fill:#BEDB86;stroke:#FFFFFF;stroke-miterlimit:10;}
	.st31{fill:#FFFFFF;stroke:#000000;stroke-width:0.5;stroke-miterlimit:10;}
	.st32{fill:#E38328;stroke:#FFFFFF;stroke-miterlimit:10;}
	.st33{fill:#020202;}
	.st34{fill:none;stroke:#FFFFFF;stroke-miterlimit:10;}
	.st35{fill:#BFDEF3;stroke:#FFFFFF;stroke-miterlimit:10;}
	.st36{fill:#994573;}
	.st37{fill:#F6F6F6;}
	.st38{fill:#8F4199;stroke:#FFFFFF;stroke-miterlimit:10;}
	.st39{fill:#175633;}
	.st40{fill:#984D2D;}
</style>
<circle class="st10" cx="32.4" cy="32.4" r="32.4"/>
<g>
	<defs>
		<circle id="SVGID_1_" cx="32.4" cy="32.4" r="32.4"/>
	</defs>
	<clipPath id="SVGID_2_">
		<use xlink:href="#SVGID_1_"  style="overflow:visible;"/>
	</clipPath>
	<g class="st11">
		<g>
			<path d="M39.1,25.8c-1.7,3-3.3,5.8-4.8,8.7c0.1,0.1,0.1,0.1,0.2,0.1c0.5-0.3,0.9-0.5,1.4-0.9c0.6-0.5,1.1-1.1,1.8-1.5
				c0.5-0.3,1.1-0.3,1.6-0.3c1.6-0.1,3.2,0,4.9,0c0,0.3,0,0.6-0.1,0.8c-0.3,1.1-0.7,2.2-1.1,3.3c-0.1,0.2-0.1,0.5-0.1,0.8
				c0.1,0.1,0.1,0.1,0.2,0.1c0.5-0.4,0.9-0.9,1.3-1.3c0.9-0.9,1.7-1.8,2.5-2.7c1.2-1.3,2.4-2.6,3.7-4c0.6-0.6,1.2-1.3,1.8-2
				c0.3-0.3,0.5-0.5,1-0.5c5.9,0,11.7-0.1,17.6-0.1c2.2,0,4.4,0.1,6.6,0.1c2.1,0,4.1-0.1,6.3-0.1c2,0,4,0.1,6,0.1
				c0.7,0,1.5-0.1,2.2-0.1c0.1,0,0.3,0,0.5,0.1c-0.1,0.2-0.2,0.3-0.3,0.5c-1,1-2,2-3,2.9c-0.2,0.2-0.5,0.2-0.8,0.2
				c-3.4,0-6.8,0-10.3,0c-7.4,0-14.8,0-22.1-0.1c-1,0-1.6,0.3-2.2,1c-1.1,1.3-2.3,2.6-3.4,3.9c-1.4,1.6-2.8,3-4.3,4.6
				c-0.6,0.7-1.3,1.3-2,1.9c-0.1,0.1-0.3,0.2-0.5,0.2c-2,0-4,0-6,0c-0.1,0-0.2-0.1-0.3-0.1c0.6-1.9,1.2-3.7,1.8-5.6
				C39.1,36.1,39.1,36,39,36c-0.3,0.2-0.6,0.3-0.9,0.6c-1.5,1.2-3,2.4-4.5,3.6c-0.6,0.5-1.3,1-2,1.4c-0.1,0.1-0.3,0.1-0.5,0.1
				c-1.6,0-3.2,0-4.7,0c-0.1,0-0.2-0.1-0.4-0.1c1.4-2.5,2.8-4.8,4.1-7.2c-0.1-0.1-0.1-0.1-0.1-0.2c-0.2,0.1-0.5,0.1-0.7,0.1
				c-1.9,0.7-3.8,1.2-5.8,1.1c-0.3,0-0.6-0.1-1.1-0.2c1.3-0.6,2.1-1.5,2.8-2.4c0.1-0.1,0.2-0.3,0.2-0.4c0.2-0.6,0.5-0.9,1.2-0.9
				c2-0.2,3.7-1.1,5.2-2.4c1.1-0.9,2-2.1,3-3.2c0.1-0.1,0.3-0.3,0.4-0.3C36.5,25.7,37.8,25.7,39.1,25.8z"/>
			<path d="M4.3,41.7c0.9-1.6,1.7-3,2.5-4.4c1.3-2.4,2.6-4.7,3.9-7c0.7-1.3,1.4-2.7,2.3-3.9c1-1.4,2.4-2.5,4.2-2.9
				c0.7-0.1,1.4-0.3,2-0.3c2-0.2,3.7,0.5,4.9,2.1c0.3,0.5,0.6,1,0.9,1.5c0.7,1.4,0.7,3,0.2,4.5c-0.7,2-2.2,3.3-4.3,4
				c-2.5,0.7-5,0.6-7.6,0.5c0.3-0.6,0.6-1.1,0.9-1.7c0.2-0.4,0.4-0.7,0.6-1.1c0.3-0.5,0.8-0.6,1.4-0.6c0.8,0,1.6,0,2.4-0.2
				c1.3-0.3,2.4-0.9,2.8-2.3c0.3-1.1-0.7-2.5-1.8-2.5c-1.1-0.1-2.2,0.1-3,1c-0.5,0.7-0.9,1.5-1.3,2.2c-0.7,1.3-1.4,2.5-2.1,3.7
				c-0.5,1-1.1,2-1.6,2.9c-0.8,1.4-1.6,2.9-2.4,4.4c-0.1,0.2-0.3,0.3-0.5,0.3C7.4,41.7,5.9,41.7,4.3,41.7z"/>
			<path d="M-21.5,35.5c0.1-0.4,0.2-0.7,0.3-1c0.3-0.7,0.6-1.6,1-2.3c0.1-0.2,0.3-0.2,0.5-0.3c0.1-0.1,0.3,0,0.5,0
				c11,0,15.7,0,26.8,0c0.3,0,0.7,0,1.1,0c-0.5,1-1.1,1.8-1.5,2.7c-0.4,1-1.1,1-2.1,1c-2,0-4.1,0-6.1,0c-1.6,0-3-0.1-4.6-0.1
				c-6.8,0-7.3,0.1-14.1,0.1C-20.4,35.6-20.9,35.6-21.5,35.5z"/>
			<path d="M87.3,32c-1,1-2,1.9-2.8,2.9c-0.7,0.9-1.6,1-2.6,1c-7.4-0.1-14.9,0-22.3,0c-2.5,0-5.1,0-7.5-0.1c-0.2,0-0.5-0.1-0.9-0.1
				c0.2-0.3,0.3-0.5,0.5-0.7c0.9-0.9,1.7-1.8,2.6-2.8c0.2-0.2,0.5-0.3,0.7-0.3c2.8-0.1,5.6-0.1,8.4-0.1c3.1,0,6.3,0,9.4,0
				c1.7,0,3.4,0,5.1,0c2.8,0,5.6,0,8.4,0C86.6,31.9,86.9,32,87.3,32z"/>
			<path d="M81.6,37.8c-0.8,0.9-1.6,1.7-2.4,2.5c-0.1,0.1-0.2,0.1-0.2,0.2c-0.6,1.1-1.7,1.1-2.8,1.1c-4.9,0-9.7,0-14.6,0
				c-5,0-10.1-0.1-15.1-0.1c-0.2,0-0.3,0-0.6-0.1c0.2-0.2,0.2-0.5,0.4-0.6c0.9-1,1.7-1.9,2.6-2.8c0.2-0.2,0.5-0.2,0.7-0.2
				c8.2,0,16.5,0,24.7,0c2.2,0,4.4,0,6.6,0C81.3,37.8,81.4,37.8,81.6,37.8z"/>
		</g>
	</g>
</g>
</svg>
