<svg xmlns="http://www.w3.org/2000/svg" xmlns:xlink="http://www.w3.org/1999/xlink" viewBox="0 0 64.8 64.8"><style/><circle cx="32.4" cy="32.4" r="32.4" fill="#bec8cc" stroke="#fff" stroke-miterlimit="10"/><defs><circle id="a" cx="32.4" cy="32.4" r="32.4"/></defs><clipPath id="b"><use xlink:href="#a" overflow="visible"/></clipPath><g clip-path="url(#b)"><path d="M39.1 25.8c-1.7 3-3.3 5.8-4.8 8.7.1.1.1.1.2.1.5-.3.9-.5 1.4-.9.6-.5 1.1-1.1 1.8-1.5.5-.3 1.1-.3 1.6-.3 1.6-.1 3.2 0 4.9 0 0 .3 0 .6-.1.8-.3 1.1-.7 2.2-1.1 3.3-.1.2-.1.5-.1.8.1.1.1.1.2.1.5-.4.9-.9 1.3-1.3.9-.9 1.7-1.8 2.5-2.7 1.2-1.3 2.4-2.6 3.7-4 .6-.6 1.2-1.3 1.8-2 .3-.3.5-.5 1-.5 5.9 0 11.7-.1 17.6-.1 2.2 0 4.4.1 6.6.1 2.1 0 4.1-.1 6.3-.1 2 0 4 .1 6 .1.7 0 1.5-.1 2.2-.1.1 0 .3 0 .5.1-.1.2-.2.3-.3.5-1 1-2 2-3 2.9-.2.2-.5.2-.8.2H78.2c-7.4 0-14.8 0-22.1-.1-1 0-1.6.3-2.2 1-1.1 1.3-2.3 2.6-3.4 3.9-1.4 1.6-2.8 3-4.3 4.6-.6.7-1.3 1.3-2 1.9-.1.1-.3.2-.5.2h-6c-.1 0-.2-.1-.3-.1.6-1.9 1.2-3.7 1.8-5.6-.1.3-.1.2-.2.2-.3.2-.6.3-.9.6l-4.5 3.6c-.6.5-1.3 1-2 1.4-.1.1-.3.1-.5.1h-4.7c-.1 0-.2-.1-.4-.1 1.4-2.5 2.8-4.8 4.1-7.2-.1-.1-.1-.1-.1-.2-.2.1-.5.1-.7.1-1.9.7-3.8 1.2-5.8 1.1-.3 0-.6-.1-1.1-.2 1.3-.6 2.1-1.5 2.8-2.4.1-.1.2-.3.2-.4.2-.6.5-.9 1.2-.9 2-.2 3.7-1.1 5.2-2.4 1.1-.9 2-2.1 3-3.2.1-.1.3-.3.4-.3 1.3.1 2.6.1 3.9.2z"/><path d="M4.3 41.7c.9-1.6 1.7-3 2.5-4.4 1.3-2.4 2.6-4.7 3.9-7 .7-1.3 1.4-2.7 2.3-3.9 1-1.4 2.4-2.5 4.2-2.9.7-.1 1.4-.3 2-.3 2-.2 3.7.5 4.9 2.1l.9 1.5c.7 1.4.7 3 .2 4.5-.7 2-2.2 3.3-4.3 4-2.5.7-5 .6-7.6.5.3-.6.6-1.1.9-1.7.2-.4.4-.7.6-1.1.3-.5.8-.6 1.4-.6.8 0 1.6 0 2.4-.2 1.3-.3 2.4-.9 2.8-2.3.3-1.1-.7-2.5-1.8-2.5-1.1-.1-2.2.1-3 1-.5.7-.9 1.5-1.3 2.2-.7 1.3-1.4 2.5-2.1 3.7-.5 1-1.1 2-1.6 2.9-.8 1.4-1.6 2.9-2.4 4.4-.1.2-.3.3-.5.3-1.3-.2-2.8-.2-4.4-.2zm-25.8-6.2c.1-.4.2-.7.3-1 .3-.7.6-1.6 1-2.3.1-.2.3-.2.5-.3.1-.1.3 0 .5 0H8.7c-.5 1-1.1 1.8-1.5 2.7-.4 1-1.1 1-2.1 1H-1c-1.6 0-3-.1-4.6-.1-6.8 0-7.3.1-14.1.1-.7 0-1.2 0-1.8-.1zM87.3 32c-1 1-2 1.9-2.8 2.9-.7.9-1.6 1-2.6 1-7.4-.1-14.9 0-22.3 0-2.5 0-5.1 0-7.5-.1-.2 0-.5-.1-.9-.1.2-.3.3-.5.5-.7.9-.9 1.7-1.8 2.6-2.8.2-.2.5-.3.7-.3 2.8-.1 5.6-.1 8.4-.1h22.9c.3.1.6.2 1 .2zm-5.7 5.8c-.8.9-1.6 1.7-2.4 2.5-.1.1-.2.1-.2.2-.6 1.1-1.7 1.1-2.8 1.1H61.6c-5 0-10.1-.1-15.1-.1-.2 0-.3 0-.6-.1.2-.2.2-.5.4-.6.9-1 1.7-1.9 2.6-2.8.2-.2.5-.2.7-.2h32z"/></g></svg>