<?xml version="1.0" encoding="utf-8"?>
<!-- Generator: Adobe Illustrator 21.0.0, SVG Export Plug-In . SVG Version: 6.00 Build 0)  -->
<svg version="1.1" id="Layer_1" xmlns="http://www.w3.org/2000/svg" xmlns:xlink="http://www.w3.org/1999/xlink" x="0px" y="0px"
	 viewBox="0 0 65.8 65.8" style="enable-background:new 0 0 65.8 65.8;" xml:space="preserve">
<style type="text/css">
	.st0{fill:#FFFFFF;stroke:#000000;stroke-miterlimit:10;}
	.st1{fill:#FFFFFF;stroke:#FFFFFF;stroke-miterlimit:10;}
	.st2{fill:none;stroke:#BE2026;stroke-width:2;stroke-miterlimit:10;}
	.st3{fill:#FFDEA7;}
	.st4{fill:#BE2026;}
	.st5{fill:#1C94D2;stroke:#FFFFFF;stroke-miterlimit:10;}
	.st6{fill:#FFFFFF;}
	.st7{fill:#00AFAD;stroke:#FFFFFF;stroke-miterlimit:10;}
	.st8{fill:#FFFFFF;stroke:#000000;stroke-width:0.25;stroke-miterlimit:10;}
	.st9{fill:#06884B;}
	.st10{fill:#BEC8CC;stroke:#FFFFFF;stroke-miterlimit:10;}
	.st11{clip-path:url(#SVGID_2_);}
	.st12{fill:#E22126;stroke:#FBE904;stroke-width:0.75;stroke-miterlimit:10;}
	.st13{fill:#191817;}
	.st14{fill:#FBE904;}
	.st15{fill:#E63229;}
	.st16{fill:#FEF16E;stroke:#FFFFFF;stroke-miterlimit:10;}
	.st17{fill:#1F4180;}
	.st18{fill:none;stroke:#E21E26;stroke-width:2;stroke-miterlimit:10;}
	.st19{fill:#E96F2B;}
	.st20{fill:#F29220;}
	.st21{fill:#EF8322;}
	.st22{fill:#EE3F80;}
	.st23{fill:#F1A847;}
	.st24{fill:#FDBA3A;}
	.st25{clip-path:url(#SVGID_4_);}
	.st26{fill:#383635;}
	.st27{clip-path:url(#SVGID_6_);}
	.st28{fill:#181A10;stroke:#FFFFFF;stroke-miterlimit:10;}
	.st29{fill:#EF4323;stroke:#FFFFFF;stroke-miterlimit:10;}
	.st30{fill:#BEDB86;stroke:#FFFFFF;stroke-miterlimit:10;}
	.st31{fill:#FFFFFF;stroke:#000000;stroke-width:0.5;stroke-miterlimit:10;}
	.st32{fill:#E38328;stroke:#FFFFFF;stroke-miterlimit:10;}
	.st33{fill:#020202;}
	.st34{fill:none;stroke:#FFFFFF;stroke-miterlimit:10;}
	.st35{fill:#BFDEF3;stroke:#FFFFFF;stroke-miterlimit:10;}
	.st36{fill:#994573;}
	.st37{fill:#F6F6F6;}
	.st38{fill:#8F4199;stroke:#FFFFFF;stroke-miterlimit:10;}
	.st39{fill:#175633;}
	.st40{fill:#984D2D;}
</style>
<circle class="st1" cx="32.9" cy="32.9" r="32.4"/>
<g>
	<path class="st39" d="M44.3,38.6l-0.5-0.4l-3.2-9.1h-3.1l0.8,0.6l-3.2,8.9h2.7l-0.5-0.4l0.9-2.3h2.2l1,2.3l-0.5,0.4H44.3z
		 M39.9,34.3h-1.4V34l0.8-1.7l0.6,1.7V34.3z"/>
	<path class="st39" d="M32.9,29.1h-3.1v9.5h4.5l0.8-2.1l-1,0.7l-1.2,0c-0.3,0-0.5-0.2-0.6-0.5v-6.9L32.9,29.1z"/>
	<path class="st39" d="M26.7,27.1H50c0.2-0.1,0.2-0.2,0.2-0.4V16.3l-0.1-0.1c-0.9,1-2,1.5-3.3,1.5c-0.2,0-0.4,0-0.6-0.1
		c-1.1,0-3.1-1.9-6-5.6c-1.5-2.1-2.8-3.2-4.2-3.2c-0.4,0-0.6,0.1-0.6,0c-1.2,0.4-1.8,1.2-1.8,2.2c0,1.2,0.7,1.9,2.1,2.1h0.4l0.4-0.1
		c0.2,0.2,0.4,0.2,0.4,0.3v0.3c-1,1.2-2.2,1.8-3.6,1.8h-1.1c-0.3,0-0.7,0-1.2-0.2c-1.5-0.5-2.4-1.2-2.8-2c0-0.1,0-0.3,0.2-0.4
		c0.3,0,0.9,0,1.8,0.1c1,0,1.6-0.6,1.8-1.9c0-0.2,0-0.4-0.1-0.8c-0.3-0.9-1-1.4-1.9-1.4h-0.4c-1.1,0-2.6,1.4-4.6,4.1
		c-2,3.1-3.9,4.7-5.5,4.7H19c-1.2,0-2.4-0.4-3.4-1.4h-0.1v3.2c0,1.7,0,4.2-0.1,7.4l0.1,0.3C20.5,27.1,24.3,27.1,26.7,27.1z"/>
	<polygon class="st39" points="26.3,38.6 26.3,30.7 28.3,30.7 28.3,29.1 21.5,29.1 21.5,30.7 23.6,30.7 23.6,38.6 	"/>
	<path class="st39" d="M49.4,40.6H16c-0.3,0-0.4,0.1-0.4,0.4v11h0c1-0.8,2-1.3,3-1.3c1,0,1.9,0.4,2.7,1.1c0.8,1.3,1.4,2.3,2,3.2
		c1.4,1.4,2.8,2,4.2,2H28c1.6,0,3.1-1,4.6-3.1c1.2,2,2.6,3.1,4.4,3.1h0.7c1.4,0,2.8-0.7,4.2-2c1.7-2.8,3.2-4.2,4.5-4.2
		c0.7,0,1.5,0.4,2.4,1c0.7,0.8,1.2,1.2,1.2,1.2h0v-12C50,40.7,49.8,40.6,49.4,40.6z"/>
	<path class="st39" d="M56,29.2h-3l0.4,0.3v8.8l-0.4,0.4H56c3.4,0,5.1-1.6,5.1-4.9C61.2,30.7,59.4,29.2,56,29.2z M58.7,33.5
		c0,2.1-0.5,3.2-1.4,3.5H56v-6.2h1.4c0.9,0.2,1.4,1,1.4,2.4V33.5z"/>
	<path class="st39" d="M16.5,38.9c2.2,0,3.3-1.2,3.5-3.5v-6.3h-1.6v7.4c-0.2,0.6-0.6,1-1.1,1.1h-0.8c-0.9-0.4-1.4-1.2-1.4-2.2v-5.6
		c0.1-0.2,0.3-0.4,0.6-0.7h-3.6l0.6,0.7v4.8c0,2.9,1.2,4.4,3.5,4.4H16.5z"/>
	<polygon class="st39" points="50.5,34.7 46.3,29.1 44.3,29.1 45.1,29.8 45.1,38.3 44.8,38.7 47,38.7 46.7,38.3 46.7,33.5 50,37.9 
		51.7,38.7 51.8,38.7 51.8,29.8 52.1,29.2 50.5,29.2 	"/>
	<path class="st39" d="M10.5,32.4v-0.8c0-1.6-1-2.4-3-2.4H4.6v9.5h2.6v-2.7l1.8,2.7h2.5l-2.4-4.4C9.9,34.2,10.3,33.6,10.5,32.4z
		 M8.3,32.6c0,0.5-0.2,0.8-0.7,0.8H7.2v-2.7h0.6c0.4,0,0.5,0.2,0.5,0.5V32.6z"/>
</g>
</svg>
