<?xml version="1.0" encoding="utf-8"?>
<!-- Generator: Adobe Illustrator 21.0.0, SVG Export Plug-In . SVG Version: 6.00 Build 0)  -->
<svg version="1.1" id="Layer_1" xmlns="http://www.w3.org/2000/svg" xmlns:xlink="http://www.w3.org/1999/xlink" x="0px" y="0px"
	 viewBox="0 0 144 144" style="enable-background:new 0 0 144 144;" xml:space="preserve">
<style type="text/css">
	.st0{enable-background:new    ;}
	.st1{fill:#245B2D;}
</style>
<g>
	<g class="st0">
		<path class="st1" d="M1.3,62.6h7.2c5,0,7.5,2,7.5,6.1v2.1c-0.5,2.9-1.6,4.4-3.4,4.7l6.1,10.9h-6.3l-4.5-6.8v6.8H1.3V62.6z
			 M7.8,66.6v6.8h0.9c1.2,0,1.8-0.7,1.8-2V68c0-0.9-0.4-1.3-1.3-1.3H7.8z M29.1,62.6c-0.8,0.6-1.3,1.1-1.5,1.7v14
			c0,2.5,1.1,4.3,3.4,5.4h2c1.3-0.3,2.2-1.2,2.8-2.7V62.6h4v15.7c-0.5,5.9-3.4,8.8-8.8,8.8h-0.7c-5.9,0-8.8-3.6-8.8-10.9V64.3
			l-1.5-1.7H29.1z M80,11.7c3.3,0,6.7,2.7,10.4,8c7.4,9.4,12.4,14.1,15.1,14.1c0.6,0.1,1.1,0.2,1.5,0.2c3.3,0,6-1.2,8.2-3.7l0.2,0.3
			v25.8c0,0.6-0.2,0.9-0.6,1.1H56.5c-6.1,0-15.4,0.1-27.7,0.2l-0.3-0.7c0.1-8.1,0.2-14.3,0.2-18.6v-8h0.2c2.5,2.4,5.3,3.5,8.4,3.5
			h1.1c4,0,8.6-3.9,13.7-11.7c5-6.8,8.8-10.3,11.5-10.3h1.1c2.3,0,3.9,1.2,4.7,3.5c0.1,0.8,0.2,1.5,0.2,1.9
			c-0.4,3.2-1.9,4.8-4.5,4.8c-2.2-0.1-3.7-0.2-4.5-0.2c-0.3,0.4-0.4,0.8-0.4,1.1c1,2.1,3.4,3.7,7.1,5c1.2,0.3,2.2,0.4,2.9,0.4h2.8
			c3.4,0,6.3-1.5,8.9-4.6v-0.8c0-0.2-0.3-0.4-0.9-0.8l-1,0.2h-0.9c-3.5-0.5-5.2-2.2-5.2-5.2c0-2.5,1.5-4.3,4.5-5.4
			C78.5,11.9,79.1,11.8,80,11.7z M29.8,91.3h83.6c1,0,1.5,0.4,1.5,1.3v29.9h-0.1c-0.2,0-1.3-1-3.1-3.1c-2.4-1.7-4.4-2.6-6.1-2.6
			c-3.3,0-7,3.5-11.2,10.5c-3.5,3.4-7,5.1-10.4,5.1h-1.8c-4.3,0-7.9-2.6-10.9-7.7c-3.9,5.2-7.7,7.7-11.6,7.7h-1.1
			c-3.5,0-7-1.7-10.4-5.1c-1.5-2.1-3.2-4.7-5.1-7.9c-2-1.9-4.2-2.8-6.7-2.8c-2.7,0-5.2,1.1-7.6,3.2h-0.1V92.4
			C28.8,91.6,29.1,91.3,29.8,91.3z M40.2,48.4l0.3,1.2H42v-5.3h-4.4V46H40c-0.1,0.7-0.4,1.2-0.8,1.6c-0.4,0.3-1,0.5-1.8,0.5
			c-1,0-1.7-0.3-2.2-0.9c-0.5-0.6-0.8-1.5-0.8-2.5c0-1.1,0.3-1.9,0.8-2.4c0.5-0.6,1.2-0.9,2.1-0.9c0.7,0,1.2,0.1,1.6,0.4
			c0.4,0.3,0.7,0.6,0.8,1.1h2.2c-0.2-1-0.7-1.8-1.5-2.4c-0.8-0.6-1.9-0.9-3.2-0.9c-1.6,0-2.8,0.5-3.7,1.4c-0.9,0.9-1.3,2.2-1.3,3.8
			c0,1.5,0.4,2.8,1.3,3.7c1,1,2.2,1.4,3.6,1.4c0.7,0,1.3-0.1,1.8-0.3C39.4,49.3,39.8,48.9,40.2,48.4z M45.6,107.4l0.3,1.2h1.4v-5.5
			h-4.1v1.8h2.2c-0.1,0.7-0.3,1.2-0.8,1.5c-0.4,0.4-1,0.6-1.7,0.6c-0.8,0-1.5-0.3-2-0.9c-0.5-0.6-0.8-1.4-0.8-2.5
			c0-1.1,0.3-1.9,0.8-2.5c0.5-0.6,1.1-0.9,1.9-0.9c0.6,0,1.1,0.1,1.5,0.4c0.4,0.3,0.6,0.7,0.8,1.2h2.1c-0.1-1-0.6-1.8-1.4-2.4
			c-0.7-0.6-1.7-0.9-3-0.9c-1.5,0-2.6,0.5-3.5,1.4c-0.8,1-1.3,2.2-1.3,3.8c0,1.6,0.4,2.9,1.3,3.9c0.9,1,2,1.4,3.5,1.4
			c0.6,0,1.2-0.1,1.7-0.3C44.9,108.3,45.3,107.9,45.6,107.4z M60.6,62.6v4h-5.1v19.8h-6.8V66.6h-5.1v-4H60.6z M44,49.6h2.2v-3.8h2.3
			c0.6,0,1,0.1,1.2,0.3c0.2,0.2,0.4,0.6,0.4,1.3v1c0,0.3,0,0.5,0.1,0.8c0.1,0.2,0.1,0.4,0.2,0.5h2.4v-0.3c-0.3-0.2-0.4-0.5-0.4-1.1
			v-0.1l-0.1-1.1c0-0.7-0.1-1.2-0.3-1.5c-0.2-0.3-0.5-0.5-0.9-0.7c0.4-0.1,0.8-0.4,1.1-0.8c0.3-0.4,0.4-0.9,0.4-1.4
			c0-1-0.3-1.7-0.8-2.1c-0.6-0.5-1.4-0.8-2.5-0.8H44V49.6z M46.2,44.1v-2.7h2.6c0.5,0,0.9,0.1,1.2,0.3c0.2,0.2,0.3,0.6,0.3,1
			c0,0.4-0.1,0.8-0.4,1c-0.2,0.2-0.6,0.3-1.2,0.3H46.2z M51.7,98.6l-3.5,10h2.1l0.6-2.1h3.9l0.7,2.1h2.2l-3.6-10H51.7z M52.9,100.6
			l1.3,4.2h-2.8L52.9,100.6z M54.4,49.6h8v-1.9h-5.8v-2.4h5.1v-1.7h-5.1v-2.2h5.6v-1.7h-7.7V49.6z M60.3,108.6h2v-8.3h2.9v-1.8h-7.9
			v1.8h2.9V108.6z M64.1,49.6H72v-1.9h-5.7v-2.4h5v-1.7h-5v-2.2h5.5v-1.7h-7.7V49.6z M64.3,62.6H72l-1.5,1.7v17.3
			c0.2,0.9,0.6,1.3,1.4,1.3l3-0.1l2.5-1.7l-1.9,5.2H64.3V62.6z M66.4,108.6h7.5v-1.9h-5.5v-2.6h4.8v-1.7h-4.8v-2.1h5.2v-1.8h-7.2
			V108.6z M73.7,49.6h2.1v-6.7l4.4,6.7h2.2v-9.8h-2.1v6.8L76,39.8h-2.3V49.6z M77.3,108.6h1.9l1.6-7.7l1.5,7.7h1.9l2.9-10h-2.1
			l-1.7,7.1L82,98.6h-2.2l-1.4,7.1l-1.7-7.1h-2.1L77.3,108.6z M91.4,62.6l7.9,22.8l1.3,1h-8.7l1.3-1l-2.4-5.8h-5.5l-2.2,5.8l1.2,1
			h-6.7l8-22.2l-2-1.6H91.4z M88,70.5l-1.9,4.3v0.7h3.5v-0.7L88,70.5z M90.6,98.6l-3.5,10h2.1l0.7-2.1h3.9l0.7,2.1h2.1l-3.5-10H90.6
			z M88.8,49.6h2v-7.9l2.2,7.9h2.3l2.1-7.9v7.9h2v-9.8h-3.2l-2.1,7.5L92,39.8h-3.2V49.6z M91.8,100.6l1.3,4.2h-2.8L91.8,100.6z
			 M101.3,108.6v-3.7l3.3-6.3h-2.4l-1.9,4.4l-2.1-4.4h-2.5l3.6,6.3v3.7H101.3z M105.5,62.6l10.5,13.9V62.7h4.1l-0.7,1.7v22.1H119
			l-4.1-2l-8.3-10.9v12l0.8,0.9h-5.7l0.8-1V64.3l-1.9-1.7H105.5z M103.9,49.6h2.2v-8.1h3.1v-1.8h-8.5v1.8h3.2V49.6z M108.2,49.6h2.2
			v-1.9h-2.2V49.6z M129.9,62.7c8.5,0,12.8,3.8,12.8,11.4c0,8.2-4.3,12.3-12.8,12.3h-7.2l0.9-0.9v-22l-1.1-0.8H129.9z M129.7,66.6
			v15.7h3.5c2.2-0.7,3.4-3.6,3.4-8.8v-0.7c0-3.6-1.1-5.7-3.4-6.1H129.7z"/>
	</g>
</g>
</svg>
