<svg xmlns="http://www.w3.org/2000/svg" viewBox="0 0 65.8 65.8"><circle cx="32.9" cy="32.9" r="32.4" fill="#fff" stroke="#fff" stroke-miterlimit="10"/><path d="M44.3 38.6l-.5-.4-3.2-9.1h-3.1l.8.6-3.2 8.9h2.7l-.5-.4.9-2.3h2.2l1 2.3-.5.4h3.4zm-4.4-4.3h-1.4V34l.8-1.7.6 1.7v.3zm-7-5.2h-3.1v9.5h4.5l.8-2.1-1 .7h-1.2c-.3 0-.5-.2-.6-.5v-6.9l.6-.7zm-6.2-2H50c.2-.1.2-.2.2-.4V16.3l-.1-.1c-.9 1-2 1.5-3.3 1.5-.2 0-.4 0-.6-.1-1.1 0-3.1-1.9-6-5.6-1.5-2.1-2.8-3.2-4.2-3.2-.4 0-.6.1-.6 0-1.2.4-1.8 1.2-1.8 2.2 0 1.2.7 1.9 2.1 2.1h.4l.4-.1c.2.2.4.2.4.3v.3c-1 1.2-2.2 1.8-3.6 1.8h-1.1c-.3 0-.7 0-1.2-.2-1.5-.5-2.4-1.2-2.8-2 0-.1 0-.3.2-.4.3 0 .9 0 1.8.1 1 0 1.6-.6 1.8-1.9 0-.2 0-.4-.1-.8-.3-.9-1-1.4-1.9-1.4h-.4c-1.1 0-2.6 1.4-4.6 4.1-2 3.1-3.9 4.7-5.5 4.7H19c-1.2 0-2.4-.4-3.4-1.4h-.1v3.2c0 1.7 0 4.2-.1 7.4l.1.3h11.2zm-.4 11.5v-7.9h2v-1.6h-6.8v1.6h2.1v7.9zm23.1 2H16c-.3 0-.4.1-.4.4v11c1-.8 2-1.3 3-1.3s1.9.4 2.7 1.1c.8 1.3 1.4 2.3 2 3.2 1.4 1.4 2.8 2 4.2 2h.5c1.6 0 3.1-1 4.6-3.1 1.2 2 2.6 3.1 4.4 3.1h.7c1.4 0 2.8-.7 4.2-2 1.7-2.8 3.2-4.2 4.5-4.2.7 0 1.5.4 2.4 1 .7.8 1.2 1.2 1.2 1.2V41c0-.3-.2-.4-.6-.4zM56 29.2h-3l.4.3v8.8l-.4.4h3c3.4 0 5.1-1.6 5.1-4.9.1-3.1-1.7-4.6-5.1-4.6zm2.7 4.3c0 2.1-.5 3.2-1.4 3.5H56v-6.2h1.4c.9.2 1.4 1 1.4 2.4v.3zm-42.2 5.4c2.2 0 3.3-1.2 3.5-3.5v-6.3h-1.6v7.4c-.2.6-.6 1-1.1 1.1h-.8c-.9-.4-1.4-1.2-1.4-2.2v-5.6c.1-.2.3-.4.6-.7h-3.6l.6.7v4.8c0 2.9 1.2 4.4 3.5 4.4h.3zm34-4.2l-4.2-5.6h-2l.8.7v8.5l-.3.4H47l-.3-.4v-4.8l3.3 4.4 1.7.8h.1v-8.9l.3-.6h-1.6zm-40-2.3v-.8c0-1.6-1-2.4-3-2.4H4.6v9.5h2.6V36L9 38.7h2.5l-2.4-4.4c.8-.1 1.2-.7 1.4-1.9zm-2.2.2c0 .5-.2.8-.7.8h-.4v-2.7h.6c.4 0 .5.2.5.5v1.4z" fill="#175633"/></svg>