<svg xmlns="http://www.w3.org/2000/svg" viewBox="0 0 65.8 65.8"><style/><circle cx="32.9" cy="32.9" r="32.4" fill="#fef16e" stroke="#fff" stroke-miterlimit="10"/><path d="M42.1 14.4l2.1 10.9-.4.1c-.5-1.4-1.3-2.7-2.2-3.8-.9-1.1-1.9-2-3-2.6-1.1-.6-2.3-1.1-3.5-1.5s-2.4-.5-3.6-.5c-1.7 0-3.2.4-4.5 1.1-1.3.8-2 1.9-2.3 3.5 0 .6.3 1.2.8 1.7s1.1.9 2 1.3c.8.4 1.8.7 3 1.1 1.2.3 2.2.6 3.2.9 1 .3 2.2.6 3.6 1.1 1.4.4 2.6.8 3.5 1.1.9.3 1.6.6 2.2.9 1.7.9 3 2.2 3.9 3.7.9 1.6 1.4 3.4 1.4 5.2 0 2.6-.8 4.9-2.3 6.8-1.5 2-3.6 3.5-6 4.6-2.5 1.1-4.9 1.6-7.4 1.6s-4.9-.4-7.3-1.3c-.8-.3-1.5-.4-2-.4-1.1 0-1.9.3-2.4 1l-3.2-13.7.6-.1c.4 1.7 1.3 3.5 2.5 5.2 1.3 1.8 2.8 3.2 4.8 4.4 1.9 1.2 4.1 1.8 6.4 1.8 1.7-.1 3.4-.4 5-.9s3-1.3 4-2.4c1.1-1.1 1.7-2.5 1.8-4.2 0-1.2-.2-2.2-.6-3-.4-.8-1-1.4-1.8-1.9s-2-1.1-3.5-1.7c-1-.4-2.3-.9-3.9-1.3s-3-.8-4.2-1.2c-1.2-.3-2.3-.7-3.3-1.1s-2-.9-2.7-1.5c-2.2-1.5-3.3-3.6-3.4-6.1.1-1.1.2-1.8.3-2.3.5-2.2 2-3.9 4.3-5.1s5-1.8 8-1.8c.8 0 1.7.1 2.5.2s1.9.4 3.2.6c1.3.3 2.1.4 2.5.5.8.1 1.5-.3 1.9-.9z" fill="#191817"/></svg>