<?xml version="1.0" encoding="utf-8"?>
<!-- Generator: Adobe Illustrator 21.0.0, SVG Export Plug-In . SVG Version: 6.00 Build 0)  -->
<svg version="1.1" id="Layer_1" xmlns="http://www.w3.org/2000/svg" xmlns:xlink="http://www.w3.org/1999/xlink" x="0px" y="0px"
	 viewBox="0 0 65.8 65.8" style="enable-background:new 0 0 65.8 65.8;" xml:space="preserve">
<style type="text/css">
	.st0{fill:#FFFFFF;stroke:#000000;stroke-miterlimit:10;}
	.st1{fill:#FFFFFF;stroke:#FFFFFF;stroke-miterlimit:10;}
	.st2{fill:none;stroke:#BE2026;stroke-width:2;stroke-miterlimit:10;}
	.st3{fill:#FFDEA7;}
	.st4{fill:#BE2026;}
	.st5{fill:#1C94D2;stroke:#FFFFFF;stroke-miterlimit:10;}
	.st6{fill:#FFFFFF;}
	.st7{fill:#00AFAD;stroke:#FFFFFF;stroke-miterlimit:10;}
	.st8{fill:#FFFFFF;stroke:#000000;stroke-width:0.25;stroke-miterlimit:10;}
	.st9{fill:#06884B;}
	.st10{fill:#BEC8CC;stroke:#FFFFFF;stroke-miterlimit:10;}
	.st11{clip-path:url(#SVGID_2_);}
	.st12{fill:#E22126;stroke:#FBE904;stroke-width:0.75;stroke-miterlimit:10;}
	.st13{fill:#191817;}
	.st14{fill:#FBE904;}
	.st15{fill:#E63229;}
	.st16{fill:#FEF16E;stroke:#FFFFFF;stroke-miterlimit:10;}
	.st17{fill:#1F4180;}
	.st18{fill:none;stroke:#E21E26;stroke-width:2;stroke-miterlimit:10;}
	.st19{fill:#E96F2B;}
	.st20{fill:#F29220;}
	.st21{fill:#EF8322;}
	.st22{fill:#EE3F80;}
	.st23{fill:#F1A847;}
	.st24{fill:#FDBA3A;}
	.st25{clip-path:url(#SVGID_4_);}
	.st26{fill:#383635;}
	.st27{clip-path:url(#SVGID_6_);}
	.st28{fill:#181A10;stroke:#FFFFFF;stroke-miterlimit:10;}
	.st29{fill:#EF4323;stroke:#FFFFFF;stroke-miterlimit:10;}
	.st30{fill:#BEDB86;stroke:#FFFFFF;stroke-miterlimit:10;}
	.st31{fill:#FFFFFF;stroke:#000000;stroke-width:0.5;stroke-miterlimit:10;}
	.st32{fill:#E38328;stroke:#FFFFFF;stroke-miterlimit:10;}
	.st33{fill:#020202;}
	.st34{fill:none;stroke:#FFFFFF;stroke-miterlimit:10;}
	.st35{fill:#BFDEF3;stroke:#FFFFFF;stroke-miterlimit:10;}
	.st36{fill:#994573;}
	.st37{fill:#F6F6F6;}
	.st38{fill:#8F4199;stroke:#FFFFFF;stroke-miterlimit:10;}
	.st39{fill:#175633;}
	.st40{fill:#984D2D;}
</style>
<circle class="st16" cx="32.9" cy="32.9" r="32.4"/>
<g>
	<g>
		<g>
			<path class="st13" d="M42.1,14.4l2.1,10.9l-0.4,0.1c-0.5-1.4-1.3-2.7-2.2-3.8c-0.9-1.1-1.9-2-3-2.6c-1.1-0.6-2.3-1.1-3.5-1.5
				s-2.4-0.5-3.6-0.5c-1.7,0-3.2,0.4-4.5,1.1c-1.3,0.8-2,1.9-2.3,3.5c0,0.6,0.3,1.2,0.8,1.7c0.5,0.5,1.1,0.9,2,1.3
				c0.8,0.4,1.8,0.7,3,1.1c1.2,0.3,2.2,0.6,3.2,0.9c1,0.3,2.2,0.6,3.6,1.1c1.4,0.4,2.6,0.8,3.5,1.1c0.9,0.3,1.6,0.6,2.2,0.9
				c1.7,0.9,3,2.2,3.9,3.7c0.9,1.6,1.4,3.4,1.4,5.2c0,2.6-0.8,4.9-2.3,6.8c-1.5,2-3.6,3.5-6,4.6c-2.5,1.1-4.9,1.6-7.4,1.6
				c-2.5,0-4.9-0.4-7.3-1.3c-0.8-0.3-1.5-0.4-2-0.4c-1.1,0-1.9,0.3-2.4,1l-3.2-13.7l0.6-0.1c0.4,1.7,1.3,3.5,2.5,5.2
				c1.3,1.8,2.8,3.2,4.8,4.4c1.9,1.2,4.1,1.8,6.4,1.8c1.7-0.1,3.4-0.4,5-0.9s3-1.3,4-2.4c1.1-1.1,1.7-2.5,1.8-4.2
				c0-1.2-0.2-2.2-0.6-3c-0.4-0.8-1-1.4-1.8-1.9c-0.8-0.5-2-1.1-3.5-1.7c-1-0.4-2.3-0.9-3.9-1.3c-1.6-0.4-3-0.8-4.2-1.2
				c-1.2-0.3-2.3-0.7-3.3-1.1s-2-0.9-2.7-1.5c-2.2-1.5-3.3-3.6-3.4-6.1c0.1-1.1,0.2-1.8,0.3-2.3c0.5-2.2,2-3.9,4.3-5.1s5-1.8,8-1.8
				c0.8,0,1.7,0.1,2.5,0.2c0.8,0.1,1.9,0.4,3.2,0.6c1.3,0.3,2.1,0.4,2.5,0.5C41,15.4,41.7,15,42.1,14.4z"/>
		</g>
	</g>
</g>
</svg>
