<?xml version="1.0" encoding="utf-8"?>
<!-- Generator: Adobe Illustrator 21.0.0, SVG Export Plug-In . SVG Version: 6.00 Build 0)  -->
<svg version="1.1" id="Layer_1" xmlns="http://www.w3.org/2000/svg" xmlns:xlink="http://www.w3.org/1999/xlink" x="0px" y="0px"
	 viewBox="0 0 65.8 65.8" style="enable-background:new 0 0 65.8 65.8;" xml:space="preserve">
<style type="text/css">
	.st0{fill:#FFFFFF;stroke:#000000;stroke-miterlimit:10;}
	.st1{fill:#FFFFFF;stroke:#FFFFFF;stroke-miterlimit:10;}
	.st2{fill:none;stroke:#BE2026;stroke-width:2;stroke-miterlimit:10;}
	.st3{fill:#FFDEA7;}
	.st4{fill:#BE2026;}
	.st5{fill:#1C94D2;stroke:#FFFFFF;stroke-miterlimit:10;}
	.st6{fill:#FFFFFF;}
	.st7{fill:#00AFAD;stroke:#FFFFFF;stroke-miterlimit:10;}
	.st8{fill:#FFFFFF;stroke:#000000;stroke-width:0.25;stroke-miterlimit:10;}
	.st9{fill:#06884B;}
	.st10{fill:#BEC8CC;stroke:#FFFFFF;stroke-miterlimit:10;}
	.st11{clip-path:url(#SVGID_2_);}
	.st12{fill:#E22126;stroke:#FBE904;stroke-width:0.75;stroke-miterlimit:10;}
	.st13{fill:#191817;}
	.st14{fill:#FBE904;}
	.st15{fill:#E63229;}
	.st16{fill:#FEF16E;stroke:#FFFFFF;stroke-miterlimit:10;}
	.st17{fill:#1F4180;}
	.st18{fill:none;stroke:#E21E26;stroke-width:2;stroke-miterlimit:10;}
	.st19{fill:#E96F2B;}
	.st20{fill:#F29220;}
	.st21{fill:#EF8322;}
	.st22{fill:#EE3F80;}
	.st23{fill:#F1A847;}
	.st24{fill:#FDBA3A;}
	.st25{clip-path:url(#SVGID_4_);}
	.st26{fill:#383635;}
	.st27{clip-path:url(#SVGID_6_);}
	.st28{fill:#181A10;stroke:#FFFFFF;stroke-miterlimit:10;}
	.st29{fill:#EF4323;stroke:#FFFFFF;stroke-miterlimit:10;}
	.st30{fill:#BEDB86;stroke:#FFFFFF;stroke-miterlimit:10;}
	.st31{fill:#FFFFFF;stroke:#000000;stroke-width:0.5;stroke-miterlimit:10;}
	.st32{fill:#E38328;stroke:#FFFFFF;stroke-miterlimit:10;}
	.st33{fill:#020202;}
	.st34{fill:none;stroke:#FFFFFF;stroke-miterlimit:10;}
	.st35{fill:#BFDEF3;stroke:#FFFFFF;stroke-miterlimit:10;}
	.st36{fill:#994573;}
	.st37{fill:#F6F6F6;}
	.st38{fill:#8F4199;stroke:#FFFFFF;stroke-miterlimit:10;}
	.st39{fill:#175633;}
	.st40{fill:#984D2D;}
</style>
<circle class="st1" cx="32.9" cy="32.9" r="32.4"/>
<g>
	<rect x="9.3" y="12.9" class="st12" width="47.2" height="40"/>
	<g>
		<g>
			<path class="st13" d="M22.4,51.1c0,0.2,0.2,0.4,0.5,0.5v0.1h-2.5v-0.2c0.1-0.1,0.2-0.2,0.2-0.4V51c0,0,0,0,0,0l-0.2-2.2h-1.2
				l-0.1,2.1c0,0,0,0.1,0,0.1c0,0.1,0,0.1,0,0.1c0,0.2,0.2,0.4,0.5,0.5v0.1h-1.7v-0.1c0.2-0.1,0.4-0.2,0.4-0.5v0v0v0l0.6-7.4
				c0.1-0.9,0.2-1.8,0.2-2.7c0.1-0.9,0.1-1.7,0.2-2.4c0.1-0.7,0.1-1.5,0.2-2.3c0,0,0.1-0.1,0.3-0.1c0.2,0,0.4,0,0.6,0s0.4,0,0.6,0
				c0.2,0,0.3,0.1,0.3,0.1c0.1,0.8,0.1,1.6,0.2,2.3c0.1,0.7,0.1,1.5,0.2,2.4c0.1,0.9,0.2,1.8,0.2,2.7c0.2,2.2,0.4,4.6,0.6,7.4
				L22.4,51.1L22.4,51.1z M20.4,48l-0.6-7.1L19.3,48H20.4z"/>
		</g>
		<g>
			<path class="st13" d="M25.4,36.8l0,14.2c0,0,0,0,0,0.1c0,0,0,0.1,0,0.1c0,0.2,0.2,0.4,0.4,0.5v0.1h-2.7v-0.1
				c0.2-0.1,0.4-0.2,0.4-0.5V51c0,0,0,0,0,0V36.8c0,0,0,0,0-0.1c0,0,0-0.1,0-0.1c0-0.2-0.2-0.4-0.4-0.5V36h2.7v0.1
				c-0.2,0.1-0.4,0.2-0.4,0.5V36.8z"/>
		</g>
		<g>
			<path class="st13" d="M30,50.2C30,50.2,30.1,50.2,30,50.2c0.1,0.2,0.1,0.2,0,0.3c0,0-0.1,0.1-0.1,0.2c0,0.1-0.1,0.2-0.1,0.4
				c0,0.1-0.1,0.3-0.1,0.4c0,0.1-0.1,0.2-0.1,0.3c0,0,0,0.1,0,0.1s0,0.1,0,0.1c0,0,0,0.1,0,0.1s-0.1,0-0.1,0c0,0-0.1,0-0.1-0.1
				c0,0-0.1-0.1-0.1-0.1c0,0-0.1-0.1-0.2-0.1c0,0-0.1,0-0.1,0s-0.1,0-0.2,0H26v-0.1c0.2-0.1,0.4-0.2,0.4-0.5v-0.1c0,0,0,0,0,0V36.8
				c0,0,0-0.1,0-0.1c0-0.1,0-0.1,0-0.1c0-0.2-0.2-0.4-0.4-0.5V36h2.7v0.1c-0.2,0.1-0.4,0.2-0.4,0.5v0.1v13.9v0.1h0.1
				c0.2,0,0.4,0,0.7-0.1s0.5-0.2,0.8-0.3C29.9,50.2,29.9,50.2,30,50.2z"/>
		</g>
		<g>
			<path class="st13" d="M38.4,48.1L38.4,48.1C38.4,48.1,38.4,48.1,38.4,48.1l0.1,3.8c0,0.1,0,0.1-0.1,0.1c-0.2-0.1-0.5-0.2-0.7-0.4
				c-0.2-0.2-0.4-0.4-0.5-0.6c-0.2-0.2-0.3-0.5-0.5-0.7c-0.2-0.2-0.3-0.5-0.4-0.8c-0.2-0.6-0.5-1.3-0.6-2v3.5v0.1v0v0.1
				c0,0.2,0.2,0.4,0.4,0.5v0.1h-0.6h-2.1v-0.1c0.2-0.1,0.4-0.2,0.4-0.5c0,0,0-0.1,0-0.1s0,0,0-0.1v0V37c0-0.2,0-0.3-0.1-0.5
				c-0.1-0.1-0.1-0.2-0.2-0.3c-0.1-0.1-0.2-0.1-0.2-0.2V36h2.2c0.2,0,0.5,0.1,0.8,0.2c0.3,0.1,0.6,0.4,0.9,0.8
				c0.3,0.4,0.5,0.9,0.7,1.7c0.2,0.7,0.3,1.7,0.3,3c0,0.6,0,1.2-0.1,1.7c-0.1,0.5-0.2,0.9-0.3,1.3s-0.2,0.7-0.4,0.9
				c-0.1,0.2-0.3,0.5-0.4,0.6c-0.3,0.4-0.7,0.7-1.2,0.8c0.2,0.7,0.5,1.1,0.7,1.3c0.2,0.2,0.5,0.4,0.7,0.4c0.2,0,0.4-0.1,0.5-0.2
				C38.2,48.3,38.3,48.2,38.4,48.1z M35.7,46.2c0.2,0,0.4,0,0.5-0.1c0.1-0.1,0.2-0.2,0.3-0.2c0.1-0.1,0.1-0.2,0.1-0.3v-8.2
				c0-0.2,0-0.3-0.1-0.3c-0.1-0.1-0.2-0.1-0.3-0.2c-0.1,0-0.3,0-0.4,0L35.7,46.2L35.7,46.2z"/>
		</g>
		<g>
			<path class="st13" d="M41.7,35.9c0.4,0,0.8,0.2,1.1,0.6c0.3,0.4,0.6,1,0.8,1.7s0.4,1.6,0.5,2.5c0.1,1,0.2,2,0.2,3.1
				c0,1.1-0.1,2.2-0.2,3.1c-0.1,1-0.3,1.8-0.5,2.5c-0.2,0.7-0.5,1.3-0.8,1.7c-0.3,0.4-0.7,0.6-1.1,0.6c-0.5,0-0.8-0.2-1.2-0.6
				c-0.3-0.4-0.6-1-0.8-1.7c-0.2-0.7-0.4-1.6-0.5-2.5c-0.1-1-0.2-2-0.2-3.1c0-1.1,0.1-2.2,0.2-3.1c0.1-1,0.3-1.8,0.5-2.5
				c0.2-0.7,0.5-1.3,0.8-1.7C40.9,36.1,41.2,35.9,41.7,35.9z M42.1,37.7c0-0.1,0-0.2-0.1-0.3c-0.1-0.1-0.2-0.2-0.3-0.2
				c-0.1,0-0.2,0.1-0.3,0.2c-0.1,0.1-0.2,0.2-0.2,0.3v12.5c0,0.1,0.1,0.2,0.2,0.3c0.1,0.1,0.2,0.2,0.3,0.2c0.1,0,0.2-0.1,0.3-0.2
				c0.1-0.1,0.1-0.2,0.1-0.3V37.7z"/>
		</g>
		<g>
			<path class="st13" d="M48.8,51.1c0,0.2,0.2,0.4,0.5,0.5v0.1h-2.5v-0.2c0.1-0.1,0.2-0.2,0.2-0.4V51c0,0,0,0,0,0l-0.2-2.2h-1.2
				l-0.1,2.1c0,0,0,0.1,0,0.1c0,0.1,0,0.1,0,0.1c0,0.2,0.2,0.4,0.5,0.5v0.1h-1.7v-0.1c0.2-0.1,0.4-0.2,0.4-0.5v0v0v0l0.6-7.4
				c0.1-0.9,0.2-1.8,0.2-2.7c0.1-0.9,0.1-1.7,0.2-2.4c0.1-0.7,0.1-1.5,0.2-2.3c0,0,0.1-0.1,0.3-0.1c0.2,0,0.4,0,0.6,0s0.4,0,0.6,0
				c0.2,0,0.3,0.1,0.3,0.1c0.1,0.8,0.1,1.6,0.2,2.3c0.1,0.7,0.1,1.5,0.2,2.4c0.1,0.9,0.2,1.8,0.2,2.7c0.2,2.2,0.4,4.6,0.6,7.4
				L48.8,51.1L48.8,51.1z M46.8,48l-0.6-7.1L45.7,48H46.8z"/>
		</g>
	</g>
	<g>
		<g>
			<path class="st13" d="M17.8,47.6C17.8,47.6,17.8,47.6,17.8,47.6C17.8,47.6,17.8,47.6,17.8,47.6l0.1,4.3c0,0.1,0,0.1-0.1,0.1
				c-0.3-0.1-0.5-0.2-0.8-0.4c-0.2-0.2-0.5-0.4-0.6-0.7c-0.2-0.3-0.4-0.5-0.5-0.8s-0.3-0.6-0.4-0.9c-0.3-0.7-0.5-1.4-0.7-2.3v3.9
				v0.1v0V51c0.1,0.3,0.2,0.5,0.5,0.5v0.1h-0.7h-2.3v-0.1c0.3-0.1,0.4-0.3,0.5-0.5c0,0,0-0.1,0-0.1s0,0,0-0.1v0V35.1
				c0-0.2,0-0.4-0.1-0.5c-0.1-0.1-0.1-0.2-0.2-0.3c-0.1-0.1-0.2-0.2-0.3-0.2v-0.1h2.5c0.3,0,0.6,0.1,1,0.2c0.4,0.1,0.7,0.4,1,0.8
				c0.3,0.5,0.6,1.1,0.8,1.9c0.2,0.8,0.3,2,0.3,3.4c0,0.7,0,1.4-0.1,1.9c-0.1,0.5-0.2,1-0.3,1.5c-0.1,0.4-0.3,0.8-0.4,1.1
				c-0.2,0.3-0.3,0.5-0.5,0.7c-0.4,0.5-0.8,0.8-1.3,0.9c0.3,0.8,0.5,1.2,0.8,1.5c0.3,0.3,0.5,0.4,0.8,0.4s0.5-0.1,0.6-0.2
				C17.5,47.8,17.7,47.7,17.8,47.6z M14.7,45.5c0.2,0,0.4,0,0.5-0.1c0.1-0.1,0.2-0.2,0.3-0.3c0.1-0.1,0.1-0.2,0.1-0.4v-9.3
				c0-0.2-0.1-0.3-0.2-0.4c-0.1-0.1-0.2-0.1-0.4-0.2c-0.2,0-0.3-0.1-0.5-0.1L14.7,45.5L14.7,45.5z"/>
		</g>
	</g>
	<g>
		<g>
			<path class="st13" d="M55,42.8c0,1.2-0.1,2.4-0.2,3.4c-0.1,1.1-0.3,2-0.6,2.8c-0.2,0.8-0.5,1.5-0.9,1.9c-0.4,0.5-0.8,0.7-1.3,0.7
				h-0.1h-2.6v-0.1c0.1,0,0.2,0,0.3-0.1c0.1-0.1,0.1-0.2,0.2-0.2c0.1-0.1,0.1-0.2,0.1-0.3V34.9c0,0,0-0.1,0-0.1c0-0.1,0-0.1,0-0.2
				c-0.1-0.3-0.2-0.5-0.5-0.5V34h2.3c0.6,0,1.2,0.2,1.6,0.7s0.8,1.1,1.1,1.9c0.3,0.8,0.5,1.8,0.6,2.8C55,40.5,55,41.6,55,42.8z
				 M52.9,36c0-0.2,0-0.4-0.1-0.5c-0.1-0.1-0.2-0.2-0.3-0.3c-0.1-0.1-0.2-0.1-0.3-0.1c-0.1,0-0.2,0-0.2,0c0,0-0.1,0-0.1,0.1
				c0,0,0,0.1,0,0.1v15.1c0,0.1,0,0.1,0,0.1c0,0.1,0.1,0.1,0.1,0.1c0.1,0,0.2,0,0.2-0.1c0.1-0.1,0.2-0.1,0.3-0.2
				c0.1-0.1,0.2-0.2,0.2-0.3c0.1-0.2,0.1-0.3,0.1-0.5L52.9,36L52.9,36z"/>
		</g>
	</g>
	<g>
		<g>
			<circle class="st13" cx="31.7" cy="42.8" r="1.2"/>
		</g>
	</g>
	<g>
		<g>
			<g>
				<path class="st13" d="M22.2,18.9C22.2,18.9,22.3,18.9,22.2,18.9c0,0.1,0,0.1,0,0.1c0,0.1,0,0.1-0.1,0.1c0,0-0.1,0-0.1-0.1
					c0,0,0,0-0.1-0.1c-0.2-0.2-0.4-0.3-0.6-0.3c-0.2-0.1-0.4-0.1-0.5-0.1h-0.1c0,0.7,0,1.3,0,1.8c0,0.5,0,1.2,0,1.9s0,1.4,0,2.2v5.9
					c0,0,0,0,0,0.1c0,0,0,0.1,0,0.1c0,0.2,0.2,0.3,0.4,0.4v0.1H19v-0.1c0.2-0.1,0.3-0.2,0.4-0.4v-0.1V18.6v-0.1h-0.1
					c-0.1,0-0.3,0-0.5,0.1c-0.2,0.1-0.4,0.2-0.6,0.3c0,0-0.1,0-0.1,0.1c0,0,0,0-0.1,0.1c-0.1,0-0.1,0-0.1-0.1c0,0,0-0.1,0-0.1
					c0,0,0-0.1,0-0.1c0.1-0.1,0.1-0.2,0.2-0.4c0-0.2,0.1-0.4,0.1-0.5c0,0,0-0.1,0-0.1c0,0,0-0.1,0-0.1c0-0.1,0-0.1,0.1-0.1
					c0,0,0.1,0,0.1,0.1c0,0,0.1,0,0.1,0.1c0,0,0.1,0.1,0.2,0.1c0,0,0.1,0,0.2,0c0.1,0,0.3,0,0.4,0c0.2,0,0.3,0,0.5,0
					c0.2,0,0.2,0,0.3,0s0.2,0,0.4,0s0.4,0,0.5,0c0.2,0,0.3,0,0.4,0s0.2,0,0.2,0c0.1,0,0.1-0.1,0.2-0.1c0,0,0.1,0,0.1-0.1
					c0,0,0.1,0,0.1-0.1c0.1,0,0.1,0,0.1,0.1c0,0,0,0.1,0,0.1c0,0,0,0.1,0,0.1c0,0.1,0,0.3,0.1,0.5C22.1,18.6,22.2,18.8,22.2,18.9z"
					/>
			</g>
			<g>
				<path class="st13" d="M26.6,28L26.6,28C26.7,27.9,26.7,28,26.6,28l0.1,3.2c0,0.1,0,0.1-0.1,0.1c-0.2-0.1-0.4-0.2-0.6-0.3
					c-0.2-0.2-0.3-0.3-0.5-0.5c-0.2-0.2-0.3-0.4-0.4-0.6s-0.2-0.4-0.3-0.7c-0.2-0.5-0.4-1-0.5-1.6v2.9v0.1v0v0.1
					c0,0.2,0.2,0.3,0.4,0.4V31h-0.5h-1.7v-0.1c0.2-0.1,0.3-0.2,0.4-0.4c0,0,0,0,0-0.1c0,0,0,0,0-0.1v0V18.7c0-0.2,0-0.3-0.1-0.4
					c0-0.1-0.1-0.2-0.2-0.2c-0.1-0.1-0.1-0.1-0.2-0.2v-0.1h1.8c0.2,0,0.5,0.1,0.7,0.2c0.3,0.1,0.5,0.3,0.8,0.6s0.4,0.8,0.6,1.4
					c0.2,0.6,0.2,1.5,0.2,2.5c0,0.5,0,1-0.1,1.4c-0.1,0.4-0.1,0.8-0.2,1.1c-0.1,0.3-0.2,0.6-0.3,0.8c-0.1,0.2-0.2,0.4-0.4,0.5
					c-0.3,0.3-0.6,0.5-1,0.6c0.2,0.5,0.4,0.9,0.6,1.1c0.2,0.2,0.4,0.3,0.6,0.3c0.2,0,0.3-0.1,0.5-0.2C26.5,28.1,26.6,28,26.6,28z
					 M24.4,26.4c0.2,0,0.3,0,0.4-0.1c0.1-0.1,0.2-0.1,0.2-0.2c0.1-0.1,0.1-0.2,0.1-0.3V19c0-0.1,0-0.2-0.1-0.3
					c-0.1-0.1-0.2-0.1-0.3-0.1c-0.1,0-0.2,0-0.4,0L24.4,26.4L24.4,26.4z"/>
			</g>
			<g>
				<path class="st13" d="M30.6,30.5c0,0.2,0.2,0.3,0.4,0.4V31h-2.1v-0.2c0.1-0.1,0.2-0.2,0.2-0.3v-0.1c0,0,0,0,0,0l-0.2-1.8h-1
					l-0.1,1.8c0,0,0,0,0,0.1c0,0,0,0.1,0,0.1c0,0.2,0.2,0.3,0.4,0.4V31h-1.4v-0.1c0.2-0.1,0.3-0.2,0.4-0.4v0v0v0l0.5-6.2
					c0.1-0.8,0.1-1.5,0.2-2.3c0.1-0.8,0.1-1.4,0.2-2c0.1-0.6,0.1-1.2,0.2-2c0,0,0.1-0.1,0.2-0.1s0.3,0,0.5,0c0.2,0,0.3,0,0.5,0
					s0.2,0.1,0.2,0.1c0.1,0.7,0.1,1.4,0.2,2c0.1,0.6,0.1,1.2,0.2,2c0.1,0.7,0.1,1.5,0.2,2.3C30.2,26,30.4,28.1,30.6,30.5L30.6,30.5
					L30.6,30.5z M28.9,27.9L28.4,22L28,27.9H28.9z"/>
			</g>
			<g>
				<path class="st13" d="M34.8,26.4c0,0.2,0,0.3,0.1,0.5c0,0.2,0,0.3,0,0.5c0,0.3,0,0.7-0.1,1s-0.1,0.7-0.2,1
					c-0.1,0.3-0.2,0.6-0.3,0.9c-0.2,0.3-0.4,0.5-0.6,0.7c-0.3,0.2-0.5,0.2-0.9,0.2c-0.1,0-0.3-0.1-0.4-0.2c-0.2-0.1-0.3-0.2-0.4-0.3
					c-0.1-0.1-0.2-0.2-0.3-0.4c-0.1-0.1-0.2-0.3-0.2-0.4c-0.1-0.1-0.1-0.2-0.2-0.4c-0.1-0.2-0.1-0.3-0.2-0.5c0-0.1,0-0.1-0.1-0.2
					c0-0.1,0-0.2-0.1-0.3s-0.1-0.2-0.1-0.3c0-0.1,0-0.2,0-0.2V28c0,0,0.1-0.1,0.2-0.1c0.1-0.1,0.2-0.2,0.4-0.2
					c0.2-0.1,0.3-0.2,0.5-0.2c0.2-0.1,0.3-0.1,0.4-0.2l0,0c0,0,0,0,0.1,0c0,0,0.1,0,0.1,0s0,0.1,0,0.2c0,0.1,0,0.1,0,0.1
					c0,0.1,0,0.2,0,0.4c0,0.1,0,0.2,0,0.3c0,0.1,0,0.2,0,0.4c0,0.2,0,0.4,0,0.5c0,0.2,0,0.4,0,0.6s0.1,0.3,0.1,0.4
					c0,0.1,0.1,0.1,0.1,0.2c0,0.1,0.1,0.1,0.2,0.1c0.1,0,0.3,0,0.4-0.1c0.1-0.1,0.2-0.2,0.2-0.4s0.1-0.3,0.1-0.5c0-0.1,0-0.3,0-0.5
					s0-0.4,0-0.6s0-0.4,0-0.6c0-0.2,0-0.3,0-0.4c0-0.2-0.1-0.3-0.1-0.5c0-0.2-0.1-0.3-0.1-0.5c-0.1-0.2-0.1-0.3-0.2-0.5
					s-0.2-0.3-0.2-0.5c-0.1-0.3-0.3-0.6-0.5-0.9c-0.2-0.3-0.3-0.6-0.5-0.9c-0.1-0.1-0.1-0.3-0.2-0.4c-0.1-0.1-0.1-0.3-0.2-0.4
					c-0.1-0.1-0.1-0.3-0.2-0.4s-0.1-0.3-0.1-0.4c-0.1-0.3-0.1-0.6-0.2-0.9s-0.1-0.6,0-0.9c0-0.3,0.1-0.6,0.1-0.8
					c0-0.3,0.1-0.5,0.3-0.8c0.2-0.2,0.3-0.4,0.5-0.6c0.2-0.2,0.5-0.3,0.8-0.3c0.3,0,0.5,0.1,0.8,0.2c0.2,0.2,0.4,0.4,0.6,0.6
					c0.1,0.1,0.2,0.3,0.2,0.4c0.1,0.2,0.1,0.3,0.2,0.5c0,0.1,0,0.2,0.1,0.2c0,0.1,0,0.2,0,0.2c0,0.1,0,0.2,0,0.3
					c0,0-0.1,0.1-0.2,0.1c-0.1,0-0.2,0.1-0.3,0.2s-0.3,0.1-0.4,0.2c-0.1,0.1-0.2,0.1-0.4,0.2C33.1,21,33.1,21,33,21
					C33,21,33,21,33,20.9c0-0.1,0-0.1,0-0.2c0-0.1,0-0.1,0.1-0.2c0-0.1,0-0.2,0.1-0.3s0-0.2,0-0.3c0-0.1,0-0.2,0-0.2
					c0-0.1,0-0.3,0-0.5c0-0.2-0.1-0.3-0.2-0.5c0-0.1-0.1-0.1-0.1-0.1c-0.1,0-0.1-0.1-0.2,0c-0.1,0-0.2,0.1-0.3,0.3
					c0,0.1-0.1,0.1-0.1,0.2c0,0.1,0,0.2,0,0.3c0,0.1,0,0.2,0,0.3s0,0.2,0,0.2c0,0.2,0,0.3,0,0.5c0,0.2,0,0.3,0.1,0.5
					c0,0.1,0.1,0.2,0.2,0.4s0.1,0.3,0.2,0.5c0.1,0.2,0.2,0.4,0.2,0.5s0.1,0.3,0.2,0.4c0.1,0.2,0.2,0.3,0.3,0.5
					c0.1,0.2,0.2,0.3,0.3,0.5c0.2,0.3,0.3,0.6,0.5,0.9c0.2,0.3,0.3,0.6,0.4,1c0.1,0.2,0.1,0.3,0.1,0.5C34.7,26,34.7,26.2,34.8,26.4z
					"/>
			</g>
			<g>
				<path class="st13" d="M37.8,22.2c0.5,0.3,0.9,0.9,1.2,1.6c0.2,0.8,0.4,1.6,0.4,2.6c0,0.6,0,1.2-0.1,1.8c-0.1,0.5-0.2,1-0.4,1.5
					s-0.4,0.8-0.7,1c-0.3,0.2-0.6,0.4-1.1,0.4H37h-1.9v-0.1c0.2,0,0.3-0.1,0.3-0.2c0-0.1,0-0.1,0-0.2V18.3c0-0.1,0-0.1-0.1-0.2
					c0-0.1-0.1-0.1-0.1-0.1C35.2,18,35.1,18,35,18v0h1.8c0.3,0,0.6,0,0.9,0.1c0.3,0,0.5,0.2,0.7,0.3s0.4,0.4,0.5,0.7
					c0.1,0.3,0.2,0.7,0.2,1.2c0,0.3,0,0.6-0.1,0.9s-0.2,0.4-0.3,0.6c-0.1,0.2-0.3,0.3-0.4,0.4C38.1,22.1,38,22.1,37.8,22.2z
					 M37.8,18.8c0-0.1-0.1-0.2-0.2-0.2s-0.3-0.1-0.5-0.1c0,0,0,0-0.1,0h0l0,0v3.1v0c0,0,0,0,0.1,0c0.2,0,0.4,0,0.5-0.1
					c0.1-0.1,0.2-0.2,0.2-0.3L37.8,18.8L37.8,18.8z M37.8,23c0-0.2-0.1-0.3-0.2-0.4c-0.2-0.1-0.3-0.1-0.5-0.1c0,0,0,0-0.1,0l0,0l0,0
					v7.7c0,0,0,0,0,0.1c0,0.1,0,0.1,0.1,0.1c0,0,0.1,0,0.2,0c0.1,0,0.2-0.1,0.2-0.1s0.2-0.1,0.2-0.2s0.1-0.2,0.1-0.3
					C37.8,29.9,37.8,23,37.8,23z"/>
			</g>
			<g>
				<path class="st13" d="M44.2,17.9L44.2,17.9c-0.2,0.2-0.3,0.3-0.4,0.5v0.1v9.6c0,0.4,0,0.8-0.1,1.2c-0.1,0.4-0.2,0.7-0.3,0.9
					s-0.3,0.5-0.6,0.6c-0.2,0.2-0.5,0.2-0.9,0.2c-0.1,0-0.1,0-0.2,0s-0.2,0-0.2,0c-0.1,0-0.2-0.1-0.4-0.1c-0.2-0.1-0.4-0.2-0.5-0.5
					c-0.2-0.2-0.4-0.6-0.5-1.1c-0.2-0.5-0.2-1.1-0.2-1.9v-0.2v-0.1c0-0.3,0-0.8,0-1.4s0-1.2,0-1.8c0-0.6,0-1.3,0-1.9
					c0-0.6,0-1.2,0-1.8s0-1,0-1.3c0-0.4,0-0.5,0-0.6c0-0.1-0.1-0.2-0.1-0.3S39.7,18,39.6,18v-0.1h2.2V18c-0.1,0-0.2,0.1-0.2,0.2
					c-0.1,0.1-0.1,0.2-0.1,0.3c0,0,0,0,0,0.1v0v9c0,0.2,0,0.5,0,0.8c0,0.3,0.1,0.5,0.1,0.7c0.1,0.2,0.2,0.4,0.3,0.5s0.3,0.2,0.5,0.2
					c0.2,0,0.4-0.1,0.5-0.3c0.1-0.2,0.2-0.4,0.2-0.6c0.1-0.3,0.1-0.5,0.1-0.9v-9.3c0,0,0,0,0-0.1c0,0,0-0.1,0-0.1
					c0-0.2-0.2-0.3-0.4-0.4v-0.1H44.2z"/>
			</g>
			<g>
				<path class="st13" d="M48.3,28L48.3,28C48.4,27.9,48.4,28,48.3,28l0.1,3.2c0,0.1,0,0.1-0.1,0.1c-0.2-0.1-0.4-0.2-0.6-0.3
					s-0.3-0.3-0.5-0.5c-0.1-0.2-0.3-0.4-0.4-0.6c-0.1-0.2-0.2-0.4-0.3-0.7c-0.2-0.5-0.4-1.1-0.5-1.7v2.9v0.1v0v0.1
					c0,0.2,0.2,0.3,0.4,0.4V31H46h-1.7v-0.1c0.2-0.1,0.3-0.2,0.4-0.4c0,0,0,0,0-0.1c0,0,0,0,0-0.1v0V18.7c0-0.2,0-0.3-0.1-0.4
					s-0.1-0.2-0.2-0.2c-0.1-0.1-0.1-0.1-0.2-0.2v-0.1H46c0.2,0,0.5,0.1,0.7,0.2c0.3,0.1,0.5,0.3,0.8,0.6s0.4,0.8,0.6,1.4
					c0.2,0.6,0.2,1.5,0.2,2.5c0,0.5,0,1-0.1,1.4c-0.1,0.4-0.1,0.8-0.2,1.1c-0.1,0.3-0.2,0.6-0.3,0.8s-0.2,0.4-0.4,0.5
					c-0.3,0.3-0.6,0.5-1,0.6c0.2,0.5,0.4,0.9,0.6,1.1c0.2,0.2,0.4,0.3,0.6,0.3c0.2,0,0.3-0.1,0.5-0.2C48.2,28.1,48.3,28,48.3,28z
					 M46.1,26.4c0.2,0,0.3,0,0.4-0.1c0.1-0.1,0.2-0.1,0.2-0.2c0.1-0.1,0.1-0.2,0.1-0.3V19c0-0.1,0-0.2-0.1-0.3
					c-0.1-0.1-0.2-0.1-0.3-0.1c-0.1,0-0.2,0-0.4,0L46.1,26.4L46.1,26.4z"/>
			</g>
		</g>
		<g>
			<g>
				<path class="st13" d="M17.7,26c0,0.2,0.1,0.5,0.1,0.7c0,0.2,0,0.4,0,0.7c0,0.5,0,0.9-0.1,1.4c0,0.5-0.1,0.9-0.2,1.4
					c-0.1,0.4-0.2,0.8-0.5,1.2c-0.2,0.4-0.5,0.7-0.8,0.9c-0.4,0.2-0.7,0.3-1.2,0.3c-0.2,0-0.4-0.1-0.6-0.2c-0.2-0.1-0.4-0.2-0.5-0.4
					c-0.2-0.2-0.3-0.3-0.4-0.5c-0.1-0.2-0.2-0.4-0.3-0.5c-0.1-0.1-0.1-0.3-0.2-0.5c-0.1-0.2-0.1-0.4-0.2-0.6c0-0.1,0-0.2-0.1-0.3
					c0-0.2-0.1-0.3-0.1-0.4c0-0.2-0.1-0.3-0.1-0.4c0-0.1-0.1-0.2-0.1-0.2v-0.2c0,0,0.1-0.1,0.3-0.2c0.2-0.1,0.3-0.2,0.5-0.3
					c0.2-0.1,0.4-0.2,0.6-0.3c0.2-0.1,0.4-0.2,0.5-0.2c0,0,0,0,0.1,0s0,0,0.1,0c0.1,0,0.1,0,0.1,0.1c0,0.1,0,0.1,0,0.2
					c0,0.1,0,0.1,0,0.2c0,0.1,0,0.3-0.1,0.5s0,0.3,0,0.4c0,0.1,0,0.3,0,0.5c0,0.2,0,0.5,0,0.8c0,0.3,0,0.5,0,0.8
					c0,0.2,0.1,0.4,0.1,0.5c0,0.1,0.1,0.2,0.2,0.2c0.1,0.1,0.1,0.1,0.2,0.2c0.2,0.1,0.3,0,0.5-0.2c0.1-0.2,0.2-0.3,0.3-0.5
					c0-0.2,0.1-0.4,0.1-0.6c0-0.2,0-0.4,0-0.6c0-0.2,0-0.5,0-0.8c0-0.3,0-0.5,0-0.8c0-0.2,0-0.4-0.1-0.5c0-0.2-0.1-0.5-0.1-0.7
					c0-0.2-0.1-0.5-0.2-0.7c-0.1-0.2-0.2-0.5-0.2-0.7c-0.1-0.2-0.2-0.4-0.3-0.6c-0.2-0.4-0.4-0.8-0.6-1.2c-0.2-0.4-0.5-0.8-0.7-1.2
					c-0.1-0.2-0.2-0.4-0.2-0.5s-0.2-0.4-0.2-0.5c-0.1-0.2-0.2-0.4-0.2-0.6c-0.1-0.2-0.1-0.4-0.2-0.6c-0.1-0.4-0.2-0.8-0.2-1.2
					c0-0.5,0-0.8,0-1.2c0-0.4,0.1-0.8,0.1-1.2c0.1-0.4,0.2-0.8,0.4-1.1c0.2-0.3,0.5-0.6,0.7-0.8c0.3-0.2,0.6-0.4,1-0.4
					c0.4,0,0.8,0.1,1.1,0.3c0.3,0.2,0.6,0.5,0.8,0.8c0.1,0.2,0.2,0.4,0.3,0.6c0.1,0.2,0.2,0.4,0.2,0.6c0,0.1,0.1,0.2,0.1,0.3
					c0,0.1,0,0.2,0.1,0.3c0,0.2,0,0.3,0,0.3c0,0-0.1,0.1-0.2,0.2c-0.1,0.1-0.2,0.1-0.4,0.2s-0.3,0.2-0.5,0.3
					c-0.2,0.1-0.3,0.2-0.5,0.2c-0.2,0.1-0.2,0.1-0.2,0.1c-0.1,0-0.1-0.1-0.1-0.1c0-0.1,0-0.1,0.1-0.2c0-0.1,0-0.2,0.1-0.3
					c0-0.1,0.1-0.3,0.1-0.5c0.1-0.1,0.1-0.3,0.1-0.4c0-0.2,0-0.2,0-0.3c0-0.2,0-0.4,0-0.6s-0.1-0.4-0.2-0.6c0-0.1-0.1-0.1-0.2-0.2
					c-0.1-0.1-0.2-0.1-0.2-0.1c-0.2,0-0.3,0.1-0.4,0.4c0,0.1-0.1,0.2-0.1,0.3c0,0.1,0,0.2-0.1,0.4c0,0.1,0,0.3,0,0.4
					c0,0.1,0,0.2,0,0.3c0,0.2,0,0.4,0,0.7c0,0.2,0.1,0.5,0.1,0.7c0.1,0.2,0.1,0.3,0.2,0.6c0.1,0.2,0.2,0.5,0.3,0.7
					c0.1,0.2,0.2,0.5,0.3,0.7c0.1,0.2,0.2,0.4,0.3,0.5c0.1,0.2,0.2,0.4,0.4,0.6c0.1,0.2,0.2,0.4,0.3,0.6c0.2,0.4,0.5,0.8,0.7,1.2
					c0.2,0.4,0.4,0.8,0.5,1.3c0.1,0.2,0.1,0.4,0.2,0.6C17.6,25.5,17.7,25.8,17.7,26z"/>
			</g>
		</g>
		<g>
			<g>
				<path class="st13" d="M54.3,23.1v8.2v0.2c0.1,0.3,0.2,0.5,0.5,0.5v0.1h-1.7h-0.4h-0.1h0.1h-0.1h-0.2h0c-0.6,0-1.1-0.2-1.5-0.7
					c-0.5-0.5-0.8-1.1-1.1-1.9c-0.3-0.8-0.5-1.8-0.7-2.9c-0.2-1.1-0.2-2.3-0.2-3.5s0.1-2.4,0.2-3.5c0.1-1.1,0.3-2.1,0.5-2.9
					c0.2-0.8,0.6-1.5,0.9-1.9c0.4-0.5,0.8-0.7,1.3-0.7c0.4,0,0.8,0.2,1,0.4c0.3,0.3,0.5,0.6,0.7,0.9c0.2,0.3,0.3,0.7,0.4,1
					c0.1,0.3,0.1,0.5,0.2,0.6c0.1,0.1,0,0.1-0.1,0.2c-0.1,0.1-0.2,0.2-0.4,0.2c-0.2,0.1-0.3,0.2-0.5,0.2c-0.2,0.1-0.3,0.2-0.5,0.2
					c-0.2,0.1-0.2,0.1-0.2,0.1c0,0-0.1,0-0.1,0c0,0-0.1-0.1-0.1-0.1c0-0.1,0-0.1,0.1-0.2c0-0.1,0-0.1,0-0.2c0.1-0.5,0.1-0.8,0.1-1
					c0-0.2,0-0.4,0-0.5c0,0,0-0.1,0-0.2c0-0.1-0.1-0.2-0.1-0.3s-0.1-0.2-0.2-0.2c-0.1-0.1-0.2-0.1-0.3-0.1c-0.1,0-0.2,0.1-0.4,0.2
					c-0.1,0.1-0.2,0.2-0.2,0.4v14.9c0,0.1,0.1,0.2,0.2,0.4c0.1,0.1,0.2,0.2,0.4,0.2c0.3,0,0.5-0.1,0.5-0.4v-7.5c0,0,0-0.1,0-0.1
					s0-0.1,0-0.1c-0.1-0.3-0.2-0.5-0.5-0.5v-0.1h2.1h0.5h0.5v0.1c-0.3,0.1-0.4,0.3-0.5,0.5L54.3,23.1L54.3,23.1z"/>
			</g>
		</g>
	</g>
	<g>
		<g>
			<path class="st14" d="M21.9,18.6C21.9,18.6,22,18.6,21.9,18.6c0,0.1,0,0.1,0,0.1c0,0.1,0,0.1-0.1,0.1c0,0-0.1,0-0.1-0.1
				c0,0,0,0-0.1-0.1c-0.2-0.2-0.4-0.3-0.6-0.3c-0.2-0.1-0.4-0.1-0.5-0.1h-0.1c0,0.7,0,1.3,0,1.8s0,1.2,0,1.9s0,1.4,0,2.2V30
				c0,0,0,0,0,0.1c0,0,0,0.1,0,0.1c0,0.2,0.2,0.3,0.4,0.4v0.1h-2.2v-0.1c0.2-0.1,0.3-0.2,0.4-0.4V30V18.3v-0.1H19
				c-0.1,0-0.3,0-0.5,0.1c-0.2,0.1-0.4,0.2-0.6,0.3c0,0-0.1,0-0.1,0.1s0,0-0.1,0.1c-0.1,0-0.1,0-0.1-0.1c0,0,0-0.1,0-0.1
				c0,0,0-0.1,0-0.1c0.1-0.1,0.1-0.2,0.2-0.4c0-0.2,0.1-0.4,0.1-0.5c0,0,0-0.1,0-0.1c0,0,0-0.1,0-0.1c0-0.1,0-0.1,0.1-0.1
				c0,0,0.1,0,0.1,0.1c0,0,0.1,0,0.1,0.1c0,0,0.1,0.1,0.2,0.1c0,0,0.1,0,0.2,0c0.1,0,0.3,0,0.4,0c0.2,0,0.3,0,0.5,0s0.2,0,0.3,0
				c0.1,0,0.2,0,0.4,0s0.4,0,0.5,0c0.2,0,0.3,0,0.4,0c0.2,0,0.2,0,0.2,0c0.1,0,0.1-0.1,0.2-0.1c0,0,0.1,0,0.1-0.1c0,0,0.1,0,0.1-0.1
				c0.1,0,0.1,0,0.1,0.1c0,0,0,0.1,0,0.1s0,0.1,0,0.1c0,0.1,0,0.3,0.1,0.5C21.8,18.3,21.9,18.5,21.9,18.6z"/>
		</g>
		<g>
			<path class="st14" d="M26.3,27.7L26.3,27.7C26.4,27.6,26.4,27.7,26.3,27.7l0.1,3.2c0,0.1,0,0.1-0.1,0.1c-0.2-0.1-0.4-0.2-0.6-0.3
				c-0.2-0.2-0.3-0.3-0.5-0.5c-0.2-0.2-0.3-0.4-0.4-0.6c-0.1-0.2-0.2-0.4-0.3-0.7c-0.2-0.5-0.4-1-0.5-1.6V30v0.1v0v0.1
				c0,0.2,0.2,0.3,0.4,0.4v0.1H24h-1.7v-0.1c0.2-0.1,0.3-0.2,0.4-0.4c0,0,0,0,0-0.1c0,0,0,0,0-0.1v0V18.4c0-0.2,0-0.3-0.1-0.4
				c0-0.1-0.1-0.2-0.2-0.2s-0.1-0.1-0.2-0.2v-0.1H24c0.2,0,0.5,0.1,0.7,0.2c0.3,0.1,0.5,0.3,0.8,0.6c0.2,0.3,0.4,0.8,0.6,1.4
				c0.2,0.6,0.2,1.5,0.2,2.5c0,0.5,0,1-0.1,1.4c-0.1,0.4-0.1,0.8-0.2,1.1c-0.1,0.3-0.2,0.6-0.3,0.8c-0.1,0.2-0.2,0.4-0.4,0.5
				c-0.3,0.3-0.6,0.5-1,0.6c0.2,0.5,0.4,0.9,0.6,1.1s0.4,0.3,0.6,0.3s0.3-0.1,0.5-0.2C26.2,27.8,26.3,27.7,26.3,27.7z M24.1,26.1
				c0.2,0,0.3,0,0.4-0.1c0.1-0.1,0.2-0.1,0.2-0.2c0.1-0.1,0.1-0.2,0.1-0.3v-6.9c0-0.1,0-0.2-0.1-0.3c-0.1-0.1-0.2-0.1-0.3-0.1
				c-0.1,0-0.2,0-0.4,0L24.1,26.1L24.1,26.1z"/>
		</g>
		<g>
			<path class="st14" d="M30.3,30.2c0,0.2,0.2,0.3,0.4,0.4v0.1h-2.1v-0.2c0.1-0.1,0.2-0.2,0.2-0.3v-0.1c0,0,0,0,0,0l-0.2-1.8h-1
				L27.5,30c0,0,0,0,0,0.1c0,0,0,0.1,0,0.1c0,0.2,0.2,0.3,0.4,0.4v0.1h-1.4v-0.1c0.2-0.1,0.3-0.2,0.4-0.4v0v0v0l0.5-6.2
				c0.1-0.8,0.1-1.5,0.2-2.3c0.1-0.8,0.1-1.4,0.2-2c0.1-0.6,0.1-1.2,0.2-2c0,0,0.1-0.1,0.2-0.1c0.2,0,0.3,0,0.5,0c0.2,0,0.3,0,0.5,0
				c0.2,0,0.2,0.1,0.2,0.1c0.1,0.7,0.1,1.4,0.2,2c0.1,0.6,0.1,1.2,0.2,2c0.1,0.7,0.1,1.5,0.2,2.3C29.9,25.7,30.1,27.8,30.3,30.2
				L30.3,30.2L30.3,30.2z M28.6,27.6l-0.5-5.9l-0.4,5.9H28.6z"/>
		</g>
		<g>
			<path class="st14" d="M34.5,26.1c0,0.2,0,0.3,0.1,0.5c0,0.2,0,0.3,0,0.5c0,0.3,0,0.7-0.1,1c0,0.3-0.1,0.7-0.2,1
				c-0.1,0.3-0.2,0.6-0.3,0.9c-0.2,0.3-0.4,0.5-0.6,0.7c-0.3,0.2-0.5,0.2-0.9,0.2c-0.1,0-0.3-0.1-0.4-0.2c-0.2-0.1-0.3-0.2-0.4-0.3
				c-0.1-0.1-0.2-0.2-0.3-0.4c-0.1-0.1-0.2-0.3-0.2-0.4c-0.1-0.1-0.1-0.2-0.2-0.4s-0.1-0.3-0.2-0.5c0-0.1,0-0.1-0.1-0.2
				c0-0.1,0-0.2-0.1-0.3c0-0.1-0.1-0.2-0.1-0.3c0-0.1,0-0.2,0-0.2v-0.1c0,0,0.1-0.1,0.2-0.1c0.1-0.1,0.2-0.2,0.4-0.2
				c0.2-0.1,0.3-0.2,0.5-0.2c0.2-0.1,0.3-0.1,0.4-0.2l0,0c0,0,0,0,0.1,0c0,0,0.1,0,0.1,0c0,0,0,0.1,0,0.2c0,0.1,0,0.1,0,0.1
				c0,0.1,0,0.2,0,0.4c0,0.1,0,0.2,0,0.3c0,0.1,0,0.2,0,0.4c0,0.2,0,0.4,0,0.5c0,0.2,0,0.4,0,0.6c0,0.2,0.1,0.3,0.1,0.4
				c0,0.1,0.1,0.1,0.1,0.2c0,0.1,0.1,0.1,0.2,0.1c0.1,0,0.3,0,0.4-0.1c0.1-0.1,0.2-0.2,0.2-0.4c0-0.2,0.1-0.3,0.1-0.5
				c0-0.1,0-0.3,0-0.5s0-0.4,0-0.6s0-0.4,0-0.6c0-0.2,0-0.3,0-0.4c0-0.2-0.1-0.3-0.1-0.5c0-0.2-0.1-0.3-0.1-0.5
				c-0.1-0.2-0.1-0.3-0.2-0.5s-0.2-0.3-0.2-0.5c-0.1-0.3-0.3-0.6-0.5-0.9c-0.2-0.3-0.3-0.6-0.5-0.9c-0.1-0.1-0.1-0.3-0.2-0.4
				c-0.1-0.1-0.1-0.3-0.2-0.4c-0.1-0.1-0.1-0.3-0.2-0.4s-0.1-0.3-0.1-0.4c-0.1-0.3-0.1-0.6-0.2-0.9c-0.1-0.3-0.1-0.6,0-0.9
				c0-0.3,0.1-0.6,0.1-0.8c0-0.3,0.1-0.5,0.3-0.8c0.2-0.2,0.3-0.4,0.5-0.6s0.5-0.3,0.8-0.3s0.5,0.1,0.8,0.2c0.2,0.2,0.4,0.4,0.6,0.6
				c0.1,0.1,0.2,0.3,0.2,0.4c0.1,0.2,0.1,0.3,0.2,0.5c0,0.1,0,0.2,0.1,0.2c0,0.1,0,0.2,0,0.2c0,0.1,0,0.2,0,0.3c0,0-0.1,0.1-0.2,0.1
				c-0.1,0-0.2,0.1-0.3,0.2s-0.3,0.1-0.4,0.2c-0.1,0.1-0.2,0.1-0.4,0.2c-0.1,0.1-0.2,0.1-0.2,0.1c-0.1,0-0.1,0-0.1-0.1s0-0.1,0-0.2
				c0-0.1,0-0.1,0.1-0.2c0-0.1,0-0.2,0.1-0.3s0-0.2,0-0.3s0-0.2,0-0.2c0-0.1,0-0.3,0-0.5c0-0.2-0.1-0.3-0.2-0.5
				c0-0.1-0.1-0.1-0.1-0.1c-0.1,0-0.1-0.1-0.2,0c-0.1,0-0.2,0.1-0.3,0.3c0,0.1-0.1,0.1-0.1,0.2c0,0.1,0,0.2,0,0.3s0,0.2,0,0.3
				c0,0.1,0,0.2,0,0.2c0,0.2,0,0.3,0,0.5c0,0.2,0,0.3,0.1,0.5c0,0.1,0.1,0.2,0.2,0.4c0.1,0.2,0.1,0.3,0.2,0.5
				c0.1,0.2,0.2,0.4,0.2,0.5s0.1,0.3,0.2,0.4c0.1,0.2,0.2,0.3,0.3,0.5s0.2,0.3,0.3,0.5c0.2,0.3,0.3,0.6,0.5,0.9
				c0.2,0.3,0.3,0.6,0.4,1c0.1,0.2,0.1,0.3,0.1,0.5C34.4,25.7,34.4,25.9,34.5,26.1z"/>
		</g>
		<g>
			<path class="st14" d="M37.5,21.9c0.5,0.3,0.9,0.9,1.2,1.6c0.2,0.8,0.4,1.6,0.4,2.6c0,0.6,0,1.2-0.1,1.8c-0.1,0.5-0.2,1-0.4,1.5
				c-0.2,0.4-0.4,0.8-0.7,1c-0.3,0.2-0.6,0.4-1.1,0.4h-0.1h-1.9v-0.1c0.2,0,0.3-0.1,0.3-0.2c0-0.1,0-0.1,0-0.2V18
				c0-0.1,0-0.1-0.1-0.2c0-0.1-0.1-0.1-0.1-0.1c-0.1,0-0.1-0.1-0.2-0.1v0h1.8c0.3,0,0.6,0,0.9,0.1c0.3,0,0.5,0.2,0.7,0.3
				c0.2,0.2,0.4,0.4,0.5,0.7c0.1,0.3,0.2,0.7,0.2,1.2c0,0.3,0,0.6-0.1,0.9c-0.1,0.2-0.2,0.4-0.3,0.6c-0.1,0.2-0.3,0.3-0.4,0.4
				C37.8,21.8,37.7,21.8,37.5,21.9z M37.5,18.5c0-0.1-0.1-0.2-0.2-0.2c-0.2-0.1-0.3-0.1-0.5-0.1c0,0,0,0-0.1,0h0l0,0v3.1v0
				c0,0,0,0,0.1,0c0.2,0,0.4,0,0.5-0.1c0.1-0.1,0.2-0.2,0.2-0.3L37.5,18.5L37.5,18.5z M37.5,22.7c0-0.2-0.1-0.3-0.2-0.4
				c-0.2-0.1-0.3-0.1-0.5-0.1c0,0,0,0-0.1,0l0,0l0,0V30c0,0,0,0,0,0.1c0,0.1,0,0.1,0.1,0.1c0,0,0.1,0,0.2,0c0.1,0,0.2-0.1,0.2-0.1
				c0.1,0,0.2-0.1,0.2-0.2s0.1-0.2,0.1-0.3C37.5,29.6,37.5,22.7,37.5,22.7z"/>
		</g>
		<g>
			<path class="st14" d="M43.9,17.6L43.9,17.6c-0.2,0.2-0.3,0.3-0.4,0.5v0.1v9.6c0,0.4,0,0.8-0.1,1.2c-0.1,0.4-0.2,0.7-0.3,0.9
				c-0.2,0.2-0.3,0.5-0.6,0.6c-0.2,0.2-0.5,0.2-0.9,0.2c-0.1,0-0.1,0-0.2,0c-0.1,0-0.2,0-0.2,0c-0.1,0-0.2-0.1-0.4-0.1
				c-0.2-0.1-0.4-0.2-0.5-0.5c-0.2-0.2-0.4-0.6-0.5-1.1c-0.2-0.5-0.2-1.1-0.2-1.9V27v-0.1c0-0.3,0-0.8,0-1.4s0-1.2,0-1.8
				s0-1.3,0-1.9c0-0.6,0-1.2,0-1.8c0-0.5,0-1,0-1.3c0-0.4,0-0.5,0-0.6c0-0.1-0.1-0.2-0.1-0.3c-0.1-0.1-0.1-0.1-0.2-0.2v-0.1h2.2v0.1
				c-0.1,0-0.2,0.1-0.2,0.2c-0.1,0.1-0.1,0.2-0.1,0.3c0,0,0,0,0,0.1v0v9c0,0.2,0,0.5,0,0.8c0,0.3,0.1,0.5,0.1,0.7
				c0.1,0.2,0.2,0.4,0.3,0.5c0.1,0.1,0.3,0.2,0.5,0.2c0.2,0,0.4-0.1,0.5-0.3c0.1-0.2,0.2-0.4,0.2-0.6c0.1-0.3,0.1-0.5,0.1-0.9v-9.3
				c0,0,0,0,0-0.1c0,0,0-0.1,0-0.1c0-0.2-0.2-0.3-0.4-0.4v-0.1H43.9z"/>
		</g>
		<g>
			<path class="st14" d="M48,27.7L48,27.7C48.1,27.6,48.1,27.7,48,27.7l0.1,3.2c0,0.1,0,0.1-0.1,0.1c-0.2-0.1-0.4-0.2-0.6-0.3
				c-0.2-0.2-0.3-0.3-0.5-0.5s-0.3-0.4-0.4-0.6c-0.1-0.2-0.2-0.4-0.3-0.7c-0.2-0.5-0.4-1.1-0.5-1.7V30v0.1v0v0.1
				c0,0.2,0.2,0.3,0.4,0.4v0.1h-0.5h-1.7v-0.1c0.2-0.1,0.3-0.2,0.4-0.4c0,0,0,0,0-0.1c0,0,0,0,0-0.1v0V18.4c0-0.2,0-0.3-0.1-0.4
				s-0.1-0.2-0.2-0.2s-0.1-0.1-0.2-0.2v-0.1h1.8c0.2,0,0.5,0.1,0.7,0.2c0.3,0.1,0.5,0.3,0.8,0.6c0.2,0.3,0.4,0.8,0.6,1.4
				c0.2,0.6,0.2,1.5,0.2,2.5c0,0.5,0,1-0.1,1.4c-0.1,0.4-0.1,0.8-0.2,1.1c-0.1,0.3-0.2,0.6-0.3,0.8c-0.1,0.2-0.2,0.4-0.4,0.5
				c-0.3,0.3-0.6,0.5-1,0.6c0.2,0.5,0.4,0.9,0.6,1.1s0.4,0.3,0.6,0.3c0.2,0,0.3-0.1,0.5-0.2C47.9,27.8,48,27.7,48,27.7z M45.8,26.1
				c0.2,0,0.3,0,0.4-0.1c0.1-0.1,0.2-0.1,0.2-0.2c0.1-0.1,0.1-0.2,0.1-0.3v-6.9c0-0.1,0-0.2-0.1-0.3c-0.1-0.1-0.2-0.1-0.3-0.1
				c-0.1,0-0.2,0-0.4,0L45.8,26.1L45.8,26.1z"/>
		</g>
	</g>
	<g>
		<g>
			<path class="st14" d="M22.1,50.8c0,0.2,0.2,0.4,0.5,0.5v0.1h-2.5v-0.2c0.1-0.1,0.2-0.2,0.2-0.4v-0.1c0,0,0,0,0,0l-0.2-2.2h-1.2
				l-0.1,2.1c0,0,0,0.1,0,0.1c0,0.1,0,0.1,0,0.1c0,0.2,0.2,0.4,0.5,0.5v0.1h-1.7v-0.1c0.2-0.1,0.4-0.2,0.4-0.5v0v0v0l0.6-7.4
				c0.1-0.9,0.2-1.8,0.2-2.7c0.1-0.9,0.1-1.7,0.2-2.4c0.1-0.7,0.1-1.5,0.2-2.3c0,0,0.1-0.1,0.3-0.1c0.2,0,0.4,0,0.6,0
				c0.2,0,0.4,0,0.6,0c0.2,0,0.3,0.1,0.3,0.1c0.1,0.8,0.1,1.6,0.2,2.3c0.1,0.7,0.1,1.5,0.2,2.4c0.1,0.9,0.2,1.8,0.2,2.7
				c0.2,2.2,0.4,4.6,0.6,7.4L22.1,50.8L22.1,50.8z M20.1,47.7l-0.6-7.1L19,47.7H20.1z"/>
		</g>
		<g>
			<path class="st14" d="M25.1,36.5l0,14.2c0,0,0,0,0,0.1c0,0,0,0.1,0,0.1c0,0.2,0.2,0.4,0.4,0.5v0.1h-2.7v-0.1
				c0.2-0.1,0.4-0.2,0.4-0.5v-0.1c0,0,0,0,0,0V36.5c0,0,0,0,0-0.1c0,0,0-0.1,0-0.1c0-0.2-0.2-0.4-0.4-0.5v-0.1h2.7v0.1
				c-0.2,0.1-0.4,0.2-0.4,0.5V36.5z"/>
		</g>
		<g>
			<path class="st14" d="M29.7,49.9C29.7,49.9,29.8,49.9,29.7,49.9c0.1,0.2,0.1,0.2,0,0.3c0,0-0.1,0.1-0.1,0.2
				c0,0.1-0.1,0.2-0.1,0.4c0,0.1-0.1,0.3-0.1,0.4c0,0.1-0.1,0.2-0.1,0.3c0,0,0,0.1,0,0.1s0,0.1,0,0.1c0,0,0,0.1,0,0.1s-0.1,0-0.1,0
				c0,0-0.1,0-0.1-0.1c0,0-0.1-0.1-0.1-0.1s-0.1-0.1-0.2-0.1c0,0-0.1,0-0.1,0c-0.1,0-0.1,0-0.2,0h-2.6v-0.1c0.2-0.1,0.4-0.2,0.4-0.5
				v-0.1c0,0,0,0,0,0V36.5c0,0,0-0.1,0-0.1c0-0.1,0-0.1,0-0.1c0-0.2-0.2-0.4-0.4-0.5v-0.1h2.7v0.1c-0.2,0.1-0.4,0.2-0.4,0.5v0.1
				v13.9v0.1h0.1c0.2,0,0.4,0,0.7-0.1c0.3,0,0.5-0.2,0.8-0.3C29.6,49.9,29.6,49.9,29.7,49.9z"/>
		</g>
		<g>
			<path class="st14" d="M38.1,47.8L38.1,47.8C38.1,47.8,38.1,47.8,38.1,47.8l0.1,3.8c0,0.1,0,0.1-0.1,0.1c-0.2-0.1-0.5-0.2-0.7-0.4
				c-0.2-0.2-0.4-0.4-0.5-0.6c-0.2-0.2-0.3-0.5-0.5-0.7c-0.2-0.2-0.3-0.5-0.4-0.8c-0.2-0.6-0.5-1.3-0.6-2v3.5v0.1v0v0.1
				c0,0.2,0.2,0.4,0.4,0.5v0.1h-0.6h-2.1v-0.1c0.2-0.1,0.4-0.2,0.4-0.5c0,0,0-0.1,0-0.1s0,0,0-0.1v0V36.7c0-0.2,0-0.3-0.1-0.5
				c-0.1-0.1-0.1-0.2-0.2-0.3c-0.1-0.1-0.2-0.1-0.2-0.2v-0.1h2.2c0.2,0,0.5,0.1,0.8,0.2c0.3,0.1,0.6,0.4,0.9,0.8
				c0.3,0.4,0.5,0.9,0.7,1.7c0.2,0.7,0.3,1.7,0.3,3c0,0.6,0,1.2-0.1,1.7s-0.2,0.9-0.3,1.3s-0.2,0.7-0.4,0.9
				c-0.1,0.2-0.3,0.5-0.4,0.6c-0.3,0.4-0.7,0.7-1.2,0.8c0.2,0.7,0.5,1.1,0.7,1.3c0.2,0.2,0.5,0.4,0.7,0.4s0.4-0.1,0.5-0.2
				C37.9,48,38,47.9,38.1,47.8z M35.4,45.9c0.2,0,0.4,0,0.5-0.1s0.2-0.2,0.3-0.2c0.1-0.1,0.1-0.2,0.1-0.3v-8.2c0-0.2,0-0.3-0.1-0.3
				c-0.1-0.1-0.2-0.1-0.3-0.2s-0.3,0-0.4,0L35.4,45.9L35.4,45.9z"/>
		</g>
		<g>
			<path class="st14" d="M41.4,35.6c0.4,0,0.8,0.2,1.1,0.6s0.6,1,0.8,1.7s0.4,1.6,0.5,2.5c0.1,1,0.2,2,0.2,3.1
				c0,1.1-0.1,2.2-0.2,3.1c-0.1,1-0.3,1.8-0.5,2.5c-0.2,0.7-0.5,1.3-0.8,1.7c-0.3,0.4-0.7,0.6-1.1,0.6c-0.5,0-0.8-0.2-1.2-0.6
				c-0.3-0.4-0.6-1-0.8-1.7c-0.2-0.7-0.4-1.6-0.5-2.5c-0.1-1-0.2-2-0.2-3.1c0-1.1,0.1-2.2,0.2-3.1c0.1-1,0.3-1.8,0.5-2.5
				c0.2-0.7,0.5-1.3,0.8-1.7C40.6,35.8,40.9,35.6,41.4,35.6z M41.8,37.4c0-0.1,0-0.2-0.1-0.3c-0.1-0.1-0.2-0.2-0.3-0.2
				s-0.2,0.1-0.3,0.2c-0.1,0.1-0.2,0.2-0.2,0.3v12.5c0,0.1,0.1,0.2,0.2,0.3c0.1,0.1,0.2,0.2,0.3,0.2s0.2-0.1,0.3-0.2
				c0.1-0.1,0.1-0.2,0.1-0.3V37.4z"/>
		</g>
		<g>
			<path class="st14" d="M48.5,50.8c0,0.2,0.2,0.4,0.5,0.5v0.1h-2.5v-0.2c0.1-0.1,0.2-0.2,0.2-0.4v-0.1c0,0,0,0,0,0l-0.2-2.2h-1.2
				l-0.1,2.1c0,0,0,0.1,0,0.1c0,0.1,0,0.1,0,0.1c0,0.2,0.2,0.4,0.5,0.5v0.1H44v-0.1c0.2-0.1,0.4-0.2,0.4-0.5v0v0v0l0.6-7.4
				c0.1-0.9,0.2-1.8,0.2-2.7c0.1-0.9,0.1-1.7,0.2-2.4c0.1-0.7,0.1-1.5,0.2-2.3c0,0,0.1-0.1,0.3-0.1c0.2,0,0.4,0,0.6,0s0.4,0,0.6,0
				c0.2,0,0.3,0.1,0.3,0.1c0.1,0.8,0.1,1.6,0.2,2.3s0.1,1.5,0.2,2.4c0.1,0.9,0.2,1.8,0.2,2.7c0.2,2.2,0.4,4.6,0.6,7.4L48.5,50.8
				L48.5,50.8z M46.5,47.7l-0.6-7.1l-0.4,7.1H46.5z"/>
		</g>
	</g>
	<g>
		<g>
			<path class="st14" d="M17.4,25.7c0,0.2,0.1,0.5,0.1,0.7c0,0.2,0,0.4,0,0.7c0,0.5,0,0.9-0.1,1.4c0,0.5-0.1,0.9-0.2,1.4
				c-0.1,0.4-0.2,0.8-0.5,1.2c-0.2,0.4-0.5,0.7-0.8,0.9c-0.4,0.2-0.7,0.3-1.2,0.3c-0.2,0-0.4-0.1-0.6-0.2c-0.2-0.1-0.4-0.2-0.5-0.4
				c-0.2-0.2-0.3-0.3-0.4-0.5c-0.1-0.2-0.2-0.4-0.3-0.5c-0.1-0.1-0.1-0.3-0.2-0.5c-0.1-0.2-0.1-0.4-0.2-0.6c0-0.1,0-0.2-0.1-0.3
				c0-0.2-0.1-0.3-0.1-0.4c0-0.2-0.1-0.3-0.1-0.4s-0.1-0.2-0.1-0.2V28c0,0,0.1-0.1,0.3-0.2c0.2-0.1,0.3-0.2,0.5-0.3
				c0.2-0.1,0.4-0.2,0.6-0.3c0.2-0.1,0.4-0.2,0.5-0.2c0,0,0,0,0.1,0s0,0,0.1,0c0.1,0,0.1,0,0.1,0.1c0,0.1,0,0.1,0,0.2
				c0,0.1,0,0.1,0,0.2c0,0.1,0,0.3-0.1,0.5s0,0.3,0,0.4c0,0.1,0,0.3,0,0.5c0,0.2,0,0.5,0,0.8c0,0.3,0,0.5,0,0.8s0.1,0.4,0.1,0.5
				c0,0.1,0.1,0.2,0.2,0.2c0.1,0.1,0.1,0.1,0.2,0.2c0.2,0.1,0.3,0,0.5-0.2c0.1-0.2,0.2-0.3,0.3-0.5c0-0.2,0.1-0.4,0.1-0.6
				c0-0.2,0-0.4,0-0.6c0-0.2,0-0.5,0-0.8c0-0.3,0-0.5,0-0.8c0-0.2,0-0.4-0.1-0.5c0-0.2-0.1-0.5-0.1-0.7c0-0.2-0.1-0.5-0.2-0.7
				c-0.1-0.2-0.2-0.5-0.2-0.7c-0.1-0.2-0.2-0.4-0.3-0.6c-0.2-0.4-0.4-0.8-0.6-1.2c-0.2-0.4-0.5-0.8-0.7-1.2
				c-0.1-0.2-0.2-0.4-0.2-0.5c-0.1-0.2-0.2-0.4-0.2-0.5c-0.1-0.2-0.2-0.4-0.2-0.6c-0.1-0.2-0.1-0.4-0.2-0.6
				c-0.1-0.4-0.2-0.8-0.2-1.2c0-0.5,0-0.8,0-1.2c0-0.4,0.1-0.8,0.1-1.2c0.1-0.4,0.2-0.8,0.4-1.1c0.2-0.3,0.5-0.6,0.7-0.8
				c0.3-0.2,0.6-0.4,1-0.4c0.4,0,0.8,0.1,1.1,0.3c0.3,0.2,0.6,0.5,0.8,0.8c0.1,0.2,0.2,0.4,0.3,0.6c0.1,0.2,0.2,0.4,0.2,0.6
				c0,0.1,0.1,0.2,0.1,0.3c0,0.1,0,0.2,0.1,0.3c0,0.2,0,0.3,0,0.3c0,0-0.1,0.1-0.2,0.2c-0.1,0.1-0.2,0.1-0.4,0.2
				c-0.2,0.1-0.3,0.2-0.5,0.3c-0.2,0.1-0.3,0.2-0.5,0.2c-0.2,0.1-0.2,0.1-0.2,0.1c-0.1,0-0.1-0.1-0.1-0.1s0-0.1,0.1-0.2
				c0-0.1,0-0.2,0.1-0.3c0-0.1,0.1-0.3,0.1-0.5c0.1-0.1,0.1-0.3,0.1-0.4c0-0.2,0-0.2,0-0.3c0-0.2,0-0.4,0-0.6c0-0.2-0.1-0.4-0.2-0.6
				c0-0.1-0.1-0.1-0.2-0.2c-0.1-0.1-0.2-0.1-0.2-0.1c-0.2,0-0.3,0.1-0.4,0.4c0,0.1-0.1,0.2-0.1,0.3c0,0.1,0,0.2-0.1,0.4
				c0,0.1,0,0.3,0,0.4c0,0.1,0,0.2,0,0.3c0,0.2,0,0.4,0,0.7c0,0.2,0.1,0.5,0.1,0.7c0.1,0.2,0.1,0.3,0.2,0.6s0.2,0.5,0.3,0.7
				c0.1,0.2,0.2,0.5,0.3,0.7c0.1,0.2,0.2,0.4,0.3,0.5c0.1,0.2,0.2,0.4,0.4,0.6c0.1,0.2,0.2,0.4,0.3,0.6c0.2,0.4,0.5,0.8,0.7,1.2
				c0.2,0.4,0.4,0.8,0.5,1.3c0.1,0.2,0.1,0.4,0.2,0.6C17.3,25.2,17.4,25.5,17.4,25.7z"/>
		</g>
	</g>
	<g>
		<g>
			<path class="st14" d="M17.5,47.3C17.5,47.3,17.5,47.3,17.5,47.3C17.5,47.3,17.5,47.3,17.5,47.3l0.1,4.3c0,0.1,0,0.1-0.1,0.1
				c-0.3-0.1-0.5-0.2-0.8-0.4c-0.2-0.2-0.5-0.4-0.6-0.7c-0.2-0.3-0.4-0.5-0.5-0.8c-0.2-0.3-0.3-0.6-0.4-0.9
				c-0.3-0.7-0.5-1.4-0.7-2.3v3.9v0.1v0v0.1c0.1,0.3,0.2,0.5,0.5,0.5v0.1h-0.7h-2.3v-0.1c0.3-0.1,0.4-0.3,0.5-0.5c0,0,0-0.1,0-0.1
				s0,0,0-0.1v0V34.8c0-0.2,0-0.4-0.1-0.5c-0.1-0.1-0.1-0.2-0.2-0.3c-0.1-0.1-0.2-0.2-0.3-0.2v-0.1h2.5c0.3,0,0.6,0.1,1,0.2
				c0.4,0.1,0.7,0.4,1,0.8c0.3,0.5,0.6,1.1,0.8,1.9c0.2,0.8,0.3,2,0.3,3.4c0,0.7,0,1.4-0.1,1.9c-0.1,0.5-0.2,1-0.3,1.5
				c-0.1,0.4-0.3,0.8-0.4,1.1s-0.3,0.5-0.5,0.7c-0.4,0.5-0.8,0.8-1.3,0.9c0.3,0.8,0.5,1.2,0.8,1.5c0.3,0.3,0.5,0.4,0.8,0.4
				s0.5-0.1,0.6-0.2C17.2,47.5,17.4,47.4,17.5,47.3z M14.4,45.1c0.2,0,0.4,0,0.5-0.1c0.1-0.1,0.2-0.2,0.3-0.3
				c0.1-0.1,0.1-0.2,0.1-0.4v-9.3c0-0.2-0.1-0.3-0.2-0.4c-0.1-0.1-0.2-0.1-0.4-0.2c-0.2,0-0.3-0.1-0.5-0.1L14.4,45.1L14.4,45.1z"/>
		</g>
	</g>
	<g>
		<g>
			<path class="st14" d="M54,22.8v8.2v0.2c0.1,0.3,0.2,0.5,0.5,0.5v0.1h-1.7h-0.4h-0.1h0.1h-0.1h-0.2h0c-0.6,0-1.1-0.2-1.5-0.7
				c-0.5-0.5-0.8-1.1-1.1-1.9c-0.3-0.8-0.5-1.8-0.7-2.9c-0.2-1.1-0.2-2.3-0.2-3.5c0-1.2,0.1-2.4,0.2-3.5c0.1-1.1,0.3-2.1,0.5-2.9
				c0.2-0.8,0.6-1.5,0.9-1.9c0.4-0.5,0.8-0.7,1.3-0.7c0.4,0,0.8,0.2,1,0.4c0.3,0.3,0.5,0.6,0.7,0.9c0.2,0.3,0.3,0.7,0.4,1
				c0.1,0.3,0.1,0.5,0.2,0.6c0.1,0.1,0,0.1-0.1,0.2c-0.1,0.1-0.2,0.2-0.4,0.2c-0.2,0.1-0.3,0.2-0.5,0.2s-0.3,0.2-0.5,0.2
				s-0.2,0.1-0.2,0.1c0,0-0.1,0-0.1,0c0,0-0.1-0.1-0.1-0.1c0-0.1,0-0.1,0.1-0.2c0-0.1,0-0.1,0-0.2c0.1-0.5,0.1-0.8,0.1-1
				c0-0.2,0-0.4,0-0.5c0,0,0-0.1,0-0.2c0-0.1-0.1-0.2-0.1-0.3c0-0.1-0.1-0.2-0.2-0.2c-0.1-0.1-0.2-0.1-0.3-0.1
				c-0.1,0-0.2,0.1-0.4,0.2c-0.1,0.1-0.2,0.2-0.2,0.4v14.9c0,0.1,0.1,0.2,0.2,0.4c0.1,0.1,0.2,0.2,0.4,0.2c0.3,0,0.5-0.1,0.5-0.4
				v-7.5c0,0,0-0.1,0-0.1s0-0.1,0-0.1c-0.1-0.3-0.2-0.5-0.5-0.5v-0.1h2.1H54h0.5v0.1c-0.3,0.1-0.4,0.3-0.5,0.5L54,22.8L54,22.8z"/>
		</g>
	</g>
	<g>
		<g>
			<path class="st14" d="M54.7,42.5c0,1.2-0.1,2.4-0.2,3.4c-0.1,1.1-0.3,2-0.6,2.8s-0.5,1.5-0.9,1.9c-0.4,0.5-0.8,0.7-1.3,0.7h-0.1
				H49v-0.1c0.1,0,0.2,0,0.3-0.1s0.1-0.2,0.2-0.2c0.1-0.1,0.1-0.2,0.1-0.3V34.6c0,0,0-0.1,0-0.1c0-0.1,0-0.1,0-0.2
				c-0.1-0.3-0.2-0.5-0.5-0.5v-0.1h2.3c0.6,0,1.2,0.2,1.6,0.7s0.8,1.1,1.1,1.9c0.3,0.8,0.5,1.8,0.6,2.8
				C54.7,40.1,54.7,41.3,54.7,42.5z M52.6,35.7c0-0.2,0-0.4-0.1-0.5c-0.1-0.1-0.2-0.2-0.3-0.3c-0.1-0.1-0.2-0.1-0.3-0.1
				c-0.1,0-0.2,0-0.2,0c0,0-0.1,0-0.1,0.1c0,0,0,0.1,0,0.1v15.1c0,0.1,0,0.1,0,0.1c0,0.1,0.1,0.1,0.1,0.1c0.1,0,0.2,0,0.2-0.1
				c0.1-0.1,0.2-0.1,0.3-0.2c0.1-0.1,0.2-0.2,0.2-0.3c0.1-0.2,0.1-0.3,0.1-0.5L52.6,35.7L52.6,35.7z"/>
		</g>
	</g>
	<g>
		<g>
			<path class="st14" d="M47,35H19.6c-0.6,0-1.1-0.5-1.1-1.1v-1.2c0-0.6,0.5-1.1,1.1-1.1H47c0.6,0,1.1,0.5,1.1,1.1v1.2
				C48.1,34.5,47.6,35,47,35z"/>
		</g>
	</g>
	<g>
		<g>
			<path class="st15" d="M24.8,33.6l-0.3-0.2c-0.2-0.1-0.3-0.2-0.4-0.3c-0.1-0.1-0.1-0.2-0.1-0.3c0-0.2,0.1-0.3,0.2-0.5
				c0.2-0.1,0.3-0.2,0.5-0.2s0.4,0.1,0.5,0.2v0.4c-0.2-0.2-0.4-0.2-0.6-0.2c-0.1,0-0.2,0-0.3,0.1c-0.1,0.1-0.1,0.1-0.1,0.2
				c0,0.1,0,0.2,0.1,0.2s0.2,0.1,0.3,0.2l0.3,0.2c0.3,0.2,0.5,0.4,0.5,0.7c0,0.2-0.1,0.4-0.2,0.5c-0.1,0.1-0.3,0.2-0.5,0.2
				c-0.2,0-0.5-0.1-0.7-0.2v-0.5c0.2,0.2,0.4,0.4,0.7,0.4c0.1,0,0.2,0,0.3-0.1c0.1-0.1,0.1-0.1,0.1-0.2C25.1,33.9,25,33.7,24.8,33.6
				z"/>
		</g>
		<g>
			<path class="st15" d="M25.8,32.2h0.3v2.4h-0.3V32.2z"/>
		</g>
		<g>
			<path class="st15" d="M28.6,32.2h0.3v2.4h-0.3L27,32.7v1.9h-0.3v-2.4h0.3l1.6,1.9L28.6,32.2L28.6,32.2z"/>
		</g>
		<g>
			<path class="st15" d="M31.5,34.1v0.4c-0.2,0.2-0.5,0.2-0.9,0.2c-0.3,0-0.5-0.1-0.7-0.2c-0.2-0.1-0.3-0.3-0.5-0.5
				c-0.1-0.2-0.2-0.4-0.2-0.6c0-0.4,0.1-0.6,0.4-0.9c0.2-0.2,0.6-0.4,0.9-0.4c0.2,0,0.5,0.1,0.8,0.2v0.4c-0.3-0.2-0.6-0.2-0.8-0.2
				c-0.3,0-0.5,0.1-0.7,0.3c-0.2,0.2-0.3,0.4-0.3,0.7c0,0.3,0.1,0.5,0.3,0.7s0.4,0.2,0.7,0.2C31,34.3,31.3,34.2,31.5,34.1z"/>
		</g>
		<g>
			<path class="st15" d="M32,32.2h1.4v0.3h-1v0.7h1v0.3h-1v0.8h1.1v0.3H32V32.2z"/>
		</g>
		<g>
			<path class="st15" d="M35.2,32.2h0.3v2.4h-0.3V32.2z"/>
		</g>
		<g>
			<path class="st15" d="M36.4,32.8c0-0.2,0.1-0.4,0.2-0.5c0.2-0.1,0.3-0.2,0.5-0.2s0.4,0.1,0.5,0.2c0.2,0.1,0.2,0.3,0.2,0.5
				c0,0.2-0.1,0.4-0.3,0.5c0.2,0.1,0.3,0.3,0.3,0.6c0,0.2-0.1,0.4-0.2,0.5s-0.3,0.2-0.5,0.2c-0.2,0-0.4-0.1-0.5-0.2
				c-0.2-0.1-0.2-0.3-0.2-0.5c0-0.2,0.1-0.4,0.3-0.6c-0.1-0.1-0.2-0.2-0.2-0.2C36.5,33.1,36.4,33,36.4,32.8z M37.6,34L37.6,34
				c0-0.2,0-0.2-0.1-0.3c-0.1-0.1-0.2-0.1-0.3-0.1s-0.2,0-0.3,0.1c-0.1,0.1-0.1,0.2-0.1,0.3c0,0.1,0,0.2,0.1,0.3s0.2,0.1,0.3,0.1
				s0.2,0,0.3-0.1C37.5,34.1,37.6,34.1,37.6,34z M37.5,32.8c0-0.1,0-0.2-0.1-0.3c-0.1-0.1-0.2-0.1-0.3-0.1s-0.2,0-0.3,0.1
				c-0.1,0.1-0.1,0.2-0.1,0.3c0,0.1,0,0.2,0.1,0.3c0.1,0.1,0.2,0.1,0.3,0.1c0.1,0,0.2,0,0.3-0.1C37.5,33,37.5,33,37.5,32.8z"/>
		</g>
		<g>
			<path class="st15" d="M38.7,33.2L38.7,33.2c0.2,0,0.3,0,0.4-0.1c0.1-0.1,0.1-0.2,0.1-0.3c0-0.1,0-0.2-0.1-0.3
				c-0.1-0.1-0.2-0.1-0.3-0.1s-0.3,0-0.4,0.1v-0.3c0.2-0.1,0.3-0.1,0.5-0.1c0.2,0,0.4,0.1,0.5,0.2c0.1,0.1,0.2,0.3,0.2,0.5
				c0,0.1,0,0.2-0.1,0.3c-0.1,0.1-0.1,0.2-0.2,0.2c0.1,0,0.2,0.1,0.2,0.1c0,0.1,0.1,0.1,0.1,0.2c0,0.1,0,0.2,0,0.2
				c0,0.2-0.1,0.4-0.2,0.5c-0.2,0.2-0.3,0.2-0.5,0.2c-0.2,0-0.4,0-0.5-0.1v-0.4c0.2,0.1,0.4,0.2,0.5,0.2c0.1,0,0.2,0,0.3-0.1
				c0.1-0.1,0.1-0.2,0.1-0.3c0-0.1,0-0.2-0.1-0.2c0,0-0.1-0.1-0.1-0.1c0,0-0.1,0-0.3-0.1h0L38.7,33.2L38.7,33.2z"/>
		</g>
		<g>
			<path class="st15" d="M40.5,34.3h0.9v0.3h-1.5v0l0.2-0.2c0.2-0.3,0.4-0.5,0.5-0.7s0.2-0.3,0.3-0.5c0-0.1,0.1-0.2,0.1-0.3
				c0-0.1,0-0.2-0.1-0.3c-0.1-0.1-0.2-0.1-0.3-0.1c-0.1,0-0.2,0-0.3,0.1c-0.1,0.1-0.2,0.2-0.2,0.2v-0.5c0.2-0.2,0.4-0.2,0.6-0.2
				c0.2,0,0.4,0.1,0.5,0.2c0.1,0.2,0.2,0.3,0.2,0.5c0,0.1,0,0.2-0.1,0.3c0,0.1-0.1,0.2-0.2,0.4c-0.1,0.2-0.2,0.3-0.5,0.6L40.5,34.3z
				"/>
		</g>
	</g>
	<g>
		<g>
			<circle class="st14" cx="31.4" cy="42.5" r="1.2"/>
		</g>
	</g>
</g>
</svg>
