<?xml version="1.0" encoding="utf-8"?>
<!-- Generator: Adobe Illustrator 21.1.0, SVG Export Plug-In . SVG Version: 6.00 Build 0)  -->
<svg version="1.1" id="Layer_1" xmlns="http://www.w3.org/2000/svg" xmlns:xlink="http://www.w3.org/1999/xlink" x="0px" y="0px"
	 viewBox="0 0 170.1 170.1" style="enable-background:new 0 0 170.1 170.1;" xml:space="preserve">
<style type="text/css">
	.st0{fill:#E63027;stroke:#FCEA06;stroke-width:2;stroke-miterlimit:10;}
	.st1{fill:#181716;}
	.st2{fill:#FCEA06;}
	.st3{fill:#E63027;}
</style>
<g>
	<rect x="7.1" y="19" class="st0" width="155.9" height="132.1"/>
	<g>
		<g>
			<path class="st1" d="M50.5,145.1c0.1,0.8,0.6,1.4,1.5,1.6v0.4h-8.3v-0.7c0.4-0.4,0.7-0.8,0.7-1.2v-0.3c0,0,0-0.1,0.1-0.1
				l-0.7-7.2h-3.8l-0.4,6.9c0,0,0,0.2,0,0.3c0,0.2,0,0.3,0,0.4c0.1,0.8,0.6,1.4,1.5,1.6v0.4h-5.5v-0.4c0.8-0.2,1.2-0.8,1.4-1.6
				c0,0,0-0.1,0-0.1c0,0,0-0.1,0-0.1v-0.1l1.9-24.5c0.2-3,0.5-6,0.7-9c0.2-2.9,0.4-5.6,0.6-7.9c0.2-2.3,0.4-4.9,0.6-7.7
				c0-0.1,0.3-0.3,0.9-0.3c0.6-0.1,1.3-0.1,2-0.1s1.3,0,2,0.1c0.6,0.1,0.9,0.2,0.9,0.3c0.2,2.8,0.4,5.4,0.6,7.7
				c0.2,2.3,0.4,4.9,0.7,7.8c0.2,2.9,0.5,5.9,0.7,8.9c0.5,7.1,1.2,15.2,2,24.3V145.1z M43.7,135l-2-23.4L40.3,135H43.7z"/>
		</g>
		<g>
			<path class="st1" d="M60.2,97.8l-0.1,46.7c0,0,0,0.1,0,0.3c0,0.1,0,0.3,0,0.4c0.1,0.8,0.6,1.4,1.4,1.6v0.4h-8.8v-0.4
				c0.8-0.2,1.2-0.8,1.4-1.6v-0.3c0,0,0-0.1,0.1-0.1V98c0,0,0-0.1,0-0.3c0-0.1,0-0.3,0-0.4c-0.1-0.8-0.6-1.3-1.4-1.6v-0.4h8.8v0.4
				c-0.8,0.2-1.2,0.8-1.4,1.6V97.8z"/>
		</g>
		<g>
			<path class="st1" d="M75.4,142.1c0.2,0,0.3,0.1,0.3,0.3s-0.1,0.4-0.3,0.6c-0.1,0.1-0.3,0.4-0.4,0.8c-0.1,0.4-0.3,0.8-0.4,1.2
				c-0.1,0.4-0.3,0.9-0.4,1.3c-0.1,0.4-0.2,0.8-0.3,1.1c0,0.1-0.1,0.2-0.1,0.3c0,0.1,0,0.2-0.1,0.3c0,0.1,0,0.2-0.1,0.2
				c-0.1,0-0.2,0-0.3,0s-0.2-0.1-0.3-0.2c-0.1-0.1-0.2-0.2-0.3-0.3c-0.1-0.1-0.3-0.2-0.6-0.4c-0.1,0-0.2-0.1-0.4-0.1
				c-0.2,0-0.4,0-0.7-0.1h-8.7v-0.4c0.8-0.2,1.2-0.7,1.4-1.5V145c0,0,0-0.1,0.1-0.1V97.9c0,0,0-0.2,0-0.3c0-0.2,0-0.3,0-0.3
				c-0.1-0.8-0.6-1.3-1.4-1.6v-0.4h8.8v0.4c-0.8,0.2-1.2,0.8-1.4,1.6v0.4v45.8v0.2h0.4c0.5,0,1.3-0.1,2.2-0.2c0.9-0.1,1.8-0.5,2.6-1
				C75.1,142.2,75.3,142.1,75.4,142.1z"/>
		</g>
		<g>
			<path class="st1" d="M103.1,135.2c0,0,0.1-0.1,0.1-0.1c0,0,0,0.1,0.1,0.1v12.5c0,0.2-0.1,0.3-0.2,0.2c-0.8-0.3-1.6-0.7-2.2-1.3
				c-0.7-0.6-1.3-1.2-1.8-2c-0.6-0.8-1.1-1.6-1.5-2.4c-0.5-0.8-0.9-1.7-1.2-2.6c-0.8-2-1.5-4.2-2-6.6v11.4v0.2v0.1v0.4
				c0.1,0.8,0.6,1.3,1.4,1.6v0.4h-2h-6.8v-0.4c0.8-0.2,1.2-0.8,1.4-1.6c0-0.1,0-0.2,0-0.2c0,0,0-0.1,0-0.2v-0.1v-46
				c0-0.6-0.1-1.1-0.3-1.5c-0.2-0.4-0.4-0.7-0.6-0.9c-0.2-0.2-0.5-0.4-0.8-0.6v-0.4H94c0.8,0,1.7,0.2,2.8,0.6c1,0.4,2,1.2,2.9,2.5
				c0.9,1.3,1.7,3.1,2.3,5.6c0.6,2.4,0.9,5.7,0.9,9.9c0,2.1-0.1,3.9-0.3,5.5c-0.2,1.6-0.5,3-0.9,4.2c-0.4,1.2-0.8,2.2-1.2,3.1
				c-0.4,0.8-0.9,1.6-1.4,2.1c-1.1,1.4-2.4,2.2-3.8,2.5c0.8,2.2,1.6,3.6,2.4,4.4c0.8,0.8,1.6,1.2,2.3,1.2c0.7,0,1.3-0.2,1.8-0.7
				C102.5,135.9,102.8,135.5,103.1,135.2z M94.2,129c0.7,0,1.2-0.1,1.6-0.3c0.4-0.2,0.7-0.5,0.9-0.8s0.3-0.7,0.4-1.1v-27
				c0-0.5-0.1-0.9-0.4-1.1c-0.3-0.2-0.6-0.4-1-0.5c-0.4-0.1-0.9-0.1-1.4-0.1V129z"/>
		</g>
		<g>
			<path class="st1" d="M114.1,95c1.4,0,2.6,0.7,3.7,2.1c1.1,1.4,2,3.3,2.7,5.6s1.3,5.2,1.7,8.4c0.4,3.2,0.6,6.6,0.6,10.3
				c0,3.7-0.2,7.1-0.6,10.3c-0.4,3.2-0.9,6-1.7,8.4s-1.6,4.3-2.7,5.6c-1.1,1.4-2.3,2.1-3.7,2.1c-1.5,0-2.8-0.7-3.9-2.1
				c-1.1-1.4-2-3.3-2.7-5.6c-0.7-2.4-1.3-5.2-1.6-8.4c-0.3-3.2-0.5-6.6-0.5-10.3c0-3.7,0.2-7.1,0.5-10.3c0.4-3.2,0.9-6,1.6-8.4
				s1.6-4.3,2.7-5.6C111.4,95.7,112.6,95,114.1,95z M115.6,100.8c0-0.4-0.1-0.7-0.4-1.1c-0.3-0.3-0.7-0.5-1.1-0.5
				c-0.4,0-0.7,0.2-1.1,0.5c-0.3,0.3-0.5,0.7-0.5,1.1v41.3c0,0.4,0.2,0.7,0.5,1.1c0.3,0.3,0.7,0.5,1.1,0.5c0.4,0,0.8-0.2,1.1-0.5
				s0.4-0.7,0.4-1.1V100.8z"/>
		</g>
		<g>
			<path class="st1" d="M137.6,145.1c0.1,0.8,0.6,1.4,1.5,1.6v0.4h-8.3v-0.7c0.4-0.4,0.7-0.8,0.7-1.2v-0.3c0,0,0-0.1,0.1-0.1
				l-0.7-7.2h-3.8l-0.4,6.9c0,0,0,0.2,0,0.3c0,0.2,0,0.3,0,0.4c0.1,0.8,0.6,1.4,1.5,1.6v0.4h-5.5v-0.4c0.8-0.2,1.2-0.8,1.4-1.6
				c0,0,0-0.1,0-0.1c0,0,0-0.1,0-0.1v-0.1l1.9-24.5c0.2-3,0.5-6,0.7-9c0.2-2.9,0.4-5.6,0.6-7.9c0.2-2.3,0.4-4.9,0.6-7.7
				c0-0.1,0.3-0.3,0.9-0.3c0.6-0.1,1.3-0.1,2-0.1c0.7,0,1.3,0,2,0.1c0.6,0.1,0.9,0.2,0.9,0.3c0.2,2.8,0.4,5.4,0.6,7.7
				c0.2,2.3,0.4,4.9,0.7,7.8c0.2,2.9,0.5,5.9,0.7,8.9c0.5,7.1,1.2,15.2,2,24.3V145.1z M130.8,135l-2-23.4l-1.4,23.4H130.8z"/>
		</g>
	</g>
	<g>
		<g>
			<path class="st1" d="M35.1,133.6c0.1-0.1,0.1-0.1,0.2-0.1c0,0.1,0,0.1,0.1,0.2v14.2c0,0.3-0.1,0.4-0.2,0.2
				c-0.9-0.3-1.8-0.8-2.5-1.4c-0.8-0.6-1.5-1.4-2.1-2.3c-0.6-0.9-1.2-1.8-1.7-2.8c-0.5-1-1-1.9-1.4-2.9c-0.9-2.2-1.7-4.7-2.3-7.5
				v12.9v0.2v0.1v0.4c0.2,0.9,0.7,1.5,1.6,1.8v0.4h-2.2h-7.7v-0.4c0.9-0.3,1.4-0.9,1.6-1.8c0-0.1,0-0.2,0-0.2c0,0,0-0.1,0-0.2v-0.1
				V92.2c0-0.7-0.1-1.3-0.3-1.7c-0.2-0.4-0.4-0.8-0.7-1c-0.3-0.3-0.6-0.5-0.9-0.7v-0.4h8.3c0.9,0,2,0.2,3.2,0.7
				c1.2,0.4,2.3,1.4,3.3,2.8c1,1.5,1.9,3.6,2.6,6.3c0.7,2.8,1.1,6.5,1.1,11.2c0,2.4-0.1,4.5-0.4,6.3c-0.2,1.8-0.6,3.4-1,4.8
				c-0.4,1.4-0.9,2.5-1.4,3.5c-0.5,1-1,1.8-1.6,2.4c-1.3,1.5-2.7,2.5-4.3,2.9c0.9,2.5,1.8,4.1,2.7,5c0.9,0.9,1.8,1.3,2.6,1.3
				c0.8,0,1.5-0.3,2.1-0.8C34.4,134.3,34.8,133.9,35.1,133.6z M24.9,126.5c0.8,0,1.4-0.1,1.8-0.4c0.4-0.2,0.8-0.5,1-0.9
				c0.2-0.3,0.4-0.7,0.4-1.2V93.4c0-0.6-0.2-1-0.5-1.3c-0.3-0.2-0.7-0.4-1.2-0.5c-0.5-0.1-1-0.2-1.6-0.2V126.5z"/>
		</g>
	</g>
	<g>
		<g>
			<path class="st1" d="M158.1,117.8c0,4-0.2,7.8-0.7,11.3c-0.4,3.5-1.1,6.6-1.9,9.3c-0.8,2.7-1.8,4.8-3,6.3
				c-1.2,1.6-2.6,2.4-4.2,2.4h-0.4h-8.6v-0.4c0.4,0,0.7-0.1,0.9-0.3c0.2-0.2,0.4-0.5,0.5-0.7c0.2-0.3,0.2-0.7,0.2-1.1V91.6
				c0-0.1,0-0.2,0-0.4c0-0.2,0-0.3,0-0.5c-0.2-0.9-0.7-1.5-1.6-1.7v-0.4h7.6c2,0,3.8,0.8,5.2,2.3c1.4,1.5,2.6,3.6,3.5,6.3
				c0.9,2.7,1.5,5.8,1.9,9.3C157.9,110,158.1,113.8,158.1,117.8z M151,95.4c0-0.7-0.1-1.2-0.4-1.6c-0.2-0.4-0.5-0.7-0.9-0.9
				c-0.3-0.2-0.7-0.4-1-0.4c-0.3-0.1-0.6-0.1-0.7-0.1c-0.1,0-0.2,0.1-0.3,0.3c-0.1,0.1-0.1,0.2-0.1,0.3v49.7c0,0.2,0,0.3,0.1,0.4
				c0.1,0.3,0.2,0.4,0.3,0.3c0.2,0,0.5-0.1,0.8-0.2c0.3-0.2,0.7-0.4,1-0.7c0.3-0.3,0.6-0.7,0.8-1.1c0.2-0.5,0.3-1.1,0.3-1.8V95.4z"
				/>
		</g>
	</g>
	<g>
		<g>
			<circle class="st1" cx="81" cy="117.7" r="4.1"/>
		</g>
	</g>
	<g>
		<g>
			<g>
				<path class="st1" d="M49.9,38.8c0,0.1,0.1,0.2,0.1,0.2c0,0.1,0,0.2,0,0.2c0,0.2-0.1,0.2-0.2,0.2c-0.1,0-0.2-0.1-0.2-0.2
					c-0.1-0.1-0.1-0.1-0.2-0.2c-0.6-0.6-1.2-0.9-1.9-1.1c-0.7-0.2-1.3-0.3-1.7-0.3h-0.3c0,2.2-0.1,4.3-0.1,6.1c0,1.8,0,3.9,0,6.2
					c0,2.3,0,4.7,0,7.1v19.4c0,0,0,0.1,0,0.3c0,0.1,0,0.2,0,0.3c0.1,0.7,0.5,1.1,1.2,1.3v0.3h-7.3v-0.3c0.6-0.2,1-0.7,1.2-1.3v-0.4
					L40.5,38v-0.2h-0.4c-0.4,0-1,0.1-1.7,0.3c-0.7,0.2-1.3,0.6-1.9,1.1c-0.1,0-0.2,0.1-0.2,0.2s-0.1,0.1-0.2,0.2
					c-0.2,0-0.2-0.1-0.2-0.2c0-0.1,0-0.2,0-0.2c0-0.1,0.1-0.2,0.1-0.2c0.2-0.3,0.3-0.8,0.5-1.4c0.1-0.7,0.2-1.2,0.3-1.7
					c0-0.1,0-0.2-0.1-0.3c0-0.1,0-0.2,0-0.3c0-0.2,0.1-0.2,0.3-0.2c0.1,0,0.2,0.1,0.3,0.2c0.1,0.1,0.2,0.1,0.3,0.2
					c0.1,0.1,0.3,0.2,0.5,0.3c0.1,0,0.3,0.1,0.8,0.1c0.4,0,0.9,0,1.4,0.1c0.5,0,1,0.1,1.5,0.1s0.8,0,1,0c0.2,0,0.7,0,1.3,0
					c0.6,0,1.2,0,1.7-0.1c0.5,0,0.9-0.1,1.4-0.1s0.7-0.1,0.8-0.1c0.2-0.1,0.4-0.2,0.5-0.3c0.1,0,0.2-0.1,0.3-0.2
					c0.1-0.1,0.2-0.1,0.3-0.2c0.2,0,0.3,0.1,0.3,0.2c0,0.1,0,0.2,0,0.3c0,0.1,0,0.2,0,0.3c0,0.4,0.1,1,0.2,1.7
					C49.6,38,49.8,38.5,49.9,38.8z"/>
			</g>
			<g>
				<path class="st1" d="M64.4,68.8c0,0,0.1-0.1,0.1-0.1c0,0,0,0.1,0.1,0.1v10.5c0,0.2-0.1,0.3-0.2,0.2c-0.7-0.2-1.3-0.6-1.9-1.1
					c-0.6-0.5-1.1-1-1.5-1.7c-0.5-0.6-0.9-1.3-1.3-2c-0.4-0.7-0.7-1.4-1-2.2C58,71,57.5,69.1,57,67.1v9.5v0.2v0.1v0.3
					c0.1,0.7,0.5,1.1,1.2,1.3v0.3h-1.6h-5.7v-0.3c0.6-0.2,1-0.7,1.2-1.3c0-0.1,0-0.1,0-0.2c0,0,0-0.1,0-0.2v-0.1V38.2
					c0-0.5-0.1-0.9-0.2-1.2c-0.1-0.3-0.3-0.6-0.5-0.8c-0.2-0.2-0.4-0.4-0.7-0.5v-0.3h6.1c0.7,0,1.5,0.2,2.3,0.5
					c0.9,0.3,1.7,1,2.5,2.1c0.8,1.1,1.4,2.6,1.9,4.7c0.5,2,0.8,4.8,0.8,8.3c0,1.7-0.1,3.3-0.3,4.6c-0.2,1.4-0.4,2.5-0.7,3.6
					c-0.3,1-0.6,1.9-1,2.6c-0.4,0.7-0.8,1.3-1.2,1.8c-0.9,1.1-2,1.8-3.2,2.1c0.7,1.8,1.3,3.1,2,3.7c0.7,0.6,1.3,1,1.9,1
					c0.6,0,1.1-0.2,1.5-0.6C63.9,69.3,64.2,69,64.4,68.8z M57,63.6c0.6,0,1-0.1,1.3-0.3c0.3-0.2,0.6-0.4,0.7-0.6
					c0.2-0.2,0.3-0.5,0.3-0.9V39.1c0-0.4-0.1-0.8-0.4-0.9c-0.2-0.2-0.5-0.3-0.9-0.4c-0.4-0.1-0.7-0.1-1.2-0.1V63.6z"/>
			</g>
			<g>
				<path class="st1" d="M77.5,77.1c0.1,0.7,0.5,1.1,1.2,1.3v0.3h-6.9v-0.6c0.4-0.4,0.6-0.7,0.6-1v-0.2c0,0,0-0.1,0.1-0.1l-0.5-6
					h-3.2l-0.4,5.8c0,0,0,0.1,0,0.3c0,0.1,0,0.3,0,0.3c0.1,0.7,0.5,1.1,1.2,1.3v0.3h-4.6v-0.3c0.6-0.2,1-0.6,1.2-1.3
					c0,0,0-0.1,0-0.1c0,0,0-0.1,0-0.1v-0.1l1.6-20.5c0.2-2.6,0.4-5.1,0.6-7.5c0.2-2.5,0.4-4.7,0.5-6.6c0.2-1.9,0.3-4.1,0.5-6.5
					c0-0.1,0.3-0.2,0.8-0.3c0.5-0.1,1.1-0.1,1.6-0.1c0.6,0,1.1,0,1.6,0.1c0.5,0.1,0.8,0.2,0.8,0.3c0.2,2.4,0.3,4.5,0.5,6.5
					c0.2,1.9,0.3,4.1,0.5,6.6c0.2,2.4,0.4,4.9,0.6,7.5c0.4,6,1,12.8,1.6,20.4V77.1z M71.8,68.7l-1.6-19.6L69,68.7H71.8z"/>
			</g>
			<g>
				<path class="st1" d="M91.2,63.5c0.1,0.6,0.1,1.1,0.2,1.6c0,0.5,0.1,1,0.1,1.6c0,1.1-0.1,2.3-0.2,3.4c-0.1,1.1-0.3,2.2-0.6,3.3
					c-0.2,1-0.6,2-1.1,2.9c-0.5,0.9-1.2,1.7-2.1,2.3c-0.9,0.6-1.8,0.8-2.9,0.7c-0.4,0-0.9-0.2-1.4-0.5c-0.5-0.3-0.9-0.6-1.2-0.9
					c-0.4-0.4-0.7-0.8-1-1.2c-0.3-0.4-0.5-0.9-0.8-1.3c-0.2-0.3-0.3-0.7-0.5-1.2c-0.2-0.5-0.3-1-0.5-1.5c0-0.2-0.1-0.4-0.2-0.8
					c-0.1-0.3-0.1-0.7-0.2-1.1c-0.1-0.4-0.2-0.7-0.2-1c-0.1-0.3-0.1-0.5-0.1-0.5V69c0,0,0.3-0.2,0.6-0.4c0.4-0.2,0.8-0.5,1.3-0.7
					c0.5-0.3,1-0.5,1.5-0.8c0.5-0.2,0.9-0.4,1.2-0.5c0,0,0.1-0.1,0.1-0.1c0,0,0.1,0,0.2-0.1c0.1,0,0.2,0,0.2,0.1
					c0,0.1,0,0.3-0.1,0.5c0,0.2-0.1,0.3-0.1,0.4c0,0.3-0.1,0.7-0.1,1.2c0,0.4-0.1,0.8-0.1,1c0,0.3-0.1,0.7-0.1,1.3
					c0,0.6,0,1.2,0,1.8c0,0.7,0,1.3,0.1,1.9c0.1,0.6,0.2,1,0.3,1.4c0.1,0.2,0.2,0.4,0.3,0.5c0.1,0.2,0.3,0.3,0.5,0.4
					c0.4,0.1,0.9,0,1.2-0.4c0.3-0.4,0.5-0.8,0.6-1.3c0.1-0.5,0.2-1,0.2-1.5c0-0.4,0-0.9,0-1.5c0-0.6,0-1.3,0-1.9s0-1.3-0.1-1.9
					c0-0.6-0.1-1-0.1-1.2c-0.1-0.6-0.2-1.1-0.2-1.6c-0.1-0.5-0.2-1.1-0.4-1.6c-0.2-0.6-0.4-1.1-0.6-1.6c-0.2-0.5-0.5-1-0.7-1.5
					c-0.4-1-1-2-1.5-2.9c-0.6-0.9-1.1-1.9-1.6-2.9c-0.2-0.4-0.4-0.9-0.6-1.3c-0.2-0.4-0.4-0.9-0.5-1.3c-0.2-0.4-0.4-0.9-0.5-1.4
					c-0.1-0.5-0.2-0.9-0.4-1.4c-0.2-0.9-0.4-1.9-0.6-2.9c-0.2-1-0.2-1.9-0.1-2.9c0.1-0.9,0.2-1.9,0.3-2.8c0.1-0.9,0.4-1.8,1-2.7
					c0.5-0.8,1.1-1.4,1.8-2c0.7-0.6,1.5-0.9,2.5-1c1-0.1,1.8,0.2,2.6,0.8c0.8,0.6,1.4,1.3,1.9,2.1c0.3,0.4,0.5,0.9,0.7,1.4
					c0.2,0.5,0.4,1,0.5,1.5c0.1,0.2,0.1,0.5,0.2,0.8c0,0.3,0.1,0.5,0.1,0.8c0.1,0.4,0.1,0.7,0.1,0.9c0,0.1-0.2,0.2-0.5,0.4
					c-0.2,0.1-0.6,0.3-1,0.5c-0.4,0.2-0.9,0.4-1.3,0.6c-0.4,0.2-0.8,0.4-1.2,0.5c-0.3,0.2-0.5,0.2-0.6,0.2c-0.2,0-0.2-0.1-0.2-0.3
					s0-0.3,0.1-0.5c0-0.2,0.1-0.4,0.2-0.8c0.1-0.3,0.1-0.7,0.2-1.1s0.1-0.8,0.1-1.1c0-0.3,0-0.6,0-0.7c0-0.4,0-1-0.1-1.5
					c-0.1-0.6-0.2-1.1-0.5-1.5c-0.1-0.2-0.2-0.3-0.4-0.4c-0.2-0.1-0.4-0.2-0.6-0.1c-0.4,0-0.8,0.3-1,0.9c-0.1,0.2-0.2,0.4-0.2,0.7
					c-0.1,0.3-0.1,0.6-0.1,0.9c0,0.3,0,0.6,0,0.9c0,0.3,0,0.5,0,0.7c0,0.5,0,1.1,0.1,1.6s0.1,1.1,0.2,1.6c0.1,0.4,0.3,0.8,0.5,1.4
					c0.2,0.6,0.4,1.1,0.6,1.7c0.2,0.6,0.5,1.2,0.7,1.7c0.2,0.5,0.4,1,0.6,1.4c0.3,0.5,0.6,1,0.9,1.5s0.6,1,0.9,1.5
					c0.6,1,1.1,2,1.6,3c0.5,1,0.9,2.1,1.2,3.2c0.2,0.5,0.3,1.1,0.4,1.6C91.1,62.4,91.1,62.9,91.2,63.5z"/>
			</g>
			<g>
				<path class="st1" d="M101.4,49.7c1.8,1.1,3.1,2.9,4,5.4c0.8,2.5,1.2,5.4,1.2,8.7c0,2.1-0.1,4-0.4,5.8c-0.3,1.8-0.7,3.4-1.3,4.8
					c-0.6,1.4-1.4,2.5-2.4,3.2c-1,0.8-2.1,1.2-3.5,1.2h-0.3h-6.4v-0.2c0.5,0,0.9-0.2,1-0.5c0.1-0.2,0.1-0.4,0.1-0.6V36.9
					c0-0.2-0.1-0.4-0.2-0.6C93.1,36.1,93,36,92.8,36c-0.2-0.1-0.4-0.2-0.7-0.2v-0.1h6.1c1.1,0,2.1,0.1,3,0.2c0.9,0.1,1.7,0.5,2.4,1
					c0.7,0.5,1.2,1.2,1.6,2.2c0.4,1,0.6,2.3,0.6,3.9c0,1.1-0.1,2.1-0.4,2.9c-0.3,0.8-0.6,1.4-1.1,2c-0.4,0.5-0.9,0.9-1.4,1.2
					C102.4,49.3,101.9,49.6,101.4,49.7z M101.1,38.4c0-0.2-0.2-0.5-0.7-0.8c-0.5-0.3-1-0.4-1.6-0.4c-0.1,0-0.1,0-0.2,0
					c0,0-0.1,0-0.1,0l-0.1,0.1v10.3c0,0,0,0.1,0,0.1c0,0,0.1,0.1,0.3,0.1c0.7,0,1.2-0.1,1.7-0.4c0.4-0.3,0.6-0.6,0.6-0.9V38.4z
					 M101.1,52.3c0-0.5-0.3-0.9-0.8-1.2c-0.5-0.2-1-0.4-1.5-0.4c-0.1,0-0.1,0-0.2,0.1c0,0-0.1,0.1-0.1,0.1c0,0-0.1,0.1-0.1,0.1v25.5
					c0,0,0,0.1,0,0.2c0,0.2,0.1,0.3,0.3,0.2c0.1,0,0.3,0,0.6-0.1s0.5-0.2,0.8-0.3c0.3-0.1,0.5-0.3,0.7-0.5c0.2-0.2,0.3-0.5,0.3-0.9
					V52.3z"/>
			</g>
			<g>
				<path class="st1" d="M122.3,35.7V36c-0.7,0.2-1.1,0.6-1.2,1.3v0.4v31.8c0,1.4-0.1,2.7-0.3,3.9c-0.2,1.2-0.5,2.3-1,3.1
					s-1.1,1.5-1.9,2c-0.8,0.5-1.7,0.7-2.9,0.7c-0.2,0-0.4,0-0.6,0c-0.2,0-0.5,0-0.7-0.1c-0.2,0-0.6-0.2-1.2-0.4
					c-0.6-0.2-1.2-0.7-1.8-1.5c-0.6-0.8-1.2-1.9-1.7-3.5c-0.5-1.5-0.8-3.6-0.8-6.2v-0.8v-0.3c0-1.1,0-2.6,0-4.5c0-1.9,0-3.8,0-5.9
					c0-2.1,0-4.2,0.1-6.4c0-2.1,0-4.1,0-5.9c0-1.8,0-3.3,0-4.4c0-1.2,0-1.8,0-2c-0.1-0.3-0.2-0.6-0.4-0.9c-0.2-0.3-0.4-0.4-0.7-0.5
					v-0.3h7.3V36c-0.3,0.1-0.5,0.3-0.7,0.5c-0.2,0.3-0.3,0.6-0.4,0.9c0,0-0.1,0.1-0.1,0.2v0.1v29.8c0,0.8,0,1.6,0.1,2.5
					c0,0.9,0.2,1.6,0.3,2.3c0.2,0.7,0.5,1.2,0.9,1.6c0.4,0.4,0.9,0.6,1.5,0.6c0.7,0,1.3-0.3,1.7-0.9c0.4-0.6,0.7-1.3,0.8-2
					c0.2-0.9,0.2-1.8,0.2-3V37.8c0,0,0-0.1,0-0.2c0-0.1,0-0.2-0.1-0.3c-0.1-0.7-0.5-1.1-1.2-1.3v-0.3H122.3z"/>
			</g>
			<g>
				<path class="st1" d="M136,68.8c0,0,0.1-0.1,0.1-0.1c0,0,0,0.1,0.1,0.1v10.5c0,0.2-0.1,0.3-0.2,0.2c-0.7-0.2-1.3-0.6-1.9-1.1
					c-0.6-0.5-1.1-1-1.5-1.7s-0.9-1.3-1.3-2c-0.4-0.7-0.7-1.4-1-2.2c-0.7-1.7-1.3-3.5-1.7-5.5v9.5v0.2v0.1v0.3
					c0.1,0.7,0.5,1.1,1.2,1.3v0.3h-1.6h-5.7v-0.3c0.6-0.2,1-0.7,1.2-1.3c0-0.1,0-0.1,0-0.2c0,0,0-0.1,0-0.2v-0.1V38.2
					c0-0.5-0.1-0.9-0.2-1.2c-0.1-0.3-0.3-0.6-0.5-0.8c-0.2-0.2-0.4-0.4-0.7-0.5v-0.3h6.1c0.7,0,1.5,0.2,2.3,0.5
					c0.9,0.3,1.7,1,2.5,2.1c0.8,1.1,1.4,2.6,1.9,4.7c0.5,2,0.8,4.8,0.8,8.3c0,1.7-0.1,3.3-0.3,4.6c-0.2,1.4-0.4,2.5-0.7,3.6
					c-0.3,1-0.6,1.9-1,2.6c-0.4,0.7-0.8,1.3-1.2,1.8c-0.9,1.1-2,1.8-3.2,2.1c0.7,1.8,1.3,3.1,2,3.7c0.7,0.6,1.3,1,1.9,1
					c0.6,0,1.1-0.2,1.5-0.6C135.5,69.3,135.8,69,136,68.8z M128.6,63.6c0.6,0,1-0.1,1.3-0.3c0.3-0.2,0.6-0.4,0.7-0.6
					c0.2-0.2,0.3-0.5,0.3-0.9V39.1c0-0.4-0.1-0.8-0.4-0.9c-0.2-0.2-0.5-0.3-0.9-0.4c-0.4-0.1-0.7-0.1-1.2-0.1V63.6z"/>
			</g>
		</g>
		<g>
			<g>
				<path class="st1" d="M34.8,62.3c0.1,0.8,0.2,1.5,0.2,2.2c0.1,0.7,0.1,1.4,0.1,2.2c0,1.5-0.1,3.1-0.2,4.6c-0.1,1.5-0.4,3-0.8,4.5
					c-0.3,1.4-0.8,2.7-1.5,3.9C32,81,31,82,29.8,82.8c-1.2,0.8-2.4,1.1-3.9,1c-0.6-0.1-1.2-0.3-1.9-0.6s-1.2-0.8-1.6-1.2
					c-0.5-0.5-0.9-1-1.3-1.6c-0.4-0.6-0.7-1.2-1.1-1.8c-0.2-0.4-0.4-0.9-0.7-1.6c-0.2-0.7-0.4-1.4-0.7-2.1c-0.1-0.2-0.1-0.6-0.2-1
					c-0.1-0.5-0.2-0.9-0.3-1.4c-0.1-0.5-0.2-0.9-0.3-1.3c-0.1-0.4-0.2-0.6-0.2-0.7v-0.7c0.1-0.1,0.3-0.2,0.9-0.5
					c0.5-0.3,1.1-0.6,1.8-1c0.7-0.4,1.4-0.7,2.1-1c0.7-0.3,1.3-0.5,1.6-0.7c0.1-0.1,0.1-0.1,0.2-0.1c0.1,0,0.1,0,0.2-0.1
					c0.2,0,0.2,0.1,0.2,0.2c0,0.2,0,0.4-0.1,0.6c-0.1,0.2-0.1,0.4-0.1,0.5c-0.1,0.4-0.1,1-0.2,1.6c-0.1,0.6-0.1,1.1-0.1,1.4
					c-0.1,0.4-0.1,1-0.1,1.7c0,0.8,0,1.6,0,2.5c0,0.9,0,1.7,0.1,2.5c0.1,0.8,0.2,1.4,0.4,1.8c0.1,0.3,0.3,0.5,0.5,0.7
					c0.2,0.2,0.4,0.4,0.7,0.5c0.6,0.2,1.1,0,1.6-0.5c0.4-0.5,0.7-1.1,0.9-1.8c0.1-0.7,0.2-1.4,0.3-2c0-0.5,0-1.2,0-2.1
					c0-0.8,0-1.7,0-2.6s0-1.7-0.1-2.5c-0.1-0.8-0.1-1.3-0.2-1.6c-0.1-0.8-0.2-1.5-0.3-2.2c-0.1-0.7-0.3-1.5-0.5-2.2
					c-0.2-0.8-0.5-1.5-0.8-2.2c-0.3-0.7-0.6-1.4-0.9-2.1c-0.6-1.4-1.3-2.7-2.1-3.9s-1.5-2.6-2.2-3.9c-0.3-0.6-0.5-1.2-0.8-1.8
					c-0.3-0.6-0.5-1.2-0.7-1.8c-0.3-0.6-0.5-1.2-0.7-1.9c-0.2-0.7-0.3-1.3-0.5-1.9c-0.3-1.3-0.6-2.5-0.8-3.9
					C18,38,17.9,36.7,18,35.5c0.1-1.3,0.2-2.5,0.4-3.8c0.2-1.3,0.6-2.5,1.3-3.7c0.7-1,1.5-2,2.4-2.8c1-0.8,2.1-1.2,3.3-1.4
					c1.3-0.1,2.5,0.2,3.6,1c1.1,0.8,1.9,1.7,2.5,2.8c0.4,0.6,0.7,1.2,0.9,1.9c0.2,0.7,0.5,1.3,0.7,2.1c0.1,0.3,0.2,0.7,0.2,1
					c0.1,0.4,0.1,0.7,0.2,1c0.1,0.5,0.1,0.9,0.1,1.1c-0.1,0.1-0.3,0.3-0.7,0.6c-0.3,0.2-0.8,0.4-1.4,0.7c-0.6,0.3-1.1,0.6-1.7,0.9
					c-0.6,0.3-1.1,0.5-1.6,0.7c-0.5,0.2-0.7,0.3-0.8,0.3c-0.2-0.1-0.3-0.2-0.3-0.4s0.1-0.4,0.2-0.7c0.1-0.2,0.1-0.6,0.2-1
					s0.2-1,0.2-1.5C28,33.9,28,33.4,28,33c0-0.5,0-0.8,0-0.9c0-0.6,0-1.3-0.1-2.1c-0.1-0.8-0.3-1.4-0.7-2c-0.1-0.2-0.3-0.4-0.5-0.6
					c-0.2-0.2-0.5-0.2-0.8-0.2c-0.6,0.1-1,0.4-1.3,1.2c-0.1,0.3-0.2,0.6-0.3,1c-0.1,0.4-0.1,0.8-0.2,1.2c0,0.4,0,0.9,0,1.2
					c0,0.4,0,0.7,0,0.9c0,0.7,0,1.4,0.1,2.2c0.1,0.7,0.2,1.5,0.3,2.2c0.2,0.5,0.4,1.1,0.6,1.9c0.2,0.8,0.5,1.5,0.9,2.3
					c0.3,0.8,0.6,1.6,0.9,2.3c0.3,0.7,0.6,1.4,0.9,1.8c0.4,0.7,0.8,1.4,1.2,2.1c0.4,0.7,0.8,1.3,1.1,2.1c0.8,1.3,1.5,2.7,2.2,4
					c0.7,1.4,1.2,2.8,1.7,4.3c0.2,0.7,0.4,1.4,0.5,2.1C34.7,60.8,34.8,61.5,34.8,62.3z"/>
			</g>
		</g>
		<g>
			<g>
				<path class="st1" d="M155.7,52.9v27.2v0.6c0.2,0.9,0.7,1.5,1.6,1.8v0.4h-5.5h-1.3h-0.2h0.2h-0.2h-0.7h-0.1
					c-1.9,0-3.6-0.8-5.1-2.3c-1.5-1.6-2.7-3.7-3.7-6.4c-1-2.7-1.8-5.9-2.3-9.5c-0.5-3.6-0.8-7.5-0.8-11.6s0.2-8,0.6-11.6
					c0.4-3.6,1-6.8,1.8-9.5c0.8-2.7,1.9-4.8,3.1-6.4c1.2-1.6,2.7-2.3,4.3-2.3c1.3,0,2.5,0.5,3.4,1.4c1,0.9,1.7,1.9,2.3,3.1
					c0.6,1.1,1,2.2,1.3,3.2c0.3,1,0.4,1.6,0.5,1.9c0.2,0.2,0.1,0.4-0.3,0.7c-0.3,0.2-0.7,0.5-1.2,0.7c-0.5,0.3-1.1,0.5-1.7,0.8
					c-0.6,0.3-1.1,0.5-1.6,0.7c-0.5,0.2-0.8,0.3-0.8,0.3c-0.1,0.1-0.2,0-0.3,0s-0.2-0.2-0.2-0.3c0-0.2,0.1-0.4,0.2-0.7
					c0.1-0.2,0.1-0.4,0.1-0.7c0.2-1.5,0.2-2.6,0.2-3.3c0-0.7,0-1.3-0.1-1.7c0-0.1,0-0.3-0.1-0.6c-0.1-0.3-0.2-0.6-0.3-0.9
					c-0.1-0.3-0.3-0.6-0.6-0.8c-0.2-0.2-0.5-0.4-0.9-0.4c-0.4,0-0.8,0.2-1.2,0.5c-0.4,0.3-0.5,0.7-0.5,1.2v49.1
					c0,0.4,0.2,0.8,0.5,1.2c0.4,0.3,0.8,0.5,1.2,0.5c0.9,0,1.5-0.4,1.7-1.3V53c0-0.1,0-0.2,0-0.3c0-0.1,0-0.2,0-0.2
					c-0.2-0.9-0.7-1.5-1.6-1.8v-0.4h6.8h1.6h1.6v0.4c-0.9,0.3-1.4,0.9-1.6,1.8V52.9z"/>
			</g>
		</g>
	</g>
	<g>
		<g>
			<path class="st2" d="M48.9,37.8c0,0.1,0.1,0.2,0.1,0.2c0,0.1,0,0.2,0,0.2c0,0.2-0.1,0.2-0.2,0.2c-0.1,0-0.2-0.1-0.2-0.2
				c-0.1-0.1-0.1-0.1-0.2-0.2c-0.6-0.6-1.2-0.9-1.9-1.1c-0.7-0.2-1.3-0.3-1.7-0.3h-0.3c0,2.2-0.1,4.3-0.1,6.1c0,1.8,0,3.9,0,6.2
				c0,2.3,0,4.7,0,7.1v19.4c0,0,0,0.1,0,0.3c0,0.1,0,0.2,0,0.3c0.1,0.7,0.5,1.1,1.2,1.3v0.3h-7.3v-0.3c0.6-0.2,1-0.7,1.2-1.3v-0.4
				L39.5,37v-0.2h-0.4c-0.4,0-1,0.1-1.7,0.3c-0.7,0.2-1.3,0.6-1.9,1.1c-0.1,0-0.2,0.1-0.2,0.2s-0.1,0.1-0.2,0.2
				c-0.2,0-0.2-0.1-0.2-0.2c0-0.1,0-0.2,0-0.2c0-0.1,0.1-0.2,0.1-0.2c0.2-0.3,0.3-0.8,0.5-1.4c0.1-0.7,0.2-1.2,0.3-1.7
				c0-0.1,0-0.2-0.1-0.3c0-0.1,0-0.2,0-0.3c0-0.2,0.1-0.2,0.3-0.2c0.1,0,0.2,0.1,0.3,0.2c0.1,0.1,0.2,0.1,0.3,0.2
				c0.1,0.1,0.3,0.2,0.5,0.3c0.1,0,0.3,0.1,0.8,0.1c0.4,0,0.9,0,1.4,0.1c0.5,0,1,0.1,1.5,0.1s0.8,0,1,0c0.2,0,0.7,0,1.3,0
				c0.6,0,1.2,0,1.7-0.1c0.5,0,0.9-0.1,1.4-0.1s0.7-0.1,0.8-0.1c0.2-0.1,0.4-0.2,0.5-0.3c0.1,0,0.2-0.1,0.3-0.2
				c0.1-0.1,0.2-0.1,0.3-0.2c0.2,0,0.3,0.1,0.3,0.2c0,0.1,0,0.2,0,0.3c0,0.1,0,0.2,0,0.3c0,0.4,0.1,1,0.2,1.7
				C48.6,37,48.8,37.5,48.9,37.8z"/>
		</g>
		<g>
			<path class="st2" d="M63.4,67.8c0,0,0.1-0.1,0.1-0.1c0,0,0,0.1,0.1,0.1v10.5c0,0.2-0.1,0.3-0.2,0.2c-0.7-0.2-1.3-0.6-1.9-1.1
				c-0.6-0.5-1.1-1-1.5-1.7c-0.5-0.6-0.9-1.3-1.3-2c-0.4-0.7-0.7-1.4-1-2.2C57,70,56.5,68.1,56,66.1v9.5v0.2v0.1v0.3
				c0.1,0.7,0.5,1.1,1.2,1.3v0.3h-1.6h-5.7v-0.3c0.6-0.2,1-0.7,1.2-1.3c0-0.1,0-0.1,0-0.2c0,0,0-0.1,0-0.2v-0.1V37.2
				c0-0.5-0.1-0.9-0.2-1.2c-0.1-0.3-0.3-0.6-0.5-0.8c-0.2-0.2-0.4-0.4-0.7-0.5v-0.3h6.1c0.7,0,1.5,0.2,2.3,0.5
				c0.9,0.3,1.7,1,2.5,2.1c0.8,1.1,1.4,2.6,1.9,4.7c0.5,2,0.8,4.8,0.8,8.3c0,1.7-0.1,3.3-0.3,4.6c-0.2,1.4-0.4,2.5-0.7,3.6
				c-0.3,1-0.6,1.9-1,2.6c-0.4,0.7-0.8,1.3-1.2,1.8c-0.9,1.1-2,1.8-3.2,2.1c0.7,1.8,1.3,3.1,2,3.7c0.7,0.6,1.3,1,1.9,1
				c0.6,0,1.1-0.2,1.5-0.6C62.9,68.3,63.2,68,63.4,67.8z M56,62.6c0.6,0,1-0.1,1.3-0.3c0.3-0.2,0.6-0.4,0.7-0.6
				c0.2-0.2,0.3-0.5,0.3-0.9V38.1c0-0.4-0.1-0.8-0.4-0.9c-0.2-0.2-0.5-0.3-0.9-0.4c-0.4-0.1-0.7-0.1-1.2-0.1V62.6z"/>
		</g>
		<g>
			<path class="st2" d="M76.5,76.1c0.1,0.7,0.5,1.1,1.2,1.3v0.3h-6.9v-0.6c0.4-0.4,0.6-0.7,0.6-1v-0.2c0,0,0-0.1,0.1-0.1l-0.5-6
				h-3.2l-0.4,5.8c0,0,0,0.1,0,0.3c0,0.1,0,0.3,0,0.3c0.1,0.7,0.5,1.1,1.2,1.3v0.3h-4.6v-0.3c0.6-0.2,1-0.6,1.2-1.3c0,0,0-0.1,0-0.1
				c0,0,0-0.1,0-0.1v-0.1l1.6-20.5c0.2-2.6,0.4-5.1,0.6-7.5c0.2-2.5,0.4-4.7,0.5-6.6c0.2-1.9,0.3-4.1,0.5-6.5c0-0.1,0.3-0.2,0.8-0.3
				c0.5-0.1,1.1-0.1,1.6-0.1c0.6,0,1.1,0,1.6,0.1c0.5,0.1,0.8,0.2,0.8,0.3c0.2,2.4,0.3,4.5,0.5,6.5c0.2,1.9,0.3,4.1,0.5,6.6
				c0.2,2.4,0.4,4.9,0.6,7.5c0.4,6,1,12.8,1.6,20.4V76.1z M70.8,67.7l-1.6-19.6L68,67.7H70.8z"/>
		</g>
		<g>
			<path class="st2" d="M90.2,62.5c0.1,0.6,0.1,1.1,0.2,1.6c0,0.5,0.1,1,0.1,1.6c0,1.1-0.1,2.3-0.2,3.4c-0.1,1.1-0.3,2.2-0.6,3.3
				c-0.2,1-0.6,2-1.1,2.9c-0.5,0.9-1.2,1.7-2.1,2.3c-0.9,0.6-1.8,0.8-2.9,0.7c-0.4,0-0.9-0.2-1.4-0.5c-0.5-0.3-0.9-0.6-1.2-0.9
				c-0.4-0.4-0.7-0.8-1-1.2c-0.3-0.4-0.5-0.9-0.8-1.3c-0.2-0.3-0.3-0.7-0.5-1.2c-0.2-0.5-0.3-1-0.5-1.5c0-0.2-0.1-0.4-0.2-0.8
				c-0.1-0.3-0.1-0.7-0.2-1.1c-0.1-0.4-0.2-0.7-0.2-1c-0.1-0.3-0.1-0.5-0.1-0.5V68c0,0,0.3-0.2,0.6-0.4c0.4-0.2,0.8-0.5,1.3-0.7
				c0.5-0.3,1-0.5,1.5-0.8c0.5-0.2,0.9-0.4,1.2-0.5c0,0,0.1-0.1,0.1-0.1c0,0,0.1,0,0.2-0.1c0.1,0,0.2,0,0.2,0.1c0,0.1,0,0.3-0.1,0.5
				c0,0.2-0.1,0.3-0.1,0.4c0,0.3-0.1,0.7-0.1,1.2c0,0.4-0.1,0.8-0.1,1c0,0.3-0.1,0.7-0.1,1.3c0,0.6,0,1.2,0,1.8c0,0.7,0,1.3,0.1,1.9
				c0.1,0.6,0.2,1,0.3,1.4c0.1,0.2,0.2,0.4,0.3,0.5c0.1,0.2,0.3,0.3,0.5,0.4c0.4,0.1,0.9,0,1.2-0.4c0.3-0.4,0.5-0.8,0.6-1.3
				c0.1-0.5,0.2-1,0.2-1.5c0-0.4,0-0.9,0-1.5c0-0.6,0-1.3,0-1.9s0-1.3-0.1-1.9c0-0.6-0.1-1-0.1-1.2c-0.1-0.6-0.2-1.1-0.2-1.6
				c-0.1-0.5-0.2-1.1-0.4-1.6c-0.2-0.6-0.4-1.1-0.6-1.6c-0.2-0.5-0.5-1-0.7-1.5c-0.4-1-1-2-1.5-2.9c-0.6-0.9-1.1-1.9-1.6-2.9
				c-0.2-0.4-0.4-0.9-0.6-1.3c-0.2-0.4-0.4-0.9-0.5-1.3c-0.2-0.4-0.4-0.9-0.5-1.4c-0.1-0.5-0.2-0.9-0.4-1.4
				c-0.2-0.9-0.4-1.9-0.6-2.9c-0.2-1-0.2-1.9-0.1-2.9c0.1-0.9,0.2-1.9,0.3-2.8c0.1-0.9,0.4-1.8,1-2.7c0.5-0.8,1.1-1.4,1.8-2
				c0.7-0.6,1.5-0.9,2.5-1c1-0.1,1.8,0.2,2.6,0.8c0.8,0.6,1.4,1.3,1.9,2.1c0.3,0.4,0.5,0.9,0.7,1.4c0.2,0.5,0.4,1,0.5,1.5
				c0.1,0.2,0.1,0.5,0.2,0.8c0,0.3,0.1,0.5,0.1,0.8c0.1,0.4,0.1,0.7,0.1,0.9c0,0.1-0.2,0.2-0.5,0.4c-0.2,0.1-0.6,0.3-1,0.5
				c-0.4,0.2-0.9,0.4-1.3,0.6c-0.4,0.2-0.8,0.4-1.2,0.5c-0.3,0.2-0.5,0.2-0.6,0.2c-0.2,0-0.2-0.1-0.2-0.3s0-0.3,0.1-0.5
				c0-0.2,0.1-0.4,0.2-0.8c0.1-0.3,0.1-0.7,0.2-1.1s0.1-0.8,0.1-1.1c0-0.3,0-0.6,0-0.7c0-0.4,0-1-0.1-1.5c-0.1-0.6-0.2-1.1-0.5-1.5
				c-0.1-0.2-0.2-0.3-0.4-0.4c-0.2-0.1-0.4-0.2-0.6-0.1c-0.4,0-0.8,0.3-1,0.9c-0.1,0.2-0.2,0.4-0.2,0.7c-0.1,0.3-0.1,0.6-0.1,0.9
				c0,0.3,0,0.6,0,0.9c0,0.3,0,0.5,0,0.7c0,0.5,0,1.1,0.1,1.6s0.1,1.1,0.2,1.6c0.1,0.4,0.3,0.8,0.5,1.4c0.2,0.6,0.4,1.1,0.6,1.7
				c0.2,0.6,0.5,1.2,0.7,1.7c0.2,0.5,0.4,1,0.6,1.4c0.3,0.5,0.6,1,0.9,1.5s0.6,1,0.9,1.5c0.6,1,1.1,2,1.6,3c0.5,1,0.9,2.1,1.2,3.2
				c0.2,0.5,0.3,1.1,0.4,1.6C90.1,61.4,90.1,61.9,90.2,62.5z"/>
		</g>
		<g>
			<path class="st2" d="M100.4,48.7c1.8,1.1,3.1,2.9,4,5.4c0.8,2.5,1.2,5.4,1.2,8.7c0,2.1-0.1,4-0.4,5.8c-0.3,1.8-0.7,3.4-1.3,4.8
				c-0.6,1.4-1.4,2.5-2.4,3.2c-1,0.8-2.1,1.2-3.5,1.2h-0.3h-6.4v-0.2c0.5,0,0.9-0.2,1-0.5c0.1-0.2,0.1-0.4,0.1-0.6V35.9
				c0-0.2-0.1-0.4-0.2-0.6C92.1,35.1,92,35,91.8,35c-0.2-0.1-0.4-0.2-0.7-0.2v-0.1h6.1c1.1,0,2.1,0.1,3,0.2c0.9,0.1,1.7,0.5,2.4,1
				c0.7,0.5,1.2,1.2,1.6,2.2c0.4,1,0.6,2.3,0.6,3.9c0,1.1-0.1,2.1-0.4,2.9c-0.3,0.8-0.6,1.4-1.1,2c-0.4,0.5-0.9,0.9-1.4,1.2
				C101.4,48.3,100.9,48.6,100.4,48.7z M100.1,37.4c0-0.2-0.2-0.5-0.7-0.8c-0.5-0.3-1-0.4-1.6-0.4c-0.1,0-0.1,0-0.2,0
				c0,0-0.1,0-0.1,0l-0.1,0.1v10.3c0,0,0,0.1,0,0.1c0,0,0.1,0.1,0.3,0.1c0.7,0,1.2-0.1,1.7-0.4c0.4-0.3,0.6-0.6,0.6-0.9V37.4z
				 M100.1,51.3c0-0.5-0.3-0.9-0.8-1.2c-0.5-0.2-1-0.4-1.5-0.4c-0.1,0-0.1,0-0.2,0.1c0,0-0.1,0.1-0.1,0.1c0,0-0.1,0.1-0.1,0.1v25.5
				c0,0,0,0.1,0,0.2c0,0.2,0.1,0.3,0.3,0.2c0.1,0,0.3,0,0.6-0.1s0.5-0.2,0.8-0.3c0.3-0.1,0.5-0.3,0.7-0.5c0.2-0.2,0.3-0.5,0.3-0.9
				V51.3z"/>
		</g>
		<g>
			<path class="st2" d="M121.3,34.7V35c-0.7,0.2-1.1,0.6-1.2,1.3v0.4v31.8c0,1.4-0.1,2.7-0.3,3.9c-0.2,1.2-0.5,2.3-1,3.1
				s-1.1,1.5-1.9,2c-0.8,0.5-1.7,0.7-2.9,0.7c-0.2,0-0.4,0-0.6,0c-0.2,0-0.5,0-0.7-0.1c-0.2,0-0.6-0.2-1.2-0.4
				c-0.6-0.2-1.2-0.7-1.8-1.5c-0.6-0.8-1.2-1.9-1.7-3.5c-0.5-1.5-0.8-3.6-0.8-6.2v-0.8v-0.3c0-1.1,0-2.6,0-4.5c0-1.9,0-3.8,0-5.9
				c0-2.1,0-4.2,0.1-6.4c0-2.1,0-4.1,0-5.9c0-1.8,0-3.3,0-4.4c0-1.2,0-1.8,0-2c-0.1-0.3-0.2-0.6-0.4-0.9c-0.2-0.3-0.4-0.4-0.7-0.5
				v-0.3h7.3V35c-0.3,0.1-0.5,0.3-0.7,0.5c-0.2,0.3-0.3,0.6-0.4,0.9c0,0-0.1,0.1-0.1,0.2v0.1v29.8c0,0.8,0,1.6,0.1,2.5
				c0,0.9,0.2,1.6,0.3,2.3c0.2,0.7,0.5,1.2,0.9,1.6c0.4,0.4,0.9,0.6,1.5,0.6c0.7,0,1.3-0.3,1.7-0.9c0.4-0.6,0.7-1.3,0.8-2
				c0.2-0.9,0.2-1.8,0.2-3V36.8c0,0,0-0.1,0-0.2c0-0.1,0-0.2-0.1-0.3c-0.1-0.7-0.5-1.1-1.2-1.3v-0.3H121.3z"/>
		</g>
		<g>
			<path class="st2" d="M135,67.8c0,0,0.1-0.1,0.1-0.1c0,0,0,0.1,0.1,0.1v10.5c0,0.2-0.1,0.3-0.2,0.2c-0.7-0.2-1.3-0.6-1.9-1.1
				c-0.6-0.5-1.1-1-1.5-1.7s-0.9-1.3-1.3-2c-0.4-0.7-0.7-1.4-1-2.2c-0.7-1.7-1.3-3.5-1.7-5.5v9.5v0.2v0.1v0.3
				c0.1,0.7,0.5,1.1,1.2,1.3v0.3h-1.6h-5.7v-0.3c0.6-0.2,1-0.7,1.2-1.3c0-0.1,0-0.1,0-0.2c0,0,0-0.1,0-0.2v-0.1V37.2
				c0-0.5-0.1-0.9-0.2-1.2c-0.1-0.3-0.3-0.6-0.5-0.8c-0.2-0.2-0.4-0.4-0.7-0.5v-0.3h6.1c0.7,0,1.5,0.2,2.3,0.5
				c0.9,0.3,1.7,1,2.5,2.1c0.8,1.1,1.4,2.6,1.9,4.7c0.5,2,0.8,4.8,0.8,8.3c0,1.7-0.1,3.3-0.3,4.6c-0.2,1.4-0.4,2.5-0.7,3.6
				c-0.3,1-0.6,1.9-1,2.6c-0.4,0.7-0.8,1.3-1.2,1.8c-0.9,1.1-2,1.8-3.2,2.1c0.7,1.8,1.3,3.1,2,3.7c0.7,0.6,1.3,1,1.9,1
				c0.6,0,1.1-0.2,1.5-0.6C134.5,68.3,134.8,68,135,67.8z M127.6,62.6c0.6,0,1-0.1,1.3-0.3c0.3-0.2,0.6-0.4,0.7-0.6
				c0.2-0.2,0.3-0.5,0.3-0.9V38.1c0-0.4-0.1-0.8-0.4-0.9c-0.2-0.2-0.5-0.3-0.9-0.4c-0.4-0.1-0.7-0.1-1.2-0.1V62.6z"/>
		</g>
	</g>
	<g>
		<g>
			<path class="st2" d="M49.5,144.1c0.1,0.8,0.6,1.4,1.5,1.6v0.4h-8.3v-0.7c0.4-0.4,0.7-0.8,0.7-1.2v-0.3c0,0,0-0.1,0.1-0.1
				l-0.7-7.2h-3.8l-0.4,6.9c0,0,0,0.2,0,0.3c0,0.2,0,0.3,0,0.4c0.1,0.8,0.6,1.4,1.5,1.6v0.4h-5.5v-0.4c0.8-0.2,1.2-0.8,1.4-1.6
				c0,0,0-0.1,0-0.1c0,0,0-0.1,0-0.1v-0.1l1.9-24.5c0.2-3,0.5-6,0.7-9c0.2-2.9,0.4-5.6,0.6-7.9c0.2-2.3,0.4-4.9,0.6-7.7
				c0-0.1,0.3-0.3,0.9-0.3c0.6-0.1,1.3-0.1,2-0.1s1.3,0,2,0.1c0.6,0.1,0.9,0.2,0.9,0.3c0.2,2.8,0.4,5.4,0.6,7.7
				c0.2,2.3,0.4,4.9,0.7,7.8c0.2,2.9,0.5,5.9,0.7,8.9c0.5,7.1,1.2,15.2,2,24.3V144.1z M42.7,134l-2-23.4L39.3,134H42.7z"/>
		</g>
		<g>
			<path class="st2" d="M59.2,96.8l-0.1,46.7c0,0,0,0.1,0,0.3c0,0.1,0,0.3,0,0.4c0.1,0.8,0.6,1.4,1.4,1.6v0.4h-8.8v-0.4
				c0.8-0.2,1.2-0.8,1.4-1.6v-0.3c0,0,0-0.1,0.1-0.1V97c0,0,0-0.1,0-0.3c0-0.1,0-0.3,0-0.4c-0.1-0.8-0.6-1.3-1.4-1.6v-0.4h8.8v0.4
				c-0.8,0.2-1.2,0.8-1.4,1.6V96.8z"/>
		</g>
		<g>
			<path class="st2" d="M74.4,141.1c0.2,0,0.3,0.1,0.3,0.3s-0.1,0.4-0.3,0.6c-0.1,0.1-0.3,0.4-0.4,0.8c-0.1,0.4-0.3,0.8-0.4,1.2
				c-0.1,0.4-0.3,0.9-0.4,1.3c-0.1,0.4-0.2,0.8-0.3,1.1c0,0.1-0.1,0.2-0.1,0.3c0,0.1,0,0.2-0.1,0.3c0,0.1,0,0.2-0.1,0.2
				c-0.1,0-0.2,0-0.3,0s-0.2-0.1-0.3-0.2c-0.1-0.1-0.2-0.2-0.3-0.3c-0.1-0.1-0.3-0.2-0.6-0.4c-0.1,0-0.2-0.1-0.4-0.1
				c-0.2,0-0.4,0-0.7-0.1h-8.7v-0.4c0.8-0.2,1.2-0.7,1.4-1.5V144c0,0,0-0.1,0.1-0.1V96.9c0,0,0-0.2,0-0.3c0-0.2,0-0.3,0-0.3
				c-0.1-0.8-0.6-1.3-1.4-1.6v-0.4h8.8v0.4c-0.8,0.2-1.2,0.8-1.4,1.6v0.4v45.8v0.2h0.4c0.5,0,1.3-0.1,2.2-0.2c0.9-0.1,1.8-0.5,2.6-1
				C74.1,141.2,74.3,141.1,74.4,141.1z"/>
		</g>
		<g>
			<path class="st2" d="M102.1,134.2c0,0,0.1-0.1,0.1-0.1c0,0,0,0.1,0.1,0.1v12.5c0,0.2-0.1,0.3-0.2,0.2c-0.8-0.3-1.6-0.7-2.2-1.3
				c-0.7-0.6-1.3-1.2-1.8-2c-0.6-0.8-1.1-1.6-1.5-2.4c-0.5-0.8-0.9-1.7-1.2-2.6c-0.8-2-1.5-4.2-2-6.6v11.4v0.2v0.1v0.4
				c0.1,0.8,0.6,1.3,1.4,1.6v0.4h-2h-6.8v-0.4c0.8-0.2,1.2-0.8,1.4-1.6c0-0.1,0-0.2,0-0.2c0,0,0-0.1,0-0.2v-0.1v-46
				c0-0.6-0.1-1.1-0.3-1.5c-0.2-0.4-0.4-0.7-0.6-0.9c-0.2-0.2-0.5-0.4-0.8-0.6v-0.4H93c0.8,0,1.7,0.2,2.8,0.6c1,0.4,2,1.2,2.9,2.5
				c0.9,1.3,1.7,3.1,2.3,5.6c0.6,2.4,0.9,5.7,0.9,9.9c0,2.1-0.1,3.9-0.3,5.5c-0.2,1.6-0.5,3-0.9,4.2c-0.4,1.2-0.8,2.2-1.2,3.1
				c-0.4,0.8-0.9,1.6-1.4,2.1c-1.1,1.4-2.4,2.2-3.8,2.5c0.8,2.2,1.6,3.6,2.4,4.4c0.8,0.8,1.6,1.2,2.3,1.2c0.7,0,1.3-0.2,1.8-0.7
				C101.5,134.9,101.8,134.5,102.1,134.2z M93.2,128c0.7,0,1.2-0.1,1.6-0.3c0.4-0.2,0.7-0.5,0.9-0.8s0.3-0.7,0.4-1.1v-27
				c0-0.5-0.1-0.9-0.4-1.1c-0.3-0.2-0.6-0.4-1-0.5c-0.4-0.1-0.9-0.1-1.4-0.1V128z"/>
		</g>
		<g>
			<path class="st2" d="M113.1,94c1.4,0,2.6,0.7,3.7,2.1c1.1,1.4,2,3.3,2.7,5.6s1.3,5.2,1.7,8.4c0.4,3.2,0.6,6.6,0.6,10.3
				c0,3.7-0.2,7.1-0.6,10.3c-0.4,3.2-0.9,6-1.7,8.4s-1.6,4.3-2.7,5.6c-1.1,1.4-2.3,2.1-3.7,2.1c-1.5,0-2.8-0.7-3.9-2.1
				c-1.1-1.4-2-3.3-2.7-5.6c-0.7-2.4-1.3-5.2-1.6-8.4c-0.3-3.2-0.5-6.6-0.5-10.3c0-3.7,0.2-7.1,0.5-10.3c0.4-3.2,0.9-6,1.6-8.4
				s1.6-4.3,2.7-5.6C110.4,94.7,111.6,94,113.1,94z M114.6,99.8c0-0.4-0.1-0.7-0.4-1.1c-0.3-0.3-0.7-0.5-1.1-0.5
				c-0.4,0-0.7,0.2-1.1,0.5c-0.3,0.3-0.5,0.7-0.5,1.1v41.3c0,0.4,0.2,0.7,0.5,1.1c0.3,0.3,0.7,0.5,1.1,0.5c0.4,0,0.8-0.2,1.1-0.5
				s0.4-0.7,0.4-1.1V99.8z"/>
		</g>
		<g>
			<path class="st2" d="M136.6,144.1c0.1,0.8,0.6,1.4,1.5,1.6v0.4h-8.3v-0.7c0.4-0.4,0.7-0.8,0.7-1.2v-0.3c0,0,0-0.1,0.1-0.1
				l-0.7-7.2h-3.8l-0.4,6.9c0,0,0,0.2,0,0.3c0,0.2,0,0.3,0,0.4c0.1,0.8,0.6,1.4,1.5,1.6v0.4h-5.5v-0.4c0.8-0.2,1.2-0.8,1.4-1.6
				c0,0,0-0.1,0-0.1c0,0,0-0.1,0-0.1v-0.1l1.9-24.5c0.2-3,0.5-6,0.7-9c0.2-2.9,0.4-5.6,0.6-7.9c0.2-2.3,0.4-4.9,0.6-7.7
				c0-0.1,0.3-0.3,0.9-0.3c0.6-0.1,1.3-0.1,2-0.1c0.7,0,1.3,0,2,0.1c0.6,0.1,0.9,0.2,0.9,0.3c0.2,2.8,0.4,5.4,0.6,7.7
				c0.2,2.3,0.4,4.9,0.7,7.8c0.2,2.9,0.5,5.9,0.7,8.9c0.5,7.1,1.2,15.2,2,24.3V144.1z M129.8,134l-2-23.4l-1.4,23.4H129.8z"/>
		</g>
	</g>
	<g>
		<g>
			<path class="st2" d="M33.8,61.3c0.1,0.8,0.2,1.5,0.2,2.2c0.1,0.7,0.1,1.4,0.1,2.2c0,1.5-0.1,3.1-0.2,4.6c-0.1,1.5-0.4,3-0.8,4.5
				c-0.3,1.4-0.8,2.7-1.5,3.9C31,80,30,81,28.8,81.8c-1.2,0.8-2.4,1.1-3.9,1c-0.6-0.1-1.2-0.3-1.9-0.6s-1.2-0.8-1.6-1.2
				c-0.5-0.5-0.9-1-1.3-1.6c-0.4-0.6-0.7-1.2-1.1-1.8c-0.2-0.4-0.4-0.9-0.7-1.6c-0.2-0.7-0.4-1.4-0.7-2.1c-0.1-0.2-0.1-0.6-0.2-1
				c-0.1-0.5-0.2-0.9-0.3-1.4c-0.1-0.5-0.2-0.9-0.3-1.3c-0.1-0.4-0.2-0.6-0.2-0.7v-0.7c0.1-0.1,0.3-0.2,0.9-0.5
				c0.5-0.3,1.1-0.6,1.8-1c0.7-0.4,1.4-0.7,2.1-1c0.7-0.3,1.3-0.5,1.6-0.7c0.1-0.1,0.1-0.1,0.2-0.1c0.1,0,0.1,0,0.2-0.1
				c0.2,0,0.2,0.1,0.2,0.2c0,0.2,0,0.4-0.1,0.6c-0.1,0.2-0.1,0.4-0.1,0.5c-0.1,0.4-0.1,1-0.2,1.6c-0.1,0.6-0.1,1.1-0.1,1.4
				c-0.1,0.4-0.1,1-0.1,1.7c0,0.8,0,1.6,0,2.5c0,0.9,0,1.7,0.1,2.5c0.1,0.8,0.2,1.4,0.4,1.8c0.1,0.3,0.3,0.5,0.5,0.7
				c0.2,0.2,0.4,0.4,0.7,0.5c0.6,0.2,1.1,0,1.6-0.5c0.4-0.5,0.7-1.1,0.9-1.8c0.1-0.7,0.2-1.4,0.3-2c0-0.5,0-1.2,0-2.1
				c0-0.8,0-1.7,0-2.6s0-1.7-0.1-2.5c-0.1-0.8-0.1-1.3-0.2-1.6c-0.1-0.8-0.2-1.5-0.3-2.2c-0.1-0.7-0.3-1.5-0.5-2.2
				c-0.2-0.8-0.5-1.5-0.8-2.2c-0.3-0.7-0.6-1.4-0.9-2.1c-0.6-1.4-1.3-2.7-2.1-3.9s-1.5-2.6-2.2-3.9c-0.3-0.6-0.5-1.2-0.8-1.8
				c-0.3-0.6-0.5-1.2-0.7-1.8c-0.3-0.6-0.5-1.2-0.7-1.9c-0.2-0.7-0.3-1.3-0.5-1.9c-0.3-1.3-0.6-2.5-0.8-3.9C17,37,16.9,35.7,17,34.5
				c0.1-1.3,0.2-2.5,0.4-3.8c0.2-1.3,0.6-2.5,1.3-3.7c0.7-1,1.5-2,2.4-2.8c1-0.8,2.1-1.2,3.3-1.4c1.3-0.1,2.5,0.2,3.6,1
				c1.1,0.8,1.9,1.7,2.5,2.8c0.4,0.6,0.7,1.2,0.9,1.9c0.2,0.7,0.5,1.3,0.7,2.1c0.1,0.3,0.2,0.7,0.2,1c0.1,0.4,0.1,0.7,0.2,1
				c0.1,0.5,0.1,0.9,0.1,1.1c-0.1,0.1-0.3,0.3-0.7,0.6c-0.3,0.2-0.8,0.4-1.4,0.7s-1.1,0.6-1.7,0.9c-0.6,0.3-1.1,0.5-1.6,0.7
				c-0.5,0.2-0.7,0.3-0.8,0.3c-0.2-0.1-0.3-0.2-0.3-0.4s0.1-0.4,0.2-0.7c0.1-0.2,0.1-0.6,0.2-1s0.2-1,0.2-1.5C27,32.9,27,32.4,27,32
				c0-0.5,0-0.8,0-0.9c0-0.6,0-1.3-0.1-2.1c-0.1-0.8-0.3-1.4-0.7-2c-0.1-0.2-0.3-0.4-0.5-0.6c-0.2-0.2-0.5-0.2-0.8-0.2
				c-0.6,0.1-1,0.4-1.3,1.2c-0.1,0.3-0.2,0.6-0.3,1c-0.1,0.4-0.1,0.8-0.2,1.2c0,0.4,0,0.9,0,1.2c0,0.4,0,0.7,0,0.9
				c0,0.7,0,1.4,0.1,2.2c0.1,0.7,0.2,1.5,0.3,2.2c0.2,0.5,0.4,1.1,0.6,1.9c0.2,0.8,0.5,1.5,0.9,2.3c0.3,0.8,0.6,1.6,0.9,2.3
				c0.3,0.7,0.6,1.4,0.9,1.8c0.4,0.7,0.8,1.4,1.2,2.1c0.4,0.7,0.8,1.3,1.1,2.1c0.8,1.3,1.5,2.7,2.2,4c0.7,1.4,1.2,2.8,1.7,4.3
				c0.2,0.7,0.4,1.4,0.5,2.1C33.7,59.8,33.8,60.5,33.8,61.3z"/>
		</g>
	</g>
	<g>
		<g>
			<path class="st2" d="M34.1,132.6c0.1-0.1,0.1-0.1,0.2-0.1c0,0.1,0,0.1,0.1,0.2v14.2c0,0.3-0.1,0.4-0.2,0.2
				c-0.9-0.3-1.8-0.8-2.5-1.4c-0.8-0.6-1.5-1.4-2.1-2.3c-0.6-0.9-1.2-1.8-1.7-2.8c-0.5-1-1-1.9-1.4-2.9c-0.9-2.2-1.7-4.7-2.3-7.5
				v12.9v0.2v0.1v0.4c0.2,0.9,0.7,1.5,1.6,1.8v0.4h-2.2h-7.7v-0.4c0.9-0.3,1.4-0.9,1.6-1.8c0-0.1,0-0.2,0-0.2c0,0,0-0.1,0-0.2v-0.1
				V91.2c0-0.7-0.1-1.3-0.3-1.7c-0.2-0.4-0.4-0.8-0.7-1c-0.3-0.3-0.6-0.5-0.9-0.7v-0.4h8.3c0.9,0,2,0.2,3.2,0.7
				c1.2,0.4,2.3,1.4,3.3,2.8c1,1.5,1.9,3.6,2.6,6.3c0.7,2.8,1.1,6.5,1.1,11.2c0,2.4-0.1,4.5-0.4,6.3c-0.2,1.8-0.6,3.4-1,4.8
				c-0.4,1.4-0.9,2.5-1.4,3.5c-0.5,1-1,1.8-1.6,2.4c-1.3,1.5-2.7,2.5-4.3,2.9c0.9,2.5,1.8,4.1,2.7,5c0.9,0.9,1.8,1.3,2.6,1.3
				c0.8,0,1.5-0.3,2.1-0.8C33.4,133.3,33.8,132.9,34.1,132.6z M23.9,125.5c0.8,0,1.4-0.1,1.8-0.4c0.4-0.2,0.8-0.5,1-0.9
				c0.2-0.3,0.4-0.7,0.4-1.2V92.4c0-0.6-0.2-1-0.5-1.3c-0.3-0.2-0.7-0.4-1.2-0.5c-0.5-0.1-1-0.2-1.6-0.2V125.5z"/>
		</g>
	</g>
	<g>
		<g>
			<path class="st2" d="M154.7,51.9v27.2v0.6c0.2,0.9,0.7,1.5,1.6,1.8v0.4h-5.5h-1.3h-0.2h0.2h-0.2h-0.7h-0.1
				c-1.9,0-3.6-0.8-5.1-2.3c-1.5-1.6-2.7-3.7-3.7-6.4c-1-2.7-1.8-5.9-2.3-9.5c-0.5-3.6-0.8-7.5-0.8-11.6s0.2-8,0.6-11.6
				c0.4-3.6,1-6.8,1.8-9.5c0.8-2.7,1.9-4.8,3.1-6.4c1.2-1.6,2.7-2.3,4.3-2.3c1.3,0,2.5,0.5,3.4,1.4c1,0.9,1.7,1.9,2.3,3.1
				c0.6,1.1,1,2.2,1.3,3.2c0.3,1,0.4,1.6,0.5,1.9c0.2,0.2,0.1,0.4-0.3,0.7c-0.3,0.2-0.7,0.5-1.2,0.7c-0.5,0.3-1.1,0.5-1.7,0.8
				c-0.6,0.3-1.1,0.5-1.6,0.7c-0.5,0.2-0.8,0.3-0.8,0.3c-0.1,0.1-0.2,0-0.3,0s-0.2-0.2-0.2-0.3c0-0.2,0.1-0.4,0.2-0.7
				c0.1-0.2,0.1-0.4,0.1-0.7c0.2-1.5,0.2-2.6,0.2-3.3c0-0.7,0-1.3-0.1-1.7c0-0.1,0-0.3-0.1-0.6c-0.1-0.3-0.2-0.6-0.3-0.9
				c-0.1-0.3-0.3-0.6-0.6-0.8c-0.2-0.2-0.5-0.4-0.9-0.4c-0.4,0-0.8,0.2-1.2,0.5c-0.4,0.3-0.5,0.7-0.5,1.2v49.1
				c0,0.4,0.2,0.8,0.5,1.2c0.4,0.3,0.8,0.5,1.2,0.5c0.9,0,1.5-0.4,1.7-1.3V52c0-0.1,0-0.2,0-0.3c0-0.1,0-0.2,0-0.2
				c-0.2-0.9-0.7-1.5-1.6-1.8v-0.4h6.8h1.6h1.6v0.4c-0.9,0.3-1.4,0.9-1.6,1.8V51.9z"/>
		</g>
	</g>
	<g>
		<g>
			<path class="st2" d="M157.1,116.8c0,4-0.2,7.8-0.7,11.3c-0.4,3.5-1.1,6.6-1.9,9.3c-0.8,2.7-1.8,4.8-3,6.3
				c-1.2,1.6-2.6,2.4-4.2,2.4h-0.4h-8.6v-0.4c0.4,0,0.7-0.1,0.9-0.3c0.2-0.2,0.4-0.5,0.5-0.7c0.2-0.3,0.2-0.7,0.2-1.1V90.6
				c0-0.1,0-0.2,0-0.4c0-0.2,0-0.3,0-0.5c-0.2-0.9-0.7-1.5-1.6-1.7v-0.4h7.6c2,0,3.8,0.8,5.2,2.3c1.4,1.5,2.6,3.6,3.5,6.3
				c0.9,2.7,1.5,5.8,1.9,9.3C156.9,109,157.1,112.8,157.1,116.8z M150,94.4c0-0.7-0.1-1.2-0.4-1.6c-0.2-0.4-0.5-0.7-0.9-0.9
				c-0.3-0.2-0.7-0.4-1-0.4c-0.3-0.1-0.6-0.1-0.7-0.1c-0.1,0-0.2,0.1-0.3,0.3c-0.1,0.1-0.1,0.2-0.1,0.3v49.7c0,0.2,0,0.3,0.1,0.4
				c0.1,0.3,0.2,0.4,0.3,0.3c0.2,0,0.5-0.1,0.8-0.2c0.3-0.2,0.7-0.4,1-0.7c0.3-0.3,0.6-0.7,0.8-1.1c0.2-0.5,0.3-1.1,0.3-1.8V94.4z"
				/>
		</g>
	</g>
	<g>
		<g>
			<path class="st2" d="M131.7,92H41.3c-1.9,0-3.5-1.6-3.5-3.5v-3.8c0-1.9,1.6-3.5,3.5-3.5h90.4c1.9,0,3.5,1.6,3.5,3.5v3.8
				C135.2,90.4,133.6,92,131.7,92z"/>
		</g>
	</g>
	<g>
		<g>
			<path class="st3" d="M58.2,87.4l-0.9-0.5c-0.5-0.3-0.9-0.7-1.2-1c-0.2-0.3-0.3-0.7-0.3-1.1c0-0.6,0.2-1.1,0.7-1.5s1-0.6,1.7-0.6
				c0.7,0,1.3,0.2,1.8,0.6v1.3c-0.6-0.6-1.2-0.8-1.9-0.8c-0.4,0-0.7,0.1-0.9,0.3c-0.2,0.2-0.4,0.4-0.4,0.7c0,0.2,0.1,0.5,0.3,0.7
				c0.2,0.2,0.5,0.4,0.9,0.7l0.9,0.5c1,0.6,1.5,1.3,1.5,2.2c0,0.6-0.2,1.2-0.6,1.6c-0.4,0.4-1,0.6-1.7,0.6c-0.8,0-1.5-0.2-2.2-0.7
				v-1.5c0.6,0.8,1.3,1.2,2.2,1.2c0.4,0,0.7-0.1,0.9-0.3c0.2-0.2,0.4-0.4,0.4-0.8C59.3,88.3,58.9,87.8,58.2,87.4z"/>
		</g>
		<g>
			<path class="st3" d="M61.6,82.7h1.1v8h-1.1V82.7z"/>
		</g>
		<g>
			<path class="st3" d="M70.9,82.7H72v8h-1l-5.4-6.2v6.2h-1.1v-8h0.9l5.4,6.2V82.7z"/>
		</g>
		<g>
			<path class="st3" d="M80.6,88.9v1.3c-0.8,0.5-1.8,0.7-2.9,0.7c-0.9,0-1.7-0.2-2.3-0.5c-0.6-0.4-1.1-0.9-1.5-1.5
				c-0.4-0.6-0.5-1.3-0.5-2c0-1.2,0.4-2.1,1.2-2.9c0.8-0.8,1.9-1.2,3.1-1.2c0.8,0,1.8,0.2,2.8,0.7v1.2c-0.9-0.5-1.9-0.8-2.7-0.8
				c-0.9,0-1.7,0.3-2.3,0.9c-0.6,0.6-0.9,1.3-0.9,2.2c0,0.9,0.3,1.6,0.9,2.2c0.6,0.6,1.4,0.8,2.3,0.8C78.7,89.8,79.7,89.5,80.6,88.9
				z"/>
		</g>
		<g>
			<path class="st3" d="M82,82.7h4.5v1h-3.4v2.4h3.3v1h-3.3v2.5h3.5v1H82V82.7z"/>
		</g>
		<g>
			<path class="st3" d="M92.7,82.7h1.1v8h-1.1V82.7z"/>
		</g>
		<g>
			<path class="st3" d="M96.7,84.9c0-0.6,0.2-1.2,0.7-1.6c0.5-0.4,1-0.7,1.7-0.7c0.7,0,1.2,0.2,1.7,0.7c0.5,0.4,0.7,1,0.7,1.6
				c0,0.7-0.3,1.3-1,1.8c0.7,0.4,1.1,1.1,1.1,1.9c0,0.7-0.2,1.2-0.7,1.6c-0.5,0.4-1.1,0.6-1.8,0.6c-0.7,0-1.3-0.2-1.8-0.7
				c-0.5-0.4-0.7-1-0.7-1.6c0-0.8,0.4-1.4,1.1-1.9c-0.3-0.3-0.6-0.5-0.7-0.8C96.8,85.6,96.7,85.3,96.7,84.9z M100.5,88.6v-0.1
				c0-0.4-0.1-0.7-0.4-0.9c-0.3-0.2-0.6-0.3-1-0.3c-0.4,0-0.7,0.1-1,0.3c-0.3,0.2-0.4,0.5-0.4,0.9c0,0.4,0.1,0.7,0.4,0.9
				c0.3,0.2,0.6,0.4,1,0.4c0.4,0,0.7-0.1,1-0.3C100.4,89.2,100.5,88.9,100.5,88.6z M100.4,84.9c0-0.3-0.1-0.6-0.4-0.9
				c-0.2-0.2-0.5-0.3-0.9-0.3c-0.4,0-0.7,0.1-0.9,0.3c-0.2,0.2-0.4,0.5-0.4,0.9c0,0.3,0.1,0.6,0.4,0.9c0.3,0.2,0.6,0.4,0.9,0.4
				c0.3,0,0.6-0.1,0.9-0.4C100.3,85.5,100.4,85.3,100.4,84.9z"/>
		</g>
		<g>
			<path class="st3" d="M104.1,86.1L104.1,86.1c0.6,0,0.9-0.1,1.2-0.3c0.3-0.2,0.4-0.5,0.4-0.9c0-0.4-0.1-0.6-0.4-0.9
				c-0.3-0.2-0.6-0.3-1-0.3c-0.4,0-0.9,0.1-1.4,0.4V83c0.5-0.2,1-0.3,1.5-0.3c0.7,0,1.3,0.2,1.7,0.6s0.6,0.9,0.6,1.6
				c0,0.4-0.1,0.7-0.2,1c-0.2,0.3-0.4,0.5-0.8,0.7c0.3,0.1,0.5,0.3,0.7,0.4c0.1,0.2,0.3,0.4,0.3,0.6c0.1,0.2,0.1,0.5,0.1,0.8
				c0,0.7-0.2,1.3-0.7,1.7c-0.5,0.5-1.1,0.7-1.8,0.7c-0.6,0-1.2-0.1-1.8-0.4v-1.2c0.6,0.4,1.2,0.6,1.8,0.6c0.4,0,0.7-0.1,0.9-0.3
				c0.2-0.2,0.4-0.5,0.4-0.9c0-0.3-0.1-0.6-0.3-0.8c-0.1-0.1-0.2-0.2-0.4-0.3c-0.1-0.1-0.4-0.1-0.9-0.2l-0.1,0V86.1z"/>
		</g>
		<g>
			<path class="st3" d="M110.3,89.6h3v1.1h-5.1v-0.1l0.5-0.6c0.8-0.9,1.4-1.7,1.8-2.4c0.4-0.7,0.7-1.1,0.9-1.5
				c0.1-0.3,0.2-0.7,0.2-1c0-0.4-0.1-0.8-0.4-1.1c-0.3-0.3-0.6-0.4-1-0.4c-0.3,0-0.6,0.1-0.9,0.3c-0.3,0.2-0.6,0.5-0.8,0.8v-1.5
				c0.6-0.5,1.3-0.8,1.9-0.8c0.7,0,1.3,0.2,1.7,0.7c0.4,0.5,0.7,1.1,0.7,1.8c0,0.3-0.1,0.7-0.2,1c-0.1,0.4-0.3,0.8-0.6,1.3
				c-0.3,0.5-0.8,1.1-1.5,1.9L110.3,89.6z"/>
		</g>
	</g>
	<g>
		<g>
			<circle class="st2" cx="80" cy="116.7" r="4.1"/>
		</g>
	</g>
</g>
</svg>
