<?xml version="1.0" encoding="utf-8"?>
<!-- Generator: Adobe Illustrator 21.0.0, SVG Export Plug-In . SVG Version: 6.00 Build 0)  -->
<svg version="1.1" id="Layer_1" xmlns="http://www.w3.org/2000/svg" xmlns:xlink="http://www.w3.org/1999/xlink" x="0px" y="0px"
	 viewBox="0 0 65.8 65.8" style="enable-background:new 0 0 65.8 65.8;" xml:space="preserve">
<style type="text/css">
	.st0{fill:#FFFFFF;stroke:#000000;stroke-miterlimit:10;}
	.st1{fill:#FFFFFF;stroke:#FFFFFF;stroke-miterlimit:10;}
	.st2{fill:none;stroke:#BE2026;stroke-width:2;stroke-miterlimit:10;}
	.st3{fill:#FFDEA7;}
	.st4{fill:#BE2026;}
	.st5{fill:#1C94D2;stroke:#FFFFFF;stroke-miterlimit:10;}
	.st6{fill:#FFFFFF;}
	.st7{fill:#00AFAD;stroke:#FFFFFF;stroke-miterlimit:10;}
	.st8{fill:#FFFFFF;stroke:#000000;stroke-width:0.25;stroke-miterlimit:10;}
	.st9{fill:#06884B;}
	.st10{fill:#BEC8CC;stroke:#FFFFFF;stroke-miterlimit:10;}
	.st11{clip-path:url(#SVGID_2_);}
	.st12{fill:#E22126;stroke:#FBE904;stroke-width:0.75;stroke-miterlimit:10;}
	.st13{fill:#191817;}
	.st14{fill:#FBE904;}
	.st15{fill:#E63229;}
	.st16{fill:#FEF16E;stroke:#FFFFFF;stroke-miterlimit:10;}
	.st17{fill:#1F4180;}
	.st18{fill:none;stroke:#E21E26;stroke-width:2;stroke-miterlimit:10;}
	.st19{fill:#E96F2B;}
	.st20{fill:#F29220;}
	.st21{fill:#EF8322;}
	.st22{fill:#EE3F80;}
	.st23{fill:#F1A847;}
	.st24{fill:#FDBA3A;}
	.st25{clip-path:url(#SVGID_4_);}
	.st26{fill:#383635;}
	.st27{clip-path:url(#SVGID_6_);}
	.st28{fill:#181A10;stroke:#FFFFFF;stroke-miterlimit:10;}
	.st29{fill:#EF4323;stroke:#FFFFFF;stroke-miterlimit:10;}
	.st30{fill:#BEDB86;stroke:#FFFFFF;stroke-miterlimit:10;}
	.st31{fill:#FFFFFF;stroke:#000000;stroke-width:0.5;stroke-miterlimit:10;}
	.st32{fill:#E38328;stroke:#FFFFFF;stroke-miterlimit:10;}
	.st33{fill:#020202;}
	.st34{fill:none;stroke:#FFFFFF;stroke-miterlimit:10;}
	.st35{fill:#BFDEF3;stroke:#FFFFFF;stroke-miterlimit:10;}
	.st36{fill:#994573;}
	.st37{fill:#F6F6F6;}
	.st38{fill:#8F4199;stroke:#FFFFFF;stroke-miterlimit:10;}
	.st39{fill:#175633;}
	.st40{fill:#984D2D;}
</style>
<circle class="st1" cx="32.9" cy="32.9" r="32.4"/>
<g>
	<g>
		<g>
			<path class="st17" d="M49.1,30.5L49.1,30.5c0,1.4,0,2.7,0,4.1c0,1.6,0.6,2,1.9,1.1c1.1-0.8,2.1-1.8,2.8-3
				c1.6-2.7,0.1-6.5-2.9-7.5c-1.2-0.4-1.8,0-1.8,1.2C49.1,27.8,49.1,29.2,49.1,30.5z M46.3,30.6L46.3,30.6c0-1.4,0-2.9,0-4.3
				c0-1.5-0.4-1.8-1.9-1.8c-1.4,0-1.8,0.4-1.8,1.8c0,2.9,0,5.8,0,8.8c0,1.4,0.9,1.4,1.8,1.5c1,0,1.9-0.2,1.8-1.5
				C46.2,33.6,46.3,32.1,46.3,30.6z M18.7,30.8c0,0,0,3,0,4.6c0,1,0.5,1.2,1.3,0.8c0.9-0.5,1.8-1.1,2.6-1.8c1.5-1.2,1.9-2.9,1.5-4.7
				c-0.4-2.1-1.6-3.8-3.6-4.5c-1.2-0.4-1.8,0.1-1.8,1.4C18.7,28,18.7,29.4,18.7,30.8z M43.8,44.8c-0.5,0.1-1,0.2-1.5,0.2
				c-1.7,0-3.5,0-5.2,0c-0.3,0-0.6-0.3-0.9-0.4c0.2-0.2,0.5-0.4,0.7-0.6c0.3-0.4,0.9-0.9,0.9-1.3c0-5.5,0-11-0.1-16.5
				c0-0.4-0.5-0.9-0.9-1.3c-0.2-0.3-0.4-0.5-0.6-0.7c0.3-0.2,0.6-0.4,0.9-0.4c2.4,0,4.7,0,7.1,0c1.6,0,2-0.4,2-1.9
				c0-1.8,0-3.6-0.2-5.3c-0.5-3.1-2-5.6-4.5-7.6c-0.3-0.2-0.4-0.8-0.5-1.3c0.4,0,0.9-0.1,1.3,0.1c4.9,2,9,5.1,12.1,9.5
				c0.3,0.4,0.3,0.9,0.4,1.4c-0.5,0-1.1,0.2-1.5,0.1c-2.4-0.5-4.1,0.8-4.1,3.2c0,1,0.4,1.6,1.6,1.7c4.5,0.2,7.6,3,8,7.1
				c0.2,2.1-0.6,3.8-2.1,5.2c-2.2,2.1-2,1.4-0.8,4.1c0.4,0.9,0.8,1.8,1.3,2.6c0.4,0.5,1,0.9,1.5,1.4c0.3,0.3,0.5,0.5,0.9,1
				c-2,0-3.6,0.1-5.2,0c-0.4,0-1-0.6-1.2-1.1c-0.7-1.4-1.4-2.9-2.1-4.3c-0.2-0.5-0.6-0.9-1-1.4c-0.2,0-0.3,0-0.4,0.1
				c-0.2,0.6-0.4,1.2-0.4,1.8c-0.1,1.3,0,2.5,0,3.8c-0.1,2.7,0.9,4.6,3.6,5.4c-8.9,11.3-29.5,13.2-40.3,0c0.7-0.4,1.5-0.7,2-1.3
				c0.7-0.8,1.3-1.8,1.4-2.7c0.3-2,0.3-4,0.2-5.9c0-1.2-0.8-1.6-2.1-1.6c-1.2,0-1.6,0.6-1.6,1.8c0,0.7,0,1.5,0,2.3
				c0,1-0.1,2,1.2,2.3c0.2,0,0.4,0.4,0.3,0.4c-0.1,0.2-0.3,0.4-0.5,0.4c-2.2,0-4.4,0-6.6,0c-0.2,0-0.5-0.3-0.5-0.4
				c0-0.2,0.2-0.6,0.4-0.7c1.2-0.3,1.1-1.1,1.1-2.1c0-5.1,0.1-10.2,0.1-15.2c0-0.8-0.1-1.5-1-1.9c-0.2-0.1-0.4-0.4-0.6-0.7
				c0.3-0.2,0.6-0.5,0.9-0.5c2,0,4,0,6,0c2.1,0,2.9-0.4,3-1.6c0.1-2.1-1.1-3.8-2.9-3.9c-0.5,0-1.1,0.2-1.6,0.1
				c-0.5-0.1-1.1-0.2-1.4-0.5c-0.2-0.2,0-0.9,0.2-1.2c2-3,4.8-5.1,7.9-6.9c1.4-0.8,2.7-1.5,4.1-2.2c0.4-0.2,0.9,0,1.3-0.1
				c-0.1,0.5,0,1-0.3,1.4c-1.2,2-2.5,3.8-3.6,5.8c-1.3,2.4-1.2,5.1-1.1,7.7c0,1.1,1.1,1.2,1.9,1.2c2.7,0.2,4.9,1.3,6.6,3.5
				c2,2.7,1.8,6.1-0.7,8.4c-1.8,1.7-1.8,1.7-0.6,3.8c0.6,1.1,1.1,2.3,1.8,3.4c0.4,0.6,1.1,1.1,1.6,1.6c0.2,0.2,0.3,0.4,0.5,0.7
				c-0.2,0.1-0.4,0.4-0.6,0.4c-1.6,0-3.1,0-4.7-0.1c-0.4,0-0.9-0.5-1.1-0.9c-1-1.6-2-3.3-3-4.9c-0.2-0.3-0.7-0.5-1-0.7
				c-0.3,0.4-0.7,0.7-0.7,1.1c-0.6,6.8,2,10.5,7.6,13.6c2.5,1.4,5.3,1.1,8,1c6.4-0.3,12-6.8,11.8-13c0-0.4,0-0.8,0-1.1
				c0-1.9-1.1-2.7-2.9-1.9c-0.4,0.2-0.7,0.8-0.8,1.3c-0.1,1.1-0.2,2.3,0,3.4C42.7,43.3,43.3,43.9,43.8,44.8z M16.2,30.6
				c0-1.5,0-3,0-4.4c0-1.1-0.5-1.6-1.6-1.7c-1.4-0.1-2.1,0.4-2.2,2c-0.1,2.9,0,5.7-0.1,8.6c0,1.4,0.8,1.5,1.8,1.5c1.4,0,2-0.4,2-1.5
				C16.1,33.6,16.1,30.6,16.2,30.6z"/>
		</g>
	</g>
</g>
<circle class="st18" cx="32.9" cy="32.9" r="30.5"/>
</svg>
