<svg xmlns="http://www.w3.org/2000/svg" viewBox="0 0 65.8 65.8"><style/><circle cx="32.9" cy="32.9" r="32.4" fill="#fff" stroke="#fff" stroke-miterlimit="10"/><path d="M49.1 30.5v4.1c0 1.6.6 2 1.9 1.1 1.1-.8 2.1-1.8 2.8-3 1.6-2.7.1-6.5-2.9-7.5-1.2-.4-1.8 0-1.8 1.2v4.1zm-2.8.1v-4.3c0-1.5-.4-1.8-1.9-1.8-1.4 0-1.8.4-1.8 1.8v8.8c0 1.4.9 1.4 1.8 1.5 1 0 1.9-.2 1.8-1.5 0-1.5.1-3 .1-4.5zm-27.6.2v4.6c0 1 .5 1.2 1.3.8.9-.5 1.8-1.1 2.6-1.8 1.5-1.2 1.9-2.9 1.5-4.7-.4-2.1-1.6-3.8-3.6-4.5-1.2-.4-1.8.1-1.8 1.4v4.2zm25.1 14c-.5.1-1 .2-1.5.2h-5.2c-.3 0-.6-.3-.9-.4.2-.2.5-.4.7-.6.3-.4.9-.9.9-1.3 0-5.5 0-11-.1-16.5 0-.4-.5-.9-.9-1.3-.2-.3-.4-.5-.6-.7.3-.2.6-.4.9-.4h7.1c1.6 0 2-.4 2-1.9 0-1.8 0-3.6-.2-5.3-.5-3.1-2-5.6-4.5-7.6-.3-.2-.4-.8-.5-1.3.4 0 .9-.1 1.3.1 4.9 2 9 5.1 12.1 9.5.3.4.3.9.4 1.4-.5 0-1.1.2-1.5.1-2.4-.5-4.1.8-4.1 3.2 0 1 .4 1.6 1.6 1.7 4.5.2 7.6 3 8 7.1.2 2.1-.6 3.8-2.1 5.2-2.2 2.1-2 1.4-.8 4.1.4.9.8 1.8 1.3 2.6.4.5 1 .9 1.5 1.4.3.3.5.5.9 1-2 0-3.6.1-5.2 0-.4 0-1-.6-1.2-1.1-.7-1.4-1.4-2.9-2.1-4.3-.2-.5-.6-.9-1-1.4-.2 0-.3 0-.4.1-.2.6-.4 1.2-.4 1.8-.1 1.3 0 2.5 0 3.8-.1 2.7.9 4.6 3.6 5.4-8.9 11.3-29.5 13.2-40.3 0 .7-.4 1.5-.7 2-1.3.7-.8 1.3-1.8 1.4-2.7.3-2 .3-4 .2-5.9 0-1.2-.8-1.6-2.1-1.6-1.2 0-1.6.6-1.6 1.8V42c0 1-.1 2 1.2 2.3.2 0 .4.4.3.4-.1.2-.3.4-.5.4H6.9c-.2 0-.5-.3-.5-.4 0-.2.2-.6.4-.7 1.2-.3 1.1-1.1 1.1-2.1 0-5.1.1-10.2.1-15.2 0-.8-.1-1.5-1-1.9-.2-.1-.4-.4-.6-.7.3-.2.6-.5.9-.5h6c2.1 0 2.9-.4 3-1.6.1-2.1-1.1-3.8-2.9-3.9-.5 0-1.1.2-1.6.1s-1.1-.2-1.4-.5c-.2-.2 0-.9.2-1.2 2-3 4.8-5.1 7.9-6.9 1.4-.8 2.7-1.5 4.1-2.2.4-.2.9 0 1.3-.1-.1.5 0 1-.3 1.4-1.2 2-2.5 3.8-3.6 5.8-1.3 2.4-1.2 5.1-1.1 7.7 0 1.1 1.1 1.2 1.9 1.2 2.7.2 4.9 1.3 6.6 3.5 2 2.7 1.8 6.1-.7 8.4-1.8 1.7-1.8 1.7-.6 3.8.6 1.1 1.1 2.3 1.8 3.4.4.6 1.1 1.1 1.6 1.6.2.2.3.4.5.7-.2.1-.4.4-.6.4-1.6 0-3.1 0-4.7-.1-.4 0-.9-.5-1.1-.9-1-1.6-2-3.3-3-4.9-.2-.3-.7-.5-1-.7-.3.4-.7.7-.7 1.1-.6 6.8 2 10.5 7.6 13.6 2.5 1.4 5.3 1.1 8 1 6.4-.3 12-6.8 11.8-13v-1.1c0-1.9-1.1-2.7-2.9-1.9-.4.2-.7.8-.8 1.3-.1 1.1-.2 2.3 0 3.4.1.3.7.9 1.2 1.8zM16.2 30.6v-4.4c0-1.1-.5-1.6-1.6-1.7-1.4-.1-2.1.4-2.2 2-.1 2.9 0 5.7-.1 8.6 0 1.4.8 1.5 1.8 1.5 1.4 0 2-.4 2-1.5 0-1.5 0-4.5.1-4.5z" fill="#1f4180"/><circle cx="32.9" cy="32.9" r="30.5" fill="none" stroke="#e21e26" stroke-width="2" stroke-miterlimit="10"/></svg>