<svg xmlns="http://www.w3.org/2000/svg" viewBox="0 0 65.8 65.8"><style/><circle cx="32.9" cy="32.9" r="32.4" fill="#1c94d2" stroke="#fff" stroke-miterlimit="10"/><path d="M32.9 6.6C18.4 6.6 6.6 18.4 6.6 32.9s11.8 26.2 26.2 26.2S59 47.3 59 32.9 47.4 6.6 32.9 6.6zM21.5 50c-1.2-.6-2.2-1.6-3.2-2.5-1.5-1.5-2.8-3.1-3.8-4.9-1.7-3-2.5-6.2-2.6-9.8 0-3.2.7-6.4 2.3-9.4.1-.2.1-.4.4-.4.2 0 .2.3.3.4 2 3.8 3.4 7.8 4.6 11.9.7 2.4 1.3 4.8 1.7 7.3.3 1.9.6 3.8.6 5.7 0 .5.1 1 .1 1.5.1.4-.1.4-.4.2zm4.2-19.9c-.1.2-.1.3-.2.6-.4-1.3-.9-2.4-1.3-3.4-1.2-3.1-2.6-6.1-4.1-9-.7-1.3-.7-1.3.5-2.2 2.4-1.7 5.1-2.8 8-3.3.4-.1.5.1.5.4-.1 2.8-.6 5.6-1.3 8.3-.7 2.8-1.4 5.8-2.1 8.6zM36.3 53c-1.2.2-2.5.3-3.7.4-1 0-2-.1-3-.2-.5 0-.7-.3-.6-.8.2-2.1.5-4.3.8-6.4.6-3.6 1.3-7.2 2.1-10.7.1-.4.2-.7.4-1 .2-.4.4-.4.7 0 .3.5.4 1.1.6 1.7.7 2.5 1.4 4.9 1.9 7.4.4 1.8.8 3.5 1 5.3.2 1.3.4 2.5.4 3.7 0 .4-.2.5-.6.6zm3.8-22.7c-.2.2-.2.4-.4.9-.3-1.1-.7-2.1-.9-3.1-.4-1.6-.9-3.3-1.3-4.9-.4-1.3-.8-2.7-1.1-4.1-.3-1.3-.4-2.7-.5-4.1-.1-.6-.3-1.2-.2-1.9 0-.3.1-.4.5-.4 3.3.6 6.3 2 9 4.1.3.2.2.4.1.6-1 1.9-1.9 3.9-2.8 5.9-.8 2.3-1.6 4.6-2.4 7zM48.4 46c-1.3 1.5-2.7 2.8-4.3 3.9-.1.1-.3.2-.4.2-.2-.1-.1-.3-.1-.4l.3-4.5c.2-1.7.4-3.4.7-5.1.5-2.8 1.1-5.6 2-8.2.9-2.8 1.9-5.6 3.2-8.3l.3-.6c.3.2.4.5.6.8 1.3 2.1 1.9 4.4 2.2 6.8.4 2.8.1 5.5-.7 8.2-.6 2.6-2 5-3.8 7.2z" fill="#fff"/></svg>