<?xml version="1.0" encoding="utf-8"?>
<!-- Generator: Adobe Illustrator 21.0.0, SVG Export Plug-In . SVG Version: 6.00 Build 0)  -->
<svg version="1.1" id="Layer_1" xmlns="http://www.w3.org/2000/svg" xmlns:xlink="http://www.w3.org/1999/xlink" x="0px" y="0px"
	 viewBox="0 0 65.8 65.8" style="enable-background:new 0 0 65.8 65.8;" xml:space="preserve">
<style type="text/css">
	.st0{fill:#FFFFFF;stroke:#000000;stroke-miterlimit:10;}
	.st1{fill:#FFFFFF;stroke:#FFFFFF;stroke-miterlimit:10;}
	.st2{fill:none;stroke:#BE2026;stroke-width:2;stroke-miterlimit:10;}
	.st3{fill:#FFDEA7;}
	.st4{fill:#BE2026;}
	.st5{fill:#1C94D2;stroke:#FFFFFF;stroke-miterlimit:10;}
	.st6{fill:#FFFFFF;}
	.st7{fill:#00AFAD;stroke:#FFFFFF;stroke-miterlimit:10;}
	.st8{fill:#FFFFFF;stroke:#000000;stroke-width:0.25;stroke-miterlimit:10;}
	.st9{fill:#06884B;}
	.st10{fill:#BEC8CC;stroke:#FFFFFF;stroke-miterlimit:10;}
	.st11{clip-path:url(#SVGID_2_);}
	.st12{fill:#E22126;stroke:#FBE904;stroke-width:0.75;stroke-miterlimit:10;}
	.st13{fill:#191817;}
	.st14{fill:#FBE904;}
	.st15{fill:#E63229;}
	.st16{fill:#FEF16E;stroke:#FFFFFF;stroke-miterlimit:10;}
	.st17{fill:#1F4180;}
	.st18{fill:none;stroke:#E21E26;stroke-width:2;stroke-miterlimit:10;}
	.st19{fill:#E96F2B;}
	.st20{fill:#F29220;}
	.st21{fill:#EF8322;}
	.st22{fill:#EE3F80;}
	.st23{fill:#F1A847;}
	.st24{fill:#FDBA3A;}
	.st25{clip-path:url(#SVGID_4_);}
	.st26{fill:#383635;}
	.st27{clip-path:url(#SVGID_6_);}
	.st28{fill:#181A10;stroke:#FFFFFF;stroke-miterlimit:10;}
	.st29{fill:#EF4323;stroke:#FFFFFF;stroke-miterlimit:10;}
	.st30{fill:#BEDB86;stroke:#FFFFFF;stroke-miterlimit:10;}
	.st31{fill:#FFFFFF;stroke:#000000;stroke-width:0.5;stroke-miterlimit:10;}
	.st32{fill:#E38328;stroke:#FFFFFF;stroke-miterlimit:10;}
	.st33{fill:#020202;}
	.st34{fill:none;stroke:#FFFFFF;stroke-miterlimit:10;}
	.st35{fill:#BFDEF3;stroke:#FFFFFF;stroke-miterlimit:10;}
	.st36{fill:#994573;}
	.st37{fill:#F6F6F6;}
	.st38{fill:#8F4199;stroke:#FFFFFF;stroke-miterlimit:10;}
	.st39{fill:#175633;}
	.st40{fill:#984D2D;}
</style>
<circle class="st5" cx="32.9" cy="32.9" r="32.4"/>
<path class="st6" d="M32.9,6.6C18.4,6.6,6.6,18.4,6.6,32.9s11.8,26.2,26.2,26.2s26.2-11.8,26.2-26.2S47.4,6.6,32.9,6.6z M21.5,50
	c-1.2-0.6-2.2-1.6-3.2-2.5c-1.5-1.5-2.8-3.1-3.8-4.9c-1.7-3-2.5-6.2-2.6-9.8c0-3.2,0.7-6.4,2.3-9.4c0.1-0.2,0.1-0.4,0.4-0.4
	c0.2,0,0.2,0.3,0.3,0.4c2,3.8,3.4,7.8,4.6,11.9c0.7,2.4,1.3,4.8,1.7,7.3c0.3,1.9,0.6,3.8,0.6,5.7c0,0.5,0.1,1,0.1,1.5
	C22,50.2,21.8,50.2,21.5,50z M25.7,30.1c-0.1,0.2-0.1,0.3-0.2,0.6c-0.4-1.3-0.9-2.4-1.3-3.4c-1.2-3.1-2.6-6.1-4.1-9
	c-0.7-1.3-0.7-1.3,0.5-2.2c2.4-1.7,5.1-2.8,8-3.3c0.4-0.1,0.5,0.1,0.5,0.4c-0.1,2.8-0.6,5.6-1.3,8.3C27.1,24.3,26.4,27.3,25.7,30.1z
	 M36.3,53c-1.2,0.2-2.5,0.3-3.7,0.4c-1,0-2-0.1-3-0.2c-0.5,0-0.7-0.3-0.6-0.8c0.2-2.1,0.5-4.3,0.8-6.4c0.6-3.6,1.3-7.2,2.1-10.7
	c0.1-0.4,0.2-0.7,0.4-1c0.2-0.4,0.4-0.4,0.7,0c0.3,0.5,0.4,1.1,0.6,1.7c0.7,2.5,1.4,4.9,1.9,7.4c0.4,1.8,0.8,3.5,1,5.3
	c0.2,1.3,0.4,2.5,0.4,3.7C36.9,52.8,36.7,52.9,36.3,53z M40.1,30.3c-0.2,0.2-0.2,0.4-0.4,0.9c-0.3-1.1-0.7-2.1-0.9-3.1
	c-0.4-1.6-0.9-3.3-1.3-4.9c-0.4-1.3-0.8-2.7-1.1-4.1c-0.3-1.3-0.4-2.7-0.5-4.1c-0.1-0.6-0.3-1.2-0.2-1.9c0-0.3,0.1-0.4,0.5-0.4
	c3.3,0.6,6.3,2,9,4.1c0.3,0.2,0.2,0.4,0.1,0.6c-1,1.9-1.9,3.9-2.8,5.9C41.7,25.6,40.9,27.9,40.1,30.3z M48.4,46
	c-1.3,1.5-2.7,2.8-4.3,3.9c-0.1,0.1-0.3,0.2-0.4,0.2c-0.2-0.1-0.1-0.3-0.1-0.4c0.1-1.5,0.2-3,0.3-4.5c0.2-1.7,0.4-3.4,0.7-5.1
	c0.5-2.8,1.1-5.6,2-8.2c0.9-2.8,1.9-5.6,3.2-8.3c0.1-0.2,0.2-0.4,0.3-0.6c0.3,0.2,0.4,0.5,0.6,0.8c1.3,2.1,1.9,4.4,2.2,6.8
	c0.4,2.8,0.1,5.5-0.7,8.2C51.6,41.4,50.2,43.8,48.4,46z"/>
</svg>
