<?xml version="1.0" encoding="utf-8"?>
<!-- Generator: Adobe Illustrator 21.0.0, SVG Export Plug-In . SVG Version: 6.00 Build 0)  -->
<svg version="1.1" id="Layer_1" xmlns="http://www.w3.org/2000/svg" xmlns:xlink="http://www.w3.org/1999/xlink" x="0px" y="0px"
	 viewBox="0 0 65.8 65.8" style="enable-background:new 0 0 65.8 65.8;" xml:space="preserve">
<style type="text/css">
	.st0{fill:#FFFFFF;stroke:#000000;stroke-miterlimit:10;}
	.st1{fill:#FFFFFF;stroke:#FFFFFF;stroke-miterlimit:10;}
	.st2{fill:none;stroke:#BE2026;stroke-width:2;stroke-miterlimit:10;}
	.st3{fill:#FFDEA7;}
	.st4{fill:#BE2026;}
	.st5{fill:#1C94D2;stroke:#FFFFFF;stroke-miterlimit:10;}
	.st6{fill:#FFFFFF;}
	.st7{fill:#00AFAD;stroke:#FFFFFF;stroke-miterlimit:10;}
	.st8{fill:#FFFFFF;stroke:#000000;stroke-width:0.25;stroke-miterlimit:10;}
	.st9{fill:#06884B;}
	.st10{fill:#BEC8CC;stroke:#FFFFFF;stroke-miterlimit:10;}
	.st11{clip-path:url(#SVGID_2_);}
	.st12{fill:#E22126;stroke:#FBE904;stroke-width:0.75;stroke-miterlimit:10;}
	.st13{fill:#191817;}
	.st14{fill:#FBE904;}
	.st15{fill:#E63229;}
	.st16{fill:#FEF16E;stroke:#FFFFFF;stroke-miterlimit:10;}
	.st17{fill:#1F4180;}
	.st18{fill:none;stroke:#E21E26;stroke-width:2;stroke-miterlimit:10;}
	.st19{fill:#E96F2B;}
	.st20{fill:#F29220;}
	.st21{fill:#EF8322;}
	.st22{fill:#EE3F80;}
	.st23{fill:#F1A847;}
	.st24{fill:#FDBA3A;}
	.st25{clip-path:url(#SVGID_4_);}
	.st26{fill:#383635;}
	.st27{clip-path:url(#SVGID_6_);}
	.st28{fill:#181A10;stroke:#FFFFFF;stroke-miterlimit:10;}
	.st29{fill:#EF4323;stroke:#FFFFFF;stroke-miterlimit:10;}
	.st30{fill:#BEDB86;stroke:#FFFFFF;stroke-miterlimit:10;}
	.st31{fill:#FFFFFF;stroke:#000000;stroke-width:0.5;stroke-miterlimit:10;}
	.st32{fill:#E38328;stroke:#FFFFFF;stroke-miterlimit:10;}
	.st33{fill:#020202;}
	.st34{fill:none;stroke:#FFFFFF;stroke-miterlimit:10;}
	.st35{fill:#BFDEF3;stroke:#FFFFFF;stroke-miterlimit:10;}
	.st36{fill:#994573;}
	.st37{fill:#F6F6F6;}
	.st38{fill:#8F4199;stroke:#FFFFFF;stroke-miterlimit:10;}
	.st39{fill:#175633;}
	.st40{fill:#984D2D;}
</style>
<circle class="st1" cx="32.9" cy="32.9" r="32.4"/>
<g>
	<path class="st40" d="M46.7,22.1c1.1-3.7,1.2-4.3,1.9-7.5c-12.7-0.1-19.2-0.2-31.7,0c1.1,4.1,1.4,5,2.3,7.9c-2.9,0-4.4,0-7.1,0
		c-0.1,0.1,0.4,1.6,0.9,3.4c4.2,13.2,5.7,18.2,9,28l0,0h0c0.3,1,0.7,2,1,3c8.7,0,10.2,0.1,20,0c6.5-19.5,6.7-20.1,11.1-34.7
		C51,22.2,50,22.3,46.7,22.1z"/>
	<path class="st40" d="M50.1,20.1c0.8-2.6,1.3-4.9,1.9-7.5c-2.2,0-31.9,0-38.2,0c0.9,3.7,1.9,6.5,2,7.8c-2.5,0.1-2.9-0.1-7.3,0
		c-0.1,0.2,8.8,28.3,12.2,38.8v0c10.5,0,13.7,0,24.2,0c3.1-9.5,4.6-14.5,12.3-39C54.2,20.2,53.2,20.3,50.1,20.1z M44.1,58.2
		c-10.5,0-12.4,0.1-22.4,0c-3.6-11-8.2-24.8-11.8-36.9c3.3-0.1,4.3,0,7.4,0c-1.2-3.9-1.4-4.6-2.1-7.9c6.8,0,26.3-0.1,35.7-0.1
		C50,16.7,49.4,18,48.7,21c3,0,4.7,0,7.3,0C51,37.2,49.6,41.4,44.1,58.2z"/>
</g>
</svg>
