<?xml version="1.0" encoding="utf-8"?>
<!-- Generator: Adobe Illustrator 25.2.1, SVG Export Plug-In . SVG Version: 6.00 Build 0)  -->
<svg version="1.1" id="Layer_1" xmlns="http://www.w3.org/2000/svg" xmlns:xlink="http://www.w3.org/1999/xlink" x="0px" y="0px"
	 viewBox="0 0 65.8 65.8" style="enable-background:new 0 0 65.8 65.8;" xml:space="preserve">
<style type="text/css">
	.st0{fill:#FFFFFF;stroke:#FFFFFF;stroke-miterlimit:10;}
	.st1{fill:#984D2D;}
	.st2{fill:#FFFFFF;}
</style>
<circle class="st0" cx="32.9" cy="32.9" r="32.4"/>
<path class="st1" d="M46.7,22.1c1.1-3.7,1.2-4.3,1.9-7.5c-12.7-0.1-19.2-0.2-31.7,0c1.1,4.1,1.4,5,2.3,7.9h-7.1
	c-0.1,0.1,0.4,1.6,0.9,3.4c4.2,13.2,5.7,18.2,9,28c0.3,1,0.7,2,1,3c8.7,0,10.2,0.1,20,0c6.5-19.5,6.7-20.1,11.1-34.7
	C51,22.2,50,22.3,46.7,22.1z"/>
<path class="st1" d="M50.1,20.1c0.8-2.6,1.3-4.9,1.9-7.5H13.8c0.9,3.7,1.9,6.5,2,7.8c-2.5,0.1-2.9-0.1-7.3,0
	c-0.1,0.2,8.8,28.3,12.2,38.8h24.2c3.1-9.5,4.6-14.5,12.3-39C54.2,20.2,53.2,20.3,50.1,20.1z M44.1,58.2c-10.5,0-12.4,0.1-22.4,0
	c-3.6-11-8.2-24.8-11.8-36.9c3.3-0.1,4.3,0,7.4,0c-1.2-3.9-1.4-4.6-2.1-7.9c6.8,0,26.3-0.1,35.7-0.1C50,16.7,49.4,18,48.7,21H56
	C51,37.2,49.6,41.4,44.1,58.2z"/>
<g>
	<path class="st2" d="M25.2,34.8l-2.6-10.1H24l1.2,5.1c0.3,1.3,0.6,2.5,0.8,3.5h0c0.2-1,0.5-2.2,0.8-3.5l1.4-5.1h1.4l1.2,5.1
		c0.3,1.2,0.6,2.4,0.7,3.5h0c0.2-1.1,0.5-2.2,0.8-3.5l1.3-5.1H35l-2.9,10.1h-1.4l-1.3-5.3c-0.3-1.3-0.5-2.3-0.7-3.3h0
		c-0.2,1-0.4,2-0.8,3.3l-1.4,5.3H25.2z"/>
	<path class="st2" d="M43.3,34.4c-0.5,0.2-1.4,0.5-2.7,0.5c-2.8,0-5-1.8-5-5.1c0-3.2,2.1-5.3,5.3-5.3c1.3,0,2.1,0.3,2.4,0.4L43,26
		c-0.5-0.2-1.2-0.4-2-0.4c-2.4,0-3.9,1.5-3.9,4.2c0,2.5,1.4,4.1,3.9,4.1c0.8,0,1.6-0.2,2.1-0.4L43.3,34.4z"/>
	<path class="st2" d="M26.2,38.8c0.7-0.1,1.6-0.2,2.5-0.2c1.4,0,2.3,0.3,2.9,0.8c0.5,0.5,0.8,1.1,0.8,1.9c0,1.3-0.8,2.2-1.9,2.6v0
		c0.8,0.3,1.2,1,1.5,2c0.3,1.4,0.6,2.4,0.8,2.8h-1.4c-0.2-0.3-0.4-1.2-0.7-2.4c-0.3-1.4-0.8-1.9-2-2h-1.2v4.4h-1.3V38.8z M27.5,43.4
		h1.3c1.4,0,2.3-0.8,2.3-1.9c0-1.3-0.9-1.9-2.3-1.9c-0.6,0-1.1,0.1-1.3,0.1V43.4z"/>
	<path class="st2" d="M34.2,38.8c0.7-0.1,1.6-0.2,2.5-0.2c1.4,0,2.3,0.3,2.9,0.8c0.5,0.5,0.8,1.1,0.8,1.9c0,1.3-0.8,2.2-1.9,2.6v0
		c0.8,0.3,1.2,1,1.5,2c0.3,1.4,0.6,2.4,0.8,2.8h-1.3c-0.2-0.3-0.4-1.2-0.7-2.4c-0.3-1.4-0.8-1.9-2-2h-1.2v4.4h-1.3V38.8z M35.5,43.4
		h1.3c1.4,0,2.3-0.8,2.3-1.9c0-1.3-0.9-1.9-2.3-1.9c-0.6,0-1.1,0.1-1.3,0.1V43.4z"/>
</g>
</svg>
