<?xml version="1.0" encoding="utf-8"?>
<!-- Generator: Adobe Illustrator 21.1.0, SVG Export Plug-In . SVG Version: 6.00 Build 0)  -->
<svg version="1.1" id="Layer_1" xmlns="http://www.w3.org/2000/svg" xmlns:xlink="http://www.w3.org/1999/xlink" x="0px" y="0px"
	 viewBox="0 0 170.1 170.1" style="enable-background:new 0 0 170.1 170.1;" xml:space="preserve">
<style type="text/css">
	.st0{fill:#BE111F;}
	.st1{fill:#FCEA06;}
	.st2{fill:#181716;}
</style>
<g>
	<rect x="12.4" y="47.2" class="st0" width="150.2" height="75.2"/>
	<g>
		<g>
			<path class="st1" d="M19.9,59.9h-0.4v-0.4h5.5v0.4h-0.5l1.6,5.9l0.7-2.6l-0.8-3.3h-0.5v-0.4h5.8v0.4h-0.7l1.4,5.8l1.4-4.9
				c0,0,0,0,0-0.1c0-0.1,0-0.2,0-0.2c0-0.2-0.1-0.3-0.2-0.4c-0.1-0.1-0.3-0.2-0.5-0.2h-0.3v-0.4h2.3v0.4c-0.3,0.1-0.5,0.2-0.6,0.5
				c-0.1,0.2-0.2,0.6-0.4,1.1l-2.5,8.7h-2.6l-1.5-5.9l-1.7,5.9h-2.6L19.9,59.9z"/>
			<path class="st1" d="M36,59.9h-1.1v-0.4h10.3l0.1,3.7h-0.5c-0.3-1.3-0.9-2.2-1.7-2.8c-0.3-0.2-0.6-0.3-0.8-0.4
				c-0.3-0.1-0.8-0.1-1.5-0.1v4.6c0.4,0,0.7-0.1,1-0.3c0.3-0.2,0.5-0.5,0.7-0.8c0.2-0.3,0.2-0.6,0.2-1h0.5v4.7h-0.5
				c0-0.5-0.2-0.9-0.4-1.3s-0.4-0.6-0.7-0.7C41.2,65.1,41,65,40.7,65v4.7c0.3,0,0.5,0,0.6,0c0.6,0,1-0.1,1.3-0.2
				c0.3-0.1,0.6-0.4,1-0.7c0.5-0.6,1-1.5,1.3-2.7h0.5l-0.1,4H34.9v-0.4H36V59.9z"/>
			<path class="st1" d="M52.6,59.9l1.7-0.6h0.4l0.1,3.5h-0.4c-0.3-0.7-0.7-1.3-1.2-1.7c-0.5-0.5-1-0.8-1.5-1c-0.5-0.2-1-0.3-1.4-0.3
				c-0.8,0-1.3,0.4-1.4,1.1c0,0.2,0.1,0.4,0.3,0.6c0.2,0.2,0.5,0.4,0.9,0.6c0.4,0.2,0.8,0.4,1.2,0.6l2.6,1.3
				c0.2,0.1,0.4,0.3,0.6,0.5c0.2,0.3,0.5,0.6,0.6,1.1s0.3,0.9,0.3,1.4c0,0.5-0.1,0.9-0.3,1.4c-0.2,0.6-0.7,1.1-1.5,1.4
				c-0.8,0.4-1.6,0.6-2.6,0.6c-1,0-1.9-0.2-2.7-0.7l-1.7,0.7h-0.4l-0.1-3.8h0.5c0.9,1.9,2,3,3.5,3.3c0.1,0,0.3,0,0.5,0.1
				c0.2,0,0.3,0,0.3,0c0.5,0,0.8-0.1,1.1-0.3c0.3-0.2,0.4-0.4,0.4-0.8c0-0.3-0.1-0.5-0.3-0.7c-0.2-0.2-0.4-0.4-0.7-0.5
				c-0.3-0.2-0.5-0.3-0.8-0.4c-0.3-0.1-0.6-0.2-0.8-0.3c-0.7-0.3-1.4-0.7-1.9-1.1c-0.5-0.4-1-0.9-1.3-1.4c-0.3-0.5-0.5-1.1-0.5-1.7
				c0-0.4,0.1-0.8,0.2-1.2c0.2-0.7,0.6-1.2,1.3-1.7c0.6-0.4,1.4-0.6,2.2-0.6C51,59.3,51.9,59.5,52.6,59.9z"/>
			<path class="st1" d="M59.6,69.7v-9.8c-0.6,0-1.1,0.3-1.5,0.6c-0.4,0.4-0.7,0.8-0.9,1.3c-0.2,0.5-0.4,1-0.5,1.6h-0.5l0.1-3.9h11.2
				l0.1,3.9h-0.4c-0.2-0.6-0.4-1.2-0.6-1.7c-0.2-0.5-0.5-0.9-0.9-1.2c-0.4-0.3-0.8-0.5-1.4-0.6v9.8h1.4v0.4h-7.5v-0.4H59.6z"/>
			<path class="st1" d="M83.4,59.3l0,3.8h-0.5c-0.2-0.5-0.4-1-0.7-1.5c-0.3-0.5-0.7-0.8-1.1-1.1c-0.4-0.3-0.9-0.4-1.3-0.4
				c-0.7,0-1.1,0.3-1.3,0.9c-0.2,0.6-0.3,1.3-0.3,2.2v3.8c0,0.6,0.1,1.2,0.3,1.7s0.5,0.8,0.9,0.9c0.1,0,0.4,0.1,0.8,0.1
				c0.5,0,1-0.2,1.4-0.4c0.4-0.3,0.8-0.6,1-1.1c0.3-0.5,0.5-1,0.5-1.5h0.5c-0.1,0.8-0.4,1.5-0.8,2.1c-0.4,0.6-0.9,1-1.5,1.3
				c-0.6,0.3-1.3,0.4-2.1,0.5c-1.2,0-2.3-0.2-3.2-0.7c-0.9-0.5-1.6-1.2-2-2c-0.5-0.9-0.7-1.8-0.7-2.9c0-0.1,0-0.2,0-0.4
				c0-0.6,0.2-1.3,0.5-1.9c0.3-0.6,0.6-1.1,1.1-1.6c0.5-0.5,1.1-0.9,1.7-1.1c0.7-0.3,1.4-0.4,2.3-0.4c0.4,0,0.8,0,1.2,0.1
				c0.3,0.1,0.7,0.2,1,0.3c0.3,0.1,0.5,0.2,0.6,0.2c0.1,0,0.3-0.1,0.7-0.3c0.4-0.2,0.6-0.3,0.6-0.4H83.4z"/>
			<path class="st1" d="M85.5,59.9h-1.2v-0.4h6.5v0.4h-0.7v4.5h1.8v-4.5h-0.7v-0.4h6.5v0.4h-1.2v9.8h1.2v0.4h-6.5v-0.4h0.7v-4.8
				h-1.8v4.8h0.7v0.4h-6.5v-0.4h1.2V59.9z"/>
			<path class="st1" d="M98.9,59.9h-1.1v-0.4h10.3l0.1,3.7h-0.5c-0.3-1.3-0.9-2.2-1.7-2.8c-0.3-0.2-0.6-0.3-0.8-0.4
				c-0.3-0.1-0.8-0.1-1.5-0.1v4.6c0.4,0,0.7-0.1,1-0.3c0.3-0.2,0.5-0.5,0.7-0.8c0.2-0.3,0.2-0.6,0.2-1h0.5v4.7h-0.5
				c0-0.5-0.2-0.9-0.4-1.3s-0.4-0.6-0.7-0.7c-0.3-0.1-0.6-0.2-0.8-0.2v4.7c0.3,0,0.5,0,0.6,0c0.6,0,1-0.1,1.3-0.2
				c0.3-0.1,0.6-0.4,1-0.7c0.5-0.6,1-1.5,1.3-2.7h0.5l-0.1,4H97.8v-0.4h1.1V59.9z"/>
			<path class="st1" d="M115.6,59.9l1.7-0.6h0.4l0.1,3.5h-0.4c-0.3-0.7-0.7-1.3-1.2-1.7c-0.5-0.5-1-0.8-1.5-1
				c-0.5-0.2-1-0.3-1.4-0.3c-0.8,0-1.3,0.4-1.4,1.1c0,0.2,0.1,0.4,0.3,0.6c0.2,0.2,0.5,0.4,0.9,0.6c0.4,0.2,0.8,0.4,1.2,0.6l2.6,1.3
				c0.2,0.1,0.4,0.3,0.6,0.5c0.2,0.3,0.5,0.6,0.6,1.1c0.2,0.4,0.3,0.9,0.3,1.4c0,0.5-0.1,0.9-0.3,1.4c-0.2,0.6-0.7,1.1-1.5,1.4
				c-0.8,0.4-1.6,0.6-2.6,0.6c-1,0-1.9-0.2-2.7-0.7l-1.7,0.7h-0.4l-0.1-3.8h0.5c0.9,1.9,2,3,3.5,3.3c0.1,0,0.3,0,0.5,0.1
				c0.2,0,0.3,0,0.3,0c0.5,0,0.8-0.1,1.1-0.3c0.3-0.2,0.4-0.4,0.4-0.8c0-0.3-0.1-0.5-0.3-0.7c-0.2-0.2-0.4-0.4-0.7-0.5
				c-0.3-0.2-0.5-0.3-0.8-0.4c-0.3-0.1-0.6-0.2-0.8-0.3c-0.7-0.3-1.4-0.7-1.9-1.1c-0.5-0.4-1-0.9-1.3-1.4c-0.3-0.5-0.5-1.1-0.5-1.7
				c0-0.4,0.1-0.8,0.2-1.2c0.2-0.7,0.6-1.2,1.3-1.7c0.6-0.4,1.4-0.6,2.2-0.6C114,59.3,114.8,59.5,115.6,59.9z"/>
			<path class="st1" d="M122.5,69.7v-9.8c-0.6,0-1.1,0.3-1.5,0.6c-0.4,0.4-0.7,0.8-0.9,1.3c-0.2,0.5-0.4,1-0.5,1.6h-0.5l0.1-3.9
				h11.2l0.1,3.9h-0.4c-0.2-0.6-0.4-1.2-0.6-1.7c-0.2-0.5-0.5-0.9-0.9-1.2c-0.4-0.3-0.8-0.5-1.4-0.6v9.8h1.4v0.4h-7.5v-0.4H122.5z"
				/>
			<path class="st1" d="M132.1,59.9H131v-0.4h10.3l0.1,3.7h-0.5c-0.3-1.3-0.9-2.2-1.7-2.8c-0.3-0.2-0.6-0.3-0.8-0.4
				c-0.3-0.1-0.8-0.1-1.5-0.1v4.6c0.4,0,0.7-0.1,1-0.3c0.3-0.2,0.5-0.5,0.7-0.8c0.2-0.3,0.2-0.6,0.2-1h0.5v4.7h-0.5
				c0-0.5-0.2-0.9-0.4-1.3s-0.4-0.6-0.7-0.7c-0.3-0.1-0.6-0.2-0.8-0.2v4.7c0.3,0,0.5,0,0.6,0c0.6,0,1-0.1,1.3-0.2
				c0.3-0.1,0.6-0.4,1-0.7c0.5-0.6,1-1.5,1.3-2.7h0.5l-0.1,4H131v-0.4h1.1V59.9z"/>
			<path class="st1" d="M143.2,59.9h-1.1v-0.4h8c0.8,0,1.4,0.1,1.9,0.2c0.5,0.1,1,0.3,1.3,0.5c0.3,0.2,0.5,0.5,0.7,0.7
				c0.1,0.3,0.2,0.5,0.3,0.8c0,0.1,0,0.2,0,0.3c0,0.6-0.3,1.2-0.8,1.6c-0.5,0.4-1.3,0.7-2.3,0.7v0.2c0.9,0.1,1.5,0.3,2,0.7
				c0.4,0.4,0.7,0.8,0.8,1.3c0.1,0.5,0.2,1,0.2,1.5c0,0.6,0.1,0.9,0.1,1c0.1,0.1,0.2,0.1,0.3,0.2c0.3,0,0.5-0.2,0.7-0.6l0.4,0.2
				c-0.2,0.4-0.6,0.8-1.2,1c-0.6,0.3-1.2,0.4-1.9,0.4c-0.8,0-1.5-0.2-2.1-0.6c-0.4-0.3-0.6-0.6-0.8-1c-0.1-0.4-0.2-0.9-0.2-1.3
				c0-0.5,0-1-0.1-1.5c0-0.5-0.1-0.9-0.3-1.1c-0.1-0.1-0.1-0.1-0.2-0.2c-0.1,0-0.2,0-0.3-0.1c-0.1,0-0.4,0-0.7,0v5.1h1.3v0.4h-7
				v-0.4h1.2V59.9z M149.4,61.3c0-0.9-0.4-1.3-1.2-1.3c-0.2,0-0.4,0-0.5,0v4.2h0.2c0.2,0,0.3,0,0.5,0c0.2,0,0.3,0,0.4-0.1
				c0.1-0.1,0.2-0.1,0.3-0.3c0.1-0.1,0.1-0.3,0.2-0.6c0-0.6,0.1-1,0.1-1.2V61.3z"/>
		</g>
		<g>
			<path class="st1" d="M21.8,95.6h-1.5v-0.6h11.1c1,0,1.9,0.1,2.7,0.3c0.7,0.2,1.3,0.4,1.8,0.7c0.4,0.3,0.8,0.6,1,1
				c0.2,0.4,0.3,0.7,0.4,1.1c0,0.1,0,0.2,0,0.4c0,0.9-0.4,1.6-1.1,2.2c-0.7,0.6-1.8,0.9-3.1,1v0.2c1.2,0.1,2.1,0.5,2.7,1
				c0.6,0.5,1,1.1,1.1,1.8c0.1,0.6,0.2,1.3,0.2,2.1c0,0.8,0.1,1.2,0.2,1.4c0.1,0.1,0.2,0.2,0.4,0.2c0.4-0.1,0.7-0.3,1-0.8l0.6,0.3
				c-0.3,0.6-0.8,1.1-1.6,1.5c-0.8,0.4-1.7,0.6-2.7,0.6c-1.1,0-2-0.3-3-0.9c-0.5-0.4-0.9-0.8-1.1-1.4c-0.2-0.6-0.3-1.2-0.3-1.9
				c0-0.7-0.1-1.4-0.1-2.1c0-0.7-0.2-1.2-0.4-1.5c-0.1-0.1-0.2-0.2-0.3-0.2c-0.1,0-0.2-0.1-0.4-0.1c-0.2,0-0.5,0-1,0v7.1H30v0.6
				h-9.8v-0.6h1.6V95.6z M30.5,97.5c0-1.2-0.6-1.8-1.7-1.8c-0.3,0-0.5,0-0.7,0v5.9h0.3c0.2,0,0.4,0,0.6,0c0.2,0,0.4,0,0.6-0.1
				c0.2-0.1,0.3-0.2,0.4-0.4c0.1-0.2,0.2-0.4,0.2-0.8c0.1-0.8,0.1-1.3,0.1-1.7V97.5z"/>
			<path class="st1" d="M41.1,107.5l4.6-12.4h4.4l5.2,14.2h1.2v0.6h-9.4v-0.6h1.5l-1.5-4.4h-4.3c-0.1,0.3-0.2,0.7-0.5,1.2
				c-0.2,0.6-0.4,1-0.5,1.3c-0.1,0.3-0.2,0.5-0.2,0.7c0,0.3,0.1,0.5,0.2,0.7c0.1,0.2,0.3,0.3,0.5,0.3c0.2,0.1,0.5,0.1,0.9,0.1v0.6
				h-4.1v-0.6c0.5,0,0.9-0.2,1.2-0.4C40.7,108.5,40.9,108.1,41.1,107.5z M46.9,104.4l-2-5.4l-1.9,5.4H46.9z"/>
			<path class="st1" d="M58.8,95.6h-1.6v-0.6h9.8v0.6h-1.6v13.6H67v0.6h-9.8v-0.6h1.6V95.6z"/>
			<path class="st1" d="M69.1,109.2V95.6h-1.6v-0.6h10v0.6h-1.9v13.6c0.1,0,0.2,0,0.3,0c0.1,0,0.2,0,0.3,0c1.1,0,1.9-0.2,2.5-0.5
				c0.6-0.3,1.1-0.9,1.6-1.6c0.4-0.9,0.8-2,1.1-3.2h0.6v5.9H67.6v-0.6H69.1z"/>
			<path class="st1" d="M84.5,95.6H83v-0.6h11.1c1,0,1.9,0.1,2.7,0.3c0.7,0.2,1.3,0.4,1.8,0.7c0.4,0.3,0.8,0.6,1,1
				c0.2,0.4,0.3,0.7,0.4,1.1c0,0.1,0,0.2,0,0.4c0,0.9-0.4,1.6-1.1,2.2c-0.7,0.6-1.8,0.9-3.1,1v0.2c1.2,0.1,2.1,0.5,2.7,1
				c0.6,0.5,1,1.1,1.1,1.8c0.1,0.6,0.2,1.3,0.2,2.1c0,0.8,0.1,1.2,0.2,1.4c0.1,0.1,0.2,0.2,0.4,0.2c0.4-0.1,0.7-0.3,1-0.8l0.6,0.3
				c-0.3,0.6-0.8,1.1-1.6,1.5c-0.8,0.4-1.7,0.6-2.7,0.6c-1.1,0-2-0.3-3-0.9c-0.5-0.4-0.9-0.8-1.1-1.4c-0.2-0.6-0.3-1.2-0.3-1.9
				c0-0.7-0.1-1.4-0.1-2.1c0-0.7-0.2-1.2-0.4-1.5c-0.1-0.1-0.2-0.2-0.3-0.2c-0.1,0-0.2-0.1-0.4-0.1c-0.2,0-0.5,0-1,0v7.1h1.8v0.6
				h-9.8v-0.6h1.6V95.6z M93.2,97.5c0-1.2-0.6-1.8-1.7-1.8c-0.3,0-0.5,0-0.7,0v5.9h0.3c0.2,0,0.4,0,0.6,0c0.2,0,0.4,0,0.6-0.1
				c0.2-0.1,0.3-0.2,0.4-0.4c0.1-0.2,0.2-0.4,0.2-0.8c0.1-0.8,0.1-1.3,0.1-1.7V97.5z"/>
			<path class="st1" d="M110.9,94.9c1.3,0,2.5,0.3,3.5,0.7c1,0.4,1.9,1,2.6,1.7c0.7,0.7,1.2,1.5,1.6,2.4c0.4,0.9,0.5,1.8,0.6,2.8
				c0,1-0.2,2-0.6,2.9c-0.4,0.9-0.9,1.8-1.7,2.5c-0.7,0.7-1.6,1.3-2.7,1.7c-1,0.4-2.2,0.6-3.5,0.7c-1.6,0-3-0.4-4.3-1.1
				c-1.3-0.7-2.3-1.7-3-2.9c-0.7-1.2-1.1-2.5-1.1-4c0-1,0.2-1.9,0.6-2.8c0.4-0.9,1-1.7,1.8-2.4c0.8-0.7,1.7-1.2,2.7-1.6
				C108.6,95.1,109.7,94.9,110.9,94.9z M112.3,98.2c0-1.1-0.1-1.8-0.4-2.2c-0.2-0.4-0.6-0.6-1.1-0.6c-1,0-1.4,0.8-1.4,2.5v10.1
				c0,0.6,0.1,1,0.4,1.3c0.3,0.3,0.6,0.4,1,0.4c1,0,1.4-0.6,1.4-1.7V98.2z"/>
			<path class="st1" d="M121.5,107.5l4.6-12.4h4.4l5.2,14.2h1.2v0.6h-9.4v-0.6h1.5l-1.5-4.4h-4.3c-0.1,0.3-0.2,0.7-0.5,1.2
				c-0.2,0.6-0.4,1-0.5,1.3c-0.1,0.3-0.2,0.5-0.2,0.7c0,0.3,0.1,0.5,0.2,0.7c0.1,0.2,0.3,0.3,0.5,0.3c0.2,0.1,0.5,0.1,0.9,0.1v0.6
				h-4.1v-0.6c0.5,0,0.9-0.2,1.2-0.4C121,108.5,121.3,108.1,121.5,107.5z M127.2,104.4l-2-5.4l-1.9,5.4H127.2z"/>
			<path class="st1" d="M138.8,95.6h-1.5v-0.6h9.3c1.2,0,2.3,0.2,3.2,0.5c1,0.3,1.8,0.8,2.5,1.5c0.7,0.7,1.2,1.5,1.6,2.4
				c0.4,1,0.5,2.1,0.5,3.3c0,1.4-0.3,2.7-0.9,3.7c-0.6,1.1-1.5,1.9-2.6,2.5c-1.2,0.6-2.6,0.9-4.2,0.9h-9.3v-0.6h1.5V95.6z
				 M147.6,97.8c0-0.7-0.1-1.2-0.4-1.6c-0.3-0.4-0.8-0.6-1.4-0.6h-0.4v13.6c0.4,0,0.7,0,0.8,0c0.4,0,0.7-0.1,0.8-0.2
				c0.4-0.3,0.6-1,0.6-2.3V97.8z"/>
		</g>
		<g>
			<path class="st2" d="M93.3,91H81.6L77.3,75h1.8l-0.4-1.6h17.4L95.7,75h1.8L93.3,91z M83,89.1h8.8l3.3-12.2h-1.7l0.4-1.6H81.1
				l0.4,1.6h-1.7L83,89.1z"/>
		</g>
		<g>
			<rect x="95.4" y="78.6" class="st2" width="58.9" height="1.9"/>
		</g>
		<g>
			<rect x="94.8" y="82.9" class="st2" width="59.5" height="1.9"/>
		</g>
		<g>
			<rect x="20.8" y="82.9" class="st2" width="59.8" height="1.9"/>
		</g>
		<g>
			<rect x="20.8" y="78.6" class="st2" width="59.5" height="1.9"/>
		</g>
	</g>
</g>
</svg>
