<svg version="1.1" id="Layer_1" xmlns="http://www.w3.org/2000/svg" x="0" y="0" viewBox="0 0 65.8 65.8" xml:space="preserve"><style>.st40{fill:#984d2d}</style><circle cx="32.9" cy="32.9" r="32.4" fill="#fff" stroke="#fff" stroke-miterlimit="10"/><path class="st40" d="M46.7 22.1c1.1-3.7 1.2-4.3 1.9-7.5-12.7-.1-19.2-.2-31.7 0 1.1 4.1 1.4 5 2.3 7.9h-7.1c-.1.1.4 1.6.9 3.4 4.2 13.2 5.7 18.2 9 28 .3 1 .7 2 1 3 8.7 0 10.2.1 20 0 6.5-19.5 6.7-20.1 11.1-34.7-3.1 0-4.1.1-7.4-.1z"/><path class="st40" d="M50.1 20.1c.8-2.6 1.3-4.9 1.9-7.5H13.8c.9 3.7 1.9 6.5 2 7.8-2.5.1-2.9-.1-7.3 0-.1.2 8.8 28.3 12.2 38.8h24.2c3.1-9.5 4.6-14.5 12.3-39-3 0-4 .1-7.1-.1zm-6 38.1c-10.5 0-12.4.1-22.4 0-3.6-11-8.2-24.8-11.8-36.9 3.3-.1 4.3 0 7.4 0-1.2-3.9-1.4-4.6-2.1-7.9 6.8 0 26.3-.1 35.7-.1-.9 3.4-1.5 4.7-2.2 7.7H56c-5 16.2-6.4 20.4-11.9 37.2z"/></svg>