<svg xmlns="http://www.w3.org/2000/svg" viewBox="0 0 65.8 65.8"><circle cx="32.9" cy="32.9" r="32.4" fill="#fff" stroke="#fff"/><path d="M46.7 22.1l1.9-7.5c-12.7-.1-19.2-.2-31.7 0 1.1 4.1 1.4 5 2.3 7.9h-7.1c-.1.1.4 1.6.9 3.4l9 28c.3 1 .7 2 1 3h20l11.1-34.7c-3.1 0-4.1.1-7.4-.1zm3.4-2c.8-2.6 1.3-4.9 1.9-7.5H13.8l2 7.8c-2.5.1-2.9-.1-7.3 0-.1.2 8.8 28.3 12.2 38.8h24.2l12.3-39c-3 0-4 .1-7.1-.1zm-6 38.1H21.7L9.9 21.3c3.3-.1 4.3 0 7.4 0-1.2-3.9-1.4-4.6-2.1-7.9l35.7-.1c-.9 3.4-1.5 4.7-2.2 7.7H56L44.1 58.2z" fill="#984d2d"/><path d="M25.2 34.8l-2.6-10.1H24l1.2 5.1.8 3.5.8-3.5 1.4-5.1h1.4l1.2 5.1.7 3.5.8-3.5 1.3-5.1H35l-2.9 10.1h-1.4l-1.3-5.3-.7-3.3-.8 3.3-1.4 5.3h-1.3zm18.1-.4c-.5.2-1.4.5-2.7.5-2.8 0-5-1.8-5-5.1 0-3.2 2.1-5.3 5.3-5.3 1.3 0 2.1.3 2.4.4L43 26a5.44 5.44 0 0 0-2-.4c-2.4 0-3.9 1.5-3.9 4.2 0 2.5 1.4 4.1 3.9 4.1a6.03 6.03 0 0 0 2.1-.4l.2.9zm-17.1 4.4c.7-.1 1.6-.2 2.5-.2 1.4 0 2.3.3 2.9.8.5.5.8 1.1.8 1.9 0 1.3-.8 2.2-1.9 2.6h0c.8.3 1.2 1 1.5 2 .3 1.4.6 2.4.8 2.8h-1.4c-.2-.3-.4-1.2-.7-2.4-.3-1.4-.8-1.9-2-2h-1.2v4.4h-1.3v-9.9zm1.3 4.6h1.3c1.4 0 2.3-.8 2.3-1.9 0-1.3-.9-1.9-2.3-1.9-.6 0-1.1.1-1.3.1v3.7zm6.7-4.6c.7-.1 1.6-.2 2.5-.2 1.4 0 2.3.3 2.9.8.5.5.8 1.1.8 1.9 0 1.3-.8 2.2-1.9 2.6h0c.8.3 1.2 1 1.5 2 .3 1.4.6 2.4.8 2.8h-1.3c-.2-.3-.4-1.2-.7-2.4-.3-1.4-.8-1.9-2-2h-1.2v4.4h-1.3v-9.9zm1.3 4.6h1.3c1.4 0 2.3-.8 2.3-1.9 0-1.3-.9-1.9-2.3-1.9-.6 0-1.1.1-1.3.1v3.7z" fill="#fff"/></svg>
