<?xml version="1.0" encoding="utf-8"?>
<!-- Generator: Adobe Illustrator 21.1.0, SVG Export Plug-In . SVG Version: 6.00 Build 0)  -->
<svg version="1.1" id="Layer_1" xmlns="http://www.w3.org/2000/svg" xmlns:xlink="http://www.w3.org/1999/xlink" x="0px" y="0px"
	 viewBox="0 0 170.1 170.1" style="enable-background:new 0 0 170.1 170.1;" xml:space="preserve">
<style type="text/css">
	.st0{fill:#F39100;}
	.st1{fill:#FCEA06;}
	.st2{fill:#181716;}
	.st3{fill:#F08200;}
</style>
<g>
	<g>
		<ellipse class="st0" cx="84.6" cy="85" rx="51.8" ry="53"/>
	</g>
	<g>
		<polygon class="st1" points="144.9,106.7 95.8,106.7 112.9,84.1 95.8,60.6 144.5,60.8 161.7,83.6 		"/>
	</g>
	<g>
		<polygon class="st1" points="24.9,61.6 74,61.6 57,84.2 74,107.7 25.3,107.5 8.1,84.6 		"/>
	</g>
	<g>
		<g>
			<path class="st2" d="M87.4,27.9c0.4,0.1,0.9,0.1,1.3,0.1c7,0.5,13.7,2.3,20.1,5.3c5.4,2.6,10.3,5.9,14.6,10.1
				c5,4.8,9,10.3,12,16.6c0.1,0.2,0.2,0.3,0.5,0.3c3.1,0,6.1,0,9.2,0c0.3,0,0.5,0.1,0.6,0.3c5.7,7.8,11.4,15.6,17.2,23.3
				c0.2,0.2,0.1,0.3,0,0.6c-5.9,7.8-11.8,15.7-17.6,23.5c-0.2,0.3-0.4,0.4-0.7,0.4c-2.9,0-5.8,0-8.8,0c-0.2,0-0.4,0.1-0.5,0.3
				c-2.6,5.3-5.9,10.2-10,14.4c-6.2,6.5-13.6,11.3-22.1,14.3c-3.5,1.2-7.1,2.1-10.8,2.6c-3.3,0.4-6.5,0.6-9.8,0.5
				c-7.8-0.3-15.3-2.1-22.3-5.5c-5.9-2.9-11.1-6.7-15.7-11.4c-4.2-4.3-7.6-9.1-10.2-14.5c-0.2-0.4-0.4-0.5-0.8-0.5c-2.7,0-5.3,0-8,0
				c-0.3,0-0.5-0.1-0.6-0.3c-4.9-6.5-9.8-13.1-14.7-19.6c-1-1.3-2-2.7-3-4c-0.1-0.2-0.1-0.3,0-0.5c5.7-7.8,11.5-15.6,17.2-23.4
				c0.2-0.2,0.3-0.3,0.6-0.3c2.8,0,5.6,0,8.4,0c0.2,0,0.4-0.1,0.5-0.3c2.7-5.7,6.2-10.8,10.6-15.3c6.4-6.5,13.9-11.3,22.5-14.2
				c3.7-1.2,7.4-2.1,11.3-2.5c1.1-0.1,2.2-0.2,3.4-0.3c0.1,0,0.2,0,0.2-0.1C83.7,27.9,85.5,27.9,87.4,27.9z M93.7,108.3
				c0.1-0.1,0.1-0.2,0.1-0.2c2.7-3.6,5.5-7.2,8.2-10.8c3.3-4.3,6.6-8.7,9.9-13c0.2-0.2,0.1-0.3,0-0.5c-0.3-0.4-0.6-0.8-0.9-1.2
				c-5.5-7.3-10.9-14.7-16.4-22c-0.1-0.1-0.2-0.2-0.1-0.3c11.9,0,23.8,0,35.7,0c0-0.2-0.1-0.3-0.1-0.4c-3.7-6.9-8.7-12.6-14.9-17.2
				c-8.8-6.4-18.6-9.7-29.5-10c-3.3-0.1-6.6,0.2-9.9,0.8c-5.2,0.9-10.2,2.6-14.9,5.1c-6.4,3.4-11.9,8-16.5,13.7
				c-2,2.5-3.7,5.2-5.2,8c-0.2,0.3-0.1,0.4,0.2,0.3c0.1,0,0.1,0,0.2,0c11.9,0,23.7,0,35.6,0c0.1,0,0.3,0,0.4,0
				c0,0.2-0.1,0.2-0.2,0.3c-5.6,7.5-11.1,15-16.7,22.4c-0.2,0.3-0.7,0.7-0.7,1c0,0.4,0.4,0.7,0.7,1c5.8,7.7,11.6,15.3,17.4,23
				c0.1,0.1,0.2,0.1,0.1,0.3c-12.3,0-24.5,0-36.8,0c7.2,13.9,24.8,29,49.8,26.9c8.7-0.7,16.6-3.6,23.8-8.4
				c7.2-4.8,12.9-11.1,17-18.7C117.9,108.3,105.9,108.3,93.7,108.3z M72.5,62.1c-0.1,0-0.2,0-0.2,0c-15.4,0-30.8,0-46.2,0
				c-0.2,0-0.3,0.1-0.4,0.3c-5.3,7.1-10.5,14.3-15.8,21.4c-0.2,0.2-0.2,0.4,0,0.6c5.5,7.3,11,14.6,16.5,21.9
				c0.2,0.2,0.3,0.3,0.6,0.3c15.2,0,30.5,0,45.7,0c0.1,0,0.2,0,0.4-0.1c-0.1-0.1-0.1-0.2-0.2-0.3C67.2,99.1,61.6,91.9,56,84.7
				c-0.2-0.3-0.2-0.4,0-0.7c5.4-7.1,10.8-14.3,16.1-21.4C72.3,62.4,72.4,62.3,72.5,62.1z M97.9,61.9c0.1,0.2,0.2,0.3,0.3,0.4
				c5.4,7.2,10.8,14.3,16.2,21.5c0.2,0.2,0.2,0.4,0,0.6c-5.6,7.2-11.2,14.5-16.8,21.7c-0.1,0.1-0.2,0.2-0.1,0.3c0.1,0,0.3,0,0.4,0
				c15.2,0,30.4,0,45.6,0c0.3,0,0.5-0.1,0.7-0.3c5.5-7.2,11-14.4,16.5-21.6c0.2-0.3,0.2-0.4,0-0.7c-5.3-7.2-10.6-14.4-15.8-21.5
				c-0.2-0.2-0.4-0.3-0.7-0.3c-15.2,0-30.5,0-45.7,0C98.2,61.9,98.1,61.9,97.9,61.9z M34.7,60.5c0.7,0,1.4,0,2,0
				c0.3,0,0.4-0.1,0.5-0.3c2.7-5.3,6.2-10.1,10.5-14.3c4.1-3.9,8.6-7.2,13.7-9.7c8.2-4,16.8-5.7,25.9-5.3c3.1,0.2,6.3,0.6,9.3,1.3
				c12.6,3,22.7,9.7,30.5,20c1.9,2.4,3.4,5,4.8,7.8c0.1,0.1,0.1,0.3,0.2,0.3c0.7,0,1.5,0,2.2,0c-7.7-16.4-26.2-32.3-51.8-31.5
				C59.5,29.5,42.1,44.4,34.7,60.5z M134.4,108.3c-0.8,0-1.4,0-2.1,0c-0.2,0-0.3,0.1-0.4,0.3c-2.8,5.4-6.4,10.2-10.9,14.4
				c-4.2,3.9-8.9,7.1-14.1,9.5c-6.3,2.9-12.9,4.5-19.7,4.8c-4.5,0.2-8.9-0.1-13.3-1c-11-2.3-20.3-7.6-28-15.8
				c-3.3-3.5-6.1-7.5-8.3-11.8c-0.1-0.2-0.2-0.3-0.5-0.3c-0.6,0-1.1,0-1.7,0c-0.4,0-0.3,0.1-0.2,0.4c2.6,5.3,6,10,10.2,14.2
				c4.5,4.6,9.7,8.3,15.5,11.1c6.8,3.3,14.1,5,21.6,5.3c4,0.2,7.9-0.1,11.8-0.8c5.5-1,10.7-2.7,15.7-5.3c10-5.2,17.7-12.8,23.2-22.7
				C133.6,109.9,134,109.1,134.4,108.3z"/>
		</g>
	</g>
	<g>
		<g>
			<path class="st0" d="M34.7,60.5c7.4-16.1,24.8-31,48.1-31.7c25.6-0.8,44.1,15,51.8,31.5c-0.8,0-1.5,0-2.2,0
				c-0.2,0-0.2-0.2-0.2-0.3c-1.4-2.7-3-5.3-4.8-7.8c-7.8-10.3-17.9-17-30.5-20c-3.1-0.7-6.2-1.1-9.3-1.3c-9.1-0.4-17.7,1.3-25.9,5.3
				c-5.1,2.5-9.7,5.7-13.7,9.7c-4.3,4.2-7.8,8.9-10.5,14.3c-0.1,0.2-0.2,0.3-0.5,0.3C36.1,60.5,35.4,60.5,34.7,60.5z"/>
		</g>
	</g>
	<g>
		<g>
			<path class="st0" d="M134.4,108.3c-0.4,0.8-0.8,1.6-1.2,2.3c-5.5,9.9-13.2,17.5-23.2,22.7c-4.9,2.6-10.2,4.3-15.7,5.3
				c-3.9,0.7-7.8,1-11.8,0.8c-7.6-0.3-14.8-2-21.6-5.3c-5.8-2.8-11-6.5-15.5-11.1c-4.1-4.2-7.5-8.9-10.2-14.2
				c-0.1-0.3-0.2-0.4,0.2-0.4c0.6,0,1.1,0,1.7,0c0.2,0,0.3,0.1,0.5,0.3c2.2,4.3,5,8.2,8.3,11.8c7.7,8.2,17,13.5,28,15.8
				c4.4,0.9,8.8,1.2,13.3,1c6.9-0.3,13.5-1.9,19.7-4.8c5.2-2.4,9.9-5.6,14.1-9.5c4.4-4.2,8.1-9,10.9-14.4c0.1-0.2,0.2-0.3,0.4-0.3
				C133,108.3,133.6,108.3,134.4,108.3z"/>
		</g>
	</g>
	<g>
		<g>
			<path class="st2" d="M98.7,99.1c-0.2,0-0.3,0-0.5,0c-3.4,0-6.9,0-10.3,0c-0.3,0-0.5-0.1-0.8-0.4c-3.8-4.8-7.6-9.5-11.3-14.3
				c-2-2.6-2.6-6.5-0.6-9.6c0.6-0.9,1.3-1.7,2.2-2.4c0.2-0.2,0.3-0.2,0.5,0.1c2.5,3.2,5,6.4,7.5,9.6c4.4,5.6,8.8,11.2,13.1,16.9
				C98.5,98.9,98.6,99,98.7,99.1z"/>
		</g>
	</g>
	<g>
		<g>
			<path class="st2" d="M80.1,99.5c-1.5,0-2.9,0-4.1-0.6c-3.5-1.9-5.7-4.7-6.1-8.8c-0.2-2.5,0.8-4.6,2.7-6.3
				c0.2-0.2,0.3-0.1,0.4,0.1c2.4,3,4.8,6.1,7.1,9.1c1.4,1.7,2.7,3.5,4.1,5.2c0.2,0.2,0.2,0.3-0.1,0.5c-0.9,0.5-1.9,0.7-2.9,0.8
				C80.9,99.4,80.4,99.4,80.1,99.5z"/>
		</g>
	</g>
	<g>
		<g>
			<path class="st2" d="M90.7,76.7c-0.1,2.2-0.9,4-2.5,5.4c-0.2,0.2-0.3,0.2-0.5,0c-2.8-3.6-5.6-7.1-8.4-10.6
				c-0.2-0.2-0.1-0.3,0.1-0.5c4.4-3.1,10.6-0.4,11.2,5C90.7,76.2,90.7,76.5,90.7,76.7z"/>
		</g>
	</g>
	<g>
		<g>
			<path class="st2" d="M98.4,85c-0.1,1-0.1,2-0.2,2.9c0,0.2-0.1,0.4-0.3,0.6c-1,0.8-2,1.6-3.1,2.4c-0.2,0.2-0.3,0.2-0.5-0.1
				c-0.4-0.5-0.8-1-1.2-1.6c-0.1-0.1-0.2-0.2,0-0.3c1.7-1.3,3.4-2.6,5.1-3.9C98.3,85.1,98.3,85.1,98.4,85z"/>
		</g>
	</g>
	<g>
		<g>
			<path class="st2" d="M39.1,70.1c1.5,0,3,0,4.6,0c0.3,0,0.4,0.1,0.5,0.4c1.4,5.5,2.9,10.9,4.4,16.4c0.4,1.5,0.8,2.9,1.2,4.4
				c0.1,0.2,0.1,0.5,0,0.7c-0.5,2-0.9,4-1.4,6.1c-0.1,0.3-0.2,0.4-0.5,0.4c-2,0-3.9,0-5.9,0c-0.3,0-0.4-0.1-0.5-0.4
				c-1.7-6.6-3.5-13.2-5.3-19.7c-0.7-2.5-1.4-5.1-2-7.6c-0.1-0.5-0.1-0.5,0.4-0.5C36.1,70.1,37.6,70.1,39.1,70.1z"/>
		</g>
	</g>
	<g>
		<g>
			<path class="st2" d="M27,70.1c1.5,0,3.1,0,4.6,0c0.3,0,0.3,0.1,0.4,0.3c1.8,7,3.7,13.9,5.5,20.9c0,0.2,0.1,0.4,0,0.5
				c-0.5,2.1-1,4.1-1.4,6.2c-0.1,0.2-0.1,0.3-0.4,0.3c-2,0-4,0-6,0c-0.2,0-0.3-0.1-0.4-0.3c-1.7-6.4-3.4-12.8-5.1-19.1
				c-0.7-2.8-1.5-5.6-2.2-8.4c-0.1-0.3,0-0.4,0.3-0.4C23.9,70.1,25.5,70.1,27,70.1z"/>
		</g>
	</g>
	<g>
		<g>
			<path class="st2" d="M50.8,87.5c-0.4-1.6-0.8-3.1-1.2-4.6c0-0.2,0-0.4,0-0.5c1.1-4,2.1-8,3.2-11.9c0.1-0.2,0.1-0.3,0.4-0.3
				c0.7,0,1.4,0,2.2,0c0.3,0,0.3,0.1,0.3,0.3c-0.8,3-1.7,6-2.5,9c-0.7,2.6-1.5,5.2-2.2,7.9C50.9,87.3,50.9,87.4,50.8,87.5z"/>
		</g>
	</g>
	<g>
		<g>
			<path class="st3" d="M56.1,118.1C56.2,118.1,56.2,118.1,56.1,118.1C56.2,118.1,56.2,118.1,56.1,118.1
				C56.2,118.2,56.2,118.1,56.1,118.1z"/>
		</g>
	</g>
	<g>
		<g>
			<path class="st3" d="M53,119.2C53,119.2,52.9,119.2,53,119.2C52.9,119.2,52.9,119.2,53,119.2C53,119.1,53,119.2,53,119.2z"/>
		</g>
	</g>
	<g>
		<g>
			<path class="st3" d="M55.7,121.6c0,0-0.1,0.1-0.1,0l0,0C55.7,121.6,55.7,121.5,55.7,121.6C55.7,121.5,55.7,121.5,55.7,121.6z"/>
		</g>
	</g>
	<g>
		<g>
			<path class="st3" d="M55.6,121.6C55.6,121.6,55.6,121.6,55.6,121.6C55.6,121.6,55.6,121.6,55.6,121.6L55.6,121.6z"/>
		</g>
	</g>
	<g>
		<g>
			<path class="st3" d="M104.4,124.4C104.4,124.4,104.4,124.4,104.4,124.4C104.4,124.3,104.5,124.3,104.4,124.4
				C104.5,124.4,104.4,124.4,104.4,124.4z"/>
		</g>
	</g>
	<g>
		<g>
			<rect x="123.8" y="69.6" class="st2" width="9.9" height="33.1"/>
		</g>
	</g>
	<g>
		<g>
			<rect x="134.8" y="69.6" class="st2" width="10.6" height="7.5"/>
		</g>
	</g>
	<g>
		<g>
			<rect x="112.6" y="69.6" class="st2" width="11.2" height="7.5"/>
		</g>
	</g>
	<g>
		<g>
			<path class="st2" d="M66.9,37.9c-1,0.5-1.1,0.7-1.2,1.8c0,0.9,0,3.5,0.5,7.3c-0.2,0.1-0.2,0.1-0.4,0.2c-1.6-1.5-3.7-3.2-5.4-4.4
				c0,0,0,0,0,0c0.3,2.4,0.7,4.6,1.2,6.8c-0.1,0.1-0.2,0.1-0.4,0.2c-1.9-1.5-3.9-2.9-6-4.2c-1-0.6-1.2-0.5-2.1,0.1
				c-0.1-0.1-0.1-0.2-0.2-0.3c1.3-1.1,2-1.6,3.4-2.5c0.1,0.1,0.1,0.2,0.2,0.3c-1,0.8-0.9,0.9-0.3,1.3c1.5,1,3,2.1,4.6,3.3
				c0,0,0,0,0,0c-0.5-2.3-0.8-4.6-1.1-6.8c0.2-0.1,0.3-0.1,0.4-0.2c1.9,1.4,3.6,2.8,5.4,4.4c0,0,0,0,0,0c-0.2-1.8-0.4-4.5-0.6-5.4
				c-0.1-0.8-0.2-0.9-1.5-0.5c-0.1-0.1-0.1-0.2-0.2-0.3c1.3-0.6,2-0.9,3.4-1.4C66.8,37.7,66.9,37.8,66.9,37.9z"/>
		</g>
		<g>
			<path class="st2" d="M74,44.1c0-0.1-0.1-0.2-0.1-0.4c0.8-0.3,0.9-0.4,0.6-0.9c-0.3-0.4-0.7-1.1-1.2-1.7c-1.2,0.3-1.8,0.5-3,0.9
				c0,0.6-0.1,1.2-0.1,1.8c0,0.9,0.1,0.9,1.2,0.7c0,0.1,0.1,0.2,0.1,0.3c-1.1,0.4-1.7,0.6-2.8,1c-0.1-0.1-0.1-0.2-0.1-0.3
				c0.8-0.4,0.9-0.6,1-1.8c0.2-3,0.4-4.4,1-7.4c0.2-0.1,0.3-0.2,0.5-0.3c1.6,1.9,3.2,4,4.5,6c0.7,1,0.9,1.1,1.8,1
				c0,0.1,0,0.2,0.1,0.4C76,43.6,75.3,43.7,74,44.1z M70.7,37.8C70.7,37.8,70.7,37.8,70.7,37.8c-0.2,1.2-0.4,2.4-0.5,3.6
				c1.1-0.3,1.6-0.5,2.7-0.8C72.1,39.5,71.7,38.9,70.7,37.8z"/>
		</g>
		<g>
			<path class="st2" d="M86.1,42.9c-0.2,0-0.3,0-0.5,0c-1-0.1-1.6-0.4-2.2-1.2c-0.5-0.6-1.1-1.4-1.5-2c-0.3-0.3-0.5-0.5-1.3-0.4
				c-0.2,0-0.3,0-0.5,0c0.1,0.8,0.1,1.2,0.2,2c0.1,1.1,0.2,1.1,1.3,1.1c0,0.1,0,0.2,0,0.4c-1.4,0.1-2.2,0.2-3.6,0.4
				c0-0.1,0-0.2-0.1-0.4c1.1-0.2,1.2-0.3,1.1-1.4c-0.3-2.1-0.4-3.1-0.6-5.1c-0.1-1.1-0.3-1.1-1.5-1c0-0.1,0-0.2-0.1-0.4
				c1.6-0.2,2.4-0.3,4.1-0.4c1.2-0.1,2,0,2.6,0.3c0.7,0.3,1.1,0.9,1.1,1.7c0,1.1-0.8,1.8-1.9,2.2c0.3,0.4,0.9,1.3,1.4,1.8
				c0.5,0.7,0.8,1,1.1,1.3c0.4,0.4,0.7,0.5,1,0.6C86.2,42.7,86.1,42.8,86.1,42.9z M80.8,38.8c0.8-0.1,1.3-0.2,1.6-0.5
				c0.6-0.4,0.8-0.9,0.8-1.6c0-1.4-1.2-1.9-2.4-1.8c-0.5,0-0.7,0.1-0.9,0.2c-0.1,0.1-0.2,0.2-0.1,0.6c0.1,1.3,0.2,1.9,0.3,3.2
				C80.3,38.8,80.5,38.8,80.8,38.8z"/>
		</g>
		<g>
			<path class="st2" d="M94.6,44.1c-0.2,0-0.3-0.1-0.5-0.1c-1-0.3-1.5-0.7-2-1.6c-0.4-0.7-0.8-1.6-1.1-2.3c-0.2-0.4-0.4-0.6-1.2-0.7
				c-0.2,0-0.3,0-0.5-0.1c-0.1,0.8-0.1,1.2-0.2,2c-0.1,1.1,0,1.2,1.1,1.4c0,0.1,0,0.2,0,0.4c-1.4-0.2-2.2-0.3-3.6-0.3
				c0-0.1,0-0.2,0-0.4c1.1,0,1.3-0.1,1.4-1.2c0.2-2.1,0.3-3.1,0.4-5.2c0.1-1.1,0-1.2-1.3-1.3c0-0.1,0-0.2,0-0.4
				c1.6,0.1,2.4,0.2,4.1,0.4c1.2,0.2,2,0.4,2.5,0.9c0.6,0.5,0.9,1.1,0.7,1.9c-0.2,1.1-1.2,1.6-2.3,1.8c0.2,0.5,0.6,1.4,1,2.1
				c0.4,0.8,0.6,1.2,0.9,1.6c0.3,0.5,0.6,0.7,0.8,0.8C94.6,43.9,94.6,44,94.6,44.1z M90.1,39c0.8,0.1,1.3,0.1,1.7-0.1
				c0.6-0.3,1-0.7,1.1-1.4c0.2-1.4-0.8-2.1-2-2.2c-0.5-0.1-0.8,0-0.9,0c-0.1,0.1-0.2,0.2-0.2,0.5c-0.1,1.3-0.2,1.9-0.3,3.2
				C89.7,39,89.8,39,90.1,39z"/>
		</g>
		<g>
			<path class="st2" d="M102.5,44.6c-0.3,0.4-1,1.3-1.3,1.7c-2.5-1.1-3.7-1.5-6.3-2.2c0-0.1,0.1-0.2,0.1-0.4
				c1.2,0.2,1.4,0.2,1.7-0.8c0.6-2,0.9-3,1.4-4.9c0.3-1.1,0.2-1.2-1-1.6c0-0.1,0.1-0.2,0.1-0.4c2.9,0.8,4.3,1.2,7,2.4
				c-0.1,0.3-0.4,1.1-0.6,1.8c-0.2-0.1-0.3-0.1-0.5-0.1c0.1-0.6,0-0.9-0.1-1.2c-0.1-0.3-0.5-0.6-1.6-1c-0.5-0.2-0.7-0.3-1.2-0.4
				c-0.5-0.2-0.5-0.1-0.6,0.2c-0.4,1.1-0.5,1.7-0.9,2.8c0.5,0.2,0.8,0.3,1.4,0.5c1.3,0.5,1.4,0.4,1.9-0.3c0.2,0.1,0.3,0.1,0.4,0.2
				c-0.4,0.9-0.6,1.4-0.9,2.3c-0.2-0.1-0.2-0.1-0.4-0.2c0.2-0.9,0.1-1.1-1.2-1.5c-0.5-0.2-0.8-0.3-1.4-0.5c-0.3,0.9-0.5,1.4-0.8,2.3
				c-0.2,0.6-0.2,0.9,0,1.1c0.2,0.2,0.7,0.4,1.3,0.6c1,0.4,1.4,0.4,1.8,0.2c0.3-0.1,0.7-0.4,1.1-0.8
				C102.3,44.5,102.4,44.5,102.5,44.6z"/>
		</g>
		<g>
			<path class="st2" d="M115.7,45.7c-0.8-0.6-1.2-0.7-1.6-0.3c-0.3,0.3-0.7,0.7-1.4,1.7c-1.2,1.7-1.9,2.5-3.1,4.2
				c-0.1-0.1-0.2-0.2-0.4-0.3c-0.4-3.6-0.8-5.5-1.9-9.2c0,0,0,0,0,0c-0.6,1.1-0.9,1.7-1.5,2.9c-0.6,1-0.8,1.6-0.9,2
				c-0.2,0.6,0,0.9,0.8,1.4c-0.1,0.1-0.1,0.2-0.2,0.3c-1.2-0.7-1.8-1-3-1.6c0.1-0.1,0.1-0.2,0.2-0.3c0.8,0.3,1.1,0.3,1.5-0.2
				c0.2-0.3,0.5-0.9,1.1-1.9c0.5-1,0.8-1.5,1.3-2.5c0.4-0.8,0.4-0.9,0.3-1.3c-0.1-0.4-0.4-0.7-1.1-1.1c0.1-0.1,0.1-0.2,0.2-0.3
				c0.9,0.4,1.3,0.6,2.2,1.1c1.3,3.6,1.7,5.4,2.2,9c0,0,0,0,0,0c0.7-1,1.1-1.5,1.9-2.6c0.7-1,1-1.5,1.2-1.8c0.3-0.5,0-0.9-0.9-1.6
				c0.1-0.1,0.1-0.2,0.2-0.3c1.3,0.9,2,1.4,3.3,2.4C115.8,45.5,115.8,45.6,115.7,45.7z"/>
		</g>
	</g>
	<g>
		<g>
			<path class="st2" d="M55.3,116.7c0.3-0.6,0.4-0.9,0.4-1.2c0-0.4-0.1-0.6-1-1.5c-0.3-0.3-0.5-0.5-0.8-0.8
				c-1.8,1.8-2.7,2.6-4.6,4.4c-0.7,0.7-0.7,0.9,0.5,2.2c-0.1,0.1-0.2,0.2-0.3,0.3c-1.5-1.5-2.3-2.3-3.7-4c0.1-0.1,0.2-0.1,0.3-0.2
				c1.2,1.3,1.4,1.3,2.1,0.6c1.9-1.7,2.8-2.6,4.7-4.3c-0.3-0.3-0.4-0.4-0.7-0.7c-0.9-1-1.2-1.2-1.5-1.2c-0.3,0-0.7,0.1-1.2,0.3
				c-0.1-0.2-0.2-0.2-0.3-0.4c0.7-0.4,1.4-0.8,2-1.2c0.1,0.1,0.1,0.2,0.2,0.3c-0.1,0.4,0,0.5,0.3,0.9c1.6,2,2.4,2.9,4.2,4.6
				c0.3,0.3,0.5,0.3,0.8,0.3c0.1,0.1,0.1,0.1,0.2,0.2c-0.4,0.4-1,1.2-1.4,1.8C55.5,116.8,55.4,116.8,55.3,116.7z"/>
		</g>
		<g>
			<path class="st2" d="M61.2,128.5c-0.2-0.1-0.4-0.2-0.6-0.3c-1.1-0.7-1.7-1.3-1.9-2.5c-0.2-0.9-0.3-1.9-0.4-2.7
				c0-0.5-0.2-0.7-0.9-1.3c-0.2-0.1-0.3-0.2-0.4-0.3c-0.5,0.7-0.7,1-1.2,1.7c-0.6,0.9-0.6,1.1,0.6,1.9c-0.1,0.1-0.1,0.2-0.2,0.3
				c-1.6-1.1-2.3-1.7-3.8-2.9c0.1-0.1,0.1-0.2,0.2-0.3c1.2,0.9,1.4,0.9,2.1,0c1.3-1.6,1.9-2.5,3.2-4.1c0.7-0.9,0.6-1-0.3-1.8
				c0.1-0.1,0.1-0.2,0.2-0.3c1.2,1,1.8,1.4,3,2.3c0.9,0.6,1.5,1.1,1.8,1.7c0.3,0.6,0.4,1.3,0,2c-0.6,1-1.6,1.1-2.9,0.8
				c0,0.5,0.2,1.6,0.3,2.4c0.2,0.9,0.4,1.4,0.6,1.9c0.2,0.6,0.5,0.9,0.8,1.1C61.3,128.4,61.3,128.4,61.2,128.5z M57.9,121.7
				c0.7,0.5,1.2,0.7,1.7,0.7c0.7,0,1.2-0.3,1.6-0.9c0.7-1.2,0.1-2.2-0.9-2.9c-0.4-0.3-0.6-0.4-0.8-0.4c-0.1,0-0.3,0.1-0.5,0.4
				c-0.7,1-1.1,1.5-1.9,2.6C57.5,121.4,57.7,121.5,57.9,121.7z"/>
		</g>
		<g>
			<path class="st2" d="M74.3,124.8c-0.9-0.2-1.2-0.1-1.5,0.4c-0.1,0.3-0.3,0.9-0.6,2c-0.1,0.4-0.2,0.6-0.3,1
				c-0.4,1.5-1,2.5-2.2,2.9c-0.9,0.4-2.2,0.2-3.3-0.2c-1-0.4-1.9-0.9-2.4-1.6c-0.7-1-0.7-2.1-0.1-3.4c0.6-1.2,0.8-1.7,1.4-2.9
				c0.5-1,0.4-1.1-0.6-1.8c0.1-0.1,0.1-0.2,0.2-0.3c1.4,0.7,2.1,1,3.5,1.6c-0.1,0.1-0.1,0.2-0.1,0.3c-1.1-0.4-1.3-0.4-1.7,0.7
				c-0.5,1.1-0.7,1.6-1.2,2.7c-0.8,1.9-0.3,3.5,1.7,4.2c2.4,0.9,3.6-0.5,4.2-2.5c0.1-0.4,0.2-0.6,0.3-0.9c0.3-1.1,0.5-1.7,0.5-2.1
				c0.1-0.5-0.2-0.7-1.2-1.1c0-0.1,0.1-0.2,0.1-0.3c1.3,0.4,2,0.6,3.4,1C74.4,124.6,74.4,124.7,74.3,124.8z"/>
		</g>
		<g>
			<path class="st2" d="M82.9,134c0-0.1,0-0.2,0-0.4c1.4-0.1,1.5-0.1,1.5-1.5c0-2.1,0-3.2,0-5.3c0,0,0,0-0.1,0
				c-1.5,2.8-2.3,4.2-4.3,6.9c-0.1,0-0.2,0-0.4,0c-1.3-2.9-1.8-4.4-2.7-7.3c0,0,0,0,0,0c-0.3,1.4-0.5,2.1-0.9,3.6
				c-0.3,1-0.4,1.6-0.4,2.1c-0.1,0.6,0.3,0.8,1.4,1c0,0.1,0,0.2-0.1,0.4c-1.6-0.2-2.4-0.4-4-0.8c0-0.1,0-0.2,0.1-0.4
				c1,0.1,1.4,0.1,1.6-0.4c0.2-0.4,0.4-1,0.8-2.3c0.3-1,0.4-1.6,0.7-2.6c0.5-1.6,0.4-1.7-0.9-2.1c0-0.1,0-0.2,0.1-0.4
				c0.9,0.2,1.4,0.3,2.4,0.4c0.9,2.8,1.5,4.1,2.8,6.8c1.8-2.4,2.5-3.7,3.9-6.3c1,0,1.5,0,2.5-0.1c0,0.1,0,0.2,0,0.4
				c-1.3,0.2-1.4,0.2-1.3,1.5c0.1,1.9,0.2,2.8,0.3,4.7c0.1,1.4,0.1,1.5,1.7,1.5c0,0.1,0,0.2,0,0.4C85.7,134.1,84.8,134.1,82.9,134z"
				/>
		</g>
		<g>
			<path class="st2" d="M93.6,128.6c1.6-0.1,3,0.1,3.3,1.3c0.2,0.8-0.2,1.6-1.1,2.3c-0.8,0.6-1.9,0.9-3.3,1.2
				c-1.5,0.2-2.3,0.3-3.8,0.5c0-0.1,0-0.2,0-0.4c1.5-0.2,1.6-0.3,1.4-1.4c-0.2-2.1-0.4-3.1-0.6-5.2c-0.1-1.1-0.2-1.1-1.4-1.1
				c0-0.1,0-0.2,0-0.4c1.5-0.1,2.2-0.2,3.7-0.5c1.1-0.2,1.7-0.2,2.3,0c0.6,0.2,1,0.7,1.2,1.2C95.6,127.4,94.5,128.2,93.6,128.6
				C93.6,128.6,93.6,128.6,93.6,128.6z M91.8,128.8c1.7-0.3,2.3-1,2.1-2.1c-0.2-0.9-0.9-1.5-2.3-1.2c-0.4,0.1-0.7,0.2-0.8,0.3
				c-0.1,0.1-0.2,0.2-0.1,0.7c0.1,1,0.2,1.5,0.4,2.5C91.4,128.9,91.5,128.8,91.8,128.8z M91.5,131.9c0.1,0.9,0.5,1.1,1.6,0.9
				c1.4-0.3,2.5-1.1,2.2-2.4c-0.3-1.3-1.5-1.6-3.5-1.3c-0.3,0-0.4,0.1-0.7,0.1C91.3,130.4,91.4,130.9,91.5,131.9z"/>
		</g>
		<g>
			<path class="st2" d="M105.6,120.4c-0.8,0.5-1,0.8-0.8,1.3c0.1,0.3,0.4,0.8,0.9,1.9c0.2,0.4,0.3,0.6,0.5,0.9
				c0.7,1.3,1,2.5,0.4,3.6c-0.4,0.9-1.4,1.7-2.5,2.1c-1,0.4-2,0.6-2.9,0.5c-1.2-0.2-1.9-1-2.4-2.4c-0.4-1.2-0.6-1.8-1-3.1
				c-0.4-1.1-0.5-1.1-1.6-0.9c0-0.1-0.1-0.2-0.1-0.3c1.5-0.4,2.2-0.7,3.6-1.2c0.1,0.1,0.1,0.2,0.1,0.3c-1.1,0.5-1.2,0.6-0.8,1.7
				c0.4,1.1,0.6,1.7,1,2.8c0.7,2,2.2,2.7,4.2,1.9c2.3-1,2.3-2.8,1.3-4.7c-0.2-0.3-0.3-0.5-0.5-0.9c-0.5-1.1-0.8-1.5-1.1-1.8
				c-0.3-0.4-0.7-0.4-1.6,0c-0.1-0.1-0.1-0.2-0.2-0.3c1.3-0.6,1.9-0.9,3.1-1.6C105.5,120.2,105.6,120.2,105.6,120.4z"/>
		</g>
		<g>
			<path class="st2" d="M116.4,120c0.2,0.4,0.7,1.5,0.8,2c-2.5,2.2-3.9,3.2-6.7,4.9c-0.1-0.1-0.1-0.2-0.2-0.3c1.2-0.8,1.3-1,0.7-1.9
				c-1.1-1.7-1.7-2.6-2.8-4.3c-0.6-0.9-0.7-0.9-1.8-0.3c-0.1-0.1-0.1-0.2-0.2-0.3c1.3-0.8,2-1.3,3.3-2.2c0.1,0.1,0.1,0.2,0.2,0.3
				c-0.9,0.8-1,0.9-0.4,1.8c1.2,1.7,1.8,2.5,2.9,4.2c0.4,0.6,0.6,0.7,1,0.7c0.4-0.1,0.9-0.4,1.5-0.9c0.8-0.6,1.2-1.1,1.3-1.6
				c0.1-0.4,0.1-0.9-0.1-1.6C116.1,120.1,116.2,120.1,116.4,120z"/>
		</g>
		<g>
			<path class="st2" d="M123,112.8c0.3,0.3,1,1.4,1.2,1.8c-2.1,2.8-3.3,4-5.8,6.3c-0.1-0.1-0.1-0.2-0.2-0.3c1.1-1.1,1.1-1.3,0.3-2.1
				c-1.4-1.5-2.2-2.2-3.6-3.7c-0.8-0.8-0.9-0.7-1.9,0.1c-0.1-0.1-0.1-0.2-0.2-0.3c1.2-1.1,1.8-1.7,2.9-2.9c0.1,0.1,0.2,0.1,0.3,0.2
				c-0.8,1-0.8,1.1-0.1,1.9c1.5,1.4,2.2,2.1,3.7,3.5c0.5,0.5,0.8,0.6,1.1,0.4c0.4-0.2,0.8-0.6,1.3-1.2c0.7-0.8,1-1.3,1.1-1.9
				c0-0.4-0.1-1-0.4-1.5C122.8,113,122.9,112.9,123,112.8z"/>
		</g>
	</g>
</g>
</svg>
