<svg version="1.1" id="Layer_1" xmlns="http://www.w3.org/2000/svg" x="0" y="0" viewBox="0 0 65.8 65.8" xml:space="preserve"><style>.st13{fill:#191817}</style><circle cx="32.9" cy="32.9" r="32.4" fill="#fff" stroke="#fff" stroke-miterlimit="10"/><ellipse cx="32.7" cy="33.2" rx="20.3" ry="20.7" fill="#e96f2b"/><path d="M56.3 41.7H37.1l6.7-8.8-6.7-9.2h19l6.8 9zm-47-17.6h19.2l-6.6 8.8 6.6 9.2-19-.1-6.8-8.9z" fill="#fbe904"/><path class="st13" d="M33.8 10.9h.5c2.7.2 5.4.9 7.9 2.1 2.1 1 4 2.3 5.7 4 2 1.9 3.5 4 4.7 6.5 0 .1.1.1.2.1h3.6c.1 0 .2 0 .2.1 2.2 3.1 4.5 6.1 6.7 9.1.1.1 0 .1 0 .2-2.3 3.1-4.6 6.1-6.9 9.2-.1.1-.2.2-.3.2h-3.4c-.1 0-.2 0-.2.1-1 2.1-2.3 4-3.9 5.6-2.4 2.5-5.3 4.4-8.7 5.6-1.4.5-2.8.8-4.2 1-1.3.2-2.5.2-3.8.2-3.1-.1-6-.8-8.7-2.2-2.3-1.1-4.3-2.6-6.1-4.5-1.6-1.7-3-3.6-4-5.7-.1-.2-.2-.2-.3-.2H9.7c-.1 0-.2 0-.2-.1-1.9-2.5-3.8-5.1-5.8-7.7-.4-.5-.8-1.1-1.2-1.6v-.2c2.2-3.1 4.5-6.1 6.7-9.2.1-.1.1-.1.2-.1h3.3c.1 0 .2 0 .2-.1 1.1-2.2 2.4-4.2 4.1-6 2.5-2.5 5.4-4.4 8.8-5.6 1.4-.5 2.9-.8 4.4-1 .4 0 .9-.1 1.3-.1h.1c.7.3 1.4.3 2.2.3zm2.4 31.4c.1 0 .1 0 0 0 1.1-1.5 2.2-2.9 3.2-4.3l3.9-5.1c.1-.1 0-.1 0-.2-.1-.2-.2-.3-.4-.5-2.2-2.9-4.3-5.8-6.4-8.6 0 0-.1-.1 0-.1h14v-.2c-1.4-2.7-3.4-4.9-5.8-6.7-3.4-2.5-7.3-3.8-11.5-3.9-1.3 0-2.6.1-3.9.3-2 .4-4 1-5.8 2-2.5 1.3-4.7 3.1-6.5 5.4-.8 1-1.4 2-2 3.1-.1.1 0 .2.1.1h14.2c0 .1 0 .1-.1.1-2.2 2.9-4.3 5.9-6.5 8.8-.1.1-.3.3-.3.4 0 .2.2.3.3.4 2.3 3 4.5 6 6.8 9 0 0 .1 0 0 .1H15.1c2.8 5.4 9.7 11.4 19.5 10.5 3.4-.3 6.5-1.4 9.3-3.3 2.8-1.9 5-4.3 6.7-7.3H36.2zm-8.2-18c-.1 0-.1 0 0 0H9.8c-.1 0-.1 0-.2.1-2.1 2.8-4.1 5.6-6.2 8.4-.1.1-.1.2 0 .2 2.2 2.9 4.3 5.7 6.5 8.6.1.1.1.1.2.1h18.1s0-.1-.1-.1l-6.6-8.4c-.1-.1-.1-.2 0-.3l6.3-8.4c.1-.1.1-.2.2-.2zm9.9-.1c0 .1.1.1.1.2l6.3 8.4c.1.1.1.2 0 .2-2.2 2.8-4.4 5.7-6.6 8.5 0 0-.1.1 0 .1h18.1c.1 0 .2 0 .3-.1 2.2-2.8 4.3-5.6 6.5-8.5.1-.1.1-.2 0-.3-2.1-2.8-4.1-5.6-6.2-8.4-.1-.1-.2-.1-.3-.1H37.9zm-24.7-.6h.8c.1 0 .2 0 .2-.1 1.1-2.1 2.4-4 4.1-5.6 1.6-1.5 3.4-2.8 5.4-3.8 3.2-1.6 6.6-2.2 10.1-2.1 1.2.1 2.5.2 3.6.5 4.9 1.2 8.9 3.8 11.9 7.8.7.9 1.3 2 1.9 3.1 0 0 0 .1.1.1h.9c-3-6.4-10.3-12.6-20.3-12.3-9 .3-15.8 6.1-18.7 12.4zm39 18.7h-.8c-.1 0-.1 0-.2.1-1.1 2.1-2.5 4-4.3 5.6-1.6 1.5-3.5 2.8-5.5 3.7-2.5 1.1-5 1.8-7.7 1.9-1.8.1-3.5 0-5.2-.4-4.3-.9-7.9-3-11-6.2-1.3-1.4-2.4-2.9-3.2-4.6 0-.1-.1-.1-.2-.1h-.7c-.2 0-.1 0-.1.2 1 2.1 2.3 3.9 4 5.6 1.8 1.8 3.8 3.2 6.1 4.3 2.7 1.3 5.5 2 8.5 2.1 1.6.1 3.1 0 4.6-.3 2.2-.4 4.2-1.1 6.1-2.1 3.9-2 6.9-5 9.1-8.9.2-.2.3-.5.5-.9z"/><path d="M13.2 23.6c2.9-6.3 9.7-12.1 18.8-12.4 10-.3 17.3 5.9 20.3 12.3h-.9c-.1 0-.1-.1-.1-.1-.5-1.1-1.2-2.1-1.9-3.1-3.1-4-7-6.7-11.9-7.8-1.2-.3-2.4-.4-3.6-.5-3.6-.2-6.9.5-10.1 2.1-2 1-3.8 2.2-5.4 3.8-1.7 1.6-3.1 3.5-4.1 5.6 0 .1-.1.1-.2.1h-.9zm39 18.7c-.2.3-.3.6-.5.9-2.2 3.9-5.2 6.9-9.1 8.9-1.9 1-4 1.7-6.1 2.1-1.5.3-3.1.4-4.6.3-3-.1-5.8-.8-8.5-2.1-2.3-1.1-4.3-2.5-6.1-4.3-1.6-1.6-2.9-3.5-4-5.6 0-.1-.1-.2.1-.2h.7c.1 0 .1 0 .2.1.9 1.7 2 3.2 3.2 4.6 3 3.2 6.7 5.3 11 6.2 1.7.4 3.4.5 5.2.4 2.7-.1 5.3-.7 7.7-1.9 2-.9 3.9-2.2 5.5-3.7 1.7-1.6 3.2-3.5 4.3-5.6 0-.1.1-.1.2-.1h.8z" fill="#f29220"/><path class="st13" d="M38.2 38.7H34c-.1 0-.2 0-.3-.2-1.5-1.9-3-3.7-4.4-5.6-.8-1-1-2.5-.2-3.8.2-.4.5-.7.9-.9.1-.1.1-.1.2 0 1 1.3 2 2.5 2.9 3.8 1.6 2.3 3.3 4.5 5.1 6.7-.1 0 0 0 0 0zm-7.3.2c-.6 0-1.1 0-1.6-.2-1.4-.7-2.2-1.8-2.4-3.4-.1-1 .3-1.8 1.1-2.5.1-.1.1 0 .2 0 .9 1.2 1.9 2.4 2.8 3.6.5.7 1.1 1.4 1.6 2 .1.1.1.1 0 .2-.4.2-.7.3-1.1.3h-.6zm4.2-8.9c0 .9-.4 1.6-1 2.1-.1.1-.1.1-.2 0-1.1-1.4-2.2-2.8-3.3-4.1-.1-.1 0-.1 0-.2 1.7-1.2 4.1-.2 4.4 2 .1 0 .1.1.1.2zm3 3.2c0 .4 0 .8-.1 1.1 0 .1 0 .2-.1.2l-1.2.9c-.1.1-.1.1-.2 0-.2-.2-.3-.4-.5-.6 0 0-.1-.1 0-.1.7-.5 1.3-1 2.1-1.5 0 .1 0 .1 0 0zm-23.2-5.8h1.8c.1 0 .2 0 .2.2.5 2.2 1.1 4.3 1.7 6.4.2.6.3 1.1.5 1.7v.3c-.2.8-.4 1.6-.5 2.4 0 .1-.1.2-.2.2h-2.3c-.1 0-.2 0-.2-.2-.7-2.6-1.4-5.2-2.1-7.7-.3-1-.5-2-.8-3 0-.2 0-.2.2-.2.5-.1 1.1-.1 1.7-.1zm-4.8 0h1.8c.1 0 .1 0 .2.1.7 2.7 1.4 5.4 2.2 8.2v.2c-.2.8-.4 1.6-.5 2.4 0 .1 0 .1-.2.1h-2.3c-.1 0-.1 0-.2-.1-.7-2.5-1.3-5-2-7.5l-.9-3.3c0-.1 0-.2.1-.2.6.1 1.3.1 1.8.1zm9.4 6.8c-.2-.6-.3-1.2-.5-1.8v-.2c.4-1.6.8-3.1 1.3-4.7 0-.1 0-.1.2-.1h.9c.1 0 .1 0 .1.1-.3 1.2-.7 2.3-1 3.5-.4 1.1-.7 2.1-1 3.2 0-.1 0 0 0 0z"/><path d="M21.5 46.2c.1 0 .1 0 0 0 .1 0 .1 0 0 0 .1 0 .1 0 0 0zm-1.2.4zm1.1.9s-.1.1 0 0zm19 1.1s.1 0 0 0c.1 0 0 0 0 0z" fill="#ef8322"/><path class="st13" d="M48 27.2h3.9v13H48zm4.3 0h4.1v2.9h-4.1zm-8.7 0H48v2.9h-4.4zM25.8 14.8c-.4.2-.4.3-.5.7 0 .4 0 1.4.2 2.9-.1 0-.1 0-.2.1-.6-.6-1.4-1.3-2.1-1.7.1.9.3 1.8.5 2.7 0 0-.1 0-.2.1-.7-.6-1.5-1.1-2.3-1.6-.4-.2-.5-.2-.8 0 0 0 0-.1-.1-.1.5-.4.8-.6 1.3-1 0 0 0 .1.1.1-.4.3-.4.4-.1.5.6.4 1.2.8 1.8 1.3-.2-.9-.3-1.8-.4-2.7.1 0 .1 0 .2-.1.7.5 1.4 1.1 2.1 1.7-.1-.7-.2-1.8-.2-2.1 0-.3-.1-.4-.6-.2 0 0 0-.1-.1-.1.5-.2.8-.4 1.3-.5 0-.1.1-.1.1 0zm2.7 2.4V17c.3-.1.4-.2.2-.4-.1-.2-.3-.4-.5-.7-.5.1-.7.2-1.2.4v.7c0 .4 0 .4.5.3v.1c-.4.2-.7.2-1.1.4v-.1c.3-.2.4-.2.4-.7.1-1.2.2-1.7.4-2.9.1 0 .1-.1.2-.1.6.7 1.3 1.6 1.8 2.3.3.4.4.4.7.4v.2c-.6.1-.9.2-1.4.3zm-1.3-2.5c-.1.5-.2.9-.2 1.4.4-.1.6-.2 1.1-.3-.3-.4-.5-.6-.9-1.1zm6.1 2h-.2c-.4 0-.6-.2-.9-.5-.2-.2-.4-.5-.6-.8-.1-.1-.2-.2-.5-.2h-.2c0 .3 0 .5.1.8 0 .4.1.4.5.4v.2c-.5 0-.9.1-1.4.2v-.2c.4-.1.5-.1.4-.5-.1-.8-.2-1.2-.2-2 0-.4-.1-.4-.6-.4v-.2c.6-.1.9-.1 1.6-.2.5 0 .8 0 1 .1.3.1.4.4.4.7 0 .4-.3.7-.7.9.1.2.4.5.5.7.2.3.3.4.4.5.2.2.3.2.4.2v.3zm-2.1-1.6c.3 0 .5-.1.6-.2.2-.2.3-.4.3-.6 0-.5-.5-.7-.9-.7-.2 0-.3 0-.4.1 0 0-.1.1 0 .2 0 .5.1.7.1 1.3.1-.1.2-.1.3-.1zm5.4 2.1h-.2c-.4-.1-.6-.3-.8-.6-.2-.3-.3-.6-.4-.9-.1-.2-.2-.2-.5-.3h-.2c0 .3 0 .5-.1.8 0 .4 0 .5.4.5v.2c-.5-.1-.9-.1-1.4-.1v-.2c.4 0 .5 0 .5-.5.1-.8.1-1.2.2-2 0-.4 0-.5-.5-.5v-.2c.6 0 .9.1 1.6.2.5.1.8.2 1 .4.2.2.4.4.3.7-.1.4-.5.6-.9.7.1.2.2.5.4.8.2.3.2.5.4.6.1.2.2.3.3.3-.1 0-.1.1-.1.1zm-1.8-2h.7c.2-.1.4-.3.4-.5.1-.5-.3-.8-.8-.9h-.4s-.1.1-.1.2c0 .5-.1.7-.1 1.3.2-.1.2-.1.3-.1zm4.9 2.2c-.1.2-.4.5-.5.7-1-.4-1.4-.6-2.5-.9V17c.5.1.5.1.7-.3.2-.8.4-1.2.5-1.9.1-.4.1-.5-.4-.6V14c1.1.3 1.7.5 2.7.9 0 .1-.2.4-.2.7h-.2v-.5c0-.1-.2-.2-.6-.4-.2-.1-.3-.1-.5-.2s-.2 0-.2.1c-.2.4-.2.7-.4 1.1.2.1.3.1.5.2.5.2.5.2.7-.1.1 0 .1 0 .2.1-.2.4-.2.5-.4.9-.1 0-.1 0-.2-.1.1-.4 0-.4-.5-.6-.2-.1-.3-.1-.5-.2-.1.4-.2.5-.3.9-.1.2-.1.4 0 .4.1.1.3.2.5.2.4.2.5.2.7.1.1 0 .3-.2.4-.3.4.2.5.2.5.2zm5.2.4c-.3-.2-.5-.3-.6-.1-.1.1-.3.3-.5.7-.5.7-.7 1-1.2 1.6 0 0-.1-.1-.2-.1-.2-1.4-.3-2.2-.7-3.6-.2.4-.4.7-.6 1.1l-.4.8c-.1.2 0 .4.3.5 0 0 0 .1-.1.1-.5-.3-.7-.4-1.2-.6 0 0 0-.1.1-.1.3.1.4.1.6-.1.1-.1.2-.4.4-.7l.5-1c.2-.3.2-.4.1-.5 0-.2-.2-.3-.4-.4 0 0 0-.1.1-.1.4.2.5.2.9.4.5 1.4.7 2.1.9 3.5.3-.4.4-.6.7-1 .3-.4.4-.6.5-.7.1-.2 0-.4-.4-.6 0 0 0-.1.1-.1.5.4.8.5 1.3.9l-.2.1zM21.2 45.6c.1-.2.2-.4.2-.5 0-.2 0-.2-.4-.6l-.3-.3c-.7.7-1.1 1-1.8 1.7-.3.3-.3.4.2.9l-.1.1c-.6-.6-.9-.9-1.4-1.6 0 0 .1 0 .1-.1.5.5.5.5.8.2.7-.7 1.1-1 1.8-1.7l-.3-.3c-.4-.4-.5-.5-.6-.5s-.3 0-.5.1c0-.1-.1-.1-.1-.2.3-.2.5-.3.8-.5 0 0 0 .1.1.1 0 .2 0 .2.1.4.6.8.9 1.1 1.6 1.8.1.1.2.1.3.1l.1.1c-.2.2-.4.5-.5.7 0 .2 0 .2-.1.1zm2.3 4.6c-.1 0-.2-.1-.2-.1-.4-.3-.7-.5-.7-1-.1-.4-.1-.7-.2-1.1 0-.2-.1-.3-.4-.5-.1 0-.1-.1-.2-.1-.2.3-.3.4-.5.7-.2.4-.2.4.2.7 0 0 0 .1-.1.1-.6-.4-.9-.7-1.5-1.1 0 0 0-.1.1-.1.5.4.5.4.8 0 .5-.6.7-1 1.3-1.6.3-.4.2-.4-.1-.7 0 0 0-.1.1-.1.5.4.7.5 1.2.9.4.2.6.4.7.7.1.2.2.5 0 .8-.2.4-.6.4-1.1.3 0 .2.1.6.1.9.1.4.2.5.2.7.1.2.2.4.3.4.1.2.1.2 0 .2zm-1.3-2.6c.3.2.5.3.7.3.3 0 .5-.1.6-.4.3-.5 0-.9-.4-1.1-.2-.1-.2-.2-.3-.2 0 0-.1 0-.2.2-.3.4-.4.6-.7 1 .2.1.3.1.3.2zm6.5 1.2c-.4-.1-.5 0-.6.2 0 .1-.1.4-.2.8 0 .2-.1.2-.1.4-.2.6-.4 1-.9 1.1-.4.2-.9.1-1.3-.1s-.7-.4-.9-.6c-.3-.4-.3-.8 0-1.3.2-.5.3-.7.5-1.1.2-.4.2-.4-.2-.7 0 0 0-.1.1-.1.5.3.8.4 1.4.6v.1c-.4-.2-.5-.2-.7.3-.2.4-.3.6-.5 1.1-.3.7-.1 1.4.7 1.6.9.4 1.4-.2 1.6-1 0-.2.1-.2.1-.4.1-.4.2-.7.2-.8 0-.2-.1-.3-.5-.4v-.1c.5.2.8.2 1.3.4 0-.1 0 0 0 0z"/><path class="st13" d="M32 52.4v-.2c.5 0 .6 0 .6-.6v-2.1c-.6 1.1-.9 1.6-1.7 2.7h-.2c-.5-1.1-.7-1.7-1.1-2.9-.1.5-.2.8-.4 1.4-.1.4-.2.6-.2.8 0 .2.1.3.5.4v.2c-.6-.1-.9-.2-1.6-.3v-.2c.4 0 .5 0 .6-.2.1-.2.2-.4.3-.9.1-.4.2-.6.3-1 .2-.6.2-.7-.4-.8v-.2c.4.1.5.1.9.2.4 1.1.6 1.6 1.1 2.7.7-.9 1-1.4 1.5-2.5h1v.2c-.5.1-.5.1-.5.6 0 .7.1 1.1.1 1.8 0 .5 0 .6.7.6v.2c-.4.1-.7.1-1.5.1zm4.2-2.1c.6 0 1.2 0 1.3.5.1.3-.1.6-.4.9-.3.2-.7.4-1.3.5-.6.1-.9.1-1.5.2v-.2c.6-.1.6-.1.5-.5-.1-.8-.2-1.2-.2-2 0-.4-.1-.4-.5-.4v-.2c.6 0 .9-.1 1.4-.2.4-.1.7-.1.9 0 .2.1.4.3.5.5.1.4-.3.7-.7.9zm-.7.1c.7-.1.9-.4.8-.8-.1-.4-.4-.6-.9-.5-.2 0-.3.1-.3.1s-.1.1 0 .3c0 .4.1.6.2 1 0-.1.1-.1.2-.1zm-.1 1.2c0 .4.2.4.6.4.5-.1 1-.4.9-.9s-.6-.6-1.4-.5h-.3c.1.4.1.6.2 1zm5.5-4.5c-.3.2-.4.3-.3.5 0 .1.2.3.4.7l.2.4c.3.5.4 1 .2 1.4-.2.4-.5.7-1 .8-.4.2-.8.2-1.1.2-.5-.1-.7-.4-.9-.9-.2-.5-.2-.7-.4-1.2-.2-.4-.2-.4-.6-.4v-.1c.6-.2.9-.3 1.4-.5v.1c-.4.2-.5.2-.3.7.2.4.2.7.4 1.1.3.8.9 1.1 1.6.7.9-.4.9-1.1.5-1.8-.1-.1-.1-.2-.2-.4-.2-.4-.3-.6-.4-.7-.1-.2-.3-.2-.6 0 0 0 0-.1-.1-.1.5-.2.7-.4 1.2-.6v.1zm4.2-.2c.1.2.3.6.3.8-1 .9-1.5 1.3-2.6 1.9 0 0 0-.1-.1-.1.5-.3.5-.4.3-.7-.4-.7-.7-1-1.1-1.7-.2-.4-.3-.4-.7-.1 0 0 0-.1-.1-.1.5-.3.8-.5 1.3-.9 0 0 0 .1.1.1-.4.3-.4.4-.2.7.5.7.7 1 1.1 1.6.2.2.2.3.4.3s.4-.2.6-.4c.3-.2.5-.4.5-.6v-.6c.1-.1.2-.1.2-.2zm2.6-2.8c.1.1.4.5.5.7-.8 1.1-1.3 1.6-2.3 2.5 0 0 0-.1-.1-.1.4-.4.4-.5.1-.8-.5-.6-.9-.9-1.4-1.4-.3-.3-.4-.3-.7 0 0 0 0-.1-.1-.1.5-.4.7-.7 1.1-1.1 0 0 .1 0 .1.1-.3.4-.3.4 0 .7.6.5.9.8 1.4 1.4.2.2.3.2.4.2.2-.1.3-.2.5-.5.3-.3.4-.5.4-.7 0-.2 0-.4-.2-.6l.3-.3z"/></svg>