<?xml version="1.0" encoding="utf-8"?>
<!-- Generator: Adobe Illustrator 21.0.0, SVG Export Plug-In . SVG Version: 6.00 Build 0)  -->
<svg version="1.1" id="Layer_1" xmlns="http://www.w3.org/2000/svg" xmlns:xlink="http://www.w3.org/1999/xlink" x="0px" y="0px"
	 viewBox="0 0 65.8 65.8" style="enable-background:new 0 0 65.8 65.8;" xml:space="preserve">
<style type="text/css">
	.st0{fill:#FFFFFF;stroke:#000000;stroke-miterlimit:10;}
	.st1{fill:#FFFFFF;stroke:#FFFFFF;stroke-miterlimit:10;}
	.st2{fill:none;stroke:#BE2026;stroke-width:2;stroke-miterlimit:10;}
	.st3{fill:#FFDEA7;}
	.st4{fill:#BE2026;}
	.st5{fill:#1C94D2;stroke:#FFFFFF;stroke-miterlimit:10;}
	.st6{fill:#FFFFFF;}
	.st7{fill:#00AFAD;stroke:#FFFFFF;stroke-miterlimit:10;}
	.st8{fill:#FFFFFF;stroke:#000000;stroke-width:0.25;stroke-miterlimit:10;}
	.st9{fill:#06884B;}
	.st10{fill:#BEC8CC;stroke:#FFFFFF;stroke-miterlimit:10;}
	.st11{clip-path:url(#SVGID_2_);}
	.st12{fill:#E22126;stroke:#FBE904;stroke-width:0.75;stroke-miterlimit:10;}
	.st13{fill:#191817;}
	.st14{fill:#FBE904;}
	.st15{fill:#E63229;}
	.st16{fill:#FEF16E;stroke:#FFFFFF;stroke-miterlimit:10;}
	.st17{fill:#1F4180;}
	.st18{fill:none;stroke:#E21E26;stroke-width:2;stroke-miterlimit:10;}
	.st19{fill:#E96F2B;}
	.st20{fill:#F29220;}
	.st21{fill:#EF8322;}
	.st22{fill:#EE3F80;}
	.st23{fill:#F1A847;}
	.st24{fill:#FDBA3A;}
	.st25{clip-path:url(#SVGID_4_);}
	.st26{fill:#383635;}
	.st27{clip-path:url(#SVGID_6_);}
	.st28{fill:#181A10;stroke:#FFFFFF;stroke-miterlimit:10;}
	.st29{fill:#EF4323;stroke:#FFFFFF;stroke-miterlimit:10;}
	.st30{fill:#BEDB86;stroke:#FFFFFF;stroke-miterlimit:10;}
	.st31{fill:#FFFFFF;stroke:#000000;stroke-width:0.5;stroke-miterlimit:10;}
	.st32{fill:#E38328;stroke:#FFFFFF;stroke-miterlimit:10;}
	.st33{fill:#020202;}
	.st34{fill:none;stroke:#FFFFFF;stroke-miterlimit:10;}
	.st35{fill:#BFDEF3;stroke:#FFFFFF;stroke-miterlimit:10;}
	.st36{fill:#994573;}
	.st37{fill:#F6F6F6;}
	.st38{fill:#8F4199;stroke:#FFFFFF;stroke-miterlimit:10;}
	.st39{fill:#175633;}
	.st40{fill:#984D2D;}
</style>
<circle class="st1" cx="32.9" cy="32.9" r="32.4"/>
<g>
	<g>
		<ellipse class="st19" cx="32.7" cy="33.2" rx="20.3" ry="20.7"/>
	</g>
	<g>
		<polygon class="st14" points="56.3,41.7 37.1,41.7 43.8,32.9 37.1,23.7 56.1,23.7 62.9,32.7 		"/>
	</g>
	<g>
		<polygon class="st14" points="9.3,24.1 28.5,24.1 21.9,32.9 28.5,42.1 9.5,42 2.7,33.1 		"/>
	</g>
	<g>
		<g>
			<path class="st13" d="M33.8,10.9c0.2,0,0.4,0,0.5,0c2.7,0.2,5.4,0.9,7.9,2.1c2.1,1,4,2.3,5.7,4c2,1.9,3.5,4,4.7,6.5
				c0,0.1,0.1,0.1,0.2,0.1c1.2,0,2.4,0,3.6,0c0.1,0,0.2,0,0.2,0.1c2.2,3.1,4.5,6.1,6.7,9.1c0.1,0.1,0,0.1,0,0.2
				c-2.3,3.1-4.6,6.1-6.9,9.2c-0.1,0.1-0.2,0.2-0.3,0.2c-1.1,0-2.3,0-3.4,0c-0.1,0-0.2,0-0.2,0.1c-1,2.1-2.3,4-3.9,5.6
				c-2.4,2.5-5.3,4.4-8.7,5.6c-1.4,0.5-2.8,0.8-4.2,1c-1.3,0.2-2.5,0.2-3.8,0.2c-3.1-0.1-6-0.8-8.7-2.2c-2.3-1.1-4.3-2.6-6.1-4.5
				c-1.6-1.7-3-3.6-4-5.7c-0.1-0.2-0.2-0.2-0.3-0.2c-1.1,0-2.1,0-3.1,0c-0.1,0-0.2,0-0.2-0.1c-1.9-2.5-3.8-5.1-5.8-7.7
				c-0.4-0.5-0.8-1.1-1.2-1.6c0-0.1,0-0.1,0-0.2c2.2-3.1,4.5-6.1,6.7-9.2c0.1-0.1,0.1-0.1,0.2-0.1c1.1,0,2.2,0,3.3,0
				c0.1,0,0.2,0,0.2-0.1c1.1-2.2,2.4-4.2,4.1-6c2.5-2.5,5.4-4.4,8.8-5.6c1.4-0.5,2.9-0.8,4.4-1c0.4,0,0.9-0.1,1.3-0.1
				c0,0,0.1,0,0.1,0C32.3,10.9,33,10.9,33.8,10.9z M36.2,42.3C36.3,42.3,36.3,42.3,36.2,42.3c1.1-1.5,2.2-2.9,3.2-4.3
				c1.3-1.7,2.6-3.4,3.9-5.1c0.1-0.1,0-0.1,0-0.2c-0.1-0.2-0.2-0.3-0.4-0.5c-2.2-2.9-4.3-5.8-6.4-8.6c0,0-0.1-0.1,0-0.1
				c4.7,0,9.3,0,14,0c0-0.1,0-0.1,0-0.2c-1.4-2.7-3.4-4.9-5.8-6.7c-3.4-2.5-7.3-3.8-11.5-3.9c-1.3,0-2.6,0.1-3.9,0.3
				c-2,0.4-4,1-5.8,2c-2.5,1.3-4.7,3.1-6.5,5.4c-0.8,1-1.4,2-2,3.1c-0.1,0.1,0,0.2,0.1,0.1c0,0,0,0,0.1,0c4.7,0,9.3,0,13.9,0
				c0,0,0.1,0,0.2,0c0,0.1,0,0.1-0.1,0.1c-2.2,2.9-4.3,5.9-6.5,8.8c-0.1,0.1-0.3,0.3-0.3,0.4c0,0.2,0.2,0.3,0.3,0.4
				c2.3,3,4.5,6,6.8,9c0,0,0.1,0,0,0.1c-4.8,0-9.6,0-14.4,0c2.8,5.4,9.7,11.4,19.5,10.5c3.4-0.3,6.5-1.4,9.3-3.3
				c2.8-1.9,5-4.3,6.7-7.3C45.7,42.3,41,42.3,36.2,42.3z M28,24.3C27.9,24.3,27.9,24.3,28,24.3c-6.1,0-12.1,0-18.2,0
				c-0.1,0-0.1,0-0.2,0.1c-2.1,2.8-4.1,5.6-6.2,8.4c-0.1,0.1-0.1,0.2,0,0.2c2.2,2.9,4.3,5.7,6.5,8.6c0.1,0.1,0.1,0.1,0.2,0.1
				c6,0,11.9,0,17.9,0c0,0,0.1,0,0.2,0c0,0,0-0.1-0.1-0.1c-2.2-2.8-4.4-5.6-6.6-8.4c-0.1-0.1-0.1-0.2,0-0.3c2.1-2.8,4.2-5.6,6.3-8.4
				C27.9,24.4,27.9,24.3,28,24.3z M37.9,24.2c0,0.1,0.1,0.1,0.1,0.2c2.1,2.8,4.2,5.6,6.3,8.4c0.1,0.1,0.1,0.2,0,0.2
				c-2.2,2.8-4.4,5.7-6.6,8.5c0,0-0.1,0.1,0,0.1c0,0,0.1,0,0.2,0c6,0,11.9,0,17.9,0c0.1,0,0.2,0,0.3-0.1c2.2-2.8,4.3-5.6,6.5-8.5
				c0.1-0.1,0.1-0.2,0-0.3c-2.1-2.8-4.1-5.6-6.2-8.4c-0.1-0.1-0.2-0.1-0.3-0.1c-6,0-11.9,0-17.9,0C38,24.2,38,24.2,37.9,24.2z
				 M13.2,23.6c0.3,0,0.5,0,0.8,0c0.1,0,0.2,0,0.2-0.1c1.1-2.1,2.4-4,4.1-5.6c1.6-1.5,3.4-2.8,5.4-3.8c3.2-1.6,6.6-2.2,10.1-2.1
				c1.2,0.1,2.5,0.2,3.6,0.5c4.9,1.2,8.9,3.8,11.9,7.8c0.7,0.9,1.3,2,1.9,3.1c0,0,0,0.1,0.1,0.1c0.3,0,0.6,0,0.9,0
				c-3-6.4-10.3-12.6-20.3-12.3C22.9,11.5,16.1,17.3,13.2,23.6z M52.2,42.3c-0.3,0-0.5,0-0.8,0c-0.1,0-0.1,0-0.2,0.1
				c-1.1,2.1-2.5,4-4.3,5.6c-1.6,1.5-3.5,2.8-5.5,3.7c-2.5,1.1-5,1.8-7.7,1.9c-1.8,0.1-3.5,0-5.2-0.4c-4.3-0.9-7.9-3-11-6.2
				c-1.3-1.4-2.4-2.9-3.2-4.6c0-0.1-0.1-0.1-0.2-0.1c-0.2,0-0.4,0-0.7,0c-0.2,0-0.1,0-0.1,0.2c1,2.1,2.3,3.9,4,5.6
				c1.8,1.8,3.8,3.2,6.1,4.3c2.7,1.3,5.5,2,8.5,2.1c1.6,0.1,3.1,0,4.6-0.3c2.2-0.4,4.2-1.1,6.1-2.1c3.9-2,6.9-5,9.1-8.9
				C51.9,43,52,42.7,52.2,42.3z"/>
		</g>
	</g>
	<g>
		<g>
			<path class="st20" d="M13.2,23.6c2.9-6.3,9.7-12.1,18.8-12.4c10-0.3,17.3,5.9,20.3,12.3c-0.3,0-0.6,0-0.9,0
				c-0.1,0-0.1-0.1-0.1-0.1c-0.5-1.1-1.2-2.1-1.9-3.1c-3.1-4-7-6.7-11.9-7.8c-1.2-0.3-2.4-0.4-3.6-0.5c-3.6-0.2-6.9,0.5-10.1,2.1
				c-2,1-3.8,2.2-5.4,3.8c-1.7,1.6-3.1,3.5-4.1,5.6c0,0.1-0.1,0.1-0.2,0.1C13.7,23.6,13.4,23.6,13.2,23.6z"/>
		</g>
	</g>
	<g>
		<g>
			<path class="st20" d="M52.2,42.3c-0.2,0.3-0.3,0.6-0.5,0.9c-2.2,3.9-5.2,6.9-9.1,8.9c-1.9,1-4,1.7-6.1,2.1
				c-1.5,0.3-3.1,0.4-4.6,0.3c-3-0.1-5.8-0.8-8.5-2.1c-2.3-1.1-4.3-2.5-6.1-4.3c-1.6-1.6-2.9-3.5-4-5.6c0-0.1-0.1-0.2,0.1-0.2
				c0.2,0,0.4,0,0.7,0c0.1,0,0.1,0,0.2,0.1c0.9,1.7,2,3.2,3.2,4.6c3,3.2,6.7,5.3,11,6.2c1.7,0.4,3.4,0.5,5.2,0.4
				c2.7-0.1,5.3-0.7,7.7-1.9c2-0.9,3.9-2.2,5.5-3.7c1.7-1.6,3.2-3.5,4.3-5.6c0-0.1,0.1-0.1,0.2-0.1C51.6,42.3,51.9,42.3,52.2,42.3z"
				/>
		</g>
	</g>
	<g>
		<g>
			<path class="st13" d="M38.2,38.7c-0.1,0-0.1,0-0.2,0c-1.3,0-2.7,0-4,0c-0.1,0-0.2,0-0.3-0.2c-1.5-1.9-3-3.7-4.4-5.6
				c-0.8-1-1-2.5-0.2-3.8c0.2-0.4,0.5-0.7,0.9-0.9c0.1-0.1,0.1-0.1,0.2,0c1,1.3,2,2.5,2.9,3.8C34.7,34.3,36.4,36.5,38.2,38.7
				C38.1,38.7,38.2,38.7,38.2,38.7z"/>
		</g>
	</g>
	<g>
		<g>
			<path class="st13" d="M30.9,38.9c-0.6,0-1.1,0-1.6-0.2c-1.4-0.7-2.2-1.8-2.4-3.4c-0.1-1,0.3-1.8,1.1-2.5c0.1-0.1,0.1,0,0.2,0
				c0.9,1.2,1.9,2.4,2.8,3.6c0.5,0.7,1.1,1.4,1.6,2c0.1,0.1,0.1,0.1,0,0.2c-0.4,0.2-0.7,0.3-1.1,0.3C31.2,38.9,31,38.9,30.9,38.9z"
				/>
		</g>
	</g>
	<g>
		<g>
			<path class="st13" d="M35.1,30c0,0.9-0.4,1.6-1,2.1c-0.1,0.1-0.1,0.1-0.2,0c-1.1-1.4-2.2-2.8-3.3-4.1c-0.1-0.1,0-0.1,0-0.2
				c1.7-1.2,4.1-0.2,4.4,2C35.1,29.8,35.1,29.9,35.1,30z"/>
		</g>
	</g>
	<g>
		<g>
			<path class="st13" d="M38.1,33.2c0,0.4,0,0.8-0.1,1.1c0,0.1,0,0.2-0.1,0.2c-0.4,0.3-0.8,0.6-1.2,0.9c-0.1,0.1-0.1,0.1-0.2,0
				c-0.2-0.2-0.3-0.4-0.5-0.6c0,0-0.1-0.1,0-0.1C36.7,34.2,37.3,33.7,38.1,33.2C38.1,33.3,38.1,33.3,38.1,33.2z"/>
		</g>
	</g>
	<g>
		<g>
			<path class="st13" d="M14.9,27.4c0.6,0,1.2,0,1.8,0c0.1,0,0.2,0,0.2,0.2c0.5,2.2,1.1,4.3,1.7,6.4c0.2,0.6,0.3,1.1,0.5,1.7
				c0,0.1,0,0.2,0,0.3c-0.2,0.8-0.4,1.6-0.5,2.4c0,0.1-0.1,0.2-0.2,0.2c-0.8,0-1.5,0-2.3,0c-0.1,0-0.2,0-0.2-0.2
				c-0.7-2.6-1.4-5.2-2.1-7.7c-0.3-1-0.5-2-0.8-3c0-0.2,0-0.2,0.2-0.2C13.7,27.4,14.3,27.4,14.9,27.4z"/>
		</g>
	</g>
	<g>
		<g>
			<path class="st13" d="M10.1,27.4c0.6,0,1.2,0,1.8,0c0.1,0,0.1,0,0.2,0.1c0.7,2.7,1.4,5.4,2.2,8.2c0,0.1,0,0.2,0,0.2
				c-0.2,0.8-0.4,1.6-0.5,2.4c0,0.1,0,0.1-0.2,0.1c-0.8,0-1.6,0-2.3,0c-0.1,0-0.1,0-0.2-0.1c-0.7-2.5-1.3-5-2-7.5
				c-0.3-1.1-0.6-2.2-0.9-3.3c0-0.1,0-0.2,0.1-0.2C8.9,27.4,9.6,27.4,10.1,27.4z"/>
		</g>
	</g>
	<g>
		<g>
			<path class="st13" d="M19.5,34.2c-0.2-0.6-0.3-1.2-0.5-1.8c0-0.1,0-0.2,0-0.2c0.4-1.6,0.8-3.1,1.3-4.7c0-0.1,0-0.1,0.2-0.1
				c0.3,0,0.5,0,0.9,0c0.1,0,0.1,0,0.1,0.1c-0.3,1.2-0.7,2.3-1,3.5C20.1,32.1,19.8,33.1,19.5,34.2C19.5,34.1,19.5,34.2,19.5,34.2z"
				/>
		</g>
	</g>
	<g>
		<g>
			<path class="st21" d="M21.5,46.2C21.6,46.2,21.6,46.2,21.5,46.2C21.6,46.2,21.6,46.2,21.5,46.2C21.6,46.2,21.6,46.2,21.5,46.2z"
				/>
		</g>
	</g>
	<g>
		<g>
			<path class="st21" d="M20.3,46.6C20.3,46.6,20.3,46.6,20.3,46.6C20.3,46.6,20.3,46.6,20.3,46.6C20.3,46.6,20.3,46.6,20.3,46.6z"
				/>
		</g>
	</g>
	<g>
		<g>
			<path class="st21" d="M21.4,47.5C21.4,47.5,21.3,47.6,21.4,47.5L21.4,47.5C21.4,47.5,21.4,47.5,21.4,47.5
				C21.4,47.5,21.4,47.5,21.4,47.5z"/>
		</g>
	</g>
	<g>
		<g>
			<path class="st21" d="M40.4,48.6L40.4,48.6C40.4,48.6,40.5,48.6,40.4,48.6C40.5,48.6,40.4,48.6,40.4,48.6z"/>
		</g>
	</g>
	<g>
		<g>
			<rect x="48" y="27.2" class="st13" width="3.9" height="13"/>
		</g>
	</g>
	<g>
		<g>
			<rect x="52.3" y="27.2" class="st13" width="4.1" height="2.9"/>
		</g>
	</g>
	<g>
		<g>
			<rect x="43.6" y="27.2" class="st13" width="4.4" height="2.9"/>
		</g>
	</g>
	<g>
		<g>
			<path class="st13" d="M25.8,14.8c-0.4,0.2-0.4,0.3-0.5,0.7c0,0.4,0,1.4,0.2,2.9c-0.1,0-0.1,0-0.2,0.1c-0.6-0.6-1.4-1.3-2.1-1.7
				l0,0c0.1,0.9,0.3,1.8,0.5,2.7c0,0-0.1,0-0.2,0.1c-0.7-0.6-1.5-1.1-2.3-1.6c-0.4-0.2-0.5-0.2-0.8,0c0,0,0-0.1-0.1-0.1
				c0.5-0.4,0.8-0.6,1.3-1c0,0,0,0.1,0.1,0.1c-0.4,0.3-0.4,0.4-0.1,0.5c0.6,0.4,1.2,0.8,1.8,1.3l0,0c-0.2-0.9-0.3-1.8-0.4-2.7
				c0.1,0,0.1,0,0.2-0.1c0.7,0.5,1.4,1.1,2.1,1.7l0,0c-0.1-0.7-0.2-1.8-0.2-2.1c0-0.3-0.1-0.4-0.6-0.2c0,0,0-0.1-0.1-0.1
				c0.5-0.2,0.8-0.4,1.3-0.5C25.7,14.7,25.8,14.7,25.8,14.8z"/>
		</g>
		<g>
			<path class="st13" d="M28.5,17.2c0,0,0-0.1,0-0.2c0.3-0.1,0.4-0.2,0.2-0.4c-0.1-0.2-0.3-0.4-0.5-0.7c-0.5,0.1-0.7,0.2-1.2,0.4
				c0,0.2,0,0.5,0,0.7c0,0.4,0,0.4,0.5,0.3c0,0,0,0.1,0,0.1c-0.4,0.2-0.7,0.2-1.1,0.4c0,0,0-0.1,0-0.1c0.3-0.2,0.4-0.2,0.4-0.7
				c0.1-1.2,0.2-1.7,0.4-2.9c0.1,0,0.1-0.1,0.2-0.1c0.6,0.7,1.3,1.6,1.8,2.3c0.3,0.4,0.4,0.4,0.7,0.4c0,0,0,0.1,0,0.2
				C29.3,17,29,17.1,28.5,17.2z M27.2,14.7L27.2,14.7c-0.1,0.5-0.2,0.9-0.2,1.4c0.4-0.1,0.6-0.2,1.1-0.3
				C27.8,15.4,27.6,15.2,27.2,14.7z"/>
		</g>
		<g>
			<path class="st13" d="M33.3,16.7c-0.1,0-0.1,0-0.2,0c-0.4,0-0.6-0.2-0.9-0.5c-0.2-0.2-0.4-0.5-0.6-0.8c-0.1-0.1-0.2-0.2-0.5-0.2
				c-0.1,0-0.1,0-0.2,0c0,0.3,0,0.5,0.1,0.8c0,0.4,0.1,0.4,0.5,0.4c0,0,0,0.1,0,0.2c-0.5,0-0.9,0.1-1.4,0.2c0,0,0-0.1,0-0.2
				c0.4-0.1,0.5-0.1,0.4-0.5c-0.1-0.8-0.2-1.2-0.2-2c0-0.4-0.1-0.4-0.6-0.4c0,0,0-0.1,0-0.2c0.6-0.1,0.9-0.1,1.6-0.2
				c0.5,0,0.8,0,1,0.1c0.3,0.1,0.4,0.4,0.4,0.7c0,0.4-0.3,0.7-0.7,0.9c0.1,0.2,0.4,0.5,0.5,0.7c0.2,0.3,0.3,0.4,0.4,0.5
				c0.2,0.2,0.3,0.2,0.4,0.2C33.3,16.7,33.3,16.7,33.3,16.7z M31.2,15.1c0.3,0,0.5-0.1,0.6-0.2c0.2-0.2,0.3-0.4,0.3-0.6
				c0-0.5-0.5-0.7-0.9-0.7c-0.2,0-0.3,0-0.4,0.1c0,0-0.1,0.1,0,0.2c0,0.5,0.1,0.7,0.1,1.3C31,15.1,31.1,15.1,31.2,15.1z"/>
		</g>
		<g>
			<path class="st13" d="M36.6,17.2c-0.1,0-0.1,0-0.2,0c-0.4-0.1-0.6-0.3-0.8-0.6c-0.2-0.3-0.3-0.6-0.4-0.9
				c-0.1-0.2-0.2-0.2-0.5-0.3c-0.1,0-0.1,0-0.2,0c0,0.3,0,0.5-0.1,0.8c0,0.4,0,0.5,0.4,0.5c0,0,0,0.1,0,0.2
				c-0.5-0.1-0.9-0.1-1.4-0.1c0,0,0-0.1,0-0.2c0.4,0,0.5,0,0.5-0.5c0.1-0.8,0.1-1.2,0.2-2c0-0.4,0-0.5-0.5-0.5c0,0,0-0.1,0-0.2
				c0.6,0,0.9,0.1,1.6,0.2c0.5,0.1,0.8,0.2,1,0.4c0.2,0.2,0.4,0.4,0.3,0.7c-0.1,0.4-0.5,0.6-0.9,0.7c0.1,0.2,0.2,0.5,0.4,0.8
				c0.2,0.3,0.2,0.5,0.4,0.6c0.1,0.2,0.2,0.3,0.3,0.3C36.6,17.1,36.6,17.2,36.6,17.2z M34.8,15.2c0.3,0,0.5,0,0.7,0
				c0.2-0.1,0.4-0.3,0.4-0.5c0.1-0.5-0.3-0.8-0.8-0.9c-0.2,0-0.3,0-0.4,0c0,0-0.1,0.1-0.1,0.2c0,0.5-0.1,0.7-0.1,1.3
				C34.7,15.2,34.7,15.2,34.8,15.2z"/>
		</g>
		<g>
			<path class="st13" d="M39.7,17.4c-0.1,0.2-0.4,0.5-0.5,0.7c-1-0.4-1.4-0.6-2.5-0.9c0,0,0-0.1,0-0.2c0.5,0.1,0.5,0.1,0.7-0.3
				c0.2-0.8,0.4-1.2,0.5-1.9c0.1-0.4,0.1-0.5-0.4-0.6c0,0,0-0.1,0-0.2c1.1,0.3,1.7,0.5,2.7,0.9c0,0.1-0.2,0.4-0.2,0.7
				c-0.1,0-0.1,0-0.2,0c0-0.2,0-0.4,0-0.5c0-0.1-0.2-0.2-0.6-0.4c-0.2-0.1-0.3-0.1-0.5-0.2c-0.2-0.1-0.2,0-0.2,0.1
				c-0.2,0.4-0.2,0.7-0.4,1.1c0.2,0.1,0.3,0.1,0.5,0.2c0.5,0.2,0.5,0.2,0.7-0.1c0.1,0,0.1,0,0.2,0.1c-0.2,0.4-0.2,0.5-0.4,0.9
				c-0.1,0-0.1,0-0.2-0.1c0.1-0.4,0-0.4-0.5-0.6c-0.2-0.1-0.3-0.1-0.5-0.2c-0.1,0.4-0.2,0.5-0.3,0.9c-0.1,0.2-0.1,0.4,0,0.4
				c0.1,0.1,0.3,0.2,0.5,0.2c0.4,0.2,0.5,0.2,0.7,0.1c0.1,0,0.3-0.2,0.4-0.3C39.6,17.4,39.7,17.4,39.7,17.4z"/>
		</g>
		<g>
			<path class="st13" d="M44.9,17.8c-0.3-0.2-0.5-0.3-0.6-0.1c-0.1,0.1-0.3,0.3-0.5,0.7c-0.5,0.7-0.7,1-1.2,1.6c0,0-0.1-0.1-0.2-0.1
				c-0.2-1.4-0.3-2.2-0.7-3.6l0,0c-0.2,0.4-0.4,0.7-0.6,1.1c-0.2,0.4-0.3,0.6-0.4,0.8c-0.1,0.2,0,0.4,0.3,0.5c0,0,0,0.1-0.1,0.1
				c-0.5-0.3-0.7-0.4-1.2-0.6c0,0,0-0.1,0.1-0.1c0.3,0.1,0.4,0.1,0.6-0.1c0.1-0.1,0.2-0.4,0.4-0.7c0.2-0.4,0.3-0.6,0.5-1
				c0.2-0.3,0.2-0.4,0.1-0.5c0-0.2-0.2-0.3-0.4-0.4c0,0,0-0.1,0.1-0.1c0.4,0.2,0.5,0.2,0.9,0.4c0.5,1.4,0.7,2.1,0.9,3.5l0,0
				c0.3-0.4,0.4-0.6,0.7-1c0.3-0.4,0.4-0.6,0.5-0.7c0.1-0.2,0-0.4-0.4-0.6c0,0,0-0.1,0.1-0.1c0.5,0.4,0.8,0.5,1.3,0.9
				C44.9,17.8,44.9,17.8,44.9,17.8z"/>
		</g>
	</g>
	<g>
		<g>
			<path class="st13" d="M21.2,45.6c0.1-0.2,0.2-0.4,0.2-0.5c0-0.2,0-0.2-0.4-0.6c-0.1-0.1-0.2-0.2-0.3-0.3c-0.7,0.7-1.1,1-1.8,1.7
				c-0.3,0.3-0.3,0.4,0.2,0.9c0,0-0.1,0.1-0.1,0.1c-0.6-0.6-0.9-0.9-1.4-1.6c0,0,0.1,0,0.1-0.1c0.5,0.5,0.5,0.5,0.8,0.2
				c0.7-0.7,1.1-1,1.8-1.7c-0.1-0.1-0.2-0.2-0.3-0.3c-0.4-0.4-0.5-0.5-0.6-0.5s-0.3,0-0.5,0.1c0-0.1-0.1-0.1-0.1-0.2
				c0.3-0.2,0.5-0.3,0.8-0.5c0,0,0,0.1,0.1,0.1c0,0.2,0,0.2,0.1,0.4c0.6,0.8,0.9,1.1,1.6,1.8c0.1,0.1,0.2,0.1,0.3,0.1
				c0,0,0,0,0.1,0.1c-0.2,0.2-0.4,0.5-0.5,0.7C21.3,45.7,21.3,45.7,21.2,45.6z"/>
		</g>
		<g>
			<path class="st13" d="M23.5,50.2c-0.1,0-0.2-0.1-0.2-0.1c-0.4-0.3-0.7-0.5-0.7-1c-0.1-0.4-0.1-0.7-0.2-1.1c0-0.2-0.1-0.3-0.4-0.5
				c-0.1,0-0.1-0.1-0.2-0.1c-0.2,0.3-0.3,0.4-0.5,0.7c-0.2,0.4-0.2,0.4,0.2,0.7c0,0,0,0.1-0.1,0.1c-0.6-0.4-0.9-0.7-1.5-1.1
				c0,0,0-0.1,0.1-0.1c0.5,0.4,0.5,0.4,0.8,0c0.5-0.6,0.7-1,1.3-1.6c0.3-0.4,0.2-0.4-0.1-0.7c0,0,0-0.1,0.1-0.1
				c0.5,0.4,0.7,0.5,1.2,0.9c0.4,0.2,0.6,0.4,0.7,0.7c0.1,0.2,0.2,0.5,0,0.8c-0.2,0.4-0.6,0.4-1.1,0.3c0,0.2,0.1,0.6,0.1,0.9
				c0.1,0.4,0.2,0.5,0.2,0.7c0.1,0.2,0.2,0.4,0.3,0.4C23.6,50.2,23.6,50.2,23.5,50.2z M22.2,47.6c0.3,0.2,0.5,0.3,0.7,0.3
				c0.3,0,0.5-0.1,0.6-0.4c0.3-0.5,0-0.9-0.4-1.1c-0.2-0.1-0.2-0.2-0.3-0.2c0,0-0.1,0-0.2,0.2c-0.3,0.4-0.4,0.6-0.7,1
				C22.1,47.5,22.2,47.5,22.2,47.6z"/>
		</g>
		<g>
			<path class="st13" d="M28.7,48.8c-0.4-0.1-0.5,0-0.6,0.2c0,0.1-0.1,0.4-0.2,0.8c0,0.2-0.1,0.2-0.1,0.4c-0.2,0.6-0.4,1-0.9,1.1
				c-0.4,0.2-0.9,0.1-1.3-0.1c-0.4-0.2-0.7-0.4-0.9-0.6c-0.3-0.4-0.3-0.8,0-1.3c0.2-0.5,0.3-0.7,0.5-1.1c0.2-0.4,0.2-0.4-0.2-0.7
				c0,0,0-0.1,0.1-0.1c0.5,0.3,0.8,0.4,1.4,0.6c0,0,0,0.1,0,0.1c-0.4-0.2-0.5-0.2-0.7,0.3c-0.2,0.4-0.3,0.6-0.5,1.1
				c-0.3,0.7-0.1,1.4,0.7,1.6c0.9,0.4,1.4-0.2,1.6-1c0-0.2,0.1-0.2,0.1-0.4c0.1-0.4,0.2-0.7,0.2-0.8c0-0.2-0.1-0.3-0.5-0.4
				c0,0,0-0.1,0-0.1c0.5,0.2,0.8,0.2,1.3,0.4C28.7,48.7,28.7,48.8,28.7,48.8z"/>
		</g>
		<g>
			<path class="st13" d="M32,52.4c0,0,0-0.1,0-0.2c0.5,0,0.6,0,0.6-0.6c0-0.8,0-1.3,0-2.1c0,0,0,0,0,0c-0.6,1.1-0.9,1.6-1.7,2.7
				c0,0-0.1,0-0.2,0c-0.5-1.1-0.7-1.7-1.1-2.9l0,0c-0.1,0.5-0.2,0.8-0.4,1.4c-0.1,0.4-0.2,0.6-0.2,0.8c0,0.2,0.1,0.3,0.5,0.4
				c0,0,0,0.1,0,0.2c-0.6-0.1-0.9-0.2-1.6-0.3c0,0,0-0.1,0-0.2c0.4,0,0.5,0,0.6-0.2c0.1-0.2,0.2-0.4,0.3-0.9c0.1-0.4,0.2-0.6,0.3-1
				c0.2-0.6,0.2-0.7-0.4-0.8c0,0,0-0.1,0-0.2c0.4,0.1,0.5,0.1,0.9,0.2c0.4,1.1,0.6,1.6,1.1,2.7c0.7-0.9,1-1.4,1.5-2.5
				c0.4,0,0.6,0,1,0c0,0,0,0.1,0,0.2c-0.5,0.1-0.5,0.1-0.5,0.6c0,0.7,0.1,1.1,0.1,1.8c0,0.5,0,0.6,0.7,0.6c0,0,0,0.1,0,0.2
				C33.1,52.4,32.8,52.4,32,52.4z"/>
		</g>
		<g>
			<path class="st13" d="M36.2,50.3c0.6,0,1.2,0,1.3,0.5c0.1,0.3-0.1,0.6-0.4,0.9c-0.3,0.2-0.7,0.4-1.3,0.5
				c-0.6,0.1-0.9,0.1-1.5,0.2c0,0,0-0.1,0-0.2c0.6-0.1,0.6-0.1,0.5-0.5c-0.1-0.8-0.2-1.2-0.2-2c0-0.4-0.1-0.4-0.5-0.4
				c0,0,0-0.1,0-0.2c0.6,0,0.9-0.1,1.4-0.2c0.4-0.1,0.7-0.1,0.9,0c0.2,0.1,0.4,0.3,0.5,0.5C37,49.8,36.6,50.1,36.2,50.3L36.2,50.3z
				 M35.5,50.4c0.7-0.1,0.9-0.4,0.8-0.8c-0.1-0.4-0.4-0.6-0.9-0.5c-0.2,0-0.3,0.1-0.3,0.1s-0.1,0.1,0,0.3c0,0.4,0.1,0.6,0.2,1
				C35.3,50.4,35.4,50.4,35.5,50.4z M35.4,51.6c0,0.4,0.2,0.4,0.6,0.4c0.5-0.1,1-0.4,0.9-0.9s-0.6-0.6-1.4-0.5c-0.1,0-0.2,0-0.3,0
				C35.3,51,35.3,51.2,35.4,51.6z"/>
		</g>
		<g>
			<path class="st13" d="M40.9,47.1c-0.3,0.2-0.4,0.3-0.3,0.5c0,0.1,0.2,0.3,0.4,0.7c0.1,0.2,0.1,0.2,0.2,0.4c0.3,0.5,0.4,1,0.2,1.4
				c-0.2,0.4-0.5,0.7-1,0.8c-0.4,0.2-0.8,0.2-1.1,0.2c-0.5-0.1-0.7-0.4-0.9-0.9c-0.2-0.5-0.2-0.7-0.4-1.2c-0.2-0.4-0.2-0.4-0.6-0.4
				c0,0,0-0.1,0-0.1c0.6-0.2,0.9-0.3,1.4-0.5c0,0,0,0.1,0,0.1c-0.4,0.2-0.5,0.2-0.3,0.7c0.2,0.4,0.2,0.7,0.4,1.1
				c0.3,0.8,0.9,1.1,1.6,0.7c0.9-0.4,0.9-1.1,0.5-1.8c-0.1-0.1-0.1-0.2-0.2-0.4c-0.2-0.4-0.3-0.6-0.4-0.7c-0.1-0.2-0.3-0.2-0.6,0
				c0,0,0-0.1-0.1-0.1c0.5-0.2,0.7-0.4,1.2-0.6C40.9,47,40.9,47,40.9,47.1z"/>
		</g>
		<g>
			<path class="st13" d="M45.1,46.9c0.1,0.2,0.3,0.6,0.3,0.8c-1,0.9-1.5,1.3-2.6,1.9c0,0,0-0.1-0.1-0.1c0.5-0.3,0.5-0.4,0.3-0.7
				c-0.4-0.7-0.7-1-1.1-1.7c-0.2-0.4-0.3-0.4-0.7-0.1c0,0,0-0.1-0.1-0.1c0.5-0.3,0.8-0.5,1.3-0.9c0,0,0,0.1,0.1,0.1
				c-0.4,0.3-0.4,0.4-0.2,0.7c0.5,0.7,0.7,1,1.1,1.6c0.2,0.2,0.2,0.3,0.4,0.3c0.2,0,0.4-0.2,0.6-0.4c0.3-0.2,0.5-0.4,0.5-0.6
				c0-0.2,0-0.4,0-0.6C45,47,45.1,47,45.1,46.9z"/>
		</g>
		<g>
			<path class="st13" d="M47.7,44.1c0.1,0.1,0.4,0.5,0.5,0.7c-0.8,1.1-1.3,1.6-2.3,2.5c0,0,0-0.1-0.1-0.1c0.4-0.4,0.4-0.5,0.1-0.8
				c-0.5-0.6-0.9-0.9-1.4-1.4c-0.3-0.3-0.4-0.3-0.7,0c0,0,0-0.1-0.1-0.1c0.5-0.4,0.7-0.7,1.1-1.1c0,0,0.1,0,0.1,0.1
				c-0.3,0.4-0.3,0.4,0,0.7c0.6,0.5,0.9,0.8,1.4,1.4c0.2,0.2,0.3,0.2,0.4,0.2c0.2-0.1,0.3-0.2,0.5-0.5c0.3-0.3,0.4-0.5,0.4-0.7
				c0-0.2,0-0.4-0.2-0.6C47.6,44.2,47.7,44.1,47.7,44.1z"/>
		</g>
	</g>
</g>
</svg>
