<?xml version="1.0" encoding="UTF-8" standalone="no"?>
<!DOCTYPE svg PUBLIC "-//W3C//DTD SVG 1.1//EN" "http://www.w3.org/Graphics/SVG/1.1/DTD/svg11.dtd">
<svg width="100%" height="100%" viewBox="0 0 48 48" version="1.1" xmlns="http://www.w3.org/2000/svg" xmlns:xlink="http://www.w3.org/1999/xlink" xml:space="preserve" xmlns:serif="http://www.serif.com/" style="fill-rule:evenodd;clip-rule:evenodd;stroke-linejoin:round;stroke-miterlimit:2;">
    <g>
        <path d="M24,5.856C34.014,5.856 42.144,13.986 42.144,24C42.144,34.014 34.014,42.144 24,42.144C13.986,42.144 5.856,34.014 5.856,24C5.856,13.986 13.986,5.856 24,5.856ZM24,8.731C32.427,8.731 39.269,15.573 39.269,24C39.269,32.427 32.427,39.269 24,39.269C15.573,39.269 8.731,32.427 8.731,24C8.731,15.573 15.573,8.731 24,8.731ZM22.611,18.055L19.722,20.944L17.13,18.352L24.456,11.027L31.782,18.352L29.191,20.944L26.302,18.055L26.302,36.973L22.611,36.973L22.611,18.055Z" style="fill-opacity:0.7;"/>
    </g>
</svg>
