<svg viewBox="0 0 48 48" xmlns="http://www.w3.org/2000/svg" fill-rule="evenodd" clip-rule="evenodd" stroke-linejoin="round" stroke-miterlimit="2"><path d="M24 5.856c10.014 0 18.144 8.13 18.144 18.144 0 10.014-8.13 18.144-18.144 18.144-10.014 0-18.144-8.13-18.144-18.144 0-10.014 8.13-18.144 18.144-18.144zm0 2.875c8.427 0 15.269 6.842 15.269 15.269S32.427 39.269 24 39.269 8.731 32.427 8.731 24 15.573 8.731 24 8.731zm-1.389 9.324l-2.889 2.889-2.592-2.592 7.326-7.325 7.326 7.325-2.591 2.592-2.889-2.889v18.918h-3.691V18.055z" fill-opacity=".7"/></svg>