<svg xmlns="http://www.w3.org/2000/svg" width="200" height="200"><circle class="color-blue color-main" fill="#00548f" cx="100" cy="100" r="100"/><path class="color-white" fill="#fff" d="M99.003 6.553H100c20.655 0 39.601 6.837 56.838 20.37 7.122 6.268 12.25 11.539 15.527 16.24 12.678 17.52 19.088 36.324 19.088 56.41v2.279c0 20.94-6.838 40.313-20.513 58.262-5.698 6.838-11.11 12.108-15.954 15.67-11.539 8.689-23.932 14.53-37.037 17.236-6.268 1.14-11.966 1.71-17.38 1.71h-2.848c-18.661 0-36.467-6.126-53.561-18.234-3.277-2.422-7.265-5.983-11.824-10.684-8.69-9.83-14.957-19.658-18.66-29.487-4.56-11.539-6.838-23.077-6.838-34.046V99.43c0-18.376 5.413-35.897 16.524-52.706 2.706-3.989 6.837-8.832 12.678-14.53 6.98-6.41 12.82-10.826 17.806-13.39 14.53-8.12 29.345-12.251 45.157-12.251zm-84.33 94.017c.142 3.704.284 6.98.712 10.114 78.347.285 134.473.285 168.233.285a62.67 62.67 0 00.712-9.26v-2.136c0-17.522-5.27-34.046-16.096-49.858-2.137-3.134-5.983-7.692-11.539-13.39-16.951-14.957-36.04-22.365-56.837-22.365h-.57c-20.94 0-39.744 7.408-56.41 22.222-5.841 5.698-9.402 9.687-10.827 11.824-11.68 15.812-17.379 33.333-17.379 52.564zm1.851 17.664c1.14 5.128 2.564 9.971 4.131 14.245 2.422 6.41 5.698 12.393 9.544 18.233 2.28 3.562 6.41 8.12 12.109 13.96 3.56 3.134 5.555 4.844 5.983 4.844h102.564c5.84-4.559 11.396-9.972 16.381-16.667 3.99-5.698 6.838-10.684 8.547-14.672 2.137-3.989 4.416-10.542 6.553-19.658zm30.627 3.56h23.79c2.848 0 5.412 1.425 7.834 4.132 1.14 1.424 1.567 2.991 1.567 4.843v.143c0 3.988-1.71 6.98-5.128 8.832 1.994 0 4.558 1.14 7.55 3.418 2.279 2.28 3.418 4.986 3.418 8.263v.997c0 4.7-2.991 8.262-8.974 11.253-1.994.712-3.846.997-5.128.997H47.293a.306.306 0 01-.284-.285v-1.14c0-.142.712-.284 1.851-.569 1.282-.997 1.852-2.137 1.852-3.561v-30.342c0-2.422-.997-4.274-2.849-5.128-.57-.143-.854-.428-.854-.57v-1.14c-.143-.142-.143-.142.142-.142zM57.407 175.5c13.39 7.834 27.493 11.538 42.166 11.538 14.53 0 28.632-3.846 42.307-11.396v-.142zm2.707-49.288v12.393h2.991c3.989 0 6.268-1.567 7.265-4.558.143-.428.143-.855.143-1.14v-.712c0-2.564-1.425-4.559-4.274-5.84-.854-.143-1.424-.286-1.852-.286 0 .143-4.273.143-4.273.143zm0 17.236v15.1h8.12c3.276 0 5.555-1.994 6.98-5.983l.142-1.71c0-3.418-1.852-5.697-5.698-7.264-.855-.143-1.852-.285-3.134-.285zm37.322-39.886h4.273c10.97 0 22.792 1.71 35.755 5.413v.285H62.821v-.285c12.108-3.56 23.504-5.413 34.615-5.413zm2.28-20.228c10.825 0 21.224 1.995 31.338 6.126.427 0 .712.712 1.14 1.852.427.142.997.57 1.71 1.424v.855c0 .285-.428.997-1.283 1.852 0 .142-.142.427-.427.57-1.567-1.568-4.701-3.135-9.117-4.559-8.12-2.137-15.1-3.276-21.51-3.276h-3.134c-10.114 0-19.516 1.851-28.348 5.84l-2.279 1.71c-.854-1.283-1.282-1.995-1.282-2.28v-.57c0-.284.428-.854 1.14-1.851 0-.428.427-1.14 1.424-1.995 9.972-3.703 20.086-5.698 30.627-5.698zM70.94 94.73v10.257c0 .142-.712.285-2.137.712l-.142-.285v-8.69c.997-1.281 1.852-1.994 2.28-1.994zm27.208-29.487h2.85c7.264 0 14.53 1.567 21.652 4.843.142.285.284.57.284.998h.713l.854.997c.428 0 .713.427.855 1.282.427.142 1.14 1.282 1.852 3.134.855.712 1.282 1.282 1.282 1.852v.57c0 .997-.427 1.566-1.282 2.421-.57-1.567-1.425-2.564-2.564-3.134-7.977-3.846-16.097-5.698-23.79-5.698h-2.563c-8.263 0-16.382 1.994-24.217 6.125-.712.57-1.14 1.425-1.424 2.565-.855-.855-1.282-1.71-1.282-2.707 0-.997.57-1.852 1.566-2.707 0-1.282.428-2.136 1.425-2.849 0-.712.285-1.14.855-1.424.142-.427.712-.712 1.567-1.14 0-.854 4.273-2.279 12.535-4.13 2.85-.57 5.84-.998 8.832-.998zm-21.652 27.35l.142 10.97c0 .427-1.282.712-3.846 1.139V94.017c.142-.427 1.425-.997 3.704-1.424zm-2.137-12.677h.285v4.273l.142 1.567c-.285.142-.854.427-1.567.57l-.142-.285v-3.134c0-.57.427-1.567 1.282-2.991zm5.128-2.422l.143.285v6.552c0 .143-1.14.428-3.277.998-.142-.428-.285-.855-.285-1.567v-4.416c0-.285 1.14-.855 3.42-1.852zm6.695-23.932c-2.849 3.277-4.985 7.977-6.41 13.96-.285 0-.997.285-2.137.855h-.142c1.282-4.273 2.564-7.55 3.988-9.829 1.995-2.849 3.42-4.558 4.701-4.986zm-2.991 37.18s.142.142 0 0v11.68c0 .286-1.567.713-4.701 1.14l-.142-.285v-11.11c.284-.286 1.994-.855 4.843-1.425zm7.835-39.032c-2.707 2.992-4.701 7.408-5.698 12.963-.143 1.14-.57 1.567-1.567 1.567l-2.422.713-.142-.143c0-.997.997-3.846 2.991-8.404 2.422-3.847 4.558-5.983 6.838-6.696zm-4.844 23.505l.143.285c.142 3.703.142 6.125.142 7.55-2.137.427-3.988.854-4.986 1.139v-7.265c0-.142 1.567-.712 4.416-1.567zM90.883 89.6l.143.285v11.681c0 .142-.143.142-.428.285-.997 0-2.564.142-5.128.57l-.142-.285V90.74c-.143-.428 1.851-.713 5.555-1.14zm3.846-39.316l.143.285c-1.852 4.843-2.992 8.69-3.134 11.253-.285 1.852-.57 2.85-.712 2.85l-4.844.712c0-.143 0-.143-.142-.143a62.237 62.237 0 012.849-8.69c1.852-3.845 3.134-5.697 3.846-5.697.427-.143 1.14-.285 1.994-.57zm-.427 23.647l.142.285v7.834c0 .285-1.567.57-4.843.855h-1.14c-.142-2.849-.142-4.843-.142-6.268V75.07c0-.285 1.994-.712 5.983-1.14zm5.128-38.89h1.282c2.564.286 3.846.998 3.846 1.853v8.12c.855 0 1.282.711 1.282 1.851 1.567.57 2.422.997 2.565 1.282v1.14l1.14 1.14v.427c0 .142-.143.142-.286.142-3.134-1.282-6.268-1.852-9.259-1.852-2.991 0-6.125.713-9.26 1.852l-.142-.142v-.428c.713-.57 1.14-.997 1.14-1.567 0-.854.855-1.424 2.28-1.851 0-1.283.426-1.852 1.139-1.852l.142-.285c0-5.698.285-8.547.855-8.547.427-.997 1.71-1.282 3.276-1.282zm2.992 93.448c4.273 0 7.265 1.71 9.259 5.128.142.855.285 1.567.427 2.28 0 2.99-1.424 5.128-3.988 6.695 2.421 2.564 4.13 5.27 4.985 8.12h.143c1.282-1.14 1.994-1.568 2.564-1.568h.142l1.425 3.846c-.427 0-1.425.998-2.85 2.85.713 2.564 1.568 3.846 3.135 3.846h.285l1.567-.143c.57 1.567.854 2.707.854 2.85-1.14 1.281-2.564 1.851-4.273 1.851h-.285c-1.567 0-2.991-1.282-4.416-3.704-2.707 2.707-5.698 3.989-8.974 3.989-4.559 0-8.12-2.137-10.542-6.553-.712-1.567-1.14-2.991-1.14-4.7v-.57c0-4.416 2.28-7.835 6.838-10.114.57-.143.855-.428.855-.57-2.707-.997-4.131-2.992-4.131-6.268s1.567-5.556 4.843-6.98c.997-.143 2.137-.285 3.277-.285zM98.433 50h.427l.143.142c-.143 1.425-.143 4.274-.285 8.69a78.99 78.99 0 01.142 4.843c-.57.143-2.564.428-5.983.57l-.142-.285c0-4.416 1.282-8.974 3.561-14.102.997.142 1.71.142 2.137.142zm-.427 39.174c.285.142.427.142.427.285v11.965a.306.306 0 01-.285.285h-.997c-.997 0-2.137 0-3.989.143 0-.143 0-.143-.142-.143-.143-3.703-.143-6.267-.143-8.12v-3.988c0-.285 1.567-.427 5.129-.427zm1.567-59.544h.997c.712 0 .997.285.997.712s.285.997.997 1.424c0 .998.855 1.71 2.564 2.564.855.428 1.282.855 1.282 1.425v.142c0 .713-.142.998-.427.998h-.427c-.143-1.425-1.852-2.137-4.986-2.422h-1.425c-2.421 0-4.273.855-4.985 2.422-.428-.143-.57-.428-.57-1.14v-.142c0-1.14.854-1.71 2.421-2.137.428 0 1.14-.855 2.422-2.564v-1.14c-.285 0 .142-.142 1.14-.142zm-3.847 8.262v4.843h.855v-4.843zm1.71 35.755h3.846c.997 0 1.425.142 1.425.427v.57c0 1.567 0 4.13-.143 7.407l-.285.143h-5.128a.306.306 0 01-.285-.285v-7.835c0-.285.143-.427.57-.427zM100 18.234c.712 0 1.14 1.424 1.14 4.273.142 0 .142.285.142.997v1.282c0 .143-.142.713-.427 1.71v.427c0 .143.427.855 1.14 1.852v.142h-3.99a.306.306 0 01-.284-.285l1.424-1.709a5.033 5.033 0 01-.57-2.422v-.854c0-.713.285-1.282.855-1.995-.285-1.282-.427-1.851-.427-1.994-.143-.997.285-1.424.997-1.424zM97.72 36.61v5.413h.855V36.61zm0 115.812c0 2.421 1.568 4.273 4.844 5.555.427 0 .997 0 1.425.143 1.994 0 3.846-1.14 5.128-3.42-.57-2.563-2.137-5.27-4.986-8.404-.427-.427-.855-.712-.997-.712-3.561 1.71-5.413 3.846-5.413 6.838zM100.57 50c1.71 0 2.706.285 2.706.855.998 2.136 1.71 5.128 2.422 8.69.427 2.42.57 4.13.57 4.842h-.143c-2.991-.142-4.843-.427-5.413-.57l.143-1.566v-3.134c0-3.134-.143-6.268-.57-8.975.142-.142.285-.142.285-.142zm0-13.533v5.413l.855.143v-5.27c-.428 0-.57 0-.855-.286zm0 100.143c.57 1.994 1.71 2.991 3.846 2.991h.285c2.564-.427 3.846-1.424 3.846-2.991v-.143c0-1.567-1.14-2.421-3.276-2.849h-.998c-2.421.285-3.703 1.14-3.703 2.992zm.427-47.436c4.131.142 6.126.427 6.126.712v11.681a.306.306 0 01-.285.285c-2.137-.143-4.131-.143-5.556-.143h-.285a.306.306 0 01-.285-.285V89.46zm1.71-51.567c-.143 1.994-.143 3.704-.143 4.843v.285h.855v-4.986zM104.7 50.57c1.567 0 2.849 1.14 3.846 3.134 1.282 1.567 2.422 4.273 3.419 7.834.427 2.137.712 3.42.712 3.704l-.285.143c-2.564-.428-4.13-.855-4.7-.998 0-3.418-.855-7.977-2.992-13.817zm.427 23.362c3.704.427 5.556.854 5.556 1.14v7.55l-.143.284c-2.279-.427-4.13-.57-5.413-.57l-.142-.285v-7.834zm4.131-21.51c3.562 2.849 5.698 5.413 6.695 7.834 1.425 3.134 2.137 5.271 2.137 6.696-.142 0-.142 0-.142.142-2.422-.712-3.704-.997-3.704-1.282 0-2.422-1.14-5.84-3.134-10.541zm.285 37.322c3.419.427 5.128.854 5.128.997v11.396l-.142.285c-3.419-.428-5.128-.57-5.128-.713V90.03zm3.561-14.53c3.134.854 4.701 1.424 4.701 1.567v6.837l-.142.285a51.294 51.294 0 00-4.843-1.14v-7.407s.142-.142.284-.142zm.713-20.656c3.56 2.137 6.125 6.268 7.977 12.251.142.712.285 1.282.285 1.567h-.143c-1.71-.57-2.706-1.14-2.706-1.567-.997-4.416-2.28-8.12-4.416-11.111-.285 0-.57-.285-.997-1.14zm3.276 36.61c2.849.712 4.416.997 4.416 1.282v10.969l-.142.142c-.143-.142-1.567-.427-4.416-.854l-.143-.285V91.453zm2.849-13.675c2.137.997 3.419 1.567 3.419 1.71V84.9l-.143.285c-2.279-.57-3.418-.855-3.418-1.14v-6.41s0-.142.142-.142zm21.083 44.16c7.122 0 12.82 3.56 17.236 10.826 1.567 3.418 2.564 6.837 2.564 10.114v.712c0 6.98-2.706 12.678-8.12 17.236-3.418 2.564-7.407 3.846-11.68 3.846-6.98 0-12.536-3.56-17.094-10.826-1.567-3.419-2.564-6.98-2.564-10.399 0-6.695 2.706-12.393 8.262-17.236 3.703-2.85 7.407-4.274 11.396-4.274zm-17.38-29.06c2.565.854 3.847 1.282 3.847 1.567v9.971a.306.306 0 01-.285.285c-2.422-.427-3.704-.855-3.704-.997V92.877zm1.425-12.678c1.14 1.566 1.567 2.421 1.567 2.849v3.276c-1.282-.143-1.852-.427-1.852-.712v-5.271c.143-.142.143-.142.285-.142zm4.131 15.1c1.567 1.139 2.422 1.994 2.422 2.848v7.408a.306.306 0 01-.285.285c-1.424-.285-2.137-.57-2.137-.713zm2.85 47.862c0 6.268 1.566 10.97 4.7 13.96 1.425 1.14 2.85 1.71 4.559 1.71 4.985 0 8.12-4.273 8.974-12.678.142-1.567.142-2.707.142-3.134 0-7.692-2.136-12.678-6.695-14.957-.997-.143-1.71-.285-2.564-.428-4.558 0-7.407 3.562-8.69 10.684-.284 1.282-.284 2.992-.427 4.843z"/></svg>