<svg xmlns="http://www.w3.org/2000/svg" viewBox="0 0 31.18 31.18"><defs><style>.cls-1{fill:Sienna;}.cls-2{fill:#231f20;}.cls-3{fill:#ffcb05;}.cls-4{fill:#00aeef;}.cls-5{fill:#fff;}</style></defs><g id="diecut"><circle class="cls-1" cx="15.59" cy="15.59" r="15.59"/><path class="cls-2" d="M29,19V14.74c.15-.81-3.54-.26-3.88-.41C23.82,3.48,7.5,3.47,6.21,14.33.6,14.24,2.59,14,2.24,19c-.19.83,4.37.25,4.69.41,2.83,7.48,14.62,7.46,17.47,0,.34-.16,4.77.42,4.6-.41"/><path class="cls-3" d="M8.8,15.85a1.44,1.44,0,0,1-.9,1.27l.29,1.22H7.51l-.33-1.19H6.67l-.52,1.17H5.53l1.09-2.76A6.2,6.2,0,0,1,3.93,15c.74.23,5.09-.7,4.87.86"/><polyline class="cls-3" points="9.91 16.43 9.15 18.32 8.54 18.32 9.28 16.43 9.91 16.43"/><path class="cls-3" d="M11.83,17.37c-.06,1.22-2.07,1.52-1.79,0,.08-1.21,2.06-1.5,1.79,0"/><path class="cls-3" d="M23.66,19.39C20.87,26,10.36,26,7.57,19.39h2.76a6.44,6.44,0,0,0,10.2,0h3.13"/><path class="cls-3" d="M10.14,15.91a.32.32,0,0,1-.64,0,.32.32,0,1,1,.64,0"/><path class="cls-4" d="M20,19.39a6,6,0,0,1-9.1,0H20"/><path class="cls-3" d="M16.5,15.87h-.7c-.38-.6-1.25-.06-1.32.58h2c0,1.89-3,3-2.78.57a3,3,0,0,1-1.58-.57h1.72c.18-1.37,2.46-2.23,2.66-.58"/><path class="cls-3" d="M18,16.43l-.1.57c-.64-.06-.85.88-1,1.32h-.64L17,16.4h.64l0,.13a1,1,0,0,1,.41-.1"/><path class="cls-3" d="M20.18,16.36l-.78,2h-.62l0,0c-1.71.31-.46-2.51.72-1.83l0-.09h.62"/><path class="cls-4" d="M21.23,14.33H9.63c1.08-6.11,10.51-6.1,11.6,0"/><path class="cls-3" d="M22.32,17.11l-.49,1.21h-.62c0-.15.8-1.43.29-1.38s-.72,1.08-.89,1.38H20l.78-2h.63l-.08.19c.4-.3,1.21-.28,1,.56"/><path class="cls-3" d="M24.46,14.33H21.68c-1-6.7-11.48-6.7-12.51,0H6.77C8,4.2,23.23,4.2,24.46,14.33"/><path class="cls-3" d="M25.59,15l-1.32,3.33h-.63l0,0c-1.7.3-.43-2.51.74-1.83l.35-.89c-.94.1-3.95-.06-4.4-.57h5.24"/><path class="cls-3" d="M27.15,17.37l0,.15H25.92c-.08.37.2.45.47.3l.31.37a.81.81,0,0,1-1.36-.78c.09-1.19,2.05-1.51,1.81,0"/><path class="cls-2" d="M11.19,21.51l0,.18-.16,0-.11-.08.17-.21.12.09m.27.33c.28-.37-.23-.64-.45-.83l-.81.93.27.22.29-.32.08.08-.06.47.27.19,0-.58A.45.45,0,0,0,11.46,21.84Z"/><path class="cls-2" d="M16.72,23a.35.35,0,0,1-.24.17l0-.28.14,0,.14.15m.54.7-.37-.41c.44-.63-.29-.8-.78-.62l.12,1.22.35-.07,0-.41h.1l.33.35Z"/><path class="cls-2" d="M18.16,22.72a.51.51,0,1,0-1,.35.52.52,0,1,0,1-.35m-.24.1a.29.29,0,0,1-.13.42C17.11,23.32,17.57,22.11,17.92,22.82Z"/><polyline class="cls-2" points="10.88 20.89 10.68 20.68 10.35 21.05 10.14 20.85 10.49 20.48 10.31 20.29 9.42 21.14 9.63 21.36 9.94 21.05 10.14 21.26 9.83 21.57 10.06 21.8 10.88 20.89"/><polyline class="cls-2" points="10.18 20.11 9.73 19.49 9.48 19.7 9.59 19.9 8.95 20.52 9.11 20.77 9.81 20.15 9.98 20.31 10.18 20.11"/><path class="cls-2" d="M12.55,22l-.27-.14-.39.61-.23.07,0-.23.42-.58-.25-.16c-.18.33-.88.95-.31,1.27s.8-.55,1.05-.84"/><polyline class="cls-2" points="13.78 22.45 13 22.21 12.92 22.54 13.19 22.62 12.94 23.51 13.23 23.59 13.45 22.72 13.68 22.78 13.78 22.45"/><polyline class="cls-2" points="14.77 22.64 14.48 22.6 14.42 23.09 14.13 23.05 14.21 22.55 13.95 22.52 13.74 23.71 14.05 23.77 14.11 23.34 14.38 23.38 14.34 23.81 14.65 23.86 14.77 22.64"/><path class="cls-2" d="M8.25,16c.1-.63-.68-.32-1-.39l-.39,1c.47,0,1.37.06,1.38-.6"/><polyline class="cls-2" points="15.45 22.95 15.45 22.66 14.85 22.66 14.79 23.88 15.45 23.9 15.45 23.65 15.1 23.65 15.1 23.42 15.43 23.42 15.43 23.2 15.12 23.2 15.12 22.93 15.45 22.95"/><path class="cls-2" d="M11.27,17.39c.1-1.22-1.29.33-.41.48.27,0,.37-.21.41-.48"/><path class="cls-2" d="M19.3,22.66,19,22.58c-.28.67-.92-.4-.25-.39l0-.25c-1.37-.13.06,2.12.5.72"/><path class="cls-2" d="M15.67,17H14.36c-.3,1.11,1.21.89,1.31,0"/><path class="cls-2" d="M20.47,22.12l-.85-.2,0-.7-.3.25,0,.43-.23-.33-.27.18.68,1,.27-.2c-.06-.08-.16-.23-.14-.33l.47.12.35-.25"/><polyline class="cls-2" points="20.86 21.75 19.99 20.89 19.75 21.12 20.61 22 20.86 21.75"/><polyline class="cls-2" points="11.11 10.4 9.81 9.21 9.42 9.62 9.56 10.46 8.66 10.54 8.37 10.99 9.81 12.06 10.08 11.59 9.36 11.06 10.22 11.02 10.02 10.15 10.76 10.83 11.11 10.4"/><polyline class="cls-2" points="21.48 21.12 21.29 20.95 21.04 21.22 20.88 21.07 21.11 20.81 20.92 20.66 20.71 20.91 20.53 20.75 20.76 20.48 20.55 20.31 20.14 20.77 21.04 21.59 21.48 21.12"/><path class="cls-2" d="M21.91,20.58c.34-.64-.3-.7-.74-.41l-.06-.12a.33.33,0,0,1,.28-.17v-.2c-1,0-.49,1.21.27.57v.19l-.2.08v.27a.53.53,0,0,0,.45-.21"/><path class="cls-2" d="M19.17,17.33c.33-.69-.55-.41-.62,0-.16.69.57.44.62,0"/><polyline class="cls-2" points="20.39 14.16 19.36 12.7 18.68 13.09 17.65 11.68 17.32 11.96 16.07 10.07 15.43 10.83 14.96 10.46 13.66 12.52 12.47 11.2 10.57 14.16 20.39 14.16"/><polyline class="cls-2" points="13.47 9.12 12.86 7.44 12.36 7.62 12.98 9.31 13.47 9.12"/><path class="cls-2" d="M24.05,17.33c.32-.67-.55-.43-.62,0-.18.68.57.45.62,0"/><polyline class="cls-2" points="15.47 8.84 15.47 7 14.91 7.04 14.96 8.05 14.09 7.19 13.52 7.29 13.87 9.04 14.38 8.96 14.23 8.07 15 8.86 15.47 8.84"/><path class="cls-2" d="M17.92,8.84l-.62-.25.33-1.26-.54-.14-.45,1.73a4.39,4.39,0,0,1,1.11.37l.17-.45"/><path class="cls-2" d="M26.68,17.11c0-.39-.55-.33-.62,0h.62"/><polyline class="cls-2" points="19.32 7.97 18.82 7.72 18.06 9.33 18.49 9.6 19.32 7.97"/><path class="cls-2" d="M22.52,11a4.14,4.14,0,0,0-.69-1l-1.47,1.15a5.58,5.58,0,0,1,.68.92l.39-.26-.37-.56.19-.14.41.53.31-.26-.41-.54.24-.18.44.61.28-.29"/><polyline class="cls-2" points="21.46 9.45 21.02 9.1 20.32 9.84 20.34 8.61 19.85 8.28 18.88 9.76 19.3 10.07 19.81 9.35 19.79 10.44 20.14 10.77 21.46 9.45"/><path class="cls-2" d="M11.75,9.19l-.25.16-.12-.45.37.29m1,.18-1.5-1.15-.39.29.43,1.81.44-.29-.09-.31.46-.29.24.21Z"/><polyline class="cls-5" points="16.87 12.04 16.13 11.78 15.72 11.96 15.2 11.78 14.05 12.41 14.96 10.93 15.51 11.3 15.98 10.54 16.87 12.04"/></g></svg>
