<svg id="Layer_1" data-name="Layer 1" xmlns="http://www.w3.org/2000/svg" viewBox="0 0 31.18 31.18"><defs><style>.cls-1{fill:#2a358b;}.cls-2{fill:#fff;}.cls-3{fill:#ed2224;}</style></defs><path class="cls-1" d="M31.18,15.59a15,15,0,0,0-4.57-11A15,15,0,0,0,15.59,0a15,15,0,0,0-11,4.57A15,15,0,0,0,0,15.59a15,15,0,0,0,4.57,11,15,15,0,0,0,11,4.57,15,15,0,0,0,11-4.57A15,15,0,0,0,31.18,15.59Z"/><g id="New_Symbol_21" data-name="New Symbol 21"><g id="New_Symbol_18" data-name="New Symbol 18"><path class="cls-2" d="M4.82,14.9c-.13,3.64-5.71,1.58-3.5-1.28l.61.58c-1.41,3,4,1.78,1.41-.11l-.09.7-.81-.14.2-1.55C4.09,13.25,4.82,13.85,4.82,14.9Z"/><path class="cls-2" d="M5.62,11.07l-.22.71-1.52,0-.09.26,1.36.45-.22.67L1.32,12c.1-1.47,1.88-2.73,2.6-.94Z"/><path class="cls-1" d="M3.23,11.65c.28-.88-1-.93-1.06-.09l1,.31Z"/><polygon class="cls-2" points="6.72 9.23 5.89 10.6 2.67 8.58 3.52 7.24 4.08 7.59 3.61 8.33 4.28 8.76 4.75 8 5.31 8.36 4.84 9.09 5.69 9.63 6.16 8.89 6.72 9.23"/><polygon class="cls-2" points="8.71 6.99 8.2 7.5 7.59 7.1 7.1 7.62 7.48 8.22 6.97 8.73 4.86 5.49 5.49 4.88 8.71 6.99"/><path class="cls-2" d="M5.19,15.62c.06,13.6,20.75,13.6,20.81,0S5.25,2,5.19,15.62Z"/><path class="cls-3" d="M25.65,15.59a9.9,9.9,0,0,1-4.91,8.65,8.55,8.55,0,0,1,0-2.35,1.86,1.86,0,0,1-.27-.34c-1.39-5.55,3.75-5.29-3.63-8.29-.39-2-2.61-3.12-4.39-3.58a2.25,2.25,0,0,0,.63-.5,1.37,1.37,0,0,0-.65.06c-1.69.46.9-1,.91-1.11-.67-.22-1.62.63-2.1,1a1.27,1.27,0,0,0,.29-.42s-.12,0-.27.09l-.18,0c-.13-.17,1-1,.9-1.07-.83,0-1.38.94-1.84,1.54-1.17.14-.94.7-1.05,1.55a3.6,3.6,0,0,0-.74,1.08c.09,0-.08.88.23,1a.31.31,0,0,1,.19.28c0,1.09,1.35-.72,1.71-.18,0,1.35.48,2.76,1.23,2.82.33,1.87.6,2.81.81,2.83.61.07.87.44.78,1.1a7.26,7.26,0,0,0,0,1.14,3.39,3.39,0,0,0-1.13,1.86c.26,4.69-3.78,0-5-1.62C-1.34,5.93,24.62-1.7,25.65,15.59Z"/><path class="cls-2" d="M9.41,26a1.16,1.16,0,0,1-1,.49l-.52,1.62-.6-.45.47-1.44-.22-.18-.86,1.15-.58-.43,2.29-3C9.11,24.25,10.12,25.09,9.41,26Z"/><polygon class="cls-1" points="6.99 6.72 6.16 6.16 6.7 7.01 6.99 6.72"/><polygon class="cls-2" points="10.13 6.18 9.5 6.56 7.86 3.92 7.17 4.34 6.83 3.79 8.78 2.55 9.14 3.11 8.47 3.54 10.13 6.18"/><path class="cls-1" d="M8.83,25.61c.3-.37,0-.69-.32-.88l-.6.81C8.18,25.82,8.59,26,8.83,25.61Z"/><polygon class="cls-2" points="11.7 25.76 10.96 29.57 10.28 29.28 10.42 28.56 9.77 28.29 9.37 28.87 8.69 28.61 10.91 25.42 11.7 25.76"/><polygon class="cls-1" points="10.75 26.88 10.19 27.71 10.57 27.87 10.75 26.88"/><polygon class="cls-2" points="13.31 26.23 12.41 29.91 11.72 29.75 12.63 26.07 13.31 26.23"/><polygon class="cls-2" points="14.92 4.64 14.27 4.73 13.11 3.05 13.4 4.88 12.68 5 12.1 1.25 12.75 1.14 13.91 2.8 13.62 1.01 14.34 0.9 14.92 4.64"/><polygon class="cls-2" points="15.48 29.61 15.44 30.26 13.89 30.2 14.09 26.41 14.79 26.46 14.63 29.57 15.48 29.61"/><path class="cls-3" d="M18,21c.06,2.3-.5,2.1-2.15,1-.73-.6-2.52-.42-1.65-1.23,0-.38-.21-2.16-.21-2.06-.1-.22.85-.19.91-.58.92-.74,1.23,1.59,1.83,2.17C17.36,20.27,18,20.14,18,21Z"/><path class="cls-2" d="M19.13,2.91c.06,2.59-4,2.59-4,0S19.19.33,19.13,2.91Z"/><polygon class="cls-2" points="19.33 29.81 18.5 29.97 17.85 28.38 17.76 30.11 16.93 30.24 15.68 26.64 16.46 26.48 17.07 28.11 17.07 26.39 17.88 26.23 18.48 27.84 18.5 26.12 19.29 25.98 19.33 29.81"/><path class="cls-1" d="M18.3,2.91a1.16,1.16,0,0,0-2.31,0A1.16,1.16,0,0,0,18.3,2.91Z"/><path class="cls-3" d="M19.67,23.86c-1.47-.25-1.64-1.44-.81-2.45C19.51,21,19.88,23.51,19.67,23.86Z"/><path class="cls-2" d="M21.93,3.63a1.11,1.11,0,0,1-.85.74L21,6.05l-.7-.29.11-1.5-.27-.12-.55,1.3-.65-.27,1.47-3.49C21.21,2,22.41,2.54,21.93,3.63Z"/><polygon class="cls-2" points="22.87 28.38 22.2 28.7 21.77 28.11 21.12 28.4 21.3 29.12 20.63 29.41 19.76 25.65 20.54 25.29 22.87 28.38"/><path class="cls-1" d="M21.28,3.36c.21-.4-.14-.66-.51-.78l-.41.94C20.71,3.71,21.13,3.78,21.28,3.36Z"/><polygon class="cls-1" points="21.35 27.53 20.74 26.72 20.97 27.71 21.35 27.53"/><polygon class="cls-2" points="24.91 26.95 24.35 27.4 23.25 25.98 21.37 24.91 21.98 24.44 22.85 24.89 22.63 23.92 23.23 23.45 23.81 25.54 24.91 26.95"/><polygon class="cls-2" points="24.75 4.1 24.4 4.64 23.72 4.19 21.98 6.79 21.39 6.38 23.14 3.79 22.47 3.34 22.85 2.8 24.75 4.1"/><polygon class="cls-2" points="26.95 6.25 24.22 8.87 23.72 8.36 24.93 7.19 24.3 6.56 23.12 7.73 22.63 7.21 25.34 4.57 25.83 5.08 24.8 6.09 25.4 6.74 26.46 5.74 26.95 6.25"/><polygon class="cls-2" points="28.56 8.71 28 9.05 27.53 8.29 26.86 8.69 27.33 9.45 26.75 9.79 26.3 9.05 25.43 9.57 25.9 10.3 25.32 10.66 24.51 9.3 27.73 7.35 28.56 8.71"/><path class="cls-2" d="M29.55,11.09a1.2,1.2,0,0,1-1.84,1.39l-1.37,1-.22-.72,1.21-.9-.09-.27-1.37.45-.22-.69L29.17,10Z"/><polygon class="cls-2" points="30.22 16.31 26.43 16.44 26.41 15.79 28.25 14.83 26.39 14.9 26.36 14.18 30.15 14.04 30.18 14.72 28.38 15.66 30.2 15.61 30.22 16.31"/><path class="cls-1" d="M28.92,11.29l-.07-.2-1,.31C27.9,12.29,29.18,12.13,28.92,11.29Z"/></g></g></svg>