<svg id="Layer_1" data-name="Layer 1" xmlns="http://www.w3.org/2000/svg" viewBox="0 0 31.18 31.18"><defs><style>.cls-1{fill:#ef4129;}.cls-1,.cls-10,.cls-11,.cls-12,.cls-13,.cls-14,.cls-15,.cls-2,.cls-3,.cls-4,.cls-5,.cls-6,.cls-7,.cls-8,.cls-9{fill-rule:evenodd;}.cls-2{fill:#fff;}.cls-3{fill:#fffefe;}.cls-4{fill:#fffcfb;}.cls-5{fill:#fefbfa;}.cls-6{fill:#fffdfd;}.cls-7{fill:#fffdfc;}.cls-8{fill:#fffbfb;}.cls-9{fill:#fef9f8;}.cls-10{fill:#fefafa;}.cls-11{fill:#fefaf9;}.cls-12{fill:#fef8f7;}.cls-13{fill:#fae6e4;}.cls-14{fill:#f7d9d7;}.cls-15{fill:#f8dddc;}</style></defs><g id="New_Symbol_20-11" data-name="New Symbol 20"><g id="New_Symbol_16-10" data-name="New Symbol 16"><path class="cls-1" d="M31.18,15.59C31.48,35.82-.3,35.82,0,15.59-.29-4.64,31.48-4.64,31.18,15.59Z"/><path class="cls-2" d="M15.6,4h6.25a.78.78,0,0,1,.61.23c1.57,1.5,3.14,3,4.73,4.49a.77.77,0,0,1,.28.62q0,6.26,0,12.5a.74.74,0,0,1-.26.59Q24.84,24.66,22.48,27a.82.82,0,0,1-.63.27H9.3A.74.74,0,0,1,8.74,27Q6.37,24.69,4,22.4a.71.71,0,0,1-.24-.55c0-4.18,0-8.36,0-12.55A.72.72,0,0,1,4,8.75c1.58-1.51,3.16-3,4.72-4.56A.78.78,0,0,1,9.31,4Z"/><path class="cls-1" d="M4.77,15.5c0-1.93,0-3.86,0-5.79A1,1,0,0,1,5.07,9c1.34-1.27,2.68-2.56,4-3.85a.79.79,0,0,1,.6-.24H21.45a.81.81,0,0,1,.61.24q2.09,2,4.2,4a.82.82,0,0,1,.29.67c0,3.86,0,7.73,0,11.59a.75.75,0,0,1-.22.6c-1.43,1.36-2.86,2.74-4.28,4.11a.68.68,0,0,1-.52.21H9.66A.67.67,0,0,1,9.14,26Q7.07,24,5,22a.78.78,0,0,1-.23-.61C4.77,19.43,4.77,17.47,4.77,15.5Z"/><path class="cls-2" d="M10.2,8.81c.66-1.27.89-2.75,2.66-2.32-2,2.39-.52,3.95-.49,5.83-1.7.32-1.52-1-2.25-2.14.13,1.31.09,2.71-1.55,2.05-.31-1.6,0-3.65-.1-5.37,0-.27.06-.38.35-.36C10.79,6,9.89,7.75,10.2,8.81Z"/><path class="cls-2" d="M10.74,18c-1.1-.76-3.55.24-1.25.64,3.12.61.93,4.6-1.57,3.61-1.39-.33-1.16,0-.92-1.52.37-.58,2,.83,2.47-.26C8,19.7,5.34,18.84,7.7,16.81c.88-.1,1.73.85,2.75.66C10.82,17.46,10.66,17.74,10.74,18Z"/><path class="cls-2" d="M11.66,13.64c-1-.6-2.78-.35-2.72,1,0,1.74,2.37.59,2.72,1.17-.05.7.22,1.28-.69,1.3-3.69,1.16-5.39-5.32-1.05-4.64.63.13.24-.47.54-.68.44,0,.34.82.95.63C11.9,12.5,11.56,13.24,11.66,13.64Z"/><path class="cls-3" d="M15.64,20.7A11.41,11.41,0,0,1,12.91,24a14.87,14.87,0,0,0,2.43.43c-.8.4-8,1.49-6.06-.47,1.16-.81,2.79.55,3.64-.61C14,22.49,14,20.27,15.64,20.7Z"/><path class="cls-3" d="M16.76,17.15c2-6.48,11.69-6.63,4.6-1.2,3.41-3.28.73-5.66-1.87-1.65C18.49,15.19,18.39,17.49,16.76,17.15Z"/><path class="cls-4" d="M15,9.62c-.12,3.09-1.17-.9-.44-1.58.74-.26.74.65,1.1,1.12.1-2.67.94.05.61,1.24-.25,1-1.14-.15-1.2-.79Z"/><path class="cls-3" d="M23.05,19.18c-.31,4.09-1.66-4.82.66-.51.47-4.3,1.34,4.78-.57.48Z"/><path class="cls-5" d="M18.76,19c.13.57-.11,2-.7,1.06,0-.25.16-.8-.21-.81-.57.06.18,1.09-.53,1.08-.35,0-.34-.18-.34-.43,0-1.22-.09-3.7.91-1.31.36,0,.14-.39.16-.59C18.55,16.82,18.93,18.36,18.76,19Z"/><path class="cls-6" d="M19.39,8.06c.91-.24,1.11,2.24.95,2.65-.59.26-.43-.59-.95-.5C17.6,12.3,18.56,7.65,19.39,8.06Z"/><path class="cls-6" d="M13.23,8.05c.94-.14,1,2.1,1,2.65-.6.29-.46-.54-1-.5-.28,0-.36.11-.41.36s-.86.19-.6-.14C12.53,9.71,12.18,7.89,13.23,8.05Z"/><path class="cls-6" d="M22.24,20.17c-.77.62-.93-1.71-1.11-.38-.59,1.88-1.19-2-.42-2.18C22.87,17.27,21.72,19,22.24,20.17Z"/><path class="cls-6" d="M13.18,18.69c.09-.39-.26-1.09.38-1.07.87.19-.18,1.84.53,2.18.64-.36-.3-2,.51-2.17C16.32,19,13,22.35,13.18,18.69Z"/><path class="cls-7" d="M11,18.89c.21-2.48,2.84-.83,1.82.89C12.23,21,10.83,20,11,18.89Z"/><path class="cls-5" d="M18.61,22.11c1.48-1,.78.72.12,1.39,1.1-.2,1.12-1.59,2.33-1.72a.45.45,0,0,1,.4.81c-.65.42-2.56.77-.85,1.16-.64.51-.92-.17-1.41-.13C16.61,24.62,19.43,22.44,18.61,22.11Z"/><path class="cls-8" d="M16.63,10c.32,0,.87.31,1-.13-.19-.51-1.33-.32-1.15-1.09-.1-.8,1.72-1.22,1.71-.38-.09.54-1-.29-1.08.35.12.58,1.37.13,1.25,1.06C18.52,10.74,16.18,11.2,16.63,10Z"/><path class="cls-4" d="M21.69,8c.4-.16,1,.52.3.6-.28-.07-.71-.22-.79.15s.4.28.64.36a.8.8,0,0,1,0,1.54c-.53.33-1.79-.34-.88-.58.25.05.66.2.74-.16s-.25-.3-.44-.35C20,9.29,20.63,7.76,21.69,8Z"/><path class="cls-9" d="M13.43,14.45c-.08-.31.2-.94-.2-1s-.26-.19-.27-.38c0-.41,1.7-.42,1.72,0,0,.17.06.4-.25.36-.48.16-.1,1.07-.21,1.53C14.19,16.14,13.08,15.27,13.43,14.45Z"/><path class="cls-10" d="M14.88,12.9c.67-.28.87.17,1.07.72.23-.53.44-1,1.09-.73-.86.68-.4,2.23-1,2.63C15.2,15.3,15.85,13.55,14.88,12.9Z"/><path class="cls-10" d="M19,19c.08-.39-.18-1.05.1-1.3.32,0,1.2-.25,1.08.29,0,.35-.61-.05-.54.45s.59,0,.56.48-.61,0-.57.53.71.07.62.63C19.43,20.85,18.75,20,19,19Z"/><path class="cls-6" d="M15.58,19.26c-.09-.35.25-1-.32-1-.23,0-.16-.21-.17-.34,0-.44,1.63-.4,1.7-.06.17.53-.65.3-.46.85C16.69,20,15.51,21.33,15.58,19.26Z"/><path class="cls-10" d="M12.76,14.2c-.09,3-1.19.38-.82-1.1C12.59,12.08,12.92,13.53,12.76,14.2Z"/><path class="cls-11" d="M21.53,23a12.75,12.75,0,0,1,1.7-1.27,3.55,3.55,0,0,1-.79,1.82l1.22-.07c-.26.68-1.93.67-2.28.17.44-.32,1.18-.17,1.14-1.1C22.22,22.66,21.66,23.34,21.53,23Z"/><path class="cls-9" d="M18.61,22.11l.1.1c-.74.51-1.13,1.84-2.15,1.66.14-.35,1.3-1.44.59-1.31.32-.35,1.12-1.21,1.14-.28Z"/><path class="cls-9" d="M16.24,23.4c-2.11,1.91-1-1.79.43-1.55a11.25,11.25,0,0,0-1.33,1.9C15.71,23.74,16.12,23,16.24,23.4Z"/><path class="cls-12" d="M16.86,20.74a.38.38,0,1,1,0,.75A.38.38,0,1,1,16.86,20.74Z"/><path class="cls-13" d="M21.53,23l.11.11c-.31.21-.79.76-1.15.52Z"/><path class="cls-14" d="M16.24,23.4l-.11-.11c.16-.16.3-.36.56-.35h0C16.65,23.2,16.41,23.27,16.24,23.4Z"/><path class="cls-15" d="M16.69,22.94c0-.23.22-.24.36-.33,0,.2-.14.34-.36.32Z"/><path class="cls-1" d="M11.12,24.3c-.51.23-1.25.59-1.6.15C9.79,24,10.58,24.18,11.12,24.3Z"/><path class="cls-1" d="M19.4,8.91c0,.32.21.48.12.69C19.05,9.76,19.27,9.24,19.4,8.91Z"/><path class="cls-1" d="M13.3,9c0,.32.24.47,0,.67C12.92,9.71,13.11,9.27,13.3,9Z"/><path class="cls-1" d="M21.16,18.08c.86,0,0,1.27-.08.51C21.1,18.41,21,18.21,21.16,18.08Z"/><path class="cls-1" d="M12.34,19c-.05,1.81-1.09.26-.56-.7C12.12,17.6,12.39,18.62,12.34,19Z"/><path class="cls-1" d="M20.26,22.83c.17-.44.74-1.07,1.16-.76C21.54,22.61,20.68,22.66,20.26,22.83Z"/></g></g></svg>