<svg id="Layer_1" data-name="Layer 1" xmlns="http://www.w3.org/2000/svg" viewBox="0 0 31.18 31.18"><defs><style>.cls-1{fill:#bcbec0;fill-rule:evenodd;}.cls-2{fill:#231f20;}.cls-3{fill:#fff;}.cls-4{fill:#ec2227;}</style></defs><g id="New_Symbol_20-11" data-name="New Symbol 20"><g id="New_Symbol_10-10" data-name="New Symbol 10"><path class="cls-1" d="M31.18,15.59C31.48,35.82-.3,35.82,0,15.59-.3-4.64,31.48-4.64,31.18,15.59Z"/><polygon class="cls-2" points="28.22 12.07 23.01 26.39 2.96 19.09 8.17 4.79 28.22 12.07"/><rect class="cls-3" x="8.67" y="5.62" width="13.83" height="19.93" transform="translate(-4.38 24.91) rotate(-70.01)"/><polygon class="cls-4" points="26.81 12.72 22.36 24.99 4.36 18.44 8.82 6.19 26.81 12.72"/><path class="cls-3" d="M11.29,12.91h-.92s-.67,1.1-2,3.18c.13-1,.28-2.08.47-3.18h-1a16.15,16.15,0,0,1-1.65,4.48h.78c-.28,0,1.24-3.44,1.18-3.55l-.48,3.55c.59.5,2.26-3,2.53-3.16a18.92,18.92,0,0,1-1.3,3.16h.79A18.51,18.51,0,0,1,11.29,12.91Z"/><path class="cls-3" d="M11.74,13.64h-.63a13.45,13.45,0,0,1-1.39,3.75h.65A18.51,18.51,0,0,1,11.74,13.64Z"/><path class="cls-3" d="M12.51,13.64h-.64a13.12,13.12,0,0,1-1.38,3.75c.38-.07,1.66.27,1.58-.47a3.66,3.66,0,0,1-.88.06A29,29,0,0,1,12.51,13.64Z"/><path class="cls-3" d="M13.17,9.67c-.35.08-1.67-.26-1.6.44.1-.11.45-.09.57-.09a14.37,14.37,0,0,1-.92,2.21h.64c-.18-.06.58-2.82,1.15-2.14Z"/><path class="cls-3" d="M16.84,13.64h-.65c.24.08-1.49,2.87-1.45,3l.4-3c-.49-.41-1.89,2.48-2.12,2.65.08-.08.39-2.76.64-2.65H13a16.06,16.06,0,0,1-.87,3.75h.77s.56-.93,1.71-2.66c-.1.85-.23,1.74-.4,2.66H15C14.76,17.35,16.71,13.64,16.84,13.64Z"/><path class="cls-3" d="M14.76,9.67h-.54c.14.39-.23,1.28-.81,1.06a5.36,5.36,0,0,1,.45-1.06h-.52a12.11,12.11,0,0,1-.95,2.56H13c-.14-.38.27-1.4.86-1.16a6.15,6.15,0,0,1-.51,1.16h.55A11.68,11.68,0,0,1,14.76,9.67Z"/><path class="cls-3" d="M16.27,9.67H15c.18.16-.82,2.41-.9,2.56.33-.06,1.37.21,1.32-.41a2.69,2.69,0,0,1-.75.06c.1-.52.44-1.08,1-.74l.15-.45a4.84,4.84,0,0,1-.77,0c.09-.54.47-.91,1-.66Z"/><path class="cls-3" d="M16.49,19.14c.06-.78-.74-.62-1.23-.63a11.09,11.09,0,0,1-.95,2.72h.56c-.2,0,.33-1.14.32-1.22.18-.14.47,1.21.37,1.22h.61c-.27-.3-.28-.71-.5-1.24C16.22,19.91,16.49,19.63,16.49,19.14Z"/><path class="cls-3" d="M17.76,13.64h-.87a14.61,14.61,0,0,1-1.72,3.75h.67c-.24,0,.5-1.18.48-1.25h.59c-.05.1-.14,1.27-.32,1.25h.63C17,17.37,17.71,13.73,17.76,13.64Z"/><path class="cls-4" d="M16.14,19.11c0,.46-.4.55-.8.52C15.38,19.25,15.86,18.45,16.14,19.11Z"/><path class="cls-4" d="M17.24,14.19c-.17.32,0,1.89-.77,1.54Z"/><path class="cls-3" d="M18.27,19.34c-.38-2.65-3,1.66-1.16,1.89C17.79,21.25,18.3,19.94,18.27,19.34Z"/><path class="cls-4" d="M17.92,19.39c.13.51-1,2.34-1.06.95C16.73,19.84,17.81,18,17.92,19.39Z"/><path class="cls-3" d="M20.21,13.64h-.65c-.58,3.84-3,4.82-.59,0h-.63c.35.63-2.11,3.73-.3,3.75C19.38,17.53,19.52,14.24,20.21,13.64Z"/><path class="cls-3" d="M19.89,18.51h-.77c.2.2-1.15,2.55-1.25,2.72h.64c-.11-.31.29-1.09.73-.89,0,.14,0,.83-.18.89h.61A8.36,8.36,0,0,1,19.89,18.51Z"/><path class="cls-3" d="M22.17,13.64h-.76c.33,0-1.11,1.38-1.09,1.45.06-.1.46-1.47.62-1.45h-.63a13,13,0,0,1-1.39,3.75h.65c-.15-.25.38-1.31.6-1.48-.07.12.32,1.09,0,1.48h.65C20.22,16.24,20.84,14.66,22.17,13.64Z"/><polygon class="cls-4" points="19.34 19.17 19.27 19.98 18.98 19.98 19.34 19.17"/><path class="cls-3" d="M22.29,19.53c.05-1-.74-1.08-1.48-1,.28.11-.84,2.62-.92,2.72C21.08,21.38,22.36,20.93,22.29,19.53Z"/><path class="cls-4" d="M21.92,19.51a1.19,1.19,0,0,1-1.43,1.33C20.65,20.36,21.47,17.52,21.92,19.51Z"/><path class="cls-3" d="M23.69,13.64H22.26a13.45,13.45,0,0,1-1.39,3.75c.39-.07,1.66.26,1.6-.47a3.62,3.62,0,0,1-.88.06c.13-.67.64-1.74,1.33-1.29l.2-.5c-.07.09-.79,0-.9.05.21-.68.41-1.49,1.3-1.15Z"/><path class="cls-3" d="M25.29,13.64H23.86a13.45,13.45,0,0,1-1.39,3.75c.39-.07,1.66.26,1.6-.47a3.66,3.66,0,0,1-.88.06c.13-.67.64-1.74,1.33-1.29l.2-.5c-.08.09-.79,0-.9.05.22-.68.41-1.5,1.3-1.15Z"/></g></g></svg>