<svg id="Layer_1" data-name="Layer 1" xmlns="http://www.w3.org/2000/svg" viewBox="0 0 31.18 31.18"><defs><style>.cls-1{fill:#fff;fill-rule:evenodd;}.cls-2{fill:#ed2224;}.cls-3{fill:#231f20;}</style></defs><g id="New_Symbol_20-11" data-name="New Symbol 20"><path class="cls-1" d="M31.18,15.59C31.09,36,.09,36,0,15.59.09-4.8,31.09-4.8,31.18,15.59Z"/><path class="cls-2" d="M23.69,15.52c.15,10.63-16.17,10.64-16,0C7.52,4.89,23.84,4.9,23.69,15.52Z"/><path class="cls-3" d="M29.36,15.59c0,18-27.57,18-27.54,0S29.39-2.43,29.36,15.59Zm-.78,0c0-17-26-17-26,0S28.59,32.56,28.58,15.59Zm-22.09,1H3.35V16l1.52-.75H3.35v-.58H6.49v.54L4.94,16H6.49Zm-.78-2.36c-1.65.22-3.14-1.92-.94-2.09C6.41,11.93,7.88,14.06,5.71,14.24Zm.52-.82c.19-.43-1.74-1-2-.45S6,14,6.23,13.42Zm1.66-2.69-.28.54-1.23-.15-.11.23,1.06.5-.26.55L4.25,11c.19-1.18,1.92-2,2.24-.46Zm-2,.19c.35-.67-.72-.91-.84-.21l.77.4Zm2.7-1-.36.47L6.12,8.81l-.39.52L5.28,9,6.43,7.46l.45.34-.41.54Zm1.83-1.77-.45.39L9,7.46,8.47,8l.92,1-.45.4L6.86,7l.45-.39.79.9.56-.47-.79-.91.45-.4ZM24,15.59c.23,10.88-17,10.88-16.74,0C7,4.71,24.2,4.71,24,15.59ZM10.45,24.28a1,1,0,0,1-.86.41L9.16,26l-.5-.38.39-1.19-.19-.13-.71.93-.48-.35,1.9-2.51C10.21,22.79,11,23.49,10.45,24.28Zm8.84-12.13c.07-5-6.38-4.82-8.95-1.82-4.7,4.35-1.18,13,5.25,12.68a3.76,3.76,0,0,1-2.71-6.3C14.87,14.92,19.35,16,19.29,12.15ZM10,23.92c.25-.3,0-.55-.27-.73l-.5.68C9.44,24.08,9.77,24.24,10,23.92ZM11.91,7.29l-1.16.62L9.26,5.13l1.17-.62L10.7,5,10,5.35l.32.56L11,5.57l.27.49-.64.34.39.74.64-.35Zm.45,16.77-.62,3.15L11.18,27l.11-.58-.54-.24-.34.5-.56-.24,1.85-2.64Zm-.79.93-.48.67.31.13ZM14.3,6.57l-.58.15-.71-1-.22.07.3,1.14L12.5,7l-1-3c1.07-.61,2.95-.16,2,1.33Zm-.6,17.88-.76,3.06-.58-.15.77-3.06ZM13.16,4.62c-.09-.37-.44-.36-.75-.24l.23.82C13,5.13,13.29,5,13.16,4.62ZM15.5,27.25l0,.56-1.29-.07.17-3.14h.6l-.15,2.6ZM16.82,3.46,16.76,6.6h-.53L15.51,5l0,1.55h-.6l.06-3.14h.56L16.2,5l0-1.52Zm1.89,24-.69.11-.55-1.33-.07,1.44-.69.11-1.05-3,.66-.11.5,1.35V24.56l.67-.11L18,25.79l0-1.44.65-.11Zm2.93-1.22-.54.26L20.74,26l-.54.26.13.58-.54.26L19.06,24l.66-.3ZM21,6.62a1.5,1.5,0,0,1-.67-.21L19.7,7.52l-.52-.28,1.47-2.79C21.82,4.69,22.61,6.54,21,6.62Zm-.56,18.91-.5-.67.18.82Zm2.95-.48-.46.35a5.7,5.7,0,0,0-2.47-2.06l.48-.39.75.37-.19-.8.49-.39A5.9,5.9,0,0,0,23.34,25.05Zm.21-18.71L22.09,9.2l-.47-.37.27-.55-.45-.37L21,8.28l-.47-.37,2.49-2Zm-2.28-.49c.19-.29-.08-.51-.36-.63l-.37.69C20.79,6.08,21.12,6.19,21.27,5.85ZM22.54,7l-.64.53.27.22ZM25.7,8.86l-.51.38c-.19-1.92-3.16.38-1.36,1l-.52.38C21.2,9.22,24.94,6.43,25.7,8.86Zm.89,1.44-2.8,1.44-.28-.54,2.82-1.42Zm.84,2.26-.54.17-.2-.71-.62.19.21.71-.53.16-.22-.7-1.33.41L24,12.21l3-.92Zm.23,1.2-3.1.54-.11-.6,3.1-.54Zm.13,1.94a1.86,1.86,0,0,1-.07.54h-.64c1.11-1.63-2.82-1.63-1.72,0h-.63C23.82,14.18,27.89,13.66,27.79,15.7Z"/></g></svg>