<svg version="1.1" id="Layer_1" xmlns="http://www.w3.org/2000/svg" x="0" y="0" viewBox="0 0 200 200" xml:space="preserve"><style>.st1{fill:#fff}</style><circle cx="100" cy="100" r="100"/><path d="M99.9 156.3c-23.8 0-46.2-5.7-63.1-16-17.4-10.7-27-25.1-27-40.4s9.5-29.6 27.1-40.3c17-10.3 39.3-16 63.1-16s46.2 5.7 63.1 16C180.5 70.2 190 84.5 190 99.9s-9.5 29.6-27.1 40.3c-16.7 10.4-39.1 16.1-63 16.1h0z" fill="none" stroke="#fff" stroke-width="1.425" stroke-miterlimit="10"/><path class="st1" d="M44.3 83.9c-.6.1-1 .3-1.6.3-.4 0-.9-.3-1.4-.3-1.6-.1-3-.4-4.4-.3-6.1.9-10 4.6-12.3 10-2 4.6-1.6 9.1-.1 13.8 2.6 7.8 9.4 13.2 17.5 13.2 4 0 7.8-1 11.3-3.4.3-.3.6-.4.9-.7-1.4.6-2.7 1.3-4 1.7-4.1 1.3-8.3 1.6-12.3-.4-2.7-1.4-4.8-3-6.4-5.7-2.1-4-3.4-8.4-3-13.1.3-3.4 1-6.7 2.8-9.7 2.7-4.6 7.1-5.4 11.4-3 .7.4 1.4 1 2 1.6-.1-1.3-.1-2.7-.4-4zM63.1 92v.3c.3.3.4.3.7.6.9.6 1.1 1.3 1.1 2.3-.1 4.3-.1 8.5-.3 12.8 0 1.9.1 3.6-1 5.3v.1H67c-.3-.7-.6-1.4-.6-2 0-4 .1-8.3.1-12.3 0-.4.1-.9.1-1.6 5 5.6 9.5 11.3 14.4 16.7.6-1.6 1-3.1 1.6-4.6.3-.4.3-.7-.3-.9-.3-.1-.7-.4-.7-.9-.3-.7-.4-1.6-.4-2.1 0-3.1.1-6.4.1-9.5 0-1.4.3-2.6 1.3-3.6.1-.1.1-.3.1-.3h-3.8c0 .1-.1.1-.1.3.1.1.3.1.4.3.9.6 1 1.3 1 2.3-.1 2.7 0 5.6-.1 8.3 0 .9-.1 1.7-.1 2.7-.3-.1-.6-.3-.9-.6-3.3-3.8-6.4-7.5-9.5-11.4-.3-.3-.6-.9-.4-1.3s-.1-.7-.6-.7h-2.4c-1.1-.2-2.1-.2-3.1-.2z"/><path class="st1" d="M60.7 107.5c-1 .9-2 2-3 2.6-.9.6-2 1.1-3 1.1-2.7.1-5.3 0-7.8.1-.7 0-.9-.3-.9-.9.1-2.7.1-5.7.1-8.4 0-.6.3-.7.7-.7 1.4.1 2.7.1 4.1.1s2.6.3 3.7 1.1c.3.1.3.3.6.3l.1-.1c-.6-1.6-1.1-3-1.9-4.7-.3.4-.4.9-.7 1-.3.3-.6.6-.9.6h-5.4c-.4 0-.4-.3-.4-.6v-4c0-.6 0-1.1.1-1.9h5.4c1.1 0 2.3 0 3.4.1 1.6.3 2.7 1 4 2.1-.3-1.1-.4-2.3-.9-3.4 0-.1-.4-.3-.7-.3H40.2c.4.4.9.7 1.1 1 .6.6.9 1.1.9 2 0 4.6-.1 9.3 0 13.8 0 1.4-.3 2.7-1.1 3.8-.1.1-.1.3-.3.4.3 0 .3.1.4.1 5.4.1 10.8.1 16.2.1.3 0 .6-.3.7-.6.7-1.4 1.4-2.7 2-4.1.3.2.4-.1.6-.6zm81.9 19.6c.1 0 .3 0 .3.1-.3 4.3.3 8.5-.4 12.8h3.7c-.3-1-.6-2-.6-2.8v-8.1c0-1.1.1-2.1.6-3.3.1-.3.3-.6.3-.9h-5.3c.3.9-2.7 7-3.8 7.7-.7-1.4-1.4-2.7-2-4-.4-1.1-1.6-2.1-.9-3.7h-4.7c.4 5.1.3 10.1-.1 15.2h3.1c-.3-.4-.4-.7-.6-1-.3-.4-.6-1-.6-1.6 0-2.6 0-5.1.1-7.7 0-.1.1-.3.1-.4h.3c1.6 3.4 3.1 7 4.7 10.5.6-.7 1-1.3 1.6-1.7.9-.9.9-1.6.3-2.6-.3-.4-.3-.9 0-1.6.9-1.4 1.6-2.7 2.1-4 .7-.9 1.2-1.8 1.8-2.9zm-35.1-30.7s.2 0 0 0c-.4-1.3-.9-2.6-1.6-3.7-.1-.3-.4-.3-.7-.4h-17c-.4 0-.9.3-.9.7-.3.9-.9 1.7-1.3 2.7-.1.3-.3.4-.3.7.3 0 .3-.1.4-.1 2.1-1.7 4.6-2.4 7.4-2.3.7 0 .9.3.9.9-.1 5-.3 10-.3 14.8 0 1.3-.1 2.6-.9 3.6-.1.1-.1.3-.1.4h7.1c-1.1-1-1.7-2.1-1.7-3.6 0-5.1.1-10.1.1-15.2 0-.6.1-.9.9-.9.4.1.9 0 1.3 0 1.7.1 3.3.1 4.7 1 .8.4 1.3 1 2 1.4zm58.7 16v-6.3c0-2.8.1-5.8.1-8.8 0-1.6.1-3 1.6-4V93h-7.7c.4.4.9.9 1.3 1.1.3.3.6.9.6 1.4 0 5.3 0 10.4-.1 15.7 0 .6-.3 1.1-.7 1.6-.3.4-.7.9-1.1 1.3.3.1.4.1.6.1 2.4 0 5 0 7.4.1 3.1 0 6.3 0 9.4.1.4 0 .7-.1.9-.4.4-.9.9-1.6 1.6-2.6.3-.4.4-.9.7-1.4 0-.1-.1-.1-.1-.3-4.9 3.3-9.8 3.1-14.5 2.7zM87.7 74.8h-.3c-.7-1.9-1.3-3.7-2-5.4-.3-1-.7-2-.3-3 0 0 0-.1-.1-.3h-3.7c.4 1.3.1 2.3-.3 3.4-.3.9-.6 1.6-.9 2.3-.4 1-.9 2.1-1.6 3.4-.1-.3-.3-.3-.3-.4-.7-2.1-1.6-4.4-2.1-6.6-.1-.4 0-.9 0-1.4 0-.3.1-.3.3-.7h-4.8c.3.3.4.6.6.9.3.4.6 1 .9 1.6 1.4 4.3 2.7 8.4 4 12.7.1.3.3.9.4 1.1.9-1.1 1.6-2.1 2.1-3.3.1-.1 0-.3-.1-.4-.4-.9-.4-1.7 0-2.7.6-1.3 1-2.6 1.6-3.7.3-.9.7-1.7 1.1-2.7 1.6 4.6 3 8.8 4.4 13.1.9-1.3 1.7-2.4 2.6-3.7l-.3-.3c-.7-.9-.9-1.6-.4-2.6.9-2.4 1.9-5 2.7-7.5.3-.9.7-1.7 1.6-2.1v-.1h-2.1c-.5 2.8-2.1 5.5-3 8.4zm65.4-.6c.3.3.4.6.6.9.9 1.6 1.9 3.3 2.7 5 .3.6.3 1.3.3 1.9s.1.7.6.7h4.4c-.6-.7-1.1-1.3-1.6-1.9-1.4-2.6-2.6-5.3-4-7.7-.6-1-.7-1.7.3-2.7.9-.9 1.7-2 2.7-3 .3-.3.4-.3.9-.7h-2.7c-.3.7-.4 1.3-.9 1.7-1.3 1.6-2.7 3.3-4 4.8-.7.7-1.3 1.4-2.1 2.3v-5.3c0-1.1-.1-2.4 1-3.4h-4.6c.1.3.1.4.3.6.4.7.6 1.4.6 2.1-.1 3-.1 6-.1 9.1 0 1.3 0 2.7-.9 3.8v.3h4.6c-.3-.6-.7-1.1-.9-1.7-.4-1-.6-2.1-.1-3.1.8-1.4 1.9-2.5 2.9-3.7zm-58.8 49.9h-2c-1.6-.1-3-.3-4.6-.3-2.1.1-3.4 1.4-4 3.3-.4 2 .1 4 1.7 5 .9.6 2 .9 2.8 1.3.9.3 1.9.6 2.7.9 1.4.7 1.6 2.1.3 3.1-.3.3-.7.4-1 .4-1.9.3-3.4 0-5-1-.3-.3-.7-.6-1.1-.9v3.3c1 .3 2.1.3 3.1.6 1.9.3 3.6.3 5.3-.4 1.9-.9 2.8-2.3 2.8-4.3 0-1.9-.9-3.3-2.7-4-.7-.3-1.6-.6-2.3-.9-.7-.3-1.6-.6-2.3-1-.9-.6-1.3-1.4-1-2.1.3-1 1.1-1.7 2.1-1.7.7 0 1.6.3 2.1.6.9.4 1.9 1 2.7 1.6.4-1.4.4-2.5.4-3.5zm-40 11.4c0 .6.1 1.1.1 1.9.1.9.3 1.6 1.6 1.9 2.1.6 4 1 6.3.3 2.7-.9 4.3-4 3.3-6.4-.7-1.7-2.1-2.4-3.8-3-.9-.3-1.9-.7-2.7-1.1-.9-.3-1.1-1-1-1.9.1-.9.7-1.4 1.6-1.6.9-.3 1.9-.3 2.7.3.9.4 1.6 1 2.7 1.6-.1-1-.1-2-.3-2.7-1.4-.3-2.6-.3-3.8-.6-2.7-.4-4.6.6-5.7 2.8-1 2.1-.6 3.7 1.3 5 .9.6 2.1 1.1 3.1 1.6.9.4 1.7.9 2.4 1.4.9.7.9 1.4.1 2.1-.6.7-1.3 1.1-2.1 1.1-1.6.1-2.8-.3-4-1.4-1.1-.6-1.5-.9-1.8-1.3zm63.9-9.1c2.4-.3 4.7 0 7.1.7v-1.6c0-.6-.3-.9-.9-.9-2.1 0-4.4-.1-6.6-.1h-3.4c.9 5.3.7 10.1 0 15.2h.1c3.3.1 6.4.1 9.8.1.1 0 .4-.1.4-.3.3-.9.7-1.7 1.1-2.7-2.7.7-5.3.7-7.8.4v-4.6c0-.4.3-.6.6-.6.7 0 1.6-.1 2.1 0 1 .1 2.1.3 3.1.3-.3-.7-.4-1.3-.7-1.9-.1-.4-.3-.6-.9-.4-1.3.1-2.6.3-3.8.3-.6 0-.7-.3-.7-.7.5-.8.5-2.1.5-3.2zM51.3 76.5c-.3-.3-.4-.4-.6-.7-2.7-3.1-5.3-6.3-7.8-9.3-.3-.3-.4-.4-.7-.4-.9-.1-1.6 0-2.6 0 .3.3.3.6.6.9.7.9 1 1.7.9 2.7-.1 2.3-.3 4.6-.3 7 0 1.7.1 3.4-.9 4.8v.3h2.7c-.3-.9-.6-2-.6-2.8-.1-2.1 0-4.3 0-6.4v-1.3c.1 0 .1-.1.3-.1 3.4 4 6.8 7.8 10.3 11.8.3-1.4.7-2.6 1-4-.9-.3-.9-1.3-.9-2.1 0-1.6-.1-3.1 0-4.7.3-2-.6-4.1.9-6.1h-2.4c.3.7.6 1.3.6 1.9 0 2.6-.1 5.1-.1 7.7-.3.1-.4.4-.4.8zm14.2-5.7c-1.3 1.3-2.3 1.3-3.8 1.1-.1 0-.4-.3-.4-.4v-3.7c0-.4.3-.6.7-.6 1.1 0 2.3-.1 3.4 0 .9.1 1.9.4 2.7.7.3.1.4.3.7.4 0-.9.1-1.6.1-2.3H57.3c.1.3.3.4.3.6.6.6.7 1.4.7 2.3-.1 3.4-.3 6.8-.3 10.3 0 .6-.1 1.1-.6 1.6-.3.3-.7.7-1.3 1.1h16.1c-1.1-1.4-2.1-2.7-3.4-4.3 0 1-.1 1.9-.1 2.7 0 .4-.3.6-.6.6-2.1-.1-4.3-.1-6.4-.3-.6 0-.7-.3-.7-.9.1-2.1.1-4.1.1-6.3 0-.6.3-.7.9-.7 1.6 0 3.3 0 4.8.7-.3-.6-.7-1.6-1.3-2.6zm41.3 68.9c-.1-.3-.3-.4-.4-.7-.9-1-1.1-2.1-1-3.6.1-1.6.1-3.3.1-4.8v-4.3c2.1-.1 4.1.3 6.1 1.1-.3-.9-.4-1.6-.7-2.3-.1-.6-.4-.9-1-.9h-3.3c-2.7 0-5.3 0-8-.1-.3 0-.6 0-.7.1-.6.9-1 1.7-1.6 2.6.3.1.6.1.7 0 1.4-.6 2.7-.9 4.3-.7.6 0 .9.3.9.9 0 2.1-.1 4.4-.1 6.6 0 1.9.1 3.8-.9 5.7v.3c2.1.1 3.8.1 5.6.1zm3.7-73.5c-.3 1.3-3.4 5.3-4.8 6.1-.9-1.3-1.9-2.4-2.8-3.7-.6-.7-1-1.6-.9-2.6h-5.3c.3.3.3.4.6.7l5.6 6.8c.3.3.4.7.4 1 0 1.3 0 2.7-.1 4-.1 1.1-.3 2.1-.4 3.4h4.4c-.3-.7-.4-1.4-.4-2.1 0-2 0-3.8.1-5.8 0-.4.3-.9.4-1.3 1.4-1.6 2.7-3.3 4.3-5 .4-.6 1-1.3 1.4-1.7-.9.2-1.5.2-2.5.2zm-38.8 57.9H66c.4.4.9.7 1.3.9.3.3.7.4.9.9 1.3 1.6 2.4 3.3 3.6 4.8.3.3.3.7.3 1-.1 2.6.3 5-.6 7.7h4.1c-.1-.9-.3-1.6-.3-2.3 0-1.7 0-3.4.1-5.1 0-.3.1-.7.3-1 1.9-2.1 3.3-4.8 5.8-6.6h-4c.1 2.4-1.7 3.7-3 5.6-1-2.2-3-3.4-2.8-5.9zm56.9-12.3c-1.3-2.4-2.4-4.8-3.6-7.3-.3-.6-.6-1.3-.9-2 .6-.1 1-.3 1.4-.3 2-.3 3.6-1 4.8-2.7.9-1.1 1-2.3.4-3.7-.6-1.3-1.9-2-3-2.6-2-.9-4.1-.9-6.3-.9-2.6 0-5.1-.1-7.7-.1H110c.3.3.6.6.7.9.3.7.9 1.3.9 2 0 4.1 0 8.4-.1 12.5-.1 2 .4 4.1-1.1 5.8v.3h6.8c-.4-.3-.9-.6-1-.9-.3-.4-.7-1-.7-1.6v-7.7c0-.4.1-.7.7-.7h2.7c.6 0 .9.3 1.1.7 1.3 2.6 2.7 5.3 4 7.7.3.9.6 1.6.9 2.7h5.4c-.4-.5-1.2-1.1-1.7-2.1zm-6.2-11.7c-2.1 1.6-4.4 1.3-6.8 1.1v-7.1h4.8c1 0 2.1.3 3.3.4.3.1.7.3 1 .3 1 .6 1.9 1.6 1.7 2.7 0 1.3-.9 2.3-2 2.8-.6.7-1.5.6-2-.2zm26.7 14h7.3c-.3-.7-.9-1.3-1.1-2-2.7-6.4-5.7-12.8-8.4-19.4-.3-.9-.7-1.6-1-2.3-.1.3-.3.3-.3.3-.6 1.4-1.3 2.7-2.4 3.6-.1.1 0 .4 0 .7 0 .3.1.9 0 1.1-.7 1.6-1.4 3-2.1 4.6-.4 1-1 2-1.6 3.1-.4-.3-.9-.4-1.3-.7-1.4-.9-1.4-.9-2.1.6-.3.9-.9 1.6-1.1 2.4.9.3 1.7.3 2.6.6.3.1.6.3.3.7-1 2.1-1.6 4.4-3.6 5.8-.1.1-.3.3-.4.6h4.7c-1.3-.9-.9-1.9-.3-2.8.4-.9.9-1.9 1.3-2.7.3-.4.4-.6.9-.3.9.4 1.6.9 2.1 1.6.6.4 1 .9 1.6 1.6 1.1-1.6 2.1-3.4 4-4.4.3.3.3.6.6.9.6 1.1 1 2.3 1.6 3.4.3.6.3 1 0 1.6-.5.1-.8.7-1.3 1.4zm-2.5-8.8c-1 1.3-2.1 2.4-3 3.7-1-1.1-2.1-2.3-3.3-3.6-.1-.1-.1-.3 0-.3.9-2.3 2-4.6 3.1-7.1.3.4.4.7.6.9.9 1.9 1.7 3.8 2.6 5.7.1.2.1.5 0 .7zm-5.4-31.9c1.1-.3 2.1-1 2.7-2.1.7-1.3.4-2.7-.7-3.4-.9-.7-2.1-1.1-3.3-1.3-2.8-.1-5.8-.1-8.7-.1h-1c.1.3.1.3.3.4.4.6.6 1.3.4 2.1-.1 3.4-.3 6.7-.3 10.1 0 1-.3 1.9-.9 2.7-.1.1-.3.3-.3.6h5.1c-.3-.6-.9-1.3-.9-2-.1-2 0-4 0-6 0-.4.3-.7.6-.6.6 0 1 .1 1.6 0 .6 0 .9.1 1 .6.6 1.3 1.1 2.6 1.7 4 .4 1.1.9 2.4 1.3 3.6.1.3.3.4.4.4h3.4c-1.6-2.8-2.8-5.7-4.3-8.7 1-.2 1.4-.2 1.9-.3zm-7.6-.2v-4.6c0-.1.3-.4.4-.4 1.6 0 3.1 0 4.6.3 1.3.1 2 .9 2.1 2 .1 1-.6 2.1-1.9 2.4-1.5.5-3.3.3-5.2.3zm-5.7-2.3c-1-2.8-3.3-4.6-6.3-5.1-2.8-.4-5.3.6-7.1 2.7-1.6 1.9-2 4-1.7 6.4.3 3.1 3 6.3 6 7 3.6 1 9.5-1.9 9.5-8-.1-.8-.1-1.8-.4-3zm-3.3 2.7c0 2.1-.1 4-1.1 5.7-.9 1.3-1.9 2.1-3.4 2-1.6 0-2.7-.9-3.4-2.1-1.1-2.3-1.1-4.7-.6-7.1.3-.7.4-1.6.9-2.1 1.6-2.3 5-2.1 6.7.1.8 1.1 1.1 2.4.9 3.5z"/></svg>