<svg id="Layer_1" data-name="Layer 1" xmlns="http://www.w3.org/2000/svg" viewBox="0 0 31.18 31.18"><defs><style>.cls-1{fill:Purple;}.cls-2{fill:#fff;}.cls-3{fill:#ed1c24;}.cls-4{fill:#231f20;}</style></defs><g id="New_Symbol_20-11" data-name="New Symbol 20"><circle class="cls-1" cx="15.59" cy="15.59" r="15.59"/><path class="cls-2" d="M30.63,15.59l-4.58-2.46c.1,1.26-7-2.48-5.83-3.15C15.34,7.11,15.83,7.14,11,10c1.21.65-5.91,4.41-5.82,3.15L.55,15.59l4.6,2.48c-.11-1.27,7,2.49,5.82,3.14,4.86,2.84,4.4,2.84,9.25,0-1.21-.65,5.92-4.41,5.83-3.14l4.58-2.48"/><path class="cls-3" d="M29.9,15.59c-1,.64-3.79,2.19-4.86,1.83L20.22,20c-.19,1.05-3.59,2.83-4.62,3.3-1-.48-4.44-2.22-4.62-3.31L6.14,17.42c-1,.37-3.9-1.23-4.85-1.83,1-.63,3.81-2.17,4.85-1.83L11,11.2c.18-1.09,3.58-2.83,4.62-3.31,1.06.49,4.42,2.22,4.62,3.31L25,13.76c1-.35,3.91,1.22,4.86,1.83"/><polyline class="cls-2" points="5.86 15.2 5.62 15.2 5.62 16.32 5.41 16.32 5.41 15.2 5.17 15.2 5.17 15.05 5.86 15.05 5.86 15.2"/><polyline class="cls-2" points="6.88 16.32 6.25 16.32 6.25 15.05 6.87 15.05 6.87 15.2 6.46 15.2 6.46 15.61 6.79 15.61 6.79 15.75 6.46 15.75 6.46 16.17 6.88 16.17 6.88 16.32"/><path class="cls-2" d="M8,16.32c-.25.09-.29-.24-.36-.39-.06.15-.11.48-.35.39a1.28,1.28,0,0,0,0-1.27c.23-.07.28.17.34.33.06-.16.12-.4.34-.33a1.28,1.28,0,0,0,0,1.27"/><path class="cls-2" d="M10.19,16.19c-.1.2-.74.21-.68-.1h.21c.21.34.31-.13.26-.34s-.41,0-.47-.18,0-.43.06-.48.66-.12.62.19H10c-.13-.34-.42.16-.2.29.44-.1.43.32.41.62"/><rect class="cls-2" x="14.56" y="19.59" width="0.21" height="1.26"/><polyline class="cls-2" points="15.62 20.85 14.98 20.85 14.98 19.59 15.19 19.59 15.19 20.71 15.62 20.71 15.62 20.85"/><path class="cls-2" d="M16.89,19.59c-.09.11-.15,1.49-.5,1.26l-.18-.79-.17.79c-.35.24-.41-1.15-.51-1.26.33-.18.31.68.39.81.16-1,.45-1,.59,0,.08-.13,0-1,.38-.81"/><path class="cls-2" d="M18.55,19.59a2.36,2.36,0,0,0-.31,1.26h-.19a2.57,2.57,0,0,0-.3-1.26c.26-.11.32.31.39.45.08-.16.13-.56.41-.45"/><polyline class="cls-2" points="14.9 10.4 14.66 10.4 14.66 11.51 14.45 11.51 14.45 10.4 14.21 10.4 14.21 10.26 14.9 10.26 14.9 10.4"/><polyline class="cls-2" points="15.91 11.51 15.7 11.51 15.7 10.96 15.4 10.96 15.4 11.51 15.19 11.51 15.19 10.26 15.4 10.26 15.4 10.83 15.7 10.83 15.7 10.26 15.91 10.26 15.91 11.51"/><polyline class="cls-2" points="16.83 11.51 16.2 11.51 16.2 10.26 16.81 10.26 16.81 10.4 16.41 10.4 16.41 10.81 16.73 10.81 16.73 10.96 16.41 10.96 16.41 11.38 16.83 11.38 16.83 11.51"/><path class="cls-2" d="M23.16,16.19c-.83.58-.71-.5-.69-1,.11-.21.78-.21.69.13H23c-.39-.61-.25.7-.27.85s.33.06.27-.1h.21v.13"/><rect class="cls-2" x="23.49" y="15.05" width="0.21" height="1.26"/><polyline class="cls-2" points="24.64 15.2 24.23 15.2 24.23 15.61 24.56 15.61 24.56 15.75 24.23 15.75 24.23 16.32 24.02 16.32 24.02 15.05 24.64 15.05 24.64 15.2"/><rect class="cls-2" x="24.88" y="15.05" width="0.21" height="1.26"/><path class="cls-2" d="M26.08,16.19c-.83.58-.71-.5-.7-1,.12-.21.78-.21.7.13h-.21c-.4-.61-.25.7-.28.85s.33.06.28-.1h.21v.13"/><path class="cls-4" d="M28.72,15.59l0,.08L26,14.25l0-.09.06.08c-1.05,1-5.43-2.33-6.42-2.58l.05-.09-.05.09A1.37,1.37,0,0,1,19,10.39h.1l-.05.08c-3.49-2.13-3.5-2.11-7,0l0-.08h.1a1.37,1.37,0,0,1-.75,1.27l-.05-.09.05.09c-1,.27-5.35,3.59-6.42,2.58l0-.08,0,.09L2.5,15.59,5,17,5,17l0-.08a1.36,1.36,0,0,1,1.43-.07l0,.09,0-.09c.81.72,6,2.41,5.74,3.93H12l0-.09c3.49,2.12,3.49,2.13,7,0l.05.09H19c-.32-1.51,4.95-3.23,5.74-3.93l0,.09,0-.09a1.37,1.37,0,0,1,1.43.07l-.06.08L26,17l2.65-1.45a.12.12,0,0,1,0,.17l0-.08.05.08c-.66.29-2.74,1.81-3.43,1.23-.07-.19-5.34,2.7-5.55,2.79a1.21,1.21,0,0,0-.64,1.17l-3.63,2-3.65-2a1.21,1.21,0,0,0-.64-1.17c-.22-.05-5.48-3-5.55-2.79-.64.61-3-1-3.59-1.31L5,14.05a1.21,1.21,0,0,0,1.28.09l0,.09,0-.09c.7-.61,5.86-2.45,5.63-3.71-.18-.19,3.64-2,3.65-2.06,0,.09,3.8,1.88,3.63,2.06-.25,1.24,5,3.11,5.63,3.71l0,.09,0-.09a1.21,1.21,0,0,0,1.28-.09l2.87,1.54-.16.08Z"/><path class="cls-4" d="M20,15.59c.1,5-9.16,5-9.07,0-.09-5,9.17-4.95,9.07,0"/><path class="cls-2" d="M18.52,15.07c0,.61-.72.45-1.11.47v-.92c.38,0,1.13-.15,1.11.45m.64,0c.08-1.31-1.58-.94-2.39-1v3.13h.64V16.07C18.2,16.1,19.23,16.14,19.16,15.07Z"/><path class="cls-2" d="M16.18,15.36c0,.08-.21.18-.27.21-.14-.89.36-1.82.27-.21m.21-.08c0-.65.22-1.41-.69-.7v1.25C15.89,15.71,16.34,15.54,16.39,15.28Z"/><path class="cls-2" d="M15.48,16V14.71c-.33,0-.17.71-.2.89L15,15c-.37,0-.16,1.22-.21,1.39.33,0,.18-.7.21-.89l.33.57.2-.13"/><path class="cls-2" d="M14.27,16.2l-.15.1.07-.37.08.27m.32.3-.29-1.09c-.3,0-.43,1.39-.5,1.56.32-.09.18-.55.5-.64l.08.3Z"/><polyline class="cls-2" points="14.21 14.63 14.21 14.08 11.68 14.08 11.68 14.63 12.62 14.63 12.62 17.21 13.27 17.21 13.27 14.63 14.21 14.63"/><path class="cls-2" d="M21.15,15.59c0-.21.06-.47-.25-.39v.42s.23,0,.25,0m.22,0c-.06.17-.33.12-.47.13v.57h-.21V15.05C21.13,15,21.49,15.09,21.37,15.62Z"/><path class="cls-2" d="M22,15.83l-.08-.32-.08.32H22m.31.49c-.37.11-.11-.46-.5-.34,0,.17,0,.42-.27.34C21.76,14.69,22,14.72,22.27,16.32Z"/><path class="cls-2" d="M17.41,20.38l-.08-.32-.06.32h.14m.33.47c-.25.08-.25-.17-.29-.34-.37-.11-.14.46-.51.34C17.23,19.24,17.45,19.25,17.74,20.85Z"/><path class="cls-2" d="M14.06,20.38,14,20.06l-.07.32h.15m.32.47c-.36.12-.13-.45-.5-.34,0,.17-.05.42-.29.34C13.88,19.24,14.1,19.25,14.38,20.85Z"/><path class="cls-2" d="M13.19,20.12c0-.2,0-.47-.26-.38v.42s.25,0,.26,0m.21.73h-.21c0-.19.12-.69-.26-.56v.56h-.22V19.59c.17,0,.61-.07.69.15s.07.51-.1.48C13.48,20.19,13.37,20.78,13.4,20.85Z"/><path class="cls-2" d="M8.81,15.83l-.08-.32-.07.32h.15m.33.49c-.37.11-.14-.46-.51-.34,0,.17,0,.42-.29.34C8.63,14.7,8.85,14.71,9.14,16.32Z"/></g></svg>
