<svg xmlns="http://www.w3.org/2000/svg" fill-rule="evenodd" stroke-miterlimit="1.414" viewBox="0 0 40 40"><path d="M20 1.269C9.662 1.269 1.269 9.662 1.269 20S9.662 38.731 20 38.731 38.731 30.337 38.731 20 30.338 1.269 20 1.269z" fill="#666" stroke="#fff" stroke-width="2.389"/><path d="M23.986 33.423c-3.052.205-3.979 2.028-3.979 2.028s-.921-2.028-3.979-2.028c-1.737 0-4.086-.319-6.352-2.246a8.74 8.74 0 0 1-3.094-6.671c0-2.214.694-3.985 1.3-5.458l.79-2.044c.2-.631.315-1.212.315-1.797a4.16 4.16 0 0 0-1.244-2.975l-.9-.889 6.368-6.794.885.492c1.747.972 3.76 1.527 5.904 1.527a12.1 12.1 0 0 0 5.903-1.527l.885-.492 6.368 6.794-.9.889a4.16 4.16 0 0 0-1.244 2.975c0 .586.115 1.167.315 1.797.215.678.503 1.348.79 2.044.607 1.474 1.3 3.244 1.3 5.458a8.74 8.74 0 0 1-3.094 6.671c-2.266 1.927-4.604 2.13-6.338 2.246z" fill="#fff" opacity=".87"/><path d="M20.001 7.866c-2.371 0-4.6-.615-6.535-1.691l-4.811 5.133a5.46 5.46 0 0 1 1.63 3.899c0 3.038-2.405 5.423-2.405 9.299 0 2.278 1.028 4.313 2.637 5.683 3.85 3.274 7.917.756 9.482 3.428 1.565-2.672 5.634-.154 9.484-3.428 1.61-1.369 2.638-3.404 2.638-5.683 0-3.876-2.405-6.262-2.405-9.299a5.46 5.46 0 0 1 1.63-3.899l-4.811-5.132c-1.935 1.077-4.162 1.691-6.534 1.691z" fill="#00529b" opacity=".87"/><path d="M9.818 29.041a7.11 7.11 0 0 1-1.633-4.536c0-1.873.58-3.39 1.18-4.848l.453-1.11zm1.851 1.599V18.548h1.855v12.898a7.12 7.12 0 0 1-1.855-.807zm3.703 1.134V18.548h1.853v13.355l-1.09-.08-.763-.05zm14.809-2.732a7.11 7.11 0 0 0 1.633-4.536c0-1.873-.58-3.39-1.18-4.848l-.453-1.11zM28.33 30.64V18.548h-1.855v12.898a7.118 7.118 0 0 0 1.855-.807zm-3.703 1.134V18.548h-1.853v13.355l1.09-.08.763-.05zm-4.628 1.307c-.263-.324-.573-.558-.917-.729V18.548h1.833v13.803a2.72 2.72 0 0 0-.917.729z" fill="#ef3e42" opacity=".87"/><path d="M11.669 30.643a7.622 7.622 0 0 1-.954-.687 7.29 7.29 0 0 1-.904-.919l.007.003V18.549h1.851zm3.703 1.122a10.65 10.65 0 0 1-1.848-.317V18.549h1.848v13.216zm1.853.139V18.549h1.857v13.802a3.592 3.592 0 0 0-.599-.23 6.58 6.58 0 0 0-1.125-.203l-.133-.013zm11.105-1.261a7.626 7.626 0 0 0 .954-.687 7.289 7.289 0 0 0 .904-.919l-.007.003V18.549H28.33zm-3.703 1.122c.6-.056 1.217-.144 1.848-.317V18.549h-1.848v13.216zm-1.853.139V18.549h-1.858v13.802a3.597 3.597 0 0 1 .599-.23 6.58 6.58 0 0 1 1.125-.203l.133-.013zm1.335-18.117h.84v2.854h-.84zm-.537.639v-.639h-1.94v2.854h.846v-.994h1.094v-.669h-1.094v-.553zm-3.377-.639h.84v2.854h-.84zm-6.442 0a.96.96 0 0 1 .961.964.964.964 0 0 1-.964.964h-.553v.926h-.784v-2.855zm1.685 2.364l-.173.491h-.794l1.03-2.855h.946l1.03 2.855h-.795l-.173-.491h-1.07zm2.763-.895c-.011-.428.304-.722.697-.732.197-.005.452.098.717.167v-.787a1.72 1.72 0 0 0-.688-.177 1.49 1.49 0 0 0-1.514 1.521c0 .911.711 1.522 1.514 1.522a1.72 1.72 0 0 0 .688-.177v-.787c-.265.069-.52.172-.717.167-.393-.01-.708-.303-.697-.732v.014zm7.974 0c-.011-.428.304-.722.697-.732.197-.005.452.098.717.167v-.787a1.72 1.72 0 0 0-.688-.177 1.49 1.49 0 0 0-1.514 1.521c0 .911.711 1.522 1.514 1.522a1.72 1.72 0 0 0 .688-.177v-.787c-.265.069-.52.172-.717.167-.393-.01-.708-.303-.697-.732v.014z" fill="#fff" opacity=".87"/><path d="M16.268 15.502l-.294-.915h-.007l-.298.915h.599zm-3.072-1.079h.501a.3.3 0 0 1 .299.3c0 .166-.134.344-.3.344h-.5v-.644z" fill="#00529b" opacity=".87"/><path d="M19.539 9.8h.839v2.854h-.84zm1.325 1.432c0-.829.678-1.5 1.515-1.5s1.515.672 1.515 1.5-.678 1.5-1.515 1.5-1.515-.672-1.515-1.5zm3.553 1.422h.808v-1.438h.008l.968 1.439h.916V9.8h-.869v1.507h-.008L25.27 9.8h-.853zm-8.294 0h.808v-1.438h.008l.968 1.439h.917V9.8h-.869v1.507h-.008L16.976 9.8h-.853z" fill="#fff" opacity=".87"/><path d="M21.665 11.232a.71.71 0 1 1 1.428 0 .71.71 0 0 1-.714.707.71.71 0 0 1-.714-.707z" fill="#00529b" opacity=".87"/><path d="M14.564 9.798h.827v1.589c0 .364-.015.724-.301.997-.24.232-.617.315-.953.315s-.713-.082-.953-.315c-.286-.274-.301-.633-.301-.997V9.798h.827v1.385c0 .367-.053.769.427.769s.427-.401.427-.769z" fill="#fff" opacity=".87"/><path d="M15.372 31.764c-.6-.056-1.217-.145-1.848-.318a7.12 7.12 0 0 1-1.855-.807 7.57 7.57 0 0 1-.954-.684 7.29 7.29 0 0 1-.904-.919l.007.003v.002a7.11 7.11 0 0 1-1.633-4.535c0-1.874.58-3.39 1.18-4.848l.453-1.11h20.364l.453 1.11c.6 1.457 1.179 2.974 1.179 4.848a7.11 7.11 0 0 1-1.632 4.535v-.002l.006-.003a7.296 7.296 0 0 1-.904.919 7.626 7.626 0 0 1-.954.687 7.113 7.113 0 0 1-1.855.804c-.63.173-1.247.262-1.848.318l-.763.059-1.09.08-.133.016c-.401.042-.778.103-1.125.203a3.569 3.569 0 0 0-.599.23c-.343.171-.653.404-.916.728-.263-.324-.573-.558-.917-.729a3.563 3.563 0 0 0-.599-.231 6.56 6.56 0 0 0-1.125-.203l-.133-.014-1.09-.08a29.53 29.53 0 0 1-.763-.059" fill="none" opacity=".87" stroke="#00529b" stroke-width=".036"/></svg>
