<svg id="Layer_1" data-name="Layer 1" xmlns="http://www.w3.org/2000/svg" viewBox="0 0 31.18 31.18"><defs><style>.cls-1{fill:#80132f;}.cls-1,.cls-2{fill-rule:evenodd;}.cls-2{fill:#7f0d2d;}.cls-3{fill:#010101;}.cls-4{fill:#fff;}.cls-5{fill:#231f20;}.cls-6{fill:#ef3f49;}</style></defs><g id="New_Symbol_20-11" data-name="New Symbol 20"><g id="New_Symbol-10" data-name="New Symbol"><path class="cls-1" d="M31.18,15.59C31.48,35.82-.3,35.82,0,15.59-.3-4.64,31.48-4.64,31.18,15.59Z"/><path class="cls-2" d="M15.59,1.42C34,1.15,34,30,15.59,29.76-2.8,30-2.8,1.15,15.59,1.42"/><rect class="cls-3" x="5.64" y="6.23" width="20.01" height="18.93"/><rect class="cls-4" x="6.2" y="6.79" width="18.82" height="17.82"/><rect class="cls-5" x="6.72" y="7.3" width="17.71" height="16.83"/><path class="cls-4" d="M12.83,13c-1.57,1-1.55-3.31-.11-2,0-.14-.13-.76-.12-.92-1.22,1-1.12-2.47-.11-1.37.45-1-2.22-.43-2.58-.57.21.39.1.92-.25,2.38,0-.34-.62-2.14-.12-2.35C8,7.73,8.88,9.48,8.23,10.37c0-.45-.44-1.89,0-2.28a4.3,4.3,0,0,1-1.34,0c.33.32.38,2.71.44,2.42.22.12.22,5.76,1,5.17.08-.13.34-3.57.51-3.52,1.13,8.19,1.09-.4,1.88-3.89.39-.45.24,5.47-.09,5.43C11.29,13.72,12.6,13.87,12.83,13Z"/><path class="cls-6" d="M17.6,16c0-2-3,0-6.32.29.45-.31,2.51-.73,6.17-1.28-.12-.61-.57-.55-1.26-.21l.15-.22c-3,.28-4.67.64-5.32,1,0-.06.08-.15.14-.27a5.24,5.24,0,0,0-1.09.64c-.5-.06-1.42,1.11-3,1.6,2.3-.79,1.84-.61,3.31-.12q-.12-.11-.33-.33a3,3,0,0,0,1.58.23c-.27-.08-.45-.1-.51-.27A5.35,5.35,0,0,0,14,16.92c-2-.15,2.28-.07,3-.59a.71.71,0,0,1-.26-.15C17.09,16.12,17.63,16.46,17.6,16Z"/><path class="cls-4" d="M10.14,19.65c0-1.66-1.59-2.17-2.93-1.94.19.2.3,5.22,0,5.41H8.45c-.3-.1,0-4.68-.12-4.87,1.37.33.42,2.71.23,3.36C9.43,21.7,10.16,20.41,10.14,19.65Z"/><path class="cls-4" d="M13.15,23.13c-.57-.62-1.29-4.65-1.63-5.22,0,0,.05-.1.14-.19H10.14c1.33.5,0,3.56-.7,5.4h1.15c-1.27-1.29,2.26-1.35,1,0Z"/><path class="cls-3" d="M11.94,17.21c-.62.18-.72-.17-1.29-.29C11.17,17,11.3,17.13,11.94,17.21Z"/><path class="cls-3" d="M11.51,21.56a4.12,4.12,0,0,0-.86,0c.11-.39.26-.92.44-1.61Z"/><path class="cls-4" d="M19.15,15.69c.15-4.21-6.47-4.76-7-.64a6.37,6.37,0,0,0,1.06-.14c-.74-.17-1.09-.6-.39-.8-.21.09-.26.42-.07.45s.11-.11.17-.23l.15.1c-.38.2.35.34.35.32l-.09.14c5-4.48,7.06,4.85-.82,2.49C14,20.63,19.28,19.23,19.15,15.69Z"/><path class="cls-4" d="M14.65,11.27c.24-.8-2.52-3.81-.24-2.45.11-1-.91-.92-1.5-.45-1.27.93,2.71,3.86-.26,3.52q.16.33.48.87C13.2,12.63,14.81,11.93,14.65,11.27Z"/><path class="cls-3" d="M14.93,13.38c-.12.06-.3.13-.54.22-.06-.37-.59.11-.25.18a8.49,8.49,0,0,0-.64.66c0-.09-.69-.64-.77-.51.11-.09.26-.63.54-.49-.53.16-.07.8,0,.25a1.53,1.53,0,0,1,.16.11L13.3,14c.19.25.37.22.54-.12,0,0,0,.06.05.07s-.26-.87-.34-.94c.3-.41.79.63,1.12.38,0,.16-.2-1.14-.52-.56-.3-.21.78-.61.74-.26C14.24,12.3,14.85,13.24,14.93,13.38Z"/><path class="cls-4" d="M15.26,22.48v-.13c-1.88,2-2-4.05-.18-2.05.35-1.18-1.62-1.4-2-.29C11.76,21.6,14.77,24.63,15.26,22.48Z"/><path class="cls-3" d="M14.23,17.77c0,.21-.13.3-.39.3v.51c-.24-.1-.2-.47-.15-.68.25.2.55-.26.22-.33a2.28,2.28,0,0,0-.57.59.26.26,0,0,1-.19-.19.08.08,0,0,1,.07,0c.14-.15.34-.38.59-.68C14.09,17.58,14.23,17.73,14.23,17.77Z"/><path class="cls-4" d="M14.14,13.36a1.45,1.45,0,0,0-.28-.16C13.83,13.43,14,13.62,14.14,13.36Z"/><path class="cls-3" d="M14.93,18.3a.63.63,0,0,1-.52.6C13.32,18.77,14.82,17,14.93,18.3Z"/><path class="cls-4" d="M14.75,18.23c0-.68-.59,0-.56.28C14.23,19.12,14.79,18.54,14.75,18.23Z"/><path class="cls-4" d="M16.92,8.7c.27-.87-2.77-1-2.36.12,1.33-1.55.61,2.87.56,3.06a6.86,6.86,0,0,1,1.19,0C16,11.43,15.54,7.67,16.92,8.7Z"/><path class="cls-3" d="M15.77,13.32h-.23c.36-.69-.66-.57-.14,0a.76.76,0,0,0-.31.06,1.69,1.69,0,0,0-.11-1,1.08,1.08,0,0,0,.25,0c-.26.5.68.56.31,0C15.94,12.12,15.7,13.19,15.77,13.32Z"/><path class="cls-3" d="M16.56,18.93a.72.72,0,0,1-.3.07c.07-.13-.16-.76-.14-.84-.15-.06-.27.13-.36,0,.17,1.37-1.09,1.11-.68-.12a.53.53,0,0,0,.18,0c-.19.52.13,1.44.34.62,0,.13,0-.08,0-.62a1.8,1.8,0,0,0,.94-.19s0,.13,0,.15l-.26,0A1.66,1.66,0,0,0,16.56,18.93Z"/><path class="cls-4" d="M16.66,23.13a8.34,8.34,0,0,1,0-3.72,7.94,7.94,0,0,1-1.15.14c.11.2.17.29.17.26,0,.2.07,3.31-.17,3.32A11,11,0,0,1,16.66,23.13Z"/><path class="cls-3" d="M16.7,12.54l0,.16c-.8-.49-.23.15-.29.28-.33-.24-.35.48.13.34-.06.08-.11.12-.16.12.11,0-.05,0-.45-.13a1.13,1.13,0,0,0,.16-.92A6.36,6.36,0,0,1,16.7,12.54Z"/><path class="cls-3" d="M17.54,13.26c-.22.06-.62.33-.23.65-.39.1-.29-.49-.3-.71.31.17.5-.31.14-.34s-.17,1-.63.64a1.71,1.71,0,0,0,.39-.88C17.38,12.91,17.6,13,17.54,13.26Z"/><path class="cls-3" d="M17.68,18.32c0,.08-.55.4-.61.4a2.57,2.57,0,0,0-.51-.89,1.14,1.14,0,0,0,.49-.31c.31-.05-.71.82.11.42.16.08,0,.17-.13.24.12.44.44.27.62.07A.11.11,0,0,1,17.68,18.32Z"/><path class="cls-4" d="M18.86,12.52v-.11c-1.43.08-1.32-2.39-.23-1.46V10c-1.2,1.22-1-2.64.05-1.22C19,7.69,17.45,8.2,17,8.09c.05.18.08.26.08.23-.08.29.2,3.66-.22,3.75a4.17,4.17,0,0,1,1.88,1.31C18.71,13.29,18.85,12.59,18.86,12.52Z"/><path class="cls-4" d="M19.16,18.78c0-2.42-1.06.44-2,.44.44.49.31,3.3.09,3.89h1.15c-.1-.4-.54-3.35.64-2.36v-.9c-.79.48-.81-.5-.75-.63C18.63,18.81,18.82,18.61,19.16,18.78Z"/><path class="cls-3" d="M18.81,16.85c-.29.85-.56.37-1.06.24-.23.39-.54-.2.09-.17l.38,0c.25.79.73-.4-.42-.28v-.09s0,0,.09-.16c.4.25.63.4.92.32Z"/><path class="cls-3" d="M18.58,14.18c0,.51-.71,0-.68.59-.1,0-.14-.06-.17-.14.06-.44.55-.27.71-.49,0-.61-.74.07-.79.24-.51-.25.6-.53.54-.78C18.29,13.66,18.6,14.05,18.58,14.18Z"/><path class="cls-3" d="M17.79,17.74l-.18,0C17.46,17.52,17.87,17.44,17.79,17.74Z"/><path class="cls-3" d="M18.9,14.77a1.76,1.76,0,0,0-1,.32.59.59,0,0,0-.05-.28c.16.11.82-.2.91-.34A1.14,1.14,0,0,0,18.9,14.77Z"/><path class="cls-3" d="M19,15.76a2.57,2.57,0,0,1-.16.76l-.12,0c.31-.27-.2-.83-.18-.19l-.19,0c.3-.26-.3-.42-.34-.15,0,.43.2.23-.14.24,0-.16.05-.36.09-.62a1.7,1.7,0,0,0,.9.14c.2-.25-1.07-.43-1-.47a6.69,6.69,0,0,0,1-.57c0,.05,0,.14.07.28-.08-.11-.65.25-.7.31a1.38,1.38,0,0,0,.75.15S19,15.73,19,15.76Z"/><path class="cls-4" d="M21.65,13.7c-.37-.6-.67-2.58-.67-2.15a2.06,2.06,0,0,0-2.06-3.46,16.65,16.65,0,0,1,0,5.59c.53,0,.95,0,1.26,0-.32-.62-.53-4.64,0-5.09.82.42.64,2.4-.06,2.94.34,1.57.51,1.6.39,2.15A11,11,0,0,1,21.65,13.7Z"/><path class="cls-6" d="M24,14.56c-.45-.9-2.62-.4-4-.22a.46.46,0,0,1,.21-.18c-.21,0-.53,0-1,.08,0,.73.66.52,1.09.51l-.92.14a7.23,7.23,0,0,1,.13.95c.46-.1,1.15-.25,2.06-.47a1.85,1.85,0,0,1-.37-.19C21.69,15.38,23.77,15.18,24,14.56Z"/><path class="cls-4" d="M20.72,17.68H19.25a10.2,10.2,0,0,1,0,5.43H20.7A12.29,12.29,0,0,1,20.72,17.68Z"/><path class="cls-4" d="M23.78,23.11a6.27,6.27,0,0,1,0-.92C22.65,23.19,22,22,22.05,20c0-5.63,2.43-2.42.87.66h.79V16.1C20,15.67,19.78,23.87,23.78,23.11Z"/><path class="cls-4" d="M24.1,8.18V8.09H23c.65.37.41,1.87.31,2-.81-1.21-.17-2.32-2.08-2,1.15.25.42,4.85.48,5.59.37,0,.78,0,1.15,0-.77-.45-.41-2-.48-2.73.46-.17.47,2.3,1.51,2.71A44,44,0,0,1,24.1,8.18Z"/></g></g></svg>