<svg id="art" xmlns="http://www.w3.org/2000/svg" xmlns:xlink="http://www.w3.org/1999/xlink" viewBox="0 0 34.02 34.02"><defs><style>.cls-1{fill:none;}.cls-2{clip-path:url(#clip-path);}.cls-3{fill:#f05f72;}.cls-4{fill:#fff;}.cls-5{clip-path:url(#clip-path-2);}</style><clipPath id="clip-path"><circle class="cls-1" cx="17.01" cy="17.01" r="16.67"/></clipPath><clipPath id="clip-path-2"><circle class="cls-1" cx="17.01" cy="140.1" r="16.67"/></clipPath></defs><g class="cls-2"><path class="cls-3" d="M37.84,17A20.84,20.84,0,1,1,17-3.83,20.84,20.84,0,0,1,37.84,17Z"/><path class="cls-3" d="M28.25,17A11.25,11.25,0,1,1,17,5.76,11.24,11.24,0,0,1,28.25,17Z"/><path class="cls-4" d="M10.46,11.23l2.17,9.58a1.73,1.73,0,0,0,.34.72v.09H10.68v-.1a1,1,0,0,0,.18-.53,1.26,1.26,0,0,0,0-.21l-.37-1.45H9l-.41,1.53a1.19,1.19,0,0,0,0,.2,1.08,1.08,0,0,0,.14.46v.1H6.58v-.07A1.52,1.52,0,0,0,6.86,21l2.26-9a.39.39,0,0,0,0-.13.68.68,0,0,0-.08-.31.66.66,0,0,0-.16-.22v-.1ZM9.3,17.93h.91l-.44-2.2Z"/><path class="cls-4" d="M13.09,11.33h2v.12a.66.66,0,0,0-.1.37,1.06,1.06,0,0,0,0,.29l.88,4.19,1.12-5h1l1,5,1-4.07a1.64,1.64,0,0,0,.07-.44.74.74,0,0,0-.07-.34v-.12h2v.09a2.05,2.05,0,0,0-.26.62l-2.05,9.58h-1L17.48,15.8l-1.25,5.82H15.17l-1.81-9.44a2.15,2.15,0,0,0-.27-.75Z"/><path class="cls-4" d="M23.55,20.05a1.37,1.37,0,0,0,.9.29,1,1,0,0,0,.78-.36,1.41,1.41,0,0,0,.31-1,2.43,2.43,0,0,0-.36-1.2,7.51,7.51,0,0,0-1.1-1.42,5.57,5.57,0,0,1-1-1.43,3.78,3.78,0,0,1-.32-1.53,2,2,0,0,1,.69-1.6,2.68,2.68,0,0,1,1.82-.6,4.59,4.59,0,0,1,.89.07,1.49,1.49,0,0,1,.47.15l.06,2h-.12A2.15,2.15,0,0,0,26,12.9a1.2,1.2,0,0,0-.75-.26.59.59,0,0,0-.49.24.88.88,0,0,0-.2.57,2.11,2.11,0,0,0,.67,1.47,9.07,9.07,0,0,1,1.51,2,4.34,4.34,0,0,1,.5,2,2.78,2.78,0,0,1-.74,2,2.62,2.62,0,0,1-2,.76,3,3,0,0,1-1.08-.16,1.45,1.45,0,0,1-.58-.35l0-2H23A2.23,2.23,0,0,0,23.55,20.05Z"/></g><g class="cls-5"><path class="cls-4" d="M10.46,11.23l2.17,9.58a1.73,1.73,0,0,0,.34.72v.09H10.68v-.1a1,1,0,0,0,.18-.53,1.26,1.26,0,0,0,0-.21l-.37-1.45H9l-.41,1.53a1.19,1.19,0,0,0,0,.2,1.08,1.08,0,0,0,.14.46v.1H6.58v-.07A1.52,1.52,0,0,0,6.86,21l2.26-9a.39.39,0,0,0,0-.13.68.68,0,0,0-.08-.31.66.66,0,0,0-.16-.22v-.1ZM9.3,17.93h.91l-.44-2.2Z"/><path class="cls-4" d="M13.09,11.33h2v.12a.66.66,0,0,0-.1.37,1.06,1.06,0,0,0,0,.29l.88,4.19,1.12-5h1l1,5,1-4.07a1.64,1.64,0,0,0,.07-.44.74.74,0,0,0-.07-.34v-.12h2v.09a2.05,2.05,0,0,0-.26.62l-2.05,9.58h-1L17.48,15.8l-1.25,5.82H15.17l-1.81-9.44a2.15,2.15,0,0,0-.27-.75Z"/><path class="cls-4" d="M23.55,20.05a1.37,1.37,0,0,0,.9.29,1,1,0,0,0,.78-.36,1.41,1.41,0,0,0,.31-1,2.43,2.43,0,0,0-.36-1.2,7.51,7.51,0,0,0-1.1-1.42,5.57,5.57,0,0,1-1-1.43,3.78,3.78,0,0,1-.32-1.53,2,2,0,0,1,.69-1.6,2.68,2.68,0,0,1,1.82-.6,4.59,4.59,0,0,1,.89.07,1.49,1.49,0,0,1,.47.15l.06,2h-.12A2.15,2.15,0,0,0,26,12.9a1.2,1.2,0,0,0-.75-.26.59.59,0,0,0-.49.24.88.88,0,0,0-.2.57,2.11,2.11,0,0,0,.67,1.47,9.07,9.07,0,0,1,1.51,2,4.34,4.34,0,0,1,.5,2,2.78,2.78,0,0,1-.74,2,2.62,2.62,0,0,1-2,.76,3,3,0,0,1-1.08-.16,1.45,1.45,0,0,1-.58-.35l0-2H23A2.23,2.23,0,0,0,23.55,20.05Z"/></g></svg>