<svg id="art" xmlns="http://www.w3.org/2000/svg" xmlns:xlink="http://www.w3.org/1999/xlink" viewBox="0 0 34.02 34.02"><defs><style>.cls-1{fill:none;}.cls-2{clip-path:url(#clip-path);}.cls-3{fill:#584232;}.cls-4{fill:#fff;}</style><clipPath id="clip-path"><circle class="cls-1" cx="17.01" cy="17.01" r="16.67"/></clipPath></defs><g class="cls-2"><path class="cls-3" d="M37.84,17A20.84,20.84,0,1,1,17-3.83,20.83,20.83,0,0,1,37.84,17Z"/><path class="cls-4" d="M16.29,21.26a2.31,2.31,0,0,1-.74.27,4.17,4.17,0,0,1-1,.11A3.15,3.15,0,0,1,12.59,21a4,4,0,0,1-1.31-1.76,6.94,6.94,0,0,1-.46-2.63,8.15,8.15,0,0,1,.46-2.87,4.37,4.37,0,0,1,1.32-1.93,3.08,3.08,0,0,1,2-.68,4.9,4.9,0,0,1,1,.11,1.39,1.39,0,0,1,.58.21l.09,2.24h-.06a5.37,5.37,0,0,0-.72-.66,1.57,1.57,0,0,0-.94-.35,1.28,1.28,0,0,0-1,.47,3.43,3.43,0,0,0-.66,1.37,8.59,8.59,0,0,0-.23,2.08,6.06,6.06,0,0,0,.23,1.74,2.92,2.92,0,0,0,.65,1.16,1.33,1.33,0,0,0,1,.41,2.23,2.23,0,0,0,1-.24,4.49,4.49,0,0,0,.78-.45h0Z"/><path class="cls-4" d="M21.26,21.54,20,17.25h-.5v3.4a1.75,1.75,0,0,0,.24.79v.1H17.47v-.1a1.78,1.78,0,0,0,.25-.79v-8.5a1.82,1.82,0,0,0-.25-.8v-.1h2.85a2.5,2.5,0,0,1,1.92.8A3,3,0,0,1,23,14.13,3.55,3.55,0,0,1,22.5,16a2.71,2.71,0,0,1-1.09,1.11l1.35,3.62a3.2,3.2,0,0,0,.44.75v.1Zm-.48-6.17a1.53,1.53,0,0,0,.36-1.06,1.25,1.25,0,0,0-1.4-1.44h-.29v2.89H20A1.11,1.11,0,0,0,20.78,15.37Z"/></g></svg>