<svg id="art" xmlns="http://www.w3.org/2000/svg" xmlns:xlink="http://www.w3.org/1999/xlink" viewBox="0 0 34.02 34.02"><defs><style>.cls-1{fill:none;}.cls-2{clip-path:url(#clip-path);}.cls-3{fill:#ec1e29;}.cls-4{fill:#fff;}</style><clipPath id="clip-path"><circle class="cls-1" cx="17.01" cy="17.01" r="16.67"/></clipPath></defs><g class="cls-2"><path class="cls-3" d="M37.84,17A20.84,20.84,0,1,1,17-3.83,20.83,20.83,0,0,1,37.84,17Z"/><path class="cls-4" d="M11.89,12.13v.09a1.55,1.55,0,0,0-.22.74v8.77h-.56l-3-5.84v5a1.26,1.26,0,0,0,.25.73v.11H6.2v-.11a1.52,1.52,0,0,0,.24-.73V13a1,1,0,0,0-.05-.35,3.12,3.12,0,0,0-.18-.39v-.09H8l2,4.17V13a1.28,1.28,0,0,0-.24-.74v-.09Z"/><path class="cls-4" d="M14.68,21.73v-.09c.09-.18.15-.32.19-.42a.72.72,0,0,0,.07-.33V17.08l-1.79-4.16a2.53,2.53,0,0,0-.41-.7v-.09h2.07v.09a1.77,1.77,0,0,0-.07.4,1.28,1.28,0,0,0,.07.34l.92,2.38,1-2.47c0-.09,0-.16,0-.21a1.37,1.37,0,0,0-.08-.44v-.09h2.07v.07a2.25,2.25,0,0,0-.35.63l-1.81,4.25V21a.8.8,0,0,0,.06.3,2.42,2.42,0,0,0,.2.39v.09Z"/><path class="cls-4" d="M19.55,12.13h1.88v.11a.57.57,0,0,0-.1.34.93.93,0,0,0,0,.27l.82,3.91,1-4.67h.94l.95,4.67L26,13a1.76,1.76,0,0,0,.06-.41.75.75,0,0,0-.06-.31v-.11h1.85v.08a2,2,0,0,0-.25.58l-1.91,8.94h-1L23.63,16.3l-1.16,5.43h-1l-1.69-8.81a2.15,2.15,0,0,0-.24-.7Z"/><path class="cls-4" d="M11.89,12.13v.09a1.55,1.55,0,0,0-.22.74v8.77h-.56l-3-5.84v5a1.26,1.26,0,0,0,.25.73v.11H6.2v-.11a1.52,1.52,0,0,0,.24-.73V13a1,1,0,0,0-.05-.35,3.12,3.12,0,0,0-.18-.39v-.09H8l2,4.17V13a1.28,1.28,0,0,0-.24-.74v-.09Z"/><path class="cls-4" d="M14.68,21.73v-.09c.09-.18.15-.32.19-.42a.72.72,0,0,0,.07-.33V17.08l-1.79-4.16a2.53,2.53,0,0,0-.41-.7v-.09h2.07v.09a1.77,1.77,0,0,0-.07.4,1.28,1.28,0,0,0,.07.34l.92,2.38,1-2.47c0-.09,0-.16,0-.21a1.37,1.37,0,0,0-.08-.44v-.09h2.07v.07a2.25,2.25,0,0,0-.35.63l-1.81,4.25V21a.8.8,0,0,0,.06.3,2.42,2.42,0,0,0,.2.39v.09Z"/><path class="cls-4" d="M19.55,12.13h1.88v.11a.57.57,0,0,0-.1.34.93.93,0,0,0,0,.27l.82,3.91,1-4.67h.94l.95,4.67L26,13a1.76,1.76,0,0,0,.06-.41.75.75,0,0,0-.06-.31v-.11h1.85v.08a2,2,0,0,0-.25.58l-1.91,8.94h-1L23.63,16.3l-1.16,5.43h-1l-1.69-8.81a2.15,2.15,0,0,0-.24-.7Z"/></g></svg>