<svg xmlns="http://www.w3.org/2000/svg" width="31.1" height="27"><path d="M23.02.56H8.08L.61 13.5l7.47 12.94h14.94l7.47-12.94L23.02.56z" fill="#0ff"/><path d="M23.02.56v-.5H7.79L.03 13.5l7.76 13.44h15.52l7.76-13.44L23.31.06h-.29v.5l-.43.25 7.32 12.69-7.18 12.44H8.37L1.19 13.5 8.37 1.06h14.65v-.5l-.43.25.43-.25z" fill="#221f1f"/><path d="M16.567 18.972q.8 0 1.344-.192.544-.192.864-.512.331-.32.469-.747.149-.427.149-.907 0-.501-.16-.896-.16-.405-.501-.683-.341-.288-.885-.437-.533-.149-1.291-.149h-2.891v4.523zM13.666 8.007v4.459h2.283q1.472 0 2.219-.533.757-.533.757-1.696 0-1.205-.683-1.717-.683-.512-2.133-.512zm2.443-2.219q1.515 0 2.592.288 1.077.288 1.76.821.693.533 1.013 1.291.32.757.32 1.707 0 .544-.16 1.045-.16.491-.501.928-.331.427-.853.779-.512.352-1.227.597 3.179.715 3.179 3.435 0 .981-.373 1.813-.373.832-1.088 1.44-.715.597-1.76.939-1.045.341-2.389.341h-5.824V5.788z"/></svg>