<svg xmlns="http://www.w3.org/2000/svg" width="31.1" height="27"><path d="M23.02.56H8.08L.61 13.5l7.47 12.94h14.94l7.47-12.94L23.02.56z" fill="#0f0"/><path d="M23.02.56v-.5H7.79L.03 13.5l7.76 13.44h15.52l7.76-13.44L23.31.06h-.29v.5l-.43.25 7.32 12.69-7.18 12.44H8.37L1.19 13.5 8.37 1.06h14.65v-.5l-.43.25.43-.25z" fill="#221f1f"/><path d="M21.514 13.481v5.46q-1.027.756-2.193 1.111-1.157.345-2.483.345-1.652 0-2.996-.513-1.335-.513-2.287-1.428-.943-.915-1.456-2.184-.513-1.269-.513-2.772 0-1.521.495-2.791.495-1.269 1.4-2.184.915-.915 2.212-1.419 1.297-.504 2.912-.504.821 0 1.531.131.719.131 1.325.364.616.224 1.12.551.504.327.924.719l-.719 1.139q-.168.271-.439.336-.271.056-.588-.14-.308-.177-.616-.355-.308-.177-.691-.308-.373-.131-.849-.215-.467-.084-1.083-.084-.999 0-1.811.336-.803.336-1.372.961-.569.625-.877 1.503-.308.877-.308 1.96 0 1.157.327 2.072.336.905.933 1.54.607.625 1.456.961.849.327 1.895.327.747 0 1.335-.159.588-.159 1.148-.429v-2.445h-1.699q-.243 0-.383-.131-.131-.14-.131-.336v-1.419z"/></svg>