<svg xmlns="http://www.w3.org/2000/svg" width="31.1" height="27"><path d="M23.02.56H8.08L.61 13.5l7.47 12.94h14.94l7.47-12.94L23.02.56z" fill="#f0f"/><path d="M23.02.56v-.5H7.79L.03 13.5l7.76 13.44h15.52l7.76-13.44L23.31.06h-.29v.5l-.43.25 7.32 12.69-7.18 12.44H8.37L1.19 13.5 8.37 1.06h14.65v-.5l-.43.25.43-.25z" fill="#221f1f"/><path d="M15.121 13.537q.691 0 1.204-.168.513-.177.849-.495.345-.327.513-.784.168-.467.168-1.036 0-.541-.168-.98-.168-.439-.504-.747-.336-.308-.849-.467-.513-.168-1.213-.168h-1.876v4.844zm0-6.785q1.353 0 2.343.317.989.317 1.633.887.644.569.952 1.363.317.793.317 1.736 0 .98-.327 1.801-.327.812-.98 1.4-.653.588-1.643.915-.98.327-2.296.327h-1.876v4.751h-2.511V6.752z"/></svg>