<svg xmlns="http://www.w3.org/2000/svg" viewBox="-16 -16 32 32" height="32" width="32"><style><![CDATA[.B{stroke-linejoin:round}.C{stroke-linecap:round}]]></style><circle r="15" stroke="#000" fill="#0efffd" opacity=".99"/><g stroke="#000" transform="matrix(.65216 0 0 .65216 .004 5.979)" class="B"><g stroke-width="4" class="C"><path d="M0-6V8" fill="#67a7c4"/><path fill="#67a7c47" d="M-5-3H5"/><path d="M-9 5c2 6 16 6 18 0C7 9-7 9-9 5"/></g><circle cy="-8" r="2" stroke-width="4"/></g><g stroke="#67a7c4" class="B"><g stroke-width="1.304" class="C"><path d="M.004 2.066v9.13" fill="#67a7c4"/><path fill="#67a7c47" d="M-3.256 4.022h6.521"/></g><g fill="none" transform="matrix(.65216 0 0 .65216 .004 5.979)" stroke-width="2"><path d="M-9 5c2 6 16 6 18 0C7 9-7 9-9 5" class="C"/><circle cy="-8" r="2"/></g></g><text y="-2.102" x="-10.161" font-weight="700" font-size="12" letter-spacing="0" word-spacing="0" font-family="lato"><tspan y="-2.102" x="-10.161">+10</tspan></text></svg>
