<svg id="Layer_1" data-name="Layer 1" xmlns="http://www.w3.org/2000/svg" viewBox="0 0 30.56 30.56"><defs><style>.cls-1{fill:#fff;}</style></defs><circle cx="15.28" cy="15.28" r="15.28"/><path class="cls-1" d="M6.73,8.7a2.67,2.67,0,0,1,2.15.92,3.71,3.71,0,0,1,.78,2.47,3.16,3.16,0,0,1-.3,1.35,3.91,3.91,0,0,1-.81,1.13,3.35,3.35,0,0,1,1.39,1.35,4,4,0,0,1,.47,2A4.44,4.44,0,0,1,10,20a3.3,3.3,0,0,1-1.3,1.39,3.88,3.88,0,0,1-1.94.49H3.33v-.14a2.17,2.17,0,0,0,.32-1V9.85a2.28,2.28,0,0,0-.32-1V8.7Zm.47,4.7a1.87,1.87,0,0,0,.49-1.31A1.92,1.92,0,0,0,7.42,11a.83.83,0,0,0-.71-.41H5.87V14A1.7,1.7,0,0,0,7.2,13.4Zm.52,6.12A2.92,2.92,0,0,0,8.1,18a3.39,3.39,0,0,0-.33-1.63,1.05,1.05,0,0,0-1-.59H5.87v4.38h.84A1.17,1.17,0,0,0,7.72,19.52Z"/><path class="cls-1" d="M13.4,21.86v-.14a3.11,3.11,0,0,0,.31-.53,1.18,1.18,0,0,0,.1-.48v-10h-1a2.63,2.63,0,0,0-1.17.43l-.22.16h-.08V8.7h7.14v2.62h-.07l-.23-.16A2.6,2.6,0,0,0,17,10.73H16v10a1.37,1.37,0,0,0,.1.48,4,4,0,0,0,.31.53v.14Z"/><path class="cls-1" d="M24.75,21.86l-1.67-5.49h-.64v4.34a2.24,2.24,0,0,0,.3,1v.14H19.9v-.14a2.17,2.17,0,0,0,.32-1V9.85a2.17,2.17,0,0,0-.32-1V8.7h3.65a3.16,3.16,0,0,1,2.45,1,3.78,3.78,0,0,1,.93,2.67,4.61,4.61,0,0,1-.59,2.33,3.54,3.54,0,0,1-1.4,1.42l1.73,4.63a3.7,3.7,0,0,0,.56.95v.14ZM24.14,14a1.89,1.89,0,0,0,.46-1.35,1.6,1.6,0,0,0-1.79-1.84h-.37v3.7h.64A1.4,1.4,0,0,0,24.14,14Z"/></svg>