<svg data-name="Layer 1" xmlns="http://www.w3.org/2000/svg" width="40" height="40"><circle cx="19.99" cy="20" r="19.62"/><path d="M11.81 15.19l2.93 8.12.95.31v1.19h-4.33v-1.19l1-.31-.32-1H9l-.34 1 1.06.33v1.19H5.64v-1.21l1-.31 3-8.07zm-1.23 2.4l-1.07 3.23h2.1zm7.19 7.22v-1.19l1.12-.34V16.8h-1.3l-.34 1.3H16v-2.86l7.91-.05v2.91h-1.28l-.34-1.3H21v6.48l1.13.34v1.19zm10.7-1.19v1.19h-4v-1.19l1-.34V16.8l-1-.41v-1.13l3.28-.07 3.68 6.3V16.8l-1-.41v-1.13l3.89-.07v1.2l-1 .41v8h-2.26l-3.66-6.17v4.65z" fill="#fff"/></svg>