<svg id="Layer_1" data-name="Layer 1" xmlns="http://www.w3.org/2000/svg" width="40" height="40" viewBox="0 0 40 40">
  <defs>
    <style>
      .cls-1 {
        fill: orange;
      }

      .cls-2 {
        fill: #000;
      }
    </style>
  </defs>
  <circle class="cls-1" cx="19.99" cy="20" r="19.62"/>
  <g>
    <path class="cls-2" d="M8.77,23.61V24.8H4.89V23.61l1-.34V16.8l-1-.41V15.26l3.51-.07,2,4.54,2.14-4.47,3.27-.07v1.2l-1,.41v6.47l1,.34V24.8H11.84V23.61l1.06-.34V18.11c-.16.42-.35.87-.56,1.32s-.46,1-.73,1.5-.47,1-.62,1.28l-1.47.07L8,19.05l-.23-.71v4.93Z"/>
    <path class="cls-2" d="M22.14,17.75c-.06-.24-.13-.54-.22-.89a3.64,3.64,0,0,0-1.22-.17,1.34,1.34,0,0,0-1,.31,1,1,0,0,0-.34.76,1.05,1.05,0,0,0,.46.92A1.82,1.82,0,0,0,21,19h4.19v1.16l-1,.32v1.44a2.72,2.72,0,0,1-1,2.23,4.1,4.1,0,0,1-2.68.81,3.92,3.92,0,0,1-2.59-.73,2.51,2.51,0,0,1-.85-2,2.32,2.32,0,0,1,.21-1,2.47,2.47,0,0,1,.53-.75,5.86,5.86,0,0,1,.55-.47,2.76,2.76,0,0,1,.44-.27,3.79,3.79,0,0,1-1-.8,2.15,2.15,0,0,1-.45-1.35,2.26,2.26,0,0,1,.92-1.94A4.26,4.26,0,0,1,20.81,15a6.09,6.09,0,0,1,1.52.21,6.63,6.63,0,0,1,1.16.37l-.07,2.15Zm.08,4V20.48h-1a2.52,2.52,0,0,0-1.44.37A1.21,1.21,0,0,0,19.2,22a1.25,1.25,0,0,0,.39,1,1.79,1.79,0,0,0,2.22-.05A1.54,1.54,0,0,0,22.22,21.73Z"/>
    <path class="cls-2" d="M30.81,15A4,4,0,0,1,34,16.3a5.21,5.21,0,0,1,1.13,3.56,5.33,5.33,0,0,1-1.26,3.71A4.24,4.24,0,0,1,30.54,25a3.94,3.94,0,0,1-3.14-1.26,5.43,5.43,0,0,1-1.09-3.65,5.39,5.39,0,0,1,1.21-3.7A4.18,4.18,0,0,1,30.81,15Zm-.07,1.71a1.84,1.84,0,0,0-1.6.76A4.34,4.34,0,0,0,28.59,20a4.78,4.78,0,0,0,.5,2.47,1.65,1.65,0,0,0,1.52.8,1.9,1.9,0,0,0,1.64-.78,4.44,4.44,0,0,0,.57-2.56,4.48,4.48,0,0,0-.52-2.43A1.76,1.76,0,0,0,30.74,16.73Z"/>
  </g>
</svg>
