<svg data-name="Layer 1" xmlns="http://www.w3.org/2000/svg" width="40" height="40"><circle cx="19.99" cy="20" r="19.62" fill="orange"/><path d="M8.77 23.61v1.19H4.89v-1.19l1-.34V16.8l-1-.41v-1.13l3.51-.07 2 4.54 2.14-4.47 3.27-.07v1.2l-1 .41v6.47l1 .34v1.19h-3.97v-1.19l1.06-.34v-5.16c-.16.42-.35.87-.56 1.32s-.46 1-.73 1.5-.47 1-.62 1.28l-1.47.07L8 19.05l-.23-.71v4.93zm13.37-5.86c-.06-.24-.13-.54-.22-.89a3.64 3.64 0 00-1.22-.17 1.34 1.34 0 00-1 .31 1 1 0 00-.34.76 1.05 1.05 0 00.46.92A1.82 1.82 0 0021 19h4.19v1.16l-1 .32v1.44a2.72 2.72 0 01-1 2.23 4.1 4.1 0 01-2.68.81 3.92 3.92 0 01-2.59-.73 2.51 2.51 0 01-.85-2 2.32 2.32 0 01.21-1 2.47 2.47 0 01.53-.75 5.86 5.86 0 01.55-.47 2.76 2.76 0 01.44-.27 3.79 3.79 0 01-1-.8 2.15 2.15 0 01-.45-1.35 2.26 2.26 0 01.92-1.94 4.26 4.26 0 012.54-.65 6.09 6.09 0 011.52.21 6.63 6.63 0 011.16.37l-.07 2.15zm.08 4v-1.27h-1a2.52 2.52 0 00-1.44.37A1.21 1.21 0 0019.2 22a1.25 1.25 0 00.39 1 1.79 1.79 0 002.22-.05 1.54 1.54 0 00.41-1.22zM30.81 15A4 4 0 0134 16.3a5.21 5.21 0 011.13 3.56 5.33 5.33 0 01-1.26 3.71A4.24 4.24 0 0130.54 25a3.94 3.94 0 01-3.14-1.26 5.43 5.43 0 01-1.09-3.65 5.39 5.39 0 011.21-3.7A4.18 4.18 0 0130.81 15zm-.07 1.71a1.84 1.84 0 00-1.6.76 4.34 4.34 0 00-.55 2.53 4.78 4.78 0 00.5 2.47 1.65 1.65 0 001.52.8 1.9 1.9 0 001.64-.78 4.44 4.44 0 00.57-2.56 4.48 4.48 0 00-.52-2.43 1.76 1.76 0 00-1.56-.77z"/></svg>