<svg data-name="Layer 1" xmlns="http://www.w3.org/2000/svg" width="40" height="40"><circle cx="19.99" cy="20" r="19.62" fill="#ff0"/><path d="M7.68 24.81v-1.19l1.12-.34V16.8H7.5l-.34 1.3H5.91v-2.86l7.9-.05v2.91h-1.27l-.34-1.3h-1.29v6.48l1.13.34v1.19zm12.61-9.62l2.93 8.12 1 .31v1.19h-4.38v-1.19l1-.31-.33-1h-3l-.34 1 1.06.33v1.19h-4.12v-1.21l1-.31 3-8.07zm-1.23 2.4L18 20.82h2.1zm12.46.54L31.18 17a5 5 0 00-1.54-.21c-1.52 0-2.28 1.11-2.28 3.34s.77 3.16 2.32 3.16a4.39 4.39 0 00.69-.06 5.42 5.42 0 00.59-.12l.22-.07v-1.77l-1-.31v-1.12l3.92-.06V21l-.92.31v2.79c-.11.07-.27.15-.46.25a7.9 7.9 0 01-1.26.41 8.28 8.28 0 01-2 .25 4.19 4.19 0 01-3.23-1.23 5.13 5.13 0 01-1.13-3.6 5.35 5.35 0 011.24-3.75A4.32 4.32 0 0129.68 15a7.51 7.51 0 011.53.16 7.67 7.67 0 011.22.32l.43.16-.07 2.46z"/></svg>