<svg id="Layer_1" data-name="Layer 1" xmlns="http://www.w3.org/2000/svg" width="40" height="40" viewBox="0 0 40 40">
  <defs>
    <style>
      .cls-1 {
        fill: yellow;
      }

      .cls-2 {
        fill: #000;
      }
    </style>
  </defs>
  <circle class="cls-1" cx="19.99" cy="20" r="19.62"/>
  <g>
    <path class="cls-2" d="M7.68,24.81V23.62l1.12-.34V16.8H7.5l-.34,1.3H5.91V15.24l7.9-.05V18.1H12.54l-.34-1.3H10.91v6.48l1.13.34v1.19Z"/>
    <path class="cls-2" d="M20.29,15.19l2.93,8.12,1,.31v1.19H19.84V23.62l1-.31-.33-1h-3l-.34,1,1.06.33v1.19H14.11V23.62l1-.31,3-8.07Zm-1.23,2.4L18,20.82h2.1Z"/>
    <path class="cls-2" d="M31.52,18.13,31.18,17a5,5,0,0,0-1.54-.21c-1.52,0-2.28,1.11-2.28,3.34s.77,3.16,2.32,3.16a4.39,4.39,0,0,0,.69-.06,5.42,5.42,0,0,0,.59-.12l.22-.07V21.27l-1-.31V19.84l3.92-.06V21l-.92.31v2.79c-.11.07-.27.15-.46.25a7.9,7.9,0,0,1-1.26.41,8.28,8.28,0,0,1-2,.25,4.19,4.19,0,0,1-3.23-1.23,5.13,5.13,0,0,1-1.13-3.6,5.35,5.35,0,0,1,1.24-3.75A4.32,4.32,0,0,1,29.68,15a7.51,7.51,0,0,1,1.53.16,7.67,7.67,0,0,1,1.22.32l.43.16-.07,2.46Z"/>
  </g>
</svg>
