<svg id="Layer_1" data-name="Layer 1" xmlns="http://www.w3.org/2000/svg" viewBox="0 0 30.56 30.56"><defs><style>.cls-1{fill:brown;}.cls-2{fill:#fff;}</style></defs><circle class="cls-1" cx="15.28" cy="15.28" r="15.28"/><path class="cls-2" d="M6.13,21.73V21.6a3.11,3.11,0,0,0,.31-.53,1.1,1.1,0,0,0,.1-.47V10.82h-1a2.43,2.43,0,0,0-1.14.43l-.22.14H4.13V8.83h7v2.56h-.08l-.22-.14a2.43,2.43,0,0,0-1.14-.43h-1V20.6a1.28,1.28,0,0,0,.1.47,3.11,3.11,0,0,0,.31.53v.13Z"/><path class="cls-2" d="M13.22,19.76a1.7,1.7,0,0,0,1.13.36,1.25,1.25,0,0,0,1-.45,1.85,1.85,0,0,0,.38-1.22,3.06,3.06,0,0,0-.45-1.5,9.37,9.37,0,0,0-1.37-1.78,6.52,6.52,0,0,1-1.25-1.8,4.54,4.54,0,0,1-.41-1.9,2.52,2.52,0,0,1,.87-2,3.36,3.36,0,0,1,2.28-.76,5.13,5.13,0,0,1,1.11.1,2,2,0,0,1,.59.18l.07,2.54H17a2.91,2.91,0,0,0-.68-.73,1.53,1.53,0,0,0-.94-.32.72.72,0,0,0-.62.31,1.11,1.11,0,0,0-.24.71,2.66,2.66,0,0,0,.83,1.84,11.42,11.42,0,0,1,1.89,2.57,5.33,5.33,0,0,1,.63,2.47,3.48,3.48,0,0,1-.93,2.53,3.27,3.27,0,0,1-2.46,1,3.74,3.74,0,0,1-1.36-.21,1.75,1.75,0,0,1-.72-.44l-.06-2.49h.15A2.88,2.88,0,0,0,13.22,19.76Z"/><path class="cls-2" d="M24,21.73l-1.64-5.38h-.62V20.6a2.17,2.17,0,0,0,.29,1v.13H19.25V21.6a2.11,2.11,0,0,0,.31-1V10a2.11,2.11,0,0,0-.31-1V8.83h3.57a3.1,3.1,0,0,1,2.41,1,3.74,3.74,0,0,1,.91,2.61,4.46,4.46,0,0,1-.58,2.29,3.55,3.55,0,0,1-1.37,1.4l1.69,4.53a4.28,4.28,0,0,0,.55.94v.13ZM23.4,14a1.9,1.9,0,0,0,.45-1.33,1.57,1.57,0,0,0-1.75-1.8h-.36v3.63h.62A1.37,1.37,0,0,0,23.4,14Z"/></svg>