<?xml version="1.0" encoding="UTF-8"?>
<svg id="Layer_1" data-name="Layer 1" xmlns="http://www.w3.org/2000/svg" viewBox="0 0 34.02 34.02">
  <defs>
    <style>
      .cls-1, .cls-2, .cls-3 {
        stroke-width: 0px;
      }

      .cls-2 {
        fill: #50c878;
      }

      .cls-3 {
        fill: #fff;
      }
    </style>
  </defs>
  <circle class="cls-2" cx="17.01" cy="17.01" r="17.01"/>
  <g id="xv07Ki.tif">
    <g>
      <path class="cls-1" d="M22.82,26.79c.25-.05.47-.11.69-.14.59-.08,1.16-.04,1.7.23.33.17.56.43.69.78,0,.02.05.09.06.11,0-.07.83.44.45.47-.9.08-1.8.16-2.7.2-1.41.06-2.81.11-4.22.12-1.64.02-3.28.01-4.92-.01-2.57-.19-4.66-1.17-4.8-1.22-1.31-.46-2.42-1.18-3.13-2.4-.19-.33-.33-.7-.48-1.04,0,0-.02.03-.05.08-.1-.27-.19-.52-.12-.79.04-.18.05-.35.03-.53-.01-.09-.01-.18-.03-.3-.04.06-.09.12-.13.18-.01,0-.02-.02-.03-.02-.01-.25,0-.51.14-.71.17-.24.19-.51.26-.79-.08.04-.15.08-.25.13.06-.29.19-.5.37-.69.15-.17.26-.37.38-.56,0,0-.02-.02-.03-.03-.08.02-.17.03-.28.06.05-.07.07-.14.12-.18.14-.12.29-.22.42-.34.15-.13.3-.28.44-.42,0-.01-.01-.03-.02-.04h-.3c.13-.15.28-.21.42-.28.2-.1.39-.21.59-.31,0-.01,0-.03-.01-.04-.06-.02-.13-.04-.21-.07.19-.13.4-.17.6-.21.02,0,.06.03.07.06.1.19.2.38.3.57.03.05.01.08-.03.11-.11.09-.21.19-.32.3.07.04.11.06.17.1-.28.16-.55.31-.64.64.07.01.13.02.23.04-.27.22-.5.44-.56.77.02,0,.03.02.04.02.06.01.11.03.17.04-.03.05-.04.1-.08.15-.15.17-.24.37-.25.6,0,.05,0,.1,0,.16.04-.02.06-.04.09-.04.05-.01.1-.02.15-.03,0,.05,0,.1-.01.14-.02.06-.06.13-.09.19-.12.23-.09.46-.02.69,0,.01.01.03.03.05.05-.06.08-.11.12-.14.07-.06.13-.03.13.05,0,.12-.01.24-.02.37-.02.28.13.62.36.77.01-.12.02-.24.03-.35.02,0,.03,0,.05-.01.08.11.17.22.25.33.06.1.11.21.16.32.13.28.36.42.67.49-.07-.17-.14-.34-.2-.52,0,0,.01-.02.02-.03.13.08.26.15.38.24.13.1.24.21.36.32.22.2.48.25.81.21-.13-.16-.24-.3-.37-.45.15-.04.28-.02.41.03.17.07.34.15.51.24.3.15.59.1.89-.04-.19-.11-.39-.22-.61-.35.1-.04.17-.07.24-.09.27-.06.54.02.8.08.38.07.71-.02,1.02-.24.02-.01.03-.03.06-.07-.12-.02-.22-.04-.32-.06-.12-.02-.24-.03-.36-.05-.04,0-.07-.04-.11-.05.02-.04.03-.09.07-.11.09-.05.18-.12.27-.13.29-.04.58-.07.86-.1.31-.03.53-.18.74-.44-.07-.01-.12-.04-.18-.03-.18,0-.37.02-.55.03-.04,0-.08-.01-.12-.02.01-.04.02-.09.04-.12.15-.2.36-.27.59-.32.24-.06.49-.1.73-.19.21-.08.34-.25.45-.48-.07,0-.12-.01-.17,0-.19.03-.38.06-.58.09-.04,0-.08-.01-.13-.02,0-.04,0-.09.02-.13.09-.18.25-.28.42-.35.23-.09.48-.16.71-.25.27-.1.43-.31.55-.61-.09,0-.16,0-.23.02-.16.04-.32.09-.48.13-.04,0-.09,0-.13,0,0-.04,0-.09.02-.13.08-.19.23-.31.41-.4.14-.08.29-.14.43-.21.33-.15.52-.4.57-.79-.12.05-.22.09-.32.14-.12.05-.24.11-.36.16-.09.04-.14-.01-.11-.09.05-.13.1-.27.2-.37.14-.15.32-.27.49-.39.22-.15.37-.34.42-.6,0-.05,0-.1.02-.19-.25.14-.47.26-.7.39-.01,0-.03-.01-.04-.02,0-.08,0-.16.02-.24.08-.24.25-.43.44-.59.15-.13.31-.26.35-.47.03-.13.01-.25-.04-.38-.14.11-.28.21-.41.3-.04.03-.09.03-.13.05-.01-.04-.04-.09-.03-.13.04-.14.07-.28.13-.41.04-.1.12-.19.19-.27.16-.21.17-.43.03-.69-.07.09-.13.17-.19.26,0,0-.01,0-.02,0,.02-.14.03-.29.05-.44-.19-.04-.38-.03-.56.03-.55.16-.87.55-.99,1.1-.06.27-.06.55,0,.83,0,.03,0,.05,0,.11-.04-.05-.05-.08-.08-.1-.19-.21-.35-.45-.58-.62-.84-.64-1.94-.27-2.26.74-.16.5-.11,1,.04,1.49.04.14.1.28.15.42,0,.03.02.05.03.08-.01,0-.02.01-.03.02-.15-.22-.31-.43-.45-.66-.39-.66-.55-1.39-.62-2.14-.1-.92-.06-1.84.11-2.75.12-.64.3-1.26.54-1.87.02-.05.04-.1.06-.15,0,0,0-.01,0-.04-.51.9-.87,1.83-1.02,2.83-.15,1.01-.12,2,.21,3-.4-.2-.74-.05-1.08.09-.44.19-.86.4-1.24.7-.1.08-.12.17-.09.28.07.24.15.47.23.71,0,.01,0,.03.02.07-.04-.03-.06-.05-.08-.07-.47-.46-.73-1.02-.87-1.65-.19-.88-.13-1.75.1-2.61.35-1.32,1-2.47,1.89-3.5.74-.85,1.6-1.56,2.59-2.11.17-.1.36-.16.54-.24.03-.01.07-.02.11-.03-.06.2-.12.38-.16.56-.3,1.24.17,2.53,1.2,3.28.36.26.77.42,1.23.38.13-.01.26-.07.39-.12.08-.04.1-.12.06-.21-.07-.15-.14-.29-.22-.45-.15.12-.17.26-.16.42-.09-.08-.15-.19-.18-.3-.06-.23-.06-.46,0-.68.05-.19,0-.36-.07-.53-.02-.04-.04-.09-.07-.15-.23.16-.32.38-.32.65-.11-.16-.15-.34-.16-.52-.01-.23.02-.46.11-.67.13-.29.08-.56,0-.87-.27.16-.42.39-.45.7-.01,0-.02,0-.03,0-.02-.09-.05-.18-.07-.28-.05-.39.04-.76.27-1.08.2-.28.29-.59.28-.95-.31.12-.55.3-.67.63,0-.05-.02-.1-.02-.15-.02-.49.21-.88.53-1.21.22-.22.45-.42.68-.63.01-.01.02-.03.05-.06-.24.03-.46.05-.7.08.11-.11.2-.2.29-.29,0-.01-.01-.03-.02-.04-.43-.02-.87-.03-1.3-.05,0-.01,0-.03,0-.04.5-.22,1-.44,1.51-.65v-.03c-.2.02-.39.05-.58.06-.75.06-1.48,0-2.15-.38-.51-.29-.9-.68-1.12-1.23-.05-.13-.08-.28-.1-.43.36.5.84.82,1.42.99.57.17,1.14.19,1.72.08-.71-.23-1.15-.69-1.26-1.44.64.92,1.61,1.07,2.64,1.12-.05-.03-.11-.07-.16-.1l.03-.06c.73.06,1.46.12,2.19.18-.06-.04-.13-.1-.2-.16-.08-.06-.16-.12-.23-.21.15.03.3.06.44.1.15.04.29.09.44.14.15.05.29.12.44.16-.05-.06-.11-.12-.18-.21.36.1.67.25.97.44,0,0,.02,0,.03-.01l-.1-.32s.01-.01.02-.02c.08.09.18.17.25.26.07.1.13.2.16.32.11.42.41.63.8.74.14.04.29.06.44.06.25,0,.36-.11.37-.38.08.05.15.09.21.13.25.16.5.33.65.6.23.41.1,1.09-.24,1.34-.09-.1-.17-.19-.28-.31-.01.15-.02.26-.04.39-.03-.02-.05-.03-.06-.04-.25-.44-.66-.57-1.13-.56-.57,0-1.07.23-1.53.55-.26.18-.51.37-.83.42-.16.03-.33.02-.49.02-.11,0-.15.02-.16.13-.01.14.09.3.25.38.06.03.13.05.2.08-.12.16-.42.12-.71-.08-.19.24-.12.56.03.72.2.2.45.25.72.27-.07.16-.45.2-.87.1.01.19.09.36.2.5.16.2.38.29.63.31.15.01.31,0,.46-.02.11-.01.14.06.21.13-.39.18-.78.27-1.22.23.08.19.18.33.34.43.19.13.41.16.63.18.31.02.62.01.92-.08.18-.05.28.06.42.13-.54.25-1.07.46-1.68.42.15.26.33.46.58.55.22.08.45.15.69.17.5.06,1.01.04,1.49-.14.04-.01.07-.03.12-.06-.09-.07-.16-.12-.23-.18.6.22,1.08.61,1.54,1.03.05-.12.1-.23.16-.33.14-.24.37-.32.63-.21.04.02.1,0,.13-.02.24-.12.47-.12.69.04.05.04.09.09.13.14-.16-.02-.3.02-.42.13.26-.01.47.05.6.29.07.14.09.29.04.48-.09-.2-.23-.28-.46-.31.18.16.26.34.19.54-.04.11-.13.2-.19.3-.01,0-.02-.01-.04-.02,0-.02,0-.05.01-.07.03-.16-.08-.31-.24-.3-.03,0-.08.03-.1.06-.03.04-.05.1-.08.14-.03.04-.08.07-.14.11.07.1.14.21.22.31.57.72,1.03,1.51,1.38,2.36.46,1.11.7,2.26.63,3.45-.1,1.87-.86,3.42-2.27,4.66-.13.11-.26.22-.39.33-.03.03-.06.07-.06.11-.03.5-.25.91-.56,1.3-.04.05-.08.1-.13.17ZM22.33,14.17s0,.02,0,.04c.37.26.46.54.25.77-.14-.32-.24-.38-.48-.3.27.21.32.41.15.57-.09-.13-.22-.2-.36-.15-.13.04-.24.13-.36.2,0-.01,0-.03-.01-.05,0-.02-.01-.03-.03-.07-.27.58-.7.92-1.33.96-.63.04-1.08-.29-1.45-.78.06.32.28.66.55.84.5.35,1.22.36,1.77.01.22-.14.41-.32.5-.58,0-.03.03-.07.05-.07.18-.06.34-.15.54-.14.49.02.98.04,1.46-.06.22-.04.44-.1.62-.26.08-.07.1-.13.03-.22-.2-.26-.4-.53-.58-.79-.09-.13-.19-.19-.35-.13-.04.02-.1.01-.15.03-.22.07-.39.05-.5-.18,0-.02-.02-.03-.04-.06.22-.06.43-.11.63-.26-.38-.3-.73-.58-1.1-.86-.03-.03-.11-.02-.16,0-.64.22-1.3.29-1.98.26-.12,0-.24-.02-.39-.03.22.42.52.72.93.88-.06.1-.12.18-.16.27-.03.07-.07.1-.15.08-.13-.03-.26-.05-.39-.08,0,0,0,.01,0,.02,0,.01,0,.02.02.03.18.2.39.34.66.39.07.01.09-.02.1-.08.02-.13.05-.26.09-.38.07-.2.39-.34.58-.25.02.01.07-.02.1-.04.1-.07.19-.17.3-.21.25-.1.58,0,.71.19-.31.04-.36.06-.42.16.47,0,.75.17.8.47-.14-.04-.28-.08-.43-.12ZM21.12,20.75s0,.05,0,.06c.09.39.33.7.63.95.42.36.89.64,1.39.88.32.15.65.26,1.01.27.36.01.64-.12.85-.41.17-.24.3-.5.39-.77.04-.12.07-.24.12-.37-.41.05-.79-.02-1.15-.15-.79-.29-1.61-.41-2.45-.37-.26.01-.52.02-.78-.08ZM21.35,17.82c.05.12.14.22.25.3.24.19.52.28.82.34.51.1,1.02.2,1.52.31.35.08.7.16,1.06.13.45-.04.73-.36.63-.78-.06-.27-.16-.52-.25-.78-.02-.06-.06-.11-.09-.17,0,.01,0,.03,0,.04-.2.04-.39.08-.59.11-.15.02-.31,0-.46,0-.36.01-.72-.01-1.07.05-.61.12-1.2.29-1.82.45ZM25.71,19.36c-.15.02-.28.06-.41.05-.25-.01-.51-.03-.76-.08-.58-.12-1.16-.19-1.75-.1-.43.06-.86.17-1.34.06.06.09.09.15.14.21.19.24.43.41.72.52.56.21,1.13.41,1.7.61.32.12.65.19,1,.16.29-.02.51-.16.63-.43.14-.32.1-.65.08-.98ZM24.49,15.37c-.26.18-.54.25-.81.29-.8.11-1.57.31-2.32.61-.1.04-.21.08-.34.14.09.07.16.14.23.19.3.19.64.22.99.24.36.02.72.05,1.08.06.37.02.74.04,1.11.03.16,0,.33-.08.47-.15.17-.09.21-.24.13-.42-.09-.19-.18-.38-.28-.56-.08-.14-.16-.27-.25-.42ZM18.39,22.16s.07,0,.1,0c.64,0,1.17.25,1.62.69.44.43.71.94.79,1.55.09.68-.04,1.31-.48,1.85-.26.32-.58.57-.9.81-.02.02-.04.04-.06.05,1.26-.39,2.18.03,2.85,1.12-.03-.35-.12-.66-.35-.92-.34-.38-.78-.53-1.27-.6-.09-.01-.18-.02-.27-.03.01-.02.01-.03.02-.03.03-.03.07-.06.1-.09.27-.25.53-.52.66-.87.38-.97.27-1.9-.36-2.73-.63-.82-1.53-1.05-2.46-.81ZM21.27,22.51c.2.58.57.99,1.11,1.23.47.21.97.25,1.5.1-.2-.2-.41-.35-.64-.45-.48-.22-.97-.42-1.46-.63-.17-.07-.33-.16-.52-.25ZM17.11,27.92c.18-.21.27-.45.29-.72.03-.34-.07-.66-.22-.96-.17-.32-.26-.66-.23-1.03,0-.05,0-.09,0-.15-.02.01-.03.01-.03.02-.01.02-.02.04-.03.06-.21.51-.18,1.02.04,1.53.17.4.28.81.18,1.25ZM19.33,5.43c.17,0,.34-.02.5,0,.16.02.32.07.48.11-.26-.32-.65-.37-.98-.12Z"/>
      <path class="cls-1" d="M8.65,14.1c-.08-.33-.32-.49-.6-.58-.54-.17-1.04-.02-1.48.3-.52.37-.85.89-1.06,1.49,0,.02-.01.03-.02.05h-.03c.04-.21.06-.42.11-.62.26-1.06.81-1.96,1.57-2.74.9-.92,1.97-1.56,3.15-2.04.82-.34,1.67-.59,2.53-.8.03,0,.07-.01.11,0-2.06,1.1-3.59,2.66-4.29,4.94Z"/>
      <path class="cls-1" d="M21.37,7.19c-.47.18-.89.47-1.42.55.43-.34.9-.53,1.42-.55Z"/>
      <path class="cls-3" d="M22.33,14.17c.15.04.29.08.43.12-.06-.29-.33-.46-.8-.47.06-.11.11-.12.42-.16-.13-.19-.46-.29-.71-.19-.11.05-.2.14-.3.21-.03.02-.08.05-.1.04-.19-.08-.5.05-.58.25-.04.12-.07.25-.09.38-.01.06-.03.09-.1.08-.26-.06-.48-.19-.66-.39,0,0-.01-.02-.02-.03,0,0,0-.01,0-.02.13.03.26.04.39.08.08.02.11,0,.15-.08.04-.09.1-.17.16-.27-.4-.16-.7-.47-.93-.88.14.01.26.03.39.03.67.03,1.34-.03,1.98-.26.05-.02.13-.02.16,0,.36.28.72.56,1.1.86-.21.15-.42.2-.63.26.02.03.03.04.04.06.1.23.28.26.5.18.05-.02.1-.01.15-.03.16-.07.26,0,.35.13.19.27.38.53.58.79.07.09.05.15-.03.22-.18.16-.39.21-.62.26-.48.1-.97.08-1.46.06-.2,0-.36.08-.54.14-.02,0-.04.05-.05.07-.08.26-.28.44-.5.58-.55.35-1.27.34-1.77-.01-.27-.19-.49-.52-.55-.84.37.49.82.82,1.45.78.63-.04,1.06-.38,1.33-.96.02.04.02.05.03.07,0,.02,0,.03.01.05.12-.07.23-.16.36-.2.15-.05.27.03.36.15.18-.16.12-.35-.15-.57.23-.08.34-.02.48.3.21-.23.12-.5-.25-.77,0-.01,0-.02,0-.04Z"/>
      <path class="cls-3" d="M21.12,20.75c.26.11.52.1.78.08.84-.04,1.66.08,2.45.37.36.13.74.2,1.15.15-.04.13-.08.25-.12.37-.09.28-.22.54-.39.77-.21.29-.49.42-.85.41-.36-.01-.69-.11-1.01-.27-.5-.24-.97-.53-1.39-.88-.3-.25-.54-.55-.63-.95,0-.01,0-.02,0-.06Z"/>
      <path class="cls-3" d="M21.35,17.82c.61-.15,1.21-.33,1.82-.45.35-.07.71-.04,1.07-.05.15,0,.31.01.46,0,.2-.02.39-.07.59-.11,0-.01,0-.03,0-.04.03.06.07.11.09.17.09.26.19.52.25.78.1.42-.17.75-.63.78-.36.03-.71-.06-1.06-.13-.51-.11-1.02-.21-1.52-.31-.29-.06-.58-.14-.82-.34-.11-.09-.2-.18-.25-.3Z"/>
      <path class="cls-3" d="M25.71,19.36c.03.33.06.67-.08.98-.12.27-.34.4-.63.43-.35.03-.68-.04-1-.16-.57-.2-1.14-.4-1.7-.61-.28-.11-.53-.27-.72-.52-.04-.06-.08-.12-.14-.21.48.1.91,0,1.34-.06.59-.08,1.17-.02,1.75.1.25.05.51.07.76.08.13,0,.26-.03.41-.05Z"/>
      <path class="cls-3" d="M24.49,15.37c.09.15.18.28.25.42.1.18.2.37.28.56.08.18.04.33-.13.42-.14.08-.31.15-.47.15-.37.01-.74-.01-1.11-.03-.36-.02-.72-.04-1.08-.06-.34-.02-.69-.05-.99-.24-.08-.05-.14-.11-.23-.19.13-.05.23-.09.34-.14.75-.3,1.52-.51,2.32-.61.28-.04.55-.11.81-.29Z"/>
      <path class="cls-3" d="M18.39,22.16c.93-.24,1.83,0,2.46.81.63.83.74,1.76.36,2.73-.14.35-.39.62-.66.87-.03.03-.07.06-.1.09,0,0,0,.01-.02.03.09.01.18.02.27.03.49.07.93.22,1.27.6.23.26.32.57.35.92-.67-1.09-1.6-1.52-2.85-1.12.02-.02.04-.04.06-.05.32-.24.64-.5.9-.81.45-.54.58-1.16.48-1.85-.08-.61-.35-1.13-.79-1.55-.45-.44-.98-.7-1.62-.69-.03,0-.07,0-.1,0Z"/>
      <path class="cls-3" d="M21.27,22.51c.18.09.35.18.52.25.49.21.98.41,1.46.63.23.1.43.25.64.45-.53.15-1.03.1-1.5-.1-.54-.24-.91-.65-1.11-1.23Z"/>
      <path class="cls-3" d="M17.4,27.21c-.02.27-.11.51-.29.72.11-.44,0-.85-.18-1.25-.22-.5-.25-1.01-.04-1.53,0-.02.02-.04.03-.06,0,0,.01,0,.03-.02,0,.06,0,.1,0,.15-.02.36.07.7.23,1.03"/>
      <path class="cls-3" d="M19.33,5.43c.32-.25.71-.21.98.12-.16-.04-.32-.09-.48-.11-.16-.02-.33,0-.5,0Z"/>
    </g>
  </g>
</svg>