<?xml version="1.0" encoding="UTF-8"?>
<svg id="Layer_1" data-name="Layer 1" xmlns="http://www.w3.org/2000/svg" viewBox="0 0 30 30">
  <defs>
    <style>
      .cls-1 {
        fill: #5cbc77;
      }

      .cls-1, .cls-2, .cls-3, .cls-4, .cls-5 {
        stroke-width: 0px;
      }

      .cls-1, .cls-2, .cls-3, .cls-5 {
        fill-rule: evenodd;
      }

      .cls-2 {
        fill: #1d1d1d;
      }

      .cls-3 {
        fill: #231f20;
      }

      .cls-3, .cls-5 {
        opacity: .2;
      }

      .cls-4, .cls-5 {
        fill: #fff;
      }
    </style>
  </defs>
  <circle class="cls-4" cx="15" cy="15" r="15"/>
  <g>
    <path class="cls-2" d="M27.55,21.63c-.06-.11-.08-.25-.08-.42.01-4.39,0-8.77.01-13.15,0-.3-.08-.46-.35-.61-.91-.5-1.81-1.03-2.71-1.56-3.03-1.75-6.06-3.5-9.08-5.26-.16-.09-.28-.08-.43,0-3.91,2.27-7.81,4.53-11.73,6.78-.3.17-.4.36-.4.69.01,4.46,0,8.93.01,13.39,0,.06-.02.11-.04.15,0,.11.01.21.01.32.17.08.33.17.49.28.01,0,.02,0,.03,0,3.82,2.22,7.64,4.43,11.52,6.67.08.01.17.02.24.04.15-.05.31-.09.47-.12,1.98-1.14,3.93-2.27,5.87-3.39,1.88-1.09,3.77-2.18,5.64-3.28.06-.03.11-.04.16-.06.11-.16.23-.32.36-.48,0,0,0,0,0,0ZM14.98,28.14v.44c-3.92-2.27-7.79-4.5-11.65-6.73-.15-.09-.22-.18-.22-.36,0-4.44,0-8.87,0-13.31l.04-.15c.75.44,1.48.86,2.2,1.29,3.07,1.81,6.14,3.62,9.22,5.41.3.18.42.36.42.72-.01,4.23,0,8.46,0,12.69ZM14.87,14.55c-3.75-2.21-7.5-4.41-11.25-6.61-.1-.06-.19-.12-.33-.21,1.59-.92,3.13-1.8,4.67-2.69,2.26-1.31,4.52-2.62,6.78-3.93.21-.12.39-.24.68-.07,3.78,2.21,7.57,4.39,11.35,6.58l.2.13c-.84.49-1.65.97-2.47,1.45-3.04,1.78-6.08,3.56-9.12,5.36-.2.12-.32.11-.52,0ZM26.89,21.88c-3.81,2.2-7.62,4.4-11.44,6.6l-.16.08v-6.13c0-2.37,0-4.73,0-7.1,0-.24.05-.39.28-.52,3.81-2.23,7.61-4.47,11.42-6.7l.17-.07v3.39c0,3.31,0,6.62,0,9.93,0,.25-.06.4-.28.52Z"/>
    <path class="cls-1" d="M3.29,7.72c1.59-.92,3.13-1.8,4.67-2.69,2.26-1.31,4.52-2.62,6.78-3.93.21-.12.39-.24.68-.07,3.78,2.21,7.57,4.39,11.35,6.58l.2.13c-.84.49-1.65.97-2.47,1.45-3.04,1.78-6.08,3.56-9.12,5.36-.2.12-.32.11-.52,0-3.75-2.21-7.5-4.41-11.25-6.61-.1-.06-.19-.12-.33-.21"/>
    <path class="cls-1" d="M14.98,28.58c-3.92-2.27-7.79-4.5-11.65-6.73-.15-.09-.22-.18-.22-.36,0-4.44,0-8.87,0-13.31l.04-.15c.75.44,1.48.86,2.2,1.29,3.07,1.81,6.14,3.62,9.22,5.41.3.18.42.36.42.72-.01,4.23,0,8.46,0,12.69v.44"/>
    <path class="cls-1" d="M15.29,28.56v-6.13c0-2.37,0-4.73,0-7.1,0-.24.05-.39.28-.52,3.81-2.23,7.61-4.47,11.42-6.7l.17-.07v3.39c0,3.31,0,6.62,0,9.93,0,.25-.06.4-.28.52-3.81,2.2-7.63,4.4-11.44,6.6l-.16.08"/>
    <path class="cls-5" d="M14.98,28.58c-3.92-2.27-7.79-4.5-11.65-6.73-.15-.09-.22-.18-.22-.36,0-4.44,0-8.87,0-13.31l.04-.15c.75.44,1.48.86,2.2,1.29,3.07,1.81,6.14,3.62,9.22,5.41.3.18.42.36.42.72-.01,4.23,0,8.46,0,12.69v.44"/>
    <path class="cls-3" d="M15.29,28.56v-6.13c0-2.37,0-4.73,0-7.1,0-.24.05-.39.28-.52,3.81-2.23,7.61-4.47,11.42-6.7l.17-.07v3.39c0,3.31,0,6.62,0,9.93,0,.25-.06.4-.28.52-3.81,2.2-7.63,4.4-11.44,6.6l-.16.08"/>
  </g>
</svg>