<?xml version="1.0" encoding="UTF-8"?>
<svg id="Layer_1" data-name="Layer 1" xmlns="http://www.w3.org/2000/svg" viewBox="0 0 34.02 34.02">
  <defs>
    <style>
      .cls-1, .cls-2, .cls-3 {
        stroke-width: 0px;
      }

      .cls-2 {
        fill: #999;
      }

      .cls-3 {
        fill: #fff;
      }
    </style>
  </defs>
  <circle class="cls-2" cx="17.01" cy="17.01" r="17.01"/>
  <polygon class="cls-3" points="17.7 12.65 16.54 17.39 10.26 17.54 10.26 16.85 12.16 16.05 14.11 15.48 15.07 13.32 17.7 12.65"/>
  <g id="m8ZGTM.tif">
    <g>
      <path class="cls-3" d="M24,28.1c.11-.07.19-.13.28-.19.75-.52,1.14-1.26,1.2-2.16.03-.34,0-.69-.06-1.02-.08-.47-.21-.92-.32-1.38-.13-.49-.27-.98-.39-1.47-.08-.31-.12-.63-.17-.95-.05-.3-.1-.6-.11-.91-.04-.77.02-1.53-.07-2.3-.02-.19-.04-.39-.07-.58-.07-.4-.19-.79-.23-1.19-.03-.35-.01-.69.1-1.01.12-.35.29-.68.44-1.02.23-.5.37-1.02.29-1.56-.05.19-.09.4-.16.6-.12.35-.36.63-.59.92-.24.32-.4.67-.42,1.08,0,.18-.03.35-.04.54-.11-.29-.11-.59-.06-.88.06-.35.24-.65.44-.93.26-.37.5-.76.52-1.24.01-.31.02-.62-.02-.92-.05-.42-.24-.81-.44-1.18-.04-.08-.09-.15-.14-.23.03.29.07.57.08.86.01.24-.08.69-.17.82.16-1.23-.3-2.25-1.08-3.19.08.22.15.4.21.59.05.18.09.38.13.56-.38-1-.97-1.79-1.97-2.22.13.16.28.3.41.46.7.86.89,1.85.76,2.92-.04.3-.11.59-.17.88-.02.1-.05.2-.08.31,0,0-.02,0-.03,0-.03-.49.05-.98-.05-1.47-.02.1-.02.2-.04.29-.08.32-.17.65-.25.97-.08.33-.18.66-.21,1-.05.6.09,1.17.43,1.68.04.06.07.13.11.2-.21-.1-.41-.19-.6-.29,0,.01-.01.02-.02.03.01.02.03.04.04.05.22.2.44.41.65.61.35.33.68.67.96,1.06.41.56.58,1.19.59,1.87.01.76.03,1.53.04,2.29,0,.53.11,1.05.21,1.57.08.39.18.78.27,1.18.1.44.2.88.29,1.32.09.44.15.87.06,1.32-.11.54-.37.98-.81,1.31-.4.3-.86.44-1.33.54-.56.12-1.12.15-1.69.15-.69,0-1.37-.03-2.06-.05-.32-.01-.65-.03-.97-.07-.49-.06-.99-.13-1.48-.22-.51-.09-1.02-.19-1.52-.29-.62-.12-1.23-.26-1.85-.38-.37-.07-.74-.02-1.1.09-.53.16-.95.48-1.31.89-.06.07-.12.14-.18.2.3-.58.77-.98,1.34-1.27-.26.07-.52.15-.76.26-.54.26-1.02.59-1.39,1.08-.02.02-.05.04-.08.05-.35.1-.71.2-1.06.3-.12.03-.23.09-.34.13,0,.01,0,.02,0,.03.04,0,.07,0,.11.01.35,0,.7.01,1.04.01,3.61,0,7.22,0,10.83,0,2.06,0,4.12,0,6.18,0,.06,0,.12,0,.18,0,.02,0,.04-.03.06-.04-.01-.02-.02-.04-.04-.06-.02-.01-.05-.02-.07-.02-.15-.03-.3-.06-.45-.08-.35-.05-.69-.1-1.04-.14-.25-.03-.5-.06-.77-.1ZM16.1,27.12c.25.04.51.08.77.13.1.02.13-.01.14-.1.06-.38.2-.72.48-.99.06-.06.14-.11.21-.17-.3-.23-.61-.22-1.06.03-.36.19-.61.71-.54,1.11ZM12.2,26.52c.06,0,.12,0,.17,0,.22,0,.43,0,.65,0,.07,0,.1-.01.13-.08.12-.27.29-.5.53-.68.05-.04.09-.07.14-.11-.62-.34-1.47,0-1.62.87ZM13.27,12.79c.09-.22.18-.46.28-.69.11-.24.3-.42.51-.6-.56.18-.86.55-.79,1.28Z"/>
      <path class="cls-1" d="M10.27,18.24c-.28,0-.55.06-.78.25-.03.03-.04.09-.04.13,0,.06,0,.12.01.18,0,.2-.1.3-.3.31-.07,0-.17,0-.21.05-.07.1-.08.23-.05.35.05.18.18.31.31.43.04.03.07.06.11.1,0,.01-.01.03-.02.04-.13-.05-.27-.08-.39-.15-.42-.25-.65-.62-.68-1.11-.02-.32.16-.62.44-.7.06-.02.13-.02.19-.01.3.01.55-.14.78-.3,0,0,0-.01,0-.03-.18-.08-.37-.13-.57-.12-.04,0-.08.05-.11.08-.04.04-.07.1-.12.14-.15.14-.28.15-.44.03-.1-.07-.16-.06-.25,0-.19.12-.24.31-.28.52,0,.03,0,.06-.03.09-.02-.04-.05-.08-.06-.12-.12-.5.05-1.13.57-1.4.19-.1.35-.08.51.06.02.02.04.04.07.04.19.02.38.04.57.06.18.02.34-.04.5-.14-.08-.06-.15-.12-.23-.17-.03-.02-.08-.02-.12-.01-.25.06-.32.02-.43-.21-.01-.03-.06-.06-.09-.06-.16,0-.31.04-.42.17-.03.03-.06.06-.11.08.03-.17.11-.3.23-.42.29-.27.63-.36,1.02-.3.13.02.19.08.2.21.02.23.36.45.57.35.16-.07.3-.16.45-.24.05-.02,1.04-.31,1.11-.34-.29.31-1.52.87-1.81,1.18.18-.09.34-.15.49-.24.4-.25.84-.3,1.29-.34.39-.03.78-.08,1.17-.12.22-.02.44-.04.66-.06.24-.03.49-.07.73-.09.19-.02.39-.03.58-.05.01,0,.03,0,.06-.01-.05-.07-.1-.14-.15-.2,0,0,.01-.02.02-.02.23.09.39.3.61.42-.3-.54-.3-1.11-.15-1.68.15-.57.44-1.06.89-1.46-.41.14-.76.37-.98.76-.01,0-.02-.01-.03-.02.07-.18.14-.37.21-.55,0,0-.01-.01-.02-.02-.1.1-.22.2-.3.31-.24.3-.37.66-.42,1.04-.04.28-.05.57-.07.85,0,.03,0,.05,0,.08-1.52.38-2.1.38-3.09.43-.02-.23.02-.47-.07-.71-.04.04-.06.07-.07.07-.13-.36-.26-.73-.4-1.09-.01,0-.02,0-.04,0-.05.09-.09.18-.14.27,0,0-.01,0-.02,0v-.54c-.06.03-.12.07-.18.08-.11,0-.23.01-.34-.01-.18-.04-.34.05-.35.23-.01.14-.02.28-.15.38-.01,0-.02.03-.02.04.01.14-.09.19-.19.2-.39.06-.78.1-1.14-.14-.22-.15-.36-.36-.44-.61,0-.01,0-.03,0-.07.06.06.1.11.15.15.15.16.33.25.54.26.1,0,.19,0,.21-.13.03-.13.13-.19.25-.21.14-.03.23-.07.24-.25,0-.11.1-.22.16-.35-.13-.32-.38-.53-.78-.55-.11,0-.18.03-.22.14-.05.16-.15.27-.33.26-.07,0-.14-.05-.22-.07-.05-.01-.1-.03-.14,0-.15.06-.24.2-.26.36-.02.16,0,.32,0,.49,0,0-.02.01-.03.02-.06-.1-.14-.19-.17-.29-.17-.52-.13-1.02.27-1.43.16-.17.37-.24.61-.25.12,0,.2.08.26.18.02.03.07.06.1.06.22.04.44.08.66.12.13.02.26.03.42.05-.04-.1-.07-.18-.11-.25-.12-.19-.19-.41-.39-.54-.08-.05-.14-.07-.24-.03-.23.08-.45.04-.54-.22-.06-.18-.19-.24-.42-.18-.23.06-.4.22-.54.42-.03.04-.05.07-.07.11l-.04-.02c.04-.13.08-.27.13-.4.17-.36.46-.58.83-.68.3-.08.61-.12.89.08.1.07.17.16.18.29,0,.06.03.08.09.09.06.02.12.06.16.11.09.13.16.27.25.4.03.05.08.1.13.15.15-.16.22-.33.21-.53,0-.12-.09-.19-.2-.22-.18-.06-.2-.09-.18-.27.02-.2-.05-.28-.25-.3-.08,0-.17,0-.25,0-.08,0-.17.01-.26,0,.07-.05.14-.1.22-.14.22-.1.46-.14.71-.14.19,0,.35.06.48.19.11.12.22.25.31.38.03.05.04.15.01.2-.04.09-.03.12.05.17.18.12.24.28.16.46-.03.06-.09.12-.15.16-.16.1-.22.24-.23.42,0,.09.02.17.1.2.44.19.68.57.97.93.32.4.68.77,1.04,1.14.2.21.41.4.63.59-.06-.14-.12-.28-.17-.42-.21-.5-.28-1.02-.23-1.56.05-.51.24-.97.58-1.35.28-.31.6-.58.9-.87.02-.02.05-.03.07-.06-.35.05-.7.16-1.05-.07.4-.06.72-.21,1.03-.46-.07-.03-.12-.06-.19-.09.45-.09.76-.33.91-.74.1-.25.13-.7-.17-.9-.14-.09-.3-.16-.47-.2-.24-.05-.49-.07-.73-.1,0-.01,0-.02,0-.03.18-.09.37-.17.57-.27-.26-.12-.5-.19-.76-.16-.11.01-.22.04-.33.07-.21.05-.28.29-.26.47.03.21.12.39.28.54.03.03.06.07.09.1l-.02.03c-.06-.02-.11-.05-.17-.07-.45-.19-.76-.5-.93-.95-.08-.21-.1-.44-.06-.66.03-.16.06-.32.1-.48.05-.21.19-.34.4-.4.3-.1.61-.18.93-.17.01,0,.02,0,.03,0,.2,0,.21-.03.13-.21-.01-.03-.02-.06-.03-.1.1,0,.2.04.26.01.05-.03.06-.14.1-.22.03.03.06.07.09.1,1.08-.7,2.27-.83,3.52-.71-.38.08-.76.15-1.15.23,0,.01,0,.03,0,.04.1-.01.2-.03.3-.03.24,0,.49-.01.73,0,.3.01.59.05.88.07.14,0,.28,0,.42,0,.02,0,.04,0,.06,0,0,.01,0,.02.01.04-.29.14-.58.29-.88.43.56.26,1.17.42,1.56.99-.23-.09-.43-.16-.63-.24.36.46.79.87,1.07,1.4l-.39-.3c.31.44.54.92.75,1.45-.26-.24-.5-.45-.74-.66,0,0-.01.01-.02.02.26.53.51,1.07.54,1.68-.15-.19-.29-.38-.44-.57,0,0-.02,0-.03.01.1.47.25.93.2,1.45-.13-.25-.24-.48-.36-.7h-.03c.06.46.12.92.17,1.37h-.03c-.09-.13-.18-.26-.28-.4.06.53.22,1.03.47,1.51-.07-.06-.15-.12-.22-.18-.08-.07-.15-.14-.21-.22-.06-.08-.1-.17-.16-.26-.03.33.11,1.28.75,2.15-.12-.07-.25-.14-.37-.22-.12-.08-.24-.17-.38-.27.02.15.02.29.05.43.11.57.3,1.11.58,1.62.26.47.54.92.83,1.37.62.97,1.28,1.92,1.78,2.96.33.69.6,1.41.79,2.15.11.43.15.86.14,1.3,0,.09.02.16.07.24.22.32.36.68.36,1.07,0,.43-.16.81-.44,1.14-.33.38-.77.58-1.25.7-.45.12-.9.19-1.37.2-.5.01-.99.03-1.49.02-.41,0-.81-.03-1.23-.05,0-.39.11-.73.29-1.06-.18.1-.31.26-.38.44-.07.18-.11.38-.17.59-.34-.04-.68-.07-1.04-.11,0-.27.07-.51.18-.73.15-.31.38-.55.68-.7.23-.12.47-.1.71-.04.4.09.81.18,1.22.26.08.02.16.02.24.01.14,0,.22-.11.14-.23-.07-.11-.17-.24-.29-.3-.36-.18-.74-.35-1.12-.49-.54-.21-1.08-.39-1.62-.58-.04-.01-.08-.02-.15-.04.09.5.4.87.58,1.33-.13-.02-.25-.04-.37-.05-.44-.03-.85.08-1.2.34-.23.17-.33.41-.36.69,0,.1-.02.2-.02.3-.84-.18-1.67-.35-2.53-.53.05-.11.08-.22.14-.31.16-.28.36-.52.68-.62.23-.07.43-.03.64.07.23.1.47.18.73.16.13-.01.28-.07.38-.15.19-.14.21-.31.06-.5-.15-.18-.31-.35-.47-.51-.42-.43-.86-.84-1.28-1.28-.36-.39-.59-.85-.56-1.4.02-.31.14-.59.28-.86.01-.02.06-.04.09-.03.27.04.55.07.81.12.42.09.83.2,1.24.3.07.02.09.04.11.11.07.22.17.44.26.66.01,0,.03,0,.04-.01-.01-.15-.02-.3-.04-.45-.04-.4.01-.78.13-1.16,0,0,0-.01,0-.02.07-.26.07-.27.34-.23.38.05.77.09,1.14.19.61.17,1.22.36,1.82.58.5.18.99.41,1.48.61.09.04.18.08.27.12,0,0,.01-.01.02-.02-.04-.04-.08-.07-.12-.11-.87-.69-1.85-1.18-2.91-1.51-.47-.14-.95-.27-1.43-.38-.39-.1-.73-.31-1.06-.53-.56-.36-1.12-.75-1.67-1.13-.02-.01-.04-.02-.06-.03l-.02.02c.1.13.2.26.31.38.11.12.23.23.35.35-.49-.21-.93-.5-1.33-.85,0,0-.02.02-.03.03.16.2.32.4.5.63-.15-.09-.28-.16-.4-.25-.24-.17-.48-.35-.71-.54-.31-.24-.67-.26-.95-.04-.08.07-.14.16-.22.25-.02-.15.02-.32-.08-.49-.11.19-.23.35-.31.53-.08.16-.02.32.18.36.28.06.31.26.32.48.01.25-.12.44-.3.6-.2.19-.44.22-.69.14-.05-.02-.09-.06-.14-.09,0,0,0-.02,0-.03.02,0,.05,0,.07-.01.08,0,.15,0,.22-.03.13-.04.13-.09.11-.23-.02-.13,0-.27,0-.41-.28-.03-.28-.28-.37-.45-.15.11-.25.41-.19.59.02.06.03.12.06.17.03.09,0,.15-.06.2-.11.08-.21.16-.18.32.03.17.12.3.28.38.06.03.13.06.19.11-.07.01-.14.04-.2.04-.43-.01-.81-.14-1.06-.53-.11-.17-.15-.34-.09-.54.04-.12.09-.21.2-.26.06-.03.14-.06.19-.11.06-.06.13-.13.14-.21.03-.17.04-.35.06-.54ZM15.95,10.92s-.01-.02-.02-.03c-.03.01-.06.02-.09.03-.15.07-.31.13-.46.2-.48.23-.88.54-1.11,1.03-.18.38-.2.76-.09,1.16.06-.4.12-.8.37-1.16,0,.09-.01.17-.02.24.36-.61.87-1.06,1.42-1.48ZM15.07,6.9c.12.22.34.33.58.29.27-.04.53-.3.58-.62-.37.18-.74.32-1.16.32Z"/>
      <path class="cls-1" d="M24,28.1c.27.03.52.06.77.1.35.05.69.09,1.04.14.15.02.3.05.45.08.03,0,.05.01.07.02.02.01.03.04.04.06-.02.01-.04.04-.06.04-.06,0-.12,0-.18,0-2.06,0-4.12,0-6.18,0-3.61,0-7.22,0-10.83,0-.35,0-.7,0-1.04-.01-.04,0-.07,0-.11-.01,0-.01,0-.02,0-.03.11-.04.22-.1.34-.13.35-.1.71-.2,1.06-.3.03,0,.07-.03.08-.05.37-.48.85-.82,1.39-1.08.24-.12.5-.19.76-.26-.57.29-1.04.69-1.34,1.27.06-.07.12-.14.18-.2.36-.4.78-.73,1.31-.89.36-.11.73-.16,1.1-.09.62.11,1.23.25,1.85.38.51.1,1.01.2,1.52.29.49.08.99.16,1.48.22.32.04.65.06.97.07.69.03,1.37.06,2.06.05.57,0,1.13-.04,1.69-.15.48-.1.94-.24,1.33-.54.44-.33.7-.77.81-1.31.09-.45.02-.89-.06-1.32-.09-.44-.19-.88-.29-1.32-.09-.39-.2-.78-.27-1.18-.1-.52-.21-1.04-.21-1.57,0-.76-.03-1.53-.04-2.29,0-.68-.18-1.31-.59-1.87-.28-.39-.61-.73-.96-1.06-.22-.2-.44-.41-.65-.61-.02-.01-.03-.03-.04-.05,0-.01.01-.02.02-.03.19.09.39.19.6.29-.04-.07-.07-.14-.11-.2-.34-.51-.48-1.07-.43-1.68.03-.34.13-.67.21-1,.08-.32.17-.65.25-.97.02-.09.02-.19.04-.29.09.49.02.98.05,1.47,0,0,.02,0,.03,0,.03-.1.06-.2.08-.31.06-.29.13-.59.17-.88.13-1.07-.06-2.07-.76-2.92-.13-.16-.28-.3-.41-.46,1,.43,1.59,1.22,1.97,2.22-.04-.19-.08-.38-.13-.56-.06-.19-.13-.37-.21-.59.78.94,1.25,1.96,1.08,3.19.08-.13.18-.59.17-.82-.02-.28-.05-.57-.08-.86.05.08.09.16.14.23.2.37.39.76.44,1.18.04.3.03.61.02.92-.02.47-.26.86-.52,1.24-.2.29-.39.58-.44.93-.05.29-.05.59.06.88.02-.19.03-.36.04-.54.02-.41.18-.76.42-1.08.22-.29.47-.57.59-.92.07-.2.11-.41.16-.6.09.54-.06,1.05-.29,1.56-.15.34-.32.67-.44,1.02-.11.32-.13.67-.1,1.01.04.41.16.8.23,1.19.03.19.05.38.07.58.09.76.03,1.53.07,2.3.02.3.07.61.11.91.05.32.09.64.17.95.12.49.26.98.39,1.47.12.46.24.92.32,1.38.06.34.09.69.06,1.02-.07.9-.45,1.64-1.2,2.16-.08.06-.17.11-.28.19Z"/>
      <path class="cls-1" d="M16.1,27.12c-.07-.4.18-.92.54-1.11.46-.24.76-.25,1.06-.03-.07.06-.14.11-.21.17-.28.27-.43.61-.48.99-.01.09-.04.12-.14.1-.26-.05-.52-.09-.77-.13Z"/>
      <path class="cls-1" d="M12.2,26.52c.15-.86.99-1.2,1.62-.87-.05.04-.1.07-.14.11-.24.18-.41.41-.53.68-.03.06-.06.08-.13.08-.22,0-.43,0-.65,0-.05,0-.11,0-.17,0Z"/>
      <path class="cls-1" d="M13.27,12.79c-.07-.73.23-1.1.79-1.28-.21.18-.4.35-.51.6-.1.23-.19.47-.28.69Z"/>
      <path class="cls-3" d="M15.95,10.92c-.55.42-1.06.87-1.42,1.48,0-.07.01-.15.02-.24-.25.36-.31.76-.37,1.16-.11-.4-.09-.79.09-1.16.24-.49.63-.8,1.11-1.03.15-.07.31-.13.46-.2.03-.01.06-.02.09-.03,0,0,.01.02.02.03Z"/>
      <path class="cls-3" d="M15.07,6.9c.42,0,.79-.14,1.16-.32-.06.31-.32.58-.58.62-.24.03-.45-.07-.58-.29Z"/>
    </g>
  </g>
</svg>