<?xml version="1.0" encoding="UTF-8"?>
<svg id="Layer_1" data-name="Layer 1" xmlns="http://www.w3.org/2000/svg" viewBox="0 0 34.02 34.02">
  <defs>
    <style>
      .cls-1, .cls-2, .cls-3 {
        stroke-width: 0px;
      }

      .cls-2 {
        fill: #fff;
      }

      .cls-3 {
        fill: #0096ff;
      }
    </style>
  </defs>
  <circle class="cls-3" cx="17.01" cy="17.01" r="17.01"/>
  <circle class="cls-2" cx="18.22" cy="11.97" r="1.21"/>
  <g id="nLYqCR.tif">
    <path class="cls-1" d="M21.79,24.23c.07.08.08.18.05.28-.05.18-.17.31-.33.39-.42.2-.95.05-1.25-.34-.54-.7-.25-1.73.58-2.09.42-.18.86-.17,1.3-.08.58.12,1.07.41,1.46.87.01.02.02.04.04.08.05-.11.09-.19.12-.27.34-.75.93-1.21,1.7-1.46.34-.11.69-.17,1.05-.15.78.05,1.42.36,1.87,1.02.5.73.46,1.69-.08,2.39-.32.41-.74.69-1.18.95-.38.22-.76.45-1.11.7-.51.36-.82.88-1.11,1.42-.24.45-.48.89-.88,1.22-.26.22-.55.4-.9.43-.15.01-.28-.02-.39-.13-.1-.1-.11-.27-.02-.38.1-.12.28-.14.4-.06-.04.03-.09.06-.13.1-.08.08-.05.21.06.22.1.01.21,0,.3-.03.37-.15.66-.42.86-.76.17-.3.32-.61.46-.93.35-.83.9-1.48,1.67-1.95.33-.2.67-.41.95-.68.25-.25.46-.54.51-.91.08-.55-.18-1.04-.72-1.3-.99-.5-2.2-.06-2.65.95-.19.43-.12.83.22,1.17.2.2.42.37.67.51.02,0,.03.02.06.04-.22.02-.54-.13-.99-.43,0,.09-.02.17-.02.26,0,.1-.05.16-.15.18-.03,0-.07.04-.09.08-.03.09-.07.18-.08.28,0,.07.01.15.04.21.05.1.06.18,0,.27-.05.08-.09.17-.14.25-.05.08-.12.1-.19.04-.1-.09-.16-.05-.23.03-.06.08-.14.15-.21.22-.05.05-.06.09-.03.16.11.24.09.29-.13.43-.01,0-.02.01-.04.02-.21.12-.21.13-.35-.07-.04-.06-.07-.07-.13-.03-.08.05-.17.09-.25.13-.06.03-.08.07-.08.14.02.3,0,.31-.28.39-.2.05-.21.05-.28-.15-.01-.03-.02-.06-.03-.09-.02-.06-.05-.08-.11-.06-.02,0-.05.01-.07.01-.24.04-.24.04-.26.28,0,.1-.06.14-.15.15-.08,0-.17,0-.25,0-.16,0-.19-.03-.2-.19,0-.03,0-.06,0-.09,0-.08-.04-.13-.12-.14-.02,0-.03,0-.05,0q-.22-.03-.29.17c-.05.13-.08.14-.21.11-.02,0-.05-.01-.07-.02-.26-.07-.3-.12-.26-.39.01-.08,0-.12-.08-.16-.21-.11-.21-.12-.34.08-.19.27-.46.44-.74.59-.29.16-.59.29-.81.53-.11.12-.2.26-.27.41-.09.19-.07.38.08.56-.13-.02-.25-.16-.28-.32-.05-.34.08-.63.32-.84.24-.21.51-.4.76-.59.2-.15.39-.32.49-.56.05-.13.08-.26-.03-.38-.06-.07-.12-.09-.21-.04-.05.03-.1.06-.15.1-.06.04-.11.03-.14-.02-.07-.08-.13-.17-.19-.26-.02-.02,0-.07,0-.1.01-.03.04-.05.07-.08.16-.15.15-.29-.02-.43-.01-.01-.04-.02-.06-.01-.02,0-.04.02-.06.03-.08.03-.18.13-.25.06-.08-.08-.13-.21-.18-.32,0-.02.02-.06.04-.08.07-.06.15-.13.23-.18.06-.04.08-.08.06-.15,0,0,0,0,0-.01-.05-.24-.06-.24-.29-.18-.13.04-.16.02-.21-.11-.01-.03-.02-.06-.02-.09-.03-.15,0-.21.15-.26.01,0,.03,0,.04-.01q.21-.06.16-.3c-.06,0-.13.02-.2.03-.13.01-.18-.03-.18-.16,0-.02,0-.03,0-.05,0-.19.02-.21.21-.22.03,0,.07,0,.1,0,.03-.02.08-.05.08-.08.01-.09,0-.19,0-.28-.1-.03-.21-.05-.31-.09-.42-.18-.68-.51-.83-.93-.2-.62-.09-1.2.19-1.77.19-.38.39-.75.52-1.15.28-.86.25-1.71-.18-2.53-.08-.15-.2-.28-.31-.42h-.05c-.03.13-.07.24-.09.36,0,.01.02.04.04.05.12.04.25.07.37.11.02,0,.05.02.05.04.06.13-.05.4-.19.46-.1.04-.19.02-.26-.06-.05-.05-.09-.11-.13-.17-.02,0-.03.01-.05.02-.05.12-.1.23-.14.35,0,.02.03.06.05.07.1.06.2.1.3.16.07.04.09.1.06.18-.05.1-.1.19-.15.28-.04.06-.1.07-.16.03-.08-.05-.15-.09-.23-.15-.05-.03-.08-.03-.11.02-.06.1-.11.19-.16.29-.01.03,0,.07.01.1.12.27.09.39-.16.57-.03.03-.06.08-.07.12-.18.73-.11,1.44.2,2.12.19.4.38.8.56,1.2.07.15.1.32.14.48.02.07.03.14.12.15.02,0,.04.02.06.04.12.11.2.41.15.56-.05-.04-.1-.09-.16-.13-.08-.05-.12-.03-.12.07,0,.03,0,.07,0,.1-.02.15,0,.27.11.4.17.21.18.46.18.72,0,.12-.02.23-.02.35,0,.08,0,.17,0,.25.03.18.09.23.26.24-.07.11-.23.12-.34.02-.11-.1-.14-.23-.14-.36,0-.16.01-.32,0-.48,0-.13-.08-.23-.22-.3-.05.13-.09.26-.13.38,0,.03.03.08.06.11.09.07.11.15.06.24-.04.08-.09.17-.13.25-.04.08-.1.1-.18.04-.13-.09-.14-.09-.23.04,0,0-.01.02-.02.03-.14.14-.16.28-.01.44.06.06.04.12-.02.17-.02.01-.03.03-.04.04-.2.2-.2.2-.42.02-.02-.02-.07-.01-.1,0-.02,0-.04.04-.06.05-.14.09-.21.19-.11.35.05.08,0,.15-.07.2-.25.16-.28.15-.42-.1,0-.02-.02-.03-.04-.06-.02,0-.05.01-.07.02-.24.09-.25.09-.19.35.02.08,0,.13-.08.15-.27.08-.25.06-.32-.15-.01-.05-.04-.13-.07-.13-.08,0-.17.03-.25.05-.01,0-.02.04-.02.06,0,.06,0,.11,0,.17,0,.13-.03.16-.16.16-.03,0-.07,0-.1,0-.08,0-.13-.03-.14-.11,0-.06-.02-.12-.03-.17,0-.07-.05-.1-.12-.11-.18,0-.19,0-.2.18,0,0,0,.01,0,.02-.01.2-.11.26-.3.17-.03-.02-.06-.06-.07-.1-.01-.05,0-.1,0-.15,0-.16-.12-.25-.28-.22-.03,0-.05.04-.07.06-.01.03,0,.07-.02.1-.03.06-.07.17-.09.16-.11-.01-.21-.06-.31-.1-.01,0-.02-.05-.02-.08,0-.04,0-.08,0-.12.02-.23,0-.25-.22-.32-.06-.02-.1,0-.13.05-.15.26-.14.23-.4.09-.02,0-.04-.02-.05-.03-.16-.11-.18-.15-.09-.33q.08-.18-.07-.32t-.25-.02c-.19.13-.23.12-.37-.07-.05-.08-.1-.16-.15-.24-.04-.06-.03-.12.02-.17.02-.02.05-.05.07-.08.11-.12.1-.29-.03-.38-.03-.02-.1-.01-.15,0-.19.05-.23.03-.28-.16-.02-.09-.04-.17-.06-.26-.03-.16,0-.21.13-.28.05-.03.13-.06.13-.1,0-.09-.02-.19-.04-.28,0-.02-.06-.03-.09-.04-.05-.01-.11,0-.15-.02-.04-.02-.08-.06-.08-.1,0-.15.02-.3.05-.45.02-.12.08-.15.21-.16.05,0,.13,0,.14-.04.04-.09.06-.18.07-.28,0-.02-.06-.05-.09-.08-.13-.08-.14-.12-.07-.25.05-.1.11-.2.17-.3.06-.1.15-.15.26-.11.1.04.15-.03.21-.09.06-.06.07-.12.03-.2-.06-.09-.03-.16.06-.22.09-.07.18-.15.28-.2.56-.27,1.11-.56,1.76-.51.73.05,1.35.3,1.77.93.44.66.37,1.54-.18,2.09-.71.71-1.91.55-2.3-.4-.17-.41-.13-.82.14-1.18.27-.37.87-.46,1.25-.21.27.18.35.55.16.77-.16.19-.41.2-.55.03-.04-.05-.07-.1-.03-.17.03.04.06.09.09.12.09.07.21.07.31,0,.11-.08.15-.23.11-.35-.07-.19-.33-.32-.55-.27-.5.1-.76.62-.56,1.1.17.4.57.63.99.56.43-.07.75-.42.8-.85.08-.77-.55-1.3-1.13-1.35-.67-.06-1.19.23-1.6.73-.72.86-.5,2.09.47,2.69.85.53,1.75.57,2.65.12.55-.28.91-.75,1.13-1.32.06-.14.08-.3.12-.45.02-.07,0-.1-.07-.12-.13-.04-.22-.13-.25-.27-.03-.13,0-.2.12-.27.13-.08.13-.08.08-.22-.03-.08-.07-.16-.11-.25-.04-.09-.12-.14-.22-.1-.17.07-.23-.05-.28-.2,0-.03.03-.08.06-.1.2-.14.18-.11.07-.31-.04-.08-.09-.16-.13-.25-.04-.09-.09-.12-.19-.08-.12.04-.17.02-.22-.1-.06-.13-.05-.16.07-.23q.14-.09.1-.25s-.02-.05-.02-.07c-.01-.11-.06-.13-.16-.1-.07.03-.11,0-.13-.07,0-.03-.02-.07-.03-.1-.02-.13-.02-.16.12-.2.1-.03.12-.08.11-.17-.01-.23,0-.47-.01-.71,0-.02,0-.05,0-.08-.19.02-.29-.1-.38-.25-.08.08-.16.15-.23.23-.02.02,0,.08.01.1.09.1.2.17.34.18.02,0,.04,0,.06.01-.12.3-.56.5-.81.16-.07-.1-.12-.11-.21-.03-.05.04-.12.08-.18.11-.06.03-.07.07-.05.14.04.13.09.24.23.28-.22.23-.45.16-.66-.2-.12.04-.24.08-.36.13-.02,0-.05.07-.04.1.04.16.09.32.29.35-.2.13-.58.06-.68-.16-.08-.17-.18-.21-.34-.15-.01,0-.03,0-.04,0-.2.02-.2.02-.15.22.04.14.08.17.3.28-.17.06-.31.03-.45-.03-.14-.07-.24-.18-.29-.34-.02-.08-.06-.1-.14-.1-.08,0-.17,0-.25,0-.06,0-.08.02-.08.08.01.15.02.3.21.36,0,0-.01.02-.02.03-.05,0-.1,0-.15-.02-.23-.05-.36-.19-.41-.42-.01-.07-.04-.09-.11-.1-.11-.01-.22-.04-.35-.06-.02.23,0,.43.23.58-.29-.04-.52-.26-.58-.54-.02-.11-.06-.16-.17-.18-.1-.01-.19-.05-.31-.07-.01.09-.02.16-.03.24,0,.08-.05.09-.11.06-.13-.06-.18-.18-.19-.31-.01-.08-.05-.11-.13-.13-.49-.12-.98-.16-1.48-.03-.85.23-1.42,1.19-1.07,2.05.29.7,1.21,1.07,1.86.73.36-.19.54-.63.39-.98-.13-.31-.47-.45-.76-.32-.32.15-.38.45-.12.7-.14,0-.22-.08-.28-.18-.12-.19-.07-.45.09-.65.32-.38.92-.36,1.27-.06.41.36.52.94.27,1.45-.33.68-1.05,1.02-1.79.96-1.27-.11-2.24-1.29-2.1-2.62.11-1.07.87-1.95,1.92-2.23.64-.17,1.28-.15,1.92-.01.48.1.96.23,1.44.31,1,.18,1.98.09,2.89-.42.62-.35,1.09-.85,1.49-1.43.35-.51.56-1.09.73-1.69,0-.02,0-.03,0-.07-.16.09-.29.19-.39.32-.01.01,0,.06.01.07.15.13.1.27.01.4-.01.02-.02.04-.03.05-.14.19-.22.2-.39.05q-.12-.11-.23.01s-.02.02-.03.03c-.09.08-.1.15-.03.26.13.21.12.22-.08.37,0,0,0,0,0,0q-.17.12-.29-.05s-.03-.06-.05-.07c-.03-.02-.08-.03-.1-.02-.07.05-.14.11-.21.16-.05.04-.04.07-.01.12.15.27.14.31-.13.46-.2.11-.23.1-.34-.1-.02-.05-.05-.1-.08-.15-.1.06-.2.1-.29.17-.02.02-.04.07-.04.1.01.07.05.14.07.22.02.07,0,.14-.06.17-.1.05-.2.09-.31.12-.03,0-.1-.04-.12-.07-.04-.07-.07-.14-.09-.22-.02-.07-.05-.08-.11-.05-.05.02-.1.03-.15.05-.13.05-.14.06-.11.19,0,.03.02.07.02.1.03.15,0,.21-.15.25-.35.08-.34.11-.42-.25-.02-.1-.07-.12-.16-.1-.25.05-.25.05-.25.3,0,.19-.03.22-.22.23-.31.02-.31.02-.34-.28-.02-.16-.03-.17-.19-.17-.26,0-.23-.05-.26.24-.02.17-.05.2-.21.19-.07,0-.13-.01-.2-.02-.16-.02-.18-.06-.19-.22,0-.03,0-.06,0-.08,0-.06,0-.16-.04-.18-.1-.05-.22-.07-.34-.09-.02,0-.05.05-.06.08-.1.29-.1.29-.39.2-.01,0-.03,0-.04-.01-.25-.08-.29-.13-.23-.38.03-.11,0-.19-.11-.23-.01,0-.02-.01-.04-.02q-.22-.12-.37.08c-.08.11-.09.12-.21.05-.11-.06-.22-.13-.31-.2-.11-.09-.12-.17-.07-.3q.09-.21-.07-.37s-.03-.03-.05-.05q-.12-.11-.25,0c-.15.12-.18.13-.31-.03-.09-.1-.16-.22-.24-.33-.07-.1-.05-.19.02-.27,0-.01.02-.02.03-.03.04-.05.13-.12.12-.15-.03-.1-.09-.19-.15-.27-.02-.03-.1-.02-.15-.01-.27.08-.29.07-.38-.2-.03-.09-.06-.18-.08-.28-.03-.14,0-.19.11-.25.2-.11.19-.11.13-.33-.03-.1-.08-.14-.19-.13-.26,0-.26,0-.26-.25,0-.12,0-.25,0-.37,0-.1.05-.15.15-.17.01,0,.02,0,.03,0,.06-.02.17-.02.18-.06.03-.09.03-.19.03-.28,0-.03-.04-.06-.07-.08-.04-.02-.08-.03-.13-.05-.08-.02-.12-.07-.1-.16.04-.17.08-.34.13-.5.03-.11.11-.16.22-.14.12.02.17-.03.2-.13,0-.02.01-.04.02-.06.06-.1.07-.18-.02-.27-.07-.06-.06-.15-.01-.23.1-.14.19-.28.29-.42.05-.07.13-.12.22-.1.02,0,.05,0,.06,0,.11-.13.21-.26.31-.39.03-.04.03-.1.06-.12.21-.18.42-.37.65-.53.06-.04.06-.08.05-.13-.08-.35-.16-.69-.23-1.04-.11-.65-.19-1.31-.12-1.97.05-.53.2-1.01.57-1.41.73-.78,2.2-.76,2.74.39.2.42.21.86.13,1.31,0,.03-.01.07-.02.1,0,0,0,.01.01.03.09-.1.17-.19.25-.29.29-.36.54-.74.68-1.18.14-.42.16-.83.03-1.25-.12-.39-.36-.66-.77-.77.28-.03.51.09.7.28.26.25.37.58.42.93.1.69-.1,1.31-.44,1.9-.27.45-.6.86-.93,1.26-.59.7-1.23,1.34-1.88,1.97-.23.22-.21.14-.09.42.34.8.81,1.52,1.49,2.08.15.12.32.22.52.29-.03-.1-.06-.18-.08-.25-.18-.65-.18-1.29.1-1.91.53-1.14,1.74-1.35,2.64-.83.79.46,1.16,1.17,1.17,2.07,0,.11.03.15.14.16.17.01.34.04.5.06.4.05.66-.29.52-.67-.04-.09-.08-.18-.13-.27-.23-.45-.1-1.04.29-1.33.09-.06.19-.11.3-.13.08-.02.12-.06.15-.13.18-.42.4-.81.68-1.17.41-.54.91-.98,1.47-1.36.71-.48,1.49-.82,2.32-1.04.76-.2,1.54-.26,2.31-.13,1.51.25,2.55,1.09,3.02,2.55.37,1.15.21,2.25-.5,3.23-.58.8-1.39,1.22-2.36,1.33-.81.09-1.55-.13-2.27-.49-.11-.05-.22-.11-.33-.16-.05-.02-.11-.06-.16-.06-.06,0-.13,0-.19.01,0,.06,0,.12.03.17.15.26.38.47.62.65.43.33.92.5,1.45.56.51.06,1.01.14,1.47.38.75.4,1.3.99,1.64,1.77.02.04.07.1.11.1.41.08.83.13,1.26.08,1-.13,1.71-.99,1.65-1.99-.02-.47-.19-.88-.56-1.18-.15-.13-.33-.21-.52-.24-.34-.06-.66.09-.8.36-.14.28-.09.64.14.88.23.24.62.3.92.14.15-.08.28-.3.17-.49,0-.01,0-.02-.01-.05.11.09.13.19.12.31-.03.28-.19.45-.44.55-.72.27-1.45-.32-1.36-1.09.07-.55.41-.92.95-1.01.44-.07.83.07,1.16.36.67.57.9,1.31.81,2.17-.05.48-.21.93-.51,1.32-.07.09-.14.17-.22.26.14.07.28.13.41.21.7.43,1.09,1.04,1.02,1.88-.05.6-.38,1.03-.9,1.33-.12.07-.25.13-.37.18-.07.03-.1.08-.1.16,0,.24-.02.26-.25.33,0,0-.02,0-.03,0-.28.08-.28.08-.41-.17-.03-.05-.06-.08-.12-.07-.08.02-.16.03-.25.03-.11,0-.15.07-.16.17-.03.21-.09.26-.31.26-.02,0-.03,0-.05,0-.26,0-.27-.01-.33-.27-.02-.09-.07-.14-.16-.14-.02,0-.04,0-.06,0-.18-.04-.33-.03-.38.2,0,.04-.09.09-.13.08-.13-.01-.27-.04-.4-.07-.1-.03-.13-.11-.13-.21,0-.19,0-.19-.18-.25,0,0-.02,0-.03,0-.23-.08-.23-.08-.37.11-.05.07-.11.09-.19.06-.12-.05-.24-.11-.35-.17-.09-.05-.15-.13-.13-.24.01-.07-.03-.1-.08-.12-.29-.15-.58-.31-.87-.46-.05-.02-.1-.05-.16-.05-.52,0-1.05.38-1.2.88-.08.28-.07.55.11.79.27.38.81.41,1.15.06.25-.26.36-.56.24-.92-.04-.12-.12-.19-.24-.23-.11-.03-.12-.09-.05-.17.09-.1.21-.12.33-.02.16.13.27.3.29.5.08.53-.1.98-.55,1.27-.44.29-.91.31-1.36.02-.39-.25-.54-.64-.53-1.1,0-.42.14-.8.42-1.12.02-.03.04-.05.06-.08-.02-.02-.03-.03-.04-.03-.55-.24-.94-.65-1.25-1.14-.24-.38-.45-.79-.67-1.18-.02-.03-.04-.07-.06-.1,0,0-.02,0-.03.01.14.34.27.68.42,1.02.21.51.42,1.02.53,1.57.17.8.12,1.58-.16,2.35-.13.37-.3.73-.46,1.09-.16.35-.31.7-.37,1.08-.15,1.01.55,2,1.56,2.19.66.12,1.29.04,1.84-.37.52-.39.82-.9.86-1.56.03-.47-.16-.87-.51-1.18-.36-.33-.77-.53-1.27-.55-.4-.02-.74.1-.97.45-.33.51-.02,1.26.56,1.4.16.04.32.02.47-.06.17-.09.23-.23.18-.42ZM7.3,11.93c-.77.78-1.13,2.07-.67,3.19.25.6.64,1.09,1.2,1.43.34.21.72.35,1.13.43,0-.04-.01-.06-.02-.08-.12-.38-.09-.75.03-1.12.13-.39.36-.71.62-1.02.04-.04.07-.09.11-.14q-.21-.13-.34.05s-.01.02-.02.02c-.04.07-.09.07-.16.03-.27-.15-.29-.21-.13-.48.01-.02.03-.06.02-.07-.07-.07-.14-.14-.22-.19-.02-.01-.09.05-.13.08-.1.09-.14.09-.22,0-.05-.05-.08-.11-.13-.16-.06-.07-.05-.12.02-.18.15-.14.15-.14.02-.3,0-.01-.02-.02-.03-.03-.04-.06-.08-.06-.14-.03-.23.13-.25.12-.37-.11,0,0,0-.02-.01-.03-.07-.14-.06-.15.06-.23.14-.09.14-.11.06-.25-.01-.02-.03-.05-.05-.07-.03-.06-.07-.06-.13-.04-.23.1-.26.08-.33-.16,0,0,0-.02,0-.03-.03-.15-.03-.16.12-.2.07-.02.11-.05.08-.13-.02-.07-.03-.14-.14-.11-.09.03-.2.07-.27-.06ZM7.85,10.1c.06-.05.09-.07.12-.09.4-.36.81-.7,1.19-1.08.5-.49.71-1.11.63-1.81-.05-.44-.37-.83-.76-.94-.47-.13-.93.01-1.23.37-.28.34-.37.73-.39,1.16-.02.42.02.84.12,1.26.09.38.2.74.31,1.14ZM11.13,13.35s.06-.03.09-.04c.34-.14.68-.3,1.04-.41.42-.14.86-.17,1.3-.15.07,0,.11,0,.11-.09,0-.63-.21-1.14-.76-1.49-.73-.47-1.65-.13-1.92.69-.16.51-.09,1,.13,1.49ZM10.44,14.99c-.15-.12-.16-.12-.29-.01-.22.18-.41.4-.56.65-.24.38-.36.78-.28,1.23.03.18.03.18.22.2.07,0,.14,0,.21,0,.6-.01,1.17-.13,1.7-.4.27-.14.52-.32.78-.48.03-.02.06-.06.06-.09,0-.13-.02-.26-.03-.39-.17-.06-.19-.05-.2.13,0,.03,0,.08-.01.1-.02.04-.07.1-.1.1-.11-.02-.23-.04-.33-.09-.09-.05-.04-.15-.03-.23,0-.02,0-.04.01-.06.03-.1-.04-.12-.11-.14-.08-.02-.07.06-.08.1-.02.05-.02.1-.05.14-.01.02-.06.06-.08.05-.11-.05-.23-.1-.32-.17-.07-.06-.02-.16.01-.23.05-.11-.04-.14-.1-.17-.09-.05-.08.05-.1.09-.02.03-.02.06-.04.1-.02.07-.06.11-.14.06-.05-.04-.12-.06-.17-.1-.1-.08-.11-.14-.06-.26.02-.04.04-.08.07-.12ZM24.63,19.32s.05.03.07.04c.42.19.87.31,1.33.37.42.06.84.05,1.25-.08.29-.09.54-.25.7-.52.13-.22.1-.47-.1-.63-.09-.07-.19-.13-.3-.16-.36-.11-.72-.06-1.08.01-.34.07-.67.13-1.01.18-.14.02-.26.03-.27.2,0,.02-.02.04-.03.06-.03.06-.02.09.05.09.16,0,.32,0,.47-.02.15-.02.3-.08.46-.12-.02.02-.03.03-.05.04-.03.02-.06.04-.1.06-.29.14-.6.21-.92.22-.03,0-.07,0-.1.01-.13.08-.26.17-.4.27ZM18.14,18.94s-.02,0-.03,0c-.01.6-.22,1.13-.5,1.65-.17.3-.34.61-.46.93-.16.42-.19.85,0,1.27.12.26.29.47.59.55.1.03.11-.04.12-.1.01-.06.07-.14-.06-.15-.13-.02-.17-.09-.15-.22.03-.16.08-.2.23-.16.09.02.14,0,.17-.09.04-.11.09-.21.13-.32.14-.37.27-.76.31-1.16.08-.71-.01-1.4-.3-2.06-.02-.05-.04-.09-.06-.14ZM17.69,12.61c.62.02,1.11-.64,1.09-1.15,0-.13-.05-.25-.15-.33-.15-.13-.34-.13-.52-.09-.47.11-.89.59-.95,1.07-.03.27.11.45.37.49.05,0,.1,0,.14.01ZM13.52,13.52c-.71-.04-1.32.13-1.91.48.04.04.07.07.1.09.14.08.29.17.44.23.43.16.89.17,1.34.11.37-.05.69-.19.95-.46.08-.09.14-.19.21-.28,0-.01-.01-.02-.02-.03-.2-.03-.39-.07-.59-.1-.07-.01-.11.01-.14.07-.2.33-.49.53-.85.63-.18.05-.36.04-.53-.03-.16-.07-.19-.22-.07-.35.06.16.11.19.29.19.26,0,.45-.13.62-.31.06-.06.09-.14.16-.24ZM24.32,16.47c-.23-.72-1.74-1.57-2.37-1.33.73.55,1.49,1.02,2.37,1.33ZM24.37,18.46s-.02-.01-.03-.01c-.38-.1-.75-.2-1.13-.3-.03,0-.07,0-.1.01-.17.08-.48-.04-.54-.22-.04-.11-.1-.18-.19-.23-.08-.05-.15-.1-.22-.15-.17-.12-.34-.24-.51-.36.06.12.13.24.22.34.4.46.88.81,1.39,1.12.2.13.42.19.66.17.24-.02.4-.15.45-.36ZM19.7,16.75c.03.08.06.15.09.23.22.52.45,1.04.8,1.49.26.33.56.61.96.76.1.04.18.02.25-.06-.81-.72-1.49-1.54-2.11-2.42Z"/>
  </g>
</svg>