<?xml version="1.0" encoding="UTF-8"?>
<svg id="Layer_1" data-name="Layer 1" xmlns="http://www.w3.org/2000/svg" viewBox="0 0 34.02 34.02">
  <defs>
    <style>
      .cls-1 {
        fill: #cd79a7;
      }

      .cls-1, .cls-2, .cls-3 {
        stroke-width: 0px;
      }

      .cls-2 {
        fill: #000;
      }

      .cls-3 {
        fill: #fff;
      }
    </style>
  </defs>
  <circle class="cls-1" cx="17.01" cy="17.01" r="17.01"/>
  <g>
    <polygon class="cls-3" points="6.74 5.69 7.01 8.69 7.69 10.91 8.8 12.97 10.31 14.72 12.15 16.13 15.29 17.51 21.36 20.1 14.57 11.06 8.56 8.25 6.74 5.69"/>
    <polygon class="cls-3" points="19.32 17.51 20.77 17.36 22.68 11.84 24.66 11.05 24.1 10.18 21.62 10.65 19.64 12.97 19.32 17.51"/>
    <polygon class="cls-3" points="12.36 24.53 13.63 25.85 14.37 25.06 17.22 23.21 19.25 21.42 14.24 21.89 12.36 24.53"/>
    <g id="kgcuCm.tif">
      <g>
        <path class="cls-2" d="M18.59,18.42c-.48.05-.9.1-1.52.17.34-.32.54-.51.74-.7-.62.13-1.23.25-1.84.37-.02-.04-.03-.09-.05-.13.22-.18.44-.37.67-.57-.66.06-1.26.12-1.87.18,0-.05-.02-.11-.03-.16.39-.22.78-.44,1.13-.64-.84.05-1.67.1-2.51.15l-.03-.25c.44-.16.88-.32,1.32-.48-1.06-.09-2.14.16-3.17-.48.9-.17,1.74-.33,2.58-.49-1.7.01-3.38.11-4.68-1.08h4.27c-2.1-.12-4.23-.08-5.75-1.94,1.6.54,3.22.87,5.09.73-2.52-.39-4.96-.57-6.21-3.02.92.45,1.81,1,2.77,1.34.94.33,1.96.46,2.96.6-2.03-.68-4.21-1.06-5.56-2.97-.24-.34-.36-.76-.46-1.2,1.91,2.03,4.38,2.78,7,3.2-.72-.25-1.45-.48-2.16-.75-1.59-.62-3.06-1.43-4.09-2.84-.48-.65-.7-1.38-.61-2.27,2.05,3.08,5.09,4.37,8.45,5.14.48.11.96.23,1.4.43.87.38,1.09,1.16,1.14,2.02.04.6-.01,1.23.11,1.81.3,1.37,1.4,1.88,2.65,2.29-1.08-1.42-.44-2.73.15-3.98.64-1.34,1.68-2.24,3.28-2.27.09,0,.18-.02.34-.04-1.91-.52-4.32,1.35-4.77,5.2-.69-.73-.41-1.46-.21-2.24-.17.23-.35.45-.52.68-.05-.03-.1-.06-.15-.09.32-.54.63-1.08.97-1.65-.22.15-.47.31-.71.47-.05-.05-.09-.11-.14-.16.47-.43.94-.86,1.45-1.32-.33.09-.63.18-1.12.32.54-.85,1.39-.84,1.99-1.3-.45.02-.9.04-1.35.06-.02-.05-.04-.11-.07-.16.75-.3,1.49-.61,2.18-.89-.06-.02-.27-.1-.48-.19,1.28-.61,2.91,0,3.7,1.38l.18-.08c-.17-.39-.34-.78-.59-1.34.53.45.95.82,1.48,1.27-.02.11-.06.41-.12.81,1.12-.87.88.21.76.24-1.07.73-.99,1.8-.87,2.86.1.92-.05,1.27-.78,1.31-.2,0-.59-.23-.57-.3.14-.81-.45-1.23-.86-1.76-.16-.2-.25-.44-.38-.66-.59.82-.53,2.07.17,3.1.25.37.55.7.81,1.06.18.24.36.5.49.77.44.91.32,1.16-.6,1.48-.13.04-.26.08-.35.29,1.12-.26,2.23-.53,3.31-.78.13.99.25,1.92.37,2.85,0,.06-.02.16-.06.2-.96.84-1.77,1.97-3.37,1.85.32-.52.24-1.4,1.28-1.01.08.03.26-.16.36-.27.14-.15.22-.35.37-.5.66-.66.71-1.02.18-2.03-.7.34-1.41.67-2.11,1.01-.57.28-1.14.51-1.52.02-.55.33-1.01.74-1.56.91-1.62.52-3.31.49-5.08.46-.36,1.67-1.7,2.33-3.25,2.67-1.13.25-1.58,1.07-1.91,2.02-.36,1.03-.89,1.93-1.78,2.7-.13-.6-.15-.98.28-1.56.69-.95,1-2.18,1.51-3.27.11-.23.34-.5.57-.56.77-.2,1.02-.53,1.11-1.37.07-.7.15-1.46.46-2.06.59-1.13,1.78-1.23,2.9-1.38.9-.13,1.83-.16,2.53-.86.1-.1.18-.21.29-.34Z"/>
        <path class="cls-2" d="M7.55,23.82c.37-.3.74-.59,1.22-.97-.75.09-1.3.15-1.86.22.55-.42,1.06-.81,1.57-1.2-.04-.05-.08-.11-.12-.16-.24.11-.47.22-.75.35.44-.61.86-1.18,1.28-1.76-.03-.03-.05-.06-.08-.09-.34.29-.67.58-.99.86.22-1.36.86-2.05,2-2.15,1.36-.12,3.86,1.34,4.24,2.5-.22-.06-1.59-.86-1.75-.91-1.05-.32-1.84.12-2.16,1.18-.13.44-.28.9-.5,1.3-.46.85-1.27,1.12-2.1.83Z"/>
        <path class="cls-2" d="M15.8,29.29c-1.16.12-1.19.09-1.09-.59-.25-.4-.43-.65-.56-.92-.35-.76-.67-1.53-1.04-2.39.26-.13.55-.3.86-.43.77-.33,1.46-.78,1.8-1.57.24-.54.54-.81,1.15-.7.27.05.56,0,.88,0-.37,1.18-1.24,1.78-2.34,2.14-1.4.45-1.55.77-.89,2.12.19.39.5.73.71,1.12.2.36.33.76.52,1.21Z"/>
        <path class="cls-2" d="M24.12,18.36c.71-.1,2.54-.27,3.23-.37.36-.05.65-.01.72.43.14.93.47,1.75,1.02,2.55.37.55.31,1.39.46,2.23-1.16-.58-1.35-.94-1.05-1.67-.6-.57-1.1-1.16-.92-2.08.12-.6-.25-.95-.86-.82-.48.1-1.89.37-2.41.53,0-.28-.18-.53-.18-.81Z"/>
      </g>
    </g>
  </g>
</svg>