<?xml version="1.0" encoding="UTF-8"?>
<svg id="Layer_1" data-name="Layer 1" xmlns="http://www.w3.org/2000/svg" viewBox="0 0 34.02 34.02">
  <defs>
    <style>
      .cls-1, .cls-2 {
        stroke-width: 0px;
      }

      .cls-2 {
        fill: #ff7518;
      }
    </style>
  </defs>
  <circle class="cls-2" cx="17.01" cy="17.01" r="17.01"/>
  <g id="lzoEyq.tif">
    <g>
      <path class="cls-1" d="M17.65,17.93c-.04.06-.09.11-.13.17-.47.6-.95,1.2-1.5,1.73-.64.61-1.4.97-2.28,1.09-.88.12-1.73.02-2.57-.24-.02,0-.04-.02-.08-.03.02,0,.03-.02.05-.02,1.22-.02,2.34-.38,3.35-1.06.85-.57,1.66-1.19,2.43-1.86.14-.12.28-.24.41-.38-.12.07-.25.14-.37.21-.9.52-1.82,1.02-2.78,1.43-.65.28-1.31.5-2.01.62-1.2.21-2.38.13-3.51-.34-.67-.28-1.27-.66-1.8-1.16-.02-.02-.04-.05-.07-.08.26.12.5.24.75.34.66.28,1.34.45,2.05.5,1.12.08,2.21-.11,3.27-.47.42-.14.83-.31,1.24-.46,0,0,0-.01.02-.03-.03,0-.05,0-.08,0-1.14.18-2.29.23-3.44.19-1.36-.05-2.65-.36-3.79-1.14-1.21-.82-2.05-1.92-2.44-3.35-.06-.21-.1-.43-.13-.65.12.2.23.41.35.61.38.63.87,1.16,1.43,1.63.85.7,1.8,1.22,2.85,1.56.81.26,1.64.41,2.49.47.89.06,1.77.02,2.66-.07.82-.09,1.63-.2,2.41-.47.26-.09.51-.21.76-.31.1-.04.12-.1.08-.21-.18-.42-.34-.85-.42-1.31-.07-.38-.11-.76-.06-1.15,0-.01,0-.02,0-.03-.35.36-.78,1.11-.54,1.88-.22-.14-.37-.7-.3-1.1.07-.4.25-.75.53-1.06,0,0-.02-.02-.02-.02-.11.08-.23.15-.34.24-.38.29-.72.6-.93,1.04-.12.27-.15.54-.06.83,0,.02,0,.03,0,.05-.16-.17-.26-.36-.29-.59-.05-.4.07-.76.3-1.08.22-.3.49-.54.79-.74.03-.02.05-.04.07-.05,0,0,0-.01.01-.04-.11.05-.2.09-.3.13-.41.18-.83.36-1.25.53-.35.14-.73.2-1.11.23-.02,0-.04,0-.09,0,.92-.45,1.77-.95,2.61-1.48-.77.2-1.5.22-2.11-.39.02,0,.04,0,.07.01.49.16.99.15,1.48.02.55-.16,1.09-.35,1.63-.53.39-.13.78-.25,1.2-.24.29,0,.55.09.79.25.06.04.14.06.21.07.25.01.49.06.7.19.17.11.3.26.35.44-.19-.01-.38-.05-.57-.03-.64.08-1.15.37-1.43.96-.15.33-.08.67.05.99.14.36.38.66.63.95.33.4.68.79.93,1.25.52.95.6,1.92.19,2.92-.27.66-.73,1.17-1.29,1.59-.37.28-.75.53-1.1.82-.38.31-.7.69-.8,1.2-.14.7.02,1.34.48,1.89.56.67,1.28.99,2.16.91.48-.04.89-.23,1.16-.64.05-.08.09-.17.14-.28.03.48-.14.84-.5,1.12.4-.11.97-.6,1.06-1.32.09-.72-.22-1.26-.95-1.6.24-.03.45,0,.64.11.49.27.75.69.79,1.24.04.6-.14,1.11-.59,1.52-.02.01-.03.03-.05.06.63-.3,1.12-1.01,1.15-1.84.03-1.25-.68-1.96-1.79-2.35,0-.01,0-.02,0-.03.18.02.37.02.54.06.94.26,1.55.87,1.78,1.82.25,1.04-.12,1.91-.87,2.62-.92.87-2.02,1.11-3.23.79-.95-.25-1.64-.85-2.1-1.72-.32-.61-.44-1.26-.39-1.94,0-.02,0-.03,0-.05,0,0,0-.01-.03-.04-.03.11-.06.2-.08.29-.29,1.23-.13,2.4.5,3.48.47.8,1.14,1.4,2,1.77.56.23,1.14.28,1.74.22.74-.08,1.41-.34,1.99-.8,1.08-.85,1.6-1.96,1.49-3.34-.04-.43-.15-.84-.32-1.24,0-.01,0-.03,0-.05.11.15.24.28.33.44.76,1.23.79,2.48.06,3.72-.66,1.12-1.69,1.74-2.93,2.03-.58.14-1.17.17-1.77.09-1.15-.14-2.14-.61-2.93-1.47-.95-1.04-1.36-2.29-1.32-3.69,0-.09.01-.19.02-.31-.27.5-.54,1.89.17,3.26-.12-.04-.42-.4-.59-.72-.14-.28-.26-.57-.39-.87,0,.04-.02.07-.02.1-.1.98.14,1.88.65,2.71.55.89,1.31,1.56,2.23,2.06.05.03.1.05.15.08,0,.01,0,.02,0,.03-.14-.02-.27-.03-.41-.06-1.49-.36-2.66-1.15-3.38-2.53-.38-.73-.49-1.52-.41-2.34.08-.79.37-1.49.78-2.16.35-.57.78-1.08,1.27-1.54.02-.02.03-.03.03-.07-.12.09-.23.17-.35.26-.52.4-1.02.82-1.42,1.34-.47.6-.81,1.27-.92,2.03,0,.02,0,.04-.01.06,0,0-.01,0-.03.02-.12-.65-.04-1.27.27-1.86l-.02-.02c-.12.12-.26.23-.37.36-.58.63-.97,1.36-1.11,2.21-.09.53-.07,1.07.03,1.6.11.63.34,1.22.64,1.78,0,.02.01.03,0,.07-.12-.13-.25-.25-.36-.39-.63-.76-1.04-1.62-1.14-2.61-.15-1.6.44-2.88,1.71-3.85.58-.45,1.25-.75,1.91-1.03,1.53-.64,2.62-1.72,3.32-3.22.16-.35.28-.71.42-1.06.01-.03.02-.06.03-.1,0,0-.01,0-.02,0ZM18.51,11.81c-.29-.17-.57-.12-.73.23.26-.03.5-.09.73-.23Z"/>
      <path class="cls-1" d="M8.33,6.24c-.04.19-.08.36-.1.53-.19,1.37.09,2.64.85,3.81.44.68.99,1.25,1.6,1.78.94.81,1.88,1.63,2.77,2.49.27.26.57.47.87.72-.11-.02-.21-.04-.31-.06-.64-.13-1.25-.39-1.84-.66-.99-.46-1.91-1.02-2.72-1.75-.82-.74-1.46-1.6-1.75-2.69-.2-.72-.2-1.44-.09-2.17.1-.67.34-1.29.67-1.88.02-.03.04-.06.07-.1Z"/>
      <path class="cls-1" d="M14.2,16.24c-1.46-.02-2.89-.25-4.28-.71-.73-.24-1.44-.53-2.11-.9-.93-.52-1.67-1.24-2.19-2.18-.36-.66-.57-1.38-.61-2.13-.04-.66,0-1.31.19-1.95.01-.04.03-.08.05-.12.01.18.01.37.03.55.11,1.16.54,2.19,1.24,3.11.68.9,1.55,1.58,2.54,2.1.64.34,1.3.64,1.96.94.78.36,1.57.7,2.36,1.04.21.09.43.14.64.21.06.02.11.04.17.06Z"/>
      <path class="cls-1" d="M20.49,16.24c.16-.05.31-.11.47-.15,1.12-.3,2.14-.78,3.04-1.52.91-.74,1.58-1.65,2.02-2.74.44-1.1.55-2.24.35-3.41-.03-.21-.08-.41-.11-.62.04.07.08.14.12.21.54,1.06.77,2.19.63,3.37-.14,1.24-.66,2.31-1.53,3.21-.73.76-1.6,1.31-2.59,1.65-.34.12-.71.18-1.07.25-.34.06-.66-.05-.98-.14-.12-.03-.24-.06-.35-.1,0,0,0-.02,0-.02Z"/>
      <path class="cls-1" d="M20.13,15.1c1.06-.84,1.55-2.01,2.04-3.18-.04.47-.13.92-.28,1.37-.15.45-.35.87-.68,1.22,0,0,.01.01.02.02.1-.1.21-.19.31-.29.98-1.04,1.64-2.27,2.01-3.65.26-.97.27-1.95.05-2.93-.11-.48-.25-.94-.48-1.38,0-.02-.01-.04,0-.07.12.14.26.28.37.44.62.82,1.03,1.73,1.14,2.76.09.81-.05,1.58-.37,2.33-.42,1-1.08,1.83-1.9,2.52-.57.48-1.24.76-1.99.82-.07,0-.14.02-.25.03Z"/>
      <path class="cls-1" d="M20.88,16.87c2.82.17,5.15-.71,6.74-3.17-.09.26-.17.53-.28.78-.62,1.4-1.65,2.39-3.02,3.04-.87.41-1.79.64-2.76.62-.13,0-.26-.01-.39-.03-.03,0-.08-.04-.08-.07,0-.39-.07-.78-.21-1.14,0,0,0-.02,0-.02Z"/>
      <path class="cls-1" d="M21.66,27.77c-.33.47-.76.79-1.32.89-1.07.2-1.95-.18-2.69-.93-.29-.3-.49-.65-.64-1.04.03.03.06.06.08.09.5.6,1.11,1.03,1.86,1.27.8.25,1.59.25,2.37-.09.12-.05.23-.12.34-.18Z"/>
      <path class="cls-1" d="M20.94,19.04c.04-.18.07-.34.11-.52.66.1,1.31.08,1.96-.04.65-.11,1.28-.3,1.89-.59-.18.25-1.01.85-1.84,1.07-.7.19-1.4.24-2.12.07Z"/>
      <path class="cls-1" d="M14.32,16.95c-1.7.17-3.32-.05-4.78-1.01,1.57.46,3.19.68,4.78,1.01Z"/>
      <path class="cls-1" d="M23.32,19.55c-.92.6-1.92.82-3.02.67.07-.09.12-.17.17-.25.09-.14.18-.27.26-.42.04-.08.09-.1.17-.07.46.17.94.24,1.43.21.31-.02.62-.08.93-.13.02,0,.04,0,.06-.01Z"/>
      <path class="cls-1" d="M24.02,13.32c-.11.2-.22.42-.35.61-.4.62-.92,1.12-1.58,1.46-.56.29-1.16.37-1.79.25,1.55-.28,2.65-1.25,3.68-2.35.01,0,.02,0,.03.01Z"/>
    </g>
  </g>
</svg>