<?xml version="1.0" encoding="UTF-8"?>
<svg id="Layer_1" data-name="Layer 1" xmlns="http://www.w3.org/2000/svg" viewBox="0 0 34.02 34.02">
  <defs>
    <style>
      .cls-1, .cls-2, .cls-3 {
        stroke-width: 0px;
      }

      .cls-2 {
        fill: #fff;
      }

      .cls-3 {
        fill: #fafa33;
      }
    </style>
  </defs>
  <circle class="cls-3" cx="17.01" cy="17.01" r="17.01"/>
  <polygon class="cls-2" points="25.03 6.98 25.03 7.8 22.78 8.12 22.04 5.71 23.31 5.49 23.81 5.71 24.95 6.42 25.03 6.98"/>
  <polyline class="cls-2" points="22.25 24.48 22.25 27.38 20.53 24.71 18.08 13.52 20.17 11.75 22.84 14.37 22.84 17.95"/>
  <g id="_3nZCvR.tif" data-name="3nZCvR.tif">
    <g>
      <path class="cls-2" d="M7.83,21.39c-.09.13-.18.23-.24.36-.3.56-.66,1.1-.87,1.69-.57,1.55.02,3.19,1.41,3.81.07.03.14.14.14.22.03.28.19.37.45.36.15,0,.3,0,.45,0,2.51,0,5.02,0,7.53,0,.27,0,.55-.02.82-.02.18,0,.24-.1.26-.26.09-.66-.29-1.33-.94-1.44-.9-.15-1.81-.18-2.72-.26-.06,0-.13,0-.27,0,1.03-.96,1.68-2.11,2.3-3.28.28-.52.71-.89,1.26-1.09.44-.16.89-.3,1.33-.44.11-.04.23-.06.36-.09.06.18.12.33.16.48.27,1.07.55,2.15.81,3.22.21.87.39,1.75.6,2.62.09.39.24.56.57.56,1.08,0,2.16,0,3.24-.02.07,0,.18-.08.19-.13.11-.63-.06-1.35-.87-1.44-.5-.05-1.02.04-1.52.11-.28.04-.32.04-.35-.25-.07-.62-.16-1.23-.21-1.85-.09-1.25-.22-2.51-.22-3.77,0-.85.21-1.7.3-2.56.09-.87.14-1.75-.18-2.6-.38-1.01-1.04-1.71-2.13-1.9-.26-.05-.54,0-.85,0,.05-.07.08-.1.1-.13.57-.56,1.38-.67,2.17-.29.9.44,1.37,1.2,1.6,2.14.24.99.06,1.95-.2,2.91-.25.9-.5,1.79-.48,2.74.02,1.07.02,2.15.06,3.22.02.66.08,1.33.13,1.99.01.16.06.26.28.24.2-.03.24-.1.24-.28.08-1.84.16-3.68.27-5.52.05-.79.28-1.52.92-2.05.42-.35.73-.79.95-1.3.04-.1.12-.22.21-.25.2-.07.22-.2.21-.37-.06-1.11-.39-2.14-.85-3.13-.15-.33-.31-.66-.44-.99-.13-.32-.15-.64.06-.94.13-.19.34-.31.55-.23.14.05.28.21.34.36.11.29.17.6.24.9q.15.59.7.31s.01-.04,0-.05c-.07-.3-.1-.62-.22-.9-.22-.51.18-.9.21-1.35,0-.1.04-.21.08-.31.03-.09.05-.19.11-.26.24-.28.25-.27,0-.54-.24-.26-.47-.53-.52-.91-.05-.46-.34-.76-.79-.77-.44-.01-.87.03-1.29.04.17-.27.5-.32.86-.38-.31-.63-.76-1.13-1.29-1.58.06-.02.09-.01.12,0,.61.35,1.06.85,1.43,1.43.04.06.1.11.15.16.02-.02.04-.03.06-.05-.08-.2-.16-.4-.25-.6-.04-.08-.09-.16-.16-.22-.25-.23-.51-.45-.76-.68.01-.02.03-.04.04-.06.15.09.3.23.47.28.35.1.51.35.63.66.07.17.11.36.19.53.06.12.15.23.23.34.03,0,.06-.02.09-.03.13-.34.3-.67.24-1.06-.02-.12-.07-.29-.23-.21-.22.1-.35,0-.51-.11-.4-.27-.81-.49-1.3-.58-1.45-.27-2.59.2-3.43,1.38-.87,1.23-1.34,2.63-1.64,4.09-.08.37-.11.69.23.95,0,0,0,.03,0,.05-.02.02-.03.04-.05.06-.84.51-1.18,1.3-1.29,2.24-.02.16-.09.34-.2.44-.49.47-.96.98-1.52,1.36-.96.65-1.98,1.21-2.96,1.82-1.06.66-2.11,1.33-3.15,2.02-.56.37-1.11.1-1.21-.55-.07-.47.05-.89.32-1.25.37-.48.77-.93,1.17-1.38.91-1.04,1.37-2.23,1.01-3.61-.17-.66-.47-1.29-.75-1.92-.32-.73-.68-1.45-.75-2.26-.05-.5-.02-1,.34-1.4.08-.09.24-.15.36-.15.45.03.89.11,1.34.13.56.02,1.07-.35,1.18-.79-.41-.29-.8-.59-1.22-.86-.22-.14-.47-.26-.72-.31-.71-.13-1.35.17-1.33.92,0,.09-.07.2-.14.27-.49.48-.69,1.09-.75,1.74-.07.73.09,1.43.38,2.1.32.75.68,1.48.97,2.24.4,1.04.27,2.03-.43,2.91-.41.52-.87,1-1.3,1.51-.61.72-.97,1.53-.86,2.51.08.67.4,1.2.92,1.64Z"/>
      <path class="cls-1" d="M7.83,21.39c-.52-.44-.84-.96-.92-1.64-.11-.98.25-1.79.86-2.51.43-.51.89-.99,1.3-1.51.7-.88.83-1.87.43-2.91-.29-.76-.65-1.49-.97-2.24-.29-.67-.45-1.37-.38-2.1.06-.66.26-1.26.75-1.74.07-.07.14-.18.14-.27-.02-.75.62-1.05,1.33-.92.25.05.5.17.72.31.41.26.81.56,1.22.86-.12.45-.62.82-1.18.79-.45-.02-.89-.1-1.34-.13-.12,0-.28.06-.36.15-.36.4-.39.9-.34,1.4.08.81.43,1.53.75,2.26.28.63.58,1.26.75,1.92.36,1.38-.1,2.56-1.01,3.61-.39.45-.8.9-1.17,1.38-.28.36-.4.79-.32,1.25.1.64.65.92,1.21.55,1.04-.7,2.09-1.36,3.15-2.02.98-.61,2.01-1.17,2.96-1.82.56-.38,1.03-.89,1.52-1.36.11-.1.18-.29.2-.44.11-.93.45-1.73,1.29-2.24.02-.01.03-.04.05-.06,0-.02,0-.05,0-.05-.34-.25-.3-.58-.23-.95.3-1.46.76-2.86,1.64-4.09.84-1.18,1.98-1.65,3.43-1.38.49.09.9.31,1.3.58.15.1.29.22.51.11.16-.08.21.09.23.21.06.39-.1.72-.24,1.06-.03,0-.04.34-.07.35-.08-.11-.19-.54-.25-.67-.08-.17-.12-.35-.19-.53-.12-.31-.28-.56-.63-.66-.17-.05-.31-.18-.47-.28-.01.02-.03.04-.04.06.25.23.51.45.76.68.07.06.12.14.16.22.09.2.17.4.25.6-.02.02-.04.03-.06.05-.05-.05-.11-.1-.15-.16-.37-.58-.82-1.08-1.43-1.43-.03-.02-.06-.02-.12,0,.53.44.98.94,1.29,1.58-.36.06-.69.11-.86.38.41-.02.85-.06,1.29-.04.46.02.74.31.79.77.04.38.27.64.52.91.24.27.24.27,0,.54-.06.07-.08.17-.11.26-.03.1-.07.2-.08.31-.04.45-.43.84-.21,1.35.12.28.15.6.22.9,0,.02,0,.03-.01.05q-.56.28-.7-.31c-.07-.3-.13-.61-.24-.9-.06-.14-.2-.3-.34-.36-.21-.08-.42.04-.55.23-.21.3-.19.62-.06.94.13.34.29.66.44.99.46,1,.79,2.03.85,3.13,0,.17,0,.3-.21.37-.09.03-.17.15-.21.25-.22.51-.52.95-.95,1.3-.64.53-.87,1.27-.92,2.05-.11,1.84-.19,3.68-.27,5.52,0,.18-.03.43-.23.45-.22.03-.28-.25-.29-.41-.05-.66-.11-1.33-.13-1.99-.03-1.07-.03-2.15-.06-3.22-.02-.94.23-1.84.48-2.74.26-.95.44-1.92.2-2.91-.23-.94-.7-1.7-1.6-2.14-.79-.38-1.6-.28-2.17.29-.03.03-.05.06-.1.13.31,0,.59-.04.85,0,1.09.2,1.75.9,2.13,1.9.32.85.27,1.73.18,2.6-.09.85-.3,1.7-.3,2.56,0,1.26.13,2.51.22,3.77.05.62.14,1.23.21,1.85.03.29.07.29.35.25.51-.07,1.02-.16,1.52-.11.81.08.98.81.87,1.44,0,.06-.12.13-.19.13-1.08.02-2.16.03-3.24.02-.33,0-.48-.17-.57-.56-.2-.87-.39-1.75-.6-2.62-.26-1.08-.54-2.15-.81-3.22-.04-.15-.1-.3-.16-.48-.13.03-.24.06-.36.09-.45.14-.9.28-1.33.44-.55.2-.98.57-1.26,1.09-.62,1.17-1.26,2.32-2.3,3.28.14,0,.2,0,.27,0,.91.08,1.82.11,2.72.26.66.11,1.03.78.94,1.44-.02.16-.08.26-.26.26-.27,0-.55.02-.82.02-2.51,0-5.02,0-7.53,0-.15,0-.3-.01-.45,0-.26.01-.42-.07-.45-.36,0-.08-.07-.19-.14-.22-1.39-.62-1.97-2.25-1.41-3.81.22-.59.57-1.13.87-1.69.07-.12.16-.23.24-.36ZM21.06,6.22c-.02.17-.03.31-.05.46-.16,1.33-.33,2.65-.49,3.98,0,.09.07.21.14.27.23.17.48.3.71.46,1.55,1.09,2.38,2.6,2.59,4.48.04.36.11.4.48.3-.16-1.5-.64-2.88-1.54-4.1-.31-.42-.68-.73-1.19-.89-.29-.09-.56-.21-.84-.32-.16-.06-.2-.16-.1-.3.55.2,1.09.4,1.64.61,0-.28-.17-.41-.36-.49-.35-.15-.7-.3-1.06-.41-.19-.06-.23-.15-.18-.35.47.19.93.38,1.42.58-.09-.35-.32-.5-.59-.61-.22-.09-.44-.19-.66-.28-.19-.07-.21-.19-.09-.37.38.2.75.39,1.15.6-.06-.31-.24-.49-.47-.61-.17-.09-.35-.17-.53-.25-.18-.08-.21-.21-.1-.41.27.17.54.33.84.52-.07-.58-.79-.52-.86-1.04.33-.04.43.3.68.41.02-.3-.19-.43-.35-.58-.17-.16-.23-.3-.09-.53.24.21.57.32.67.69.05-.1.09-.21.13-.29-.23-.16-.42-.29-.61-.44-.07-.06-.16-.14-.17-.22-.02-.24,0-.48,0-.79.35.25.63.45.92.66-.26-.36-.57-.65-1.05-.74ZM10.9,26.1s0,.02,0,.02c.14-.04.29-.07.43-.12,1.38-.46,2.37-1.38,3.1-2.61.41-.7.73-1.44.77-2.27.07-1.21-.31-1.77-1.63-1.58-1.33.19-2.36.91-3.21,1.91-.03.03-.04.08-.07.13.36-.25.69-.5,1.04-.7.64-.37,1.33-.65,2.09-.58.75.06,1.17.53,1.16,1.28,0,.2-.02.41-.07.61-.27,1.26-.97,2.26-2.02,2.99-.5.35-1.07.61-1.6.92ZM15.33,26.53s.04-.04.06-.06c.15.12.33.22.45.36.12.15.18.34.28.55.18-.52-.07-.95-.56-.97-.4-.02-.8.01-1.19.03-.23.01-.47.04-.7.06.39.1.79.14,1.18.19.28.03.45.19.56.43.03.07.06.13.1.2.17-.32.03-.56-.17-.79ZM23.69,8.54c.4.5,1.02.77,1.2,1.42.22-.26.23-.78.02-1.02-.07-.08-.15-.17-.24-.19-.31-.08-.63-.13-.99-.2ZM14.67,19.46c-.51-.8-2.49-.71-3.35.21,1.13-.53,2.22-.7,3.35-.21ZM23.86,27.23c.06-.41-.07-.76-.33-.85-.38-.13-.77-.02-1.17.04.58,0,.79.4.96.86.19-.29.04-.51-.04-.77.36.1.43.43.58.72ZM22.27,5.79c.69.31,1.17.84,1.6,1.53,0-.6-1.05-1.55-1.6-1.53ZM23.59,7.34c-.15-.55-.82-1.12-1.23-1.21.36.36.78.76,1.23,1.21ZM23.93,8.05c.36.02.74.05,1.1.07-.08-.39-.69-.44-1.1-.07ZM22.54,8.67c.24-.56.05-1.1-.42-1.14.42.28.34.7.42,1.14ZM21.39,6.73s-.04.04-.07.06c.02.18.45.58.72.57-.22-.21-.43-.42-.65-.63Z"/>
      <path class="cls-2" d="M21.06,6.22c.49.09.8.38,1.05.74-.29-.21-.58-.41-.92-.66,0,.31-.01.55,0,.79,0,.08.1.16.17.22.19.15.39.28.61.44-.04.08-.08.19-.13.29-.11-.37-.44-.48-.67-.69-.14.23-.07.37.09.53.16.15.37.28.35.58-.25-.11-.35-.45-.68-.41.07.52.79.46.86,1.04-.3-.19-.56-.35-.84-.52-.11.2-.08.33.1.41.18.08.36.16.53.25.23.12.41.29.47.61-.4-.21-.77-.4-1.15-.6-.12.18-.1.29.09.37.22.08.44.19.66.28.27.11.5.25.59.61-.49-.2-.95-.39-1.42-.58-.05.2-.02.29.18.35.36.12.71.26,1.06.41.2.09.37.22.36.49-.55-.2-1.09-.4-1.64-.61-.1.15-.06.24.1.3.28.11.56.23.84.32.51.15.89.47,1.19.89.9,1.22,1.38,2.6,1.54,4.1-.38.11-.44.06-.48-.3-.21-1.87-1.03-3.38-2.59-4.48-.23-.16-.48-.3-.71-.46-.08-.06-.15-.18-.14-.27.15-1.33.32-2.65.49-3.98.02-.15.03-.3.05-.46Z"/>
      <path class="cls-2" d="M10.9,26.1c.54-.3,1.1-.57,1.6-.92,1.05-.73,1.75-1.72,2.02-2.99.04-.2.06-.4.07-.61,0-.75-.41-1.22-1.16-1.28-.77-.06-1.45.21-2.09.58-.35.2-.68.45-1.04.7.03-.06.04-.1.07-.13.85-1,1.88-1.72,3.21-1.91,1.32-.19,1.69.37,1.63,1.58-.05.82-.36,1.57-.77,2.27-.73,1.23-1.72,2.15-3.1,2.61-.14.05-.28.08-.43.12,0,0,0-.02,0-.02Z"/>
      <path class="cls-2" d="M15.33,26.53c.2.23.34.48.17.79-.03-.07-.07-.13-.1-.2-.11-.24-.28-.4-.56-.43-.39-.04-.79-.09-1.18-.19.23-.02.47-.05.7-.06.4-.02.8-.05,1.19-.03.49.02.74.45.56.97-.1-.21-.16-.4-.28-.55-.12-.15-.29-.24-.45-.36-.02.02-.04.04-.06.06Z"/>
      <path class="cls-2" d="M23.69,8.54c.35.07.67.12.99.2.09.02.17.12.24.19.2.24.2.76-.02,1.02-.19-.65-.8-.91-1.2-1.42Z"/>
      <path class="cls-2" d="M14.67,19.46c-1.13-.49-2.22-.33-3.35.21.86-.91,2.84-1.01,3.35-.21Z"/>
      <path class="cls-2" d="M23.86,27.23c-.16-.29-.22-.62-.58-.72.08.26.23.48.04.77-.17-.46-.38-.86-.96-.86.4-.06.79-.18,1.17-.04.26.09.39.44.33.85Z"/>
      <path class="cls-2" d="M22.27,5.79c.55-.02,1.6.93,1.6,1.53-.43-.69-.9-1.23-1.6-1.53Z"/>
      <path class="cls-2" d="M23.59,7.34c-.45-.44-.87-.85-1.23-1.21.41.08,1.08.66,1.23,1.21Z"/>
      <path class="cls-2" d="M23.93,8.05c.41-.36,1.02-.32,1.1.07-.36-.02-.74-.05-1.1-.07Z"/>
      <path class="cls-2" d="M22.54,8.67c-.08-.44,0-.86-.42-1.14.48.04.66.58.42,1.14Z"/>
      <path class="cls-2" d="M21.39,6.73c.22.21.43.42.65.63-.26.01-.7-.39-.72-.57.02-.02.04-.04.07-.06Z"/>
    </g>
  </g>
</svg>