<svg data-name="Layer 1" xmlns="http://www.w3.org/2000/svg" width="40" height="40"><circle cx="20" cy="20" r="19.62" fill="orange"/><path d="M10.63 23.61v1.19h-4v-1.19l1-.34V16.8l-1-.41v-1.13l3.27-.07 3.68 6.3V16.8l-1-.41v-1.13l3.88-.07v1.2l-1 .41v8h-2.24l-3.66-6.18v4.65zM23.49 17a4.6 4.6 0 00-1.49-.27c-1.5 0-2.25 1.11-2.25 3.34s.74 3.13 2.25 3.13a3.59 3.59 0 001.28-.2 4.25 4.25 0 001-.48l.34-.23.75 1.23-.16.15a4.58 4.58 0 01-.47.36 3.9 3.9 0 01-.76.45 5.52 5.52 0 01-1 .36 4.38 4.38 0 01-1.18.16 4.17 4.17 0 01-3.22-1.23 5.11 5.11 0 01-1.14-3.59 5.35 5.35 0 011.24-3.75A4.32 4.32 0 0122 15a8.29 8.29 0 011.53.16 8 8 0 011.21.32l.44.17-.07 2.59h-1.3zM28 21.84l.2 1.16a2.82 2.82 0 001.33.28A2.23 2.23 0 0030.7 23a.92.92 0 00.48-.81.78.78 0 00-.34-.64 2.52 2.52 0 00-.84-.45 10.18 10.18 0 01-1.11-.4 11.48 11.48 0 01-1.11-.54 2.42 2.42 0 01-.86-.88 2.7 2.7 0 01-.34-1.37 2.57 2.57 0 011-2.13A4 4 0 0130 15a8.13 8.13 0 011.43.14 9.32 9.32 0 011.16.27l.4.14.01 2.5h-1.29l-.34-1.16a4 4 0 00-1.2-.2 1.82 1.82 0 00-1.07.31.81.81 0 000 1.34 2.71 2.71 0 00.85.43 9.37 9.37 0 011.1.4 9.53 9.53 0 011.11.53 2.35 2.35 0 01.85.84 2.46 2.46 0 01.34 1.31 2.84 2.84 0 01-1 2.33 4 4 0 01-2.65.84 9.27 9.27 0 01-1.44-.13 9.58 9.58 0 01-1.26-.31l-.41-.12v-2.62z" fill="#fff"/></svg>