<svg id="Layer_1" data-name="Layer 1" xmlns="http://www.w3.org/2000/svg" width="40" height="40" viewBox="0 0 40 40">
  <defs>
    <style>
      .cls-1 {
        fill: orange;
      }

      .cls-2 {
        fill: white;
      }
    </style>
  </defs>
  <circle class="cls-1" cx="20" cy="20" r="19.62"/>
  <g>
    <path class="cls-2" d="M10.63,23.61V24.8h-4V23.61l1-.34V16.8l-1-.41V15.26l3.27-.07,3.68,6.3V16.8l-1-.41V15.26l3.88-.07v1.2l-1,.41v8H13.22L9.56,18.62v4.65Z"/>
    <path class="cls-2" d="M23.49,17A4.6,4.6,0,0,0,22,16.73c-1.5,0-2.25,1.11-2.25,3.34S20.49,23.2,22,23.2A3.59,3.59,0,0,0,23.28,23a4.25,4.25,0,0,0,1-.48l.34-.23.75,1.23-.16.15a4.58,4.58,0,0,1-.47.36,3.9,3.9,0,0,1-.76.45,5.52,5.52,0,0,1-1,.36A4.38,4.38,0,0,1,21.8,25a4.17,4.17,0,0,1-3.22-1.23,5.11,5.11,0,0,1-1.14-3.59,5.35,5.35,0,0,1,1.24-3.75A4.32,4.32,0,0,1,22,15a8.29,8.29,0,0,1,1.53.16,8,8,0,0,1,1.21.32l.44.17-.07,2.59H23.81Z"/>
    <path class="cls-2" d="M28,21.84,28.2,23a2.82,2.82,0,0,0,1.33.28A2.23,2.23,0,0,0,30.7,23a.92.92,0,0,0,.48-.81.78.78,0,0,0-.34-.64A2.52,2.52,0,0,0,30,21.1a10.18,10.18,0,0,1-1.11-.4,11.48,11.48,0,0,1-1.11-.54,2.42,2.42,0,0,1-.86-.88,2.7,2.7,0,0,1-.34-1.37,2.57,2.57,0,0,1,1-2.13A4,4,0,0,1,30,15a8.13,8.13,0,0,1,1.43.14,9.32,9.32,0,0,1,1.16.27l.4.14L33,18.05H31.71l-.34-1.16a4,4,0,0,0-1.2-.2A1.82,1.82,0,0,0,29.1,17a.81.81,0,0,0,0,1.34,2.71,2.71,0,0,0,.85.43,9.37,9.37,0,0,1,1.1.4,9.53,9.53,0,0,1,1.11.53,2.35,2.35,0,0,1,.85.84,2.46,2.46,0,0,1,.34,1.31,2.84,2.84,0,0,1-1,2.33,4,4,0,0,1-2.65.84,9.27,9.27,0,0,1-1.44-.13A9.58,9.58,0,0,1,27,24.58l-.41-.12V21.84Z"/>
  </g>
</svg>
