<svg data-name="Layer 1" xmlns="http://www.w3.org/2000/svg" width="40" height="40"><circle cx="20" cy="20" r="19.62" fill="#ff0"/><path d="M13.13 21.84l.2 1.15a2.89 2.89 0 001.34.28 2.25 2.25 0 001.17-.27.92.92 0 00.48-.81.81.81 0 00-.34-.64 2.48 2.48 0 00-.86-.43A10.18 10.18 0 0114 20.7a11.48 11.48 0 01-1.11-.54 2.4 2.4 0 01-.85-.88 2.6 2.6 0 01-.34-1.37 2.57 2.57 0 011-2.13 3.94 3.94 0 012.5-.76 8 8 0 011.43.14 8.9 8.9 0 011.16.27l.41.14-.07 2.48h-1.28l-.34-1.16a4 4 0 00-1.2-.2 1.82 1.82 0 00-1.07.27.83.83 0 00-.38.7.84.84 0 00.34.64 2.77 2.77 0 00.86.43 10.07 10.07 0 011.1.4 9.37 9.37 0 011.1.53 2.3 2.3 0 01.86.84 2.55 2.55 0 01.34 1.31 2.86 2.86 0 01-1 2.33 4.06 4.06 0 01-2.65.84 9.84 9.84 0 01-2.63-.4l-.41-.12v-2.62zm10.68 1.77v1.19H19.7v-1.19l1-.34V16.8l-1-.41v-1.13l3.13-.07h1a4.21 4.21 0 012.62.7 2.44 2.44 0 01.96 2.11 2.65 2.65 0 01-1.54 2.58 3.84 3.84 0 01.58.88l.91 1.87.93.31v1.16h-2.53l-1.14-2.52a4.5 4.5 0 00-.58-1 1 1 0 00-.73-.22h-.48v2.25zm-1-6.81v2.79h.78a1.88 1.88 0 001.25-.37 1.31 1.31 0 00.45-1.06 1.37 1.37 0 00-.36-1 1.34 1.34 0 00-1-.37z" fill="green"/></svg>