<svg id="Layer_1" data-name="Layer 1" xmlns="http://www.w3.org/2000/svg" width="40" height="40" viewBox="0 0 40 40">
  <defs>
    <style>
      .cls-1 {
        fill: yellow;
      }

      .cls-2 {
        fill: green;
      }
    </style>
  </defs>
  <circle class="cls-1" cx="20" cy="20" r="19.62"/>
  <g>
    <path class="cls-2" d="M13.13,21.84l.2,1.15a2.89,2.89,0,0,0,1.34.28A2.25,2.25,0,0,0,15.84,23a.92.92,0,0,0,.48-.81.81.81,0,0,0-.34-.64,2.48,2.48,0,0,0-.86-.43A10.18,10.18,0,0,1,14,20.7a11.48,11.48,0,0,1-1.11-.54,2.4,2.4,0,0,1-.85-.88,2.6,2.6,0,0,1-.34-1.37,2.57,2.57,0,0,1,1-2.13,3.94,3.94,0,0,1,2.5-.76,8,8,0,0,1,1.43.14,8.9,8.9,0,0,1,1.16.27l.41.14-.07,2.48H16.85l-.34-1.16a4,4,0,0,0-1.2-.2,1.82,1.82,0,0,0-1.07.27.83.83,0,0,0-.38.7.84.84,0,0,0,.34.64,2.77,2.77,0,0,0,.86.43,10.07,10.07,0,0,1,1.1.4,9.37,9.37,0,0,1,1.1.53,2.3,2.3,0,0,1,.86.84,2.55,2.55,0,0,1,.34,1.31,2.86,2.86,0,0,1-1,2.33,4.06,4.06,0,0,1-2.65.84,9.84,9.84,0,0,1-2.63-.4l-.41-.12V21.84Z"/>
    <path class="cls-2" d="M23.81,23.61V24.8H19.7V23.61l1-.34V16.8l-1-.41V15.26l3.13-.07h1a4.21,4.21,0,0,1,2.62.7A2.44,2.44,0,0,1,27.41,18a2.65,2.65,0,0,1-1.54,2.58,3.84,3.84,0,0,1,.58.88l.91,1.87.93.31V24.8H25.76l-1.14-2.52a4.5,4.5,0,0,0-.58-1,1,1,0,0,0-.73-.22h-.48v2.25Zm-1-6.81v2.79h.78a1.88,1.88,0,0,0,1.25-.37,1.31,1.31,0,0,0,.45-1.06,1.37,1.37,0,0,0-.36-1,1.34,1.34,0,0,0-1-.37Z"/>
  </g>
</svg>
