<svg data-name="Layer 1" xmlns="http://www.w3.org/2000/svg" width="40" height="40"><circle cx="20" cy="20" r="19.62"/><path d="M13.51 24.81v-1.19l1.12-.34V16.8h-1.3L13 18.1h-1.26v-2.86l7.91-.05v2.91h-1.27L18 16.8h-1.3v6.48l1.13.34v1.19zM26.38 17a5 5 0 00-1.53-.21c-1.5 0-2.25 1.11-2.25 3.34s.77 3.13 2.32 3.13a3.63 3.63 0 001.25-.26 4.94 4.94 0 001-.48l.34-.23.75 1.22-.16.16c-.08.07-.23.19-.47.36a6.59 6.59 0 01-.76.45 5.52 5.52 0 01-1 .36 4.8 4.8 0 01-1.19.16 4.19 4.19 0 01-3.23-1.23 5.18 5.18 0 01-1.13-3.6 5.35 5.35 0 011.24-3.75A4.32 4.32 0 0124.92 15a7.51 7.51 0 011.53.16 7.23 7.23 0 011.21.32l.44.16-.1 2.62h-1.31z" fill="#fff"/></svg>