<svg id="Layer_1" data-name="Layer 1" xmlns="http://www.w3.org/2000/svg" width="40" height="40" viewBox="0 0 40 40">
  <defs>
    <style>
      .cls-1 {
        fill: black;
      }

      .cls-2 {
        fill: white;
      }
    </style>
  </defs>
  <circle class="cls-1" cx="20" cy="20" r="19.62"/>
  <g>
    <path class="cls-2" d="M13.51,24.81V23.62l1.12-.34V16.8h-1.3L13,18.1H11.74V15.24l7.91-.05V18.1H18.38L18,16.8h-1.3v6.48l1.13.34v1.19Z"/>
    <path class="cls-2" d="M26.38,17a5,5,0,0,0-1.53-.21c-1.5,0-2.25,1.11-2.25,3.34s.77,3.13,2.32,3.13A3.63,3.63,0,0,0,26.17,23a4.94,4.94,0,0,0,1-.48l.34-.23.75,1.22-.16.16c-.08.07-.23.19-.47.36a6.59,6.59,0,0,1-.76.45,5.52,5.52,0,0,1-1,.36,4.8,4.8,0,0,1-1.19.16,4.19,4.19,0,0,1-3.23-1.23,5.18,5.18,0,0,1-1.13-3.6,5.35,5.35,0,0,1,1.24-3.75A4.32,4.32,0,0,1,24.92,15a7.51,7.51,0,0,1,1.53.16,7.23,7.23,0,0,1,1.21.32l.44.16L28,18.26H26.69Z"/>
  </g>
</svg>
