<svg xmlns="http://www.w3.org/2000/svg" viewBox="0 0 288 288"><path d="M113.5 277.7c-2 1.2-4.1 2.3-6.3 3.3-1.8-.5-3.6-.8-5.3-1.4.8-1.4 1.3-2.9 1.6-4.4 1.1-5.3-.5-9.1-4.7-11.4v-.2c6.4-.1 13.6 1.9 21.6 6.1 5.4 3 9.2 5.5 11.2 7.5-.4.5-.8 1.1-1.2 1.6-6.3-2.7-11.9-3.2-16.9-1.1zM98.8 24.2v.2c6.4.1 13.6-1.9 21.6-6.1 5.4-3 9.2-5.5 11.2-7.5l-1.2-1.6c-6.2 2.9-11.9 3.3-16.9 1.2-2-1.2-4.2-2.3-6.3-3.3-1.8.5-3.6.8-5.3 1.4.8 1.4 1.3 2.9 1.6 4.4 1.1 5.2-.4 9-4.7 11.3zm86.7 239.4v-.2c-6.5-.3-13.9 1.9-22.2 6.5-6.1 3.5-9.6 5.9-10.6 7.1.4.5.7 1 1 1.4 6.4-2.9 12.1-3.2 17.3-1-.3-.1 2.4 1.3 7.9 4 1.4-.4 2.8-.7 4.1-1.1-1.1-1.7-1.9-3.6-2.3-5.6-1-5 .6-8.8 4.8-11.1zM286 144c0 51.5-27.9 98.9-72.9 124 0-3.7-1.3-7.3-3.6-10.2-3.2-3.8-7.6-6.4-13.3-7.8-6.4-1.5-13.1-1-19.3 1.2 2.3-6.2 2.7-12.9 1.2-19.3-1.2-5.7-3.7-10.1-7.5-13.2-3-2.4-6.8-3.7-10.6-3.7-1.6 0-3.1.1-4.7.4-6.4 1.2-10.8 4.7-13.2 10.4-2.4-5.7-6.9-9.2-13.2-10.4-1.5-.3-3-.4-4.5-.4-3.9-.1-7.7 1.2-10.8 3.7-3.7 3.1-6.2 7.5-7.5 13.2-1.5 6.4-1.1 13.1 1.2 19.3-6.2-2.3-12.9-2.7-19.3-1.2-5.7 1.3-10.1 3.9-13.2 7.7-1.8 2.4-2.9 5.3-3.3 8.3C4.2 226.2-18.1 139.3 21.7 71.9 33.9 51.3 51 34.2 71.6 22c.3 3 1.4 5.9 3.3 8.3 3.1 3.8 7.5 6.4 13.2 7.7 6.4 1.5 13.1 1.1 19.3-1.2-2.3 6.2-2.7 12.9-1.2 19.3 1.3 5.7 3.8 10.1 7.5 13.2 3.1 2.4 6.9 3.7 10.8 3.7 1.5 0 3-.1 4.5-.4 6.4-1.2 10.8-4.7 13.2-10.4 2.4 5.7 6.8 9.1 13.2 10.4 1.5.3 3.1.4 4.7.4 3.8 0 7.6-1.3 10.6-3.7 3.8-3.1 6.3-7.5 7.5-13.2 1.5-6.4 1.1-13.1-1.2-19.3 6.2 2.3 12.9 2.7 19.3 1.2 5.7-1.3 10.1-3.9 13.2-7.7 2.3-2.9 3.6-6.5 3.6-10.3 45 25 72.9 72.5 72.9 124zM105 248.8c-.8-1.1-1.9-4.2-3.3-9.4-1.5-4.9-2.8-8.1-3.9-9.6-1.6-1.9-3.9-3-6.3-3.1-4.1-.6-8 2.2-8.6 6.4-.1.7-.1 1.4 0 2.2.1 2.4 1.2 4.7 3 6.3 1.4 1.2 4.5 2.5 9.4 3.9 3.4.9 6.6 1.9 9.7 3.3zm0-209.6c-1.2.7-4.4 1.8-9.6 3.2-4.9 1.4-8 2.7-9.4 3.9a8.99 8.99 0 00-3 6.3c-.6 4.1 2.3 8 6.4 8.5.7.1 1.4.1 2.1 0 2.4-.1 4.7-1.2 6.3-3 1.1-1.5 2.4-4.7 3.9-9.6 1.4-5.1 2.4-8.2 3.3-9.3zm65.2 127.4h-2.6c-3 16.8-9.2 25.2-18.4 25.2h-5v-49.4h4.1c7.2 0 10.8 4.3 10.8 12.9v2.6h2.7v-32.6h-2.7v2.9c.5 5.8-3.9 10.9-9.7 11.4h-5.2V96.2h5.9c8.9 0 14.4 7.2 16.5 21.6h2.6V93.5h-51.6v2.7h7v95.6h-6.8v2.7h52.4v-27.9zm31.4 68.8c.3-2.3-.6-4.7-2.2-6.3-1.7-1.8-4.1-2.6-6.5-2.2-2.4 0-4.6 1.2-6.1 3.1-1.2 1.3-2.5 4.5-3.9 9.4-1.5 5.3-2.6 8.5-3.4 9.6 3.1-1.3 6.3-2.4 9.6-3.2 4.8-1.5 7.9-2.8 9.4-3.9 1.8-1.7 3-4.1 3.1-6.5zm0-182.7c-.1-2.5-1.3-4.8-3.2-6.3-1.5-1.1-4.6-2.4-9.4-3.9-5.2-1.5-8.3-2.6-9.6-3.2.8 1.1 2 4.3 3.4 9.6 1.4 4.9 2.6 8 3.9 9.4 1.5 1.9 3.7 3 6.1 3 2.4.4 4.8-.5 6.5-2.2 1.7-1.8 2.6-4.1 2.3-6.4zm-37 190.2c-2.4 4.1-6.2 5.6-11.4 4.5-4.9-.7-9.1-4-11-8.6-2 4.6-6.2 7.8-11.2 8.6-5.2 1.1-8.9-.4-11.2-4.5 0-.1-.1-.2-.2-.2v.2c-.3 6.5 1.9 13.8 6.5 22 3.5 6.2 5.9 9.8 7.1 10.6.5-.4 1-.7 1.4-1-2.9-6.4-3.2-12.1-1-17.1-.1.3 1.8-3.7 5.9-11.8 1.2-2.2 2.1-3.3 2.6-3.3s1.4 1.1 2.4 3.3c4.1 8.1 6 12.1 5.9 11.8 2 5 1.7 10.6-1 16.9.5.4 1 .8 1.4 1.2 2.2-2 4.7-5.8 7.5-11.2 4.3-8 6.4-15.2 6.3-21.6h-.2l.2.2zM153.8 9.5c-.3.4-.6.9-1 1.4 1 1.2 4.5 3.6 10.6 7.1 8.3 4.6 15.7 6.8 22.2 6.5v-.2c-4.2-2.3-5.8-6-4.7-11.2.4-2 1.2-3.9 2.3-5.6-1.4-.4-2.8-.7-4.1-1-5.5 2.7-8.3 4.1-7.9 4-5.3 2.2-11.1 1.9-17.4-1zM131 40.7c5 .7 9.2 3.9 11.2 8.5 1.9-4.6 6.1-7.8 11-8.5 5.2-1.1 9 .4 11.4 4.5v.2h.2c.1-6.4-2-13.6-6.3-21.6-2.8-5.4-5.4-9.2-7.5-11.2-.5.4-.9.8-1.4 1.2 2.7 6.2 3 11.9 1 16.9.1-.3-1.8 3.7-5.9 11.8-1.1 2.2-1.9 3.3-2.4 3.3s-1.4-1.1-2.6-3.3c-4.1-8.1-6-12.1-5.9-11.8-2.2-5-1.8-10.7 1-17.1-.4-.3-.9-.6-1.4-1-1.2.8-3.6 4.3-7.1 10.6-4.6 8.1-6.8 15.5-6.5 22v.2c.1 0 .2-.1.2-.2 2.1-4.1 5.8-5.6 11-4.5z" fill="#009a54"/><path d="M88.1 38c6.4 1.5 13.1 1.1 19.3-1.2-2.3 6.2-2.7 12.9-1.2 19.3 1.3 5.7 3.8 10.1 7.5 13.2 3.1 2.4 6.9 3.7 10.8 3.7 1.5 0 3-.1 4.5-.4 6.4-1.2 10.8-4.7 13.2-10.4 2.4 5.7 6.8 9.1 13.2 10.4 1.5.3 3.1.4 4.7.4 3.8 0 7.6-1.3 10.6-3.7 3.8-3.1 6.3-7.5 7.5-13.2 1.5-6.4 1.1-13.1-1.2-19.3 6.2 2.3 12.9 2.7 19.3 1.2 5.7-1.3 10.1-3.9 13.2-7.7 2.3-2.9 3.6-6.5 3.6-10.3-9.5-5.3-19.6-9.5-30-12.4-1.1 1.7-1.9 3.6-2.3 5.6-1.1 5.2.5 8.9 4.7 11.2v.2c-6.5.3-13.9-1.9-22.2-6.5-6.1-3.5-9.6-5.9-10.6-7.1.4-.6.7-1 1-1.4 6.4 2.8 12.1 3.2 17.3 1-.3.1 2.4-1.3 7.9-4-23.6-6.2-48.3-6-71.8.5 2.2 1 4.3 2.1 6.3 3.4 5 2 10.6 1.6 16.9-1.2l1.2 1.6c-2 2-5.8 4.6-11.2 7.5-8 4.2-15.2 6.2-21.6 6.1v-.2c4.2-2.3 5.8-6.1 4.7-11.4-.3-1.6-.9-3-1.6-4.4-10.5 3.2-20.7 7.8-30.2 13.5.3 3 1.4 5.9 3.3 8.3 3.1 3.8 7.5 6.4 13.2 7.7zm31.5 7.1c-.3-6.5 1.9-13.8 6.5-22 3.5-6.2 5.9-9.8 7.1-10.6.5.4 1 .8 1.4 1-2.9 6.4-3.2 12.1-1 17.1-.1-.3 1.8 3.7 5.9 11.8 1.2 2.2 2.1 3.3 2.6 3.3s1.4-1.1 2.4-3.3c4.1-8.1 6-12.1 5.9-11.8 2-5 1.7-10.6-1-16.9.5-.4 1-.8 1.4-1.2 2.2 2 4.7 5.7 7.5 11.2 4.3 8 6.4 15.2 6.3 21.6h-.2v-.2c-2.4-4.1-6.2-5.6-11.4-4.5-4.9.7-9.1 4-11 8.5-2-4.6-6.2-7.8-11.2-8.5-5.2-1.1-8.9.4-11.2 4.5 0 .1-.1.2-.2.2l.2-.2zm78.7 1.2c2 1.5 3.2 3.8 3.2 6.3.3 2.3-.6 4.7-2.2 6.3-1.7 1.8-4.1 2.6-6.5 2.2-2.4 0-4.6-1.2-6.1-3-1.2-1.4-2.5-4.5-3.9-9.4-1.5-5.3-2.6-8.5-3.4-9.6 1.2.7 4.4 1.8 9.6 3.2 4.7 1.7 7.8 3 9.3 4zm-103-3.8c5.2-1.5 8.3-2.6 9.6-3.2-.8 1.1-1.9 4.2-3.3 9.4-1.5 4.9-2.8 8.1-3.9 9.6-1.6 1.9-3.9 3-6.3 3-4.1.5-7.9-2.4-8.5-6.5-.1-.7-.1-1.4 0-2 .1-2.4 1.2-4.7 3-6.3 1.5-1.4 4.6-2.7 9.4-4zm6.3 197c1.3 5.2 2.4 8.3 3.3 9.4-3.1-1.3-6.3-2.4-9.6-3.2-4.9-1.4-8-2.6-9.4-3.9a8.99 8.99 0 01-3-6.3c-.6-4.1 2.3-8 6.4-8.5.7-.1 1.4-.1 2.1 0 2.4.1 4.7 1.2 6.3 3.1 1.2 1.3 2.5 4.5 3.9 9.4zm94.7 10.5c-6.4-1.5-13.1-1-19.3 1.2 2.3-6.2 2.7-12.9 1.2-19.3-1.2-5.7-3.7-10.1-7.5-13.2-3-2.4-6.8-3.7-10.6-3.7-1.6 0-3.1.1-4.7.4-6.4 1.2-10.8 4.7-13.2 10.4-2.4-5.7-6.9-9.2-13.2-10.4-1.5-.3-3-.4-4.5-.4-3.9-.1-7.7 1.2-10.8 3.7-3.7 3.1-6.2 7.5-7.5 13.2-1.5 6.4-1.1 13.1 1.2 19.3-6.2-2.3-12.9-2.7-19.3-1.2-5.7 1.3-10.1 3.9-13.2 7.7-1.8 2.4-2.9 5.3-3.3 8.3 9.5 5.7 19.7 10.3 30.3 13.6.8-1.4 1.3-2.9 1.6-4.4 1.1-5.3-.5-9.1-4.7-11.4v-.2c6.4-.1 13.6 1.9 21.6 6.1 5.4 3 9.2 5.5 11.2 7.5-.4.5-.8 1.1-1.2 1.6-6.2-2.8-11.9-3.2-16.9-1.2-2 1.2-4.1 2.3-6.3 3.3 23.5 6.5 48.3 6.7 71.8.5-5.5-2.7-8.3-4.1-7.9-4-5.2-2.2-10.9-1.8-17.3 1-.3-.4-.6-.9-1-1.4 1-1.2 4.5-3.6 10.6-7.1 8.3-4.6 15.7-6.8 22.2-6.5v.2c-4.2 2.3-5.8 6-4.7 11.2.4 2 1.2 3.9 2.3 5.6 10.4-3 20.5-7.1 30-12.4 0-3.7-1.3-7.3-3.6-10.2-3.2-3.9-7.6-6.5-13.3-7.8zm-37.9 14.2c-2.9 5.4-5.4 9.1-7.5 11.2-.4-.4-.9-.8-1.4-1.2 2.7-6.2 3-11.9 1-16.9.1.3-1.8-3.7-5.9-11.8-1.1-2.2-1.9-3.3-2.4-3.3s-1.4 1.1-2.6 3.3c-4.1 8.1-6 12.1-5.9 11.8-2.2 5-1.8 10.7 1 17.1-.4.3-.9.6-1.4 1-1.2-.8-3.6-4.3-7.1-10.6-4.6-8.1-6.8-15.5-6.5-22v-.2c.1 0 .2.1.2.2 2.3 4.1 6 5.6 11.2 4.5 5-.7 9.2-3.9 11.2-8.6 1.9 4.6 6.1 7.8 11 8.6 5.2 1.1 9-.4 11.4-4.5v-.2h.2c0 6.4-2.1 13.6-6.5 21.6zm40.9-35.2c1.7 1.6 2.5 4 2.2 6.3-.1 2.5-1.3 4.8-3.2 6.3-1.5 1.1-4.6 2.4-9.4 3.9-3.3.8-6.5 1.9-9.6 3.2.8-1.1 2-4.3 3.4-9.6 1.3-4.9 2.6-8 3.9-9.4 1.5-1.9 3.7-3 6.1-3.1 2.5-.2 5 .7 6.6 2.4z" fill="#173942"/><path d="M149.2 191.8h-5v-49.4h4.1c7.2 0 10.8 4.3 10.8 12.9v2.6h2.7v-32.6h-2.7v2.9c.5 5.8-3.9 10.9-9.7 11.4h-5.2V96.2h5.9c8.9 0 14.4 7.2 16.5 21.6h2.6V93.5h-51.6v2.7h7v95.6h-6.8v2.7h52.4v-27.9h-2.6c-2.9 16.8-9.1 25.2-18.4 25.2z" fill="#fff"/><path d="M286 144c0 78.4-63.6 142-142 142S2 222.4 2 144 65.6 2 144 2s142 63.6 142 142z" fill="none" stroke="#f3eebf" stroke-miterlimit="10"/></svg>