<svg id="Layer_1" data-name="Layer 1" xmlns="http://www.w3.org/2000/svg" xmlns:xlink="http://www.w3.org/1999/xlink" viewBox="0 0 288 288"><defs><clipPath id="clip-path"><path class="cls-1" d="M589.63-161.42a142 142 0 01-142 142 142 142 0 01-142-142 142 142 0 01142-142 142 142 0 01142 142z"/></clipPath><symbol id="Nouveau_symbole_28" data-name="Nouveau symbole 28" viewBox="0 0 51.02 51.02"><circle cx="25.51" cy="25.51" r="25.51" fill="#009a54"/><path class="cls-3" d="M25.51 34a8.49 8.49 0 00-8.5 8.5v7a25.67 25.67 0 0017 0v-7a8.5 8.5 0 00-8.5-8.5zM25.51 17A8.51 8.51 0 0034 8.5v-7a25.5 25.5 0 00-17 0v7a8.5 8.5 0 008.51 8.5z"/><path d="M21.47 19.6h4.08v.32h-.86l1.91 5.52 1.57-4.74a1.21 1.21 0 00.07-.43c0-.25-.14-.37-.42-.37h-.31v-.3h2v.32a1 1 0 00-.67.19 1.51 1.51 0 00-.36.61L26.77 26v5.11h.85v.3h-4v-.3h.84v-5.03l-2.14-6.16h-.85z" fill="#fff"/></symbol><style>.cls-1{fill:none;stroke:#f3eebf;stroke-miterlimit:10}.cls-3{fill:#f3716d}.cls-5{fill:#ffeb00}.cls-6{fill:#5bc4bf}</style></defs><path class="cls-5" d="M131.55 10.75l-1.22-1.63q-9.33 4.28-16.88 1.22a66.64 66.64 0 00-6.3-3.34c-1.76.47-3.56.82-5.3 1.35a15.22 15.22 0 011.62 4.42q1.64 7.94-4.67 11.4v.2q9.56.21 21.56-6.11 8.13-4.46 11.19-7.51zM185.46 24.58v-.2q-6.3-3.46-4.68-11.19a16.42 16.42 0 012.31-5.61c-1.35-.39-2.72-.71-4.09-1-5.55 2.73-8.32 4.13-8 4q-7.74 3.27-17.3-1c-.27.41-.6.89-1 1.43q1.42 1.83 10.58 7.12 12.42 6.87 22.18 6.45zM98.8 263.83q6.3 3.45 4.67 11.39a15.5 15.5 0 01-1.61 4.42c1.73.53 3.53.88 5.29 1.35a66.64 66.64 0 006.3-3.33q7.51-3.06 16.88 1.22l1.22-1.63q-3-3-11.19-7.52-12-6.32-21.56-6.11zM119.55 45.13v.2a.18.18 0 00.2-.2q3.45-6.1 11.19-4.47a14.36 14.36 0 0111.19 8.54 14.25 14.25 0 0111-8.54q7.73-1.63 11.39 4.47v.2h.2q.19-9.55-6.31-21.56-4.28-8.14-7.52-11.19a15.33 15.33 0 01-1.43 1.22q4.08 9.36 1 16.88.19-.41-5.9 11.8c-1.09 2.18-1.9 3.26-2.44 3.26s-1.42-1.08-2.65-3.26q-6.1-12.21-5.89-11.8-3.26-7.51 1-17.08c-.41-.27-.89-.62-1.43-1q-1.83 1.22-7.12 10.58-6.88 12.19-6.48 21.95z"/><path class="cls-5" d="M213.06 20a16.93 16.93 0 01-3.59 10.31Q204.79 36 196.25 38a34 34 0 01-19.33-1.22 34 34 0 011.22 19.33q-1.83 8.54-7.53 13.22A16.73 16.73 0 01160 73a27.33 27.33 0 01-4.67-.41q-9.57-1.83-13.23-10.37-3.66 8.53-13.23 10.37a24 24 0 01-4.46.41 17 17 0 01-10.79-3.66q-5.5-4.68-7.53-13.22a33.72 33.72 0 011.23-19.33A33.89 33.89 0 0188 38q-8.55-2-13.23-7.73A16.85 16.85 0 0171.54 22a141.73 141.73 0 000 243.92 16.85 16.85 0 013.25-8.24Q79.46 252 88 250a34 34 0 0119.33 1.22 33.71 33.71 0 01-1.23-19.33q2-8.53 7.53-13.22a17 17 0 0110.81-3.67 24 24 0 014.46.41q9.57 1.83 13.23 10.37 3.66-8.53 13.23-10.37A27.33 27.33 0 01160 215a16.73 16.73 0 0110.58 3.66q5.7 4.68 7.53 13.22a34 34 0 01-1.22 19.33 34.09 34.09 0 0119.36-1.21q8.53 2 13.22 7.73a16.93 16.93 0 013.59 10.27 141.92 141.92 0 000-248.06z"/><path class="cls-5" d="M164.51 242.87q-3.66 6.1-11.39 4.47a14.25 14.25 0 01-11-8.54 14.36 14.36 0 01-11.19 8.54q-7.74 1.64-11.19-4.47a.18.18 0 00-.2-.2v.2q-.42 9.76 6.51 22 5.28 9.36 7.12 10.58c.54-.4 1-.75 1.43-1q-4.28-9.56-1-17.08-.21.4 5.89-11.8c1.23-2.18 2.11-3.26 2.65-3.26s1.35 1.08 2.44 3.26l5.9 11.8q3.06 7.51-1 16.88a15.33 15.33 0 011.43 1.22q3.26-3 7.52-11.19 6.53-12 6.31-21.56h-.2zM185.46 263.62v-.2q-9.77-.41-22.17 6.51-9.15 5.29-10.58 7.12c.41.54.74 1 1 1.43q9.57-4.29 17.3-1c-.34-.11 2.43 1.29 8 4 1.36-.34 2.74-.66 4.09-1.05a16.42 16.42 0 01-2.31-5.61q-1.64-7.73 4.67-11.2z"/><path class="cls-6" d="M91.47 61.2a8.55 8.55 0 006.31-3.05c1.08-1.49 2.38-4.68 3.86-9.56 1.36-5.15 2.44-8.28 3.26-9.36q-1.83 1-9.57 3.25c-4.87 1.37-8 2.65-9.35 3.87a8.52 8.52 0 00-3 6.31 7.52 7.52 0 008.53 8.54z"/><path class="cls-6" d="M88 38a33.89 33.89 0 0019.33-1.22 33.72 33.72 0 00-1.23 19.33q2 8.54 7.53 13.22A17 17 0 00124.44 73a24 24 0 004.46-.41q9.57-1.83 13.23-10.37 3.66 8.53 13.23 10.37A27.33 27.33 0 00160 73a16.73 16.73 0 0010.58-3.66q5.7-4.68 7.53-13.22a34 34 0 00-1.22-19.33A34 34 0 00196.25 38q8.53-2 13.22-7.73A16.93 16.93 0 00213.06 20a140.68 140.68 0 00-30-12.39 16.42 16.42 0 00-2.31 5.61q-1.64 7.73 4.68 11.19v.2q-9.77.41-22.17-6.51-9.15-5.28-10.58-7.12c.41-.54.74-1 1-1.43q9.57 4.29 17.3 1c-.34.12 2.43-1.28 8-4a137.76 137.76 0 00-71.83.45 66.64 66.64 0 016.3 3.33q7.55 3.07 16.88-1.21l1.22 1.63q-3 3-11.19 7.52-12 6.32-21.56 6.11v-.2q6.3-3.46 4.67-11.4a15.22 15.22 0 00-1.62-4.42A141.46 141.46 0 0071.54 22a16.85 16.85 0 003.25 8.24Q79.46 36 88 38zm31.53 7.12q-.42-9.77 6.51-22 5.28-9.36 7.12-10.58c.54.4 1 .75 1.43 1q-4.28 9.56-1 17.08-.21-.41 5.89 11.8c1.23 2.18 2.11 3.26 2.65 3.26s1.35-1.08 2.44-3.26q6.1-12.21 5.9-11.8 3.06-7.51-1-16.88a15.33 15.33 0 001.43-1.22q3.26 3 7.52 11.19 6.53 12 6.31 21.56h-.2v-.2q-3.66-6.1-11.39-4.47a14.25 14.25 0 00-11 8.54 14.36 14.36 0 00-11.19-8.54q-7.75-1.6-11.2 4.53a.18.18 0 01-.2.2z"/><path class="cls-6" d="M188.92 42.48c-5.16-1.49-8.33-2.57-9.56-3.25.82 1.08 2 4.27 3.45 9.56q2 7.32 3.87 9.36a7.91 7.91 0 006.11 3.05 7.37 7.37 0 006.51-2.2 7.6 7.6 0 002.24-6.31 8.35 8.35 0 00-3.26-6.31q-2.28-1.65-9.36-3.9zM196.25 250a34.09 34.09 0 00-19.33 1.22 34 34 0 001.22-19.33q-1.83-8.53-7.53-13.22A16.73 16.73 0 00160 215a27.33 27.33 0 00-4.67.41q-9.57 1.83-13.23 10.37-3.66-8.53-13.23-10.37a24 24 0 00-4.46-.41 17 17 0 00-10.79 3.66q-5.5 4.68-7.53 13.22a33.71 33.71 0 001.23 19.33A34 34 0 0088 250q-8.55 2-13.23 7.73a16.85 16.85 0 00-3.23 8.27 141.32 141.32 0 0030.32 13.68 15.5 15.5 0 001.61-4.42q1.64-7.94-4.67-11.39v-.21q9.56-.21 21.56 6.11 8.13 4.47 11.19 7.52l-1.22 1.63q-9.36-4.28-16.88-1.22a66.64 66.64 0 01-6.3 3.33 137.76 137.76 0 0071.85.48c-5.55-2.73-8.32-4.13-8-4q-7.74-3.24-17.3 1c-.27-.41-.6-.89-1-1.43q1.42-1.83 10.58-7.12 12.41-6.92 22.17-6.51v.2q-6.3 3.47-4.68 11.19a16.42 16.42 0 002.31 5.61 140.68 140.68 0 0030-12.39 16.93 16.93 0 00-3.59-10.31q-4.7-5.75-13.24-7.75zm-37.85 14.23q-4.28 8.14-7.52 11.19a15.33 15.33 0 00-1.43-1.22q4.08-9.36 1-16.88l-5.9-11.8c-1.09-2.18-1.9-3.26-2.44-3.26s-1.42 1.08-2.65 3.26q-6.1 12.21-5.89 11.8-3.26 7.51 1 17.08c-.41.27-.89.62-1.43 1q-1.83-1.21-7.12-10.58-6.91-12.19-6.51-22v-.2a.18.18 0 01.2.2q3.45 6.1 11.19 4.47a14.36 14.36 0 0011.19-8.54 14.25 14.25 0 0011 8.54q7.73 1.64 11.39-4.47v-.2h.2q.23 9.61-6.28 21.61z"/><path class="cls-6" d="M192.79 226.8a7.91 7.91 0 00-6.11 3c-1.22 1.35-2.51 4.48-3.87 9.36-1.49 5.29-2.63 8.48-3.45 9.56 1.23-.68 4.4-1.76 9.56-3.25q7.13-2.25 9.36-3.87a8.35 8.35 0 003.26-6.31 7.57 7.57 0 00-2.24-6.3 7.35 7.35 0 00-6.51-2.19zM97.78 229.85a8.55 8.55 0 00-6.31-3 7.53 7.53 0 00-8.53 8.54 8.52 8.52 0 003 6.31c1.36 1.22 4.48 2.5 9.35 3.87q7.74 2.23 9.57 3.25-1.23-1.62-3.26-9.36c-1.44-4.93-2.74-8.12-3.82-9.61z"/><path d="M190.39 165.17q0-18.57-19.64-22v-.28c.72.05 2.93-.82 6.65-2.59a20.13 20.13 0 0011.71-18.41q0-9.78-6.45-15.83t-16.91-6H135.9v2.36h3.44c1.66 0 2.5.7 2.5 2.09a3.52 3.52 0 01-.24 1.29q-.24.6-7 12.83l-13.09 23.5h-.27v-39.76h6.21V100h-29.7v2.36h6.34v83.26h-6.48V188h28v-2.22h-4.39V143.9h.27l14.55 41.73h-4.9V188h36.67q10.33 0 16.44-6.17t6.14-16.66zm-19 12q0 8.44-6.48 8.44H154l-20.76-59.22L144.61 106c1.4-2.43 3.69-3.65 6.89-3.65h13.71c2.07 0 3.53.67 4.39 2s1.28 3.53 1.28 6.55V135q0 6.76-6.62 6.76h-13.49v2.36h14q6.62 0 6.62 8.85z" fill="#231f20"/><path class="cls-1" d="M286 144A142 142 0 11144 2a142 142 0 01142 142z"/><g clip-path="url(#clip-path)"><use width="51.02" height="51.02" transform="matrix(7.16 0 0 7.16 265.06 -343.98)" xlink:href="#Nouveau_symbole_28"/></g><path class="cls-1" d="M589.63-161.42a142 142 0 01-142 142 142 142 0 01-142-142 142 142 0 01142-142 142 142 0 01142 142z"/></svg>