<svg id="Layer_1" data-name="Layer 1" xmlns="http://www.w3.org/2000/svg" xmlns:xlink="http://www.w3.org/1999/xlink" viewBox="0 0 288 288"><defs><clipPath id="clip-path"><path class="cls-1" d="M589.63 144a142 142 0 11-142-142 142 142 0 01142 142z"/></clipPath><symbol id="Nouveau_symbole_28" data-name="Nouveau symbole 28" viewBox="0 0 51.02 51.02"><circle cx="25.51" cy="25.51" r="25.51" fill="#009a54"/><path class="cls-3" d="M25.51 34a8.49 8.49 0 00-8.5 8.5v7a25.67 25.67 0 0017 0v-7a8.5 8.5 0 00-8.5-8.5zM25.51 17A8.51 8.51 0 0034 8.5v-7a25.5 25.5 0 00-17 0v7a8.5 8.5 0 008.51 8.5z"/><path d="M21.47 19.6h4.08v.32h-.86l1.91 5.52 1.57-4.74a1.21 1.21 0 00.07-.43c0-.25-.14-.37-.42-.37h-.31v-.3h2v.32a1 1 0 00-.67.19 1.51 1.51 0 00-.36.61L26.77 26v5.11h.85v.3h-4v-.3h.84v-5.03l-2.14-6.16h-.85z" fill="#fff"/></symbol><style>.cls-1{fill:none;stroke:#f3eebf;stroke-miterlimit:10}.cls-3{fill:#f3716d}.cls-6{fill:#00b8ec}.cls-7{fill:#231f20}</style></defs><path d="M180.13 82.88L184.63 8c-2.58-.76-5.21-1.39-7.84-2l-33.52 67-33.35-66.71c-2.2.54-4.4 1-6.55 1.69l4.5 74.9L45.6 41.77a141.67 141.67 0 000 204.46l62.27-41.11-4.5 74.9c2.15.65 4.35 1.15 6.55 1.69L143.27 215l33.52 67c2.63-.62 5.26-1.24 7.84-2l-4.5-74.91 62.28 41.12a141.66 141.66 0 000-204.47z" fill="#ffeb00"/><path class="cls-6" d="M176.79 6a137.62 137.62 0 00-66.87.33L143.27 73zM103.37 8A141.68 141.68 0 0045.6 41.77l62.27 41.11zM180.13 82.88l62.28-41.11A141.91 141.91 0 00184.63 8zM109.92 281.71a137.62 137.62 0 0066.87.33l-33.52-67zM45.6 246.23A141.68 141.68 0 00103.37 280l4.5-74.9zM184.63 280a142 142 0 0057.78-33.79l-62.28-41.12z"/><path class="cls-7" d="M134.54 125.7l11.84-21.23c1.45-2.53 3.85-3.8 7.17-3.8v-2.46h-16.23v2.46h3.58c1.73 0 2.6.73 2.6 2.18a3.79 3.79 0 01-.25 1.34q-.25.63-7.27 13.35L122.35 142h-.28v-41.33h6.46v-2.46H97.61v2.46h6.6v86.66h-6.74v2.46h29.16v-2.32h-4.56V143.9h.28l15.15 43.43h-5.1v2.46h28.67v-2.46h-4.92z"/><path class="cls-7" d="M166.78 100.67h3.58c1.73 0 2.6.73 2.6 2.18a3.78 3.78 0 01-.24 1.34q-.24.63-7.28 13.35L151.81 142h-.27v1.9h.27L167 187.33h-5.1v2.46h28.68v-2.46h-4.92L164 125.7l11.83-21.23q2.19-3.8 7.17-3.8v-2.46h-16.22z"/><path class="cls-1" d="M286 144A142 142 0 11144 2a142 142 0 01142 142z"/><g clip-path="url(#clip-path)"><use width="51.02" height="51.02" transform="matrix(7.16 0 0 7.16 265.06 -38.57)" xlink:href="#Nouveau_symbole_28"/></g><path class="cls-1" d="M589.63 144a142 142 0 11-142-142 142 142 0 01142 142z"/></svg>