<svg id="Layer_1" data-name="Layer 1" xmlns="http://www.w3.org/2000/svg" viewBox="0 0 288 288"><defs><style>.cls-2{fill:#903f98}</style></defs><path d="M180.14 82.88L184.64 8c-2.58-.76-5.21-1.39-7.85-2l-33.52 67-33.35-66.71c-2.19.54-4.4 1-6.54 1.68l4.49 74.91-62.26-41.11a141.65 141.65 0 000 204.46l62.26-41.11-4.49 74.88c2.14.65 4.35 1.15 6.54 1.69L143.27 215l33.52 67c2.64-.62 5.27-1.25 7.85-2l-4.5-74.9 62.26 41.11a141.66 141.66 0 000-204.46z" fill="#ffeb00"/><path class="cls-2" d="M176.79 6a137.62 137.62 0 00-66.87.33L143.27 73zM103.38 8a141.68 141.68 0 00-57.77 33.8l62.26 41.11zM180.14 82.88l62.27-41.11A141.81 141.81 0 00184.64 8zM109.92 281.71a137.62 137.62 0 0066.87.33l-33.52-67zM45.61 246.23A141.55 141.55 0 00103.38 280l4.49-74.9zM184.64 280a141.58 141.58 0 0057.76-33.79l-62.26-41.11z"/><path d="M148.44 99.19h-15.76v2.4h3.47c1.68 0 2.52.7 2.52 2.11a3.52 3.52 0 01-.23 1.3q-.24.61-7.06 13l-13.24 23.75h-.27v-40.16h6.28v-2.4h-30v2.4h6.41v84.14H94v2.39h28.3v-2.25h-4.43v-42.32h.27l14.71 42.18h-4.95v2.39h27.84v-2.39H151l-21-59.85 11.5-20.61c1.41-2.46 3.73-3.68 7-3.68v-.14h12.7q7.1 0 7.1 11.19v17.47a10.06 10.06 0 01-1.91 6.35 5.93 5.93 0 01-4.91 2.45h-15v2.39h14.16a7.27 7.27 0 015.49 2.09 7.94 7.94 0 012 5.76V172q0 7.92 3.69 12.35a12.52 12.52 0 0010.18 4.46c4 0 6.83-.84 8.63-2.5s2.92-4.31 3.38-7.95l-2.53-.61q-.41 5.87-3.2 5.87a2.24 2.24 0 01-1.51-.69 1.88 1.88 0 01-.75-1.36l-.27-2.52v-23.89q0-7-3.58-10.45t-12.05-4.5H169v-.34q18-3.27 18-20.27a20 20 0 00-5.76-14.6 19.49 19.49 0 00-14.44-5.77z" fill="#231f20"/><path d="M286 144A142 142 0 11144 2a142 142 0 01142 142z" fill="none" stroke="#f3eebf" stroke-miterlimit="10"/></svg>