<svg id="Layer_1" data-name="Layer 1" xmlns="http://www.w3.org/2000/svg" viewBox="0 0 288 288"><defs><style>.cls-2{fill:#f37021}</style></defs><path d="M205.49 16.15V37.5L144 73 82.52 37.5V16.15a141.75 141.75 0 000 255.69V250.5L144 215l61.49 35.5v21.34a141.76 141.76 0 000-255.69z" fill="#ffeb00"/><path class="cls-2" d="M144 73l61.49-35.5V16.15a140.66 140.66 0 00-123 0V37.5zM144 215l-61.48 35.5v21.34a140.66 140.66 0 00123 0V250.5z"/><path d="M166.47 127.3l10.8-19.36q2-3.45 6.54-3.45v-2.25H169v2.25h3.27c1.58 0 2.36.66 2.36 2a3.3 3.3 0 01-.22 1.22q-.22.57-6.63 12.18l-12.43 22.3h-.26v-37.7h5.77v-2.25h-23.61l-8 42.91-8.25-42.91H97.47v2.25H103V177q0 3.65-1.24 5.09c-.84 1-2.3 1.44-4.4 1.44v2.25h13.92v-2.25q-3.29 0-4.59-1.47t-1.33-5.06v-72.13l15.32 80.89H124l14.73-79.42.25 77.3h-6v2.12h26.53v-2.25h-4.36V143.9h.26l13.82 39.61h-4.65v2.25h26.15v-2.25h-4.49z" fill="#231f20"/><path d="M286 144A142 142 0 11144 2a142 142 0 01142 142z" fill="none" stroke="#f3eebf" stroke-miterlimit="10"/></svg>