<svg id="Layer_1" data-name="Layer 1" xmlns="http://www.w3.org/2000/svg" viewBox="0 0 288 288"><defs><style>.cls-1{fill:#3a9948}.cls-2{fill:#224b8f}</style></defs><path class="cls-1" d="M164.86 144.17h-5.8v42.45H165q6.63 0 6.64-8.65v-24.74q0-9.06-6.78-9.06z"/><path class="cls-1" d="M184.29 7.91l-1.56.24 35.93 18.14-39.73-6.45L207.5 48.2l-35.8-18.41 18.41 35.8L161.75 37l6.45 39.74-18.14-35.93-6.15 39.79-6.15-39.79-18.14 36L126.07 37 97.71 65.59l18.41-35.8-35.8 18.41 28.57-28.36-39.73 6.45 35.93-18.14-1.55-.24a141.93 141.93 0 000 272.18l1.54-.24-35.92-18.14 39.73 6.45-28.57-28.36 35.8 18.41-18.41-35.81 28.36 28.6-6.45-39.74 18.14 35.94 6.15-39.78 6.15 39.78 18.14-35.94-6.45 39.74 28.36-28.58-18.41 35.79 35.8-18.41-28.57 28.36 39.73-6.45-35.93 18.14 1.56.24a141.94 141.94 0 000-272.18zm.52 174.81Q178.55 189 168 189h-33v-2.28h6.64l-.27-83.38L125.48 189h-3.55l-16.52-87.2v77.77q0 3.87 1.41 5.46t5 1.59V189h-15v-2.42q3.39 0 4.74-1.56c.9-1 1.35-2.86 1.35-5.49v-78.15H96.9V99h25.35l8.91 46.29 8.2-43.86h-4.09V99h30.56q10.72 0 17.32 6.19t6.59 16.22a20.53 20.53 0 01-12 18.83c-3.8 1.83-6.08 2.71-6.81 2.66v.28q20.12 3.54 20.11 22.55.02 10.65-6.23 16.99z"/><path class="cls-1" d="M171.08 134.84v-24.69q0-4.62-1.32-6.7c-.86-1.39-2.37-2.07-4.48-2.07h-6.22v40.38h5.25c4.52 0 6.77-2.32 6.77-6.92z"/><path class="cls-2" d="M69.16 26.29l39.73-6.45L80.32 48.2l35.8-18.41-18.41 35.8L126.07 37l-6.45 39.74 18.14-35.95 6.15 39.79 6.15-39.79 18.14 36L161.75 37l28.36 28.57-18.41-35.78 35.8 18.41-28.57-28.36 39.73 6.45-35.93-18.14 1.56-.24a140.87 140.87 0 00-80.75 0l1.55.24zM218.66 261.71l-39.73 6.45 28.57-28.36-35.8 18.41 18.41-35.81-28.36 28.6 6.45-39.74-18.14 35.94-6.15-39.78-6.15 39.78-18.14-35.94 6.45 39.74-28.36-28.6 18.41 35.81-35.8-18.41 28.57 28.36-39.73-6.45 35.93 18.14-1.54.24a140.83 140.83 0 0080.74 0l-1.56-.24z"/><path d="M171 143.13v-.28c.73.05 3-.83 6.81-2.66a20.53 20.53 0 0012-18.83q0-10-6.59-16.22T165.83 99h-30.56v2.43h4.09l-8.2 43.86L122.25 99H96.9v2.43h5.95v78.19c0 2.63-.45 4.45-1.35 5.49s-2.48 1.56-4.74 1.56V189h15v-2.42q-3.52 0-5-1.59t-1.41-5.46V101.8l16.58 87.2h3.55l15.88-85.66.27 83.38H135V189h33q10.58 0 16.84-6.32t6.25-17q-.03-19.02-20.09-22.55zm-11.89-41.75h6.22c2.11 0 3.62.68 4.48 2.07s1.32 3.62 1.32 6.7v24.69c0 4.6-2.25 6.92-6.77 6.92h-5.25zM171.64 178q0 8.66-6.64 8.65h-5.94v-42.48h5.8q6.78 0 6.78 9.06z" fill="#fff"/><path d="M286.09 144a142 142 0 11-142-142 142 142 0 01142 142z" fill="none" stroke="#f3eebf" stroke-miterlimit="10"/></svg>