<svg id="Layer_1" data-name="Layer 1" xmlns="http://www.w3.org/2000/svg" viewBox="0 0 288 288"><defs><style>.cls-1{fill:#ffeb00}.cls-2{fill:#b7274c}</style></defs><path class="cls-1" d="M213.07 20a17 17 0 01-3.6 10.4q-4.69 5.7-13.22 7.73a33.92 33.92 0 01-19.33-1.22 34.06 34.06 0 011.22 19.33q-1.83 8.55-7.53 13.22A16.68 16.68 0 01160 73.11a28.47 28.47 0 01-4.67-.41q-9.57-1.83-13.23-10.38-3.65 8.55-13.23 10.38a24.86 24.86 0 01-4.47.41 17 17 0 01-10.78-3.67q-5.49-4.66-7.53-13.22a33.8 33.8 0 011.23-19.33A33.8 33.8 0 0188 38.11q-8.55-2-13.23-7.73a16.86 16.86 0 01-3.27-8.33 141.72 141.72 0 000 243.9 16.86 16.86 0 013.27-8.33q4.67-5.7 13.23-7.73a33.8 33.8 0 0119.33 1.22 33.8 33.8 0 01-1.23-19.33q2-8.55 7.53-13.22a17 17 0 0110.78-3.66 24.85 24.85 0 014.47.4q9.57 1.83 13.23 10.38 3.66-8.55 13.23-10.38a28.42 28.42 0 014.67-.4 16.73 16.73 0 0110.58 3.66q5.7 4.66 7.53 13.22a34.06 34.06 0 01-1.22 19.33 33.92 33.92 0 0119.33-1.22q8.53 2 13.22 7.73a17 17 0 013.6 10.4 141.92 141.92 0 000-248z"/><path class="cls-1" d="M152.71 276.94c.41.54.74 1 1 1.43 6.39-2.85 12.14-3.19 17.3-1-.34-.11 2.49 1.31 8.12 4.09 1.33-.35 2.68-.66 4-1a16.56 16.56 0 01-2.35-5.7c-1.1-5.16.47-8.89 4.67-11.2v-.2q-9.77-.4-22.17 6.52-9.14 5.23-10.57 7.06zM98.8 263.51v.21q6.3 3.46 4.67 11.4a15 15 0 01-1.67 4.5c1.71.53 3.48.87 5.22 1.34a67.31 67.31 0 006.43-3.41q7.51-3 16.88 1.22l1.22-1.62q-3-3-11.19-7.53-12-6.3-21.56-6.11zM164.71 242.56h-.2v.21q-3.67 6.1-11.39 4.47a14.27 14.27 0 01-11-8.55 14.37 14.37 0 01-11.12 8.55c-5.17 1.09-8.89-.4-11.2-4.47a.18.18 0 00-.2-.21v.21q-.42 9.76 6.5 22 5.31 9.38 7.13 10.58c.55-.4 1-.74 1.43-1q-4.28-9.57-1-17.09-.21.41 5.9-11.8c1.22-2.17 2.1-3.26 2.64-3.26s1.36 1.09 2.44 3.26q6.1 12.21 5.9 11.8 3.06 7.53-1 16.89a12.93 12.93 0 011.43 1.21q3.26-3 7.52-11.18 6.44-12.06 6.22-21.62zM131.55 10.85l-1.22-1.62q-9.35 4.26-16.88 1.22A67.31 67.31 0 00107 7c-1.74.47-3.52.81-5.22 1.34a15 15 0 011.67 4.5q1.64 7.94-4.67 11.4v.21q9.56.2 21.56-6.11 8.15-4.43 11.21-7.49zM119.55 45.23v.21a.18.18 0 00.2-.21c2.31-4.07 6-5.55 11.2-4.47a14.37 14.37 0 0111.18 8.55 14.27 14.27 0 0111-8.55q7.73-1.62 11.39 4.47v.21h.2q.21-9.57-6.31-21.57-4.26-8.13-7.52-11.18a12.93 12.93 0 01-1.43 1.21q4.08 9.36 1 16.89.19-.41-5.9 11.8c-1.08 2.17-1.9 3.26-2.44 3.26s-1.42-1.09-2.64-3.26q-6.12-12.21-5.9-11.8-3.26-7.53 1-17.09c-.42-.27-.88-.61-1.43-1q-1.83 1.22-7.13 10.58-6.87 12.18-6.47 21.95zM185.46 24.69v-.2c-4.2-2.31-5.77-6-4.67-11.2a16.3 16.3 0 012.36-5.7c-1.33-.38-2.68-.68-4-1-5.63 2.78-8.46 4.2-8.12 4.09-5.16 2.17-10.91 1.83-17.3-1-.27.41-.6.89-1 1.43q1.42 1.83 10.58 7.11 12.39 6.88 22.15 6.47z"/><path class="cls-2" d="M91.47 61.31a8.53 8.53 0 006.31-3.05c1.09-1.5 2.37-4.68 3.86-9.57q2-7.72 3.26-9.36c-1.22.69-4.4 1.77-9.57 3.26Q88 44.63 86 46.45a8.54 8.54 0 00-3 6.31 7.55 7.55 0 008.53 8.55z"/><path class="cls-2" d="M88 38.11a33.8 33.8 0 0019.33-1.22 33.8 33.8 0 00-1.23 19.33q2 8.55 7.53 13.22a17 17 0 0010.78 3.67 24.86 24.86 0 004.47-.41q9.57-1.83 13.23-10.38 3.66 8.55 13.23 10.38a28.47 28.47 0 004.67.41 16.68 16.68 0 0010.58-3.67q5.7-4.66 7.53-13.22a34.06 34.06 0 00-1.22-19.33 33.92 33.92 0 0019.33 1.22q8.53-2 13.22-7.73a17 17 0 003.6-10.4 141.31 141.31 0 00-29.9-12.39 16.3 16.3 0 00-2.36 5.7c-1.1 5.16.47 8.89 4.67 11.2v.2q-9.77.4-22.17-6.52-9.15-5.28-10.58-7.11c.41-.54.74-1 1-1.43 6.39 2.85 12.14 3.19 17.3 1-.34.11 2.49-1.31 8.12-4.09A137.94 137.94 0 00107 7a67.31 67.31 0 016.43 3.41q7.51 3 16.88-1.22l1.22 1.62q-3 3-11.19 7.53-12 6.3-21.56 6.11v-.21q6.3-3.47 4.67-11.4a15 15 0 00-1.67-4.5 140.93 140.93 0 00-30.26 13.71 16.86 16.86 0 003.27 8.33q4.67 5.7 13.21 7.73zm31.53 7.12q-.42-9.76 6.5-22 5.31-9.36 7.13-10.58c.55.4 1 .74 1.43 1q-4.28 9.57-1 17.09-.21-.41 5.9 11.8c1.22 2.17 2.1 3.26 2.64 3.26s1.36-1.09 2.44-3.26q6.1-12.21 5.9-11.8 3.06-7.53-1-16.89a12.93 12.93 0 001.43-1.21q3.26 3 7.52 11.18 6.53 12 6.31 21.57h-.2v-.21q-3.67-6.1-11.39-4.47a14.27 14.27 0 00-11 8.55 14.37 14.37 0 00-11.14-8.5c-5.17-1.08-8.89.4-11.2 4.47a.18.18 0 01-.2.21z"/><path class="cls-2" d="M186.69 58.26a7.86 7.86 0 006.1 3.05 7.33 7.33 0 006.5-2.24 7.56 7.56 0 002.25-6.31 8.36 8.36 0 00-3.26-6.31q-2.24-1.62-9.36-3.86-7.74-2.23-9.56-3.26 1.23 1.64 3.45 9.57 2.04 7.32 3.88 9.36zM196.25 249.89a33.92 33.92 0 00-19.33 1.22 34.06 34.06 0 001.22-19.33q-1.83-8.55-7.53-13.22A16.73 16.73 0 00160 214.9a28.42 28.42 0 00-4.67.4q-9.57 1.83-13.23 10.38-3.65-8.55-13.23-10.38a24.85 24.85 0 00-4.47-.4 17 17 0 00-10.78 3.66q-5.49 4.66-7.53 13.22a33.8 33.8 0 001.23 19.33A33.8 33.8 0 0088 249.89q-8.55 2-13.23 7.73a16.86 16.86 0 00-3.25 8.38 140.93 140.93 0 0030.28 13.67 15 15 0 001.67-4.5q1.64-7.94-4.67-11.4v-.21q9.56-.19 21.56 6.11 8.13 4.47 11.19 7.53l-1.22 1.62q-9.35-4.26-16.88-1.22A67.31 67.31 0 01107 281a137.94 137.94 0 0072.12.48c-5.63-2.78-8.46-4.2-8.12-4.09-5.16-2.17-10.91-1.83-17.3 1-.27-.41-.6-.89-1-1.43q1.42-1.83 10.58-7.11 12.41-6.93 22.17-6.52v.2c-4.2 2.31-5.77 6-4.67 11.2a16.56 16.56 0 002.35 5.7A141.18 141.18 0 00213.07 268a17 17 0 00-3.6-10.4q-4.69-5.68-13.22-7.71zm-37.85 14.24q-4.26 8.13-7.52 11.18a12.93 12.93 0 00-1.43-1.21q4.08-9.36 1-16.89.19.41-5.9-11.8c-1.08-2.17-1.9-3.26-2.44-3.26s-1.42 1.09-2.64 3.26q-6.12 12.21-5.9 11.8-3.26 7.53 1 17.09c-.42.27-.88.61-1.43 1q-1.83-1.21-7.13-10.58-6.9-12.19-6.5-22v-.21a.18.18 0 01.2.21c2.31 4.07 6 5.56 11.2 4.47a14.37 14.37 0 0011.18-8.55 14.27 14.27 0 0011 8.55q7.73 1.63 11.39-4.47v-.21h.2q.24 9.62-6.28 21.62z"/><path class="cls-2" d="M95.33 245.41c5.17 1.49 8.35 2.57 9.57 3.26q-1.23-1.63-3.26-9.36-2.23-7.32-3.86-9.57a8.57 8.57 0 00-6.31-3.05 7.55 7.55 0 00-8.53 8.55 8.54 8.54 0 003 6.31q2.06 1.83 9.39 3.86zM192.79 226.69a7.89 7.89 0 00-6.1 3.05q-1.84 2-3.88 9.36-2.22 7.93-3.45 9.57 1.83-1 9.56-3.26 7.13-2.24 9.36-3.86a8.36 8.36 0 003.26-6.31 7.56 7.56 0 00-2.25-6.31 7.33 7.33 0 00-6.5-2.24z"/><path d="M88.42 103.27H94v73.65q0 3.71-1.27 5.18c-.84 1-2.34 1.46-4.46 1.46v2.28h14.14v-2.28c-2.23 0-3.77-.5-4.67-1.49s-1.33-2.72-1.33-5.15v-73.26L112 185.84h3.34l15-80.69.26 78.54h-6.12v2.15h28.25v-2.28H147v-80.29h.5L169.32 187h5.13l17.24-76.92q1.51-6.84 6.25-6.83h1.77V101h-17.39v2.29h3.11c2.81 0 4.23 1.34 4.23 4a6.85 6.85 0 01-.26 2.08l-11 48.85h-.27l-14.11-55.1h5.47V101h-40.7l-8.15 43.61L112.3 101H88.42z" fill="#231f20"/><path d="M286 144A142 142 0 11144 2a142 142 0 01142 142z" fill="none" stroke="#f3eebf" stroke-miterlimit="10"/></svg>