<svg id="Layer_1" data-name="Layer 1" xmlns="http://www.w3.org/2000/svg" viewBox="0 0 288 288"><defs><style>.cls-1{fill:#ee3e80}</style></defs><path class="cls-1" d="M210.48 73V18.56a141.72 141.72 0 00-133 0V73zM77.52 215v54.44a141.72 141.72 0 00133 0V215z"/><path d="M210.48 18.56V73h-133V18.56a141.94 141.94 0 000 250.88V215h133v54.44a141.94 141.94 0 000-250.88z" fill="#ffeb00"/><path d="M157.5 91.49h3.15q7.32 0 7.33 7.5v80.65h-.35l-29.5-91.13h-30.88v3h9.45V189q0 4.33-1.62 5.91c-1.08 1.06-3 1.58-5.87 1.58v3H131v-3h-3.83q-6.65 0-6.65-10v-83.68h.35l31.82 96.68h19.11V96.08q0-4.59 5.79-4.59h3.15v-3H157.5z" fill="#231f20"/><path d="M286 144A142 142 0 11144 2a142 142 0 01142 142z" fill="none" stroke="#f3eebf" stroke-miterlimit="10"/></svg>