<svg id="Layer_1" data-name="Layer 1" xmlns="http://www.w3.org/2000/svg" viewBox="0 0 288 288"><defs><style>.cls-2{fill:#71cfeb}</style></defs><path d="M210.48 18.56V73h-133V18.56a141.94 141.94 0 000 250.88V215h133v54.44a141.94 141.94 0 000-250.88z" fill="#ffeb00"/><path class="cls-2" d="M210.48 73V18.56a141.72 141.72 0 00-133 0V73zM77.52 215v54.44a141.72 141.72 0 00133 0V215z"/><path d="M164.82 124.31l12.73-22.82c1.56-2.71 4.13-4.08 7.71-4.08v-2.64H167.8v2.64h3.85c1.86 0 2.79.79 2.79 2.35a3.82 3.82 0 01-.26 1.43q-.27.69-7.82 14.36l-14.65 26.3h-.3V97.41h7v-2.64H125.1v.07c-.15 0-.29-.06-.45-.06h-.45q-13 0-21.27 13.29t-8.27 34.79q0 19.13 3.77 29.17t10.81 15.61a23.82 23.82 0 0015.11 5.57c.21 0 .4-.07.61-.08v.1h31.36v-2.49h-4.91v-46.85h.3l16.29 46.7h-5.49v2.64h30.83v-2.64h-5.29zm-40.17 66.54q-4.31 0-6.26-2.66c-1.32-1.77-2-4.58-2-8.41v-71q0-11.52 7.78-11.52a7.62 7.62 0 01.9.16h.2c4.54.46 6.91 3.49 6.91 9.34v73c0 6.67-2.17 10.17-6.29 10.81h-1v.2c-.04.02-.12.08-.24.08z" fill="#231f20"/><path d="M286 144A142 142 0 11144 2a142 142 0 01142 142z" fill="none" stroke="#f3eebf" stroke-miterlimit="10"/></svg>