<svg id="Layer_1" data-name="Layer 1" xmlns="http://www.w3.org/2000/svg" viewBox="0 0 288 288"><defs><style>.cls-1{fill:#ffe600}.cls-2{fill:#00afad}</style></defs><path class="cls-1" d="M212.67 19.74a70.9 70.9 0 01-137.34 0 141.95 141.95 0 000 248.52 70.9 70.9 0 01137.34 0 141.95 141.95 0 000-248.52z"/><path class="cls-1" d="M132.24 136.4a10.62 10.62 0 002-6.7v-18.45q0-11.81-7.5-11.81h-5.62V139h5.91a6.3 6.3 0 005.21-2.6z"/><path class="cls-2" d="M144 73a71 71 0 0068.67-53.26 141.78 141.78 0 00-137.34 0A71 71 0 00144 73zM144 215a71 71 0 00-68.67 53.26 141.78 141.78 0 00137.34 0A71 71 0 00144 215z"/><path d="M127.77 188.42h-6.63v-46.9h5a7.65 7.65 0 015.79 2.19 8.4 8.4 0 012.13 6.09v24.14q0 8.35 3.89 13t10.74 4.68q6.25 0 9.11-2.62s0-.07.06-.09a21.36 21.36 0 0011 3.07q12 0 20-12.25t8-36.89q0-21.47-7.56-34.18T169.21 96h-.43a20.66 20.66 0 00-13.78 5.13l7.14 2.52q1.59-5.3 6.69-5.29 7.64 0 7.63 9.29v71.26q0 10.8-7.2 10.8c-2.73 0-4.73-.86-6-2.59a12.19 12.19 0 01-1.81-6.34l-.08.14c0-.11.06-.18.08-.28l-2.67-.65q-.44 6.19-3.38 6.19a2.35 2.35 0 01-1.59-.71A2 2 0 01153 184l-.29-2.67v-25.19q0-7.42-3.78-11t-12.72-4.76H135V140q19-3.47 19-21.4a21 21 0 00-6-15.45 20.52 20.52 0 00-15.23-6.09h-36v2.38h6.49v89h-6.62v2.52h31.13zm-6.63-89h5.62q7.49 0 7.5 11.81v18.47a10.62 10.62 0 01-2 6.7 6.3 6.3 0 01-5.19 2.59h-5.91z" fill="#231f20"/><path d="M286 144A142 142 0 11144 2a142 142 0 01142 142z" fill="none" stroke="#f3eebf" stroke-miterlimit="10"/></svg>