<svg id="Layer_1" data-name="Layer 1" xmlns="http://www.w3.org/2000/svg" xmlns:xlink="http://www.w3.org/1999/xlink" viewBox="0 0 288 288"><defs><clipPath id="clip-path"><path class="cls-1" d="M589.63 449.41a142 142 0 11-142-142 142 142 0 01142 142z"/></clipPath><symbol id="Nouveau_symbole_28" data-name="Nouveau symbole 28" viewBox="0 0 51.02 51.02"><circle cx="25.51" cy="25.51" r="25.51" fill="#009a54"/><path class="cls-3" d="M25.51 34a8.49 8.49 0 00-8.5 8.5v7a25.67 25.67 0 0017 0v-7a8.5 8.5 0 00-8.5-8.5zM25.51 17A8.51 8.51 0 0034 8.5v-7a25.5 25.5 0 00-17 0v7a8.5 8.5 0 008.51 8.5z"/><path d="M21.47 19.6h4.08v.32h-.86l1.91 5.52 1.57-4.74a1.21 1.21 0 00.07-.43c0-.25-.14-.37-.42-.37h-.31v-.3h2v.32a1 1 0 00-.67.19 1.51 1.51 0 00-.36.61L26.77 26v5.11h.85v.3h-4v-.3h.84v-5.03l-2.14-6.16h-.85z" fill="#fff"/></symbol><style>.cls-1{fill:none;stroke:#f3eebf;stroke-miterlimit:10}.cls-3{fill:#f3716d}.cls-6{fill:#0095da}.cls-7{fill:#231f20}</style></defs><path d="M203.16 15v58H179.5V6.65a141 141 0 00-23.67-4.05V73h-23.66V2.6a140.86 140.86 0 00-23.67 4.06V73H84.83V15a141.81 141.81 0 000 257.92V215h23.67v66.34a140.86 140.86 0 0023.67 4.06V215h23.66v70.4a142 142 0 0023.67-4V215h23.66v58a141.81 141.81 0 000-257.94z" fill="#ffeb00"/><path class="cls-6" d="M155.83 73V2.6C151.92 2.28 148 2 144 2s-7.93.28-11.84.6V73zM203.16 73V15a141.26 141.26 0 00-23.66-8.35V73zM132.17 215v70.4c3.91.33 7.84.6 11.84.6s7.91-.27 11.82-.6V215zM179.5 215v66.35a141.26 141.26 0 0023.66-8.35v-58zM108.5 73V6.66A140.8 140.8 0 0084.83 15v58zM84.83 215v58a140.8 140.8 0 0023.67 8.38V215z"/><path class="cls-1" d="M286 144A142 142 0 11144 2a142 142 0 01142 142z"/><path class="cls-7" d="M82.58 154.7h1.6q1.36 8.45 5.16 13.12c2.54 3.12 5.4 4.67 8.61 4.67a7.06 7.06 0 005.69-2.75 10.58 10.58 0 002.27-7q0-6.87-7.24-12-2.23-1.24-6-3.78a32.83 32.83 0 01-5.67-4.62 17.25 17.25 0 01-3.27-5.6 19 19 0 01-1.32-6.81 18.64 18.64 0 013.9-12.15 12.22 12.22 0 019.86-4.8 13.89 13.89 0 016.5 1.55 13.39 13.39 0 003.62 1.56 1.94 1.94 0 001.43-.63 2 2 0 00.62-1.47v-.33h1.51V130h-1.6a24 24 0 00-4.13-11c-2.11-2.87-4.48-4.31-7.09-4.31a7 7 0 00-5.27 2 7.54 7.54 0 00-2 5.48 11 11 0 002.82 7.47q2.82 3.23 9.86 7.2 11.19 6.3 11.2 18.45a19.84 19.84 0 01-4.55 13.34A14.24 14.24 0 0197.85 174a12 12 0 01-6.92-2q-3-2-4-2-2.39 0-2.61 3.33h-1.74zM115.48 113.66h18.34q9.52 0 14.09 4.76a15 15 0 014.58 10.71q0 7.55-4.85 11.75t-13.54 4.21h-2.7v26.67h4.21v1.51h-20.22v-1.51h4.48v-56.49h-4.39zm15.92 1.61v28.13h2.79a5.6 5.6 0 004.14-1.67c1.11-1.11 1.67-3.93 1.67-8.44v-7.23a25.45 25.45 0 00-.78-7.36c-.52-1.59-1.25-2.55-2.22-2.91a14.13 14.13 0 00-4.5-.52zM203.36 113.66h9.93v1.51a5 5 0 00-3.36 1.15 9 9 0 00-1.85 4.12l-14.4 53.66h-3.56l-7.71-27.45h-.19l-8.95 27.45H170l-17-58.93h-3.34v-1.51h47.9v1.51h-1.88q-3.07 0-4.13 3.3l-2.88 9.1 8 28.55h.19l9.87-36.82a8.39 8.39 0 00.28-2c0-1.44-.54-2.16-1.61-2.16h-1.89zm-38.65 1.51l12 42.82h.23l4.69-14-8-28.87zm20.28 0l2.7 9.66h.18l1.89-6.27a5.61 5.61 0 00.18-1.32c0-1.38-.72-2.07-2.15-2.07z"/><g clip-path="url(#clip-path)"><use width="51.02" height="51.02" transform="matrix(7.16 0 0 7.16 265.06 266.85)" xlink:href="#Nouveau_symbole_28"/></g><path class="cls-1" d="M589.63 449.41a142 142 0 11-142-142 142 142 0 01142 142z"/></svg>