<svg version="1.1" id="Layer_1" xmlns="http://www.w3.org/2000/svg" x="0" y="0" viewBox="0 0 288 288" xml:space="preserve"><style>.st1{fill:#4c626e}</style><path d="M2 144c0 78.4 63.6 142 142 142s142-63.6 142-142S222.4 2 144 2 2 65.6 2 144z" fill="#009a54"/><path class="st1" d="M111.2 6c22-5.4 44.9-5.3 66.9.2L144.7 73 111.2 6zM184.6 7.9c21.7 6.5 41.6 18 57.9 33.8l-62.4 41.2 4.5-75zM107.9 82.9l-62.2-41c16.2-15.7 36-27.3 57.7-33.9l4.5 74.9zM178.1 281.8c-21.9 5.6-44.9 5.7-66.9.2l33.5-67 33.4 66.8zM242.5 246.3c-16.3 15.7-36.2 27.3-57.9 33.8l-4.5-74.9 62.4 41.1zM103.4 280c-21.6-6.5-41.4-18.1-57.7-33.8l62.2-41-4.5 74.8z"/><path d="M199.2 102.6h-1.9c-3.4 0-5.6 2.5-6.7 7.3l-18.5 82.6h-5.5l-23.5-89.9h-4.7v22.5H136c-1-6.8-3.1-12.5-6.3-16.8-3.2-4.4-6.9-6.6-10.8-6.6-3-.1-5.9 1-8 3.1-2 2.1-3 4.8-3 8.4 0 4.2 1.5 8.3 4.3 11.4 2.9 3.3 7.9 7 15.1 11 11.4 6.4 17.1 15.8 17.1 28.2 0 8.1-2.3 14.9-7 20.4-4.2 5.2-10.5 8.2-17.2 8.2-3.8.1-7.5-1-10.6-3.1-3-2.1-5-3.1-6.1-3.1-2.4 0-3.8 1.7-4 5.1h-2.7v-28.4h2.4c1.4 8.6 4 15.3 7.9 20.1 3.9 4.8 8.3 7.2 13.2 7.2 3.4 0 6.6-1.5 8.7-4.2 2.4-3 3.6-6.8 3.5-10.6 0-7-3.7-13.1-11.1-18.4-2.3-1.3-5.3-3.2-9.2-5.8-3.2-2.1-6.1-4.4-8.7-7.1-2.2-2.5-3.9-5.4-5-8.6-1.3-3.3-2-6.9-2-10.4 0-7.5 2-13.7 6-18.6 3.6-4.7 9.2-7.4 15.1-7.3 3.5 0 6.9.8 9.9 2.4 3 1.6 4.9 2.4 5.5 2.4.8 0 1.6-.4 2.2-1 .6-.6.9-1.4.9-2.2v-.5h30.7v2.3H161l15.2 59.2h.3l11.8-52.4c.2-.7.3-1.5.3-2.2 0-2.9-1.5-4.3-4.5-4.3h-3.3v-2.4h18.7l-.3 2.1z" fill="#3a9948"/><path d="M180.6 102.6h3.3c3 0 4.5 1.4 4.5 4.3 0 .8-.1 1.5-.3 2.2l-11.8 52.4h-.3l-15-59.1h5.9v-2.3h-30.7v.5c0 .8-.3 1.7-.9 2.2-.6.6-1.4 1-2.2 1-.6 0-2.5-.8-5.5-2.4-3.1-1.6-6.5-2.4-9.9-2.4-5.9-.1-11.5 2.6-15.1 7.3-4 4.9-6 11.1-6 18.6 0 3.6.7 7.1 2 10.4 1.1 3.1 2.8 6 5 8.6 2.6 2.7 5.6 5.1 8.7 7.1 3.8 2.6 6.9 4.5 9.2 5.8 7.3 5.2 11 11.4 11.1 18.4.1 3.8-1.1 7.6-3.4 10.6-2.1 2.7-5.3 4.3-8.7 4.2-4.9 0-9.3-2.4-13.2-7.2-3.9-4.8-6.5-11.5-7.9-20.1h-2.5v28.4h2.7c.2-3.4 1.6-5.1 4-5.1 1 0 3 1 6.1 3.1 3.1 2.1 6.8 3.2 10.6 3.1 6.7.1 13.1-2.9 17.2-8.2 4.7-5.5 7-12.2 7-20.4 0-12.4-5.7-21.8-17.1-28.2-7.2-4.1-12.2-7.7-15.1-11-2.8-3.1-4.3-7.2-4.3-11.4 0-3.6 1-6.3 3-8.4 2.1-2.1 5-3.2 8-3.1 4 0 7.6 2.2 10.8 6.6s5.3 10 6.3 16.8h2.4v-22.5h4.7l23.5 90h5.5l18.5-82.6c1.1-4.9 3.3-7.3 6.7-7.3h1.9v-2.4h-18.7v2.5z" fill="#fff"/><path d="M286 144c0 78.4-63.6 142-142 142S2 222.4 2 144 65.6 2 144 2s142 63.6 142 142z" fill="none" stroke="#f3eebf" stroke-miterlimit="10"/></svg>