<svg id="Layer_1" data-name="Layer 1" xmlns="http://www.w3.org/2000/svg" viewBox="0 0 288 288"><defs><style>.cls-1{fill:#009a54}.cls-3{fill:#9794a4}</style></defs><path class="cls-1" d="M2 144A142 142 0 10144 2 142 142 0 002 144z"/><path class="cls-1" d="M161.41 103h-5.14v36.1h5.4a5.76 5.76 0 004.74-2.37 9.69 9.69 0 001.84-6.12v-16.84c0-7.19-2.25-10.77-6.84-10.77zM127.84 184.37h6.06v-.13h5.91v-81.22l-11.97.09v81.26z"/><path d="M144.55 100.81H94.42v22.84h2.3a33 33 0 014.28-14.16 12.09 12.09 0 0110.13-6.38v81.13h-5.93l-.12 2.3h57.25v-2.3h-6.06V141.4h4.61a7 7 0 015.3 2 7.64 7.64 0 011.94 5.55v22q0 7.63 3.55 11.91a12.06 12.06 0 009.8 4.28c3.82 0 6.59-.8 8.33-2.4s2.81-4.16 3.25-7.66l-2.44-.6c-.26 3.77-1.28 5.65-3.09 5.65a2.14 2.14 0 01-1.44-.65 1.83 1.83 0 01-.73-1.32l-.26-2.43v-23c0-4.52-1.16-7.87-3.45-10.07s-6.18-3.63-11.61-4.34h-1.13V140q17.31-3.15 17.31-19.53a19.32 19.32 0 00-5.49-14.13 18.82 18.82 0 00-13.92-5.55zm-4.73 83.43h-5.92v.13h-6.06v-81.26l12-.09zm28.43-53.63a9.69 9.69 0 01-1.84 6.12 5.76 5.76 0 01-4.74 2.37h-5.4V103h5.14c4.55 0 6.84 3.6 6.84 10.79z" fill="#fff"/><path class="cls-3" d="M218.75 26.29L179 19.84l28.59 28.36-35.81-18.41 18.42 35.8L161.84 37l6.45 39.73-18.14-35.91L144 80.6l-6.15-39.78-18.14 35.93L126.15 37 97.79 65.59l18.41-35.8L80.41 48.2 109 19.84l-39.76 6.45 35.94-18.14-1.55-.24a140.83 140.83 0 0180.74 0l-1.55.24zM69.24 261.72l39.76 6.45-28.59-28.36 35.79 18.41-18.41-35.8L126.15 251l-6.44-39.74 18.14 35.95 6.15-39.8 6.15 39.79 18.14-35.95-6.45 39.75 28.36-28.57-18.42 35.8 35.81-18.41L179 268.17l39.73-6.45-35.93 18.14 1.52.24a140.86 140.86 0 01-80.68 0l1.52-.24z"/><path d="M286 144A142 142 0 11144 2a142 142 0 01142 142z" fill="none" stroke="#f3eebf" stroke-miterlimit="10"/></svg>