<svg width="48" height="48" version="1.1" viewBox="-12.5 -12.5 25 25" xmlns="http://www.w3.org/2000/svg"><g transform="matrix(.03213 0 0 .03213 -11.814 -11.838)"><path d="m674.42 123.51c-0.224-9.759-7.216-18.177-16.982-19.511-45.521-6.252-90.416-17.129-134.43-33.248-43.802-16.042-92.267-38.436-144.54-67.93-6.637-3.747-12.88-3.77-19.51 0-51.911 29.479-100.03 51.826-144.18 67.93-44.024 16.058-88.897 27.004-134.06 33.248-9.767 1.349-16.62 9.752-17.707 19.511-4.332 185.37 36.27 337.04 121.41 454.93 46.384 64.222 104.43 116.35 174.53 156.1 5.419 3.978 13.915 3.677 20.235 0 69.564-40.41 127.53-92.159 173.81-156.1 85.257-117.82 125.53-269.56 121.41-454.93zm-153.94 432.17c-40.225 55.564-90.694 101.9-151.76 139.11-61.069-37.218-111.78-83.378-151.76-139.11-77.458-107.96-115.27-246.08-113.83-414.46 42.637-6.868 84.92-18.432 127.2-33.972 42.275-15.533 88.528-36.856 138.4-63.952 49.868 27.096 95.757 48.419 138.03 63.952 42.275 15.541 84.912 27.104 127.56 33.972 1.442 169.47-36.609 307.78-113.83 414.46z"/><path d="m103.13 141.21 417.35 414.46" fill="none" stroke="#000" stroke-width="1px"/><rect x="61.595" y="211.68" width="614.22" height="275.88"/><text x="144.01125" y="319.25385" font-family="sans-serif" font-size="192px" style="line-height:1.25" xml:space="preserve"><tspan x="144.01125" y="319.25385"/></text><text x="126.66008" y="408.61023" font-family="sans-serif" font-size="24px" style="line-height:1.25" xml:space="preserve"><tspan x="126.66008" y="408.61023" fill="#ffffff" font-family="Constantia" font-size="192px">L&amp;YR</tspan></text><g stroke-width=".86754"><path d="m352.89 683.24c-73.757-49.219-123.45-102.52-167.82-180-4.2121-7.3553-7.6584-13.699-7.6584-14.097s61.406-0.72417 136.46-0.72417h136.46l68.454 67.389-2.6005 3.8154c-5.539 8.1266-23.311 29.568-34.462 41.576-25.483 27.444-53.239 51.601-83.955 73.07-15.859 11.085-27.916 18.889-29.184 18.889-0.45563 0-7.5169-4.4634-15.692-9.9186z" fill="#5a2ca0"/><path d="m140.18 175.88c-31.426-31.433-34.852-35.129-32.962-35.554 1.1599-0.26095 5.6224-1.0948 9.9168-1.853 23.085-4.0759 57.902-12.999 84.585-21.679 49.177-15.996 97.888-37.259 160.06-69.868l6.9403-3.6402 20.821 10.936c79.382 41.693 152.36 68.84 221.68 82.46 8.3393 1.6386 16.884 3.2555 18.988 3.5929l3.8252 0.61353-0.57592 28.746c-0.31674 15.81-0.82594 31.576-1.1315 35.036l-0.55564 6.2896h-456.51z" fill="#6f917c"/><path d="m105.24 208.86c-0.27633-1.5507-0.77057-16.874-1.0983-34.051l-0.59591-31.231 29.412 28.778c16.176 15.828 31.742 31.151 34.59 34.051l5.1781 5.2732h-66.983z" fill="#5a2ca0"/><path d="m487.12 520.93-33.546-33.378h53.716c29.544 0 53.716 0.25983 53.716 0.5774 0 1.0631-9.7132 18.825-16.289 29.786-5.252 8.7548-23.492 36.501-23.938 36.415-0.0624-0.012-15.209-15.042-33.659-33.4z" fill="#6f917c"/></g></g></svg>
