<svg id="Layer_1" data-name="Layer 1" xmlns="http://www.w3.org/2000/svg" viewBox="0 0 40 40"><defs><style>.cls-1{fill:brown;}.cls-2{fill:#ffffff;}</style></defs><circle class="cls-1" cx="20" cy="20" r="19.62"/><path class="cls-2" d="M16.52,14.12H18a3.6,3.6,0,0,1,2.19.6A2,2,0,0,1,21,16.48a2.14,2.14,0,0,1-1.63,2.25c1.3.38,1.94,1.1,1.94,2.18,0,1.88-1.18,2.83-3.54,2.83H13.43V22.55l1-.34V15.73l-1-.41V14.19Zm0,1.61v2.32h.79c1,0,1.53-.42,1.53-1.27a1,1,0,0,0-.32-.78,1.26,1.26,0,0,0-.84-.27Zm.79,3.75h-.79v2.66h1.13a1.6,1.6,0,0,0,1.09-.33,1.12,1.12,0,0,0,.37-.9,1.29,1.29,0,0,0-.43-1.08A2.23,2.23,0,0,0,17.31,19.48Z"/><path class="cls-2" d="M25.55,15.73v6.56A4.35,4.35,0,0,1,24.86,25a2.93,2.93,0,0,1-2.42.87l-1-.1.18-1.36h.65c.8,0,1.2-.44,1.2-1.31V15.73l-1-.41V14.19l4.16-.07v1.2Z"/></svg>