<svg id="Layer_1" data-name="Layer 1" xmlns="http://www.w3.org/2000/svg" viewBox="0 0 40 40"><defs><style>.cls-1{fill:pink;}.cls-2{fill:#000000;}</style></defs><circle class="cls-1" cx="20" cy="20" r="19.62"/><path class="cls-2" d="M13.13,22.55v1.19H8.94V22.55l1-.34V15.73l-1-.41V14.19l4.19-.07v1.2l-1.05.41v2.35H13l2.28-3.89,2.48-.07v1.2l-1.21.39-1.8,3,2.55,3.53,1,.34v1.19H14.12V22.55l.79-.33-1.84-2.64h-1v2.63Z"/><path class="cls-2" d="M23.42,22.55v1.19H19V22.55l1-.34V15.73l-1-.41V14.19l3.13-.07H26v2.59H24.71l-.34-1H22.16v2.42H25v1.5H22.16v2.56Z"/><path class="cls-2" d="M30,15.73v6.56A4.35,4.35,0,0,1,29.34,25a2.92,2.92,0,0,1-2.42.87l-1-.1.18-1.36h.66c.8,0,1.2-.44,1.2-1.31V15.73l-1-.41V14.19l4.16-.07v1.2Z"/></svg>