<svg data-name="Layer 1" xmlns="http://www.w3.org/2000/svg" viewBox="0 0 40 40"><circle cx="20" cy="20" r="19.62" fill="pink"/><path d="M13.13 22.55v1.19H8.94v-1.19l1-.34v-6.48l-1-.41v-1.13l4.19-.07v1.2l-1.05.41v2.35H13l2.28-3.89 2.48-.07v1.2l-1.21.39-1.8 3 2.55 3.53 1 .34v1.19h-4.18v-1.22l.79-.33-1.84-2.64h-1v2.63zm10.29 0v1.19H19v-1.19l1-.34v-6.48l-1-.41v-1.13l3.13-.07H26v2.59h-1.29l-.34-1h-2.21v2.42H25v1.5h-2.84v2.56zM30 15.73v6.56a4.35 4.35 0 01-.66 2.71 2.92 2.92 0 01-2.42.87l-1-.1.18-1.36h.66c.8 0 1.2-.44 1.2-1.31v-7.37l-1-.41v-1.13l4.16-.07v1.2z"/></svg>