<svg data-name="Layer 1" xmlns="http://www.w3.org/2000/svg" viewBox="0 0 40 40"><circle cx="20" cy="20" r="19.62" fill="#fff"/><path d="M11.68 22.55v1.19H7.5v-1.19l1-.34v-6.48l-1-.41v-1.13l4.18-.07v1.2l-1 .41v2.35h.93l2.28-3.89 2.48-.07v1.2l-1.21.39-1.8 3 2.55 3.53 1 .34v1.19h-4.23v-1.22l.79-.33-1.84-2.64h-1v2.63zm9.95 0v1.19h-4.18v-1.19l1-.34v-6.48l-1-.41v-1.13l4.18-.07v1.2l-1 .41V18h3.57v-2.27l-1.05-.41v-1.13l4.18-.07v1.2l-1 .41v6.48l1 .34v1.19h-4.22v-1.19l1.05-.34v-2.63h-3.57v2.63zm9.85-6.82v6.56a4.35 4.35 0 01-.69 2.71 2.93 2.93 0 01-2.42.87l-1-.1.18-1.36h.65c.8 0 1.2-.44 1.2-1.31v-7.37l-1-.41v-1.13l4.16-.07v1.2z"/></svg>