<svg id="Layer_1" data-name="Layer 1" xmlns="http://www.w3.org/2000/svg" viewBox="0 0 40 40"><defs><style>.cls-1{fill:#ffffff;}.cls-2{fill:#000000;}</style></defs><circle class="cls-1" cx="20" cy="20" r="19.62"/><path class="cls-2" d="M11.68,22.55v1.19H7.5V22.55l1-.34V15.73l-1-.41V14.19l4.18-.07v1.2l-1,.41v2.35h.93l2.28-3.89,2.48-.07v1.2l-1.21.39-1.8,3,2.55,3.53,1,.34v1.19H12.68V22.55l.79-.33-1.84-2.64h-1v2.63Z"/><path class="cls-2" d="M21.63,22.55v1.19H17.45V22.55l1-.34V15.73l-1-.41V14.19l4.18-.07v1.2l-1,.41V18h3.57V15.73l-1.05-.41V14.19l4.18-.07v1.2l-1,.41v6.48l1,.34v1.19H23.11V22.55l1.05-.34V19.58H20.59v2.63Z"/><path class="cls-2" d="M31.48,15.73v6.56A4.35,4.35,0,0,1,30.79,25a2.93,2.93,0,0,1-2.42.87l-1-.1.18-1.36h.65c.8,0,1.2-.44,1.2-1.31V15.73l-1-.41V14.19l4.16-.07v1.2Z"/></svg>