<svg id="Layer_1" data-name="Layer 1" xmlns="http://www.w3.org/2000/svg" viewBox="0 0 40 40"><defs><style>.cls-1{fill:turquoise;}.cls-2{fill:#000000;}</style></defs><circle class="cls-1" cx="19.99" cy="20" r="19.62"/><path class="cls-2" d="M10.64,24.05v1.18H6.76V24.05l1-.34V17.23l-1-.41V15.69l3.52-.07,2,4.54,2.14-4.47,3.27-.07v1.2l-1,.41v6.48l1,.34v1.18H13.71V24.05l1.06-.34V18.54c-.16.43-.35.87-.56,1.33l-.72,1.5c-.27.54-.48,1-.62,1.27l-1.48.07L9.83,19.48l-.24-.71v4.94Z"/><path class="cls-2" d="M23.46,15.46a4,4,0,0,1,3.17,1.27,5.21,5.21,0,0,1,1.12,3.57A5.35,5.35,0,0,1,26.49,24a4.24,4.24,0,0,1-3.3,1.4,4,4,0,0,1-3.14-1.25A5.42,5.42,0,0,1,19,20.5a5.31,5.31,0,0,1,1.21-3.69A4.18,4.18,0,0,1,23.46,15.46Zm-2.61-1.77a1,1,0,0,1,.3-.77.94.94,0,0,1,.71-.29,1,1,0,0,1,.73.27,1.14,1.14,0,0,1,.25.79,1,1,0,0,1-.29.78,1,1,0,0,1-.71.28C21.18,14.75,20.85,14.4,20.85,13.69Zm2.54,3.47a1.87,1.87,0,0,0-1.61.76,4.47,4.47,0,0,0-.54,2.52,4.82,4.82,0,0,0,.49,2.47,1.67,1.67,0,0,0,1.52.8,1.9,1.9,0,0,0,1.65-.79,4.5,4.5,0,0,0,.56-2.55,4.45,4.45,0,0,0-.52-2.44A1.74,1.74,0,0,0,23.39,17.16Zm.44-3.47a1,1,0,0,1,.3-.77.94.94,0,0,1,.7-.29c.66,0,1,.35,1,1.06a1,1,0,0,1-.3.78,1,1,0,0,1-.71.28C24.15,14.75,23.83,14.4,23.83,13.69Z"/><path class="cls-2" d="M32.21,17.23v6.56a4.37,4.37,0,0,1-.69,2.72,2.93,2.93,0,0,1-2.42.86l-1-.09.18-1.36h.66c.8,0,1.2-.44,1.2-1.31V17.23l-1-.41V15.69l4.16-.07v1.2Z"/></svg>