<svg data-name="Layer 1" xmlns="http://www.w3.org/2000/svg" viewBox="0 0 40 40"><circle cx="19.99" cy="20" r="19.62" fill="#40e0d0"/><path d="M10.64 24.05v1.18H6.76v-1.18l1-.34v-6.48l-1-.41v-1.13l3.52-.07 2 4.54 2.14-4.47 3.27-.07v1.2l-1 .41v6.48l1 .34v1.18h-3.98v-1.18l1.06-.34v-5.17c-.16.43-.35.87-.56 1.33l-.72 1.5c-.27.54-.48 1-.62 1.27l-1.48.07-1.56-3.23-.24-.71v4.94zm12.82-8.59a4 4 0 013.17 1.27 5.21 5.21 0 011.12 3.57 5.35 5.35 0 01-1.26 3.7 4.24 4.24 0 01-3.3 1.4 4 4 0 01-3.14-1.25A5.42 5.42 0 0119 20.5a5.31 5.31 0 011.21-3.69 4.18 4.18 0 013.25-1.35zm-2.61-1.77a1 1 0 01.3-.77.94.94 0 01.71-.29 1 1 0 01.73.27 1.14 1.14 0 01.25.79 1 1 0 01-.29.78 1 1 0 01-.71.28c-.66 0-.99-.35-.99-1.06zm2.54 3.47a1.87 1.87 0 00-1.61.76 4.47 4.47 0 00-.54 2.52 4.82 4.82 0 00.49 2.47 1.67 1.67 0 001.52.8 1.9 1.9 0 001.65-.79 4.5 4.5 0 00.56-2.55 4.45 4.45 0 00-.52-2.44 1.74 1.74 0 00-1.55-.77zm.44-3.47a1 1 0 01.3-.77.94.94 0 01.7-.29c.66 0 1 .35 1 1.06a1 1 0 01-.3.78 1 1 0 01-.71.28c-.67 0-.99-.35-.99-1.06zm8.38 3.54v6.56a4.37 4.37 0 01-.69 2.72 2.93 2.93 0 01-2.42.86l-1-.09.18-1.36h.66c.8 0 1.2-.44 1.2-1.31v-7.38l-1-.41v-1.13l4.16-.07v1.2z"/></svg>