<svg id="Layer_1" data-name="Layer 1" xmlns="http://www.w3.org/2000/svg" viewBox="0 0 40 40"><defs><style>.cls-1{fill:yellow;}.cls-2{fill:#000000;}</style></defs><circle class="cls-1" cx="20" cy="20" r="19.62"/><path class="cls-2" d="M11.24,22.55v1.19H7.36V22.55l1-.34V15.73l-1-.41V14.19l3.52-.07,2,4.54,2.14-4.47,3.27-.07v1.2l-1,.41v6.48l1,.34v1.19H14.31V22.55l1.06-.34V17c-.16.43-.35.87-.56,1.33s-.46,1-.72,1.5-.48,1-.62,1.28L12,21.21,10.43,18l-.24-.71v4.94Z"/><path class="cls-2" d="M25.42,22.55v1.19H21.26V22.55l1-.34v-1.8l-2.5-4.72-.88-.37V14.19l3.85-.07v1.2l-.69.29,1.36,3,1.45-3-.75-.3V14.19l3.68-.07v1.2l-.94.37L24.4,20.4v1.81Z"/><path class="cls-2" d="M31.61,15.73v6.56A4.35,4.35,0,0,1,30.92,25a2.92,2.92,0,0,1-2.42.87l-1-.1.17-1.36h.66c.8,0,1.2-.44,1.2-1.31V15.73l-1-.41V14.19l4.16-.07v1.2Z"/></svg>