<svg id="Layer_1" data-name="Layer 1" xmlns="http://www.w3.org/2000/svg" viewBox="0 0 40 40"><defs><style>.cls-2{fill:#fff}</style></defs><circle cx="19.99" cy="20" r="19.62" fill="purple"/><path class="cls-2" d="M12.34 15.46a4 4 0 013.17 1.28 5.17 5.17 0 011.12 3.56 5.35 5.35 0 01-1.26 3.7 4.24 4.24 0 01-3.3 1.4 4 4 0 01-3.14-1.25 5.42 5.42 0 01-1.09-3.65 5.31 5.31 0 011.21-3.69 4.18 4.18 0 013.29-1.35zm-.07 1.71a1.87 1.87 0 00-1.61.75 4.47 4.47 0 00-.54 2.52 4.82 4.82 0 00.49 2.47 1.69 1.69 0 001.53.8 1.89 1.89 0 001.64-.79 4.5 4.5 0 00.56-2.55 4.55 4.55 0 00-.51-2.44 1.76 1.76 0 00-1.56-.76z"/><path class="cls-2" d="M12.34 15.46a4 4 0 013.17 1.28 5.17 5.17 0 011.12 3.56 5.36 5.36 0 01-1.26 3.7 4.24 4.24 0 01-3.3 1.4 4 4 0 01-3.14-1.25 5.42 5.42 0 01-1.09-3.65 5.31 5.31 0 011.21-3.69 4.18 4.18 0 013.29-1.35zm-2.6-1.77a1 1 0 01.29-.77 1 1 0 011.44 0 1.14 1.14 0 01.26.79 1 1 0 01-.3.78 1 1 0 01-.71.28c-.66-.02-.98-.37-.98-1.08zm2.53 3.47a1.88 1.88 0 00-1.61.76 4.44 4.44 0 00-.54 2.52 4.82 4.82 0 00.49 2.47 1.69 1.69 0 001.53.8 1.89 1.89 0 001.64-.79 4.5 4.5 0 00.56-2.55 4.55 4.55 0 00-.51-2.44 1.77 1.77 0 00-1.56-.77zm.44-3.47a1 1 0 01.3-.77 1 1 0 01.71-.3c.65 0 1 .36 1 1.07a1 1 0 01-.3.78 1 1 0 01-.71.28c-.71 0-1-.35-1-1.06zm9.4 10.36v1.18h-4.18v-1.18l1-.34v-6.48l-1-.41v-1.13l4.18-.07v1.2l-1.05.41v2.35H22l2.28-3.89 2.48-.07v1.2l-1.22.39-1.79 3 2.54 3.53 1 .34v1.18h-4.18v-1.21l.79-.33-1.84-2.64h-1v2.63z"/><path class="cls-2" d="M31.11 17.23v6.56a4.35 4.35 0 01-.69 2.72 2.92 2.92 0 01-2.42.87l-1-.1.17-1.36h.66c.8 0 1.2-.44 1.2-1.31v-7.38l-1-.41v-1.13l4.16-.07v1.2z"/></svg>