<svg id="Layer_1" data-name="Layer 1" xmlns="http://www.w3.org/2000/svg" viewBox="0 0 40 40"><defs><style>.cls-1{fill:purple;}.cls-2{fill:#ffffff;}</style></defs><circle class="cls-1" cx="19.99" cy="20" r="19.62"/><path class="cls-2" d="M12.34,15.46a4,4,0,0,1,3.17,1.28,5.17,5.17,0,0,1,1.12,3.56A5.35,5.35,0,0,1,15.37,24a4.24,4.24,0,0,1-3.3,1.4,4,4,0,0,1-3.14-1.25A5.42,5.42,0,0,1,7.84,20.5a5.31,5.31,0,0,1,1.21-3.69A4.18,4.18,0,0,1,12.34,15.46Zm-.07,1.71a1.87,1.87,0,0,0-1.61.75,4.47,4.47,0,0,0-.54,2.52,4.82,4.82,0,0,0,.49,2.47,1.69,1.69,0,0,0,1.53.8,1.89,1.89,0,0,0,1.64-.79,4.5,4.5,0,0,0,.56-2.55,4.55,4.55,0,0,0-.51-2.44A1.76,1.76,0,0,0,12.27,17.17Z"/><path class="cls-2" d="M12.34,15.46a4,4,0,0,1,3.17,1.28,5.17,5.17,0,0,1,1.12,3.56A5.36,5.36,0,0,1,15.37,24a4.24,4.24,0,0,1-3.3,1.4,4,4,0,0,1-3.14-1.25A5.42,5.42,0,0,1,7.84,20.5a5.31,5.31,0,0,1,1.21-3.69A4.18,4.18,0,0,1,12.34,15.46Zm-2.6-1.77a1,1,0,0,1,.29-.77,1,1,0,0,1,1.44,0,1.14,1.14,0,0,1,.26.79,1,1,0,0,1-.3.78,1,1,0,0,1-.71.28C10.06,14.75,9.74,14.4,9.74,13.69Zm2.53,3.47a1.88,1.88,0,0,0-1.61.76,4.44,4.44,0,0,0-.54,2.52,4.82,4.82,0,0,0,.49,2.47,1.69,1.69,0,0,0,1.53.8,1.89,1.89,0,0,0,1.64-.79,4.5,4.5,0,0,0,.56-2.55,4.55,4.55,0,0,0-.51-2.44A1.77,1.77,0,0,0,12.27,17.16Zm.44-3.47a1,1,0,0,1,.3-.77,1,1,0,0,1,.71-.3c.65,0,1,.36,1,1.07a1,1,0,0,1-.3.78,1,1,0,0,1-.71.28C13,14.75,12.71,14.4,12.71,13.69Z"/><path class="cls-2" d="M22.11,24.05v1.18H17.93V24.05l1-.34V17.23l-1-.41V15.69l4.18-.07v1.2l-1.05.41v2.35H22l2.28-3.89,2.48-.07v1.2l-1.22.39-1.79,3,2.54,3.53,1,.34v1.18H23.11V24.05l.79-.33-1.84-2.64h-1v2.63Z"/><path class="cls-2" d="M31.11,17.23v6.56a4.35,4.35,0,0,1-.69,2.72,2.92,2.92,0,0,1-2.42.87l-1-.1.17-1.36h.66c.8,0,1.2-.44,1.2-1.31V17.23l-1-.41V15.69l4.16-.07v1.2Z"/></svg>