<svg xmlns="http://www.w3.org/2000/svg" viewBox="0 0 14.182 14.139" height="53.44" width="53.6"><path d="M.085 7.07C.085 3.21 3.22.085 7.09.085s7.006 3.125 7.006 6.985c0 3.86-3.136 6.985-7.006 6.985S.085 10.929.085 7.07z" fill="#fff" fill-rule="evenodd"/><path d="M.085 7.07C.085 3.21 3.22.085 7.09.085s7.006 3.125 7.006 6.985c0 3.86-3.136 6.985-7.006 6.985S.085 10.929.085 7.07z" fill="none" stroke="#000" stroke-width=".169" stroke-miterlimit="10"/><path d="M5.76.84c.464.195.973.3 1.496.314a4.95 4.95 0 001.6-.24l.12.39c-.045.015-.12.06-.21.104-.06.06-.134.12-.179.18a.934.934 0 00-.15.24c-.044.104-.09.194-.104.313.194.075.389.15.568.225.18.06.374.12.554.15.21.014.389.03.583.014.195 0 .404-.045.613-.134l.39.284a.328.328 0 00-.18.194c-.03.09-.045.18-.06.3a1.436 1.436 0 000 .358c.015.135.03.285.06.45.03.149.075.298.12.433.044.15.09.314.164.464l.18.493c.06.15.134.314.194.464L11.294 6c.285.24.509.539.674.898.15.374.239.793.239 1.286 0 .195-.03.374-.105.569-.06.179-.15.358-.254.553-.105.18-.24.359-.389.538a3.917 3.917 0 01-1.675 1.032c-.374.12-.778.195-1.197.255 0 .329-.03.628-.134.852-.075.21-.18.404-.3.539-.12.15-.239.254-.403.359-.15.104-.3.18-.45.239a2.577 2.577 0 01-.986.105c-.314-.03-.569-.18-.778-.449-.075-.12-.12-.21-.165-.284a.464.464 0 01-.074-.254c-.015-.075-.015-.15-.015-.24 0-.075.015-.15.015-.24.06-.119.104-.223.164-.298a2.49 2.49 0 01.21-.195.71.71 0 01.209-.134.57.57 0 01.24-.045c-.225-.06-.42-.12-.614-.18a5.977 5.977 0 01-.553-.164 3.992 3.992 0 00-.509-.165c-.15-.045-.314-.09-.464-.134l-.359-.045a1.562 1.562 0 00-.374 0c-.134.015-.254.03-.388.09-.12.044-.27.134-.42.254l-.343-.39c.21-.343.404-.687.583-1.031.165-.344.3-.703.404-1.077.105-.359.18-.733.24-1.122.03-.374.06-.808.06-1.286L3.8 5.79a4.29 4.29 0 01-.479-.793 1.711 1.711 0 01-.194-.673c0-.224.03-.419.105-.598.074-.18.179-.36.299-.539a4.47 4.47 0 01.568-.598 2.65 2.65 0 01.658-.374c.24-.105.479-.164.748-.194.254-.03.509-.015.763.015a1.731 1.731 0 00-.284-.554 2.621 2.621 0 00-.36-.344zm2.453 1.87c-.09.389-.134.778-.134 1.166 0 .39.015.763.03 1.122a3.013 3.013 0 011.66.135c.24.075.493.18.718.299.24.12.478.254.718.404a4.507 4.507 0 00-.464-1.077 4.55 4.55 0 00-.703-.942 4.89 4.89 0 00-.882-.718 3.149 3.149 0 00-.943-.39zm-1.75 0c-.359.075-.643.21-.852.419-.21.209-.314.523-.374.942.03.15.06.284.12.419.044.12.134.239.239.344.104.09.24.164.389.254.15.06.329.12.523.135.015-.404.015-.823.015-1.242-.015-.419-.03-.837-.06-1.271zM8.05 6.42c0 .358.015.702.015 1.046 0 .33.03.658.06.987.03.314.09.629.15.943.059.314.134.643.223.987.27-.12.48-.24.659-.389.194-.15.329-.314.448-.524.12-.194.21-.388.284-.628.045-.224.105-.448.12-.718a1.823 1.823 0 00-.18-.733 1.406 1.406 0 00-.373-.508 2.808 2.808 0 00-.599-.344 2.696 2.696 0 00-.807-.12zm-1.616.059c-.18.015-.389.03-.598.015-.194-.015-.404-.03-.598-.06a3.192 3.192 0 01-.628-.15 3.976 3.976 0 01-.599-.254c-.03.24-.06.479-.104.718-.03.27-.045.509-.03.763s.045.524.104.778c.075.254.18.508.33.763.194.314.403.568.673.777.239.225.523.39.822.524.314.135.658.21 1.017.24.36.03.763 0 1.197-.076a2.125 2.125 0 00-.314-.463c-.12-.12-.255-.24-.404-.36a2.35 2.35 0 00-.464-.268 1.915 1.915 0 00-.463-.165c-.165-.18-.27-.344-.285-.523a.8.8 0 01.18-.494c.105-.583.164-1.182.164-1.765zm.225 4.682c.09.06.164.12.239.18.06.044.105.104.165.179.03.09.044.15.06.239.014.06.014.15-.016.224 0 .045.015.09.045.12.015.03.045.06.075.09.03.015.06.03.105.045h.164c.105-.045.195-.12.3-.195.074-.075.149-.164.209-.24.045-.089.075-.179.105-.283.015-.09.044-.195.074-.3-.269 0-.523 0-.762-.014l-.763-.045zm0 0"/></svg>