<?xml version="1.0" encoding="UTF-8" standalone="no"?>
<svg
   xmlns:dc="http://purl.org/dc/elements/1.1/"
   xmlns:cc="http://creativecommons.org/ns#"
   xmlns:rdf="http://www.w3.org/1999/02/22-rdf-syntax-ns#"
   xmlns:svg="http://www.w3.org/2000/svg"
   xmlns="http://www.w3.org/2000/svg"
   xmlns:sodipodi="http://sodipodi.sourceforge.net/DTD/sodipodi-0.dtd"
   xmlns:inkscape="http://www.inkscape.org/namespaces/inkscape"
   sodipodi:docname="SJ.svg"
   inkscape:version="1.0 (1.0+r73+1)"
   id="svg37601"
   version="1.1"
   viewBox="0 0 14.181663 14.139333"
   height="14.139333mm"
   width="14.181663mm">
  <defs
     id="defs37595" />
  <sodipodi:namedview
     inkscape:window-maximized="0"
     inkscape:window-y="0"
     inkscape:window-x="213"
     inkscape:window-height="1025"
     inkscape:window-width="1474"
     showgrid="false"
     inkscape:document-rotation="0"
     inkscape:current-layer="layer1"
     inkscape:document-units="mm"
     inkscape:cy="198.14859"
     inkscape:cx="-193.20001"
     inkscape:zoom="0.35"
     inkscape:pageshadow="2"
     inkscape:pageopacity="0.0"
     borderopacity="1.0"
     bordercolor="#666666"
     pagecolor="#ffffff"
     id="base" />
  <metadata
     id="metadata37598">
    <rdf:RDF>
      <cc:Work
         rdf:about="">
        <dc:format>image/svg+xml</dc:format>
        <dc:type
           rdf:resource="http://purl.org/dc/dcmitype/StillImage" />
        <dc:title></dc:title>
      </cc:Work>
    </rdf:RDF>
  </metadata>
  <g
     transform="translate(-156.95084,-95.739854)"
     id="layer1"
     inkscape:groupmode="layer"
     inkscape:label="Layer 1">
    <g
       transform="translate(44.661672,-147.92014)"
       id="g37579">
      <path
         inkscape:connector-curvature="0"
         id="path5903"
         style="fill:#ffffff;fill-opacity:1;fill-rule:evenodd;stroke:none;stroke-width:0.352778"
         d="m 112.37383,250.72966 c 0,-3.85938 3.13619,-6.985 7.00617,-6.985 3.86997,0 7.00616,3.12562 7.00616,6.985 0,3.85939 -3.13619,6.985 -7.00616,6.985 -3.86998,0 -7.00617,-3.12561 -7.00617,-6.985 z" />
      <path
         inkscape:connector-curvature="0"
         id="path5905"
         style="fill:none;stroke:#000000;stroke-width:0.169333;stroke-linecap:butt;stroke-linejoin:miter;stroke-miterlimit:10;stroke-dasharray:none;stroke-opacity:1"
         d="m 112.37383,250.72966 c 0,-3.85938 3.13619,-6.985 7.00617,-6.985 3.86997,0 7.00616,3.12562 7.00616,6.985 0,3.85939 -3.13619,6.985 -7.00616,6.985 -3.86998,0 -7.00617,-3.12561 -7.00617,-6.985 z" />
      <g
         transform="matrix(3.618013,0,0,3.618013,-491.49857,682.47683)"
         id="g11357-5-1-5"
         style="display:inline;fill:#000000;fill-opacity:1;stroke-width:0.0975059">
        <g
           style="fill:#000000;fill-opacity:1;stroke-width:0.0975059"
           transform="matrix(0.26458333,0,0,0.26458333,167.29355,-118.05726)"
           id="use11355-1-9-7">
          <path
             id="path29086-5-7-6"
             d="m 4.46875,-11.328125 c 0.484375,0.203125 1.015625,0.3125 1.5625,0.328125 0.5625,0 1.109375,-0.0625 1.671875,-0.25 l 0.125,0.40625 c -0.046875,0.01563 -0.125,0.0625 -0.21875,0.109375 -0.0625,0.0625 -0.140625,0.125 -0.1875,0.1875 -0.0625,0.0625 -0.109375,0.15625 -0.15625,0.25 C 7.21875,-10.1875 7.171875,-10.09375 7.15625,-9.96875 7.359375,-9.890625 7.5625,-9.8125 7.75,-9.734375 c 0.1875,0.0625 0.390625,0.125 0.578125,0.15625 0.21875,0.015625 0.40625,0.03125 0.609375,0.015625 0.203125,0 0.421875,-0.046875 0.640625,-0.140625 l 0.40625,0.296875 c -0.09375,0.046875 -0.15625,0.109375 -0.1875,0.203125 -0.03125,0.09375 -0.046875,0.1875 -0.0625,0.3125 -0.015625,0.109375 -0.015625,0.234375 0,0.375 0.015625,0.140625 0.03125,0.296875 0.0625,0.46875 0.03125,0.15625 0.078125,0.3125 0.125,0.453125 0.046875,0.15625 0.09375,0.328125 0.171875,0.484375 0.0625,0.171875 0.125,0.34375 0.1875,0.515625 0.0625,0.15625 0.140625,0.328125 0.203125,0.484375 L 10.25,-5.9375 c 0.296875,0.25 0.53125,0.5625 0.703125,0.9375 0.15625,0.390625 0.25,0.828125 0.25,1.34375 0,0.203125 -0.03125,0.390625 -0.109375,0.59375 -0.0625,0.1875 -0.15625,0.375 -0.265625,0.578125 -0.109375,0.1875 -0.25,0.375 -0.40625,0.5625 -0.15625,0.171875 -0.34375,0.328125 -0.578125,0.5 -0.375,0.265625 -0.765625,0.453125 -1.171875,0.578125 -0.390625,0.125 -0.8125,0.203125 -1.25,0.265625 0,0.34375 -0.03125,0.65625 -0.140625,0.890625 -0.078125,0.21875 -0.1875,0.421875 -0.3125,0.5625 -0.125,0.15625 -0.25,0.265625 -0.421875,0.375 -0.15625,0.109375 -0.3125,0.1875 -0.46875,0.25 -0.375,0.109375 -0.71875,0.140625 -1.03125,0.109375 C 4.71875,1.578125 4.453125,1.421875 4.234375,1.140625 4.15625,1.015625 4.109375,0.921875 4.0625,0.84375 4.015625,0.765625 3.984375,0.6875 3.984375,0.578125 3.96875,0.5 3.96875,0.421875 3.96875,0.328125 c 0,-0.078125 0.015625,-0.15625 0.015625,-0.25 0.0625,-0.125 0.109375,-0.234375 0.171875,-0.3125 C 4.234375,-0.3125 4.296875,-0.375 4.375,-0.4375 4.4375,-0.5 4.5,-0.53125 4.59375,-0.578125 4.65625,-0.609375 4.75,-0.625 4.84375,-0.625 4.609375,-0.6875 4.40625,-0.75 4.203125,-0.8125 4,-0.859375 3.8125,-0.921875 3.625,-0.984375 3.4375,-1.0625 3.265625,-1.109375 3.09375,-1.15625 2.9375,-1.203125 2.765625,-1.25 2.609375,-1.296875 c -0.125,-0.015625 -0.25,-0.03125 -0.375,-0.046875 -0.125,-0.015625 -0.25,-0.015625 -0.390625,0 C 1.703125,-1.328125 1.578125,-1.3125 1.4375,-1.25 1.3125,-1.203125 1.15625,-1.109375 1,-0.984375 L 0.640625,-1.390625 C 0.859375,-1.75 1.0625,-2.109375 1.25,-2.46875 c 0.171875,-0.359375 0.3125,-0.734375 0.421875,-1.125 0.109375,-0.375 0.1875,-0.765625 0.25,-1.171875 0.03125,-0.390625 0.0625,-0.84375 0.0625,-1.34375 l 0.4375,-0.046875 c -0.21875,-0.296875 -0.390625,-0.578125 -0.5,-0.828125 -0.125,-0.234375 -0.1875,-0.484375 -0.203125,-0.703125 0,-0.234375 0.03125,-0.4375 0.109375,-0.625 0.078125,-0.1875 0.1875,-0.375 0.3125,-0.5625 0.1875,-0.234375 0.390625,-0.453125 0.59375,-0.625 0.21875,-0.171875 0.453125,-0.296875 0.6875,-0.390625 0.25,-0.109375 0.5,-0.171875 0.78125,-0.203125 C 4.46875,-10.125 4.734375,-10.10938 5,-10.07812 c -0.078125,-0.25 -0.1875,-0.4375 -0.296875,-0.578125 -0.109375,-0.125 -0.234375,-0.25 -0.375,-0.359375 z M 7.03125,-9.375 c -0.09375,0.40625 -0.140625,0.8125 -0.140625,1.21875 0,0.40625 0.015625,0.796875 0.03125,1.171875 C 7.265625,-7.046875 7.5625,-7.0625 7.84375,-7.03125 8.125,-7 8.390625,-6.9375 8.65625,-6.84375 c 0.25,0.078125 0.515625,0.1875 0.75,0.3125 0.25,0.125 0.5,0.265625 0.75,0.421875 -0.109375,-0.375 -0.265625,-0.765625 -0.484375,-1.125 C 9.453125,-7.609375 9.21875,-7.9375 8.9375,-8.21875 8.640625,-8.515625 8.34375,-8.765625 8.015625,-8.96875 7.6875,-9.171875 7.359375,-9.296875 7.03125,-9.375 Z m -1.828125,0 c -0.375,0.078125 -0.671875,0.21875 -0.890625,0.4375 -0.21875,0.21875 -0.328125,0.546875 -0.390625,0.984375 0.03125,0.15625 0.0625,0.296875 0.125,0.4375 0.046875,0.125 0.140625,0.25 0.25,0.359375 0.109375,0.09375 0.25,0.171875 0.40625,0.265625 0.15625,0.0625 0.34375,0.125 0.546875,0.140625 0.015625,-0.421875 0.015625,-0.859375 0.015625,-1.296875 -0.015625,-0.4375 -0.03125,-0.875 -0.0625,-1.328125 z m 1.65625,3.875 c 0,0.375 0.015625,0.734375 0.015625,1.09375 0,0.34375 0.03125,0.6875 0.0625,1.03125 0.03125,0.328125 0.09375,0.65625 0.15625,0.984375 0.0625,0.328125 0.140625,0.671875 0.234375,1.03125 0.28125,-0.125 0.5,-0.25 0.6875,-0.40625 0.203125,-0.15625 0.34375,-0.328125 0.46875,-0.546875 0.125,-0.203125 0.21875,-0.40625 0.296875,-0.65625 0.046875,-0.234375 0.109375,-0.46875 0.125,-0.75 C 8.890625,-4.015625 8.828125,-4.265625 8.71875,-4.484375 8.625,-4.6875 8.5,-4.875 8.328125,-5.015625 8.15625,-5.15625 7.9375,-5.265625 7.703125,-5.375 7.453125,-5.453125 7.171875,-5.5 6.859375,-5.5 Z m -1.6875,0.0625 c -0.1875,0.015625 -0.40625,0.03125 -0.625,0.015625 -0.203125,-0.015625 -0.421875,-0.03125 -0.625,-0.0625 -0.21875,-0.03125 -0.4375,-0.078125 -0.65625,-0.15625 -0.203125,-0.0625 -0.40625,-0.15625 -0.625,-0.265625 -0.03125,0.25 -0.0625,0.5 -0.109375,0.75 C 2.5,-4.875 2.484375,-4.625 2.5,-4.359375 c 0.015625,0.265625 0.046875,0.546875 0.109375,0.8125 0.078125,0.265625 0.1875,0.53125 0.34375,0.796875 0.203125,0.328125 0.421875,0.59375 0.703125,0.8125 0.25,0.234375 0.546875,0.40625 0.859375,0.546875 0.328125,0.140625 0.6875,0.21875 1.0625,0.25 0.375,0.03125 0.796875,0 1.25,-0.078125 C 6.734375,-1.40625 6.625,-1.5625 6.5,-1.703125 c -0.125,-0.125 -0.265625,-0.25 -0.421875,-0.375 C 5.9375,-2.1875 5.765625,-2.28125 5.59375,-2.359375 5.4375,-2.4375 5.265625,-2.5 5.109375,-2.53125 4.9375,-2.71875 4.828125,-2.890625 4.8125,-3.078125 4.8125,-3.265625 4.875,-3.421875 5,-3.59375 5.109375,-4.203125 5.171875,-4.828125 5.171875,-5.4375 Z m 0.234375,4.890625 c 0.09375,0.0625 0.171875,0.125 0.25,0.1875 0.0625,0.046875 0.109375,0.109375 0.171875,0.1875 0.03125,0.09375 0.046875,0.15625 0.0625,0.25 C 5.90625,0.140625 5.90625,0.234375 5.875,0.3125 c 0,0.046875 0.015625,0.09375 0.046875,0.125 C 5.9375,0.46875 5.96875,0.5 6,0.53125 6.03125,0.546875 6.0625,0.5625 6.109375,0.578125 c 0.046875,0 0.109375,0 0.171875,0 C 6.390625,0.53125 6.484375,0.453125 6.59375,0.375 6.671875,0.296875 6.75,0.203125 6.8125,0.125 6.859375,0.03125 6.890625,-0.0625 6.921875,-0.171875 6.9375,-0.265625 6.96875,-0.375 7,-0.484375 c -0.28125,0 -0.546875,0 -0.796875,-0.015625 C 5.9375,-0.515625 5.671875,-0.53125 5.40625,-0.546875 Z m 0,0"
             style="fill:#000000;fill-opacity:1;stroke:none;stroke-width:0.0975059"
             inkscape:connector-curvature="0" />
        </g>
      </g>
    </g>
  </g>
</svg>
