<svg id="Layer_1" data-name="Layer 1" xmlns="http://www.w3.org/2000/svg" viewBox="0 0 40 40"><defs><style>.cls-1{fill:blue;}.cls-2{fill:#ffffff;}</style></defs><circle class="cls-1" cx="19.99" cy="20" r="19.62"/><path class="cls-2" d="M10,20.86,10.18,22a2.86,2.86,0,0,0,1.34.29A2.25,2.25,0,0,0,12.69,22a.91.91,0,0,0,.47-.81.82.82,0,0,0-.34-.65,2.42,2.42,0,0,0-.85-.42,10.18,10.18,0,0,1-1.11-.4,9.56,9.56,0,0,1-1.11-.55,2.23,2.23,0,0,1-.85-.87,2.6,2.6,0,0,1-.34-1.37,2.55,2.55,0,0,1,1-2.13A3.88,3.88,0,0,1,12,14a8.13,8.13,0,0,1,1.43.14,8.9,8.9,0,0,1,1.16.27l.41.14L15,17.07H13.7l-.34-1.16a3.68,3.68,0,0,0-1.2-.2,1.8,1.8,0,0,0-1.07.27.82.82,0,0,0-.38.69.78.78,0,0,0,.34.64,2.35,2.35,0,0,0,.85.43c.34.11.71.24,1.11.41a10.2,10.2,0,0,1,1.1.53,2.28,2.28,0,0,1,.85.84,2.46,2.46,0,0,1,.34,1.31,2.86,2.86,0,0,1-1,2.33,4.14,4.14,0,0,1-2.66.83,8.28,8.28,0,0,1-1.44-.13A8.58,8.58,0,0,1,9,23.6l-.41-.12V20.86Z"/><path class="cls-2" d="M20.43,22.63v1.19H16.48V22.63l1-.34V15.82l-1-.41V14.27l3.27-.06,3.68,6.29V15.82l-1-.41V14.27l3.89-.06v1.2l-1,.41v8H23l-3.65-6.18v4.65Z"/><path class="cls-2" d="M30.41,15.82v6.55a4.35,4.35,0,0,1-.69,2.72A2.93,2.93,0,0,1,27.3,26l-1-.1.18-1.36h.66c.79,0,1.19-.44,1.19-1.31V15.82l-1-.41V14.27l4.16-.06v1.2Z"/></svg>