<svg data-name="Layer 1" xmlns="http://www.w3.org/2000/svg" viewBox="0 0 40 40"><circle cx="19.99" cy="20" r="19.62" fill="#00f"/><path d="M10 20.86l.18 1.14a2.86 2.86 0 001.34.29 2.25 2.25 0 001.17-.29.91.91 0 00.47-.81.82.82 0 00-.34-.65 2.42 2.42 0 00-.85-.42 10.18 10.18 0 01-1.11-.4 9.56 9.56 0 01-1.11-.55 2.23 2.23 0 01-.85-.87 2.6 2.6 0 01-.34-1.37 2.55 2.55 0 011-2.13A3.88 3.88 0 0112 14a8.13 8.13 0 011.43.14 8.9 8.9 0 011.16.27l.41.14v2.52h-1.3l-.34-1.16a3.68 3.68 0 00-1.2-.2 1.8 1.8 0 00-1.07.27.82.82 0 00-.38.69.78.78 0 00.34.64 2.35 2.35 0 00.85.43c.34.11.71.24 1.11.41a10.2 10.2 0 011.1.53 2.28 2.28 0 01.85.84 2.46 2.46 0 01.34 1.31 2.86 2.86 0 01-1 2.33 4.14 4.14 0 01-2.66.83 8.28 8.28 0 01-1.44-.13A8.58 8.58 0 019 23.6l-.41-.12v-2.62zm10.43 1.77v1.19h-3.95v-1.19l1-.34v-6.47l-1-.41v-1.14l3.27-.06 3.68 6.29v-4.68l-1-.41v-1.14l3.89-.06v1.2l-1 .41v8H23l-3.65-6.18v4.65zm9.98-6.81v6.55a4.35 4.35 0 01-.69 2.72 2.93 2.93 0 01-2.42.91l-1-.1.18-1.36h.66c.79 0 1.19-.44 1.19-1.31v-7.41l-1-.41v-1.14l4.16-.06v1.2z" fill="#fff"/></svg>