<svg data-name="Layer 1" xmlns="http://www.w3.org/2000/svg" viewBox="0 0 40 40"><circle cx="19.99" cy="20" r="19.62"/><path d="M11.23 20.86l.21 1.14a2.72 2.72 0 001.33.29A2.27 2.27 0 0014 22a.91.91 0 00.47-.81.78.78 0 00-.34-.64 2.35 2.35 0 00-.85-.43 10.18 10.18 0 01-1.11-.4 11.48 11.48 0 01-1.17-.54 2.32 2.32 0 01-.85-.88 2.6 2.6 0 01-.34-1.37 2.56 2.56 0 011-2.13 3.94 3.94 0 012.5-.76 8.13 8.13 0 011.43.14 8.9 8.9 0 011.16.27l.41.14-.07 2.48H15l-.34-1.16a3.62 3.62 0 00-1.19-.2 1.8 1.8 0 00-1.07.27.8.8 0 000 1.34 2.5 2.5 0 00.85.42c.34.11.71.24 1.11.41a10.2 10.2 0 011.1.53 2.28 2.28 0 01.85.84 2.46 2.46 0 01.34 1.31 2.84 2.84 0 01-1 2.33 4.1 4.1 0 01-2.65.83 9.32 9.32 0 01-1.44-.12 9.58 9.58 0 01-1.19-.27l-.41-.12v-2.62zm7.94 2.96v-1.19l1.11-.34v-6.47H19l-.34 1.29H17.4v-2.86h7.9v2.9H24l-.34-1.29H22.4v6.47l1.13.34v1.19zm9.98-8v6.55a4.35 4.35 0 01-.69 2.72A2.93 2.93 0 0126 26l-1-.1.18-1.36h.65c.8 0 1.2-.44 1.2-1.31v-7.41l-1-.41v-1.13l4.16-.07v1.2z" fill="#fff"/></svg>