<svg id="Layer_1" data-name="Layer 1" xmlns="http://www.w3.org/2000/svg" viewBox="0 0 40 40"><defs><style>.cls-1{fill:black;}.cls-2{fill:#ffffff;}</style></defs><circle class="cls-1" cx="19.99" cy="20" r="19.62"/><path class="cls-2" d="M11.23,20.86,11.44,22a2.72,2.72,0,0,0,1.33.29A2.27,2.27,0,0,0,14,22a.91.91,0,0,0,.47-.81.78.78,0,0,0-.34-.64,2.35,2.35,0,0,0-.85-.43,10.18,10.18,0,0,1-1.11-.4A11.48,11.48,0,0,1,11,19.18a2.32,2.32,0,0,1-.85-.88,2.6,2.6,0,0,1-.34-1.37,2.56,2.56,0,0,1,1-2.13,3.94,3.94,0,0,1,2.5-.76,8.13,8.13,0,0,1,1.43.14,8.9,8.9,0,0,1,1.16.27l.41.14-.07,2.48H15l-.34-1.16a3.62,3.62,0,0,0-1.19-.2,1.8,1.8,0,0,0-1.07.27.8.8,0,0,0,0,1.34,2.5,2.5,0,0,0,.85.42c.34.11.71.24,1.11.41a10.2,10.2,0,0,1,1.1.53,2.28,2.28,0,0,1,.85.84,2.46,2.46,0,0,1,.34,1.31,2.84,2.84,0,0,1-1,2.33,4.1,4.1,0,0,1-2.65.83,9.32,9.32,0,0,1-1.44-.12,9.58,9.58,0,0,1-1.19-.27l-.41-.12V20.86Z"/><path class="cls-2" d="M19.17,23.82V22.63l1.11-.34V15.82H19l-.34,1.29H17.4V14.25l7.9,0v2.9H24l-.34-1.29H22.4v6.47l1.13.34v1.19Z"/><path class="cls-2" d="M29.15,15.82v6.55a4.35,4.35,0,0,1-.69,2.72A2.93,2.93,0,0,1,26,26l-1-.1.18-1.36h.65c.8,0,1.2-.44,1.2-1.31V15.82l-1-.41V14.28l4.16-.07v1.2Z"/></svg>