<svg id="Layer_1" data-name="Layer 1" xmlns="http://www.w3.org/2000/svg" viewBox="0 0 40 40"><defs><style>.cls-1{fill:green;}.cls-2{fill:#ffffff;}</style></defs><circle class="cls-1" cx="19.99" cy="20" r="19.62"/><path class="cls-2" d="M6.44,21.84,6.65,23A2.82,2.82,0,0,0,8,23.27,2.23,2.23,0,0,0,9.15,23a.92.92,0,0,0,.48-.81.78.78,0,0,0-.34-.64,2.52,2.52,0,0,0-.85-.43,10.18,10.18,0,0,1-1.11-.4,11.48,11.48,0,0,1-1.11-.54,2.47,2.47,0,0,1-.86-.87A2.75,2.75,0,0,1,5,17.92a2.58,2.58,0,0,1,1-2.14A4,4,0,0,1,8.49,15a8.13,8.13,0,0,1,1.43.14,9.32,9.32,0,0,1,1.16.27l.4.14-.06,2.48H10.16l-.34-1.16a4,4,0,0,0-1.2-.2A1.82,1.82,0,0,0,7.55,17a.81.81,0,0,0,0,1.34,2.71,2.71,0,0,0,.85.43,9.37,9.37,0,0,1,1.1.4,9.53,9.53,0,0,1,1.11.53,2.35,2.35,0,0,1,.85.84,2.46,2.46,0,0,1,.34,1.31,2.84,2.84,0,0,1-1,2.33A4.06,4.06,0,0,1,8.09,25a9.27,9.27,0,0,1-1.44-.13,9.58,9.58,0,0,1-1.19-.27l-.41-.12V21.84Z"/><path class="cls-2" d="M15.7,24.8l-2.21-8-1-.39V15.26l4-.07v1.2l-1,.41,1.17,4.93,1.91-6.43,1.84-.11,1.83,6.53,1.3-4.92-1-.41V15.26l3.89-.07v1.2l-1,.41-2.33,8H21.26l-1.79-6.48c-.22.89-.57,2.15-1.07,3.77s-.77,2.53-.82,2.71Z"/><path class="cls-2" d="M30.21,15.19h1.44a3.66,3.66,0,0,1,2.18.59,2.06,2.06,0,0,1,.81,1.77A2.16,2.16,0,0,1,33,19.8c1.3.37,2,1.1,2,2.18q0,2.82-3.55,2.82H27.12V23.61l1-.34V16.8l-1-.41V15.26Zm0,1.61v2.31H31c1,0,1.52-.42,1.52-1.26a1,1,0,0,0-.32-.79,1.3,1.3,0,0,0-.84-.26Zm.8,3.75h-.8V23.2h1.13a1.65,1.65,0,0,0,1.09-.32,1.13,1.13,0,0,0,.37-.9,1.31,1.31,0,0,0-.43-1.09A2.2,2.2,0,0,0,31,20.55Z"/></svg>