<svg data-name="Layer 1" xmlns="http://www.w3.org/2000/svg" viewBox="0 0 40 40"><circle cx="19.99" cy="20" r="19.62" fill="green"/><path d="M6.44 21.84L6.65 23a2.82 2.82 0 001.35.27A2.23 2.23 0 009.15 23a.92.92 0 00.48-.81.78.78 0 00-.34-.64 2.52 2.52 0 00-.85-.43 10.18 10.18 0 01-1.11-.4 11.48 11.48 0 01-1.11-.54 2.47 2.47 0 01-.86-.87A2.75 2.75 0 015 17.92a2.58 2.58 0 011-2.14A4 4 0 018.49 15a8.13 8.13 0 011.43.14 9.32 9.32 0 011.16.27l.4.14-.06 2.48h-1.26l-.34-1.16a4 4 0 00-1.2-.2 1.82 1.82 0 00-1.07.33.81.81 0 000 1.34 2.71 2.71 0 00.85.43 9.37 9.37 0 011.1.4 9.53 9.53 0 011.11.53 2.35 2.35 0 01.85.84 2.46 2.46 0 01.34 1.31 2.84 2.84 0 01-1 2.33 4.06 4.06 0 01-2.71.82 9.27 9.27 0 01-1.44-.13 9.58 9.58 0 01-1.19-.27l-.41-.12v-2.64zm9.26 2.96l-2.21-8-1-.39v-1.15l4-.07v1.2l-1 .41 1.17 4.93 1.91-6.43 1.84-.11 1.83 6.53 1.3-4.92-1-.41v-1.13l3.89-.07v1.2l-1 .41-2.33 8h-1.84l-1.79-6.48c-.22.89-.57 2.15-1.07 3.77s-.77 2.53-.82 2.71zm14.51-9.61h1.44a3.66 3.66 0 012.18.59 2.06 2.06 0 01.81 1.77A2.16 2.16 0 0133 19.8c1.3.37 2 1.1 2 2.18q0 2.82-3.55 2.82h-4.33v-1.19l1-.34V16.8l-1-.41v-1.13zm0 1.61v2.31H31c1 0 1.52-.42 1.52-1.26a1 1 0 00-.32-.79 1.3 1.3 0 00-.84-.26zm.8 3.75h-.8v2.65h1.13a1.65 1.65 0 001.09-.32 1.13 1.13 0 00.37-.9 1.31 1.31 0 00-.43-1.09 2.2 2.2 0 00-1.37-.34z" fill="#fff"/></svg>