<svg id="Layer_1" data-name="Layer 1" xmlns="http://www.w3.org/2000/svg" viewBox="0 0 40 40"><defs><style>.cls-1{fill:orange;}.cls-2{fill:#000000;}</style></defs><circle class="cls-1" cx="19.99" cy="20" r="19.62"/><path class="cls-2" d="M5.12,23.82V22.63l1.12-.34V15.82H4.94L4.6,17.11H3.35V14.25l7.9,0v2.9H10l-.34-1.29H8.35v6.47l1.13.34v1.19Z"/><path class="cls-2" d="M18.57,17.14,18.23,16a4.68,4.68,0,0,0-1.54-.22c-1.52,0-2.28,1.11-2.28,3.34s.78,3.16,2.32,3.16a4.39,4.39,0,0,0,.69-.06,5.42,5.42,0,0,0,.59-.12l.22-.07V20.29l-1-.32V18.86l3.92-.07V20l-.92.32v2.78a5,5,0,0,1-.46.26,8.24,8.24,0,0,1-1.26.4,7.81,7.81,0,0,1-2,.25,4.15,4.15,0,0,1-3.22-1.23,5.12,5.12,0,0,1-1.14-3.59,5.35,5.35,0,0,1,1.24-3.75A4.31,4.31,0,0,1,16.73,14a8.29,8.29,0,0,1,1.53.16,7.39,7.39,0,0,1,1.22.32l.43.16-.07,2.46Z"/><path class="cls-2" d="M26.86,14A4,4,0,0,1,30,15.32a5.2,5.2,0,0,1,1.12,3.56,5.35,5.35,0,0,1-1.26,3.71,4.21,4.21,0,0,1-3.3,1.4,3.92,3.92,0,0,1-3.14-1.25,5.4,5.4,0,0,1-1.09-3.65,5.32,5.32,0,0,1,1.21-3.7A4.18,4.18,0,0,1,26.86,14Zm-.07,1.71a1.87,1.87,0,0,0-1.61.75A4.49,4.49,0,0,0,24.64,19a4.79,4.79,0,0,0,.49,2.47,1.69,1.69,0,0,0,1.53.8,1.91,1.91,0,0,0,1.64-.78A4.56,4.56,0,0,0,28.86,19a4.49,4.49,0,0,0-.51-2.43A1.75,1.75,0,0,0,26.79,15.75Z"/><path class="cls-2" d="M35.61,15.82v6.55a4.35,4.35,0,0,1-.69,2.72A2.92,2.92,0,0,1,32.5,26l-1-.1.17-1.36h.66c.8,0,1.2-.44,1.2-1.31V15.82l-1-.41V14.28l4.16-.07v1.2Z"/></svg>