<svg data-name="Layer 1" xmlns="http://www.w3.org/2000/svg" viewBox="0 0 40 40"><circle cx="19.99" cy="20" r="19.62" fill="orange"/><path d="M5.12 23.82v-1.19l1.12-.34v-6.47h-1.3l-.34 1.29H3.35v-2.86h7.9v2.9H10l-.34-1.29H8.35v6.47l1.13.34v1.19zm13.45-6.68L18.23 16a4.68 4.68 0 00-1.54-.22c-1.52 0-2.28 1.11-2.28 3.34s.78 3.16 2.32 3.16a4.39 4.39 0 00.69-.06 5.42 5.42 0 00.59-.12l.22-.07v-1.74l-1-.32v-1.11l3.92-.07V20l-.92.32v2.78a5 5 0 01-.46.26 8.24 8.24 0 01-1.26.4 7.81 7.81 0 01-2 .25 4.15 4.15 0 01-3.22-1.23 5.12 5.12 0 01-1.14-3.59 5.35 5.35 0 011.24-3.75A4.31 4.31 0 0116.73 14a8.29 8.29 0 011.53.16 7.39 7.39 0 011.22.32l.43.16-.07 2.46zM26.86 14A4 4 0 0130 15.32a5.2 5.2 0 011.12 3.56 5.35 5.35 0 01-1.26 3.71 4.21 4.21 0 01-3.3 1.4 3.92 3.92 0 01-3.14-1.25 5.4 5.4 0 01-1.09-3.65 5.32 5.32 0 011.21-3.7A4.18 4.18 0 0126.86 14zm-.07 1.71a1.87 1.87 0 00-1.61.75 4.49 4.49 0 00-.54 2.54 4.79 4.79 0 00.49 2.47 1.69 1.69 0 001.53.8 1.91 1.91 0 001.64-.78 4.56 4.56 0 00.56-2.49 4.49 4.49 0 00-.51-2.43 1.75 1.75 0 00-1.56-.82zm8.82.11v6.55a4.35 4.35 0 01-.69 2.72 2.92 2.92 0 01-2.42.91l-1-.1.17-1.36h.66c.8 0 1.2-.44 1.2-1.31v-7.41l-1-.41v-1.13l4.16-.07v1.2z"/></svg>