<svg id="Layer_1" data-name="Layer 1" xmlns="http://www.w3.org/2000/svg" viewBox="0 0 40 40"><defs><style>.cls-1{fill:lime;}.cls-2{fill:#000000;}</style></defs><circle class="cls-1" cx="19.99" cy="20" r="19.62"/><path class="cls-2" d="M10.53,15.82v4.32a2.76,2.76,0,0,0,.4,1.68,1.67,1.67,0,0,0,1.38.5,1.56,1.56,0,0,0,1.39-.55,3.63,3.63,0,0,0,.35-1.84V15.82L13,15.41V14.28l4.2-.07v1.2l-1,.41v4.11a4.46,4.46,0,0,1-.9,3.05,3.87,3.87,0,0,1-3,1,3.92,3.92,0,0,1-2.92-.93,4,4,0,0,1-.9-2.91V15.82l-1-.41V14.28l4.2-.07v1.2Z"/><path class="cls-2" d="M24.81,17.14,24.47,16a4.68,4.68,0,0,0-1.54-.22c-1.52,0-2.28,1.11-2.28,3.34s.77,3.16,2.32,3.16a4.39,4.39,0,0,0,.69-.06l.59-.12.22-.07V20.29l-1-.32V18.86l3.93-.07V20l-.93.32v2.78l-.45.26a8.1,8.1,0,0,1-1.27.4,7.7,7.7,0,0,1-2,.25,4.17,4.17,0,0,1-3.22-1.23,5.12,5.12,0,0,1-1.14-3.59,5.4,5.4,0,0,1,1.24-3.75A4.33,4.33,0,0,1,23,14a8.1,8.1,0,0,1,1.52.16,7.55,7.55,0,0,1,1.23.32l.42.16-.07,2.46Z"/><path class="cls-2" d="M31.55,15.82v6.55a4.42,4.42,0,0,1-.68,2.72,2.93,2.93,0,0,1-2.42.87l-1-.1.18-1.36h.65c.8,0,1.2-.44,1.2-1.31V15.82l-1-.41V14.28l4.16-.07v1.2Z"/></svg>