<svg data-name="Layer 1" xmlns="http://www.w3.org/2000/svg" viewBox="0 0 40 40"><circle cx="19.99" cy="20" r="19.62" fill="#0f0"/><path d="M10.53 15.82v4.32a2.76 2.76 0 00.4 1.68 1.67 1.67 0 001.38.5 1.56 1.56 0 001.39-.55 3.63 3.63 0 00.35-1.84v-4.11L13 15.41v-1.13l4.2-.07v1.2l-1 .41v4.11a4.46 4.46 0 01-.9 3.05 3.87 3.87 0 01-3 1 3.92 3.92 0 01-2.92-.93 4 4 0 01-.9-2.91v-4.32l-1-.41v-1.13l4.2-.07v1.2zm14.28 1.32L24.47 16a4.68 4.68 0 00-1.54-.22c-1.52 0-2.28 1.11-2.28 3.34s.77 3.16 2.32 3.16a4.39 4.39 0 00.69-.06l.59-.12.22-.07v-1.74l-1-.32v-1.11l3.93-.07V20l-.93.32v2.78l-.45.26a8.1 8.1 0 01-1.27.4 7.7 7.7 0 01-2 .25 4.17 4.17 0 01-3.22-1.23 5.12 5.12 0 01-1.14-3.59 5.4 5.4 0 011.24-3.75A4.33 4.33 0 0123 14a8.1 8.1 0 011.52.16 7.55 7.55 0 011.23.32l.42.16-.07 2.46zm6.74-1.32v6.55a4.42 4.42 0 01-.68 2.72 2.93 2.93 0 01-2.42.87l-1-.1.18-1.36h.65c.8 0 1.2-.44 1.2-1.31v-7.37l-1-.41v-1.13l4.16-.07v1.2z"/></svg>