<svg id="Layer_1" data-name="Layer 1" xmlns="http://www.w3.org/2000/svg" viewBox="0 0 38 38"><defs><style>.cls-1,.cls-3{fill:#fff;}.cls-1,.cls-2{fill-rule:evenodd;}</style></defs><polygon class="cls-1" points="18.94 1.06 20.86 1.06 22.66 1.42 24.34 1.78 26.02 2.38 27.58 3.22 29.02 4.06 30.46 5.14 31.78 6.34 32.86 7.54 33.94 8.98 34.9 10.42 35.62 11.98 36.22 13.66 36.7 15.46 36.94 17.26 37.06 19.06 36.94 20.86 36.7 22.66 36.22 24.46 35.62 26.02 34.9 27.7 33.94 29.14 32.86 30.58 31.78 31.78 30.46 32.98 29.02 34.06 27.58 34.9 26.02 35.62 24.34 36.34 22.66 36.7 20.86 36.94 18.94 37.06 17.14 36.94 15.34 36.7 13.66 36.34 11.98 35.62 10.42 34.9 8.86 34.06 7.54 32.98 6.22 31.78 5.02 30.58 4.06 29.14 3.1 27.7 2.38 26.02 1.78 24.46 1.3 22.66 1.06 20.86 0.94 19.06 1.06 17.26 1.3 15.46 1.78 13.66 2.38 11.98 3.1 10.42 4.06 8.98 5.02 7.54 6.22 6.34 7.54 5.14 8.86 4.06 10.42 3.22 11.98 2.38 13.66 1.78 15.34 1.42 17.14 1.06 18.94 1.06"/><path d="M18.94.46V1.54h-1.8l-.36.12H16.3l-.36.12-.48.12H15L14.62,2l-.48.12-.36.12-.36.12-.48.24-.36.12-.36.12-.48.24-.36.12L11,3.46l-.36.12-.36.24-.36.24-.36.24-.36.24-.36.24L8.5,5l-.36.24-.36.24-.24.24-.36.36-.24.24-.36.36-.24.24L6,7.3l-.24.24L5.5,7.9l-.36.36L4.9,8.5l-.24.36-.24.36-.24.36-.24.36-.12.36-.24.36L3.34,11l-.12.48L3,11.86l-.12.36-.24.36-.12.48-.12.36-.12.36-.12.48L2,14.62l-.12.48-.12.36v.48l-.12.48-.12.36v1l-.12.36v1h-1V17.62l.12-.48v-.48l.12-.48v-.36l.12-.48.12-.48.12-.48L1.18,14l.12-.48.12-.48.12-.36.24-.48.12-.36.24-.48L2.26,11l.24-.36.24-.48.12-.36.24-.36.24-.36.24-.36.24-.48.36-.36.24-.24.24-.36L5,6.94l.24-.36.36-.36L5.86,6l.36-.36.36-.24L6.82,5l.36-.24.36-.36.36-.24.36-.24.36-.24L9,3.46l.36-.24L9.82,3l.36-.24.36-.24.36-.12.48-.24L11.74,2l.48-.24.36-.12.48-.12.36-.24.48-.12.48-.12.48-.12h.36L15.7.82,16.18.7h.48l.48-.12H18l.48-.12ZM.46,19.06h1v.84l.12.48v1l.12.36.12.48v.36L1.9,23l.12.36.12.48.12.36.12.48.12.36.12.48.24.36.12.36.24.36.12.36.24.48.24.36.12.36.24.36.24.36.24.36.24.24.24.36.36.36.24.36.24.24.36.36.24.24.36.36.24.24.36.24.24.36.36.24.36.24.36.24.36.24.36.24.36.24.36.24.36.12.36.24.36.24.36.12.48.24.36.12.36.12.48.12.36.24.36.12.48.12H15l.48.12.48.12h.36l.48.12h.36l.48.12h1.32v1h-1.8l-.48-.12h-.48l-.48-.12-.48-.12-.36-.12h-.48l-.48-.12-.48-.24-.36-.12-.48-.12-.36-.12-.48-.24L11.38,36l-.48-.24-.36-.12-.36-.24-.36-.24-.48-.24L9,34.66l-.36-.24-.36-.24-.36-.24-.36-.36-.36-.24-.36-.24-.24-.36-.36-.24-.36-.36-.24-.24-.36-.36L5,31.18l-.36-.36-.24-.36-.24-.36-.36-.36-.24-.36L3.34,29l-.24-.36-.24-.36-.12-.36-.24-.48-.24-.36-.12-.48-.24-.36-.12-.36-.24-.48-.12-.48-.12-.36-.12-.48-.12-.36-.12-.48-.12-.48L.7,22.3v-.48l-.12-.36V21L.46,20.5V19.06ZM18.94,37.54v-1h1.44l.36-.12h.48l.48-.12h.36l.48-.12.36-.12h.48l.36-.12.48-.12.36-.24.48-.12.36-.12.36-.12.48-.24.36-.12.36-.24.36-.24.36-.12.36-.24.36-.24.36-.24.36-.24.36-.24.36-.24.24-.24.36-.36.36-.24.24-.24.36-.36.24-.24.36-.36.24-.24.24-.36.24-.36.36-.36.24-.24.24-.36.24-.36.12-.36.24-.36.24-.36.24-.48.12-.36.24-.36.12-.36.12-.36.24-.48.12-.36.12-.48.12-.36.12-.48L36.1,23l.12-.48v-.36l.12-.48v-.36l.12-.48v-1l.12-.36v-.48h1V20.5l-.12.48v.48l-.12.36v.48l-.12.48-.12.48-.12.48-.12.36-.12.48-.12.36-.12.48-.24.48-.12.36-.24.36-.12.48-.24.36-.24.48L35,28.3l-.12.36-.24.36-.24.36-.36.36-.24.36-.24.36-.24.36-.36.36-.24.36-.36.36-.24.24-.36.36-.36.24-.24.36-.36.24-.36.24-.36.36-.36.24-.36.24-.36.24-.36.24-.48.24-.36.24-.36.24-.48.12-.36.24-.36.12-.48.24-.36.12-.48.12-.48.12-.36.24-.48.12h-.48l-.36.12-.48.12-.48.12h-.48l-.48.12H18.94Zm18.6-18.48h-1v-.48l-.12-.48v-.84l-.12-.48v-.36l-.12-.48v-.48l-.12-.36L36,14.62l-.12-.36-.12-.48-.12-.36-.12-.36-.24-.48-.12-.36L35,11.86l-.24-.36L34.66,11l-.24-.36-.24-.36-.24-.36-.12-.36-.24-.36-.24-.36L33.1,8.5l-.36-.24L32.5,7.9l-.24-.36L32,7.3l-.36-.36-.24-.24-.36-.36-.24-.24-.36-.36L30.1,5.5l-.24-.24L29.5,5l-.36-.24-.36-.24-.36-.24-.36-.24-.36-.24-.36-.24L27,3.46l-.36-.24-.36-.12-.48-.24-.36-.12-.36-.12-.48-.24-.36-.12-.48-.12L23.38,2,22.9,1.9h-.36l-.48-.12-.36-.12h-.48l-.48-.12h-1.8V.46h.48l.48.12h1l.48.12h.48l.48.12.48.12h.36l.48.12.48.12.36.12.48.24.48.12.36.12.48.24.36.12.36.24.48.12.36.24.36.24.48.24.36.24.36.24.36.24.36.24.36.24.36.36.36.24.24.36.36.24.36.36.24.24.36.36.24.36.36.36.24.36.24.24.24.36.36.48.24.36.24.36.12.36.24.36.24.48.24.36.12.36.24.48.12.36.24.48.12.36.12.48.12.48.12.36.12.48.12.48.12.48v.36l.12.48v.48l.12.48v1.44Z"/><polygon class="cls-1" points="18.94 8.62 20.62 8.74 22.3 8.86 23.86 9.1 25.3 9.46 26.74 9.94 28.06 10.42 29.26 11.02 30.46 11.74 31.42 12.46 32.38 13.3 33.22 14.14 33.94 14.98 34.42 15.94 34.9 16.9 35.14 17.98 35.14 19.06 35.14 20.14 34.9 21.1 34.42 22.18 33.94 23.14 33.22 23.98 32.38 24.82 31.42 25.66 30.46 26.38 29.26 27.1 28.06 27.7 26.74 28.18 25.3 28.66 23.86 29.02 22.3 29.26 20.62 29.38 18.94 29.5 17.38 29.38 15.7 29.26 14.14 29.02 12.7 28.66 11.26 28.18 9.94 27.7 8.74 27.1 7.54 26.38 6.46 25.66 5.62 24.82 4.78 23.98 4.06 23.14 3.58 22.18 3.1 21.1 2.86 20.14 2.86 19.06 2.86 17.98 3.1 16.9 3.58 15.94 4.06 14.98 4.78 14.14 5.62 13.3 6.46 12.46 7.54 11.74 8.74 11.02 9.94 10.42 11.26 9.94 12.7 9.46 14.14 9.1 15.7 8.86 17.38 8.74 18.94 8.62"/><path d="M18.94,8.38V9H17.38l-.84.12-.72.12L15,9.34l-.72.12-.72.12-.72.24-.72.12-.72.24-.72.24-.6.36-.6.24-.6.24-.6.36L7.78,12l-.6.36-.48.36-.48.36-.48.36-.36.48L5,14.26l-.36.48-.36.48-.24.36-.24.48-.24.48L3.46,17l-.12.24v.24l-.12.24v.6l-.12.24v.48H2.5v-.84L2.62,18v-.36l.12-.24v-.24l.12-.24L3,16.3l.24-.48.24-.48.36-.48.36-.48.36-.48.36-.48.48-.36.48-.48.48-.36.48-.36.6-.48.48-.24.6-.36.72-.36.6-.24.72-.36.6-.24.72-.24.72-.12L13.3,9l.84-.12.72-.24.84-.12h.84l.72-.12h1.68ZM2.5,19.06h.6v.48l.12.24v.48l.12.24v.36l.12.24.12.48.24.48.24.36.24.48.36.48.36.36.36.48.36.36.48.48.48.36.48.36.6.36.48.36.6.24.6.36.6.24.6.24.72.36.72.12.72.24.72.24.72.12.72.12.84.12.72.12h.84l.84.12h.72v.6H17.26l-.72-.12-.84-.12-.84-.12-.72-.12-.84-.12-.72-.24-.72-.12-.72-.24-.6-.36-.72-.24-.6-.24-.72-.36L7.9,27l-.48-.36-.6-.36-.48-.36-.48-.36-.48-.48L4.9,24.7l-.36-.48-.36-.48-.36-.48-.36-.48-.24-.48L3,21.82l-.12-.6L2.74,21v-.24l-.12-.36v-.24L2.5,19.9v-.84ZM18.94,29.74v-.6h.84l.84-.12h.84l.72-.12.84-.12.72-.12.72-.12.72-.24.72-.24.72-.12.6-.36.72-.24.6-.24.6-.36.6-.24.48-.36.6-.36.48-.36.48-.36.36-.48.48-.36.36-.48.36-.36.24-.48.36-.48.24-.36.24-.48.12-.48.12-.24V20.5l.12-.24v-.72l.12-.24v-.24h.6v.84l-.12.24v.24l-.12.36V21l-.12.24-.12.6-.24.48-.36.48-.24.48-.36.48-.36.48-.36.48-.48.36-.48.48-.48.36-.48.36-.6.36L30,27l-.6.36-.6.36-.6.24-.72.24-.6.36-.72.24-.72.12-.84.24-.72.12-.72.12-.84.12-.84.12-.84.12H18.94ZM35.5,19.06h-.6v-.24l-.12-.24V18.1l-.12-.6L34.54,17l-.12-.48-.24-.48-.24-.48-.36-.36-.24-.48L33,14.26l-.36-.36-.48-.48-.36-.36-.48-.36-.48-.36-.6-.36-.48-.36-.6-.36-.6-.24-.6-.24-.72-.36-.6-.24-.72-.24-.72-.12-.72-.24-.72-.12L23,9.34l-.84-.12-.72-.12L20.62,9H18.94v-.6h1.68l.84.12h.84l.84.12.72.24.72.12.84.24.72.12.72.24.6.24.72.36.6.24.6.36.6.36.6.24.6.48.48.36.48.36.48.48.48.36.36.48.36.48.36.48.24.48.36.48.24.48.12.6.12.48.12.6.12.24v.84Z"/><polygon class="cls-2" points="18.94 9.82 20.5 9.82 21.94 10.06 23.38 10.18 24.7 10.54 26.02 10.9 27.22 11.38 28.42 11.98 29.38 12.46 30.34 13.18 31.18 13.9 31.9 14.62 32.62 15.46 33.1 16.3 33.46 17.14 33.7 18.1 33.7 19.06 33.7 20.02 33.46 20.86 33.1 21.82 32.62 22.66 31.9 23.5 31.18 24.22 30.34 24.94 29.38 25.54 28.42 26.14 27.22 26.74 26.02 27.22 24.7 27.58 23.38 27.82 21.94 28.06 20.5 28.18 18.94 28.3 17.5 28.18 16.06 28.06 14.62 27.82 13.3 27.58 11.98 27.22 10.78 26.74 9.58 26.14 8.62 25.54 7.66 24.94 6.82 24.22 5.98 23.5 5.38 22.66 4.9 21.82 4.54 20.86 4.3 20.02 4.3 19.06 4.3 18.1 4.54 17.14 4.9 16.3 5.38 15.46 5.98 14.62 6.82 13.9 7.66 13.18 8.62 12.46 9.58 11.98 10.78 11.38 11.98 10.9 13.3 10.54 14.62 10.18 16.06 10.06 17.5 9.82 18.94 9.82"/><path d="M18.94,9.46v.72H16.78l-.72.12-.72.12-.72.12-.6.12-.72.24-.6.12-.6.24-.6.24-.6.24-.6.24-.48.24-.6.24-.48.36-.48.24-.48.36-.36.36-.48.36-.36.36-.36.36L6,15.22l-.36.36-.24.48-.12.36L5,16.9l-.12.36-.12.48-.12.36-.12.48v.48h-.6v-.48l.12-.48v-.48l.24-.48.12-.48.24-.48.24-.48.24-.48.36-.36.24-.48L6.1,14l.48-.36.36-.36.48-.36.48-.36.48-.36L9,12l.48-.36.6-.24.6-.24.6-.24.6-.24.6-.24.72-.24.72-.12.6-.12.72-.12.72-.12.72-.12h.84l.72-.12Zm-15,9.6h.6v.48l.12.36.12.48.12.48.12.36.24.48.12.36.24.36L6,22.9l.24.36.36.36.36.36.48.36.36.36.48.24.48.36.48.36.6.24.48.24.6.24.6.24.6.24.6.24.6.12.72.24.6.12.72.12.72.12h.72l.72.12h1.44v.72l-.72-.12H16.66l-.72-.12-.72-.12-.72-.12-.6-.12-.72-.24-.72-.12-.6-.24-.6-.24-.6-.24-.6-.24-.6-.24L9,26.14l-.6-.24-.48-.36-.48-.36-.48-.36-.36-.36L6.1,24.1l-.36-.48-.24-.36-.36-.48-.24-.36-.24-.48-.24-.48L4.3,21l-.24-.48V20l-.12-.48Zm15,9.6v-.72H20.5l.72-.12h.72l.72-.12.6-.12.72-.12.72-.24.6-.12.6-.24.6-.24.6-.24.6-.24.48-.24.6-.24.48-.36.48-.36.48-.24.36-.36.36-.36.48-.36.24-.36L32,22.9l.24-.48.24-.36.24-.36.24-.48.12-.36.12-.48.12-.48v-.36l.12-.48h.6v.48l-.12.48-.12.48L33.7,21l-.12.48-.24.48-.24.48-.24.36-.36.48-.36.36-.36.48-.36.36-.36.36-.48.36-.48.36-.48.36-.6.24-.48.36-.6.24-.6.24-.6.24-.6.24-.72.24-.6.12-.72.24-.72.12-.6.12-.72.12-.84.12H19.78Zm15.12-9.6h-.6l-.12-.48V18.1l-.12-.36-.12-.48L33,16.9l-.24-.48-.24-.36-.24-.48L32,15.22l-.36-.36-.24-.36-.48-.36-.36-.36-.36-.36-.48-.36-.48-.24-.48-.36-.6-.24L27.7,12l-.6-.24-.6-.24-.6-.24L25.3,11l-.6-.12L24,10.66l-.72-.12-.6-.12-.72-.12-.72-.12H18.94V9.46h.84l.72.12h.72l.84.12.72.12.6.12.72.12.72.12.6.24.72.24.6.24.6.24.6.24.6.24L29,12l.6.24.48.36.48.36.48.36.36.36.36.36.36.36.36.48.36.36.24.48.24.48.24.48.12.48.12.48.12.48.12.48Z"/><polygon class="cls-3" points="7.3 17.26 7.18 17.26 7.18 17.38 7.18 17.5 7.3 17.98 7.3 18.34 7.06 18.82 6.7 19.06 6.46 19.18 6.22 19.3 5.86 19.18 5.5 19.18 5.02 19.06 4.54 18.7 4.42 18.22 4.42 17.74 4.54 17.38 4.66 17.02 4.78 17.02 4.78 16.9 4.78 16.78 5.38 17.26 5.26 17.38 5.14 17.38 4.9 17.5 4.78 17.62 4.78 17.86 4.78 18.1 4.9 18.34 5.26 18.58 5.62 18.7 6.1 18.82 6.46 18.7 6.82 18.46 6.94 18.22 6.94 17.98 6.82 17.86 6.82 17.74 6.58 17.62 6.46 17.62 6.46 17.5 7.18 17.26 7.3 17.26"/><polygon class="cls-3" points="7.9 16.42 7.9 16.54 8.02 16.54 8.14 16.42 8.26 16.54 7.66 17.14 7.54 17.02 7.54 16.9 7.54 16.78 6.34 15.7 6.22 15.58 6.22 15.7 6.1 15.7 5.98 15.58 6.58 14.98 6.7 15.1 6.58 15.22 6.58 15.34 6.7 15.34 7.18 15.82 7.66 15.22 7.18 14.74 7.06 14.62 7.06 14.74 6.94 14.74 6.82 14.62 7.42 14.02 7.54 14.14 7.54 14.26 7.54 14.38 8.74 15.46 8.86 15.58 8.98 15.58 8.98 15.46 9.1 15.58 8.5 16.18 8.38 16.06 8.5 16.06 8.5 15.94 8.5 15.82 7.9 15.34 7.42 15.94 7.9 16.42"/><polygon class="cls-3" points="9.46 15.34 9.34 15.22 9.46 15.22 9.46 15.1 8.62 13.66 8.62 13.54 8.5 13.54 8.38 13.54 8.26 13.42 9.58 12.7 9.7 12.58 9.82 12.58 10.18 13.06 10.06 13.06 9.94 13.06 9.94 12.94 9.82 13.06 8.98 13.54 9.22 13.9 9.7 13.66 9.82 13.54 9.94 13.42 10.18 13.78 10.06 13.9 9.94 13.9 9.94 14.02 9.46 14.26 9.7 14.74 10.66 14.26 10.66 14.14 10.66 14.02 10.78 14.02 11.02 14.5 10.9 14.5 10.78 14.62 9.46 15.34"/><polygon class="cls-3" points="11.5 14.14 11.5 14.02 11.5 13.9 10.9 12.22 10.9 12.1 10.78 12.1 10.78 11.98 11.5 11.74 11.62 11.86 11.5 11.86 11.5 11.98 12.34 12.94 12.46 11.62 12.34 11.62 12.34 11.5 12.34 11.62 12.22 11.5 13.06 11.14 13.18 11.26 13.06 11.26 13.06 11.38 13.66 13.06 13.78 13.18 13.9 13.18 13.9 13.3 13.18 13.54 13.18 13.42 13.18 13.3 12.7 11.98 12.7 13.66 12.58 13.78 11.38 12.46 11.86 13.78 11.98 13.78 12.1 13.78 12.1 13.9 11.5 14.14"/><polygon class="cls-3" points="14.98 12.82 14.98 12.94 15.1 12.94 15.1 13.06 14.38 13.3 14.38 13.18 14.38 13.06 14.5 13.06 14.5 12.94 14.14 11.26 14.14 11.14 14.02 11.14 13.9 11.02 14.62 10.78 14.74 10.9 14.62 11.02 14.62 11.14 14.98 12.82"/><polygon class="cls-3" points="15.58 12.94 15.58 12.82 15.7 12.7 15.7 12.58 15.46 10.9 15.46 10.78 15.34 10.78 15.34 10.66 16.06 10.54 16.18 10.66 16.06 10.66 15.94 10.78 16.06 10.78 17.14 11.86 17.02 10.66 17.02 10.54 16.9 10.54 16.9 10.42 17.5 10.42 17.5 10.54 17.38 10.54 17.38 10.66 17.62 12.34 17.62 12.46 17.62 12.58 17.74 12.58 17.74 12.7 17.02 12.7 17.02 12.58 17.14 12.58 17.14 12.46 15.82 11.26 16.06 12.58 16.06 12.7 16.18 12.7 16.18 12.82 15.58 12.94"/><polygon class="cls-3" points="18.22 11.98 18.22 12.1 18.22 12.22 18.46 12.22 18.58 12.34 18.94 12.34 19.06 12.34 19.3 12.22 19.42 12.22 19.42 12.1 19.3 11.98 18.94 11.74 18.82 11.74 18.34 11.62 18.1 11.5 17.98 11.38 17.98 11.14 17.98 10.78 18.22 10.54 18.46 10.42 18.82 10.42 19.06 10.42 19.42 10.54 19.54 10.54 19.66 10.54 19.78 10.54 19.42 11.14 19.42 11.02 19.3 10.9 19.06 10.78 18.82 10.78 18.58 10.78 18.46 10.9 18.46 11.02 18.58 11.26 18.94 11.26 19.18 11.38 19.3 11.38 19.54 11.5 19.78 11.62 19.9 11.86 19.9 11.98 19.78 12.34 19.66 12.46 19.3 12.7 18.94 12.7 18.58 12.7 18.34 12.58 18.1 12.58 17.98 12.58 17.86 12.58 18.22 11.98"/><path class="cls-3" d="M22.18,12.58h.24l.36.12.24-.12.24-.24.12-.36v-.36l-.12-.24-.12-.12L22.66,11h-.12Zm-.6.24V12.7h.12l.36-1.92h-.12v-.24l.84.12.6.24.24.24.24.36V12l-.12.6-.36.24-.12.12-.24.12h-.24l-.36-.12Z"/><polygon class="cls-3" points="24.1 13.42 24.1 13.3 24.22 13.3 24.22 13.18 24.34 13.18 24.82 11.5 24.82 11.38 24.7 11.38 24.82 11.26 26.26 11.62 26.38 11.74 26.5 11.74 26.62 11.74 26.38 12.22 26.26 12.22 26.26 12.1 26.14 11.98 25.3 11.74 25.06 12.22 25.54 12.34 25.66 12.46 25.78 12.46 25.66 12.82 25.54 12.82 25.42 12.7 24.94 12.58 24.82 13.18 25.78 13.54 25.9 13.54 25.9 13.42 26.02 13.42 25.9 13.9 25.78 13.9 25.66 13.9 24.1 13.42"/><polygon class="cls-3" points="27.46 14.62 27.58 14.5 27.58 14.62 27.7 14.62 27.7 14.5 28.9 12.7 28.9 12.58 28.9 12.46 28.9 12.34 30.46 13.3 30.46 13.42 30.58 13.42 30.34 13.9 30.22 13.9 30.22 13.78 30.22 13.66 29.26 13.18 28.9 13.78 29.38 14.02 29.5 14.02 29.62 14.02 29.74 14.02 29.38 14.62 29.26 14.62 29.26 14.5 29.14 14.5 29.14 14.38 28.66 14.14 28.18 14.86 28.18 14.98 28.3 14.98 28.18 15.1 27.46 14.62"/><polygon class="cls-3" points="29.14 15.82 29.26 15.7 29.38 15.82 30.82 14.62 30.82 14.5 30.94 14.38 32.02 15.58 32.02 15.7 32.14 15.82 31.78 16.18 31.66 16.06 31.66 15.94 31.78 15.94 31.78 15.82 31.06 15.1 30.46 15.58 30.7 15.94 30.82 15.94 30.82 16.06 30.94 16.18 30.7 16.3 30.58 16.18 30.46 16.06 30.22 15.7 29.74 16.06 30.34 16.9 30.46 16.9 30.58 17.02 30.22 17.26 30.1 17.14 30.1 17.02 29.14 15.82"/><path class="cls-3" d="M32.14,18.22v.6l.12.12.24.12.12-.12h.12V18.1Zm-1.08.12h-.12v.12h-.12l-.12-.72h.12l.12.12h.12l1.68-.24h.12V17.5H33l.12,1.08v.24l-.12.36-.24.12-.12.24-.36-.12h-.12l-.24-.24v-.12l-.72.48h-.12v.24h-.12l-.12-.84h.12l.12.12h.12l.6-.48v-.36Z"/><path class="cls-1" d="M18.94,19.18l1,.12.72.36.24.12.24.36.12.24V21l-.12.24-.24.24-.24.24-.72.24-1,.12-.6-.12-.6-.12v-2.4l.6-.12Zm-.12-3.36.72.12.6.36.24.12.24.24.12.24v.48l-.12.24-.24.24-.24.24-.6.24-.72.12-.6-.12-.48-.12V16.06l.48-.12Zm2.76,3.12.72.36.36.36.36.48.12.48L23,21.1l-.24.36-.36.36-.48.36-.6.36-.72.12-.84.12-.84.12-1.08-.12-1-.24-.84-.36-.6-.36-.12-.12-.12-.12.12-.12.24-.24h.48l.12-.24V17.14l-.12-.24-.24-.12h-.24l-.24-.12-.12-.24.84-.48.84-.36,1-.24,1.08-.12.72.12.72.12.6.12.48.36.48.24.24.36.24.48.12.48-.12.36-.12.36-.36.36Z"/><path class="cls-1" d="M18.94,14H20.5l1.32.36,1.2.48,1.2.6.84.72.72.84.24.48.12.48.12.6v1l-.12.48-.12.6-.24.36-.72,1-.84.72-1.2.6-1.2.48L20.5,24l-1.56.12L17.5,24l-1.32-.24-1.32-.48-1.08-.6-.84-.72-.72-1L12,20.62l-.12-.6-.12-.48v-1l.12-.6L12,17.5l.24-.48.72-.84.84-.72,1.08-.6,1.32-.48L17.5,14Zm0-.72,1.8.12,1.68.36,1.56.48L25.3,15l.6.48.48.36.48.48.36.48.24.6.24.48.12.6.12.6-.12.6-.12.6-.24.48-.24.48-.36.6-.48.48-.48.36-.6.48-1.32.6-1.56.6-1.68.36-1.8.12-1.8-.12-1.56-.36L14,23.74l-1.32-.6-.6-.48-.48-.36-.48-.48-.36-.6-.24-.48-.24-.48-.12-.6-.12-.6.12-.6.12-.6.24-.48.24-.6.36-.48.48-.48.48-.36.6-.48L14,14.26l1.56-.48,1.56-.36Z"/><path class="cls-3" d="M5.86,22.66,6,22.9l.24.24.36.12h.24L7.18,23l.24-.24.12-.36v-.24l-.24-.36-.12-.24Zm-.6-.24.12-.12v.12H5.5l1.44-1.2V21.1L7.06,21l.48.72.36.48.12.36L7.78,23l-.24.36-.24.12-.24.12H6.58L6.1,23.5l-.36-.36Z"/><polygon class="cls-3" points="6.82 24.34 6.94 24.22 7.06 24.22 8.26 22.78 8.26 22.66 8.14 22.66 8.26 22.54 9.46 23.5 9.58 23.5 9.58 23.62 9.7 23.74 9.46 24.1 9.34 23.98 9.34 23.86 9.34 23.74 8.62 23.14 8.14 23.62 8.5 23.98 8.62 23.98 8.74 24.1 8.62 24.34 8.5 24.22 8.38 24.22 8.02 23.86 7.54 24.46 8.26 25.06 8.38 25.06 8.5 25.18 8.26 25.54 8.14 25.42 8.14 25.3 8.02 25.3 6.82 24.34"/><polygon class="cls-3" points="9.82 26.26 9.82 26.14 9.94 26.14 10.06 26.14 10.06 26.02 10.78 24.58 10.78 24.46 10.78 24.34 10.66 24.34 10.78 24.22 11.5 24.58 11.38 24.7 11.26 24.7 10.54 26.14 11.38 26.5 11.5 26.62 11.62 26.62 11.62 26.5 11.74 26.5 11.5 26.98 11.38 26.98 11.26 26.86 9.82 26.26"/><polygon class="cls-3" points="12.1 25.42 12.34 25.42 12.58 25.3 12.7 25.3 12.82 25.06 12.7 25.06 12.7 24.94 12.58 24.94 12.58 24.82 12.46 24.82 12.58 24.58 12.58 24.46 12.7 24.46 12.7 24.34 12.94 24.34 13.06 24.46 13.06 24.58 13.18 24.82 13.06 24.94 12.94 25.3 12.7 25.42 12.46 25.54 12.1 25.54 12.1 25.42"/><polygon class="cls-3" points="12.94 27.46 12.94 27.34 13.06 27.46 13.06 27.34 13.66 25.18 13.66 25.06 13.54 24.94 13.54 24.82 15.34 25.3 15.46 25.3 15.58 25.3 15.58 25.18 15.7 25.3 15.58 25.9 15.46 25.78 15.34 25.78 15.34 25.66 14.14 25.42 13.9 26.26 14.62 26.38 14.74 26.38 14.74 26.26 14.86 26.38 14.74 26.98 14.62 26.86 14.62 26.74 14.5 26.74 13.78 26.62 13.66 27.34 14.86 27.58 14.98 27.58 14.98 27.46 15.1 27.58 14.98 28.18 14.86 28.06 14.86 27.94 14.74 27.94 12.94 27.46"/><polygon class="cls-3" points="15.94 28.18 15.94 28.06 16.06 27.94 16.06 27.82 16.3 26.26 15.82 26.14 15.7 26.14 15.7 26.26 15.58 26.26 15.58 25.78 15.7 25.78 15.82 25.78 15.94 25.78 17.26 26.02 17.38 26.02 17.5 26.02 17.5 26.5 17.38 26.5 17.38 26.38 17.26 26.38 16.78 26.26 16.54 27.94 16.54 28.06 16.66 28.06 16.66 28.18 15.94 28.18"/><path class="cls-3" d="M17.74,27.94v.12h.12v.12h-.6v-.12l.12-.12.72-1.8V26H18V25.9h.84V26l-.12.12h.12l.6,1.8v.12h.12v.12h-.72v-.12h.12v-.12l-.12-.36H18Zm.36-.72h.6l-.36-.72Z"/><polygon class="cls-3" points="20.02 28.3 20.02 28.18 20.14 28.06 20.14 27.94 20.02 26.38 19.54 26.38 19.42 26.38 19.42 26.5 19.3 26.5 19.3 26.02 19.42 26.02 19.54 26.02 20.98 25.9 21.1 25.9 21.22 25.9 21.22 26.38 21.1 26.38 21.1 26.26 20.98 26.26 20.5 26.26 20.62 27.94 20.62 28.06 20.74 28.06 20.74 28.18 20.02 28.3"/><path class="cls-3" d="M23.62,24.94l.36-.12.24.12.36.12v.84l-.24.12.24.12.24.12.12.12v.36l.12.24-.12.36-.24.12-.36.24-1.44.36v-.24H23V27.7l-.6-2.28H22.3V25.3Zm-.48,1.2.6-.12L24,25.9h.12v-.48L24,25.3h-.36l-.72.12Zm.24,1.32.72-.12.24-.12.12-.12.12-.24-.12-.12V26.5l-.12-.12h-.48l-.72.12Z"/><polygon class="cls-3" points="25.66 27.22 25.66 27.1 25.66 26.98 25.06 25.3 25.06 25.18 24.94 25.18 24.82 25.06 26.26 24.58 26.38 24.58 26.5 24.46 26.74 24.94 26.62 25.06 26.5 24.94 26.38 24.94 25.66 25.18 25.78 25.66 26.14 25.54 26.26 25.54 26.38 25.54 26.5 25.9 26.38 25.9 26.26 25.9 25.9 26.02 26.14 26.62 26.98 26.38 27.1 26.26 27.22 26.14 27.34 26.62 27.22 26.74 27.1 26.74 25.66 27.22"/><polygon class="cls-3" points="27.58 26.5 27.46 26.38 27.58 26.38 27.58 26.26 26.74 24.7 26.62 24.58 26.5 24.58 26.5 24.46 27.1 24.22 27.1 24.34 27.1 24.46 27.82 25.9 28.66 25.42 28.78 25.42 28.78 25.3 28.9 25.18 29.14 25.66 29.02 25.78 28.9 25.78 27.58 26.5"/><polygon class="cls-3" points="30.82 23.98 30.82 24.22 30.7 24.46 30.58 24.7 30.34 24.82 29.98 25.18 29.5 25.18 29.02 25.06 28.78 24.7 28.66 24.58 28.54 24.34 28.54 24.1 28.54 23.86 28.66 23.38 29.02 23.02 29.38 22.9 29.74 22.9 29.86 22.9 29.86 22.78 29.86 22.66 29.98 22.66 29.98 23.38 29.86 23.38 29.86 23.26 29.74 23.26 29.62 23.26 29.5 23.38 29.26 23.5 29.14 23.74 29.02 23.86 29.02 24.22 29.14 24.46 29.38 24.7 29.5 24.7 29.86 24.7 30.1 24.46 30.22 24.46 30.22 24.34 30.34 24.34 30.34 24.1 30.22 23.98 29.98 24.22 29.86 24.22 29.74 24.34 29.5 23.98 29.62 23.86 29.74 23.86 30.46 23.26 30.58 23.38 30.58 23.5 30.46 23.5 30.46 23.62 30.58 23.62 30.82 23.98"/><polygon class="cls-3" points="31.66 23.86 31.54 23.74 31.54 23.62 30.1 22.42 29.98 22.42 29.98 22.54 29.86 22.42 30.82 21.22 30.82 21.1 30.94 21.1 31.06 20.98 31.42 21.22 31.3 21.34 31.18 21.34 31.06 21.34 30.46 22.06 30.94 22.54 31.3 22.18 31.3 22.06 31.42 21.94 31.66 22.06 31.54 22.18 31.54 22.3 31.18 22.66 31.78 23.14 32.38 22.42 32.38 22.3 32.5 22.18 32.86 22.42 32.74 22.54 32.62 22.54 32.62 22.66 31.66 23.86"/></svg>