<?xml version="1.0" encoding="UTF-8"?>
<svg width="7.2mm" height="7.2mm" version="1.1" viewBox="0 0 7.2 7.2" xmlns="http://www.w3.org/2000/svg"><g transform="translate(-101.12 -144.75)"><circle cx="104.72" cy="148.35" r="3.6" fill="#fff"/><path d="m103.04 147.27h3.365v2.7421c0 0.1629-0.13207 0.29497-0.29477 0.29497h-0.33705v0.8351c0 0.21208-0.16915 0.38395-0.37795 0.38395-0.20934 0-0.37824-0.17187-0.37824-0.38395v-0.8351h-0.58866v0.8351c0 0.21208-0.16949 0.38395-0.37828 0.38395-0.20876 0-0.37823-0.17187-0.37823-0.38395v-0.8351h-0.33675c-0.16274 0-0.29506-0.13207-0.29506-0.29497v-2.7421zm-0.65942-0.0224c-0.21093 0-0.38179 0.17351-0.38179 0.38771v1.5153c0 0.21395 0.17086 0.38776 0.38179 0.38776 0.21096 0 0.38178-0.17381 0.38178-0.38776v-1.5153c0-0.2142-0.17082-0.38771-0.38178-0.38771zm4.0244-0.25394h-3.365c0.0415-0.4794 0.3525-0.89193 0.80017-1.1308l-0.31994-0.46977c-0.0431-0.0634-0.0269-0.14979 0.0366-0.19293 0.0634-0.0431 0.14967-0.0267 0.19303 0.0366l0.3487 0.51238c0.19333-0.0669 0.40319-0.10524 0.62391-0.10524 0.22099 0 0.43086 0.0384 0.62418 0.10533l0.3487-0.51228c0.0428-0.0635 0.12936-0.0799 0.19276-0.0367 0.0635 0.0431 0.0798 0.12957 0.0366 0.19292l-0.31967 0.46977c0.44765 0.23872 0.75842 0.65126 0.79992 1.1308zm-2.2061-0.65139c0-0.10281-0.0833-0.18619-0.18602-0.18619-0.10302 0-0.18627 0.0834-0.18627 0.18619 0 0.10275 0.0835 0.1861 0.18627 0.1861 0.10276 0 0.18602-0.0833 0.18602-0.1861zm1.4431 0c0-0.10281-0.0835-0.18619-0.18627-0.18619-0.10303 0-0.18603 0.0834-0.18603 0.18619 0 0.10275 0.083 0.1861 0.18603 0.1861 0.10275 0 0.18627-0.0833 0.18627-0.1861zm1.4227 0.90479c-0.21071 0-0.38204 0.17377-0.38204 0.38798v1.5158c0 0.21421 0.17133 0.38803 0.38204 0.38803 0.21098 0 0.38151-0.17381 0.38151-0.38803v-1.5158c1e-5 -0.21421-0.17053-0.38798-0.38151-0.38798z" fill="#a4c639" fill-rule="evenodd" stroke-width=".26458"/></g></svg>
