<?xml version="1.0" encoding="UTF-8"?>
<svg width="153.6mm" height="153.6mm" version="1.1" viewBox="0 0 153.6 153.6" xmlns="http://www.w3.org/2000/svg"><g transform="translate(-8.6514 -75.404)"><circle cx="85.451" cy="152.2" r="75.299" fill="#fffffd" stroke="#fff" stroke-width="3"/><g transform="translate(-3.5613 -1.3912)"><path d="m122.08 103.08 3.3459-9.547c-2.1621 0.65043-3.9012-0.97565-4.9416 1.3009-0.0785-0.34451-0.50436-0.39274-0.63803-0.5457-0.63528 2.5356-3.186 2.5439 0.36104 7.7639l-0.22737 0.0965c-2.0974-3.6408-2.2917-2.0161-3.6738-3.4134-0.17915 0.84474-0.61874 1.1534-0.17915 1.87-2.26 0.0978-2.9586 5.6734-0.29352 6.7303-0.22738 0.89435 0.19568 1.1217 0.17915 1.8204 1.2843-1.3656 2.8939-0.29214 4.1617-1.87-0.71107 3.6229-4.5158 5.9669-8.497 5.2352-3.9825-0.73174-6.6339-4.2623-5.9228-7.8851 0.61874 1.9196 2.5039 1.4965 3.2026 3.2191 0.24391-0.65043 0.7152-0.7152 0.82958-1.6247 2.8608-0.0331 4.2113-5.4791 2.1456-6.39 0.66698-0.50299 0.35829-0.95911 0.48783-1.8039-1.7873 0.81304-1.3987-0.78135-4.6495 1.8686l-0.17915-0.17918c5.3978-3.7386 2.6017-4.5834 3.1709-7.429-0.26045 0.42306-0.55259 0.17915-0.82958 0.6022 0.13092-1.9348-2.26-1.87-3.1047-2.9917-1.1052 0.87781-3.4134 0.24391-3.74 2.1456-0.17776-0.48783-0.51952-0.30868-0.66559-0.77997-0.13091 2.8939-3.0565 3.04 1.2678 7.9816l-0.21084 0.11438c-2.5204-3.3486-2.5204-1.7074-4.0652-2.9256-0.06477 0.84474-0.47129 1.203 0.04961 1.8686-2.2283 0.37483-2.2434 5.9986 0.53605 6.7152-0.113 0.9095 0.32522 1.0886 0.40652 1.7873 1.1052-1.5117 2.8291-0.63389 3.8847-2.3578-0.49609 3.7028-3.2315 6.4782-6.6118 6.7097-4.0321 0.2756-7.5861-3.1282-7.9375-7.6026 0.84612 1.8369 2.6665 1.1865 3.576 2.8126 0.16261-0.68351 0.61874-0.79651 0.61874-1.7239 2.8443-0.37345 3.5112-5.9504 1.3491-6.6008 0.60083-0.58429 0.24391-0.99081 0.27561-1.8535-1.6743 1.0253-1.4786-0.60083-4.389 2.4226l-0.19568-0.14607c4.8934-4.3725 2.0161-4.8769 2.2283-7.7708-0.19568 0.45613-0.5209 0.24391-0.74827 0.69867-0.09784-1.9348-2.4708-1.5765-3.4465-2.5838-0.97565 1.0073-3.3486 0.64906-3.4465 2.5838-0.22738-0.45476-0.5526-0.24254-0.74828-0.69867 0.21222 2.8939-2.6651 3.3982 2.2283 7.7708l-0.19568 0.14607c-2.9104-3.0234-2.7147-1.3973-4.389-2.4226 0.03168 0.86265-0.32522 1.2692 0.27561 1.8535-2.1621 0.65043-1.4952 6.2274 1.3491 6.6008 0 0.92742 0.45613 1.0404 0.61874 1.7239 0.90951-1.6261 2.7313-0.97566 3.576-2.8126-0.2949 3.751-2.8718 6.853-6.2274 7.4965-4.0032 0.77032-7.7294-2.1856-8.322-6.6036 1.057 1.7239 2.7795 0.84612 3.8847 2.3578 0.0813-0.69866 0.5209-0.87781 0.40652-1.7873 2.7795-0.71658 2.7643-6.3404 0.53606-6.7152 0.5209-0.66559 0.11438-1.0239 0.04961-1.8686-1.5448 1.2182-1.5448-0.42306-4.0652 2.9256l-0.21084-0.11438c4.3243-4.9416 1.3987-5.0877 1.2678-7.9816-0.14607 0.47129-0.48782 0.29214-0.66559 0.77997-0.32522-1.9017-2.6334-1.2678-3.74-2.1456-0.84474 1.1217-3.2356 1.057-3.1047 2.9917-0.27699-0.42306-0.56913-0.17914-0.82958-0.6022 0.56913 2.6665-2.2269 3.6904 3.1709 7.429l-0.17914 0.17914c-3.2522-2.65-2.8608-1.0556-4.6495-1.8686 0.13092 0.84474-0.17914 1.3009 0.48783 1.8039-2.0643 0.91089-0.7152 6.3569 2.1456 6.39 0.11438 0.9095 0.58566 0.97427 0.82958 1.6247 0.69867-1.7226 2.5838-1.2995 3.2026-3.2191 0.71107 3.6229-1.9403 7.1534-5.9214 7.8851-3.9825 0.73174-7.7873-1.6123-8.4984-5.2352 1.2678 1.5779 2.8773 0.50436 4.1617 1.87-0.01655-0.69866 0.40652-0.92604 0.17914-1.8204 2.6651-1.057 1.9665-6.6325-0.29352-6.7303 0.4396-0.71658 0-1.0253-0.17776-1.87-1.3822 1.3973-1.5779-0.22738-3.6752 3.4134l-0.22738-0.0965c3.6904-5.4308 0.77997-5.2186 0.29214-8.0808-0.07993 0.48782-0.45475 0.35829-0.56913 0.86265-1.039-2.2765-2.7795-0.65043-4.9416-1.3009l3.3459 9.547c-0.63528 0.2508-1.0046 0.93293-0.83509 1.6137 0.17915 0.72072 0.89573 1.1617 1.6164 1.0142l2.2751 10.505c-0.64492 0.16675-0.32108 1.8356 0.32797 1.6729 0.01101-3e-3 0.02205-4e-3 0.03305-7e-3l0.78273 3.6118-0.0193 4e-3h0.0193l0.78272 3.6077c-0.0014 1e-3 -0.0028 1e-3 -0.0055 1e-3 -0.65043 0.16261-0.27561 1.9182 0.37483 1.7556h0.01101l0.07028 0.32522h55.273l0.0703-0.32522h0.011c0.65043 0.16261 1.0239-1.593 0.37483-1.7556-1e-3 0-3e-3 0-6e-3 -1e-3l0.78273-3.6077h0.0193l-0.0193-4e-3 0.78272-3.6118c0.011 3e-3 0.0221 4e-3 0.0331 7e-3 0.64905 0.16261 0.97427-1.5062 0.32797-1.6729l2.2751-10.505c0.72072 0.14745 1.4373-0.29352 1.6164-1.0142 0.1695-0.68075-0.19981-1.3629-0.83509-1.6137" fill="#fab814"/><path d="m56.914 104.93 3.4988 16.149c3.1061-0.61736 6.2163-1.1341 9.3348-1.5503l-0.54432-3.3238c-0.03168-0.19155 0.09922-0.37345 0.29077-0.40515 0.19155-0.0317 0.37483 0.0992 0.40514 0.29077l0.54846 3.3472c2.8718-0.36931 5.7478-0.65181 8.6251-0.84887l-0.26458-3.372c-0.01517-0.19431 0.12954-0.36381 0.32384-0.37897 0.19155-0.0124 0.3638 0.12954 0.37896 0.32384l0.26596 3.3803c6.1543-0.39136 12.316-0.39136 18.468 0l0.26596-3.3803c0.01517-0.1943 0.18603-0.33762 0.37896-0.32384 0.1943 0.0152 0.339 0.18466 0.32384 0.37897l-0.26458 3.372c2.8773 0.19706 5.7547 0.47956 8.6251 0.84887l0.54708-3.3472c0.0317-0.19155 0.21497-0.32108 0.40652-0.29077 0.19155 0.0317 0.32246 0.2136 0.29077 0.40515l-0.54433 3.3238c3.1185 0.41617 6.2287 0.93294 9.3362 1.5503l3.4975-16.149-3.2453-0.81167c-0.15985-0.04-0.26734-0.18327-0.26734-0.34175 0-0.0276 4e-3 -0.0565 0.011-0.0854 0.0468-0.18879 0.2384-0.30454 0.42719-0.25631l3.2646 0.8158 3.587-10.239c-0.63115 0.08544-1.2154 0.0248-1.7474-0.0303-1.1162-0.11575-1.7901-0.18603-2.333 1.0005-0.062 0.1378-0.20396 0.22049-0.35692 0.20395-0.1502-0.01517-0.27422-0.1254-0.3073-0.27285-7e-3 -0.03168-0.0386-0.06064-0.0868-0.09095-0.19016 0.52503-0.45061 0.93982-0.68901 1.3215-0.73726 1.1741-1.3174 2.1029 1.1355 5.712 0.0593 0.0868 0.0758 0.19568 0.0469 0.29628-0.0303 0.10197-0.10335 0.18466-0.19981 0.226l-0.22738 0.0978c-0.16399 0.0689-0.35691 7e-3 -0.44511-0.14883-1.2692-2.2049-1.768-2.3633-2.2944-2.5315-0.25907-0.08131-0.54294-0.17226-0.89297-0.42995-0.0207 0.05512-0.04 0.10887-0.0592 0.15848-0.15021 0.39136-0.21222 0.55259 0 0.89848 0.0661 0.10611 0.0689 0.23978 0.011 0.35002-0.0593 0.11024-0.17225 0.1819-0.29627 0.18604-0.85301 0.0372-1.418 1.1452-1.6013 2.2255-0.25493 1.5186 0.15021 3.3211 1.4235 3.8254 0.16398 0.0648 0.25494 0.24254 0.21084 0.41479-0.10887 0.43271-0.0386 0.65319 0.0496 0.93293 0.0138 0.0413 0.0275 0.0854 0.04 0.12954 0.56362-0.36656 1.1589-0.44786 1.6977-0.52228 0.73312-0.0992 1.3656-0.18603 1.9375-0.8971 0.10197-0.12678 0.2756-0.16674 0.42305-0.0992 0.14745 0.0689 0.22876 0.22876 0.19844 0.38861-0.74828 3.8048-4.7446 6.277-8.9076 5.5135-2.1153-0.38999-3.988-1.5806-5.1373-3.2701-1.0294-1.5117-1.4084-3.2976-1.068-5.0298 0.0317-0.15848 0.16537-0.27561 0.32522-0.28388 0.15572-0.0152 0.3073 0.091 0.35692 0.24391 0.27836 0.86403 0.83646 1.17 1.4828 1.5241 0.47681 0.26045 1.0018 0.54846 1.3932 1.0914 0.0276-0.0358 0.0565-0.0703 0.0827-0.10473 0.18466-0.22876 0.33211-0.40928 0.38723-0.85301 0.0221-0.17501 0.1695-0.3073 0.34589-0.31006 1.3629-0.0152 2.3881-1.5462 2.6954-3.051 0.22049-1.0776 0.0937-2.3179-0.68764-2.6624-0.11438-0.0496-0.19293-0.1571-0.20808-0.28112-0.0138-0.12402 0.0372-0.24667 0.1378-0.32246 0.31695-0.23978 0.31557-0.41203 0.31006-0.82958v-0.17363c-0.42168 0.11851-0.72209 0.1006-0.99357 0.08406-0.55397-0.03168-1.0776-0.06339-3.0427 1.5393-0.14057 0.113-0.34451 0.10336-0.47267-0.0248l-0.17915-0.17776c-0.0744-0.07441-0.11024-0.17776-0.10197-0.28112 0.01-0.10473 0.0648-0.19982 0.15158-0.25907 3.587-2.4846 3.3762-3.5581 3.1089-4.9182-0.0896-0.45475-0.18742-0.95222-0.17088-1.5338-0.0372 0.02205-0.0662 0.05237-0.10197 0.10749-0.0882 0.13367-0.25632 0.19155-0.40652 0.14194-0.15297-0.05236-0.25081-0.19844-0.23978-0.35829 0.062-0.92329-0.53606-1.254-1.5158-1.7198-0.46164-0.21911-0.93568-0.44511-1.2967-0.78686-0.4327 0.24254-0.94809 0.34589-1.4497 0.44648-1.0666 0.2136-1.7281 0.39136-1.8824 1.2967-0.0276 0.15847-0.15709 0.27836-0.31557 0.29214-0.15709 0.01517-0.30868-0.07993-0.3638-0.23013-0.0248-0.06615-0.0468-0.10473-0.0799-0.13505-0.12403 0.57051-0.34038 1.0322-0.53882 1.4538-0.5898 1.2554-1.0556 2.2476 1.8176 5.5301 0.0703 0.08131 0.1006 0.19017 0.0813 0.2949-0.0193 0.10611-0.0854 0.19706-0.18052 0.24804l-0.21085 0.113c-0.15434 0.08268-0.3445 0.04134-0.44924-0.09784-1.5227-2.0243-2.0367-2.1194-2.5811-2.2186-0.26872-0.04961-0.56224-0.10473-0.94258-0.31833-0.01379 0.05788-0.02755 0.113-0.03996 0.16399-0.1006 0.40101-0.14194 0.56637 0.10886 0.88746 0.07579 0.09784 0.09509 0.22876 0.04961 0.34451-0.0441 0.11575-0.14745 0.19981-0.2701 0.22049-0.84336 0.14056-1.2678 1.3146-1.3146 2.4143-0.06615 1.5365 0.55948 3.2701 1.881 3.6105 0.17088 0.0441 0.28388 0.20808 0.26183 0.38447-0.0551 0.44511 0.0413 0.65733 0.16536 0.92604 0.0179 0.04 0.0372 0.0813 0.0565 0.12541 0.51263-0.43409 1.0928-0.58567 1.6178-0.72347 0.71107-0.18742 1.3257-0.34727 1.8011-1.1245 0.0882-0.14194 0.26321-0.20395 0.41893-0.14883 0.1571 0.0565 0.25356 0.21497 0.23151 0.38034-0.5209 3.8847-3.3734 6.7689-6.937 7.0128-4.2251 0.28938-7.9471-3.2673-8.3137-7.9265-0.01379-0.17088 0.09646-0.32659 0.26321-0.36932 0.16536-0.0427 0.33762 0.0386 0.40928 0.19431 0.38172 0.82958 0.97427 1.0652 1.6605 1.3394 0.50436 0.20119 1.0583 0.42306 1.5145 0.91226 0.02342-0.04 0.04686-0.0785 0.0689-0.11437 0.15434-0.25081 0.27561-0.44649 0.27561-0.90124 0-0.17639 0.13229-0.3266 0.3073-0.35002 1.4125-0.18466 2.1856-1.8631 2.3055-3.3431 0.0882-1.1011-0.19017-2.322-1.0115-2.5687-0.11989-0.03721-0.21084-0.13367-0.24116-0.25494-0.02893-0.12127 0.0069-0.24942 0.09646-0.33624 0.28801-0.27974 0.26596-0.45062 0.21498-0.86265-0.0069-0.05375-0.01379-0.11162-0.02067-0.17225-0.40101 0.16674-0.69866 0.18603-0.97014 0.20395-0.55397 0.03447-1.0762 0.0689-2.8374 1.8976-0.12265 0.12816-0.32246 0.14469-0.46578 0.03721l-0.19447-0.1461c-0.08406-0.06339-0.13643-0.16123-0.14056-0.26734-0.0041-0.10611 0.03859-0.20808 0.11714-0.27836 3.2535-2.9077 2.9104-3.9495 2.4777-5.2696-0.14469-0.44097-0.30317-0.92191-0.35967-1.4993-0.03306 0.02618-0.05926 0.05926-0.08819 0.11851-0.07166 0.14332-0.23151 0.22049-0.38723 0.18741-0.1571-0.03306-0.27285-0.16674-0.28112-0.32797-0.04548-0.92053-0.67937-1.1755-1.7101-1.5172-0.48644-0.15985-0.98529-0.32522-1.3835-0.61874-0.39825 0.29352-0.8971 0.45889-1.3836 0.62012-1.0294 0.34038-1.6647 0.59531-1.7101 1.5158-0.0083 0.16123-0.12402 0.2949-0.27974 0.32797-0.1571 0.03305-0.31695-0.0441-0.38861-0.18741-0.0303-0.05926-0.05512-0.09233-0.08957-0.11851-0.05512 0.5774-0.2136 1.0583-0.35829 1.4993-0.43271 1.3202-0.77584 2.362 2.4777 5.2696 0.07855 0.07028 0.12265 0.17225 0.11713 0.27836-0.0041 0.10611-0.0565 0.20395-0.14056 0.26734l-0.1943 0.14608c-0.14332 0.10748-0.34313 0.09095-0.46578-0.03721-1.7611-1.8287-2.2834-1.8631-2.8374-1.8976-0.27147-0.01792-0.56913-0.03721-0.97014-0.20395-0.0069 0.06063-0.01379 0.11851-0.02067 0.17225-0.05099 0.41203-0.07304 0.58291 0.21498 0.86265 0.08957 0.08682 0.12678 0.21497 0.09646 0.33624-0.0303 0.12127-0.12127 0.21773-0.24116 0.25494-0.82131 0.24667-1.0997 1.4676-1.0115 2.5687 0.11989 1.48 0.89297 3.1585 2.3055 3.3431 0.17501 0.0234 0.3073 0.17363 0.3073 0.35002 0 0.45475 0.12127 0.65043 0.27561 0.90124 0.02205 0.0358 0.04548 0.0744 0.0689 0.11437 0.45613-0.4892 1.0115-0.71107 1.5145-0.91226 0.68627-0.27423 1.2802-0.50987 1.6619-1.3394 0.07028-0.15572 0.24254-0.23702 0.40928-0.19431 0.16536 0.0427 0.27561 0.19844 0.26182 0.36932-0.30868 3.9246-2.9862 7.1382-6.5126 7.8162-1.9113 0.36794-3.8461-0.0648-5.446-1.2154-1.779-1.2802-2.9793-3.3528-3.2921-5.6872-0.02205-0.16537 0.07441-0.32384 0.23151-0.38034 0.1571-0.0551 0.3321 7e-3 0.41892 0.14883 0.4768 0.77721 1.09 0.93706 1.8011 1.1245 0.52641 0.1378 1.1052 0.28938 1.6192 0.72347 0.01792-0.0427 0.03721-0.0841 0.05512-0.12541 0.12402-0.26871 0.22049-0.47955 0.16536-0.92604-0.02205-0.17639 0.09095-0.34037 0.26183-0.38447 1.3229-0.34037 1.9472-2.074 1.8824-3.6105-0.04823-1.0997-0.47267-2.2738-1.316-2.4143-0.12264-0.02067-0.22462-0.10473-0.27009-0.22049-0.04548-0.11576-0.02618-0.24667 0.05099-0.34451 0.24942-0.32108 0.20808-0.48644 0.10749-0.88746-0.01242-0.05099-0.02618-0.10611-0.03996-0.16399-0.38034 0.2136-0.67386 0.26872-0.94258 0.31833-0.54432 0.09922-1.0583 0.1943-2.5811 2.2186-0.10473 0.13918-0.29628 0.18052-0.44924 0.09784l-0.21084-0.113c-0.09508-0.05099-0.16123-0.14194-0.18052-0.24804-0.0193-0.10611 0.01101-0.2136 0.08268-0.2949 2.8718-3.2825 2.4061-4.2747 1.8163-5.5301-0.19844-0.42168-0.41479-0.88332-0.53882-1.4538-0.03306 0.0303-0.05512 0.0689-0.07993 0.13505-0.05512 0.15021-0.20395 0.24529-0.3638 0.23013-0.15848-0.01379-0.28801-0.13367-0.31557-0.29214-0.15434-0.90537-0.8158-1.0831-1.881-1.2967-0.50298-0.1006-1.0184-0.20395-1.4511-0.44648-0.35967 0.34175-0.83509 0.56775-1.2967 0.78686-0.97978 0.46578-1.5779 0.79651-1.5158 1.7198 0.01101 0.15985-0.08682 0.30592-0.23978 0.35829-0.15158 0.05099-0.31833-0.0083-0.40652-0.14194-0.03583-0.05512-0.06477-0.08544-0.1006-0.10611 0.0097 0.5333-0.08268 1.0046-0.16812 1.4359-0.27836 1.407-0.49885 2.5177 3.1061 5.0147 0.08544 0.05926 0.14056 0.15434 0.15021 0.25907 0.0083 0.10335-0.02893 0.20671-0.10197 0.28112l-0.17915 0.17777c-0.12816 0.12816-0.3321 0.13781-0.47266 0.0248-1.9651-1.6027-2.4887-1.571-3.0427-1.5393-0.27285 0.01655-0.57188 0.03447-0.99357-0.08406v0.17501c-0.0041 0.41617-0.0055 0.58842 0.31006 0.8282 0.1006 0.07579 0.15296 0.19844 0.1378 0.32246-0.01379 0.12403-0.0937 0.23152-0.20808 0.28113-0.78135 0.34451-0.90813 1.5847-0.68764 2.6624 0.3073 1.5048 1.3326 3.0358 2.6954 3.051 0.17639 3e-3 0.32384 0.13505 0.34589 0.31006 0.05512 0.44373 0.20119 0.62425 0.38723 0.85301 0.02755 0.0345 0.05512 0.0689 0.08268 0.10473 0.39136-0.54295 0.91639-0.83096 1.3932-1.0914 0.6463-0.35416 1.2044-0.66008 1.4828-1.5241 0.04961-0.15296 0.19982-0.25356 0.35691-0.24391 0.16123 0.01 0.2949 0.1254 0.32522 0.28388 0.34038 1.7322-0.03858 3.5195-1.068 5.0312-1.1493 1.6881-3.022 2.8787-5.1359 3.2687-4.1644 0.76619-8.1607-1.7088-8.909-5.5135-0.0303-0.15985 0.05099-0.31971 0.19844-0.38861 0.14745-0.0675 0.32108-0.0276 0.42306 0.0992 0.57326 0.71107 1.2044 0.79788 1.9375 0.8971 0.53881 0.0744 1.1341 0.15572 1.6977 0.52228 0.01238-0.0441 0.02618-0.0882 0.03996-0.12954 0.08957-0.27974 0.15848-0.50022 0.04823-0.93293-0.04272-0.17225 0.04685-0.35002 0.21222-0.41479 1.2733-0.50436 1.6798-2.3068 1.4221-3.8254-0.1819-1.0804-0.7469-2.1883-1.5999-2.2255-0.12402-4e-3 -0.23702-0.0758-0.29628-0.18604-0.05788-0.11024-0.05374-0.24391 0.01101-0.35002 0.21222-0.34589 0.15021-0.50712 0-0.89848-0.0193-0.04961-0.03859-0.10335-0.05926-0.15848-0.35002 0.25769-0.6339 0.34864-0.89297 0.42995-0.52641 0.16812-1.0253 0.3266-2.2944 2.5315-0.08957 0.15572-0.28112 0.21911-0.4451 0.14883l-0.22738-0.0978c-0.09646-0.0413-0.1695-0.1254-0.19844-0.226-0.0303-0.1006-0.01238-0.20946 0.04686-0.29628 2.4529-3.6105 1.8714-4.5379 1.1341-5.7134-0.24667-0.39412-0.51676-0.82544-0.70969-1.3767-0.0303 0.03583-0.04961 0.07717-0.06615 0.14745-0.03306 0.14745-0.1571 0.25769-0.3073 0.27285-0.15296 0.01379-0.2949-0.06615-0.35691-0.20395-0.54295-1.1865-1.2168-1.1162-2.333-1.0005-0.53055 0.05512-1.1148 0.11576-1.7474 0.0303l3.587 10.239 3.2646-0.8158c0.18741-0.0468 0.38034 0.0675 0.42719 0.25631 0.0083 0.0289 0.01101 0.0579 0.01101 0.0854 0 0.15848-0.10749 0.30179-0.26734 0.34175zm59.734 22.609c-0.0234 0-0.0496-3e-3 -0.0744-8e-3 -0.19017-0.0413-0.31144-0.22876-0.2701-0.41893l1.1576-5.344c-1.4924-0.29628-2.9876-0.56913-4.4828-0.81993l-0.6656 3.3004c-0.0386 0.19155-0.22186 0.31419-0.41616 0.27698-0.19155-0.0386-0.3142-0.22462-0.27561-0.41616l0.66008-3.2756c-2.9118-0.47129-5.8305-0.85576-8.7505-1.1493l-0.41479 3.3831c-0.0248 0.1943-0.19982 0.33073-0.39412 0.3073-0.19293-0.0234-0.33073-0.19981-0.3073-0.39274l0.41341-3.3666c-9.1998-0.88194-18.433-0.88194-27.632 0l0.41341 3.3666c0.02343 0.19293-0.11438 0.36931-0.3073 0.39274-0.19155 0.0234-0.36932-0.113-0.39412-0.3073l-0.41479-3.3831c-2.9201 0.29353-5.8387 0.678-8.7505 1.1493l0.66008 3.2756c0.03858 0.19154-0.08544 0.37758-0.27561 0.41616-0.19155 0.0372-0.37759-0.0854-0.41617-0.27698l-0.66559-3.3004c-1.4952 0.2508-2.9903 0.52365-4.4828 0.81993l1.1576 5.344c0.04134 0.19017-0.07993 0.37758-0.2701 0.41893-0.18879 0.0413-0.37896-0.0785-0.4203-0.2701l-1.2085-5.5811c-0.02067-0.0345-0.03583-0.073-0.0441-0.11437-0.0069-0.0372-0.0083-0.0744-0.0041-0.11025l-3.6146-16.688-3.8943-11.117c-0.0441-0.12402-0.01379-0.26458 0.07717-0.35967 0.09233-0.09646 0.23013-0.13229 0.35691-0.0937 0.74827 0.22462 1.4428 0.15158 2.1139 0.08268 0.98943-0.10335 2.0106-0.20946 2.7547 0.88194 0.01655-0.01517 0.03447-0.02755 0.04961-0.04134 0.10059-0.07717 0.1254-0.09646 0.14332-0.20533 0.02893-0.1695 0.17501-0.2949 0.34726-0.2949h0.0014c0.17088 0 0.31832 0.12402 0.34726 0.29352 0.13505 0.791 0.47267 1.3312 0.80064 1.8548 0.6022 0.95912 1.1452 1.8259 0.40101 3.7124 0.26045-0.17777 0.50574-0.27285 0.7717-0.35691 0.32108-0.10197 0.59807-0.19017 1.0363-0.63528 0.09233-0.09233 0.226-0.12678 0.3514-0.09095 0.12402 0.0372 0.21911 0.13918 0.24529 0.26596 0.04961 0.23564 0.12264 0.42444 0.19155 0.60772 0.12402 0.32384 0.25218 0.65732 0.14056 1.0749 0.86816 0.30179 1.5448 1.3105 1.7818 2.7202 0.27836 1.6468-0.113 3.6862-1.5875 4.4731 0.06339 0.45889-0.03305 0.76068-0.11851 1.0308-0.06064 0.19017-0.113 0.35415-0.10749 0.57877 0.0028 0.14607-0.08406 0.27975-0.21911 0.33487-0.13643 0.0551-0.29077 0.022-0.39136-0.0854-0.53054-0.56362-1.1121-0.64217-1.7873-0.7345-0.4644-0.0634-0.96463-0.13229-1.4538-0.37896 1.141 2.8084 4.3932 4.5103 7.7708 3.8902 1.9306-0.35553 3.6366-1.4373 4.6812-2.9724 0.70969-1.0432 1.0749-2.2297 1.0666-3.4272-0.37069 0.4203-0.82406 0.66834-1.2416 0.8971-0.59393 0.32521-1.1079 0.60634-1.396 1.3174-0.05512 0.13367-0.17363 0.22324-0.3321 0.21911-0.1447-1e-3 -0.27423-0.0923-0.32522-0.22875-0.07855-0.20809-0.18603-0.34176-0.31006-0.4961-0.18052-0.22186-0.37896-0.46853-0.48644-0.92053-1.6536-0.20533-2.7506-1.9637-3.0854-3.5967-0.28663-1.4015-0.02067-2.5893 0.67938-3.186-0.25218-0.34864-0.24943-0.70694-0.24529-1.0556 0.0014-0.19568 0.0028-0.39825-0.03305-0.6339-0.0193-0.12816 0.03305-0.25632 0.13505-0.33486 0.10335-0.07855 0.24116-0.09371 0.35967-0.03996 0.56775 0.25769 0.85852 0.24116 1.1961 0.22049 0.28388-0.01655 0.5526-0.01655 0.86679 0.06063-1.407-1.5462-1.1961-2.6072-0.9784-3.7124 0.11713-0.58567 0.23702-1.192 0.08268-1.9127-0.03583-0.16812 0.05374-0.33762 0.2136-0.40101 0.15985-0.06477 0.34175-0.0041 0.43133 0.14194 0.06201 0.10059 0.09784 0.11162 0.21773 0.15021 0.0014 0.0014 0.0041 0.0014 0.0069 0.0028 0.22462-0.966 1.1231-1.3932 1.8686-1.746 0.51125-0.24254 0.99357-0.47267 1.2595-0.82407 0.0565-0.07579 0.14194-0.1254 0.23702-0.1378 0.0937-0.01242 0.18879 0.01517 0.26458 0.07442 0.34589 0.27423 0.87092 0.38034 1.4276 0.49196 0.81304 0.16261 1.7901 0.35967 2.2379 1.2416 0.0055-0.0041 0.01101-0.0069 0.01655-0.01101 0.10748-0.06339 0.13367-0.07855 0.16674-0.18604 0.04961-0.16398 0.20946-0.27009 0.38172-0.24529 0.1695 0.02205 0.29904 0.16261 0.3073 0.33348 0.03583 0.80064 0.3073 1.378 0.56913 1.9375 0.48232 1.0239 0.9164 1.9485-0.04685 3.7276 0.27836-0.14194 0.53192-0.20395 0.8034-0.25356 0.33211-0.06201 0.61874-0.11438 1.1107-0.50161 0.10197-0.0813 0.24116-0.09922 0.36105-0.04685 0.11851 0.05237 0.19981 0.16674 0.20946 0.29628 0.01792 0.23702 0.06752 0.43271 0.11437 0.6215 0.08406 0.33349 0.1695 0.67524 0.0083 1.0776 0.82958 0.40652 1.378 1.4952 1.4387 2.9297 0.07166 1.6674-0.56913 3.638-2.1263 4.2333 0.0055 0.46439-0.12678 0.7524-0.24529 1.0128-0.08406 0.18191-0.1571 0.339-0.1819 0.565-0.01792 0.14331-0.12127 0.26321-0.26045 0.30041-0.14056 0.0372-0.28939-0.0165-0.37483-0.13367-0.45613-0.62287-1.0225-0.77032-1.6784-0.94257-0.43132-0.11301-0.8971-0.23565-1.3339-0.51402 0.46991 1.6619 1.4428 3.1006 2.7657 4.0528 1.4414 1.0377 3.1819 1.4263 4.9017 1.0955 2.8264-0.54295 5.0574-2.8925 5.7478-5.9063-0.3762 0.28525-0.78962 0.44923-1.1741 0.60357-0.62976 0.25081-1.1741 0.46716-1.5489 1.1369-0.07166 0.12678-0.2136 0.19843-0.35554 0.17639-0.14469-0.0193-0.26182-0.12541-0.2949-0.26734-0.05237-0.21911-0.14194-0.36518-0.24667-0.53468-0.15021-0.24116-0.31557-0.51126-0.36656-0.97565-1.6137-0.40239-2.4901-2.2751-2.6238-3.9316-0.11575-1.4332 0.2949-2.5838 1.0666-3.0923-0.20946-0.37758-0.16536-0.73036-0.12264-1.0735 0.02342-0.19568 0.04823-0.39688 0.03996-0.63803-0.0055-0.12954 0.06201-0.25218 0.17363-0.31695 0.113-0.06615 0.25218-0.06477 0.36243 0.0028 0.5333 0.32522 0.82407 0.34451 1.1603 0.36518 0.27561 0.01792 0.53468 0.04961 0.8282 0.15848-1.1741-1.6495-0.85439-2.6224-0.50023-3.7 0.19292-0.58704 0.39136-1.1934 0.33348-1.9913-0.01242-0.17226 0.1006-0.32797 0.26872-0.36794 0.16674-0.03996 0.339 0.0441 0.4079 0.20257 0.0441 0.10473 0.07166 0.11713 0.18741 0.1695 0.0028 0.0014 0.0055 0.0028 0.0083 0.0041 0.33762-0.93155 1.283-1.2444 2.0698-1.5048 0.53744-0.17639 1.0446-0.34451 1.3505-0.66008 0.13367-0.13781 0.37345-0.13781 0.50712 0 0.30593 0.31557 0.81304 0.48369 1.3505 0.66008 0.78686 0.26045 1.7322 0.57326 2.0698 1.5048 0.0028-0.0014 0.0055-0.0028 0.0097-0.0041 0.11437-0.05237 0.14194-0.06477 0.18603-0.1695 0.0689-0.1571 0.24116-0.24254 0.4079-0.20257 0.16812 0.03996 0.28112 0.19568 0.26872 0.36794-0.05788 0.79788 0.14056 1.4042 0.33348 1.9913 0.35416 1.0776 0.67386 2.0505-0.50023 3.7 0.29352-0.10886 0.5526-0.14056 0.8282-0.15848 0.33762-0.02067 0.62701-0.03996 1.1603-0.36518 0.11024-0.06752 0.24942-0.0689 0.36242-0.0028 0.11162 0.06477 0.17915 0.18741 0.17363 0.31695-0.0096 0.24116 0.01655 0.44235 0.03996 0.63803 0.04272 0.34313 0.08682 0.69591-0.12264 1.0735 0.7717 0.5085 1.1824 1.6592 1.0666 3.0923-0.13367 1.6564-1.0101 3.5292-2.6252 3.9316-0.04961 0.46439-0.21498 0.73449-0.36518 0.97565-0.10473 0.1695-0.1943 0.31557-0.24667 0.53468-0.03306 0.14193-0.15021 0.24804-0.2949 0.26734-0.14194 0.022-0.28526-0.0496-0.35554-0.17639-0.37483-0.66973-0.91915-0.88608-1.5489-1.1369-0.38448-0.15434-0.7965-0.31832-1.1727-0.6022 0.83785 3.6311 3.9247 6.2384 7.367 6.0041 2.8649-0.19567 5.2241-2.2944 6.0496-5.2489-0.43684 0.27974-0.90399 0.40101-1.3367 0.51539-0.65595 0.17225-1.2223 0.3197-1.6771 0.94257-0.0854 0.11713-0.23427 0.17088-0.37483 0.13367-0.14056-0.0372-0.24391-0.1571-0.26045-0.30041-0.0262-0.226-0.09922-0.38309-0.18327-0.565-0.11851-0.26045-0.2508-0.54846-0.24529-1.0128-1.5572-0.59532-2.198-2.5659-2.1263-4.2333 0.06201-1.4345 0.61047-2.5232 1.4387-2.9297-0.15985-0.40238-0.07442-0.74414 0.0083-1.0776 0.04686-0.18879 0.09646-0.38447 0.11438-0.6215 0.0097-0.12953 0.09095-0.24391 0.20946-0.29628 0.11989-0.05237 0.25769-0.03447 0.36105 0.04685 0.49196 0.38723 0.7786 0.4396 1.1107 0.50161 0.27148 0.04961 0.52504 0.11162 0.8034 0.25356-0.96325-1.7777-0.52917-2.7023-0.0468-3.7276 0.26182-0.55948 0.5333-1.1369 0.56913-1.9375 8e-3 -0.17088 0.1378-0.31144 0.3073-0.33348 0.17226-0.0248 0.33073 0.08131 0.38172 0.24529 0.0331 0.10749 0.0592 0.12265 0.16674 0.18604 5e-3 0.0041 0.011 0.0069 0.0165 0.01101 0.44786-0.88194 1.4249-1.079 2.2379-1.2416 0.55672-0.11162 1.0818-0.21773 1.4276-0.49196 0.0744-0.05926 0.16812-0.08682 0.26459-0.07442 0.0951 0.01242 0.18052 0.06201 0.23702 0.1378 0.26458 0.3514 0.74827 0.58153 1.2595 0.82407 0.74551 0.35278 1.644 0.77997 1.8686 1.746 3e-3 -0.0014 6e-3 -0.0014 8e-3 -0.0028 0.11851-0.03859 0.15434-0.04961 0.21635-0.15021 0.0896-0.1447 0.2701-0.20533 0.42995-0.14332 0.15847 0.06201 0.24942 0.23013 0.21635 0.39825-0.1571 0.7841-0.0345 1.4111 0.0841 2.0161 0.21911 1.1107 0.41617 2.1139-0.95774 3.6077 0.30455-0.07166 0.56776-0.07166 0.84337-0.05512 0.33624 0.02067 0.627 0.03721 1.1961-0.22049 0.11851-0.05374 0.25632-0.03859 0.35829 0.03996 0.10336 0.07855 0.15572 0.20671 0.13643 0.33486-0.0358 0.23426-0.0345 0.43684-0.0331 0.63252 4e-3 0.35002 8e-3 0.70831-0.24529 1.057 0.70005 0.59669 0.966 1.7846 0.67937 3.186-0.33486 1.633-1.4318 3.3914-3.084 3.5967-0.10749 0.452-0.30731 0.69867-0.48645 0.92053-0.1254 0.15434-0.23289 0.28801-0.31144 0.4961-0.051 0.13642-0.18052 0.22737-0.32522 0.22875h-5e-3c-0.14332 0-0.27285-0.0868-0.3266-0.21911-0.28801-0.71106-0.80201-0.99219-1.396-1.3174-0.41755-0.22876-0.86954-0.4768-1.2416-0.8971-8e-3 1.1975 0.35691 2.384 1.0666 3.4272 1.0446 1.5351 2.7506 2.6169 4.6812 2.9724 3.3803 0.62012 6.6311-1.0818 7.7708-3.8902-0.4892 0.24667-0.98943 0.31557-1.4538 0.37896-0.67524 0.0923-1.2568 0.17088-1.7873 0.7345-0.1006 0.10749-0.25632 0.14056-0.39137 0.0854-0.13504-0.0551-0.22186-0.1888-0.2191-0.33487 6e-3 -0.22462-0.0469-0.3886-0.10749-0.57877-0.0854-0.2701-0.1819-0.57189-0.11713-1.0308-1.4759-0.78686-1.8672-2.8264-1.5889-4.4731 0.23702-1.4097 0.91364-2.4185 1.7818-2.7202-0.11162-0.41754 0.0152-0.75102 0.14056-1.0749 0.0689-0.18328 0.14194-0.37207 0.19155-0.60772 0.0262-0.12678 0.12127-0.22876 0.24529-0.26596 0.12678-0.03583 0.25907-0.0014 0.35002 0.09095 0.43959 0.44511 0.71796 0.5333 1.0377 0.63528 0.26595 0.08406 0.51125 0.17914 0.7717 0.35691-0.74277-1.8865-0.2012-2.7533 0.40101-3.7124 0.26733-0.42719 0.54156-0.86541 0.70693-1.4414-4e-3 -0.0096-7e-3 -0.02205-8e-3 -0.03306-0.0565-0.26458 0.11989-0.4768 0.17915-0.5457 0.10197-0.12402 0.27423-0.16123 0.41892-0.09508 0.1447 0.06614 0.226 0.22186 0.19982 0.37896-6e-3 0.03168-0.011 0.06201-0.0165 0.09233 0.0524 0.02618 0.11162 0.0565 0.17226 0.09371 0.74689-1.152 1.7846-1.0432 2.7919-0.93844 0.67248 0.07028 1.3656 0.14194 2.1139-0.08268 0.12678-0.03859 0.26459-0.0028 0.35691 0.0937 0.091 0.09509 0.12127 0.23564 0.0772 0.35967l-3.8943 11.117-3.6146 16.688c4e-3 0.0358 3e-3 0.073-4e-3 0.11024-8e-3 0.0414-0.0234 0.0799-0.0441 0.11438l-1.2085 5.5811c-0.0372 0.16536-0.18328 0.27836-0.34589 0.27836" fill="#171921"/><path d="m92.75 101.04h-7.4772c-0.19568 0-0.35278-0.15847-0.35278-0.35277 0-0.19568 0.1571-0.35278 0.35278-0.35278h3.5484c-0.09784-0.0634-0.16261-0.17226-0.16261-0.29766v-3.2522c0-0.1943 0.15848-0.35278 0.35278-0.35278s0.35278 0.15848 0.35278 0.35278v3.2522c0 0.1254-0.06477 0.23427-0.16398 0.29766h3.5498c0.19568 0 0.35278 0.1571 0.35278 0.35278 0 0.1943-0.1571 0.35277-0.35278 0.35277" fill="#171921"/><path d="m89.012 98.978c0.76343 0 1.3822 0.61874 1.3822 1.3822 0 0.76205-0.61874 1.3822-1.3822 1.3822-0.76343 0-1.3822-0.62012-1.3822-1.3822 0-0.76343 0.61874-1.3822 1.3822-1.3822" fill="#fab814"/><path d="m89.012 99.331c-0.56775 0-1.0294 0.46164-1.0294 1.0294 0 0.56638 0.46164 1.0294 1.0294 1.0294 0.56775 0 1.0294-0.46302 1.0294-1.0294 0-0.56775-0.46164-1.0294-1.0294-1.0294m0 2.7643c-0.95636 0-1.735-0.77859-1.735-1.735 0-0.95636 0.77859-1.735 1.735-1.735 0.95636 0 1.735 0.77859 1.735 1.735 0 0.95636-0.77859 1.735-1.735 1.735" fill="#171921"/><path d="m109.09 102.5c-0.0138 0-0.0289-1e-3 -0.0427-3e-3l-7.4235-0.9122c-0.19292-0.0234-0.33073-0.19981-0.3073-0.39274 0.0248-0.19292 0.20395-0.32935 0.39412-0.3073l3.5223 0.43271c-0.0896-0.0744-0.14057-0.19155-0.12541-0.31557l0.39688-3.2274c0.0234-0.19293 0.19293-0.33073 0.39274-0.30592 0.19293 0.02342 0.33073 0.19982 0.3073 0.39274l-0.39687 3.2274c-0.0152 0.12402-0.0923 0.22462-0.19844 0.27561l3.5236 0.4327c0.19293 0.0234 0.33073 0.19982 0.30731 0.39274-0.022 0.17915-0.17501 0.31006-0.35002 0.31006" fill="#171921"/><path d="m105.58 99.991c0.75793 0.0937 1.2967 0.78272 1.2044 1.5406-0.0937 0.75792-0.78273 1.2954-1.5406 1.203-0.75792-0.0923-1.2967-0.78272-1.203-1.5406 0.0923-0.75654 0.78273-1.2954 1.5393-1.203" fill="#fab814"/><path d="m105.41 100.33c-0.51814 0-0.95635 0.3886-1.0197 0.90399-0.0689 0.56224 0.33348 1.0776 0.89572 1.1465 0.56913 0.0717 1.079-0.339 1.1479-0.89573 0.0689-0.56361-0.33349-1.0776-0.8971-1.1465-0.0427-6e-3 -0.0854-8e-3 -0.12679-8e-3m4e-3 2.7644c-0.0703 0-0.14194-4e-3 -0.21359-0.0138-0.94947-0.11713-1.6275-0.98391-1.5103-1.9334 0.11575-0.93845 0.97427-1.6275 1.9334-1.5103 0.94947 0.11713 1.6275 0.98392 1.5103 1.9334-0.10611 0.86955-0.84611 1.5241-1.7198 1.5241" fill="#171921"/><path d="m68.935 102.5c-0.17639 0-0.32797-0.13091-0.35002-0.31006-0.02343-0.19292 0.11437-0.36931 0.3073-0.39274l3.5236-0.4327c-0.10473-0.051-0.18328-0.15159-0.19844-0.27561l-0.39688-3.2274c-0.02343-0.19292 0.11438-0.36931 0.3073-0.39274 0.19293-0.02343 0.36932 0.113 0.39412 0.30592l0.3955 3.2274c0.01517 0.12402-0.03583 0.24115-0.1254 0.31557l3.5223-0.43271c0.1943-0.0221 0.36932 0.11438 0.39412 0.3073 0.02342 0.19293-0.11438 0.36932-0.3073 0.39274l-7.4221 0.91227c-0.01517 1e-3 -0.0303 3e-3 -0.0441 3e-3" fill="#171921"/><path d="m72.439 99.991c0.75654-0.09233 1.4469 0.44648 1.5393 1.203 0.0937 0.75793-0.44511 1.4483-1.203 1.5406-0.75792 0.0923-1.4469-0.44511-1.5393-1.203-0.0937-0.75792 0.44511-1.4469 1.203-1.5406" fill="#fab814"/><path d="m72.609 100.33c-0.04134 0-0.08406 3e-3 -0.12678 8e-3 -0.56362 0.0689-0.966 0.58291-0.89572 1.1465 0.06752 0.55673 0.57602 0.96463 1.1465 0.89572 0.56224-0.0689 0.96462-0.58428 0.89572-1.1465-0.06339-0.51539-0.5016-0.904-1.0197-0.904m-0.0041 2.7644c-0.87368 0-1.6123-0.65457-1.7198-1.5241-0.11576-0.94947 0.56086-1.8163 1.5103-1.9334 0.96049-0.11714 1.8176 0.57189 1.9334 1.5103 0.11713 0.94947-0.56086 1.8162-1.5103 1.9334-0.07166 0.01-0.14332 0.0138-0.2136 0.0138" fill="#171921"/><path d="m121.91 103.02c0.74001 0.18466 1.1906 0.93431 1.006 1.6757-0.18466 0.74001-0.93431 1.1906-1.6743 1.006-0.74138-0.18466-1.192-0.93431-1.0073-1.6743 0.18465-0.74139 0.93431-1.192 1.6757-1.0074" fill="#fab814"/><path d="m121.57 103.33c-0.47267 0-0.88194 0.32109-0.99632 0.78135-0.0675 0.26596-0.0248 0.54295 0.11575 0.7786 0.14194 0.23564 0.36656 0.40238 0.6339 0.46853 0.54708 0.13642 1.1121-0.20947 1.2471-0.74966 0.0662-0.26733 0.0248-0.54432-0.11575-0.77859-0.14194-0.23564-0.36656-0.40239-0.6339-0.46853-0.0827-0.0207-0.16674-0.0317-0.2508-0.0317m3e-3 2.7643c-0.14056 0-0.28249-0.0165-0.4203-0.051-0.45062-0.113-0.8282-0.39274-1.068-0.78962-0.2384-0.39825-0.30868-0.86403-0.19568-1.3133 0.19293-0.77446 0.8847-1.316 1.6812-1.316 0.14193 0 0.28387 0.0179 0.42168 0.0524 0.44924 0.11162 0.8282 0.39274 1.0666 0.78961 0.23977 0.39688 0.30868 0.86266 0.19706 1.3133-0.19293 0.77445-0.8847 1.3146-1.6826 1.3146" fill="#171921"/><path d="m56.112 103.02c0.74138-0.18466 1.491 0.26596 1.6757 1.0074 0.18465 0.74-0.26596 1.4896-1.006 1.6743-0.74138 0.18466-1.491-0.26596-1.6757-1.006-0.18466-0.74138 0.26596-1.491 1.006-1.6757" fill="#fab814"/><path d="m56.448 103.33c-0.08406 0-0.16812 0.011-0.2508 0.0317-0.54984 0.13643-0.88608 0.69591-0.74965 1.2471 0.13505 0.54019 0.69867 0.8847 1.2485 0.74965 0.26596-0.0661 0.49058-0.23289 0.63252-0.46853 0.14194-0.23564 0.18328-0.51263 0.11575-0.77859-0.11438-0.46027-0.52365-0.78135-0.99632-0.78135m-0.0028 2.7644c-0.7965 0-1.4883-0.5402-1.6826-1.3146-0.23014-0.9288 0.33624-1.8714 1.2637-2.1029 0.1378-0.0345 0.27974-0.0524 0.42168-0.0524 0.7965 0 1.4883 0.54158 1.6812 1.316 0.23151 0.92742-0.33486 1.8714-1.2637 2.1029-0.13781 0.0345-0.27974 0.051-0.4203 0.051" fill="#171921"/><path d="m112.88 115.3c-0.25631 0-0.50987-0.011-0.75792-0.0331-2.971-0.26182-6.5457-2.1277-7.5709-6.4699-1.243 2.9435-3.7662 4.7749-6.8433 4.8769-3.7359 0.12127-7.0652-2.2586-8.6927-6.1364-1.6288 3.8778-4.9527 6.2563-8.6927 6.1364-3.0772-0.10197-5.6003-1.9334-6.8433-4.8769-1.0253 4.3422-4.5999 6.2081-7.5709 6.4699-3.3431 0.29353-7.4938-1.3656-8.7064-5.7106-0.05237-0.18741 0.05788-0.38171 0.24529-0.43408 0.18741-0.0524 0.38172 0.0565 0.43408 0.24391 1.1107 3.9784 4.8025 5.4791 7.9651 5.198 3.0069-0.26596 6.6862-2.3234 7.1617-7.2498 0.01655-0.17088 0.15296-0.30455 0.32384-0.31833 0.1695-0.0166 0.32522 0.0978 0.36931 0.2632 0.89573 3.4162 3.4423 5.6045 6.6449 5.7092 3.6918 0.12265 6.966-2.4474 8.3344-6.5443 0.04823-0.14469 0.18328-0.24115 0.33486-0.24115s0.28663 0.0965 0.33486 0.24115c1.3684 4.0969 4.6454 6.667 8.3344 6.5443 3.2026-0.10472 5.7492-2.293 6.6449-5.7092 0.0441-0.16536 0.20119-0.2756 0.36931-0.2632 0.17088 0.0138 0.3073 0.14745 0.32384 0.31833 0.47542 4.9265 4.1548 6.9839 7.1617 7.2498 3.1681 0.27975 6.8544-1.2196 7.9651-5.198 0.0524-0.18741 0.24942-0.2949 0.43407-0.24391 0.18742 0.0524 0.29766 0.24667 0.2453 0.43408-1.1231 4.0211-4.7625 5.7437-7.9485 5.7437" fill="#171921"/><path d="m61.294 126.86c-0.65043 0.16261-1.0239-1.593-0.37483-1.7556 18.553-3.6298 37.633-3.6298 56.185 0 0.65044 0.1626 0.27561 1.9182-0.37482 1.7556m-57.729-10.648c19.793-4.1479 40.229-4.1479 60.022 0 0.65044 0.1626 0.32522 1.8369-0.32521 1.6743-19.582-4.0569-39.788-4.0569-59.371 0-0.65043 0.16261-0.97565-1.5117-0.32522-1.6743" fill="#fab814"/><path d="m59.085 116.55c-0.02755 0.011-0.0813 0.10748-0.08544 0.29352-0.0083 0.37207 0.16812 0.67386 0.24254 0.69591 19.758-4.0942 39.781-4.0955 59.527-4e-3 0.0868-0.0179 0.26321-0.31832 0.25494-0.6904-4e-3 -0.19154-0.0606-0.28938-0.0868-0.29627-19.849-4.1589-39.991-4.1603-59.852 1e-3m0.15296 1.6964c-0.20257 0-0.40514-0.0937-0.56637-0.27148-0.1819-0.20119-0.27423-0.45889-0.31832-0.63941-0.15572-0.62149-0.01242-1.327 0.56224-1.4704 0.0041-1e-3 0.0096-3e-3 0.01379-4e-3 19.961-4.1824 40.204-4.1824 60.165 0 0.58842 0.14745 0.73311 0.85163 0.57601 1.4745-0.0441 0.18052-0.13642 0.43821-0.31832 0.63941-0.20395 0.22462-0.47405 0.31419-0.74001 0.24805-19.637-4.068-39.563-4.068-59.214 4e-3 -0.05237 0.0124-0.10611 0.0193-0.15986 0.0193m57.58 8.9724c-0.0579 0-0.11575-7e-3 -0.17363-0.0207-0.18879-0.0482-0.30317-0.23978-0.25631-0.42857 0.0469-0.18879 0.2384-0.30455 0.42719-0.25631 0.0593-0.0193 0.21222-0.24116 0.26183-0.58016 0.0427-0.2949-0.0234-0.46853-0.0579-0.49196-18.577-3.6325-37.436-3.6339-56.031 4e-3 -0.01792 0.0193-0.08268 0.19154-0.04134 0.48507 0.04961 0.34037 0.20257 0.56362 0.26734 0.58291 0.19017-0.0468 0.37758 0.0675 0.42444 0.25631 0.04823 0.1888-0.07028 0.38034-0.25907 0.42858-0.25769 0.0634-0.51401-0.0179-0.71934-0.23014-0.35278-0.36518-0.52641-1.1107-0.37896-1.6275 0.08819-0.30868 0.28388-0.51676 0.5526-0.58291 18.704-3.6601 37.652-3.6601 56.338-4e-3 0.52503 0.13091 0.74828 0.74276 0.56086 1.4938-0.15158 0.60358-0.50712 0.97152-0.91502 0.97152" fill="#171921"/><path d="m83.484 124.32v-7.0556c0-3.0524 2.475-5.5273 5.5273-5.5273 3.0524 0 5.5273 2.475 5.5273 5.5273v7.0556h-9.2659v-7.0556c0-2.0657 1.6729-3.74 3.7386-3.74 2.0643 0 3.74 1.6743 3.74 3.74v7.0556" fill="#fab814"/><path d="m85.626 123.97h6.7717v-6.7028c0-1.8672-1.5186-3.3872-3.3858-3.3872-1.8672 0-3.3858 1.52-3.3858 3.3872zm8.9132 0.70555h-9.2659c-0.19568 0-0.35278-0.15847-0.35278-0.35277v-7.0556c0-2.2572 1.8355-4.0928 4.0914-4.0928s4.0914 1.8355 4.0914 4.0928v6.7028h1.0831v-6.7028c0-2.8539-2.3206-5.1745-5.1745-5.1745-2.8525 0-5.1745 2.3206-5.1745 5.1745v7.0556c0 0.1943-0.15848 0.35277-0.35278 0.35277s-0.35278-0.15847-0.35278-0.35277v-7.0556c0-3.2425 2.6376-5.8801 5.8801-5.8801 3.2425 0 5.8801 2.6376 5.8801 5.8801v7.0556c0 0.1943-0.15848 0.35277-0.35278 0.35277" fill="#171921"/><path d="m87.385 110.93h3.2522l-0.48782 2.927h-2.2765z" fill="#fab814"/><g fill="#171921"><path d="m88.172 113.5h1.6785l0.36931-2.22h-2.4171zm1.9775 0.70556h-2.2765c-0.17225 0-0.3197-0.12402-0.34727-0.29352l-0.48782-2.927c-0.01792-0.10198 0.01101-0.20671 0.07855-0.28526 0.06752-0.0799 0.16536-0.1254 0.26872-0.1254h3.2522c0.10335 0 0.2012 0.0455 0.26872 0.1254 0.06752 0.0786 0.09646 0.18328 0.07855 0.28526l-0.48782 2.927c-0.02755 0.1695-0.17501 0.29352-0.34727 0.29352"/><path d="m89.012 124.94c-0.24391 0-0.44097-0.19706-0.44097-0.44097v-10.598c0-0.24391 0.19706-0.44097 0.44097-0.44097s0.44097 0.19706 0.44097 0.44097v10.598c0 0.24391-0.19706 0.44097-0.44097 0.44097"/><path d="m116.57 127.56c-0.0386 0-0.0785-3e-3 -0.11714-0.011-18.208-3.492-36.671-3.492-54.879 0-0.33486 0.0648-0.6587-0.15434-0.72209-0.48921-0.06477-0.33486 0.15434-0.6587 0.4892-0.72347 18.362-3.5209 36.982-3.5209 55.345 0 0.33486 0.0648 0.55397 0.38861 0.4892 0.72347-0.0565 0.2949-0.31557 0.50023-0.60495 0.50023"/></g><path d="m59.929 128.57v49.338c0 6.6532 0 12.397 8.4157 17.294l20.602 11.569 20.615-11.577c8.406-4.8038 8.4046-10.428 8.4019-16.94v-49.684z" fill="#fff"/><path d="m59.929 128.57v49.338c0 6.6532 0 12.397 8.4157 17.294l20.602 11.569 20.615-11.577c8.406-4.8038 8.4046-10.428 8.4019-16.94v-49.684zm29.017 80.628-21.652-12.158c-9.4823-5.5163-9.4823-12.438-9.4823-19.131v-51.455h62.268v51.8c3e-3 6.5705 6e-3 13.364-9.4754 18.781z" fill="#171921"/><path d="m95.953 192.21c-1.1217-0.14607-2.0478 0.53606-2.3248 1.3326 0.30868-0.24253 1.2857-0.38998 1.9196-0.1943-0.87918-0.0482-1.757 0.66559-1.9348 1.3174 0.35691-0.29352 1.4952-0.37482 1.9182-0.19568-0.7965 0.0317-1.5613 0.6339-1.7887 1.3009 0.37345-0.24391 1.4139-0.34175 1.9995-0.19568-0.86127 0.12954-1.48 0.74827-1.6743 1.3174 0.5209-0.34175 1.203-0.31005 2.0491-0.26045-0.87781 0.32522-1.1713 0.69867-1.4635 1.2843 0.48644-0.30868 1.3491-0.32522 2.1938-0.26045m-23.508-10.794c-0.86128-0.52089-2.0478-0.34175-2.6004 0.37345 0.61736-0.11438 1.5282 0.22738 1.8852 0.51952-0.58429-0.37345-1.8039-0.14469-2.2751 0.50436 0.55259-0.14607 1.4469 0.22738 1.9182 0.50436-0.61874-0.21083-1.5765-0.1626-2.1787 0.56914 0.50436-0.11438 1.3339 0.1626 1.87 0.47128-0.76481-0.17914-1.5131 0.11438-1.9513 0.6339 0.66697-0.14607 1.4152 0.24391 1.87 0.45613-0.86128-0.0165-1.3822 0.32384-1.6909 0.68213 0.55259-0.113 1.3987 0.17915 2.0161 0.50436m-1.4635-37.035c-0.1943-0.89297-0.97565-1.8369-1.8535-1.7226 0.40652 0.27698 0.7152 1.3174 0.82958 1.983-0.27699-0.7469-0.95911-1.5434-1.7722-1.4456 0.43822 0.38861 0.69867 1.3477 0.86128 2.0643-0.43822-0.82959-0.97565-1.447-1.7722-1.3505 0.53606 0.52089 0.73174 1.4304 0.86265 2.1304-0.26045-0.58566-0.86265-1.3009-1.6757-1.2196 0.50436 0.45475 0.7152 1.4469 0.89435 2.1787-0.32522-0.4396-0.81304-1.057-1.5765-0.99219 0.50298 0.48783 0.73174 1.4469 0.94258 2.1787m5.4791-21.004c0.01517-1.1383-0.76481-1.8686-1.4469-1.9348 0.40652 0.47129 0.48783 1.1548 0.5526 1.8204-0.13091-0.94257-0.82958-1.5599-1.4304-1.5916 0.32522 0.34038 0.50298 1.0404 0.53606 1.7226-0.09784-0.51952-0.58566-1.3009-1.3987-1.3822 0.37483 0.38998 0.48782 1.1217 0.56913 1.7887-0.113-0.56913-0.69867-1.2196-1.3491-1.2678 0.27699 0.22738 0.50436 1.0556 0.5526 1.6909-0.08131-0.26045-0.53606-0.89435-1.2513-0.97565 0.37345 0.34037 0.53606 1.17 0.6022 1.8204m24.743-0.24391c-0.91088-0.43821-2.5521-0.17914-4.0652-0.42305-3.0386-0.48645-3.4134-1.3491-3.4134-1.983-0.01655-0.6656-0.61736-0.69867-0.61736 0.0165 0.01517 4.2264 6.372 2.0643 8.1773 3.1543" fill="#eb1923"/><path d="m90.702 141.25v-0.45476c0-0.53743 1.316-0.50436 1.316-0.0179v0.35829m-2.6169 0.23565v-0.51126c0-0.53743 1.1383-0.50436 1.1548 0v0.40652m-2.2765 0.19431c-0.04823-0.45476 0-0.84474 0.35829-1.1052 0.17776 0.32522 0.37345 0.6339 0.60082 0.91088v0.113m0.87781-4.2264c0.4396 0.12953 0.86128 0.27698 1.2361 0.51952-0.08131 0.19568-0.22738 0.39136-0.5209 0.39136-0.25907 0-0.55259-0.0165-0.7152-0.32521-0.0813-0.16261-0.04823-0.39137 0-0.58567m-0.1943-0.0496c0 0.21222-0.04961 0.42306-0.11438 0.5209-0.16261 0.26045-0.76343 0.24391-0.89434-0.11438-0.04823-0.14607-0.04823-0.40652 0.01655-0.64905 0.32522 0.0799 0.66697 0.14607 0.99219 0.24253m-2.6017-0.86128c0.24391 0.14608 0.58567 0.32522 1.09 0.47129-0.27698 0.22738-0.53743 0.55398-0.61874 0.91089-0.43822-0.30868-0.61736-0.87781-0.47129-1.3822m12.616-2.796c0.38998-0.5209 0.9908-1.0239 1.6412-1.2347 0.95911-0.32659 1.3491 0.45476 0.58566 0.71383-0.6339 0.27699-1.17 0.66697-1.6261 1.1231m-5.2503 1.5765c-0.24391 0-0.68351-0.12953-0.81304-0.30868-1.4139-2.1621-1.7722-1.3822-1.983-0.63389-0.17914 0.66559-0.95911 0.68212-0.73174-0.21222 0.56913-2.1938 2.1125-1.8852 4.0321 1.1548m-10.341 11.819c-1.706 2.096-2.6651 3.153-2.6004 8.242-16.111-9.2012-11.396-10.519-14.924-16.014-0.5526-0.86127 3.04-2.8608 4.1782-2.0161 2.2917 1.6908 1.4469 4.8783 3.3486 6.3252 1.8865 1.4304 5.2517 2.0643 9.9977 3.463m4.6826-14.908-3.966 0.14607c-0.19568 0.0166-0.34175 0.113-0.34175 0.34037 0.01655 1.4304 0.29214 2.3578 1.316 3.1047-0.12954 0.79789-0.04823 1.2044 0.78135 1.87 0.0813-0.65044 0.34175-0.94258 0.7469-1.2196 0.03306 0.0165 0.06615 0.0165 0.08131 0.0331-0.04823 0.29215-0.04823 0.60083 0.01655 0.77997 0.16261 0.45614 0.95912 0.47267 1.1713 0.14745 0.1943 0.47129 0.60082 0.48783 0.92604 0.48783 0.34175 0 0.50436-0.24529 0.61736-0.47267 0.19568 0.16261 0.38998 0.34176 0.56913 0.56913 0.56913 0.77997 0.66697 1.7887 0.66697 2.7478l-0.53744 0.0482v-0.38998c-0.01517-0.55259-1.2995-0.65044-1.5916-0.17777-0.32522-0.35829-1.3339-0.29352-1.3339 0.27561v0.17916c-0.22738-0.29352-0.40652-0.6022-0.55259-0.91088-0.40652 0.26045-0.65043 0.45613-0.58567 1.3822-0.17776 0.0165-0.35691 0.0317-0.51952 0.0482 0.01517 1.0735 0.48644 1.3656 4.3243 1.2843 0.09646 1.0735-0.97565 1.6757-1.7722 2.1787-2.0808 1.1865-4.2761 2.4874-5.4625 4.666-0.99219 1.7239-1.2361 3.7717-1.1217 5.7547l1.1383-0.50298 0.12954 0.61736c-2.0478 0.97566-5.7878 2.9586-8.242 4.0955-0.60083 0.27699-2.1621 0.66697-2.4874 0.11438-1.1217-1.9348-2.0161-3.3969-3.3169-4.8769-0.66559-0.76481-5.0877 2.8939-4.2747 4.1286 1.8535 2.8126 4.8769 6.8447 9.9164 6.8778 5.2186 0.0317 9.7538-1.8865 10.746-2.1787l0.21084 0.66559c-0.66559 0.29352-1.2513 0.50436-1.9499 0.73311 0.90951 3.576 1.9665 4.9734 4.4221 7.152l-0.50436 0.37483c-0.43959-0.26045-1.1865-1.09-1.593-1.48-5.2186 2.4708-7.1699 4.943-8.4212 7.4938-1.3822 3.073-1.1217 6.5691-0.53606 9.8034 0.113 0.53744-0.47267 0.79651-0.91088 0.6339-1.203-0.27561-1.87-1.4786-3.0248-1.9182-0.51952-0.22738-1.203-0.48645-1.7708-0.38998-0.92742 0.1626-1.9196 4.8452-0.97565 5.2999 1.7556 0.86127 3.6739 1.0404 5.6238 2.0478 1.2843 0.52089 2.5204 1.367 3.9839 1.1383 0.8282-0.0799 1.6578-0.65044 1.7391-1.5269 0.73174-3.1543 1.7556-6.5043 4.1617-8.7795 1.1548-1.1383 2.65-2.0478 4.13-2.7478-0.58566-2.2434-1.0239-4.4869-0.97565-6.8282l0.7152-0.0317c0.51952 8.909 2.8939 10.778 7.0721 14.924 0.42305 0.42168 0.38998 1.2196-0.22738 1.4621-0.81304 0.40652-1.7722 0.42306-2.6996 0.47267-0.99081 0.0482-0.24391 5.5438 1.2196 5.4942 2.5687-0.0813 5.2352-2.0808 6.7799-4.0487 0.64905-0.81166 1.4304-1.6247 2.0478-2.4212 0.76343-0.99219-0.0648-2.147-0.29214-3.0565-0.63528-2.6017-0.92742-10.079-0.96049-11.119l0.91088 0.0152 0.13091-1.8852c-2.7161-3.3652-2.2765-8.6334-3.3982-12.03-0.43822-1.3822-0.92604-2.8126-0.92604-4.276 0-1.983 2.2421-5.7065 2.1938-9.022-0.0152-1.3987-0.7965-3.2191-0.77997-4.0487 0.0165-2.406 1.3987-1.8852 1.3656-6.893-0.0165-1.3822-0.17915-2.406-0.53743-3.8199 2.4226-2.5521-0.90951-5.1042-2.8277-3.5126-1.5448-0.40515-1.7391-0.81167-4.7639-0.81167-2.5838 0-4.0638 0.69866-5.6734 1.7722" fill="#171921"/></g></g></svg>
