<?xml version="1.0" encoding="UTF-8"?><svg id="a" xmlns="http://www.w3.org/2000/svg" viewBox="0 0 45.35 45.35"><defs><style>.f{fill:#fff;}.g{fill:#be1e2d;}</style></defs><g id="b"/><g><g><polygon class="g" points="19.59 30.68 25.94 30.68 25.95 30.77 27.21 30.77 27.2 30.68 28.32 30.68 28.32 29.44 23.34 29.44 23.34 28.19 22.1 28.19 22.1 29.44 17.12 29.44 17.12 30.68 18.33 30.68 18.32 30.77 19.58 30.77 19.59 30.68"/><path class="f" d="M27.21,33.03h-3.25v-.09h-2.38v.09h-5.87v-.09h-.86v-5.78h4.98v-1.24h5.78v1.24h4.98v5.78c-.54-.02-2.8,.07-3.38,.09Z"/></g><g><path class="g" d="M22.1,23.73v3.79h1.24v-3.77c2.78-.58,2.3-4.97-.58-4.89-2.82-.08-3.37,4.2-.67,4.87m.67-3.63c1.6-.02,1.6,2.5,0,2.47-1.6,.02-1.6-2.5,0-2.47"/><path class="f" d="M25.61,29.8h-5.78v-4.72c-3.5-2.58-1.47-8.62,2.94-8.48,4.46-.15,6.46,6.05,2.84,8.56v4.65Zm-2.84-8.67c-.29,0-.25,.43,0,.43,.25,0,.3-.43,0-.43Z"/></g><g><rect class="g" x="26.49" y="20.64" width="1.24" height="1.33"/><rect class="f" x="24.23" y="18.38" width="5.78" height="5.86"/></g><g><rect class="g" x="29.48" y="19.48" width="1.24" height="3.73"/><rect class="f" x="27.21" y="17.21" width="5.78" height="8.27"/></g><g><rect class="g" x="32.55" y="18.32" width="1.24" height="6.06"/><rect class="f" x="30.28" y="16.05" width="5.78" height="10.59"/></g><g><rect class="g" x="35.79" y="16.99" width="1.24" height="8.71"/><rect class="f" x="33.52" y="14.72" width="5.78" height="13.25"/></g><g><rect class="g" x="38.86" y="15.83" width="1.24" height="11.03"/><rect class="f" x="36.59" y="13.56" width="5.78" height="15.57"/></g><g><rect class="g" x="41.84" y="14.59" width="1.24" height="13.61"/><rect class="f" x="39.57" y="12.32" width="5.78" height="18.14"/></g><g><rect class="g" x="17.7" y="20.64" width="1.24" height="1.33"/><rect class="f" x="15.43" y="18.38" width="5.78" height="5.86"/></g><g><rect class="g" x="14.63" y="19.48" width="1.24" height="3.73"/><rect class="f" x="12.36" y="17.21" width="5.78" height="8.27"/></g><g><rect class="g" x="11.64" y="18.32" width="1.24" height="6.06"/><rect class="f" x="9.38" y="16.05" width="5.78" height="10.59"/></g><g><rect class="g" x="8.49" y="16.99" width="1.24" height="8.71"/><rect class="f" x="6.22" y="14.72" width="5.78" height="13.25"/></g><g><rect class="g" x="5.42" y="15.83" width="1.24" height="11.03"/><rect class="f" x="3.15" y="13.56" width="5.78" height="15.57"/></g><g><rect class="g" x="2.27" y="14.59" width="1.25" height="13.61"/><rect class="f" y="12.32" width="5.78" height="18.14"/></g><polygon class="g" points="19.59 30.68 25.94 30.68 25.95 30.77 27.21 30.77 27.2 30.68 28.32 30.68 28.32 29.44 23.34 29.44 23.34 28.19 22.1 28.19 22.1 29.44 17.12 29.44 17.12 30.68 18.33 30.68 18.32 30.77 19.58 30.77 19.59 30.68"/><path class="g" d="M22.1,23.73v3.79h1.24v-3.77c2.78-.58,2.3-4.97-.58-4.89-2.82-.08-3.37,4.2-.67,4.87m.67-3.63c1.6-.02,1.6,2.5,0,2.47-1.6,.02-1.6-2.5,0-2.47"/><rect class="g" x="26.49" y="20.64" width="1.24" height="1.33"/><rect class="g" x="29.48" y="19.48" width="1.24" height="3.73"/><rect class="g" x="32.55" y="18.32" width="1.24" height="6.06"/><rect class="g" x="35.79" y="16.99" width="1.24" height="8.71"/><rect class="g" x="38.86" y="15.83" width="1.24" height="11.03"/><rect class="g" x="41.84" y="14.59" width="1.24" height="13.61"/><rect class="g" x="17.7" y="20.64" width="1.24" height="1.33"/><rect class="g" x="14.63" y="19.48" width="1.24" height="3.73"/><rect class="g" x="11.64" y="18.32" width="1.24" height="6.06"/><rect class="g" x="8.49" y="16.99" width="1.24" height="8.71"/><rect class="g" x="5.42" y="15.83" width="1.24" height="11.03"/><rect class="g" x="2.27" y="14.59" width="1.25" height="13.61"/></g><g id="c"><g id="d"><g id="e"/></g></g></svg>