<?xml version="1.0" encoding="UTF-8"?>
<svg width="99.966mm" height="99.966mm" version="1.1" viewBox="0 0 99.966 99.966" xmlns="http://www.w3.org/2000/svg"><g transform="translate(-57.301 -92.341)"><circle cx="107.28" cy="142.32" r="48.483" fill="#fff" stroke="#fff" stroke-width="3"/><g transform="matrix(.33602 0 0 .33602 77.295 110.26)"><g stroke="#000"><path d="m0 0.9825 1.1008 133.93c0.3177 38.65 40.825 80.08 88.186 80.12 51.713 0.03 88.483-42.56 88.673-83.05l0.61-131-89.283 0.0025h-89.287z" fill="#fff" fill-rule="evenodd" stroke-width="1.875"/><g stroke-width="1pt"><g stroke-linecap="round" stroke-linejoin="round"><path d="m109.99 128.06 16.8 25.7s0.92 1.06 1.62 0.77c0.71-0.28 2.05-5.22 3.81-6.35 1.77-1.13 4.45-0.92 6.01-1.91 1.55-0.98 2.18-1.13 2.18-1.13s1.42-2.33 3.18-1.48c1.77 0.85 2.47 1.91 2.47 1.91s-1.98-0.64-2.68-0.28c-0.71 0.35-0.57 1.48-0.57 1.48s0.67 0.89-0.05 1.69c-0.86 0.88-2.21 0-2.21 0s-0.28 0.85-1.34 1.06-2.21-0.29-2.78 0.21c-0.56 0.49-0.6 1.56-1.24 2.05s-2.4 1.69-1.98 2.4c0.43 0.71 2.19 1.2 3.53 0.99s3.48-1.89 5.25-1.82c1.76 0.07 3.01 1.18 4.07 1.82 1.06 0.63 2.26-0.99 3.04-0.21 0.77 0.77 0.77 1.41 0.77 1.41s1.34-1.13 2.62-0.07c1.27 1.06 1.76 2.12 1.76 2.12s-2.12-0.29-2.96-0.14c-0.85 0.14-1.06 0.42-1.06 0.42s1.06 1.22-0.55 2.03c-1.51 0.86-2.28-0.9-2.28-0.9 0.19-0.37-0.54-1.38-1.53-1.95-0.99-0.56-2.14-1.02-2.91-0.88-0.78 0.15-1.27 1.4-2.12 1.4s-1.28-1.24-2.41-1.1c-1.13 0.15-1.12 1.26-2.04 1.26s-2.97-0.28-2.97-0.28l5.3 5.93s1.41-0.64 2.47 0.7 1.13 2.54 1.13 2.54 2.05-0.42 2.4 1.13c0.35 1.56-0.14 3.46-0.14 3.46s-0.35-0.56-1.34-1.2c-0.99-0.63-1.27-0.56-1.27-0.56s0.49 2.68-0.85 2.68-1.98-1.84-1.98-1.84l-2.33-4.8s-1.69-0.07-2.54-0.77c-0.85-0.71-0.85-2.33-1.76-3.18-0.92-0.85-2.12 0.49-3.04-0.64s-1.34-2.33-1.34-2.33-1.84 0.85-3.18 0.85-0.75-0.5-1.74-0.64-0.54 1.05-1.67 0.91-1.32-0.51-1.95-0.51c-0.64 0-0.95 1.4-2.61 1.15-1.62-0.33-1.91-2.04-1.91-2.04s0.49-1.55-0.78-1.41-1.48 0.49-1.48 0.49 1.41-2.54 3.25-2.11c1.83 0.42 1.62 0.98 1.62 0.98s1.06-0.49 1.56-0.28c0.49 0.21 1.69 0.99 2.96 0.78s1.41-1.06 1.41-2.05-16.52-21.25-16.52-21.25l-5.29-7.69 7.13-1.77z" fill="#ff0" fill-rule="evenodd"/><g fill="none"><path d="m117.89 157.22s-0.63 1.69-2.33 1.34"/><path d="m141.9 167.38s-1.35 0.85-0.07 2.9"/><path d="m149.8 156.3s-0.99 1.98 0.43 2.61"/><path d="m140.13 145.36s-0.49 1.76 2.68 1.41"/></g></g><g transform="matrix(-.99845 -.055576 -.055576 .99845 187.31 7.5897)" stroke-linecap="round" stroke-linejoin="round"><path d="m109.99 128.06 16.8 25.7s0.92 1.06 1.62 0.77c0.71-0.28 2.05-5.22 3.81-6.35 1.77-1.13 4.45-0.92 6.01-1.91 1.55-0.98 2.18-1.13 2.18-1.13s1.42-2.33 3.18-1.48c1.77 0.85 2.47 1.91 2.47 1.91s-1.98-0.64-2.68-0.28c-0.71 0.35-0.57 1.48-0.57 1.48s0.67 0.89-0.05 1.69c-0.86 0.88-2.21 0-2.21 0s-0.28 0.85-1.34 1.06-2.21-0.29-2.78 0.21c-0.56 0.49-0.6 1.56-1.24 2.05s-2.4 1.69-1.98 2.4c0.43 0.71 2.19 1.2 3.53 0.99s3.48-1.89 5.25-1.82c1.76 0.07 3.01 1.18 4.07 1.82 1.06 0.63 2.26-0.99 3.04-0.21 0.77 0.77 0.77 1.41 0.77 1.41s1.34-1.13 2.62-0.07c1.27 1.06 1.76 2.12 1.76 2.12s-2.12-0.29-2.96-0.14c-0.85 0.14-1.06 0.42-1.06 0.42s1.06 1.22-0.55 2.03c-1.51 0.86-2.28-0.9-2.28-0.9 0.19-0.37-0.54-1.38-1.53-1.95-0.99-0.56-2.14-1.02-2.91-0.88-0.78 0.15-1.27 1.4-2.12 1.4s-1.28-1.24-2.41-1.1c-1.13 0.15-1.12 1.26-2.04 1.26s-2.97-0.28-2.97-0.28l5.3 5.93s1.41-0.64 2.47 0.7 1.13 2.54 1.13 2.54 2.05-0.42 2.4 1.13c0.35 1.56-0.14 3.46-0.14 3.46s-0.35-0.56-1.34-1.2c-0.99-0.63-1.27-0.56-1.27-0.56s0.49 2.68-0.85 2.68-1.98-1.84-1.98-1.84l-2.33-4.8s-1.69-0.07-2.54-0.77c-0.85-0.71-0.85-2.33-1.76-3.18-0.92-0.85-2.12 0.49-3.04-0.64s-1.34-2.33-1.34-2.33-1.84 0.85-3.18 0.85-0.75-0.5-1.74-0.64-0.54 1.05-1.67 0.91-1.32-0.51-1.95-0.51c-0.64 0-0.95 1.4-2.61 1.15-1.62-0.33-1.91-2.04-1.91-2.04s0.49-1.55-0.78-1.41-1.48 0.49-1.48 0.49 1.41-2.54 3.25-2.11c1.83 0.42 1.62 0.98 1.62 0.98s1.06-0.49 1.56-0.28c0.49 0.21 1.69 0.99 2.96 0.78s1.41-1.06 1.41-2.05-16.52-21.25-16.52-21.25l-5.29-7.69 7.13-1.77z" fill="#ff0" fill-rule="evenodd"/><g fill="none"><path d="m117.89 157.22s-0.63 1.69-2.33 1.34"/><path d="m141.9 167.38s-1.35 0.85-0.07 2.9"/><path d="m149.8 156.3s-0.99 1.98 0.43 2.61"/><path d="m140.13 145.36s-0.49 1.76 2.68 1.41"/></g></g><g transform="matrix(-1,0,0,1,283.58,-21.004)"><g fill-rule="evenodd"><path transform="translate(105.02,20.327)" d="m132.5 37.625s1.08 6.439-3.57 12.257c-4.66 5.818-6.13 5.119-7.76 4.964s-2.95 0.233-3.1-2.172c-0.16-2.405 1.63-2.249 1.63-2.249s6.2 1.241 7.75-3.879 2.1-10.628 2.1-10.628l1.7-3.103z" fill="#f00"/><path transform="translate(105.02,20.327)" d="m107.51 65.124s15.69 1.317 21.39-9.435c5.71-10.751 5.38-17.991 5.38-17.991s-11.3-2.523-11.96-12.616 8.78-10.751 8.78-10.751 24.9 1.206 30.06-0.439c5.15-1.646 5.92-1.646 5.92-1.646s1.1 6.363-5.37 9.764c-6.48 3.401-15.14 3.072-15.14 3.072s13.6 3.949 17.55 4.498c3.95 0.548 10.64 1.426 10.64 1.426s-1.54 9.764-11.63 9.105c-10.09-0.658-13.38-4.169-13.38-4.169s19.09 18.102 20.62 18.979c1.54 0.878 3.4 2.414 3.4 2.414s-2.3 4.169-8.22 3.84c-5.93-0.329-16.9-13.604-16.9-13.604s20.41 40.043 21.94 41.03c1.54 0.987 3.95 4.937 3.95 4.937s-5.05 3.73-10.64-1.975c-5.6-5.705-18.54-23.587-18.54-23.587s6.91 16.347 7.35 21.393 2.19 20.081 3.07 21.391c0.88 1.32 10.75 28.2 10.75 28.2s-4.5 2.74-10.2-5.05-21.06-52.659-21.06-52.659 1.2 36.199 2.19 40.809 3.73 19.53 3.73 19.53-9.54 4.61-14.37-11.74-5.49-45.198-5.49-45.198-4.27 23.918-4.16 26.328c0.1 2.41-0.55 8.89-3.84 8.67-3.3-0.22-5.38-9.55-5.38-9.55l-2.52-43.55z" fill="#f00" stroke-linejoin="round"/><path transform="translate(105.02,20.327)" d="m108.14 69.042s16.83 2.56 23.58-10.705 5.74-24.048 5.74-24.048l-3.49-0.155s-2.17 0.776-2.25-2.017c-0.08-2.792 3.57-2.948 3.57-2.948l-0.16-2.249s0.62-2.638 2.95-2.56c2.33 0.077 2.41 2.327 2.41 2.327l-0.08 2.793h1.78s1.94 0.388 1.94 2.56-2.17 2.327-2.17 2.327l-2.41-0.233s1.01 17.609-6.43 27.306c-7.45 9.697-19.55 12.257-24.44 11.636s-0.54-3.956-0.54-4.034z" fill="#ff0"/></g><g fill="none"><path transform="translate(105.02,20.327)" d="m114.64 87.065s-2.19 15.025-0.77 24.025"/><path transform="translate(105.02,20.327)" d="m128.25 82.896c0 0.659 1.75 39.274 4.16 42.894"/><path transform="translate(105.02,20.327)" d="m141.08 71.816s8.01 42.454 14.15 48.924"/><path transform="translate(105.02,20.327)" d="m147.11 53.276v-1.207s11.41 28.743 18.11 33.57"/><path transform="translate(105.02,20.327)" d="m149.75 41.976c0.66 0.878 13.05 12.397 14.48 13.275"/><path transform="translate(105.02,20.327)" d="m147.77 29.909s16.02 6.363 19.75 4.936"/><path transform="translate(105.02,20.327)" d="m160.39 17.183s-13.28 3.401-15.36 2.962-2.74-2.633-4.61-2.414"/><path transform="translate(105.02,20.327)" d="m114.42 76.799 1.71 6.362"/><path transform="translate(105.02,20.327)" d="m123.03 74.938 1.71 6.128"/><path transform="translate(105.02,20.327)" d="m129.55 71.214 3.02 4.655"/><path transform="translate(105.02,20.327)" d="m135.21 66.56 3.1 3.413"/><path transform="translate(105.02,20.327)" d="m138.39 61.285c0.39 0.233 3.1 3.18 3.1 3.18"/><path transform="translate(105.02,20.327)" d="m140.95 55.079 3.1 2.482"/><path transform="translate(105.02,20.327)" d="m141.73 49.494c0.69 0.543 3.18 1.784 3.18 1.784"/><path transform="translate(105.02,20.327)" d="m142.42 44.839c2.8 0.233 3.19 0.621 3.19 0.621"/><path transform="translate(105.02,20.327)" d="m142.66 42.202s4.96 0.698 4.57 2.56c-0.38 1.861-5.66 2.482-5.66 2.482s6.36 1.784 5.66 4.422c-0.69 2.637-6.74 0.543-6.74 0.543s7.99 3.413 6.51 6.516c-1.47 3.103-7.83-0.776-7.83-0.776s7.83 6.128 5.5 8.611c-2.32 2.482-9.15-3.879-9.15-3.879s7.14 6.827 5.43 9.697-8.14-4.422-8.14-4.422 4.73 8.456 2.09 10.86c-2.64 2.405-8.22-5.895-8.22-5.895s3.1 7.99 0.54 10.24c-2.56 2.249-8.84-7.292-8.84-7.292s3.33 9.386-0.55 10.394c-3.87 1.009-7.37-8.222-7.37-8.222" stroke-linejoin="round"/></g></g><g fill-rule="evenodd"><path d="m132.5 37.625s1.08 6.439-3.57 12.257c-4.66 5.818-6.13 5.119-7.76 4.964s-2.95 0.233-3.1-2.172c-0.16-2.405 1.63-2.249 1.63-2.249s6.2 1.241 7.75-3.879 2.1-10.628 2.1-10.628l1.7-3.103z" fill="#f00"/><path d="m107.51 65.124s15.69 1.317 21.39-9.435c5.71-10.751 5.38-17.991 5.38-17.991s-11.3-2.523-11.96-12.616 8.78-10.751 8.78-10.751 24.9 1.206 30.06-0.439c5.15-1.646 5.92-1.646 5.92-1.646s1.1 6.363-5.37 9.764c-6.48 3.401-15.14 3.072-15.14 3.072s13.6 3.949 17.55 4.498c3.95 0.548 10.64 1.426 10.64 1.426s-1.54 9.764-11.63 9.105c-10.09-0.658-13.38-4.169-13.38-4.169s19.09 18.102 20.62 18.979c1.54 0.878 3.4 2.414 3.4 2.414s-2.3 4.169-8.22 3.84c-5.93-0.329-16.9-13.604-16.9-13.604s20.41 40.043 21.94 41.03c1.54 0.987 3.95 4.937 3.95 4.937s-5.05 3.73-10.64-1.975c-5.6-5.705-18.54-23.587-18.54-23.587s6.91 16.347 7.35 21.393 2.19 20.081 3.07 21.391c0.88 1.32 10.75 28.2 10.75 28.2s-4.5 2.74-10.2-5.05-21.06-52.659-21.06-52.659 1.2 36.199 2.19 40.809 3.73 19.53 3.73 19.53-9.54 4.61-14.37-11.74-5.49-45.198-5.49-45.198-4.27 23.918-4.16 26.328c0.1 2.41-0.55 8.89-3.84 8.67-3.3-0.22-5.38-9.55-5.38-9.55l-2.52-43.55z" fill="#f00" stroke-linejoin="round"/><path d="m108.14 69.042s16.83 2.56 23.58-10.705 5.74-24.048 5.74-24.048l-3.49-0.155s-2.17 0.776-2.25-2.017c-0.08-2.792 3.57-2.948 3.57-2.948l-0.16-2.249s0.62-2.638 2.95-2.56c2.33 0.077 2.41 2.327 2.41 2.327l-0.08 2.793h1.78s1.94 0.388 1.94 2.56-2.17 2.327-2.17 2.327l-2.41-0.233s1.01 17.609-6.43 27.306c-7.45 9.697-19.55 12.257-24.44 11.636s-0.54-3.956-0.54-4.034z" fill="#ff0"/></g><g fill="none"><path d="m114.64 87.065s-2.19 15.025-0.77 24.025"/><path d="m128.25 82.896c0 0.659 1.75 39.274 4.16 42.894"/><path d="m141.08 71.816s8.01 42.454 14.15 48.924"/><path d="m147.11 53.276v-1.207s11.41 28.743 18.11 33.57"/><path d="m149.75 41.976c0.66 0.878 13.05 12.397 14.48 13.275"/><path d="m147.77 29.909s16.02 6.363 19.75 4.936"/><path d="m160.39 17.183s-13.28 3.401-15.36 2.962-2.74-2.633-4.61-2.414"/><path d="m105.43 36.491s-2.75 5.485-1.65 8.447"/><path d="m114.42 76.799 1.71 6.362"/><path d="m123.03 74.938 1.71 6.128"/><path d="m129.55 71.214 3.02 4.655"/><path d="m135.21 66.56 3.1 3.413"/><path d="m138.39 61.285c0.39 0.233 3.1 3.18 3.1 3.18"/><path d="m140.95 55.079 3.1 2.482"/><path d="m141.73 49.494c0.69 0.543 3.18 1.784 3.18 1.784"/><path d="m142.42 44.839c2.8 0.233 3.19 0.621 3.19 0.621"/><path d="m142.66 42.202s4.96 0.698 4.57 2.56c-0.38 1.861-5.66 2.482-5.66 2.482s6.36 1.784 5.66 4.422c-0.69 2.637-6.74 0.543-6.74 0.543s7.99 3.413 6.51 6.516c-1.47 3.103-7.83-0.776-7.83-0.776s7.83 6.128 5.5 8.611c-2.32 2.482-9.15-3.879-9.15-3.879s7.14 6.827 5.43 9.697-8.14-4.422-8.14-4.422 4.73 8.456 2.09 10.86c-2.64 2.405-8.22-5.895-8.22-5.895s3.1 7.99 0.54 10.24c-2.56 2.249-8.84-7.292-8.84-7.292s3.33 9.386-0.55 10.394c-3.87 1.009-7.37-8.222-7.37-8.222" stroke-linejoin="round"/></g><path d="m64.255 33.386s2.136 0 3.323-1.029 11.079-8.23 19.15-7.913c8.072 0.316 8.942 0.633 8.942 0.633s-0.079-1.504-1.187-2.374c-1.108-0.871-2.532-2.057-2.532-2.057l-7.992-3.957-0.554-3.64s4.035-3.9567 6.963-3.561c2.928 0.3956 4.59 1.899 6.805 1.899 2.216 0 4.037-0.949 5.697-0.475 1.66 0.475 5.3-2.2945 5.3-2.2945l-4.19 3.0865s2.53 1.424 3.4 3.244 1.5 11.078 3.25 12.898c1.74 1.821 3.4 2.691 3.4 2.691s-3.96 0.396-4.51-0.791c-0.56-1.187 0.39 3.64-0.16 5.46s-2.69 5.697-2.14 7.675c0.56 1.979 2.22 4.036 2.22 4.036s-4.43 0.158-5.3-1.582c-0.87-1.741-1.35 5.618-1.35 5.618l-1.03-0.633s-0.55 4.115 0.64 4.669c1.18 0.554 1.66 1.028 1.66 1.028l-2.22-0.158-1.18 1.424-0.08 4.036 3.32 0.238s2.45 0.474 2.93 1.661c0.47 1.187 1.74 7.755 1.5 10.208s-0.95 13.848-1.58 18.675-2.85 15.349-2.38 18.519c0.48 3.16 6.81 14.08 6.81 14.08s1.35 1.82 0.55 3.01c-0.79 1.19-4.03-0.79-4.74 0.71-0.72 1.51-0.16 7.2-0.16 7.2s-1.66 2.93-4.04 1.74c-2.37-1.18-2.45-10.44-2.45-10.44s-0.16-2.45-1.742-2.45c-1.583 0-2.058 4.27-2.058 4.27s-0.712 4.19-0.87 5.3 1.82 7.2 3.957 8.63c2.133 1.42 10.523 1.66 11.393 3.08 0.87 1.43 4.99 7.84 4.99 7.84s-3.09 1.03-3.72 0.15c-0.64-0.87-1.43-2.13-2.46-2.05-1.02 0.08-3.71 2.13-6.25 1.9-2.53-0.24-9.334-7.52-9.334-7.52s1.899 12.5 8.944 16.06c7.04 3.56 13.21 3.96 13.21 3.96l8.31 1.34s11.55 3.57 11.87 14.64c0.32 11.08-8.86 13.46-10.52 13.54-1.67 0.07-7.2-1.98-7.2-1.98s11.94-0.56 12.34-10.69c0.4-10.12-8.63-10.52-8.63-10.52s-1.74-1.19-2.45 0.71 9.58 3.64 8.31 9.26-3.16 5.14-3.16 5.14-2.85-5.85-4.99-6.8-13.69-6.49-16.7-8.79c-3-2.29-11.154-16.45-11.154-16.45s0.237 12.26 4.51 16.53c4.274 4.28 5.384 4.75 5.384 4.75s8.38 1.35 9.18 4.75c0.79 3.4-2.62 1.74-2.3 2.85s7.6 5.22 9.18 5.38-9.97 2.14-17.25-6.33-9.733-12.98-9.733-12.98l0.475 16.94s6.33 7.99 6.093 10.6c-0.238 2.61-4.906 3.56-4.906 3.56s-1.187 3.09-2.137 4.59c-0.949 1.5-2.611 2.77-2.611 2.77s-1.108-1.19-1.979-3.09c-0.87-1.9-1.582-4.74-1.582-4.74s-4.036 0.79-4.59-1.98 5.065-7.92 5.144-9.82c0.079-1.89 1.187-18.67 1.187-18.67s-6.647 9.65-12.345 13.37c-5.697 3.72-14.956 4.43-14.956 4.43s7.122-2.45 8.626-4.66c1.503-2.22-2.137-0.32-1.504-3.09s10.683-4.43 11.395-4.67 4.827-3.72 5.065-7.75c0.237-4.04 2.136-12.82 2.136-12.82s-2.532 9.18-7.043 12.5c-4.51 3.32-12.344 6.33-15.193 8.15s-9.575 8.7-9.575 8.7-2.769 0.16-2.848-4.03c-0.08-4.2 6.805-7.44 6.805-7.44s2.136-1.03 1.108-2.53c-1.029-1.51-5.935 1.74-7.676 3.32s-3.007 4.91-3.007 6.49 0.791 6.01 3.719 7.68c2.928 1.66 7.834 4.03 7.834 4.03s-9.179 2.06-12.344-1.42c-3.166-3.48-4.353-7.05-4.748-9.97-0.396-2.93 2.928-12.74 9.97-13.85 7.043-1.11 12.74-1.27 12.74-1.27s8.863-0.55 11.949-5.22 6.252-12.98 6.252-12.98-3.166 6.02-6.647 6.49c-3.482 0.48-3.799-1.82-6.331-1.42-2.532 0.39-5.46 1.98-5.46 1.98s0.87-7.13 3.007-8.39c2.137-1.27 9.812-1.03 9.812-1.03s1.504 0.08 3.482-2.22c1.978-2.29 2.058-15.27 2.058-15.27s0.316-2.85-1.741-3.16c-2.058-0.32-2.058 8.78-3.403 10.52s-2.928 3.88-3.877 2.85c-0.95-1.03-0.08-3.09-2.374-5.3-2.295-2.22-3.64 2.53-5.065 0-1.424-2.54 1.741-5.31 1.741-5.31s6.014-7.04 6.331-10.44c0.316-3.4-4.59-39.566-4.827-43.444-0.238-3.877 0.712-6.726 0.712-6.726s0.475-2.295 2.215-3.64c1.741-1.345 5.935-1.345 5.935-1.345l0.475-5.46-3.956-0.159s4.668-1.661 5.855-3.481 5.144-6.568 6.173-7.834c1.028-1.266-3.324-1.425-5.461-0.317-2.136 1.108-3.323 2.137-3.323 2.137s1.108-3.64 3.719-5.46 10.05-3.403 10.05-3.403l0.158-4.194 2.137-3.482 1.107-1.978s-5.539-1.187-9.416-1.029c-3.878 0.158-9.259 1.108-12.74 3.086-3.482 1.979-3.166 2.928-5.302 3.324-2.137 0.395-3.719 0-3.64-0.079z" fill="#f00" fill-rule="evenodd" stroke-linejoin="round"/><path d="m75.571 25.077s-1.9-1.741-1.9-4.036 4.907-4.748 5.698-5.539 1.741-1.978 2.136-2.295c0.396-0.316 1.346-1.029 2.058 0.317 0.712 1.345 0.791 1.741 2.374 2.928 1.582 1.187 3.719 2.69 6.172 2.611s9.181 0.396 9.101 6.093-4.59 8.704-10.446 8.309c-5.856-0.396-9.259-3.561-9.259-3.561s3.403-0.317 5.856-0.158c2.453 0.158 10.604 2.136 11.079-3.324 0.474-5.46-3.324-5.856-5.065-5.697-1.741 0.158-1.741-0.475-5.064 0.079-3.324 0.554-5.302-1.266-7.122-1.108s-4.036 1.424-4.511 2.374c-0.474 0.949-0.87 3.165-1.107 3.007z" fill="#ff0" fill-rule="evenodd"/></g></g><g fill="none" stroke="#000" stroke-width="1pt"><g stroke-linecap="round"><path d="m84.254 121.18s3.839 27.54 3.62 33.02c-0.219 5.49 0.768 37.96 0.768 37.96s1.865-41.03 2.194-45.52c0.329-4.5 3.949-25.02 3.949-25.02" stroke-linejoin="round"/><path d="m88.532 120.74 0.549 8.89"/><path d="m68.237 150.37s0.658-1.43 2.633-1.76c1.974-0.33 6.143 0.44 7.898-1.1 1.756-1.53 5.047-5.48 5.047-5.48"/><path d="m95.115 142.25s4.607 6.8 6.585 7.13c1.97 0.33 6.36-1.54 8.01-0.44"/></g><path d="m99.503 43.951s-1.097 3.84 1.097 3.949"/><path d="m98.844 50.643s-1.426 6.143 1.536 6.363"/><path d="m94.456 52.289s-0.219 6.801 2.085 2.632"/><path d="m96.431 57.993s-0.329 8.228 2.084 4.498"/><path d="m92.372 58.981s-0.658 7.46 3.181 7.46"/><path d="m89.41 61.943s-0.439 5.156 2.413 6.143"/><path d="m85.68 60.516s-1.646 10.861 2.194 8.667"/><path d="m81.511 59.2s-1.097 8.338 1.755 6.582"/><path d="m85.022 52.398-4.608 0.768"/><path d="m83.925 55.47-5.486 0.987"/><path d="m86.448 16.854s3.839-5.266 8.008-6.034"/><path d="m90.178 13.014c0.987 0.878 5.924 3.84 15.362-2.743"/><path d="m98.954 13.343s4.166 4.937 9.546 6.144"/></g><path d="m96.431 15.537a3.73 1.865 0 1 0-7.46 0 3.73 1.865 0 1 0 7.46 0h-3.73z" fill-rule="evenodd" stroke-width="3pt"/><g fill="none" stroke="#000" stroke-linejoin="round" stroke-width="1pt"><path d="m73.229 72.455s-2.094 10.007 1.241 10.162c3.336 0.156 2.095-8.3 2.095-8.3s0.155 13.032 3.879 12.257c3.723-0.776 2.016-12.645 2.016-12.645s0.854 15.05 5.431 14.196c4.576-0.853 4.576-11.869 4.576-11.869s0.311 9.852 3.026 9.542 3.025-9.386 3.025-9.386 0.31 7.447 2.172 7.447c1.86 0 3.34-10.55 3.34-10.55"/><path d="m83.702 76.412s1.086 9.851 4.189 9.231c3.103-0.621 3.413-9.309 3.413-9.309"/><path d="m76.099 91.073s2.56 11.867 5.741 10.787c3.18-1.09 0.698-10.709 0.698-10.709s1.319 14.269 5.896 12.879c4.576-1.4 5.197-12.569 5.197-12.569s-1.707 10.159 1.319 10.159c3.025 0 5.74-10.314 5.74-10.314"/><path d="m84.4 93.71s0.465 8.3 3.646 7.6c3.18-0.7 2.792-7.289 2.792-7.289"/><path d="m78.039 106.59s3.878 9 6.749 7.75c2.87-1.24-1.241-8.68-1.241-8.68s2.637 8.92 4.731 8.06c2.095-0.85 4.112-7.91 4.112-7.91s-2.638 6.6 0.31 8.15 6.284-8.54 6.284-8.54"/><path d="m85.641 113.34s0.543 4.42 3.336 3.8c2.792-0.62 1.939-6.83 1.939-6.83"/></g></g></g></svg>
