<?xml version="1.0" encoding="UTF-8"?>
<svg width="347.91mm" height="347.91mm" version="1.1" viewBox="0 0 347.91 347.91" xmlns="http://www.w3.org/2000/svg"><g transform="translate(70.498 65.958)"><circle cx="103.46" cy="108" r="173.96" fill="#fff"/><path transform="scale(.26458)" d="m-24.729 44.432v415.75a415.75 415.75 0 0 0 415.75 415.75 415.75 415.75 0 0 0 415.75-415.75v-415.75h-415.75z" fill="#f00" stroke="#000" stroke-width="3.7795"/><g transform="matrix(2.9947 0 0 2.9947 -216.94 -201.59)"><path d="m141.71 118c-4.9607-1.0261-7.5068-2.2868-8.7969-3.2311 1.8735 0.0765 3.8751-0.82417 3.9942-0.88053 0.26908-0.12356 0.40216-0.42862 0.31141-0.70855-0.0908-0.28126-0.37227-0.45191-0.66939-0.39556-3.0591 0.57389-4.8654-2.1706-6.0632-3.991-0.15161-0.23469-0.29237-0.449-0.42678-0.63976-2.9482-4.2614-7.2628-4.4117-8.5265-4.354-3.0888-4.0661-10.115-4.1701-10.398-4.1701-3.3554-0.16325-4.3532-0.84746-4.5791-1.0409 0.37994-3.6391-0.83132-6.3704-1.933-8.0359 0.0336 0.02037 0.0672 0.04127 0.10081 0.06562 0.20029 0.13282 0.4691 0.12594 0.66622-0.01799 0.19711-0.14235 0.28548-0.39105 0.22119-0.62812-0.67098-2.4622-3.1184-4.6392-4.9112-5.9537 0.23522 0.03836 0.48472-0.07514 0.60669-0.29316 0.12991-0.23389 0.086-0.52229-0.10398-0.70617-4.0325-3.8854-8.7585-3.3388-10.278-3.0348-0.66146-1.0165-2.3786-2.1222-2.9692-2.4834-0.25347-0.15558-0.6006-0.1188-0.78211 0.11483-0.15716 0.19844-0.17754 0.45429-0.0508 0.6567-0.21511-0.10954-0.47625-0.07726-0.6567 0.08599-0.18627 0.16642-0.24474 0.43392-0.14711 0.66622 0.33311 0.77496 0.13044 2.4646-0.0056 3.2319-1.4264 1.5997-2.8805 5.9153-3.1036 6.5918l-0.5715 0.83423c-0.52308 0.74612-0.70617 1.7992-0.47995 2.7525 0.16166 0.68104 0.5043 1.1933 0.96732 1.4396 1.1245 0.60669 2.0767 0.70855 2.8332 0.30665 0.72311-0.38629 1.0345-1.1322 1.1673-1.6163 1.8463-0.40349 3.2763-1.9439 3.9026-2.7289 0.47863 0.37597 0.79058 0.90778 0.94774 1.6148 0.50138 2.259-0.80063 5.4078-1.67 6.5355-1.6076 2.0862-1.7679 5.6653-1.7711 6.913-2.1474 0.63738-4.7583-0.19077-4.8699-0.22278-1.6796-0.2675-2.9657-0.0548-3.8034 0.62468-0.82656 0.66939-0.89059 1.5335-0.889 1.5679-0.42069 2.7321-1.7836 4.4008-1.7963 4.4164-0.03202 0.0376-0.05794 0.0825-0.07885 0.12356-1.0197 2.1503 0.03043 4.5712 0.29633 5.1186l0.29184 3.0525c0.19235 0.68527 0.52308 1.1448 0.9861 1.3652 0.55589 0.26459 1.0586 0.0609 1.1425 0.0204 0.77655-0.38629 1.2888-0.97446 1.5256-1.75 0.5334-1.7436-0.6051-3.7923-0.65458-3.8783-0.0717-0.12674-0.18759-0.22225-0.32676-0.2675l-0.26908-0.086c0.118-3.4359 1.03-4.9263 1.7923-5.5753 0.27834-0.23627 0.54901-0.36591 0.79058-0.4519-0.18838 0.44873-0.33629 0.93503-0.4191 1.2668-0.04683 1.1573-0.38021 2.3757-0.46593 2.6712-1.2684 2.1032-0.19076 3.4952-0.14473 3.5547 0.03678 0.0423 0.07885 0.0828 0.12515 0.11271 0.58023 0.39873 1.0586 1.4512 1.2285 1.9079 0.1651 2.1066 1.5983 2.9088 1.6523 2.9385 0.26988 0.15002 0.50509 0.20187 0.70379 0.20187 0.26035 0 0.45746-0.0892 0.57812-0.16589 0.83899-0.54875 0.78422-2.227 0.7202-2.8197 0.09446-1.0602-0.1307-1.8624-0.6694-2.3834-0.28919-0.28284-0.61463-0.42995-0.9017-0.5035 0.05953-0.65538-0.04921-1.3496-0.08599-1.5528-0.78978-3.1655 1.3436-3.8613 1.5968-3.933 0.0336-8e-3 0.04445-0.0439 0.07514-0.0579 1.7679 0.48789 4.0918 0.7583 6.6638 0.13917 6.4024 6.7683 12.732 7.1377 14.012 7.1377h0.0267c0.12673 0.26908 0.25347 0.52864 0.37385 0.77099 0.73819 1.4745 2.4133 4.0518 2.4725 4.1458 1.3213 2.2034 1.3965 3.4451 1.2261 4.1021-0.12514 0.48313-0.39555 0.6649-0.3847 0.6649-2.4606 1.0102-3.4952 2.0767-3.891 2.6165-3.1575 0.0201-4.1169 1.1165-4.2257 1.2557-0.58182 0.76941-1.1917 1.7388-0.74216 2.4146 0.0672 0.1016 0.1479 0.17992 0.23627 0.24077-0.50667 0.56912-0.47307 1.0604-0.35269 1.37 0.40508 1.0573 2.4217 1.3248 2.9112 1.3608 0.14923 0.0468 0.29951 0.0672 0.45032 0.0672 0.25268 0 0.50271-0.0656 0.73819-0.19526 0.74428-0.41143 1.1964-1.406 1.4012-1.9754 0.97816-0.12965 1.987-0.62706 2.0354-0.64902 0.11641-0.0595 0.21272-0.15796 0.26749-0.27517 1.2401-2.6337 4.119-4.041 4.612-4.2661 1.3668-0.16431 2.3397-0.67098 2.8932-1.5108 0.79613-1.2136 0.3646-2.6368 0.31909-2.754-1.5907-3.6031-0.52547-5.4142-0.30031-5.7364 6.2886-4.2444 6.4275-8.7061 6.2256-10.333 0.31433-0.022 0.57097 0.0439 0.77444 0.19711 0.84137 0.62548 0.88344 2.6461 0.9099 3.9862 9e-3 0.47863 0.0188 0.89773 0.0548 1.1994 0.3003 2.5101 1.3904 4.3368 3.2295 5.4314 4.7636 2.8244 12.865-0.34396 13.209-0.47996 0.23918-0.0984 0.39105-0.33628 0.36751-0.59584-0.0296-0.25982-0.21723-0.46937-0.46885-0.52387z" fill="#feffff" stroke="#fff" stroke-width=".26458"/><g transform="matrix(.26458 0 0 .26458 69.067 71.205)"><path d="m274.55 176.86c-18.749-3.878-28.372-8.643-33.248-12.212 7.081 0.289 14.646-3.115 15.096-3.328 1.017-0.467 1.52-1.62 1.177-2.678-0.343-1.063-1.407-1.708-2.53-1.495-11.562 2.169-18.389-8.204-22.916-15.084-0.573-0.887-1.105-1.697-1.613-2.418-11.143-16.106-27.45-16.674-32.226-16.456-11.674-15.368-38.231-15.761-39.301-15.761-12.682-0.617-16.453-3.203-17.307-3.934 1.436-13.754-3.142-24.077-7.306-30.372 0.127 0.077 0.254 0.156 0.381 0.248 0.757 0.502 1.773 0.476 2.518-0.068 0.745-0.538 1.079-1.478 0.836-2.374-2.536-9.306-11.786-17.534-18.562-22.502 0.889 0.145 1.832-0.284 2.293-1.108 0.491-0.884 0.325-1.974-0.393-2.669-15.241-14.685-33.103-12.619-38.845-11.47-2.5-3.842-8.99-8.021-11.222-9.386-0.958-0.588-2.27-0.449-2.956 0.434-0.594 0.75-0.671 1.717-0.192 2.482-0.813-0.414-1.8-0.292-2.482 0.325-0.704 0.629-0.925 1.64-0.556 2.518 1.259 2.929 0.493 9.315-0.021 12.215-5.391 6.046-10.887 22.357-11.73 24.914l-2.16 3.153c-1.977 2.82-2.669 6.8-1.814 10.403 0.611 2.574 1.906 4.51 3.656 5.441 4.25 2.293 7.849 2.678 10.708 1.159 2.733-1.46 3.91-4.279 4.412-6.109 6.978-1.525 12.383-7.347 14.75-10.314 1.809 1.421 2.988 3.431 3.582 6.103 1.895 8.538-3.026 20.439-6.312 24.701-6.076 7.885-6.682 21.412-6.694 26.128-8.116 2.409-17.984-0.721-18.406-0.842-6.348-1.011-11.209-0.207-14.375 2.361-3.124 2.53-3.366 5.796-3.36 5.926-1.59 10.326-6.741 16.633-6.789 16.692-0.121 0.142-0.219 0.312-0.298 0.467-3.854 8.127 0.115 17.277 1.12 19.346l1.103 11.537c0.727 2.59 1.977 4.327 3.727 5.16 2.101 1 4.001 0.23 4.318 0.077 2.935-1.46 4.871-3.683 5.766-6.614 2.016-6.59-2.287-14.333-2.474-14.658-0.271-0.479-0.709-0.84-1.235-1.011l-1.017-0.325c0.446-12.986 3.893-18.619 6.774-21.072 1.052-0.893 2.075-1.383 2.988-1.708-0.712 1.696-1.271 3.534-1.584 4.788-0.177 4.374-1.437 8.979-1.761 10.096-4.794 7.949-0.721 13.21-0.547 13.435 0.139 0.16 0.298 0.313 0.473 0.426 2.193 1.507 4.001 5.485 4.643 7.211 0.624 7.962 6.041 10.994 6.245 11.106 1.02 0.567 1.909 0.763 2.66 0.763 0.984 0 1.729-0.337 2.185-0.627 3.171-2.074 2.964-8.417 2.722-10.657 0.357-4.007-0.494-7.039-2.53-9.008-1.093-1.069-2.323-1.625-3.408-1.903 0.225-2.477-0.186-5.101-0.325-5.869-2.985-11.964 5.078-14.594 6.035-14.865 0.127-0.03 0.168-0.166 0.284-0.219 6.682 1.844 15.465 2.866 25.186 0.526 24.198 25.581 48.122 26.977 52.96 26.977h0.101c0.479 1.017 0.958 1.998 1.413 2.914 2.79 5.573 9.121 15.314 9.345 15.669 4.994 8.328 5.278 13.021 4.634 15.504-0.473 1.826-1.495 2.513-1.454 2.513-9.3 3.818-13.21 7.849-14.706 9.889-11.934 0.076-15.56 4.22-15.971 4.746-2.199 2.908-4.504 6.572-2.805 9.126 0.254 0.384 0.559 0.68 0.893 0.91-1.915 2.151-1.788 4.008-1.333 5.178 1.531 3.996 9.153 5.007 11.003 5.143 0.564 0.177 1.132 0.254 1.702 0.254 0.955 0 1.9-0.248 2.79-0.738 2.813-1.555 4.522-5.314 5.296-7.466 3.697-0.49 7.51-2.37 7.693-2.453 0.44-0.225 0.804-0.597 1.011-1.04 4.687-9.954 15.568-15.273 17.431-16.124 5.166-0.621 8.843-2.536 10.935-5.71 3.009-4.587 1.378-9.966 1.206-10.409-6.012-13.618-1.986-20.463-1.135-21.681 23.768-16.042 24.293-32.905 23.53-39.053 1.188-0.083 2.158 0.166 2.927 0.745 3.18 2.364 3.339 10.001 3.439 15.066 0.035 1.809 0.071 3.393 0.207 4.533 1.135 9.487 5.255 16.391 12.206 20.528 18.004 10.675 48.622-1.3 49.922-1.814 0.904-0.372 1.478-1.271 1.389-2.252-0.112-0.982-0.821-1.774-1.772-1.98zm-218.71-13.519c0.298 1.714 0.491 4.806-0.047 5.993-0.328 0.728-0.242 1.572 0.23 2.217 0.473 0.633 1.271 0.976 2.045 0.881 0.012 0 1.646-0.13 2.754 0.939 1.282 1.254 1.362 3.659 1.203 5.846 0.26 2.908-0.106 6.349-0.999 6.656-0.15-0.095-3.667-2.176-4.01-7.838-0.012-0.201-0.05-0.402-0.115-0.592-0.242-0.674-2.355-6.584-6.047-9.403-0.455-0.792-1.773-3.777 1.114-8.405 0.101-0.16 0.18-0.343 0.233-0.514 0.08-0.243 1.8-5.917 1.951-10.982 0.502-1.826 1.253-3.801 1.814-4.889 1.218 0.633 2.846 1.413 4.879 2.229-3.498 2.571-7.529 7.797-5.005 17.862zm171.42 15.746c-5.698-3.398-9.091-9.203-10.072-17.259-0.124-1.029-0.136-2.447-0.171-4.091-0.131-6.277-0.313-14.871-5.22-18.53-2.287-1.702-5.22-2.086-8.742-1.105-0.567 0.16-1.052 0.55-1.342 1.059-0.283 0.514-0.366 1.135-0.194 1.69 0.225 0.763 5.047 18.914-21.587 36.735-0.159 0.106-0.319 0.242-0.443 0.384-0.312 0.366-7.459 8.973 0.207 26.327 0.012 0.035 1.064 3.617-0.786 6.419-1.365 2.093-4.078 3.363-8.038 3.776-0.219 0.018-0.426 0.083-0.633 0.16-0.562 0.236-13.601 5.811-19.633 17.715-1.554 0.691-4.533 1.809-6.711 1.809-0.999 0-1.871 0.668-2.137 1.643-0.443 1.632-1.927 5.309-3.656 6.266-0.364 0.189-0.674 0.23-1.496 0.029-3.476-0.337-7.306-1.519-7.716-2.299 0.012-0.083 0.133-0.379 0.804-1.146l1.924-2.997c0.497-0.763 0.467-1.756-0.065-2.494-0.52-0.722-1.43-1.059-2.282-0.857 0.278-0.662 0.884-1.767 2.185-3.481 0.029-0.029 2.899-3.079 12.803-3.079 0.301 0 0.647-0.03 0.919 6e-3 0.833 0 1.616-0.503 1.998-1.253 0.018-0.042 2.42-4.552 13.346-9.05 0.278-0.136 2.737-1.46 3.807-5.101 1.401-4.829-0.289-11.296-5.083-19.299-0.071-0.095-6.46-9.954-9.135-15.297-2.935-5.876-6.579-13.176-2.675-23.584 0.429-1.135-0.151-2.412-1.297-2.844-1.144-0.432-2.42 0.143-2.849 1.289-3.009 8.015-2.172 14.451-0.375 19.719-6.567-0.391-26.256-3.512-46.435-23.934 5.396-1.891 10.991-4.87 16.633-9.422 0.943-0.768 1.093-2.163 0.325-3.12-0.768-0.952-2.166-1.105-3.118-0.331-27.364 22.159-53.188 5.379-54.279 4.657-0.26-0.171-0.549-0.296-0.86-0.354-0.192-0.018-4.915-0.78-9.496 3.021-5.461 4.539-8.322 13.323-8.505 26.114-0.012 0.969 0.6 1.826 1.513 2.127l1.708 0.574c0.872 1.82 2.894 6.667 1.726 10.468-0.535 1.731-1.685 3.021-3.343 3.859-0.029 0.012-0.34 0.124-0.641-0.054-0.242-0.123-0.848-0.608-1.259-1.944l-1.07-11.562c-0.032-0.295-0.115-0.579-0.257-0.839-0.047-0.089-4.483-8.553-1.342-15.558 1.07-1.371 5.949-8.098 7.595-18.838 0-0.012 0.145-1.643 1.755-2.937 2.119-1.726 5.884-2.222 10.557-1.501 0.509 0.163 12.644 4.055 22.485 0.168 0.872-0.346 1.433-1.203 1.398-2.143-6e-3 -0.163-0.55-16.728 5.757-24.905 4.368-5.666 9.271-18.667 7.128-28.369-1.022-4.602-3.594-8.086-7.438-10.072-1.011-0.52-2.231-0.195-2.855 0.739-0.062 0.095-6.416 9.448-14.479 10.379-1.034 0.127-1.847 0.946-1.944 1.98 0 0.03-0.405 3.263-2.427 4.339-1.82 0.981-4.557-0.083-6.531-1.138-0.44-0.237-1.088-1.053-1.445-2.571-0.564-2.379-0.115-5.048 1.15-6.859l2.361-3.426c0.121-0.174 0.215-0.375 0.284-0.573 1.682-5.219 6.978-19.703 11.233-23.956 0.31-0.311 0.52-0.704 0.605-1.138 0.133-0.68 0.925-4.826 0.901-9.026 0.556 0.473 1.339 0.636 2.057 0.432 0.993-0.298 1.646-1.253 1.575-2.284-0.042-0.556-0.091-1.082-0.145-1.578 2.988 2.258 5.228 4.412 5.399 5.343 0.106 0.624 0.47 1.162 1.011 1.496 0.532 0.333 1.191 0.416 1.785 0.248 0.168-0.062 15.519-4.365 30.23 5.077-0.774 0.032-1.481 0.139-2.057 0.352-0.81 0.302-1.374 1.041-1.445 1.895-0.074 0.86 0.364 1.682 1.111 2.113 0.178 0.104 14.854 8.502 21.421 19.059-1.889-0.792-3.65-1.203-4.915-0.831-0.769 0.236-1.354 0.866-1.519 1.649-0.168 0.786 0.104 1.602 0.709 2.134 0.145 0.13 14.295 12.755 11.677 34.46-0.044 0.349 0 0.694 0.121 1.022 0.514 1.427 3.6 6.174 21.551 7.027 0.266 0 26.58 0.373 36.528 14.89 0.467 0.688 1.282 1.058 2.093 0.948 0.188-0.012 18.01-1.998 29.394 14.484 0.485 0.697 0.999 1.484 1.549 2.329 3.311 5.042 8.151 12.401 15.469 15.699-3.121 0.242-6.165-0.13-8.175-1.892-0.721-0.627-1.768-0.715-2.601-0.236-0.815 0.49-1.229 1.454-1.017 2.399 0.271 1.206 3.439 11.296 33.738 18.956-9.887 2.839-27.459 6.314-38.589-0.306z" fill="#000002"/><path d="m274.55 176.86c-18.749-3.878-28.372-8.643-33.248-12.212 7.081 0.289 14.646-3.115 15.096-3.328 1.017-0.467 1.52-1.62 1.177-2.678-0.343-1.063-1.407-1.708-2.53-1.495-11.562 2.169-18.389-8.204-22.916-15.084-0.573-0.887-1.105-1.697-1.613-2.418-11.143-16.106-27.45-16.674-32.226-16.456-11.674-15.368-38.231-15.761-39.301-15.761-12.682-0.617-16.453-3.203-17.307-3.934 1.436-13.754-3.142-24.077-7.306-30.372 0.127 0.077 0.254 0.156 0.381 0.248 0.757 0.502 1.773 0.476 2.518-0.068 0.745-0.538 1.079-1.478 0.836-2.374-2.536-9.306-11.786-17.534-18.562-22.502 0.889 0.145 1.832-0.284 2.293-1.108 0.491-0.884 0.325-1.974-0.393-2.669-15.241-14.685-33.103-12.619-38.845-11.47-2.5-3.842-8.99-8.021-11.222-9.386-0.958-0.588-2.27-0.449-2.956 0.434-0.594 0.75-0.671 1.717-0.192 2.482-0.813-0.414-1.8-0.292-2.482 0.325-0.704 0.629-0.925 1.64-0.556 2.518 1.259 2.929 0.493 9.315-0.021 12.215-5.391 6.046-10.887 22.357-11.73 24.914l-2.16 3.153c-1.977 2.82-2.669 6.8-1.814 10.403 0.611 2.574 1.906 4.51 3.656 5.441 4.25 2.293 7.849 2.678 10.708 1.159 2.733-1.46 3.91-4.279 4.412-6.109 6.978-1.525 12.383-7.347 14.75-10.314 1.809 1.421 2.988 3.431 3.582 6.103 1.895 8.538-3.026 20.439-6.312 24.701-6.076 7.885-6.682 21.412-6.694 26.128-8.116 2.409-17.984-0.721-18.406-0.842-6.348-1.011-11.209-0.207-14.375 2.361-3.124 2.53-3.366 5.796-3.36 5.926-1.59 10.326-6.741 16.633-6.789 16.692-0.121 0.142-0.219 0.312-0.298 0.467-3.854 8.127 0.115 17.277 1.12 19.346l1.103 11.537c0.727 2.59 1.977 4.327 3.727 5.16 2.101 1 4.001 0.23 4.318 0.077 2.935-1.46 4.871-3.683 5.766-6.614 2.016-6.59-2.287-14.333-2.474-14.658-0.271-0.479-0.709-0.84-1.235-1.011l-1.017-0.325c0.446-12.986 3.893-18.619 6.774-21.072 1.052-0.893 2.075-1.383 2.988-1.708-0.712 1.696-1.271 3.534-1.584 4.788-0.177 4.374-1.437 8.979-1.761 10.096-4.794 7.949-0.721 13.21-0.547 13.435 0.139 0.16 0.298 0.313 0.473 0.426 2.193 1.507 4.001 5.485 4.643 7.211 0.624 7.962 6.041 10.994 6.245 11.106 1.02 0.567 1.909 0.763 2.66 0.763 0.984 0 1.729-0.337 2.185-0.627 3.171-2.074 2.964-8.417 2.722-10.657 0.357-4.007-0.494-7.039-2.53-9.008-1.093-1.069-2.323-1.625-3.408-1.903 0.225-2.477-0.186-5.101-0.325-5.869-2.985-11.964 5.078-14.594 6.035-14.865 0.127-0.03 0.168-0.166 0.284-0.219 6.682 1.844 15.465 2.866 25.186 0.526 24.198 25.581 48.122 26.977 52.96 26.977h0.101c0.479 1.017 0.958 1.998 1.413 2.914 2.79 5.573 9.121 15.314 9.345 15.669 4.994 8.328 5.278 13.021 4.634 15.504-0.473 1.826-1.495 2.513-1.454 2.513-9.3 3.818-13.21 7.849-14.706 9.889-11.934 0.076-15.56 4.22-15.971 4.746-2.199 2.908-4.504 6.572-2.805 9.126 0.254 0.384 0.559 0.68 0.893 0.91-1.915 2.151-1.788 4.008-1.333 5.178 1.531 3.996 9.153 5.007 11.003 5.143 0.564 0.177 1.132 0.254 1.702 0.254 0.955 0 1.9-0.248 2.79-0.738 2.813-1.555 4.522-5.314 5.296-7.466 3.697-0.49 7.51-2.37 7.693-2.453 0.44-0.225 0.804-0.597 1.011-1.04 4.687-9.954 15.568-15.273 17.431-16.124 5.166-0.621 8.843-2.536 10.935-5.71 3.009-4.587 1.378-9.966 1.206-10.409-6.012-13.618-1.986-20.463-1.135-21.681 23.768-16.042 24.293-32.905 23.53-39.053 1.188-0.083 2.158 0.166 2.927 0.745 3.18 2.364 3.339 10.001 3.439 15.066 0.035 1.809 0.071 3.393 0.207 4.533 1.135 9.487 5.255 16.391 12.206 20.528 18.004 10.675 48.622-1.3 49.922-1.814 0.904-0.372 1.478-1.271 1.389-2.252-0.112-0.982-0.821-1.774-1.772-1.98zm-218.71-13.519c0.298 1.714 0.491 4.806-0.047 5.993-0.328 0.728-0.242 1.572 0.23 2.217 0.473 0.633 1.271 0.976 2.045 0.881 0.012 0 1.646-0.13 2.754 0.939 1.282 1.254 1.362 3.659 1.203 5.846 0.26 2.908-0.106 6.349-0.999 6.656-0.15-0.095-3.667-2.176-4.01-7.838-0.012-0.201-0.05-0.402-0.115-0.592-0.242-0.674-2.355-6.584-6.047-9.403-0.455-0.792-1.773-3.777 1.114-8.405 0.101-0.16 0.18-0.343 0.233-0.514 0.08-0.243 1.8-5.917 1.951-10.982 0.502-1.826 1.253-3.801 1.814-4.889 1.218 0.633 2.846 1.413 4.879 2.229-3.498 2.571-7.529 7.797-5.005 17.862zm171.42 15.746c-5.698-3.398-9.091-9.203-10.072-17.259-0.124-1.029-0.136-2.447-0.171-4.091-0.131-6.277-0.313-14.871-5.22-18.53-2.287-1.702-5.22-2.086-8.742-1.105-0.567 0.16-1.052 0.55-1.342 1.059-0.283 0.514-0.366 1.135-0.194 1.69 0.225 0.763 5.047 18.914-21.587 36.735-0.159 0.106-0.319 0.242-0.443 0.384-0.312 0.366-7.459 8.973 0.207 26.327 0.012 0.035 1.064 3.617-0.786 6.419-1.365 2.093-4.078 3.363-8.038 3.776-0.219 0.018-0.426 0.083-0.633 0.16-0.562 0.236-13.601 5.811-19.633 17.715-1.554 0.691-4.533 1.809-6.711 1.809-0.999 0-1.871 0.668-2.137 1.643-0.443 1.632-1.927 5.309-3.656 6.266-0.364 0.189-0.674 0.23-1.496 0.029-3.476-0.337-7.306-1.519-7.716-2.299 0.012-0.083 0.133-0.379 0.804-1.146l1.924-2.997c0.497-0.763 0.467-1.756-0.065-2.494-0.52-0.722-1.43-1.059-2.282-0.857 0.278-0.662 0.884-1.767 2.185-3.481 0.029-0.029 2.899-3.079 12.803-3.079 0.301 0 0.647-0.03 0.919 6e-3 0.833 0 1.616-0.503 1.998-1.253 0.018-0.042 2.42-4.552 13.346-9.05 0.278-0.136 2.737-1.46 3.807-5.101 1.401-4.829-0.289-11.296-5.083-19.299-0.071-0.095-6.46-9.954-9.135-15.297-2.935-5.876-6.579-13.176-2.675-23.584 0.429-1.135-0.151-2.412-1.297-2.844-1.144-0.432-2.42 0.143-2.849 1.289-3.009 8.015-2.172 14.451-0.375 19.719-6.567-0.391-26.256-3.512-46.435-23.934 5.396-1.891 10.991-4.87 16.633-9.422 0.943-0.768 1.093-2.163 0.325-3.12-0.768-0.952-2.166-1.105-3.118-0.331-27.364 22.159-53.188 5.379-54.279 4.657-0.26-0.171-0.549-0.296-0.86-0.354-0.192-0.018-4.915-0.78-9.496 3.021-5.461 4.539-8.322 13.323-8.505 26.114-0.012 0.969 0.6 1.826 1.513 2.127l1.708 0.574c0.872 1.82 2.894 6.667 1.726 10.468-0.535 1.731-1.685 3.021-3.343 3.859-0.029 0.012-0.34 0.124-0.641-0.054-0.242-0.123-0.848-0.608-1.259-1.944l-1.07-11.562c-0.032-0.295-0.115-0.579-0.257-0.839-0.047-0.089-4.483-8.553-1.342-15.558 1.07-1.371 5.949-8.098 7.595-18.838 0-0.012 0.145-1.643 1.755-2.937 2.119-1.726 5.884-2.222 10.557-1.501 0.509 0.163 12.644 4.055 22.485 0.168 0.872-0.346 1.433-1.203 1.398-2.143-6e-3 -0.163-0.55-16.728 5.757-24.905 4.368-5.666 9.271-18.667 7.128-28.369-1.022-4.602-3.594-8.086-7.438-10.072-1.011-0.52-2.231-0.195-2.855 0.739-0.062 0.095-6.416 9.448-14.479 10.379-1.034 0.127-1.847 0.946-1.944 1.98 0 0.03-0.405 3.263-2.427 4.339-1.82 0.981-4.557-0.083-6.531-1.138-0.44-0.237-1.088-1.053-1.445-2.571-0.564-2.379-0.115-5.048 1.15-6.859l2.361-3.426c0.121-0.174 0.215-0.375 0.284-0.573 1.682-5.219 6.978-19.703 11.233-23.956 0.31-0.311 0.52-0.704 0.605-1.138 0.133-0.68 0.925-4.826 0.901-9.026 0.556 0.473 1.339 0.636 2.057 0.432 0.993-0.298 1.646-1.253 1.575-2.284-0.042-0.556-0.091-1.082-0.145-1.578 2.988 2.258 5.228 4.412 5.399 5.343 0.106 0.624 0.47 1.162 1.011 1.496 0.532 0.333 1.191 0.416 1.785 0.248 0.168-0.062 15.519-4.365 30.23 5.077-0.774 0.032-1.481 0.139-2.057 0.352-0.81 0.302-1.374 1.041-1.445 1.895-0.074 0.86 0.364 1.682 1.111 2.113 0.178 0.104 14.854 8.502 21.421 19.059-1.889-0.792-3.65-1.203-4.915-0.831-0.769 0.236-1.354 0.866-1.519 1.649-0.168 0.786 0.104 1.602 0.709 2.134 0.145 0.13 14.295 12.755 11.677 34.46-0.044 0.349 0 0.694 0.121 1.022 0.514 1.427 3.6 6.174 21.551 7.027 0.266 0 26.58 0.373 36.528 14.89 0.467 0.688 1.282 1.058 2.093 0.948 0.188-0.012 18.01-1.998 29.394 14.484 0.485 0.697 0.999 1.484 1.549 2.329 3.311 5.042 8.151 12.401 15.469 15.699-3.121 0.242-6.165-0.13-8.175-1.892-0.721-0.627-1.768-0.715-2.601-0.236-0.815 0.49-1.229 1.454-1.017 2.399 0.271 1.206 3.439 11.296 33.738 18.956-9.887 2.839-27.459 6.314-38.589-0.306z" fill="none"/></g><path d="m83.839 114.42c0.07885 0.4535 0.12991 1.2716-0.01244 1.5856-0.08678 0.19262-0.06403 0.41593 0.06085 0.58658 0.12515 0.16748 0.33628 0.25824 0.54107 0.2331 0.0032 0 0.4355-0.0344 0.72866 0.24844 0.3392 0.33179 0.36036 0.96811 0.31829 1.5468 0.06879 0.76941-0.02805 1.6798-0.26432 1.7611-0.03969-0.0251-0.97023-0.57574-1.061-2.0738-0.0032-0.0532-0.01323-0.10636-0.03043-0.15663-0.06403-0.17833-0.62309-1.742-1.5999-2.4879-0.12039-0.20955-0.46911-0.99933 0.29475-2.2238 0.02672-0.0423 0.04762-0.0907 0.06165-0.136 0.02117-0.0643 0.47625-1.5655 0.5162-2.9056 0.13282-0.48313 0.33152-1.0057 0.47995-1.2936 0.32226 0.16748 0.753 0.37386 1.2909 0.58976-0.92551 0.68024-1.992 2.063-1.3242 4.726z" fill="none" stroke="#fff" stroke-width=".26458"/><path d="m141.71 118c-4.9607-1.0261-7.5068-2.2868-8.7969-3.2311 1.8735 0.0765 3.8751-0.82417 3.9942-0.88053 0.26908-0.12356 0.40216-0.42862 0.31141-0.70855-0.0908-0.28126-0.37227-0.45191-0.66939-0.39556-3.0591 0.57389-4.8654-2.1706-6.0632-3.991-0.15161-0.23469-0.29237-0.449-0.42678-0.63976-2.9482-4.2614-7.2628-4.4117-8.5265-4.354-3.0888-4.0661-10.115-4.1701-10.398-4.1701-3.3554-0.16325-4.3532-0.84746-4.5791-1.0409 0.37994-3.6391-0.83132-6.3704-1.933-8.0359 0.0336 0.02037 0.0672 0.04127 0.10081 0.06562 0.20029 0.13282 0.4691 0.12594 0.66622-0.01799 0.19711-0.14235 0.28548-0.39105 0.22119-0.62812-0.67098-2.4622-3.1184-4.6392-4.9112-5.9537 0.23522 0.03836 0.48472-0.07514 0.60669-0.29316 0.12991-0.23389 0.086-0.52229-0.10398-0.70617-4.0325-3.8854-8.7585-3.3388-10.278-3.0348-0.66146-1.0165-2.3786-2.1222-2.9692-2.4834-0.25347-0.15558-0.6006-0.1188-0.78211 0.11483-0.15716 0.19844-0.17754 0.45429-0.0508 0.6567-0.21511-0.10954-0.47625-0.07726-0.6567 0.08599-0.18627 0.16642-0.24474 0.43392-0.14711 0.66622 0.33311 0.77496 0.13044 2.4646-0.0056 3.2319-1.4264 1.5997-2.8805 5.9153-3.1036 6.5918l-0.5715 0.83423c-0.52308 0.74612-0.70617 1.7992-0.47995 2.7525 0.16166 0.68104 0.5043 1.1933 0.96732 1.4396 1.1245 0.60669 2.0767 0.70855 2.8332 0.30665 0.72311-0.38629 1.0345-1.1322 1.1673-1.6163 1.8463-0.40349 3.2763-1.9439 3.9026-2.7289 0.47863 0.37597 0.79058 0.90778 0.94774 1.6148 0.50138 2.259-0.80063 5.4078-1.67 6.5355-1.6076 2.0862-1.7679 5.6653-1.7711 6.913-2.1474 0.63738-4.7583-0.19077-4.8699-0.22278-1.6796-0.2675-2.9657-0.0548-3.8034 0.62468-0.82656 0.66939-0.89059 1.5335-0.889 1.5679-0.42069 2.7321-1.7836 4.4008-1.7963 4.4164-0.03202 0.0376-0.05794 0.0825-0.07885 0.12356-1.0197 2.1503 0.03043 4.5712 0.29633 5.1186l0.29184 3.0525c0.19235 0.68527 0.52308 1.1448 0.9861 1.3652 0.55589 0.26459 1.0586 0.0609 1.1425 0.0204 0.77655-0.38629 1.2888-0.97446 1.5256-1.75 0.5334-1.7436-0.6051-3.7923-0.65458-3.8783-0.0717-0.12674-0.18759-0.22225-0.32676-0.2675l-0.26908-0.086c0.118-3.4359 1.03-4.9263 1.7923-5.5753 0.27834-0.23627 0.54901-0.36591 0.79058-0.4519-0.18838 0.44873-0.33629 0.93503-0.4191 1.2668-0.04683 1.1573-0.38021 2.3757-0.46593 2.6712-1.2684 2.1032-0.19076 3.4952-0.14473 3.5547 0.03678 0.0423 0.07885 0.0828 0.12515 0.11271 0.58023 0.39873 1.0586 1.4512 1.2285 1.9079 0.1651 2.1066 1.5983 2.9088 1.6523 2.9385 0.26988 0.15002 0.50509 0.20187 0.70379 0.20187 0.26035 0 0.45746-0.0892 0.57812-0.16589 0.83899-0.54875 0.78422-2.227 0.7202-2.8197 0.09446-1.0602-0.1307-1.8624-0.6694-2.3834-0.28919-0.28284-0.61463-0.42995-0.9017-0.5035 0.05953-0.65538-0.04921-1.3496-0.08599-1.5528-0.78978-3.1655 1.3436-3.8613 1.5968-3.933 0.0336-8e-3 0.04445-0.0439 0.07514-0.0579 1.7679 0.48789 4.0918 0.7583 6.6638 0.13917 6.4024 6.7683 12.732 7.1377 14.012 7.1377h0.0267c0.12673 0.26908 0.25347 0.52864 0.37385 0.77099 0.73819 1.4745 2.4133 4.0518 2.4725 4.1458 1.3213 2.2034 1.3965 3.4451 1.2261 4.1021-0.12514 0.48313-0.39555 0.6649-0.3847 0.6649-2.4606 1.0102-3.4952 2.0767-3.891 2.6165-3.1575 0.0201-4.1169 1.1165-4.2257 1.2557-0.58182 0.76941-1.1917 1.7388-0.74216 2.4146 0.0672 0.1016 0.1479 0.17992 0.23627 0.24077-0.50667 0.56912-0.47307 1.0604-0.35269 1.37 0.40508 1.0573 2.4217 1.3248 2.9112 1.3608 0.14923 0.0468 0.29951 0.0672 0.45032 0.0672 0.25268 0 0.50271-0.0656 0.73819-0.19526 0.74428-0.41143 1.1964-1.406 1.4012-1.9754 0.97816-0.12965 1.987-0.62706 2.0354-0.64902 0.11641-0.0595 0.21272-0.15796 0.26749-0.27517 1.2401-2.6337 4.119-4.041 4.612-4.2661 1.3668-0.16431 2.3397-0.67098 2.8932-1.5108 0.79613-1.2136 0.3646-2.6368 0.31909-2.754-1.5907-3.6031-0.52547-5.4142-0.30031-5.7364 6.2886-4.2444 6.4275-8.7061 6.2256-10.333 0.31433-0.022 0.57097 0.0439 0.77444 0.19711 0.84137 0.62548 0.88344 2.6461 0.9099 3.9862 9e-3 0.47863 0.0188 0.89773 0.0548 1.1994 0.3003 2.5101 1.3904 4.3368 3.2295 5.4314 4.7636 2.8244 12.865-0.34396 13.209-0.47996 0.23918-0.0984 0.39105-0.33628 0.36751-0.59584-0.0296-0.25982-0.21723-0.46937-0.46885-0.52387zm-57.868-3.5769c0.07885 0.4535 0.12991 1.2716-0.01244 1.5856-0.08678 0.19262-0.06403 0.41593 0.06085 0.58658 0.12515 0.16748 0.33628 0.25824 0.54107 0.2331 0.0032 0 0.4355-0.0344 0.72866 0.24844 0.3392 0.33179 0.36036 0.96811 0.31829 1.5468 0.06879 0.76941-0.02805 1.6798-0.26432 1.7611-0.03969-0.0251-0.97023-0.57574-1.061-2.0738-0.0032-0.0532-0.01323-0.10636-0.03043-0.15663-0.06403-0.17833-0.62309-1.742-1.5999-2.4879-0.12039-0.20955-0.46911-0.99933 0.29475-2.2238 0.02672-0.0423 0.04762-0.0907 0.06165-0.136 0.02117-0.0643 0.47625-1.5655 0.5162-2.9056 0.13282-0.48313 0.33152-1.0057 0.47995-1.2936 0.32226 0.16748 0.753 0.37386 1.2909 0.58976-0.92551 0.68024-1.992 2.063-1.3242 4.726zm45.355 4.1661c-1.5076-0.89905-2.4053-2.435-2.6649-4.5664-0.0328-0.27226-0.036-0.64744-0.0452-1.0824-0.0347-1.6608-0.0828-3.9346-1.3811-4.9027-0.6051-0.45032-1.3811-0.55192-2.313-0.29237-0.15002 0.0423-0.27834 0.14553-0.35507 0.2802-0.0749 0.13599-0.0968 0.3003-0.0513 0.44714 0.0595 0.20188 1.3354 5.0043-5.7116 9.7195-0.0421 0.0281-0.0844 0.064-0.11721 0.1016-0.0825 0.0968-1.9735 2.3741 0.0548 6.9657 3e-3 9e-3 0.28151 0.957-0.20796 1.6984-0.36116 0.55377-1.079 0.88979-2.1267 0.99907-0.0579 5e-3 -0.11272 0.022-0.16749 0.0423-0.14869 0.0624-3.5986 1.5375-5.1946 4.6871-0.41116 0.18283-1.1994 0.47863-1.7756 0.47863-0.26432 0-0.49503 0.17675-0.56541 0.43471-0.11721 0.4318-0.50986 1.4047-0.96732 1.6579-0.0963 0.05-0.17833 0.0609-0.39582 8e-3 -0.91969-0.0892-1.933-0.40191-2.0415-0.60828 3e-3 -0.022 0.0352-0.10028 0.21272-0.30321l0.50906-0.79296c0.1315-0.20188 0.12356-0.46461-0.0172-0.65987-0.13758-0.19103-0.37835-0.28019-0.60378-0.22675 0.0736-0.17515 0.2339-0.46752 0.57812-0.92101 8e-3 -8e-3 0.76703-0.81466 3.3875-0.81466 0.0796 0 0.17118-8e-3 0.24315 2e-3 0.2204 0 0.42757-0.13308 0.52864-0.33152 5e-3 -0.0111 0.64029-1.2044 3.5311-2.3945 0.0735-0.036 0.72416-0.38629 1.0073-1.3496 0.37068-1.2777-0.0765-2.9887-1.3449-5.1062-0.0188-0.0251-1.7092-2.6337-2.417-4.0473-0.77655-1.5547-1.7407-3.4862-0.70776-6.2399 0.11351-0.3003-0.04-0.63817-0.34316-0.75247-0.30269-0.1143-0.6403 0.0378-0.7538 0.34105-0.79613 2.1206-0.57468 3.8235-0.0992 5.2173-1.7375-0.10345-6.9469-0.92921-12.286-6.3325 1.4277-0.50033 2.908-1.2885 4.4008-2.4929 0.2495-0.2032 0.28919-0.57229 0.08599-0.8255-0.2032-0.25188-0.57309-0.29236-0.82497-0.0876-7.2401 5.8629-14.073 1.4232-14.361 1.2322-0.06879-0.0452-0.14526-0.0783-0.22754-0.0937-0.0508-5e-3 -1.3004-0.20638-2.5125 0.7993-1.4449 1.201-2.2019 3.525-2.2503 6.9093-0.0032 0.25638 0.15875 0.48313 0.40032 0.56277l0.45191 0.15187c0.23072 0.48154 0.7657 1.764 0.45667 2.7697-0.14155 0.45799-0.44582 0.79931-0.8845 1.021-0.0077 3e-3 -0.08996 0.0328-0.1696-0.0143-0.06403-0.0325-0.22437-0.16087-0.33311-0.51435l-0.2831-3.0591c-0.0085-0.078-0.03043-0.1532-0.068-0.22199-0.01243-0.0236-1.1861-2.263-0.35507-4.1164 0.2831-0.36275 1.574-2.1426 2.0095-4.9842 0-3e-3 0.03836-0.43471 0.46434-0.77708 0.56065-0.45667 1.5568-0.5879 2.7932-0.39714 0.13467 0.0431 3.3454 1.0729 5.9492 0.0445 0.23072-0.0915 0.37915-0.31829 0.36989-0.567-0.0016-0.0431-0.14552-4.426 1.5232-6.5894 1.1557-1.4991 2.453-4.939 1.886-7.506-0.2704-1.2176-0.95091-2.1394-1.968-2.6649-0.26749-0.13758-0.59029-0.05159-0.75539 0.19553-0.0164 0.02514-1.6976 2.4998-3.8309 2.7461-0.27358 0.0336-0.48868 0.2503-0.51435 0.52388 0 0.0079-0.10716 0.86334-0.64214 1.148-0.48154 0.25956-1.2057-0.02196-1.728-0.3011-0.11642-0.06271-0.28787-0.27861-0.38232-0.68024-0.14922-0.62944-0.03043-1.3356 0.30427-1.8148l0.62468-0.90646c0.03202-0.04604 0.05688-0.09922 0.07514-0.15161 0.44503-1.3809 1.8463-5.2131 2.9721-6.3384 0.08202-0.08228 0.13758-0.18627 0.16007-0.3011 0.03519-0.17992 0.24474-1.2769 0.23839-2.3881 0.14711 0.12515 0.35428 0.16828 0.54425 0.1143 0.26273-0.07885 0.4355-0.33152 0.41672-0.60431-0.01111-0.14711-0.02408-0.28628-0.03836-0.41751 0.79058 0.59743 1.3832 1.1673 1.4285 1.4137 0.02805 0.1651 0.12435 0.30745 0.26749 0.39582 0.14076 0.08811 0.31512 0.11007 0.47228 0.06562 0.04445-0.0164 4.1061-1.1549 7.9984 1.3433-0.20479 0.0085-0.39185 0.03678-0.54425 0.09313-0.21431 0.0799-0.36354 0.27543-0.38232 0.50139-0.01958 0.22754 0.09631 0.44503 0.29395 0.55906 0.0471 0.02752 3.9301 2.2495 5.6676 5.0427-0.4998-0.20955-0.96573-0.31829-1.3004-0.21987-0.20346 0.06244-0.35824 0.22913-0.4019 0.4363-0.0444 0.20796 0.0275 0.42386 0.18759 0.56462 0.0384 0.0344 3.7822 3.3748 3.0895 9.1175-0.0116 0.09234 0 0.18362 0.032 0.2704 0.13599 0.37756 0.9525 1.6335 5.702 1.8592 0.0704 0 7.0326 0.0987 9.6647 3.9396 0.12356 0.18204 0.3392 0.27993 0.55377 0.25083 0.0497-3e-3 4.7652-0.52864 7.7772 3.8322 0.12832 0.18442 0.26431 0.39264 0.40984 0.61622 0.87603 1.334 2.1566 3.2811 4.0928 4.1537-0.82576 0.064-1.6312-0.0344-2.163-0.50059-0.19077-0.16589-0.46779-0.18918-0.68819-0.0624-0.21563 0.12964-0.32517 0.3847-0.26908 0.63473 0.0717 0.31909 0.90991 2.9887 8.9265 5.0154-2.6159 0.75115-7.2652 1.6706-10.21-0.081z" fill="none" stroke-width=".26458"/></g></g></svg>
