<?xml version="1.0" encoding="UTF-8"?><svg id="a" xmlns="http://www.w3.org/2000/svg" viewBox="0 0 45.35 45.35"><defs><style>.f{fill:#fff;}.g{fill:#8b5e3c;}.h{fill:#c97645;}.i{fill:#231f20;}</style></defs><g id="b"/><g><g><g><path class="g" d="M36.73,17.73c-.87-2.78-3.97-7.07-8.51-8.48-.28-.1-.51,.06-.51,.36v7.21c.01,.79-1.73,.79-1.72,0-.25-.16,.78-10.35-1.03-7.36-.23,.4,.58,8.24-.54,7.9-.43,0-1.18,.09-1.18-.54-.22-.37,.55-8.24-.51-7.9-1.06-.37-.3,7.56-.52,7.9,0,.79-1.73,.79-1.72,0-.22-.38,.55-7.99-.52-7.67-1.06-.35-.3,7.32-.52,7.67,0,.79-1.72,.79-1.72,0-.18-.19,.66-9.35-1.03-6.38v6.38c.01,.63-.75,.56-1.18,.54-1.52-.18,.42-5.81-1.06-6.02-1.06-.17-.3,5.04-.52,5.48,.01,.63-.75,.56-1.18,.54-.99,.07-.39-2.44-.54-2.93,.01-.7-1.04-.7-1.03,0v2.38c.02,.71-.95,.53-1.39,.54-.75-2.33-5.45-7.87-7.79-5.58v12.19c2.33,2.29,7.04-3.25,7.79-5.58,2.07-.46,1.23,1.78,1.39,2.93,0,.7,1.04,.7,1.03,0v-2.38c-.01-.78,1.73-.78,1.72,0,.24,.45-.55,5.63,.51,5.48,1.04,.17,.31-5.04,.52-5.48,0-.78,1.73-.78,1.72,0,.21,.4-.54,7.19,.51,6.93,1.49-.15-.47-7.35,1.06-7.47,.43,0,1.19-.09,1.18,.54,.22,.37-.55,7.99,.51,7.67,1.06,.35,.3-7.32,.52-7.67,0-.79,1.72-.78,1.72,0,.22,.36-.55,8.24,.51,7.9,1.07,.37,.29-7.57,.52-7.9,0-.78,1.72-.78,1.72,0,.22,.36-.55,8.25,.51,7.9,1.5-.14-.49-8.35,1.06-8.45,.42,0,1.2-.09,1.18,.54v1.29c-.01,.7,1.04,.7,1.03,0V10.55c2.9,.98,6.2,4.75,6.95,7.33-.3,.86-2.05,5.24-6.95,7.32-.15-.48,.43-3.11-.51-3.06-1.01-.1-.33,3.55-.52,4.01,0,.3,.23,.46,.51,.36,4.56-1.5,7.92-5.76,8.51-8.78M3.07,23.46v-4.52c-.1-1.04,3.3-.36,3.78-.54,.3,0,.54-.23,.54-.52s-.24-.51-.54-.51c-.49-.18-3.87,.5-3.78-.54v-4.52c3.43,.39,5.45,4.63,5.86,5.58-.41,.94-2.42,5.18-5.86,5.58"/><path class="f" d="M25.48,28.88c-.51,0-.98-.15-1.37-.41-.86,.55-2.13,.5-2.93-.13-1,.57-2.41,.29-3.12-.58-1.21,.45-2.64-.2-3.14-1.34-1.54,.28-2.99-.95-2.99-2.52-.94,.07-1.85-.41-2.34-1.17C7.37,25.87,.92,28.98,0,23.97V11.79c.92-5.01,7.36-1.89,9.59,1.24,.49-.76,1.4-1.23,2.34-1.17,0-1.57,1.46-2.8,2.99-2.52,.5-1.14,1.93-1.79,3.14-1.35,.71-.87,2.12-1.15,3.12-.58,.8-.62,2.07-.68,2.93-.13,.85-.55,2.12-.5,2.93,.13,5.72-.68,10.64,6.43,11.66,9.78,.22,4.1-5.79,11.72-11.66,11.16-.43,.33-.97,.53-1.55,.53Zm5-7.43c.04,.08,.08,.16,.12,.25,1.59-1.34,2.48-2.9,2.9-3.82-.5-1.15-1.65-2.78-2.7-3.66-.1,.95,.28,6.49-.31,7.23Z"/></g><g><path class="g" d="M33.47,17.05c.6-.79-.6-1.23-1-.46-.66,.66-1.14-.92-1.78-.29-.34,.33-.01,.78,.29,1.02,.66,.65-.91,1.13-.29,1.78,.34,.35,.78,.01,1.02-.29,.66-.66,1.13,.91,1.78,.29,.61-.79-1.24-1.24-.02-2.05Z"/><path class="f" d="M31.05,21.29c-1.8,.06-3.09-2-2.32-3.58-.99-2.04,1.32-4.36,3.37-3.37,2.02-1,4.37,1.31,3.36,3.36,1.01,2.03-1.34,4.36-3.36,3.37-.32,.14-.68,.22-1.04,.22Zm-1.51-2.53h0Zm2.47-1.06s.05,.06,.08,.08c.03-.03,.06-.06,.08-.08-.03-.03-.05-.06-.08-.08-.03,.03-.06,.05-.08,.08Z"/></g><g><path class="i" d="M8.78,29.39c.63,.01,.61-.72,.59-1.17h29.49l2.93,5.85h-1.03l-2.18-4.36c-2.71-1.65,.74,3.89,.87,4.36h-1.03c-.31-.31-2.08-4.9-2.7-4.68h-3.51c-.76-.01-.76,1.18,0,1.17h3.15c2.74,5.39,1.23,4.75,7.39,4.68,1.93,.08-2.93-7.02-2.83-7.54,1.53-.9,1.2-10.46-.69-10.01-1.99-.4-2.6,1.39-.29,1.17,1.03,.33,1.03,7.87,0,8.19H9.37c.3-.96-.89-1.78-1.17-.59,.15,.52-.45,2.99,.59,2.93"/><path class="f" d="M42.73,37.28c-5.4,.02-6.41,.89-8.65-4.68-1.8,.17-4.32-.06-4.5-2.34H10.97c-6.48,5.82-6.48-11.08,0-5.25h26.59c.27-.84,.26-3.34-.01-4.16-8.25-4.69,9.51-11.47,4.65,6.87,.51,1.68,4.21,6.43,2.81,8.25l.08,.15h-.17c-.49,.73-1.3,1.17-2.19,1.17Z"/></g><g><path class="i" d="M11.77,29.45c-1.12-.3-1.17,1.54-1.24,2.28-.08,6.07,9.45,6.08,9.37,0,.31-1.06-1.31-3.75-1.51-1.5,2.02,5.91-7.71,7.78-6.61-.78"/><path class="f" d="M15.22,38.45c-4.83,.1-8.23-5.29-6.07-9.6,1.88-3.43,6.43-.32,4.6,2.88,0,.81,.66,1.47,1.47,1.47,1.05,.02,1.8-1.15,1.32-2.1-1.51-3.04,3.32-5.35,4.74-2.26,2.17,4.32-1.24,9.71-6.07,9.61Zm5.01-9.11h0Z"/></g><g><path class="i" d="M17.56,31.73c.04-3.03-4.72-3.03-4.68,0-.04,3.04,4.72,3.04,4.68,0m-3.51,0c-.02-1.52,2.36-1.52,2.34,0,.02,1.52-2.36,1.52-2.34,0"/><path class="f" d="M15.22,36.11c-5.68,.08-5.68-8.84,0-8.76,5.68-.08,5.68,8.84,0,8.76Zm0-4.68c-.16,0-.3,.14-.3,.3,.16,.68,1.06-.17,.3-.3Z"/></g><g><path class="i" d="M33.36,31.73c-3.04-.04-3.04,4.73,0,4.68,3.04,.04,3.04-4.73,0-4.68m0,3.51c-1.52,.02-1.52-2.36,0-2.34,1.52-.02,1.52,2.36,0,2.34"/><path class="f" d="M33.36,38.45c-5.68,.08-5.68-8.84,0-8.76,5.68-.08,5.68,8.84,0,8.76Zm0-4.68c-.16,0-.3,.14-.3,.3,.17,.68,1.05-.17,.3-.3Z"/></g><g><path class="i" d="M28.1,31.73c.04-3.03-4.72-3.04-4.68,0-.04,3.04,4.73,3.04,4.68,0m-3.51,0c-.02-1.52,2.36-1.52,2.34,0,.02,1.52-2.36,1.52-2.34,0"/><path class="f" d="M25.75,36.11c-5.68,.08-5.68-8.84,0-8.76,5.68-.08,5.68,8.84,0,8.76Zm0-4.68c-.16,0-.3,.14-.3,.3,.16,.68,1.06-.17,.3-.3Z"/></g><g><path class="i" d="M22.31,29.45c-1.12-.3-1.16,1.54-1.23,2.28-.08,6.08,9.45,6.07,9.36,0,.31-1.06-1.31-3.75-1.51-1.5,2.02,5.91-7.71,7.78-6.61-.78"/><path class="f" d="M25.75,38.45c-6.29,1.06-10.16-11.91-2.58-10.85,1.71,.75,1.67,2.65,1.11,4.13-.03,1.91,2.97,1.91,2.94,0-1.13-2.17,.48-5.12,3.11-4.23,4.93,3.09,.81,11.39-4.58,10.95Zm-5.01-9.1h0Zm10.02,0h0Z"/></g></g><g><path class="h" d="M36.73,17.73c-.87-2.78-3.97-7.07-8.51-8.48-.28-.1-.51,.06-.51,.36v7.21c.01,.79-1.73,.79-1.72,0-.25-.16,.78-10.35-1.03-7.36-.23,.4,.58,8.24-.54,7.9-.43,0-1.18,.09-1.18-.54-.22-.37,.55-8.24-.51-7.9-1.06-.37-.3,7.56-.52,7.9,0,.79-1.73,.79-1.72,0-.22-.38,.55-7.99-.52-7.67-1.06-.35-.3,7.32-.52,7.67,0,.79-1.72,.79-1.72,0-.18-.19,.66-9.35-1.03-6.38v6.38c.01,.63-.75,.56-1.18,.54-1.52-.18,.42-5.81-1.06-6.02-1.06-.17-.3,5.04-.52,5.48,.01,.63-.75,.56-1.18,.54-.99,.07-.39-2.44-.54-2.93,.01-.7-1.04-.7-1.03,0v2.38c.02,.71-.95,.53-1.39,.54-.75-2.33-5.45-7.87-7.79-5.58v12.19c2.33,2.29,7.04-3.25,7.79-5.58,2.07-.46,1.23,1.78,1.39,2.93,0,.7,1.04,.7,1.03,0v-2.38c-.01-.78,1.73-.78,1.72,0,.24,.45-.55,5.63,.51,5.48,1.04,.17,.31-5.04,.52-5.48,0-.78,1.73-.78,1.72,0,.21,.4-.54,7.19,.51,6.93,1.49-.15-.47-7.35,1.06-7.47,.43,0,1.19-.09,1.18,.54,.22,.37-.55,7.99,.51,7.67,1.06,.35,.3-7.32,.52-7.67,0-.79,1.72-.78,1.72,0,.22,.36-.55,8.24,.51,7.9,1.07,.37,.29-7.57,.52-7.9,0-.78,1.72-.78,1.72,0,.22,.36-.55,8.25,.51,7.9,1.5-.14-.49-8.35,1.06-8.45,.42,0,1.2-.09,1.18,.54v1.29c-.01,.7,1.04,.7,1.03,0V10.55c2.9,.98,6.2,4.75,6.95,7.33-.3,.86-2.05,5.24-6.95,7.32-.15-.48,.43-3.11-.51-3.06-1.01-.1-.33,3.55-.52,4.01,0,.3,.23,.46,.51,.36,4.56-1.5,7.92-5.76,8.51-8.78M3.07,23.46v-4.52c-.1-1.04,3.3-.36,3.78-.54,.3,0,.54-.23,.54-.52s-.24-.51-.54-.51c-.49-.18-3.87,.5-3.78-.54v-4.52c3.43,.39,5.45,4.63,5.86,5.58-.41,.94-2.42,5.18-5.86,5.58"/><path class="h" d="M33.47,17.05c.6-.79-.6-1.23-1-.46-.66,.66-1.14-.92-1.78-.29-.34,.33-.01,.78,.29,1.02,.66,.65-.91,1.13-.29,1.78,.34,.35,.78,.01,1.02-.29,.66-.66,1.13,.91,1.78,.29,.61-.79-1.24-1.24-.02-2.05Z"/><path class="i" d="M8.78,29.39c.63,.01,.61-.72,.59-1.17h29.49l2.93,5.85h-1.03l-2.18-4.36c-2.71-1.65,.74,3.89,.87,4.36h-1.03c-.31-.31-2.08-4.9-2.7-4.68h-3.51c-.76-.01-.76,1.18,0,1.17h3.15c2.74,5.39,1.23,4.75,7.39,4.68,1.93,.08-2.93-7.02-2.83-7.54,1.53-.9,1.2-10.46-.69-10.01-1.99-.4-2.6,1.39-.29,1.17,1.03,.33,1.03,7.87,0,8.19H9.37c.3-.96-.89-1.78-1.17-.59,.15,.52-.45,2.99,.59,2.93"/><path class="i" d="M11.77,29.45c-1.12-.3-1.17,1.54-1.24,2.28-.08,6.07,9.45,6.08,9.37,0,.31-1.06-1.31-3.75-1.51-1.5,2.02,5.91-7.71,7.78-6.61-.78"/><path class="i" d="M17.56,31.73c.04-3.03-4.72-3.03-4.68,0-.04,3.04,4.72,3.04,4.68,0m-3.51,0c-.02-1.52,2.36-1.52,2.34,0,.02,1.52-2.36,1.52-2.34,0"/><path class="i" d="M33.36,31.73c-3.04-.04-3.04,4.73,0,4.68,3.04,.04,3.04-4.73,0-4.68m0,3.51c-1.52,.02-1.52-2.36,0-2.34,1.52-.02,1.52,2.36,0,2.34"/><path class="i" d="M28.1,31.73c.04-3.03-4.72-3.04-4.68,0-.04,3.04,4.73,3.04,4.68,0m-3.51,0c-.02-1.52,2.36-1.52,2.34,0,.02,1.52-2.36,1.52-2.34,0"/><path class="i" d="M22.31,29.45c-1.12-.3-1.16,1.54-1.23,2.28-.08,6.08,9.45,6.07,9.36,0,.31-1.06-1.31-3.75-1.51-1.5,2.02,5.91-7.71,7.78-6.61-.78"/></g></g><g id="c"><g id="d"><g id="e"/></g></g></svg>