<?xml version="1.0" encoding="UTF-8"?>
<svg width="160mm" height="160mm" version="1.1" viewBox="0 0 160 160" xmlns="http://www.w3.org/2000/svg"><g transform="translate(-26.592 -102.16)"><circle cx="106.59" cy="182.16" r="80" fill="#fff" stroke-width=".465"/><g transform="matrix(.26458 0 0 .26458 43.496 118.67)"><g fill="#ffd042"><path d="m412.66 73.326c0.79 0.818 1.573 1.643 2.351 2.473-0.778-0.83-1.561-1.655-2.351-2.473z"/><path d="m423.03 84.774c1.452 1.71 2.881 3.442 4.285 5.193-1.404-1.751-2.833-3.482-4.285-5.193z"/><path d="m415.64 76.469c1.485 1.594 2.95 3.208 4.391 4.843-1.442-1.635-2.906-3.249-4.391-4.843z"/><path d="m382.14 46.614c0.755 0.556 1.509 1.112 2.257 1.676-0.749-0.565-1.503-1.121-2.257-1.676z"/><path d="m404.61 65.36c0.795 0.75 1.583 1.507 2.368 2.267-0.785-0.76-1.573-1.517-2.368-2.267z"/><path d="m386.12 49.618c1.198 0.921 2.389 1.852 3.569 2.795-1.18-0.943-2.371-1.874-3.569-2.795z"/><path d="m427.64 90.371c0.749 0.938 1.492 1.882 2.228 2.832-0.736-0.95-1.479-1.894-2.228-2.832z"/><path d="m391.07 53.522c1.68 1.363 3.344 2.745 4.985 4.151-1.642-1.406-3.305-2.788-4.985-4.151z"/><path d="m399.64 60.812c1.576 1.406 3.135 2.83 4.674 4.276-1.538-1.447-3.097-2.871-4.674-4.276z"/><path d="m396.18 57.775c0.79 0.678 1.573 1.364 2.355 2.052-0.782-0.688-1.565-1.374-2.355-2.052z"/><path d="m420.35 81.668c0.774 0.881 1.541 1.767 2.302 2.659-0.762-0.891-1.528-1.778-2.302-2.659z"/><path d="m279.76 476.7c-3.803 0.636-7.637 1.178-11.499 1.633 3.862-0.454 7.696-0.999 11.499-1.633z"/><path d="m265.32 478.67c-0.855 0.09-1.714 0.167-2.571 0.248 0.857-0.08 1.716-0.158 2.571-0.248z"/><path d="m285.14 475.74c-1.291 0.246-2.583 0.486-3.881 0.712 1.298-0.224 2.59-0.466 3.881-0.712z"/><path d="m259.6 479.2c-0.82 0.066-1.641 0.127-2.463 0.185 0.822-0.058 1.643-0.118 2.463-0.185z"/><path d="m253.76 479.6c-0.767 0.043-1.534 0.087-2.303 0.123 0.769-0.036 1.536-0.08 2.303-0.123z"/><path d="m290.55 474.65c-1.367 0.294-2.738 0.575-4.114 0.845 1.376-0.27 2.747-0.552 4.114-0.845z"/><path d="m479.14 219.72c0.065 0.767 0.135 1.533 0.192 2.303-0.057-0.77-0.128-1.535-0.192-2.303z"/><path d="m479.65 227c0.033 0.622 0.059 1.245 0.088 1.868-0.029-0.623-0.055-1.246-0.088-1.868z"/><path d="m479.88 232.75c0.017 0.576 0.035 1.152 0.049 1.729-0.013-0.577-0.032-1.153-0.049-1.729z"/><path d="m478.57 213.8c0.106 0.975 0.208 1.951 0.302 2.93-0.094-0.979-0.196-1.955-0.302-2.93z"/><path d="m363.26 34.04c0.695 0.417 1.389 0.835 2.08 1.259-0.691-0.424-1.385-0.842-2.08-1.259z"/><path d="m299.5 7.438c0.455 0.116 0.907 0.237 1.36 0.355-0.453-0.118-0.905-0.239-1.36-0.355z"/><path d="m293.36 5.963c0.421 0.095 0.843 0.188 1.263 0.286-0.42-0.097-0.842-0.19-1.263-0.286z"/><path d="m310.78 10.615c0.504 0.156 1.006 0.315 1.509 0.474-0.503-0.159-1.005-0.319-1.509-0.474z"/><path d="m287.99 4.803c0.399 0.081 0.796 0.167 1.194 0.25-0.399-0.083-0.796-0.169-1.194-0.25z"/><path d="m377.54 43.314c0.985 0.69 1.964 1.388 2.938 2.093-0.974-0.705-1.953-1.403-2.938-2.093z"/><path d="m316.04 12.307c0.422 0.141 0.847 0.278 1.268 0.421-0.421-0.143-0.846-0.28-1.268-0.421z"/><path d="m264.36 1.223c0.25 0.025 0.5 0.055 0.75 0.081-0.25-0.026-0.5-0.056-0.75-0.081z"/><path d="m252.26 0.309c0.147 7e-3 0.293 0.018 0.44 0.025-0.147-7e-3 -0.293-0.018-0.44-0.025z"/><path d="m276.27 2.726c0.334 0.051 0.666 0.106 1 0.158-0.334-0.052-0.666-0.107-1-0.158z"/><path d="m281.68 3.616c0.426 0.075 0.853 0.147 1.278 0.224-0.425-0.077-0.852-0.15-1.278-0.224z"/><path d="m304.82 8.866c0.42 0.117 0.842 0.231 1.261 0.351-0.419-0.12-0.841-0.234-1.261-0.351z"/><path d="m321.82 14.316c0.55 0.199 1.097 0.403 1.645 0.606-0.547-0.204-1.095-0.407-1.645-0.606z"/><path d="m348.16 25.71c0.789 0.399 1.574 0.803 2.357 1.21-0.784-0.407-1.569-0.811-2.357-1.21z"/><path d="m353.33 28.404c0.664 0.356 1.326 0.714 1.986 1.077-0.66-0.363-1.322-0.721-1.986-1.077z"/><path d="m372.86 40.116c0.725 0.483 1.449 0.967 2.169 1.457-0.72-0.491-1.444-0.974-2.169-1.457z"/><path d="m368.1 37.022c0.934 0.591 1.862 1.188 2.787 1.792-0.925-0.604-1.853-1.202-2.787-1.792z"/><path d="m358.29 31.142c0.874 0.496 1.743 0.999 2.61 1.505-0.867-0.506-1.736-1.009-2.61-1.505z"/><path d="m327.02 16.275c0.422 0.164 0.846 0.323 1.267 0.49-0.42-0.166-0.845-0.326-1.267-0.49z"/><path d="m343.11 23.228c0.628 0.299 1.254 0.601 1.879 0.906-0.625-0.305-1.251-0.607-1.879-0.906z"/><path d="m332.6 18.525c0.59 0.247 1.179 0.498 1.767 0.75-0.588-0.252-1.176-0.502-1.767-0.75z"/><path d="m337.73 20.745c0.66 0.294 1.319 0.591 1.975 0.891-0.657-0.3-1.316-0.597-1.975-0.891z"/><path d="m412.37 73.022c-1.491-1.539-3.004-3.057-4.535-4.556 1.531 1.5 3.044 3.017 4.535 4.556z"/><path d="m437.26 103.29c1.148 1.654 2.279 3.321 3.387 5.004-1.979-3.008-4.021-5.97-6.13-8.881 0.922 1.273 1.827 2.558 2.724 3.85 6e-3 9e-3 0.012 0.018 0.019 0.027z"/><path d="m240 325.71c-32.794 0-64.094-2.195-92.75-6.175 2.01 12.121 4.925 23.936 8.68 35.37-58.301-7.231-106.56-21.722-135.39-40.346-0.046-0.03-0.09-0.059-0.135-0.089-0.918-0.594-1.813-1.194-2.691-1.797-0.122-0.084-0.245-0.167-0.366-0.25-0.911-0.631-1.802-1.265-2.669-1.905-0.084-0.062-0.165-0.125-0.249-0.187-0.751-0.557-1.481-1.119-2.198-1.682-0.194-0.153-0.388-0.306-0.58-0.459-0.784-0.627-1.554-1.256-2.296-1.891 7.501 26.137 19.31 50.433 34.63 72.091 11.966 5.287 25.682 10.079 40.849 14.272 5.292 1.463 10.751 2.856 16.386 4.167 3.113 0.724 6.276 1.425 9.488 2.1 0 0-0.015-0.03-0.042-0.088-0.055-0.116-0.163-0.344-0.312-0.67-0.522-1.139-1.551-3.47-2.614-6.346-0.304-0.822-0.61-1.688-0.908-2.584s-0.588-1.821-0.858-2.761c-0.244-0.847-0.469-1.706-0.673-2.565-0.589-2.478-0.983-4.962-0.982-7.189 0-0.428 0.015-0.847 0.046-1.254 0.056-0.741 0.172-1.438 0.341-2.091 0.158-0.612 0.378-1.175 0.65-1.692 0.127-0.242 0.267-0.473 0.421-0.69 1.1-1.553 2.891-2.488 5.655-2.434 0.565 0.011 1.131 0.032 1.7 0.063 0.158 8e-3 0.317 0.023 0.475 0.033 0.411 0.026 0.822 0.051 1.235 0.086 0.218 0.019 0.438 0.045 0.656 0.066 0.354 0.034 0.706 0.067 1.061 0.108 0.254 0.03 0.509 0.066 0.763 0.099 0.323 0.042 0.646 0.081 0.971 0.128 0.265 0.038 0.532 0.084 0.798 0.126 0.315 0.05 0.629 0.097 0.946 0.152 0.275 0.048 0.552 0.102 0.828 0.153 0.31 0.057 0.619 0.113 0.93 0.175 0.283 0.056 0.567 0.119 0.851 0.179 0.305 0.064 0.609 0.127 0.915 0.195 0.291 0.065 0.583 0.136 0.875 0.205 0.302 0.071 0.603 0.141 0.906 0.216 0.297 0.074 0.596 0.153 0.894 0.231 0.298 0.077 0.595 0.153 0.893 0.234 0.301 0.082 0.604 0.168 0.906 0.253 0.3 0.084 0.599 0.167 0.899 0.255 0.299 0.087 0.598 0.179 0.897 0.269 0.306 0.092 0.611 0.183 0.918 0.279 0.299 0.093 0.598 0.19 0.897 0.287 0.309 0.099 0.618 0.198 0.928 0.3 0.3 0.099 0.6 0.202 0.901 0.304 0.312 0.106 0.624 0.211 0.936 0.32 0.297 0.103 0.595 0.21 0.893 0.317 0.32 0.114 0.639 0.227 0.959 0.344 0.293 0.107 0.586 0.217 0.88 0.326 0.327 0.122 0.653 0.243 0.981 0.368 0.289 0.11 0.578 0.222 0.867 0.334 0.336 0.13 0.671 0.26 1.008 0.393 0.282 0.111 0.565 0.225 0.848 0.338 0.345 0.138 0.69 0.277 1.036 0.418 0.276 0.112 0.552 0.227 0.828 0.341 0.358 0.148 0.716 0.296 1.074 0.447 0.263 0.11 0.527 0.223 0.79 0.334 0.374 0.159 0.749 0.318 1.124 0.48 0.25 0.108 0.501 0.217 0.752 0.326 0.391 0.17 0.783 0.341 1.175 0.514 0.236 0.104 0.473 0.209 0.71 0.315 0.408 0.182 0.818 0.364 1.228 0.549 0.223 0.1 0.446 0.201 0.67 0.303 0.43 0.195 0.862 0.391 1.294 0.589 0.195 0.089 0.39 0.179 0.584 0.269 0.47 0.216 0.941 0.434 1.413 0.654 0.155 0.072 0.309 0.144 0.464 0.217 0.512 0.239 1.026 0.48 1.54 0.722 0.119 0.056 0.239 0.112 0.358 0.169 0.557 0.263 1.114 0.528 1.673 0.794 0.071 0.034 0.142 0.068 0.212 0.101 4.173 1.991 8.405 4.067 12.69 6.152-5.662-11.023-10.579-22.491-14.502-34.423 26.253 3.252 54.548 5.024 84.043 5.024 26.929 0 52.859-1.477 77.145-4.208l31.322-4.361c55.284-9.26 99.103-25.38 122.19-45.147-7.497 26.132-19.3 50.424-34.614 72.081-45.489 20.111-116.36 34.271-196.04 33.064-24.076-0.365-47.591-11.348-69.693-22.104 10.481 20.436 23.805 39.172 39.454 55.686 0.042 2e-3 0.083 4e-3 0.124 6e-3 0.023 0.025 0.048 0.048 0.071 0.073 9.848 0.411 19.873 0.625 30.044 0.625 55.516 0 106.7-6.311 148.08-16.917-27.933 21.94-60.836 37.837-96.751 45.683 107.88-23.509 188.67-119.55 188.67-234.48 0 8.019-0.411 15.942-1.18 23.759-29.883 35.776-125.45 61.955-238.82 61.955z"/><path d="m246.83 0.103c-0.433-0.012-0.867-0.023-1.301-0.032 0.034 1e-3 0.068 2e-3 0.101 3e-3 0.4 8e-3 0.8 0.017 1.2 0.029z"/><path d="m432.7 96.938c0.076 0.103 0.148 0.209 0.224 0.312 0.426 0.575 0.853 1.149 1.274 1.728-1.386-1.905-2.797-3.789-4.237-5.651 0.924 1.194 1.833 2.401 2.734 3.613 2e-3 -1e-3 3e-3 -1e-3 5e-3 -2e-3z"/><path d="m259.05 0.751c-0.308-0.024-0.616-0.05-0.925-0.073 0.171 0.013 0.341 0.029 0.512 0.042 0.139 0.011 0.276 0.021 0.413 0.031z"/><path d="m444.85 115.02c1.641 2.693 3.249 5.408 4.79 8.167-44.139 23.849-121.51 39.674-209.64 39.674-22.083 0-43.49-0.994-63.869-2.859-10.299 17.797-18.377 37.036-23.856 57.346 0.018 2e-3 0.035 5e-3 0.053 7e-3l-3e-3 0.012c8.346 1.086 16.897 2.028 25.646 2.803l-2e-3 -7e-3c45.638 3.093 75.471 22.415 103.66 27.463 7.535 1.35 13.04-6.918 8.744-13.254l-8.622-12.716c85.209-4.969 155.6-24.903 187.84-51.677 4.106 13.479 7.06 27.458 8.751 41.824-4.413-37.698-17.558-72.721-37.365-103 1.339 2.047 2.649 4.115 3.927 6.206-0.018 5e-3 -0.035 8e-3 -0.052 0.012zm-192.85 108.98c-6.627 0-12-3.582-12-8s5.373-8 12-8 12 3.582 12 8-5.373 8-12 8z"/><path d="m271.09 2.001c-0.428-0.055-0.857-0.107-1.286-0.16 0.399 0.049 0.798 0.098 1.196 0.149 0.03 4e-3 0.06 8e-3 0.09 0.011z"/><path d="m245.75 479.93c0.644-0.015 1.285-0.042 1.928-0.062-0.643 0.02-1.284 0.047-1.928 0.062z"/></g><g fill="#ff9300"><path d="m193.57 475.5c-1.38-0.271-2.757-0.553-4.128-0.848 1.372 0.295 2.748 0.578 4.128 0.848z"/><path d="m234.25 479.93c-0.644-0.015-1.285-0.042-1.928-0.062 0.643 0.02 1.284 0.047 1.928 0.062z"/><path d="m198.74 476.45c-1.302-0.226-2.6-0.467-3.895-0.715 1.295 0.247 2.592 0.489 3.895 0.715z"/><path d="m211.76 478.34c-3.871-0.455-7.715-0.999-11.527-1.636 3.813 0.636 7.656 1.182 11.527 1.636z"/><path d="m222.87 479.38c-0.823-0.058-1.647-0.119-2.468-0.185 0.821 0.067 1.644 0.127 2.468 0.185z"/><path d="m217.26 478.92c-0.862-0.081-1.724-0.159-2.583-0.249 0.859 0.09 1.722 0.168 2.583 0.249z"/><path d="m228.54 479.72c-0.769-0.036-1.536-0.08-2.303-0.123 0.767 0.043 1.534 0.087 2.303 0.123z"/><path d="m109.33 441.25c-3.761-2.449-7.449-5-11.061-7.649-0.397-0.291-0.792-0.583-1.188-0.876-1.733-1.288-3.455-2.589-5.151-3.922-2e-3 -1e-3 -4e-3 -3e-3 -6e-3 -4e-3 1e-3 0 3e-3 1e-3 4e-3 1e-3 1.931 0.495 3.89 0.978 5.863 1.453 0.303 0.073 0.605 0.147 0.91 0.219 2.039 0.487 4.096 0.965 6.178 1.43 7e-3 2e-3 0.013 3e-3 0.02 4e-3 30.904 6.91 66.55 11.491 104.86 13.105-15.649-16.514-28.973-35.25-39.454-55.686-4.232-2.06-8.412-4.111-12.534-6.077-0.071-0.034-0.142-0.068-0.212-0.101-0.559-0.266-1.116-0.531-1.673-0.794-0.119-0.056-0.239-0.113-0.358-0.169-0.514-0.243-1.028-0.483-1.54-0.722-0.155-0.072-0.31-0.145-0.464-0.217-0.472-0.22-0.943-0.437-1.413-0.654-0.195-0.09-0.39-0.18-0.584-0.269-0.432-0.198-0.863-0.394-1.294-0.589-0.223-0.101-0.447-0.202-0.67-0.303-0.41-0.185-0.819-0.367-1.228-0.549-0.237-0.105-0.474-0.211-0.71-0.315-0.393-0.173-0.784-0.344-1.175-0.514-0.251-0.109-0.502-0.219-0.752-0.326-0.375-0.162-0.75-0.321-1.124-0.48-0.264-0.112-0.527-0.224-0.79-0.334-0.359-0.151-0.717-0.299-1.074-0.447-0.276-0.114-0.553-0.229-0.828-0.341-0.346-0.141-0.691-0.28-1.036-0.418-0.283-0.113-0.566-0.227-0.848-0.338-0.337-0.133-0.672-0.263-1.008-0.393-0.289-0.112-0.578-0.224-0.867-0.334-0.328-0.125-0.654-0.246-0.981-0.368-0.293-0.109-0.587-0.219-0.88-0.326-0.32-0.117-0.64-0.23-0.959-0.344-0.298-0.106-0.596-0.213-0.893-0.317-0.313-0.109-0.624-0.214-0.936-0.32-0.3-0.102-0.601-0.205-0.901-0.304-0.31-0.103-0.619-0.201-0.928-0.3-0.299-0.096-0.599-0.193-0.897-0.287-0.306-0.096-0.612-0.187-0.918-0.279-0.299-0.09-0.599-0.182-0.897-0.269-0.301-0.088-0.6-0.171-0.899-0.255-0.302-0.085-0.605-0.172-0.906-0.253-0.299-0.081-0.596-0.156-0.893-0.234-0.298-0.077-0.597-0.157-0.894-0.231-0.303-0.075-0.604-0.144-0.906-0.216-0.292-0.069-0.584-0.14-0.875-0.205-0.306-0.069-0.61-0.131-0.915-0.195-0.284-0.06-0.568-0.123-0.851-0.179-0.311-0.062-0.62-0.117-0.93-0.175-0.276-0.051-0.553-0.106-0.828-0.153-0.316-0.055-0.631-0.102-0.946-0.152-0.266-0.042-0.533-0.088-0.798-0.126-0.325-0.047-0.647-0.086-0.971-0.128-0.254-0.033-0.51-0.07-0.763-0.099-0.355-0.041-0.708-0.073-1.061-0.108-0.219-0.021-0.438-0.047-0.656-0.066-0.413-0.035-0.824-0.061-1.235-0.086-0.158-0.01-0.317-0.024-0.475-0.033-0.569-0.03-1.136-0.052-1.7-0.063-2.764-0.054-4.555 0.881-5.655 2.434-0.154 0.218-0.293 0.449-0.421 0.69-0.272 0.517-0.491 1.079-0.65 1.692-0.169 0.654-0.285 1.35-0.341 2.091-0.031 0.407-0.045 0.826-0.046 1.254-1e-3 2.226 0.393 4.71 0.982 7.189 0.204 0.859 0.429 1.718 0.673 2.565 0.271 0.94 0.56 1.865 0.858 2.761s0.604 1.762 0.908 2.584c1.063 2.876 2.092 5.207 2.614 6.346 0.149 0.325 0.257 0.554 0.312 0.67 0.028 0.058 0.042 0.088 0.042 0.088-3.212-0.676-6.375-1.376-9.488-2.1-5.635-1.311-11.095-2.704-16.386-4.167-15.167-4.193-28.883-8.985-40.849-14.271-15.321-21.659-27.129-45.955-34.63-72.092v-1e-3c0.742 0.635 1.512 1.264 2.296 1.891 0.192 0.153 0.386 0.306 0.58 0.459 0.717 0.564 1.447 1.125 2.198 1.682 0.084 0.062 0.165 0.125 0.249 0.187 0.867 0.64 1.758 1.274 2.669 1.905 0.121 0.084 0.244 0.167 0.366 0.25 0.878 0.603 1.773 1.202 2.691 1.797 0.045 0.029 0.09 0.059 0.135 0.089 28.838 18.624 77.093 33.115 135.39 40.346-3.755-11.434-6.67-23.249-8.68-35.37-61.528-8.545-110.84-25.337-136.48-46.406-0.091-0.075-0.179-0.15-0.27-0.224-0.771-0.639-1.52-1.281-2.247-1.927-0.118-0.104-0.238-0.208-0.355-0.313-0.781-0.703-1.54-1.41-2.269-2.122-0.106-0.103-0.205-0.207-0.31-0.311-0.604-0.597-1.188-1.198-1.755-1.801-0.174-0.185-0.348-0.371-0.519-0.557-0.644-0.702-1.271-1.406-1.864-2.115-1e-3 -1e-3 -2e-3 -2e-3 -3e-3 -4e-3 -0.772-7.815-1.183-15.738-1.183-23.757 0 114.93 80.795 210.98 188.68 234.48-28.529-6.231-55.151-17.551-78.897-32.937-0.153-0.099-0.306-0.198-0.458-0.297zm42.674-49.248c9.667 5.667 16.5 12.5 16 24s-46.5-12-48-24 19.792-7.157 32 0z"/><path d="m254.41 0.434c0.952 0.057 1.903 0.117 2.852 0.184-0.949-0.067-1.9-0.128-2.852-0.184z"/><path d="m240 0c1.436 0 2.869 0.014 4.3 0.04-1.431-0.026-2.864-0.04-4.3-0.04z"/><path d="m222.57 0.631c1.147-0.083 2.296-0.157 3.448-0.224-1.151 0.067-2.3 0.142-3.448 0.224z"/><path d="m240 0c-1.409 0-2.815 0.015-4.219 0.039 0.198-3e-3 0.397-2e-3 0.596-6e-3 1.205-0.021 2.413-0.033 3.623-0.033z"/><path d="m444.85 115.02c0.017-3e-3 0.035-7e-3 0.052-0.01-1.278-2.09-2.588-4.158-3.927-6.206-0.11-0.169-0.222-0.337-0.333-0.505-1.107-1.684-2.239-3.351-3.387-5.004 2.648 3.824 5.168 7.742 7.595 11.725z"/><path d="m347.33 25.343c0.112 0.056 0.224 0.111 0.336 0.167 0.802 0.404 1.6 0.813 2.396 1.225 0.581 0.3 1.161 0.601 1.739 0.905 0.408 0.215 0.815 0.432 1.221 0.65 0.972 0.519 1.939 1.044 2.903 1.576l0.33 0.183c0.552 0.306 1.108 0.607 1.657 0.918 0.195 0.11 0.399 0.205 0.594 0.316 4.899 2.788 9.686 5.749 14.362 8.864 0.063 0.042 0.123 0.089 0.186 0.131-6.821 0.306-13.564 0.908-20.225 1.773-4.947 0.873-9.987 1.69-15.118 2.45-55.544 10.855-104.21 40.877-138.88 82.884 0.01 0 0.021 1e-3 0.031 2e-3 -2e-3 3e-3 -4e-3 5e-3 -7e-3 8e-3 13.385 0.77 27.128 1.176 41.148 1.176 17.369 0 34.322-0.614 50.686-1.783 3.126-0.223 6.23-0.467 9.312-0.73l29.238-3.176c40.795-5.412 76.311-14.455 103.46-25.942-0.901-1.212-1.811-2.418-2.734-3.613-0.032-0.041-0.063-0.083-0.095-0.124-0.736-0.95-1.479-1.894-2.228-2.832-0.108-0.135-0.217-0.269-0.324-0.403-1.405-1.751-2.833-3.483-4.285-5.193-0.126-0.149-0.251-0.298-0.378-0.447-0.761-0.892-1.528-1.779-2.302-2.659-0.105-0.12-0.212-0.238-0.317-0.357-1.442-1.635-2.906-3.248-4.391-4.843-0.208-0.223-0.415-0.448-0.624-0.67-0.778-0.83-1.561-1.655-2.351-2.473-0.098-0.102-0.198-0.202-0.296-0.303-1.491-1.539-3.004-3.057-4.535-4.556-0.286-0.28-0.572-0.561-0.86-0.84-0.785-0.76-1.573-1.518-2.368-2.267-0.097-0.092-0.196-0.181-0.293-0.272-1.539-1.446-3.098-2.87-4.674-4.276-0.369-0.329-0.738-0.657-1.109-0.984-0.781-0.688-1.564-1.375-2.355-2.052l-0.12-0.102c-1.642-1.407-3.306-2.789-4.985-4.151-0.458-0.371-0.917-0.741-1.377-1.109-1.18-0.943-2.371-1.874-3.569-2.795-0.577-0.444-1.152-0.89-1.733-1.328-0.748-0.564-1.502-1.12-2.257-1.676-0.55-0.405-1.102-0.807-1.656-1.207-0.974-0.705-1.953-1.402-2.938-2.093-0.834-0.584-1.67-1.167-2.512-1.741-0.719-0.491-1.444-0.974-2.169-1.457-0.657-0.438-1.317-0.871-1.979-1.302-0.925-0.603-1.854-1.201-2.787-1.792-0.916-0.58-1.835-1.156-2.76-1.723-0.69-0.424-1.385-0.842-2.08-1.259-0.782-0.469-1.568-0.932-2.356-1.393-0.867-0.507-1.736-1.009-2.61-1.505-0.987-0.56-1.977-1.115-2.972-1.662-0.66-0.362-1.322-0.72-1.986-1.077-0.933-0.501-1.871-0.994-2.811-1.483-0.783-0.407-1.569-0.811-2.357-1.21-1.054-0.533-2.111-1.059-3.174-1.577-0.625-0.304-1.251-0.606-1.879-0.906-1.131-0.539-2.268-1.07-3.409-1.592-0.657-0.3-1.316-0.597-1.975-0.891-1.115-0.498-2.235-0.988-3.359-1.47-0.588-0.252-1.177-0.502-1.767-0.75-1.43-0.599-2.865-1.189-4.309-1.76-0.42-0.167-0.845-0.326-1.267-0.49-1.183-0.46-2.37-0.912-3.561-1.354-0.548-0.203-1.095-0.406-1.645-0.606-1.496-0.542-2.998-1.074-4.507-1.588-0.421-0.143-0.846-0.28-1.268-0.421-1.247-0.416-2.498-0.823-3.754-1.219-0.503-0.159-1.005-0.318-1.509-0.474-1.56-0.481-3.125-0.948-4.698-1.397-0.419-0.12-0.841-0.234-1.261-0.351-1.316-0.368-2.636-0.726-3.962-1.072-0.453-0.119-0.906-0.24-1.36-0.355-1.618-0.413-3.242-0.81-4.872-1.189-0.42-0.098-0.842-0.191-1.263-0.286-1.389-0.315-2.782-0.619-4.18-0.91-0.398-0.083-0.795-0.169-1.194-0.25-1.67-0.339-3.346-0.659-5.028-0.963-0.425-0.077-0.852-0.149-1.278-0.224-1.467-0.257-2.938-0.501-4.415-0.731-0.333-0.052-0.666-0.108-1-0.158-1.718-0.261-3.443-0.5-5.173-0.724 27.094 3.514 52.757 11.565 76.233 23.34z"/><path d="m437.24 103.26c-0.897-1.292-1.802-2.577-2.724-3.85-0.105-0.146-0.211-0.29-0.317-0.435-0.421-0.579-0.848-1.153-1.274-1.728 1.468 1.981 2.909 3.984 4.315 6.013z"/><path d="m252.92 0.347c-0.074-4e-3 -0.148-9e-3 -0.222-0.013-0.147-8e-3 -0.293-0.018-0.44-0.025-0.717-0.036-1.436-0.062-2.154-0.092 0.94 0.039 1.879 0.08 2.816 0.13z"/><path d="m261.66 0.972c-0.87-0.078-1.741-0.152-2.614-0.221-0.137-0.011-0.275-0.02-0.412-0.031 1.01 0.079 2.019 0.162 3.026 0.252z"/><path d="m271 1.99c-0.398-0.051-0.797-0.1-1.196-0.149-0.943-0.117-1.887-0.23-2.833-0.336 1.346 0.151 2.69 0.312 4.029 0.485z"/><path d="m266.18 1.42c-0.359-0.039-0.719-0.079-1.078-0.117-0.25-0.026-0.5-0.056-0.75-0.081-0.512-0.052-1.026-0.096-1.539-0.145 1.125 0.107 2.247 0.221 3.367 0.343z"/><path d="m248.61 0.155c-0.59-0.021-1.182-0.036-1.774-0.053-0.4-0.011-0.8-0.021-1.2-0.03 0.993 0.024 1.985 0.048 2.974 0.083z"/><path d="m234.54 0.068c-0.025 0-0.05 1e-3 -0.075 2e-3 -0.385 9e-3 -0.77 0.017-1.155 0.027-0.594 0.016-1.189 0.034-1.782 0.055 1.002-0.035 2.006-0.061 3.012-0.084z"/><path d="m230.19 0.205c-0.738 0.03-1.476 0.059-2.212 0.095-0.297 0.015-0.594 0.032-0.89 0.048 1.032-0.055 2.067-0.102 3.102-0.143z"/></g><g fill="#ff7400"><path d="m240 0c-1.21 0-2.418 0.012-3.623 0.033 1.206-0.017 2.413-0.033 3.623-0.033z"/><path d="m355.92 29.866c-0.964-0.532-1.931-1.057-2.903-1.576 0.971 0.52 1.94 1.043 2.903 1.576z"/><path d="m373.05 40.278c-0.063-0.042-0.123-0.089-0.186-0.131-4.676-3.115-9.463-6.076-14.362-8.864-0.195-0.111-0.399-0.206-0.594-0.316-0.55-0.311-1.105-0.612-1.657-0.918 4.859 2.698 9.615 5.559 14.26 8.576-5.74 1.224-11.651 2.361-17.686 3.426 6.66-0.865 13.404-1.467 20.225-1.773z"/><path d="m347.66 25.51c-0.112-0.056-0.224-0.112-0.336-0.167 0.112 0.056 0.224 0.111 0.336 0.167z"/><path d="m351.8 27.64c-0.578-0.304-1.158-0.605-1.739-0.905 0.581 0.301 1.161 0.6 1.739 0.905z"/><path d="m52.578 99.137c0.932 0.369 1.87 0.736 2.82 1.099 0.525 0.201 1.055 0.4 1.585 0.599 0.892 0.335 1.793 0.667 2.7 0.996 0.55 0.2 1.098 0.4 1.653 0.598 0.968 0.345 1.948 0.686 2.932 1.025 0.493 0.17 0.979 0.342 1.476 0.51 1.41 0.478 2.837 0.951 4.28 1.417 0.616 0.199 1.244 0.394 1.865 0.591 0.879 0.279 1.759 0.557 2.65 0.832 0.766 0.236 1.54 0.468 2.314 0.701 0.753 0.226 1.51 0.451 2.271 0.675 0.845 0.248 1.693 0.494 2.547 0.738 0.68 0.194 1.366 0.385 2.053 0.577 0.931 0.26 1.861 0.52 2.803 0.775 0.477 0.129 0.962 0.255 1.442 0.384 3.741 0.999 7.565 1.963 11.472 2.888 0.344 0.082 0.686 0.164 1.032 0.245 1.282 0.3 2.573 0.596 3.872 0.889 0.308 0.069 0.616 0.138 0.925 0.207 1.394 0.311 2.795 0.618 4.208 0.919 0.016 3e-3 0.031 7e-3 0.047 0.01 26.81 5.712 57.003 9.716 89.304 11.574 34.669-42.007 83.337-72.029 138.88-82.884-29.992 4.443-62.991 6.927-97.709 6.927-47.862 0-92.492-4.7-130.42-12.783 15.905-10.33 33.104-18.833 51.298-25.214-2.163 0.751-4.318 1.521-6.45 2.336-1.229 0.469-2.448 0.957-3.667 1.445-3.126 1.254-6.22 2.573-9.279 3.954-1.046 0.472-2.099 0.932-3.137 1.418-3.832 1.796-7.618 3.673-11.336 5.663-0.173 0.092-0.352 0.175-0.524 0.268-4.12 2.218-8.167 4.557-12.138 7.004-0.315 0.194-0.621 0.403-0.935 0.599-3.502 2.181-6.941 4.454-10.32 6.807-0.724 0.504-1.438 1.021-2.156 1.533-3.066 2.186-6.08 4.439-9.037 6.763-0.625 0.491-1.254 0.976-1.874 1.472-10.738 8.614-20.725 18.123-29.835 28.428-0.348 0.394-0.687 0.795-1.033 1.192-2.685 3.077-5.292 6.224-7.819 9.437-0.375 0.477-0.752 0.951-1.124 1.43-0.976 1.26-1.928 2.541-2.883 3.818 1.295 0.547 2.613 1.088 3.946 1.624 0.429 0.172 0.867 0.342 1.301 0.514z"/><path d="m181.5 7.213c-0.359 0.09-0.727 0.159-1.086 0.25-4.439 1.135-8.822 2.412-13.159 3.791-1.019 0.324-2.019 0.689-3.032 1.026-0.1 0.033-0.198 0.069-0.297 0.102 6.093-2.044 12.294-3.853 18.594-5.41-0.338 0.083-0.681 0.156-1.02 0.241z"/></g><g fill="#ffedb9"><path d="m449.64 123.18c-1.541-2.759-3.149-5.474-4.79-8.167-2.427-3.982-4.947-7.901-7.595-11.726-6e-3 -9e-3 -0.012-0.018-0.019-0.027-1.406-2.029-2.847-4.031-4.315-6.013-0.076-0.103-0.147-0.209-0.224-0.312-1e-3 1e-3 -3e-3 1e-3 -5e-3 2e-3 -27.148 11.487-62.664 20.53-103.46 25.942l-29.238 3.176c-3.082 0.264-6.186 0.507-9.312 0.73-16.364 1.169-33.317 1.783-50.686 1.783-14.02 0-27.762-0.406-41.148-1.176-8.421 10.201-16.035 21.088-22.699 32.604-0.222-0.02-0.441-0.043-0.663-0.063 0.215 0.02 0.426 0.042 0.641 0.062 20.379 1.865 41.786 2.859 63.869 2.859 88.129 0 165.5-15.825 209.64-39.674z"/><path d="m49.289 132.08c-0.457-0.189-0.917-0.377-1.369-0.567 0.452 0.19 0.912 0.378 1.369 0.567z"/><path d="m43.75 129.72c-0.061-0.027-0.123-0.054-0.183-0.081 0.06 0.028 0.122 0.054 0.183 0.081z"/><path d="m39.492 127.78c-0.415-0.195-0.823-0.392-1.234-0.589 0.41 0.197 0.818 0.394 1.234 0.589z"/><path d="m133.38 154.58c-0.541-0.089-1.083-0.177-1.622-0.267 0.539 0.09 1.081 0.178 1.622 0.267z"/><path d="m53.932 133.95c-0.474-0.184-0.941-0.371-1.41-0.557 0.469 0.186 0.936 0.373 1.41 0.557z"/><path d="m126.29 153.37c-0.743-0.132-1.48-0.268-2.219-0.402 0.738 0.135 1.475 0.27 2.219 0.402z"/><path d="m120.04 152.22c-0.729-0.139-1.46-0.277-2.185-0.419 0.725 0.142 1.455 0.28 2.185 0.419z"/><path d="m30.357 123.18c0.022 0.012 0.047 0.024 0.07 0.036-0.023-0.012-0.047-0.024-0.07-0.036z"/><path d="m106.23 149.38c-0.67-0.148-1.334-0.299-2-0.449 0.666 0.15 1.33 0.301 2 0.449z"/><path d="m93.429 146.36c-0.302-0.076-0.605-0.151-0.906-0.228 0.3 0.077 0.604 0.152 0.906 0.228z"/><path d="m100.33 148.04c-0.66-0.155-1.322-0.31-1.978-0.467 0.656 0.157 1.318 0.312 1.978 0.467z"/><path d="m112.8 150.78c-0.419-0.086-0.839-0.172-1.256-0.259 0.417 0.087 0.837 0.173 1.256 0.259z"/><path d="m87.419 144.79c-0.604-0.163-1.202-0.328-1.802-0.492 0.6 0.164 1.198 0.329 1.802 0.492z"/><path d="m140.89 155.76c-0.793-0.119-1.587-0.238-2.375-0.36 0.788 0.122 1.582 0.241 2.375 0.36z"/><path d="m58.762 135.78c-0.105-0.039-0.212-0.077-0.317-0.115 0.105 0.038 0.212 0.076 0.317 0.115z"/><path d="m64.836 137.93c-0.519-0.178-1.04-0.355-1.555-0.535 0.515 0.179 1.036 0.356 1.555 0.535z"/><path d="m69.944 139.63c-0.536-0.174-1.065-0.349-1.596-0.524 0.532 0.174 1.061 0.35 1.596 0.524z"/><path d="m81.888 143.26c-0.587-0.167-1.176-0.334-1.758-0.503 0.582 0.169 1.171 0.335 1.758 0.503z"/><path d="m75.363 141.34c-0.188-0.058-0.378-0.114-0.566-0.172 0.188 0.058 0.378 0.114 0.566 0.172z"/><path d="m35.35 125.77c-0.399-0.199-0.8-0.398-1.193-0.598 0.394 0.2 0.794 0.398 1.193 0.598z"/><path d="m37.808 110.77c0.377-0.59 0.751-1.182 1.134-1.769 2.653-4.079 5.404-8.089 8.301-11.987 0.011-0.014 0.02-0.029 0.03-0.043 1.313 0.555 2.65 1.103 4.002 1.646-1.333-0.536-2.651-1.076-3.946-1.624-0.019-8e-3 -0.038-0.015-0.057-0.023-6.193 8.331-11.827 17.095-16.916 26.207l6e-3 -9e-3c2.356-4.214 4.856-8.339 7.446-12.398z"/><path d="m162.76 158.63c-0.844-0.095-1.688-0.19-2.527-0.288 0.839 0.098 1.683 0.193 2.527 0.288z"/><path d="m147.45 156.71c-0.798-0.111-1.591-0.225-2.385-0.338 0.794 0.113 1.587 0.227 2.385 0.338z"/><path d="m169.61 159.36c-0.847-0.086-1.689-0.176-2.532-0.265 0.843 0.089 1.685 0.179 2.532 0.265z"/><path d="m154.98 157.7c-0.619-0.078-1.24-0.155-1.856-0.234 0.617 0.079 1.237 0.156 1.856 0.234z"/><path d="m105.27 114.88c-0.309-0.069-0.617-0.138-0.925-0.207 0.308 0.069 0.616 0.138 0.925 0.207z"/><path d="m64.269 103.45c-0.984-0.339-1.965-0.68-2.932-1.025 0.967 0.345 1.948 0.686 2.932 1.025z"/><path d="m70.024 105.38c-1.443-0.467-2.87-0.939-4.28-1.417 1.411 0.478 2.837 0.951 4.28 1.417z"/><path d="m59.684 101.83c-0.907-0.33-1.808-0.662-2.7-0.996 0.891 0.334 1.792 0.666 2.7 0.996z"/><path d="m87.969 110.65c-0.48-0.128-0.965-0.254-1.442-0.384 0.477 0.13 0.962 0.256 1.442 0.384z"/><path d="m55.398 100.24c-0.95-0.363-1.888-0.73-2.82-1.099 0.932 0.369 1.87 0.736 2.82 1.099z"/><path d="m100.47 113.79c-0.345-0.081-0.688-0.163-1.032-0.245 0.345 0.082 0.687 0.164 1.032 0.245z"/><path d="m74.54 106.8c-0.891-0.274-1.771-0.553-2.65-0.832 0.879 0.279 1.759 0.558 2.65 0.832z"/><path d="m79.125 108.18c-0.761-0.223-1.518-0.448-2.271-0.675 0.753 0.227 1.509 0.452 2.271 0.675z"/><path d="m83.724 109.49c-0.686-0.192-1.373-0.383-2.053-0.577 0.681 0.194 1.367 0.386 2.053 0.577z"/><path d="m109.52 115.81c-0.016-3e-3 -0.031-7e-3 -0.047-0.01 0.016 3e-3 0.031 7e-3 0.047 0.01z"/></g><path d="m182.53 6.972c-6.301 1.557-12.501 3.365-18.594 5.41-1.021 0.343-2.039 0.693-3.054 1.049-18.194 6.381-35.393 14.884-51.298 25.214 37.928 8.083 82.558 12.783 130.42 12.783 34.718 0 67.717-2.484 97.709-6.927 5.13-0.76 10.171-1.578 15.118-2.45 6.035-1.065 11.946-2.201 17.686-3.426-4.645-3.017-9.402-5.878-14.26-8.576l-0.33-0.183c-0.963-0.533-1.932-1.056-2.903-1.576-0.406-0.218-0.813-0.435-1.221-0.65-0.578-0.305-1.158-0.604-1.739-0.905-0.796-0.412-1.594-0.822-2.396-1.225-0.112-0.056-0.224-0.111-0.336-0.167-23.476-11.774-49.139-19.825-76.231-23.34-2e-3 0-3e-3 0-5e-3 -1e-3 -0.03-4e-3 -0.06-7e-3 -0.09-0.011-1.339-0.173-2.683-0.334-4.03-0.485-0.262-0.029-0.525-0.056-0.787-0.085-1.12-0.122-2.242-0.236-3.367-0.343-0.385-0.036-0.769-0.071-1.154-0.105-1.007-0.09-2.016-0.174-3.026-0.252-0.171-0.013-0.341-0.03-0.512-0.042-0.287-0.021-0.576-0.04-0.864-0.06-0.949-0.068-1.9-0.128-2.852-0.184-0.496-0.029-0.992-0.06-1.489-0.086-0.937-0.05-1.876-0.091-2.816-0.13-0.499-0.021-0.998-0.044-1.498-0.062-0.989-0.035-1.981-0.06-2.973-0.083-0.034-1e-3 -0.067-2e-3 -0.101-3e-3 -0.411-0.01-0.821-0.023-1.232-0.031-1.432-0.026-2.865-0.04-4.301-0.04-1.21 0-2.417 0.016-3.623 0.033-0.198 3e-3 -0.397 2e-3 -0.596 6e-3 -0.415 7e-3 -0.828 0.02-1.242 0.029-1.005 0.022-2.01 0.049-3.012 0.083-0.447 0.016-0.893 0.035-1.339 0.053-1.036 0.042-2.07 0.088-3.102 0.144-0.356 0.019-0.713 0.039-1.069 0.059-1.151 0.067-2.301 0.141-3.448 0.224-0.193 0.014-0.386 0.026-0.578 0.04-13.501 1.008-26.685 3.143-39.465 6.301z" fill="#d55a00"/><path d="m281.75 221.65 8.622 12.716c4.296 6.336-1.208 14.604-8.744 13.254-28.186-5.048-58.019-24.37-103.66-27.463l2e-3 7e-3c-8.749-0.775-17.3-1.718-25.646-2.803-4.863 18.025-7.721 36.873-8.234 56.311 0.021 3e-3 0.042 6e-3 0.063 9e-3 0 8e-3 0 0.016-1e-3 0.024 29.732 3.964 62.044 6.14 95.845 6.14 105.42 0 196.41-21.144 239.55-51.787 0.199 3.968 0.449 7.922 0.449 11.939 0-1.846-0.028-3.686-0.07-5.522-0.013-0.577-0.031-1.153-0.049-1.729-0.039-1.298-0.088-2.593-0.148-3.885-0.029-0.623-0.054-1.247-0.088-1.868-0.089-1.661-0.192-3.319-0.315-4.972-0.058-0.77-0.127-1.536-0.192-2.303-0.084-0.997-0.169-1.994-0.265-2.987-0.095-0.978-0.196-1.955-0.302-2.93-0.073-0.669-0.151-1.336-0.229-2.003-1.691-14.366-4.645-28.346-8.751-41.824-32.24 26.773-102.63 46.707-187.84 51.676z" fill="#ff9300"/><path d="m0.606 223.78c0.087-1.299 0.188-2.593 0.296-3.886 0.438-5.25 0.986-10.468 1.757-15.616 7e-3 -0.051 0.012-0.103 0.02-0.153 0.822-5.459 1.864-10.844 3.047-16.177 0.184-0.833 0.382-1.661 0.575-2.49 1.218-5.225 2.561-10.404 4.111-15.493 26.222 21.782 77.701 39.023 141.86 47.378 5.479-20.31 13.557-39.549 23.856-57.346-0.215-0.02-0.426-0.042-0.641-0.062-1.97-0.182-3.93-0.373-5.88-0.572-0.847-0.086-1.689-0.176-2.532-0.265-1.443-0.153-2.881-0.309-4.313-0.471-0.844-0.095-1.688-0.189-2.527-0.288-1.764-0.206-3.517-0.419-5.263-0.639-0.619-0.078-1.239-0.155-1.856-0.234-1.902-0.245-3.791-0.498-5.67-0.758-0.798-0.111-1.591-0.225-2.385-0.338-1.399-0.2-2.791-0.403-4.177-0.612-0.793-0.119-1.587-0.238-2.375-0.36-1.722-0.266-3.433-0.539-5.134-0.819-0.541-0.089-1.083-0.177-1.622-0.267-1.835-0.307-3.655-0.622-5.465-0.944-0.743-0.132-1.48-0.268-2.219-0.402-1.353-0.247-2.699-0.497-4.037-0.752-0.729-0.139-1.46-0.277-2.185-0.419-1.694-0.331-3.376-0.667-5.046-1.011-0.419-0.086-0.839-0.172-1.256-0.259-1.787-0.373-3.556-0.755-5.313-1.142-0.67-0.148-1.334-0.299-2-0.449-1.311-0.295-2.612-0.595-3.906-0.899-0.66-0.155-1.322-0.31-1.978-0.467-1.655-0.397-3.297-0.8-4.922-1.21-0.302-0.076-0.605-0.151-0.906-0.228-1.719-0.438-3.418-0.885-5.103-1.338-0.604-0.163-1.202-0.328-1.802-0.492-1.253-0.343-2.496-0.69-3.729-1.042-0.587-0.167-1.176-0.334-1.758-0.503-1.605-0.466-3.197-0.938-4.767-1.417-0.188-0.058-0.378-0.114-0.566-0.172-1.639-0.503-3.253-1.016-4.853-1.534-0.536-0.174-1.065-0.349-1.596-0.524-1.182-0.39-2.353-0.783-3.513-1.181-0.519-0.178-1.04-0.355-1.555-0.535-1.525-0.532-3.035-1.069-4.519-1.615-0.105-0.039-0.212-0.077-0.317-0.115-1.529-0.564-3.029-1.137-4.513-1.715-0.474-0.184-0.94-0.371-1.41-0.557-1.09-0.432-2.168-0.868-3.233-1.307-0.457-0.189-0.917-0.377-1.369-0.567-1.411-0.592-2.805-1.189-4.17-1.794-0.061-0.027-0.123-0.054-0.183-0.081-1.385-0.615-2.738-1.239-4.075-1.868-0.415-0.195-0.823-0.392-1.234-0.589-0.983-0.47-1.952-0.944-2.908-1.422-0.399-0.199-0.8-0.398-1.193-0.598-1.266-0.644-2.514-1.292-3.73-1.948-0.023-0.012-0.047-0.024-0.07-0.036 5.088-9.112 10.723-17.877 16.916-26.207 0.019 8e-3 0.038 0.016 0.057 0.023 0.954-1.278 1.906-2.558 2.883-3.818 0.372-0.479 0.75-0.954 1.124-1.43 2.528-3.212 5.134-6.359 7.819-9.437 0.346-0.396 0.685-0.798 1.033-1.192 9.11-10.306 19.098-19.814 29.835-28.428 0.62-0.497 1.249-0.981 1.874-1.472 2.957-2.324 5.971-4.577 9.037-6.763 0.718-0.512 1.432-1.029 2.156-1.533 3.379-2.353 6.817-4.626 10.32-6.807 0.314-0.196 0.62-0.405 0.935-0.599 3.971-2.447 8.018-4.786 12.138-7.004 0.172-0.093 0.352-0.176 0.524-0.268 3.718-1.989 7.504-3.867 11.336-5.663 1.039-0.486 2.091-0.946 3.137-1.418 3.06-1.381 6.153-2.699 9.279-3.954 1.219-0.489 2.438-0.976 3.667-1.445 2.133-0.815 4.287-1.584 6.45-2.336 1.015-0.356 2.033-0.707 3.054-1.049 0.099-0.033 0.198-0.069 0.297-0.102 1.013-0.337 2.013-0.702 3.032-1.026 4.337-1.378 8.719-2.656 13.159-3.791 0.359-0.092 0.727-0.16 1.086-0.25 0.338-0.085 0.681-0.157 1.021-0.241 12.78-3.158 25.964-5.293 39.464-6.301-0.231 0.017-0.463 0.032-0.694 0.05-1.748 0.135-3.489 0.292-5.225 0.464-0.43 0.042-0.859 0.087-1.288 0.132-1.731 0.181-3.458 0.375-5.178 0.592-0.246 0.031-0.49 0.066-0.735 0.098-1.537 0.199-3.069 0.415-4.597 0.643-0.446 0.067-0.893 0.132-1.338 0.201-1.63 0.253-3.254 0.522-4.873 0.807-0.485 0.085-0.968 0.176-1.452 0.264-1.374 0.251-2.745 0.513-4.111 0.787-0.382 0.077-0.766 0.149-1.147 0.227-1.552 0.32-3.097 0.66-4.638 1.01-0.59 0.134-1.179 0.269-1.767 0.407-1.488 0.349-2.971 0.708-4.448 1.085-0.573 0.146-1.143 0.301-1.714 0.451-1.071 0.282-2.138 0.571-3.203 0.867-0.65 0.181-1.302 0.359-1.95 0.546-1.359 0.39-2.712 0.794-4.061 1.208-0.746 0.229-1.49 0.464-2.232 0.699-0.878 0.279-1.754 0.564-2.628 0.853-1.181 0.39-2.357 0.789-3.53 1.197-0.752 0.261-1.503 0.524-2.251 0.793-0.862 0.309-1.722 0.621-2.579 0.94-0.653 0.243-1.303 0.494-1.954 0.742-1.446 0.552-2.885 1.117-4.317 1.696-0.466 0.189-0.932 0.379-1.396 0.571-1.93 0.795-3.848 1.613-5.753 2.456-0.07 0.031-0.141 0.061-0.212 0.093-1.069 0.475-2.134 0.958-3.195 1.448-0.087 0.04-0.174 0.082-0.261 0.122-2.103 0.974-4.189 1.978-6.258 3.01l-0.072 0.036c-70.809 35.359-121.68 104.68-131.28 186.63-0.079 0.671-0.157 1.342-0.23 2.015-0.105 0.973-0.208 1.946-0.302 2.923-0.096 0.998-0.182 1.999-0.266 3-0.064 0.763-0.134 1.524-0.191 2.288-0.123 1.654-0.226 3.314-0.315 4.977-0.033 0.622-0.059 1.246-0.088 1.869-0.06 1.292-0.109 2.587-0.147 3.885-0.017 0.576-0.036 1.151-0.049 1.729-0.043 1.836-0.071 3.676-0.071 5.523 0-5.457 0.246-10.854 0.606-16.219z" fill="#ff9300"/><g fill="#ff7400"><path d="m240 279.85c-33.801 0-66.114-2.177-95.845-6.14-0.055 2.096-0.155 4.182-0.155 6.292 0 13.463 1.22 26.629 3.352 39.488-61.537-8.544-110.93-25.295-136.58-46.354 25.634 21.069 74.95 37.861 136.48 46.406 28.657 3.98 59.956 6.175 92.75 6.175 113.37 0 208.94-26.179 238.82-61.955 0.769-7.818 1.18-15.74 1.18-23.759 0-4.017-0.25-7.971-0.446-11.939-43.147 30.641-134.13 51.786-239.55 51.786z"/><path d="m1.18 263.76c-6e-3 -0.063-9e-3 -0.126-0.015-0.189-0.375-3.842-0.667-7.708-0.863-11.601-0.194-3.966-0.302-7.955-0.302-11.97 0 8.019 0.411 15.942 1.18 23.76z"/><path d="m3.047 265.88c-0.644-0.702-1.271-1.406-1.864-2.115 0.593 0.709 1.221 1.414 1.864 2.115z"/><path d="m7.901 270.67c-0.782-0.703-1.54-1.41-2.269-2.122 0.729 0.712 1.487 1.419 2.269 2.122z"/><path d="m5.322 268.24c-0.604-0.597-1.188-1.198-1.755-1.801 0.566 0.603 1.151 1.204 1.755 1.801z"/><path d="m10.502 272.91c-0.771-0.638-1.519-1.281-2.247-1.927 0.727 0.646 1.476 1.288 2.247 1.927z"/></g><g fill="#ffedb9"><path d="m436.04 378.36c15.314-21.657 27.117-45.949 34.614-72.081-23.084 19.768-66.904 35.888-122.19 45.147l-31.322 4.361c-24.286 2.732-50.216 4.209-77.145 4.209-29.495 0-57.79-1.772-84.039-5.023 3.923 11.931 8.84 23.4 14.502 34.423-4.285-2.085-8.517-4.161-12.69-6.152 4.122 1.967 8.303 4.018 12.534 6.077 22.102 10.756 45.617 21.739 69.693 22.104 79.685 1.207 150.55-12.954 196.04-33.065z"/><path d="m143.78 376.91c-0.359-0.151-0.717-0.299-1.074-0.447 0.357 0.148 0.715 0.296 1.074 0.447z"/><path d="m141.88 376.12c-0.346-0.141-0.691-0.28-1.036-0.418 0.345 0.138 0.69 0.276 1.036 0.418z"/><path d="m138.12 374.64c-0.328-0.125-0.654-0.246-0.981-0.368 0.327 0.122 0.653 0.243 0.981 0.368z"/><path d="m145.7 377.73c-0.375-0.162-0.75-0.321-1.124-0.48 0.374 0.158 0.748 0.318 1.124 0.48z"/><path d="m140 375.37c-0.337-0.133-0.673-0.263-1.008-0.393 0.336 0.131 0.671 0.261 1.008 0.393z"/><path d="m147.63 378.57c-0.392-0.173-0.784-0.344-1.175-0.514 0.392 0.17 0.783 0.341 1.175 0.514z"/><path d="m151.53 380.32c-0.432-0.198-0.863-0.394-1.294-0.589 0.431 0.195 0.862 0.391 1.294 0.589z"/><path d="m149.56 379.43c-0.41-0.185-0.819-0.367-1.228-0.549 0.409 0.182 0.818 0.364 1.228 0.549z"/><path d="m125.34 370.56c-0.303-0.075-0.604-0.144-0.906-0.216 0.302 0.072 0.603 0.141 0.906 0.216z"/><path d="m123.56 370.13c-0.306-0.069-0.61-0.131-0.915-0.195 0.305 0.064 0.609 0.126 0.915 0.195z"/><path d="m127.13 371.02c-0.299-0.081-0.596-0.156-0.893-0.234 0.298 0.078 0.595 0.154 0.893 0.234z"/><path d="m153.52 381.24c-0.472-0.22-0.943-0.437-1.413-0.654 0.47 0.217 0.941 0.434 1.413 0.654z"/><path d="m128.93 371.53c-0.301-0.088-0.6-0.171-0.899-0.255 0.299 0.084 0.599 0.167 0.899 0.255z"/><path d="m134.41 373.29c-0.313-0.109-0.624-0.214-0.936-0.32 0.312 0.106 0.624 0.211 0.936 0.32z"/><path d="m136.26 373.95c-0.32-0.117-0.64-0.23-0.959-0.344 0.319 0.114 0.639 0.227 0.959 0.344z"/><path d="m130.75 372.08c-0.307-0.096-0.612-0.187-0.918-0.279 0.306 0.092 0.612 0.183 0.918 0.279z"/><path d="m132.57 372.66c-0.31-0.103-0.619-0.201-0.928-0.3 0.309 0.099 0.617 0.197 0.928 0.3z"/><path d="m105.77 371c1.1-1.553 2.891-2.488 5.655-2.434 0.565 0.011 1.132 0.032 1.7 0.063-0.569-0.03-1.135-0.052-1.7-0.063-2.763-0.054-4.554 0.881-5.655 2.434z"/><path d="m105.97 386.49c0.271 0.94 0.56 1.865 0.858 2.761-0.298-0.896-0.588-1.821-0.858-2.761z"/><path d="m14.426 310.34c0.084 0.062 0.165 0.125 0.249 0.187-0.084-0.062-0.165-0.125-0.249-0.187z"/><path d="m17.344 312.43c0.121 0.084 0.244 0.167 0.366 0.25-0.121-0.083-0.245-0.166-0.366-0.25z"/><path d="m110.35 398.18c0.149 0.325 0.257 0.554 0.312 0.67-0.055-0.116-0.163-0.345-0.312-0.67z"/><path d="m11.648 308.2c0.192 0.153 0.386 0.306 0.58 0.459-0.194-0.153-0.388-0.306-0.58-0.459z"/><path d="m9.352 306.3c7.501 26.137 19.309 50.433 34.63 72.092 11.966 5.287 25.682 10.078 40.849 14.271-15.167-4.193-28.883-8.985-40.849-14.272-15.32-21.658-27.129-45.954-34.63-72.091z"/><path d="m20.401 314.48c0.046 0.03 0.09 0.059 0.135 0.089-0.045-0.03-0.09-0.059-0.135-0.089z"/><path d="m121.79 369.76c-0.311-0.062-0.62-0.117-0.93-0.175 0.31 0.057 0.619 0.113 0.93 0.175z"/><path d="m105.3 383.92c0.204 0.859 0.429 1.718 0.673 2.565-0.244-0.847-0.469-1.705-0.673-2.565z"/><path d="m155.53 382.18c-0.514-0.243-1.028-0.483-1.54-0.722 0.513 0.239 1.026 0.479 1.54 0.722z"/><path d="m120.04 369.43c-0.316-0.055-0.631-0.102-0.946-0.152 0.315 0.05 0.629 0.097 0.946 0.152z"/><path d="m157.56 383.15c-0.559-0.266-1.116-0.531-1.673-0.794 0.557 0.263 1.114 0.527 1.673 0.794z"/><path d="m118.29 369.15c-0.325-0.047-0.647-0.086-0.971-0.128 0.323 0.041 0.646 0.08 0.971 0.128z"/><path d="m116.56 368.93c-0.355-0.041-0.708-0.073-1.061-0.108 0.354 0.034 0.706 0.066 1.061 0.108z"/><path d="m105.35 371.7c-0.272 0.517-0.491 1.079-0.65 1.692 0.158-0.612 0.378-1.175 0.65-1.692z"/><path d="m114.84 368.75c-0.413-0.035-0.824-0.061-1.235-0.086 0.41 0.025 0.821 0.051 1.235 0.086z"/></g><g fill="#ff7400"><path d="m251.46 479.72c0.769-0.036 1.536-0.08 2.303-0.123 1.125-0.064 2.249-0.134 3.37-0.214 0.822-0.058 1.643-0.118 2.463-0.185 1.054-0.085 2.104-0.181 3.154-0.28 0.858-0.081 1.716-0.158 2.571-0.248 0.982-0.103 1.959-0.221 2.938-0.336 3.862-0.454 7.696-0.997 11.499-1.633 0.501-0.084 1.004-0.162 1.505-0.249 1.298-0.225 2.59-0.466 3.881-0.712 0.43-0.082 0.861-0.163 1.291-0.247 1.375-0.27 2.747-0.551 4.114-0.845 0.26-0.056 0.52-0.113 0.779-0.17 35.915-7.845 68.818-23.743 96.751-45.683-41.374 10.607-92.563 16.917-148.08 16.917-10.172 0-20.197-0.214-30.044-0.625 12.254 12.911 25.871 24.517 40.716 34.455-3.558 0.158-7.077 0.457-10.673 0.457 1.922 0 3.837-0.028 5.748-0.073 0.644-0.015 1.285-0.042 1.928-0.062 1.264-0.04 2.526-0.084 3.785-0.144z"/><path d="m221.2 479.2c-1.052-0.082-2.109-0.145-3.157-0.24-5.991-0.545-11.918-1.312-17.773-2.291-0.97-0.162-1.932-0.344-2.897-0.518-12.471-2.243-24.615-5.417-36.335-9.509-0.373-0.129-0.751-0.248-1.123-0.38-5.923-2.101-11.737-4.433-17.437-6.976-0.362-0.161-0.722-0.327-1.083-0.49-11-4.974-21.563-10.748-31.61-17.249 23.747 15.386 50.369 26.706 78.897 32.937 0.254 0.055 0.507 0.111 0.762 0.166 1.372 0.295 2.748 0.577 4.128 0.848 0.424 0.083 0.848 0.163 1.273 0.244 1.295 0.247 2.593 0.488 3.895 0.715 0.495 0.086 0.993 0.164 1.489 0.247 3.813 0.638 7.656 1.181 11.527 1.636 0.972 0.114 1.943 0.231 2.918 0.334 0.859 0.09 1.721 0.168 2.583 0.249 1.046 0.099 2.093 0.194 3.143 0.279 0.821 0.066 1.644 0.127 2.468 0.185 1.121 0.079 2.244 0.15 3.369 0.214 0.767 0.043 1.534 0.087 2.303 0.123 1.259 0.059 2.521 0.104 3.785 0.144 0.643 0.02 1.284 0.047 1.928 0.062 1.911 0.045 3.826 0.073 5.749 0.073-6.335 0-12.592-0.321-18.802-0.803z"/><path d="m98.697 430.47c-0.304-0.073-0.606-0.146-0.91-0.219 0.304 0.073 0.606 0.146 0.91 0.219z"/><path d="m104.9 431.9c-7e-3 -1e-3 -0.013-3e-3 -0.02-4e-3 7e-3 1e-3 0.014 3e-3 0.02 4e-3z"/><polygon points="91.924 428.8 91.92 428.8"/><path d="m98.265 433.6c3.612 2.65 7.3 5.2 11.061 7.649-3.763-2.447-7.449-5.001-11.061-7.649z"/><path d="m91.926 428.8c1.697 1.333 3.418 2.635 5.151 3.922-1.733-1.287-3.454-2.59-5.151-3.922z"/><path d="m144.09 273.67c0.513-19.438 3.371-38.285 8.234-56.311l3e-3 -0.012c-0.018-2e-3 -0.036-5e-3 -0.053-7e-3 -64.163-8.355-115.64-25.597-141.86-47.378-1.55 5.089-2.893 10.267-4.111 15.493-0.193 0.83-0.391 1.657-0.575 2.49-1.183 5.333-2.225 10.718-3.047 16.177-7e-3 0.051-0.012 0.103-0.02 0.153-0.771 5.148-1.319 10.367-1.757 15.616-0.107 1.293-0.209 2.587-0.296 3.886-0.36 5.365-0.606 10.762-0.606 16.219 0-4.017 0.25-7.971 0.447-11.938 29.299 20.806 80.689 37.21 143.64 45.612z"/></g><path d="m1.166 263.57c6e-3 0.063 8e-3 0.126 0.015 0.189 1e-3 1e-3 2e-3 2e-3 3e-3 4e-3 0.593 0.709 1.22 1.413 1.864 2.115 0.171 0.186 0.345 0.371 0.519 0.557 0.567 0.603 1.151 1.204 1.755 1.801 0.104 0.103 0.204 0.207 0.31 0.311 0.729 0.712 1.487 1.419 2.269 2.122 0.116 0.105 0.237 0.209 0.355 0.313 0.728 0.646 1.475 1.289 2.247 1.927 0.09 0.075 0.178 0.15 0.27 0.224 25.655 21.06 75.044 37.81 136.58 46.354-2.134-12.859-3.354-26.025-3.354-39.488 0-2.11 0.1-4.196 0.155-6.292 0-8e-3 0-0.016 1e-3 -0.024-0.021-3e-3 -0.042-6e-3 -0.063-9e-3 -62.955-8.402-114.35-24.806-143.64-45.613-0.198 3.967-0.448 7.921-0.448 11.938 0 4.015 0.108 8.004 0.303 11.97 0.195 3.892 0.488 7.758 0.863 11.601z" fill="#d55a00"/><path d="m176.15 160c6.664-11.516 14.278-22.403 22.699-32.604 2e-3 -3e-3 4e-3 -6e-3 7e-3 -8e-3 -0.01-1e-3 -0.021-1e-3 -0.031-2e-3 -32.302-1.859-62.495-5.863-89.304-11.574-0.016-3e-3 -0.031-7e-3 -0.047-0.01-1.413-0.301-2.814-0.609-4.208-0.919-0.309-0.069-0.617-0.138-0.925-0.207-1.299-0.292-2.591-0.588-3.872-0.889-0.345-0.081-0.688-0.163-1.032-0.245-3.907-0.925-7.73-1.889-11.472-2.888-0.48-0.128-0.965-0.254-1.442-0.384-0.942-0.255-1.872-0.515-2.803-0.775-0.687-0.191-1.372-0.383-2.053-0.577-0.854-0.244-1.702-0.49-2.547-0.738-0.761-0.223-1.517-0.448-2.271-0.675-0.774-0.232-1.548-0.465-2.314-0.701-0.891-0.274-1.771-0.553-2.65-0.832-0.622-0.197-1.25-0.391-1.865-0.591-1.443-0.467-2.869-0.939-4.28-1.417-0.497-0.168-0.983-0.341-1.476-0.51-0.984-0.339-1.965-0.68-2.932-1.025-0.555-0.198-1.103-0.398-1.653-0.598-0.907-0.33-1.808-0.662-2.7-0.996-0.531-0.199-1.06-0.398-1.585-0.599-0.95-0.363-1.888-0.73-2.82-1.099-0.434-0.172-0.872-0.342-1.302-0.515-1.352-0.543-2.689-1.091-4.002-1.646-0.011 0.014-0.02 0.029-0.03 0.043-2.897 3.898-5.648 7.908-8.301 11.987-0.383 0.586-0.756 1.179-1.134 1.769-2.59 4.06-5.09 8.184-7.445 12.399l-6e-3 9e-3c0.023 0.012 0.047 0.024 0.07 0.037 1.216 0.656 2.464 1.304 3.73 1.948 0.394 0.2 0.795 0.399 1.193 0.598 0.956 0.477 1.925 0.951 2.908 1.422 0.411 0.197 0.819 0.394 1.234 0.589 1.337 0.629 2.69 1.252 4.075 1.868 0.061 0.027 0.123 0.053 0.183 0.081 1.365 0.605 2.759 1.202 4.17 1.794 0.453 0.19 0.912 0.378 1.369 0.567 1.065 0.439 2.143 0.875 3.233 1.307 0.469 0.186 0.936 0.372 1.41 0.557 1.484 0.578 2.984 1.151 4.513 1.715 0.105 0.039 0.212 0.077 0.317 0.115 1.485 0.546 2.994 1.083 4.519 1.615 0.515 0.18 1.036 0.357 1.555 0.535 1.16 0.397 2.331 0.791 3.513 1.181 0.531 0.175 1.06 0.351 1.596 0.524 1.6 0.518 3.214 1.031 4.853 1.534 0.188 0.058 0.378 0.114 0.566 0.172 1.571 0.479 3.162 0.951 4.767 1.417 0.583 0.169 1.171 0.336 1.758 0.503 1.233 0.351 2.476 0.698 3.729 1.042 0.6 0.164 1.198 0.329 1.802 0.492 1.685 0.453 3.384 0.9 5.103 1.338 0.301 0.077 0.604 0.152 0.906 0.228 1.625 0.41 3.267 0.813 4.922 1.21 0.656 0.157 1.317 0.312 1.978 0.467 1.293 0.304 2.595 0.603 3.906 0.899 0.666 0.15 1.33 0.301 2 0.449 1.757 0.388 3.527 0.77 5.313 1.142 0.417 0.087 0.838 0.173 1.256 0.259 1.669 0.344 3.352 0.681 5.046 1.011 0.725 0.142 1.456 0.28 2.185 0.419 1.338 0.255 2.684 0.506 4.037 0.752 0.739 0.135 1.476 0.27 2.219 0.402 1.809 0.322 3.63 0.637 5.465 0.944 0.539 0.09 1.081 0.178 1.622 0.267 1.701 0.279 3.412 0.552 5.134 0.819 0.789 0.122 1.583 0.24 2.375 0.36 1.386 0.208 2.778 0.412 4.177 0.612 0.794 0.113 1.587 0.228 2.385 0.338 1.879 0.26 3.768 0.513 5.67 0.758 0.617 0.079 1.237 0.156 1.856 0.234 1.745 0.219 3.499 0.432 5.263 0.639 0.839 0.098 1.684 0.193 2.527 0.288 1.432 0.162 2.87 0.318 4.313 0.471 0.843 0.089 1.685 0.179 2.532 0.265 1.95 0.198 3.91 0.389 5.88 0.572 0.222 0.018 0.441 0.04 0.663 0.061z" fill="#ffd042"/><path d="m250.67 479.54c-14.845-9.939-28.462-21.544-40.716-34.455-0.023-0.025-0.048-0.048-0.071-0.073-0.042-2e-3 -0.083-4e-3 -0.124-6e-3 -38.315-1.614-73.961-6.195-104.86-13.105-7e-3 -1e-3 -0.013-3e-3 -0.02-4e-3 -2.082-0.466-4.139-0.944-6.178-1.43-0.304-0.073-0.606-0.146-0.91-0.219-1.974-0.476-3.932-0.958-5.863-1.453-1e-3 0-3e-3 -1e-3 -4e-3 -1e-3 2e-3 1e-3 4e-3 3e-3 6e-3 4e-3 1.697 1.333 3.418 2.635 5.151 3.922 0.395 0.293 0.791 0.585 1.188 0.876 3.613 2.648 7.299 5.203 11.061 7.649 0.153 0.099 0.305 0.198 0.458 0.297 10.048 6.501 20.61 12.275 31.61 17.249 0.361 0.163 0.72 0.329 1.083 0.49 5.699 2.543 11.513 4.875 17.437 6.976 0.372 0.132 0.75 0.25 1.123 0.38 11.721 4.092 23.865 7.266 36.335 9.509 0.965 0.173 1.927 0.356 2.897 0.518 5.855 0.979 11.782 1.745 17.773 2.291 1.048 0.095 2.104 0.158 3.157 0.24 6.208 0.48 12.465 0.801 18.8 0.801 3.596 0 7.115-0.299 10.672-0.456z" fill="#d55a00"/><path d="m168 416c0.5-11.5-6.333-18.333-16-24-12.208-7.156-33.5-12-32 0s47.5 35.5 48 24z" fill="#ffd042"/><ellipse cx="252" cy="216" rx="12" ry="8" fill="#ff9300"/></g><ellipse cx="67.686" cy="182.26" rx="13.951" ry="8.8222" fill="#efecf9" stroke-width=".465"/></g></svg>
