<?xml version="1.0" encoding="UTF-8"?><svg id="a" xmlns="http://www.w3.org/2000/svg" viewBox="0 0 45.35 45.35"><defs><style>.f{fill:#00aeef;}.g{fill:#fff;}</style></defs><g id="b"/><g><g><path class="f" d="M42.39,13.5c-2.59-.1-2.66-2.67-5.63-2.58-2.98-.09-3.04,2.48-5.63,2.58-3.34-.68-4.91-4.89-8.92-1.11-3.92,4.04-6.52-4.98-11.26,0-3.34,3.96-6.61-3.88-8.67-.78,0,.38,.31,.69,.69,.69,2.59,.11,2.66,2.67,5.63,2.58,2.98,.09,3.04-2.48,5.63-2.58,2.59,.1,2.66,2.67,5.63,2.58,2.97,.09,3.04-2.48,5.63-2.58,2.59,.1,2.66,2.67,5.63,2.58,2.97,.09,3.04-2.48,5.63-2.58,2.59,.1,2.66,2.67,5.63,2.58,.89,.01,.91-1.4,0-1.38"/><path class="g" d="M42.39,17.16c-3.18,.06-4.09-1.85-5.63-2.58-2.78,2.62-7.44,3.85-10.45,.51-1.38-1.75-2.79,2.47-6.45,2.07-3.17,.06-4.09-1.85-5.63-2.58-4.15,3.44-7.1,3.47-11.27,0-7.06-1.95-.46-9.56,4.82-3.85,1.35,1.75,2.82-2.47,6.45-2.07,3.18-.06,4.09,1.85,5.63,2.58,2.76-2.61,7.45-3.86,10.45-.51,1.43,1.74,2.74-2.46,6.45-2.07,3.18-.06,4.09,1.85,5.63,2.58,3.83-.05,3.85,5.97,0,5.92Z"/></g><g><path class="f" d="M42.39,20.02c-1.14,0-1.67-.49-2.35-1.11-4.77-4.98-7.34,4.04-11.27,0-4.01-3.78-5.57,.43-8.92,1.11-1.68,.35-2.25-2.09-3.59-1.29-.46,1.52,1.78,2.55,3.58,2.67,3.3-.04,4.99-4.74,7.98-1.47,4.01,3.78,5.57-.43,8.92-1.11,2.59,.11,2.66,2.67,5.63,2.58,.89,.01,.9-1.4,0-1.38"/><path class="g" d="M42.39,23.67c-3.18,.06-4.09-1.85-5.63-2.58-1.55,.73-2.46,2.64-5.63,2.58-3.18,.06-4.09-1.85-5.63-2.58-1.55,.73-2.46,2.64-5.63,2.58-8.27-.16-7.19-10.41-.88-6.5,1.45,1.9,2.75-2.38,6.52-2,3.17-.06,4.09,1.85,5.63,2.58,2.75-2.61,7.46-3.85,10.45-.51,.56,.51,.57,.51,.82,.51,3.83-.05,3.85,5.98,0,5.92Zm-24.56-5.66l.03,.02-.03-.02Z"/></g><g><path class="f" d="M15.21,17.54c-3.22-.9-3.97,2.3-6.62,2.48-2.17,.29-4.36-4.43-6.33-1.89,0,.38,.31,.69,.69,.69,3.34,.68,4.91,4.89,8.92,1.11,.73-.78,1.82-1.34,3.03-1.04,.87,.21,1.18-1.17,.3-1.35"/><path class="g" d="M8.6,23.67c-3.17,.06-4.09-1.85-5.63-2.58-6.51-1.42-1.56-10.13,5.63-3.34,8.33-7.52,13.42,3.4,5.63,3.34-1.55,.73-2.46,2.64-5.63,2.58Z"/></g><g><path class="f" d="M42.39,33.05c-2.59-.1-2.66-2.67-5.63-2.58-2.97-.09-3.04,2.48-5.63,2.58-3.34-.68-4.91-4.89-8.92-1.11-3.92,4.04-6.51-4.98-11.27,0-.68,.62-1.21,1.11-2.35,1.11-.38,0-.69,.31-.69,.69,1.97,2.54,4.15-2.18,6.32-1.89,2.59,.1,2.66,2.67,5.63,2.58,2.97,.09,3.04-2.48,5.63-2.58,2.59,.1,2.66,2.67,5.63,2.58,2.97,.09,3.04-2.48,5.63-2.58,2.59,.1,2.66,2.67,5.63,2.58,.89,.01,.91-1.4,0-1.38"/><path class="g" d="M42.39,36.7c-3.18,.06-4.09-1.85-5.63-2.58-1.55,.73-2.46,2.64-5.63,2.58-3.18,.06-4.09-1.85-5.63-2.58-1.55,.73-2.46,2.64-5.63,2.58-3.67,.4-5.06-3.82-6.45-2.07-5.23,5.69-11.9-1.88-4.82-3.85,.25,0,.26,0,.81-.51,3.04-3.35,7.67-2.1,10.45,.51,2.76-2.62,7.45-3.86,10.45-.51,.97,.75,.66,.75,1.63,0,1.55-2.56,8.09-2.57,9.64,0,.56,.51,.57,.51,.81,.51,3.83-.05,3.85,5.98,0,5.92Z"/></g><g><path class="f" d="M6.98,32.55c-.9-.72-3.57-3.43-4.71-1.4,0,.38,.31,.69,.69,.69,1.14,0,1.67,.49,2.35,1.11,.56,1.09,2.73,1.02,1.66-.4"/><path class="g" d="M6.58,36.08c-1.43,.22-2.64-1.66-3.61-1.96-1.63,0-2.96-1.33-2.96-2.96,1.48-8.32,15.64,2.97,6.58,4.92Zm-.91-1.68h0Z"/></g><g><path class="f" d="M42.39,26.53c-2.59-.11-2.66-2.67-5.63-2.58-1.71,.1-3.88,1.02-3.33,2.45,1.23,.77,1.78-1.39,3.33-1.07,2.59,.1,2.66,2.67,5.63,2.58,.9,.01,.9-1.4,0-1.38"/><path class="g" d="M42.39,30.19c-3.18,.06-4.09-1.85-5.63-2.58-2,1.91-5.74,1.68-5.78-1.8,.18-4.42,8.52-5.23,10.59-2.05,.56,.51,.57,.51,.82,.51,3.84-.05,3.84,5.98,0,5.92Zm-7.38-3.09h0Zm-2.14-2.32h0Z"/></g><g><path class="f" d="M32.73,26.94c-.23-.79-1-.4-1.61-.41-1.14,0-1.67-.49-2.35-1.11-4.77-4.98-7.34,4.04-11.27,0-4.75-4.98-7.35,4.03-11.27,0-.51-.57-3.31-2.58-3.98-.78,0,.38,.31,.69,.69,.69,1.14,0,1.67,.49,2.35,1.11,4.77,4.98,7.33-4.04,11.27,0,4.02,3.78,5.57-.42,8.92-1.11,2.59,.11,2.66,2.67,5.63,2.58,.68,0,1.78-.06,1.6-.97"/><path class="g" d="M31.13,30.19c-3.18,.06-4.09-1.85-5.63-2.58-2.77,2.61-7.44,3.86-10.45,.51-1.41-1.75-2.76,2.46-6.45,2.07-3.17,.06-4.09-1.85-5.63-2.58-1.63,0-2.96-1.33-2.96-2.96,.67-5.42,6.85-2.02,8.59-.38,2.77-2.62,7.44-3.85,10.45-.51,1.4,1.74,2.77-2.46,6.45-2.07,3.17-.06,4.09,1.85,5.63,2.58,5.01-1.14,5.01,6.63,0,5.92Zm1.33-1.54h0Z"/></g><path class="f" d="M42.39,13.5c-2.59-.1-2.66-2.67-5.63-2.58-2.98-.09-3.04,2.48-5.63,2.58-3.34-.68-4.91-4.89-8.92-1.11-3.92,4.04-6.52-4.98-11.26,0-3.34,3.96-6.61-3.88-8.67-.78,0,.38,.31,.69,.69,.69,2.59,.11,2.66,2.67,5.63,2.58,2.98,.09,3.04-2.48,5.63-2.58,2.59,.1,2.66,2.67,5.63,2.58,2.97,.09,3.04-2.48,5.63-2.58,2.59,.1,2.66,2.67,5.63,2.58,2.97,.09,3.04-2.48,5.63-2.58,2.59,.1,2.66,2.67,5.63,2.58,.89,.01,.91-1.4,0-1.38"/><path class="f" d="M42.39,20.02c-1.14,0-1.67-.49-2.35-1.11-4.77-4.98-7.34,4.04-11.27,0-4.01-3.78-5.57,.43-8.92,1.11-1.68,.35-2.25-2.09-3.59-1.29-.46,1.52,1.78,2.55,3.58,2.67,3.3-.04,4.99-4.74,7.98-1.47,4.01,3.78,5.57-.43,8.92-1.11,2.59,.11,2.66,2.67,5.63,2.58,.89,.01,.9-1.4,0-1.38"/><path class="f" d="M15.21,17.54c-3.22-.9-3.97,2.3-6.62,2.48-2.17,.29-4.36-4.43-6.33-1.89,0,.38,.31,.69,.69,.69,3.34,.68,4.91,4.89,8.92,1.11,.73-.78,1.82-1.34,3.03-1.04,.87,.21,1.18-1.17,.3-1.35"/><path class="f" d="M42.39,33.05c-2.59-.1-2.66-2.67-5.63-2.58-2.97-.09-3.04,2.48-5.63,2.58-3.34-.68-4.91-4.89-8.92-1.11-3.92,4.04-6.51-4.98-11.27,0-.68,.62-1.21,1.11-2.35,1.11-.38,0-.69,.31-.69,.69,1.97,2.54,4.15-2.18,6.32-1.89,2.59,.1,2.66,2.67,5.63,2.58,2.97,.09,3.04-2.48,5.63-2.58,2.59,.1,2.66,2.67,5.63,2.58,2.97,.09,3.04-2.48,5.63-2.58,2.59,.1,2.66,2.67,5.63,2.58,.89,.01,.91-1.4,0-1.38"/><path class="f" d="M6.98,32.55c-.9-.72-3.57-3.43-4.71-1.4,0,.38,.31,.69,.69,.69,1.14,0,1.67,.49,2.35,1.11,.56,1.09,2.73,1.02,1.66-.4"/><path class="f" d="M42.39,26.53c-2.59-.11-2.66-2.67-5.63-2.58-1.71,.1-3.88,1.02-3.33,2.45,1.23,.77,1.78-1.39,3.33-1.07,2.59,.1,2.66,2.67,5.63,2.58,.9,.01,.9-1.4,0-1.38"/><path class="f" d="M32.73,26.94c-.23-.79-1-.4-1.61-.41-1.14,0-1.67-.49-2.35-1.11-4.77-4.98-7.34,4.04-11.27,0-4.75-4.98-7.35,4.03-11.27,0-.51-.57-3.31-2.58-3.98-.78,0,.38,.31,.69,.69,.69,1.14,0,1.67,.49,2.35,1.11,4.77,4.98,7.33-4.04,11.27,0,4.02,3.78,5.57-.42,8.92-1.11,2.59,.11,2.66,2.67,5.63,2.58,.68,0,1.78-.06,1.6-.97"/></g><g id="c"><g id="d"><g id="e"/></g></g></svg>