<?xml version="1.0" encoding="UTF-8"?><svg id="a" xmlns="http://www.w3.org/2000/svg" viewBox="0 0 45.35 45.35"><defs><style>.f{fill:#fff;}.g{fill:#231f20;}.h{fill:#2b3990;}</style></defs><g id="b"/><g><g><path class="h" d="M42.86,40.45c0,1.33-1.08,2.42-2.42,2.42H4.91c-1.33,0-2.42-1.08-2.42-2.42V4.91c0-1.33,1.08-2.42,2.42-2.42,49.2,1.7,36.24-11.2,37.95,37.95Z"/><path class="f" d="M40.44,45.35H4.91c-2.71,0-4.91-2.2-4.91-4.91V4.91C0,2.2,2.2,0,4.91,0H40.44C43.15,0,45.35,2.2,45.35,4.91V40.45c0,2.71-2.2,4.91-4.91,4.91Zm-.07-40.44l-35.46,.08,.08,35.46,35.39-.08V4.91Z"/></g><path class="g" d="M42.86,40.45c0,1.33-1.08,2.42-2.42,2.42H4.91c-1.33,0-2.42-1.08-2.42-2.42V4.91c0-1.33,1.08-2.42,2.42-2.42,49.2,1.7,36.24-11.2,37.95,37.95Z"/><path class="f" d="M38.17,6.41c-.57,0-1.03,.46-1.03,1.03,.19,9.4-4.13,10.15-10.49,9.64-.41-4.19-.68-8.04-3.37-8.15-1.25-.71-2.82-.48-3.84,.53-.99,.68-2.42-.06-3.14,.85-.35,.75-.3,1.4,.11,1.59,.73-.46,1.87-.36,2.93,.23-4.97,1.18,.24,1.28,1.5,1.56-.97,1.38-1.46,2.58-1.71,3.38-6.5,.46-11.13,.03-10.91-9.64,.02-1.33-2.09-1.34-2.07,0V31.44c2.58,4.98,.95-16.8,1.38-16.4,.31,.64,.65,1.18,1.03,1.65,.31,.34-.76,14.5,.69,13.72,1.43,.67,.39-12.09,.69-12.44,.33,.23,.68,.42,1.03,.57v9.8c2.32,4.01,1.1-9.19,1.38-9.36,.35,.07,.69,.12,1.04,.14,.28,.55-.71,8.86,.69,8.53,1.4,.36,.41-7.99,.69-8.5h1.03c.26,.59-.68,7.38,.69,7.12,1.37,.28,.43-6.57,.69-7.12h1.51c-.3,2.18-.07,4.98,.55,6.85-.61,.97-5.28,4.18-4.43,5.63l-2.66,2.66c-.36-.35-1.05-3.05-1.88-2.55-.89,.37,.89,2.53,.96,3.02-.44,.23-3.22,.06-3,1,.08,.96,2.68-.06,3.16,.02,.09,.49-.94,3.08,.02,3.17,.94,.23,.77-2.58,1-3,.5,.07,2.64,1.85,3.02,.96,.51-.82-2.21-1.53-2.55-1.88l2.66-2.66c1.38,.84,4.08-3.21,4.99-3.78,.2,.25,.41,.47,.63,.65-.68,1.38-4.07,4.88,.15,3.86,.84,4.91,1.93,4.89,2.77,0,4.21,1.03,.82-2.49,.15-3.86,.22-.18,.43-.4,.63-.65,.94,.58,3.6,4.61,4.99,3.78l2.66,2.66c-.35,.36-3.05,1.05-2.55,1.88,.37,.89,2.53-.89,3.02-.96,.23,.44,.06,3.23,1,3,.96-.07-.06-2.68,.02-3.16,.49-.09,3.08,.94,3.17-.02,.23-.94-2.57-.77-3-1,.07-.49,1.85-2.64,.96-3.02-.82-.51-1.53,2.21-1.88,2.55l-2.66-2.66c.86-1.44-3.83-4.67-4.43-5.63,.68-2.28,.74-3.95,.63-6.85h1.43c.26,.59-.68,7.38,.69,7.13,1.37,.28,.43-6.57,.69-7.13h1.03c.28,.55-.71,8.83,.69,8.5,1.4,.36,.41-8.02,.69-8.53,.34-.03,.69-.07,1.04-.14,.28,.2-.94,13.35,1.38,9.36v-9.8c.35-.15,.7-.35,1.03-.58,.3,.41-.75,13.07,.69,12.44,1.44,.84,.39-13.45,.69-13.72,.38-.46,.73-1.01,1.03-1.65V31.44c0,.38,.31,.69,.69,.69s.69-.31,.69-.69V7.44c0-.57-.46-1.03-1.03-1.03"/></g><g id="c"><g id="d"><g id="e"/></g></g></svg>