<?xml version="1.0" encoding="UTF-8"?>
<svg width="99.966mm" height="99.966mm" version="1.1" viewBox="0 0 99.966 99.966" xmlns="http://www.w3.org/2000/svg"><g transform="translate(-57.301 -92.341)"><circle cx="107.28" cy="142.32" r="48.483" fill="#fff" stroke="#fff" stroke-width="3"/><g transform="matrix(.12895 -.022737 .022737 .12895 70.56 116.73)"><path d="m386.08 250.85c-1.171-36.599-15.705-72.849-43.642-100.78-27.762-27.762-63.733-42.296-100.1-43.622-80.348-66.325-155.85-106.44-200.69-106.44-12.866 0-23.204 3.304-30.407 10.239-30.588 29.451 4.236 115.9 79.855 212.84-10.73 48.198 2.645 100.68 40.146 138.18 37.613 37.613 90.293 50.959 138.6 40.055 71.918 55.699 137.88 88.756 178.57 88.756 12.867 0 23.203-3.303 30.406-10.238 32.278-31.083-8.283-125.62-92.75-228.98zm-8.05 131.16c-5.224 5.029-14.669 11.024-30.004 11.024-10.477 0-22.563-2.777-36.123-8.238-11.704-4.715-24.503-11.422-38.354-20.147-28.026-17.655-57.805-42.017-86.117-70.45-28.185-28.305-52.256-57.979-69.611-85.814-4.964-7.961-9.243-15.564-12.877-22.818-9.941-19.844-14.91-37.002-14.762-51.179 0.165-15.708 6.614-25.182 11.996-30.364 5.223-5.028 14.668-11.023 30.004-11.025h8e-3c16.37 0 36.647 6.742 60.394 20.019-8.341 2.58-16.5 5.905-24.373 9.98-14.071-6.498-26.388-10-36.026-9.999-6.823 1e-3 -12.313 1.754-16.134 5.433-8.664 8.343-7.437 25.305 1.693 47.129 13.276 31.736 43.265 73.759 83.86 114.53 47.756 47.959 97.57 81.509 130.58 90.514 5.839 1.594 11.162 2.434 15.844 2.434 6.823 0 12.312-1.753 16.132-5.432 7.304-7.034 7.579-20.192 2.016-37.225 4.639-8.018 8.476-16.371 11.5-24.949 8.331 17.751 12.488 33.233 12.352 46.215-0.166 15.705-6.614 25.179-11.997 30.364z" fill="#848484"/></g></g></svg>
