<?xml version="1.0" encoding="UTF-8"?>
<svg width="347.91mm" height="347.91mm" version="1.1" viewBox="0 0 347.91 347.91" xmlns="http://www.w3.org/2000/svg"><g transform="translate(70.498 65.958)"><circle cx="103.46" cy="108" r="173.96" fill="#fff"/><path transform="scale(.26458)" d="m-24.729 44.432v415.75a415.75 415.75 0 0 0 415.75 415.75 415.75 415.75 0 0 0 415.75-415.75v-415.75h-415.75z" fill="#f3f3f3" stroke="#000" stroke-width="11.339"/><g transform="matrix(.35955 0 0 .35955 16.118 16.879)"><g fill="#685ca6"><path d="m343.76 117.95c-2.298-5.74-7.865-9.508-14.049-9.508h-86.805v-26.117h53.483c3.305 0 4.995-3.991 2.687-6.362l-17.732-18.226 17.732-18.225c2.305-2.369 0.624-6.362-2.687-6.362h-53.483c0-9.052-7.339-16.392-16.392-16.392-9.052 0-16.392 7.339-16.392 16.392v75.291h-83.015c-6.228 0-10.524 6.247-8.302 12.058 15.438 40.371 15.438 85.049 0 125.42-2.218 5.797 2.07 12.058 8.302 12.058h202.6c6.185 0 11.75-3.766 14.049-9.507 16.77-41.881 16.77-88.64 1e-3 -130.52z"/><path d="m495.61 297.58h-124.29c-26.401 0-51.243 14.061-64.834 36.696l-38.313 63.813h-25.254v-106.4h-32.783v106.4h-19.526v-27.101c0-9.052-7.339-16.392-16.392-16.392h-6.371v-29.163h6.371c9.052 0 16.392-7.339 16.392-16.392 0-9.052-7.339-16.392-16.392-16.392h-157.82c-9.053 0-16.392 7.338-16.392 16.391s7.338 16.392 16.392 16.392h2.257v29.163h-2.257c-9.053 1e-3 -16.392 7.34-16.392 16.392s7.338 16.392 16.392 16.392v16.184c0 16.892 13.694 30.587 30.587 30.587h22.249v30.502c0 16.892 13.694 30.587 30.587 30.587h258.31c16.893 0 30.587-13.694 30.587-30.587v-30.502h0.678c37.157 0 70.381-23.146 83.256-58.001l16.912-45.786h6.055c9.052 0 16.392-7.338 16.392-16.392s-7.339-16.391-16.393-16.391zm-418.76 57.016h-25.42v-29.163h25.421v29.163zm32.784 0v-29.163h25.421v29.163z"/></g></g></g></svg>
