<?xml version="1.0" encoding="UTF-8"?><svg id="a" xmlns="http://www.w3.org/2000/svg" viewBox="0 0 45.35 45.35"><defs><style>.f{fill:#fff;}.g{fill:#ed1c24;}.h{fill:#fbb040;}</style></defs><g id="b"><g><g><path class="g" d="M28.81,18.77c.34-.48-8.98-1.48-9.09-1.59-5.39-10.59-3.28-10.51-8.65,0-11.74,1.85-11.01-.13-2.67,8.23-1.86,11.73-3.53,10.43,7,5.08,10.59,5.4,8.83,6.58,7-5.08-.02-.1,7.07-6.55,6.42-6.63"/><path class="f" d="M23.4,36.58c-.7,.22-7.28-3.61-8.01-3.9-10.69,6.12-11.59,5.4-9.09-6.6C-2.84,17.76-2.46,16.76,9.77,15.4c5.09-11.26,6.16-11.21,11.23,0,12.29,1.36,12.57,2.39,3.47,10.69-.12,2.31,3.57,10.47-1.08,10.5Zm-1.45-2.18h0Zm-13.13,0h0Zm-2.12-1.54h0Zm17.37,0h0Zm-8.69-4.57l6.06,3.19-1.16-6.75,4.91-4.78-6.78-.99-3.03-6.14-3.03,6.14-6.78,.99,4.91,4.78-1.16,6.75,6.06-3.19Zm12.74-7.92h0ZM3.45,17.87h0Zm13.26-7.73v0Zm-2.63,.01h0Z"/></g><g><path class="h" d="M43.4,27.37c.23-.22-5.09-.86-5.13-.9-2.95-5.9-1.94-5.86-4.88,0-6.52,.98-6.17,.04-1.51,4.65-1.08,6.51-1.87,5.88,3.95,2.87,5.85,3.04,5.02,3.6,3.95-2.87,.03-.17,3.92-3.53,3.63-3.75"/><path class="f" d="M31.3,38.28c-3.42-.04-1.77-4.54-1.53-6.48-5.32-4.48-4.6-6.61,2.31-7.1,2.62-6.44,4.86-6.42,7.47,0,6.94,.5,7.6,2.64,2.31,7.1,1.67,6.76-.16,8.04-6.04,4.39-.74,.3-3.71,2.2-4.52,2.09Zm7.39-1.94h0Zm-8.16-1.77l-.04,.02,.04-.02Zm1.57-5.94l1.86,1.81-.44,2.56,2.3-1.21,2.3,1.21-.44-2.56,1.86-1.81-2.57-.37-1.15-2.33-1.15,2.33-2.57,.37Zm2.22-5.74h0Zm3.01,0h0Z"/></g><path class="g" d="M28.81,18.77c.34-.48-8.98-1.48-9.09-1.59-5.39-10.59-3.28-10.51-8.65,0-11.74,1.85-11.01-.13-2.67,8.23-1.86,11.73-3.53,10.43,7,5.08,10.59,5.4,8.83,6.58,7-5.08-.02-.1,7.07-6.55,6.42-6.63"/><path class="h" d="M43.4,27.37c.23-.22-5.09-.86-5.13-.9-2.95-5.9-1.94-5.86-4.88,0-6.52,.98-6.17,.04-1.51,4.65-1.08,6.51-1.87,5.88,3.95,2.87,5.85,3.04,5.02,3.6,3.95-2.87,.03-.17,3.92-3.53,3.63-3.75"/></g></g><g id="c"><g id="d"><g id="e"/></g></g></svg>