<?xml version="1.0" encoding="UTF-8"?><svg id="a" xmlns="http://www.w3.org/2000/svg" viewBox="0 0 45.35 45.35"><defs><style>.f{fill:#009444;}.g{fill:#fff;}.h{fill:#231f20;}</style></defs><g id="b"/><g id="c"><g id="d"><g id="e"/></g><g><g><g><path class="h" d="M5.55,38.42c-.86,.8-1.51-1.77-1.84-2.13l-.27,2.72c-.03,.26-.85,.26-.82-.04l.37-3.72c.04-.27,.77-.22,.89-.07h2.59c.12-.16,.86-.19,.89,.07l.37,3.72c.03,.31-.79,.29-.82,.04l-.27-2.72-1.09,2.13Z"/><path class="g" d="M7.55,41.45c-.77,.05-1.59-.12-2.13-.66h-.49c-1.6,1.5-4.85,.39-4.57-2.01,.27-1.3-.03-4.72,1.37-5.49l.49-4.91,2.31,4.54h1.28l2.31-4.54,.49,4.9c1.43,.77,1.1,4.39,1.38,5.71,0,1.35-1.1,2.45-2.45,2.45Zm-6.37-2.67v0Z"/></g><g><path class="h" d="M13.83,38.99c.01,.29-.53,.15-.69,.18-.19,.03-.36-.55-.44-.66h-2.44c-.19,.49-.36,.76-.95,.66-.69,.11,1.79-3.87,1.71-3.99,.12-.17,.8-.16,.92,0,.02,.08,1.91,3.72,1.89,3.81m-1.46-1.13l-.89-1.77-.89,1.77h1.79Z"/><path class="g" d="M13.64,41.45c-.78,.05-1.61-.1-2.17-.65-1.21,1.09-3.58,.9-4.34-.66h-.23l.12-.24c-.71-1.37,1.99-6.75,3.52-6.99l.93-1.85,.93,1.85c1.67,.19,2.89,4.33,3.67,5.47,.02,.48,.05,1.09-.15,1.52l.12,.24h-.23c-.41,.78-1.23,1.31-2.17,1.31Z"/></g><g><path class="h" d="M15.21,36.27c-.17-1.77,5.31-1.58,4.5,0-.15-.02-.58,.08-.64-.13-.57-.58-2.67-.69-3.05,.13,.52,1.02,2.28,.22,3.2,.74,2.86,2.1-3.88,3.29-3.96,1.05,.14-.1,.7-.15,.78,.06,.57,.58,2.67,.69,3.05-.12-.67-1.29-3.75,.34-3.89-1.72"/><path class="g" d="M17.57,41.45c-2.27,.28-5.34-1.46-4.45-4.12-1.85-5.87,10.26-6.22,8.9-.4,.99,2.8-1.92,4.84-4.45,4.52Z"/></g><g><path class="h" d="M21.31,35.56c-.51-.94,3.87-.29,4.11-.47,.92,.92-1.16,.61-1.55,.65-.08,.1,.2,3.62-.18,3.44-.16-.03-.64,.1-.63-.18v-3.25c-.16-.07-1.79,.19-1.74-.18"/><path class="g" d="M23.68,41.45c-2.09,.27-3.21-1.67-2.9-3.54-2.65-.72-2.13-5.16,.71-5.08h3.93c2.84-.08,3.36,4.36,.71,5.08,.24,1.66-.54,3.57-2.45,3.54Z"/></g><g><path class="h" d="M30.29,37.46h-2.48v1.06c.25,.15,4.57-.48,3.29,.66-.12-.11-4.26,.24-4.11-.18-.03-5.04-.65-3.77,4.11-3.91,1.28,1.13-3.06,.51-3.29,.65v1.06c.31,.11,3.61-.41,2.48,.65"/><path class="g" d="M31.11,41.45c-2.01-.11-6.44,.79-6.38-2.45,.08-2-.72-6.23,2.45-6.18,3.04-.18,8.22-.3,5.81,4.31,1.33,1.54,.3,4.38-1.88,4.31Z"/></g><g><path class="h" d="M36.99,38.71c-.39,1.21-1.77-.61-2.25-.84h-1.23c-.07,.52,.3,1.55-.64,1.31-.42,.15-.08-3.79-.18-3.91,0-.11,.08-.18,.18-.18,.94,.11,3.05-.31,3.81,.38,.57,.72,.41,2.26-.7,2.35,.31,.31,.8,.51,1,.89m-1.74-1.49c.77,.15,1.2-.69,.76-1.27-.42-.39-1.97-.13-2.5-.2v1.47h1.74Z"/><path class="g" d="M36.45,41.45c-.55,0-1.11-.19-1.57-.57-4.6,2.32-4.69-2.41-4.46-5.62-.04-2.61,2.96-2.57,4.83-2.45,2.2-.46,4.92,2.33,3.82,4.96,.76,1.7-.89,3.65-2.62,3.68Z"/></g><g><path class="h" d="M38.38,36.27c-.17-1.77,5.31-1.58,4.5,0-.15-.02-.58,.08-.63-.13-.58-.58-2.67-.69-3.05,.13,.52,1.02,2.28,.22,3.2,.74,2.86,2.1-3.88,3.29-3.96,1.05,.14-.1,.7-.15,.78,.06,.58,.58,2.67,.69,3.05-.12-.67-1.29-3.75,.34-3.89-1.72"/><path class="g" d="M40.73,41.45c-2.27,.29-5.33-1.46-4.45-4.12-1.85-5.87,10.25-6.22,8.9-.4,.99,2.8-1.93,4.84-4.45,4.52Zm-3.66-2.6c.03,.09,.06,.18,.11,.27-.04-.09-.08-.17-.11-.27Z"/></g><g><path class="h" d="M25.59,16.36c-.79,.95-3.24-2.79-3.79-3.03-1.29-1.33-8.66,9.64-9.97,8.33-.35-.3-.79-.8-.35-1.23,.5-.05,9.76-10.99,10.33-9.6,.57,.25,3.02,4.01,3.83,3.06l5.64-5.4c1.05-.79-1.96-1.96-.79-2.32,.54,.24,4.4-.59,4.27,.63-.17,.16,.44,4.77-.45,3.82-.44-.34-1.15-1.55-1.8-.9l-6.93,6.63Z"/><path class="g" d="M12.28,24.1c-2.53,.02-4.38-3.4-2.41-5.28l9.45-9.6c2.07-2.18,4.56,.19,5.94,1.89l3.26-3.12c-2.51-4.16,2.88-4.36,5.63-4.1,3.45-.06,2.92,4.24,2.9,6.54,.08,2.15-2.45,3.4-4.08,2.01-3.78,2.84-7.02,10.12-11.61,3.68-1.38,.99-7.12,8.36-9.07,7.98Zm.82-2.09h0Zm-1.99-1.95h0Zm22.98-8.7h0Zm-4.38-4.51h0Z"/></g><g><path class="f" d="M3.69,31.56c.95,.8,4.07,1.24,4.77,0-.91-1.42-3.55-.21-4.99-1.04-1.58-.5-1.58-2.93,0-3.43,1.42-.6,7.8-.75,6.28,1.71h-.98c-.35,.02-.36-.45-.68-.5-1.17-.11-3.46-.7-4.09,.5,1.25,1.78,6.04-.62,6.2,2.75-.12,2.9-7.01,2.83-7.85,.49-.17-.71,.99-.44,1.35-.49Z"/><path class="g" d="M6.23,35.89c-2.81,.42-7.53-1.76-5.81-5.28-3.53-7.84,14.11-8.57,11.63-.86,1.89,3.82-2.43,6.67-5.81,6.14Zm4.22-8.32v0Z"/></g><g><path class="f" d="M13.37,28.11c-.61,6.58,2.67,2.44,2.58,5.12-1.52,1.33-4.79-.47-4.3-2.74,.17-.25-.42-6.47,.39-6.16,1.98-.36,1.19,1.21,1.33,2.41,.81,.07,2.22-.39,1.89,.99,.05,.69-1.55,.29-1.89,.39Z"/><path class="g" d="M15.56,35.89c-6.92,.62-6.36-6.02-6.18-11.18-.09-3.55,6.13-3.62,6.25-.14,2.34,.56,2.59,4.42,.54,5.48,3.05,.64,2.62,5.94-.61,5.84Z"/></g><g><path class="f" d="M26.01,30.18c.64,4.8-9.24,4.8-8.61,0-.64-4.8,9.24-4.8,8.61,0m-1.72,0c.38-2.88-5.55-2.88-5.16,0-.38,2.88,5.55,2.88,5.16,0"/><path class="g" d="M21.71,35.89c-8.68,1.2-8.74-12.61,0-11.42,8.68-1.2,8.74,12.61,0,11.42Z"/></g><g><path class="f" d="M28.25,27.68c1.1-2.02,10.56-.43,5.74,1.05-1.04-.88-3.25-.87-4.33-.05-1.28,1.65,0,3.99,2.15,3.57,1.53,.29,2.66-1.63,3.57,.24-1.36,1.75-5.47,1.49-7.14,.2-1.08-1.26-1.08-3.75,0-5"/><path class="g" d="M31.82,35.89c-5.18,1.03-8.91-5.72-5.17-9.82,3.1-3.47,14.88-1.3,9.72,4.11,4.01,3.02-1.96,6.45-4.54,5.71Zm-.34-5.49h0Zm0-.44h0Zm4.09-2.87h0Z"/></g><g><path class="f" d="M41.49,33.54l-2.92-2.33c-.16,1.21,.68,2.77-1.33,2.42-.83,.42-.2-8.74-.39-8.91-.02-.6,1-.33,1.33-.39,.8-.18,.22,4.53,.39,4.83,.32-.09,3.03-2.83,3.4-2.33,.25,.26,1.3,.76,.76,1.21l-2.68,2.15c.16,.37,3.48,2.18,2.68,2.75-.28,.15-.88,.95-1.24,.61"/><path class="g" d="M41.73,35.89c-.63,0-1.27-.24-1.78-.68-7.51,3.68-4.96-6.73-5.37-10.5-.06-3.55,6.19-3.62,6.25-.09,3.09-1.03,6.14,3.73,2.84,5.56,2.92,1.64,.9,5.62-1.95,5.71Zm1.18-7.3h0Zm-1.6-2.33l-.02,.02,.02-.02Z"/></g><g><rect class="f" x="36.85" y="7.68" width="1.72" height="25.33"/><rect class="g" x="34.58" y="5.41" width="6.26" height="29.86"/></g><g><rect class="f" x="30.28" y="14.82" width="1.72" height="10.67"/><rect class="g" x="28.02" y="12.56" width="6.26" height="15.21"/></g><g><rect class="f" x="20.91" y="17.62" width="1.61" height="7.88"/><rect class="g" x="18.64" y="15.35" width="6.14" height="12.41"/></g></g><g><path class="h" d="M5.55,38.42c-.86,.8-1.51-1.77-1.84-2.13l-.27,2.72c-.02,.27-.49,.14-.65,.17-.43,.1,.3-3.8,.21-3.93,.95-1.05,1.79,1.99,2.19,2.47,.41-.5,1.23-3.52,2.18-2.47-.1,.14,.67,4.03,.19,3.93-.16-.03-.62,.1-.63-.17l-.27-2.72-1.09,2.13Z"/><path class="h" d="M13.83,38.99c.01,.29-.53,.15-.69,.18-.19,.03-.36-.55-.44-.66h-2.44c-.19,.49-.36,.76-.95,.66-.69,.11,1.79-3.87,1.71-3.99,.12-.17,.8-.16,.92,0,.02,.08,1.91,3.72,1.89,3.81m-1.46-1.13l-.89-1.77-.89,1.77h1.79Z"/><path class="h" d="M15.21,36.27c-.17-1.77,5.31-1.58,4.5,0-.15-.02-.58,.08-.64-.13-.57-.58-2.67-.69-3.05,.13,.52,1.02,2.28,.22,3.2,.74,2.86,2.1-3.88,3.29-3.96,1.05,.14-.1,.7-.15,.78,.06,.57,.58,2.67,.69,3.05-.12-.67-1.29-3.75,.34-3.89-1.72"/><path class="h" d="M21.31,35.56c-.51-.94,3.87-.29,4.11-.47,.92,.92-1.16,.61-1.55,.65-.08,.1,.2,3.62-.18,3.44-.16-.03-.64,.1-.63-.18v-3.25c-.16-.07-1.79,.19-1.74-.18"/><path class="h" d="M30.29,37.46h-2.48v1.06c.25,.15,4.57-.48,3.29,.66-.12-.11-4.26,.24-4.11-.18-.03-5.04-.65-3.77,4.11-3.91,1.28,1.13-3.06,.51-3.29,.65v1.06c.31,.11,3.61-.41,2.48,.65"/><path class="h" d="M36.99,38.71c-.39,1.21-1.77-.61-2.25-.84h-1.23c-.07,.52,.3,1.55-.64,1.31-.42,.15-.08-3.79-.18-3.91,0-.11,.08-.18,.18-.18,.94,.11,3.05-.31,3.81,.38,.57,.72,.41,2.26-.7,2.35,.31,.31,.8,.51,1,.89m-1.74-1.49c.77,.15,1.2-.69,.76-1.27-.42-.39-1.97-.13-2.5-.2v1.47h1.74Z"/><path class="h" d="M38.38,36.27c-.17-1.77,5.31-1.58,4.5,0-.15-.02-.58,.08-.63-.13-.58-.58-2.67-.69-3.05,.13,.52,1.02,2.28,.22,3.2,.74,2.86,2.1-3.88,3.29-3.96,1.05,.14-.1,.7-.15,.78,.06,.58,.58,2.67,.69,3.05-.12-.67-1.29-3.75,.34-3.89-1.72"/><path class="h" d="M25.59,16.36c-.79,.95-3.24-2.79-3.79-3.03-1.29-1.33-8.66,9.64-9.97,8.33-.35-.3-.79-.8-.35-1.23,.5-.05,9.76-10.99,10.33-9.6,.57,.25,3.02,4.01,3.83,3.06l5.64-5.4c1.05-.79-1.96-1.96-.79-2.32,.54,.24,4.4-.59,4.27,.63-.17,.16,.44,4.77-.45,3.82-.44-.34-1.15-1.55-1.8-.9l-6.93,6.63Z"/><path class="f" d="M3.69,31.56c.95,.8,4.07,1.24,4.77,0-.91-1.42-3.55-.21-4.99-1.04-1.58-.5-1.58-2.93,0-3.43,1.42-.6,7.8-.75,6.28,1.71h-.98c-.35,.02-.36-.45-.68-.5-1.17-.11-3.46-.7-4.09,.5,1.25,1.78,6.04-.62,6.2,2.75-.12,2.9-7.01,2.83-7.85,.49-.17-.71,.99-.44,1.35-.49Z"/><path class="f" d="M13.37,28.11c-.61,6.58,2.67,2.44,2.58,5.12-1.52,1.33-4.79-.47-4.3-2.74,.17-.25-.42-6.47,.39-6.16,1.98-.36,1.19,1.21,1.33,2.41,.81,.07,2.22-.39,1.89,.99,.05,.69-1.55,.29-1.89,.39Z"/><path class="f" d="M26.01,30.18c.64,4.8-9.24,4.8-8.61,0-.64-4.8,9.24-4.8,8.61,0m-1.72,0c.38-2.88-5.55-2.88-5.16,0-.38,2.88,5.55,2.88,5.16,0"/><path class="f" d="M28.25,27.68c1.1-2.02,10.56-.43,5.74,1.05-1.04-.88-3.25-.87-4.33-.05-1.28,1.65,0,3.99,2.15,3.57,1.53,.29,2.66-1.63,3.57,.24-1.36,1.75-5.47,1.49-7.14,.2-1.08-1.26-1.08-3.75,0-5"/><path class="f" d="M41.49,33.54l-2.92-2.33c-.16,1.21,.68,2.77-1.33,2.42-.83,.42-.2-8.74-.39-8.91-.02-.6,1-.33,1.33-.39,.8-.18,.22,4.53,.39,4.83,.32-.09,3.03-2.83,3.4-2.33,.25,.26,1.3,.76,.76,1.21l-2.68,2.15c.16,.37,3.48,2.18,2.68,2.75-.28,.15-.88,.95-1.24,.61"/><rect class="f" x="36.85" y="7.68" width="1.72" height="25.33"/><rect class="f" x="30.28" y="14.82" width="1.72" height="10.67"/><rect class="f" x="20.91" y="17.62" width="1.61" height="7.88"/></g></g></g></svg>