<?xml version="1.0" encoding="UTF-8"?><svg id="a" xmlns="http://www.w3.org/2000/svg" viewBox="0 0 45.35 45.35"><defs><style>.f{fill:#fff;}.g{fill:#f2b21c;}.h{fill:#fbee39;}.i{fill:#231f20;}</style></defs><g id="b"/><g id="c"><g id="d"><g id="e"/></g></g><g><g><rect class="h" x="2.49" y="2.49" width="40.37" height="40.37"/><path class="f" d="M45.35,45.35H0V0H45.35V45.35ZM4.98,40.37H40.37V4.98H4.98V40.37Z"/></g><g><path class="i" d="M22.67,27.19c5.12,.07,5.12-7.97,0-7.9-5.12-.07-5.12,7.97,0,7.9m0-6.77c3.66-.05,3.66,5.69,0,5.64-3.66,.05-3.66-5.69,0-5.64"/><path class="f" d="M22.67,29.68c-8.36,.12-8.35-13,0-12.88,8.35-.12,8.35,13,0,12.88Zm0-6.77c-.82,.15,.14,1.06,.33,.33,0-.18-.15-.33-.33-.33Z"/></g><g><path class="i" d="M23.23,23.24c.01,.73-1.14,.73-1.13,0-.01-.73,1.14-.73,1.13,0"/><path class="f" d="M22.67,26.3c-3.97,.06-3.96-6.17,0-6.11,3.96-.05,3.96,6.17,0,6.11Zm0-4.98c-2.5-.03-2.5,3.89,0,3.86,2.5,.03,2.5-3.89,0-3.86Z"/></g><g><path class="i" d="M5.75,39.6H39.6V5.75H5.75V39.6ZM26.82,6.88c-.63,0-.72,1.72-.92,2.1-.87-.21-1.76-.33-2.67-.38v-1.72h3.58Zm-4.71,1.72c-.91,.04-1.81,.16-2.68,.37-.2-.39-.28-2.08-.91-2.09h3.59v1.72Zm-3.63-1.72c-1.21-.05-.18,1.85-.14,2.39-.86,.28-1.68,.63-2.47,1.06-.35-.38-.87-2.25-1.66-1.75-.84,.43,.54,1.83,.69,2.32-.75,.48-1.47,1.03-2.12,1.64-.44-.27-1.43-1.97-2.07-1.27-.7,.63,1,1.64,1.27,2.07-.61,.65-1.17,1.36-1.66,2.11-.49-.15-1.87-1.51-2.3-.68-.5,.79,1.35,1.3,1.73,1.65-.39,1.2-2.12,3.39-.97,4.37,.71,.14,.71-.72,.88-1.19,.46-.1,8.17,3.29,8.19,2.07,.74-.99-7.55-2.79-7.83-3.14,1.92-4.99,6.78-8.59,12.1-8.81,.24,.41-.61,8.8,.56,8.44,1.17,.4,.32-8.06,.56-8.43,5.36,.26,10.22,3.85,12.1,8.8-.32,.36-8.56,2.14-7.85,3.14-.02,1.23,7.78-2.19,8.2-2.07,.17,.47,.16,1.35,.88,1.22,1.16-.98-.57-3.2-.96-4.4,.38-.35,2.21-.85,1.71-1.64-.43-.83-1.8,.52-2.29,.67-.49-.75-1.05-1.46-1.67-2.11,.27-.44,1.95-1.42,1.26-2.06-.63-.7-1.63,1-2.06,1.27-.66-.6-1.37-1.15-2.13-1.63,.15-.49,1.53-1.89,.69-2.32-.79-.51-1.32,1.38-1.66,1.75-.79-.42-1.62-.78-2.47-1.05,.04-.55,1.08-2.46-.15-2.41h11.62V27.37c-1.47-.38-1.51-2.35-1.7-3.57h-3.49c-.31,4.15-2.43,5.02-5.58,2.31l-2.47,2.47c2.56,2.71,1.78,5.01-2,5.26v3.49c.97,.19,2.7,.17,3.27,1.14h-7.67c.57-.97,2.31-.95,3.27-1.14v-3.49c-3.79-.26-4.55-2.55-2-5.26l-2.47-2.47c-3.16,2.72-5.27,1.83-5.58-2.31h-3.49c-.19,1.22-.23,3.18-1.7,3.57V6.88h11.6ZM7.51,38.47c-.24-.24-.45-.5-.63-.79v-4.06c3-4.96,10.28,.79,6.14,4.85H7.51Zm6.96,0c3.38-4.75-3.38-10.59-7.59-6.59v-3.33c1.71-.33,2.59-1.97,2.67-3.62h1.59c.08,3.64,3.74,5.15,6.37,2.64l1.12,1.12c-2.33,2.21-.87,6.03,2.35,6.08v1.59c-1.43,.09-2.9,.69-3.44,2.1h-3.07Zm10.8-1.97l-.91-.14v-1.59c3.23-.05,4.68-3.87,2.35-6.08l1.12-1.12c2.63,2.51,6.29,.99,6.37-2.64h1.59c.08,1.65,.96,3.29,2.67,3.62v3.33c-4.22-4.01-10.97,1.84-7.59,6.59h-3.07c-.44-1.05-1.38-1.79-2.53-1.97m7.05,1.97c-4.14-4.07,3.14-9.81,6.14-4.85v4.06c-.17,.29-.38,.55-.63,.79h-5.51Z"/><path class="f" d="M42.09,42.09H3.26V3.26H42.09V42.09Zm-8.42-6.11h2.31v-1.48c-1.02-.85-2.65,.19-2.31,1.48Zm-24.29,0h2.31c.34-1.29-1.29-2.33-2.31-1.48v1.48Zm11.95-4.82c.7,.25,2.01,.25,2.71,0l-1.36-1.85-1.36,1.85Zm-2.26-7.15l3.62,3.62,3.61-3.61c-4.3-4.26,2.28-6.08,5.48-6.94-1.46-2.09-3.61-3.66-6.04-4.4-.14,2.51,.99,8.06-3.06,7.98-4.04,.08-2.92-5.49-3.06-8-2.42,.73-4.57,2.3-6.03,4.42,3.22,.85,9.74,2.68,5.47,6.93Zm-4.44-.16l.23,1.17,1.09-.74-1.32-.43Zm14.8,.42l1.1,.74,.23-1.17-1.32,.43Z"/></g><rect class="i" x="2.49" y="2.49" width="40.37" height="40.37"/><path class="g" d="M22.67,27.19c5.12,.07,5.12-7.97,0-7.9-5.12-.07-5.12,7.97,0,7.9m0-6.77c3.66-.05,3.66,5.69,0,5.64-3.66,.05-3.66-5.69,0-5.64"/><path class="g" d="M23.23,23.24c.01,.73-1.14,.73-1.13,0-.01-.73,1.14-.73,1.13,0"/><path class="g" d="M5.75,39.6H39.6V5.75H5.75V39.6ZM26.82,6.88c-.63,0-.72,1.72-.92,2.1-.87-.21-1.76-.33-2.67-.38v-1.72h3.58Zm-4.71,1.72c-.91,.04-1.81,.16-2.68,.37-.2-.39-.28-2.08-.91-2.09h3.59v1.72Zm-3.63-1.72c-1.21-.05-.18,1.85-.14,2.39-.86,.28-1.68,.63-2.47,1.06-.35-.38-.87-2.25-1.66-1.75-.84,.43,.54,1.83,.69,2.32-.75,.48-1.47,1.03-2.12,1.64-.44-.27-1.43-1.97-2.07-1.27-.7,.63,1,1.64,1.27,2.07-.61,.65-1.17,1.36-1.66,2.11-.49-.15-1.87-1.51-2.3-.68-.5,.79,1.35,1.3,1.73,1.65-.39,1.2-2.12,3.39-.97,4.37,.71,.14,.71-.72,.88-1.19,.46-.1,8.17,3.29,8.19,2.07,.74-.99-7.55-2.79-7.83-3.14,1.92-4.99,6.78-8.59,12.1-8.81,.24,.41-.61,8.8,.56,8.44,1.17,.4,.32-8.06,.56-8.43,5.36,.26,10.22,3.85,12.1,8.8-.32,.36-8.56,2.14-7.85,3.14-.02,1.23,7.78-2.19,8.2-2.07,.17,.47,.16,1.35,.88,1.22,1.16-.98-.57-3.2-.96-4.4,.38-.35,2.21-.85,1.71-1.64-.43-.83-1.8,.52-2.29,.67-.49-.75-1.05-1.46-1.67-2.11,.27-.44,1.95-1.42,1.26-2.06-.63-.7-1.63,1-2.06,1.27-.66-.6-1.37-1.15-2.13-1.63,.15-.49,1.53-1.89,.69-2.32-.79-.51-1.32,1.38-1.66,1.75-.79-.42-1.62-.78-2.47-1.05,.04-.55,1.08-2.46-.15-2.41h11.62V27.37c-1.47-.38-1.51-2.35-1.7-3.57h-3.49c-.31,4.15-2.43,5.02-5.58,2.31l-2.47,2.47c2.56,2.71,1.78,5.01-2,5.26v3.49c.97,.19,2.7,.17,3.27,1.14h-7.67c.57-.97,2.31-.95,3.27-1.14v-3.49c-3.79-.26-4.55-2.55-2-5.26l-2.47-2.47c-3.16,2.72-5.27,1.83-5.58-2.31h-3.49c-.19,1.22-.23,3.18-1.7,3.57V6.88h11.6ZM7.51,38.47c-.24-.24-.45-.5-.63-.79v-4.06c3-4.96,10.28,.79,6.14,4.85H7.51Zm6.96,0c3.38-4.75-3.38-10.59-7.59-6.59v-3.33c1.71-.33,2.59-1.97,2.67-3.62h1.59c.08,3.64,3.74,5.15,6.37,2.64l1.12,1.12c-2.33,2.21-.87,6.03,2.35,6.08v1.59c-1.43,.09-2.9,.69-3.44,2.1h-3.07Zm10.8-1.97l-.91-.14v-1.59c3.23-.05,4.68-3.87,2.35-6.08l1.12-1.12c2.63,2.51,6.29,.99,6.37-2.64h1.59c.08,1.65,.96,3.29,2.67,3.62v3.33c-4.22-4.01-10.97,1.84-7.59,6.59h-3.07c-.44-1.05-1.38-1.79-2.53-1.97m7.05,1.97c-4.14-4.07,3.14-9.81,6.14-4.85v4.06c-.17,.29-.38,.55-.63,.79h-5.51Z"/></g></svg>