<?xml version="1.0" encoding="UTF-8"?>
<svg width="309.16mm" height="309.16mm" version="1.1" viewBox="0 0 309.16 309.16" xmlns="http://www.w3.org/2000/svg"><g transform="translate(51.118 46.578)"><circle cx="103.46" cy="108" r="154.58" fill="#fff"/><path transform="scale(.26458)" d="m-24.729 44.432v415.75a415.75 415.75 0 0 0 415.75 415.75 415.75 415.75 0 0 0 415.75-415.75v-415.75h-415.75z" fill="#f00" stroke="#000" stroke-width="9.4489"/><path d="m113.18 61.004-6.4273 0.21072" fill="none" stroke="#000" stroke-width=".26458px"/><g transform="translate(-3.2987 -11.642)" fill="#fff" stroke="#000"><rect x="97.198" y="93.184" width="19.114" height="7.1338" rx="4.1"/><path transform="matrix(.26458 0 0 .26458 -70.498 -65.958)" d="m645.64 479.86c12.896 32.605-4.6573 47.133-8.5762 57.008-15.534 39.142 17.014 64.766 17.014 64.766l15.855 0.22461 15.854-0.22461s32.547-25.624 17.014-64.766c-3.9189-9.8748-21.47-24.403-8.5742-57.008l-24.293 0.79687z" stroke-width="3.7795"/><rect x="97.198" y="54.164" width="19.114" height="7.1338" rx="4.1"/><g transform="matrix(1 0 0 -1 .00024267 246.66)"><rect x="97.198" y="93.184" width="19.114" height="7.1338" rx="4.1"/><path transform="matrix(.26458 0 0 .26458 -70.498 -65.958)" d="m645.64 479.86c12.896 32.605-4.6573 47.133-8.5762 57.008-15.534 39.142 17.014 64.766 17.014 64.766l15.855 0.22461 15.854-0.22461s32.547-25.624 17.014-64.766c-3.9189-9.8748-21.47-24.403-8.5742-57.008l-24.293 0.79687z" stroke-width="3.7795"/><rect x="97.198" y="54.164" width="19.114" height="7.1338" rx="4.1"/></g><g transform="matrix(.5 -.86603 -.86603 -.5 159.67 278.27)"><rect x="97.198" y="93.184" width="19.114" height="7.1338" rx="4.1"/><path transform="matrix(.26458 0 0 .26458 -70.498 -65.958)" d="m645.64 479.86c12.896 32.605-4.6573 47.133-8.5762 57.008-15.534 39.142 17.014 64.766 17.014 64.766l15.855 0.22461 15.854-0.22461s32.547-25.624 17.014-64.766c-3.9189-9.8748-21.47-24.403-8.5742-57.008l-24.293 0.79687z" stroke-width="3.7795"/><rect x="97.198" y="54.164" width="19.114" height="7.1338" rx="4.1"/></g><g transform="rotate(60 107.3 122.1)"><rect x="97.198" y="93.184" width="19.114" height="7.1338" rx="4.1"/><path transform="matrix(.26458 0 0 .26458 -70.498 -65.958)" d="m645.64 479.86c12.896 32.605-4.6573 47.133-8.5762 57.008-15.534 39.142 17.014 64.766 17.014 64.766l15.855 0.22461 15.854-0.22461s32.547-25.624 17.014-64.766c-3.9189-9.8748-21.47-24.403-8.5742-57.008l-24.293 0.79687z" stroke-width="3.7795"/><rect x="97.198" y="54.164" width="19.114" height="7.1338" rx="4.1"/></g><g transform="rotate(240 107.03 123.84)"><rect x="97.198" y="93.184" width="19.114" height="7.1338" rx="4.1"/><path transform="matrix(.26458 0 0 .26458 -70.498 -65.958)" d="m645.64 479.86c12.896 32.605-4.6573 47.133-8.5762 57.008-15.534 39.142 17.014 64.766 17.014 64.766l15.855 0.22461 15.854-0.22461s32.547-25.624 17.014-64.766c-3.9189-9.8748-21.47-24.403-8.5742-57.008l-24.293 0.79687z" stroke-width="3.7795"/><rect x="97.198" y="54.164" width="19.114" height="7.1338" rx="4.1"/></g><g transform="matrix(-.5 .86603 .86603 .5 53.578 -31.707)"><rect x="97.198" y="93.184" width="19.114" height="7.1338" rx="4.1"/><path transform="matrix(.26458 0 0 .26458 -70.498 -65.958)" d="m645.64 479.86c12.896 32.605-4.6573 47.133-8.5762 57.008-15.534 39.142 17.014 64.766 17.014 64.766l15.855 0.22461 15.854-0.22461s32.547-25.624 17.014-64.766c-3.9189-9.8748-21.47-24.403-8.5742-57.008l-24.293 0.79687z" stroke-width="3.7795"/><rect x="97.198" y="54.164" width="19.114" height="7.1338" rx="4.1"/></g><path transform="matrix(.26458 0 0 .26458 -70.498 -65.958)" d="m669.93 396.02c-175.89 0-319.09 143.2-319.09 319.09 0 175.89 143.19 319.1 319.09 319.1 175.89 0 319.1-143.2 319.1-319.1 0-175.89-143.2-319.09-319.1-319.09zm0 56.693c145.26 0 262.4 117.14 262.4 262.4 0 145.26-117.15 262.4-262.4 262.4-145.26 0-262.4-117.15-262.4-262.4 0-145.26 117.14-262.4 262.4-262.4z" color="#000000" stroke-width="3.7795"/><path transform="matrix(.26458 0 0 .26458 -70.498 -65.958)" d="m669.93 628.13c-47.948 0-86.982 39.033-86.982 86.98s39.034 86.984 86.982 86.984c47.948 0 86.984-39.036 86.984-86.984s-39.036-86.98-86.984-86.98zm0 49.652c20.664 0 37.33 16.666 37.33 37.33 0 20.664-16.666 37.328-37.33 37.328-20.664 0-37.328-16.664-37.328-37.328 0-20.664 16.664-37.33 37.328-37.33z" color="#000000" stroke-width="3.7795"/></g></g></svg>
