<svg width="100" height="100" viewBox="0 0 100 100" xmlns="http://www.w3.org/2000/svg">
  <title>Compagnie du Levant</title>
  <circle cx="50" cy="50" r="50" fill="#4A235A"/>
  <path d="M27,22 L73,22 L73,60 Q73,80 50,90 Q27,80 27,60 Z" fill="none" stroke="white" stroke-width="4" stroke-linejoin="round"/>
  <line x1="27" y1="55" x2="73" y2="55" stroke="white" stroke-width="2.5"/>
  <circle cx="50" cy="39" r="9" fill="none" stroke="white" stroke-width="3"/>
  <line x1="50" y1="23" x2="50" y2="28" stroke="white" stroke-width="2.5" stroke-linecap="round"/>
  <line x1="50" y1="50" x2="50" y2="55" stroke="white" stroke-width="2" stroke-linecap="round"/>
  <line x1="35" y1="39" x2="39" y2="39" stroke="white" stroke-width="2.5" stroke-linecap="round"/>
  <line x1="61" y1="39" x2="65" y2="39" stroke="white" stroke-width="2.5" stroke-linecap="round"/>
  <line x1="38" y1="27" x2="41" y2="30" stroke="white" stroke-width="2.5" stroke-linecap="round"/>
  <line x1="59" y1="48" x2="62" y2="51" stroke="white" stroke-width="2.5" stroke-linecap="round"/>
  <line x1="62" y1="27" x2="59" y2="30" stroke="white" stroke-width="2.5" stroke-linecap="round"/>
  <line x1="38" y1="48" x2="41" y2="51" stroke="white" stroke-width="2.5" stroke-linecap="round"/>
  <path d="M32,64 Q38,59 44,64 Q50,69 56,64 Q62,59 68,64" fill="none" stroke="white" stroke-width="2.5" stroke-linecap="round"/>
  <path d="M33,76 Q39,71 45,76 Q51,81 57,76 Q63,71 68,75" fill="none" stroke="white" stroke-width="2.5" stroke-linecap="round"/>
</svg>
