<svg xmlns="http://www.w3.org/2000/svg" width="42.646" height="41.586"><path d="M21.323 41.586C9.553 41.586 0 32.27 0 20.793 0 9.288 9.553 0 21.323 0s21.323 9.288 21.323 20.793c0 11.478-9.553 20.793-21.323 20.793z" fill="#fff" fill-rule="evenodd"/><g stroke-width=".033"><path d="M8.297 19.64a1.435 1.435 0 00-.223-.13c-.097-.002-1.412-.975-1.736-1.285a28.84 28.84 0 00-.473-.44c-.427-.384-1.205-1.308-1.362-1.616a6.96 6.96 0 00-.17-.295 8.132 8.132 0 01-.242-.443 1.658 1.658 0 00-.145-.255c-.032-.02-.231-.507-.324-.79a9.068 9.068 0 01-.17-.69c-.088-.407-.105-.567-.12-1.136-.02-.73.01-1.076.145-1.685.123-.557.367-1.27.476-1.392.018-.02.072-.11.12-.2.08-.15.106-.17.3-.24.799-.286 2.003-.467 2.792-.418 1.06.064 1.778.237 2.752.662.395.172 1.004.504 1.073.584.018.02.158.126.31.233.155.107.417.31.584.45.168.14.317.255.332.255.039 0 1.03 1.015 1.107 1.133.035.054.164.224.287.377.123.154.315.41.426.572.112.16.227.317.254.346.11.116.196.294.196.405 0 .09-.023.136-.107.206-.058.05-.215.21-.35.356-.133.146-.572.6-.976 1.008l-.734.74.2.188c.11.103.477.403.813.667.337.264.638.509.67.544.112.126.075.233-.18.513a26 26 0 00-.47.528c-.311.364-.59.625-.663.625-.11 0-1.15-.705-1.196-.812a5.232 5.232 0 00-.35-.317l-.34-.291-.276.274a3.468 3.468 0 00-.276.292c0 .01-.351.376-.78.814-.89.909-.84.88-1.174.663zm33.102 2.947a9.44 9.44 0 01-.378-.356 94.667 94.667 0 00-1.503-1.416l-.102-.094-.454.15c-.25.082-.487.15-.53.15-.097 0-.185-.123-.436-.608-.22-.427-.774-1.366-.86-1.457a9.172 9.172 0 01-.488-.746c0-.06-.827-1.228-.87-1.228-.021 0-.065.029-.097.064-.032.036-.15.124-.262.197-.465.303-1.037.4-1.573.265l-.29-.072-.153.134c-.084.074-.252.216-.374.316-.121.1-.306.267-.41.372-.396.398-.786.726-.89.747-.117.023-.125.016-.667-.58-.748-.82-.774-.854-.74-.99.01-.041.14-.18.287-.305.613-.528.915-.798 1.15-1.033l.252-.248-.06-.23c-.121-.466-.06-.89.204-1.425.145-.293.21-.384.447-.618.277-.274.277-.275.216-.347a42.512 42.512 0 00-1.03-1.123 1.116 1.116 0 01-.15-.184c-.041-.065-.491-.516-1.001-1.002a157.09 157.09 0 01-1.197-1.15 8.573 8.573 0 00-.512-.46 48.879 48.879 0 01-.668-.553 56.03 56.03 0 00-.77-.638c-.49-.398-.691-.6-.691-.697 0-.111.114-.224.226-.224.13 0 1.428.544 1.48.62.01.014.276.152.592.307.316.155.809.416 1.095.58.286.166.604.346.706.403.265.146 1.15.715 1.214.78.06.063.852.626.878.626.074 0 1.752 1.348 1.83 1.47.017.027.119.04.31.04.158 0 .379.023.492.05.426.1.89.396 1.244.792.124.14.256.284.294.323.102.103.244.36.335.604.066.175.083.29.09.589l.009.37.358.45c.487.61.513.647.875 1.179.174.257.35.503.39.547.212.23.766 1.194 1.334 2.32.306.606.368.74.578 1.246.048.117.1.22.114.23.057.037.625 1.63.625 1.753 0 .024-.03.083-.068.13-.096.123-.241.116-.4-.02zM10.969 37.1a4.652 4.652 0 01-.265-.32 4.614 4.614 0 00-.325-.361c-.543-.562-.557-.602-.288-.827.279-.234.898-.792.91-.82.009-.024.636-.585 1.67-1.497.23-.203.472-.421.535-.484a44.906 44.906 0 011.295-1.166c.118-.1.215-.19.215-.2a.605.605 0 00-.172-.095c-.576-.255-1.328-.616-1.386-.666-.06-.052-.41-.252-.98-.561-.475-.258-1.146-.801-1.44-1.163-.342-.427-.52-.908-.52-1.408 0-.387.08-.665.36-1.245.369-.762.534-1.364.773-2.804.06-.37.238-1.055.402-1.56.13-.402.426-1.14.467-1.165.014-.01.13-.23.258-.493.326-.67.81-1.398 1.25-1.878.092-.1.167-.196.167-.212 0-.036.403-.438.439-.438.015 0 .11-.074.213-.165.103-.091.316-.256.475-.365.16-.11.392-.276.517-.37.238-.18.752-.478.82-.478.05 0 .363-.195.409-.254.104-.134 1.054-.454 1.674-.565.199-.035.472-.09.608-.122.35-.083 1.804-.084 2.396 0 .718.1 1.32.22 1.69.34.458.147.946.333.969.368.01.015.18.097.378.18.69.294 1.65.85 2.107 1.22a.793.793 0 00.16.113c.085 0 1.02.922 1.415 1.395l.136.164.258-.23c.142-.127.295-.255.34-.284.045-.03.208-.176.36-.327.468-.456.55-.521.674-.521.116 0 .102-.013.53.492.084.1.306.34.493.534.303.316.34.367.34.472 0 .128-.104.246-.443.503a5.02 5.02 0 00-.394.353 31.74 31.74 0 01-1.01.926c-.012.01.036.194.107.406.07.21.153.512.182.667a4.6 4.6 0 00.16.583c.06.165.172.507.25.76.136.448.144.464.309.612.144.13.187.2.296.476.07.178.139.332.153.342.029.019.259.796.259.874 0 .027.105.165.233.306.129.142.25.287.27.322.02.035.154.21.294.388.14.178.418.565.615.86.198.294.38.556.406.58.025.027.08.119.12.205.043.086.14.256.217.378.553.867.768 1.73.622 2.493-.052.27-.182.635-.29.812-.172.287-.623.824-.69.824a.53.53 0 00-.151.094 2.877 2.877 0 01-.293.192l-.173.098.3.26.632.55c.183.159.467.418.629.575.162.157.454.43.649.608.194.177.36.356.372.398.027.107-.016.172-.375.57a29.5 29.5 0 00-.557.64c-.363.432-.416.44-.784.104-.13-.118-.25-.215-.27-.215-.02 0-.036-.013-.036-.03s-.447-.43-.993-.917a105.363 105.363 0 01-1.708-1.547l-.122-.106-.485.18c-.266.1-.573.208-.681.239a.85.85 0 00-.214.08c-.016.024-.703.194-1.05.26-1.08.207-2.508.213-3.674.017-.483-.081-1.123-.235-1.153-.277a.79.79 0 00-.192-.08 19.808 19.808 0 01-.935-.394 65.273 65.273 0 00-.974-.422c-.34-.138-2.178-.856-2.593-1.012a3.331 3.331 0 01-.394-.164c-.036-.05-.773-.323-.825-.307a.884.884 0 00-.2.172c-.08.085-.233.229-.34.32-.163.137-1.427 1.264-2 1.784-1.38 1.248-2.121 1.909-2.146 1.909-.016 0-.094.07-.173.156a7.31 7.31 0 01-.39.377c-.207.187-.265.222-.364.222-.105 0-.141-.026-.33-.238z" fill="#030303"/><path d="M26.732 34.233c.942-.095 1.727-.29 2.7-.665.474-.184 1.05-.405 1.83-.703.19-.073.353-.142.362-.154a.947.947 0 01.188-.093c.4-.164.869-.57 1.045-.907.053-.102.107-.185.119-.185.012 0 .048-.113.078-.251.04-.184.05-.323.035-.517-.02-.266-.073-.514-.116-.545a1.073 1.073 0 01-.096-.214c-.071-.19-.643-1.178-1.016-1.756-.27-.416-.795-1.104-1.03-1.347-.442-.454-.503-.547-.567-.853a7.082 7.082 0 00-.315-1.035c-.045-.105-.107-.171-.235-.254-.17-.108-.177-.12-.236-.355a25.08 25.08 0 00-.317-1.018c-.14-.426-.265-.85-.278-.944-.013-.093-.034-.17-.047-.17-.013 0-.041-.073-.062-.163-.1-.427-.443-1.195-.807-1.802-.364-.607-.936-1.247-1.576-1.762a9.877 9.877 0 01-.417-.35c-.166-.157-1.22-.814-1.306-.814a4.2 4.2 0 01-.331-.15c-1.39-.676-2.715-.972-4.27-.954-.596.007-.75.019-.985.079a8.973 8.973 0 01-.586.122c-.503.085-1.145.315-1.415.507a5.405 5.405 0 01-.453.246c-.196.098-.451.25-.567.337-.115.086-.335.242-.487.346-.304.207-1.226 1.107-1.505 1.47-.44.57-.834 1.288-1.21 2.2-.22.536-.532 1.599-.592 2.018a.548.548 0 01-.045.18c-.012.01-.056.216-.098.459a13.318 13.318 0 01-.43 1.725c-.056.163-.19.473-.296.69-.253.516-.294.64-.294.886 0 .332.108.556.468.974.155.18.47.447.623.53.04.023.185.113.32.2.537.35 1.253.724 2.233 1.17.244.11.45.212.46.226.048.072 2.715 1.19 3.349 1.405.308.104 1.659.644 1.676.67.01.015.135.07.279.123.143.052.593.239 1 .415 1.53.662 1.787.752 2.53.884.798.14 1.877.18 2.69.099z" fill="#ffee12"/></g></svg>