<svg xmlns="http://www.w3.org/2000/svg" width="42.646" height="41.586" viewBox="0 0 11.283 11.003"><path d="M5.642 11.003C2.527 11.003 0 8.538 0 5.5 0 2.457 2.527 0 5.642 0c3.114 0 5.641 2.457 5.641 5.501 0 3.037-2.527 5.502-5.641 5.502z" fill="#fff" fill-rule="evenodd"/><path d="M3.443 2.385c-.149.055-.283.204-.369.333-.312.465-.25 1.128.19 1.495.1.083.228.182.36.205l-.244.252-.459.458-1.475 1.466v.01l4.192 4.164h.01l4.19-4.165v-.01l-.36-.36a.4.4 0 00.196-.151.548.548 0 00.032-.612.56.56 0 00-.435-.26c-.06-.004-.12.01-.18.017.228-.228.342-.534.268-.854-.11-.474-.674-.818-1.14-.612-.03-.163-.057-.32-.138-.467a1.225 1.225 0 00-.95-.638 1.553 1.553 0 00-.468.044c.114-.196.161-.442.171-.666A1.722 1.722 0 005.79.37a1.769 1.769 0 00-1.403.02 1.91 1.91 0 00-.467.316c-.22.193-.365.46-.456.735-.103.31-.086.628-.02.944m1.213 1.916c.048.108.09.213.166.306a.97.97 0 00.94.347.95.95 0 00.297-.114c.035-.02.093-.078.135-.073.04.005.077.05.108.073.066.046.134.085.207.12.186.087.382.105.585.105a.563.563 0 00.01.26.55.55 0 00.727.35.502.502 0 00.162-.106.536.536 0 00.117-.153c.067.047.122.113.18.17l.306.307c.057.058.154.123.17.207a.475.475 0 00-.292.144c-.125.142-.126.38.014.512.063.059.145.087.225.117.048.018.108.037.128.09.024.064-.027.107-.084.12-.1.023-.216-.016-.314-.04l-.018.316.09.009-.1.117-.16.162-.595.584-2.015 2.006h-.009L3.65 8.257l-.639-.63-.17-.17-.085-.098-.006-.18v-.378h.01l.186.405.078.144.122.009h.306l-.099-.18-.168-.288-.095-.18.092-.17.252-.423h-.279l-.124.009-.09.143-.182.36H2.75v-.513h-.279l.234-.242 1.061-1.061.208-.2.125-.118.234-.052.19-.074.134-.07m4.425.93l.003.003c-.004 0-.01-.003-.003-.003M7.427 7.044l-.018.315c.276.034.658.05.773-.27a.412.412 0 00.02-.144.334.334 0 00-.045-.19c-.068-.11-.197-.143-.307-.195-.04-.02-.112-.051-.107-.106.003-.043.053-.067.09-.077.087-.022.182.017.27.028l.017-.297c-.262-.048-.683-.034-.746.297a.443.443 0 00-.008.126.373.373 0 00.048.162c.075.123.208.143.328.2.042.02.097.06.086.115-.01.048-.06.067-.104.075-.099.019-.2-.025-.297-.04m-3.795.316h.342v-.45l.066.099.122.234.067.107c.136.014.273.01.41.01l-.1-.19-.206-.341c.25-.05.288-.443.134-.603-.153-.16-.42-.117-.62-.117h-.213c-.003.124-.002.246-.002.369v.88m1.502-1.24l-.096.297-.2.62-.1.324h.225l.097-.005.087-.187c.135-.003.23 0 .367 0l.07.193h.377l-.134-.405-.182-.53-.07-.208-.043-.09-.11-.008h-.288m.962 0v.665c0 .134-.013.274.053.396.08.145.234.19.388.198.201.01.423-.017.537-.207.08-.13.075-.285.075-.432v-.62h-.342v.692c0 .087.006.21-.08.26a.19.19 0 01-.285-.125c-.016-.09-.004-.188-.004-.28v-.547h-.342m-3.687.063v.836l-.19-.18-.242-.233.27-.28.162-.143m6.898.414v.009l-.153.134a.567.567 0 00-.243-.154c-.049-.02-.125-.043-.146-.098-.038-.097.098-.122.164-.114.058.007.128.01.18.036.076.039.14.127.198.186m-5.313-.201c.017-.008.042-.006.06-.005.04 0 .077.008.105.038.058.063.034.18-.042.218-.03.014-.119.032-.138-.007-.016-.033-.006-.088-.006-.123 0-.032-.013-.104.021-.121m1.338.13l.1.36h-.208l.066-.226z" fill="#b14183"/></svg>