<svg xmlns="http://www.w3.org/2000/svg" xml:space="preserve" width="15mm" height="15mm" version="1.1" viewBox="0 0 1500 1500" id="svg8840" clip-rule="evenodd" fill-rule="evenodd" image-rendering="optimizeQuality" shape-rendering="geometricPrecision" text-rendering="geometricPrecision"><defs id="defs58"><clipPath id="id0"><path id="rect4" d="M15783 984h934v933h-934z"/></clipPath><clipPath id="id1"><path id="rect7" d="M17283 984h934v933h-934z"/></clipPath><clipPath id="id2"><path id="rect10" d="M15783 9984h934v933h-934z"/></clipPath><clipPath id="id3"><path id="rect13" d="M15822 2499h927v927h-927z"/></clipPath><clipPath id="id4"><path id="rect16" d="M17322 2499h927v927h-927z"/></clipPath><clipPath id="id5"><path id="rect19" d="M15822 11499h927v927h-927z"/></clipPath><clipPath id="id6"><path id="rect22" d="M15778 3978h945v945h-945z"/></clipPath><clipPath id="id7"><path id="rect25" d="M17278 3978h945v945h-945z"/></clipPath><clipPath id="id8"><path id="rect28" d="M15778 12978h945v945h-945z"/></clipPath><clipPath id="id9"><path id="rect31" d="M15766 5466h967v967h-967z"/></clipPath><clipPath id="id10"><path id="rect34" d="M17266 5466h967v967h-967z"/></clipPath><clipPath id="id11"><path id="rect37" d="M15766 14466h967v967h-967z"/></clipPath><clipPath id="id12"><path id="rect40" d="M15785 8519h940v940h-940z"/></clipPath><clipPath id="id13"><path id="rect43" d="M17285 8519h940v940h-940z"/></clipPath><clipPath id="id14"><path id="rect46" d="M15785 17519h940v940h-940z"/></clipPath><clipPath id="id15"><path id="rect49" d="M15839 7039h815v815h-815z"/></clipPath><clipPath id="id16"><path id="rect52" d="M17339 7039h815v815h-815z"/></clipPath><clipPath id="id17"><path id="rect55" d="M15839 16039h815v815h-815z"/></clipPath><style type="text/css" id="style2">.fil3{fill:#ef7f1a}</style></defs><circle cx="750" cy="750" r="750" id="circle710" fill="#fff383"/><g id="_1160638088" transform="matrix(1.4 0 0 1.4 -22001.126 -30682.403)"><path class="fil3" transform="rotate(-45 34983.388 -7787.762) scale(.5427)" id="rect801" d="M0 0h1302v1302H0z"/><path class="fil3" id="rect803" stroke="#fefefe" stroke-width="9.559" d="M15812.7 22455.9l440.04-440.04 440.04 440.04-440.04 440.04z"/><path d="M16314 22641c-21 20-47 30-78 30-48 0-87-21-117-63-31-42-46-91-46-149 0-65 17-117 52-157 34-41 75-61 122-61 22 0 42 4 60 13 5 3 10 4 13 4 4 0 8-3 11-9 2-5 7-8 14-8h4l12 1c7 0 12 4 14 11l22 83c2 8 3 14 3 17 0 6-6 9-18 9s-20-1-24-4c-3-2-10-12-21-27-13-21-26-36-36-44-11-8-22-13-34-13-32 0-48 19-48 57v278c0 20 9 30 26 30 19 0 29-10 29-30v-136c0-8-4-14-13-17-9-2-13-8-13-16 0-10 1-15 4-17 2-2 7-3 14-3h148c7 0 12 1 15 3 2 2 3 6 3 13s0 12-2 14c-1 3-5 5-11 6-8 3-12 7-12 15v176c0 10-1 17-3 20-2 2-7 4-15 4-7 0-12-1-15-1-3-1-8-4-13-8-16-11-32-18-47-21z" id="path805" fill="#fefefe" fill-rule="nonzero"/></g></svg>