<svg xmlns="http://www.w3.org/2000/svg" width="42.646" height="41.586" viewBox="0 0 11.283 11.003"><path d="M5.642 11.003C2.527 11.003 0 8.538 0 5.501 0 2.457 2.527 0 5.642 0c3.114 0 5.641 2.457 5.641 5.501 0 3.037-2.527 5.502-5.641 5.502z" fill="#fff" fill-rule="evenodd"/><g stroke-width=".009"><path d="M4.956 10.35a1.903 1.903 0 01-.295-.116c-.226-.087-.557-.238-.574-.262a.573.573 0 00-.07-.04 4.029 4.029 0 01-.424-.255 2.11 2.11 0 00-.166-.122 2.023 2.023 0 01-.212-.175 2.559 2.559 0 01-.294-.296 2.12 2.12 0 00-.097-.114c-.04-.04-.11-.144-.197-.287a2.518 2.518 0 00-.078-.126 3.415 3.415 0 01-.132-.29 2.804 2.804 0 01-.147-.63.431.431 0 00-.017-.105c-.004 0-.007-.006-.007-.013 0-.011.16-.013 1.39-.013h1.39v1.433c0 .789-.001 1.433-.003 1.433zM6.25 8.938V7.506h2.774l-.007.089a4.248 4.248 0 01-.12.602c-.072.215-.164.368-.318.598a1.773 1.773 0 01-.162.214.59.59 0 00-.056.065 2.108 2.108 0 01-.24.247.22.22 0 00-.053.048 2.513 2.513 0 01-.303.243c-.05.035-.1.076-.147.11a7.526 7.526 0 01-.37.216c-.12.072-.25.13-.364.184a8.885 8.885 0 01-.634.249zm-4.01-4.99c-.004-.846.005-1.443.006-2.217l.054-.022c.223-.09.793-.172 1.427-.21a8.19 8.19 0 01.156-.01c.293-.012.6-.03.884-.041l.259-.005v2.546c-.524 0-2.356-.01-2.788-.018zm4.01-1.25V1.443l.263.005c.177.004.265.008.27.015.003.006.006.005.006-.003 0-.012 0-.012.009 0 .008.012.008.012.008 0 0-.008.003-.01.007-.004s.142.015.37.024c.2.008.383.017.405.019l.109.008c.06.004.229.02.382.035.39.04.742.106.903.168l.044.017.002 1.113.007 1.122c-.924.005-1.858-.004-2.785.007z" fill="#c82025"/><path d="M5.569 10.94c-.176-.045-.371-.1-.526-.146a6.724 6.724 0 01-.716-.264 5.097 5.097 0 01-.84-.444.398.398 0 00-.056-.034.666.666 0 01-.11-.076 2.181 2.181 0 00-.19-.142 2.285 2.285 0 01-.22-.19c-.201-.19-.235-.224-.253-.252a.918.918 0 00-.074-.087 2.177 2.177 0 01-.313-.436c-.006-.013-.014-.024-.018-.024a3.28 3.28 0 01-.172-.346.198.198 0 00-.017-.047 1.843 1.843 0 01-.08-.228.261.261 0 00-.024-.065c-.021-.015-.095-.413-.103-.56l-.005-.092H.456V3.954h1.39l.002-1.188c.002-1 .004-1.191.014-1.21a.587.587 0 01.099-.121.183.183 0 00.044-.025.908.908 0 01.188-.088c.134-.046.408-.105.63-.135a.702.702 0 00.118-.022c.002-.004.082-.013.178-.021.095-.008.19-.018.212-.022.022-.004.11-.012.196-.017.086-.005.176-.01.2-.013.08-.008.363-.023.638-.033a83.13 83.13 0 012.537 0 16.341 16.341 0 01.834.046c.083.005.222.017.308.026l.224.022a.199.199 0 01.067.012c0 .003.052.013.115.022.318.042.604.112.745.182.129.064.184.116.218.206.016.04.016.094.016 1.21v1.17h1.388l.005.019c.003.01.006.81.006 1.776v1.757H9.42v.02c0 .055-.02.23-.036.323-.046.25-.12.438-.196.66-.018.05-.168.35-.182.365a4.74 4.74 0 01-.302.415c-.076.089-.155.17-.235.254a4.384 4.384 0 01-.41.347c-.161.13-.342.236-.52.342a7.253 7.253 0 01-1.06.482 10.992 10.992 0 01-.773.224c-.034.01-.132.01-.138 0zm.186-.426c.135-.031.37-.096.473-.132.81-.341 1.643-.816 2.193-1.377.173-.192.293-.433.4-.652.07-.166.13-.38.16-.563.027-.094.034-.203.045-.283l-1.382-.002a925.29 925.29 0 00-4.037 0c-1.203.002-1.361.004-1.361.015 0 .007.003.013.006.013s.012.047.018.104c.022.223.094.512.174.7.035.085.098.216.104.22l.084.136a2.03 2.03 0 00.284.387 2.988 2.988 0 00.586.53 3.725 3.725 0 00.515.325.52.52 0 01.07.039c.01.014.13.074.307.152.104.045.19.083.194.083.012 0 .147.056.15.063.022.03.792.26.89.266.01 0 .067-.01.127-.024zM10.42 6.67c0-.245.002-.868.006-1.385l.005-.94-9.58.004-.002 1.277c-.001.702 0 1.325.003 1.383l.005.107h9.563zm-8.5.02a2.2 2.2 0 01-.344-.073c-.11-.038-.16-.078-.192-.15a.155.155 0 00-.022-.035.886.886 0 01-.073-.255c-.02-.167.014-.242.11-.242.063 0 .093.027.19.174a.502.502 0 00.21.198.56.56 0 00.349.033c.046-.016.098-.058.098-.08 0-.007.003-.012.008-.012s.009-.008.009-.018c0-.01-.003-.017-.007-.017-.003 0-.013-.017-.022-.04-.013-.032-.023-.041-.074-.067a.991.991 0 00-.136-.053 1.578 1.578 0 01-.321-.128l-.044-.023a.768.768 0 01-.291-.357c-.012-.002-.028-.092-.028-.162 0-.068.016-.17.027-.18a.406.406 0 00.034-.06.766.766 0 01.196-.237.935.935 0 01.462-.15c.114-.007.197.003.358.045l.115.03.055-.018c.097-.03.125-.021.226.076.08.077.133.186.142.293.01.134-.047.213-.155.213-.06 0-.11-.025-.18-.092a1.075 1.075 0 00-.225-.173c-.17-.08-.343-.022-.328.112.008.078.068.126.2.162.197.053.32.092.382.124.039.019.074.04.079.045a.831.831 0 00.075.06.399.399 0 01.173.244.725.725 0 01-.01.343.683.683 0 01-.264.333.855.855 0 01-.313.12 2.13 2.13 0 01-.47.016zm1.842-.005a.397.397 0 01-.31-.264.215.215 0 00-.03-.063 3.041 3.041 0 01-.01-.378 9.595 9.595 0 00-.006-.382c-.003-.008-.033-.011-.107-.011a.55.55 0 01-.115-.008c-.017-.01-.025-.168-.01-.186a.604.604 0 01.08-.052.691.691 0 00.084-.056.471.471 0 01.094-.062c.003 0 .067-.04.144-.087.076-.048.14-.087.143-.087.007 0 .1-.061.114-.075.009-.01.037-.012.107-.012.08 0 .096.002.102.015.005.008.01.08.012.157.003.11.007.144.017.15.006.004.08.008.164.008.17 0 .215.008.22.037.01.043.01.092.005.15-.005.054-.01.067-.03.086-.024.022-.024.022-.182.022-.123 0-.161.003-.174.013-.017.012-.017.023-.014.284.003.31.008.345.057.388.04.036.079.04.145.019a.406.406 0 00.072-.031.089.089 0 01.044-.012c.07 0 .107.077.086.182-.01.043-.095.13-.166.167a.822.822 0 01-.536.088zm1.52 0a1.729 1.729 0 01-.345-.081c-.108-.04-.125-.06-.202-.23a1.106 1.106 0 01-.053-.247c-.008-.082.006-.132.045-.167.048-.042.099-.034.17.028.022.02.12.16.12.172 0 .019.125.125.175.148a.543.543 0 00.336.04c.057-.016.084-.033.106-.07.02-.033.02-.06 0-.102-.024-.052-.071-.08-.21-.124-.322-.103-.368-.13-.544-.306a.534.534 0 01-.148-.402c.016-.234.21-.461.463-.542a1.08 1.08 0 01.648.004c.069.02.1.02.14.004a.176.176 0 01.136.002.47.47 0 01.173.194.4.4 0 01.055.209c0 .108-.068.19-.157.19-.043 0-.132-.052-.192-.112a.926.926 0 00-.187-.156c-.083-.043-.213-.054-.272-.023-.066.034-.091.079-.08.143.008.04.04.074.096.104.032.017.192.07.212.07.045 0 .334.116.357.143.005.006.03.025.054.043a.536.536 0 01.155.176.37.37 0 00.032.056.374.374 0 01.02.08c.01.057.01.09.004.145-.01.097-.018.13-.027.13-.004 0-.008.005-.008.012a.69.69 0 01-.087.17.73.73 0 00-.045.064c-.045.069-.223.17-.371.21a1.577 1.577 0 01-.57.025zm1.893.006a.494.494 0 01-.303-.196.587.587 0 01-.041-.101c-.02-.061-.02-.081-.023-.425a3.52 3.52 0 00-.012-.37.405.405 0 00-.111-.008c-.074 0-.107-.003-.115-.011-.007-.007-.013-.04-.014-.088-.004-.093.002-.101.11-.164a.755.755 0 00.098-.063c.013-.012.066-.047.117-.078a5.61 5.61 0 00.34-.214c.024-.024.19-.027.213-.004a.624.624 0 01.015.158c.004.134.006.15.02.16.014.01.054.013.184.013.213 0 .204-.005.204.117 0 .097-.007.128-.036.153-.016.014-.035.016-.141.016-.156 0-.212.007-.222.026-.005.008-.01.114-.014.236a1.3 1.3 0 00.008.292c.02.11.042.14.108.158.042.012.085.003.15-.03.056-.028.085-.027.119.003.07.064.055.154-.04.244a.566.566 0 01-.297.158c-.073.02-.26.03-.317.017zm1.02-.018c-.075-.016-.123-.052-.14-.105-.015-.057.01-.111.073-.145.083-.047.108-.13.12-.405l.018-.413a5.53 5.53 0 00.007-.34c-.003-.104-.006-.121-.025-.155a.182.182 0 00-.113-.088c-.046-.012-.063-.035-.068-.092-.005-.066.014-.101.072-.132.043-.022.049-.023.192-.023l.378.004c.127.002.314 0 .417-.003.134-.006.208-.005.263.003a.961.961 0 01.253.072.4.4 0 01.152.158.372.372 0 01.044.197.407.407 0 01-.122.312c-.088.088-.085.112.016.165a.556.556 0 01.223.198c.045.094.05.115.05.206 0 .17-.047.28-.174.41a.61.61 0 01-.326.16.992.992 0 01-.28.016c-.32-.005-.704-.004-.855 0a1.47 1.47 0 01-.174 0zm.957-.31a.131.131 0 00.069-.068c.02-.04.022-.052.022-.16 0-.105-.003-.123-.02-.163a.294.294 0 00-.06-.08.19.19 0 00-.14-.053c-.093 0-.106.027-.106.214 0 .208.019.3.063.323.01.005.043.009.073.01a.171.171 0 00.1-.024zm-.096-.793c0-.004.014-.011.03-.017.039-.014.078-.062.093-.113a.617.617 0 00-.004-.256c-.017-.056-.058-.108-.1-.125a.243.243 0 00-.071-.011c-.035 0-.05.004-.066.02l-.021.022v.22c0 .218 0 .223.02.245.016.019.026.022.069.022.028 0 .05-.003.05-.007zm-.024-2.722a54.35 54.35 0 00-.01-1.12 1.395 1.395 0 00-.205-.068 5.843 5.843 0 00-.738-.117l-.174-.018a8.649 8.649 0 00-.404-.032c-.04-.003-.21-.01-.378-.015a2.193 2.193 0 01-.31-.02c-.004-.007-.007-.005-.007.003 0 .012-.001.012-.008 0s-.01-.011-.01 0c0 .012 0 .012-.008 0-.007-.011-.146-.013-1.168-.013a25.419 25.419 0 00-1.703.04l-.221.013a13.6 13.6 0 00-.426.034l-.074.008-.1.01a5.05 5.05 0 00-.682.12c-.146.045-.16.05-.16.075l-.005 1.11c-.003.598-.003 1.113-.003 1.113s1.153-.007 3.403-.007h3.394z"/></g></svg>