<svg xmlns="http://www.w3.org/2000/svg" width="34.735" height="33.872" viewBox="0 0 91.903 89.619"><path d="M45.952 89.62C20.586 89.62 0 69.543 0 44.81 0 20.015 20.586 0 45.952 0c25.365 0 45.951 20.015 45.951 44.81 0 24.734-20.586 44.81-45.951 44.81z" fill="#fff" fill-rule="evenodd"/><path d="M40.418 86.106l-.656-2.448a2494.72 2494.72 0 01-1.88-7.032l-.128-.472-.936-.232a27.288 27.288 0 01-3.76-1.232l-1.152-.464-1.824 1.352-1.976 1.512a3.363 3.363 0 01-.472.368 87.76 87.76 0 00-2.016 1.464l-1.792 1.296c-.056.024-.312-.12-.576-.312l-3.688-2.888a11.92 11.92 0 00-1.24-.984 15.432 15.432 0 01-1.624-1.304c0-.032.208-.56.464-1.168l.808-1.944.4-.872a46.76 46.76 0 001.232-2.872 17.696 17.696 0 01.4-.976l.464-1.112c.056-.152 0-.264-.496-.888l-1.104-1.504a4.272 4.272 0 00-.528-.728 10.816 10.816 0 01-.552-.832l-.424-.688-.608.024-8.672.336-.592.032-.36-1.136-2.24-7.44a89.304 89.304 0 014.4-2.856c.312-.16.8-.48.8-.528 0-.048.68-.48 1.512-1.008l1.512-.968v-2.184l.048-2.688.056-.512-1.408-.872-1.416-.92a7.28 7.28 0 00-1.112-.712c-.088 0-4.44-2.768-4.464-2.84-.024-.072.016-.256.864-3.072l1.12-3.736.552-1.696a231.6 231.6 0 019.64.224l.696.04.272-.448a4.256 4.256 0 01.408-.568 9.016 9.016 0 00.608-.848l1.096-1.504.624-.776-.552-1.288-1.776-4.064a6.368 6.368 0 01-.392-.832l-.88-2.064a21.992 21.992 0 01-.536-1.312 16.08 16.08 0 011.792-1.456 1.832 1.832 0 00.384-.304 188.984 188.984 0 014.544-3.632c.152-.112.312-.184.36-.168a59.76 59.76 0 011.976 1.416l1.928 1.384c.064 0 .936.648 1.024.752a93.6 93.6 0 003.656 2.68l.32.208.88-.344a27.6 27.6 0 013.352-1.08l.8-.192.128-.488 2.807-10.528h9.04l.048.24c.104.512.8 3.064.848 3.096.048.032.168.48.312 1.016l.768 2.864.736 2.792.28.96c.024.032.36.144.736.24a42.08 42.08 0 013.368 1.08c.352.136.68.232.72.2.04-.032.544-.424 1.104-.888l1.344-1.072a9.12 9.12 0 00.64-.536 110.72 110.72 0 013.664-3.04c.064 0 2.096-1.688 2.2-1.832.104-.144.2-.16.376.016a23.36 23.36 0 001.944 1.408l4.6 3.28c.032.056.096.096.144.096.128.008.416.256.416.368a5.888 5.888 0 01-.432 1.152c-.048.04-.264.632-1.904 5.184l-1.808 5.016.696.912.696.952c0 .032.896 1.416 1.048 1.616a435.44 435.44 0 005.664-.232l6.584-.288.56 1.736 1.296 4.072.752 2.568c.016.232-.016.256-2.272 1.704l-3.072 1.968-.904.616a78.56 78.56 0 01-3.272 2.128l-.584.368v3.584l.536.368.584.368a82 82 0 013.48 2.28c.096.112.656.488 1.064.72a117.432 117.432 0 014.576 3.024c-.04 0-.128.2-.2.456l-.656 2.088-1.2 3.736a44.136 44.136 0 01-.72 2.16c-.04.048-9.128-.36-11.104-.496l-.624-.04-.168.272a62.424 62.424 0 01-1.752 2.68l-.28.376 1.464 3.672 1.512 3.672c.024 0 .112.168.184.384l.664 1.704.536 1.352a16.424 16.424 0 01-1.424 1.056 5.04 5.04 0 00-.824.648 110.088 110.088 0 01-3.728 2.832c-.024 0-.296.2-.616.44-.384.288-.608.424-.672.384-.064-.04-.808-.608-1.672-1.272l-1.616-1.216a13.608 13.608 0 01-1.408-1.096 107.12 107.12 0 00-3.592-2.76l-.464-.336-.96.416c-1.544.664-3.688 1.384-5.008 1.68-.392.088-.424.112-.48.352l-1.536 5.776-.272.904c-.064.04-.88 3.032-.88 3.216 0 .112-.304.12-4.528.12h-4.528zm7.688-21.432c1.616-.264 4.304-1.024 4.656-1.312a22.864 22.864 0 011.36-.704c1.36-.672 2.104-1.128 3.056-1.88l.592-.472h-.976c-1.568 0-2.512-.224-3.32-.784l-.392-.272-.536.28a17.36 17.36 0 01-5.424 1.656 25.8 25.8 0 01-4.28 0 16.8 16.8 0 01-5.32-1.648l-1.368-.744a3.568 3.568 0 00-.416-.328l-.272-.184-.264.2-.352.28a11.2 11.2 0 01-2.68 1.24l-.24.048.416.328c1.56 1.232 3.2 2.216 4.664 2.8a1.56 1.56 0 01.368.184 12.8 12.8 0 001.992.736 22.8 22.8 0 003.952.728c.136.016 1.072.016 2.064.008 1.4-.016 2.016-.056 2.72-.168zm-18.12-7.408a12.48 12.48 0 002.624-.848 7.768 7.768 0 001.952-1.472c.416-.432.616-.72.912-1.32.464-.936.592-1.408.64-2.424.056-1.064-.088-1.824-.488-2.624-.736-1.464-2.096-2.448-4.384-3.184a10.76 10.76 0 01-1.12-.4 4.448 4.448 0 00-.728-.248c-1.384-.4-2.216-.928-2.4-1.536-.32-1.08.896-1.904 2.376-1.592.904.192 1.696.688 3.352 2.136.648.568.864.688 1.352.768.64.104 1.192-.208 1.528-.856.232-.456.256-1.224.064-1.896a6.712 6.712 0 00-1.624-2.664c-.552-.496-1.016-.64-1.536-.464-.872.288-.824.288-2.184-.056-1.576-.4-2.408-.512-3.384-.448a8.72 8.72 0 00-3.488.888c-1.776.864-3.064 2.36-3.528 4.088a6.32 6.32 0 00-.009 2.464c.168.656.624 1.56 1.104 2.168.432.552 1.24 1.28 1.776 1.584a2.136 2.136 0 01.4.28c.152.192 1.648.832 3.008 1.288 1.616.544 2.056.744 2.4 1.096.216.224.248.304.272.72.032.464.024.472-.248.752s-.968.592-1.368.592c-.136 0-.256.032-.256.072 0 .04-.176.072-.4.072-.224 0-.4-.032-.4-.072 0-.04-.104-.072-.24-.072-.384 0-1.28-.28-1.864-.584-.744-.384-1.336-.968-1.968-1.912-.664-1.008-1.008-1.384-1.416-1.536a.928.928 0 00-1.104.296c-.28.32-.336.608-.272 1.552.088 1.488.696 3.264 1.344 3.944.456.48 1.28.824 2.8 1.168a27.136 27.136 0 002.68.432 21.6 21.6 0 003.816-.168zm15.544.144a9.2 9.2 0 003.52-1.128c.552-.336 1.416-1.12 1.712-1.568.408-.592.784-1.664.96-2.744a75.28 75.28 0 00.152-4.024l.32-5.84c.128-.248.528-.56 1.144-.888.616-.328.664-.424.696-.992.016-.384-.008-.528-.12-.712-.328-.528-.96-.808-2.336-1.032-3.44-.576-7.376-.08-8.192 1.04a1.336 1.336 0 00-.136 1.4c.168.352.312.44 1.056.664.408.12.552.208.704.4.28.376.336.576.416 1.496.096 1.208.2 7.784.128 8.344-.088.672-.312 1.224-.664 1.632a1.6 1.6 0 01-1.272.616c-.816 0-1.216-.384-1.144-1.088.144-1.352.136-1.64-.056-2.056-.208-.464-.744-1.024-1.104-1.176-.136-.056-.248-.136-.248-.168s-.192-.12-.416-.2c-.728-.24-2.048-.16-2.36.144a2.792 2.792 0 01-.352.248c-.376.232-.76.68-.992 1.16a2.2 2.2 0 01-.272.464c-.096.072-.096 1.936 0 2 .04.024.136.248.216.48.304.92 1 1.736 1.936 2.272 1.744 1 4.4 1.496 6.696 1.248zm26.112-.32c.544-.568 1.632-3.016 1.632-3.672 0-.072.04-.144.088-.16a3.36 3.36 0 000-1.576 4.488 4.488 0 01-.256-.36 1.16 1.16 0 00-1.016-.584c-.632 0-.888.256-1.544 1.512-.448.872-1.12 1.512-1.848 1.76a.832.832 0 00-.288.144c-.152.224-2.456.408-3.624.288-1.336-.136-1.488-.264-1.648-1.448-.152-1.08-.16-3.152-.016-3.528.144-.376.416-.568.92-.608a1.6 1.6 0 011.864 1.512c.096.6.256 1.072.4 1.152a1.608 1.608 0 001.144-.064c.632-.384 1.064-2.04 1.064-4.096 0-1.928-.304-3.232-.864-3.728a.952.952 0 00-1.368 0c-.296.256-.376.472-.512 1.36-.176 1.168-.416 1.36-1.648 1.296-.768-.04-1.064-.144-1.2-.416a20.88 20.88 0 01-.016-3.808c.2-.744.728-.944 2.496-.928 1.536.008 2.384.144 3.064.488.528.272.744.472 1.304 1.248.448.616.624.72 1.208.72a1.04 1.04 0 001.096-.72c.24-.52.28-1.168.152-2.072-.192-1.28-.88-2.448-1.608-2.728-.32-.12-.352-.12-.992.032a32.744 32.744 0 01-1.064.24 134 134 0 01-6.488.136l-6.4.144a1.848 1.848 0 00-.592.352 1.104 1.104 0 00-.352 1.208c.08.304.136.384.384.52a4.32 4.32 0 00.672.288c.448.144.664.384.832.928.36 1.152.448 2.328.448 5.984 0 3.352-.04 4.072-.336 5.536-.208 1.04-.336 1.232-1.072 1.608-.608.304-.784.456-.84.736a1.104 1.104 0 00.28.912c.472.4-.008.376 7.48.424l7.472.152a8 8 0 00.936.112c.328.008.376-.016.656-.312zM42.426 45.898l-.048-1.216-.008-.448-.616-.392a3.816 3.816 0 01-1.736-2.536 4.68 4.68 0 01.84-3.744 6.32 6.32 0 011.92-1.424 4.656 4.656 0 00.544-.288c.056-.064.696-.264 1.376-.424 1.056-.248 2.408-.376 3.912-.376a18.16 18.16 0 014.84.552c.48.128.672.152.784.096.112-.056.096-.12-.4-.576-.968-.888-2.584-1.944-3.48-2.272a14.48 14.48 0 00-3.936-1.04 13.36 13.36 0 00-8.216 1.808c-.92.56-1.968 1.368-2.456 1.888a4.024 4.024 0 00-.48.568c0 .032.104.12.232.192.432.256 1.544 1.352 1.952 1.928 1.12 1.568 1.736 3.664 1.528 5.224-.104.776-.44 1.712-.808 2.256-.184.28-.272.472-.232.512.04.04.296.04.664-.016l1.048-.08a8.32 8.32 0 012.248.4l.504.176c.04.008.048-.32.016-.768zM32.338 34.274c.68-.76 1.744-1.784 2.36-2.272l.792-.64a17.28 17.28 0 014.664-2.304 19.912 19.912 0 013.328-.632 16.72 16.72 0 019.568 1.968 7.68 7.68 0 011.44.952 2.88 2.88 0 00.44.328c.752.456 2.136 1.792 3.048 2.944l.512.648 2.088.04 2.112.016c.04-.04-1.016-1.704-1.464-2.304a24.248 24.248 0 00-.792-1.008 13.392 13.392 0 01-.488-.608 27.28 27.28 0 00-2.408-2.232 17.12 17.12 0 00-3.032-1.96 10.776 10.776 0 01-1.016-.56c-.128-.192-2.064-.896-3.408-1.232-1.904-.48-2.872-.6-5-.6-2.368-.008-3.888.2-5.856.8-.872.264-2.568.912-2.728 1.04-.048.04-.384.224-.744.416-1.112.576-1.912 1.096-3.416 2.232-1.384 1.032-3.16 3.072-4.328 4.936l-.408.656.488.056c.92.104 1.984.288 2.616.448l.632.16.328-.44a14.56 14.56 0 01.688-.84z" fill="#444890"/></svg>