<svg xmlns="http://www.w3.org/2000/svg" xml:space="preserve" width="15mm" height="15mm" version="1.1" viewBox="0 0 1500 1500" id="svg8840" clip-rule="evenodd" fill-rule="evenodd" image-rendering="optimizeQuality" shape-rendering="geometricPrecision" text-rendering="geometricPrecision"><defs id="defs58"><clipPath id="id0"><path id="rect4" d="M15783 984h934v933h-934z"/></clipPath><clipPath id="id1"><path id="rect7" d="M17283 984h934v933h-934z"/></clipPath><clipPath id="id2"><path id="rect10" d="M15783 9984h934v933h-934z"/></clipPath><clipPath id="id3"><path id="rect13" d="M15822 2499h927v927h-927z"/></clipPath><clipPath id="id4"><path id="rect16" d="M17322 2499h927v927h-927z"/></clipPath><clipPath id="id5"><path id="rect19" d="M15822 11499h927v927h-927z"/></clipPath><clipPath id="id6"><path id="rect22" d="M15778 3978h945v945h-945z"/></clipPath><clipPath id="id7"><path id="rect25" d="M17278 3978h945v945h-945z"/></clipPath><clipPath id="id8"><path id="rect28" d="M15778 12978h945v945h-945z"/></clipPath><clipPath id="id9"><path id="rect31" d="M15766 5466h967v967h-967z"/></clipPath><clipPath id="id10"><path id="rect34" d="M17266 5466h967v967h-967z"/></clipPath><clipPath id="id11"><path id="rect37" d="M15766 14466h967v967h-967z"/></clipPath><clipPath id="id12"><path id="rect40" d="M15785 8519h940v940h-940z"/></clipPath><clipPath id="id13"><path id="rect43" d="M17285 8519h940v940h-940z"/></clipPath><clipPath id="id14"><path id="rect46" d="M15785 17519h940v940h-940z"/></clipPath><clipPath id="id15"><path id="rect49" d="M15839 7039h815v815h-815z"/></clipPath><clipPath id="id16"><path id="rect52" d="M17339 7039h815v815h-815z"/></clipPath><clipPath id="id17"><path id="rect55" d="M15839 16039h815v815h-815z"/></clipPath><style type="text/css" id="style2">.fil7{fill:#d7b56d}</style></defs><circle cx="750" cy="750" r="750" id="circle980" fill="#fff383"/><g id="g988" transform="matrix(1.4 0 0 1.4 -19900.057 -18080)"><path class="fil7" transform="matrix(.38375 -.38375 .38375 .38375 14250.5 13450)" id="rect982" d="M0 0h1302v1302H0z"/><path class="fil7" id="rect984" stroke="#fefefe" stroke-width="9.559" d="M14310 13450l440.04-440.04 440.04 440.04-440.04 440.04z"/><path d="M14789 13536l54-200c0-2 1-4 1-6 0-7-6-12-18-16-8-3-11-6-11-8v-8c0-8 1-12 2-14s4-3 8-3h86c4 0 6 0 7 2s1 6 1 13v15c-1 1-2 3-5 4-7 4-12 7-13 9-2 3-5 9-7 19l-91 337-6 21c0 1-3 2-7 2h-70c-3 0-5-1-7-3s-4-9-7-20l-91-344c-2-9-8-15-17-19-5-2-8-4-9-5s-1-4-1-7v-4c0-2 1-3 1-5 0-1-1-2-1-3v-4c0-6 3-8 9-8h158c5 0 8 3 8 10 0 1 0 5-1 15 0 2-3 4-7 6-10 3-15 9-15 17 0 2 0 4 1 7z" id="path986" fill="#fefefe" fill-rule="nonzero"/></g></svg>