<svg xmlns="http://www.w3.org/2000/svg" xml:space="preserve" width="15mm" height="15mm" version="1.1" viewBox="0 0 1500 1500" id="svg8840" clip-rule="evenodd" fill-rule="evenodd" image-rendering="optimizeQuality" shape-rendering="geometricPrecision" text-rendering="geometricPrecision"><defs id="defs58"><clipPath id="id0"><path id="rect4" d="M15783 984h934v933h-934z"/></clipPath><clipPath id="id1"><path id="rect7" d="M17283 984h934v933h-934z"/></clipPath><clipPath id="id2"><path id="rect10" d="M15783 9984h934v933h-934z"/></clipPath><clipPath id="id3"><path id="rect13" d="M15822 2499h927v927h-927z"/></clipPath><clipPath id="id4"><path id="rect16" d="M17322 2499h927v927h-927z"/></clipPath><clipPath id="id5"><path id="rect19" d="M15822 11499h927v927h-927z"/></clipPath><clipPath id="id6"><path id="rect22" d="M15778 3978h945v945h-945z"/></clipPath><clipPath id="id7"><path id="rect25" d="M17278 3978h945v945h-945z"/></clipPath><clipPath id="id8"><path id="rect28" d="M15778 12978h945v945h-945z"/></clipPath><clipPath id="id9"><path id="rect31" d="M15766 5466h967v967h-967z"/></clipPath><clipPath id="id10"><path id="rect34" d="M17266 5466h967v967h-967z"/></clipPath><clipPath id="id11"><path id="rect37" d="M15766 14466h967v967h-967z"/></clipPath><clipPath id="id12"><path id="rect40" d="M15785 8519h940v940h-940z"/></clipPath><clipPath id="id13"><path id="rect43" d="M17285 8519h940v940h-940z"/></clipPath><clipPath id="id14"><path id="rect46" d="M15785 17519h940v940h-940z"/></clipPath><clipPath id="id15"><path id="rect49" d="M15839 7039h815v815h-815z"/></clipPath><clipPath id="id16"><path id="rect52" d="M17339 7039h815v815h-815z"/></clipPath><clipPath id="id17"><path id="rect55" d="M15839 16039h815v815h-815z"/></clipPath><style type="text/css" id="style2">.fil4{fill:#a75f4a}</style></defs><circle cx="750" cy="750" r="750" id="circle720" fill="#fff383"/><g id="_1160635928" transform="matrix(1.4 0 0 1.4 -19900.058 -24379.996)"><path class="fil4" transform="rotate(-45 28794.557 -8231.112) scale(.5389)" id="rect836" d="M0 0h1302v1302H0z"/><path class="fil4" id="rect838" stroke="#fefefe" stroke-width="9.492" d="M14313.1 17950l436.963-436.963 436.963 436.963-436.963 436.963z"/><path d="M14728 17911l-16-66c-1-7-6-13-13-19-5-3-8-7-8-10v-18c0-5 3-8 10-8h142c4 0 7 1 9 3 1 1 1 5 1 11 0 9 0 15-1 16-2 2-5 4-9 6-7 3-11 5-11 8 0 4 1 9 3 16l40 165 42-170v-6c0-8-6-14-17-18-6-2-9-8-10-17v-8c0-4 4-6 12-6h80c5 0 9 1 11 2 1 2 2 5 2 10v4l-1 10c-1 4-5 8-12 11-6 3-10 8-12 15l-84 340c-3 13-6 21-8 24-2 2-6 4-11 4h-58c-7 0-11-5-12-15 0-2-1-3-1-4l-44-182-44 185c-1 7-3 12-5 13-2 2-5 3-9 3h-61c-7 0-11-9-14-27-1-3-1-6-2-8l-83-333c-2-7-6-12-14-15-7-3-10-6-10-11v-20c0-4 3-6 10-6h137c5 0 8 1 10 3 2 1 3 6 3 12 0 7-1 12-1 14-1 2-3 4-7 6-5 4-7 7-7 10 0 4 1 9 2 15l44 176z" id="path840" fill="#fefefe" fill-rule="nonzero"/></g></svg>