<svg xmlns="http://www.w3.org/2000/svg" width="42.219" height="41.17" viewBox="0 0 11.17 10.892"><path d="M5.585 10.893C2.502 10.893 0 8.453 0 5.446 0 2.433 2.502 0 5.585 0s5.585 2.433 5.585 5.446c0 3.007-2.502 5.447-5.585 5.447z" fill="#fff" fill-rule="evenodd"/><path d="M1.101 8.222a2.821 2.821 0 01-.09-.176l.265-.145.264-.142-.273.007-.34.007H.858l-.112-.207a2.712 2.712 0 01-.108-.21c.002-.003.183.002.402.01l.398.016.015-.023.223-.366c.115-.188.211-.342.214-.342.003 0 .06.1.125.223l.12.223-.206.274-.215.288c-.006.007.016 0 .05-.02a42.527 42.527 0 01.46-.248l.054-.03.092.17c.05.094.092.174.092.18 0 .006-1.217.666-1.254.68-.01.003-.038-.04-.107-.169zm8.253-.21c-.534-.257-.646-.314-.642-.327.003-.009.051-.112.108-.23l.104-.214.437.003.437.003-.048-.02a17.229 17.229 0 01-.662-.32 4 4 0 01.082-.176l.083-.17.037.02.642.31c.333.16.61.292.613.296a1.8 1.8 0 01-.104.236l-.11.23h-.857l.068.027c.062.025.618.287.627.295a4.55 4.55 0 01-.162.341 16.43 16.43 0 01-.653-.304zM1.108 6.475a67.719 67.719 0 01-.725-.157 4.33 4.33 0 01-.042-.455l.69-.32c.375-.174.683-.315.684-.314.007.006.047.426.041.431a1.765 1.765 0 01-.11.05 1.016 1.016 0 00-.105.05c0 .003.007.09.018.196.011.105.021.201.021.214 0 .023.004.025.12.048.066.013.121.025.122.026.003.003.04.347.04.372 0 .01-.005.017-.015.016-.01 0-.34-.07-.739-.156zm.15-.368a6.705 6.705 0 01-.014-.115.67.67 0 00-.013-.095.912.912 0 00-.125.05 3.35 3.35 0 01-.2.081l-.082.03.063.005c.034.004.13.02.212.036l.157.032c.004 0 .005-.01.002-.024zm8.704.247a22.196 22.196 0 01-.625-.034 5.086 5.086 0 01.017-.394c.002-.002.127.003.28.011.15.007.277.011.28.008.003-.003.01-.1.015-.214l.01-.208h-.047a11.052 11.052 0 01-.518-.028 3.91 3.91 0 01.021-.39c.008-.008 1.426.057 1.433.065.005.005-.01.391-.016.394a11 11 0 01-.26-.01 6.785 6.785 0 00-.26-.01 9.834 9.834 0 00-.02.42c0 .002.118.01.26.015l.26.012-.002.054-.008.198-.006.143h-.097a50.207 50.207 0 01-.718-.032zm-8.82-1.267a.99.99 0 01-.43-.18c-.26-.212-.332-.576-.194-.97.035-.099.117-.267.133-.273.01-.003.322.124.337.138a.601.601 0 01-.039.072c-.16.272-.175.52-.038.653a.478.478 0 00.34.125c.07 0 .087-.003.134-.026a.295.295 0 00.144-.148.497.497 0 00.042-.166 5.528 5.528 0 00-.213-.055 9.46 9.46 0 01-.21-.054 9.546 9.546 0 01.098-.383c.002-.002.158.036.346.084l.343.087.007.033a1.74 1.74 0 01-.009.37c-.069.38-.242.611-.51.68a.922.922 0 01-.282.014zm8.27-.082a5.776 5.776 0 01-.12-.406 1.32 1.32 0 01.1-.074l.094-.067-.01-.037-.066-.208-.053-.17h-.12a.48.48 0 01-.126-.01 4.508 4.508 0 01-.063-.19l-.058-.185.365.006.76.012.396.006.066.213c.037.117.065.216.063.22-.002.004-.272.205-.602.446l-.61.447c-.009.006-.014.005-.017-.003zm.482-.832a3.585 3.585 0 01.22-.143c0-.003-.422.005-.425.008-.005.005.065.223.072.223.004 0 .063-.04.133-.087zm-8.409-.758c-.324-.22-.592-.403-.593-.407-.003-.01.076-.136.21-.338.166-.248.291-.356.44-.382.074-.013.142 0 .24.047.17.084.275.251.26.414l-.006.056.048.005c.026.003.17.012.32.02s.285.018.302.021l.03.006-.129.187-.134.198c-.006.01-.058.006-.282-.02a4.567 4.567 0 00-.298-.03c-.019.001.017.03.192.146.12.08.214.15.212.156-.003.014-.21.321-.216.321-.002 0-.27-.18-.595-.4zm.166-.406c.056-.072.073-.163.04-.218a.2.2 0 00-.127-.082c-.052-.007-.107.028-.15.094-.02.028-.03.054-.027.058.016.017.235.164.243.164.005 0 .014-.007.02-.016zm7.33.447a.621.621 0 01-.298-.188c-.072-.076-.38-.498-.37-.507a82.316 82.316 0 011.148-.845c.01 0 .173.203.313.39.111.15.162.246.183.35a.312.312 0 01-.075.287.354.354 0 01-.362.102l-.046-.016v.083c0 .07-.004.09-.024.134a.417.417 0 01-.47.21zm.081-.409c.06-.03.08-.11.043-.179-.03-.058-.084-.126-.096-.12a1.456 1.456 0 00-.107.073l-.095.07.015.027a.49.49 0 00.116.126c.033.02.087.022.123.003zm.463-.367c.057-.056.05-.104-.035-.212-.026-.033-.045-.05-.05-.045l-.089.065-.085.065c-.014.013.06.11.103.137a.141.141 0 00.08.026c.035 0 .046-.005.076-.036zm-7.04-.557a29.35 29.35 0 01-.236-.718c0-.016.347-.282.361-.277.02.007 1.25.855 1.248.86-.002.003-.08.063-.173.131-.107.08-.172.123-.18.118a4.746 4.746 0 01-.09-.064 1.143 1.143 0 00-.093-.063c-.01-.004-.3.202-.349.246-.01.01-.004.033.03.126l.04.115-.155.114a2.649 2.649 0 01-.16.114c-.004 0-.113-.316-.243-.702zm.457-.136l.096-.07a.421.421 0 00-.1-.084 4.154 4.154 0 01-.177-.133l-.07-.056.03.065c.017.037.052.128.08.205.026.076.05.138.05.138s.042-.029.09-.065zm5.171.307a.4.4 0 11.306-.74c.16.077.254.252.225.423a.403.403 0 01-.53.317zm-.814-.25a7.85 7.85 0 01-.224-.085 12.531 12.531 0 01-.036-.275c-.034-.277-.044-.33-.054-.304l-.088.24c-.045.125-.085.23-.09.235a3.973 3.973 0 01-.37-.126c-.003 0 .103-.296.234-.655.13-.36.242-.664.247-.678l.01-.024.241.082c.42.142.544.217.616.374.078.171-.005.43-.176.542a.466.466 0 01-.185.064c-.022 0-.026.003-.023.016.015.052.028.116.074.366l.054.293c.002.01 0 .016-.002.015a7.76 7.76 0 01-.228-.08zm-.005-.918A.17.17 0 007.38.943c-.014-.05-.085-.105-.16-.122L7.191.815 7.14.958a1.32 1.32 0 00-.048.146.432.432 0 00.053.021c.062.022.102.023.15.001zm-3.359.791A378.356 378.356 0 013.585.57c-.005-.012.036-.025.23-.075.13-.033.244-.06.253-.06.014 0 .358.394.522.597a.26.26 0 00.041.045 10.37 10.37 0 01-.194-.74 4.61 4.61 0 01.366-.092c.008.008.36 1.373.356 1.383a2.076 2.076 0 01-.243.072c-.193.05-.242.06-.25.05a25.18 25.18 0 01-.475-.56c-.085-.112-.087-.113-.065-.05.031.09.19.707.183.713a2.59 2.59 0 01-.186.052l-.179.046zm1.88-.25a9.41 9.41 0 01-.4-.024c-.007-.007.06-1.425.066-1.43.005-.006.836.03.841.035.003.002-.015.335-.018.337 0 0-.1-.003-.22-.01l-.22-.01-.007.098-.006.096.057.005c.032.003.126.008.21.012l.152.006v.065c0 .036-.003.11-.006.164l-.006.098-.164-.006a3.866 3.866 0 01-.21-.01l-.047-.007-.005.112a.855.855 0 000 .116c.001.002.1.008.218.014l.216.01.002.031c0 .018 0 .096-.005.173l-.007.14-.023.002-.42-.018z" fill="#e20613"/><path d="M4.854 10.636l-.394-.06c-.1-.015-.102-.015-.102-.039 0-.033.043-.3.05-.307a6.39 6.39 0 01.414.057c.023.005.023.004.037-.094l.014-.1-.208-.03c-.166-.025-.207-.034-.207-.045 0-.024.045-.302.05-.306.001-.002.095.01.21.026.111.017.204.03.204.026l.017-.112.016-.107-.019-.004-.214-.033a2.24 2.24 0 01-.2-.034c-.007-.006.04-.324.047-.333.006-.006.818.113.827.122.003.003-.04.318-.098.7l-.104.707c0 .016-.017.015-.34-.034zm.867.044a76.907 76.907 0 01-.074-1.436 4.45 4.45 0 01.391-.02c.005.004.083 1.424.078 1.431a.986.986 0 01-.147.012 5.058 5.058 0 00-.248.013zm1.014-.064a80.606 80.606 0 01-.23-1.44c.002-.01.348-.165.424-.19.015-.004.045.033.186.23a4.798 4.798 0 01.333.502 2.92 2.92 0 01-.05-.189 22.763 22.763 0 01-.122-.677c0-.008.07-.043.197-.096a9.54 9.54 0 01.208-.085c.01-.002.884 1.17.885 1.184 0 .005-.37.163-.383.163a11.545 11.545 0 01-.504-.713c.028.1.058.258.096.513l.051.328c.005.025 0 .028-.334.167l-.034.014-.198-.26a5.88 5.88 0 01-.317-.446c-.006-.009.003.041.02.112.022.098.131.654.143.73 0 .007-.06.038-.18.088a6.217 6.217 0 01-.184.076c-.002 0-.005-.005-.007-.012zm-3.277-.346l-.222-.12.003-.073c.006-.157.03-.658.034-.722l.005-.069-.054.11c-.054.11-.297.557-.309.57a2.953 2.953 0 01-.33-.174c-.007-.006.66-1.244.678-1.262.002-.002.104.05.227.116l.223.12-.004.051-.014.292a6.572 6.572 0 01-.033.514c-.003.016.008 0 .028-.04.05-.1.342-.637.348-.637.003 0 .078.04.168.088.121.065.162.092.16.102a89.328 89.328 0 01-.679 1.247 1.897 1.897 0 01-.228-.113zM2.293 8.964a.389.389 0 01-.277-.404.376.376 0 01.15-.292.415.415 0 01.44-.04.46.46 0 01.16.16.389.389 0 01.045.227.392.392 0 01-.4.366.476.476 0 01-.118-.017zm6.316-.046a.376.376 0 01-.16-.1.37.37 0 01-.108-.304.278.278 0 01.037-.152.402.402 0 11.704.386.443.443 0 01-.178.155.293.293 0 01-.152.031.34.34 0 01-.143-.016zm-3.237-.232a1.581 1.581 0 00-.108-.009.392.392 0 01-.085-.01c.002-.002.05-.015.103-.03.304-.08.594-.214.862-.398.144-.098.243-.18.433-.357.24-.224.408-.355.605-.47.062-.038.071-.04.168-.049a3.47 3.47 0 01.507.01c.105.014.285.047.294.055.01.01-.122.163-.242.284a3.287 3.287 0 01-1.927.953 4.977 4.977 0 01-.61.022zm-1.51-.466a3.246 3.246 0 01-.658-.525 3.198 3.198 0 01-.682-1.02c0-.008.105-.01.335-.01h.334l.048.023a.2.2 0 01.07.056c.02.031.022.04.022.15v.115l1.83.002 1.828.002-.072.046a4.17 4.17 0 00-.203.14.645.645 0 01-.26.133 6.443 6.443 0 01-1.89.31c-.488.01-.98-.034-1.319-.115a.4.4 0 00-.076-.014c-.005.005.23.093.371.14.37.12.783.2 1.164.23.248.018.688.002.886-.034.023-.004.022-.002-.01.013a5.261 5.261 0 01-1.216.37 5.59 5.59 0 01-.392.05 1.04 1.04 0 01-.11-.063zm4.285-.96a2.967 2.967 0 00-.358-.082l-.045-.007.045-.013c.104-.028.27-.05.425-.055.132-.004.161-.003.161.007 0 .02-.11.182-.12.18a1.13 1.13 0 01-.108-.03zM2.41 6.367a3.241 3.241 0 01-.129-.648 4.178 4.178 0 01.01-.727c.03-.23.094-.497.17-.709a3.322 3.322 0 011.417-1.71 3.314 3.314 0 012.703-.3 3.31 3.31 0 011.953 1.703 3.25 3.25 0 01.31 1.773c-.006.031-.009.034-.038.034-.026 0-.03.003-.03.022 0 .023.012.02-.207.038l-.075.006V4.785l-.06-.006a.62.62 0 00-.119 0l-.058.005v-.69h-.07l-.007.088c-.012.192-.018.221-.053.277a.771.771 0 01-.764.363 1.728 1.728 0 00-.1-.01c-.013 0-.015.06-.015.585v.587h-.022c-.017 0-.023.005-.023.02 0 .017-.003.018-.043.012a1.28 1.28 0 00-.112-.01l-.068-.003-.002-.555c-.002-.547-.002-.554.016-.564.017-.009.018-.019.018-.168 0-.15 0-.158-.018-.164a.028.028 0 01-.018-.027c0-.017-.005-.023-.018-.023-.018 0-.018 0 .005-.045a.21.21 0 00.023-.068c0-.017.005-.023.018-.023.018 0 .018-.006.018-.344v-.344L7 3.668c-.02-.01-.022-.016-.022-.055v-.044l-.069-.026-.068-.026v-.56h-.063v.264c0 .207-.002.264-.012.264a.604.604 0 01-.084-.029c-.07-.027-.076-.028-.173-.022-.106.006-.25.027-.306.043-.028.008-.034.015-.034.034 0 .02.01.03.054.06.03.02.053.037.05.04a.343.343 0 01-.067.02l-.06.013-.002.327c-.002.302 0 .33.015.372.012.032.023.047.036.05.015.001.02.008.02.032 0 .028-.004.031-.03.034l-.03.003-.006.295c-.008.396-.03.721-.063.88l-.01.048-.056-.006a.3.3 0 01-.06-.01.511.511 0 00-.072.024 3.051 3.051 0 01-.09.031l-.02.006V3.91l-.143-.154a1.914 1.914 0 00-.149-.152l-.225.116-.22.113v.31c0 .293.002.325.033.605l.032.297-.032.328a4.608 4.608 0 00-.033.528v.2h-.036c-.034 0-.035 0-.038-.034l-.003-.034-.05-.003c-.027-.002-.052-.007-.056-.012-.003-.005-.027-.012-.054-.015l-.05-.006-.016-.173-.018-.173.026-.319.025-.319-.025-.312-.026-.312.016-.31c.008-.17.015-.42.015-.555v-.245l-.34-.152-.338-.152-.117-.018a.731.731 0 00-.125-.013 68.24 68.24 0 00-.008 1.435V5.81h-.078c-.075 0-.08.001-.148.041a.723.723 0 01-.077.041c-.003 0-.006-.023-.006-.05 0-.05 0-.05-.032-.064-.026-.01-.032-.018-.032-.04v-.025l-.097-.008-.098-.008-.002-.157-.002-.157h-.063v.31h-.025a5.32 5.32 0 01-.173-.013.623.623 0 00-.177 0l-.03.01-.003.082-.003.083-.04.018-.04.018v.583h-.252l-.033-.107z" fill="#009739"/></svg>