<svg xmlns="http://www.w3.org/2000/svg" width="42.646" height="41.586" viewBox="0 0 11.283 11.003"><path d="M5.642 11.003C2.527 11.003 0 8.538 0 5.5 0 2.457 2.527 0 5.642 0c3.114 0 5.641 2.457 5.641 5.501 0 3.037-2.527 5.502-5.641 5.502z" fill="#fff" fill-rule="evenodd"/><path d="M5.03 9.947l-.104-.032c-.144-.045-.21-.087-.247-.158a.169.169 0 01.005-.146.544.544 0 01.163-.153.564.564 0 01.068-.046.356.356 0 00.06-.04c.003-.006.013-.01.023-.01.009 0 .018-.003.02-.007a.227.227 0 01.068-.048.15.15 0 00.039-.027.157.157 0 01.038-.027.119.119 0 00.034-.03l.027-.029V7.648c0-.96-.003-1.55-.008-1.559-.007-.01-.048-.013-.276-.013-.196 0-.27.003-.278.01-.012.013-.002.04.09.23.083.174.099.21.127.285a.92.92 0 01.069.35.471.471 0 01-.095.233c0 .006-.01.016-.02.02a.418.418 0 01-.24.081.356.356 0 01-.181-.058.155.155 0 01-.04-.034.375.375 0 00-.027-.05c-.028-.045-.028-.049-.025-.136.003-.083.005-.093.03-.13a.44.44 0 01.108-.112c.01-.005.02-.014.02-.02a.781.781 0 00-.16-.162 1.778 1.778 0 01-.048-.036 1.173 1.173 0 00-.132-.095c-.004 0-.017-.01-.03-.024a.15.15 0 00-.04-.032.549.549 0 01-.067-.05 1.004 1.004 0 00-.08-.059.132.132 0 01-.038-.036c-.005-.009-.015-.017-.022-.017-.007 0-.022-.012-.032-.027-.01-.015-.023-.027-.028-.027a.299.299 0 01-.08-.08c0-.004-.01-.016-.023-.027a.317.317 0 01-.051-.08c-.026-.055-.028-.068-.024-.12.01-.14.108-.237.283-.278.046-.01.317-.013 1.76-.013 1.105 0 1.722.003 1.754.01a.63.63 0 01.19.072c0 .004.01.014.026.022.015.008.027.02.027.025 0 .006.01.02.02.03a.213.213 0 01.032.083c.016.077.004.16-.03.2a.098.098 0 00-.022.034 1.825 1.825 0 01-.276.258c-.014.015-.031.027-.037.027-.006 0-.013.003-.014.007a.953.953 0 01-.127.098.274.274 0 00-.043.034c-.013.013-.03.024-.035.024-.006 0-.011.003-.013.007a.695.695 0 01-.074.06 1.385 1.385 0 00-.124.107l-.054.054.07.07c.07.068.072.072.088.14a.267.267 0 01-.007.173.304.304 0 01-.152.15.411.411 0 01-.287-.02.428.428 0 01-.125-.124c-.064-.104-.065-.302-.003-.463a.563.563 0 00.026-.078c0-.015.117-.267.186-.402a.258.258 0 00.024-.068c.003-.024 0-.028-.024-.033a4.141 4.141 0 00-.266-.007c-.226 0-.238 0-.256.017-.018.018-.018.03-.018 1.56v1.54l.034.035c.03.031.183.137.197.137.008 0 .063.04.067.048a.568.568 0 01.229.182c.047.07.05.127.009.19a.413.413 0 01-.194.121l-.101.03a.61.61 0 01-.21.018c-.08 0-.166-.004-.194-.009a2.687 2.687 0 00-.52-.005c-.107.013-.38.02-.41.01zM1.454 5.541V2.228h1.405v.517h-.752V8.33h.752v.526H1.454zm6.97 3.05V8.33h.744V2.745h-.743v-.518H9.83v6.627H8.425zM4.41 5.413a.323.323 0 01-.09-.076.934.934 0 01-.11-.203.386.386 0 00-.027-.066.324.324 0 01-.027-.067 6.973 6.973 0 01-.248-.855 4.908 4.908 0 01-.078-.335 2.26 2.26 0 00-.03-.14 1.007 1.007 0 01-.024-.114 17.582 17.582 0 01-.232-1.419 1.356 1.356 0 00-.034-.188.113.113 0 00-.04-.02 2.182 2.182 0 01-.32-.173.871.871 0 01-.193-.18c-.07-.093-.094-.24-.053-.33.036-.08.094-.124.236-.179.026-.01.187-.013.86-.015.503-.002.859 0 .908.006.114.012.239.075.276.137a.3.3 0 01.056.153c.01.102-.002.154-.045.22-.071.107-.172.151-.317.138a.223.223 0 01-.125-.047.268.268 0 01-.063-.048.099.099 0 00-.022-.03.193.193 0 01-.034-.063l-.012-.039-.096-.003-.097-.003-.006.03a.994.994 0 00.002.211c.006.03-.008.023.205.081.128.035.339.088.44.111l.173.04c.063.014.125.026.139.026.013 0 .072.01.13.02.088.017.139.02.292.02.225.001.289-.008.694-.102a2.77 2.77 0 00.104-.028l.163-.046a21.597 21.597 0 00.367-.107l.176-.053.076-.024-.004-.083a.445.445 0 00-.01-.093c-.007-.009-.06-.01-.22-.01h-.213l-.01.025a.326.326 0 01-.017.04.07.07 0 00-.01.028.45.45 0 01-.105.112.359.359 0 01-.167.05.315.315 0 01-.277-.145.207.207 0 01-.044-.124.594.594 0 010-.11c.006-.044.04-.12.052-.12.004 0 .007-.006.007-.012 0-.02.074-.08.138-.113a.405.405 0 01.124-.04 30.114 30.114 0 011.379 0c.164.013.318.071.382.143a.367.367 0 01.079.245c-.008.108-.095.233-.222.32a.255.255 0 00-.047.037c-.002.004-.01.007-.02.007a1.974 1.974 0 01-.242.118c-.04.015-.044.025-.056.127a5.264 5.264 0 01-.038.231 2.5 2.5 0 00-.026.163c0 .01-.013.077-.028.15a30.65 30.65 0 01-.106.476 9.14 9.14 0 01-.09.353l-.028.11a9.967 9.967 0 01-.145.484 1.286 1.286 0 00-.03.104.652.652 0 01-.03.093.343.343 0 00-.024.072.099.099 0 01-.012.04.583.583 0 00-.028.072 1.087 1.087 0 01-.061.158 1.6 1.6 0 01-.09.245 5.769 5.769 0 01-.123.272 1.01 1.01 0 01-.107.191c-.008.008-.014.02-.014.025 0 .005-.008.018-.017.025a.258.258 0 00-.03.032.271.271 0 01-.044.04c-.03.022-.038.023-.187.025-.177.003-.186.001-.252-.067a.843.843 0 01-.113-.17.443.443 0 00-.028-.05.223.223 0 01-.027-.06.206.206 0 00-.027-.058.227.227 0 01-.027-.054.372.372 0 00-.027-.068.512.512 0 01-.028-.064.496.496 0 00-.027-.066.388.388 0 01-.027-.07.27.27 0 00-.022-.056.577.577 0 01-.031-.08.57.57 0 00-.033-.085.247.247 0 01-.023-.063.117.117 0 00-.012-.04 1.431 1.431 0 01-.046-.122.764.764 0 00-.042-.107c-.005-.005-.008-.018-.008-.029a.373.373 0 00-.027-.085.427.427 0 01-.028-.082.352.352 0 00-.023-.073.803.803 0 01-.036-.108 1.097 1.097 0 00-.034-.113l-.023-.063-.015.036a2.5 2.5 0 00-.038.104.447.447 0 01-.031.076.045.045 0 00-.008.025.322.322 0 01-.027.074.418.418 0 00-.027.068.385.385 0 01-.028.066.365.365 0 00-.027.067.303.303 0 01-.027.064.302.302 0 00-.027.065c0 .01-.025.067-.083.188a.332.332 0 00-.026.066.16.16 0 01-.021.045.312.312 0 00-.03.057 7.774 7.774 0 01-.32.618.377.377 0 01-.046.066.433.433 0 01-.14.135c-.024.012-.06.015-.17.014-.076 0-.145-.003-.152-.006zm.472-1.369a4.268 4.268 0 00.244-.498.34.34 0 01.024-.064.904.904 0 00.035-.093l.03-.09a2.13 2.13 0 00.074-.252l.03-.138a2.92 2.92 0 00.06-.432V2.43l-.065-.01a12.052 12.052 0 01-.76-.148l-.077-.022.003.055a12.818 12.818 0 00.157 1.037c0 .01.012.065.027.12.015.055.027.107.027.116 0 .018.045.174.079.274l.03.095a.749.749 0 00.059.131.163.163 0 00.024-.034zm1.982-.095a1.866 1.866 0 00.12-.267.403.403 0 00.028-.07.3.3 0 01.023-.066.59.59 0 00.03-.084l.03-.1c.044-.126.08-.25.08-.267 0-.01.012-.059.027-.108a.77.77 0 00.027-.11c0-.01.012-.073.027-.14.046-.21.1-.565.087-.579a.305.305 0 00-.056.015l-.153.046-.183.056a.647.647 0 01-.1.027.855.855 0 00-.102.026c-.118.037-.286.08-.338.087a.137.137 0 00-.047.013c-.008.013.012.24.032.35.01.06.023.138.027.174.004.037.018.105.03.153a3.554 3.554 0 00.24.738c.005.012.027.051.047.086l.05.092c.009.016.019.028.023.026a.945.945 0 00.052-.098z"/></svg>