<svg xmlns="http://www.w3.org/2000/svg" viewBox="0 0 38 38"  fill-rule="nonzero" stroke-linejoin="round" stroke-miterlimit="2" xmlns:v="https://vecta.io/nano"><path d="M36.72 18.72c0-9.875-8.125-18-18-18s-18 8.125-18 18 8.125 18 18 18 18-8.125 18-18" fill="#772500"/><path d="M13.29 29l-.15-.18v-.87l.15-.18c1.058-.049 2.112-.179 3.15-.39a.66.66 0 0 0 .39-.36c.214-.944.305-1.912.27-2.88l.12-7.5-.09-4.77c0-.18-.09-.27-.27-.27a1.01 1.01 0 0 0-.42.12l-4 1.83-.21-.12c-.053-.597-.153-1.189-.3-1.77l.07-.26c3.103-.855 6.157-1.877 9.15-3.06l.39.24c-.15 1.35-.24 3.21-.3 5.55l-.09 8.49c-.045 1.422.015 2.846.18 4.26.04.206.158.389.33.51a11.36 11.36 0 0 0 3 .36l.15.18v.87l-.15.18h-1.83c-1.83 0-3.09-.06-3.72-.06-1.78-.02-3.72.007-5.82.08z" fill="#fff"/></svg>
