<svg xmlns="http://www.w3.org/2000/svg" viewBox="0 0 38 38"  fill-rule="nonzero" stroke-linejoin="round" stroke-miterlimit="2" xmlns:v="https://vecta.io/nano"><path d="M36.72 18.72c0-9.875-8.125-18-18-18s-18 8.125-18 18 8.125 18 18 18 18-8.125 18-18" fill="#772500"/><path d="M23.33 17.18c-.05 2.194.084 4.388.4 6.56a5.9 5.9 0 0 0 1.17 2.9 2 2 0 0 0 1.45.6c.852.043 1.648-.443 2-1.22.57-1 .83-3 .83-5.87.095-2.666-.164-5.332-.77-7.93-.4-1.37-1.14-2-2.25-2-.883-.006-1.691.508-2.06 1.31-.51.86-.77 2.77-.77 5.65zM19.88 19c-.091-2.074.179-4.149.8-6.13A6.63 6.63 0 0 1 23 9.71c1.066-.692 2.319-1.041 3.59-1a5.7 5.7 0 0 1 3.34.88c.947.693 1.648 1.671 2 2.79a18.5 18.5 0 0 1 .69 5.85c.095 2.113-.186 4.226-.83 6.24a6.6 6.6 0 0 1-2.25 3.25c-1.034.723-2.279 1.085-3.54 1.03-1.207.03-2.393-.32-3.39-1a5.46 5.46 0 0 1-2.08-2.85 18.36 18.36 0 0 1-.65-5.9zM6.57 28.47l-.14-.17v-.83l.14-.17a20.17 20.17 0 0 0 3-.37.66.66 0 0 0 .37-.34c.202-.899.286-1.82.25-2.74l.12-7.12-.09-4.54c-.09-.29-.11-.25-.25-.25-.14.008-.276.046-.4.11l-3.82 1.74-.2-.12A10.61 10.61 0 0 0 5.26 12l.12-.23c2.947-.808 5.848-1.777 8.69-2.9l.37.23c-.14 1.28-.23 3.05-.28 5.27l-.09 8.07c-.039 1.336.018 2.672.17 4a.81.81 0 0 0 .31.49c.935.235 1.896.35 2.86.34l.14.17v.83l-.14.17h-1.74c-1.74 0-2.94-.06-3.54-.06l-5.56.09z" fill="#fff"/></svg>
