<svg xmlns="http://www.w3.org/2000/svg" viewBox="0 0 38 38"  fill-rule="nonzero" stroke-linejoin="round" stroke-miterlimit="2" xmlns:v="https://vecta.io/nano"><path d="M36.72 18.72c0-9.875-8.125-18-18-18s-18 8.125-18 18 8.125 18 18 18 18-8.125 18-18" fill="#772500"/><path d="M19.36 21.27l.24-10a38.65 38.65 0 0 0-2.76 4.38c-1.045 1.822-1.993 3.698-2.84 5.62l2.55.06 2.81-.06zm0 2.46l-7.41.06-.06-.39-.15-.87a75.64 75.64 0 0 1 3.51-6.93c1.26-2.25 2.653-4.424 4.17-6.51l3.75-.75.33.3-.21 4.29-.21 8.34h2.7l.09.21v2.28l-.06.12a26.46 26.46 0 0 0-2.7-.12v.69c-.081.955-.01 1.917.21 2.85a4.91 4.91 0 0 0 2.49.51l.15.09V29l-.15.09-4.8-.15h-1.95l-3.27.06-.12-.12v-1.1l.12-.12c.933-.021 1.864-.091 2.79-.21a.83.83 0 0 0 .54-.51c.162-1.062.242-2.135.24-3.21z" fill="#fff"/></svg>
