<svg xmlns="http://www.w3.org/2000/svg" viewBox="0 0 38 38"  fill-rule="nonzero" stroke-linejoin="round" stroke-miterlimit="2" xmlns:v="https://vecta.io/nano"><path d="M36.72 18.72c0-9.875-8.125-18-18-18s-18 8.125-18 18 8.125 18 18 18 18-8.125 18-18" fill="#772500"/><path d="M12.27 24.36v-.12l1-.3c.528 1.131 1.32 2.119 2.31 2.88a4.36 4.36 0 0 0 2.58.75 3.56 3.56 0 0 0 2.76-1.17 4.62 4.62 0 0 0 1.05-3.18c.076-1.185-.341-2.351-1.15-3.22-.78-.81-1.878-1.238-3-1.17-.561-.006-1.12.086-1.65.27-.634.248-1.23.585-1.77 1l-.6-.33.27-6-.24-5.22.21-.18 6 .18 4.71-.18.18.33c-.111.543-.172 1.096-.18 1.65l.06 1.47-.21.18-5.34-.09-3.54.06-.15 4.86a7.38 7.38 0 0 1 1.89-.83c.653-.166 1.326-.247 2-.24 1.644-.111 3.269.412 4.54 1.46a5.54 5.54 0 0 1 1.59 4.17c.001 2.12-.906 4.142-2.49 5.55-1.693 1.566-3.935 2.407-6.24 2.34-.634.002-1.267-.058-1.89-.18-.588-.116-1.162-.297-1.71-.54a37.55 37.55 0 0 0-.99-4.2z" fill="#fff"/></svg>
