<svg xmlns="http://www.w3.org/2000/svg" viewBox="0 0 38 38"  fill-rule="nonzero" stroke-linejoin="round" stroke-miterlimit="2" xmlns:v="https://vecta.io/nano"><path d="M36.72 18.72c0-9.875-8.125-18-18-18s-18 8.125-18 18 8.125 18 18 18 18-8.125 18-18" fill="#202020"/><path d="M17.62 19.38A5.77 5.77 0 0 0 16 21.3c-.328.693-.492 1.453-.48 2.22a4.33 4.33 0 0 0 1.08 3c.693.755 1.675 1.181 2.7 1.17a3 3 0 0 0 2.37-1 3.53 3.53 0 0 0 1-2.58 3.6 3.6 0 0 0-.39-1.71c-.3-.522-.709-.972-1.2-1.32a24.49 24.49 0 0 0-3.46-1.7zm3.12-2.88a4.84 4.84 0 0 0 1.38-1.59 4 4 0 0 0 .45-1.86c.061-.895-.254-1.777-.87-2.43a3.06 3.06 0 0 0-2.34-.87c-.815-.053-1.617.229-2.22.78-.539.523-.833 1.249-.81 2a2.81 2.81 0 0 0 .81 2 12.01 12.01 0 0 0 3.6 1.97zm-4.41 2.28a6.06 6.06 0 0 1-2.34-2 5.19 5.19 0 0 1-.72-2.78 5.49 5.49 0 0 1 1.8-4.2 6.74 6.74 0 0 1 4.77-1.65c1.417-.093 2.819.346 3.93 1.23.92.855 1.414 2.076 1.35 3.33a4.31 4.31 0 0 1-.63 2.29c-.612.83-1.401 1.514-2.31 2 1.045.35 1.984.959 2.73 1.77A5.29 5.29 0 0 1 26 22.35c.043 1.854-.681 3.646-2 4.95-1.387 1.341-3.261 2.063-5.19 2-1.617.081-3.203-.48-4.41-1.56a5.12 5.12 0 0 1-1.68-3.93 5.19 5.19 0 0 1 .78-2.91 6.84 6.84 0 0 1 2.83-2.12zM-17.81 8.46v1.41c-2 3.45-3.87 7-5.61 10.71-1.334 2.745-2.529 5.555-3.58 8.42-.587-.072-1.178-.112-1.77-.12a13.22 13.22 0 0 0-1.71.12l-.15-.45 2.82-4.59 4-6.84 2.64-4.65-.15-.24h-5.58c-.914-.049-1.83.011-2.73.18a.77.77 0 0 0-.39.42c-.281.946-.443 1.924-.48 2.91l-.12.12-1.2-.09c.06-1.11.12-2.4.12-3.9 0-1-.06-2-.12-3.3l.24-.24c2.85.15 5.79.24 8.79.24l4.98-.11z" fill="#fff"/></svg>