<svg xmlns="http://www.w3.org/2000/svg" viewBox="0 0 38 38"  fill-rule="nonzero" stroke-linejoin="round" stroke-miterlimit="2" xmlns:v="https://vecta.io/nano"><path d="M36.72 18.72c0-9.875-8.125-18-18-18s-18 8.125-18 18 8.125 18 18 18 18-8.125 18-18" fill="#202020"/><path d="M19.21 18.39a2.36 2.36 0 0 0 1.92-.84c.545-.755.801-1.682.72-2.61A7.49 7.49 0 0 0 21 10.8a2.53 2.53 0 0 0-2.22-1.23 2.39 2.39 0 0 0-1.95 1c-.548.922-.799 1.99-.72 3.06a6.38 6.38 0 0 0 .9 3.78 2.54 2.54 0 0 0 2.2.98zm2.55.18c-.68.776-1.468 1.449-2.34 2-.684.322-1.435.477-2.19.45a4.35 4.35 0 0 1-3.42-1.5 6.32 6.32 0 0 1-1.32-4.23A7.39 7.39 0 0 1 14.38 10c1.227-1.322 2.967-2.052 4.77-2 1.232-.01 2.441.337 3.48 1 1.038.648 1.862 1.587 2.37 2.7a11.62 11.62 0 0 1 .81 4.8 15 15 0 0 1-1.35 6.78c-.867 1.777-2.206 3.282-3.87 4.35a11.51 11.51 0 0 1-5.82 1.83l-1.26-1 .36-.54 1.23.09c1.137 0 2.247-.349 3.18-1a6.75 6.75 0 0 0 2.37-2.91c.68-1.767 1.056-3.637 1.11-5.53z" fill="#fff"/></svg>