<svg xmlns="http://www.w3.org/2000/svg" viewBox="0 0 38 38"  fill-rule="nonzero" stroke-linejoin="round" stroke-miterlimit="2" xmlns:v="https://vecta.io/nano"><path d="M36.72 18.72c0-9.875-8.125-18-18-18s-18 8.125-18 18 8.125 18 18 18 18-8.125 18-18" fill="#202020"/><path d="M20.79 28.47l-.14-.17v-.83l.14-.17a20.17 20.17 0 0 0 3-.37.66.66 0 0 0 .37-.34c.202-.899.286-1.82.25-2.74l.12-7.12-.09-4.54c-.09-.29-.11-.25-.25-.25-.14.008-.276.046-.4.11L20 13.79l-.2-.12c-.062-.564-.169-1.123-.32-1.67l.12-.23c2.947-.808 5.848-1.777 8.69-2.9l.37.23c-.14 1.28-.23 3.05-.29 5.27l-.08 8.07c-.039 1.336.018 2.672.17 4a.81.81 0 0 0 .31.49 11.22 11.22 0 0 0 2.85.34l.15.17v.83l-.15.17h-1.73c-1.74 0-2.94-.06-3.54-.06l-5.56.09zm-14.25 0l-.14-.17v-.83l.14-.17a20.17 20.17 0 0 0 3-.37.66.66 0 0 0 .37-.34c.202-.899.286-1.82.25-2.74l.12-7.12-.09-4.54c-.09-.29-.11-.25-.25-.25-.14.008-.276.046-.4.11l-3.82 1.74-.2-.12A10.61 10.61 0 0 0 5.23 12l.12-.23A84.16 84.16 0 0 0 14 8.86l.37.23c-.14 1.28-.23 3.05-.28 5.27L14 22.43c-.039 1.336.018 2.672.17 4a.81.81 0 0 0 .31.49 11.22 11.22 0 0 0 2.85.34l.15.17v.83l-.15.17H15.6c-1.74 0-2.94-.06-3.54-.06l-5.52.1z" fill="#fff"/></svg>