<svg xmlns="http://www.w3.org/2000/svg" viewBox="0 0 38 38"  fill-rule="nonzero" stroke-linejoin="round" stroke-miterlimit="2" xmlns:v="https://vecta.io/nano"><path d="M36.72 18.72c0-9.875-8.125-18-18-18s-18 8.125-18 18 8.125 18 18 18 18-8.125 18-18" fill="#202020"/><path d="M18.93 18.72a2.56 2.56 0 0 0-2 .81c-.542.746-.797 1.662-.72 2.58-.122 1.484.151 2.975.79 4.32.468.778 1.312 1.257 2.22 1.26a2.24 2.24 0 0 0 1.92-1 5.18 5.18 0 0 0 .75-3.15 6.77 6.77 0 0 0-.89-3.8 2.44 2.44 0 0 0-2.07-1.02zm-2.67-.18a13.03 13.03 0 0 1 2.34-2 5.18 5.18 0 0 1 2.19-.42 4.35 4.35 0 0 1 3.42 1.5c.949 1.197 1.42 2.706 1.32 4.23.069 2.019-.649 3.988-2 5.49a6 6 0 0 1-4.65 2c-1.232.006-2.439-.341-3.48-1-1.021-.697-1.831-1.663-2.34-2.79-.597-1.538-.873-3.182-.81-4.83a14.18 14.18 0 0 1 1.38-6.63c.925-1.755 2.307-3.227 4-4.26 1.692-1.059 3.644-1.63 5.64-1.65l1.26 1.11-.51.51c-.424-.095-.856-.145-1.29-.15-1.06.022-2.087.371-2.94 1a6.9 6.9 0 0 0-2.4 2.82c-.682 1.607-1.065 3.325-1.13 5.07z" fill="#fff"/></svg>