<svg xmlns="http://www.w3.org/2000/svg" width="40.615" height="39.606" viewBox="0 0 1074.638 1047.93"  fill-rule="evenodd"><path d="M537.319 1047.93C240.719 1047.93 0 813.194 0 523.965 0 234.038 240.719 0 537.319 0s537.319 234.038 537.319 523.965c0 289.229-240.719 523.965-537.319 523.965z" fill="#fff"/><path d="M241.819 751.818l-114-410 55-114h694l66 114-118 395-288 251z" fill="#66c3d0"/><g fill-rule="nonzero"><path d="M140.819 192.818h780c-2 23 3 43 16 60s32 26 57 29c-6 73-19 150-41 229s-52 153-90 223-85 133-139 187-115 93-185 117c-157-68-269-168-337-300-68-133-108-284-121-456 17-2 32-14 45-35 13-23 18-40 15-54zm89 85c3 12 0 26-11 44-10 17-21 27-34 28 9 135 40 255 93 359s141 183 265 236c108-37 191-117 251-239 60-121 94-240 101-356-40-6-59-30-57-72h-608zm12 64c8 0 12 4 12 12s-4 12-12 12-12-4-12-12 4-12 12-12zm595 0c8 0 13 4 13 12s-5 12-13 12-11-4-11-12 3-12 11-12zm-292 530c7 0 10 4 10 12s-3 11-10 11c-9 0-13-3-13-11s4-12 13-12z" fill="#008dd2"/><path d="M430.819 599.818c0 2-1 5-3 7-2 3-6 5-10 8-12 6-23 11-35 14s-24 5-38 5c-16 0-30-2-43-7-12-5-23-12-32-22-10-9-17-20-22-33s-7-26-7-41c0-17 3-33 9-48 7-14 16-27 28-38 10-8 21-15 33-19s26-6 40-6c13 0 25 1 36 5 11 3 20 7 27 12 2 2 5 6 6 11 1 6 2 13 2 21 0 3 0 6-1 8-2 2-3 3-5 3s-5-3-8-9c-1-3-2-6-4-8-5-9-13-16-22-21s-20-7-33-7c-11 0-21 2-31 6-9 5-18 12-25 21-7 8-13 18-17 31-4 12-6 24-6 37 0 26 7 48 23 65 15 16 35 25 60 25 8 0 16-2 23-4 8-2 14-6 19-10 4-3 6-7 8-12s2-12 2-22c0-11 0-18-1-22-1-3-2-6-4-7s-6-2-10-3-10-1-17-1c-5 0-8-1-10-2-1-1-2-2-2-5s1-4 4-6c2-1 8-1 17-1h24c10 0 17 1 20 2 3 2 4 6 4 11v12c-1 7-1 13-1 18 0 9 1 18 2 27v5zm92-94c17-11 28-19 34-25 5-5 7-12 7-19 0-9-2-15-8-21-6-5-13-8-22-8s-16 3-22 9-9 13-9 21c0 5 2 11 5 19 3 7 8 15 15 24zm51 102c-8 8-17 15-27 19s-20 6-32 6c-17 0-31-5-42-15-12-11-17-24-17-39 0-13 4-24 11-34 8-10 20-20 35-28-6-9-12-18-15-26s-5-15-5-22c0-15 5-26 15-36 10-9 24-13 40-13 13 0 24 4 33 12 8 7 12 17 12 29 0 10-3 19-11 27-7 9-20 18-39 29 7 11 15 21 23 32 8 10 17 20 26 31 8-10 14-18 18-26s6-14 6-20c0-2 0-3-1-5-2-1-4-3-8-4 0 0-1-1-3-1-4-2-6-4-6-6s1-4 3-4c1-1 4-2 7-2h39c5 0 8 1 10 2s2 3 2 5c0 3-2 5-6 7-2 0-3 1-4 1-3 1-5 3-8 4-2 2-4 5-6 9-1 1-3 4-5 8-9 16-18 30-27 41 7 8 14 14 21 18s14 5 22 5c3 0 6 0 10-1s7-1 8-1c2 0 4 0 5 1s2 2 2 3c0 5-3 9-10 12-6 3-14 5-24 5s-19-2-28-6-17-10-24-17zm-9-12c-10-11-20-22-29-34-9-11-18-23-27-34-10 6-18 13-23 20-5 8-8 17-8 26 0 12 4 22 12 30 8 7 19 11 31 11 8 0 16-1 23-4 7-4 14-8 21-15zm208 38c-30 0-54-9-72-28-18-20-26-45-26-77 0-16 2-30 7-43 4-13 11-24 20-34 10-11 21-19 34-24 13-6 27-8 43-8 14 0 27 2 39 6 13 3 21 8 25 12 1 2 2 6 3 12s1 14 1 25c0 2 0 4-1 5s-2 2-4 2c-3 0-6-3-8-8-2-4-3-7-5-9-6-10-14-18-23-23s-19-7-31-7c-21 0-38 8-51 25-14 17-20 39-20 67 0 27 6 49 20 65 13 16 31 24 54 24 9 0 17-1 25-4s16-7 24-13l12-12c4-6 7-8 9-8s4 0 5 2c2 1 2 3 2 5 0 3-1 7-4 12s-7 9-12 13c-10 8-20 14-31 18-11 3-23 5-35 5z"/></g></svg>