<svg xmlns="http://www.w3.org/2000/svg" width="40.615" height="39.606" viewBox="0 0 1074.637 1047.93"  fill-rule="evenodd"><path d="M537.319 1047.93C240.719 1047.93 0 813.194 0 523.965 0 234.038 240.719 0 537.319 0s537.319 234.038 537.319 523.965c0 289.229-240.719 523.965-537.319 523.965z" fill="#fff"/><path d="M179.819 219.28h701l67 115-119 399-291 255-299-239-115-415z" fill="#fecc00"/><g fill-rule="nonzero"><path d="M136.819 184.28h788c-2 23 4 43 17 60s32 27 57 30c-5 74-19 151-41 231s-52 155-91 226-85 134-140 188c-55 55-117 95-187 119-159-69-273-170-341-304-69-133-110-287-123-460 18-2 33-14 46-36s18-40 15-54zm91 86c3 12-1 26-12 44-10 18-22 27-34 28 9 137 40 258 94 364 53 105 142 184 267 238 109-38 194-118 254-241 61-123 95-243 103-361-41-5-60-29-58-72h-614zm11 65c9 0 13 4 13 11 0 9-4 13-13 13-8 0-11-4-11-13 0-7 3-11 11-11zm602 0c8 0 12 4 12 11 0 9-4 13-12 13s-12-4-12-13c0-7 4-11 12-11zm-296 535c8 0 11 4 11 13 0 7-3 11-11 11s-13-4-13-11c0-9 5-13 13-13z" fill="#f7aa47"/><path d="M231.819 550.28c-6 0-9 0-11-1s-3-3-3-6 3-5 8-8c2-1 4-2 5-3 2-1 3-3 4-6s2-7 2-12v-157c0-4-1-8-1-10-1-2-1-4-3-5-1-1-3-3-8-6-5-2-7-5-7-8 0-2 1-4 3-5s5-1 11-1h38c6 0 10 0 12 1s3 2 3 5-2 6-8 8c-3 2-5 3-7 4s-3 3-4 6c-1 2-2 6-2 11v152c0 11 2 18 6 20 4 3 16 4 35 4 16 0 29-1 38-2 9-2 16-4 23-7 3-2 7-4 12-8 5-3 9-5 11-5s3 1 4 2 1 2 1 5c0 6 0 11-2 17-1 6-2 9-3 11-1 1-3 2-6 3-2 1-8 1-16 1zm285-118c-5-5-11-9-18-12s-14-4-22-4c-15 0-27 5-36 17-9 11-14 27-14 46 0 18 5 32 13 42s20 15 34 15c7 0 14-1 21-3 6-2 12-6 16-9 2-2 4-4 5-6 0-3 1-6 1-11v-3zm3 101c-7 7-15 13-24 16-9 4-18 6-28 6-20 0-36-7-49-21-12-14-19-31-19-53 0-23 7-43 21-58 14-16 31-23 52-23 8 0 16 1 23 3s14 5 21 10v-55c0-4-1-7-2-9s-3-4-6-5c-2-1-3-2-6-2-4-2-6-4-6-6 0-1 0-2 1-4 1-1 3-2 4-4 6-3 11-6 17-9 5-2 9-3 13-3 3 0 6 1 7 4s2 7 2 14v177c0 6 0 10 1 13 0 3 1 5 2 6 1 2 4 4 9 6s7 5 7 8c0 2 0 4-2 5s-4 1-8 1h-15c-5 0-9-1-10-3-2-1-3-6-5-14zm137 24c-13 0-24-2-34-5-11-4-20-9-28-16-7-6-13-12-17-19s-6-13-6-18c0-3 1-6 3-8s4-3 7-3c4 0 8 4 11 11 2 4 4 8 6 11 7 9 16 17 25 22 9 4 20 7 32 7 19 0 34-5 45-14 12-9 18-20 18-35 0-12-4-21-12-28-8-6-23-12-45-16-19-4-32-7-40-10-7-2-13-5-18-9-7-5-12-12-16-19s-6-15-6-24c0-21 7-37 21-49s32-19 55-19c12 0 24 2 35 5s20 7 26 12c2 2 4 4 5 7 1 2 1 7 1 15v6c0 4 0 7-1 8 0 1-2 2-4 2-1 0-5-3-9-8-5-6-9-10-13-14-7-5-14-10-22-13-7-3-15-4-23-4-13 0-24 4-32 11-9 7-13 17-13 29 0 11 4 19 10 26 7 6 17 11 31 14 6 2 13 3 23 5 20 4 34 8 42 12 10 6 17 13 22 21 5 9 7 19 7 31 0 23-8 41-24 55-15 14-36 21-62 21zm123-27v-108h-10c-5 0-9-1-11-2-2-2-3-4-3-7s1-5 2-6c1-2 3-3 5-3h4c7-1 11-2 13-4s4-11 6-26c0-4 1-7 1-9s0-3 1-5c1-11 4-16 10-16 2 0 4 1 5 2 1 2 1 7 1 14v44h22c6 0 9 0 12 2 2 1 3 3 3 7 0 3-1 5-4 6-2 2-6 3-11 3h-22v92c0 6 1 10 2 13s2 5 5 5c3 2 8 2 17 3 8 0 12 2 12 6s0 6-2 7c-2 2-7 2-15 2h-29c-6 0-10-1-11-3-2-2-3-7-3-17zm-452 287c-5 0-9 0-11-1s-3-3-3-6 3-5 8-8c3-1 4-2 5-3 2-2 4-3 5-6 0-3 1-7 1-12v-157c0-4 0-8-1-10 0-2-1-4-2-5s-4-3-9-6c-4-2-7-5-7-8 0-2 1-4 3-5s6-2 11-2h135c10 0 16 2 18 6 3 3 4 12 4 28 0 2-1 4-1 5-1 1-2 1-4 1s-5-2-8-5c-4-4-8-7-11-9-5-3-11-5-20-6-9-2-22-2-39-2-11 0-19 0-24 1-5 0-9 2-12 3-2 2-3 3-4 6s-1 8-1 17v51h62c5 0 9 0 13-1 3 0 5-1 6-2 2 0 3-1 5-3 4-3 7-4 9-4s3 1 4 2 1 4 1 8v17c0 4 0 6-1 8s-2 2-4 2-5-1-9-4c-2-1-3-2-4-3-2-1-4-1-7-2h-75v68c0 13 1 21 4 24s10 5 20 5h34c11 0 20-1 28-2s15-4 20-7c4-2 8-5 13-10 4-4 7-7 9-7s4 1 5 2 1 3 1 5c0 7 0 13-2 20-1 6-2 10-3 12-2 2-5 3-8 4-4 1-10 1-18 1zm397-32c0 3-1 6-4 9-2 3-6 5-11 8-13 8-26 13-39 17-13 3-28 5-43 5-18 0-34-3-48-8-14-6-26-14-37-24-10-11-18-24-24-38-5-14-8-29-8-46 0-19 3-37 11-53 7-17 17-31 31-43 11-10 23-17 37-22s29-7 45-7c14 0 27 2 40 5 13 4 23 9 30 15 3 2 6 6 7 12 2 6 3 14 3 23 0 4-1 7-2 9s-3 3-5 3c-3 0-6-3-9-9-1-4-3-7-4-9-6-10-15-18-25-24-11-5-23-8-37-8-13 0-24 2-35 7s-20 13-29 23c-8 10-14 21-19 35s-7 28-7 42c0 30 9 54 26 73 18 18 40 28 68 28 9 0 18-2 26-4 8-3 16-7 22-12 4-3 6-7 8-13 2-5 3-14 3-25 0-12-1-20-1-24-1-4-3-7-5-8-3-2-6-3-11-4s-11-1-19-1c-6 0-10-1-11-2-2-1-3-3-3-6s2-5 4-6c3-1 9-2 19-2h28c11 0 18 1 22 3 3 2 5 6 5 12 0 2-1 6-1 14v19c0 10 0 21 1 31 1 3 1 5 1 5z"/></g></svg>