<svg xmlns="http://www.w3.org/2000/svg" width="40.615" height="39.606" viewBox="0 0 1074.637 1047.93"  fill-rule="evenodd"><path d="M537.319 1047.93C240.719 1047.93 0 813.194 0 523.965 0 234.038 240.719 0 537.319 0s537.319 234.038 537.319 523.965c0 289.229-240.719 523.965-537.319 523.965z" fill="#fff"/><path d="M536.819 989.5l-298-239-116-415 56-115h701l67 115-119 399z" fill="#d0aad0"/><g fill-rule="nonzero"><path d="M136.819 185.5h788c-2 23 3 43 16 60s32 27 58 30c-6 74-20 151-42 231s-52 155-91 226c-38 71-85 134-140 188-55 55-117 95-187 119-159-69-272-170-341-304-69-133-109-287-122-460 17-2 33-14 45-36 13-22 18-40 16-54zm90 86c3 12-1 26-11 44-11 18-22 27-35 28 9 137 41 258 94 364 54 105 143 184 268 238 109-38 193-118 254-241 60-123 94-243 102-361-40-5-60-29-58-72h-614zm11 65c9 0 13 4 13 11 0 9-4 13-13 13-7 0-11-4-11-13 0-7 4-11 11-11zm602 0c9 0 13 4 13 11 0 9-4 13-13 13-8 0-11-4-11-13 0-7 3-11 11-11zm-295 535c7 0 10 4 10 13 0 7-3 11-10 11-9 0-13-4-13-11 0-9 4-13 13-13z" fill="#ae4a84"/><path d="M314.819 507.5l4-152v-1c0-3 0-5-1-8-1-2-2-4-3-5s-3-2-6-3c-2 0-5-1-6-2-3 0-5-1-6-2 0-1-1-3-1-5s1-4 3-5 6-1 12-1h26c7 0 11 0 14 1 2 2 4 4 5 9 1 2 3 6 6 13 18 46 37 90 57 132 13-25 24-49 35-74 11-24 20-47 29-70 1-5 3-8 5-9 2-2 7-2 13-2h24c6 0 11 0 14 1 2 1 4 3 4 6 0 2-1 3-1 4l-3 3c-2 1-5 2-8 3-4 1-6 2-8 4-1 1-2 3-2 5-1 3-1 7-1 12l2 145c0 7 1 13 1 17 1 3 1 6 3 7 0 1 1 2 2 3s3 2 5 3c1 1 2 1 4 2 4 2 6 4 6 7 0 2-1 4-3 5s-7 1-14 1h-37c-6 0-10 0-12-1s-3-3-3-5c0-3 3-6 9-8 3-1 5-2 6-3 2-1 3-2 4-4s1-6 1-11v-4l-2-153c-3 9-8 23-17 44l-35 76c-1 3-3 6-5 11-9 19-15 28-19 28s-12-12-23-36c-12-25-30-67-54-126l-3 156c0 4 1 8 1 10 0 3 1 5 2 6s4 3 7 5c1 0 2 0 3 1h1c5 2 7 5 7 8 0 2-1 4-3 5s-6 1-13 1h-34c-6 0-10 0-12-1-1-1-2-2-2-5s2-5 8-8c3-1 5-2 7-4 2-1 4-3 5-6s1-10 2-20zm292-54h84c-5-16-11-32-18-48s-15-33-24-50c-8 16-16 32-23 48s-13 33-19 50zm-6 19c-5 12-9 23-11 33-2 9-4 15-4 20 0 2 1 3 2 5 1 1 2 3 4 4 1 1 3 2 5 3 4 2 6 4 6 8 0 2-1 3-4 5-2 1-6 1-10 1h-28c-5 0-9 0-11-1-2-2-4-3-4-6 0-2 2-4 5-6 2-1 4-3 5-4 1-2 6-15 14-40 9-24 17-47 26-68 13-34 25-60 35-80 10-19 17-29 21-29 5 0 14 12 26 36 13 24 26 55 41 93l17 51c6 19 10 30 11 33 1 1 3 3 7 6s6 6 6 9c0 2-1 4-4 5-2 1-7 1-14 1h-28c-6 0-10 0-12-1-2-2-3-3-3-6 0-4 3-7 9-10 2-1 3-2 4-2 1-1 2-2 2-3s1-3 1-5c0-3-2-9-5-18-2-8-6-20-12-34zm26-172l45-46c3-4 6-6 8-8 2-1 4-1 6-1 4 0 7 1 9 3s3 4 3 8c0 2-1 4-3 6-1 2-4 4-7 6l-51 32zm-362 292h24c5 0 9 0 11 1 1 1 2 2 2 4s-2 4-5 6c-1 0-1 1-2 1l-1 1c-5 2-7 6-7 11 0 6 2 16 5 28 4 13 9 28 15 45 5 14 10 27 16 38 6 12 12 22 18 32 7-12 15-26 21-41 7-15 14-32 20-50l9-33c2-8 3-14 3-18 0-3 0-5-1-7 0-1-1-2-2-3l-6-3c-5-2-7-5-7-8 0-1 1-3 2-3 2-1 5-1 10-1h25c5 0 8 0 9 1 2 1 2 2 2 4s-1 4-3 6c-2 3-4 5-5 7s-3 8-6 20-6 22-9 31c-13 38-25 69-38 93-12 24-22 37-28 37-5 0-12-9-21-26s-20-40-30-68c-5-11-9-23-13-37l-13-45c-1-4-2-7-5-11-3-3-4-6-4-7 0-2 1-4 3-4 1-1 5-1 11-1zm196 110h71c-4-13-10-27-15-41-6-14-13-28-20-42-7 13-14 27-19 41-6 14-12 28-17 42zm-5 16c-4 10-7 20-9 27-2 8-3 14-3 17 0 2 0 4 1 5s2 2 4 3c1 1 2 2 4 3 3 1 5 3 5 6 0 2-1 4-3 5-2 0-5 1-10 1h-23c-4 0-8-1-9-1-2-1-3-3-3-5s1-3 3-5c3-1 4-3 5-3 1-2 5-14 12-34 7-21 14-40 22-58 11-28 21-51 29-67 9-17 15-25 18-25 4 0 12 10 22 31 11 20 22 46 35 78 4 13 9 27 14 43s8 26 10 28c0 1 2 3 5 5 4 3 5 5 5 8 0 2-1 3-3 4s-6 1-11 1h-25c-4 0-8-1-9-1-2-1-3-3-3-5 0-3 2-6 7-9 2-1 3-1 4-2 1 0 1-1 1-2 1-1 1-2 1-4s-1-7-3-15c-3-7-6-17-11-29zm324 40c0 2-1 5-4 7-2 2-5 5-9 7-11 7-22 11-33 14s-23 5-36 5c-15 0-29-3-41-7-12-5-22-11-31-21-9-9-16-19-20-31-5-12-7-25-7-39 0-17 3-32 9-46 6-13 15-25 26-36 10-8 20-14 32-18 11-4 24-6 38-6 11 0 23 2 33 5 11 3 20 7 26 12 3 2 5 5 6 10s2 12 2 20c0 3 0 6-2 7-1 2-2 3-4 3s-4-3-7-8c-2-3-3-6-4-7-5-9-12-16-21-21-9-4-19-7-31-7-11 0-21 2-30 7-9 4-17 10-24 19-7 8-12 18-16 29-4 12-6 24-6 36 0 25 7 45 22 61s34 24 57 24c8 0 15-1 22-4 7-2 14-5 19-9 3-3 5-6 7-11 1-5 2-12 2-21 0-11 0-18-1-21s-2-6-4-7-5-2-9-3c-4 0-10-1-16-1-5 0-8 0-10-1-1-1-2-3-2-5 0-3 1-5 3-6 3-1 8-1 16-1h24c9 0 16 0 18 2 3 2 5 5 5 10 0 2-1 6-1 12v17c0 8 0 17 1 26 0 2 1 3 1 4z"/></g></svg>