<svg xmlns="http://www.w3.org/2000/svg" width="40.615" height="39.606" viewBox="0 0 1074.637 1047.93"  fill-rule="evenodd"><path d="M537.318 1047.93C240.718 1047.93 0 813.193 0 523.965 0 234.038 240.718 0 537.318 0s537.319 234.038 537.319 523.965c0 289.229-240.719 523.965-537.319 523.965z" fill="#fff"/><path d="M537.318 987.818l-295-236-115-410 56-115h694l66 115-118 394z" fill="#f08683"/><g fill-rule="nonzero"><path d="M141.318 192.818h779c-2 22 4 42 17 59s32 27 57 30c-6 73-19 150-41 229-22 78-52 153-90 223-39 70-85 132-139 187-54 54-116 93-185 117-157-68-270-168-338-301-68-132-108-284-121-455 18-2 33-14 46-36 12-22 17-40 15-53zm89 85c3 12-1 26-11 44-10 17-22 26-34 27 9 136 40 256 93 360s141 183 264 236c108-38 192-117 252-239s94-240 101-357c-40-5-59-29-57-71h-608zm11 64c9 0 13 4 13 11 0 9-4 13-13 13-7 0-11-4-11-13 0-7 4-11 11-11zm596 0c8 0 12 4 12 11 0 9-4 13-12 13s-12-4-12-13c0-7 4-11 12-11zm-293 530c8 0 11 4 11 12s-3 11-11 11-12-3-12-11 4-12 12-12z" fill="#e31e24"/><path d="M406.318 504.818c0 5 1 8 1 10 1 3 1 4 2 6 1 0 3 1 5 2 3 1 4 2 6 3 3 1 5 2 6 3 1 2 1 3 1 5s-1 4-3 5-6 2-12 2h-38c-5 0-8-1-10-2s-3-3-3-5c0-3 3-6 8-8 2-2 4-3 5-3 2-2 3-3 4-6 1-2 1-6 1-12v-153c0-5 0-8-1-10 0-2-1-4-2-5-1-2-4-4-8-6-5-2-7-5-7-8 0-2 1-4 3-5s5-1 10-1h76c32 0 54 4 67 12s20 21 20 39c0 13-5 25-13 35-9 10-21 19-38 25 13 18 26 40 39 69 3 7 5 12 7 14 1 3 3 6 5 8 2 3 5 5 8 7 0 1 1 1 2 2 4 2 5 4 5 7 0 2-1 4-2 4-2 1-5 2-10 2h-42c-4 0-7-1-9-2-2 0-2-2-2-4s0-3 1-4c0-1 2-2 4-3 1-1 2-2 4-2 4-3 6-5 6-9 0-7-4-19-12-34s-19-31-32-47c-6 2-14 3-22 5-8 1-18 2-30 3zm0-79c34-4 59-10 75-19s24-21 24-36c0-13-5-22-15-28-11-6-27-9-50-9-15 0-24 1-28 3-4 3-6 9-6 20z"/><path d="M607.318 444.818h83c-5-16-11-32-18-48s-15-32-23-49c-8 16-16 31-23 47-6 17-13 33-19 50zm-6 18c-4 12-8 23-10 32-3 9-4 15-4 20 0 2 1 3 2 5 1 1 2 3 4 4 1 1 2 1 4 2 4 2 6 5 6 8 0 2-1 4-3 5s-6 2-11 2h-27c-5 0-9-1-11-2s-3-3-3-5 1-4 4-6 4-3 5-4c1-2 6-15 15-39 8-24 16-46 24-67 14-33 25-59 35-78s17-28 20-28c5 0 14 11 26 35 13 23 26 53 40 91 6 15 11 31 17 50s9 29 11 32c1 1 3 3 7 6 3 3 5 6 5 9 0 2-1 4-3 4-3 1-7 2-14 2h-28c-5 0-9-1-11-2s-3-3-3-5c0-4 3-7 8-10 2-1 3-2 4-3 1 0 2-1 2-2 1-1 1-3 1-5 0-3-2-9-4-17-3-9-7-20-12-34zm26-168l44-46c3-3 6-6 8-7s4-2 6-2c4 0 6 1 8 3s3 5 3 8c0 2 0 4-2 6s-4 4-7 6l-50 32zm-255 507c-5 0-9 0-11-1-1-1-2-3-2-5 0-3 2-6 7-9 3-1 4-2 5-3 2-1 4-3 4-5 1-3 2-7 2-12v-154c0-4-1-7-1-9-1-3-1-4-2-6-1-1-4-3-9-5-4-3-6-5-6-8 0-2 1-4 2-5 2-1 6-2 11-2h89c24 0 41 4 53 13 11 8 17 21 17 38 0 10-4 20-13 30-9 9-21 16-36 22 19 2 35 9 47 20 11 11 17 24 17 41 0 9-2 19-7 27-4 9-10 16-18 21-7 5-14 8-22 10-9 1-23 2-42 2zm32-99v57c0 11 2 18 6 21 3 3 14 5 32 5 25 0 43-4 55-12 13-7 19-18 19-33 0-13-5-24-15-32-10-9-23-15-41-18l-35 8c-9 2-16 3-21 4zm0-17c33-5 57-13 73-22 16-10 24-22 24-36 0-12-4-20-14-25-9-6-24-8-44-8-18 0-29 1-33 3-4 3-6 11-6 23zm206 20h82c-5-15-11-31-18-47s-14-32-23-49c-8 15-15 31-22 47s-13 33-19 49zm-6 18c-5 13-8 24-11 33-2 9-3 15-3 19 0 2 0 4 1 6 1 1 3 2 4 4 1 0 3 1 5 2 4 2 6 5 6 8 0 2-1 4-4 5-2 1-5 1-10 1h-27c-5 0-9 0-11-1s-3-3-3-5 1-4 4-6c2-2 4-3 4-4 2-2 7-15 15-39s17-46 25-67c13-33 25-59 35-78 9-19 16-29 20-29 5 0 14 12 26 35 12 24 25 54 39 91 6 15 12 32 17 51 6 18 10 29 11 31s3 4 7 7 6 6 6 9c0 2-1 3-4 4-2 1-7 1-13 1h-29c-5 0-9 0-11-1s-3-3-3-6 3-7 9-10c2 0 3-1 4-2 1 0 1-1 2-2v-5c0-3-1-9-4-17-2-9-6-20-12-35z"/></g></svg>