<svg xmlns="http://www.w3.org/2000/svg" width="40.615" height="39.606" viewBox="0 0 1074.637 1047.93"  fill-rule="evenodd"><path d="M537.318 1047.93C240.718 1047.93 0 813.194 0 523.965 0 234.038 240.718 0 537.318 0s537.319 234.038 537.319 523.965c0 289.229-240.719 523.965-537.319 523.965z" fill="#fff"/><path d="M536.818 989.01l-298-239-116-415 56-115h702l66 115-119 399z" fill="#dbe285"/><g fill-rule="nonzero"><path d="M136.818 184.01h788c-2 23 3 44 16 61 14 17 33 27 58 30-6 74-19 151-41 231s-53 155-92 226c-38 71-85 134-140 188-54 55-117 95-187 119-159-69-272-170-341-304-69-133-109-287-122-460 17-2 32-14 45-36 13-23 18-41 16-55zm90 87c3 11-1 26-11 44-11 18-22 27-35 28 9 137 41 258 94 363 54 106 143 185 268 239 109-38 194-118 254-241 61-124 95-244 102-361-40-6-59-30-57-72h-615zm11 64c9 0 13 4 13 12s-4 13-13 13c-7 0-11-5-11-13s4-12 11-12zm602 0c9 0 13 4 13 12s-4 13-13 13c-7 0-11-5-11-13s4-12 11-12zm-295 536c7 0 11 4 11 13 0 7-4 11-11 11-9 0-13-4-13-11 0-9 4-13 13-13z" fill="#009846"/><path d="M389.818 667.01c-13 0-24-2-34-5-10-4-20-9-28-16-6-6-12-12-16-19-4-6-6-12-6-17 0-3 1-6 3-8 2-1 4-2 7-2 4 0 8 3 11 10 2 4 4 8 6 10 7 10 15 17 24 22s20 7 32 7c18 0 33-4 44-13 12-9 17-21 17-35 0-12-4-21-11-27-8-7-23-12-45-16-18-4-31-7-38-10-8-2-14-5-18-9-7-5-12-11-16-18-4-8-6-16-6-24 0-20 7-36 21-48 13-12 31-18 53-18 13 0 24 1 35 4s20 7 26 12c2 2 3 4 4 7 1 2 2 7 2 15v5c0 4-1 7-1 8-1 1-2 2-4 2s-5-3-10-8c-4-5-8-9-12-13-7-6-14-10-21-13-8-3-15-4-23-4-13 0-24 4-32 11s-12 17-12 28 3 19 10 26c6 6 16 11 30 14 5 1 13 3 23 5 20 3 33 7 41 11 9 6 16 13 21 21 5 9 7 19 7 30 0 23-8 41-23 54-16 14-36 21-61 21zm156-231c5 0 8 0 10 1s3 3 3 6c0 2-3 5-8 8-2 1-4 2-5 3-2 1-3 3-4 5-1 3-1 7-1 12v154c0 4 0 8 1 10 0 2 1 4 2 5 1 2 4 3 8 6 5 2 7 5 7 7 0 3-1 5-3 6s-5 1-10 1h-38c-5 0-8 0-10-1s-3-3-3-6c0-2 3-5 8-8 2-1 4-2 5-3 2-1 3-3 4-5 1-3 1-7 1-12v-164c-1-2-2-4-3-5-1-2-4-3-8-6-5-2-7-5-7-7 0-3 1-5 3-6s5-1 10-1zm79 189c0 4 0 8 1 10 0 2 1 4 2 5 1 2 4 3 9 6 4 2 7 5 7 7 0 3-1 5-3 6s-6 1-11 1h-37c-5 0-8 0-10-1s-3-3-3-6c0-2 2-5 8-8 2-1 3-2 5-3 1-1 3-3 4-5 0-3 1-7 1-12v-154c0-5 0-8-1-10 0-2-1-4-2-5-1-2-4-3-8-6-5-2-7-5-7-7 0-3 1-5 3-6s5-1 10-1h37c5 0 9 0 11 1s3 3 3 6c0 2-3 5-8 8-3 1-4 2-6 3s-3 3-4 5c0 3-1 7-1 12v84c26-24 47-45 63-62 15-18 23-29 23-33 0-2 0-3-1-4-1-2-2-3-5-5-1 0-2-1-3-1-4-3-5-5-5-8 0-2 1-4 3-5s6-1 12-1h34c6 0 10 0 12 1s3 3 3 6c0 2-3 5-9 8-5 3-10 6-13 10l-2 3c-26 30-45 50-56 62 12 10 23 24 35 41 12 16 23 36 35 58 0 1 1 3 2 5 3 6 5 10 7 11 1 1 3 1 4 2 5 3 8 6 8 9s-2 5-4 6-6 2-11 2h-29c-7 0-11 0-14-1-2-1-3-3-3-6 0-2 0-3 1-4s3-2 5-4c1 0 1-1 2-1 3-1 4-3 4-6 0-8-5-21-17-39-11-19-26-37-44-55-5 6-11 11-17 17s-13 11-20 17z"/></g></svg>