<svg xmlns="http://www.w3.org/2000/svg" width="40.615" height="39.606" viewBox="0 0 1074.637 1047.93"  fill-rule="evenodd"><path d="M537.319 1047.93C240.719 1047.93 0 813.194 0 523.965 0 234.038 240.719 0 537.319 0s537.319 234.038 537.319 523.965c0 289.229-240.719 523.965-537.319 523.965z" fill="#fff"/><path d="M138.319 342.818l55-115h694l66 114-118 395-287 252-296-236z" fill="#fff383"/><g fill-rule="nonzero"><path d="M139.319 189.818h782c-2 23 4 43 17 60s32 27 57 30c-6 73-19 150-41 229s-52 154-91 224c-38 71-84 133-139 187-54 55-116 94-185 118-158-69-271-169-339-301-68-133-108-285-121-457 17-2 32-14 45-36s18-40 15-54zm90 86c3 11-1 26-11 43-11 18-22 27-35 28 9 136 40 256 93 361 54 105 142 183 266 237 108-38 192-118 252-240s94-241 102-358c-40-5-59-29-57-71h-610zm11 64c9 0 13 4 13 11 0 9-4 13-13 13-7 0-11-4-11-13 0-7 4-11 11-11zm597 0c9 0 13 4 13 11 0 9-4 13-13 13-7 0-11-4-11-13 0-7 4-11 11-11zm-293 531c7 0 11 5 11 13 0 7-4 11-11 11-9 0-13-4-13-11 0-8 4-13 13-13z" fill="#fecc00"/><path d="M433.319 554.818c-12 0-23-2-33-5-10-4-19-9-27-16-7-5-12-12-16-18-4-7-6-13-6-18 0-3 1-5 2-7 2-2 5-3 8-3s7 3 10 10c3 5 5 8 6 11 7 9 15 16 24 21s20 7 32 7c18 0 33-4 44-13s17-20 17-34c0-12-4-21-12-28-7-6-22-11-44-15-18-4-31-7-38-10-7-2-13-5-18-9-7-5-12-11-16-18-3-8-5-15-5-24 0-20 7-36 20-48s31-17 53-17c13 0 24 1 35 4s19 7 25 12c2 1 4 4 5 6 1 3 1 8 1 15v6c0 4 0 7-1 8s-2 1-4 1c-1 0-4-2-9-7-5-6-9-10-13-13-6-6-13-10-20-13-8-3-15-4-23-4-13 0-24 3-32 10-8 8-12 17-12 29 0 10 3 18 10 25 6 6 16 11 30 14 5 1 13 3 22 5 20 3 34 7 41 11 9 6 17 13 21 21 5 8 7 18 7 30 0 22-7 40-23 53-15 14-35 21-61 21zm149-42c0 5 1 8 1 10 1 2 1 4 2 6 1 1 4 2 9 5 4 2 7 5 7 7 0 3-1 5-3 6s-5 1-10 1h-38c-5 0-8 0-10-1s-3-3-3-6c0-2 3-5 8-8 2-1 4-2 5-3 2-1 3-3 4-5 1-3 1-7 1-12v-162c-1-3-2-4-3-6-1-1-3-3-8-5-4-2-7-5-7-8 0-2 1-4 3-5s5-2 10-2h38c5 0 8 1 10 2s3 3 3 5c0 3-3 6-8 8-2 2-4 3-5 3-2 2-4 3-4 6-1 2-2 6-2 11v84c26-24 47-45 63-62 15-17 23-28 23-33 0-1-1-3-1-4-1-1-3-2-5-4-1-1-2-1-3-2-4-2-6-5-6-8 0-2 1-3 4-4 2-1 6-2 11-2h34c6 0 10 1 12 2s3 3 3 5c0 3-3 5-8 8-6 3-10 7-14 11l-2 2c-25 30-44 50-56 62 12 10 24 24 35 40 12 17 23 36 35 58 0 2 1 3 2 5 3 6 5 10 7 11 1 1 3 1 5 2 4 3 7 6 7 9s-1 5-4 6c-2 1-6 2-11 2h-29c-7 0-11 0-13-1s-3-3-3-6c0-2 0-3 1-4l4-4c1 0 2-1 3-1 2-1 4-3 4-6 0-7-6-20-17-39-12-18-26-36-44-54l-17 17-20 17zm-222 288c-5 0-8-1-10-2s-3-2-3-5 3-5 8-8c2-1 4-2 5-3 2-1 3-3 4-6 0-2 1-6 1-11v-153c0-4 0-8-1-10 0-2-1-4-2-5s-4-3-8-5c-5-3-7-5-7-8s1-4 3-5 5-2 10-2h132c10 0 16 2 18 5s3 13 3 27c0 3 0 4-1 5s-2 2-4 2c-1 0-4-2-8-6-4-3-7-6-10-8-5-3-11-5-20-6-9-2-21-2-37-2-11 0-19 0-24 1-5 0-9 2-12 3-2 2-3 3-4 6-1 2-1 8-1 17v49h61c5 0 9 0 12-1 3 0 5-1 7-1l4-4c4-2 7-4 9-4s3 1 4 2c1 2 1 4 1 8v17c0 4 0 6-1 8-1 1-2 2-4 2s-5-2-9-4c-2-2-3-3-4-3-2-1-4-2-7-2-3-1-7-1-12-1h-61v67c0 13 1 20 4 24 3 3 10 4 20 4h33c11 0 20 0 27-2 8-1 14-3 20-6 4-2 8-5 12-10 4-4 7-7 9-7s4 1 5 2 1 3 1 5c0 6 0 13-2 19-1 6-2 10-3 12-2 2-4 3-8 4-3 0-9 1-17 1zm183-223h28c6 0 10 1 12 2 2 0 3 2 3 5 0 2-2 4-6 6-1 1-2 1-2 1 0 1-1 1-2 1-5 3-7 7-7 13 0 7 2 18 6 33 3 15 9 31 16 51 6 16 12 31 19 44 6 14 13 26 20 37 9-14 18-30 25-47 8-18 16-37 22-58 6-16 9-28 12-38 2-9 3-16 3-21 0-3 0-6-1-7-1-2-2-3-3-4-2-1-4-2-7-3-5-3-8-6-8-10 0-2 1-3 3-4s5-1 11-1h29c5 0 9 1 10 1 2 1 3 3 3 5s-1 5-4 8c-3 2-4 5-6 7-1 2-3 10-7 23-3 14-7 26-10 36-15 44-29 79-43 107-15 28-26 42-33 42-5 0-13-9-24-29s-23-46-35-79c-5-12-10-26-15-42-4-16-9-33-14-52-1-4-3-8-6-12-4-4-5-7-5-9s1-4 3-5 6-1 13-1z"/></g></svg>