<svg xmlns="http://www.w3.org/2000/svg" xmlns:xlink="http://www.w3.org/1999/xlink" width="40.615" height="39.606" viewBox="0 0 1074.637 1047.93" fill-rule="evenodd"><path d="M537.319 1047.93C240.719 1047.93 0 813.193 0 523.965 0 234.038 240.719 0 537.319 0s537.319 234.038 537.319 523.965c0 289.229-240.719 523.965-537.319 523.965z" fill="#fff"/><path d="M127.319 340.818l55-115h695l66 115-118 395-288 252-296-237z" fill="#727271"/><g fill-rule="nonzero"><path d="M140.319 191.818h781c-2 22 3 43 16 59 13 18 32 27 57 30-5 74-19 150-41 229s-52 154-90 224-85 132-139 187c-54 54-116 93-185 117-158-68-270-169-338-301s-108-284-121-456c17-2 32-14 45-36s18-40 15-53zm90 85c3 12-1 26-11 44-11 17-22 27-35 28 9 135 40 255 93 360 53 104 142 183 265 236 108-38 192-117 252-239s94-241 101-357c-40-6-59-30-57-72h-608zm11 64c8 0 13 4 13 12s-5 12-13 12-11-4-11-12 3-12 11-12zm596 0c8 0 13 4 13 12s-5 12-13 12-11-4-11-12 3-12 11-12zm-293 530c7 0 11 5 11 13 0 7-4 11-11 11-8 0-12-4-12-11 0-8 4-13 12-13z" fill="#2b2a29"/><g fill="#fefefe"><use xlink:href="#B"/><use xlink:href="#C"/><use xlink:href="#D"/></g></g><g stroke="#fff" stroke-width="7.62" fill="none"><use xlink:href="#B"/><use xlink:href="#C"/><use xlink:href="#D"/></g><defs ><path id="B" d="M428.319 574.818c-12 0-23-2-33-6-10-3-19-8-27-15-7-5-12-12-16-18-4-7-6-13-6-18 0-3 1-5 2-7 2-2 5-3 8-3s7 3 10 10c2 5 4 8 6 11 7 9 15 16 24 21s20 7 32 7c18 0 32-4 44-13 11-9 16-20 16-34 0-12-4-21-11-28-8-6-22-11-44-15-18-4-31-7-38-10-7-2-13-5-18-9-7-5-12-11-16-18-3-7-5-15-5-24 0-19 6-35 20-47 13-12 31-18 53-18 12 0 24 1 35 4 10 3 19 7 25 12 2 2 3 4 4 6 1 3 2 8 2 16v5c0 4-1 7-1 8-1 1-2 1-4 1s-5-2-9-7c-5-5-9-10-13-13-7-6-14-10-21-13s-14-4-22-4c-13 0-24 3-32 11-8 7-12 16-12 28 0 10 3 19 10 25 6 6 16 11 30 14 5 1 12 3 22 5 20 3 33 7 41 11 9 6 16 13 21 21s7 18 7 30c0 22-8 40-23 53-15 14-36 21-61 21z"/><path id="C" d="M548.319 514.818v-130c0-6 0-10-1-12 0-2-1-4-2-6-1-1-4-3-8-5h-2c0-1-2-1-3-2-6-2-9-4-9-7s1-5 3-6 5-1 11-1h33c2 0 3 0 4 1 3 1 7 4 12 10 6 6 15 18 30 35 15 19 29 38 44 58l41 60v-140c-1-3-1-5-2-6-1-2-4-3-7-4-1 0-1-1-2-1 0 0-1 0-3-1-4-1-6-3-6-6 0-2 1-4 3-5 1-1 4-1 9-1h30c7 0 11 0 13 1 3 1 4 2 4 5s-3 5-7 7-7 4-8 5-3 3-3 6c-1 2-1 6-1 12v172c0 8-1 13-2 14 0 2-2 3-4 3-4 0-10-7-18-20-4-6-6-10-8-13-18-29-38-57-58-84s-41-52-63-77v147c0 4 0 8 1 12 0 4 1 7 2 9 0 2 1 3 2 4s4 2 7 3c1 1 3 2 6 2 5 2 8 4 8 8 0 2-1 4-3 5s-6 1-11 1h-42c-5 0-8 0-10-1s-3-2-3-4 0-3 1-4c0-1 1-2 2-2 1-1 3-2 7-4 4-1 7-3 8-5 2-2 3-5 4-10s1-13 1-23z"/><path id="D" d="M413.319 597.818h35c6 0 10 0 12 1s3 3 3 5c0 3-3 6-8 8-3 1-5 2-7 3s-3 2-4 4c-1 3-1 6-1 9 0 11 4 32 11 61 8 30 18 61 30 95 15-33 27-65 35-94 9-29 13-51 13-64v-6c-1-1-2-3-3-4s-4-2-7-4c-4-2-6-4-6-6 0-3 1-5 3-6 2-2 5-2 10-2h32c5 0 9 0 11 2 2 1 3 2 3 5s-2 6-5 7c-2 1-2 1-3 2-4 2-6 4-7 6s-2 6-2 10c0 13 4 34 14 63 9 29 21 59 36 91 13-33 23-64 30-93 8-29 12-50 12-63 0-3-1-5-2-7 0-2-1-3-3-4l-8-4c-5-2-8-5-8-8s1-4 3-5c2-2 5-2 8-2h30c6 0 9 0 11 1s3 3 3 6c0 2-2 5-5 8-4 3-6 6-8 9-1 2-3 10-5 22-1 6-2 11-3 14-4 22-9 43-15 65-5 21-12 42-20 63v1c-9 26-17 40-23 40s-15-12-25-37c0-1-1-2-1-2-8-20-16-39-22-58-6-18-12-35-16-50-14 49-26 86-37 110-10 25-18 37-25 37-5 0-11-8-17-22-6-15-14-42-25-82-6-22-12-49-19-80-1-8-3-14-4-18 0-3-1-5-2-7 0-1-1-3-2-3-1-1-1-2-3-2-4-2-5-5-5-8 0-2 1-4 2-5 2-2 5-2 9-2z"/></defs></svg>