<svg width="32" height="32" viewBox="-16 -16 32 32" xmlns="http://www.w3.org/2000/svg"><circle fill="#fff" stroke="#000" style="stroke-width:1.03226;fill:#000;fill-opacity:1" r="15.484"/><path fill="none" stroke="#000" stroke-miterlimit="10" stroke-width=".187" d="M-5.868 13.258a.13.13 0 0 1-.095-.036c-.027-.027-.036-.064-.032-.114.004-.109.01-.217.01-.322 0-.14.003-.29.017-.431.041-.377.096-.776.164-1.18.063-.372.154-.74.254-1.144.054-.222.118-.463.204-.68.145-.4.313-.795.454-1.13l.05-.119c.145-.35.3-.712.463-1.062a6.58 6.58 0 0 1 .236-.449c.063-.113.127-.231.186-.345.077-.15.15-.309.218-.458.054-.114.109-.232.163-.34.173-.355.35-.718.522-1.067.145-.295.295-.586.445-.872.059-.113.118-.227.177-.345.045-.09.095-.181.145-.272.068-.122.136-.25.2-.377.059-.118.109-.24.163-.358.045-.105.095-.218.145-.322.078-.16.16-.323.236-.481.078-.16 2.351-4.875 2.67-5.52.099-.204.212-.408.317-.603.086-.159.177-.322.258-.486.146-.29.286-.59.418-.88.054-.123.113-.24.168-.363.032-.064.059-.127.09-.19.132-.282.273-.577.396-.868.195-.472.372-.962.544-1.434.014-.036 0-.095-.013-.145l-.01-.027c-.009-.041-.031-.086-.05-.127a.07.07 0 0 0-.018-.032l-.005-.005a.05.05 0 0 1-.013-.032c-.004-.004-.004-.009-.01-.009l-.013-.013-.023-.023.014-.018c-.19-.245-.386-.486-.576-.73-.2-.25-.4-.505-.595-.759-.05-.068-.104-.136-.154-.204-.046-.064-.096-.122-.14-.186l-.02.009-.013-.027c-.031-.055-.063-.114-.095-.168-.032-.06-.064-.114-.095-.173a.187.187 0 0 1-.023-.122c.1-.45.345-.772.73-.958l.032-.018s.004 0 .004-.004l.091-.068.004-.004h.01c.154-.032.308-.064.458-.091l.022-.005.004.009.25-.014.005-.004h.013c.01 0 .019 0 .028-.004.013 0 .022-.005.036-.005.63.032 1.135.11 1.58.25.394.1.807.204 1.184.422.077.045.154.086.231.127.046.027.096.05.146.077h.009l.022.018.068.037H6.38c.027.018.05.04.077.059.045.036.09.068.136.104l.004-.004c.05.04.105.081.159.122.095.073.195.146.277.232.159.163.304.34.445.513.036.045.072.086.109.131.013.014.018.037.022.055a.05.05 0 0 0 .01.027c.113.1.09.227.067.336-.004.036-.013.068-.013.1a.71.71 0 0 1-.064.181c-.013.027-.022.055-.032.077-.131.3-.344.54-.658.731a.495.495 0 0 0-.204.218c-.072.145-.154.281-.236.418-.072.122-.145.245-.213.372-.136.263-.259.535-.381.798-.037.078-.073.16-.11.236l-.095.21c-.122.258-.249.53-.367.793-.132.3-.263.604-.39.903l-.259.6c-.082.19-.172.38-.259.562-.063.136-.131.277-.195.418-.118.259-.231.518-.34.772-.055.131-.114.258-.173.39-.095.213-.19.427-.285.635-.096.205-.191.422-.282.631-.063.141-.127.286-.186.427-.059.14-.122.286-.186.43-.095.21-.195.418-.29.622-.068.14-.132.281-.196.422L1.438 2.27c-.21.445-.39.835-.554 1.19-.363.812-.663 1.488-.94 2.114-.072.168-.145.336-.213.5-.118.28-.24.571-.372.853-.259.54-.527 1.08-.808 1.61-.145.282-.309.564-.463.831-.068.114-.132.232-.2.345-.009.023-.036.041-.054.055l-.014.009c-.04.063-.081.131-.127.195h.005l-.023.036c-.013.018-.022.037-.031.05-.019.027-.037.06-.055.082-.032.05-.063.1-.095.154-.06.096-.123.2-.195.29a43.89 43.89 0 0 1-.527.677c-.054.068-.109.136-.163.209a.232.232 0 0 1-.077.059c-.014.008-.027.013-.037.022l-.009.005h-.004c-.013.014-.022.032-.036.045l-.04.055-.005.013-.022.019-.1.108c-.082.091-.168.182-.254.273-.004.013-.01.022-.014.032l-.004.004-.005.004c-.027.023-.05.041-.072.064-.023.022-.05.04-.078.063l-.009.01h-.004l-.82.711-.2.16c-.028.022-.137.067-.137.067-.05.009-.095.014-.145.023-.127.018-.254.04-.381.05zm3.34-3.132z" style="fill:#fc0;stroke-width:.778928;stroke-miterlimit:10;stroke-dasharray:none;stroke:#fc0;stroke-opacity:1"/></svg>