<svg xmlns="http://www.w3.org/2000/svg" xml:space="preserve" style="enable-background:new 0 0 612 612" viewBox="0 0 612 612"><path d="M78.26 168.01c2.98 0 6.08.18 9.31.56 3.22.37 6.08.19 8.57-.56 3.23.5 6.08.87 8.57 1.12 2.48.25 5.09.37 7.82.37 10.67 2.73 20.49 7.58 29.43 14.53.74 1.25 1.55 2.55 2.42 3.91.87 1.37 1.68 2.67 2.42 3.91.99.5 1.8 1.12 2.42 1.86.62.75.43 1.62-.56 2.61.5.5 1.12 1 1.86 1.49.75 0 1.36.37 1.86 1.12.5.74.75 1.49.75 2.23 0 .25.12.5.37.75.24.25.62.37 1.12.37v2.61c0 .25.62.75 1.86 1.49 0 1 .19 1.86.56 2.61.37.75.18 1.37-.56 1.86.5.5.87.75 1.12.75h.37v2.61a52.92 52.92 0 0 1 2.61 5.22c0 2.74.43 5.16 1.3 7.26.87 2.11 1.05 4.28.56 6.52-.5.74-.62 1.62-.37 2.61.25 1 .37 2.11.37 3.35 0-.5.12-.75.37-.75h.37c0 1.99-.13 4.1-.37 6.33-.25 2.23-.37 4.6-.37 7.08 0 1.99-.32 3.79-.93 5.4-.62 1.62-.93 3.3-.93 5.03-.5 2.24-1.25 4.28-2.23 6.15-1 1.86-1.99 3.79-2.98 5.77-.75 2.98-2.05 5.65-3.91 8.01-1.86 2.36-3.67 4.66-5.4 6.89-1 1.74-2.24 2.55-3.73 2.42-1.49-.12-2.49.69-2.98 2.42h-1.86v-1.49h-2.61c-.5.5-1.62.75-3.35.75-.5 1-1.37 1.49-2.61 1.49-1.25 0-2.11.62-2.61 1.86h2.61c0 1-.32 1.55-.93 1.68-.62.13-1.18.18-1.68.18h-3.72c-1.25 0-2.24-.24-2.98-.75.25 0 1.12.5 2.61 1.49h3.35c0 .75.12 1.25.37 1.49 0 .25.12.37.37.37 0 .5-.62 1.37-1.86 2.61.25 0 .5.06.75.18.25.13.5.19.75.19l.37.37c-1 .5-1.86.93-2.61 1.3-.75.37-1.62.81-2.61 1.3v.75c2.24 0 3.97-.25 5.21-.75l2.61-2.61c.49.5.75 1.62.75 3.35 1.24 0 2.11.37 2.61 1.12.5 0 1.05-.25 1.67-.75.62-.5 1.18-.25 1.68.75-.75.75-1.43 1.62-2.05 2.61-.62 1-.69 2.11-.19 3.35h1.49c0-.24.12-.49.37-.75 0-.24.06-.43.19-.56.12-.12.19-.31.19-.56v-.37l-.75-1.49c.99.5 1.86.81 2.61.93.75.13 1.36.44 1.86.93.5 0 1.36-.62 2.61-1.86 1.73 0 3.1.69 4.1 2.05.99 1.37 2.11 2.42 3.35 3.17 3.97 3.98 7.2 8.07 9.69 12.29 1.98 3.73 3.66 7.7 5.03 11.92 1.36 4.23 2.54 8.44 3.54 12.66h-1.87c-.5.75-1.37 1.12-2.61 1.12-.5-.5-.69-1.05-.56-1.68.12-.62-.18-1.17-.93-1.67v2.23c-.5 0-1.37.62-2.61 1.86.49 0 1.17-.31 2.05-.93.87-.62 1.3-.31 1.3.93.99 0 1.8-.12 2.42-.37.62-.25 1.18-.12 1.68.37.75.5 1.12 1.37 1.12 2.61h-2.61 2.61c0 1.74.25 3.11.75 4.1-.5.5-.93.81-1.3.93-.37.13-.56.44-.56.93h1.12v1.86c1.24.5 1.36 1.25.37 2.24-1 1-1.74 1.99-2.23 2.98h2.61-.75v5.96c.75 1.74.8 3.42.19 5.03-.62 1.62-.69 3.29-.19 5.03-.75 0-1.62-.49-2.61-1.49.5 1 .75 2.73.75 5.21h-1.49 1.49v2.24c-1.49-.75-2.86-.75-4.1 0h3.35c0 1.25.25 2.11.75 2.61-.75 1.99-1.49 3.79-2.24 5.4-.75 1.62-1.74 3.04-2.98 4.28 0 1.99-.31 4.04-.93 6.15-.62 2.11-2.05 3.79-4.28 5.03 0 1.74-.75 3.48-2.24 5.22-1.25 2.24-2.98 4.23-5.21 5.96-2.24 1.99-4.41 4.04-6.52 6.15a24.542 24.542 0 0 1-7.26 5.03 60.69 60.69 0 0 0-6.52 2.61c-2.11 1-4.53 1.25-7.26.75-.5-.5-1.06-.68-1.67-.56-.62.13-.93.56-.93 1.3h-2.61c-.5-.5-1.06-.75-1.68-.75-.62 0-1.18-.25-1.67-.75l1.49 1.49c-.74.5-1.55.87-2.42 1.12-.87.25-1.68-.12-2.42-1.12-1 .5-2.11.62-3.35.37-1.25-.25-2.48-.37-3.72-.37-1.25 0-2.55.13-3.91.37-1.37.25-2.67.37-3.91.37-.5-1.24-1.25-1.55-2.23-.93-1 .62-1.86.93-2.61.93-.5-.5-.93-.75-1.3-.75s-.81-.25-1.3-.75c-.5.5-.93.75-1.3.75s-.81.25-1.3.75c-.5 0-.93-.12-1.3-.37s-.81-.37-1.3-.37c0-.99.62-1.49 1.86-1.49h-3.73c-1.99 1-3.72 1.25-5.21.75-.5.5-1.06.87-1.67 1.12-.62.25-1.43.13-2.42-.37 0-.5.12-1.05.37-1.68.24-.62.37-1.17.37-1.67h-.75c0 1-.44 1.67-1.3 2.05-.87.37-1.55.31-2.05-.19 0-.5.12-.93.37-1.3s.37-.8.37-1.3c-1 .5-1.55 1.25-1.68 2.24-.13 1-.18 1.86-.18 2.61-2.74 0-4.72-.25-5.96-.75-.5-.5-.43-.93.19-1.3s.93-.8.93-1.3h-1.86v1.86c-1 1-2.11 1.49-3.35 1.49-2.23-.99-3.35-2.61-3.35-4.84.5 0 .75-.19.75-.56 0-.37.25-.8.75-1.3H50.7c0 1.25-.5 1.86-1.49 1.86 0 .75.12 1.37.37 1.86.25.5.37 1 .37 1.49h-1.86c0 1.25-.5 1.67-1.49 1.3-1-.37-1.86-.56-2.61-.56-.5-.5-1.06-1.18-1.68-2.05-.62-.87-1.55-1.3-2.79-1.3 0 1.74-.87 2.61-2.61 2.61 0 .5-.25.93-.75 1.3s-.75.81-.75 1.3v-1.86h-1.12c.5 1 .31 1.49-.56 1.49-.87 0-1.56-.25-2.05-.75-.75-.5-1.62-.75-2.61-.75-1 0-1.74-.25-2.23-.75v-7.82l.75-.75c-1-2.23-1.37-4.41-1.12-6.52.25-2.11.37-4.53.37-7.26.49 0 .93.13 1.3.37.37.25.8.37 1.3.37v1.12c.75-.99 1.86-1.43 3.35-1.3 1.49.13 2.85.18 4.1.18.5-.49 1.3-.74 2.42-.74h2.79c.5-.5 1.05-.87 1.68-1.12.62-.25 1.17.13 1.67 1.12.75-.5 1.99-.75 3.73-.75v1.49c1.74 0 1.99.44.75 1.31-1.25.87-2.11 1.06-2.61.56 1.24 1.25 1.86 2.36 1.86 3.35h1.49v-.75h-.75c0-.99.62-1.86 1.86-2.61.99 0 1.49.5 1.49 1.49h.75c0 .5-.06.81-.19.93-.13.13-.19.32-.19.56l-.37.37c1.74 0 2.61-.87 2.61-2.61h-1.86v-1.49c-.5 0-1.06-.19-1.68-.56-.62-.37-1.18-.56-1.67-.56l1.12-.74c.5-.5 1.24-.75 2.24-.75v.75c.25 0 .5-.12.75-.37.25 0 .43-.06.56-.19.12-.12.31-.18.56-.18v-2.61c-.5-.49-1.18-.8-2.05-.93-.87-.12-1.06-.43-.56-.93s1.36-.75 2.61-.75c.25 0 .43.07.56.19.12.13.31.19.56.19.24.25.49.37.74.37.5 0 1.06-.12 1.68-.37.62-.25 1.17-.37 1.68-.37v-2.61h2.61v-.75h-5.96c.25-.25.43-.5.56-.75.12-.25.31-.5.56-.75l.37-.37c-.5 0-1.18-.06-2.05-.19-.87-.12-1.3-.68-1.3-1.67 0-.75.37-1.49 1.12-2.24.74-.75 1.49-.87 2.23-.37v1.86c.5 0 1.05-.12 1.68-.37.62-.25 1.17-.12 1.67.37l1.12.75c.75 0 1.49.06 2.24.18.74.13 1.36.44 1.86.93l1.12-1.12c-1 0-1.8-.12-2.42-.37-.62-.25-.69-.99-.19-2.24h2.61c.5-.49.75-1.61.75-3.35h-1.86c0 1.25-1.12 1.86-3.35 1.86 0-1.24-.87-2.73-2.61-4.47.49 1 .74 2.05.74 3.17v2.79c-.74 0-1.37-.12-1.86-.37-.5-.25-1.25-.37-2.24-.37v-.74c-.5 0-.81.13-.93.37-.13.25-.44.37-.93.37-.25 0-.37-.12-.37-.37-.25-.25-.37-.62-.37-1.12-2.24 0-3.35-.87-3.35-2.61 0-3.22-.06-6.45-.19-9.68-.13-3.23.19-6.33.93-9.31 0-1.24-.25-2.11-.75-2.61h1.87c.5 0 .75.25.75.75h5.96c-1-.5-1.12-1.17-.37-2.05.75-.87 1.36-1.3 1.86-1.3v2.61h1.86c-.5-1.24-.25-1.86.75-1.86h2.61v-2.61c-.5.5-1.12 1.06-1.86 1.67-.75.62-1.49.69-2.24.19 0-.5-.07-1.05-.19-1.68-.13-.62-.44-1.17-.93-1.67h3.73c1.24 0 2.36-.25 3.35-.75-.5-.75-.75-1.99-.75-3.73h3.35l-.37-.37c-.25-.25-.5-.43-.75-.56-.25-.12-.5-.31-.75-.56-.5.5-1.06.75-1.68.75-.62 0-1.18.25-1.67.75v-2.23c0-.75.25-1.36.75-1.86-1.74-1.24-3.48-1.86-5.22-1.86.5 1 1.05 1.8 1.68 2.42.62.62.93 1.56.93 2.79v4.47c-1 0-1.86.25-2.61.75V374h-1.49c0 .75-.25 1.62-.75 2.61-.5 1-1.37 1.25-2.61.75-.99.5-1.67.25-2.05-.75-.37-.99-.56-1.86-.56-2.61-.25.25-.5.37-.75.37-.25.25-.62.37-1.12.37 0-.99-.06-1.8-.19-2.42-.13-.62.19-1.17.93-1.67 0-.99-.13-1.74-.37-2.24-.25-.5-.37-.99-.37-1.49l3.35-3.35c-.5 0-1.06-.12-1.67-.37-.62-.25-1.18-.37-1.68-.37.5-1.24 1.24-1.86 2.24-1.86h2.98c-.5-.5-1.25-.75-2.23-.75h-2.24c0-1.24.37-2.11 1.12-2.61h-1.12v1.86c-1.74-.5-2.36-1.49-1.86-2.98.49-1.49 1.12-2.85 1.86-4.1-.5-.49-.87-.74-1.12-.74-.25 0-.37-.25-.37-.75 0-.99.12-1.74.37-2.24.24-.5.62-.99 1.12-1.49 0-.25-.5-1.12-1.49-2.61.5-1.24.5-2.67 0-4.28-.5-1.61-.5-3.29 0-5.03 0-1.24-.06-2.67-.19-4.28-.13-1.61.19-3.29.93-5.03v-8.57l.75-1.12c-1.25-.5-1.68-1.42-1.3-2.79.37-1.36.56-2.67.56-3.91 2.24 1 3.35 2.36 3.35 4.1h1.86v-1.49h2.61v2.61c.75 0 1.24.32 1.49.93.25.62.62 1.43 1.12 2.42h-2.61l-1.86.74v1.86c-.75-.5-1.49-.31-2.23.56-.75.87-.5 1.55.74 2.05 0 1-.62 2.11-1.86 3.35h2.61c0 1-.37 1.68-1.12 2.05-.75.37-1.49.56-2.24.56.75.5 1.49.81 2.24.93.75.13 1.36.44 1.86.93-.5.75-.75 1.56-.75 2.42v2.42c-.5.5-1.12.87-1.86 1.12-.75.25-.75.75 0 1.49 0 1 .31 1.25.93.74.62-.49 1.17-.74 1.67-.74.5 1 .99 1.55 1.49 1.67.5.13 1.12.19 1.86.19.5-.99.5-1.55 0-1.68-.5-.12-1-.43-1.49-.93v-1.86c1.24-.49 2.05-.12 2.42 1.12.37 1.25.93 2.36 1.68 3.35-.5.5-.75.87-.75 1.12 0 .25-.25.37-.75.37-1.25 0-2.11-.25-2.61-.75 0 1.25-.25 1.86-.75 1.86h-1.12v.75h1.86l.75-.75c.49.75.8 1.55.93 2.42.12.87.43 1.8.93 2.79-.5.5-.93 1.06-1.3 1.68-.37.62-.81 1.18-1.3 1.68.75 0 1.49-.12 2.23-.37.75-.25 1.12-.12 1.12.37-.5.74-.93 1.43-1.3 2.05-.37.62-.81 1.3-1.3 2.05.24 0 .62.25 1.12.74.25.25.5.37.75.37v1.49h.75c0-.75.24-1.49.75-2.24.49-.75 1.36-.87 2.61-.37-.75 1-1.62 1.86-2.61 2.61.99.5 2.17 1.06 3.54 1.67 1.36.62 2.29.07 2.79-1.67h-.75c-.25 0-.62-.25-1.12-.75l.75-.75c-1 0-1.49-.62-1.49-1.86 0-.99.31-1.36.93-1.12.62.25 1.17.62 1.67 1.12v-3.35c.99 0 1.74.25 2.24.74v-1.49H72.3v-1.86c-1 0-1.86.13-2.61.37-.75.25-1.62.13-2.61-.37.99-.49 1.67-.93 2.05-1.3l1.3-1.3c0-.5-.31-.8-.93-.93-.62-.12-1.18-.43-1.67-.93 0-.5.19-.75.56-.75.37 0 .8-.25 1.3-.75h2.61c-.5-.99-1.25-1.55-2.23-1.67-1-.12-1.99-.19-2.98-.19 1.73-.75 3.47-1.61 5.21-2.61v-.75c.99-.99.99-2.11 0-3.35v-1.12c0-.25-.62-.75-1.86-1.49 1.24 0 1.86-.62 1.86-1.86-.5-.5-1.12-.75-1.86-.75s-.75-.25 0-.75c0-.99.37-1.55 1.12-1.67.75-.12 1.49-.19 2.24-.19-1.49-1.74-2.24-3.73-2.24-5.96-2.48 0-3.97-.25-4.47-.75.99-.5 1.67-.93 2.05-1.3l1.3-1.3v2.61c.5-.99 1.24-1.92 2.24-2.79.99-.87.87-1.68-.37-2.42 0-.49.12-.8.37-.93.25-.12.62-.43 1.12-.93-.75 0-1.37.06-1.86.19-.5.13-1 .69-1.49 1.67-.25-.24-.37-.49-.37-.75v-.37h-.37c-.25 0-.62.25-1.12.75-.25.25-.5.37-.75.37.99.5 1.36 1 1.12 1.49-.25.5-.87.5-1.86 0-1.25 0-1.86-.87-1.86-2.61-1-.99-1.49-1.86-1.49-2.61 0-.75.56-1.05 1.67-.93 1.12.13 1.92.19 2.42.19 0 .25-.07.44-.19.56-.13.13-.19.32-.19.56-.25.25-.37.5-.37.75 0 .5.12.75.37.75h.37c.25 0 .5-.12.75-.37.24 0 .43-.06.56-.19.12-.12.31-.19.56-.19.5-1.24 1.12-2.67 1.86-4.28.75-1.61.75-3.04 0-4.28 2.48-1.24 4.72-.37 6.71 2.61-.5-.99-.87-1.92-1.12-2.79-.25-.87.12-1.68 1.12-2.42h-.75c0-.99.12-1.68.37-2.05.25-.37.37-.8.37-1.31h-2.61v-1.12h-.75v1.86c-1.49 0-2.61.62-3.35 1.86-2.48 0-4.22-.37-5.21-1.12 1.74 0 3.1-.5 4.1-1.49 0-.24-.13-.49-.37-.74l-1.12-1.12c.5-.5.93-.8 1.3-.93.37-.12.8-.43 1.3-.93.75 1 1.68 1.25 2.79.75 1.12-.5 2.17-.99 3.17-1.49-.75-.5-1.12-1.61-1.12-3.35-.5-.5-1.06-.8-1.67-.93-.62-.12-.93-.68-.93-1.67 1.24 0 2.42-.43 3.54-1.3 1.12-.87 2.29-1.05 3.54-.56l.75-.75h-4.1c0-.99.31-1.55.93-1.67.62-.12 1.18-.43 1.68-.93-.5 0-1.25.19-2.24.56-1 .37-1.74-.06-2.24-1.3 1.24-.49 2.24-1.3 2.98-2.42.75-1.12.62-2.29-.37-3.54l.74-1.12-2.61-2.61c.5.99.99 1.86 1.49 2.61.5.75.37 1.37-.37 1.86v2.61c-1.25 0-2.11.25-2.61.75v-2.61c0-.5-.18-.93-.56-1.3-.37-.37-.81-.8-1.3-1.3-.25.5-.37.87-.37 1.12-.25.5-.37 1-.37 1.49-1.25-.5-1.8-1.3-1.67-2.42.12-1.12.43-2.29.93-3.54h-2.61l2.61-2.61c-1-.75-2.05-.62-3.17.37-1.12 1-2.18.87-3.17-.37.49-.49.99-.75 1.49-.75h.37c0-.49-.25-1.12-.75-1.86-.5.5-.93.81-1.3.93-.37.13-.81.44-1.3.93 0 .5.12.93.37 1.31.25.37.37.81.37 1.3h-2.98c-1 0-1.99.25-2.98.75.99 1 1.99 1.43 2.98 1.3.99-.12 1.99.06 2.98.56.75-1.24 1.61-1.86 2.61-1.86v1.86c0 .74.25 1.62.75 2.61 0 1 .37 1.86 1.12 2.61-1.25 0-2.11-.37-2.61-1.12-.5 1-1.12 1.55-1.86 1.67-.75.13-1.62.19-2.61.19.99 1.25 2.05 1.8 3.17 1.68 1.12-.12 2.05-.19 2.79-.19-.5.75-1.62 1.12-3.35 1.12h-7.82v3.35c.75.5 1.61.75 2.61.75-.5.5-.75.93-.75 1.3s-.25.81-.75 1.31h4.1c-.75 1-1.62 1.86-2.61 2.61 1.99 0 3.48.87 4.47 2.61-.25 0-.5.13-.75.37-.25.25-.44.5-.56.75-.13.25-.32.5-.56.75.74 0 1.61.5 2.61 1.49-.5 0-.93.19-1.3.56-.37.37-.81.56-1.3.56.99.5 1.67.87 2.05 1.12.37.25.8.37 1.3.37v1.86c-1.25 0-2.24.43-2.98 1.3-.75.87-1.74 1.3-2.98 1.3 0-1.24.43-1.86 1.3-1.86.87 0 1.55-.24 2.05-.74-.5-.99-.87-1.86-1.12-2.61-.25-.75-.62-1.61-1.12-2.61-1.25.75-1.86 1.62-1.86 2.61-.5-1.24-.75-2.98-.75-5.21-.99.5-1.92.87-2.79 1.12-.87.25-1.68.13-2.42-.37.5-.75.93-1.55 1.3-2.42.37-.87 1.05-1.67 2.05-2.42h-3.35c0-.99.12-1.86.37-2.61.24-.75.12-1.36-.37-1.86.5-1.24.75-2.98.75-5.21.5 0 .8-.12.93-.37.12-.25.43-.62.93-1.12-.5 0-.93-.18-1.3-.56-.37-.37-.81-.56-1.3-.56v-4.1c.75 0 .93-.37.56-1.12-.37-.75-.56-1.49-.56-2.24 0-3.48.06-7.08.19-10.8.12-3.73-.19-7.32-.93-10.8.75-3.47 1.05-6.76.93-9.87-.13-3.1-.19-6.39-.19-9.87v-9.31c.75-1.99 1.61-2.36 2.61-1.12-.5-.75-.31-1.17.56-1.3.87-.12 1.55-.18 2.05-.18 0-1.24-.37-2.11-1.12-2.61.99-.99 2.05-1.24 3.17-.75 1.12.5 2.05.75 2.79.75 0-.49-.13-.93-.37-1.3-.25-.37-.37-.8-.37-1.3h1.86c-.5-.5-1.25-.99-2.24-1.49-1-.49-1.99-.37-2.98.37-1 1-1.67 2.11-2.05 3.35-.37 1.25-1.43 1.62-3.17 1.12-.5-.99-.44-1.67.19-2.05.62-.37 1.17-.8 1.67-1.3l-1.12-1.12c.99-.5 2.11-.99 3.35-1.49 1.24-.5 2.48-.75 3.73-.75v-1.86h2.61c0-.5.12-1.12.37-1.86.25-.75.37-1.61.37-2.61-1.99 1.25-3.35 1.86-4.1 1.86v-1.86c.75 0 1.49-.06 2.23-.18.75-.12 1.12-.56 1.12-1.31-.5 0-1.12-.06-1.86-.18-.75-.12-1.62-.43-2.61-.93.75 0 1.61-.5 2.61-1.49-.5 0-.93-.12-1.31-.37-.37-.25-.81-.37-1.3-.37v-4.47c-.5-.5-1.06-.75-1.67-.75H55.9c-1.25 0-1.86-.62-1.86-1.86v-3.35c.99-.5 1.74-.43 2.24.18.5.62.99 1.18 1.49 1.68.75-1.24 1.61-1.36 2.61-.37.99 1 1.49 1.86 1.49 2.61.99.5 1.67.43 2.05-.19.37-.62.56-1.3.56-2.05h-3.17c-1.12 0-1.18-.87-.18-2.61h2.61-2.61c-.5-1.24-.5-2.36 0-3.35.49-.99.99-1.99 1.49-2.98h3.73v-.75h-4.47c-.5 1-.81 1.86-.93 2.61-.13.75-.69 1.62-1.68 2.61v2.61c-.75-.5-1.67-1.12-2.79-1.86-1.12-.75-2.18-.75-3.17 0 1.24.5 1.36 1.06.37 1.68-1 .62-1.99.93-2.98.93 0-1.24-.5-2.36-1.49-3.35v-1.86c-1 .5-1.74 1.06-2.24 1.68-.5.62-1.25.93-2.23.93 0 .5.12.81.37.93.25.13.37.44.37.93-1 0-1.86.25-2.61.75v-1.49c-.5.5-.75 1.06-.75 1.67 0 .62.25 1.18.75 1.68.5 0 1.12-.12 1.86-.37.74-.24 1.36-.37 1.86-.37-1-.99-1.12-1.86-.37-2.61l1.86-1.86c.49 0 1.12.62 1.86 1.86-1 .75-1.37 1.55-1.12 2.42.24.87.62 1.68 1.12 2.42-.5.5-.93 1.06-1.3 1.67-.37.62-.81.69-1.3.19 0-.25-.07-.43-.19-.56-.13-.12-.19-.31-.19-.56-.25-.25-.37-.5-.37-.75v.75c0 .25-.37.37-1.12.37h-3.35c0 1 .25 1.86.75 2.61h-5.4c-1.86 0-3.42-.62-4.66-1.86-1.74 1.74-3.48 1.99-5.21.75-1-.75-1.37-1.68-1.12-2.79.25-1.12.62-2.17 1.12-3.17-1-2.73-1.25-5.52-.75-8.38.49-2.85.49-5.77 0-8.75.49 0 1.05-.31 1.67-.93.62-.62.93-.31.93.93 1.24-.75 2.67-1.05 4.28-.93 1.61.13 3.04.19 4.28.19 0 1.25.12 1.55.37.93s.62-1.17 1.12-1.67c2.24 1 3.97 1.25 5.22.75.99 1 1.86 1.49 2.61 1.49 0-.49-.25-.99-.75-1.49.5 0 .93.13 1.3.37.37.25.8.37 1.3.37 1.24-1.24 2.67-1.8 4.28-1.68 1.61.13 3.04.19 4.28.19 3.48.75 6.89.93 10.25.56 3.38-.46 6.79-.65 10.27-.65zm-28.31 23.84c.5-.99 1.17-1.3 2.05-.93.87.37 1.3.93 1.3 1.68-.5 1-1.18 1.37-2.05 1.12-.87-.25-1.3-.87-1.3-1.87zm2.61-11.92c-1 .5-1.18 1-.56 1.49.62.5 1.3.5 2.05 0 .5-.5.5-.99 0-1.49s-.99-.5-1.49 0zm2.61 121.06c1.99 0 3.35 1.37 4.1 4.1-.5 0-.93.18-1.3.56l-1.3 1.3v.37c0 .75.37 1.25 1.12 1.49h-3.72v-2.61l-1.49-1.12c0-.5.12-.99.37-1.49 0-.25.12-.62.37-1.12h.75c.75 0 1.12-.24 1.12-.75v-.73zm-1.86-2.61c.99-.5 1.86-.62 2.61-.37.75.25 1.61.62 2.61 1.12-.5.5-.93.81-1.3.93-.37.13-.81.44-1.3.93-1-.5-1.8-.8-2.42-.93-.64-.12-.71-.68-.2-1.68zm.93-12.1c.12.62.43.93.93.93.5-.5.68-1.05.56-1.68-.13-.62-.68-.93-1.67-.93-.01.5.05 1.06.18 1.68zm8.01-70.22c-1.25 1-2.49 1.49-3.73 1.49v.75c0 .25.25.37.75.37.5-.5.93-.8 1.3-.93.37-.12.8-.43 1.31-.93.49 1 1.05 1.68 1.67 2.05.62.37 1.17.81 1.68 1.31.99 0 1.55.31 1.67.93.12.62-.06 1.18-.56 1.68-.5-1.24-1.12-1.86-1.86-1.86h-2.61c.49.5 1.3 1 2.42 1.49 1.12.5 1.17 1.25.19 2.24l.75.75h2.61c0-.99-.19-1.99-.56-2.98-.37-.99-.19-1.73.56-2.23 3.22 1 5.21 2.73 5.96 5.21v-2.61c.25 0 .62-.12 1.12-.37.25 0 .5-.06.75-.18s.5-.19.75-.19l1.12.75v-1.86h-1.86v1.12H72.3c0-.75.12-1.24.37-1.49 0-.25.12-.37.37-.37h-3.35v-3.35h-1.67c-.62 0-1.18.25-1.68.75.99-1.98 1.49-3.1 1.49-3.35l-.37-.37c-.25 0-.43-.06-.56-.19-.13-.12-.31-.19-.56-.19.25-.24.43-.49.56-.75.12-.24.31-.49.56-.74l.37-.37c-.5 0-1.18.06-2.05.19-.87.13-1.06.69-.56 1.67-.74.7-1.73 1.57-2.97 2.56zm-2.99 104.68c.75 0 1.18.13 1.3.37.12.25.06.44-.18.56-.25.13-.56.19-.93.19-.37-.01-.44-.38-.19-1.12zm1.87-46.57c-1 0-1.37.31-1.12.93.25.62.62.69 1.12.19.75 0 1.05-.31.93-.93-.13-.62-.44-.68-.93-.19zm0 58.48c.49-.5.8-.43.93.19.12.62-.18 1.18-.93 1.68-.5.5-.87.31-1.12-.56-.25-.87.12-1.31 1.12-1.31zm11.92 92.76c-.5 1.25-1.43 2.3-2.79 3.17-1.37.87-2.67 1.55-3.91 2.05 0-1.24-.37-2.11-1.12-2.61l-1.3 1.3c-.37.37-.81.81-1.31 1.3v.75c-.5.5-.87.81-1.12.93-.25.13-.62.44-1.12.93 0 .25.12.37.37.37.25.25.62.37 1.12.37-.75 1.49-.75 2.61 0 3.35v-.74l1.86-.75v.75l.37-.37c0-.25.06-.43.19-.56.12-.12.19-.43.19-.93h-2.61a6.59 6.59 0 0 1 1.86-1.86c.75-.5 1.61-.99 2.61-1.49v1.86h4.1c-.5-.49-.75-1.12-.75-1.86h1.86v3.35c.99 0 2.11-.25 3.35-.75-1.25 0-1.86-.5-1.86-1.49.99-.49 1.92-1.05 2.79-1.67.87-.62 1.92-.93 3.17-.93 0-.99.19-1.73.56-2.23.37-.5.8-.99 1.3-1.49H79c0 1.25-1.12 1.86-3.35 1.86-.5 1.25-1.62 1.86-3.35 1.86 0-.5.12-1.12.37-1.86.25-.75.37-1.36.37-1.86h2.61c-.5 0-.93-.12-1.3-.37s-.81-.38-1.3-.38zM62.62 322.23c1.49-.99 2.36-1.49 2.61-1.49-.5.75-1 1.49-1.49 2.23-.5.75-1.37 1.12-2.61 1.12-.5-.5-.56-1.05-.19-1.68.37-.62.93-.68 1.68-.18zm9.68 63.69c-.5 0-1.06-.18-1.67-.56-.62-.37-.93-.8-.93-1.3-1 0-1.74.19-2.24.56-.5.37-1.25.56-2.23.56-.75-.5-1.43-.87-2.05-1.12-.62-.25-1.3.13-2.05 1.12.75.5 1.55.74 2.42.74.87 0 1.8.25 2.79.75.75.5 1.68.62 2.79.37 1.12-.25 2.17-.37 3.17-.37l.75-.75c0 .75.62.75 1.86 0 0 .5.12.75.37.75h.37v-1.49c-.5 0-1.06.13-1.67.37-.62.25-1.18.37-1.68.37 0-.49.12-.93.37-1.3s.37-.8.37-1.3h-.74v2.6zm-7.82-179.54c-.5 0-.93.18-1.3.56-.37.37-.81.56-1.3.56 1.24 1.74 2.42 1.8 3.54.19s1.92-2.92 2.42-3.91c-.75-.5-1.37-.37-1.86.37-.51.74-1 1.48-1.5 2.23zm-1.86 77.48c.5-.5.99-.31 1.49.56.5.87.37 1.55-.37 2.05-.5.5-1 .37-1.49-.37-.5-.75-.38-1.5.37-2.24zm0 35.01c.5-.49 1.05-.74 1.68-.74.62 0 .93.25.93.74 0 1-.56 1.49-1.68 1.49s-1.43-.49-.93-1.49zm2.61 84.18c.99 0 1.12.44.37 1.31-.75.87-1.37 1.06-1.86.56-.5-.5-.5-.93 0-1.3.49-.38.98-.57 1.49-.57zm1.11-146.01c.5 0 .93.18 1.3.56.37.37.8.56 1.3.56 0 .25-.25.62-.75 1.12l-.37.37h5.96c-.25 0-.75.62-1.49 1.86v2.61c-.5-.49-.93-.8-1.3-.93-.37-.12-.81-.43-1.3-.93-1.49.5-2.98.5-4.47 0v.74h-1.49v1.12c1.24-.99 2.36-1.05 3.35-.18.99.87 2.11 1.8 3.35 2.79h2.61v.74h5.22c-1.99-.74-3.48-1.86-4.47-3.35h7.08c-.5 0-.93-.18-1.3-.56-.37-.37-.81-.56-1.3-.56-1-.99-1.86-1.49-2.61-1.49v-1.86c.5 0 .93-.12 1.3-.37.37-.24.8-.37 1.31-.37-.5 0-.93-.12-1.31-.37-.37-.25-.81-.37-1.3-.37 0-.25-.06-.5-.18-.75-.13-.25-.19-.5-.19-.75l-.37-.37v1.86c-1.25-.5-2.23-.93-2.98-1.3s-1.74-.8-2.98-1.3c-.5.5-.93.75-1.3.75-.39-.02-.82.23-1.32.73zm.37-15.65-.37.37c.5.5.93.81 1.3.93.37.13.8.69 1.3 1.67-.5.5-1.06.75-1.67.75-.62 0-.93-.25-.93-.75-.5 0-.81.07-.93.19-.13.13-.31.19-.56.19l-.37.37 1.86 1.86h3.35c0-.75.12-1.24.37-1.49 0-.25.12-.37.37-.37 1.74 0 2.85.25 3.35.75l1.12-1.12v-.37c-1 0-1.99-.06-2.98-.19-1-.12-1.74-.68-2.24-1.67.5-.5.87-.75 1.12-.75h.75c-.5 0-1.12-.19-1.86-.56-.75-.37-1.37-.56-1.86-.56-.25.01-.62.26-1.12.75zm-2.23 82.7 2.61-2.61 1.3 1.3c.37.37.56.81.56 1.3h-4.47zm.75-96.85v7.45c.49 0 .8-.12.93-.37.12-.25.43-.37.93-.37 0-1.24.12-2.36.37-3.35.25-.99.37-2.11.37-3.35h-2.6zm1.86 162.03c-.5.5-.44.93.19 1.3.62.37 1.17.56 1.67.56s.99-.06 1.49-.19c.5-.12.5-.68 0-1.67-.5-.5-1.06-.8-1.68-.93-.62-.12-1.18.19-1.67.93zm0-133.72c.99-.5 2.11-.75 3.35-.75 1.24 0 1.61-.62 1.12-1.86-.5-.99-1.49-1.12-2.98-.37-1.49.74-1.99 1.74-1.49 2.98zm1.86 70.4c.75-.5 1.12-.62 1.12-.37s-.07.5-.19.75c-.13.25-.32.43-.56.56-.25.12-.37-.2-.37-.94zm1.49 65.93c-1.25.5-1.37 1-.37 1.49.99.5 1.49 1.12 1.49 1.86.5 0 .75-.43.75-1.3 0-.87-.25-1.55-.75-2.05h-1.12zm1.12-158.68v3.35h2.24c-.5-.5-.81-1.05-.93-1.68-.14-.61-.57-1.17-1.31-1.67zm1.49-16.39c-.5 0-.75.25-.75.75.25.75.56 1.06.93.93.37-.12.68-.31.93-.56.24-.25.31-.56.18-.93-.12-.38-.55-.44-1.29-.19zm.74 54.76c-.5.74-.13 1.12 1.12 1.12 0-1.25-.37-1.62-1.12-1.12zm0-40.24c0 .75.12 1.06.37.93.24-.12.43-.31.56-.56.12-.25.18-.5.18-.75.01-.23-.36-.11-1.11.38zm1.86 69.66c.99 0 .99.5 0 1.49-.99 0-.99-.49 0-1.49zm-.74-51.4c.99 1 .99 2.11 0 3.35.5 0 .93.13 1.31.37.37.25.8.37 1.3.37 0-1.24.24-2.11.75-2.61-.5-.49-.93-.74-1.31-.74-.37 0-.56-.25-.56-.75h-1.49zm.74 12.66c.75 0 1.05.13.93.37-.13.25-.31.43-.56.56-.25.13-.5.18-.75.18-.24.01-.12-.36.38-1.11zm15.65 163.9c-1 1.99-2.24 3.29-3.73 3.91-1.49.62-2.86 1.43-4.1 2.42-1.25 0-2.55-.18-3.91-.56-1.37-.37-2.67-.56-3.91-.56 0 1-.06 1.86-.18 2.61-.13.75.18 1.62.93 2.61 1.74 0 2.98-.25 3.73-.75-.5 0-1.18-.06-2.05-.19-.87-.12-1.06-.68-.56-1.68 1.24-.5 2.48-.37 3.72.37 1.24.75 2.48.87 3.73.37 1.24-.75 2.48-1.42 3.72-2.05 1.24-.62 2.11-1.55 2.61-2.79 0 .25.12.37.37.37.25.25.62.37 1.12.37.5-.5.8-.93.93-1.3.12-.37.43-.8.93-1.3 0-1.24-.37-2.11-1.12-2.61l1.3-1.3c.37-.37.8-.56 1.3-.56-1.25-.75-2.18-.68-2.79.18-.61.89-1.3 1.7-2.04 2.44zm-2.61-110.63c0 3.48-.13 6.77-.37 9.87-.25 3.11-.13 6.4.37 9.87h-1.12c0 1-.31 1.86-.93 2.61-.62.75-.31 1.37.93 1.86 0 .5-.13 1.06-.37 1.68-.25.62-.37 1.18-.37 1.67l.75.75v3.35c-.75 0-1.43.19-2.05.56-.62.37-1.3.81-2.05 1.3 1.49 0 2.61.62 3.35 1.86 0 1-.62 1.49-1.86 1.49.5.5.93 1.06 1.3 1.68.37.62.56 1.18.56 1.68l-.75-.75c-.5 1-1.06 1.55-1.67 1.67-.62.13-1.18.19-1.68.19-.5.75-.81 1.55-.93 2.42-.13.87-.43 1.68-.93 2.42l-.37-.37c-.25 0-.5-.06-.75-.18s-.5-.19-.75-.19c.5.5.93.81 1.31.93.37.13.8.43 1.3.93l-.75.37v.37c-1.25 0-2.42.19-3.54.56-1.12.37-1.68 1.06-1.68 2.05 2.24-2.23 4.84-2.48 7.82-.75-1 .5-1.68.75-2.05.75-.37 0-.81.25-1.3.75l.75 1.12c-.5 1.25-.5 2.67 0 4.28.5 1.62 1.36 2.42 2.61 2.42v-2.61h.75c.5 1 .87 1.86 1.12 2.61.25.75.12 1.62-.37 2.61h-.75v1.86c.5 0 .93-.18 1.3-.56.37-.37.8-.56 1.3-.56v4.47c.5.75.75 1.68.75 2.79v3.17h-3.35c.5 0 .75.62.75 1.86 1.73 0 2.61.5 2.61 1.49 0 1.74.19 3.48.56 5.21.37 1.74.56 3.23.56 4.47 0 2.98.43 5.9 1.3 8.75.87 2.86 2.42 5.28 4.66 7.26 1.73.5 3.41.93 5.03 1.3 1.61.37 3.04.81 4.28 1.3 1.74-.49 3.41-.87 5.03-1.12 1.61-.25 2.79-.99 3.54-2.24 1.73 0 3.17-.49 4.28-1.49 1.12-.99 2.29-1.86 3.54-2.61.5 0 1.05-.18 1.68-.56.62-.37.93-.8.93-1.3 0-1.74.5-3.1 1.49-4.1.99-.99 1.86-1.99 2.61-2.98v-.75c1.24-.49 2.48-1.12 3.73-1.86 1.24-.75 2.36-1.49 3.35-2.24.5-.49.93-.62 1.3-.37s.8.37 1.3.37c0-.99-.25-1.98-.75-2.98-.5-.99-1.12-1.49-1.86-1.49.5-.5.75-.93.75-1.3s.25-.8.75-1.3c-1-.99-1.74-1.86-2.24-2.61.5-.5 1.05-.93 1.68-1.3.62-.37 1.17-.8 1.67-1.31-.5-.49-1.12-.99-1.86-1.49-.75-.5-1.62-.25-2.61.74 0 .5.18.93.56 1.31.37.37.56.81.56 1.3-.5-.5-.93-1.05-1.3-1.68-.37-.62-.81-1.17-1.3-1.67v-1.86c.99 0 1.49-.87 1.49-2.61h2.61v-.75c-1.74 0-3.17-.87-4.28-2.61-1.12-1.74-1.43-3.22-.93-4.47.49-.75.56-1.49.18-2.24-.37-.75-.06-1.36.93-1.86-1-.99-1.43-1.86-1.3-2.61.12-.75.19-1.61.19-2.61v-9.31c-.5-1.24-.87-2.54-1.12-3.91-.25-1.36-.13-2.67.37-3.91 0-1.73-.62-3.22-1.86-4.47v-5.96c-2.48-2.48-4.1-6.2-4.84-11.17-2.73-2.48-5.34-4.72-7.82-6.7a19.95 19.95 0 0 0-7.08-1.68c-2.49-.12-4.72-.43-6.7-.93v-.75c-2.24.5-4.35.75-6.33.75-2.02.05-3.88.05-5.62.05zm-10.43-115.1c-1.99 0-1.99.62 0 1.86.75-1.24.75-1.86 0-1.86zm43.77-13.04c-.62.5-.93 1.12-.93 1.86h-3.35c-.5 0-.81.13-.93.37-.13.25-.44.37-.93.37-.75-.5-.87-1.05-.37-1.68.5-.62.99-1.17 1.49-1.67h-3.73v1.12h-1.49v-1.12c-.5 0-.93.18-1.3.56-.37.37-.81.56-1.31.56h2.61c0 1.25.31 1.99.93 2.24.62.25 1.43.62 2.42 1.12-.5 1.25-1.43 1.55-2.79.93-1.37-.62-2.67-.93-3.91-.93.49.5.8 1.06.93 1.68.12.62.68.93 1.68.93.75.5 1.55.5 2.42 0 .87-.5 1.68-.25 2.42.75h-7.45c-.5-.5-1-1.3-1.49-2.42-.5-1.12-1.25-1.18-2.24-.19.5 1.25.43 1.99-.19 2.24-.62.25-1.3.37-2.05.37v-1.86c-.5 0-1.12.31-1.86.93-.75.62-1.37.93-1.86.93h-5.03c-1.62 0-3.29-.25-5.03-.75 0-.99.68-1.49 2.05-1.49 1.36 0 1.8-.37 1.3-1.12-1.25 0-2.48.19-3.72.56-1.25.37-2.36.19-3.35-.56-1.25-.5-2.18-.43-2.79.19-.62.62-1.3 1.43-2.05 2.42h4.1c-.75.5-1.55.81-2.42.93-.87.13-1.8.69-2.79 1.67h2.61v2.24c1.24 0 2.11.37 2.61 1.12-.5 0-.93.13-1.3.37-.37.25-.81.37-1.3.37 0 .5.06 1.06.18 1.68.12.62.43 1.18.93 1.68-1.25 0-1.86.62-1.86 1.86.99.5 1.92.93 2.79 1.3.87.37 1.92.81 3.17 1.3 0-1.74-.25-2.85-.75-3.35.99-1.49 1.49-2.36 1.49-2.61v2.42c0 .87-.25 1.8-.75 2.79h1.86c-.5.75-.62 1.49-.37 2.24.25.75.37 1.37.37 1.86-.5 1.74-.81 3.48-.93 5.21a70.03 70.03 0 0 0-.19 5.22h-1.49c1.24.5 1.49 1.18.75 2.05-.75.87-1.37 1.55-1.86 2.05 1.24 1.25 2.11 1.86 2.61 1.86v20.48h1.12v1.86c-.5.74-1.12 1.62-1.86 2.61-.75 1-.13 1.49 1.86 1.49 0 .74-.25 1.12-.75 1.12h-.37c-.5 2.98-.44 5.77.19 8.38.62 2.61.93 5.16.93 7.64-.75 0-1.25-.12-1.49-.37-.25 0-.37-.12-.37-.37v1.86c.99 0 1.36.44 1.12 1.3-.25.87-.37 1.55-.37 2.05.99 1.99 1.3 4.1.93 6.33-.37 2.23-.32 4.47.18 6.7 1.24.5 2.67.62 4.28.37 1.61-.24 3.04-.12 4.28.37.5.5.75.87.75 1.12 0 .25.25.37.75.37v-1.49c2.98 0 5.65-.56 8.01-1.68 2.36-1.12 4.9-2.29 7.64-3.54 1.98-2.23 3.54-4.78 4.66-7.63 1.12-2.85 2.17-5.77 3.17-8.76.5-.75.75-1.73.75-2.98v-3.73c.75-1.24 1.24-1.86 1.49-1.86 0-.25-.06-.43-.19-.56-.13-.12-.18-.31-.18-.56l-.37-.37c.5-1.24.75-2.67.75-4.28v-4.28h1.12c-.99-3.23-1.43-6.46-1.3-9.69.12-3.23.19-6.33.19-9.31 0-1.73-.06-3.47-.19-5.21-.13-1.74-.56-3.48-1.3-5.21 0-2.73-.25-4.72-.75-5.96v-2.61c.75-.5 1.36-.8 1.86-.93.5-.12 1.24-.43 2.23-.93h.75l1.68-1.68c.62-.62.93-1.42.93-2.42-.75 0-1.62.13-2.61.37-1 .25-2.11.37-3.35.37.5-.5.75-1.36.75-2.61h3.73c.5-1.24.31-2.36-.56-3.35-.87-.99-1.06-2.11-.56-3.35-.5 0-.93-.12-1.3-.37s-.81-.37-1.3-.37c0-1.24.37-1.86 1.12-1.86.75 0 1.61.25 2.61.75-.5-.75-1-1.49-1.49-2.24-.5-.75-1.25-1.36-2.24-1.86l-.75.75c0 .25.12.37.37.37.24.25.75.37 1.49.37 0 1.25-.81 1.86-2.42 1.86h-3.54c.99 0 1.49-.62 1.49-1.86-1.25 0-1.62-.31-1.12-.93.49-.62 1.24-1.17 2.23-1.67.5-.75.87-1.61 1.12-2.61.25-.99.99-1.49 2.23-1.49h-1.86c-.55.5-1.11 1-1.73 1.49zM80.87 430.62h1.67c.62 0 .93-.25.93-.75.5-.99.31-1.42-.56-1.3-.87.13-1.55.19-2.05.19v1.86zm1.86 5.96c-.5 0-.93.31-1.3.93-.37.62-.31 1.18.19 1.68.99.5 1.61.18 1.86-.93.24-1.12 0-1.68-.75-1.68zm-1.11-258.51 1.3 1.3c.37.37.8.81 1.3 1.3h1.86c-.5-.99-.93-1.73-1.3-2.23s-.81-1.12-1.3-1.86h2.61v-1.12h-1.86v-.75h-.75c0 1.5-.63 2.61-1.86 3.36zm0 246.59c0 .75.37 1.18 1.12 1.3.75.13 1.49.19 2.24.19-.01-.99-1.13-1.49-3.36-1.49zm1.86-1.86c0 1 .5 1 1.49 0 0-.99-.5-.99-1.49 0zm2.6-205.25c-1 0-1.49.44-1.49 1.3 0 .87.5 1.06 1.49.56.75 0 1.12-.43 1.12-1.3 0-.87-.37-1.05-1.12-.56zm.75 205.25c-.5.5-.44 1.06.19 1.67.62.62 1.17.69 1.67.19.5-.5.43-1.05-.18-1.68-.63-.61-1.19-.68-1.68-.18zm11.18 4.47v2.61h-1.86c-.5.5-.93.75-1.3.75s-.81.25-1.3.75c.99 0 1.92.19 2.79.56.87.37 1.68.56 2.42.56.49-1.24 1.55-1.86 3.17-1.86 1.61 0 2.92.25 3.91.75.5-1.24 1.05-1.67 1.68-1.3.62.37 1.17.81 1.67 1.3v-1.67c0-.62.25-1.18.75-1.68h-5.21c1.74 0 2.61.62 2.61 1.86-.5 0-1.12-.06-1.86-.18-.75-.12-1.49-.43-2.24-.93-.5.5-1.06.81-1.67.93-.62.13-1.18.18-1.68.18 0-.99.12-1.73.37-2.23s.37-.99.37-1.49c-.5 0-.93.18-1.3.56-.39.34-.83.53-1.32.53zM95.4 310.3c0 1.25.31 1.37.93.37.61-.98.31-1.11-.93-.37zm8.56 111.75c0 1.25-.87 1.49-2.61.75l-.37.75h-.37v1.12h4.1v-2.61h-.75zm38-172.46h4.84c0 .5-.5 1.25-1.49 2.23v2.61c-1.74 1-2.61.5-2.61-1.49-.74 2.23-.74 4.22 0 5.96.5 0 1.05.13 1.68.37.62.25 1.17.37 1.68.37v.37c0 .25.24.37.74.37.5-.75 1.06-1.55 1.68-2.42.62-.87.93-1.67.93-2.42h-1.49c0-.75.5-1.61 1.49-2.61-.5-.99-.32-1.55.56-1.68.87-.12 1.55-.19 2.05-.19h1.86v-1.49l-.37.37c-.25.25-.5.44-.75.56-.25.13-.5.32-.75.56-.5-.49-.87-1.05-1.12-1.67-.25-.62-.13-1.18.37-1.68 2.24 0 3.6-.24 4.1-.75h-4.84c.5-.99 1.05-1.73 1.68-2.23.62-.5 1.17-.99 1.67-1.49h-3.35c0-.25.5-1.12 1.49-2.61v-.75c.5-.5 1.05-.93 1.67-1.3.62-.37.93-1.05.93-2.05-.5 0-1.06.13-1.67.37-.62.25-1.18.37-1.68.37v2.61c-.5-.5-1.62-.75-3.35-.75.5-.5.93-.99 1.3-1.49s.8-1.12 1.3-1.86c0-1.74.25-3.23.75-4.47h-.37c-.25 0-.37-.25-.37-.75v-1.86c-.5.25-1 .62-1.49 1.12-.25.25-.37.5-.37.75.5-1.73 0-2.61-1.49-2.61s-2.74.25-3.73.75c0-.5-.06-1.17-.18-2.05-.13-.87.18-1.55.93-2.05.99 0 1.55-.31 1.68-.93.12-.62.19-1.17.19-1.67-.5-.75-.75-2.24-.75-4.47-1-.49-1.86-1.05-2.61-1.67-.74-.62-1.37-1.18-1.86-1.68 1.24-.5 2.54-.75 3.91-.75h3.91-1.86v-2.61h-4.1l.37.37c0 .25.06.43.19.56.12.13.18.31.18.56-.5 0-.93.19-1.3.56-.37.37-1.06.56-2.05.56-.5 0-1.12-.18-1.86-.56-.75-.37-1.62-.8-2.61-1.3-3.73 0-6.83.87-9.31 2.61.5.5.8.93.93 1.3.12.37.43.81.93 1.3h.75c-.5-.49-.81-.93-.93-1.3-.13-.37-.44-.8-.93-1.3h4.47c1.73 0 3.47-.24 5.21-.75 0 1 .25 1.86.75 2.61-1.25.5-2.67.74-4.28.74h-4.28c.49 1 1.36 1.31 2.61.93 1.24-.37 2.11-.06 2.61.93.5-.5.93-1.05 1.3-1.68.37-.62 1.05-.68 2.05-.19-.75 2.74-2.11 4.1-4.1 4.1-.75.75-1.12 1.62-1.12 2.61.99 0 1.55.5 1.67 1.49.12.99.43 1.99.93 2.98h-.75.75v1.49h-2.61v-3.35c0 1.49-.87 2.61-2.61 3.35.99 0 1.73.19 2.23.56.5.37 1.24.56 2.24.56v3.35c.5.5.75.93.75 1.31 0 .37.25.81.75 1.3-.25 0-.37.13-.37.37-.25.25-.37.75-.37 1.49h4.47c0 1.25-.69 1.8-2.05 1.67-1.37-.12-2.42.07-3.17.56.75.5 1.49 1.12 2.24 1.86.75.75.5 1.62-.75 2.61.99 0 1.92-.12 2.79-.37.87-.25 1.67-.37 2.42-.37-.5.75-.31 1.37.56 1.86.87.5 1.55 1 2.05 1.49-.25.25-.5.37-.75.37-.25.25-.87.37-1.86.37-.25 0-.37-.12-.37-.37-.25-.25-.37-.62-.37-1.12h-4.47c0 .5.19 1.06.56 1.68.37.62.56 1.18.56 1.68h5.22c-.5.5-.81.93-.93 1.3-.13.37-.44.81-.93 1.3h2.61c-.5-.5-.74-1.05-.74-1.68-.02-.58-.02-1.14-.02-1.64zm-13.78 57.36c-.25.75-.25 1.12 0 1.12.24 0 .5-.06.75-.19.24-.12.37-.31.37-.56-.01-.24-.38-.37-1.12-.37zm2.6-100.57c0 2.23-.37 3.72-1.12 4.47 1.98 1.25 3.22 1 3.72-.75.5-1.73.75-3.22.75-4.47-.5 0-1.06-.06-1.68-.19-.61-.11-1.17.19-1.67.94zm3.36 18.25c1.24-.5 2.11-1.12 2.61-1.86.5-.75.99-1.61 1.49-2.61.25 0 .5.06.75.18.25.13.5.19.75.19l.37.37c0 1-.56 1.86-1.67 2.61-1.12.75-2.3 1.37-3.54 1.86l-.76-.74zm0 106.53h3.35v3.35c0-.99.43-1.55 1.3-1.68.87-.12 1.3.44 1.3 1.68h1.86c.49 1.25.87 2.3 1.12 3.17.25.87.37 1.8.37 2.79h-3.35l-1.86.75v.75h3.73v2.98c0 1-.62 1.25-1.86.75v5.96c.99-.5 1.55-1.24 1.68-2.24.12-.99.19-1.99.19-2.98h2.23c.75 0 1.36-.25 1.86-.75 0 .5-.13.93-.37 1.3-.25.37-.37.81-.37 1.3l1.49.75v1.86c-.74.5-1.43 1.06-2.05 1.67-.62.62-1.3 1.18-2.05 1.68l-.37-.37c-.5-.5-1-.75-1.49-.75.5.5 1.05.93 1.68 1.3.62.37 1.17.81 1.67 1.31l1.86 1.12c0 .75-.37 1.06-1.12.93-.75-.12-1.49.06-2.24.56 0 1-.31 1.55-.93 1.67-.62.13-1.18.19-1.68.19 0 .5.12.93.37 1.3.24.37.37.81.37 1.3h1.86c-.5-.99-.31-1.8.56-2.42.87-.62 1.8-.68 2.79-.19 0 .75-.37 1.93-1.12 3.54-.75 1.62-1.74 1.8-2.98.56-.75.75-1.12 1.25-1.12 1.49v.37c.5 0 1.05-.24 1.68-.75.62-.49 1.17-.24 1.67.75.99 1.74 2.48 2.61 4.47 2.61v1.86h-5.22c0-1.24-.25-2.11-.75-2.61-1 1-2.11 1.49-3.35 1.49.75.5 1.36.62 1.86.37.49-.25.99-.37 1.49-.37.75 1 1.49 2.05 2.24 3.17.75 1.12 1.74 2.05 2.98 2.79l-2.61 2.61c.49 0 .93.19 1.3.56.37.37.8.56 1.3.56-.75.5-1.12 1.62-1.12 3.35 1.24.5 1.86-.37 1.86-2.61.99-.5 1.55-.31 1.67.56.12.87.43 1.56.93 2.05-1.74 0-2.86.5-3.35 1.49-2.24-.99-3.73-.62-4.47 1.12.99.5 1.86 1.06 2.61 1.67.74.62 1.61 1.18 2.61 1.68.5-.5.8-.93.93-1.3.12-.37.43-.8.93-1.31.75 0 1.43-.12 2.05-.37.62-.25 1.3-.37 2.05-.37 0-.99.12-1.74.37-2.24.24-.5.37-1.24.37-2.24 1.49-.99 2.36-1.49 2.61-1.49-1.25 0-2.42.13-3.54.37-1.12.25-2.18.37-3.17.37 0-.5.25-1.12.75-1.86.5-.75.5-1.61 0-2.61-1.49-1.49-1.12-3.1 1.12-4.84h4.1c-.5 0-.93-.19-1.3-.56-.37-.37-.81-.56-1.3-.56 0-.24-.06-.43-.19-.56-.13-.12-.18-.31-.18-.56l-.37-.37c-1.25 0-2.86-.06-4.84-.19-1.99-.12-2.74-1.3-2.24-3.54.5-1.24 1.12-1.49 1.86-.75.75.75 1.61 1.37 2.61 1.86.99-.49 1.74-.8 2.24-.93.5-.12 1.12-.19 1.86-.19 0-.5-.13-.93-.37-1.3-.25-.37-.37-.8-.37-1.3h4.47c0-.5-.37-.99-1.12-1.49-.5 0-.93.06-1.3.19s-.81-.19-1.3-.93c0-.99.62-1.36 1.86-1.12 1.24.25 1.86-.25 1.86-1.49 0-.99-.5-1.43-1.49-1.3-1 .13-1.99.19-2.98.19-2.74 1.25-4.97 1.25-6.7 0 .5-.75 1.42-.99 2.79-.75 1.36.25 2.67 0 3.91-.75h1.86v-2.61c-1-.5-1.74-.93-2.23-1.31-.5-.37-1.25-.8-2.24-1.3.99-.49 1.36-1.24 1.12-2.23-.25-.99-.87-1.74-1.86-2.24 0-.5-.44-.75-1.3-.75-.87 0-1.06-.25-.56-.75s1.05-.99 1.67-1.49c.62-.5.93-1.12.93-1.86-.5 0-1.06-.19-1.68-.56-.62-.37-1.18-.56-1.67-.56v-2.61c0-.24.62-.75 1.86-1.49h-2.98c-1 0-1.25-.62-.75-1.86h-2.61c.5.5.8.93.93 1.3.12.37.43.81.93 1.3-.25 0-.44.07-.56.19-.13.13-.31.19-.56.19-.25.25-.5.37-.75.37-.75-1.24-1.62-2.05-2.61-2.42-1-.37-1.74-1.17-2.24-2.42h4.1c.5 0 .93-.18 1.3-.56.37-.37.8-.56 1.31-.56h-4.1c0-.99-.37-1.49-1.12-1.49-.75.5-1.55 1-2.42 1.49-.87.5-1.81.5-2.79 0 0-.5.19-.93.56-1.3.37-.37.56-.8.56-1.3-.5 1-.93 1.74-1.3 2.24-.33.55-.77 1.04-1.26 1.53zm.37 74.13c.25 0 .43-.12.56-.37.12-.25.18-.56.18-.93s-.37-.43-1.12-.19c.01 1 .13 1.49.38 1.49zm6.33-33.9v5.21c0-.25.12-.5.37-.75.49-.5.75-.87.75-1.12.49.5 1.61.75 3.35.75-1-.5-1.74-1.12-2.24-1.86-.49-.73-1.24-1.48-2.23-2.23zm5.22-33.52c.99 0 1.36.31 1.12.93a5 5 0 0 1-1.12 1.68c-.5.5-.93 1-1.31 1.49-.37.5-.81.5-1.3 0 .99-1.99 1.86-3.35 2.61-4.1zm.74-80.83c.99 0 1.18.31.56.93-.62.62-1.3.93-2.05.93-.5-.5-.5-1.05 0-1.68.5-.61.99-.68 1.49-.18zm0-30.92c-1 1.49-.62 1.86 1.12 1.12.5-.5.56-.93.19-1.3-.38-.38-.81-.31-1.31.18zm0 19c.99-.5 1.8-.19 2.42.93.62 1.12.68 1.92.19 2.42-.75 1.25-1.37 1.25-1.86 0-.5-1.24-.75-2.36-.75-3.35zm1.12-11.18c.5-.49.87-.68 1.12-.56.25.13.12.56-.37 1.3-.5.5-.87.62-1.12.37-.25-.23-.13-.61.37-1.11zm1.49 94.62c0 .75.12 1.12.37 1.12s.43-.12.56-.37c.12-.25.19-.5.19-.75s-.37-.25-1.12 0zm0 22.35h2.61l-.75.75 1.3 1.3c.37.37.8.81 1.3 1.3h-3.35c0-.5-.19-1.05-.56-1.68-.37-.61-.55-1.17-.55-1.67zm.75-90.89c.24 0 .49-.06.74-.18s.43-.31.56-.56c.12-.24-.19-.37-.93-.37-.5.74-.62 1.11-.37 1.11zm2.97 77.85v-1.86c-.5 0-.93.19-1.3.56-.37.37-.81.56-1.3.56.49.49 1.36.74 2.6.74zm-.37 21.79c.99-1.12 1.86-1.18 2.61-.19-.5.75-.93 1.49-1.3 2.24-.37.75-1.06 1.12-2.05 1.12-.5-.99-.25-2.05.74-3.17zm5.77-18.62c.87.37 1.55.19 2.05-.56.5-.5.31-.87-.56-1.12-.87-.24-1.55-.12-2.05.37-.49.5-.31.93.56 1.31zm2.05 27c-.5.5-.75.87-.75 1.12v.37c.99-.49 2.24-.74 3.73-.74 1.49 0 2.24-.87 2.24-2.61-.25-.24-1.12.37-2.61 1.86h-2.61zm2.61 2.61c-1.25.5-1.37.93-.37 1.3.99.37 1.74.19 2.24-.56.5-.5.43-.87-.19-1.12-.62-.24-1.18-.12-1.68.38zm147.88-203.76c2.48-.99 4.22-1.24 5.21-.75 2.24.5 4.34.62 6.33.37 1.98-.25 3.85-.37 5.59-.37-.5.5-.75 1.06-.75 1.68 0 .62-.25 1.18-.75 1.68l.37.37c0 .25.06.5.19.75.12.25.19.5.19.75-1.25 0-2.11.56-2.61 1.67-.5 1.12-.75 2.3-.75 3.54.49-.5.93-.93 1.3-1.3l1.3-1.3v2.61c.5 0 .75.13.75.37 0 .25.24.37.75.37 0 .5.18.93.56 1.3.37.37.56.81.56 1.3-1.49 1-2.61 1.49-3.35 1.49 0-.5-.06-1.05-.19-1.67-.13-.62-.44-1.18-.93-1.68 0 1.74-.25 3.23-.75 4.47.49-.5.93-.5 1.3 0s.8 1 1.3 1.49c.5 1 .93 2.05 1.3 3.17s.8 2.05 1.3 2.79c-1.74 1-3.6 1.43-5.59 1.3-1.99-.12-3.85.06-5.59.56-2.23 0-4.22-.62-5.96-1.86 0 1.25-.44 2.05-1.3 2.42-.87.37-1.3-.43-1.3-2.42h-2.61c.49.5.93 1.12 1.3 1.86.37.75.8 1.37 1.3 1.86-1 .75-2.11 1.3-3.35 1.68-1.25.37-2.49.31-3.73-.19v3.35c.5 0 1.12.19 1.86.56.75.37 1.36.81 1.86 1.3-.5 1-1 1.86-1.49 2.61-.5.75-1.25 1.37-2.24 1.86.99.75 1.86 1.62 2.61 2.61 0-.75.62-1.12 1.86-1.12 0 1.25.12 2.42.37 3.54s.12 2.3-.37 3.54c-.5 3.73-.5 7.64 0 11.73.49 4.1.49 8.14 0 12.11-.5 2.98-.44 5.84.18 8.57.62 2.74.56 5.59-.18 8.57v27.56h-3.35c0 .5-.19.93-.56 1.3-.37.37-.56.81-.56 1.3 2.48.75 3.73 2.74 3.73 5.96-1 0-1.99.06-2.98.18-1 .13-1.74.69-2.24 1.68.5.5 1.05.75 1.68.75h1.67c-.5 1-1.12 1.37-1.86 1.12-.75-.24-1.62-.37-2.61-.37 1.24 1.25 2.11 1.86 2.61 1.86.5 1 .8 1.86.93 2.61.12.75.43 1.62.93 2.61-1 .5-1.74.93-2.23 1.3-.5.37-1.25.81-2.24 1.3.75.5 1.12 1.37 1.12 2.61-.75.5-1.62.75-2.61.75v1.86c.75 0 1.92-.19 3.54-.56 1.61-.37 2.42.31 2.42 2.05-.25 0-.43.06-.56.19-.13.13-.31.18-.56.18-.25.25-.5.37-.75.37 0 1-.13 1.74-.37 2.24-.25.5-.37 1-.37 1.49.5.75.93 1.49 1.3 2.24.37.75-.06 1.12-1.3 1.12-.5 1.74-.18 3.04.93 3.91 1.12.87 2.29 1.3 3.54 1.3l-2.24 1.12c-.5.25-1 .37-1.49.37v1.86h-.37c-.25 0-.62.25-1.12.75.75 1 1.55 1.74 2.42 2.24.87.5 1.8 1 2.79 1.49-.5.5-.93 1.12-1.3 1.86-.37.75.06.87 1.3.37-1 .5-1.81 1.3-2.42 2.42-.62 1.12-.69 2.05-.18 2.79.99 0 1.49-.5 1.49-1.49.99 1.74 1.43 3.42 1.3 5.03-.13 1.62-.18 3.29-.18 5.03.75 1.99.75 3.73 0 5.21.5.5.75 1.99.75 4.47 0 .5.12.93.37 1.3s.37.81.37 1.3c-.5 1.74-.75 3.29-.75 4.66v4.66c0 1.74.12 3.29.37 4.66s.12 2.92-.37 4.66c-.5 2.98-.56 6.02-.19 9.13.37 3.11.19 6.4-.56 9.87 0 2.74-.44 5.47-1.3 8.19-.87 2.74-1.93 5.47-3.17 8.19.75 1.49.5 2.86-.75 4.1-1.99 2.98-3.54 5.96-4.66 8.94-1.12 2.98-3.04 5.47-5.77 7.45a77.824 77.824 0 0 0-5.22 4.1c-1.74 1.49-3.72 2.49-5.96 2.98v.75c-.5-.5-1.06-.75-1.68-.75h-1.67c-.5-.99-.37-1.61.37-1.86.75-.25 1.12-.87 1.12-1.86-.75 1.25-1.86 1.62-3.35 1.12 0 1.99-.81 2.92-2.42 2.79-1.62-.12-3.04.06-4.28.56l.75-.75c-1.25-.99-1.55-1.74-.93-2.24.62-.5 1.17-.99 1.67-1.49h-1.49l-2.61 2.61v1.86c-2.49-.75-4.47.13-5.96 2.61v1.49c-2.74.5-5.34.62-7.82.37-2.49-.25-5.09-.37-7.82-.37-1 0-1.49-.5-1.49-1.49-1 .5-1.62.87-1.86 1.12-.25.25-.87.12-1.86-.37-1.25-.5-2.67-1.05-4.28-1.68-1.62-.62-3.3-1.17-5.03-1.67-.5-.5-.75-1.05-.75-1.68v-1.67c-2.24.75-4.35.5-6.33-.75-1.99-1.24-3.6-2.73-4.84-4.47-.5-1.24-1.49-2.11-2.98-2.61s-1.99-1.61-1.49-3.35c-.75-1.24-1.68-2.42-2.79-3.54a41.037 41.037 0 0 1-3.17-3.54c-.5-.74-.74-1.67-.74-2.79s-.25-2.17-.75-3.17h-1.86c-.5-.5-.81-.93-.93-1.3-.13-.37-.44-1.05-.93-2.05-2.74-8.94-4.1-17.51-4.1-25.7-.5-2.73-.69-5.46-.56-8.19.12-2.73-.06-5.46-.56-8.19-.5-1.24-.19-2.42.93-3.54s1.68-2.29 1.68-3.54c2.48 1.25 5.09 1.25 7.82 0v4.47c-.5 0-.93-.12-1.3-.37s-.81-.37-1.3-.37v3.35c1.24-.99 2.36-.99 3.35 0 0-2.24 1.24-2.85 3.73-1.86 0-2.23 1.12-3.97 3.35-5.21-1.25-1.24-1.86-1.99-1.86-2.24.75-.75 1.61-1.12 2.61-1.12a19.9 19.9 0 0 0-2.24-1.3c-.75-.37-.5-1.05.75-2.05v-2.61c.5 0 .75-.87.75-2.61.99 0 1.86-.25 2.61-.75l-1.12-.75v-4.47c-.5-.99-1-1.8-1.49-2.42-.5-.62-.75-1.55-.75-2.79.5 0 .99.37 1.49 1.12 0-.75.12-1.12.37-1.12h.37c-.5-.5-.75-1.61-.75-3.35 0 .25-.13.37-.37.37-.25.25-.62.37-1.12.37v-4.84c.75-.49 1.49-.62 2.24-.37.75.25 1.36.37 1.86.37-.5-.99-1.18-1.67-2.05-2.05-.87-.37-1.55-1.17-2.05-2.42l-1.12-.75c.5-.5 1.05-.93 1.67-1.3.62-.37 1.18-.8 1.68-1.3 0-.75-.25-1.36-.75-1.86-.25 0-.37.13-.37.37-.25.25-.37.75-.37 1.49 0-1.74.25-3.54.75-5.4.5-1.86.5-3.78 0-5.77h-2.61c1.24-1.98 1.86-3.47 1.86-4.47 0-.5-.37-.75-1.12-.75h-.75c0-.99.43-1.49 1.3-1.49.87 0 1.55.25 2.05.75h1.86c0-.5-.13-.93-.37-1.3-.25-.37-.37-.8-.37-1.3v1.49c-1.74 0-3.23-.25-4.47-.75 0 .75-.5 1.62-1.49 2.61-1-.5-1.25-1.24-.75-2.24.5-.99.75-1.99.75-2.98-.5.5-.93.93-1.3 1.31l-1.3 1.3h-1.86v1.86c-.5 0-.93.13-1.3.37-.37.25-1.06.37-2.05.37.25 0 .43.06.56.19.12.13.43.18.93.18.25.25.62.37 1.12.37 0 1-.5 1.43-1.49 1.3-1-.12-1.99.06-2.98.56.99 0 1.74.13 2.24.37.5.25.99.37 1.49.37 0 .5-.25 1.06-.75 1.67-.5.62-.25 1.18.75 1.68-1.25 1.25-2.11 1.86-2.61 1.86.5.5.93.93 1.31 1.3.37.37.8.81 1.3 1.31v2.61h-3.73c1.24.5 1.99 1.25 2.24 2.23.25 1 .37 1.99.37 2.98-.5-.5-.93-.8-1.3-.93-.37-.12-1.06-.43-2.05-.93v1.86c1.74 0 2.61 1.12 2.61 3.35-1 0-1.86.07-2.61.19-.75.13-1.37.69-1.86 1.67-.75-1.98-1.49-3.78-2.24-5.4-.75-1.61-.87-3.29-.37-5.03v-13.78c0-2.24-.13-4.53-.37-6.89-.25-2.36-.13-4.66.37-6.89.5-1.74.62-3.6.37-5.59-.25-1.99-.37-3.85-.37-5.59 0-1.24.18-2.67.56-4.28.37-1.61.56-3.04.56-4.28 0-2.73-.13-5.46-.37-8.19-.25-2.73.12-5.46 1.12-8.19-.75-2.24-.75-4.47 0-6.7.5.5.93.74 1.3.74s.8.25 1.3.75c.5-.75.93-1.36 1.3-1.86s.56-1.24.56-2.24c-.5 0-.93.32-1.3.93-.37.62-.81.93-1.3.93-.5 0-1.06-.25-1.67-.75-.62-.5-.69-1.12-.19-1.86 0-.99.5-1.98 1.49-2.98.99-.99 1.98-.87 2.98.37.75.75 1.24.75 1.49 0s.62-1.36 1.12-1.86c1.24-.5 2.36-.31 3.35.56.99.87 2.36 1.3 4.1 1.3h.75c.24 0 .62-.37 1.12-1.12-1.25-.5-1.49-1.05-.75-1.68.75-.62 1.49-.93 2.24-.93v1.86h1.12c-.5-1.24-.31-1.99.56-2.24.87-.25 1.55-.62 2.05-1.12 0-.5-.37-.75-1.12-.75h-.75l-.75-1.12c0 .5.12.93.37 1.3.24.37.37.81.37 1.3-.5 0-1.06-.12-1.67-.37-.62-.24-1.18-.37-1.68-.37 0 .5.12.75.37.75.24 0 .37.25.37.75-.75 0-1.43.31-2.05.93-.62.62-1.3 1.18-2.05 1.68-.75-.5-1.12-1.36-1.12-2.61.99-.75.99-1.86 0-3.35h-2.61c1.24 1.25 1.86 2.11 1.86 2.61-1 .5-1.86.93-2.61 1.3-.74.37-1.62.81-2.61 1.3 0 1-.62 1.43-1.86 1.3-1.25-.12-1.49-.8-.75-2.05.5-.5.8-1.05.93-1.68.12-.62.18-1.17.18-1.67-.5-.5-.87-1.05-1.12-1.68-.25-.62-.75-.93-1.49-.93 0-1.74-.62-2.61-1.86-2.61.99-.99 1.12-1.92.37-2.79-.74-.87-1.12-1.68-1.12-2.42 0-2.73-.19-5.34-.56-7.82-.37-2.48-.56-5.09-.56-7.82 0-2.98-.32-6.2-.93-9.69-.62-3.47-2.3-6.2-5.03-8.19-2.73-1.73-5.46-2.67-8.19-2.79-2.73-.12-5.34-.68-7.82-1.67v-13.41c0-1.98-.13-3.78-.37-5.4-.25-1.61-.13-3.29.37-5.03h4.84c1.98.5 3.85.62 5.59.37 1.73-.25 3.59-.37 5.59-.37 0 1.25.37 2.11 1.12 2.61v-1.86c1.73-.49 3.29-.68 4.66-.56 1.36.13 2.92.69 4.66 1.68 0 .75.62 1.49 1.86 2.23.5-1.24 1.06-1.67 1.68-1.3.62.37 1.17.81 1.68 1.3.74 0 1.42.19 2.05.56.62.37 1.3.56 2.05.56.99.5 1.73.44 2.23-.19.5-.62 1.24-.93 2.24-.93 1.24-.49 2.29-.74 3.17-.74.87 0 1.8.62 2.79 1.86 0-.75.12-1.24.37-1.49 0-.25.12-.37.37-.37.99.5 1.74.93 2.24 1.3.5.37.99.81 1.49 1.3.75-.5 1.36-1.12 1.86-1.86s.99-1.49 1.49-2.23c0 .5.12.75.37.75s.37.25.37.75v-2.61c.99 0 1.86-.12 2.61-.37.75-.25 1.36-.12 1.86.37 1.74-1.24 3.54-1.67 5.4-1.3 1.86.37 3.78.56 5.77.56 1.74 0 3.41-.24 5.03-.74 1.61-.5 3.04-.25 4.28.74.75 5.47.75 10.31 0 14.53V190c-2.73.5-5.34 1.06-7.82 1.67-2.49.62-4.72 1.8-6.7 3.54-1.74 1.74-2.79 3.6-3.17 5.59a17.81 17.81 0 0 1-2.05 5.59c-.5 1.74-.87 3.67-1.12 5.77-.25 2.11.12 4.28 1.12 6.52-.5 1.25-.81 2.67-.93 4.28-.13 1.62-.44 3.3-.93 5.03-.5 1.25-.5 2.49 0 3.73.5 1.25.25 2.23-.75 2.98 0 1.25-.25 2.49-.75 3.73 0-1.24-.62-1.86-1.86-1.86 0 1-.13 1.8-.37 2.42-.25.62-1 1.18-2.23 1.68.5 1 .93 1.92 1.3 2.79.37.87.56 1.67.56 2.42l-2.61 2.61c.5 1.25 1.61 2.74 3.35 4.47-.75 0-1.62.5-2.61 1.49.5.74.75 1.99.75 3.72 2.23 0 2.85 1.12 1.86 3.35.99.5 1.67.87 2.05 1.12.37.25.8.37 1.3.37-.5.5-.93.81-1.3.93-.37.13-.81.43-1.3.93.99.5 1.8 1.12 2.42 1.86.62.74.43 1.62-.56 2.61.99 1.74 1.55 3.6 1.68 5.59.12 1.99.18 4.1.18 6.33 0 1.74-.06 3.29-.18 4.66-.13 1.37-.44 2.92-.93 4.66 0 2.74.19 5.34.56 7.82.37 2.49.8 5.09 1.3 7.82-1 1.99-1.37 4.1-1.12 6.33.25 2.23.37 4.35.37 6.33v3.91c0 1.37.25 2.92.75 4.66-1 2.98-1.37 6.02-1.12 9.13.25 3.11.62 6.15 1.12 9.12 0 1.25-.13 2.67-.37 4.28-.25 1.62-.37 3.04-.37 4.28v11.92c0 1.25.12 2.36.37 3.35.25 1 .12 2.11-.37 3.35-.5 2.23-.56 4.47-.18 6.7.37 2.23.06 4.35-.93 6.33 0 2.24-.25 3.98-.75 5.22.5.5.8.93.93 1.3.12.37.43.81.93 1.3 0 .75-.06 1.62-.18 2.61-.13 1-.44 2.11-.93 3.35h1.86c-.5.5-.81.93-.93 1.3-.13.37-.44.81-.93 1.31.75-.5 1.36-1.12 1.86-1.86 0 1.74.56 3.17 1.68 4.28 1.12 1.12 1.67 2.55 1.67 4.28 3.48 4.97 8.19 8.44 14.16 10.43 5.96 1.99 11.79 1.74 17.51-.75 1.24-.99 2.67-1.92 4.28-2.79 1.61-.87 2.79-1.68 3.54-2.42 2.73-3.47 4.47-6.95 5.21-10.43 1.24-3.97 1.99-8.01 2.24-12.11.25-4.1.37-8.01.37-11.73.5-2.23.62-4.59.37-7.08-.25-2.48-.37-4.72-.37-6.71 0-3.47.25-7.08.75-10.8.5-3.72.25-7.32-.75-10.8.5-2.73.75-5.15.75-7.26v-7.27c-.5-2.98-.5-5.83 0-8.57.5-2.73.25-5.59-.75-8.57.5-2.73.75-5.46.75-8.19v-8.19c0-.5.25-.75.75-.75h1.12c0-.99-.43-1.73-1.3-2.24-.87-.49-1.06-1.24-.56-2.23 1.24-.75 2.54-1.05 3.91-.93 1.36.13 2.67-.06 3.91-.56 0-.5-.13-.93-.37-1.3-.25-.37-.37-.8-.37-1.3-1 0-1.74.13-2.24.37-.5.25-1 .62-1.49 1.12-1.74.5-2.86.13-3.35-1.12-.5-1.24-.75-2.24-.75-2.98.5-.99.75-1.92.75-2.79v-2.42c.5-1.73.62-3.47.37-5.21-.25-1.74-.37-3.48-.37-5.22v-29.05c-.5-1.74-.5-3.29 0-4.66.5-1.36.5-3.04 0-5.03-.5-1.74-.75-3.29-.75-4.66v-4.66c0-1.24-.13-2.67-.37-4.28-.25-1.61-.13-3.29.37-5.03.99-.99 1.74-2.05 2.24-3.17.5-1.12.37-2.05-.37-2.79.74-1.99 1.49-2.29 2.23-.93.75 1.37 1.12 2.55 1.12 3.54.75-.99 1.55-1.55 2.42-1.67.87-.12 1.8-.43 2.79-.93.75 1.74 1.17 2.11 1.3 1.12.12-.99.19-1.73.19-2.23-1.25.99-2.67 1.37-4.28 1.12-1.62-.25-2.18-1.49-1.67-3.73-1.99 1.25-3.35 1-4.1-.75.74-.49 1.36-.8 1.86-.93.5-.12.99-.43 1.49-.93-1-.75-1.93-1.49-2.79-2.24-.87-.75-1.93-1.12-3.17-1.12h-1.12c-1 0-1.86.37-2.61 1.12-.5-.75-.75-1.98-.75-3.72-1.99 1.25-3.11 1.62-3.35 1.12-1.74-.99-3.6-1.55-5.59-1.67-1.99-.12-3.85-.43-5.59-.93-.75-.99-.75-2.11 0-3.35l-.75-1.12c0-.5.12-.75.37-.75.24 0 .37-.25.37-.75-1-1.99-1.37-3.97-1.12-5.96.24-1.98.37-4.1.37-6.33 0-1.24-.06-2.54-.19-3.91-.13-1.36.43-2.29 1.68-2.79 2.24 0 4.59-.12 7.08-.37 2.48-.25 4.71-.12 6.7.37 1.73.5 3.54.69 5.4.56 1.86-.12 3.17.81 3.91 2.79-.5.5-.93 1-1.3 1.49-.37.5-1.06 1.12-2.05 1.86.75-.5 1.61-.75 2.61-.75.99 0 1.74-.19 2.24-.56.5-.37 1.24-.8 2.24-1.31 1.24 0 2.36 1.25 3.35 3.73.5 0 .75-.12.75-.37v-.75c1.24 0 2.42-.12 3.54-.37s2.29-.62 3.54-1.12c.49 0 .74 1.12.74 3.35.5-.5 1.12-.75 1.86-.75l-1.12-1.12c.5-.5.8-.87.93-1.12.12-.24.43-.37.93-.37h3.35c-1-.5-1.74-.8-2.24-.93-.5-.12-1.12-.19-1.86-.19 1.73-1.73 3.35-2.23 4.84-1.49v-1.84zm-113.99 72.27c.75-.5 1.55-.8 2.42-.93.87-.12 1.8-.43 2.79-.93 0 1.25-.43 2.67-1.3 4.28-.87 1.62-2.18 1.93-3.91.93v-3.35zm7.83-55.88c0 1.25.24 1.49.75.75.48-.75.23-.99-.75-.75zm1.48-13.78c.5-.75 1.12-1.05 1.86-.93.75.13 1.61-.06 2.61-.56 0 .5.5 1.25 1.49 2.23-2.48 1-4.46.75-5.96-.74zm5.22 78.97c-.5 1.25-.75 2.74-.75 4.47 1.24 0 2.48.13 3.73.37 1.24.25 2.48.37 3.72.37 0-.5-.87-.75-2.61-.75v-2.61h-4.1v-1.85zm-.74 7.08 2.61 2.61c.5-.75 1.24-1.12 2.24-1.12 0 .75.37 1.37 1.12 1.86h2.61c.99 0 1.86-.25 2.61-.75-.5 0-.93.13-1.3.37-.37.25-.81.37-1.31.37v-3.35h-8.58zm2.6 108.77c-1 .5-1.55.81-1.67.93-.13.13.06.43.56.93 1.24-.5 1.61-1.12 1.11-1.86zm0-136.34c-1.25.5-1.62 1-1.12 1.49 1.25-.49 1.62-.99 1.12-1.49zm6.71 19c-.5.75-.18 1.31.93 1.68 1.12.37 1.68.06 1.68-.93-.51-.5-1.37-.75-2.61-.75zm3.91-.37c.37 0 .8-.25 1.3-.75 0-1.24-.62-1.49-1.86-.75 0 1 .19 1.5.56 1.5zm13.97 196.68c0-.99-.5-1.49-1.49-1.49 0 .99.49 1.49 1.49 1.49zm43.95-249.58c0 .75.12 1.12.37 1.12.24 0 .43-.19.56-.56.12-.37.18-.68.18-.93.01-.24-.36-.12-1.11.37zm12.11 103.19c-.62 0-1.18.25-1.67.74-.5 0-.81.13-.93.37-.13.25-.44.62-.93 1.12-.5 1.49-1.86 1.86-4.1 1.12.74.5 1.36.75 1.86.75s.99.25 1.49.74c0-.49.12-.93.37-1.3s.37-.8.37-1.3h4.47V301c.5-.5 1.05-.8 1.68-.93.62-.12 1.17-.43 1.67-.93-1.25-.75-2.36-2.11-3.35-4.1 0 1.24-.31 1.86-.93 1.86zm4.28 4.09-.75.37h-.37v.37c.25.75.62 1.12 1.12 1.12.5 0 .87-.19 1.12-.56.25-.37.31-.75.19-1.12-.13-.36-.56-.42-1.31-.18zm1.86-.93c0 .13.5.44 1.49.93.5-.5.5-1.12 0-1.86-.99.5-1.49.81-1.49.93zm74.5-137.64c2.98 0 5.96-.06 8.94-.19 2.98-.12 5.96.19 8.94.93 4.96 1.99 9.31 4.72 13.04 8.19 3.72 3.48 7.08 7.33 10.06 11.55.99-.75 1.55-1.74 1.67-2.98.12-1.24.19-2.48.19-3.72.5-1.24 1.05-2.54 1.68-3.91.62-1.36.93-2.67.93-3.91 0-.5.06-1.05.19-1.67.12-.62.68-.93 1.68-.93 2.98-.5 5.83-.5 8.57 0 2.73.5 5.59.5 8.57 0v24.96l-1.3 1.3c-.37.37-.81.56-1.31.56h-1.86c0 .5-.25.75-.75.75s-.75.25-.75.75c.99 1.49 1.49 2.74 1.49 3.72-.5.5-.75 1.62-.75 3.35-.25 0-.44.07-.56.19-.13.13-.31.19-.56.19-.25.25-.5.37-.75.37 0 .5-.13.93-.37 1.3-.25.37-.37.81-.37 1.3h2.61c0 1-.62 1.86-1.86 2.61-.5.5-1 .75-1.49.75h2.61c.5 1.25.43 2.18-.18 2.79l-1.68 1.68H434v2.61c-2.24 0-4.6.5-7.08 1.49v.75c0 .25.37.37 1.12.37.5 0 1.05-.18 1.67-.56.62-.37 1.18.07 1.68 1.3l-1.3 1.3c-.37.37-.81.56-1.3.56v.74h1.86c0 .5-.37 1-1.12 1.49.5 0 1.12.07 1.86.19.75.13 1.36.69 1.86 1.68 0 1.25-.37 1.67-1.12 1.3-.75-.37-1.62-.8-2.61-1.3 0 .5-.5.75-1.49.75.5 0 1.05.18 1.67.56.62.37 1.18.56 1.68.56-.25 0-.37.13-.37.37-.25.25-.37.62-.37 1.12.5 0 1.12-.12 1.86-.37.75-.25 1.49-.12 2.24.37-.5.5-1.18.87-2.05 1.12-.87.25-1.3.75-1.3 1.49 0 1 .19 1.55.56 1.67.37.13 1.05.44 2.05.93v1.86h2.61c0 1.74.5 3.11 1.49 4.1-1.74 0-2.49 1.12-2.23 3.35.24 2.24 1.36 3.11 3.35 2.61-.5 1-.81 1.74-.93 2.23-.13.5-.19 1.25-.19 2.24.5.5.8 1.06.93 1.68.12.62.19 1.18.19 1.67v18.25l-2.61-2.61c-1.25.5-2.73.75-4.47.75 0 .5-.13.93-.37 1.3-.25.37-.37.81-.37 1.31-.5-.5-.93-.93-1.3-1.31-.37-.37-.56-.8-.56-1.3.99-.5 1.92-.8 2.79-.93.87-.12 1.67-.68 2.42-1.68-1.99 0-3.35.62-4.1 1.86-.75-.75-1.12-1.61-1.12-2.61h-5.03c-1.62 0-3.29.25-5.03.75-1.25-2.98-1.62-5.77-1.12-8.38.5-2.61.25-5.27-.75-8.01 1.24-1.24 1.36-2.54.37-3.91-1-1.36-.87-2.67.37-3.91-.5 0-.87-.12-1.12-.37-.25 0-.37-.12-.37-.37-.5-1.74-.87-3.41-1.12-5.03-.25-1.61-.75-3.41-1.49-5.4-.5-2.48-1.06-4.97-1.67-7.45a29.57 29.57 0 0 0-2.79-7.08 47.363 47.363 0 0 1-3.35-10.06c-1-2.24-2.05-4.22-3.17-5.96-1.12-1.73-2.3-3.47-3.54-5.21h.75c-1.74-.99-3.17-2.11-4.28-3.35-1.12-1.24-2.55-2.11-4.28-2.61-2.24-1.24-4.53-2.24-6.89-2.98-2.36-.75-4.66-.62-6.89.37-1.99.74-3.79 1.62-5.4 2.61-1.62 1-3.54 1.74-5.77 2.23v2.61c-.75 1-1.86 1.86-3.35 2.61-.5 0-1.12.06-1.86.19-.75.13-1.62.43-2.61.93-.25 0-1.12.5-2.61 1.49 0-.5.62-.75 1.86-.75.49-.5 1.05-.75 1.67-.75h1.68v4.1c-.75-.99-1.49-1.24-2.24-.75-.75.5-1.37.13-1.86-1.12v3.73c-1.99.74-3.73.74-5.22 0v.74c.5.5 1.36.75 2.61.75.49-.5 1.12-.75 1.86-.75h2.24c.49 1.25.43 2.18-.19 2.79-.62.62-1.43 1.18-2.42 1.68-1.49.75-2.61 1.49-3.35 2.24.5 0 1.05-.25 1.68-.75.62-.5 1.17-.5 1.67 0 .5 0 1.12-.12 1.86-.37.75-.25 1.36-.37 1.86-.37.5 2.74.5 5.34 0 7.82-.5 2.49-.5 4.97 0 7.45.5 3.48 1.3 6.89 2.42 10.24 1.12 3.35 2.54 6.52 4.28 9.5.99 2.23 2.05 4.28 3.17 6.15 1.12 1.86 2.05 3.91 2.79 6.15.99 0 1.61.44 1.86 1.3.24.87 0 1.55-.75 2.05h-2.61c0 .5.49.75 1.49.75.5-.75 1.05-.8 1.68-.19.62.62 1.17.93 1.68.93 1.24.5 1.98 1.3 2.23 2.42.25 1.12.37 2.05.37 2.79-.75 0-1.06.31-.93.93.12.62.43 1.18.93 1.67l-.75 1.49v.37c-1 .5-1.99.62-2.98.37-1-.25-1.74-.12-2.24.37 1.24 0 2.85.19 4.84.56 1.99.37 3.6 1.06 4.84 2.05-.5 1.25-1.37 1.49-2.61.75-1.25-.75-2.11-.75-2.61 0 0 .74.87 1.12 2.61 1.12-1.25 0-1.86.5-1.86 1.49h.75c.99 0 1.73-.12 2.23-.37s.99-.37 1.49-.37c-1 1.74-1.86 3.48-2.61 5.21.5 0 .93-.19 1.3-.56.37-.37.8-.56 1.3-.56.5.5.75.93.75 1.3s.25.81.75 1.3h-2.61v1.86h2.61v2.61l.37-.37c.24 0 .43-.06.56-.19.12-.12.43-.18.93-.18.5-.5.93-.62 1.3-.37s.8.37 1.31.37c0 .5-.37 1-1.12 1.49h-.75v1.12h2.61c0-2.48-.25-4.22-.75-5.22 1.73 0 3.47.25 5.21.75 1.74.5 3.73.5 5.96 0h.75c3.23 1 5.22 2.74 5.96 5.22 1.24.5 2.48 1.25 3.73 2.23 1.24 1 2.36 1.99 3.35 2.98 3.48 2.98 6.7 6.15 9.69 9.5 2.98 3.35 5.96 6.77 8.94 10.24.99 1.25 1.86 2.49 2.61 3.73.75 1.25 1.61 2.49 2.61 3.72.5 1 .68 1.99.56 2.98-.13 1 .31 1.74 1.3 2.24 0 1 .31 1.86.93 2.61.62.75 1.18 1.37 1.68 1.86 0 1.25-.07 2.3-.19 3.17-.13.87-.44 1.8-.93 2.79 0 .5.62.75 1.86.75l-.37.75v.37h-.37c.5.5.75.87.75 1.12 0 .25.24.62.75 1.12-.5.74-.75 1.62-.75 2.61 1.24.5 2.11 1.62 2.61 3.35.5 1.74.75 3.23.75 4.47 0 1-.32 1.62-.93 1.86-.62.25-1.18.74-1.67 1.49 1.24-.49 2.29-.37 3.17.37.87.75 1.55 1.49 2.05 2.24 0 .5-.62 1.12-1.86 1.86.75.5 1.61.75 2.61.75 0 .5-.13.81-.37.93-.25.13-.37.44-.37.93l.37.37c.5.5.99.87 1.49 1.12-.5 1-1.25 1.37-2.23 1.12-1-.25-1.74.25-2.24 1.49.5.5 1.05.81 1.67.93.62.13 1.18.44 1.68.93v.75l-1.12 2.24c-.25.5-.37 1.25-.37 2.24.5 0 .87-.12 1.12-.37.25-.24.37-.5.37-.75-.5 1-.75 1.93-.75 2.79 0 .87-.25 1.68-.75 2.42 0 .5.25.81.75.93.5.13.75.44.75.93 0 1-.25 1.99-.75 2.98-.5 1-.75 1.99-.75 2.98-.75.5-1.37.75-1.86.75.75 1.25 1.61 1.86 2.61 1.86 0 .5-.13 1.06-.37 1.67-.25.62-.37 1.18-.37 1.68v1.86c-.5 0-.81.13-.93.37-.13.25-.43.62-.93 1.12.99 1.25 1.24 2.55.75 3.91-.5 1.37-.75 2.67-.75 3.91 0 1.25-.56 2.42-1.68 3.54-1.12 1.12-1.43 2.3-.93 3.54-.5.75-.93 1.62-1.3 2.61-.37 1-.81 2.11-1.31 3.35h-2.23c-.75 0-1.37.25-1.86.75.5.5.93.81 1.31.93.37.13.8.44 1.3.93v.75c-1 1-1.68 2.11-2.05 3.35-.37 1.25-1.18 1.86-2.42 1.86v1.49c-1.25 1-2.61 2.23-4.1 3.72-1.49 1.49-3.23 1.99-5.21 1.49.75 1 1.61 1.86 2.61 2.61-1 1-2.05 1.68-3.17 2.05-1.12.37-2.05 1.18-2.79 2.42-1.74 0-2.98-.37-3.73-1.12v3.73c-.5 0-.93-.19-1.3-.56-.37-.37-.81-.8-1.3-1.3-.5 0-.87.13-1.12.37-.25.25-.62.37-1.12.37 1.24 0 1.92.25 2.05.75.12.5.19 1.12.19 1.86-.5 0-1.06.13-1.68.37-.62.25-1.18.37-1.67.37v-2.24c-.5 1.25-1.12 2.11-1.86 2.61s-1.49.99-2.23 1.49c-1.25-.75-1.25-1.61 0-2.61h-1.12c0 2.23-.5 3.72-1.49 4.47-7.95 1.99-15.83 1.68-23.65-.93-7.82-2.61-14.59-6.89-20.3-12.85-1.74-1.73-3.17-3.47-4.28-5.21-1.12-1.74-2.55-3.48-4.28-5.22-1.25 2.98-1.92 6.15-2.05 9.5-.13 3.35-.81 6.77-2.05 10.24-2.74-.5-5.34-.62-7.82-.37-2.49.25-5.09.37-7.82.37-.5-.5-1.06-.62-1.67-.37-.62.25-1.18.13-1.68-.37v-5.96l.75-1.12v-4.1c.75-.5 1.36-1.12 1.86-1.86-.5-.5-.81-.93-.93-1.3-.13-.37-.44-.8-.93-1.3.99-.5 1.42-1.12 1.3-1.86-.13-.75-.19-1.49-.19-2.23.5 0 1.05.13 1.68.37.62.25 1.17.13 1.67-.37 0-.99-.56-1.43-1.67-1.31-1.12.13-1.43-.31-.93-1.3.99-.99 1.49-2.11 1.49-3.35h-1.49l-1.3-1.3c-.37-.37-.81-.8-1.3-1.3 0-1.74.12-3.66.37-5.77.25-2.11.12-4.16-.37-6.15.5-1.24.75-2.73.75-4.47v-5.21c.99-.5 1.36-1.18 1.12-2.05-.25-.87-.87-1.3-1.86-1.3.99-.5 1.12-1.24.37-2.24-.74-.99-.87-1.99-.37-2.98.75-2.73.75-5.59 0-8.57 0-1.74.62-2.61 1.86-2.61-1.25-.74-1.49-1.8-.75-3.17.75-1.36 1.49-2.29 2.24-2.79-.5-.5-.75-1.05-.75-1.67v-1.68c.75 0 1.36-.19 1.86-.56.5-.37.99-.8 1.49-1.3h-2.61c-.5-.75-.31-1.24.56-1.49.87-.25 1.55-.87 2.05-1.86v-.75l-.37-.37c-.5-.5-1-.75-1.49-.75-.75-.75-.75-1.24 0-1.49s1.36-.62 1.86-1.12l-1.86-.75c0-.75.31-1.42.93-2.05.62-.62.93-1.3.93-2.05-.5-1.24-1.25-2.23-2.23-2.98-1-.75-1.99-1.49-2.98-2.24-.75-1.49-.37-2.98 1.12-4.47-1-2.73-1.55-5.52-1.67-8.38-.13-2.85-.19-5.77-.19-8.76 1.99 0 3.97.13 5.96.37 1.99.25 3.97.13 5.96-.37 3.22-.99 6.08-.74 8.57.75 0 2.74.19 5.34.56 7.82.37 2.49.56 5.09.56 7.82 0 5.22.25 10.25.75 15.09s.99 9.87 1.49 15.09c1.74 8.94 4.34 18.38 7.82 28.31 1.73 2.98 3.41 6.02 5.03 9.13 1.61 3.11 4.03 6.02 7.27 8.75.75 1 1.73 1.86 2.98 2.61 1.24.75 2.73 1.62 4.47 2.61l1.12.75c.75 0 1.55.19 2.42.56.87.37 1.67.56 2.42.56 0 .5.12.87.37 1.12.24.25.5.37.75.37h3.35v2.61c.5 0 1.05.06 1.67.18.62.13 1.18.69 1.68 1.68 0-.5.62-1.12 1.86-1.86v1.86c.5-.5.93-.8 1.3-.93.37-.12.8-.43 1.3-.93 0-.5-.62-1.36-1.86-2.61 1.24-.49 2.29-.24 3.17.75.87 1 1.55 1.86 2.05 2.61.5-.75 1.12-1.36 1.86-1.86.75-.5 1.49-.99 2.23-1.49-.5-.49-.75-1.05-.75-1.67 0-.62-.25-1.17-.74-1.68l.37-.37c.25 0 .43-.06.56-.19.12-.12.31-.19.56-.19.5-.49 1.3-.93 2.42-1.3 1.12-.37 2.05-.8 2.79-1.3h1.86v-1.86h1.68c.62 0 1.17.25 1.67.75 0-.75.12-1.36.37-1.86.24-.5.37-.99.37-1.49h-.75c0 .5-.13.93-.37 1.3-.25.37-.37.81-.37 1.3-1.49 0-1.86-.87-1.12-2.61h-1.49l.37-.37c0-.24.06-.43.18-.56.12-.12.19-.31.19-.56-.75-.5-.93-1.12-.56-1.86.37-.75.8-1.36 1.3-1.86.99 0 1.73.5 2.24 1.49.49 1 1.24 1.74 2.23 2.24h.75c.75 0 1.12-.37 1.12-1.12H421c-.5-.5-1.06-.93-1.67-1.31-.62-.37-.93-1.05-.93-2.05-.5 0-1.06-.12-1.67-.37-.62-.25-1.18-.37-1.68-.37 0-1.49.62-2.61 1.86-3.35h.37v-.37c.24-.25.37-.5.37-.75l-.37-.37c-.25 0-.5-.06-.75-.19-.25-.12-.5-.19-.75-.19 0-2.24.31-4.53.93-6.89.62-2.36.68-4.66.18-6.89 0-1.73-.06-3.6-.18-5.59-.13-1.98-.44-3.84-.93-5.59-.5-1.99-.93-4.1-1.3-6.33-.37-2.24-1.06-4.47-2.05-6.7-.75-1.99-1.93-4.1-3.54-6.33-1.62-2.24-3.04-4.34-4.28-6.33a94.764 94.764 0 0 0-11.73-14.34c-4.35-4.34-9-8.5-13.97-12.48-1.99-2.48-4.35-4.84-7.08-7.08-2.74-2.24-5.46-4.72-8.19-7.45-2.98-2.98-5.9-5.83-8.75-8.57-2.86-2.73-5.4-5.83-7.64-9.31a45.035 45.035 0 0 0-4.1-6.15c-1.49-1.86-2.74-3.78-3.73-5.77-2.73-4.96-4.72-9.93-5.96-14.9-1.25-4.96-2.36-10.3-3.35-16.02-.99-4.22-1.36-8.69-1.12-13.41.25-4.71.62-9.19 1.12-13.41 0-3.47.43-6.76 1.3-9.87.87-3.1 1.55-6.39 2.05-9.87.99-1.73 1.74-3.41 2.24-5.03.5-1.61 1.24-3.04 2.24-4.28.74-3.48 2.17-6.39 4.28-8.75 2.11-2.36 4.03-4.9 5.77-7.64 4.47-4.47 8.81-7.94 13.04-10.43 2.73-.75 5.15-1.49 7.26-2.24 2.06-.79 4.23-1.17 6.47-1.17zm-23.1 73.01v.75c0 .5.25 1 .75 1.49.25.25.5.37.75.37-.5.75-1.12 1.06-1.86.93-.75-.12-1.49-.25-2.24-.37-.75-.12-1.37-.06-1.86.18-.5.25-.75.87-.75 1.86h2.61V244c-.75.5-1.62.75-2.61.75 0-.5.12-.93.37-1.3.24-.37.37-.8.37-1.31h-1.86c-.5 1-.69 2.05-.56 3.17.12 1.12-.44 1.3-1.68.56V244c-1 1.74-2.49 2.61-4.47 2.61V244c.5-.5 1.06-.8 1.68-.93.62-.12 1.17-.43 1.68-.93 0-.49-.13-.74-.37-.74-.25 0-.62-.25-1.12-.75-1.25 1.74-2.49 2.86-3.73 3.35-.5-.99-.87-1.74-1.12-2.24-.25-.5-.37-1.12-.37-1.86-.75.5-1.12 1-1.12 1.49h-.75v.74c.99 1 1.74 1.86 2.24 2.61.5.75 1.24 1.12 2.24 1.12v3.35c.74-1.73 1.86-2.61 3.35-2.61v1.86c.5.5.87.75 1.12.75h.75c-.5 1.25-1.18 2.18-2.05 2.79-.87.62-1.93 1.43-3.17 2.42.49-.75 1.36-1.12 2.61-1.12.5 0 .93-.12 1.3-.37s.8-.37 1.3-.37c0 1-.19 1.68-.56 2.05l-1.3 1.3c1.24-1.24 2.67-1.67 4.28-1.3 1.61.37 3.04.81 4.28 1.3-1 1.74-2.11 2.98-3.35 3.73l-1.12-1.12v2.61c0-.99.62-1.49 1.86-1.49v1.67c0 .62.25 1.18.75 1.68v1.49h1.86l1.3-1.3c.37-.37.8-1.05 1.3-2.05-.5 0-1.06.13-1.67.37-.62.25-1.18.37-1.68.37 0-.5-.18-1.05-.56-1.68-.37-.62-.56-1.17-.56-1.67h3.72v1.86c0-.5.12-1.05.37-1.68.25-.62-.25-.93-1.49-.93 1.24-.99 2.36-1.74 3.35-2.24.99-.5 1.86-1.24 2.61-2.24-.5-.5-.93-.75-1.3-.75s-.81-.25-1.3-.75c0-1.73-.75-2.61-2.24-2.61-1.25-1.99-1.86-3.72-1.86-5.21.5-.5.99-.8 1.49-.93.5-.12 1.12-.43 1.86-.93 0-.49.12-.74.37-.74.24 0 .37-.25.37-.75-.5.5-.87.75-1.12.75-.25 0-.62.25-1.12.74-.5-1.24-.43-2.11.19-2.61s1.3-.75 2.05-.75c0-.49-.13-.93-.37-1.3-.25-.37-.37-1.05-.37-2.05h-1.47zm-6.33-8.56c0 1-.32 1.99-.93 2.98-.62 1-.31 1.74.93 2.24a5 5 0 0 0-1.12 1.68c-.25.62-.62 1.18-1.12 1.67h-2.61c1.24.5 2.36 1.06 3.35 1.68.99.62 2.11.69 3.35.19-.75-1.24-1.62-1.86-2.61-1.86.99-.5 1.73-.93 2.24-1.3.49-.37 1.24-.8 2.23-1.3v-2.98c0-.99.25-1.98.75-2.98h-4.46zm-2.05 167.06c.37.62.31 1.55-.19 2.79.99-.5 2.11-.75 3.35-.75 0-.5-.19-.93-.56-1.3-.37-.37-.56-.8-.56-1.3h-2.24v-2.61c-.5 0-.81.19-.93.56-.13.37-.43.56-.93.56 1 .75 1.69 1.43 2.06 2.05zm-1.3-169.67c0 .5.18.87.56 1.12.37.25.8.13 1.3-.37 0-1.25-.62-1.5-1.86-.75zm1.12 3.35c-.5 1-.62 1.55-.37 1.67.24.13.62.19 1.12.19.49-1.24.24-1.86-.75-1.86zm2.23 19c.5.5.99.75 1.49.75h2.98c0 1.25-.44 1.86-1.3 1.86-.87 0-1.55.25-2.05.75v2.61c-.5 0-1.06-.12-1.67-.37-.62-.25-1.18-.37-1.68-.37.5-.99.87-1.86 1.12-2.61.24-.76.61-1.63 1.11-2.62zm-1.49-28.31c.5 0 1.05.13 1.67.37.62.25 1.18.37 1.68.37 0-.99-.62-2.36-1.86-4.1-.99 1-1.49 2.12-1.49 3.36zm5.96 173.58v.75h-1.86l1.12.75c0 1.25-.37 2.11-1.12 2.61.5 1 .62 2.05.37 3.17s-.62 2.05-1.12 2.79h-2.61c1.49 1.49 1.24 2.98-.75 4.47l.37-.37c.5-.5.87-.75 1.12-.75.5-.5 1.12-.62 1.86-.37.75.25 1.36.37 1.86.37v-.75c.75-.5.93-.93.56-1.3s-.56-.8-.56-1.3.12-.93.37-1.3c.24-.37.37-.8.37-1.3.5.5.99 1.06 1.49 1.67.5.62 1.12.93 1.86.93v2.61c1.24-1.24 1.86-1.24 1.86 0v-2.61c-.75 0-1.25-.12-1.49-.37-.25 0-.37-.12-.37-.37-.5-.5-.93-.8-1.3-.93-.37-.12-.81-.43-1.3-.93l.37-.37c.49-.49.74-.87.74-1.12-.5 0-1.12.13-1.86.37-.75.25-1.37.37-1.86.37l1.3-1.3 1.3-1.3c.99-.5 1.86-1.61 2.61-3.35-.5.5-1.37.75-2.61.75-.47-.03-.72-.52-.72-1.52zm-5.21-170.98c.99 1 1.86 1.49 2.61 1.49h-1.86v1.86c.5.5 1.12.81 1.86.93.75.13 1.36.44 1.86.93v-4.47c1.74 1 3.35.75 4.84-.75-1.99 1-3.97.75-5.96-.74h-1.68c-.62.01-1.18.26-1.67.75zm.74-13.78c.99 1.74 2.23 2.61 3.72 2.61-.5.5-1 .93-1.49 1.3-.5.37-1.25.81-2.23 1.3h2.61c-.25.25-.75 1.37-1.49 3.35h.75c0-.5.12-.87.37-1.12 0-.25.12-.5.37-.75.75.75 1.12 1.99 1.12 3.72.75-.49 1.68-.87 2.79-1.12 1.12-.25 2.17-.75 3.17-1.49-1 0-1.68.13-2.05.37-.37.25-.81.37-1.31.37v-1.86c-.5 0-.81.19-.93.56-.13.37-.44.81-.93 1.3 0-.5-.13-1.05-.37-1.67-.25-.62-.37-1.18-.37-1.68s.37-.87 1.12-1.12c.75-.25.87-.75.37-1.49l-1.3-1.3c-.37-.37-.81-.8-1.3-1.3h-2.62zm19.74 59.97c0 2.49-.5 3.98-1.49 4.47-1.25.5-2.42 1.37-3.54 2.61-1.12 1.25-2.3 2.36-3.54 3.35-1 0-1.49.87-1.49 2.61-.5 0-.93.13-1.31.37-.37.25-.81.37-1.3.37h-4.1c-.25 0-.37.25-.37.75.5 0 .99.13 1.49.37.5.25 1.24.13 2.23-.37.5 0 1.05.06 1.68.19.62.13 1.17.43 1.68.93 0-.5-.25-.99-.75-1.49l-.37-.37c1.99-.75 3.73-.75 5.22 0h1.12c1.74.5 3.54.62 5.4.37 1.86-.24 3.78-.12 5.77.37 0-.25-.25-.62-.75-1.12l-.37-.37c.5 0 .93-.12 1.3-.37s.8-.37 1.3-.37c-2.23-.99-4.22-.99-5.96 0-1.25.5-2.55.5-3.91 0-1.37-.5-2.67-.25-3.91.75-.75 0-1.25-.06-1.49-.19-.25-.12-.62-.68-1.12-1.67 1.24-.5 2.48-.75 3.73-.75l1.3-1.3c.37-.37 1.05-.8 2.05-1.3-.5-.99-.31-1.49.56-1.49.87 0 1.55.25 2.05.75l-1.12-1.12v-1.49c.99.5 1.73.93 2.24 1.3.49.37 1.24.81 2.23 1.3.5-.75.75-1.61.75-2.61-.5 0-.75.13-.75.37 0 .25-.25.37-.75.37-1.25-.74-1.86-1.24-1.86-1.49h.37v-.37c.24-.25.37-.5.37-.75l-1.49 1.12v-4.47l-1.1.74zm-8.56 1.87v2.61c-.5 0-1.06-.12-1.67-.37-.62-.25-1.18-.37-1.68-.37.5.5.93.87 1.3 1.12.37.25.8.62 1.3 1.12.99-.5 1.86-.99 2.61-1.49.75-.5 1.36-1.36 1.86-2.61h-3.72zm-.75-13.04c-1 1.25-1.67 2.86-2.05 4.84-.37 1.99.06 3.6 1.31 4.84.49 0 .93-.19 1.3-.56.37-.37.8-.56 1.3-.56l1.49-2.24c.49-.75 1.36-.87 2.61-.37-.5 0-.75.18-.75.56 0 .37-.25.81-.75 1.3 0 .5-.19 1.06-.56 1.67-.37.62-.56 1.18-.56 1.68 1.24 0 1.86.62 1.86 1.86h2.61v-1.86c-.5 0-1.06.25-1.68.75-.62.5-.93.25-.93-.75-.5-.75-.32-1.36.56-1.86.87-.5 1.55-.99 2.05-1.49-1 0-1.86-.62-2.61-1.86h3.35c-1.25-.75-2.36-1.05-3.35-.93-1 .13-2.11.19-3.35.19-1.25-.75-1.86-2.11-1.86-4.1.5 0 1.05.25 1.68.75.62.5 1.17.5 1.68 0-1.24-1.24-2.36-1.86-3.35-1.86zm-1.86 18.25v2.61c.5-.5.93-.8 1.3-.93.37-.12.8-.43 1.3-.93h-.37c-.25 0-.37-.25-.37-.75h-1.86zm4.47 13.79c-.5.5-.75.87-.75 1.12v.37c0 .5.12.81.37.93.25.13.62.44 1.12.93 0-1.24.31-1.99.93-2.24.62-.25 1.18-.37 1.68-.37s.93.13 1.3.37c.37.25.8.37 1.3.37-.75-.75-1.68-1.05-2.79-.93-1.11.13-2.17-.05-3.16-.55zm0-2.61c-.5 1-.25 1.25.75.75 0-.5-.26-.75-.75-.75zm3.35-1.87c.5.5 1.12.75 1.86.75h.75v2.61h5.96c.5-.5.5-1.12 0-1.86-.5-.75-.75-1.49-.75-2.24-.5 0-.81.13-.93.37-.13.25-.44.62-.93 1.12-.75-.5-1.67-.99-2.79-1.49s-2.18-.25-3.17.74zm8.57 5.22c1.24 0 1.86.62 1.86 1.86h-3.35c.75.5 1.49.93 2.24 1.3.75.37 1.12 1.06 1.12 2.05-1 .5-1.86.81-2.61.93-.75.13-1.37.68-1.86 1.67.99 0 1.74.13 2.24.37.5.25.99.37 1.49.37.75 1 1.55 1.86 2.42 2.61.87.75 1.68 1.37 2.42 1.86.24 0 .49.07.74.19.25.13.5.19.75.19l.37.37c0 .75.25 1.37.75 1.86.5.5.5 1 0 1.49-.75 1-1.55 1.06-2.42.19-.87-.87-.93-1.8-.18-2.79-.5.5-.93.93-1.31 1.3-.37.37-1.06.56-2.05.56-.25-.25-.5-.37-.74-.37-.5 0-.75.13-.75.37 0 .74.43 1.06 1.3.93.87-.12 1.55-.43 2.05-.93.5.74.75 1.43.75 2.05 0 .62.24 1.3.75 2.05 0-.5.18-.93.56-1.31.37-.37.56-.8.56-1.3h3.35v.75c0 .25-.25.62-.75 1.12h-1.12v.75l1.86-.75c1.74-.75 3.48-.75 5.21 0l1.3 1.3c.37.37 1.06.81 2.05 1.3 0-.5.12-.93.37-1.3s.37-.8.37-1.3c-.5-.5-.93-1.05-1.3-1.68-.37-.62-1.06-1.17-2.05-1.67-1 1-2.11 1.49-3.35 1.49v-2.23c0-.75.25-1.36.75-1.86-1 .5-2.74.75-5.21.75v-.37c0-.25.37-.62 1.12-1.12h.37c.24 0 .62-.37 1.12-1.12 0-.5.19-.93.56-1.3.37-.37.56-.8.56-1.3-1 .5-1.74.93-2.23 1.3-.5.37-1.25.56-2.24.56v-4.47h4.47l.75-.75h-2.61v-1.86c1.49 0 2.61-.74 3.35-2.23h-1.86c-.75 0-1.49.25-2.24.75-.75.5-1.37 1.37-1.86 2.61-.5-.5-1.12-.8-1.86-.93-.75-.12-1.49-.43-2.24-.93 0-.25.12-.5.37-.75 0-.25.06-.5.19-.75.12-.25.19-.62.19-1.12-.76-1.5-2.26-1.75-4.49-.76zm1.86-5.59c0 .5-.25 1.25-.75 2.23.75 0 1.73-.18 2.98-.56 1.24-.37 1.86.32 1.86 2.05h1.12c-.5-.75-.87-1.36-1.12-1.86-.25-.5-.75-.75-1.49-.75.5-.5.75-1.36.75-2.61h-2.61c-.49.51-.74 1.01-.74 1.5zm33.53 27.94c0 .75-.25 1.55-.75 2.42-.5.87-1.12.93-1.86.19-1 .75-1.92 1.3-2.79 1.68-.87.37-1.92.31-3.17-.19-.5 1-.93 1.74-1.3 2.24-.37.5-.81 1-1.3 1.49.5.5 1.12.62 1.86.37.75-.25 1.49-.12 2.24.37v2.61c.5.5.8 1.06.93 1.67.12.62.18 1.18.18 1.68-1.25 0-1.86-.25-1.86-.75 0 .5-.13.93-.37 1.3-.25.37-.37.81-.37 1.3-1.74 0-2.86-.37-3.35-1.12v1.12c.75.5 1.55.75 2.42.75h2.42c0-.5.19-.8.56-.93.37-.12.8-.43 1.3-.93v-1.49c.5-.5.8-.93.93-1.3.12-.37.68-.8 1.67-1.3.75.5 1.18 1.25 1.3 2.23.12 1 .19 1.99.19 2.98l1.86-1.86c.5 0 1.06-.12 1.68-.37.62-.25 1.17-.37 1.68-.37-.75 0-1.37-.19-1.86-.56-.5-.37-1-.56-1.49-.56 0-.24-.06-.43-.18-.56-.13-.12-.19-.31-.19-.56l-.37-.37c-1-.5-1.99-.8-2.98-.93-1-.12-1.74-.68-2.24-1.68h1.68c.62 0 .93-.24.93-.75 0-.49-.43-.99-1.3-1.49-.87-.5-1.06-1.24-.56-2.24.99-.5 1.99-.75 2.98-.75s1.49.62 1.49 1.86c.49-.99.74-1.92.74-2.79v-2.42h-.75zm-8.57-.75v1.67c0 .62.25 1.43.75 2.42h1.86c.5-.99.87-1.68 1.12-2.05.24-.37.37-.8.37-1.3h-3.35l-.75-.74zm2.61 5.96c.5 0 .75.44.75 1.3 0 .87-.25 1.3-.75 1.3-1 0-1.49-.43-1.49-1.3 0-.86.49-1.3 1.49-1.3zm0-7.82c0 .75.12 1.06.37.93.24-.12.43-.31.56-.56.12-.25.19-.5.19-.75 0-.24-.38-.11-1.12.38zm5.96 8.57c0 .5-.19.93-.56 1.3-.37.37-.56.81-.56 1.3h2.61c1.24 0 2.11-.24 2.61-.75V317h-4.1zm8.56 15.64c0 .75-.13 1.37-.37 1.86-.25.5-.37 1.25-.37 2.23.5.5.87.93 1.12 1.3.24.37.62.81 1.12 1.3 0-.49-.13-.93-.37-1.3-.25-.37-.37-.8-.37-1.3 1.24-.5 2.54-.62 3.91-.37 1.36.25 2.67.13 3.91-.37h-5.22c.5-1.24.25-2.11-.75-2.61-.99-.49-1.86-.74-2.61-.74zm3.36-5.21v.75h-.75v2.61l.75.75v-1.49c.5 0 .93.13 1.3.37.37.25.8.37 1.3.37.99 0 1.86-.62 2.61-1.86-.5-.5-1.18-.62-2.05-.37-.87.25-1.31.13-1.31-.37-.74 0-1.25-.12-1.49-.37-.24-.02-.36-.14-.36-.39zm7.82 55.87v.75c.5.5.87.75 1.12.75.25 0 .37.25.37.75.49 0 .8.19.93.56.12.37.43.56.93.56 0-1.24.37-2.17 1.12-2.79.75-.62 1.49-1.42 2.24-2.42-1.25 0-2.36.44-3.35 1.3-1 .86-2.12 1.04-3.36.54zm1.49-3.72c0 .5.18.93.56 1.3.37.37.8.31 1.3-.19 0-1.48-.62-1.86-1.86-1.11zm5.21 14.53c-.75 1-1.37 1.74-1.86 2.23-.5.5-1 1.25-1.49 2.24.99 0 2.05-.31 3.17-.93 1.12-.62 2.05-.31 2.79.93 0-.5.12-.87.37-1.12 0-.25.12-.5.37-.75-1-.99-1.74-1.49-2.24-1.49 0-.75-.25-1.12-.75-1.12h-.36zm-1.49-173.96c.5-.99.93-1.99 1.3-2.98s1.05-1.74 2.05-2.24c.75 1.74 1.61 2.86 2.61 3.35h-3.35v2.61c-.5 0-.93-.12-1.3-.37-.37-.24-.81-.37-1.31-.37zm.75 43.58c-.5 1.25-.25 1.86.75 1.86.5-.99.62-1.55.37-1.67-.25-.12-.63-.19-1.12-.19zm4.1-25.7c-.5 0-1 .32-1.49.93-.5.62-.5 1.18 0 1.68.75.5 1.43.31 2.05-.56.61-.87.43-1.55-.56-2.05zm1.11 182.15c-.5.75-.62 1.12-.37 1.12s.5-.06.75-.19c.25-.12.43-.31.56-.56.12-.24-.19-.37-.94-.37zm16.02-252.18c1.74-.5 3.48-.62 5.21-.37 1.74.25 3.48.37 5.22.37 5.71-.5 11.11-.62 16.2-.37s10.24.37 15.46.37c1.73-.5 3.47-.5 5.21 0 1.74.5 3.47.5 5.21 0 .5.5.75.87.75 1.12 0 .25.24.62.74 1.12 0-1.49.62-2.23 1.86-2.23.99.5 2.23.56 3.72.18 1.5-.37 2.24.32 2.24 2.05.5-.49.8-.87.93-1.12.12-.25.42-.62.93-1.12.75.75 1.55 1.06 2.43.93.86-.12 1.8-.18 2.79-.18 1.74 0 3.42.13 5.03.37 1.61.25 3.28.13 5.02-.37 1.24 0 2.36.25 3.35.75.99.5 1.87.5 2.61 0 1.24 1.25 2.73 1.99 4.48 2.23 1.73.25 3.47.37 5.21.37.5.5 1.05.81 1.68.93.62.13 1.17.44 1.67.93 0-.5.13-.93.37-1.3.25-.37.37-.8.37-1.3 1.74 0 2.85.25 3.35.75l-.75.75c.5 0 1.12.06 1.87.18.74.13 1.61.44 2.61.93 0-1.24-.63-1.86-1.87-1.86 2.98-2.24 4.48-1.61 4.48 1.86.74-1.24 1.61-1.86 2.61-1.86 0-.25-.25-.62-.75-1.12-.25-.24-.37-.49-.37-.75.99-.49 1.62-.43 1.86.19.25.62.75 1.18 1.5 1.68.5.5 1.12.62 1.86.37.75-.25 1.62-.12 2.61.37.99 0 1.36-.31 1.12-.93-.25-.62-.63-1.17-1.12-1.68.99 0 1.8-.12 2.43-.37.62-.25 1.17-.37 1.68-.37.75.5 1.36 1.12 1.86 1.86h1.86c0-1.24.5-1.86 1.5-1.86.5.5 1.11.87 1.86 1.12.75.25 1.62.13 2.61-.37 1.24 1.99 1.55 3.98.93 5.96-.62 1.99-.69 4.1-.18 6.33-.51 0-.75.13-.75.37 0 .25-.25.62-.74 1.12.24 0 .62.25 1.11.75l.37.37c-.51.75-1 1.25-1.49 1.49-.51.25-.51.87 0 1.86l1.49.75c-.51.5-.93.93-1.3 1.3l-1.3 1.3c0 1 .18 1.86.56 2.61.37.75.81 1.62 1.3 2.61 0 .5-.12.93-.37 1.3-.24.37-.36.81-.36 1.3.74 0 1.49.87 2.23 2.61-1.25-.5-2.36-.68-3.35-.56-1 .13-1.24.81-.75 2.05-.5.74-1.36 1.12-2.61 1.12-1.24 0-1.86.5-1.86 1.49.5-.5.99-.87 1.49-1.12.5-.24 1.24-.37 2.23-.37.75-.99 1.36-.93 1.87.19.5 1.12.99 1.92 1.49 2.42-.5.5-.93.75-1.3.75s-.81.25-1.3.75v1.86c.5.75.81 1.55.93 2.42.12.87.43 1.8.94 2.79h-5.22c.5.5 1.06.93 1.68 1.3.62.37 1.18.81 1.68 1.3 0 .75-.31 1.18-.93 1.3-.63.13-1.18.44-1.68.93 1.24 0 2.11.37 2.61 1.12v4.1h-1.86c.5 0 1.11.19 1.86.56.75.37 1.62.56 2.61.56-.5.5-.74 1.62-.74 3.35-1-.49-1.75-.8-2.24-.93-.5-.12-.99-.43-1.49-.93 0 .5.18.93.56 1.3.37.37.56.81.56 1.3l-1.11.75c1.24 0 1.86 1.25 1.86 3.73.5.5 1.12.93 1.87 1.3.74.37.74 1.06 0 2.05h-1.12c-.51 0-.75.25-.75.75s.12 1 .37 1.49c.24.5.12 1.12-.37 1.86 0 .25.12.5.37.75.24.25.75.37 1.5.37v5.22c-.75-.75-1.63-1.12-2.62-1.12.5.5.75.93.75 1.3s.24.81.75 1.3c-1.74 0-3.11.25-4.1.75h-1.11 4.47v4.47c.5-.5 1.05-.75 1.68-.75h1.68l-.75 1.49-.74 1.12v1.49c-.51.5-1.12.81-1.87.93-.75.13-1.36.43-1.86.93 1.74 0 2.61.25 2.61.75-.25 0-.37.13-.37.37-.25.25-.37.74-.37 1.49.5 0 .93-.18 1.3-.56.37-.37.81-.56 1.3-.56 0 1.25-.06 2.49-.18 3.73-.13 1.25.18 2.36.93 3.35l-.75.75c.99 1 1.5 1.86 1.5 2.61-.51.5-.93 1.06-1.3 1.67-.37.62-1.06.69-2.05.19h-13.78c-.75.5-1.18.31-1.3-.56-.13-.87-.18-1.55-.18-2.05 0-2.73-.19-5.46-.57-8.19-.37-2.73-.56-5.46-.56-8.19 0-5.71-.25-11.3-.75-16.76-.5-5.46-.99-11.05-1.49-16.76-1-3.48-2.18-7.02-3.54-10.62-1.37-3.6-3.43-6.89-6.15-9.87-3.72-5.71-9.44-8.57-17.13-8.57v167.25c-.51 1.25-.75 2.74-.75 4.47h-.75c-.25 0-.63.25-1.12.75 0 .5-.12.81-.36.93-.25.13-.37.44-.37.93-1.5 0-2.61.87-3.35 2.61 0-.75-.63-1.12-1.86-1.12 0 1 .37 1.56 1.11 1.68.75.13 1.5.19 2.23.19.5 1.25.13 1.86-1.11 1.86s-2.23.25-2.98.75c0 .5.12.93.37 1.3.24.37.37.81.37 1.3-.51.5-.94.93-1.3 1.3l-1.3 1.3c.5.75 1.05 1.55 1.67 2.42.63.87 1.18 1.67 1.68 2.42-.24.5-.62 1-1.11 1.49l-.37.37c0 .5.12.81.37.93.24.13.62.44 1.11.93-1.24 0-2.04.44-2.41 1.3-.37.87-.07 1.55.93 2.05.5 0 1.36-.62 2.61-1.86.5 1 .43 1.67-.18 2.05-.63.37-1.18.81-1.68 1.3h1.86c-.51.5-1 1.18-1.49 2.05-.51.87-.37 1.92.36 3.17.5-.5.94-1.12 1.3-1.86.37-.75.81-.62 1.3.37 0 1.25.19 2.36.57 3.35.37 1 .56 2.11.56 3.35h-2.61c.5 1.49 1.36 2.61 2.61 3.35v-4.1c1.24-.5 1.8-.31 1.68.56-.13.87-.19 1.55-.19 2.05.5.5.81.87.94 1.12.12.25.42.37.93.37h1.49c0 1 .19 1.74.57 2.23.36.5.56 1.25.56 2.24.75 1.25 1.61 2.42 2.61 3.54.99 1.12 2.35 1.93 4.09 2.42 2.24 1 4.54 1.56 6.89 1.68 2.36.13 4.9.44 7.64.93v3.35l.37.37c.5.5.75 1 .75 1.49-1.75.75-2.61.13-2.61-1.86l-.75.37h-.37v.37c.5.5.81.93.93 1.3s.43.81.93 1.3c-.5 0-.93.18-1.3.56-.37.37-.81.56-1.3.56.5.5.93.75 1.3.75s.81.25 1.3.75c0 1-.62 1.86-1.86 2.61v3.35h1.12c0-1.24.42-1.67 1.3-1.3.86.37 1.3.81 1.3 1.3-1.25 1.25-1.87 2.49-1.87 3.73-.5.5-1.05.93-1.68 1.3-.62.37-1.17.81-1.67 1.3.74 0 1.49.19 2.23.56.74.37.87.93.37 1.68-3.98.5-8.01.62-12.11.37s-8.14-.37-12.12-.37h-2.97c-1.25 0-2.49-.25-3.73-.75v-1.49l1.49.75c-.5-.99-.93-1.74-1.3-2.24-.37-.5-.81-1.24-1.3-2.24 0 .5-.12.93-.37 1.31-.24.37-.36.81-.36 1.3v2.61h-3.35c0-1.74-.63-2.85-1.86-3.35-.75 0-1.37.31-1.87.93-.5.62-.99 1.18-1.49 1.68-.51-.5-1.12-.75-1.87-.75h-2.23c-1.49 0-3.23.5-5.21 1.49 0-.5-.19-.93-.56-1.3-.37-.37-.56-.8-.56-1.3-1.24.5-2.49.43-3.72-.19-1.24-.62-2.48-1.43-3.72-2.42-1.74 0-2.98.37-3.73 1.12v3.35c-.5-.5-1.06-.75-1.67-.75h-1.68c0-.5.12-.93.37-1.3s.37-.8.37-1.3c-1.25 0-2.42.44-3.54 1.3-1.12.87-2.18.69-3.17-.56l.37-.37c0-.25.06-.43.18-.56.12-.12.19-.43.19-.93-.75 0-1.49.07-2.24.19-.75.13-1.37.69-1.86 1.68-.5-.5-.93-.8-1.3-.93-.37-.12-.81-.43-1.3-.93-.5.75-1.37 1.12-2.61 1.12 0 1-.62 2.36-1.86 4.1 0-.75.06-1.61.19-2.61.12-.99-.44-1.49-1.68-1.49v-19c3.97-.5 8.07-.87 12.29-1.12 4.22-.25 7.82-1.86 10.8-4.84.5-2.23 1.05-4.41 1.67-6.52.62-2.11.93-4.28.93-6.52 0-1.73.12-3.6.37-5.59.25-1.98.37-3.85.37-5.59v-5.03c0-1.61.62-3.04 1.86-4.28h-1.86c.5-1.24.87-2.48 1.12-3.72.25-1.24.74-2.36 1.49-3.35-.5-.75-1.18-1.36-2.05-1.86-.87-.5-1.06-1.24-.56-2.23 0-1.24.19-2.54.56-3.91.37-1.36.56-2.67.56-3.91-1-.5-1.43-1.12-1.3-1.86.12-.75.19-1.49.19-2.24 0-1.24.43-2.48 1.3-3.73.86-1.24 1.55-2.36 2.05-3.35-1-.5-2.11-.75-3.35-.75.99-1.73.99-3.47 0-5.21 1.73 0 2.61-.62 2.61-1.86-.5 0-.93-.12-1.3-.37s-.81-.37-1.3-.37c0-1.74-.25-3.1-.75-4.1.99-1.99 1.36-3.78 1.12-5.4-.25-1.61-.62-3.29-1.12-5.03 0-1.24.12-2.67.37-4.28.25-1.61.37-3.04.37-4.28-.5-2.73-.56-5.4-.19-8.01.37-2.61.8-5.4 1.3-8.38-.75-.49-1.12-1.36-1.12-2.61.5 0 .93-.12 1.3-.37s.8-.37 1.3-.37v-1.86c.5-.5.8-.93.93-1.3.12-.37.43-.8.93-1.3.5 1 .62 1.86.37 2.61-.25.75-.37 1.37-.37 1.86.5-.5.75-.93.75-1.3s.24-.8.74-1.3c-.5-.5-.74-1.36-.74-2.61 0-.5.12-.8.37-.93.24-.12.37-.43.37-.93h-.74v-4.1c.5 0 .8-.12.93-.37.12-.25.43-.37.93-.37-.51-.99-.81-1.74-.93-2.24-.13-.5-.43-.99-.93-1.49l1.3-1.3 1.3-1.3c-1.74 0-2.86.37-3.35 1.12.99-3.22.62-5.21-1.12-5.96.5-.5.93-.8 1.3-.93.37-.12.8-.43 1.3-.93 0-.99-.13-1.74-.37-2.24-.25-.5-.63-1.12-1.12-1.86v-1.86c1.24-.99 1.3-1.86.19-2.61s-2.05-1.36-2.79-1.86c-.5-.5-.5-.93 0-1.3s.75-.8.75-1.3l-1.49-1.49c.5-.5.99-.8 1.49-.93.5-.12.5-.43 0-.93s-1.37-.75-2.61-.75c-.5-2.73-.62-5.15-.37-7.27.25-2.11.12-4.28-.37-6.52 0-1.74.12-3.29.37-4.66.25-1.36.12-2.92-.37-4.66v-4.84c0-1.24.25-2.85.75-4.84 0-2.48-.25-4.84-.75-7.08s-.5-4.71 0-7.45c.5-1.99.62-4.22.37-6.7-.25-2.48-.13-4.84.37-7.08 0-1.24-.5-1.8-1.49-1.68-1 .13-1.86.44-2.61.93-2.98.5-5.9 1.55-8.75 3.17-2.86 1.62-5.16 4.04-6.89 7.27-.75 1.25-1.49 2.67-2.24 4.28-.75 1.62-1.74 3.04-2.98 4.28 0 2.74-.31 5.16-.93 7.27-.62 2.11-1.43 4.53-2.42 7.26v1.68c0 .62-.25.93-.75.93 0 .5.12.75.37.75.24 0 .37.25.37.75 0 2.74-.13 5.47-.37 8.19a90.08 90.08 0 0 0-.37 8.19c-.5 2.74-.75 5.34-.75 7.82v7.82c0 1.25-.31 2.49-.93 3.73-.62 1.25-.69 2.49-.19 3.73-.25.5-.62.99-1.12 1.49l-.37.37c-1.25 0-1.86-.25-1.86-.75-1 1-1.86 1.49-2.61 1.49-.5-.99-.75-2.36-.75-4.1-1 .5-1.55.56-1.68.18-.13-.37-.44-1.05-.93-2.05-.5 0-.93.19-1.31.56-.37.37-.81.56-1.3.56l-1.3-1.3c-.37-.37-.56-.8-.56-1.3-.5-.75-1.37-1.12-2.61-1.12v-1.49c-1.25-.49-1.8-1.12-1.68-1.86.12-.75.43-1.61.93-2.61-.75-1.74-1.3-3.6-1.68-5.59-.37-1.99-.06-3.85.93-5.59-.5-2.73-.62-5.15-.37-7.26.24-2.11.12-4.53-.37-7.27 0-2.23.12-4.41.37-6.52.24-2.11.37-4.28.37-6.52 2.73 0 2.98-1.12.75-3.35l.75-.75c-.5-.49-.75-1.61-.75-3.35v-3.72c.99 0 1.68-.56 2.05-1.68.37-1.12-.31-1.67-2.05-1.67v-1.49l1.3-1.3c.37-.37.56-.8.56-1.3 0-1.24-.62-1.86-1.86-1.86 0-.49.12-.93.37-1.3s.37-.8.37-1.3c0-.25-.5-1.12-1.49-2.61.75.5 1.49.56 2.24.19.75-.37 1.12-.93 1.12-1.68 0-.99-.19-1.55-.56-1.67-.37-.12-.81-.43-1.3-.93.5 0 .93.13 1.3.37.37.25.8.37 1.3.37.5-1.74.31-3.1-.56-4.1-.87-.99-1.8-1.86-2.79-2.61h1.86c.5-.75 1.36-1.12 2.61-1.12-.5-.75-1.3-1.36-2.42-1.86-1.12-.5-2.05-.75-2.79-.75V180c1.74 0 2.29-.8 1.68-2.42-.62-1.61-1.18-2.79-1.68-3.54.5-.5.8-.93.93-1.3.12-.37-.19-.8-.93-1.3.5 0 .75-.19.75-.56 0-.37.25-.56.75-.56-.54-.57-.78-1.31-.78-2.31zm1.86 92.38c0 1.25.5 1.62 1.49 1.12 0-1.24-.5-1.61-1.49-1.12zm45.45 164.27c-.5.5-.75 1-.75 1.49.5.5 1.24.87 2.24 1.12.99.25 1.11.75.37 1.49l-1.86 1.12h.75c0 .5.19.75.56.75s.8.25 1.3.75v-2.61c.75-.5.93-1.12.56-1.86s-.81-1.49-1.3-2.24h-1.87zm1.86-67.79c.25 0 .5-.06.74-.19.25-.12.37-.31.37-.56 0-.25-.37-.37-1.12-.37-.24.74-.24 1.12.01 1.12zm2.23 9.31c-.5 1-.43 1.62.19 1.86.62.25 1.18-.12 1.68-1.12.5-.5.43-.87-.19-1.12-.62-.24-1.18-.12-1.68.38zm4.47 55.87c.99.5 1.55 1.06 1.68 1.67.12.62.42 1.18.93 1.68 0 1-.06 1.86-.19 2.61-.12.75-.68 1.37-1.67 1.86-.5 0-1.06-.18-1.67-.56-.63-.37-1.18-.56-1.68-.56 0 .75.24 1.12.74 1.12s1.18.07 2.05.19c.87.13 1.06.56.56 1.3h1.86v-1.49c1.74-1.73 3.97-2.61 6.7-2.61-.24-.25-.36-.5-.36-.75-.25-.25-.37-.62-.37-1.12-1 1-1.99 1.25-2.98.75-1-.5-1.99-.99-2.98-1.49 0-.99-.06-2.05-.19-3.17-.12-1.12.19-2.05.94-2.79-.51.5-1.06.75-1.68.75-.63 0-1.18.25-1.68.74v1.87zm0 3.36c-1 .5-1.25 1.06-.74 1.67.49.62.99.69 1.49.19.5 0 .62-.43.37-1.3-.25-.87-.62-1.06-1.12-.56zm23.09-247.34v.75c1.5 1.49 1.87 2.98 1.12 4.47-.75-1.49-2.23-2.61-4.47-3.35.5.5.8.93.93 1.3.12.37.42.81.93 1.31-.51.5-.93.74-1.3.74s-.81.25-1.3.75a36.38 36.38 0 0 0-1.86-1.67c-.75-.62-.51-1.18.74-1.68-.99 0-1.49-.62-1.49-1.86 0 2.49-.63 3.73-1.86 3.73l.74.74c-.74 1-1.62 1.43-2.61 1.31-.99-.12-1.74-.8-2.23-2.05.5 0 1.05-.06 1.68-.19.62-.12.93-.43.93-.93h-4.47c-1.74 0-3.49-.25-5.21-.75-.51.5-1 1-1.5 1.49-.5.5-.25 1.12.75 1.86 1.24-1.24 2.55-1.55 3.91-.93 1.36.62 2.67.93 3.91.93-.5.5-.93 1.12-1.3 1.86-.37.75-.81 1.37-1.3 1.86 3.97-1.24 7.07-.75 9.32 1.49 0 .25-.13.37-.37.37-.25.25-.75.37-1.5.37h-.37c-.24 0-.36-.25-.36-.75v.75c.5.75 1.11 1.12 1.86 1.12h3.36c0-.5.12-.93.37-1.3.24-.37.36-.8.36-1.3-.5.5-.93.75-1.3.75s-.81.25-1.3.75v-1.49c-.5-.5-.87-.75-1.11-.75h-.37c-.75-.75-1.12-1.61-1.12-2.61h2.61c.5-.5.93-.5 1.3 0s.81.75 1.3.75c.5.5 1.12.87 1.87 1.12.74.25 1.61.13 2.61-.37h1.49c1.24-.5 2.67-.56 4.28-.19 1.62.37 2.8-.43 3.54-2.42-1.24 0-2.29.13-3.16.37-.87.25-1.81-.12-2.79-1.12.98-.49 1.67-.8 2.04-.93.37-.12.81-.43 1.3-.93h-2.61c0-.5-.25-.99-.74-1.49v3.35c-.51-.49-.94-.8-1.31-.93-.36-.12-.81-.43-1.3-.93 0-.99.25-1.86.75-2.61h-1.49c0-.99.24-1.74.74-2.24-.5.5-.93.75-1.3.75-.4-.02-.84.23-1.34.73zm-19.73 7.08c-.51.75-.44 1.3.18 1.67.62.37 1.17.32 1.68-.18.75-.75.75-1.31 0-1.68s-1.37-.31-1.86.19zm8.57 97.59v2.61h-.75c-.51 0-.75.37-.75 1.12v1.49c-1.24-.5-2.74-.75-4.47-.75l2.61 2.61v1.49c.5 0 .93.18 1.3.56.37.37.8.56 1.3.56.5.5.75 1.37.75 2.61.74.5 1.35 1 1.86 1.49 0-1.24.3-1.99.93-2.24.62-.24 1.42-.62 2.43-1.12h-.75c-2.74 0-4.47-.87-5.21-2.61l1.86-.75c.5 0 1.24.5 2.23 1.49 0-.5.19-.87.57-1.12.36-.24.8-.62 1.3-1.12h-2.61c-.75 0-1.37-.19-1.87-.56-.5-.37-.99-.56-1.49-.56 0-.25.62-.75 1.86-1.49v-1.86c.99 0 1.74.25 2.23.75v-2.61h-3.33zm.73-69.1c-.74.37-1.49.56-2.23.56h.37c.24 0 .62.25 1.12.75-.75.5-1.43 1.06-2.05 1.68-.63.62-1.3.93-2.05.93.5 0 .93.07 1.3.19.37.13.81.69 1.3 1.68 0-1.24.24-1.86.75-1.86l.37-.37c.24 0 .42-.06.56-.19.12-.12.43-.19.93-.19.5-.49.87-.93 1.12-1.3.24-.37.62-.8 1.11-1.3 0-.5-.12-.8-.37-.93-.24-.12-.36-.43-.36-.93 1.49-.75 2.61-1.86 3.34-3.35-1.24 0-2.61.87-4.09 2.61 0 .97-.37 1.65-1.12 2.02zm2.61 104.49a60.6 60.6 0 0 0-1.86 2.61c-.51.75-1 1.62-1.49 2.61-.25-.25-.44-.5-.57-.75-.12-.25-.31-.5-.56-.75l-.37-.37v.75c1.98 0 2.48 1.25 1.5 3.72 0-.75-.51-1.12-1.5-1.12 0 1-.18 1.74-.56 2.23-.37.5-.57 1.25-.57 2.24.25 0 .5-.12.75-.37.24 0 .43-.06.56-.19.13-.12.31-.19.57-.19.5-.5 1.17-.75 2.05-.75.86 0 1.55.25 2.04.75.75.5 1.12 1.37 1.12 2.61.75-1.24 1.24-1.86 1.49-1.86-.5-.99-.87-1.67-1.11-2.05-.25-.37-.37-.8-.37-1.3-1-.5-1.74-.62-2.23-.37-.51.25-1.25.37-2.23.37.49-1.24.74-2.42.74-3.54s.62-1.92 1.87-2.42c0 1.49.62 2.24 1.86 2.24-.25 0-.51-.12-.75-.37-.25-.25-.37-.62-.37-1.12v-2.61zm-4.09-71.15v3.35h5.02c1.62 0 3.04.87 4.28 2.61-.74.5-1.36.62-1.86.37s-.99-.12-1.49.37c.5 0 .8.13.93.37.12.25.42.37.93.37l2.61-2.61c-1.24-.5-1.86-.93-1.86-1.3s.24-1.05.74-2.05c-.5.5-1.11.81-1.86.93-.75.13-1.49.19-2.23.19-.51 0-1.18-.12-2.05-.37-.87-.25-1.06-.99-.56-2.24h-2.6zm2.6 177.68c0 .5-.31.75-.93.75-.63 0-1.18.25-1.68.75.99.5 1.8 1.06 2.41 1.67.62.62.94 1.55.94 2.79 0-.5.12-.87.36-1.12 0-.25.13-.5.37-.75-.5-.99-.74-2.73-.74-5.21h-.37c-.23 0-.36.38-.36 1.12zm0-124.41c-1 0-1.37.37-1.12 1.12.24.75.62.87 1.12.37.75 0 1.05-.37.93-1.12-.13-.75-.43-.87-.93-.37zm0 2.23c-1 0-1.3.44-.93 1.3.37.87.93 1.06 1.68.56.98 0 1.23-.43.74-1.3-.5-.87-.99-1.05-1.49-.56zm0-130.37c.5 1 1.17 1.3 2.05.93.86-.37 1.3-.93 1.3-1.67-.51-.5-1.06-.62-1.68-.37-.61.24-1.17.61-1.67 1.11zm.75 142.66h2.61v-2.61c-1 .01-1.87.88-2.61 2.61zm1.86-49.17c0 1.25.3 1.37.93.37.62-.98.31-1.11-.93-.37zm7.82-94.24c.5-1.24-.13-1.86-1.86-1.86 0 1.25.62 1.86 1.86 1.86zm4.11 13.79c.74-.5 1.11-.62 1.11-.37s-.06.5-.18.75c-.13.25-.31.44-.57.56-.24.12-.36-.2-.36-.94z"/><circle cx="306" cy="306" r="269.28" style="fill:none;stroke:#ed1c24;stroke-width:50;stroke-miterlimit:10"/><path d="m112.51 493.25 380.6-380.6" style="fill:none;stroke:#ed1c24;stroke-width:50;stroke-miterlimit:10"/></svg>