<svg xmlns="http://www.w3.org/2000/svg" width="739.33" height="739.33" version="1.0"><defs><filter id="a" width="1.033" height="1.123" x="-.017" y="-.062" color-interpolation-filters="sRGB"><feGaussianBlur stdDeviation="1.311"/></filter><filter id="b" width="1.033" height="1.123" x="-.017" y="-.062" color-interpolation-filters="sRGB"><feGaussianBlur stdDeviation="1.311"/></filter><filter id="c" width="1.033" height="1.123" x="-.017" y="-.062" color-interpolation-filters="sRGB"><feGaussianBlur stdDeviation="1.311"/></filter><filter id="d" width="1.033" height="1.123" x="-.017" y="-.062" color-interpolation-filters="sRGB"><feGaussianBlur stdDeviation="1.311"/></filter><path id="e" d="M439.868 193.194h122.44v78.017h-122.44z"/></defs><path fill-rule="evenodd" stroke="#000" stroke-width="2.127" d="M371.435 13.825c-54.64 2.39-226.74-3.12-226.74 46.41v586.15c0 49.53 100.33 89.405 224.97 89.405 124.63 0 224.97-39.875 224.97-89.405V60.235c0-49.53-153.4-43.972-223.19-46.41z"/><path fill="none" stroke="#000" stroke-width="1.988" d="M144.694 132.485v510.8c0 43.237 100.37 78.055 225.03 78.055s225.03-34.818 225.03-78.055v-510.8z"/><path stroke="#1d1d1d" stroke-width="14.601" d="M471 76.071c0 30.1-90.438 54.5-202 54.5s-202-24.4-202-54.5 90.438-54.5 202-54.5 202 24.4 202 54.5z" transform="matrix(1.1601 0 0 1.0759 57.598 -15.054)"/><path stroke="#1d1d1d" stroke-width="14.601" d="M471 76.071c0 30.1-90.438 54.5-202 54.5s-202-24.4-202-54.5 90.438-54.5 202-54.5 202 24.4 202 54.5z" transform="matrix(1.1601 0 0 1.0759 57.598 181.135)"/><path stroke="#1d1d1d" stroke-width="14.601" d="M471 76.071c0 30.1-90.438 54.5-202 54.5s-202-24.4-202-54.5 90.438-54.5 202-54.5 202 24.4 202 54.5z" transform="matrix(1.1601 0 0 1.0759 57.598 590.695)"/><path stroke="#1d1d1d" stroke-width="14.601" d="M471 76.071c0 30.1-90.438 54.5-202 54.5s-202-24.4-202-54.5 90.438-54.5 202-54.5 202 24.4 202 54.5z" transform="matrix(1.1601 0 0 1.0759 57.598 398.165)"/><path stroke="#cacaca" stroke-width="7.161" d="M471 76.071c0 30.1-90.438 54.5-202 54.5s-202-24.4-202-54.5 90.438-54.5 202-54.5 202 24.4 202 54.5z" filter="url(#a)" opacity=".075" transform="matrix(1.1601 0 0 1.0759 57.093 -14.284)"/><path stroke="#cacaca" stroke-width="7.161" d="M471 76.071c0 30.1-90.438 54.5-202 54.5s-202-24.4-202-54.5 90.438-54.5 202-54.5 202 24.4 202 54.5z" filter="url(#b)" opacity=".075" transform="matrix(1.1601 0 0 1.0759 57.093 181.915)"/><path d="M143.427 195.845h452.31v67.014h-452.31z"/><path stroke="#cacaca" stroke-width="7.161" d="M471 76.071c0 30.1-90.438 54.5-202 54.5s-202-24.4-202-54.5 90.438-54.5 202-54.5 202 24.4 202 54.5z" filter="url(#c)" opacity=".075" transform="matrix(1.1601 0 0 1.0759 57.093 398.935)"/><path d="M143.427 412.235h452.31v67.014h-452.31z"/><path stroke="#cacaca" stroke-width="7.161" d="M471 76.071c0 30.1-90.438 54.5-202 54.5s-202-24.4-202-54.5 90.438-54.5 202-54.5 202 24.4 202 54.5z" filter="url(#d)" opacity=".075" transform="matrix(1.1601 0 0 1.0759 57.093 590.465)"/><path d="M143.427 605.055h452.31v67.014h-452.31z"/><text xml:space="preserve" style="font-style:normal;font-weight:400;font-size:40px;line-height:1.25;font-family:sans-serif;white-space:pre;shape-inside:url(#e);fill:#000;fill-opacity:1;stroke:none" transform="translate(-3682.57 -1481.916) scale(8.65209)"><tspan x="439.867" y="228.584"><tspan style="fill:#fff">BZ</tspan></tspan></text></svg>