<svg xmlns="http://www.w3.org/2000/svg" width="1500" height="1500" viewBox="-110 -197 1500 1500"><circle fill="#fde900" stroke="#000" stroke-width="2%" r="750" cx="640" cy="553"/><path d="M307.5 7.7C245.3 46.4 193.5 91 149.3 144 56.8 254.6 5.3 389.4.4 534l-.7 20H448v-4.5c0-23.4 8.9-58.7 20.6-81.5 16-31.3 41.7-59.7 69.5-76.6l6-3.6-3.3-5.8C521.2 347.5 320.4.1 320 .1c-.3.1-5.9 3.4-12.5 7.6zm645.9 3.1c-3.3 5.9-53.3 92.7-111.2 192.9C784.3 304 736.9 386.4 736.8 386.9c-.2.5 4.3 4 9.9 7.7 37.8 25.5 65.2 63.1 77.8 106.9 3.4 11.8 6.2 28.6 7.1 41.9l.7 10.6h448l-.7-20c-6.8-198.6-102.2-378.7-263.1-496.9C1001.8 26.3 961.3-.2 959.7 0c-.1 0-2.9 4.9-6.3 10.8zM621 427.4c-47 8.5-82.4 36.6-99.5 79-15.9 39.7-11.2 82.9 13 119.7 6.3 9.5 23.9 27.1 33.5 33.4 22.4 14.8 45.2 21.8 71.5 21.8 16.5.1 23-.9 38-5.4 20.7-6.4 36.7-16.1 52.6-31.9 14.4-14.3 23.6-28.8 30.4-47.8 23.7-66.4-12.1-140.3-79-163-4.9-1.7-12.4-3.8-16.5-4.7-10.2-2.2-34.4-2.8-44-1.1zm-77.4 293.5c-1.1 2-153 265.2-184.3 319.4-20.6 35.6-37.6 65.4-37.9 66.1-.7 1.7 7.6 6.7 31.1 18.6 73.1 37 147.4 58.3 232.6 66.7 24.9 2.4 84.4 2.4 109.8-.1 84.5-8.1 159.4-29.6 232.6-66.6 23.5-11.9 31.8-16.9 31.1-18.6-.4-1.1-194.9-338.6-216.8-376.2l-6-10.3-5.3 3c-8.2 4.7-25.1 11.6-36.3 14.9-17.5 5.3-33.4 7.5-53.2 7.6-32 .1-58.8-6-86.4-19.9-5.8-2.9-10.8-5-11-4.6z"/></svg>