<svg xmlns="http://www.w3.org/2000/svg" width="32" height="32" stroke="#000" fill="#fff"><path d="M25.706 53.216c0 1.408-5.531 2.549-12.353 2.549m12.353-2.549h0c0 1.408-5.531 2.549-12.353 2.549S1.001 54.624 1.001 53.216m0 0h0c0-1.408 5.531-2.549 12.353-2.549s12.353 1.141 12.353 2.549v10.196c0 1.408-5.531 2.549-12.353 2.549S1.001 64.82 1.001 63.412V53.216z" opacity="NaN"/><path d="M24.746 44.704c0 1.516-.79 2.745-1.765 2.745m1.765-2.745h0c0 1.516-.79 2.745-1.765 2.745s-1.765-1.229-1.765-2.745m0 0h0c0-1.516.79-2.745 1.765-2.745s1.765 1.229 1.765 2.745v10.98c0 1.516-.79 2.745-1.765 2.745s-1.765-1.229-1.765-2.745v-10.98zm1.549 206.297c0 1.245-4.872 2.255-10.882 2.255m10.882-2.255h0c0 1.245-4.872 2.255-10.882 2.255s-10.882-1.01-10.882-2.255m0 0h0c0-1.245 4.872-2.255 10.882-2.255s10.882 1.01 10.882 2.255v9.02c0 1.245-4.872 2.255-10.882 2.255s-10.882-1.01-10.882-2.255v-9.02zm-42.136-295.89c0 .379-.263.686-.588.686m.588-.686h0c0 .379-.263.686-.588.686s-.588-.307-.588-.686m0 0h0c0-.379.263-.686.588-.686s.588.307.588.686v2.745c0 .379-.263.686-.588.686s-.588-.307-.588-.686v-2.745zm-38.31 112.441c0 .091-.132.166-.294.166m.294-.166h0c0 .091-.132.166-.294.166s-.294-.074-.294-.166m0 0h0c0-.091.132-.166.294-.166s.294.074.294.166v.662c0 .091-.132.166-.294.166s-.294-.074-.294-.166v-.662z" opacity="NaN"/><path d="M29.823 8.157c0 2.166-6.189 3.922-13.823 3.922m13.823-3.922h0c0 2.166-6.189 3.922-13.823 3.922S2.177 10.323 2.177 8.157m0 0h0c0-2.166 6.189-3.922 13.823-3.922s13.823 1.756 13.823 3.922v15.686c0 2.166-6.189 3.922-13.823 3.922S2.177 26.009 2.177 23.843V8.157zm124.395-80.49c0 .091-.334.166-.745.166m.745-.166h0c0 .091-.334.166-.745.166s-.745-.074-.745-.166m0 0h0c0-.091.334-.166.745-.166s.745.074.745.166v.662c0 .091-.334.166-.745.166s-.745-.074-.745-.166v-.662z"/></svg>