<?xml version="1.0" encoding="utf-8"?>
<!-- Generator: Adobe Illustrator 24.2.3, SVG Export Plug-In . SVG Version: 6.00 Build 0)  -->
<svg version="1.1" id="Layer_1" xmlns="http://www.w3.org/2000/svg" xmlns:xlink="http://www.w3.org/1999/xlink" x="0px" y="0px"
	 viewBox="0 0 74.84 74.93" style="enable-background:new 0 0 74.84 74.93;" xml:space="preserve">
<style type="text/css">
	.st0{fill:#FFFFFF;}
</style>
<circle cx="37.47" cy="37.7" r="36.84"/>
<g>
	<path class="st0" d="M18.59,18.65c2.01,0,3.57,0.63,4.67,1.88c1.11,1.25,1.66,3.01,1.66,5.26c0,2.27-0.62,4.09-1.86,5.47
		c-1.24,1.38-2.87,2.07-4.88,2.07c-2.01,0-3.55-0.62-4.62-1.85c-1.07-1.23-1.61-3.03-1.61-5.39c0-2.31,0.59-4.12,1.78-5.45
		C14.92,19.32,16.53,18.65,18.59,18.65z M18.48,21.16c-1.05,0-1.84,0.37-2.37,1.12c-0.54,0.74-0.8,1.98-0.8,3.71
		c0,1.65,0.24,2.87,0.73,3.65c0.49,0.78,1.24,1.18,2.24,1.18c1.06,0,1.87-0.38,2.42-1.16c0.56-0.77,0.83-2.03,0.83-3.77
		c0-1.64-0.25-2.83-0.76-3.59S19.5,21.16,18.48,21.16z"/>
	<path class="st0" d="M28.03,24.38l-1.61-0.4v-1.61l4.22-0.16l0.18,1.13c0.11-0.09,0.25-0.21,0.43-0.36
		c0.18-0.15,0.53-0.34,1.05-0.59c0.52-0.25,1.02-0.37,1.5-0.37c1.37,0,2.41,0.47,3.12,1.42c0.71,0.94,1.07,2.25,1.07,3.91
		c0,1.9-0.46,3.37-1.38,4.39c-0.92,1.03-2.29,1.54-4.11,1.54c-0.47,0-0.97-0.07-1.51-0.2v2.55l1.91,0.46v1.61h-6.43v-1.61l1.57-0.46
		V24.38z M30.99,25.49v5.37c0.33,0.2,0.86,0.3,1.57,0.3c0.83,0,1.42-0.28,1.78-0.85c0.35-0.57,0.53-1.44,0.53-2.6
		c0-2.21-0.67-3.32-2.01-3.32c-0.39,0-0.74,0.09-1.05,0.28c-0.31,0.19-0.52,0.38-0.64,0.56L30.99,25.49z"/>
	<path class="st0" d="M49.23,28.24l-6.67,0.06c0.05,0.83,0.3,1.47,0.73,1.93c0.44,0.46,1,0.68,1.68,0.68c0.5,0,1.03-0.08,1.59-0.23
		c0.56-0.15,1-0.31,1.31-0.47l0.48-0.24l0.86,1.61c-0.15,0.12-0.36,0.27-0.62,0.46c-0.27,0.19-0.8,0.44-1.61,0.75
		s-1.59,0.47-2.35,0.47c-1.7,0-3-0.47-3.89-1.42c-0.89-0.94-1.34-2.28-1.34-4.01c0-1.78,0.48-3.2,1.43-4.25
		c0.95-1.05,2.26-1.58,3.94-1.58c1.47,0,2.61,0.42,3.4,1.27c0.79,0.84,1.19,2,1.19,3.46L49.23,28.24z M44.56,24.36
		c-0.55,0-1,0.19-1.34,0.56c-0.34,0.38-0.55,0.88-0.63,1.51h3.62C46.21,25.05,45.66,24.36,44.56,24.36z"/>
	<path class="st0" d="M50.59,22.37l4.16-0.16l0.14,1.39c0.15-0.12,0.34-0.26,0.58-0.43c0.24-0.17,0.69-0.4,1.34-0.68
		c0.65-0.29,1.24-0.43,1.78-0.43c0.96,0,1.71,0.32,2.22,0.96c0.52,0.64,0.77,1.51,0.77,2.62v5.33c0.17,0.05,0.42,0.14,0.74,0.26
		c0.32,0.12,0.54,0.2,0.66,0.24v1.61h-5.43v-1.61l1.07-0.5v-4.87c0-0.47-0.12-0.85-0.37-1.16c-0.25-0.3-0.58-0.45-1-0.45
		c-0.38,0-0.74,0.1-1.1,0.29c-0.35,0.19-0.62,0.39-0.79,0.57l-0.26,0.28v5.33l1.05,0.5v1.61h-5.57v-1.61l1.55-0.5v-6.57l-1.55-0.4
		V22.37z"/>
	<path class="st0" d="M26.2,45.61c-0.63-0.21-1.38-0.32-2.25-0.32c-2.21,0-3.32,1.64-3.32,4.93c0,3.08,1.14,4.62,3.42,4.62
		c0.59,0,1.2-0.12,1.84-0.35c0.64-0.23,1.13-0.47,1.48-0.71l0.5-0.34l1.11,1.81c-0.05,0.05-0.13,0.13-0.24,0.23
		c-0.11,0.1-0.34,0.28-0.69,0.53s-0.73,0.48-1.12,0.66c-0.39,0.19-0.87,0.36-1.46,0.52s-1.17,0.24-1.76,0.24
		c-2.05,0-3.64-0.61-4.75-1.82s-1.68-2.98-1.68-5.3c0-2.35,0.61-4.19,1.83-5.53c1.22-1.34,2.87-2.01,4.95-2.01
		c0.72,0,1.47,0.08,2.25,0.23c0.78,0.15,1.37,0.31,1.79,0.47l0.64,0.24l-0.1,3.82h-1.97L26.2,45.61z"/>
	<path class="st0" d="M30.28,46.5l4.56-0.16v8.75l1.41,0.5v1.61h-5.97v-1.61l1.61-0.5v-6.57l-1.61-0.4V46.5z M31.5,43.02
		c0-0.55,0.17-0.99,0.51-1.32s0.75-0.49,1.22-0.49c1.13,0,1.69,0.6,1.69,1.81c0,0.56-0.17,1.01-0.51,1.34s-0.73,0.49-1.18,0.49
		c-0.55,0-0.98-0.16-1.28-0.47C31.65,44.06,31.5,43.61,31.5,43.02z"/>
	<path class="st0" d="M41.9,57.39c-1.11,0-1.88-0.36-2.29-1.08c-0.42-0.72-0.62-1.97-0.62-3.75v-3.76h-1.87V46.9l1.87-0.26v-2.77
		l2.96-0.54v3.32h2.81v2.17h-2.81v4.54c0,0.67,0.07,1.14,0.22,1.41s0.43,0.4,0.84,0.4c0.48,0,1.01-0.15,1.59-0.46l0.72,1.45
		C44.14,56.98,43,57.39,41.9,57.39z"/>
	<path class="st0" d="M50.4,57.21l-3.58-8.85l-1.07-0.32v-1.61l5.37-0.1v1.71L50,48.25l1.79,5.63l1.71-5.57l-1.17-0.26v-1.61
		l5.41-0.1v1.71l-1.25,0.26l-2.96,8.24c-0.29,0.79-0.57,1.46-0.83,2c-0.26,0.54-0.61,1.11-1.04,1.69c-0.43,0.58-0.94,1.03-1.55,1.33
		c-0.6,0.3-1.29,0.45-2.05,0.45l-1.95-0.16l0.28-2.15h1.31c0.38,0,0.72-0.08,1.04-0.25s0.58-0.41,0.8-0.72s0.39-0.57,0.49-0.77
		C50.15,57.76,50.27,57.51,50.4,57.21z"/>
</g>
</svg>
