<svg xmlns="http://www.w3.org/2000/svg" width="192" height="192" viewBox="0 0 50.8 50.8">
    <g stroke-width=".26" transform="matrix(3.90756 0 0 3.9077 -307.125 -146.97)">
        <circle class="color-main color-lime" fill="#79a242" fill-rule="evenodd" cx="85.098" cy="44.11" r="6.5"/>
        <path class="color-white" fill="#fff" d="M84.338 41.162v.714c-.001.875-.103 1.333-.44 1.978-.358.685-.813 1.144-1.598 1.615l-.648.388.145.25c.08.136.234.406.342.598.105.187.213.337.247.346-.01.024.049-.018.07-.026l-.002-.003.54-.31c.759-.437 1.206-.578 1.933-.609.772-.032 1.397.132 2.197.577 0 0 .442.247.66.366.029.016.044-.036.07-.066.036-.05.208-.317.379-.609l.31-.532-.591-.345c-1.004-.586-1.613-1.28-1.942-2.21-.132-.374-.165-.595-.19-1.287l-.032-.835h-.725zm.585 1.758h.35v1.292h.653l-.32.555 1.123.65-.18.312-1.123-.649-.324.563-.327-.564-1.134.654-.175-.303 1.133-.655-.325-.56.649-.002z"/>
    </g>
</svg>
