<svg xmlns="http://www.w3.org/2000/svg" width="192" height="192" viewBox="0 0 50.8 50.8">
    <g fill-rule="evenodd" stroke-width=".26" transform="translate(-368.241 -50.441) scale(3.90769)">
        <circle class="color-main color-turquoise" fill="#01a89e" cx="100.735" cy="19.408" r="6.5"/>
        <g class="color-white" fill="#fff">
            <path d="M99.07 15.448a4.304 4.304 0 00-2.635 3.966c0 .183.016.362.038.54l.26-.039a4.06 4.06 0 01-.034-.501c0-.675.167-1.31.46-1.868l.393.227a3.558 3.558 0 00-.37 2.078l.262-.037a3.303 3.303 0 01.338-1.908l.204.118a.1.1 0 00.137-.037l.05-.086a.1.1 0 00-.037-.137l-.205-.119a3.329 3.329 0 011.5-1.28l-.097-.246a3.605 3.605 0 00-1.632 1.394l-.393-.226a4.052 4.052 0 011.858-1.591zm3.338.004l-.1.248a4.052 4.052 0 011.852 1.587l-.394.227a3.605 3.605 0 00-1.626-1.393l-.099.246a3.332 3.332 0 011.498 1.278l-.206.12a.1.1 0 00-.037.136l.05.086a.1.1 0 00.137.037l.205-.118a3.3 3.3 0 01.338 1.909l.26.038c.018-.144.03-.29.03-.44 0-.59-.146-1.147-.4-1.64l.394-.227a4.02 4.02 0 01.46 1.868c0 .172-.015.34-.036.507l.262.039c.023-.18.039-.36.039-.546a4.305 4.305 0 00-2.627-3.962zm.326 6.603a3.307 3.307 0 01-1.843.667v-.25a.1.1 0 00-.1-.1h-.1a.1.1 0 00-.1.1v.25a3.303 3.303 0 01-1.854-.666l-.164.206a3.574 3.574 0 002.018.727v.453a4.019 4.019 0 01-2.3-.825l-.166.208a4.272 4.272 0 005.215.003l-.164-.209c-.64.486-1.427.79-2.285.822v-.453a3.566 3.566 0 002.005-.726z" color="#000" font-family="sans-serif" font-weight="400" overflow="visible" style="line-height:normal;font-variant-ligatures:normal;font-variant-position:normal;font-variant-caps:normal;font-variant-numeric:normal;font-variant-alternates:normal;font-feature-settings:normal;text-indent:0;text-align:start;text-decoration-line:none;text-decoration-style:solid;text-decoration-color:#000;text-transform:none;text-orientation:mixed;white-space:normal;shape-padding:0;isolation:auto;mix-blend-mode:normal;solid-color:#000;solid-opacity:1"/>
            <path d="M100.728 15.102c-.292.002-.873.093-.873.093s-.01.032.002.037c.296.16.746.425.746.425v.661h-.255a.1.1 0 00-.1.1v.262a.1.1 0 00.1.1h.76a.1.1 0 00.101-.1v-.262a.1.1 0 00-.1-.1h-.23v-.661h-.013s.475-.274.73-.431c.012-.008.006-.043.006-.043s-.581-.083-.873-.081zm-3.76 6.47c-.145-.254-.357-.803-.357-.803s.023-.023.034-.017c.286.177.74.435.74.435l.573-.33-.128-.222a.1.1 0 01.037-.137l.227-.13a.1.1 0 01.137.036l.38.659a.1.1 0 01-.037.137l-.226.13a.1.1 0 01-.137-.036l-.115-.2-.573.331-.006-.01s0 .547-.009.846c0 .015-.034.028-.034.028s-.362-.462-.507-.716zm7.53 0c.144-.254.356-.803.356-.803s-.023-.023-.034-.017c-.286.177-.74.435-.74.435l-.573-.33.128-.222a.1.1 0 00-.037-.137l-.227-.13a.1.1 0 00-.137.036l-.38.659a.1.1 0 00.037.137l.226.13a.1.1 0 00.137-.036l.115-.2.573.331.006-.01s0 .547.009.846c0 .015.034.028.034.028s.362-.462.507-.716zm-4.837-4.41v.267h.94v.329h-1.733v1.467h.267v-1.2h1.466v3.497h.002l-.002.007c0 .074.09.134.2.134h1.058v-.267h-.99v-3.371h1.466v1.2h.267v-1.467h-1.733v-.33h.94v-.266H100.6zm-.116 1.174v.266h.653v-.266zm1.72 0v.266h.654v-.266zm-1.72.595v.267h.653v-.267zm1.72 0v.267h.654v-.267zm-2.19.732c-.11 0-.2.06-.2.133 0 .009.006.016.009.025h-.008v1.12h.002l-.002.006c0 .074.09.134.2.134h1.06v-.267h-.993v-.291h.993v-.267h-.993v-.327h.993v-.266h-.993zm2.258 0v.266h.993v.327h-.993v.267h.993v.291h-.993v.267h1.06c.11 0 .2-.06.2-.134l-.002-.006h.002v-1.12h-.008c.003-.009.008-.016.008-.025 0-.074-.09-.133-.2-.133h-.067z"/>
        </g>
    </g>
</svg>
