<svg id="Layer_1" data-name="Layer 1" xmlns="http://www.w3.org/2000/svg" width="114.93" height="77.31" viewBox="0 0 114.93 77.31">
  <defs>
    <style>
      .cls-1 {
        fill: #fff;
        stroke: #231f20;
        stroke-miterlimit: 10;
        stroke-width: 2.31px;
      }
    </style>
  </defs>
  <rect class="cls-1" x="1.15" y="1.15" width="112.62" height="75"/>
  <g>
    <path d="M8.93,46.77V40.19H22.31V26.91h6.48V40.19H42.17v6.58H28.79V60.15H22.31V46.77Z"/>
    <path d="M44.88,58.68q10.2-11,13.28-15.37,4.74-6.54,4.74-11.6a9.59,9.59,0,0,0-1.82-5.59,6.43,6.43,0,0,0-5.66-2.61,7.66,7.66,0,0,0-5.68,2.34,11.74,11.74,0,0,0-2.21,3.43H45.78q2.13-6.64,5.87-9.83a12.62,12.62,0,0,1,8.41-3.2,12.13,12.13,0,0,1,8,3.07q3.61,3.08,3.61,9A13.78,13.78,0,0,1,70,34.74a28.51,28.51,0,0,1-5.72,7.11l-9.73,9.29v.53h9.08q4.74,0,6.19-.78c1-.52,1.93-1.92,2.91-4.18h1.53L71.41,60.15H44.88Z"/>
    <path d="M82.29,21.24q4-5,9.29-5,6,0,10.2,6.15Q106,28.7,106,38.24q0,11.26-4.77,17.54-4,5.27-9.61,5.27a10.12,10.12,0,0,1-6.7-2.31,19.83,19.83,0,0,1-4.74-6A22.89,22.89,0,0,1,77.8,45.7,58.37,58.37,0,0,1,77.18,39Q77.18,27.51,82.29,21.24Zm6.08,35.3q1.09,2.73,3.31,2.73c1.84,0,3.09-1.68,3.74-5.06A47.48,47.48,0,0,0,96,46V31.36c0-5.18-.37-8.69-1.11-10.51S93,18.12,91.61,18.12s-2.52.92-3.27,2.76-1.12,5.34-1.12,10.48V46Q87.28,53.82,88.37,56.54Z"/>
  </g>
</svg>
