<svg data-name="Layer 1" xmlns="http://www.w3.org/2000/svg" width="114.93" height="77.31"><path fill="#fff" stroke="#231f20" stroke-miterlimit="10" stroke-width="2.31" d="M1.15 1.15h112.62v75H1.15z"/><path d="M8.93 46.77v-6.58h13.38V26.91h6.48v13.28h13.38v6.58H28.79v13.38h-6.48V46.77zM44.88 58.68q10.2-11 13.28-15.37 4.74-6.54 4.74-11.6a9.59 9.59 0 00-1.82-5.59 6.43 6.43 0 00-5.66-2.61 7.66 7.66 0 00-5.68 2.34 11.74 11.74 0 00-2.21 3.43h-1.75q2.13-6.64 5.87-9.83a12.62 12.62 0 018.41-3.2 12.13 12.13 0 018 3.07q3.61 3.08 3.61 9A13.78 13.78 0 0170 34.74a28.51 28.51 0 01-5.72 7.11l-9.73 9.29v.53h9.08q4.74 0 6.19-.78c1-.52 1.93-1.92 2.91-4.18h1.53l-2.85 13.44H44.88zM82.29 21.24q4-5 9.29-5 6 0 10.2 6.15Q106 28.7 106 38.24q0 11.26-4.77 17.54-4 5.27-9.61 5.27a10.12 10.12 0 01-6.7-2.31 19.83 19.83 0 01-4.74-6 22.89 22.89 0 01-2.38-7.04 58.37 58.37 0 01-.62-6.7q0-11.49 5.11-17.76zm6.08 35.3q1.09 2.73 3.31 2.73c1.84 0 3.09-1.68 3.74-5.06A47.48 47.48 0 0096 46V31.36c0-5.18-.37-8.69-1.11-10.51s-1.89-2.73-3.28-2.73-2.52.92-3.27 2.76-1.12 5.34-1.12 10.48V46q.06 7.82 1.15 10.54z"/></svg>