<svg id="Layer_1" data-name="Layer 1" xmlns="http://www.w3.org/2000/svg" width="114.93" height="77.31" viewBox="0 0 114.93 77.31">
  <defs>
    <style>
      .cls-1 {
        fill: #fff;
        stroke: #231f20;
        stroke-miterlimit: 10;
        stroke-width: 2.31px;
      }
    </style>
  </defs>
  <rect class="cls-1" x="1.01" y="1.15" width="112.62" height="75"/>
  <g>
    <path d="M8.79,46.74V40.16H22.17V26.88h6.48V40.16H42v6.58H28.65V60.11H22.17V46.74Z"/>
    <path d="M54.79,54.71c2.05,2.08,3.74,3.13,5.07,3.13,2.29,0,3.92-.77,4.91-2.32a9.6,9.6,0,0,0,1.48-5.29,10.7,10.7,0,0,0-4.58-8.91,33.65,33.65,0,0,0-8.29-4v-1a21.48,21.48,0,0,0,5.51-2.59,6.91,6.91,0,0,0,2.84-5.83,6.08,6.08,0,0,0-1.92-4.85,7.51,7.51,0,0,0-9.83.33,16.19,16.19,0,0,0-2.65,3.33L46,26a17.89,17.89,0,0,1,4.27-5.68,15,15,0,0,1,10.35-4,11.39,11.39,0,0,1,7.11,2.31,8.15,8.15,0,0,1,3.33,6,9.44,9.44,0,0,1-1.17,4.72,8.74,8.74,0,0,1-3.78,3.41v.47a10.87,10.87,0,0,1,5.61,4.6,12.77,12.77,0,0,1,1.78,6.47A15.24,15.24,0,0,1,68.18,56q-5.51,5.09-14,5.08a13.71,13.71,0,0,1-6.86-1.56,4.64,4.64,0,0,1-2.74-4.11,4.1,4.1,0,0,1,1-2.61,3.88,3.88,0,0,1,3.22-1.23Q51.73,51.57,54.79,54.71Z"/>
    <path d="M82.15,21.21q4-5,9.29-5,6,0,10.2,6.14,4.2,6.32,4.21,15.85,0,11.26-4.77,17.54Q97,61,91.47,61a10.12,10.12,0,0,1-6.7-2.31,19.83,19.83,0,0,1-4.74-6,22.89,22.89,0,0,1-2.37-7.08A58.6,58.6,0,0,1,77,38.93Q77,27.49,82.15,21.21Zm6.08,35.3q1.09,2.73,3.31,2.73c1.84,0,3.09-1.68,3.74-5.06A47.56,47.56,0,0,0,95.81,46V31.33q0-7.78-1.11-10.51C94,19,92.89,18.09,91.47,18.09S89,19,88.2,20.85s-1.12,5.34-1.12,10.48V46Q87.14,53.79,88.23,56.51Z"/>
  </g>
</svg>
