<svg data-name="Layer 1" xmlns="http://www.w3.org/2000/svg" width="114.93" height="77.31"><path fill="#fff" stroke="#231f20" stroke-miterlimit="10" stroke-width="2.31" d="M1.01 1.15h112.62v75H1.01z"/><path d="M8.79 46.74v-6.58h13.38V26.88h6.48v13.28H42v6.58H28.65v13.37h-6.48V46.74zm46 7.97c2.05 2.08 3.74 3.13 5.07 3.13 2.29 0 3.92-.77 4.91-2.32a9.6 9.6 0 001.48-5.29 10.7 10.7 0 00-4.58-8.91 33.65 33.65 0 00-8.29-4v-1a21.48 21.48 0 005.51-2.59 6.91 6.91 0 002.84-5.83 6.08 6.08 0 00-1.92-4.85 7.51 7.51 0 00-9.83.33 16.19 16.19 0 00-2.65 3.33L46 26a17.89 17.89 0 014.27-5.68 15 15 0 0110.35-4 11.39 11.39 0 017.11 2.31 8.15 8.15 0 013.33 6 9.44 9.44 0 01-1.17 4.72 8.74 8.74 0 01-3.78 3.41v.47a10.87 10.87 0 015.61 4.6 12.77 12.77 0 011.78 6.47A15.24 15.24 0 0168.18 56q-5.51 5.09-14 5.08a13.71 13.71 0 01-6.86-1.56 4.64 4.64 0 01-2.74-4.11 4.1 4.1 0 011-2.61 3.88 3.88 0 013.22-1.23q2.93 0 5.99 3.14zm27.36-33.5q4-5 9.29-5 6 0 10.2 6.14 4.2 6.32 4.21 15.85 0 11.26-4.77 17.54Q97 61 91.47 61a10.12 10.12 0 01-6.7-2.31 19.83 19.83 0 01-4.74-6 22.89 22.89 0 01-2.37-7.08 58.6 58.6 0 01-.66-6.68q0-11.44 5.15-17.72zm6.08 35.3q1.09 2.73 3.31 2.73c1.84 0 3.09-1.68 3.74-5.06a47.56 47.56 0 00.53-8.18V31.33q0-7.78-1.11-10.51c-.7-1.82-1.81-2.73-3.23-2.73S89 19 88.2 20.85s-1.12 5.34-1.12 10.48V46q.06 7.79 1.15 10.51z"/></svg>