<svg id="Layer_1" data-name="Layer 1" xmlns="http://www.w3.org/2000/svg" width="114.93" height="77.31" viewBox="0 0 114.93 77.31">
  <defs>
    <style>
      .cls-1 {
        fill: #fff;
        stroke: #231f20;
        stroke-miterlimit: 10;
        stroke-width: 2.31px;
      }
    </style>
  </defs>
  <rect class="cls-1" x="1.31" y="1.15" width="112.62" height="75"/>
  <g>
    <path d="M9.1,46.77V40.19H22.47V26.91H29V40.19H42.33v6.58H29V60.15H22.47V46.77Z"/>
    <path d="M46.42,52.32a3.73,3.73,0,0,1,2.86-1.12q2.31,0,6.21,2.79c2.6,1.86,4.61,2.79,6,2.79A6.05,6.05,0,0,0,65.9,55a6.34,6.34,0,0,0,1.84-4.8A7.26,7.26,0,0,0,65.65,45a15.32,15.32,0,0,0-4.71-3.33,25.22,25.22,0,0,0-6.36-1.87c-1.53-.25-4-.49-7.39-.72L53.4,17H74L71.2,25.13H53.51l-1.46,5.18a34.29,34.29,0,0,1,12,2.15q8.67,3.61,8.67,12.85a13.84,13.84,0,0,1-5.18,11.08,19.51,19.51,0,0,1-13,4.35A12.76,12.76,0,0,1,48,59.18a4.65,4.65,0,0,1-2.63-4.12A3.83,3.83,0,0,1,46.42,52.32Z"/>
    <path d="M82.45,21.24c2.71-3.33,5.8-5,9.3-5q6,0,10.19,6.15,4.22,6.3,4.21,15.84,0,11.26-4.77,17.54-4,5.27-9.6,5.27a10.15,10.15,0,0,1-6.71-2.31,19.83,19.83,0,0,1-4.74-6A22.62,22.62,0,0,1,78,45.7,60.26,60.26,0,0,1,77.34,39Q77.34,27.51,82.45,21.24Zm6.08,35.3q1.09,2.73,3.31,2.73c1.85,0,3.1-1.68,3.74-5.06A47.48,47.48,0,0,0,96.11,46V31.36c0-5.18-.37-8.69-1.11-10.51s-1.81-2.73-3.22-2.73-2.53.92-3.28,2.76-1.12,5.34-1.12,10.48V46C87.42,51.21,87.81,54.72,88.53,56.54Z"/>
  </g>
</svg>
