<svg xmlns="http://www.w3.org/2000/svg" viewBox="-16 -16 32 32" height="32" width="32"><circle r="15" stroke="#000" fill="#fff"/><path d="M 12.775444,1.0486538 C 12.582644,0.99303126 12.606266,0.94260689 12.568309,0.8916573 12.400762,0.66711468 12.254013,0.83716898 11.844318,0.26087249 11.272365,-0.54433908 11.504649,-0.34184603 11.368707,-0.80891857 11.25298,-1.2063418 10.959289,-1.702014 11.084315,-1.9226592 c 0.06836,-0.1201036 0.194448,-0.1672689 0.36857,-0.4530646 0.115468,-0.1895374 0.126334,-0.2571353 0.533879,-1.6896025 0.02095,-0.073648 0.06066,-0.1772018 0.03882,-0.2546687 -0.02802,-0.099132 -0.199702,0.093709 -0.220529,0.1133466 -0.305327,0.2863434 -0.399422,0.2405093 -0.972675,0.8250666 -0.05877,0.060029 -0.175043,0.2521936 -0.273666,0.2383836 -0.167618,-0.023495 -0.01425,-0.5762754 -0.178232,-0.5516871 -0.101029,0.015045 -0.06072,0.080698 -0.3821525,0.3429659 -0.145341,0.1186714 -0.249726,0.2522964 -0.375678,0.3879855 -0.09376,0.1010897 -0.2057706,-0.00606 -0.3011909,-0.054711 -0.391684,-0.199598 -0.7293903,-0.4945522 -1.1350709,-0.6695886 -3.5294665,-1.5228989 -4.8064349,-1.5745714 -8.19714598,-1.7428209 -1.87889652,-0.093242 -4.65285262,0.1182466 -5.75347682,0.2617849 -2.8105228,0.3665543 -3.3343235,1.2884876 -3.5297766,1.464358 -0.07576,0.068165 -0.1702763,0.074407 -0.2653564,0.092761 -1.3439339,0.2596826 -2.2129589,0.3472675 -2.4823369,-0.862865 0.438254,0.08872 1.025237,-0.1342969 1.196393,-0.4115526 0.141491,-0.2292041 0.139245,-0.63164 -0.04597,-0.8416097 -0.19791,-0.2242833 -0.538026,-0.076571 -0.761684,0.01605 -0.200553,0.083038 -0.403331,0.2010788 -0.538339,0.3750319 0.0022,-0.00341 -0.0052,0.00759 -0.0053,0.00777 -0.12919,0.1686825 -0.198964,0.3526805 -0.223025,0.543755 -0.297305,-0.2395389 -0.576744,-1.2809578 -0.642137,-1.6588456 0.02919,0.259961 0.228751,1.4807667 0.632614,1.7927093 -0.0049,0.3098591 0.09751,0.6329085 0.254287,0.935527 0.185045,0.3537129 0.382825,0.4938779 0.762368,0.6174575 0.459423,0.156368 0.982052,0.2002738 1.5544183,0.093293 -1.3058543,1.3464401 -0.3932983,3.83167104 0.4792899,5.5118256 0.3477244,0.6691415 0.1007491,0.8388549 -0.030665,1.1232802 -0.2659237,0.5759129 0.5236565,1.169671 0.3659578,2.4160047 -0.088649,0.7013004 -0.070434,0.6231221 0.1153124,1.0711844 0.1113829,0.2684074 0.2209585,0.1319354 0.2455459,0.1168768 0.081639,-0.050131 0.2002306,0.1877221 0.2182249,0.2399209 0.058629,0.1703946 0.1256824,0.1754475 0.3048432,0.1948376 0.2583207,0.02797 0.8802332,0.00315 0.9704742,-0.1141796 0.073953,-0.096232 -0.1517353,-0.3418304 -0.1976918,-0.4254765 0.2028092,0 0.8107937,-0.019785 0.7322432,-0.2013348 -0.1925865,-0.4441787 -0.5723382,-0.52241 -0.6148379,-1.6960624 -0.034463,-0.9498423 0.2418422,-1.7534551 0.7305926,-2.3836198 0.073217,-0.094489 0.1427693,-0.2001097 0.2338769,-0.2782983 0.1072204,-0.091798 0.3815468,0.058596 0.5024939,0.089837 0.2708041,0.070087 2.8053845,0.4988386 2.8168067,0.5005608 0.1942556,0.029366 1.2748426,0.082846 1.3955834,0.07881 0.2088766,-0.007 0.198569,-0.019288 1.44666769,-0.2067028 C 1.6160839,2.7681055 1.0040653,2.9060843 2.5394876,2.3679696 2.6973003,2.3127279 2.7441235,2.2374175 2.9371205,2.567873 c 0.2006116,0.3434193 0.4563107,0.9981518 0.5080134,1.2371439 0.042492,0.1964889 0.064054,0.3998986 0.09561,0.5984595 0.02692,0.1697767 0.1525512,0.312324 0.2061834,0.4739623 0.1885399,0.5685193 -0.2446278,1.187566 0.2069161,1.7676254 0.051262,0.06581 0.1028473,0.071791 0.1721647,0.1052128 0.1414695,0.067846 0.1860947,0.4113054 0.3931964,0.4314677 0.2034081,0.02002 0.1727838,0.216807 0.3090326,0.320265 0.1980524,0.1504908 0.5884626,0.064156 0.8188828,0.047445 C 5.7331559,7.5432646 6.04528,7.5278006 6.0741598,7.4218591 6.1002799,7.3261411 5.951753,7.125416 5.8918266,7.0646574 5.6134269,6.7828561 5.506977,6.3393305 5.4315737,5.9576885 5.3451398,5.5202386 5.4052726,5.1010522 5.4326033,4.6613427 5.4832849,3.8322342 5.4951516,4.0055479 5.6420983,3.3761258 5.7303788,2.9981961 5.7349284,2.581898 5.9970151,2.2757527 6.1555498,2.0906709 6.3309654,2.1623105 7.0904996,2.2808296 9.3258595,2.6289021 8.0725294,2.6145852 9.7983275,2.588409 10.012672,2.585279 10.224338,2.539104 10.438565,2.540963 c 1.253322,0.011211 2.235867,0.2280496 2.426132,-0.1909194 0.06343,-0.1395565 0.246336,-0.011559 0.291705,-0.1611126 0.06634,-0.2196851 0.06165,-0.7835003 0.184631,-0.9749463 -0.01951,-0.21898304 -0.310651,-0.091493 -0.565351,-0.1653094 z m -23.874953,-6.6349404 c 0,3.093e-4 0,4.126e-4 0.0011,5.167e-4 10e-4,4.129e-4 10e-4,0.00105 0.0014,0.00171 -0.0015,-8.26e-4 -0.0027,-0.00189 -0.0026,-0.002 0,-2.09e-5 0,-1.031e-4 0,-2.063e-4 z m 0.0053,0.00332 c -0.001,-1.027e-4 -0.0018,-6.188e-4 -0.0026,-0.00105 z m -0.472381,0.1481168 c 0.159087,-0.082552 0.441778,-0.2251818 0.561641,-0.012962 0.286225,0.5067697 -0.482063,0.9208387 -1.046584,0.8324802 -0.01684,-0.00265 -0.02253,-0.00759 -0.02308,-0.026904 -0.0021,-0.1052873 0.01989,-0.2319783 0.05609,-0.3311662 0.07636,-0.2081639 0.2565,-0.3601487 0.451757,-0.4614511 z" style="opacity:1;stroke-width:0.0103142" /></svg>
