<svg xmlns="http://www.w3.org/2000/svg" viewBox="-16 -16 32 32" height="32" width="32"><circle r="15" stroke="#000" fill="#0efffd"/><text y="-2.102" x="-10.161" style="line-height:1.25;-inkscape-font-specification:'lato Bold'" font-weight="700" font-size="12" font-family="lato" letter-spacing="0" word-spacing="0" id="text68"><tspan y="-2.102" x="-6.008" id="tspan66">20</tspan></text><path d="M 11.19089,5.6742379 C 11.023653,5.6259898 11.044148,5.582251 11.011221,5.5380565 10.865884,5.3432847 10.738599,5.4907925 10.383226,4.9909038 9.8871076,4.2924505 10.088587,4.4680962 9.9706727,4.0629501 9.8702905,3.7182186 9.6155414,3.288265 9.7239873,3.0968738 9.783263,2.992694 9.8926568,2.951782 10.043686,2.7038782 10.143852,2.5394705 10.153277,2.480835 10.506779,1.2382905 c 0.01816,-0.063882 0.05261,-0.1537082 0.03363,-0.2209043 -0.02424,-0.085987 -0.173215,0.081283 -0.191285,0.09832 C 10.084283,1.364085 10.00266,1.3243277 9.5054137,1.8313821 9.4544051,1.8834605 9.3535791,2.0501388 9.2680361,2.0381598 9.1226454,2.0177794 9.2556399,1.5382895 9.1134358,1.5596178 9.0257867,1.5726683 9.060765,1.6296097 8.7819504,1.8571118 8.6558827,1.9600493 8.565337,2.0759578 8.4560856,2.1936567 8.3747496,2.2813412 8.2775982,2.1883516 8.1948298,2.1461938 7.8551106,1.9730627 7.5621807,1.7172146 7.2102893,1.5653853 4.1487954,0.24439868 3.0411404,0.19957678 0.10000448,0.05363438 c -1.62977298,-0.080885 -4.03592998,0.1025697 -4.99062238,0.2270768 -2.437875,0.31795499 -2.8922249,1.11765452 -3.0617627,1.27020712 -0.065713,0.059134 -0.1476992,0.064536 -0.2301723,0.080469 -1.1657405,0.2252527 -1.9195431,0.3012253 -2.1532061,-0.74846293 0.3801461,0.076959 0.8893036,-0.1164912 1.0377646,-0.3569872 0.12273,-0.19881569 0.120787,-0.54789479 -0.03993,-0.73002509 -0.171676,-0.1945477 -0.466691,-0.06642 -0.6606975,0.013917 -0.1739591,0.072026 -0.3498511,0.1744184 -0.4669601,0.3253087 0.0023,-0.00301 -0.0054,0.00654 -0.0055,0.00672 -0.112053,0.1463182 -0.17258,0.30592119 -0.193451,0.47166219 -0.257882,-0.2077804 -0.500281,-1.11112299 -0.556996,-1.43890919 0.02534,0.2254941 0.198419,1.28444069 0.548735,1.55502459 -0.005,0.2687767 0.08455,0.54899473 0.22057,0.81149103 0.160507,0.306816 0.332067,0.4283974 0.6612876,0.5355923 0.398503,0.1356363 0.851841,0.1737207 1.348317,0.080929 -1.132714,1.1679238 -0.341151,3.3236524 0.4157408,4.7810452 0.3016196,0.5804238 0.087384,0.7276359 -0.026605,0.9743509 -0.2306648,0.4995563 0.4542244,1.0145914 0.3174351,2.0956812 -0.076889,0.608319 -0.061088,0.540506 0.1000232,0.929162 0.096614,0.232821 0.1916617,0.114443 0.2129891,0.101381 0.070823,-0.04348 0.1736819,0.162833 0.1892904,0.208111 0.050858,0.147803 0.109018,0.152186 0.2644239,0.169005 0.2240697,0.02426 0.7635231,0.0028 0.8417987,-0.09904 0.064153,-0.08347 -0.1316169,-0.296509 -0.1714797,-0.369065 0.1759188,0 0.7032904,-0.01716 0.635155,-0.174641 -0.1669331,-0.385285 -0.4963335,-0.453144 -0.533198,-1.471189 -0.029892,-0.823908 0.2097762,-1.5209746 0.633723,-2.0675894 0.063517,-0.081958 0.1238395,-0.1735784 0.2028669,-0.2414006 0.093007,-0.079622 0.3309576,0.050825 0.4358681,0.077932 0.2348985,0.060799 2.4334183,0.4327007 2.4433258,0.4341944 0.1684994,0.02548 1.1058113,0.071858 1.2105427,0.06836 0.1812171,-0.00599 0.1722762,-0.01673 1.25488938,-0.1792948 C 1.5111535,7.1657175 0.98028254,7.2854025 2.3121229,6.8186332 2.4490113,6.7707162 2.4896258,6.7053903 2.6570333,6.9920326 c 0.1740125,0.2978878 0.3958084,0.865813 0.4406562,1.0731182 0.036855,0.1704379 0.055552,0.3468785 0.082939,0.5191135 0.02335,0.1472667 0.132324,0.2709147 0.1788455,0.4111225 0.1635411,0.4931426 -0.2121928,1.0301132 0.1794808,1.5332662 0.044472,0.05709 0.089203,0.06227 0.1493376,0.09126 0.1227119,0.05885 0.1614201,0.356773 0.3410621,0.374262 0.1764379,0.01736 0.1498746,0.188062 0.2680578,0.277803 0.1717929,0.130538 0.5104384,0.05565 0.7103071,0.04115 0.074624,-0.0054 0.3453669,-0.01878 0.3704176,-0.110675 C 5.4007891,11.11943 5.2719556,10.945318 5.2199747,10.892615 4.9784882,10.648176 4.8861523,10.263455 4.8207466,9.9324124 4.7457732,9.5529614 4.7979329,9.1893524 4.8216397,8.8079416 4.8656012,8.0887599 4.875894,8.2390945 5.003358,7.6931242 5.0799335,7.3653018 5.0838797,7.0041983 5.3112159,6.7386429 5.4487308,6.5781 5.6008877,6.6402419 6.2597151,6.7430329 c 1.9389732,0.3019233 0.8518226,0.2895053 2.3487975,0.2667994 0.1859243,-0.00278 0.369522,-0.042764 0.5553482,-0.041153 1.0871422,0.00974 1.9394112,0.1978138 2.1044482,-0.1656067 0.05503,-0.1210535 0.213669,-0.01002 0.253021,-0.1397515 0.0576,-0.1905582 0.05355,-0.6796207 0.160159,-0.8456839 -0.01701,-0.1899496 -0.269454,-0.079363 -0.490391,-0.1433923 z M -9.5184764,-0.08101442 c 0,2.679e-4 0,3.572e-4 0.0011,4.474e-4 8.84e-4,3.581e-4 8.84e-4,9.726e-4 0.0014,0.00141 -0.0015,-7.162e-4 -0.0028,-0.00159 -0.0027,-0.00168 0,-1.77e-5 0,-8.93e-5 0,-1.786e-4 z m 0.0055,0.00292 c -8.84e-4,-8.93e-5 -0.0019,-5.367e-4 -0.0027,-9.726e-4 z m -0.409744,0.1284789 c 0.13799,-0.071601 0.383199,-0.1953266 0.487169,-0.011247 0.248279,0.43957969 -0.418147,0.79874999 -0.9078126,0.72210629 -0.01472,-0.0023 -0.01954,-0.00654 -0.01996,-0.023334 -0.0022,-0.091325 0.01721,-0.2012215 0.04874,-0.2872587 0.0662,-0.18056439 0.222495,-0.31239879 0.3918616,-0.40026979 z" style="opacity:1;stroke-width:0.00894643" /></svg>
