<svg id="Layer_1" data-name="Layer 1" xmlns="http://www.w3.org/2000/svg" width="114.93" height="77.31" viewBox="0 0 114.93 77.31">
  <defs>
    <style>
      .cls-1 {
        fill: #fff;
        stroke: #231f20;
        stroke-miterlimit: 10;
        stroke-width: 2.31px;
      }
    </style>
  </defs>
  <rect class="cls-1" x="1.15" y="1.15" width="112.62" height="75"/>
  <g>
    <path d="M18.92,82.3a11.64,11.64,0,0,0,4.63-.78c1.53-.79,2.3-2.3,2.29-4.55V40.3c0-2.23-.73-3.73-2.18-4.48A12.39,12.39,0,0,0,18.92,35V33H45.43V35a13.54,13.54,0,0,0-4.89.81q-2.22,1.14-2.22,4.52V77q0,3.18,1.78,4.25a10.43,10.43,0,0,0,5.33,1v2H18.92Z" transform="translate(-1.14 -20.38)"/>
    <path d="M86.11,33.82a41.15,41.15,0,0,0,5.41,1.76,2.81,2.81,0,0,0,2.27-1.11,5.46,5.46,0,0,0,1.1-2.33H97V49.9H95.07a42,42,0,0,0-5.58-9.11q-5.34-6.13-12.06-6.14-7.62,0-10.82,6.57T63.42,58.86A40.52,40.52,0,0,0,65.3,72.3q3.51,9.86,13.06,9.85a19.58,19.58,0,0,0,10.87-3.26,40.83,40.83,0,0,0,6.8-6l2.26,1.85a42.9,42.9,0,0,1-7.81,7.18,23.71,23.71,0,0,1-13.33,4q-11.22,0-18.8-6.66-8.41-7.37-8.41-19.85t8-20a25.79,25.79,0,0,1,18.51-7.19A27.87,27.87,0,0,1,86.11,33.82Z" transform="translate(-1.14 -20.38)"/>
  </g>
</svg>
