<svg data-name="Layer 1" xmlns="http://www.w3.org/2000/svg" width="114.93" height="77.31"><path fill="#fff" stroke="#231f20" stroke-miterlimit="10" stroke-width="2.31" d="M1.15 1.15h112.62v75H1.15z"/><path d="M17.78 61.92a11.64 11.64 0 004.63-.78c1.53-.79 2.3-2.3 2.29-4.55V19.92c0-2.23-.73-3.73-2.18-4.48a12.39 12.39 0 00-4.74-.82v-2h26.51v2a13.54 13.54 0 00-4.89.81q-2.22 1.14-2.22 4.52v36.67q0 3.18 1.78 4.25a10.43 10.43 0 005.33 1v2H17.78zM84.97 13.44a41.15 41.15 0 005.41 1.76 2.81 2.81 0 002.27-1.11 5.46 5.46 0 001.1-2.33h2.11v17.76h-1.93a42 42 0 00-5.58-9.11q-5.34-6.13-12.06-6.14-7.62 0-10.82 6.57t-3.19 17.64a40.52 40.52 0 001.88 13.44q3.51 9.86 13.06 9.85a19.58 19.58 0 0010.87-3.26 40.83 40.83 0 006.8-6l2.26 1.85a42.9 42.9 0 01-7.81 7.18 23.71 23.71 0 01-13.33 4q-11.22 0-18.8-6.66-8.41-7.37-8.41-19.85t8-20a25.79 25.79 0 0118.51-7.19 27.87 27.87 0 019.66 1.6z"/></svg>