<svg xmlns="http://www.w3.org/2000/svg" width="114.93" height="77.31"><path fill="#ffffff" stroke="#231f20" stroke-miterlimit="10" stroke-width="2.31" d="m 1.15,1.15 h 112.62 v 75 H 1.15 Z" style="display:inline" /><g style="font-style:normal;font-variant:normal;font-weight:bold;font-stretch:normal;font-size:56px;line-height:1.25;font-family:'Times New Roman';-inkscape-font-specification:'Times New Roman, Bold';font-variant-ligatures:normal;font-variant-caps:normal;font-variant-numeric:normal;font-variant-east-asian:normal;display:inline;fill:#000000;fill-opacity:1;stroke:none"><path d="M 47.741199,44.212738 46.346668,57.228363 H 13.424793 v -1.011719 h 1.230469 q 1.613281,0 2.597656,-0.574218 0.710938,-0.382813 1.09375,-1.3125 0.300781,-0.65625 0.300781,-3.445313 V 26.493988 q 0,-2.84375 -0.300781,-3.554687 -0.300781,-0.710938 -1.230469,-1.230469 -0.902343,-0.546875 -2.460937,-0.546875 h -1.230469 v -1.011719 h 19.769531 v 1.011719 h -1.613281 q -1.613281,0 -2.597656,0.574219 -0.710938,0.382812 -1.121094,1.3125 -0.300781,0.65625 -0.300781,3.445312 v 23.625 q 0,2.84375 0.328125,3.636719 0.328125,0.765625 1.285156,1.148437 0.683594,0.246094 3.308594,0.246094 h 3.089844 q 2.953125,0 4.921875,-1.039062 1.96875,-1.039063 3.390625,-3.28125 1.449218,-2.242188 2.734375,-6.617188 z" /><path d="m 76.424793,44.595551 10.0625,-24.445313 h 15.093747 v 1.011719 h -1.20312 q -1.640627,0 -2.625002,0.574219 -0.683594,0.382812 -1.09375,1.285156 -0.300781,0.65625 -0.300781,3.417969 v 24.445312 q 0,2.84375 0.300781,3.554688 0.300781,0.710937 1.230469,1.257812 0.929687,0.519531 2.488283,0.519531 h 1.20312 v 1.011719 H 82.221668 v -1.011719 h 1.203125 q 1.640625,0 2.625,-0.574218 0.683594,-0.382813 1.09375,-1.3125 0.300781,-0.65625 0.300781,-3.445313 V 23.404144 l -14.21875,33.824219 h -0.65625 l -14.4375,-33.578125 v 26.113281 q 0,2.734375 0.136719,3.363282 0.355469,1.367187 1.53125,2.242187 1.203125,0.847656 3.746094,0.847656 v 1.011719 h -12.6875 v -1.011719 h 0.382812 q 1.230469,0.02734 2.296875,-0.382812 1.066407,-0.4375 1.613282,-1.148438 0.546875,-0.710937 0.847656,-1.996093 0.05469,-0.300782 0.05469,-2.789063 V 26.439301 q 0,-2.816407 -0.300781,-3.5 -0.300781,-0.710938 -1.230469,-1.230469 -0.929687,-0.546875 -2.488281,-0.546875 H 50.85839 v -1.011719 h 15.148437 z" style="display:inline" /></g></svg>
