<svg data-name="Layer 1" xmlns="http://www.w3.org/2000/svg" width="114.93" height="77.31"><path fill="#fff" stroke="#231f20" stroke-miterlimit="10" stroke-width="2.31" d="M1.15 1.15h112.62v75H1.15z"/><path d="M6.65 56a8 8 0 003.24-.59 3.38 3.38 0 001.64-3.29v-26.7q0-2.42-1.56-3.24a8.52 8.52 0 00-3.32-.64v-1.4h19.28v1.4c-2.24.07-3.74.38-4.48.94s-1.12 1.92-1.12 4.09v26.06a2.64 2.64 0 001 2.43 8 8 0 003.73.59 15.08 15.08 0 008.36-2.19c2.25-1.47 4.19-4.31 5.83-8.55h1.61L38.59 57.4H6.65zM44.38 44.53H46q1.32 6.18 4.25 9a9.47 9.47 0 006.73 2.8c2.46 0 4.2-.64 5.24-1.92a6.36 6.36 0 001.55-4.06 5.36 5.36 0 00-1.62-4 20 20 0 00-4.35-2.67l-3.51-1.77a23.35 23.35 0 01-7.37-5.23 9.63 9.63 0 01-2.15-6.39 11.71 11.71 0 012.84-7.54q2.85-3.51 8.73-3.5a18.44 18.44 0 015.78.91 22 22 0 003.19.92 1.39 1.39 0 001.25-.53 4.46 4.46 0 00.55-1.38h1.64v12h-1.57a16.86 16.86 0 00-3.8-7.18 8.62 8.62 0 00-6.62-3 6 6 0 00-4.33 1.52 5 5 0 00-1.59 3.71 4.86 4.86 0 001.49 3.9A33.8 33.8 0 0058.89 34L63 36a15.8 15.8 0 014.3 3 10.48 10.48 0 013 7.58 11.77 11.77 0 01-3.24 7.87q-3.26 3.71-10.4 3.7a18 18 0 01-3.32-.31 17.68 17.68 0 01-3.34-.92l-1-.41a6.62 6.62 0 00-.71-.17 2.81 2.81 0 00-.58-.07 1.28 1.28 0 00-1.17.5 5.08 5.08 0 00-.54 1.41h-1.62zM74.1 56a8 8 0 003.23-.59A3.38 3.38 0 0079 52.12v-26.7q0-2.42-1.56-3.24a8.46 8.46 0 00-3.31-.64v-1.4h19.25v1.4c-2.25.07-3.74.38-4.49.94s-1.11 1.92-1.11 4.09v26.06a2.64 2.64 0 001 2.43 8 8 0 003.73.59 15.06 15.06 0 008.36-2.19c2.25-1.47 4.2-4.31 5.83-8.55h1.62L106 57.4H74.1z"/></svg>