<svg viewBox="0 0 40 40" xmlns="http://www.w3.org/2000/svg" fill-rule="evenodd" clip-rule="evenodd" stroke-linejoin="round" stroke-miterlimit="2"><g transform="translate(-37.534 -37.534) scale(.19178)"><circle cx="300" cy="300" r="90.192" fill="#fff"/><clipPath id="a"><circle cx="300" cy="300" r="90.192"/></clipPath><g clip-path="url(#a)"><g transform="translate(207.984 206.915) scale(.30908)"><path fill="#000e4b" d="M0 0h600v600H0z"/><circle cx="300" cy="300" r="273.192" fill="#fff"/><g transform="translate(6.329 6.329) scale(.9789)"><circle cx="300" cy="300" r="273.192" fill="#fff"/><clipPath id="b"><circle cx="300" cy="300" r="273.192"/></clipPath><g clip-path="url(#b)"><circle cx="300" cy="300" r="273.192" fill="#fff" transform="translate(12.964 12.964) scale(.95679)"/><path fill="#000e4b" stroke="#000" stroke-width="8.78" d="M211.561 0h170.776v531.658H211.561z" transform="matrix(1.00073 0 0 1.15286 2.834 -6.465)"/><path fill="#000e4b" stroke="#000" stroke-width="8.78" d="M211.561 0h170.776v531.658H211.561z" transform="matrix(0 1.00073 -1.15286 0 606.465 2.834)"/><path d="M300 26.808c150.88 0 273.192 122.312 273.192 273.192S450.88 573.192 300 573.192 26.808 450.88 26.808 300 149.12 26.808 300 26.808zm0 11.806c144.359 0 261.386 117.026 261.386 261.386 0 144.359-117.027 261.386-261.386 261.386-144.36 0-261.386-117.027-261.386-261.386C38.614 155.64 155.64 38.614 300 38.614z" fill="#000e4b" stroke="#000" stroke-width="9.48"/></g></g><text x="288.873" y="341.305" font-family="'CooperBlack','Cooper Black',serif" font-size="79.167" fill="#fff" stroke="#000" stroke-width="4.74" stroke-miterlimit="1.414" transform="matrix(1.40183 0 0 2.09048 -345.742 -368.657)">Sant<tspan x="475px 519.879px 539.671px 588.068px" y="341.305px 341.305px 341.305px 341.305px">a Fe</tspan></text></g></g><path d="M300 197.282c-56.692 0-102.718 46.026-102.718 102.718S243.308 402.718 300 402.718 402.718 356.692 402.718 300 356.692 197.282 300 197.282zm0 12.526c49.778 0 90.192 40.414 90.192 90.192 0 49.778-40.414 90.192-90.192 90.192-49.778 0-90.192-40.414-90.192-90.192 0-49.778 40.414-90.192 90.192-90.192z" fill="#000e4b"/></g></svg>