<svg xmlns="http://www.w3.org/2000/svg" viewBox="0 0 40 40" fill-rule="evenodd" stroke-linejoin="round" stroke-miterlimit="1.414"><circle cx="20" cy="20" r="19.552" fill="#ff7300"/><path fill="#fff" d="M6.884 8.465h26.233v23.068H6.884z" stroke="#000" stroke-width=".5" stroke-linejoin="miter" paint-order="fill markers stroke"/><path d="M7.612 9.176h24.82v21.699H7.612z"/><g fill="#fff"><path d="M14.054 27.581v-6.866h1.685c.229 0 .549.048.714.351s.123.763.123 1.178v.412a2.59 2.59 0 0 1-.192.984c-.128.314-.167.351-.167.351.114 0 .213.196.295.345s.063.331.063.545v2.701h-.837v-2.289c0-.208-.041-.386-.124-.536s-.182-.224-.3-.224h-.419v3.049zm.842-4.042h.842v-1.86c0-.094-.306-.083-.424-.083h-.419v1.944zm2.996-.757h.685c.186 0 .469-.019.604.25s.077.744.077 1.117v2.058c0 .373-.004.696-.138.967s-.357.407-.543.407h-.685c-.186 0-.439-.139-.574-.407s-.111-.589-.111-.967v-2.058c0-.373-.025-.848.111-1.117s.388-.25.574-.25zm0 1.366v2.058c0 .187.034.348.101.486s.147.206.24.206.177-.069.244-.206.101-.299.101-.486v-2.058c0-.187-.034-.347-.101-.482s-.148-.202-.244-.202-.173.067-.24.202-.101.295-.101.482zm4.043-1.366v4.799h-.681v-.683c-.027.455-.142.683-.345.683h-.341c-.186 0-.347-.135-.482-.403s-.203-.593-.203-.971v-3.424h.685v3.424c0 .187.034.348.101.486s.147.206.24.206.177-.069.244-.206.101-.299.101-.486v-3.424zm.929-1.374h.762v1.374h.627v.683h-.627v2.741c0 .225.041.396.124.515s.158.177.225.177h.037v.683h-.385c-.208 0-.387-.135-.537-.403s-.225-.593-.225-.971v-2.741h-.446v-.683h.446z" fill-rule="nonzero"/><path d="M26.602 25.523h-1.266v1.2h.38c.227 0 .105-.362.105-.823h.781c-.023 1.153-.082 1.68-.681 1.68h-.685c-.186 0-.449.005-.584-.264s-.101-.731-.101-1.11v-2.058c0-.373-.034-.868.101-1.137s.398-.229.584-.229h.685c.186 0 .441-.039.575.229s.106.764.106 1.137zm-.686-1.909c0-.05-.02-.098-.055-.134s-.083-.055-.133-.055h-.378c-.104 0-.189.084-.189.189v.87c0 .104.084.189.189.189h.378c.104 0 .189-.084.189-.189v-.869z"/><path d="M8.894 19.109v-6.666h1.669c.226 0 .482.086.645.379s.184.702.184 1.105v.365c0 .438-.009.901-.147 1.147s-.406.278-.682.337c.276 0 .667-.045.769.176.138.299.06.917.06 1.308v.364c0 .403.039.872-.124 1.165s-.479.319-.705.319zm.835-3.827h.415c.117 0 .216-.073.297-.218s.123-.318.123-.52v-.557c0-.207-.041-.384-.123-.529s-.181-.218-.297-.218h-.415zm0 3.089h.415c.117 0 .216-.074.297-.222s.123-.323.123-.524v-.738c0-.492-.14-.738-.42-.738h-.415zm4.416-4.061v4.799h-.667v-.683c-.027.455-.139.683-.338.683h-.334c-.182 0-.34-.134-.472-.403s-.199-.593-.199-.971V14.31h.671v3.424c0 .187.033.348.098.486s.144.206.235.206.173-.069.239-.206.099-.299.099-.486V14.31zm1.342 4.799h-.671V14.31h.671v.642s-.025-.073.086-.301.266-.342.464-.342h.104v1.366h-.321c-.091 0-.17.067-.235.202a1.11 1.11 0 0 0-.099.49zm.916-6.656h.671v6.656h-.671zm1.22.743v-.683h.738v.683zm0 5.912V14.31h.738v4.799h-.738zm1.396 0V14.31h.653v.382l.102-.213c.055-.112.129-.169.223-.169h.328c.177 0 .33.134.457.403s.192.59.192.963v3.432h-.649v-3.432c0-.187-.032-.347-.096-.481s-.141-.202-.233-.202-.165.067-.229.202-.096.295-.096.481v3.432z" fill-rule="nonzero"/><path d="M23.68 18.642c.18.089.15.582.15.582-.014.781.052 1.374-.727 1.374h-.671c-.394 0-.799-.147-.852-1.063h.699l.005.389h.002 0s.813-.031.858-.15c.004-.082 0-.224 0-.338-.059-.159-.291-.161-1.077-.212-.778-.051-.531-.751-.264-1.215-.128-.061-.225-.149-.225-.275v-2.058c0-.373.006-.634.139-.903s.526-.342.71-.343c.006-.212.029-.467.102-.597.138-.247.629-.617.696-.135s-.276.309-.276.494v.238h.88v2.773c0 .346-.284.85-.561.874l-.819.071-.151-.013c-.04.117-.073.23-.073.292 0 .134 1.187.081 1.454.214zm-.638-3.528h-.277c-.091 0-.17.067-.235.202a1.09 1.09 0 0 0-.098.482v1.394c0 .187.611.187.611 0z"/><path d="M24.59 12.935h.752v1.495h.622v.683h-.622v2.62c0 .225.041.517.122.635s.095.056.162.056h.036v.683h-.32c-.205 0-.442-.014-.59-.282s-.162-.713-.162-1.092v-2.62h-.38v-.683h.38v-1.495zM27 14.31h.671c.182 0 .339.134.47.403s.197.59.197.963v2.058a2.2 2.2 0 0 1-.197.967c-.131.272-.288.407-.47.407H27c-.182 0-.339-.134-.472-.403s-.199-.593-.199-.971v-2.058c0-.373.066-.694.199-.963s.29-.403.472-.403zm0 1.366v2.118a1.41 1.41 0 0 0 .099.546c.066.137.409.137.474 0s.099-.359.099-.546v-2.118c0-.187-.033-.347-.099-.481s-.408-.135-.474 0-.099.295-.099.481zm2.093 3.432V14.31h.653v.382l.102-.213c.055-.112.129-.169.223-.169h.328c.177 0 .33.134.457.403s.192.59.192.963v3.432h-.649v-3.432c0-.187-.032-.347-.096-.481s-.141-.202-.233-.202-.165.067-.229.202-.096.295-.096.481v3.432z" fill-rule="nonzero"/></g></svg>
