<svg viewBox="0 0 40 40" xmlns="http://www.w3.org/2000/svg" fill-rule="evenodd" clip-rule="evenodd" stroke-linejoin="round" stroke-miterlimit="1.414"><g transform="translate(-37.173 -37.173) scale(.19058)"><circle cx="300" cy="300" r="90.192" fill="#fff"/><clipPath id="a"><circle cx="300" cy="300" r="90.192"/></clipPath><g clip-path="url(#a)"><path fill="#fff" d="M189.127 185.604h224.794v224.794H189.127z"/><path fill="#ffc340" d="M212.856 219.4h177.336v162.013H212.856z"/><path d="M217.049 223.603h168.95V377.21H217.05z"/><path fill="#ff7300" stroke="#ff7300" stroke-width="5.247" d="M219.264 225.832h164.519v149.147H219.264z"/><path d="M230.995 237.867h141.22v125.777h-141.22z"/><path fill="#fff" d="M233.677 240.945h136.218V360.73H233.677z"/><path d="M236.782 244.046h130.236v113.86H236.782z"/><path d="M270.584 340.617V304.59h8.84c1.2 0 2.88.254 3.745 1.84.865 1.585.648 4.005.648 6.182v2.162c0 1.793-.335 3.514-1.005 5.164-.67 1.65-.875 1.84-.875 1.84.6 0 1.116 1.026 1.549 1.81.432.785.331 1.738.331 2.859v14.17h-4.393v-12.009c0-1.089-.216-2.025-.649-2.81-.432-.785-.957-1.177-1.574-1.177h-2.197v15.996h-4.42zm4.42-21.208h4.42v-9.761c0-.491-1.606-.438-2.223-.438h-2.197v10.2zm15.719-3.971h3.596c.976 0 2.463-.101 3.167 1.31.703 1.41.406 3.902.406 5.86v10.797c0 1.958-.02 3.65-.723 5.075-.703 1.425-1.874 2.138-2.85 2.138h-3.596c-.976 0-2.303-.727-3.014-2.138-.71-1.41-.58-3.088-.58-5.075v-10.797c0-1.958-.13-4.45.58-5.86.71-1.411 2.038-1.31 3.014-1.31zm0 7.17v10.797c0 .98.176 1.828.528 2.548.351.72.771 1.08 1.26 1.08.502 0 .929-.36 1.28-1.08.352-.72.528-1.569.528-2.548v-10.797c0-.98-.176-1.821-.528-2.527-.351-.705-.778-1.058-1.28-1.058-.489 0-.909.353-1.26 1.058-.352.706-.528 1.548-.528 2.527zm21.212-7.17v25.18h-3.573v-3.585c-.144 2.39-.747 3.585-1.809 3.585h-1.787c-.975 0-1.819-.706-2.53-2.117-.71-1.41-1.065-3.11-1.065-5.096v-17.967h3.595v17.967c0 .98.176 1.828.528 2.548.351.72.771 1.08 1.26 1.08.502 0 .929-.36 1.28-1.08.352-.72.528-1.569.528-2.548v-17.967h3.573zm4.876-7.212h3.998v7.212h3.289v3.585h-3.29v14.382c0 1.18.217 2.08.65 2.7.434.618.827.928 1.18.928h.193v3.585h-2.022c-1.092 0-2.031-.706-2.818-2.117-.787-1.41-1.18-3.11-1.18-5.096v-14.382h-2.34v-3.585h2.34v-7.212z" fill="#fff" fill-rule="nonzero"/><path d="M336.426 329.82h-6.642v3.585c0 .979.061 2.713 0 2.713h1.992c1.19 0 .549-1.898.549-4.316h4.1c-.123 6.048-.428 8.815-3.573 8.815h-3.595c-.976 0-2.356.024-3.066-1.387-.711-1.41-.53-3.838-.53-5.825v-10.797c0-1.958-.181-4.555.53-5.966.71-1.411 2.09-1.204 3.066-1.204h3.595c.976 0 2.314-.207 3.017 1.204.703 1.41.557 4.008.557 5.966v7.212zm-3.602-10.016a.99.99 0 00-.99-.991h-1.982a.99.99 0 00-.99.99v4.563c0 .546.443.99.99.99h1.981a.99.99 0 00.99-.99v-4.562z" fill="#fff"/><g fill="#fff"><path d="M243.511 296.162v-34.98h8.76c1.188 0 2.528.452 3.385 1.991.856 1.54.968 3.683.968 5.797v1.913c0 2.3-.046 4.73-.772 6.02-.725 1.29-2.13 1.458-3.581 1.769 1.45 0 3.5-.238 4.037.925.725 1.57.316 4.811.316 6.864v1.912c0 2.114.205 4.574-.652 6.114-.856 1.539-2.513 1.675-3.701 1.675h-8.76zm4.38-20.082h2.177c.612 0 1.132-.381 1.56-1.143.428-.762.643-1.671.643-2.728v-2.922c0-1.088-.215-2.013-.643-2.775-.428-.762-.948-1.142-1.56-1.142h-2.177v10.71zm0 16.21h2.177c.612 0 1.132-.388 1.56-1.165.428-.778.643-1.695.643-2.752v-3.871c0-2.581-.735-3.872-2.203-3.872h-2.177v11.66zm23.171-21.308v25.18h-3.5v-3.586c-.14 2.39-.731 3.585-1.771 3.585h-1.75c-.957 0-1.782-.705-2.478-2.116-.696-1.41-1.044-3.11-1.044-5.096v-17.967h3.522v17.967c0 .979.172 1.828.516 2.548.344.72.756 1.08 1.234 1.08.492 0 .91-.36 1.254-1.08.345-.72.517-1.57.517-2.548v-17.967h3.5zm7.043 25.179h-3.521v-25.179h3.521v3.37s-.13-.383.453-1.578c.584-1.195 1.395-1.792 2.436-1.792h.547v7.17h-1.685c-.478 0-.89.352-1.234 1.058-.344.705-.517 1.562-.517 2.57v14.381zm4.806-34.924h3.522v34.924h-3.522zm6.401 3.901v-3.585h3.874v3.585h-3.874zm0 31.023v-25.179h3.874v25.18h-3.874zm7.326 0v-25.179h3.426v2.002s.247-.526.534-1.117c.287-.59.677-.885 1.169-.885h1.723c.93 0 1.73.705 2.4 2.116.67 1.411 1.006 3.096 1.006 5.053v18.01h-3.406v-18.01c0-.979-.167-1.82-.502-2.526-.335-.706-.742-1.058-1.221-1.058-.465 0-.865.352-1.2 1.058-.335.706-.503 1.547-.503 2.526v18.01h-3.426z" fill-rule="nonzero"/><path d="M321.095 293.712c.942.468.785 3.055.785 3.055-.074 4.1.272 7.212-3.817 7.212h-3.521c-2.067 0-4.19-.77-4.472-5.578h3.67l.028 2.04h.01v.001s4.266-.165 4.504-.787c.022-.428.001-1.174 0-1.775-.308-.836-1.528-.844-5.65-1.113-4.083-.267-2.786-3.94-1.384-6.374-.673-.322-1.178-.784-1.178-1.444V278.15c0-1.957.031-3.325.727-4.736.692-1.402 2.762-1.795 3.726-1.8.031-1.11.154-2.448.535-3.133.723-1.296 3.302-3.24 3.654-.709.351 2.531-1.448 1.623-1.45 2.592-.002.422-.002.874-.002 1.25h4.62v14.55c0 1.817-1.488 4.46-2.946 4.587l-4.298.374s-.32-.013-.79-.07c-.212.614-.381 1.207-.381 1.534 0 .702 6.228.426 7.63 1.122zm-3.349-18.512h-1.454c-.478 0-.89.353-1.234 1.058-.344.705-.516 1.548-.516 2.527v7.314c0 .979 3.204.979 3.204 0V275.2z"/><path d="M325.87 263.77h3.945v7.845h3.263v3.585h-3.263v13.749c0 1.18.214 2.713.642 3.332.428.62.5.295.848.295h.19v3.585h-1.68c-1.077 0-2.32-.072-3.096-1.482-.777-1.412-.848-3.743-.848-5.73V275.2h-1.996v-3.585h1.996v-7.845zm12.646 7.212h3.522c.956 0 1.778.705 2.467 2.116.69 1.411 1.034 3.096 1.034 5.053v10.798c0 1.958-.345 3.65-1.034 5.074-.689 1.426-1.511 2.138-2.467 2.138h-3.522c-.955 0-1.781-.705-2.477-2.116-.696-1.41-1.044-3.11-1.044-5.096V278.15c0-1.957.348-3.642 1.044-5.053.696-1.41 1.522-2.116 2.477-2.116zm0 7.17v11.113c0 .98.173 2.145.517 2.865.345.72 2.144.72 2.488 0 .345-.72.517-1.886.517-2.865v-11.114c0-.979-.172-1.82-.517-2.526-.344-.706-2.143-.706-2.488 0-.344.706-.517 1.547-.517 2.526zm10.984 18.009v-25.179h3.425v2.002s.246-.526.534-1.117c.287-.59.677-.885 1.169-.885h1.723c.93 0 1.73.705 2.4 2.116.67 1.411 1.006 3.096 1.006 5.053v18.01h-3.406v-18.01c0-.979-.167-1.82-.502-2.526-.335-.706-.742-1.058-1.221-1.058-.465 0-.865.352-1.2 1.058-.335.706-.503 1.547-.503 2.526v18.01H349.5z" fill-rule="nonzero"/></g></g><path d="M300 197.282c-56.692 0-102.718 46.026-102.718 102.718S243.308 402.718 300 402.718 402.718 356.692 402.718 300 356.692 197.282 300 197.282zm0 12.526c49.778 0 90.192 40.414 90.192 90.192 0 49.778-40.414 90.192-90.192 90.192-49.778 0-90.192-40.414-90.192-90.192 0-49.778 40.414-90.192 90.192-90.192z" fill="#ff7300"/></g></svg>