<?xml version="1.0" encoding="UTF-8" standalone="no"?>
<!DOCTYPE svg PUBLIC "-//W3C//DTD SVG 1.1//EN" "http://www.w3.org/Graphics/SVG/1.1/DTD/svg11.dtd">
<svg width="100%" height="100%" viewBox="0 0 40 40" version="1.1" xmlns="http://www.w3.org/2000/svg" xmlns:xlink="http://www.w3.org/1999/xlink" xml:space="preserve" xmlns:serif="http://www.serif.com/" style="fill-rule:evenodd;clip-rule:evenodd;stroke-linejoin:round;stroke-miterlimit:1.41421;">
    <g transform="matrix(0.190577,-7.86236e-18,-9.45494e-18,0.190577,-37.1731,-37.1731)">
        <g id="CB-Q" serif:id="CB&amp;Q">
            <circle id="City" cx="300" cy="300" r="90.192" style="fill:white;"/>
            <clipPath id="_clip1">
                <circle id="City1" serif:id="City" cx="300" cy="300" r="90.192"/>
            </clipPath>
            <g clip-path="url(#_clip1)">
                <g id="Logo" transform="matrix(0.374657,1.54567e-17,1.85875e-17,0.374657,189.127,185.604)">
                    <rect id="BG" x="0" y="0" width="600" height="600" style="fill:white;"/>
                    <g transform="matrix(0.84512,3.25095e-48,1.69542e-47,0.84512,48.2586,57.0306)">
                        <g transform="matrix(1.07791,0,0,1.08625,-23.208,-25.4507)">
                            <rect x="38.08" y="59.57" width="519.592" height="471.047" style="fill:rgb(255,195,64);"/>
                        </g>
                        <g transform="matrix(1.02694,0,0,1.0299,-8.02414,-8.82246)">
                            <rect x="38.08" y="59.57" width="519.592" height="471.047"/>
                        </g>
                        <rect x="38.08" y="59.57" width="519.592" height="471.047" style="fill:rgb(255,115,0);stroke:rgb(255,115,0);stroke-width:16.57px;"/>
                        <rect x="75.127" y="97.579" width="446.009" height="397.234"/>
                        <rect x="83.598" y="107.3" width="430.21" height="378.307" style="fill:white;"/>
                        <rect x="93.405" y="117.092" width="411.319" height="359.603"/>
                        <g transform="matrix(0.733474,0,0,1.47142,137.838,3.77573)">
                            <g transform="matrix(1.22938,0,0,1.11223,-26.0255,-31.9072)">
                                <path d="M90.283,284.294L90.283,214.768L121.245,214.768C125.448,214.768 131.334,215.258 134.363,218.318C137.391,221.377 136.634,226.047 136.634,230.249L136.634,234.421C136.634,237.881 135.459,241.203 133.111,244.386C130.763,247.569 130.049,247.938 130.049,247.938C132.15,247.938 133.957,249.917 135.472,251.431C136.986,252.945 136.634,254.784 136.634,256.947L136.634,284.294L121.245,284.294L121.245,261.118C121.245,259.017 120.488,257.21 118.974,255.695C117.46,254.181 115.622,253.424 113.459,253.424L105.764,253.424L105.764,284.294L90.283,284.294ZM105.764,243.366L121.245,243.366L121.245,224.528C121.245,223.581 115.622,223.684 113.459,223.684L105.764,223.684L105.764,243.366Z" style="fill:white;fill-rule:nonzero;"/>
                            </g>
                            <g transform="matrix(1,0,0,1,4.09012,0)">
                                <path d="M167.596,230.249L183.077,230.249C187.279,230.249 193.685,230.031 196.713,233.06C199.741,236.088 198.465,241.435 198.465,245.637L198.465,268.813C198.465,273.015 198.378,276.646 195.349,279.705C192.321,282.764 187.279,284.294 183.077,284.294L167.596,284.294C163.393,284.294 157.677,282.733 154.618,279.705C151.558,276.677 152.115,273.077 152.115,268.813L152.115,245.637C152.115,241.435 151.558,236.088 154.618,233.06C157.677,230.031 163.393,230.249 167.596,230.249ZM167.596,245.637L167.596,268.813C167.596,270.914 168.353,272.737 169.867,274.282C171.381,275.827 173.189,276.599 175.29,276.599C177.453,276.599 179.291,275.827 180.806,274.282C182.32,272.737 183.077,270.914 183.077,268.813L183.077,245.637C183.077,243.536 182.32,241.729 180.806,240.214C179.291,238.7 177.453,237.943 175.29,237.943C173.189,237.943 171.381,238.7 169.867,240.214C168.353,241.729 167.596,243.536 167.596,245.637Z" style="fill:white;fill-rule:nonzero;"/>
                            </g>
                            <g transform="matrix(1,0,0,1,2.72675,0)">
                                <path d="M260.296,230.249L260.296,284.294L244.908,284.294L244.908,276.599C244.29,281.729 241.694,284.294 237.121,284.294L229.427,284.294C225.225,284.294 221.594,282.78 218.535,279.751C215.476,276.723 213.946,273.077 213.946,268.813L213.946,230.249L229.427,230.249L229.427,268.813C229.427,270.914 230.184,272.737 231.698,274.282C233.212,275.827 235.02,276.599 237.121,276.599C239.284,276.599 241.123,275.827 242.637,274.282C244.151,272.737 244.908,270.914 244.908,268.813L244.908,230.249L260.296,230.249Z" style="fill:white;fill-rule:nonzero;"/>
                            </g>
                            <g transform="matrix(1.11848,0,0,1,-33.1436,3.10862e-15)">
                                <path d="M283.564,214.768L298.953,214.768L298.953,230.249L311.615,230.249L311.615,237.943L298.953,237.943L298.953,268.813C298.953,271.346 299.787,273.278 301.456,274.606C303.124,275.935 304.638,276.599 305.998,276.599L306.739,276.599L306.739,284.294L298.953,284.294C294.75,284.294 291.135,282.78 288.107,279.751C285.078,276.723 283.564,273.077 283.564,268.813L283.564,237.943L274.558,237.943L274.558,230.249L283.564,230.249L283.564,214.768Z" style="fill:white;fill-rule:nonzero;"/>
                            </g>
                            <g transform="matrix(1.36337,0,0,0.679613,-187.925,-2.56604)">
                                <path d="M408.107,387.992L387.131,387.992L387.131,399.313C387.131,402.405 387.324,407.882 387.131,407.882L393.42,407.882C397.182,407.882 395.155,401.888 395.155,394.25L408.107,394.25C407.715,413.353 406.751,422.092 396.82,422.092L385.466,422.092C382.383,422.092 378.025,422.167 375.781,417.711C373.537,413.255 374.111,405.588 374.111,399.313L374.111,365.213C374.111,359.029 373.537,350.826 375.781,346.37C378.025,341.914 382.383,342.57 385.466,342.57L396.82,342.57C399.903,342.57 404.127,341.914 406.348,346.37C408.569,350.826 408.107,359.029 408.107,365.213L408.107,387.992ZM396.731,356.356C396.731,354.628 395.33,353.227 393.602,353.227L387.346,353.227C385.618,353.227 384.218,354.628 384.218,356.356L384.218,370.764C384.218,372.491 385.618,373.892 387.346,373.892L393.602,373.892C395.33,373.892 396.731,372.491 396.731,370.764L396.731,356.356Z" style="fill:white;"/>
                            </g>
                        </g>
                        <g transform="matrix(0.718419,0,0,1.47142,135.337,-136.629)">
                            <g transform="matrix(1.2437,0,0,1.07992,3.04345,-22.7194)">
                                <path d="M-25.593,284.294L-25.593,214.768L5.37,214.768C9.572,214.768 14.306,215.668 17.335,218.727C20.363,221.787 20.758,226.047 20.758,230.249L20.758,234.05C20.758,238.623 20.595,243.451 18.03,246.015C15.465,248.58 10.499,248.913 5.37,249.531C10.499,249.531 17.74,249.058 19.639,251.369C22.203,254.49 20.758,260.933 20.758,265.012L20.758,268.813C20.758,273.015 21.482,277.904 18.454,280.964C15.426,284.023 9.572,284.294 5.37,284.294L-25.593,284.294ZM-10.112,244.379L-2.417,244.379C-0.254,244.379 1.584,243.622 3.098,242.108C4.612,240.594 5.37,238.786 5.37,236.685L5.37,230.878C5.37,228.715 4.612,226.877 3.098,225.363C1.584,223.849 -0.254,223.092 -2.417,223.092L-10.112,223.092L-10.112,244.379ZM-10.112,276.599L-2.417,276.599C-0.254,276.599 1.584,275.827 3.098,274.282C4.612,272.737 5.37,270.914 5.37,268.813L5.37,261.118C5.37,255.989 2.774,253.424 -2.417,253.424L-10.112,253.424L-10.112,276.599Z" style="fill:white;fill-rule:nonzero;"/>
                            </g>
                            <g transform="matrix(1,0,0,1,9.74362,0)">
                                <path d="M82.589,230.249L82.589,284.294L67.201,284.294L67.201,276.599C66.583,281.729 63.987,284.294 59.414,284.294L51.72,284.294C47.517,284.294 43.887,282.78 40.828,279.751C37.768,276.723 36.239,273.077 36.239,268.813L36.239,230.249L51.72,230.249L51.72,268.813C51.72,270.914 52.477,272.737 53.991,274.282C55.505,275.827 57.313,276.599 59.414,276.599C61.577,276.599 63.416,275.827 64.93,274.282C66.444,272.737 67.201,270.914 67.201,268.813L67.201,230.249L82.589,230.249Z" style="fill:white;fill-rule:nonzero;"/>
                            </g>
                            <g transform="matrix(1,0,0,1,9.74362,0)">
                                <path d="M113.551,284.294L98.07,284.294L98.07,230.249L113.551,230.249L113.551,237.482C113.551,237.482 112.977,236.661 115.541,234.096C118.106,231.531 121.675,230.249 126.248,230.249L128.654,230.249L128.654,245.637L121.245,245.637C119.144,245.637 117.336,246.394 115.822,247.909C114.308,249.423 113.551,251.261 113.551,253.424L113.551,284.294Z" style="fill:white;fill-rule:nonzero;"/>
                            </g>
                            <rect x="144.421" y="209.331" width="15.481" height="74.962" style="fill:white;fill-rule:nonzero;"/>
                            <g transform="matrix(1.1,0,0,1,-20.259,0)">
                                <path d="M175.29,217.705L175.29,210.011L190.771,210.011L190.771,217.705L175.29,217.705ZM175.29,284.294L175.29,230.249L190.771,230.249L190.771,284.294L175.29,284.294Z" style="fill:white;fill-rule:nonzero;"/>
                            </g>
                            <g transform="matrix(0.972887,0,0,1,4.19773,0)">
                                <path d="M206.159,284.294L206.159,230.249L221.64,230.249L221.64,234.545C221.64,234.545 222.753,233.416 224.05,232.149C225.348,230.883 227.11,230.249 229.334,230.249L237.121,230.249C241.324,230.249 244.939,231.763 247.967,234.791C250.995,237.82 252.51,241.435 252.51,245.637L252.51,284.294L237.121,284.294L237.121,245.637C237.121,243.536 236.364,241.729 234.85,240.214C233.336,238.7 231.497,237.943 229.334,237.943C227.233,237.943 225.426,238.7 223.911,240.214C222.397,241.729 221.64,243.536 221.64,245.637L221.64,284.294L206.159,284.294Z" style="fill:white;fill-rule:nonzero;"/>
                            </g>
                            <g transform="matrix(1.39195,0,0,0.679613,-188.382,92.8548)">
                                <path d="M359.686,273.953C362.66,275.429 362.165,283.6 362.165,283.6C361.932,296.552 363.024,306.379 350.11,306.379L338.988,306.379C332.462,306.379 325.754,303.949 324.867,288.763L336.459,288.763L336.546,295.207C336.546,295.207 336.572,295.206 336.577,295.207C336.578,295.207 336.577,295.209 336.577,295.209C336.577,295.209 350.049,294.685 350.8,292.723C350.87,291.37 350.805,289.013 350.8,287.116C349.83,284.476 345.976,284.45 332.957,283.6C320.063,282.758 324.158,271.159 328.587,263.471C326.46,262.453 324.867,260.994 324.867,258.909L324.867,224.808C324.867,218.625 324.965,214.305 327.163,209.849C329.347,205.421 335.886,204.181 338.931,204.166C339.028,200.66 339.415,196.432 340.62,194.269C342.901,190.176 351.049,184.036 352.159,192.031C353.269,200.025 347.585,197.155 347.577,200.217C347.573,201.549 347.573,202.977 347.574,204.165L362.165,204.165L362.165,250.115C362.165,255.855 357.464,264.204 352.859,264.605C346.848,265.128 339.286,265.785 339.286,265.785C339.286,265.785 338.277,265.743 336.794,265.565C336.123,267.503 335.587,269.375 335.587,270.408C335.587,272.626 355.257,271.755 359.686,273.953ZM349.11,215.487L344.516,215.487C343.006,215.487 341.708,216.601 340.62,218.829C339.532,221.056 338.988,223.716 338.988,226.808L338.988,249.909C338.988,253 349.11,253 349.11,249.909L349.11,215.487Z" style="fill:white;"/>
                            </g>
                            <g transform="matrix(1.12688,0,0,1,-47.1671,0)">
                                <path d="M337.609,214.768L352.997,214.768L352.997,231.608L365.725,231.608L365.725,239.303L352.997,239.303L352.997,268.813C352.997,271.346 353.831,274.637 355.5,275.966C357.169,277.294 357.448,276.599 358.807,276.599L359.549,276.599L359.549,284.294L352.997,284.294C348.795,284.294 343.944,284.139 340.916,281.111C337.888,278.082 337.609,273.077 337.609,268.813L337.609,239.303L329.822,239.303L329.822,231.608L337.609,231.608L337.609,214.768Z" style="fill:white;fill-rule:nonzero;"/>
                            </g>
                            <g transform="matrix(1,0,0,1,-2.78389,0)">
                                <path d="M391.653,230.249L407.134,230.249C411.337,230.249 414.952,231.763 417.98,234.791C421.009,237.82 422.523,241.435 422.523,245.637L422.523,268.813C422.523,273.015 421.009,276.646 417.98,279.705C414.952,282.764 411.337,284.294 407.134,284.294L391.653,284.294C387.451,284.294 383.82,282.78 380.761,279.751C377.702,276.723 376.172,273.077 376.172,268.813L376.172,245.637C376.172,241.435 377.702,237.82 380.761,234.791C383.82,231.763 387.451,230.249 391.653,230.249ZM391.653,245.637L391.653,269.492C391.653,271.593 392.41,274.096 393.924,275.641C395.439,277.186 403.349,277.186 404.863,275.641C406.377,274.096 407.134,271.593 407.134,269.492L407.134,245.637C407.134,243.536 406.377,241.729 404.863,240.214C403.349,238.7 395.439,238.7 393.924,240.214C392.41,241.729 391.653,243.536 391.653,245.637Z" style="fill:white;fill-rule:nonzero;"/>
                            </g>
                            <g transform="matrix(0.972887,0,0,1,236.581,0)">
                                <path d="M206.159,284.294L206.159,230.249L221.64,230.249L221.64,234.545C221.64,234.545 222.753,233.416 224.05,232.149C225.348,230.883 227.11,230.249 229.334,230.249L237.121,230.249C241.324,230.249 244.939,231.763 247.967,234.791C250.995,237.82 252.51,241.435 252.51,245.637L252.51,284.294L237.121,284.294L237.121,245.637C237.121,243.536 236.364,241.729 234.85,240.214C233.336,238.7 231.497,237.943 229.334,237.943C227.233,237.943 225.426,238.7 223.911,240.214C222.397,241.729 221.64,243.536 221.64,245.637L221.64,284.294L206.159,284.294Z" style="fill:white;fill-rule:nonzero;"/>
                            </g>
                        </g>
                    </g>
                </g>
            </g>
            <path id="City2" serif:id="City" d="M300,197.282C243.308,197.282 197.282,243.308 197.282,300C197.282,356.692 243.308,402.718 300,402.718C356.692,402.718 402.718,356.692 402.718,300C402.718,243.308 356.692,197.282 300,197.282ZM300,209.808C349.778,209.808 390.192,250.222 390.192,300C390.192,349.778 349.778,390.192 300,390.192C250.222,390.192 209.808,349.778 209.808,300C209.808,250.222 250.222,209.808 300,209.808Z" style="fill:rgb(255,115,0);"/>
        </g>
    </g>
</svg>
