<svg viewBox="0 0 40 40" xmlns="http://www.w3.org/2000/svg" fill-rule="evenodd" clip-rule="evenodd" stroke-linejoin="round" stroke-miterlimit="2"><g transform="translate(-37.124 -37.124) scale(.19042)"><circle cx="300" cy="300" r="90.192" fill="#fff"/><clipPath id="a"><circle cx="300" cy="300" r="90.192"/></clipPath><g clip-path="url(#a)"><circle cx="300" cy="300" r="234.43" fill="#fcf9ca" transform="translate(137.545 133.257) scale(.54152)"/><circle cx="300" cy="300" r="234.43" transform="translate(205.613 217.357) scale(.31463)"/><circle cx="300" cy="300" r="234.43" fill="#00aeed" transform="translate(208.69 220.435) scale(.30437)"/><circle cx="300" cy="300" r="234.43" transform="translate(233.37 245.114) scale(.2221)"/><circle cx="300" cy="300" r="234.43" fill="#fff004" transform="translate(236.14 247.885) scale(.21287)"/><path d="M300 238.633l63.355 109.438h-126.71L300 238.633z"/><path d="M300 280.537l27.639 47.742H272.36L300 280.537z" fill="#027440"/><path d="M300 214.498l1.876 7.142 6.377-3.724-3.724 6.377 7.142 1.876-7.142 1.875 3.724 6.377-6.377-3.724L300 237.84l-1.876-7.142-6.376 3.724 3.724-6.377-7.142-1.875 7.142-1.876-3.724-6.377 6.376 3.724 1.876-7.142z"/></g><path d="M300 197.282c-56.692 0-102.718 46.026-102.718 102.718S243.308 402.718 300 402.718 402.718 356.692 402.718 300 356.692 197.282 300 197.282zm0 12.526c49.778 0 90.192 40.414 90.192 90.192 0 49.778-40.414 90.192-90.192 90.192-49.778 0-90.192-40.414-90.192-90.192 0-49.778 40.414-90.192 90.192-90.192z" fill="#00aeed"/></g></svg>