<svg xmlns="http://www.w3.org/2000/svg" fill-rule="evenodd" stroke-linejoin="round" stroke-miterlimit="1.414" viewBox="0 0 40 40"><path d="M11.81 15.19l2.93 8.12.95.31v1.19h-4.33v-1.19l1-.31-.32-1H9l-.34 1 1.06.33v1.19H5.64v-1.21l1-.31 3-8.07 2.17-.05zm-1.23 2.4l-1.07 3.23h2.1l-1.03-3.23zm7.19 7.22v-1.19l1.12-.34V16.8h-1.3l-.34 1.3H16v-2.86l7.91-.05v2.91h-1.28l-.34-1.3H21v6.48l1.13.34v1.19h-4.36zm10.7-1.19v1.19h-4v-1.19l1-.34V16.8l-1-.41v-1.13l3.28-.07 3.68 6.3V16.8l-1-.41v-1.13l3.89-.07v1.2l-1 .41v8h-2.26l-3.66-6.17v4.65l1.07.34z" fill="#fff" fill-rule="nonzero"/><circle cx="20" cy="20" r="17.555" fill="#82009c"/><g fill-rule="nonzero"><path d="M31.024 9.901v13.216c0 .987-.192 1.965-.576 2.934s-.86 1.83-1.428 2.581-1.245 1.483-2.03 2.194-1.511 1.302-2.177 1.772a27.402 27.402 0 0 1-2.082 1.334l-1.54.852-.731.344c-.138.069-.287.103-.447.103s-.31-.034-.448-.103l-.731-.344-1.54-.852a27.402 27.402 0 0 1-2.082-1.334c-.665-.47-1.391-1.061-2.177-1.773a15.92 15.92 0 0 1-2.03-2.194c-.568-.752-1.044-1.612-1.428-2.581s-.576-1.947-.576-2.934V9.901c0-.298.109-.557.327-.774a1.06 1.06 0 0 1 .774-.327h19.824c.298 0 .556.109.774.327s.327.476.327.774z" fill="#fff" stroke="#000" stroke-width="1.436"/><path d="M27.72 23.117V12.104h-7.709v19.565c1.365-.723 2.587-1.509 3.665-2.358 2.696-2.111 4.044-4.176 4.044-6.195zm3.304-13.216v13.216c0 .987-.192 1.965-.576 2.934s-.86 1.83-1.428 2.581-1.245 1.483-2.03 2.194-1.511 1.302-2.177 1.773a27.402 27.402 0 0 1-2.082 1.334l-1.54.852-.731.344c-.138.069-.287.103-.447.103s-.31-.034-.448-.103l-.731-.344-1.54-.852a27.402 27.402 0 0 1-2.082-1.334c-.665-.47-1.391-1.061-2.177-1.773a15.92 15.92 0 0 1-2.03-2.194c-.568-.752-1.044-1.612-1.428-2.581s-.576-1.947-.576-2.934V9.901c0-.298.109-.557.327-.774a1.06 1.06 0 0 1 .774-.327h19.824c.298 0 .556.109.774.327s.327.476.327.774z" stroke="#fff" stroke-width=".479"/></g><g stroke="#eff1e5"><path d="M1.172 16.694h37.716v6.496H1.172z" fill="#001678" stroke-width=".455"/><path d="M2.452 17.77h35.622v4.346H2.452z" fill="#000a35" stroke-width=".456"/></g><text x="4.752" y="21.184" fill="#fff" font-family="TeluguMN, Telugu MN" font-size="3.828">DENVER PACIFIC</text><path d="M20 .381C9.172.381.381 9.172.381 20S9.172 39.619 20 39.619 39.619 30.828 39.619 20 30.828.381 20 .381zm0 2.393A17.24 17.24 0 0 1 37.227 20 17.24 17.24 0 0 1 20 37.227 17.24 17.24 0 0 1 2.773 20 17.24 17.24 0 0 1 20 2.773z" fill="#82009c"/></svg>
