<svg viewBox="0 0 40 40" xmlns="http://www.w3.org/2000/svg" fill-rule="evenodd" clip-rule="evenodd" stroke-linejoin="round" stroke-miterlimit="1.414"><circle cx="19.99" cy="20" r="19.62"/><path d="M11.81 15.19l2.93 8.12.95.31v1.19h-4.33v-1.19l1-.31-.32-1H9l-.34 1 1.06.33v1.19H5.64v-1.21l1-.31 3-8.07 2.17-.05zm-1.23 2.4l-1.07 3.23h2.1l-1.03-3.23zm7.19 7.22v-1.19l1.12-.34V16.8h-1.3l-.34 1.3H16v-2.86l7.91-.05v2.91h-1.28l-.34-1.3H21v6.48l1.13.34v1.19h-4.36zm10.7-1.19v1.19h-4v-1.19l1-.34V16.8l-1-.41v-1.13l3.28-.07 3.68 6.3V16.8l-1-.41v-1.13l3.89-.07v1.2l-1 .41v8h-2.26l-3.66-6.17v4.65l1.07.34z" fill="#fff" fill-rule="nonzero"/><g transform="matrix(.191 0 0 .191 -37.301 -37.301)"><circle cx="300" cy="300" r="90.192" fill="#fff4d1"/><clipPath id="a"><circle cx="300" cy="300" r="90.192"/></clipPath><g clip-path="url(#a)"><circle cx="300" cy="300" r="90.192" fill="#82009c"/><path d="M300 197.282c-56.692 0-102.718 46.026-102.718 102.718S243.308 402.718 300 402.718 402.718 356.692 402.718 300 356.692 197.282 300 197.282zm0 12.526c49.778 0 90.192 40.414 90.192 90.192 0 49.778-40.414 90.192-90.192 90.192-49.778 0-90.192-40.414-90.192-90.192 0-49.778 40.414-90.192 90.192-90.192z" fill="#fff"/><path d="M357.72 247.13v69.192c0 5.166-1.006 10.286-3.018 15.361-2.012 5.076-4.505 9.58-7.478 13.515s-6.517 7.763-10.631 11.487-7.913 6.817-11.397 9.28a143.467 143.467 0 01-10.901 6.982c-3.784 2.192-6.472 3.679-8.064 4.46-1.592.78-2.868 1.38-3.829 1.801-.72.36-1.502.54-2.342.54-.841 0-1.622-.18-2.343-.54-.96-.42-2.237-1.02-3.829-1.802s-4.28-2.267-8.063-4.46a143.467 143.467 0 01-10.902-6.982c-3.483-2.462-7.282-5.555-11.397-9.28-4.114-3.723-7.658-7.552-10.631-11.486-2.973-3.935-5.466-8.44-7.478-13.515-2.012-5.075-3.018-10.195-3.018-15.36V247.13c0-1.562.57-2.914 1.712-4.055 1.141-1.14 2.492-1.712 4.054-1.712h103.79c1.56 0 2.912.571 4.053 1.712 1.142 1.141 1.712 2.493 1.712 4.055z" fill="#fff" fill-rule="nonzero" stroke="#000" stroke-width="7.516"/><path d="M340.422 316.322v-57.66H300.06v102.437c7.147-3.784 13.544-7.898 19.19-12.343 14.115-11.051 21.172-21.863 21.172-32.434zm17.298-69.192v69.192c0 5.166-1.006 10.286-3.018 15.361-2.012 5.076-4.505 9.58-7.478 13.515s-6.517 7.763-10.631 11.487-7.913 6.817-11.397 9.28a143.467 143.467 0 01-10.901 6.982c-3.784 2.192-6.472 3.679-8.064 4.46-1.592.78-2.868 1.38-3.829 1.801-.72.36-1.502.54-2.342.54-.841 0-1.622-.18-2.343-.54-.96-.42-2.237-1.02-3.829-1.802s-4.28-2.267-8.063-4.46a143.467 143.467 0 01-10.902-6.982c-3.483-2.462-7.282-5.555-11.397-9.28-4.114-3.723-7.658-7.552-10.631-11.486-2.973-3.935-5.466-8.44-7.478-13.515-2.012-5.075-3.018-10.195-3.018-15.36V247.13c0-1.562.57-2.914 1.712-4.055 1.141-1.14 2.492-1.712 4.054-1.712h103.79c1.56 0 2.912.571 4.053 1.712 1.142 1.141 1.712 2.493 1.712 4.055z" fill-rule="nonzero" stroke="#fff" stroke-width="2.506"/><path fill="#001678" stroke="#eff1e5" stroke-width="1.53" d="M3342.48 3143.86h153.209v18.089H3342.48z" transform="matrix(1.3443 0 0 1.87876 -4296.2 -5623.85)"/><path fill="#000a35" stroke="#eff1e5" stroke-width="1.93" d="M3342.48 3143.86h153.209v18.089H3342.48z" transform="matrix(1.3443 0 0 1.25523 -4296.2 -3657.91)"/><text x="3309.64" y="3137.56" font-family="'TeluguMN','Telugu MN'" font-size="27.332" fill="#fff" transform="translate(-2206.82 -1994.6) scale(.73331)">DENVER PACIFIC</text></g><path d="M300 197.282c-56.692 0-102.718 46.026-102.718 102.718S243.308 402.718 300 402.718 402.718 356.692 402.718 300 356.692 197.282 300 197.282zm0 12.526c49.778 0 90.192 40.414 90.192 90.192 0 49.778-40.414 90.192-90.192 90.192-49.778 0-90.192-40.414-90.192-90.192 0-49.778 40.414-90.192 90.192-90.192z" fill="#82009c"/></g></svg>