<svg xmlns="http://www.w3.org/2000/svg" width="519.41" height="519.41"><path d="M504.6 259.7a244.89 244.89 0 1 1-489.78 0 244.89 244.89 0 1 1 489.78 0z" fill="#9b1015" stroke="#ffed02" stroke-width="29.623"/><path d="M445.51 242.59a185.8 185.8 0 1 1-371.6 0 185.8 185.8 0 1 1 371.6 0z" fill="#fff" stroke="#000" stroke-width="7"/><path d="M406.14 242.59a145.83 145.83 0 0 1-33.222 92.884l-.48.581c-26.861 32.363-67.392 52.973-112.74 52.973-45.367 0-85.915-20.63-112.78-53.02l-1.031-1.257c-20.407-25.17-32.631-57.237-32.631-92.16 0-80.875 65.562-146.44 146.44-146.44s146.44 65.562 146.44 146.44z" stroke="#9b1015" stroke-width="60"/><path d="M250.9 82.95c-.714.715-.675 2.661.225 11.13.211 1.98.564 6.21.786 9.4.637 9.175.782 9.619 3.16 9.686 2.243.064 2.559-.594 2.252-4.687-.314-4.189.29-5.639 2.138-5.138.931.253 2.852 3.732 2.852 5.164 0 2.172 1.999 4.575 3.807 4.575h1.793v-1.736c0-.955-.27-2.62-.599-3.7-1.148-3.765-1.229-7.101-.211-8.747 1.267-2.051 1.391-12.903.163-14.283-2.054-2.31-14.459-3.571-16.366-1.664m-14.987.818c-7.385.845-9.846 4.119-8.406 11.181l2.024 10.584c1.085 6.356 3.877 9.317 8.716 9.244 4.355-.066 5.485-.41 7.297-2.223l1.66-1.66-.247-2.607c-.235-2.477-.889-7.096-1.298-9.163-.272-1.373-6.276-1.063-7.365.381-.879 1.166-.257 3.393 1.199 4.291 2.346 1.445 2.691 3.307.92 4.964-3.525 3.3-5.246.918-6.531-9.035-.224-1.735-.669-4.158-.988-5.384-.937-3.598-.809-4.299 1.008-5.501 2.149-1.423 5.595-.008 6.485 2.662.306.919 3.118.676 3.941-.341.942-1.163.041-4.226-1.848-6.289-1.339-1.462-2.189-1.605-6.567-1.104m45.286.412c-.676.591-4.1 10.265-4.08 11.531.007.436-1.477 5.364-2.219 7.369-3.263 8.815-3.344 10.534-.519 11.011 1.383.234 1.628.122 3.092-1.418 1.416-1.488 4.39-2.102 5.075-1.047.02.03.441.91.937 1.956.946 1.997 1.77 2.47 3.88 2.229l1.148-.131.225-4.2c.123-2.31.263-9.072.311-15.028.099-12.399.252-11.854-3.518-12.569-2.895-.549-3.402-.514-4.332.297m-20.397 3.502c3.577 2.431 2.104 10.479-1.849 10.107-1.953-.183-2.596-1.568-2.719-5.85-.148-5.147 1.288-6.485 4.568-4.257m39.642.846c-.377.577-.904 2.062-1.171 3.3-.643 2.99-1.745 7.304-2.056 8.052-.138.33-.465 1.59-.728 2.8s-1.04 4.402-1.727 7.094c-1.596 6.252-1.603 7.102-.069 7.896 2.126 1.099 3.475.002 4.231-3.439.163-.741.531-1.889.818-2.549s.628-1.705.758-2.319c.591-2.792 2.795-1.381 3.188 2.04.515 4.484 1.889 9.683 2.669 10.101.837.448 2.756.095 2.756-.507 0-.218.262-.963.582-1.657s.86-2.025 1.2-2.96l1.236-3.4c.34-.935.88-2.267 1.2-2.96s.582-1.459.582-1.702.36-1.113.8-1.934.8-1.714.8-1.985c0-.449.278-1.176 1.806-4.719.715-1.659 1.794-5.227 1.794-5.936 0-.691-2.511-2.264-3.615-2.264-.971 0-1.99 1.959-3.656 7.029-1.259 3.834-2.283 5.098-3.329 4.11-.397-.375-.995-3.6-1.803-9.72-.469-3.554-1.014-4.419-3.157-5.015-2.076-.576-2.345-.52-3.109.644m-97.931 3.965a130.69 130.69 0 0 1-3.855 1.4c-2.028.678-4.091 2.647-5.092 4.859l-.847 1.872.877 2.328c.483 1.28 1.001 2.418 1.151 2.528s1.453 2.45 2.894 5.2l3.646 6.8c.564.99 1.256 2.283 1.538 2.874 1.447 3.025 4.714 3.686 8.688 1.758 7.24-3.514 8.8-6.562 6.2-12.114-.77-1.644-1.4-3.096-1.4-3.227 0-.247-.402-1.132-3.16-6.952-.902-1.903-1.64-3.621-1.64-3.818 0-.675-2.998-3.281-4.487-3.901-1.758-.733-1.496-.756-4.513.393m122.2 7.595c-.878 1.874-1.596 3.512-1.596 3.639s-.689 1.699-1.532 3.492-1.814 3.981-2.158 4.861a328.91 328.91 0 0 1-3.296 8c-2.135 4.878-2.139 4.869 3.386 7.423a23.47 23.47 0 0 1 1.6.814c3.97 2.324 6.831 1.989 9.867-1.157 1.388-1.437 8.133-14.006 8.133-15.153 0-.236.26-.645.578-.909.767-.637 1.55-4.522 1.217-6.039-.43-1.96-2.1-3.284-7.444-5.904-6.768-3.318-6.763-3.318-8.755.933m-118.38-1.595c.474.292 2.78 5.037 2.78 5.719 0 .222.265.913.589 1.536 4.184 8.036 4.079 12.132-.311 12.132-1.457 0-3.016-1.501-3.654-3.521-.16-.507-.906-2.009-1.658-3.339s-1.366-2.648-1.366-2.929-.27-.737-.6-1.011-.606-.701-.614-.949-.361-1.171-.786-2.051c-2.142-4.433 1.55-8.103 5.62-5.587m76.7.667c.755.755.595 4.09-.247 5.129-1.102 1.361-2.654.459-2.357-1.37.508-3.127 1.624-4.739 2.604-3.759m-102.12 3.264c-3.605 2.098-3.584 1.959-.898 6.056 1.154 1.76 2.322 3.65 2.595 4.2.543 1.092.891 1.651 2.728 4.38.673 1.001 1.351 2.09 1.506 2.42s.814 1.41 1.464 2.4 1.952 3.098 2.893 4.684c2.18 3.673 2.856 4.067 5.055 2.945 2.259-1.152 2.19-1.481-1.694-8.11l-4.637-8.119c-.708-1.32-1.631-2.94-2.051-3.6s-1.045-1.74-1.389-2.4l-1.251-2.4c-1.429-2.746-2.64-3.434-4.321-2.456m153.18 3.107c1.185 1.407 1.254 2.1.373 3.749l-3.041 5.8c-4.891 9.374-5.692 10.162-8.733 8.59-1.354-.701-1.59-2.315-.601-4.128.835-1.534 3.421-7.194 3.421-7.49 0-.138.72-1.745 1.6-3.572s1.6-3.513 1.6-3.748c0-1.98 3.478-1.464 5.381.799m15.349 5.067c-1.177 1.293-2.878 3.873-4.011 6.082-.282.55-.653 1.18-.825 1.4-.402.518-4.066 5.965-5.992 8.91-.823 1.259-1.715 2.74-1.982 3.29s-.988 1.752-1.603 2.672c-1.238 1.853-1.394 2.817-.565 3.484 8.715 7.018 10.808 8.115 12.1 6.344 1.658-2.274 1.527-2.558-2.513-5.446-3.264-2.333-3.34-3.12-.694-7.154 1.979-3.016 3.404-3.521 5.433-1.925 1.754 1.38 2.903 1.426 4.074.164 1.214-1.31 1.076-2.288-.498-3.524-2.531-1.987-2.954-2.497-2.954-3.563 0-1.184 1.844-3.452 2.807-3.452.535 0 4.592 2.502 5.559 3.428 1.452 1.391 3.017 1.556 3.992.422 1.591-1.849 1.281-3.37-1.072-5.25l-2.494-2c-5.499-4.474-7.44-5.334-8.762-3.882m-182.41.911c-1.27.343-2.362 1.081-7.617 5.148-2.42 1.873-3.9 3.297-3.9 3.752 0 .571 9.448 11.745 12.772 15.106.345.349 1.708 1.865 3.028 3.369l2.929 3.265c.858.863 2.368.611 3.751-.624l1.292-1.154-1.073-1.546c-.591-.85-1.618-2.14-2.284-2.867-1.923-2.101-2.172-2.779-1.434-3.905.924-1.411 2.015-1.224 5.921 1.016 4.039 2.316 4.941 2.603 6.414 2.043 1.898-.722 1.475-2.205-1.036-3.621-4.161-2.349-5.48-3.803-5.48-6.041 0-6.557-8.315-15.284-13.283-13.941m3.072 6.434c3.57 2.808 4.39 6.238 2.051 8.577-1.894 1.894-2.597 1.745-5.234-1.103-3.608-3.897-3.816-5.222-1.139-7.237 1.761-1.325 2.862-1.385 4.322-.237m202.76 12.037c-.908 1.026-2.812 3.915-3.585 5.437-.151.296-1.913 3.039-3.916 6.095-8.325 12.7-8.821 13.576-8.417 14.849.623 1.963 2.024 1.754 8.911-1.329 6.691-2.995 6.956-1.297 1.038 6.648-2.688 3.608-2.97 4.694-1.355 5.206.728.231 4.152-.727 4.97-1.39.226-.183 1.58-.813 3.01-1.4s3.68-1.576 5-2.198c2.624-1.236 3.827-1.769 10.4-4.61 5.836-2.522 6.125-2.804 5.041-4.927-1.221-2.395-2.807-2.81-5.818-1.523-8.403 3.59-9.447 2.738-4.43-3.614 1.798-2.276 2.958-4.095 2.828-4.434-.122-.317-.221-.72-.221-.897 0-.709-1.985-1.629-2.695-1.248-.388.208-1.56.751-2.605 1.206l-3.6 1.614c-4.07 1.878-5.098 2.086-5.474 1.103-.365-.953-.141-1.425 3.082-6.49.279-.439.785-1.338 1.124-1.998a70.54 70.54 0 0 1 1.146-2.134c1.402-2.472-2.594-6.047-4.434-3.966m-236.91 9.4c-4.2 4.15-5.344 6.86-3.974 9.419.942 1.76 4.939 4.281 6.788 4.281 2.054 0 3.133 1.178 3.142 3.43.007 1.874.427 2.353 4.461 5.097 6.389 4.346 7.998 4.106 12.986-1.938 1.176-1.425 1.706-2.486 1.87-3.744.28-2.155.887-2.802 2.917-3.111 4.123-.628 4.501-3.228.672-4.636-2.755-1.013-3.421-1.691-3.877-3.946-.162-.801-.697-1.257-2.257-1.928-2.583-1.112-3.166-.9-3.166 1.149 0 3.393-7.077 4.118-7.806.799-.142-.644-.423-1.172-.626-1.172s-.368-.207-.368-.461c0-1.191-5.956-5.539-7.588-5.539-.494 0-1.817.959-3.174 2.3m6.369 4.4c1.512 1.921.531 4.9-1.614 4.9-1.362 0-3.593-1.974-3.593-3.179 0-2.489 3.653-3.697 5.207-1.721m13.406 8.112c2.096 1.97.285 7.225-2.473 7.174-3.332-.061-6.624-3.988-5.345-6.376 1.134-2.119 5.895-2.604 7.818-.798m239.59 8.553l-7.401 4.451c-.392.228-.958.612-1.256.853s-1.533.945-2.743 1.564-2.65 1.43-3.2 1.802c-2.285 1.543-5.496 3.532-6.891 4.268-3.504 1.848-3.233 3.391 2.176 12.397 1.038 1.729 5.915.957 5.915-.936 0-.304-1.538-3.791-2.216-5.026-1.03-1.872.371-4.738 2.315-4.738.241 0 .722-.25 1.07-.555 1.751-1.541 5.231-.362 5.231 1.772 0 1.015 1.684 1.232 3.379.435 2.138-1.005 2.457-1.775 1.426-3.444-1.157-1.871-1.05-3.478.295-4.464 2.67-1.959 3.906-1.372 5.855 2.781 1.905 4.06 2.555 4.58 4.524 3.618 1.74-.85 2.065-1.792 1.22-3.527-6.187-12.7-6.571-13.145-9.699-11.251m-276.77 6.28c-2.007 1.233-3.18 2.832-5.459 7.443-3.014 6.1-2.983 6.29 1.275 7.667l4.353 1.442c.77.269 2.75.893 4.4 1.387s3.45 1.077 4 1.296c2.494.992 11.766 3.92 12.413 3.92.765 0 2.387-2.262 2.387-3.328 0-.639-2.322-1.868-4.6-2.436-6.69-1.665-4.73-5.446 2.403-4.636 5.759.655 7.485 0 6.835-2.591-.247-.984-.649-1.087-6.438-1.646-2.589-.251-2.925-.395-4.458-1.917-2.169-2.152-3.526-3.129-6.169-4.439l-3.344-1.707c-1.482-.796-6.549-1.1-7.598-.455m5.457 5.173c6.049 1.68 7.172 8.993 1.207 7.864-3.642-.689-7.295-2.684-7.295-3.984 0-2.827 2.998-4.738 6.088-3.88m280.31 10.382c-.33.213-1.013.391-1.517.394-1.203.008-5.716 2.129-6.531 3.069-.835.963-1.581 3.975-1.944 7.855-.348 3.707-1.451 5.25-4.07 5.693-3.092.522-4.975-2.787-2.738-4.811 1.345-1.217.728-5-.815-5-6.789 0-8.195 8.818-2.307 14.475 2.135 2.051 2.69 2.122 7.257.934 7.031-1.83 7.946-2.989 7.769-9.842l-.104-4.025 1.306-1.171c3.775-3.384 8.143.629 5.314 4.881l-1.232 1.853.792 1.847c1.283 2.994 5.266 2.087 7.014-1.596.748-1.577.654-6.132-.147-7.102-.207-.25-.494-1.084-.64-1.854-.711-3.764-5.106-7.087-7.407-5.6m-296.6 5.984c-1.004.419-2.409 4.016-4.211 10.78-1.194 4.486-1.355 4.306 4.811 5.399l6.6 1.24c2.974.6 5.735 1.108 10.6 1.949 1.65.285 3.749.751 4.664 1.036 3.034.943 3.509.552 4.97-4.089.709-2.254 1.423-4.279 1.586-4.499 1.619-2.182.897-4.782-1.455-5.236-1.629-.314-2.378.468-3.218 3.361-1.174 4.041-1.395 4.213-5.078 3.961-4.078-.279-4.469-.647-4.469-4.198v-2.678l-1.557-.514c-2.097-.691-3.173.01-3.793 2.471-.778 3.09-7.246 3.089-7.304-.001-.02-1.05 1.236-5.455 1.724-6.047.76-.922-1.723-3.663-2.984-3.294-.047.014-.446.176-.886.359m303.62 14.895c-1.027.884-1.053 1-.629 2.889.464 2.073.247 4.037-.499 4.497-.682.422-9.26 2.504-13.846 3.36-1.183.221-2.456.565-2.828.765s-1.894.574-3.38.832c-4.457.777-5.653 2.545-3.51 5.191l.74.914 3.365-.661 7.365-1.495c14.634-3.048 14.586-3.051 15.169 1.076.48 3.391.448 3.353 2.844 3.353 3.183 0 3.589-1.313 2.43-7.856l-1.029-6.004c-1.248-7.559-3.054-9.56-6.192-6.861m-309.5 4.598c-.755.193-.935.659-1.303 3.38-.277 2.044.679 3.275 2.949 3.799a8.02 8.02 0 0 1 1.835.703c.44.255 1.88.878 3.2 1.384l3.3 1.28c2.339.936.752 2.688-2.904 3.206-1.463.207-2.96.531-3.328.719s-1.418.457-2.334.597c-3.144.479-4.934 2.1-4.934 4.466 0 1.297 1.235 1.581 4.47 1.028l15.33-2.82c2.2-.457 5.17-1.026 6.6-1.265 5.038-.84 7.608-2.74 6.066-4.485-.702-.795-2.522-1.688-8.666-4.254l-5.2-2.188-3.2-1.339-5.8-2.414c-4.3-1.803-5.118-2.044-6.081-1.797m313.65 20.287c-.092.09-2.687.369-5.767.62s-7.04.639-8.8.86-5.244.55-7.741.731c-6.172.448-5.954.166-6.125 7.957-.156 7.127.007 7.487 3.215 7.143 2.223-.239 2.437-.616 2.445-4.305.008-4.063.619-4.688 4.746-4.853 3.487-.14 4.06.336 4.06 3.368 0 2.274.956 3 3.355 2.55 1.78-.334 1.959-.639 1.9-3.221-.063-2.738.729-3.504 3.861-3.73 3.341-.242 3.8.391 3.894 5.364.08 4.266.24 4.536 2.681 4.546 2.509.01 2.807-.879 2.854-8.504.047-7.662-.299-8.69-2.924-8.69-.818 0-1.563.074-1.654.164m-312.65 7.436c-4.61.226-5.029.458-5.029 2.787 0 2.261-.1 2.228 6.273 2.088 7.178-.157 8.603 1.15 3.679 3.375-.683.309-1.513.729-1.843.934s-1.95 1.134-3.6 2.066c-3.922 2.215-4.4 2.653-4.4 4.022 0 2.284 3.056 2.214 22-.507l5.941-.783c3.452-.414 4.059-.808 4.059-2.641 0-1.862-1.089-2.221-5.747-1.894-4.165.293-5.166-.137-4.045-1.737.558-.797 6.571-4.51 7.304-4.51 1.2 0 2.22-1.991 1.454-2.838-.789-.872-12.362-1.033-26.046-.362m284.31 15.567c-2.275 2.275-1.122 3.936 3.259 4.696 5.712.991 6.44 3.108 1.437 4.179-5.843 1.25-7.929 2.451-7.929 4.563 0 1.81.739 1.922 6.59.997 5.435-.86 7.681-.804 8.067.202.65 1.693 4.602 3.041 10.743 3.664 5.784.587 9.108-4.394 9.511-14.252.135-3.315.19-3.304-21.511-4.207-3.08-.128-6.44-.332-7.467-.454-1.541-.182-2.012-.076-2.7.612m-260.62 3.31c-.353 1.042-.365 1.763-.067 3.998.343 2.57-.4 4.325-1.828 4.325-.434 0-1.925.303-3.314.673-2.739.73-4.606.194-4.606-1.322 0-1.848-1.264-3.351-2.817-3.351-2.222 0-2.783.77-2.783 3.818 0 2.894-.977 3.862-3.897 3.862-1.932 0-3.703-3.1-3.703-6.48 0-1.867-2.339-2.625-3.986-1.292-.983.796-.653 6.722.617 11.092.985 3.39.876 3.343 5.169 2.251.88-.224 3.31-.763 5.4-1.198l10.8-2.282c11.476-2.36 10.869-1.587 9.086-11.571l-.5-2.8-1.697-.123c-1.131-.082-1.755.051-1.874.4m281.27 3.343c4.792.431 5.69 1.234 4.443 3.971-1.987 4.362-11.131 2.594-11.131-2.153 0-1.356 1.487-2.561 2.83-2.292.631.126 2.367.339 3.858.474m-25.901 15.21c-1.633 3.81-1.119 4.168 8.365 5.822 4.948.863 5.273 2.8.585 3.496-10.565 1.567-13.833 2.834-14.382 5.575-.295 1.476.522 2.017 5.245 3.473l5 1.618c.77.281 2.57.861 4 1.29l11.471 3.553c3.676 1.208 4.301 1.186 5.275-.181 1.683-2.364 1.156-4.831-1.046-4.897-2.11-.063-10.704-3.41-10.819-4.214-.182-1.269.71-1.733 4.163-2.166 1.736-.217 3.606-.567 4.156-.776s2.298-.57 3.884-.803c4.479-.656 7.089-3.307 6.014-6.11-.262-.681-4.501-2.132-7.189-2.461-1.04-.127-2.21-.4-2.6-.607s-2.149-.651-3.909-.988-5.54-1.146-8.4-1.8-6.053-1.314-7.095-1.466l-1.895-.277-.823 1.919m-255.59.57c-.77.169-2.84.705-4.6 1.192l-5.4 1.414c-1.21.292-2.74.718-3.4.947a104.01 104.01 0 0 1-3.4 1.07c-2.547.756-2.935 1.029-4.467 3.137-1.353 1.863-1.454 3.568-.381 6.432 1.33 3.549 1.735 4.784 1.941 5.919.362 2 2.798 2.365 6.201.931.719-.302 2.344-.924 3.612-1.381l4.5-1.646 4.494-1.664c1.265-.467 3.04-1.187 3.944-1.6s1.918-.751 2.254-.751 1.126-.269 1.756-.598 1.427-.598 1.771-.6c1.068-.004 2.473-1.609 2.233-2.552-2.011-7.911-5.784-11.409-11.058-10.25m1.2 5.014c3.388.941 3.705 4.46.472 5.245a6.77 6.77 0 0 0-1.861.801c-.434.297-1.037.54-1.34.54s-1.117.264-1.811.587c-1.316.612-9.006 3.295-10.553 3.681-3.258.813-4.874-3.429-2.36-6.194.856-.943 4.335-2.872 5.186-2.876.257-.002 1.007-.285 1.667-.629s2.721-.8 4.58-1.011 3.466-.471 3.571-.576.474-.113.82-.018l1.629.45" fill="#fff" fill-rule="evenodd"/><path d="M403.156 328.081l-276.23 1.582c-.649.718.488 24.641-.271 85.611-.17 13.697-.517 12.829 5.258 13.223 5.179.353 5.507.525 9.307 4.984 9.991 11.721 9.343 11.488 14.426 5.231 8.139-10.02 8.326-10.15 14.801-10.348 7.063-.216 8.032-.001 7.973-6.041-.069-7.138-1.159-7.24 7.238-7.24h5.65l1.225 1.223c1.289 1.29 1.357 2.467.484 8.377-.146.989.03 1.78.605 2.699l.813 1.301h9.322c9.867 0 9.885.002 13.09 2.076 13.085 8.675 27.768 16.303 39.617 24.098 3.676 2.477 7.606 4.61 8.51 4.619 13.206-8.239 25.796-20.407 36.516-28.078 3.959-2.77 3.668-2.715 14.77-2.715 12.092 0 12.795.34 13.096-6.352.334-7.412-1.327-7.252 7.617-7.244 9.109.009 9.074-.02 9.074 7.529 0 6.269-.205 6.066 6.154 6.066 7.447 0 8.149.448 15.064 9.6 4.389 5.809 4.513 5.957 5.125 6.195.648.253 2.635-1.815 5.18-5.394 1.018-1.43.84-2.908.959-3.018s.749-.921 1.402-1.801c3.906-5.269 5.094-5.797 13.059-5.799 7.897-.001 10.27-.632 10.783-6.187.736-7.963.134-93.443-.619-94.197z"/><g fill-rule="evenodd"><path d="M132.871 335.831c-.488 3.271-.009 15.008-.203 26.507l-.409 24.4-.447 19.831-.252 8.031 1.104.869c.786.618 1.66.869 3.025.869 3.277 0 5.307 1.427 8.818 6.2 4.24 5.765 4.065 5.795 9.904-1.703 3.226-4.142 3.533-4.297 8.508-4.297 5.266 0 4.915.426 5.079-6.151.113-4.58.258-5.647.877-6.467l.741-.982h13.408c16.39 0 14.837-.736 14.837 7.03 0 4.541.113 5.67.6 5.978.546.345 6.127.523 12.8.408 1.922-.034 2.991.167 4.099.769.824.448 1.686.815 1.916.815s.905.337 1.501.749 2.254 1.491 3.684 2.398 2.78 1.793 3 1.969 2.02 1.273 4 2.439l6.4 3.876c1.54.967 3.16 1.943 3.6 2.169s1.284.724 1.875 1.106c2.778 1.793 8.275 4.894 8.677 4.894.246 0 .448.158.448.351s.54.576 1.2.849 1.2.655 1.2.849.27.351.6.351.96.36 1.4.8.904.8 1.03.8 1.483.732 3.014 1.626c3.915 2.286 4.418 2.233 8.556-.915 1.804-1.373 5.239-4.126 5.4-4.328.187-.235 4.03-3.038 6.009-4.383.486-.33 2.167-1.6 3.737-2.821l5.254-3.978c1.32-.965 2.58-1.969 2.8-2.231.477-.566 7.805-5.994 9.799-7.258 1.321-.836 1.849-.888 9.201-.906 9.765-.023 8.993.528 9.031-6.447.039-7.25-.634-6.735 8.945-6.842 24.521-.274 22.134-1.027 22.447 7.086.269 6.982-.308 6.397 6.311 6.397 5.374 0 8.066.734 8.066 2.2 0 .137.315.598.7 1.025s1.231 1.585 1.879 2.575c3.464 5.289 4.228 5.157 8.78-1.515.638-.934 1.853-2.326 2.701-3.092l1.542-1.393h5.524c5.005 0 5.605-.076 6.399-.816l.875-.815v-79.03m-268.59 73.653c-.17 13.697-.516 12.828 5.259 13.222 5.179.353 5.505.527 9.305 4.986 9.991 11.721 9.344 11.487 14.427 5.229 8.139-10.02 8.325-10.15 14.8-10.348 7.063-.216 6.838-.014 6.779-6.054-.069-7.138.035-7.227 8.432-7.227h5.651l1.224 1.224c1.289 1.29 1.357 2.466.484 8.376-.146.989.031 1.781.606 2.7l.812 1.3h9.322c9.867 0 9.885.003 13.09 2.077a40.64 40.64 0 0 0 2.4 1.395c.77.411 1.85 1.035 2.4 1.385s2.8 1.738 5 3.082 4.188 2.601 4.418 2.792a3.93 3.93 0 0 0 .8.508c.45.19 6.648 3.891 7.971 4.761.502.33 2.69 1.646 4.862 2.925 3.187 1.8 6.192 3.908 9.349 5.748.33.152 1.418.829 2.418 1.502 3.676 2.477 7.605 4.609 8.509 4.618.821.008 6.762-4.299 10.673-7.739 1.43-1.258 3.5-2.89 4.6-3.628s2.54-1.847 3.2-2.464 3.09-2.546 5.4-4.286 4.29-3.285 4.4-3.433c.344-.461 6.193-5.092 8.244-6.527 3.959-2.77 3.667-2.716 14.768-2.716 12.092 0 11.077.548 11.378-6.144.334-7.412.392-7.459 9.336-7.451 9.109.009 9.074-.021 9.074 7.528 0 6.269-.205 6.067 6.154 6.067 7.447 0 8.15.448 15.065 9.6 4.389 5.809 4.512 5.958 5.124 6.196.648.253 2.635-1.817 5.18-5.396 1.018-1.43 1.947-2.69 2.066-2.8s.749-.92 1.402-1.8c3.906-5.269 5.095-5.797 13.06-5.799 7.897-.001 7.391.333 7.904-5.223.736-7.963.447-86.719.421-89.837l-271.63.61c-.019 2.858.07 1.619.045 4.346l267.35-.319.06 84.893-.958.776c-.866.701-1.524.766-6.818.672-5.766-.103-5.875-.089-6.865.888-1.382 1.364-5.506 6.207-7.147 8.393-1.665 2.219-2.352 2.8-3.311 2.8-.69 0-3.101-2.222-3.101-2.858 0-.478-3.578-5.675-4.839-7.027-1.418-1.521-2.051-1.649-9.046-1.829-7.088-.182-6.854.049-6.889-6.804-.032-6.453.45-6.026-7.146-6.346-18.597-.785-18.008-.959-18.561 5.491-.695 8.116-.217 7.759-10.393 7.767-8.958.007-7.981-.326-15.463 5.273l-9.111 6.733c-1.68 1.21-3.706 2.781-4.503 3.491s-1.556 1.295-1.688 1.3-.612.324-1.069.709a101.68 101.68 0 0 1-2.103 1.7c-.7.55-1.501 1.215-1.78 1.478-7.348 6.919-12.693 9.314-15.813 7.084-2.864-2.047-6.125-4.107-8.796-5.557-1.43-.777-3.59-2.137-4.8-3.024s-2.56-1.775-3-1.974-2.6-1.542-4.8-2.985-4.409-2.8-4.908-3.016-3.14-1.745-5.868-3.399-5.154-3.007-5.392-3.007-.432-.162-.432-.361-.495-.564-1.1-.813-2.074-1.001-3.264-1.673c-3.163-1.785-6.454-2.353-12.022-2.073-8.864.446-9.614-.089-9.614-6.862 0-6.187.944-5.742-12.513-5.893-13.04-.147-11.87-.686-11.886 5.475-.019 6.981-.054 7.02-6.752 7.39l-4.551.251-1.649 1.83c-3.003 3.334-5.658 6.514-6.358 7.615-1.625 2.555-3.553 2.349-5.835-.625-6.505-8.477-6.899-8.752-13.243-9.249-1.664-.13-3.411-.512-3.945-.862l-.959-.628.266-19.602.575-69.574c-2.985-.001-1.091.003-3.835.031m172.29 12.771l1.395.285.06 3.184c.211 11.149.666 23.341.885 23.695.412.667 4.381 2.033 5.247 1.807.543-.142.856-.66 1.006-1.662 1.419-9.514 4.594-13.78 7.944-10.675 1.627 1.508 1.489 3.815-.342 5.7l-1.4 1.442.002 4.038c.002 2.936.178 4.367.644 5.239 2.264 4.239 1.073 5.454-3.759 3.832-3.826-1.284-8.868-2.364-13.241-2.836-5.683-.613-6.647-1.273-5.396-3.693.715-1.383.641-9.295-.22-23.27-.53-8.608-.486-8.651 7.175-7.086m-29.584 6.204c.716.357 1.801.649 2.412.649 1.833 0 2.197.734 2.181 4.398-.02 4.759-.781 5.066-4.877 1.97-4.935-3.731-10.165.317-9.151 7.081.919 6.127 9.661 7.54 9.465 1.53-.1-3.07 1.987-3.813 4.74-1.686 6.498 5.02-1.545 13.837-10.719 11.751-12.02-2.734-15.076-16.267-5.466-24.208 2.95-2.438 8.15-3.115 11.415-1.485m-21.019.909c.416.416.566.97.405 1.5-.437 1.437-1.129 11.375-1.196 17.171-.05 4.311-.191 5.613-.638 5.9-1.07.689-3.614 1.213-5.297 1.091l-1.676-.122.03-2c.016-1.1.253-5.893.525-10.651.443-7.711.428-8.815-.135-10.162-.578-1.383-.576-1.572.016-2.227 1.156-1.278 6.833-1.634 7.966-.5m-90.617.723l2.985.017.784 2c1.099 2.802 1.143 8.563.085 10.911-1.142 2.535-2.892 2.136-3.848-.878-1.585-4.994-6.151-7.128-8.627-4.033-2.399 2.998-.449 7.264 4.598 10.064 6.358 3.526 12.558 12.92 11.076 16.782-.126.329-.41 1.727-.631 3.108-.994 6.222-5.832 10.597-12.118 10.957-4.235.243-4.037-.025-4.311 5.837-.294 6.296-1.279 7.155-5.306 4.626-2.916-1.831-2.99-2.204-2.624-13.174.407-12.169.669-15.06 1.435-15.826 1.431-1.431 3.1.412 3.669 4.05.759 4.856 2.564 6.676 6.618 6.676 4.189 0 6.073-3.326 4.816-8.5-1.056-4.344-1.55-4.907-8.166-9.293-5.362-3.556-7.62-7.55-7.62-13.478 0-5.521 6.642-10.942 12.4-10.12.99.141 3.143.265 4.785.274m77.495-.143c.307.307.32.824.044 1.7-.218.693-.45 5.988-.515 11.767-.126 11.268-.353 12.713-2.06 13.141-1.673.42-2.674-.15-6.349-3.618-1.98-1.868-3.803-3.404-4.051-3.413-1.265-.048-1.575 3.362-.732 8.054.303 1.692-.848 2.526-4.892 3.545-2.998.755-3.411.313-3.157-3.376.151-2.197.292-17.228.202-21.572-.022-1.065.704-1.775 2.734-2.673 3.064-1.355 4.265-.652 6.179 3.617 2.89 6.445 5.128 6.024 4.791-.902-.214-4.406-.051-4.792 2.526-5.965 1.79-.814 4.608-.977 5.28-.305m-25.083 7.757c.506.608.28 4.359-.314 5.221-.156.227-2.03.832-4.166 1.346-4.297 1.035-5.47 1.829-4.735 3.203.528.987.706 1.006 2.473.268 1.999-.835 2.825-.092 3.061 2.753.255 3.084-.432 4.045-3.078 4.299-2.659.255-3.674 1.378-3.536 3.913.12 2.205 1.474 2.577 4.447 1.223.994-.453 1.924-.823 2.067-.823s.798-.382 1.454-.85c1.995-1.421 3.13-.592 3.13 2.287 0 2.953-.935 3.822-6 5.579l-6.6 2.397c-6.433 2.479-6.028 3.221-6.1-11.199-.04-8.109-.211-12.263-.541-13.178-.855-2.364-.837-2.374 9.241-5.231l4.8-1.41c1.642-.545 3.862-.443 4.397.202m115.45.442c3.029 1.339 2.75-.103 2.75 14.227v12.534l-1.7.123c-1.067.077-2.03-.109-2.589-.5-.489-.343-1.196-.623-1.571-.623-1.617 0-1.942-1.015-1.708-5.323.121-2.243.055-7.677-.148-12.077-.476-10.295-.253-10.669 4.966-8.361m13.903 4.886c1.43.897 2.644 2.024 3.096 2.875 1.163 2.188 3.551 7.575 3.551 8.009 0 .512 1.486 1.991 2 1.991.614 0 .476-4.644-.185-6.226-.803-1.922-.168-3.374 1.474-3.374 1.357 0 5.023 1.134 5.344 1.653.27.437.497 25.054.241 26.078-.722 2.879-7.674-.23-7.674-3.432 0-.359-.157-.749-.348-.867s-.834-1.164-1.427-2.323-1.598-2.722-2.233-3.471l-1.153-1.361-.484 1.061c-.381.837-.374 1.517.034 3.215.586 2.445.384 3.047-1.025 3.047-.939 0-5.635-1.764-6.258-2.351-.222-.209-.542-24.177-.344-25.749.108-.853 3.197-.151 5.391 1.225m-152 1.508c1.361 3.545-.433 10.558-2.338 9.139l-2.212-1.666c-5.075-3.838-10.985 5.739-7.75 12.558 2.585 5.447 9.874 3.756 8.18-1.898-1.344-4.487 4.22-4.141 6.345.395l.951 2.031-.762 2.241c-1.416 4.166-5.427 6.907-10.262 7.011-7.054.153-11.245-4.529-12.462-13.924-.978-7.545 6.528-16.583 13.322-16.041 1.227.098 2.771.052 3.431-.103 2.106-.494 3.302-.407 3.557.257m178.4 6.321c.729.305 2.298.676 3.487.826 4.713.593 9.764 1.872 10.639 2.693 2.846 2.674.77 8.244-2.242 6.017-1.911-1.413-6.7-2.398-7.546-1.552-1.05 1.051-.181 2.018 2.05 2.28 2.313.272 2.705.661 3.082 3.062.471 2.998-1.366 5.336-2.948 3.754-1.332-1.332-3.332.199-2.837 2.172.593 2.361 7.06 3.528 9.084 1.64 2.674-2.496 4.023-1.171 3.451 3.391-.619 4.936-2.082 6.025-6.375 4.747-.768-.229-3.647-.683-6.397-1.009-8.842-1.047-10.15-1.699-8.545-4.254 1.384-2.204 1.554-14.128.307-21.619-.457-2.746 1.384-3.571 4.79-2.148m-83.178 13.036l1.026.39v5.479c0 4.536-.114 5.604-.662 6.21-1.36 1.502-3.738.206-3.738-2.036 0-1.766-.389-2.433-1.42-2.433-1.085 0-2.18 1.364-2.18 2.715 0 2.332-2.601 3.553-3.598 1.688-.649-1.212-.67-10.598-.026-11.374.96-1.157 2.189-.744 3.557 1.197 1.623 2.302 3.127 2.392 3.851.229.248-.739.792-1.594 1.21-1.9.903-.66.718-.645 1.98-.165m-51.307.762c4.957 2.15 5.831 8.454 1.586 11.438-4.709 3.309-12.152-.284-11.555-5.578.53-4.705 5.668-7.726 9.969-5.86m15.833.114c1.299.396 1.596 1.098 1.057 2.501-.177.463-.797.635-2.3.639-2.928.009-3.576.526-2.126 1.695l1.131.913-.825 1.048c-.453.576-1.277 1.162-1.831 1.301-.848.213-1.007.486-1.012 1.745-.01 2.439-1.56 3.531-3.349 2.358-1.015-.665-1.107-10.571-.111-11.811 1.004-1.249 5.883-1.452 9.366-.389m17.551-.491c2.008.194 4.224.65 4.924 1.012l1.274.659-.956.752c-.526.414-1.482.881-2.125 1.039-1.614.396-1.755.735-1.762 4.247-.005 2.654-.128 3.199-.881 3.9-2.159 2.011-3.525.551-3.525-3.766 0-3.43-.335-4.218-1.791-4.218-2.342 0-3.394-2.349-1.509-3.371 1.297-.704 1.586-.715 6.351-.254m31.92.254c1.498 1.497.391 2.571-2.651 2.571-2.443 0-2.663.145-1.767 1.169 1.138 1.3 1.154 2.342.047 3.068-2.035 1.333-1.224 2.345 1.991 2.483 3.841.166 5.874 2.267 3.183 3.29-1.489.566-8.18.476-9.374-.126-1.333-.673-2.147-10.389-1.016-12.116.807-1.232 8.426-1.501 9.587-.339m-69.503 3.86c-1.507 1.097-1.514 3.502-.014 4.682 1.351 1.063 2.31 1.049 3.33-.046 2.249-2.414-.702-6.54-3.316-4.636m-12.746 5.802c2.099 1.361 2.308 2.011 1.462 4.557-1.055 3.178-.299 3.664 3.112 2.002 4.113-2.003 4.704-1.679 4.704 2.583 0 3.859.783 4.157 3.507 1.333 2.157-2.235 3.647-2.547 5.439-1.137 1.223.962 1.346 1.938.354 2.805l-9.7 8.409c-3.024 2.603-5.2 1.44-5.2-2.78 0-1.665-.209-2.632-.7-3.238l-.7-.865-1.8 1.014c-2.848 1.603-3.664 1.875-4.84 1.617-2.449-.538-2.738-3.17-.963-8.791.278-.88.626-2.602.773-3.826.532-4.402 1.827-5.45 4.552-3.683m97.181 4.384c3.906 1.831 5.479 5.503 3.75 8.755-3.156 5.935-15.253 11.687-15.253 7.252 0-.217-.379-1.224-.843-2.238l-1.357-3.044c-.283-.66-.994-2.161-1.58-3.337-1.552-3.111-1.357-3.57 2.38-5.595 6.34-3.436 8.699-3.764 12.903-1.793m-7.87 4.155c-1.968.881-2.113 1.876-.735 5.047 1.336 3.076 2.815 3.23 5.602.585 3.515-3.337-.254-7.698-4.867-5.632m-20.139 4.812c.272.527.511 1.588.532 2.358.172 6.447 4.417 8.401 9.102 4.189 2.325-2.09 3.398-1.778 4.066 1.185.628 2.785-.24 3.405-7.594 5.418-7.371 2.019-7.705 1.835-9.403-5.192-.612-2.53-1.394-5.195-1.739-5.922-1.401-2.953 3.534-4.949 5.036-2.036m-36.773-.332c7.839 2.323 9.827 9.744 4.094 15.29l-1.654 1.6-3.68-.024c-7.95-.053-14.404-6.391-12.258-12.037 1.88-4.944 6.966-6.764 13.498-4.829m23.888 1.479c3.973 1.193 5.85 4.912 3.846 7.622-1.14 1.542-1.088 2.992.145 4.064 3.388 2.945-.873 4.706-4.621 1.909-3.445-2.57-5.252-2.583-5.505-.041-.156 1.571-1.921 2.642-3.707 2.25-2.275-.5-2.367-.821-2.367-8.227v-6.778l1.3-.823c1.476-.934 7.766-.92 10.909.024m-30.462 4.239c-1.485 1.575-1.574 1.931-.86 3.444 1.817 3.85 9.129 3.837 9.107-.016-.023-4.174-5.425-6.419-8.247-3.428m24.372.272c-1.035 2.311 2.145 3.613 4.394 1.798 1.68-1.355.648-2.698-2.075-2.698-1.601 0-1.982.148-2.319.9" fill="#ece409"/><path d="m181.66 163.23c-12.85 11.533 35.105 110.04 35.105 110.04l79.956-134.19 25.327 49.874 20.809-21.656s-14.144-13.651-20.794-17.729-24.983-12.821-24.983-12.821-26.543-10.632-56.593-4.132-45.976 19.088-58.827 30.621z" fill="#fff" stroke="#000"/></g></svg>
