<svg xmlns="http://www.w3.org/2000/svg" fill-rule="evenodd" stroke-linejoin="round" stroke-miterlimit="2" viewBox="0 0 40 40"><circle cx="20" cy="20" r="19.755" fill="#207b5a"/><circle cx="20" cy="20" r="15.375" fill="#ffebd2"/><g fill="#207b5a"><path d="M21.426 28.201l1.434-.509 2.578 7.256-1.434.509z"/><path d="M26.3 15.416v12.957H13.787V15.416c.485-3.001 3.147-5.292 6.256-5.292s5.771 2.291 6.256 5.292zm-.488.049l.044 12.261H14.231l-.044-12.261c.451-2.788 3-4.917 5.889-4.917s5.286 2.128 5.737 4.917z"/><path d="M18.727 28.201l-1.434-.509-2.578 7.256 1.434.509z"/><path d="M13.019 33.381h14.023v.979H13.019zm1.012-1.456h12.028l.5.979H13.68zm.55-1.427h10.791l.448.979H14.267l.314-.979zm.467-1.492h9.61l.399.979H14.769l.28-.979zm3.679-13.368h2.699v8.114h-2.699z"/><path d="M24.134 18.346v2.699H16.02v-2.699z"/></g><g transform="matrix(.065278 0 0 .065278 .41707 .41707)" fill="#d24053" font-family="Arial-BoldMT, Arial, sans-serif" font-size="83.333" font-weight="700"><text transform="matrix(.47382 .51526 -.73609 .67689 658.08 -223.64)" x="171.071" y="459.96">T</text><text transform="matrix(-.57578 -.3981 .5687 -.82254 61.036 885.14)" x="171.071" y="459.96">T</text><text transform="matrix(-.46576 -.52256 .7465 -.66538 -67.406 816.76)" x="167.824" y="459.96">H</text><text transform="matrix(-.33692 -.61359 .87655 -.4813 -173.6 720.94)" x="169.433" y="459.96">E</text><text transform="matrix(-.12129 -.68941 .98487 -.17327 -284.73 536.58)" x="167.824" y="459.96">D</text><text transform="matrix(.06445 -.69703 .99575 .09207 -328.23 381.56)" x="169.433" y="459.96">E</text><text transform="matrix(.20828 -.6683 .9547 .29755 -331.1 244.07)" x="167.824" y="459.96">N</text><text transform="matrix(.35626 -.60256 .8608 .50895 -300.93 102.4)" x="169.433" y="459.96">V</text><text transform="matrix(.56232 -.41689 .59556 .80331 -171.81 -119.16)" x="167.824" y="459.96">R</text><text transform="matrix(.6674 -.21115 .30164 .95342 -11.26 -249.46)" x="167.824" y="459.96">&amp;</text><text transform="matrix(.67306 .19232 -.27475 .96152 307.31 -340.97)" x="169.433" y="459.96">S</text><text transform="matrix(.6613 .2295 -.32786 .94473 379.26 -330.82)" x="167.824" y="459.96">A</text><text transform="matrix(.0652 .69696 -.99565 .09314 903.53 92.108)" x="167.824" y="459.96">A</text><text transform="matrix(.55678 .42426 -.60608 .7954 562.39 -281.08)" x="171.071" y="459.96">L</text><text transform="matrix(.29248 .63597 -.90853 .41783 804.74 -87.814)" x="171.071" y="459.96">L</text><text transform="matrix(-.09925 .69293 -.9899 -.14178 934.03 245.06)" x="167.824" y="459.96">K</text><text transform="matrix(-.58344 .38678 -.55254 -.83349 762.56 736.36)" x="169.433" y="459.96">Y</text><text transform="matrix(-.4973 .49264 -.70377 -.71043 842.92 634.13)" x="167.824" y="459.96">R</text><text transform="matrix(.52614 -.4617 .65958 .75164 -224.98 -60.6)" x="169.433" y="459.96">E</text><text transform="matrix(-.23927 .65784 -.93977 -.34181 929.5 382.12)" x="169.433" y="459.96">E</text></g></svg>
