<svg viewBox="0 0 40 40" xmlns="http://www.w3.org/2000/svg" fill-rule="evenodd" clip-rule="evenodd" stroke-linejoin="round" stroke-miterlimit="2"><g transform="translate(-37.767 -37.767) scale(.19256)"><circle cx="300" cy="300" r="90.192" fill="#fff"/><clipPath id="a"><circle cx="300" cy="300" r="90.192"/></clipPath><g clip-path="url(#a)"><g transform="matrix(.339 0 0 .339 198.297 198.297)"><circle cx="300" cy="300" r="270.468" fill="#207b5a"/><circle cx="300" cy="300" r="270.468" fill="#ffebd2" transform="translate(38.754 38.754) scale(.87082)"/><path fill="#207b5a" d="M321.842 425.625l21.965-7.805 39.497 111.162-21.965 7.804z"/><path d="M395.245 229.773h1.255v198.484H204.818V229.773h1.256c7.428-45.978 46.949-81.069 94.585-81.069 47.637 0 87.156 35.09 94.586 81.069zm-6.705 4.161h1.166V418.35H211.612V233.934h1.166c6.903-42.718 43.62-75.322 87.881-75.322 44.26 0 80.978 32.604 87.88 75.322z" fill="#207b5a"/><path fill="#207b5a" d="M280.496 425.625l-21.965-7.805-39.497 111.162 21.965 7.804z"/><path fill="#207b5a" d="M193.044 504.973h214.817v15.002H193.044zm15.499-22.301h184.264l7.654 15.002h-197.28l5.362-15.002zm8.433-21.852h165.308l6.867 15.002H212.167l4.81-15.002zm7.158-22.854h147.219l6.115 15.002H219.85l4.283-15.002zm56.362-204.79h41.347v124.301h-41.347z"/><path fill="#207b5a" d="M363.32 274.654V316H239.019v-41.347z"/><g font-family="'Arial-BoldMT','Arial',sans-serif" font-weight="700" font-size="83.333" fill="#d24053"><text x="171.071" y="459.96" transform="matrix(.47382 .51526 -.73609 .67689 658.085 -223.636)">T</text><text x="171.071" y="459.96" transform="matrix(-.57578 -.3981 .5687 -.82254 61.036 885.139)">T</text><text x="167.824" y="459.96" transform="matrix(-.46576 -.52256 .7465 -.66538 -67.406 816.761)">H</text><text x="169.433" y="459.96" transform="matrix(-.33692 -.61359 .87655 -.4813 -173.6 720.943)">E</text><text x="167.824" y="459.96" transform="matrix(-.12129 -.68941 .98487 -.17327 -284.729 536.582)">D</text><text x="169.433" y="459.96" transform="matrix(.06445 -.69703 .99575 .09207 -328.231 381.559)">E</text><text x="167.824" y="459.96" transform="matrix(.20828 -.6683 .9547 .29755 -331.098 244.074)">N</text><text x="169.433" y="459.96" transform="matrix(.35626 -.60256 .8608 .50895 -300.934 102.396)">V</text><text x="167.824" y="459.96" transform="matrix(.56232 -.41689 .59556 .80331 -171.807 -119.164)">R</text><text x="167.824" y="459.96" transform="matrix(.6674 -.21115 .30164 .95342 -11.26 -249.463)">&amp;</text><text x="169.433" y="459.96" transform="matrix(.67306 .19232 -.27475 .96152 307.312 -340.972)">S</text><text x="167.824" y="459.96" transform="matrix(.6613 .2295 -.32786 .94473 379.263 -330.815)">A</text><text x="167.824" y="459.96" transform="matrix(.0652 .69696 -.99565 .09314 903.526 92.108)">A</text><text x="171.071" y="459.96" transform="matrix(.55678 .42426 -.60608 .7954 562.386 -281.082)">L</text><text x="171.071" y="459.96" transform="matrix(.29248 .63597 -.90853 .41783 804.737 -87.814)">L</text><text x="167.824" y="459.96" transform="matrix(-.09925 .69293 -.9899 -.14178 934.03 245.059)">K</text><text x="169.433" y="459.96" transform="matrix(-.58344 .38678 -.55254 -.83349 762.564 736.356)">Y</text><text x="167.824" y="459.96" transform="matrix(-.4973 .49264 -.70377 -.71043 842.915 634.134)">R</text><text x="169.433" y="459.96" transform="matrix(.52614 -.4617 .65958 .75164 -224.975 -60.6)">E</text><text x="169.433" y="459.96" transform="matrix(-.23927 .65784 -.93977 -.34181 929.504 382.12)">E</text></g></g></g><path d="M300 197.282c-56.692 0-102.718 46.026-102.718 102.718S243.308 402.718 300 402.718 402.718 356.692 402.718 300 356.692 197.282 300 197.282zm0 12.526c49.778 0 90.192 40.414 90.192 90.192 0 49.778-40.414 90.192-90.192 90.192-49.778 0-90.192-40.414-90.192-90.192 0-49.778 40.414-90.192 90.192-90.192z" fill="#207b5a"/></g></svg>