<svg xmlns="http://www.w3.org/2000/svg" xmlns:xlink="http://www.w3.org/1999/xlink" fill-rule="evenodd" stroke-linecap="round" stroke-linejoin="round" stroke-miterlimit="1.4142" viewBox="0 0 40 40"><circle cx="20.148" cy="20.147" r="16.526" fill="#9c002f"/><path d="M20.148 7.302c-7.089 0-12.845 5.756-12.845 12.845s5.756 12.845 12.845 12.845 12.845-5.756 12.845-12.845S27.237 7.302 20.148 7.302zm0 .429c6.853 0 12.416 5.563 12.416 12.416s-5.564 12.416-12.416 12.416S7.732 26.999 7.732 20.147 13.296 7.731 20.148 7.731z" fill="#e5891c"/><circle cx="300" cy="272.83" r="145.95" transform="matrix(.08288 0 0 .08288 -4.7159 -2.4656)"/><g transform="matrix(.079114 0 0 .079114 -3.5862 -1.4382)"><circle cx="300" cy="272.83" r="145.95" fill="url(#D)"/><clipPath id="A"><circle cx="300" cy="272.83" r="145.95"/></clipPath><g clip-path="url(#A)"><g transform="translate(-1 11)"><g fill="#fff"><ellipse cx="158" cy="246.21" rx="13.016" ry="11.096"/><ellipse cx="182.03" cy="235.114" rx="13.016" ry="11.096"/><ellipse cx="158" cy="246.21" rx="13.016" ry="11.096" transform="matrix(1.5936 0 0 1.5936 -43.677 -170)"/><ellipse cx="158" cy="246.21" rx="13.016" ry="11.096" transform="matrix(1.5936 0 0 1.5936 -22.934 -186.01)"/><ellipse cx="158" cy="246.21" rx="13.016" ry="11.096" transform="matrix(1.5936 0 0 1.5936 5.7189 -203.69)"/><ellipse cx="158" cy="246.21" rx="13.016" ry="11.096" transform="matrix(1.5936 0 0 1.5936 27.474 -221.38)"/><ellipse cx="158" cy="246.21" rx="13.016" ry="11.096" transform="matrix(1.5936 0 0 1.5936 27.474 -205.37)"/><ellipse cx="158" cy="246.21" rx="13.016" ry="11.096" transform="matrix(1.5936 0 0 1.5936 -2.1921 -192.77)"/></g><g fill="#cfcfcf"><ellipse cx="331.82" cy="158.65" rx="31.816" ry="24.549"/><ellipse cx="312.206" cy="168.562" rx="31.816" ry="24.549"/><ellipse cx="331.82" cy="158.65" rx="31.816" ry="24.549" transform="matrix(.59055 0 0 .84672 90.019 43.104)"/><ellipse cx="331.82" cy="158.65" rx="31.816" ry="24.549" transform="matrix(.43166 0 0 .43602 123.42 124.73)"/></g><use xlink:href="#E" fill="#ffc913"/><clipPath id="B"><use xlink:href="#E"/></clipPath><g clip-path="url(#B)"><use xlink:href="#F"/><path d="M167.772 270.95h2.462v68.639h-2.462zm9.966-1.003h2.367v79.704h-2.367z"/><g transform="matrix(.53785 1.8668 -.96091 .27685 375.73 -119.48)"><use xlink:href="#F"/></g><g transform="rotate(66.682 208.44 292.8)"><use xlink:href="#F"/></g><g transform="matrix(1.2534 2.9079 -.91832 .39583 255.74 -349.34)"><use xlink:href="#F"/></g></g><use xlink:href="#G"/><clipPath id="C"><use xlink:href="#G"/></clipPath><g clip-path="url(#C)"><g fill="#fff"><use xlink:href="#H"/><path d="M380.69 356.52h2.134v33.69h-2.134zm4.902 0h2.134v33.69h-2.134zm5.35-.064h2.134v33.69h-2.134zm-52.061 0h2.134v33.69h-2.134zm-5.101 0h2.134v33.69h-2.134zm-4.996 0h2.134v33.69h-2.134zm-4.838 0h2.134v33.69h-2.134zm-5.301 0h2.134v33.69h-2.134z"/></g><g transform="rotate(89.851 372.39 342.21)"><use xlink:href="#H" fill="#fff"/></g><g fill="#fff"><path d="M378.52 319.61h4.413v25.903h-4.413zm30.31 15.85h3.326v21.753h-3.326zM390.63 300h5.501v21.868h-5.501zm2.75-11.64h5.605v5.229h-5.605zm-7.69-15.75h4.142v5.116h-4.142zM378 252.7h5.493v24.416H378zm-124.12 73.43h7.398v48.307h-7.398zm-47.15 47.92h7.859v4.621h-7.859z"/><path d="M210.71 376.95h15.654v4.549H210.71z"/><path d="M217.28 379.33h20.883v6.132H217.28z"/><path d="M228.82 382.07h19.085v6.828H228.82z"/><path d="M240.88 384.24h20.786v7.419H240.88zm86.84-195.87l-8.75 4.206v20.451l8.75 6.283v-30.94"/><ellipse cx="346.41" cy="280.49" rx="11.625" ry="9.913"/><path d="M348.76 304.93a26.1 26.1 0 0 1-3.244.202c-13.763 0-24.92-10.766-24.92-24.047s11.157-24.048 24.92-24.048 24.92 10.767 24.92 24.048a23.55 23.55 0 0 1-.127 2.446c-1.094-9.622-9.096-17.09-18.804-17.09-10.456 0-18.932 8.661-18.932 19.346 0 9.731 7.031 17.784 16.187 19.143z"/></g><g transform="matrix(.59425 -1.2789 1.1985 .5569 -209.79 568.58)"><path d="M324.79 289.64c-2.448.596 12.151 24.42 6.487 23.953-14.622-1.205-15.933-15.464-14.19-32.588 1.344-13.212 14.158-23.508 27.921-23.508s25.419 10.306 25.419 23.587a23.55 23.55 0 0 1-.127 2.446c-1.094-9.622-9.096-17.09-18.804-17.09-10.456 0-18.383 8.678-18.932 19.346-.323 6.262-7.774 3.854-7.774 3.854z" fill="#fff"/></g></g></g></g></g><path d="M20.148 3.024c-9.45 0-17.123 7.673-17.123 17.123S10.698 37.27 20.148 37.27s17.123-7.673 17.123-17.123S29.598 3.024 20.148 3.024zm0 .571c9.135 0 16.552 7.417 16.552 16.552s-7.417 16.552-16.552 16.552S3.596 29.282 3.596 20.147 11.013 3.595 20.148 3.595z" fill="#e5891c" stroke="#e5891c" stroke-width=".113"/><path d="M27.499 37.883l-14.757-.027-2.939-3.82h20.601zM12.22 30.259h15.876l2.308 3.777H9.802z"/><path d="M228.028 436.361v-22.534c0-.931-.25-1.587-.75-1.968s-1.383-.677-2.65-.889c-.433-.127-.65-.528-.65-1.206v-.508a2.13 2.13 0 0 1 .1-.635l2.45.254 2.8.063 2.75-.063a21.1 21.1 0 0 0 2.3-.254l.075.635.025.508c0 .72-.2 1.122-.6 1.206-1.1.212-1.85.508-2.25.889s-.6.995-.6 1.841v37.133c-.133.043-.358.075-.675.095l-.625.032c-.233 0-.483-.074-.75-.222s-.55-.454-.85-.92l-19.7-31.738v27.421c0 .424.025.773.075 1.047s.184.508.4.698.534.361.95.508a17.65 17.65 0 0 0 1.675.476c.167.043.309.138.425.286s.175.456.175.92c0 .297-.033.656-.1 1.079l-2.35-.222-2.55-.095-2.775.095-2.425.222a1.56 1.56 0 0 1-.1-.571v-.508c0-.423.059-.719.175-.889s.259-.274.425-.317c1.2-.254 2-.571 2.4-.952s.6-.972.6-1.777v-32.118c0-.677-.175-1.195-.525-1.555s-1.141-.645-2.375-.857c-.4-.127-.6-.528-.6-1.206v-.286a1.4 1.4 0 0 1 .05-.349l.05-.508 1.35.095 1.3.095 2.225.095 1.825.032c.967 0 1.6.053 1.9.159s.567.307.8.603zm26.55-4.46h-10.5l-2.6 7.46c-.1.179-.166.376-.2.59l-.05.483c0 .394.175.716.525.966s1.059.466 2.125.644c.467.072.7.412.7 1.02a5.07 5.07 0 0 1-.1.912l-2.85-.188-2.95-.081-2.1.054-2.45.215a1.14 1.14 0 0 1-.1-.483v-.429c0-.679.217-1.037.65-1.073 1.034-.215 1.775-.447 2.225-.698s.809-.679 1.075-1.288l12.05-30.914c.267-.608.667-.912 1.2-.912a4.86 4.86 0 0 1 .5.027l.55.081 12.05 31.88c.2.537.584.939 1.15 1.208a6.85 6.85 0 0 0 1.85.564c.5.107.75.466.75 1.073a5.29 5.29 0 0 1-.1.966l-3.15-.188-2.9-.081-1.7.027-4.125.162-1.725.081a1.14 1.14 0 0 1-.1-.483v-.429c0-.322.059-.564.175-.725s.242-.259.375-.295c.867-.178 1.509-.384 1.925-.617s.625-.581.625-1.047c0-.215-.05-.483-.15-.805zm-.95-2.684l-4.25-12.076-4.35 12.076zm29.15-4.811h-2.15v9.037c0 .663.325 1.132.975 1.405s1.759.497 3.325.67c.467.058.7.346.7.865 0 .231-.033.49-.1.778l-3.625-.151-4.725-.065-3.475.065-3.125.151a.77.77 0 0 1-.1-.389v-.346c0-.489.184-.764.55-.822l1.7-.324c.434-.1.767-.216 1-.346s.392-.288.475-.476.125-.425.125-.713v-21.663c0-.576-.241-.994-.725-1.254s-1.408-.461-2.775-.605a.91.91 0 0 1-.4-.259c-.1-.115-.15-.317-.15-.605v-.389c0-.144.034-.259.1-.346l3.225.151 3.275.065h7.55c1.767 0 3.35.188 4.75.562s2.592.908 3.575 1.6 1.734 1.513 2.25 2.465.775 2.004.775 3.156c0 1.528-.541 2.919-1.625 4.173s-2.575 2.198-4.475 2.832l7.85 9.902c.6.75 1.292 1.269 2.075 1.557s1.509.505 2.175.649c.167.029.3.094.4.195s.15.281.15.54v.389c0 .144-.033.289-.1.432l-1.55-.065-2.075-.065-2.15-.065-1.775-.022c-.7 0-1.4-.252-2.1-.757s-1.383-1.174-2.05-2.011zm-.65-2.162c1.034 0 1.967-.086 2.8-.259s1.55-.468 2.15-.886 1.059-.973 1.375-1.665.475-1.57.475-2.638c0-1.787-.5-3.2-1.5-4.237s-2.766-1.557-5.3-1.557h-1.5v11.242zm33.617-.872h-1.852v7.303c0 .536.28.915.84 1.136s1.515.402 2.864.542c.402.047.603.28.603.699a2.62 2.62 0 0 1-.086.629l-3.122-.122-4.069-.052-2.993.052-2.691.122a.59.59 0 0 1-.086-.314v-.28c0-.396.158-.617.474-.664l1.464-.262c.374-.081.661-.175.861-.28s.338-.233.409-.384.108-.343.108-.577v-17.507c0-.465-.208-.804-.624-1.013s-1.213-.372-2.39-.489c-.143-.046-.258-.116-.344-.21s-.129-.256-.129-.489v-.314a.43.43 0 0 1 .086-.28l2.777.122 2.821.052h6.502c1.522 0 2.885.152 4.091.454s2.232.734 3.079 1.293 1.493 1.223 1.938 1.992a5 5 0 0 1 .667 2.551c0 1.235-.466 2.359-1.4 3.372s-2.218 1.777-3.854 2.289l6.761 8.002c.517.606 1.113 1.025 1.787 1.258a14.7 14.7 0 0 0 1.873.524.64.64 0 0 1 .344.157c.086.082.129.227.129.437v.314a.78.78 0 0 1-.086.349l-1.335-.052-3.639-.104-1.529-.017c-.603 0-1.206-.203-1.809-.612s-1.191-.949-1.766-1.625zm-.56-1.747a12.66 12.66 0 0 0 2.411-.21c.718-.14 1.335-.378 1.852-.716s.912-.786 1.184-1.345.409-1.269.409-2.132c0-1.444-.431-2.586-1.292-3.424s-2.382-1.258-4.565-1.258h-1.292v9.085zm20.143-1.111a8.54 8.54 0 0 1 .976-4.014c.651-1.246 1.541-2.339 2.669-3.279s2.448-1.68 3.958-2.222 3.124-.812 4.842-.812c1.767 0 3.412.256 4.934.766s2.842 1.226 3.958 2.145 1.995 2.013 2.633 3.279.957 2.646.957 4.137a8.63 8.63 0 0 1-.976 4.029 10.41 10.41 0 0 1-2.669 3.279c-1.129.93-2.454 1.665-3.976 2.206s-3.141.812-4.86.812c-1.767 0-3.412-.255-4.934-.766s-2.835-1.226-3.94-2.145a10.25 10.25 0 0 1-2.614-3.263c-.638-1.256-.957-2.64-.957-4.152zm12.997 8.733c1.031 0 1.964-.189 2.798-.567a6.56 6.56 0 0 0 2.154-1.547c.602-.653 1.068-1.419 1.399-2.298a7.93 7.93 0 0 0 .497-2.819c0-1.45-.166-2.798-.497-4.045s-.834-2.323-1.51-3.233a7.2 7.2 0 0 0-2.541-2.145c-1.018-.521-2.203-.781-3.553-.781a6.83 6.83 0 0 0-2.504.475 6.29 6.29 0 0 0-2.136 1.379c-.615.603-1.105 1.333-1.473 2.191s-.552 1.829-.552 2.911c0 1.512.178 2.911.534 4.198s.872 2.396 1.546 3.325 1.504 1.655 2.485 2.176 2.099.781 3.351.781zm31.88-19.01l.316-.041.246-.014c.188 0 .322.032.404.096s.17.187.263.37l5.76 11.834 4.285-9.67c.117-.237.176-.429.176-.575 0-.255-.152-.443-.457-.562s-.831-.214-1.58-.288c-.281-.018-.421-.192-.421-.52a.53.53 0 0 1 .018-.123.59.59 0 0 0 .018-.151l.035-.219 1.703.096 2.055.041 1.932-.027 1.616-.11.035.219c0 .055.006.11.018.164a.66.66 0 0 1 .018.137c0 .347-.152.53-.457.548-.726.055-1.258.146-1.598.274s-.591.375-.755.74l-7.411 16.162-.246.027h-.246c-.164 0-.287-.027-.369-.082s-.181-.182-.299-.384l-5.725-11.889-5.584 12.327a1.81 1.81 0 0 1-.263.027h-.228c-.187 0-.322-.027-.404-.082s-.169-.182-.263-.384l-7.691-15.861c-.117-.255-.322-.452-.615-.589s-.884-.242-1.774-.315c-.304-.018-.457-.21-.457-.575v-.233c0-.1.024-.178.07-.233l1.194.055 1.352.041 1.335.027 1.141.014 2.529-.041 2.458-.096a2.11 2.11 0 0 1 .053.274 1.77 1.77 0 0 1 .018.219c0 .329-.152.502-.457.52-.749.055-1.276.146-1.58.274s-.457.301-.457.52c0 .073.012.142.035.205s.059.142.105.233l4.601 9.889zM291.27 471.93l-1.875.292-1.813.229-2.041.146-2.563.042c-2.5 0-4.659-.334-6.479-1s-3.312-1.618-4.479-2.855-2.035-2.715-2.604-4.437-.854-3.639-.854-5.75c0-1.639.277-3.292.833-4.958a13.42 13.42 0 0 1 2.562-4.521c1.153-1.347 2.598-2.445 4.334-3.292s3.771-1.271 6.104-1.271c1.611 0 3.257.118 4.937.354s3.271.549 4.771.938l.334 2.875c.166 1.167.402 2.305.708 3.417l-.5.104a2.38 2.38 0 0 1-.458.062c-.223 0-.41-.034-.563-.104s-.257-.215-.312-.437c-.584-1.917-1.542-3.23-2.875-3.938s-2.987-1.062-4.959-1.062c-1.5 0-2.826.257-3.979.77s-2.111 1.25-2.875 2.209-1.347 2.111-1.75 3.458-.604 2.868-.604 4.563c0 1.861.222 3.569.667 5.125s1.097 2.895 1.958 4.02 1.924 2 3.187 2.625 2.716.938 4.355.938c.583 0 1.104-.028 1.562-.083a9.84 9.84 0 0 0 1.438-.292v-6c0-.75-.209-1.271-.625-1.563s-1.153-.507-2.209-.645c-.222-.056-.375-.174-.458-.355s-.125-.354-.125-.52a4.87 4.87 0 0 1 .021-.375c.014-.167.034-.292.062-.375l1.396.083 1.583.062 1.563.042 1.292.021 1.27-.021 1.5-.042 1.5-.062 1.23-.083a1.12 1.12 0 0 1 .083.416v.334c0 .25-.049.437-.146.562a.84.84 0 0 1-.354.271c-.889.111-1.507.292-1.854.542s-.521.666-.521 1.25v7.25c0 .25-.07.458-.208.625s-.528.305-1.167.416zm27.12-13.96h-8.75l-2.167 5.792c-.083.138-.139.291-.166.458l-.042.375c0 .305.146.555.437.75s.882.361 1.771.5c.389.055.584.319.584.792 0 .194-.028.43-.084.708l-2.375-.146-2.458-.062-1.75.041-2.042.167c-.055-.111-.083-.236-.083-.375v-.333c0-.528.18-.806.542-.834.861-.166 1.479-.347 1.854-.541s.673-.528.896-1l10.041-24c.222-.473.556-.709 1-.709a4.16 4.16 0 0 1 .417.021l.458.063 10.042 24.75c.167.416.486.729.958.937s.986.354 1.542.438c.417.083.625.361.625.833 0 .222-.028.472-.083.75l-2.625-.146-2.417-.062-1.417.02-3.437.125-1.438.063c-.055-.111-.083-.236-.083-.375v-.333c0-.25.049-.438.146-.563s.201-.201.312-.229c.722-.139 1.257-.299 1.604-.479s.521-.452.521-.813a2.04 2.04 0 0 0-.125-.625zm-.792-2.083l-3.541-9.375-3.625 9.375zm33.925-3.704c0 1.386-.143 2.658-.427 3.813s-.778 2.153-1.478 2.993-1.638 1.49-2.814 1.952-2.653.694-4.433.694c-2.114 0-3.817-.243-5.111-.73s-2.29-1.149-2.991-1.989a6.66 6.66 0 0 1-1.406-2.956c-.237-1.132-.356-2.341-.356-3.63v-12.116c0-.511-.155-.87-.463-1.076s-.938-.371-1.887-.492c-.262-.049-.391-.28-.391-.694v-.292a.99.99 0 0 1 .071-.365l2.19.128 2.761.054 2.599-.054 2.422-.128.053.365.018.292c0 .413-.131.645-.391.694-.973.121-1.632.292-1.977.511s-.516.572-.516 1.058v11.313c0 2.53.457 4.452 1.371 5.765s2.487 1.971 4.719 1.971c2.279 0 3.899-.614 4.86-1.843s1.443-3.229 1.443-6.003v-11.203c0-.486-.167-.839-.498-1.058s-.961-.39-1.888-.511c-.285-.074-.427-.305-.427-.694a3.12 3.12 0 0 1 .018-.292l.054-.365 1.905.146 1.869.036 2.03-.036 1.745-.146a3.58 3.58 0 0 1 .053.365l.018.292c0 .389-.142.62-.427.694-.879.097-1.484.261-1.816.492s-.498.59-.498 1.076zm27.975 6.393l-1.751.27-1.692.212-1.907.135-2.393.039c-2.335 0-4.352-.309-6.051-.925s-3.093-1.497-4.183-2.642-1.899-2.512-2.432-4.106-.798-3.367-.798-5.321c0-1.517.26-3.046.778-4.588a12.39 12.39 0 0 1 2.394-4.184c1.077-1.246 2.425-2.263 4.046-3.046s3.522-1.176 5.7-1.176a33.45 33.45 0 0 1 4.611.328c1.569.219 3.055.508 4.455.868l.311 2.66a25.47 25.47 0 0 0 .661 3.162l-.467.096a2.22 2.22 0 0 1-.428.057c-.207 0-.383-.031-.526-.096s-.24-.199-.291-.404c-.544-1.774-1.44-2.989-2.685-3.644s-2.789-.983-4.63-.983c-1.401 0-2.64.238-3.717.713a7.04 7.04 0 0 0-2.685 2.044c-.713.887-1.258 1.953-1.634 3.2s-.564 2.654-.564 4.223c0 1.722.207 3.303.623 4.743s1.024 2.679 1.829 3.72a8.37 8.37 0 0 0 2.977 2.429c1.18.578 2.535.868 4.066.868.544 0 1.031-.026 1.459-.077a9.23 9.23 0 0 0 1.343-.27v-5.552c0-.694-.194-1.176-.584-1.446s-1.077-.469-2.062-.597a.6.6 0 0 1-.429-.329c-.078-.167-.117-.328-.117-.481 0-.078.007-.193.02-.347a1.56 1.56 0 0 1 .059-.347l1.303.077 1.479.057 1.459.039 1.207.019 1.187-.019 1.401-.039 1.401-.057 1.148-.077c.051.128.078.256.078.385v.309c0 .231-.045.404-.136.52s-.201.199-.331.251c-.83.103-1.407.27-1.731.502s-.487.616-.487 1.157v6.709c0 .231-.064.424-.194.578s-.493.282-1.09.385zm16.05-23.32v8.656h5.875c.528 0 .889-.185 1.084-.557s.361-.976.5-1.814c.027-.191.111-.317.25-.377s.319-.09.541-.09l.396.017c.181.012.313.03.396.054l-.146 1.921-.062 1.85.041 1.527.167 1.993c-.083.048-.215.078-.396.09l-.396.018c-.5 0-.764-.167-.791-.503-.167-.91-.355-1.527-.563-1.85s-.549-.484-1.021-.484h-5.875v8.045c0 .503.361.838 1.084 1.006s1.944.251 3.666.251h1.75c.834 0 1.535-.096 2.104-.287a5.05 5.05 0 0 0 1.521-.809c.444-.348.834-.754 1.167-1.221a19.7 19.7 0 0 0 1-1.563c.083-.167.278-.251.583-.251a1.47 1.47 0 0 1 .5.108l.584.216a5.2 5.2 0 0 1-.188.539l-.187.503c-.139.263-.25.551-.334.862a5.39 5.39 0 0 1-.25.754l-.187.808-.209.862-.208.737-.146.431c-.111.191-.333.287-.666.287-.223 0-.542-.012-.959-.036l-1.354-.053-1.479-.054-1.292-.035h-9.458l-2.771.053-2.812.126c-.056-.096-.084-.222-.084-.378v-.341c0-.359.139-.551.417-.575 1.055-.168 1.812-.347 2.271-.539s.687-.527.687-1.006v-17.995c0-.24-.041-.437-.125-.592s-.243-.288-.479-.396-.542-.203-.917-.287l-1.437-.269c-.278-.072-.417-.288-.417-.647v-.341c0-.108.028-.222.084-.341l3.166.144 2.375.035h8.542l3.229-.108 1.854-.108c.306 0 .528.108.667.323.083.191.153.545.208 1.059s.153 1.048.292 1.599l.292 1.185a14.92 14.92 0 0 0 .5 1.401l-.459.143c-.166.048-.333.072-.5.072-.305 0-.528-.108-.666-.323a14.22 14.22 0 0 0-.98-1.599 4.42 4.42 0 0 0-1.083-1.078c-.403-.275-.875-.472-1.417-.592s-1.187-.179-1.937-.179z" transform="matrix(.079114 0 0 .079114 -3.6653 -.56799)" fill="#fff" fill-rule="nonzero"/><circle cx="300" cy="272.83" r="145.95" fill="none" stroke="#ff00df" stroke-width="17.783" transform="matrix(.12422 0 0 .12422 -17.115 -13.718)"/><path d="M16.555 35.003v.902h-2.901z" fill="#ffc913"/><defs><linearGradient id="D" x2="299" gradientUnits="userSpaceOnUse" x1="299" y1="418.2" y2="126.31"><stop stop-color="#fff" offset="0"/><stop stop-color="#0184b4" offset="1"/></linearGradient><path id="E" d="m213.43 234.21-68.1 23.827v21.489l9.54 47.328 24.027 26.586 16.15 10.041 27.918-112.97-9.535-16.302"/><path id="F" d="M162.68 270.95h2.462v68.639h-2.462z"/><path id="G" d="M260.26 208.07l-46.137 18.058-6.27 10.021v14.306l-16.371 8.078v41.463l-3.427 6.344v26.535l3.427 4.774v6.878l-3.427 22.794 19.798 33.785 52.407 7.995 78.216-3.07 65.89-6.784 29.037-44.314-13.483-5.457-3.07-29.285h-6.109v-20.195h-9.322s6.618-6.583 5.786-16.73-13.495-20.556-13.495-20.556v-19.402s-8.958-10.665-13.42-10.665h-7.636V216.87l5.613-2.23v-8.171h-9.757v5.612h-14.375l-6.62-4.011v-16.312l6.62-6.061v-19.044l-6.62-5.709-16.746-2.311-14.839 2.311-8.275 5.709v19.044l8.275 6.061-1.68 5.937h-12.617v-7.964l-3.924-2.096-2.664 2.096v7.964l-6.255 2.868h-24.649z"/><path id="H" d="M375.71 356.52h2.134v33.69h-2.134z"/></defs><path d="M92.476 1.191h2.03v2.03h-2.03z"/><path d="M5.093 17.632c.356.066.548-.148.427-.476-.128-.347-.741-.261-.802.112-.032.198.084.31.375.364m1.384-3.418c.167.284.39.378.48.203s-.097-.326-.415-.326h-.137l.073.123m2.188-4.835c0 .062-.016.157-.037.21-.055.146.334.513.545.513.184 0 .294.076.387.269.071.147.175.253.453.464.474.358.515.434.318.585-.081.062-.227.192-.324.289-.164.164-.187.174-.326.148l-.801-.165c-.442-.093-.501-.068-.331.143.071.089.142.162.158.162s.11.063.21.139c.196.15.349.15.514.002.074-.067.121-.037.173.109.026.073-.173.35-.41.573-.069.065-.126.147-.126.182 0 .057-.182.361-.56.938-.069.105-.125.237-.125.294 0 .366-.347.653-.422.35-.122-.497-.617-.348-.748.225-.038.165.186.444.313.391.234-.097.288-.111.347-.088.13.05.066.295-.139.532-.038.044-.09.189-.114.322a3.2 3.2 0 0 1-.165.532c-.067.16-.132.372-.146.472-.038.275-.141.326-.444.222-.357-.123-.798-.151-.836-.053-.157.406-.094.514.357.619l.303.07.091-.089c.05-.049.135-.146.19-.215.229-.292.329.202.111.554-.072.116-.085.193-.077.453.012.428-.062.614-.221.553-.133-.05-.173-.104-.174-.235 0-.113-.104-.203-.235-.205-.051 0-.133-.022-.18-.048-.167-.09-.342-.108-.43-.046-.208.146-.3.136-.503-.053-.104-.097-.22-.177-.257-.177s-.134-.012-.217-.025c-.14-.023-.155-.015-.238.124-.275.465-.491.109-.261-.43.041-.095.069-.308.079-.584.022-.646.184-1.006.559-1.245.272-.174.498-.133.793.143.115.107.142.117.214.073.218-.133.265-.149.418-.15a2.43 2.43 0 0 1 .392.045c.337.068.529-.093.456-.381-.033-.131-.499-.591-.67-.662-.195-.08-.271-.157-.328-.327-.121-.366-.437-.612-.638-.497-.117.067-.123.066-.21-.02l-.09-.09.174-.333.228-.395c.03-.034.067-.143.082-.242.067-.439.458-.719.46-.33.001.225.484.375.756.235.19-.098.313-.083.409.051.076.107.114.12.488.168.482.061.541.035.75-.335l.127-.224-.127-.119c-.278-.263-.522-.418-.624-.399-.163.031-.329-.046-.329-.154 0-.139-.116-.315-.279-.425-.236-.16-.289-.17-.413-.079-.196.145-.393.091-.361-.098.016-.097.219-.338.367-.434.06-.039.149-.149.198-.245.118-.229.268-.321.407-.25.055.028.223.065.373.08s.375.065.501.109c.147.052.276.072.359.056l.131-.025-.128-.118c-.505-.465-.684-.565-.806-.45s-.332.119-.361.007c-.016-.06.05-.153.257-.366.153-.157.278-.308.278-.336s.064-.132.142-.232c.171-.219.342-.234.342-.03m15.548-4.92c.12.048.272.126.337.173s.204.093.307.103c.299.029.335.074.266.335l-.08.328c-.035.168-.224.248-.515.218-.383-.04-.515-.186-.431-.477.092-.319-.086-.466-.436-.361-.411.123-.223.707.255.796.166.031.27.123.359.319.031.066.129.201.219.3.564.618.076 1.409-.84 1.361-.389-.02-.876-.143-.979-.246-.115-.114-.258-.158-.496-.15-.329.011-.374-.04-.267-.305a3.86 3.86 0 0 0 .122-.356c.087-.324.489-.418.817-.191.18.125.283.34.19.397-.285.176.208.549.552.418.447-.169.34-.618-.195-.813-.227-.083-.391-.226-.391-.342 0-.031-.078-.142-.174-.246-.323-.353-.35-.403-.35-.648.001-.349.028-.402.298-.576l.246-.159.483.018c.373.014.533.038.702.105m-6.539.321c-.075.083-.057.25.035.326.14.116.433-.184.325-.332-.068-.093-.274-.089-.36.006m-.217 1.348c-.225.381.544.732.934.425l.108-.085-.184-.127c-.585-.405-.725-.439-.858-.214m.949-1.71c.384.196.416.499.09.829l-.207.21.133.099c.162.121.497.322.643.385.191.083.344-.213.193-.374-.262-.279-.079-.589.353-.597s.467.021.543.398c.082.407.069.517-.068.545-.584.122-.49.595.132.666.288.033.317.048.351.186.039.156-.077.202-.497.194-.192-.004-.424.006-.514.022-.114.019-.2.01-.276-.03-.116-.061-.435.018-.707.173-.076.043-.264.058-.766.058h-.666l-.214-.137c-.489-.314-.454-.896.077-1.289.147-.109.138-.237-.029-.413-.513-.54.675-1.309 1.428-.925m7.652.895a2.34 2.34 0 0 1 .296.181c.035.031.103.056.151.056.12 0 .596.195.658.269.085.103-.01.192-.23.215-.277.028-.525.47-.419.748.039.103.028.124-.161.298-.112.103-.203.21-.203.237s-.037.122-.082.21c-.169.33-.169.341-.017.523.293.351.114.442-.354.179-.21-.118-.433-.207-.614-.245-.471-.099-.683-.425-.278-.428.222-.002.289-.032.368-.165.145-.246.217-.528.189-.741s.006-.271.163-.3c.22-.041.407-.649.243-.792-.151-.132-.134-.349.029-.367.016-.002.134.053.262.122m-13.042.911c-.142.054-.302.234-.289.326a.96.96 0 0 0 .414.612c.156.084.18.114.154.181-.061.156-.038.326.063.463.055.075.101.159.101.188 0 .092.216.256.338.256.164 0 .387-.178.387-.309 0-.177-.309-.67-.476-.761-.146-.079-.148-.083-.136-.301.021-.389-.29-.756-.556-.655m.88-.318c.141.069.335.198.432.287.104.096.216.163.273.163.142 0 .192.087.189.329l.02.658c.064 1.274-1.427 1.835-2.275.855a1.03 1.03 0 0 0-.307-.232l-.17-.073.034-.175c.019-.096.023-.331.01-.521-.073-1.046.884-1.736 1.793-1.292m14.167.406a2.63 2.63 0 0 1 .398.261c.13.102.266.186.302.187s.145.055.243.121.194.12.214.12.031.05.024.111c-.012.106-.023.111-.241.113-.316.003-.508.217-.613.683-.04.179-.064.21-.208.277-.156.073-.442.461-.464.63-.046.355.271.516.428.217.122-.231.348-.28.601-.131.236.139.298.451.13.661-.05.063-.109.186-.132.274-.058.224-.112.223-.344-.006-.155-.153-.242-.207-.37-.227-.199-.032-.506-.213-.733-.432-.09-.087-.308-.228-.486-.313-.223-.108-.344-.193-.392-.276l-.07-.121.12-.05a.48.48 0 0 1 .23-.029c.149.029.318-.066.399-.224.037-.072.101-.173.142-.226a.46.46 0 0 0 .075-.269c0-.246.029-.294.203-.341.095-.026.164-.072.18-.121a.74.74 0 0 1 .117-.19c.152-.184.166-.325.044-.453-.212-.221-.083-.378.201-.246M10.982 7.542c.259.35.261.358.096.59-.248.35-.536.4-.68.118-.076-.15-.089-.157-.191-.119-.281.107-.29.313-.026.598.052.056.095.116.095.133s.019.031.043.031c.118 0 .434.173.413.226-.041.108.029.319.153.459l.171.202c.19.252.59.109.59-.21 0-.186-.37-.573-.609-.638-.3-.081-.251-.289.108-.465.137-.067.245-.154.295-.24.2-.338.424-.322.469.034.023.186.059.252.265.494l.316.408.077.128-.096.063a.4.4 0 0 1-.133.063c-.02 0-.104.108-.187.24a1.5 1.5 0 0 1-.39.413l-.323.242c-.164.137-.634.145-.87.014l-.251-.123a1.78 1.78 0 0 1-.278-.162c-.075-.055-.186-.1-.245-.1-.14 0-.202-.131-.202-.426 0-.121-.027-.286-.06-.366-.206-.493.101-1.151.698-1.501a1.5 1.5 0 0 0 .361-.282c.126-.171.14-.165.391.175m19.429.399c.089.096.174.213.188.259s.121.137.236.202c.283.16.378.249.408.381.036.158-.13.224-.305.121-.113-.066-.123-.067-.159-.002a.68.68 0 0 1-.092.122c-.03.03-.079.126-.109.214a1.63 1.63 0 0 1-.147.3c-.05.077-.092.171-.092.209s-.018.08-.041.094-.03.042-.018.063c.096.156.962-.339 1.077-.615.112-.27.235-.268.467.006.092.109.239.239.327.288.337.189.255.487-.097.353l-.213-.081-.245.124c-.147.074-.29.184-.358.275-.154.207-.163.211-.423.212-.126 0-.24.017-.252.038s-.14.102-.283.182c-.319.178-.325.187-.224.352.26.427-.114.47-.449.052-.111-.139-.287-.312-.39-.384-.316-.221-.449-.365-.449-.487 0-.127.061-.182.135-.121.207.172.591-.015.591-.288 0-.029.033-.118.073-.197.046-.089.062-.174.044-.223-.101-.272-.063-.37.174-.454.071-.025.119-.079.137-.151.015-.062.063-.164.107-.227.124-.178.138-.437.031-.588-.066-.093-.075-.128-.035-.141l.114-.037c.033-.011.072-.022.086-.023s.098.076.187.172m3.857 6.492c-.341.121-.401.402-.132.626.284.237.773-.144.638-.498-.071-.187-.228-.227-.506-.128m-1.46-4.109a2.54 2.54 0 0 1 .192.325c.042.09.175.262.294.383.199.2.511.704.511.825 0 .027.073.138.161.245.196.237.197.246.019.32a.82.82 0 0 0-.221.138c-.184.184-.447.135-.622-.117-.151-.218-.136-.349.058-.528s.199-.217.019-.386c-.16-.151-.188-.148-.468.039-.265.178-.292.281-.132.508.37.528.089.683-.345.191-.156-.177-.256-.233-.289-.16-.007.017-.135.112-.283.212-.305.205-.363.319-.245.477.13.175.197.196.303.095.062-.059.146-.089.242-.089.41 0 .626.665.274.844-.279.143-.22.602.083.638.177.021.708-.249.802-.409s.229-.209.376-.142c.082.037.142.029.335-.048.325-.13.335-.142.335-.365 0-.203.117-.317.267-.26.055.021.177.384.177.526 0 .047.062.184.138.305l.203.359c.035.077.092.17.126.208.083.092.151.801.096 1.005-.084.312-.516.47-.836.304l-.123-.063-.061.179c-.079.233-.157.31-.45.444l-.327.15c-.049.022-.106.107-.132.196-.103.342-.366.255-.42-.139a1.5 1.5 0 0 0-.128-.389c-.126-.249-.126-.249.255-.421.735-.332.779-.372.671-.608-.152-.333-.209-.34-.706-.094l-.245.122.011.199c.012.223-.032.292-.17.272-.144-.021-.228-.201-.168-.359.054-.144.029-.2-.24-.528-.149-.182-.209-.327-.392-.95-.047-.161-.101-.292-.119-.292-.11 0-.623-.644-.711-.894-.031-.088-.166-.279-.299-.425-.35-.382-.322-.582.06-.436.253.097.725-.151.887-.465.072-.14.19-.22.381-.26.36-.074.62-.398.503-.625-.057-.11-.038-.173.061-.211.112-.043.177-.009.292.153m2.772 5.742c.053.028.078.084.078.174 0 .073.048.267.107.432a1.91 1.91 0 0 1 .117.642c.008.267.038.418.136.685s.122.384.106.537a1.44 1.44 0 0 0 .026.394c.062.27.019.307-.397.341l-.328.027-.106-.161c-.225-.34-.138-.648.194-.686.243-.027.292-.088.183-.226-.123-.157-.524-.092-.735.118-.152.152-.268.178-.41.092-.148-.09-.246-.091-.585-.001s-.353.099-.385.309c-.073.484-.343.254-.383-.326-.016-.238-.061-.492-.112-.632-.155-.431.09-.708.293-.33.128.238.686.191.949-.08.158-.163.248-.175.44-.057.179.109.64.012.744-.157.039-.063-.022-.213-.071-.174-.222.179-.556.061-.627-.221-.089-.355.062-.617.36-.621.055-.001.136-.028.179-.061.093-.07.124-.073.227-.017M4.583 20.128c-.04.016-.124.123-.187.238l-.115.209.157.162c.213.22.566.238.825.042.195-.148.231-.149.337-.015.114.144.587.203.808.1.253-.118.262-.693.012-.756-.221-.056-.733.008-.835.104-.107.101-.212.089-.381-.043-.099-.078-.467-.102-.621-.041m-.197-.861c.154.196.592.253.784.102s.28-.163.402-.049c.097.091.153.106.463.122.816.042 1.076.463.938 1.519-.075.576-.217.715-.76.744-.336.018-.406.034-.49.113-.155.145-.263.153-.443.033-.267-.177-.592-.154-.747.052-.261.347-.392.301-.385-.137.002-.148.014-.285.026-.305s0-.188-.027-.375c-.043-.297-.041-.352.014-.437.059-.09.057-.105-.017-.207-.06-.082-.074-.146-.056-.25l.048-.274c.013-.076-.003-.226-.039-.347-.064-.217-.044-.334.065-.379.1-.04.147-.025.224.073m29.691 1.139c-.197.012-.244.032-.332.136-.353.42.369.796.921.48l.219-.125.099.107c.09.097.128.107.416.112l.317.005.088-.174c.212-.419-.367-.705-.793-.39-.125.092-.143.095-.219.039-.215-.159-.331-.22-.405-.213l-.31.022m.925-1.078c.047.044.236.157.419.251 1.157.591 1.14 1.878-.031 2.387-.175.076-.357.176-.404.221-.115.11-.239.105-.384-.018-.066-.055-.153-.101-.194-.101-.252 0-.766-.348-.95-.643-.438-.7.149-1.932.922-1.935.127 0 .31-.085.389-.179.07-.084.131-.079.234.017m-1.483 2.778c.023.043.042.122.042.176 0 .182.62.433.817.331.224-.116.301-.11.409.031.071.093.167.154.318.202.302.095.36.087.552-.073.348-.291.451-.084.205.411-.053.106-.085.249-.086.383-.002.272-.052.335-.301.372-.111.017-.235.048-.276.07s-.259.071-.483.11c-.355.061-.415.082-.457.166-.062.124-.086.112.394.199l.415.075.179-.158c.098-.087.199-.158.224-.158.135 0 .166.332.045.483-.084.106-.136.295-.152.555-.017.275-.036.308-.2.347-.1.024-.113.013-.152-.132-.086-.321-.399-.45-.813-.335-.136.037-.157.031-.261-.077-.127-.133-.659-.317-.915-.317-.345 0-.426-.105-.308-.403.044-.112.081-.254.081-.314.002-.246.207-.447.361-.352.059.036.499-.053.823-.166.426-.149.434-.16.163-.218-.131-.028-.288-.076-.348-.105-.213-.105-.349-.071-.544.138-.281.301-.395.079-.193-.376.066-.15.101-.301.101-.442 0-.409.227-.675.361-.423m-26.991 1.11a4.14 4.14 0 0 1-.308.097c-.13.035-.188.08-.262.205l-.094.16-.204-.095c-.343-.159-.801-.028-.873.249-.074.285.125.583.343.513l.281-.08c.196-.054.248-.089.333-.224.116-.183.146-.19.352-.079.43.23 1.173-.136 1.02-.503-.1-.24-.333-.337-.587-.242m-.705-.912c.066.023.286.059.489.081.543.058 1.012.364 1.085.706a4.12 4.12 0 0 0 .101.347c.041.122.082.371.092.555.012.227.04.368.089.442.137.209.184.569.087.666l-.084.084-.383-.434-.275.086-.426.111c-.125.02-.162.049-.21.164-.077.184-.148.205-.345.103-.345-.18-.885.01-.886.313-.001.208-.045.261-.192.229s-.197-.14-.232-.546c-.015-.173-.06-.369-.105-.459-.482-.95-.34-1.646.437-2.144.116-.074.25-.196.3-.271.096-.146.122-.148.457-.034m27.512 4.128c.129.094.153.386.042.497-.193.193-.501.057-.501-.222 0-.258.265-.417.46-.275m-26.141.127c.127.127.125.266-.005.422-.266.316-.713-.089-.457-.414.112-.143.324-.146.462-.007m25.374 1.189l.101.038-.093.234c-.345.86-.33.841-1.624 2.138l-.494.525c0 .017-.054.051-.121.076-.171.065-.165-.061.015-.283.075-.092.165-.226.202-.297.289-.57 1.75-2.469 1.899-2.469a.89.89 0 0 1 .115.038m-24.496.415c.203.205.414.451.47.546l.201.31.195.27.392.535.299.447c0 .024.056.121.124.215s.114.196.102.228c-.033.087-.169.068-.237-.034-.034-.05-.265-.299-.515-.554-.702-.715-1.186-1.265-1.264-1.436l-.163-.337a1.65 1.65 0 0 1-.122-.322c-.016-.078-.048-.164-.071-.191-.031-.038-.009-.05.089-.05.11 0 .185.057.498.373" fill="#fff"/></svg>
