<svg fill-rule="evenodd" stroke-linecap="round" stroke-linejoin="round" stroke-miterlimit="1.414" version="1.1" viewBox="0 0 40 40" xmlns="http://www.w3.org/2000/svg" xmlns:xlink="http://www.w3.org/1999/xlink"><defs><clipPath id="A"><path d="M121.191 235.374l-2.472 12.14-2.473 11.918c.005 6.72 4.034 13.695 13.944 21.042l6.14-10.467c-.037 6.116 3.321 12.217 11.639 18.297 2.215-3.579 3.025-7.222 2.431-10.93-.935-3.871-2.456-8.267-4.564-13.187-1.276-2.931-1.322-7.019 4.564-16.673 2.25-3.287 4.467-7.681 6.609-14.508.621-8.995-4.183-19.141-9.04-28.133l-11.639-3.121c-.413 6.563-.273 14.817-4.163 20.561-5.593 3.924-7.587 5.853-10.976 13.061z"/></clipPath><clipPath id="B"><path d="M121.191 235.374l-2.472 12.14-2.473 11.918c.005 6.72 4.034 13.695 13.944 21.042l6.14-10.467c-.037 6.116 3.321 12.217 11.639 18.297 2.215-3.579 3.025-7.222 2.431-10.93-.935-3.871-2.456-8.267-4.564-13.187-1.276-2.931-1.322-7.019 4.564-16.673 2.25-3.287 4.467-7.681 6.609-14.508.621-8.995-4.183-19.141-9.04-28.133l-11.639-3.121c-.413 6.563-.273 14.817-4.163 20.561-5.593 3.924-7.587 5.853-10.976 13.061z"/></clipPath><path id="C" d="m114.18 231.82s9.328 16.87 17.991 17.765 26.613 0 26.613 0l5.14 43.172-56.234 1.664v-50.966l6.49-11.635"/></defs><path d="m37.886 20.439a17.581 17.581 0 0 1-35.163 0 17.581 17.581 0 0 1 35.163 0z" fill="#93bcdc"/><path d="M20.305 26.87c.7 0 1.268 3.076 1.268 3.746s-.568 1.214-1.268 1.214-1.268-.543-1.268-1.214.568-3.746 1.268-3.746zm0 .891c.281 0 .509 1.971.509 2.4s-.228.778-.509.778-.509-.348-.509-.778.228-2.4.509-2.4z" fill="#62522e"/><path d="m20.306 30.332c-0.576-0.062-0.885-0.189-1.011-0.36-0.442-0.217-0.641-0.67-0.731-1.232a3.5 3.5 0 0 1-0.365-1.804c-0.46-0.376-0.905-1.22-1.334-2.491-4e-3 -0.622-0.134-1.079-0.656-1.021-0.415 0.307-0.791 0.459-1.109 0.381-0.71-0.082-1.074-0.286-1.091-0.612-0.019-0.141 0.064-0.268 0.25-0.383-1.064 0.279-2.05 0.373-2.999 0.383-0.601-0.195-1.148-0.515-1.557-1.159-1.175-0.837-1.742-1.642-2.249-2.443-0.501-0.891-1.264-1.824-2.713-2.869-1.14-0.076-1.996-0.217-2.569-0.423 0.276-0.893 1.023-1.405 2.569-1.272 0.975 0.065 1.899 0.386 2.713 1.272 0.923 1.457 2.048 2.945 4.193 4.595 0.889-0.533 2.071-0.822 3.453-0.945 0.817-0.034 1.391 0.098 1.765 0.367 1.458-0.668 2.556-0.842 3.442-0.725l0.021-3e-3c0.882-0.112 1.974 0.065 3.421 0.728 0.374-0.269 0.948-0.401 1.765-0.367 1.382 0.123 2.564 0.412 3.453 0.945 2.144-1.649 3.269-3.138 4.193-4.595 0.813-0.886 1.738-1.208 2.713-1.272 1.546-0.133 2.293 0.379 2.569 1.272-0.572 0.206-1.429 0.347-2.569 0.423-1.448 1.044-2.212 1.978-2.713 2.869-0.507 0.801-1.073 1.606-2.249 2.443-0.409 0.644-0.957 0.964-1.557 1.159-0.949-0.01-1.935-0.104-2.999-0.383 0.186 0.115 0.269 0.242 0.25 0.383-0.017 0.326-0.381 0.53-1.091 0.612-0.318 0.077-0.694-0.074-1.109-0.381-0.522-0.058-0.652 0.399-0.656 1.021-0.43 1.271-0.874 2.115-1.334 2.491a3.5 3.5 0 0 1-0.365 1.804c-0.09 0.561-0.29 1.015-0.731 1.232-0.124 0.169-0.425 0.294-0.984 0.357z" fill="#fff"/><g transform="matrix(.071124 0 0 .071124 -1.0317 3.1086)" clip-path="url(#D)"><path d="M202.472 241.684l5.007-1.45-.019 37.479-5.153 1.001zm13.396-2.679l4.691-.652v48.501l-4.891-5.919zm16.227-1.441l4.919 1.164-.048 42.207-5.406 3.01zm165.372 3.631l-5.049-1.07.345 36.99 4.712.955zm-13.135-1.85l-5.016-.118.145 41.708h4.871zm-16.716-1.354l-4.558.812-.024 42.131 5.091 2.768z" fill="#62522e"/></g><path d="M20.306 30.332c-.576-.062-.885-.189-1.011-.36-.442-.217-.641-.67-.731-1.232a3.5 3.5 0 0 1-.365-1.804c-.46-.376-.905-1.22-1.334-2.491-.004-.622-.134-1.079-.656-1.021-.415.307-.791.459-1.109.381-.71-.082-1.074-.286-1.091-.612-.019-.141.064-.268.25-.383-1.064.279-2.05.373-2.999.383-.601-.195-1.148-.515-1.557-1.159-1.175-.837-1.742-1.642-2.249-2.443-.501-.891-1.264-1.824-2.713-2.869-1.14-.076-1.996-.217-2.569-.423.276-.893 1.023-1.405 2.569-1.272.975.065 1.899.386 2.713 1.272.923 1.457 2.048 2.945 4.193 4.595.889-.533 2.071-.822 3.453-.945.817-.034 1.391.098 1.765.367 1.458-.668 2.556-.842 3.442-.725l.021-.003c.882-.112 1.974.065 3.421.728.374-.269.948-.401 1.765-.367 1.382.123 2.564.412 3.453.945 2.144-1.649 3.269-3.138 4.193-4.595.813-.886 1.738-1.208 2.713-1.272 1.546-.133 2.293.379 2.569 1.272-.572.206-1.429.347-2.569.423-1.448 1.044-2.212 1.978-2.713 2.869-.507.801-1.073 1.606-2.249 2.443-.409.644-.957.964-1.557 1.159-.949-.01-1.935-.104-2.999-.383.186.115.269.242.25.383-.017.326-.381.53-1.091.612-.318.077-.694-.074-1.109-.381-.522-.058-.652.399-.656 1.021-.43 1.271-.874 2.115-1.334 2.491a3.5 3.5 0 0 1-.365 1.804c-.09.561-.29 1.015-.731 1.232-.124.169-.425.294-.984.357zM7.036 16.624c-.7-.747-1.495-1.017-2.341-1.073-.865-.074-1.426.071-1.751.42.485.104 1.096.179 1.831.228a.525.525 0 0 1 .272.098c1.524 1.099 2.326 2.085 2.855 3.023.474.749 1.004 1.504 2.103 2.287a.526.526 0 0 1 .139.146c.316.498.737.753 1.197.914.882-.014 1.797-.106 2.783-.364a.525.525 0 0 1 .513.87 2.19 2.19 0 0 0 .521.111c.021.003.043.006.064.011.067.016.139-.002.217-.03.144-.052.295-.144.456-.263a.524.524 0 0 1 .254-.1c.825-.092 1.209.49 1.238 1.45.376 1.1.739 1.847 1.143 2.177a.525.525 0 0 1 .192.443c-.036.527.07 1.04.313 1.538.023.047.039.097.047.148.06.373.15.699.444.843a.522.522 0 0 1 .183.148.84.84 0 0 0 .105.051c.123.045.285.079.492.103a2.19 2.19 0 0 0 .497-.105.81.81 0 0 0 .1-.05.522.522 0 0 1 .183-.148c.294-.144.384-.47.444-.843a.527.527 0 0 1 .047-.148c.244-.498.349-1.01.313-1.538a.525.525 0 0 1 .192-.443c.404-.33.767-1.077 1.143-2.177.029-.96.413-1.542 1.238-1.45a.524.524 0 0 1 .254.1c.161.119.312.211.456.263.078.028.15.047.217.03.021-.005.042-.009.064-.011a2.19 2.19 0 0 0 .521-.111.525.525 0 0 1 .513-.87c.986.259 1.902.35 2.783.364.46-.161.881-.417 1.197-.914a.526.526 0 0 1 .139-.146c1.099-.783 1.629-1.537 2.103-2.287.53-.938 1.332-1.925 2.855-3.023a.525.525 0 0 1 .272-.098c.735-.049 1.345-.124 1.83-.228-.325-.348-.888-.494-1.761-.419-.836.055-1.631.325-2.331 1.072a17.08 17.08 0 0 1-4.289 4.687.525.525 0 0 1-.59.034c-.828-.496-1.93-.756-3.216-.871-.656-.026-1.124.052-1.425.269a.525.525 0 0 1-.525.051c-1.328-.608-2.327-.786-3.135-.684l-.021.003a.525.525 0 0 1-.136 0c-.812-.107-1.816.069-3.154.682a.525.525 0 0 1-.525-.051c-.301-.217-.769-.295-1.425-.269-1.286.115-2.388.375-3.216.871a.525.525 0 0 1-.59-.034 17.08 17.08 0 0 1-4.289-4.687z" fill="#62522e"/><path d="M38 20a17.581 17.581 0 0 1-35.163 0A17.581 17.581 0 0 1 38 20z" fill="none" stroke="#6a3a00" stroke-width="2.557"/><path d="M33.176 19.849l.176.863.176.848c0 .478-.287.974-.992 1.497l-.437-.744c.003.435-.236.869-.828 1.301-.158-.255-.215-.514-.173-.777a6.01 6.01 0 0 1 .325-.938c.091-.208.094-.499-.325-1.186-.16-.234-.318-.546-.47-1.032-.044-.64.298-1.361.643-2.001l.828-.222c.029.467.019 1.054.296 1.462.398.279.54.416.781.929zm-25.553.1l-.176.863-.176.848c0 .478.287.974.992 1.497l.437-.744c-.003.435.236.869.828 1.301.158-.255.215-.514.173-.777a6.01 6.01 0 0 0-.325-.938c-.091-.208-.094-.499.325-1.186.16-.234.318-.546.47-1.032.044-.64-.298-1.361-.643-2.001l-.828-.222c-.029.467-.019 1.054-.296 1.462-.398.279-.54.416-.781.929z" fill="#ebd215" stroke="#62522e" stroke-width=".477"/><g transform="matrix(.071124 0 0 .071124 -1.0317 3.1086)" clip-path="url(#A)"><use fill="#62522e" xlink:href="#C"/></g><g transform="matrix(-.071124 0 0 .071124 41.795 3.1086)" clip-path="url(#B)" fill="#62522e"><use xlink:href="#C"/></g><path d="M31.609 18.419c-1.238-.045-2.358-.01-3.385.088a24.28 24.28 0 0 1-4.537.477h-3.972l-6.828-.365c-1.382-.109-2.445-.433-3.32-.362l-.663.044c-.017-.02-.841.078-.841.078-.586.062-.876.201-1.154.388-.42-.559-.986-1.141-1.799-1.764.341-.517.867-.96 1.635-1.296l.018-.008c.167-.077.35-.147.545-.212 1.57-.462 3.886.105 5.627.18l4.016.197 4.488.005 5.044-.183c.931-.128 1.879-.205 3.232-.237.619-.057 1.325-.317 2.204-.244.834.056 1.555.134 1.924.283l.225.071c-.015.009-.02.012 0 0a2.17 2.17 0 0 1 .783.457c.315.287.579.6.768.9-.803.603-1.379 1.171-1.814 1.72a2.5 2.5 0 0 0-.684-.127l-1.466-.086z" fill="#ebd215"/><g fill="#62522e"><path d="M31.918 15.203c.834.056 1.555.134 1.924.283l.225.071a2.17 2.17 0 0 1 .783.457c.315.287.579.6.768.9-.803.603-1.379 1.171-1.814 1.72a2.5 2.5 0 0 0-.684-.127l-1.512-.088c-1.238-.045-2.358-.01-3.385.088a24.28 24.28 0 0 1-4.537.477h-3.972l-6.828-.365c-1.382-.109-2.445-.433-3.32-.362l-.663.044c-.017-.02-.841.078-.841.078-.586.062-.876.201-1.154.388-.42-.559-.986-1.141-1.799-1.764.341-.517.867-.96 1.635-1.296l.018-.008c.167-.077.35-.147.545-.212 1.57-.462 3.835-.023 5.576.052l8.555.329 4.604-.257c.931-.128 2.325-.374 3.677-.407.763-.078 1.501-.036 2.198 0zm1.997.807l-.252-.081c-.34-.137-.931-.087-1.709-.139-.846-.07-1.582-.032-2.177.022l-3.353.289c-1.873.332-3.63.21-5 .269l-8.466-.309c-1.69-.073-3.983-.564-5.51-.119l-.513.201c-.492.216-.873.478-1.158.782.512.424.918.83 1.249 1.224.244-.113.542-.199.98-.245l.865-.084.037.001.62-.041c.895-.073 1.984.251 3.396.362l.012.001 6.778.362h3.969c1.455-.012 2.938-.168 4.447-.467l.048-.007c1.046-.099 2.187-.136 3.448-.09h-.001l.046.002 1.477.087a3.27 3.27 0 0 1 .485.062 9.93 9.93 0 0 1 1.329-1.272 4.39 4.39 0 0 0-.431-.452 1.71 1.71 0 0 0-.615-.358zm.001-.052l.006.05.045-.005c-.019-.013-.036-.028-.05-.046z"/><text font-family="Arial-BoldMT, Arial, sans-serif" font-size="2.174" font-weight="700" letter-spacing="-.1"><textPath letter-spacing="-.1" xlink:href="#D">KANSAS PACIFIC RAILWAY</textPath></text><path d="M14.009 23.194c.017.326.38.531 1.09.613.318.077.694-.073 1.109-.381.522-.058.652.398.656 1.02.43 1.271.874 2.117 1.334 2.492-.042.619.079 1.219.365 1.803.09.561.291 1.016.732 1.232.126.171.434.298 1.01.359l.027-.002c.558-.063.86-.189.984-.357.442-.217.641-.671.73-1.232.286-.584.407-1.184.365-1.803.46-.376.904-1.221 1.334-2.492.004-.622.134-1.078.656-1.02.415.307.791.458 1.109.381.71-.082 1.074-.287 1.092-.613.019-.141-.064-.268-.25-.383-.918-.535-1.577-.315-2-.097-.67.345.8-1.229-.607-2.397-1.447-.663-2.538-.838-3.42-.727l-.021.002c-.885-.117-1.983.057-3.441.725-1.338.964.299 2.369-.518 2.402-1.505-.469-2.185-.128-2.338.474z"/></g><path d="M18.172 21.554l1.232 3.154.324 3.287.576.76.578-.76.324-3.287 1.232-3.154-2.134.21zm-.023 1.891a.409.421 0 0 1 .182.35.409.421 0 0 1-.408.42.409.421 0 0 1-.41-.42.409.421 0 0 1 .02-.127.445.719 68 0 0-.248.539.445.719 68 0 0 .832.143.445.719 68 0 0 .502-.682.445.719 68 0 0-.469-.223zm4.228 0a.409.421 0 0 0-.182.35.409.421 0 0 0 .408.42.409.421 0 0 0 .41-.42.409.421 0 0 0-.02-.127.719.445 22 0 1 .248.539.719.445 22 0 1-.832.143.719.445 22 0 1-.502-.682.719.445 22 0 1 .469-.223z" fill="#fff"/><path id="D" d="M7.304 17.802l.813-.177 1.411-.127.998.032 1.181.214 1.551.173 1.624.134 1.992.103 3.308.105 3.016-.035 1.59-.021 1.497-.178 1.357-.168.974-.166 1.459-.047 1.873.026 1.312.097" fill="none"/></svg>
