<svg xmlns="http://www.w3.org/2000/svg" fill-rule="evenodd" stroke-linejoin="round" stroke-miterlimit="2" viewBox="0 0 40 40"><path d="M20 1.481c-10.221 0-18.52 8.299-18.52 18.52S9.779 38.521 20 38.521s18.52-8.299 18.52-18.52S30.221 1.48 20 1.48z" fill="#fff" stroke="#b00" stroke-width="2.833"/><path d="M19.51 9.757l-.576.039-1.288.118c-.86.139-1.729.366-2.492.586-1.143.349-1.976.747-2.963 1.201l-1.162.016c-1.856.03-3.62-.017-5.478.08-.084.052-.073.1.059.262l2.261 2.93.086 7.154-1.314 1.602.041 4.566c.012.978.018 1.071.079 1.122.035.029 2.763.038 4.383.015 1.114-.016 1.056-.005 1.196-.217l1.309-1.595c.082-.143-.044-.134 1.872-.129l2.263.042 2.009 2.407c.313.374.343.382.505.135l1.95-2.418c.154-.184.14-.181.644-.172l3.517.017 1.276 1.527c.365.448.271.417 1.178.392l2.133-.022 2.466-.037.016-5.532-1.339-1.865.03-7.109 2.266-3.05c.071-.069.089-.143.043-.179-2.445-.003-4.424-.001-6.706.005l-.822-.409c-.586-.276-1.174-.471-1.795-.672-.622-.21-1.125-.317-1.711-.447-1.308-.29-2.597-.368-3.932-.365m1.326.414c.801.007 1.629.176 2.412.304.595.112 1.21.292 1.727.441.976.299 1.847.704 2.712 1.132l6.073-.021-2.032 2.743.035 7.409 1.172 1.608c.127.167.121.092.132 1.774l-.035 3.447-4.844.034-1.417-1.732c-.182-.238.059-.216-2.377-.218-2.236-.002-2.203-.003-2.242.071a.93.93 0 0 1-.171.234l-1.742 2.164c-.168.234-.078.302-.788-.59l-1.42-1.794-.077-.052-4.361-.012-1.693 1.97-2.387-.011-2.418-.042-.009-5.167c.472-.525.909-1.169 1.276-1.71-.006-.01-.017-.978-.023-2.151l-.131-5.263-2.009-2.577 6.141-.051c.362-.226.779-.406 1.068-.544 1.159-.513 2.237-.845 3.359-1.099.948-.199 1.863-.264 2.734-.312.398-.015 1.135-.007 1.337.016m-1.651.54l-.366.028c-1.301.08-2.637.428-3.79.761-.912.3-1.536.605-2.33 1.005-.282.167-.124.157-2.417.159-1.299.002-2.21-.006-2.486-.021-.58-.032-.626.001-.381.269l1.136 1.404c.228.278.237.294.261.447.012.074.029 1.143.04 2.425l.046 5.308-1.258 1.521c-.033.045-.049 4.465-.017 4.515.013.021.431.025 2.011.021 2.162-.006 2.068-.001 2.133-.111l1.551-1.823c.093-.033 4.867-.04 4.938-.007l1.492 1.842c.378.482.307.492.784-.108l1.445-1.756c.044-.02.587-.028 2.44-.035 2.692-.01 2.448-.024 2.575.154l1.428 1.787 2.045.005 2.059-.009.01-4.321-1.339-1.815.033-7.763 1.363-1.788c.217-.232.186-.278-.163-.245-.156.015-1.039.023-2.552.023-2.587 0-2.361.013-2.658-.157-.638-.353-1.278-.593-1.948-.84-1.039-.388-2.023-.563-3.092-.744-.261-.089-2.503-.189-2.992-.133m-3.709 1.83c.165.062.406.301.462.46.049.138.086 1.675.046 1.968-.025.184-.151.423-.26.493s-.103.149.012.208c.257.133.268.185.29 1.383l-.017 1.278c-.042.041-.831.05-.856.01-.009-.015-.018-.464-.019-.997-.002-1.295.032-1.221-.579-1.223-.263-.001-.377.006-.4.025s-.031.17-.026 1.103l-.03 1.103c-.024.017-.148.027-.386.029l-.382.006c-.118.011-.114.06-.139-2.066l.012-3.789c.074-.067 2.089-.058 2.271.01m9.435-.024c.013.025.021.381.022.958l.016 1.295-.001.448c.146-.116.175-.23.225-.28l.694-1.239c.092-.141.15-.154.631-.138.453.015.459.022.271.32l-.47.802c-.137.245-.14.191.055.873l.613 2.569c.042.145.034.148-.422.151-.491.004-.427.082-.599-.72l-.215-.963c-.128-.689-.166-.716-.39-.281l-.232.408c-.152.22-.143.167-.147.887l-.029.672a7.61 7.61 0 0 1-.866 0c-.006-.006-.017-.689-.025-1.518l-.027-2.084.016-2.167c.045-.054.85-.047.879.007m-10.712.898c-.066.044-.071.113-.071.888l.018.809c.062.098.713.017.839-.104s.123-.11.111-.782l-.01-.607-.055-.077c-.095-.133-.128-.143-.487-.143l-.344.016m4.424.247c.257.084.488.22.64.378.084.088.289.429.289.481a.89.89 0 0 0 .029.14c.078.286.129 2.332.065 2.577-.185.704-.811 1.14-1.522 1.059-.495-.056-1.048-.551-1.19-1.065-.061-.219-.071-2.553-.012-2.725.115-.337.516-.741.819-.826l.209-.065c.124-.044.473-.02.673.045m3.682.001c.253.104.354.167.486.304.289.299.359.469.403.976.032.376.051.363-.477.356-.429-.005-.408.008-.424-.277-.022-.41-.338-.63-.676-.471-.248.117-.283.232-.262.868l.017.974c.003.624.014.687.143.837.181.212.506.227.679.032.117-.132.13-.171.128-.388-.003-.307-.024-.293.453-.293.491 0 .449-.041.439.426l-.008.364-.102.207c-.328.663-1.228.961-1.851.612-.158-.089-.548-.444-.548-.5 0-.013-.018-.05-.041-.082-.05-.07-.118-.249-.149-.389s-.065-2.389-.039-2.56c.053-.349.418-.824.731-.952.359-.147.805-.165 1.1-.044m-4.217.872c-.109.035-.263.198-.302.32-.049.153.001 1.996.058 2.152a.54.54 0 0 0 .373.343l.142.034.14-.073a.34.34 0 0 0 .209-.211c.08-.163.075-.073.07-1.245l-.004-.905-.063-.125c-.126-.252-.376-.368-.623-.289m10.118 4.522c.032.024.036.135.047 1.303v4.469c-.035.028-.825.046-.842.018-.008-.012-.015-.07-.016-.129-.003-.139-.045-.149-.153-.038-.233.239-.83.278-1.151.075-.314-.199-.451-.44-.511-.898-.044-.337-.049-2.548-.007-2.754.1-.487.281-.726.695-.917.279-.129.836-.051.957.134.035.053.126.069.141.024.005-.014.002-.293-.007-.62l.003-.644.019-.05h.394c.283 0 .404.007.43.026m-10.484.083c.019.031.023.253.037 2.226v3.549a3.66 3.66 0 0 1-.846.007c-.04-.028-.042-.057-.042-1.216l-.019-2.872-.008-1.701c.018-.028.861-.02.879.009m-5.146.024c.017.02.026.481.034 1.565l.022 2.864-.011 1.354c-.02.024-.33.038-.823.037-.122 0-.115.093-.128-1.838l-.025-2.872.026-1.114c.061-.035.875-.032.905.004m11.478.999c.303.089.524.31.638.638.039.111.092 3.978.056 4.046-.026.048-.822.069-.878.023-.021-.017-.026-.355-.026-1.564l-.09-1.995c-.155-.349-.615-.344-.769.009-.044.1-.044.112-.037 1.825l-.005 1.737c-.025.025-.855.03-.875.005a121.37 121.37 0 0 1-.019-4.701c.03-.03.785-.034.831-.005.017.01.035.064.042.12.015.135.062.143.176.032.216-.21.593-.277.956-.171m-8.852.091c.077.029.152.063.167.075l.199.15c.322.238.464.486.54.936.052.309.068.297-.423.297-.438 0-.392.021-.457-.212-.127-.457-.671-.537-.877-.129-.049.097-.013.252.112.486.054.101.334.232.701.327.323.084.654.332.811.607.509.892-.069 2.102-1.04 2.176-.864.065-1.539-.569-1.539-1.445 0-.201-.003-.2.475-.19.419.009.401 0 .429.204.035.25.17.434.359.49.106.031.234.025.257-.013.006-.01.034-.019.061-.019.106 0 .305-.323.304-.491-.002-.184-.296-.501-.506-.546-.038-.008-.079-.023-.092-.033a1.69 1.69 0 0 0-.209-.083c-.193-.067-.5-.221-.615-.307-.485-.363-.608-.959-.33-1.598.241-.554 1.093-.902 1.674-.683m4.946-.038c.447.057.907.485 1.057.983.044.144.067 1.807.044 3.057l-.012.649-.387.013c-.422.014-.461.007-.461-.086 0-.107-.078-.14-.156-.066-.117.111-.282.157-.566.158l-.251.001-.194-.104c-.244-.131-.421-.281-.508-.429-.351-.6-.189-1.605.325-2.009.194-.152.545-.356.615-.357.016 0 .058-.018.094-.04s.135-.057.221-.077c.391-.094.496-.441.207-.688a.47.47 0 0 0-.762.293c-.019.154-.023.155-.489.155s-.457.006-.433-.226c.068-.665.601-1.194 1.248-1.241a1.51 1.51 0 0 1 .408.012m6.68.827c-.16.072-.234.159-.286.334s-.029 2.167.025 2.294c.114.265.342.386.518.275a.72.72 0 0 1 .126-.065c.027-.008.076-.054.11-.101l.062-.085-.012-1.164-.033-1.231c-.055-.18-.352-.329-.51-.257m-6.565 1.607a.33.33 0 0 0-.084.058c-.029.026-.156.116-.283.2-.35.232-.423.324-.445.565-.045.493.639.761.855.334.036-.071.098-1.067.069-1.114-.018-.03-.08-.053-.113-.043" fill="#d3332c"/></svg>
