<?xml version="1.0" encoding="UTF-8" standalone="no"?>
<!DOCTYPE svg PUBLIC "-//W3C//DTD SVG 1.1//EN" "http://www.w3.org/Graphics/SVG/1.1/DTD/svg11.dtd">
<svg width="100%" height="100%" viewBox="0 0 40 40" version="1.1" xmlns="http://www.w3.org/2000/svg" xmlns:xlink="http://www.w3.org/1999/xlink" xml:space="preserve" xmlns:serif="http://www.serif.com/" style="fill-rule:evenodd;clip-rule:evenodd;stroke-miterlimit:1.41421;">
    <g transform="matrix(0.190803,-7.87169e-18,-9.46616e-18,0.190803,-37.2409,-37.2409)">
        <g id="UP">
            <circle id="City" cx="300" cy="300" r="90.192" style="fill:white;"/>
            <clipPath id="_clip1">
                <circle id="City1" serif:id="City" cx="300" cy="300" r="90.192"/>
            </clipPath>
            <g clip-path="url(#_clip1)">
                <g opacity="0.87">
                    <g id="BG" transform="matrix(0.345834,1.42676e-17,1.71576e-17,0.345834,196.25,196.25)">
                        <rect x="0" y="0" width="600" height="600" style="fill:rgb(102,102,102);"/>
                    </g>
                    <g>
                        <g transform="matrix(0.288574,1.19053e-17,1.43168e-17,0.288574,229.674,219.017)">
                            <path d="M316.096,524.424C260.669,528.145 243.829,561.262 243.829,561.262C243.829,561.262 227.111,524.424 171.561,524.424C140.005,524.424 97.348,518.623 56.2,483.625C21.974,454.516 0,411.11 0,362.465C0,322.252 12.598,290.096 23.613,263.333C28.816,250.696 34.054,238.523 37.955,226.212C41.585,214.76 43.68,204.204 43.68,193.572C43.68,172.408 35.068,153.34 21.085,139.531L4.745,123.394L120.406,0L136.483,8.944C168.216,26.6 204.77,36.685 243.715,36.685C282.656,36.685 319.19,26.6 350.924,8.944L367.002,0L482.66,123.396L466.321,139.533C452.338,153.342 443.727,172.41 443.727,193.574C443.727,204.206 445.819,214.762 449.452,226.214C453.351,238.525 458.59,250.697 463.793,263.335C474.809,290.098 487.406,322.254 487.406,362.467C487.406,411.112 465.433,454.518 431.206,483.627C390.059,518.624 347.587,522.309 316.096,524.424Z" style="fill:white;"/>
                        </g>
                        <g transform="matrix(0.288574,1.19053e-17,1.43168e-17,0.288574,229.674,219.017)">
                            <path d="M243.715,60.256C200.649,60.256 160.163,49.092 125.023,29.543L37.646,122.76C55.926,140.811 67.25,165.845 67.25,193.573C67.25,248.739 23.57,292.065 23.57,362.465C23.57,403.844 42.234,440.805 71.472,465.672C141.388,525.133 215.267,479.406 243.692,527.934C272.114,479.407 346.019,525.133 415.933,465.672C445.171,440.805 463.836,403.844 463.836,362.465C463.836,292.065 420.154,248.739 420.154,193.573C420.154,165.845 431.48,140.811 449.758,122.76L362.383,29.543C327.243,49.093 286.781,60.256 243.715,60.256Z" style="fill:rgb(0,82,155);"/>
                        </g>
                        <g transform="matrix(0.288574,1.19053e-17,1.43168e-17,0.288574,229.674,219.017)">
                            <path d="M58.767,444.842C40.294,422.418 29.117,393.754 29.117,362.465C29.117,328.44 39.643,300.889 50.54,274.418C53.344,267.605 56.144,260.915 58.767,254.269L58.768,444.807L58.767,444.842Z" style="fill:rgb(239,62,66);"/>
                        </g>
                        <g transform="matrix(0.288574,1.19053e-17,1.43168e-17,0.288574,229.674,219.017)">
                            <path d="M92.396,473.875L92.396,254.269L126.093,254.269L126.093,488.524C114.908,485.448 103.743,480.831 92.396,473.875Z" style="fill:rgb(239,62,66);"/>
                        </g>
                        <g transform="matrix(0.288574,1.19053e-17,1.43168e-17,0.288574,229.674,219.017)">
                            <path d="M159.652,494.471L159.652,254.269L193.308,254.269L193.308,496.827C187.014,496.229 180.39,495.831 173.514,495.368C169.021,495.069 164.292,494.905 159.652,494.471Z" style="fill:rgb(239,62,66);"/>
                        </g>
                        <g transform="matrix(0.288574,1.19053e-17,1.43168e-17,0.288574,229.674,219.017)">
                            <path d="M428.619,444.842C447.091,422.418 458.267,393.754 458.267,362.465C458.267,328.44 447.741,300.889 436.845,274.418C434.041,267.605 431.241,260.915 428.618,254.269L428.615,444.807L428.619,444.842Z" style="fill:rgb(239,62,66);"/>
                        </g>
                        <g transform="matrix(0.288574,1.19053e-17,1.43168e-17,0.288574,229.674,219.017)">
                            <path d="M394.989,473.875L394.989,254.269L361.292,254.269L361.292,488.524C372.478,485.448 383.643,480.831 394.989,473.875Z" style="fill:rgb(239,62,66);"/>
                        </g>
                        <g transform="matrix(0.288574,1.19053e-17,1.43168e-17,0.288574,229.674,219.017)">
                            <path d="M327.735,494.471L327.735,254.269L294.076,254.269L294.076,496.827C300.372,496.229 306.996,495.831 313.872,495.368C318.363,495.069 323.095,494.905 327.735,494.471Z" style="fill:rgb(239,62,66);"/>
                        </g>
                        <g transform="matrix(0.288574,1.19053e-17,1.43168e-17,0.288574,229.674,219.017)">
                            <path d="M243.693,518.202C238.91,512.313 233.285,508.059 227.045,504.96L227.045,254.27L260.338,254.27L260.338,504.96C254.101,508.059 248.476,512.313 243.693,518.202Z" style="fill:rgb(239,62,66);"/>
                        </g>
                        <g transform="matrix(0.288574,1.19053e-17,1.43168e-17,0.288574,229.674,219.017)">
                            <path d="M92.396,473.922C86.671,470.412 80.764,466.293 75.064,461.447C69.111,456.379 63.613,450.795 58.647,444.759L58.767,444.806L58.766,254.268L92.396,254.268L92.396,473.922Z" style="fill:white;"/>
                        </g>
                        <g transform="matrix(0.288574,1.19053e-17,1.43168e-17,0.288574,229.674,219.017)">
                            <path d="M159.652,494.301C148.749,493.281 137.542,491.688 126.094,488.541L126.094,254.269L159.652,254.269L159.652,494.301Z" style="fill:white;"/>
                        </g>
                        <g transform="matrix(0.288574,1.19053e-17,1.43168e-17,0.288574,229.674,219.017)">
                            <path d="M193.308,496.827L193.308,254.269L227.045,254.269L227.045,504.936C223.594,503.225 219.951,501.86 216.161,500.764C209.858,498.948 203.015,497.84 195.729,497.073L193.308,496.827Z" style="fill:white;"/>
                        </g>
                        <g transform="matrix(0.288574,1.19053e-17,1.43168e-17,0.288574,229.674,219.017)">
                            <path d="M394.989,473.922C400.714,470.412 406.62,466.293 412.321,461.447C418.274,456.379 423.77,450.795 428.736,444.759L428.616,444.806L428.619,254.268L394.989,254.268L394.989,473.922Z" style="fill:white;"/>
                        </g>
                        <g transform="matrix(0.288574,1.19053e-17,1.43168e-17,0.288574,229.674,219.017)">
                            <path d="M327.735,494.301C338.636,493.281 349.842,491.688 361.292,488.541L361.292,254.269L327.735,254.269L327.735,494.301Z" style="fill:white;"/>
                        </g>
                        <g transform="matrix(0.288574,1.19053e-17,1.43168e-17,0.288574,229.674,219.017)">
                            <path d="M294.076,496.827L294.076,254.269L260.338,254.269L260.338,504.936C263.792,503.225 267.434,501.86 271.225,500.764C277.527,498.948 284.371,497.84 291.657,497.073L294.076,496.827Z" style="fill:white;"/>
                        </g>
                        <g transform="matrix(0.288574,1.19053e-17,1.43168e-17,0.288574,229.674,219.017)">
                            <rect x="318.325" y="167.78" width="15.246" height="51.835" style="fill:white;"/>
                        </g>
                        <g transform="matrix(0.288574,1.19053e-17,1.43168e-17,0.288574,229.674,219.017)">
                            <path d="M308.578,179.386L308.578,167.783L273.343,167.783L273.343,219.618L288.703,219.618L288.703,201.571L308.578,201.571L308.578,189.428L288.703,189.428L288.703,179.386L308.578,179.386Z" style="fill:white;"/>
                        </g>
                        <g transform="matrix(0.288574,1.19053e-17,1.43168e-17,0.288574,229.674,219.017)">
                            <rect x="247.245" y="167.78" width="15.246" height="51.835" style="fill:white;"/>
                        </g>
                        <g transform="matrix(0.288574,1.19053e-17,1.43168e-17,0.288574,229.674,219.017)">
                            <path d="M130.238,167.773C139.912,167.773 147.686,175.617 147.686,185.291C147.686,194.966 139.843,202.808 130.168,202.808L120.13,202.808L120.13,219.632L105.89,219.632L105.89,167.774L130.238,167.774L130.238,167.773Z" style="fill:white;"/>
                        </g>
                        <g transform="matrix(0.288574,1.19053e-17,1.43168e-17,0.288574,229.674,219.017)">
                            <path d="M160.833,210.706L157.683,219.633L143.253,219.633L161.959,167.773L179.134,167.773L197.842,219.633L183.41,219.633L180.261,210.706L160.833,210.706Z" style="fill:white;"/>
                        </g>
                        <g transform="matrix(0.288574,1.19053e-17,1.43168e-17,0.288574,229.674,219.017)">
                            <path d="M211.006,194.451C210.808,186.674 216.528,181.342 223.673,181.163C227.255,181.074 231.889,182.946 236.697,184.197L236.697,169.909C234.391,168.479 228.141,166.691 224.197,166.691C209.609,166.691 196.695,177.751 196.695,194.306C196.695,210.86 209.609,221.956 224.197,221.956C228.14,221.956 234.391,220.167 236.697,218.738L236.697,204.45C231.889,205.701 227.255,207.572 223.673,207.484C216.529,207.305 210.809,201.973 211.006,194.196L211.006,194.451Z" style="fill:white;"/>
                        </g>
                        <g transform="matrix(0.288574,1.19053e-17,1.43168e-17,0.288574,229.674,219.017)">
                            <path d="M355.825,194.451C355.629,186.674 361.347,181.342 368.49,181.163C372.073,181.074 376.708,182.946 381.515,184.197L381.515,169.909C379.209,168.479 372.957,166.691 369.017,166.691C354.427,166.691 341.513,177.751 341.513,194.306C341.513,210.86 354.427,221.956 369.017,221.956C372.957,221.956 379.209,220.167 381.515,218.738L381.515,204.45C376.707,205.701 372.073,207.572 368.49,207.484C361.347,207.305 355.629,201.973 355.825,194.196L355.825,194.451Z" style="fill:white;"/>
                        </g>
                        <g transform="matrix(0.288574,1.19053e-17,1.43168e-17,0.288574,229.674,219.017)">
                            <path d="M175.917,198.929L170.572,182.306L170.452,182.306L165.044,198.929L175.917,198.929Z" style="fill:rgb(0,82,155);"/>
                        </g>
                        <g transform="matrix(0.288574,1.19053e-17,1.43168e-17,0.288574,229.674,219.017)">
                            <path d="M120.13,179.333L129.234,179.333C132.241,179.333 134.657,181.772 134.657,184.779C134.657,187.788 132.219,191.022 129.211,191.022L120.13,191.022L120.13,179.333Z" style="fill:rgb(0,82,155);"/>
                        </g>
                        <g transform="matrix(0.288574,1.19053e-17,1.43168e-17,0.288574,229.674,219.017)">
                            <rect x="235.329" y="95.385" width="15.244" height="51.836" style="fill:white;"/>
                        </g>
                        <g transform="matrix(0.288574,1.19053e-17,1.43168e-17,0.288574,229.674,219.017)">
                            <path d="M259.4,121.392C259.4,106.342 271.722,94.144 286.919,94.144C302.118,94.144 314.44,106.342 314.44,121.392C314.44,136.44 302.118,148.64 286.919,148.64C271.723,148.639 259.4,136.44 259.4,121.392Z" style="fill:white;"/>
                        </g>
                        <g transform="matrix(0.288574,1.19053e-17,1.43168e-17,0.288574,229.674,219.017)">
                            <path d="M323.927,147.214L338.602,147.214L338.602,121.094L338.739,121.094L356.329,147.221L372.973,147.221L372.973,95.385L357.193,95.385L357.193,122.76L357.056,122.76L339.413,95.385L323.927,95.385L323.927,147.214Z" style="fill:white;"/>
                        </g>
                        <g transform="matrix(0.288574,1.19053e-17,1.43168e-17,0.288574,229.674,219.017)">
                            <path d="M173.294,147.214L187.967,147.214L187.967,121.094L188.105,121.094L205.695,147.221L222.34,147.221L222.34,95.385L206.561,95.385L206.561,122.76L206.423,122.76L188.779,95.385L173.294,95.385L173.294,147.214Z" style="fill:white;"/>
                        </g>
                        <g transform="matrix(0.288574,1.19053e-17,1.43168e-17,0.288574,229.674,219.017)">
                            <path d="M273.949,121.392C273.949,114.299 279.756,108.55 286.919,108.55C294.082,108.55 299.889,114.3 299.889,121.392C299.889,128.484 294.082,134.233 286.919,134.233C279.756,134.233 273.949,128.484 273.949,121.392Z" style="fill:rgb(0,82,155);"/>
                        </g>
                        <g transform="matrix(0.288574,1.19053e-17,1.43168e-17,0.288574,229.674,219.017)">
                            <path d="M144.964,95.341L159.978,95.341L159.978,124.209C159.978,130.814 159.701,137.35 154.51,142.32C150.149,146.54 143.297,148.039 137.206,148.039C131.115,148.039 124.263,146.54 119.9,142.32C114.71,137.35 114.433,130.814 114.433,124.209L114.433,95.341L129.446,95.341L129.446,120.498C129.446,127.172 128.484,134.456 137.205,134.456C145.926,134.456 144.964,127.171 144.964,120.498L144.964,95.341Z" style="fill:white;"/>
                        </g>
                        <g transform="matrix(0.288574,1.19053e-17,1.43168e-17,0.288574,229.674,219.017)">
                            <path d="M159.652,494.301C148.749,493.281 137.542,491.67 126.094,488.524C114.908,485.448 103.743,480.831 92.397,473.876C86.672,470.366 80.765,466.294 75.065,461.448C69.112,456.38 63.614,450.796 58.648,444.76M58.648,444.76L58.768,444.807L58.767,444.842M58.767,444.842C40.294,422.418 29.117,393.754 29.117,362.465C29.117,328.44 39.643,300.889 50.54,274.418C53.344,267.605 56.144,260.915 58.767,254.269M58.767,254.269L428.62,254.269M428.619,254.269C431.241,260.915 434.042,267.605 436.846,274.418C447.742,300.889 458.268,328.44 458.268,362.465C458.268,393.754 447.091,422.418 428.62,444.842M428.619,444.842L428.616,444.807L428.736,444.76M428.736,444.76C423.77,450.795 418.274,456.379 412.321,461.448C406.62,466.294 400.714,470.413 394.989,473.923C383.642,480.878 372.477,485.448 361.292,488.525C349.843,491.671 338.637,493.283 327.735,494.302C323.094,494.736 318.363,495.07 313.872,495.368C306.996,495.831 300.372,496.229 294.076,496.827M294.076,496.827L291.656,497.12M291.656,497.12C284.37,497.888 277.526,498.995 271.224,500.811C267.433,501.907 263.791,503.266 260.337,504.983C254.1,508.083 248.475,512.313 243.692,518.202C238.909,512.313 233.284,508.059 227.044,504.96C223.593,503.243 219.95,501.86 216.16,500.765C209.857,498.949 203.014,497.841 195.728,497.074M195.729,497.073L193.308,496.827M193.308,496.827C187.014,496.229 180.39,495.831 173.514,495.368C169.021,495.069 164.293,494.735 159.652,494.302" style="fill:none;fill-rule:nonzero;stroke:rgb(0,82,155);stroke-width:0.65px;"/>
                        </g>
                    </g>
                </g>
            </g>
            <path id="City2" serif:id="City" d="M300,197.282C243.308,197.282 197.282,243.308 197.282,300C197.282,356.692 243.308,402.718 300,402.718C356.692,402.718 402.718,356.692 402.718,300C402.718,243.308 356.692,197.282 300,197.282ZM300,209.808C349.778,209.808 390.192,250.222 390.192,300C390.192,349.778 349.778,390.192 300,390.192C250.222,390.192 209.808,349.778 209.808,300C209.808,250.222 250.222,209.808 300,209.808Z" style="fill:white;"/>
        </g>
    </g>
</svg>
