<svg viewBox="0 0 40 40" xmlns="http://www.w3.org/2000/svg" fill-rule="evenodd" clip-rule="evenodd" stroke-miterlimit="1.414"><g transform="translate(-37.24 -37.24) scale(.1908)"><circle cx="300" cy="300" r="90.192" fill="#fff"/><clipPath id="a"><circle cx="300" cy="300" r="90.192"/></clipPath><g opacity=".87" clip-path="url(#a)"><path fill="#666" d="M196.25 196.25h207.5v207.5h-207.5z"/><path d="M320.891 370.352c-15.995 1.074-20.854 10.63-20.854 10.63s-4.825-10.63-20.855-10.63c-9.106 0-21.416-1.674-33.29-11.773-9.877-8.4-16.218-20.926-16.218-34.964 0-11.604 3.635-20.884 6.814-28.607 1.502-3.647 3.013-7.16 4.139-10.712 1.047-3.305 1.652-6.351 1.652-9.42 0-6.107-2.485-11.61-6.52-15.594l-4.716-4.657 33.377-35.608 4.64 2.581c9.157 5.095 19.705 8.005 30.944 8.005 11.237 0 21.78-2.91 30.938-8.005l4.64-2.581 33.375 35.609-4.715 4.657c-4.035 3.985-6.52 9.487-6.52 15.594 0 3.069.604 6.115 1.652 9.42 1.125 3.552 2.637 7.065 4.139 10.712 3.179 7.723 6.814 17.002 6.814 28.607 0 14.037-6.341 26.563-16.218 34.963-11.874 10.1-24.13 11.163-33.218 11.773z" fill="#fff"/><path d="M300.004 236.405c-12.428 0-24.111-3.221-34.252-8.863l-25.214 26.9c5.275 5.21 8.543 12.434 8.543 20.435 0 15.92-12.605 28.422-12.605 48.738 0 11.94 5.386 22.607 13.823 29.783 20.176 17.159 41.495 3.963 49.698 17.967 8.202-14.004 29.53-.808 49.704-17.967 8.438-7.176 13.824-17.842 13.824-29.783 0-20.316-12.605-32.818-12.605-48.738 0-8.001 3.268-15.226 8.542-20.435l-25.214-26.9c-10.14 5.642-21.816 8.863-34.244 8.863z" fill="#00529b"/><path d="M246.633 347.387c-5.331-6.471-8.557-14.743-8.557-23.772 0-9.819 3.038-17.77 6.183-25.408.809-1.966 1.617-3.897 2.374-5.815v54.995zm9.704 8.378v-63.373h9.724v67.6a37.316 37.316 0 01-9.724-4.227zm19.408 5.943v-69.316h9.713v69.996c-1.817-.172-3.728-.287-5.712-.42-1.297-.087-2.662-.134-4-.26zm77.617-14.321c5.33-6.471 8.556-14.743 8.556-23.772 0-9.819-3.038-17.77-6.182-25.408-.81-1.966-1.617-3.897-2.374-5.815v54.995zm-9.704 8.378v-63.373h-9.725v67.6a37.308 37.308 0 009.725-4.227zm-19.408 5.943v-69.316h-9.713v69.996c1.817-.172 3.728-.287 5.712-.42 1.296-.087 2.662-.134 4-.26zm-24.253 6.849c-1.38-1.7-3.003-2.927-4.804-3.822v-72.342h9.608v72.342c-1.8.895-3.423 2.122-4.804 3.822z" fill="#ef3e42"/><path d="M256.337 355.779a39.948 39.948 0 01-5.001-3.6 38.205 38.205 0 01-4.738-4.816l.035.013v-54.984h9.704v63.387zm19.408 5.881c-3.146-.295-6.38-.755-9.684-1.663v-67.605h9.684v69.267zm9.713.728v-69.996h9.735v72.336a18.826 18.826 0 00-3.14-1.204c-1.82-.524-3.794-.843-5.897-1.065l-.698-.07zm58.2-6.609a39.969 39.969 0 005.001-3.6 38.2 38.2 0 004.737-4.816l-.035.013.001-54.984h-9.704v63.387zm-19.408 5.881c3.146-.295 6.38-.755 9.683-1.663v-67.605h-9.683v69.267zm-9.713.728v-69.996H304.8v72.336a18.854 18.854 0 013.141-1.204c1.82-.524 3.794-.843 5.897-1.065l.698-.07zm6.997-94.954h4.4v14.958h-4.4zm-2.812 3.349v-3.348h-10.168v14.958h4.432v-5.208h5.736v-3.504h-5.736v-2.898h5.736zm-17.7-3.349h4.4v14.958h-4.4zm-33.765-.002c2.792 0 5.035 2.264 5.035 5.055a5.055 5.055 0 01-5.055 5.055h-2.897v4.855h-4.109v-14.965h7.026zm8.829 12.389l-.909 2.576h-4.164l5.398-14.965h4.956l5.4 14.965H282.6l-.908-2.576h-5.607zm14.479-4.691c-.057-2.244 1.593-3.782 3.655-3.834 1.034-.026 2.371.514 3.759.875v-4.123c-.666-.412-2.47-.928-3.608-.928-4.21 0-7.936 3.191-7.936 7.969 0 4.777 3.727 7.979 7.936 7.979 1.138 0 2.942-.517 3.608-.929v-4.123c-1.388.361-2.725.9-3.759.875-2.061-.051-3.712-1.59-3.655-3.834v.074zm41.791 0c-.057-2.244 1.593-3.782 3.655-3.834 1.034-.026 2.371.514 3.758.875v-4.123c-.665-.412-2.47-.928-3.606-.928-4.21 0-7.937 3.191-7.937 7.969 0 4.777 3.726 7.979 7.937 7.979 1.137 0 2.94-.517 3.606-.929v-4.123c-1.387.361-2.724.9-3.758.875-2.062-.051-3.712-1.59-3.655-3.834v.074z" fill="#fff"/><path d="M280.44 276.423l-1.543-4.797h-.035l-1.56 4.797h3.137zm-16.1-5.655h2.628c.867 0 1.565.704 1.565 1.571 0 .869-.704 1.802-1.572 1.802h-2.62v-3.373z" fill="#00529b"/><path fill="#fff" d="M297.584 246.543h4.399V261.5h-4.4zm6.946 7.505c0-4.343 3.556-7.863 7.941-7.863 4.386 0 7.942 3.52 7.942 7.863 0 4.342-3.556 7.863-7.942 7.863-4.385 0-7.94-3.521-7.94-7.863zm18.62 7.452h4.236v-7.538h.04l5.075 7.54h4.803v-14.96h-4.553v7.9h-.04l-5.091-7.9h-4.47V261.5zm-43.468 0h4.234v-7.538h.04l5.076 7.54h4.804v-14.96h-4.554v7.9h-.04l-5.091-7.9h-4.469V261.5z"/><path d="M308.729 254.048c0-2.047 1.675-3.706 3.742-3.706s3.743 1.659 3.743 3.706c0 2.046-1.676 3.705-3.743 3.705s-3.742-1.659-3.742-3.705z" fill="#00529b"/><path d="M271.507 246.53h4.332v8.33c0 1.907-.08 3.793-1.577 5.227-1.259 1.218-3.236 1.65-4.994 1.65-1.758 0-3.735-.432-4.994-1.65-1.498-1.434-1.578-3.32-1.578-5.227v-8.33h4.333v7.26c0 1.926-.278 4.028 2.239 4.028 2.516 0 2.239-2.103 2.239-4.028v-7.26z" fill="#fff"/><path d="M275.745 361.657c-3.147-.294-6.38-.759-9.684-1.667a37.316 37.316 0 01-9.724-4.227c-1.652-1.012-3.357-2.188-5.001-3.586a38.205 38.205 0 01-4.738-4.816m0 0l.035.014v.01m0 0c-5.331-6.47-8.557-14.742-8.557-23.771 0-9.82 3.038-17.77 6.182-25.408.81-1.966 1.617-3.897 2.374-5.815m0 0h106.729m0 0c.756 1.918 1.564 3.849 2.374 5.815 3.144 7.639 6.181 15.589 6.181 25.408 0 9.029-3.225 17.3-8.555 23.771m0 0l-.001-.01.034-.014m0 0a38.238 38.238 0 01-4.737 4.816 39.968 39.968 0 01-5.001 3.6 37.277 37.277 0 01-9.724 4.214c-3.304.908-6.538 1.373-9.684 1.667-1.339.125-2.704.221-4 .307-1.984.134-3.896.249-5.712.421m0 0l-.699.085m0 0c-2.102.222-4.077.541-5.896 1.065a18.704 18.704 0 00-3.142 1.204c-1.8.895-3.423 2.115-4.803 3.815-1.38-1.7-3.003-2.927-4.804-3.822a18.673 18.673 0 00-3.14-1.21c-1.82-.524-3.794-.844-5.897-1.065m0 0l-.698-.072m0 0c-1.816-.172-3.728-.287-5.712-.42a154.769 154.769 0 01-4-.308" fill="none" stroke="#00529b" stroke-width=".188"/></g><path d="M300 197.282c-56.692 0-102.718 46.026-102.718 102.718S243.308 402.718 300 402.718 402.718 356.692 402.718 300 356.692 197.282 300 197.282zm0 12.526c49.778 0 90.192 40.414 90.192 90.192 0 49.778-40.414 90.192-90.192 90.192-49.778 0-90.192-40.414-90.192-90.192 0-49.778 40.414-90.192 90.192-90.192z" fill="#fff"/></g></svg>