<?xml version="1.0" encoding="UTF-8" standalone="no"?>
<!DOCTYPE svg PUBLIC "-//W3C//DTD SVG 1.1//EN" "http://www.w3.org/Graphics/SVG/1.1/DTD/svg11.dtd">
<svg version="1.1" xmlns="http://www.w3.org/2000/svg" xmlns:xlink="http://www.w3.org/1999/xlink" preserveAspectRatio="xMidYMid meet" viewBox="0 0 640 640" width="2000" height="2000"><defs><path d="M101.98 393.12L97.7 382.44L96.98 371L96.98 359.56L100.55 348.89L106.97 339.74L115.54 332.87L123.39 326.01L131.24 319.15L135.52 309.23L137.66 297.03L138.37 285.59L142.66 275.68L151.22 268.05L159.78 261.95L166.92 252.8L174.06 242.12L186.19 232.21L195.47 227.63L206.89 227.63L217.59 230.68L229.01 231.44L239 235.26L246.85 242.12L252.56 253.56L258.98 261.95L268.26 267.29L276.11 277.2L278.25 290.17L280.39 300.84L287.53 309.99L296.81 317.62L301.8 327.53L304.66 342.79L303.94 354.99L308.94 367.19L317.5 373.29L323.21 383.97L323.21 396.17L323.21 407.61L316.79 416L306.8 421.34L296.09 423.63L284.68 426.68L273.26 431.25L262.55 435.06L251.85 436.59L240.43 436.59L229.72 436.59L219.02 436.59L208.31 437.35L197.61 438.12L183.33 438.12L171.2 438.12L161.21 434.3L150.51 431.25L139.8 428.96L129.81 424.39L116.25 419.05L106.26 416.76L100.55 406.09L101.98 390.07" id="a12GhYORMP"></path><path d="M530.11 6.45C537.81 11.54 539.92 21.91 534.83 29.6C493.92 91.47 380.42 263.15 339.51 325.02C334.42 332.72 324.06 334.83 316.36 329.74C313.57 327.9 319.15 331.58 316.36 329.74C308.66 324.65 306.55 314.29 311.64 306.59C352.55 244.72 466.05 73.05 506.96 11.17C512.05 3.48 522.41 1.36 530.11 6.45C532.9 8.3 527.32 4.61 530.11 6.45Z" id="aULLmJrrF"></path><path d="M398.15 295.7C408.46 302.52 411.29 316.41 404.47 326.72C387.22 352.8 369.57 379.5 357.76 397.36C335.93 430.38 291.47 439.45 258.45 417.62C246.44 409.68 270.41 425.53 258.45 417.62C225.28 395.69 216.17 351.02 238.1 317.86C249.88 300.05 267.39 273.57 284.63 247.48C291.45 237.17 305.34 234.34 315.65 241.16C335.88 254.53 377.91 282.32 398.15 295.7Z" id="b5GAy9gchX"></path><path d="M89.84 407.82L85.07 396.71L84.28 384.8L84.28 372.89L88.25 361.78L95.39 352.26L104.92 345.11L113.65 337.97L122.38 330.82L127.15 320.5L129.53 307.8L130.32 295.9L135.08 285.58L144.61 277.64L154.13 271.29L162.07 261.76L170.01 250.65L183.51 240.33L193.82 235.57L206.53 235.57L218.43 238.74L231.13 239.54L242.25 243.51L250.98 250.65L257.33 262.56L264.47 271.29L274.79 276.84L283.52 287.16L285.9 300.66L288.29 311.77L296.22 321.3L306.54 329.24L312.1 339.55L315.28 355.43L314.48 368.13L320.04 380.83L329.56 387.18L335.91 398.3L335.91 411L335.91 422.9L328.77 431.63L317.66 437.19L305.75 439.57L293.05 442.75L280.35 447.51L268.44 451.48L256.53 453.07L243.83 453.07L231.93 453.07L220.02 453.07L208.11 453.86L196.21 454.65L180.33 454.65L166.84 454.65L155.72 450.69L143.82 447.51L131.91 445.13L120.8 440.37L105.71 434.81L94.6 432.43L88.25 421.32L89.84 404.65" id="b2V9n43aRo"></path><path d="M566.24 429.51C576.22 429.51 584.32 437.61 584.32 447.59C584.32 486.08 584.32 583.44 584.32 621.92C584.32 631.91 576.22 640 566.24 640C467.95 640 191.17 640 92.89 640C82.9 640 74.81 631.91 74.81 621.92C74.81 583.44 74.81 486.08 74.81 447.59C74.81 437.61 82.9 429.51 92.89 429.51C191.17 429.51 467.95 429.51 566.24 429.51Z" id="d7knzW1rh"></path><path d="M562.6 421.16C574.6 421.16 584.32 430.88 584.32 442.88C584.32 447.22 584.32 438.53 584.32 442.88C584.32 454.87 574.6 464.6 562.6 464.6C465.04 464.6 194.08 464.6 96.53 464.6C84.53 464.6 74.81 454.87 74.81 442.88C74.81 438.53 74.81 447.22 74.81 442.88C74.81 430.88 84.53 421.16 96.53 421.16C194.08 421.16 465.04 421.16 562.6 421.16Z" id="b5wg86ndm"></path><path d="M474.02 421.16C482.35 421.16 489.1 427.91 489.1 436.24C489.1 471.14 489.1 478.8 489.1 493.21C489.1 558.13 436.47 610.77 371.54 610.77C331.24 610.77 327.89 610.77 287.59 610.77C222.66 610.77 170.03 558.13 170.03 493.21C170.03 478.8 170.03 471.14 170.03 436.24C170.03 427.91 176.78 421.16 185.11 421.16C245.91 421.16 413.22 421.16 474.02 421.16Z" id="ajDWdxMxf"></path></defs><g><g><g><use xlink:href="#a12GhYORMP" opacity="1" fill="#397513" fill-opacity="1"></use><g><use xlink:href="#a12GhYORMP" opacity="1" fill-opacity="0" stroke="#060105" stroke-width="1" stroke-opacity="1"></use></g></g><g><use xlink:href="#aULLmJrrF" opacity="1" fill="#e3c58c" fill-opacity="1"></use><g><use xlink:href="#aULLmJrrF" opacity="1" fill-opacity="0" stroke="#000000" stroke-width="1" stroke-opacity="1"></use></g></g><g><use xlink:href="#b5GAy9gchX" opacity="1" fill="#8f8f8f" fill-opacity="1"></use><g><use xlink:href="#b5GAy9gchX" opacity="1" fill-opacity="0" stroke="#000000" stroke-width="2" stroke-opacity="1"></use></g><g><filter id="shadow11546196" x="198.16" y="209.44" width="243.03" height="255.07" filterUnits="userSpaceOnUse" primitiveUnits="userSpaceOnUse"><feFlood></feFlood><feComposite in2="SourceAlpha" operator="out"></feComposite><feGaussianBlur stdDeviation="2.24"></feGaussianBlur><feOffset dx="5" dy="7" result="afterOffset"></feOffset><feFlood flood-color="#000000" flood-opacity="0.43"></feFlood><feComposite in2="afterOffset" operator="in"></feComposite><feMorphology operator="dilate" radius="6"></feMorphology><feComposite in2="SourceAlpha" operator="in"></feComposite></filter><path d="M398.15 295.7C408.46 302.52 411.29 316.41 404.47 326.72C387.22 352.8 369.57 379.5 357.76 397.36C335.93 430.38 291.47 439.45 258.45 417.62C246.44 409.68 270.41 425.53 258.45 417.62C225.28 395.69 216.17 351.02 238.1 317.86C249.88 300.05 267.39 273.57 284.63 247.48C291.45 237.17 305.34 234.34 315.65 241.16C335.88 254.53 377.91 282.32 398.15 295.7Z" id="dPtNYf7Aj" fill="white" fill-opacity="1" filter="url(#shadow11546196)"></path></g></g><g><use xlink:href="#b2V9n43aRo" opacity="1" fill="#5a4603" fill-opacity="1"></use><g><use xlink:href="#b2V9n43aRo" opacity="1" fill-opacity="0" stroke="#060105" stroke-width="1" stroke-opacity="1"></use></g></g><g><use xlink:href="#d7knzW1rh" opacity="1" fill="#5a4603" fill-opacity="1"></use></g><g><use xlink:href="#b5wg86ndm" opacity="1" fill="#397513" fill-opacity="1"></use></g><g><use xlink:href="#ajDWdxMxf" opacity="1" fill="#7d672d" fill-opacity="1"></use></g></g></g></svg>
