<?xml version="1.0" encoding="utf-8"?><svg version="1.1" id="Layer_1" xmlns="http://www.w3.org/2000/svg" xmlns:xlink="http://www.w3.org/1999/xlink" x="0px" y="0px" viewBox="0 0 122.88 51.42" style="enable-background:new 0 0 122.88 51.42" xml:space="preserve"><style type="text/css">.st0{fill-rule:evenodd;clip-rule:evenodd;}</style><g><path class="st0" d="M0,40.47V12.51C0.88,5.35,4.88,1.64,10.75,0h99.32c7.71,0.64,12.78,3.99,12.8,12.51V39.1 c0.09,9.52-4.91,12.84-13.39,11.93H89.35c-13.07,0-14.93-7.62-20.56-11.24c-3.74-2.4-9.28-2.48-13.18-0.39 c-6.22,3.33-8.01,11.22-22.37,12.02H10.95C5,50.89,1.01,47.7,0,40.47L0,40.47z M111.83,25.69c-0.61-14.02-4.12-18.5-8.47-18.57 c2.19,11.15,3,22.66-0.15,36.28C108.07,43.73,111.22,37.94,111.83,25.69L111.83,25.69z"/></g></svg>