<?xml version="1.0" encoding="utf-8"?><svg version="1.1" id="Layer_1" xmlns="http://www.w3.org/2000/svg" xmlns:xlink="http://www.w3.org/1999/xlink" x="0px" y="0px" viewBox="0 0 123.38 123.26" style="enable-background:new 0 0 123.38 123.26" xml:space="preserve"><style type="text/css">.st0{fill-rule:evenodd;clip-rule:evenodd;stroke:#000000;stroke-width:0.5;stroke-miterlimit:2.6131;}</style><g><path class="st0" d="M56.77,74.12c-4.5,1.44-8.91,3.22-13.22,5.37c2.58-5.28,4.73-10.92,6.27-16.66c0.61-0.67,1.23-1.34,1.85-2.02 c1.74,1.93,3.59,3.89,5.48,5.84c1.76,1.81,3.55,3.57,5.31,5.23c-0.33,0.3-0.66,0.6-0.98,0.9C59.9,73.17,58.33,73.62,56.77,74.12 L56.77,74.12z M119.36,4.02c-5.86-5.86-17.37-4.65-31.25,2.05C76.79,11.54,63.69,20.7,50.81,32.58 c-2.69-10.33-9.2-19.34-21.09-25.16c-4.37-2.14-10.03-3.76-15.4-4.58C25,9.22,32.54,16.51,35.14,24.55 C44.15,52.5,2.09,67.59,7.29,94.19c-0.2,0.76-0.38,1.5-0.54,2.23c-4.55,4.5-9.91,9.79-3.68,15.87l8.71,8.71 c5.26,5.01,10.99-0.45,14.85-4.31c0.65-0.13,1.3-0.28,1.97-0.45c33.3,5.77,54.03-63.82,91.95-6.55c-0.8-4.58-1.9-9.11-3.74-13.56 c-5.37-12.95-14.87-20.38-26.03-23.54c11.89-12.89,21.06-26,26.53-37.33C124.01,21.39,125.23,9.88,119.36,4.02L119.36,4.02z M90.63,9.8c8.08-3.83,15.04-5.65,20.01-5.05c-3.76,1.56-8.47,4.42-13.83,8.37c-0.79,0.58-1.59,1.18-2.41,1.81 C93.09,13.26,91.83,11.55,90.63,9.8L90.63,9.8z M118.63,12.82c0.58,5.03-1.3,12.07-5.21,20.24c-1.76-1.17-3.48-2.43-5.15-3.79 c0.7-0.91,1.36-1.8,2-2.67C114.21,21.27,117.07,16.58,118.63,12.82L118.63,12.82z M111.38,37.09c-2.06,3.82-4.51,7.83-7.33,11.93 c-2.31-1.53-4.8-3.48-7.35-5.7c3.22-3.67,6.18-7.19,8.82-10.51C107.42,34.35,109.37,35.78,111.38,37.09L111.38,37.09z M101.45,52.68c-2.74,3.75-5.77,7.57-9.05,11.4c-2.54-1.62-5.51-3.97-8.64-6.73c3.51-3.63,6.84-7.21,9.96-10.68 C96.38,48.99,99,51.05,101.45,52.68L101.45,52.68z M89.41,67.49c-1.2,1.33-2.42,2.66-3.68,3.99c-5.15-0.85-10.55-0.89-16-0.23 c2.78-2.64,5.61-5.39,8.45-8.23c0.82-0.82,1.63-1.64,2.44-2.45C83.76,63.34,86.77,65.74,89.41,67.49L89.41,67.49z M51.83,37.73 c1.42-1.35,2.84-2.66,4.27-3.93c1.89,2.65,4.28,5.66,6.96,8.79c-0.89,0.87-1.77,1.75-2.66,2.64c-3.05,3.05-5.99,6.07-8.8,9.05 C52.43,48.66,52.57,43.07,51.83,37.73L51.83,37.73z M59.49,30.82c3.91-3.35,7.82-6.43,11.65-9.21c1.67,2.43,3.69,5.08,5.93,7.8 c-3.5,3.14-7.11,6.5-10.78,10.04C63.63,36.35,61.29,33.39,59.49,30.82L59.49,30.82z M74.8,19.03c4.06-2.77,8.01-5.18,11.79-7.19 c1.35,1.99,2.78,3.95,4.26,5.86c-3.29,2.62-6.79,5.55-10.44,8.74C78.29,23.85,76.38,21.34,74.8,19.03L74.8,19.03z M99.49,16.76 c9.06-6.67,15.21-10.25,16.32-9.15c1.1,1.1-2.47,7.26-9.15,16.32c-0.58,0.78-1.18,1.58-1.8,2.4c-1-0.92-1.99-1.86-2.96-2.84 c-1.61-1.62-3.16-3.31-4.65-5.06C98.01,17.85,98.75,17.29,99.49,16.76L99.49,16.76z M102.09,29.87c-2.61,3.28-5.54,6.77-8.74,10.41 c-1.29-1.21-2.58-2.47-3.85-3.77c-2.13-2.16-4.21-4.41-6.17-6.64c3.63-3.18,7.1-6.09,10.37-8.68c1.61,1.89,3.29,3.72,5.02,5.47 C99.82,27.76,100.94,28.84,102.09,29.87L102.09,29.87z M90.37,43.64c-3.11,3.46-6.44,7.03-9.95,10.66 c-1.61-1.51-3.23-3.1-4.84-4.73c-2.17-2.2-4.31-4.47-6.33-6.72c3.66-3.53,7.25-6.87,10.73-10c2.01,2.3,4.15,4.6,6.32,6.82 C87.65,41.03,89.01,42.36,90.37,43.64L90.37,43.64z M77.29,57.51c-0.76,0.77-1.52,1.54-2.29,2.31c-3.12,3.12-6.21,6.12-9.25,8.99 c-1.8-1.7-3.61-3.48-5.39-5.3c-1.9-1.94-3.79-3.96-5.61-6c2.82-2.99,5.78-6.03,8.85-9.1c0.82-0.82,1.64-1.63,2.46-2.44 c2.04,2.26,4.18,4.54,6.36,6.75C74.02,54.37,75.66,55.98,77.29,57.51L77.29,57.51z"/></g></svg>
