<svg xmlns="http://www.w3.org/2000/svg" version="1.0" width="400" height="400" preserveAspectRatio="xMidYMid meet">
  <circle fill="#5b74b4" r="200" cy="200" cx="200"/>
  <path fill="#B88A38" d="m235 55c3 2 3-1 3 122l1 118 1 5c4 14 12 22 27 26c8 2 19 3 28 2c4-1 8-1 10 0c6 1 8 8 3 11c-2 1-8 1-97 1c-65 0-96 0-98-1c-4-1-6-3-6-5c0-2 3-5 7-6c2-1 8-1 14-1c22-1 34-5 41-13c4-5 6-9 8-18c1-5 1-12 1-90c0-70 0-85-1-88c-4-16-14-20-55-21l-14-1-1-2c-2-3-2-6 0-8c1-2 2-2 11-3c16-1 30-3 54-8c28-6 40-10 52-16c8-5 12-6 14-5l-1 0z"/>
</svg>
