<svg xmlns="http://www.w3.org/2000/svg" version="1.0" width="400" height="400"><circle fill="#5b74b4" r="200" cy="200" cx="200"/><path fill="#B88A38" d="M217 61c9 1 18 4 27 8 11 6 18 11 28 20 17 17 25 34 25 54 0 14-5 30-14 40-7 10-20 19-34 25-9 5-18 7-56 17-22 5-41 10-43 11-18 7-31 18-38 32-2 4-5 12-5 14l2-2c8-13 20-23 34-26 6-1 18-1 26 1 12 2 34 10 60 23 17 8 24 10 33 9 9-2 16-8 19-18 4-11 1-26-7-35-4-5-8-5-16-3-8 3-12 2-14-1 0-2 3-6 7-8 3-1 4-1 11-2 7 0 9 0 12 2 19 6 34 33 33 58-1 16-6 29-18 41-17 17-38 23-63 18-13-3-26-8-51-18-30-12-44-16-56-17-6 0-7 1-10 2-4 2-6 5-7 9-1 5 2 9 8 11 4 1 7 6 5 9-1 2-4 3-8 3-3-1-7-3-8-6-6-8-7-39-3-53 3-13 9-24 20-34 11-11 22-19 48-34 37-22 46-28 55-40 4-6 9-15 11-23 2-10 2-28-1-41-5-18-17-30-34-36-7-2-20-2-28 0-19 5-39 19-45 32-3 6-5 19-3 25 2 4 3 6 7 7 7 2 14-9 10-17l-1-2h3c5 1 10 3 14 6 5 3 7 5 10 11 5 10 4 22-2 32-7 10-17 15-30 14-6-1-16-3-21-6-13-6-19-24-16-44 1-6 4-15 6-20 6-10 17-23 27-30s23-13 36-16c16-4 38-5 55-2z"/></svg>