<svg xmlns="http://www.w3.org/2000/svg" version="1.0" width="400" height="400" preserveAspectRatio="xMidYMid meet">
  <circle fill="#5b74b4" r="200" cy="200" cx="200"/>

  <path fill="#B88A38" d="m217,61c9 1 18 4 27 8c11 6 18 11 28 20c17 17 25 34 25 54c0 14-5 30-14 40c-7 10-20 19-34 25c-9 5-18 7-56 17c-22 5-41 10-43 11c-18 7-31 18-38 32c-2 4-5 12-5 14c0 0 1-1 2-2c8-13 20-23 34-26c6-1 18-1 26 1c12 2 34 10 60 23c17 8 24 10 33 9c9-2 16-8 19-18c4-11 1-26-7-35c-4-5-8-5-16-3c-8 3-12 2-14-1c0-2 3-6 7-8c3-1 4-1 11-2c7 0 9 0 12 2c19 6 34 33 33 58c-1 16-6 29-18 41c-17 17-38 23-63 18c-13-3-26-8-51-18c-30-12-44-16-56-17c-6 0-7 1-10 2c-4 2-6 5-7 9c-1 5 2 9 8 11c4 1 7 6 5 9c-1 2-4 3-8 3c-3-1-7-3-8-6c-6-8-7-39-3-53c3-13 9-24 20-34c11-11 22-19 48-34c37-22 46-28 55-40c4-6 9-15 11-23c2-10 2-28-1-41c-5-18-17-30-34-36c-7-2-20-2-28 0c-19 5-39 19-45 32c-3 6-5 19-3 25c2 4 3 6 7 7c7 2 14-9 10-17l-1-2 3 0c5 1 10 3 14 6c5 3 7 5 10 11c5 10 4 22-2 32c-7 10-17 15-30 14c-6-1-16-3-21-6c-13-6-19-24-16-44c1-6 4-15 6-20c6-10 17-23 27-30c10-7 23-13 36-16c16-4 38-5 55-2z"/>
</svg>
