<svg xmlns="http://www.w3.org/2000/svg" version="1.0" width="400" height="400" preserveAspectRatio="xMidYMid meet">
  <circle fill="#5b74b4" r="200" cy="200" cx="200"/>

  <path fill="#B88A38" d="m219 51c22 4 39 12 53 26c13 13 18 26 18 42c0 6-1 8-2 13c-5 14-18 26-33 34c-6 3-19 7-25 8c-2 0-4 1-4 1c0 0 2 1 6 1c15 0 32 4 45 11c22 11 36 31 40 56c1 8 0 28-1 35c-2 6-5 14-8 20c-12 22-40 41-71 49c-14 4-25 5-42 5c-28 0-48-4-69-14c-11-5-19-11-25-18c-9-9-13-19-15-32c-2-17 2-29 11-38c7-7 16-11 27-11c10 0 18 2 27 8c12 8 18 19 16 30c-1 4-4 13-5 13c0 0-1-1-2-3c-5-9-16-11-25-6c-6 4-9 8-10 15c-2 13 10 30 28 38c20 9 45 8 66-4c14-8 23-18 28-32c2-5 4-23 3-30c-2-26-20-48-48-58c-15-5-28-7-50-4c-10 1-12 1-15 0c-5-1-6-4-4-8c1-3 4-4 10-5c29-5 52-15 68-31c10-10 17-22 19-35c1-5 1-8 1-17c0-6-1-13-1-15c-1-6-4-11-9-16c-4-4-6-5-12-8c-11-6-14-6-27-6c-12 0-18 1-26 5c-7 3-11 8-14 15l-2 6 1 3c1 4 5 8 13 15c3 3 6 6 7 7c2 3 3 10 2 14c-1 8-9 18-18 23c-7 4-12 5-19 5c-13 0-24-7-29-20c-1-2-2-6-2-10c-2-17 4-34 17-48c17-18 42-28 74-30c7-1 29 0 35 1z"/>
</svg>
