<svg xmlns="http://www.w3.org/2000/svg" version="1.0" width="400" height="400"><circle fill="#5b74b4" r="200" cy="200" cx="200"/><path fill="#B88A38" d="M219 51c22 4 39 12 53 26 13 13 18 26 18 42 0 6-1 8-2 13-5 14-18 26-33 34-6 3-19 7-25 8-2 0-4 1-4 1s2 1 6 1c15 0 32 4 45 11 22 11 36 31 40 56 1 8 0 28-1 35-2 6-5 14-8 20-12 22-40 41-71 49-14 4-25 5-42 5-28 0-48-4-69-14-11-5-19-11-25-18-9-9-13-19-15-32-2-17 2-29 11-38 7-7 16-11 27-11 10 0 18 2 27 8 12 8 18 19 16 30-1 4-4 13-5 13 0 0-1-1-2-3-5-9-16-11-25-6-6 4-9 8-10 15-2 13 10 30 28 38 20 9 45 8 66-4 14-8 23-18 28-32 2-5 4-23 3-30-2-26-20-48-48-58-15-5-28-7-50-4-10 1-12 1-15 0-5-1-6-4-4-8 1-3 4-4 10-5 29-5 52-15 68-31 10-10 17-22 19-35 1-5 1-8 1-17 0-6-1-13-1-15-1-6-4-11-9-16-4-4-6-5-12-8-11-6-14-6-27-6-12 0-18 1-26 5-7 3-11 8-14 15l-2 6 1 3c1 4 5 8 13 15l7 7c2 3 3 10 2 14-1 8-9 18-18 23-7 4-12 5-19 5-13 0-24-7-29-20-1-2-2-6-2-10-2-17 4-34 17-48 17-18 42-28 74-30 7-1 29 0 35 1z"/></svg>