<svg xmlns="http://www.w3.org/2000/svg" version="1.0" width="492" height="492" preserveAspectRatio="xMidYMid meet">

<circle cx="246" cy="246" r="246" fill="#FFF"/>

<path d="M 134.7 138.6 c -60.3 60.3 -109.7 110.2 -109.7 110.7 c 0 1.6 219.4 220.5 221 220.5 c 1.6 0 221 -218.9 221 -220.5 c 0 -1.6 -219.4 -220.5 -221 -220.5 c -0.8 0 -50.9 49.4 -111.3 109.8 z m 131.6 -9.3 c 43.9 7.6 80.8 39 95 80.5 c 4.9 14.2 6.2 23.2 6.1 40.5 c -0.1 21.8 -3.4 35.6 -12.8 54.3 c -17.4 34.3 -50.3 58.6 -88.6 65.3 c -9.6 1.7 -30.4 1.7 -40 0 c -11.1 -1.9 -25.3 -6.7 -35.4 -11.9 c -72.6 -37.3 -89 -133.6 -32.8 -192.4 c 17.9 -18.8 41.8 -31.7 66.8 -36.2 c 10.6 -1.9 31.1 -2 41.7 -0.1 z" fill="#c62a1d"/>

<circle cx="246" cy="246" r="100" fill="#FFF"/>
<path d="M 307.7 293.6 L 292.1 309.5 l 15.6 16.2 l 15.6 -16.2 L 307.7 293.6 z" fill="#0000FF" />
<path d="M 239 155.9 c -3.8 1.5 -6 3.9 -9 9.9 c -4.8 9.4 -6.4 19.4 -6.4 38 c 0.1 30 4 42.3 19.8 63 c 5.4 7 7 13.5 7.1 27.5 c 0 13.6 -1.3 17.5 -6.1 17.5 c -3.5 0 -5 -4.2 -5.9 -16.3 l -0.7 -9.7 l -7.4 0 l -7.4 0 l 0 2.9 c 0 9 2.4 29.7 4.1 36.4 c 3.7 13.6 9.7 19.3 19.6 18.5 c 8.3 -0.7 13.5 -6.7 16.8 -19.5 c 2.6 -9.8 3.8 -32.4 2.5 -47.7 c -1.6 -21.1 -5.1 -30.2 -17.1 -45 c -6.7 -8.2 -9 -14.8 -9.6 -26.6 c -0.7 -14.6 2.9 -22.2 7.3 -15.4 c 1.3 2 2 5.5 2.4 13.3 l 0.5 10.6 l 7.8 0.3 l 7.7 0.3 l 0 -9.8 c 0 -34.2 -10.8 -54.2 -26 -48.2 z" fill="#c62a1d"/>
<path d="M 176 249.8 l 0 92 l 15 0 l 14.9 0 l 3.5 -3.1 c 4.4 -3.8 7.2 -11.1 8.6 -22.1 c 0.6 -4.9 1 -32.6 1 -68.8 c -0.1 -66.2 -0.4 -71.5 -5.7 -81.1 c -4.4 -8.2 -6.3 -8.9 -23 -8.9 l -14.3 0 l 0 92 z m 23.7 -55.3 c 1.7 2.5 1.8 6.7 1.8 55.9 c 0 50.9 -0.1 53.3 -1.9 55.3 c -1.1 1.2 -3 2.1 -4.3 2.1 l -2.3 0 l 0 -58 l 0 -58 l 2.5 0 c 1.6 0 3.1 1 4.2 2.7 z" fill="#c62a1d"/>
<path d="M 273 249.8 l 0 92 l 14.3 0 c 16.4 0 18.8 -0.8 23.1 -8.2 c 4.8 -8.2 5.6 -14.7 5.5 -45.8 c 0 -29.3 -0.5 -33.7 -4.3 -37.8 c -1.4 -1.6 -1.3 -2.2 1.2 -7.1 c 2.6 -5.4 2.6 -5.6 2.9 -30.5 c 0.3 -30.1 -0.5 -38.6 -4.2 -46.1 c -3.8 -7.9 -5.4 -8.5 -23.5 -8.5 l -15 0 l 0 92 z m 24.7 -55.3 c 1.5 2.3 1.8 5 1.8 17.8 c 0 17.8 -0.6 19.5 -6.5 19.5 l -4 0 l 0 -20 l 0 -20 l 3.5 0 c 2.7 0 3.9 0.6 5.2 2.7 z m 0.3 69.9 c 0.6 1.4 1 10.7 1 20.7 c 0 20.9 -0.5 22.7 -6.6 22.7 l -3.4 0 l 0 -23 l 0 -23 l 4 0 c 3.4 0 4.2 0.4 5 2.6 z" fill="#c62a1d"/>
</svg>
