<svg xmlns="http://www.w3.org/2000/svg" version="1.0" width="492" height="492"><circle cx="246" cy="246" r="246" fill="#FFF"/><path d="M134.7 138.6C74.4 198.9 25 248.8 25 249.3c0 1.6 219.4 220.5 221 220.5 1.6 0 221-218.9 221-220.5 0-1.6-219.4-220.5-221-220.5-.8 0-50.9 49.4-111.3 109.8zm131.6-9.3c43.9 7.6 80.8 39 95 80.5 4.9 14.2 6.2 23.2 6.1 40.5-.1 21.8-3.4 35.6-12.8 54.3-17.4 34.3-50.3 58.6-88.6 65.3-9.6 1.7-30.4 1.7-40 0-11.1-1.9-25.3-6.7-35.4-11.9-72.6-37.3-89-133.6-32.8-192.4 17.9-18.8 41.8-31.7 66.8-36.2 10.6-1.9 31.1-2 41.7-.1z" fill="#c62a1d"/><circle cx="246" cy="246" r="100" fill="#FFF"/><path d="m307.7 293.6-15.6 15.9 15.6 16.2 15.6-16.2-15.6-15.9z" fill="#00F"/><path d="M239 155.9c-3.8 1.5-6 3.9-9 9.9-4.8 9.4-6.4 19.4-6.4 38 .1 30 4 42.3 19.8 63 5.4 7 7 13.5 7.1 27.5 0 13.6-1.3 17.5-6.1 17.5-3.5 0-5-4.2-5.9-16.3l-.7-9.7H223v2.9c0 9 2.4 29.7 4.1 36.4 3.7 13.6 9.7 19.3 19.6 18.5 8.3-.7 13.5-6.7 16.8-19.5 2.6-9.8 3.8-32.4 2.5-47.7-1.6-21.1-5.1-30.2-17.1-45-6.7-8.2-9-14.8-9.6-26.6-.7-14.6 2.9-22.2 7.3-15.4 1.3 2 2 5.5 2.4 13.3l.5 10.6 7.8.3 7.7.3v-9.8c0-34.2-10.8-54.2-26-48.2zM176 249.8v92h29.9l3.5-3.1c4.4-3.8 7.2-11.1 8.6-22.1.6-4.9 1-32.6 1-68.8-.1-66.2-.4-71.5-5.7-81.1-4.4-8.2-6.3-8.9-23-8.9H176v92zm23.7-55.3c1.7 2.5 1.8 6.7 1.8 55.9 0 50.9-.1 53.3-1.9 55.3-1.1 1.2-3 2.1-4.3 2.1H193v-116h2.5c1.6 0 3.1 1 4.2 2.7zM273 249.8v92h14.3c16.4 0 18.8-.8 23.1-8.2 4.8-8.2 5.6-14.7 5.5-45.8 0-29.3-.5-33.7-4.3-37.8-1.4-1.6-1.3-2.2 1.2-7.1 2.6-5.4 2.6-5.6 2.9-30.5.3-30.1-.5-38.6-4.2-46.1-3.8-7.9-5.4-8.5-23.5-8.5h-15v92zm24.7-55.3c1.5 2.3 1.8 5 1.8 17.8 0 17.8-.6 19.5-6.5 19.5h-4v-40h3.5c2.7 0 3.9.6 5.2 2.7zm.3 69.9c.6 1.4 1 10.7 1 20.7 0 20.9-.5 22.7-6.6 22.7H289v-46h4c3.4 0 4.2.4 5 2.6z" fill="#c62a1d"/></svg>