<svg xmlns="http://www.w3.org/2000/svg" version="1.0" width="483" height="483"><circle cx="241" cy="241" r="241" fill="#FFF"/><g fill="#041848"><path d="M223 .6C165.6 5.9 114.3 29.1 73.2 68.4 41.7 98.6 17 142.1 6.6 186c-4.7 19.8-6 31.8-6 55.5s1.3 35.7 6 55.5c8.2 34.4 25.5 69.6 47.5 96.7 38.1 46.8 92.4 77.6 153.4 86.9 16.5 2.5 51.3 2.6 67.5.1 45.8-7 86.3-25.1 121.7-54.4 38.8-32.1 67.9-79.4 79.7-129.4 4.8-20.1 6-31.8 6-55.4 0-23.7-1.3-35.7-6-55.5-11.9-50.2-41-97.3-79.7-129.3C361.1 27.3 320.8 9.2 276 2.5 265.8 1 232.1-.2 223 .6zm44.3 102.9 4.7 1.7v10.5c0 9.6-.1 10.5-1.7 9.8-13.2-5.5-22.2-6.8-28.8-4.1-6.1 2.6-7.3 8.5-2.6 13.8 1.6 1.9 7.2 5.5 12.7 8.2 18.2 9.1 25.5 19.5 24 33.9-1.4 13.5-10.8 23-26.5 26.7-7.4 1.7-24.9.8-32.1-1.8l-5.5-1.9-.3-10.8c-.2-10-.1-10.7 1.5-10 17.6 7.4 29.8 8.3 36.3 2.9 2.4-2.1 3-3.4 3-6.4 0-5.6-3.5-9.1-14.4-14.5-11.1-5.6-18.2-11.4-21.8-18.1-6.6-12.3-3.4-26.4 8-35.1 7.2-5.5 14.9-7.4 27.7-6.9 6.9.2 12.8 1 15.8 2.1zm73.3.6c9.2 2.8 16.5 9.9 18.4 17.8 2.2 9.3-1.7 19.1-9.7 24.1l-4.3 2.8 5.3 3c6 3.4 11.2 10.2 12.3 15.9 1.7 9.1-1.2 18.9-7.6 25.3-8.2 8.2-17.5 10.4-43 10.5h-19.5l-.3-50.7-.2-50.7 9.7-.4c17.6-.7 31.5.1 38.9 2.4zm-183.1 28.1c8.3 16.3 15.3 29.9 15.6 30.2.3.3.3-13.2.1-29.9l-.5-30.5H194v101.1l-11.7-.3-11.8-.3-7.4-14.5c-4-8-11.3-22.1-16.1-31.5l-8.8-16.9.5 31.7.6 31.7H118V101.9l12.3.3 12.2.3 15 29.7zm93.7 97.6c17 4.9 28.5 11.8 39.6 23.7 8.2 8.8 14.8 20.9 17.8 32.4l1.8 7.1h37.8c21.2 0 37.9.4 38.2.9.7 1.1-13.7 14.2-18.1 16.5-2.7 1.4-7.1 1.6-30.3 1.6-25.5 0-27 .1-27 1.8 0 1.1-.9 5.4-2 9.7-6.6 25.7-26.3 46.8-51.8 55.3-6.9 2.3-9.4 2.6-22.7 2.6-12.7.1-16.2-.2-22.8-2.2-15.3-4.4-29.7-13.4-38.2-23.9-4.3-5.2-6.4-9.7-5.2-10.9.3-.3 3.9.5 7.9 1.9 13.6 4.6 23.3 6.1 37.8 6 10.4 0 15.3-.5 21.3-2.1 20.7-5.6 33.4-17.6 37.2-35l.7-3.2h-76.1c-43.4 0-77-.4-78.4-.9-3-1.2-19.1-14.9-19.5-16.7-.3-1.2 13.8-1.4 86.2-1.4 47.6 0 86.6-.4 86.6-.8 0-.5-1.6-3.5-3.5-6.8-4.3-7.3-10.2-12.7-17.9-16.6-11.9-6-11.6-6-106.2-5.7-83.2.3-86.2.3-89-1.5-1.6-1.1-10.1-8.3-18.9-15.9-8.8-7.7-16.4-14.4-16.9-14.8-.5-.4-.6-1.5-.3-2.4.6-1.4 10.8-1.5 112.4-1.2l111.8.3 7.7 2.2zm212.7-1.4c1.4 1.6 1.5 1.5-20.9 21-9.1 7.9-15.8 13-18 13.6-4.1 1.1-105.9 1.4-107.5.2-.6-.4-3.2-3.9-5.7-7.7-5-7.6-12.5-15.8-20.2-22.2-2.8-2.3-4.6-4.5-4.2-5.2.5-.8 24.7-1.1 88-1.1 74 0 87.5.2 88.5 1.4z"/><path d="M313 130v12h5.3c10.6 0 16.2-3.4 17.4-10.3 1.4-8.6-4.7-13.6-16.4-13.7H313v12zM313 173.1v14.2l7.3-.5c12.5-.8 17.7-5 17.7-14.3 0-8.3-7.5-13.5-19.7-13.5H313v14.1z"/></g></svg>