<svg xmlns="http://www.w3.org/2000/svg" version="1.0" width="483" height="483" preserveAspectRatio="xMidYMid meet">

<circle cx="241" cy="241" r="241" fill="#FFF"/>
<g transform="translate(0,483) scale(0.1,-0.1)" fill="#041848">
<path d="M2230 4824 c-574 -53 -1087 -285 -1498 -678 -315 -302 -562 -737 -666 -1176 -47 -198 -60 -318 -60 -555 0 -237 13 -357 60 -555 82 -344 255 -696 475 -967 381 -468 924 -776 1534 -869 165 -25 513 -26 675 -1 458 70 863 251 1217 544 388 321 679 794 797 1294 48 201 60 318 60 554 0 237 -13 357 -60 555 -119 502 -410 973 -797 1293 -356 294 -759 475 -1207 542 -102 15 -439 27 -530 19z m443 -1029 l47 -17 0 -105 c0 -96 -1 -105 -17 -98 -132 55 -222 68 -288 41 -61 -26 -73 -85 -26 -138 16 -19 72 -55 127 -82 182 -91 255 -195 240 -339 -14 -135 -108 -230 -265 -267 -74 -17 -249 -8 -321 18 l-55 19 -3 108 c-2 100 -1 107 15 100 176 -74 298 -83 363 -29 24 21 30 34 30 64 0 56 -35 91 -144 145 -111 56 -182 114 -218 181 -66 123 -34 264 80 351 72 55 149 74 277 69 69 -2 128 -10 158 -21z m733 -6 c92 -28 165 -99 184 -178 22 -93 -17 -191 -97 -241 l-43 -28 53 -30 c60 -34 112 -102 123 -159 17 -91 -12 -189 -76 -253 -82 -82 -175 -104 -430 -105 l-195 0 -3 507 -2 507 97 4 c176 7 315 -1 389 -24z m-1831 -281 c83 -163 153 -299 156 -302 3 -3 3 132 1 299 l-5 305 107 0 106 0 0 -505 0 -506 -117 3 -118 3 -74 145 c-40 80 -113 221 -161 315 l-88 169 5 -317 6 -317 -106 0 -107 0 0 505 0 506 123 -3 122 -3 150 -297z m937 -976 c170 -49 285 -118 396 -237 82 -88 148 -209 178 -324 l18 -71 378 0 c212 0 379 -4 382 -9 7 -11 -137 -142 -181 -165 -27 -14 -71 -16 -303 -16 -255 0 -270 -1 -270 -18 0 -11 -9 -54 -20 -97 -66 -257 -263 -468 -518 -553 -69 -23 -94 -26 -227 -26 -127 -1 -162 2 -228 22 -153 44 -297 134 -382 239 -43 52 -64 97 -52 109 3 3 39 -5 79 -19 136 -46 233 -61 378 -60 104 0 153 5 213 21 207 56 334 176 372 350 l7 32 -761 0 c-434 0 -770 4 -784 9 -30 12 -191 149 -195 167 -3 12 138 14 862 14 476 0 866 4 866 8 0 5 -16 35 -35 68 -43 73 -102 127 -179 166 -119 60 -116 60 -1062 57 -832 -3 -862 -3 -890 15 -16 11 -101 83 -189 159 -88 77 -164 144 -169 148 -5 4 -6 15 -3 24 6 14 108 15 1124 12 l1118 -3 77 -22z m2127 14 c14 -16 15 -15 -209 -210 -91 -79 -158 -130 -180 -136 -41 -11 -1059 -14 -1075 -2 -6 4 -32 39 -57 77 -50 76 -125 158 -202 222 -28 23 -46 45 -42 52 5 8 247 11 880 11 740 0 875 -2 885 -14z" fill="#041848"/>
<path d="M3130 3530 l0 -120 53 0 c106 0 162 34 174 103 14 86 -47 136 -164 137 l-63 0 0 -120z" fill="#041848"/>
<path d="M3130 3099 l0 -142 73 5 c125 8 177 50 177 143 0 83 -75 135 -197 135 l-53 0 0 -141z" fill="#041848"/>
</g></svg>
