<svg xmlns="http://www.w3.org/2000/svg" version="1.0" width="483" height="483" preserveAspectRatio="xMidYMid meet">

<circle cx="241" cy="241" r="241" fill="#FFF"/>

<g transform="translate(0,483) scale(0.1,-0.1)" fill="#3561AE">
<path d="M2225 4820 c-850 -70 -1602 -582 -1975 -1344 -224 -458 -298 -975 -211 -1471 182 -1040 1002 -1830 2056 -1981 177 -25 486 -23 671 5 512 77 991 318 1354 681 377 377 618 871 691 1420 18 138 16 459 -5 605 -114 806 -611 1494 -1331 1845 -394 192 -826 275 -1250 240z m228 -1029 l67 -22 0 -99 c0 -55 -1 -100 -3 -100 -1 0 -41 13 -88 30 -158 55 -282 49 -346 -15 -84 -84 -13 -168 202 -239 143 -47 240 -116 290 -207 26 -48 30 -63 29 -134 -2 -175 -83 -283 -260 -346 -85 -31 -311 -38 -420 -14 -44 9 -94 23 -111 31 l-33 13 0 99 0 99 79 -23 c193 -56 369 -49 415 18 53 75 -19 156 -199 224 -169 65 -262 129 -303 211 -27 53 -33 87 -33 167 0 57 5 81 31 132 46 94 121 149 251 184 104 28 332 23 432 -9z m617 -456 c0 -305 -4 -482 -11 -517 -28 -133 -106 -220 -229 -259 -109 -34 -310 -38 -310 -6 0 7 27 29 60 50 69 44 131 120 163 199 20 51 21 71 25 526 l4 472 149 0 149 0 0 -465z m-1385 -844 c176 -58 295 -153 360 -284 44 -90 55 -149 55 -296 0 -91 -4 -123 -18 -150 -44 -87 -84 -67 -152 75 -43 90 -63 119 -123 179 -83 81 -176 133 -302 167 -74 20 -112 22 -485 27 -457 7 -429 2 -519 90 -54 53 -141 179 -141 206 0 14 55 16 628 13 626 -3 627 -3 697 -27z m2785 14 c0 -20 -60 -115 -111 -177 -22 -25 -63 -61 -91 -80 l-52 -33 -406 -6 c-373 -5 -411 -7 -485 -27 -209 -57 -337 -161 -425 -346 -68 -142 -108 -162 -152 -75 -14 27 -18 59 -18 150 0 147 11 206 55 296 74 151 235 263 436 302 24 5 315 9 647 10 537 1 602 -1 602 -14z m-3045 -480 c171 -36 285 -129 384 -311 69 -127 99 -164 176 -219 134 -96 266 -139 430 -139 164 0 296 43 430 139 77 55 107 92 176 219 99 182 213 275 384 311 86 18 675 22 675 5 0 -34 -107 -186 -170 -244 -73 -66 -98 -73 -270 -78 -211 -6 -211 -6 -324 -203 -134 -232 -337 -389 -602 -462 -92 -26 -112 -28 -294 -28 -159 0 -209 4 -270 19 -166 42 -281 98 -405 197 -95 75 -160 154 -249 304 -39 65 -83 127 -97 138 -37 27 -95 36 -237 37 -137 0 -169 10 -242 76 -63 58 -170 210 -170 244 0 17 589 13 675 -5z" fill="#3561AE"/>
</g></svg>
