<svg xmlns="http://www.w3.org/2000/svg" version="1.0" width="483" height="483"><circle cx="241" cy="241" r="241" fill="#FFF"/><path d="M222.5 1C137.5 8 62.3 59.2 25 135.4 2.6 181.2-4.8 232.9 3.9 282.5c18.2 104 100.2 183 205.6 198.1 17.7 2.5 48.6 2.3 67.1-.5 51.2-7.7 99.1-31.8 135.4-68.1 37.7-37.7 61.8-87.1 69.1-142 1.8-13.8 1.6-45.9-.5-60.5C469.2 128.9 419.5 60.1 347.5 25c-39.4-19.2-82.6-27.5-125-24zm22.8 102.9 6.7 2.2v9.9c0 5.5-.1 10-.3 10-.1 0-4.1-1.3-8.8-3-15.8-5.5-28.2-4.9-34.6 1.5-8.4 8.4-1.3 16.8 20.2 23.9 14.3 4.7 24 11.6 29 20.7 2.6 4.8 3 6.3 2.9 13.4-.2 17.5-8.3 28.3-26 34.6-8.5 3.1-31.1 3.8-42 1.4-4.4-.9-9.4-2.3-11.1-3.1l-3.3-1.3v-19.8l7.9 2.3c19.3 5.6 36.9 4.9 41.5-1.8 5.3-7.5-1.9-15.6-19.9-22.4-16.9-6.5-26.2-12.9-30.3-21.1-2.7-5.3-3.3-8.7-3.3-16.7 0-5.7.5-8.1 3.1-13.2 4.6-9.4 12.1-14.9 25.1-18.4 10.4-2.8 33.2-2.3 43.2.9zm61.7 45.6c0 30.5-.4 48.2-1.1 51.7-2.8 13.3-10.6 22-22.9 25.9-10.9 3.4-31 3.8-31 .6 0-.7 2.7-2.9 6-5 6.9-4.4 13.1-12 16.3-19.9 2-5.1 2.1-7.1 2.5-52.6l.4-47.2H307v46.5zm-138.5 84.4c17.6 5.8 29.5 15.3 36 28.4 4.4 9 5.5 14.9 5.5 29.6 0 9.1-.4 12.3-1.8 15-4.4 8.7-8.4 6.7-15.2-7.5-4.3-9-6.3-11.9-12.3-17.9-8.3-8.1-17.6-13.3-30.2-16.7-7.4-2-11.2-2.2-48.5-2.7-45.7-.7-42.9-.2-51.9-9-5.4-5.3-14.1-17.9-14.1-20.6 0-1.4 5.5-1.6 62.8-1.3 62.6.3 62.7.3 69.7 2.7zm278.5-1.4c0 2-6 11.5-11.1 17.7-2.2 2.5-6.3 6.1-9.1 8l-5.2 3.3-40.6.6c-37.3.5-41.1.7-48.5 2.7-20.9 5.7-33.7 16.1-42.5 34.6-6.8 14.2-10.8 16.2-15.2 7.5-1.4-2.7-1.8-5.9-1.8-15 0-14.7 1.1-20.6 5.5-29.6 7.4-15.1 23.5-26.3 43.6-30.2 2.4-.5 31.5-.9 64.7-1 53.7-.1 60.2.1 60.2 1.4zm-304.5 48c17.1 3.6 28.5 12.9 38.4 31.1 6.9 12.7 9.9 16.4 17.6 21.9 13.4 9.6 26.6 13.9 43 13.9s29.6-4.3 43-13.9c7.7-5.5 10.7-9.2 17.6-21.9 9.9-18.2 21.3-27.5 38.4-31.1 8.6-1.8 67.5-2.2 67.5-.5 0 3.4-10.7 18.6-17 24.4-7.3 6.6-9.8 7.3-27 7.8-21.1.6-21.1.6-32.4 20.3-13.4 23.2-33.7 38.9-60.2 46.2-9.2 2.6-11.2 2.8-29.4 2.8-15.9 0-20.9-.4-27-1.9-16.6-4.2-28.1-9.8-40.5-19.7-9.5-7.5-16-15.4-24.9-30.4-3.9-6.5-8.3-12.7-9.7-13.8-3.7-2.7-9.5-3.6-23.7-3.7-13.7 0-16.9-1-24.2-7.6-6.3-5.8-17-21-17-24.4 0-1.7 58.9-1.3 67.5.5z" fill="#3561AE"/></svg>