<svg xmlns="http://www.w3.org/2000/svg" version="1.0" width="483" height="483" preserveAspectRatio="xMidYMid meet">
  <circle cx="241" cy="241" r="241" fill="#FFF"/>
  <g transform="translate(0,483) scale(0.1,-0.1) " fill="#010301" stroke="none">
    <path d="M2250 4824 c-360 -32 -659 -118 -958 -275 -639 -334 -1099 -948 -1241 -1654 -36 -180 -45 -277 -45 -480 0 -203 9 -300 45 -480 189 -944 940 -1695 1884 -1884 180 -36 277 -45 480 -45 203 0 300 9 480 45 945 190 1694 939 1884 1884 36 180 45 277 45 480 0 203 -9 300 -45 480 -143 711 -604 1323 -1252 1660 -248 129 -500 210 -781 250 -101 15 -411 27 -496 19z m452 -105 c949 -117 1740 -821 1967 -1751 48 -195 64 -339 64 -553 0 -214 -16 -358 -64 -553 -146 -600 -531 -1119 -1069 -1442 -658 -396 -1489 -434 -2185 -100 -489 235 -897 652 -1117 1141 -395 882 -206 1912 477 2594 384 385 903 627 1440 674 123 11 360 6 487 -10z" fill="#36484a" />
    <path d="M632 3645 c-11 -23 25 -85 470 -817 264 -436 661 -1091 882 -1455 387 -639 402 -662 431 -663 29 0 44 23 470 725 242 398 449 739 459 757 11 18 210 347 443 731 390 643 422 699 411 722 l-11 25 -1772 0 -1772 0 -11 -25z m2188 -731 l400 -659 -399 -3 c-220 -1 -582 -1 -805 0 l-406 3 402 662 c221 365 403 661 405 659 2 -2 184 -300 403 -662z m-1196 526 c55 -26 93 -83 102 -153 l7 -47 -86 0 -85 0 -6 35 c-9 47 -30 65 -76 65 -31 0 -43 -5 -56 -25 -15 -23 -15 -27 0 -50 9 -14 62 -56 119 -94 56 -38 116 -84 134 -102 43 -46 57 -105 43 -175 -21 -102 -97 -147 -245 -147 -141 0 -235 83 -235 209 l0 34 84 0 83 0 6 -47 c6 -58 36 -88 81 -79 46 9 57 25 54 70 -3 39 -6 43 -100 106 -163 110 -197 155 -198 262 0 89 42 128 175 162 45 11 154 -2 199 -24z m1654 -130 c35 -85 79 -198 98 -250 l33 -95 -7 130 c-4 72 -7 184 -7 250 l0 120 70 0 70 0 0 -350 0 -350 -71 -3 -71 -3 -78 180 c-42 99 -88 213 -100 253 l-24 73 7 -140 c4 -77 7 -189 7 -250 l0 -110 -67 -3 -68 -3 0 356 0 356 72 -3 72 -3 64 -155z m-650 -1634 c-3 -350 -4 -366 -24 -392 -33 -45 -65 -64 -132 -75 -115 -21 -218 16 -248 87 -8 19 -17 68 -21 109 l-6 75 80 0 80 0 6 -66 c5 -71 14 -84 60 -84 20 0 30 7 37 26 6 14 10 165 10 355 l0 329 80 0 81 0 -3 -364z" fill="#36484a" />
  </g>
</svg>
