<svg xmlns="http://www.w3.org/2000/svg" version="1.0" width="483" height="483"><circle cx="241" cy="241" r="241" fill="#FFF"/><g fill="#36484a"><path d="M225 .6c-36 3.2-65.9 11.8-95.8 27.5C65.3 61.5 19.3 122.9 5.1 193.5c-3.6 18-4.5 27.7-4.5 48s.9 30 4.5 48C24 383.9 99.1 459 193.5 477.9c18 3.6 27.7 4.5 48 4.5s30-.9 48-4.5c94.5-19 169.4-93.9 188.4-188.4 3.6-18 4.5-27.7 4.5-48s-.9-30-4.5-48c-14.3-71.1-60.4-132.3-125.2-166-24.8-12.9-50-21-78.1-25C264.5 1 233.5-.2 225 .6zm45.2 10.5c94.9 11.7 174 82.1 196.7 175.1 4.8 19.5 6.4 33.9 6.4 55.3s-1.6 35.8-6.4 55.3c-14.6 60-53.1 111.9-106.9 144.2-65.8 39.6-148.9 43.4-218.5 10-48.9-23.5-89.7-65.2-111.7-114.1C-9.7 248.7 9.2 145.7 77.5 77.5c38.4-38.5 90.3-62.7 144-67.4 12.3-1.1 36-.6 48.7 1z"/><path d="M63.2 118.5c-1.1 2.3 2.5 8.5 47 81.7 26.4 43.6 66.1 109.1 88.2 145.5 38.7 63.9 40.2 66.2 43.1 66.3 2.9 0 4.4-2.3 47-72.5 24.2-39.8 44.9-73.9 45.9-75.7 1.1-1.8 21-34.7 44.3-73.1 39-64.3 42.2-69.9 41.1-72.2l-1.1-2.5H64.3l-1.1 2.5zM282 191.6l40 65.9-39.9.3c-22 .1-58.2.1-80.5 0l-40.6-.3 40.2-66.2c22.1-36.5 40.3-66.1 40.5-65.9.2.2 18.4 30 40.3 66.2zM162.4 139c5.5 2.6 9.3 8.3 10.2 15.3l.7 4.7h-17.1l-.6-3.5c-.9-4.7-3-6.5-7.6-6.5-3.1 0-4.3.5-5.6 2.5-1.5 2.3-1.5 2.7 0 5 .9 1.4 6.2 5.6 11.9 9.4 5.6 3.8 11.6 8.4 13.4 10.2 4.3 4.6 5.7 10.5 4.3 17.5-2.1 10.2-9.7 14.7-24.5 14.7-14.1 0-23.5-8.3-23.5-20.9V184H140.7l.6 4.7c.6 5.8 3.6 8.8 8.1 7.9 4.6-.9 5.7-2.5 5.4-7-.3-3.9-.6-4.3-10-10.6-16.3-11-19.7-15.5-19.8-26.2 0-8.9 4.2-12.8 17.5-16.2 4.5-1.1 15.4.2 19.9 2.4zm165.4 13c3.5 8.5 7.9 19.8 9.8 25l3.3 9.5-.7-13c-.4-7.2-.7-18.4-.7-25v-12h14v70l-7.1.3-7.1.3-7.8-18c-4.2-9.9-8.8-21.3-10-25.3l-2.4-7.3.7 14c.4 7.7.7 18.9.7 25v11l-6.7.3-6.8.3v-71.2l7.2.3 7.2.3 6.4 15.5zm-65 163.4c-.3 35-.4 36.6-2.4 39.2-3.3 4.5-6.5 6.4-13.2 7.5-11.5 2.1-21.8-1.6-24.8-8.7-.8-1.9-1.7-6.8-2.1-10.9l-.6-7.5h16l.6 6.6c.5 7.1 1.4 8.4 6 8.4 2 0 3-.7 3.7-2.6.6-1.4 1-16.5 1-35.5V279h16.1l-.3 36.4z"/></g></svg>