<svg xmlns="http://www.w3.org/2000/svg" version="1.0" width="483" height="483"><circle cx="241" cy="241" r="241" fill="#FFF"/><path d="M230 .6c-30.5 2-57.8 8.3-83.8 19.5-56 24-102.6 70.8-126.5 126.9C.1 193.1-4.6 246 6.5 295 24.2 373.3 81.7 439.1 157 467.3c43.3 16.2 92.7 19.5 138 9.2 81.5-18.4 148.5-79.1 175.1-158.6 16.4-48.9 16.4-103.9 0-152.8C440.9 77.9 363.6 14.2 273 2.6c-12.3-1.5-34-2.6-43-2zm178.3 168.1c25.2 10.2 38.7 28.3 38.7 51.9 0 8.8-3 20.7-7.1 28.5-4.6 8.6-15.8 18.9-25.8 23.6-4.4 2.1-8.1 4.1-8.1 4.5 0 .4 5.1 8.5 11.3 18 6.2 9.5 11.6 17.9 12.1 18.5.6 1-2.2 1.3-12.7 1.3h-13.5l-3.1-5.5c-7.1-12.5-26.3-39.2-35.2-49l-3.7-4h17.7c16.1 0 17.9-.2 21.6-2.1 7.2-3.9 13.2-10.1 16.7-17.2 3-6.1 3.3-7.4 3.3-16.2 0-8.4-.3-10.2-2.8-15.2-3.2-6.5-8.4-11.5-15.9-15.5l-5.3-2.8-57.8.2c-68.9.3-64.4-.4-72.3 12.1-12 19.1-55.3 83.9-57 85.3-5.4 4.6-10.3 2.8-16.7-6.3-2.4-3.5-13.6-20.7-24.7-38.3-29.7-46.8-29.6-46.7-37.2-50.6-3.4-1.7-7.2-2-42.6-2.6l-38.8-.6-6.7-10.1-6.7-10.1 49.3-.3 49.2-.2 7 3.4c3.9 1.9 8.4 4.8 10 6.4 1.7 1.6 13.8 19.4 27 39.5 13.2 20.2 24.4 36.5 24.9 36.4.5-.2 7.5-10.6 15.5-23.3 17.9-28.1 28.3-43.2 33.8-49.4 4.7-5.2 15.8-11.6 22.5-13 2.4-.4 31.5-.7 64.8-.7l60.5.2 7.8 3.2zM127 195.6c1.9 1.1 4.4 3.4 5.5 5 1.1 1.7 14.6 22.2 29.9 45.6 18.8 28.6 29 43.2 31.1 44.6 7.6 4.9 15.3 4.7 21.4-.7 1.6-1.4 15.4-22 30.6-45.6 15.3-23.7 28.5-43.9 29.4-44.9.9-1 3.4-2.7 5.6-3.7 3.6-1.6 8.8-1.8 58.5-2l54.5-.3 4.6 2.2c5.9 2.9 11.2 8.2 14 14.1 3.2 6.5 3.3 18.9.2 24.7-3 5.7-9.1 10.8-15.9 13.4l-5.9 2.2-52.4-.5c-28.8-.4-52.6-.8-52.8-1.1-.2-.2 2.4-4.9 5.9-10.5l6.3-10.1h43.8c43 0 43.7 0 45.8-2.1 2.2-2.2 2-6.2-.4-8.5-.9-.9-14.9-1.3-48.6-1.5l-47.4-.4-29.2 45c-26.6 41-29.8 45.4-35.2 49.5-7.9 6.1-15.2 8.4-25.1 7.8-8.6-.5-13.4-2.5-21.7-8.9-4.2-3.2-9.4-10.6-34-48.9l-29-45.1-24.1.7-24 .6-7.2-11.1c-4-6.2-7.2-11.4-7.2-11.7 0-.3 15.6-.4 34.8-.2 32.9.3 34.9.4 38.2 2.4zm224 63.7c10.2 5.3 13.5 8.9 29.1 32.3 8.2 12.3 14.9 22.6 14.9 22.9 0 .3-6 .5-13.4.5h-13.4l-9.2-14.3c-9.4-14.4-12.9-18.9-16.5-21-1.4-.8-13.6-1.4-39.2-1.7l-37.1-.5 6.6-10.8 6.7-10.8 33 .3 33 .3 5.5 2.8z" fill="#2157B2"/></svg>