<svg xmlns="http://www.w3.org/2000/svg" version="1.0" width="483" height="483" preserveAspectRatio="xMidYMid meet">

<circle cx="241" cy="241" r="241" fill="#FFF"/>
<g transform="translate(0,483) scale(0.1,-0.1)" fill="#2157B2" >
<path d="M2300 4824 c-305 -20 -578 -83 -838 -195 -560 -240 -1026 -708 -1265 -1269 -196 -461 -243 -990 -132 -1480 177 -783 752 -1441 1505 -1723 433 -162 927 -195 1380 -92 815 184 1485 791 1751 1586 164 489 164 1039 0 1528 -292 872 -1065 1509 -1971 1625 -123 15 -340 26 -430 20z m1783 -1681 c252 -102 387 -283 387 -519 0 -88 -30 -207 -71 -285 -46 -86 -158 -189 -258 -236 -44 -21 -81 -41 -81 -45 0 -4 51 -85 113 -180 62 -95 116 -179 121 -185 6 -10 -22 -13 -127 -13 l-135 0 -31 55 c-71 125 -263 392 -352 490 l-37 40 177 0 c161 0 179 2 216 21 72 39 132 101 167 172 30 61 33 74 33 162 0 84 -3 102 -28 152 -32 65 -84 115 -159 155 l-53 28 -578 -2 c-689 -3 -644 4 -723 -121 -120 -191 -553 -839 -570 -853 -54 -46 -103 -28 -167 63 -24 35 -136 207 -247 383 -297 468 -296 467 -372 506 -34 17 -72 20 -426 26 l-388 6 -67 101 -67 101 493 3 492 2 70 -34 c39 -19 84 -48 100 -64 17 -16 138 -194 270 -395 132 -202 244 -365 249 -364 5 2 75 106 155 233 179 281 283 432 338 494 47 52 158 116 225 130 24 4 315 7 648 7 l605 -2 78 -32z m-2813 -269 c19 -11 44 -34 55 -50 11 -17 146 -222 299 -456 188 -286 290 -432 311 -446 76 -49 153 -47 214 7 16 14 154 220 306 456 153 237 285 439 294 449 9 10 34 27 56 37 36 16 88 18 585 20 l545 3 46 -22 c59 -29 112 -82 140 -141 32 -65 33 -189 2 -247 -30 -57 -91 -108 -159 -134 l-59 -22 -524 5 c-288 4 -526 8 -528 11 -2 2 24 49 59 105 l63 101 438 0 c430 0 437 0 458 21 22 22 20 62 -4 85 -9 9 -149 13 -486 15 l-474 4 -292 -450 c-266 -410 -298 -454 -352 -495 -79 -61 -152 -84 -251 -78 -86 5 -134 25 -217 89 -42 32 -94 106 -340 489 l-290 451 -241 -7 -240 -6 -72 111 c-40 62 -72 114 -72 117 0 3 156 4 348 2 329 -3 349 -4 382 -24z m2240 -637 c102 -53 135 -89 291 -323 82 -123 149 -226 149 -229 0 -3 -60 -5 -134 -5 l-134 0 -92 143 c-94 144 -129 189 -165 210 -14 8 -136 14 -392 17 l-371 5 66 108 67 108 330 -3 330 -3 55 -28z" fill="#2157B2"/>
</g></svg>
