<svg id="Layer_1" data-name="Layer 1" xmlns="http://www.w3.org/2000/svg" viewBox="0 0 29 29"><defs><style>.cls-2{fill:#3184c6}</style></defs><circle cx="14.5" cy="14.5" r="14" transform="rotate(-76.63 14.497 14.498)" fill="#fff"/><path class="cls-2" d="M14.5 1.41A13 13 0 001.67 14.5 13 13 0 0014.5 27.59 13 13 0 0027.33 14.5 13 13 0 0014.5 1.41zm0 25.12a11.58 11.58 0 01-5.93-1.62h11.86a11.57 11.57 0 01-5.92 1.62zm7.16-2.46H7.34a12.14 12.14 0 01-4.4-7.13h23.13a12 12 0 01-4.4 7.13zM2.78 15.91a11.16 11.16 0 01-.08-1.42 11.92 11.92 0 0111.81-12 11.93 11.93 0 0111.81 12 11.52 11.52 0 01-.09 1.45z"/><path class="cls-2" d="M14.56 3a.17.17 0 00-.14.18.48.48 0 00.08.26.54.54 0 00-.14.35 1.28 1.28 0 00.07.39l-.17.28h.58l-.14-.22a.32.32 0 010-.26 1.16 1.16 0 000-.52s.06-.46-.14-.46zm-.17 1.62a1.51 1.51 0 01.36 0v.15l.05.06c.05.06.07.07.07.07v.08s0 .06.06.07 0 .05 0 .05a.18.18 0 00.08.07.64.64 0 01.29.17.25.25 0 010 .29.32.32 0 00-.08-.16 1.06 1.06 0 00-.71-.21s-.6 0-.78.25v.05s-.07 0-.06-.2a.27.27 0 01.19-.2l.22-.07v-.06a.1.1 0 01.06 0 .15.15 0 00.08-.03s0-.07.09-.13v-.19s0-.05.08-.06zM15.57 13a7.81 7.81 0 00-.86-.05v1.7h.86zm1.04.12c-.23 0-.47-.09-.73-.12v1.67l.73.07zm.97.21l-.58-.15v1.6l.63.1zm.81.26s-.2-.08-.54-.18v1.51l.54.11zm.61 1.57l-.33-.08v-1.37a1 1 0 01.33.36zm-8.48-.05l-.3.08v-1.26a1.37 1.37 0 01.3-.25zm.78-1.73l-.52.18v1.49l.52-.11zm.94-.24l-.65.16v1.59l.65-.11v-1.64zM13.3 13c-.27 0-.53.06-.76.11v1.65l.76-.07zm1.05-.09h-.75v1.7h.75z"/><path class="cls-2" d="M14.53 12.12a11.37 11.37 0 00-4.26.8c-.09 0-.09.1-.09.1a.14.14 0 01-.07.07.1.1 0 000 .09.11.11 0 010 .08.46.46 0 00-.12.17.35.35 0 00.12.28c0 .12.07.13.07.13a.89.89 0 01.44-.37 10.31 10.31 0 014-.73 10.93 10.93 0 014 .73 1.7 1.7 0 01.5.34v-.09c0-.09.28-.23.08-.39l-.13-.1a.13.13 0 01-.07-.12c0-.1-.14-.16-.14-.16a11.46 11.46 0 00-4.33-.83zm3.52.3l.24.08v-.45a1.63 1.63 0 00-.17-.35.19.19 0 00-.07-.07zm-.73-.2l.5.13v-.84a5.56 5.56 0 00-.5-.23zm-2.05-.31l.79.08v-1.08a7.38 7.38 0 00-.79-.11zm-1.14 0h.79v-1.14h-.79zM13 12c.26 0 .53-.06.82-.08v-1.13c-.24 0-.52.06-.82.12zm-1 .18c.21 0 .44-.09.69-.13V11a6.45 6.45 0 00-.68.2zm-.74.17l.47-.12v-1l-.48.22zm-.26-.73a1.12 1.12 0 00-.2.4v.47l.2-.07zm5.37.38v-1a6.34 6.34 0 01.68.19v1c-.25-.08-.47-.13-.68-.19z"/><path class="cls-2" d="M10.78 11.74a.43.43 0 01-.16-.35.42.42 0 01.21-.35.38.38 0 010-.25c.08-.13.15-.14.15-.14a.17.17 0 010-.12.1.1 0 01.1 0v-.1a.13.13 0 01.1 0 8.31 8.31 0 013.16-.64 7.51 7.51 0 013.17.66.13.13 0 01.09.13h.13c.01 0 0 0 0 0h.06a.08.08 0 01.07.08v.08a.51.51 0 01.18.28.3.3 0 00.08.15.5.5 0 01.16.34.42.42 0 01-.15.31.49.49 0 00-.26-.36 7.6 7.6 0 00-3.55-.83 7.74 7.74 0 00-3.5.82.43.43 0 00-.16.16.37.37 0 00-.07.2s.21-.05.19-.07zm3.62-2.35c-.29 0-.57 0-.83.06a5.16 5.16 0 01.49-2 2.22 2.22 0 01.37 0 17.57 17.57 0 00-.03 1.94zm-2.62.48l-.32.13s.4-1.57 1.2-2a3.84 3.84 0 00-.88 1.9z"/><path class="cls-2" d="M12.47 9.65L12 9.8s.35-1.67 1.35-2.12a3.7 3.7 0 00-.88 1.97z"/><path class="cls-2" d="M12.67 9.6c.21 0 .44-.09.69-.13a6.46 6.46 0 01.52-2 3 3 0 00-.35.09 4.76 4.76 0 00-.86 2.04zm2.76-.16h-.76a10.29 10.29 0 00-.07-1.94 3.17 3.17 0 01.37 0 5.26 5.26 0 01.46 1.94zm1.64.36l-.52-.15a3.79 3.79 0 00-.69-1.88 3.2 3.2 0 011.21 2.03zm.55.2a3.26 3.26 0 00-.35-.14 4.1 4.1 0 00-.78-1.77A2.88 2.88 0 0117.62 10zm-1.28-.4a6.18 6.18 0 00-.67-.12 5.57 5.57 0 00-.45-1.95l.3.1a3.66 3.66 0 01.82 1.97zm-.48-2.1h-.08a.13.13 0 01-.06-.08v-.29l-.21-.06c-.08 0-.09-.08-.09-.08v-.12h-.13V5.62a.1.1 0 000-.07.52.52 0 00-.29-.09 1.28 1.28 0 00-.87 0 .5.5 0 00-.2.11.26.26 0 00-.06.14v1h-.06v.13a.09.09 0 010 .08l-.16.06c-.09 0-.1.1-.1.1v.14a.12.12 0 01-.07.07c-.07 0-.08.07-.08.07h.06a2.93 2.93 0 011.21-.24 2.82 2.82 0 011.28.28zm-1.75-1.07h-.12v-.64h.12zm.16-.06v-.78h.1v.77zm.5 0h-.13v-.8h.13zm.28.13h-.12v-.78h.11zm-.52 8.39a18.08 18.08 0 015.23.79H9.4a16.18 16.18 0 015.13-.79zm-2.87 5.24a2 2 0 00-.63-.2 1.24 1.24 0 00.78-1.24 1.32 1.32 0 00-1.4-1.24H7.19v.21a.52.52 0 01.38.26 1 1 0 01.13.51v4.27a.52.52 0 01-.51.49v.21h3.31a2 2 0 002.11-1.74 1.59 1.59 0 00-.95-1.53zM9 18.05h.59a.88.88 0 01.86.89c0 .43-.26.85-1.11.85H9zm2.11 3.49a1 1 0 01-1 1H9v-2.11h1a1.09 1.09 0 011.17 1.07zm6.14 1.17a.44.44 0 01-.6-.28l-.08-.25a1.52 1.52 0 01.41-.39l-.2-.53a2.36 2.36 0 00-.38.24 2.7 2.7 0 00-.72-1.14h.05a.93.93 0 00.52-.85 1 1 0 00-.69-.95 1.47 1.47 0 00-1.31 0 1 1 0 00-.47 1.16.86.86 0 00.48.54l.1.05a1.6 1.6 0 00-1.09 1.49 1.59 1.59 0 001.61 1.59 1.61 1.61 0 001.24-.57c.08.14.34.54.66.54a.81.81 0 00.6-.28zm-2-3.66a.51.51 0 01.56.44.57.57 0 11-.56-.44zm.54 3.11a.78.78 0 01-.95.29.94.94 0 01-.54-.76.93.93 0 01.43-.76l.33-.19.11.08a2.34 2.34 0 01.65 1 1.51 1.51 0 01.08.21.76.76 0 00-.15.13zm4.49-4.72a2.93 2.93 0 00-2.73 3 2.87 2.87 0 002.73 2.93A2.79 2.79 0 0023 20.39a2.85 2.85 0 00-2.72-2.95zm0 5.1c-.85 0-1.29-1-1.29-2.18s.43-2.18 1.29-2.18 1.29 1 1.29 2.18-.36 2.19-1.26 2.18z"/></svg>