<?xml version="1.0" standalone="no"?> <!DOCTYPE svg PUBLIC "-//W3C//DTD SVG 20010904//EN" "http://www.w3.org/TR/2001/REC-SVG-20010904/DTD/svg10.dtd"> <svg version="1.0" xmlns="http://www.w3.org/2000/svg" width="512.000000pt" height="512.000000pt" viewBox="0 0 512.000000 512.000000" preserveAspectRatio="xMidYMid meet"> <g transform="translate(150.000000,450.000000) scale(0.0800000,-0.0750000)" fill="#000000" stroke="none"> <path fill="#000000" stroke="none" d="M1291 5479 c -41 -16 -146 -134 -179 -201 -114 -233 -72 -476 114 -654 l74 -72 0 -110 0 -110 -72 73 c-172 171 -411 217 -623 120 -77 -35 -104 -65 -112 -125 -15 -109 106 -306 241 -392 l51 -33 -85 -6 c-137 -10 -281 -64 -321 -121 -76 -106 23 -345 206 -495 21 -18 37 -34 34 -36 -2 -1 -36 -13 -75 -25 -194 -61 -229 -158 -130 -358 52 -105 124 -189 211 -250 l56 -38 -78 -21 c-155 -41 -233 -105 -233 -189 0 -108 67 -244 175 -352 87 -88 142 -124 242 -159 l65 -22 -82 -12 c-158 -24 -260 -84 -275 -164 -9 -46 20 -143 67 -227 67 -118 213 -229 348 -265 116 -31 291 -15 392 36 20 10 39 16 41 11 7 -10 21 -1092 14 -1092 -2 0 -19 37 -37 83 -186 468 -501 791 -907 926 -95 32 -120 28 -146 -21 -31 -61 -1 -117 98 -181 63 -40 248 -223 306 -302 24 -33 46 -62 49 -65 19 -18 99 -155 145 -247 121 -245 173 -470 182 -792 5 -171 8 -196 24 -212 25 -25 54 -24 79 1 18 18 20 33 20 173 0 447 -129 840 -390 1193 -37 50 -78 102 -91 116 -13 13 -49 51 -79 83 -30 32 -46 55 -36 51 33 -12 148 -93 219 -155 324 -282 534 -784 575 -1374 9 -128 19 -150 67 -150 49 1 58 21 66 157 35 605 264 1119 621 1394 58 44 170 114 175 109 2 -2 -21 -28 -49 -58 -29 -30 -71 -74 -93 -99 -313 -352 -485 -822 -485 -1324 0 -112 1 -115 27 -135 28 -23 59 -20 81 7 8 10 12 51 12 117 0 355 94 718 256 988 118 195 292 387 464 509 36 26 74 56 85 68 46 51 6 140 -62 140 -94 0 -325 -107 -475 -220 -240 -180 -419 -436 -538 -770 -13 -36 -27 -69 -32 -75 -4 -5 -8 58 -8 140 0 83 -3 347 -7 587 l-6 437 87 -30 c306 -106 640 62 736 370 26 81 25 114 -2 162 -15 28 -37 47 -74 65 -65 32 -147 54 -201 54 -23 0 -45 5 -48 10 -3 6 0 10 9 10 8 0 52 19 98 42 170 87 302 262 338 447 9 48 -7 110 -36 142 -25 27 -114 66 -198 85 -78 19 -91 28 -55 39 36 12 164 148 202 216 93 165 104 285 32 348 -34 30 -125 69 -182 78 -18 3 -33 9 -33 13 0 5 29 36 65 71 78 75 117 134 157 236 37 95 40 166 10 215 -41 66 -171 115 -331 127 l-85 6 43 28 c101 67 193 198 225 319 26 100 -4 160 -100 204 -100 44 -245 56 -351 29 -122 -31 -252 -118 -314 -209 -13 -20 -27 -36 -31 -36 -5 0 -8 50 -8 111 l0 111 68 67 c218 216 229 533 26 770 -74 86 -153 118 -223 90z"/> <path fill="#f5c84b" d="M1291 5479 m119 -158 c 60 -60 105 -148 121 -234 24 -128 -23 -276 -117 -370 -26 -26 -52 -47 -56 -47 -5 0 -33 24 -62 53 -166 166 -168 429 -4 596 27 28 54 51 59 51 6 0 32 -22 59 -49z m645 -879 c 65 -25 68 -48 21 -145 -67 -138 -176 -219 -323 -240 -81 -12 -168 -2 -237 28 -37 16 -38 17 -31 53 12 63 74 169 128 218 50 45 78 61 172 95 65 25 198 20 270-9z m-1038 -31 c 82 -39 164 -121 203 -203 17 -35 30 -75 30 -90 0 -23 -7 -29 -57 -48 -212 -80 -446 11 -546 212 -39 79 -39 107 1 131 47 28 162 45 240 35 37 -4 93 -21 129 -37z m293 -598 m196 146 m627 -104 c31 -8 74 -23 94 -33 36 -17 38 -20 36 -64 -3 -109 -136 -289 -259 -351 -139 -71 -314 -76 -457 -15 l-49 21 6 46 c3 25 22 79 42 120 105 214 362 335 587 276z m-1282 -15 c83 -15 190 -74 258 -142 97 -96 170 -263 129 -296 -7 -5 -47 -22 -88 -36 -129 -47 -283 -35 -411 30 -60 30 -158 121 -198 183 -29 44 -71 150 -71 175 1 25 21 39 101 66 91 32 180 39 280 20z m724 -586 m-255 -104 m826 60 c23 -5 62 -19 89 -30 l48 -20 -5 -44 c-7 -57 -49 -147 -101 -214 -126 -165 -358 -238 -560 -177 -75 23 -107 43 -107 69 0 57 68 198 126 261 127 138 320 196 510 155z m-1218 -36 c88 -33 152 -75 210 -138 56 -62 109 -165 118 -228 l6 -45 -48 -20 c-96 -40 -130 -47 -224 -47 -155 0 -266 47 -372 156 -66 68 -130 187 -132 245 -1 36 2 39 48 61 119 57 269 63 394 16z m401 -686 m209 137 m634 -104 c37 -10 79 -26 94 -35 24 -16 26 -22 20 -59 -19 -124 -143 -285 -267 -345 -153 -75 -284 -81 -443 -21 -49 18 -56 24 -56 48 0 42 34 133 73 193 65 102 189 192 307 224 69 19 196 17 272 -5z m-1276 -15 c80 -21 171 -74 234 -137 69 -68 133 -187 134 -251 l1 -42 -75 -30 c-137 -53 -281 -47 -416 18 -121 59 -213 158 -259 280 -33 87 -32 102 8 122 99 52 262 70 373 40z m746 -591 m-302 -117 m763 -29 c34 -11 67 -25 74 -31 16 -13 7 -58 -24 -126 -54 -115 -145 -196 -270 -242 -84 -30 -231 -26 -311 10 -53 23 -54 24 -47 59 9 51 58 149 99 197 111 130 318 187 479 133z m-1124 -15 c65 -19 146 -69 199 -123 47 -48 103 -156 105 -202 2 -32 -1 -35 -58 -58 -71 -29 -187 -39 -266 -22 -107 23 -221 101 -278 189 -36 57 -72 154 -62 170 12 20 101 54 154 59 29 3 54 7 55 8 7 7 99 -7 151 -21z"/> <path fill="#FFFFFF" d="M1291 5479 m119 -158 m645 -879  m-1038 -31 m293 -598 c-1 -161 -2 -167 -18 -145 -71 97 -120 146 -192 194 l-81 53 71 8 c39 4 99 18 133 31 34 13 68 24 75 25 9 1 12 -38 12 -166z m196 146 c32 -11 96 -23 142 -26 l83 -6 -51 -29 c-65 -37 -168 -138 -209 -206 -18 -28 -35 -52 -37 -52 -2 0 -4 77 -4 170 0 94 4 170 8 170 5 0 35 -9 68 -21z m627 -104 m-1282 -15 m724 -586 c33 -10 62 -19 64 -21 2 -1 -25 -32 -61 -67 -36 -35 -78 -85 -94 -110 -16 -25 -32 -46 -36 -46 -5 0 -8 68 -8 150 l0 150 38 -19 c20 -10 64 -27 97 -37z m-255 -104 c0 -82 -1 -150 -3 -150 -2 0 -18 22 -36 49 -17 27 -63 78 -102 114 l-70 64 48 13 c26 8 71 24 98 36 28 13 53 23 58 23 4 1 7 -66 7 -149z m826 60 m-1218 -36 m401 -686 c0 -166 -1 -172 -17 -148 -49 71 -109 134 -173 181 l-71 53 59 12 c33 7 90 26 128 42 39 17 71 31 73 31 1 1 2 -77 1 -171z m209 137 c34 -14 85 -29 112 -32 28 -3 50 -9 50 -14 0 -4 -19 -21 -42 -37 -61 -42 -129 -114 -164 -172 -16 -27 -32 -50 -36 -50 -5 0 -8 77 -8 171 0 133 3 170 13 166 6 -3 40 -18 75 -32z m634 -104 m-1276 -15 m746 -591 c38 -8 95 -15 126 -15 l57 -1 -65 -26 c-114 -46 -186 -102 -272 -213 l-27 -35 -1 177 0 177 56 -25 c31 -14 88 -31 126 -39z m-302 -117 l-1 -173 -27 35 c-69 89 -173 167 -277 206 l-50 19 75 7 c75 8 182 37 230 63 50 28 50 27 50 -157z"/> <path fill="#b2e16f" d="M1291 5479 m-143 -6100 c 18 18 20 33 20 173 0 447 -129 840 -390 1193 -37 50 -78 102 -91 116 -13 13 -49 51 -79 83 -30 32 -46 55 -36 51 33 -12 148 -93 219 -155 324 -282 534 -784 575 -1374 m133 7 c 35 605 264 1119 621 1394 58 44 170 114 175 109 2 -2 -21 -28 -49 -58 -29 -30 -71 -74 -93 -99-313 -352 -485 -822 -485 -1324 0 -112 1 -115 27 -135 z"/> </g> </svg>