<?xml version="1.0" standalone="no"?> <!DOCTYPE svg PUBLIC "-//W3C//DTD SVG 20010904//EN" "http://www.w3.org/TR/2001/REC-SVG-20010904/DTD/svg10.dtd"> <svg version="1.0" xmlns="http://www.w3.org/2000/svg" width="512.000000pt" height="512.000000pt" viewBox="0 0 512.000000 512.000000" preserveAspectRatio="xMidYMid meet"> <g transform="translate(20.000000,440.000000) scale(0.080000,-0.080000)" fill="#000000" stroke="none"> <path d="M5373 3699 c-27 -10 -67 -64 -82 -111 -34 -105 -183 -198 -347 -217 -87 -9 -91 -9 -189 24 -55 19 -136 39 -179 45 -43 5 -106 18 -140 27 -90 25 -548 26 -621 1 -27 -10 -75 -20 -105 -23 -87 -10 -153 -27 -180 -47 -76 -56 -260 -47 -391 19 -78 39 -159 97 -159 114 0 12 -81 148 -92 155 -17 11 -68 -8 -79 -28 -6 -12 -12 -85 -12 -174 -2 -132 -4 -156 -20 -171 -16 -16 -65 -18 -735 -21 l-717 -3 -25 -30 c-20 -23 -33 -29 -64 -29 -36 0 -46 -8 -152 -115 -92 -94 -114 -121 -114 -145 0 -36 -16 -79 -39 -105 -10 -11 -26 -43 -35 -71 -9 -28 -28 -66 -41 -84 -14 -19 -25 -42 -25 -51 0 -10 -15 -46 -34 -81 -18 -35 -37 -79 -41 -98 -4 -19 -18 -58 -31 -87 -13 -28 -31 -82 -40 -119 -8 -38 -24 -87 -34 -110 -11 -22 -26 -86 -34 -140 -8 -54 -22 -119 -31 -143 -21 -60 -35 -192 -35 -334 0 -145 12 -177 66 -177 47 0 53 20 59 184 4 137 21 274 35 291 5 6 16 59 25 118 8 60 23 127 31 150 9 23 26 81 39 128 25 97 37 123 73 162 31 33 45 34 65 4 13 -20 15 -142 16 -976 0 -524 3 -968 7 -987 4 -21 15 -39 28 -46 11 -6 31 -20 44 -31 34 -31 133 -29 192 4 75 41 108 121 130 315 6 45 21 114 34 155 13 41 26 105 30 143 14 144 64 167 206 98 92 -45 99 -60 80 -164 -13 -75 -48 -241 -77 -360 -14 -62 -14 -69 1 -93 18 -28 29 -30 74 -14 37 13 46 34 67 164 32 196 68 336 95 360 31 28 87 29 202 1 219 -53 566 -59 1068 -20 82 6 86 5 108 -19 13 -14 32 -56 42 -93 10 -38 25 -94 34 -124 9 -30 16 -63 16 -72 0 -10 13 -46 28 -80 16 -35 34 -77 41 -95 17 -42 104 -123 133 -124 68 -3 182 4 192 12 6 5 22 17 35 27 34 27 52 93 41 156 -5 28 -12 125 -16 216 -3 91 -8 184 -9 208 -4 60 13 109 48 138 48 40 128 29 147 -20 4 -12 13 -76 19 -142 20 -214 31 -318 42 -379 12 -66 46 -145 64 -145 6 0 26 14 44 32 29 28 32 37 27 68 -12 67 -44 336 -55 455 -7 66 -14 136 -16 155 -7 55 13 111 53 152 103 103 115 137 120 348 3 163 4 165 30 193 15 16 52 42 82 58 80 42 123 85 163 166 l37 72 -31 66 c-39 83 -38 151 5 215 15 23 34 60 42 82 7 21 22 51 32 66 10 15 26 50 36 79 9 29 26 68 39 87 12 18 30 48 39 65 9 17 30 36 45 42 15 7 55 24 88 39 33 15 85 33 115 40 30 7 77 28 104 47 26 18 54 33 60 33 10 0 68 46 101 80 57 60 76 82 102 126 32 53 63 132 63 162 0 9 9 53 20 97 24 95 25 154 5 181 -8 10 -15 26 -15 34 -1 24 -42 48 -67 39z"/> <path fill="#763300" d="M5373 3699 m-958 -374 c44 -8 111 -17 149 -21 54 -5 84 -15 139 -47 39 -21 88 -42 110 -45 54 -7 197 15 285 45 77 25 112 23 112 -6 0 -20 -57 -111 -70 -111 -4 0 -22 -13 -40 -30 -18 -16 -36 -30 -42 -30 -5 0 -24 -11 -43 -25 -18 -14 -55 -30 -82 -34 -26 -4 -68 -20 -93 -34 -25 -15 -60 -27 -77 -27 -81 0 -153 -59 -153 -125 0 -16 -15 -56 -33 -89 -19 -34 -37 -74 -41 -91 -4 -16 -16 -39 -27 -51 -10 -11 -23 -42 -28 -68 -5 -26 -18 -57 -28 -69 -27 -29 -73 -130 -80 -174 -4 -26 0 -42 16 -64 15 -20 23 -49 27 -92 4 -56 2 -65 -20 -89 -14 -15 -51 -41 -84 -58 -57 -29 -64 -30 -188 -29 -147 0 -176 8 -244 64 -58 49 -69 88 -40 146 11 21 24 40 30 44 15 9 12 88 -5 126 -9 19 -27 52 -40 74 -39 63 -75 136 -86 179 -6 21 -21 56 -35 77 -13 21 -24 45 -24 52 0 8 -9 26 -21 40 -11 15 -23 43 -26 62 -3 20 -10 38 -14 41 -5 3 -9 13 -9 23 0 38 -33 60 -115 77 -44 9 -84 19 -90 24 -5 4 -35 15 -66 24 -31 9 -69 23 -85 31 -16 8 -35 15 -42 15 -7 0 -15 6 -18 14 -3 8 -16 17 -30 20 -30 8 -122 100 -130 131 -3 13 0 33 6 45 10 19 17 21 52 16 23 -4 53 -16 69 -26 15 -11 34 -18 41 -15 8 3 41 -1 73 -10 111 -28 207 -15 323 44 27 14 77 25 139 32 54 5 138 15 186 22 112 15 388 11 492 -8z "/> <path fill="#763300" d="M5373 3699 m-2456 -569 c43 -50 72 -79 126 -128 42 -39 158 -98 208 -106 21 -4 42 -13 49 -21 7 -8 20 -15 29 -15 9 0 22 -5 28 -11 6 -6 26 -12 44 -15 49 -7 77 -23 89 -53 6 -14 17 -37 25 -51 15 -27 59 -123 75 -165 5 -14 14 -25 20 -25 5 0 10 -13 10 -28 0 -15 16 -52 35 -82 50 -78 62 -121 46 -173 -46 -154 -36 -219 47 -303 29 -29 61 -56 72 -59 11 -4 20 -12 20 -19 0 -14 31 -25 165 -56 55 -12 100 -29 116 -43 l26 -22 -8 -157 -9 -157 -47 -49 c-27 -27 -64 -55 -83 -62 -19 -8 -48 -24 -65 -36 -16 -12 -43 -24 -60 -27 -68 -13 -92 -21 -125 -44 -19 -12 -40 -23 -46 -23 -7 0 -21 -16 -33 -35 -20 -34 -20 -42 -12 -332 8 -285 7 -299 -11 -330 -20 -34 -52 -44 -61 -19 -3 8 -18 20 -33 28 -15 7 -32 27 -38 43 -6 17 -19 42 -30 57 -10 16 -16 34 -13 42 7 18 -15 109 -41 167 -11 27 -23 82 -27 132 -8 100 -29 141 -81 163 -29 12 -46 13 -83 5 -113 -25 -176 -34 -321 -43 -302 -20 -551 -13 -775 23 -33 6 -94 14 -135 20 -41 5 -84 14 -95 19 -40 18 -123 41 -181 50 -61 10 -134 37 -134 51 0 4 -24 13 -52 19 -29 7 -57 16 -63 20 -31 22 -68 20 -106 -6 -44 -30 -59 -69 -59 -155 0 -35 -8 -74 -20 -100 -11 -24 -20 -55 -20 -69 -1 -14 -9 -50 -19 -80 -10 -30 -19 -83 -20 -119 -1 -35 -6 -72 -10 -80 -5 -9 -12 -37 -15 -63 -12 -81 -80 -136 -115 -94 -9 10 -11 310 -9 1172 l3 1159 32 60 c18 33 33 70 33 83 0 14 9 26 24 33 13 6 29 21 36 34 7 13 23 28 36 34 13 6 24 15 24 20 0 21 106 64 175 71 39 4 373 7 742 6 l673 -1 47 -55z"/> </g> </svg>