<?xml version="1.0" standalone="no"?> <!DOCTYPE svg PUBLIC "-//W3C//DTD SVG 20010904//EN" "http://www.w3.org/TR/2001/REC-SVG-20010904/DTD/svg10.dtd"> <svg version="1.0" xmlns="http://www.w3.org/2000/svg" width="512.000000pt" height="512.000000pt" viewBox="0 0 512.000000 512.000000" preserveAspectRatio="xMidYMid meet"> <circle stroke="#000000" stroke-width="10" fill="#fff" r="250" cx="256" cy="256" /> <g transform="translate(45.000000,440.000000) scale(0.080000,-0.080000)" fill="#000000" stroke="none"> <path fill="black" d="M2887 4156 c-26 -7 -56 -21 -68 -32 -12 -11 -50 -24 -87 -31 -37 -6 -86 -17 -109 -24 -37 -11 -49 -11 -90 4 -27 9 -62 17 -79 17 -39 0 -106 23 -144 50 -21 15 -44 20 -96 20 -59 0 -77 -5 -148 -41 -45 -23 -107 -61 -138 -85 -111 -84 -126 -88 -279 -86 -122 3 -143 0 -215 -23 -43 -14 -88 -31 -100 -38 -29 -17 -104 -103 -150 -173 -55 -82 -119 -140 -183 -164 -132 -50 -196 -86 -251 -140 -85 -82 -92 -102 -101 -265 -8 -158 -12 -177 -48 -222 -126 -157 -151 -206 -151 -303 0 -47 7 -71 40 -135 22 -43 57 -97 79 -120 73 -79 74 -82 81 -248 4 -98 11 -161 20 -177 53 -97 131 -161 264 -217 95 -39 113 -54 127 -105 7 -26 10 -221 8 -565 -2 -509 -1 -525 18 -551 47 -64 108 -83 238 -74 66 5 177 79 208 139 8 15 22 93 32 173 9 80 22 170 30 200 7 30 21 107 30 170 9 63 21 122 26 132 33 61 121 76 195 33 84 -49 85 -127 9 -465 l-33 -145 20 -28 c17 -24 26 -28 61 -25 37 3 43 7 64 48 16 31 27 77 34 140 17 154 36 231 64 259 22 22 36 26 132 32 135 9 201 23 283 62 71 33 147 38 204 13 62 -27 92 -35 162 -39 77 -4 116 -23 139 -66 7 -15 21 -78 30 -141 9 -63 27 -146 40 -185 12 -38 30 -96 39 -129 34 -115 129 -216 205 -216 76 0 166 21 199 46 69 53 67 41 64 419 -2 393 -2 397 69 435 62 32 112 22 147 -30 24 -35 24 -37 22 -290 -1 -140 -2 -267 -1 -282 1 -30 55 -98 77 -98 7 0 25 20 40 45 l26 45 -3 362 c-2 260 1 371 9 391 24 58 93 164 129 200 37 36 149 97 178 97 8 0 48 18 90 40 93 49 136 51 256 14 73 -23 102 -27 224 -28 l140 -1 83 43 c75 39 86 48 126 110 23 37 49 85 56 107 15 46 15 230 0 269 -5 15 -10 49 -10 76 0 32 -5 54 -15 62 -45 37 -108 105 -121 129 -8 16 -21 32 -30 37 -8 4 -22 28 -30 53 -9 24 -30 58 -47 75 -18 18 -38 38 -45 45 -8 8 -32 30 -54 49 -21 19 -69 65 -106 101 -46 45 -77 68 -101 72 -22 5 -51 25 -87 61 -44 44 -54 60 -54 87 0 34 -9 53 -43 101 -9 14 -21 58 -26 99 -9 66 -13 76 -43 101 -45 38 -177 105 -232 119 -60 15 -123 71 -170 151 -41 70 -120 157 -175 193 -61 40 -141 55 -298 55 -163 0 -177 4 -287 89 -34 26 -92 64 -131 85 -81 44 -158 55 -238 32z m141 -174 c27 -11 104 -61 170 -112 138 -105 151 -110 282 -97 99 9 220 1 265 -17 40 -17 93 -79 155 -181 70 -115 98 -139 204 -169 91 -26 114 -37 154 -75 25 -25 26 -29 12 -66 -13 -34 -65 -55 -135 -55 -51 0 -65 5 -154 60 -185 114 -362 121 -531 21 -123 -73 -183 -180 -150 -267 30 -78 236 -220 355 -244 125 -25 151 -55 140 -162 -12 -118 -10 -260 4 -302 36 -105 120 -207 271 -329 49 -39 55 -48 54 -80 -2 -47 -15 -62 -73 -82 -49 -16 -105 -65 -138 -122 -10 -17 -32 -56 -50 -86 -42 -71 -115 -134 -168 -143 -22 -4 -78 -8 -125 -9 -119 -3 -144 -18 -170 -105 -4 -14 -4 -182 1 -373 4 -200 4 -359 -1 -372 -5 -14 -23 -28 -45 -35 -32 -11 -39 -10 -70 12 -19 12 -39 34 -45 48 -26 65 -89 380 -105 525 -10 94 -23 130 -57 164 -40 39 -81 41 -155 5 -71 -35 -144 -35 -237 0 -38 14 -79 26 -93 26 -23 0 -113 -30 -238 -78 -143 -56 -202 -39 -393 111 -108 84 -131 91 -270 77 -166 -18 -185 -36 -207 -196 -8 -51 -18 -117 -24 -146 -12 -59 -27 -179 -40 -320 -11 -114 -29 -161 -73 -188 -38 -24 -71 -20 -106 13 l-24 22 3 540 c3 459 1 544 -11 570 -17 33 -59 57 -188 104 -100 37 -158 81 -185 141 -18 38 -21 65 -22 181 0 153 10 130 -110 269 -122 143 -122 183 4 332 118 141 125 157 110 264 -23 160 16 237 152 302 35 16 97 39 136 51 40 12 85 33 101 46 16 13 53 66 82 117 30 51 69 109 89 131 63 70 73 72 291 72 l195 0 60 47 c33 26 97 73 143 105 126 86 171 86 400 -6 56 -23 116 -41 132 -41 17 0 69 18 117 39 84 37 184 69 255 80 4 0 30 -7 56 -17z "/> <path fill="#eacab1" d="M2887 4156 m141 -174 m797 -841 c73 -26 164 -89 197 -136 34 -49 34 -50 3 -80 -34 -35 -65 -32 -253 20 -169 46 -209 64 -222 99 -22 60 -21 64 9 86 60 42 164 47 266 11z"/> <path fill="#eacab1" d="M2887 4156 m141 -174 m797 -841 m583 -130 c21 -11 51 -31 68 -44 16 -14 70 -59 119 -100 146 -120 314 -310 377 -425 51 -92 101 -245 102 -307 0 -34 -9 -68 -28 -109 -32 -65 -69 -88 -161 -101 -125 -16 -366 36 -525 113 -267 129 -390 267 -390 437 0 51 19 135 38 171 13 25 75 56 155 79 43 12 69 27 98 57 44 45 51 78 36 159 -6 28 -3 42 14 62 24 32 47 34 97 8z"/> </g> </svg>