<svg xmlns="http://www.w3.org/2000/svg" width="37.817" height="38.105" viewBox="0 0 1003.974 1011.646" clip-rule="evenodd" fill-rule="evenodd" image-rendering="optimizeQuality" shape-rendering="geometricPrecision" text-rendering="geometricPrecision"><defs><style/></defs><g transform="translate(-6949.992 -119.256)"><circle cx="7451.743" cy="625.079" r="502"/><path d="M7721.743 683.58l-41 163c-4-9-9-17-14-26-7-10-15-15-24-15h-55v58c0 22 3 38 8 48 9 15 24 23 46 23v37h-226v-35c25-5 41-15 48-31 3-9 5-29 5-60v-40h-229c-8 0-14 0-21 1-6 1-18 4-37 9v-6c0-32 27-87 82-165 39-56 64-98 74-125 6-14 11-29 16-46 5-16 7-30 7-41 0-8-1-13-5-17-7-5-21-9-41-11l168-126c8 25 12 50 12 74 0 51-20 106-60 165l-138 204h172v-251c52-13 83-48 94-105h39c-9 47-14 98-14 152v204h40c27 0 47-15 61-45z" fill="#fefefe" fill-rule="nonzero"/><ellipse cx="7451.743" cy="625.079" rx="497" ry="502" fill="none" stroke="#2b2a29" stroke-width="7.646"/></g></svg>