<svg xmlns="http://www.w3.org/2000/svg" xmlns:xlink="http://www.w3.org/1999/xlink" viewBox="0 0 283.5 283.5"><symbol id="c" viewBox="-25.5 -25.5 51 51"><circle r="25.5" fill="#ffed2b"/><path d="M-7.4 12.8v11.7c2.3.7 4.8 1.1 7.4 1.1 2.6 0 5-.4 7.4-1.1V12.8L0 8.5l-7.4 4.3zM0-8.5l-7.4-4.3v-11.7c2.3-.7 4.8-1.1 7.4-1.1 2.6 0 5 .4 7.4 1.1v11.7L0-8.5z" fill="#f37021"/><path d="M-7-3.4h.6l1 6.6H-6v1.4h5.2V3.2h-.6l1.1-6.6h.6v-1.4H-3v1.4h.6l-.2 1.8h-1.5l-.2-1.8h.6v-1.4H-7v1.4zm4.2 2.9l-.5 3.9h-.3L-4-.5h1.2zM.6-3.4h.8v6.6H.6v1.4H7v-3H5.3v1.6H3.6V.7h1.2V-.7H3.6v-2.7h1.6v1.7h1.7v-3.1H.6v1.4z"/></symbol><defs><path id="a" d="M280.6 141.7c0 76.7-62.2 138.9-138.9 138.9S2.8 218.4 2.8 141.7 65 2.8 141.7 2.8 280.6 65 280.6 141.7z"/></defs><clipPath id="b"><use xlink:href="#a" overflow="visible"/></clipPath><g clip-path="url(#b)"><use xlink:href="#c" width="51" height="51" x="-25.5" y="-25.5" transform="matrix(7.7777 0 0 -7.7777 139.518 139.782)" overflow="visible"/></g><use xlink:href="#a" overflow="visible" fill="none" stroke="#f3eebf" stroke-miterlimit="10"/></svg>