<?xml version="1.0" encoding="utf-8"?>
<!-- Generator: Adobe Illustrator 25.0.1, SVG Export Plug-In . SVG Version: 6.00 Build 0)  -->
<svg version="1.1" id="Layer_1" xmlns="http://www.w3.org/2000/svg" xmlns:xlink="http://www.w3.org/1999/xlink" x="0px" y="0px"
	 viewBox="0 0 283.5 283.5" style="enable-background:new 0 0 283.5 283.5;" xml:space="preserve">
<style type="text/css">
	.st0{fill:#FFED2B;}
	.st1{fill:#F37021;}
</style>
<symbol  id="Nouveau_symbole_14" viewBox="-25.5 -25.5 51 51">
	<circle class="st0" cx="0" cy="0" r="25.5"/>
	<path class="st1" d="M-7.4,12.8v11.7c2.3,0.7,4.8,1.1,7.4,1.1c2.6,0,5-0.4,7.4-1.1V12.8L0,8.5L-7.4,12.8z M0-8.5l-7.4-4.3v-11.7
		c2.3-0.7,4.8-1.1,7.4-1.1c2.6,0,5,0.4,7.4,1.1v11.7L0-8.5z"/>
	<g>
	</g>
	<g>
		<path d="M-7-3.4h0.6l1,6.6H-6v1.4h5.2V3.2h-0.6l1.1-6.6h0.6v-1.4H-3v1.4h0.6l-0.2,1.8h-1.5l-0.2-1.8h0.6v-1.4H-7V-3.4z M-2.8-0.5
			l-0.5,3.9h-0.3L-4-0.5H-2.8z"/>
		<path d="M0.6-3.4h0.8v6.6H0.6v1.4h6.4v-3H5.3v1.6H3.6V0.7h1.2v-1.4H3.6v-2.7h1.6v1.7h1.7v-3.1H0.6V-3.4z"/>
	</g>
</symbol>
<g>
	<defs>
		<path id="SVGID_1_" d="M280.6,141.7c0,76.7-62.2,138.9-138.9,138.9C65,280.6,2.8,218.4,2.8,141.7C2.8,65,65,2.8,141.7,2.8
			C218.4,2.8,280.6,65,280.6,141.7z"/>
	</defs>
	<clipPath id="SVGID_2_">
		<use xlink:href="#SVGID_1_"  style="overflow:visible;"/>
	</clipPath>
	<g style="clip-path:url(#SVGID_2_);">
		
			<use xlink:href="#Nouveau_symbole_14"  width="51" height="51" x="-25.5" y="-25.5" transform="matrix(7.7777 0 0 -7.7777 139.5175 139.7824)" style="overflow:visible;"/>
	</g>
	<use xlink:href="#SVGID_1_"  style="overflow:visible;fill:none;stroke:#F3EEBF;stroke-miterlimit:10;"/>
</g>
</svg>
