<?xml version="1.0" encoding="utf-8"?>
<!-- Generator: Adobe Illustrator 25.0.1, SVG Export Plug-In . SVG Version: 6.00 Build 0)  -->
<svg version="1.1" id="Layer_1" xmlns="http://www.w3.org/2000/svg" xmlns:xlink="http://www.w3.org/1999/xlink" x="0px" y="0px"
	 viewBox="0 0 283.5 283.5" style="enable-background:new 0 0 283.5 283.5;" xml:space="preserve">
<style type="text/css">
	.st0{fill:#009A54;}
	.st1{fill:#9794A4;}
	.st2{fill:#FFFFFF;}
</style>
<symbol  id="Nouveau_symbole_23" viewBox="-25.5 -25.5 51 51">
	<circle class="st0" cx="0" cy="0" r="25.5"/>
	<polygon class="st1" points="0,25.5 0.7,21.7 2.9,25.1 2.1,21.2 5.5,24.6 3.3,20.3 7.6,22.5 4.2,19.1 9,19.9 4.6,17.7 9.4,17 
		4.6,16.3 9,14.1 4.2,14.9 7.6,11.5 3.3,13.7 5.5,9.4 2.1,12.8 2.9,8.1 0.7,12.4 0,7.6 -0.7,12.4 -2.9,8.1 -2.1,12.8 -5.5,9.4 
		-3.3,13.7 -7.6,11.5 -4.2,14.9 -9,14.1 -4.6,16.3 -9.4,17 -4.6,17.7 -9,19.9 -4.2,19.1 -7.6,22.5 -3.3,20.3 -5.5,24.6 -2.1,21.2 
		-2.9,25.1 -0.7,21.7 	"/>
	<polygon class="st1" points="0,-25.5 0.7,-21.7 2.9,-25.1 2.1,-21.2 5.5,-24.6 3.3,-20.3 7.6,-22.5 4.2,-19.1 9,-19.9 4.6,-17.7 
		9.4,-17 4.6,-16.3 9,-14.1 4.2,-14.9 7.6,-11.5 3.3,-13.7 5.5,-9.4 2.1,-12.8 2.9,-8.1 0.7,-12.4 0,-7.6 -0.7,-12.4 -2.9,-8.1 
		-2.1,-12.8 -5.5,-9.4 -3.3,-13.7 -7.6,-11.5 -4.2,-14.9 -9,-14.1 -4.6,-16.3 -9.4,-17 -4.6,-17.7 -9,-19.9 -4.2,-19.1 -7.6,-22.5 
		-3.3,-20.3 -5.5,-24.6 -2.1,-21.2 -2.9,-25.1 -0.7,-21.7 	"/>
	<g>
	</g>
	<g>
		<path class="st2" d="M-6,2.2c0-0.9-0.4-1.5-1.2-1.8C-6.7,0.1-6.3-0.1-6-0.5s0.4-0.8,0.4-1.3c0-1.7-1.3-2.6-3.9-2.6h-4.1v1.5h1.1V3
			h-1.1v1.5h4.1c1.2,0,2.1-0.2,2.7-0.6S-6,2.9-6,2.2z M-8.3,2c0,0.3-0.1,0.6-0.4,0.7S-9.2,3-9.7,3h-0.5V1h0.7c0.4,0,0.7,0.1,0.9,0.2
			S-8.3,1.7-8.3,2z M-8-1.7C-8-1.3-8.1-1-8.4-0.8S-9-0.5-9.6-0.5h-0.6v-2.3h0.9c0.4,0,0.7,0.1,1,0.3S-8-2.1-8-1.7z"/>
		<path class="st2" d="M2.5,2.2c0-0.9-0.4-1.5-1.2-1.8c0.5-0.2,0.9-0.5,1.2-0.8s0.4-0.8,0.4-1.3c0-1.7-1.3-2.6-3.9-2.6h-4.1v1.5h1.1
			V3h-1.1v1.5h4.1c1.2,0,2.1-0.2,2.7-0.6S2.5,2.9,2.5,2.2z M0.2,2c0,0.3-0.1,0.6-0.4,0.7S-0.8,3-1.3,3h-0.5V1h0.7
			c0.4,0,0.7,0.1,0.9,0.2S0.2,1.7,0.2,2z M0.4-1.7c0,0.4-0.1,0.7-0.4,0.9s-0.7,0.3-1.3,0.3h-0.6v-2.3h0.9c0.4,0,0.7,0.1,1,0.3
			S0.4-2.1,0.4-1.7z"/>
		<path class="st2" d="M11.2,3.8v0.7h1.5V1.3h-1.5c-0.2,0.5-0.5,0.9-0.9,1.2S9.3,3,8.7,3c-0.5,0-1-0.1-1.3-0.3s-0.7-0.6-0.9-1
			S6.2,0.8,6.2,0.2c0-1,0.2-1.7,0.7-2.3S8-2.9,8.8-2.9c0.5,0,1,0.1,1.3,0.4s0.6,0.6,0.7,1.1H9.3v1.5h4.2c0-1-0.2-1.8-0.6-2.5
			s-0.9-1.2-1.6-1.6S9.7-4.5,8.7-4.5c-1,0-1.9,0.2-2.6,0.5S4.7-3,4.3-2.3S3.7-0.9,3.7,0.1c0,0.9,0.2,1.7,0.6,2.3S5.3,3.7,6,4
			s1.5,0.6,2.4,0.6C9.6,4.6,10.5,4.3,11.2,3.8z"/>
	</g>
</symbol>
<g>
	<defs>
		<path id="SVGID_1_" d="M280.6,141.7c0,76.7-62.2,138.9-138.9,138.9C65,280.6,2.8,218.4,2.8,141.7C2.8,65,65,2.8,141.7,2.8
			C218.4,2.8,280.6,65,280.6,141.7z"/>
	</defs>
	<clipPath id="SVGID_2_">
		<use xlink:href="#SVGID_1_"  style="overflow:visible;"/>
	</clipPath>
	<g style="clip-path:url(#SVGID_2_);">
		
			<use xlink:href="#Nouveau_symbole_23"  width="51" height="51" x="-25.5" y="-25.5" transform="matrix(7.7777 0 0 -7.7777 139.5162 139.781)" style="overflow:visible;"/>
	</g>
	<use xlink:href="#SVGID_1_"  style="overflow:visible;fill:none;stroke:#F3EEBF;stroke-miterlimit:10;"/>
</g>
</svg>
