<svg xmlns="http://www.w3.org/2000/svg" xmlns:xlink="http://www.w3.org/1999/xlink" viewBox="0 0 283.5 283.5"><symbol id="c" viewBox="-25.5 -25.5 51 51"><circle r="25.5" fill="#009a54"/><path d="M0 25.5l.7-3.8 2.2 3.4-.8-3.9 3.4 3.4-2.2-4.3 4.3 2.2-3.4-3.4 4.8.8-4.4-2.2 4.8-.7-4.8-.7L9 14.1l-4.8.8 3.4-3.4-4.3 2.2 2.2-4.3-3.4 3.4.8-4.7-2.2 4.3L0 7.6l-.7 4.8-2.2-4.3.8 4.7-3.4-3.4 2.2 4.3-4.3-2.2 3.4 3.4-4.8-.8 4.4 2.2-4.8.7 4.8.7-4.4 2.2 4.8-.8-3.4 3.4 4.3-2.2-2.2 4.3 3.4-3.4-.8 3.9 2.2-3.4zm0-51l.7 3.8 2.2-3.4-.8 3.9 3.4-3.4-2.2 4.3 4.3-2.2-3.4 3.4 4.8-.8-4.4 2.2 4.8.7-4.8.7L9-14.1l-4.8-.8 3.4 3.4-4.3-2.2 2.2 4.3-3.4-3.4.8 4.7-2.2-4.3L0-7.6l-.7-4.8-2.2 4.3.8-4.7-3.4 3.4 2.2-4.3-4.3 2.2 3.4-3.4-4.8.8 4.4-2.2-4.8-.7 4.8-.7-4.4-2.2 4.8.8-3.4-3.4 4.3 2.2-2.2-4.3 3.4 3.4-.8-3.9 2.2 3.4z" fill="#9794a4"/><path d="M-6 2.2C-6 1.3-6.4.7-7.2.4c.5-.3.9-.5 1.2-.9s.4-.8.4-1.3c0-1.7-1.3-2.6-3.9-2.6h-4.1v1.5h1.1V3h-1.1v1.5h4.1c1.2 0 2.1-.2 2.7-.6s.8-1 .8-1.7zM-8.3 2c0 .3-.1.6-.4.7s-.5.3-1 .3h-.5V1h.7c.4 0 .7.1.9.2s.3.5.3.8zm.3-3.7c0 .4-.1.7-.4.9s-.6.3-1.2.3h-.6v-2.3h.9c.4 0 .7.1 1 .3s.3.4.3.8zM2.5 2.2c0-.9-.4-1.5-1.2-1.8.5-.2.9-.5 1.2-.8s.4-.8.4-1.3c0-1.7-1.3-2.6-3.9-2.6h-4.1v1.5H-4V3h-1.1v1.5H-1c1.2 0 2.1-.2 2.7-.6s.8-1 .8-1.7zM.2 2c0 .3-.1.6-.4.7s-.6.3-1.1.3h-.5V1h.7c.4 0 .7.1.9.2s.4.5.4.8zm.2-3.7c0 .4-.1.7-.4.9s-.7.3-1.3.3h-.6v-2.3h.9c.4 0 .7.1 1 .3s.4.4.4.8zm10.8 5.5v.7h1.5V1.3h-1.5c-.2.5-.5.9-.9 1.2s-1 .5-1.6.5c-.5 0-1-.1-1.3-.3s-.7-.6-.9-1S6.2.8 6.2.2c0-1 .2-1.7.7-2.3s1.1-.8 1.9-.8c.5 0 1 .1 1.3.4s.6.6.7 1.1H9.3V.1h4.2c0-1-.2-1.8-.6-2.5S12-3.6 11.3-4s-1.6-.5-2.6-.5-1.9.2-2.6.5-1.4 1-1.8 1.7S3.7-.9 3.7.1c0 .9.2 1.7.6 2.3S5.3 3.7 6 4s1.5.6 2.4.6c1.2 0 2.1-.3 2.8-.8z" fill="#fff"/></symbol><defs><path id="a" d="M280.6 141.7c0 76.7-62.2 138.9-138.9 138.9S2.8 218.4 2.8 141.7 65 2.8 141.7 2.8 280.6 65 280.6 141.7z"/></defs><clipPath id="b"><use xlink:href="#a" overflow="visible"/></clipPath><g clip-path="url(#b)"><use xlink:href="#c" width="51" height="51" x="-25.5" y="-25.5" transform="matrix(7.7777 0 0 -7.7777 139.516 139.781)" overflow="visible"/></g><use xlink:href="#a" overflow="visible" fill="none" stroke="#f3eebf" stroke-miterlimit="10"/></svg>