<?xml version="1.0" encoding="utf-8"?>
<!-- Generator: Adobe Illustrator 25.0.1, SVG Export Plug-In . SVG Version: 6.00 Build 0)  -->
<svg version="1.1" id="Layer_1" xmlns="http://www.w3.org/2000/svg" xmlns:xlink="http://www.w3.org/1999/xlink" x="0px" y="0px"
	 viewBox="0 0 283.5 283.5" style="enable-background:new 0 0 283.5 283.5;" xml:space="preserve">
<style type="text/css">
	.st0{fill:#FFEB00;}
	.st1{fill:#00AFAD;}
</style>
<symbol  id="Nouveau_symbole_19" viewBox="-25.5 -25.5 51 51">
	<circle class="st0" cx="0" cy="0" r="25.5"/>
	<path class="st1" d="M0-8.5c-4.7,0-8.5-3.8-8.5-8.5v-7C-5.8-25-3-25.5,0-25.5s5.8,0.5,8.5,1.5v7C8.5-12.3,4.7-8.5,0-8.5z"/>
	<path class="st1" d="M0,8.5c4.7,0,8.5,3.8,8.5,8.5v7C5.8,25,3,25.5,0,25.5s-5.8-0.5-8.5-1.5v-7C-8.5,12.3-4.7,8.5,0,8.5z"/>
	<g>
		<path d="M-6.5-3.2h0.7v6.9h-0.7v1.5h3.4c1.5,0,3.2-0.6,3.2-2.6c0-1-0.5-1.7-1.4-2c1-0.4,1.5-1.2,1.5-2.3c0-1.8-1.3-2.9-3.5-2.9
			h-3.2V-3.2z M-3.4,1c0.8,0,1.2,0.2,1.2,1.3c0,1.3-0.4,1.4-1.2,1.4V1z M-3.4-3.2c0.9,0,1.3,0.1,1.3,1.4c0,1.4-0.5,1.5-1.3,1.5V-3.2
			z"/>
		<path d="M4.1,5.3c2,0,3.4-2,3.4-5.1c0-3.1-1.3-5.1-3.4-5.1c-2,0-3.4,2-3.4,5.1C0.7,3.3,2,5.3,4.1,5.3z M4.1,3.7
			c-0.6,0-0.8-0.5-0.8-3.4c0-2.9,0.2-3.4,0.8-3.4s0.8,0.5,0.8,3.4C4.9,3.2,4.7,3.7,4.1,3.7z"/>
	</g>
</symbol>
<g>
	<defs>
		<path id="SVGID_1_" d="M280.6,141.7c0,76.7-62.2,138.9-138.9,138.9C65,280.6,2.8,218.4,2.8,141.7C2.8,65,65,2.8,141.7,2.8
			C218.4,2.8,280.6,65,280.6,141.7z"/>
	</defs>
	<clipPath id="SVGID_2_">
		<use xlink:href="#SVGID_1_"  style="overflow:visible;"/>
	</clipPath>
	<g style="clip-path:url(#SVGID_2_);">
		
			<use xlink:href="#Nouveau_symbole_19"  width="51" height="51" x="-25.5" y="-25.5" transform="matrix(7.7777 0 0 -7.7777 139.5157 139.7789)" style="overflow:visible;"/>
	</g>
	<use xlink:href="#SVGID_1_"  style="overflow:visible;fill:none;stroke:#F3EEBF;stroke-miterlimit:10;"/>
</g>
</svg>
