<svg xmlns="http://www.w3.org/2000/svg" xmlns:xlink="http://www.w3.org/1999/xlink" viewBox="0 0 283.5 283.5"><symbol id="c" viewBox="-25.5 -25.5 51 51"><circle r="25.5" fill="#ffed2b"/><path d="M-4.3 7.3L-19 17c4.7 5.2 11.5 8.5 19 8.5s14.3-3.3 19-8.5L4.3 7.3 5 18.7-.1 8.5-5 18.3l.7-11zM0-25.5c7.6 0 14.3 3.3 19 8.5L4.3-7.3 5-18.7-.1-8.5-5-18.3l.7 11L-19-17c4.7-5.2 11.4-8.5 19-8.5z" fill="#903f98"/><path d="M-1.1-1.9C-1.3-3.8-2.4-5-3.9-5-5.6-5-7.1-3.5-7.1.2c0 3.3 1.3 4.9 2.7 4.9.5 0 1-.2 1.4-.8V5h1.6V1.6H-3c-.1 1.2-.4 1.8-.9 1.8-.6 0-.7-.6-.7-3.3 0-2.9.1-3.6.8-3.6.5 0 .7.6.8 2l1.9-.4zM-1-3.4h.7L.8 3.5H.1V5h5.4V3.5h-.6L6-3.4h.6v-1.5H3.2v1.5h.6l-.2 1.8H2l-.2-1.8h.6v-1.5H-1v1.5zm4.5 3l-.6 4.1h-.2L2.2-.4h1.3z"/></symbol><defs><path id="a" d="M280.6 141.7c0 76.7-62.2 138.9-138.9 138.9S2.8 218.4 2.8 141.7 65 2.8 141.7 2.8 280.6 65 280.6 141.7z"/></defs><clipPath id="b"><use xlink:href="#a" overflow="visible"/></clipPath><g clip-path="url(#b)"><use xlink:href="#c" width="51" height="51" x="-25.5" y="-25.5" transform="matrix(7.7777 0 0 -7.7777 139.516 139.782)" overflow="visible"/></g><use xlink:href="#a" overflow="visible" fill="none" stroke="#f3eebf" stroke-miterlimit="10"/></svg>