<?xml version="1.0" encoding="utf-8"?>
<!-- Generator: Adobe Illustrator 25.0.1, SVG Export Plug-In . SVG Version: 6.00 Build 0)  -->
<svg version="1.1" id="Layer_1" xmlns="http://www.w3.org/2000/svg" xmlns:xlink="http://www.w3.org/1999/xlink" x="0px" y="0px"
	 viewBox="0 0 283.5 283.5" style="enable-background:new 0 0 283.5 283.5;" xml:space="preserve">
<style type="text/css">
	.st0{fill:#FFED2B;}
	.st1{fill:#903F98;}
</style>
<symbol  id="Nouveau_symbole_12" viewBox="-25.5 -25.5 51 51">
	<circle class="st0" cx="0" cy="0" r="25.5"/>
	<path class="st1" d="M-4.3,7.3L-19,17c4.7,5.2,11.5,8.5,19,8.5s14.3-3.3,19-8.5L4.3,7.3L5,18.7L-0.1,8.5L-5,18.3L-4.3,7.3z M0-25.5
		c7.6,0,14.3,3.3,19,8.5L4.3-7.3L5-18.7L-0.1-8.5L-5-18.3l0.7,11L-19-17C-14.3-22.2-7.6-25.5,0-25.5z"/>
	<g>
	</g>
	<g>
		<path d="M-1.1-1.9C-1.3-3.8-2.4-5-3.9-5c-1.7,0-3.2,1.5-3.2,5.2c0,3.3,1.3,4.9,2.7,4.9c0.5,0,1-0.2,1.4-0.8h0v0.7h1.6V1.6H-3
			c-0.1,1.2-0.4,1.8-0.9,1.8c-0.6,0-0.7-0.6-0.7-3.3c0-2.9,0.1-3.6,0.8-3.6c0.5,0,0.7,0.6,0.8,2L-1.1-1.9z"/>
		<path d="M-1-3.4h0.7l1.1,6.9H0.1v1.5h5.4V3.5H4.9L6-3.4h0.6v-1.5H3.2v1.5h0.6L3.6-1.6H2L1.8-3.4h0.6v-1.5H-1V-3.4z M3.5-0.4
			L2.9,3.7H2.7L2.2-0.4H3.5z"/>
	</g>
</symbol>
<g>
	<defs>
		<path id="SVGID_1_" d="M280.6,141.7c0,76.7-62.2,138.9-138.9,138.9C65,280.6,2.8,218.4,2.8,141.7C2.8,65,65,2.8,141.7,2.8
			C218.4,2.8,280.6,65,280.6,141.7z"/>
	</defs>
	<clipPath id="SVGID_2_">
		<use xlink:href="#SVGID_1_"  style="overflow:visible;"/>
	</clipPath>
	<g style="clip-path:url(#SVGID_2_);">
		
			<use xlink:href="#Nouveau_symbole_12"  width="51" height="51" x="-25.5" y="-25.5" transform="matrix(7.7777 0 0 -7.7777 139.5157 139.7824)" style="overflow:visible;"/>
	</g>
	<use xlink:href="#SVGID_1_"  style="overflow:visible;fill:none;stroke:#F3EEBF;stroke-miterlimit:10;"/>
</g>
</svg>
