<svg version="1.1" id="Layer_1" xmlns="http://www.w3.org/2000/svg" xmlns:xlink="http://www.w3.org/1999/xlink" x="0" y="0" viewBox="0 0 283.5 283.5" xml:space="preserve"><style>.st0{fill:#f04d4b}</style><symbol id="New_Symbol_5" viewBox="-17 -17 34 34"><circle class="st0" r="17"/><path d="M16.8-2.8c.1.4.1.7.2 1.1L8.5 0l8.4 1.7c0 .4-.1.7-.2 1.1l-8.5-.6L15.9 6c-.1.3-.3.7-.4 1L7.4 4.3l6.4 5.6c-.2.3-.4.6-.7.9L6 6l4.8 7.1c-.3.2-.6.4-.9.7L4.3 7.4 7 15.5c-.3.2-.7.3-1 .4L2.2 8.2l.6 8.5c-.4.1-.7.1-1.1.2L0 8.5l-1.7 8.4c-.4 0-.7-.1-1.1-.2l.6-8.5-3.8 7.7c-.3-.1-.7-.3-1-.4l2.8-8.1-5.6 6.4c-.3-.2-.6-.4-.9-.7L-6 6l-7.1 4.8c-.2-.3-.4-.6-.7-.9l6.4-5.6-8.1 2.7c-.2-.3-.3-.7-.4-1l7.7-3.8-8.5.6c-.1-.4-.1-.7-.2-1.1L-8.5 0l-8.4-1.7c0-.4.1-.7.2-1.1l8.5.6-7.7-3.8c.1-.3.3-.7.4-1l8.1 2.8-6.4-5.6c.2-.3.4-.6.7-.9L-6-6l-4.8-7.1c.3-.2.6-.4.9-.7l5.6 6.4-2.7-8.1c.3-.2.7-.3 1-.4l3.8 7.7-.6-8.5c.4-.1.7-.1 1.1-.2L0-8.5l1.7-8.4c.4 0 .7.1 1.1.2l-.6 8.5L6-15.9c.3.1.7.3 1 .4L4.3-7.4l5.6-6.4c.3.2.6.4.9.7L6-6l7.1-4.8c.2.3.4.6.7.9L7.4-4.3 15.5-7c.2.3.3.7.4 1L8.2-2.2l8.6-.6z" fill="#fff"/><path class="st0" d="M3-7c0 .1-.1.3-.1.4.3 0 .6-.1.8-.2.2 0 .3-.1.5-.1s.3-.1.5-.1c0 .1 0 .2-.1.3 0 .1 0 .2.1.3.2.3.5.3.7.4.3 0 .5 0 .8.1.1 0 .3.1.2.2 0 .1-.2.2-.3.2-.1.1-.2.1-.3.2-.1.1-.2.1-.2.2-.1.1-.2.2-.1.4 0 .1.3.2.3.3.1 0 .2.1.3.1 0 0 .1 0 .1.1H4.9c-.7 0-1.4-.1-2 0-.1.3.6.5.8.5.2 0 .5 0 .7.1.4.1.8.2 1.2.2.3 0 .6.2.8.3.2.1.4.2.5.4.1.1.4.4.2.5-.1.1-.7.1-.5.3l.1.1c.1 0 .1 0 .2.1.1 0 .2.1.3.1.2.1.4.3.6.4.1.1.5.2.4.4-.3 0-.6-.1-.9-.1-.1.1-.2.1-.3.3-.1.1.1.3.2.4.4.6.9 1.1 1 1.8 0 0-.2-.1-.3-.1-.1 0-.2-.1-.3-.1-.2 0-.4-.1-.5.1 0 .2.1.3.2.4.1.2.3.4.3.6-.2 0-.2-.2-.4-.2-.1-.1-.1-.1-.3-.1v.4c.2.1.3.3.4.4.1.1.1.3.1.4 0 .1.1.3 0 .4-.1.1-.4-.1-.5-.2-.3-.1-.9-.4-1 0 0 .1.1.3 0 .4-.1 0-.3-.1-.4-.2l-.6-.6c-.1-.2-.2-.4-.4-.5-.1-.1-.4-.2-.4.1l.1.4c-.2-.1-.3-.2-.4-.4-.1-.1-.1-.2-.2-.3 0-.1-.1-.2-.2-.3-.1-.3-.2-.5-.5-.8l-.3-.3C2.5 1 2.4.9 2.3.9c0 .2 0 .6.1.8l.3.6c.3.4.6.7.6 1.2 0 .1 0 .3.1.4-.2-.1-.2-.3-.3-.3-.1.2 0 .4 0 .6 0 .2.1.4.1.6 0 .2.1.3.1.5v.3c0 .1.1.2.1.3-.1 0-.1-.1-.2-.1 0-.2-.1-.2-.2-.3-.2-.2-.5-.3-.7-.5-.1-.2-.5-.7-.7-.3-.1.3-.1.6 0 .9 0 .1.1.3.1.4 0 .1 0 .3-.1.4-.1-.1-.3-.3-.4-.3-.2-.1-.2 0-.3.2 0 .1-.1.2-.2.3 0 .1-.1.2-.1.3 0 .2 0 .3-.1.5s-.1.3-.2.5c-.1.1-.2.4-.3.5v-.1l-.1.1c.1-.1-.4-.6-.4-.7-.1-.3-.3-.6-.3-.9 0-.3.1-.6-.2-.8-.3-.1-.2.5-.5.5-.1-.4.1-.7.1-1.1V4.2c-.2-.1-.5.2-.6.3-.2.1-.3.3-.5.5-.1.1-.3.2-.5.3 0 0-.1.1-.2.1-.1.1-.1.2-.2.2 0-.3.1-.6.3-.8.1-.2.3-.4.3-.6-.1-.3-.7.5-.8.5-.1-.3.3-.7.5-1l.3-.6c0-.1.1-.2.2-.3.1-.1.2-.2.2-.3 0-.2.1-.4.2-.5 0-.2.2-.4.2-.6-.2 0-.4.3-.5.4-.5.3-1 .5-1.4.7-.2.1-.5.3-.6.5-.1.1-.2.5-.4.4-.1-.2.2-.4.1-.5-.1-.1-.4 0-.5.1l-.6.3c-.2.1-.4.2-.6.2.1-.1.2-.2.2-.3-.3 0-.6.1-.9.2-.1 0-.3.1-.4.1H-8c0-.2.2-.3.3-.4.1-.1.3-.2.4-.3.2-.1.4-.3.5-.5.1-.1.1-.4 0-.5-.1-.1-.2 0-.3 0h-.3c0-.1.1-.3.2-.4 0-.2.2-.3.2-.4.2-.2 0-.5-.3-.4-.1 0-.2.2-.3.1-.1-.1 0-.3.1-.3.4-.3.7-.4.9-.7.1-.1.2-.3.3-.4.1-.1.2-.2.2-.3v-.2c0-.1 0-.1-.1-.1s-.2-.1-.4-.1c-.3 0-.5 0-.8.1h-.3c-.1 0-.1 0-.2-.1h-.4c0-.1.3-.3.4-.3.2-.2.4-.3.6-.4.3-.1.5-.3.8-.5H-7c-.1-.2.4-.4.5-.5.2-.2.4-.3.6-.4.3-.2.7-.4 1-.5.4-.1.8-.2 1.2-.2h.9c.1 0 .2-.1.3-.1 0-.2-.3-.2-.4-.2h-.7c0-.1.4-.1.2-.3h-.1s-.1 0-.1-.1c-.1-.1-.3-.1-.5 0s-.3 0-.5 0h-.3c-.1 0-.2 0-.3-.1 0-.2.2-.4.3-.5 0-.2 0-.4-.1-.5 0-.2-.2-.3-.3-.3-.1-.1-.4-.2-.3-.4.1-.2.7-.1.9-.1.1 0 .3 0 .4.1.1 0 .2.2.4.2.1 0 .4.1.4-.1.1-.3-.1-.5-.3-.6.2.1.3 0 .5 0s.3.1.5.2.3.2.5.2c.1 0 .3 0 .5.1v-.4c0-.1-.1-.2-.2-.3h.3c.1 0 .2.1.3.2l.4.4c.1.1.3.2.4.3.1.2.3.4.4.6 0 .1 0 .2.1.2.1.2.1 0 .1-.1 0-.2 0-.4-.1-.6L-.4-7c-.1-.2-.1-.4-.2-.5-.2-.2-.4-.4-.4-.6 0-.1.1-.1.2-.2s.2-.1.3-.2c0 .1.1.2.1.3.1.2.2.3.2.4.1.2.3.5.4.7.1.2.2.5.3.7 0 .1.1.3.1.4v.3c.1 0 .2-.1.3-.1.3 0 .5-.1.7-.2.1-.1.2-.2.4-.3.3-.2.6-.5 1-.7z"/><linearGradient id="SVGID_1_" gradientUnits="userSpaceOnUse" x1="12.026" y1="12.026" x2="-12.026" y2="-12.026"><stop offset="0" stop-color="#eded92"/><stop offset=".285" stop-color="#e0a557"/><stop offset=".525" stop-color="#eded92"/><stop offset="1" stop-color="#a1804a"/></linearGradient><path d="M17 0c0-9.4-7.6-17-17-17S-17-9.4-17 0s7.6 17 17 17S17 9.4 17 0zM0 15.7c-8.6 0-15.7-7-15.7-15.7s7-15.7 15.7-15.7c8.6 0 15.7 7 15.7 15.7S8.6 15.7 0 15.7z" fill="url(#SVGID_1_)"/></symbol><use xlink:href="#New_Symbol_5" width="34" height="34" x="-17" y="-17" transform="matrix(8.1782 0 0 -8.1782 141.732 141.732)" overflow="visible"/></svg>