<?xml version="1.0" encoding="UTF-8" standalone="no"?>
<svg
   xmlns:dc="http://purl.org/dc/elements/1.1/"
   xmlns:cc="http://creativecommons.org/ns#"
   xmlns:rdf="http://www.w3.org/1999/02/22-rdf-syntax-ns#"
   xmlns:svg="http://www.w3.org/2000/svg"
   xmlns="http://www.w3.org/2000/svg"
   xmlns:sodipodi="http://sodipodi.sourceforge.net/DTD/sodipodi-0.dtd"
   xmlns:inkscape="http://www.inkscape.org/namespaces/inkscape"
   version="1.1"
   viewBox="0 0 13.62 13.62"
   data-name="Layer 1"
   id="Layer_1"
   sodipodi:docname="CN.svg"
   inkscape:version="0.92.5 (2060ec1f9f, 2020-04-08)">
  <sodipodi:namedview
     pagecolor="#ffffff"
     bordercolor="#666666"
     borderopacity="1"
     objecttolerance="10"
     gridtolerance="10"
     guidetolerance="10"
     inkscape:pageopacity="0"
     inkscape:pageshadow="2"
     inkscape:window-width="3696"
     inkscape:window-height="2032"
     id="namedview3765"
     showgrid="false"
     inkscape:zoom="23.115954"
     inkscape:cx="17.595477"
     inkscape:cy="-0.76461825"
     inkscape:window-x="144"
     inkscape:window-y="54"
     inkscape:window-maximized="1"
     inkscape:current-layer="Layer_1" />
  <metadata
     id="metadata13">
    <rdf:RDF>
      <cc:Work
         rdf:about="">
        <dc:format>image/svg+xml</dc:format>
        <dc:type
           rdf:resource="http://purl.org/dc/dcmitype/StillImage" />
        <dc:title></dc:title>
      </cc:Work>
    </rdf:RDF>
  </metadata>
  <defs
     id="defs4">
    <style
       id="style2">.cls-1{fill:#fff;}.cls-2{fill:#231f20;}</style>
  </defs>
  <circle
     style="fill:#e6e6e6"
     id="circle6"
     r="6.81"
     cy="6.81"
     cx="6.81"
     class="cls-1" />
  <path
     d="M 6.8098124,1.7829667 5.9968298,3.2992753 C 5.9045813,3.4640725 5.7392993,3.4487871 5.57401,3.3567149 L 4.9854309,3.05194 5.424109,5.3809669 C 5.5163575,5.8064677 5.2203822,5.8064677 5.0743153,5.6224848 L 4.0471316,4.47257 3.8803733,5.0565289 C 3.8611288,5.1332129 3.7765855,5.2137532 3.6497337,5.1945748 L 2.350858,4.9214799 2.6920136,6.1618069 c 0.073011,0.275989 0.1300029,0.3902584 -0.073731,0.4630495 l -0.4629613,0.2175872 2.235941,1.8161985 c 0.088502,0.06868 0.1332128,0.192247 0.1017091,0.304144 l -0.1956911,0.642199 c 0.7698663,-0.08874 1.4596771,-0.222251 2.22994,-0.304481 0.068017,-0.0073 0.1818307,0.104956 0.181368,0.183755 L 6.6065778,11.837033 H 6.9808897 L 6.9219807,9.4893051 c -4.701e-4,-0.0788 0.1028036,-0.196058 0.1707982,-0.188801 0.7702629,0.08223 1.4600744,0.215736 2.2299404,0.304481 l -0.195691,-0.642199 c -0.03151,-0.111897 0.01322,-0.235473 0.101709,-0.304144 L 11.464679,6.8424436 11.001718,6.6248564 C 10.797984,6.5520653 10.854953,6.4377959 10.927986,6.1618069 L 11.269149,4.9214799 9.9702586,5.1945748 C 9.8434146,5.2137458 9.7588566,5.1332423 9.7396266,5.0565289 L 9.5728673,4.47257 8.5456843,5.6224848 C 8.3996173,5.8064677 8.103642,5.8064677 8.1958905,5.3809669 L 8.6345613,3.05194 8.0459894,3.3567149 C 7.8807001,3.4487577 7.7154182,3.4640431 7.6231697,3.2992753"
     id="path3894"
     inkscape:connector-curvature="0"
     style="fill:#ff0000;stroke-width:0.02383193" />
</svg>
