<?xml version="1.0" encoding="utf-8"?>
<!-- Generator: Adobe Illustrator 25.0.1, SVG Export Plug-In . SVG Version: 6.00 Build 0)  -->
<svg version="1.1" id="Layer_1" xmlns="http://www.w3.org/2000/svg" xmlns:xlink="http://www.w3.org/1999/xlink" x="0px" y="0px"
	 viewBox="0 0 283.5 283.5" style="enable-background:new 0 0 283.5 283.5;" xml:space="preserve">
<style type="text/css">
	.st0{fill:#1B2C5D;}
	.st1{clip-path:url(#SVGID_2_);fill:#657695;}
	.st2{fill:#FFFFFF;}
</style>
<symbol  id="Nouveau_symbole_25" viewBox="-28.3 -28.3 56.7 56.7">
	<path class="st0" d="M28.3,0c0-15.7-12.7-28.3-28.3-28.3S-28.3-15.7-28.3,0c0,15.7,12.7,28.3,28.3,28.3S28.3,15.7,28.3,0z"/>
	<g>
		<defs>
			<path id="SVGID_1_" d="M28.3,0c0-15.7-12.7-28.3-28.3-28.3S-28.3-15.7-28.3,0c0,15.7,12.7,28.3,28.3,28.3S28.3,15.7,28.3,0z"/>
		</defs>
		<clipPath id="SVGID_2_">
			<use xlink:href="#SVGID_1_"  style="overflow:visible;"/>
		</clipPath>
		<path class="st1" d="M0,3.1l-1.6,25.2h3.2L0,3.1z M-7.3,27.4l-3-1L-1,3L-7.3,27.4z M-15.4,23.9l-2.5-1.9L-1.9,2.5L-15.4,23.9z
			 M-22,17.9l-1.9-2.5L-2.5,1.9L-22,17.9z M-26.5,10.3l-1-3L-3,1L-26.5,10.3z M-28.3,1.6v-3.1L-3.1,0L-28.3,1.6z M-27.4-7.3l1-3
			L-3-1L-27.4-7.3z M-23.9-15.4l1.9-2.5L-2.5-1.9L-23.9-15.4z M-17.9-22l2.5-1.9L-1.9-2.5L-17.9-22z M-10.3-26.5l3-1L-1-3
			L-10.3-26.5z M-1.6-28.3h3.2L0-3.1L-1.6-28.3z M7.3-27.4l3,1L1-3L7.3-27.4z M15.4-23.9l2.5,1.9L1.9-2.5L15.4-23.9z M22-17.9
			l1.9,2.5L2.5-1.9L22-17.9z M26.5-10.3l1,3L3-1L26.5-10.3z M28.3-1.6v3.1L3.1,0L28.3-1.6z M27.4,7.3l-1,3L3,1L27.4,7.3z M23.9,15.4
			L22,17.9L2.5,1.9L23.9,15.4z M17.9,22l-2.5,1.9L1.9,2.5L17.9,22z M10.3,26.5l-3,1L1,3L10.3,26.5z"/>
	</g>
	<path class="st0" d="M9.4,0c0-5.2-4.2-9.4-9.4-9.4S-9.4-5.2-9.4,0c0,5.2,4.2,9.4,9.4,9.4S9.4,5.2,9.4,0z"/>
	<path class="st2" d="M-0.2,2.6l2.6-0.8C1.8-0.1,0.1-1.4-1.9-1.4c-2.6,0-4.6,2.1-4.6,4.6c0,2.6,2.1,4.6,4.6,4.6c2,0,3.8-1.3,4.4-3.2
		l-2.6-0.8c-0.3,0.7-1,1.2-1.8,1.2c-1,0-1.9-0.8-1.9-1.9c0-1,0.8-1.9,1.9-1.9C-1.1,1.4-0.5,1.9-0.2,2.6z M6.6-3.2
		c0-2.6-2.1-4.6-4.6-4.6c-2.6,0-4.6,2.1-4.6,4.6c0,0.6,0.1,1.1,0.3,1.6c0.1,0,0.3,0,0.4,0c2,0,3.8,1.2,4.5,3C4.8,1,6.6-0.9,6.6-3.2z
		 M3.8-3.2c0,1-0.8,1.8-1.8,1.8c-1,0-1.8-0.8-1.8-1.8c0-1,0.8-1.8,1.8-1.8C3-5.1,3.8-4.3,3.8-3.2z M0.8,3.7h0.3l0.5-0.9H1.4L1.3,3
		H0.7L0.7,2.8H0.4L0.8,3.7z M0.8,3.1h0.3L1,3.5L0.8,3.1z M1.8,3.7h0.4L2.7,3h0v0.6h0.3V2.8H2.5L2,3.4h0V2.8H1.8V3.7z M3.1,3.7h0.8
		c0.3,0,0.4-0.1,0.4-0.3V3.1c0-0.2-0.1-0.3-0.4-0.3H3.1V3.7z M3.4,3h0.5C4,3,4,3.1,4,3.2v0.1c0,0.1,0,0.2-0.2,0.2H3.4V3z"/>
	<g id="Nouveau_symbole_1_2_">
	</g>
</symbol>
<g>
	<path class="st0" d="M280.6,141.7c0,76.7-62.2,138.9-138.9,138.9C65,280.6,2.8,218.4,2.8,141.7C2.8,65,65,2.8,141.7,2.8
		C218.4,2.8,280.6,65,280.6,141.7z"/>
	<g>
		<defs>
			<path id="SVGID_3_" d="M263.3,141.7c0,67.1-54.4,121.5-121.5,121.5c-67.1,0-121.5-54.4-121.5-121.5S74.6,20.2,141.7,20.2
				C208.9,20.2,263.3,74.6,263.3,141.7z"/>
		</defs>
		<clipPath id="SVGID_4_">
			<use xlink:href="#SVGID_3_"  style="overflow:visible;"/>
		</clipPath>
		<g style="clip-path:url(#SVGID_4_);">
			
				<use xlink:href="#Nouveau_symbole_25"  width="56.7" height="56.7" x="-28.3" y="-28.3" transform="matrix(6.125 0 0 -6.125 141.7335 141.7357)" style="overflow:visible;"/>
		</g>
		<use xlink:href="#SVGID_3_"  style="overflow:visible;fill:none;stroke:#FFFFFF;stroke-width:0.5;stroke-miterlimit:10;"/>
	</g>
</g>
</svg>
