<svg version="1.1" id="Layer_1" xmlns="http://www.w3.org/2000/svg" xmlns:xlink="http://www.w3.org/1999/xlink" x="0" y="0" viewBox="0 0 283.5 283.5" xml:space="preserve"><style>.st0{fill:#1b2c5d}</style><symbol id="Nouveau_symbole_25" viewBox="-28.3 -28.3 56.7 56.7"><path class="st0" d="M28.3 0c0-15.7-12.7-28.3-28.3-28.3S-28.3-15.7-28.3 0c0 15.7 12.7 28.3 28.3 28.3S28.3 15.7 28.3 0z"/><defs><path id="SVGID_1_" d="M28.3 0c0-15.7-12.7-28.3-28.3-28.3S-28.3-15.7-28.3 0c0 15.7 12.7 28.3 28.3 28.3S28.3 15.7 28.3 0z"/></defs><clipPath id="SVGID_2_"><use xlink:href="#SVGID_1_" overflow="visible"/></clipPath><path d="M0 3.1l-1.6 25.2h3.2L0 3.1zm-7.3 24.3l-3-1L-1 3l-6.3 24.4zm-8.1-3.5l-2.5-1.9 16-19.5-13.5 21.4zm-6.6-6l-1.9-2.5L-2.5 1.9l-19.5 16zm-4.5-7.6l-1-3L-3 1l-23.5 9.3zm-1.8-8.7v-3.1L-3.1 0l-25.2 1.6zm.9-8.9l1-3L-3-1l-24.4-6.3zm3.5-8.1l1.9-2.5 19.5 16-21.4-13.5zm6-6.6l2.5-1.9L-1.9-2.5l-16-19.5zm7.6-4.5l3-1L-1-3l-9.3-23.5zm8.7-1.8h3.2L0-3.1l-1.6-25.2zm8.9.9l3 1L1-3l6.3-24.4zm8.1 3.5l2.5 1.9-16 19.5 13.5-21.4zm6.6 6l1.9 2.5L2.5-1.9l19.5-16zm4.5 7.6l1 3L3-1l23.5-9.3zm1.8 8.7v3.1L3.1 0l25.2-1.6zm-.9 8.9l-1 3L3 1l24.4 6.3zm-3.5 8.1L22 17.9 2.5 1.9l21.4 13.5zm-6 6.6l-2.5 1.9L1.9 2.5l16 19.5zm-7.6 4.5l-3 1L1 3l9.3 23.5z" clip-path="url(#SVGID_2_)" fill="#657695"/><path class="st0" d="M9.4 0c0-5.2-4.2-9.4-9.4-9.4S-9.4-5.2-9.4 0-5.2 9.4 0 9.4 9.4 5.2 9.4 0z"/><path d="M-.2 2.6l2.6-.8C1.8-.1.1-1.4-1.9-1.4c-2.6 0-4.6 2.1-4.6 4.6 0 2.6 2.1 4.6 4.6 4.6 2 0 3.8-1.3 4.4-3.2l-2.6-.8c-.3.7-1 1.2-1.8 1.2-1 0-1.9-.8-1.9-1.9 0-1 .8-1.9 1.9-1.9.8.2 1.4.7 1.7 1.4zm6.8-5.8c0-2.6-2.1-4.6-4.6-4.6-2.6 0-4.6 2.1-4.6 4.6 0 .6.1 1.1.3 1.6h.4c2 0 3.8 1.2 4.5 3 2.2-.4 4-2.3 4-4.6zm-2.8 0c0 1-.8 1.8-1.8 1.8S.2-2.2.2-3.2 1-5 2-5c1-.1 1.8.7 1.8 1.8zm-3 6.9h.3l.5-.9h-.2l-.1.2H.7v-.2H.4l.4.9zm0-.6h.3l-.1.4-.2-.4zm1 .6h.4l.5-.7v.6H3v-.8h-.5l-.5.6v-.6h-.2v.9zm1.3 0h.8c.3 0 .4-.1.4-.3v-.3c0-.2-.1-.3-.4-.3h-.8v.9zm.3-.7h.5c.1 0 .1.1.1.2v.1c0 .1 0 .2-.2.2h-.4V3z" fill="#fff"/></symbol><path class="st0" d="M280.6 141.7c0 76.7-62.2 138.9-138.9 138.9S2.8 218.4 2.8 141.7 65 2.8 141.7 2.8 280.6 65 280.6 141.7z"/><defs><path id="SVGID_3_" d="M263.3 141.7c0 67.1-54.4 121.5-121.5 121.5S20.3 208.8 20.3 141.7 74.6 20.2 141.7 20.2c67.2 0 121.6 54.4 121.6 121.5z"/></defs><clipPath id="SVGID_4_"><use xlink:href="#SVGID_3_" overflow="visible"/></clipPath><g clip-path="url(#SVGID_4_)"><use xlink:href="#Nouveau_symbole_25" width="56.7" height="56.7" x="-28.3" y="-28.3" transform="matrix(6.125 0 0 -6.125 141.733 141.736)" overflow="visible"/></g><use xlink:href="#SVGID_3_" overflow="visible" fill="none" stroke="#fff" stroke-width=".5" stroke-miterlimit="10"/></svg>