<svg version="1.1" id="Layer_1" xmlns="http://www.w3.org/2000/svg" xmlns:xlink="http://www.w3.org/1999/xlink" x="0" y="0" viewBox="0 0 283.5 283.5" xml:space="preserve"><style>.st0{fill:#b82837}</style><symbol id="Nouveau_symbole_26" viewBox="-25.5 -25.5 51 51"><circle class="st0" r="25.5"/><path d="M0 2.8l-1.4 22.7h2.8L0 2.8zm-6.5 21.9l-2.7-.9L-.8 2.7l-5.7 22zm-7.3-3.2l-2.3-1.7L-1.7 2.3l-12.1 19.2zm-6-5.4l-1.7-2.3L-2.3 1.7l-17.5 14.4zm-4-6.9l-.9-2.7 22-5.7-21.1 8.4zm-1.7-7.8v-2.8L-2.8 0l-22.7 1.4zm.8-7.9l.9-2.7L-2.7-.8l-22-5.7zm3.2-7.3l1.7-2.3L-2.3-1.7l-19.2-12.1zm5.4-6l2.3-1.7L-1.7-2.3l-14.4-17.5zm6.9-4l2.7-.9 5.7 22-8.4-21.1zm7.8-1.7h2.8L0-2.8l-1.4-22.7zm7.9.8l2.7.9L.9-2.7l5.6-22zm7.3 3.2l2.3 1.7L1.7-2.3l12.1-19.2zm6 5.4l1.7 2.3L2.3-1.7l17.5-14.4zm4 6.9l.9 2.7-22 5.7 21.1-8.4zm1.7 7.8v2.8L2.8 0l22.7-1.4zm-.8 7.9l-.9 2.7L2.7.9l22 5.6zm-3.2 7.3l-1.7 2.3L2.3 1.7l19.2 12.1zm-5.4 6l-2.3 1.7L1.7 2.3l14.4 17.5zm-6.9 4l-2.7.9-5.7-22 8.4 21.1z" fill="#d68f81"/><path class="st0" d="M8.5 0c0-4.7-3.8-8.5-8.5-8.5S-8.5-4.7-8.5 0-4.7 8.5 0 8.5 8.5 4.7 8.5 0z"/><path d="M-39.3 12735.1c-.1 0-.7.1-1.3.2-1.4.2-3 .6-4.1 1-.5.2-1 .3-1 .3s-.1-.2 0-.4c.1-.3.1-.3-.3-.3-.6.1-1.6.5-2.9 1.2-.7.4-1.4.7-1.4.6-.1 0-.1-.2-.1-.5l.1-.4-.4.2c-.8.5-1.6 1.1-3 2.1-1.4 1.1-2.8 2-4.4 2.8-1 .5-1.7 1.1-1.9 1.6-.1.2-.2.8-.2 1.2-.1.9-.1 1 1.2 4.4.5 1.3.8 1.9 1.1 2.3.5.7 1.9 1.7 3.1 2.3l.9.5v.5c0 .6.3 1 .8 1.4.4.3.8.4 3.2 1.2 1.3.4 2.1 1 3.3 2.5.5.6.6.7.8.6.4-.1.7 0 1.4.6s1.1.9 2.2 1.2c1.1.3 2.4 1.2 3.4 2.2 1 1.1 1.2 1.5 1.2 2.7 0 .8 0 1-.3 1.6-.8 1.7-1.7 2.1-4.9 2-1.6 0-1.7 0-1.7.2.1.3-.5.4-2.8.8-1.2.2-2.4.4-2.8.5-2.1.5-3 2-3 4.6 0 1.2.1 1.4.6 1.9.6.5 2 1.1 3.7 1.4 1.1.2 1.8-.7 2.1-2.5 0-.3.1-.6.2-.8.2-.6.7-.7 1.5-.3.6.4 1.2.4 3.4.5 1.9.1 2.8.3 3.1.6.2.2 0 .4-1.3 1.1-.9.5-1.1.7-1.1.9 0 .1 0 .3-.2.4-.9.6-3.8 1.9-5.4 2.3-1.4.4-1.3.3-1.2.5.2.2.1.3-.7.3-.8 0-2.2.2-3.3.5-1.4.4-3.1 2.8-3.5 5.1-.3 1.5.2 2.7 1.4 3.9.8.7.8.8 1.2 1.2.4.5 1 .7 1.5.6.6-.1.7-.3.7-1.4v-1l.4.3c.8.6 1.7.2 2.1-.8.3-.6.2-1-.1-1.5-.2-.2-.4-.5-.5-.6-.2-.3-.2-.9 0-1 .2-.1.7-.1 1.4.1.6.2.8.2 2.2.2 1.4 0 1.5 0 1.4.1 0 .1-.1.4-.1.6v.5l.4-.1c.6-.1 2.8-.1 3 0 .1.1.1.2 0 .4-.2.3-.2.4 0 .5.2.2.8.2 2.3-.4 1.2-.4 2.5-.7 2.5-.5 0 0-.2.3-.5.6s-.5.6-.5.6c0 .4.8.4 2.5 0 .5-.2 1.1-.2 1.1-.2.1.1.2.2.2.5v.5s.2-.1.3-.1c.3-.1 2.4-.7 2.4-.7s-.1.3-.1.7c-.1.5-.1 1-.1 2.1.1 1.3.1 1.6.2 1.4.2-.2.6.4.9 1.2.2.5.4 1.2.6 1.6.3.7.5.9.5.6 0-.1.1-.1.2-.1.2 0 .4.3.8 1.1.8 1.6 2 3.1 2.8 3.4.2.1.3.1.5-.2l.2-.3 1.2 1.1c.7.7 1.5 1.3 2 1.6.4.3.8.5.9.6.2.3.2.8-.2 2-.2.6-.5 2-.7 3.1-.2 1.1-.4 2.2-.5 2.3l-.1.2-3.2-.1c-1.3 0-2.5-.3-3.8-.4-1.5 0-3.4.6-4.8 1-.7.2-1.5.4-2 1s-.6 1.6.1 2c-.8.4-1.5.9-2.2 1.5h2.2c-1.2.3-2.3 1-3 2 6.9-.3 13.9-.6 20.8-.9.4.6.7 1.4.8 2.1 1 .1 1.8.9 1.9 1.9-2.5.4-5 .3-7.5-.2-1.9-.4-3.8-1.1-5.8-1-3.3.1-6.2 2.1-8.9 4 1.4.2 2.8.2 4.1-.1-1.7.7-3.2 1.7-4.4 3 1.3-.3 2.7-.4 4-.3-.8 0-1 1.2-.4 1.7s1.4.6 2.1.6c6.8-.1 13.6-2.1 20.3-1 1.6.3 3.3.7 4.9.5 1.6-.3 3.3-1.5 3.3-3.2 0-.6-.2-1.2-.5-1.7-.6-1.2-1.7-2.2-3-2.7 2.5 1.5 5 3.1 7.4 4.6.2-.3.3-.6.5-.9 1.7.9 3.7 1.4 5.7 1.4-.3-.3-.5-.6-.8-.9 2.3 1 5.1 1 7.5-.1-.8-.4-1.8-.5-2.7-.5 2.3-.5 4.7-1 7-1.5-.5-.1-1-.5-1.2-1 1.7-.3 3.4-.5 5.1-.8.4-.1.9-.1 1.3 0 .4.2.8.5 1.1.9 1.4 1.8 2.1 4.1 3.3 6 1.2 1.9 3 3.4 4.2 5.3 1.8 3 1.9 6.7 3 10 .3.9.7 1.8 1 2.7.6 2.4-.3 4.9.4 7.2.3 1 1 2.4 1.6 3.3 2.5 3.9 6.4 5.9 10.9 5.7 2.8-.1 4.6-.8 6.3-2.4 1.6-1.6 2.8-3.9 3.9-7.5.5-1.6.7-2.8.9-4.2.1-.6.1-1.4.2-1.7.1-.6-.1-4.3-.3-5.6-.8-5.6-2.6-10.9-4.8-13.9-1.2-1.7-3.4-3.9-4.9-5-2.8-2.1-4.8-3-10-4.3-1.4-.3-2.9-.8-3.5-1-1.1-.4-3.3-1.4-3.4-1.6-.1-.1-.2-.6-.4-1.1-.3-1.2-.3-1.5.6-1.5.3 0 .3 0 .2-.4-.1-.8-.3-2.4-.3-3.3 0-1.1.2-1.4.8-.9l.3.2.1-.5c.1-.3.1-1.5.1-2.7v-2.2h.6l-.1-.9c0-.5-.1-1.7-.2-2.6-.1-.9-.1-1.8-.1-1.9.1-.1.1-.1.4.1l.3.2.1-.8c.1-.8-.1-2.2-.2-2.9-.1-.2-.1-.5-.1-.8v-.4l.4.1.4.1-.1-.4c-.2-1.3-.3-2.8-.3-3.1 0-.3.1-.4.3-.4.2 0 .3-.1.3-.1-.1-.6-.7-2.5-.9-3.1-.4-1-.4-1.1-.3-1.1.2 0 .9.4 1 .5.1.2.2 0 .1-.4-.2-.6-1-2.2-1.5-3.1-.7-1.1-.7-1.1-.2-1.1h.4l-.4-.8c-.2-.5-.8-1.6-1.4-2.5-1.1-1.8-1.1-2-.5-1.9.2 0 .4 0 .4-.1 0-.3-.6-1.3-1.4-2.5-.5-.7-.9-1.5-.9-1.6l-.1-.3.4.1h.4c0-.2-1.9-3.1-2.7-4.1-.6-.8-.7-1-.4-1.2.2-.1.1-.2-.3-.7-.2-.3-1.2-1.4-2.2-2.4-1.9-2-2.3-2.4-2.3-2.6 0-.1.1-.1.2-.1.4 0 .2-.3-.9-1.2-1.1-.9-2.6-2-3.4-2.4-.3-.2-.6-.4-.7-.4-.1-.1-.1-.2.2-.3l.3-.1-.5-.3c-1.1-.7-3.5-1.7-6.5-2.6-1.6-.5-2-.8-1.8-1 .1-.1.4-.3.7-.4.3-.1.6-.2.6-.3 0-.1-1.6-.6-4.2-1.2-3.2-.8-4-1-4-1.2 0-.2.3-.3.8-.4.3-.1.5-.2.6-.2.2-.2-3.3-1-6.4-1.4-.9-.1-1.6-.3-1.7-.3-.2-.1.2-.5.6-.7.2-.1.3-.2.3-.2 0-.2-4.9-1.2-6.5-1.4-.4 0-.8-.1-.9-.2-.2-.1-.2-.2.2-.8 0 0-.3-.1-.7-.1-1.4-.1-4.7-1.2-6.2-2-.4-.2-1.5-1-2.4-1.7-1.5-1.2-1.8-1.4-1.8-1.7-.1-.5-.4-.8-1.3-1.2-.7-.4-3-1.3-3.2-1.3l-.6-.2c-.5-.2-.5-.2-.3-.4s.1-.4-.4-.6c-2-.8-6.1-1.2-9.3-.9-2.4.3-2.6.3-2.7.2-.1-.1-.1-.2-.1-.3 0-.1-.1-.1-.4-.1-.7.3-1 .3-1.1.3z" fill="#fff" transform="matrix(.1 0 0 -.1 0 1280)"/></symbol><path class="st0" d="M280.6 141.7c0 76.7-62.2 138.9-138.9 138.9S2.8 218.4 2.8 141.7 65 2.8 141.7 2.8 280.6 65 280.6 141.7z"/><defs><path id="SVGID_1_" d="M263.3 141.7c0 67.1-54.4 121.5-121.5 121.5S20.3 208.8 20.3 141.7 74.7 20.2 141.8 20.2s121.5 54.4 121.5 121.5z"/></defs><clipPath id="SVGID_2_"><use xlink:href="#SVGID_1_" overflow="visible"/></clipPath><g clip-path="url(#SVGID_2_)"><use xlink:href="#Nouveau_symbole_26" width="51" height="51" x="-25.5" y="-25.5" transform="matrix(6.8055 0 0 -6.8055 141.735 141.734)" overflow="visible"/></g><use xlink:href="#SVGID_1_" overflow="visible" fill="none" stroke="#fff" stroke-width=".5" stroke-miterlimit="10"/></svg>