<?xml version="1.0" encoding="utf-8"?>
<!-- Generator: Adobe Illustrator 25.0.1, SVG Export Plug-In . SVG Version: 6.00 Build 0)  -->
<svg version="1.1" id="Layer_1" xmlns="http://www.w3.org/2000/svg" xmlns:xlink="http://www.w3.org/1999/xlink" x="0px" y="0px"
	 viewBox="0 0 283.5 283.5" style="enable-background:new 0 0 283.5 283.5;" xml:space="preserve">
<style type="text/css">
	.st0{fill:#B82837;}
	.st1{fill:#D68F81;}
	.st2{fill:#FFFFFF;}
</style>
<symbol  id="Nouveau_symbole_26" viewBox="-25.5 -25.5 51 51">
	<circle class="st0" cx="0" cy="0" r="25.5"/>
	<path class="st1" d="M0,2.8l-1.4,22.7h2.8L0,2.8z M-6.5,24.7l-2.7-0.9l8.4-21.1L-6.5,24.7z M-13.8,21.5l-2.3-1.7L-1.7,2.3
		L-13.8,21.5z M-19.8,16.1l-1.7-2.3L-2.3,1.7L-19.8,16.1z M-23.8,9.2l-0.9-2.7l22-5.7L-23.8,9.2z M-25.5,1.4v-2.8L-2.8,0L-25.5,1.4z
		 M-24.7-6.5l0.9-2.7l21.1,8.4L-24.7-6.5z M-21.5-13.8l1.7-2.3L-2.3-1.7L-21.5-13.8z M-16.1-19.8l2.3-1.7L-1.7-2.3L-16.1-19.8z
		 M-9.2-23.8l2.7-0.9l5.7,22L-9.2-23.8z M-1.4-25.5h2.8L0-2.8L-1.4-25.5z M6.5-24.7l2.7,0.9L0.9-2.7L6.5-24.7z M13.8-21.5l2.3,1.7
		L1.7-2.3L13.8-21.5z M19.8-16.1l1.7,2.3L2.3-1.7L19.8-16.1z M23.8-9.2l0.9,2.7l-22,5.7L23.8-9.2z M25.5-1.4v2.8L2.8,0L25.5-1.4z
		 M24.7,6.5l-0.9,2.7L2.7,0.9L24.7,6.5z M21.5,13.8l-1.7,2.3L2.3,1.7L21.5,13.8z M16.1,19.8l-2.3,1.7L1.7,2.3L16.1,19.8z M9.2,23.8
		l-2.7,0.9l-5.7-22L9.2,23.8z"/>
	<path class="st0" d="M8.5,0c0-4.7-3.8-8.5-8.5-8.5c-4.7,0-8.5,3.8-8.5,8.5c0,4.7,3.8,8.5,8.5,8.5C4.7,8.5,8.5,4.7,8.5,0z"/>
	<g transform="translate(0.000000,1280.000000) scale(0.100000,-0.100000)">
		<path class="st2" d="M-39.3,12735.1c-0.1,0-0.7,0.1-1.3,0.2c-1.4,0.2-3,0.6-4.1,1c-0.5,0.2-1,0.3-1,0.3s-0.1-0.2,0-0.4
			c0.1-0.3,0.1-0.3-0.3-0.3c-0.6,0.1-1.6,0.5-2.9,1.2c-0.7,0.4-1.4,0.7-1.4,0.6c-0.1,0-0.1-0.2-0.1-0.5l0.1-0.4l-0.4,0.2
			c-0.8,0.5-1.6,1.1-3,2.1c-1.4,1.1-2.8,2-4.4,2.8c-1,0.5-1.7,1.1-1.9,1.6c-0.1,0.2-0.2,0.8-0.2,1.2c-0.1,0.9-0.1,1,1.2,4.4
			c0.5,1.3,0.8,1.9,1.1,2.3c0.5,0.7,1.9,1.7,3.1,2.3l0.9,0.5v0.5c0,0.6,0.3,1,0.8,1.4c0.4,0.3,0.8,0.4,3.2,1.2
			c1.3,0.4,2.1,1,3.3,2.5c0.5,0.6,0.6,0.7,0.8,0.6c0.4-0.1,0.7,0,1.4,0.6c0.7,0.6,1.1,0.9,2.2,1.2c1.1,0.3,2.4,1.2,3.4,2.2
			c1,1.1,1.2,1.5,1.2,2.7c0,0.8,0,1-0.3,1.6c-0.8,1.7-1.7,2.1-4.9,2c-1.6,0-1.7,0-1.7,0.2c0.1,0.3-0.5,0.4-2.8,0.8
			c-1.2,0.2-2.4,0.4-2.8,0.5c-2.1,0.5-3,2-3,4.6c0,1.2,0.1,1.4,0.6,1.9c0.6,0.5,2,1.1,3.7,1.4c1.1,0.2,1.8-0.7,2.1-2.5
			c0-0.3,0.1-0.6,0.2-0.8c0.2-0.6,0.7-0.7,1.5-0.3c0.6,0.4,1.2,0.4,3.4,0.5c1.9,0.1,2.8,0.3,3.1,0.6c0.2,0.2,0,0.4-1.3,1.1
			c-0.9,0.5-1.1,0.7-1.1,0.9c0,0.1,0,0.3-0.2,0.4c-0.9,0.6-3.8,1.9-5.4,2.3c-1.4,0.4-1.3,0.3-1.2,0.5c0.2,0.2,0.1,0.3-0.7,0.3
			c-0.8,0-2.2,0.2-3.3,0.5c-1.4,0.4-3.1,2.8-3.5,5.1c-0.3,1.5,0.2,2.7,1.4,3.9c0.8,0.7,0.8,0.8,1.2,1.2c0.4,0.5,1,0.7,1.5,0.6
			c0.6-0.1,0.7-0.3,0.7-1.4l0-1l0.4,0.3c0.8,0.6,1.7,0.2,2.1-0.8c0.3-0.6,0.2-1-0.1-1.5c-0.2-0.2-0.4-0.5-0.5-0.6
			c-0.2-0.3-0.2-0.9,0-1c0.2-0.1,0.7-0.1,1.4,0.1c0.6,0.2,0.8,0.2,2.2,0.2c1.4,0,1.5,0,1.4,0.1c0,0.1-0.1,0.4-0.1,0.6l0,0.5l0.4-0.1
			c0.6-0.1,2.8-0.1,3,0c0.1,0.1,0.1,0.2,0,0.4c-0.2,0.3-0.2,0.4,0,0.5c0.2,0.2,0.8,0.2,2.3-0.4c1.2-0.4,2.5-0.7,2.5-0.5
			c0,0-0.2,0.3-0.5,0.6c-0.3,0.3-0.5,0.6-0.5,0.6c0,0.4,0.8,0.4,2.5,0c0.5-0.2,1.1-0.2,1.1-0.2c0.1,0.1,0.2,0.2,0.2,0.5
			c0,0.3,0,0.5,0,0.5c0,0,0.2-0.1,0.3-0.1c0.3-0.1,2.4-0.7,2.4-0.7c0,0-0.1,0.3-0.1,0.7c-0.1,0.5-0.1,1-0.1,2.1
			c0.1,1.3,0.1,1.6,0.2,1.4c0.2-0.2,0.6,0.4,0.9,1.2c0.2,0.5,0.4,1.2,0.6,1.6c0.3,0.7,0.5,0.9,0.5,0.6c0-0.1,0.1-0.1,0.2-0.1
			c0.2,0,0.4,0.3,0.8,1.1c0.8,1.6,2,3.1,2.8,3.4c0.2,0.1,0.3,0.1,0.5-0.2l0.2-0.3l1.2,1.1c0.7,0.7,1.5,1.3,2,1.6
			c0.4,0.3,0.8,0.5,0.9,0.6c0.2,0.3,0.2,0.8-0.2,2c-0.2,0.6-0.5,2-0.7,3.1c-0.2,1.1-0.4,2.2-0.5,2.3l-0.1,0.2l-3.2-0.1
			c-1.3,0-2.5-0.3-3.8-0.4c-1.5,0-3.4,0.6-4.8,1c-0.7,0.2-1.5,0.4-2,1c-0.5,0.6-0.6,1.6,0.1,2c-0.8,0.4-1.5,0.9-2.2,1.5
			c0.7,0,1.4,0,2.2,0c-1.2,0.3-2.3,1-3,2c6.9-0.3,13.9-0.6,20.8-0.9c0.4,0.6,0.7,1.4,0.8,2.1c1,0.1,1.8,0.9,1.9,1.9
			c-2.5,0.4-5,0.3-7.5-0.2c-1.9-0.4-3.8-1.1-5.8-1c-3.3,0.1-6.2,2.1-8.9,4c1.4,0.2,2.8,0.2,4.1-0.1c-1.7,0.7-3.2,1.7-4.4,3
			c1.3-0.3,2.7-0.4,4-0.3c-0.8,0-1,1.2-0.4,1.7s1.4,0.6,2.1,0.6c6.8-0.1,13.6-2.1,20.3-1c1.6,0.3,3.3,0.7,4.9,0.5
			c1.6-0.3,3.3-1.5,3.3-3.2c0-0.6-0.2-1.2-0.5-1.7c-0.6-1.2-1.7-2.2-3-2.7c2.5,1.5,5,3.1,7.4,4.6c0.2-0.3,0.3-0.6,0.5-0.9
			c1.7,0.9,3.7,1.4,5.7,1.4c-0.3-0.3-0.5-0.6-0.8-0.9c2.3,1,5.1,1,7.5-0.1c-0.8-0.4-1.8-0.5-2.7-0.5c2.3-0.5,4.7-1,7-1.5
			c-0.5-0.1-1-0.5-1.2-1c1.7-0.3,3.4-0.5,5.1-0.8c0.4-0.1,0.9-0.1,1.3,0c0.4,0.2,0.8,0.5,1.1,0.9c1.4,1.8,2.1,4.1,3.3,6
			c1.2,1.9,3,3.4,4.2,5.3c1.8,3,1.9,6.7,3,10c0.3,0.9,0.7,1.8,1,2.7c0.6,2.4-0.3,4.9,0.4,7.2c0.3,1,1,2.4,1.6,3.3
			c2.5,3.9,6.4,5.9,10.9,5.7c2.8-0.1,4.6-0.8,6.3-2.4c1.6-1.6,2.8-3.9,3.9-7.5c0.5-1.6,0.7-2.8,0.9-4.2c0.1-0.6,0.1-1.4,0.2-1.7
			c0.1-0.6-0.1-4.3-0.3-5.6c-0.8-5.6-2.6-10.9-4.8-13.9c-1.2-1.7-3.4-3.9-4.9-5c-2.8-2.1-4.8-3-10-4.3c-1.4-0.3-2.9-0.8-3.5-1
			c-1.1-0.4-3.3-1.4-3.4-1.6c-0.1-0.1-0.2-0.6-0.4-1.1c-0.3-1.2-0.3-1.5,0.6-1.5c0.3,0,0.3,0,0.2-0.4c-0.1-0.8-0.3-2.4-0.3-3.3
			c0-1.1,0.2-1.4,0.8-0.9l0.3,0.2l0.1-0.5c0.1-0.3,0.1-1.5,0.1-2.7v-2.2l0.3,0l0.3,0l-0.1-0.9c0-0.5-0.1-1.7-0.2-2.6
			c-0.1-0.9-0.1-1.8-0.1-1.9c0.1-0.1,0.1-0.1,0.4,0.1l0.3,0.2l0.1-0.8c0.1-0.8-0.1-2.2-0.2-2.9c-0.1-0.2-0.1-0.5-0.1-0.8v-0.4
			l0.4,0.1l0.4,0.1l-0.1-0.4c-0.2-1.3-0.3-2.8-0.3-3.1c0-0.3,0.1-0.4,0.3-0.4c0.2,0,0.3-0.1,0.3-0.1c-0.1-0.6-0.7-2.5-0.9-3.1
			c-0.4-1-0.4-1.1-0.3-1.1c0.2,0,0.9,0.4,1,0.5c0.1,0.2,0.2,0,0.1-0.4c-0.2-0.6-1-2.2-1.5-3.1c-0.7-1.1-0.7-1.1-0.2-1.1l0.4,0
			l-0.4-0.8c-0.2-0.5-0.8-1.6-1.4-2.5c-1.1-1.8-1.1-2-0.5-1.9c0.2,0,0.4,0,0.4-0.1c0-0.3-0.6-1.3-1.4-2.5c-0.5-0.7-0.9-1.5-0.9-1.6
			l-0.1-0.3l0.4,0.1c0.2,0,0.4,0,0.4,0c0-0.2-1.9-3.1-2.7-4.1c-0.6-0.8-0.7-1-0.4-1.2c0.2-0.1,0.1-0.2-0.3-0.7
			c-0.2-0.3-1.2-1.4-2.2-2.4c-1.9-2-2.3-2.4-2.3-2.6c0-0.1,0.1-0.1,0.2-0.1c0.4,0,0.2-0.3-0.9-1.2c-1.1-0.9-2.6-2-3.4-2.4
			c-0.3-0.2-0.6-0.4-0.7-0.4c-0.1-0.1-0.1-0.2,0.2-0.3l0.3-0.1l-0.5-0.3c-1.1-0.7-3.5-1.7-6.5-2.6c-1.6-0.5-2-0.8-1.8-1
			c0.1-0.1,0.4-0.3,0.7-0.4c0.3-0.1,0.6-0.2,0.6-0.3c0-0.1-1.6-0.6-4.2-1.2c-3.2-0.8-4-1-4-1.2c0-0.2,0.3-0.3,0.8-0.4
			c0.3-0.1,0.5-0.2,0.6-0.2c0.2-0.2-3.3-1-6.4-1.4c-0.9-0.1-1.6-0.3-1.7-0.3c-0.2-0.1,0.2-0.5,0.6-0.7c0.2-0.1,0.3-0.2,0.3-0.2
			c0-0.2-4.9-1.2-6.5-1.4c-0.4,0-0.8-0.1-0.9-0.2c-0.2-0.1-0.2-0.2,0.2-0.8c0,0-0.3-0.1-0.7-0.1c-1.4-0.1-4.7-1.2-6.2-2
			c-0.4-0.2-1.5-1-2.4-1.7c-1.5-1.2-1.8-1.4-1.8-1.7c-0.1-0.5-0.4-0.8-1.3-1.2c-0.7-0.4-3-1.3-3.2-1.3c0,0-0.3-0.1-0.6-0.2
			c-0.5-0.2-0.5-0.2-0.3-0.4c0.2-0.2,0.1-0.4-0.4-0.6c-2-0.8-6.1-1.2-9.3-0.9c-2.4,0.3-2.6,0.3-2.7,0.2c-0.1-0.1-0.1-0.2-0.1-0.3
			c0-0.1-0.1-0.1-0.4-0.1C-38.9,12735.1-39.2,12735.1-39.3,12735.1z"/>
	</g>
</symbol>
<g>
	<path class="st0" d="M280.6,141.7c0,76.7-62.2,138.9-138.9,138.9C65,280.6,2.8,218.4,2.8,141.7C2.8,65,65,2.8,141.7,2.8
		C218.4,2.8,280.6,65,280.6,141.7z"/>
	<g>
		<defs>
			<path id="SVGID_1_" d="M263.3,141.7c0,67.1-54.4,121.5-121.5,121.5c-67.1,0-121.5-54.4-121.5-121.5
				c0-67.1,54.4-121.5,121.5-121.5C208.9,20.2,263.3,74.6,263.3,141.7z"/>
		</defs>
		<clipPath id="SVGID_2_">
			<use xlink:href="#SVGID_1_"  style="overflow:visible;"/>
		</clipPath>
		<g style="clip-path:url(#SVGID_2_);">
			
				<use xlink:href="#Nouveau_symbole_26"  width="51" height="51" x="-25.5" y="-25.5" transform="matrix(6.8055 0 0 -6.8055 141.735 141.7341)" style="overflow:visible;"/>
		</g>
		<use xlink:href="#SVGID_1_"  style="overflow:visible;fill:none;stroke:#FFFFFF;stroke-width:0.5;stroke-miterlimit:10;"/>
	</g>
</g>
</svg>
