<?xml version="1.0" encoding="utf-8"?>
<!-- Generator: Adobe Illustrator 25.0.1, SVG Export Plug-In . SVG Version: 6.00 Build 0)  -->
<svg version="1.1" id="Layer_1" xmlns="http://www.w3.org/2000/svg" xmlns:xlink="http://www.w3.org/1999/xlink" x="0px" y="0px"
	 viewBox="0 0 283.5 283.5" style="enable-background:new 0 0 283.5 283.5;" xml:space="preserve">
<style type="text/css">
	.st0{fill:#FFED2B;}
	.st1{fill:#71CFEB;}
</style>
<symbol  id="Nouveau_symbole_18" viewBox="-25.5 -25.5 51 51">
	<circle class="st0" cx="0" cy="0" r="25.5"/>
	<path class="st1" d="M8,8.5v15.7c-2.5,0.8-5.2,1.3-8,1.3s-5.5-0.5-8-1.3V8.5H8z"/>
	<path class="st1" d="M-8-8.5v-15.7c2.5-0.8,5.2-1.3,8-1.3s5.5,0.5,8,1.3v15.7H-8z"/>
	<g>
	</g>
	<g>
		<path d="M-0.4-2.4c-0.2-2.2-1.5-3.5-3.2-3.5c-1.9,0-3.7,1.7-3.7,6c0,3.8,1.5,5.6,3.1,5.6c0.6,0,1.1-0.3,1.6-0.9h0v0.8h1.8V1.7
			h-1.8c-0.1,1.4-0.4,2.1-1,2.1c-0.7,0-0.8-0.7-0.8-3.7C-4.3-3.2-4.2-4-3.4-4c0.6,0,0.8,0.6,1,2.3L-0.4-2.4z"/>
		<path d="M0.6-2.1h1.7c0-1.4,0.3-2,1-2c0.6,0,0.8,0.4,0.8,1.1c0,2-3.6,2.8-3.6,5.9c0,1.6,1,2.7,2.3,2.7c0.9,0,1.2-0.3,1.8-0.8v0.7
			h1.7V2.1H4.6c0,1.3-0.3,1.8-1,1.8c-0.4,0-0.7-0.3-0.7-0.8c0-0.5,0.2-0.9,0.6-1.2C3.8,1.5,4.3,1.1,5,0.5c1.1-1.1,1.6-2.1,1.6-3.3
			c0-1.7-1.1-3-2.5-3C3.3-5.8,2.8-5.6,2.2-5v-0.7H0.6V-2.1z"/>
	</g>
</symbol>
<g>
	<defs>
		<path id="SVGID_1_" d="M280.6,141.7c0,76.7-62.2,138.9-138.9,138.9C65,280.6,2.8,218.4,2.8,141.7C2.8,65,65,2.8,141.7,2.8
			C218.4,2.8,280.6,65,280.6,141.7z"/>
	</defs>
	<clipPath id="SVGID_2_">
		<use xlink:href="#SVGID_1_"  style="overflow:visible;"/>
	</clipPath>
	<g style="clip-path:url(#SVGID_2_);">
		
			<use xlink:href="#Nouveau_symbole_18"  width="51" height="51" x="-25.5" y="-25.5" transform="matrix(7.7777 0 0 -7.7777 139.5192 139.7789)" style="overflow:visible;"/>
	</g>
	<use xlink:href="#SVGID_1_"  style="overflow:visible;fill:none;stroke:#F3EEBF;stroke-miterlimit:10;"/>
</g>
</svg>
