<svg xmlns="http://www.w3.org/2000/svg" xmlns:xlink="http://www.w3.org/1999/xlink" viewBox="0 0 283.5 283.5"><symbol id="c" viewBox="-25.5 -25.5 51 51"><circle r="25.5" fill="#ffed2b"/><path d="M8 8.5v15.7c-2.5.8-5.2 1.3-8 1.3s-5.5-.5-8-1.3V8.5H8zm-16-17v-15.7c2.5-.8 5.2-1.3 8-1.3s5.5.5 8 1.3v15.7H-8z" fill="#71cfeb"/><path d="M-.4-2.4c-.2-2.2-1.5-3.5-3.2-3.5-1.9 0-3.7 1.7-3.7 6 0 3.8 1.5 5.6 3.1 5.6.6 0 1.1-.3 1.6-.9v.8h1.8V1.7h-1.8c-.1 1.4-.4 2.1-1 2.1-.7 0-.8-.7-.8-3.7.1-3.3.2-4.1 1-4.1.6 0 .8.6 1 2.3l2-.7zm1 .3h1.7c0-1.4.3-2 1-2 .6 0 .8.4.8 1.1C4.1-1 .5-.2.5 2.9c0 1.6 1 2.7 2.3 2.7.9 0 1.2-.3 1.8-.8v.7h1.7V2.1H4.6c0 1.3-.3 1.8-1 1.8-.4 0-.7-.3-.7-.8s.2-.9.6-1.2c.3-.4.8-.8 1.5-1.4C6.1-.6 6.6-1.6 6.6-2.8c0-1.7-1.1-3-2.5-3-.8 0-1.3.2-1.9.8v-.7H.6v3.6z"/></symbol><defs><path id="a" d="M280.6 141.7c0 76.7-62.2 138.9-138.9 138.9S2.8 218.4 2.8 141.7 65 2.8 141.7 2.8 280.6 65 280.6 141.7z"/></defs><clipPath id="b"><use xlink:href="#a" overflow="visible"/></clipPath><g clip-path="url(#b)"><use xlink:href="#c" width="51" height="51" x="-25.5" y="-25.5" transform="matrix(7.7777 0 0 -7.7777 139.52 139.779)" overflow="visible"/></g><use xlink:href="#a" overflow="visible" fill="none" stroke="#f3eebf" stroke-miterlimit="10"/></svg>