<?xml version="1.0" encoding="utf-8"?>
<!-- Generator: Adobe Illustrator 25.0.1, SVG Export Plug-In . SVG Version: 6.00 Build 0)  -->
<svg version="1.1" id="Layer_1" xmlns="http://www.w3.org/2000/svg" xmlns:xlink="http://www.w3.org/1999/xlink" x="0px" y="0px"
	 viewBox="0 0 283.5 283.5" style="enable-background:new 0 0 283.5 283.5;" xml:space="preserve">
<style type="text/css">
	.st0{fill:#FFED2B;}
	.st1{fill:#00B8EC;}
</style>
<symbol  id="Nouveau_symbole_16" viewBox="-25.5 -25.5 51 51">
	<g>
		<path class="st0" d="M25.5,0c0-14.1-11.4-25.5-25.5-25.5c-14.1,0-25.5,11.4-25.5,25.5c0,14.1,11.4,25.5,25.5,25.5
			C14.1,25.5,25.5,14.1,25.5,0z"/>
	</g>
	<path class="st1" d="M-4.3,7.3L-19,17c4.7,5.2,11.5,8.5,19,8.5c7.6,0,14.3-3.3,19-8.5L4.3,7.3L5,18.7L-0.1,8.5L-5,18.3L-4.3,7.3z
		 M0-25.5c7.6,0,14.3,3.3,19,8.5L4.3-7.3L5-18.7L-0.1-8.5L-5-18.3l0.7,11L-19-17C-14.3-22.2-7.6-25.5,0-25.5z"/>
	<g>
		<path d="M-1.5-2.3c-0.2-1.9-1.3-3.1-2.8-3.1c-1.7,0-3.2,1.5-3.2,5.2c0,3.3,1.3,4.9,2.7,4.9c0.5,0,1-0.2,1.4-0.8h0v0.7h1.6V1.3
			h-1.6c-0.1,1.2-0.4,1.8-0.9,1.8C-4.9,3.1-5,2.5-5-0.1C-5-3-4.8-3.7-4.1-3.7c0.5,0,0.7,0.6,0.8,2L-1.5-2.3z"/>
		<path d="M-0.4,3.1h-0.7v1.5h3.6V3.1H1.8l1.1-4.7h0L4,3.1H3.2v1.5h3.4V3.1H5.9L3.7-5.4H1.8L-0.4,3.1z"/>
	</g>
</symbol>
<g>
	<defs>
		<path id="SVGID_1_" d="M280.6,141.7c0,76.7-62.2,138.9-138.9,138.9C65,280.6,2.8,218.4,2.8,141.7C2.8,65,65,2.8,141.7,2.8
			C218.4,2.8,280.6,65,280.6,141.7z"/>
	</defs>
	<clipPath id="SVGID_2_">
		<use xlink:href="#SVGID_1_"  style="overflow:visible;"/>
	</clipPath>
	<g style="clip-path:url(#SVGID_2_);">
		
			<use xlink:href="#Nouveau_symbole_16"  width="51" height="51" x="-25.5" y="-25.5" transform="matrix(7.7777 0 0 -7.7777 139.5175 139.7789)" style="overflow:visible;"/>
	</g>
	<use xlink:href="#SVGID_1_"  style="overflow:visible;fill:none;stroke:#F3EEBF;stroke-miterlimit:10;"/>
</g>
</svg>
