<svg xmlns="http://www.w3.org/2000/svg" xmlns:xlink="http://www.w3.org/1999/xlink" viewBox="0 0 283.5 283.5"><symbol id="c" viewBox="-25.5 -25.5 51 51"><path d="M25.5 0c0-14.1-11.4-25.5-25.5-25.5S-25.5-14.1-25.5 0-14.1 25.5 0 25.5 25.5 14.1 25.5 0z" fill="#ffed2b"/><path d="M-4.3 7.3L-19 17c4.7 5.2 11.5 8.5 19 8.5 7.6 0 14.3-3.3 19-8.5L4.3 7.3 5 18.7-.1 8.5-5 18.3l.7-11zM0-25.5c7.6 0 14.3 3.3 19 8.5L4.3-7.3 5-18.7-.1-8.5-5-18.3l.7 11L-19-17c4.7-5.2 11.4-8.5 19-8.5z" fill="#00b8ec"/><path d="M-1.5-2.3c-.2-1.9-1.3-3.1-2.8-3.1-1.7 0-3.2 1.5-3.2 5.2 0 3.3 1.3 4.9 2.7 4.9.5 0 1-.2 1.4-.8v.7h1.6V1.3h-1.6c-.1 1.2-.4 1.8-.9 1.8-.6 0-.7-.6-.7-3.2 0-2.9.2-3.6.9-3.6.5 0 .7.6.8 2l1.8-.6zM-.4 3.1h-.7v1.5h3.6V3.1h-.7l1.1-4.7L4 3.1h-.8v1.5h3.4V3.1h-.7L3.7-5.4H1.8L-.4 3.1z"/></symbol><defs><path id="a" d="M280.6 141.7c0 76.7-62.2 138.9-138.9 138.9S2.8 218.4 2.8 141.7 65 2.8 141.7 2.8 280.6 65 280.6 141.7z"/></defs><clipPath id="b"><use xlink:href="#a" overflow="visible"/></clipPath><g clip-path="url(#b)"><use xlink:href="#c" width="51" height="51" x="-25.5" y="-25.5" transform="matrix(7.7777 0 0 -7.7777 139.518 139.779)" overflow="visible"/></g><use xlink:href="#a" overflow="visible" fill="none" stroke="#f3eebf" stroke-miterlimit="10"/></svg>