<svg version="1.1" id="Layer_1" xmlns="http://www.w3.org/2000/svg" xmlns:xlink="http://www.w3.org/1999/xlink" x="0" y="0" viewBox="0 0 283.5 283.5" xml:space="preserve"><style>.st0{fill:#984d2d}.st4{fill:#ffde2f}</style><symbol id="Nouveau_symbole_5" viewBox="-25.5 -25.5 51 51"><circle class="st0" r="25.5"/><path d="M0 2.8l-1.4 22.7h2.8L0 2.8zm-6.5 21.9l-2.7-.9L-.8 2.7l-5.7 22zm-7.3-3.2l-2.3-1.7L-1.7 2.3l-12.1 19.2zm-6-5.4l-1.7-2.3L-2.3 1.7l-17.5 14.4zm-4-6.9l-.9-2.7 22-5.7-21.1 8.4zm-1.7-7.8v-2.8L-2.8 0l-22.7 1.4zm.8-7.9l.9-2.7L-2.7-.8l-22-5.7zm3.2-7.3l1.7-2.3L-2.3-1.7l-19.2-12.1zm5.4-6l2.3-1.7L-1.7-2.3l-14.4-17.5zm6.9-4l2.7-.9 5.7 22-8.4-21.1zm7.8-1.7h2.8L0-2.8l-1.4-22.7zm7.9.8l2.7.9L.9-2.7l5.6-22zm7.3 3.2l2.3 1.7L1.7-2.3l12.1-19.2zm6 5.4l1.7 2.3L2.3-1.7l17.5-14.4zm4 6.9l.9 2.7-22 5.7 21.1-8.4zm1.7 7.8v2.8L2.8 0l22.7-1.4zm-.8 7.9l-.9 2.7L2.7.9l22 5.6zm-3.2 7.3l-1.7 2.3L2.3 1.7l19.2 12.1zm-5.4 6l-2.3 1.7L1.7 2.3l14.4 17.5zm-6.9 4l-2.7.9-5.7-22 8.4 21.1z" fill="#c3967b"/><path d="M9.9 0c0-5.5-4.4-9.9-9.9-9.9S-9.9-5.5-9.9 0-5.5 9.9 0 9.9 9.9 5.5 9.9 0z" fill="#fff"/><path d="M5.3 1.6V2c0 .1 0 .1.1.1.2.1.5.2.7.3.1 0 .1 0 .1-.1s0-.2.2-.2.4 0 .5.1l.6.3v-.2c-.1-.1-.3-.3-.4-.6-.1-.1-.1-.2 0-.3 0 0 .1-.1.1-.2-.1 0-.1-.1-.2-.2 0-.2-.1-.3-.2-.5 0-.1.1-.3.2-.3h.5s0-.1-.1-.1c-.3-.2-.7-.5-1-.7-.3-.2-.3-.7 0-.9.3-.3.5-.5.9-.5h.3s.1 0 .1-.1l-.1-.1c-.3-.1-.5-.2-.8-.3-.2-.1-.4-.1-.5-.3-.1-.1-.1-.2 0-.3.1-.1.1-.1 0-.2-.3-.1-.6-.2-.9-.4-.1-.1-.1 0-.1.1v5.2zM-.3 4.2H-3c-.2 0-.2 0-.3.2.1.3 0 .6-.1.9v.2l.1-.1c.2-.2.4-.4.6-.7.1-.1.3-.3.5-.4.3-.1.7.1.8.4.1.3.1.6.1.9 0 .1 0 .2.2.1.3-.1.5 0 .6.3.2.3.2.7.3 1 0 .2.1.5.3.7 0-.1.1-.2.1-.2.1-.2.1-.4.2-.6.1-.2.1-.4.2-.6.1-.2.2-.4.4-.5h.2c.1 0 .2.1.3.1h.1c.1-.3-.1-.5 0-.8 0-.3.1-.5.3-.7 0 0 .1-.1.2-.1.2 0 .4 0 .5.2.3.3.7.5 1 .8 0 0 .1 0 .1.1v-.1c0-.3-.1-.6-.1-1l-.1-.1H-.3zM-5-2.4v-1c0-.1-.1-.2-.2-.1-.3 0-.5.1-.8.2-.1 0-.1.1-.1.2s0 .2-.1.2c-.3.2-.7.3-1 .5-.2.1-.3.1-.5.2.1 0 .1.1.2.1.2 0 .4.1.5.1.3.1.5.1.7.3.3.1.3.4.2.5-.1.2-.3.4-.4.6-.3.2-.5.4-.7.6l-.1.1c.1 0 .3.1.4.1.2 0 .3.2.2.4-.1.2-.3.4-.4.6-.1.1-.1.2 0 .2.1.1.1.3 0 .4-.1.2-.2.3-.3.4-.1.1-.2.2-.2.3.1 0 .1 0 .2-.1.3-.1.6-.3.9-.4h.3c.1 0 .2.1.2.2s0 .1.1.1c.2 0 .5-.2.8-.3 0 0 .1-.1.1-.2v-4.2zm4.7-3.2c-.2-.2-.5-.4-.7-.6-.1-.1-.3-.2-.4-.3-.1-.1-.1-.1-.2 0s-.2.1-.3.1c-.3-.1-.6-.1-.9-.2h-.3v.1c.1.4 0 .5-.2.5-.3 0-.6 0-.9-.1-.2 0-.4-.1-.6-.1h-.1s0 .1.1.1c.2.1.4.3.6.4.1.1.3.1.4.1h3.5c-.1 0-.1 0 0 0zM5-6.1h-.2c-.3.1-.7.1-1.1.1-.3 0-.4-.1-.4-.3v-.2h-.2c-.3.1-.5.2-.8.2-.2 0-.4 0-.5-.2-.1-.1-.1-.1-.1 0-.4.3-.8.6-1.1.8v.1h3.5c.2 0 .4 0 .6-.2 0 0 .2-.1.3-.3zm-4.8.3c0-.3-.1-.6-.1-1C0-7 0-7.3-.1-7.5c0-.1-.1-.2-.2-.2 0 0-.1 0-.1.1v.2l.3.9c.1.2.1.5.2.8 0 0 0 .1.1.1 0 0 0-.1.1-.1-.1 0-.1-.1-.1-.1z" fill="#e1413f"/><path d="M-5.2-5.7H5.3v10H-5.2z"/><circle class="st4" cx=".1" cy="2.6" r=".6"/><circle class="st4" cx="-1.7" cy="2.6" r=".6"/><path class="st4" d="M-2.7 2.6c0-.4-.3-.6-.6-.6s-.7.2-.7.6.3.6.6.6.7-.3.7-.6zm3.8 0c0-.4.3-.6.6-.6.4 0 .6.3.6.6s-.2.6-.5.6c-.4 0-.7-.3-.7-.6zm1.8 0c0-.4.3-.6.6-.6s.6.3.6.6-.2.6-.6.6-.6-.3-.6-.6z"/><circle class="st4" cx=".1" cy=".6" r=".6"/><circle class="st4" cx="-1.7" cy=".6" r=".6"/><path class="st4" d="M-2.7.6c0-.4-.3-.6-.6-.6s-.7.2-.7.6.3.6.6.6.7-.3.7-.6zm3.8 0c0-.4.3-.6.6-.6.4 0 .6.3.6.6s-.2.6-.5.6c-.4 0-.7-.3-.7-.6zm1.8 0c0-.4.3-.6.6-.6s.6.3.6.6-.2.6-.6.6-.6-.3-.6-.6z"/><circle class="st4" cx=".1" cy="-1.4" r=".6"/><circle class="st4" cx="-1.7" cy="-1.4" r=".6"/><path class="st4" d="M-2.7-1.4c0-.4-.3-.6-.6-.6s-.7.2-.7.6.3.6.6.6.7-.3.7-.6zm3.8 0c0-.4.3-.6.6-.6.4 0 .6.3.6.6s-.2.6-.5.6c-.4 0-.7-.3-.7-.6zm1.8 0c0-.4.3-.6.6-.6s.6.3.6.6-.2.6-.6.6-.6-.3-.6-.6zm-2.2-2C.7-3.8.4-4 .1-4s-.6.3-.6.6.3.6.6.6.6-.3.6-.6zm-1.7 0c0-.4-.3-.6-.7-.6s-.6.3-.6.6.3.6.6.6.7-.3.7-.6zm-1.7 0c0-.4-.3-.6-.7-.6s-.6.2-.6.6.3.6.6.6.7-.3.7-.6zm3.8 0c0-.4.3-.6.7-.6.4 0 .6.3.6.6s-.3.6-.6.6c-.4 0-.7-.3-.7-.6zm1.8 0c0-.4.2-.6.6-.6s.6.3.6.6-.2.6-.6.6-.6-.3-.6-.6z"/></symbol><path class="st0" d="M280.6 141.7c0 76.7-62.2 138.9-138.9 138.9S2.8 218.4 2.8 141.7 65 2.8 141.7 2.8 280.6 65 280.6 141.7z"/><defs><path id="SVGID_1_" d="M263.3 141.7c0 67.1-54.4 121.5-121.5 121.5S20.3 208.8 20.3 141.7 74.7 20.2 141.8 20.2s121.5 54.4 121.5 121.5z"/></defs><clipPath id="SVGID_2_"><use xlink:href="#SVGID_1_" overflow="visible"/></clipPath><g clip-path="url(#SVGID_2_)"><use xlink:href="#Nouveau_symbole_5" width="51" height="51" x="-25.5" y="-25.5" transform="matrix(6.8055 0 0 -6.8055 141.734 141.734)" overflow="visible"/></g><use xlink:href="#SVGID_1_" overflow="visible" fill="none" stroke="#fff" stroke-width=".5" stroke-miterlimit="10"/></svg>