<svg xmlns="http://www.w3.org/2000/svg" xmlns:xlink="http://www.w3.org/1999/xlink" viewBox="0 0 283.5 283.5"><symbol id="c" viewBox="-25.5 -25.5 51 51"><circle transform="rotate(-67.5 0 0)" fill="#009a54" r="25.5"/><path d="M-1.4 8.5v17h2.8v-17h-2.8zm5.7-17v-16.6c1 .2 1.9.4 2.8.6v16H4.3zm-5.7 0v-17h2.8v17h-2.8zm8.5 17v16c-.9.3-1.9.5-2.8.6V8.5h2.8zm-14.2-17v-16c.9-.3 1.9-.5 2.8-.6v16.6h-2.8zm2.8 17v16.6c-1-.2-1.9-.4-2.8-.6v-16h2.8z" fill="#bfc8cc"/><path d="M-8 3.2v-5.8h2.6V.1h1.7v-4.2h-7.9v1.5h1.3v5.8h-1.3v1.5h4.9V3.2H-8zM4.9 1.9C4.9.9 4.6.2 4-.2S2.5-.9 1.2-.9H.3v-1.7h1.2v-1.5h-4.7v1.5H-2v5.8h-1.1v1.5h4.3c1.2 0 2.1-.2 2.8-.7s.9-1.2.9-2.1zm-2.4 0c0 .4-.1.6-.2.8s-.4.3-.7.4-.6.1-1 .1H.3V.5h.4c.5 0 .9 0 1.1.1s.5.2.6.4.1.6.1.9zM9.6 4v.7h1.5V2H9.6c0 .5-.2.8-.4 1s-.5.3-.8.3c-.2 0-.4-.1-.6-.2s-.3-.3-.3-.5.1-.3.2-.5.2-.2.4-.3l.8-.4.4-.2C10 .9 10.6.5 11 .1s.6-1 .6-1.7c0-.8-.2-1.4-.7-1.9S9.8-4.2 9-4.2c-.8 0-1.4.2-1.8.8v-.8H5.7v3h1.5c0-.5.2-.9.4-1.2s.6-.4 1-.4c.3 0 .5.1.7.3s.2.5.2.7c0 .3-.1.5-.3.7s-.6.5-1.1.7C7.2 0 6.6.4 6.2.8s-.6 1-.6 1.6c0 .4.1.9.3 1.2s.5.7.9.9.8.3 1.2.3c.3 0 .7-.1.9-.2s.5-.4.7-.6z" fill="#fff"/></symbol><defs><path id="a" d="M280.6 141.7c0 76.7-62.2 138.9-138.9 138.9S2.8 218.4 2.8 141.7 65 2.8 141.7 2.8 280.6 65 280.6 141.7z"/></defs><clipPath id="b"><use xlink:href="#a" overflow="visible"/></clipPath><g clip-path="url(#b)"><use xlink:href="#c" width="51" height="51" x="-25.5" y="-25.5" transform="matrix(7.7777 0 0 -7.7777 139.516 139.781)" overflow="visible"/></g><use xlink:href="#a" overflow="visible" fill="none" stroke="#f3eebf" stroke-miterlimit="10"/></svg>