<svg version="1.1" id="Layer_1" xmlns="http://www.w3.org/2000/svg" xmlns:xlink="http://www.w3.org/1999/xlink" x="0" y="0" viewBox="0 0 283.5 283.5" xml:space="preserve"><style>.st0{fill:#6a7840}.st3{fill:#fff}</style><symbol id="Nouveau_symbole_9" viewBox="-25.5 -25.5 51 51"><circle class="st0" r="25.5"/><defs><circle id="SVGID_1_" cx="0" cy="0" r="25.5"/></defs><clipPath id="SVGID_2_"><use xlink:href="#SVGID_1_" overflow="visible"/></clipPath><path d="M0 2.8l-1.4 22.7h2.8L0 2.8zm-6.5 21.9l-2.7-.9L-.8 2.7l-5.7 22zm-7.3-3.2l-2.3-1.7L-1.7 2.3l-12.1 19.2zm-6-5.4l-1.7-2.3L-2.3 1.7l-17.5 14.4zm-4-6.9l-.9-2.7 22-5.7-21.1 8.4zm-1.7-7.8v-2.8L-2.8 0l-22.7 1.4zm.8-7.9l.9-2.7L-2.7-.8l-22-5.7zm3.2-7.3l1.7-2.3L-2.3-1.7l-19.2-12.1zm5.4-6l2.3-1.7L-1.7-2.3l-14.4-17.5zm6.9-4l2.7-.9 5.7 22-8.4-21.1zm7.8-1.7h2.8L0-2.8l-1.4-22.7zm7.9.8l2.7.9L.9-2.7l5.6-22zm7.3 3.2l2.3 1.7L1.7-2.3l12.1-19.2zm6 5.4l1.7 2.3L2.3-1.7l17.5-14.4zm4 6.9l.9 2.7-22 5.7 21.1-8.4zm1.7 7.8v2.8L2.8 0l22.7-1.4zm-.8 7.9l-.9 2.7L2.7.9l22 5.6zm-3.2 7.3l-1.7 2.3L2.3 1.7l19.2 12.1zm-5.4 6l-2.3 1.7L1.7 2.3l14.4 17.5zm-6.9 4l-2.7.9-5.7-22 8.4 21.1z" clip-path="url(#SVGID_2_)" fill="#19181d"/><circle class="st0" r="8.5"/><path fill="#ed1a3b" stroke="#fff" stroke-width=".5" stroke-miterlimit="10" d="M-6.273-4.6L4.6-6.273 6.273 4.6-4.6 6.273z"/><path class="st3" d="M-1.2 2.5l-.7-.1-.3 1.9.7.1.3-1.9zm.9 2.1l-.7-.1.2-1.4.7.1-.2 1.4zm1.2.2l-.8-.2.2-1.4.7.1-.1 1.5zM-.9.7l-.7-.1-.2 1.4h.7L-.9.7zM0 2.2l-.7-.1.2-1.4.7.1L0 2.2zM-2-.1l-.7-.1-.3 2 .7.1.3-2zm3.2 2.5l-.7-.1L.7.9l.7.1-.2 1.4zm1.2.2l-.7-.1.2-1.4.7.1-.2 1.4zm-2-6.5L-.3-4l-.2 1.4.7.1.2-1.4zm.9 1.5l-.7-.1.2-1.4.7.1-.2 1.4zm-2-2.2l-.7-.1-.3 1.9.7.1.3-1.9zm3.2 2.4l-.7-.1.2-1.4.7.1-.2 1.4zm-2.9.6l-.5-.1-.2 1.4.5.1.2-1.4zM.3-.1l-.5-.1.2-1.4.5.1L.3-.1zm-1.5-1.7l-.5-.1L-2-.5l.5.1.3-1.4zm-.9-.1l-.5-.1-.2 1.4.5.1.2-1.4zM-3-2l-.5-.1-.2 1.4.5.1L-3-2zm-.8-.7l-.5-.1-.3 1.9.5.1.3-1.9zM1.1 0L.6-.1l.2-1.4.5.1L1.1 0zm.9.1L1.5 0l.2-1.4.5.1L2 .1zm.9.2L2.4.2l.2-1.4.5.1L2.9.3zm.9.1L3.2.3 3.5-1H4L3.8.4zm.9.1h-.6l.2-1.4.5.1L4.7.5z"/><path transform="rotate(-8.754 .18 2.83)" class="st3" d="M-.8 2.8h1.9v.1H-.8z"/><path transform="rotate(-8.754 .54 .487)" class="st3" d="M-1.6.4h4.3v.1h-4.3z"/><path transform="rotate(-8.748 1.261 -4.2)" class="st3" d="M-.3-4.3h3.1v.1H-.3z"/><path transform="rotate(-8.748 .785 -1.874)" class="st3" d="M-3.5-1.9h8.6v.1h-8.6z"/></symbol><path class="st0" d="M280.6 141.7c0 76.7-62.2 138.9-138.9 138.9S2.8 218.4 2.8 141.7 65 2.8 141.7 2.8 280.6 65 280.6 141.7z"/><defs><path id="SVGID_3_" d="M263.3 141.7c0 67.1-54.4 121.5-121.5 121.5S20.3 208.8 20.3 141.7 74.6 20.2 141.7 20.2c67.2 0 121.6 54.4 121.6 121.5z"/></defs><clipPath id="SVGID_4_"><use xlink:href="#SVGID_3_" overflow="visible"/></clipPath><g clip-path="url(#SVGID_4_)"><use xlink:href="#Nouveau_symbole_9" width="51" height="51" x="-25.5" y="-25.5" transform="matrix(6.8055 0 0 -6.8055 141.735 141.736)" overflow="visible"/></g><use xlink:href="#SVGID_3_" overflow="visible" fill="none" stroke="#fff" stroke-width=".5" stroke-miterlimit="10"/></svg>