<?xml version="1.0" encoding="utf-8"?>
<!-- Generator: Adobe Illustrator 25.0.1, SVG Export Plug-In . SVG Version: 6.00 Build 0)  -->
<svg version="1.1" id="Layer_1" xmlns="http://www.w3.org/2000/svg" xmlns:xlink="http://www.w3.org/1999/xlink" x="0px" y="0px"
	 viewBox="0 0 283.5 283.5" style="enable-background:new 0 0 283.5 283.5;" xml:space="preserve">
<style type="text/css">
	.st0{fill:#6A7840;}
	.st1{clip-path:url(#SVGID_2_);fill:#19181D;}
	.st2{fill:#ED1A3B;stroke:#FFFFFF;stroke-width:0.5;stroke-miterlimit:10;}
	.st3{fill:#FFFFFF;}
</style>
<symbol  id="Nouveau_symbole_9" viewBox="-25.5 -25.5 51 51">
	<circle class="st0" cx="0" cy="0" r="25.5"/>
	<g>
		<defs>
			<circle id="SVGID_1_" cx="0" cy="0" r="25.5"/>
		</defs>
		<clipPath id="SVGID_2_">
			<use xlink:href="#SVGID_1_"  style="overflow:visible;"/>
		</clipPath>
		<path class="st1" d="M0,2.8l-1.4,22.7h2.8L0,2.8z M-6.5,24.7l-2.7-0.9l8.4-21.1L-6.5,24.7z M-13.8,21.5l-2.3-1.7L-1.7,2.3
			L-13.8,21.5z M-19.8,16.1l-1.7-2.3L-2.3,1.7L-19.8,16.1z M-23.8,9.2l-0.9-2.7l22-5.7L-23.8,9.2z M-25.5,1.4v-2.8L-2.8,0L-25.5,1.4
			z M-24.7-6.5l0.9-2.7l21.1,8.4L-24.7-6.5z M-21.5-13.8l1.7-2.3L-2.3-1.7L-21.5-13.8z M-16.1-19.8l2.3-1.7L-1.7-2.3L-16.1-19.8z
			 M-9.2-23.8l2.7-0.9l5.7,22L-9.2-23.8z M-1.4-25.5h2.8L0-2.8L-1.4-25.5z M6.5-24.7l2.7,0.9L0.9-2.7L6.5-24.7z M13.8-21.5l2.3,1.7
			L1.7-2.3L13.8-21.5z M19.8-16.1l1.7,2.3L2.3-1.7L19.8-16.1z M23.8-9.2l0.9,2.7l-22,5.7L23.8-9.2z M25.5-1.4v2.8L2.8,0L25.5-1.4z
			 M24.7,6.5l-0.9,2.7L2.7,0.9L24.7,6.5z M21.5,13.8l-1.7,2.3L2.3,1.7L21.5,13.8z M16.1,19.8l-2.3,1.7L1.7,2.3L16.1,19.8z M9.2,23.8
			l-2.7,0.9l-5.7-22L9.2,23.8z"/>
	</g>
	<circle class="st0" cx="0" cy="0" r="8.5"/>
	
		<rect x="-5.5" y="-5.5" transform="matrix(0.9884 -0.1521 0.1521 0.9884 1.383794e-13 -1.058884e-14)" class="st2" width="11" height="11"/>
	<path class="st3" d="M-1.2,2.5l-0.7-0.1l-0.3,1.9l0.7,0.1L-1.2,2.5z M-0.3,4.6L-1,4.5l0.2-1.4l0.7,0.1L-0.3,4.6z M0.9,4.8L0.1,4.6
		l0.2-1.4l0.7,0.1L0.9,4.8z"/>
	<path class="st3" d="M-0.9,0.7l-0.7-0.1l-0.2,1.4L-1.1,2L-0.9,0.7z M0,2.2l-0.7-0.1l0.2-1.4l0.7,0.1L0,2.2z M-2-0.1l-0.7-0.1
		L-3,1.8l0.7,0.1L-2-0.1z M1.2,2.4L0.5,2.3l0.2-1.4L1.4,1L1.2,2.4z M2.4,2.6L1.7,2.5l0.2-1.4l0.7,0.1L2.4,2.6z"/>
	<path class="st3" d="M0.4-3.9L-0.3-4l-0.2,1.4l0.7,0.1L0.4-3.9z M1.3-2.4L0.6-2.5l0.2-1.4l0.7,0.1L1.3-2.4z M-0.7-4.6l-0.7-0.1
		l-0.3,1.9L-1-2.7L-0.7-4.6z M2.5-2.2L1.8-2.3L2-3.7l0.7,0.1L2.5-2.2z"/>
	<path class="st3" d="M-0.4-1.6l-0.5-0.1l-0.2,1.4l0.5,0.1L-0.4-1.6z M0.3-0.1l-0.5-0.1l0.2-1.4l0.5,0.1L0.3-0.1z M-1.2-1.8
		l-0.5-0.1L-2-0.5l0.5,0.1L-1.2-1.8z M-2.1-1.9L-2.6-2l-0.2,1.4l0.5,0.1L-2.1-1.9z M-3-2l-0.5-0.1l-0.2,1.4l0.5,0.1L-3-2z M-3.8-2.7
		l-0.5-0.1l-0.3,1.9l0.5,0.1L-3.8-2.7z M1.1,0L0.6-0.1l0.2-1.4l0.5,0.1L1.1,0z M2,0.1L1.5,0l0.2-1.4l0.5,0.1L2,0.1z M2.9,0.3
		L2.4,0.2l0.2-1.4l0.5,0.1L2.9,0.3z M3.8,0.4L3.2,0.3L3.5-1L4-1L3.8,0.4z M4.7,0.5L4.1,0.5l0.2-1.4l0.5,0.1L4.7,0.5z"/>
	
		<rect x="-0.8" y="2.8" transform="matrix(0.9884 -0.1522 0.1522 0.9884 -0.4285 6.026459e-02)" class="st3" width="1.9" height="0.1"/>
	
		<rect x="-1.6" y="0.4" transform="matrix(0.9884 -0.1522 0.1522 0.9884 -6.783141e-02 8.778829e-02)" class="st3" width="4.3" height="0.1"/>
	<rect x="-0.3" y="-4.3" transform="matrix(0.9884 -0.1521 0.1521 0.9884 0.6534 0.143)" class="st3" width="3.1" height="0.1"/>
	
		<rect x="-3.5" y="-1.9" transform="matrix(0.9884 -0.1521 0.1521 0.9884 0.2941 9.760864e-02)" class="st3" width="8.6" height="0.1"/>
</symbol>
<g>
	<path class="st0" d="M280.6,141.7c0,76.7-62.2,138.9-138.9,138.9C65,280.6,2.8,218.4,2.8,141.7C2.8,65,65,2.8,141.7,2.8
		C218.4,2.8,280.6,65,280.6,141.7z"/>
	<g>
		<defs>
			<path id="SVGID_3_" d="M263.3,141.7c0,67.1-54.4,121.5-121.5,121.5c-67.1,0-121.5-54.4-121.5-121.5S74.6,20.2,141.7,20.2
				C208.9,20.2,263.3,74.6,263.3,141.7z"/>
		</defs>
		<clipPath id="SVGID_4_">
			<use xlink:href="#SVGID_3_"  style="overflow:visible;"/>
		</clipPath>
		<g style="clip-path:url(#SVGID_4_);">
			
				<use xlink:href="#Nouveau_symbole_9"  width="51" height="51" x="-25.5" y="-25.5" transform="matrix(6.8055 0 0 -6.8055 141.735 141.7357)" style="overflow:visible;"/>
		</g>
		<use xlink:href="#SVGID_3_"  style="overflow:visible;fill:none;stroke:#FFFFFF;stroke-width:0.5;stroke-miterlimit:10;"/>
	</g>
</g>
</svg>
