<?xml version="1.0" encoding="utf-8"?>
<!-- Generator: Adobe Illustrator 25.0.1, SVG Export Plug-In . SVG Version: 6.00 Build 0)  -->
<svg version="1.1" id="Layer_1" xmlns="http://www.w3.org/2000/svg" xmlns:xlink="http://www.w3.org/1999/xlink" x="0px" y="0px"
	 viewBox="0 0 283.5 283.5" style="enable-background:new 0 0 283.5 283.5;" xml:space="preserve">
<style type="text/css">
	.st0{fill:#704268;}
	.st1{clip-path:url(#SVGID_2_);fill:#AB8FA1;}
	.st2{fill:#FFFFFF;}
</style>
<symbol  id="Nouveau_symbole_27" viewBox="-25.5 -25.5 51 51">
	<path class="st0" d="M25.5,0c0-14.1-11.4-25.5-25.5-25.5c-14.1,0-25.5,11.4-25.5,25.5c0,14.1,11.4,25.5,25.5,25.5
		C14.1,25.5,25.5,14.1,25.5,0z"/>
	<g>
		<defs>
			<path id="SVGID_1_" d="M25.5,0c0-14.1-11.4-25.5-25.5-25.5c-14.1,0-25.5,11.4-25.5,25.5c0,14.1,11.4,25.5,25.5,25.5
				C14.1,25.5,25.5,14.1,25.5,0z"/>
		</defs>
		<clipPath id="SVGID_2_">
			<use xlink:href="#SVGID_1_"  style="overflow:visible;"/>
		</clipPath>
		<path class="st1" d="M0,2.8l-1.4,22.7h2.8L0,2.8z M-6.5,24.7l-2.7-0.9l8.4-21.1L-6.5,24.7z M-13.8,21.5l-2.3-1.7L-1.7,2.3
			L-13.8,21.5z M-19.8,16.1l-1.7-2.3L-2.3,1.7L-19.8,16.1z M-23.8,9.2l-0.9-2.7l22-5.7L-23.8,9.2z M-25.5,1.4v-2.8L-2.8,0L-25.5,1.4
			z M-24.7-6.5l0.9-2.7l21.1,8.4L-24.7-6.5z M-21.5-13.8l1.7-2.3L-2.3-1.7L-21.5-13.8z M-16.1-19.8l2.3-1.7L-1.7-2.3L-16.1-19.8z
			 M-9.2-23.8l2.7-0.9l5.7,22L-9.2-23.8z M-1.4-25.5h2.8L0-2.8L-1.4-25.5z M6.5-24.7l2.7,0.9L0.9-2.7L6.5-24.7z M13.8-21.5l2.3,1.7
			L1.7-2.3L13.8-21.5z M19.8-16.1l1.7,2.3L2.3-1.7L19.8-16.1z M23.8-9.2l0.9,2.7l-22,5.7L23.8-9.2z M25.5-1.4v2.8L2.8,0L25.5-1.4z
			 M24.7,6.5l-0.9,2.7L2.7,0.9L24.7,6.5z M21.5,13.8l-1.7,2.3L2.3,1.7L21.5,13.8z M16.1,19.8l-2.3,1.7L1.7,2.3L16.1,19.8z M9.2,23.8
			l-2.7,0.9l-5.7-22L9.2,23.8z"/>
	</g>
	<path class="st0" d="M11.9,0c0-5-5.3-7.4-11.9-7.4S-11.9-5-11.9,0c0,5,5.3,7.4,11.9,7.4S11.9,5,11.9,0z"/>
	<path d="M10.6,0c0-4.4-4.7-6.6-10.6-6.6c-5.8,0-10.6,2.1-10.6,6.6c0,4.4,4.7,6.6,10.6,6.6C5.8,6.6,10.6,4.4,10.6,0z"/>
	<g>
		<path class="st2" d="M-5.6,3.2c0,0-0.1,0.1-0.1,0.1c0,0,0,0,0-0.1V2.4c0-0.1,0-0.2,0.2-0.2c0.1,0,0.1,0,0.1-0.1c0,0-0.1,0-0.1,0
			c-0.1,0-0.2,0-0.2,0c-0.1,0-0.2,0-0.2,0c0,0,0,0,0,0c0,0,0,0,0.1,0.1c0.1,0.1,0.2,0.1,0.2,0.2v0.8c0,0.1,0,0.2-0.1,0.2
			c-0.1,0-0.1,0-0.1,0.1c0,0,0,0,0,0c0.1,0,0.1,0,0.2,0c0.1,0,0.1,0,0.2,0c0.1,0,0.1,0,0.1,0l0.9-0.9c0,0,0.1-0.1,0.1-0.1
			c0,0,0,0,0,0.1v0.5c0,0.1,0,0.3-0.2,0.3c-0.1,0-0.1,0-0.1,0.1c0,0,0,0,0.1,0c0.1,0,0.2,0,0.2,0c0.1,0,0.2,0,0.2,0c0,0,0,0,0,0
			c0,0,0,0-0.1-0.1c-0.1-0.1-0.2-0.1-0.2-0.2V2.2c0-0.1,0-0.1,0-0.1c0,0-0.1,0.1-0.1,0.1L-5.6,3.2z"/>
		<path class="st2" d="M-4.1,3.2c0,0.1,0,0.3-0.1,0.3c-0.1,0-0.1,0-0.1,0.1c0,0,0,0,0.1,0c0.2,0,0.4,0,0.5,0c0.2,0,0.4,0,0.5,0
			c0.1,0,0.1,0,0.1,0c0,0,0-0.1,0-0.1c0,0,0-0.1,0-0.1c0,0,0,0,0,0c0,0,0,0,0,0.1c0,0.1-0.1,0.2-0.4,0.2h-0.2c-0.1,0-0.1,0-0.1-0.1
			V3c0,0,0,0,0.1,0c0.1,0,0.2,0,0.3,0.1c0,0.1,0,0.1,0.1,0.1c0,0,0,0,0-0.1c0-0.1,0-0.1,0-0.2c0-0.1,0-0.1,0-0.2c0,0,0-0.1,0-0.1
			c0,0,0,0.1-0.1,0.1c-0.1,0.1-0.1,0.1-0.3,0.1c-0.1,0-0.1,0-0.1-0.1V2.4c0-0.2,0-0.2,0.2-0.2c0.2,0,0.4,0.1,0.5,0.1
			C-3.1,2.4-3,2.5-3,2.5c0,0,0,0,0,0c0,0,0-0.1,0-0.2c0-0.1-0.1-0.2-0.2-0.2c-0.2,0-0.3,0-0.5,0c-0.2,0-0.3,0-0.5,0
			c-0.1,0-0.1,0-0.1,0c0,0,0,0.1,0.1,0.1c0.1,0,0.1,0.1,0.1,0.2V3.2z"/>
		<path class="st2" d="M-2.9,3.4C-2.9,3.5-3,3.5-3,3.5c0,0-0.1,0-0.1,0.1c0,0,0,0,0.1,0c0.1,0,0.2,0,0.3,0c0.1,0,0.2,0,0.3,0
			c0,0,0.1,0,0.1,0c0,0,0,0-0.1-0.1c-0.1,0-0.1-0.1-0.1-0.1c0,0,0-0.1,0.1-0.1l0.3-0.7c0,0,0,0,0,0c0,0,0,0,0,0l0.2,0.5l-0.1,0.4
			c0,0.1-0.1,0.1-0.1,0.1c0,0-0.1,0-0.1,0.1c0,0,0,0,0.1,0c0.1,0,0.2,0,0.3,0c0.1,0,0.2,0,0.3,0c0,0,0.1,0,0.1,0c0,0,0,0-0.1-0.1
			c-0.1,0-0.1-0.1-0.1-0.1c0,0,0-0.1,0.1-0.1l0.2-0.7c0,0,0,0,0,0c0,0,0,0,0,0.1l0.2,0.6c0,0.1,0,0.1,0,0.2c0,0.1-0.1,0.1-0.2,0.1
			c0,0-0.1,0-0.1,0.1c0,0,0,0,0.1,0c0.1,0,0.2,0,0.2,0c0.1,0,0.2,0,0.2,0c0,0,0.1,0,0.1,0c0,0,0,0-0.1-0.1C-0.9,3.4-0.9,3.4-1,3.3
			l-0.4-1.1c0-0.1-0.1-0.1-0.1-0.1c0,0,0,0-0.1,0.1l-0.3,0.7c0,0,0,0.1,0,0.1c0,0,0,0,0-0.1l-0.3-0.7c-0.1-0.1-0.1-0.1-0.1-0.1
			c0,0,0,0-0.1,0.1L-2.9,3.4z"/>
		<path class="st2" d="M0.9,3.3c0,0,0,0.1,0,0.1c0,0.1-0.1,0.1-0.2,0.1c0,0,0,0,0,0.1c0,0,0,0,0.1,0c0.1,0,0.2,0,0.2,0s0.2,0,0.2,0
			c0,0,0.1,0,0.1,0c0,0,0,0-0.1-0.1C1.1,3.5,1.1,3.5,1,3.3L0.7,2.9c0,0-0.1-0.1-0.1-0.1V2.4c0-0.1,0-0.2,0.2-0.2
			c0.1,0,0.1,0,0.1-0.1c0,0-0.1,0-0.1,0c-0.1,0-0.2,0-0.3,0c-0.1,0-0.2,0-0.3,0c-0.1,0-0.1,0-0.1,0c0,0,0,0,0.1,0.1
			c0.1,0,0.2,0.1,0.2,0.2v0.3c0,0,0,0,0,0.1l-0.4,0.6c-0.1,0.1-0.1,0.2-0.2,0.2c-0.1,0-0.1,0-0.1,0.1c0,0,0,0,0.1,0
			c0.1,0,0.2,0,0.3,0s0.2,0,0.3,0c0,0,0.1,0,0.1,0c0,0-0.1,0-0.1-0.1c0,0-0.1,0-0.1,0c0,0,0-0.1,0-0.1L0.5,3c0-0.1,0.1-0.1,0.1-0.1
			c0,0,0,0,0.1,0.1L0.9,3.3z"/>
		<path class="st2" d="M2.2,3.6C2.6,3.6,3,3.3,3,2.9c0-0.5-0.5-0.8-1-0.8c-0.5,0-0.8,0.3-0.8,0.7C1.2,3.3,1.7,3.6,2.2,3.6z M2.2,2.2
			c0.3,0,0.5,0.3,0.5,0.6c0,0.3-0.2,0.8-0.6,0.8c-0.3,0-0.5-0.3-0.5-0.6C1.6,2.6,1.8,2.2,2.2,2.2z"/>
		<path class="st2" d="M3.2,3.3c0,0.1-0.1,0.2-0.2,0.2c0,0,0,0,0,0.1c0,0,0,0,0.1,0c0.1,0,0.1,0,0.3,0c0.1,0,0.3,0,0.4,0
			c0.3,0,0.6-0.1,0.6-0.4C4.4,3,4.3,3,4.2,2.9c0,0-0.1,0-0.1-0.1c0,0,0.3-0.5,0.4-0.6c0,0,0,0,0.1,0c0,0,0.1,0,0.1,0c0,0,0,0,0,0
			c0-0.1-0.3-0.1-0.3-0.1c-0.1,0-0.1,0-0.2,0.1L3.8,2.7c0,0.1-0.1,0.1-0.2,0.1c-0.1,0-0.1,0-0.1,0V2.4c0-0.2,0.1-0.2,0.2-0.2
			c0,0,0,0,0-0.1c0,0,0,0-0.1,0c-0.1,0-0.2,0-0.3,0c-0.1,0-0.2,0-0.3,0c0,0-0.1,0-0.1,0c0,0,0,0,0.1,0.1c0.1,0,0.1,0.1,0.1,0.2V3.3z
			 M3.6,3c0,0,0-0.1,0.1-0.1C3.9,2.9,4,3,4,3.2c0,0.2-0.1,0.3-0.3,0.3c-0.1,0-0.1,0-0.1-0.1V3z"/>
		<path class="st2" d="M4.8,3.3c0,0.1-0.1,0.2-0.2,0.2c0,0,0,0,0,0.1c0,0,0.1,0,0.1,0c0.1,0,0.2,0,0.3,0c0.1,0,0.2,0,0.3,0
			c0,0,0.1,0,0.1,0c0,0,0,0-0.1-0.1c-0.1,0-0.1-0.1-0.1-0.2V3c0-0.1,0-0.1,0-0.1c0,0,0,0,0.1,0l0.5,0.4c0,0,0,0,0,0.1
			c0,0,0,0.1-0.1,0.1c-0.1,0-0.1,0-0.1,0.1c0,0,0,0,0.1,0c0.1,0,0.2,0,0.2,0c0.1,0,0.2,0,0.2,0c0,0,0.1,0,0.1,0c0,0,0,0-0.1-0.1
			C6.1,3.5,6,3.5,6,3.4L5.6,3.1c0,0,0,0,0,0c0,0,0,0,0-0.1l0.6-0.8c0-0.1,0.1-0.1,0.1-0.1c0,0,0,0-0.1,0c-0.1,0-0.1,0-0.2,0
			c-0.1,0-0.1,0-0.2,0c0,0,0,0-0.1,0L5.3,2.7c0,0-0.1,0.1-0.1,0.1c0,0-0.1-0.1-0.1-0.1c0,0,0,0,0,0V2.4c0-0.2,0.1-0.2,0.2-0.2
			c0,0,0,0,0-0.1c0,0-0.1,0-0.1,0c-0.1,0-0.2,0-0.3,0c-0.1,0-0.2,0-0.3,0c0,0-0.1,0-0.1,0c0,0,0,0,0.1,0.1c0.1,0,0.1,0.1,0.1,0.2
			V3.3z"/>
	</g>
	<g>
		<path class="st2" d="M-5-3.2C-5-3.2-5-3.2-5-3.2c0,0.1,0,0.1,0,0.1c0,0,0.1-0.1,0.1-0.1c0.1-0.2,0.3-0.3,0.5-0.3
			C-4.2-3.5-4-3.4-4-3.3C-4-2.9-5-3.1-5-2.5c0,0.2,0.2,0.4,0.5,0.4c0.2,0,0.3-0.1,0.4-0.1c0,0,0.1,0,0.1,0c0,0,0,0,0,0
			c0-0.1,0-0.3,0-0.3c0,0,0,0,0,0c0,0-0.1,0-0.1,0.1C-4-2.3-4.2-2.2-4.4-2.2c-0.2,0-0.3-0.1-0.3-0.2c0-0.4,0.9-0.2,0.9-0.8
			c0-0.2-0.2-0.5-0.6-0.5c-0.2,0-0.3,0-0.5,0.1c0,0-0.1,0-0.1,0L-5-3.2z"/>
		<path class="st2" d="M-2.3-2.4c0,0,0,0.1,0,0.1c0,0.1-0.1,0.1-0.2,0.1c0,0,0,0,0,0.1c0,0,0,0,0.1,0c0.1,0,0.2,0,0.3,0
			c0.1,0,0.2,0,0.3,0c0,0,0.1,0,0.1,0c0,0,0,0-0.1-0.1c-0.1,0-0.1-0.1-0.2-0.2l-0.3-0.5c0,0-0.1-0.1-0.1-0.1v-0.3
			c0-0.1,0-0.2,0.2-0.2c0.1,0,0.1,0,0.1-0.1c0,0-0.1,0-0.1,0c-0.1,0-0.2,0-0.3,0c-0.1,0-0.2,0-0.3,0c-0.1,0-0.1,0-0.1,0
			c0,0,0.1,0,0.1,0.1C-3-3.5-3-3.4-3-3.3V-3C-3-3-3-3-3-3l-0.4,0.6c-0.1,0.1-0.1,0.2-0.2,0.2c-0.1,0-0.1,0-0.1,0.1c0,0,0,0,0.1,0
			c0.1,0,0.2,0,0.3,0c0.1,0,0.2,0,0.3,0c0,0,0.1,0,0.1,0c0,0-0.1,0-0.1-0.1c0,0-0.1,0-0.1,0c0,0,0-0.1,0-0.1l0.2-0.4
			c0-0.1,0.1-0.1,0.1-0.1c0,0,0,0,0.1,0.1L-2.3-2.4z"/>
		<path class="st2" d="M-1.8-3.2C-1.8-3.2-1.8-3.2-1.8-3.2c0,0.1,0,0.1,0,0.1c0.1,0,0.1-0.1,0.1-0.1c0.1-0.2,0.3-0.3,0.5-0.3
			c0.2,0,0.3,0.1,0.3,0.3c0,0.4-0.9,0.2-0.9,0.8c0,0.2,0.2,0.4,0.5,0.4c0.2,0,0.3-0.1,0.4-0.1c0,0,0.1,0,0.1,0c0,0,0,0,0,0
			c0-0.1,0-0.3,0-0.3c0,0,0,0-0.1,0c0,0-0.1,0-0.1,0.1C-0.8-2.3-1-2.2-1.2-2.2c-0.2,0-0.3-0.1-0.3-0.2c0-0.4,0.9-0.2,0.9-0.8
			c0-0.2-0.2-0.5-0.6-0.5c-0.2,0-0.3,0-0.5,0.1c0,0-0.1,0-0.1,0L-1.8-3.2z"/>
		<path class="st2" d="M0.2-2.3c0,0.1-0.1,0.1-0.2,0.1c-0.2,0-0.3,0-0.4-0.2c0,0,0,0,0,0c0,0,0,0,0,0c0,0,0,0.1,0,0.1l0,0.2
			c0,0,0,0.1,0.1,0.1c0.3,0,0.5,0,0.8,0c0.3,0,0.5,0,0.8,0c0.1,0,0.1,0,0.1-0.1l0-0.2c0,0,0,0,0,0c0,0,0,0,0,0c0,0,0,0,0,0
			C1.2-2.2,1-2.2,0.8-2.2c-0.1,0-0.2,0-0.2-0.1v-1c0-0.2,0.2-0.2,0.3-0.2c0,0,0.1,0,0.1-0.1c0,0,0,0-0.1,0c-0.1,0-0.3,0-0.5,0
			s-0.3,0-0.5,0c0,0-0.1,0-0.1,0c0,0,0,0,0.1,0.1c0.1,0,0.3,0,0.3,0.2V-2.3z"/>
		<path class="st2" d="M1.6-2.5c0,0.1,0,0.3-0.1,0.3c-0.1,0-0.1,0-0.1,0.1c0,0,0,0,0.1,0c0.2,0,0.4,0,0.6,0c0.2,0,0.4,0,0.6,0
			c0.1,0,0.1,0,0.1,0c0,0,0-0.1,0-0.1c0,0,0-0.1,0-0.1c0,0,0,0,0,0c0,0,0,0-0.1,0.1c0,0.1-0.1,0.2-0.4,0.2H2.1C2-2.2,2-2.2,2-2.3
			v-0.4c0,0,0,0,0.1,0c0.1,0,0.3,0,0.3,0.1c0,0.1,0,0.1,0.1,0.1c0,0,0,0,0-0.1c0-0.1,0-0.1,0-0.2c0-0.1,0-0.1,0-0.2c0,0,0-0.1,0-0.1
			c0,0,0,0.1-0.1,0.1C2.4-2.9,2.3-2.8,2.1-2.8C2-2.8,2-2.9,2-2.9v-0.4c0-0.2,0-0.2,0.2-0.2c0.3,0,0.4,0.1,0.5,0.1
			c0.1,0.1,0.1,0.1,0.2,0.1c0,0,0,0,0,0c0,0,0-0.1,0-0.2c0-0.1-0.1-0.2-0.3-0.2c-0.2,0-0.3,0-0.5,0s-0.3,0-0.5,0c-0.1,0-0.1,0-0.1,0
			c0,0,0.1,0.1,0.1,0.1c0.1,0,0.1,0.1,0.1,0.2V-2.5z"/>
		<path class="st2" d="M3.1-2.4c0,0.1,0,0.2-0.1,0.2c-0.1,0-0.1,0-0.1,0.1c0,0,0,0,0,0c0.1,0,0.2,0,0.2,0c0.1,0,0.2,0,0.2,0
			c0.1,0,0.1,0,0.1,0L4-3C4-3.1,4-3.1,4-3.1c0,0,0,0,0.1,0.1l0.5,0.9c0,0,0,0.1,0.1,0.1c0.1,0,0.2,0,0.2,0c0.1,0,0.2,0,0.2,0
			c0,0,0,0,0,0c0,0,0,0-0.1-0.1c-0.1,0-0.1,0-0.1-0.2v-0.8c0-0.2,0-0.3,0.2-0.4c0.1,0,0.1,0,0.1-0.1c0,0-0.1,0-0.1,0
			c-0.1,0-0.2,0-0.3,0c-0.1,0-0.2,0-0.3,0c0,0-0.1,0-0.1,0c0,0,0,0,0.1,0.1c0.1,0,0.1,0.1,0.1,0.2v0.7c0,0,0,0.1,0,0.1
			c0,0,0,0-0.1-0.1L4-3.5c0,0,0-0.1-0.1-0.1c0,0,0,0-0.1,0L3.3-2.6c0,0,0,0.1-0.1,0.1c0,0,0,0,0-0.1v-0.6c0-0.1,0-0.3,0.2-0.3
			c0,0,0.1,0,0.1-0.1c0,0,0,0-0.1,0c-0.1,0-0.2,0-0.3,0c-0.1,0-0.2,0-0.3,0c0,0-0.1,0-0.1,0c0,0,0,0,0.1,0.1
			c0.1,0.1,0.2,0.1,0.2,0.2V-2.4z"/>
	</g>
	<g>
		<path class="st2" d="M-5.8,0.6c0,0.1,0,0.4-0.2,0.4C-6,1-6.1,1-6.1,1.1c0,0,0.1,0,0.1,0c0.3,0,0.5,0,0.8,0c0.3,0,0.5,0,0.8,0
			c0.1,0,0.1,0,0.1-0.1c0-0.1,0-0.1,0-0.2s0-0.1,0-0.2c0,0,0-0.1-0.1-0.1c-0.1,0-0.1,0.1-0.1,0.1c0,0.2-0.1,0.3-0.5,0.3h-0.2
			c-0.1,0-0.1,0-0.1-0.1V0.3c0,0,0.1-0.1,0.2-0.1c0.2,0,0.3,0.1,0.4,0.2c0,0.1,0.1,0.1,0.1,0.1c0,0,0,0,0-0.1c0-0.1,0-0.2,0-0.3
			c0-0.1,0-0.2,0-0.3c0,0,0-0.1-0.1-0.1c-0.1,0-0.1,0.1-0.1,0.2C-4.8,0-4.9,0.1-5.1,0.1c-0.2,0-0.2,0-0.2-0.1v-0.5
			c0-0.2,0-0.3,0.2-0.3c0.4,0,0.5,0.1,0.7,0.2c0.1,0.1,0.1,0.2,0.2,0.2c0,0,0.1,0,0.1-0.1c0-0.1,0-0.2-0.1-0.2C-4.2-0.8-4.4-1-4.5-1
			C-4.7-1-5-1-5.2-1c-0.2,0-0.4,0-0.7,0C-6-1-6-1-6-0.9c0,0,0.1,0.1,0.1,0.1c0.1,0,0.1,0.1,0.1,0.3V0.6z"/>
		<path class="st2" d="M-3.3,0.5c-0.1,0.1-0.1,0.1-0.2,0.1c0,0,0,0,0-0.1v-1.1c0-0.1,0.1-0.3,0.2-0.3c0.1,0,0.2,0,0.2-0.1
			C-3.1-1-3.2-1-3.3-1c-0.1,0-0.2,0-0.4,0C-3.7-1-3.8-1-4-1C-4-1-4-1-4-0.9c0,0,0,0.1,0.1,0.1c0.2,0.1,0.2,0.2,0.2,0.3v1.1
			c0,0.1-0.1,0.3-0.2,0.3C-4,1-4,1-4,1.1c0,0,0,0,0,0c0.1,0,0.2,0,0.3,0c0.1,0,0.2,0,0.3,0c0.1,0,0.1,0,0.1,0L-2-0.1
			c0,0,0.1-0.1,0.1-0.1c0,0,0,0,0,0.1v0.7c0,0.2,0,0.4-0.2,0.4c-0.1,0-0.2,0-0.2,0.1c0,0,0.1,0,0.1,0c0.1,0,0.2,0,0.4,0
			c0.1,0,0.2,0,0.4,0c0,0,0.1,0,0.1,0c0,0,0-0.1-0.1-0.1c-0.2-0.1-0.2-0.2-0.2-0.3v-1.5c0-0.1,0-0.2-0.1-0.2c0,0-0.1,0.1-0.2,0.2
			L-3.3,0.5z"/>
		<path class="st2" d="M-0.3,0.8c0,0.1-0.1,0.1-0.2,0.1c-0.3,0-0.5,0-0.5-0.3c0,0,0,0-0.1,0c0,0-0.1,0-0.1,0c0,0,0,0.1,0,0.1l0,0.3
			c0,0.1,0,0.1,0.1,0.1c0.3,0,0.7,0,1,0c0.3,0,0.7,0,1,0C1,1.1,1,1.1,1,1l0-0.3c0,0,0,0,0-0.1c0,0,0,0-0.1,0c0,0-0.1,0-0.1,0
			C0.9,0.9,0.7,0.9,0.4,0.9c-0.2,0-0.2,0-0.2-0.1v-1.4c0-0.2,0.2-0.2,0.3-0.3c0,0,0.1,0,0.1-0.1c0,0,0,0-0.1,0C0.3-1,0.1-1-0.1-1
			s-0.4,0-0.6,0c0,0-0.1,0-0.1,0c0,0.1,0.1,0.1,0.1,0.1c0.1,0,0.3,0,0.3,0.3V0.8z"/>
		<path class="st2" d="M1.5,0.7C1.5,0.9,1.4,1,1.3,1c0,0-0.1,0-0.1,0.1c0,0,0,0,0.1,0c0.1,0,0.2,0,0.4,0c0.2,0,0.4,0,0.6,0
			c0.4,0,0.9-0.1,0.9-0.6c0-0.2-0.1-0.3-0.3-0.4c-0.1,0-0.2-0.1-0.2-0.1c0,0,0.4-0.6,0.5-0.8c0,0,0.1-0.1,0.1-0.1c0,0,0.1,0,0.1,0
			c0,0,0.1,0,0.1-0.1C3.5-1,3.2-1,3-1C2.9-1,2.8-0.9,2.8-0.8L2.4-0.2C2.3-0.1,2.3,0,2.1,0C2,0,2,0,2,0v-0.5c0-0.2,0.1-0.3,0.3-0.3
			c0,0,0.1,0,0.1-0.1c0,0,0,0-0.2,0C2-1,1.9-1,1.7-1C1.6-1,1.5-1,1.3-1c0,0-0.1,0-0.1,0c0,0,0.1,0.1,0.1,0.1c0.1,0,0.2,0.2,0.2,0.2
			V0.7z M2,0.2c0,0,0-0.1,0.2-0.1c0.3,0,0.4,0.1,0.4,0.4C2.7,0.8,2.5,1,2.2,1C2,1,2,0.9,2,0.8V0.2z"/>
		<path class="st2" d="M4.8,1c0,0.1,0.1,0.1,0.1,0.1c0,0,0,0,0.1-0.1l0.8-1.6C5.8-0.7,5.9-0.8,6-0.9c0.1,0,0.1,0,0.1-0.1
			c0,0,0,0-0.1,0C5.9-1,5.7-1,5.6-1C5.4-1,5.3-1,5.1-1c0,0-0.1,0-0.1,0c0,0,0,0.1,0.1,0.1c0.1,0,0.1,0.1,0.1,0.2
			c0,0.1-0.1,0.3-0.2,0.4c0,0-0.1,0.1-0.3,0.1H4.3c-0.2,0-0.3-0.3-0.3-0.4c0,0,0.1-0.1,0.2-0.1c0.1,0,0.2,0,0.2-0.1c0,0,0,0-0.1,0
			C4.2-1,4.1-1,4-1C3.9-1,3.8-1,3.7-1c0,0-0.1,0-0.1,0c0,0,0.1,0.1,0.1,0.1c0.1,0,0.1,0.1,0.1,0.1L4.8,1z M4.4,0
			C4.4,0,4.3-0.1,4.4,0c0-0.1,0-0.1,0.1-0.1h0.4c0.1,0,0.1,0,0.1,0C5-0.1,5,0,4.9,0L4.7,0.4c0,0,0,0.1-0.1,0.1c0,0,0-0.1-0.1-0.1
			L4.4,0z"/>
		<path class="st2" d="M6.5,0.7C6.5,0.9,6.4,1,6.2,1c0,0-0.1,0-0.1,0.1c0,0,0,0.1,0.1,0.1c0.2,0,0.3,0,0.5,0c0.2,0,0.3,0,0.5,0
			c0,0,0.1,0,0.1,0C7.3,1,7.2,1,7.2,1C7,1,7,0.8,7,0.7v-1.3c0-0.2,0-0.3,0.2-0.3c0.4,0,0.5,0.1,0.7,0.2C8-0.5,8-0.4,8.1-0.4
			c0,0,0.1-0.1,0.1-0.1C8.2-0.8,7.9-1,7.7-1C7.4-1,7-1,6.8-1C6.6-1,6.5-1,6.4-1c-0.1,0-0.1,0-0.1,0c0,0,0.1,0.1,0.1,0.1
			c0.1,0.1,0.1,0.2,0.1,0.3V0.7z"/>
	</g>
	<path class="st2" d="M-5.2,1.4C-5.2,1.3-5.2,1.3-5.2,1.4c-0.1-0.1-0.1,0-0.1,0c-0.1,0.2-0.5,0.3-0.9,0.3c-0.7,0-1.2-0.7-1.2-1.5
		c0-0.8,0.4-1.6,1.4-1.6c0.5,0,0.8,0.3,0.9,0.3c0,0,0,0,0,0c0-0.1-0.5-0.5-1.2-0.5C-8-1.7-8.2-0.4-8.2,0c0,1.1,0.7,1.9,1.8,1.9
		c0.4,0,0.8-0.2,0.9-0.2c0.1,0,0.1,0.1,0.1,0.1c0,0,0,0,0,0L-5.2,1.4z"/>
</symbol>
<g>
	<path class="st0" d="M280.6,141.7c0,76.7-62.2,138.9-138.9,138.9C65,280.6,2.8,218.4,2.8,141.7C2.8,65,65,2.8,141.7,2.8
		C218.4,2.8,280.6,65,280.6,141.7z"/>
	<g>
		<defs>
			<path id="SVGID_3_" d="M263.3,141.7c0,67.1-54.4,121.5-121.5,121.5c-67.1,0-121.5-54.4-121.5-121.5
				c0-67.1,54.4-121.5,121.5-121.5C208.9,20.2,263.3,74.6,263.3,141.7z"/>
		</defs>
		<clipPath id="SVGID_4_">
			<use xlink:href="#SVGID_3_"  style="overflow:visible;"/>
		</clipPath>
		<g style="clip-path:url(#SVGID_4_);">
			
				<use xlink:href="#Nouveau_symbole_27"  width="51" height="51" x="-25.5" y="-25.5" transform="matrix(6.8055 0 0 -6.8055 141.7295 141.7341)" style="overflow:visible;"/>
		</g>
		<use xlink:href="#SVGID_3_"  style="overflow:visible;fill:none;stroke:#FFFFFF;stroke-width:0.5;stroke-miterlimit:10;"/>
	</g>
</g>
</svg>
