<svg version="1.1" id="Layer_1" xmlns="http://www.w3.org/2000/svg" xmlns:xlink="http://www.w3.org/1999/xlink" x="0" y="0" viewBox="0 0 283.5 283.5" xml:space="preserve"><style>.st0{fill:#704268}.st2{fill:#fff}</style><symbol id="Nouveau_symbole_27" viewBox="-25.5 -25.5 51 51"><path class="st0" d="M25.5 0c0-14.1-11.4-25.5-25.5-25.5S-25.5-14.1-25.5 0-14.1 25.5 0 25.5 25.5 14.1 25.5 0z"/><defs><path id="SVGID_1_" d="M25.5 0c0-14.1-11.4-25.5-25.5-25.5S-25.5-14.1-25.5 0-14.1 25.5 0 25.5 25.5 14.1 25.5 0z"/></defs><clipPath id="SVGID_2_"><use xlink:href="#SVGID_1_" overflow="visible"/></clipPath><path d="M0 2.8l-1.4 22.7h2.8L0 2.8zm-6.5 21.9l-2.7-.9L-.8 2.7l-5.7 22zm-7.3-3.2l-2.3-1.7L-1.7 2.3l-12.1 19.2zm-6-5.4l-1.7-2.3L-2.3 1.7l-17.5 14.4zm-4-6.9l-.9-2.7 22-5.7-21.1 8.4zm-1.7-7.8v-2.8L-2.8 0l-22.7 1.4zm.8-7.9l.9-2.7L-2.7-.8l-22-5.7zm3.2-7.3l1.7-2.3L-2.3-1.7l-19.2-12.1zm5.4-6l2.3-1.7L-1.7-2.3l-14.4-17.5zm6.9-4l2.7-.9 5.7 22-8.4-21.1zm7.8-1.7h2.8L0-2.8l-1.4-22.7zm7.9.8l2.7.9L.9-2.7l5.6-22zm7.3 3.2l2.3 1.7L1.7-2.3l12.1-19.2zm6 5.4l1.7 2.3L2.3-1.7l17.5-14.4zm4 6.9l.9 2.7-22 5.7 21.1-8.4zm1.7 7.8v2.8L2.8 0l22.7-1.4zm-.8 7.9l-.9 2.7L2.7.9l22 5.6zm-3.2 7.3l-1.7 2.3L2.3 1.7l19.2 12.1zm-5.4 6l-2.3 1.7L1.7 2.3l14.4 17.5zm-6.9 4l-2.7.9-5.7-22 8.4 21.1z" clip-path="url(#SVGID_2_)" fill="#ab8fa1"/><path class="st0" d="M11.9 0c0-5-5.3-7.4-11.9-7.4S-11.9-5-11.9 0-6.6 7.4 0 7.4 11.9 5 11.9 0z"/><path d="M10.6 0c0-4.4-4.7-6.6-10.6-6.6-5.8 0-10.6 2.1-10.6 6.6 0 4.4 4.7 6.6 10.6 6.6 5.8 0 10.6-2.2 10.6-6.6z"/><path class="st2" d="M-5.6 3.2l-.1.1v-.9c0-.1 0-.2.2-.2.1 0 .1 0 .1-.1h-.5l.1.1c.1.1.2.1.2.2v.8c0 .1 0 .2-.1.2s-.1 0-.1.1h.5l.9-.9.1-.1v.6c0 .1 0 .3-.2.3-.1 0-.1 0-.1.1h.5l-.1-.1c-.1-.1-.2-.1-.2-.2V2.1l-.1.1-1.1 1z"/><path class="st2" d="M-4.1 3.2c0 .1 0 .3-.1.3s-.1 0-.1.1h1.2v-.2.1c0 .1-.1.2-.4.2h-.2c-.1 0-.1 0-.1-.1V3h.1c.1 0 .2 0 .3.1 0 .1 0 .1.1.1v-.6s0 .1-.1.1c-.1.1-.1.1-.3.1-.1 0-.1 0-.1-.1v-.3c0-.2 0-.2.2-.2s.4.1.5.1c0 .1.1.2.1.2v-.2c0-.1-.1-.2-.2-.2h-1.1s0 .1.1.1.1.1.1.2v.8z"/><path class="st2" d="M-2.9 3.4c0 .1-.1.1-.1.1s-.1 0-.1.1h.8l-.1-.1c-.1 0-.1-.1-.1-.1s0-.1.1-.1l.3-.7.2.5-.1.4c0 .1-.1.1-.1.1s-.1 0-.1.1h.8l-.1-.1c-.1 0-.1-.1-.1-.1s0-.1.1-.1l.2-.7v.1l.2.6v.2c0 .1-.1.1-.2.1 0 0-.1 0-.1.1h.6l-.1-.1c0-.3 0-.3-.1-.4l-.4-1.1c0-.1-.1-.1-.1-.1l-.1.1-.3.7V3v-.1l-.3-.7-.1-.1-.1.1-.5 1.2zm3.8-.1v.1c0 .1-.1.1-.2.1v.1h.6l-.1-.1c-.1 0-.1 0-.2-.2l-.3-.4-.1-.1v-.4c0-.1 0-.2.2-.2.1 0 .1 0 .1-.1H.1l.1.1c.1 0 .2.1.2.2v.4l-.4.6c-.1.1-.1.2-.2.2s-.1 0-.1.1h.8s-.1 0-.1-.1H.3v-.1L.5 3c0-.1.1-.1.1-.1l.1.1.2.3zm1.3.3c.4 0 .8-.3.8-.7 0-.5-.5-.8-1-.8s-.8.3-.8.7c0 .5.5.8 1 .8zm0-1.4c.3 0 .5.3.5.6s-.2.8-.6.8c-.3 0-.5-.3-.5-.6 0-.4.2-.8.6-.8z"/><path class="st2" d="M3.2 3.3c0 .1-.1.2-.2.2v.1h.8c.3 0 .6-.1.6-.4 0-.2-.1-.2-.2-.3 0 0-.1 0-.1-.1 0 0 .3-.5.4-.6h.2c0-.1-.3-.1-.3-.1-.1 0-.1 0-.2.1l-.4.5c0 .1-.1.1-.2.1h-.1v-.4c0-.2.1-.2.2-.2v-.1h-.8l.1.1c.1 0 .1.1.1.2v.9zm.4-.3s0-.1.1-.1c.2 0 .3.1.3.3 0 .2-.1.3-.3.3-.1 0-.1 0-.1-.1V3z"/><path class="st2" d="M4.8 3.3c0 .1-.1.2-.2.2v.1h.8l-.1-.1c-.1 0-.1-.1-.1-.2v-.4h.1l.5.4v.1s0 .1-.1.1-.1 0-.1.1h.6l-.1-.1s-.1 0-.1-.1l-.4-.3V3l.6-.8c0-.1.1-.1.1-.1h-.6l-.4.6-.1.1-.1-.1v-.3c0-.2.1-.2.2-.2v-.1h-.8l.1.1c.1 0 .1.1.1.2v.9zM-5-3.2v.1l.1-.1c.1-.2.3-.3.5-.3s.4.1.4.2c0 .4-1 .2-1 .8 0 .2.2.4.5.4.2 0 .3-.1.4-.1h.1v-.3s-.1 0-.1.1c.1.1-.1.2-.3.2-.2 0-.3-.1-.3-.2 0-.4.9-.2.9-.8 0-.2-.2-.5-.6-.5-.2 0-.3 0-.5.1H-5v.4zm2.7.8v.1c0 .1-.1.1-.2.1v.1h.8l-.1-.1c-.1 0-.1-.1-.2-.2l-.3-.5-.1-.1v-.3c0-.1 0-.2.2-.2.1 0 .1 0 .1-.1h-.8s.1 0 .1.1c-.2 0-.2.1-.2.2v.3l-.4.6c-.1.1-.1.2-.2.2s-.1 0-.1.1h.8s-.1 0-.1-.1h-.1v-.1l.2-.4c0-.1.1-.1.1-.1l.1.1.4.3z"/><path class="st2" d="M-1.8-3.2v.1c.1 0 .1-.1.1-.1.1-.2.3-.3.5-.3s.3.1.3.3c0 .4-.9.2-.9.8 0 .2.2.4.5.4.2 0 .3-.1.4-.1h.1v-.3h-.1s-.1 0-.1.1c.2 0 0 .1-.2.1s-.3-.1-.3-.2c0-.4.9-.2.9-.8 0-.2-.2-.5-.6-.5-.2 0-.3 0-.5.1h-.1v.4zm2 .9c0 .1-.1.1-.2.1-.2 0-.3 0-.4-.2v.3s0 .1.1.1h1.6c.1 0 .1 0 .1-.1v-.2c-.2.1-.4.1-.6.1-.1 0-.2 0-.2-.1v-1c0-.2.2-.2.3-.2 0 0 .1 0 .1-.1H-.2l.1.1c.1 0 .3 0 .3.2v1z"/><path class="st2" d="M1.6-2.5c0 .1 0 .3-.1.3s-.1 0-.1.1h1.4v-.2l-.1.1c0 .1-.1.2-.4.2h-.2C2-2.2 2-2.2 2-2.3v-.4h.1c.1 0 .3 0 .3.1s0 .1.1.1v-.6s0 .1-.1.1c0 .1-.1.2-.3.2-.1 0-.1-.1-.1-.1v-.4c0-.2 0-.2.2-.2.3 0 .4.1.5.1.1.1.1.1.2.1v-.2c0-.1-.1-.2-.3-.2H1.5l.1.1c.1 0 .1.1.1.2v.9z"/><path class="st2" d="M3.1-2.4c0 .1 0 .2-.1.2s-.1 0-.1.1h.5L4-3v-.1l.1.1.5.9s0 .1.1.1h.4L5-2.1c-.1 0-.1 0-.1-.2v-.8c0-.2 0-.3.2-.4.1 0 .1 0 .1-.1h-.8l.1.1c.1 0 .1.1.1.2v.8l-.1-.1-.5-.9s0-.1-.1-.1h-.1l-.5 1s0 .1-.1.1v-.7c0-.1 0-.3.2-.3 0 0 .1 0 .1-.1h-.8l.1.1c.1.1.2.1.2.2v.9zM-5.8.6c0 .1 0 .4-.2.4 0 0-.1 0-.1.1h1.7c.1 0 .1 0 .1-.1V.6s0-.1-.1-.1-.1.1-.1.1c0 .2-.1.3-.5.3h-.2c-.1 0-.1 0-.1-.1V.3s.1-.1.2-.1c.2 0 .3.1.4.2 0 .1.1.1.1.1v-.7s0-.1-.1-.1-.1.1-.1.2-.1.2-.3.2c-.2 0-.2 0-.2-.1v-.5c0-.2 0-.3.2-.3.4 0 .5.1.7.2.1.1.1.2.2.2 0 0 .1 0 .1-.1s0-.2-.1-.2c0-.1-.2-.3-.3-.3h-1.4C-6-1-6-1-6-.9l.1.1c.1 0 .1.1.1.3V.6zm2.5-.1c-.1.1-.1.1-.2.1V-.6c0-.1.1-.3.2-.3s.2 0 .2-.1H-4v.1s0 .1.1.1c.2.1.2.2.2.3V.6c0 .1-.1.3-.2.3-.1.1-.1.1-.1.2h.7L-2-.1l.1-.1v.8c0 .2 0 .4-.2.4-.1 0-.2 0-.2.1h1s0-.1-.1-.1c-.2-.1-.2-.2-.2-.3V-.8c0-.1 0-.2-.1-.2l-.2.2L-3.3.5zm3 .3c0 .1-.1.1-.2.1-.3 0-.5 0-.5-.3h-.2V1c0 .1 0 .1.1.1h2c.1 0 .1 0 .1-.1V.6H.8C.9.9.7.9.4.9.2.9.2.9.2.8V-.6c0-.2.2-.2.3-.3 0 0 .1 0 .1-.1H-.8c0 .1.1.1.1.1.1 0 .3 0 .3.3V.8zM1.5.7c0 .2-.1.3-.2.3 0 0-.1 0-.1.1h1.1c.4 0 .9-.1.9-.6 0-.2-.1-.3-.3-.4-.1 0-.2-.1-.2-.1s.4-.6.5-.8l.1-.1h.1s.1 0 .1-.1H3c-.1 0-.2.1-.2.2l-.4.6c-.1.1-.1.2-.3.2H2v-.5c0-.2.1-.3.3-.3 0 0 .1 0 .1-.1h-.2C2-1 1.9-1 1.7-1h-.5l.1.1c.1 0 .2.2.2.2V.7zM2 .2s0-.1.2-.1c.3 0 .4.1.4.4.1.3-.1.5-.4.5C2 1 2 .9 2 .8V.2zm2.8.8c0 .1.1.1.1.1L5 1l.8-1.6c0-.1.1-.2.2-.3.1 0 .1 0 .1-.1H5s0 .1.1.1.1.1.1.2-.1.3-.2.4c0 0-.1.1-.3.1h-.4C4.1-.2 4-.5 4-.6c0 0 .1-.1.2-.1s.2 0 .2-.1h-.1C4.2-1 4.1-1 4-1h-.4l.1.1c.1 0 .1.1.1.1l1 1.8zm-.4-1s-.1-.1 0 0c0-.1 0-.1.1-.1H5s0 .1-.1.1l-.2.4s0 .1-.1.1c0 0 0-.1-.1-.1L4.4 0zm2.1.7c0 .2-.1.3-.3.3 0 0-.1 0-.1.1 0 0 0 .1.1.1h1.1c0-.2-.1-.2-.1-.2C7 1 7 .8 7 .7V-.6c0-.2 0-.3.2-.3.4 0 .5.1.7.2.1.2.1.3.2.3l.1-.1c0-.3-.3-.5-.5-.5H6.3l.1.1c.1.1.1.2.1.3V.7z"/><path class="st2" d="M-5.2 1.4c0-.1 0-.1 0 0-.1-.1-.1 0-.1 0-.1.2-.5.3-.9.3-.7 0-1.2-.7-1.2-1.5S-7-1.4-6-1.4c.5 0 .8.3.9.3 0-.1-.5-.5-1.2-.5C-8-1.7-8.2-.4-8.2 0c0 1.1.7 1.9 1.8 1.9.4 0 .8-.2.9-.2.1 0 .1.1.1.1l.2-.4z"/></symbol><path class="st0" d="M280.6 141.7c0 76.7-62.2 138.9-138.9 138.9S2.8 218.4 2.8 141.7 65 2.8 141.7 2.8 280.6 65 280.6 141.7z"/><defs><path id="SVGID_3_" d="M263.3 141.7c0 67.1-54.4 121.5-121.5 121.5S20.3 208.8 20.3 141.7 74.7 20.2 141.8 20.2s121.5 54.4 121.5 121.5z"/></defs><clipPath id="SVGID_4_"><use xlink:href="#SVGID_3_" overflow="visible"/></clipPath><g clip-path="url(#SVGID_4_)"><use xlink:href="#Nouveau_symbole_27" width="51" height="51" x="-25.5" y="-25.5" transform="matrix(6.8055 0 0 -6.8055 141.73 141.734)" overflow="visible"/></g><use xlink:href="#SVGID_3_" overflow="visible" fill="none" stroke="#fff" stroke-width=".5" stroke-miterlimit="10"/></svg>