<?xml version="1.0" encoding="utf-8"?>
<!-- Generator: Adobe Illustrator 25.0.1, SVG Export Plug-In . SVG Version: 6.00 Build 0)  -->
<svg version="1.1" id="Layer_1" xmlns="http://www.w3.org/2000/svg" xmlns:xlink="http://www.w3.org/1999/xlink" x="0px" y="0px"
	 viewBox="0 0 283.5 283.5" style="enable-background:new 0 0 283.5 283.5;" xml:space="preserve">
<style type="text/css">
	.st0{fill:#FFEB00;}
	.st1{fill:#EE3E80;}
</style>
<symbol  id="Nouveau_symbole_8" viewBox="-25.5 -25.5 51 51">
	<g>
		<circle class="st0" cx="0" cy="0" r="25.5"/>
	</g>
	<g>
		<path class="st1" d="M8,8.5v15.7c-2.5,0.8-5.2,1.3-8,1.3s-5.5-0.5-8-1.3V8.5H8z"/>
		<path class="st1" d="M-8-8.5v-15.7c2.5-0.8,5.2-1.3,8-1.3s5.5,0.5,8,1.3v15.7H-8z"/>
	</g>
	<g>
	</g>
	<g>
		<path d="M-4,5.2c2.2,0,3.7-2.2,3.7-5.5S-1.8-5.8-4-5.8c-2.2,0-3.7,2.2-3.7,5.5S-6.2,5.2-4,5.2z M-4,3.4c-0.7,0-0.9-0.5-0.9-3.7
			C-4.9-3.4-4.7-4-4-4s0.9,0.5,0.9,3.7C-3.2,2.9-3.3,3.4-4,3.4z"/>
		<path d="M0.5-4h0.7v7.5H0.5v1.6H4c2.5,0,4-1.3,4-3.4c0-2.1-1.2-3.3-4.1-3.3V-4h0.9v-1.6H0.5V-4z M3.8-0.1c0.7,0,1.4,0.1,1.4,1.8
			c0,1.5-0.8,1.8-1.4,1.8V-0.1z"/>
	</g>
</symbol>
<g>
	<defs>
		<path id="SVGID_1_" d="M280.6,141.7c0,76.7-62.2,138.9-138.9,138.9C65,280.6,2.8,218.4,2.8,141.7C2.8,65,65,2.8,141.7,2.8
			C218.4,2.8,280.6,65,280.6,141.7z"/>
	</defs>
	<clipPath id="SVGID_2_">
		<use xlink:href="#SVGID_1_"  style="overflow:visible;"/>
	</clipPath>
	<g style="clip-path:url(#SVGID_2_);">
		
			<use xlink:href="#Nouveau_symbole_8"  width="51" height="51" x="-25.5" y="-25.5" transform="matrix(7.7777 0 0 -7.7777 139.5162 139.7824)" style="overflow:visible;"/>
	</g>
	<use xlink:href="#SVGID_1_"  style="overflow:visible;fill:none;stroke:#F3EEBF;stroke-miterlimit:10;"/>
</g>
</svg>
