<svg xmlns="http://www.w3.org/2000/svg" xmlns:xlink="http://www.w3.org/1999/xlink" viewBox="0 0 283.5 283.5"><symbol id="c" viewBox="-25.5 -25.5 51 51"><circle r="25.5" fill="#ffeb00"/><path d="M8 8.5v15.7c-2.5.8-5.2 1.3-8 1.3s-5.5-.5-8-1.3V8.5H8zm-16-17v-15.7c2.5-.8 5.2-1.3 8-1.3s5.5.5 8 1.3v15.7H-8z" fill="#ee3e80"/><path d="M-4 5.2C-1.8 5.2-.3 3-.3-.3S-1.8-5.8-4-5.8-7.7-3.6-7.7-.3-6.2 5.2-4 5.2zm0-1.8c-.7 0-.9-.5-.9-3.7 0-3.1.2-3.7.9-3.7s.9.5.9 3.7c-.1 3.2-.2 3.7-.9 3.7zM.5-4h.7v7.5H.5v1.6H4c2.5 0 4-1.3 4-3.4C8-.4 6.8-1.6 3.9-1.6V-4h.9v-1.6H.5V-4zM3.8-.1c.7 0 1.4.1 1.4 1.8 0 1.5-.8 1.8-1.4 1.8V-.1z"/></symbol><defs><path id="a" d="M280.6 141.7c0 76.7-62.2 138.9-138.9 138.9S2.8 218.4 2.8 141.7 65 2.8 141.7 2.8 280.6 65 280.6 141.7z"/></defs><clipPath id="b"><use xlink:href="#a" overflow="visible"/></clipPath><g clip-path="url(#b)"><use xlink:href="#c" width="51" height="51" x="-25.5" y="-25.5" transform="matrix(7.7777 0 0 -7.7777 139.516 139.782)" overflow="visible"/></g><use xlink:href="#a" overflow="visible" fill="none" stroke="#f3eebf" stroke-miterlimit="10"/></svg>