<?xml version="1.0" encoding="utf-8"?>
<!-- Generator: Adobe Illustrator 25.0.1, SVG Export Plug-In . SVG Version: 6.00 Build 0)  -->
<svg version="1.1" id="Layer_1" xmlns="http://www.w3.org/2000/svg" xmlns:xlink="http://www.w3.org/1999/xlink" x="0px" y="0px"
	 viewBox="0 0 283.5 283.5" style="enable-background:new 0 0 283.5 283.5;" xml:space="preserve">
<style type="text/css">
	.st0{fill:#009A54;}
	.st1{fill:#224B8F;}
	.st2{fill:#FFFFFF;}
</style>
<symbol  id="Nouveau_symbole_20" viewBox="-25.5 -25.5 51 51">
	<path class="st0" d="M25.5,0c0-14.1-11.4-25.5-25.5-25.5c-14.1,0-25.5,11.4-25.5,25.5c0,14.1,11.4,25.5,25.5,25.5
		C14.1,25.5,25.5,14.1,25.5,0z"/>
	<polygon class="st1" points="0,25.5 0.7,21.7 2.9,25.1 2.1,21.2 5.5,24.6 3.3,20.3 7.6,22.5 4.2,19.1 9,19.9 4.6,17.7 9.4,17 
		4.6,16.3 9,14.1 4.2,14.9 7.6,11.5 3.3,13.7 5.5,9.4 2.1,12.8 2.9,8.1 0.7,12.4 0,7.6 -0.7,12.4 -2.9,8.1 -2.1,12.8 -5.5,9.4 
		-3.3,13.7 -7.6,11.5 -4.2,14.9 -9,14.1 -4.6,16.3 -9.4,17 -4.6,17.7 -9,19.9 -4.2,19.1 -7.6,22.5 -3.3,20.3 -5.5,24.6 -2.1,21.2 
		-2.9,25.1 -0.7,21.7 	"/>
	<polygon class="st1" points="0,-25.5 0.7,-21.7 2.9,-25.1 2.1,-21.2 5.5,-24.6 3.3,-20.3 7.6,-22.5 4.2,-19.1 9,-19.9 4.6,-17.7 
		9.4,-17 4.6,-16.3 9,-14.1 4.2,-14.9 7.6,-11.5 3.3,-13.7 5.5,-9.4 2.1,-12.8 2.9,-8.1 0.7,-12.4 0,-7.6 -0.7,-12.4 -2.9,-8.1 
		-2.1,-12.8 -5.5,-9.4 -3.3,-13.7 -7.6,-11.5 -4.2,-14.9 -9,-14.1 -4.6,-16.3 -9.4,-17 -4.6,-17.7 -9,-19.9 -4.2,-19.1 -7.6,-22.5 
		-3.3,-20.3 -5.5,-24.6 -2.1,-21.2 -2.9,-25.1 -0.7,-21.7 	"/>
	<g>
	</g>
	<g>
		<path class="st2" d="M-2.2,0.2c0-0.9-0.2-1.7-0.6-2.4c-0.4-0.7-0.9-1.3-1.7-1.7S-6-4.6-7-4.6c0.1,0,0.3-0.1,0.6-0.2
			C-6-5-5.7-5.2-5.3-5.3C-5-5.3-4.7-5.4-4.4-5.4c0.2,0,0.3,0,0.4,0l-0.6-1.5c0,0-0.1,0-0.3,0c-0.3,0-0.6,0.1-0.9,0.2
			C-6-6.6-6.4-6.5-6.9-6.2c-0.4,0.2-0.7,0.3-0.9,0.4C-8-5.7-8.3-5.7-8.5-5.7c-0.5,0-1-0.2-1.4-0.6l-0.6,0.9c0.4,0.5,0.9,0.7,1.6,0.8
			c-0.8,0.2-1.4,0.5-2,1c-0.6,0.4-1,1-1.3,1.6c-0.3,0.6-0.5,1.3-0.5,2.1c0,0.9,0.2,1.8,0.7,2.5s1.1,1.3,1.8,1.7
			C-9.4,4.8-8.4,5-7.4,5c1,0,1.9-0.2,2.7-0.6c0.8-0.4,1.4-1,1.8-1.7C-2.4,1.9-2.2,1.1-2.2,0.2z M-7.4-3c0.5,0,1,0.1,1.4,0.4
			c0.4,0.3,0.7,0.6,0.9,1.1c0.2,0.5,0.3,1,0.3,1.6c0,0.6-0.1,1.1-0.3,1.6c-0.2,0.5-0.5,0.8-0.9,1.1c-0.4,0.3-0.9,0.4-1.4,0.4
			c-0.5,0-1-0.1-1.4-0.4c-0.4-0.3-0.7-0.6-0.9-1.1s-0.3-1-0.3-1.6c0-0.6,0.1-1.1,0.3-1.6s0.5-0.9,0.9-1.1S-7.9-3-7.4-3z"/>
		<path class="st2" d="M1.7,3.2V-3h2.8v2.9h1.8v-4.5h-8.4V-3h1.3v6.2h-1.3v1.6h5.2V3.2H1.7z"/>
		<path class="st2" d="M10.8,4v0.8h1.6V2h-1.6c-0.1,0.5-0.2,0.8-0.4,1c-0.2,0.2-0.5,0.3-0.9,0.3c-0.3,0-0.5-0.1-0.7-0.2
			C8.6,3,8.5,2.8,8.5,2.6c0-0.2,0.1-0.4,0.2-0.5C8.8,2,8.9,1.8,9.1,1.7c0.2-0.1,0.5-0.2,0.8-0.4l0.4-0.2c0.8-0.4,1.4-0.8,1.9-1.3
			s0.6-1.1,0.6-1.8c0-0.9-0.2-1.5-0.7-2c-0.5-0.5-1.2-0.7-2-0.7c-0.8,0-1.4,0.3-1.9,0.9v-0.8H6.6v3.2h1.6c0-0.6,0.2-1,0.4-1.3
			c0.3-0.3,0.6-0.4,1-0.4c0.3,0,0.5,0.1,0.7,0.3c0.2,0.2,0.3,0.4,0.3,0.7c0,0.3-0.1,0.5-0.3,0.8C10.1-1,9.7-0.8,9.1-0.6
			c-0.9,0.4-1.6,0.8-2,1.3c-0.4,0.5-0.6,1-0.6,1.6c0,0.5,0.1,0.9,0.3,1.3c0.2,0.4,0.5,0.7,0.9,0.9C8.1,4.8,8.6,4.9,9,4.9
			c0.4,0,0.7-0.1,1-0.2C10.3,4.6,10.6,4.3,10.8,4z"/>
	</g>
</symbol>
<g>
	<defs>
		<path id="SVGID_1_" d="M280.6,141.7c0,76.7-62.2,138.9-138.9,138.9S2.8,218.4,2.8,141.7C2.8,65,65,2.8,141.7,2.8
			S280.6,65,280.6,141.7z"/>
	</defs>
	<clipPath id="SVGID_2_">
		<use xlink:href="#SVGID_1_"  style="overflow:visible;"/>
	</clipPath>
	<g style="clip-path:url(#SVGID_2_);">
		
			<use xlink:href="#Nouveau_symbole_20"  width="51" height="51" x="-25.5" y="-25.5" transform="matrix(7.7777 0 0 -7.7777 139.5175 139.7789)" style="overflow:visible;"/>
	</g>
	<use xlink:href="#SVGID_1_"  style="overflow:visible;fill:none;stroke:#F3EEBF;stroke-miterlimit:10;"/>
</g>
</svg>
