<svg xmlns="http://www.w3.org/2000/svg" xmlns:xlink="http://www.w3.org/1999/xlink" viewBox="0 0 283.5 283.5"><symbol id="c" viewBox="-25.5 -25.5 51 51"><path d="M25.5 0c0-14.1-11.4-25.5-25.5-25.5S-25.5-14.1-25.5 0-14.1 25.5 0 25.5 25.5 14.1 25.5 0z" fill="#009a54"/><path d="M0 25.5l.7-3.8 2.2 3.4-.8-3.9 3.4 3.4-2.2-4.3 4.3 2.2-3.4-3.4 4.8.8-4.4-2.2 4.8-.7-4.8-.7L9 14.1l-4.8.8 3.4-3.4-4.3 2.2 2.2-4.3-3.4 3.4.8-4.7-2.2 4.3L0 7.6l-.7 4.8-2.2-4.3.8 4.7-3.4-3.4 2.2 4.3-4.3-2.2 3.4 3.4-4.8-.8 4.4 2.2-4.8.7 4.8.7-4.4 2.2 4.8-.8-3.4 3.4 4.3-2.2-2.2 4.3 3.4-3.4-.8 3.9 2.2-3.4zm0-51l.7 3.8 2.2-3.4-.8 3.9 3.4-3.4-2.2 4.3 4.3-2.2-3.4 3.4 4.8-.8-4.4 2.2 4.8.7-4.8.7L9-14.1l-4.8-.8 3.4 3.4-4.3-2.2 2.2 4.3-3.4-3.4.8 4.7-2.2-4.3L0-7.6l-.7-4.8-2.2 4.3.8-4.7-3.4 3.4 2.2-4.3-4.3 2.2 3.4-3.4-4.8.8 4.4-2.2-4.8-.7 4.8-.7-4.4-2.2 4.8.8-3.4-3.4 4.3 2.2-2.2-4.3 3.4 3.4-.8-3.9 2.2 3.4z" fill="#224b8f"/><path d="M-2.2.2c0-.9-.2-1.7-.6-2.4-.4-.7-.9-1.3-1.7-1.7S-6-4.6-7-4.6c.1 0 .3-.1.6-.2.4-.2.7-.4 1.1-.5.3 0 .6-.1.9-.1h.4l-.6-1.5h-.3c-.3 0-.6.1-.9.2-.2.1-.6.2-1.1.5-.4.2-.7.3-.9.4-.2.1-.5.1-.7.1-.5 0-1-.2-1.4-.6l-.6.9c.4.5.9.7 1.6.8-.8.2-1.4.5-2 1-.6.4-1 1-1.3 1.6-.3.6-.5 1.3-.5 2.1 0 .9.2 1.8.7 2.5s1.1 1.3 1.8 1.7c.8.5 1.8.7 2.8.7 1 0 1.9-.2 2.7-.6.8-.4 1.4-1 1.8-1.7.5-.8.7-1.6.7-2.5zM-7.4-3c.5 0 1 .1 1.4.4.4.3.7.6.9 1.1.2.5.3 1 .3 1.6 0 .6-.1 1.1-.3 1.6-.2.5-.5.8-.9 1.1-.4.3-.9.4-1.4.4-.5 0-1-.1-1.4-.4-.4-.3-.7-.6-.9-1.1s-.3-1-.3-1.6c0-.6.1-1.1.3-1.6s.5-.9.9-1.1.9-.4 1.4-.4zm9.1 6.2V-3h2.8v2.9h1.8v-4.5h-8.4V-3h1.3v6.2h-1.3v1.6h5.2V3.2H1.7zm9.1.8v.8h1.6V2h-1.6c-.1.5-.2.8-.4 1-.2.2-.5.3-.9.3-.3 0-.5-.1-.7-.2-.2-.1-.3-.3-.3-.5s.1-.4.2-.5c.1-.1.2-.3.4-.4.2-.1.5-.2.8-.4l.4-.2c.8-.4 1.4-.8 1.9-1.3s.6-1.1.6-1.8c0-.9-.2-1.5-.7-2-.5-.5-1.2-.7-2-.7s-1.4.3-1.9.9v-.8H6.6v3.2h1.6c0-.6.2-1 .4-1.3.3-.3.6-.4 1-.4.3 0 .5.1.7.3.2.2.3.4.3.7 0 .3-.1.5-.3.8-.2.3-.6.5-1.2.7-.9.4-1.6.8-2 1.3-.4.5-.6 1-.6 1.6 0 .5.1.9.3 1.3.2.4.5.7.9.9.4.3.9.4 1.3.4s.7-.1 1-.2c.3-.1.6-.4.8-.7z" fill="#fff"/></symbol><defs><path id="a" d="M280.6 141.7c0 76.7-62.2 138.9-138.9 138.9S2.8 218.4 2.8 141.7 65 2.8 141.7 2.8 280.6 65 280.6 141.7z"/></defs><clipPath id="b"><use xlink:href="#a" overflow="visible"/></clipPath><g clip-path="url(#b)"><use xlink:href="#c" width="51" height="51" x="-25.5" y="-25.5" transform="matrix(7.7777 0 0 -7.7777 139.518 139.779)" overflow="visible"/></g><use xlink:href="#a" overflow="visible" fill="none" stroke="#f3eebf" stroke-miterlimit="10"/></svg>