<svg xmlns="http://www.w3.org/2000/svg" xmlns:xlink="http://www.w3.org/1999/xlink" viewBox="0 0 283.5 283.5"><symbol id="c" viewBox="-25.5 -25.5 51 51"><circle transform="rotate(-67.5 0 .001)" fill="#009a54" r="25.5"/><path d="M-4.3 7.3L-19 17c4.7 5.2 11.5 8.5 19 8.5 7.6 0 14.3-3.3 19-8.5L4.3 7.3 5 18.7-.1 8.5-5 18.3l.7-11zM0-25.5c7.6 0 14.3 3.3 19 8.5L4.3-7.3 5-18.7-.1-8.5-5-18.3l.7 11L-19-17c4.7-5.2 11.5-8.5 19-8.5z" fill="#4c626e"/><path d="M-7.5 3.6v.7H-6V1.7h-1.5c-.1.4-.2.8-.4 1-.3.1-.6.3-.9.3-.2 0-.4-.1-.6-.3s-.3-.3-.3-.5.1-.3.2-.5.2-.2.4-.3l.8-.4.3-.1C-7.2.6-6.6.2-6.2-.3s.6-1 .6-1.7c0-.8-.2-1.4-.7-1.9s-1.1-.7-1.9-.7c-.8 0-1.4.3-1.8.9v-.8h-1.5v3h1.5c0-.5.2-.9.4-1.2s.6-.4 1-.4c.3 0 .5.1.7.3.2.2.3.4.3.7 0 .3-.1.5-.3.7-.3.2-.6.4-1.1.6-.9.4-1.5.8-1.9 1.2s-.6.9-.6 1.5c0 .4.1.9.3 1.2s.5.7.9.9c.4.2.8.3 1.2.3.3 0 .7-.1.9-.2.2 0 .5-.2.7-.5zm6-.8V-3h2.6v2.7h1.7v-4.2h-7.9V-3h1.3v5.8h-1.3v1.5h4.9V2.8h-1.3zm10.6 0L11-3h1v-1.5H7.7V-3h1.1l-.4 1.5H6.1L5.6-3h1.2v-1.5H2.9V-3H4l1.7 5.8H4.5v1.5h5.8V2.8H9.1zm-1.8-.3L6.5-.2H8l-.7 2.7z" fill="#fff"/></symbol><defs><path id="a" d="M280.6 141.7c0 76.7-62.2 138.9-138.9 138.9S2.8 218.4 2.8 141.7 65 2.8 141.7 2.8 280.6 65 280.6 141.7z"/></defs><clipPath id="b"><use xlink:href="#a" overflow="visible"/></clipPath><g clip-path="url(#b)"><use xlink:href="#c" width="51" height="51" x="-25.5" y="-25.5" transform="matrix(7.7777 0 0 -7.7777 139.52 139.781)" overflow="visible"/></g><use xlink:href="#a" overflow="visible" fill="none" stroke="#f3eebf" stroke-miterlimit="10"/></svg>