<?xml version="1.0" encoding="utf-8"?>
<!-- Generator: Adobe Illustrator 25.0.1, SVG Export Plug-In . SVG Version: 6.00 Build 0)  -->
<svg version="1.1" id="Layer_1" xmlns="http://www.w3.org/2000/svg" xmlns:xlink="http://www.w3.org/1999/xlink" x="0px" y="0px"
	 viewBox="0 0 283.5 283.5" style="enable-background:new 0 0 283.5 283.5;" xml:space="preserve">
<style type="text/css">
	.st0{fill:#009A54;}
	.st1{fill:#4C626E;}
	.st2{fill:#FFFFFF;}
</style>
<symbol  id="Nouveau_symbole_3" viewBox="-25.5 -25.5 51 51">
	
		<ellipse transform="matrix(0.3827 -0.9239 0.9239 0.3827 -9.132550e-04 6.102176e-04)" class="st0" cx="0" cy="0" rx="25.5" ry="25.5"/>
	<path class="st1" d="M-4.3,7.3L-19,17c4.7,5.2,11.5,8.5,19,8.5c7.6,0,14.3-3.3,19-8.5L4.3,7.3L5,18.7L-0.1,8.5L-5,18.3L-4.3,7.3z
		 M0-25.5c7.6,0,14.3,3.3,19,8.5L4.3-7.3L5-18.7L-0.1-8.5L-5-18.3l0.7,11L-19-17C-14.3-22.2-7.5-25.5,0-25.5z"/>
	<g>
	</g>
	<g>
		<path class="st2" d="M-7.5,3.6v0.7H-6V1.7h-1.5c-0.1,0.4-0.2,0.8-0.4,1C-8.2,2.8-8.5,3-8.8,3C-9,3-9.2,2.9-9.4,2.7
			s-0.3-0.3-0.3-0.5c0-0.2,0.1-0.3,0.2-0.5s0.2-0.2,0.4-0.3s0.4-0.2,0.8-0.4L-8,0.9c0.8-0.3,1.4-0.7,1.8-1.2s0.6-1,0.6-1.7
			c0-0.8-0.2-1.4-0.7-1.9s-1.1-0.7-1.9-0.7c-0.8,0-1.4,0.3-1.8,0.9v-0.8h-1.5v3h1.5c0-0.5,0.2-0.9,0.4-1.2s0.6-0.4,1-0.4
			c0.3,0,0.5,0.1,0.7,0.3c0.2,0.2,0.3,0.4,0.3,0.7c0,0.3-0.1,0.5-0.3,0.7C-8.2-1.2-8.5-1-9-0.8c-0.9,0.4-1.5,0.8-1.9,1.2
			s-0.6,0.9-0.6,1.5c0,0.4,0.1,0.9,0.3,1.2s0.5,0.7,0.9,0.9c0.4,0.2,0.8,0.3,1.2,0.3c0.3,0,0.7-0.1,0.9-0.2C-8,4.1-7.7,3.9-7.5,3.6z
			"/>
		<path class="st2" d="M-1.5,2.8V-3h2.6v2.7h1.7v-4.2h-7.9V-3h1.3v5.8h-1.3v1.5h4.9V2.8H-1.5z"/>
		<path class="st2" d="M9.1,2.8L11-3H12v-1.5H7.7V-3h1.1L8.4-1.5H6.1L5.6-3h1.2v-1.5H2.9V-3H4l1.7,5.8H4.5v1.5h5.8V2.8H9.1z
			 M7.3,2.5L6.5-0.2H8L7.3,2.5z"/>
	</g>
</symbol>
<g>
	<defs>
		<path id="SVGID_1_" d="M280.6,141.7c0,76.7-62.2,138.9-138.9,138.9C65,280.6,2.8,218.4,2.8,141.7C2.8,65,65,2.8,141.7,2.8
			C218.4,2.8,280.6,65,280.6,141.7z"/>
	</defs>
	<clipPath id="SVGID_2_">
		<use xlink:href="#SVGID_1_"  style="overflow:visible;"/>
	</clipPath>
	<g style="clip-path:url(#SVGID_2_);">
		
			<use xlink:href="#Nouveau_symbole_3"  width="51" height="51" x="-25.5" y="-25.5" transform="matrix(7.7777 0 0 -7.7777 139.5192 139.781)" style="overflow:visible;"/>
	</g>
	<use xlink:href="#SVGID_1_"  style="overflow:visible;fill:none;stroke:#F3EEBF;stroke-miterlimit:10;"/>
</g>
</svg>
