<svg xmlns="http://www.w3.org/2000/svg" xmlns:xlink="http://www.w3.org/1999/xlink" viewBox="0 0 283.5 283.5"><symbol id="c" viewBox="-25.5 -25.5 51 51.1"><circle transform="rotate(-67.5 0 .001)" fill="#009a54" r="25.5"/><path d="M-1.8 8.6h-.5c-.5 0-.9.1-1.3.4-.4.4-.7.9-.9 1.6-.2.7-.1 1.5.1 2.3-.8-.3-1.6-.3-2.3-.1-.7.2-1.2.5-1.6.9-.3.4-.4.8-.4 1.3v.5c.1.8.6 1.3 1.2 1.6-.7.3-1.1.8-1.2 1.6v.5c0 .5.1.9.4 1.3.4.5.9.8 1.6.9.7.2 1.5.1 2.3-.1-.3.8-.3 1.6-.1 2.3.2.7.5 1.2.9 1.6.4.3.8.5 1.3.5.2 0 .4 0 .5-.1.8-.1 1.3-.6 1.6-1.2.3.7.8 1.1 1.6 1.2h.5c.5 0 .9-.1 1.3-.4.5-.4.8-.9.9-1.6.2-.8.1-1.6-.1-2.4.8.3 1.6.3 2.3.1.7-.1 1.2-.4 1.6-.9.3-.4.4-.8.4-1.3v-.5c-.2-.8-.6-1.3-1.3-1.6.7-.3 1.1-.8 1.2-1.6v-.5c0-.5-.1-.9-.4-1.3-.4-.5-.9-.8-1.6-.9-.7-.2-1.5-.1-2.3.1.3-.8.3-1.6.1-2.3 0-.7-.3-1.2-.8-1.6-.4-.2-.8-.4-1.3-.4h-.6c-.7.2-1.2.6-1.5 1.3-.3-.7-.8-1.1-1.6-1.2zm-5.5 14.5c0 .3.1.6.3.8.2.2.4.3.8.3.3 0 .6-.2.8-.4.1-.2.3-.6.5-1.1.2-.6.3-1 .4-1.1-.1.1-.5.2-1.1.4-.6.2-1 .3-1.1.5-.5 0-.6.3-.6.6zm1-13.2c-.3 0-.6.1-.8.3-.2.2-.3.4-.2.8 0 .3.1.6.4.8.2.1.5.3 1.1.5.6.2 1 .3 1.1.4-.1-.1-.2-.5-.4-1.1-.2-.6-.3-1-.5-1.1-.1-.4-.4-.6-.7-.6zm1.2 7.4l1.4.7c.6.3 1.3.2 2-.1 0 0 .1.1.1.2-.1.2-.5.4-1.3.9-1 .6-1.9.8-2.7.8.5-.3.7-.7.6-1.3-.1-.6-.5-1.1-1-1.3.6-.3.9-.7 1-1.3.1-.6-.1-1.1-.6-1.4.8 0 1.6.2 2.6.7.6.4 1.1.7 1.3.9 0 .1-.1.1-.1.2-.7-.3-1.4-.4-2-.1l-1.4.7c-.1 0-.3.1-.3.1 0 .1.2.2.4.3zm4.6-5.1l-.7 1.4c-.3.6-.2 1.3.1 2 0 0-.1.1-.2.1-.1-.1-.4-.5-.9-1.3-.6-1-.8-1.9-.8-2.6.3.5.7.7 1.3.5.6-.1 1.1-.5 1.3-1 .3.6.7.9 1.3 1 .6.1 1.1 0 1.4-.5 0 .8-.2 1.6-.8 2.6-.3.6-.6 1.1-.9 1.3 0 0-.1-.1-.2-.1.3-.7.4-1.4.1-2l-.7-1.4c-.1-.3-.2-.4-.3-.4.2 0 .1.1 0 .4zm.6 9.7l.7-1.4c.3-.6.2-1.3-.1-2 0 0 .1-.1.2-.1.2.1.4.5.9 1.3.6 1 .8 1.9.8 2.7-.3-.5-.7-.7-1.3-.6-.6.1-1.1.5-1.3 1-.3-.6-.7-.9-1.3-1-.6-.1-1.1.1-1.4.6 0-.8.2-1.6.7-2.6.4-.7.7-1.1.9-1.3.1 0 .1.1.2.1-.3.7-.4 1.4-.1 2l.7 1.4c.1.3.2.4.3.4-.1-.1 0-.3.1-.5zm4.6-5.2c-1-.5-1.5-.7-1.4-.7-.6-.3-1.3-.2-2.1.1 0 0-.1-.1-.1-.2.1-.1.5-.4 1.3-.9 1-.6 1.9-.8 2.7-.8-.5.3-.7.7-.6 1.3.1.6.5 1.1 1 1.3-.6.3-.9.7-1 1.3-.1.6.1 1.1.6 1.4-.8 0-1.6-.2-2.6-.8-.6-.3-1.1-.6-1.3-.9 0-.1.1-.1.1-.2.7.3 1.4.4 2 .1l1.4-.7c.2.2.3.1.4 0-.1-.1-.2-.2-.4-.3zm1.2 7.4c.3 0 .6-.1.8-.3.2-.2.3-.5.3-.8 0-.3-.2-.6-.4-.7-.2-.1-.6-.3-1.2-.4-.6-.2-1-.3-1.1-.4.1.1.2.5.4 1.1.2.6.3.9.5 1.1.1.3.3.4.7.4zm1-13.2c0-.3-.1-.6-.3-.8-.2-.1-.4-.2-.7-.2-.3 0-.6.1-.7.4-.1.2-.3.5-.5 1.1-.2.6-.3 1-.4 1.1.1-.1.5-.2 1.1-.4.6-.1.9-.3 1.1-.4.3-.2.4-.5.4-.8zM-.2-9.8c.3.7.8 1.1 1.6 1.2H2c.5 0 .9-.1 1.3-.4.4-.3.7-.8.8-1.5.2-.8.1-1.5-.1-2.3.8.3 1.6.3 2.3.1.7-.2 1.2-.5 1.6-.9.3-.4.4-.8.4-1.3v-.5c-.2-.8-.6-1.3-1.3-1.6.7-.3 1.1-.8 1.2-1.6v-.5c0-.5-.1-.9-.4-1.3-.4-.5-.9-.8-1.6-.9-.7-.2-1.5-.1-2.3.1.3-.8.3-1.6.1-2.3-.1-.7-.4-1.2-.9-1.6-.4-.3-.8-.4-1.3-.4h-.5c-.8.1-1.3.6-1.6 1.2-.3-.7-.8-1.1-1.6-1.2-.2 0-.4-.1-.5-.1-.5 0-.9.2-1.3.5-.4.4-.7.9-.9 1.6-.2.7-.1 1.5.1 2.3-.8-.3-1.6-.3-2.3-.1-.7.1-1.2.4-1.6.9-.3.4-.4.8-.4 1.3v.5c.1.8.6 1.3 1.2 1.6-.7.3-1.1.8-1.2 1.6v.5c0 .5.1.9.4 1.3.4.5.9.8 1.6.9.7.2 1.5.1 2.3-.1-.3.8-.3 1.6-.1 2.3.2.7.5 1.2.9 1.6.4.3.8.4 1.3.4h.5c.9-.2 1.4-.6 1.7-1.3zm-6.7-12.5c.2.1.6.3 1.1.5.6.2 1 .3 1.1.4-.1-.1-.2-.5-.4-1.1-.2-.6-.3-1-.5-1.1-.1-.4-.4-.5-.7-.5-.3 0-.6.1-.8.3-.2.2-.3.5-.3.8.1.2.2.5.5.7zm1.4 12c.1-.2.3-.6.5-1.1.2-.6.3-1 .4-1.1-.1.1-.5.2-1.1.4-.6.2-1 .3-1.1.5-.2.2-.3.4-.4.8 0 .3 0 .6.2.8.2.2.5.3.8.3.2-.2.5-.4.7-.6zm0-6.7s.1.1.4.3l1.4.7c.6.2 1.3.2 2-.1 0 .1.1.1.1.2-.2.2-.7.5-1.3.9-1 .5-1.8.7-2.6.7.5-.3.7-.7.6-1.4-.1-.6-.5-1-1-1.3.6-.3.9-.7 1-1.3.1-.6-.1-1.1-.6-1.3.8 0 1.7.3 2.7.8.7.4 1.2.7 1.3.9 0 .1-.1.1-.1.2-.8-.3-1.4-.4-2-.1l-1.4.7c-.3-.1-.5 0-.5.1zm5.3 5.2c.1 0 .2-.1.3-.4l.7-1.4c.2-.6.2-1.3-.1-2 .1 0 .1-.1.2-.1.3.2.6.7.9 1.3.5 1 .8 1.8.8 2.6-.3-.5-.7-.7-1.4-.5-.6.1-1.1.5-1.3 1-.3-.6-.7-.9-1.3-1-.6-.1-1.1 0-1.3.5 0-.8.2-1.7.8-2.6.4-.7.7-1.2.9-1.3.1 0 .1.1.2.1-.3.8-.4 1.4-.1 2l.7 1.4c-.2.3-.1.4 0 .4zm0-10.5c-.1 0-.2.1-.3.4l-.7 1.4c-.2.6-.2 1.3.1 2-.1 0-.1.1-.2.1-.2-.2-.5-.7-.9-1.3-.5-.9-.7-1.8-.7-2.6.3.5.7.7 1.4.6.6-.1 1-.5 1.3-1 .3.6.7.9 1.3 1 .6.1 1.1-.1 1.3-.6 0 .8-.3 1.7-.8 2.7-.4.7-.7 1.2-.9 1.3-.1 0-.1-.1-.2-.1.3-.7.4-1.4.1-2l-.7-1.4c.1-.3 0-.5-.1-.5zM5.1-17c0-.1-.1-.2-.4-.3L3.3-18c-.6-.2-1.3-.2-2 .1 0-.1-.1-.1-.1-.2.2-.2.7-.5 1.3-.9 1-.5 1.8-.8 2.6-.8-.5.3-.7.7-.6 1.4.1.6.5 1.1 1 1.3-.6.3-.9.7-1 1.3-.1.6.1 1.1.6 1.3-.8 0-1.7-.2-2.7-.8-.7-.4-1.2-.7-1.3-.9 0-.1.1-.1.1-.2.8.3 1.5.4 2.1.1l1.4-.7c.2.2.3.1.4 0zm0-6.7c-.1.2-.3.6-.5 1.1-.2.6-.3 1-.4 1.1.1-.1.5-.2 1.1-.4.6-.2 1-.3 1.1-.5.2-.2.4-.4.4-.7 0-.3-.1-.6-.3-.8-.2-.2-.5-.3-.8-.3-.2.1-.4.2-.6.5zm1.4 12c-.2-.1-.5-.3-1.1-.5-.6-.2-1-.3-1.1-.4.1.1.2.5.4 1.1.2.6.3 1 .5 1.1.2.2.4.3.7.4.3 0 .6-.1.8-.3.2-.2.3-.4.3-.8-.1-.1-.2-.4-.5-.6z" fill="#173942"/><path d="M-6.7.6v2.1h-1.4v-5.8h1.3v-1.5h-5v1.5h1.3v5.8h-1.3V.6h-1.5v3.6h8V.6h-1.4zm9.3 2.9v.7h1.5V1.1H2.6c-.2.5-.5.9-1 1.2s-.9.5-1.4.5c-.5 0-1-.1-1.3-.3s-.7-.6-.9-1-.4-1-.4-1.5c0-1 .2-1.7.7-2.3s1.1-.8 1.9-.8c.5 0 1 .1 1.3.4s.6.6.7 1.1H.7v1.5h4.2c0-1-.2-1.8-.6-2.5s-.9-1.2-1.7-1.6-1.5-.5-2.5-.5-1.9.2-2.6.5-1.3.9-1.7 1.6-.6 1.5-.6 2.4c0 .9.2 1.7.6 2.3s1 1.2 1.7 1.6 1.5.6 2.4.6c1.1 0 2-.2 2.7-.8zm10.3-1.6c0-.9-.4-1.5-1.2-1.8.5-.2.9-.5 1.2-.8s.4-.8.4-1.3c0-1.7-1.3-2.6-3.9-2.6H5.3v1.5h1.1v5.8H5.3v1.5h4.1c1.2 0 2.1-.2 2.7-.6s.8-.9.8-1.7zm-2.3-.1c0 .3-.1.6-.4.7s-.6.2-1 .2h-.6v-2h.7c.4 0 .7.1.9.2s.4.5.4.9zm.3-3.8c0 .4-.1.7-.4.9s-.7.3-1.3.3h-.6v-2.3h.9c.4 0 .7.1 1 .3s.4.4.4.8z" fill="#fff"/></symbol><defs><path id="a" d="M280.6 141.7c0 76.7-62.2 138.9-138.9 138.9S2.8 218.4 2.8 141.7 65 2.8 141.7 2.8 280.6 65 280.6 141.7z"/></defs><clipPath id="b"><use xlink:href="#a" overflow="visible"/></clipPath><g clip-path="url(#b)"><use xlink:href="#c" width="51" height="51.1" x="-25.5" y="-25.5" transform="matrix(7.7777 0 0 -7.7777 139.518 139.781)" overflow="visible"/></g><use xlink:href="#a" overflow="visible" fill="none" stroke="#f3eebf" stroke-miterlimit="10"/></svg>