<?xml version="1.0" encoding="utf-8"?>
<!-- Generator: Adobe Illustrator 25.0.1, SVG Export Plug-In . SVG Version: 6.00 Build 0)  -->
<svg version="1.1" id="Layer_1" xmlns="http://www.w3.org/2000/svg" xmlns:xlink="http://www.w3.org/1999/xlink" x="0px" y="0px"
	 viewBox="0 0 283.5 283.5" style="enable-background:new 0 0 283.5 283.5;" xml:space="preserve">
<style type="text/css">
	.st0{fill:#009A54;}
	.st1{fill:#173942;}
	.st2{fill:#FFFFFF;}
</style>
<symbol  id="Nouveau_symbole_2" viewBox="-25.5 -25.5 51 51.1">
	
		<ellipse transform="matrix(0.3827 -0.9239 0.9239 0.3827 -9.132550e-04 6.102176e-04)" class="st0" cx="0" cy="0" rx="25.5" ry="25.5"/>
	<path class="st1" d="M-1.8,8.6c-0.2,0-0.4,0-0.5,0c-0.5,0-0.9,0.1-1.3,0.4c-0.4,0.4-0.7,0.9-0.9,1.6c-0.2,0.7-0.1,1.5,0.1,2.3
		c-0.8-0.3-1.6-0.3-2.3-0.1c-0.7,0.2-1.2,0.5-1.6,0.9c-0.3,0.4-0.4,0.8-0.4,1.3c0,0.2,0,0.3,0,0.5c0.1,0.8,0.6,1.3,1.2,1.6
		c-0.7,0.3-1.1,0.8-1.2,1.6c0,0.2,0,0.3,0,0.5c0,0.5,0.1,0.9,0.4,1.3c0.4,0.5,0.9,0.8,1.6,0.9c0.7,0.2,1.5,0.1,2.3-0.1
		c-0.3,0.8-0.3,1.6-0.1,2.3c0.2,0.7,0.5,1.2,0.9,1.6c0.4,0.3,0.8,0.5,1.3,0.5c0.2,0,0.4,0,0.5-0.1c0.8-0.1,1.3-0.6,1.6-1.2
		c0.3,0.7,0.8,1.1,1.6,1.2c0.2,0,0.3,0,0.5,0c0.5,0,0.9-0.1,1.3-0.4c0.5-0.4,0.8-0.9,0.9-1.6C4.3,22.8,4.2,22,4,21.2
		c0.8,0.3,1.6,0.3,2.3,0.1c0.7-0.1,1.2-0.4,1.6-0.9c0.3-0.4,0.4-0.8,0.4-1.3c0-0.2,0-0.4,0-0.5C8.1,17.8,7.7,17.3,7,17
		c0.7-0.3,1.1-0.8,1.2-1.6c0-0.2,0-0.3,0-0.5c0-0.5-0.1-0.9-0.4-1.3c-0.4-0.5-0.9-0.8-1.6-0.9c-0.7-0.2-1.5-0.1-2.3,0.1
		c0.3-0.8,0.3-1.6,0.1-2.3C4,9.8,3.7,9.3,3.2,8.9C2.8,8.7,2.4,8.5,1.9,8.5c-0.2,0-0.4,0-0.6,0C0.6,8.7,0.1,9.1-0.2,9.8
		C-0.5,9.1-1,8.7-1.8,8.6z M-7.3,23.1c0,0.3,0.1,0.6,0.3,0.8c0.2,0.2,0.4,0.3,0.8,0.3c0.3,0,0.6-0.2,0.8-0.4
		c0.1-0.2,0.3-0.6,0.5-1.1c0.2-0.6,0.3-1,0.4-1.1c-0.1,0.1-0.5,0.2-1.1,0.4c-0.6,0.2-1,0.3-1.1,0.5C-7.2,22.5-7.3,22.8-7.3,23.1z
		 M-6.3,9.9c-0.3,0-0.6,0.1-0.8,0.3c-0.2,0.2-0.3,0.4-0.2,0.8c0,0.3,0.1,0.6,0.4,0.8c0.2,0.1,0.5,0.3,1.1,0.5c0.6,0.2,1,0.3,1.1,0.4
		c-0.1-0.1-0.2-0.5-0.4-1.1c-0.2-0.6-0.3-1-0.5-1.1C-5.7,10.1-6,9.9-6.3,9.9z M-5.1,17.3c1,0.5,1.4,0.7,1.4,0.7
		c0.6,0.3,1.3,0.2,2-0.1c0,0,0.1,0.1,0.1,0.2c-0.1,0.2-0.5,0.4-1.3,0.9c-1,0.6-1.9,0.8-2.7,0.8v0c0.5-0.3,0.7-0.7,0.6-1.3
		c-0.1-0.6-0.5-1.1-1-1.3c0.6-0.3,0.9-0.7,1-1.3c0.1-0.6-0.1-1.1-0.6-1.4v0c0.8,0,1.6,0.2,2.6,0.7c0.6,0.4,1.1,0.7,1.3,0.9
		c0,0.1-0.1,0.1-0.1,0.2c-0.7-0.3-1.4-0.4-2-0.1c0,0-0.4,0.2-1.4,0.7C-5.3,16.9-5.5,17-5.5,17C-5.5,17.1-5.3,17.2-5.1,17.3z
		 M-0.5,12.2c-0.5,1-0.7,1.4-0.7,1.4c-0.3,0.6-0.2,1.3,0.1,2c0,0-0.1,0.1-0.2,0.1c-0.1-0.1-0.4-0.5-0.9-1.3c-0.6-1-0.8-1.9-0.8-2.6
		v0c0,0,0,0,0,0c0.3,0.5,0.7,0.7,1.3,0.5c0.6-0.1,1.1-0.5,1.3-1c0.3,0.6,0.7,0.9,1.3,1c0.6,0.1,1.1,0,1.4-0.5v0h0
		c0,0.8-0.2,1.6-0.8,2.6c-0.3,0.6-0.6,1.1-0.9,1.3c0,0-0.1-0.1-0.2-0.1c0.3-0.7,0.4-1.4,0.1-2c0,0-0.2-0.4-0.7-1.4
		c-0.1-0.3-0.2-0.4-0.3-0.4C-0.3,11.8-0.4,11.9-0.5,12.2z M0.1,21.9c0.5-1,0.7-1.4,0.7-1.4c0.3-0.6,0.2-1.3-0.1-2
		c0,0,0.1-0.1,0.2-0.1c0.2,0.1,0.4,0.5,0.9,1.3c0.6,1,0.8,1.9,0.8,2.7h0c-0.3-0.5-0.7-0.7-1.3-0.6c-0.6,0.1-1.1,0.5-1.3,1
		c-0.3-0.6-0.7-0.9-1.3-1c-0.6-0.1-1.1,0.1-1.4,0.6h0c0-0.8,0.2-1.6,0.7-2.6c0.4-0.7,0.7-1.1,0.9-1.3c0.1,0,0.1,0.1,0.2,0.1
		c-0.3,0.7-0.4,1.4-0.1,2c0,0,0.2,0.4,0.7,1.4c0.1,0.3,0.2,0.4,0.3,0.4C-0.1,22.3,0,22.1,0.1,21.9z M4.7,16.7
		c-1-0.5-1.5-0.7-1.4-0.7c-0.6-0.3-1.3-0.2-2.1,0.1c0,0-0.1-0.1-0.1-0.2c0.1-0.1,0.5-0.4,1.3-0.9c1-0.6,1.9-0.8,2.7-0.8v0
		c-0.5,0.3-0.7,0.7-0.6,1.3c0.1,0.6,0.5,1.1,1,1.3c-0.6,0.3-0.9,0.7-1,1.3c-0.1,0.6,0.1,1.1,0.6,1.4v0c-0.8,0-1.6-0.2-2.6-0.8
		c-0.6-0.3-1.1-0.6-1.3-0.9c0-0.1,0.1-0.1,0.1-0.2c0.7,0.3,1.4,0.4,2,0.1c0,0,0.4-0.2,1.4-0.7C4.9,17.2,5,17.1,5.1,17
		C5,16.9,4.9,16.8,4.7,16.7z M5.9,24.1c0.3,0,0.6-0.1,0.8-0.3c0.2-0.2,0.3-0.5,0.3-0.8c0-0.3-0.2-0.6-0.4-0.7
		C6.4,22.2,6,22,5.4,21.9c-0.6-0.2-1-0.3-1.1-0.4c0.1,0.1,0.2,0.5,0.4,1.1c0.2,0.6,0.3,0.9,0.5,1.1C5.3,24,5.5,24.1,5.9,24.1z
		 M6.9,10.9c0-0.3-0.1-0.6-0.3-0.8C6.4,10,6.2,9.9,5.9,9.9c-0.3,0-0.6,0.1-0.7,0.4c-0.1,0.2-0.3,0.5-0.5,1.1c-0.2,0.6-0.3,1-0.4,1.1
		c0.1-0.1,0.5-0.2,1.1-0.4C6,12,6.3,11.8,6.5,11.7C6.8,11.5,6.9,11.2,6.9,10.9z"/>
	<path class="st1" d="M-0.2-9.8c0.3,0.7,0.8,1.1,1.6,1.2c0.2,0,0.4,0,0.6,0c0.5,0,0.9-0.1,1.3-0.4C3.7-9.3,4-9.8,4.1-10.5
		C4.3-11.3,4.2-12,4-12.8c0.8,0.3,1.6,0.3,2.3,0.1c0.7-0.2,1.2-0.5,1.6-0.9c0.3-0.4,0.4-0.8,0.4-1.3c0-0.2,0-0.3,0-0.5
		C8.1-16.2,7.7-16.7,7-17c0.7-0.3,1.1-0.8,1.2-1.6c0-0.2,0-0.4,0-0.5c0-0.5-0.1-0.9-0.4-1.3c-0.4-0.5-0.9-0.8-1.6-0.9
		c-0.7-0.2-1.5-0.1-2.3,0.1c0.3-0.8,0.3-1.6,0.1-2.3c-0.1-0.7-0.4-1.2-0.9-1.6c-0.4-0.3-0.8-0.4-1.3-0.4c-0.2,0-0.3,0-0.5,0
		c-0.8,0.1-1.3,0.6-1.6,1.2c-0.3-0.7-0.8-1.1-1.6-1.2c-0.2,0-0.4-0.1-0.5-0.1c-0.5,0-0.9,0.2-1.3,0.5c-0.4,0.4-0.7,0.9-0.9,1.6
		c-0.2,0.7-0.1,1.5,0.1,2.3c-0.8-0.3-1.6-0.3-2.3-0.1c-0.7,0.1-1.2,0.4-1.6,0.9c-0.3,0.4-0.4,0.8-0.4,1.3c0,0.2,0,0.3,0,0.5
		c0.1,0.8,0.6,1.3,1.2,1.6c-0.7,0.3-1.1,0.8-1.2,1.6c0,0.2,0,0.3,0,0.5c0,0.5,0.1,0.9,0.4,1.3c0.4,0.5,0.9,0.8,1.6,0.9
		c0.7,0.2,1.5,0.1,2.3-0.1c-0.3,0.8-0.3,1.6-0.1,2.3c0.2,0.7,0.5,1.2,0.9,1.6c0.4,0.3,0.8,0.4,1.3,0.4c0.2,0,0.4,0,0.5,0
		C-1-8.7-0.5-9.1-0.2-9.8z M-6.9-22.3c0.2,0.1,0.6,0.3,1.1,0.5c0.6,0.2,1,0.3,1.1,0.4c-0.1-0.1-0.2-0.5-0.4-1.1
		c-0.2-0.6-0.3-1-0.5-1.1C-5.7-24-6-24.1-6.3-24.1c-0.3,0-0.6,0.1-0.8,0.3c-0.2,0.2-0.3,0.5-0.3,0.8C-7.3-22.8-7.2-22.5-6.9-22.3z
		 M-5.5-10.3c0.1-0.2,0.3-0.6,0.5-1.1c0.2-0.6,0.3-1,0.4-1.1c-0.1,0.1-0.5,0.2-1.1,0.4c-0.6,0.2-1,0.3-1.1,0.5
		c-0.2,0.2-0.3,0.4-0.4,0.8c0,0.3,0,0.6,0.2,0.8c0.2,0.2,0.5,0.3,0.8,0.3C-6-9.9-5.7-10.1-5.5-10.3z M-5.5-17c0,0,0.1,0.1,0.4,0.3
		c1,0.5,1.4,0.7,1.4,0.7c0.6,0.2,1.3,0.2,2-0.1c0,0.1,0.1,0.1,0.1,0.2c-0.2,0.2-0.7,0.5-1.3,0.9c-1,0.5-1.8,0.7-2.6,0.7v0
		c0.5-0.3,0.7-0.7,0.6-1.4c-0.1-0.6-0.5-1-1-1.3c0.6-0.3,0.9-0.7,1-1.3c0.1-0.6-0.1-1.1-0.6-1.3v0c0.8,0,1.7,0.3,2.7,0.8
		c0.7,0.4,1.2,0.7,1.3,0.9c0,0.1-0.1,0.1-0.1,0.2c-0.8-0.3-1.4-0.4-2-0.1c0,0-0.4,0.2-1.4,0.7C-5.3-17.2-5.5-17.1-5.5-17z
		 M-0.2-11.8c0.1,0,0.2-0.1,0.3-0.4c0.5-1,0.7-1.4,0.7-1.4c0.2-0.6,0.2-1.3-0.1-2c0.1,0,0.1-0.1,0.2-0.1c0.3,0.2,0.6,0.7,0.9,1.3
		c0.5,1,0.8,1.8,0.8,2.6h0v0c-0.3-0.5-0.7-0.7-1.4-0.5c-0.6,0.1-1.1,0.5-1.3,1c-0.3-0.6-0.7-0.9-1.3-1c-0.6-0.1-1.1,0-1.3,0.5
		c0,0,0,0,0,0v0c0-0.8,0.2-1.7,0.8-2.6c0.4-0.7,0.7-1.2,0.9-1.3c0.1,0,0.1,0.1,0.2,0.1c-0.3,0.8-0.4,1.4-0.1,2c0,0,0.2,0.4,0.7,1.4
		C-0.4-11.9-0.3-11.8-0.2-11.8z M-0.2-22.3c-0.1,0-0.2,0.1-0.3,0.4c-0.5,1-0.7,1.4-0.7,1.4c-0.2,0.6-0.2,1.3,0.1,2
		c-0.1,0-0.1,0.1-0.2,0.1c-0.2-0.2-0.5-0.7-0.9-1.3c-0.5-0.9-0.7-1.8-0.7-2.6h0c0.3,0.5,0.7,0.7,1.4,0.6c0.6-0.1,1-0.5,1.3-1
		c0.3,0.6,0.7,0.9,1.3,1c0.6,0.1,1.1-0.1,1.3-0.6h0c0,0.8-0.3,1.7-0.8,2.7c-0.4,0.7-0.7,1.2-0.9,1.3c-0.1,0-0.1-0.1-0.2-0.1
		c0.3-0.7,0.4-1.4,0.1-2c0,0-0.2-0.4-0.7-1.4C0-22.1-0.1-22.3-0.2-22.3z M5.1-17c0-0.1-0.1-0.2-0.4-0.3c-1-0.5-1.4-0.7-1.4-0.7
		c-0.6-0.2-1.3-0.2-2,0.1c0-0.1-0.1-0.1-0.1-0.2c0.2-0.2,0.7-0.5,1.3-0.9c1-0.5,1.8-0.8,2.6-0.8v0c-0.5,0.3-0.7,0.7-0.6,1.4
		c0.1,0.6,0.5,1.1,1,1.3c-0.6,0.3-0.9,0.7-1,1.3c-0.1,0.6,0.1,1.1,0.6,1.3v0c-0.8,0-1.7-0.2-2.7-0.8c-0.7-0.4-1.2-0.7-1.3-0.9
		c0-0.1,0.1-0.1,0.1-0.2c0.8,0.3,1.5,0.4,2.1,0.1c0,0,0.4-0.2,1.4-0.7C4.9-16.8,5-16.9,5.1-17z M5.1-23.7c-0.1,0.2-0.3,0.6-0.5,1.1
		c-0.2,0.6-0.3,1-0.4,1.1c0.1-0.1,0.5-0.2,1.1-0.4c0.6-0.2,1-0.3,1.1-0.5c0.2-0.2,0.4-0.4,0.4-0.7c0-0.3-0.1-0.6-0.3-0.8
		c-0.2-0.2-0.5-0.3-0.8-0.3C5.5-24.1,5.3-24,5.1-23.7z M6.5-11.7C6.3-11.8,6-12,5.4-12.2c-0.6-0.2-1-0.3-1.1-0.4
		c0.1,0.1,0.2,0.5,0.4,1.1c0.2,0.6,0.3,1,0.5,1.1c0.2,0.2,0.4,0.3,0.7,0.4c0.3,0,0.6-0.1,0.8-0.3c0.2-0.2,0.3-0.4,0.3-0.8
		C6.9-11.2,6.8-11.5,6.5-11.7z"/>
	<g>
	</g>
	<g>
		<path class="st2" d="M-6.7,0.6v2.1h-1.4v-5.8h1.3v-1.5h-5v1.5h1.3v5.8h-1.3V0.6h-1.5v3.6h8V0.6H-6.7z"/>
		<path class="st2" d="M2.6,3.5v0.7h1.5V1.1H2.6C2.4,1.6,2.1,2,1.6,2.3S0.7,2.8,0.2,2.8c-0.5,0-1-0.1-1.3-0.3s-0.7-0.6-0.9-1
			S-2.4,0.5-2.4,0c0-1,0.2-1.7,0.7-2.3s1.1-0.8,1.9-0.8c0.5,0,1,0.1,1.3,0.4s0.6,0.6,0.7,1.1H0.7v1.5h4.2c0-1-0.2-1.8-0.6-2.5
			S3.4-3.8,2.6-4.2S1.1-4.7,0.1-4.7c-1,0-1.9,0.2-2.6,0.5s-1.3,0.9-1.7,1.6s-0.6,1.5-0.6,2.4c0,0.9,0.2,1.7,0.6,2.3s1,1.2,1.7,1.6
			s1.5,0.6,2.4,0.6C1,4.3,1.9,4.1,2.6,3.5z"/>
		<path class="st2" d="M12.9,1.9c0-0.9-0.4-1.5-1.2-1.8c0.5-0.2,0.9-0.5,1.2-0.8s0.4-0.8,0.4-1.3c0-1.7-1.3-2.6-3.9-2.6H5.3v1.5h1.1
			v5.8H5.3v1.5h4.1c1.2,0,2.1-0.2,2.7-0.6S12.9,2.7,12.9,1.9z M10.6,1.8c0,0.3-0.1,0.6-0.4,0.7s-0.6,0.2-1,0.2H8.6v-2h0.7
			c0.4,0,0.7,0.1,0.9,0.2S10.6,1.4,10.6,1.8z M10.9-2c0,0.4-0.1,0.7-0.4,0.9S9.8-0.8,9.2-0.8H8.6v-2.3h0.9c0.4,0,0.7,0.1,1,0.3
			S10.9-2.4,10.9-2z"/>
	</g>
</symbol>
<g>
	<defs>
		<path id="SVGID_1_" d="M280.6,141.7c0,76.7-62.2,138.9-138.9,138.9C65,280.6,2.8,218.4,2.8,141.7C2.8,65,65,2.8,141.7,2.8
			C218.4,2.8,280.6,65,280.6,141.7z"/>
	</defs>
	<clipPath id="SVGID_2_">
		<use xlink:href="#SVGID_1_"  style="overflow:visible;"/>
	</clipPath>
	<g style="clip-path:url(#SVGID_2_);">
		
			<use xlink:href="#Nouveau_symbole_2"  width="51" height="51.1" id="XMLID_2_" x="-25.5" y="-25.5" transform="matrix(7.7777 0 0 -7.7777 139.5175 139.781)" style="overflow:visible;"/>
	</g>
	<use xlink:href="#SVGID_1_"  style="overflow:visible;fill:none;stroke:#F3EEBF;stroke-miterlimit:10;"/>
</g>
</svg>
