<svg xmlns="http://www.w3.org/2000/svg" xmlns:xlink="http://www.w3.org/1999/xlink" viewBox="0 0 283.5 283.5"><symbol id="c" viewBox="-25.5 -25.5 51 51"><circle transform="rotate(-67.5 0 0)" fill="#009a54" r="25.5"/><path d="M0-8.5c-4.7 0-8.5-3.8-8.5-8.5v-7c2.7-1 5.5-1.5 8.5-1.5s5.8.5 8.5 1.5v7c0 4.7-3.8 8.5-8.5 8.5zm0 17c4.7 0 8.5 3.8 8.5 8.5v7C5.8 25 3 25.5 0 25.5S-5.8 25-8.5 24v-7c0-4.7 3.8-8.5 8.5-8.5z" fill="#f3716d"/><path d="M-7 1v2h-1.4v-5.8H-7v-1.5h-5v1.5h1.3V3H-12V1h-1.5v3.6h8V1H-7zm5.7 2V1.1h2.4V3H.2v1.5h4.2V3H3.3v-5.8h1.1v-1.5H.2v1.5h.9v2.4h-2.4v-2.4h.9v-1.5h-4.3v1.5h1.1V3h-1.1v1.5h4.3V3h-.9zm14.2-.8c0-.9-.4-1.5-1.2-1.8.5-.2.9-.5 1.2-.8s.4-.8.4-1.3c0-1.7-1.3-2.6-3.9-2.6H5.2v1.5h1.1V3H5.2v1.5h4.1c1.2 0 2.1-.2 2.7-.6s.9-.9.9-1.7zm-2.3-.1c0 .3-.1.6-.4.7s-.6.2-1 .2h-.6V1h.7c.4 0 .7.1.9.2s.4.5.4.9zm.3-3.8c0 .4-.1.7-.4.9s-.7.4-1.3.4h-.6v-2.3h.9c.4 0 .7.1 1 .3s.4.4.4.7z" fill="#fff"/></symbol><defs><path id="a" d="M280.6 141.7c0 76.7-62.2 138.9-138.9 138.9S2.8 218.4 2.8 141.7 65 2.8 141.7 2.8 280.6 65 280.6 141.7z"/></defs><clipPath id="b"><use xlink:href="#a" overflow="visible"/></clipPath><g clip-path="url(#b)"><use xlink:href="#c" width="51" height="51" x="-25.5" y="-25.5" transform="matrix(7.7777 0 0 -7.7777 139.52 139.782)" overflow="visible"/></g><use xlink:href="#a" overflow="visible" fill="none" stroke="#f3eebf" stroke-miterlimit="10"/></svg>