<?xml version="1.0" encoding="utf-8"?>
<!-- Generator: Adobe Illustrator 25.0.1, SVG Export Plug-In . SVG Version: 6.00 Build 0)  -->
<svg version="1.1" id="Layer_1" xmlns="http://www.w3.org/2000/svg" xmlns:xlink="http://www.w3.org/1999/xlink" x="0px" y="0px"
	 viewBox="0 0 283.5 283.5" style="enable-background:new 0 0 283.5 283.5;" xml:space="preserve">
<style type="text/css">
	.st0{fill:#009A54;}
	.st1{fill:#F3716D;}
	.st2{fill:#FFFFFF;}
</style>
<symbol  id="Nouveau_symbole_24" viewBox="-25.5 -25.5 51 51">
	
		<ellipse transform="matrix(0.3827 -0.9239 0.9239 0.3827 4.563965e-04 -3.049544e-04)" class="st0" cx="0" cy="0" rx="25.5" ry="25.5"/>
	<path class="st1" d="M0-8.5c-4.7,0-8.5-3.8-8.5-8.5v-7C-5.8-25-3-25.5,0-25.5s5.8,0.5,8.5,1.5v7C8.5-12.3,4.7-8.5,0-8.5z"/>
	<path class="st1" d="M0,8.5c4.7,0,8.5,3.8,8.5,8.5v7C5.8,25,3,25.5,0,25.5s-5.8-0.5-8.5-1.5v-7C-8.5,12.3-4.7,8.5,0,8.5z"/>
	<g>
	</g>
	<g>
		<path class="st2" d="M-7,1V3h-1.4v-5.8H-7v-1.5h-5v1.5h1.3V3H-12V1h-1.5v3.6h8V1H-7z"/>
		<path class="st2" d="M-1.3,3V1.1h2.4V3H0.2v1.5h4.2V3H3.3v-5.8h1.1v-1.5H0.2v1.5h0.9v2.4h-2.4v-2.4h0.9v-1.5h-4.3v1.5h1.1V3h-1.1
			v1.5h4.3V3H-1.3z"/>
		<path class="st2" d="M12.9,2.2c0-0.9-0.4-1.5-1.2-1.8c0.5-0.2,0.9-0.5,1.2-0.8s0.4-0.8,0.4-1.3c0-1.7-1.3-2.6-3.9-2.6H5.2v1.5h1.1
			V3H5.2v1.5h4.1c1.2,0,2.1-0.2,2.7-0.6S12.9,3,12.9,2.2z M10.6,2.1c0,0.3-0.1,0.6-0.4,0.7S9.6,3,9.2,3H8.6V1h0.7
			c0.4,0,0.7,0.1,0.9,0.2S10.6,1.7,10.6,2.1z M10.9-1.7c0,0.4-0.1,0.7-0.4,0.9S9.8-0.4,9.2-0.4H8.6v-2.3h0.9c0.4,0,0.7,0.1,1,0.3
			S10.9-2,10.9-1.7z"/>
	</g>
</symbol>
<g>
	<defs>
		<path id="SVGID_1_" d="M280.6,141.7c0,76.7-62.2,138.9-138.9,138.9C65,280.6,2.8,218.4,2.8,141.7C2.8,65,65,2.8,141.7,2.8
			C218.4,2.8,280.6,65,280.6,141.7z"/>
	</defs>
	<clipPath id="SVGID_2_">
		<use xlink:href="#SVGID_1_"  style="overflow:visible;"/>
	</clipPath>
	<g style="clip-path:url(#SVGID_2_);">
		
			<use xlink:href="#Nouveau_symbole_24"  width="51" height="51" x="-25.5" y="-25.5" transform="matrix(7.7777 0 0 -7.7777 139.5192 139.7824)" style="overflow:visible;"/>
	</g>
	<use xlink:href="#SVGID_1_"  style="overflow:visible;fill:none;stroke:#F3EEBF;stroke-miterlimit:10;"/>
</g>
</svg>
