<?xml version="1.0" encoding="utf-8"?>
<!-- Generator: Adobe Illustrator 25.0.1, SVG Export Plug-In . SVG Version: 6.00 Build 0)  -->
<svg version="1.1" id="Layer_1" xmlns="http://www.w3.org/2000/svg" xmlns:xlink="http://www.w3.org/1999/xlink" x="0px" y="0px"
	 viewBox="0 0 283.5 283.5" style="enable-background:new 0 0 283.5 283.5;" xml:space="preserve">
<style type="text/css">
	.st0{fill:#FFEB00;}
	.st1{fill:#B7274C;}
</style>
<symbol  id="Nouveau_symbole_11" viewBox="-25.5 -25.5 51 51">
	<g>
		<circle class="st0" cx="0" cy="0" r="25.5"/>
	</g>
	<path class="st1" d="M-1.8,8.5c-0.2,0-0.4,0-0.5,0c-0.5,0-0.9,0.1-1.3,0.4c-0.4,0.4-0.7,0.9-0.9,1.6c-0.2,0.7-0.1,1.5,0.1,2.3
		c-0.8-0.3-1.6-0.3-2.3-0.1c-0.7,0.2-1.2,0.5-1.6,0.9c-0.3,0.4-0.4,0.8-0.4,1.3c0,0.2,0,0.3,0,0.5c0.1,0.8,0.6,1.3,1.2,1.6
		c-0.7,0.3-1.1,0.8-1.2,1.6c0,0.2,0,0.3,0,0.5c0,0.5,0.1,0.9,0.4,1.3c0.4,0.5,0.9,0.8,1.6,0.9c0.7,0.2,1.5,0.1,2.3-0.1
		c-0.3,0.8-0.3,1.6-0.1,2.3c0.2,0.7,0.5,1.2,0.9,1.6c0.4,0.3,0.8,0.5,1.3,0.5c0.2,0,0.4,0,0.5-0.1c0.8-0.1,1.3-0.6,1.6-1.2
		c0.3,0.7,0.8,1.1,1.6,1.2c0.2,0,0.3,0,0.5,0c0.5,0,0.9-0.1,1.3-0.4c0.5-0.4,0.8-0.9,0.9-1.6c0.2-0.7,0.1-1.5-0.1-2.3
		c0.8,0.3,1.6,0.3,2.3,0.1c0.7-0.1,1.2-0.4,1.6-0.9c0.3-0.4,0.4-0.8,0.4-1.3c0-0.2,0-0.4,0-0.5C8.1,17.8,7.7,17.3,7,17
		c0.7-0.3,1.1-0.8,1.2-1.6c0-0.2,0-0.3,0-0.5c0-0.5-0.1-0.9-0.4-1.3c-0.4-0.5-0.9-0.8-1.6-0.9c-0.7-0.2-1.5-0.1-2.3,0.1
		c0.3-0.8,0.3-1.6,0.1-2.3C3.9,9.8,3.6,9.3,3.2,8.9C2.8,8.6,2.4,8.5,1.9,8.5c-0.2,0-0.4,0-0.6,0C0.6,8.7,0.1,9.1-0.2,9.8
		C-0.5,9.1-1,8.7-1.8,8.5z M-7.3,23.1c0,0.3,0.1,0.6,0.3,0.8c0.2,0.2,0.4,0.3,0.8,0.3c0.3,0,0.6-0.2,0.8-0.4
		c0.1-0.2,0.3-0.6,0.5-1.1c0.2-0.6,0.3-1,0.4-1.1c-0.1,0.1-0.5,0.2-1.1,0.4c-0.6,0.2-1,0.3-1.1,0.5C-7.2,22.5-7.3,22.8-7.3,23.1z
		 M-6.3,9.9c-0.3,0-0.6,0.1-0.8,0.3c-0.2,0.2-0.3,0.4-0.2,0.8c0,0.3,0.1,0.6,0.4,0.8c0.2,0.1,0.5,0.3,1.1,0.5c0.6,0.2,1,0.3,1.1,0.4
		c-0.1-0.1-0.2-0.5-0.4-1.1c-0.2-0.6-0.3-1-0.5-1.1C-5.7,10-6,9.9-6.3,9.9z M-5.1,17.3c1,0.5,1.4,0.7,1.4,0.7c0.6,0.3,1.3,0.2,2-0.1
		c0,0,0.1,0.1,0.1,0.2c-0.1,0.2-0.5,0.4-1.3,0.9c-1,0.6-1.9,0.8-2.7,0.8v0c0.5-0.3,0.7-0.7,0.6-1.3c-0.1-0.6-0.5-1.1-1-1.3
		c0.6-0.3,0.9-0.7,1-1.3c0.1-0.6-0.1-1.1-0.6-1.4v0c0.8,0,1.6,0.2,2.6,0.7c0.6,0.4,1.1,0.7,1.3,0.9c0,0.1-0.1,0.1-0.1,0.2
		c-0.7-0.3-1.4-0.4-2-0.1c0,0-0.4,0.2-1.4,0.7c-0.3,0.1-0.4,0.2-0.4,0.3C-5.5,17.1-5.3,17.2-5.1,17.3z M-0.5,12.1
		c-0.5,1-0.7,1.4-0.7,1.4c-0.3,0.6-0.2,1.3,0.1,2c0,0-0.1,0.1-0.2,0.1c-0.1-0.1-0.4-0.5-0.9-1.3c-0.6-1-0.8-1.9-0.8-2.6v0
		c0,0,0,0,0,0c0.3,0.5,0.7,0.7,1.3,0.5c0.6-0.1,1.1-0.5,1.3-1c0.3,0.6,0.7,0.9,1.3,1c0.6,0.1,1.1,0,1.4-0.5v0h0
		c0,0.8-0.2,1.6-0.8,2.6c-0.3,0.6-0.6,1.1-0.9,1.3c0,0-0.1-0.1-0.2-0.1c0.3-0.7,0.4-1.4,0.1-2c0,0-0.2-0.4-0.7-1.4
		c-0.1-0.3-0.2-0.4-0.3-0.4C-0.3,11.8-0.4,11.9-0.5,12.1z M0.1,21.9c0.5-1,0.7-1.4,0.7-1.4c0.3-0.6,0.2-1.3-0.1-2
		c0,0,0.1-0.1,0.2-0.1c0.2,0.1,0.4,0.5,0.9,1.3c0.6,1,0.8,1.9,0.8,2.7h0c-0.3-0.5-0.7-0.7-1.3-0.6c-0.6,0.1-1.1,0.5-1.3,1
		c-0.3-0.6-0.7-0.9-1.3-1c-0.6-0.1-1.1,0.1-1.4,0.6h0c0-0.8,0.2-1.6,0.7-2.6c0.4-0.6,0.7-1.1,0.9-1.3c0.1,0,0.1,0.1,0.2,0.1
		c-0.3,0.7-0.4,1.4-0.1,2c0,0,0.2,0.4,0.7,1.4c0.1,0.3,0.2,0.4,0.3,0.4C-0.1,22.3,0,22.1,0.1,21.9z M4.6,16.7
		c-1-0.5-1.5-0.7-1.4-0.7c-0.6-0.3-1.3-0.2-2.1,0.1c0,0-0.1-0.1-0.1-0.2c0.1-0.1,0.5-0.4,1.3-0.9c1-0.6,1.9-0.8,2.7-0.8v0
		c-0.5,0.3-0.7,0.7-0.6,1.3c0.1,0.6,0.5,1.1,1,1.3c-0.6,0.3-0.9,0.7-1,1.3c-0.1,0.6,0.1,1.1,0.6,1.4v0c-0.8,0-1.6-0.2-2.6-0.8
		c-0.6-0.3-1.1-0.6-1.3-0.9c0-0.1,0.1-0.1,0.1-0.2c0.7,0.3,1.4,0.4,2,0.1c0,0,0.4-0.2,1.4-0.7C4.9,17.2,5,17.1,5,17
		C5,16.9,4.9,16.8,4.6,16.7z M5.8,24.1c0.3,0,0.6-0.1,0.8-0.3c0.2-0.2,0.3-0.5,0.3-0.8c0-0.3-0.2-0.6-0.4-0.7
		C6.3,22.2,6,22,5.4,21.9c-0.6-0.2-1-0.3-1.1-0.4c0.1,0.1,0.2,0.5,0.4,1.1c0.2,0.6,0.3,0.9,0.5,1.1C5.3,24,5.5,24.1,5.8,24.1z
		 M6.9,10.9c0-0.3-0.1-0.6-0.3-0.8C6.4,10,6.2,9.9,5.8,9.9c-0.3,0-0.6,0.1-0.7,0.4c-0.1,0.2-0.3,0.5-0.5,1.1c-0.2,0.6-0.3,1-0.4,1.1
		c0.1-0.1,0.5-0.2,1.1-0.4c0.6-0.2,0.9-0.3,1.1-0.5C6.7,11.5,6.9,11.2,6.9,10.9z"/>
	<path class="st1" d="M-0.2-9.8c0.3,0.7,0.8,1.1,1.6,1.2c0.2,0,0.4,0,0.6,0c0.5,0,0.9-0.1,1.3-0.4c0.5-0.4,0.8-0.9,0.9-1.6
		c0.2-0.7,0.1-1.5-0.1-2.3c0.8,0.3,1.6,0.3,2.3,0.1c0.7-0.2,1.2-0.5,1.6-0.9c0.3-0.4,0.4-0.8,0.4-1.3c0-0.2,0-0.3,0-0.5
		C8.1-16.2,7.7-16.7,7-17c0.7-0.3,1.1-0.8,1.2-1.6c0-0.2,0-0.4,0-0.5c0-0.5-0.1-0.9-0.4-1.3c-0.4-0.5-0.9-0.8-1.6-0.9
		c-0.7-0.2-1.5-0.1-2.3,0.1c0.3-0.8,0.3-1.6,0.1-2.3c-0.1-0.7-0.4-1.2-0.9-1.6c-0.4-0.3-0.8-0.4-1.3-0.4c-0.2,0-0.3,0-0.5,0
		c-0.8,0.1-1.3,0.6-1.6,1.2c-0.3-0.7-0.8-1.1-1.6-1.2c-0.2,0-0.4-0.1-0.5-0.1c-0.5,0-0.9,0.2-1.3,0.5c-0.4,0.4-0.7,0.9-0.9,1.6
		c-0.2,0.7-0.1,1.5,0.1,2.3c-0.8-0.3-1.6-0.3-2.3-0.1c-0.7,0.1-1.2,0.4-1.6,0.9c-0.3,0.4-0.4,0.8-0.4,1.3c0,0.2,0,0.3,0,0.5
		c0.1,0.8,0.6,1.3,1.2,1.6c-0.7,0.3-1.1,0.8-1.2,1.6c0,0.2,0,0.3,0,0.5c0,0.5,0.1,0.9,0.4,1.3c0.4,0.5,0.9,0.8,1.6,0.9
		c0.7,0.2,1.5,0.1,2.3-0.1c-0.3,0.8-0.3,1.6-0.1,2.3c0.2,0.7,0.5,1.2,0.9,1.6c0.4,0.3,0.8,0.4,1.3,0.4c0.2,0,0.4,0,0.5,0
		C-1-8.7-0.5-9.1-0.2-9.8z M-6.9-22.3c0.2,0.1,0.6,0.3,1.1,0.5c0.6,0.2,1,0.3,1.1,0.4c-0.1-0.1-0.2-0.5-0.4-1.1
		c-0.2-0.6-0.3-1-0.5-1.1C-5.7-24-6-24.1-6.3-24.1c-0.3,0-0.6,0.1-0.8,0.3c-0.2,0.2-0.3,0.5-0.3,0.8C-7.3-22.8-7.2-22.5-6.9-22.3z
		 M-5.5-10.3c0.1-0.2,0.3-0.6,0.5-1.1c0.2-0.6,0.3-1,0.4-1.1c-0.1,0.1-0.5,0.2-1.1,0.4c-0.6,0.2-1,0.3-1.1,0.5
		c-0.2,0.2-0.3,0.4-0.4,0.8c0,0.3,0,0.6,0.2,0.8c0.2,0.2,0.5,0.3,0.8,0.3C-6-9.9-5.7-10-5.5-10.3z M-5.5-17c0,0,0.1,0.1,0.4,0.3
		c1,0.5,1.4,0.7,1.4,0.7c0.6,0.2,1.3,0.2,2-0.1c0,0.1,0.1,0.1,0.1,0.2c-0.2,0.2-0.7,0.5-1.3,0.9c-1,0.5-1.8,0.7-2.6,0.7v0
		c0.5-0.3,0.7-0.7,0.6-1.4c-0.1-0.6-0.5-1-1-1.3c0.6-0.3,0.9-0.7,1-1.3c0.1-0.6-0.1-1.1-0.6-1.3v0c0.8,0,1.7,0.3,2.7,0.8
		c0.7,0.4,1.2,0.7,1.3,0.9c0,0.1-0.1,0.1-0.1,0.2c-0.8-0.3-1.4-0.4-2-0.1c0,0-0.4,0.2-1.4,0.7C-5.3-17.2-5.5-17.1-5.5-17z
		 M-0.2-11.8c0.1,0,0.2-0.1,0.3-0.4c0.5-1,0.7-1.4,0.7-1.4c0.2-0.6,0.2-1.3-0.1-2c0.1,0,0.1-0.1,0.2-0.1c0.3,0.2,0.6,0.7,0.9,1.3
		c0.5,1,0.8,1.8,0.8,2.6h0v0c-0.3-0.5-0.7-0.7-1.4-0.5c-0.6,0.1-1.1,0.5-1.3,1c-0.3-0.6-0.7-0.9-1.3-1c-0.6-0.1-1.1,0-1.3,0.5
		c0,0,0,0,0,0v0c0-0.8,0.2-1.7,0.8-2.6c0.4-0.7,0.7-1.2,0.9-1.3c0.1,0,0.1,0.1,0.2,0.1c-0.3,0.8-0.4,1.4-0.1,2c0,0,0.2,0.4,0.7,1.4
		C-0.4-11.9-0.3-11.8-0.2-11.8z M-0.2-22.3c-0.1,0-0.2,0.1-0.3,0.4c-0.5,1-0.7,1.4-0.7,1.4c-0.2,0.6-0.2,1.3,0.1,2
		c-0.1,0-0.1,0.1-0.2,0.1c-0.2-0.2-0.5-0.7-0.9-1.3c-0.5-0.9-0.7-1.8-0.7-2.6h0c0.3,0.5,0.7,0.7,1.4,0.6c0.6-0.1,1-0.5,1.3-1
		c0.3,0.6,0.7,0.9,1.3,1c0.6,0.1,1.1-0.1,1.3-0.6h0c0,0.8-0.3,1.7-0.8,2.7c-0.4,0.7-0.7,1.2-0.9,1.3c-0.1,0-0.1-0.1-0.2-0.1
		c0.3-0.7,0.4-1.4,0.1-2c0,0-0.2-0.4-0.7-1.4C0-22.1-0.1-22.3-0.2-22.3z M5-17c0-0.1-0.1-0.2-0.4-0.3c-1-0.5-1.4-0.7-1.4-0.7
		c-0.6-0.2-1.3-0.2-2,0.1c0-0.1-0.1-0.1-0.1-0.2c0.2-0.2,0.7-0.5,1.3-0.9c1-0.5,1.8-0.8,2.6-0.8v0c-0.5,0.3-0.7,0.7-0.6,1.4
		c0.1,0.6,0.5,1.1,1,1.3c-0.6,0.3-0.9,0.7-1,1.3C4.3-15,4.5-14.6,5-14.3v0c-0.8,0-1.7-0.2-2.7-0.8c-0.7-0.4-1.2-0.7-1.3-0.9
		c0-0.1,0.1-0.1,0.1-0.2c0.8,0.3,1.5,0.4,2.1,0.1c0,0,0.4-0.2,1.4-0.7C4.9-16.8,5-16.9,5-17z M5.1-23.7c-0.1,0.2-0.3,0.6-0.5,1.1
		c-0.2,0.6-0.3,1-0.4,1.1c0.1-0.1,0.5-0.2,1.1-0.4c0.6-0.2,1-0.3,1.1-0.5c0.2-0.2,0.4-0.4,0.4-0.7c0-0.3-0.1-0.6-0.3-0.8
		c-0.2-0.2-0.5-0.3-0.8-0.3C5.5-24.1,5.3-24,5.1-23.7z M6.5-11.7c-0.2-0.1-0.6-0.3-1.1-0.5c-0.6-0.2-1-0.3-1.1-0.4
		c0.1,0.1,0.2,0.5,0.4,1.1c0.2,0.6,0.3,1,0.5,1.1C5.3-10,5.5-9.9,5.8-9.9c0.3,0,0.6-0.1,0.8-0.3c0.2-0.2,0.3-0.4,0.3-0.8
		C6.9-11.2,6.7-11.5,6.5-11.7z"/>
	<g>
	</g>
	<g>
		<path d="M-5.6-3.5h0.8v6.7h-0.8V1.1H-7v3.5h6.7V1.1h-1.4v2.1h-0.8v-6.7h0.8V-5h-3.8V-3.5z"/>
		<path d="M0.4-3.5H1v6.7H0.4v1.4h2.7c0.9-2,1.4-3.7,1.9-5.7h0.1c0,1.1-0.1,1.5-0.1,2.4v1.9H4.5v1.4h2.5V3.2H6.5v-8.2H4.8
			C4-2.9,3.2-1.2,2.4,1.6H2.3c0.1-0.9,0.1-2.8,0.1-3.2v-1.9H3V-5H0.4V-3.5z"/>
	</g>
</symbol>
<g>
	<defs>
		<path id="SVGID_1_" d="M280.6,141.7c0,76.7-62.2,138.9-138.9,138.9S2.8,218.4,2.8,141.7C2.8,65,65,2.8,141.7,2.8
			S280.6,65,280.6,141.7z"/>
	</defs>
	<clipPath id="SVGID_2_">
		<use xlink:href="#SVGID_1_"  style="overflow:visible;"/>
	</clipPath>
	<g style="clip-path:url(#SVGID_2_);">
		
			<use xlink:href="#Nouveau_symbole_11"  width="51" height="51" id="XMLID_1_" x="-25.5" y="-25.5" transform="matrix(7.7777 0 0 -7.7777 139.5175 139.7824)" style="overflow:visible;"/>
	</g>
	<use xlink:href="#SVGID_1_"  style="overflow:visible;fill:none;stroke:#F3EEBF;stroke-miterlimit:10;"/>
</g>
</svg>
