<svg id="Layer_1" data-name="Layer 1" xmlns="http://www.w3.org/2000/svg" viewBox="0 0 32.59 32.59"><defs><style>.cls-1{fill:DarkBlue;}.cls-2{fill:#fff;}</style></defs><circle class="cls-1" cx="16.29" cy="16.29" r="15"/><path class="cls-2" d="M11.81,21.29a2.32,2.32,0,0,1-.77.28,4.59,4.59,0,0,1-1.06.12,3.38,3.38,0,0,1-2-.65,4.23,4.23,0,0,1-1.37-1.85,7.33,7.33,0,0,1-.49-2.75,8.67,8.67,0,0,1,.49-3,4.5,4.5,0,0,1,1.38-2A3.17,3.17,0,0,1,10,10.7a4.71,4.71,0,0,1,1.1.11,1.57,1.57,0,0,1,.61.22l.09,2.34-.06,0A4.71,4.71,0,0,0,11,12.7a1.59,1.59,0,0,0-1-.37,1.3,1.3,0,0,0-1,.5,3.47,3.47,0,0,0-.69,1.43,8.81,8.81,0,0,0-.24,2.18,6.27,6.27,0,0,0,.24,1.82A3,3,0,0,0,9,19.47a1.36,1.36,0,0,0,1,.43,2.52,2.52,0,0,0,1.09-.24,5.79,5.79,0,0,0,.8-.48h.07Z"/><path class="cls-2" d="M16.89,10.7l2.28,10a1.85,1.85,0,0,0,.36.76v.09h-2.4v-.11a1.05,1.05,0,0,0,.18-.55,1.49,1.49,0,0,0,0-.22l-.39-1.52h-1.5L15,20.78a1.34,1.34,0,0,0,0,.22.94.94,0,0,0,.16.47v.11H12.83V21.5a1.55,1.55,0,0,0,.29-.55l2.37-9.45a.46.46,0,0,0,0-.14.76.76,0,0,0-.08-.33.72.72,0,0,0-.17-.23v-.1Zm-1.21,7h.95l-.46-2.31Z"/><path class="cls-2" d="M24.47,21.58,23.1,17.09h-.52v3.55a1.86,1.86,0,0,0,.24.83v.11H20.5v-.11a1.79,1.79,0,0,0,.26-.83v-8.9a1.86,1.86,0,0,0-.26-.83V10.8h3a2.59,2.59,0,0,1,2,.83,3.13,3.13,0,0,1,.77,2.19,3.74,3.74,0,0,1-.49,1.91,2.88,2.88,0,0,1-1.15,1.17L26,20.69a3.08,3.08,0,0,0,.46.78v.11ZM24,15.11a1.56,1.56,0,0,0,.38-1.1,1.32,1.32,0,0,0-1.47-1.51h-.3v3h.52A1.14,1.14,0,0,0,24,15.11Z"/></svg>
