<svg id="Layer_1" data-name="Layer 1" xmlns="http://www.w3.org/2000/svg" viewBox="0 0 32.59 32.59"><defs><style>.cls-1{fill:#1e0d0d;}.cls-2{fill:#fff;}</style></defs><circle class="cls-1" cx="16.29" cy="16.29" r="15"/><path class="cls-2" d="M12.81,21.29a2.32,2.32,0,0,1-.77.28,4.53,4.53,0,0,1-1.06.12,3.38,3.38,0,0,1-2-.65,4.23,4.23,0,0,1-1.37-1.85,7.34,7.34,0,0,1-.48-2.75,8.68,8.68,0,0,1,.48-3,4.5,4.5,0,0,1,1.38-2A3.18,3.18,0,0,1,11,10.7a4.71,4.71,0,0,1,1.1.11,1.57,1.57,0,0,1,.61.22l.09,2.34-.06,0A4.31,4.31,0,0,0,12,12.7a1.59,1.59,0,0,0-1-.37,1.33,1.33,0,0,0-1,.5,3.6,3.6,0,0,0-.69,1.43,8.81,8.81,0,0,0-.24,2.18,6.27,6.27,0,0,0,.24,1.82A2.91,2.91,0,0,0,10,19.47a1.36,1.36,0,0,0,1,.43,2.52,2.52,0,0,0,1.09-.24,6.67,6.67,0,0,0,.81-.48h.06Z"/><path class="cls-2" d="M14.84,19.93a1.39,1.39,0,0,0,.95.31,1,1,0,0,0,.81-.37,1.53,1.53,0,0,0,.33-1,2.56,2.56,0,0,0-.38-1.25A7.4,7.4,0,0,0,15.4,16.1a5.7,5.7,0,0,1-1.05-1.5A3.92,3.92,0,0,1,14,13a2.11,2.11,0,0,1,.72-1.67,2.8,2.8,0,0,1,1.91-.63,4.85,4.85,0,0,1,.92.07,1.36,1.36,0,0,1,.5.16l.06,2.12H18a2.33,2.33,0,0,0-.57-.61,1.23,1.23,0,0,0-.78-.27.62.62,0,0,0-.52.26.88.88,0,0,0-.2.59,2.25,2.25,0,0,0,.69,1.54,9.24,9.24,0,0,1,1.58,2.15,4.49,4.49,0,0,1,.53,2.07A2.89,2.89,0,0,1,18,20.89a2.75,2.75,0,0,1-2.06.8,3.28,3.28,0,0,1-1.13-.17,1.6,1.6,0,0,1-.61-.37l0-2.08h.12A2.4,2.4,0,0,0,14.84,19.93Z"/><path class="cls-2" d="M25.23,21.29a2.5,2.5,0,0,1-.77.28,4.68,4.68,0,0,1-1.07.12,3.38,3.38,0,0,1-2-.65A4.31,4.31,0,0,1,20,19.19a7.34,7.34,0,0,1-.48-2.75,8.68,8.68,0,0,1,.48-3,4.66,4.66,0,0,1,1.38-2,3.18,3.18,0,0,1,2.06-.71,4.71,4.71,0,0,1,1.1.11,1.57,1.57,0,0,1,.61.22l.1,2.34-.07,0a4.31,4.31,0,0,0-.75-.69,1.59,1.59,0,0,0-1-.37,1.33,1.33,0,0,0-1,.5,3.47,3.47,0,0,0-.68,1.43,8.33,8.33,0,0,0-.25,2.18,5.93,5.93,0,0,0,.25,1.82,2.8,2.8,0,0,0,.67,1.21,1.36,1.36,0,0,0,1,.43,2.52,2.52,0,0,0,1.09-.24,6.67,6.67,0,0,0,.81-.48h.06Z"/></svg>