<svg id="Layer_1" data-name="Layer 1" xmlns="http://www.w3.org/2000/svg" viewBox="0 0 32.59 32.59"><defs><style>.cls-1{fill:red;}.cls-2{fill:#fff;}</style></defs><circle class="cls-1" cx="16.29" cy="16.29" r="15"/><path class="cls-2" d="M12.44,10.8v.11a1.79,1.79,0,0,0-.24.83v9.84h-.63L8.15,15v5.62a1.45,1.45,0,0,0,.28.82v.12H6.06v-.12a1.74,1.74,0,0,0,.27-.82v-8.9a1.34,1.34,0,0,0-.06-.4,3.06,3.06,0,0,0-.2-.43V10.8h2l2.29,4.68V11.74a1.36,1.36,0,0,0-.28-.83V10.8Z"/><path class="cls-2" d="M19.33,21.29a2.4,2.4,0,0,1-.77.28,4.59,4.59,0,0,1-1.06.12,3.38,3.38,0,0,1-2-.65,4.23,4.23,0,0,1-1.37-1.85,7.14,7.14,0,0,1-.49-2.75,8.45,8.45,0,0,1,.49-3,4.56,4.56,0,0,1,1.37-2,3.21,3.21,0,0,1,2.07-.71,4.77,4.77,0,0,1,1.1.11,1.73,1.73,0,0,1,.61.22l.09,2.34-.06,0a4.82,4.82,0,0,0-.76-.69,1.56,1.56,0,0,0-1-.37,1.33,1.33,0,0,0-1,.5,3.47,3.47,0,0,0-.68,1.43,8.33,8.33,0,0,0-.25,2.18,5.93,5.93,0,0,0,.25,1.82,3,3,0,0,0,.67,1.21,1.39,1.39,0,0,0,1,.43,2.44,2.44,0,0,0,1.08-.24,6,6,0,0,0,.81-.48h.06Z"/><path class="cls-2" d="M24.73,21.58l-1.37-4.49h-.52v3.55a1.77,1.77,0,0,0,.25.83v.11H20.76v-.11a1.79,1.79,0,0,0,.26-.83v-8.9a1.86,1.86,0,0,0-.26-.83V10.8h3a2.62,2.62,0,0,1,2,.83,3.12,3.12,0,0,1,.76,2.19A3.65,3.65,0,0,1,26,15.73a2.86,2.86,0,0,1-1.14,1.17l1.41,3.79a3.12,3.12,0,0,0,.47.78v.11Zm-.5-6.47a1.56,1.56,0,0,0,.38-1.1,1.31,1.31,0,0,0-1.46-1.51h-.31v3h.52A1.14,1.14,0,0,0,24.23,15.11Z"/></svg>
