<svg id="Layer_1" data-name="Layer 1" xmlns="http://www.w3.org/2000/svg" viewBox="0 0 32.59 32.59"><defs><style>.cls-1{fill:DeepSkyBlue;}.cls-2{fill:black;}</style></defs><circle class="cls-1" cx="16.29" cy="16.29" r="15"/><path class="cls-2" d="M8,19.93a1.39,1.39,0,0,0,.95.31,1,1,0,0,0,.82-.37,1.59,1.59,0,0,0,.32-1,2.56,2.56,0,0,0-.38-1.25A7.4,7.4,0,0,0,8.56,16.1a5.43,5.43,0,0,1-1-1.5A3.76,3.76,0,0,1,7.18,13a2.12,2.12,0,0,1,.72-1.68,2.8,2.8,0,0,1,1.91-.63,5,5,0,0,1,.93.07,1.5,1.5,0,0,1,.49.16l.06,2.12h-.12a2.72,2.72,0,0,0-.57-.61,1.28,1.28,0,0,0-.79-.27.64.64,0,0,0-.52.26.9.9,0,0,0-.2.59,2.25,2.25,0,0,0,.69,1.54,9.61,9.61,0,0,1,1.59,2.15,4.47,4.47,0,0,1,.52,2.07,2.89,2.89,0,0,1-.78,2.11,2.74,2.74,0,0,1-2,.8,3.24,3.24,0,0,1-1.13-.17,1.45,1.45,0,0,1-.61-.37l-.05-2.08h.12A2.4,2.4,0,0,0,8,19.93Z"/><path class="cls-2" d="M16.6,12.34H15.12V15h.71a2.32,2.32,0,0,0,.91-.26h.12v2h-.12a2.32,2.32,0,0,0-.91-.26h-.71V20h1.74A1.15,1.15,0,0,0,17.3,20c.15-.06.36-.17.64-.32H18v1.95H13.05v-.11a1.79,1.79,0,0,0,.26-.83v-8.9a1.86,1.86,0,0,0-.26-.83V10.8h4.71v1.91H17.7A3,3,0,0,0,16.6,12.34Z"/><path class="cls-2" d="M23,10.7l2.28,10a1.68,1.68,0,0,0,.36.76v.09H23.19v-.11a1,1,0,0,0,.19-.55,1.49,1.49,0,0,0,0-.22L23,19.18H21.45L21,20.78A1.34,1.34,0,0,0,21,21a1,1,0,0,0,.15.47v.11H18.9v-.07a1.67,1.67,0,0,0,.29-.56l2.37-9.45a.46.46,0,0,0,0-.14A.76.76,0,0,0,21.5,11a.72.72,0,0,0-.17-.23v-.1Zm-1.21,7h.95l-.46-2.31Z"/></svg>
