<svg id="Layer_1" data-name="Layer 1" xmlns="http://www.w3.org/2000/svg" viewBox="0 0 32.59 32.59"><defs><style>.cls-1{fill:#01a150;}.cls-2{fill:#ffe47a;}</style></defs><circle class="cls-1" cx="16.29" cy="16.29" r="15"/><path class="cls-2" d="M11.18,19.93a1.39,1.39,0,0,0,1,.31,1,1,0,0,0,.81-.37,1.53,1.53,0,0,0,.33-1,2.56,2.56,0,0,0-.38-1.25,7.4,7.4,0,0,0-1.15-1.49,5.43,5.43,0,0,1-1-1.5A3.76,3.76,0,0,1,10.36,13a2.12,2.12,0,0,1,.72-1.68A2.8,2.8,0,0,1,13,10.7a5,5,0,0,1,.93.07,1.5,1.5,0,0,1,.49.16l.06,2.12h-.12a2.72,2.72,0,0,0-.57-.61,1.28,1.28,0,0,0-.79-.27.64.64,0,0,0-.52.26.9.9,0,0,0-.2.59A2.25,2.25,0,0,0,13,14.56a9.61,9.61,0,0,1,1.59,2.15,4.6,4.6,0,0,1,.52,2.07,2.89,2.89,0,0,1-.78,2.11,2.74,2.74,0,0,1-2,.8,3.3,3.3,0,0,1-1.14-.17,1.47,1.47,0,0,1-.6-.37l-.05-2.08h.12A2.4,2.4,0,0,0,11.18,19.93Z"/><path class="cls-2" d="M20.2,21.58l-1.37-4.49H18.3v3.55a1.89,1.89,0,0,0,.25.83v.11H16.22v-.11a1.71,1.71,0,0,0,.27-.83v-8.9a1.77,1.77,0,0,0-.27-.83V10.8h3a2.62,2.62,0,0,1,2,.83A3.12,3.12,0,0,1,22,13.82a3.74,3.74,0,0,1-.48,1.91,2.94,2.94,0,0,1-1.15,1.17l1.42,3.79a2.81,2.81,0,0,0,.46.78v.11Zm-.5-6.47a1.56,1.56,0,0,0,.37-1.1c0-1-.48-1.51-1.46-1.51H18.3v3h.53A1.14,1.14,0,0,0,19.7,15.11Z"/></svg>