<svg id="Layer_1" data-name="Layer 1" xmlns="http://www.w3.org/2000/svg" viewBox="0 0 32.59 32.59"><defs><style>.cls-1{fill:#ee4d9b;}.cls-2{fill:#fff;}</style></defs><circle class="cls-1" cx="16.29" cy="16.29" r="15"/><path class="cls-2" d="M6.85,10.8H9v.13a.7.7,0,0,0-.1.38,1.2,1.2,0,0,0,0,.31L9.83,16,11,10.76h1.06L13.12,16l1-4.27a1.85,1.85,0,0,0,.08-.46.78.78,0,0,0-.08-.35V10.8h2.08v.1a2,2,0,0,0-.28.64l-2.14,10H12.72l-1.28-6.1-1.31,6.1H9L7.13,11.7a2.09,2.09,0,0,0-.28-.79Z"/><path class="cls-2" d="M25.43,11.34a1.18,1.18,0,0,0-.05.4v8.9a1.49,1.49,0,0,0,.25.83v.11H23.41v-.11a1.79,1.79,0,0,0,.24-.83V14.33l-1.95,3.9h-.17l-2-3.9v6.39a1.29,1.29,0,0,0,.29.75v.11H17.53v-.11a1.45,1.45,0,0,0,.32-.83v-9a1.51,1.51,0,0,0-.29-.72V10.8h2.21l1.85,3.85,1.71-3.85h2.33v.11A1.68,1.68,0,0,0,25.43,11.34Z"/></svg>