<svg id="Layer_1" data-name="Layer 1" xmlns="http://www.w3.org/2000/svg" viewBox="0 0 32.59 32.59"><defs><style>.cls-1{fill:#f69422;}.cls-2{fill:#fff;}</style></defs><circle class="cls-1" cx="16.29" cy="16.29" r="15"/><path class="cls-2" d="M5,10.8H7.07v.13a.63.63,0,0,0-.11.38,1.2,1.2,0,0,0,0,.31L7.93,16,9.1,10.76h1.06L11.22,16l1-4.27a1.85,1.85,0,0,0,.08-.46.78.78,0,0,0-.08-.35V10.8h2.08v.1a2,2,0,0,0-.28.64l-2.14,10H10.82l-1.27-6.1-1.31,6.1H7.13L5.23,11.7A2.24,2.24,0,0,0,5,10.91Z"/><path class="cls-2" d="M21.26,10.8v.11a1.79,1.79,0,0,0-.24.83v9.84h-.64L17,15v5.62a1.51,1.51,0,0,0,.27.82v.12H14.87v-.12a1.66,1.66,0,0,0,.28-.82v-8.9a1.34,1.34,0,0,0-.06-.4,3.06,3.06,0,0,0-.2-.43V10.8h2l2.3,4.68V11.74a1.45,1.45,0,0,0-.28-.83V10.8Z"/><path class="cls-2" d="M27.51,21.29a2.4,2.4,0,0,1-.77.28,4.59,4.59,0,0,1-1.06.12,3.38,3.38,0,0,1-2-.65,4.23,4.23,0,0,1-1.37-1.85,7.14,7.14,0,0,1-.49-2.75,8.45,8.45,0,0,1,.49-3,4.56,4.56,0,0,1,1.37-2,3.21,3.21,0,0,1,2.07-.71,4.77,4.77,0,0,1,1.1.11,1.65,1.65,0,0,1,.61.22l.09,2.34-.06,0a4.82,4.82,0,0,0-.76-.69,1.56,1.56,0,0,0-1-.37,1.33,1.33,0,0,0-1,.5A3.47,3.47,0,0,0,24,14.26a8.33,8.33,0,0,0-.25,2.18A5.93,5.93,0,0,0,24,18.26a2.81,2.81,0,0,0,.68,1.21,1.35,1.35,0,0,0,1,.43,2.44,2.44,0,0,0,1.08-.24,6,6,0,0,0,.81-.48h.06Z"/></svg>