<svg id="Layer_1" data-name="Layer 1" xmlns="http://www.w3.org/2000/svg" viewBox="0 0 32.59 32.59"><defs><style>.cls-1{fill:yellow;}.cls-2{fill:black;}</style></defs><circle class="cls-1" cx="16.29" cy="16.29" r="15"/><path class="cls-2" d="M6.47,10.8H8.58v.13a.7.7,0,0,0-.11.38,1.24,1.24,0,0,0,0,.31L9.44,16l1.17-5.25h1.06L12.74,16l1-4.27a1.48,1.48,0,0,0,.08-.46.67.67,0,0,0-.08-.35V10.8h2.08v.1a2.19,2.19,0,0,0-.27.64l-2.15,10H12.34l-1.28-6.1-1.31,6.1H8.64L6.75,11.7a2.29,2.29,0,0,0-.28-.79Z"/><path class="cls-2" d="M16.76,10.8h2.11v.13a.63.63,0,0,0-.11.38,1.2,1.2,0,0,0,0,.31L19.73,16l1.17-5.25H22L23,16l1-4.27a1.85,1.85,0,0,0,.08-.46.78.78,0,0,0-.08-.35V10.8h2.08v.1a2,2,0,0,0-.28.64l-2.14,10H22.62l-1.27-6.1L20,21.58H18.93L17,11.7a2.24,2.24,0,0,0-.27-.79Z"/></svg>
