<svg xmlns="http://www.w3.org/2000/svg" xml:space="preserve" width="15mm" height="15mm" version="1.1" viewBox="0 0 1500 1500" id="svg8840" clip-rule="evenodd" fill-rule="evenodd" image-rendering="optimizeQuality" shape-rendering="geometricPrecision" text-rendering="geometricPrecision"><defs id="defs58"><clipPath id="id0"><path id="rect4" d="M15783 984h934v933h-934z"/></clipPath><clipPath id="id1"><path id="rect7" d="M17283 984h934v933h-934z"/></clipPath><clipPath id="id2"><path id="rect10" d="M15783 9984h934v933h-934z"/></clipPath><clipPath id="id3"><path id="rect13" d="M15822 2499h927v927h-927z"/></clipPath><clipPath id="id4"><path id="rect16" d="M17322 2499h927v927h-927z"/></clipPath><clipPath id="id5"><path id="rect19" d="M15822 11499h927v927h-927z"/></clipPath><clipPath id="id6"><path id="rect22" d="M15778 3978h945v945h-945z"/></clipPath><clipPath id="id7"><path id="rect25" d="M17278 3978h945v945h-945z"/></clipPath><clipPath id="id8"><path id="rect28" d="M15778 12978h945v945h-945z"/></clipPath><clipPath id="id9"><path id="rect31" d="M15766 5466h967v967h-967z"/></clipPath><clipPath id="id10"><path id="rect34" d="M17266 5466h967v967h-967z"/></clipPath><clipPath id="id11"><path id="rect37" d="M15766 14466h967v967h-967z"/></clipPath><clipPath id="id12"><path id="rect40" d="M15785 8519h940v940h-940z"/></clipPath><clipPath id="id13"><path id="rect43" d="M17285 8519h940v940h-940z"/></clipPath><clipPath id="id14"><path id="rect46" d="M15785 17519h940v940h-940z"/></clipPath><clipPath id="id15"><path id="rect49" d="M15839 7039h815v815h-815z"/></clipPath><clipPath id="id16"><path id="rect52" d="M17339 7039h815v815h-815z"/></clipPath><clipPath id="id17"><path id="rect55" d="M15839 16039h815v815h-815z"/></clipPath><style type="text/css" id="style2">.fil5{fill:#fecc00}</style></defs><circle cx="750" cy="750" r="750" id="circle871" fill="#fff383"/><g id="g879" transform="matrix(1.4 0 0 1.4 -19900.057 -22280)"><path class="fil5" transform="matrix(.38375 -.38375 .38375 .38375 14250.5 16450)" id="rect873" d="M0 0h1302v1302H0z"/><path class="fil5" id="rect875" stroke="#fefefe" stroke-width="9.559" d="M14310 16450l440.04-440.04 440.04 440.04-440.04 440.04z"/><path d="M14638 16594v-314c0-3-4-6-12-8-6-1-10-3-12-6-2-2-3-8-3-17 0-6 1-11 4-13s11-3 24-3h167c48 0 87 16 118 49 32 33 47 87 47 163 0 69-15 120-45 155-30 34-70 51-120 51h-185c-5 0-8-1-10-3-2-1-3-5-3-12s0-12 1-13c0-2 4-5 10-7 13-5 19-12 19-22zm130-330v358h19c13 0 23-4 29-12s9-22 9-42v-265c0-12-4-21-11-28-8-7-18-11-32-11z" id="path877" fill="#af9778" fill-rule="nonzero"/></g></svg>