<svg xmlns="http://www.w3.org/2000/svg" viewBox="0 0 1116.923 973.223" xmlns:v="https://vecta.io/nano"><g transform="matrix(.1 0 0 -.1 -162.57682 973.72307)" clip-path="url(#clipPath360)"><path d="M3015 9726c-100-32-176-100-227-204l-33-67v-515-515l32-67c40-85 100-150 172-185l56-28 310-5 310-5V6855 5575l-217-3-218-2v324c0 203-4 345-11 378-33 156-162 284-317 317-34 7-199 11-455 11-438 0-470-3-569-57-98-53-175-164-198-283-6-34-10-797-10-2192 0-2404-6-2225 74-2341 45-66 136-137 203-158 21-6 100-14 176-16l138-5-7-41c-4-23-7-100-6-172 2-349 140-676 391-926 201-200 443-327 736-386 124-24 376-24 500 0 294 60 535 185 736 386 229 228 360 507 390 829 26 285-57 606-222 850-16 24-29 45-29 48 0 2 428 4 950 4l950-5c0-3-13-29-29-58-44-77-105-239-132-347-21-83-24-119-24-290 0-172 3-206 24-290C6610 545 7087 150 7735 95c155-14 413 29 581 95 359 142 629 403 768 743 45 107 83 249 93 342l8 70 342 3c319 2 342 1 346-15 3-10 8-49 12-87 18-183 132-458 259-627 320-424 897-630 1421-507 521 121 902 492 1031 1003 32 123 44 370 24 493-44 282-184 565-369 747l-51 49v2063 2063h115c62 0 138 5 167 11 123 26 218 101 275 217l38 76v500 501l-32 67c-57 121-157 201-286 227-37 8-780 11-2507 9l-2500-21c-114-45-201-133-243-244-20-55-22-77-25-482-4-474 2-549 47-639 75-149 209-222 408-222h93v-480-480l-1512 2-1513 3v1280 1280l275 5 275 5 53 30c67 36 137 112 171 185l26 55v520 520l-31 65c-44 92-93 143-172 182l-67 33-1100 2c-868 1-1108-1-1140-11zM252.48 7705.273l-.469-1.274-1.45-18.223.557.527 1.362 18.97z"/></g></svg>