<svg id="Layer_1" data-name="Layer 1" xmlns="http://www.w3.org/2000/svg" viewBox="0 0 34.02 34.02"><defs><style>.cls-1{fill:#ff0;stroke:#231f20;stroke-miterlimit:10;stroke-width:2px;}.cls-2{fill:#231f20;}</style></defs><rect class="cls-1" x="0.99" y="0.99" width="32.03" height="32.03" rx="4.92"/><path class="cls-2" d="M10.45,8.06a6.18,6.18,0,0,1,2,.31,4.56,4.56,0,0,1,1.59.89,3.88,3.88,0,0,1,1,1.39,4.28,4.28,0,0,1,.37,1.81,4.72,4.72,0,0,1-.21,1.46,3.6,3.6,0,0,1-.6,1.13,3.73,3.73,0,0,1-.94.82,5.6,5.6,0,0,1-1.24.54A4.61,4.61,0,0,1,15,17.9a4,4,0,0,1,.85,2.61,4.94,4.94,0,0,1-.45,2.14,4.77,4.77,0,0,1-1.23,1.61,5.33,5.33,0,0,1-1.82,1,6.77,6.77,0,0,1-2.23.36,7,7,0,0,1-2.34-.35,4.7,4.7,0,0,1-1.64-.94A5,5,0,0,1,5,22.93a11.42,11.42,0,0,1-.73-1.78l.91-.39a1.32,1.32,0,0,1,.51-.1.82.82,0,0,1,.42.1.65.65,0,0,1,.29.32,1,1,0,0,1,0,.1.37.37,0,0,1,0,.11c.11.23.25.5.41.79a3.43,3.43,0,0,0,1.66,1.47,3.93,3.93,0,0,0,1.51.26,4.08,4.08,0,0,0,1.58-.29,3.51,3.51,0,0,0,1.12-.76,3.21,3.21,0,0,0,.68-1.05,3.09,3.09,0,0,0,.23-1.14,3.94,3.94,0,0,0-.19-1.27,2.14,2.14,0,0,0-.67-1,3.43,3.43,0,0,0-1.34-.66,8.38,8.38,0,0,0-2.2-.24V15.84a6.73,6.73,0,0,0,1.86-.22A3.68,3.68,0,0,0,12.44,15a2.27,2.27,0,0,0,.71-1,3.16,3.16,0,0,0,.22-1.22,3.25,3.25,0,0,0-.23-1.3,2.62,2.62,0,0,0-.64-.91,2.7,2.7,0,0,0-1-.54,3.87,3.87,0,0,0-1.2-.18,3.77,3.77,0,0,0-1.2.19,3.21,3.21,0,0,0-1,.54,3.1,3.1,0,0,0-.72.81,4.08,4.08,0,0,0-.43,1,.9.9,0,0,1-.29.5.76.76,0,0,1-.49.16H6.1l-.15,0L4.83,12.9a6.34,6.34,0,0,1,.65-2.08A4.93,4.93,0,0,1,6.7,9.3a5.43,5.43,0,0,1,1.69-.93A6.49,6.49,0,0,1,10.45,8.06Z"/><path class="cls-2" d="M30.13,16.85a14,14,0,0,1-.49,3.91,8.09,8.09,0,0,1-1.33,2.73,5.43,5.43,0,0,1-2,1.61,5.84,5.84,0,0,1-2.46.52,5.76,5.76,0,0,1-2.45-.52,5.4,5.4,0,0,1-2-1.61,8.08,8.08,0,0,1-1.32-2.73,14.07,14.07,0,0,1-.48-3.91,14.12,14.12,0,0,1,.48-3.91,8.13,8.13,0,0,1,1.32-2.74,5.33,5.33,0,0,1,2-1.62,5.76,5.76,0,0,1,2.45-.52,5.84,5.84,0,0,1,2.46.52,5.36,5.36,0,0,1,2,1.62,8.14,8.14,0,0,1,1.33,2.74A14.1,14.1,0,0,1,30.13,16.85Zm-2.22,0a14,14,0,0,0-.33-3.3,6.69,6.69,0,0,0-.89-2.16,3.39,3.39,0,0,0-1.29-1.17,3.5,3.5,0,0,0-3,0,3.29,3.29,0,0,0-1.28,1.17,6.69,6.69,0,0,0-.89,2.16,14,14,0,0,0-.33,3.3,14,14,0,0,0,.33,3.3,6.63,6.63,0,0,0,.89,2.15,3.29,3.29,0,0,0,1.28,1.17,3.35,3.35,0,0,0,4.34-1.17,6.63,6.63,0,0,0,.89-2.15A14,14,0,0,0,27.91,16.85Z"/></svg>