<svg id="Layer_1" data-name="Layer 1" xmlns="http://www.w3.org/2000/svg" viewBox="0 0 34.02 34.02"><defs><style>.cls-1{fill:red;stroke:#231f20;stroke-miterlimit:10;stroke-width:2px;}.cls-2{fill:#fff;}</style></defs><rect class="cls-1" x="0.99" y="0.99" width="32.03" height="32.03" rx="4.92"/><path class="cls-2" d="M5.07,22.77a7.84,7.84,0,0,0,3.82,1.08c3,0,3.92-1.91,3.9-3.34,0-2.41-2.2-3.45-4.46-3.45H7V15.31h1.3c1.7,0,3.85-.87,3.85-2.91,0-1.38-.88-2.6-3-2.6a6.33,6.33,0,0,0-3.45,1.14L5.1,9.24A8.21,8.21,0,0,1,9.61,7.91c3.39,0,4.93,2,4.93,4.11a4.28,4.28,0,0,1-3.18,4.06v.06a4.48,4.48,0,0,1,3.84,4.42c0,2.76-2.15,5.18-6.28,5.18a8.68,8.68,0,0,1-4.48-1.17Z"/><path class="cls-2" d="M29.58,16.64c0,5.86-2.18,9.1-6,9.1-3.37,0-5.65-3.16-5.7-8.86s2.49-9,6-9S29.58,11.15,29.58,16.64Zm-9.37.26c0,4.49,1.38,7,3.51,7,2.38,0,3.52-2.78,3.52-7.18s-1.09-7-3.5-7C21.7,9.72,20.21,12.21,20.21,16.9Z"/></svg>