<svg id="Layer_1" data-name="Layer 1" xmlns="http://www.w3.org/2000/svg" viewBox="0 0 34.02 34.02"><defs><style>.cls-1{fill:#fff;stroke:#231f20;stroke-miterlimit:10;stroke-width:2px;}.cls-2{fill:#231f20;}</style></defs><circle class="cls-1" cx="17.01" cy="17.01" r="16.01"/><path class="cls-2" d="M10.45,7.73a6.18,6.18,0,0,1,2,.31,4.56,4.56,0,0,1,1.59.89,4,4,0,0,1,1,1.39,4.28,4.28,0,0,1,.37,1.81,4.68,4.68,0,0,1-.21,1.46,3.6,3.6,0,0,1-.6,1.13,3.54,3.54,0,0,1-.94.82,5.6,5.6,0,0,1-1.24.54A4.67,4.67,0,0,1,15,17.57a4,4,0,0,1,.85,2.61,4.91,4.91,0,0,1-.45,2.14,4.77,4.77,0,0,1-1.23,1.61,5.33,5.33,0,0,1-1.82,1,6.77,6.77,0,0,1-2.23.36A7.32,7.32,0,0,1,7.78,25,4.88,4.88,0,0,1,6.14,24,5,5,0,0,1,5,22.6a11.42,11.42,0,0,1-.73-1.78l.91-.38a1.17,1.17,0,0,1,.51-.11.82.82,0,0,1,.42.1.65.65,0,0,1,.29.32,1,1,0,0,1,0,.1.54.54,0,0,1,0,.11c.11.24.25.5.41.79a3.31,3.31,0,0,0,.65.82,3.51,3.51,0,0,0,1,.65,3.75,3.75,0,0,0,1.51.26,3.91,3.91,0,0,0,1.58-.29,3.51,3.51,0,0,0,1.12-.76,3.23,3.23,0,0,0,.91-2.19A4,4,0,0,0,13.52,19a2.11,2.11,0,0,0-.67-1,3.43,3.43,0,0,0-1.34-.66,8.38,8.38,0,0,0-2.2-.24V15.52a6.7,6.7,0,0,0,1.86-.23,3.51,3.51,0,0,0,1.27-.63,2.31,2.31,0,0,0,.71-.94,3.24,3.24,0,0,0,.22-1.23,3.2,3.2,0,0,0-.23-1.29,2.57,2.57,0,0,0-.64-.92,2.7,2.7,0,0,0-1-.54,3.87,3.87,0,0,0-1.2-.18,3.51,3.51,0,0,0-1.2.2,3,3,0,0,0-1,.53,3.27,3.27,0,0,0-.72.81,4.08,4.08,0,0,0-.43,1,.9.9,0,0,1-.29.5.71.71,0,0,1-.49.16H6l-1.12-.19a6.33,6.33,0,0,1,.65-2.09A4.78,4.78,0,0,1,6.7,9a5.06,5.06,0,0,1,1.69-.93A6.22,6.22,0,0,1,10.45,7.73Z"/><path class="cls-2" d="M30.13,16.52a14,14,0,0,1-.49,3.91,8.09,8.09,0,0,1-1.33,2.73,5.33,5.33,0,0,1-2,1.61,5.85,5.85,0,0,1-2.46.53,5.77,5.77,0,0,1-2.45-.53,5.3,5.3,0,0,1-2-1.61,8.08,8.08,0,0,1-1.32-2.73,14.07,14.07,0,0,1-.48-3.91,14.17,14.17,0,0,1,.48-3.91,8.13,8.13,0,0,1,1.32-2.74,5.3,5.3,0,0,1,2-1.61,5.62,5.62,0,0,1,2.45-.53,5.7,5.7,0,0,1,2.46.53,5.33,5.33,0,0,1,2,1.61,8.14,8.14,0,0,1,1.33,2.74A14.15,14.15,0,0,1,30.13,16.52Zm-2.22,0a14,14,0,0,0-.33-3.3,6.79,6.79,0,0,0-.89-2.16A3.39,3.39,0,0,0,25.4,9.89a3.5,3.5,0,0,0-3,0,3.29,3.29,0,0,0-1.28,1.17,6.79,6.79,0,0,0-.89,2.16,14,14,0,0,0-.33,3.3,13.88,13.88,0,0,0,.33,3.3A6.63,6.63,0,0,0,21.07,22a3.15,3.15,0,0,0,1.28,1.17,3.41,3.41,0,0,0,3,0A3.23,3.23,0,0,0,26.69,22a6.63,6.63,0,0,0,.89-2.15A13.88,13.88,0,0,0,27.91,16.52Z"/></svg>