<svg id="Layer_1" data-name="Layer 1" xmlns="http://www.w3.org/2000/svg" viewBox="0 0 34.02 34.02"><defs><style>.cls-1{fill:#fff;stroke:#231f20;stroke-miterlimit:10;stroke-width:2px;}.cls-2{fill:#231f20;}</style></defs><rect class="cls-1" x="0.99" y="0.99" width="32.03" height="32.03" rx="4.92"/><path class="cls-2" d="M9.58,10.38H9.53L6.53,12l-.45-1.78,3.76-2h2V25.44H9.58Z"/><path class="cls-2" d="M29.58,16.64c0,5.86-2.18,9.1-6,9.1-3.37,0-5.65-3.16-5.7-8.86s2.49-9,6-9S29.58,11.15,29.58,16.64Zm-9.37.26c0,4.49,1.38,7,3.5,7,2.39,0,3.53-2.78,3.53-7.18s-1.08-7-3.5-7C21.7,9.72,20.21,12.21,20.21,16.9Z"/></svg>