<svg id="Layer_1" data-name="Layer 1" xmlns="http://www.w3.org/2000/svg" viewBox="0 0 34.02 34.02"><defs><style>.cls-1{fill:#fff;stroke:#231f20;stroke-miterlimit:10;stroke-width:2px;}.cls-2{fill:#231f20;}</style></defs><rect class="cls-1" x="0.99" y="0.99" width="32.03" height="32.03" rx="4.92"/><path class="cls-2" d="M5.37,23.81h3.7V12.09c0-.35,0-.71,0-1.07L6,13.65a1,1,0,0,1-.24.14.93.93,0,0,1-.22,0,.73.73,0,0,1-.33-.08A.55.55,0,0,1,5,13.56l-.68-.92L9.47,8.21h1.74v15.6h3.38v1.63H5.37Z"/><path class="cls-2" d="M29.05,16.85a13.68,13.68,0,0,1-.49,3.91,8.08,8.08,0,0,1-1.32,2.73,5.38,5.38,0,0,1-2,1.61,6.06,6.06,0,0,1-4.91,0,5.48,5.48,0,0,1-2-1.61,8.08,8.08,0,0,1-1.32-2.73,14.07,14.07,0,0,1-.48-3.91,14.12,14.12,0,0,1,.48-3.91,8.13,8.13,0,0,1,1.32-2.74,5.41,5.41,0,0,1,2-1.62,6.06,6.06,0,0,1,4.91,0,5.31,5.31,0,0,1,2,1.62,8.13,8.13,0,0,1,1.32,2.74A13.73,13.73,0,0,1,29.05,16.85Zm-2.22,0a14,14,0,0,0-.33-3.3,6.69,6.69,0,0,0-.89-2.16,3.39,3.39,0,0,0-1.29-1.17,3.52,3.52,0,0,0-1.52-.35,3.57,3.57,0,0,0-1.53.35A3.44,3.44,0,0,0,20,11.39a6.69,6.69,0,0,0-.88,2.16,14,14,0,0,0-.33,3.3,14,14,0,0,0,.33,3.3A6.63,6.63,0,0,0,20,22.3a3.24,3.24,0,0,0,2.81,1.52,3.27,3.27,0,0,0,2.81-1.52,6.63,6.63,0,0,0,.89-2.15A14,14,0,0,0,26.83,16.85Z"/></svg>