<svg id="Layer_1" data-name="Layer 1" xmlns="http://www.w3.org/2000/svg" viewBox="0 0 34.02 34.02"><defs><style>.cls-1{fill:#ff7d00;stroke:#231f20;stroke-miterlimit:10;stroke-width:2px;}.cls-2{fill:#231f20;}</style></defs><rect class="cls-1" x="0.99" y="0.99" width="32.03" height="32.03" rx="4.92"/><path class="cls-2" d="M13.84,19.24h2.61v1.22a.48.48,0,0,1-.12.33.42.42,0,0,1-.35.13H13.84v4.52H12V20.92H4.34a.68.68,0,0,1-.42-.14.6.6,0,0,1-.22-.34l-.21-1.09,8.36-11.1h2ZM12,12.15c0-.21,0-.43,0-.67a6.75,6.75,0,0,1,.07-.75L5.8,19.24H12Z"/><path class="cls-2" d="M30.13,16.85a14,14,0,0,1-.49,3.91,8.09,8.09,0,0,1-1.33,2.73,5.43,5.43,0,0,1-2,1.61,5.84,5.84,0,0,1-2.46.52,5.76,5.76,0,0,1-2.45-.52,5.4,5.4,0,0,1-2-1.61,8.08,8.08,0,0,1-1.32-2.73,14.07,14.07,0,0,1-.48-3.91,14.12,14.12,0,0,1,.48-3.91,8.13,8.13,0,0,1,1.32-2.74,5.33,5.33,0,0,1,2-1.62,5.76,5.76,0,0,1,2.45-.52,5.84,5.84,0,0,1,2.46.52,5.36,5.36,0,0,1,2,1.62,8.14,8.14,0,0,1,1.33,2.74A14.1,14.1,0,0,1,30.13,16.85Zm-2.22,0a14,14,0,0,0-.33-3.3,6.69,6.69,0,0,0-.89-2.16,3.39,3.39,0,0,0-1.29-1.17,3.5,3.5,0,0,0-3,0,3.29,3.29,0,0,0-1.28,1.17,6.69,6.69,0,0,0-.89,2.16,14,14,0,0,0-.33,3.3,14,14,0,0,0,.33,3.3,6.63,6.63,0,0,0,.89,2.15,3.29,3.29,0,0,0,1.28,1.17,3.35,3.35,0,0,0,4.34-1.17,6.63,6.63,0,0,0,.89-2.15A14,14,0,0,0,27.91,16.85Z"/></svg>
