<svg id="Layer_1" data-name="Layer 1" xmlns="http://www.w3.org/2000/svg" viewBox="0 0 34.02 34.02"><defs><style>.cls-1{fill:#ff7d00;stroke:#231f20;stroke-miterlimit:10;stroke-width:2px;}.cls-2{fill:#231f20;}</style></defs><rect class="cls-1" x="0.99" y="0.99" width="32.03" height="32.03" rx="4.92"/><path class="cls-2" d="M14.74,9.18a1,1,0,0,1-.29.75,1.29,1.29,0,0,1-1,.3H8.08l-.79,4.51a12.05,12.05,0,0,1,2.48-.29,6.4,6.4,0,0,1,2.37.4,4.91,4.91,0,0,1,1.73,1.09,4.62,4.62,0,0,1,1.05,1.64,6,6,0,0,1,.35,2.07,6.15,6.15,0,0,1-.48,2.47A5.66,5.66,0,0,1,13.48,24a5.82,5.82,0,0,1-2,1.21,6.89,6.89,0,0,1-2.43.42,6.79,6.79,0,0,1-1.45-.15,7.07,7.07,0,0,1-1.3-.41,7.84,7.84,0,0,1-1.12-.57,7.47,7.47,0,0,1-.91-.69L5,22.91a.66.66,0,0,1,.58-.31,1,1,0,0,1,.53.19c.2.12.45.26.74.41a6,6,0,0,0,1,.41,4.41,4.41,0,0,0,1.39.19,4.37,4.37,0,0,0,1.62-.29,3.37,3.37,0,0,0,1.23-.82,3.61,3.61,0,0,0,.78-1.28,4.61,4.61,0,0,0,.28-1.67,4.41,4.41,0,0,0-.23-1.45,2.94,2.94,0,0,0-.71-1.1A3.24,3.24,0,0,0,11,16.48a5,5,0,0,0-1.66-.25A7.81,7.81,0,0,0,8,16.34a8.8,8.8,0,0,0-1.44.34L5.2,16.29l1.39-8h8.15Z"/><path class="cls-2" d="M30.13,16.85a14,14,0,0,1-.49,3.91,8.09,8.09,0,0,1-1.33,2.73,5.43,5.43,0,0,1-2,1.61,5.84,5.84,0,0,1-2.46.52,5.76,5.76,0,0,1-2.45-.52,5.4,5.4,0,0,1-2-1.61,8.08,8.08,0,0,1-1.32-2.73,14.07,14.07,0,0,1-.48-3.91,14.12,14.12,0,0,1,.48-3.91,8.13,8.13,0,0,1,1.32-2.74,5.33,5.33,0,0,1,2-1.62,5.76,5.76,0,0,1,2.45-.52,5.84,5.84,0,0,1,2.46.52,5.36,5.36,0,0,1,2,1.62,8.14,8.14,0,0,1,1.33,2.74A14.1,14.1,0,0,1,30.13,16.85Zm-2.22,0a14,14,0,0,0-.33-3.3,6.69,6.69,0,0,0-.89-2.16,3.39,3.39,0,0,0-1.29-1.17,3.5,3.5,0,0,0-3,0,3.29,3.29,0,0,0-1.28,1.17,6.69,6.69,0,0,0-.89,2.16,14,14,0,0,0-.33,3.3,14,14,0,0,0,.33,3.3,6.63,6.63,0,0,0,.89,2.15,3.29,3.29,0,0,0,1.28,1.17,3.35,3.35,0,0,0,4.34-1.17,6.63,6.63,0,0,0,.89-2.15A14,14,0,0,0,27.91,16.85Z"/></svg>
