<svg id="Layer_1" data-name="Layer 1" xmlns="http://www.w3.org/2000/svg" viewBox="0 0 34.02 34.02"><defs><style>.cls-1{fill:#ff7d00;stroke:#231f20;stroke-miterlimit:10;stroke-width:2px;}.cls-2{fill:#fff;}</style></defs><rect class="cls-1" x="0.99" y="0.99" width="32.03" height="32.03" rx="4.92"/><path class="cls-2" d="M14.8,10.17H8.23L7.56,14.6A8.38,8.38,0,0,1,9,14.49a7.23,7.23,0,0,1,3.71.93,4.92,4.92,0,0,1,2.47,4.43c0,3.37-2.68,5.89-6.42,5.89a8.31,8.31,0,0,1-4.29-1.07L5,22.9a7.74,7.74,0,0,0,3.68,1,3.8,3.8,0,0,0,4.09-3.74c0-2.22-1.51-3.82-5-3.82a17.78,17.78,0,0,0-2.39.19L6.56,8.21H14.8Z"/><path class="cls-2" d="M29.58,16.64c0,5.86-2.18,9.1-6,9.1-3.37,0-5.65-3.16-5.7-8.86s2.49-9,6-9S29.58,11.15,29.58,16.64Zm-9.37.26c0,4.49,1.38,7,3.5,7,2.39,0,3.53-2.78,3.53-7.18s-1.09-7-3.5-7C21.7,9.72,20.21,12.21,20.21,16.9Z"/></svg>