<svg id="Layer_1" data-name="Layer 1" xmlns="http://www.w3.org/2000/svg" viewBox="0 0 34.02 34.02"><defs><style>.cls-1{fill:#ff7d00;stroke:#231f20;stroke-miterlimit:10;stroke-width:2px;}.cls-2{fill:#231f20;}</style></defs><rect class="cls-1" x="0.99" y="0.99" width="32.03" height="32.03" rx="4.92"/><path class="cls-2" d="M10.22,8.06a6.14,6.14,0,0,1,2,.32,4.82,4.82,0,0,1,1.64.94A4.35,4.35,0,0,1,15,10.83a4.78,4.78,0,0,1,.4,2,5.36,5.36,0,0,1-.29,1.78,7.18,7.18,0,0,1-.78,1.57,12.61,12.61,0,0,1-1.13,1.45c-.43.47-.89.94-1.37,1.43L7.29,23.7c.32-.08.64-.15,1-.21a6.35,6.35,0,0,1,1-.07H15a.72.72,0,0,1,.55.2.71.71,0,0,1,.21.53v1.29H4.25v-.73a1.35,1.35,0,0,1,.09-.47,1.23,1.23,0,0,1,.3-.44l5.51-5.53c.45-.47.87-.91,1.24-1.34a9.88,9.88,0,0,0,1-1.29A6.23,6.23,0,0,0,13,14.33a4.76,4.76,0,0,0,.21-1.43A3.38,3.38,0,0,0,13,11.58a2.49,2.49,0,0,0-.66-.94,2.64,2.64,0,0,0-1-.56,3.7,3.7,0,0,0-1.21-.19,3.87,3.87,0,0,0-1.2.19,3.21,3.21,0,0,0-1,.54,3.49,3.49,0,0,0-.72.81,3,3,0,0,0-.41,1,1,1,0,0,1-.29.5.76.76,0,0,1-.51.16H5.72L4.6,12.9a6.34,6.34,0,0,1,.65-2.08A5.08,5.08,0,0,1,6.47,9.3a5.43,5.43,0,0,1,1.69-.93A6.54,6.54,0,0,1,10.22,8.06Z"/><path class="cls-2" d="M30.13,16.85a14,14,0,0,1-.49,3.91,8.09,8.09,0,0,1-1.33,2.73,5.43,5.43,0,0,1-2,1.61,5.84,5.84,0,0,1-2.46.52,5.76,5.76,0,0,1-2.45-.52,5.4,5.4,0,0,1-2-1.61,8.08,8.08,0,0,1-1.32-2.73,14.07,14.07,0,0,1-.48-3.91,14.12,14.12,0,0,1,.48-3.91,8.13,8.13,0,0,1,1.32-2.74,5.33,5.33,0,0,1,2-1.62,5.76,5.76,0,0,1,2.45-.52,5.84,5.84,0,0,1,2.46.52,5.36,5.36,0,0,1,2,1.62,8.14,8.14,0,0,1,1.33,2.74A14.1,14.1,0,0,1,30.13,16.85Zm-2.22,0a14,14,0,0,0-.33-3.3,6.69,6.69,0,0,0-.89-2.16,3.39,3.39,0,0,0-1.29-1.17,3.5,3.5,0,0,0-3,0,3.29,3.29,0,0,0-1.28,1.17,6.69,6.69,0,0,0-.89,2.16,14,14,0,0,0-.33,3.3,14,14,0,0,0,.33,3.3,6.63,6.63,0,0,0,.89,2.15,3.29,3.29,0,0,0,1.28,1.17,3.35,3.35,0,0,0,4.34-1.17,6.63,6.63,0,0,0,.89-2.15A14,14,0,0,0,27.91,16.85Z"/></svg>
