<svg id="Layer_1" data-name="Layer 1" xmlns="http://www.w3.org/2000/svg" viewBox="0 0 34.02 34.02"><defs><style>.cls-1{fill:#231f20;stroke:#231f20;stroke-miterlimit:10;stroke-width:2px;}.cls-2{fill:#fff;}</style></defs><rect class="cls-1" x="0.99" y="0.99" width="32.03" height="32.03" rx="4.92"/><path class="cls-2" d="M10.81,14.91a5.52,5.52,0,0,1,1.95.34,4.65,4.65,0,0,1,1.62,1,4.73,4.73,0,0,1,1.11,1.6A5.69,5.69,0,0,1,14.26,24a5.52,5.52,0,0,1-1.87,1.18,6.45,6.45,0,0,1-2.4.44,6.3,6.3,0,0,1-2.35-.42,5.1,5.1,0,0,1-1.79-1.17A5.22,5.22,0,0,1,4.7,22.2a7.2,7.2,0,0,1-.4-2.43,6.48,6.48,0,0,1,.51-2.4A11.9,11.9,0,0,1,6.4,14.63l4.36-5.87a1.36,1.36,0,0,1,.47-.36,1.48,1.48,0,0,1,.68-.15h1.9l-6,7.55a5.2,5.2,0,0,1,1.36-.66A5.49,5.49,0,0,1,10.81,14.91ZM6.37,20.14a4.51,4.51,0,0,0,.24,1.51,3.25,3.25,0,0,0,.7,1.18,3.09,3.09,0,0,0,1.13.76,4,4,0,0,0,1.51.27,4.05,4.05,0,0,0,1.56-.28,3.52,3.52,0,0,0,1.2-.76,3.45,3.45,0,0,0,.77-1.17,3.87,3.87,0,0,0,.27-1.46,4.07,4.07,0,0,0-.27-1.52,3.12,3.12,0,0,0-.74-1.15,3.27,3.27,0,0,0-1.15-.73,4.14,4.14,0,0,0-1.48-.25,4.05,4.05,0,0,0-1.56.29,3.52,3.52,0,0,0-1.18.8,3.42,3.42,0,0,0-.75,1.15A3.69,3.69,0,0,0,6.37,20.14Z"/><path class="cls-2" d="M30.13,16.85a14,14,0,0,1-.49,3.91,8.09,8.09,0,0,1-1.33,2.73,5.43,5.43,0,0,1-2,1.61,5.84,5.84,0,0,1-2.46.52,5.76,5.76,0,0,1-2.45-.52,5.4,5.4,0,0,1-2-1.61,8.08,8.08,0,0,1-1.32-2.73,14.07,14.07,0,0,1-.48-3.91,14.12,14.12,0,0,1,.48-3.91,8.13,8.13,0,0,1,1.32-2.74,5.33,5.33,0,0,1,2-1.62,5.76,5.76,0,0,1,2.45-.52,5.84,5.84,0,0,1,2.46.52,5.36,5.36,0,0,1,2,1.62,8.14,8.14,0,0,1,1.33,2.74A14.1,14.1,0,0,1,30.13,16.85Zm-2.22,0a14,14,0,0,0-.33-3.3,6.69,6.69,0,0,0-.89-2.16,3.39,3.39,0,0,0-1.29-1.17,3.5,3.5,0,0,0-3,0,3.29,3.29,0,0,0-1.28,1.17,6.69,6.69,0,0,0-.89,2.16,14,14,0,0,0-.33,3.3,14,14,0,0,0,.33,3.3,6.63,6.63,0,0,0,.89,2.15,3.29,3.29,0,0,0,1.28,1.17,3.35,3.35,0,0,0,4.34-1.17,6.63,6.63,0,0,0,.89-2.15A14,14,0,0,0,27.91,16.85Z"/></svg>