<svg id="Layer_1" data-name="Layer 1" xmlns="http://www.w3.org/2000/svg" viewBox="0 0 34.02 34.02"><defs><style>.cls-1{fill:#231f20;stroke:#fff;stroke-miterlimit:10;stroke-width:2px;}.cls-2{fill:#fff;}</style></defs><rect class="cls-1" x="0.99" y="0.99" width="32.03" height="32.03" rx="4.92"/><path class="cls-2" d="M14.35,9.85A8,8,0,0,0,12.6,10a7,7,0,0,0-6,6.12h.08a5.15,5.15,0,0,1,4.16-2c3.05,0,5.2,2.2,5.2,5.57,0,3.16-2.15,6.08-5.73,6.08s-6.1-2.87-6.1-7.35a10.84,10.84,0,0,1,2.92-7.77,9.38,9.38,0,0,1,5.52-2.55,12,12,0,0,1,1.69-.13Zm-.66,9.94c0-2.46-1.41-3.95-3.55-3.95A3.83,3.83,0,0,0,6.8,18a2,2,0,0,0-.27,1c0,2.84,1.35,4.93,3.79,4.93C12.34,23.93,13.69,22.26,13.69,19.79Z"/><path class="cls-2" d="M29.58,16.64c0,5.86-2.18,9.1-6,9.1-3.37,0-5.65-3.16-5.7-8.86s2.49-9,6-9S29.58,11.15,29.58,16.64Zm-9.37.26c0,4.49,1.38,7,3.51,7,2.38,0,3.52-2.78,3.52-7.18s-1.08-7-3.5-7C21.7,9.72,20.21,12.21,20.21,16.9Z"/></svg>