<svg id="Layer_1" data-name="Layer 1" xmlns="http://www.w3.org/2000/svg" viewBox="0 0 34.02 34.02"><defs><style>.cls-1{fill:#231f20;stroke:#fff;stroke-miterlimit:10;stroke-width:2px;}.cls-2{fill:#fff;}</style></defs><rect class="cls-1" x="0.99" y="0.99" width="32.03" height="32.03" rx="4.92"/><path class="cls-2" d="M4.3,21.07c0-2.18,1.3-3.71,3.42-4.62l0-.08A4.26,4.26,0,0,1,5,12.5c0-2.73,2.3-4.59,5.33-4.59,3.34,0,5,2.1,5,4.25a4.38,4.38,0,0,1-2.84,4v.08c2.15.85,3.47,2.36,3.47,4.45,0,3-2.57,5-5.86,5C6.48,25.74,4.3,23.59,4.3,21.07ZM13.58,21c0-2.09-1.45-3.1-3.79-3.76-2,.58-3.1,1.91-3.1,3.55A3.19,3.19,0,0,0,10.14,24C12.23,24,13.58,22.74,13.58,21ZM7.17,12.34c0,1.73,1.3,2.66,3.28,3.19a3.41,3.41,0,0,0,2.63-3.13,2.68,2.68,0,0,0-2.92-2.82A2.74,2.74,0,0,0,7.17,12.34Z"/><path class="cls-2" d="M29.58,16.64c0,5.86-2.18,9.1-6,9.1-3.37,0-5.65-3.16-5.7-8.86s2.49-9,6-9S29.58,11.15,29.58,16.64Zm-9.37.26c0,4.49,1.38,7,3.51,7,2.38,0,3.52-2.78,3.52-7.18s-1.09-7-3.5-7C21.7,9.72,20.21,12.21,20.21,16.9Z"/></svg>