<svg id="Layer_1" data-name="Layer 1" xmlns="http://www.w3.org/2000/svg" viewBox="0 0 34.02 34.02"><defs><style>.cls-1{fill:#231f20;stroke:#231f20;stroke-miterlimit:10;stroke-width:2px;}.cls-2{fill:#fff;}</style></defs><rect class="cls-1" x="0.99" y="0.99" width="32.03" height="32.03" rx="4.92"/><path class="cls-2" d="M10,25.64a7.62,7.62,0,0,1-2.35-.35,5.33,5.33,0,0,1-1.83-1,4.3,4.3,0,0,1-1.19-1.55,4.76,4.76,0,0,1-.42-2A4.26,4.26,0,0,1,5,18a4.68,4.68,0,0,1,2.47-1.53,4.16,4.16,0,0,1-2-1.51,4.08,4.08,0,0,1-.69-2.39A4.23,4.23,0,0,1,6.19,9.36a5.24,5.24,0,0,1,1.63-1A6.26,6.26,0,0,1,10,8.06a6.26,6.26,0,0,1,2.13.34,5.18,5.18,0,0,1,1.64,1,4.23,4.23,0,0,1,1.43,3.22,4,4,0,0,1-.7,2.39,4.16,4.16,0,0,1-2,1.51A4.67,4.67,0,0,1,14.89,18a4.26,4.26,0,0,1,.86,2.73,4.61,4.61,0,0,1-.43,2,4.51,4.51,0,0,1-1.18,1.55,5.33,5.33,0,0,1-1.83,1A7.69,7.69,0,0,1,10,25.64Zm0-1.71a4.7,4.7,0,0,0,1.51-.23A3.4,3.4,0,0,0,12.59,23a3,3,0,0,0,.71-1,3.52,3.52,0,0,0,.24-1.32,3.63,3.63,0,0,0-.29-1.51,2.84,2.84,0,0,0-.79-1,3.37,3.37,0,0,0-1.15-.58,4.93,4.93,0,0,0-2.71,0,3.28,3.28,0,0,0-1.15.58,2.84,2.84,0,0,0-.79,1,3.48,3.48,0,0,0-.29,1.51A3.52,3.52,0,0,0,6.61,22a3,3,0,0,0,.71,1,3.31,3.31,0,0,0,1.13.66A4.63,4.63,0,0,0,10,23.93Zm0-8.25a3.67,3.67,0,0,0,1.44-.26,2.55,2.55,0,0,0,1-.69,2.58,2.58,0,0,0,.54-1,3.66,3.66,0,0,0,.17-1.14,3,3,0,0,0-.2-1.13,2.65,2.65,0,0,0-.58-.93,2.79,2.79,0,0,0-1-.62A3.67,3.67,0,0,0,10,9.71a3.74,3.74,0,0,0-1.35.23A2.6,2.6,0,0,0,7,11.49a3.23,3.23,0,0,0-.19,1.13A4,4,0,0,0,7,13.76a2.88,2.88,0,0,0,.54,1,2.59,2.59,0,0,0,1,.69A3.62,3.62,0,0,0,10,15.68Z"/><path class="cls-2" d="M30.13,16.85a14,14,0,0,1-.49,3.91,8.09,8.09,0,0,1-1.33,2.73,5.43,5.43,0,0,1-2,1.61,5.84,5.84,0,0,1-2.46.52,5.76,5.76,0,0,1-2.45-.52,5.4,5.4,0,0,1-2-1.61,8.08,8.08,0,0,1-1.32-2.73,14.07,14.07,0,0,1-.48-3.91,14.12,14.12,0,0,1,.48-3.91,8.13,8.13,0,0,1,1.32-2.74,5.33,5.33,0,0,1,2-1.62,5.76,5.76,0,0,1,2.45-.52,5.84,5.84,0,0,1,2.46.52,5.36,5.36,0,0,1,2,1.62,8.14,8.14,0,0,1,1.33,2.74A14.1,14.1,0,0,1,30.13,16.85Zm-2.22,0a14,14,0,0,0-.33-3.3,6.69,6.69,0,0,0-.89-2.16,3.39,3.39,0,0,0-1.29-1.17,3.5,3.5,0,0,0-3,0,3.29,3.29,0,0,0-1.28,1.17,6.69,6.69,0,0,0-.89,2.16,14,14,0,0,0-.33,3.3,14,14,0,0,0,.33,3.3,6.63,6.63,0,0,0,.89,2.15,3.29,3.29,0,0,0,1.28,1.17,3.35,3.35,0,0,0,4.34-1.17,6.63,6.63,0,0,0,.89-2.15A14,14,0,0,0,27.91,16.85Z"/></svg>