<svg id="Layer_1" data-name="Layer 1" xmlns="http://www.w3.org/2000/svg" viewBox="0 0 34.02 34.02"><defs><style>.cls-1{fill:#231f20;stroke:#fff;stroke-miterlimit:10;stroke-width:2px;}.cls-2{fill:#fff;}</style></defs><rect class="cls-1" x="0.99" y="0.99" width="32.03" height="32.03" rx="4.92"/><path class="cls-2" d="M4.51,25.44V24l1.83-1.78c4.41-4.19,6.4-6.41,6.42-9A3.08,3.08,0,0,0,9.34,9.85a5.91,5.91,0,0,0-3.66,1.46L4.94,9.66A7.6,7.6,0,0,1,9.82,7.91c3.71,0,5.28,2.55,5.28,5,0,3.18-2.31,5.75-5.94,9.25L7.78,23.46v.05h7.74v1.93Z"/><path class="cls-2" d="M29.58,16.64c0,5.86-2.18,9.1-6,9.1-3.37,0-5.65-3.16-5.7-8.86s2.49-9,6-9S29.58,11.15,29.58,16.64Zm-9.37.26c0,4.49,1.38,7,3.5,7,2.39,0,3.53-2.78,3.53-7.18s-1.09-7-3.5-7C21.7,9.72,20.21,12.21,20.21,16.9Z"/></svg>