<svg xmlns="http://www.w3.org/2000/svg" y="-12.5" x="-12.5" class="icon-color-main-undefined" viewBox="-16 -16 32 32" height="32" width="32"><circle r="15" fill="#00fffd" stroke="#000"/><text y="-1.995" x="-7.008" style="line-height:1.25;-inkscape-font-specification:'lato Bold'" font-weight="700" font-size="12" font-family="lato" letter-spacing="0" word-spacing="0"><tspan y="-1.995" x="-7.008">10</tspan></text><g class="color-black color-stroke-black" stroke="#000" stroke-linecap="round" stroke-linejoin="round"><path d="M-10 2h20v1h-20z" transform="matrix(.76178 0 0 .75968 0 6.835)"/><path d="M4-8h1V8H4zm-9 0h1V8h-1z" transform="matrix(.76178 0 0 .75968 0 6.835)"/></g><path d="M-13.115 6.584c1.92 13.44 13.44 13.44 15.36 0m-26.88 19.2c5.76 0 9.6-13.44 9.6-19.2m28.8 19.2c-5.76 0-9.6-13.44-9.6-19.2" fill="none" stroke="#000" stroke-width="1.92" stroke-linecap="round" stroke-linejoin="round" transform="matrix(.39676 0 0 .39567 2.156 -1.848)"/></svg>