<?xml version="1.0" encoding="UTF-8" standalone="no"?>
<svg
   xmlns:dc="http://purl.org/dc/elements/1.1/"
   xmlns:cc="http://creativecommons.org/ns#"
   xmlns:rdf="http://www.w3.org/1999/02/22-rdf-syntax-ns#"
   xmlns:svg="http://www.w3.org/2000/svg"
   xmlns="http://www.w3.org/2000/svg"
   id="svg4615"
   version="1.1"
   y="-12.5"
   x="-12.5"
   class="icon-color-main-undefined"
   viewBox="-16 -16 32 32"
   height="32"
   width="32">
  <metadata
     id="metadata4621">
    <rdf:RDF>
      <cc:Work
         rdf:about="">
        <dc:format>image/svg+xml</dc:format>
        <dc:type
           rdf:resource="http://purl.org/dc/dcmitype/StillImage" />
        <dc:title></dc:title>
      </cc:Work>
    </rdf:RDF>
  </metadata>
  <defs
     id="defs4619" />
  <circle
     cx="0"
     cy="0"
     r="15"
     id="circle4607"
     style="fill:#00fffd;stroke:#000000;stroke-width:1;fill-opacity:1" />
  <text
     id="text4625"
     y="-1.9945426"
     x="-7.0079994"
     style="font-style:normal;font-variant:normal;font-weight:bold;font-stretch:normal;font-size:12px;line-height:1.25;font-family:lato;-inkscape-font-specification:'lato Bold';letter-spacing:0px;word-spacing:0px;fill:#000000;fill-opacity:1;stroke:none"
     xml:space="preserve"><tspan
       y="-1.9945426"
       x="-7.0079994"
       id="tspan4623">10</tspan></text>
  <g
     transform="matrix(0.39675804,0,0,0.39566791,2.1564585,-1.8476668)"
     id="g6750">
    <g
       transform="matrix(1.92,0,0,1.92,-5.4351978,21.944081)"
       class="color-black color-stroke-black"
       id="g6146"
       style="stroke:#000000;stroke-linecap:round;stroke-linejoin:round">
      <path
         d="M -10,2 H 10 V 3 H -10 Z"
         id="path6142" />
      <path
         d="M 4,-8 H 5 V 8 H 4 Z m -9,0 h 1 V 8 h -1 z"
         id="path6144" />
    </g>
    <path
       style="fill:none;stroke:#000000;stroke-width:1.91999996;stroke-linecap:round;stroke-linejoin:round"
       d="m -13.115198,6.5840806 c 1.92,13.4400004 13.44000018,13.4400004 15.3600002,0 M -24.635198,25.784081 c 5.76,0 9.6,-13.440001 9.6,-19.2000004 m 28.8,19.2000004 c -5.7599998,0 -9.5999998,-13.440001 -9.5999998,-19.2000004"
       id="path6148" />
  </g>
</svg>
