<svg xmlns="http://www.w3.org/2000/svg" width="32" height="32" viewBox="-16 -16 32 32"><circle fill="#0efffd" stroke="#000" r="15" opacity=".99"/><text style="line-height:1.25;-inkscape-font-specification:'lato Bold'" x="-7.203" y="-2.102" font-weight="700" font-size="12" font-family="lato" letter-spacing="0" word-spacing="0"><tspan x="-7.203" y="-2.102">10</tspan></text><path d="M-1.718 3.245c-.359.356-.715.707-1.066 1.059.391.386.77.768 1.16 1.152-.222.22-.43.427-.648.64-.377-.381-.758-.76-1.13-1.137-.351.356-.703.71-1.06 1.07-.1-.101-.185-.179-.265-.26-.54-.539-1.08-1.086-1.63-1.623-.245-.241-.356-.532-.383-.864-.046-.53.052-1.041.195-1.549.033-.118.07-.233.113-.348a.128.128 0 01.076-.078C-5.734 1.093-5.1.94-4.434 1c.344.033.64.161.881.42.334.356.686.69 1.035 1.034.266.258.532.522.8.79zm-.361 3.03l.635-.636c.135.138.266.281.402.42.374.376.75.753 1.127 1.129l1.478 1.479.916.916c.276.276.558.554.831.836.043.042.075.057.136.035.557-.204 1.044-.086 1.46.331l.43.43-.17.17c-.096-.1-.192-.203-.292-.299-.148-.148-.289-.308-.49-.394-.416-.173-.805-.128-1.152.16-.339.285-.444.659-.351 1.085.043.196.146.367.289.507.155.153.308.307.472.467l-.164.136c-.18-.17-.376-.344-.562-.532a1.048 1.048 0 01-.258-.502 1.27 1.27 0 01.05-.819c.025-.06.015-.1-.033-.145-.46-.455-.914-.914-1.373-1.368C.705 9.083.107 8.49-.49 7.893l-1.572-1.571c0-.023-.007-.033-.017-.048zm8.8.562c-.045-.06-.1-.113-.143-.179a16.776 16.776 0 00-2.334-2.934c-.146-.146-.299-.16-.477-.045-.083.053-.153.12-.228.18-.088.076-.128.078-.214-.007-.186-.18-.366-.366-.55-.547-.117-.118-.233-.231-.348-.35-.096-.094-.093-.137-.01-.24.07-.085.145-.17.198-.266.088-.16.07-.291-.063-.417-.417-.384-.828-.768-1.262-1.134A13.969 13.969 0 00-.392-.31c-.063-.04-.12-.093-.181-.143l.01-.033c.05.008.1.008.146.026.323.125.655.24.971.384.796.361 1.529.836 2.219 1.375.607.48 1.17 1.01 1.684 1.587a11.49 11.49 0 011.471 2.033c.317.557.593 1.134.788 1.744.016.05.02.1.036.154a.09.09 0 01-.03.02zm-8.235.379c.188.19.374.381.564.572-.082.085-.173.178-.263.274-.424.429-.849.86-1.27 1.292-.512.527-1.024 1.05-1.529 1.58-.43.454-.856.915-1.275 1.377-.186.204-.229.196-.387.025-.148-.163-.316-.316-.472-.472-.075-.075-.07-.138.01-.215.103-.1.211-.191.314-.29.42-.39.844-.782 1.258-1.176a219.83 219.83 0 001.742-1.685c.42-.409.838-.826 1.255-1.237.018-.018.035-.03.053-.045zm3.775-4.07l.856.87C2.06 4.895.99 5.764.065 6.788c-.191-.196-.377-.382-.573-.58 1.01-.926 1.883-1.996 2.769-3.062z"/><path d="M3.822 12.708a76.258 76.258 0 01-.447-.452c.385-.381.771-.768 1.16-1.152.143.145.296.299.444.454-.384.38-.77.766-1.157 1.15zm.841-10.04c-.351-.357-.708-.709-1.07-1.075.064-.063.156-.168.257-.256.058-.053.118-.043.186.02l.554.555c.096.095.189.19.284.283.118.113.12.163.003.284a4.45 4.45 0 01-.199.188.161.161 0 01-.032.025.108.108 0 00.017-.025z"/></svg>