<?xml version="1.0" encoding="UTF-8" standalone="no"?>
<svg
   xmlns:dc="http://purl.org/dc/elements/1.1/"
   xmlns:cc="http://creativecommons.org/ns#"
   xmlns:rdf="http://www.w3.org/1999/02/22-rdf-syntax-ns#"
   xmlns:svg="http://www.w3.org/2000/svg"
   xmlns="http://www.w3.org/2000/svg"
   width="32"
   height="32"
   viewBox="-16 -16 32 32"
   version="1.1"
   id="svg4762">
  <metadata
     id="metadata4768">
    <rdf:RDF>
      <cc:Work
         rdf:about="">
        <dc:format>image/svg+xml</dc:format>
        <dc:type
           rdf:resource="http://purl.org/dc/dcmitype/StillImage" />
        <dc:title></dc:title>
      </cc:Work>
    </rdf:RDF>
  </metadata>
  <defs
     id="defs4766" />
  <circle
     fill="#fff"
     stroke="#000"
     stroke-width="1"
     cx="0"
     cy="0"
     r="15"
     id="circle4738"
     style="opacity:0.99;fill:#0efffd;fill-opacity:1" />
  <text
     xml:space="preserve"
     style="font-style:normal;font-variant:normal;font-weight:bold;font-stretch:normal;font-size:12px;line-height:1.25;font-family:lato;-inkscape-font-specification:'lato Bold';letter-spacing:0px;word-spacing:0px;fill:#000000;fill-opacity:1;stroke:none"
     x="-7.2029996"
     y="-2.1016953"
     id="text5336"><tspan
       id="tspan5334"
       x="-7.2029996"
       y="-2.1016953">10</tspan></text>
  <g
     id="g8096"
     transform="matrix(0.02510159,0,0,0.02510159,-7.6792909,-1.4017278)">
    <path
       d="m 237.5,185.1 c -14.3,14.2 -28.5,28.2 -42.5,42.2 15.6,15.4 30.7,30.6 46.2,45.9 -8.8,8.8 -17.1,17 -25.8,25.5 -15,-15.2 -30.2,-30.3 -45,-45.3 -14,14.2 -28,28.3 -42.2,42.6 -4,-4 -7.4,-7.1 -10.6,-10.3 -21.5,-21.5 -43,-43.3 -64.9,-64.7 -9.8,-9.6 -14.2,-21.2 -15.3,-34.4 -1.8,-21.1 2.1,-41.5 7.8,-61.7 1.3,-4.7 2.8,-9.3 4.5,-13.9 0.4,-1.3 1.7,-2.7 3,-3.1 24.8,-8.5 50.1,-14.6 76.6,-12.2 13.7,1.3 25.5,6.4 35.1,16.7 13.3,14.2 27.3,27.5 41.2,41.2 10.6,10.3 21.2,20.8 31.9,31.5 z m -14.4,120.7 25.3,-25.3 c 5.4,5.5 10.6,11.2 16,16.7 14.9,15 29.9,30 44.9,45 l 58.9,58.9 36.5,36.5 c 11,11 22.2,22.1 33.1,33.3 1.7,1.7 3,2.3 5.4,1.4 22.2,-8.1 41.6,-3.4 58.2,13.2 l 17.1,17.1 -6.8,6.8 c -3.8,-4 -7.6,-8.1 -11.6,-11.9 -5.9,-5.9 -11.5,-12.3 -19.5,-15.7 -16.6,-6.9 -32.1,-5.1 -45.9,6.4 -13.5,11.3 -17.7,26.2 -14,43.2 1.7,7.8 5.8,14.6 11.5,20.2 6.2,6.1 12.3,12.2 18.8,18.6 -2.5,2.1 -4.8,4 -6.5,5.4 -7.2,-6.8 -15,-13.7 -22.4,-21.2 -5.4,-5.5 -8.5,-12.5 -10.3,-20 -2.8,-11 -2.4,-22.1 2,-32.6 1,-2.4 0.6,-4 -1.3,-5.8 -18.3,-18.1 -36.4,-36.4 -54.7,-54.5 -23.8,-23.8 -47.6,-47.4 -71.4,-71.2 l -62.6,-62.6 c 0,-0.9 -0.3,-1.3 -0.7,-1.9 z m 350.6,22.4 c -1.8,-2.4 -4,-4.5 -5.7,-7.1 -12.5,-20 -26.1,-39.2 -40.5,-57.6 -16.4,-20.8 -33.8,-40.6 -52.5,-59.3 -5.8,-5.8 -11.9,-6.4 -19,-1.8 -3.3,2.1 -6.1,4.8 -9.1,7.2 -3.5,3 -5.1,3.1 -8.5,-0.3 -7.4,-7.2 -14.6,-14.6 -21.9,-21.8 -4.7,-4.7 -9.3,-9.2 -13.9,-13.9 -3.8,-3.8 -3.7,-5.5 -0.4,-9.6 2.8,-3.4 5.8,-6.8 7.9,-10.6 3.5,-6.4 2.8,-11.6 -2.5,-16.6 -16.6,-15.3 -33,-30.6 -50.3,-45.2 -21,-17.8 -43.6,-33.6 -67,-48.1 -2.5,-1.6 -4.8,-3.7 -7.2,-5.7 0.1,-0.4 0.3,-0.8 0.4,-1.3 2,0.3 4,0.3 5.8,1 12.9,5 26.1,9.6 38.7,15.3 31.7,14.4 60.9,33.3 88.4,54.8 24.2,19.1 46.6,40.2 67.1,63.2 22.4,24.9 42.1,51.8 58.6,81 12.6,22.2 23.6,45.2 31.4,69.5 0.6,2 0.8,4 1.4,6.1 -0.3,0.3 -0.7,0.6 -1.2,0.8 z m -328.1,15.1 c 7.5,7.6 14.9,15.2 22.5,22.8 -3.3,3.4 -6.9,7.1 -10.5,10.9 -16.9,17.1 -33.8,34.3 -50.6,51.5 -20.4,21 -40.8,41.8 -60.9,62.9 -17.1,18.1 -34.1,36.5 -50.8,54.9 -7.4,8.1 -9.1,7.8 -15.4,1 -5.9,-6.5 -12.6,-12.6 -18.8,-18.8 -3,-3 -2.8,-5.5 0.4,-8.6 4.1,-4 8.4,-7.6 12.5,-11.5 16.7,-15.6 33.6,-31.2 50.1,-46.9 23.2,-22.2 46.4,-44.6 69.4,-67.1 16.7,-16.3 33.4,-32.9 50,-49.3 0.7,-0.7 1.4,-1.2 2.1,-1.8 z M 396,181.2 c 11.6,11.8 22.8,23.1 34.1,34.6 -42.1,35.1 -84.7,69.7 -121.6,110.5 -7.6,-7.8 -15,-15.2 -22.8,-23.1 40.2,-36.9 75,-79.5 110.3,-122 z"
       id="path7529" />
    <path
       d="m 458.2,562.1 c -5.9,-5.9 -11.9,-12 -17.8,-18 15.3,-15.2 30.7,-30.6 46.2,-45.9 5.7,5.8 11.8,11.9 17.7,18.1 -15.3,15.1 -30.7,30.5 -46.1,45.8 z m 33.5,-400 c -14,-14.2 -28.2,-28.2 -42.6,-42.8 2.5,-2.5 6.2,-6.7 10.2,-10.2 2.3,-2.1 4.7,-1.7 7.4,0.8 l 22.1,22.1 c 3.8,3.8 7.5,7.6 11.3,11.3 4.7,4.5 4.8,6.5 0.1,11.3 -2.5,2.5 -5.2,5.1 -7.9,7.5 -0.4,0.4 -0.8,0.7 -1.3,1 0.2,-0.2 0.5,-0.6 0.7,-1 z"
       id="path7531" />
  </g>
</svg>
