<svg xmlns="http://www.w3.org/2000/svg" viewBox="0 0 1000 1000" xmlns:v="https://vecta.io/nano"><path d="M12.8 10.6h975.8v975.8H12.8z" fill="#fff" stroke="#000" stroke-width="10" stroke-miterlimit="10"/><path d="M812.12 106.72c-8.45 2.24-18.79 5.52-22.76 7.06l-7.41 2.93-7.24-5.34c-5.86-4.31-8.79-5.34-16.21-5.34-11.72 0-15.17 3.1-13.96 12.76.51 3.97 1.38 8.28 1.9 9.83.86 2.07-.86 3.28-7.93 5.34-24.3 7.59-54.47 8.62-90.15 2.93-37.92-5.86-71.53-6.21-112.91-.86-49.13 6.04-77.22 7.93-124.28 7.93-43.96 0-71.01-1.73-115.32-7.06-44.13-5.34-68.95-6.72-91.19-4.82-29.82 2.41-53.09 9.65-66.71 21.03-2.76 2.24-9.3 6.04-14.48 8.45-12.57 5.68-18.94 11.36-24.64 21.87C89.87 199.64 89 208.95 89 286.34v70.84l-4.14 3.79c-6.54 6.03-11.71 20.33-12.75 33.78-.69 11.9 3.62 43.43 6.38 46.2 2.41 2.41 18.79-15.68 24.65-27.58 4.82-9.83 5.86-13.96 6.38-26.03.52-12.76 0-15.34-4.14-23.79l-4.65-9.48.86-58.09c.86-58.09 2.93-79.46 8.28-85.84 2.75-3.28 5-1.38 5 4.31 0 2.76 1.9 14.14 4.31 25.68 7.24 36.03 10 59.99 10 89.98 0 39.65-3.97 60.84-16.72 90.49-2.41 5.69-4.48 11.9-4.48 13.96 0 1.9 2.41 10 5.17 17.75 11.2 30.68 24.47 83.43 27.41 109.63 2.93 24.82 3.45 26.2 10.69 34.64 6.72 7.76 6.72 7.93 6.55 21.72-.17 7.59.52 14.48 1.38 15.34s15.51 1.38 33.79 1.21l32.06-.51-6.89-14.65c-5.69-12.24-9.3-16.9-21.55-28.78-8.1-7.93-15.68-16.89-17.07-20.16-3.45-8.28-6.38-34.47-6.72-59.64-.17-19.31.17-22.41 3.97-30.68l4.14-9.13 14.65 24.65c22.41 37.92 32.58 58.43 33.96 68.95 1.55 12.59 6.72 22.76 14.83 29.14 9.48 7.59 12.58 13.96 11.2 23.96-.69 4.48-.34 10.17.69 12.75l1.73 4.48h31.89c21.89 0 31.89-.52 31.89-1.9 0-1.03-3.62-8.79-8.1-17.41-8.1-15.85-10.69-18.45-28.27-28.96-6.04-3.8-8.27-6.89-16.21-23.27-15.68-32.41-25-68.26-25-95.84 0-10.52.34-11.54 3.97-12.58 8.28-2.24 11.03-1.21 12.58 4.48 2.93 9.83 13.79 7.59 12.41-2.41-.69-4.65-.34-4.99 5.86-5.52 1.21-.17 2.58 1.73 3.1 3.97 1.21 4.99 5.34 7.93 9.3 6.55 1.9-.69 2.76-3.1 2.76-7.76v-6.55l11.9-3.79c6.55-2.24 16.38-6.21 21.72-8.79l9.83-5 9.83 3.45c32.58 11.2 70.33 18.45 104.46 19.82 22.41.86 30.16.34 58.6-3.79 35.51-5.17 52.05-5.17 66.71 0l8.1 2.75 1.03 11.54c.51 6.38 2.24 15.86 3.62 21.03l6.21 21.55c2.58 9.48 3.62 19.82 4.48 47.74 1.21 35.34 1.21 35.69 5.69 40.51 7.41 7.93 8.96 12.07 7.59 22.06-.51 4.99-.51 11.03.17 13.61l1.03 4.48h29.13c22.23 0 29.14-.52 29.14-2.24 0-5.34-10.86-23.96-20.69-35.68-12.24-14.65-17.24-23.62-17.24-30.51 0-9.83 12.76-73.08 14.14-70.5.86 1.38 3.79 11.38 6.72 22.06 3.97 14.82 5.52 25.17 6.38 43.09l1.38 23.79 6.21 6.38c8.96 9.48 10 12.41 10 28.78v14.83h30.85 30.85l-3.28-8.79c-5.52-14.65-10.17-22.41-21.38-36.88-6.03-7.59-13.61-18.96-17.07-25.17-5.69-10.34-6.21-12.58-6.21-25 0-7.41 1.9-28.1 4.31-46.02l4.31-32.4 9.13-8.96c10.86-10.69 16.21-20.69 31.38-58.09 13.27-33.09 22.58-51.03 38.95-74.98 17.24-25.34 30.34-40.51 34.99-40.51 2.07 0 10.69 2.24 18.96 5.17 16.21 5.34 44.65 12.07 51.88 12.07 6.72 0 14.31-4.48 25.34-15.17 12.41-11.72 12.76-15 3.28-36.03-6.72-15-8.79-23.44-12.24-53.09-.86-8.62-2.24-17.24-2.75-19.31-1.03-3.45-.34-3.79 9.48-5 11.54-1.21 24.65-8.62 37.23-20.86 7.59-7.24 7.41-11.9-.52-17.24-13.79-9.13-31.55-8.96-52.05.52l-9.3 4.31-3.45-4.82c-16.73-23.78-38.97-30.68-70.86-22.23zM323.7 708.9v58.9h56.1v18.6h-56.1v59.3h-20.1v-59.3h-55.8v-18.6h55.8v-58.9h20.1zm109.7 142h42.5V716.2c0-4 .1-8.1.4-12.3L441 734.1c-.9.7-1.8 1.3-2.8 1.6-.9.3-1.8.5-2.6.5-1.4 0-2.6-.3-3.7-.9s-1.9-1.3-2.5-2.1l-7.7-10.6 58.7-50.9h20v179.2h38.9v18.8H433.4v-18.8zm272-80c0 17.3-1.9 32.2-5.6 44.9-3.7 12.6-8.8 23.1-15.2 31.4s-14 14.4-22.8 18.5c-8.8 4-18.2 6.1-28.2 6.1-10.1 0-19.5-2-28.2-6.1-8.7-4-16.2-10.2-22.7-18.5-6.4-8.3-11.5-18.7-15.2-31.4-3.7-12.6-5.5-27.6-5.5-44.9s1.8-32.3 5.5-44.9c3.7-12.7 8.7-23.2 15.2-31.5 6.4-8.3 14-14.5 22.7-18.5s18.1-6.1 28.2-6.1c10 0 19.4 2 28.2 6.1 8.8 4 16.4 10.2 22.8 18.5s11.5 18.8 15.2 31.5c3.8 12.6 5.6 27.6 5.6 44.9zm-25.5 0c0-15.1-1.3-27.7-3.8-38-2.5-10.2-5.9-18.5-10.2-24.7s-9.2-10.7-14.8-13.4-11.4-4.1-17.5-4.1-11.9 1.4-17.5 4.1-10.5 7.2-14.8 13.4c-4.2 6.3-7.6 14.5-10.1 24.7s-3.8 22.9-3.8 38 1.3 27.7 3.8 37.9 5.9 18.4 10.1 24.7 9.1 10.7 14.8 13.4c5.6 2.7 11.4 4.1 17.5 4.1s11.9-1.4 17.5-4.1 10.5-7.2 14.8-13.4 7.7-14.5 10.2-24.7c2.6-10.2 3.8-22.8 3.8-37.9z"/></svg>