<svg id="Layer_1" data-name="Layer 1" xmlns="http://www.w3.org/2000/svg" width="40" height="40" viewBox="0 0 40 40">
  <defs>
    <style>
      .cls-1 {
        fill: #000;
      }

      .cls-2 {
        fill: #fff;
      }
    </style>
  </defs>
  <circle class="cls-1" cx="19.98" cy="20" r="19.62"/>
  <path class="cls-2" d="M19.17,15.19H20.6a3.6,3.6,0,0,1,2.19.6,2,2,0,0,1,.81,1.76A2.15,2.15,0,0,1,22,19.8c1.3.38,1.95,1.1,1.95,2.18,0,1.88-1.18,2.83-3.54,2.83h-4.3V23.62c.23-.08.57-.2,1-.34V16.8l-1-.41V15.26Zm0,1.61v2.32H20c1,0,1.53-.42,1.53-1.27a1,1,0,0,0-.32-.78,1.28,1.28,0,0,0-.84-.27ZM20,20.55h-.79v2.66H20.3a1.59,1.59,0,0,0,1.08-.33,1.11,1.11,0,0,0,.38-.9,1.3,1.3,0,0,0-.44-1.08A2.17,2.17,0,0,0,20,20.55Z"/>
</svg>
