<svg data-name="Layer 1" xmlns="http://www.w3.org/2000/svg" width="40" height="40"><circle cx="19.98" cy="20" r="19.62"/><path d="M19.17 15.19h1.43a3.6 3.6 0 012.19.6 2 2 0 01.81 1.76A2.15 2.15 0 0122 19.8c1.3.38 1.95 1.1 1.95 2.18 0 1.88-1.18 2.83-3.54 2.83h-4.3v-1.19c.23-.08.57-.2 1-.34V16.8l-1-.41v-1.13zm0 1.61v2.32H20c1 0 1.53-.42 1.53-1.27a1 1 0 00-.32-.78 1.28 1.28 0 00-.84-.27zm.83 3.75h-.79v2.66h1.09a1.59 1.59 0 001.08-.33 1.11 1.11 0 00.38-.9 1.3 1.3 0 00-.44-1.08 2.17 2.17 0 00-1.32-.35z" fill="#fff"/></svg>