<svg id="Layer_1" data-name="Layer 1" xmlns="http://www.w3.org/2000/svg" width="40" height="40" viewBox="0 0 40 40">
  <defs>
    <style>
      .cls-1 {
        fill: #000;
      }

      .cls-2 {
        fill: #fff;
      }
    </style>
  </defs>
  <circle class="cls-1" cx="19.98" cy="20" r="19.62"/>
  <path class="cls-2" d="M22.08,17a5,5,0,0,0-1.53-.21c-1.5,0-2.25,1.11-2.25,3.34s.78,3.13,2.32,3.13A3.59,3.59,0,0,0,21.87,23a4.94,4.94,0,0,0,1-.48l.34-.23L24,23.48l-.16.16c-.08.07-.23.19-.47.36a5.84,5.84,0,0,1-.76.45,5.52,5.52,0,0,1-1,.36,4.8,4.8,0,0,1-1.19.16,4.19,4.19,0,0,1-3.23-1.23A5.18,5.18,0,0,1,16,20.14a5.35,5.35,0,0,1,1.24-3.75A4.32,4.32,0,0,1,20.62,15a7.51,7.51,0,0,1,1.53.16,7.23,7.23,0,0,1,1.21.32l.44.16-.07,2.59H22.39Z"/>
</svg>
