<svg data-name="Layer 1" xmlns="http://www.w3.org/2000/svg" width="40" height="40"><circle cx="19.98" cy="20" r="19.62"/><path d="M22.08 17a5 5 0 00-1.53-.21c-1.5 0-2.25 1.11-2.25 3.34s.78 3.13 2.32 3.13a3.59 3.59 0 001.25-.26 4.94 4.94 0 001-.48l.34-.23.79 1.19-.16.16c-.08.07-.23.19-.47.36a5.84 5.84 0 01-.76.45 5.52 5.52 0 01-1 .36 4.8 4.8 0 01-1.19.16 4.19 4.19 0 01-3.23-1.23 5.18 5.18 0 01-1.19-3.6 5.35 5.35 0 011.24-3.75A4.32 4.32 0 0120.62 15a7.51 7.51 0 011.53.16 7.23 7.23 0 011.21.32l.44.16-.07 2.59h-1.34z" fill="#fff"/></svg>