<svg data-name="Layer 1" xmlns="http://www.w3.org/2000/svg" width="40" height="40"><circle cx="19.98" cy="20" r="19.62" fill="#ff4136"/><path d="M15.07 17.49a4.66 4.66 0 00-1.53-.22c-1.5 0-2.25 1.11-2.25 3.34s.77 3.13 2.32 3.13a3.54 3.54 0 001.24-.24 4.8 4.8 0 001-.48l.34-.23L17 24l-.17.16a4.58 4.58 0 01-.47.36 4.14 4.14 0 01-.75.45 6.16 6.16 0 01-1 .36 4.48 4.48 0 01-1.19.16 4.18 4.18 0 01-3.23-1.23A5.13 5.13 0 019 20.67a5.36 5.36 0 011.24-3.74 4.33 4.33 0 013.36-1.37 8.1 8.1 0 011.52.16 7.39 7.39 0 011.22.32l.43.16-.06 2.59h-1.33zm2.63-2.61l3.09-.11v4a3.57 3.57 0 012.29-.93 2 2 0 011.57.65 2.72 2.72 0 01.54 1.8v3.62l1 .34v1.09h-3.72v-1.09l.71-.33v-3.31c0-.73-.3-1.09-.9-1.09a1.59 1.59 0 00-.71.18 2.35 2.35 0 00-.57.36l-.21.18v3.67l.72.34v1.09H17.7v-1.09l1.09-.34v-7.67L17.7 16zm9.22 3.2L30 18v5.93l.95.34v1.09h-4v-1.11l1.1-.34v-4.46l-1.1-.27zm.84-2.35a1.2 1.2 0 01.34-.9 1.18 1.18 0 01.83-.33q1.14 0 1.14 1.23a1.18 1.18 0 01-.34.9 1.11 1.11 0 01-.8.34 1.18 1.18 0 01-.87-.32 1.31 1.31 0 01-.3-.92z" fill="#fff"/></svg>