<svg id="Layer_1" data-name="Layer 1" xmlns="http://www.w3.org/2000/svg" width="40" height="40" viewBox="0 0 40 40">
  <defs>
    <style>
      .cls-1 {
        fill: red;
      }

      .cls-2 {
        fill: #fff;
      }
    </style>
  </defs>
  <circle class="cls-1" cx="19.98" cy="20" r="19.62"/>
  <g>
    <path class="cls-2" d="M15.07,17.49a4.66,4.66,0,0,0-1.53-.22c-1.5,0-2.25,1.11-2.25,3.34s.77,3.13,2.32,3.13a3.54,3.54,0,0,0,1.24-.24,4.8,4.8,0,0,0,1-.48l.34-.23L17,24l-.17.16a4.58,4.58,0,0,1-.47.36,4.14,4.14,0,0,1-.75.45,6.16,6.16,0,0,1-1,.36,4.48,4.48,0,0,1-1.19.16,4.18,4.18,0,0,1-3.23-1.23A5.13,5.13,0,0,1,9,20.67a5.36,5.36,0,0,1,1.24-3.74,4.33,4.33,0,0,1,3.36-1.37,8.1,8.1,0,0,1,1.52.16,7.39,7.39,0,0,1,1.22.32l.43.16-.06,2.59H15.38Z"/>
    <path class="cls-2" d="M17.7,14.88l3.09-.11v4a3.57,3.57,0,0,1,2.29-.93,2,2,0,0,1,1.57.65,2.72,2.72,0,0,1,.54,1.8v3.62l1,.34v1.09H22.47V24.25l.71-.33V20.61c0-.73-.3-1.09-.9-1.09a1.59,1.59,0,0,0-.71.18,2.35,2.35,0,0,0-.57.36l-.21.18v3.67l.72.34v1.09H17.7V24.25l1.09-.34V16.24L17.7,16Z"/>
    <path class="cls-2" d="M26.92,18.08,30,18v5.93l.95.34v1.09h-4V24.25l1.1-.34V19.45l-1.1-.27Zm.84-2.35a1.2,1.2,0,0,1,.34-.9,1.18,1.18,0,0,1,.83-.33q1.14,0,1.14,1.23a1.18,1.18,0,0,1-.34.9,1.11,1.11,0,0,1-.8.34,1.18,1.18,0,0,1-.87-.32A1.31,1.31,0,0,1,27.76,15.73Z"/>
  </g>
</svg>
