<svg id="Layer_1" data-name="Layer 1" xmlns="http://www.w3.org/2000/svg" width="40" height="40" viewBox="0 0 40 40">
  <defs>
    <style>
      .cls-1 {
        fill: #232b2b;
      }

      .cls-2 {
        fill: #fff;
      }
    </style>
  </defs>
  <circle class="cls-1" cx="19.98" cy="20" r="19.62"/>
  <g>
    <path class="cls-2" d="M13.91,23.62v1.19H10V23.62l1-.34V16.8l-1-.41V15.26l3.51-.07,2.05,4.54,2.14-4.47L21,15.19v1.2l-1,.41v6.48l1,.34v1.19H17V23.62L18,23.28V18.11c-.16.43-.35.87-.56,1.33s-.46,1-.73,1.5l-.62,1.28-1.47.06-1.57-3.23-.23-.71v4.94Z"/>
    <path class="cls-2" d="M28.08,17a5,5,0,0,0-1.53-.21c-1.5,0-2.25,1.11-2.25,3.34s.77,3.13,2.32,3.13A3.54,3.54,0,0,0,27.86,23a4.8,4.8,0,0,0,1-.48l.34-.23L30,23.48l-.17.16a4.58,4.58,0,0,1-.47.36,5.73,5.73,0,0,1-.75.45,6.16,6.16,0,0,1-1,.36,4.93,4.93,0,0,1-1.19.16,4.18,4.18,0,0,1-3.23-1.23A5.13,5.13,0,0,1,22,20.14a5.4,5.4,0,0,1,1.24-3.75A4.35,4.35,0,0,1,26.62,15a9.21,9.21,0,0,1,2.74.48l.43.16-.06,2.59H28.39Z"/>
  </g>
</svg>
