<svg id="Layer_1" data-name="Layer 1" xmlns="http://www.w3.org/2000/svg" width="40" height="40" viewBox="0 0 40 40">
  <defs>
    <style>
      .cls-1 {
        fill: gray;
      }

      .cls-2 {
        fill: #000;
      }
    </style>
  </defs>
  <circle class="cls-1" cx="19.98" cy="20" r="19.62"/>
  <g>
    <path class="cls-2" d="M8.9,23.62v1.19H5V23.62l1-.34V16.8l-1-.41V15.26l3.51-.07,2.05,4.54,2.14-4.47L16,15.19v1.2l-1,.41v6.48l1,.34v1.19H12V23.62L13,23.28V18.11c-.16.43-.35.87-.56,1.33s-.46,1-.73,1.5l-.62,1.28-1.47.06L8.08,19.05l-.23-.71v4.94Z"/>
    <path class="cls-2" d="M20.35,16.8v2.28h2.76v1.5H20.35v2.63h2.42l.31-1.13h1.25v2.73H17.22V23.62l1-.34V16.8l-1-.41V15.26l3.13-.07h3.82v2.64H22.9l-.34-1Z"/>
    <path class="cls-2" d="M29.2,23.62v1.19H25.15V23.62l.85-.29L28.75,20l-2.54-3.33-.79-.26V15.26l4.09-.07v1.2l-.68.24,1.41,1.89,1.33-1.84-.74-.29V15.26l3.93-.07v1.2l-.9.28-2.51,3.2L34,23.35l1,.27v1.19H30.74V23.62l.63-.22-1.5-2-1.53,2Z"/>
  </g>
</svg>
