<svg data-name="Layer 1" xmlns="http://www.w3.org/2000/svg" width="40" height="40"><circle cx="19.98" cy="20" r="19.62" fill="#a9a9a9"/><path d="M8.9 23.62v1.19H5v-1.19l1-.34V16.8l-1-.41v-1.13l3.51-.07 2.05 4.54 2.14-4.47 3.3-.07v1.2l-1 .41v6.48l1 .34v1.19h-4v-1.19l1-.34v-5.17c-.16.43-.35.87-.56 1.33s-.46 1-.73 1.5l-.62 1.28-1.47.06-1.54-3.23-.23-.71v4.94zm11.45-6.82v2.28h2.76v1.5h-2.76v2.63h2.42l.31-1.13h1.25v2.73h-7.11v-1.19l1-.34V16.8l-1-.41v-1.13l3.13-.07h3.82v2.64H22.9l-.34-1zm8.85 6.82v1.19h-4.05v-1.19l.85-.29L28.75 20l-2.54-3.33-.79-.26v-1.15l4.09-.07v1.2l-.68.24 1.41 1.89 1.33-1.84-.74-.29v-1.13l3.93-.07v1.2l-.9.28-2.51 3.2L34 23.35l1 .27v1.19h-4.26v-1.19l.63-.22-1.5-2-1.53 2z"/></svg>