<svg data-name="Layer 1" xmlns="http://www.w3.org/2000/svg" width="40" height="40"><circle cx="19.98" cy="20" r="19.62" fill="#00ac00"/><path d="M8.81 24v1.18H4.86V24l1-.34v-6.45l-1-.41v-1.13l3.27-.07 3.68 6.3v-4.69l-1-.41v-1.13l3.88-.07v1.2l-1 .41v8H11.4L7.75 19v4.65zm14.55 1.12l-2.86.09-.13-.72a2.8 2.8 0 01-2.05.86 2.43 2.43 0 01-2.1-1 4.48 4.48 0 01-.7-2.69 4.13 4.13 0 011-3 3.77 3.77 0 012.88-1 3 3 0 01.89.13v-1.67l-1.09-.27v-1.09l3.09-.11v9.11l1.09.27zM20.27 23v-3.51a2.12 2.12 0 00-1.07-.21c-1 0-1.57.78-1.57 2.32s.44 2.16 1.31 2.16a1.39 1.39 0 00.72-.2 1.49 1.49 0 00.47-.39zM28 24v1.18h-3.89V24l1-.34v-6.45l-1-.41v-1.13l3.52-.07 2 4.54 2.14-4.47 3.27-.07v1.2l-1 .41v6.48l1 .34v1.18h-3.98V24l1.06-.34v-5.14c-.16.43-.35.87-.56 1.33s-.46 1-.72 1.5-.48 1-.62 1.27l-1.48.07-1.56-3.23-.24-.71v4.94z" fill="#fff"/></svg>