<svg id="Layer_1" data-name="Layer 1" xmlns="http://www.w3.org/2000/svg" width="40" height="40" viewBox="0 0 40 40">
  <defs>
    <style>
      .cls-1 {
        fill: green;
      }

      .cls-2 {
        fill: #fff;
      }
    </style>
  </defs>
  <circle class="cls-1" cx="19.98" cy="20" r="19.62"/>
  <g>
    <path class="cls-2" d="M8.81,24v1.18H4.86V24l1-.34V17.21l-1-.41V15.67l3.27-.07,3.68,6.3V17.21l-1-.41V15.67l3.88-.07v1.2l-1,.41v8H11.4L7.75,19v4.65Z"/>
    <path class="cls-2" d="M23.36,25.12l-2.86.09-.13-.72a2.8,2.8,0,0,1-2.05.86,2.43,2.43,0,0,1-2.1-1,4.48,4.48,0,0,1-.7-2.69,4.13,4.13,0,0,1,1-3,3.77,3.77,0,0,1,2.88-1,3,3,0,0,1,.89.13V16.12l-1.09-.27V14.76l3.09-.11v9.11l1.09.27ZM20.27,23V19.49a2.12,2.12,0,0,0-1.07-.21c-1,0-1.57.78-1.57,2.32s.44,2.16,1.31,2.16a1.39,1.39,0,0,0,.72-.2,1.49,1.49,0,0,0,.47-.39Z"/>
    <path class="cls-2" d="M28,24v1.18H24.11V24l1-.34V17.21l-1-.41V15.67l3.52-.07,2,4.54,2.14-4.47,3.27-.07v1.2l-1,.41v6.48l1,.34v1.18H31.06V24l1.06-.34V18.52c-.16.43-.35.87-.56,1.33s-.46,1-.72,1.5-.48,1-.62,1.27l-1.48.07-1.56-3.23-.24-.71v4.94Z"/>
  </g>
</svg>
