<svg id="Layer_1" data-name="Layer 1" xmlns="http://www.w3.org/2000/svg" width="40" height="40" viewBox="0 0 40 40">
  <defs>
    <style>
      .cls-1 {
        fill: yellow;
      }

      .cls-2 {
        fill: #000;
      }
    </style>
  </defs>
  <circle class="cls-1" cx="19.98" cy="20" r="19.62"/>
  <g>
    <path class="cls-2" d="M10.9,23.62v1.19H6.74V23.62l1-.34V16.8l-1-.41V15.26l3.14-.07h1.29a3.6,3.6,0,0,1,2.44.77,2.65,2.65,0,0,1,.87,2.1,3.19,3.19,0,0,1-1,2.55,4.31,4.31,0,0,1-2.88.86H9.88v1.81Zm-1-6.82v3.07h.72a2,2,0,0,0,1.32-.39,1.46,1.46,0,0,0,.45-1.15,1.64,1.64,0,0,0-.36-1.1,1.27,1.27,0,0,0-1-.43Z"/>
    <path class="cls-2" d="M21.1,15.19,24,23.31l.95.31v1.19H20.65V23.62l1-.31-.33-1h-3l-.34,1,1.07.33v1.19H14.92V23.62l1-.31,3-8.07Zm-1.23,2.4-1.08,3.23h2.1Z"/>
    <path class="cls-2" d="M31.36,17a5,5,0,0,0-1.53-.21c-1.5,0-2.25,1.11-2.25,3.34s.78,3.13,2.32,3.13A3.59,3.59,0,0,0,31.15,23a4.94,4.94,0,0,0,1-.48l.34-.23.75,1.22-.16.16a4.58,4.58,0,0,1-.47.36,5.84,5.84,0,0,1-.76.45,5.52,5.52,0,0,1-1,.36,4.8,4.8,0,0,1-1.19.16,4.17,4.17,0,0,1-3.22-1.23,5.13,5.13,0,0,1-1.14-3.6,5.35,5.35,0,0,1,1.24-3.75A4.33,4.33,0,0,1,29.9,15a7.51,7.51,0,0,1,1.53.16,7,7,0,0,1,1.21.32l.44.16L33,18.26H31.67Z"/>
  </g>
</svg>
