<svg data-name="Layer 1" xmlns="http://www.w3.org/2000/svg" width="40" height="40"><circle cx="19.98" cy="20" r="19.62" fill="#0080ff"/><path d="M7.63 21.84L7.84 23a2.84 2.84 0 001.33.28 2.27 2.27 0 001.18-.28.93.93 0 00.47-.81.78.78 0 00-.34-.64 2.43 2.43 0 00-.85-.43 10.18 10.18 0 01-1.11-.4 11.48 11.48 0 01-1.11-.54 2.32 2.32 0 01-.85-.88 2.6 2.6 0 01-.34-1.37 2.57 2.57 0 011-2.13 3.94 3.94 0 012.46-.8 8.13 8.13 0 011.43.14 8.9 8.9 0 011.16.27l.41.14-.07 2.48h-1.26L11 16.89a3.92 3.92 0 00-1.2-.2 1.82 1.82 0 00-1.06.31.81.81 0 000 1.34 2.71 2.71 0 00.85.43 10.18 10.18 0 011.11.4 10.2 10.2 0 011.1.53 2.28 2.28 0 01.85.84 2.46 2.46 0 01.35 1.27 2.84 2.84 0 01-1 2.33 4 4 0 01-2.72.86 9.38 9.38 0 01-1.44-.13 9.58 9.58 0 01-1.19-.27l-.41-.12v-2.64zm10.76 1.77v1.19h-4.16v-1.19l1-.34V16.8l-1-.41v-1.13l3.14-.07h1.29a3.6 3.6 0 012.44.81 2.65 2.65 0 01.87 2.1 3.16 3.16 0 01-1 2.55 4.32 4.32 0 01-2.88.86h-.72v1.81zm-1-6.81v3.06h.72a2 2 0 001.31-.39 1.42 1.42 0 00.46-1.15 1.64 1.64 0 00-.36-1.1 1.3 1.3 0 00-1-.42zm9.25 6.81v1.19h-3.89v-1.19l1-.34V16.8l-1-.41v-1.13l3.52-.07 2 4.54 2.14-4.47 3.27-.07v1.2l-1 .41v6.47l1 .34v1.19H29.7v-1.19l1.07-.34v-5.16c-.17.42-.36.87-.57 1.32s-.45 1-.72 1.5-.48 1-.62 1.28l-1.47.07-1.57-3.23-.23-.71v4.93z" fill="#fff"/></svg>