<svg id="Layer_1" data-name="Layer 1" xmlns="http://www.w3.org/2000/svg" width="40" height="40" viewBox="0 0 40 40">
  <defs>
    <style>
      .cls-1 {
        fill: blue;
      }

      .cls-2 {
        fill: #fff;
      }
    </style>
  </defs>
  <circle class="cls-1" cx="19.98" cy="20" r="19.62"/>
  <g>
    <path class="cls-2" d="M7.63,21.84,7.84,23a2.84,2.84,0,0,0,1.33.28A2.27,2.27,0,0,0,10.35,23a.93.93,0,0,0,.47-.81.78.78,0,0,0-.34-.64,2.43,2.43,0,0,0-.85-.43,10.18,10.18,0,0,1-1.11-.4,11.48,11.48,0,0,1-1.11-.54,2.32,2.32,0,0,1-.85-.88,2.6,2.6,0,0,1-.34-1.37,2.57,2.57,0,0,1,1-2.13A3.94,3.94,0,0,1,9.68,15a8.13,8.13,0,0,1,1.43.14,8.9,8.9,0,0,1,1.16.27l.41.14-.07,2.48H11.35L11,16.89a3.92,3.92,0,0,0-1.2-.2A1.82,1.82,0,0,0,8.74,17a.81.81,0,0,0,0,1.34,2.71,2.71,0,0,0,.85.43,10.18,10.18,0,0,1,1.11.4,10.2,10.2,0,0,1,1.1.53,2.28,2.28,0,0,1,.85.84A2.46,2.46,0,0,1,13,21.81a2.84,2.84,0,0,1-1,2.33A4,4,0,0,1,9.28,25a9.38,9.38,0,0,1-1.44-.13,9.58,9.58,0,0,1-1.19-.27l-.41-.12V21.84Z"/>
    <path class="cls-2" d="M18.39,23.61V24.8H14.23V23.61l1-.34V16.8l-1-.41V15.26l3.14-.07h1.29A3.6,3.6,0,0,1,21.1,16a2.65,2.65,0,0,1,.87,2.1,3.16,3.16,0,0,1-1,2.55,4.32,4.32,0,0,1-2.88.86h-.72v1.81Zm-1-6.81v3.06h.72a2,2,0,0,0,1.31-.39,1.42,1.42,0,0,0,.46-1.15,1.64,1.64,0,0,0-.36-1.1,1.3,1.3,0,0,0-1-.42Z"/>
    <path class="cls-2" d="M26.64,23.61V24.8H22.75V23.61l1-.34V16.8l-1-.41V15.26l3.52-.07,2,4.54,2.14-4.47,3.27-.07v1.2l-1,.41v6.47l1,.34V24.8H29.7V23.61l1.07-.34V18.11c-.17.42-.36.87-.57,1.32s-.45,1-.72,1.5-.48,1-.62,1.28l-1.47.07-1.57-3.23-.23-.71v4.93Z"/>
  </g>
</svg>
