<svg id="Layer_1" data-name="Layer 1" xmlns="http://www.w3.org/2000/svg" width="40" height="40" viewBox="0 0 40 40">
  <defs>
    <style>
      .cls-1 {
        fill: darkMagenta;
      }

      .cls-2 {
        fill: #fff;
      }
    </style>
  </defs>
  <circle class="cls-1" cx="19.98" cy="20" r="19.62"/>
  <g>
    <path class="cls-2" d="M9.26,17.2v4.32a2.77,2.77,0,0,0,.39,1.68,1.64,1.64,0,0,0,1.38.5,1.53,1.53,0,0,0,1.39-.55,3.61,3.61,0,0,0,.35-1.83V17.2l-1.06-.41V15.66l4.2-.07v1.2l-1,.41v4.12a4.43,4.43,0,0,1-.9,3,3.9,3.9,0,0,1-3,1A3.92,3.92,0,0,1,8,24.44a4.07,4.07,0,0,1-.9-2.92V17.2l-1-.41V15.66l4.2-.07v1.2Z"/>
    <path class="cls-2" d="M24.62,25.11l-2.86.09-.13-.72a2.82,2.82,0,0,1-2.06.86,2.41,2.41,0,0,1-2.09-1,4.43,4.43,0,0,1-.7-2.68,4.17,4.17,0,0,1,1-3,3.83,3.83,0,0,1,2.89-1,2.94,2.94,0,0,1,.88.14V16.11l-1.09-.27V14.75l3.1-.11v9.1l1.09.27ZM21.52,23V19.48a2.06,2.06,0,0,0-1.06-.21c-1,0-1.57.77-1.57,2.32s.44,2.15,1.31,2.15a1.33,1.33,0,0,0,.72-.2,1.63,1.63,0,0,0,.47-.38Z"/>
    <path class="cls-2" d="M31.48,24V25.2H27.32V24l1-.34v-1.8l-2.49-4.71L25,16.79V15.66l3.86-.07v1.2l-.7.29,1.36,3,1.45-2.94-.75-.3V15.66l3.68-.07v1.2l-.94.37-2.47,4.7v1.81Z"/>
  </g>
</svg>
