<svg xmlns="http://www.w3.org/2000/svg" width="65.8" height="65.8" viewBox="0 0 17.41 17.41"><circle cx="8.705" cy="8.704" r="8.573" fill="#fff" stroke="#fff" stroke-width=".265"/><path d="M4.388 11.193c-.008-.01-.008-1.13-.007-2.486l.006-2.463 8.647-.001.012 1.203v2.481l-.012 1.28-4.318.005c-3.442.001-4.32 0-4.329-.018zm4.003-.7c.114-.043.13-.058.186-.179.077-.16.066-.486-.022-.712-.067-.176-.357-.259-.544-.154-.093.052-.152.165-.183.35-.048.289.045.609.197.68.115.053.247.058.366.014zm-.249-.106c-.102-.089-.173-.424-.13-.611.028-.122.07-.178.158-.22.123-.057.2.011.257.229.035.123.035.167.01.325-.034.214-.083.286-.198.293-.04.004-.083-.005-.097-.016zm1.285.088c.13-.065.139-.103.14-.604l.001-.459-.083.006-.08.004-.008.438c-.006.39-.01.442-.049.483a.23.23 0 0 1-.2.057c-.034-.014-.063-.037-.086-.065-.04-.05-.045-.096-.054-.487l-.01-.434h-.159l-.005.374v.385c0 .006.005.044.007.084.007.131.086.204.26.243a.51.51 0 0 0 .324-.025zm-2.394-.08v-.384c-.006-.29.01-.313.095-.148l.14.25.16.277c.06.105.066.11.15.114.049.003.089.003.089-.002 0-.015-.12-.227-.261-.465a2.14 2.14 0 0 1-.147-.276c-.001-.021.024-.037.09-.053a.35.35 0 0 0 .245-.205.58.58 0 0 0-.024-.41c-.028-.045-.057-.083-.066-.083-.027-.008-.052-.021-.074-.038-.052-.035-.078-.037-.327-.037h-.27l-.007.764.006.787c.006.012.05.02.106.02h.093zm.007-.817a2.23 2.23 0 0 1-.006-.273l.007-.253.066-.006c.09-.002.178.019.257.062.033.021.04.053.04.188 0 .19-.026.257-.107.284s-.244.024-.258-.002zm3.021.442v-.488h.081c.078 0 .083-.003.083-.058s-.007-.058-.076-.063l-.078-.005-.007-.141-.007-.14-.086.006-.088.006-.006.138-.007.139H9.8c-.063 0-.07.004-.07.058s.007.058.064.063l.065.005.006.462.018.485c.007.011.048.021.093.021h.085zm.888.458c.066-.04.145-.191.145-.275v-.067l-.088.005c-.088.005-.088.005-.088.082 0 .13-.123.215-.244.168-.09-.035-.131-.122-.15-.329-.006-.057.001-.068.042-.069l.298-.004.254-.002v-.123c-.001-.182-.078-.352-.182-.408-.062-.027-.13-.038-.197-.033-.164 0-.21.026-.31.177-.073.107-.073.112-.071.362 0 .313.055.437.22.518.08.039.307.039.372 0zm-.442-.613c0-.01.012-.067.026-.126.041-.168.195-.258.295-.175a.59.59 0 0 1 .124.275v.046h-.223c-.153 0-.223-.006-.223-.02zm-.658-1.22c.049-.019.092-.049.127-.088.047-.057.049-.09.056-.737l.006-.677h-.097c-.075 0-.094.006-.083.025.019.036-.03.05-.074.02-.087-.045-.189-.052-.282-.019-.175.082-.225.195-.226.52-.001.203.006.253.051.354.063.135.123.177.277.19.077.006.117 0 .173-.029l.072-.037v.126c0 .148-.023.2-.103.239-.123.057-.25-.007-.25-.129 0-.047-.005-.05-.096-.05h-.098l.015.088c.007.046.025.09.052.127.091.1.314.136.48.076zm-.264-.556c-.11-.082-.122-.126-.116-.423.006-.214.014-.29.043-.334s.08-.078.136-.081.11.021.144.065c.04.046.047.094.053.335.007.304-.022.433-.113.468-.065.024-.08.02-.147-.03zm-3.078.119c.136-.073.146-.11.153-.591l-.007-.46c-.007-.009-.052-.014-.095-.011l-.08.006v.439c-.005.425-.006.442-.056.492-.053.055-.115.066-.219.037-.098-.027-.117-.109-.13-.56l-.01-.417h-.136v.445c0 .371.007.457.038.514a.31.31 0 0 0 .209.14c.09.018.273 0 .335-.034zm4.862.022c.057-.007.126-.068.186-.16.054-.083.062-.123.073-.33.012-.215.007-.25-.042-.368-.045-.108-.069-.14-.148-.188-.043-.029-.091-.049-.142-.06-.276-.01-.39.093-.439.4-.036.225-.012.437.062.557.094.152.19.184.45.15zm-.22-.127c-.058-.026-.08-.05-.1-.119a1.43 1.43 0 0 1 0-.528c.03-.122.078-.175.178-.188.068-.01.08-.005.138.057s.066.093.08.25c.027.313-.065.561-.206.56a.42.42 0 0 1-.09-.032zm-5.658.083c.133-.06.183-.16.185-.38 0-.176-.001-.19-.063-.256-.042-.044-.093-.077-.15-.097l-.086-.024.08-.055a.45.45 0 0 0 .137-.156c.046-.086.052-.12.038-.235-.017-.16-.086-.275-.184-.309-.108-.019-.218-.028-.328-.025l-.265-.003-.006.797-.007.798.283-.01c.232-.009.299-.017.365-.045zm-.436-.385v-.322h.089c.126 0 .245.049.292.118.053.08.057.31.007.402-.042.073-.095.095-.275.113l-.112.01zm.013-.459c-.01-.103-.012-.207-.007-.31l.007-.283.103.004c.137.007.208.042.237.118.055.146 0 .42-.092.456-.082.031-.234.04-.248.015zm1.984.56c0-.466.042-.587.202-.608.054-.006.071-.019.077-.056a.12.12 0 0 0-.006-.07c-.021-.039-.11-.007-.172.062-.07.076-.107.082-.1.018.01-.093.001-.105-.072-.105h-.069v1.094h.14zm.6-.503v-.837l-.094-.006-.094-.004.012 1.621c0 .062.006.063.09.063h.087zm.423.783c.007-.03.01-.275.007-.543l-.007-.487-.088-.007-.088-.005v1.096h.081c.073 0 .083-.006.095-.055zm.428-.371c.005-.395.007-.42.055-.482a.17.17 0 0 1 .199-.069c.118.033.128.08.128.546v.43h.081c.074 0 .083-.005.097-.057.007-.032.01-.238.007-.458-.01-.432-.026-.494-.14-.55-.105-.043-.223-.037-.324.015-.074.045-.125.042-.114-.007.006-.02-.014-.028-.082-.033l-.088-.005v1.098l.177-.012zm2.028.396l.006-.484.007-.454.076-.004c.07-.006.076-.011.076-.063s-.007-.057-.076-.062l-.076-.005-.014-.277h-.16l-.014.277-.078.005c-.07.005-.076.01-.076.062s.007.058.076.063l.078.004.006.484.007.483h.081c.062 0 .083-.007.083-.03zm1.503-.387c0-.4.002-.419.054-.482.065-.081.11-.102.19-.089.12.023.132.068.132.55v.437h.189v-.452c0-.479-.007-.52-.118-.604-.07-.054-.235-.052-.338.006-.082.043-.109.04-.109-.013 0-.027-.014-.03-.088-.027l-.088.006-.005.521.005.543c.007.011.048.021.093.021h.083zm-3.971-.913c.01 0 .03-.024.048-.052.03-.05.028-.056-.033-.093-.03-.02-.063-.034-.098-.04-.048 0-.128.061-.128.098 0 .057.09.11.16.094.016-.004.033-.006.05-.007z"/><path d="M3.156 11.91l-.078-.006V5.509l2.931-.01 5.615-.009h2.68l.013.74.014 3.214v2.475l-5.55-.003a1541 1541 0 0 1-5.625-.007zm8.506-.583h1.567V6.092l-.361.009-4.584.009H4.059l.006 2.007.016 2.619.012.609 3.002-.009 4.569-.009z" fill="#c72514"/></svg>