<?xml version="1.0" encoding="UTF-8" standalone="no"?>
<svg
   xmlns:dc="http://purl.org/dc/elements/1.1/"
   xmlns:cc="http://creativecommons.org/ns#"
   xmlns:rdf="http://www.w3.org/1999/02/22-rdf-syntax-ns#"
   xmlns:svg="http://www.w3.org/2000/svg"
   xmlns="http://www.w3.org/2000/svg"
   xmlns:sodipodi="http://sodipodi.sourceforge.net/DTD/sodipodi-0.dtd"
   xmlns:inkscape="http://www.inkscape.org/namespaces/inkscape"
   width="17.409584mm"
   height="17.409584mm"
   viewBox="0 0 17.409584 17.409584"
   version="1.1"
   id="svg1870"
   inkscape:version="1.0.1 (3bc2e813f5, 2020-09-07)"
   sodipodi:docname="GMO.svg">
  <defs
     id="defs1864" />
  <sodipodi:namedview
     id="base"
     pagecolor="#ffffff"
     bordercolor="#666666"
     borderopacity="1.0"
     inkscape:pageopacity="0.0"
     inkscape:pageshadow="2"
     inkscape:zoom="2.1760267"
     inkscape:cx="30.702679"
     inkscape:cy="137.18026"
     inkscape:document-units="mm"
     inkscape:current-layer="layer1"
     inkscape:document-rotation="0"
     showgrid="false"
     fit-margin-top="0"
     fit-margin-left="0"
     fit-margin-right="0"
     fit-margin-bottom="0"
     inkscape:window-width="1920"
     inkscape:window-height="1054"
     inkscape:window-x="0"
     inkscape:window-y="26"
     inkscape:window-maximized="1" />
  <metadata
     id="metadata1867">
    <rdf:RDF>
      <cc:Work
         rdf:about="">
        <dc:format>image/svg+xml</dc:format>
        <dc:type
           rdf:resource="http://purl.org/dc/dcmitype/StillImage" />
        <dc:title />
      </cc:Work>
    </rdf:RDF>
  </metadata>
  <g
     inkscape:label="Layer 1"
     inkscape:groupmode="layer"
     id="layer1"
     transform="translate(-102.28184,42.237323)">
    <circle
       class="st1"
       cx="110.98663"
       cy="-33.532532"
       id="circle3408"
       style="fill:#ffffff;stroke:#ffffff;stroke-width:0.264583;stroke-miterlimit:10"
       r="8.5725002" />
    <path
       d="m 111.15789,-29.435041 c -0.0513,-0.03466 -0.10914,-0.07294 -0.12619,-0.08417 -0.72598,-0.49312 -1.00679,-0.669234 -1.20395,-0.75094 -0.0915,-0.04063 -0.19469,-0.08417 -0.22943,-0.09776 -0.0342,-0.01512 -0.12037,-0.04409 -0.18883,-0.06116 -0.0689,-0.01914 -0.1453,-0.04202 -0.16829,-0.05131 -0.023,-0.0097 -0.065,-0.0269 -0.0935,-0.03813 -0.0288,-0.01109 -0.0768,-0.03078 -0.10511,-0.04396 -0.0919,-0.03813 -0.31946,-0.105114 -0.54498,-0.158503 -0.23873,-0.05769 -0.83117,-0.158989 -0.92461,-0.158989 -0.0401,0 -0.0593,-0.01109 -0.0612,-0.03813 -0.005,-0.07239 0.005,-0.372281 0.0151,-0.424144 l 0.01,-0.05533 -0.37278,-0.01387 c -0.20448,-0.0069 -0.61738,-0.019 -0.91531,-0.02635 -0.36299,-0.0097 -0.55425,-0.02108 -0.56943,-0.0362 -0.0139,-0.01387 -0.044,-0.09596 -0.067,-0.181994 -0.023,-0.08556 -0.048,-0.17366 -0.0553,-0.192741 -0.0269,-0.06892 0.0803,-0.08417 0.67659,-0.08999 0.31308,-0.0056 0.59242,-0.01387 0.61688,-0.01913 0.12231,-0.03425 0.28668,-0.10664 0.28668,-0.127718 0,-0.01387 -0.0612,-0.02885 -0.15069,-0.03869 -0.0842,-0.0069 -0.28862,-0.02648 -0.45495,-0.0416 -0.93048,-0.09388 -1.1829,-0.118843 -1.18681,-0.12231 -0.002,-0.0042 -0.10318,-0.229447 -0.22552,-0.50291 -0.12037,-0.272977 -0.23874,-0.535193 -0.26368,-0.584602 -0.023,-0.04798 -0.042,-0.09929 -0.042,-0.113018 0,-0.01512 0.067,-0.02843 0.19324,-0.03813 0.1072,-0.0069 0.30379,-0.02302 0.43538,-0.03425 0.13202,-0.0097 0.31359,-0.02496 0.4036,-0.03231 0.14872,-0.01109 0.16243,-0.01568 0.16243,-0.05769 -0.002,-0.125776 -0.01,-0.1316 -0.22749,-0.146771 -0.11109,-0.0083 -0.34782,-0.02885 -0.52736,-0.04604 -0.17807,-0.01705 -0.38598,-0.0362 -0.46475,-0.04396 l -0.13942,-0.01109 -0.0665,-0.181995 c -0.0387,-0.09929 -0.0769,-0.18883 -0.0861,-0.200562 -0.01,-0.0097 -0.0171,-0.03813 -0.0171,-0.0631 0,-0.0244 -0.01,-0.05339 -0.0192,-0.06268 -0.01,-0.01109 -0.067,-0.143333 -0.1262,-0.292545 l -0.10719,-0.273462 0.046,-0.0362 c 0.0401,-0.03231 0.0823,-0.03813 0.29793,-0.03425 0.13943,0.0042 0.32875,0.01109 0.42072,0.02108 0.76413,0.07239 1.27047,0.07239 1.56497,-0.0042 0.0935,-0.02496 0.0974,-0.04409 0.023,-0.09388 -0.0401,-0.02635 -0.11107,-0.03813 -0.26564,-0.04355 -0.1169,-0.0042 -0.31162,-0.01761 -0.43196,-0.02885 -0.12038,-0.0097 -0.35761,-0.02496 -0.52345,-0.03231 -0.73381,-0.0269 -1.02636,-0.06698 -1.24797,-0.166337 -0.11691,-0.05381 -0.10914,-0.04202 -0.21623,-0.355654 -0.0342,-0.105114 -0.10665,-0.311626 -0.16046,-0.460338 -0.12037,-0.341953 -0.13942,-0.410928 -0.12619,-0.424144 0.01,-0.0097 0.30231,0.07238 0.60955,0.171719 0.0807,0.02496 0.24118,0.07294 0.35565,0.105113 0.11441,0.03078 0.27151,0.07433 0.34587,0.09541 0.0743,0.02108 0.20253,0.05186 0.28276,0.06893 0.0803,0.01913 0.26955,0.06116 0.41875,0.09541 0.37082,0.08611 1.0376,0.221613 1.45392,0.296455 0.19128,0.03425 0.36153,0.06656 0.37865,0.07238 0.0171,0.0056 0.17171,0.03425 0.34391,0.0631 0.17367,0.02885 0.40898,0.07294 0.52345,0.09541 0.11496,0.02302 0.33657,0.06504 0.49116,0.09388 0.34979,0.06309 0.52738,0.09735 0.85025,0.166323 0.13797,0.03037 0.38989,0.08224 0.56209,0.116485 0.43001,0.08806 0.5122,0.135483 0.64967,0.382071 0.044,0.07627 0.09,0.145301 0.10123,0.155077 0.0139,0.0069 0.0881,0.01705 0.16828,0.01914 0.0783,0.0056 0.1585,0.01705 0.17954,0.02635 0.0304,0.01705 0.042,0.105253 0.0842,0.707397 0.0264,0.378146 0.0553,0.724023 0.0631,0.768052 l 0.0139,0.08223 0.13548,-0.153109 c 0.0749,-0.08362 0.14922,-0.165852 0.16634,-0.183463 0.0347,-0.03425 0.0192,-0.110523 -0.0861,-0.433436 -0.0342,-0.103172 -0.0743,-0.231389 -0.0896,-0.282754 -0.09,-0.292543 -0.0954,-0.650153 -0.0111,-0.783708 0.0519,-0.08611 0.20842,-0.204487 0.32484,-0.250485 0.10914,-0.04008 0.44763,-0.129658 0.60808,-0.160458 0.0685,-0.01109 0.24265,-0.04937 0.38599,-0.08417 0.1453,-0.03231 0.34195,-0.07045 0.43931,-0.08417 0.16437,-0.02108 0.44517,-0.07627 0.62862,-0.12231 0.0401,-0.01109 0.1169,-0.02441 0.16829,-0.03231 0.0519,-0.0083 0.12232,-0.02302 0.15655,-0.03231 0.0593,-0.01761 0.16828,-0.04202 0.50829,-0.113018 0.0769,-0.01705 0.20644,-0.04008 0.28666,-0.05339 0.56602,-0.09388 1.42947,-0.282754 1.74892,-0.382072 0.22357,-0.06891 0.20987,-0.06698 0.32484,-0.08806 0.0455,-0.0097 0.15459,-0.03813 0.24068,-0.06698 0.35369,-0.110522 0.91726,-0.229434 0.94563,-0.200576 0.011,0.0097 -0.002,0.07238 -0.0264,0.139436 -0.0249,0.06698 -0.0861,0.259761 -0.1341,0.428054 l -0.0896,0.30379 -0.21622,0.04992 c -0.12037,0.02496 -0.33022,0.07045 -0.47013,0.101232 -0.13743,0.03037 -0.28815,0.06309 -0.33413,0.07433 -0.046,0.01109 -0.14529,0.03273 -0.21966,0.04798 -0.18002,0.03813 -0.38255,0.08417 -0.54692,0.124251 -0.28082,0.06656 -1.00484,0.221613 -1.04104,0.221613 -0.0406,0 -0.10719,0.06116 -0.10719,0.09929 0,0.07835 0.0993,0.07239 1.40255,-0.06698 1.00141,-0.108581 1.28025,-0.129659 1.29005,-0.105253 0.005,0.01387 -0.01,0.08029 -0.0327,0.149212 -0.023,0.06698 -0.0743,0.235314 -0.11649,0.374735 -0.044,0.137425 -0.0935,0.297925 -0.11441,0.355169 -0.0211,0.05727 -0.044,0.139421 -0.0519,0.181495 -0.008,0.04409 -0.0211,0.08223 -0.0304,0.08806 -0.008,0.0083 -0.20839,0.02108 -0.44371,0.03231 -0.23481,0.01109 -0.52344,0.02885 -0.63988,0.03674 l -0.21427,0.01109 -0.0455,-0.09152 c -0.0689,-0.134098 -0.23531,-0.374736 -0.31554,-0.454958 -0.0881,-0.09 -0.29989,-0.233359 -0.34001,-0.233359 -0.0171,0 -0.0382,-0.0097 -0.044,-0.019 -0.008,-0.01109 -0.0763,-0.04202 -0.15312,-0.06851 -0.20448,-0.071 -0.5978,-0.071 -0.816,0 -0.0836,0.02635 -0.15263,0.05533 -0.15263,0.0631 0,0.0097 -0.0342,0.03037 -0.0782,0.04743 -0.042,0.01913 -0.10525,0.05921 -0.13798,0.08999 -0.0323,0.03037 -0.0665,0.05325 -0.0763,0.05325 -0.046,0 -0.27493,0.319447 -0.31895,0.443212 l -0.048,0.134096 -0.29206,0.0056 c -0.26565,0.0056 -0.29646,0.01109 -0.34049,0.0513 -0.0264,0.02496 -0.046,0.05325 -0.042,0.0631 0.008,0.02302 0.18345,0.08223 0.39184,0.132155 0.0861,0.01913 0.16046,0.03813 0.16439,0.0416 0.005,0.0014 0.0111,0.08417 0.0171,0.180025 0.0111,0.213778 0.048,0.357124 0.14726,0.595849 0.067,0.158987 0.0993,0.206441 0.24851,0.355654 0.14138,0.143331 0.20645,0.191284 0.36692,0.269552 0.30966,0.152636 0.59437,0.188829 0.9515,0.12425 0.16437,-0.03078 0.23139,-0.03273 0.53324,-0.01109 0.19127,0.01109 0.43587,0.04008 0.54448,0.05728 0.2084,0.03467 0.45691,0.120785 0.47404,0.164383 0.005,0.01567 -0.008,0.08223 -0.0308,0.149212 -0.0382,0.116485 -0.0416,0.12425 -0.12036,0.135483 -0.0763,0.01387 -0.36299,0.02496 -1.30668,0.05186 -0.42658,0.01387 -0.52393,0.02302 -0.52393,0.05131 0,0.01109 -0.0139,0.02108 -0.0284,0.02108 -0.0157,0 -0.0441,0.01913 -0.065,0.04202 -0.0347,0.03813 -0.0362,0.06504 -0.0192,0.326781 0.0139,0.187375 0.0111,0.288634 -0.002,0.299894 -0.0111,0.0097 -0.14921,0.03661 -0.3038,0.06116 -0.28276,0.04604 -0.71278,0.145301 -0.73185,0.168293 -0.01,0.01109 -0.16829,0.05533 -0.34588,0.09582 -0.023,0.0056 -0.18149,0.06462 -0.35174,0.133541 -0.17023,0.06892 -0.3077,0.12231 -0.3077,0.116486 0,-0.01512 -0.33461,0.134096 -0.39577,0.176114 -0.0342,0.02441 -0.0705,0.04548 -0.0823,0.04548 -0.0139,0 -0.0244,0.0083 -0.0284,0.01761 -0.0111,0.02247 -0.19861,0.148726 -0.22553,0.148726 -0.0111,0 -0.023,0.0097 -0.023,0.02108 0,0.01109 -0.01,0.02108 -0.0211,0.02108 -0.0139,0 -0.0954,0.04992 -0.18345,0.109135 -0.1815,0.12231 -0.16242,0.108581 -0.31701,0.248516 -0.0612,0.05727 -0.13202,0.103172 -0.15704,0.103172 -0.023,0 -0.0861,-0.0269 -0.13742,-0.06115 z m 0.0534,-1.184862 0.0631,-0.03078 -0.005,-0.18345 c -0.005,-0.09929 -0.0269,-0.775874 -0.0499,-1.501867 -0.0534,-1.729345 -0.065,-2.050746 -0.0724,-2.058082 -0.005,-0.0056 -0.0401,-0.01387 -0.0807,-0.02496 -0.0895,-0.01913 -0.0606,-0.04798 -0.51365,0.518067 -0.18737,0.232859 -0.34588,0.424144 -0.35371,0.424144 -0.046,0 -0.10913,-0.02884 -0.10913,-0.04798 0,-0.0097 -0.0362,-0.0685 -0.0802,-0.128133 -0.0441,-0.05921 -0.1678,-0.232871 -0.27493,-0.389419 -0.10706,-0.155078 -0.20254,-0.284709 -0.21427,-0.28862 -0.01,-0.0056 -0.0172,-0.01705 -0.0172,-0.02885 0,-0.01705 -0.0724,-0.103172 -0.23287,-0.269552 -0.0308,-0.03231 -0.0577,-0.06656 -0.0631,-0.07627 -0.005,-0.01109 -0.0328,-0.03813 -0.0651,-0.0631 -0.10913,-0.08417 -0.12037,-0.05728 -0.12037,0.30576 0.007,0.24656 0.0171,0.556216 0.0152,0.571386 l 0.0152,0.464263 c 0.008,0.254382 0.023,0.777829 0.0328,1.161855 0.01,0.385981 0.0264,0.707397 0.0362,0.714733 0.01,0.0097 0.11247,0.02108 0.23139,0.02885 l 0.21379,0.0097 0.0553,-0.08029 c 0.0729,-0.112464 0.0823,-0.261717 0.0401,-0.618841 -0.0513,-0.414852 -0.0211,-0.62325 0.0769,-0.562095 0.023,0.01387 0.22552,0.43001 0.31114,0.642318 0.042,0.105252 0.0558,0.120367 0.0998,0.114405 0.0382,-0.0042 0.0593,-0.02635 0.0782,-0.08029 0.0139,-0.04008 0.0439,-0.116485 0.0685,-0.170249 0.0249,-0.05533 0.046,-0.106639 0.046,-0.118426 0,-0.0097 0.0111,-0.04548 0.0288,-0.07821 0.0151,-0.03425 0.0553,-0.126192 0.0875,-0.202532 0.0327,-0.07835 0.071,-0.14139 0.0861,-0.14139 0.0342,0 0.042,0.06309 0.0689,0.596348 0.065,1.288075 0.0823,1.545895 0.10123,1.564962 0.011,0.01109 0.0823,0.0269 0.15851,0.03425 0.0743,0.0097 0.14332,0.02108 0.15264,0.03078 0.0176,0.01913 0.0958,0.0014 0.1854,-0.04008 z m 2.28557,-1.129585 c 0.16828,-0.143333 0.18931,-0.320916 0.0558,-0.456428 -0.0612,-0.06171 -0.0689,-0.08071 -0.0538,-0.122309 0.0111,-0.0269 0.0328,-0.08999 0.046,-0.137979 l 0.0269,-0.0875 -0.12036,-0.137979 c -0.065,-0.07433 -0.12813,-0.135483 -0.13798,-0.135483 -0.01,0 -0.044,0.0097 -0.0743,0.02108 -0.0342,0.01387 -0.0612,0.01387 -0.0689,0.0014 -0.007,-0.01109 -0.10525,-0.118427 -0.21573,-0.238725 -0.36496,-0.389893 -0.34783,-0.359565 -0.26369,-0.479918 0.0211,-0.03037 0.0382,-0.06698 0.0382,-0.08029 0,-0.01109 0.0139,-0.04992 0.0304,-0.08417 0.0176,-0.03231 0.0401,-0.128134 0.0538,-0.211822 0.0304,-0.214278 -0.01,-0.340497 -0.14724,-0.479919 l -0.10512,-0.103187 h -0.43392 l -0.0896,0.118427 c -0.16045,0.212308 -0.18735,0.49703 -0.067,0.726465 0.0612,0.116485 0.071,0.08029 -0.10317,0.339997 -0.29988,0.445181 -0.35321,0.716689 -0.21574,1.075767 0.11649,0.303804 0.44322,0.502911 0.82529,0.502911 0.15312,0 0.38402,-0.05769 0.41876,-0.103173 0.0284,-0.03674 0.17367,-0.109135 0.1854,-0.09388 0.007,0.01109 0.042,0.03273 0.0763,0.04798 0.0342,0.01512 0.0935,0.0631 0.13161,0.109136 0.0387,0.04548 0.0823,0.08223 0.0979,0.08223 0.0139,0 0.0631,-0.03273 0.11051,-0.07294 z m -1.32428,-0.578723 -0.0783,-0.08611 v -0.191285 c 0.002,-0.105113 0.005,-0.202531 0.005,-0.215732 0.002,-0.04202 0.10913,-0.153124 0.14529,-0.153124 0.0192,0 0.0475,0.02108 0.0631,0.04798 0.0171,0.02496 0.0705,0.09929 0.12037,0.162414 0.0494,0.06309 0.13742,0.175629 0.19666,0.248516 0.16437,0.207911 0.14334,0.236783 -0.19274,0.259774 l -0.18199,0.0097 -0.0782,-0.08362 z m 0.16632,-1.639818 c -0.0171,-0.071 0.002,-0.116485 0.0534,-0.116485 0.0596,0 0.0919,0.07238 0.0596,0.125776 -0.0366,0.05963 -0.0978,0.05381 -0.11302,-0.01109 z m -4.3148,1.853596 c 0.14873,-0.02108 0.2769,-0.04798 0.28668,-0.05728 0.01,-0.0097 0.0244,-0.248515 0.0323,-0.533238 l 0.0152,-0.514157 -0.0494,-0.01387 c -0.067,-0.01705 -0.50095,-0.01512 -0.54644,0.0056 -0.0387,0.01512 -0.0387,0.01109 0.0724,0.305745 0.0382,0.09929 0.0151,0.167809 -0.0724,0.211837 -0.0729,0.03813 -0.12424,0.03813 -0.27934,-0.0014 -0.18149,-0.04742 -0.28079,-0.101217 -0.39919,-0.213771 -0.19665,-0.191285 -0.29059,-0.359564 -0.31358,-0.562096 -0.0139,-0.118426 -0.01,-0.137425 0.0612,-0.276887 0.042,-0.08224 0.0762,-0.158503 0.0762,-0.170249 0,-0.01109 0.0347,-0.0685 0.0768,-0.126192 0.0685,-0.08958 0.0993,-0.110522 0.23286,-0.160459 0.1169,-0.04202 0.17611,-0.05339 0.25047,-0.04409 0.0553,0.0056 0.19324,0.02108 0.30771,0.03481 0.11649,0.0097 0.25048,0.02496 0.29793,0.03037 0.0861,0.01109 0.09,0.0083 0.16634,-0.09735 0.0939,-0.126192 0.15508,-0.234814 0.15508,-0.274932 0,-0.04604 -0.18933,-0.147257 -0.37865,-0.202532 -0.14921,-0.04202 -0.21965,-0.05186 -0.46035,-0.04992 -0.22356,0 -0.29645,0.0097 -0.34782,0.0362 -0.0362,0.01913 -0.10719,0.04008 -0.15508,0.04992 -0.0802,0.01109 -0.19666,0.06851 -0.35516,0.173673 -0.0288,0.01913 -0.067,0.04008 -0.0881,0.04798 -0.2539,0.211821 -0.34782,0.605639 -0.38207,0.936346 -0.0192,0.232858 0.0823,0.605638 0.22553,0.815991 0.11842,0.177585 0.44518,0.453002 0.5846,0.49312 0.0249,0.0069 0.11843,0.04008 0.20449,0.07238 0.0861,0.03273 0.20841,0.06892 0.27347,0.08223 0.0631,0.01109 0.13354,0.0269 0.15654,0.03078 0.0689,0.01512 0.0743,0.01387 0.35174,-0.0269 z m -0.21964,-1.46957 c -0.005,-0.04798 -0.0195,-0.0513 -0.2583,-0.07433 -0.13743,-0.01512 -0.32288,-0.0362 -0.40898,-0.04604 -0.0861,-0.01109 -0.16242,-0.01512 -0.16976,-0.0083 -0.008,0.0097 -0.0211,0.04008 -0.0288,0.06892 -0.011,0.04798 -0.005,0.05728 0.067,0.07821 0.0896,0.02884 0.76023,0.06504 0.78909,0.04409 0.01,-0.0083 0.0139,-0.0362 0.01,-0.06309 z m 8.58019,1.194152 c -0.21232,-0.03037 -0.40165,-0.0606 -0.41877,-0.0685 -0.046,-0.01512 -0.0284,-0.05728 0.09,-0.223568 0.0513,-0.07489 0.10664,-0.158503 0.12037,-0.187361 0.0361,-0.07433 0.0861,-0.265641 0.10123,-0.387951 0.005,-0.05727 0.0211,-0.151167 0.0323,-0.208397 0.0111,-0.05921 0.0249,-0.12425 0.0308,-0.147257 0.007,-0.04008 0.023,-0.0416 0.4985,-0.04008 0.26955,0.0014 0.50094,0.0097 0.51416,0.01761 0.044,0.02635 0.0553,-0.01761 -0.24461,0.901594 l -0.12231,0.37669 -0.10914,0.01109 c -0.0631,0.0083 -0.26366,-0.01109 -0.49261,-0.04396 z m -1.56351,-0.374249 c -0.22161,-0.03273 -0.43198,-0.202532 -0.5347,-0.4261 -0.048,-0.107195 -0.0538,-0.141377 -0.048,-0.303791 0.005,-0.139421 0.0192,-0.202531 0.0572,-0.275431 0.0803,-0.154578 0.19471,-0.267597 0.35566,-0.347819 0.0993,-0.05131 0.14139,-0.06116 0.27493,-0.05921 0.22554,0.0014 0.35958,0.05381 0.50437,0.196665 0.16634,0.166325 0.21428,0.279343 0.21625,0.514157 0.002,0.164368 -0.005,0.202532 -0.0558,0.301835 -0.0304,0.06504 -0.0724,0.136038 -0.0935,0.159002 -0.16241,0.181495 -0.43588,0.278843 -0.67657,0.24068 z"
       style="fill:#c52b64;fill-opacity:1;fill-rule:nonzero;stroke:none;stroke-width:0.489205"
       id="path904" />
  </g>
</svg>
