<svg xmlns="http://www.w3.org/2000/svg" width="65.8" height="65.8" viewBox="0 0 17.41 17.41"><circle cx="8.71" cy="8.704" r="8.573" fill="#fff" stroke="#fff" stroke-width=".265"/><path d="M8.88 12.802l-.126-.084-1.204-.751-1.33-.451a8.97 8.97 0 0 0-.925-.159c-.04 0-.06-.011-.061-.038-.007-.177.01-.321.025-.48l-1.858-.076c-.059-.123-.088-.254-.122-.375.327-.089.714-.084 1.294-.109.122-.034.286-.106.286-.128 0-.013-.061-.028-.15-.038l-1.642-.164-.531-1.201c.408-.043 1.117-.066 1.194-.162-.002-.126-.01-.132-.227-.147l-1.132-.1-.422-1.075c.034-.093.557-.063.764-.05.765.073 1.271.073 1.566-.004.093-.025.097-.044.023-.094-.735-.188-1.731.051-2.469-.271-.257-.29-.38-.745-.503-1.24.01-.01.302.072.61.172 2.009.555 3.985.855 6.006 1.269.43.088.512.135.65.382.043.076.09.145.1.155l.349.045c.11.509.081.945.161 1.558l.301-.337c.088-.047-.085-.428-.176-.716s-.095-.65-.01-.783a.8.8 0 0 1 .324-.25c.11-.041.448-.13.609-.161l4.887-1.059c.354-.11.918-.23.946-.2-.054.291-.177.623-.25.871l-2.827.619c-.042 0-.108.061-.108.1 0 .077.1.072 1.402-.068l1.29-.105c-.088.408-.234.783-.345 1.149l-1.298.079c-.095-.204-.244-.392-.361-.546-.156-.159-.356-.236-.537-.321-.205-.07-.598-.07-.816 0-.44.214-.677.419-.812.831l-.293.006c-.265.006-.296.011-.34.051-.026.025-.046.054-.042.063.202.095.344.122.556.174.005.002.011.084.017.18.011.214.048.357.148.596.067.16.099.207.248.356a1.11 1.11 0 0 0 .367.27c.31.152.594.188.951.124.165-.031.232-.033.534-.012a2.68 2.68 0 0 1 1.018.222c-.026.265-.033.27-.15.285-.761.068-1.086-.013-1.832.103-.062.018-.07.035-.093.063-.058.228-.012.352-.021.627-.011.01-.15.036-.304.06-1.095.207-2.258.691-3.014 1.303-.06.057-.132.103-.157.103a.37.37 0 0 1-.137-.061zm.053-1.185l.063-.03-.005-.184-.05-1.502-.072-2.058c-.005-.006-.04-.014-.08-.025-.09-.02-.061-.048-.514.518l-.354.424c-.046 0-.11-.029-.11-.048-.292-.472-.614-.882-.947-1.244-.109-.084-.12-.057-.12.306l.099 2.912c.156.033.277.052.445.039.161-.039.118-.508.096-.7-.051-.414-.021-.623.077-.561.023.013.225.43.31.642.043.105.057.12.1.114.166-.213.245-.532.396-.791.034 0 .042.063.069.597l.1 1.565c.19.072.337.082.497.024zm2.286-1.13c.168-.143.19-.32.056-.456-.062-.062-.07-.08-.054-.122.03-.077.048-.147.073-.226-.075-.101-.178-.195-.259-.273-.045.023-.104.068-.143.022-.607-.663-.52-.56-.479-.718.165-.299.174-.59-.025-.857-.281-.206-.506-.113-.629.016-.16.209-.186.491-.067.726.062.117.071.08-.103.34-.3.445-.353.717-.216 1.076.117.304.444.503.826.503.233.002.422-.111.604-.197.182.186.307.291.416.166zm-1.403-.664a.61.61 0 0 1 .005-.407.29.29 0 0 1 .146-.153c.148-.004.32.3.38.458.113.233.143.237-.193.26-.172.023-.237-.035-.338-.158zm.245-1.554c-.017-.071.002-.117.053-.117.06 0 .092.073.06.126-.037.06-.098.054-.113-.01zm-4.315 1.854c.149-.022.277-.048.287-.058.036-.369.035-.651.047-1.047-.193-.046-.403-.017-.596-.008-.038.015-.038.01.073.305.038.1.015.168-.073.212-.072.038-.124.038-.279-.001a.8.8 0 0 1-.4-.214c-.196-.191-.29-.36-.313-.562.02-.398.112-.623.447-.733.272-.087.565-.01.856.02.087.011.09.009.167-.097.094-.126.155-.235.155-.275 0-.046-.19-.147-.379-.203-.45-.092-1.022-.066-1.406.258-.254.212-.348.606-.382.937a1.5 1.5 0 0 0 .225.816c.119.177.445.453.585.493.232.091.407.131.634.185.25.002.075.014.352-.027zm-.22-1.47c-.005-.048-.019-.051-.258-.074-.497-.091-.571-.087-.607.015.003.09.256.077.856.122.01-.009.014-.037.01-.064zm8.58 1.194l-.418-.068c-.046-.015-.029-.058.09-.224l.12-.187c.093-.249.117-.504.164-.744.008-.04.024-.041.5-.04l.564.021-.418 1.275c-.205.028-.425-.011-.601-.033zm-1.563-.374c-.415-.142-.556-.412-.583-.73-.003-.3.156-.516.413-.623.292-.14.596-.046.78.137.166.167.214.28.216.514-.007.508-.427.75-.826.702z" fill="#c52b64"/></svg>