<svg xmlns="http://www.w3.org/2000/svg" width="65.8" height="65.8" viewBox="0 0 17.41 17.41"><circle cx="8.71" cy="8.704" r="8.573" fill="#fff" stroke="#fff" stroke-width=".265"/><path d="M8.32 14.527c-.257-.03-.839-.232-.839-.288 0-.011-.015-.023-.032-.023-.08 0-.537-.386-.68-.575l-.072-.092c-1.109.064-2.349-.059-3.073.097l-.542.114c-.1.016-.121.01-.155-.045l-.46-.75-.597-1.064a.84.84 0 0 0 .322-.108c0-.01.102-.127.227-.255a2.71 2.71 0 0 0 .476-.588c.27-.408.499-.967.565-1.38a1.68 1.68 0 0 1 .043-.207 2.96 2.96 0 0 0 .014-.387c.011-.691-.189-1.369-.575-1.943a3.41 3.41 0 0 0-.58-.713c-.144-.138-.253-.264-.244-.28s.06-.035.112-.044c.227-.042.752-.309.901-.456l.206-.196c.148-.136.287-.309.287-.352 0-.015.011-.032.023-.036.036-.015.187-.348.238-.525a.58.58 0 0 1 .066-.17l1.25-.02 1.26-.024c.015-.01.07-.095.121-.189.368-.594.814-.891 1.408-1.092.088-.03.266-.053.497-.06.306-.012.391-.006.59.045.44.113.83.346 1.152.686.177.198.282.388.424.61l2.6-.008c.264.875.707 1.431 1.802 1.767.114 0 .078.068-.158.297-.275.263-.521.601-.694.897-.362.742-.58 1.344-.436 2.126.308-.028.545-.087.865-.146.029.03.92 1.86.92 1.887l-.606.585c.145.153.013.159.013.165-.393.139-.822.353-1.111.658-.253.345-.494.658-.532 1.105l-2.838.022c-.162.182-.358.363-.519.507-.42.332-1.085.513-1.639.445zm.913-.608c.409-.136.731-.41 1.022-.733.027-.051.07-.055.645-.06l1.294-.01.679-.001c.055-.253.18-.499.28-.696.107-.187.468-.567.608-.638.308-.16.429-.216.552-.244.075-.019.138-.04.138-.05-.034-.061-.086-.09-.134-.141l-.202.047a1.75 1.75 0 0 0-.92.495c-.287.326-.434.639-.549.996-.015.006-.563.011-1.219.017l-1.19.008c-.382.459-.751.742-1.435.839-.277.04-.564 0-.876-.12-.531-.13-.634-.417-.985-.677-.041 0-.412.08-.74.16-.082.02-.009.023.267.012l.38-.017c.379.513.817.747 1.405.899a2.92 2.92 0 0 0 .98-.085zm-5.573-.654l11.279-2.426c.049-.011.09-.028.09-.042 0-.028-.573-1.185-.601-1.213L2.412 12.173l.747 1.189c.016 0 .24-.044.501-.098zm-.491-.251a7.55 7.55 0 0 1-.151-.69c0-.072.013-.08.141-.111.078-.02.152-.029.165-.02l.302.52c.041-.156.035-.307.049-.478.017-.113.025-.123.142-.156.098-.029.13-.03.155-.004a3.38 3.38 0 0 1 .178.799c-.032.014-.067.019-.102.015-.173-.154-.147-.294-.237-.546-.036.19-.028.353-.031.561-.004.057-.129.115-.191.09-.115-.146-.19-.299-.285-.449l.094.501c-.036.016-.074.027-.113.032-.09.015-.099.01-.116-.064zm1.497-1.124c.038-.012.077-.017.117-.015.096 0 .102.005.119.104.02.124.07.204.09.149a1.15 1.15 0 0 1 .383-.391c.054-.02.105-.027.115-.017s-.036.083-.098.166a.84.84 0 0 0-.114.18c-.015.026-.04.043-.055.058 0 .032.066.11.097.11.147.076.277.183.398.285 0 .025-.045.046-.124.057-.116.017-.138.01-.32-.11s-.198-.126-.238-.085-.042.06-.011.172c.019.07.03.13.026.134-.07.023-.132.027-.206.042-.079-.274-.136-.566-.179-.839zm-.46.684c-.019-.042-.024-.084-.01-.097.061-.028.126-.049.192-.062.187-.044.215-.032.232.092.01.06-.004.07-.154.1-.223.048-.221.048-.26-.035zm2.298-.237l-.08-.312-.067-.275-.164.005c-.157.006-.167.006-.178-.06-.008-.038 0-.08.017-.091.048-.036.76-.176.792-.155.01.005.022.042.03.081.011.057 0 .078-.053.097-.043.016-.088.024-.134.026-.085 0-.085.017.002.363.04.153.06.287.049.298-.047.044-.2.06-.215.023zm-.824-.062c-.045-.12-.024-.144.169-.176s.21-.028.24.07c.022.077-.03.106-.237.133-.13.017-.156.01-.172-.027zm1.843-.187a8.55 8.55 0 0 1-.157-.693c-.01-.08-.005-.082.225-.14.41-.106.631-.033.633.213 0 .08-.01.104-.047.104-.042.001-.042.006.008.032.075.044.094.077.094.172 0 .044.02.104.047.13.057.063.042.08-.094.097-.104.015-.108.011-.142-.093-.047-.143-.112-.181-.27-.158-.138.02-.134.005-.076.281l.02.09H7.65c-.068 0-.12-.016-.127-.035zm.446-.53c.034-.024.062-.061.062-.082 0-.072-.087-.091-.266-.06-.167.027-.172.031-.155.1.01.037.023.08.03.092.019.036.254-.004.329-.05zm-1.04.426c-.019-.045-.026-.093-.015-.104a.8.8 0 0 1 .399-.05c.07.084.045.135-.08.17-.286.073-.266.075-.304-.016zm1.562-.049a.91.91 0 0 1 .022-.227l.07-.415s.042-.223.051-.237c.213-.078.183-.072.352.108l.41.557c0 .016-.055.04-.121.055-.11.023-.127.02-.174-.037s-.066-.06-.164-.046c-.154.025-.216.062-.216.128 0 .039-.032.068-.096.097-.11.045-.118.045-.134.017zm.398-.41c.04-.011.038-.025-.014-.121-.064-.117-.1-.138-.1-.057-.002.048-.009.097-.019.144-.015.081-.01.087.036.068l.096-.034zm.59.15l-.16-.764c-.005-.03.022-.042.103-.042.099 0 .112.007.129.084l.09.362c.097.385.097.395-.04.395-.065 0-.114-.015-.122-.034zm.444-.069a5.38 5.38 0 0 1-.163-.707c-.008-.102-.002-.109.086-.128.109-.023.113-.017.185.366.026.15.062.269.08.269s.122-.017.235-.038c.218-.042.276-.028.276.066 0 .038-.036.057-.145.078-.172.047-.422.08-.554.094zm.83-.19a.59.59 0 0 1-.035-.12l-.086-.38a1.65 1.65 0 0 1-.055-.304c.008-.011.162-.045.344-.074.31-.047.334-.047.4-.004.121.078.165.169.13.267-.024.068-.022.098.01.145.024.036.038.078.042.121 0 .036.02.095.043.13.044.067.042.067-.071.1-.125.039-.163.016-.165-.101 0-.104-.083-.15-.241-.13s-.161.024-.118.215c.01.038.017.076.021.115a.44.44 0 0 1-.22.02zm.347-.538a.55.55 0 0 0 .136-.052c.032-.027-.002-.127-.047-.144-.062-.025-.361.048-.359.083l.007.09c.004.065.089.073.263.024zm.746.26c-.14-.035-.249-.275-.217-.477.027-.155.123-.26.303-.327.258-.098.435-.058.591.133.07.085.082.12.082.264-.002.176-.034.242-.165.322a.96.96 0 0 1-.593.084zm.448-.193c.078-.05.102-.14.076-.276s-.102-.204-.25-.22c-.101-.01-.128-.003-.187.06-.188.204-.052.542.2.494.056-.011.111-.03.161-.058zm.494.054c-.016-.026.14-.795.175-.861.015-.03.06-.053.095-.053s.073-.006.108-.017.138.104.425.51a1.09 1.09 0 0 0 .094.11c.069.059.06.13-.013.151-.112.03-.172.017-.234-.049-.055-.058-.074-.062-.18-.041-.248.052-.24.048-.24.13 0 .056-.02.087-.07.11-.081.037-.142.041-.16.01zm.468-.434c.01-.03-.145-.225-.164-.204a.43.43 0 0 0-.032.132l-.017.119.102-.01c.057-.005.106-.022.111-.035zm.605.178c-.007-.021-.043-.182-.083-.357a7.16 7.16 0 0 0-.085-.36c-.023-.064.019-.092.193-.132.295-.066.387-.068.516-.006.196.095.281.348.188.564-.062.143-.084.162-.292.236-.231.08-.422.104-.437.055zm.416-.216c.12-.074.15-.141.123-.272-.046-.204-.125-.248-.37-.208-.088.015-.103.028-.103.085 0 .066.074.386.1.427s.161.021.25-.032zm-4.413 2.35c.433-.056.631-.14.601-.256-.017-.064-.202-.125-.302-.1-.204.08-.361.184-.554.298-.121.07-.115.112.014.093l.242-.034zm-.578-.164l.493-.204c.159-.054.178-.086.1-.164s-.202-.072-.387.011-.609.373-.593.399c.013.02.302-.01.387-.044zm2.672-.217c.102-.043.115-.068.063-.12-.044-.044-.133-.042-.38.01-.212.044-.273.066-.176.066a.14.14 0 0 1 .081.025c.064.063.282.072.412.02zm-.816-.253c.28-.051.448-.095.48-.123.014-.01-.004-.036-.038-.053-.081-.043-.361-.038-.478.011-.05.021-.142.046-.204.057-.13.02-.163.052-.114.111.042.051.06.051.354-.003zm-7.854-.652c.081-.019.15-.047.151-.06s-.074-.05-.172-.076c-.283-.076-.278-.062-.11-.225.218-.21.362-.37.458-.512a3.85 3.85 0 0 0 .561-1.402c.087-.594-.047-1.284-.37-1.892-.164-.306-.31-.5-.588-.779-.126-.126-.225-.243-.221-.258s.078-.046.16-.067.256-.09.384-.152c.551-.341.813-.8 1.044-1.31.794-.058 1.251-.034 2.193-.034a2.48 2.48 0 0 1 .662-.816c.323-.25.818-.39 1.264-.356.744.165 1.347.584 1.67 1.172l2.243-.005c.122.321.278.666.483.894a3.29 3.29 0 0 0 1.147.63c.01.016-.082.121-.2.237-.589.634-.957 1.294-1.017 2.126-.017.257.023.706.064.748.067.024.117-.013.185-.02l-.014-.22c-.069-1.06.151-1.843.999-2.693l.258-.263-.168-.045c-.773-.286-1.062-.447-1.461-1.363l-.059-.18-2.38-.013c-.155-.279-.351-.555-.554-.739-.433-.341-.923-.503-1.346-.504-.318-.016-.606.098-.875.202a2.41 2.41 0 0 0-1.011 1.056c-.787.035-1.636-.022-2.313.045a3.4 3.4 0 0 1-.276.644c-.155.237-.499.56-.7.662a1.47 1.47 0 0 0-.141.081 1.78 1.78 0 0 1-.45.167l-.105.016.236.238c.298.303.327.337.478.57.204.313.299.506.403.812.26.777.226 1.533-.108 2.341-.035.087-.078.172-.127.252-.022.029-.04.063-.05.098 0 .093-.64.861-.717.861-.063 0-.023.084.047.1l.159.039c.112.03.117.03.283-.01zm11.431-.29c.005-.018-.008-.033-.032-.033s-.044.021-.043.045c0 .047.058.04.075-.01zm-9.03-.228l.813-.193c.545-.119.527-.107.443-.27-.08-.153-.584-.516-.641-.461-.024.025.06.365.108.435.068.102.066.217-.004.217-.044 0-.293-.164-.457-.298l-.227-.155s-.147-.098-.214-.156c-.045-.071-.07-.005-.064.169.004.164.017.213.083.31.093.138.1.185.025.164l-1.004-.431c-.077-.018-.077-.018-.058.082a1.19 1.19 0 0 0 .397.51c.054.03.141.085.194.123.106.077.066.08.607-.047zm1.757-.366c.022-.023.122-.516.107-.531-.03-.032-.172.07-.245.174-.08.113-.133.292-.108.364.01.027.045.034.12.023a.32.32 0 0 0 .125-.03zm.381-.055a5.65 5.65 0 0 0 .684-.359c.117-.072.042-.099-.177-.06-.197.038-.339.144-.493.238-.038 0-.112.113-.112.172s-.002.058.098.01zM5.919 7.919c.159.331.284.726.44 1.085.041.053.709.038.709-.015L6.48 7.657l.549-1.283-.749-.007-.329 1.016c-.107-.123-.043-.215-.075-1.017h-.71l.021 2.656c.251.022.443.008.711.002l.021-1.105zm2.091.843c.008-.068.012-.07.256-.07h.247l.059.305c.224.041.466.033.682.023l-.516-2.65c-.03-.025-.862-.025-.88 0l-.539 2.648.656-.01c.016-.081.024-.164.035-.246zm.123-.654c-.01-.02.021-.308.099-.856.035-.26.083-.344.098-.17l.06.506c.078.58.086.541-.094.541-.055.004-.11-.003-.163-.02zm2.192-.096l.005-1 .414-.03-.012-.599c0-.044-.055-.047-.742-.047l-.764.034c-.027.041-.043.476-.023.565-.032.145.242.074.382.106.01.023.017.476.017 1.005v.962h.716zm1.923-.147l.578-1.52c-.256-.007-.452.001-.728.005l-.263.774c-.099-.247-.175-.527-.259-.753-.028-.045-.735-.05-.735-.004l.567 1.338c.116.47.059.684.085 1.242.002.113.389.062.754.062l.001-1.144z" fill="#018471"/></svg>