<?xml version="1.0" encoding="UTF-8" standalone="no"?>
<svg
   xmlns:dc="http://purl.org/dc/elements/1.1/"
   xmlns:cc="http://creativecommons.org/ns#"
   xmlns:rdf="http://www.w3.org/1999/02/22-rdf-syntax-ns#"
   xmlns:svg="http://www.w3.org/2000/svg"
   xmlns="http://www.w3.org/2000/svg"
   xmlns:sodipodi="http://sodipodi.sourceforge.net/DTD/sodipodi-0.dtd"
   xmlns:inkscape="http://www.inkscape.org/namespaces/inkscape"
   width="17.409584mm"
   height="17.409584mm"
   viewBox="0 0 17.409584 17.409584"
   version="1.1"
   id="svg1870"
   inkscape:version="1.0.1 (3bc2e813f5, 2020-09-07)"
   sodipodi:docname="MKT.svg">
  <defs
     id="defs1864" />
  <sodipodi:namedview
     id="base"
     pagecolor="#ffffff"
     bordercolor="#666666"
     borderopacity="1.0"
     inkscape:pageopacity="0.0"
     inkscape:pageshadow="2"
     inkscape:zoom="2.1760267"
     inkscape:cx="30.702679"
     inkscape:cy="137.18026"
     inkscape:document-units="mm"
     inkscape:current-layer="layer1"
     inkscape:document-rotation="0"
     showgrid="false"
     fit-margin-top="0"
     fit-margin-left="0"
     fit-margin-right="0"
     fit-margin-bottom="0"
     inkscape:window-width="1920"
     inkscape:window-height="1054"
     inkscape:window-x="0"
     inkscape:window-y="26"
     inkscape:window-maximized="1" />
  <metadata
     id="metadata1867">
    <rdf:RDF>
      <cc:Work
         rdf:about="">
        <dc:format>image/svg+xml</dc:format>
        <dc:type
           rdf:resource="http://purl.org/dc/dcmitype/StillImage" />
        <dc:title />
      </cc:Work>
    </rdf:RDF>
  </metadata>
  <g
     inkscape:label="Layer 1"
     inkscape:groupmode="layer"
     id="layer1"
     transform="translate(-102.28184,42.237323)">
    <circle
       class="st1"
       cx="110.98663"
       cy="-33.532532"
       id="circle3408"
       style="fill:#ffffff;stroke:#ffffff;stroke-width:0.264583;stroke-miterlimit:10"
       r="8.5725002" />
    <path
       d="m 110.60421,-27.709438 c -0.25688,-0.03003 -0.83886,-0.23221 -0.83886,-0.288805 0,-0.01097 -0.015,-0.02277 -0.032,-0.02277 -0.0794,0 -0.53699,-0.385565 -0.68068,-0.574728 l -0.0716,-0.09243 -1.13011,0.02084 c -0.62165,0.0096 -1.27185,0.02277 -1.44746,0.02605 -0.17416,0.0041 -0.39718,0.0266 -0.49539,0.04937 -0.37203,0.09092 -0.36477,0.089 -0.54231,0.115193 -0.1001,0.0155 -0.12094,0.0096 -0.1548,-0.04498 -0.0208,-0.03634 -0.22884,-0.37251 -0.45911,-0.750341 -0.63133,-1.03189 -0.64827,-1.063827 -0.59747,-1.063827 0.0682,0 0.32122,-0.08324 0.32122,-0.107924 0,-0.01097 0.10203,-0.126712 0.2269,-0.254946 0.26075,-0.264627 0.27769,-0.287363 0.47652,-0.587796 0.26995,-0.408302 0.49878,-0.967548 0.56456,-1.379731 0.0174,-0.102027 0.0363,-0.194469 0.0436,-0.208018 0.008,-0.01097 0.0137,-0.186734 0.0137,-0.387019 0.002,-0.723737 -0.17803,-1.330389 -0.57472,-1.942856 -0.20802,-0.321222 -0.32509,-0.464911 -0.58006,-0.712602 -0.14367,-0.137875 -0.25301,-0.264147 -0.24382,-0.27963 0.01,-0.01495 0.0604,-0.03579 0.11177,-0.04498 0.22641,-0.04155 0.75179,-0.308167 0.90128,-0.455709 0.0396,-0.03772 0.13206,-0.126712 0.20609,-0.196416 0.14707,-0.135901 0.28688,-0.308168 0.28688,-0.351708 0,-0.01495 0.011,-0.03196 0.0228,-0.03579 0.0358,-0.01495 0.18721,-0.347826 0.23801,-0.525373 0.0247,-0.08707 0.0551,-0.164492 0.0662,-0.169812 0.011,-0.0055 0.57279,-0.01741 1.24911,-0.01893 0.67825,-0.0041 1.24331,-0.0155 1.26072,-0.02468 0.015,-0.0096 0.0697,-0.09476 0.12096,-0.189149 0.0963,-0.183361 0.42669,-0.576181 0.54039,-0.646325 0.0377,-0.02277 0.10586,-0.0735 0.15092,-0.113135 0.0456,-0.03963 0.0949,-0.07213 0.10985,-0.07213 0.0137,0 0.0436,-0.01495 0.0677,-0.03579 0.0455,-0.03772 0.30285,-0.145623 0.53893,-0.224968 0.0884,-0.03003 0.26656,-0.05266 0.49683,-0.06047 0.30624,-0.01097 0.39138,-0.0055 0.58973,0.04553 0.44023,0.113272 0.82968,0.345892 1.15284,0.685997 0.0943,0.100108 0.17174,0.198351 0.17174,0.217206 0,0.01893 0.01,0.03429 0.0208,0.03429 0.011,0 0.0456,0.0469 0.0754,0.103537 0.0285,0.05705 0.0759,0.138354 0.10408,0.17996 l 0.0513,0.07542 2.60031,-0.0082 0.0488,0.160611 c 0.0624,0.191096 0.18143,0.43492 0.31737,0.640524 0.10065,0.153357 0.4557,0.52344 0.49924,0.52344 0.0137,0 0.0416,0.01741 0.0604,0.03634 0.10737,0.103535 0.62745,0.351226 0.74065,0.351226 0.0285,0 0.0586,0.0096 0.0682,0.0266 0.01,0.01686 0.0396,0.02811 0.0678,0.02811 0.11368,0 0.0774,0.06815 -0.15868,0.297045 -0.20802,0.202218 -0.58391,0.657446 -0.58391,0.706801 0,0.0055 -0.0488,0.09435 -0.1093,0.190602 -0.31204,0.512318 -0.48378,1.162524 -0.46491,1.77063 0.003,0.185282 0.019,0.343959 0.0281,0.355574 0.011,0.01097 0.20997,-0.01892 0.44024,-0.06623 0.2327,-0.04553 0.42331,-0.08132 0.42524,-0.0794 0.0285,0.02853 0.92064,1.859643 0.92064,1.885768 0,0.02084 -0.0247,0.04553 -0.0533,0.05705 -0.0586,0.02084 -0.55342,0.494902 -0.55342,0.528773 0,0.01097 0.0261,0.03772 0.0604,0.06047 0.0716,0.04745 0.045,0.103947 -0.0474,0.103947 -0.0358,0 -0.0716,0.01371 -0.0814,0.02853 -0.01,0.01495 -0.0416,0.02605 -0.0697,0.02605 -0.16447,0 -0.74114,0.362842 -0.96029,0.603278 -0.22496,0.247212 -0.46685,0.712122 -0.51184,0.988351 l -0.0208,0.117112 -0.94142,0.0041 c -0.5157,0.0027 -1.1543,0.0055 -1.41699,0.0096 l -0.47846,0.0082 -0.18335,0.192549 c -0.10203,0.106005 -0.25107,0.247692 -0.33622,0.313969 -0.41944,0.332357 -1.08464,0.513771 -1.63856,0.44556 z m 0.91289,-0.608587 c 0.12287,-0.04498 0.29656,-0.12246 0.3875,-0.169799 0.15675,-0.08516 0.57425,-0.455723 0.63472,-0.563125 0.0266,-0.05129 0.0702,-0.05471 0.64439,-0.06047 0.34058,-0.0055 0.92257,-0.0082 1.29459,-0.0096 l 0.67873,-0.0013 0.03,-0.117111 c 0.0416,-0.158678 0.13788,-0.3875 0.24963,-0.578116 0.10738,-0.187215 0.4683,-0.566979 0.60811,-0.638577 0.30817,-0.160611 0.42911,-0.215766 0.55199,-0.243824 0.0754,-0.01892 0.13787,-0.03963 0.13787,-0.04937 0,-0.0096 -0.03,-0.04347 -0.0658,-0.0794 l -0.0681,-0.0624 -0.20221,0.04745 c -0.38943,0.08859 -0.65599,0.232222 -0.92015,0.494902 -0.24961,0.245771 -0.39911,0.506517 -0.48183,0.837421 -0.0208,0.08132 -0.0494,0.152876 -0.0663,0.158677 -0.015,0.0055 -0.56311,0.01097 -1.21912,0.01686 l -1.19057,0.0082 -0.17754,0.194469 c -0.17562,0.19255 -0.51959,0.451857 -0.59892,0.451857 -0.0208,0 -0.0513,0.0096 -0.0662,0.02414 -0.0488,0.04361 -0.3817,0.137875 -0.59166,0.168346 -0.27769,0.03963 -0.56457,0 -0.87661,-0.120952 -0.35364,-0.1359 -0.49152,-0.226888 -0.76728,-0.504584 -0.0943,-0.09435 -0.19253,-0.171732 -0.21721,-0.171732 -0.0416,0 -0.41217,0.0794 -0.74066,0.160611 -0.0814,0.01892 -0.008,0.02222 0.26801,0.01097 l 0.37977,-0.01686 0.21383,0.221087 c 0.11711,0.120952 0.25494,0.249638 0.30817,0.285431 0.0526,0.03387 0.10353,0.07158 0.11121,0.0794 0.0624,0.06966 0.55925,0.271881 0.77113,0.313488 0.0378,0.0082 0.22304,0.0096 0.41364,0.0055 0.30042,-0.0055 0.37058,-0.01893 0.567,-0.09092 z m -5.57262,-0.653579 c 0.26073,-0.0528 0.57811,-0.120952 0.70824,-0.151422 0.12862,-0.03003 0.29511,-0.06583 0.37057,-0.08132 0.13206,-0.02414 0.3817,-0.07734 1.10157,-0.234143 0.18335,-0.03772 0.42524,-0.09051 0.53892,-0.113136 0.11313,-0.02276 0.30575,-0.06623 0.4267,-0.0949 0.24961,-0.05856 0.78614,-0.175612 1.21138,-0.260746 0.0456,-0.0096 0.16254,-0.03579 0.26269,-0.05663 0.48038,-0.107924 1.31926,-0.294618 1.41745,-0.317354 0.0604,-0.01495 0.35172,-0.07542 0.64827,-0.135899 0.72373,-0.151423 0.72373,-0.151423 1.22445,-0.264628 0.24382,-0.05513 0.49683,-0.107923 0.56504,-0.120951 0.0681,-0.01097 0.3101,-0.06047 0.53651,-0.109844 0.22884,-0.04882 0.46298,-0.09819 0.52393,-0.111216 0.16594,-0.03429 0.64779,-0.137874 0.77261,-0.166412 0.0604,-0.01495 0.16447,-0.03772 0.23268,-0.05129 0.0697,-0.01495 0.24189,-0.05074 0.38702,-0.08269 0.14369,-0.03236 0.30092,-0.06432 0.34977,-0.07405 0.0494,-0.01097 0.0909,-0.02811 0.0909,-0.04155 0,-0.02811 -0.57279,-1.18478 -0.60134,-1.212838 -0.01,-0.0096 -0.0678,-0.0055 -0.13014,0.0055 -0.0604,0.01686 -0.28931,0.06623 -0.50845,0.111763 -0.21915,0.04498 -0.44218,0.09435 -0.49685,0.105456 -0.16834,0.03963 -0.5007,0.111764 -0.75614,0.164478 -0.13787,0.02853 -0.30431,0.06432 -0.37202,0.08132 -0.0681,0.01686 -0.25544,0.05663 -0.41412,0.089 -0.40831,0.08324 -0.58586,0.120952 -0.63279,0.141755 -0.0228,0.0096 -0.18335,0.04155 -0.35944,0.07351 -0.37396,0.07021 -0.56118,0.107925 -0.67438,0.141742 -0.0455,0.01097 -0.17561,0.04361 -0.2893,0.06816 -0.31736,0.06582 -0.4117,0.08653 -0.60473,0.13206 -0.30622,0.07021 -1.34925,0.296566 -1.62694,0.351707 -0.0832,0.01686 -0.18721,0.03963 -0.23269,0.05074 -0.045,0.01097 -0.15674,0.03771 -0.24914,0.05513 -0.0909,0.01893 -0.27044,0.05663 -0.39864,0.08667 -0.24769,0.05472 -0.52152,0.113684 -0.84129,0.175614 -0.17754,0.03634 -0.86354,0.185281 -1.27911,0.280096 -0.0982,0.02222 -0.25349,0.0528 -0.34589,0.06966 -0.0905,0.01495 -0.18336,0.03579 -0.2061,0.04361 -0.0228,0.0096 -0.14706,0.03771 -0.27575,0.06239 -0.67293,0.1359 -0.98062,0.200284 -1.01884,0.213353 -0.0431,0.01686 -0.0677,0.02277 -0.21335,0.05129 -0.0494,0.0096 -0.089,0.02469 -0.089,0.03387 0,0.01097 0.0416,0.08324 0.0928,0.160611 0.0507,0.07735 0.21334,0.340092 0.3609,0.583916 0.14756,0.243824 0.27961,0.444107 0.29268,0.444107 0.0155,0 0.24044,-0.04347 0.5012,-0.09819 z m -0.49152,-0.251573 c -0.011,-0.04306 -0.0494,-0.19835 -0.0852,-0.345891 -0.0358,-0.147077 -0.0662,-0.301887 -0.0662,-0.343493 0,-0.07213 0.0137,-0.08132 0.14173,-0.111765 0.0779,-0.01893 0.15143,-0.02853 0.16449,-0.01893 0.0137,0.0055 0.0814,0.132059 0.14949,0.275762 0.0696,0.143675 0.13787,0.253491 0.15287,0.243824 0.0137,-0.0096 0.0266,-0.09243 0.0285,-0.186736 0,-0.09284 0.01,-0.224968 0.0208,-0.291244 0.0168,-0.113136 0.0247,-0.122872 0.14176,-0.156744 0.0982,-0.02853 0.13014,-0.03044 0.15481,-0.0041 0.0436,0.04745 0.20609,0.771145 0.17754,0.799202 -0.0137,0.01097 -0.0586,0.01892 -0.10202,0.0155 -0.0735,-0.0096 -0.0814,-0.02277 -0.14706,-0.278176 -0.0378,-0.147063 -0.0779,-0.268014 -0.089,-0.268014 -0.011,0 -0.0228,0.113135 -0.0266,0.254959 -0.002,0.139808 -0.003,0.277682 -0.005,0.306233 -0.004,0.05664 -0.12864,0.115192 -0.19111,0.09051 -0.0188,-0.0055 -0.0884,-0.113135 -0.1548,-0.236076 -0.0662,-0.122872 -0.12479,-0.219154 -0.13055,-0.213353 -0.005,0.0055 0.0168,0.117112 0.0494,0.247211 0.0339,0.132609 0.0547,0.245757 0.0455,0.253505 -0.008,0.0068 -0.059,0.02277 -0.11368,0.03196 -0.0905,0.01495 -0.0982,0.0096 -0.1152,-0.06432 z m 1.63081,-0.457161 c -0.0794,-0.304301 -0.14949,-0.652141 -0.13398,-0.66713 0.007,-0.0068 0.0604,-0.01495 0.11711,-0.01495 0.0963,0 0.10203,0.0055 0.11903,0.104084 0.0208,0.124792 0.0702,0.204151 0.0905,0.149009 0.0436,-0.107375 0.29124,-0.360908 0.38219,-0.3909 0.0548,-0.01892 0.10545,-0.0266 0.11519,-0.01686 0.007,0.0096 -0.0358,0.08269 -0.0982,0.165946 -0.0624,0.08324 -0.11369,0.164479 -0.11369,0.179481 0,0.01741 -0.0137,0.03044 -0.0281,0.03044 -0.0155,0 -0.0266,0.01097 -0.0266,0.02853 0,0.03195 0.0662,0.109295 0.0963,0.109295 0.0208,0 0.26076,0.162559 0.31204,0.211899 0.0189,0.01893 0.0469,0.03579 0.0604,0.03579 0.015,0 0.0261,0.01686 0.0261,0.03772 0,0.02469 -0.045,0.04553 -0.12438,0.05664 -0.11561,0.01686 -0.13788,0.0096 -0.31978,-0.109296 -0.17949,-0.120952 -0.19836,-0.126711 -0.23803,-0.08516 -0.0396,0.03772 -0.0416,0.06047 -0.011,0.171746 0.019,0.07008 0.03,0.130551 0.0266,0.134528 -0.004,0.0027 -0.0532,0.01495 -0.10792,0.02414 l -0.0982,0.01741 z m -0.5936,0.01686 c -0.019,-0.04155 -0.0241,-0.08324 -0.011,-0.09627 0.011,-0.01097 0.0982,-0.03963 0.19253,-0.0624 0.18724,-0.04347 0.21577,-0.03195 0.23271,0.09243 0.01,0.06047 -0.004,0.07021 -0.15481,0.100656 -0.22302,0.0469 -0.22109,0.0469 -0.2593,-0.0362 z m 2.29795,-0.236089 c -0.007,-0.01893 -0.0431,-0.160611 -0.0807,-0.312035 l -0.0662,-0.275748 -0.16448,0.0055 c -0.15674,0.0055 -0.16642,0.0055 -0.17754,-0.06047 -0.008,-0.03772 0,-0.0794 0.0168,-0.09092 0.0475,-0.03579 0.75955,-0.175615 0.79195,-0.15481 0.01,0.0055 0.0222,0.04155 0.03,0.08132 0.011,0.05664 0,0.07735 -0.0528,0.09627 -0.0378,0.01495 -0.0982,0.0266 -0.13453,0.0266 -0.0846,0 -0.0846,0.01686 0.002,0.362842 0.0396,0.152863 0.0604,0.287364 0.0494,0.298485 -0.0475,0.04347 -0.20029,0.06047 -0.21529,0.02277 z m -0.82388,-0.0624 c -0.045,-0.120952 -0.0241,-0.143674 0.16835,-0.175613 0.19448,-0.03236 0.20997,-0.02853 0.23996,0.06966 0.0228,0.07735 -0.03,0.106005 -0.23609,0.132608 -0.13056,0.01686 -0.15674,0.01097 -0.17222,-0.0266 z m 1.84272,-0.187215 c -0.0266,-0.07351 -0.14949,-0.615854 -0.15675,-0.693251 -0.01,-0.0794 -0.005,-0.08132 0.22496,-0.139822 0.40975,-0.105868 0.63084,-0.03236 0.63277,0.213353 0,0.0794 -0.01,0.104084 -0.0474,0.104084 -0.0411,0.0013 -0.0411,0.0055 0.008,0.03195 0.0754,0.04347 0.0944,0.07734 0.0944,0.172226 0,0.04348 0.0208,0.104084 0.0474,0.13014 0.0566,0.06239 0.0416,0.0794 -0.0944,0.09668 -0.10394,0.01495 -0.10792,0.01097 -0.14174,-0.09284 -0.0474,-0.143688 -0.11176,-0.181414 -0.27042,-0.158677 -0.13788,0.02084 -0.13399,0.0055 -0.0754,0.28155 l 0.0189,0.089 h -0.11314 c -0.0682,0 -0.12095,-0.0155 -0.12671,-0.03429 z m 0.44604,-0.530707 c 0.0339,-0.02277 0.0624,-0.06047 0.0624,-0.08132 0,-0.07214 -0.0871,-0.09092 -0.26656,-0.06047 -0.16641,0.02811 -0.17221,0.03195 -0.1548,0.100107 0.01,0.03772 0.0228,0.08132 0.03,0.09243 0.019,0.03579 0.2535,-0.0041 0.32898,-0.05074 z m -1.03964,0.426692 c -0.019,-0.04498 -0.026,-0.09243 -0.015,-0.103536 0.0396,-0.03963 0.37251,-0.08132 0.39862,-0.04937 0.0701,0.08324 0.0455,0.13398 -0.0794,0.168359 -0.28687,0.07351 -0.26656,0.07542 -0.30428,-0.0155 z m 1.56114,-0.04882 c -0.008,-0.0096 0.004,-0.113684 0.0228,-0.226888 0.0208,-0.113135 0.0508,-0.300433 0.0697,-0.41557 0.019,-0.115604 0.0416,-0.223021 0.0513,-0.236569 0.01,-0.01495 0.0624,-0.03579 0.11903,-0.04498 0.0982,-0.01893 0.10408,-0.0155 0.2322,0.152877 0.0721,0.09627 0.16256,0.211899 0.20223,0.258826 0.14175,0.17416 0.20803,0.268494 0.20803,0.298486 0,0.0155 -0.0548,0.04018 -0.12096,0.05513 -0.10984,0.02277 -0.12671,0.01892 -0.17366,-0.03772 -0.0435,-0.05513 -0.0662,-0.06047 -0.16449,-0.04553 -0.15336,0.02468 -0.21528,0.06239 -0.21528,0.12822 0,0.03826 -0.0323,0.06816 -0.0968,0.09668 -0.1093,0.04498 -0.11711,0.04498 -0.13399,0.01686 z m 0.39864,-0.41025 c 0.0396,-0.01097 0.0378,-0.02468 -0.0137,-0.120951 -0.0643,-0.117113 -0.1001,-0.137875 -0.1001,-0.05664 0,0.02853 -0.008,0.09243 -0.019,0.143689 -0.0155,0.08132 -0.011,0.08708 0.0358,0.06816 0.0285,-0.01097 0.0716,-0.0266 0.0963,-0.03429 z m 0.58973,0.14949 c -0.0137,-0.04553 -0.15482,-0.710668 -0.16063,-0.763396 -0.004,-0.03044 0.0228,-0.04155 0.10408,-0.04155 0.0982,0 0.11123,0.0068 0.12822,0.08324 0.011,0.04498 0.0532,0.209472 0.0909,0.362829 0.0963,0.385085 0.0963,0.394767 -0.0396,0.394767 -0.0662,0 -0.11519,-0.01495 -0.12287,-0.03387 z m 0.44411,-0.06816 c -0.0266,-0.04553 -0.15675,-0.606653 -0.16256,-0.706801 -0.008,-0.102028 -0.002,-0.109296 0.0852,-0.12822 0.10929,-0.02277 0.11313,-0.01741 0.18529,0.366215 0.0261,0.14949 0.062,0.268494 0.0794,0.268494 0.015,0 0.12233,-0.01686 0.23609,-0.03771 0.2172,-0.04155 0.27575,-0.02853 0.27575,0.06623 0,0.03771 -0.0358,0.05663 -0.14562,0.07734 -0.0794,0.01686 -0.23027,0.04745 -0.33816,0.07159 -0.22495,0.05129 -0.20028,0.04937 -0.21528,0.02277 z m 0.82967,-0.190603 c -0.008,-0.01097 -0.0228,-0.06623 -0.0344,-0.119032 -0.011,-0.0532 -0.0508,-0.22302 -0.0866,-0.380244 -0.0377,-0.15481 -0.0604,-0.292685 -0.0551,-0.3043 0.008,-0.01097 0.16256,-0.04498 0.34396,-0.07351 0.3101,-0.04745 0.33477,-0.04745 0.40057,-0.0041 0.12096,0.07735 0.16449,0.168344 0.1307,0.26656 -0.0247,0.06816 -0.0228,0.09819 0.01,0.145608 0.0222,0.03196 0.0416,0.08708 0.0416,0.120953 0,0.03579 0.0189,0.09435 0.0431,0.13014 0.0436,0.06623 0.0416,0.06623 -0.0716,0.100107 -0.12479,0.03826 -0.16254,0.0155 -0.16448,-0.101616 0,-0.104084 -0.0832,-0.149489 -0.24189,-0.130552 -0.15867,0.01893 -0.16061,0.02468 -0.11711,0.215273 0.0137,0.06047 0.0228,0.111764 0.0208,0.115604 -0.0228,0.02084 -0.20996,0.03771 -0.22109,0.01893 z m 0.34734,-0.537001 c 0.0624,-0.01686 0.12288,-0.04155 0.13646,-0.05266 0.032,-0.0266 -0.002,-0.126711 -0.0475,-0.143674 -0.0624,-0.02469 -0.36091,0.04745 -0.35897,0.08324 0.002,0.01892 0.005,0.06047 0.007,0.09051 0.004,0.06432 0.089,0.07213 0.26268,0.02276 z m 0.74648,0.258826 c -0.13981,-0.03387 -0.24915,-0.273815 -0.21722,-0.476033 0.0266,-0.15481 0.12287,-0.26076 0.30236,-0.327037 0.25883,-0.09819 0.43492,-0.05856 0.59167,0.132609 0.0696,0.08516 0.0814,0.120952 0.0814,0.264627 -0.002,0.175614 -0.0339,0.241891 -0.16448,0.321222 -0.13981,0.08461 -0.43105,0.1263 -0.59359,0.08461 z m 0.44797,-0.19255 c 0.0774,-0.04937 0.10203,-0.139807 0.0754,-0.275748 -0.0241,-0.134529 -0.10161,-0.204151 -0.24913,-0.219154 -0.10204,-0.01097 -0.12864,-0.0041 -0.18724,0.05856 -0.18866,0.204151 -0.0526,0.542309 0.20029,0.494902 0.0547,-0.01097 0.12671,-0.03579 0.16061,-0.05856 z m 0.49347,0.05471 c -0.0155,-0.02605 0.1398,-0.795334 0.17559,-0.861611 0.015,-0.03003 0.0586,-0.05266 0.0944,-0.05266 0.0363,0 0.0852,-0.0082 0.10792,-0.01686 0.0378,-0.0155 0.13788,0.103536 0.42524,0.509904 0.0266,0.03579 0.0682,0.08516 0.0944,0.109845 0.0682,0.05856 0.0604,0.130139 -0.0137,0.150929 -0.11177,0.03044 -0.17222,0.01701 -0.23414,-0.04882 -0.0551,-0.05856 -0.0741,-0.0624 -0.17996,-0.04155 -0.24721,0.0528 -0.23996,0.04882 -0.23996,0.13014 0,0.05663 -0.0189,0.08708 -0.0696,0.109844 -0.0814,0.03772 -0.14176,0.04155 -0.16062,0.01097 z m 0.46828,-0.43444 c 0.01,-0.03044 -0.14513,-0.224953 -0.164,-0.20415 -0.008,0.0055 -0.0228,0.06623 -0.0323,0.132059 l -0.017,0.119032 0.10203,-0.0096 c 0.0566,-0.0055 0.10587,-0.02277 0.11121,-0.03579 z m 0.60473,0.177547 c -0.007,-0.02084 -0.0431,-0.181414 -0.0827,-0.357027 -0.0383,-0.176094 -0.0779,-0.338158 -0.0852,-0.358961 -0.0228,-0.06432 0.0189,-0.09284 0.19255,-0.132609 0.2951,-0.06623 0.3875,-0.06774 0.51618,-0.0055 0.19642,0.09476 0.28156,0.347828 0.18868,0.563115 -0.0624,0.143689 -0.0846,0.162543 -0.29268,0.236568 -0.23077,0.0794 -0.42137,0.104085 -0.43685,0.05471 z m 0.41605,-0.215272 c 0.12096,-0.07405 0.15093,-0.141755 0.12287,-0.272376 -0.0456,-0.20415 -0.12479,-0.24769 -0.37057,-0.207537 -0.0871,0.01495 -0.10203,0.02811 -0.10203,0.08461 0,0.06623 0.0741,0.385565 0.10011,0.427171 0.0247,0.03963 0.16061,0.02084 0.24963,-0.03195 z m -4.41254,2.350664 c 0.43249,-0.05663 0.63085,-0.141741 0.60086,-0.256879 -0.0168,-0.06432 -0.20223,-0.124791 -0.30237,-0.100107 -0.0435,0.0096 -0.16642,0.06966 -0.27236,0.13206 -0.10546,0.0624 -0.23221,0.1359 -0.28157,0.166426 -0.12095,0.07008 -0.11519,0.111215 0.0137,0.09243 0.0566,-0.0096 0.16642,-0.02414 0.24189,-0.03387 z m -0.5786,-0.164478 c 0.0305,-0.01097 0.12288,-0.05074 0.20609,-0.08859 0.0832,-0.03772 0.2119,-0.089 0.28736,-0.115603 0.15868,-0.05472 0.17756,-0.08667 0.10011,-0.163998 -0.0774,-0.07789 -0.20223,-0.07213 -0.38751,0.01097 -0.17948,0.08324 -0.60858,0.37251 -0.5931,0.398634 0.0137,0.02084 0.30235,-0.0096 0.38702,-0.04361 z m 2.67239,-0.217219 c 0.10202,-0.04361 0.11519,-0.06816 0.0624,-0.120952 -0.0434,-0.04347 -0.1326,-0.04155 -0.37976,0.01097 -0.2119,0.04348 -0.27236,0.06623 -0.17609,0.06623 0.0304,0 0.0662,0.01097 0.0814,0.02468 0.0643,0.0624 0.28155,0.07158 0.41217,0.01892 z m -0.81662,-0.253012 c 0.28011,-0.05129 0.44799,-0.0949 0.48039,-0.122872 0.0137,-0.01097 -0.004,-0.03634 -0.0383,-0.05321 -0.0807,-0.04347 -0.36089,-0.03772 -0.47796,0.01097 -0.0488,0.02084 -0.14176,0.04553 -0.20415,0.05664 -0.13014,0.02084 -0.16256,0.05266 -0.11313,0.111216 0.0416,0.05129 0.0604,0.05129 0.35314,-0.0027 z m -7.85364,-0.652141 c 0.0814,-0.01879 0.14949,-0.04745 0.15142,-0.06047 0.003,-0.01495 -0.0741,-0.04937 -0.17222,-0.07542 -0.2835,-0.07597 -0.2777,-0.0624 -0.1093,-0.224955 0.21722,-0.20995 0.3609,-0.370576 0.45718,-0.512318 0.25881,-0.379765 0.5007,-0.980616 0.56118,-1.401987 0.0871,-0.593597 -0.0474,-1.283462 -0.37058,-1.891568 -0.164,-0.306234 -0.30962,-0.500716 -0.58778,-0.778879 -0.1263,-0.1263 -0.22447,-0.243824 -0.22108,-0.258826 0.005,-0.01686 0.0779,-0.04553 0.16108,-0.06623 0.0827,-0.02084 0.25497,-0.09051 0.38316,-0.152877 0.43685,-0.215272 0.86595,-0.721789 0.96611,-1.137839 0.0189,-0.07542 0.0526,-0.152877 0.0774,-0.171747 0.032,-0.0266 0.2985,-0.03387 1.1185,-0.03387 h 1.07544 l 0.0396,-0.09092 c 0.089,-0.208032 0.35896,-0.52152 0.62165,-0.72567 0.32316,-0.249146 0.81807,-0.389447 1.26412,-0.355095 0.13453,0.01097 0.27043,0.02811 0.30236,0.04155 0.0323,0.0096 0.11367,0.03771 0.18334,0.05663 0.42525,0.120951 0.90902,0.532641 1.12624,0.955946 l 0.0586,0.117524 h 1.12284 l 1.12043,-0.0055 0.0721,0.189162 c 0.1093,0.290752 0.24527,0.524893 0.40976,0.704868 0.0774,0.08653 0.42136,0.34928 0.45765,0.34928 0.011,0 0.0416,0.01686 0.0639,0.03771 0.0589,0.05129 0.38944,0.181414 0.51231,0.202217 0.0528,0.0096 0.10601,0.0266 0.11314,0.04155 0.01,0.0155 -0.0814,0.120951 -0.20029,0.236571 -0.32848,0.319287 -0.47989,0.534573 -0.73098,1.033342 -0.15916,0.315915 -0.26075,0.704868 -0.28543,1.092367 -0.0168,0.256892 0.0228,0.706802 0.0643,0.748407 0.011,0.01097 0.0586,0.01097 0.10354,0 l 0.0814,-0.02084 -0.0137,-0.219152 c -0.032,-0.52344 -0.004,-0.833541 0.11313,-1.224441 0.0513,-0.170279 0.21383,-0.576661 0.24383,-0.604718 0.008,-0.0082 0.0455,-0.07021 0.0814,-0.138355 0.12864,-0.232222 0.30624,-0.464431 0.56118,-0.725671 l 0.25737,-0.262693 -0.16835,-0.04498 c -0.21722,-0.06047 -0.57812,-0.236557 -0.716,-0.34976 -0.42523,-0.351228 -0.61053,-0.602799 -0.74501,-1.013034 l -0.0586,-0.179482 -1.19057,-0.0055 -1.19009,-0.0082 -0.0475,-0.08516 c -0.15481,-0.281549 -0.32315,-0.498769 -0.5065,-0.65358 -0.24189,-0.200763 -0.41944,-0.298965 -0.76342,-0.41605 -0.23463,-0.0794 -0.28929,-0.08859 -0.58197,-0.08859 -0.17755,0 -0.34591,0.01097 -0.37445,0.02811 -0.0281,0.01495 -0.11121,0.04155 -0.1848,0.05856 -0.0721,0.01686 -0.21577,0.06816 -0.31591,0.115604 -0.40976,0.192536 -0.701,0.470231 -0.91433,0.874666 l -0.0968,0.181415 -0.4683,0.0055 c -0.25737,0.0041 -0.77501,0.0055 -1.15091,0.0055 -0.5215,0 -0.68599,0.0096 -0.69373,0.03387 -0.0643,0.213353 -0.20222,0.531187 -0.27574,0.644392 -0.15531,0.236089 -0.49926,0.559244 -0.69955,0.661327 -0.0547,0.02853 -0.11903,0.06432 -0.14174,0.08131 -0.062,0.04553 -0.33043,0.145623 -0.44944,0.166426 l -0.10587,0.01686 0.23607,0.238009 c 0.2985,0.302367 0.32704,0.336225 0.47847,0.568927 0.20367,0.313488 0.29848,0.506517 0.4025,0.812751 0.26075,0.776451 0.2264,1.532607 -0.10793,2.340997 -0.0416,0.09874 -0.0982,0.211885 -0.12672,0.251558 -0.0281,0.03963 -0.0508,0.08516 -0.0508,0.09819 0,0.09284 -0.63908,0.861597 -0.71648,0.861597 -0.0624,0 -0.0228,0.08324 0.0474,0.09874 0.0416,0.0096 0.11313,0.02811 0.15867,0.03963 0.11177,0.03003 0.11712,0.03003 0.2835,-0.0096 z m 11.43117,-0.289297 c 0.005,-0.01893 -0.008,-0.03387 -0.0319,-0.03387 -0.0247,0 -0.0435,0.02084 -0.0435,0.04553 0,0.0469 0.0586,0.03963 0.0754,-0.01097 z m -9.02922,-0.228342 c 0.19061,-0.04553 0.38752,-0.09284 0.44218,-0.106004 0.0526,-0.01495 0.21915,-0.05266 0.37058,-0.08708 0.54424,-0.119033 0.52682,-0.107377 0.44217,-0.269949 -0.0794,-0.153357 -0.58393,-0.516185 -0.641,-0.461523 -0.0241,0.02468 0.0604,0.364777 0.10792,0.434919 0.0681,0.102028 0.0662,0.217221 -0.004,0.217221 -0.0434,0 -0.29268,-0.164492 -0.45715,-0.2985 -0.015,-0.01372 -0.11712,-0.08324 -0.22691,-0.15481 -0.10929,-0.07213 -0.20608,-0.141742 -0.21334,-0.155291 -0.0455,-0.07158 -0.0701,-0.0055 -0.0643,0.168359 0.004,0.164479 0.0168,0.21334 0.0832,0.310101 0.0924,0.137875 0.1001,0.184803 0.0247,0.163998 -0.0323,-0.0055 -0.0571,-0.02414 -0.0571,-0.03771 0,-0.01371 -0.019,-0.02413 -0.0411,-0.02413 -0.0228,0 -0.1156,-0.03827 -0.20608,-0.08324 -0.089,-0.04553 -0.17948,-0.08132 -0.19835,-0.08132 -0.0193,0 -0.12288,-0.04361 -0.22882,-0.09284 -0.106,-0.05074 -0.22883,-0.102028 -0.27237,-0.111215 -0.0774,-0.01892 -0.0774,-0.01892 -0.0586,0.08132 0.0228,0.1263 0.26463,0.436359 0.39719,0.509891 0.0547,0.03044 0.14173,0.08516 0.19447,0.122871 0.10601,0.07789 0.0662,0.08132 0.60665,-0.0469 z m 1.75563,-0.366695 c 0.0228,-0.02277 0.12288,-0.5162 0.10738,-0.531189 -0.03,-0.03196 -0.17175,0.07021 -0.24528,0.17416 -0.0794,0.113136 -0.1326,0.292685 -0.10792,0.364283 0.01,0.0266 0.0456,0.03429 0.12095,0.02277 0.0604,-0.0055 0.11711,-0.02084 0.12479,-0.03003 z m 0.3817,-0.05471 c 0.0455,-0.02084 0.15481,-0.07405 0.24576,-0.115603 0.0905,-0.04155 0.20948,-0.102028 0.26269,-0.1359 0.0528,-0.03196 0.13206,-0.08132 0.17562,-0.107924 0.11711,-0.07158 0.0416,-0.09819 -0.17755,-0.06047 -0.13453,0.02277 -0.21723,0.05856 -0.32316,0.134529 -0.0794,0.05663 -0.1553,0.104084 -0.17029,0.104084 -0.0378,0 -0.11122,0.113135 -0.11122,0.171747 0,0.05856 -0.002,0.05856 0.0982,0.0096 z m -1.92592,-2.173611 c 0.002,-0.300419 0.01,-0.551511 0.0174,-0.559246 0.007,-0.0055 0.0411,0.06432 0.0754,0.160612 0.18141,0.498782 0.33623,0.890149 0.36476,0.924021 0.0416,0.05321 0.70874,0.03772 0.70874,-0.01495 0,-0.01892 -0.0363,-0.111215 -0.0798,-0.206084 -0.0754,-0.160613 -0.16593,-0.360896 -0.30042,-0.65358 -0.03,-0.07021 -0.0905,-0.202218 -0.13206,-0.298979 l -0.0754,-0.17368 0.0716,-0.169799 c 0.0396,-0.09476 0.16448,-0.382192 0.27768,-0.639072 0.11177,-0.258826 0.20222,-0.470231 0.20029,-0.474097 -0.005,-0.0055 -0.52151,-0.01686 -0.65164,-0.01097 l -0.0982,0.0041 -0.15531,0.476526 c -0.0846,0.26076 -0.16447,0.50409 -0.17366,0.540375 -0.0358,0.13014 -0.0754,-0.0155 -0.0547,-0.204151 0.011,-0.09627 0.01,-0.319288 0,-0.493448 l -0.0208,-0.319302 h -0.70872 v 1.317321 c 0,0.72567 0.01,1.326522 0.0208,1.337657 0.01,0.0096 0.17368,0.0155 0.36478,0.01097 l 0.34589,-0.0082 z m 2.08848,0.440241 c 0.007,-0.04882 0.0168,-0.119033 0.0208,-0.156744 0.007,-0.06775 0.011,-0.06966 0.25496,-0.06966 h 0.24768 l 0.03,0.152876 0.0285,0.151423 0.1359,0.01893 c 0.19303,0.02414 0.53119,0.02605 0.54617,0.0041 0.008,-0.01097 -0.0735,-0.449922 -0.17947,-0.971427 -0.10395,-0.523454 -0.20222,-1.024157 -0.21722,-1.115103 -0.015,-0.09051 -0.0396,-0.249639 -0.0566,-0.349774 -0.0174,-0.102028 -0.0436,-0.198351 -0.0624,-0.213353 -0.0304,-0.02469 -0.86209,-0.02469 -0.88094,0 -0.007,0.0096 -0.11904,0.481847 -0.19836,0.83694 -0.0189,0.09092 -0.0832,0.364764 -0.13788,0.606653 -0.29849,1.292664 -0.28348,1.192516 -0.20222,1.20413 0.0358,0.0027 0.19835,0.0027 0.36091,0 l 0.2951,-0.0096 z m 0.14368,-0.810324 c -0.011,-0.02084 0.0208,-0.308167 0.0982,-0.856291 0.0358,-0.260759 0.0832,-0.343972 0.0982,-0.169812 0.004,0.0528 0.032,0.281562 0.0605,0.506037 0.0774,0.580528 0.0852,0.540869 -0.0944,0.540869 -0.0832,0 -0.15528,-0.0096 -0.16254,-0.02084 z m 2.192,-0.09627 0.005,-0.999966 0.20754,-0.01495 0.2061,-0.01495 -0.005,-0.274295 c -0.003,-0.152876 -0.005,-0.298499 -0.007,-0.325103 0,-0.04348 -0.0551,-0.0469 -0.7426,-0.0469 -0.56312,0 -0.7484,0.0055 -0.76389,0.03387 -0.0262,0.04155 -0.0431,0.476046 -0.0222,0.56506 0.0137,0.05663 0.0301,0.0624 0.18868,0.0624 0.1359,0 0.17949,0.0096 0.19302,0.04361 0.01,0.02277 0.0168,0.476033 0.0168,1.005287 v 0.961747 h 0.71599 z m 1.92204,0.424757 v -0.5723 l 0.11121,-0.289297 c 0.0604,-0.156744 0.12095,-0.311555 0.13398,-0.34204 0.0137,-0.03003 0.0378,-0.09819 0.0571,-0.150943 0.019,-0.05321 0.0431,-0.120951 0.0566,-0.151409 0.0137,-0.03003 0.0416,-0.106004 0.0643,-0.166425 0.0208,-0.06047 0.0639,-0.177547 0.0963,-0.260761 0.032,-0.08324 0.0586,-0.15481 0.0586,-0.158677 0,-0.0055 -0.16449,-0.0055 -0.36476,0 l -0.36285,0.0055 -0.0475,0.150943 c -0.0261,0.08324 -0.0814,0.260759 -0.12095,0.393312 -0.0416,0.132061 -0.0832,0.23609 -0.0944,0.228822 -0.011,-0.0082 -0.0434,-0.09092 -0.0702,-0.187215 -0.062,-0.223021 -0.16206,-0.52152 -0.18866,-0.565059 -0.0285,-0.04553 -0.73534,-0.04937 -0.73534,-0.0041 0,0.0266 0.15722,0.402502 0.30235,0.727605 0.0285,0.06047 0.0832,0.191096 0.12479,0.289298 0.0416,0.09819 0.10409,0.24189 0.13981,0.321235 0.0624,0.13206 0.0662,0.173667 0.0683,0.659382 0.002,0.285429 0.01,0.548122 0.0168,0.581981 0.015,0.06047 0.0247,0.0624 0.38364,0.0624 h 0.37056 z"
       style="fill:#018471;fill-opacity:1;fill-rule:nonzero;stroke:none;stroke-width:0.483776"
       id="path834" />
  </g>
</svg>
