<svg xmlns="http://www.w3.org/2000/svg" width="65.8" height="65.8" viewBox="0 0 17.41 17.41"><circle cx="8.705" cy="8.704" r="8.573" fill="#fff" stroke="#fff" stroke-width=".265"/><g fill="#c62024"><path d="M7.998 14.029c-1.213-.17-2.38-.79-3.235-1.717-.425-.451-.764-.975-1-1.548-.302-.717-.396-1.223-.392-2.125.002-.646.021-.821.138-1.251.165-.609.514-1.368.803-1.754.328-.434.973-1.072 1.377-1.36 1.793-1.275 4.131-1.284 5.987-.022a6.92 6.92 0 0 1 1.338 1.33c.712.972 1.06 2.174.994 3.446-.046.871-.257 1.585-.714 2.396-.284.505-1.198 1.454-1.734 1.8-.443.283-1.27.627-1.756.727-.456.095-1.4.136-1.806.078zm-.425-2.674v-.799h-.26v1.298h-.618v-1.298h-.31v.743c0 .51.02.759.063.803s.24.062.593.058l.532-.005zm.464.287c0-.315.02-.509.049-.49s.167.227.314.47c.255.426.37.542.537.542.069 0 .081-.11.081-.804v-.804h-.31v1.012l-.187-.312c-.317-.529-.474-.7-.643-.7h-.15v1.608h.309zm1.794.488c.241-.03.27-.045.27-.155s-.018-.121-.309-.121h-.31v-.364h.313c.31 0 .313-.001.297-.142s-.027-.143-.314-.14h-.296v-.167c0-.167 0-.167.296-.183.282-.014.298-.023.314-.159l.016-.143H9.12v1.608h.221c.12 0 .34-.016.49-.034zm1.084-.082c.136-.068.23-.362.169-.524-.056-.15-.2-.273-.43-.37-.13-.055-.192-.113-.192-.183 0-.141.234-.14.31.001s.31.141.31.004c0-.17-.058-.265-.21-.344-.343-.176-.719-.009-.719.32 0 .263.067.353.356.479.302.13.339.176.263.317-.081.155-.3.139-.34-.025-.025-.1-.066-.13-.182-.13s-.15.023-.15.123c0 .35.42.522.815.331zm-2.394-1.75c.095 0 .497-.36.497-.445 0-.11-.246-.092-.4.03-.4.317-.98-.105-.786-.573.12-.29.473-.387.747-.204.152.1.44.143.44.063-.017-.056-.045-.109-.082-.155-.204-.294-.805-.384-1.108-.165-.347.248-.436.735-.203 1.115.136.22.557.416.763.355.043-.012.087-.019.132-.022zm3.515-.053c.151-.057.388-.293.388-.385 0-.113-.2-.1-.388.023-.201.134-.49.134-.661-.001a.5.5 0 0 1 .116-.827c.182-.074.48-.033.573.08.067.08.41.105.41.028s-.355-.365-.49-.393l-.248-.051c-.337-.069-.77.253-.839.626-.074.393.192.84.564.95.16.047.372.028.575-.05zm-6.682-.222v-.277l.317-.074c.41-.096.536-.244.483-.564-.044-.263-.187-.34-.708-.395l-.335-.034-.034.2a5.97 5.97 0 0 0 0 1.224c.027.161.053.194.153.194.113 0 .124-.02.124-.274zm.954.03l.1-.22h.287c.286 0 .286 0 .413.232.093.17.158.232.245.232.063 0 .116-.031.116-.068 0-.078-.557-1.439-.611-1.495-.018-.02-.096-.023-.173-.006-.124.024-.175.109-.451.764l-.313.776c0 .02.064.03.142.02.109-.012.165-.066.245-.235zm3.06-.528l-.027-.79c-.023-.022-.093-.027-.157-.01-.104.027-.115.062-.115.374l.034.774c.032.398.042.43.141.414s.11-.048.123-.761zm.45.436l.037-.337h.247c.177 0 .256-.023.277-.081.06-.157.03-.178-.247-.178-.27 0-.278-.005-.3-.155-.012-.087-.012-.167.002-.182s.15-.026.302-.026c.271 0 .275-.001.275-.155v-.155h-.878v1.605h.125c.117 0 .129-.024.16-.336zm.954-.432l-.026-.795c-.016-.016-.085-.018-.156-.004l-.128.025.002.656c0 .79.021.886.185.886h.123zm-6.05-1.514l.017-.434.176.41.224.454c.102.104.247-.072.421-.511l.18-.455.016.502c.014.496.015.503.14.503h.128V6.871l-.185.016c-.177.016-.19.032-.327.379l-.216.51-.078.145-.2-.458c-.246-.565-.262-.585-.445-.585h-.148v.774c0 .693.01.775.09.796.17.045.194 0 .208-.433zm1.735.388c.018-.046.032-.41.032-.807v-.725l-.143.016-.14.016-.015.687c-.016.69.023.894.164.894.039 0 .085-.037.102-.081zm.855.005c.081-.042.157-.106.17-.143.014-.044.078-.015.195.083.152.127.206.143.407.122.28-.034.416-.175.421-.444.002-.18.004-.182.055-.06.115.29.435.52.726.518.425-.003.809-.339.851-.744a.98.98 0 0 0-.356-.776c-.197-.148-.704-.151-.898-.005-.21.141-.347.368-.374.62-.03.198-.048.231-.076.149-.021-.06-.15-.16-.294-.23-.173-.08-.258-.151-.258-.216 0-.162.154-.173.295-.02.07.076.167.132.215.124.137-.027.132-.233-.013-.377-.259-.261-.802-.13-.807.192-.005.102-.01.098-.071-.039-.118-.273-.361-.377-.645-.278-.194.066-.264.181-.264.428 0 .211.093.319.37.43.217.088.319.22.27.349-.051.135-.304.104-.372-.048-.04-.088-.1-.128-.189-.128-.194 0-.176.225.03.419.181.17.38.194.611.074zm3.77-.001c.081-.042.151-.103.203-.177.083-.155.123-.64.083-1.011-.034-.31-.046-.34-.155-.34-.117 0-.12.013-.14.562-.02.599-.068.733-.27.733s-.237-.094-.237-.71v-.586h-.32l.036 1.304.17.15c.19.171.396.196.63.075zm.733-.27l.014-.35.274.35c.204.262.303.347.398.347.16 0 .16-.007-.013-.314l-.14-.252.147-.153a.44.44 0 0 0 .145-.361c-.007-.397-.194-.526-.767-.526h-.328v.772c0 .78.009.818.192.83.04.002.068-.112.078-.343zm1.183.01c.02-.171.037-.527.039-.79l.004-.479h-.309v1.613l.117-.016c.1-.014.12-.056.148-.328z"/><path d="M8.44 15.324c-.104-.227-.21-.414-.234-.414s-.145.143-.268.317-.24.296-.263.271a2.36 2.36 0 0 1-.155-.368c-.063-.178-.132-.322-.15-.322s-.158.126-.312.282-.292.273-.311.26-.064-.185-.1-.385-.087-.38-.114-.395-.132.035-.235.116c-.445.354-.435.349-.484.271-.026-.04-.046-.23-.047-.422 0-.228-.022-.35-.06-.35-.032 0-.218.092-.411.203l-.35.203.03-.435c.02-.28.014-.438-.02-.438s-.222.07-.429.156l-.386.156.092-.442c.056-.243.09-.455.076-.469s-.198.021-.406.08l-.442.105c-.04 0-.016-.11.069-.324l.158-.444c.027-.12.023-.122-.276-.088l-.446.06c-.078.016-.141.012-.141-.007s.075-.166.17-.328c.261-.451.263-.458.045-.495a3.67 3.67 0 0 0-.46-.032c-.15 0-.271-.014-.271-.03s.103-.164.232-.328.233-.32.233-.35-.146-.084-.323-.117c-.573-.11-.56-.086-.204-.418.176-.164.319-.322.319-.352s-.187-.118-.416-.194l-.418-.141.248-.176.38-.272.128-.095-.409-.208-.409-.206.421-.22c.233-.122.424-.249.424-.28s-.165-.173-.365-.31-.35-.267-.332-.286.212-.096.429-.17l.396-.135-.33-.328-.327-.33.405-.067.451-.083c.023-.006-.088-.181-.248-.387l-.29-.374h.195c.107 0 .317-.016.463-.033.304-.036.304-.02.025-.503-.095-.164-.166-.308-.155-.317s.192 0 .405.025.406.025.43.001-.028-.224-.115-.446a3.44 3.44 0 0 1-.144-.418 2.27 2.27 0 0 1 .37.088l.425.1c.088 0 .083-.152-.014-.53-.044-.17-.067-.324-.051-.34s.185.034.377.11l.395.137c.023 0 .026-.197.007-.439l-.037-.438.372.206.417.206c.025 0 .046-.124.046-.273a3.45 3.45 0 0 1 .032-.464l.031-.19.316.255c.174.141.34.25.368.24s.085-.196.125-.414.092-.398.113-.398.168.144.326.32c.168.187.307.3.332.272s.107-.23.185-.45l.143-.401.13.193c.234.348.386.533.437.533.028 0 .122-.164.21-.364s.174-.362.19-.362.099.133.183.296.182.303.215.313.156-.121.272-.292l.255-.339c.041-.024.102.115.327.744.045.124.053.118.377-.204.183-.182.341-.321.354-.31s.058.209.106.436l.107.434c.013.014.18-.106.374-.264l.349-.29.035.443c.018.243.046.453.06.467s.2-.072.413-.19l.389-.213-.03.468c-.021.309-.013.47.023.47a2.58 2.58 0 0 0 .396-.161c.189-.09.358-.148.377-.13s-.009.209-.06.424-.079.405-.063.421.217-.017.444-.076.416-.09.416-.072-.065.21-.142.43-.127.414-.11.432.215.009.437-.02.416-.04.427-.027-.078.185-.198.387-.202.385-.183.404.219.044.442.053l.41.037c0 .009-.115.17-.258.36s-.257.363-.257.387.174.074.387.11.399.077.412.098-.105.16-.26.314-.282.305-.282.335.2.121.445.2.424.163.4.184a14.33 14.33 0 0 1-.394.284l-.347.264c0 .013.189.12.418.24l.42.22-.343.173c-.187.095-.341.192-.341.217s.144.14.322.255l.32.214-.179.07-.424.162c-.135.05-.245.122-.245.16s.133.185.295.33.283.273.265.29-.21.075-.427.128l-.425.123c-.016.016.101.189.258.382l.285.353-.432.027c-.236.014-.445.042-.465.06s.06.198.177.398l.21.38c0 .01-.196.007-.438 0-.29-.013-.439 0-.439.036s.062.208.138.395.125.349.11.367-.168-.007-.34-.053c-.415-.108-.54-.106-.507.01.08.27.19.752.176.765s-.178-.051-.377-.132c-.53-.217-.51-.231-.472.313l.013.465c-.013 0-.187-.095-.39-.213s-.384-.197-.402-.178-.047.219-.062.446l-.028.411-.333-.26c-.183-.142-.357-.25-.388-.24s-.084.199-.123.42l-.072.402-.298-.296c-.168-.167-.33-.285-.368-.271s-.125.194-.194.397-.143.368-.166.368-.136-.14-.253-.314-.24-.305-.272-.296-.143.176-.242.367-.192.347-.206.345-.113-.187-.217-.414zm1.516-.929c1.36-.307 2.52-1.075 3.402-2.258.417-.562.576-.867.853-1.658.246-.703.341-1.82.224-2.64-.068-.46-.348-1.305-.609-1.825-.648-1.293-1.914-2.393-3.296-2.866a5.85 5.85 0 0 0-4.453.31c-1.247.63-2.385 1.878-2.835 3.108-.574 1.576-.521 3.158.152 4.604.562 1.205 1.453 2.122 2.66 2.739.617.317.913.418 1.593.543.647.118 1.64.095 2.309-.057zM8.944 8.013c-.2-.236-.185-.523.034-.724.234-.216.486-.21.708.015.148.152.165.193.142.4-.034.309-.212.47-.524.47-.188 0-.249-.027-.36-.161zm2.861-.592v-.233H12c.224 0 .321.073.321.241 0 .14-.137.226-.36.226-.151 0-.156-.009-.156-.234zm-3.967.622c-.03-.07-.1-.128-.15-.128s-.132-.066-.178-.147-.201-.2-.348-.268c-.176-.083-.26-.153-.26-.219 0-.156.14-.165.315-.019.1.085.196.126.254.108.07-.023.099 0 .11.088.011.081.098.162.265.254.35.188.432.278.348.38-.103.126-.286.1-.355-.049zm-1.35 1.479c0-.028.052-.155.114-.284l.113-.234.116.245.12.285c.002.021-.103.039-.23.039s-.232-.023-.232-.051zm-1.16-.044c-.015-.014-.027-.14-.027-.277 0-.264.028-.286.333-.257.226.021.388.352.224.455-.083.05-.497.112-.53.079z"/></g></svg>