<?xml version="1.0" encoding="UTF-8" standalone="no"?>
<svg
   xmlns:dc="http://purl.org/dc/elements/1.1/"
   xmlns:cc="http://creativecommons.org/ns#"
   xmlns:rdf="http://www.w3.org/1999/02/22-rdf-syntax-ns#"
   xmlns:svg="http://www.w3.org/2000/svg"
   xmlns="http://www.w3.org/2000/svg"
   xmlns:sodipodi="http://sodipodi.sourceforge.net/DTD/sodipodi-0.dtd"
   xmlns:inkscape="http://www.inkscape.org/namespaces/inkscape"
   width="17.409584mm"
   height="17.409584mm"
   viewBox="0 0 17.409584 17.409584"
   version="1.1"
   id="svg1870"
   inkscape:version="1.0.1 (3bc2e813f5, 2020-09-07)"
   sodipodi:docname="MP.svg">
  <defs
     id="defs1864" />
  <sodipodi:namedview
     id="base"
     pagecolor="#ffffff"
     bordercolor="#666666"
     borderopacity="1.0"
     inkscape:pageopacity="0.0"
     inkscape:pageshadow="2"
     inkscape:zoom="2.1760267"
     inkscape:cx="30.702679"
     inkscape:cy="137.18026"
     inkscape:document-units="mm"
     inkscape:current-layer="layer1"
     inkscape:document-rotation="0"
     showgrid="false"
     fit-margin-top="0"
     fit-margin-left="0"
     fit-margin-right="0"
     fit-margin-bottom="0"
     inkscape:window-width="1920"
     inkscape:window-height="1054"
     inkscape:window-x="0"
     inkscape:window-y="26"
     inkscape:window-maximized="1" />
  <metadata
     id="metadata1867">
    <rdf:RDF>
      <cc:Work
         rdf:about="">
        <dc:format>image/svg+xml</dc:format>
        <dc:type
           rdf:resource="http://purl.org/dc/dcmitype/StillImage" />
        <dc:title />
      </cc:Work>
    </rdf:RDF>
  </metadata>
  <g
     inkscape:label="Layer 1"
     inkscape:groupmode="layer"
     id="layer1"
     transform="translate(-102.28184,42.237323)">
    <circle
       class="st1"
       cx="110.98663"
       cy="-33.532532"
       id="circle3408"
       style="fill:#ffffff;stroke:#ffffff;stroke-width:0.264583;stroke-miterlimit:10"
       r="8.5725002" />
    <path
       d="m 110.27975,-28.208135 c -1.21239,-0.169651 -2.37921,-0.789615 -3.23426,-1.716853 -0.45122,-0.490004 -0.74901,-0.950246 -1.00123,-1.547637 -0.30142,-0.717426 -0.39481,-1.223225 -0.3912,-2.12565 0.002,-0.645225 0.0213,-0.821205 0.13762,-1.251198 0.16559,-0.608238 0.51437,-1.367615 0.80359,-1.753854 0.32803,-0.433611 0.97281,-1.071625 1.37665,-1.359045 1.79264,-1.276012 4.13126,-1.284581 5.98709,-0.02251 0.38262,0.260805 1.01206,0.884378 1.33783,1.330627 0.71202,0.970991 1.05944,2.173012 0.99401,3.445432 -0.0455,0.870831 -0.25719,1.584637 -0.7138,2.395459 -0.28382,0.505812 -1.19842,1.454255 -1.73401,1.799423 -0.44263,0.283815 -1.26924,0.62764 -1.75565,0.728261 -0.45662,0.09516 -1.39964,0.135357 -1.80664,0.07764 z m -0.42458,-2.673864 v -0.798632 h -0.25945 v 1.297219 h -0.61861 v -1.297219 h -0.30998 v 0.742239 c 0,0.511213 0.0195,0.759378 0.0631,0.803595 0.0405,0.04247 0.24005,0.06178 0.59244,0.0582 l 0.53243,-0.0051 z m 0.46339,0.286971 c 0,-0.315392 0.0195,-0.508956 0.0492,-0.490015 0.0266,0.01624 0.1674,0.22741 0.31404,0.469258 0.25538,0.426399 0.37,0.542802 0.5374,0.542802 0.0685,0 0.0812,-0.109612 0.0812,-0.804054 v -0.803594 h -0.31045 v 1.011602 l -0.1868,-0.311788 c -0.31719,-0.528809 -0.4742,-0.699814 -0.64342,-0.699814 h -0.14979 v 1.607648 h 0.30862 z m 1.79446,0.488203 c 0.24138,-0.0298 0.26937,-0.04553 0.26937,-0.154761 0,-0.1146 -0.0177,-0.121762 -0.30819,-0.121762 h -0.31042 v -0.363216 h 0.31359 c 0.31043,0 0.31223,-0.0014 0.29644,-0.142584 -0.0158,-0.137622 -0.0266,-0.142587 -0.31404,-0.140783 h -0.29599 v -0.166043 c 0,-0.167396 0,-0.167396 0.29599,-0.183193 0.28201,-0.01395 0.29825,-0.02302 0.31404,-0.158368 l 0.0159,-0.143031 h -0.98725 v 1.607647 h 0.22064 c 0.11959,0 0.33976,-0.01573 0.49001,-0.03389 z m 1.08379,-0.08249 c 0.13582,-0.06728 0.23102,-0.361424 0.16921,-0.523411 -0.0564,-0.149798 -0.19944,-0.273428 -0.42999,-0.370442 -0.13041,-0.05462 -0.19222,-0.11281 -0.19222,-0.18318 0,-0.140783 0.23417,-0.13898 0.30997,0.0013 0.0744,0.137622 0.31043,0.141229 0.31043,0.0039 0,-0.169201 -0.0581,-0.264411 -0.20981,-0.343825 -0.34382,-0.175968 -0.71923,-0.009 -0.71923,0.320815 0,0.262608 0.0673,0.352395 0.35601,0.477828 0.30141,0.130396 0.33841,0.175967 0.2626,0.317197 -0.0809,0.155221 -0.29959,0.138978 -0.33975,-0.02481 -0.0248,-0.100659 -0.0656,-0.130396 -0.18184,-0.130396 -0.12138,0 -0.1498,0.02302 -0.1498,0.123169 0,0.35104 0.41962,0.522045 0.81442,0.331637 z m -2.39366,-1.750245 c 0.0952,0 0.49724,-0.359609 0.49724,-0.443984 0,-0.109612 -0.2468,-0.09209 -0.40023,0.0298 -0.40021,0.317197 -0.98001,-0.105519 -0.78601,-0.573037 0.11959,-0.290581 0.47242,-0.387582 0.7472,-0.204388 0.15162,0.100659 0.43904,0.143032 0.43904,0.06356 0,-0.02302 -0.0369,-0.09158 -0.0812,-0.155221 -0.2044,-0.294187 -0.80541,-0.383975 -1.10862,-0.165596 -0.34699,0.248616 -0.43542,0.735026 -0.2026,1.115841 0.13582,0.220195 0.5568,0.416013 0.76299,0.354198 0.0387,-0.01023 0.0989,-0.02123 0.13221,-0.02123 z m 3.51447,-0.05282 c 0.1516,-0.0564 0.38804,-0.292845 0.38804,-0.384436 0,-0.112809 -0.19943,-0.100147 -0.38804,0.02302 -0.20079,0.134016 -0.49002,0.134016 -0.66102,-0.0013 -0.27659,-0.218393 -0.20937,-0.690797 0.11639,-0.826616 0.18184,-0.07405 0.47962,-0.03339 0.57304,0.07943 0.0667,0.08122 0.41059,0.105519 0.41059,0.02801 0,-0.07892 -0.35601,-0.364572 -0.49001,-0.393004 -0.0703,-0.01395 -0.18139,-0.03697 -0.24862,-0.05103 -0.3366,-0.06856 -0.77022,0.253579 -0.83879,0.625823 -0.0741,0.393004 0.19221,0.840608 0.564,0.949798 0.16018,0.04784 0.3718,0.0284 0.57439,-0.04925 z m -6.68151,-0.222001 v -0.277046 l 0.31721,-0.07405 c 0.4088,-0.09516 0.53558,-0.243205 0.48278,-0.564007 -0.0443,-0.262608 -0.18679,-0.340217 -0.70839,-0.394808 l -0.33479,-0.03339 -0.0339,0.198977 c -0.042,0.257645 -0.042,0.971451 0,1.225043 0.0266,0.160618 0.0532,0.194014 0.15341,0.194014 0.11282,0 0.12369,-0.01944 0.12369,-0.274784 z m 0.95342,0.0298 0.10065,-0.220182 h 0.28697 c 0.28561,0 0.28561,0 0.4124,0.232372 0.0934,0.171004 0.15883,0.232819 0.24502,0.232819 0.0636,0 0.11637,-0.03159 0.11637,-0.06856 0,-0.07764 -0.55678,-1.43846 -0.61138,-1.494851 -0.0176,-0.01944 -0.0952,-0.02302 -0.17281,-0.0064 -0.12368,0.02442 -0.17463,0.109229 -0.45121,0.764802 -0.17281,0.406996 -0.31224,0.756232 -0.31224,0.775634 0,0.02072 0.0636,0.0298 0.14123,0.02072 0.10923,-0.01279 0.1656,-0.06676 0.24501,-0.235978 z m 3.05963,-0.527006 c 0.007,-0.412405 -0.004,-0.766604 -0.0262,-0.789614 -0.023,-0.02302 -0.0934,-0.02801 -0.15701,-0.01023 -0.10424,0.02622 -0.1146,0.06139 -0.1146,0.373601 0,0.188604 0.0158,0.537392 0.0335,0.773831 0.0321,0.397966 0.0425,0.429993 0.14123,0.41421 0.10373,-0.01445 0.10923,-0.04784 0.12317,-0.761642 z m 0.45122,0.435416 0.037,-0.3366 h 0.24682 c 0.17641,0 0.25538,-0.02302 0.27658,-0.08122 0.06,-0.157023 0.0302,-0.177783 -0.24681,-0.177783 -0.26937,0 -0.27839,-0.0051 -0.29959,-0.155208 -0.0128,-0.08659 -0.0128,-0.167399 0.002,-0.181838 0.0144,-0.01395 0.1498,-0.02622 0.30141,-0.02622 0.27163,0 0.27524,-0.0013 0.27524,-0.155221 v -0.15521 h -0.87806 v 1.605845 h 0.12547 c 0.11639,0 0.12859,-0.02481 0.16017,-0.336598 z m 0.9534,-0.431809 c 0,-0.423228 -0.0128,-0.781046 -0.0262,-0.795025 -0.0158,-0.01573 -0.0847,-0.01765 -0.15522,-0.0039 l -0.1286,0.02481 0.002,0.655598 c 0,0.789615 0.0213,0.886628 0.18499,0.886628 h 0.12316 z m -6.0489,-1.514256 0.0158,-0.433612 0.17642,0.409248 c 0.097,0.223803 0.19898,0.430005 0.22379,0.454371 0.10245,0.10424 0.24681,-0.07226 0.42144,-0.510776 l 0.17957,-0.454818 0.0158,0.502194 c 0.0144,0.495427 0.0158,0.502193 0.14122,0.502193 h 0.12676 v -1.612611 l -0.185,0.01573 c -0.17641,0.01624 -0.1904,0.03197 -0.32622,0.379011 -0.0776,0.199437 -0.17417,0.428189 -0.21658,0.509407 l -0.0776,0.146192 -0.19944,-0.457965 c -0.24635,-0.565824 -0.2626,-0.585228 -0.44578,-0.585228 h -0.148 v 0.773832 c 0,0.6926 0.009,0.775175 0.0898,0.79638 0.17101,0.04425 0.19402,0 0.20801,-0.433611 z m 1.73444,0.388042 c 0.0177,-0.04604 0.0316,-0.409247 0.0316,-0.807213 v -0.724641 l -0.14256,0.01573 -0.14123,0.01624 -0.014,0.687193 c -0.0158,0.688993 0.023,0.893393 0.16378,0.893393 0.0387,0 0.0847,-0.03697 0.10245,-0.08083 z m 0.85459,0.0051 c 0.0812,-0.04195 0.15703,-0.105519 0.16965,-0.142584 0.014,-0.04425 0.0789,-0.01573 0.19538,0.083 0.15161,0.126751 0.20621,0.142584 0.40699,0.121379 0.28065,-0.03339 0.41601,-0.174625 0.42143,-0.443986 0.002,-0.180034 0.004,-0.181838 0.0546,-0.05998 0.1146,0.291028 0.43541,0.519792 0.72645,0.517989 0.42458,-0.0025 0.80856,-0.338415 0.85098,-0.743595 0.0284,-0.252235 -0.13717,-0.611396 -0.35601,-0.775635 -0.19718,-0.147994 -0.70479,-0.151602 -0.8988,-0.0051 -0.22561,0.167398 -0.33299,0.345181 -0.3736,0.620413 -0.0301,0.197173 -0.0479,0.230569 -0.0758,0.147995 -0.0212,-0.05998 -0.1498,-0.160631 -0.29418,-0.229213 -0.17282,-0.08122 -0.25763,-0.151601 -0.25763,-0.217036 0,-0.161974 0.1534,-0.17236 0.29462,-0.01944 0.0703,0.07585 0.1674,0.132199 0.21478,0.123681 0.13762,-0.02661 0.13221,-0.232831 -0.0127,-0.377221 -0.25901,-0.260791 -0.80225,-0.130396 -0.80722,0.192224 -0.005,0.101938 -0.0102,0.09836 -0.0709,-0.03875 -0.1178,-0.27343 -0.36096,-0.377208 -0.64478,-0.27839 -0.19401,0.06676 -0.2644,0.181376 -0.2644,0.428188 0,0.211613 0.0934,0.319014 0.36999,0.430006 0.21704,0.088 0.31901,0.220183 0.26982,0.348788 -0.051,0.135806 -0.30321,0.10424 -0.3718,-0.04733 -0.0405,-0.088 -0.10066,-0.128592 -0.18861,-0.128592 -0.19401,0 -0.17641,0.225606 0.0298,0.419175 0.18138,0.169198 0.38082,0.194024 0.61138,0.07405 z m 3.7703,-0.0013 c 0.0831,-0.04425 0.17463,-0.123682 0.2026,-0.176428 0.0831,-0.155208 0.12368,-0.639803 0.0831,-1.011601 -0.0335,-0.31043 -0.0461,-0.340219 -0.15522,-0.340219 -0.11638,0 -0.11997,0.01395 -0.13941,0.562206 -0.0195,0.599208 -0.0685,0.733222 -0.27117,0.733222 -0.20621,0 -0.23645,-0.09337 -0.23645,-0.710213 v -0.585215 h -0.31898 l 0.0357,1.303998 0.1692,0.149799 c 0.18995,0.171005 0.39616,0.19583 0.63079,0.07444 z m 0.73323,-0.269821 0.014,-0.349236 0.27342,0.349236 c 0.20441,0.262607 0.30322,0.346984 0.39798,0.346984 0.16062,0 0.16062,-0.0064 -0.0128,-0.313603 l -0.14078,-0.251773 0.14799,-0.153406 c 0.1128,-0.118182 0.14619,-0.203044 0.14438,-0.361411 -0.007,-0.396624 -0.19401,-0.525217 -0.7666,-0.525217 h -0.32803 v 0.772016 c 0,0.778793 0.009,0.817599 0.19222,0.830235 0.0405,0.0013 0.0674,-0.11281 0.0776,-0.343824 z m 1.18261,0.01023 c 0.0195,-0.171005 0.0369,-0.527006 0.0387,-0.789615 l 0.004,-0.479184 h -0.30862 v 1.612624 l 0.11639,-0.01573 c 0.10066,-0.01395 0.11997,-0.0564 0.14801,-0.32803 z"
       style="fill:#c62024;fill-opacity:1;fill-rule:nonzero;stroke:none;stroke-width:0.451208"
       id="path760" />
    <path
       d="m 110.72193,-26.912707 c -0.10373,-0.227411 -0.20935,-0.414211 -0.23417,-0.414211 -0.0248,0 -0.1444,0.142584 -0.26803,0.317197 -0.12137,0.172819 -0.23958,0.29599 -0.26259,0.271178 -0.0213,-0.02431 -0.0916,-0.190408 -0.15522,-0.368193 -0.0631,-0.178217 -0.1322,-0.322605 -0.1498,-0.322605 -0.0195,0 -0.15838,0.12675 -0.31178,0.281997 -0.15341,0.155222 -0.29239,0.273442 -0.31179,0.260805 -0.0195,-0.01023 -0.0636,-0.184997 -0.0989,-0.38579 -0.0352,-0.201228 -0.088,-0.379011 -0.1146,-0.394808 -0.0266,-0.01765 -0.13221,0.03517 -0.23464,0.11639 -0.44579,0.3542 -0.43496,0.348789 -0.48459,0.271179 -0.0262,-0.04055 -0.0455,-0.231016 -0.0473,-0.42278 0,-0.227408 -0.0213,-0.349235 -0.06,-0.349235 -0.0317,0 -0.21704,0.09158 -0.41061,0.202582 l -0.34923,0.203044 0.0302,-0.435414 c 0.0195,-0.280196 0.0127,-0.43722 -0.0213,-0.43722 -0.0301,0 -0.22199,0.07034 -0.42819,0.155221 -0.20621,0.08621 -0.38082,0.156564 -0.38624,0.156564 -0.004,0 0.0353,-0.198977 0.0916,-0.442183 0.0564,-0.243204 0.0903,-0.454818 0.0758,-0.468811 -0.014,-0.01395 -0.19718,0.02123 -0.40518,0.07943 -0.20981,0.0582 -0.40744,0.105519 -0.44264,0.105519 -0.0402,0 -0.0158,-0.111018 0.0691,-0.324411 0.0721,-0.177783 0.14438,-0.379024 0.15837,-0.443998 0.0266,-0.119972 0.023,-0.121762 -0.27659,-0.088 -0.1674,0.01765 -0.36684,0.04553 -0.44581,0.0596 -0.0776,0.01624 -0.14122,0.01279 -0.14122,-0.0064 0,-0.01944 0.0758,-0.165594 0.17102,-0.32803 0.26078,-0.451212 0.26259,-0.457978 0.0443,-0.494979 -0.10424,-0.01624 -0.31223,-0.03211 -0.46023,-0.03211 -0.14981,0 -0.27117,-0.01395 -0.27117,-0.0298 0,-0.01765 0.10373,-0.163791 0.23237,-0.328029 0.12726,-0.163792 0.23282,-0.320817 0.23282,-0.350592 0,-0.03159 -0.14619,-0.083 -0.32261,-0.116391 -0.57259,-0.109228 -0.5604,-0.08621 -0.2044,-0.417816 0.17641,-0.163792 0.319,-0.322159 0.319,-0.352395 0,-0.0298 -0.18679,-0.118181 -0.41601,-0.194014 l -0.41782,-0.14078 0.24861,-0.176428 c 0.13763,-0.09695 0.30863,-0.220182 0.37902,-0.271164 l 0.12859,-0.09516 -0.40879,-0.208005 -0.4088,-0.206205 0.42098,-0.220195 c 0.23282,-0.121762 0.42324,-0.248616 0.42324,-0.280641 0,-0.03339 -0.16424,-0.172374 -0.36503,-0.309984 -0.20079,-0.139426 -0.34879,-0.266214 -0.33119,-0.285618 0.0177,-0.01765 0.21116,-0.09516 0.4282,-0.169201 l 0.39661,-0.135819 -0.32983,-0.32758 -0.32758,-0.329835 0.40519,-0.06676 c 0.22379,-0.03697 0.42683,-0.07405 0.4512,-0.083 0.023,-0.0064 -0.088,-0.181378 -0.24861,-0.387583 l -0.29059,-0.3736 h 0.19583 c 0.10744,0 0.3172,-0.01573 0.46339,-0.03338 0.30322,-0.03569 0.30322,-0.01944 0.0248,-0.502641 -0.0952,-0.163791 -0.16605,-0.308182 -0.15522,-0.317212 0.0102,-0.01023 0.19222,0 0.40518,0.02481 0.21343,0.02302 0.40565,0.02482 0.43001,0.0013 0.023,-0.02302 -0.028,-0.223805 -0.1146,-0.446251 -0.0862,-0.223803 -0.15115,-0.412407 -0.14439,-0.41737 0.005,-0.0077 0.17282,0.03159 0.36998,0.088 0.19764,0.05462 0.38985,0.09887 0.42505,0.09887 0.088,0 0.0826,-0.151602 -0.014,-0.528823 -0.0443,-0.171005 -0.0674,-0.324411 -0.0514,-0.340206 0.0144,-0.01573 0.18544,0.03339 0.3772,0.109228 0.19404,0.07585 0.37045,0.137623 0.39481,0.137623 0.023,0 0.0266,-0.197634 0.007,-0.439023 l -0.0369,-0.438575 0.37179,0.206203 c 0.20621,0.112809 0.39301,0.206203 0.41782,0.206203 0.0248,0 0.0455,-0.123681 0.0455,-0.273441 0,-0.147995 0.0144,-0.357805 0.0319,-0.463388 l 0.0316,-0.190407 0.3154,0.255381 c 0.17462,0.141229 0.34022,0.250419 0.36863,0.240046 0.028,-0.009 0.0844,-0.195831 0.12496,-0.41421 0.0405,-0.218839 0.0916,-0.398427 0.11282,-0.398427 0.0195,0 0.1674,0.144388 0.32622,0.320816 0.16739,0.186801 0.30637,0.299597 0.33118,0.271178 0.023,-0.02622 0.10743,-0.229213 0.18499,-0.449409 l 0.14304,-0.401572 0.1304,0.193566 c 0.23418,0.347432 0.38578,0.532429 0.43677,0.532429 0.0284,0 0.12188,-0.163791 0.20982,-0.363228 0.0898,-0.198977 0.17461,-0.362767 0.19041,-0.362767 0.0158,0 0.0989,0.133554 0.18318,0.295989 0.0848,0.161988 0.18185,0.303217 0.21522,0.31359 0.0335,0.01023 0.15523,-0.121379 0.27163,-0.292384 0.11422,-0.171005 0.23057,-0.32441 0.25539,-0.338402 0.0405,-0.02481 0.10194,0.1146 0.32622,0.743595 0.0455,0.123681 0.0528,0.118181 0.37722,-0.204399 0.18318,-0.181391 0.34156,-0.320817 0.3542,-0.308628 0.0128,0.01445 0.0581,0.208007 0.10552,0.435417 0.0461,0.225606 0.0934,0.421423 0.10743,0.433612 0.0128,0.01395 0.18004,-0.105519 0.37361,-0.264412 l 0.34923,-0.288776 0.0353,0.442195 c 0.0177,0.243192 0.0461,0.453003 0.06,0.466994 0.0128,0.01279 0.19898,-0.07213 0.41241,-0.190406 l 0.38939,-0.21297 -0.0299,0.468799 c -0.0213,0.308179 -0.0128,0.468811 0.023,0.468811 0.028,0 0.20801,-0.07214 0.39616,-0.160632 0.18861,-0.08979 0.35781,-0.147995 0.37721,-0.128593 0.0177,0.01765 -0.009,0.208007 -0.0596,0.423227 -0.0514,0.214786 -0.0794,0.405193 -0.0636,0.420989 0.0177,0.01573 0.21657,-0.01765 0.44398,-0.07585 0.22923,-0.0564 0.41603,-0.08979 0.41603,-0.07214 0,0.01573 -0.0649,0.209811 -0.14259,0.429992 -0.0776,0.220644 -0.12675,0.414211 -0.10923,0.43181 0.0177,0.01765 0.21478,0.009 0.43677,-0.01944 0.2238,-0.02622 0.41602,-0.04016 0.42685,-0.02801 0.0102,0.01023 -0.0776,0.184996 -0.19763,0.387593 -0.11958,0.202584 -0.20259,0.384421 -0.18319,0.403825 0.0195,0.01944 0.21838,0.04375 0.44218,0.05282 0.2256,0.01023 0.40925,0.02661 0.40925,0.03697 0,0.009 -0.1146,0.171018 -0.25765,0.359622 -0.14258,0.188604 -0.25719,0.363216 -0.25719,0.387582 0,0.02481 0.17463,0.07405 0.3876,0.109228 0.21341,0.03389 0.39842,0.07764 0.41106,0.09887 0.0127,0.01944 -0.10425,0.160632 -0.25946,0.314049 -0.15476,0.152957 -0.28201,0.30456 -0.28201,0.334795 0,0.03159 0.19944,0.12138 0.44445,0.200793 0.24501,0.08122 0.42458,0.161975 0.39977,0.183181 -0.0244,0.02123 -0.2008,0.147995 -0.39301,0.283814 -0.19041,0.134016 -0.34696,0.254026 -0.34696,0.264412 0,0.01279 0.1886,0.119972 0.41781,0.239585 l 0.41917,0.220644 -0.34202,0.17236 c -0.1868,0.09516 -0.34156,0.192224 -0.34156,0.217037 0,0.02481 0.14439,0.139426 0.32261,0.255382 l 0.32036,0.213415 -0.17959,0.07034 c -0.0989,0.04055 -0.28921,0.112808 -0.42458,0.162434 -0.13401,0.04925 -0.245,0.12138 -0.245,0.160172 0,0.03697 0.13355,0.184997 0.29598,0.329835 0.16199,0.142583 0.28202,0.272993 0.26442,0.29058 -0.0177,0.01765 -0.20981,0.07405 -0.42685,0.12675 -0.21657,0.05142 -0.40879,0.107822 -0.42458,0.123681 -0.0158,0.01573 0.10066,0.188603 0.25718,0.382171 l 0.28562,0.352841 -0.43181,0.02622 c -0.23598,0.01445 -0.44579,0.04247 -0.46519,0.05998 -0.0195,0.01944 0.06,0.198977 0.17641,0.398415 0.116,0.19899 0.21117,0.369995 0.21117,0.380827 0,0.009 -0.19718,0.0064 -0.43858,-0.0013 -0.29102,-0.01279 -0.43902,0 -0.43902,0.03697 0,0.03159 0.0618,0.208007 0.13763,0.394807 0.0758,0.184997 0.12495,0.348788 0.10923,0.366388 -0.0158,0.01586 -0.1674,-0.0064 -0.33842,-0.05283 -0.416,-0.107438 -0.54099,-0.105647 -0.50761,0.01023 0.0794,0.269374 0.19041,0.752165 0.17598,0.764801 -0.009,0.009 -0.17778,-0.05103 -0.37676,-0.132211 -0.53062,-0.217024 -0.51122,-0.231017 -0.47242,0.313603 0.0177,0.255829 0.0225,0.465191 0.0128,0.465191 -0.0128,0 -0.1868,-0.09516 -0.38938,-0.212969 -0.2026,-0.116391 -0.38444,-0.197634 -0.40204,-0.178231 -0.0195,0.01944 -0.0473,0.21884 -0.0618,0.446249 l -0.028,0.410603 -0.33299,-0.259449 c -0.18364,-0.142585 -0.35782,-0.249971 -0.38804,-0.241402 -0.028,0.01023 -0.0844,0.199438 -0.12318,0.421437 l -0.0721,0.401573 -0.29826,-0.295991 c -0.16739,-0.167397 -0.32938,-0.285617 -0.36819,-0.271177 -0.0387,0.01395 -0.12495,0.193567 -0.194,0.39661 -0.0667,0.202597 -0.1426,0.368192 -0.16561,0.368192 -0.023,0 -0.13582,-0.140781 -0.25358,-0.31359 -0.11638,-0.17282 -0.24004,-0.30502 -0.27162,-0.296451 -0.0335,0.01023 -0.14258,0.176428 -0.2414,0.366835 -0.10066,0.190407 -0.19221,0.346972 -0.2062,0.34563 -0.014,0 -0.11281,-0.187262 -0.21704,-0.41421 z m 1.51608,-0.929041 c 1.36085,-0.306825 2.52044,-1.075232 3.40165,-2.257851 0.41782,-0.562204 0.5762,-0.867226 0.85324,-1.658642 0.24635,-0.702988 0.34156,-1.82063 0.2238,-2.640021 -0.0673,-0.460241 -0.34743,-1.304456 -0.60823,-1.824249 -0.64885,-1.293612 -1.91404,-2.393657 -3.29609,-2.866075 -1.4398,-0.491821 -3.09303,-0.375404 -4.45387,0.31043 -1.24624,0.628983 -2.38465,1.877037 -2.83404,3.107028 -0.5744,1.576071 -0.5216,3.158459 0.15159,4.604133 0.56221,1.205178 1.45245,2.122042 2.65943,2.738836 0.61725,0.31721 0.91325,0.417829 1.59366,0.542815 0.64661,0.118181 1.6406,0.09516 2.30886,-0.0564 z"
       style="fill:#c62024;fill-opacity:1;fill-rule:nonzero;stroke:none;stroke-width:0.451208"
       id="path762" />
    <path
       d="m 111.22639,-34.224098 c -0.19944,-0.23599 -0.185,-0.5234 0.0335,-0.724192 0.23418,-0.215234 0.4864,-0.209811 0.7084,0.01573 0.148,0.151602 0.16424,0.192211 0.14123,0.400218 -0.0339,0.308179 -0.21163,0.46881 -0.5234,0.46881 -0.18861,0 -0.24863,-0.02661 -0.35962,-0.160631 z"
       style="fill:#c62024;fill-opacity:1;fill-rule:nonzero;stroke:none;stroke-width:0.451208"
       id="path764" />
    <path
       d="m 114.08705,-34.816092 v -0.232818 h 0.19537 c 0.22381,0 0.32082,0.07265 0.32082,0.241402 0,0.139411 -0.13762,0.225594 -0.3596,0.225594 -0.15163,0 -0.15659,-0.009 -0.15659,-0.234178 z"
       style="fill:#c62024;fill-opacity:1;fill-rule:nonzero;stroke:none;stroke-width:0.451208"
       id="path766" />
    <path
       d="m 110.12093,-34.193874 c -0.0317,-0.07034 -0.10015,-0.128592 -0.15117,-0.128592 -0.0514,0 -0.1322,-0.06548 -0.17821,-0.14664 -0.0473,-0.08071 -0.20079,-0.198991 -0.34744,-0.26757 -0.17597,-0.08301 -0.2608,-0.153406 -0.2608,-0.21884 0,-0.156565 0.14123,-0.165583 0.31585,-0.01944 0.10015,0.0848 0.19537,0.125471 0.25359,0.107821 0.0703,-0.02302 0.0989,0 0.11101,0.088 0.0102,0.08122 0.0971,0.161987 0.26441,0.254038 0.35059,0.188143 0.43181,0.278391 0.34744,0.380367 -0.10245,0.125472 -0.28562,0.100658 -0.35465,-0.04925 z"
       style="fill:#c62024;fill-opacity:1;fill-rule:nonzero;stroke:none;stroke-width:0.451208"
       id="path768" />
    <path
       d="m 108.77091,-32.715254 c 0,-0.02801 0.0514,-0.15522 0.1128,-0.283813 l 0.11281,-0.234176 0.1164,0.24501 c 0.0636,0.135806 0.11818,0.262595 0.11996,0.285603 0.002,0.02072 -0.10244,0.03837 -0.22921,0.03837 -0.12859,0 -0.23283,-0.02251 -0.23283,-0.05103 z"
       style="fill:#c62024;fill-opacity:1;fill-rule:nonzero;stroke:none;stroke-width:0.451208"
       id="path770" />
    <path
       d="m 107.6095,-32.759021 c -0.014,-0.01445 -0.0266,-0.139425 -0.0266,-0.277049 0,-0.264409 0.0284,-0.285618 0.33344,-0.257183 0.2256,0.02123 0.38759,0.352393 0.22379,0.454818 -0.0831,0.05103 -0.49723,0.112809 -0.53062,0.07943 z"
       style="fill:#c62024;fill-opacity:1;fill-rule:nonzero;stroke:none;stroke-width:0.451208"
       id="path772" />
  </g>
</svg>
