<svg xmlns="http://www.w3.org/2000/svg" width="65.8" height="65.8" viewBox="0 0 17.41 17.41"><circle cx="8.71" cy="8.704" r="8.573" fill="#fff" stroke="#fff" stroke-width=".265"/><path fill="red" fill-rule="evenodd" d="M4.76 7.987h7.743v1.732H4.76z"/><circle cx="8.7" cy="8.693" r="5.73" fill="none" stroke="red" stroke-linejoin="round" stroke-width="1.72"/><path d="M8.099 15.471c-2.053-.144-3.906-1.26-5.1-3.07-1.008-1.525-1.326-3.397-.895-5.252.445-1.913 1.799-3.622 3.574-4.51 3.699-1.85 8.188.023 9.49 3.958.516 1.562.42 3.342-.261 4.87a6.84 6.84 0 0 1-4.546 3.845c-.548.14-1.536.21-2.262.159zm.867-1.006v-.766h-.297v.738c0 .76.005.78.21.79.08.004.086-.064.086-.762zm-1.06.611c.217-.055.257-.106.178-.23-.03-.048-.073-.052-.176-.013-.35.134-.832.01-.971-.249-.09-.169-.025-.496.122-.623.226-.194.454-.2.79-.025.271.142.297.148.354.07.081-.11.06-.138-.229-.284-.363-.184-.616-.202-.887-.063-.676.348-.565 1.197.186 1.424.195.058.383.056.633-.007zm2.14-.038c.058-.036.058-.086.006-.301-.073-.307-.084-.297.425-.417.288-.067.366-.104.345-.16a.5.5 0 0 1-.029-.14c0-.051-.074-.044-.357.029-.476.124-.514.12-.546-.042a.38.38 0 0 1-.01-.153c.01-.01.214-.066.453-.127.41-.103.436-.118.42-.23a.43.43 0 0 0-.039-.141c-.038-.04-1.155.265-1.157.316 0 .028.062.357.136.731.14.693.17.751.353.635zm-3.842-1.369l.018-.575-.172-.111-.173-.11-.658.408-.685.433c-.013.015.03.063.098.107.116.077.134.073.361-.053l.241-.134.666.468-.03.262c-.03.255-.028.263.112.31s.142.045.174-.191c.016-.13.038-.496.048-.814zm-.49-.045a2.58 2.58 0 0 1-.19-.14c-.025-.024.341-.28.401-.28.04 0 .03.487-.012.511-.02.012-.11-.028-.2-.09zm6.288.687c.042-.017.078-.053.078-.082 0-.066-.656-1.273-.69-1.271a.41.41 0 0 0-.114.068c-.082.063-.064.11.247.69.184.343.348.623.367.624s.07-.013.112-.03zm1.22-.972a1.49 1.49 0 0 0 .465-.716c.026-.094.012-.111-.097-.111-.084 0-.126.026-.126.083 0 .146-.242.499-.414.605-.239.147-.453.134-.628-.042-.314-.313-.123-.83.376-1.02.234-.088.245-.104.174-.216-.075-.118-.438.023-.678.263-.346.347-.353.793-.018 1.127.172.173.21.19.46.19.234 0 .307-.025.486-.163zm-9.164-4.68c-.026 1.237.488 2.449 1.373 3.336a4.82 4.82 0 0 0 2.571 1.306 6.23 6.23 0 0 0 1.752-.073 4.71 4.71 0 0 0 3.362-3.08c.55-1.691.086-3.548-1.195-4.782-.855-.811-1.81-1.227-2.966-1.292-1.593-.088-3.17.68-4.046 1.968-.405.595-.792 1.575-.816 2.019m.103-.174l.022-.103 4.487.022 4.504.038c.068.061.103.895.055 1.326-.042.381-.155.643-.155.643H7.278l-3.024-.005-.08-.422a6.43 6.43 0 0 1-.032-1.05l.054-.449zM8.2 13.273c-.254-.037-.73-.09-.915-.244-.04-.023 1.407 0 1.407 0h1.432c-.48.232-1.46.312-1.924.244zm-2.108-.802c-.614-.392-1.299-1.237-1.616-1.996a4.47 4.47 0 0 1-.175-.493l3.56.015-.06.146H7.49l-.104.154h.353l-.045.111h-.386l-.121.18h.432l-.054.134h-.47l-.16.232h.537l-.085.204h-.595l-.225.33h.683l-.11.28h-.767l-.275.409h.87l-.174.433h-.25c-.162.002-.32-.047-.451-.141zm.994.139l.114-.433h2.939l.16.433H7.085zm3.327-.433h.876l-.275-.41h-.767l-.116-.28h.684l-.218-.33h-.6l-.083-.203h.539l-.155-.232h-.479l-.054-.133h.439l-.121-.18h-.391l-.044-.112h.357l-.106-.154h-.315l-.06-.146 3.558-.005-.034.16c-.048.245-.353.858-.593 1.195-.259.361-.815.916-1.119 1.119-.18.119-.272.144-.507.144h-.237zm-2.936-.69h2.405l.106.28H7.361zm.222-.533h1.988l.076.204H7.62zm.085-.232l.046-.133h1.722l.048.133zm.115-.314l.044-.11h1.502l.04.11zm.098-.265l.055-.146h1.28l.056.146H7.997zm-2.986 2.888c.18-.093.247-.214.247-.438 0-.133-.068-.262-.296-.57-.163-.22-.312-.401-.33-.401a14.93 14.93 0 0 0-1.175.885c-.014.022.012.086.053.146l.074.107.224-.16.222-.16.229.266c.197.227.43.39.569.398.064-.015.126-.04.183-.073zm-.503-.43c-.131-.142-.237-.282-.237-.31 0-.054.334-.301.364-.268.339.395.443.65.317.776-.106.106-.202.063-.444-.198zm4.331-3.116c.012-.035.033-.347.05-.693l.031-.63h-.301v.421c0 .23-.017.42-.037.42s-.159-.19-.308-.42c-.27-.418-.274-.42-.482-.42h-.21v1.334h.296v-.444c0-.246.016-.445.038-.445s.164.2.32.441c.192.299.322.448.396.463l.15.028c.021.003.048-.021.057-.054zm1.708-.087v-.149h-.791v-.296h.371c.364 0 .372-.001.372-.123s-.008-.124-.372-.124h-.371v-.297h.396c.388 0 .395-.001.395-.123v-.124H9.464l.001.653c0 .36.012.672.025.693s.257.038.54.038h.516zm1.495-.05c.257-.283.134-.5-.358-.63-.254-.069-.322-.107-.322-.181 0-.138.227-.183.523-.107.242.064.245.064.245-.054 0-.158-.194-.227-.559-.202-.326.023-.492.142-.492.356 0 .189.134.308.424.374.411.093.428.1.428.2 0 .05-.043.116-.095.144a1.02 1.02 0 0 1-.621.001c-.123-.046-.13-.042-.115.086.019.163.18.216.559.184.199-.016.274-.05.383-.17zm-5.696.026c0-.121-.008-.125-.366-.125-.545 0-.524.024-.524-.573v-.514h-.297v1.334h1.187zm.642-.544v-.668h-.247v1.334h.247zM4.001 6.887c.22-.258.323-.477.331-.71.006-.163-.017-.223-.128-.32-.076-.064-.17-.117-.212-.117-.136 0-.356.146-.467.308-.305.445-.54.567-.54.282 0-.174.223-.525.444-.7.142-.11.146-.119.07-.23l-.082-.114-.22.215c-.277.27-.445.55-.488.818-.03.187-.018.223.118.357.255.258.373.2.902-.443.126-.153.2-.205.26-.181.186.071.053.42-.299.782-.195.202-.213.242-.164.335l.057.106.13-.103a2.54 2.54 0 0 0 .288-.285zm10.562-.074c.284-.103.335-.174.24-.329-.039-.058-.128-.04-.548.117-.277.102-.51.179-.519.168s.136-.27.32-.581l.337-.566-.08-.164c-.043-.091-.093-.159-.11-.15-.286.119-1.282.67-1.282.707 0 .028.028.093.064.141.062.083.088.077.47-.114.221-.113.404-.19.404-.173a4.8 4.8 0 0 1-.255.48c-.28.488-.284.5-.193.717l.062.151.402-.151.688-.253zm-1.743-1.39c.104-.311.11-.318.313-.351.248-.041.358-.13.43-.348.044-.131.039-.194-.02-.312-.075-.14-.783-.797-.863-.797-.021 0-.247.247-.5.547l-.461.547.205.205.131-.155c.073-.085.158-.154.19-.154s.13.067.221.15l.163.15-.078.27c-.045.15-.065.3-.045.331.04.072.176.234.196.234.007 0 .06-.143.118-.317zm-.132-.834c-.142-.114-.258-.22-.258-.233s.065-.1.143-.191l.142-.167.247.19c.287.224.376.362.33.507-.056.181-.307.137-.604-.106zm-7.78.813c.423-.204.628-.776.404-1.132-.206-.325-.658-.458-.988-.287a1.24 1.24 0 0 0-.5.595.77.77 0 0 0 .475.913c.172.053.381.022.61-.089zm-.57-.156c-.167-.066-.266-.249-.266-.486 0-.179.028-.243.165-.381.27-.268.564-.287.803-.048.253.254.09.731-.309.897-.183.076-.243.08-.394.018zm7.147-.996c0-.018-.143-.1-.32-.183-.33-.154-.358-.192-.27-.356.05-.093.061-.091.345.051.353.18.365.181.43.033.05-.107.034-.124-.263-.27-.174-.086-.316-.174-.316-.195s.034-.088.077-.148l.077-.11.338.172c.345.172.361.172.467-.014.027-.044-.11-.134-.474-.305l-.51-.242-.655 1.302.476.253c.469.249.477.25.537.148.026-.043.046-.088.061-.136zm-5.06.013c.236-.108.415-.317.415-.486 0-.066-.09-.351-.2-.633l-.2-.51-.288.099.093.23c.05.128.138.338.196.471s.102.28.102.332c0 .24-.442.393-.603.207a4.66 4.66 0 0 1-.287-.458l-.222-.384c-.025-.03-.272.107-.272.15 0 .027.115.236.254.466.36.597.582.71 1.011.516zm3.713-1.08c.155-.76.152-.802-.067-.803-.088 0-.113.045-.16.286l-.057.29-.259-.04a5.39 5.39 0 0 0-.346-.04c-.08-.002-.085-.037-.055-.327l.033-.325-.167.015-.17.016-.03.444-.062.73-.028.285h.344v-.235c.001-.34.02-.355.385-.295.3.048.31.054.287.179-.095.479-.095.489.028.512l.144.03c.017.003.096-.322.18-.723zm-2.197.603c.061-.024.058-.095-.018-.508-.128-.681-.14-.638.202-.706.285-.054.295-.063.265-.187a2.01 2.01 0 0 0-.038-.14c-.002-.004-.356.059-.784.143l-.776.15.032.13a1.01 1.01 0 0 0 .04.143c.005.007.135-.012.291-.043s.29-.047.303-.034.073.26.133.55c.113.543.141.58.35.502z"/><g fill="#ff0"><path d="M6.572 7.486c.172-.305.457-.607.767-.812a2.42 2.42 0 0 1 1.65-.418 1.88 1.88 0 0 1 .769.192c.484.232.925.627 1.157 1.038l.068.119h-4.48z"/><path d="M5.932 7.249l-.859-.542c.017-.004.247.068.51.157l.498.166c.038 0-.012-.06-.362-.435l-.376-.417c0-.023.027-.012.483.205l.552.236c.016-.017-.055-.126-.282-.428l-.365-.52c.004-.005.18.117.393.27l.564.368-.246-.514-.245-.516c.005-.002.121.09.257.211l.665.529-.2-.697-.086-.316c.004-.015.102.104.218.267l.413.53c.03.012.026-.033-.047-.675l-.046-.444c0-.055.082.083.356.597l.247.436c.013-.072.017-.144.013-.217L8 4.918l.014-.363.147.421.178.48c.028.052.031.054.05.017.011-.021.048-.177.08-.346l.156-.675c.028-.018.068.148.153.638l.108.507c.005-.004.066-.19.137-.412.153-.48.216-.638.247-.607.014.013.023.2.03.536l.01.515.259-.448.284-.482c.024-.031.026-.03.026.028a6.93 6.93 0 0 1-.077.517c-.084.5-.084.493-.059.493.008 0 .148-.168.306-.373l.424-.491c.014.015-.055.272-.186.681l-.118.379c0 .053.101-.029.486-.389l.438-.397c.002.003-.117.25-.266.548l-.253.542c.01 0 .129-.074.265-.167l.756-.48c.005.006-.095.145-.22.31l-.414.573c0 .021.141-.037.624-.257l.43-.184a3.76 3.76 0 0 1-.314.344c-.436.45-.52.558-.445.558.014 0 .267-.062.562-.136l.569-.135c.053 0-.867.577-1.154.723-.103.051-.104.053-.136.015-.46-.572-.567-.68-.857-.875s-.607-.327-.945-.398a3.83 3.83 0 0 0-1.069 0 2.75 2.75 0 0 0-1.011.438 3.52 3.52 0 0 0-.703.729c-.074.11-.142.197-.154.195l-.426-.242z"/></g><path d="M4.3 7.542c.375-1.073 1.055-1.968 1.865-2.55.481-.342 1.029-.577 1.608-.69a4.9 4.9 0 0 1 1.862.003c1.043.213 1.921.784 2.603 1.69a5.82 5.82 0 0 1 .842 1.614c0 .003-.879.003-2.097 0-2.548-.008-2.177-.008-4.663 0l-2.052.006zm6.683.065c0-.007-.111-.196-.14-.24a2.81 2.81 0 0 0-1.064-.907c-.215-.111-.449-.178-.69-.198-.544-.056-.977.009-1.4.213a2.55 2.55 0 0 0-1.184 1.132zm-4.509-.256c.14-.197.242-.32.41-.487a2.28 2.28 0 0 1 .666-.496 2.96 2.96 0 0 1 .607-.222c.159-.038.304-.051.604-.051.306 0 .452.013.622.054a2.77 2.77 0 0 1 .856.379c.263.175.39.301.754.747.106.131.126.15.142.15.058 0 .705-.378 1.105-.647.129-.088.154-.108.147-.113s-.143.025-.472.108l-.659.156c-.028 0-.026-.015 0-.058.04-.063.13-.164.417-.46l.34-.376c0-.013-.07.017-.521.22l-.526.216c-.007-.008.095-.15.339-.476l.29-.402c-.01-.012-.226.122-.67.417l-.345.216c0-.015.076-.18.237-.503l.274-.573c-.005-.005-.102.081-.423.38-.411.38-.51.459-.494.396 0-.01.048-.161.103-.335l.195-.72c-.016-.015-.11.095-.404.466l-.327.395c-.016.005-.007-.075.044-.366l.095-.672c-.036.009-.198.285-.494.801l-.076.133v-.097l-.033-.935c-.008-.033-.025-.028-.048.012-.04.07-.09.21-.26.737a1.53 1.53 0 0 1-.09.248c-.008-.01-.03-.11-.088-.442-.098-.547-.132-.7-.162-.7-.005 0-.012.008-.017.018l-.118.523-.125.503c-.017 0-.072-.14-.237-.611l-.108-.304-.01-.023-.004.037c-.005.05-.019.457-.025.815l-.01.297c-.099-.15-.183-.3-.262-.452l-.328-.574-.015-.013v.038c0 .02.023.242.051.494l.052.597c-.015.022-.107-.091-.348-.423l-.264-.344c-.02-.022-.027-.025-.028-.017-.002.017.036.164.103.381l.175.639c-.015.014-.086-.044-.504-.408l-.41-.34c-.003.01.055.134.235.497l.247.526c-.014.012-.158-.083-.524-.343l-.423-.289c-.012.004.11.18.313.456l.304.42c.025.039.033.07.018.07-.027 0-.166-.06-.61-.271-.357-.169-.414-.192-.414-.169 0 .01.136.162.396.443l.323.356c.028.036.031.045.013.045a11.89 11.89 0 0 1-.428-.14l-.575-.179c-.008.009.019.03.121.098l1.061.636.103.057.03-.033c.018-.018.056-.068.086-.111z"/></svg>