<svg xmlns="http://www.w3.org/2000/svg" width="65.8" height="65.8" viewBox="0 0 17.41 17.41"><circle cx="8.71" cy="8.704" r="8.573" fill="#fff" stroke="#fff" stroke-width=".265"/><path d="M7.34 12.31l-1.122-.686.022-.199c.02-.263-.022-.312-.454-.568L3.962 9.81a.56.56 0 0 0-.664.037l-.1.07-.5-.294-1.078-.621-.579-.345c0-.012.5-.298.925-.527l.8-.434.624-.337.103.103a.25.25 0 0 0 .25.103c.167 0 .16.004 1.034-.474L6.34 6.18a.49.49 0 0 0 .112-.397l-.015-.087.567-.31 1.708-.938.276.14 1.782.94.199.108-.016.169c-.03.287.05.375.6.647l.902.478 1.146.554a.53.53 0 0 0 .344-.154l.073-.069 2.036 1.082.322.176c.016.015-1.092.66-2.062 1.2l-.296.163-.11-.08c-.125-.097-.283-.142-.441-.124-.118.018-.374.15-1.527.798l-.412.227a4.19 4.19 0 0 0-.607.37c-.077.087-.103.227-.07.395.019.095.019.141-.004.16-.016.012-.294.17-.615.35l-1.652.92-.109.063zm1.249.46c.046-.046.046-.44 0-.423-.037.01-.07.176-.074.355-.004.105.019.125.074.067zm-.1-.175l.01-.182-.094-.059-.438-.252-.782-.441-.467-.248c-.057.014-.113.033-.167.058-.092.039-.138.072-.133.1.004.021.328.224.717.448l1.008.581.319.175c.01 0 .023-.08.029-.18zm.236-.103c.008-.164 0-.21-.026-.2s-.038.079-.044.222c-.008.164 0 .21.028.2s.037-.079.042-.222zm.12-.01c.004-.154.004-.154.016-.027.005.09.022.13.05.13s.038-.045.038-.218c0-.182-.008-.213-.04-.2-.022.007-.04.025-.04.04s-.017.02-.035.016c-.034-.007-.087.35-.06.394.04.06.067.007.07-.134zm.213-.187c0-.153-.01-.202-.033-.195-.037.013-.065.322-.037.395.035.09.07-.01.07-.2zm.141.048c.001-.065.004-.065.015-.011.026.136.063.05.063-.145 0-.153-.007-.204-.035-.195-.019.005-.04.058-.05.117l-.017.107-.003-.105c-.004-.09-.009-.101-.046-.071s-.052.161-.022.334c.013.083.024.096.053.072.02-.017.039-.065.04-.103zm.183-.108c.004-.05.024-.087.044-.087s.042-.02.05-.048c.008-.037.018-.031.042.028.035.084.086.1.086.027 0-.031.01-.036.02-.016.03.046 1.049-.533 1.038-.59-.004-.023-.074-.076-.153-.118l-.143-.077-.532.294-.53.294v.202c0 .147.01.197.033.19s.039-.052.045-.1zm-.562-.137l.858-.48c.318-.174.585-.34.592-.366s.027-.099.044-.167c.046-.184.224-.443.357-.517l.491-.272.638-.357.894-.463c.022 0 .048-.015.053-.035s.13-.094.27-.17c.243-.128.267-.134.5-.143.161-.007.299.004.396.03l.151.04.368-.206.736-.438c0-.01-.254-.152-.563-.316l-.561-.296-.155.044a1.1 1.1 0 0 1-.592.004 6.08 6.08 0 0 1-.638-.317l-.763-.414-1.264-.724c-.116-.114-.237-.337-.237-.441 0-.04-.012-.08-.033-.114-.04-.05-1.605-.896-1.657-.896-.084 0-1.598.83-1.659.91a1.8 1.8 0 0 0-.1.217c-.141.34-.161.357-1.515 1.103l-1.554.764c-.122.006-.244-.001-.364-.02l-.178-.034-.433.232-.724.395.064.041.522.304c.383.217.468.255.52.235a1.18 1.18 0 0 1 .529-.057c.187.02.23.042 1.103.534l1.227.698c.436.254.587.432.658.77.028.135.037.148.182.227l.834.469.702.386c.015 0 .149-.072.302-.16zm-1.863-1.177v-.355h.153c.125 0 .162.011.22.07s.069.089.056.168c-.009.054-.031.105-.064.149-.048.053-.048.058.038.288.01.024-.014.035-.073.035s-.09-.017-.1-.048c-.038-.12-.05-.127-.058-.04-.01.077-.02.088-.09.088h-.082zm.247-.125c0-.02-.018-.038-.04-.038-.043 0-.057.057-.024.09.026.025.064-.006.064-.052zm.263.241l.096-.355c.027-.107.037-.116.118-.116h.088l.086.335.085.355c0 .011-.043.02-.096.02-.066 0-.096-.013-.096-.042s-.026-.04-.08-.04-.084.014-.084.04-.027.042-.091.042h-.094zm.228-.077c0-.022-.013-.035-.028-.026s-.027.03-.027.043.013.025.027.025.028-.018.028-.042zm.3-.039v-.355h.163v.71h-.163zm.219.002v-.357h.19v.519h.097c.093 0 .097.004.088.088l-.007.088-.184.01-.184.007zm.452.305l-.059-.251-.07-.286c-.036-.117-.031-.128.063-.12.073.008.09.025.116.113.038.136.079.134.106-.005.017-.094.032-.113.085-.113s.068.019.083.109c.026.152.057.156.095.014.031-.108.045-.123.114-.123.043 0 .078.01.078.02s-.039.172-.088.356c-.08.3-.096.334-.15.334s-.067-.025-.097-.129c-.04-.136-.048-.132-.1.026-.025.081-.047.103-.097.103-.038 0-.07-.02-.079-.048zm.502.035c0-.018.078-.314.107-.41l.055-.199c.03-.106.037-.115.123-.115.065 0 .098.014.107.048l.169.642c.013.038-.001.047-.085.047-.077 0-.102-.013-.114-.055-.009-.035-.036-.055-.083-.055s-.071.02-.08.055-.037.055-.107.055c-.051 0-.092-.005-.092-.013zm.326-.28c-.005-.041-.05-.128-.052-.098s-.008.051-.018.075-.001.042.027.042.043-.01.043-.02zm.301.128a.61.61 0 0 0-.082-.326c-.104-.206-.104-.246-.004-.246.068 0 .084.016.127.129l.047.126.067-.126c.057-.116.073-.13.158-.13.053 0 .095.008.095.015s-.055.126-.123.26c-.084.167-.121.277-.121.353 0 .105-.005.11-.083.11h-.08zm-1.664-.699l-.326-.054c-.768-.138-1.357-.608-1.548-1.237-.057-.254-.07-.515-.039-.773.072-.379.319-.783.631-1.033.389-.316.859-.517 1.356-.581.37-.05.551-.05.895 0 .848.121 1.437.492 1.72 1.092.136.285.175.465.163.75a1.67 1.67 0 0 1-.343.942c-.184.249-.558.537-.81.625l-.174.068-.328.113c-.259.079-.318.088-.693.093-.225.004-.45.002-.504-.003zM7.46 9.4c.007-.012.02-.26.029-.553l.031-.675.015-.146.142.004c.31.01.29.02.29-.164v-.165l-1.214.015-.009.106c-.004.058 0 .116.01.173.016.066.02.066.209.048l.193-.019-.007.678-.004.698a.6.6 0 0 0 .314 0zm2.144-.235c0-.254.005-.261.19-.261.274 0 .53-.157.627-.383a.38.38 0 0 0 .03-.286c-.014-.079-.036-.155-.067-.229a.74.74 0 0 0-.337-.298c-.114-.038-.684-.042-.746-.003-.03.018-.039.18-.047.857l-.01.831h.36zm.06-.61c-.058-.01-.06-.023-.06-.27 0-.183.01-.26.035-.27.061-.006.123-.003.184.008.127.018.156.035.21.114.082.121.079.2-.014.305-.095.09-.226.131-.355.112zm-1.903.59c.039-.019.07-.054.07-.078 0-.05.116-.115.171-.095.019.007.052 0 .074-.013.035-.022.033-.046-.012-.184l-.072-.199-.035-.09c-.008-.025-.024-.046-.035-.046-.06 0-.094.067-.155.313-.117.482-.117.442-.005.392zm.125-.359c0-.05.005-.053.028-.02.033.053.033.082 0 .082-.017 0-.028-.027-.028-.06zm.383.06c.042-.021.053-.056.053-.183l.001-.156.076.091c.049.061.093.089.128.083.048-.01.054-.038.06-.318.007-.102.005-.204-.006-.305-.024.006-.048.015-.07.027-.043.024-.054.06-.054.191v.162L8.36 8.33c-.147-.162-.175-.121-.175.248 0 .164.007.298.017.298a.24.24 0 0 0 .068-.03zm.577-.334c.133-.08.2-.171.24-.314.032-.124.018-.208-.049-.284-.055-.062-.136-.06-.244.006l-.088.055v.3c0 .165.008.3.02.3s.066-.03.121-.063zm-.005-.316c0-.144.008-.166.052-.166.068 0 .09.092.05.212-.056.163-.102.143-.102-.046zm-5.374.461v-.272H3.4c-.054 0-.069-.014-.069-.068 0-.068.004-.068.22-.068s.216 0 .216.068c0 .057-.01.068-.08.068h-.084v.544h-.136zm.791.252c0-.01.043-.088.094-.173l.092-.154-.079-.144a1.03 1.03 0 0 1-.079-.167c0-.013.037-.022.08-.022.063 0 .093.018.124.081.024.046.054.083.064.083s.043-.037.068-.083c.037-.06.069-.08.13-.08.073 0 .115.06.058.085-.037.039-.067.083-.092.131l-.072.124.052.108c.03.059.064.12.08.134.052.053.026.097-.055.097-.062 0-.09-.018-.122-.08-.054-.103-.07-.103-.13 0-.034.062-.065.08-.128.08-.046 0-.085-.008-.085-.02zm.574.013a9.83 9.83 0 0 1 .12-.334l.12-.326h.104c.101 0 .105.002.14.136l.134.484c.01.039-.005.047-.081.047s-.097-.012-.108-.053-.037-.055-.129-.055-.117.011-.129.055-.037.053-.092.053a.24.24 0 0 1-.079-.007zm.355-.346c0-.045-.013-.082-.028-.082s-.027.009-.027.02c-.004.028-.009.056-.017.083-.013.044-.005.06.028.06s.044-.024.044-.08zm.333.322c-.018-.018-.033-.068-.033-.11 0-.066.01-.076.079-.076.044 0 .085.015.09.032.015.046.103.007.103-.044 0-.031-.03-.043-.108-.043-.124 0-.164-.05-.164-.2s.074-.22.255-.22c.162-.002.207.027.209.132 0 .044-.015.047-.126.033-.117-.015-.123-.013-.115.044.008.048.03.064.105.07.115.011.134.038.136.198 0 .17-.055.215-.25.215-.081 0-.164-.014-.18-.03zm-1.67-.322v-.327h.191c.186 0 .191.002.191.068 0 .06-.01.068-.11.068s-.108.006-.108.068c0 .05.015.068.055.068.035 0 .053.019.053.055s-.018.054-.053.054c-.042 0-.055.018-.055.082 0 .076.008.081.096.081.077 0 .095.012.095.055 0 .048-.018.054-.178.054H3.85zm7.322.264c-.011-.116-.013-.232-.008-.348l.009-.313h.182c.1 0 .196.015.213.032a.32.32 0 0 1 .046.143c.02.147-.039.236-.167.261-.094.016-.098.022-.098.14s0 .121-.082.121c-.047 0-.089-.016-.096-.036zm.254-.403c.036-.04.014-.107-.037-.107-.022 0-.039.027-.039.068 0 .074.026.087.076.039zm.115.425c0-.01.05-.17.113-.357l.11-.342.084.009c.083.007.089.017.188.322l.103.348c.004.056-.129.04-.162-.02-.02-.04-.057-.056-.121-.056s-.103.017-.123.055-.057.055-.11.055c-.045 0-.082-.007-.082-.014zm.355-.293c0-.044-.053-.127-.053-.084-.003.026-.009.051-.019.075s0 .042.028.042.045-.014.045-.033zm.346.257c-.037-.04-.046-.108-.046-.327 0-.318.01-.333.24-.333.15 0 .187.028.214.16.017.081.014.087-.068.087-.048 0-.086-.015-.086-.03s-.028-.026-.061-.02c-.07.01-.092.101-.063.258.011.066.032.091.07.091.03 0 .054-.012.054-.027s.037-.028.083-.028c.066 0 .08.012.08.065 0 .101-.08.154-.235.154-.099 0-.15-.014-.182-.05zm.5-.305v-.355h.164v.71h-.164zm.245 0v-.355h.383v.083c0 .077-.008.081-.11.081s-.11.007-.11.068.015.068.084.068.08.011.08.068-.013.068-.08.068c-.081 0-.083.004-.083.136s0 .138-.081.138h-.083zm.436 0v-.355h.164v.71h-.164zm.307.322c-.046-.046-.046-.6 0-.644.016-.018.095-.033.174-.033.118 0 .152.012.186.061.025.036.04.079.043.123 0 .05-.015.063-.08.063-.056 0-.082-.017-.093-.059-.008-.031-.032-.052-.05-.044-.026.007-.037.068-.037.199 0 .158.01.19.048.198.03.005.048-.007.048-.035s.026-.042.083-.042c.073 0 .08.01.08.09 0 .125-.042.156-.218.156-.083 0-.168-.014-.184-.033zM7.996 6.189v-.26h-.07c-.057 0-.068-.01-.061-.06.008-.057.024-.062.219-.07.211-.007.211-.007.211.061 0 .057-.013.07-.068.07-.068 0-.068 0-.068.26v.259h-.163zm.36-.062l.009-.32.073-.008c.074-.009.076-.005.076.129s0 .138.082.138.081-.002.081-.136.001-.136.083-.136h.08v.655h-.08c-.079 0-.083-.006-.083-.124s0-.123-.08-.123-.083.006-.083.123-.001.124-.083.124h-.083zm.6 0l.009-.32.17-.008c.156-.007.17-.003.17.048 0 .046-.016.055-.095.055s-.096.01-.096.066c0 .049.018.07.062.076a.08.08 0 0 1 .07.07c.007.05-.004.06-.06.06s-.072.015-.072.056.019.055.096.055c.088 0 .095.005.095.08v.084H8.95zM6.58 11.413c.07-.037.106-.074.106-.111 0-.066.005-.066-.147 0-.09.039-.125.07-.125.109 0 .07.03.07.166.002zm4.09-.012c0-.05-.188-.16-.24-.142s-.021.061.098.124.141.068.141.018zm-4.12-.142c.073-.029.109-.06.109-.095 0-.064-.023-.064-.162-.007-.074.029-.11.06-.11.094 0 .064.021.064.163.008zm4.145.01c0-.04-.202-.162-.228-.138-.033.035-.015.065.072.118.103.062.158.07.156.02zm.028-.114c0-.02-.042-.063-.096-.094-.118-.07-.12-.07-.12-.01 0 .049.118.14.183.143.018 0 .033-.017.033-.037zm-4.208-.033c.122-.046.147-.083.077-.109-.044-.016-.233.088-.233.129 0 .035.022.031.156-.02zm4.25-.09c0-.02-.04-.067-.088-.103-.085-.064-.087-.064-.114-.011-.026.045-.016.062.059.11.094.059.143.06.143.004zm-4.246-.046c.05-.033.057-.048.03-.08s-.047-.03-.128.032c-.051.039-.099.065-.106.057s.027-.04.077-.075l.101-.07c.005-.006-.005-.028-.024-.05-.03-.037-.047-.031-.14.042-.104.083-.104.085-.059.15.054.073.131.07.249-.006zm4.329-.039c.009-.017-.005-.057-.033-.088l-.05-.06.06.052c.045.037.073.045.093.023.037-.037-.04-.162-.114-.186-.061-.018-.116.007-.094.044.009.015-.001.026-.024.026-.077 0-.07.079.013.148.09.076.122.085.147.041zm-4.52-.134c.059-.05.06-.11.003-.11-.012 0-.07.04-.127.088l-.105.086.092-.097c.125-.134.06-.173-.07-.043l-.097.096.079.042c.083.043.11.035.224-.062zm-.182-.224c-.028-.028-.052-.015-.126.073-.12.144-.066.186.067.055.075-.077.086-.101.059-.128zm4.888.207c.035-.014.03-.03-.032-.11-.077-.094-.124-.114-.158-.062a.39.39 0 0 0 .142.189c.016-.004.033-.01.048-.017zm.09-.158c-.067-.085-.154-.128-.154-.075s.137.19.178.176c.035-.012.03-.03-.024-.1zm-5.133.008c.053-.065.064-.094.04-.116s-.051-.008-.11.059c-.034.032-.061.072-.08.115 0 .056.08.024.15-.058zm5.415-.102c-.069-.12-.124-.167-.164-.141-.033.02-.03.036.024.11.034.046.057.092.05.097s-.041-.023-.072-.07-.078-.082-.098-.082c-.071 0-.071.057 0 .15l.07.093.11-.055c.086-.047.103-.065.08-.102zm-5.527.045c.05-.065.06-.098.038-.124-.042-.053-.06-.044-.138.065-.114.16-.021.213.1.059zm-.074-.172c-.02-.062-.09-.036-.15.057-.052.081-.057.105-.028.124s.06-.002.112-.065c.042-.047.072-.1.066-.116zm5.737.107a.73.73 0 0 0-.133-.202c-.021.005-.04.013-.057.026-.031.02-.025.04.035.12.046.062.088.091.114.082s.04-.02.04-.026zm-5.919-.068c.056-.077.059-.162.005-.162-.033 0-.145.206-.123.228.033.031.059.019.117-.066zm5.976-.09c-.056-.089-.138-.129-.138-.07a.41.41 0 0 0 .057.125c.046.075.064.087.095.06s.032-.043-.014-.115zm-6.09.024c.063-.092.06-.151-.004-.151-.044 0-.14.178-.116.217.03.046.052.035.12-.066zm6.238.013c.026-.045-.093-.217-.138-.2s-.05.032.016.139c.055.09.091.11.122.06zm-6.342-.094c.058-.094.055-.153-.008-.15-.032 0-.129.165-.129.218 0 .06.082.018.136-.068zm6.45.042c.021-.035-.071-.22-.11-.22-.06 0-.064.034-.01.14s.09.128.12.08zm-6.561-.108c.05-.098.05-.14 0-.14-.026 0-.134.173-.134.215 0 .07.084.024.134-.075zm6.674.04c.02-.053-.064-.208-.114-.208s-.05.031.005.15c.05.102.083.12.107.058zm-6.785-.086c.06-.098.055-.15-.005-.15-.044 0-.14.179-.115.218.03.05.062.033.121-.068zm6.902.009a.41.41 0 0 0-.048-.124c-.034-.064-.057-.08-.086-.062-.035.022-.033.039.008.121.044.094.13.136.127.065zm-7.021-.074c.057-.112.053-.13-.04-.18-.082-.04-.084-.04-.137.048-.066.106-.07.158-.014.158.022 0 .064-.046.094-.103s.053-.09.053-.075c-.007.034-.02.066-.039.095-.05.088-.05.136 0 .136.022 0 .059-.034.083-.079zm7.141.031c.022-.034-.068-.224-.105-.224-.064 0-.07.048-.022.149.042.09.1.123.127.075zm.21-.106c.044-.039.044-.05.005-.15-.043-.106-.105-.137-.13-.065-.01.02.002.077.028.125s.039.094.032.1-.034-.03-.056-.084-.06-.099-.084-.099c-.052 0-.052.024 0 .149.035.083.053.097.1.083.037-.015.072-.035.104-.06zm-7.557-.059c.05-.1.05-.14-.001-.14a.4.4 0 0 0-.115.228c.036.035.063.013.116-.088zm-.109-.044c.06-.096.055-.15-.009-.15a.25.25 0 0 0-.115.205c.024.063.062.046.125-.055zm7.813.014c.025-.038-.063-.22-.107-.22-.051 0-.051.064 0 .165.043.081.08.102.107.055zm-7.923-.1a.34.34 0 0 0 .051-.105l-.112-.065-.103-.059-.051.114c-.03.065-.046.126-.039.136.03.05.085.017.129-.077.026-.053.055-.09.064-.08s-.005.045-.03.082a.29.29 0 0 0-.044.11c0 .076.076.044.135-.057zm8.037.035c.008-.023-.004-.083-.026-.137-.03-.072-.053-.094-.084-.082-.052.02-.052.012 0 .145.045.114.084.138.11.074zm.12-.081c0-.045-.063-.21-.08-.21a.16.16 0 0 0-.05.022c-.049.031.04.252.093.231.02-.007.036-.027.036-.043zm-8.402-.087c.06-.177-.047-.213-.116-.042-.038.1-.038.112.001.134.061.035.078.02.116-.092zm8.517.053c.023-.022-.062-.232-.093-.232-.047 0-.052.08-.01.162s.07.102.104.07zm-8.643-.127c.036-.09.038-.12.01-.136-.057-.036-.066-.027-.095.092-.05.19.014.223.086.044zm8.76.061c.02-.033-.034-.246-.063-.246-.021.004-.04.013-.057.025-.035.02-.035.04-.004.136.035.105.088.142.123.085zm-9.805-.038c-.003-.055-.01-.11-.018-.164-.017-.125-.019-.127-.256-.263-.131-.076-.263-.136-.296-.136s-.055-.015-.052-.033c.005-.026-.058-.037-.235-.043-.267-.009-.357.006-.29.05.048.018.099.029.15.03.06.001.088.007.062.014s-.047.022-.047.033a9.69 9.69 0 0 0 .947.548c.019-.001.035-.017.035-.036zm.958-.166c.013-.07-.075-.092-.096-.024-.009.031-.013.024-.009-.018s-.01-.07-.038-.076c-.063-.012-.116.197-.063.241.03.026.045.019.067-.033s.025-.055.02-.01c-.004.033.003.066.02.094s.031.024.057-.04c.018-.043.032-.088.042-.134zm8.955.057c-.032-.158-.042-.179-.083-.164-.046.019-.048.044-.009.179.02.073.039.097.068.086s.037-.039.026-.101zm1.535-.228c.274-.156.491-.296.482-.31s.017-.025.054-.025.075-.012.084-.026-.06-.03-.17-.036c-.18-.01-.18-.01.049-.015s.362-.04.272-.07l-.083-.026c-.022-.007.032-.014.118-.016s.156-.015.156-.03c0-.038-.62-.035-.643.004-.011.016-.001.04.018.053.026.017-.001.024-.08.024-.07 0-.11.011-.1.028s-.001.027-.026.027a4.37 4.37 0 0 0-.745.405c-.035.044-.048.309-.017.34.023.02.014.026.631-.327zm-11.328.258l-.005-.146c-.004-.075-.015-.096-.054-.088a.06.06 0 0 0-.046.057l.008.145c.004.077.015.096.053.088.026-.006.045-.029.045-.056zm9.916-.098c0-.125-.031-.175-.092-.151-.046.017-.046.07 0 .234.024.084.092.022.092-.083zm-9.777.077c.009-.014.027-.02.042-.013s.04.008.06-.005c.041-.026.106-.03.143-.006.053.033.174.052.189.03a.66.66 0 0 0 .031-.14c.017-.105.015-.116-.033-.107-.033.008-.057.043-.07.105l-.018.096.005-.109c.004-.084-.008-.11-.044-.118s-.048.01-.05.054c0 .062 0 .062-.022-.004-.013-.04-.037-.064-.059-.059a.31.31 0 0 1-.101.008c-.048-.002-.061.013-.065.072s-.005.065-.014.012c-.008-.038-.033-.06-.065-.06-.042 0-.053.018-.053.092 0 .051.008.114.016.138.019.047.081.057.107.014zm10.509-.116c-.008-.11-.018-.143-.055-.15s-.048.01-.048.125c0 .14.013.169.073.169.028 0 .036-.035.03-.144zm-.568-.027c0-.138-.03-.191-.09-.167-.083.03-.048.282.04.282.042 0 .05-.02.05-.115zm.42.031c.01-.044.016-.089.018-.134 0-.06-.085-.094-.115-.048s-.029.224-.005.25c.042.04.086.01.101-.068zm-.31-.079c0-.12-.007-.136-.057-.136-.042 0-.053.013-.042.044.011.044.017.09.016.136 0 .064.013.094.042.094s.04-.035.04-.138zm.158-.007c.008-.126.005-.133-.055-.124-.05.008-.065.03-.072.1-.01.121.014.174.07.163.037-.007.051-.04.057-.14zM2.39 8.984c.036-.014-.037-.023-.212-.025-.16 0-.264.009-.264.025 0 .034.398.034.476 0zm-.129-.091c.04-.043-.042-.057-.274-.05-.265.01-.302.019-.237.062.042.028.48.017.511-.012zm-.19-.094c.074-.026-.03-.059-.198-.063-.162-.005-.162-.005-.042-.022.08-.01.11-.024.088-.038-.048-.031-.605-.057-.605-.028 0 .035.138.09.23.094.046 0 .068.007.05.015s-.028.025-.019.04c.017.026.423.028.497.002zm13.698-.085c0-.014-.045-.03-.103-.037-.07-.007-.047-.012.068-.014.167-.006.278-.06.12-.06-.138 0-.12-.049.024-.07.075-.008.136-.025.136-.036a.67.67 0 0 0-.156-.1l-.416-.218-.723-.38-.517-.278c-.032-.021-.068-.033-.106-.037-.048 0-.052.015-.037.154.002.06.014.12.038.175.011.011.319.177.683.37l.66.349-.08.05-.17.103-.088.053h.332c.192 0 .335-.011.335-.024zM2.18 8.484l.469-.257c.686-.368.637-.331.673-.493.026-.12.026-.147-.008-.158-.02-.01-.327.142-.682.335l-.927.502-.3.169c-.01.01.11.02.273.02h.29zm1.637-.653c.007-.086 0-.1-.048-.1s-.057.018-.059.088l-.004.088-.016-.094c-.019-.1-.085-.147-.088-.064-.004.044-.005.046-.017.001-.007-.025-.024-.047-.037-.047s-.031-.003-.046-.008-.03.03-.038.076c-.019.079-.02.079-.015-.013.004-.068-.007-.097-.039-.105s-.05.02-.06.094c-.019.116-.019.117.053.13a.95.95 0 0 1 .1.03c.036.015.047.005.049-.044 0-.06.008-.054.038.05.008.02.054.03.114.027.1-.005.105-.011.113-.109zm.145 0c.004-.082.005-.082.017-.012.008.053.027.075.066.075.05 0 .053-.013.035-.116-.022-.143-.028-.147-.085-.1-.027.021-.061.032-.096.03-.042-.007-.049.01-.049.101s.009.113.053.113.057-.02.06-.09zm9.674-.082c-.013-.13-.077-.127-.077.005 0 .089.009.107.044.094.027-.01.039-.044.033-.1zm-9.44-.02c-.017-.13-.035-.157-.076-.116s0 .226.05.226c.033 0 .039-.024.026-.112zm9.182.05c.03-.11.02-.185-.024-.185-.022 0-.04.017-.04.037s-.007.076-.016.123c-.015.065-.01.085.024.085.022 0 .048-.028.057-.06zm.135-.029c.013-.086-.017-.158-.052-.122a.34.34 0 0 0-.03.114c-.016.13.061.137.082.008zm.265-.02c0-.079-.011-.11-.04-.11s-.041.031-.041.11.01.109.04.109.04-.03.04-.109zm.104-.023c.005-.089 0-.113-.035-.113s-.042.03-.042.125c0 .16.064.151.077-.012zm-9.54.055c-.002-.074-.065-.225-.091-.215-.031.01-.035.152-.007.23.013.032.097.02.097-.015zm8.93-.072c.018-.12.007-.179-.035-.179-.028 0-.09.243-.072.274.039.065.09.02.107-.095zm.745-.004c.007-.086-.028-.163-.067-.14s-.009.243.028.23c.019-.005.035-.046.039-.09zm-9.56.028c.016-.019-.03-.175-.063-.212-.05-.055-.075.011-.047.118.025.1.068.136.11.094zm8.684-.107c.016-.066.022-.129.015-.136-.042-.042-.085 0-.112.107-.039.156-.039.152.02.152.037 0 .057-.033.077-.123zm-8.556.024c0-.003-.018-.057-.041-.118-.03-.071-.058-.102-.083-.092-.048.019-.048.043 0 .159.028.068.052.09.082.079.023-.01.042-.02.042-.026zm8.43-.108c.023-.11 0-.17-.054-.135-.015.01-.03.044-.03.078s-.01.077-.025.099-.015.053.005.077c.04.048.075.01.105-.12zm-8.312.053a.38.38 0 0 0-.116-.228c-.05 0-.055.05-.014.147.038.09.088.123.13.08zm8.175-.109c.03-.104.03-.129 0-.149-.047-.027-.065-.01-.102.1-.028.082-.004.176.046.176.014 0 .039-.057.057-.126zm-8.046.013c0-.055-.086-.187-.123-.187-.08 0-.072.066.022.211.022.035.101.017.101-.024zm7.907-.055c.04-.116.038-.186-.008-.186s-.137.208-.113.247c.033.053.09.024.12-.06zM4.94 7.414c0-.08-.08-.202-.122-.186-.05.02-.05.015.005.133.046.097.117.13.117.053zm7.673-.08c.037-.102.037-.124.004-.152s-.046-.014-.08.066c-.049.118-.05.135-.009.177s.039.048.085-.09zm-7.599-.082c-.026-.052-.055-.095-.068-.095-.053 0-.055.04 0 .143.04.079.062.101.084.079s.018-.057-.015-.127zm7.47.024c.041-.098.037-.173-.01-.173-.031 0-.118.217-.1.249.032.047.071.02.111-.076zm-7.299.031c-.012-.037-.028-.073-.046-.108-.042-.09-.118-.133-.118-.068 0 .059.087.189.126.189.022 0 .038-.006.038-.013zm7.175-.103c.058-.095.058-.138-.004-.15-.037-.008-.107.128-.107.207 0 .06.055.032.11-.057zm-7.07.039c.028-.019.024-.044-.024-.124-.062-.104-.099-.122-.123-.06-.016.04.059.208.092.206.012 0 .035-.01.055-.022zm6.952-.098c.042-.09.035-.18-.015-.18-.033 0-.12.215-.099.249.031.047.068.025.112-.069zm-6.81.01c0-.052-.092-.19-.127-.19-.059 0-.063.044-.01.133.053.082.137.118.137.057zm6.683-.081c.053-.105.053-.162 0-.162-.016 0-.053.05-.084.112-.046.092-.05.118-.02.136.02.013.039.024.042.024s.031-.05.063-.11zm-6.566.039c.01-.01-.007-.065-.036-.122-.037-.072-.067-.1-.096-.09-.05.02-.05.015.005.132.044.09.086.118.127.08zm6.428-.1c.105-.17.033-.226-.077-.057-.052.08-.057.103-.028.122.05.033.046.035.105-.065zm-6.3-.002c0-.057-.126-.19-.159-.17-.048.029.065.237.118.216.022-.007.04-.03.04-.046zm6.191-.079c.057-.092.06-.132.008-.149-.027-.011-.143.16-.143.212 0 .059.086.018.136-.063zm-6.069.033c.024-.037-.088-.19-.138-.19s-.05.047.017.139c.061.083.094.097.121.051zm5.944-.09c.083-.109.087-.127.022-.127-.041 0-.14.135-.14.194 0 .05.052.021.118-.067zm-5.82.019c-.019-.041-.043-.079-.072-.113-.092-.121-.154-.079-.066.046.053.074.138.116.138.067zm5.712-.083c.044-.066.059-.112.042-.129-.046-.046-.213.143-.176.202.029.048.064.03.134-.073zm-5.62.026c.007-.013-.022-.063-.063-.114-.092-.111-.13-.076-.052.047.054.087.089.107.114.067zm5.495-.107c.092-.14.035-.179-.074-.048-.046.057-.077.112-.07.125.03.046.082.018.144-.077zm-5.378.051c.022-.015.008-.05-.046-.115s-.088-.087-.106-.067-.011.055.031.114c.066.096.072.1.121.068zm5.27-.12c.049-.06.056-.09.034-.111s-.051-.008-.112.062c-.094.11-.101.136-.035.134.026-.001.078-.038.112-.084zm-5.126.04a.48.48 0 0 0-.08-.116c-.062-.074-.088-.089-.112-.065s-.018.052.032.116c.058.073.162.116.16.065zm5.059-.2c-.039-.036-.217.148-.19.192.015.024.052.002.118-.065s.09-.106.072-.126zm-4.962.137c.02-.033-.095-.186-.143-.19s-.042.065.022.146.094.088.121.044zm4.791-.072c.094-.09.096-.123.01-.164-.062-.027-.082-.02-.172.05l-.114.092c-.005.007.01.02.036.03.032.013.078-.011.14-.074.052-.05.094-.077.094-.059s-.031.053-.068.083c-.072.057-.09.114-.035.114.019 0 .066-.033.109-.072zm-4.67-.02c0-.018-.036-.068-.08-.11-.07-.07-.083-.074-.1-.032-.01.031.01.074.06.126.073.078.12.084.12.016zm4.473-.1c.052-.044.087-.086.076-.095-.043-.044-.258.096-.226.147.027.044.045.039.15-.051zm-4.379.034c.023-.037-.138-.177-.174-.155-.023.013-.007.044.044.098.079.083.106.095.13.057zm4.29-.116c.08-.051.1-.107.036-.107-.05 0-.217.114-.202.138.022.039.064.031.165-.031zm-4.18.007a.49.49 0 0 0-.187-.17c-.035 0-.01.071.044.13.06.062.116.08.142.04zm4.089-.088c.06-.037.09-.072.081-.096-.018-.05-.014-.05-.13.019-.096.057-.113.08-.08.114.026.025.023.025.129-.037zm-4.096-.1c-.077-.064-.141-.08-.141-.038 0 .014.038.057.088.095.112.089.164.034.054-.057zm4.033-.027c.045-.026.081-.062.081-.083 0-.04-.033-.046-.07-.011-.028.02-.06.034-.093.042-.048.014-.037 0 .033-.038.057-.031.103-.074.103-.096 0-.053-.024-.051-.13.013-.094.059-.096.062-.07.158.018.074.044.075.148.015zM6.822 6.11c0-.018-.048-.06-.105-.094-.086-.048-.11-.053-.121-.022-.015.04.035.096.13.147.061.034.096.02.096-.03zm.04-.097c.019-.03-.138-.138-.197-.138s-.036.047.056.106c.099.065.12.068.141.032zm3.796-.085c.088-.055.12-.108.066-.108s-.193.097-.193.13c0 .046.02.042.127-.022zm-3.216-.315l.588-.336c.014-.013.019-.083.015-.155l-.01-.134-.03.096c-.03.088-.031.09-.033.022-.004-.107-.055-.124-.076-.024-.013.068-.024.077-.053.053s-.044-.016-.063.033-.027.054-.027.019c-.004-.05-.057-.07-.057-.022 0 .016-.019.027-.04.027s-.043.013-.043.03-.01.022-.024.013-.09.02-.171.062l-.785.464c0 .014.213.165.235.169a31.43 31.43 0 0 0 .574-.317zm3.209.177c.156-.098.167-.083-.215-.283L9.7 5.111c-.886-.478-.943-.504-.971-.461a.35.35 0 0 0-.018.156l.008.118.503.272.819.44.368.202c.073.051.092.047.242-.048zm-2.498-.728c.004-.094-.003-.17-.018-.17-.035 0-.048.049-.055.216-.005.11 0 .143.03.134.023-.007.038-.072.043-.18zm.107-.04c.012-.144-.031-.176-.057-.043s-.02.193.015.18c.018-.005.036-.068.042-.138zm.096-.054c.013-.16.01-.17-.031-.145-.035.022-.039.288-.004.288.012 0 .029-.064.034-.143zm.164.044c.038-.013.047-.05.047-.178 0-.17-.051-.207-.057-.043 0 .076-.005.08-.02.026-.031-.112-.072-.066-.081.092-.005.118 0 .15.028.136l.082-.033zm.154-.215c-.004-.197-.06-.188-.073.009-.005.112 0 .142.033.142s.04-.033.04-.151zm2.369 6.518a1.56 1.56 0 0 1-.074-.164c0-.031.08-.007.146.044.082.066.088.055.03-.057-.032-.062-.034-.08-.007-.08.018 0 .075.073.125.163.072.132.081.164.044.164a.27.27 0 0 1-.114-.056c-.086-.068-.11-.05-.051.04.053.082.055.097.009.097-.019 0-.069-.067-.109-.151zm-5.284.092c-.072-.028-.164-.102-.164-.13 0-.012.039-.077.085-.146.094-.144.15-.158.272-.072.1.07.1.11.004.245-.088.125-.107.136-.197.103zm.108-.157c.04-.075.035-.138-.013-.138s-.134.124-.11.162c.027.046.092.033.123-.024zm5.49-.01l-.101-.162c-.046-.07-.046-.072.04-.116.098-.052.146-.034.065.025-.04.03-.044.046-.019.072s.043.026.076-.002c.026-.02.04-.024.04-.005s-.01.036-.026.046c-.033.02-.035.07-.004.12.019.027.037.029.081.005s.06-.024.06.005-.105.101-.15.101c-.025-.027-.045-.057-.062-.09zm-6.014-.076c-.057-.03-.103-.064-.103-.076 0-.049.039-.055.116-.014.06.03.089.035.112.01s.014-.045-.044-.086c-.083-.06-.096-.134-.031-.187.035-.03.062-.026.164.024.134.064.143.127.013.077-.11-.04-.129-.011-.044.071.068.07.07.122.008.203-.035.046-.068.042-.19-.022zm6.213-.134c-.074-.074-.127-.142-.118-.151.022-.022.13.037.13.07 0 .014.014.025.028.025s.022-.034.011-.095c-.022-.114.001-.118.107-.02l.079.075-.02-.123c-.026-.168.022-.11.077.095.053.19.022.263-.063.151-.058-.077-.1-.06-.057.022.074.14-.014.114-.174-.05zm-6.529-.068c-.037-.039-.094-.069-.13-.069-.104 0-.078-.044.1-.165.225-.153.254-.136.179.109a.8.8 0 0 1-.072.193c-.029-.018-.055-.041-.077-.068zm.065-.125c.01-.015.013-.035.005-.041-.019-.02-.102.018-.102.046 0 .033.074.03.096-.005zm6.96.036c-.062-.068-.106-.197-.088-.255.042-.13.202-.072.276.105.046.108.046.103-.005.154-.055.057-.129.055-.182-.004zm.127-.057c.019-.029-.084-.195-.12-.195-.042 0-.032.088.016.157s.08.077.104.038zm.089-.176l-.096-.17.096-.05c.114-.058.172-.027.172.093 0 .05.026.096.076.134.08.062.07.064-.105.011-.057-.018-.057-.016-.014.051.039.06.039.07.004.083-.027.012-.068-.035-.134-.152zm.102-.098c.02-.03-.06-.101-.082-.077s.009.101.042.101c.016-.001.031-.01.04-.024zm-7.803.17c-.037-.015.144-.337.19-.337a.47.47 0 0 1 .12.057c.196.121.047.351-.157.243-.04-.023-.057-.02-.07.013-.017.044-.028.047-.083.023zm.307-.122c.01-.017 0-.05-.027-.074-.043-.042-.048-.042-.085.008a.2.2 0 0 0-.04.075c0 .033.13.026.153-.009zm7.654-.092c-.08-.134-.093-.204-.038-.204a.46.46 0 0 1 .097.138c.06.107.09.136.13.125.067-.017.067.026 0 .062-.084.045-.094.037-.19-.121zm.192-.116l-.09-.154.062-.048c.045-.033.07-.039.09-.019s.017.034-.007.043-.033.03-.033.052.018.034.073.021c.072-.016.073-.016.022.024s-.048.046-.015.087c.02.026.06.04.087.033.073-.02.075.044 0 .083a.29.29 0 0 1-.084.035.79.79 0 0 1-.106-.157zm-8.626.053l-.06-.049.1-.156c.055-.087.112-.15.126-.14.04.024.031.059-.046.18-.063.101-.066.116-.026.138.024.013.042.037.042.05 0 .042-.07.031-.136-.023zm8.869-.165c-.066-.186-.072-.223-.023-.223a1.06 1.06 0 0 1 .293.284c0 .01-.022.014-.048.005-.053-.016-.123.017-.118.056.004.012-.005.027-.02.03s-.051-.064-.085-.152zm.127-.01c-.009-.019-.025-.035-.045-.043s-.025.007-.014.033c.018.05.075.06.059.01zm-9.272.023l-.098-.06.095-.148.107-.162a.34.34 0 0 1 .2.107c0 .035-.046.037-.068 0s-.096-.033-.096.013c0 .022.026.057.057.079.063.042.034.085-.03.044-.1-.064-.177.033-.082.1.053.04.075.095.035.09a.77.77 0 0 1-.12-.063zm9.391-.145c-.035-.055-.064-.114-.086-.175 0-.04.062-.028.15.03.117.077.137.068.067-.03-.035-.048-.05-.094-.035-.107s.066.043.125.136c.117.188.096.23-.063.126-.121-.08-.13-.069-.055.056.04.066.044.09.019.102s-.07-.048-.122-.138zm.368-.048c-.008-.02.004-.045.026-.053.064-.024.046-.098-.028-.098-.106 0-.152-.03-.152-.097s.093-.142.121-.096c.008.014.004.033-.01.042-.058.035-.026.068.064.068.079 0 .097.013.121.081.022.063.019.086-.018.118-.077.066-.107.075-.123.035zm-9.77-2.735c-.042-.077-.07-.101-.115-.098-.092.012-.072-.025.05-.091.078-.043.108-.05.108-.023 0 .019-.015.04-.032.047s-.009.044.028.105c.06.095.074.161.037.161-.01 0-.044-.046-.075-.101zm9.754.053a.52.52 0 0 1 .053-.11c.036-.057.05-.112.038-.156-.02-.08-.014-.081.112-.02.097.044.118.11.032.095-.026-.005-.072.035-.112.101-.063.1-.125.144-.123.09zm-9.575-.185l-.068-.124.068-.053c.027-.021.056-.039.088-.053.037 0 .022.047-.02.064-.048.019-.055.088-.01.114.016.011.042.006.06-.011s.042-.031.059-.031-.001.024-.037.051c-.077.059-.057.13.024.085s.099-.03.027.028c-.097.077-.115.07-.19-.07zm9.407.104v-.095c.006-.092-.03-.098-.087-.015-.035.054-.044.055-.06.019-.02-.052.119-.298.168-.298.018 0 .067.029.107.064.083.072.075.149-.016.175-.049.01-.07.071-.057.15 0 .011-.01.02-.024.02s-.03-.009-.032-.02zm.072-.248c0-.05-.054-.04-.064.011-.005.028.004.04.027.033s.037-.025.037-.044zm-9.17.08c.014-.076.008-.093-.065-.133-.086-.05-.112-.105-.033-.076.085.033.1.03.111-.026.02-.104.064-.113.046-.008-.017.091-.014.105.066.145.106.055.108.079.001.055-.07-.015-.081-.011-.081.037 0 .03-.014.064-.031.075-.024.013-.028-.005-.015-.068zm8.721-.041c-.04-.048-.015-.157.055-.232.09-.096.216-.066.216.052 0 .158-.186.283-.27.18zm.164-.101c.04-.077-.007-.125-.066-.065-.024.022-.039.051-.044.083 0 .06.075.048.11-.018zm-8.646-.063c-.06-.245-.02-.268.164-.095.066.06.097.104.068.095-.06-.02-.19.055-.165.094.009.014.005.028-.01.028s-.04-.055-.056-.122zm.134-.046c0-.03-.077-.065-.097-.046-.008.007-.005.033.004.057.016.044.094.035.094-.011zm8.063.063c-.009-.017.015-.096.055-.179l.074-.149.09.043c.112.055.129.097.066.174-.042.052-.06.057-.114.033s-.072-.02-.11.037c-.026.039-.051.055-.061.04zm.241-.2c-.024-.038-.087-.028-.103.016-.01.022 0 .044.016.051.043.015.105-.035.087-.066zm-8.151.014c-.088-.155-.088-.158-.001-.197.127-.057.176-.027.176.109 0 .029.02.058.04.068s.041.027.041.042-.02.02-.047.01l-.087-.036c-.027-.01-.033 0-.022.044.03.109-.03.087-.1-.04zm.105-.123c-.024-.037-.094-.028-.094.012 0 .02.007.045.017.056.026.024.095-.037.077-.068zm7.63.21c-.093-.052-.095-.058-.036-.17.099-.186.095-.184.19-.134.047.024.086.057.086.072 0 .033-.019.033-.081-.002-.037-.019-.057-.017-.07.003-.019.028.016.065.08.087.015.005.017.024.004.042-.014.026-.029.028-.059.004-.024-.019-.057-.024-.086-.013-.044.016-.042.022.015.068.1.08.075.107-.043.042zm-7.444-.24a.55.55 0 0 1-.063-.15c0-.041.046-.045.068-.008.03.046.065.032.073-.031.005-.033.024-.065.045-.07s.028.005.005.06c-.037.097-.04.087.075.152l.103.055-.12-.017c-.11-.016-.115-.015-.09.037s.02.088-.02.088c-.032-.034-.059-.073-.077-.116zm7.146.085c-.018-.018-.022-.06-.007-.116l.039-.162c.027-.121.08-.057.059.074l-.019.11.078-.073c.073-.072.143-.098.143-.056 0 .024-.222.254-.246.254-.01 0-.03-.015-.047-.031zm-.237-.122c-.025-.018-.051-.033-.079-.045s.112-.293.147-.293c.054 0 .162.066.162.1 0 .043-.015.045-.083.009s-.106.022-.044.068.055.072-.024.051-.094.033-.022.085c.024.018.033.04.018.048s-.047-.002-.075-.023zm-6.57-.044c-.038-.1-.05-.288-.021-.307s.267.166.272.21c0 .011-.033.02-.075.02a.14.14 0 0 0-.12.06c-.031.05-.04.052-.055.017zm.117-.114c-.01-.017-.024-.032-.04-.044-.034-.027-.041-.025-.041.011 0 .024.018.045.04.045s.04-.006.04-.012zm6.227.046c-.018-.007-.026-.03-.016-.051.007-.028.005-.058-.004-.085-.015-.04-.022-.038-.061.017-.026.038-.053.051-.068.035s.005-.078.058-.162c.093-.147.124-.155.241-.064.056.04.061.057.033.106-.016.033-.045.059-.065.059s-.048.035-.061.079-.039.072-.057.066zm.101-.237c-.002-.024-.018-.044-.04-.053s-.043-.011-.043-.006a.33.33 0 0 1-.016.053c-.01.032 0 .045.042.045.032 0 .057-.019.057-.039zm-6.207.05c-.09-.153-.063-.204.07-.135.101.052.125.04.085-.036-.037-.068-.037-.087-.005-.087.014 0 .057.055.093.125.081.144.051.18-.086.109-.114-.059-.122-.056-.074.039.07.132-.004.121-.083-.016zm5.804.022c-.024-.007-.025-.026-.005-.064.052-.095-.053-.155-.105-.061-.014.023-.038.037-.055.025a.52.52 0 0 1 .156-.288c.044 0 .054.035.023.084-.026.043-.026.06.007.08s.053.01.09-.034c.03-.035.059-.047.073-.033a.45.45 0 0 1-.184.29zM6.018 6.13c-.006-.054-.016-.108-.03-.16-.03-.077.074-.059.19.033s.148.17.053.133c-.021-.008-.07.014-.106.053-.024.025-.05.047-.077.068-.016-.041-.026-.084-.03-.127zm.113-.06c-.05-.049-.081-.032-.057.03.008.024.034.037.058.028.035-.012.035-.02-.001-.059zm4.967.02c-.028-.015-.04-.04-.031-.055s.029-.015.055.005c.048.04.086.01.042-.035-.086-.086 0-.2.13-.17.1.021.111.067.016.067-.072 0-.09.05-.038.103.024.024.024.04 0 .074-.041.047-.104.051-.174.01z"/></svg>