<?xml version="1.0" encoding="utf-8"?>
<!-- Generator: Adobe Illustrator 25.0.1, SVG Export Plug-In . SVG Version: 6.00 Build 0)  -->
<svg version="1.1" id="Layer_1" xmlns="http://www.w3.org/2000/svg" xmlns:xlink="http://www.w3.org/1999/xlink" x="0px" y="0px"
	 viewBox="0 0 32 32" style="enable-background:new 0 0 32 32;" xml:space="preserve">
<style type="text/css">
	.st0{opacity:0.99;fill:#0EFFFD;stroke:#000000;enable-background:new    ;}
	.st1{fill:#67A7C4;stroke:#000000;stroke-width:2.6086;stroke-linecap:round;stroke-linejoin:round;stroke-miterlimit:2.6086;}
	.st2{stroke:#000000;stroke-width:2.6086;stroke-linecap:round;stroke-linejoin:round;stroke-miterlimit:2.6086;}
	.st3{fill:#67A7C4;stroke:#67A7C4;stroke-width:1.304;stroke-linecap:round;stroke-linejoin:round;}
	.st4{stroke:#67A7C4;stroke-width:1.304;stroke-linecap:round;stroke-linejoin:round;}
	.st5{fill:none;stroke:#67A7C4;stroke-width:1.3043;stroke-linecap:round;stroke-linejoin:round;stroke-miterlimit:2.6086;}
	.st6{font-family:'Arial-BoldMT';}
	.st7{font-size:10.1125px;}
</style>
<circle class="st0" cx="16" cy="16" r="15"/>
<g>
	<g transform="translate(.004 5.979) scale(.65216)">
		<path class="st1" d="M24.5,18.5v14"/>
		<path class="st2" d="M19.5,21.5h10"/>
		<path class="st2" d="M15.5,29.5c2,6,16,6,18,0C31.5,33.5,17.5,33.5,15.5,29.5"/>
		<circle class="st2" cx="24.5" cy="16.5" r="2"/>
	</g>
	<g>
		<path class="st3" d="M16,18.1v9.1"/>
		<path class="st4" d="M12.7,20h6.5"/>
	</g>
	<g transform="translate(.004 5.979) scale(.65216)">
		<path class="st5" d="M15.5,29.5c2,6,16,6,18,0C31.5,33.5,17.5,33.5,15.5,29.5"/>
		<circle class="st5" cx="24.5" cy="16.5" r="2"/>
	</g>
</g>
<text transform="matrix(1 0 0 1 5.8826 13.4268)" class="st6 st7">L.20</text>
</svg>
