<svg xmlns="http://www.w3.org/2000/svg" style="width:.52in;height:.52in" viewBox="-26 -26 52 52"><defs><clipPath id="a"><circle r="25"/></clipPath></defs><circle fill="#eb6f0e" r="25"/><g stroke-width="6.25" stroke="#0a0a0a" fill="none"><path clip-path="url(#a)" d="M-19-25a25 37.5 0 0 1 0 50M19-25a25 37.5 0 0 0 0 50"/></g><path clip-path="url(#a)" fill="#0a0a0a" d="M-3.125-50h6.25V50h-6.25z"/><path clip-path="url(#a)" stroke="#110a0c" fill="#fff" d="M-50-10H50v20H-50z"/><g style="font-style:normal;font-variant:normal;font-weight:700;font-stretch:normal;font-size:20px;font-family:Bitter;-inkscape-font-specification:'Bitter Bold';font-variant-ligatures:normal;font-variant-caps:normal;font-variant-numeric:normal;font-variant-east-asian:normal;text-anchor:middle;fill:#0a0a0a;stroke:none;stroke-width:.5" aria-label="BB"><path style="font-style:normal;font-variant:normal;font-weight:700;font-stretch:normal;font-size:20px;font-family:Bitter;-inkscape-font-specification:'Bitter Bold';font-variant-ligatures:normal;font-variant-caps:normal;font-variant-numeric:normal;font-variant-east-asian:normal;text-anchor:middle;fill:#0a0a0a;stroke:none;stroke-width:.5" d="m-7.864-7.225-4.6.1v1.7l1.5.6v9.4l-1.5.6v1.7h6.36c3.24 0 5.2-1.2 5.2-4.14 0-1.54-.98-2.66-2.86-3.2 1.58-.5 2.4-1.56 2.4-3.3 0-2.36-1.8-3.46-4.4-3.46zm0 5.76v-3.36h1.7c.96 0 1.7.46 1.7 1.5 0 1.24-.78 1.86-2.24 1.86zm0 5.94V.635h1.16c1.8 0 2.64.64 2.64 2.1 0 1.1-.74 1.74-2.14 1.74zM5.3-7.225l-4.6.1v1.7l1.5.6v9.4l-1.5.6v1.7h6.36c3.24 0 5.2-1.2 5.2-4.14 0-1.54-.98-2.66-2.86-3.2 1.58-.5 2.4-1.56 2.4-3.3 0-2.36-1.8-3.46-4.4-3.46zm0 5.76v-3.36H7c.96 0 1.7.46 1.7 1.5 0 1.24-.78 1.86-2.24 1.86zm0 5.94V.635h1.16c1.8 0 2.64.64 2.64 2.1 0 1.1-.74 1.74-2.14 1.74z"/></g><circle r="25" fill="none" stroke="#000"/></svg>