<svg xmlns="http://www.w3.org/2000/svg" style="width:.52in;height:.52in" viewBox="-26 -26 52 52"><defs><clipPath id="a"><circle r="25"/></clipPath></defs><circle fill="#baa4cb" r="25"/><path clip-path="url(#a)" fill="#4d2674" d="M-19.919-11.5 0 23l19.919-34.5z"/><path clip-path="url(#a)" fill="#9a9a9d" d="M-19.919 11.5 0-23l19.919 34.5z"/><g style="font-style:normal;font-variant:normal;font-weight:700;font-stretch:normal;font-size:18px;font-family:Bitter;-inkscape-font-specification:'Bitter Bold';font-variant-ligatures:normal;font-variant-caps:normal;font-variant-numeric:normal;font-variant-east-asian:normal;text-anchor:middle;fill:#0a0a0a;stroke:none;stroke-width:.5" aria-label="CB"><path style="font-style:normal;font-variant:normal;font-weight:700;font-stretch:normal;font-size:18px;font-family:Bitter;-inkscape-font-specification:'Bitter Bold';font-variant-ligatures:normal;font-variant-caps:normal;font-variant-numeric:normal;font-variant-east-asian:normal;text-anchor:middle;fill:#0a0a0a;stroke:none;stroke-width:.5" d="M-2.54-2.453h1.764l.09-3.42s-2.016-.846-4.194-.846c-3.69 0-6.066 2.52-6.066 6.75 0 4.176 2.106 6.372 5.76 6.372 2.826 0 4.716-1.962 4.716-1.962l-.99-1.62s-1.62 1.26-3.42 1.26c-1.89 0-3.06-1.224-3.06-4.14 0-3.006 1.08-4.41 2.97-4.41 1.17 0 2.016.288 2.016.288zM4.858-6.503l-4.14.09v1.53l1.35.54v8.46l-1.35.54v1.53h5.724c2.916 0 4.68-1.08 4.68-3.725 0-1.386-.882-2.394-2.574-2.88 1.422-.45 2.16-1.404 2.16-2.97 0-2.124-1.62-3.114-3.96-3.114zm0 5.184v-3.024h1.53c.864 0 1.53.414 1.53 1.35 0 1.116-.702 1.674-2.016 1.674zm0 5.346V.571h1.044c1.62 0 2.376.576 2.376 1.89 0 .99-.666 1.567-1.926 1.567z"/></g><circle r="25" fill="none" stroke="#000"/></svg>