<svg xmlns="http://www.w3.org/2000/svg" style="width:.52in;height:.52in" viewBox="-26 -26 52 52"><defs><clipPath id="a"><circle r="25"/></clipPath></defs><circle fill="#9a9a9d" r="25"/><path clip-path="url(#a)" fill="#fff" d="M-50-50H50V0H-50z"/><path clip-path="url(#a)" fill="#9a9a9d" d="M-50 0H50v50H-50z"/><g fill="#0a0a0a"><path clip-path="url(#a)" d="M-50-18.5H50v6H-50zM-50 12.5H50v6H-50z"/></g><path clip-path="url(#a)" stroke="#110a0c" fill="#fff" d="M-50-9H50V9H-50z"/><g style="font-style:normal;font-variant:normal;font-weight:700;font-stretch:normal;font-size:20px;font-family:Bitter;-inkscape-font-specification:'Bitter Bold';font-variant-ligatures:normal;font-variant-caps:normal;font-variant-numeric:normal;font-variant-east-asian:normal;text-anchor:middle;fill:#110a0c;stroke:none;stroke-width:.5" aria-label="Gt"><path style="font-style:normal;font-variant:normal;font-weight:700;font-stretch:normal;font-size:20px;font-family:Bitter;-inkscape-font-specification:'Bitter Bold';font-variant-ligatures:normal;font-variant-caps:normal;font-variant-numeric:normal;font-variant-east-asian:normal;text-anchor:middle;fill:#110a0c;stroke:none;stroke-width:.5" d="M-1.315-2.925h1.86l.1-3.6s-2.24-.94-4.66-.94c-4.1 0-6.74 2.8-6.74 7.5 0 4.64 2.34 7.08 6.4 7.08 3.38 0 5.44-1.34 5.44-1.34v-4.08l1.36-.46v-1.74l-5.76.1v1.64l1.5.46v2.52s-1.16.36-2.2.36c-2.14 0-3.4-1.4-3.4-4.64 0-3.34 1.2-4.9 3.34-4.9 1.32 0 2.26.32 2.26.32zM10.945 4.315c-.26.14-1.04.46-1.58.46-.84 0-1.06-.52-1.06-1.8v-4.4h2.8v-2.2h-2.8v-3.3l-3 .54v2.76l-1.86.26v1.94h1.86v4.6c0 2.3.66 3.9 2.96 3.9 1.3 0 2.42-.52 3.4-1.24z"/></g><circle r="25" fill="none" stroke="#000"/></svg>