<svg xmlns="http://www.w3.org/2000/svg" style="width:.52in;height:.52in" viewBox="-26 -26 52 52"><defs><clipPath id="a"><circle r="25"/></clipPath></defs><circle fill="#008f4f" r="25"/><path clip-path="url(#a)" stroke-linecap="round" stroke-width="3.125" stroke="#fbf4de" fill="none" d="m2.063 0 .024.036.024.038.023.038.023.039.021.04.021.04.02.042.02.042.019.043.018.043.017.045.016.045.015.046.014.046.014.047.012.048.012.048.01.05.01.049.009.05.007.05.007.052.005.052.004.052.004.053.002.053v.162l-.003.055-.004.055-.004.055-.006.055-.008.056-.008.056-.01.056-.01.057-.013.056-.013.057-.015.057-.015.057-.018.057-.018.056-.02.057-.02.057-.023.057-.024.057-.025.056-.026.056-.028.057-.028.056-.03.055-.032.056L2 2.753l-.034.055-.035.054-.037.054-.038.054-.04.053-.04.053-.042.052-.043.052-.045.05-.046.051-.047.05-.048.05-.05.048-.05.048-.052.047-.053.047-.055.045-.055.045-.057.044-.058.043-.06.042-.06.041-.061.04-.063.04-.063.038-.065.038-.066.036-.067.035-.068.034-.068.033-.07.031-.071.03-.072.03-.073.028-.073.027L0 4.296l-.075.024-.077.023-.077.022-.078.02-.078.018-.08.018-.08.016-.08.014-.082.013-.082.011-.083.01-.083.009-.084.006-.084.006-.085.003-.086.002h-.172l-.086-.003-.087-.004-.087-.007-.088-.007-.088-.01-.088-.011-.088-.013-.088-.015-.089-.016-.088-.018-.089-.02-.088-.022-.089-.023-.088-.025-.089-.027-.088-.029-.088-.03-.088-.032-.088-.035-.088-.035-.087-.038-.087-.04-.086-.04-.086-.044-.086-.044-.085-.047-.085-.048-.084-.05-.083-.052-.083-.054-.082-.056-.082-.057-.08-.059-.08-.06-.08-.063-.078-.064-.077-.066-.077-.067-.076-.07-.074-.07-.074-.073-.072-.074-.072-.076-.07-.078-.07-.079-.067-.08-.067-.083-.065-.083-.064-.086-.063-.086-.062-.089-.06-.09-.058-.09-.057-.093-.056-.094-.054-.096-.053-.096-.05-.098-.05-.1-.048-.1-.046-.102-.044-.103-.043-.104-.04-.106-.04-.106-.037-.108-.035-.109-.034-.11-.032-.11-.03-.112-.027-.112L-6.53 0l-.024-.114-.022-.116-.02-.116-.017-.116-.016-.118-.013-.118-.012-.119-.009-.12-.007-.12-.005-.12-.003-.121v-.122l.001-.121.004-.123.006-.122.008-.123.011-.124.013-.123.015-.123.017-.124.02-.124.022-.124.025-.123.027-.124.029-.124.031-.123.034-.124.036-.123.038-.123.041-.122.043-.122.046-.122.048-.121.05-.121.052-.12.055-.12.058-.12.06-.118.061-.118.064-.116.067-.117.069-.115.07-.114.074-.114.076-.112.078-.111.08-.11.083-.11.084-.108.087-.107.09-.105.09-.105.094-.103.095-.101.098-.1.1-.099.101-.097.104-.095.106-.094.107-.093.11-.09.112-.09.114-.086.115-.086.118-.083.119-.082.12-.08.124-.077.124-.076.126-.074.128-.071.13-.07.131-.067.133-.065.134-.063.136-.061.137-.059.139-.056.14-.054.141-.051.143-.049.144-.047.145-.044.147-.041.147-.04.149-.036.15-.034.15-.032.151-.028L0-8.764l.153-.023.155-.02.155-.019.155-.015.157-.013.157-.01.157-.007.158-.004.159-.001.159.001.16.004.159.008.16.01.16.013.16.015.161.02.16.02.161.025.16.028.161.03.16.034.16.036.16.04.16.042.159.045.159.048.158.052.157.054.158.057.156.06.156.063.155.066.154.068.153.072.153.075.151.077.15.08.15.084.148.086.147.09.146.091.144.095.144.097.141.1.14.103.14.106.136.109.136.11.134.115.132.116.13.12.129.121.126.124.125.127.123.13.12.131.12.135.116.136.114.14.112.14.11.144.107.146.106.149.102.15.1.153.098.154.096.157.092.159.09.16.088.163.084.165.082.167.08.168.076.17.073.172.07.174.068.175.065.176.061.179.059.18.055.18.053.183.049.184.046.185.043.186.04.188.036.188.033.19.03.19.026.192.023.192.02.194.017.193.012.195.01.195.006.196.003.196-.001.197-.005.197-.007.198-.012.197-.015.198-.018.198-.022.199-.026.198-.029.198-.033.198-.036.197-.04.198-.044.197-.047.197-.05.196-.055.196-.057.195-.062.195-.065.194-.068.193-.072.192-.076.192-.08.19-.082.19-.086.188-.09.187-.093.185-.097.185-.1.183-.104.182-.107.18-.11.179-.114.177-.117.175-.12.174-.125.172-.127.17-.13.168-.134.166-.136.164-.14.162-.143.16-.146.157-.15.155-.152.153-.155.15-.158.148-.161.146-.164.142-.167.14-.17.138-.172.135-.175.132-.177.129-.18.126-.184.123-.185.12-.188.117-.19.114-.192.11-.195.108-.197.105-.2.1-.201.098-.203.094-.206.091-.208.088-.209.084-.211.08-.213.076-.215.073-.217.07-.218.066-.22.061-.22.059-.223.054-.224.05-.225.047-.226.043-.227.038-.229.035-.23.031-.23.027-.231.023-.232.018-.233.015-.234.01-.234.007-.235.003-.235-.002-.235-.006-.236-.01-.236-.015-.236-.018-.236-.023-.236-.027-.236-.03-.236-.036-.235-.04-.236-.044-.235-.048-.234-.052-.234-.057-.233-.06-.233-.065-.232-.07-.23-.073-.23-.077-.23-.082-.228-.086-.227-.09-.225-.094-.225-.099-.223-.102-.221-.107-.22-.11-.219-.115-.216-.12-.215-.122-.213-.127-.211-.13-.21-.135-.207-.139-.205-.143-.203-.146-.2-.15-.199-.154-.195-.158-.194-.161-.19-.165-.189-.169-.185-.172-.183-.176-.18-.179-.177-.183-.174-.186-.171-.19-.168-.192-.165-.196-.162-.2-.158-.202-.155-.205-.152-.209-.148-.212-.145-.214-.141-.217-.138-.22-.133-.224-.13-.225-.127-.229-.122-.23-.119-.234-.115-.236-.11-.238-.107-.24-.102-.243-.099-.245-.094-.247-.09-.249-.086-.25-.081-.254-.078-.254-.072-.257-.069-.258-.064-.26-.059-.26-.055-.263-.05-.264-.046-.265-.041-.267-.037-.267-.031-.269-.028-.269-.022-.27-.018-.271-.013-.272-.008-.273-.003-.273.001-.273.006-.274.011-.274.016-.274.02-.275.027-.274.03-.274.035-.274.04-.274.046-.274.05-.273.055-.273.06-.272.064-.271.07-.271.074-.27.08-.269.083-.268.09-.266.093-.266.099-.264.103-.263.108-.261.113-.26.117-.259.123-.256.127-.255.131-.253.137-.25.14-.25.146-.246.15-.244.155-.243.159-.24.163-.237.168-.234.172-.232.176-.23.181-.226.185-.224.19-.22.193-.218.197-.215.201-.211.206-.208.21-.205.212-.201.218-.198.22-.194.225-.191.228-.187.232-.183.235-.18.239-.175.242-.171.246-.168.248-.163.252-.16.255-.154.259-.15.26-.147.265-.142.267-.137.27-.133.272-.129.275-.123.277-.12.28-.113.282-.11.285-.105.286-.1.29-.094.29-.09.293-.085.295-.08.296-.075.299-.07.3-.064.3-.06.303-.053.304-.05.306-.043.306-.038.308-.033.308-.027.31-.022.31-.017.31-.011.311-.006h.312l.313.005.312.01.313.016.313.022.312.027.313.033.313.038.312.044.312.05.311.054.31.06.31.067.31.071.309.077.307.083.306.088.305.093.304.1.303.104.3.11.3.115.298.12.296.127.294.131.292.137.29.142.289.147.285.153.284.158.28.163.279.168.276.173.273.178.27.184.267.188.265.193.261.198.258.203.255.207.251.213.248.217.245.221.24.226.238.231.233.235.23.24.225.243.222.248.217.252.214.257.209.26.204.264.2.269.197.272.19.275.187.28.182.283.177.286.173.29.167.294.163.296.157.3.152.303.148.306.142.309.136.311.132.315.126.317.12.32.115.322.11.324.104.327.098.329.093.33.087.334.081.335.075.337.07.338.064.34.058.342.051.343.046.344.04.345.034.347.028.347.022.348.015.35.01.35.003.35-.002.35-.01.351-.014.351-.021.352-.028.351-.033.351-.04.351-.046.351-.052.35-.059.35-.065.35-.07.347-.077.348-.084.346-.09.346-.095.344-.101.343-.108.341-.114.34-.12.338-.126.337-.132.334-.138.333-.145.33-.15.33-.156.325-.161.324-.168.321-.174.319-.18.316-.184.313-.19.31-.197.307-.202.304-.208.3-.213.298-.218.294-.224.29-.23.287-.234.284-.24.279-.244.275-.25.271-.255.268-.26.263-.264.258-.27.255-.274.25-.279.245-.284.24-.288.237-.292.23-.297.227-.3.221-.306.216-.31.211-.313.206-.317.2-.321.196-.325.19-.329.184-.332.178-.335.173-.34.167-.341.162-.346.155-.348.15-.351.144-.355.138-.357.131-.36.126-.362.12-.364.112-.367.107-.37.1-.371.095-.373.087-.376.081-.377.075-.379.068-.38.062-.382.055-.383.048-.384.042-.386.034-.386.029-.387.021-.388.015-.389.008h-.39l-.389-.005-.39-.013-.39-.02-.39-.025-.39-.034-.39-.04-.389-.047-.388-.053-.389-.061-.387-.068-.387-.074-.386-.081-.385-.088-.384-.095-.382-.102-.38-.109-.38-.115-.378-.122-.376-.129-.374-.135-.372-.143-.37-.149-.367-.155-.365-.162-.363-.169-.36-.175-.357-.182-.355-.188-.351-.194-.349-.201-.345-.207-.342-.214-.338-.22-.335-.225-.331-.232-.328-.238-.324-.243-.32-.25-.315-.256-.311-.26-.307-.268-.303-.272-.298-.278-.294-.284-.288-.29-.285-.294-.279-.3-.274-.304-.269-.31-.264-.315-.258-.32-.253-.324-.248-.33-.242-.333-.237-.339-.23-.343-.226-.347-.219-.351-.213-.356-.207-.36-.201-.364-.195-.367-.188-.371-.182-.375-.176-.379-.17-.382-.162-.385-.156-.388-.15-.392-.142-.394-.136-.397-.13-.4-.122-.403-.115-.405-.108-.407-.101-.41-.094-.412-.087-.414-.08-.416-.073-.417-.065-.42-.058-.42-.05-.422-.044-.423-.036-.425-.028-.425-.021-.426-.014-.427-.006-.428.001-.428.009-.428.016-.429.024-.429.031-.428.04-.429.046-.428.054-.428.061-.427.07-.426.076-.426.084-.424.092-.424.1-.422.106-.42.114-.42.122-.418.129-.416.136-.414.144-.412.15-.41.16-.407.165-.405.173-.402.18-.4.187-.397.195-.394.201-.39.209-.389.215-.384.222-.38.23-.378.236-.374.242-.37.25-.365.256-.362.263-.358.269-.353.275-.349.282-.344.288-.34.294-.335.3-.33.307-.325.312-.32.319-.314.324-.31.33-.304.335-.298.34-.293.347-.287.351-.281.357-.275.362-.27.366-.263.372-.257.377-.25.381-.244.386-.238.39-.231.395-.225.399-.217.403-.211.407-.204.41-.197.415-.19.419-.183.422-.176.425-.169.429-.16.431-.155.435-.146.438-.139.44-.131.444-.124.445-.116.448-.108.45-.1.453-.093.454-.085.457-.077.458-.07.46-.06.46-.053.462-.045.464-.037.464-.03.465-.02.466-.012.467-.005.467.004.467.012.467.02.468.028.467.037.467.044.467.053.466.061.465.07.465.077.463.086.462.094.462.102.46.11.457.119.456.126.455.135.452.142.45.151.448.159.446.166.443.175.44.182.437.19.435.199.43.206.429.213.424.222.421.228.417.237.414.244.41.25.405.26.4.266.398.273.392.28.388.287.382.295.378.301.374.308.367.315.363.322.357.328.352.335.347.34.34.348.335.354.328.36.323.365.317.372.31.378.304.383.297.389.29.394.285.4.277.405.27.41.264.415.256.42.25.425.241.43.235.434.227.438.22.443.212.447.204.45.196.456.19.458.18.463.173.466.165.469.157.472.148.476.14.478.133.481.123.484.116.486.107.49.098.49.09.493.082.495.072.497.064.498.056.5.047.501.038.503.029.503.02.504.012.505.003.506-.007.506-.014.506-.024.506-.033.506-.042.506-.05.506-.06.505-.068.504-.077.504-.086.502-.095.502-.103.5-.113.498-.121.497-.13.495-.14.494-.147.49-.156.49-.165.486-.174.484-.182.481-.19.479-.2.475-.207.472-.217.47-.224.465-.233.462-.24.458-.25.454-.257.45-.266.446-.273.442-.281.437-.29.432-.297.428-.304.423-.312.417-.32.413-.327.407-.335.402-.341.396-.35.39-.355.385-.363.379-.37.372-.377.367-.383.36-.39.353-.396.347-.403.34-.409.334-.415.326-.42.32-.428.312-.432.305-.438.298-.444.29-.45.283-.453.274-.46.268-.464.259-.47.251-.474.244-.478.235-.483.227-.487.218-.492.21-.495.202-.5.193-.502.185-.507.176-.51.167-.513.158-.517.15-.519.14-.522.132-.525.123-.527.113-.53.104-.531.095-.534.086-.535.076-.537.068-.54.057-.54.049-.54.039L0 31.1l-.543.02-.544.01-.545.001-.544-.008-.545-.018-.545-.028-.545-.037-.545-.047-.544-.056-.544-.066-.542-.075-.542-.085-.54-.094-.54-.104-.538-.114-.536-.123-.534-.132-.533-.142-.53-.151-.528-.16-.525-.17-.523-.18-.52-.188-.517-.198-.514-.207-.51-.216-.508-.225-.503-.234-.5-.243-.496-.252-.491-.261-.488-.27-.483-.278-.478-.287-.474-.295-.469-.304-.463-.313-.459-.32-.453-.33-.448-.336-.442-.345-.437-.353-.43-.361-.425-.369-.418-.376-.412-.384-.406-.391-.398-.399-.393-.405-.385-.413-.378-.42-.371-.427-.364-.434-.357-.44-.35-.447-.34-.453-.334-.459-.326-.465-.318-.472-.31-.477-.302-.483-.294-.489-.285-.494-.277-.5-.268-.504-.26-.51-.25-.513-.242-.52-.233-.523-.223-.528-.215-.532-.206-.536-.196-.54-.187-.544-.178-.548-.168-.55-.158-.555-.15-.557-.139-.56-.13-.564-.12-.565-.11-.568-.1-.57-.09-.573-.08-.575-.07-.576-.06-.577-.05-.58-.04-.58-.03-.581-.02-.582-.01-.583.001-.583.011-.584.021-.584.031-.584.042-.584.052-.583.062-.583.072-.582.082-.58.093-.58.103-.58.113-.576.123-.576.133-.574.144-.571.153-.57.164-.567.174-.565.183-.562.194-.559.203-.556.214-.552.223-.55.233-.546.242-.542.252-.538.262-.534.271-.53.28-.525.29-.52.3-.516.308-.511.318-.506.326-.5.336-.496.344-.49.353-.483.362-.478.37-.472.38-.465.386-.46.396-.452.403-.447.412-.439.42-.432.427-.425.435-.418.443-.411.45-.403.457-.396.464-.387.472-.38.478-.372.486-.363.491-.356.499-.347.504-.338.511-.33.517-.32.523-.313.529-.303.534-.294.54-.285.545-.276.55-.266.555-.257.56-.247.564-.237.569-.228.573-.218.577-.208.582-.198.585-.188.588-.178.593-.168.595-.157.598-.147.602-.137.604-.126.607-.116.609-.105.61-.095.614-.084.615-.073.616-.063.618-.052.62-.04.62-.03.621-.02.622-.009.622.003.623.013.623.024.622.035.623.046.622.057.621.067.62.08.62.089.618.1.617.111.615.123.613.133.611.143.61.155.606.165.604.176.602.187.598.197.595.208.592.218.589.229.585.24.58.249.578.26.572.27.569.28.563.29.559.3.554.311.549.32.543.33.538.34.532.35.527.358.52.368.515.377.508.387.501.396.495.404.488.414.481.422.474.431.467.44.459.447.451.456.444.465.436.472.428.48.42.488.411.495.403.503.395.51.385.518.377.524.368.531.359.538.35.545.34.55.33.558.321.563.312.569.301.575.292.58.282.586.272.59.261.597.251.6.241.607.23.61.22.614.21.619.198.623.187.626.177.63.166.634.155.636.144.64.132.642.122.646.11.647.1.65.087.652.076.654.065.656.054.656.042.659.03.659.02.66.007.661-.004.661-.016.662-.027.661-.038.662-.05.661-.063.66-.073.66-.085.66-.097.657-.108.656-.12.655-.131.653-.143.651-.154.649-.166.646-.177.644-.188.641-.2.639-.21.635-.223.631-.233.628-.244.625-.256.62-.266.616-.278.612-.288.607-.299.602-.31.598-.32.592-.33.588-.341.581-.352.576-.361.57-.372.564-.382.558-.392.552-.401.544-.412.538-.42.532-.431.524-.44.516-.45.51-.458.501-.467.494-.476.486-.485.478-.493.47-.502.461-.51.453-.519.444-.526.435-.534.426-.542.417-.55.408-.556.398-.564.39-.572.378-.578.37-.584.36-.592.348-.598.34-.604.328-.61.319-.615.308-.622.297-.627.287-.632.275-.638.265-.642.254-.647.243-.652.231-.656.22-.66.21-.665.197-.668.186-.671.174-.675.163-.678.15-.681.14-.684.127-.686.115-.689.104-.69.091-.693.08-.695.067-.696.055-.697.043-.698.031-.7.019-.699.006-.7-.005-.7-.018-.701-.03-.7-.043-.7-.055-.7-.067-.698-.08-.697-.09-.696-.104-.695-.116-.693-.129-.69-.14-.69-.152-.686-.165-.684-.177-.68-.188-.679-.201-.675-.213-.671-.224-.668-.237-.664-.248-.66-.26-.656-.271-.651-.284-.647-.294-.642-.306-.636-.318-.632-.329-.626-.34-.62-.35-.615-.363-.608-.373-.602-.384-.596-.394-.59-.405-.582-.416-.575-.426-.568-.436-.561-.446-.553-.456-.546-.467-.537-.476-.53-.485-.521-.495-.513-.505-.504-.513-.496-.523-.486-.531-.478-.54-.468-.55-.459-.557-.45-.565-.44-.574-.429-.581-.42-.59-.41-.597-.399-.604-.39-.612-.378-.619-.368-.625-.357-.633-.346-.638-.335-.646-.324-.651-.313-.657-.302-.663-.29-.669-.278-.674-.267-.68-.255-.683-.243-.69-.232-.693-.219-.697-.207-.702-.195-.706-.183-.71-.17-.713-.158-.716-.146-.72-.133-.722-.12-.725-.108-.727-.095-.73-.083-.731-.07-.734-.057-.735-.044-.736-.03-.737-.02-.738-.005-.739.008-.74.02-.738.033-.74.047-.739.059-.738.072-.738.085-.737.098-.736.11-.734.124-.733.137-.731.15-.729.162-.726.175-.724.188-.722.2-.718.213-.715.226-.712.238-.708.25-.704.264-.7.275-.696.288-.69.3-.687.312-.682.324-.676.336-.671.348-.666.36-.66.371-.653.383-.647.395-.641.406-.635.417-.627.428-.62.44-.614.45-.606.46-.598.472-.59.482-.583.493-.574.503-.566.513-.557.523-.549.532-.54.542-.53.552-.522.561-.511.57-.503.58-.492.588-.483.597-.472.606-.463.613-.452.622-.441.63-.43.638-.42.645-.41.653-.397.66-.387.666-.375.674-.364.68-.352.687-.34.694-.328.699-.317.704-.304.711-.292.716-.28.721-.268.726-.255.73-.242.736-.23.74-.217.744-.204.747-.19.752-.179.754-.165.758-.152.761-.139.764-.125.766-.113.768-.099.77-.085.773-.072.774-.059.775-.045.776-.032.777-.018.778-.004.778.01.778.022.778.036.778.05.778.064.776.077.776.09.774.105.773.118.77.132.77.145.766.158.764.172.762.186.759.199.755.212.752.225.749.239.744.252.74.265.737.278.731.29.727.305.722.316.716.33.71.342.706.355.7.367.693.38.687.391.68.404.673.416.667.428.66.44.651.451.644.463.637.475.628.486.62.497.612.508.603.518.594.53.585.54.576.55.566.562.557.57.547.582.538.59.527.601.516.61.507.62.496.627.485.637.474.646.462.655.452.662.44.671.429.68.417.686.405.694.393.701.381.71.37.715.356.722.343.729.332.735.318.741.306.747.293.753.28.758.267.763.253.768.24.773.227.778.213.781.2.786.186.79.172.792.158.797.145.8.13.801.117.805.103.807.088.81.075.81.06.814.046.814.032.815.018.816.003.817-.01.817-.026.817-.039.817-.054.817-.068.816-.082.815-.097.814-.11.813-.125.81-.14.81-.153.807-.168.805-.182.802-.196.799-.21.796-.223.792-.238.79-.252.785-.265.78-.28.777-.293.772-.306.768-.32.762-.334.757-.347.751-.36.746-.373.74-.386.732-.4.727-.412.72-.425.713-.437.706-.45.7-.463.69-.474.683-.487.675-.499.667-.51.659-.523.65-.534.64-.545.632-.556.622-.568.613-.578.603-.59.594-.6.583-.61.573-.62.563-.63.552-.64.54-.65.53-.66.52-.67.507-.677.496-.687.485-.696.472-.704.46-.712.45-.72.436-.73.423-.735.411-.744.399-.75.386-.758.372-.765.36-.771.346-.778.333-.783.32-.79.305-.795.292-.8.279-.806.264-.81.25-.815.237-.82.222-.823.209-.828.193-.832.18-.834.164-.838.15-.841.136-.844.122-.846.106-.848.092-.85.076-.852.062-.853.048L0 48.97l-.855.017-.856.003-.856-.013-.856-.027-.856-.043-.855-.057-.855-.073-.854-.087-.853-.102-.85-.118-.85-.132-.847-.147-.845-.162-.843-.177-.84-.191-.836-.206-.834-.221-.83-.236-.826-.25-.821-.265-.818-.279-.813-.294-.808-.307-.803-.323-.798-.336-.792-.35-.786-.364-.78-.379-.774-.391-.767-.406-.76-.42-.754-.432-.746-.445-.739-.46-.73-.472-.723-.485-.714-.497-.707-.511-.697-.523-.688-.535-.68-.548-.67-.56-.66-.571-.651-.583-.64-.595-.631-.607-.62-.617-.61-.629-.599-.639-.588-.65-.576-.66-.566-.672-.554-.68-.542-.691-.53-.701-.518-.71-.506-.72-.494-.728-.48-.737-.469-.746-.455-.755-.443-.763-.429-.77-.416-.779-.402-.786-.389-.793-.375-.8-.36-.807-.348-.814-.333-.82-.32-.826-.304-.832-.29-.838-.275-.843-.261-.848-.247-.853-.23-.857-.217-.862-.202-.866-.186-.87-.172-.873-.156-.876-.14-.88-.126-.882-.11-.885-.095-.887-.08-.89-.063-.89-.048-.892-.033-.893-.017-.894-.001-.895.014-.895.03-.895.046-.895.06-.894.078-.893.092-.893.108-.891.124-.89.14-.887.154-.886.17-.883.186-.88.202-.878.216-.874.232-.87.248-.868.262-.863.278-.858.293-.855.308-.849.322-.844.338-.839.352-.833.368-.827.381-.821.396-.815.41-.808.426-.801.438-.794.453-.787.467-.779.48-.77.495-.763.508-.755.52-.746.535-.737.547-.728.56-.718.573-.71.586-.698.598-.69.61-.679.622-.668.634-.658.646-.647.657-.636.669-.625.68-.613.69-.601.701-.59.712-.578.723-.565.732-.553.742-.54.752-.527.761-.515.771-.501.78-.488.788-.475.797-.46.805-.448.813-.433.822-.42.828-.404.836-.39.844-.377.85-.361.856-.347.863-.332.869-.317.875-.302.88-.287.886-.27.89-.257.896-.24.9-.225.904-.21.908-.193.912-.178.915-.162.918-.146.92-.13.924-.113.926-.098.928-.082.93-.065.93-.05.933-.032.933-.017h.934l.934.016.934.032.933.048.933.065.933.082.93.097.93.114.928.13.926.146.924.163.921.179.919.195.915.21.912.228.908.243.904.26.9.274.895.29.891.307.886.323.88.337.874.353.869.369.862.384.856.399.85.414.842.43.835.443.828.459.82.473.811.488.804.502.795.516.786.53.777.545.768.558.758.571.749.585.739.598.728.612.718.624.707.637.697.65.685.661.674.674.662.686.65.698.639.71.626.72.614.732.601.743.589.754.575.764.563.774.549.784.535.795.522.804.508.813.493.822.48.831.465.84.45.848.437.857.42.864.407.872.391.879.376.886.36.893.345.9.33.906.313.912.298.917.281.924.266.928.25.933.233.938.217.943.2.946.185.95.168.954.15.957.135.96.118.962.1.965.084.966.067.969.05.97.034.971.016.972v.973l-.018.972-.035.973-.051.973-.069.972-.086.97-.102.97-.12.969-.136.966-.154.965-.17.962-.187.959-.205.956-.22.953-.238.95-.254.945-.27.941-.288.937-.304.932-.32.927-.336.922-.353.916-.369.91-.385.905-.4.897-.417.891-.432.884-.448.877-.463.869-.478.86-.494.854-.508.845-.524.836-.538.827-.553.818-.568.808-.581.8-.596.788-.61.779-.624.768-.637.758-.65.746-.664.736-.677.724-.69.713-.702.7-.715.689-.727.676-.739.664-.75.651-.763.638-.774.625-.785.612-.795.598-.807.585-.817.57-.827.556-.837.543-.847.527-.856.513-.866.498-.874.483-.883.468-.892.453-.9.437-.907.422-.915.406-.923.39-.93.374-.936.358-.943.342-.949.325-.955.309-.96.292-.967.276-.97.258-.977.242-.98.225-.985.208-.989.19-.992.174-.995.156-.999.138-1.001.122-1.004.104-1.005.086-1.008.069-1.009.051"/><path clip-path="url(#a)" stroke="#110a0c" fill="#fff" d="M-50-9H50V9H-50z"/><g style="font-style:normal;font-variant:normal;font-weight:700;font-stretch:normal;font-size:20px;font-family:Bitter;-inkscape-font-specification:'Bitter Bold';font-variant-ligatures:normal;font-variant-caps:normal;font-variant-numeric:normal;font-variant-east-asian:normal;text-anchor:middle;fill:#110a0c;stroke:none;stroke-width:.5" aria-label="HRB"><path style="font-style:normal;font-variant:normal;font-weight:700;font-stretch:normal;font-size:20px;font-family:Bitter;-inkscape-font-specification:'Bitter Bold';font-variant-ligatures:normal;font-variant-caps:normal;font-variant-numeric:normal;font-variant-east-asian:normal;text-anchor:middle;fill:#110a0c;stroke:none;stroke-width:.5" d="M-20.57 6.875h6.2v-1.7l-1.6-.6v-3.8h5.24v3.8l-1.6.6v1.7h6.2v-1.7l-1.5-.6v-9.4l1.5-.6v-1.8l-6.2.1v1.7l1.6.6v3.2h-5.24v-3.2l1.6-.6v-1.8l-6.2.1v1.7l1.5.6v9.4l-1.5.6zM-4.71 6.875h6.04v-1.7l-1.44-.6v-3.24h.7c1.06 0 1.24.32 1.92 1.84l1.68 3.7h3.7v-1.7l-1.36-.5-1.34-2.74c-.32-.66-.62-1.04-.84-1.3 1.36-.68 2.26-1.9 2.26-3.78 0-2.72-1.92-4.08-5.2-4.08H-.11l-4.6.1v1.7l1.5.6v9.4l-1.5.6zm4.6-7.64v-4.06h1.64c1.24 0 2 .82 2 1.96 0 1.34-.92 2.1-2.5 2.1zM13.405-7.225l-4.6.1v1.7l1.5.6v9.4l-1.5.6v1.7h6.36c3.24 0 5.2-1.2 5.2-4.14 0-1.54-.98-2.66-2.86-3.2 1.58-.5 2.4-1.56 2.4-3.3 0-2.36-1.8-3.46-4.4-3.46zm0 5.76v-3.36h1.7c.96 0 1.7.46 1.7 1.5 0 1.24-.78 1.86-2.24 1.86zm0 5.94V.635h1.16c1.8 0 2.64.64 2.64 2.1 0 1.1-.74 1.74-2.14 1.74z"/></g><circle r="25" fill="none" stroke="#000"/></svg>