<svg xmlns="http://www.w3.org/2000/svg" style="width:.52in;height:.52in" viewBox="-26 -26 52 52"><defs><clipPath id="a"><circle r="25"/></clipPath></defs><circle fill="#0a70b3" r="25"/><path clip-path="url(#a)" fill="#fff" d="M-6.25-50h12.5V50h-12.5z"/><path clip-path="url(#a)" stroke="#110a0c" fill="#fff" d="M-50-9H50V9H-50z"/><g style="font-style:normal;font-variant:normal;font-weight:700;font-stretch:normal;font-size:18px;font-family:Bitter;-inkscape-font-specification:'Bitter Bold';font-variant-ligatures:normal;font-variant-caps:normal;font-variant-numeric:normal;font-variant-east-asian:normal;text-anchor:middle;fill:#0a0a0a;stroke:none;stroke-width:.5" aria-label="MB"><path style="font-style:normal;font-variant:normal;font-weight:700;font-stretch:normal;font-size:18px;font-family:Bitter;-inkscape-font-specification:'Bitter Bold';font-variant-ligatures:normal;font-variant-caps:normal;font-variant-numeric:normal;font-variant-east-asian:normal;text-anchor:middle;fill:#0a0a0a;stroke:none;stroke-width:.5" d="M-13.204 6.188h5.13v-1.53l-1.386-.54v-6.463l.306.937 2.07 4.265 1.944-.09 2.034-4.23.486-1.188v6.768l-1.404.54v1.53H1.34v-1.53l-1.35-.54v-8.46l1.296-.54v-1.62l-4.32.09L-5.86-.509l-2.7-5.994-4.644.09v1.53l1.35.54v8.46l-1.35.54zM6.756-6.503l-4.14.09v1.53l1.35.54v8.46l-1.35.54v1.53H8.34c2.916 0 4.68-1.08 4.68-3.725 0-1.386-.882-2.394-2.574-2.88 1.422-.45 2.16-1.404 2.16-2.97 0-2.124-1.62-3.114-3.96-3.114zm0 5.184v-3.024h1.53c.864 0 1.53.414 1.53 1.35 0 1.116-.702 1.674-2.016 1.674zm0 5.346V.571H7.8c1.62 0 2.376.576 2.376 1.89 0 .99-.666 1.567-1.926 1.567z"/></g><circle r="25" fill="none" stroke="#000"/></svg>