<svg xmlns="http://www.w3.org/2000/svg" style="width:.52in;height:.52in" viewBox="-26 -26 52 52"><circle fill="#37b2e2" r="25"/><g style="font-style:normal;font-variant:normal;font-weight:700;font-stretch:normal;font-size:18px;font-family:Bitter;-inkscape-font-specification:'Bitter Bold';font-variant-ligatures:normal;font-variant-caps:normal;font-variant-numeric:normal;font-variant-east-asian:normal;text-anchor:middle;fill:#0a0a0a;stroke:none;stroke-width:.5" aria-label="MR"><path style="font-style:normal;font-variant:normal;font-weight:700;font-stretch:normal;font-size:18px;font-family:Bitter;-inkscape-font-specification:'Bitter Bold';font-variant-ligatures:normal;font-variant-caps:normal;font-variant-numeric:normal;font-variant-east-asian:normal;text-anchor:middle;fill:#0a0a0a;stroke:none;stroke-width:.5" d="M-13.362 6.188h5.13v-1.53l-1.386-.54v-6.463l.306.937 2.07 4.265 1.944-.09 2.034-4.23.486-1.188v6.768l-1.404.54v1.53h5.364v-1.53l-1.35-.54v-8.46l1.296-.54v-1.62l-4.32.09-2.826 5.904-2.7-5.994-4.644.09v1.53l1.35.54v8.46l-1.35.54zM2.458 6.188h5.436v-1.53l-1.296-.54V1.2h.63c.954 0 1.116.288 1.728 1.656l1.512 3.33h3.33v-1.53l-1.224-.45-1.206-2.466a5.23 5.23 0 0 0-.756-1.17c1.224-.612 2.034-1.71 2.034-3.402 0-2.448-1.728-3.672-4.68-3.672H6.598l-4.14.09v1.53l1.35.54v8.46l-1.35.54zM6.598-.69v-3.654h1.476c1.116 0 1.8.738 1.8 1.764 0 1.207-.828 1.89-2.25 1.89z"/></g><circle r="25" fill="none" stroke="#000"/></svg>