<svg xmlns="http://www.w3.org/2000/svg" style="width:.52in;height:.52in" viewBox="-26 -26 52 52"><g><clipPath id="a"><circle r="25"/></clipPath><circle r="25" fill="#fcea18"/><path fill="#fcea18" clip-path="url(#a)" d="M-50-50H50V0H-50z"/><path fill="#37b2e2" clip-path="url(#a)" d="M-50 0H50v50H-50z"/><path fill="#eb6f0e" clip-path="url(#a)" d="M12.941-49.296 0 0l35.355-35.355zM-12.941-49.296 0 0l-35.355-35.355z"/><path fill="#fff" stroke="#110a0c" clip-path="url(#a)" d="M-50-9H50V9H-50z"/><g style="font-style:normal;font-variant:normal;font-weight:700;font-stretch:normal;font-size:18px;font-family:Bitter;-inkscape-font-specification:'Bitter Bold';font-variant-ligatures:normal;font-variant-caps:normal;font-variant-numeric:normal;font-variant-east-asian:normal;text-anchor:middle;fill:#110a0c;stroke:none;stroke-width:.5" aria-label="MS"><path d="M-12.73 6.188h5.13v-1.53l-1.385-.54v-6.463l.306.937 2.07 4.265 1.944-.09 2.034-4.23.486-1.188v6.768l-1.404.54v1.53h5.364v-1.53l-1.35-.54v-8.46l1.296-.54v-1.62l-4.32.09-2.826 5.904-2.7-5.994-4.644.09v1.53l1.35.54v8.46l-1.35.54zM5.413 2.281H3.577v3.456s1.98.684 4.014.684c2.772 0 4.86-1.476 4.86-4.176 0-4.23-6.066-3.402-6.066-5.49 0-.72.63-1.278 1.908-1.278.774 0 1.584.27 1.584.27l.45 1.53h1.656l.09-3.276s-1.926-.72-3.96-.72c-2.61 0-4.572 1.332-4.572 3.816 0 4.446 6.084 3.51 6.084 5.616 0 .954-1.026 1.458-2.178 1.458-1.044 0-1.764-.378-1.764-.378z"/></g><circle stroke="#000" fill="none" r="25"/></g></svg>