<svg xmlns="http://www.w3.org/2000/svg" style="width:.52in;height:.52in" viewBox="-26 -26 52 52"><defs><clipPath id="a"><circle r="25"/></clipPath></defs><circle fill="#ec767c" r="25"/><circle clip-path="url(#a)" stroke-width="6.25" stroke="#fff" fill="none" r="15.625"/><path clip-path="url(#a)" stroke="#110a0c" fill="#fff" d="M-50-10H50v20H-50z"/><g style="font-style:normal;font-variant:normal;font-weight:700;font-stretch:normal;font-size:20px;font-family:Bitter;-inkscape-font-specification:'Bitter Bold';font-variant-ligatures:normal;font-variant-caps:normal;font-variant-numeric:normal;font-variant-east-asian:normal;text-anchor:middle;fill:#110a0c;stroke:none;stroke-width:.5" aria-label="PEIR"><path style="font-style:normal;font-variant:normal;font-weight:700;font-stretch:normal;font-size:20px;font-family:Bitter;-inkscape-font-specification:'Bitter Bold';font-variant-ligatures:normal;font-variant-caps:normal;font-variant-numeric:normal;font-variant-east-asian:normal;text-anchor:middle;fill:#110a0c;stroke:none;stroke-width:.5" d="M-22.347 6.875h6.1v-1.7l-1.5-.6v-2.6h1.06c3.64 0 5.7-1.64 5.7-5 0-2.6-1.8-4.2-4.86-4.2h-1.9l-4.6.1v1.7l1.5.6v9.4l-1.5.6zm4.6-7.24v-4.46h1.6c1.36 0 2.06.9 2.06 2.2 0 1.48-.94 2.26-2.6 2.26zM-1.046-1.525h-4.04v-3.3h3.3l.5 1.46h1.8v-3.86h-5.6l-4.6.1v1.7l1.5.6v9.4l-1.5.6v1.7H.754v-4.04h-1.8l-.46 1.64h-3.58v-3.8h4.04zM2.636 6.875h6.1v-1.7l-1.5-.6v-9.4l1.5-.6v-1.8l-6.1.1v1.7l1.5.6v9.4l-1.5.6zM10.231 6.875h6.04v-1.7l-1.44-.6v-3.24h.7c1.06 0 1.24.32 1.92 1.84l1.68 3.7h3.7v-1.7l-1.36-.5-1.34-2.74c-.32-.66-.62-1.04-.84-1.3 1.36-.68 2.26-1.9 2.26-3.78 0-2.72-1.92-4.08-5.2-4.08h-1.52l-4.6.1v1.7l1.5.6v9.4l-1.5.6zm4.6-7.64v-4.06h1.64c1.24 0 2 .82 2 1.96 0 1.34-.92 2.1-2.5 2.1z"/></g><circle r="25" fill="none" stroke="#000"/></svg>