<svg xmlns="http://www.w3.org/2000/svg" style="width:.52in;height:.52in" viewBox="-26 -26 52 52"><defs><clipPath id="a"><circle r="25"/></clipPath></defs><circle fill="#7bb137" r="25"/><path clip-path="url(#a)" fill="#008f4f" d="M50 0 25 43.301 0 0z"/><path clip-path="url(#a)" fill="#7bb137" d="M25 43.301h-50L0 0z"/><path clip-path="url(#a)" fill="#008f4f" d="M-25 43.301-50 0H0z"/><path clip-path="url(#a)" fill="#7bb137" d="m-50 0 25-43.301L0 0z"/><path clip-path="url(#a)" fill="#008f4f" d="M-25-43.301h50L0 0z"/><path clip-path="url(#a)" fill="#7bb137" d="M25-43.301 50 0H0z"/><path clip-path="url(#a)" stroke="#110a0c" fill="#fff" d="M-50-9H50V9H-50z"/><path style="font-style:normal;font-variant:normal;font-weight:700;font-stretch:normal;font-size:20px;font-family:Bitter;-inkscape-font-specification:'Bitter Bold';font-variant-ligatures:normal;font-variant-caps:normal;font-variant-numeric:normal;font-variant-east-asian:normal;text-anchor:middle;fill:#110a0c;stroke:none;stroke-width:.5" d="M-2.775 2.535h-2.04v3.84s2.2.76 4.46.76c3.08 0 5.4-1.64 5.4-4.64 0-4.7-6.74-3.78-6.74-6.1 0-.8.7-1.42 2.12-1.42.86 0 1.76.3 1.76.3l.5 1.7h1.84l.1-3.64s-2.14-.8-4.4-.8c-2.9 0-5.08 1.48-5.08 4.24 0 4.94 6.76 3.9 6.76 6.24 0 1.06-1.14 1.62-2.42 1.62-1.16 0-1.96-.42-1.96-.42z" aria-label="S"/><circle r="25" fill="none" stroke="#000"/></svg>