<svg xmlns="http://www.w3.org/2000/svg" style="width:.52in;height:.52in" viewBox="-26 -26 52 52"><defs><clipPath id="a"><circle r="25"/></clipPath></defs><circle fill="#b057a2" r="25"/><path clip-path="url(#a)" fill="#b057a2" d="M-50-50H0V0h-50z"/><path clip-path="url(#a)" fill="#fbf4de" d="M0-50h50V0H0zM-50 0H0v50h-50z"/><path clip-path="url(#a)" fill="#b057a2" d="M0 0h50v50H0z"/><path clip-path="url(#a)" stroke="#110a0c" fill="#fff" d="M-50-9H50V9H-50z"/><g style="font-style:normal;font-variant:normal;font-weight:700;font-stretch:normal;font-size:20px;font-family:Bitter;-inkscape-font-specification:'Bitter Bold';font-variant-ligatures:normal;font-variant-caps:normal;font-variant-numeric:normal;font-variant-east-asian:normal;text-anchor:middle;fill:#110a0c;stroke:none;stroke-width:.5" aria-label="SB"><path style="font-style:normal;font-variant:normal;font-weight:700;font-stretch:normal;font-size:20px;font-family:Bitter;-inkscape-font-specification:'Bitter Bold';font-variant-ligatures:normal;font-variant-caps:normal;font-variant-numeric:normal;font-variant-east-asian:normal;text-anchor:middle;fill:#110a0c;stroke:none;stroke-width:.5" d="M-9.357 2.535h-2.04v3.84s2.2.76 4.46.76c3.08 0 5.4-1.64 5.4-4.64 0-4.7-6.74-3.78-6.74-6.1 0-.8.7-1.42 2.12-1.42.86 0 1.76.3 1.76.3l.5 1.7h1.84l.1-3.64s-2.14-.8-4.4-.8c-2.9 0-5.08 1.48-5.08 4.24 0 4.94 6.76 3.9 6.76 6.24 0 1.06-1.14 1.62-2.42 1.62-1.16 0-1.96-.42-1.96-.42zM4.773-7.225l-4.6.1v1.7l1.5.6v9.4l-1.5.6v1.7h6.36c3.24 0 5.2-1.2 5.2-4.14 0-1.54-.98-2.66-2.86-3.2 1.58-.5 2.4-1.56 2.4-3.3 0-2.36-1.8-3.46-4.4-3.46zm0 5.76v-3.36h1.7c.96 0 1.7.46 1.7 1.5 0 1.24-.78 1.86-2.24 1.86zm0 5.94V.635h1.16c1.8 0 2.64.64 2.64 2.1 0 1.1-.74 1.74-2.14 1.74z"/></g><circle r="25" fill="none" stroke="#000"/></svg>