<svg xmlns="http://www.w3.org/2000/svg" style="width:.52in;height:.52in" viewBox="-26 -26 52 52"><defs><clipPath id="a"><circle r="25"/></clipPath></defs><circle fill="#0a0a0a" r="25" transform="rotate(45)"/><path clip-path="url(#a)" fill="#fcea18" d="M-6.25-50h12.5V50h-12.5z" transform="rotate(45)"/><path clip-path="url(#a)" stroke="#110a0c" fill="#fff" d="M-50-9H50V9H-50z"/><g style="font-style:normal;font-variant:normal;font-weight:700;font-stretch:normal;font-size:20px;font-family:Bitter;-inkscape-font-specification:'Bitter Bold';font-variant-ligatures:normal;font-variant-caps:normal;font-variant-numeric:normal;font-variant-east-asian:normal;text-anchor:middle;fill:#110a0c;stroke:none;stroke-width:.5" aria-label="So"><path style="font-style:normal;font-variant:normal;font-weight:700;font-stretch:normal;font-size:20px;font-family:Bitter;-inkscape-font-specification:'Bitter Bold';font-variant-ligatures:normal;font-variant-caps:normal;font-variant-numeric:normal;font-variant-east-asian:normal;text-anchor:middle;fill:#110a0c;stroke:none;stroke-width:.5" d="M-8.693 2.535h-2.04v3.84s2.2.76 4.46.76c3.08 0 5.4-1.64 5.4-4.64 0-4.7-6.74-3.78-6.74-6.1 0-.8.7-1.42 2.12-1.42.86 0 1.76.3 1.76.3l.5 1.7h1.84l.1-3.64s-2.14-.8-4.4-.8c-2.9 0-5.08 1.48-5.08 4.24 0 4.94 6.76 3.9 6.76 6.24 0 1.06-1.14 1.62-2.42 1.62-1.16 0-1.96-.42-1.96-.42zM6.237-4.125c-3.26 0-5.4 2.1-5.4 5.7 0 3.8 1.84 5.5 5.1 5.5 3.24 0 5.34-2.2 5.34-5.8 0-3.44-1.8-5.4-5.04-5.4zm-.1 2.4c1.44 0 2.04 1.06 2.04 3.1 0 2.4-.7 3.3-2.14 3.3-1.46 0-2.1-1-2.1-3.2 0-2.4.74-3.2 2.2-3.2z"/></g><circle r="25" fill="none" stroke="#000"/></svg>