<svg xmlns="http://www.w3.org/2000/svg" style="width:.52in;height:.52in" viewBox="-26 -26 52 52"><defs><clipPath id="a"><circle r="25"/></clipPath></defs><circle fill="#bdbd00" r="25"/><path clip-path="url(#a)" fill="#fcea18" d="M-6.25-50h12.5V50h-12.5z"/><path clip-path="url(#a)" stroke="#110a0c" fill="#fff" d="M-50-9H50V9H-50z"/><g style="font-style:normal;font-variant:normal;font-weight:700;font-stretch:normal;font-size:17px;font-family:Bitter;-inkscape-font-specification:'Bitter Bold';font-variant-ligatures:normal;font-variant-caps:normal;font-variant-numeric:normal;font-variant-east-asian:normal;text-anchor:middle;fill:#110a0c;stroke:none;stroke-width:.5" aria-label="WB"><path style="font-style:normal;font-variant:normal;font-weight:700;font-stretch:normal;font-size:17px;font-family:Bitter;-inkscape-font-specification:'Bitter Bold';font-variant-ligatures:normal;font-variant-caps:normal;font-variant-numeric:normal;font-variant-east-asian:normal;text-anchor:middle;fill:#110a0c;stroke:none;stroke-width:.5" d="m-14.309-4.611 1.19.493 2.754 9.962h2.346l1.955-6.46.408-1.615 2.227 8.075h2.414l2.907-9.945 1.224-.51v-1.53l-4.845.085v1.445l1.275.51-1.632 6.103-2.278-8.143-2.295.136-2.38 8.024-1.462-6.12 1.241-.51v-1.53l-5.049.085zM7.71-6.141l-3.91.085v1.445l1.274.51v7.99l-1.275.51v1.445h5.406c2.754 0 4.42-1.02 4.42-3.52 0-1.308-.833-2.26-2.43-2.72 1.342-.424 2.04-1.325 2.04-2.804 0-2.006-1.53-2.941-3.74-2.941zm0 4.896v-2.856h1.444c.816 0 1.445.39 1.445 1.275 0 1.054-.663 1.58-1.904 1.58zm0 5.049V.54h.985c1.53 0 2.244.544 2.244 1.785 0 .935-.629 1.479-1.819 1.479z"/></g><circle r="25" fill="none" stroke="#000"/></svg>