<svg data-name="Layer 1" xmlns="http://www.w3.org/2000/svg" width="31.1" height="27"><path fill="#b2366d" d="M23.02.56H8.08L.61 13.5l7.47 12.94h14.94l7.47-12.94L23.02.56z"/><path fill="#221f1f" d="M23.02.56v-.5H7.79L.03 13.5l7.76 13.44h15.52l7.76-13.44L23.31.06h-.29v.5l-.43.25 7.32 12.69-7.18 12.44H8.37L1.19 13.5 8.37 1.06h14.65v-.5l-.43.25.43-.25z"/><path d="M22.41 13.47H22V11.1h.24c.76 0 1.14.39 1.14 1.18a1.24 1.24 0 01-.29.86.91.91 0 01-.68.33zm2.65 4.71v-.08a2.72 2.72 0 01-.36-.61l-1.1-3a2.23 2.23 0 00.89-.91 2.92 2.92 0 00.38-1.49 2.4 2.4 0 00-.6-1.7 2 2 0 00-1.56-.65h-2.33v.09a1.3 1.3 0 01.2.64v6.94a1.36 1.36 0 01-.2.65v.08h1.81v-.04a1.46 1.46 0 01-.19-.65v-2.77h.41l1.07 3.5zm-13-8.31a1.68 1.68 0 01.22.61l1.48 7.7h.86l1-4.75 1 4.75h.84l1.66-7.82a1.87 1.87 0 01.22-.51v-.07h-1.6v.1a.6.6 0 01.06.27 1.34 1.34 0 01-.06.36L17 13.84l-.83-4.1h-.83l-.91 4.1-.72-3.42v-.24a.53.53 0 01.09-.3v-.1h-1.74zM9.2 9.78v.09a1.09 1.09 0 01.21.64v2.92L7.62 9.78H6.08v.09a1.55 1.55 0 01.15.33 1.06 1.06 0 010 .31v6.94a1.25 1.25 0 01-.22.63v.1h1.9v-.1a1.13 1.13 0 01-.21-.63v-4.38l2.66 5.11h.49v-7.67a1.41 1.41 0 01.15-.64v-.09z" fill="#fff"/><path fill="none" d="M0 0h31.1v27H0z"/></svg>