<svg id="Layer_1" data-name="Layer 1" xmlns="http://www.w3.org/2000/svg" width="31.1" height="27" viewBox="0 0 31.1 27">
  <defs>
    <style>
      .cls-1 {
        fill: #b2366d;
      }

      .cls-2 {
        fill: #221f1f;
      }

      .cls-3 {
        fill: #fff;
      }

      .cls-4 {
        fill: none;
      }
    </style>
  </defs>
  <g>
    <polygon class="cls-1" points="23.02 0.56 8.08 0.56 0.61 13.5 8.08 26.44 23.02 26.44 30.49 13.5 23.02 0.56"/>
    <polygon class="cls-2" points="23.02 0.56 23.02 0.06 7.79 0.06 0.03 13.5 7.79 26.94 23.31 26.94 31.07 13.5 23.31 0.06 23.02 0.06 23.02 0.56 22.59 0.81 29.91 13.5 22.73 25.94 8.37 25.94 1.19 13.5 8.37 1.06 23.02 1.06 23.02 0.56 22.59 0.81 23.02 0.56"/>
    <path class="cls-3" d="M22.41,13.47H22V11.1h.24c.76,0,1.14.39,1.14,1.18a1.24,1.24,0,0,1-.29.86A.91.91,0,0,1,22.41,13.47Zm2.65,4.71V18.1a2.72,2.72,0,0,1-.36-.61l-1.1-3a2.23,2.23,0,0,0,.89-.91,2.92,2.92,0,0,0,.38-1.49,2.4,2.4,0,0,0-.6-1.7,2,2,0,0,0-1.56-.65H20.38v.09a1.3,1.3,0,0,1,.2.64v6.94a1.36,1.36,0,0,1-.2.65v.08h1.81V18.1a1.46,1.46,0,0,1-.19-.65V14.68h.41l1.07,3.5Zm-13-8.31a1.68,1.68,0,0,1,.22.61l1.48,7.7h.86l1-4.75,1,4.75h.84l1.66-7.82a1.87,1.87,0,0,1,.22-.51V9.78H17.74v.1a.6.6,0,0,1,.06.27,1.34,1.34,0,0,1-.06.36L17,13.84l-.83-4.1h-.83l-.91,4.1-.72-3.42,0-.24a.53.53,0,0,1,.09-.3v-.1H12.06ZM9.2,9.78v.09a1.09,1.09,0,0,1,.21.64v2.92L7.62,9.78H6.08v.09a1.55,1.55,0,0,1,.15.33,1.06,1.06,0,0,1,0,.31v6.94a1.25,1.25,0,0,1-.22.63v.1H7.91v-.1a1.13,1.13,0,0,1-.21-.63V13.07l2.66,5.11h.49V10.51A1.41,1.41,0,0,1,11,9.87V9.78Z"/>
  </g>
  <rect class="cls-4" width="31.1" height="27"/>
</svg>
