<?xml version="1.0" encoding="UTF-8"?>
<svg xmlns="http://www.w3.org/2000/svg" xmlns:xlink="http://www.w3.org/1999/xlink" width="100px" height="100px" viewBox="0 0 100 100" version="1.1">
<g id="surface1">
<path style=" stroke:none;fill-rule:nonzero;fill:rgb(0%,0%,0%);fill-opacity:1;" d="M 88.132812 12.023438 L 11.867188 12.023438 C 5.324219 12.023438 0 17.136719 0 23.421875 L 0 76.578125 C 0 82.863281 5.324219 87.976562 11.867188 87.976562 L 88.132812 87.976562 C 94.675781 87.976562 100 82.863281 100 76.578125 L 100 23.421875 C 100 17.136719 94.675781 12.023438 88.132812 12.023438 Z M 88.132812 77.914062 L 11.867188 77.914062 C 10.90625 77.914062 10.0625 77.289062 10.0625 76.578125 L 10.0625 30.449219 L 44.554688 59.570312 C 45.261719 60.167969 46.160156 60.496094 47.085938 60.496094 L 52.910156 60.496094 C 53.835938 60.496094 54.738281 60.167969 55.445312 59.570312 L 89.9375 30.449219 L 89.9375 76.578125 C 89.9375 77.289062 89.09375 77.914062 88.132812 77.914062 Z M 50 50.503906 L 16.453125 22.085938 L 83.546875 22.085938 Z M 50 50.503906 "/>
</g>
</svg>
