<svg xmlns="http://www.w3.org/2000/svg" width="200" height="200" viewBox="0 0 200 200">
    <circle class="color-brightGreen color-main" fill="#95c054" cx="100" cy="100" r="100"/>
    <path class="color-black" d="M55.413103 18.233615v12.250712H80.91168V169.51567H55.413103v12.25072H104.2735c8.40456 0 15.09972-6.69516 15.09972-15.09972V103.1339c0-4.843302-3.9886-8.831906-8.83191-8.831906 4.84331 0 8.83191-3.988604 8.83191-8.831909V33.33333c0-8.404558-6.69516-15.099715-15.09972-15.099715zm37.321939 12.250712h8.262108c3.9886 0 7.26496 3.276354 7.26496 7.264958V80.91168c0 3.988604-3.27635 7.264958-7.26496 7.264958h-8.262108zm0 70.085473h8.262108c3.9886 0 7.26496 3.27635 7.26496 7.26496v54.55841c0 3.9886-3.27635 7.26495-7.26496 7.26495h-8.262108z"/>
    <path class="color-white" fill="#fff" d="M17.806264 74.358973v10.968662H42.87749v29.059835H17.806264v10.96866H81.19658v-10.96866H53.846152V85.327635h1.994302l37.464389 40.028495h13.532767L144.302 85.327635h1.9943v29.059835h-27.49288v10.96866h63.39032v-10.96866h-25.07123V85.327635h25.07123V74.358973h-42.73505L100 116.66667 60.541309 74.358973z"/>
    <path class="color-black" d="M182.19374 126.06838h-63.39032c-.2849 0-.71225-.2849-.71225-.71225v-10.96866c0-.2849.2849-.71226.71225-.71226h26.78063V86.039885h-.99715l-37.32194 39.886045c-.14245.14245-.2849.14245-.42735.14245H93.304843c-.14245 0-.2849-.14245-.42735-.14245L55.555554 86.039885h-1.139602v27.777775H81.05413c.284901 0 .712251.28491.712251.71225v10.96867c0 .2849-.2849.71225-.712251.71225H17.806264c-.2849 0-.712251-.2849-.712251-.71225v-10.96866c0-.2849.284901-.71226.712251-.71226H42.16524V86.039885H17.806264c-.2849 0-.712251-.2849-.712251-.71225V74.358973c0-.2849.284901-.71225.712251-.71225h42.735045c.14245 0 .2849.14245.42735.14245L100 115.66952l39.03134-41.737897c.14245-.14245.2849-.14245.42735-.14245h42.73505c.2849 0 .71225.2849.71225.71225v10.968662c0 .2849-.2849.712251-.71225.712251h-24.35898v27.777784h24.35898c.2849 0 .71225.28489.71225.71225v10.96866c0 .14245-.2849.42735-.71225.42735zm-62.67807-1.28205h62.10827v-9.68661h-24.35898c-.2849 0-.71225-.28491-.71225-.71225V85.327635c0-.284901.2849-.712251.71225-.712251h24.35898v-9.68661h-41.88035l-39.31624 42.165246c-.14245.14245-.2849.14245-.42735.14245-.14245 0-.2849-.14245-.42735-.14245L60.256409 75.071224H18.376065v9.68661H42.73504c.284901 0 .712251.2849.712251.712251v29.059835c0 .28489-.2849.71225-.712251.71225H18.376065v9.68661H80.48433v-9.68661H53.846152c-.2849 0-.712251-.2849-.712251-.71225V85.327635c0-.284901.2849-.712251.712251-.712251h1.994302c.14245 0 .2849.14245.42735.14245l37.321939 39.886046h12.962967l37.32194-39.886046c.14245-.14245.2849-.14245.42735-.14245h1.9943c.2849 0 .71225.2849.71225.712251v29.059835c0 .2849-.2849.71225-.71225.71225h-26.78063z"/>
    <path class="color-black color-reserved-white" d="M55.413103 18.233615v12.250712H80.91168v57.549861L92.735042 100.8547v-.42735h8.262108c3.9886 0 7.26496 3.27635 7.26496 7.26496v54.5584c0 3.98861-3.27635 7.26496-7.26496 7.26496h-8.262108v-33.04843l-11.823362-.2849v33.33333H55.413103v12.25072H104.2735c8.40456 0 15.09972-6.69516 15.09972-15.09972V103.1339c0-4.843302-3.9886-8.831906-8.83191-8.831906 4.84331 0 8.83191-3.988604 8.83191-8.831909V33.33333c0-8.404558-6.69516-15.099715-15.09972-15.099715zm37.321939 12.250712h8.262108c3.9886 0 7.26496 3.276354 7.26496 7.264958V80.91168c0 3.988604-3.27635 7.264958-7.26496 7.264958h-8.262108z"/>
</svg>
