<svg xmlns="http://www.w3.org/2000/svg" width="200" height="200"  xmlns:v="https://vecta.io/nano"><circle fill="#95c054" cx="100" cy="100" r="100"/><path d="M55.413 18.234v12.251h25.499v139.031H55.413v12.251h48.86c8.405 0 15.1-6.695 15.1-15.1v-63.533a8.88 8.88 0 0 0-8.832-8.832 8.88 8.88 0 0 0 8.832-8.832V33.333c0-8.405-6.695-15.1-15.1-15.1zm37.322 12.251h8.262a7.3 7.3 0 0 1 7.265 7.265v43.162a7.3 7.3 0 0 1-7.265 7.265h-8.262zm0 70.085h8.262a7.3 7.3 0 0 1 7.265 7.265v54.558a7.3 7.3 0 0 1-7.265 7.265h-8.262z"/><path fill="#fff" d="M17.806 74.359v10.969h25.071v29.06H17.806v10.969h63.39v-10.969h-27.35v-29.06h1.994l37.464 40.028h13.533l37.464-40.028h1.994v29.06h-27.493v10.969h63.39v-10.969h-25.071v-29.06h25.071V74.359h-42.735L100 116.667 60.541 74.359z"/><path d="M182.194 126.068h-63.39c-.285 0-.712-.285-.712-.712v-10.969c0-.285.285-.712.712-.712h26.781V86.04h-.997l-37.322 39.886c-.142.142-.285.142-.427.142H93.305c-.142 0-.285-.142-.427-.142L55.556 86.04h-1.14v27.778h26.638c.285 0 .712.285.712.712v10.969c0 .285-.285.712-.712.712H17.806c-.285 0-.712-.285-.712-.712V114.53c0-.285.285-.712.712-.712h24.359V86.04H17.806c-.285 0-.712-.285-.712-.712V74.359c0-.285.285-.712.712-.712h42.735c.142 0 .285.142.427.142L100 115.67l39.031-41.738c.142-.142.285-.142.427-.142h42.735c.285 0 .712.285.712.712V85.47c0 .285-.285.712-.712.712h-24.359v27.778h24.359c.285 0 .712.285.712.712v10.969c0 .142-.285.427-.712.427zm-62.678-1.282h62.108V115.1h-24.359c-.285 0-.712-.285-.712-.712v-29.06c0-.285.285-.712.712-.712h24.359v-9.687h-41.88l-39.316 42.165c-.142.142-.285.142-.427.142s-.285-.142-.427-.142L60.256 75.071h-41.88v9.687h24.359c.285 0 .712.285.712.712v29.06c0 .285-.285.712-.712.712H18.376v9.687h62.108v-9.687H53.846c-.285 0-.712-.285-.712-.712V85.328c0-.285.285-.712.712-.712h1.994c.142 0 .285.142.427.142l37.322 39.886h12.963l37.322-39.886c.142-.142.285-.142.427-.142h1.994c.285 0 .712.285.712.712v29.06c0 .285-.285.712-.712.712h-26.781z"/><path d="M55.413 18.234v12.251h25.499v57.55l11.823 12.821v-.427h8.262a7.3 7.3 0 0 1 7.265 7.265v54.558a7.3 7.3 0 0 1-7.265 7.265h-8.262v-33.048l-11.823-.285v33.333H55.413v12.251h48.86c8.405 0 15.1-6.695 15.1-15.1v-63.533a8.88 8.88 0 0 0-8.832-8.832 8.88 8.88 0 0 0 8.832-8.832V33.333c0-8.405-6.695-15.1-15.1-15.1zm37.322 12.251h8.262a7.3 7.3 0 0 1 7.265 7.265v43.162a7.3 7.3 0 0 1-7.265 7.265h-8.262z"/></svg>