<svg xmlns="http://www.w3.org/2000/svg" width="200" height="200"  xmlns:v="https://vecta.io/nano"><circle fill="#00548f" cx="100" cy="100" r="100"/><path fill="#fff" d="M99.003 6.553H100c20.655 0 39.601 6.838 56.838 20.37 7.123 6.268 12.251 11.538 15.527 16.239 12.678 17.521 19.088 36.325 19.088 56.41v2.279c0 20.94-6.838 40.313-20.513 58.262-5.698 6.838-11.111 12.108-15.954 15.67-11.538 8.689-23.932 14.53-37.037 17.236-6.268 1.14-11.966 1.709-17.379 1.709h-2.849c-18.661 0-36.467-6.125-53.561-18.234-3.276-2.422-7.265-5.983-11.823-10.684-8.689-9.829-14.957-19.658-18.661-29.487-4.558-11.538-6.838-23.077-6.838-34.046V99.43c0-18.376 5.413-35.897 16.524-52.707 2.707-3.989 6.838-8.832 12.678-14.53 6.98-6.41 12.821-10.826 17.806-13.39 14.53-8.12 29.345-12.251 45.157-12.251zm-84.33 94.017c.142 3.704.285 6.98.712 10.114l168.234.285c.427-2.849.712-5.983.712-9.259v-2.137c0-17.521-5.271-34.046-16.097-49.858-2.137-3.134-5.983-7.692-11.538-13.39-16.952-14.957-36.04-22.365-56.838-22.365h-.57c-20.94 0-39.744 7.407-56.41 22.222-5.84 5.698-9.402 9.687-10.826 11.823C20.37 63.818 14.672 81.339 14.672 100.57zm1.852 17.664c1.14 5.128 2.564 9.972 4.131 14.245 2.422 6.41 5.698 12.393 9.544 18.234 2.279 3.561 6.41 8.12 12.108 13.96 3.561 3.134 5.556 4.843 5.983 4.843h102.564c5.84-4.558 11.396-9.972 16.382-16.667 3.989-5.698 6.838-10.684 8.547-14.672 2.137-3.989 4.416-10.541 6.553-19.658zm30.627 3.561H70.94c2.849 0 5.413 1.424 7.835 4.131 1.14 1.424 1.567 2.991 1.567 4.843v.142c0 3.989-1.709 6.98-5.128 8.832 1.994 0 4.558 1.14 7.55 3.419 2.279 2.279 3.419 4.986 3.419 8.262v.997c0 4.701-2.991 8.262-8.974 11.254-1.994.712-3.846.997-5.128.997H47.293c-.142 0-.285-.142-.285-.285v-1.14c0-.142.712-.285 1.852-.57 1.282-.997 1.852-2.137 1.852-3.561v-30.342c0-2.422-.997-4.273-2.849-5.128-.57-.142-.855-.427-.855-.57v-1.14c-.142-.142-.142-.142.142-.142zm10.256 53.704c13.39 7.835 27.493 11.538 42.165 11.538 14.53 0 28.632-3.846 42.308-11.396v-.142zm2.707-49.288v12.393h2.991c3.989 0 6.268-1.567 7.265-4.558.142-.427.142-.855.142-1.14v-.712c0-2.564-1.425-4.558-4.274-5.84-.855-.142-1.425-.285-1.852-.285 0 .142-4.274.142-4.274.142zm0 17.236v15.1h8.12c3.276 0 5.556-1.994 6.98-5.983l.142-1.709c0-3.419-1.852-5.698-5.698-7.265-.855-.142-1.852-.285-3.134-.285zm37.322-39.886h4.274c10.969 0 22.792 1.709 35.755 5.413v.285H62.821v-.285c12.108-3.561 23.504-5.413 34.615-5.413zm2.279-20.228c10.826 0 21.225 1.994 31.339 6.125.427 0 .712.712 1.14 1.852.427.142.997.57 1.709 1.425v.855c0 .285-.427.997-1.282 1.852 0 .142-.142.427-.427.57-1.567-1.567-4.701-3.134-9.117-4.558-8.12-2.137-15.1-3.276-21.51-3.276h-3.134c-10.114 0-19.516 1.852-28.348 5.84l-2.279 1.709c-.855-1.282-1.282-1.994-1.282-2.279v-.57c0-.285.427-.855 1.14-1.852 0-.427.427-1.14 1.425-1.994 9.972-3.704 20.085-5.698 30.627-5.698zM70.94 94.729v10.256c0 .142-.712.285-2.137.712l-.142-.285v-8.689c.997-1.282 1.852-1.994 2.279-1.994zm27.208-29.487h2.849c7.265 0 14.53 1.567 21.652 4.843.142.285.285.57.285.997h.712l.855.997c.427 0 .712.427.855 1.282.427.142 1.14 1.282 1.852 3.134.855.712 1.282 1.282 1.282 1.852v.57c0 .997-.427 1.567-1.282 2.422-.57-1.567-1.424-2.564-2.564-3.134-7.977-3.846-16.097-5.698-23.789-5.698h-2.564c-8.262 0-16.382 1.994-24.217 6.125-.712.57-1.14 1.425-1.425 2.564-.855-.855-1.282-1.709-1.282-2.707s.57-1.852 1.567-2.707c0-1.282.427-2.137 1.425-2.849 0-.712.285-1.14.855-1.425.142-.427.712-.712 1.567-1.14 0-.855 4.274-2.279 12.536-4.131 2.849-.57 5.84-.997 8.832-.997zm-21.652 27.35l.142 10.969c0 .427-1.282.712-3.846 1.14V94.017c.142-.427 1.425-.997 3.704-1.425zm-2.137-12.678h.285v4.274l.142 1.567c-.285.142-.855.427-1.567.57l-.142-.285v-3.134c0-.57.427-1.567 1.282-2.991zm5.128-2.422l.142.285v6.553c0 .142-1.14.427-3.276.997-.142-.427-.285-.855-.285-1.567v-4.416c0-.285 1.14-.855 3.419-1.852zm6.695-23.932c-2.849 3.276-4.986 7.977-6.41 13.96-.285 0-.997.285-2.137.855h-.142c1.282-4.274 2.564-7.55 3.989-9.829 1.994-2.849 3.419-4.558 4.701-4.986zm-2.991 37.179s.142.142 0 0v11.681c0 .285-1.567.712-4.701 1.14l-.142-.285V92.165c.285-.285 1.994-.855 4.843-1.425zm7.835-39.031c-2.707 2.991-4.701 7.407-5.698 12.963-.142 1.14-.57 1.567-1.567 1.567l-2.422.712-.142-.142c0-.997.997-3.846 2.991-8.405 2.422-3.846 4.558-5.983 6.838-6.695zm-4.843 23.504l.142.285c.142 3.704.142 6.125.142 7.55-2.137.427-3.989.855-4.986 1.14v-7.265c0-.142 1.567-.712 4.416-1.567zm4.701 14.387l.142.285v11.681c0 .142-.142.142-.427.285-.997 0-2.564.142-5.128.57l-.142-.285V90.741c-.142-.427 1.852-.712 5.556-1.14zm3.846-39.316l.142.285c-1.852 4.843-2.991 8.689-3.134 11.254-.285 1.852-.57 2.849-.712 2.849l-4.843.712c0-.142 0-.142-.142-.142.855-3.419 1.852-6.268 2.849-8.689 1.852-3.846 3.134-5.698 3.846-5.698.427-.142 1.14-.285 1.994-.57zm-.427 23.647l.142.285v7.835c0 .285-1.567.57-4.843.855h-1.14c-.142-2.849-.142-4.843-.142-6.268v-1.567c0-.285 1.994-.712 5.983-1.14zm5.128-38.889h1.282c2.564.285 3.846.997 3.846 1.852v8.12c.855 0 1.282.712 1.282 1.852 1.567.57 2.422.997 2.564 1.282v1.14l1.14 1.14v.427c0 .142-.142.142-.285.142-3.134-1.282-6.268-1.852-9.259-1.852s-6.125.712-9.259 1.852l-.142-.142v-.427c.712-.57 1.14-.997 1.14-1.567 0-.855.855-1.425 2.279-1.852 0-1.282.427-1.852 1.14-1.852l.142-.285c0-5.698.285-8.547.855-8.547.427-.997 1.709-1.282 3.276-1.282zm2.991 93.447c4.274 0 7.265 1.709 9.259 5.128.142.855.285 1.567.427 2.279 0 2.991-1.424 5.128-3.989 6.695 2.422 2.564 4.131 5.271 4.986 8.12h.142c1.282-1.14 1.994-1.567 2.564-1.567h.142l1.424 3.846c-.427 0-1.424.997-2.849 2.849.712 2.564 1.567 3.846 3.134 3.846h.285l1.567-.142c.57 1.567.855 2.707.855 2.849-1.14 1.282-2.564 1.852-4.273 1.852h-.285c-1.567 0-2.991-1.282-4.416-3.704-2.707 2.707-5.698 3.989-8.974 3.989-4.558 0-8.12-2.137-10.541-6.553-.712-1.567-1.14-2.991-1.14-4.701v-.57c0-4.416 2.279-7.835 6.838-10.114.57-.142.855-.427.855-.57-2.707-.997-4.131-2.991-4.131-6.268s1.567-5.556 4.843-6.98c.997-.142 2.137-.285 3.276-.285zM98.433 50h.427l.142.142c-.142 1.425-.142 4.274-.285 8.689a78.99 78.99 0 0 1 .142 4.843c-.57.142-2.564.427-5.983.57l-.142-.285c0-4.416 1.282-8.974 3.561-14.103.997.142 1.709.142 2.137.142zm-.427 39.174c.285.142.427.142.427.285v11.966c0 .142-.142.285-.285.285h-.997c-.997 0-2.137 0-3.989.142 0-.142 0-.142-.142-.142-.142-3.704-.142-6.268-.142-8.12v-3.989c0-.285 1.567-.427 5.128-.427zm1.567-59.544h.997c.712 0 .997.285.997.712s.285.997.997 1.425c0 .997.855 1.709 2.564 2.564.855.427 1.282.855 1.282 1.425v.142c0 .712-.142.997-.427.997h-.427c-.142-1.425-1.852-2.137-4.986-2.422h-1.425c-2.422 0-4.274.855-4.986 2.422-.427-.142-.57-.427-.57-1.14v-.142c0-1.14.855-1.709 2.422-2.137.427 0 1.14-.855 2.422-2.564v-1.14c-.285 0 .142-.142 1.14-.142zm-3.846 8.262v4.843h.855v-4.843zm1.709 35.755h3.846c.997 0 1.424.142 1.424.427v.57c0 1.567 0 4.131-.142 7.407l-.285.142h-5.128c-.142 0-.285-.142-.285-.285v-7.835c0-.285.142-.427.57-.427zM100 18.234c.712 0 1.14 1.425 1.14 4.274.142 0 .142.285.142.997v1.282c0 .142-.142.712-.427 1.709v.427c0 .142.427.855 1.14 1.852v.142h-3.989c-.142 0-.285-.142-.285-.285l1.425-1.709a5.03 5.03 0 0 1-.57-2.422v-.855c0-.712.285-1.282.855-1.994-.285-1.282-.427-1.852-.427-1.994-.142-.997.285-1.425.997-1.425zM97.721 36.61v5.413h.855V36.61zm0 115.812c0 2.422 1.567 4.274 4.843 5.556.427 0 .997 0 1.424.142 1.994 0 3.846-1.14 5.128-3.419-.57-2.564-2.137-5.271-4.986-8.405-.427-.427-.855-.712-.997-.712-3.561 1.709-5.413 3.846-5.413 6.838zM100.57 50c1.709 0 2.707.285 2.707.855.997 2.137 1.709 5.128 2.422 8.689.427 2.422.57 4.131.57 4.843h-.142c-2.991-.142-4.843-.427-5.413-.57l.142-1.567v-3.134c0-3.134-.142-6.268-.57-8.974.142-.142.285-.142.285-.142zm0-13.533v5.413l.855.142v-5.271c-.427 0-.57 0-.855-.285zm0 100.142c.57 1.994 1.709 2.991 3.846 2.991h.285c2.564-.427 3.846-1.424 3.846-2.991v-.142c0-1.567-1.14-2.422-3.276-2.849h-.997c-2.422.285-3.704 1.14-3.704 2.991zm.427-47.436c4.131.142 6.125.427 6.125.712v11.681c0 .142-.142.285-.285.285-2.137-.142-4.131-.142-5.556-.142h-.285c-.142 0-.285-.142-.285-.285V89.459zm1.709-51.567c-.142 1.994-.142 3.704-.142 4.843v.285h.855v-4.986zm1.994 12.963c1.567 0 2.849 1.14 3.846 3.134 1.282 1.567 2.422 4.274 3.419 7.835.427 2.137.712 3.419.712 3.704l-.285.142c-2.564-.427-4.131-.855-4.701-.997 0-3.419-.855-7.977-2.991-13.818zm.427 23.362c3.704.427 5.556.855 5.556 1.14v7.55l-.142.285c-2.279-.427-4.131-.57-5.413-.57l-.142-.285v-7.835zm4.131-21.51c3.561 2.849 5.698 5.413 6.695 7.835 1.424 3.134 2.137 5.271 2.137 6.695-.142 0-.142 0-.142.142-2.422-.712-3.704-.997-3.704-1.282 0-2.422-1.14-5.84-3.134-10.541zm.285 37.322c3.419.427 5.128.855 5.128.997v11.396l-.142.285c-3.419-.427-5.128-.57-5.128-.712V90.028zm3.561-14.53c3.134.855 4.701 1.425 4.701 1.567v6.838l-.142.285c-.997-.285-2.564-.712-4.843-1.14v-7.407s.142-.142.285-.142zm.712-20.655c3.561 2.137 6.125 6.268 7.977 12.251.142.712.285 1.282.285 1.567h-.142c-1.709-.57-2.707-1.14-2.707-1.567-.997-4.416-2.279-8.12-4.416-11.111-.285 0-.57-.285-.997-1.14zm3.276 36.61c2.849.712 4.416.997 4.416 1.282v10.969l-.142.142c-.142-.142-1.567-.427-4.416-.855l-.142-.285V91.453zm2.849-13.675c2.137.997 3.419 1.567 3.419 1.709V84.9l-.142.285c-2.279-.57-3.419-.855-3.419-1.14v-6.41s0-.142.142-.142zm21.083 44.16c7.123 0 12.821 3.561 17.236 10.826 1.567 3.419 2.564 6.838 2.564 10.114v.712c0 6.98-2.707 12.678-8.12 17.236-3.419 2.564-7.407 3.846-11.681 3.846-6.98 0-12.536-3.561-17.094-10.826-1.567-3.419-2.564-6.98-2.564-10.399 0-6.695 2.707-12.393 8.262-17.236 3.704-2.849 7.407-4.274 11.396-4.274zm-17.379-29.06c2.564.855 3.846 1.282 3.846 1.567v9.972c0 .142-.142.285-.285.285-2.422-.427-3.704-.855-3.704-.997V92.877zm1.424-12.678c1.14 1.567 1.567 2.422 1.567 2.849v3.276c-1.282-.142-1.852-.427-1.852-.712v-5.271c.142-.142.142-.142.285-.142zm4.131 15.1c1.567 1.14 2.422 1.994 2.422 2.849v7.407c0 .142-.142.285-.285.285-1.424-.285-2.137-.57-2.137-.712zm2.849 47.863c0 6.268 1.567 10.969 4.701 13.96 1.424 1.14 2.849 1.709 4.558 1.709 4.986 0 8.12-4.274 8.974-12.678.142-1.567.142-2.707.142-3.134 0-7.692-2.137-12.678-6.695-14.957-.997-.142-1.709-.285-2.564-.427-4.558 0-7.407 3.561-8.689 10.684-.285 1.282-.285 2.991-.427 4.843z"/></svg>