<svg xmlns="http://www.w3.org/2000/svg" width="200" height="200"  xmlns:v="https://vecta.io/nano"><circle fill="#0092c8" cx="100" cy="100" r="100"/><path fill="#fff" d="M97.436 81.054l23.647 3.276c-9.972 19.943-24.644 29.772-43.875 29.772-10.826-.712-20.655-4.416-29.345-11.396s-13.39-18.661-13.96-35.185c.712-13.818 4.986-24.644 12.963-32.621 7.977-7.835 18.091-12.251 30.342-12.821 14.957.142 25.926 3.561 32.621 10.399s10.399 12.963 11.111 18.234l-24.359 2.279c-1.567-1.709-3.419-3.134-5.413-4.274-3.419-1.852-6.98-2.707-10.541-2.707-3.704 0-7.123.855-10.684 2.707-3.419 1.852-6.125 4.416-7.977 7.977-1.994 3.561-2.991 7.123-2.991 10.826s.855 7.265 2.707 10.684a19.56 19.56 0 0 0 7.977 7.977c3.419 1.852 6.98 2.707 10.826 2.707 3.704 0 7.265-.997 10.684-2.849a21.55 21.55 0 0 0 6.268-4.986zm-21.795 51.425c.285-6.553 1.282-10.826 2.849-12.536 18.946 0 35.328-11.396 48.86-34.046 13.248 1.425 22.934 6.41 29.345 14.957 6.268 8.262 9.402 19.373 9.402 33.333 0 7.265-2.279 14.957-6.695 22.65h.142c-9.972 13.818-22.65 20.798-38.177 21.083-27.92-2.564-43.02-17.806-45.726-45.442zm35.47-18.661c-3.419 1.852-6.125 4.416-8.12 7.977-1.852 3.419-2.849 7.123-2.849 10.826s.855 7.265 2.707 10.684a19.56 19.56 0 0 0 7.977 7.977c3.419 1.852 6.98 2.707 10.826 2.707 3.704 0 7.265-.855 10.684-2.707a19.56 19.56 0 0 0 7.977-7.977c1.852-3.419 2.849-6.98 2.849-10.684 0-3.846-.997-7.265-2.849-10.826-1.994-3.419-4.701-6.125-8.12-7.977s-6.98-2.707-10.541-2.707-7.123.855-10.541 2.707zm7.692-50.997h2.991l5.84 10.969h-3.561l-1.282-2.279h-5.698l-.997 2.279h-3.134zm-.855 6.268h3.276l-1.709-3.276zm12.678-6.268l5.84 5.84v-5.84h2.422v10.969h-2.279l-5.84-5.84v5.84h-2.422V62.821zm16.809 0c3.704.285 5.413 1.994 5.413 5.271-.285 3.846-1.852 5.698-4.843 5.698h-6.695V62.821zm-3.419 2.564v5.983h2.991c1.567 0 2.422-.997 2.422-2.849 0-2.137-.712-3.134-2.422-3.134z"/></svg>