<svg xmlns="http://www.w3.org/2000/svg" xmlns:xlink="http://www.w3.org/1999/xlink" width="200" height="200" xmlns:v="https://vecta.io/nano"><circle fill="#c62631" cx="100" cy="100" r="100"/><g fill="#fff"><path d="M151.567 53.134c-9.829 0-13.818-.142-16.809-.712-4.558-.855-8.12-1.852-10.114-2.849-.997-.427-1.14-.427-1.282.57-.142 1.14-.997 2.849-1.709 3.704s-2.137 1.709-3.419 2.137c-2.137.712-5.84-.285-7.407-2.137-.712-.855-1.425-2.422-1.709-3.561-.285-1.567.142-3.704 1.282-5.413.285-.427.427-.855.427-.855 0-.142-.285-.427-.855-.712-.427-.285-1.709-1.14-2.849-1.994s-2.849-1.994-3.846-2.707-2.279-1.567-2.991-1.994-1.282-.855-1.425-.712c-.142 0-1.14.855-2.279 1.709s-3.419 2.422-4.986 3.561c-3.846 2.564-3.561 2.279-3.134 2.849s.997 1.567 1.425 2.849c.285.712.285 1.282.285 2.564-.142 1.709-.142 1.994-1.14 3.276-1.425 1.994-3.134 2.849-5.698 2.991-1.425 0-1.709 0-2.707-.57-1.994-.997-3.704-2.991-4.131-4.843-.285-1.14-.142-1.14-4.416.57-.142.142-.855.285-1.425.427s-1.425.427-1.709.427c-1.14.285-4.843.997-7.265 1.282-4.416.427-7.835.57-15.527.57-4.558 0-8.262 0-8.262.142s.142.427.57.712c.712.57 1.709 1.567 4.701 4.416l1.425 1.425v34.188c0 37.179 0 35.043.997 39.459.427 1.994.57 2.564 1.567 4.843.855 2.279 2.422 5.413 3.419 7.265 2.279 3.561 2.991 4.558 5.128 6.553 1.994 1.994 2.991 2.849 5.128 4.558.997.855 1.994 1.567 1.994 1.567.285.142 3.989 2.707 4.274 2.849.142 0 .712.427 1.14.712.57.427 1.567.997 2.137 1.282s1.567.997 2.279 1.282c.57.427 1.14.712 1.282.712a21.25 21.25 0 0 0 1.282.712 21.25 21.25 0 0 0 1.282.712s1.14.57 2.564 1.425 2.849 1.567 3.276 1.852 1.709.997 2.991 1.709l2.422 1.567c2.849 1.709 8.405 5.983 10.256 7.977.427.427.855.855.997.855.285 0 1.282-.855 3.419-2.707 2.279-1.994 7.265-5.698 10.399-7.55.142-.142.997-.57 1.852-1.14 2.564-1.567 3.276-1.994 9.687-5.128 8.12-3.989 9.259-4.701 12.393-6.98 2.991-2.137 4.131-3.276 7.835-6.98 2.279-2.279 4.131-5.413 5.556-8.832.285-.57.427-1.14.57-1.425 1.14-2.849 2.564-8.689 3.419-14.103.142-.997.285-11.538.285-34.188V60.541l.57-.57c.57-.427 2.137-1.852 3.989-3.561.285-.285.712-.712.997-.855l.997-.997c.427-.427.712-.712.712-.855 0-.427-4.558-.57-10.114-.57z"/><path d="M118.946 87.464c0-.427.142-.997.142-1.14.142-.142.285-1.14.427-1.994l.855-7.123.427-1.994c.142-.142.142-.855.142-1.425s.142-1.282.142-1.709c.142-.427.285-1.425.427-2.279l.427-2.849c.285-1.567.427-1.709 1.709-1.282.427.142.997.285 1.282.285.57 0 .997.427.712.997-.142.427-.57 2.991-.855 5.128-.142 1.282-.427 3.276-.855 4.843-.142.57-.285 1.567-.427 2.279-.142.57-.285 1.994-.427 2.991l-.427 3.134-.427 2.137c-.285.997-.427 1.14-1.425.855-.285 0-.855-.142-1.282-.142h-.855v-.712zm4.843 18.519v20.798h-1.567c-1.14 0-1.709 0-1.709-.142s-.142-4.843 0-10.399v-10.114h3.276zm-17.806-34.615c.142-1.14.142-3.134.142-4.274v-2.137l.57-.427c.427-.285.712-.427 1.425-.285.427 0 2.279.142 3.846.285 2.849.142 2.991.142 3.704.712.997.712 1.14 1.14.855 3.419l-.427 4.558-.285 2.849c-.142.142-.142 1.14-.285 2.279-.285 5.271-.712 7.55-1.709 8.405-.285.285-.57.427-4.274.427-2.991 0-3.846 0-3.989-.285-.142-.427.142-11.823.427-15.527zm-2.564 34.615h1.425v20.798h-3.419c-.142-.142-.285-2.279-.285-10.399v-10.256l.427-.142c.285 0 .997-.142 1.852 0zM91.453 86.04c.142-1.852.57-5.128.712-5.84.142-.285.142-1.14.142-1.709s.142-1.282.142-1.709c.142-.285.285-1.425.427-2.422.142-1.709.427-3.561.712-5.84.142-.57.285-1.709.285-2.564.142-1.425.142-1.425.712-1.567.285-.142 1.425-.142 2.422-.142h1.852l.285.57c.142.285.427 1.14.427 1.709 0 .712.142 1.425.285 1.567s.142.712.142 1.14.142 1.14.285 1.709c.142.427.285 1.282.285 1.567 0 .427.142.855.142 1.14.142.285.285.997.427 1.709.427 2.991.57 3.704.712 4.274.142.285.142.855.142 1.282s.142.997.142 1.282c.142.427.57 2.564.57 3.846v.57h-3.419l-.142-1.14c-.142-1.425-.427-2.422-.855-2.564-.142 0-.997-.142-1.852-.285l-1.567-.142-.142.427c-.142.285-.285 1.14-.285 1.994s-.142 1.567-.285 1.709c.142.57-.427.57-1.425.57h-1.425zM65.954 67.664c.285-.285 1.709-.57 3.419-.712l1.567-.142.285.57c.142.285.285.712.285.855s.142.57.285.855.285.712.285.855.142.57.285.997c.142.285.427 1.14.57 1.709s.427 1.282.427 1.425c.142.142.142.427.142.712 0 .142.142.57.285.855s.285.712.285.855c0 .285.142.57.285.997.142.285.285.712.285.997s.142.427.142.57c.142 0 .285.427.285.855s.142.855.285.855.142.285.142.57.142.712.285.997.285.712.285.997.142.712.285.855.285.57.285.712c0 .285.142.712.285.997.712 1.567.855 2.564.427 2.849-.142 0-.855.142-1.567.285-1.14.142-1.425.142-1.709-.142a1.09 1.09 0 0 1-.285-.712c0-.142-.142-.712-.285-.997-.142-.427-.285-.997-.427-1.282-.142-.57 0-.57-2.707-.142-1.567.285-1.567.285-1.425 2.137.142 1.994 0 2.564-.57 2.564-.285 0-.712.142-1.14.285-.855.285-1.14.285-1.425.142 0-.285-.285-22.934.142-23.219zm13.248 38.604c1.14 0 1.709.142 1.852.285s.285.712.285 1.14c0 .57.285 1.709.427 2.564s.427 2.279.427 2.991c.142.712.285 1.567.427 1.709s.142.712.142 1.282c0 .427.142 1.282.285 1.567a6.06 6.06 0 0 1 .285 1.567c0 .427.142.997.142 1.282.142.142.285.997.427 1.709s.285 1.852.285 2.564c.142.712.142 1.425.142 1.567s-.57.285-1.425.285c-1.567 0-1.567-.142-2.137-1.852l-.427-1.282h-3.134l-.285.997c-.142.57-.285 1.14-.427 1.425 0 .285-.142.427-.285.57-.142 0-.855.142-1.709.142h-1.425v-.57c0-.285.142-.57.142-.712.142-.142.285-.712.427-1.425s.285-1.994.427-2.707c.142-.855.427-1.994.427-2.564.142-.57.142-1.282.285-1.425s.142-.712.285-1.425l.712-4.131c.142-.57.427-2.279.712-3.989.57-1.425.712-1.567 2.707-1.567zM60.826 92.45c-.285 0-.855.142-.997.285-.285.142-.712.142-.997.142s-.855.142-1.14.285c-.855.285-1.425.285-1.852 0a1.09 1.09 0 0 0-.712-.285c-.427 0-1.567-1.425-1.567-1.852 0-.142-.142-.285-.142-.427-.142-.142-.285-.57-.427-.997s-.285-1.14-.427-1.567-.285-.855-.427-.997-.142-.427-.142-.712-.142-.712-.285-.997-.285-.712-.285-.997-.142-.712-.285-.997-.285-.712-.285-.997-.142-.57-.142-.57c-.142 0-.285-.427-.285-.855s-.142-.855-.285-.855-.142-.285-.142-.57-.142-.712-.285-.997-.285-.712-.285-.997-.142-.712-.285-.997c-.427-.855-.855-2.564-.855-2.991 0-.142-.142-.427-.142-.427-.142 0-.142-.285-.142-.57s-.142-.57-.285-.997c-.285 0-.427-.427-.427-.712s-.142-.712-.285-.997c-.427-.712-.427-2.849-.142-3.134s1.282-.855 2.137-.997c.712-.142 1.709-.57 2.137-.712.142-.142.57-.142.997-.285s.712-.142.712-.285.285-.142.57-.142.57-.142.997-.285c.285-.142.997-.285 1.567-.285.855 0 1.14.142 1.567.57.285.285.712.712.712.997s.142.57.285.57.142.427.142.712c0 .427.142.997.285 1.282.142.427.285.997.285 1.282s.142.855.285 1.282c.427.997.427 1.567-.285 1.852s-2.279.712-2.849.855-.997-.285-.997-.997c0-.57-.57-2.279-.855-2.707s-1.425-.427-1.994 0c-.285.285-.427.427-.427 1.14 0 .427.142 1.14.285 1.425s.285.712.285.997.142.712.285.997.285.712.285.997.142.57.142.712c.142 0 .285.427.285.997 0 .427.142.855.285.997.142 0 .142.285.142.57s.142.712.285.997.285.712.285.997.142.712.285.997.285.712.285.997.142.57.142.712c.142 0 .285.427.285.855s.142.855.285.997c.142.427.57 1.709.712 2.564.142.712.57.997 1.567.997.997-.142 1.282-.57.855-2.422-.142-.712-.285-1.709-.427-2.279-.142-1.14.142-1.282 1.425-1.567.427 0 .855-.142.997-.285.285-.427 1.425.142 1.425.855 0 .142.142.427.142.57.142.142.285.855.427 1.567.427 2.707.57 3.134.712 3.561.142.285.142.997.142 1.567 0 .855 0 1.14-.57 1.567-.285.285-.855.57-1.14.57-.427.142-.712.142-.855.285 0 0-.285.142-.57.142zm.712 34.33c0-.285-.142-5.983 0-12.821v-12.393h4.416c6.695-.142 6.125-.712 6.125 8.12 0 7.55 0 7.265-1.282 7.977-.427.285-1.14.285-2.849.285-1.282 0-2.422 0-2.564.142-.285.142-.285.712-.285 4.274 0 2.279 0 4.416-.142 4.558-.142.285-.427.285-1.709.285-1.567 0-1.709 0-1.709-.427zm12.536 18.946c-.712.712-.997 1.282-.57 1.567.285.142.142 2.849-.142 3.846-.142.57-.285.712-.712.712-.285 0-.855-.142-1.14-.285l-.57-.285.142-1.709c.142-1.709 0-2.279-.57-2.279-.142 0-.427-.142-.712-.285-.855-.427-1.282-.427-1.709.427-.142.427-.427.997-.427 1.14 0 .285-.142.57-.142.712-.142.142-.285.427-.285.57-.142.285-.285.285-.712.142-.855-.142-1.567-.57-1.567-.855 0-.142.142-.427.285-.712s.285-.712.285-.997.142-.57.142-.57c.142 0 .285-.427.285-.997 0-.427.142-.855.285-.997.142 0 .142-.427.142-.712s.142-.855.285-.997c.142-.285.285-.712.285-.997s.142-.712.285-.997.285-.712.285-.997c0-.855 1.14-.855 2.991-.285.427.142 1.14.285 1.567.427 1.14.285 1.994.712 2.422 1.14.285.285.427.57.427 1.852v1.425zm10.399 7.835c-.285.427-1.282.427-1.852 0-.285-.285-.427-.57-.57-1.282-.142-.855-.142-.855-.712-.997-.285-.142-.855-.285-1.282-.427-.855-.285-1.709-.142-1.852.285 0 .142-.142.427-.285.57s-.285.427-.427.57-.427.427-.57.427c-.57 0-1.852-.57-1.852-.855 0-.142.997-2.137 1.14-2.279s.285-.57 1.14-2.137c.142-.427.427-.712.57-.855.142 0 .142-.285.142-.427s.142-.427.142-.427c.142 0 .285-.142.285-.427s.142-.427.285-.57c0 0 .285-.427.57-.997.285-.427.57-.997.57-1.282.142-.285.427-.427.997-.427 1.282 0 1.709.285 1.994 1.424.142.57.285 1.282.285 1.709s.142 1.282.285 1.852.285 1.425.285 1.852.142.855.142.855c.142 0 .142.427.142.855s.142 1.14.142 1.567c.427.712.427 1.282.285 1.425zm.712-66.667c-.142-.285-.285-.712-.427-.997s-.285-.712-.427-.997-.285-.712-.285-.855-.142-.427-.285-.712c-.142-.142-.285-.57-.285-.712s-.142-.57-.285-.712-.285-.57-.285-.712c0-.57-.427-.57-.57 0-.142.427-.142 1.14.142 2.991.285 2.707.427 3.561.142 3.704-.142 0-.712.142-1.282.285-1.567.142-1.852-.142-1.852-1.994 0-.712-.142-1.567-.142-1.852-.142-.285-.285-1.425-.427-2.422-.285-3.846-.57-5.983-.712-6.695-.142-.285-.142-1.14-.142-1.709s-.142-1.425-.142-1.994c-.285-1.567-.57-5.271-.285-5.698.142-.142.427-.285.855-.285.285 0 .855-.142 1.14-.285.427-.142.57-.142.997 0 .285.142.427.285.427.427s.142.57.285.855.427 1.282.712 1.994.57 1.567.712 1.852.285.712.285.855.142.427.285.712c.142.142.285.57.285.712s.142.427.142.712c.142.285.142.285.427 0 .285-.427.285-5.983 0-6.98-.285-1.282-.142-1.567 1.425-1.709 1.994-.142 1.994-.285 2.137 3.134 0 1.567.142 3.134.285 3.419s.142 1.567.142 2.991c0 1.282.142 3.134.142 3.846.142.855.285 2.991.427 4.843.142 4.131.142 4.274-1.282 4.274-1.567.427-1.994.285-2.279-.285zm5.128 58.405c-.142.997-.142 2.707-.285 3.704 0 1.852-.285 4.131-.427 4.986-.142.285-.285.285-1.282.285h-1.14l.142-2.279c0-1.282.142-3.704.285-5.413.142-3.419.142-3.419 1.567-3.419 1.282.142 1.425.142 1.14 2.137zm-.855-18.661c-.427-.142-.997-.712-1.14-1.282s-.285-16.809 0-17.664c.142-.712.712-1.282.997-1.282.142 0 .427-.142.427-.142 0-.142 1.282-.142 3.134-.142 3.134 0 3.989.142 4.416.997a2.05 2.05 0 0 1 .285.427c.142 0 .142 1.425.142 2.991v2.849h-3.134l-.142-1.425c-.142-1.14-.142-1.567-.57-1.994-.57-.712-1.425-.712-1.994 0l-.57.57v11.966l.57.57c.712.712 1.282.712 1.994 0l.57-.57v-4.274h3.419v3.419c0 3.846-.142 4.274-1.282 4.843-.427.142-1.282.285-3.561.285-1.852 0-3.419 0-3.561-.142zm10.969 27.778c-.142.712-.285.712-.712.712-.285 0-1.852-.142-3.419-.142l-2.849-.142v-.855c0-.427.142-1.852.142-3.134.142-1.282.285-3.276.285-4.558l.142-2.422h2.279l-.142 4.131c-.142 3.134 0 4.131.142 4.274s1.14.142 2.137.285c1.852 0 1.994 0 2.137.57 0 .285 0 .712-.142 1.282zm11.396-9.117c-.142.712-.285 1.709-.285 2.137s-.142 1.282-.285 1.852-.285 1.567-.285 2.137-.142 1.14-.142 1.14c-.142 0-.142.285-.142.712 0 .997-.142 1.14-.997 1.14s-1.425-.427-1.425-.997c0-.142-.142-.427-.285-.57a1.09 1.09 0 0 1-.285-.712c0-.285-.855-1.14-.997-.997l-.285 1.425c-.142.712-.142 1.567-.285 1.709-.142.427-.285.427-1.14.427-.997 0-1.425-.285-1.425-.855 0-.285-.142-.712-.285-.997s-.427-1.14-.57-1.709-.427-1.14-.427-1.282c-.142-.142-.142-.427-.285-.712-.142-.57-.427-1.425-.855-2.422-.142-.285-.285-.855-.285-.997 0-.285-.142-.427-.142-.57-.285-.142-.142-.712.285-.997.997-.427 1.709-.142 1.709.57 0 .142.142.57.285.997.57 1.14.57 1.425.712 1.994 0 .285.285.57.427.57.285 0 .855-1.14.855-2.279 0-.427.285-1.14.427-1.567.285-.712.285-.712.997-.712s.712.142 1.14 1.282c.285.712.57 1.282.57 1.425s.142.427.285.712c0 .285.142.57.285.57.285 0 .855-1.567.855-2.422 0-.427.142-.997.285-1.425.285-.57.285-.57 1.14-.57 1.14 0 1.282.142.855 1.994zm.855-26.781c-.142.285-.142 2.279-.142 4.416v3.846h-1.567c-.855 0-1.567 0-1.709-.142-.142 0-.285-2.279-.285-10.114l.142-10.256c.142-.285.712-.285 4.843-.285h4.843v3.704h-2.991c-1.994 0-2.991 0-3.134.285-.285.285-.285 3.704 0 4.131s.427.427 2.279.427h2.137v3.419h-2.137c-2.137.142-2.137.142-2.279.57zm10.826 33.903c-.855.427-1.282.427-1.425-.142 0-.142-.142-.427-.285-.427s-.142-.142-.142-.285-.142-.427-.427-.712c-.427-.427-.57-.427-1.567-.285-1.425.285-1.852.427-1.852.855 0 .142 0 .427-.142.427-.142.142-.285.427-.285.855-.142.712-.142.712-1.282.712h-1.14l.142-1.282c0-.712.285-1.994.427-2.849s.427-2.137.427-2.991c.142-.712.285-1.425.285-1.567s.142-.712.285-1.14c.142-.997.142-.997.712-1.282 1.282-.57 1.994-.427 2.707.712.142.285.285.427.57.997 0 .142.285.712.57 1.14.285.57.855 1.567 1.425 2.564.427.855.997 1.994 1.282 2.422s.57.855.57.997c.142.57-.285.997-.855 1.282zm7.692-11.538c-.142.285-.285.712-.285.855s-.142.427-.285.712c-.142.142-.285.57-.285.855s0 .57-.142.712c-.285.285-.855 2.137-.712 2.279.142.285.57 2.279.855 3.419.142.855.142.997-.142 1.282-.142.142-.712.285-1.14.285-.855 0-.855 0-1.14-.712-.142-.427-.285-.855-.285-1.14s-.142-.712-.285-.855c-.142-.285-.285-.712-.285-.997 0-.57-.57-1.282-1.994-2.422-2.137-1.709-2.991-2.707-2.991-2.991 0-.142.142-.285.285-.285s.57-.142.855-.285l.57-.285 1.425 1.14c.855.57 1.567 1.14 1.709 1.282.285.427.997 0 1.14-.57 0-.285.142-.712.285-.855.285-.427.712-1.567.855-1.994s.997-.712 1.709-.57c.712 0 .712.427.285 1.14zm3.704 8.832c-.285 0-.712.142-.855.142-.285 0-.285 0-.285-.285 0-.142-.142-.427-.142-.427-.285-.142-.142-.712.285-.997.712-.427 1.14-.285 1.282.285 0 .285.142.712.285.855-.142.142-.142.285-.57.427zm-3.704-32.621c0 6.41 0 6.695 1.425 6.695.712 0 .855 0 1.282-.427s.427-.712.427-2.564v-2.137h3.134v3.419c0 2.849 0 3.419-.285 3.704-.142.142-.285.285-.285.427s-.285.285-.712.57c-.997.427-6.41.427-7.123 0-1.14-.712-1.14-.427-1.14-9.402v-8.974c.142-.57.285-.997.712-1.282l.57-.57h6.98l.57.57a4.33 4.33 0 0 1 .712.997c.142.285.142 1.567 0 3.134v2.707h-3.134v-1.567c0-1.425-.142-1.567-.57-1.994-.57-.427-1.567-.57-1.994-.142-.57.142-.712 1.425-.57 6.838zm6.125-43.162c-.142 1.14-.285 2.564-.285 3.276s-.142 1.852-.142 2.422c-.142.57-.285 2.422-.427 3.846-.427 6.98-.57 7.977-.855 8.12-.142.142-.285.142-.285.142s-.57-.142-1.282-.142c-1.709-.142-1.852-.427-1.567-2.849.142-1.282 0-1.852-.57-1.852-.142 0-.57-.142-.855-.285s-.855-.285-1.282-.285c-.57-.142-.855 0-1.14.285-.142.142-.427.57-.427.712 0 .427-.712 2.279-.855 2.422s-.855.142-2.137-.142c-.712-.142-1.282-.712-.997-1.14.142-.142.285-.712.427-1.14s.427-.997.57-1.282.285-.57.285-.712.142-.427.285-.712.427-.712.427-1.14c.142-.285.285-.855.427-1.14a14.78 14.78 0 0 0 .57-1.425 14.78 14.78 0 0 1 .57-1.425c.142-.285.285-.712.285-.855s.142-.285.142-.285c.142 0 .142-.142.142-.285s.142-.427.285-.712c.142-.142.285-.57.285-.712s.142-.57.285-.712.285-.57.285-.712.142-.57.285-.855.427-.855.57-1.282.427-.855.427-1.14c.142-.142.285-.712.427-1.14s.427-.997.57-1.282.285-.57.285-.855c0-.57.57-.712 1.567-.57.57.142 1.14.285 1.282.285.142.142.57.142.997.285 1.425.285 1.567.285 1.567 1.994.142.855 0 2.279-.142 3.276zm15.812.57c-.142 0-.142.285-.142.57s-.142.57-.285.997c-.142.285-.285.712-.285.855a1.09 1.09 0 0 1-.285.712c-.142.142-.285.57-.285.712s0 .427-.142.57-.285.712-.427 1.282a9.4 9.4 0 0 1-.57 1.567c-.142.285-.285.712-.285.997a1.09 1.09 0 0 1-.285.712c-.142.142-.285.57-.285.712 0 .285 0 .427-.142.57-.142 0-.285.427-.285.712 0 .427-.142.855-.285.997-.142.427-.57 1.567-.712 1.994 0 .285-.142.57-.285.855s-.285.57-.285.712c0 .285-.142.57-.285.997-.142.285-.285.712-.285.855s-.142.427-.142.427c-.142 0-.142.285-.142.427s-.142.57-.285.855c-.427.997-.997 1.14-2.422.427-1.14-.57-1.14-.57-.997-4.274.142-1.852.142-3.419.142-3.561-.142-.285-.997.855-.997 1.425 0 .285-.142.57-.285.855-.142.142-.285.57-.285.712 0 .285-.142.57-.285.997-.142.285-.285.712-.285.855s-.142.712-.285 1.14c-.285.712-.427.712-.855.57-.285 0-.855-.142-1.282-.427-.712-.285-.712-.285-.855-.997 0-.427 0-.997.285-1.282.142-.285.285-.712.285-.997s.142-.712.285-.997.285-.712.285-.997.142-.57.142-.57c.142 0 .285-.427.285-.855s.142-.855.285-.997c.142-.285.427-1.425.712-2.564.142-.285.285-.855.427-.997.142-.285.142-.712.142-.997s.142-.57.142-.712c.142 0 .285-.427.285-.855s.142-.855.285-.997c.142-.285.427-1.14.712-2.564.142-.427.285-.855.427-1.14s.285-1.14.57-1.709l.285-1.14h1.14c1.14 0 2.137.285 2.137.57v4.558c0 2.707.142 4.416.142 4.416.142 0 .427-.57.712-1.282.285-.855.57-1.425.57-1.567 0 0 .142-.285.142-.427s.142-.57.285-.855c.285-.712.712-1.709.855-2.279.285-1.14.712-1.709.997-1.567.142 0 .712.285 1.14.427 1.282.285 1.709.57 1.709 1.282-.427 0-.427.285-.57.285z"/><use xlink:href="#B"/><path d="M179.06 46.581c-.57-.142-7.835-.285-23.789-.57l-16.809-.427c-3.134-.57-8.832-1.994-11.254-2.849-.427-.142-.855-.285-1.14-.427l-5.128-1.994c-.142-.142-.427-.142-.57-.142s-.142 1.282-.142 3.704c0 3.276 0 3.846-.285 4.274-.855 1.14-2.137 1.709-3.419 1.282-1.425-.427-2.279-1.14-2.707-2.422-.142-.57-.142-.855 0-1.567.285-.855.57-1.14 1.994-1.567.285-.142.285-.427.285-2.849v-2.849l-1.567-.855c-.855-.427-1.709-.997-1.852-.997-.142-.142-.57-.427-.997-.57-.427-.285-.855-.427-.855-.57s-.142-.142-.142-.142c-.427 0-5.128-3.419-7.692-5.698-2.137-1.852-3.989-3.276-4.274-3.276-.142 0-.712.57-1.282 1.14s-1.709 1.567-2.422 2.137-1.567 1.282-1.709 1.425c-.285.285-.57.427-.57.427s-.285.142-.427.285c-.57.57-1.852 1.425-1.994 1.425s-.285 0-.285.142-3.561 2.422-5.983 3.989l-.997.712v2.849c0 3.134 0 3.134 1.14 3.276 1.567.285 2.279 2.137 1.282 3.419-1.14 1.567-3.704 1.852-4.986.57-.712-.57-.997-2.137-.712-2.422.285-.142.427-1.709.285-3.704-.142-1.852-.142-1.852-.57-1.852-.285 0-.855.285-1.425.57-1.14.57-2.279.997-2.849 1.14-.142 0-.57.142-.712.285-1.14.427-5.983 1.852-8.547 2.422-5.271 1.14-5.556 1.282-26.353 1.282-10.684 0-18.946.142-18.946.285s5.271 5.698 13.39 13.96l3.846 3.846v32.479l.57 38.034c.142 1.425.285 1.852.855 4.274.285 1.282 1.282 4.131 1.567 4.986.427.997 1.994 4.416 2.422 4.986 1.852 3.276 5.128 7.265 8.689 10.541 1.852 1.709 6.41 5.271 7.977 6.268.427.285 3.561 2.279 3.989 2.707.57.427 8.547 5.271 8.832 5.413.142 0 .57.285.855.427s.712.427.855.427.712.427 1.425.855c.57.427 1.282.712 1.425.855s.427.285.712.427c.142.142.855.57 1.425.855.57.427 1.282.712 1.425.855s.427.285.712.427c1.425.712 6.125 3.846 8.547 5.698 1.852 1.425 2.564 1.994 4.558 4.131 2.137 2.137 2.422 2.564 3.419 4.416a10.25 10.25 0 0 0 .855 1.425c0 0 .427-.427.712-.997.712-1.282 2.991-4.274 3.846-5.271 4.986-5.413 9.829-8.832 21.225-14.672l9.544-4.986c.855-.427 1.425-.855 1.567-.855s.997-.57 2.137-1.282 2.137-1.282 2.279-1.282 3.846-2.564 5.128-3.561c1.567-1.282 1.994-1.567 3.276-3.134.57-.57 1.14-1.282 1.14-1.425.427-.427 2.279-2.991 3.276-4.558 2.279-3.419 4.843-8.974 5.983-13.248.142-.57.427-1.425.57-1.994.427-1.282.855-3.276 1.567-7.55.285-1.709.285-4.274.427-34.046l.427-32.479c.142-.142 1.14-1.14 2.137-1.994s2.564-2.279 3.276-3.134c.855-.712 2.422-2.279 3.561-3.419 1.14-.997 2.422-2.137 2.707-2.564.285-.285 1.567-1.425 2.849-2.564s2.279-2.137 2.422-2.279c.285-.142.285-.142 0-.285z"/><path d="M117.664 52.849c.712-.142 2.422-1.709 2.707-2.564.142-.285.285-.427.427-.427s.285.142.142.285-.285.57-.427.997c-.285.57-1.14 1.567-1.852 2.137-.142.142-.57.285-1.14.427-1.425.427-2.707.142-3.846-.997-.855-.855-1.282-1.425-1.709-2.849-.285-1.14-.427-1.709-.142-1.709.142 0 .142.142.142.285s0 .427.142.57.285.712.57 1.14c1.14 2.279 2.991 3.276 4.986 2.707zm-16.239-19.231c.427.285 1.425 1.14 2.279 1.852s1.567 1.282 1.709 1.282c.142.285 4.416 2.991 4.986 3.276.142 0 .855.427 1.425.855s1.282.712 1.282.712c.142 0 .285.142.427.285s.427.285.57.285.427.142.712.285c.427.285.285.57-.142.427s-2.991-1.425-3.989-1.994c-.285-.285-.712-.427-.855-.57-.142 0-.57-.285-.855-.57s-.57-.427-.712-.427-.427-.285-.855-.57-.712-.57-.855-.57-2.707-1.852-3.134-2.279c-.142-.142-.427-.427-.712-.57-.997-.712-2.137-1.852-2.137-2.137-.142-.285.142-.142.855.427zm-17.095 8.69c-.142 0-.285-.57-.285-2.137 0-2.422-.142-2.137 2.137-3.419.427-.285.855-.427.855-.57.142-.142.712-.57 1.282-.712.285-.142.427-.285.427-.427s.142-.142.142-.142c.285 0 3.989-2.849 6.553-4.843.427-.285 1.14-.855 1.425-1.282.427-.285.855-.855 1.14-.997.285-.285.57-.427.57-.427s.142 1.14.142 2.707v2.707l-.712.57c-.427.285-.997.855-1.282 1.14s-.712.57-.997.855c-.142.285-.427.427-.57.427s-.427.285-.855.57c-.285.285-.997.712-1.282.997l-.997.712-1.282.855c-.142 0-.285.142-.285.285l-1.709 1.14c0 .142-.142.142-.427.142-.142 0-.427.142-.427.142 0 .142-.855.57-1.852.997l-1.709.712zm-2.422 9.544c1.425.712 2.991.427 4.131-.855.57-.712 1.282-1.994 1.282-2.564 0-.285.142-.57.285-.855.285-.285.285-.285.427.285.142.427 0 .855-.142 1.425-.142.427-.285.997-.285 1.14 0 .427-.997 1.567-1.852 1.994-.712.57-1.14.57-2.279.57-1.709 0-2.137-.285-3.419-1.425-.855-.855-1.567-2.137-1.425-2.279s.712.142.712.427 1.709 1.709 2.564 2.137zm-40.313-5.128l17.806-.142c3.561-.285 4.986-.427 5.271-.712.142-.142.57-.285 1.14-.285 1.14-.142 2.707-.57 2.849-.712s.285-.142.57-.142.712-.142.997-.285.712-.285.997-.285a1.09 1.09 0 0 0 .712-.285c.142-.142.57-.285.712-.285.285 0 .427-.142.57-.142 0-.142.427-.285.712-.285.285-.142.712-.142.855-.285s.57-.285.997-.427.997-.427 1.282-.57.712-.285.855-.285.427-.142.712-.285c.142-.142.427-.285.57-.142.142 0 .142.997.142 2.137v2.137l-.712.285c-.427.142-.712.427-.855.427-.285.285-1.425.712-1.709.712-.142 0-.427.142-.712.285-.142.142-.57.285-.712.285-.285 0-.57.142-.855.285a9.4 9.4 0 0 1-1.567.57l-1.425.427c-.142.142-.57.142-.855.142s-.712.142-1.14.285-.855.285-1.14.285-.855.142-1.14.285c-.427.142-.997.285-1.282.285s-.855.142-1.282.285c-.285.142-1.282.285-1.994.285s-1.852.142-2.422.142c-.997.142-22.65.427-24.359.285-.712 0-1.852-.57-5.128-2.137l-4.274-2.137h15.812zM98.86 189.031c0 1.282-.142 2.422-.142 2.422s-.285-.285-.427-.57a4.33 4.33 0 0 0-.712-.997c-.285-.285-.712-.712-.997-1.14-.997-1.282-2.707-2.991-4.843-4.701-.285-.285-1.425-.997-2.422-1.852-.997-.712-1.994-1.425-1.994-1.567-.142-.142-.427-.285-.855-.57-.427-.142-.712-.427-.712-.427l-.57-.285c-.427-.142-.855-.427-1.709-.997a34.09 34.09 0 0 1-1.567-.997 131.44 131.44 0 0 1-3.846-2.279c-.142-.142-.427-.285-.57-.285s-.427-.285-.57-.427-.427-.285-.57-.285-.285 0-.285-.142-.142-.285-.427-.285c-1.567-.855-2.137-1.14-2.279-1.282 0 0-.57-.285-.997-.712-.57-.285-1.14-.57-1.282-.712s-.57-.285-.712-.427-.57-.427-.997-.712-.855-.57-.997-.57-.285-.142-.285-.142c0-.142-.142-.142-.142-.142-.142 0-.997-.427-1.852-.997s-1.709-.997-1.709-.997c-.142 0-2.137-1.425-2.564-1.852-.142-.142-.285-.142-.285-.142l-1.709-1.14c-.142 0-.142 0-.142-.142s-.285-.285-.712-.57-.855-.57-.997-.712-.712-.57-1.282-.997c-2.707-1.994-5.84-4.843-7.123-6.41-.142-.285-.712-.855-1.14-1.425s-1.14-1.425-1.425-1.994-.712-.997-.712-.997l-1.425-2.279c-.712-1.282-1.425-2.279-1.567-2.564-.142-.142-.285-.427-.285-.57s-.285-.57-.285-.855c-.142-.285-.427-.855-.57-1.282s-.427-.855-.427-.997c-.142-.142-.142-.57-.142-.712 0-.285-.142-.57-.285-.855s-.285-.712-.285-.997-.142-.712-.285-.997-.285-.712-.427-1.282c-.142-.427-.285-1.567-.427-2.564-.142-.855-.427-2.564-.427-3.704-.142-1.14-.142-16.952-.142-35.043V62.821l-8.12-8.12-7.977-8.12c.142 0 .427.142.855.427.285.142 1.282.712 1.994 1.14.855.427 2.137 1.14 2.991 1.567s1.852.997 2.279 1.282.855.427.855.57.142.142.427.142c.142 0 .427.142.57.285a1.09 1.09 0 0 0 .712.285c.285 0 1.852 1.425 4.701 4.274l4.274 4.131v33.618l.142 34.473c.142.427.285 1.282.285 1.994s.142 1.282.285 1.567c.142.142.142.57.142.997s.142.997.285 1.282c.142.427.285.855.285 1.14s.142.712.285.997.285.57.285.855.142.57.285.997c.142.285.285.712.285.855s.142.427.142.427c.142 0 .142.285.142.427 0 .285.427 1.425.712 1.852.142.142.285.427.285.57.285.712 1.709 3.561 1.852 3.704 0 0 .285.427.427.712.427.712 2.279 3.276 2.564 3.704.142.142.285.285.285.427 0 .285 4.843 5.128 5.983 5.983a10.25 10.25 0 0 1 .997.855c.427.427 6.125 4.558 6.838 4.843.142 0 .57.285.855.427s.712.427.855.427.285.142.285.285l.855.57c.427.285.855.427.997.57s.712.427 1.852.997a2.01 2.01 0 0 1 .712.427c.142.142.712.57 1.709.997.427.285.855.427.997.57s.285.142.57.285l1.425.712c.57.285 1.282.712 1.709.997s.855.427.855.57l.57.285c.285.142.855.427 1.425.855.57.285 1.14.57 1.282.712s.855.427 1.282.855c.57.285.997.712 1.14.712.427.142.855.57 2.564 1.709.855.57 1.709 1.14 1.994 1.282.142.142.427.285.57.427s.57.427.997.712l.855.57s.57.427.997.855c2.422 1.994 5.271 4.701 5.413 5.413 0 .285.142.712.285.997.142.142.142 1.567.142 2.849zm57.55-56.553s-.142 0-.142-.285c0-.142 0-.285.142-.142zm6.695-79.202l-4.131 3.989-3.276 3.276-.142 32.621c-.142 31.766-.142 33.618-.712 36.467-.142.57-.285 1.709-.427 2.564-.57 3.134-1.709 7.265-2.422 9.117-2.564 6.125-4.558 9.402-8.262 13.248-1.567 1.567-5.413 4.701-7.123 5.698-5.128 3.134-4.843 2.991-10.969 5.983-6.553 3.276-8.974 4.416-11.254 5.84-2.137 1.14-6.695 4.416-9.544 6.838l-1.709 1.425-1.852 1.852c-.997.997-1.852 1.709-1.994 1.709s-.997-.712-1.994-1.567c-2.564-2.422-4.701-4.274-5.698-4.843-.285-.142-.57-.285-.712-.427-.285-.142-1.425-.997-2.279-1.567-.142-.142-.57-.285-.712-.285s-.285-.142-.285-.285-.142-.142-.427-.285c-.285 0-.427-.142-.427-.285s-.142-.142-.285-.142-.427-.142-.57-.285-.285-.285-.427-.285-.285 0-.285-.142-1.709-1.14-2.279-1.425c-.142 0-.285-.142-.285-.285s-.142-.142-.285-.142-.57-.142-.855-.427-.57-.427-.712-.427-.285-.142-.427-.142c0-.142-.285-.285-.57-.427s-.57-.285-.712-.427-1.709-.997-3.419-1.994c-6.553-3.704-12.821-7.692-14.815-9.259-2.564-2.137-5.698-4.986-7.123-6.695-1.709-1.994-3.989-5.413-4.843-6.838-.142-.427-.57-.997-.712-1.425-.285-.427-.427-.855-.427-.997s-.142-.427-.285-.427c-.142-.142-.285-.427-.285-.57s-.142-.57-.285-.997c-.57-1.14-.57-1.14-.712-1.852 0-.427-.142-.712-.285-.712s-.142-.285-.142-.427-.142-.57-.285-.997c-.142-.285-.285-.855-.285-1.14s-.142-.997-.285-1.425-.285-1.282-.427-1.852-.285-1.567-.427-2.279c-.142-.997-.285-8.547-.285-35.328V60.541l-1.282-1.282c-.712-.712-2.564-2.422-4.131-3.846-2.279-2.279-2.707-2.707-2.422-2.849.285-.285 1.14-.142 1.14.142 0 .142.142.142.285 0 .285-.142.427-.142.57.142s.997.285 4.558.285c2.991 0 4.416 0 4.416-.142.142-.285 3.561-.427 7.407-.427 1.282 0 3.704-.142 5.413-.285s3.134-.285 3.419-.142h.57c.285-.142 1.709-.57 2.279-.57.997 0 6.838-1.852 8.262-2.564.285-.142.712-.285.855-.285s.427-.142.57-.142c.142-.142.57-.285.997-.427.997-.285 1.282 0 1.14.997-.285 1.567 1.14 3.989 2.849 4.843 2.564 1.425 5.413 1.14 6.98-.712.712-.712 1.567-3.276 1.567-4.416 0-1.709-.855-3.276-1.994-4.131-.57-.427-.712-.57-.712-.997s.427-.712 1.852-1.425c3.419-1.852 6.41-3.846 9.972-6.98 1.14-.997.855-.997 3.134.712 1.14.855 2.279 1.852 2.707 2.137s.712.427.712.57a14.64 14.64 0 0 0 1.425.997c3.419 2.137 3.561 2.279 6.41 3.846.427.285.855.57.997.712.142.427-.142.997-.57 1.14s-1.14.997-1.709 1.994c-.57 1.14-.57 3.134 0 4.558.427 1.14 1.567 2.279 2.849 2.991.855.427.997.57 2.564.427 1.425 0 1.852-.142 2.849-.57 1.994-.997 3.134-2.707 3.134-4.843 0-.712 0-1.425.142-1.567.142-.427.712-.427 1.567 0s1.709.855 2.849 1.282c.57.142 1.14.427 1.282.427.712.285 4.131 1.14 5.84 1.425 3.419.712 11.254 1.14 21.51 1.282 5.84.142 8.262.142 8.405.285-.57-.712-.855-.285-1.282.142z"/><use xlink:href="#C"/></g><g fill="#010101"><path d="M151.567 53.134c-9.829 0-13.818-.142-16.809-.712-4.558-.855-8.12-1.852-10.114-2.849-.997-.427-1.14-.427-1.282.57-.142 1.14-.997 2.849-1.709 3.704s-2.137 1.709-3.419 2.137c-2.137.712-5.84-.285-7.407-2.137-.712-.855-1.425-2.422-1.709-3.561-.285-1.567.142-3.704 1.282-5.413.285-.427.427-.855.427-.855 0-.142-.285-.427-.855-.712-.427-.285-1.709-1.14-2.849-1.994s-2.849-1.994-3.846-2.707-2.279-1.567-2.991-1.994-1.282-.855-1.425-.712c-.142 0-1.14.855-2.279 1.709s-3.419 2.422-4.986 3.561c-3.846 2.564-3.561 2.279-3.134 2.849s.997 1.567 1.425 2.849c.285.712.285 1.282.285 2.564-.142 1.709-.142 1.994-1.14 3.276-1.425 1.994-3.134 2.849-5.698 2.991-1.425 0-1.709 0-2.707-.57-1.994-.997-3.704-2.991-4.131-4.843-.285-1.14-.142-1.14-4.416.57-.142.142-.855.285-1.425.427s-1.425.427-1.709.427c-1.14.285-4.843.997-7.265 1.282-4.416.427-7.835.57-15.527.57-4.558 0-8.262 0-8.262.142s.142.427.57.712c.712.57 1.709 1.567 4.701 4.416l1.425 1.425v34.188c0 37.179 0 35.043.997 39.459.427 1.994.57 2.564 1.567 4.843.855 2.279 2.422 5.413 3.419 7.265 2.279 3.561 2.991 4.558 5.128 6.553 1.994 1.994 2.991 2.849 5.128 4.558.997.855 1.994 1.567 1.994 1.567.285.142 3.989 2.707 4.274 2.849.142 0 .712.427 1.14.712.57.427 1.567.997 2.137 1.282s1.567.997 2.279 1.282c.57.427 1.14.712 1.282.712a21.25 21.25 0 0 0 1.282.712 21.25 21.25 0 0 0 1.282.712s1.14.57 2.564 1.425 2.849 1.567 3.276 1.852 1.709.997 2.991 1.709l2.422 1.567c2.849 1.709 8.405 5.983 10.256 7.977.427.427.855.855.997.855.285 0 1.282-.855 3.419-2.707 2.279-1.994 7.265-5.698 10.399-7.55.142-.142.997-.57 1.852-1.14 2.564-1.567 3.276-1.994 9.687-5.128 8.12-3.989 9.259-4.701 12.393-6.98 2.991-2.137 4.131-3.276 7.835-6.98 2.279-2.279 4.131-5.413 5.556-8.832.285-.57.427-1.14.57-1.425 1.14-2.849 2.564-8.689 3.419-14.103.142-.997.285-11.538.285-34.188V60.541l.57-.57c.57-.427 2.137-1.852 3.989-3.561.285-.285.712-.712.997-.855l.997-.997c.427-.427.712-.712.712-.855 0-.427-4.558-.57-10.114-.57zm-32.621 34.33c0-.427.142-.997.142-1.14.142-.142.285-1.14.427-1.994s.285-2.564.427-3.561.427-2.707.427-3.561c.142-.855.285-1.709.427-1.994.142-.142.142-.855.142-1.425s.142-1.282.142-1.709c.142-.427.285-1.425.427-2.279s.285-2.137.427-2.849c.285-1.567.427-1.709 1.709-1.282.427.142.997.285 1.282.285.57 0 .997.427.712.997-.142.427-.57 2.991-.855 5.128-.142 1.282-.427 3.276-.855 4.843-.142.57-.285 1.567-.427 2.279-.142.57-.285 1.994-.427 2.991s-.427 2.422-.427 3.134c-.142.712-.285 1.709-.427 2.137-.285.997-.427 1.14-1.425.855-.285 0-.855-.142-1.282-.142h-.855v-.712zm4.843 18.519v20.798h-1.567c-1.14 0-1.709 0-1.709-.142s-.142-4.843 0-10.399v-10.114h3.276zm-17.806-34.615c.142-1.14.142-3.134.142-4.274v-2.137l.57-.427c.427-.285.712-.427 1.425-.285.427 0 2.279.142 3.846.285 2.849.142 2.991.142 3.704.712.997.712 1.14 1.14.855 3.419-.142 1.14-.285 3.134-.427 4.558l-.285 2.849c-.142.142-.142 1.14-.285 2.279-.285 5.271-.712 7.55-1.709 8.405-.285.285-.57.427-4.274.427-2.991 0-3.846 0-3.989-.285-.142-.427.142-11.823.427-15.527zm-2.564 34.615h1.425v20.798h-3.419c-.142-.142-.285-2.279-.285-10.399v-10.256l.427-.142c.285 0 .997-.142 1.852 0zM91.453 86.04c.142-1.852.57-5.128.712-5.84.142-.285.142-1.14.142-1.709s.142-1.282.142-1.709c.142-.285.285-1.425.427-2.422.142-1.709.427-3.561.712-5.84.142-.57.285-1.709.285-2.564.142-1.425.142-1.425.712-1.567.285-.142 1.425-.142 2.422-.142h1.852l.285.57c.142.285.427 1.14.427 1.709 0 .712.142 1.425.285 1.567s.142.712.142 1.14.142 1.14.285 1.709c.142.427.285 1.282.285 1.567 0 .427.142.855.142 1.14.142.285.285.997.427 1.709.427 2.991.57 3.704.712 4.274.142.285.142.855.142 1.282s.142.997.142 1.282c.142.427.57 2.564.57 3.846v.57h-3.419l-.142-1.14c-.142-1.425-.427-2.422-.855-2.564-.142 0-.997-.142-1.852-.285l-1.567-.142-.142.427c-.142.285-.285 1.14-.285 1.994s-.142 1.567-.285 1.709c.142.57-.427.57-1.425.57h-1.425zM65.954 67.664c.285-.285 1.709-.57 3.419-.712l1.567-.142.285.57c.142.285.285.712.285.855s.142.57.285.855.285.712.285.855.142.57.285.997c.142.285.427 1.14.57 1.709s.427 1.282.427 1.425c.142.142.142.427.142.712 0 .142.142.57.285.855s.285.712.285.855c0 .285.142.57.285.997.142.285.285.712.285.997s.142.427.142.57c.142 0 .285.427.285.855s.142.855.285.855.142.285.142.57.142.712.285.997.285.712.285.997.142.712.285.855.285.57.285.712c0 .285.142.712.285.997.712 1.567.855 2.564.427 2.849-.142 0-.855.142-1.567.285-1.14.142-1.425.142-1.709-.142a1.09 1.09 0 0 1-.285-.712c0-.142-.142-.712-.285-.997-.142-.427-.285-.997-.427-1.282-.142-.57 0-.57-2.707-.142-1.567.285-1.567.285-1.425 2.137.142 1.994 0 2.564-.57 2.564-.285 0-.712.142-1.14.285-.855.285-1.14.285-1.425.142 0-.285-.285-22.934.142-23.219zm13.248 38.604c1.14 0 1.709.142 1.852.285s.285.712.285 1.14c0 .57.285 1.709.427 2.564s.427 2.279.427 2.991c.142.712.285 1.567.427 1.709s.142.712.142 1.282c0 .427.142 1.282.285 1.567a6.06 6.06 0 0 1 .285 1.567c0 .427.142.997.142 1.282.142.142.285.997.427 1.709s.285 1.852.285 2.564c.142.712.142 1.425.142 1.567s-.57.285-1.425.285c-1.567 0-1.567-.142-2.137-1.852l-.427-1.282h-3.134l-.285.997c-.142.57-.285 1.14-.427 1.425 0 .285-.142.427-.285.57-.142 0-.855.142-1.709.142h-1.425v-.57c0-.285.142-.57.142-.712.142-.142.285-.712.427-1.425s.285-1.994.427-2.707c.142-.855.427-1.994.427-2.564.142-.57.142-1.282.285-1.425s.142-.712.285-1.425l.712-4.131c.142-.57.427-2.279.712-3.989.57-1.425.712-1.567 2.707-1.567zM60.826 92.45c-.285 0-.855.142-.997.285-.285.142-.712.142-.997.142s-.855.142-1.14.285c-.855.285-1.425.285-1.852 0a1.09 1.09 0 0 0-.712-.285c-.427 0-1.567-1.425-1.567-1.852 0-.142-.142-.285-.142-.427-.142-.142-.285-.57-.427-.997s-.285-1.14-.427-1.567-.285-.855-.427-.997-.142-.427-.142-.712-.142-.712-.285-.997-.285-.712-.285-.997-.142-.712-.285-.997-.285-.712-.285-.997-.142-.57-.142-.57c-.142 0-.285-.427-.285-.855s-.142-.855-.285-.855-.142-.285-.142-.57-.142-.712-.285-.997-.285-.712-.285-.997-.142-.712-.285-.997c-.427-.855-.855-2.564-.855-2.991 0-.142-.142-.427-.142-.427-.142 0-.142-.285-.142-.57s-.142-.57-.285-.997c-.285 0-.427-.427-.427-.712s-.142-.712-.285-.997c-.427-.712-.427-2.849-.142-3.134s1.282-.855 2.137-.997c.712-.142 1.709-.57 2.137-.712.142-.142.57-.142.997-.285s.712-.142.712-.285.285-.142.57-.142.57-.142.997-.285c.285-.142.997-.285 1.567-.285.855 0 1.14.142 1.567.57.285.285.712.712.712.997s.142.57.285.57.142.427.142.712c0 .427.142.997.285 1.282.142.427.285.997.285 1.282s.142.855.285 1.282c.427.997.427 1.567-.285 1.852s-2.279.712-2.849.855-.997-.285-.997-.997c0-.57-.57-2.279-.855-2.707s-1.425-.427-1.994 0c-.285.285-.427.427-.427 1.14 0 .427.142 1.14.285 1.425s.285.712.285.997.142.712.285.997.285.712.285.997.142.57.142.712c.142 0 .285.427.285.997 0 .427.142.855.285.997.142 0 .142.285.142.57s.142.712.285.997.285.712.285.997.142.712.285.997.285.712.285.997.142.57.142.712c.142 0 .285.427.285.855s.142.855.285.997c.142.427.57 1.709.712 2.564.142.712.57.997 1.567.997.997-.142 1.282-.57.855-2.422-.142-.712-.285-1.709-.427-2.279-.142-1.14.142-1.282 1.425-1.567.427 0 .855-.142.997-.285.285-.427 1.425.142 1.425.855 0 .142.142.427.142.57.142.142.285.855.427 1.567.427 2.707.57 3.134.712 3.561.142.285.142.997.142 1.567 0 .855 0 1.14-.57 1.567-.285.285-.855.57-1.14.57-.427.142-.712.142-.855.285 0 0-.285.142-.57.142zm.712 34.33c0-.285-.142-5.983 0-12.821v-12.393h4.416c6.695-.142 6.125-.712 6.125 8.12 0 7.55 0 7.265-1.282 7.977-.427.285-1.14.285-2.849.285-1.282 0-2.422 0-2.564.142-.285.142-.285.712-.285 4.274 0 2.279 0 4.416-.142 4.558-.142.285-.427.285-1.709.285-1.567 0-1.709 0-1.709-.427zm12.536 18.946c-.712.712-.997 1.282-.57 1.567.285.142.142 2.849-.142 3.846-.142.57-.285.712-.712.712-.285 0-.855-.142-1.14-.285l-.57-.285.142-1.709c.142-1.709 0-2.279-.57-2.279-.142 0-.427-.142-.712-.285-.855-.427-1.282-.427-1.709.427-.142.427-.427.997-.427 1.14 0 .285-.142.57-.142.712-.142.142-.285.427-.285.57-.142.285-.285.285-.712.142-.855-.142-1.567-.57-1.567-.855 0-.142.142-.427.285-.712s.285-.712.285-.997.142-.57.142-.57c.142 0 .285-.427.285-.997 0-.427.142-.855.285-.997.142 0 .142-.427.142-.712s.142-.855.285-.997c.142-.285.285-.712.285-.997s.142-.712.285-.997.285-.712.285-.997c0-.855 1.14-.855 2.991-.285.427.142 1.14.285 1.567.427 1.14.285 1.994.712 2.422 1.14.285.285.427.57.427 1.852v1.425zm10.399 7.835c-.285.427-1.282.427-1.852 0-.285-.285-.427-.57-.57-1.282-.142-.855-.142-.855-.712-.997-.285-.142-.855-.285-1.282-.427-.855-.285-1.709-.142-1.852.285 0 .142-.142.427-.285.57s-.285.427-.427.57-.427.427-.57.427c-.57 0-1.852-.57-1.852-.855 0-.142.997-2.137 1.14-2.279s.285-.57 1.14-2.137c.142-.427.427-.712.57-.855.142 0 .142-.285.142-.427s.142-.427.142-.427c.142 0 .285-.142.285-.427s.142-.427.285-.57c0 0 .285-.427.57-.997.285-.427.57-.997.57-1.282.142-.285.427-.427.997-.427 1.282 0 1.709.285 1.994 1.424.142.57.285 1.282.285 1.709s.142 1.282.285 1.852.285 1.425.285 1.852.142.855.142.855c.142 0 .142.427.142.855s.142 1.14.142 1.567c.427.712.427 1.282.285 1.425zm.712-66.667c-.142-.285-.285-.712-.427-.997s-.285-.712-.427-.997-.285-.712-.285-.855-.142-.427-.285-.712c-.142-.142-.285-.57-.285-.712s-.142-.57-.285-.712-.285-.57-.285-.712c0-.57-.427-.57-.57 0-.142.427-.142 1.14.142 2.991.285 2.707.427 3.561.142 3.704-.142 0-.712.142-1.282.285-1.567.142-1.852-.142-1.852-1.994 0-.712-.142-1.567-.142-1.852-.142-.285-.285-1.425-.427-2.422-.285-3.846-.57-5.983-.712-6.695-.142-.285-.142-1.14-.142-1.709s-.142-1.425-.142-1.994c-.285-1.567-.57-5.271-.285-5.698.142-.142.427-.285.855-.285.285 0 .855-.142 1.14-.285.427-.142.57-.142.997 0 .285.142.427.285.427.427s.142.57.285.855.427 1.282.712 1.994.57 1.567.712 1.852.285.712.285.855.142.427.285.712c.142.142.285.57.285.712s.142.427.142.712c.142.285.142.285.427 0 .285-.427.285-5.983 0-6.98-.285-1.282-.142-1.567 1.425-1.709 1.994-.142 1.994-.285 2.137 3.134 0 1.567.142 3.134.285 3.419s.142 1.567.142 2.991c0 1.282.142 3.134.142 3.846.142.855.285 2.991.427 4.843.142 4.131.142 4.274-1.282 4.274-1.567.427-1.994.285-2.279-.285zm5.128 58.405c-.142.997-.142 2.707-.285 3.704 0 1.852-.285 4.131-.427 4.986-.142.285-.285.285-1.282.285h-1.14l.142-2.279c0-1.282.142-3.704.285-5.413.142-3.419.142-3.419 1.567-3.419 1.282.142 1.425.142 1.14 2.137zm-.855-18.661c-.427-.142-.997-.712-1.14-1.282s-.285-16.809 0-17.664c.142-.712.712-1.282.997-1.282.142 0 .427-.142.427-.142 0-.142 1.282-.142 3.134-.142 3.134 0 3.989.142 4.416.997a2.05 2.05 0 0 1 .285.427c.142 0 .142 1.425.142 2.991v2.849h-3.134l-.142-1.425c-.142-1.14-.142-1.567-.57-1.994-.57-.712-1.425-.712-1.994 0l-.57.57v11.966l.57.57c.712.712 1.282.712 1.994 0l.57-.57v-4.274h3.419v3.419c0 3.846-.142 4.274-1.282 4.843-.427.142-1.282.285-3.561.285-1.852 0-3.419 0-3.561-.142zm10.969 27.778c-.142.712-.285.712-.712.712-.285 0-1.852-.142-3.419-.142l-2.849-.142v-.855c0-.427.142-1.852.142-3.134.142-1.282.285-3.276.285-4.558l.142-2.422h2.279l-.142 4.131c-.142 3.134 0 4.131.142 4.274s1.14.142 2.137.285c1.852 0 1.994 0 2.137.57 0 .285 0 .712-.142 1.282zm11.396-9.117c-.142.712-.285 1.709-.285 2.137s-.142 1.282-.285 1.852-.285 1.567-.285 2.137-.142 1.14-.142 1.14c-.142 0-.142.285-.142.712 0 .997-.142 1.14-.997 1.14s-1.425-.427-1.425-.997c0-.142-.142-.427-.285-.57a1.09 1.09 0 0 1-.285-.712c0-.285-.855-1.14-.997-.997l-.285 1.425c-.142.712-.142 1.567-.285 1.709-.142.427-.285.427-1.14.427-.997 0-1.425-.285-1.425-.855 0-.285-.142-.712-.285-.997s-.427-1.14-.57-1.709-.427-1.14-.427-1.282c-.142-.142-.142-.427-.285-.712-.142-.57-.427-1.425-.855-2.422-.142-.285-.285-.855-.285-.997 0-.285-.142-.427-.142-.57-.285-.142-.142-.712.285-.997.997-.427 1.709-.142 1.709.57 0 .142.142.57.285.997.57 1.14.57 1.425.712 1.994 0 .285.285.57.427.57.285 0 .855-1.14.855-2.279 0-.427.285-1.14.427-1.567.285-.712.285-.712.997-.712s.712.142 1.14 1.282c.285.712.57 1.282.57 1.425s.142.427.285.712c0 .285.142.57.285.57.285 0 .855-1.567.855-2.422 0-.427.142-.997.285-1.425.285-.57.285-.57 1.14-.57 1.14 0 1.282.142.855 1.994zm.855-26.781c-.142.285-.142 2.279-.142 4.416v3.846h-1.567c-.855 0-1.567 0-1.709-.142-.142 0-.285-2.279-.285-10.114l.142-10.256c.142-.285.712-.285 4.843-.285h4.843v3.704h-2.991c-1.994 0-2.991 0-3.134.285-.285.285-.285 3.704 0 4.131s.427.427 2.279.427h2.137v3.419h-2.137c-2.137.142-2.137.142-2.279.57zm10.826 33.903c-.855.427-1.282.427-1.425-.142 0-.142-.142-.427-.285-.427s-.142-.142-.142-.285-.142-.427-.427-.712c-.427-.427-.57-.427-1.567-.285-1.425.285-1.852.427-1.852.855 0 .142 0 .427-.142.427-.142.142-.285.427-.285.855-.142.712-.142.712-1.282.712h-1.14l.142-1.282c0-.712.285-1.994.427-2.849s.427-2.137.427-2.991c.142-.712.285-1.425.285-1.567s.142-.712.285-1.14c.142-.997.142-.997.712-1.282 1.282-.57 1.994-.427 2.707.712.142.285.285.427.57.997 0 .142.285.712.57 1.14.285.57.855 1.567 1.425 2.564.427.855.997 1.994 1.282 2.422s.57.855.57.997c.142.57-.285.997-.855 1.282zm7.692-11.538c-.142.285-.285.712-.285.855s-.142.427-.285.712c-.142.142-.285.57-.285.855s0 .57-.142.712c-.285.285-.855 2.137-.712 2.279.142.285.57 2.279.855 3.419.142.855.142.997-.142 1.282-.142.142-.712.285-1.14.285-.855 0-.855 0-1.14-.712-.142-.427-.285-.855-.285-1.14s-.142-.712-.285-.855c-.142-.285-.285-.712-.285-.997 0-.57-.57-1.282-1.994-2.422-2.137-1.709-2.991-2.707-2.991-2.991 0-.142.142-.285.285-.285s.57-.142.855-.285l.57-.285 1.425 1.14c.855.57 1.567 1.14 1.709 1.282.285.427.997 0 1.14-.57 0-.285.142-.712.285-.855.285-.427.712-1.567.855-1.994s.997-.712 1.709-.57c.712 0 .712.427.285 1.14zm3.704 8.832c-.285 0-.712.142-.855.142-.285 0-.285 0-.285-.285 0-.142-.142-.427-.142-.427-.285-.142-.142-.712.285-.997.712-.427 1.14-.285 1.282.285 0 .285.142.712.285.855-.142.142-.142.285-.57.427zm-3.704-32.621c0 6.41 0 6.695 1.425 6.695.712 0 .855 0 1.282-.427s.427-.712.427-2.564v-2.137h3.134v3.419c0 2.849 0 3.419-.285 3.704-.142.142-.285.285-.285.427s-.285.285-.712.57c-.997.427-6.41.427-7.123 0-1.14-.712-1.14-.427-1.14-9.402v-8.974c.142-.57.285-.997.712-1.282l.57-.57h6.98l.57.57a4.33 4.33 0 0 1 .712.997c.142.285.142 1.567 0 3.134v2.707h-3.134v-1.567c0-1.425-.142-1.567-.57-1.994-.57-.427-1.567-.57-1.994-.142-.57.142-.712 1.425-.57 6.838zm6.125-43.162c-.142 1.14-.285 2.564-.285 3.276s-.142 1.852-.142 2.422c-.142.57-.285 2.422-.427 3.846-.427 6.98-.57 7.977-.855 8.12-.142.142-.285.142-.285.142s-.57-.142-1.282-.142c-1.709-.142-1.852-.427-1.567-2.849.142-1.282 0-1.852-.57-1.852-.142 0-.57-.142-.855-.285s-.855-.285-1.282-.285c-.57-.142-.855 0-1.14.285-.142.142-.427.57-.427.712 0 .427-.712 2.279-.855 2.422s-.855.142-2.137-.142c-.712-.142-1.282-.712-.997-1.14.142-.142.285-.712.427-1.14s.427-.997.57-1.282.285-.57.285-.712.142-.427.285-.712.427-.712.427-1.14c.142-.285.285-.855.427-1.14a14.78 14.78 0 0 0 .57-1.425 14.78 14.78 0 0 1 .57-1.425c.142-.285.285-.712.285-.855s.142-.285.142-.285c.142 0 .142-.142.142-.285s.142-.427.285-.712c.142-.142.285-.57.285-.712s.142-.57.285-.712.285-.57.285-.712.142-.57.285-.855.427-.855.57-1.282.427-.855.427-1.14c.142-.142.285-.712.427-1.14s.427-.997.57-1.282.285-.57.285-.855c0-.57.57-.712 1.567-.57.57.142 1.14.285 1.282.285.142.142.57.142.997.285 1.425.285 1.567.285 1.567 1.994.142.855 0 2.279-.142 3.276zm15.812.57c-.142 0-.142.285-.142.57s-.142.57-.285.997c-.142.285-.285.712-.285.855a1.09 1.09 0 0 1-.285.712c-.142.142-.285.57-.285.712s0 .427-.142.57-.285.712-.427 1.282a9.4 9.4 0 0 1-.57 1.567c-.142.285-.285.712-.285.997a1.09 1.09 0 0 1-.285.712c-.142.142-.285.57-.285.712 0 .285 0 .427-.142.57-.142 0-.285.427-.285.712 0 .427-.142.855-.285.997-.142.427-.57 1.567-.712 1.994 0 .285-.142.57-.285.855s-.285.57-.285.712c0 .285-.142.57-.285.997-.142.285-.285.712-.285.855s-.142.427-.142.427c-.142 0-.142.285-.142.427s-.142.57-.285.855c-.427.997-.997 1.14-2.422.427-1.14-.57-1.14-.57-.997-4.274.142-1.852.142-3.419.142-3.561-.142-.285-.997.855-.997 1.425 0 .285-.142.57-.285.855-.142.142-.285.57-.285.712 0 .285-.142.57-.285.997-.142.285-.285.712-.285.855s-.142.712-.285 1.14c-.285.712-.427.712-.855.57-.285 0-.855-.142-1.282-.427-.712-.285-.712-.285-.855-.997 0-.427 0-.997.285-1.282.142-.285.285-.712.285-.997s.142-.712.285-.997.285-.712.285-.997.142-.57.142-.57c.142 0 .285-.427.285-.855s.142-.855.285-.997c.142-.285.427-1.425.712-2.564.142-.285.285-.855.427-.997.142-.285.142-.712.142-.997s.142-.57.142-.712c.142 0 .285-.427.285-.855s.142-.855.285-.997c.142-.285.427-1.14.712-2.564.142-.427.285-.855.427-1.14s.285-1.14.57-1.709l.285-1.14h1.14c1.14 0 2.137.285 2.137.57v4.558c0 2.707.142 4.416.142 4.416.142 0 .427-.57.712-1.282.285-.855.57-1.425.57-1.567 0 0 .142-.285.142-.427s.142-.57.285-.855c.285-.712.712-1.709.855-2.279.285-1.14.712-1.709.997-1.567.142 0 .712.285 1.14.427 1.282.285 1.709.57 1.709 1.282-.427 0-.427.285-.57.285z"/><use xlink:href="#B"/><path d="M179.06 46.581c-.57-.142-7.835-.285-23.789-.57l-16.809-.427c-3.134-.57-8.832-1.994-11.254-2.849-.427-.142-.855-.285-1.14-.427l-5.128-1.994c-.142-.142-.427-.142-.57-.142s-.142 1.282-.142 3.704c0 3.276 0 3.846-.285 4.274-.855 1.14-2.137 1.709-3.419 1.282-1.425-.427-2.279-1.14-2.707-2.422-.142-.57-.142-.855 0-1.567.285-.855.57-1.14 1.994-1.567.285-.142.285-.427.285-2.849v-2.849l-1.567-.855c-.855-.427-1.709-.997-1.852-.997-.142-.142-.57-.427-.997-.57-.427-.285-.855-.427-.855-.57s-.142-.142-.142-.142c-.427 0-5.128-3.419-7.692-5.698-2.137-1.852-3.989-3.276-4.274-3.276-.142 0-.712.57-1.282 1.14s-1.709 1.567-2.422 2.137-1.567 1.282-1.709 1.425c-.285.285-.57.427-.57.427s-.285.142-.427.285c-.57.57-1.852 1.425-1.994 1.425s-.285 0-.285.142-3.561 2.422-5.983 3.989l-.997.712v2.849c0 3.134 0 3.134 1.14 3.276 1.567.285 2.279 2.137 1.282 3.419-1.14 1.567-3.704 1.852-4.986.57-.712-.57-.997-2.137-.712-2.422.285-.142.427-1.709.285-3.704-.142-1.852-.142-1.852-.57-1.852-.285 0-.855.285-1.425.57-1.14.57-2.279.997-2.849 1.14-.142 0-.57.142-.712.285-1.14.427-5.983 1.852-8.547 2.422-5.271 1.14-5.556 1.282-26.353 1.282-10.684 0-18.946.142-18.946.285s5.271 5.698 13.39 13.96l3.846 3.846v32.479l.57 38.034c.142 1.425.285 1.852.855 4.274.285 1.282 1.282 4.131 1.567 4.986.427.997 1.994 4.416 2.422 4.986 1.852 3.276 5.128 7.265 8.689 10.541 1.852 1.709 6.41 5.271 7.977 6.268.427.285 3.561 2.279 3.989 2.707.57.427 8.547 5.271 8.832 5.413.142 0 .57.285.855.427s.712.427.855.427.712.427 1.425.855c.57.427 1.282.712 1.425.855s.427.285.712.427c.142.142.855.57 1.425.855.57.427 1.282.712 1.425.855s.427.285.712.427c1.425.712 6.125 3.846 8.547 5.698 1.852 1.425 2.564 1.994 4.558 4.131 2.137 2.137 2.422 2.564 3.419 4.416a10.25 10.25 0 0 0 .855 1.425c0 0 .427-.427.712-.997.712-1.282 2.991-4.274 3.846-5.271 4.986-5.413 9.829-8.832 21.225-14.672l9.544-4.986c.855-.427 1.425-.855 1.567-.855s.997-.57 2.137-1.282 2.137-1.282 2.279-1.282 3.846-2.564 5.128-3.561c1.567-1.282 1.994-1.567 3.276-3.134.57-.57 1.14-1.282 1.14-1.425.427-.427 2.279-2.991 3.276-4.558 2.279-3.419 4.843-8.974 5.983-13.248.142-.57.427-1.425.57-1.994.427-1.282.855-3.276 1.567-7.55.285-1.709.285-4.274.427-34.046l.427-32.479c.142-.142 1.14-1.14 2.137-1.994s2.564-2.279 3.276-3.134c.855-.712 2.422-2.279 3.561-3.419 1.14-.997 2.422-2.137 2.707-2.564.285-.285 1.567-1.425 2.849-2.564s2.279-2.137 2.422-2.279c.285-.142.285-.142 0-.285zm-61.396 6.268c.712-.142 2.422-1.709 2.707-2.564.142-.285.285-.427.427-.427s.285.142.142.285-.285.57-.427.997c-.285.57-1.14 1.567-1.852 2.137-.142.142-.57.285-1.14.427-1.425.427-2.707.142-3.846-.997-.855-.855-1.282-1.425-1.709-2.849-.285-1.14-.427-1.709-.142-1.709.142 0 .142.142.142.285s0 .427.142.57.285.712.57 1.14c1.14 2.279 2.991 3.276 4.986 2.707zm-16.239-19.231c.427.285 1.425 1.14 2.279 1.852s1.567 1.282 1.709 1.282c.142.285 4.416 2.991 4.986 3.276.142 0 .855.427 1.425.855s1.282.712 1.282.712c.142 0 .285.142.427.285s.427.285.57.285.427.142.712.285c.427.285.285.57-.142.427s-2.991-1.425-3.989-1.994c-.285-.285-.712-.427-.855-.57-.142 0-.57-.285-.855-.57s-.57-.427-.712-.427-.427-.285-.855-.57-.712-.57-.855-.57-2.707-1.852-3.134-2.279c-.142-.142-.427-.427-.712-.57-.997-.712-2.137-1.852-2.137-2.137-.142-.285.142-.142.855.427zM84.33 42.308c-.142 0-.285-.57-.285-2.137 0-2.422-.142-2.137 2.137-3.419.427-.285.855-.427.855-.57.142-.142.712-.57 1.282-.712.285-.142.427-.285.427-.427s.142-.142.142-.142c.285 0 3.989-2.849 6.553-4.843.427-.285 1.14-.855 1.425-1.282.427-.285.855-.855 1.14-.997.285-.285.57-.427.57-.427s.142 1.14.142 2.707v2.707l-.712.57c-.427.285-.997.855-1.282 1.14s-.712.57-.997.855c-.142.285-.427.427-.57.427s-.427.285-.855.57c-.285.285-.997.712-1.282.997-.427.285-.855.57-.997.712-.427.285-.997.712-1.282.855-.142 0-.285.142-.285.285l-1.709 1.14c0 .142-.142.142-.427.142-.142 0-.427.142-.427.142 0 .142-.855.57-1.852.997-.712.285-1.567.712-1.709.712zm-2.422 9.544c1.425.712 2.991.427 4.131-.855.57-.712 1.282-1.994 1.282-2.564 0-.285.142-.57.285-.855.285-.285.285-.285.427.285.142.427 0 .855-.142 1.425-.142.427-.285.997-.285 1.14 0 .427-.997 1.567-1.852 1.994-.712.57-1.14.57-2.279.57-1.709 0-2.137-.285-3.419-1.425-.855-.855-1.567-2.137-1.425-2.279s.712.142.712.427 1.709 1.709 2.564 2.137zm-40.313-5.128l17.806-.142c3.561-.285 4.986-.427 5.271-.712.142-.142.57-.285 1.14-.285 1.14-.142 2.707-.57 2.849-.712s.285-.142.57-.142.712-.142.997-.285.712-.285.997-.285a1.09 1.09 0 0 0 .712-.285c.142-.142.57-.285.712-.285.285 0 .427-.142.57-.142 0-.142.427-.285.712-.285.285-.142.712-.142.855-.285s.57-.285.997-.427.997-.427 1.282-.57.712-.285.855-.285.427-.142.712-.285c.142-.142.427-.285.57-.142.142 0 .142.997.142 2.137v2.137l-.712.285c-.427.142-.712.427-.855.427-.285.285-1.425.712-1.709.712-.142 0-.427.142-.712.285-.142.142-.57.285-.712.285-.285 0-.57.142-.855.285a9.4 9.4 0 0 1-1.567.57c-.57.142-1.282.427-1.425.427-.142.142-.57.142-.855.142s-.712.142-1.14.285-.855.285-1.14.285-.855.142-1.14.285c-.427.142-.997.285-1.282.285s-.855.142-1.282.285c-.285.142-1.282.285-1.994.285s-1.852.142-2.422.142c-.997.142-22.65.427-24.359.285-.712 0-1.852-.57-5.128-2.137l-4.274-2.137h15.812zM98.86 189.031c0 1.282-.142 2.422-.142 2.422s-.285-.285-.427-.57a4.33 4.33 0 0 0-.712-.997c-.285-.285-.712-.712-.997-1.14-.997-1.282-2.707-2.991-4.843-4.701-.285-.285-1.425-.997-2.422-1.852-.997-.712-1.994-1.425-1.994-1.567-.142-.142-.427-.285-.855-.57-.427-.142-.712-.427-.712-.427l-.57-.285c-.427-.142-.855-.427-1.709-.997-.712-.427-1.14-.712-1.567-.997-.285-.142-3.419-1.994-3.846-2.279-.142-.142-.427-.285-.57-.285s-.427-.285-.57-.427-.427-.285-.57-.285-.285 0-.285-.142-.142-.285-.427-.285c-1.567-.855-2.137-1.14-2.279-1.282 0 0-.57-.285-.997-.712-.57-.285-1.14-.57-1.282-.712s-.57-.285-.712-.427-.57-.427-.997-.712-.855-.57-.997-.57-.285-.142-.285-.142c0-.142-.142-.142-.142-.142-.142 0-.997-.427-1.852-.997s-1.709-.997-1.709-.997c-.142 0-2.137-1.425-2.564-1.852-.142-.142-.285-.142-.285-.142l-1.709-1.14c-.142 0-.142 0-.142-.142s-.285-.285-.712-.57-.855-.57-.997-.712-.712-.57-1.282-.997c-2.707-1.994-5.84-4.843-7.123-6.41-.142-.285-.712-.855-1.14-1.425s-1.14-1.425-1.425-1.994-.712-.997-.712-.997l-1.425-2.279c-.712-1.282-1.425-2.279-1.567-2.564-.142-.142-.285-.427-.285-.57s-.285-.57-.285-.855c-.142-.285-.427-.855-.57-1.282s-.427-.855-.427-.997c-.142-.142-.142-.57-.142-.712 0-.285-.142-.57-.285-.855s-.285-.712-.285-.997-.142-.712-.285-.997-.285-.712-.427-1.282c-.142-.427-.285-1.567-.427-2.564-.142-.855-.427-2.564-.427-3.704-.142-1.14-.142-16.952-.142-35.043V62.821l-8.12-8.12-7.977-8.12c.142 0 .427.142.855.427.285.142 1.282.712 1.994 1.14.855.427 2.137 1.14 2.991 1.567s1.852.997 2.279 1.282.855.427.855.57.142.142.427.142c.142 0 .427.142.57.285a1.09 1.09 0 0 0 .712.285c.285 0 1.852 1.425 4.701 4.274l4.274 4.131v33.618l.142 34.473c.142.427.285 1.282.285 1.994s.142 1.282.285 1.567c.142.142.142.57.142.997s.142.997.285 1.282c.142.427.285.855.285 1.14s.142.712.285.997.285.57.285.855.142.57.285.997c.142.285.285.712.285.855s.142.427.142.427c.142 0 .142.285.142.427 0 .285.427 1.425.712 1.852.142.142.285.427.285.57.285.712 1.709 3.561 1.852 3.704 0 0 .285.427.427.712.427.712 2.279 3.276 2.564 3.704.142.142.285.285.285.427 0 .285 4.843 5.128 5.983 5.983.57.427.997.855.997.855.427.427 6.125 4.558 6.838 4.843.142 0 .57.285.855.427s.712.427.855.427.285.142.285.285l.855.57c.427.285.855.427.997.57s.712.427 1.852.997a2.01 2.01 0 0 1 .712.427c.142.142.712.57 1.709.997.427.285.855.427.997.57s.285.142.57.285l1.425.712c.57.285 1.282.712 1.709.997s.855.427.855.57l.57.285c.285.142.855.427 1.425.855.57.285 1.14.57 1.282.712s.855.427 1.282.855c.57.285.997.712 1.14.712.427.142.855.57 2.564 1.709.855.57 1.709 1.14 1.994 1.282.142.142.427.285.57.427s.57.427.997.712l.855.57s.57.427.997.855c2.422 1.994 5.271 4.701 5.413 5.413 0 .285.142.712.285.997.142.142.142 1.567.142 2.849zm57.55-56.553s-.142 0-.142-.285c0-.142 0-.285.142-.142zm6.695-79.202c-.427.427-2.279 2.137-4.131 3.989l-3.276 3.276-.142 32.621c-.142 31.766-.142 33.618-.712 36.467-.142.57-.285 1.709-.427 2.564-.57 3.134-1.709 7.265-2.422 9.117-2.564 6.125-4.558 9.402-8.262 13.248-1.567 1.567-5.413 4.701-7.123 5.698-5.128 3.134-4.843 2.991-10.969 5.983-6.553 3.276-8.974 4.416-11.254 5.84-2.137 1.14-6.695 4.416-9.544 6.838l-1.709 1.425-1.852 1.852c-.997.997-1.852 1.709-1.994 1.709s-.997-.712-1.994-1.567c-2.564-2.422-4.701-4.274-5.698-4.843-.285-.142-.57-.285-.712-.427-.285-.142-1.425-.997-2.279-1.567-.142-.142-.57-.285-.712-.285s-.285-.142-.285-.285-.142-.142-.427-.285c-.285 0-.427-.142-.427-.285s-.142-.142-.285-.142-.427-.142-.57-.285-.285-.285-.427-.285-.285 0-.285-.142-1.709-1.14-2.279-1.425c-.142 0-.285-.142-.285-.285s-.142-.142-.285-.142-.57-.142-.855-.427-.57-.427-.712-.427-.285-.142-.427-.142c0-.142-.285-.285-.57-.427s-.57-.285-.712-.427-1.709-.997-3.419-1.994c-6.553-3.704-12.821-7.692-14.815-9.259-2.564-2.137-5.698-4.986-7.123-6.695-1.709-1.994-3.989-5.413-4.843-6.838-.142-.427-.57-.997-.712-1.425-.285-.427-.427-.855-.427-.997s-.142-.427-.285-.427c-.142-.142-.285-.427-.285-.57s-.142-.57-.285-.997c-.57-1.14-.57-1.14-.712-1.852 0-.427-.142-.712-.285-.712s-.142-.285-.142-.427-.142-.57-.285-.997c-.142-.285-.285-.855-.285-1.14s-.142-.997-.285-1.425-.285-1.282-.427-1.852-.285-1.567-.427-2.279c-.142-.997-.285-8.547-.285-35.328V60.541l-1.282-1.282c-.712-.712-2.564-2.422-4.131-3.846-2.279-2.279-2.707-2.707-2.422-2.849.285-.285 1.14-.142 1.14.142 0 .142.142.142.285 0 .285-.142.427-.142.57.142s.997.285 4.558.285c2.991 0 4.416 0 4.416-.142.142-.285 3.561-.427 7.407-.427 1.282 0 3.704-.142 5.413-.285s3.134-.285 3.419-.142h.57c.285-.142 1.709-.57 2.279-.57.997 0 6.838-1.852 8.262-2.564.285-.142.712-.285.855-.285s.427-.142.57-.142c.142-.142.57-.285.997-.427.997-.285 1.282 0 1.14.997-.285 1.567 1.14 3.989 2.849 4.843 2.564 1.425 5.413 1.14 6.98-.712.712-.712 1.567-3.276 1.567-4.416 0-1.709-.855-3.276-1.994-4.131-.57-.427-.712-.57-.712-.997s.427-.712 1.852-1.425c3.419-1.852 6.41-3.846 9.972-6.98 1.14-.997.855-.997 3.134.712 1.14.855 2.279 1.852 2.707 2.137s.712.427.712.57c0 0 .712.427 1.425.997 3.419 2.137 3.561 2.279 6.41 3.846.427.285.855.57.997.712.142.427-.142.997-.57 1.14s-1.14.997-1.709 1.994c-.57 1.14-.57 3.134 0 4.558.427 1.14 1.567 2.279 2.849 2.991.855.427.997.57 2.564.427 1.425 0 1.852-.142 2.849-.57 1.994-.997 3.134-2.707 3.134-4.843 0-.712 0-1.425.142-1.567.142-.427.712-.427 1.567 0s1.709.855 2.849 1.282c.57.142 1.14.427 1.282.427.712.285 4.131 1.14 5.84 1.425 3.419.712 11.254 1.14 21.51 1.282 5.84.142 8.262.142 8.405.285-.57-.712-.855-.285-1.282.142z"/><use xlink:href="#C"/></g><defs ><path id="B" d="M70.798 142.45c-.285 0-.712-.142-.997-.285-.427-.142-.427 0-.712.427-.142.285-.142.712-.142 1.14s.142.57.57.57a1.09 1.09 0 0 1 .712.285c.57.57 1.994-.285 1.709-.997 0-.57-.57-.997-1.14-1.14zm9.117-22.365c.142-.285.142-.427 0-1.282l-.427-1.425c-.142-.712-.427-.712-.855.142s-.57 2.137-.285 2.564c.142.285 1.282.285 1.567 0zm16.952-40.883h1.14v-.712c0-.427 0-1.14-.285-1.852-.142-.57-.285-1.425-.285-1.852s-.142-.997-.285-1.425-.285-.855-.285-1.14c0-.142-.142-.427-.285-.427s-.285.285-.427 1.14c0 .57-.142 1.282-.285 1.425 0 .142-.142.997-.285 1.709l-.285 1.994c-.142.285 0 .57.142.855s.57.285 1.425.285zm21.51 67.664c-.285.142-.285 1.425 0 1.709 0 0 .285.142.427 0 .142 0 .427-.142.57-.142.427 0 .285-.855-.142-1.282-.427-.285-.712-.285-.855-.285z"/><path id="C" d="M133.333 75.926c-.285-.142-.997.427-.997.712 0 .142-.142.427-.142.57-.285.57-1.282 2.849-1.282 2.991s-.142.427-.285.712-.427.712-.427.855c-.142.142 0 .427.57.712.427.285.997.427 1.282.427.855 0 .997-.427 1.14-3.846l.285-2.991s0-.142-.142-.142zm-23.362 7.977c1.709 0 1.994-.712 2.279-5.413l.285-4.558c.285-1.994.285-5.128 0-5.413-.142-.142-.712-.285-1.282-.427-1.567-.285-1.709-.285-1.852 2.279l-.285 2.991c-.142.427-.142 1.994-.142 3.276l-.142 4.416c-.142 1.994-.142 2.137.142 2.422.142.285.427.427.997.427zm-40.171-1.852c1.852-.285 1.852-.285 1.994-.855 0-.285 0-.57-.142-.855-.285-.427-.57-1.567-.712-1.994 0-.142-.142-.57-.285-.997-.142-.285-.285-.712-.285-.855s0-.285-.142-.427-.285-.427-.285-.855c-.285-.997-.427-.997-.712 0s-.285 6.41 0 6.695c-.142.142.285.285.57.142zm-1.994 31.624c.427-.285.427-.427.427-3.989v-3.704l-.427-.285c-.57-.427-2.137-.427-2.564 0-.285.285-.285.712-.285 3.989 0 2.991 0 3.704.285 3.989.285.57 1.994.57 2.564 0zm12.963 33.048c-.285 0-.855 1.14-.712 1.425s1.425.285 1.567 0c0-.285-.712-1.425-.855-1.425z"/></defs></svg>