<svg xmlns="http://www.w3.org/2000/svg" width="200" height="200" viewBox="0 0 200 200">
    <circle class="color-red color-main" fill="#c62631" cx="100" cy="100" r="100"/>
    <g class="color-white" fill="#fff">
        <path d="M151.566955 53.133902c-9.82906 0-13.817664-.14245-16.809117-.712251-4.558405-.854701-8.119659-1.851852-10.113961-2.849003-.997151-.42735-1.139601-.42735-1.282051.5698-.14245 1.139602-.997151 2.849003-1.709402 3.703704-.71225.854701-2.136752 1.709402-3.418804 2.136753-2.136752.71225-5.840456-.2849-7.407408-2.136753-.71225-.8547-1.424501-2.421652-1.709401-3.561253-.2849-1.566952.14245-3.703704 1.282051-5.413106.2849-.42735.42735-.8547.42735-.8547 0-.142451-.2849-.427351-.8547-.712252-.42735-.2849-1.709402-1.1396-2.849003-1.994302-1.139602-.8547-2.849003-1.994302-3.846155-2.706553-.99715-.71225-2.279202-1.566951-2.991453-1.994302-.71225-.42735-1.282051-.8547-1.424501-.71225-.14245 0-1.139601.8547-2.279203 1.709401-1.1396.854701-3.418803 2.421653-4.985755 3.561254-3.846154 2.564103-3.561254 2.279202-3.133903 2.849003.42735.5698.99715 1.566952 1.424501 2.849003.2849.71225.2849 1.282051.2849 2.564103-.14245 1.709402-.14245 1.994302-1.1396 3.276353-1.424502 1.994302-3.133904 2.849003-5.698007 2.991453-1.424501 0-1.709401 0-2.706552-.5698-1.994302-.997151-3.703704-2.991453-4.131055-4.843305-.2849-1.139602-.14245-1.139602-4.415954.5698-.14245.14245-.854701.2849-1.424502.42735-.5698.14245-1.424501.427351-1.709402.427351-1.1396.2849-4.843305.997151-7.264957 1.282051-4.415955.427351-7.834759.569801-15.527067.569801-4.558404 0-8.262108 0-8.262108.14245s.14245.42735.5698.712251c.712251.5698 1.709402 1.566952 4.700855 4.415955l1.424502 1.424501v34.188036c0 37.17949 0 35.042737.99715 39.458692.427351 1.994302.569801 2.564102 1.566952 4.843305.854701 2.279202 2.421653 5.413106 3.418804 7.264957 2.279202 3.561254 2.991453 4.558405 5.128205 6.552707 1.994302 1.994302 2.991454 2.849003 5.128206 4.558405.99715.854701 1.994302 1.566952 1.994302 1.566952.2849.14245 3.988604 2.706553 4.273504 2.849003.14245 0 .712251.42735 1.139602.71225.5698.427351 1.566951.997152 2.136752 1.282052.5698.2849 1.566951.997151 2.279202 1.282051.5698.42735 1.139601.712251 1.282052.712251 0 0 .5698.2849 1.28205.71225.712252.427351 1.282052.712252 1.282052.712252s1.139601.5698 2.564103 1.424501c1.424501.8547 2.849003 1.566952 3.276353 1.851852.42735.2849 1.709402.997151 2.991454 1.709402 1.1396.71225 2.279202 1.424501 2.421652 1.566951 2.849003 1.709402 8.404559 5.982907 10.25641 7.977209.427351.42735.854702.8547.997152.8547.2849 0 1.282051-.8547 3.418804-2.706552 2.279202-1.994302 7.264957-5.698006 10.39886-7.549858.14245-.14245.997152-.5698 1.851852-1.139601 2.564103-1.566952 3.276354-1.994302 9.68661-5.128206 8.11966-3.988604 9.25926-4.700855 12.393164-6.980057 2.991453-2.136752 4.131054-3.276353 7.834758-6.980057 2.279202-2.279203 4.131054-5.413106 5.555556-8.83191.2849-.5698.42735-1.1396.5698-1.424501 1.139602-2.849003 2.564103-8.68946 3.418804-14.102565.14245-.997151.2849-11.538462.2849-34.188036V60.541309l.5698-.5698c.569802-.42735 2.136753-1.851852 3.988605-3.561254.2849-.2849.71225-.71225.997151-.8547l.997151-.997152c.42735-.42735.712251-.71225.712251-.8547 0-.427351-4.558405-.569801-10.11396-.569801z"/>
        <path d="M118.945871 87.464388c0-.42735.14245-.997151.14245-1.139601.14245-.14245.2849-1.139602.42735-1.994303.14245-.8547.2849-2.564102.427351-3.561253.14245-.997151.42735-2.706553.42735-3.561254.14245-.8547.2849-1.709402.42735-1.994302.142451-.14245.142451-.854701.142451-1.424502 0-.5698.14245-1.282051.14245-1.709401.14245-.42735.2849-1.424502.42735-2.279203.14245-.8547.284901-2.136752.427351-2.849003.2849-1.566951.42735-1.709402 1.709402-1.282051.42735.14245.997151.2849 1.282051.2849.5698 0 .997151.42735.712251.997151-.14245.42735-.5698 2.991453-.8547 5.128206-.142451 1.28205-.427351 3.276353-.854702 4.843305-.14245.5698-.2849 1.566951-.42735 2.279202-.14245.5698-.2849 1.994302-.42735 2.991453-.14245.997151-.427351 2.421653-.427351 3.133904-.14245.71225-.2849 1.709401-.42735 2.136752-.2849.99715-.427351 1.139601-1.424502.8547-.2849 0-.854701-.14245-1.282051-.14245h-.854701v-.71225zm4.843305 18.51852v20.797721h-1.566952c-1.1396 0-1.709401 0-1.709401-.14245s-.14245-4.843305 0-10.39886v-10.113962h3.276353zM105.982907 71.36752c.14245-1.139601.14245-3.133903.14245-4.273505v-2.136752l.569801-.42735c.42735-.2849.71225-.42735 1.424502-.2849.42735 0 2.279202.14245 3.846154.2849 2.849003.14245 2.991453.14245 3.703703.71225.997152.712251 1.139602 1.139602.854701 3.418804-.14245 1.139601-.2849 3.133903-.42735 4.558405-.14245 1.424501-.2849 2.706553-.2849 2.849003-.14245.14245-.14245 1.139601-.2849 2.279202-.284901 5.270656-.712251 7.549858-1.709402 8.404559-.2849.2849-.569801.42735-4.273505.42735-2.991453 0-3.846154 0-3.988604-.2849-.14245-.42735.14245-11.823362.42735-15.527066zm-2.564102 34.615386h1.424501v20.797722h-3.418804c-.14245-.14245-.2849-2.279202-.2849-10.39886v-10.256412l.42735-.14245c.2849 0 .997152-.14245 1.851853 0zm-11.965813-19.94302c.14245-1.851853.5698-5.128206.71225-5.840457.14245-.2849.14245-1.139601.14245-1.709402 0-.5698.142451-1.282051.142451-1.709401.14245-.2849.2849-1.424502.42735-2.421653.14245-1.709402.42735-3.561254.712251-5.840456.14245-.5698.2849-1.709402.2849-2.564103.14245-1.424501.14245-1.424501.712251-1.566952.2849-.14245 1.424502-.14245 2.421653-.14245H98.8604l.2849.5698c.14245.284901.42735 1.139602.42735 1.709403 0 .71225.14245 1.424501.2849 1.566951.142451.14245.142451.712251.142451 1.139602 0 .42735.14245 1.1396.2849 1.709401.14245.42735.2849 1.282052.2849 1.566952 0 .42735.14245.8547.14245 1.139601.14245.2849.284901.997151.427351 1.709402.42735 2.991453.5698 3.703704.712251 4.273505.14245.2849.14245.8547.14245 1.28205 0 .427351.14245.997152.14245 1.282052.14245.42735.5698 2.564103.5698 3.846154v.5698H99.28775l-.14245-1.1396c-.14245-1.424502-.42735-2.421653-.8547-2.564103-.14245 0-.997152-.14245-1.851853-.2849l-1.566951-.14245-.14245.42735c-.14245.2849-.2849 1.139601-.2849 1.994302 0 .854701-.142451 1.566952-.284901 1.709402.14245.5698-.42735.5698-1.424502.5698h-1.424501zm-25.498577-18.37607c.2849-.2849 1.709402-.5698 3.418804-.71225l1.566951-.142451.2849.5698c.14245.2849.284901.712251.284901.854702 0 .14245.14245.5698.2849.8547.14245.2849.2849.712251.2849.854701 0 .14245.14245.5698.2849.997151.142451.2849.427351 1.139602.569802 1.709402.14245.5698.42735 1.282052.42735 1.424502.14245.14245.14245.42735.14245.71225 0 .14245.14245.569801.2849.854701.14245.2849.2849.712251.2849.854701 0 .2849.14245.5698.284901.997151.14245.2849.2849.712251.2849.997151 0 .2849.14245.42735.14245.5698.14245 0 .2849.427351.2849.854702 0 .42735.14245.8547.284901.8547.14245 0 .14245.284901.14245.569801s.14245.712251.2849.997151c.14245.2849.2849.712251.2849.997151 0 .2849.142451.712251.284901.854701.14245.14245.2849.5698.2849.712251 0 .2849.14245.71225.2849.997151.712251 1.566952.854702 2.564103.427351 2.849003-.14245 0-.8547.14245-1.566951.2849-1.139602.14245-1.424502.14245-1.709402-.14245-.14245-.14245-.2849-.42735-.2849-.71225 0-.14245-.14245-.712251-.2849-.997152-.142451-.42735-.284901-.99715-.427351-1.28205-.14245-.569801 0-.569801-2.706553-.142451-1.566952.2849-1.566952.2849-1.424502 2.136752.14245 1.994302 0 2.564103-.5698 2.564103-.2849 0-.712251.14245-1.139601.2849-.854701.2849-1.139602.2849-1.424502.14245 0-.2849-.2849-22.934474.14245-23.219374zm13.247864 38.60399c1.139601 0 1.709402.14245 1.851852.2849.14245.142451.2849.712252.2849 1.139602 0 .5698.2849 1.709402.42735 2.564103.14245.8547.427351 2.279202.427351 2.991453.14245.71225.2849 1.566952.42735 1.709402.14245.14245.14245.71225.14245 1.282051 0 .42735.142451 1.282051.284901 1.566952.14245.42735.2849 1.1396.2849 1.566951 0 .42735.14245.997151.14245 1.282052.14245.14245.2849.99715.427351 1.709402.14245.71225.2849 1.851851.2849 2.564102.14245.712251.14245 1.424502.14245 1.566952 0 .14245-.5698.2849-1.424501.2849-1.566952 0-1.566952-.14245-2.136752-1.851852l-.42735-1.282051h-3.133904l-.2849.997151c-.14245.5698-.2849 1.139601-.42735 1.424501 0 .2849-.14245.42735-.284901.569801-.14245 0-.8547.14245-1.709402.14245h-1.424501v-.5698c0-.2849.14245-.569801.14245-.712251.14245-.14245.2849-.71225.42735-1.424502.14245-.71225.2849-1.994302.42735-2.706552.14245-.854701.427351-1.994303.427351-2.564103.14245-.5698.14245-1.282052.2849-1.424502.14245-.14245.14245-.71225.2849-1.424501.284901-1.709402.569801-3.418804.712252-4.131055.14245-.5698.42735-2.279202.71225-3.988604.5698-1.424501.712251-1.566951 2.706553-1.566951zM60.82621 92.450144c-.2849 0-.8547.14245-.99715.2849-.2849.14245-.712251.14245-.997151.14245-.2849 0-.854701.14245-1.139602.2849-.8547.284901-1.424501.284901-1.851852 0-.14245-.14245-.42735-.2849-.71225-.2849-.42735 0-1.566952-1.424501-1.566952-1.851851 0-.14245-.14245-.2849-.14245-.42735-.14245-.142451-.2849-.569802-.42735-.997152-.14245-.42735-.2849-1.139601-.427351-1.566952-.14245-.42735-.2849-.8547-.42735-.99715-.14245-.14245-.14245-.427351-.14245-.712251s-.14245-.712251-.2849-.997151c-.142451-.2849-.284901-.712251-.284901-.997152 0-.2849-.14245-.71225-.2849-.99715-.14245-.2849-.2849-.712251-.2849-.997152 0-.2849-.14245-.5698-.14245-.5698-.142451 0-.284901-.42735-.284901-.854701 0-.42735-.14245-.854701-.2849-.854701S50 79.772081 50 79.487181s-.14245-.712251-.284901-.997152c-.14245-.2849-.2849-.71225-.2849-.99715 0-.284901-.14245-.712251-.2849-.997152-.427351-.8547-.854701-2.564102-.854701-2.991453 0-.14245-.14245-.42735-.14245-.42735-.14245 0-.14245-.2849-.14245-.5698 0-.284901-.14245-.569802-.284901-.997152-.2849 0-.42735-.42735-.42735-.71225 0-.284901-.14245-.712251-.2849-.997152-.427351-.71225-.427351-2.849003-.142451-3.133903.2849-.2849 1.282051-.854701 2.136752-.997151.712251-.14245 1.709402-.5698 2.136753-.71225.14245-.142451.5698-.142451.99715-.284901.427351-.14245.712251-.14245.712251-.2849s.2849-.14245.5698-.14245c.284901 0 .569802-.14245.997152-.2849.2849-.142451.997151-.284901 1.566952-.284901.8547 0 1.1396.14245 1.566951.5698.2849.2849.712251.712251.712251.997151 0 .2849.14245.569801.2849.569801s.14245.42735.14245.71225c0 .427351.14245.997152.2849 1.282052.14245.42735.284901.997151.284901 1.282051 0 .2849.14245.854701.2849 1.282052.42735.99715.42735 1.566951-.2849 1.851852-.71225.2849-2.279202.71225-2.849003.8547-.5698.14245-.997151-.2849-.997151-.99715 0-.569801-.5698-2.279203-.8547-2.706553-.284901-.42735-1.424502-.42735-1.994303 0-.2849.2849-.42735.42735-.42735 1.139601 0 .42735.14245 1.139601.2849 1.424501.14245.2849.2849.712251.2849.997152 0 .2849.14245.71225.2849.99715.14245.2849.2849.712251.2849.997152 0 .2849.14245.5698.14245.71225.142451 0 .284901.42735.284901.997151 0 .42735.14245.854701.2849.997151.14245 0 .14245.2849.14245.569801 0 .2849.14245.71225.284901.997151.14245.2849.2849.71225.2849.997151 0 .2849.14245.71225.2849.997151.14245.2849.2849.712251.2849.997151 0 .2849.142451.5698.142451.712251.14245 0 .2849.42735.2849.8547 0 .427351.14245.854702.2849.997152.14245.42735.569801 1.709402.712251 2.564103.14245.71225.569801.99715 1.566952.99715.997151-.14245 1.282051-.5698.8547-2.421652-.14245-.71225-.2849-1.709402-.42735-2.279202-.14245-1.139601.14245-1.282052 1.424502-1.566952.42735 0 .8547-.14245.997151-.2849.2849-.42735 1.424502.14245 1.424502.8547 0 .14245.14245.427351.14245.569801.14245.14245.2849.854701.42735 1.566952.42735 2.706553.5698 3.133903.71225 3.561254.142451.2849.142451.99715.142451 1.566951 0 .854701 0 1.139602-.5698 1.566952-.2849.2849-.854701.5698-1.139602.5698-.42735.14245-.71225.14245-.8547.2849 0 0-.284901.142451-.569801.142451zm.712251 34.330486c0-.2849-.14245-5.982906 0-12.820513v-12.393163h4.415955c6.695157-.14245 6.125357-.712251 6.125357 8.119658 0 7.549858 0 7.264958-1.282052 7.977209-.42735.2849-1.139601.2849-2.849003.2849-1.282051 0-2.421652 0-2.564102.14245-.2849.14245-.2849.71225-.2849 4.273505 0 2.279202 0 4.415954-.14245 4.558404-.142451.2849-.427351.2849-1.709403.2849-1.566951 0-1.709402 0-1.709402-.42735zm12.535614 18.94587c-.712251.71225-.997151 1.282051-.5698 1.566952.2849.14245.14245 2.849003-.142451 3.846154-.14245.5698-.2849.71225-.71225.71225-.284901 0-.854702-.14245-1.139602-.2849l-.5698-.2849.14245-1.709402c.14245-1.709402 0-2.279202-.569801-2.279202-.14245 0-.42735-.14245-.71225-.2849-.854702-.427351-1.282052-.427351-1.709403.42735-.14245.42735-.42735.997151-.42735 1.139601 0 .2849-.14245.5698-.14245.71225-.14245.142451-.2849.427351-.2849.569801-.14245.2849-.2849.2849-.712251.14245-.854701-.14245-1.566952-.5698-1.566952-.8547 0-.14245.14245-.42735.2849-.712251.14245-.2849.2849-.71225.2849-.997151 0-.2849.14245-.5698.14245-.5698.142451 0 .284901-.427351.284901-.997152 0-.42735.14245-.8547.2849-.99715.14245 0 .14245-.427351.14245-.712252 0-.2849.14245-.8547.2849-.99715.142451-.2849.284901-.712251.284901-.997152 0-.2849.14245-.71225.2849-.99715.14245-.284901.2849-.712251.2849-.997152 0-.8547 1.139602-.8547 2.991454-.2849.42735.14245 1.139601.2849 1.566952.42735 1.1396.2849 1.994302.712251 2.421652 1.139602.2849.2849.42735.5698.42735 1.851852v1.424501zm10.39886 7.834758c-.2849.42735-1.28205.42735-1.851851 0-.2849-.2849-.42735-.5698-.5698-1.282051-.142451-.8547-.142451-.8547-.712252-.997151-.2849-.14245-.8547-.2849-1.282051-.42735-.8547-.2849-1.709402-.14245-1.851852.2849 0 .14245-.14245.42735-.2849.5698-.14245.14245-.2849.42735-.42735.569801-.14245.14245-.427351.42735-.569801.42735-.5698 0-1.851852-.5698-1.851852-.8547 0-.14245.99715-2.136753 1.139601-2.279203.14245-.14245.2849-.5698 1.139601-2.136752.14245-.42735.42735-.71225.5698-.854701.14245 0 .14245-.2849.14245-.42735 0-.14245.142451-.42735.142451-.42735.14245 0 .2849-.142451.2849-.427351s.14245-.42735.2849-.5698c0 0 .284901-.427351.569801-.997152.2849-.42735.5698-.997151.5698-1.282051.142451-.2849.427351-.42735.997152-.42735 1.282051 0 1.709402.2849 1.994302 1.4245.14245.569801.2849 1.282052.2849 1.709403 0 .42735.14245 1.28205.2849 1.851851s.2849 1.424502.2849 1.851852c0 .42735.142451.854701.142451.854701.14245 0 .14245.42735.14245.854701 0 .42735.14245 1.139601.14245 1.566952.42735.71225.42735 1.282051.2849 1.424501zm.712251-66.66667c-.14245-.2849-.2849-.71225-.42735-.99715-.14245-.284901-.2849-.712252-.42735-.997152-.14245-.2849-.2849-.71225-.2849-.8547 0-.142451-.142451-.427351-.284901-.712252-.14245-.14245-.2849-.5698-.2849-.71225 0-.14245-.14245-.5698-.2849-.712251-.14245-.14245-.284901-.5698-.284901-.71225 0-.569801-.42735-.569801-.5698 0-.14245.42735-.14245 1.1396.14245 2.991452.2849 2.706553.42735 3.561254.14245 3.703704-.14245 0-.712251.14245-1.282052.2849-1.566951.14245-1.851852-.14245-1.851852-1.994302 0-.71225-.14245-1.566951-.14245-1.851852-.14245-.2849-.2849-1.424501-.42735-2.421652-.2849-3.846154-.5698-5.982906-.712251-6.695157-.14245-.2849-.14245-1.139601-.14245-1.709402 0-.5698-.14245-1.424501-.14245-1.994302-.2849-1.566952-.5698-5.270656-.2849-5.698006.14245-.14245.42735-.2849.8547-.2849.2849 0 .854701-.14245 1.139602-.2849.42735-.14245.5698-.14245.99715 0 .2849.14245.427351.2849.427351.42735 0 .14245.14245.5698.2849.8547.14245.284901.42735 1.282052.712251 1.994303.2849.71225.5698 1.566951.71225 1.851852.142451.2849.284901.71225.284901.8547 0 .14245.14245.427351.2849.712251.14245.14245.2849.569801.2849.712251 0 .14245.14245.42735.14245.71225.142451.284901.142451.284901.427351 0 .2849-.42735.2849-5.982905 0-6.980056-.2849-1.282052-.14245-1.566952 1.424502-1.709402 1.994302-.14245 1.994302-.2849 2.136752 3.133903 0 1.566952.14245 3.133903.2849 3.418804.14245.2849.14245 1.566951.14245 2.991453 0 1.282051.14245 3.133903.14245 3.846154.14245.8547.284901 2.991453.427351 4.843305.14245 4.131054.14245 4.273504-1.282051 4.273504-1.566952.42735-1.994302.2849-2.279203-.2849zm5.128206 58.404562c-.14245.99715-.14245 2.706553-.2849 3.703704 0 1.851852-.2849 4.131054-.427351 4.985755-.14245.2849-.2849.2849-1.282051.2849h-1.139602l.14245-2.279202c0-1.282052.14245-3.703704.2849-5.413106.142451-3.418804.142451-3.418804 1.566953-3.418804 1.28205.14245 1.424501.14245 1.1396 2.136753zm-.854701-18.66097c-.42735-.14245-.997151-.71225-1.139601-1.282051-.14245-.5698-.2849-16.809118 0-17.663819.14245-.71225.71225-1.282051.99715-1.282051.14245 0 .427351-.14245.427351-.14245 0-.14245 1.282052-.14245 3.133903-.14245 3.133904 0 3.988605.14245 4.415955.99715.14245.14245.2849.42735.2849.42735.14245 0 .14245 1.424502.14245 2.991454v2.849003h-3.133903l-.14245-1.424501c-.14245-1.139602-.14245-1.566952-.5698-1.994303-.569801-.71225-1.424502-.71225-1.994303 0l-.5698.569801v11.965813l.5698.5698c.712251.712251 1.282052.712251 1.994303 0l.5698-.5698v-4.273505h3.418804v3.418804c0 3.846154-.14245 4.273504-1.282052 4.843305-.42735.14245-1.282051.2849-3.561253.2849-1.851852 0-3.418804 0-3.561254-.14245zm10.968661 27.77778c-.14245.71225-.2849.71225-.71225.71225-.2849 0-1.851852-.14245-3.418804-.14245l-2.849003-.14245v-.854701c0-.42735.14245-1.851852.14245-3.133903.14245-1.282052.2849-3.276354.2849-4.558405l.14245-2.421653h2.279203l-.14245 4.131055c-.14245 3.133903 0 4.131054.14245 4.273504.14245.14245 1.139601.14245 2.136752.2849 1.851852 0 1.994302 0 2.136753.5698 0 .284901 0 .712252-.14245 1.282052zm11.396012-9.11681c-.14245.71225-.2849 1.709401-.2849 2.136752 0 .42735-.14245 1.282051-.2849 1.851852-.14245.5698-.2849 1.566952-.2849 2.136752 0 .5698-.14245 1.139601-.14245 1.139601-.14245 0-.14245.2849-.14245.712251 0 .997151-.14245 1.139601-.997152 1.139601-.8547 0-1.424501-.42735-1.424501-.99715 0-.14245-.14245-.427351-.2849-.569801-.14245-.14245-.2849-.42735-.2849-.712251 0-.2849-.854702-1.139601-.997152-.997151l-.2849 1.424501c-.14245.712251-.14245 1.566952-.2849 1.709402-.14245.42735-.2849.42735-1.139602.42735-.99715 0-1.424501-.2849-1.424501-.8547 0-.2849-.14245-.712251-.2849-.997151-.14245-.2849-.427351-1.139602-.569801-1.709402-.14245-.5698-.42735-1.139601-.42735-1.282052-.14245-.14245-.14245-.42735-.2849-.71225-.142451-.5698-.427351-1.424502-.854702-2.421653-.14245-.2849-.2849-.8547-.2849-.99715 0-.284901-.14245-.427351-.14245-.569801-.2849-.14245-.14245-.712251.2849-.997152.997151-.42735 1.709402-.14245 1.709402.569801 0 .14245.14245.5698.2849.997151.5698 1.139601.5698 1.424502.71225 1.994302 0 .2849.284901.5698.427351.5698.2849 0 .854701-1.1396.854701-2.279202 0-.42735.2849-1.1396.42735-1.566951.284901-.712251.284901-.712251.997152-.712251.71225 0 .71225.14245 1.1396 1.282051.284901.712251.569802 1.282052.569802 1.424502 0 .14245.14245.42735.2849.71225 0 .2849.14245.569801.2849.569801.2849 0 .854701-1.566951.854701-2.421652 0-.42735.14245-.997151.2849-1.424502.2849-.5698.2849-.5698 1.139602-.5698 1.1396 0 1.28205.14245.8547 1.994302zm.854701-26.780629c-.14245.2849-.14245 2.279203-.14245 4.415955v3.846154h-1.566951c-.854701 0-1.566952 0-1.709402-.14245-.14245 0-.2849-2.279202-.2849-10.11396 0-5.413106 0-10.113961.14245-10.256411.14245-.2849.71225-.2849 4.843305-.2849h4.843305v3.703703h-2.991453c-1.994302 0-2.991454 0-3.133904.2849-.2849.2849-.2849 3.703704 0 4.131055.2849.42735.42735.42735 2.279203.42735h2.136752v3.418804h-2.136752c-2.136753.14245-2.136753.14245-2.279203.5698zm10.826212 33.903136c-.854701.42735-1.282052.42735-1.424502-.14245 0-.14245-.14245-.42735-.2849-.42735s-.14245-.14245-.14245-.2849-.14245-.427351-.42735-.712251c-.427351-.42735-.569801-.42735-1.566952-.2849-1.424502.2849-1.851852.42735-1.851852.8547 0 .14245 0 .42735-.14245.42735-.14245.14245-.2849.427351-.2849.854701-.14245.712251-.14245.712251-1.282052.712251h-1.139601l.14245-1.282051c0-.71225.2849-1.994302.42735-2.849003.14245-.854701.42735-2.136752.42735-2.991453.14245-.712251.284901-1.424502.284901-1.566952 0-.14245.14245-.71225.2849-1.139601.14245-.997151.14245-.997151.712251-1.282051 1.282051-.569801 1.994302-.42735 2.706553.71225.14245.2849.2849.42735.5698.997151 0 .14245.2849.712251.569801 1.139602.2849.5698.854701 1.566951 1.424502 2.564102.42735.854701.99715 1.994302 1.282051 2.421653.2849.42735.5698.8547.5698.99715.14245.569801-.2849.997152-.8547 1.282052zm7.692308-11.538462c-.14245.2849-.2849.71225-.2849.8547 0 .142451-.14245.427351-.2849.712252-.14245.14245-.284901.5698-.284901.8547 0 .2849 0 .569801-.14245.712251-.2849.2849-.854701 2.136753-.712251 2.279203.14245.2849.5698 2.279202.8547 3.418803.142451.854701.142451.997151-.14245 1.282052-.14245.14245-.71225.2849-1.1396.2849-.854701 0-.854701 0-1.139602-.71225-.14245-.427351-.2849-.854702-.2849-1.139602 0-.2849-.14245-.71225-.2849-.8547-.14245-.284901-.2849-.712252-.2849-.997152 0-.5698-.569801-1.282051-1.994303-2.421652-2.136752-1.709402-2.991453-2.706553-2.991453-2.991454 0-.14245.14245-.2849.2849-.2849s.569801-.14245.854701-.2849l.569801-.2849 1.424502 1.1396c.8547.569801 1.566951 1.139602 1.709401 1.282052.2849.42735.997151 0 1.139602-.5698 0-.2849.14245-.712251.2849-.854701.2849-.42735.71225-1.566952.8547-1.994303.14245-.42735.997152-.71225 1.709403-.5698.71225 0 .71225.42735.2849 1.139601zm3.703704 8.83191c-.2849 0-.712251.14245-.854701.14245-.2849 0-.2849 0-.2849-.2849 0-.142451-.14245-.427351-.14245-.427351-.2849-.14245-.14245-.712251.2849-.997151.71225-.42735 1.1396-.2849 1.282051.2849 0 .2849.14245.71225.2849.8547-.14245.142451-.14245.284901-.5698.427351zm-3.703704-32.621085c0 6.410257 0 6.695157 1.424501 6.695157.712251 0 .854701 0 1.282052-.42735.42735-.42735.42735-.712251.42735-2.564103v-2.136752h3.133903v3.418803c0 2.849003 0 3.418804-.2849 3.703704-.14245.14245-.2849.2849-.2849.42735 0 .14245-.2849.2849-.71225.569801-.997152.42735-6.410258.42735-7.122508 0-1.139602-.71225-1.139602-.42735-1.139602-9.40171v-8.97436c.14245-.5698.2849-.99715.712251-1.28205l.5698-.569801h6.980058l.5698.5698c.284901.2849.569801.712251.712251.997152.14245.2849.14245 1.566951 0 3.133903v2.706553h-3.133903v-1.566952c0-1.424501-.14245-1.566952-.5698-1.994302-.569801-.42735-1.566952-.5698-1.994303-.14245-.5698.14245-.71225 1.424501-.5698 6.837607zm6.125356-43.162395c-.14245 1.1396-.2849 2.564102-.2849 3.276353 0 .71225-.14245 1.851852-.14245 2.421653-.14245.5698-.2849 2.421652-.42735 3.846154-.427351 6.980057-.569801 7.977208-.854702 8.119658-.14245.14245-.2849.14245-.2849.14245s-.5698-.14245-1.282051-.14245c-1.709402-.14245-1.851852-.42735-1.566952-2.849003.14245-1.282051 0-1.851852-.5698-1.851852-.14245 0-.569801-.14245-.854701-.2849-.2849-.14245-.854701-.2849-1.282052-.2849-.5698-.14245-.8547 0-1.1396.2849-.142451.14245-.427351.5698-.427351.71225 0 .427351-.712251 2.279203-.854701 2.421653-.14245.14245-.854701.14245-2.136752-.14245-.712251-.14245-1.282052-.71225-.997152-1.139601.14245-.14245.2849-.71225.42735-1.139601.142451-.42735.427351-.997151.569802-1.282052.14245-.2849.2849-.5698.2849-.71225 0-.14245.14245-.42735.2849-.712251.14245-.2849.42735-.712251.42735-1.139601.14245-.2849.2849-.854701.427351-1.139602.14245-.2849.42735-.99715.5698-1.424501.14245-.42735.427351-1.139601.569801-1.424502.14245-.2849.2849-.71225.2849-.8547 0-.14245.14245-.2849.14245-.2849.14245 0 .14245-.142451.14245-.284901 0-.14245.142451-.42735.284901-.71225.14245-.142451.2849-.569801.2849-.712252 0-.14245.14245-.5698.2849-.71225.14245-.14245.284901-.569801.284901-.712251 0-.14245.14245-.5698.2849-.854701.14245-.2849.42735-.8547.5698-1.282051.142451-.42735.427351-.854701.427351-1.139602.14245-.14245.2849-.71225.42735-1.1396.142451-.427351.427351-.997152.569801-1.282052.14245-.2849.2849-.5698.2849-.854701 0-.5698.569801-.71225 1.566952-.5698.569801.14245 1.139602.2849 1.282052.2849.14245.14245.5698.14245.99715.2849 1.424502.2849 1.566952.2849 1.566952 1.994302.14245.854701 0 2.279202-.14245 3.276354zm15.811967.5698c-.14245 0-.14245.2849-.14245.5698 0 .284901-.14245.569801-.2849.997152-.14245.2849-.2849.71225-.2849.8547 0 .284901-.142451.569801-.284901.712251-.14245.14245-.2849.569801-.2849.712251 0 .14245 0 .42735-.14245.5698-.14245.14245-.2849.712252-.427351 1.282052-.14245.5698-.42735 1.282051-.5698 1.566952-.14245.2849-.2849.71225-.2849.99715 0 .284901-.142451.569801-.284901.712252-.14245.14245-.2849.5698-.2849.71225 0 .2849 0 .42735-.14245.5698-.14245 0-.284901.427351-.284901.712252 0 .42735-.14245.8547-.2849.99715-.14245.427351-.5698 1.566952-.712251 1.994303 0 .2849-.14245.5698-.2849.8547-.14245.284901-.2849.569801-.2849.712251 0 .2849-.14245.569801-.2849.997152-.142451.2849-.284901.71225-.284901.8547 0 .14245-.14245.42735-.14245.42735-.14245 0-.14245.284901-.14245.427351 0 .14245-.14245.5698-.2849.854701-.427351.997151-.997152 1.139601-2.421653.42735-1.139602-.5698-1.139602-.5698-.997151-4.273504.14245-1.851852.14245-3.418803.14245-3.561254-.14245-.2849-.997151.854701-.997151 1.424502 0 .2849-.14245.5698-.2849.8547-.14245.142451-.2849.569801-.2849.712252 0 .2849-.142451.5698-.284901.99715-.14245.2849-.2849.712251-.2849.854702 0 .14245-.14245.71225-.2849 1.1396-.284901.712251-.427351.712251-.854702.569801-.2849 0-.8547-.14245-1.282051-.42735-.71225-.2849-.71225-.2849-.854701-.997151 0-.42735 0-.997151.2849-1.282052.14245-.2849.2849-.71225.2849-.99715 0-.2849.14245-.712251.2849-.997152.142451-.2849.284901-.71225.284901-.99715 0-.284901.14245-.569801.14245-.569801.14245 0 .2849-.42735.2849-.854701 0-.42735.14245-.854701.284901-.997151.14245-.2849.42735-1.424502.71225-2.564103.14245-.2849.284901-.8547.427351-.997151.14245-.2849.14245-.71225.14245-.997151 0-.2849.14245-.5698.14245-.71225.14245 0 .2849-.427351.2849-.854702 0-.42735.14245-.8547.284901-.99715.14245-.284901.42735-1.139602.71225-2.564103.142451-.42735.284901-.854701.427351-1.139602.14245-.2849.2849-1.1396.5698-1.709401l.284901-1.139602h1.139601c1.139602 0 2.136753.2849 2.136753.569801v4.558405c0 2.706553.14245 4.415954.14245 4.415954.14245 0 .42735-.5698.71225-1.28205.2849-.854702.569801-1.424502.569801-1.566953 0 0 .14245-.2849.14245-.42735 0-.14245.14245-.5698.2849-.8547.2849-.712252.712251-1.709403.854701-2.279203.2849-1.139602.712251-1.709402.997152-1.566952.14245 0 .71225.2849 1.1396.42735 1.282052.2849 1.709403.569801 1.709403 1.282052-.42735 0-.42735.2849-.569801.2849z"/>
        <path d="M70.79772 142.450146c-.2849 0-.71225-.14245-.99715-.2849-.427351-.14245-.427351 0-.712252.42735-.14245.2849-.14245.71225-.14245 1.139601 0 .42735.14245.5698.5698.5698.284901 0 .569801.14245.712252.284901.5698.5698 1.994302-.2849 1.709401-.997151 0-.5698-.5698-.997151-1.1396-1.139601zm9.11681-22.364674c.14245-.2849.14245-.42735 0-1.282051-.14245-.5698-.2849-1.139601-.42735-1.424502-.14245-.71225-.427351-.71225-.854702.14245-.42735.854701-.5698 2.136753-.2849 2.564103.14245.2849 1.282052.2849 1.566952 0zM96.866098 79.20228h1.1396v-.71225c0-.427351 0-1.139602-.2849-1.851853-.14245-.5698-.2849-1.424501-.2849-1.851852 0-.42735-.14245-.99715-.2849-1.424501-.14245-.42735-.2849-.8547-.2849-1.139601 0-.14245-.14245-.42735-.2849-.42735s-.2849.2849-.427351 1.1396c0 .569801-.14245 1.282052-.2849 1.424502 0 .14245-.14245.997151-.2849 1.709402-.14245.8547-.284901 1.709402-.284901 1.994302-.14245.2849 0 .5698.14245.8547.14245.284901.5698.284901 1.424502.284901zm21.509972 67.66382c-.2849.14245-.2849 1.424502 0 1.709402 0 0 .2849.14245.42735 0 .14245 0 .427351-.14245.569801-.14245.42735 0 .2849-.8547-.14245-1.282051-.42735-.2849-.71225-.2849-.8547-.2849z"/>
        <path d="M179.059834 46.581195c-.5698-.14245-7.834758-.2849-23.789175-.5698-8.83191-.142451-16.096867-.284901-16.809118-.427351-3.133903-.5698-8.831909-1.994302-11.253561-2.849003-.42735-.14245-.854701-.2849-1.139602-.42735-2.564102-.997152-4.558404-1.709403-5.128205-1.994303-.14245-.14245-.42735-.14245-.5698-.14245-.14245 0-.14245 1.282051-.14245 3.703704 0 3.276353 0 3.846154-.284901 4.273504-.8547 1.139602-2.136752 1.709402-3.418804 1.282052-1.424501-.42735-2.279202-1.139601-2.706552-2.421653-.14245-.5698-.14245-.8547 0-1.566951.2849-.854701.5698-1.139602 1.994302-1.566952.2849-.14245.2849-.42735.2849-2.849003v-2.849003l-1.566952-.854701c-.8547-.42735-1.709402-.997151-1.851852-.997151-.14245-.14245-.5698-.42735-.99715-.5698-.427351-.2849-.854702-.427351-.854702-.569801 0-.14245-.14245-.14245-.14245-.14245-.42735 0-5.128205-3.418804-7.692308-5.698006-2.136752-1.851852-3.988604-3.276354-4.273504-3.276354-.14245 0-.712251.5698-1.282052 1.139601-.5698.569801-1.709402 1.566952-2.421652 2.136753-.712251.5698-1.566952 1.282051-1.709402 1.424501-.2849.2849-.5698.42735-.5698.42735s-.284901.14245-.427351.2849c-.5698.569801-1.851852 1.424502-1.994302 1.424502-.14245 0-.2849 0-.2849.14245s-3.561254 2.421653-5.982907 3.988605l-.99715.71225v2.849003c0 3.133904 0 3.133904 1.1396 3.276354 1.566952.2849 2.279203 2.136752 1.282052 3.418804-1.139602 1.566951-3.703704 1.851851-4.985756.5698-.71225-.5698-.99715-2.136752-.71225-2.421652.2849-.14245.42735-1.709402.2849-3.703704-.14245-1.851852-.14245-1.851852-.5698-1.851852-.2849 0-.854702.2849-1.424502.5698-1.139601.5698-2.279203.997151-2.849003 1.139602-.14245 0-.5698.14245-.71225.2849-1.139602.42735-5.982907 1.851852-8.54701 2.421652-5.270655 1.139602-5.555556 1.282052-26.353278 1.282052-10.68376 0-18.94587.14245-18.94587.2849s5.270656 5.698006 13.390315 13.960115l3.846154 3.846154v32.478634c0 30.626782 0 34.330486.5698 38.03419.14245 1.424502.2849 1.851852.854701 4.273505.2849 1.28205 1.282051 4.131054 1.566952 4.985755.42735.99715 1.994302 4.415954 2.421652 4.985755 1.851852 3.276353 5.128206 7.264958 8.68946 10.541311 1.851851 1.709402 6.410256 5.270656 7.977208 6.267807.42735.2849 3.561254 2.279202 3.988604 2.706553.5698.42735 8.547009 5.270655 8.83191 5.413105.14245 0 .5698.2849.8547.42735.2849.14245.712251.427351.854701.427351.14245 0 .71225.42735 1.424502.854701.5698.42735 1.282051.71225 1.424501.854701.14245.14245.42735.2849.71225.42735.142451.14245.854702.569801 1.424502.854701.569801.42735 1.282052.712251 1.424502.854701.14245.14245.42735.2849.71225.42735 1.424502.712251 6.125357 3.846155 8.54701 5.698007 1.851852 1.424501 2.564102 1.994302 4.558404 4.131054 2.136753 2.136752 2.421653 2.564103 3.418804 4.415955.42735.8547.8547 1.424501.8547 1.424501.000001 0 .427351-.42735.712252-.99715.71225-1.282052 2.991453-4.273505 3.846154-5.270656 4.985755-5.413106 9.82906-8.83191 21.225072-14.672366 4.700855-2.421652 7.549858-3.846154 9.54416-4.985755.854701-.42735 1.424502-.854701 1.566952-.854701.14245 0 .99715-.5698 2.136752-1.282051 1.139601-.712251 2.136752-1.282052 2.279202-1.282052.14245 0 3.846154-2.564102 5.128206-3.561253 1.566951-1.282052 1.994302-1.566952 3.276353-3.133904.5698-.5698 1.139601-1.282051 1.139601-1.424501.42735-.42735 2.279203-2.991453 3.276354-4.558405 2.279202-3.418804 4.843305-8.97436 5.982906-13.247864.14245-.5698.42735-1.424502.5698-1.994302.427351-1.282051.854702-3.276354 1.566952-7.549858.2849-1.709402.2849-4.273505.42735-34.045586.142451-28.20513.142451-32.193734.427351-32.478634.14245-.14245 1.139602-1.139601 2.136753-1.994302.99715-.854701 2.564102-2.279203 3.276353-3.133904.854701-.71225 2.421653-2.279202 3.561254-3.418803 1.139601-.997151 2.421652-2.136752 2.706553-2.564103.2849-.2849 1.566951-1.424501 2.849003-2.564103 1.282051-1.1396 2.279202-2.136752 2.421652-2.279202.2849-.14245.2849-.14245 0-.2849z"/>
        <path d="M117.66382 52.849001c.71225-.14245 2.421652-1.709401 2.706552-2.564102.14245-.2849.2849-.42735.42735-.42735.142451 0 .284901.14245.142451.2849-.14245.14245-.2849.5698-.42735.99715-.2849.569801-1.139602 1.566952-1.851852 2.136753-.14245.14245-.5698.2849-1.139602.42735-1.424501.42735-2.706552.14245-3.846154-.99715-.8547-.854702-1.28205-1.424502-1.709401-2.849004-.2849-1.139601-.42735-1.709402-.14245-1.709402.14245 0 .14245.14245.14245.2849s0 .427351.14245.569801c.14245.14245.2849.712251.5698 1.139601 1.139602 2.279203 2.991454 3.276354 4.985756 2.706553zm-16.239317-19.23077c.42735.2849 1.424501 1.139601 2.279202 1.851852.8547.71225 1.566952 1.282051 1.709402 1.282051.14245.2849 4.415954 2.991454 4.985755 3.276354.14245 0 .8547.42735 1.424501.8547.569801.427351 1.282052.712252 1.282052.712252.14245 0 .2849.14245.42735.2849.14245.14245.42735.2849.5698.2849.142451 0 .427351.14245.712252.2849.42735.2849.2849.569801-.14245.42735-.427351-.14245-2.991454-1.4245-3.988605-1.994301-.2849-.2849-.71225-.42735-.8547-.5698-.14245 0-.569801-.284901-.854702-.569801-.2849-.2849-.5698-.42735-.71225-.42735-.14245 0-.42735-.284901-.854701-.569802-.42735-.2849-.71225-.5698-.854701-.5698-.14245 0-2.706553-1.851852-3.133903-2.279203-.14245-.14245-.42735-.42735-.712251-.5698-.997151-.71225-2.136752-1.851852-2.136752-2.136752-.14245-.2849.14245-.14245.8547.42735zm-17.094019 8.68946c-.14245 0-.2849-.569801-.2849-2.136753 0-2.421653-.14245-2.136752 2.136752-3.418804.42735-.2849.854701-.42735.854701-.5698.14245-.14245.712251-.5698 1.282052-.71225.2849-.142451.42735-.284901.42735-.427351 0-.14245.14245-.14245.14245-.14245.2849 0 3.988604-2.849004 6.552707-4.843306.42735-.2849 1.139601-.8547 1.424502-1.282051.42735-.2849.8547-.8547 1.1396-.997151.284901-.2849.569802-.42735.569802-.42735s.14245 1.1396.14245 2.706552v2.706553l-.712251.5698c-.42735.284901-.997151.854702-1.282051 1.139602-.2849.2849-.712251.5698-.997151.8547-.14245.284901-.42735.427351-.569801.427351-.14245 0-.42735.2849-.854701.5698-.2849.284901-.997151.712252-1.282051.997152-.42735.2849-.854701.5698-.997151.71225-.42735.284901-.997151.712251-1.282052.854702-.14245 0-.2849.14245-.2849.2849l-.8547.5698-.854702.569801c0 .14245-.14245.14245-.42735.14245-.14245 0-.42735.14245-.42735.14245 0 .14245-.854702.569801-1.851853.997151-.71225.2849-1.566951.712251-1.709401.712251zm-2.421652 9.54416c1.424501.71225 2.991453.42735 4.131054-.854702.5698-.71225 1.282052-1.994302 1.282052-2.564102 0-.2849.14245-.5698.2849-.854701.2849-.2849.2849-.2849.42735.2849.14245.42735 0 .854701-.14245 1.424502-.14245.42735-.2849.99715-.2849 1.1396 0 .427351-.997151 1.566952-1.851852 1.994303-.71225.5698-1.139601.5698-2.279202.5698-1.709402 0-2.136753-.2849-3.418804-1.424501-.8547-.8547-1.566952-2.136752-1.424502-2.279202.14245-.14245.712251.14245.712251.42735 0 .2849 1.709402 1.709402 2.564103 2.136752zm-40.313393-5.128206c8.68946 0 16.666668-.14245 17.80627-.14245 3.561253-.2849 4.985755-.42735 5.270655-.712251.14245-.14245.5698-.2849 1.139601-.2849 1.139601-.14245 2.706553-.5698 2.849003-.712251.14245-.14245.2849-.14245.5698-.14245s.712251-.14245.997152-.2849c.2849-.14245.71225-.2849.99715-.2849.284901 0 .569801-.142451.712251-.284901.14245-.14245.569801-.2849.712251-.2849.2849 0 .42735-.14245.5698-.14245 0-.14245.427351-.2849.712252-.2849.2849-.142451.71225-.142451.8547-.284901.14245-.14245.569801-.2849.997151-.42735.42735-.14245.997152-.427351 1.282052-.569801.2849-.14245.71225-.2849.8547-.2849.14245 0 .427351-.14245.712251-.2849.14245-.14245.42735-.284901.569801-.14245.14245 0 .14245.99715.14245 2.136751v2.136753l-.71225.2849c-.427351.14245-.712251.42735-.854701.42735-.2849.2849-1.424502.712251-1.709402.712251-.14245 0-.42735.14245-.712251.2849-.14245.14245-.5698.2849-.71225.2849-.284901 0-.569801.14245-.854702.284901-.2849.14245-.99715.42735-1.566951.5698-.5698.14245-1.282052.427351-1.424502.427351-.14245.14245-.5698.14245-.8547.14245-.284901 0-.712251.14245-1.139602.2849-.42735.14245-.8547.2849-1.139601.2849-.2849 0-.854701.14245-1.139601.284901-.42735.14245-.997151.2849-1.282052.2849-.2849 0-.8547.14245-1.282051.2849-.2849.14245-1.282051.284901-1.994302.284901-.71225 0-1.851852.14245-2.421653.14245-.99715.14245-22.649573.42735-24.358975.2849-.712251 0-1.851852-.5698-5.128206-2.136752l-4.273504-2.136752h15.811966zm57.26496 142.3077c0 1.282051-.14245 2.421652-.14245 2.421652s-.2849-.2849-.42735-.5698c-.14245-.2849-.42735-.712251-.71225-.997151-.2849-.2849-.712251-.712251-.997152-1.139602-.99715-1.28205-2.706552-2.991453-4.843305-4.700854-.2849-.2849-1.424501-.997152-2.421652-1.851852-.997151-.712251-1.994302-1.424502-1.994302-1.566952-.14245-.14245-.42735-.2849-.854701-.5698-.42735-.14245-.712251-.427351-.712251-.427351l-.5698-.2849c-.427351-.14245-.854701-.42735-1.709402-.997151-.712251-.427351-1.139602-.712251-1.566952-.997152-.2849-.14245-3.418804-1.994302-3.846154-2.279202-.14245-.14245-.42735-.2849-.5698-.2849-.14245 0-.427351-.2849-.569801-.42735-.14245-.14245-.42735-.284901-.5698-.284901-.142451 0-.284901 0-.284901-.14245s-.14245-.2849-.42735-.2849c-1.566952-.854701-2.136753-1.139602-2.279203-1.282052 0 0-.5698-.2849-.997151-.71225-.5698-.2849-1.139601-.569801-1.282051-.712251-.14245-.14245-.569801-.2849-.712251-.42735-.14245-.14245-.5698-.427351-.997151-.712252-.42735-.2849-.854701-.5698-.997151-.5698-.14245 0-.2849-.14245-.2849-.14245 0-.14245-.14245-.14245-.14245-.14245-.14245 0-.997152-.42735-1.851853-.997151-.8547-.569801-1.709401-.997152-1.709401-.997152-.14245 0-2.136753-1.424501-2.564103-1.851851-.14245-.14245-.2849-.14245-.2849-.14245l-.854701-.569801-.854701-.5698c-.14245 0-.14245 0-.14245-.142451 0-.14245-.2849-.2849-.712251-.5698-.42735-.2849-.854701-.569801-.997151-.712251-.14245-.14245-.712251-.5698-1.282052-.997151-2.706552-1.994302-5.840456-4.843305-7.122507-6.410257-.14245-.2849-.71225-.854701-1.139601-1.424502-.42735-.5698-1.139601-1.424501-1.424502-1.994302-.2849-.5698-.71225-.99715-.71225-.99715l-1.424502-2.279203c-.71225-1.282052-1.424502-2.279203-1.566952-2.564103-.14245-.14245-.2849-.42735-.2849-.5698 0-.14245-.2849-.569801-.2849-.854701-.14245-.2849-.42735-.854701-.5698-1.282052-.142451-.42735-.427351-.8547-.427351-.99715-.14245-.14245-.14245-.569801-.14245-.712252 0-.2849-.14245-.5698-.2849-.8547-.14245-.2849-.284901-.712251-.284901-.997151 0-.2849-.14245-.712251-.2849-.997152-.14245-.2849-.2849-.71225-.42735-1.28205-.142451-.427351-.284901-1.566953-.427351-2.564104-.14245-.8547-.42735-2.564102-.42735-3.703703-.14245-1.139602-.14245-16.951568-.14245-35.042737V62.820512l-8.11966-8.119659c-4.415954-4.415954-7.977208-8.119658-7.977208-8.119658.14245 0 .42735.14245.854701.42735.2849.14245 1.282051.71225 1.994302 1.139601.854701.42735 2.136752 1.139602 2.991453 1.566952.854701.42735 1.851852.997151 2.279203 1.282051.42735.2849.8547.42735.8547.569801 0 .14245.14245.14245.427351.14245.14245 0 .42735.14245.5698.2849.14245.14245.427351.2849.712251.2849s1.851852 1.424502 4.700855 4.273505l4.273505 4.131055v33.618235c0 22.507124 0 33.903136.14245 34.472936.14245.42735.2849 1.282052.2849 1.994302 0 .712251.14245 1.282052.2849 1.566952.14245.14245.14245.5698.14245.997151 0 .42735.14245.997151.284901 1.282051.14245.42735.2849.854701.2849 1.139602 0 .2849.14245.71225.2849.99715.14245.284901.284901.569801.284901.854702 0 .2849.14245.5698.2849.99715.14245.2849.2849.712251.2849.854702 0 .14245.14245.42735.14245.42735.14245 0 .14245.2849.14245.42735 0 .2849.427351 1.424502.712252 1.851852.14245.14245.2849.42735.2849.569801.2849.71225 1.709402 3.561254 1.851852 3.703704 0 0 .2849.42735.42735.71225.42735.712251 2.279203 3.276354 2.564103 3.703705.14245.14245.2849.2849.2849.42735 0 .2849 4.843305 5.128205 5.982907 5.982906.5698.42735.99715.854701.99715.854701.427351.42735 6.125357 4.558405 6.837608 4.843305.14245 0 .5698.2849.8547.42735.284901.14245.712252.427351.854702.427351.14245 0 .2849.14245.2849.2849l.8547.569801c.427351.2849.854702.42735.997152.5698.14245.14245.71225.427351 1.851852.997152.42735.14245.71225.42735.71225.42735.14245.14245.712251.5698 1.709402.997151.42735.2849.854701.42735.997151.5698.14245.142451.2849.142451.569801.284901l1.424502.71225c.5698.284901 1.28205.712252 1.709401.997152.42735.2849.854701.42735.854701.5698l.5698.2849c.284901.142451.854702.427351 1.424502.854702.569801.2849 1.139602.5698 1.282052.71225.14245.14245.8547.427351 1.282051.854701.5698.2849.997151.712251 1.139601.712251.42735.14245.854701.5698 2.564103 1.709402.8547.5698 1.709402 1.139601 1.994302 1.282051.14245.14245.42735.2849.5698.42735.14245.14245.569801.427351.997152.712252l.8547.5698s.569801.42735.997152.854701c2.421652 1.994302 5.270655 4.700855 5.413105 5.413106 0 .2849.14245.71225.2849.99715.14245.14245.14245 1.566952.14245 2.849004zm57.549861-56.55271s-.14245 0-.14245-.2849c0-.14245 0-.2849.14245-.14245z"/>
        <path d="M163.105417 53.276352c-.42735.42735-2.279202 2.136752-4.131054 3.988604l-3.276353 3.276353-.14245 32.621085c-.14245 31.766383-.14245 33.618235-.712251 36.467238-.14245.5698-.2849 1.709402-.42735 2.564103-.569801 3.133903-1.709402 7.264958-2.421653 9.11681-2.564103 6.125356-4.558405 9.40171-8.262109 13.247863-1.566952 1.566952-5.413106 4.700855-7.122507 5.698006-5.128206 3.133904-4.843306 2.991454-10.968662 5.982907-6.552707 3.276353-8.97436 4.415954-11.253562 5.840456-2.136752 1.139601-6.695157 4.415955-9.54416 6.837607-.8547.71225-1.566952 1.282051-1.709402 1.424502l-1.851852 1.851852c-.99715.99715-1.851852 1.709401-1.994302 1.709401-.14245 0-.99715-.71225-1.994302-1.566951-2.564103-2.421653-4.700855-4.273505-5.698006-4.843305-.2849-.14245-.5698-.2849-.71225-.42735-.2849-.142451-1.424502-.997152-2.279203-1.566952-.14245-.14245-.5698-.2849-.71225-.2849-.14245 0-.284901-.142451-.284901-.284901 0-.14245-.14245-.14245-.42735-.2849-.2849 0-.427351-.14245-.427351-.2849s-.14245-.14245-.2849-.14245-.42735-.142451-.5698-.284901c-.142451-.14245-.284901-.2849-.427351-.2849-.14245 0-.2849 0-.2849-.14245s-1.709402-1.139602-2.279203-1.424502c-.14245 0-.2849-.14245-.2849-.2849s-.14245-.14245-.2849-.14245-.569801-.14245-.854702-.427351c-.2849-.2849-.5698-.42735-.71225-.42735-.14245 0-.2849-.14245-.42735-.14245 0-.14245-.284901-.2849-.569801-.427351-.2849-.14245-.5698-.2849-.712251-.42735-.14245-.14245-1.709402-.997152-3.418804-1.994303-6.552707-3.703704-12.820513-7.692308-14.814815-9.25926-2.564103-2.136752-5.698006-4.985755-7.122508-6.695156-1.709402-1.994303-3.988604-5.413106-4.843305-6.837608-.14245-.42735-.5698-.99715-.71225-1.424501-.2849-.42735-.427351-.854701-.427351-.997151 0-.14245-.14245-.42735-.2849-.42735-.14245-.14245-.2849-.427351-.2849-.569801 0-.14245-.14245-.5698-.284901-.997151-.5698-1.139601-.5698-1.139601-.71225-1.851852 0-.42735-.14245-.712251-.284901-.712251-.14245 0-.14245-.2849-.14245-.42735 0-.14245-.14245-.569801-.2849-.997151-.14245-.2849-.2849-.854701-.2849-1.139602 0-.2849-.14245-.99715-.284901-1.424501-.14245-.42735-.2849-1.282052-.42735-1.851852-.14245-.5698-.2849-1.566952-.42735-2.279203-.142451-.99715-.284901-8.547009-.284901-35.327637V60.54131l-1.282052-1.28205c-.71225-.712252-2.564102-2.421653-4.131054-3.846155-2.279202-2.279202-2.706553-2.706553-2.421652-2.849003.2849-.2849 1.1396-.14245 1.1396.14245 0 .14245.14245.14245.284901 0 .2849-.14245.42735-.14245.5698.14245.14245.2849.997152.2849 4.558405.2849 2.991454 0 4.415955 0 4.415955-.14245.14245-.2849 3.561254-.42735 7.407408-.42735 1.282051 0 3.703704-.14245 5.413106-.2849 1.709401-.14245 3.133903-.2849 3.418803-.14245h.5698c.284901-.14245 1.709403-.569801 2.279203-.569801.997151 0 6.837607-1.851852 8.262109-2.564103.2849-.14245.71225-.2849.8547-.2849.14245 0 .427351-.14245.569801-.14245.14245-.14245.569801-.2849.997151-.42735.997151-.2849 1.282052 0 1.139602.99715-.2849 1.566952 1.1396 3.988605 2.849003 4.843306 2.564102 1.424501 5.413105 1.1396 6.980057-.712251.71225-.712251 1.566952-3.276354 1.566952-4.415955 0-1.709402-.854701-3.276353-1.994302-4.131054-.569801-.42735-.712251-.5698-.712251-.997151 0-.42735.42735-.712251 1.851852-1.424502 3.418803-1.851852 6.410256-3.846154 9.97151-6.980057 1.139601-.997151.854701-.997151 3.133904.71225 1.1396.854702 2.279202 1.851853 2.706552 2.136753.42735.2849.712251.42735.712251.5698 0 0 .71225.42735 1.424502.997152 3.418803 2.136752 3.561253 2.279202 6.410256 3.846154.42735.2849.854701.5698.997151.71225.14245.42735-.14245.997151-.5698 1.139602-.42735.14245-1.139601.99715-1.709402 1.994302-.5698 1.1396-.5698 3.133903 0 4.558404.42735 1.139602 1.566952 2.279203 2.849003 2.991454.8547.42735.997151.5698 2.564103.42735 1.424501 0 1.851852-.14245 2.849003-.5698 1.994302-.997152 3.133903-2.706553 3.133903-4.843306 0-.71225 0-1.424501.14245-1.566951.14245-.42735.71225-.42735 1.566952 0 .8547.42735 1.709402.8547 2.849003 1.282051.5698.14245 1.139601.42735 1.282051.42735.71225.2849 4.131055 1.139602 5.840456 1.424502 3.418804.71225 11.253562 1.139601 21.509973 1.282051 5.840456.14245 8.262109.14245 8.404559.2849-.5698-.71225-.854701-.2849-1.282052.14245z"/>
        <path d="M133.333336 75.925926c-.2849-.14245-.997151.42735-.997151.71225 0 .14245-.14245.42735-.14245.569801-.2849.5698-1.282051 2.849003-1.282051 2.991453 0 .14245-.14245.42735-.2849.71225-.14245.284901-.427351.712252-.427351.854702-.14245.14245 0 .42735.5698.71225.42735.2849.997151.427351 1.282052.427351.8547 0 .99715-.42735 1.1396-3.846154.142451-1.566952.284901-2.849003.284901-2.991453 0 0 0-.14245-.14245-.14245zm-23.361825 7.977208c1.709402 0 1.994303-.71225 2.279203-5.413106.14245-1.709401.2849-3.846154.2849-4.558404.2849-1.994303.2849-5.128206 0-5.413106-.14245-.14245-.71225-.2849-1.282051-.42735-1.566952-.2849-1.709402-.2849-1.851852 2.279202-.14245 1.139601-.2849 2.564102-.2849 2.991453-.14245.42735-.14245 1.994302-.14245 3.276353 0 1.282052-.14245 3.276354-.14245 4.415955-.14245 1.994302-.14245 2.136752.14245 2.421653.14245.2849.42735.42735.99715.42735zM69.80057 82.051282c1.851852-.2849 1.851852-.2849 1.994302-.8547 0-.284901 0-.569801-.14245-.854702-.2849-.42735-.5698-1.566951-.71225-1.994302 0-.14245-.14245-.5698-.2849-.99715-.142451-.284901-.284901-.712252-.284901-.854702 0-.14245 0-.2849-.14245-.42735-.14245-.14245-.2849-.42735-.2849-.854701-.284901-.997151-.427351-.997151-.712251 0s-.2849 6.410257 0 6.695157c-.14245.14245.2849.2849.5698.14245zm-1.994302 31.623933c.42735-.2849.42735-.42735.42735-3.988604v-3.703704l-.42735-.2849c-.5698-.42735-2.136752-.42735-2.564103 0-.2849.2849-.2849.71225-.2849 3.988604 0 2.991453 0 3.703704.2849 3.988604.2849.569801 1.994302.569801 2.564103 0zm12.962964 33.048435c-.2849 0-.854701 1.139601-.712251 1.424502.14245.2849 1.424502.2849 1.566952 0 0-.2849-.712251-1.424502-.854701-1.424502z"/>
    </g>
    <g class="color-black" fill="#010101">
        <path d="M151.566955 53.133902c-9.82906 0-13.817664-.14245-16.809117-.712251-4.558405-.854701-8.119659-1.851852-10.113961-2.849003-.997151-.42735-1.139601-.42735-1.282051.5698-.14245 1.139602-.997151 2.849003-1.709402 3.703704-.71225.854701-2.136752 1.709402-3.418804 2.136753-2.136752.71225-5.840456-.2849-7.407408-2.136753-.71225-.8547-1.424501-2.421652-1.709401-3.561253-.2849-1.566952.14245-3.703704 1.282051-5.413106.2849-.42735.42735-.8547.42735-.8547 0-.142451-.2849-.427351-.8547-.712252-.42735-.2849-1.709402-1.1396-2.849003-1.994302-1.139602-.8547-2.849003-1.994302-3.846155-2.706553-.99715-.71225-2.279202-1.566951-2.991453-1.994302-.71225-.42735-1.282051-.8547-1.424501-.71225-.14245 0-1.139601.8547-2.279203 1.709401-1.1396.854701-3.418803 2.421653-4.985755 3.561254-3.846154 2.564103-3.561254 2.279202-3.133903 2.849003.42735.5698.99715 1.566952 1.424501 2.849003.2849.71225.2849 1.282051.2849 2.564103-.14245 1.709402-.14245 1.994302-1.1396 3.276353-1.424502 1.994302-3.133904 2.849003-5.698007 2.991453-1.424501 0-1.709401 0-2.706552-.5698-1.994302-.997151-3.703704-2.991453-4.131055-4.843305-.2849-1.139602-.14245-1.139602-4.415954.5698-.14245.14245-.854701.2849-1.424502.42735-.5698.14245-1.424501.427351-1.709402.427351-1.1396.2849-4.843305.997151-7.264957 1.282051-4.415955.427351-7.834759.569801-15.527067.569801-4.558404 0-8.262108 0-8.262108.14245s.14245.42735.5698.712251c.712251.5698 1.709402 1.566952 4.700855 4.415955l1.424502 1.424501v34.188036c0 37.17949 0 35.042737.99715 39.458692.427351 1.994302.569801 2.564102 1.566952 4.843305.854701 2.279202 2.421653 5.413106 3.418804 7.264957 2.279202 3.561254 2.991453 4.558405 5.128205 6.552707 1.994302 1.994302 2.991454 2.849003 5.128206 4.558405.99715.854701 1.994302 1.566952 1.994302 1.566952.2849.14245 3.988604 2.706553 4.273504 2.849003.14245 0 .712251.42735 1.139602.71225.5698.427351 1.566951.997152 2.136752 1.282052.5698.2849 1.566951.997151 2.279202 1.282051.5698.42735 1.139601.712251 1.282052.712251 0 0 .5698.2849 1.28205.71225.712252.427351 1.282052.712252 1.282052.712252s1.139601.5698 2.564103 1.424501c1.424501.8547 2.849003 1.566952 3.276353 1.851852.42735.2849 1.709402.997151 2.991454 1.709402 1.1396.71225 2.279202 1.424501 2.421652 1.566951 2.849003 1.709402 8.404559 5.982907 10.25641 7.977209.427351.42735.854702.8547.997152.8547.2849 0 1.282051-.8547 3.418804-2.706552 2.279202-1.994302 7.264957-5.698006 10.39886-7.549858.14245-.14245.997152-.5698 1.851852-1.139601 2.564103-1.566952 3.276354-1.994302 9.68661-5.128206 8.11966-3.988604 9.25926-4.700855 12.393164-6.980057 2.991453-2.136752 4.131054-3.276353 7.834758-6.980057 2.279202-2.279203 4.131054-5.413106 5.555556-8.83191.2849-.5698.42735-1.1396.5698-1.424501 1.139602-2.849003 2.564103-8.68946 3.418804-14.102565.14245-.997151.2849-11.538462.2849-34.188036V60.541309l.5698-.5698c.569802-.42735 2.136753-1.851852 3.988605-3.561254.2849-.2849.71225-.71225.997151-.8547l.997151-.997152c.42735-.42735.712251-.71225.712251-.8547 0-.427351-4.558405-.569801-10.11396-.569801zm-32.621084 34.330486c0-.42735.14245-.997151.14245-1.139601.14245-.14245.2849-1.139602.42735-1.994302.14245-.854701.2849-2.564103.427351-3.561254.14245-.997151.42735-2.706553.42735-3.561254.14245-.8547.2849-1.709402.42735-1.994302.142451-.14245.142451-.854701.142451-1.424502 0-.5698.14245-1.282051.14245-1.709401.14245-.42735.2849-1.424502.42735-2.279203.14245-.8547.284901-2.136752.427351-2.849003.2849-1.566951.42735-1.709402 1.709402-1.282051.42735.14245.997151.2849 1.282051.2849.5698 0 .997151.42735.712251.997151-.14245.42735-.5698 2.991453-.8547 5.128206-.142451 1.28205-.427351 3.276353-.854702 4.843305-.14245.5698-.2849 1.566951-.42735 2.279202-.14245.5698-.2849 1.994302-.42735 2.991453-.14245.997151-.427351 2.421653-.427351 3.133904-.14245.71225-.2849 1.709401-.42735 2.136752-.2849.99715-.427351 1.139601-1.424502.8547-.2849 0-.854701-.14245-1.282051-.14245h-.854701v-.71225zm4.843305 18.51852v20.797721h-1.566952c-1.1396 0-1.709401 0-1.709401-.14245s-.14245-4.843305 0-10.39886v-10.113962h3.276353zM105.982907 71.36752c.14245-1.139601.14245-3.133903.14245-4.273505v-2.136752l.569801-.42735c.42735-.2849.71225-.42735 1.424502-.2849.42735 0 2.279202.14245 3.846154.2849 2.849003.14245 2.991453.14245 3.703703.71225.997152.712251 1.139602 1.139602.854701 3.418804-.14245 1.139601-.2849 3.133903-.42735 4.558405-.14245 1.424501-.2849 2.706553-.2849 2.849003-.14245.14245-.14245 1.139601-.2849 2.279202-.284901 5.270656-.712251 7.549858-1.709402 8.40456-.2849.2849-.569801.42735-4.273505.42735-2.991453 0-3.846154 0-3.988604-.2849-.14245-.427351.14245-11.823363.42735-15.527067zm-2.564102 34.615386h1.424501v20.797722h-3.418804c-.14245-.14245-.2849-2.279202-.2849-10.39886v-10.256412l.42735-.14245c.2849 0 .997152-.14245 1.851853 0zm-11.965813-19.94302c.14245-1.851853.5698-5.128206.71225-5.840457.14245-.2849.14245-1.139601.14245-1.709402 0-.5698.142451-1.282051.142451-1.709401.14245-.2849.2849-1.424502.42735-2.421653.14245-1.709402.42735-3.561254.712251-5.840456.14245-.5698.2849-1.709402.2849-2.564103.14245-1.424501.14245-1.424501.712251-1.566951.2849-.14245 1.424502-.14245 2.421653-.14245H98.8604l.2849.5698c.14245.2849.42735 1.139601.42735 1.709402 0 .71225.14245 1.424501.2849 1.566951.142451.14245.142451.712251.142451 1.139602 0 .42735.14245 1.1396.2849 1.709401.14245.42735.2849 1.282052.2849 1.566952 0 .42735.14245.854701.14245 1.139601.14245.2849.284901.997151.427351 1.709402.42735 2.991453.5698 3.703704.712251 4.273505.14245.2849.14245.8547.14245 1.28205 0 .427351.14245.997152.14245 1.282052.14245.42735.5698 2.564103.5698 3.846154v.5698H99.28775l-.14245-1.1396c-.14245-1.424502-.42735-2.421653-.8547-2.564103-.14245 0-.997152-.14245-1.851853-.2849l-1.566951-.14245-.14245.42735c-.14245.2849-.2849 1.139601-.2849 1.994302 0 .854701-.142451 1.566952-.284901 1.709402.14245.5698-.42735.5698-1.424502.5698h-1.424501zm-25.498577-18.37607c.2849-.2849 1.709402-.5698 3.418804-.71225l1.566951-.14245.2849.5698c.14245.2849.284901.71225.284901.8547 0 .14245.14245.569801.2849.854701.14245.2849.2849.712251.2849.854701 0 .14245.14245.5698.2849.997151.142451.2849.427351 1.139602.569802 1.709402.14245.5698.42735 1.282052.42735 1.424502.14245.14245.14245.42735.14245.71225 0 .14245.14245.569801.2849.854701.14245.2849.2849.712251.2849.854701 0 .2849.14245.5698.284901.997151.14245.2849.2849.712251.2849.997151 0 .2849.14245.42735.14245.5698.14245 0 .2849.427351.2849.854702 0 .42735.14245.8547.284901.8547.14245 0 .14245.284901.14245.569801s.14245.712251.2849.997151c.14245.2849.2849.712251.2849.997151 0 .2849.142451.712251.284901.854701.14245.14245.2849.5698.2849.712251 0 .2849.14245.71225.2849.997151.712251 1.566952.854702 2.564103.427351 2.849003-.14245 0-.8547.14245-1.566951.2849-1.139602.14245-1.424502.14245-1.709402-.14245-.14245-.14245-.2849-.42735-.2849-.71225 0-.14245-.14245-.712251-.2849-.997152-.142451-.42735-.284901-.99715-.427351-1.28205-.14245-.569801 0-.569801-2.706553-.142451-1.566952.2849-1.566952.2849-1.424502 2.136752.14245 1.994302 0 2.564103-.5698 2.564103-.2849 0-.712251.14245-1.139601.2849-.854701.2849-1.139602.2849-1.424502.14245 0-.2849-.2849-22.934474.14245-23.219374zm13.247864 38.60399c1.139601 0 1.709402.14245 1.851852.2849.14245.142451.2849.712252.2849 1.139602 0 .5698.2849 1.709402.42735 2.564103.14245.8547.427351 2.279202.427351 2.991453.14245.71225.2849 1.566952.42735 1.709402.14245.14245.14245.71225.14245 1.282051 0 .42735.142451 1.282051.284901 1.566952.14245.42735.2849 1.139601.2849 1.566951 0 .42735.14245.997151.14245 1.282052.14245.14245.2849.99715.427351 1.709402.14245.71225.2849 1.851852.2849 2.564102.14245.712251.14245 1.424502.14245 1.566952 0 .14245-.5698.2849-1.424501.2849-1.566952 0-1.566952-.14245-2.136752-1.851852l-.42735-1.282051h-3.133904l-.2849.997151c-.14245.5698-.2849 1.139601-.42735 1.424501 0 .2849-.14245.42735-.284901.569801-.14245 0-.8547.14245-1.709402.14245h-1.424501v-.5698c0-.2849.14245-.569801.14245-.712251.14245-.14245.2849-.71225.42735-1.424502.14245-.71225.2849-1.994302.42735-2.706552.14245-.854701.427351-1.994303.427351-2.564103.14245-.5698.14245-1.282052.2849-1.424502.14245-.14245.14245-.71225.2849-1.424501.284901-1.709402.569801-3.418804.712252-4.131055.14245-.5698.42735-2.279202.71225-3.988604.5698-1.424501.712251-1.566951 2.706553-1.566951zM60.82621 92.450144c-.2849 0-.8547.14245-.99715.2849-.2849.14245-.712251.14245-.997151.14245-.2849 0-.854701.14245-1.139602.2849-.8547.284901-1.424501.284901-1.851852 0-.14245-.14245-.42735-.2849-.71225-.2849-.42735 0-1.566952-1.424501-1.566952-1.851851 0-.14245-.14245-.2849-.14245-.42735-.14245-.142451-.2849-.569801-.42735-.997152-.14245-.42735-.2849-1.139601-.427351-1.566952-.14245-.42735-.2849-.8547-.42735-.99715-.14245-.14245-.14245-.427351-.14245-.712251s-.14245-.712251-.2849-.997151c-.142451-.2849-.284901-.712251-.284901-.997151 0-.2849-.14245-.712251-.2849-.997152-.14245-.2849-.2849-.71225-.2849-.99715 0-.2849-.14245-.569801-.14245-.569801-.142451 0-.284901-.42735-.284901-.854701 0-.42735-.14245-.854701-.2849-.854701S50 79.772081 50 79.487181s-.14245-.712251-.284901-.997152c-.14245-.2849-.2849-.71225-.2849-.99715 0-.284901-.14245-.712251-.2849-.997152-.427351-.8547-.854701-2.564102-.854701-2.991453 0-.14245-.14245-.42735-.14245-.42735-.14245 0-.14245-.2849-.14245-.5698 0-.284901-.14245-.569802-.284901-.997152-.2849 0-.42735-.42735-.42735-.71225 0-.284901-.14245-.712251-.2849-.997152-.427351-.71225-.427351-2.849003-.142451-3.133903.2849-.2849 1.282051-.854701 2.136752-.997151.712251-.14245 1.709402-.5698 2.136753-.71225.14245-.142451.5698-.142451.99715-.284901.427351-.14245.712251-.14245.712251-.2849s.2849-.14245.5698-.14245c.284901 0 .569802-.14245.997152-.2849.2849-.142451.997151-.284901 1.566952-.284901.8547 0 1.1396.14245 1.566951.5698.2849.2849.712251.712251.712251.997151 0 .2849.14245.569801.2849.569801s.14245.42735.14245.71225c0 .427351.14245.997152.2849 1.282052.14245.42735.284901.997151.284901 1.282051 0 .2849.14245.854701.2849 1.282052.42735.99715.42735 1.566951-.2849 1.851852-.71225.2849-2.279202.71225-2.849003.8547-.5698.14245-.997151-.2849-.997151-.99715 0-.569801-.5698-2.279203-.8547-2.706553-.284901-.42735-1.424502-.42735-1.994303 0-.2849.2849-.42735.42735-.42735 1.139601 0 .42735.14245 1.139601.2849 1.424501.14245.2849.2849.712251.2849.997152 0 .2849.14245.71225.2849.99715.14245.2849.2849.712251.2849.997152 0 .2849.14245.5698.14245.71225.142451 0 .284901.42735.284901.997151 0 .42735.14245.854701.2849.997151.14245 0 .14245.2849.14245.569801 0 .2849.14245.71225.284901.997151.14245.2849.2849.71225.2849.997151 0 .2849.14245.71225.2849.997151.14245.2849.2849.712251.2849.997151 0 .2849.142451.5698.142451.712251.14245 0 .2849.42735.2849.8547 0 .427351.14245.854702.2849.997152.14245.42735.569801 1.709402.712251 2.564103.14245.71225.569801.99715 1.566952.99715.997151-.14245 1.282051-.5698.8547-2.421652-.14245-.71225-.2849-1.709402-.42735-2.279202-.14245-1.139601.14245-1.282052 1.424502-1.566952.42735 0 .8547-.14245.997151-.2849.2849-.42735 1.424502.14245 1.424502.8547 0 .14245.14245.427351.14245.569801.14245.14245.2849.854701.42735 1.566952.42735 2.706553.5698 3.133903.71225 3.561254.142451.2849.142451.99715.142451 1.566951 0 .854701 0 1.139602-.5698 1.566952-.2849.2849-.854701.5698-1.139602.5698-.42735.14245-.71225.14245-.8547.2849 0 0-.284901.142451-.569801.142451zm.712251 34.330486c0-.2849-.14245-5.982906 0-12.820513v-12.393163h4.415955c6.695157-.14245 6.125357-.712251 6.125357 8.119658 0 7.549858 0 7.264958-1.282052 7.977209-.42735.2849-1.139601.2849-2.849003.2849-1.282051 0-2.421652 0-2.564102.14245-.2849.14245-.2849.71225-.2849 4.273505 0 2.279202 0 4.415954-.14245 4.558404-.142451.2849-.427351.2849-1.709403.2849-1.566951 0-1.709402 0-1.709402-.42735zm12.535614 18.94587c-.712251.71225-.997151 1.282052-.5698 1.566952.2849.14245.14245 2.849003-.142451 3.846154-.14245.5698-.2849.71225-.71225.71225-.284901 0-.854702-.14245-1.139602-.2849l-.5698-.2849.14245-1.709402c.14245-1.709402 0-2.279202-.569801-2.279202-.14245 0-.42735-.14245-.71225-.2849-.854702-.427351-1.282052-.427351-1.709403.42735-.14245.42735-.42735.997151-.42735 1.139601 0 .2849-.14245.5698-.14245.71225-.14245.142451-.2849.427351-.2849.569801-.14245.2849-.2849.2849-.712251.14245-.854701-.14245-1.566952-.5698-1.566952-.8547 0-.14245.14245-.42735.2849-.712251.14245-.2849.2849-.71225.2849-.997151 0-.2849.14245-.5698.14245-.5698.142451 0 .284901-.427351.284901-.997152 0-.42735.14245-.8547.2849-.99715.14245 0 .14245-.427351.14245-.712252 0-.2849.14245-.8547.2849-.99715.142451-.2849.284901-.712251.284901-.997152 0-.2849.14245-.71225.2849-.99715.14245-.284901.2849-.712251.2849-.997152 0-.8547 1.139602-.8547 2.991454-.2849.42735.14245 1.139601.2849 1.566952.42735 1.1396.2849 1.994302.712251 2.421652 1.139602.2849.2849.42735.5698.42735 1.851852v1.424501zm10.39886 7.834758c-.2849.42735-1.28205.42735-1.851851 0-.2849-.2849-.42735-.5698-.5698-1.282051-.142451-.8547-.142451-.8547-.712252-.997151-.2849-.14245-.8547-.2849-1.282051-.42735-.8547-.2849-1.709402-.14245-1.851852.2849 0 .14245-.14245.42735-.2849.5698-.14245.14245-.2849.42735-.42735.569801-.14245.14245-.427351.42735-.569801.42735-.5698 0-1.851852-.5698-1.851852-.8547 0-.14245.99715-2.136753 1.139601-2.279203.14245-.14245.2849-.5698 1.139601-2.136752.14245-.42735.42735-.71225.5698-.854701.14245 0 .14245-.2849.14245-.42735 0-.14245.142451-.42735.142451-.42735.14245 0 .2849-.142451.2849-.427351s.14245-.42735.2849-.5698c0 0 .284901-.427351.569801-.997152.2849-.42735.5698-.997151.5698-1.282051.142451-.2849.427351-.42735.997152-.42735 1.282051 0 1.709402.2849 1.994302 1.4245.14245.569801.2849 1.282052.2849 1.709403 0 .42735.14245 1.28205.2849 1.851851s.2849 1.424502.2849 1.851852c0 .42735.142451.854701.142451.854701.14245 0 .14245.42735.14245.854701 0 .42735.14245 1.139601.14245 1.566952.42735.71225.42735 1.282051.2849 1.424501zm.712251-66.66667c-.14245-.2849-.2849-.71225-.42735-.99715-.14245-.284901-.2849-.712252-.42735-.997152-.14245-.2849-.2849-.71225-.2849-.8547 0-.142451-.142451-.427351-.284901-.712252-.14245-.14245-.2849-.5698-.2849-.71225 0-.14245-.14245-.5698-.2849-.712251-.14245-.14245-.284901-.5698-.284901-.71225 0-.569801-.42735-.569801-.5698 0-.14245.42735-.14245 1.1396.14245 2.991452.2849 2.706553.42735 3.561254.14245 3.703704-.14245 0-.712251.14245-1.282052.2849-1.566951.14245-1.851852-.14245-1.851852-1.994302 0-.71225-.14245-1.566951-.14245-1.851851-.14245-.2849-.2849-1.424502-.42735-2.421653-.2849-3.846154-.5698-5.982906-.712251-6.695157-.14245-.2849-.14245-1.139601-.14245-1.709402 0-.5698-.14245-1.424501-.14245-1.994302-.2849-1.566952-.5698-5.270656-.2849-5.698006.14245-.14245.42735-.2849.8547-.2849.2849 0 .854701-.14245 1.139602-.2849.42735-.14245.5698-.14245.99715 0 .2849.14245.427351.2849.427351.42735 0 .14245.14245.5698.2849.8547.14245.284901.42735 1.282052.712251 1.994303.2849.71225.5698 1.566951.71225 1.851852.142451.2849.284901.71225.284901.8547 0 .14245.14245.427351.2849.712251.14245.14245.2849.569801.2849.712251 0 .14245.14245.42735.14245.71225.142451.284901.142451.284901.427351 0 .2849-.42735.2849-5.982905 0-6.980056-.2849-1.282052-.14245-1.566952 1.424502-1.709402 1.994302-.14245 1.994302-.2849 2.136752 3.133903 0 1.566952.14245 3.133903.2849 3.418804.14245.2849.14245 1.566951.14245 2.991453 0 1.282051.14245 3.133903.14245 3.846154.14245.8547.284901 2.991453.427351 4.843305.14245 4.131054.14245 4.273504-1.282051 4.273504-1.566952.42735-1.994302.2849-2.279203-.2849zm5.128206 58.404562c-.14245.99715-.14245 2.706553-.2849 3.703704 0 1.851852-.2849 4.131054-.427351 4.985755-.14245.2849-.2849.2849-1.282051.2849h-1.139602l.14245-2.279202c0-1.282052.14245-3.703704.2849-5.413106.142451-3.418804.142451-3.418804 1.566953-3.418804 1.28205.14245 1.424501.14245 1.1396 2.136753zm-.854701-18.66097c-.42735-.14245-.997151-.71225-1.139601-1.282051-.14245-.5698-.2849-16.809118 0-17.663819.14245-.71225.71225-1.282051.99715-1.282051.14245 0 .427351-.14245.427351-.14245 0-.14245 1.282052-.14245 3.133903-.14245 3.133904 0 3.988605.14245 4.415955.99715.14245.14245.2849.42735.2849.42735.14245 0 .14245 1.424502.14245 2.991454v2.849003h-3.133903l-.14245-1.424501c-.14245-1.139602-.14245-1.566952-.5698-1.994303-.569801-.71225-1.424502-.71225-1.994303 0l-.5698.569801v11.965813l.5698.5698c.712251.712251 1.282052.712251 1.994303 0l.5698-.5698v-4.273505h3.418804v3.418804c0 3.846154-.14245 4.273504-1.282052 4.843305-.42735.14245-1.282051.2849-3.561253.2849-1.851852 0-3.418804 0-3.561254-.14245zm10.968661 27.77778c-.14245.71225-.2849.71225-.71225.71225-.2849 0-1.851852-.14245-3.418804-.14245l-2.849003-.14245v-.854701c0-.42735.14245-1.851852.14245-3.133903.14245-1.282052.2849-3.276354.2849-4.558405l.14245-2.421653h2.279203l-.14245 4.131055c-.14245 3.133903 0 4.131054.14245 4.273504.14245.14245 1.139601.14245 2.136752.2849 1.851852 0 1.994302 0 2.136753.5698 0 .284901 0 .712252-.14245 1.282052zm11.396012-9.11681c-.14245.71225-.2849 1.709401-.2849 2.136752 0 .42735-.14245 1.282051-.2849 1.851852-.14245.5698-.2849 1.566952-.2849 2.136752 0 .5698-.14245 1.139601-.14245 1.139601-.14245 0-.14245.2849-.14245.712251 0 .997151-.14245 1.139601-.997152 1.139601-.8547 0-1.424501-.42735-1.424501-.99715 0-.14245-.14245-.427351-.2849-.569801-.14245-.14245-.2849-.42735-.2849-.712251 0-.2849-.854702-1.139601-.997152-.997151l-.2849 1.424501c-.14245.712251-.14245 1.566952-.2849 1.709402-.14245.42735-.2849.42735-1.139602.42735-.99715 0-1.424501-.2849-1.424501-.8547 0-.2849-.14245-.712251-.2849-.997151-.14245-.2849-.427351-1.139602-.569801-1.709402-.14245-.5698-.42735-1.139601-.42735-1.282052-.14245-.14245-.14245-.42735-.2849-.71225-.142451-.5698-.427351-1.424502-.854702-2.421653-.14245-.2849-.2849-.8547-.2849-.99715 0-.284901-.14245-.427351-.14245-.569801-.2849-.14245-.14245-.712251.2849-.997152.997151-.42735 1.709402-.14245 1.709402.569801 0 .14245.14245.5698.2849.997151.5698 1.139601.5698 1.424502.71225 1.994302 0 .2849.284901.5698.427351.5698.2849 0 .854701-1.1396.854701-2.279202 0-.42735.2849-1.1396.42735-1.566951.284901-.712251.284901-.712251.997152-.712251.71225 0 .71225.14245 1.1396 1.282051.284901.712251.569802 1.282052.569802 1.424502 0 .14245.14245.42735.2849.71225 0 .2849.14245.569801.2849.569801.2849 0 .854701-1.566951.854701-2.421652 0-.42735.14245-.997151.2849-1.424502.2849-.5698.2849-.5698 1.139602-.5698 1.1396 0 1.28205.14245.8547 1.994302zm.854701-26.780629c-.14245.2849-.14245 2.279203-.14245 4.415955v3.846154h-1.566951c-.854701 0-1.566952 0-1.709402-.14245-.14245 0-.2849-2.279202-.2849-10.11396 0-5.413106 0-10.113961.14245-10.256411.14245-.2849.71225-.2849 4.843305-.2849h4.843305v3.703703h-2.991453c-1.994302 0-2.991454 0-3.133904.2849-.2849.2849-.2849 3.703704 0 4.131055.2849.42735.42735.42735 2.279203.42735h2.136752v3.418804h-2.136752c-2.136753.14245-2.136753.14245-2.279203.5698zm10.826212 33.903136c-.854701.42735-1.282052.42735-1.424502-.14245 0-.14245-.14245-.42735-.2849-.42735s-.14245-.14245-.14245-.2849-.14245-.427351-.42735-.712251c-.427351-.42735-.569801-.42735-1.566952-.2849-1.424502.2849-1.851852.42735-1.851852.8547 0 .14245 0 .42735-.14245.42735-.14245.14245-.2849.427351-.2849.854701-.14245.712251-.14245.712251-1.282052.712251h-1.139601l.14245-1.282051c0-.71225.2849-1.994302.42735-2.849003.14245-.854701.42735-2.136752.42735-2.991453.14245-.712251.284901-1.424502.284901-1.566952 0-.14245.14245-.71225.2849-1.139601.14245-.997151.14245-.997151.712251-1.282051 1.282051-.569801 1.994302-.42735 2.706553.71225.14245.2849.2849.42735.5698.997151 0 .14245.2849.712251.569801 1.139602.2849.5698.854701 1.566951 1.424502 2.564102.42735.854701.99715 1.994302 1.282051 2.421653.2849.42735.5698.8547.5698.99715.14245.569801-.2849.997152-.8547 1.282052zm7.692308-11.538462c-.14245.2849-.2849.71225-.2849.8547 0 .142451-.14245.427351-.2849.712252-.14245.14245-.284901.5698-.284901.8547 0 .2849 0 .569801-.14245.712251-.2849.2849-.854701 2.136753-.712251 2.279203.14245.2849.5698 2.279202.8547 3.418803.142451.854701.142451.997151-.14245 1.282052-.14245.14245-.71225.2849-1.1396.2849-.854701 0-.854701 0-1.139602-.71225-.14245-.427351-.2849-.854702-.2849-1.139602 0-.2849-.14245-.71225-.2849-.8547-.14245-.284901-.2849-.712252-.2849-.997152 0-.5698-.569801-1.282051-1.994303-2.421652-2.136752-1.709402-2.991453-2.706553-2.991453-2.991454 0-.14245.14245-.2849.2849-.2849s.569801-.14245.854701-.2849l.569801-.2849 1.424502 1.1396c.8547.569801 1.566951 1.139602 1.709401 1.282052.2849.42735.997151 0 1.139602-.5698 0-.2849.14245-.712251.2849-.854701.2849-.42735.71225-1.566952.8547-1.994303.14245-.42735.997152-.71225 1.709403-.5698.71225 0 .71225.42735.2849 1.139601zm3.703704 8.83191c-.2849 0-.712251.14245-.854701.14245-.2849 0-.2849 0-.2849-.2849 0-.142451-.14245-.427351-.14245-.427351-.2849-.14245-.14245-.712251.2849-.997151.71225-.42735 1.1396-.2849 1.282051.2849 0 .2849.14245.71225.2849.8547-.14245.142451-.14245.284901-.5698.427351zm-3.703704-32.621085c0 6.410257 0 6.695157 1.424501 6.695157.712251 0 .854701 0 1.282052-.42735.42735-.42735.42735-.712251.42735-2.564103v-2.136752h3.133903v3.418803c0 2.849003 0 3.418804-.2849 3.703704-.14245.14245-.2849.2849-.2849.42735 0 .14245-.2849.2849-.71225.569801-.997152.42735-6.410258.42735-7.122508 0-1.139602-.71225-1.139602-.42735-1.139602-9.40171v-8.97436c.14245-.5698.2849-.99715.712251-1.28205l.5698-.569801h6.980058l.5698.5698c.284901.2849.569801.712251.712251.997152.14245.2849.14245 1.566951 0 3.133903v2.706553h-3.133903v-1.566952c0-1.424501-.14245-1.566952-.5698-1.994302-.569801-.42735-1.566952-.5698-1.994303-.14245-.5698.14245-.71225 1.424501-.5698 6.837607zm6.125356-43.162395c-.14245 1.1396-.2849 2.564102-.2849 3.276353 0 .71225-.14245 1.851852-.14245 2.421653-.14245.5698-.2849 2.421652-.42735 3.846154-.427351 6.980057-.569801 7.977208-.854702 8.119658-.14245.14245-.2849.14245-.2849.14245s-.5698-.14245-1.282051-.14245c-1.709402-.14245-1.851852-.42735-1.566952-2.849003.14245-1.282051 0-1.851852-.5698-1.851852-.14245 0-.569801-.14245-.854701-.2849-.2849-.14245-.854701-.2849-1.282052-.2849-.5698-.14245-.8547 0-1.1396.2849-.142451.14245-.427351.5698-.427351.71225 0 .427351-.712251 2.279203-.854701 2.421653-.14245.14245-.854701.14245-2.136752-.14245-.712251-.14245-1.282052-.71225-.997152-1.139601.14245-.14245.2849-.71225.42735-1.139601.142451-.42735.427351-.997151.569802-1.282052.14245-.2849.2849-.5698.2849-.71225 0-.14245.14245-.42735.2849-.712251.14245-.2849.42735-.712251.42735-1.139601.14245-.2849.2849-.854701.427351-1.139602.14245-.2849.42735-.99715.5698-1.424501.14245-.42735.427351-1.139601.569801-1.424502.14245-.2849.2849-.71225.2849-.8547 0-.14245.14245-.2849.14245-.2849.14245 0 .14245-.142451.14245-.284901 0-.14245.142451-.42735.284901-.71225.14245-.142451.2849-.569801.2849-.712252 0-.14245.14245-.5698.2849-.71225.14245-.14245.284901-.569801.284901-.712251 0-.14245.14245-.5698.2849-.854701.14245-.2849.42735-.8547.5698-1.282051.142451-.42735.427351-.854701.427351-1.139602.14245-.14245.2849-.71225.42735-1.1396.142451-.427351.427351-.997152.569801-1.282052.14245-.2849.2849-.5698.2849-.854701 0-.5698.569801-.71225 1.566952-.5698.569801.14245 1.139602.2849 1.282052.2849.14245.14245.5698.14245.99715.2849 1.424502.2849 1.566952.2849 1.566952 1.994302.14245.854701 0 2.279202-.14245 3.276354zm15.811967.5698c-.14245 0-.14245.2849-.14245.5698 0 .284901-.14245.569801-.2849.997152-.14245.2849-.2849.71225-.2849.8547 0 .284901-.142451.569801-.284901.712251-.14245.14245-.2849.569801-.2849.712251 0 .14245 0 .42735-.14245.5698-.14245.14245-.2849.712252-.427351 1.282052-.14245.5698-.42735 1.282051-.5698 1.566952-.14245.2849-.2849.71225-.2849.99715 0 .284901-.142451.569801-.284901.712252-.14245.14245-.2849.5698-.2849.71225 0 .2849 0 .42735-.14245.5698-.14245 0-.284901.427351-.284901.712252 0 .42735-.14245.8547-.2849.99715-.14245.427351-.5698 1.566952-.712251 1.994303 0 .2849-.14245.5698-.2849.8547-.14245.284901-.2849.569801-.2849.712251 0 .2849-.14245.569801-.2849.997152-.142451.2849-.284901.71225-.284901.8547 0 .14245-.14245.42735-.14245.42735-.14245 0-.14245.284901-.14245.427351 0 .14245-.14245.5698-.2849.854701-.427351.997151-.997152 1.139601-2.421653.42735-1.139602-.5698-1.139602-.5698-.997151-4.273504.14245-1.851852.14245-3.418803.14245-3.561254-.14245-.2849-.997151.854701-.997151 1.424502 0 .2849-.14245.5698-.2849.8547-.14245.142451-.2849.569801-.2849.712252 0 .2849-.142451.5698-.284901.99715-.14245.2849-.2849.712251-.2849.854702 0 .14245-.14245.71225-.2849 1.1396-.284901.712251-.427351.712251-.854702.569801-.2849 0-.8547-.14245-1.282051-.42735-.71225-.2849-.71225-.2849-.854701-.997151 0-.42735 0-.997151.2849-1.282052.14245-.2849.2849-.71225.2849-.99715 0-.2849.14245-.712251.2849-.997152.142451-.2849.284901-.71225.284901-.99715 0-.284901.14245-.569801.14245-.569801.14245 0 .2849-.42735.2849-.854701 0-.42735.14245-.854701.284901-.997151.14245-.2849.42735-1.424502.71225-2.564103.14245-.2849.284901-.8547.427351-.997151.14245-.2849.14245-.71225.14245-.997151 0-.2849.14245-.5698.14245-.71225.14245 0 .2849-.427351.2849-.854702 0-.42735.14245-.8547.284901-.99715.14245-.284901.42735-1.139602.71225-2.564103.142451-.42735.284901-.854701.427351-1.139602.14245-.2849.2849-1.1396.5698-1.709401l.284901-1.139602h1.139601c1.139602 0 2.136753.2849 2.136753.569801v4.558405c0 2.706553.14245 4.415954.14245 4.415954.14245 0 .42735-.5698.71225-1.28205.2849-.854702.569801-1.424502.569801-1.566953 0 0 .14245-.2849.14245-.42735 0-.14245.14245-.5698.2849-.8547.2849-.712252.712251-1.709403.854701-2.279203.2849-1.139602.712251-1.709402.997152-1.566952.14245 0 .71225.2849 1.1396.42735 1.282052.2849 1.709403.569801 1.709403 1.282052-.42735 0-.42735.2849-.569801.2849z"/>
        <path d="M70.79772 142.450146c-.2849 0-.71225-.14245-.99715-.2849-.427351-.14245-.427351 0-.712252.42735-.14245.2849-.14245.71225-.14245 1.139601 0 .42735.14245.5698.5698.5698.284901 0 .569801.14245.712252.284901.5698.5698 1.994302-.2849 1.709401-.997151 0-.5698-.5698-.997151-1.1396-1.139601zm9.11681-22.364674c.14245-.2849.14245-.42735 0-1.282051-.14245-.5698-.2849-1.139601-.42735-1.424502-.14245-.71225-.427351-.71225-.854702.14245-.42735.854701-.5698 2.136753-.2849 2.564103.14245.2849 1.282052.2849 1.566952 0zM96.866098 79.20228h1.1396v-.71225c0-.427351 0-1.139602-.2849-1.851853-.14245-.5698-.2849-1.424501-.2849-1.851852 0-.42735-.14245-.99715-.2849-1.424501-.14245-.42735-.2849-.8547-.2849-1.139601 0-.14245-.14245-.42735-.2849-.42735s-.2849.2849-.427351 1.1396c0 .569801-.14245 1.282052-.2849 1.424502 0 .14245-.14245.997151-.2849 1.709402-.14245.8547-.284901 1.709402-.284901 1.994302-.14245.2849 0 .5698.14245.8547.14245.284901.5698.284901 1.424502.284901zm21.509972 67.66382c-.2849.14245-.2849 1.424502 0 1.709402 0 0 .2849.14245.42735 0 .14245 0 .427351-.14245.569801-.14245.42735 0 .2849-.8547-.14245-1.282051-.42735-.2849-.71225-.2849-.8547-.2849z"/>
        <path d="M179.059834 46.581195c-.5698-.14245-7.834758-.2849-23.789175-.5698-8.83191-.142451-16.096867-.284901-16.809118-.427351-3.133903-.5698-8.831909-1.994302-11.253561-2.849003-.42735-.14245-.854701-.2849-1.139602-.42735-2.564102-.997152-4.558404-1.709403-5.128205-1.994303-.14245-.14245-.42735-.14245-.5698-.14245-.14245 0-.14245 1.282051-.14245 3.703704 0 3.276353 0 3.846154-.284901 4.273504-.8547 1.139602-2.136752 1.709402-3.418804 1.282052-1.424501-.42735-2.279202-1.139601-2.706552-2.421653-.14245-.5698-.14245-.8547 0-1.566951.2849-.854701.5698-1.139602 1.994302-1.566952.2849-.14245.2849-.42735.2849-2.849003v-2.849003l-1.566952-.854701c-.8547-.42735-1.709402-.997151-1.851852-.997151-.14245-.14245-.5698-.42735-.99715-.5698-.427351-.2849-.854702-.427351-.854702-.569801 0-.14245-.14245-.14245-.14245-.14245-.42735 0-5.128205-3.418804-7.692308-5.698006-2.136752-1.851852-3.988604-3.276354-4.273504-3.276354-.14245 0-.712251.5698-1.282052 1.139601-.5698.569801-1.709402 1.566952-2.421652 2.136753-.712251.5698-1.566952 1.282051-1.709402 1.424501-.2849.2849-.5698.42735-.5698.42735s-.284901.14245-.427351.2849c-.5698.569801-1.851852 1.424502-1.994302 1.424502-.14245 0-.2849 0-.2849.14245s-3.561254 2.421653-5.982907 3.988605l-.99715.71225v2.849003c0 3.133904 0 3.133904 1.1396 3.276354 1.566952.2849 2.279203 2.136752 1.282052 3.418804-1.139602 1.566951-3.703704 1.851851-4.985756.5698-.71225-.5698-.99715-2.136752-.71225-2.421652.2849-.14245.42735-1.709402.2849-3.703704-.14245-1.851852-.14245-1.851852-.5698-1.851852-.2849 0-.854702.2849-1.424502.5698-1.139601.5698-2.279203.997151-2.849003 1.139602-.14245 0-.5698.14245-.71225.2849-1.139602.42735-5.982907 1.851852-8.54701 2.421652-5.270655 1.139602-5.555556 1.282052-26.353278 1.282052-10.68376 0-18.94587.14245-18.94587.2849s5.270656 5.698006 13.390315 13.960115l3.846154 3.846154v32.478634c0 30.626782 0 34.330486.5698 38.03419.14245 1.424502.2849 1.851852.854701 4.273505.2849 1.28205 1.282051 4.131054 1.566952 4.985755.42735.99715 1.994302 4.415954 2.421652 4.985755 1.851852 3.276353 5.128206 7.264958 8.68946 10.541311 1.851851 1.709402 6.410256 5.270656 7.977208 6.267807.42735.2849 3.561254 2.279202 3.988604 2.706553.5698.42735 8.547009 5.270655 8.83191 5.413105.14245 0 .5698.2849.8547.42735.2849.14245.712251.427351.854701.427351.14245 0 .71225.42735 1.424502.854701.5698.42735 1.282051.71225 1.424501.854701.14245.14245.42735.2849.71225.42735.142451.14245.854702.569801 1.424502.854701.569801.42735 1.282052.712251 1.424502.854701.14245.14245.42735.2849.71225.42735 1.424502.712251 6.125357 3.846155 8.54701 5.698007 1.851852 1.424501 2.564102 1.994302 4.558404 4.131054 2.136753 2.136752 2.421653 2.564103 3.418804 4.415955.42735.8547.8547 1.424501.8547 1.424501.000001 0 .427351-.42735.712252-.99715.71225-1.282052 2.991453-4.273505 3.846154-5.270656 4.985755-5.413106 9.82906-8.83191 21.225072-14.672366 4.700855-2.421652 7.549858-3.846154 9.54416-4.985755.854701-.42735 1.424502-.854701 1.566952-.854701.14245 0 .99715-.5698 2.136752-1.282051 1.139601-.712251 2.136752-1.282052 2.279202-1.282052.14245 0 3.846154-2.564102 5.128206-3.561253 1.566951-1.282052 1.994302-1.566952 3.276353-3.133904.5698-.5698 1.139601-1.282051 1.139601-1.424501.42735-.42735 2.279203-2.991453 3.276354-4.558405 2.279202-3.418804 4.843305-8.97436 5.982906-13.247864.14245-.5698.42735-1.424502.5698-1.994302.427351-1.282051.854702-3.276354 1.566952-7.549858.2849-1.709402.2849-4.273505.42735-34.045586.142451-28.20513.142451-32.193734.427351-32.478634.14245-.14245 1.139602-1.139601 2.136753-1.994302.99715-.854701 2.564102-2.279203 3.276353-3.133904.854701-.71225 2.421653-2.279202 3.561254-3.418803 1.139601-.997151 2.421652-2.136752 2.706553-2.564103.2849-.2849 1.566951-1.424501 2.849003-2.564103 1.282051-1.1396 2.279202-2.136752 2.421652-2.279202.2849-.14245.2849-.14245 0-.2849zM117.66382 52.849c.71225-.14245 2.421652-1.709401 2.706552-2.564102.14245-.2849.2849-.42735.42735-.42735.142451 0 .284901.14245.142451.2849-.14245.14245-.2849.5698-.42735.99715-.2849.569801-1.139602 1.566952-1.851852 2.136753-.14245.14245-.569801.2849-1.139602.42735-1.424501.42735-2.706552.14245-3.846154-.99715-.8547-.854702-1.282051-1.424502-1.709401-2.849004-.2849-1.139601-.42735-1.709402-.14245-1.709402.14245 0 .14245.14245.14245.2849s0 .427351.14245.569801c.14245.14245.2849.712251.5698 1.139601 1.139602 2.279203 2.991453 3.276354 4.985756 2.706553zm-16.239318-19.23077c.42735.2849 1.424502 1.139601 2.279203 1.851852.8547.71225 1.566952 1.282051 1.709402 1.282051.14245.2849 4.415954 2.991454 4.985755 3.276354.14245 0 .8547.42735 1.424501.8547.569801.427351 1.282052.712252 1.282052.712252.14245 0 .2849.14245.42735.2849.14245.14245.42735.2849.5698.2849.142451 0 .427351.14245.712252.2849.42735.2849.2849.569801-.14245.42735-.427351-.14245-2.991454-1.4245-3.988605-1.994301-.2849-.2849-.71225-.42735-.8547-.5698-.14245 0-.569801-.284901-.854702-.569801-.2849-.2849-.5698-.42735-.71225-.42735-.14245 0-.42735-.284901-.854701-.569802-.42735-.2849-.712251-.5698-.854701-.5698-.14245 0-2.706553-1.851852-3.133903-2.279203-.14245-.14245-.42735-.42735-.712251-.5698-.997151-.71225-2.136752-1.851852-2.136752-2.136752-.14245-.2849.14245-.14245.8547.42735zm-17.094018 8.68946c-.14245 0-.2849-.569801-.2849-2.136753 0-2.421653-.14245-2.136752 2.136752-3.418804.42735-.2849.854701-.42735.854701-.5698.14245-.14245.712251-.5698 1.282052-.71225.2849-.142451.42735-.284901.42735-.427351 0-.14245.14245-.14245.14245-.14245.2849 0 3.988604-2.849004 6.552707-4.843306.42735-.2849 1.139601-.8547 1.424502-1.282051.42735-.2849.8547-.8547 1.1396-.997151.284901-.2849.569802-.42735.569802-.42735s.14245 1.1396.14245 2.706552v2.706553l-.712251.5698c-.42735.284901-.997151.854702-1.282051 1.139602-.2849.2849-.712251.5698-.997151.8547-.14245.284901-.42735.427351-.569801.427351-.14245 0-.42735.2849-.854701.5698-.2849.284901-.997151.712252-1.282051.997152-.42735.2849-.854701.5698-.997151.71225-.42735.284901-.997151.712251-1.282052.854702-.14245 0-.2849.14245-.2849.2849l-.8547.5698-.854702.569801c0 .14245-.14245.14245-.42735.14245-.14245 0-.42735.14245-.42735.14245 0 .14245-.854702.569801-1.851853.997151-.71225.2849-1.566951.712251-1.709401.712251zm-2.421652 9.54416c1.424501.71225 2.991453.42735 4.131054-.854702.5698-.71225 1.282052-1.994302 1.282052-2.564102 0-.2849.14245-.5698.2849-.854701.2849-.2849.2849-.2849.42735.2849.14245.42735 0 .854701-.14245 1.424502-.14245.42735-.2849.99715-.2849 1.1396 0 .427351-.997151 1.566952-1.851852 1.994303-.71225.5698-1.139601.5698-2.279202.5698-1.709402 0-2.136753-.2849-3.418804-1.424501-.8547-.8547-1.566952-2.136752-1.424502-2.279202.14245-.14245.712251.14245.712251.42735 0 .2849 1.709402 1.709402 2.564103 2.136752zm-40.313393-5.128206c8.68946 0 16.666668-.14245 17.80627-.14245 3.561253-.2849 4.985754-.42735 5.270655-.712251.14245-.14245.5698-.2849 1.139601-.2849 1.139601-.14245 2.706553-.5698 2.849003-.712251.14245-.14245.2849-.14245.5698-.14245s.712251-.14245.997152-.2849c.2849-.14245.71225-.2849.99715-.2849.284901 0 .569801-.142451.712251-.284901.14245-.14245.569801-.2849.712251-.2849.2849 0 .42735-.14245.5698-.14245 0-.14245.427351-.2849.712252-.2849.2849-.142451.71225-.142451.8547-.284901.14245-.14245.569801-.2849.997151-.42735.42735-.14245.997152-.427351 1.282052-.569801.2849-.14245.71225-.2849.8547-.2849.14245 0 .427351-.14245.712251-.2849.14245-.14245.42735-.284901.569801-.14245.14245 0 .14245.99715.14245 2.136751v2.136753l-.71225.2849c-.427351.14245-.712251.42735-.854701.42735-.2849.2849-1.424502.712251-1.709402.712251-.14245 0-.42735.14245-.712251.2849-.14245.14245-.5698.2849-.71225.2849-.284901 0-.569801.14245-.854702.284901-.2849.14245-.99715.42735-1.566951.5698-.5698.14245-1.282052.427351-1.424502.427351-.14245.14245-.5698.14245-.8547.14245-.284901 0-.712251.14245-1.139602.2849-.42735.14245-.8547.2849-1.139601.2849-.2849 0-.854701.14245-1.139601.284901-.42735.14245-.997151.2849-1.282052.2849-.2849 0-.8547.14245-1.282051.2849-.2849.14245-1.282051.284901-1.994302.284901-.71225 0-1.851852.14245-2.421653.14245-.99715.14245-22.649573.42735-24.358975.2849-.712251 0-1.851852-.5698-5.128206-2.136752l-4.273504-2.136752h15.811966zm57.26496 142.3077c0 1.282051-.14245 2.421652-.14245 2.421652s-.2849-.2849-.42735-.5698c-.14245-.2849-.42735-.712251-.71225-.997151-.2849-.2849-.712251-.712251-.997152-1.139602-.99715-1.28205-2.706552-2.991453-4.843305-4.700854-.2849-.2849-1.424501-.997152-2.421652-1.851852-.997151-.712251-1.994302-1.424502-1.994302-1.566952-.14245-.14245-.42735-.2849-.854701-.5698-.42735-.14245-.712251-.427351-.712251-.427351l-.5698-.2849c-.427351-.14245-.854702-.42735-1.709402-.997151-.712251-.427351-1.139602-.712251-1.566952-.997152-.2849-.14245-3.418804-1.994302-3.846154-2.279202-.14245-.14245-.42735-.2849-.5698-.2849-.14245 0-.427351-.2849-.569801-.42735-.14245-.14245-.42735-.284901-.5698-.284901-.142451 0-.284901 0-.284901-.14245s-.14245-.2849-.42735-.2849c-1.566952-.854701-2.136753-1.139602-2.279203-1.282052 0 0-.5698-.2849-.997151-.71225-.5698-.2849-1.139601-.569801-1.282051-.712251-.14245-.14245-.569801-.2849-.712251-.42735-.14245-.14245-.5698-.427351-.997151-.712252-.42735-.2849-.854701-.5698-.997151-.5698-.14245 0-.2849-.14245-.2849-.14245 0-.14245-.14245-.14245-.14245-.14245-.14245 0-.997152-.42735-1.851853-.997151-.8547-.569801-1.709401-.997152-1.709401-.997152-.14245 0-2.136753-1.424501-2.564103-1.851851-.14245-.14245-.2849-.14245-.2849-.14245l-.854701-.569801-.854701-.5698c-.14245 0-.14245 0-.14245-.142451 0-.14245-.2849-.2849-.712251-.5698-.42735-.2849-.854701-.569801-.997151-.712251-.14245-.14245-.712251-.5698-1.282052-.997151-2.706552-1.994302-5.840456-4.843305-7.122507-6.410257-.14245-.2849-.71225-.854701-1.139601-1.424502-.42735-.5698-1.139601-1.424501-1.424502-1.994302-.2849-.5698-.71225-.99715-.71225-.99715l-1.424502-2.279203c-.71225-1.282052-1.424502-2.279203-1.566952-2.564103-.14245-.14245-.2849-.42735-.2849-.5698 0-.14245-.2849-.569801-.2849-.854701-.14245-.2849-.42735-.854701-.5698-1.282052-.142451-.42735-.427351-.8547-.427351-.99715-.14245-.14245-.14245-.569801-.14245-.712252 0-.2849-.14245-.5698-.2849-.8547-.14245-.2849-.284901-.712251-.284901-.997151 0-.2849-.14245-.712251-.2849-.997152-.14245-.2849-.2849-.71225-.42735-1.28205-.142451-.427351-.284901-1.566953-.427351-2.564104-.14245-.8547-.42735-2.564102-.42735-3.703703-.14245-1.139602-.14245-16.951568-.14245-35.042737V62.820512l-8.11966-8.119659c-4.415954-4.415954-7.977208-8.119658-7.977208-8.119658.14245 0 .42735.14245.854701.42735.2849.14245 1.282051.71225 1.994302 1.139601.854701.42735 2.136752 1.139602 2.991453 1.566952.854701.42735 1.851852.997151 2.279203 1.282051.42735.2849.8547.42735.8547.569801 0 .14245.14245.14245.427351.14245.14245 0 .42735.14245.5698.2849.14245.14245.427351.2849.712251.2849s1.851852 1.424502 4.700855 4.273505l4.273505 4.131055v33.618235c0 22.507124 0 33.903136.14245 34.472936.14245.42735.2849 1.282052.2849 1.994302 0 .712251.14245 1.282052.2849 1.566952.14245.14245.14245.5698.14245.997151 0 .42735.14245.997151.284901 1.282051.14245.42735.2849.854701.2849 1.139602 0 .2849.14245.71225.2849.99715.14245.284901.284901.569801.284901.854702 0 .2849.14245.5698.2849.99715.14245.2849.2849.712251.2849.854702 0 .14245.14245.42735.14245.42735.14245 0 .14245.2849.14245.42735 0 .2849.427351 1.424502.712252 1.851852.14245.14245.2849.42735.2849.569801.2849.71225 1.709402 3.561254 1.851852 3.703704 0 0 .2849.42735.42735.71225.42735.712251 2.279203 3.276354 2.564103 3.703705.14245.14245.2849.2849.2849.42735 0 .2849 4.843305 5.128205 5.982907 5.982906.5698.42735.99715.854701.99715.854701.427351.42735 6.125357 4.558405 6.837608 4.843305.14245 0 .5698.2849.8547.42735.284901.14245.712252.427351.854702.427351.14245 0 .2849.14245.2849.2849l.8547.569801c.427351.2849.854702.42735.997152.5698.14245.14245.71225.427351 1.851852.997152.42735.14245.71225.42735.71225.42735.14245.14245.712251.5698 1.709402.997151.42735.2849.854701.42735.997151.5698.14245.142451.2849.142451.569801.284901l1.424502.71225c.5698.284901 1.28205.712252 1.709401.997152.42735.2849.854701.42735.854701.5698l.5698.2849c.284901.142451.854702.427351 1.424502.854702.5698.2849 1.139602.5698 1.282052.71225.14245.14245.8547.427351 1.282051.854701.5698.2849.997151.712251 1.139601.712251.42735.14245.854701.5698 2.564103 1.709402.8547.5698 1.709402 1.139601 1.994302 1.282051.14245.14245.42735.2849.5698.42735.14245.14245.569801.427351.997152.712252l.8547.5698s.569801.42735.997152.854701c2.421652 1.994302 5.270655 4.700855 5.413105 5.413106 0 .2849.14245.71225.2849.99715.14245.14245.14245 1.566952.14245 2.849004zm57.549861-56.55271s-.14245 0-.14245-.2849c0-.14245 0-.2849.14245-.14245zm6.695157-79.202283c-.42735.42735-2.279202 2.136752-4.131054 3.988604l-3.276353 3.276353-.14245 32.621085c-.14245 31.766383-.14245 33.618235-.712251 36.467238-.14245.5698-.2849 1.709402-.42735 2.564103-.569801 3.133903-1.709403 7.264958-2.421653 9.11681-2.564103 6.125356-4.558405 9.40171-8.262109 13.247863-1.566952 1.566952-5.413106 4.700855-7.122507 5.698006-5.128206 3.133904-4.843306 2.991454-10.968662 5.982907-6.552707 3.276353-8.97436 4.415954-11.253562 5.840456-2.136752 1.139601-6.695157 4.415955-9.54416 6.837607-.8547.71225-1.566952 1.282051-1.709402 1.424502l-1.851852 1.851852c-.99715.99715-1.851852 1.709401-1.994302 1.709401-.14245 0-.99715-.71225-1.994302-1.566951-2.564103-2.421653-4.700855-4.273505-5.698006-4.843305-.2849-.14245-.5698-.2849-.71225-.42735-.2849-.142451-1.424502-.997152-2.279203-1.566952-.14245-.14245-.5698-.2849-.71225-.2849-.14245 0-.284901-.142451-.284901-.284901 0-.14245-.14245-.14245-.42735-.2849-.2849 0-.427351-.14245-.427351-.2849s-.14245-.14245-.2849-.14245-.42735-.142451-.5698-.284901c-.142451-.14245-.284901-.2849-.427351-.2849-.14245 0-.2849 0-.2849-.14245s-1.709402-1.139602-2.279203-1.424502c-.14245 0-.2849-.14245-.2849-.2849s-.14245-.14245-.2849-.14245-.569801-.14245-.854702-.427351c-.2849-.2849-.5698-.42735-.71225-.42735-.14245 0-.2849-.14245-.42735-.14245 0-.14245-.284901-.2849-.569801-.427351-.2849-.14245-.5698-.2849-.712251-.42735-.14245-.14245-1.709402-.997152-3.418804-1.994303-6.552707-3.703704-12.820513-7.692308-14.814815-9.25926-2.564103-2.136752-5.698006-4.985755-7.122508-6.695156-1.709402-1.994303-3.988604-5.413106-4.843305-6.837608-.14245-.42735-.5698-.99715-.71225-1.424501-.2849-.42735-.427351-.854701-.427351-.997151 0-.14245-.14245-.42735-.2849-.42735-.14245-.14245-.2849-.427351-.2849-.569801 0-.14245-.14245-.5698-.284901-.997151-.5698-1.139601-.5698-1.139601-.71225-1.851852 0-.42735-.14245-.712251-.284901-.712251-.14245 0-.14245-.2849-.14245-.42735 0-.14245-.14245-.569801-.2849-.997151-.14245-.2849-.2849-.854701-.2849-1.139602 0-.2849-.14245-.99715-.284901-1.424501-.14245-.42735-.2849-1.282052-.42735-1.851852-.14245-.5698-.2849-1.566952-.42735-2.279203-.142451-.99715-.284901-8.547009-.284901-35.327637V60.54131l-1.282052-1.28205c-.71225-.712252-2.564102-2.421653-4.131054-3.846155-2.279202-2.279202-2.706553-2.706553-2.421652-2.849003.2849-.2849 1.1396-.14245 1.1396.14245 0 .14245.14245.14245.284901 0 .2849-.14245.42735-.14245.5698.14245.14245.2849.997152.2849 4.558405.2849 2.991454 0 4.415955 0 4.415955-.14245.14245-.2849 3.561254-.42735 7.407408-.42735 1.282051 0 3.703704-.14245 5.413106-.2849 1.709401-.14245 3.133903-.2849 3.418803-.14245h.5698c.284901-.14245 1.709403-.569801 2.279203-.569801.997151 0 6.837607-1.851852 8.262109-2.564103.2849-.14245.71225-.2849.8547-.2849.14245 0 .427351-.14245.569801-.14245.14245-.14245.5698-.2849.997151-.42735.997151-.2849 1.282052 0 1.139602.99715-.2849 1.566952 1.1396 3.988605 2.849003 4.843306 2.564102 1.424501 5.413105 1.1396 6.980057-.712251.71225-.712251 1.566952-3.276354 1.566952-4.415955 0-1.709402-.854701-3.276353-1.994303-4.131054-.5698-.42735-.71225-.5698-.71225-.997151 0-.42735.42735-.712251 1.851852-1.424502 3.418803-1.851852 6.410256-3.846154 9.97151-6.980057 1.139601-.997151.854701-.997151 3.133904.71225 1.1396.854702 2.279202 1.851853 2.706552 2.136753.42735.2849.712251.42735.712251.5698 0 0 .71225.42735 1.424502.997152 3.418803 2.136752 3.561253 2.279202 6.410256 3.846154.42735.2849.854701.5698.997151.71225.14245.42735-.14245.997151-.5698 1.139602-.42735.14245-1.139601.99715-1.709402 1.994302-.5698 1.1396-.5698 3.133903 0 4.558404.42735 1.139602 1.566952 2.279203 2.849003 2.991454.8547.42735.997151.5698 2.564103.42735 1.424501 0 1.851852-.14245 2.849003-.5698 1.994302-.997152 3.133903-2.706553 3.133903-4.843306 0-.71225 0-1.424501.14245-1.566951.14245-.42735.71225-.42735 1.566952 0 .8547.42735 1.709402.8547 2.849003 1.282051.5698.14245 1.139601.42735 1.282051.42735.71225.2849 4.131055 1.139602 5.840456 1.424502 3.418804.71225 11.253562 1.139601 21.509973 1.282051 5.840456.14245 8.262109.14245 8.404559.2849-.5698-.71225-.854701-.2849-1.282052.14245z"/>
        <path d="M133.333336 75.925926c-.2849-.14245-.997151.42735-.997151.71225 0 .14245-.14245.42735-.14245.569801-.2849.5698-1.282051 2.849003-1.282051 2.991453 0 .14245-.14245.42735-.2849.71225-.14245.284901-.427351.712252-.427351.854702-.14245.14245 0 .42735.5698.71225.42735.2849.997151.427351 1.282052.427351.8547 0 .99715-.42735 1.1396-3.846154.142451-1.566952.284901-2.849003.284901-2.991453 0 0 0-.14245-.14245-.14245zm-23.361825 7.977208c1.709402 0 1.994303-.71225 2.279203-5.413106.14245-1.709401.2849-3.846154.2849-4.558404.2849-1.994303.2849-5.128206 0-5.413106-.14245-.14245-.71225-.2849-1.282051-.42735-1.566952-.2849-1.709402-.2849-1.851852 2.279202-.14245 1.139601-.2849 2.564102-.2849 2.991453-.14245.42735-.14245 1.994302-.14245 3.276353 0 1.282052-.14245 3.276354-.14245 4.415955-.14245 1.994302-.14245 2.136752.14245 2.421653.14245.2849.42735.42735.99715.42735zM69.80057 82.051282c1.851852-.2849 1.851852-.2849 1.994302-.8547 0-.284901 0-.569801-.14245-.854702-.2849-.42735-.5698-1.566951-.71225-1.994302 0-.14245-.14245-.5698-.2849-.99715-.142451-.284901-.284901-.712252-.284901-.854702 0-.14245 0-.2849-.14245-.42735-.14245-.14245-.2849-.42735-.2849-.854701-.284901-.997151-.427351-.997151-.712251 0s-.2849 6.410257 0 6.695157c-.14245.14245.2849.2849.5698.14245zm-1.994302 31.623933c.42735-.2849.42735-.42735.42735-3.988604v-3.703704l-.42735-.2849c-.5698-.42735-2.136752-.42735-2.564103 0-.2849.2849-.2849.71225-.2849 3.988604 0 2.991453 0 3.703704.2849 3.988604.2849.569801 1.994302.569801 2.564103 0zm12.962964 33.048435c-.2849 0-.854701 1.139601-.712251 1.424502.14245.2849 1.424502.2849 1.566952 0 0-.2849-.712251-1.424502-.854701-1.424502z"/>
    </g>
</svg>
