<svg xmlns="http://www.w3.org/2000/svg" width="200" height="200"  xmlns:v="https://vecta.io/nano"><circle fill="#d2c535" cx="100" cy="100" r="100"/><path d="M100.712 9.687L9.687 100.712l91.026 89.601c32.479-31.481 59.687-58.832 89.601-89.601-30.769-32.906-55.413-56.838-89.601-91.026z"/><path d="M100.712 190.883l-.285-.285-91.311-89.886 91.595-91.595 20.655 20.655 69.516 70.94-89.886 89.886zm-90.313-90.171l90.456 89.031c28.632-27.635 54.416-53.561 89.031-89.031-24.217-25.783-44.872-46.439-68.946-70.37l-20.085-20.085z"/><path fill="#d2c535" d="M182.051 100.712c-27.92-29.772-50.285-51.567-81.197-82.479l-82.621 82.479 82.479 81.197c29.487-28.49 54.131-53.276 81.339-81.197zm-88.177 47.009c-33.761-5.128-51.567-44.16-33.191-72.792 18.803-29.06 60.969-29.487 79.915-.997 6.695 10.114 9.544 23.789 7.265 35.47-2.279 11.823-10.969 24.644-21.225 31.197-8.832 5.698-22.507 8.689-32.764 7.123zm-12.963-24.644s0-2.137.142-5.271h-9.402c-.142-6.695-.285-8.832 0-14.53h9.117c-.142-2.137.285-3.561.142-6.125h-9.259c.142-4.701-.142-9.402 0-13.96h9.259c.142-2.564.142-2.849-.142-5.983H66.097c-.427 15.67-.57 36.182-.427 45.726l15.242.142zm11.396-19.658H100l.142 19.658c1.852.142 2.849 0 4.986 0 0 0-.142-5.128 0-10.826-.427-9.402 1.14-10.541-2.564-11.254 2.991-.997 2.707-2.991 2.564-11.966 0-12.251.285-11.823-10.684-11.823h-6.98l-.427 45.726h5.128l.142-19.516zm-.142-20.228h8.12s-.142 8.262 0 13.96h-7.977l-.142-13.96zm23.932-5.84h-4.843l.285 45.584h4.558V77.35zm20.94 45.584v-5.128h-8.405l-.142-14.53h8.405c0-2.707.142-2.991 0-5.983h-8.405c.142-5.983.142-7.55 0-14.53 4.843-.142 5.413-.142 8.547 0v-5.556H122.65c-.285 17.236-.142 18.376.142 45.726z"/><path fill="#fff" d="M80.912 123.077l.142-5.271h-9.402c-.142-6.695-.285-8.832 0-14.53h9.117c-.142-2.137.285-3.561.142-6.125h-9.259c.142-4.701-.142-9.402 0-13.96h9.259c.142-2.564.142-2.849-.142-5.983H66.097c-.427 15.67-.57 36.182-.427 45.726l15.242.142zm24.217-10.826c-.427-9.402 1.14-10.541-2.564-11.254 2.991-.997 2.707-2.991 2.564-11.966 0-12.251.285-11.823-10.684-11.823h-6.98l-.427 45.726h5.128v-19.658h7.692l.142 19.658c1.852.142 2.849 0 4.986 0 .142.142 0-4.986.142-10.684zm-4.843-14.957h-7.977c.142-5.413 0-7.977-.142-13.96h8.12s-.142 8.262 0 13.96zm15.812-19.943h-4.843l.285 45.584h4.558V77.35zm20.94 45.584v-5.128h-8.405l-.142-14.53h8.405c0-2.707.142-2.991 0-5.983h-8.405c.142-5.983.142-7.55 0-14.53 4.843-.142 5.413-.142 8.547 0v-5.556H122.65c-.285 17.236-.142 18.376.142 45.726z"/></svg>