<svg xmlns="http://www.w3.org/2000/svg" width="200" height="200"  xmlns:v="https://vecta.io/nano"><circle fill="#474548" cx="100" cy="100" r="100"/><path fill="none" stroke="#fff" stroke-miterlimit="10" stroke-width="1.425" d="M99.858 156.268c-23.789 0-46.154-5.698-63.105-15.954C19.373 129.63 9.829 115.242 9.829 99.858s9.544-29.63 27.066-40.313C53.846 49.288 76.211 43.59 100 43.59s46.154 5.698 63.105 15.954c17.379 10.684 26.923 24.929 26.923 40.313s-9.544 29.63-27.066 40.313c-16.809 10.399-39.174 16.097-63.105 16.097z"/><path d="M44.302 83.903c-.57.142-.997.285-1.567.285-.427 0-.855-.285-1.425-.285-1.567-.142-2.991-.427-4.416-.285-6.125.855-9.972 4.558-12.251 9.972-1.994 4.558-1.567 9.117-.142 13.818 2.564 7.835 9.402 13.248 17.521 13.248 3.989 0 7.835-.997 11.254-3.419.285-.285.57-.427.855-.712-1.425.57-2.707 1.282-3.989 1.709-4.131 1.282-8.262 1.567-12.251-.427-2.707-1.424-4.843-2.991-6.41-5.698-2.137-3.989-3.419-8.405-2.991-13.105.285-3.419.997-6.695 2.849-9.687 2.707-4.558 7.123-5.413 11.396-2.991.712.427 1.425.997 1.994 1.567-.142-1.282-.142-2.707-.427-3.989zm18.803 8.12v.285c.285.285.427.285.712.57.855.57 1.14 1.282 1.14 2.279l-.285 12.821c0 1.852.142 3.561-.997 5.271v.142h3.276c-.285-.712-.57-1.425-.57-1.994l.142-12.251c0-.427.142-.855.142-1.567 4.986 5.556 9.544 11.254 14.387 16.667.57-1.567.997-3.134 1.567-4.558.285-.427.285-.712-.285-.855-.285-.142-.712-.427-.712-.855a6.31 6.31 0 0 1-.427-2.137l.142-9.544c0-1.425.285-2.564 1.282-3.561.142-.142.142-.285.142-.285h-3.846c0 .142-.142.142-.142.285.142.142.285.142.427.285.855.57.997 1.282.997 2.279-.142 2.707 0 5.556-.142 8.262 0 .855-.142 1.709-.142 2.707-.285-.142-.57-.285-.855-.57l-9.544-11.396c-.285-.285-.57-.855-.427-1.282s-.142-.712-.57-.712h-2.422c-.997-.285-1.994-.285-2.991-.285zm-2.421 15.527c-.997.855-1.994 1.994-2.991 2.564-.855.57-1.994 1.14-2.991 1.14l-7.835.142c-.712 0-.855-.285-.855-.855l.142-8.405c0-.57.285-.712.712-.712 1.425.142 2.707.142 4.131.142s2.564.285 3.704 1.14c.285.142.285.285.57.285l.142-.142-1.852-4.701c-.285.427-.427.855-.712.997-.285.285-.57.57-.855.57h-5.413c-.427 0-.427-.285-.427-.57v-3.989c0-.57 0-1.14.142-1.852h5.413l3.419.142c1.567.285 2.707.997 3.989 2.137-.285-1.14-.427-2.279-.855-3.419 0-.142-.427-.285-.712-.285H40.171c.427.427.855.712 1.14.997.57.57.855 1.14.855 1.994 0 4.558-.142 9.259 0 13.818 0 1.424-.285 2.707-1.14 3.846-.142.142-.142.285-.285.427.285 0 .285.142.427.142 5.413.142 10.826.142 16.239.142.285 0 .57-.285.712-.57.712-1.425 1.425-2.707 1.994-4.131.285-.285.427-.57.57-.997zm81.909 19.516c.142 0 .285 0 .285.142-.285 4.274.285 8.547-.427 12.821h3.704c-.285-.997-.57-1.994-.57-2.849v-8.12c0-1.14.142-2.137.57-3.276.142-.285.285-.57.285-.855h-5.271c.285.855-2.707 6.98-3.846 7.692-.712-1.424-1.424-2.707-1.994-3.989-.427-1.14-1.567-2.137-.855-3.704h-4.701c.427 5.128.285 10.114-.142 15.242h3.134c-.285-.427-.427-.712-.57-.997-.285-.427-.57-.997-.57-1.567 0-2.564 0-5.128.142-7.692 0-.142.142-.285.142-.427h.285l4.701 10.541c.57-.712.997-1.282 1.567-1.709.855-.855.855-1.567.285-2.564-.285-.427-.285-.855 0-1.567.855-1.425 1.567-2.707 2.137-3.989.57-1.14 1.14-1.994 1.709-3.134zM107.55 96.439h0c-.427-1.282-.855-2.564-1.567-3.704-.142-.285-.427-.285-.712-.427H88.177c-.427 0-.855.285-.855.712-.285.855-.855 1.709-1.282 2.707-.142.285-.285.427-.285.712.285 0 .285-.142.427-.142 2.137-1.709 4.558-2.422 7.407-2.279.712 0 .855.285.855.855l-.285 14.815c0 1.282-.142 2.564-.855 3.561-.142.142-.142.285-.142.427h7.123c-1.14-.997-1.709-2.137-1.709-3.561l.142-15.242c0-.57.142-.855.855-.855.427.142.855 0 1.282 0 1.709.142 3.276.142 4.701.997.712.427 1.282.997 1.994 1.425zm58.689 15.954v-6.268c0-2.849.142-5.84.142-8.832 0-1.567.142-2.991 1.567-3.989v-.285h-7.692c.427.427.855.855 1.282 1.14a2.18 2.18 0 0 1 .57 1.425l-.142 15.67c0 .57-.285 1.14-.712 1.567-.285.427-.712.855-1.14 1.282.285.142.427.142.57.142 2.422 0 4.986 0 7.407.142 3.134 0 6.268 0 9.402.142.427 0 .712-.142.855-.427a17.78 17.78 0 0 1 1.567-2.564c.285-.427.427-.855.712-1.424 0-.142-.142-.142-.142-.285-4.701 3.134-9.544 2.991-14.245 2.564zm-78.49-37.607h-.285c-.712-1.852-1.282-3.704-1.994-5.413-.285-.997-.712-1.994-.285-2.991 0 0 0-.142-.142-.285h-3.704c.427 1.282.142 2.279-.285 3.419a39.26 39.26 0 0 1-.855 2.279c-.427.997-.855 2.137-1.567 3.419-.142-.285-.285-.285-.285-.427-.712-2.137-1.567-4.416-2.137-6.553-.142-.427 0-.855 0-1.425 0-.285.142-.285.285-.712h-4.843c.285.285.427.57.57.855.285.427.57.997.855 1.567 1.425 4.274 2.707 8.405 3.989 12.678.142.285.285.855.427 1.14.855-1.14 1.567-2.137 2.137-3.276.142-.142 0-.285-.142-.427-.427-.855-.427-1.709 0-2.707.57-1.282.997-2.564 1.567-3.704.285-.855.712-1.709 1.14-2.707l4.416 13.105c.855-1.282 1.709-2.422 2.564-3.704l-.285-.285c-.712-.855-.855-1.567-.427-2.564l2.707-7.55c.285-.855.712-1.709 1.567-2.137v-.142H90.6c-.427 2.991-1.994 5.698-2.849 8.547zm65.385-.57c.285.285.427.57.57.855.855 1.567 1.852 3.276 2.707 4.986.285.57.285 1.282.285 1.852s.142.712.57.712h4.416c-.57-.712-1.14-1.282-1.567-1.852-1.424-2.564-2.564-5.271-3.989-7.692-.57-.997-.712-1.709.285-2.707.855-.855 1.709-1.994 2.707-2.991.285-.285.427-.285.855-.712h-2.707c-.285.712-.427 1.282-.855 1.709l-3.989 4.843c-.712.712-1.282 1.425-2.137 2.279v-5.271c0-1.14-.142-2.422.997-3.419h-4.558c.142.285.142.427.285.57.427.712.57 1.425.57 2.137-.142 2.991-.142 5.983-.142 9.117 0 1.282 0 2.707-.855 3.846v.285h4.558c-.285-.57-.712-1.14-.855-1.709-.427-.997-.57-2.137-.142-3.134.855-1.425 1.994-2.564 2.991-3.704zm-58.832 49.858h-1.994c-1.567-.142-2.991-.285-4.558-.285-2.137.142-3.419 1.424-3.989 3.276-.427 1.994.142 3.989 1.709 4.986.855.57 1.994.855 2.849 1.282.855.285 1.852.57 2.707.855 1.425.712 1.567 2.137.285 3.134a1.54 1.54 0 0 1-.997.427c-1.852.285-3.419 0-4.986-.997-.285-.285-.712-.57-1.14-.855v3.276c.997.285 2.137.285 3.134.57 1.852.285 3.561.285 5.271-.427 1.852-.855 2.849-2.279 2.849-4.274 0-1.852-.855-3.276-2.707-3.989-.712-.285-1.567-.57-2.279-.855s-1.567-.57-2.279-.997c-.855-.57-1.282-1.424-.997-2.137.285-.997 1.14-1.709 2.137-1.709.712 0 1.567.285 2.137.57a26.46 26.46 0 0 1 2.707 1.567c.142-1.282.142-2.422.142-3.419zM54.274 135.47c0 .57.142 1.14.142 1.852.142.855.285 1.567 1.567 1.852 2.137.57 3.989.997 6.268.285 2.707-.855 4.274-3.989 3.276-6.41-.712-1.709-2.137-2.422-3.846-2.991-.855-.285-1.852-.712-2.707-1.14-.855-.285-1.14-.997-.997-1.852a1.81 1.81 0 0 1 1.567-1.567c.855-.285 1.852-.285 2.707.285.855.427 1.567.997 2.707 1.567-.142-.997-.142-1.994-.285-2.707-1.425-.285-2.564-.285-3.846-.57-2.707-.427-4.558.57-5.698 2.849-.997 2.137-.57 3.704 1.282 4.986.855.57 2.137 1.14 3.134 1.567.855.427 1.709.855 2.422 1.424.855.712.855 1.424.142 2.137-.57.712-1.282 1.14-2.137 1.14-1.567.142-2.849-.285-3.989-1.424-.997-.57-1.425-.855-1.709-1.282zm63.96-9.117c2.422-.285 4.701 0 7.123.712v-1.567c0-.57-.285-.855-.855-.855-2.137 0-4.416-.142-6.553-.142h-3.419c.855 5.271.712 10.114 0 15.242h.142c3.276.142 6.41.142 9.829.142.142 0 .427-.142.427-.285.285-.855.712-1.709 1.14-2.707-2.707.712-5.271.712-7.835.427v-4.558c0-.427.285-.57.57-.57.712 0 1.567-.142 2.137 0 .997.142 2.137.285 3.134.285-.285-.712-.427-1.282-.712-1.852-.142-.427-.285-.57-.855-.427-1.282.142-2.564.285-3.846.285-.57 0-.712-.285-.712-.712.285-.997.285-2.279.285-3.419zM51.282 76.496c-.285-.285-.427-.427-.57-.712l-7.835-9.259c-.285-.285-.427-.427-.712-.427-.855-.142-1.567 0-2.564 0 .285.285.285.57.57.855.712.855.997 1.709.855 2.707-.142 2.279-.285 4.558-.285 6.98 0 1.709.142 3.419-.855 4.843v.285h2.707c-.285-.855-.57-1.994-.57-2.849-.142-2.137 0-4.274 0-6.41v-1.282c.142 0 .142-.142.285-.142l10.256 11.823c.285-1.425.712-2.564.997-3.989-.855-.285-.855-1.282-.855-2.137 0-1.567-.142-3.134 0-4.701.285-1.994-.57-4.131.855-6.125H51.14c.285.712.57 1.282.57 1.852 0 2.564-.142 5.128-.142 7.692-.142.285-.285.57-.285.997zm14.245-5.698c-1.282 1.282-2.279 1.282-3.846 1.14-.142 0-.427-.285-.427-.427v-3.704c0-.427.285-.57.712-.57 1.14 0 2.279-.142 3.419 0 .855.142 1.852.427 2.707.712.285.142.427.285.712.427 0-.855.142-1.567.142-2.279H57.265c.142.285.285.427.285.57.57.57.712 1.425.712 2.279l-.285 10.256c0 .57-.142 1.14-.57 1.567-.285.285-.712.712-1.282 1.14h16.097l-3.419-4.274c0 .997-.142 1.852-.142 2.707 0 .427-.285.57-.57.57-2.137-.142-4.274-.142-6.41-.285-.57 0-.712-.285-.712-.855.142-2.137.142-4.131.142-6.268 0-.57.285-.712.855-.712 1.567 0 3.276 0 4.843.712a21.95 21.95 0 0 0-1.282-2.707zm41.311 68.946c-.142-.285-.285-.427-.427-.712-.855-.997-1.14-2.137-.997-3.561.142-1.567.142-3.276.142-4.843v-4.273c2.137-.142 4.131.285 6.125 1.14-.285-.855-.427-1.567-.712-2.279-.142-.57-.427-.855-.997-.855h-3.276c-2.707 0-5.271 0-7.977-.142-.285 0-.57 0-.712.142-.57.855-.997 1.709-1.567 2.564.285.142.57.142.712 0 1.425-.57 2.707-.855 4.273-.712.57 0 .855.285.855.855 0 2.137-.142 4.416-.142 6.553 0 1.852.142 3.846-.855 5.698v.285c1.994.142 3.704.142 5.556.142zm3.704-73.504c-.285 1.282-3.419 5.271-4.843 6.125-.855-1.282-1.852-2.422-2.849-3.704-.57-.712-.997-1.567-.855-2.564h-5.271c.285.285.285.427.57.712l5.556 6.838a1.54 1.54 0 0 1 .427.997c0 1.282 0 2.707-.142 3.989l-.427 3.419h4.416c-.285-.712-.427-1.425-.427-2.137 0-1.994 0-3.846.142-5.84 0-.427.285-.855.427-1.282 1.424-1.567 2.707-3.276 4.273-4.986.427-.57.997-1.282 1.425-1.709-.855.142-1.425.142-2.422.142zm-38.889 57.835h-5.698c.427.427.855.712 1.282.855.285.285.712.427.855.855 1.282 1.567 2.422 3.276 3.561 4.843.285.285.285.712.285.997-.142 2.564.285 4.986-.57 7.692h4.131c-.142-.855-.285-1.567-.285-2.279 0-1.709 0-3.419.142-5.128 0-.285.142-.712.285-.997 1.852-2.137 3.276-4.843 5.84-6.553h-3.989c.142 2.422-1.709 3.704-2.991 5.556-.997-2.137-2.991-3.276-2.849-5.84zm56.98-12.251c-1.282-2.422-2.422-4.843-3.561-7.265-.285-.57-.57-1.282-.855-1.994.57-.142.997-.285 1.424-.285 1.994-.285 3.561-.997 4.843-2.707.855-1.14.997-2.279.427-3.704-.57-1.282-1.852-1.994-2.991-2.564-1.994-.855-4.131-.855-6.268-.855-2.564 0-5.128-.142-7.692-.142h-3.704c.285.285.57.57.712.855.285.712.855 1.282.855 1.994l-.142 12.536c-.142 1.994.427 4.131-1.14 5.84v.285h6.838c-.427-.285-.855-.57-.997-.855-.285-.427-.712-.997-.712-1.567v-7.692c0-.427.142-.712.712-.712h2.707c.57 0 .855.285 1.14.712l3.989 7.692c.285.855.57 1.567.855 2.707h5.413c-.57-.712-1.424-1.282-1.852-2.279zm-6.268-11.681c-2.137 1.567-4.416 1.282-6.838 1.14V94.16h4.843c.997 0 2.137.285 3.276.427.285.142.712.285.997.285.997.57 1.852 1.567 1.709 2.707 0 1.282-.855 2.279-1.994 2.849-.57.57-1.424.427-1.994-.285zm26.781 13.96h7.265c-.285-.712-.855-1.282-1.14-1.994l-8.405-19.373c-.285-.855-.712-1.567-.997-2.279-.142.285-.285.285-.285.285-.57 1.425-1.282 2.707-2.422 3.561-.142.142 0 .427 0 .712s.142.855 0 1.14l-2.137 4.558c-.427.997-.997 1.994-1.567 3.134-.427-.285-.855-.427-1.282-.712-1.424-.855-1.424-.855-2.137.57-.285.855-.855 1.567-1.14 2.422.855.285 1.709.285 2.564.57.285.142.57.285.285.712-.997 2.137-1.567 4.416-3.561 5.84-.142.142-.285.285-.427.57h4.701c-1.282-.855-.855-1.852-.285-2.849.427-.855.855-1.852 1.282-2.707.285-.427.427-.57.855-.285.855.427 1.567.855 2.137 1.567.57.427.997.855 1.567 1.567 1.14-1.567 2.137-3.419 3.989-4.416.285.285.285.57.57.855.57 1.14.997 2.279 1.567 3.419.285.57.285.997 0 1.567-.285.285-.57.855-.997 1.567zm-2.564-8.832c-.997 1.282-2.137 2.422-2.991 3.704-.997-1.14-2.137-2.279-3.276-3.561-.142-.142-.142-.285 0-.285.855-2.279 1.994-4.558 3.134-7.123.285.427.427.712.57.855l2.564 5.698c.142.285.142.57 0 .712zm-5.413-31.909c1.14-.285 2.137-.997 2.707-2.137.712-1.282.427-2.707-.712-3.419-.855-.712-2.137-1.14-3.276-1.282-2.849-.142-5.84-.142-8.689-.142h-.997c.142.285.142.285.285.427.427.57.57 1.282.427 2.137l-.285 10.114c0 .997-.285 1.852-.855 2.707-.142.142-.285.285-.285.57h5.128c-.285-.57-.855-1.282-.855-1.994-.142-1.994 0-3.989 0-5.983 0-.427.285-.712.57-.57.57 0 .997.142 1.567 0 .57 0 .855.142.997.57l1.709 3.989 1.282 3.561c.142.285.285.427.427.427h3.419c-1.567-2.849-2.849-5.698-4.274-8.689.855-.142 1.282-.142 1.709-.285zm-7.55-.142v-4.558c0-.142.285-.427.427-.427 1.567 0 3.134 0 4.558.285 1.282.142 1.994.855 2.137 1.994.142.997-.57 2.137-1.852 2.422-1.567.427-3.419.285-5.271.285zm-5.698-2.279c-.997-2.849-3.276-4.558-6.268-5.128-2.849-.427-5.271.57-7.123 2.707-1.567 1.852-1.994 3.989-1.709 6.41.285 3.134 2.991 6.268 5.983 6.98 3.561.997 9.544-1.852 9.544-7.977-.142-.855-.142-1.852-.427-2.991zm-3.276 2.707c0 2.137-.142 3.989-1.14 5.698-.855 1.282-1.852 2.137-3.419 1.994-1.567 0-2.707-.855-3.419-2.137-1.14-2.279-1.14-4.701-.57-7.123.285-.712.427-1.567.855-2.137 1.567-2.279 4.986-2.137 6.695.142.855 1.14 1.14 2.422.997 3.561z" fill="#fff"/></svg>