<svg xmlns="http://www.w3.org/2000/svg" width="200" height="200" viewBox="0 0 200 200">
    <circle class="color-orange color-main" fill="#d88e39" cx="100" cy="100" r="100"/>
    <path class="color-white color-stroke-black" fill="#fff" stroke="#000" stroke-miterlimit="10" stroke-width=".71225" d="M87.327529 162.250653c-2.706553-.712251-4.131055-1.709402-4.985756-3.276354-1.1396-2.136752-1.282051-3.846154-.5698-5.698006 1.424501-3.418803 3.846154-4.985755 7.834758-4.985755 2.706553 0 4.700855.854701 5.840456 2.849003 1.282051 1.994302 1.139601 3.561254-.2849 4.700855-1.566952 1.282051-1.994302 1.139601-1.994302-.42735 0-1.851852-.712251-2.991454-2.279203-3.703704-2.136752-1.139602-3.418803-.854701-5.270655.8547-1.424502 1.424502-1.566952 1.709402-1.282052 3.418804.42735 3.561254 2.991454 5.128206 7.692309 4.700855 3.561253-.2849 6.410256-1.424501 8.119658-3.418803.5698-.712251 3.276353-5.840457 6.125356-11.680913 6.837608-13.817664 7.834759-16.239317 7.264958-16.381767-.5698-.14245 2.136752-5.840456 2.849003-5.840456.2849 0 .854701-.854701 1.282051-1.709402.854701-1.994302 2.564103-3.846154 4.415955-4.415955 1.851852-.71225 5.128206-.5698 6.837607.2849 1.424502.712251 2.136753 1.994303.997151 1.994303-.2849 0-1.566951.5698-2.706552 1.282051-1.566952.997151-2.421653 1.282051-3.561254.997151-1.139601-.14245-1.709402 0-2.136752.5698-.42735.569801-.42735.854702-.14245.997152.71225.42735-1.851853 5.840456-2.991454 6.125356-.42735.14245-1.282051 1.139601-1.709402 2.421653-.5698 1.139601-3.276353 6.980057-6.267806 12.962963-4.843305 9.82906-5.555556 11.111112-7.834758 13.105414-1.424502 1.282052-3.561254 2.849003-4.843305 3.418804-2.706553 1.282051-7.549858 1.709402-10.398861.8547zM61.54405 150.99709c-1.424501-.42735-1.282051-1.994302.42735-3.846154 1.282052-1.282051 8.54701-16.239317 24.643877-50.712254 5.128205-10.82621 5.555556-12.250712 5.270655-13.675214l-.2849-1.709402 1.566952.2849c.8547.14245 2.706553.427351 4.131054.569801 3.418804.42735 3.561254 1.139601 1.282051 3.133903-1.424501 1.282052-2.421652 2.991454-4.273504 6.980058-1.424502 2.991453-2.421653 5.698006-2.421653 5.840456 0 .2849.854701.42735 1.851852.42735h1.851852l3.133904-6.552706c1.709401-3.561254 3.276353-7.407408 3.418803-8.26211.2849-1.709401.42735-1.709401 1.566952-1.709401.71225.14245 2.564103.14245 3.988604.2849 4.415955.14245 4.985755 1.282052 1.566952 2.991453l-2.279203 1.139602-9.97151 20.655271c-5.413106 11.396012-12.108263 25.071227-14.672366 30.484333-2.564102 5.413105-4.843305 10.39886-4.843305 11.253561 0 .854701-.2849 1.566952-.42735 1.709402-.5698.5698-3.846154.997151-5.555556.71225-2.421653-.2849-2.564103-1.4245-.14245-3.561253 1.424501-1.424501 3.418803-5.128205 10.25641-19.51567 4.700855-9.82906 8.54701-17.94872 8.54701-18.09117 0-.14245-.854701-.14245-1.994303-.14245l-1.994302.14245-3.703704 7.264958c-1.851851 3.988604-5.982906 12.678064-9.11681 19.08832-3.703703 7.692308-5.555555 12.108263-5.413105 12.678064.14245.5698 0 1.1396-.42735 1.424501-.712251.71225-4.415955 1.139601-5.982907.71225zm60.683764-3.988604c-.14245-.42735.14245-1.139601.854701-1.851852 1.282052-1.282052 9.11681-17.663819 9.54416-20.085471.2849-1.282052.5698-1.566952 1.709402-1.851852.997151-.14245 1.566952-.14245 1.851852.2849.2849.5698.5698.5698 1.851852.14245.8547-.2849 1.566952-.42735 1.709402-.2849.14245.14245-.2849 1.424501-.997151 2.991453-1.139602 2.279202-1.424502 2.706553-2.421653 2.706553-.71225 0-1.424501.2849-1.851852.5698-.99715.854701-8.119658 15.811967-7.834758 16.524218.42735.99715-.5698 1.566951-2.421653 1.566951-1.282051 0-1.851852-.14245-1.994302-.71225zm-7.264957-.5698c-.42735-.427351-.854701-1.424502-.854701-2.279203 0-1.566952 8.547009-19.51567 9.68661-20.370372 1.139601-.8547 3.846154-.71225 4.985755.2849 2.136752 1.994303 1.994302 2.136753-4.415954 15.527067-2.279203 4.558405-3.276354 6.125356-4.273505 6.837607-1.994302 1.139601-4.131054 1.139601-5.128205 0zm7.977208-10.968662c1.851852-4.131055 3.418804-7.692309 3.418804-7.977209 0-.71225-1.139602-1.139601-1.709402-.42735-.997151 1.282051-7.692308 15.669516-7.407408 16.096867.14245.42735.5698.42735 1.282051.14245.712251-.14245 1.851852-2.136752 4.415955-7.834758zm9.54416 10.968661c-1.424501-1.566952-.8547-3.276353 3.846154-13.105414 5.128206-10.54131 5.698006-11.396012 8.119659-9.82906.71225.42735 1.282051.71225 1.424501.5698.854701-.8547 9.97151-20.655271 9.97151-21.652422 0-4.558405-4.131054-5.840456-7.834758-2.421653-1.424501 1.282052-1.28205 3.561254.14245 4.700855 1.424502 1.139601 2.279203 1.139601 3.561254.2849.997151-.71225.997151-.71225.997151.42735 0 3.133904-2.421652 4.985756-5.270655 4.273505-2.564103-.71225-3.703704-2.279202-3.988604-5.270655-.14245-3.276354.8547-5.128206 3.561253-6.837607 5.270656-3.276354 11.253562-1.139602 11.823363 4.273504.2849 2.136752-.2849 3.561254-6.695157 16.666668-2.136752 4.558405-5.698006 11.823362-7.834758 16.096867-3.418804 7.122507-3.846155 8.119658-3.561254 9.82906.42735 2.706553-.14245 3.418804-1.994302 2.706553-.997151-.2849-1.709402-.42735-2.421653-.14245-1.566952.5698-2.991453.42735-3.846154-.5698zm4.415955-3.703704c.42735-.5698 2.136752-3.988604 3.846154-7.834758 2.421652-5.128205 3.133903-6.980057 2.706553-7.264958-.42735-.42735-.712251-.42735-.997151 0-.569801.5698-7.549858 15.099716-7.549858 15.669517 0 .8547 1.282051.42735 1.994302-.5698zm-46.8661 3.846154c0-.14245.712251-1.709402 1.566952-3.418803 4.985755-10.256411 8.68946-18.23362 8.68946-18.94587 0-.5698.2849-.854701 1.28205-.854701.712251 0 1.424502.2849 1.566952.5698.14245.569801.42735.569801 1.994302 0 .997151-.42735 1.709402-.42735 1.709402-.14245 0 .2849-.5698 1.566952-1.282051 3.133904-1.139601 2.279202-1.566952 2.706552-2.564103 2.706552-.71225 0-1.424501.2849-1.709402.569801-.71225.997151-6.837607 14.102565-6.837607 14.814816 0 .99715-1.424501 1.994302-2.849003 1.994302-.8547-.14245-1.566952-.2849-1.566952-.42735zm11.680913-.42735c-1.709402-1.139601-1.282052-3.133903 2.136752-10.11396 1.994302-4.131055 2.849003-6.552708 2.564103-6.837608-.5698-.5698 2.136752-5.840456 2.849003-5.840456.2849 0 .99715-.997151 1.709401-2.136752.712251-1.424502 1.566952-2.421653 2.849003-2.991454.997151-.42735 1.851852-.71225 1.851852-.5698.14245.14245-.2849 1.424501-.8547 2.706553-1.282052 2.991453-1.282052 2.849003-.427351 2.849003.5698 0 .2849.71225-.71225 2.849003-.854702 1.851852-1.709403 2.849003-2.136753 2.849003-.71225 0-2.279202 2.991453-5.840456 10.826211l-1.424502 3.133903.997151.712251c.854701.5698.997151.71225.2849 1.994302-.99715 1.424502-2.279202 1.709402-3.846153.5698zm-14.102565-.14245c-.14245-.2849-1.282052-.2849-2.564103-.14245-2.706553.2849-3.276353-.14245-3.703704-2.706553-.14245-1.139602 0-2.136753.997151-4.131055 1.566952-3.133903 3.846154-5.555556 6.980058-6.980057 1.994302-.854701 2.564102-1.566952 3.276353-2.991453 1.282051-2.849003-.14245-4.415955-1.851852-2.136752-.71225.99715-.8547.99715-1.566952.42735-.71225-.5698-.71225-.71225-.14245-1.851852 1.709402-3.276353 4.843305-3.988604 6.837608-1.709402.5698.712251.99715 1.709402.99715 2.279203 0 .5698-1.566951 4.273504-3.418803 8.119658-1.851852 3.988604-3.418804 7.692308-3.561254 8.54701-.2849 2.706552-1.566951 4.558404-2.279202 3.276353zm-.14245-6.552707c.8547-1.851852 1.566951-3.561254 1.424501-3.561254-.5698-.5698-3.561254 2.564103-4.273504 4.273505-.5698 1.709401-.5698 1.851851 0 2.279202.42735.2849.71225.42735.8547.42735.14245 0 1.139602-1.566951 1.994303-3.418803zm-29.344731 5.413105c-1.994302-.8547-2.849003-2.421652-2.849003-4.985755 0-1.709402.42735-3.276353 2.279202-7.407408 1.851852-4.131054 2.279203-5.413105 1.851852-5.840456-.71225-.71225-1.282051 0-3.561254 5.413106-1.851852 4.131054-2.136752 4.415955-3.133903 4.415955H51.57254l.8547-1.851852c.427351-.997151 1.566952-3.418804 2.421653-5.413106.854701-1.994302 1.566952-3.846154 1.566952-4.273505 0-.5698.5698-.71225 2.279202-.8547 4.273505-.14245 4.415955 1.1396.854701 8.974359-1.994302 4.415955-2.564102 5.982906-2.421652 7.122508.2849 1.851851 1.424501 2.991453 2.564102 2.991453 1.282052 0 2.564103-1.282052 2.279203-2.136753-.14245-.2849-.2849-.71225-.2849-.8547 0-.42735-1.566952-.14245-2.136753.2849-.42735.42735-.5698.2849-.5698-.71225 0-1.709403 1.709401-2.706554 3.276353-1.994303.5698.2849 1.424502 1.139601 1.709402 1.709402.71225 1.709402-.5698 4.273504-2.564103 5.128205-1.851852.997151-1.424501 1.139601-3.276353.2849zm-12.393163-8.974359c-1.282052-.8547-1.282052-2.849003 0-4.415955.5698-.71225 2.136752-1.851852 3.561253-2.564102 1.424502-.712251 2.564103-1.566952 2.564103-1.994302 0-.712251-1.139601-.854701-1.566951-.2849-.2849.5698-2.849003.5698-2.849003.14245 0-.569801.5698-1.139602 1.994302-2.279203 1.566951-1.282051 3.846154-1.282051 4.985755-.14245.8547.8547.71225.99715-.71225 4.273504-.854702 1.851852-1.851853 4.273505-2.136753 5.413106-.71225 1.851852-.854701 1.994302-2.706553 2.136752-1.424501.42735-2.564103.2849-3.133903-.2849zm3.846154-3.276353c.99715-1.994303.5698-2.279203-1.139601-.712251-.854701.71225-1.139602 1.282051-.854701 1.709402.42735 1.28205.99715.99715 1.994302-.997151zm11.680912 3.133903c-1.282051-1.282051-1.139601-1.994302.854701-6.267807 2.564103-5.413105 3.846154-6.552707 6.267807-5.270655.71225.42735.99715.14245 1.709401-1.282052.42735-.99715.854701-1.994302.854701-2.136752 0-.2849-1.1396 0-2.564102.42735-1.424502.427351-3.846154.997152-5.555556 1.139602-2.849003.2849-2.991453.14245-4.415955-1.139601-1.139601-1.139602-1.282051-1.566952-1.139601-2.564103.42735-1.709402 1.424501-2.706553 3.133903-3.133903 1.424502-.42735 3.988604-.14245 4.985755.5698.854701.5698.569801 2.421653-.42735 3.418804-1.424502 1.282051-2.136752 1.139601-1.994302-.2849.14245-1.566952-.2849-2.279203-1.566952-2.279203-2.421652 0-2.706553 2.849003-.42735 3.988604 1.709402.854701 3.988604.2849 8.689459-2.136752 1.851852-.8547 3.418804-1.709402 3.703704-1.851852.14245-.14245.5698.2849.8547.8547.427351.854702-.14245 2.279203-3.846153 9.829061-2.421653 4.843305-4.558405 8.83191-4.843305 8.83191-.2849 0-1.139602.14245-1.994303.2849-1.1396 0-1.566951-.2849-2.279202-.997151zm4.985755-4.985755c1.139602-2.706553 1.282052-4.273505.2849-4.273505-.2849 0-1.28205 1.566952-2.279202 3.561254-1.424501 2.706553-1.709402 3.703704-1.282051 3.988604.99715.5698 1.994302-.42735 3.276353-3.276353zm-17.236468-13.532765c-1.139601-.2849-.99715-1.282051.5698-2.421652.854702-.712251 2.136753-2.849003 3.561255-5.698006 1.1396-2.564103 3.988604-8.54701 6.267806-13.390314 5.698006-12.108263 5.413106-10.968662 5.270656-17.094018l-.14245-5.270656-8.119659 17.378918-8.119659 17.378919.42735 2.136752c.284901 1.139601.427351 2.279202.284901 2.564103-.2849.42735-5.982906.5698-7.122507.14245-1.139602-.42735-.854701-2.136752.8547-4.273505.854701-.99715 1.994303-2.991453 2.564103-4.131054.997151-2.136752 3.133904-6.980057 14.529916-31.196583l4.843305-10.39886-.2849-7.549859c-.2849-8.262108 0-9.82906 2.136752-13.105414 2.991453-4.558404 7.264957-4.558404 9.25926-.14245 1.4245 3.133904 1.1396 4.273505-2.991454 13.105414-3.276353 7.264958-3.703704 8.404559-3.561254 9.82906.14245.854701.42735 1.851852.569801 1.851852.14245.14245 2.564103-4.558404 5.270656-10.25641 4.558404-9.68661 4.843305-10.541312 4.415954-11.965813-.8547-2.564103-.42735-2.849003 3.988604-2.849003 2.136753 0 4.415955.14245 4.985756.2849 1.851852.5698 1.566951 1.566952-.5698 2.849003-1.851853 1.139601-2.136753 1.566952-5.413107 8.54701-4.700855 10.11396-6.837607 14.529915-11.253561 23.931624-2.136753 4.415955-4.131055 8.83191-4.558405 9.82906-1.851852 4.273505-13.532764 28.917381-13.960115 29.487182-.14245.71225-2.136752.8547-3.703704.42735zM70.80331 49.430133c1.282051-2.849003 2.279203-5.270656 2.279203-5.555556 0-.8547-1.709402-1.994302-2.421653-1.709402-.8547.2849-2.421653 2.706553-2.991453 4.700855-.42735 1.566952 0 7.549858.42735 7.549858.2849 0 1.566952-2.279202 2.706553-4.985755zm41.168093 65.527069c-1.851851-1.139601-2.421652-2.849003-2.421652-7.264958 0-3.133903.2849-4.131054 1.994302-8.689459 1.139601-2.991453 1.994302-5.840456 1.994302-6.837607 0-1.566952.14245-1.709402 1.282051-1.709402.712251 0 1.566952-.2849 2.136753-.71225 2.421652-1.851853 3.276353.14245 1.1396 2.849002-1.4245 1.709402-3.276353 6.125357-2.991452 6.980058.14245.2849 1.424501-.997151 2.991453-2.849003 3.988604-4.558405 8.119658-7.692308 14.814816-10.968662 8.689459-4.273504 12.108262-7.834758 11.680912-12.108263-.2849-2.564102-.997151-3.276353-2.991453-3.133903-1.282052.14245-1.709402.42735-1.994302 1.424502-.569801 1.424501 0 2.564102 1.424501 3.133903.997151.42735 1.282051 1.139601.42735 1.139601-.8547 0-2.991453-1.282051-3.276353-1.994302-.997151-2.564103.854701-5.128205 3.561254-5.128205 4.415954 0 6.267806 3.703704 4.415954 9.11681-1.28205 3.561253-3.988604 5.840455-11.253561 9.40171-3.561254 1.7094-7.692308 4.131053-9.25926 5.270655-6.695157 4.985755-10.683761 12.820513-10.683761 20.512821 0 2.706553-.569801 2.991453-2.991454 1.566952zm14.529916-.854701c0-.2849.42735-.8547.99715-1.282051.997152-.854701 9.54416-18.09117 9.971511-20.085471.42735-1.851852.997151-2.279203 3.276354-2.279203 2.279202 0 4.985755 1.282051 4.985755 2.421653 0 .42735-1.566952 3.846154-3.418804 7.834758-4.558404 9.54416-4.415954 9.11681-3.276353 10.11396.5698.569801.8547 1.282052.71225 1.851853-.14245.8547-.42735.99715-1.851851.8547-1.994302 0-2.991453-.99715-2.991453-2.849003 0-.5698 1.566951-4.558404 3.561253-8.831909 1.994302-4.273504 3.418804-7.834758 3.276354-8.119658-.71225-1.139602-1.851852.42735-5.840456 8.689459-3.276354 6.695157-4.415955 9.25926-4.131055 10.11396.2849 1.139602.14245 1.139602-1.424501 1.139602-.997151 0-2.136752 0-2.706553.2849-.71225.42735-1.139601.42735-1.139601.14245zm-27.63533-1.139601c-.71225-.42735-1.28205-1.139601-1.566951-2.136752-.8547-3.418804 1.994302-7.834759 7.122508-10.968662 2.279202-1.424501 3.133903-2.279202 3.846154-3.846154 1.28205-2.991453.2849-3.846154-2.136753-1.709402-2.279202 1.994302-2.706553-.14245-.42735-2.564103 1.994302-2.136752 3.846154-2.136752 5.698006-.2849 1.709402 1.709402 1.709402 2.279203-2.564103 11.111112-2.706553 5.698006-3.276353 7.407408-3.133903 8.547009.2849 1.994302-.2849 2.706553-1.851852 2.136752-.71225-.2849-1.709402-.2849-2.136752-.14245-1.139602.5698-1.566952.5698-2.849003-.14245zm3.988605-5.982906c1.709402-3.133904 1.709402-3.561254.14245-2.564103-1.424501.8547-2.706553 2.849003-2.706553 4.131054 0 1.851852 1.282052.997151 2.564103-1.566951zm18.51852 6.125356c-1.139602-.71225-1.566952-1.282051-1.566952-2.421653 0-1.566951 8.404559-18.233619 9.68661-19.23077 1.566952-1.282051 3.133903-1.566951 4.558405-.8547 1.709402.99715 1.566951 2.279202-.712251 7.264957-2.279202 4.843305-2.564103 5.128205-6.410257 5.128205-.99715 0-1.424501.42735-2.564102 2.991453-1.566952 3.276354-1.709402 3.988605-.854701 3.988605.42735 0 1.1396-.997151 1.851852-2.279203.5698-1.282051 1.28205-2.279202 1.28205-2.279202.142451 0 .712252.2849 1.282052.5698l1.139601.569801-1.28205 2.564103c-.712252 1.424501-1.709403 2.849003-2.136753 3.276353-1.139601.997151-3.133903 1.282052-4.273505.712251zm9.40171-16.666668c1.1396-2.706552 1.28205-3.703703.14245-3.133903-.569801.2849-3.133904 5.270656-3.133904 5.982906 0 .2849.42735.2849.854701.14245.5698-.14245 1.282051-1.28205 2.136752-2.991453zM60.8318 111.96575c-.854701-.5698-.997151-.997151-.854701-2.421653.2849-1.709402 7.122507-16.951568 8.262108-18.37607 1.139602-1.28205 3.418804-2.136751 4.415955-1.56695 1.994302.99715 1.851852 2.564102-.71225 7.977208-1.994303 4.273504-2.136753 4.415954-3.561254 4.415954-.854701 0-1.851852.14245-2.136753.2849-.8547.2849-3.846154 6.125357-3.418803 6.552707.71225.712251 1.282051.14245 2.279202-1.709401.854701-1.851852.997151-1.994302 1.851852-1.424502.42735.2849.854701.71225.854701.854701 0 .71225-2.136752 4.558405-2.849003 5.128205-1.139601.997152-3.133903 1.139602-4.131054.2849zm8.97436-15.527067c1.28205-2.991453 1.56695-3.846154.8547-3.988604-.42735-.14245-1.424502 1.851852-3.276353 6.125357-.14245.14245.14245.2849.5698.2849s1.139601-.997151 1.851852-2.421653zm-.14245 15.954417l-.997151-.2849 1.282051-2.564103c2.279203-4.558405 4.985755-14.529915 4.985755-18.51852 0-1.4245.14245-1.4245 1.851852-1.709401.997151-.14245 1.994303-.14245 1.994303-.14245s-.42735 1.282051-.997152 2.706553c-.5698 1.424501-1.1396 3.133903-1.1396 3.703704v1.1396l.71225-.99715c.42735-.5698 1.566952-3.133904 2.564103-5.698006 1.851852-4.415955 1.994302-4.700855 3.276353-4.843305l1.424502-.14245-1.424502 2.564102c-1.139601 2.136752-1.424501 3.133903-1.566951 5.982906l-.14245 3.418804.8547-1.709402c.42735-.99715.997151-2.564102 1.139601-3.418803.2849-1.994302.712251-2.136753 3.276354-1.994302l1.851852.14245-1.851852 2.706553c-2.421653 3.418803-5.413106 9.68661-7.407408 15.527066-1.566952 4.273504-1.566952 4.415955-2.991453 4.558405-1.709402.14245-1.709402.14245-.71225-1.709402.71225-1.282051 2.136751-9.25926 1.851851-9.54416-.2849-.2849-2.849003 3.418803-3.846154 5.413106-.42735.99715-.8547 2.421652-.8547 3.133903-.14245 2.421652-.427351 2.706553-3.133904 2.279202zm26.210828-31.481483c-.854701-.42735-.712251-1.709402.14245-2.421652.42735-.2849 2.136752-3.418804 3.703704-6.695158l2.991453-6.125356-2.279203-8.97436c-1.994302-8.119658-2.279202-9.116809-3.561253-10.11396l-1.424502-1.139601 1.139601-.712251c.854701-.5698 2.136753-.71225 5.413106-.5698 5.982906.14245 6.267807.42735 3.703704 2.991453l-1.566952 1.566951 1.139601 4.843305 1.139602 4.843305 5.840456-5.840456c8.689459-8.547009 15.384616-12.962963 22.079773-14.672365 6.695157-1.709402 13.532764 1.424501 12.820514 5.840456-.14245.8547-.569801 1.994302-.997152 2.421652-2.991453 3.276354-11.111111 3.988605-13.675214 1.282052-.997151-1.139601-.5698-2.849003.854701-3.418804 1.424501-.71225 2.564103 0 2.564103 1.566952 0 1.994302 1.994302 2.421652 5.128205.8547 4.843305-2.279202 2.706553-6.267806-3.418804-6.267806-5.413105 0-12.820513 4.273505-20.370371 11.965813l-5.128205 5.128205-4.558405 9.68661c-3.418804 7.264958-4.558405 10.113961-4.558405 11.396012 0 .997151-.14245 1.851852-.42735 1.994302-.712251.42735-5.982907.854701-6.695157.569801zm10.39886-.5698c-.71225-.569801-1.566951-2.136753-1.566951-3.418804s8.404559-18.51852 9.40171-19.37322c2.279202-1.851852 6.125356-.427351 6.125356 2.136752 0 1.851852-8.404559 19.23077-9.82906 20.08547-.997151.997152-3.276354 1.139602-4.131055.569801zm6.410257-11.111112c2.136752-4.558405 3.846154-8.54701 3.703704-8.97436-.14245-.42735-.42735-.5698-.71225-.14245-.427351.42735-8.40456 16.809118-8.40456 17.236468 0 .14245.2849.14245.712251.14245.5698.14245 2.136753-2.706552 4.700855-8.262108zm.14245 10.826211c-.14245-.42735 0-.99715.42735-1.424501 1.424502-1.566952 9.54416-19.37322 9.40171-20.370372-.2849-1.139601 1.139602-1.709402 2.279203-.8547.5698.42735 1.139601.42735 2.421653 0 .8547-.284901 1.709401-.427351 1.709401-.427351.14245.14245-.42735 1.424501-1.1396 3.133903-1.139602 2.564103-1.424502 2.849003-2.279203 2.706553-.5698-.14245-1.139601 0-1.424502.2849-.8547 1.139602-7.122507 14.814816-7.122507 15.669517 0 1.709402-3.703704 2.706553-4.273505 1.282051zm6.125357.14245c0-.2849.42735-.99715.99715-1.709401.569801-.569801 3.561255-6.695158 6.695158-13.532765 3.133903-6.837607 5.840456-12.678063 5.982906-13.105414.712251-1.424501 4.415955-.99715 4.415955.42735 0 .427351-.5698 1.424502-1.282051 1.994303-1.139602.997151-6.125357 10.25641-6.267807 11.396012 0 .14245 1.994302-1.709402 4.273504-4.131054l4.273505-4.415955 2.564103.14245 2.564102.14245-3.846154 2.991453c-2.136752 1.709402-5.413105 4.415955-7.264957 6.125357l-3.276354 3.133903 1.282052 3.846154c.71225 2.136753 1.851851 4.273505 2.421652 4.843305 1.566952 1.424502.997151 2.279203-1.566952 2.279203-2.849003 0-3.703703-.5698-2.849003-1.709402.42735-.71225.42735-1.424502-.14245-3.418804-.42735-1.424501-.8547-2.706552-1.1396-2.991453-.427351-.42735-3.133904 4.700855-3.133904 5.840456 0 .42735-.42735 1.139602-.997151 1.566952-.997151.8547-3.703704.997151-3.703704.2849zm-43.874646-.71225c-1.851852-1.282052-1.282052-3.276354 3.133903-12.820514l4.131054-8.83191 1.566952-.14245c1.994302-.14245 3.418804 1.139602 3.418804 2.991454 0 .71225-.854701 3.276353-1.994303 5.698006l-1.994302 4.415954-2.136752.14245-2.136752.14245-1.139601 2.706554c-.712251 1.424501-1.139602 2.849003-.997151 3.133903.42735.8547 1.1396.2849 1.994302-1.566952.99715-2.136752 1.1396-2.136752 2.136752-1.566951.5698.2849.5698.71225-.14245 2.421652-1.424502 3.418804-3.703704 4.843305-5.840456 3.276354zM83.338924 65.2421c1.282052-2.706553 1.424502-3.703704.5698-3.703704-.2849 0-3.133902 5.698006-3.133902 6.410256 0 .14245.2849.2849.5698.2849s1.139601-1.28205 1.994302-2.991452zm-2.136752 14.814815c0-.14245.997151-2.279202 2.136752-4.843305 2.849003-5.840456 3.988605-9.40171 4.558405-14.102565l.5698-3.703704h1.566952c1.282052 0 1.424502.14245 1.139602.712251-1.139602 2.564103-1.994303 5.413106-1.994303 6.695157s.14245 1.424502.712251.854701c1.709402-1.424501 4.131055-8.262109 4.131055-11.396012 0-1.566952.2849-1.851852 1.709401-1.424501 1.139602.42735 1.139602.5698-.42735 5.698006-.997151 3.133903-1.139601 5.840456-.42735 5.128205.2849-.2849.8547-1.851852 1.28205-3.703704.712252-2.849003.854702-3.133903 1.851853-3.133903 2.421652 0 2.421652.5698.71225 3.988604-.8547 1.851852-2.279202 4.415955-3.133903 5.982906-1.851852 3.133904-3.133903 6.980058-3.561254 10.541311l-.2849 2.564103h-1.994302c-1.139601 0-1.994302-.14245-1.994302-.42735 0-.2849.71225-1.994303 1.566952-3.988605 1.424501-3.133903 1.994302-6.695157 1.282051-6.695157-.14245 0-.997151.42735-1.709402.854701-1.566951.997151-1.994302 2.136752-2.849003 7.264958l-.5698 2.991453h-2.136753c-1.282051.2849-2.136752.2849-2.136752.14245z"/>
    <path class="color-stroke-black" fill="none" stroke="#000" stroke-miterlimit="10" stroke-width="1.4245" d="M87.327529 162.250653c-2.706553-.712251-4.131055-1.709402-4.985756-3.276354-1.1396-2.136752-1.282051-3.846154-.5698-5.698006 1.424501-3.418803 3.846154-4.985755 7.834758-4.985755 2.706553 0 4.700855.854701 5.840456 2.849003 1.282051 1.994302 1.139601 3.561254-.2849 4.700855-1.566952 1.282051-1.994302 1.139601-1.994302-.42735 0-1.851852-.712251-2.991454-2.279203-3.703704-2.136752-1.139602-3.418803-.854701-5.270655.8547-1.424502 1.424502-1.566952 1.709402-1.282052 3.418804.42735 3.561254 2.991454 5.128206 7.692309 4.700855 3.561253-.2849 6.410256-1.424501 8.119658-3.418803.5698-.712251 3.276353-5.840457 6.125356-11.680913 6.837608-13.817664 7.834759-16.239317 7.264958-16.381767-.5698-.14245 2.136752-5.840456 2.849003-5.840456.2849 0 .854701-.854701 1.282051-1.709402.854701-1.994302 2.564103-3.846154 4.415955-4.415955 1.851852-.71225 5.128206-.5698 6.837607.2849 1.424502.712251 2.136753 1.994303.997151 1.994303-.2849 0-1.566951.5698-2.706552 1.282051-1.566952.997151-2.421653 1.282051-3.561254.997151-1.139601-.14245-1.709402 0-2.136752.5698-.42735.569801-.42735.854702-.14245.997152.71225.42735-1.851853 5.840456-2.991454 6.125356-.42735.14245-1.282051 1.139601-1.709402 2.421653-.5698 1.139601-3.276353 6.980057-6.267806 12.962963-4.843305 9.82906-5.555556 11.111112-7.834758 13.105414-1.424502 1.282052-3.561254 2.849003-4.843305 3.418804-2.706553 1.282051-7.549858 1.709402-10.398861.8547zM61.54405 150.99709c-1.424501-.42735-1.282051-1.994302.42735-3.846154 1.282052-1.282051 8.54701-16.239317 24.643877-50.712254 5.128205-10.82621 5.555556-12.250712 5.270655-13.675214l-.2849-1.709402 1.566952.2849c.8547.14245 2.706553.427351 4.131054.569801 3.418804.42735 3.561254 1.139601 1.282051 3.133903-1.424501 1.282052-2.421652 2.991454-4.273504 6.980058-1.424502 2.991453-2.421653 5.698006-2.421653 5.840456 0 .2849.854701.42735 1.851852.42735h1.851852l3.133904-6.552706c1.709401-3.561254 3.276353-7.407408 3.418803-8.26211.2849-1.709401.42735-1.709401 1.566952-1.709401.71225.14245 2.564103.14245 3.988604.2849 4.415955.14245 4.985755 1.282052 1.566952 2.991453l-2.279203 1.139602-9.97151 20.655271c-5.413106 11.396012-12.108263 25.071227-14.672366 30.484333-2.564102 5.413105-4.843305 10.39886-4.843305 11.253561 0 .854701-.2849 1.566952-.42735 1.709402-.5698.5698-3.846154.997151-5.555556.71225-2.421653-.2849-2.564103-1.4245-.14245-3.561253 1.424501-1.424501 3.418803-5.128205 10.25641-19.51567 4.700855-9.82906 8.54701-17.94872 8.54701-18.09117 0-.14245-.854701-.14245-1.994303-.14245l-1.994302.14245-3.703704 7.264958c-1.851851 3.988604-5.982906 12.678064-9.11681 19.08832-3.703703 7.692308-5.555555 12.108263-5.413105 12.678064.14245.5698 0 1.1396-.42735 1.424501-.712251.71225-4.415955 1.139601-5.982907.71225zm60.683764-3.988604c-.14245-.42735.14245-1.139601.854701-1.851852 1.282052-1.282052 9.11681-17.663819 9.54416-20.085471.2849-1.282052.5698-1.566952 1.709402-1.851852.997151-.14245 1.566952-.14245 1.851852.2849.2849.5698.5698.5698 1.851852.14245.8547-.2849 1.566952-.42735 1.709402-.2849.14245.14245-.2849 1.424501-.997151 2.991453-1.139602 2.279202-1.424502 2.706553-2.421653 2.706553-.71225 0-1.424501.2849-1.851852.5698-.99715.854701-8.119658 15.811967-7.834758 16.524218.42735.99715-.5698 1.566951-2.421653 1.566951-1.282051 0-1.851852-.14245-1.994302-.71225zm-7.264957-.5698c-.42735-.427351-.854701-1.424502-.854701-2.279203 0-1.566952 8.547009-19.51567 9.68661-20.370372 1.139601-.8547 3.846154-.71225 4.985755.2849 2.136752 1.994303 1.994302 2.136753-4.415954 15.527067-2.279203 4.558405-3.276354 6.125356-4.273505 6.837607-1.994302 1.139601-4.131054 1.139601-5.128205 0zm7.977208-10.968662c1.851852-4.131055 3.418804-7.692309 3.418804-7.977209 0-.71225-1.139602-1.139601-1.709402-.42735-.997151 1.282051-7.692308 15.669516-7.407408 16.096867.14245.42735.5698.42735 1.282051.14245.712251-.14245 1.851852-2.136752 4.415955-7.834758zm9.54416 10.968661c-1.424501-1.566952-.8547-3.276353 3.846154-13.105414 5.128206-10.54131 5.698006-11.396012 8.119659-9.82906.71225.42735 1.282051.71225 1.424501.5698.854701-.8547 9.97151-20.655271 9.97151-21.652422 0-4.558405-4.131054-5.840456-7.834758-2.421653-1.424501 1.282052-1.28205 3.561254.14245 4.700855 1.424502 1.139601 2.279203 1.139601 3.561254.2849.997151-.71225.997151-.71225.997151.42735 0 3.133904-2.421652 4.985756-5.270655 4.273505-2.564103-.71225-3.703704-2.279202-3.988604-5.270655-.14245-3.276354.8547-5.128206 3.561253-6.837607 5.270656-3.276354 11.253562-1.139602 11.823363 4.273504.2849 2.136752-.2849 3.561254-6.695157 16.666668-2.136752 4.558405-5.698006 11.823362-7.834758 16.096867-3.418804 7.122507-3.846155 8.119658-3.561254 9.82906.42735 2.706553-.14245 3.418804-1.994302 2.706553-.997151-.2849-1.709402-.42735-2.421653-.14245-1.566952.5698-2.991453.42735-3.846154-.5698zm4.415955-3.703704c.42735-.5698 2.136752-3.988604 3.846154-7.834758 2.421652-5.128205 3.133903-6.980057 2.706553-7.264958-.42735-.42735-.712251-.42735-.997151 0-.569801.5698-7.549858 15.099716-7.549858 15.669517 0 .8547 1.282051.42735 1.994302-.5698zm-46.8661 3.846154c0-.14245.712251-1.709402 1.566952-3.418803 4.985755-10.256411 8.68946-18.23362 8.68946-18.94587 0-.5698.2849-.854701 1.28205-.854701.712251 0 1.424502.2849 1.566952.5698.14245.569801.42735.569801 1.994302 0 .997151-.42735 1.709402-.42735 1.709402-.14245 0 .2849-.5698 1.566952-1.282051 3.133904-1.139601 2.279202-1.566952 2.706552-2.564103 2.706552-.71225 0-1.424501.2849-1.709402.569801-.71225.997151-6.837607 14.102565-6.837607 14.814816 0 .99715-1.424501 1.994302-2.849003 1.994302-.8547-.14245-1.566952-.2849-1.566952-.42735zm11.680913-.42735c-1.709402-1.139601-1.282052-3.133903 2.136752-10.11396 1.994302-4.131055 2.849003-6.552708 2.564103-6.837608-.5698-.5698 2.136752-5.840456 2.849003-5.840456.2849 0 .99715-.997151 1.709401-2.136752.712251-1.424502 1.566952-2.421653 2.849003-2.991454.997151-.42735 1.851852-.71225 1.851852-.5698.14245.14245-.2849 1.424501-.8547 2.706553-1.282052 2.991453-1.282052 2.849003-.427351 2.849003.5698 0 .2849.71225-.71225 2.849003-.854702 1.851852-1.709403 2.849003-2.136753 2.849003-.71225 0-2.279202 2.991453-5.840456 10.826211l-1.424502 3.133903.997151.712251c.854701.5698.997151.71225.2849 1.994302-.99715 1.424502-2.279202 1.709402-3.846153.5698zm-14.102565-.14245c-.14245-.2849-1.282052-.2849-2.564103-.14245-2.706553.2849-3.276353-.14245-3.703704-2.706553-.14245-1.139602 0-2.136753.997151-4.131055 1.566952-3.133903 3.846154-5.555556 6.980058-6.980057 1.994302-.854701 2.564102-1.566952 3.276353-2.991453 1.282051-2.849003-.14245-4.415955-1.851852-2.136752-.71225.99715-.8547.99715-1.566952.42735-.71225-.5698-.71225-.71225-.14245-1.851852 1.709402-3.276353 4.843305-3.988604 6.837608-1.709402.5698.712251.99715 1.709402.99715 2.279203 0 .5698-1.566951 4.273504-3.418803 8.119658-1.851852 3.988604-3.418804 7.692308-3.561254 8.54701-.2849 2.706552-1.566951 4.558404-2.279202 3.276353zm-.14245-6.552707c.8547-1.851852 1.566951-3.561254 1.424501-3.561254-.5698-.5698-3.561254 2.564103-4.273504 4.273505-.5698 1.709401-.5698 1.851851 0 2.279202.42735.2849.71225.42735.8547.42735.14245 0 1.139602-1.566951 1.994303-3.418803zm-29.344731 5.413105c-1.994302-.8547-2.849003-2.421652-2.849003-4.985755 0-1.709402.42735-3.276353 2.279202-7.407408 1.851852-4.131054 2.279203-5.413105 1.851852-5.840456-.71225-.71225-1.282051 0-3.561254 5.413106-1.851852 4.131054-2.136752 4.415955-3.133903 4.415955H51.57254l.8547-1.851852c.427351-.997151 1.566952-3.418804 2.421653-5.413106.854701-1.994302 1.566952-3.846154 1.566952-4.273505 0-.5698.5698-.71225 2.279202-.8547 4.273505-.14245 4.415955 1.1396.854701 8.974359-1.994302 4.415955-2.564102 5.982906-2.421652 7.122508.2849 1.851851 1.424501 2.991453 2.564102 2.991453 1.282052 0 2.564103-1.282052 2.279203-2.136753-.14245-.2849-.2849-.71225-.2849-.8547 0-.42735-1.566952-.14245-2.136753.2849-.42735.42735-.5698.2849-.5698-.71225 0-1.709403 1.709401-2.706554 3.276353-1.994303.5698.2849 1.424502 1.139601 1.709402 1.709402.71225 1.709402-.5698 4.273504-2.564103 5.128205-1.851852.997151-1.424501 1.139601-3.276353.2849zm-12.393163-8.974359c-1.282052-.8547-1.282052-2.849003 0-4.415955.5698-.71225 2.136752-1.851852 3.561253-2.564102 1.424502-.712251 2.564103-1.566952 2.564103-1.994302 0-.712251-1.139601-.854701-1.566951-.2849-.2849.5698-2.849003.5698-2.849003.14245 0-.569801.5698-1.139602 1.994302-2.279203 1.566951-1.282051 3.846154-1.282051 4.985755-.14245.8547.8547.71225.99715-.71225 4.273504-.854702 1.851852-1.851853 4.273505-2.136753 5.413106-.71225 1.851852-.854701 1.994302-2.706553 2.136752-1.424501.42735-2.564103.2849-3.133903-.2849zm3.846154-3.276353c.99715-1.994303.5698-2.279203-1.139601-.712251-.854701.71225-1.139602 1.282051-.854701 1.709402.42735 1.28205.99715.99715 1.994302-.997151zm11.680912 3.133903c-1.282051-1.282051-1.139601-1.994302.854701-6.267807 2.564103-5.413105 3.846154-6.552707 6.267807-5.270655.71225.42735.99715.14245 1.709401-1.282052.42735-.99715.854701-1.994302.854701-2.136752 0-.2849-1.1396 0-2.564102.42735-1.424502.427351-3.846154.997152-5.555556 1.139602-2.849003.2849-2.991453.14245-4.415955-1.139601-1.139601-1.139602-1.282051-1.566952-1.139601-2.564103.42735-1.709402 1.424501-2.706553 3.133903-3.133903 1.424502-.42735 3.988604-.14245 4.985755.5698.854701.5698.569801 2.421653-.42735 3.418804-1.424502 1.282051-2.136752 1.139601-1.994302-.2849.14245-1.566952-.2849-2.279203-1.566952-2.279203-2.421652 0-2.706553 2.849003-.42735 3.988604 1.709402.854701 3.988604.2849 8.689459-2.136752 1.851852-.8547 3.418804-1.709402 3.703704-1.851852.14245-.14245.5698.2849.8547.8547.427351.854702-.14245 2.279203-3.846153 9.829061-2.421653 4.843305-4.558405 8.83191-4.843305 8.83191-.2849 0-1.139602.14245-1.994303.2849-1.1396 0-1.566951-.2849-2.279202-.997151zm4.985755-4.985755c1.139602-2.706553 1.282052-4.273505.2849-4.273505-.2849 0-1.28205 1.566952-2.279202 3.561254-1.424501 2.706553-1.709402 3.703704-1.282051 3.988604.99715.5698 1.994302-.42735 3.276353-3.276353zm-17.236468-13.532765c-1.139601-.2849-.99715-1.282051.5698-2.421652.854702-.712251 2.136753-2.849003 3.561255-5.698006 1.1396-2.564103 3.988604-8.54701 6.267806-13.390314 5.698006-12.108263 5.413106-10.968662 5.270656-17.094018l-.14245-5.270656-8.119659 17.378918-8.119659 17.378919.42735 2.136752c.284901 1.139601.427351 2.279202.284901 2.564103-.2849.42735-5.982906.5698-7.122507.14245-1.139602-.42735-.854701-2.136752.8547-4.273505.854701-.99715 1.994303-2.991453 2.564103-4.131054.997151-2.136752 3.133904-6.980057 14.529916-31.196583l4.843305-10.39886-.2849-7.549859c-.2849-8.262108 0-9.82906 2.136752-13.105414 2.991453-4.558404 7.264957-4.558404 9.25926-.14245 1.4245 3.133904 1.1396 4.273505-2.991454 13.105414-3.276353 7.264958-3.703704 8.404559-3.561254 9.82906.14245.854701.42735 1.851852.569801 1.851852.14245.14245 2.564103-4.558404 5.270656-10.25641 4.558404-9.68661 4.843305-10.541312 4.415954-11.965813-.8547-2.564103-.42735-2.849003 3.988604-2.849003 2.136753 0 4.415955.14245 4.985756.2849 1.851852.5698 1.566951 1.566952-.5698 2.849003-1.851853 1.139601-2.136753 1.566952-5.413107 8.54701-4.700855 10.11396-6.837607 14.529915-11.253561 23.931624-2.136753 4.415955-4.131055 8.83191-4.558405 9.82906-1.851852 4.273505-13.532764 28.917381-13.960115 29.487182-.14245.71225-2.136752.8547-3.703704.42735zM70.80331 49.430133c1.282051-2.849003 2.279203-5.270656 2.279203-5.555556 0-.8547-1.709402-1.994302-2.421653-1.709402-.8547.2849-2.421653 2.706553-2.991453 4.700855-.42735 1.566952 0 7.549858.42735 7.549858.2849 0 1.566952-2.279202 2.706553-4.985755zm41.168093 65.527069c-1.851851-1.139601-2.421652-2.849003-2.421652-7.264958 0-3.133903.2849-4.131054 1.994302-8.689459 1.139601-2.991453 1.994302-5.840456 1.994302-6.837607 0-1.566952.14245-1.709402 1.282051-1.709402.712251 0 1.566952-.2849 2.136753-.71225 2.421652-1.851853 3.276353.14245 1.1396 2.849002-1.4245 1.709402-3.276353 6.125357-2.991452 6.980058.14245.2849 1.424501-.997151 2.991453-2.849003 3.988604-4.558405 8.119658-7.692308 14.814816-10.968662 8.689459-4.273504 12.108262-7.834758 11.680912-12.108263-.2849-2.564102-.997151-3.276353-2.991453-3.133903-1.282052.14245-1.709402.42735-1.994302 1.424502-.569801 1.424501 0 2.564102 1.424501 3.133903.997151.42735 1.282051 1.139601.42735 1.139601-.8547 0-2.991453-1.282051-3.276353-1.994302-.997151-2.564103.854701-5.128205 3.561254-5.128205 4.415954 0 6.267806 3.703704 4.415954 9.11681-1.28205 3.561253-3.988604 5.840455-11.253561 9.40171-3.561254 1.7094-7.692308 4.131053-9.25926 5.270655-6.695157 4.985755-10.683761 12.820513-10.683761 20.512821 0 2.706553-.569801 2.991453-2.991454 1.566952zm14.529916-.854701c0-.2849.42735-.8547.99715-1.282051.997152-.854701 9.54416-18.09117 9.971511-20.085471.42735-1.851852.997151-2.279203 3.276354-2.279203 2.279202 0 4.985755 1.282051 4.985755 2.421653 0 .42735-1.566952 3.846154-3.418804 7.834758-4.558404 9.54416-4.415954 9.11681-3.276353 10.11396.5698.569801.8547 1.282052.71225 1.851853-.14245.8547-.42735.99715-1.851851.8547-1.994302 0-2.991453-.99715-2.991453-2.849003 0-.5698 1.566951-4.558404 3.561253-8.831909 1.994302-4.273504 3.418804-7.834758 3.276354-8.119658-.71225-1.139602-1.851852.42735-5.840456 8.689459-3.276354 6.695157-4.415955 9.25926-4.131055 10.11396.2849 1.139602.14245 1.139602-1.424501 1.139602-.997151 0-2.136752 0-2.706553.2849-.71225.42735-1.139601.42735-1.139601.14245zm-27.63533-1.139601c-.71225-.42735-1.28205-1.139601-1.566951-2.136752-.8547-3.418804 1.994302-7.834759 7.122508-10.968662 2.279202-1.424501 3.133903-2.279202 3.846154-3.846154 1.28205-2.991453.2849-3.846154-2.136753-1.709402-2.279202 1.994302-2.706553-.14245-.42735-2.564103 1.994302-2.136752 3.846154-2.136752 5.698006-.2849 1.709402 1.709402 1.709402 2.279203-2.564103 11.111112-2.706553 5.698006-3.276353 7.407408-3.133903 8.547009.2849 1.994302-.2849 2.706553-1.851852 2.136752-.71225-.2849-1.709402-.2849-2.136752-.14245-1.139602.5698-1.566952.5698-2.849003-.14245zm3.988605-5.982906c1.709402-3.133904 1.709402-3.561254.14245-2.564103-1.424501.8547-2.706553 2.849003-2.706553 4.131054 0 1.851852 1.282052.997151 2.564103-1.566951zm18.51852 6.125356c-1.139602-.71225-1.566952-1.282051-1.566952-2.421653 0-1.566951 8.404559-18.233619 9.68661-19.23077 1.566952-1.282051 3.133903-1.566951 4.558405-.8547 1.709402.99715 1.566951 2.279202-.712251 7.264957-2.279202 4.843305-2.564103 5.128205-6.410257 5.128205-.99715 0-1.424501.42735-2.564102 2.991453-1.566952 3.276354-1.709402 3.988605-.854701 3.988605.42735 0 1.1396-.997151 1.851852-2.279203.5698-1.282051 1.28205-2.279202 1.28205-2.279202.142451 0 .712252.2849 1.282052.5698l1.139601.569801-1.28205 2.564103c-.712252 1.424501-1.709403 2.849003-2.136753 3.276353-1.139601.997151-3.133903 1.282052-4.273505.712251zm9.40171-16.666668c1.1396-2.706552 1.28205-3.703703.14245-3.133903-.569801.2849-3.133904 5.270656-3.133904 5.982906 0 .2849.42735.2849.854701.14245.5698-.14245 1.282051-1.28205 2.136752-2.991453zM60.8318 111.96575c-.854701-.5698-.997151-.997151-.854701-2.421653.2849-1.709402 7.122507-16.951568 8.262108-18.37607 1.139602-1.28205 3.418804-2.136751 4.415955-1.56695 1.994302.99715 1.851852 2.564102-.71225 7.977208-1.994303 4.273504-2.136753 4.415954-3.561254 4.415954-.854701 0-1.851852.14245-2.136753.2849-.8547.2849-3.846154 6.125357-3.418803 6.552707.71225.712251 1.282051.14245 2.279202-1.709401.854701-1.851852.997151-1.994302 1.851852-1.424502.42735.2849.854701.71225.854701.854701 0 .71225-2.136752 4.558405-2.849003 5.128205-1.139601.997152-3.133903 1.139602-4.131054.2849zm8.97436-15.527067c1.28205-2.991453 1.56695-3.846154.8547-3.988604-.42735-.14245-1.424502 1.851852-3.276353 6.125357-.14245.14245.14245.2849.5698.2849s1.139601-.997151 1.851852-2.421653zm-.14245 15.954417l-.997151-.2849 1.282051-2.564103c2.279203-4.558405 4.985755-14.529915 4.985755-18.51852 0-1.4245.14245-1.4245 1.851852-1.709401.997151-.14245 1.994303-.14245 1.994303-.14245s-.42735 1.282051-.997152 2.706553c-.5698 1.424501-1.1396 3.133903-1.1396 3.703704v1.1396l.71225-.99715c.42735-.5698 1.566952-3.133904 2.564103-5.698006 1.851852-4.415955 1.994302-4.700855 3.276353-4.843305l1.424502-.14245-1.424502 2.564102c-1.139601 2.136752-1.424501 3.133903-1.566951 5.982906l-.14245 3.418804.8547-1.709402c.42735-.99715.997151-2.564102 1.139601-3.418803.2849-1.994302.712251-2.136753 3.276354-1.994302l1.851852.14245-1.851852 2.706553c-2.421653 3.418803-5.413106 9.68661-7.407408 15.527066-1.566952 4.273504-1.566952 4.415955-2.991453 4.558405-1.709402.14245-1.709402.14245-.71225-1.709402.71225-1.282051 2.136751-9.25926 1.851851-9.54416-.2849-.2849-2.849003 3.418803-3.846154 5.413106-.42735.99715-.8547 2.421652-.8547 3.133903-.14245 2.421652-.427351 2.706553-3.133904 2.279202zm26.210828-31.481483c-.854701-.42735-.712251-1.709402.14245-2.421652.42735-.2849 2.136752-3.418804 3.703704-6.695158l2.991453-6.125356-2.279203-8.97436c-1.994302-8.119658-2.279202-9.116809-3.561253-10.11396l-1.424502-1.139601 1.139601-.712251c.854701-.5698 2.136753-.71225 5.413106-.5698 5.982906.14245 6.267807.42735 3.703704 2.991453l-1.566952 1.566951 1.139601 4.843305 1.139602 4.843305 5.840456-5.840456c8.689459-8.547009 15.384616-12.962963 22.079773-14.672365 6.695157-1.709402 13.532764 1.424501 12.820514 5.840456-.14245.8547-.569801 1.994302-.997152 2.421652-2.991453 3.276354-11.111111 3.988605-13.675214 1.282052-.997151-1.139601-.5698-2.849003.854701-3.418804 1.424501-.71225 2.564103 0 2.564103 1.566952 0 1.994302 1.994302 2.421652 5.128205.8547 4.843305-2.279202 2.706553-6.267806-3.418804-6.267806-5.413105 0-12.820513 4.273505-20.370371 11.965813l-5.128205 5.128205-4.558405 9.68661c-3.418804 7.264958-4.558405 10.113961-4.558405 11.396012 0 .997151-.14245 1.851852-.42735 1.994302-.712251.42735-5.982907.854701-6.695157.569801zm10.39886-.5698c-.71225-.569801-1.566951-2.136753-1.566951-3.418804s8.404559-18.51852 9.40171-19.37322c2.279202-1.851852 6.125356-.427351 6.125356 2.136752 0 1.851852-8.404559 19.23077-9.82906 20.08547-.997151.997152-3.276354 1.139602-4.131055.569801zm6.410257-11.111112c2.136752-4.558405 3.846154-8.54701 3.703704-8.97436-.14245-.42735-.42735-.5698-.71225-.14245-.427351.42735-8.40456 16.809118-8.40456 17.236468 0 .14245.2849.14245.712251.14245.5698.14245 2.136753-2.706552 4.700855-8.262108zm.14245 10.826211c-.14245-.42735 0-.99715.42735-1.424501 1.424502-1.566952 9.54416-19.37322 9.40171-20.370372-.2849-1.139601 1.139602-1.709402 2.279203-.8547.5698.42735 1.139601.42735 2.421653 0 .8547-.284901 1.709401-.427351 1.709401-.427351.14245.14245-.42735 1.424501-1.1396 3.133903-1.139602 2.564103-1.424502 2.849003-2.279203 2.706553-.5698-.14245-1.139601 0-1.424502.2849-.8547 1.139602-7.122507 14.814816-7.122507 15.669517 0 1.709402-3.703704 2.706553-4.273505 1.282051zm6.125357.14245c0-.2849.42735-.99715.99715-1.709401.569801-.569801 3.561255-6.695158 6.695158-13.532765 3.133903-6.837607 5.840456-12.678063 5.982906-13.105414.712251-1.424501 4.415955-.99715 4.415955.42735 0 .427351-.5698 1.424502-1.282051 1.994303-1.139602.997151-6.125357 10.25641-6.267807 11.396012 0 .14245 1.994302-1.709402 4.273504-4.131054l4.273505-4.415955 2.564103.14245 2.564102.14245-3.846154 2.991453c-2.136752 1.709402-5.413105 4.415955-7.264957 6.125357l-3.276354 3.133903 1.282052 3.846154c.71225 2.136753 1.851851 4.273505 2.421652 4.843305 1.566952 1.424502.997151 2.279203-1.566952 2.279203-2.849003 0-3.703703-.5698-2.849003-1.709402.42735-.71225.42735-1.424502-.14245-3.418804-.42735-1.424501-.8547-2.706552-1.1396-2.991453-.427351-.42735-3.133904 4.700855-3.133904 5.840456 0 .42735-.42735 1.139602-.997151 1.566952-.997151.8547-3.703704.997151-3.703704.2849zm-43.874646-.71225c-1.851852-1.282052-1.282052-3.276354 3.133903-12.820514l4.131054-8.83191 1.566952-.14245c1.994302-.14245 3.418804 1.139602 3.418804 2.991454 0 .71225-.854701 3.276353-1.994303 5.698006l-1.994302 4.415954-2.136752.14245-2.136752.14245-1.139601 2.706554c-.712251 1.424501-1.139602 2.849003-.997151 3.133903.42735.8547 1.1396.2849 1.994302-1.566952.99715-2.136752 1.1396-2.136752 2.136752-1.566951.5698.2849.5698.71225-.14245 2.421652-1.424502 3.418804-3.703704 4.843305-5.840456 3.276354zM83.338924 65.2421c1.282052-2.706553 1.424502-3.703704.5698-3.703704-.2849 0-3.133902 5.698006-3.133902 6.410256 0 .14245.2849.2849.5698.2849s1.139601-1.28205 1.994302-2.991452zm-2.136752 14.814815c0-.14245.997151-2.279202 2.136752-4.843305 2.849003-5.840456 3.988605-9.40171 4.558405-14.102565l.5698-3.703704h1.566952c1.282052 0 1.424502.14245 1.139602.712251-1.139602 2.564103-1.994303 5.413106-1.994303 6.695157s.14245 1.424502.712251.854701c1.709402-1.424501 4.131055-8.262109 4.131055-11.396012 0-1.566952.2849-1.851852 1.709401-1.424501 1.139602.42735 1.139602.5698-.42735 5.698006-.997151 3.133903-1.139601 5.840456-.42735 5.128205.2849-.2849.8547-1.851852 1.28205-3.703704.712252-2.849003.854702-3.133903 1.851853-3.133903 2.421652 0 2.421652.5698.71225 3.988604-.8547 1.851852-2.279202 4.415955-3.133903 5.982906-1.851852 3.133904-3.133903 6.980058-3.561254 10.541311l-.2849 2.564103h-1.994302c-1.139601 0-1.994302-.14245-1.994302-.42735 0-.2849.71225-1.994303 1.566952-3.988605 1.424501-3.133903 1.994302-6.695157 1.282051-6.695157-.14245 0-.997151.42735-1.709402.854701-1.566951.997151-1.994302 2.136752-2.849003 7.264958l-.5698 2.991453h-2.136753c-1.282051.2849-2.136752.2849-2.136752.14245z"/>
    <path class="color-white" fill="#fff" d="M87.327529 162.250653c-2.706553-.712251-4.131055-1.709402-4.985756-3.276354-1.1396-2.136752-1.282051-3.846154-.5698-5.698006 1.424501-3.418803 3.846154-4.985755 7.834758-4.985755 2.706553 0 4.700855.854701 5.840456 2.849003 1.282051 1.994302 1.139601 3.561254-.2849 4.700855-1.566952 1.282051-1.994302 1.139601-1.994302-.42735 0-1.851852-.712251-2.991454-2.279203-3.703704-2.136752-1.139602-3.418803-.854701-5.270655.8547-1.424502 1.424502-1.566952 1.709402-1.282052 3.418804.42735 3.561254 2.991454 5.128206 7.692309 4.700855 3.561253-.2849 6.410256-1.424501 8.119658-3.418803.5698-.712251 3.276353-5.840457 6.125356-11.680913 6.837608-13.817664 7.834759-16.239317 7.264958-16.381767-.5698-.14245 2.136752-5.840456 2.849003-5.840456.2849 0 .854701-.854701 1.282051-1.709402.854701-1.994302 2.564103-3.846154 4.415955-4.415955 1.851852-.71225 5.128206-.5698 6.837607.2849 1.424502.712251 2.136753 1.994303.997151 1.994303-.2849 0-1.566951.5698-2.706552 1.282051-1.566952.997151-2.421653 1.282051-3.561254.997151-1.139601-.14245-1.709402 0-2.136752.5698-.42735.569801-.42735.854702-.14245.997152.71225.42735-1.851853 5.840456-2.991454 6.125356-.42735.14245-1.282051 1.139601-1.709402 2.421653-.5698 1.139601-3.276353 6.980057-6.267806 12.962963-4.843305 9.82906-5.555556 11.111112-7.834758 13.105414-1.424502 1.282052-3.561254 2.849003-4.843305 3.418804-2.706553 1.282051-7.549858 1.709402-10.398861.8547zM61.54405 150.99709c-1.424501-.42735-1.282051-1.994302.42735-3.846154 1.282052-1.282051 8.54701-16.239317 24.643877-50.712254 5.128205-10.82621 5.555556-12.250712 5.270655-13.675214l-.2849-1.709402 1.566952.2849c.8547.14245 2.706553.427351 4.131054.569801 3.418804.42735 3.561254 1.139601 1.282051 3.133903-1.424501 1.282052-2.421652 2.991454-4.273504 6.980058-1.424502 2.991453-2.421653 5.698006-2.421653 5.840456 0 .2849.854701.42735 1.851852.42735h1.851852l3.133904-6.552706c1.709401-3.561254 3.276353-7.407408 3.418803-8.26211.2849-1.709401.42735-1.709401 1.566952-1.709401.71225.14245 2.564103.14245 3.988604.2849 4.415955.14245 4.985755 1.282052 1.566952 2.991453l-2.279203 1.139602-9.97151 20.655271c-5.413106 11.396012-12.108263 25.071227-14.672366 30.484333-2.564102 5.413105-4.843305 10.39886-4.843305 11.253561 0 .854701-.2849 1.566952-.42735 1.709402-.5698.5698-3.846154.997151-5.555556.71225-2.421653-.2849-2.564103-1.4245-.14245-3.561253 1.424501-1.424501 3.418803-5.128205 10.25641-19.51567 4.700855-9.82906 8.54701-17.94872 8.54701-18.09117 0-.14245-.854701-.14245-1.994303-.14245l-1.994302.14245-3.703704 7.264958c-1.851851 3.988604-5.982906 12.678064-9.11681 19.08832-3.703703 7.692308-5.555555 12.108263-5.413105 12.678064.14245.5698 0 1.1396-.42735 1.424501-.712251.71225-4.415955 1.139601-5.982907.71225zm60.683764-3.988604c-.14245-.42735.14245-1.139601.854701-1.851852 1.282052-1.282052 9.11681-17.663819 9.54416-20.085471.2849-1.282052.5698-1.566952 1.709402-1.851852.997151-.14245 1.566952-.14245 1.851852.2849.2849.5698.5698.5698 1.851852.14245.8547-.2849 1.566952-.42735 1.709402-.2849.14245.14245-.2849 1.424501-.997151 2.991453-1.139602 2.279202-1.424502 2.706553-2.421653 2.706553-.71225 0-1.424501.2849-1.851852.5698-.99715.854701-8.119658 15.811967-7.834758 16.524218.42735.99715-.5698 1.566951-2.421653 1.566951-1.282051 0-1.851852-.14245-1.994302-.71225zm-7.264957-.5698c-.42735-.427351-.854701-1.424502-.854701-2.279203 0-1.566952 8.547009-19.51567 9.68661-20.370372 1.139601-.8547 3.846154-.71225 4.985755.2849 2.136752 1.994303 1.994302 2.136753-4.415954 15.527067-2.279203 4.558405-3.276354 6.125356-4.273505 6.837607-1.994302 1.139601-4.131054 1.139601-5.128205 0zm7.977208-10.968662c1.851852-4.131055 3.418804-7.692309 3.418804-7.977209 0-.71225-1.139602-1.139601-1.709402-.42735-.997151 1.282051-7.692308 15.669516-7.407408 16.096867.14245.42735.5698.42735 1.282051.14245.712251-.14245 1.851852-2.136752 4.415955-7.834758zm9.54416 10.968661c-1.424501-1.566952-.8547-3.276353 3.846154-13.105414 5.128206-10.54131 5.698006-11.396012 8.119659-9.82906.71225.42735 1.282051.71225 1.424501.5698.854701-.8547 9.97151-20.655271 9.97151-21.652422 0-4.558405-4.131054-5.840456-7.834758-2.421653-1.424501 1.282052-1.28205 3.561254.14245 4.700855 1.424502 1.139601 2.279203 1.139601 3.561254.2849.997151-.71225.997151-.71225.997151.42735 0 3.133904-2.421652 4.985756-5.270655 4.273505-2.564103-.71225-3.703704-2.279202-3.988604-5.270655-.14245-3.276354.8547-5.128206 3.561253-6.837607 5.270656-3.276354 11.253562-1.139602 11.823363 4.273504.2849 2.136752-.2849 3.561254-6.695157 16.666668-2.136752 4.558405-5.698006 11.823362-7.834758 16.096867-3.418804 7.122507-3.846155 8.119658-3.561254 9.82906.42735 2.706553-.14245 3.418804-1.994302 2.706553-.997151-.2849-1.709402-.42735-2.421653-.14245-1.566952.5698-2.991453.42735-3.846154-.5698zm4.415955-3.703704c.42735-.5698 2.136752-3.988604 3.846154-7.834758 2.421652-5.128205 3.133903-6.980057 2.706553-7.264958-.42735-.42735-.712251-.42735-.997151 0-.569801.5698-7.549858 15.099716-7.549858 15.669517 0 .8547 1.282051.42735 1.994302-.5698zm-46.8661 3.846154c0-.14245.712251-1.709402 1.566952-3.418803 4.985755-10.256411 8.68946-18.23362 8.68946-18.94587 0-.5698.2849-.854701 1.28205-.854701.712251 0 1.424502.2849 1.566952.5698.14245.569801.42735.569801 1.994302 0 .997151-.42735 1.709402-.42735 1.709402-.14245 0 .2849-.5698 1.566952-1.282051 3.133904-1.139601 2.279202-1.566952 2.706552-2.564103 2.706552-.71225 0-1.424501.2849-1.709402.569801-.71225.997151-6.837607 14.102565-6.837607 14.814816 0 .99715-1.424501 1.994302-2.849003 1.994302-.8547-.14245-1.566952-.2849-1.566952-.42735zm11.680913-.42735c-1.709402-1.139601-1.282052-3.133903 2.136752-10.11396 1.994302-4.131055 2.849003-6.552708 2.564103-6.837608-.5698-.5698 2.136752-5.840456 2.849003-5.840456.2849 0 .99715-.997151 1.709401-2.136752.712251-1.424502 1.566952-2.421653 2.849003-2.991454.997151-.42735 1.851852-.71225 1.851852-.5698.14245.14245-.2849 1.424501-.8547 2.706553-1.282052 2.991453-1.282052 2.849003-.427351 2.849003.5698 0 .2849.71225-.71225 2.849003-.854702 1.851852-1.709403 2.849003-2.136753 2.849003-.71225 0-2.279202 2.991453-5.840456 10.826211l-1.424502 3.133903.997151.712251c.854701.5698.997151.71225.2849 1.994302-.99715 1.424502-2.279202 1.709402-3.846153.5698zm-14.102565-.14245c-.14245-.2849-1.282052-.2849-2.564103-.14245-2.706553.2849-3.276353-.14245-3.703704-2.706553-.14245-1.139602 0-2.136753.997151-4.131055 1.566952-3.133903 3.846154-5.555556 6.980058-6.980057 1.994302-.854701 2.564102-1.566952 3.276353-2.991453 1.282051-2.849003-.14245-4.415955-1.851852-2.136752-.71225.99715-.8547.99715-1.566952.42735-.71225-.5698-.71225-.71225-.14245-1.851852 1.709402-3.276353 4.843305-3.988604 6.837608-1.709402.5698.712251.99715 1.709402.99715 2.279203 0 .5698-1.566951 4.273504-3.418803 8.119658-1.851852 3.988604-3.418804 7.692308-3.561254 8.54701-.2849 2.706552-1.566951 4.558404-2.279202 3.276353zm-.14245-6.552707c.8547-1.851852 1.566951-3.561254 1.424501-3.561254-.5698-.5698-3.561254 2.564103-4.273504 4.273505-.5698 1.709401-.5698 1.851851 0 2.279202.42735.2849.71225.42735.8547.42735.14245 0 1.139602-1.566951 1.994303-3.418803zm-29.344731 5.413105c-1.994302-.8547-2.849003-2.421652-2.849003-4.985755 0-1.709402.42735-3.276353 2.279202-7.407408 1.851852-4.131054 2.279203-5.413105 1.851852-5.840456-.71225-.71225-1.282051 0-3.561254 5.413106-1.851852 4.131054-2.136752 4.415955-3.133903 4.415955H51.57254l.8547-1.851852c.427351-.997151 1.566952-3.418804 2.421653-5.413106.854701-1.994302 1.566952-3.846154 1.566952-4.273505 0-.5698.5698-.71225 2.279202-.8547 4.273505-.14245 4.415955 1.1396.854701 8.974359-1.994302 4.415955-2.564102 5.982906-2.421652 7.122508.2849 1.851851 1.424501 2.991453 2.564102 2.991453 1.282052 0 2.564103-1.282052 2.279203-2.136753-.14245-.2849-.2849-.71225-.2849-.8547 0-.42735-1.566952-.14245-2.136753.2849-.42735.42735-.5698.2849-.5698-.71225 0-1.709403 1.709401-2.706554 3.276353-1.994303.5698.2849 1.424502 1.139601 1.709402 1.709402.71225 1.709402-.5698 4.273504-2.564103 5.128205-1.851852.997151-1.424501 1.139601-3.276353.2849zm-12.393163-8.974359c-1.282052-.8547-1.282052-2.849003 0-4.415955.5698-.71225 2.136752-1.851852 3.561253-2.564102 1.424502-.712251 2.564103-1.566952 2.564103-1.994302 0-.712251-1.139601-.854701-1.566951-.2849-.2849.5698-2.849003.5698-2.849003.14245 0-.569801.5698-1.139602 1.994302-2.279203 1.566951-1.282051 3.846154-1.282051 4.985755-.14245.8547.8547.71225.99715-.71225 4.273504-.854702 1.851852-1.851853 4.273505-2.136753 5.413106-.71225 1.851852-.854701 1.994302-2.706553 2.136752-1.424501.42735-2.564103.2849-3.133903-.2849zm3.846154-3.276353c.99715-1.994303.5698-2.279203-1.139601-.712251-.854701.71225-1.139602 1.282051-.854701 1.709402.42735 1.28205.99715.99715 1.994302-.997151zm11.680912 3.133903c-1.282051-1.282051-1.139601-1.994302.854701-6.267807 2.564103-5.413105 3.846154-6.552707 6.267807-5.270655.71225.42735.99715.14245 1.709401-1.282052.42735-.99715.854701-1.994302.854701-2.136752 0-.2849-1.1396 0-2.564102.42735-1.424502.427351-3.846154.997152-5.555556 1.139602-2.849003.2849-2.991453.14245-4.415955-1.139601-1.139601-1.139602-1.282051-1.566952-1.139601-2.564103.42735-1.709402 1.424501-2.706553 3.133903-3.133903 1.424502-.42735 3.988604-.14245 4.985755.5698.854701.5698.569801 2.421653-.42735 3.418804-1.424502 1.282051-2.136752 1.139601-1.994302-.2849.14245-1.566952-.2849-2.279203-1.566952-2.279203-2.421652 0-2.706553 2.849003-.42735 3.988604 1.709402.854701 3.988604.2849 8.689459-2.136752 1.851852-.8547 3.418804-1.709402 3.703704-1.851852.14245-.14245.5698.2849.8547.8547.427351.854702-.14245 2.279203-3.846153 9.829061-2.421653 4.843305-4.558405 8.83191-4.843305 8.83191-.2849 0-1.139602.14245-1.994303.2849-1.1396 0-1.566951-.2849-2.279202-.997151zm4.985755-4.985755c1.139602-2.706553 1.282052-4.273505.2849-4.273505-.2849 0-1.28205 1.566952-2.279202 3.561254-1.424501 2.706553-1.709402 3.703704-1.282051 3.988604.99715.5698 1.994302-.42735 3.276353-3.276353zm-17.236468-13.532765c-1.139601-.2849-.99715-1.282051.5698-2.421652.854702-.712251 2.136753-2.849003 3.561255-5.698006 1.1396-2.564103 3.988604-8.54701 6.267806-13.390314 5.698006-12.108263 5.413106-10.968662 5.270656-17.094018l-.14245-5.270656-8.119659 17.378918-8.119659 17.378919.42735 2.136752c.284901 1.139601.427351 2.279202.284901 2.564103-.2849.42735-5.982906.5698-7.122507.14245-1.139602-.42735-.854701-2.136752.8547-4.273505.854701-.99715 1.994303-2.991453 2.564103-4.131054.997151-2.136752 3.133904-6.980057 14.529916-31.196583l4.843305-10.39886-.2849-7.549859c-.2849-8.262108 0-9.82906 2.136752-13.105414 2.991453-4.558404 7.264957-4.558404 9.25926-.14245 1.4245 3.133904 1.1396 4.273505-2.991454 13.105414-3.276353 7.264958-3.703704 8.404559-3.561254 9.82906.14245.854701.42735 1.851852.569801 1.851852.14245.14245 2.564103-4.558404 5.270656-10.25641 4.558404-9.68661 4.843305-10.541312 4.415954-11.965813-.8547-2.564103-.42735-2.849003 3.988604-2.849003 2.136753 0 4.415955.14245 4.985756.2849 1.851852.5698 1.566951 1.566952-.5698 2.849003-1.851853 1.139601-2.136753 1.566952-5.413107 8.54701-4.700855 10.11396-6.837607 14.529915-11.253561 23.931624-2.136753 4.415955-4.131055 8.83191-4.558405 9.82906-1.851852 4.273505-13.532764 28.917381-13.960115 29.487182-.14245.71225-2.136752.8547-3.703704.42735zM70.80331 49.430133c1.282051-2.849003 2.279203-5.270656 2.279203-5.555556 0-.8547-1.709402-1.994302-2.421653-1.709402-.8547.2849-2.421653 2.706553-2.991453 4.700855-.42735 1.566952 0 7.549858.42735 7.549858.2849 0 1.566952-2.279202 2.706553-4.985755zm41.168093 65.527069c-1.851851-1.139601-2.421652-2.849003-2.421652-7.264958 0-3.133903.2849-4.131054 1.994302-8.689459 1.139601-2.991453 1.994302-5.840456 1.994302-6.837607 0-1.566952.14245-1.709402 1.282051-1.709402.712251 0 1.566952-.2849 2.136753-.71225 2.421652-1.851853 3.276353.14245 1.1396 2.849002-1.4245 1.709402-3.276353 6.125357-2.991452 6.980058.14245.2849 1.424501-.997151 2.991453-2.849003 3.988604-4.558405 8.119658-7.692308 14.814816-10.968662 8.689459-4.273504 12.108262-7.834758 11.680912-12.108263-.2849-2.564102-.997151-3.276353-2.991453-3.133903-1.282052.14245-1.709402.42735-1.994302 1.424502-.569801 1.424501 0 2.564102 1.424501 3.133903.997151.42735 1.282051 1.139601.42735 1.139601-.8547 0-2.991453-1.282051-3.276353-1.994302-.997151-2.564103.854701-5.128205 3.561254-5.128205 4.415954 0 6.267806 3.703704 4.415954 9.11681-1.28205 3.561253-3.988604 5.840455-11.253561 9.40171-3.561254 1.7094-7.692308 4.131053-9.25926 5.270655-6.695157 4.985755-10.683761 12.820513-10.683761 20.512821 0 2.706553-.569801 2.991453-2.991454 1.566952zm14.529916-.854701c0-.2849.42735-.8547.99715-1.282051.997152-.854701 9.54416-18.09117 9.971511-20.085471.42735-1.851852.997151-2.279203 3.276354-2.279203 2.279202 0 4.985755 1.282051 4.985755 2.421653 0 .42735-1.566952 3.846154-3.418804 7.834758-4.558404 9.54416-4.415954 9.11681-3.276353 10.11396.5698.569801.8547 1.282052.71225 1.851853-.14245.8547-.42735.99715-1.851851.8547-1.994302 0-2.991453-.99715-2.991453-2.849003 0-.5698 1.566951-4.558404 3.561253-8.831909 1.994302-4.273504 3.418804-7.834758 3.276354-8.119658-.71225-1.139602-1.851852.42735-5.840456 8.689459-3.276354 6.695157-4.415955 9.25926-4.131055 10.11396.2849 1.139602.14245 1.139602-1.424501 1.139602-.997151 0-2.136752 0-2.706553.2849-.71225.42735-1.139601.42735-1.139601.14245zm-27.63533-1.139601c-.71225-.42735-1.28205-1.139601-1.566951-2.136752-.8547-3.418804 1.994302-7.834759 7.122508-10.968662 2.279202-1.424501 3.133903-2.279202 3.846154-3.846154 1.28205-2.991453.2849-3.846154-2.136753-1.709402-2.279202 1.994302-2.706553-.14245-.42735-2.564103 1.994302-2.136752 3.846154-2.136752 5.698006-.2849 1.709402 1.709402 1.709402 2.279203-2.564103 11.111112-2.706553 5.698006-3.276353 7.407408-3.133903 8.547009.2849 1.994302-.2849 2.706553-1.851852 2.136752-.71225-.2849-1.709402-.2849-2.136752-.14245-1.139602.5698-1.566952.5698-2.849003-.14245zm3.988605-5.982906c1.709402-3.133904 1.709402-3.561254.14245-2.564103-1.424501.8547-2.706553 2.849003-2.706553 4.131054 0 1.851852 1.282052.997151 2.564103-1.566951zm18.51852 6.125356c-1.139602-.71225-1.566952-1.282051-1.566952-2.421653 0-1.566951 8.404559-18.233619 9.68661-19.23077 1.566952-1.282051 3.133903-1.566951 4.558405-.8547 1.709402.99715 1.566951 2.279202-.712251 7.264957-2.279202 4.843305-2.564103 5.128205-6.410257 5.128205-.99715 0-1.424501.42735-2.564102 2.991453-1.566952 3.276354-1.709402 3.988605-.854701 3.988605.42735 0 1.1396-.997151 1.851852-2.279203.5698-1.282051 1.28205-2.279202 1.28205-2.279202.142451 0 .712252.2849 1.282052.5698l1.139601.569801-1.28205 2.564103c-.712252 1.424501-1.709403 2.849003-2.136753 3.276353-1.139601.997151-3.133903 1.282052-4.273505.712251zm9.40171-16.666668c1.1396-2.706552 1.28205-3.703703.14245-3.133903-.569801.2849-3.133904 5.270656-3.133904 5.982906 0 .2849.42735.2849.854701.14245.5698-.14245 1.282051-1.28205 2.136752-2.991453zM60.8318 111.96575c-.854701-.5698-.997151-.997151-.854701-2.421653.2849-1.709402 7.122507-16.951568 8.262108-18.37607 1.139602-1.28205 3.418804-2.136751 4.415955-1.56695 1.994302.99715 1.851852 2.564102-.71225 7.977208-1.994303 4.273504-2.136753 4.415954-3.561254 4.415954-.854701 0-1.851852.14245-2.136753.2849-.8547.2849-3.846154 6.125357-3.418803 6.552707.71225.712251 1.282051.14245 2.279202-1.709401.854701-1.851852.997151-1.994302 1.851852-1.424502.42735.2849.854701.71225.854701.854701 0 .71225-2.136752 4.558405-2.849003 5.128205-1.139601.997152-3.133903 1.139602-4.131054.2849zm8.97436-15.527067c1.28205-2.991453 1.56695-3.846154.8547-3.988604-.42735-.14245-1.424502 1.851852-3.276353 6.125357-.14245.14245.14245.2849.5698.2849s1.139601-.997151 1.851852-2.421653zm-.14245 15.954417l-.997151-.2849 1.282051-2.564103c2.279203-4.558405 4.985755-14.529915 4.985755-18.51852 0-1.4245.14245-1.4245 1.851852-1.709401.997151-.14245 1.994303-.14245 1.994303-.14245s-.42735 1.282051-.997152 2.706553c-.5698 1.424501-1.1396 3.133903-1.1396 3.703704v1.1396l.71225-.99715c.42735-.5698 1.566952-3.133904 2.564103-5.698006 1.851852-4.415955 1.994302-4.700855 3.276353-4.843305l1.424502-.14245-1.424502 2.564102c-1.139601 2.136752-1.424501 3.133903-1.566951 5.982906l-.14245 3.418804.8547-1.709402c.42735-.99715.997151-2.564102 1.139601-3.418803.2849-1.994302.712251-2.136753 3.276354-1.994302l1.851852.14245-1.851852 2.706553c-2.421653 3.418803-5.413106 9.68661-7.407408 15.527066-1.566952 4.273504-1.566952 4.415955-2.991453 4.558405-1.709402.14245-1.709402.14245-.71225-1.709402.71225-1.282051 2.136751-9.25926 1.851851-9.54416-.2849-.2849-2.849003 3.418803-3.846154 5.413106-.42735.99715-.8547 2.421652-.8547 3.133903-.14245 2.421652-.427351 2.706553-3.133904 2.279202zm26.210828-31.481483c-.854701-.42735-.712251-1.709402.14245-2.421652.42735-.2849 2.136752-3.418804 3.703704-6.695158l2.991453-6.125356-2.279203-8.97436c-1.994302-8.119658-2.279202-9.116809-3.561253-10.11396l-1.424502-1.139601 1.139601-.712251c.854701-.5698 2.136753-.71225 5.413106-.5698 5.982906.14245 6.267807.42735 3.703704 2.991453l-1.566952 1.566951 1.139601 4.843305 1.139602 4.843305 5.840456-5.840456c8.689459-8.547009 15.384616-12.962963 22.079773-14.672365 6.695157-1.709402 13.532764 1.424501 12.820514 5.840456-.14245.8547-.569801 1.994302-.997152 2.421652-2.991453 3.276354-11.111111 3.988605-13.675214 1.282052-.997151-1.139601-.5698-2.849003.854701-3.418804 1.424501-.71225 2.564103 0 2.564103 1.566952 0 1.994302 1.994302 2.421652 5.128205.8547 4.843305-2.279202 2.706553-6.267806-3.418804-6.267806-5.413105 0-12.820513 4.273505-20.370371 11.965813l-5.128205 5.128205-4.558405 9.68661c-3.418804 7.264958-4.558405 10.113961-4.558405 11.396012 0 .997151-.14245 1.851852-.42735 1.994302-.712251.42735-5.982907.854701-6.695157.569801zm10.39886-.5698c-.71225-.569801-1.566951-2.136753-1.566951-3.418804s8.404559-18.51852 9.40171-19.37322c2.279202-1.851852 6.125356-.427351 6.125356 2.136752 0 1.851852-8.404559 19.23077-9.82906 20.08547-.997151.997152-3.276354 1.139602-4.131055.569801zm6.410257-11.111112c2.136752-4.558405 3.846154-8.54701 3.703704-8.97436-.14245-.42735-.42735-.5698-.71225-.14245-.427351.42735-8.40456 16.809118-8.40456 17.236468 0 .14245.2849.14245.712251.14245.5698.14245 2.136753-2.706552 4.700855-8.262108zm.14245 10.826211c-.14245-.42735 0-.99715.42735-1.424501 1.424502-1.566952 9.54416-19.37322 9.40171-20.370372-.2849-1.139601 1.139602-1.709402 2.279203-.8547.5698.42735 1.139601.42735 2.421653 0 .8547-.284901 1.709401-.427351 1.709401-.427351.14245.14245-.42735 1.424501-1.1396 3.133903-1.139602 2.564103-1.424502 2.849003-2.279203 2.706553-.5698-.14245-1.139601 0-1.424502.2849-.8547 1.139602-7.122507 14.814816-7.122507 15.669517 0 1.709402-3.703704 2.706553-4.273505 1.282051zm6.125357.14245c0-.2849.42735-.99715.99715-1.709401.569801-.569801 3.561255-6.695158 6.695158-13.532765 3.133903-6.837607 5.840456-12.678063 5.982906-13.105414.712251-1.424501 4.415955-.99715 4.415955.42735 0 .427351-.5698 1.424502-1.282051 1.994303-1.139602.997151-6.125357 10.25641-6.267807 11.396012 0 .14245 1.994302-1.709402 4.273504-4.131054l4.273505-4.415955 2.564103.14245 2.564102.14245-3.846154 2.991453c-2.136752 1.709402-5.413105 4.415955-7.264957 6.125357l-3.276354 3.133903 1.282052 3.846154c.71225 2.136753 1.851851 4.273505 2.421652 4.843305 1.566952 1.424502.997151 2.279203-1.566952 2.279203-2.849003 0-3.703703-.5698-2.849003-1.709402.42735-.71225.42735-1.424502-.14245-3.418804-.42735-1.424501-.8547-2.706552-1.1396-2.991453-.427351-.42735-3.133904 4.700855-3.133904 5.840456 0 .42735-.42735 1.139602-.997151 1.566952-.997151.8547-3.703704.997151-3.703704.2849zm-43.874646-.71225c-1.851852-1.282052-1.282052-3.276354 3.133903-12.820514l4.131054-8.83191 1.566952-.14245c1.994302-.14245 3.418804 1.139602 3.418804 2.991454 0 .71225-.854701 3.276353-1.994303 5.698006l-1.994302 4.415954-2.136752.14245-2.136752.14245-1.139601 2.706554c-.712251 1.424501-1.139602 2.849003-.997151 3.133903.42735.8547 1.1396.2849 1.994302-1.566952.99715-2.136752 1.1396-2.136752 2.136752-1.566951.5698.2849.5698.71225-.14245 2.421652-1.424502 3.418804-3.703704 4.843305-5.840456 3.276354zM83.338924 65.2421c1.282052-2.706553 1.424502-3.703704.5698-3.703704-.2849 0-3.133902 5.698006-3.133902 6.410256 0 .14245.2849.2849.5698.2849s1.139601-1.28205 1.994302-2.991452zm-2.136752 14.814815c0-.14245.997151-2.279202 2.136752-4.843305 2.849003-5.840456 3.988605-9.40171 4.558405-14.102565l.5698-3.703704h1.566952c1.282052 0 1.424502.14245 1.139602.712251-1.139602 2.564103-1.994303 5.413106-1.994303 6.695157s.14245 1.424502.712251.854701c1.709402-1.424501 4.131055-8.262109 4.131055-11.396012 0-1.566952.2849-1.851852 1.709401-1.424501 1.139602.42735 1.139602.5698-.42735 5.698006-.997151 3.133903-1.139601 5.840456-.42735 5.128205.2849-.2849.8547-1.851852 1.28205-3.703704.712252-2.849003.854702-3.133903 1.851853-3.133903 2.421652 0 2.421652.5698.71225 3.988604-.8547 1.851852-2.279202 4.415955-3.133903 5.982906-1.851852 3.133904-3.133903 6.980058-3.561254 10.541311l-.2849 2.564103h-1.994302c-1.139601 0-1.994302-.14245-1.994302-.42735 0-.2849.71225-1.994303 1.566952-3.988605 1.424501-3.133903 1.994302-6.695157 1.282051-6.695157-.14245 0-.997151.42735-1.709402.854701-1.566951.997151-1.994302 2.136752-2.849003 7.264958l-.5698 2.991453h-2.136753c-1.282051.2849-2.136752.2849-2.136752.14245z"/>
</svg>
