<svg xmlns="http://www.w3.org/2000/svg" xmlns:xlink="http://www.w3.org/1999/xlink" width="200" height="200" xmlns:v="https://vecta.io/nano"><circle fill="#d88e39" cx="100" cy="100" r="100"/><g stroke="#000" stroke-miterlimit="10"><use xlink:href="#B" fill="#fff" stroke-width=".712"/><use xlink:href="#B" fill="none" stroke-width="1.425"/></g><use xlink:href="#B" fill="#fff"/><defs ><path id="B" d="M87.328 162.251c-2.707-.712-4.131-1.709-4.986-3.276-1.14-2.137-1.282-3.846-.57-5.698 1.425-3.419 3.846-4.986 7.835-4.986 2.707 0 4.701.855 5.84 2.849 1.282 1.994 1.14 3.561-.285 4.701-1.567 1.282-1.994 1.14-1.994-.427 0-1.852-.712-2.991-2.279-3.704-2.137-1.14-3.419-.855-5.271.855-1.425 1.425-1.567 1.709-1.282 3.419.427 3.561 2.991 5.128 7.692 4.701 3.561-.285 6.41-1.425 8.12-3.419.57-.712 3.276-5.84 6.125-11.681 6.838-13.818 7.835-16.239 7.265-16.382s2.137-5.84 2.849-5.84c.285 0 .855-.855 1.282-1.709.855-1.994 2.564-3.846 4.416-4.416 1.852-.712 5.128-.57 6.838.285 1.425.712 2.137 1.994.997 1.994-.285 0-1.567.57-2.707 1.282-1.567.997-2.422 1.282-3.561.997-1.14-.142-1.709 0-2.137.57s-.427.855-.142.997c.712.427-1.852 5.84-2.991 6.125-.427.142-1.282 1.14-1.709 2.422l-6.268 12.963c-4.843 9.829-5.556 11.111-7.835 13.105-1.425 1.282-3.561 2.849-4.843 3.419-2.707 1.282-7.55 1.709-10.399.855zm-25.783-11.254c-1.425-.427-1.282-1.994.427-3.846 1.282-1.282 8.547-16.239 24.644-50.712 5.128-10.826 5.556-12.251 5.271-13.675l-.285-1.709 1.567.285c.855.142 2.707.427 4.131.57 3.419.427 3.561 1.14 1.282 3.134-1.425 1.282-2.422 2.991-4.274 6.98-1.425 2.991-2.422 5.698-2.422 5.84 0 .285.855.427 1.852.427h1.852l3.134-6.553c1.709-3.561 3.276-7.407 3.419-8.262.285-1.709.427-1.709 1.567-1.709.712.142 2.564.142 3.989.285 4.416.142 4.986 1.282 1.567 2.991l-2.279 1.14-9.972 20.655-14.672 30.484c-2.564 5.413-4.843 10.399-4.843 11.254s-.285 1.567-.427 1.709c-.57.57-3.846.997-5.556.712-2.422-.285-2.564-1.424-.142-3.561 1.425-1.425 3.419-5.128 10.256-19.516l8.547-18.091c0-.142-.855-.142-1.994-.142l-1.994.142-3.704 7.265-9.117 19.088c-3.704 7.692-5.556 12.108-5.413 12.678s0 1.14-.427 1.425c-.712.712-4.416 1.14-5.983.712zm60.684-3.989c-.142-.427.142-1.14.855-1.852 1.282-1.282 9.117-17.664 9.544-20.085.285-1.282.57-1.567 1.709-1.852.997-.142 1.567-.142 1.852.285.285.57.57.57 1.852.142.855-.285 1.567-.427 1.709-.285s-.285 1.425-.997 2.991c-1.14 2.279-1.425 2.707-2.422 2.707-.712 0-1.425.285-1.852.57-.997.855-8.12 15.812-7.835 16.524.427.997-.57 1.567-2.422 1.567-1.282 0-1.852-.142-1.994-.712zm-7.265-.57c-.427-.427-.855-1.425-.855-2.279 0-1.567 8.547-19.516 9.687-20.37s3.846-.712 4.986.285c2.137 1.994 1.994 2.137-4.416 15.527-2.279 4.558-3.276 6.125-4.274 6.838-1.994 1.14-4.131 1.14-5.128 0zm7.977-10.969c1.852-4.131 3.419-7.692 3.419-7.977 0-.712-1.14-1.14-1.709-.427-.997 1.282-7.692 15.67-7.407 16.097.142.427.57.427 1.282.142.712-.142 1.852-2.137 4.416-7.835zm9.544 10.969c-1.425-1.567-.855-3.276 3.846-13.105 5.128-10.541 5.698-11.396 8.12-9.829.712.427 1.282.712 1.425.57.855-.855 9.972-20.655 9.972-21.652 0-4.558-4.131-5.84-7.835-2.422-1.425 1.282-1.282 3.561.142 4.701s2.279 1.14 3.561.285c.997-.712.997-.712.997.427 0 3.134-2.422 4.986-5.271 4.274-2.564-.712-3.704-2.279-3.989-5.271-.142-3.276.855-5.128 3.561-6.838 5.271-3.276 11.254-1.14 11.823 4.274.285 2.137-.285 3.561-6.695 16.667-2.137 4.558-5.698 11.823-7.835 16.097-3.419 7.123-3.846 8.12-3.561 9.829.427 2.707-.142 3.419-1.994 2.707-.997-.285-1.709-.427-2.422-.142-1.567.57-2.991.427-3.846-.57zm4.416-3.704c.427-.57 2.137-3.989 3.846-7.835 2.422-5.128 3.134-6.98 2.707-7.265-.427-.427-.712-.427-.997 0-.57.57-7.55 15.1-7.55 15.67 0 .855 1.282.427 1.994-.57zm-46.866 3.846c0-.142.712-1.709 1.567-3.419 4.986-10.256 8.689-18.234 8.689-18.946 0-.57.285-.855 1.282-.855.712 0 1.425.285 1.567.57.142.57.427.57 1.994 0 .997-.427 1.709-.427 1.709-.142s-.57 1.567-1.282 3.134c-1.14 2.279-1.567 2.707-2.564 2.707-.712 0-1.425.285-1.709.57-.712.997-6.838 14.103-6.838 14.815 0 .997-1.425 1.994-2.849 1.994-.855-.142-1.567-.285-1.567-.427zm11.681-.427c-1.709-1.14-1.282-3.134 2.137-10.114 1.994-4.131 2.849-6.553 2.564-6.838-.57-.57 2.137-5.84 2.849-5.84.285 0 .997-.997 1.709-2.137.712-1.425 1.567-2.422 2.849-2.991.997-.427 1.852-.712 1.852-.57.142.142-.285 1.425-.855 2.707-1.282 2.991-1.282 2.849-.427 2.849.57 0 .285.712-.712 2.849-.855 1.852-1.709 2.849-2.137 2.849-.712 0-2.279 2.991-5.84 10.826l-1.425 3.134.997.712c.855.57.997.712.285 1.994-.997 1.425-2.279 1.709-3.846.57zm-14.103-.142c-.142-.285-1.282-.285-2.564-.142-2.707.285-3.276-.142-3.704-2.707-.142-1.14 0-2.137.997-4.131 1.567-3.134 3.846-5.556 6.98-6.98 1.994-.855 2.564-1.567 3.276-2.991 1.282-2.849-.142-4.416-1.852-2.137-.712.997-.855.997-1.567.427s-.712-.712-.142-1.852c1.709-3.276 4.843-3.989 6.838-1.709.57.712.997 1.709.997 2.279s-1.567 4.274-3.419 8.12c-1.852 3.989-3.419 7.692-3.561 8.547-.285 2.707-1.567 4.558-2.279 3.276zm-.142-6.553c.855-1.852 1.567-3.561 1.425-3.561-.57-.57-3.561 2.564-4.274 4.274-.57 1.709-.57 1.852 0 2.279.427.285.712.427.855.427s1.14-1.567 1.994-3.419zm-29.345 5.413c-1.994-.855-2.849-2.422-2.849-4.986 0-1.709.427-3.276 2.279-7.407s2.279-5.413 1.852-5.84c-.712-.712-1.282 0-3.561 5.413-1.852 4.131-2.137 4.416-3.134 4.416h-1.14l.855-1.852c.427-.997 1.567-3.419 2.422-5.413s1.567-3.846 1.567-4.274c0-.57.57-.712 2.279-.855 4.274-.142 4.416 1.14.855 8.974-1.994 4.416-2.564 5.983-2.422 7.123.285 1.852 1.425 2.991 2.564 2.991 1.282 0 2.564-1.282 2.279-2.137-.142-.285-.285-.712-.285-.855 0-.427-1.567-.142-2.137.285-.427.427-.57.285-.57-.712 0-1.709 1.709-2.707 3.276-1.994.57.285 1.425 1.14 1.709 1.709.712 1.709-.57 4.274-2.564 5.128-1.852.997-1.425 1.14-3.276.285zm-12.393-8.974c-1.282-.855-1.282-2.849 0-4.416.57-.712 2.137-1.852 3.561-2.564s2.564-1.567 2.564-1.994c0-.712-1.14-.855-1.567-.285-.285.57-2.849.57-2.849.142 0-.57.57-1.14 1.994-2.279 1.567-1.282 3.846-1.282 4.986-.142.855.855.712.997-.712 4.274-.855 1.852-1.852 4.274-2.137 5.413-.712 1.852-.855 1.994-2.707 2.137-1.425.427-2.564.285-3.134-.285zm3.846-3.276c.997-1.994.57-2.279-1.14-.712-.855.712-1.14 1.282-.855 1.709.427 1.282.997.997 1.994-.997zm11.681 3.134c-1.282-1.282-1.14-1.994.855-6.268 2.564-5.413 3.846-6.553 6.268-5.271.712.427.997.142 1.709-1.282.427-.997.855-1.994.855-2.137 0-.285-1.14 0-2.564.427s-3.846.997-5.556 1.14c-2.849.285-2.991.142-4.416-1.14-1.14-1.14-1.282-1.567-1.14-2.564.427-1.709 1.425-2.707 3.134-3.134 1.425-.427 3.989-.142 4.986.57.855.57.57 2.422-.427 3.419-1.425 1.282-2.137 1.14-1.994-.285.142-1.567-.285-2.279-1.567-2.279-2.422 0-2.707 2.849-.427 3.989 1.709.855 3.989.285 8.689-2.137 1.852-.855 3.419-1.709 3.704-1.852.142-.142.57.285.855.855.427.855-.142 2.279-3.846 9.829-2.422 4.843-4.558 8.832-4.843 8.832s-1.14.142-1.994.285c-1.14 0-1.567-.285-2.279-.997zm4.986-4.986c1.14-2.707 1.282-4.274.285-4.274-.285 0-1.282 1.567-2.279 3.561-1.425 2.707-1.709 3.704-1.282 3.989.997.57 1.994-.427 3.276-3.276zm-17.236-13.533c-1.14-.285-.997-1.282.57-2.422.855-.712 2.137-2.849 3.561-5.698 1.14-2.564 3.989-8.547 6.268-13.39 5.698-12.108 5.413-10.969 5.271-17.094l-.142-5.271-16.239 34.758.427 2.137c.285 1.14.427 2.279.285 2.564-.285.427-5.983.57-7.123.142s-.855-2.137.855-4.274c.855-.997 1.994-2.991 2.564-4.131l19.373-41.595-.285-7.55c-.285-8.262 0-9.829 2.137-13.105 2.991-4.558 7.265-4.558 9.259-.142 1.424 3.134 1.14 4.274-2.991 13.105-3.276 7.265-3.704 8.405-3.561 9.829.142.855.427 1.852.57 1.852.142.142 2.564-4.558 5.271-10.256 4.558-9.687 4.843-10.541 4.416-11.966-.855-2.564-.427-2.849 3.989-2.849 2.137 0 4.416.142 4.986.285 1.852.57 1.567 1.567-.57 2.849-1.852 1.14-2.137 1.567-5.413 8.547L71.231 77.493c-2.137 4.416-4.131 8.832-4.558 9.829-1.852 4.274-13.533 28.917-13.96 29.487-.142.712-2.137.855-3.704.427zM70.803 49.43c1.282-2.849 2.279-5.271 2.279-5.556 0-.855-1.709-1.994-2.422-1.709-.855.285-2.422 2.707-2.991 4.701-.427 1.567 0 7.55.427 7.55.285 0 1.567-2.279 2.707-4.986zm41.168 65.527c-1.852-1.14-2.422-2.849-2.422-7.265 0-3.134.285-4.131 1.994-8.689 1.14-2.991 1.994-5.84 1.994-6.838 0-1.567.142-1.709 1.282-1.709a3.84 3.84 0 0 0 2.137-.712c2.422-1.852 3.276.142 1.14 2.849-1.424 1.709-3.276 6.125-2.991 6.98.142.285 1.425-.997 2.991-2.849 3.989-4.558 8.12-7.692 14.815-10.969 8.689-4.274 12.108-7.835 11.681-12.108-.285-2.564-.997-3.276-2.991-3.134-1.282.142-1.709.427-1.994 1.425-.57 1.425 0 2.564 1.425 3.134.997.427 1.282 1.14.427 1.14s-2.991-1.282-3.276-1.994c-.997-2.564.855-5.128 3.561-5.128 4.416 0 6.268 3.704 4.416 9.117-1.282 3.561-3.989 5.84-11.254 9.402-3.561 1.709-7.692 4.131-9.259 5.271-6.695 4.986-10.684 12.821-10.684 20.513 0 2.707-.57 2.991-2.991 1.567zm14.53-.855c0-.285.427-.855.997-1.282.997-.855 9.544-18.091 9.972-20.085.427-1.852.997-2.279 3.276-2.279s4.986 1.282 4.986 2.422c0 .427-1.567 3.846-3.419 7.835-4.558 9.544-4.416 9.117-3.276 10.114.57.57.855 1.282.712 1.852-.142.855-.427.997-1.852.855-1.994 0-2.991-.997-2.991-2.849 0-.57 1.567-4.558 3.561-8.832s3.419-7.835 3.276-8.12c-.712-1.14-1.852.427-5.84 8.689-3.276 6.695-4.416 9.259-4.131 10.114.285 1.14.142 1.14-1.425 1.14-.997 0-2.137 0-2.707.285-.712.427-1.14.427-1.14.142zm-27.635-1.14c-.712-.427-1.282-1.14-1.567-2.137-.855-3.419 1.994-7.835 7.123-10.969 2.279-1.425 3.134-2.279 3.846-3.846 1.282-2.991.285-3.846-2.137-1.709-2.279 1.994-2.707-.142-.427-2.564 1.994-2.137 3.846-2.137 5.698-.285 1.709 1.709 1.709 2.279-2.564 11.111-2.707 5.698-3.276 7.407-3.134 8.547.285 1.994-.285 2.707-1.852 2.137-.712-.285-1.709-.285-2.137-.142-1.14.57-1.567.57-2.849-.142zm3.989-5.983c1.709-3.134 1.709-3.561.142-2.564-1.425.855-2.707 2.849-2.707 4.131 0 1.852 1.282.997 2.564-1.567zm18.519 6.125c-1.14-.712-1.567-1.282-1.567-2.422 0-1.567 8.405-18.234 9.687-19.231 1.567-1.282 3.134-1.567 4.558-.855 1.709.997 1.567 2.279-.712 7.265-2.279 4.843-2.564 5.128-6.41 5.128-.997 0-1.425.427-2.564 2.991-1.567 3.276-1.709 3.989-.855 3.989.427 0 1.14-.997 1.852-2.279.57-1.282 1.282-2.279 1.282-2.279.142 0 .712.285 1.282.57l1.14.57-1.282 2.564c-.712 1.425-1.709 2.849-2.137 3.276-1.14.997-3.134 1.282-4.274.712zm9.402-16.667c1.14-2.707 1.282-3.704.142-3.134-.57.285-3.134 5.271-3.134 5.983 0 .285.427.285.855.142.57-.142 1.282-1.282 2.137-2.991zm-69.943 15.527c-.855-.57-.997-.997-.855-2.422.285-1.709 7.123-16.952 8.262-18.376 1.14-1.282 3.419-2.137 4.416-1.567 1.994.997 1.852 2.564-.712 7.977-1.994 4.274-2.137 4.416-3.561 4.416-.855 0-1.852.142-2.137.285-.855.285-3.846 6.125-3.419 6.553.712.712 1.282.142 2.279-1.709.855-1.852.997-1.994 1.852-1.425.427.285.855.712.855.855 0 .712-2.137 4.558-2.849 5.128-1.14.997-3.134 1.14-4.131.285zm8.974-15.527c1.282-2.991 1.567-3.846.855-3.989-.427-.142-1.425 1.852-3.276 6.125-.142.142.142.285.57.285s1.14-.997 1.852-2.422zm-.142 15.954l-.997-.285 1.282-2.564c2.279-4.558 4.986-14.53 4.986-18.519 0-1.424.142-1.424 1.852-1.709.997-.142 1.994-.142 1.994-.142s-.427 1.282-.997 2.707-1.14 3.134-1.14 3.704v1.14l.712-.997c.427-.57 1.567-3.134 2.564-5.698 1.852-4.416 1.994-4.701 3.276-4.843l1.425-.142-1.425 2.564c-1.14 2.137-1.425 3.134-1.567 5.983l-.142 3.419.855-1.709c.427-.997.997-2.564 1.14-3.419.285-1.994.712-2.137 3.276-1.994l1.852.142-1.852 2.707c-2.422 3.419-5.413 9.687-7.407 15.527-1.567 4.274-1.567 4.416-2.991 4.558-1.709.142-1.709.142-.712-1.709.712-1.282 2.137-9.259 1.852-9.544s-2.849 3.419-3.846 5.413c-.427.997-.855 2.422-.855 3.134-.142 2.422-.427 2.707-3.134 2.279zm26.211-31.481c-.855-.427-.712-1.709.142-2.422.427-.285 2.137-3.419 3.704-6.695l2.991-6.125-2.279-8.974c-1.994-8.12-2.279-9.117-3.561-10.114l-1.425-1.14 1.14-.712c.855-.57 2.137-.712 5.413-.57 5.983.142 6.268.427 3.704 2.991l-1.567 1.567 2.279 9.687 5.84-5.84c8.689-8.547 15.385-12.963 22.08-14.672s13.533 1.425 12.821 5.84c-.142.855-.57 1.994-.997 2.422-2.991 3.276-11.111 3.989-13.675 1.282-.997-1.14-.57-2.849.855-3.419 1.425-.712 2.564 0 2.564 1.567 0 1.994 1.994 2.422 5.128.855 4.843-2.279 2.707-6.268-3.419-6.268-5.413 0-12.821 4.274-20.37 11.966l-5.128 5.128-4.558 9.687c-3.419 7.265-4.558 10.114-4.558 11.396 0 .997-.142 1.852-.427 1.994-.712.427-5.983.855-6.695.57zm10.399-.57c-.712-.57-1.567-2.137-1.567-3.419s8.405-18.519 9.402-19.373c2.279-1.852 6.125-.427 6.125 2.137 0 1.852-8.405 19.231-9.829 20.085-.997.997-3.276 1.14-4.131.57zm6.41-11.111c2.137-4.558 3.846-8.547 3.704-8.974s-.427-.57-.712-.142c-.427.427-8.405 16.809-8.405 17.236 0 .142.285.142.712.142.57.142 2.137-2.707 4.701-8.262zm.142 10.826c-.142-.427 0-.997.427-1.425 1.425-1.567 9.544-19.373 9.402-20.37-.285-1.14 1.14-1.709 2.279-.855.57.427 1.14.427 2.422 0 .855-.285 1.709-.427 1.709-.427.142.142-.427 1.425-1.14 3.134-1.14 2.564-1.425 2.849-2.279 2.707-.57-.142-1.14 0-1.425.285-.855 1.14-7.123 14.815-7.123 15.67 0 1.709-3.704 2.707-4.274 1.282zm6.125.142c0-.285.427-.997.997-1.709.57-.57 3.561-6.695 6.695-13.533l5.983-13.105c.712-1.425 4.416-.997 4.416.427 0 .427-.57 1.425-1.282 1.994-1.14.997-6.125 10.256-6.268 11.396 0 .142 1.994-1.709 4.274-4.131l4.274-4.416 5.128.285-3.846 2.991c-2.137 1.709-5.413 4.416-7.265 6.125l-3.276 3.134 1.282 3.846c.712 2.137 1.852 4.274 2.422 4.843 1.567 1.425.997 2.279-1.567 2.279-2.849 0-3.704-.57-2.849-1.709.427-.712.427-1.425-.142-3.419-.427-1.425-.855-2.707-1.14-2.991-.427-.427-3.134 4.701-3.134 5.84 0 .427-.427 1.14-.997 1.567-.997.855-3.704.997-3.704.285zm-43.875-.712c-1.852-1.282-1.282-3.276 3.134-12.821l4.131-8.832 1.567-.142c1.994-.142 3.419 1.14 3.419 2.991 0 .712-.855 3.276-1.994 5.698l-1.994 4.416-4.274.285-1.14 2.707c-.712 1.425-1.14 2.849-.997 3.134.427.855 1.14.285 1.994-1.567.997-2.137 1.14-2.137 2.137-1.567.57.285.57.712-.142 2.422-1.425 3.419-3.704 4.843-5.84 3.276zm8.262-14.245c1.282-2.707 1.425-3.704.57-3.704-.285 0-3.134 5.698-3.134 6.41 0 .142.285.285.57.285s1.14-1.282 1.994-2.991zm-2.137 14.815c0-.142.997-2.279 2.137-4.843 2.849-5.84 3.989-9.402 4.558-14.103l.57-3.704h1.567c1.282 0 1.425.142 1.14.712-1.14 2.564-1.994 5.413-1.994 6.695s.142 1.425.712.855c1.709-1.425 4.131-8.262 4.131-11.396 0-1.567.285-1.852 1.709-1.425 1.14.427 1.14.57-.427 5.698-.997 3.134-1.14 5.84-.427 5.128.285-.285.855-1.852 1.282-3.704.712-2.849.855-3.134 1.852-3.134 2.422 0 2.422.57.712 3.989-.855 1.852-2.279 4.416-3.134 5.983-1.852 3.134-3.134 6.98-3.561 10.541l-.285 2.564h-1.994c-1.14 0-1.994-.142-1.994-.427s.712-1.994 1.567-3.989c1.425-3.134 1.994-6.695 1.282-6.695-.142 0-.997.427-1.709.855-1.567.997-1.994 2.137-2.849 7.265l-.57 2.991h-2.137c-1.282.285-2.137.285-2.137.142z"/></defs></svg>