<svg data-name="Layer 1" xmlns="http://www.w3.org/2000/svg" viewBox="0 0 29 29"><circle cx="14.5" cy="14.5" r="14" transform="rotate(-76.63 14.497 14.498)" fill="#0f8140"/><path d="M24.68 8.62l-5.2 16.14c-.07.2-.17.3-.32.3H9.06a.34.34 0 01-.35-.3L4.32 8.67c0-.1 0-.15.14-.15h3.15c.17 0 .23 0 .18-.14L6 5.29c0-.08 0-.11.12-.11h16.7c.15 0 .2 0 .16.12l-1.74 3.08c0 .1 0 .14.17.14h3.13c.11 0 .16.03.14.1zm-.79.51c0-.07 0-.11-.12-.11h-3.22c-.16 0-.22 0-.17-.14L22 5.77c0-.09 0-.14-.14-.14H7.06c-.13 0-.17 0-.13.11l1.83 3.14c.06.09 0 .14-.18.14H5.15C5 9 5 9.08 5 9.19l4.1 15a.36.36 0 00.36.3h9.28c.15 0 .25-.1.32-.3zm-.62.45l-4.54 14.18c-.06.2-.17.3-.32.3h-8.6a.36.36 0 01-.36-.3L5.59 9.63c0-.1 0-.15.14-.15h3.64c.17 0 .22-.05.17-.14L7.72 6.2c0-.07 0-.11.13-.11h13.32c.14 0 .19 0 .14.13l-1.55 3.12c-.05.09 0 .14.16.14h3.21c.11 0 .16.03.14.1zm-8.95 3.31a1.21 1.21 0 00-.61-1.05 2.17 2.17 0 00-1.25-.38H9.41c-.44 0-.68 0-.72.11s0 .13 0 .25a1.38 1.38 0 01.09.46v7.32c0-.05.25.14.57.14s.51 0 .52-.09a.24.24 0 000-.14.57.57 0 010-.18v-2.58q0-.36.12-.36s.13.05.23.17l2.58 2.75a.61.61 0 01.1.24s0 .06.08.09a1.7 1.7 0 00.67 0 3 3 0 00.74 0c.06-.05 0-.13-.07-.24-2.09-2.23-3.14-3.38-3.14-3.47a.13.13 0 010-.07v-.8c0-.06 0-.1-.06-.11a.19.19 0 00-.18 0c-.59.25-.9.38-.93.38s-.21-.12-.21-.35v-2.12c0-.23.12-.34.36-.34h1.89c.76 0 1.13.22 1.13.67a1 1 0 01-.31.66V15c0 .11.08.13.23 0a2.8 2.8 0 00.65-.58 2.17 2.17 0 00.53-.94 3.66 3.66 0 00.04-.59zm4-1.9a2.18 2.18 0 00-.6-1.45 1.82 1.82 0 00-1.45-.69h-4.72c-.14 0-.21.05-.21.13a.24.24 0 00.07.13.2.2 0 01.07.11v1.9c0 .07.3.11.91.11.13 0 .19-.06.19-.18v-.82c0-.1.07-.16.19-.16h3.17a1.12 1.12 0 011 .44 1.91 1.91 0 01.31.65 2 2 0 00.57.07 2.83 2.83 0 00.47 0 .48.48 0 00.05-.23zm-5.65 11.33a.46.46 0 000-.13.45.45 0 01-.05-.18v-2.33a.46.46 0 00-.14-.37l-.74-.74c-.09-.07-.15-.09-.19 0a1.29 1.29 0 000 .4V22a.53.53 0 010 .23.16.16 0 000 .09q0 .12.36.12h.53c.11 0 .23-.04.23-.12zm5.44-9.61a.44.44 0 00-.2-.07 3.71 3.71 0 00-.81 0 9.35 9.35 0 01-1.41 1.45 16.94 16.94 0 01-2.56 1.48c-.24.14-.39.2-.43.17s-.12-.17-.12-.4V13c0-.13-.21-.2-.55-.2a1.87 1.87 0 00-.36 0c-.13 0-.19.15-.19.33V16a1.9 1.9 0 00.43.62c.29.34.5.5.62.5a6.81 6.81 0 002.07-1 17.88 17.88 0 002-1.26 3.91 3.91 0 001.51-2.15zm2.38.17c0-1-.57-1.43-1.72-1.43h-3a1.61 1.61 0 00-.54.05.14.14 0 000 .17.84.84 0 010 .18v2.06c0 .1 0 .15.08.15.27 0 .58-.29.94-.79v-.49q0-.33.27-.33h2.35a.44.44 0 01.35.23.67.67 0 01.16.37q0 1.2-3 2.19a11.19 11.19 0 00-1 .69c-.1.09-.16.38-.16.88v2.5a.49.49 0 010 .13.15.15 0 000 .16q0 .09.27.09h.59c.17 0 .26-.05.26-.15a.3.3 0 000-.11.35.35 0 010-.12v-2.85c0-.09 0-.14.09-.14s.15.06.22.18l1.74 2.81a.63.63 0 00.17.33 2.86 2.86 0 00.68 0 1.48 1.48 0 00.54-.05.09.09 0 000-.13l-.14-.14c-1.37-2.15-2-3.26-2-3.33s.26-.2.76-.45a5.35 5.35 0 001.44-.93 2.42 2.42 0 00.65-1.73z" fill="#fff"/></svg>