<svg xmlns="http://www.w3.org/2000/svg" width="200" height="200"  xmlns:v="https://vecta.io/nano"><circle fill="#637f2a" cx="100" cy="100" r="100"/><path fill="#fff" d="M59.61 184.631L18.929 55.493c14.743-.333 16.184.222 24.387-.111-.554-4.434-3.88-13.523-6.762-25.938l126.921.111c-2.106 8.646-3.769 16.184-6.429 24.941 10.309.554 13.523.222 23.721.333L139.975 184.52l-80.365.111zm77.594-3.215L176.665 57.71h-24.387c2.66-10.087 4.323-14.299 7.094-25.606-31.148-.222-96.327.111-118.829.222 2.55 11.085 3.325 13.413 7.094 26.271-10.087.111-13.634-.111-24.497 0 12.193 40.349 27.379 86.351 39.351 122.931l74.712-.111zm-70.61-3.991C53.07 137.52 48.747 122.334 33.339 74.004c-1.884-5.875-3.215-10.863-3.104-11.196h23.721c-2.771-9.865-3.88-12.858-7.538-26.382h105.638c-2.328 10.42-2.771 12.637-6.207 24.941 11.196.554 14.189.333 24.165.665-14.521 48.33-15.297 50.436-36.912 115.393H66.593zm21.948-32.257c-3.88-3.88-5.875-5.986-9.311-9.644-.222 13.302.222 14.854.111 28.71 3.436.443 5.986.111 9.2-.111-.222-6.318-.111-12.637 0-18.955zm27.047-24.276l15.519 22.946c4.101-.111 5.875.222 10.309-.111l-15.74-27.49c1.219-.887 1.33-1.33 3.104-1.995 4.766-1.663 11.417-6.54 14.632-10.641 6.097-7.649 5.432-17.403-1.33-21.394-1.995-1.219-3.436-1.884-19.066-1.441l-17.071.443v21.505c.665.443 7.316-4.212 9.533-6.651-.222-2.106-.443-3.215-.111-5.542h21.394l.776 1.663c1.774 3.658-1.219 7.538-8.646 11.528-2.439 1.219-6.54 4.656-9.755 6.762-6.873 4.545-8.424 4.101-13.08 6.207-.111 14.964-.887 16.96-.443 27.158 3.88.111 5.653.333 9.644.222.111-10.087-.554-12.415.333-23.167zm-48.773-1.33c10.087 10.752 12.526 13.856 23.167 24.276l10.641-.111c-7.87-9.533-14.632-17.181-23.5-26.936-.222-3.104.111-5.432 0-10.309-.222 0-2.106.887-3.658 1.552-1.774.665-3.658.887-4.656.665l-1.663-.443V90.632l10.198-.111c11.75-.111 12.526 0 13.413.776.333.333.554 5.653.443 13.745-.111 8.757 0 13.302.443 13.523.887.554 11.417-2.993 17.071-5.875 2.55-1.33 6.762-3.769 9.422-5.542 5.653-3.769 16.073-13.634 15.63-14.854-3.658-.111-6.097 0-10.42-.222l-6.207 4.323c-3.769 2.55-7.981 6.207-9.976 7.205-4.323 2.106-13.523 5.321-13.967 4.877-.111-.111.776-1.441 2.217-2.771 3.769-3.769 5.542-7.87 5.542-12.858 0-4.877-.998-7.649-5.321-10.752-14.743-.443-21.394-.222-38.132-.111-.333 19.509-.111 50.436-.111 61.188a90.06 90.06 0 0 0 9.422.111c.111-10.087.443-14.299 0-23.721zm21.394-26.604l-8.868.111-.222 22.946c4.766 4.988 5.21 5.764 8.868 9.311.333-13.08.333-21.061.222-32.368zm.333-26.16c12.637-.665 19.953.222 25.828 1.219 5.542.887 9.2 3.215 11.307 7.205l.554 3.104h9.644l-.111-2.106c.554-5.321-4.656-12.526-11.085-15.408-1.995-.887-5.432-1.884-7.759-2.328-4.323-.665-12.082-.665-37.356-.333-.111 8.203.333 13.523.111 20.95 3.991.222 5.764.222 9.2.222l-.333-12.526z"/></svg>