<svg xmlns="http://www.w3.org/2000/svg" viewBox="-25 -25 50 50"><g><circle cx="0" cy="0" r="25" fill="#ff0000"></circle><path d="m -10.496234,-3.2748258 h -4.444 v -3.63 h 3.63 l 0.55,1.606 h 1.9799996 v -4.246 h -6.1599996 l -5.06,0.11 v 1.87 l 1.65,0.66 v 10.34 l -1.65,0.66 v 1.87 h 11.4839996 v -4.444 h -1.9799996 l -0.506,1.804 h -3.938 v -4.18 h 4.444 z" fill="#ffffff" transform="translate(0 2.17)"/> <path d="m 1.7598281,3.3251742 h -3.366 v -10.23 l 1.65000003,-0.66 v -1.98 l -6.71000003,0.11 v 1.87 l 1.65,0.66 v 10.34 l -1.65,0.66 v 1.87 h 11 v -5.06 h -2.09 z" fill="#ffffff" transform="translate(0 2.17)"/><path d="m 20.879203,4.0951742 -1.54,-0.616 -4.73,-13.024 -3.52,0.066 -4.8399999,12.958 -1.606,0.616 v 1.87 h 6.6439999 v -1.87 l -1.7159999,-0.616 0.5499999,-1.584 h 4.884 l 0.528,1.606 -1.65,0.594 v 1.87 h 6.996 z m -6.6,-4.554 h -3.388 l 1.738,-5.214 z" fill="#ffffff" transform="translate(0 2.17)"/></g></svg>
