<svg xmlns="http://www.w3.org/2000/svg" viewBox="-25 -25 50 50"><circle r="25" fill="red"/><path d="M-10.496-1.105h-4.444v-3.63h3.63l.55 1.606h1.98v-4.246h-6.16l-5.06.11v1.87l1.65.66v10.34l-1.65.66v1.87h11.484V3.691h-1.98l-.506 1.804h-3.938v-4.18h4.444zm12.256 6.6h-3.366v-10.23l1.65-.66v-1.98l-6.71.11v1.87l1.65.66v10.34l-1.65.66v1.87h11v-5.06h-2.09zm19.12.77l-1.54-.616-4.73-13.024-3.52.066L6.25 5.65l-1.607.616v1.87h6.644v-1.87L9.571 5.65l.55-1.584h4.884l.528 1.606-1.65.594v1.87h6.996zm-6.6-4.554h-3.39l1.738-5.214z" fill="#fff"/></svg>