<svg xmlns="http://www.w3.org/2000/svg" viewBox="-25 -25 50 50"><circle r="25" fill="#644c00"/><path d="M.15-2.715h-4.522v-1.58q0-1.493-.129-1.869-.129-.376-.612-.376-.42 0-.57.323-.15.322-.15 1.654v8.347q0 1.17.15 1.546.15.366.602.366.494 0 .666-.42.183-.418.183-1.632V1.58h-.914V-1.06H.15v9.335h-2.846l-.42-1.246q-.461.805-1.17 1.214-.698.397-1.654.397-1.14 0-2.138-.548-.988-.558-1.504-1.375-.516-.816-.645-1.708-.128-.902-.128-2.696v-5.167q0-2.492.268-3.62.269-1.128 1.536-2.063 1.279-.945 3.298-.945 1.987 0 3.298.816 1.31.817 1.708 1.945Q.15-5.605.15-3.467zM11-9.118v3.48H8.314V8.275H3.792V-5.637H1.117v-3.48z" fill="#fff"/></svg>