<svg xmlns="http://www.w3.org/2000/svg" viewBox="-25 -25 50 50"><g><circle cx="0" cy="0" r="25" fill="#644c00"></circle><path d="M 0.15039062,-2.7154484 H -4.3720703 v -1.5791015 q 0,-1.4931641 -0.1289063,-1.8691407 -0.1289062,-0.3759765 -0.6123046,-0.3759765 -0.4189454,0 -0.569336,0.3222656 -0.1503906,0.3222656 -0.1503906,1.6542969 v 8.3466797 q 0,1.1708984 0.1503906,1.546875 0.1503906,0.3652343 0.6015625,0.3652343 0.4941406,0 0.6660156,-0.4189453 0.1826172,-0.4189453 0.1826172,-1.6328125 v -2.0625 H -5.1455078 V -1.0611515 H 0.15039062 V 8.2738094 H -2.6962891 L -3.1152344,7.0277157 q -0.461914,0.805664 -1.1708984,1.2138672 -0.6982422,0.3974609 -1.6542969,0.3974609 -1.1386719,0 -2.1376953,-0.5478516 -0.9882813,-0.5585937 -1.5039063,-1.375 -0.5156247,-0.8164062 -0.6445317,-1.7080078 -0.128906,-0.9023437 -0.128906,-2.696289 v -5.1669922 q 0,-2.4921875 0.268555,-3.6201172 0.2685546,-1.1279297 1.5361327,-2.0625 1.2783204,-0.9453125 3.2978516,-0.9453125 1.9873047,0 3.2978516,0.8164062 1.31054685,0.8164063 1.70800779,1.944336 0.39746093,1.1171875 0.39746093,3.2548828 z" fill="#ffffff"/><path d="m 11,-9.1177921 v 3.4804687 H 8.3144531 V 8.2738094 H 3.7919922 V -5.6373234 H 1.1171875 v -3.4804687 z" fill="#ffffff"/></g></svg>
