<svg xmlns="http://www.w3.org/2000/svg" viewBox="-25 -25 50 50"><circle r="25" fill="#b8ffff"/><path d="M-15.06 4.993h-3.06v-9.3l1.5-.6v-1.8l-6.1.1v1.7l1.5.6v9.4l-1.5.6v1.7h10v-4.6h-1.9zm17.38.7l-1.4-.56-4.3-11.84-3.2.06-4.4 11.78-1.46.56v1.7h6.04v-1.7l-1.56-.56.5-1.44h4.44l.48 1.46-1.5.54v1.7h6.36zm-6-4.14h-3.08l1.58-4.74zm6.59 5.84h6.1v-1.7l-1.5-.6v-9.4l1.5-.6v-1.8l-6.1.1v1.7l1.5.6v9.4l-1.5.6zm7.595 0h6.04v-1.7l-1.44-.6v-3.24h.7c1.06 0 1.24.32 1.92 1.84l1.68 3.7h3.7v-1.7l-1.36-.5-1.34-2.74c-.32-.66-.62-1.04-.84-1.3 1.36-.68 2.26-1.9 2.26-3.78 0-2.72-1.92-4.08-5.2-4.08h-1.52l-4.6.1v1.7l1.5.6v9.4l-1.5.6zm4.6-7.64v-4.06h1.64c1.24 0 2 .82 2 1.96 0 1.34-.92 2.1-2.5 2.1z"/></svg>