<svg xmlns="http://www.w3.org/2000/svg" viewBox="-25 -25 50 50"><g><circle cx="0" cy="0" r="25" fill="#b8ffff"></circle><path d="m -15.060312,3.0228854 h -3.06 v -9.3 l 1.5,-0.6 v -1.8 l -6.1,0.1 v 1.7 l 1.5,0.6 v 9.4 l -1.5,0.6 v 1.7 h 10 V 0.82288542 h -1.900001 z" fill="#000000" transform="translate(0 1.97)"/><path d="m 2.3209375,3.7228854 -1.4,-0.56 -4.3,-11.84 -3.2,0.06 -4.4000005,11.78 -1.46,0.56 v 1.7 h 6.0400005 v -1.7 l -1.56,-0.56 0.5,-1.44 h 4.44 l 0.48,1.46 -1.5,0.54 v 1.7 h 6.36 z m -6,-4.13999998 h -3.08 l 1.58,-4.74000002 z" fill="#000000" transform="translate(0 1.97)" /><path d="m 2.909375,5.4228854 h 6.1 v -1.7 l -1.5,-0.6 v -9.4 l 1.5,-0.6 v -1.8 l -6.1,0.1 v 1.7 l 1.5,0.6 v 9.4 l -1.5,0.6 z" fill="#000000" transform="translate(0 1.97)" /><path d="m 10.504687,5.4228854 h 6.040001 v -1.7 l -1.44,-0.6 v -3.23999998 h 0.7 c 1.059999,0 1.24,0.32 1.92,1.83999998 l 1.68,3.7 h 3.699999 v -1.7 l -1.36,-0.5 -1.339999,-2.73999998 c -0.320001,-0.66 -0.620001,-1.04 -0.840001,-1.3 1.36,-0.68000002 2.26,-1.90000002 2.26,-3.78000002 0,-2.72 -1.919999,-4.08 -5.2,-4.08 h -1.519999 l -4.600001,0.1 v 1.7 l 1.5,0.6 v 9.4 l -1.5,0.6 z m 4.600001,-7.64 v -4.06 h 1.64 c 1.239999,0 1.999999,0.82 1.999999,1.96 0,1.34 -0.92,2.1 -2.499999,2.1 z" fill="#000000" transform="translate(0 1.97)"/></g></svg>
