<svg xmlns="http://www.w3.org/2000/svg" viewBox="-25 -25 50 50"><g><circle cx="0" cy="0" r="25" fill="#832e9a"></circle><path d="m -6.8105469,1.0658016 q 0,2.6210938 -0.1289062,3.7167969 -0.1181641,1.0849609 -0.7734375,1.9873047 -0.6445313,0.9023437 -1.7509766,1.3857422 -1.1064458,0.4833984 -2.5781248,0.4833984 -1.396485,0 -2.513672,-0.4511719 -1.106445,-0.461914 -1.783203,-1.375 -0.676758,-0.9130859 -0.805664,-1.9873047 -0.128906,-1.0742187 -0.128906,-3.7597656 v -2.9755859 q 0,-2.6210938 0.118164,-3.7060547 0.128906,-1.0957031 0.773437,-1.9980469 0.655273,-0.9023437 1.761719,-1.3857422 1.106445,-0.4833984 2.578125,-0.4833984 1.396484,0 2.5029295,0.4619141 1.1171875,0.4511718 1.7939453,1.3642578 0.6767578,0.9130859 0.8056641,1.9873047 0.1289062,1.0742187 0.1289062,3.7597656 z m -4.5224611,-5.7148437 q 0,-1.2138672 -0.139648,-1.546875 -0.128907,-0.34375 -0.547852,-0.34375 -0.354492,0 -0.547851,0.2792968 -0.182618,0.2685547 -0.182618,1.6113282 v 8.1210937 q 0,1.5146485 0.118164,1.8691406 0.128907,0.3544922 0.580079,0.3544922 0.461914,0 0.59082,-0.4082031 0.128906,-0.4082031 0.128906,-1.9443359 z" fill="#ffffff" transform="translate(0 0)"/><path d="M 5.4462891,-1.5338078 H 0.92382813 v -3.0292968 q 0,-1.3212891 -0.15039063,-1.6435547 -0.13964844,-0.3330078 -0.63378906,-0.3330078 -0.55859375,0 -0.70898438,0.3974609 -0.15039062,0.3974609 -0.15039062,1.71875 v 8.078125 q 0,1.2675781 0.15039062,1.6542969 0.15039063,0.3867187 0.67675781,0.3867187 0.50488282,0 0.65527344,-0.3867187 Q 0.92382813,4.9222469 0.92382813,3.493536 V 1.3128719 H 5.4462891 v 0.6767578 q 0,2.6962891 -0.3867188,3.8242188 Q 4.6835937,6.9417782 3.3730469,7.790411 2.0732422,8.6390438 0.16113281,8.6390438 q -1.98730471,0 -3.27636721,-0.7197266 Q -4.4042969,7.1995907 -4.8232422,5.9320126 -5.2421875,4.6536922 -5.2421875,2.0970516 v -5.0810547 q 0,-1.8798828 0.1289063,-2.8144531 0.1289062,-0.9453125 0.7626953,-1.8154297 0.6445312,-0.8701172 1.7724609,-1.3642578 1.1386719,-0.5048828 2.61035156,-0.5048828 1.99804684,0 3.29785154,0.7734375 1.2998047,0.7734375 1.7080078,1.9335937 0.4082032,1.1494141 0.4082032,3.5878907 z" fill="#ffffff" transform="translate(0 0)"/><path d="m 7.0898437,-9.1177921 h 3.2011723 q 3.201172,0 4.329101,0.2470703 1.138672,0.2470703 1.847656,1.2675781 0.719727,1.0097656 0.719727,3.2333984 0,2.0302735 -0.504883,2.7285157 -0.504883,0.69824216 -1.987304,0.8378906 1.342773,0.33300781 1.804687,0.89160156 0.461914,0.55859375 0.569336,1.03125004 0.118164,0.461914 0.118164,2.5673828 v 4.586914 H 12.987305 V 2.4945126 q 0,-1.3964844 -0.225586,-1.72949223 Q 12.546875,0.43201256 11.612305,0.43201256 V 8.2738094 H 7.0898437 Z m 4.5224613,2.9755859 v 3.8671875 q 0.762695,0 1.063476,-0.2041016 0.311524,-0.2148437 0.311524,-1.3642578 v -0.9560547 q 0,-0.8271484 -0.300782,-1.0849609 -0.290039,-0.2578125 -1.074218,-0.2578125 z" fill="#ffffff" transform="translate(0 0)"/></g></svg>
