<svg xmlns="http://www.w3.org/2000/svg" viewBox="-25 -25 50 50"><circle r="25" fill="#832e9a"/><path d="M-6.81 1.066q0 2.62-.13 3.717-.118 1.085-.773 1.987-.644.902-1.75 1.386-1.107.483-2.579.483-1.396 0-2.514-.451-1.106-.462-1.783-1.375-.677-.913-.806-1.987-.128-1.075-.128-3.76V-1.91q0-2.62.118-3.706.129-1.096.773-1.998.655-.902 1.762-1.386 1.106-.483 2.578-.483 1.396 0 2.503.462 1.117.451 1.794 1.364t.806 1.987q.128 1.075.128 3.76zm-4.523-5.715q0-1.214-.14-1.547-.129-.344-.548-.344-.354 0-.547.28-.183.268-.183 1.611v8.121q0 1.515.118 1.87.13.354.58.354.462 0 .591-.409.129-.408.129-1.944zM5.446-1.534H.924v-3.03q0-1.32-.15-1.643Q.633-6.54.14-6.54q-.559 0-.71.398-.15.397-.15 1.719v8.078q0 1.267.15 1.654.151.387.677.387.505 0 .656-.387.16-.387.16-1.815V1.313h4.523v.677q0 2.696-.386 3.824-.376 1.128-1.687 1.976-1.3.849-3.212.849-1.987 0-3.276-.72-1.29-.72-1.708-1.987-.42-1.278-.42-3.835v-5.081q0-1.88.13-2.814.129-.946.762-1.816.645-.87 1.773-1.364 1.139-.505 2.61-.505 1.998 0 3.298.773 1.3.774 1.708 1.934.408 1.15.408 3.588zM7.09-9.118h3.201q3.201 0 4.33.247 1.138.247 1.847 1.268.72 1.01.72 3.233 0 2.03-.505 2.729-.505.698-1.988.838 1.343.333 1.805.891.462.559.57 1.032.117.461.117 2.567v4.587h-4.2v-5.78q0-1.396-.225-1.729-.215-.333-1.15-.333v7.842H7.09zm4.522 2.976v3.867q.763 0 1.064-.204.311-.215.311-1.364V-4.8q0-.828-.3-1.085-.29-.258-1.075-.258z" fill="#fff"/></svg>