<svg xmlns="http://www.w3.org/2000/svg" viewBox="-25 -25 50 50"><g><circle cx="0" cy="0" r="25" fill="#ff6a00"></circle><path d="m -20.349141,5.9651742 h 6.71 v -1.87 l -1.65,-0.66 v -2.86 h 1.166 c 4.004,0 6.2700004,-1.804 6.2700004,-5.5 0,-2.86 -1.98,-4.62 -5.3460004,-4.62 h -2.09 l -5.06,0.11 v 1.87 l 1.65,0.66 v 10.34 l -1.65,0.66 z m 5.06,-7.964 v -4.906 h 1.76 c 1.496,0 2.266,0.99 2.266,2.42 0,1.628 -1.034,2.486 -2.86,2.486 z" fill="#000000" transform="translate(0 2.17)"/>x<path d="m 3.0818906,-3.2748258 h -4.444 v -3.63 h 3.63 l 0.55,1.606 h 1.98 v -4.246 h -6.16 l -5.06,0.11 v 1.87 l 1.65,0.66 v 10.34 l -1.65,0.66 v 1.87 h 11.484 v -4.444 h -1.98 l -0.506,1.804 h -3.938 v -4.18 h 4.444 z" fill="#000000" transform="translate(0 2.17)"/><path d="m 7.0219531,5.9651742 h 6.6439999 v -1.87 l -1.584,-0.66 v -3.564 h 0.77 c 1.166,0 1.364,0.352 2.112,2.024 l 1.848,4.07 h 4.07 v -1.87 l -1.496,-0.55 -1.474,-3.014 c -0.352,-0.726 -0.682,-1.144 -0.924,-1.43 1.496,-0.748 2.486,-2.09 2.486,-4.158 0,-2.992 -2.112,-4.488 -5.72,-4.488 h -1.672 l -5.0599999,0.11 v 1.87 l 1.65,0.66 v 10.34 l -1.65,0.66 z m 5.0599999,-8.404 v -4.466 h 1.804 c 1.364,0 2.2,0.902 2.2,2.156 0,1.474 -1.012,2.31 -2.75,2.31 z" fill="#000000" transform="translate(0 2.17)"/></g></svg>
