<svg xmlns="http://www.w3.org/2000/svg" viewBox="-25 -25 50 50"><g><circle cx="0" cy="0" r="25" fill="#0026ff"></circle><path d="m -9.9056719,1.1911742 h -2.2440001 v 4.224 c 0,0 2.4200001,0.836 4.9060001,0.836 3.388,0 5.94,-1.804 5.94,-5.104 0,-5.17 -7.414,-4.158 -7.414,-6.71 0,-0.88 0.77,-1.562 2.332,-1.562 0.946,0 1.936,0.33 1.936,0.33 l 0.55,1.87 h 2.024 l 0.11,-4.004 c 0,0 -2.354,-0.88 -4.84,-0.88 -3.19,0 -5.5880001,1.628 -5.5880001,4.664 0,5.434 7.4360001,4.29 7.4360001,6.864 0,1.166 -1.254,1.782 -2.662,1.782 -1.276,0 -2.156,-0.462 -2.156,-0.462 z" fill="#ffffff" transform="translate(0 2.17)"/><path d="M 0.57664062,5.9651742 H 7.2866406 v -1.87 l -1.65,-0.66 v -2.86 h 1.166 c 4.0040004,0 6.2700004,-1.804 6.2700004,-5.5 0,-2.86 -1.98,-4.62 -5.3460004,-4.62 h -2.09 l -5.05999998,0.11 v 1.87 l 1.64999998,0.66 v 10.34 l -1.64999998,0.66 z m 5.05999998,-7.964 v -4.906 h 1.76 c 1.496,0 2.266,0.99 2.266,2.42 0,1.628 -1.034,2.486 -2.86,2.486 z" fill="#ffffff" transform="translate(0 2.17)"/></g></svg>
