<svg xmlns="http://www.w3.org/2000/svg" viewBox="-25 -25 50 50"><circle r="25" fill="#0026ff"/><path d="M-9.906 3.361h-2.244v4.224s2.42.836 4.906.836c3.388 0 5.94-1.804 5.94-5.104 0-5.17-7.414-4.158-7.414-6.71 0-.88.77-1.562 2.332-1.562.946 0 1.936.33 1.936.33l.55 1.87h2.024l.11-4.004s-2.354-.88-4.84-.88c-3.19 0-5.588 1.628-5.588 4.664 0 5.434 7.436 4.29 7.436 6.864 0 1.166-1.254 1.782-2.662 1.782-1.276 0-2.156-.462-2.156-.462zM.577 8.135h6.71v-1.87l-1.65-.66v-2.86h1.166c4.004 0 6.27-1.804 6.27-5.5 0-2.86-1.98-4.62-5.346-4.62h-2.09l-5.06.11v1.87l1.65.66v10.34l-1.65.66zM5.637.171v-4.906h1.76c1.496 0 2.266.99 2.266 2.42 0 1.628-1.034 2.486-2.86 2.486z" fill="#fff"/></svg>