<svg xmlns="http://www.w3.org/2000/svg" viewBox="-25 -25 50 50"><g><circle cx="0" cy="0" r="25" fill="#727272"></circle><path d="m -9.7252031,-6.9048258 1.716,-0.66 v -1.98 l -6.7539999,0.11 v 1.87 l 1.628,0.66 v 6.93 c 0,4.246 1.76,6.204 6.1819999,6.204 4.73,0 6.35799998,-2.288 6.35799998,-6.534 v -6.6 l 1.65000002,-0.66 v -1.98 l -6.776,0.11 v 1.87 l 1.716,0.66 v 6.6 c 0,2.596 -0.506,3.85 -2.838,3.85 -2.156,0 -2.882,-0.99 -2.882,-3.52 z" fill="#ffffff" transform="translate(0 2.17)"/><path d="m 2.5961719,5.9651742 h 6.71 v -1.87 l -1.65,-0.66 v -2.86 h 1.166 c 4.0040001,0 6.2700001,-1.804 6.2700001,-5.5 0,-2.86 -1.98,-4.62 -5.3460001,-4.62 h -2.09 l -5.06,0.11 v 1.87 l 1.65,0.66 v 10.34 l -1.65,0.66 z m 5.06,-7.964 v -4.906 h 1.76 c 1.4960001,0 2.2660001,0.99 2.2660001,2.42 0,1.628 -1.034,2.486 -2.8600001,2.486 z" fill="#ffffff" transform="translate(0 2.17)"/></g></svg>
