<svg xmlns="http://www.w3.org/2000/svg" style="width: 0.52in; height: 0.52in;" viewBox="-26 -26 52 52"><g transform="rotate(0)"><clipPath id="dd8381b7-7bc5-4eaf-ba8e-03cb9f3c38b0"><circle cx="0" cy="0" r="25"></circle></clipPath><g clip-path="url(#dd8381b7-7bc5-4eaf-ba8e-03cb9f3c38b0)"><g transform="rotate(0)"><circle cx="0" cy="0" r="25" fill="#ffffff" stroke="none"></circle></g><g width="50" height="50" transform="translate(-27, -27) scale(0.09)"><path fill="#fff" d="M515 314.2c15.1 32.1 18.4 41.5 17.9 70.7-1.5 97.2-76 115.6-117 115-28.6-.4-76.5 2-109.4 32.7h-.8c-32.9-30.7-80.8-33.2-109.4-32.7-41 .6-115.5-17.8-117-115-.5-29.1 2.9-38.7 17.9-70.7 22.9-34.1 15.3-108.1 15.3-108.1h387.2c-8.4 33.9-7.7 74 15.3 108.1z"></path><path fill="none" stroke="black" stroke-width="20" d="M112.5 206.1s7.6 74-15.3 108.1c-15 32-18.4 41.6-17.9 70.7 1.5 97.2 76 115.6 117 115 28.6-.5 76.5 2 109.4 32.7h.8c32.9-30.7 80.8-33.1 109.4-32.7 41 .6 115.5-17.8 117-115 .5-29.2-2.8-38.6-17.9-70.7-23-34.1-23.7-74.2-15.3-108.1H112.5z"></path><path fill="#727272" d="M527.4 145.7c-26.7 18.6-27.8 60.4-27.8 60.4H112.5s-3.7-44.7-27.8-60.4c26.8-27 64.6-66.3 64.6-66.3s71.1 65.8 156.7 1.3c85.5 64.5 156.7-1.3 156.7-1.3s37.9 39.2 64.7 66.3z"></path><path fill="none" stroke="black" stroke-width="20" d="M112.5 206.1s-3.7-44.7-27.8-60.4c26.8-27 64.6-66.3 64.6-66.3s71.1 65.8 156.7 1.3c85.5 64.5 156.7-1.3 156.7-1.3s37.9 39.2 64.6 66.3c-26.7 18.6-27.8 60.4-27.8 60.4h-387z"></path></g><text font-family="display" font-size="16" text-anchor="middle" stroke-width="0.5" stroke="none" fill="rgb(17, 10, 12)" x="0" y="10.5">UP</text></g></g></svg>
