<svg xmlns="http://www.w3.org/2000/svg" viewBox="-25 -25 50 50"><circle r="25" fill="#727272"/><path d="M-9.725-4.735l1.716-.66v-1.98l-6.754.11v1.87l1.628.66v6.93c0 4.246 1.76 6.204 6.182 6.204 4.73 0 6.358-2.288 6.358-6.534v-6.6l1.65-.66v-1.98l-6.776.11v1.87l1.716.66v6.6c0 2.596-.506 3.85-2.838 3.85-2.156 0-2.882-.99-2.882-3.52zM2.596 8.135h6.71v-1.87l-1.65-.66v-2.86h1.166c4.004 0 6.27-1.804 6.27-5.5 0-2.86-1.98-4.62-5.346-4.62h-2.09l-5.06.11v1.87l1.65.66v10.34l-1.65.66zM7.656.171v-4.906h1.76c1.496 0 2.266.99 2.266 2.42 0 1.628-1.034 2.486-2.86 2.486z" fill="#fff"/></svg>