<svg id="Layer_1" data-name="Layer 1" xmlns="http://www.w3.org/2000/svg" width="40" height="40" viewBox="0 0 40 40">
  <defs>
    <style>
      .cls-1 {
        fill: #00a651;
      }

      .cls-2 {
        fill: #ffffff;
      }
    </style>
  </defs>
  <g>
    <circle class="cls-1" cx="20" cy="20" r="19.62"/>
    <g>
      <path class="cls-2" d="M19.44,10.15v.2A3.16,3.16,0,0,0,19,11.87v18H17.83l-6.24-12V28.13a2.71,2.71,0,0,0,.5,1.49v.23H7.76v-.23a3.1,3.1,0,0,0,.51-1.49V11.87a2.15,2.15,0,0,0-.12-.73,4,4,0,0,0-.36-.79v-.2h3.63l4.19,8.56V11.87a2.53,2.53,0,0,0-.51-1.52v-.2Z"/>
      <path class="cls-2" d="M32,29.31a4.24,4.24,0,0,1-1.4.52,8.81,8.81,0,0,1-1.94.21,6.09,6.09,0,0,1-3.73-1.19,7.64,7.64,0,0,1-2.51-3.38,13.27,13.27,0,0,1-.88-5,15.71,15.71,0,0,1,.88-5.5A8.32,8.32,0,0,1,25,11.26,5.87,5.87,0,0,1,28.72,10a9,9,0,0,1,2,.21,3,3,0,0,1,1.12.4L32,14.85l-.11,0a9.85,9.85,0,0,0-1.38-1.27,2.9,2.9,0,0,0-1.8-.67,2.43,2.43,0,0,0-1.87.91,6.47,6.47,0,0,0-1.25,2.62,15.64,15.64,0,0,0-.45,4,11.11,11.11,0,0,0,.45,3.32A5.23,5.23,0,0,0,26.84,26a2.48,2.48,0,0,0,1.83.79,4.43,4.43,0,0,0,2-.45,9.83,9.83,0,0,0,1.48-.87h.11Z"/>
    </g>
  </g>
</svg>
