<svg id="Layer_1" data-name="Layer 1" xmlns="http://www.w3.org/2000/svg" width="40" height="40" viewBox="0 0 40 40">
  <defs>
    <style>
      .cls-1 {
        fill: #fdba12;
      }

      .cls-2 {
        fill: #231f20;
      }
    </style>
  </defs>
  <g>
    <circle class="cls-1" cx="20" cy="20" r="19.62"/>
    <g>
      <path class="cls-2" d="M11.15,26.84a2.61,2.61,0,0,0,1.73.56,1.87,1.87,0,0,0,1.49-.69A2.74,2.74,0,0,0,15,24.84a4.69,4.69,0,0,0-.69-2.29,14.4,14.4,0,0,0-2.09-2.72,10.32,10.32,0,0,1-1.92-2.74,7,7,0,0,1-.61-2.91A3.87,3.87,0,0,1,11,11.11,5.1,5.1,0,0,1,14.46,10a8.34,8.34,0,0,1,1.69.14,2.69,2.69,0,0,1,.9.28l.11,3.88h-.23a4.34,4.34,0,0,0-1-1.11,2.3,2.3,0,0,0-1.43-.49,1.15,1.15,0,0,0-1,.46,1.72,1.72,0,0,0-.37,1.08A4.13,4.13,0,0,0,14.4,17a17.47,17.47,0,0,1,2.9,3.92,8.23,8.23,0,0,1,1,3.79,5.28,5.28,0,0,1-1.43,3.85A5,5,0,0,1,13.08,30a6,6,0,0,1-2.07-.3,2.9,2.9,0,0,1-1.11-.68l-.09-3.8H10A4.37,4.37,0,0,0,11.15,26.84Z"/>
      <path class="cls-2" d="M30.13,29.31a4.4,4.4,0,0,1-1.41.52,8.74,8.74,0,0,1-1.94.21,6.09,6.09,0,0,1-3.73-1.19,7.63,7.63,0,0,1-2.5-3.38,13.27,13.27,0,0,1-.89-5,15.7,15.7,0,0,1,.89-5.5,8.32,8.32,0,0,1,2.52-3.69A5.84,5.84,0,0,1,26.84,10a9,9,0,0,1,2,.21,2.81,2.81,0,0,1,1.11.4l.17,4.28-.11,0a9.85,9.85,0,0,0-1.38-1.27,2.9,2.9,0,0,0-1.8-.67,2.4,2.4,0,0,0-1.87.91,6.34,6.34,0,0,0-1.26,2.62,15.64,15.64,0,0,0-.45,4,11.11,11.11,0,0,0,.45,3.32A5.34,5.34,0,0,0,25,26a2.51,2.51,0,0,0,1.83.79,4.43,4.43,0,0,0,2-.45,9.35,9.35,0,0,0,1.48-.87h.11Z"/>
    </g>
  </g>
</svg>
