<svg width="45.356" height="45.356" version="1.1" viewBox="-12.5 -12.5 23.623 23.623" xmlns="http://www.w3.org/2000/svg"><path d="m-12.166-0.6885c0-6.342 5.14-11.478 11.478-11.478 6.339 0 11.478 5.136 11.478 11.478s-5.14 11.478-11.478 11.478c-6.339 0-11.478-5.136-11.478-11.478z" fill="#fff" stroke="#000" stroke-miterlimit="10" stroke-width=".667"/><path d="m-1.4297 10.419c-3.0139-0.2271-5.7052-1.5704-7.6744-3.8307-1.2753-1.4636-2.1909-3.3711-2.531-5.2734-0.11545-0.64557-0.14972-1.0074-0.16655-1.7581-0.01876-0.83729 0.02035-1.3957 0.15087-2.154 0.74224-4.3126 4.0136-7.8296 8.2656-8.8869 0.94796-0.23567 1.6752-0.32278 2.6912-0.32238 0.81062 3.15e-4 1.3164 0.04404 2.0294 0.17544 3.6549 0.67354 6.7609 3.1644 8.2171 6.589 0.83374 1.9612 1.0854 4.1495 0.72145 6.2744-0.17686 1.0327-0.55146 2.1525-1.0432 3.1187-0.51943 1.0206-1.1425 1.8852-1.9672 2.7298-1.9025 1.9485-4.3857 3.1099-7.1161 3.3281-0.34896 0.02789-1.2626 0.03372-1.5766 0.01006z" stroke-width=".029412"/><text x="-9.8073349" y="5.1994758" fill="#ffffff" font-family="Arial" font-size="16.667px" font-weight="bold" stroke-width=".52083" style="line-height:1.25" xml:space="preserve"><tspan x="-9.8073349" y="5.1994758" fill="#ffffff" font-family="Arial" font-size="16.667px" font-weight="bold" stroke-width=".52083">23</tspan></text></svg>
