<?xml version="1.0" encoding="UTF-8"?>
<svg width="48" height="48" version="1.1" viewBox="-12.5 -12.5 25 25" xmlns="http://www.w3.org/2000/svg">
 <path d="M-11.478 0c0-6.342 5.14-11.478 11.478-11.478 6.339 0 11.478 5.136 11.478 11.478S6.338 11.478 0 11.478c-6.339 0-11.478-5.136-11.478-11.478z" fill="#fff" stroke="#000" stroke-miterlimit="10" stroke-width=".667"/>
 <path transform="matrix(.52083 0 0 .52083 -12.5 -12.5)" d="m22.577 45.326c-5.7867-0.43604-10.954-3.0152-14.735-7.355-2.4486-2.8102-4.2065-6.4725-4.8596-10.125-0.22167-1.2395-0.28747-1.9342-0.31978-3.3755-0.036026-1.6076 0.039067-2.6798 0.28967-4.1358 1.4251-8.2802 7.7061-15.033 15.87-17.063 1.8201-0.45248 3.2164-0.61974 5.1671-0.61898 1.5564 6.054e-4 2.5275 0.084559 3.8965 0.33684 7.0174 1.2932 12.981 6.0756 15.777 12.651 1.6008 3.7656 2.0839 7.967 1.3852 12.047-0.33957 1.9828-1.0588 4.1329-2.003 5.988-0.99732 1.9595-2.1937 3.6197-3.777 5.2412-3.6529 3.7412-8.4206 5.971-13.663 6.39-0.67001 0.05355-2.4243 0.06474-3.0271 0.01932z" fill="#f2f2f2" stroke-width=".056471"/>
 <text x="-10.213579" y="5.9288287" font-family="Cambria" font-size="16.667px" stroke-width=".52083" style="line-height:1.25" xml:space="preserve"><tspan x="-10.213579" y="5.9288287" font-size="18.056px" stroke-width=".52083">29</tspan></text>
</svg>
