<svg width="48" height="48" version="1.1" viewBox="-12.5 -12.5 25 25" xmlns="http://www.w3.org/2000/svg"><path d="M-11.478 0c0-6.342 5.14-11.478 11.478-11.478 6.339 0 11.478 5.136 11.478 11.478S6.338 11.478 0 11.478c-6.339 0-11.478-5.136-11.478-11.478z" fill="#fff" stroke="#000" stroke-miterlimit="10" stroke-width=".667"/><path transform="matrix(.52083 0 0 .52083 -12.5 -12.5)" d="m22.577 45.326c-5.7867-0.43604-10.954-3.0152-14.735-7.355-2.4486-2.8102-4.2065-6.4725-4.8596-10.125-0.22167-1.2395-0.28747-1.9342-0.31978-3.3755-0.036026-1.6076 0.039067-2.6798 0.28967-4.1358 1.4251-8.2802 7.7061-15.033 15.87-17.063 1.8201-0.45248 3.2164-0.61974 5.1671-0.61898 1.5564 6.054e-4 2.5275 0.084559 3.8965 0.33684 7.0174 1.2932 12.981 6.0756 15.777 12.651 1.6008 3.7656 2.0839 7.967 1.3852 12.047-0.33957 1.9828-1.0588 4.1329-2.003 5.988-0.99732 1.9595-2.1937 3.6197-3.777 5.2412-3.6529 3.7412-8.4206 5.971-13.663 6.39-0.67001 0.05355-2.4243 0.06474-3.0271 0.01932z" fill="#ff2a2a" stroke-width=".056471"/><g transform="matrix(.025474 0 0 .025474 -9.5332 -9.3422)"><path d="m674.42 123.51c-0.224-9.759-7.216-18.177-16.982-19.511-45.521-6.252-90.416-17.129-134.43-33.248-43.802-16.042-92.267-38.436-144.54-67.93-6.637-3.747-12.88-3.77-19.51 0-51.911 29.479-100.03 51.826-144.18 67.93-44.024 16.058-88.897 27.004-134.06 33.248-9.767 1.349-16.62 9.752-17.707 19.511-4.332 185.37 36.27 337.04 121.41 454.93 46.384 64.222 104.43 116.35 174.53 156.1 5.419 3.978 13.915 3.677 20.235 0 69.564-40.41 127.53-92.159 173.81-156.1 85.257-117.82 125.53-269.56 121.41-454.93zm-153.94 432.17c-40.225 55.564-90.694 101.9-151.76 139.11-61.069-37.218-111.78-83.378-151.76-139.11-77.458-107.96-115.27-246.08-113.83-414.46 42.637-6.868 84.92-18.432 127.2-33.972 42.275-15.533 88.528-36.856 138.4-63.952 49.868 27.096 95.757 48.419 138.03 63.952 42.275 15.541 84.912 27.104 127.56 33.972 1.442 169.47-36.609 307.78-113.83 414.46z"/><path d="m103.13 141.21 417.35 414.46" fill="none" stroke="#000" stroke-width="1px"/><rect x="61.595" y="211.68" width="614.22" height="275.88" fill="#ccc"/><text x="144.01125" y="319.25385" font-family="sans-serif" font-size="192px" style="line-height:1.25" xml:space="preserve"><tspan x="144.01125" y="319.25385"/></text><text x="218.61949" y="408.61023" font-family="sans-serif" font-size="24px" style="line-height:1.25" xml:space="preserve"><tspan x="218.61949" y="408.61023" fill="#000000" font-family="Constantia" font-size="192px">MR</tspan></text><g fill="#ffe680" stroke-width=".86754"><path d="m140.18 175.88c-31.426-31.433-34.852-35.129-32.962-35.554 1.1599-0.26095 5.6224-1.0948 9.9168-1.853 23.085-4.0759 57.902-12.999 84.585-21.679 49.177-15.996 97.888-37.259 160.06-69.868l6.9403-3.6402 20.821 10.936c79.382 41.693 152.36 68.84 221.68 82.46 8.3393 1.6386 16.884 3.2555 18.988 3.5929l3.8252 0.61353-0.57592 28.746c-0.31674 15.81-0.82594 31.576-1.1315 35.036l-0.55564 6.2896h-456.51z"/><path d="m487.12 520.93-33.546-33.378h53.716c29.544 0 53.716 0.25983 53.716 0.5774 0 1.0631-9.7132 18.825-16.289 29.786-5.252 8.7548-23.492 36.501-23.938 36.415-0.0624-0.012-15.209-15.042-33.659-33.4z"/></g></g></svg>
