<svg version="1.1" id="Layer_1" xmlns="http://www.w3.org/2000/svg" xmlns:xlink="http://www.w3.org/1999/xlink" x="0px" y="0px"
	 width="100%" viewBox="0 0 143 165" enable-background="new 0 0 143 165" xml:space="preserve">
<path fill="#2C2B29" opacity="1.000000" stroke="none"
	d="
M1.000000,105.000000
	C1.000000,70.376343 1.000000,35.752682 1.000000,1.064512
	C48.564449,1.064512 96.129013,1.064512 144.000000,1.064512
	C144.000000,36.020298 144.000000,71.041489 143.624390,106.673996
	C141.197571,112.987808 139.879318,119.102440 136.950272,124.311287
	C129.741119,137.131653 117.508133,144.409012 104.936882,150.987701
	C95.047478,156.162933 84.985382,161.008163 75.000000,166.000000
	C73.611107,166.000000 72.222221,166.000000 70.309616,165.652939
	C57.560253,158.875793 45.167068,152.741211 33.156548,145.931702
	C21.374512,139.251740 11.404699,130.418121 5.490443,117.886597
	C3.559799,113.795807 2.472824,109.306854 1.000000,105.000000
M129.640533,103.772621
	C129.761169,102.616623 129.985413,101.460800 129.987259,100.304611
	C130.030121,73.334030 130.053131,46.363411 130.050430,19.392799
	C130.050354,18.636065 129.728271,17.879362 129.613556,17.374470
	C91.246315,17.374470 53.213985,17.374470 14.982772,17.374470
	C14.982772,42.879505 15.207150,68.011887 14.896441,93.137642
	C14.717464,107.610794 20.045654,119.602348 31.683825,127.440987
	C44.252899,135.906601 58.035839,142.574722 71.347824,149.920853
	C72.146942,150.361862 73.622276,150.189468 74.515602,149.754013
	C84.499649,144.887360 94.638130,140.283447 104.324326,134.873474
	C116.461670,128.094452 126.684975,119.371605 129.640533,103.772621
z"/>
<path fill="#DAE184" opacity="1.000000" stroke="none"
	d="
M129.491089,104.181427
	C126.684975,119.371605 116.461670,128.094452 104.324326,134.873474
	C94.638130,140.283447 84.499649,144.887360 74.515602,149.754013
	C73.622276,150.189468 72.146942,150.361862 71.347824,149.920853
	C58.035839,142.574722 44.252899,135.906601 31.683825,127.440987
	C20.045654,119.602348 14.717464,107.610794 14.896441,93.137642
	C15.207150,68.011887 14.982772,42.879505 14.982772,17.374470
	C53.213985,17.374470 91.246315,17.374470 129.613556,17.374470
	C129.728271,17.879362 130.050354,18.636065 130.050430,19.392799
	C130.053131,46.363411 130.030121,73.334030 129.987259,100.304611
	C129.985413,101.460800 129.761169,102.616623 129.491089,104.181427
M101.461594,48.737511
	C96.763390,45.569782 92.294716,47.125011 89.048592,48.678627
	C88.277687,52.350140 88.153122,55.233517 87.072647,57.697765
	C82.069687,69.108032 76.751663,80.379700 71.660027,91.751846
	C70.247208,94.907372 70.607140,97.737366 74.524330,98.824982
	C78.687263,99.980835 82.499954,97.863350 83.037987,94.239349
	C84.160149,86.680855 84.924324,86.006508 92.368874,86.005997
	C94.868027,86.005821 97.402443,86.271523 99.858269,85.945312
	C103.790924,85.422920 105.674187,86.905762 107.109795,90.662521
	C110.875633,100.517105 116.339531,101.620247 123.615158,95.280106
	C118.647072,84.134399 113.883766,73.220879 108.912033,62.403141
	C106.847824,57.911743 104.338379,53.624966 101.461594,48.737511
M49.607204,57.695312
	C54.499157,57.695312 59.391113,57.695312 64.666992,57.695312
	C69.193161,50.197525 67.068176,45.576675 57.813622,46.220726
	C51.029011,46.692879 43.859348,48.163513 37.807884,51.124016
	C28.491430,55.681812 23.791805,64.149307 24.029367,74.774269
	C24.254063,84.823708 29.040962,92.307198 38.013287,96.681732
	C45.228031,100.199356 53.058159,101.221146 60.858418,99.062202
	C63.424038,98.352089 66.650658,96.300285 67.469513,94.084061
	C68.249619,91.972694 66.284172,88.846893 65.502640,86.085289
	C52.300301,91.164757 42.739872,88.617317 39.154274,79.769012
	C35.472237,70.682716 39.435528,61.732281 49.607204,57.695312
M113.687157,21.949579
	C111.828575,24.653967 109.969994,27.358355 108.195229,29.940781
	C109.878990,31.914066 112.265717,34.711197 114.289192,37.082611
	C116.165833,34.738628 118.399414,31.948797 120.111366,29.810507
	C118.108330,27.076799 116.049370,24.266781 113.687157,21.949579
z"/>
<path fill="#2E2D2B" opacity="1.000000" stroke="none"
	d="
M101.746498,48.991325
	C104.338379,53.624966 106.847824,57.911743 108.912033,62.403141
	C113.883766,73.220879 118.647072,84.134399 123.615158,95.280106
	C116.339531,101.620247 110.875633,100.517105 107.109795,90.662521
	C105.674187,86.905762 103.790924,85.422920 99.858269,85.945312
	C97.402443,86.271523 94.868027,86.005821 92.368874,86.005997
	C84.924324,86.006508 84.160149,86.680855 83.037987,94.239349
	C82.499954,97.863350 78.687263,99.980835 74.524330,98.824982
	C70.607140,97.737366 70.247208,94.907372 71.660027,91.751846
	C76.751663,80.379700 82.069687,69.108032 87.072647,57.697765
	C88.153122,55.233517 88.277687,52.350140 89.048592,48.678627
	C92.294716,47.125011 96.763390,45.569782 101.746498,48.991325
M99.185448,70.361809
	C98.145905,67.854736 97.106361,65.347672 95.661789,61.863785
	C93.406357,67.493904 91.601494,71.999298 89.739517,76.647247
	C93.905708,76.647247 97.424553,76.647247 101.407875,76.647247
	C100.669876,74.477608 100.092407,72.779930 99.185448,70.361809
z"/>
<path fill="#2E2D2B" opacity="1.000000" stroke="none"
	d="
M49.216240,57.811989
	C39.435528,61.732281 35.472237,70.682716 39.154274,79.769012
	C42.739872,88.617317 52.300301,91.164757 65.502640,86.085289
	C66.284172,88.846893 68.249619,91.972694 67.469513,94.084061
	C66.650658,96.300285 63.424038,98.352089 60.858418,99.062202
	C53.058159,101.221146 45.228031,100.199356 38.013287,96.681732
	C29.040962,92.307198 24.254063,84.823708 24.029367,74.774269
	C23.791805,64.149307 28.491430,55.681812 37.807884,51.124016
	C43.859348,48.163513 51.029011,46.692879 57.813622,46.220726
	C67.068176,45.576675 69.193161,50.197525 64.666992,57.695312
	C59.391113,57.695312 54.499157,57.695312 49.216240,57.811989
z"/>
<path fill="#B3CD26" opacity="1.000000" stroke="none"
	d="
M113.838791,21.703171
	C116.049370,24.266781 118.108330,27.076799 120.111366,29.810507
	C118.399414,31.948797 116.165833,34.738628 114.289192,37.082611
	C112.265717,34.711197 109.878990,31.914066 108.195229,29.940781
	C109.969994,27.358355 111.828575,24.653967 113.838791,21.703171
z"/>
<path fill="#D4DB81" opacity="1.000000" stroke="none"
	d="
M99.350189,70.722031
	C100.092407,72.779930 100.669876,74.477608 101.407875,76.647247
	C97.424553,76.647247 93.905708,76.647247 89.739517,76.647247
	C91.601494,71.999298 93.406357,67.493904 95.661789,61.863785
	C97.106361,65.347672 98.145905,67.854736 99.350189,70.722031
z"/>
</svg>
