<svg version="1.1" id="Layer_1" xmlns="http://www.w3.org/2000/svg" xmlns:xlink="http://www.w3.org/1999/xlink" x="0px" y="0px"
	 width="100%" viewBox="0 0 143 165" enable-background="new 0 0 143 165" xml:space="preserve">
<path fill="#2C2B29" opacity="1.000000" stroke="none"
	d="
M1.000000,107.000000
	C1.000000,71.710503 1.000000,36.421001 1.000000,1.065752
	C48.563618,1.065752 96.127350,1.065752 144.000000,1.065752
	C144.000000,35.353611 144.000000,69.708145 143.618729,104.687340
	C142.581726,108.639931 142.246246,112.070717 141.216095,115.278397
	C136.130615,131.113449 123.836845,140.327133 110.148247,147.902420
	C98.623306,154.280350 86.730164,159.992920 75.000000,166.000000
	C73.611107,166.000000 72.222221,166.000000 70.303833,165.647141
	C60.784077,160.980530 51.535622,157.122314 42.880672,152.216934
	C35.184589,147.854980 27.816175,142.745987 20.896915,137.222855
	C11.089946,129.394653 4.130927,119.378510 1.000000,107.000000
M61.757809,145.719604
	C64.612503,147.060760 67.421455,148.516541 70.345695,149.683380
	C71.427109,150.114868 73.028122,150.345779 73.971039,149.856537
	C86.925468,143.135086 100.298691,137.043915 112.564415,129.222458
	C124.449257,121.643867 130.129059,109.772514 130.050659,95.332756
	C129.918625,71.006706 130.020752,46.679398 130.006622,22.352629
	C130.005676,20.734514 129.855026,19.116486 129.764236,17.302931
	C91.388748,17.302931 53.347225,17.302931 15.108644,17.302931
	C15.032375,18.749863 14.920300,19.888702 14.919967,21.027573
	C14.912607,46.187454 14.927298,71.347343 14.915772,96.507217
	C14.910751,107.468559 19.399521,116.392151 27.146370,123.889519
	C36.976604,133.403198 48.922466,139.556000 61.757809,145.719604
z"/>
<path fill="#F6A947" opacity="1.000000" stroke="none"
	d="
M61.428623,145.534576
	C48.922466,139.556000 36.976604,133.403198 27.146370,123.889519
	C19.399521,116.392151 14.910751,107.468559 14.915772,96.507217
	C14.927298,71.347343 14.912607,46.187454 14.919967,21.027573
	C14.920300,19.888702 15.032375,18.749863 15.108644,17.302931
	C53.347225,17.302931 91.388748,17.302931 129.764236,17.302931
	C129.855026,19.116486 130.005676,20.734514 130.006622,22.352629
	C130.020752,46.679398 129.918625,71.006706 130.050659,95.332756
	C130.129059,109.772514 124.449257,121.643867 112.564415,129.222458
	C100.298691,137.043915 86.925468,143.135086 73.971039,149.856537
	C73.028122,150.345779 71.427109,150.114868 70.345695,149.683380
	C67.421455,148.516541 64.612503,147.060760 61.428623,145.534576
M97.995094,66.535629
	C97.683296,75.004822 97.466675,83.479080 97.015305,91.940834
	C96.820442,95.593742 98.161476,97.126007 101.858177,97.043121
	C108.177521,96.901421 114.503792,97.088394 120.824478,96.980721
	C128.074234,96.857224 129.480698,94.362900 126.584892,88.122902
	C120.665764,88.475830 114.973404,88.815239 109.072029,89.167107
	C109.072029,84.317574 109.072029,80.407562 109.072029,75.985481
	C113.286873,75.985481 117.250420,76.162445 121.192009,75.943710
	C127.006187,75.621063 128.402817,72.467094 125.389977,67.669891
	C119.939384,67.669891 114.690376,67.669891 109.328255,67.669891
	C109.328255,64.204086 109.328255,60.964176 109.328255,56.808323
	C115.553764,57.164516 121.414154,57.499821 127.463333,57.845928
	C130.232529,51.739670 129.384918,48.163254 124.353600,48.164616
	C115.289780,48.167065 106.226151,48.905972 97.267517,49.332253
	C97.519150,54.942020 97.757111,60.247040 97.995094,66.535629
M55.464386,54.724678
	C57.149220,49.815147 54.390842,47.819401 50.200661,47.281090
	C41.999489,46.227489 34.287525,47.967163 27.374378,52.502827
	C16.371807,59.721527 12.721152,74.406097 18.996981,85.466690
	C24.988354,96.025948 42.632202,101.662689 53.244633,96.345032
	C56.242840,94.842690 57.707878,92.631165 56.483280,89.029106
	C55.043816,84.795052 52.636082,85.869423 49.549358,87.019363
	C41.143253,90.151024 32.656006,86.364037 29.994343,78.477943
	C28.007511,72.591270 28.433718,66.867058 32.657562,62.084068
	C37.184238,56.958153 43.205345,56.076778 49.565033,57.551640
	C52.142365,58.149345 54.433002,59.166618 55.464386,54.724678
M69.039261,74.462639
	C70.666229,75.613762 72.595406,76.506943 73.849541,77.976288
	C75.744392,80.196289 78.816444,83.112358 78.442398,85.206451
	C77.711769,89.297028 73.332527,89.127808 69.773117,88.930107
	C68.798897,88.875999 67.769859,88.657829 66.890778,88.247551
	C63.676857,86.747574 62.687988,88.760643 62.137962,91.246475
	C61.356537,94.778130 63.569633,97.584778 67.669144,97.920670
	C73.911972,98.432175 79.516869,96.705307 84.106888,92.284904
	C91.062416,85.586395 90.590965,76.721939 82.983253,70.817802
	C81.016983,69.291840 78.674446,68.120338 77.079124,66.286385
	C75.705116,64.706856 73.898041,61.723663 74.520172,60.599709
	C75.486237,58.854412 78.284073,57.997169 80.443932,57.095173
	C81.425911,56.685078 82.846817,56.770420 83.884148,57.143696
	C88.623222,58.848995 89.429184,55.368786 89.872925,52.316502
	C90.386818,48.781574 87.900551,47.192753 84.694519,47.043964
	C78.624214,46.762245 73.230957,48.673462 68.675606,52.720795
	C61.209400,59.354343 61.149044,67.289772 69.039261,74.462639
M108.328514,30.675268
	C110.349747,32.863541 112.370972,35.051811 114.025452,36.843018
	C116.087677,34.416195 118.267311,31.851196 120.446945,29.286200
	C120.075462,29.915287 119.703979,30.544374 119.332489,31.173462
	C117.218483,28.564337 115.104477,25.955214 113.134590,23.523964
	C111.718048,25.337069 109.758255,27.845499 108.328514,30.675268
z"/>
<path fill="#2E2C29" opacity="1.000000" stroke="none"
	d="
M97.995087,66.043839
	C97.757111,60.247040 97.519150,54.942020 97.267517,49.332253
	C106.226151,48.905972 115.289780,48.167065 124.353600,48.164616
	C129.384918,48.163254 130.232529,51.739670 127.463333,57.845928
	C121.414154,57.499821 115.553764,57.164516 109.328255,56.808323
	C109.328255,60.964176 109.328255,64.204086 109.328255,67.669891
	C114.690376,67.669891 119.939384,67.669891 125.389977,67.669891
	C128.402817,72.467094 127.006187,75.621063 121.192009,75.943710
	C117.250420,76.162445 113.286873,75.985481 109.072029,75.985481
	C109.072029,80.407562 109.072029,84.317574 109.072029,89.167107
	C114.973404,88.815239 120.665764,88.475830 126.584892,88.122902
	C129.480698,94.362900 128.074234,96.857224 120.824478,96.980721
	C114.503792,97.088394 108.177521,96.901421 101.858177,97.043121
	C98.161476,97.126007 96.820442,95.593742 97.015305,91.940834
	C97.466675,83.479080 97.683296,75.004822 97.995087,66.043839
z"/>
<path fill="#2E2C29" opacity="1.000000" stroke="none"
	d="
M55.318817,55.075714
	C54.433002,59.166618 52.142365,58.149345 49.565033,57.551640
	C43.205345,56.076778 37.184238,56.958153 32.657562,62.084068
	C28.433718,66.867058 28.007511,72.591270 29.994343,78.477943
	C32.656006,86.364037 41.143253,90.151024 49.549358,87.019363
	C52.636082,85.869423 55.043816,84.795052 56.483280,89.029106
	C57.707878,92.631165 56.242840,94.842690 53.244633,96.345032
	C42.632202,101.662689 24.988354,96.025948 18.996981,85.466690
	C12.721152,74.406097 16.371807,59.721527 27.374378,52.502827
	C34.287525,47.967163 41.999489,46.227489 50.200661,47.281090
	C54.390842,47.819401 57.149220,49.815147 55.318817,55.075714
z"/>
<path fill="#2F2D2A" opacity="1.000000" stroke="none"
	d="
M68.746170,74.251511
	C61.149044,67.289772 61.209400,59.354343 68.675606,52.720795
	C73.230957,48.673462 78.624214,46.762245 84.694519,47.043964
	C87.900551,47.192753 90.386818,48.781574 89.872925,52.316502
	C89.429184,55.368786 88.623222,58.848995 83.884148,57.143696
	C82.846817,56.770420 81.425911,56.685078 80.443932,57.095173
	C78.284073,57.997169 75.486237,58.854412 74.520172,60.599709
	C73.898041,61.723663 75.705116,64.706856 77.079124,66.286385
	C78.674446,68.120338 81.016983,69.291840 82.983253,70.817802
	C90.590965,76.721939 91.062416,85.586395 84.106888,92.284904
	C79.516869,96.705307 73.911972,98.432175 67.669144,97.920670
	C63.569633,97.584778 61.356537,94.778130 62.137962,91.246475
	C62.687988,88.760643 63.676857,86.747574 66.890778,88.247551
	C67.769859,88.657829 68.798897,88.875999 69.773117,88.930107
	C73.332527,89.127808 77.711769,89.297028 78.442398,85.206451
	C78.816444,83.112358 75.744392,80.196289 73.849541,77.976288
	C72.595406,76.506943 70.666229,75.613762 68.746170,74.251511
z"/>
<path fill="#FFF2AA" opacity="1.000000" stroke="none"
	d="
M108.063492,30.514599
	C109.758255,27.845499 111.718048,25.337069 113.134590,23.523964
	C115.104477,25.955214 117.218483,28.564337 119.332489,31.173462
	C119.703979,30.544374 120.075462,29.915287 120.446945,29.286200
	C118.267311,31.851196 116.087677,34.416195 114.025452,36.843018
	C112.370972,35.051811 110.349747,32.863541 108.063492,30.514599
z"/>
</svg>
