<svg version="1.1" id="Layer_1" xmlns="http://www.w3.org/2000/svg" xmlns:xlink="http://www.w3.org/1999/xlink" x="0px" y="0px"
	 width="100%" viewBox="0 0 142 165" enable-background="new 0 0 142 165" xml:space="preserve">
<path fill="#2C2B2A" opacity="1.000000" stroke="none"
	d="
M1.000000,107.000000
	C1.000000,71.710014 1.000000,36.420021 1.000000,1.065016
	C48.231846,1.065016 95.463806,1.065016 143.000000,1.065016
	C143.000000,37.020325 143.000000,73.041504 142.633835,109.668350
	C139.546371,123.903923 131.225769,133.966904 119.926765,140.798935
	C104.752930,149.973969 88.684441,157.669403 73.000000,166.000000
	C72.555557,166.000000 72.111107,166.000000 71.226181,165.653015
	C59.433186,159.632217 47.877209,154.322983 36.805973,148.145096
	C30.368267,144.552765 24.458813,139.867615 18.755747,135.138626
	C9.845770,127.750481 4.424765,117.955307 1.000000,107.000000
M22.596203,16.268358
	C20.148376,16.268358 17.700550,16.268358 14.799603,16.268358
	C14.799603,18.530107 14.799599,20.165230 14.799603,21.800350
	C14.799676,45.465874 15.136352,69.137840 14.683826,92.794701
	C14.371869,109.103043 21.570740,121.225319 34.573521,129.596695
	C45.958565,136.926544 58.349545,142.701859 70.370895,149.021713
	C71.430206,149.578629 73.263748,149.536011 74.365562,149.002823
	C84.512291,144.092636 94.679169,139.206223 104.643005,133.939835
	C122.321228,124.596024 130.797531,110.169327 130.147583,89.758949
	C129.431885,67.282822 129.984360,44.766319 129.984344,22.267406
	C129.984344,20.486506 129.984329,18.705605 129.984329,16.268444
	C94.132462,16.268444 58.851601,16.268444 22.596203,16.268358
z"/>
<path fill="#F3B1B5" opacity="1.000000" stroke="none"
	d="
M23.083473,16.268402
	C58.851601,16.268444 94.132462,16.268444 129.984329,16.268444
	C129.984329,18.705605 129.984344,20.486506 129.984344,22.267406
	C129.984360,44.766319 129.431885,67.282822 130.147583,89.758949
	C130.797531,110.169327 122.321228,124.596024 104.643005,133.939835
	C94.679169,139.206223 84.512291,144.092636 74.365562,149.002823
	C73.263748,149.536011 71.430206,149.578629 70.370895,149.021713
	C58.349545,142.701859 45.958565,136.926544 34.573521,129.596695
	C21.570740,121.225319 14.371869,109.103043 14.683826,92.794701
	C15.136352,69.137840 14.799676,45.465874 14.799603,21.800350
	C14.799599,20.165230 14.799603,18.530107 14.799603,16.268358
	C17.700550,16.268358 20.148376,16.268358 23.083473,16.268402
M30.110117,85.471550
	C30.385958,79.827477 30.661798,74.183403 30.937641,68.539330
	C32.234390,69.366974 32.674675,70.222084 33.086960,71.090500
	C36.080353,77.395607 38.928120,83.775070 42.107681,89.984703
	C44.169094,94.010612 47.276283,93.998199 49.621071,90.188171
	C50.398403,88.925087 50.888390,87.486588 51.526997,86.136452
	C54.309422,80.253838 57.098186,74.374222 59.884655,68.493523
	C61.118969,75.554413 61.575176,82.295921 61.908463,89.043518
	C62.099552,92.912170 64.178368,94.480461 67.791397,93.943832
	C70.032478,93.610970 72.199150,92.777115 74.669319,92.093384
	C70.413857,78.883400 68.334435,65.937622 71.335068,52.685246
	C64.298355,48.267349 60.540192,49.162163 56.686886,56.242393
	C54.942616,59.447388 53.455090,62.792088 51.850250,66.072990
	C50.152195,69.544449 48.453136,73.015419 46.299210,77.417046
	C44.830101,74.744019 43.916512,73.206902 43.120686,71.611061
	C40.377098,66.109428 37.898808,60.461666 34.897610,55.105961
	C31.436659,48.929821 26.033989,48.290703 21.100929,52.591663
	C23.179279,66.165001 21.494551,78.988121 17.472324,91.560303
	C26.266708,96.164589 29.515722,94.783440 30.110117,85.471550
M124.989319,54.951340
	C123.121841,49.175705 119.532692,48.390446 111.906487,52.048489
	C112.337143,56.898773 112.767349,61.743977 113.200493,66.622200
	C106.372475,66.622200 100.327621,66.622200 94.087273,66.622200
	C94.409241,63.261230 94.790977,60.295273 94.958092,57.317272
	C95.293877,51.333992 92.674110,49.061722 86.735756,50.201267
	C85.006821,50.533051 83.349007,51.235493 82.003197,51.659466
	C82.358917,57.338089 82.961754,62.438511 82.927238,67.534615
	C82.882256,74.175491 82.209984,80.809799 82.038208,87.452888
	C81.905968,92.567253 84.059669,94.501694 89.075577,93.936325
	C91.155998,93.701836 93.176552,92.936325 95.080902,92.449005
	C94.620018,86.444923 94.196579,80.928680 93.770714,75.380760
	C100.622833,75.380760 106.672211,75.380760 112.913933,75.380760
	C112.591621,79.575706 112.186264,83.375053 112.034431,87.184509
	C111.823196,92.484627 114.097931,94.632568 119.303535,93.925087
	C121.503059,93.626160 123.618881,92.711380 125.727089,92.089996
	C122.734344,79.665184 124.161690,67.742462 124.989319,54.951340
M111.831680,33.692364
	C112.530457,34.666336 113.229233,35.640305 113.841660,36.493927
	C115.870239,33.803051 117.616875,31.486158 119.416832,29.098539
	C117.718567,26.974360 115.921776,24.726936 113.992332,22.313604
	C112.049957,24.722258 110.243080,26.962879 108.281235,29.395672
	C109.333496,30.623228 110.393578,31.859917 111.831680,33.692364
z"/>
<path fill="#2F2D2C" opacity="1.000000" stroke="none"
	d="
M30.081455,85.916542
	C29.515722,94.783440 26.266708,96.164589 17.472324,91.560303
	C21.494551,78.988121 23.179279,66.165001 21.100929,52.591663
	C26.033989,48.290703 31.436659,48.929821 34.897610,55.105961
	C37.898808,60.461666 40.377098,66.109428 43.120686,71.611061
	C43.916512,73.206902 44.830101,74.744019 46.299210,77.417046
	C48.453136,73.015419 50.152195,69.544449 51.850250,66.072990
	C53.455090,62.792088 54.942616,59.447388 56.686886,56.242393
	C60.540192,49.162163 64.298355,48.267349 71.335068,52.685246
	C68.334435,65.937622 70.413857,78.883400 74.669319,92.093384
	C72.199150,92.777115 70.032478,93.610970 67.791397,93.943832
	C64.178368,94.480461 62.099552,92.912170 61.908463,89.043518
	C61.575176,82.295921 61.118969,75.554413 59.884655,68.493523
	C57.098186,74.374222 54.309422,80.253838 51.526997,86.136452
	C50.888390,87.486588 50.398403,88.925087 49.621071,90.188171
	C47.276283,93.998199 44.169094,94.010612 42.107681,89.984703
	C38.928120,83.775070 36.080353,77.395607 33.086960,71.090500
	C32.674675,70.222084 32.234390,69.366974 30.937641,68.539330
	C30.661798,74.183403 30.385958,79.827477 30.081455,85.916542
z"/>
<path fill="#2E2C2B" opacity="1.000000" stroke="none"
	d="
M124.994537,55.390465
	C124.161690,67.742462 122.734344,79.665184 125.727089,92.089996
	C123.618881,92.711380 121.503059,93.626160 119.303535,93.925087
	C114.097931,94.632568 111.823196,92.484627 112.034431,87.184509
	C112.186264,83.375053 112.591621,79.575706 112.913933,75.380760
	C106.672211,75.380760 100.622833,75.380760 93.770714,75.380760
	C94.196579,80.928680 94.620018,86.444923 95.080902,92.449005
	C93.176552,92.936325 91.155998,93.701836 89.075577,93.936325
	C84.059669,94.501694 81.905968,92.567253 82.038208,87.452888
	C82.209984,80.809799 82.882256,74.175491 82.927238,67.534615
	C82.961754,62.438511 82.358917,57.338089 82.003197,51.659466
	C83.349007,51.235493 85.006821,50.533051 86.735756,50.201267
	C92.674110,49.061722 95.293877,51.333992 94.958092,57.317272
	C94.790977,60.295273 94.409241,63.261230 94.087273,66.622200
	C100.327621,66.622200 106.372475,66.622200 113.200493,66.622200
	C112.767349,61.743977 112.337143,56.898773 111.906487,52.048489
	C119.532692,48.390446 123.121841,49.175705 124.994537,55.390465
z"/>
<path fill="#FBD6C9" opacity="1.000000" stroke="none"
	d="
M111.642670,33.394485
	C110.393578,31.859917 109.333496,30.623228 108.281235,29.395672
	C110.243080,26.962879 112.049957,24.722258 113.992332,22.313604
	C115.921776,24.726936 117.718567,26.974360 119.416832,29.098539
	C117.616875,31.486158 115.870239,33.803051 113.841660,36.493927
	C113.229233,35.640305 112.530457,34.666336 111.642670,33.394485
z"/>
</svg>
