<?xml version="1.0" encoding="UTF-8"?>
<!DOCTYPE svg PUBLIC "-//W3C//DTD SVG 1.1//EN" "http://www.w3.org/Graphics/SVG/1.1/DTD/svg11.dtd">
<!-- Creator: CorelDRAW Home & Student X7 -->
<svg xmlns="http://www.w3.org/2000/svg" xml:space="preserve" width="17.0324mm" height="15.7681mm" version="1.1" style="shape-rendering:geometricPrecision; text-rendering:geometricPrecision; image-rendering:optimizeQuality; fill-rule:evenodd; clip-rule:evenodd"
viewBox="0 0 308 285"
 xmlns:xlink="http://www.w3.org/1999/xlink">
 <defs>
  <style type="text/css">
   <![CDATA[
    .fil0 {fill:#A2D9F7}
    .fil1 {fill:#2B2A29;fill-rule:nonzero}
    .fil2 {fill:black;fill-rule:nonzero}
   ]]>
  </style>
 </defs>
 <g id="Ebene_x0020_1">
  <metadata id="CorelCorpID_0Corel-Layer"/>
  <path class="fil0" d="M32 14c41,0 81,0 119,0 38,0 77,0 118,0 0,7 1,13 5,18 4,6 10,8 18,9 -2,23 -6,46 -13,70 -6,24 -16,47 -27,68 -12,21 -26,40 -42,57 -17,16 -36,28 -57,35 -48,-21 -82,-51 -102,-91 -21,-40 -33,-87 -37,-139 5,0 10,-4 14,-10 3,-7 5,-13 4,-17z"/>
  <path class="fil1" d="M20 0c46,0 90,0 132,0 42,0 86,0 132,0 -1,8 1,14 5,20 5,6 11,9 19,10 -1,25 -6,51 -13,77 -8,27 -18,52 -31,76 -13,24 -28,45 -47,63 -18,18 -39,31 -62,39 -53,-23 -91,-56 -114,-101 -23,-45 -37,-96 -41,-154 6,0 11,-4 15,-12 5,-7 6,-13 5,-18zm31 29c1,4 -1,9 -4,15 -4,6 -8,9 -12,9 3,46 14,86 32,121 18,36 47,62 89,80 36,-13 65,-39 85,-81 20,-41 32,-81 34,-120 -13,-2 -20,-10 -19,-24 -35,0 -69,0 -103,0 -33,0 -67,0 -102,0zm3 21c3,0 5,2 5,4 0,3 -2,5 -5,5 -2,0 -3,-2 -3,-5 0,-2 1,-4 3,-4zm201 0c3,0 5,2 5,4 0,3 -2,5 -5,5 -2,0 -3,-2 -3,-5 0,-2 1,-4 3,-4zm-98 179c2,0 3,2 3,5 0,2 -1,3 -3,3 -3,0 -5,-1 -5,-3 0,-3 2,-5 5,-5z"/>
  <path class="fil2" d="M186 151c-3,2 -6,3 -9,4 -2,0 -5,1 -7,1 -2,0 -4,0 -5,-1 -1,-1 -2,-2 -3,-4 -1,-2 -1,-10 -2,-25 0,-9 0,-16 -1,-22 -4,8 -8,17 -13,27 -5,10 -7,16 -8,17 -1,2 -2,3 -3,4 -2,1 -3,1 -4,1 -2,0 -3,0 -4,-1 -1,-1 -2,-2 -3,-3 -1,-1 -3,-7 -8,-17 -5,-10 -9,-19 -14,-28 0,6 0,15 -1,24 0,14 -1,22 -2,23 0,2 -1,3 -2,4 -2,0 -3,1 -5,1 -3,0 -5,-1 -7,-1 -3,-1 -6,-3 -9,-4 3,-7 6,-15 7,-25 1,-10 2,-22 2,-36 0,-2 0,-4 0,-6 -1,-2 -2,-4 -2,-6 2,-2 4,-3 6,-4 2,-1 5,-1 7,-1 4,0 7,1 9,3 3,2 6,8 10,16 2,3 3,6 5,11 7,13 11,20 11,20 1,0 4,-5 9,-16 3,-6 6,-11 7,-15 4,-8 7,-13 10,-15 2,-3 5,-4 9,-4 2,0 5,1 7,1 2,1 5,3 7,4 -1,2 -2,5 -2,8 -1,3 -1,7 -1,12 0,11 1,20 2,30 2,9 4,16 7,23z"/>
  <path id="1" class="fil2" d="M196 138c2,1 4,2 6,2 2,1 4,1 6,1 4,0 7,-1 9,-2 2,-2 3,-4 3,-6 0,-3 -3,-7 -10,-11 0,0 0,-1 -1,-1 -6,-4 -10,-8 -12,-10 -2,-3 -3,-6 -3,-10 0,-3 1,-6 2,-9 1,-3 3,-6 6,-9 3,-3 7,-6 12,-8 5,-2 10,-2 15,-2 3,0 6,0 7,2 2,1 3,3 3,5 0,2 0,4 -1,5 -1,2 -2,4 -3,6 -2,-1 -3,-1 -5,-1 -2,-1 -3,-1 -5,-1 -4,0 -7,1 -9,2 -3,2 -4,3 -4,6 0,3 4,7 11,12 1,0 2,1 2,1 5,3 8,6 10,9 2,3 3,6 3,10 0,4 -1,7 -2,10 -2,3 -4,6 -7,9 -3,3 -7,5 -11,7 -4,1 -9,2 -13,2 -4,0 -7,-1 -10,-2 -2,-2 -3,-4 -3,-7 0,-2 1,-4 1,-5 1,-2 2,-4 3,-5z"/>
 </g>
</svg>
