<?xml version="1.0" encoding="UTF-8"?>
<!DOCTYPE svg PUBLIC "-//W3C//DTD SVG 1.1//EN" "http://www.w3.org/Graphics/SVG/1.1/DTD/svg11.dtd">
<!-- Creator: CorelDRAW Home & Student X7 -->
<svg xmlns="http://www.w3.org/2000/svg" xml:space="preserve" width="17.0324mm" height="15.7681mm" version="1.1" style="shape-rendering:geometricPrecision; text-rendering:geometricPrecision; image-rendering:optimizeQuality; fill-rule:evenodd; clip-rule:evenodd"
viewBox="0 0 308 285"
 xmlns:xlink="http://www.w3.org/1999/xlink">
 <defs>
  <style type="text/css">
   <![CDATA[
    .fil0 {fill:#9D9E9E}
    .fil1 {fill:#2B2A29;fill-rule:nonzero}
    .fil2 {fill:black;fill-rule:nonzero}
   ]]>
  </style>
 </defs>
 <g id="Ebene_x0020_1">
  <metadata id="CorelCorpID_0Corel-Layer"/>
  <path class="fil0" d="M32 14c41,0 81,0 119,0 38,0 77,0 118,0 0,7 1,13 5,18 4,6 10,8 18,9 -2,23 -6,46 -13,70 -6,24 -16,47 -27,68 -12,21 -26,40 -42,57 -17,16 -36,28 -57,35 -48,-21 -82,-51 -102,-91 -21,-40 -33,-87 -37,-139 5,0 10,-4 14,-10 3,-7 5,-13 4,-17z"/>
  <path class="fil1" d="M20 0c46,0 90,0 132,0 42,0 86,0 132,0 -1,8 1,14 5,20 5,6 11,9 19,10 -1,25 -6,51 -13,77 -8,27 -18,52 -31,76 -13,24 -28,45 -47,63 -18,18 -39,31 -62,39 -53,-23 -91,-56 -114,-101 -23,-45 -37,-96 -41,-154 6,0 11,-4 15,-12 5,-7 6,-13 5,-18zm31 29c1,4 -1,9 -4,15 -4,6 -8,9 -12,9 3,46 14,86 32,121 18,36 47,62 89,80 36,-13 65,-39 85,-81 20,-41 32,-81 34,-120 -13,-2 -20,-10 -19,-24 -35,0 -69,0 -103,0 -33,0 -67,0 -102,0zm3 21c3,0 5,2 5,4 0,3 -2,5 -5,5 -2,0 -3,-2 -3,-5 0,-2 1,-4 3,-4zm201 0c3,0 5,2 5,4 0,3 -2,5 -5,5 -2,0 -3,-2 -3,-5 0,-2 1,-4 3,-4zm-98 179c2,0 3,2 3,5 0,2 -1,3 -3,3 -3,0 -5,-1 -5,-3 0,-3 2,-5 5,-5z"/>
  <path class="fil2" d="M177 151c-3,2 -6,3 -9,4 -2,1 -5,1 -7,1 -2,0 -4,0 -5,-1 -2,0 -3,-2 -3,-3 -1,-2 -2,-11 -2,-25 0,-9 -1,-17 -1,-22 -4,8 -9,17 -13,27 -5,10 -8,16 -9,17 0,1 -2,3 -3,3 -1,1 -2,2 -3,2 -2,0 -3,-1 -4,-1 -1,-1 -2,-2 -3,-4 -1,-1 -4,-7 -8,-17 -5,-10 -10,-19 -14,-27 0,6 -1,14 -1,24 0,13 -1,21 -2,23 -1,2 -1,3 -3,3 -1,1 -2,1 -5,1 -2,0 -4,0 -7,-1 -2,-1 -5,-2 -8,-4 3,-6 5,-15 7,-25 1,-10 2,-22 2,-35 0,-2 0,-5 -1,-7 0,-2 -1,-4 -2,-5 2,-2 5,-3 7,-4 2,-1 4,-1 7,-1 4,0 7,1 9,3 3,2 6,7 10,16 1,2 3,6 5,10 7,14 10,21 11,21 1,0 4,-6 9,-17 3,-6 5,-11 7,-15 4,-7 7,-12 10,-15 2,-2 5,-3 9,-3 2,0 5,0 7,1 2,1 5,2 7,4 -1,2 -2,4 -3,7 0,3 0,7 0,13 0,10 0,20 2,29 1,9 4,17 7,23z"/>
  <path id="1" class="fil2" d="M245 138c1,2 2,3 2,5 1,2 1,3 1,4 0,4 -1,6 -3,7 -2,2 -6,2 -11,2 -5,0 -11,0 -19,-1 -8,0 -13,0 -16,0 -2,0 -4,0 -6,0 -1,0 -3,1 -5,1 -1,-1 -2,-3 -3,-4 -1,-2 -1,-3 -1,-5 0,-2 0,-3 1,-5 0,-2 1,-4 2,-5 2,-4 6,-9 11,-14 5,-6 8,-10 10,-13 3,-4 6,-8 8,-12 2,-3 3,-5 3,-6 0,-1 -1,-1 -2,-2 -2,0 -5,0 -9,0 -4,0 -8,0 -12,0 -3,1 -5,2 -8,3 0,-2 -1,-4 -2,-6 0,-2 0,-3 0,-4 0,-3 1,-5 3,-6 2,-2 5,-2 10,-2 2,0 6,0 13,0 6,0 12,0 17,0 2,0 5,0 7,0 2,0 4,0 6,0 1,1 2,3 3,4 1,2 1,3 1,5 0,4 -5,13 -15,25 -5,6 -9,11 -11,15 -4,4 -6,7 -8,10 -1,3 -2,4 -2,5 0,1 1,1 2,2 1,0 3,0 6,0 7,0 13,0 17,-1 5,0 8,-1 10,-2z"/>
 </g>
</svg>
