<svg version="1.1" id="Layer_1" xmlns="http://www.w3.org/2000/svg" xmlns:xlink="http://www.w3.org/1999/xlink" x="0px" y="0px"
	 width="100%" viewBox="0 0 214 246" enable-background="new 0 0 214 246" xml:space="preserve">
<path fill="#A979B2" opacity="1.000000" stroke="none"
	d="
M1.000001,152.000000
	C1.000000,148.969406 1.000000,145.938812 1.291206,142.404526
	C1.388275,141.600555 1.194138,141.300278 1.000000,141.000000
	C1.000000,94.418190 1.000000,47.836380 1.000000,1.000000
	C34.353794,1.000000 67.708237,1.000000 101.337021,1.288623
	C101.707603,1.788300 101.803841,1.999354 101.908745,2.663497
	C102.219994,28.453444 102.522568,53.790302 102.550026,78.917801
	C97.226524,73.535492 94.112022,73.655655 86.206207,79.212875
	C85.713928,78.925568 85.410599,78.830460 84.902008,78.512741
	C82.130928,77.136429 79.557907,75.223572 76.942230,75.163361
	C70.142097,75.006813 63.324760,75.701973 56.511082,75.978058
	C53.746334,76.090080 50.973263,75.996544 48.121201,75.996544
	C48.435608,81.751518 49.002506,86.888741 48.937138,92.017914
	C48.799335,102.830132 48.366306,113.639435 47.976768,124.447128
	C47.849678,127.973251 48.274376,131.130676 51.956413,133.281281
	C57.419518,138.452957 62.483212,135.166840 67.248924,133.759338
	C66.679337,126.245872 66.157310,119.359833 65.596581,111.963264
	C67.990814,111.963264 69.603127,111.974586 71.215218,111.960815
	C74.208572,111.935249 77.389481,112.501846 80.131050,111.653915
	C82.053238,111.059410 84.233658,108.731651 84.695778,106.795372
	C85.067017,105.239914 83.032341,103.110237 81.905701,100.895096
	C80.739906,99.873734 79.749451,98.637596 78.724709,98.608498
	C74.492165,98.488312 70.249245,98.733833 66.014008,98.404297
	C66.017883,95.193527 66.017883,92.423439 66.017883,88.735451
	C73.171196,89.189430 79.508057,89.591591 86.439178,90.031464
	C86.946625,87.944733 87.563492,85.408012 88.454834,83.077316
	C93.550629,95.096024 98.371941,106.908730 103.150177,119.205673
	C103.479706,159.615509 103.852303,199.541092 103.859589,239.333694
	C81.514641,228.970749 59.404202,218.989883 39.406437,205.031586
	C38.475960,204.382126 37.101990,204.368027 35.964928,204.031311
	C35.995281,204.004623 35.962875,204.078690 36.071354,203.716827
	C35.760349,203.248962 35.340866,203.142960 34.955605,203.023636
	C34.989826,203.010315 34.964832,203.079376 35.058697,202.738953
	C34.741783,202.272293 34.331009,202.146072 33.955406,202.015152
	C33.990582,202.010468 33.986687,202.081329 33.998772,201.757141
	C33.630394,201.288605 33.249935,201.144272 32.556686,200.890015
	C27.649570,196.175247 22.990681,191.632660 18.476690,186.950378
	C12.351642,180.596985 7.828100,173.328430 5.538109,164.669464
	C4.395356,160.348465 2.535496,156.217133 1.000001,152.000000
M38.641048,77.414246
	C36.730633,76.279137 34.864674,74.257523 32.902275,74.159119
	C23.326687,73.678970 15.284914,77.148834 9.772659,85.207825
	C5.201380,91.891090 6.072445,98.860817 12.032393,104.416039
	C15.269592,107.433388 19.061832,109.858070 22.273182,112.899132
	C23.830061,114.373451 26.016596,117.411369 25.473461,118.404594
	C24.387947,120.389656 21.730562,122.420830 19.517729,122.678848
	C15.883599,123.102585 12.086592,122.129410 8.150141,121.723816
	C4.667685,127.114632 5.039186,129.948944 10.195623,134.204605
	C11.569570,135.057556 12.839109,136.295807 14.334389,136.701019
	C24.117764,139.352142 37.008667,132.308044 40.076130,122.663261
	C41.527203,118.100784 42.028080,113.560196 37.703232,109.234909
	C32.759819,104.813065 27.816402,100.391212 22.987524,95.212395
	C24.275639,90.026878 27.817581,88.034996 34.958664,89.220032
	C37.939304,89.714645 40.000580,89.864571 41.102413,86.505112
	C42.197975,83.164787 43.026161,80.055511 38.641048,77.414246
M55.625271,168.705750
	C55.006027,166.822159 54.386784,164.938583 53.382107,161.882584
	C52.449364,171.256332 48.281277,176.706833 39.128090,179.595673
	C48.451469,180.985016 51.111229,187.420624 53.949608,194.074402
	C56.130692,186.860321 59.632587,181.324249 68.314896,179.479874
	C61.829967,177.578232 57.703690,174.800430 55.625271,168.705750
z"/>
<path fill="#2D2B2A" opacity="1.000000" stroke="none"
	d="
M215.000000,158.531342
	C213.349625,164.595459 211.896530,170.258423 210.009888,175.773041
	C205.374588,189.321869 196.260803,199.447830 185.079193,208.013504
	C163.486633,224.554489 138.012543,233.871658 114.106949,246.653076
	C112.611107,247.000000 111.222221,247.000000 109.416664,247.000000
	C96.949409,240.994705 84.546410,235.593231 72.943268,228.821274
	C60.298576,221.441406 48.395664,212.790573 36.051971,204.375916
	C37.101990,204.368027 38.475960,204.382126 39.406437,205.031586
	C59.404202,218.989883 81.514641,228.970749 104.114204,239.407532
	C109.539658,237.355209 114.433113,235.264282 119.135056,232.806946
	C136.772629,223.589218 154.888489,215.133514 171.817307,204.749268
	C196.211807,189.785538 208.018524,167.516037 207.332657,138.329681
	C206.625656,108.243797 207.197266,78.127869 207.455841,47.691040
	C207.814468,33.863365 207.926727,20.369740 208.470734,6.930866
	C210.934982,6.990414 212.967484,6.995207 215.000000,7.000000
	C215.000000,57.354229 215.000000,107.708458 215.000000,158.531342
z"/>
<path fill="#423A33" opacity="1.000000" stroke="none"
	d="
M208.038971,6.876111
	C207.926727,20.369740 207.814468,33.863365 207.372284,47.226944
	C207.042358,32.203018 207.042358,17.309143 207.042358,2.631077
	C206.133469,2.298792 205.836487,2.094962 205.539673,2.095208
	C170.993134,2.123780 136.446609,2.167504 101.900078,2.210409
	C101.803841,1.999354 101.707603,1.788300 101.805679,1.288623
	C137.020889,1.000000 172.041794,1.000000 207.539368,1.420619
	C208.023682,3.519529 208.031326,5.197820 208.038971,6.876111
z"/>
<path fill="#342F33" opacity="1.000000" stroke="none"
	d="
M1.000000,141.250000
	C1.194138,141.300278 1.388275,141.600555 1.291206,141.950409
	C1.000000,142.000000 1.000000,141.500000 1.000000,141.250000
z"/>
<path fill="#FDCB0A" opacity="1.000000" stroke="none"
	d="
M101.908745,2.663497
	C136.446609,2.167504 170.993134,2.123780 205.539673,2.095208
	C205.836487,2.094962 206.133469,2.298792 207.042358,2.631077
	C207.042358,17.309143 207.042358,32.203018 207.125916,47.560989
	C207.197266,78.127869 206.625656,108.243797 207.332657,138.329681
	C208.018524,167.516037 196.211807,189.785538 171.817307,204.749268
	C154.888489,215.133514 136.772629,223.589218 119.135056,232.806946
	C114.433113,235.264282 109.539658,237.355209 104.479507,239.540512
	C103.852303,199.541092 103.479706,159.615509 103.412971,119.445099
	C106.826614,124.073914 109.934387,128.947556 113.193604,134.150299
	C117.784828,137.847610 119.997658,137.853531 123.564903,133.911163
	C125.781151,131.461868 127.677986,128.691513 129.496017,125.919548
	C136.797806,114.786369 143.784546,103.457100 146.511719,90.179169
	C147.324768,86.220596 148.279175,81.861046 143.622757,78.716942
	C139.528107,74.088783 136.183060,73.801750 129.350861,77.234962
	C131.573486,89.828224 124.413612,112.015320 116.672813,115.935143
	C116.088478,114.652748 115.506630,113.375809 115.109009,111.839554
	C112.240303,102.212234 109.237610,92.827118 106.061646,83.501015
	C105.720070,82.498001 104.371239,81.838005 103.345055,80.809196
	C103.075363,80.108719 102.950256,79.617943 102.825150,79.127159
	C102.522568,53.790302 102.219994,28.453444 101.908745,2.663497
M189.074432,133.579849
	C194.043228,137.292786 198.082550,136.731262 204.558075,131.145081
	C203.720795,130.247757 202.895615,129.363388 201.618423,128.003510
	C197.387558,119.032860 193.156693,110.062210 189.271088,100.566795
	C186.868652,95.397255 184.466232,90.227715 181.902832,84.359459
	C175.923752,74.050369 170.402222,72.307808 163.148849,77.158691
	C162.364380,81.022202 162.319290,83.919785 161.198929,86.314247
	C155.313858,98.892075 149.121414,111.325676 143.116287,123.848000
	C141.358704,127.513023 141.236679,130.933731 145.889801,133.787079
	C148.847443,137.200119 152.395462,135.868729 155.999664,135.249481
	C159.709381,134.612091 158.732758,131.721313 159.271225,129.496490
	C160.908783,122.730537 161.860779,122.022743 169.021179,121.999359
	C173.170670,121.985809 177.319962,121.908798 181.868469,122.399765
	C184.151215,125.895149 186.433960,129.390549 189.074432,133.579849
M171.719055,19.041512
	C169.205032,23.469639 167.442642,28.656410 163.959991,32.106895
	C160.651566,35.384781 155.543716,36.846481 151.717590,38.849941
	C165.740341,40.979897 170.779602,51.709141 173.405457,64.777885
	C176.165207,52.702488 180.433426,42.086208 194.164230,38.574341
	C180.822815,35.035805 175.904877,25.250883 173.071869,13.508568
	C172.686218,15.100725 172.300552,16.692883 171.719055,19.041512
z"/>
<path fill="#2E2C2A" opacity="1.000000" stroke="none"
	d="
M113.042160,133.821198
	C109.934387,128.947556 106.826614,124.073914 103.456047,118.960846
	C98.371941,106.908730 93.550629,95.096024 88.332497,82.767166
	C87.431061,81.274025 86.926430,80.297043 86.421799,79.320068
	C94.112022,73.655655 97.226524,73.535492 102.550034,78.917801
	C102.950256,79.617943 103.075363,80.108719 103.481705,81.189262
	C106.171440,89.118469 108.479965,96.493019 111.038177,103.779915
	C112.047028,106.653542 113.612679,109.331703 114.924782,112.098869
	C115.506630,113.375809 116.088478,114.652748 116.672813,115.935143
	C124.413612,112.015320 131.573486,89.828224 129.350861,77.234962
	C136.183060,73.801750 139.528107,74.088783 143.632935,79.163971
	C143.666138,82.512390 143.805267,85.211899 143.234955,87.752144
	C139.589417,103.990021 130.665634,117.553528 120.758560,130.477798
	C119.268463,132.421707 115.666962,132.747116 113.042160,133.821198
z"/>
<path fill="#2D2C29" opacity="1.000000" stroke="none"
	d="
M51.842979,132.914001
	C48.274376,131.130676 47.849678,127.973251 47.976768,124.447128
	C48.366306,113.639435 48.799335,102.830132 48.937138,92.017914
	C49.002506,86.888741 48.435608,81.751518 48.121201,75.996544
	C50.973263,75.996544 53.746334,76.090080 56.511082,75.978058
	C63.324760,75.701973 70.142097,75.006813 76.942230,75.163361
	C79.557907,75.223572 82.130928,77.136429 84.860443,78.923943
	C84.386772,82.316902 83.776047,84.991066 83.346954,86.869919
	C76.230408,86.481667 69.912758,86.137009 62.986084,85.759117
	C62.986084,89.970848 62.778168,93.274269 63.124557,96.518501
	C63.217262,97.386795 65.002113,98.074409 66.010132,98.844971
	C70.249245,98.733833 74.492165,98.488312 78.724709,98.608498
	C79.749451,98.637596 80.739906,99.873734 81.875221,101.276413
	C82.204536,107.202431 79.249153,109.018150 74.535416,108.988754
	C70.778748,108.965324 67.021820,108.984032 62.566597,108.984032
	C63.078926,116.342972 63.566734,123.349777 64.126488,131.389954
	C60.183189,131.879211 56.013084,132.396606 51.842979,132.914001
z"/>
<path fill="#2E2C2A" opacity="1.000000" stroke="none"
	d="
M9.969725,133.434219
	C5.039186,129.948944 4.667685,127.114632 8.150141,121.723816
	C12.086592,122.129410 15.883599,123.102585 19.517729,122.678848
	C21.730562,122.420830 24.387947,120.389656 25.473461,118.404594
	C26.016596,117.411369 23.830061,114.373451 22.273182,112.899132
	C19.061832,109.858070 15.269592,107.433388 12.032393,104.416039
	C6.072445,98.860817 5.201380,91.891090 9.772659,85.207825
	C15.284914,77.148834 23.326687,73.678970 32.902275,74.159119
	C34.864674,74.257523 36.730633,76.279137 38.817039,78.112381
	C38.033276,85.821907 37.515125,86.248405 30.562824,86.000862
	C29.070341,85.947723 27.367178,85.603142 26.122658,86.176994
	C23.991240,87.159805 21.325977,88.380508 20.463444,90.235367
	C19.875467,91.499794 21.975080,94.013985 22.872988,95.969368
	C27.816402,100.391212 32.759819,104.813065 37.536705,109.724640
	C37.318653,113.130943 37.853817,116.207008 37.111900,118.935875
	C34.222179,129.564636 22.598631,135.616898 9.969725,133.434219
z"/>
<path fill="#FBF9FB" opacity="1.000000" stroke="none"
	d="
M55.755371,169.061371
	C57.703690,174.800430 61.829967,177.578232 68.314896,179.479874
	C59.632587,181.324249 56.130692,186.860321 53.949608,194.074402
	C51.111229,187.420624 48.451469,180.985016 39.128090,179.595673
	C48.281277,176.706833 52.449364,171.256332 53.382107,161.882584
	C54.386784,164.938583 55.006027,166.822159 55.755371,169.061371
z"/>
<path fill="#F8E508" opacity="1.000000" stroke="none"
	d="
M51.956413,133.281281
	C56.013084,132.396606 60.183189,131.879211 64.126488,131.389954
	C63.566734,123.349777 63.078926,116.342972 62.566597,108.984032
	C67.021820,108.984032 70.778748,108.965324 74.535416,108.988754
	C79.249153,109.018150 82.204536,107.202431 82.034790,101.616684
	C83.032341,103.110237 85.067017,105.239914 84.695778,106.795372
	C84.233658,108.731651 82.053238,111.059410 80.131050,111.653915
	C77.389481,112.501846 74.208572,111.935249 71.215218,111.960815
	C69.603127,111.974586 67.990814,111.963264 65.596581,111.963264
	C66.157310,119.359833 66.679337,126.245872 67.248924,133.759338
	C62.483212,135.166840 57.419518,138.452957 51.956413,133.281281
z"/>
<path fill="#F7E507" opacity="1.000000" stroke="none"
	d="
M10.082674,133.819412
	C22.598631,135.616898 34.222179,129.564636 37.111900,118.935875
	C37.853817,116.207008 37.318653,113.130943 37.687252,110.016403
	C42.028080,113.560196 41.527203,118.100784 40.076130,122.663261
	C37.008667,132.308044 24.117764,139.352142 14.334389,136.701019
	C12.839109,136.295807 11.569570,135.057556 10.082674,133.819412
z"/>
<path fill="#F6E404" opacity="1.000000" stroke="none"
	d="
M66.014008,98.404297
	C65.002113,98.074409 63.217262,97.386795 63.124557,96.518501
	C62.778168,93.274269 62.986084,89.970848 62.986084,85.759117
	C69.912758,86.137009 76.230408,86.481667 83.346954,86.869919
	C83.776047,84.991066 84.386772,82.316902 85.039062,79.231537
	C85.410599,78.830460 85.713928,78.925568 86.206207,79.212875
	C86.926430,80.297043 87.431061,81.274025 88.058022,82.561150
	C87.563492,85.408012 86.946625,87.944733 86.439178,90.031464
	C79.508057,89.591591 73.171196,89.189430 66.017883,88.735451
	C66.017883,92.423439 66.017883,95.193527 66.014008,98.404297
z"/>
<path fill="#F5E306" opacity="1.000000" stroke="none"
	d="
M22.930256,95.590881
	C21.975080,94.013985 19.875467,91.499794 20.463444,90.235367
	C21.325977,88.380508 23.991240,87.159805 26.122658,86.176994
	C27.367178,85.603142 29.070341,85.947723 30.562824,86.000862
	C37.515125,86.248405 38.033276,85.821907 39.028038,78.406647
	C43.026161,80.055511 42.197975,83.164787 41.102413,86.505112
	C40.000580,89.864571 37.939304,89.714645 34.958664,89.220032
	C27.817581,88.034996 24.275639,90.026878 22.930256,95.590881
z"/>
<path fill="#2D2B2A" opacity="1.000000" stroke="none"
	d="
M33.998772,201.757141
	C33.676537,201.896988 33.366383,201.712662 32.962852,201.264130
	C33.249935,201.144272 33.630394,201.288605 33.998772,201.757141
z"/>
<path fill="#2D2B2A" opacity="1.000000" stroke="none"
	d="
M35.058701,202.738953
	C34.663197,202.901306 34.361557,202.723251 33.990074,202.282516
	C34.331009,202.146072 34.741783,202.272293 35.058701,202.738953
z"/>
<path fill="#2D2B2A" opacity="1.000000" stroke="none"
	d="
M36.071354,203.716827
	C35.663368,203.904190 35.363857,203.729675 34.992867,203.296066
	C35.340866,203.142960 35.760349,203.248962 36.071354,203.716827
z"/>
<path fill="#2E2C2A" opacity="1.000000" stroke="none"
	d="
M188.925827,101.091560
	C193.156693,110.062210 197.387558,119.032860 201.503906,128.409363
	C197.165176,130.172134 192.940948,131.529037 188.716705,132.885925
	C186.433960,129.390549 184.151215,125.895149 181.550812,121.717590
	C179.957596,120.356636 178.716476,119.184387 177.399979,119.092529
	C173.603928,118.827675 169.777451,118.998199 165.962936,118.998344
	C158.923340,118.998619 156.941193,120.062317 156.336914,127.027908
	C155.903397,132.025284 153.052673,132.446655 149.562149,132.930527
	C148.256607,133.111496 146.913361,133.020676 145.587311,133.053772
	C141.236679,130.933731 141.358704,127.513023 143.116287,123.848000
	C149.121414,111.325676 155.313858,98.892075 161.198929,86.314247
	C162.319290,83.919785 162.364380,81.022202 163.148849,77.158691
	C170.402222,72.307808 175.923752,74.050369 181.998291,85.073486
	C184.371124,90.888863 186.648483,95.990211 188.925827,101.091560
M168.934052,108.981903
	C171.315140,108.981903 173.696243,108.981903 177.028610,108.981903
	C175.221161,104.620422 173.741852,101.050735 172.257050,96.805649
	C171.788300,95.430977 171.319550,94.056305 170.506760,91.672737
	C168.032898,97.853485 165.955963,103.042511 163.629211,108.855690
	C165.508560,108.855690 166.775009,108.855690 168.934052,108.981903
z"/>
<path fill="#FEFDF8" opacity="1.000000" stroke="none"
	d="
M171.816971,18.663277
	C172.300552,16.692883 172.686218,15.100725 173.071869,13.508568
	C175.904877,25.250883 180.822815,35.035805 194.164230,38.574341
	C180.433426,42.086208 176.165207,52.702488 173.405457,64.777885
	C170.779602,51.709141 165.740341,40.979897 151.717590,38.849941
	C155.543716,36.846481 160.651566,35.384781 163.959991,32.106895
	C167.442642,28.656410 169.205032,23.469639 171.816971,18.663277
z"/>
<path fill="#A97AAA" opacity="1.000000" stroke="none"
	d="
M113.193604,134.150299
	C115.666962,132.747116 119.268463,132.421707 120.758560,130.477798
	C130.665634,117.553528 139.589417,103.990021 143.234955,87.752144
	C143.805267,85.211899 143.666138,82.512390 143.844879,79.439499
	C148.279175,81.861046 147.324768,86.220596 146.511719,90.179169
	C143.784546,103.457100 136.797806,114.786369 129.496017,125.919548
	C127.677986,128.691513 125.781151,131.461868 123.564903,133.911163
	C119.997658,137.853531 117.784828,137.847610 113.193604,134.150299
z"/>
<path fill="#A879AE" opacity="1.000000" stroke="none"
	d="
M145.738556,133.420425
	C146.913361,133.020676 148.256607,133.111496 149.562149,132.930527
	C153.052673,132.446655 155.903397,132.025284 156.336914,127.027908
	C156.941193,120.062317 158.923340,118.998619 165.962936,118.998344
	C169.777451,118.998199 173.603928,118.827675 177.399979,119.092529
	C178.716476,119.184387 179.957596,120.356636 181.351257,121.447884
	C177.319962,121.908798 173.170670,121.985809 169.021179,121.999359
	C161.860779,122.022743 160.908783,122.730537 159.271225,129.496490
	C158.732758,131.721313 159.709381,134.612091 155.999664,135.249481
	C152.395462,135.868729 148.847443,137.200119 145.738556,133.420425
z"/>
<path fill="#A679A1" opacity="1.000000" stroke="none"
	d="
M115.109009,111.839554
	C113.612679,109.331703 112.047028,106.653542 111.038177,103.779915
	C108.479965,96.493019 106.171440,89.118469 103.626282,81.398956
	C104.371239,81.838005 105.720070,82.498001 106.061646,83.501015
	C109.237610,92.827118 112.240303,102.212234 115.109009,111.839554
z"/>
<path fill="#AA7BAA" opacity="1.000000" stroke="none"
	d="
M188.895569,133.232895
	C192.940948,131.529037 197.165176,130.172134 201.729904,128.647125
	C202.895615,129.363388 203.720795,130.247757 204.558075,131.145081
	C198.082550,136.731262 194.043228,137.292786 188.895569,133.232895
z"/>
<path fill="#AB7D9E" opacity="1.000000" stroke="none"
	d="
M189.098450,100.829178
	C186.648483,95.990211 184.371124,90.888863 182.078781,85.422852
	C184.466232,90.227715 186.868652,95.397255 189.098450,100.829178
z"/>
<path fill="#A577A8" opacity="1.000000" stroke="none"
	d="
M168.041458,108.855690
	C166.775009,108.855690 165.508560,108.855690 163.629211,108.855690
	C165.955963,103.042511 168.032898,97.853485 170.506760,91.672737
	C171.319550,94.056305 171.788300,95.430977 172.151154,97.541977
	C170.710663,101.804100 169.376053,105.329895 168.041458,108.855690
z"/>
<path fill="#F7C60E" opacity="1.000000" stroke="none"
	d="
M168.487762,108.918793
	C169.376053,105.329895 170.710663,101.804100 172.153900,97.879684
	C173.741852,101.050735 175.221161,104.620422 177.028610,108.981903
	C173.696243,108.981903 171.315140,108.981903 168.487762,108.918793
z"/>
</svg>
