<?xml version="1.0" encoding="UTF-8"?>
<svg width="14.806mm" height="14.807mm" version="1.1" viewBox="0 0 14.806 14.807" xmlns="http://www.w3.org/2000/svg"><defs><clipPath id="clipPath17002"><path d="m0 0h2479.2v3507.7h-2479.2z"/></clipPath><clipPath id="clipPath17008"><path d="m0 0h2426v6868.5h-2426z"/></clipPath><clipPath id="clipPath17014"><path d="m1709.6 2944.5h174.14v174.15h-174.14z"/></clipPath><clipPath id="clipPath17020"><path d="m1710.7 3031.5c-1e-4 -5.6431 0.5503-11.232 1.651-16.766 1.1008-5.5346 2.731-10.909 4.8903-16.122 2.1594-5.2136 4.8065-10.166 7.9414-14.858 3.1349-4.6917 6.6974-9.0328 10.687-13.023 3.9899-3.9903 8.3307-7.5528 13.022-10.688 4.6918-3.135 9.6441-5.7825 14.857-7.9419s10.587-3.7893 16.121-4.8901c5.5344-1.1006 11.123-1.6509 16.766-1.6511 5.6426 2e-4 11.231 0.5505 16.765 1.6511 5.5342 1.1008 10.908 2.7312 16.121 4.8906 5.2131 2.1592 10.166 4.8062 14.857 7.9412 4.6917 3.135 9.0325 6.6977 13.023 10.688 3.99 3.9899 7.5524 8.331 10.687 13.023 3.1348 4.6919 5.7819 9.6445 7.9412 14.858 2.1595 5.2136 3.7896 10.587 4.8904 16.122 1.1009 5.5344 1.6513 11.123 1.6514 16.766-1e-4 5.6428-0.5505 11.232-1.6514 16.766-1.1008 5.5344-2.7309 10.908-4.8904 16.121-2.1593 5.2132-4.8064 10.166-7.9412 14.858-3.1351 4.6919-6.6976 9.0329-10.687 13.023-3.9901 3.99-8.331 7.5525-13.023 10.688-4.6918 3.135-9.6442 5.782-14.857 7.9414s-10.587 3.7895-16.121 4.8904c-5.5342 1.101-11.123 1.6518-16.765 1.6521-5.6427-3e-4 -11.231-0.5511-16.766-1.6519s-10.908-2.7309-16.121-4.8904c-5.2133-2.1594-10.166-4.8066-14.857-7.9416-4.6917-3.135-9.0325-6.6975-13.022-10.688-3.9899-3.9903-7.5523-8.3313-10.687-13.023s-5.7821-9.6445-7.9415-14.858c-2.1593-5.2131-3.7895-10.587-4.8902-16.122-1.1008-5.5344-1.6512-11.123-1.6511-16.766z"/></clipPath><clipPath id="clipPath17032"><path d="m0 0h2479.2v3507.7h-2479.2z"/></clipPath><clipPath id="clipPath17038"><path d="m0 0h2426v6868.5h-2426z"/></clipPath><clipPath id="clipPath17044"><path d="m1709.6 2944.5h174.14v174.15h-174.14z"/></clipPath><clipPath id="clipPath17050"><path d="m1710.7 3031.5c-1e-4 -5.6431 0.5503-11.232 1.651-16.766 1.1008-5.5346 2.731-10.909 4.8903-16.122 2.1594-5.2136 4.8065-10.166 7.9414-14.858 3.1349-4.6917 6.6974-9.0328 10.687-13.023 3.9899-3.9903 8.3307-7.5528 13.022-10.688 4.6918-3.135 9.6441-5.7825 14.857-7.9419s10.587-3.7893 16.121-4.8901c5.5344-1.1006 11.123-1.6509 16.766-1.6511 5.6426 2e-4 11.231 0.5505 16.765 1.6511 5.5342 1.1008 10.908 2.7312 16.121 4.8906 5.2131 2.1592 10.166 4.8062 14.857 7.9412 4.6917 3.135 9.0325 6.6977 13.023 10.688 3.99 3.9899 7.5524 8.331 10.687 13.023 3.1348 4.6919 5.7819 9.6445 7.9412 14.858 2.1595 5.2136 3.7896 10.587 4.8904 16.122 1.1009 5.5344 1.6513 11.123 1.6514 16.766-1e-4 5.6428-0.5505 11.232-1.6514 16.766-1.1008 5.5344-2.7309 10.908-4.8904 16.121-2.1593 5.2132-4.8064 10.166-7.9412 14.858-3.1351 4.6919-6.6976 9.0329-10.687 13.023-3.9901 3.99-8.331 7.5525-13.023 10.688-4.6918 3.135-9.6442 5.782-14.857 7.9414s-10.587 3.7895-16.121 4.8904c-5.5342 1.101-11.123 1.6518-16.765 1.6521-5.6427-3e-4 -11.231-0.5511-16.766-1.6519s-10.908-2.7309-16.121-4.8904c-5.2133-2.1594-10.166-4.8066-14.857-7.9416-4.6917-3.135-9.0325-6.6975-13.022-10.688-3.9899-3.9903-7.5523-8.3313-10.687-13.023s-5.7821-9.6445-7.9415-14.858c-2.1593-5.2131-3.7895-10.587-4.8902-16.122-1.1008-5.5344-1.6512-11.123-1.6511-16.766z"/></clipPath><clipPath id="clipPath17056"><path d="m1709.6 2944.5h174.14v174.15h-174.14z"/></clipPath><clipPath id="clipPath17062"><path d="m1710.7 3031.5c-1e-4 -5.6431 0.5503-11.232 1.651-16.766 1.1008-5.5346 2.731-10.909 4.8903-16.122 2.1594-5.2136 4.8065-10.166 7.9414-14.858 3.1349-4.6917 6.6974-9.0328 10.687-13.023 3.9899-3.9903 8.3307-7.5528 13.022-10.688 4.6918-3.135 9.6441-5.7825 14.857-7.9419s10.587-3.7893 16.121-4.8901c5.5344-1.1006 11.123-1.6509 16.766-1.6511 5.6426 2e-4 11.231 0.5505 16.765 1.6511 5.5342 1.1008 10.908 2.7312 16.121 4.8906 5.2131 2.1592 10.166 4.8062 14.857 7.9412 4.6917 3.135 9.0325 6.6977 13.023 10.688 3.99 3.9899 7.5524 8.331 10.687 13.023 3.1348 4.6919 5.7819 9.6445 7.9412 14.858 2.1595 5.2136 3.7896 10.587 4.8904 16.122 1.1009 5.5344 1.6513 11.123 1.6514 16.766-1e-4 5.6428-0.5505 11.232-1.6514 16.766-1.1008 5.5344-2.7309 10.908-4.8904 16.121-2.1593 5.2132-4.8064 10.166-7.9412 14.858-3.1351 4.6919-6.6976 9.0329-10.687 13.023-3.9901 3.99-8.331 7.5525-13.023 10.688-4.6918 3.135-9.6442 5.782-14.857 7.9414s-10.587 3.7895-16.121 4.8904c-5.5342 1.101-11.123 1.6518-16.765 1.6521-5.6427-3e-4 -11.231-0.5511-16.766-1.6519s-10.908-2.7309-16.121-4.8904c-5.2133-2.1594-10.166-4.8066-14.857-7.9416-4.6917-3.135-9.0325-6.6975-13.022-10.688-3.9899-3.9903-7.5523-8.3313-10.687-13.023s-5.7821-9.6445-7.9415-14.858c-2.1593-5.2131-3.7895-10.587-4.8902-16.122-1.1008-5.5344-1.6512-11.123-1.6511-16.766z"/></clipPath><clipPath id="clipPath17074"><path d="m0 0h2479.2v3507.7h-2479.2z"/></clipPath><clipPath id="clipPath17080"><path d="m0 0h2426v6868.5h-2426z"/></clipPath><clipPath id="clipPath17086"><path d="m1709.6 2944.5h174.14v174.15h-174.14z"/></clipPath><clipPath id="clipPath17092"><path d="m1710.7 3031.5c-1e-4 -5.6431 0.5503-11.232 1.651-16.766 1.1008-5.5346 2.731-10.909 4.8903-16.122 2.1594-5.2136 4.8065-10.166 7.9414-14.858 3.1349-4.6917 6.6974-9.0328 10.687-13.023 3.9899-3.9903 8.3307-7.5528 13.022-10.688 4.6918-3.135 9.6441-5.7825 14.857-7.9419s10.587-3.7893 16.121-4.8901c5.5344-1.1006 11.123-1.6509 16.766-1.6511 5.6426 2e-4 11.231 0.5505 16.765 1.6511 5.5342 1.1008 10.908 2.7312 16.121 4.8906 5.2131 2.1592 10.166 4.8062 14.857 7.9412 4.6917 3.135 9.0325 6.6977 13.023 10.688 3.99 3.9899 7.5524 8.331 10.687 13.023 3.1348 4.6919 5.7819 9.6445 7.9412 14.858 2.1595 5.2136 3.7896 10.587 4.8904 16.122 1.1009 5.5344 1.6513 11.123 1.6514 16.766-1e-4 5.6428-0.5505 11.232-1.6514 16.766-1.1008 5.5344-2.7309 10.908-4.8904 16.121-2.1593 5.2132-4.8064 10.166-7.9412 14.858-3.1351 4.6919-6.6976 9.0329-10.687 13.023-3.9901 3.99-8.331 7.5525-13.023 10.688-4.6918 3.135-9.6442 5.782-14.857 7.9414s-10.587 3.7895-16.121 4.8904c-5.5342 1.101-11.123 1.6518-16.765 1.6521-5.6427-3e-4 -11.231-0.5511-16.766-1.6519s-10.908-2.7309-16.121-4.8904c-5.2133-2.1594-10.166-4.8066-14.857-7.9416-4.6917-3.135-9.0325-6.6975-13.022-10.688-3.9899-3.9903-7.5523-8.3313-10.687-13.023s-5.7821-9.6445-7.9415-14.858c-2.1593-5.2131-3.7895-10.587-4.8902-16.122-1.1008-5.5344-1.6512-11.123-1.6511-16.766z"/></clipPath><clipPath id="clipPath17098"><path d="m1709.6 2944.5h174.14v174.15h-174.14z"/></clipPath><clipPath id="clipPath17104"><path d="m1710.7 3031.5c-1e-4 -5.6431 0.5503-11.232 1.651-16.766 1.1008-5.5346 2.731-10.909 4.8903-16.122 2.1594-5.2136 4.8065-10.166 7.9414-14.858 3.1349-4.6917 6.6974-9.0328 10.687-13.023 3.9899-3.9903 8.3307-7.5528 13.022-10.688 4.6918-3.135 9.6441-5.7825 14.857-7.9419s10.587-3.7893 16.121-4.8901c5.5344-1.1006 11.123-1.6509 16.766-1.6511 5.6426 2e-4 11.231 0.5505 16.765 1.6511 5.5342 1.1008 10.908 2.7312 16.121 4.8906 5.2131 2.1592 10.166 4.8062 14.857 7.9412 4.6917 3.135 9.0325 6.6977 13.023 10.688 3.99 3.9899 7.5524 8.331 10.687 13.023 3.1348 4.6919 5.7819 9.6445 7.9412 14.858 2.1595 5.2136 3.7896 10.587 4.8904 16.122 1.1009 5.5344 1.6513 11.123 1.6514 16.766-1e-4 5.6428-0.5505 11.232-1.6514 16.766-1.1008 5.5344-2.7309 10.908-4.8904 16.121-2.1593 5.2132-4.8064 10.166-7.9412 14.858-3.1351 4.6919-6.6976 9.0329-10.687 13.023-3.9901 3.99-8.331 7.5525-13.023 10.688-4.6918 3.135-9.6442 5.782-14.857 7.9414s-10.587 3.7895-16.121 4.8904c-5.5342 1.101-11.123 1.6518-16.765 1.6521-5.6427-3e-4 -11.231-0.5511-16.766-1.6519s-10.908-2.7309-16.121-4.8904c-5.2133-2.1594-10.166-4.8066-14.857-7.9416-4.6917-3.135-9.0325-6.6975-13.022-10.688-3.9899-3.9903-7.5523-8.3313-10.687-13.023s-5.7821-9.6445-7.9415-14.858c-2.1593-5.2131-3.7895-10.587-4.8902-16.122-1.1008-5.5344-1.6512-11.123-1.6511-16.766z"/></clipPath><clipPath id="clipPath17116"><path d="m0 0h2479.2v3507.7h-2479.2z"/></clipPath><clipPath id="clipPath17122"><path d="m0 0h2426v6868.5h-2426z"/></clipPath><clipPath id="clipPath17128"><path d="m1709.6 2944.5h174.14v174.15h-174.14z"/></clipPath><clipPath id="clipPath17134"><path d="m1710.7 3031.5c-1e-4 -5.6431 0.5503-11.232 1.651-16.766 1.1008-5.5346 2.731-10.909 4.8903-16.122 2.1594-5.2136 4.8065-10.166 7.9414-14.858 3.1349-4.6917 6.6974-9.0328 10.687-13.023 3.9899-3.9903 8.3307-7.5528 13.022-10.688 4.6918-3.135 9.6441-5.7825 14.857-7.9419s10.587-3.7893 16.121-4.8901c5.5344-1.1006 11.123-1.6509 16.766-1.6511 5.6426 2e-4 11.231 0.5505 16.765 1.6511 5.5342 1.1008 10.908 2.7312 16.121 4.8906 5.2131 2.1592 10.166 4.8062 14.857 7.9412 4.6917 3.135 9.0325 6.6977 13.023 10.688 3.99 3.9899 7.5524 8.331 10.687 13.023 3.1348 4.6919 5.7819 9.6445 7.9412 14.858 2.1595 5.2136 3.7896 10.587 4.8904 16.122 1.1009 5.5344 1.6513 11.123 1.6514 16.766-1e-4 5.6428-0.5505 11.232-1.6514 16.766-1.1008 5.5344-2.7309 10.908-4.8904 16.121-2.1593 5.2132-4.8064 10.166-7.9412 14.858-3.1351 4.6919-6.6976 9.0329-10.687 13.023-3.9901 3.99-8.331 7.5525-13.023 10.688-4.6918 3.135-9.6442 5.782-14.857 7.9414s-10.587 3.7895-16.121 4.8904c-5.5342 1.101-11.123 1.6518-16.765 1.6521-5.6427-3e-4 -11.231-0.5511-16.766-1.6519s-10.908-2.7309-16.121-4.8904c-5.2133-2.1594-10.166-4.8066-14.857-7.9416-4.6917-3.135-9.0325-6.6975-13.022-10.688-3.9899-3.9903-7.5523-8.3313-10.687-13.023s-5.7821-9.6445-7.9415-14.858c-2.1593-5.2131-3.7895-10.587-4.8902-16.122-1.1008-5.5344-1.6512-11.123-1.6511-16.766z"/></clipPath><clipPath id="clipPath17148"><path d="m0 0h2426v3507.7h-2426z" clip-rule="evenodd"/></clipPath></defs><g transform="translate(-48.962 -119.37)"><g transform="matrix(.084667 0 0 .084667 -95.75 -129.9)"><g clip-path="url(#clipPath17002)"><g clip-path="url(#clipPath17008)"><g clip-path="url(#clipPath17014)"><g clip-path="url(#clipPath17020)"><g transform="matrix(3.0025 0 0 3.0026 1796.6 3031.5)"><path d="m28.622 0c0 0.93741-0.04594 1.8726-0.13782 2.8055-0.09188 0.93289-0.22926 1.859-0.41214 2.7784-0.18288 0.9194-0.41037 1.8276-0.68249 2.7247-0.27212 0.89704-0.58754 1.7786-0.94627 2.6446-0.35873 0.86605-0.75904 1.7124-1.2009 2.5392-0.44189 0.82672-0.92324 1.6298-1.444 2.4092-0.5208 0.77943-1.0785 1.5315-1.6732 2.2561-0.59468 0.72463-1.2234 1.4184-1.8863 2.0812-0.66285 0.66285-1.3566 1.2916-2.0812 1.8863-0.72463 0.59468-1.4767 1.1524-2.2561 1.6732-0.77943 0.5208-1.5825 1.0021-2.4092 1.444-0.82672 0.44189-1.6731 0.8422-2.5392 1.2009-0.86605 0.35873-1.7476 0.67416-2.6446 0.94627-0.89704 0.27211-1.8053 0.49961-2.7247 0.68249-0.9194 0.18288-1.8455 0.32026-2.7784 0.41214-0.93289 0.091883-1.868 0.13782-2.8055 0.13782s-1.8726-0.04594-2.8055-0.13782c-0.93289-0.09188-1.859-0.22926-2.7784-0.41214-0.9194-0.18288-1.8276-0.41037-2.7247-0.68249-0.89704-0.27212-1.7786-0.58754-2.6446-0.94627-0.86605-0.35873-1.7124-0.75904-2.5392-1.2009-0.82672-0.44189-1.6298-0.92324-2.4092-1.444-0.77943-0.5208-1.5315-1.0785-2.2561-1.6732-0.72463-0.59468-1.4184-1.2234-2.0812-1.8863-0.66285-0.66285-1.2916-1.3566-1.8863-2.0812-0.59468-0.72463-1.1524-1.4767-1.6732-2.2561-0.5208-0.77943-1.0021-1.5825-1.444-2.4092-0.44189-0.82672-0.8422-1.6731-1.2009-2.5392-0.35873-0.86605-0.67416-1.7476-0.94627-2.6446-0.27211-0.89704-0.49961-1.8053-0.68249-2.7247-0.18288-0.9194-0.32026-1.8455-0.41214-2.7784-0.091883-0.93289-0.13782-1.868-0.13782-2.8055s0.04594-1.8726 0.13782-2.8055c0.09188-0.93289 0.22926-1.859 0.41214-2.7784 0.18288-0.9194 0.41037-1.8276 0.68249-2.7247 0.27212-0.89704 0.58754-1.7786 0.94627-2.6446 0.35873-0.86605 0.75904-1.7124 1.2009-2.5392 0.44189-0.82672 0.92324-1.6298 1.444-2.4092 0.5208-0.77943 1.0785-1.5315 1.6732-2.2561 0.59468-0.72463 1.2234-1.4184 1.8863-2.0812 0.66285-0.66285 1.3566-1.2916 2.0812-1.8863 0.72463-0.59468 1.4767-1.1524 2.2561-1.6732 0.77943-0.5208 1.5825-1.0021 2.4092-1.444 0.82672-0.44189 1.6731-0.8422 2.5392-1.2009 0.86605-0.35873 1.7476-0.67416 2.6446-0.94627 0.89704-0.27211 1.8053-0.49961 2.7247-0.68249 0.9194-0.18288 1.8455-0.32026 2.7784-0.41214 0.93289-0.09188 1.868-0.13782 2.8055-0.13782s1.8726 0.04594 2.8055 0.13782c0.93289 0.09188 1.859 0.22926 2.7784 0.41214 0.9194 0.18288 1.8276 0.41037 2.7247 0.68249 0.89704 0.27212 1.7786 0.58754 2.6446 0.94627 0.86605 0.35873 1.7124 0.75904 2.5392 1.2009 0.82672 0.44189 1.6298 0.92324 2.4092 1.444 0.77943 0.5208 1.5315 1.0785 2.2561 1.6732 0.72463 0.59468 1.4184 1.2234 2.0812 1.8863 0.66285 0.66285 1.2916 1.3566 1.8863 2.0812 0.59468 0.72463 1.1524 1.4767 1.6732 2.2561 0.5208 0.77943 1.0021 1.5825 1.444 2.4092 0.44189 0.82672 0.8422 1.6731 1.2009 2.5392 0.35873 0.86605 0.67416 1.7476 0.94627 2.6446 0.27211 0.89704 0.49961 1.8053 0.68249 2.7247 0.18288 0.9194 0.32026 1.8455 0.41214 2.7784 0.09188 0.93289 0.13782 1.868 0.13782 2.8055z" fill="#fff"/></g></g></g></g></g><g clip-path="url(#clipPath17032)"><g clip-path="url(#clipPath17038)"><g clip-path="url(#clipPath17044)"><g clip-path="url(#clipPath17050)"><g clip-path="url(#clipPath17056)"><g clip-path="url(#clipPath17062)"><g transform="matrix(3.0025 0 0 3.0026 1796.6 3031.5)"><path d="m-50-17.717h100v5.9055h-100z" fill="#231f20"/></g></g></g></g></g></g></g><g clip-path="url(#clipPath17074)"><g clip-path="url(#clipPath17080)"><g clip-path="url(#clipPath17086)"><g clip-path="url(#clipPath17092)"><g clip-path="url(#clipPath17098)"><g clip-path="url(#clipPath17104)"><g transform="matrix(3.0025 0 0 3.0026 1796.6 3031.5)"><path d="m-50 11.811h100v5.9055h-100z" fill="#231f20"/></g></g></g></g></g></g></g><g clip-path="url(#clipPath17116)"><g clip-path="url(#clipPath17122)"><g clip-path="url(#clipPath17128)"><g clip-path="url(#clipPath17134)"><g transform="matrix(3.1276 0 0 3.1277 1796.6 3031.5)"><text transform="translate(-15.368 4.3653)" fill="#000000" font-family="Bitter" font-size="12.69px" font-weight="bold"><tspan x="0 8.27388 15.887878 22.740463" y="0">CTLP</tspan></text></g></g></g></g></g><g clip-path="url(#clipPath17148)"><g transform="matrix(3.0025 0 0 3.0026 1796.6 3031.5)"><path d="m28.622 0c0 0.93741-0.04594 1.8726-0.13782 2.8055-0.09188 0.93289-0.22926 1.859-0.41214 2.7784-0.18288 0.9194-0.41037 1.8276-0.68249 2.7247-0.27212 0.89704-0.58754 1.7786-0.94627 2.6446-0.35873 0.86605-0.75904 1.7124-1.2009 2.5392-0.44189 0.82672-0.92324 1.6298-1.444 2.4092-0.5208 0.77943-1.0785 1.5315-1.6732 2.2561-0.59468 0.72463-1.2234 1.4184-1.8863 2.0812-0.66285 0.66285-1.3566 1.2916-2.0812 1.8863-0.72463 0.59468-1.4767 1.1524-2.2561 1.6732-0.77943 0.5208-1.5825 1.0021-2.4092 1.444-0.82672 0.44189-1.6731 0.8422-2.5392 1.2009-0.86605 0.35873-1.7476 0.67416-2.6446 0.94627-0.89704 0.27211-1.8053 0.49961-2.7247 0.68249-0.9194 0.18288-1.8455 0.32026-2.7784 0.41214-0.93289 0.091883-1.868 0.13782-2.8055 0.13782s-1.8726-0.04594-2.8055-0.13782c-0.93289-0.09188-1.859-0.22926-2.7784-0.41214-0.9194-0.18288-1.8276-0.41037-2.7247-0.68249-0.89704-0.27212-1.7786-0.58754-2.6446-0.94627-0.86605-0.35873-1.7124-0.75904-2.5392-1.2009-0.82672-0.44189-1.6298-0.92324-2.4092-1.444-0.77943-0.5208-1.5315-1.0785-2.2561-1.6732-0.72463-0.59468-1.4184-1.2234-2.0812-1.8863-0.66285-0.66285-1.2916-1.3566-1.8863-2.0812-0.59468-0.72463-1.1524-1.4767-1.6732-2.2561-0.5208-0.77943-1.0021-1.5825-1.444-2.4092-0.44189-0.82672-0.8422-1.6731-1.2009-2.5392-0.35873-0.86605-0.67416-1.7476-0.94627-2.6446-0.27211-0.89704-0.49961-1.8053-0.68249-2.7247-0.18288-0.9194-0.32026-1.8455-0.41214-2.7784-0.091883-0.93289-0.13782-1.868-0.13782-2.8055s0.04594-1.8726 0.13782-2.8055c0.09188-0.93289 0.22926-1.859 0.41214-2.7784 0.18288-0.9194 0.41037-1.8276 0.68249-2.7247 0.27212-0.89704 0.58754-1.7786 0.94627-2.6446 0.35873-0.86605 0.75904-1.7124 1.2009-2.5392 0.44189-0.82672 0.92324-1.6298 1.444-2.4092 0.5208-0.77943 1.0785-1.5315 1.6732-2.2561 0.59468-0.72463 1.2234-1.4184 1.8863-2.0812 0.66285-0.66285 1.3566-1.2916 2.0812-1.8863 0.72463-0.59468 1.4767-1.1524 2.2561-1.6732 0.77943-0.5208 1.5825-1.0021 2.4092-1.444 0.82672-0.44189 1.6731-0.8422 2.5392-1.2009 0.86605-0.35873 1.7476-0.67416 2.6446-0.94627 0.89704-0.27211 1.8053-0.49961 2.7247-0.68249 0.9194-0.18288 1.8455-0.32026 2.7784-0.41214 0.93289-0.09188 1.868-0.13782 2.8055-0.13782s1.8726 0.04594 2.8055 0.13782c0.93289 0.09188 1.859 0.22926 2.7784 0.41214 0.9194 0.18288 1.8276 0.41037 2.7247 0.68249 0.89704 0.27212 1.7786 0.58754 2.6446 0.94627 0.86605 0.35873 1.7124 0.75904 2.5392 1.2009 0.82672 0.44189 1.6298 0.92324 2.4092 1.444 0.77943 0.5208 1.5315 1.0785 2.2561 1.6732 0.72463 0.59468 1.4184 1.2234 2.0812 1.8863 0.66285 0.66285 1.2916 1.3566 1.8863 2.0812 0.59468 0.72463 1.1524 1.4767 1.6732 2.2561 0.5208 0.77943 1.0021 1.5825 1.444 2.4092 0.44189 0.82672 0.8422 1.6731 1.2009 2.5392 0.35873 0.86605 0.67416 1.7476 0.94627 2.6446 0.27211 0.89704 0.49961 1.8053 0.68249 2.7247 0.18288 0.9194 0.32026 1.8455 0.41214 2.7784 0.09188 0.93289 0.13782 1.868 0.13782 2.8055z" fill="none" stroke="#000" stroke-miterlimit="10"/></g></g></g></g></svg>
