<?xml version="1.0" encoding="UTF-8"?>
<svg width="14.806mm" height="14.807mm" version="1.1" viewBox="0 0 14.806 14.807" xmlns="http://www.w3.org/2000/svg"><defs><clipPath id="clipPath14782"><path d="m0 0h2479.2v3507.7h-2479.2z"/></clipPath><clipPath id="clipPath14788"><path d="m0 0h2426v6868.5h-2426z"/></clipPath><clipPath id="clipPath14794"><path d="m88.23 2404h174.14v174.15h-174.14z"/></clipPath><clipPath id="clipPath14800"><path d="m89.365 2491.1c-8e-6 -5.6428 0.55041-11.232 1.6512-16.766s2.7309-10.908 4.8903-16.122c2.1594-5.2134 4.8065-10.166 7.9414-14.858 3.1349-4.6917 6.6974-9.0325 10.687-13.023 3.99-3.9903 8.3308-7.553 13.023-10.688 4.6917-3.135 9.6442-5.782 14.857-7.9414 5.2132-2.1595 10.587-3.7896 16.121-4.8904 5.5343-1.1008 11.123-1.6511 16.765-1.6511 5.6427 0 11.231 0.5503 16.765 1.6511 5.5342 1.1008 10.908 2.7309 16.121 4.8904 5.2132 2.1594 10.166 4.8066 14.857 7.9416 4.6917 3.135 9.0326 6.6975 13.023 10.688 3.99 3.9902 7.5524 8.3313 10.687 13.023 3.1349 4.6917 5.782 9.6443 7.9414 14.858s3.7895 10.587 4.8903 16.122 1.6512 11.123 1.6513 16.766c-3e-5 5.6428-0.55045 11.231-1.6513 16.766-1.1008 5.5345-2.7309 10.908-4.8903 16.122-2.1594 5.2134-4.8065 10.166-7.9414 14.858-3.1349 4.6921-6.6973 9.0332-10.687 13.023-3.99 3.99-8.3308 7.5525-13.023 10.688-4.6917 3.135-9.6442 5.7825-14.857 7.9419-5.2132 2.1594-10.587 3.7895-16.121 4.8906-5.5343 1.1008-11.123 1.6511-16.765 1.6514-5.6427-3e-4 -11.231-0.5506-16.765-1.6514-5.5343-1.1011-10.908-2.7314-16.121-4.8909-5.2132-2.1594-10.166-4.8066-14.857-7.9416-4.6917-3.135-9.0326-6.6975-13.023-10.688-3.99-3.99-7.5524-8.3311-10.687-13.023s-5.782-9.6445-7.9414-14.858c-2.1594-5.2134-3.7895-10.587-4.8903-16.122-1.1008-5.5344-1.6512-11.123-1.6512-16.766z"/></clipPath><clipPath id="clipPath14818"><path d="m0 0h2426v3507.7h-2426z" clip-rule="evenodd"/></clipPath></defs><g transform="translate(-50.333 -122.61)"><g transform="matrix(.084667 0 0 .084667 42.894 -80.902)"><g clip-path="url(#clipPath14782)"><g clip-path="url(#clipPath14788)"><g clip-path="url(#clipPath14794)"><g clip-path="url(#clipPath14800)"><g transform="matrix(3.0025 0 0 3.0026 175.3 2491.1)"><path d="m28.622 0c0 0.93741-0.04594 1.8726-0.13782 2.8055-0.09188 0.93289-0.22926 1.859-0.41214 2.7784-0.18288 0.9194-0.41037 1.8276-0.68249 2.7247-0.27212 0.89704-0.58754 1.7786-0.94627 2.6446-0.35873 0.86605-0.75904 1.7124-1.2009 2.5392-0.44189 0.82672-0.92324 1.6298-1.444 2.4092-0.5208 0.77943-1.0785 1.5315-1.6732 2.2561-0.59468 0.72463-1.2234 1.4184-1.8863 2.0812-0.66285 0.66285-1.3566 1.2916-2.0812 1.8863-0.72463 0.59468-1.4767 1.1524-2.2561 1.6732-0.77943 0.5208-1.5825 1.0021-2.4092 1.444-0.82672 0.44189-1.6731 0.8422-2.5392 1.2009-0.86605 0.35873-1.7476 0.67416-2.6446 0.94627-0.89704 0.27211-1.8053 0.49961-2.7247 0.68249-0.9194 0.18288-1.8455 0.32026-2.7784 0.41214-0.93289 0.091883-1.868 0.13782-2.8055 0.13782s-1.8726-0.04594-2.8055-0.13782c-0.93289-0.09188-1.859-0.22926-2.7784-0.41214-0.9194-0.18288-1.8276-0.41037-2.7247-0.68249-0.89704-0.27212-1.7786-0.58754-2.6446-0.94627-0.86605-0.35873-1.7124-0.75904-2.5392-1.2009-0.82672-0.44189-1.6298-0.92324-2.4092-1.444-0.77943-0.5208-1.5315-1.0785-2.2561-1.6732-0.72463-0.59468-1.4184-1.2234-2.0812-1.8863-0.66285-0.66285-1.2916-1.3566-1.8863-2.0812-0.59468-0.72463-1.1524-1.4767-1.6732-2.2561-0.5208-0.77943-1.0021-1.5825-1.444-2.4092-0.44189-0.82672-0.8422-1.6731-1.2009-2.5392-0.35873-0.86605-0.67416-1.7476-0.94627-2.6446-0.27211-0.89704-0.49961-1.8053-0.68249-2.7247-0.18288-0.9194-0.32026-1.8455-0.41214-2.7784-0.091883-0.93289-0.13782-1.868-0.13782-2.8055s0.04594-1.8726 0.13782-2.8055c0.09188-0.93289 0.22926-1.859 0.41214-2.7784 0.18288-0.9194 0.41037-1.8276 0.68249-2.7247 0.27212-0.89704 0.58754-1.7786 0.94627-2.6446 0.35873-0.86605 0.75904-1.7124 1.2009-2.5392 0.44189-0.82672 0.92324-1.6298 1.444-2.4092 0.5208-0.77943 1.0785-1.5315 1.6732-2.2561 0.59468-0.72463 1.2234-1.4184 1.8863-2.0812 0.66285-0.66285 1.3566-1.2916 2.0812-1.8863 0.72463-0.59468 1.4767-1.1524 2.2561-1.6732 0.77943-0.5208 1.5825-1.0021 2.4092-1.444 0.82672-0.44189 1.6731-0.8422 2.5392-1.2009 0.86605-0.35873 1.7476-0.67416 2.6446-0.94627 0.89704-0.27211 1.8053-0.49961 2.7247-0.68249 0.9194-0.18288 1.8455-0.32026 2.7784-0.41214 0.93289-0.09188 1.868-0.13782 2.8055-0.13782s1.8726 0.04594 2.8055 0.13782c0.93289 0.09188 1.859 0.22926 2.7784 0.41214 0.9194 0.18288 1.8276 0.41037 2.7247 0.68249 0.89704 0.27212 1.7786 0.58754 2.6446 0.94627 0.86605 0.35873 1.7124 0.75904 2.5392 1.2009 0.82672 0.44189 1.6298 0.92324 2.4092 1.444 0.77943 0.5208 1.5315 1.0785 2.2561 1.6732 0.72463 0.59468 1.4184 1.2234 2.0812 1.8863 0.66285 0.66285 1.2916 1.3566 1.8863 2.0812 0.59468 0.72463 1.1524 1.4767 1.6732 2.2561 0.5208 0.77943 1.0021 1.5825 1.444 2.4092 0.44189 0.82672 0.8422 1.6731 1.2009 2.5392 0.35873 0.86605 0.67416 1.7476 0.94627 2.6446 0.27211 0.89704 0.49961 1.8053 0.68249 2.7247 0.18288 0.9194 0.32026 1.8455 0.41214 2.7784 0.09188 0.93289 0.13782 1.868 0.13782 2.8055z" fill="#0095da"/></g><g transform="matrix(3.1276 0 0 3.1277 175.3 2491.1)"><text transform="translate(-14.029 4.3653)" fill="#000000" font-family="Bitter" font-size="12.69px" font-weight="bold"><tspan x="0 4.7587433 13.032623 20.697372" y="0">ICSF</tspan></text></g></g></g></g></g><g clip-path="url(#clipPath14818)"><g transform="matrix(3.0025 0 0 3.0026 175.3 2491.1)"><path d="m28.622 0c0 0.93741-0.04594 1.8726-0.13782 2.8055-0.09188 0.93289-0.22926 1.859-0.41214 2.7784-0.18288 0.9194-0.41037 1.8276-0.68249 2.7247-0.27212 0.89704-0.58754 1.7786-0.94627 2.6446-0.35873 0.86605-0.75904 1.7124-1.2009 2.5392-0.44189 0.82672-0.92324 1.6298-1.444 2.4092-0.5208 0.77943-1.0785 1.5315-1.6732 2.2561-0.59468 0.72463-1.2234 1.4184-1.8863 2.0812-0.66285 0.66285-1.3566 1.2916-2.0812 1.8863-0.72463 0.59468-1.4767 1.1524-2.2561 1.6732-0.77943 0.5208-1.5825 1.0021-2.4092 1.444-0.82672 0.44189-1.6731 0.8422-2.5392 1.2009-0.86605 0.35873-1.7476 0.67416-2.6446 0.94627-0.89704 0.27211-1.8053 0.49961-2.7247 0.68249-0.9194 0.18288-1.8455 0.32026-2.7784 0.41214-0.93289 0.091883-1.868 0.13782-2.8055 0.13782s-1.8726-0.04594-2.8055-0.13782c-0.93289-0.09188-1.859-0.22926-2.7784-0.41214-0.9194-0.18288-1.8276-0.41037-2.7247-0.68249-0.89704-0.27212-1.7786-0.58754-2.6446-0.94627-0.86605-0.35873-1.7124-0.75904-2.5392-1.2009-0.82672-0.44189-1.6298-0.92324-2.4092-1.444-0.77943-0.5208-1.5315-1.0785-2.2561-1.6732-0.72463-0.59468-1.4184-1.2234-2.0812-1.8863-0.66285-0.66285-1.2916-1.3566-1.8863-2.0812-0.59468-0.72463-1.1524-1.4767-1.6732-2.2561-0.5208-0.77943-1.0021-1.5825-1.444-2.4092-0.44189-0.82672-0.8422-1.6731-1.2009-2.5392-0.35873-0.86605-0.67416-1.7476-0.94627-2.6446-0.27211-0.89704-0.49961-1.8053-0.68249-2.7247-0.18288-0.9194-0.32026-1.8455-0.41214-2.7784-0.091883-0.93289-0.13782-1.868-0.13782-2.8055s0.04594-1.8726 0.13782-2.8055c0.09188-0.93289 0.22926-1.859 0.41214-2.7784 0.18288-0.9194 0.41037-1.8276 0.68249-2.7247 0.27212-0.89704 0.58754-1.7786 0.94627-2.6446 0.35873-0.86605 0.75904-1.7124 1.2009-2.5392 0.44189-0.82672 0.92324-1.6298 1.444-2.4092 0.5208-0.77943 1.0785-1.5315 1.6732-2.2561 0.59468-0.72463 1.2234-1.4184 1.8863-2.0812 0.66285-0.66285 1.3566-1.2916 2.0812-1.8863 0.72463-0.59468 1.4767-1.1524 2.2561-1.6732 0.77943-0.5208 1.5825-1.0021 2.4092-1.444 0.82672-0.44189 1.6731-0.8422 2.5392-1.2009 0.86605-0.35873 1.7476-0.67416 2.6446-0.94627 0.89704-0.27211 1.8053-0.49961 2.7247-0.68249 0.9194-0.18288 1.8455-0.32026 2.7784-0.41214 0.93289-0.09188 1.868-0.13782 2.8055-0.13782s1.8726 0.04594 2.8055 0.13782c0.93289 0.09188 1.859 0.22926 2.7784 0.41214 0.9194 0.18288 1.8276 0.41037 2.7247 0.68249 0.89704 0.27212 1.7786 0.58754 2.6446 0.94627 0.86605 0.35873 1.7124 0.75904 2.5392 1.2009 0.82672 0.44189 1.6298 0.92324 2.4092 1.444 0.77943 0.5208 1.5315 1.0785 2.2561 1.6732 0.72463 0.59468 1.4184 1.2234 2.0812 1.8863 0.66285 0.66285 1.2916 1.3566 1.8863 2.0812 0.59468 0.72463 1.1524 1.4767 1.6732 2.2561 0.5208 0.77943 1.0021 1.5825 1.444 2.4092 0.44189 0.82672 0.8422 1.6731 1.2009 2.5392 0.35873 0.86605 0.67416 1.7476 0.94627 2.6446 0.27211 0.89704 0.49961 1.8053 0.68249 2.7247 0.18288 0.9194 0.32026 1.8455 0.41214 2.7784 0.09188 0.93289 0.13782 1.868 0.13782 2.8055z" fill="none" stroke="#000" stroke-miterlimit="10"/></g></g></g></g></svg>
