<?xml version="1.0" encoding="UTF-8"?>
<svg width="14.806mm" height="14.807mm" version="1.1" viewBox="0 0 14.806 14.807" xmlns="http://www.w3.org/2000/svg"><defs><clipPath id="clipPath8418"><path d="m0 0h2479.2v3507.7h-2479.2z"/></clipPath><clipPath id="clipPath8424"><path d="m0 0h2426v6868.5h-2426z"/></clipPath><clipPath id="clipPath8430"><path d="m88.23 1142.9h174.14v174.15h-174.14z"/></clipPath><clipPath id="clipPath8436"><path d="m89.365 1230c-8e-6 -5.643 0.55041-11.232 1.6512-16.766s2.7309-10.908 4.8903-16.122c2.1594-5.2133 4.8065-10.166 7.9414-14.858s6.6974-9.0329 10.687-13.023c3.99-3.9901 8.3308-7.5527 13.023-10.688 4.6917-3.1351 9.6442-5.7823 14.857-7.9416 5.2132-2.1594 10.587-3.7896 16.121-4.8904 5.5343-1.101 11.123-1.6514 16.765-1.6514 5.6427 0 11.231 0.5504 16.765 1.6514 5.5342 1.1008 10.908 2.731 16.121 4.8904 5.2132 2.1593 10.166 4.8065 14.857 7.9415 4.6917 3.135 9.0326 6.6976 13.023 10.688 3.99 3.99 7.5524 8.331 10.687 13.023s5.782 9.6445 7.9414 14.858 3.7895 10.587 4.8903 16.122 1.6512 11.123 1.6513 16.766c-3e-5 5.6428-0.55045 11.231-1.6513 16.766-1.1008 5.5346-2.7309 10.908-4.8903 16.122-2.1594 5.2134-4.8065 10.166-7.9414 14.858-3.1349 4.6918-6.6973 9.0329-10.687 13.023-3.99 3.9901-8.3308 7.5527-13.023 10.688-4.6917 3.135-9.6442 5.7822-14.857 7.9415-5.2132 2.1596-10.587 3.7897-16.121 4.8907-5.5343 1.1009-11.123 1.6513-16.765 1.6513-5.6427 0-11.231-0.5504-16.765-1.6513-5.5343-1.101-10.908-2.7311-16.121-4.8907-5.2132-2.1593-10.166-4.8065-14.857-7.9415-4.6917-3.135-9.0326-6.6976-13.023-10.688-3.99-3.9901-7.5524-8.3311-10.687-13.023-3.1349-4.6919-5.782-9.6445-7.9414-14.858-2.1594-5.2132-3.7895-10.587-4.8903-16.122-1.1008-5.5343-1.6512-11.123-1.6512-16.766z"/></clipPath><clipPath id="clipPath8448"><path d="m0 0h2479.2v3507.7h-2479.2z"/></clipPath><clipPath id="clipPath8454"><path d="m0 0h2426v6868.5h-2426z"/></clipPath><clipPath id="clipPath8460"><path d="m88.23 1142.9h174.14v174.15h-174.14z"/></clipPath><clipPath id="clipPath8466"><path d="m89.365 1230c-8e-6 -5.643 0.55041-11.232 1.6512-16.766s2.7309-10.908 4.8903-16.122c2.1594-5.2133 4.8065-10.166 7.9414-14.858s6.6974-9.0329 10.687-13.023c3.99-3.9901 8.3308-7.5527 13.023-10.688 4.6917-3.1351 9.6442-5.7823 14.857-7.9416 5.2132-2.1594 10.587-3.7896 16.121-4.8904 5.5343-1.101 11.123-1.6514 16.765-1.6514 5.6427 0 11.231 0.5504 16.765 1.6514 5.5342 1.1008 10.908 2.731 16.121 4.8904 5.2132 2.1593 10.166 4.8065 14.857 7.9415 4.6917 3.135 9.0326 6.6976 13.023 10.688 3.99 3.99 7.5524 8.331 10.687 13.023s5.782 9.6445 7.9414 14.858 3.7895 10.587 4.8903 16.122 1.6512 11.123 1.6513 16.766c-3e-5 5.6428-0.55045 11.231-1.6513 16.766-1.1008 5.5346-2.7309 10.908-4.8903 16.122-2.1594 5.2134-4.8065 10.166-7.9414 14.858-3.1349 4.6918-6.6973 9.0329-10.687 13.023-3.99 3.9901-8.3308 7.5527-13.023 10.688-4.6917 3.135-9.6442 5.7822-14.857 7.9415-5.2132 2.1596-10.587 3.7897-16.121 4.8907-5.5343 1.1009-11.123 1.6513-16.765 1.6513-5.6427 0-11.231-0.5504-16.765-1.6513-5.5343-1.101-10.908-2.7311-16.121-4.8907-5.2132-2.1593-10.166-4.8065-14.857-7.9415-4.6917-3.135-9.0326-6.6976-13.023-10.688-3.99-3.9901-7.5524-8.3311-10.687-13.023-3.1349-4.6919-5.782-9.6445-7.9414-14.858-2.1594-5.2132-3.7895-10.587-4.8903-16.122-1.1008-5.5343-1.6512-11.123-1.6512-16.766z"/></clipPath><clipPath id="clipPath8472"><path d="m88.23 1142.9h174.14v174.15h-174.14z"/></clipPath><clipPath id="clipPath8478"><path d="m89.365 1230c-8e-6 -5.643 0.55041-11.232 1.6512-16.766s2.7309-10.908 4.8903-16.122c2.1594-5.2133 4.8065-10.166 7.9414-14.858s6.6974-9.0329 10.687-13.023c3.99-3.9901 8.3308-7.5527 13.023-10.688 4.6917-3.1351 9.6442-5.7823 14.857-7.9416 5.2132-2.1594 10.587-3.7896 16.121-4.8904 5.5343-1.101 11.123-1.6514 16.765-1.6514 5.6427 0 11.231 0.5504 16.765 1.6514 5.5342 1.1008 10.908 2.731 16.121 4.8904 5.2132 2.1593 10.166 4.8065 14.857 7.9415 4.6917 3.135 9.0326 6.6976 13.023 10.688 3.99 3.99 7.5524 8.331 10.687 13.023s5.782 9.6445 7.9414 14.858 3.7895 10.587 4.8903 16.122 1.6512 11.123 1.6513 16.766c-3e-5 5.6428-0.55045 11.231-1.6513 16.766-1.1008 5.5346-2.7309 10.908-4.8903 16.122-2.1594 5.2134-4.8065 10.166-7.9414 14.858-3.1349 4.6918-6.6973 9.0329-10.687 13.023-3.99 3.9901-8.3308 7.5527-13.023 10.688-4.6917 3.135-9.6442 5.7822-14.857 7.9415-5.2132 2.1596-10.587 3.7897-16.121 4.8907-5.5343 1.1009-11.123 1.6513-16.765 1.6513-5.6427 0-11.231-0.5504-16.765-1.6513-5.5343-1.101-10.908-2.7311-16.121-4.8907-5.2132-2.1593-10.166-4.8065-14.857-7.9415-4.6917-3.135-9.0326-6.6976-13.023-10.688-3.99-3.9901-7.5524-8.3311-10.687-13.023-3.1349-4.6919-5.782-9.6445-7.9414-14.858-2.1594-5.2132-3.7895-10.587-4.8903-16.122-1.1008-5.5343-1.6512-11.123-1.6512-16.766z"/></clipPath><clipPath id="clipPath8492"><path d="m0 0h2479.2v3507.7h-2479.2z"/></clipPath><clipPath id="clipPath8498"><path d="m0 0h2426v6868.5h-2426z"/></clipPath><clipPath id="clipPath8504"><path d="m88.23 1142.9h174.14v174.15h-174.14z"/></clipPath><clipPath id="clipPath8510"><path d="m89.365 1230c-8e-6 -5.643 0.55041-11.232 1.6512-16.766s2.7309-10.908 4.8903-16.122c2.1594-5.2133 4.8065-10.166 7.9414-14.858s6.6974-9.0329 10.687-13.023c3.99-3.9901 8.3308-7.5527 13.023-10.688 4.6917-3.1351 9.6442-5.7823 14.857-7.9416 5.2132-2.1594 10.587-3.7896 16.121-4.8904 5.5343-1.101 11.123-1.6514 16.765-1.6514 5.6427 0 11.231 0.5504 16.765 1.6514 5.5342 1.1008 10.908 2.731 16.121 4.8904 5.2132 2.1593 10.166 4.8065 14.857 7.9415 4.6917 3.135 9.0326 6.6976 13.023 10.688 3.99 3.99 7.5524 8.331 10.687 13.023s5.782 9.6445 7.9414 14.858 3.7895 10.587 4.8903 16.122 1.6512 11.123 1.6513 16.766c-3e-5 5.6428-0.55045 11.231-1.6513 16.766-1.1008 5.5346-2.7309 10.908-4.8903 16.122-2.1594 5.2134-4.8065 10.166-7.9414 14.858-3.1349 4.6918-6.6973 9.0329-10.687 13.023-3.99 3.9901-8.3308 7.5527-13.023 10.688-4.6917 3.135-9.6442 5.7822-14.857 7.9415-5.2132 2.1596-10.587 3.7897-16.121 4.8907-5.5343 1.1009-11.123 1.6513-16.765 1.6513-5.6427 0-11.231-0.5504-16.765-1.6513-5.5343-1.101-10.908-2.7311-16.121-4.8907-5.2132-2.1593-10.166-4.8065-14.857-7.9415-4.6917-3.135-9.0326-6.6976-13.023-10.688-3.99-3.9901-7.5524-8.3311-10.687-13.023-3.1349-4.6919-5.782-9.6445-7.9414-14.858-2.1594-5.2132-3.7895-10.587-4.8903-16.122-1.1008-5.5343-1.6512-11.123-1.6512-16.766z"/></clipPath><clipPath id="clipPath8524"><path d="m0 0h2426v3507.7h-2426z" clip-rule="evenodd"/></clipPath></defs><g transform="translate(-60.353 -110.67)"><g transform="matrix(.084667 0 0 .084667 52.914 13.932)"><g clip-path="url(#clipPath8418)"><g clip-path="url(#clipPath8424)"><g clip-path="url(#clipPath8430)"><g clip-path="url(#clipPath8436)"><g transform="matrix(3.0025 0 0 3.0026 175.3 1230)"><path d="m28.622 0c0 0.93741-0.04594 1.8726-0.13782 2.8055-0.09188 0.93289-0.22926 1.859-0.41214 2.7784-0.18288 0.9194-0.41037 1.8276-0.68249 2.7247-0.27212 0.89704-0.58754 1.7786-0.94627 2.6446-0.35873 0.86605-0.75904 1.7124-1.2009 2.5392-0.44189 0.82672-0.92324 1.6298-1.444 2.4092-0.5208 0.77943-1.0785 1.5315-1.6732 2.2561-0.59468 0.72463-1.2234 1.4184-1.8863 2.0812-0.66285 0.66285-1.3566 1.2916-2.0812 1.8863-0.72463 0.59468-1.4767 1.1524-2.2561 1.6732-0.77943 0.5208-1.5825 1.0021-2.4092 1.444-0.82672 0.44189-1.6731 0.8422-2.5392 1.2009-0.86605 0.35873-1.7476 0.67416-2.6446 0.94627-0.89704 0.27211-1.8053 0.49961-2.7247 0.68249-0.9194 0.18288-1.8455 0.32026-2.7784 0.41214-0.93289 0.091883-1.868 0.13782-2.8055 0.13782s-1.8726-0.04594-2.8055-0.13782c-0.93289-0.09188-1.859-0.22926-2.7784-0.41214-0.9194-0.18288-1.8276-0.41037-2.7247-0.68249-0.89704-0.27212-1.7786-0.58754-2.6446-0.94627-0.86605-0.35873-1.7124-0.75904-2.5392-1.2009-0.82672-0.44189-1.6298-0.92324-2.4092-1.444-0.77943-0.5208-1.5315-1.0785-2.2561-1.6732-0.72463-0.59468-1.4184-1.2234-2.0812-1.8863-0.66285-0.66285-1.2916-1.3566-1.8863-2.0812-0.59468-0.72463-1.1524-1.4767-1.6732-2.2561-0.5208-0.77943-1.0021-1.5825-1.444-2.4092-0.44189-0.82672-0.8422-1.6731-1.2009-2.5392-0.35873-0.86605-0.67416-1.7476-0.94627-2.6446-0.27211-0.89704-0.49961-1.8053-0.68249-2.7247-0.18288-0.9194-0.32026-1.8455-0.41214-2.7784-0.091883-0.93289-0.13782-1.868-0.13782-2.8055s0.04594-1.8726 0.13782-2.8055c0.09188-0.93289 0.22926-1.859 0.41214-2.7784 0.18288-0.9194 0.41037-1.8276 0.68249-2.7247 0.27212-0.89704 0.58754-1.7786 0.94627-2.6446 0.35873-0.86605 0.75904-1.7124 1.2009-2.5392 0.44189-0.82672 0.92324-1.6298 1.444-2.4092 0.5208-0.77943 1.0785-1.5315 1.6732-2.2561 0.59468-0.72463 1.2234-1.4184 1.8863-2.0812 0.66285-0.66285 1.3566-1.2916 2.0812-1.8863 0.72463-0.59468 1.4767-1.1524 2.2561-1.6732 0.77943-0.5208 1.5825-1.0021 2.4092-1.444 0.82672-0.44189 1.6731-0.8422 2.5392-1.2009 0.86605-0.35873 1.7476-0.67416 2.6446-0.94627 0.89704-0.27211 1.8053-0.49961 2.7247-0.68249 0.9194-0.18288 1.8455-0.32026 2.7784-0.41214 0.93289-0.09188 1.868-0.13782 2.8055-0.13782s1.8726 0.04594 2.8055 0.13782c0.93289 0.09188 1.859 0.22926 2.7784 0.41214 0.9194 0.18288 1.8276 0.41037 2.7247 0.68249 0.89704 0.27212 1.7786 0.58754 2.6446 0.94627 0.86605 0.35873 1.7124 0.75904 2.5392 1.2009 0.82672 0.44189 1.6298 0.92324 2.4092 1.444 0.77943 0.5208 1.5315 1.0785 2.2561 1.6732 0.72463 0.59468 1.4184 1.2234 2.0812 1.8863 0.66285 0.66285 1.2916 1.3566 1.8863 2.0812 0.59468 0.72463 1.1524 1.4767 1.6732 2.2561 0.5208 0.77943 1.0021 1.5825 1.444 2.4092 0.44189 0.82672 0.8422 1.6731 1.2009 2.5392 0.35873 0.86605 0.67416 1.7476 0.94627 2.6446 0.27211 0.89704 0.49961 1.8053 0.68249 2.7247 0.18288 0.9194 0.32026 1.8455 0.41214 2.7784 0.09188 0.93289 0.13782 1.868 0.13782 2.8055z" fill="#e4aa4f"/></g></g></g></g></g><g clip-path="url(#clipPath8448)"><g clip-path="url(#clipPath8454)"><g clip-path="url(#clipPath8460)"><g clip-path="url(#clipPath8466)"><g clip-path="url(#clipPath8472)"><g clip-path="url(#clipPath8478)"><g transform="matrix(3.0025 0 0 3.0026 175.3 1230)"><path d="m-50-8.8583h100v17.717h-100z" fill="#f1f1d9"/><path d="m-50-8.8583h100v17.717h-100z" fill="none" stroke="#000" stroke-miterlimit="10"/></g></g></g></g></g></g></g><g clip-path="url(#clipPath8492)"><g clip-path="url(#clipPath8498)"><g clip-path="url(#clipPath8504)"><g clip-path="url(#clipPath8510)"><g transform="matrix(3.1276 0 0 3.1277 175.3 1230)"><text transform="translate(-10.006 5.4566)" fill="#000000" font-family="Bitter" font-size="15.87px" font-weight="bold"><tspan x="0 9.5854797" y="0">SB</tspan></text></g></g></g></g></g><g clip-path="url(#clipPath8524)"><g transform="matrix(3.0025 0 0 3.0026 175.3 1230)"><path d="m28.622 0c0 0.93741-0.04594 1.8726-0.13782 2.8055-0.09188 0.93289-0.22926 1.859-0.41214 2.7784-0.18288 0.9194-0.41037 1.8276-0.68249 2.7247-0.27212 0.89704-0.58754 1.7786-0.94627 2.6446-0.35873 0.86605-0.75904 1.7124-1.2009 2.5392-0.44189 0.82672-0.92324 1.6298-1.444 2.4092-0.5208 0.77943-1.0785 1.5315-1.6732 2.2561-0.59468 0.72463-1.2234 1.4184-1.8863 2.0812-0.66285 0.66285-1.3566 1.2916-2.0812 1.8863-0.72463 0.59468-1.4767 1.1524-2.2561 1.6732-0.77943 0.5208-1.5825 1.0021-2.4092 1.444-0.82672 0.44189-1.6731 0.8422-2.5392 1.2009-0.86605 0.35873-1.7476 0.67416-2.6446 0.94627-0.89704 0.27211-1.8053 0.49961-2.7247 0.68249-0.9194 0.18288-1.8455 0.32026-2.7784 0.41214-0.93289 0.091883-1.868 0.13782-2.8055 0.13782s-1.8726-0.04594-2.8055-0.13782c-0.93289-0.09188-1.859-0.22926-2.7784-0.41214-0.9194-0.18288-1.8276-0.41037-2.7247-0.68249-0.89704-0.27212-1.7786-0.58754-2.6446-0.94627-0.86605-0.35873-1.7124-0.75904-2.5392-1.2009-0.82672-0.44189-1.6298-0.92324-2.4092-1.444-0.77943-0.5208-1.5315-1.0785-2.2561-1.6732-0.72463-0.59468-1.4184-1.2234-2.0812-1.8863-0.66285-0.66285-1.2916-1.3566-1.8863-2.0812-0.59468-0.72463-1.1524-1.4767-1.6732-2.2561-0.5208-0.77943-1.0021-1.5825-1.444-2.4092-0.44189-0.82672-0.8422-1.6731-1.2009-2.5392-0.35873-0.86605-0.67416-1.7476-0.94627-2.6446-0.27211-0.89704-0.49961-1.8053-0.68249-2.7247-0.18288-0.9194-0.32026-1.8455-0.41214-2.7784-0.091883-0.93289-0.13782-1.868-0.13782-2.8055s0.04594-1.8726 0.13782-2.8055c0.09188-0.93289 0.22926-1.859 0.41214-2.7784 0.18288-0.9194 0.41037-1.8276 0.68249-2.7247 0.27212-0.89704 0.58754-1.7786 0.94627-2.6446 0.35873-0.86605 0.75904-1.7124 1.2009-2.5392 0.44189-0.82672 0.92324-1.6298 1.444-2.4092 0.5208-0.77943 1.0785-1.5315 1.6732-2.2561 0.59468-0.72463 1.2234-1.4184 1.8863-2.0812 0.66285-0.66285 1.3566-1.2916 2.0812-1.8863 0.72463-0.59468 1.4767-1.1524 2.2561-1.6732 0.77943-0.5208 1.5825-1.0021 2.4092-1.444 0.82672-0.44189 1.6731-0.8422 2.5392-1.2009 0.86605-0.35873 1.7476-0.67416 2.6446-0.94627 0.89704-0.27211 1.8053-0.49961 2.7247-0.68249 0.9194-0.18288 1.8455-0.32026 2.7784-0.41214 0.93289-0.09188 1.868-0.13782 2.8055-0.13782s1.8726 0.04594 2.8055 0.13782c0.93289 0.09188 1.859 0.22926 2.7784 0.41214 0.9194 0.18288 1.8276 0.41037 2.7247 0.68249 0.89704 0.27212 1.7786 0.58754 2.6446 0.94627 0.86605 0.35873 1.7124 0.75904 2.5392 1.2009 0.82672 0.44189 1.6298 0.92324 2.4092 1.444 0.77943 0.5208 1.5315 1.0785 2.2561 1.6732 0.72463 0.59468 1.4184 1.2234 2.0812 1.8863 0.66285 0.66285 1.2916 1.3566 1.8863 2.0812 0.59468 0.72463 1.1524 1.4767 1.6732 2.2561 0.5208 0.77943 1.0021 1.5825 1.444 2.4092 0.44189 0.82672 0.8422 1.6731 1.2009 2.5392 0.35873 0.86605 0.67416 1.7476 0.94627 2.6446 0.27211 0.89704 0.49961 1.8053 0.68249 2.7247 0.18288 0.9194 0.32026 1.8455 0.41214 2.7784 0.09188 0.93289 0.13782 1.868 0.13782 2.8055z" fill="none" stroke="#000" stroke-miterlimit="10"/></g></g></g></g></svg>
