<?xml version="1.0" encoding="UTF-8"?>
<svg width="14.806mm" height="14.807mm" version="1.1" viewBox="0 0 14.806 14.807" xmlns="http://www.w3.org/2000/svg"><defs><clipPath id="clipPath11202"><path d="m0 0h2479.2v3507.7h-2479.2z"/></clipPath><clipPath id="clipPath11208"><path d="m0 0h2426v6868.5h-2426z"/></clipPath><clipPath id="clipPath11214"><path d="m88.23 1503.2h174.14v174.15h-174.14z"/></clipPath><clipPath id="clipPath11220"><path d="m89.365 1590.3c-8e-6 -5.6429 0.55041-11.232 1.6512-16.766 1.1008-5.5344 2.7309-10.908 4.8903-16.122 2.1594-5.2133 4.8065-10.166 7.9414-14.858 3.1349-4.6917 6.6974-9.0327 10.687-13.023 3.99-3.9901 8.3308-7.5527 13.023-10.688 4.6917-3.1351 9.6442-5.7823 14.857-7.9418 5.2132-2.1593 10.587-3.7894 16.121-4.8904 5.5343-1.1007 11.123-1.6511 16.765-1.6511 5.6427 0 11.231 0.5504 16.765 1.6511 5.5342 1.101 10.908 2.7311 16.121 4.8904 5.2132 2.1595 10.166 4.8067 14.857 7.9416 4.6917 3.1352 9.0326 6.6978 13.023 10.688 3.99 3.9901 7.5524 8.3311 10.687 13.023 3.1349 4.6919 5.782 9.6446 7.9414 14.858 2.1594 5.2133 3.7895 10.587 4.8903 16.122 1.1008 5.5346 1.6512 11.123 1.6513 16.766-3e-5 5.6427-0.55045 11.231-1.6513 16.766-1.1008 5.5344-2.7309 10.908-4.8903 16.122-2.1594 5.2132-4.8065 10.166-7.9414 14.858-3.1349 4.6918-6.6973 9.0329-10.687 13.023-3.99 3.9901-8.3308 7.5526-13.023 10.688-4.6917 3.1349-9.6442 5.7821-14.857 7.9417-5.2132 2.1595-10.587 3.7897-16.121 4.8905-5.5343 1.1009-11.123 1.6515-16.765 1.6515-5.6427 0-11.231-0.5504-16.765-1.6514-5.5343-1.1009-10.908-2.7311-16.121-4.8905-5.2132-2.1595-10.166-4.8067-14.857-7.9418-4.6917-3.135-9.0326-6.6975-13.023-10.688-3.99-3.9901-7.5524-8.3312-10.687-13.023-3.1349-4.6919-5.782-9.6446-7.9414-14.858-2.1594-5.2133-3.7895-10.587-4.8903-16.122-1.1008-5.5345-1.6512-11.123-1.6512-16.766z"/></clipPath><clipPath id="clipPath11232"><path d="m0 0h2479.2v3507.7h-2479.2z"/></clipPath><clipPath id="clipPath11238"><path d="m0 0h2426v6868.5h-2426z"/></clipPath><clipPath id="clipPath11244"><path d="m88.23 1503.2h174.14v174.15h-174.14z"/></clipPath><clipPath id="clipPath11250"><path d="m89.365 1590.3c-8e-6 -5.6429 0.55041-11.232 1.6512-16.766 1.1008-5.5344 2.7309-10.908 4.8903-16.122 2.1594-5.2133 4.8065-10.166 7.9414-14.858 3.1349-4.6917 6.6974-9.0327 10.687-13.023 3.99-3.9901 8.3308-7.5527 13.023-10.688 4.6917-3.1351 9.6442-5.7823 14.857-7.9418 5.2132-2.1593 10.587-3.7894 16.121-4.8904 5.5343-1.1007 11.123-1.6511 16.765-1.6511 5.6427 0 11.231 0.5504 16.765 1.6511 5.5342 1.101 10.908 2.7311 16.121 4.8904 5.2132 2.1595 10.166 4.8067 14.857 7.9416 4.6917 3.1352 9.0326 6.6978 13.023 10.688 3.99 3.9901 7.5524 8.3311 10.687 13.023 3.1349 4.6919 5.782 9.6446 7.9414 14.858 2.1594 5.2133 3.7895 10.587 4.8903 16.122 1.1008 5.5346 1.6512 11.123 1.6513 16.766-3e-5 5.6427-0.55045 11.231-1.6513 16.766-1.1008 5.5344-2.7309 10.908-4.8903 16.122-2.1594 5.2132-4.8065 10.166-7.9414 14.858-3.1349 4.6918-6.6973 9.0329-10.687 13.023-3.99 3.9901-8.3308 7.5526-13.023 10.688-4.6917 3.1349-9.6442 5.7821-14.857 7.9417-5.2132 2.1595-10.587 3.7897-16.121 4.8905-5.5343 1.1009-11.123 1.6515-16.765 1.6515-5.6427 0-11.231-0.5504-16.765-1.6514-5.5343-1.1009-10.908-2.7311-16.121-4.8905-5.2132-2.1595-10.166-4.8067-14.857-7.9418-4.6917-3.135-9.0326-6.6975-13.023-10.688-3.99-3.9901-7.5524-8.3312-10.687-13.023-3.1349-4.6919-5.782-9.6446-7.9414-14.858-2.1594-5.2133-3.7895-10.587-4.8903-16.122-1.1008-5.5345-1.6512-11.123-1.6512-16.766z"/></clipPath><clipPath id="clipPath11256"><path d="m88.23 1503.2h174.14v174.15h-174.14z"/></clipPath><clipPath id="clipPath11262"><path d="m89.365 1590.3c-8e-6 -5.6429 0.55041-11.232 1.6512-16.766 1.1008-5.5344 2.7309-10.908 4.8903-16.122 2.1594-5.2133 4.8065-10.166 7.9414-14.858 3.1349-4.6917 6.6974-9.0327 10.687-13.023 3.99-3.9901 8.3308-7.5527 13.023-10.688 4.6917-3.1351 9.6442-5.7823 14.857-7.9418 5.2132-2.1593 10.587-3.7894 16.121-4.8904 5.5343-1.1007 11.123-1.6511 16.765-1.6511 5.6427 0 11.231 0.5504 16.765 1.6511 5.5342 1.101 10.908 2.7311 16.121 4.8904 5.2132 2.1595 10.166 4.8067 14.857 7.9416 4.6917 3.1352 9.0326 6.6978 13.023 10.688 3.99 3.9901 7.5524 8.3311 10.687 13.023 3.1349 4.6919 5.782 9.6446 7.9414 14.858 2.1594 5.2133 3.7895 10.587 4.8903 16.122 1.1008 5.5346 1.6512 11.123 1.6513 16.766-3e-5 5.6427-0.55045 11.231-1.6513 16.766-1.1008 5.5344-2.7309 10.908-4.8903 16.122-2.1594 5.2132-4.8065 10.166-7.9414 14.858-3.1349 4.6918-6.6973 9.0329-10.687 13.023-3.99 3.9901-8.3308 7.5526-13.023 10.688-4.6917 3.1349-9.6442 5.7821-14.857 7.9417-5.2132 2.1595-10.587 3.7897-16.121 4.8905-5.5343 1.1009-11.123 1.6515-16.765 1.6515-5.6427 0-11.231-0.5504-16.765-1.6514-5.5343-1.1009-10.908-2.7311-16.121-4.8905-5.2132-2.1595-10.166-4.8067-14.857-7.9418-4.6917-3.135-9.0326-6.6975-13.023-10.688-3.99-3.9901-7.5524-8.3312-10.687-13.023-3.1349-4.6919-5.782-9.6446-7.9414-14.858-2.1594-5.2133-3.7895-10.587-4.8903-16.122-1.1008-5.5345-1.6512-11.123-1.6512-16.766z"/></clipPath><clipPath id="clipPath11274"><path d="m0 0h2479.2v3507.7h-2479.2z"/></clipPath><clipPath id="clipPath11280"><path d="m0 0h2426v6868.5h-2426z"/></clipPath><clipPath id="clipPath11286"><path d="m88.23 1503.2h174.14v174.15h-174.14z"/></clipPath><clipPath id="clipPath11292"><path d="m89.365 1590.3c-8e-6 -5.6429 0.55041-11.232 1.6512-16.766 1.1008-5.5344 2.7309-10.908 4.8903-16.122 2.1594-5.2133 4.8065-10.166 7.9414-14.858 3.1349-4.6917 6.6974-9.0327 10.687-13.023 3.99-3.9901 8.3308-7.5527 13.023-10.688 4.6917-3.1351 9.6442-5.7823 14.857-7.9418 5.2132-2.1593 10.587-3.7894 16.121-4.8904 5.5343-1.1007 11.123-1.6511 16.765-1.6511 5.6427 0 11.231 0.5504 16.765 1.6511 5.5342 1.101 10.908 2.7311 16.121 4.8904 5.2132 2.1595 10.166 4.8067 14.857 7.9416 4.6917 3.1352 9.0326 6.6978 13.023 10.688 3.99 3.9901 7.5524 8.3311 10.687 13.023 3.1349 4.6919 5.782 9.6446 7.9414 14.858 2.1594 5.2133 3.7895 10.587 4.8903 16.122 1.1008 5.5346 1.6512 11.123 1.6513 16.766-3e-5 5.6427-0.55045 11.231-1.6513 16.766-1.1008 5.5344-2.7309 10.908-4.8903 16.122-2.1594 5.2132-4.8065 10.166-7.9414 14.858-3.1349 4.6918-6.6973 9.0329-10.687 13.023-3.99 3.9901-8.3308 7.5526-13.023 10.688-4.6917 3.1349-9.6442 5.7821-14.857 7.9417-5.2132 2.1595-10.587 3.7897-16.121 4.8905-5.5343 1.1009-11.123 1.6515-16.765 1.6515-5.6427 0-11.231-0.5504-16.765-1.6514-5.5343-1.1009-10.908-2.7311-16.121-4.8905-5.2132-2.1595-10.166-4.8067-14.857-7.9418-4.6917-3.135-9.0326-6.6975-13.023-10.688-3.99-3.9901-7.5524-8.3312-10.687-13.023-3.1349-4.6919-5.782-9.6446-7.9414-14.858-2.1594-5.2133-3.7895-10.587-4.8903-16.122-1.1008-5.5345-1.6512-11.123-1.6512-16.766z"/></clipPath><clipPath id="clipPath11298"><path d="m88.23 1503.2h174.14v174.15h-174.14z"/></clipPath><clipPath id="clipPath11304"><path d="m89.365 1590.3c-8e-6 -5.6429 0.55041-11.232 1.6512-16.766 1.1008-5.5344 2.7309-10.908 4.8903-16.122 2.1594-5.2133 4.8065-10.166 7.9414-14.858 3.1349-4.6917 6.6974-9.0327 10.687-13.023 3.99-3.9901 8.3308-7.5527 13.023-10.688 4.6917-3.1351 9.6442-5.7823 14.857-7.9418 5.2132-2.1593 10.587-3.7894 16.121-4.8904 5.5343-1.1007 11.123-1.6511 16.765-1.6511 5.6427 0 11.231 0.5504 16.765 1.6511 5.5342 1.101 10.908 2.7311 16.121 4.8904 5.2132 2.1595 10.166 4.8067 14.857 7.9416 4.6917 3.1352 9.0326 6.6978 13.023 10.688 3.99 3.9901 7.5524 8.3311 10.687 13.023 3.1349 4.6919 5.782 9.6446 7.9414 14.858 2.1594 5.2133 3.7895 10.587 4.8903 16.122 1.1008 5.5346 1.6512 11.123 1.6513 16.766-3e-5 5.6427-0.55045 11.231-1.6513 16.766-1.1008 5.5344-2.7309 10.908-4.8903 16.122-2.1594 5.2132-4.8065 10.166-7.9414 14.858-3.1349 4.6918-6.6973 9.0329-10.687 13.023-3.99 3.9901-8.3308 7.5526-13.023 10.688-4.6917 3.1349-9.6442 5.7821-14.857 7.9417-5.2132 2.1595-10.587 3.7897-16.121 4.8905-5.5343 1.1009-11.123 1.6515-16.765 1.6515-5.6427 0-11.231-0.5504-16.765-1.6514-5.5343-1.1009-10.908-2.7311-16.121-4.8905-5.2132-2.1595-10.166-4.8067-14.857-7.9418-4.6917-3.135-9.0326-6.6975-13.023-10.688-3.99-3.9901-7.5524-8.3312-10.687-13.023-3.1349-4.6919-5.782-9.6446-7.9414-14.858-2.1594-5.2133-3.7895-10.587-4.8903-16.122-1.1008-5.5345-1.6512-11.123-1.6512-16.766z"/></clipPath><clipPath id="clipPath11316"><path d="m0 0h2479.2v3507.7h-2479.2z"/></clipPath><clipPath id="clipPath11322"><path d="m0 0h2426v6868.5h-2426z"/></clipPath><clipPath id="clipPath11328"><path d="m88.23 1503.2h174.14v174.15h-174.14z"/></clipPath><clipPath id="clipPath11334"><path d="m89.365 1590.3c-8e-6 -5.6429 0.55041-11.232 1.6512-16.766 1.1008-5.5344 2.7309-10.908 4.8903-16.122 2.1594-5.2133 4.8065-10.166 7.9414-14.858 3.1349-4.6917 6.6974-9.0327 10.687-13.023 3.99-3.9901 8.3308-7.5527 13.023-10.688 4.6917-3.1351 9.6442-5.7823 14.857-7.9418 5.2132-2.1593 10.587-3.7894 16.121-4.8904 5.5343-1.1007 11.123-1.6511 16.765-1.6511 5.6427 0 11.231 0.5504 16.765 1.6511 5.5342 1.101 10.908 2.7311 16.121 4.8904 5.2132 2.1595 10.166 4.8067 14.857 7.9416 4.6917 3.1352 9.0326 6.6978 13.023 10.688 3.99 3.9901 7.5524 8.3311 10.687 13.023 3.1349 4.6919 5.782 9.6446 7.9414 14.858 2.1594 5.2133 3.7895 10.587 4.8903 16.122 1.1008 5.5346 1.6512 11.123 1.6513 16.766-3e-5 5.6427-0.55045 11.231-1.6513 16.766-1.1008 5.5344-2.7309 10.908-4.8903 16.122-2.1594 5.2132-4.8065 10.166-7.9414 14.858-3.1349 4.6918-6.6973 9.0329-10.687 13.023-3.99 3.9901-8.3308 7.5526-13.023 10.688-4.6917 3.1349-9.6442 5.7821-14.857 7.9417-5.2132 2.1595-10.587 3.7897-16.121 4.8905-5.5343 1.1009-11.123 1.6515-16.765 1.6515-5.6427 0-11.231-0.5504-16.765-1.6514-5.5343-1.1009-10.908-2.7311-16.121-4.8905-5.2132-2.1595-10.166-4.8067-14.857-7.9418-4.6917-3.135-9.0326-6.6975-13.023-10.688-3.99-3.9901-7.5524-8.3312-10.687-13.023-3.1349-4.6919-5.782-9.6446-7.9414-14.858-2.1594-5.2133-3.7895-10.587-4.8903-16.122-1.1008-5.5345-1.6512-11.123-1.6512-16.766z"/></clipPath><clipPath id="clipPath11340"><path d="m88.23 1503.2h174.14v174.15h-174.14z"/></clipPath><clipPath id="clipPath11346"><path d="m89.365 1590.3c-8e-6 -5.6429 0.55041-11.232 1.6512-16.766 1.1008-5.5344 2.7309-10.908 4.8903-16.122 2.1594-5.2133 4.8065-10.166 7.9414-14.858 3.1349-4.6917 6.6974-9.0327 10.687-13.023 3.99-3.9901 8.3308-7.5527 13.023-10.688 4.6917-3.1351 9.6442-5.7823 14.857-7.9418 5.2132-2.1593 10.587-3.7894 16.121-4.8904 5.5343-1.1007 11.123-1.6511 16.765-1.6511 5.6427 0 11.231 0.5504 16.765 1.6511 5.5342 1.101 10.908 2.7311 16.121 4.8904 5.2132 2.1595 10.166 4.8067 14.857 7.9416 4.6917 3.1352 9.0326 6.6978 13.023 10.688 3.99 3.9901 7.5524 8.3311 10.687 13.023 3.1349 4.6919 5.782 9.6446 7.9414 14.858 2.1594 5.2133 3.7895 10.587 4.8903 16.122 1.1008 5.5346 1.6512 11.123 1.6513 16.766-3e-5 5.6427-0.55045 11.231-1.6513 16.766-1.1008 5.5344-2.7309 10.908-4.8903 16.122-2.1594 5.2132-4.8065 10.166-7.9414 14.858-3.1349 4.6918-6.6973 9.0329-10.687 13.023-3.99 3.9901-8.3308 7.5526-13.023 10.688-4.6917 3.1349-9.6442 5.7821-14.857 7.9417-5.2132 2.1595-10.587 3.7897-16.121 4.8905-5.5343 1.1009-11.123 1.6515-16.765 1.6515-5.6427 0-11.231-0.5504-16.765-1.6514-5.5343-1.1009-10.908-2.7311-16.121-4.8905-5.2132-2.1595-10.166-4.8067-14.857-7.9418-4.6917-3.135-9.0326-6.6975-13.023-10.688-3.99-3.9901-7.5524-8.3312-10.687-13.023-3.1349-4.6919-5.782-9.6446-7.9414-14.858-2.1594-5.2133-3.7895-10.587-4.8903-16.122-1.1008-5.5345-1.6512-11.123-1.6512-16.766z"/></clipPath><clipPath id="clipPath11360"><path d="m0 0h2479.2v3507.7h-2479.2z"/></clipPath><clipPath id="clipPath11366"><path d="m0 0h2426v6868.5h-2426z"/></clipPath><clipPath id="clipPath11372"><path d="m88.23 1503.2h174.14v174.15h-174.14z"/></clipPath><clipPath id="clipPath11378"><path d="m89.365 1590.3c-8e-6 -5.6429 0.55041-11.232 1.6512-16.766 1.1008-5.5344 2.7309-10.908 4.8903-16.122 2.1594-5.2133 4.8065-10.166 7.9414-14.858 3.1349-4.6917 6.6974-9.0327 10.687-13.023 3.99-3.9901 8.3308-7.5527 13.023-10.688 4.6917-3.1351 9.6442-5.7823 14.857-7.9418 5.2132-2.1593 10.587-3.7894 16.121-4.8904 5.5343-1.1007 11.123-1.6511 16.765-1.6511 5.6427 0 11.231 0.5504 16.765 1.6511 5.5342 1.101 10.908 2.7311 16.121 4.8904 5.2132 2.1595 10.166 4.8067 14.857 7.9416 4.6917 3.1352 9.0326 6.6978 13.023 10.688 3.99 3.9901 7.5524 8.3311 10.687 13.023 3.1349 4.6919 5.782 9.6446 7.9414 14.858 2.1594 5.2133 3.7895 10.587 4.8903 16.122 1.1008 5.5346 1.6512 11.123 1.6513 16.766-3e-5 5.6427-0.55045 11.231-1.6513 16.766-1.1008 5.5344-2.7309 10.908-4.8903 16.122-2.1594 5.2132-4.8065 10.166-7.9414 14.858-3.1349 4.6918-6.6973 9.0329-10.687 13.023-3.99 3.9901-8.3308 7.5526-13.023 10.688-4.6917 3.1349-9.6442 5.7821-14.857 7.9417-5.2132 2.1595-10.587 3.7897-16.121 4.8905-5.5343 1.1009-11.123 1.6515-16.765 1.6515-5.6427 0-11.231-0.5504-16.765-1.6514-5.5343-1.1009-10.908-2.7311-16.121-4.8905-5.2132-2.1595-10.166-4.8067-14.857-7.9418-4.6917-3.135-9.0326-6.6975-13.023-10.688-3.99-3.9901-7.5524-8.3312-10.687-13.023-3.1349-4.6919-5.782-9.6446-7.9414-14.858-2.1594-5.2133-3.7895-10.587-4.8903-16.122-1.1008-5.5345-1.6512-11.123-1.6512-16.766z"/></clipPath><clipPath id="clipPath11392"><path d="m0 0h2426v3507.7h-2426z" clip-rule="evenodd"/></clipPath></defs><g transform="translate(-54.193 -115.02)"><g transform="matrix(.084667 0 0 .084667 46.754 -12.221)"><g clip-path="url(#clipPath11202)"><g clip-path="url(#clipPath11208)"><g clip-path="url(#clipPath11214)"><g clip-path="url(#clipPath11220)"><g transform="matrix(3.0025 0 0 3.0026 175.3 1590.3)"><path d="m28.622 0c0 0.93741-0.04594 1.8726-0.13782 2.8055-0.09188 0.93289-0.22926 1.859-0.41214 2.7784-0.18288 0.9194-0.41037 1.8276-0.68249 2.7247-0.27212 0.89704-0.58754 1.7786-0.94627 2.6446-0.35873 0.86605-0.75904 1.7124-1.2009 2.5392-0.44189 0.82672-0.92324 1.6298-1.444 2.4092-0.5208 0.77943-1.0785 1.5315-1.6732 2.2561-0.59468 0.72463-1.2234 1.4184-1.8863 2.0812-0.66285 0.66285-1.3566 1.2916-2.0812 1.8863-0.72463 0.59468-1.4767 1.1524-2.2561 1.6732-0.77943 0.5208-1.5825 1.0021-2.4092 1.444-0.82672 0.44189-1.6731 0.8422-2.5392 1.2009-0.86605 0.35873-1.7476 0.67416-2.6446 0.94627-0.89704 0.27211-1.8053 0.49961-2.7247 0.68249-0.9194 0.18288-1.8455 0.32026-2.7784 0.41214-0.93289 0.091883-1.868 0.13782-2.8055 0.13782s-1.8726-0.04594-2.8055-0.13782c-0.93289-0.09188-1.859-0.22926-2.7784-0.41214-0.9194-0.18288-1.8276-0.41037-2.7247-0.68249-0.89704-0.27212-1.7786-0.58754-2.6446-0.94627-0.86605-0.35873-1.7124-0.75904-2.5392-1.2009-0.82672-0.44189-1.6298-0.92324-2.4092-1.444-0.77943-0.5208-1.5315-1.0785-2.2561-1.6732-0.72463-0.59468-1.4184-1.2234-2.0812-1.8863-0.66285-0.66285-1.2916-1.3566-1.8863-2.0812-0.59468-0.72463-1.1524-1.4767-1.6732-2.2561-0.5208-0.77943-1.0021-1.5825-1.444-2.4092-0.44189-0.82672-0.8422-1.6731-1.2009-2.5392-0.35873-0.86605-0.67416-1.7476-0.94627-2.6446-0.27211-0.89704-0.49961-1.8053-0.68249-2.7247-0.18288-0.9194-0.32026-1.8455-0.41214-2.7784-0.091883-0.93289-0.13782-1.868-0.13782-2.8055s0.04594-1.8726 0.13782-2.8055c0.09188-0.93289 0.22926-1.859 0.41214-2.7784 0.18288-0.9194 0.41037-1.8276 0.68249-2.7247 0.27212-0.89704 0.58754-1.7786 0.94627-2.6446 0.35873-0.86605 0.75904-1.7124 1.2009-2.5392 0.44189-0.82672 0.92324-1.6298 1.444-2.4092 0.5208-0.77943 1.0785-1.5315 1.6732-2.2561 0.59468-0.72463 1.2234-1.4184 1.8863-2.0812 0.66285-0.66285 1.3566-1.2916 2.0812-1.8863 0.72463-0.59468 1.4767-1.1524 2.2561-1.6732 0.77943-0.5208 1.5825-1.0021 2.4092-1.444 0.82672-0.44189 1.6731-0.8422 2.5392-1.2009 0.86605-0.35873 1.7476-0.67416 2.6446-0.94627 0.89704-0.27211 1.8053-0.49961 2.7247-0.68249 0.9194-0.18288 1.8455-0.32026 2.7784-0.41214 0.93289-0.09188 1.868-0.13782 2.8055-0.13782s1.8726 0.04594 2.8055 0.13782c0.93289 0.09188 1.859 0.22926 2.7784 0.41214 0.9194 0.18288 1.8276 0.41037 2.7247 0.68249 0.89704 0.27212 1.7786 0.58754 2.6446 0.94627 0.86605 0.35873 1.7124 0.75904 2.5392 1.2009 0.82672 0.44189 1.6298 0.92324 2.4092 1.444 0.77943 0.5208 1.5315 1.0785 2.2561 1.6732 0.72463 0.59468 1.4184 1.2234 2.0812 1.8863 0.66285 0.66285 1.2916 1.3566 1.8863 2.0812 0.59468 0.72463 1.1524 1.4767 1.6732 2.2561 0.5208 0.77943 1.0021 1.5825 1.444 2.4092 0.44189 0.82672 0.8422 1.6731 1.2009 2.5392 0.35873 0.86605 0.67416 1.7476 0.94627 2.6446 0.27211 0.89704 0.49961 1.8053 0.68249 2.7247 0.18288 0.9194 0.32026 1.8455 0.41214 2.7784 0.09188 0.93289 0.13782 1.868 0.13782 2.8055z" fill="#71cfeb"/></g></g></g></g></g><g clip-path="url(#clipPath11232)"><g clip-path="url(#clipPath11238)"><g clip-path="url(#clipPath11244)"><g clip-path="url(#clipPath11250)"><g clip-path="url(#clipPath11256)"><g clip-path="url(#clipPath11262)"><g transform="matrix(3.0025 0 0 3.0026 175.3 1590.3)"><path d="m-50-17.717h100v5.9055h-100z" fill="#fff"/></g></g></g></g></g></g></g><g clip-path="url(#clipPath11274)"><g clip-path="url(#clipPath11280)"><g clip-path="url(#clipPath11286)"><g clip-path="url(#clipPath11292)"><g clip-path="url(#clipPath11298)"><g clip-path="url(#clipPath11304)"><g transform="matrix(3.0025 0 0 3.0026 175.3 1590.3)"><path d="m-50 11.811h100v5.9055h-100z" fill="#fff"/></g></g></g></g></g></g></g><g clip-path="url(#clipPath11316)"><g clip-path="url(#clipPath11322)"><g clip-path="url(#clipPath11328)"><g clip-path="url(#clipPath11334)"><g clip-path="url(#clipPath11340)"><g clip-path="url(#clipPath11346)"><g transform="matrix(3.0025 0 0 3.0026 175.3 1590.3)"><path d="m-50-8.8583h100v17.717h-100z" fill="#f1f1d9"/><path d="m-50-8.8583h100v17.717h-100z" fill="none" stroke="#000" stroke-miterlimit="10"/></g></g></g></g></g></g></g><g clip-path="url(#clipPath11360)"><g clip-path="url(#clipPath11366)"><g clip-path="url(#clipPath11372)"><g clip-path="url(#clipPath11378)"><g transform="matrix(3.1276 0 0 3.1277 175.3 1590.3)"><text transform="translate(-13.68 5.4566)" fill="#000000" font-family="Bitter" font-size="15.87px" font-weight="bold"><tspan x="0 9.5854797 18.79007" y="0">SFL</tspan></text></g></g></g></g></g><g clip-path="url(#clipPath11392)"><g transform="matrix(3.0025 0 0 3.0026 175.3 1590.3)"><path d="m28.622 0c0 0.93741-0.04594 1.8726-0.13782 2.8055-0.09188 0.93289-0.22926 1.859-0.41214 2.7784-0.18288 0.9194-0.41037 1.8276-0.68249 2.7247-0.27212 0.89704-0.58754 1.7786-0.94627 2.6446-0.35873 0.86605-0.75904 1.7124-1.2009 2.5392-0.44189 0.82672-0.92324 1.6298-1.444 2.4092-0.5208 0.77943-1.0785 1.5315-1.6732 2.2561-0.59468 0.72463-1.2234 1.4184-1.8863 2.0812-0.66285 0.66285-1.3566 1.2916-2.0812 1.8863-0.72463 0.59468-1.4767 1.1524-2.2561 1.6732-0.77943 0.5208-1.5825 1.0021-2.4092 1.444-0.82672 0.44189-1.6731 0.8422-2.5392 1.2009-0.86605 0.35873-1.7476 0.67416-2.6446 0.94627-0.89704 0.27211-1.8053 0.49961-2.7247 0.68249-0.9194 0.18288-1.8455 0.32026-2.7784 0.41214-0.93289 0.091883-1.868 0.13782-2.8055 0.13782s-1.8726-0.04594-2.8055-0.13782c-0.93289-0.09188-1.859-0.22926-2.7784-0.41214-0.9194-0.18288-1.8276-0.41037-2.7247-0.68249-0.89704-0.27212-1.7786-0.58754-2.6446-0.94627-0.86605-0.35873-1.7124-0.75904-2.5392-1.2009-0.82672-0.44189-1.6298-0.92324-2.4092-1.444-0.77943-0.5208-1.5315-1.0785-2.2561-1.6732-0.72463-0.59468-1.4184-1.2234-2.0812-1.8863-0.66285-0.66285-1.2916-1.3566-1.8863-2.0812-0.59468-0.72463-1.1524-1.4767-1.6732-2.2561-0.5208-0.77943-1.0021-1.5825-1.444-2.4092-0.44189-0.82672-0.8422-1.6731-1.2009-2.5392-0.35873-0.86605-0.67416-1.7476-0.94627-2.6446-0.27211-0.89704-0.49961-1.8053-0.68249-2.7247-0.18288-0.9194-0.32026-1.8455-0.41214-2.7784-0.091883-0.93289-0.13782-1.868-0.13782-2.8055s0.04594-1.8726 0.13782-2.8055c0.09188-0.93289 0.22926-1.859 0.41214-2.7784 0.18288-0.9194 0.41037-1.8276 0.68249-2.7247 0.27212-0.89704 0.58754-1.7786 0.94627-2.6446 0.35873-0.86605 0.75904-1.7124 1.2009-2.5392 0.44189-0.82672 0.92324-1.6298 1.444-2.4092 0.5208-0.77943 1.0785-1.5315 1.6732-2.2561 0.59468-0.72463 1.2234-1.4184 1.8863-2.0812 0.66285-0.66285 1.3566-1.2916 2.0812-1.8863 0.72463-0.59468 1.4767-1.1524 2.2561-1.6732 0.77943-0.5208 1.5825-1.0021 2.4092-1.444 0.82672-0.44189 1.6731-0.8422 2.5392-1.2009 0.86605-0.35873 1.7476-0.67416 2.6446-0.94627 0.89704-0.27211 1.8053-0.49961 2.7247-0.68249 0.9194-0.18288 1.8455-0.32026 2.7784-0.41214 0.93289-0.09188 1.868-0.13782 2.8055-0.13782s1.8726 0.04594 2.8055 0.13782c0.93289 0.09188 1.859 0.22926 2.7784 0.41214 0.9194 0.18288 1.8276 0.41037 2.7247 0.68249 0.89704 0.27212 1.7786 0.58754 2.6446 0.94627 0.86605 0.35873 1.7124 0.75904 2.5392 1.2009 0.82672 0.44189 1.6298 0.92324 2.4092 1.444 0.77943 0.5208 1.5315 1.0785 2.2561 1.6732 0.72463 0.59468 1.4184 1.2234 2.0812 1.8863 0.66285 0.66285 1.2916 1.3566 1.8863 2.0812 0.59468 0.72463 1.1524 1.4767 1.6732 2.2561 0.5208 0.77943 1.0021 1.5825 1.444 2.4092 0.44189 0.82672 0.8422 1.6731 1.2009 2.5392 0.35873 0.86605 0.67416 1.7476 0.94627 2.6446 0.27211 0.89704 0.49961 1.8053 0.68249 2.7247 0.18288 0.9194 0.32026 1.8455 0.41214 2.7784 0.09188 0.93289 0.13782 1.868 0.13782 2.8055z" fill="none" stroke="#000" stroke-miterlimit="10"/></g></g></g></g></svg>
