<?xml version="1.0" encoding="UTF-8"?>
<svg width="14.806mm" height="14.807mm" version="1.1" viewBox="0 0 14.806 14.807" xmlns="http://www.w3.org/2000/svg"><defs><clipPath id="clipPath7484"><path d="m0 0h2479.2v3507.7h-2479.2z"/></clipPath><clipPath id="clipPath7490"><path d="m0 0h2426v6868.5h-2426z"/></clipPath><clipPath id="clipPath7496"><path d="m628.67 962.78h174.14v174.15h-174.14z"/></clipPath><clipPath id="clipPath7502"><path d="m629.81 1049.9c-6e-5 -5.6429 0.55035-11.232 1.6512-16.766 1.1008-5.5345 2.7309-10.908 4.8902-16.122 2.1594-5.2133 4.8065-10.166 7.9415-14.858 3.135-4.6919 6.6974-9.0329 10.687-13.023 3.9899-3.9901 8.3308-7.5527 13.023-10.688 4.6917-3.1351 9.6441-5.7823 14.857-7.9416 5.2131-2.1594 10.587-3.7895 16.121-4.8904 5.5343-1.1008 11.123-1.6512 16.766-1.6512 5.6426 0 11.231 0.55042 16.765 1.6513s10.908 2.731 16.121 4.8904c5.2131 2.1594 10.166 4.8066 14.857 7.9416 4.6918 3.135 9.0326 6.6975 13.023 10.688 3.9899 3.99 7.5524 8.3311 10.687 13.023 3.135 4.6919 5.7821 9.6445 7.9415 14.858 2.1594 5.2133 3.7894 10.587 4.8903 16.122 1.1008 5.5344 1.6512 11.123 1.6513 16.766-6e-5 5.6428-0.55047 11.232-1.6514 16.766-1.1008 5.5343-2.7309 10.908-4.8903 16.122-2.1594 5.2132-4.8065 10.166-7.9415 14.858-3.1349 4.6919-6.6973 9.0329-10.687 13.023-3.99 3.9901-8.3309 7.5528-13.023 10.688-4.6917 3.1348-9.6441 5.7821-14.857 7.9415-5.2132 2.1594-10.587 3.7895-16.121 4.8905-5.5342 1.1009-11.123 1.6513-16.765 1.6515-5.6427-2e-4 -11.231-0.5506-16.766-1.6515-5.5343-1.101-10.908-2.7311-16.121-4.8905-5.2132-2.1594-10.166-4.8067-14.857-7.9415-4.6917-3.1349-9.0325-6.6976-13.022-10.688-3.99-3.9901-7.5524-8.3311-10.687-13.023-3.1349-4.6919-5.782-9.6446-7.9414-14.858-2.1594-5.2133-3.7894-10.587-4.8903-16.122-1.1008-5.5345-1.6512-11.123-1.6512-16.766z"/></clipPath><clipPath id="clipPath7514"><path d="m0 0h2479.2v3507.7h-2479.2z"/></clipPath><clipPath id="clipPath7520"><path d="m0 0h2426v6868.5h-2426z"/></clipPath><clipPath id="clipPath7526"><path d="m628.67 962.78h174.14v174.15h-174.14z"/></clipPath><clipPath id="clipPath7532"><path d="m629.81 1049.9c-6e-5 -5.6429 0.55035-11.232 1.6512-16.766 1.1008-5.5345 2.7309-10.908 4.8902-16.122 2.1594-5.2133 4.8065-10.166 7.9415-14.858 3.135-4.6919 6.6974-9.0329 10.687-13.023 3.9899-3.9901 8.3308-7.5527 13.023-10.688 4.6917-3.1351 9.6441-5.7823 14.857-7.9416 5.2131-2.1594 10.587-3.7895 16.121-4.8904 5.5343-1.1008 11.123-1.6512 16.766-1.6512 5.6426 0 11.231 0.55042 16.765 1.6513s10.908 2.731 16.121 4.8904c5.2131 2.1594 10.166 4.8066 14.857 7.9416 4.6918 3.135 9.0326 6.6975 13.023 10.688 3.9899 3.99 7.5524 8.3311 10.687 13.023 3.135 4.6919 5.7821 9.6445 7.9415 14.858 2.1594 5.2133 3.7894 10.587 4.8903 16.122 1.1008 5.5344 1.6512 11.123 1.6513 16.766-6e-5 5.6428-0.55047 11.232-1.6514 16.766-1.1008 5.5343-2.7309 10.908-4.8903 16.122-2.1594 5.2132-4.8065 10.166-7.9415 14.858-3.1349 4.6919-6.6973 9.0329-10.687 13.023-3.99 3.9901-8.3309 7.5528-13.023 10.688-4.6917 3.1348-9.6441 5.7821-14.857 7.9415-5.2132 2.1594-10.587 3.7895-16.121 4.8905-5.5342 1.1009-11.123 1.6513-16.765 1.6515-5.6427-2e-4 -11.231-0.5506-16.766-1.6515-5.5343-1.101-10.908-2.7311-16.121-4.8905-5.2132-2.1594-10.166-4.8067-14.857-7.9415-4.6917-3.1349-9.0325-6.6976-13.022-10.688-3.99-3.9901-7.5524-8.3311-10.687-13.023-3.1349-4.6919-5.782-9.6446-7.9414-14.858-2.1594-5.2133-3.7894-10.587-4.8903-16.122-1.1008-5.5345-1.6512-11.123-1.6512-16.766z"/></clipPath><clipPath id="clipPath7538"><path d="m628.67 962.78h174.14v174.15h-174.14z"/></clipPath><clipPath id="clipPath7544"><path d="m629.81 1049.9c-6e-5 -5.6429 0.55035-11.232 1.6512-16.766 1.1008-5.5345 2.7309-10.908 4.8902-16.122 2.1594-5.2133 4.8065-10.166 7.9415-14.858 3.135-4.6919 6.6974-9.0329 10.687-13.023 3.9899-3.9901 8.3308-7.5527 13.023-10.688 4.6917-3.1351 9.6441-5.7823 14.857-7.9416 5.2131-2.1594 10.587-3.7895 16.121-4.8904 5.5343-1.1008 11.123-1.6512 16.766-1.6512 5.6426 0 11.231 0.55042 16.765 1.6513s10.908 2.731 16.121 4.8904c5.2131 2.1594 10.166 4.8066 14.857 7.9416 4.6918 3.135 9.0326 6.6975 13.023 10.688 3.9899 3.99 7.5524 8.3311 10.687 13.023 3.135 4.6919 5.7821 9.6445 7.9415 14.858 2.1594 5.2133 3.7894 10.587 4.8903 16.122 1.1008 5.5344 1.6512 11.123 1.6513 16.766-6e-5 5.6428-0.55047 11.232-1.6514 16.766-1.1008 5.5343-2.7309 10.908-4.8903 16.122-2.1594 5.2132-4.8065 10.166-7.9415 14.858-3.1349 4.6919-6.6973 9.0329-10.687 13.023-3.99 3.9901-8.3309 7.5528-13.023 10.688-4.6917 3.1348-9.6441 5.7821-14.857 7.9415-5.2132 2.1594-10.587 3.7895-16.121 4.8905-5.5342 1.1009-11.123 1.6513-16.765 1.6515-5.6427-2e-4 -11.231-0.5506-16.766-1.6515-5.5343-1.101-10.908-2.7311-16.121-4.8905-5.2132-2.1594-10.166-4.8067-14.857-7.9415-4.6917-3.1349-9.0325-6.6976-13.022-10.688-3.99-3.9901-7.5524-8.3311-10.687-13.023-3.1349-4.6919-5.782-9.6446-7.9414-14.858-2.1594-5.2133-3.7894-10.587-4.8903-16.122-1.1008-5.5345-1.6512-11.123-1.6512-16.766z"/></clipPath><clipPath id="clipPath7558"><path d="m0 0h2479.2v3507.7h-2479.2z"/></clipPath><clipPath id="clipPath7564"><path d="m0 0h2426v6868.5h-2426z"/></clipPath><clipPath id="clipPath7570"><path d="m628.67 962.78h174.14v174.15h-174.14z"/></clipPath><clipPath id="clipPath7576"><path d="m629.81 1049.9c-6e-5 -5.6429 0.55035-11.232 1.6512-16.766 1.1008-5.5345 2.7309-10.908 4.8902-16.122 2.1594-5.2133 4.8065-10.166 7.9415-14.858 3.135-4.6919 6.6974-9.0329 10.687-13.023 3.9899-3.9901 8.3308-7.5527 13.023-10.688 4.6917-3.1351 9.6441-5.7823 14.857-7.9416 5.2131-2.1594 10.587-3.7895 16.121-4.8904 5.5343-1.1008 11.123-1.6512 16.766-1.6512 5.6426 0 11.231 0.55042 16.765 1.6513s10.908 2.731 16.121 4.8904c5.2131 2.1594 10.166 4.8066 14.857 7.9416 4.6918 3.135 9.0326 6.6975 13.023 10.688 3.9899 3.99 7.5524 8.3311 10.687 13.023 3.135 4.6919 5.7821 9.6445 7.9415 14.858 2.1594 5.2133 3.7894 10.587 4.8903 16.122 1.1008 5.5344 1.6512 11.123 1.6513 16.766-6e-5 5.6428-0.55047 11.232-1.6514 16.766-1.1008 5.5343-2.7309 10.908-4.8903 16.122-2.1594 5.2132-4.8065 10.166-7.9415 14.858-3.1349 4.6919-6.6973 9.0329-10.687 13.023-3.99 3.9901-8.3309 7.5528-13.023 10.688-4.6917 3.1348-9.6441 5.7821-14.857 7.9415-5.2132 2.1594-10.587 3.7895-16.121 4.8905-5.5342 1.1009-11.123 1.6513-16.765 1.6515-5.6427-2e-4 -11.231-0.5506-16.766-1.6515-5.5343-1.101-10.908-2.7311-16.121-4.8905-5.2132-2.1594-10.166-4.8067-14.857-7.9415-4.6917-3.1349-9.0325-6.6976-13.022-10.688-3.99-3.9901-7.5524-8.3311-10.687-13.023-3.1349-4.6919-5.782-9.6446-7.9414-14.858-2.1594-5.2133-3.7894-10.587-4.8903-16.122-1.1008-5.5345-1.6512-11.123-1.6512-16.766z"/></clipPath><clipPath id="clipPath7590"><path d="m0 0h2426v3507.7h-2426z" clip-rule="evenodd"/></clipPath></defs><g transform="translate(-63.339 -111.67)"><g transform="matrix(.084667 0 0 .084667 10.142 30.181)"><g clip-path="url(#clipPath7484)"><g clip-path="url(#clipPath7490)"><g clip-path="url(#clipPath7496)"><g clip-path="url(#clipPath7502)"><g transform="matrix(3.0025 0 0 3.0026 715.75 1049.9)"><path d="m28.622 0c0 0.93741-0.04594 1.8726-0.13782 2.8055-0.09188 0.93289-0.22926 1.859-0.41214 2.7784-0.18288 0.9194-0.41037 1.8276-0.68249 2.7247-0.27212 0.89704-0.58754 1.7786-0.94627 2.6446-0.35873 0.86605-0.75904 1.7124-1.2009 2.5392-0.44189 0.82672-0.92324 1.6298-1.444 2.4092-0.5208 0.77943-1.0785 1.5315-1.6732 2.2561-0.59468 0.72463-1.2234 1.4184-1.8863 2.0812-0.66285 0.66285-1.3566 1.2916-2.0812 1.8863-0.72463 0.59468-1.4767 1.1524-2.2561 1.6732-0.77943 0.5208-1.5825 1.0021-2.4092 1.444-0.82672 0.44189-1.6731 0.8422-2.5392 1.2009-0.86605 0.35873-1.7476 0.67416-2.6446 0.94627-0.89704 0.27211-1.8053 0.49961-2.7247 0.68249-0.9194 0.18288-1.8455 0.32026-2.7784 0.41214-0.93289 0.091883-1.868 0.13782-2.8055 0.13782s-1.8726-0.04594-2.8055-0.13782c-0.93289-0.09188-1.859-0.22926-2.7784-0.41214-0.9194-0.18288-1.8276-0.41037-2.7247-0.68249-0.89704-0.27212-1.7786-0.58754-2.6446-0.94627-0.86605-0.35873-1.7124-0.75904-2.5392-1.2009-0.82672-0.44189-1.6298-0.92324-2.4092-1.444-0.77943-0.5208-1.5315-1.0785-2.2561-1.6732-0.72463-0.59468-1.4184-1.2234-2.0812-1.8863-0.66285-0.66285-1.2916-1.3566-1.8863-2.0812-0.59468-0.72463-1.1524-1.4767-1.6732-2.2561-0.5208-0.77943-1.0021-1.5825-1.444-2.4092-0.44189-0.82672-0.8422-1.6731-1.2009-2.5392-0.35873-0.86605-0.67416-1.7476-0.94627-2.6446-0.27211-0.89704-0.49961-1.8053-0.68249-2.7247-0.18288-0.9194-0.32026-1.8455-0.41214-2.7784-0.091883-0.93289-0.13782-1.868-0.13782-2.8055s0.04594-1.8726 0.13782-2.8055c0.09188-0.93289 0.22926-1.859 0.41214-2.7784 0.18288-0.9194 0.41037-1.8276 0.68249-2.7247 0.27212-0.89704 0.58754-1.7786 0.94627-2.6446 0.35873-0.86605 0.75904-1.7124 1.2009-2.5392 0.44189-0.82672 0.92324-1.6298 1.444-2.4092 0.5208-0.77943 1.0785-1.5315 1.6732-2.2561 0.59468-0.72463 1.2234-1.4184 1.8863-2.0812 0.66285-0.66285 1.3566-1.2916 2.0812-1.8863 0.72463-0.59468 1.4767-1.1524 2.2561-1.6732 0.77943-0.5208 1.5825-1.0021 2.4092-1.444 0.82672-0.44189 1.6731-0.8422 2.5392-1.2009 0.86605-0.35873 1.7476-0.67416 2.6446-0.94627 0.89704-0.27211 1.8053-0.49961 2.7247-0.68249 0.9194-0.18288 1.8455-0.32026 2.7784-0.41214 0.93289-0.09188 1.868-0.13782 2.8055-0.13782s1.8726 0.04594 2.8055 0.13782c0.93289 0.09188 1.859 0.22926 2.7784 0.41214 0.9194 0.18288 1.8276 0.41037 2.7247 0.68249 0.89704 0.27212 1.7786 0.58754 2.6446 0.94627 0.86605 0.35873 1.7124 0.75904 2.5392 1.2009 0.82672 0.44189 1.6298 0.92324 2.4092 1.444 0.77943 0.5208 1.5315 1.0785 2.2561 1.6732 0.72463 0.59468 1.4184 1.2234 2.0812 1.8863 0.66285 0.66285 1.2916 1.3566 1.8863 2.0812 0.59468 0.72463 1.1524 1.4767 1.6732 2.2561 0.5208 0.77943 1.0021 1.5825 1.444 2.4092 0.44189 0.82672 0.8422 1.6731 1.2009 2.5392 0.35873 0.86605 0.67416 1.7476 0.94627 2.6446 0.27211 0.89704 0.49961 1.8053 0.68249 2.7247 0.18288 0.9194 0.32026 1.8455 0.41214 2.7784 0.09188 0.93289 0.13782 1.868 0.13782 2.8055z" fill="#984d2d"/></g></g></g></g></g><g clip-path="url(#clipPath7514)"><g clip-path="url(#clipPath7520)"><g clip-path="url(#clipPath7526)"><g clip-path="url(#clipPath7532)"><g clip-path="url(#clipPath7538)"><g clip-path="url(#clipPath7544)"><g transform="matrix(3.0025 0 0 3.0026 715.75 1049.9)"><path d="m-50-8.8583h100v17.717h-100z" fill="#f1f1d9"/><path d="m-50-8.8583h100v17.717h-100z" fill="none" stroke="#000" stroke-miterlimit="10"/></g></g></g></g></g></g></g><g clip-path="url(#clipPath7558)"><g clip-path="url(#clipPath7564)"><g clip-path="url(#clipPath7570)"><g clip-path="url(#clipPath7576)"><g transform="matrix(3.1276 0 0 3.1277 715.75 1049.9)"><text transform="translate(-13.21 4.3653)" fill="#000000" font-family="Bitter" font-size="12.69px" font-weight="bold"><tspan x="0 7.6647491 15.024948 21.877533" y="0">SFLi</tspan></text></g></g></g></g></g><g clip-path="url(#clipPath7590)"><g transform="matrix(3.0025 0 0 3.0026 715.75 1049.9)"><path d="m28.622 0c0 0.93741-0.04594 1.8726-0.13782 2.8055-0.09188 0.93289-0.22926 1.859-0.41214 2.7784-0.18288 0.9194-0.41037 1.8276-0.68249 2.7247-0.27212 0.89704-0.58754 1.7786-0.94627 2.6446-0.35873 0.86605-0.75904 1.7124-1.2009 2.5392-0.44189 0.82672-0.92324 1.6298-1.444 2.4092-0.5208 0.77943-1.0785 1.5315-1.6732 2.2561-0.59468 0.72463-1.2234 1.4184-1.8863 2.0812-0.66285 0.66285-1.3566 1.2916-2.0812 1.8863-0.72463 0.59468-1.4767 1.1524-2.2561 1.6732-0.77943 0.5208-1.5825 1.0021-2.4092 1.444-0.82672 0.44189-1.6731 0.8422-2.5392 1.2009-0.86605 0.35873-1.7476 0.67416-2.6446 0.94627-0.89704 0.27211-1.8053 0.49961-2.7247 0.68249-0.9194 0.18288-1.8455 0.32026-2.7784 0.41214-0.93289 0.091883-1.868 0.13782-2.8055 0.13782s-1.8726-0.04594-2.8055-0.13782c-0.93289-0.09188-1.859-0.22926-2.7784-0.41214-0.9194-0.18288-1.8276-0.41037-2.7247-0.68249-0.89704-0.27212-1.7786-0.58754-2.6446-0.94627-0.86605-0.35873-1.7124-0.75904-2.5392-1.2009-0.82672-0.44189-1.6298-0.92324-2.4092-1.444-0.77943-0.5208-1.5315-1.0785-2.2561-1.6732-0.72463-0.59468-1.4184-1.2234-2.0812-1.8863-0.66285-0.66285-1.2916-1.3566-1.8863-2.0812-0.59468-0.72463-1.1524-1.4767-1.6732-2.2561-0.5208-0.77943-1.0021-1.5825-1.444-2.4092-0.44189-0.82672-0.8422-1.6731-1.2009-2.5392-0.35873-0.86605-0.67416-1.7476-0.94627-2.6446-0.27211-0.89704-0.49961-1.8053-0.68249-2.7247-0.18288-0.9194-0.32026-1.8455-0.41214-2.7784-0.091883-0.93289-0.13782-1.868-0.13782-2.8055s0.04594-1.8726 0.13782-2.8055c0.09188-0.93289 0.22926-1.859 0.41214-2.7784 0.18288-0.9194 0.41037-1.8276 0.68249-2.7247 0.27212-0.89704 0.58754-1.7786 0.94627-2.6446 0.35873-0.86605 0.75904-1.7124 1.2009-2.5392 0.44189-0.82672 0.92324-1.6298 1.444-2.4092 0.5208-0.77943 1.0785-1.5315 1.6732-2.2561 0.59468-0.72463 1.2234-1.4184 1.8863-2.0812 0.66285-0.66285 1.3566-1.2916 2.0812-1.8863 0.72463-0.59468 1.4767-1.1524 2.2561-1.6732 0.77943-0.5208 1.5825-1.0021 2.4092-1.444 0.82672-0.44189 1.6731-0.8422 2.5392-1.2009 0.86605-0.35873 1.7476-0.67416 2.6446-0.94627 0.89704-0.27211 1.8053-0.49961 2.7247-0.68249 0.9194-0.18288 1.8455-0.32026 2.7784-0.41214 0.93289-0.09188 1.868-0.13782 2.8055-0.13782s1.8726 0.04594 2.8055 0.13782c0.93289 0.09188 1.859 0.22926 2.7784 0.41214 0.9194 0.18288 1.8276 0.41037 2.7247 0.68249 0.89704 0.27212 1.7786 0.58754 2.6446 0.94627 0.86605 0.35873 1.7124 0.75904 2.5392 1.2009 0.82672 0.44189 1.6298 0.92324 2.4092 1.444 0.77943 0.5208 1.5315 1.0785 2.2561 1.6732 0.72463 0.59468 1.4184 1.2234 2.0812 1.8863 0.66285 0.66285 1.2916 1.3566 1.8863 2.0812 0.59468 0.72463 1.1524 1.4767 1.6732 2.2561 0.5208 0.77943 1.0021 1.5825 1.444 2.4092 0.44189 0.82672 0.8422 1.6731 1.2009 2.5392 0.35873 0.86605 0.67416 1.7476 0.94627 2.6446 0.27211 0.89704 0.49961 1.8053 0.68249 2.7247 0.18288 0.9194 0.32026 1.8455 0.41214 2.7784 0.09188 0.93289 0.13782 1.868 0.13782 2.8055z" fill="none" stroke="#000" stroke-miterlimit="10"/></g></g></g></g></svg>
