<?xml version="1.0" encoding="UTF-8"?>
<svg width="14.806mm" height="14.807mm" version="1.1" viewBox="0 0 14.806 14.807" xmlns="http://www.w3.org/2000/svg"><defs><clipPath id="clipPath6568"><path d="m0 0h2479.2v3507.7h-2479.2z"/></clipPath><clipPath id="clipPath6574"><path d="m0 0h2426v6868.5h-2426z"/></clipPath><clipPath id="clipPath6580"><path d="m1709.6 782.63h174.14v174.15h-174.14z"/></clipPath><clipPath id="clipPath6586"><path d="m1710.7 869.7c-1e-4 -5.6429 0.5503-11.232 1.651-16.766 1.1008-5.5345 2.731-10.908 4.8903-16.122 2.1594-5.2133 4.8065-10.166 7.9414-14.858 3.1349-4.6918 6.6974-9.0328 10.687-13.023 3.9899-3.9901 8.3307-7.5527 13.022-10.688 4.6918-3.135 9.6441-5.7822 14.857-7.9416 5.2133-2.1594 10.587-3.7896 16.121-4.8904 5.5344-1.1008 11.123-1.6512 16.766-1.6512 5.6426 0 11.231 0.55041 16.765 1.6512 5.5342 1.1009 10.908 2.7311 16.121 4.8904 5.2131 2.1595 10.166 4.8067 14.857 7.9417 4.6917 3.135 9.0325 6.6976 13.023 10.688 3.99 3.99 7.5524 8.331 10.687 13.023 3.1348 4.6919 5.7819 9.6445 7.9412 14.858 2.1595 5.2133 3.7896 10.587 4.8904 16.122 1.1009 5.5344 1.6513 11.123 1.6514 16.766-1e-4 5.6428-0.5505 11.231-1.6514 16.766-1.1008 5.5344-2.7309 10.908-4.8904 16.122-2.1593 5.2133-4.8064 10.166-7.9412 14.858-3.1351 4.6919-6.6976 9.0329-10.687 13.023-3.9901 3.99-8.331 7.5526-13.023 10.688-4.6918 3.135-9.6442 5.7822-14.857 7.9416-5.2132 2.1594-10.587 3.7896-16.121 4.8904-5.5342 1.1008-11.123 1.6513-16.765 1.6514-5.6427-6e-5 -11.231-0.55054-16.766-1.6514s-10.908-2.7311-16.121-4.8905c-5.2133-2.1594-10.166-4.8066-14.857-7.9415-4.6917-3.1351-9.0325-6.6976-13.022-10.688-3.9899-3.9902-7.5523-8.3312-10.687-13.023-3.1349-4.6918-5.7821-9.6445-7.9415-14.858-2.1593-5.2133-3.7895-10.587-4.8902-16.122-1.1008-5.5344-1.6512-11.123-1.6511-16.766z"/></clipPath><clipPath id="clipPath6598"><path d="m0 0h2479.2v3507.7h-2479.2z"/></clipPath><clipPath id="clipPath6604"><path d="m0 0h2426v6868.5h-2426z"/></clipPath><clipPath id="clipPath6610"><path d="m1709.6 782.63h174.14v174.15h-174.14z"/></clipPath><clipPath id="clipPath6616"><path d="m1710.7 869.7c-1e-4 -5.6429 0.5503-11.232 1.651-16.766 1.1008-5.5345 2.731-10.908 4.8903-16.122 2.1594-5.2133 4.8065-10.166 7.9414-14.858 3.1349-4.6918 6.6974-9.0328 10.687-13.023 3.9899-3.9901 8.3307-7.5527 13.022-10.688 4.6918-3.135 9.6441-5.7822 14.857-7.9416 5.2133-2.1594 10.587-3.7896 16.121-4.8904 5.5344-1.1008 11.123-1.6512 16.766-1.6512 5.6426 0 11.231 0.55041 16.765 1.6512 5.5342 1.1009 10.908 2.7311 16.121 4.8904 5.2131 2.1595 10.166 4.8067 14.857 7.9417 4.6917 3.135 9.0325 6.6976 13.023 10.688 3.99 3.99 7.5524 8.331 10.687 13.023 3.1348 4.6919 5.7819 9.6445 7.9412 14.858 2.1595 5.2133 3.7896 10.587 4.8904 16.122 1.1009 5.5344 1.6513 11.123 1.6514 16.766-1e-4 5.6428-0.5505 11.231-1.6514 16.766-1.1008 5.5344-2.7309 10.908-4.8904 16.122-2.1593 5.2133-4.8064 10.166-7.9412 14.858-3.1351 4.6919-6.6976 9.0329-10.687 13.023-3.9901 3.99-8.331 7.5526-13.023 10.688-4.6918 3.135-9.6442 5.7822-14.857 7.9416-5.2132 2.1594-10.587 3.7896-16.121 4.8904-5.5342 1.1008-11.123 1.6513-16.765 1.6514-5.6427-6e-5 -11.231-0.55054-16.766-1.6514s-10.908-2.7311-16.121-4.8905c-5.2133-2.1594-10.166-4.8066-14.857-7.9415-4.6917-3.1351-9.0325-6.6976-13.022-10.688-3.9899-3.9902-7.5523-8.3312-10.687-13.023-3.1349-4.6918-5.7821-9.6445-7.9415-14.858-2.1593-5.2133-3.7895-10.587-4.8902-16.122-1.1008-5.5344-1.6512-11.123-1.6511-16.766z"/></clipPath><clipPath id="clipPath6622"><path d="m1709.6 782.63h174.14v174.15h-174.14z"/></clipPath><clipPath id="clipPath6628"><path d="m1710.7 869.7c-1e-4 -5.6429 0.5503-11.232 1.651-16.766 1.1008-5.5345 2.731-10.908 4.8903-16.122 2.1594-5.2133 4.8065-10.166 7.9414-14.858 3.1349-4.6918 6.6974-9.0328 10.687-13.023 3.9899-3.9901 8.3307-7.5527 13.022-10.688 4.6918-3.135 9.6441-5.7822 14.857-7.9416 5.2133-2.1594 10.587-3.7896 16.121-4.8904 5.5344-1.1008 11.123-1.6512 16.766-1.6512 5.6426 0 11.231 0.55041 16.765 1.6512 5.5342 1.1009 10.908 2.7311 16.121 4.8904 5.2131 2.1595 10.166 4.8067 14.857 7.9417 4.6917 3.135 9.0325 6.6976 13.023 10.688 3.99 3.99 7.5524 8.331 10.687 13.023 3.1348 4.6919 5.7819 9.6445 7.9412 14.858 2.1595 5.2133 3.7896 10.587 4.8904 16.122 1.1009 5.5344 1.6513 11.123 1.6514 16.766-1e-4 5.6428-0.5505 11.231-1.6514 16.766-1.1008 5.5344-2.7309 10.908-4.8904 16.122-2.1593 5.2133-4.8064 10.166-7.9412 14.858-3.1351 4.6919-6.6976 9.0329-10.687 13.023-3.9901 3.99-8.331 7.5526-13.023 10.688-4.6918 3.135-9.6442 5.7822-14.857 7.9416-5.2132 2.1594-10.587 3.7896-16.121 4.8904-5.5342 1.1008-11.123 1.6513-16.765 1.6514-5.6427-6e-5 -11.231-0.55054-16.766-1.6514s-10.908-2.7311-16.121-4.8905c-5.2133-2.1594-10.166-4.8066-14.857-7.9415-4.6917-3.1351-9.0325-6.6976-13.022-10.688-3.9899-3.9902-7.5523-8.3312-10.687-13.023-3.1349-4.6918-5.7821-9.6445-7.9415-14.858-2.1593-5.2133-3.7895-10.587-4.8902-16.122-1.1008-5.5344-1.6512-11.123-1.6511-16.766z"/></clipPath><clipPath id="clipPath6640"><path d="m0 0h2479.2v3507.7h-2479.2z"/></clipPath><clipPath id="clipPath6646"><path d="m0 0h2426v6868.5h-2426z"/></clipPath><clipPath id="clipPath6652"><path d="m1709.6 782.63h174.14v174.15h-174.14z"/></clipPath><clipPath id="clipPath6658"><path d="m1710.7 869.7c-1e-4 -5.6429 0.5503-11.232 1.651-16.766 1.1008-5.5345 2.731-10.908 4.8903-16.122 2.1594-5.2133 4.8065-10.166 7.9414-14.858 3.1349-4.6918 6.6974-9.0328 10.687-13.023 3.9899-3.9901 8.3307-7.5527 13.022-10.688 4.6918-3.135 9.6441-5.7822 14.857-7.9416 5.2133-2.1594 10.587-3.7896 16.121-4.8904 5.5344-1.1008 11.123-1.6512 16.766-1.6512 5.6426 0 11.231 0.55041 16.765 1.6512 5.5342 1.1009 10.908 2.7311 16.121 4.8904 5.2131 2.1595 10.166 4.8067 14.857 7.9417 4.6917 3.135 9.0325 6.6976 13.023 10.688 3.99 3.99 7.5524 8.331 10.687 13.023 3.1348 4.6919 5.7819 9.6445 7.9412 14.858 2.1595 5.2133 3.7896 10.587 4.8904 16.122 1.1009 5.5344 1.6513 11.123 1.6514 16.766-1e-4 5.6428-0.5505 11.231-1.6514 16.766-1.1008 5.5344-2.7309 10.908-4.8904 16.122-2.1593 5.2133-4.8064 10.166-7.9412 14.858-3.1351 4.6919-6.6976 9.0329-10.687 13.023-3.9901 3.99-8.331 7.5526-13.023 10.688-4.6918 3.135-9.6442 5.7822-14.857 7.9416-5.2132 2.1594-10.587 3.7896-16.121 4.8904-5.5342 1.1008-11.123 1.6513-16.765 1.6514-5.6427-6e-5 -11.231-0.55054-16.766-1.6514s-10.908-2.7311-16.121-4.8905c-5.2133-2.1594-10.166-4.8066-14.857-7.9415-4.6917-3.1351-9.0325-6.6976-13.022-10.688-3.9899-3.9902-7.5523-8.3312-10.687-13.023-3.1349-4.6918-5.7821-9.6445-7.9415-14.858-2.1593-5.2133-3.7895-10.587-4.8902-16.122-1.1008-5.5344-1.6512-11.123-1.6511-16.766z"/></clipPath><clipPath id="clipPath6664"><path d="m1709.6 782.63h174.14v174.15h-174.14z"/></clipPath><clipPath id="clipPath6670"><path d="m1710.7 869.7c-1e-4 -5.6429 0.5503-11.232 1.651-16.766 1.1008-5.5345 2.731-10.908 4.8903-16.122 2.1594-5.2133 4.8065-10.166 7.9414-14.858 3.1349-4.6918 6.6974-9.0328 10.687-13.023 3.9899-3.9901 8.3307-7.5527 13.022-10.688 4.6918-3.135 9.6441-5.7822 14.857-7.9416 5.2133-2.1594 10.587-3.7896 16.121-4.8904 5.5344-1.1008 11.123-1.6512 16.766-1.6512 5.6426 0 11.231 0.55041 16.765 1.6512 5.5342 1.1009 10.908 2.7311 16.121 4.8904 5.2131 2.1595 10.166 4.8067 14.857 7.9417 4.6917 3.135 9.0325 6.6976 13.023 10.688 3.99 3.99 7.5524 8.331 10.687 13.023 3.1348 4.6919 5.7819 9.6445 7.9412 14.858 2.1595 5.2133 3.7896 10.587 4.8904 16.122 1.1009 5.5344 1.6513 11.123 1.6514 16.766-1e-4 5.6428-0.5505 11.231-1.6514 16.766-1.1008 5.5344-2.7309 10.908-4.8904 16.122-2.1593 5.2133-4.8064 10.166-7.9412 14.858-3.1351 4.6919-6.6976 9.0329-10.687 13.023-3.9901 3.99-8.331 7.5526-13.023 10.688-4.6918 3.135-9.6442 5.7822-14.857 7.9416-5.2132 2.1594-10.587 3.7896-16.121 4.8904-5.5342 1.1008-11.123 1.6513-16.765 1.6514-5.6427-6e-5 -11.231-0.55054-16.766-1.6514s-10.908-2.7311-16.121-4.8905c-5.2133-2.1594-10.166-4.8066-14.857-7.9415-4.6917-3.1351-9.0325-6.6976-13.022-10.688-3.9899-3.9902-7.5523-8.3312-10.687-13.023-3.1349-4.6918-5.7821-9.6445-7.9415-14.858-2.1593-5.2133-3.7895-10.587-4.8902-16.122-1.1008-5.5344-1.6512-11.123-1.6511-16.766z"/></clipPath><clipPath id="clipPath6682"><path d="m0 0h2479.2v3507.7h-2479.2z"/></clipPath><clipPath id="clipPath6688"><path d="m0 0h2426v6868.5h-2426z"/></clipPath><clipPath id="clipPath6694"><path d="m1709.6 782.63h174.14v174.15h-174.14z"/></clipPath><clipPath id="clipPath6700"><path d="m1710.7 869.7c-1e-4 -5.6429 0.5503-11.232 1.651-16.766 1.1008-5.5345 2.731-10.908 4.8903-16.122 2.1594-5.2133 4.8065-10.166 7.9414-14.858 3.1349-4.6918 6.6974-9.0328 10.687-13.023 3.9899-3.9901 8.3307-7.5527 13.022-10.688 4.6918-3.135 9.6441-5.7822 14.857-7.9416 5.2133-2.1594 10.587-3.7896 16.121-4.8904 5.5344-1.1008 11.123-1.6512 16.766-1.6512 5.6426 0 11.231 0.55041 16.765 1.6512 5.5342 1.1009 10.908 2.7311 16.121 4.8904 5.2131 2.1595 10.166 4.8067 14.857 7.9417 4.6917 3.135 9.0325 6.6976 13.023 10.688 3.99 3.99 7.5524 8.331 10.687 13.023 3.1348 4.6919 5.7819 9.6445 7.9412 14.858 2.1595 5.2133 3.7896 10.587 4.8904 16.122 1.1009 5.5344 1.6513 11.123 1.6514 16.766-1e-4 5.6428-0.5505 11.231-1.6514 16.766-1.1008 5.5344-2.7309 10.908-4.8904 16.122-2.1593 5.2133-4.8064 10.166-7.9412 14.858-3.1351 4.6919-6.6976 9.0329-10.687 13.023-3.9901 3.99-8.331 7.5526-13.023 10.688-4.6918 3.135-9.6442 5.7822-14.857 7.9416-5.2132 2.1594-10.587 3.7896-16.121 4.8904-5.5342 1.1008-11.123 1.6513-16.765 1.6514-5.6427-6e-5 -11.231-0.55054-16.766-1.6514s-10.908-2.7311-16.121-4.8905c-5.2133-2.1594-10.166-4.8066-14.857-7.9415-4.6917-3.1351-9.0325-6.6976-13.022-10.688-3.9899-3.9902-7.5523-8.3312-10.687-13.023-3.1349-4.6918-5.7821-9.6445-7.9415-14.858-2.1593-5.2133-3.7895-10.587-4.8902-16.122-1.1008-5.5344-1.6512-11.123-1.6511-16.766z"/></clipPath><clipPath id="clipPath6706"><path d="m1709.6 782.63h174.14v174.15h-174.14z"/></clipPath><clipPath id="clipPath6712"><path d="m1710.7 869.7c-1e-4 -5.6429 0.5503-11.232 1.651-16.766 1.1008-5.5345 2.731-10.908 4.8903-16.122 2.1594-5.2133 4.8065-10.166 7.9414-14.858 3.1349-4.6918 6.6974-9.0328 10.687-13.023 3.9899-3.9901 8.3307-7.5527 13.022-10.688 4.6918-3.135 9.6441-5.7822 14.857-7.9416 5.2133-2.1594 10.587-3.7896 16.121-4.8904 5.5344-1.1008 11.123-1.6512 16.766-1.6512 5.6426 0 11.231 0.55041 16.765 1.6512 5.5342 1.1009 10.908 2.7311 16.121 4.8904 5.2131 2.1595 10.166 4.8067 14.857 7.9417 4.6917 3.135 9.0325 6.6976 13.023 10.688 3.99 3.99 7.5524 8.331 10.687 13.023 3.1348 4.6919 5.7819 9.6445 7.9412 14.858 2.1595 5.2133 3.7896 10.587 4.8904 16.122 1.1009 5.5344 1.6513 11.123 1.6514 16.766-1e-4 5.6428-0.5505 11.231-1.6514 16.766-1.1008 5.5344-2.7309 10.908-4.8904 16.122-2.1593 5.2133-4.8064 10.166-7.9412 14.858-3.1351 4.6919-6.6976 9.0329-10.687 13.023-3.9901 3.99-8.331 7.5526-13.023 10.688-4.6918 3.135-9.6442 5.7822-14.857 7.9416-5.2132 2.1594-10.587 3.7896-16.121 4.8904-5.5342 1.1008-11.123 1.6513-16.765 1.6514-5.6427-6e-5 -11.231-0.55054-16.766-1.6514s-10.908-2.7311-16.121-4.8905c-5.2133-2.1594-10.166-4.8066-14.857-7.9415-4.6917-3.1351-9.0325-6.6976-13.022-10.688-3.9899-3.9902-7.5523-8.3312-10.687-13.023-3.1349-4.6918-5.7821-9.6445-7.9415-14.858-2.1593-5.2133-3.7895-10.587-4.8902-16.122-1.1008-5.5344-1.6512-11.123-1.6511-16.766z"/></clipPath><clipPath id="clipPath6726"><path d="m0 0h2479.2v3507.7h-2479.2z"/></clipPath><clipPath id="clipPath6732"><path d="m0 0h2426v6868.5h-2426z"/></clipPath><clipPath id="clipPath6738"><path d="m1709.6 782.63h174.14v174.15h-174.14z"/></clipPath><clipPath id="clipPath6744"><path d="m1710.7 869.7c-1e-4 -5.6429 0.5503-11.232 1.651-16.766 1.1008-5.5345 2.731-10.908 4.8903-16.122 2.1594-5.2133 4.8065-10.166 7.9414-14.858 3.1349-4.6918 6.6974-9.0328 10.687-13.023 3.9899-3.9901 8.3307-7.5527 13.022-10.688 4.6918-3.135 9.6441-5.7822 14.857-7.9416 5.2133-2.1594 10.587-3.7896 16.121-4.8904 5.5344-1.1008 11.123-1.6512 16.766-1.6512 5.6426 0 11.231 0.55041 16.765 1.6512 5.5342 1.1009 10.908 2.7311 16.121 4.8904 5.2131 2.1595 10.166 4.8067 14.857 7.9417 4.6917 3.135 9.0325 6.6976 13.023 10.688 3.99 3.99 7.5524 8.331 10.687 13.023 3.1348 4.6919 5.7819 9.6445 7.9412 14.858 2.1595 5.2133 3.7896 10.587 4.8904 16.122 1.1009 5.5344 1.6513 11.123 1.6514 16.766-1e-4 5.6428-0.5505 11.231-1.6514 16.766-1.1008 5.5344-2.7309 10.908-4.8904 16.122-2.1593 5.2133-4.8064 10.166-7.9412 14.858-3.1351 4.6919-6.6976 9.0329-10.687 13.023-3.9901 3.99-8.331 7.5526-13.023 10.688-4.6918 3.135-9.6442 5.7822-14.857 7.9416-5.2132 2.1594-10.587 3.7896-16.121 4.8904-5.5342 1.1008-11.123 1.6513-16.765 1.6514-5.6427-6e-5 -11.231-0.55054-16.766-1.6514s-10.908-2.7311-16.121-4.8905c-5.2133-2.1594-10.166-4.8066-14.857-7.9415-4.6917-3.1351-9.0325-6.6976-13.022-10.688-3.9899-3.9902-7.5523-8.3312-10.687-13.023-3.1349-4.6918-5.7821-9.6445-7.9415-14.858-2.1593-5.2133-3.7895-10.587-4.8902-16.122-1.1008-5.5344-1.6512-11.123-1.6511-16.766z"/></clipPath><clipPath id="clipPath6758"><path d="m0 0h2426v3507.7h-2426z" clip-rule="evenodd"/></clipPath></defs><g transform="translate(-62.904 -111.67)"><g transform="matrix(.084667 0 0 .084667 -81.808 45.435)"><g clip-path="url(#clipPath6568)"><g clip-path="url(#clipPath6574)"><g clip-path="url(#clipPath6580)"><g clip-path="url(#clipPath6586)"><g transform="matrix(3.0025 0 0 3.0026 1796.6 869.7)"><path d="m28.622 0c0 0.93741-0.04594 1.8726-0.13782 2.8055-0.09188 0.93289-0.22926 1.859-0.41214 2.7784-0.18288 0.9194-0.41037 1.8276-0.68249 2.7247-0.27212 0.89704-0.58754 1.7786-0.94627 2.6446-0.35873 0.86605-0.75904 1.7124-1.2009 2.5392-0.44189 0.82672-0.92324 1.6298-1.444 2.4092-0.5208 0.77943-1.0785 1.5315-1.6732 2.2561-0.59468 0.72463-1.2234 1.4184-1.8863 2.0812-0.66285 0.66285-1.3566 1.2916-2.0812 1.8863-0.72463 0.59468-1.4767 1.1524-2.2561 1.6732-0.77943 0.5208-1.5825 1.0021-2.4092 1.444-0.82672 0.44189-1.6731 0.8422-2.5392 1.2009-0.86605 0.35873-1.7476 0.67416-2.6446 0.94627-0.89704 0.27211-1.8053 0.49961-2.7247 0.68249-0.9194 0.18288-1.8455 0.32026-2.7784 0.41214-0.93289 0.091883-1.868 0.13782-2.8055 0.13782s-1.8726-0.04594-2.8055-0.13782c-0.93289-0.09188-1.859-0.22926-2.7784-0.41214-0.9194-0.18288-1.8276-0.41037-2.7247-0.68249-0.89704-0.27212-1.7786-0.58754-2.6446-0.94627-0.86605-0.35873-1.7124-0.75904-2.5392-1.2009-0.82672-0.44189-1.6298-0.92324-2.4092-1.444-0.77943-0.5208-1.5315-1.0785-2.2561-1.6732-0.72463-0.59468-1.4184-1.2234-2.0812-1.8863-0.66285-0.66285-1.2916-1.3566-1.8863-2.0812-0.59468-0.72463-1.1524-1.4767-1.6732-2.2561-0.5208-0.77943-1.0021-1.5825-1.444-2.4092-0.44189-0.82672-0.8422-1.6731-1.2009-2.5392-0.35873-0.86605-0.67416-1.7476-0.94627-2.6446-0.27211-0.89704-0.49961-1.8053-0.68249-2.7247-0.18288-0.9194-0.32026-1.8455-0.41214-2.7784-0.091883-0.93289-0.13782-1.868-0.13782-2.8055s0.04594-1.8726 0.13782-2.8055c0.09188-0.93289 0.22926-1.859 0.41214-2.7784 0.18288-0.9194 0.41037-1.8276 0.68249-2.7247 0.27212-0.89704 0.58754-1.7786 0.94627-2.6446 0.35873-0.86605 0.75904-1.7124 1.2009-2.5392 0.44189-0.82672 0.92324-1.6298 1.444-2.4092 0.5208-0.77943 1.0785-1.5315 1.6732-2.2561 0.59468-0.72463 1.2234-1.4184 1.8863-2.0812 0.66285-0.66285 1.3566-1.2916 2.0812-1.8863 0.72463-0.59468 1.4767-1.1524 2.2561-1.6732 0.77943-0.5208 1.5825-1.0021 2.4092-1.444 0.82672-0.44189 1.6731-0.8422 2.5392-1.2009 0.86605-0.35873 1.7476-0.67416 2.6446-0.94627 0.89704-0.27211 1.8053-0.49961 2.7247-0.68249 0.9194-0.18288 1.8455-0.32026 2.7784-0.41214 0.93289-0.09188 1.868-0.13782 2.8055-0.13782s1.8726 0.04594 2.8055 0.13782c0.93289 0.09188 1.859 0.22926 2.7784 0.41214 0.9194 0.18288 1.8276 0.41037 2.7247 0.68249 0.89704 0.27212 1.7786 0.58754 2.6446 0.94627 0.86605 0.35873 1.7124 0.75904 2.5392 1.2009 0.82672 0.44189 1.6298 0.92324 2.4092 1.444 0.77943 0.5208 1.5315 1.0785 2.2561 1.6732 0.72463 0.59468 1.4184 1.2234 2.0812 1.8863 0.66285 0.66285 1.2916 1.3566 1.8863 2.0812 0.59468 0.72463 1.1524 1.4767 1.6732 2.2561 0.5208 0.77943 1.0021 1.5825 1.444 2.4092 0.44189 0.82672 0.8422 1.6731 1.2009 2.5392 0.35873 0.86605 0.67416 1.7476 0.94627 2.6446 0.27211 0.89704 0.49961 1.8053 0.68249 2.7247 0.18288 0.9194 0.32026 1.8455 0.41214 2.7784 0.09188 0.93289 0.13782 1.868 0.13782 2.8055z" fill="#ffeb00"/></g></g></g></g></g><g clip-path="url(#clipPath6598)"><g clip-path="url(#clipPath6604)"><g clip-path="url(#clipPath6610)"><g clip-path="url(#clipPath6616)"><g clip-path="url(#clipPath6622)"><g clip-path="url(#clipPath6628)"><g transform="matrix(3.0025 0 0 3.0026 1796.6 869.7)"><path d="m-50-17.717h100v5.9055h-100z" fill="#fff"/></g></g></g></g></g></g></g><g clip-path="url(#clipPath6640)"><g clip-path="url(#clipPath6646)"><g clip-path="url(#clipPath6652)"><g clip-path="url(#clipPath6658)"><g clip-path="url(#clipPath6664)"><g clip-path="url(#clipPath6670)"><g transform="matrix(3.0025 0 0 3.0026 1796.6 869.7)"><path d="m-50 11.811h100v5.9055h-100z" fill="#fff"/></g></g></g></g></g></g></g><g clip-path="url(#clipPath6682)"><g clip-path="url(#clipPath6688)"><g clip-path="url(#clipPath6694)"><g clip-path="url(#clipPath6700)"><g clip-path="url(#clipPath6706)"><g clip-path="url(#clipPath6712)"><g transform="matrix(3.0025 0 0 3.0026 1796.6 869.7)"><path d="m-50-8.8583h100v17.717h-100z" fill="#f1f1d9"/><path d="m-50-8.8583h100v17.717h-100z" fill="none" stroke="#000" stroke-miterlimit="10"/></g></g></g></g></g></g></g><g clip-path="url(#clipPath6726)"><g clip-path="url(#clipPath6732)"><g clip-path="url(#clipPath6738)"><g clip-path="url(#clipPath6744)"><g transform="matrix(3.1276 0 0 3.1277 1796.6 869.7)"><text transform="translate(-15.456 4.3653)" fill="#000000" font-family="Bitter" font-size="12.69px" font-weight="bold"><tspan x="0 7.6647491 15.024948 22.638947" y="0">SFTC</tspan></text></g></g></g></g></g><g clip-path="url(#clipPath6758)"><g transform="matrix(3.0025 0 0 3.0026 1796.6 869.7)"><path d="m28.622 0c0 0.93741-0.04594 1.8726-0.13782 2.8055-0.09188 0.93289-0.22926 1.859-0.41214 2.7784-0.18288 0.9194-0.41037 1.8276-0.68249 2.7247-0.27212 0.89704-0.58754 1.7786-0.94627 2.6446-0.35873 0.86605-0.75904 1.7124-1.2009 2.5392-0.44189 0.82672-0.92324 1.6298-1.444 2.4092-0.5208 0.77943-1.0785 1.5315-1.6732 2.2561-0.59468 0.72463-1.2234 1.4184-1.8863 2.0812-0.66285 0.66285-1.3566 1.2916-2.0812 1.8863-0.72463 0.59468-1.4767 1.1524-2.2561 1.6732-0.77943 0.5208-1.5825 1.0021-2.4092 1.444-0.82672 0.44189-1.6731 0.8422-2.5392 1.2009-0.86605 0.35873-1.7476 0.67416-2.6446 0.94627-0.89704 0.27211-1.8053 0.49961-2.7247 0.68249-0.9194 0.18288-1.8455 0.32026-2.7784 0.41214-0.93289 0.091883-1.868 0.13782-2.8055 0.13782s-1.8726-0.04594-2.8055-0.13782c-0.93289-0.09188-1.859-0.22926-2.7784-0.41214-0.9194-0.18288-1.8276-0.41037-2.7247-0.68249-0.89704-0.27212-1.7786-0.58754-2.6446-0.94627-0.86605-0.35873-1.7124-0.75904-2.5392-1.2009-0.82672-0.44189-1.6298-0.92324-2.4092-1.444-0.77943-0.5208-1.5315-1.0785-2.2561-1.6732-0.72463-0.59468-1.4184-1.2234-2.0812-1.8863-0.66285-0.66285-1.2916-1.3566-1.8863-2.0812-0.59468-0.72463-1.1524-1.4767-1.6732-2.2561-0.5208-0.77943-1.0021-1.5825-1.444-2.4092-0.44189-0.82672-0.8422-1.6731-1.2009-2.5392-0.35873-0.86605-0.67416-1.7476-0.94627-2.6446-0.27211-0.89704-0.49961-1.8053-0.68249-2.7247-0.18288-0.9194-0.32026-1.8455-0.41214-2.7784-0.091883-0.93289-0.13782-1.868-0.13782-2.8055s0.04594-1.8726 0.13782-2.8055c0.09188-0.93289 0.22926-1.859 0.41214-2.7784 0.18288-0.9194 0.41037-1.8276 0.68249-2.7247 0.27212-0.89704 0.58754-1.7786 0.94627-2.6446 0.35873-0.86605 0.75904-1.7124 1.2009-2.5392 0.44189-0.82672 0.92324-1.6298 1.444-2.4092 0.5208-0.77943 1.0785-1.5315 1.6732-2.2561 0.59468-0.72463 1.2234-1.4184 1.8863-2.0812 0.66285-0.66285 1.3566-1.2916 2.0812-1.8863 0.72463-0.59468 1.4767-1.1524 2.2561-1.6732 0.77943-0.5208 1.5825-1.0021 2.4092-1.444 0.82672-0.44189 1.6731-0.8422 2.5392-1.2009 0.86605-0.35873 1.7476-0.67416 2.6446-0.94627 0.89704-0.27211 1.8053-0.49961 2.7247-0.68249 0.9194-0.18288 1.8455-0.32026 2.7784-0.41214 0.93289-0.09188 1.868-0.13782 2.8055-0.13782s1.8726 0.04594 2.8055 0.13782c0.93289 0.09188 1.859 0.22926 2.7784 0.41214 0.9194 0.18288 1.8276 0.41037 2.7247 0.68249 0.89704 0.27212 1.7786 0.58754 2.6446 0.94627 0.86605 0.35873 1.7124 0.75904 2.5392 1.2009 0.82672 0.44189 1.6298 0.92324 2.4092 1.444 0.77943 0.5208 1.5315 1.0785 2.2561 1.6732 0.72463 0.59468 1.4184 1.2234 2.0812 1.8863 0.66285 0.66285 1.2916 1.3566 1.8863 2.0812 0.59468 0.72463 1.1524 1.4767 1.6732 2.2561 0.5208 0.77943 1.0021 1.5825 1.444 2.4092 0.44189 0.82672 0.8422 1.6731 1.2009 2.5392 0.35873 0.86605 0.67416 1.7476 0.94627 2.6446 0.27211 0.89704 0.49961 1.8053 0.68249 2.7247 0.18288 0.9194 0.32026 1.8455 0.41214 2.7784 0.09188 0.93289 0.13782 1.868 0.13782 2.8055z" fill="none" stroke="#000" stroke-miterlimit="10"/></g></g></g></g></svg>
