<svg xmlns="http://www.w3.org/2000/svg" xml:space="preserve" width="37.817" height="37.817" version="1.1" viewBox="0 0 1003.974 1004" id="svg735" clip-rule="evenodd" fill-rule="evenodd" image-rendering="optimizeQuality" shape-rendering="geometricPrecision" text-rendering="geometricPrecision"><defs id="defs4"><style type="text/css" id="style2">.str0{stroke:#2b2a29;stroke-width:7.64585}.fil3,.fil4{fill:none;fill-rule:nonzero}.fil3{fill:#fefefe}</style></defs><g id="layer1" transform="translate(-1304.968 -1232.85)"><g id="BH"><circle cx="1806.719" cy="1734.85" r="502" id="circle55" clip-rule="evenodd" fill-rule="evenodd" image-rendering="optimizeQuality" shape-rendering="geometricPrecision" text-rendering="geometricPrecision" fill="#fefefe"/><g id="g1307"><g id="_733347712" transform="matrix(1.1524 0 0 1.1524 -4912.933 -429.564)" clip-rule="evenodd" fill-rule="evenodd" image-rendering="optimizeQuality" shape-rendering="geometricPrecision" text-rendering="geometricPrecision"><path class="str0" d="M5488 1667l349-136 342 122c-14 310-109 529-346 641-237-149-352-348-345-627z" id="path442" fill="#e31e24"/><path class="fil3" d="M5768 1796h108l-31 30v99c3 0 7 1 12 1v-98l25-24 4 4-23 23v95l7 1c12 1 23 2 34 2 16 0 30-1 41-3v-105l-28-25h106l-32 30v238l28 24h-105l31-26v-97c-13 3-26 5-39 5s-26-1-40-3h-3v97l37 43h-118l-5-6h111l-31-34v-105h6c21 2 35 3 44 3 15 0 27-2 38-6v-8c-14 2-31 3-50 3-10 0-17 0-22-1l-23-2h-5v113l29 24h-106l31-26v-100c-13 0-23 5-31 15l-4-2c8-11 20-18 35-19v-8c-17 0-31 6-40 19l-4-2c9-22 24-35 44-39v-103zm264 12l-23 23v233l38 43h-118l-6-6h111l-31-35v-237l26-25z" id="path444"/><path id="path446" class="fil4 str0" d="M5768 1796h108l-31 30v99c3 0 7 1 12 1v-98l25-24 4 4-23 23v95l7 1c12 1 23 2 34 2 16 0 30-1 41-3v-105l-28-25h106l-32 30v238l28 24h-105l31-26v-97c-13 3-26 5-39 5s-26-1-40-3h-3v97l37 43h-118l-5-6h111l-31-34v-105h6c21 2 35 3 44 3 15 0 27-2 38-6v-8c-14 2-31 3-50 3-10 0-17 0-22-1l-23-2h-5v113l29 24h-106l31-26v-100c-13 0-23 5-31 15l-4-2c8-11 20-18 35-19v-8c-17 0-31 6-40 19l-4-2c9-22 24-35 44-39v-103zm264 12l-23 23v233l38 43h-118l-6-6h111l-31-35v-237l26-25z"/><path class="str0" d="M5830 1514l360 135c0 282-110 529-360 657-234-128-361-367-358-659zm334 152l-334-123-331 123c-6 273 113 496 331 613 233-117 334-348 334-613z" id="path448" fill="#2b2a29"/><path class="fil3" d="M5565 1681c36-24 77-36 121-36 33 0 60 8 80 22 21 15 31 34 31 57 0 31-17 52-53 63v2c3 1 8 2 13 4 17-4 30-12 40-24 10-13 14-27 14-44 0-22-8-41-26-58v-1l2 2c20 15 30 35 30 59 0 33-17 56-52 69 15 7 27 17 35 29 8 13 12 27 12 43 0 23-8 41-24 54-17 14-38 21-66 21h-163l32-27v-99c-9 0-20 1-32 3l-2-7c14-1 25-2 34-2v-12h-6c-9 0-19 1-32 2l10-22h3c6 1 11 1 14 1 4 0 8 0 11 1v-86zm71-3v103c2-1 3-1 4-1l4 1h4v-94c13-6 25-9 38-9 14 0 25 3 34 8 8 5 15 14 21 26l-7-3c-11-18-27-26-48-26-12 0-23 3-32 10v88h9c29 0 51-5 65-15 14-9 21-24 21-44 0-18-5-32-17-42-12-11-27-16-47-16-16 0-33 4-49 14zm0 121v126h12v-112c10-1 18-1 23-1 25 0 43 2 55 7 11 5 20 14 27 27h-3c-8-11-17-18-28-22s-28-6-50-6l-18 1v106h7l33-1c43-3 64-24 64-63 0-24-7-40-21-49s-40-13-79-13h-22zm171 16c16 13 25 32 25 58s-9 47-28 64c-17 16-43 25-78 25h-155l-4-7h144c32 0 54-3 68-9 31-14 46-39 46-75 0-20-7-37-21-54z" id="path450"/><path id="path452" class="fil4 str0" d="M5565 1681c36-24 77-36 121-36 33 0 60 8 80 22 21 15 31 34 31 57 0 31-17 52-53 63v2c3 1 8 2 13 4 17-4 30-12 40-24 10-13 14-27 14-44 0-22-8-41-26-58v-1l2 2c20 15 30 35 30 59 0 33-17 56-52 69 15 7 27 17 35 29 8 13 12 27 12 43 0 23-8 41-24 54-17 14-38 21-66 21h-163l32-27v-99c-9 0-20 1-32 3l-2-7c14-1 25-2 34-2v-12h-6c-9 0-19 1-32 2l10-22h3c6 1 11 1 14 1 4 0 8 0 11 1v-86zm71-3v103c2-1 3-1 4-1l4 1h4v-94c13-6 25-9 38-9 14 0 25 3 34 8 8 5 15 14 21 26l-7-3c-11-18-27-26-48-26-12 0-23 3-32 10v88h9c29 0 51-5 65-15 14-9 21-24 21-44 0-18-5-32-17-42-12-11-27-16-47-16-16 0-33 4-49 14zm0 121v126h12v-112c10-1 18-1 23-1 25 0 43 2 55 7 11 5 20 14 27 27h-3c-8-11-17-18-28-22s-28-6-50-6l-18 1v106h7l33-1c43-3 64-24 64-63 0-24-7-40-21-49s-40-13-79-13h-22zm171 16c16 13 25 32 25 58s-9 47-28 64c-17 16-43 25-78 25h-155l-4-7h144c32 0 54-3 68-9 31-14 46-39 46-75 0-20-7-37-21-54z"/></g></g></g></g></svg>