<svg xmlns="http://www.w3.org/2000/svg" xml:space="preserve" width="37.817" height="37.817" version="1.1" viewBox="0 0 1003.974 1004" id="svg735" clip-rule="evenodd" fill-rule="evenodd" image-rendering="optimizeQuality" shape-rendering="geometricPrecision" text-rendering="geometricPrecision"><defs id="defs4"><style type="text/css" id="style2">.str0{stroke:#2b2a29;stroke-width:7.64585}.fil3,.fil4{fill:none;fill-rule:nonzero}.fil3{fill:#fefefe}</style></defs><g id="layer1" transform="translate(-2423.985 -104.11)"><g id="BK" clip-rule="evenodd" fill-rule="evenodd" image-rendering="optimizeQuality" shape-rendering="geometricPrecision" text-rendering="geometricPrecision"><circle cx="2925.736" cy="606.111" r="502" id="circle59-3" fill="#fefefe" stroke-width="1"/><g id="_733342072" transform="translate(-3912.375 -3123.876) scale(1.17666)"><path class="str0" d="M5475 2963l342-134 337 124c-18 294-116 500-341 625-232-146-345-341-338-615z" id="path330" fill="#00a0e3"/><path class="fil3" d="M5711 3113h104l-30 29v135l11-14v-119l26-25 3 5-23 23v109l69-83c10-11 15-22 15-32 0-6-3-11-8-16-6-5-13-9-21-10v-2h118v2c-26 6-53 27-83 63l-31 37 82 160 38 25h-116l29-22-56-111-36 44v64l36 43h-114l-6-6h107l-29-34v-70l40-47-5-10-46 55v69l26 25h-102l31-26v-235zm275 20c-22 1-44 14-66 39l-39 43 79 160 63 43h-142l-6-6h129l-47-32-82-165 42-47c21-24 44-38 67-40z" id="path332"/><path id="path334" class="fil4 str0" d="M5711 3113h104l-30 29v135l11-14v-119l26-25 3 5-23 23v109l69-83c10-11 15-22 15-32 0-6-3-11-8-16-6-5-13-9-21-10v-2h118v2c-26 6-53 27-83 63l-31 37 82 160 38 25h-116l29-22-56-111-36 44v64l36 43h-114l-6-6h107l-29-34v-70l40-47-5-10-46 55v69l26 25h-102l31-26v-235zm275 20c-22 1-44 14-66 39l-39 43 79 160 63 43h-142l-6-6h129l-47-32-82-165 42-47c21-24 44-38 67-40z"/><path class="str0" d="M5811 2813l352 132c0 276-107 519-352 644-230-125-355-360-351-646zm327 149l-327-121-325 121c-6 267 110 486 325 601 228-115 327-342 327-601z" id="path336" fill="#2b2a29"/><path class="fil3" d="M5538 2967c36-23 76-35 120-35 32 0 58 7 78 22 20 14 31 33 31 55 0 31-18 51-53 62v2c3 1 8 2 13 4 16-4 29-12 39-24s14-26 14-43c0-22-8-40-26-57v-1l2 2c20 15 30 34 30 58 0 32-17 55-51 68 15 7 26 16 34 29 8 12 12 26 12 41 0 23-8 40-24 54-16 13-37 20-64 20h-160l31-27v-96c-9 0-19 0-31 2l-2-6c13-2 24-2 33-2v-12h-6c-8 0-19 0-31 2l9-22h4c6 1 10 1 13 1 5 0 8 0 11 1v-85zm71-3v101c1 0 2-1 3-1l4 1h4v-92c12-6 25-9 37-9 14 0 25 3 33 8s15 13 21 26l-6-4c-11-17-27-25-48-25-12 0-22 3-32 10v86h10c28 0 50-5 63-14 14-10 21-24 21-44 0-17-5-31-17-41-11-11-27-16-45-16-17 0-33 4-48 14zm0 119v123h11v-109c10-1 18-1 22-1 25 0 43 2 54 6 11 5 20 14 27 27h-3c-7-11-17-18-28-22s-27-6-48-6l-19 1v104h8l32-1c42-3 63-23 63-61 0-24-7-40-21-49-13-8-39-13-77-13-4 0-11 1-21 1zm167 16c16 12 24 31 24 56s-9 46-27 63c-17 16-42 24-76 24h-152l-4-6h141c31 0 53-3 67-9 30-14 45-39 45-73 0-20-7-37-21-53z" id="path338"/><path id="path340" class="fil4 str0" d="M5538 2967c36-23 76-35 120-35 32 0 58 7 78 22 20 14 31 33 31 55 0 31-18 51-53 62v2c3 1 8 2 13 4 16-4 29-12 39-24s14-26 14-43c0-22-8-40-26-57v-1l2 2c20 15 30 34 30 58 0 32-17 55-51 68 15 7 26 16 34 29 8 12 12 26 12 41 0 23-8 40-24 54-16 13-37 20-64 20h-160l31-27v-96c-9 0-19 0-31 2l-2-6c13-2 24-2 33-2v-12h-6c-8 0-19 0-31 2l9-22h4c6 1 10 1 13 1 5 0 8 0 11 1v-85zm71-3v101c1 0 2-1 3-1l4 1h4v-92c12-6 25-9 37-9 14 0 25 3 33 8s15 13 21 26l-6-4c-11-17-27-25-48-25-12 0-22 3-32 10v86h10c28 0 50-5 63-14 14-10 21-24 21-44 0-17-5-31-17-41-11-11-27-16-45-16-17 0-33 4-48 14zm0 119v123h11v-109c10-1 18-1 22-1 25 0 43 2 54 6 11 5 20 14 27 27h-3c-7-11-17-18-28-22s-27-6-48-6l-19 1v104h8l32-1c42-3 63-23 63-61 0-24-7-40-21-49-13-8-39-13-77-13-4 0-11 1-21 1zm167 16c16 12 24 31 24 56s-9 46-27 63c-17 16-42 24-76 24h-152l-4-6h141c31 0 53-3 67-9 30-14 45-39 45-73 0-20-7-37-21-53z"/></g></g></g></svg>