<svg xmlns="http://www.w3.org/2000/svg" xml:space="preserve" width="37.817" height="38.105" version="1.1" viewBox="0 0 1003.974 1011.646" id="svg735" clip-rule="evenodd" fill-rule="evenodd" image-rendering="optimizeQuality" shape-rendering="geometricPrecision" text-rendering="geometricPrecision"><defs id="defs4"><style type="text/css" id="style2"></style></defs><g id="layer1" transform="translate(-3611.95 -141.543)"><g id="C1" transform="translate(9.772 -5.823)" clip-rule="evenodd" fill-rule="evenodd" image-rendering="optimizeQuality" shape-rendering="geometricPrecision" text-rendering="geometricPrecision"><circle cx="4103.928" cy="653.19" r="502" id="circle49" fill="#000" fill-opacity="1"/><path d="M4264.428 978.69h-321v-37c41 0 69-10 83-30 9-12 14-33 14-61v-350c0-24-1-39-3-46-5-24-18-36-38-36-5 0-24 2-56 6v-34l226-63v517c0 29 4 49 11 62 14 23 42 35 84 35z" id="path268" fill="#fefefe" fill-opacity="1" fill-rule="nonzero"/><ellipse cx="4103.928" cy="653.19" rx="497" ry="502" id="ellipse678" fill="none" stroke="#2b2a29" stroke-width="7.646"/></g></g></svg>