<svg xmlns="http://www.w3.org/2000/svg" width="37.817" height="38.105" viewBox="0 0 1003.974 1011.646" clip-rule="evenodd" fill-rule="evenodd" image-rendering="optimizeQuality" shape-rendering="geometricPrecision" text-rendering="geometricPrecision"><defs><style/></defs><g transform="translate(-3602.178 -147.366)"><circle cx="4103.928" cy="653.19" r="502"/><path d="M4264.428 978.69h-321v-37c41 0 69-10 83-30 9-12 14-33 14-61v-350c0-24-1-39-3-46-5-24-18-36-38-36-5 0-24 2-56 6v-34l226-63v517c0 29 4 49 11 62 14 23 42 35 84 35z" fill="#fefefe" fill-rule="nonzero"/><ellipse cx="4103.928" cy="653.19" rx="497" ry="502" fill="none" stroke="#2b2a29" stroke-width="7.646"/></g></svg>