<svg xmlns="http://www.w3.org/2000/svg" width="37.817" height="38.105" viewBox="0 0 1003.974 1011.646" clip-rule="evenodd" fill-rule="evenodd" image-rendering="optimizeQuality" shape-rendering="geometricPrecision" text-rendering="geometricPrecision"><defs><style/></defs><g transform="translate(-4734.112 -136.991)"><circle cx="5235.863" cy="642.815" r="502"/><path d="M5516.863 748.315l-70 229-18-36h-474c103-72 186-145 249-217 3-4 22-26 57-68 24-28 42-58 55-90 14-31 20-60 20-87 0-30-11-53-32-70-21-16-46-23-77-23-37 0-69 12-94 36-25 25-37 56-37 93 0 9 0 15 1 20l-35 6-41-180c65-35 134-53 206-53 56 0 108 14 156 41 58 33 87 76 87 129 0 62-46 139-136 232-33 34-75 72-124 115h122c46 0 79-4 97-13 22-11 40-35 54-71z" fill="#fefefe" fill-rule="nonzero"/><ellipse cx="5235.863" cy="642.815" rx="497" ry="502" fill="none" stroke="#2b2a29" stroke-width="7.646"/></g></svg>