<svg xmlns="http://www.w3.org/2000/svg" xml:space="preserve" width="37.817" height="38.105" version="1.1" viewBox="0 0 1003.974 1011.646" id="svg735" clip-rule="evenodd" fill-rule="evenodd" image-rendering="optimizeQuality" shape-rendering="geometricPrecision" text-rendering="geometricPrecision"><defs id="defs4"><style type="text/css" id="style2"></style></defs><g id="layer1" transform="translate(-5848.105 -125.787)"><g id="C3" transform="translate(9.772 -5.823)" clip-rule="evenodd" fill-rule="evenodd" image-rendering="optimizeQuality" shape-rendering="geometricPrecision" text-rendering="geometricPrecision"><circle cx="6340.084" cy="637.433" r="502" id="circle35" fill="#000" fill-opacity="1"/><path d="M6603.084 715.933c0 32-5 61-16 88-22 52-58 92-109 119-47 26-100 39-160 39-37 0-77-7-118-21-42-13-82-33-123-59l107-159 26 17c-9 23-14 40-14 50-1 29 14 53 44 71 25 16 53 24 84 24 34 0 68-13 103-40 39-30 59-66 59-107 0-45-20-81-60-109-35-24-76-36-123-36-24 0-46 2-67 6l-11-24 166-132h-122c-24 0-43 5-56 14-11 7-22 22-34 45l-31-7 50-182c12 12 20 19 23 20 4 3 8 5 12 5h309l29 46-150 119c54 13 98 37 131 74 34 38 51 85 51 139z" id="path280" fill="#fefefe" fill-opacity="1" fill-rule="nonzero"/><ellipse cx="6340.084" cy="637.433" rx="497" ry="502" id="ellipse682" fill="none" stroke="#2b2a29" stroke-width="7.646"/></g></g></svg>