<svg xmlns="http://www.w3.org/2000/svg" width="37.817" height="37.817" viewBox="0 0 1003.974 1004" clip-rule="evenodd" fill-rule="evenodd" image-rendering="optimizeQuality" shape-rendering="geometricPrecision" text-rendering="geometricPrecision"><defs><style/></defs><g transform="translate(-1495.818 -3746.203)"><circle cx="1997.57" cy="4248.203" r="502" fill="#d7b56d"/><path d="M2274.57 4352.202l-69 225-18-35h-467c102-72 184-143 246-214 2-3 21-26 56-67 23-28 41-57 54-88s20-60 20-86c0-30-11-53-32-70-20-15-45-22-75-22-37 0-68 12-93 36s-37 55-37 91c0 9 0 15 1 19l-34 7-40-178c64-34 131-51 203-51 54 0 105 13 153 40 57 32 86 74 86 127 0 61-45 137-135 228-32 33-73 71-122 114h121c45 0 77-5 95-14 21-10 39-34 54-69z" fill="#fefefe" fill-rule="nonzero"/></g></svg>