<svg xmlns="http://www.w3.org/2000/svg" xml:space="preserve" width="37.817" height="38.82" version="1.1" viewBox="0 0 1003.974 1030.63" id="svg735" clip-rule="evenodd" fill-rule="evenodd" image-rendering="optimizeQuality" shape-rendering="geometricPrecision" text-rendering="geometricPrecision"><defs id="defs4"><style type="text/css" id="style2">.str0{stroke:#2b2a29;stroke-width:7.64585}.fil3,.fil4{fill:none;fill-rule:nonzero}.fil3{fill:#fefefe}</style></defs><g id="layer1" transform="translate(-150.076 -1238.956)"><g id="MS" clip-rule="evenodd" fill-rule="evenodd" image-rendering="optimizeQuality" shape-rendering="geometricPrecision" text-rendering="geometricPrecision"><circle cx="651.827" cy="1740.956" r="502" id="circle174" fill="#fefefe"/><g id="g3303" transform="matrix(1.19005 0 0 1.19005 -2514.999 -155.762)"><path id="polygon356" transform="translate(685.625 -1573.984)" fill="none" d="M1988 2879l338 122-4 93-15 99-23 95-38 80-61 88-68 68-76 57-49 31-118-80-73-84-49-69-46-102-30-118-15-97 3-61z"/><path class="str0" d="M2325.625 1374.016l332-129 334 122c-13 294-112 512-338 618-225-142-335-345-328-611z" id="path358" fill="#ffed00"/><path class="fil3" d="M2791.625 1588.016c-7 11-14 21-18 33-9 22-15 35-18 40l-1 2c-1-2-1-3-1-4-5-13-8-22-11-27-2-6-6-11-12-15-13-12-28-18-45-18-16 0-29 4-40 13-10 9-16 20-16 33 0 25 19 42 56 51l38 9c53 13 80 41 80 84 0 24-9 44-27 61-19 16-41 24-68 24-17 0-36-2-56-7l-26-7c-11-2-19-3-26-3-9 0-19 3-28 8l-2-3c18-27 31-54 39-79l4 2c3 23 12 41 27 53 16 13 36 20 61 20 20 0 36-5 47-14 12-9 18-22 18-37 0-18-8-33-25-44-11-8-35-16-71-23-28-6-48-15-61-27-12-13-19-31-19-53 0-23 9-42 26-57 16-14 38-22 65-22 17 0 37 3 60 10 11 2 19 4 24 4 7 0 15-3 24-8zm14 10l-2 3c-6 10-11 20-15 29-11 22-17 34-18 37l-1 1-5-2 1-2c4-10 10-22 18-38l15-29 1-2zm-65 44c-16-18-33-26-52-26-11 0-21 3-28 9-7 7-11 15-11 25 0 11 7 22 23 34l1 1-1 2c-19-9-29-21-29-38 0-11 4-21 12-28 9-7 19-11 33-11 12 0 23 3 33 8 10 6 17 13 21 23zm51 88c20 15 30 36 30 62 0 28-11 52-32 72-22 19-49 29-80 29-16 0-30-2-43-5l-36-9c-8-2-17-3-26-3-8 0-16 2-23 5l-3-6c8-4 16-6 24-6s19 2 30 4l34 9c14 3 28 5 43 5 30 0 55-10 75-29 21-18 32-41 32-68 0-22-9-42-25-59zm-157 63c5 27 20 46 44 57v2c-28-8-44-27-50-58zm-28-71l8 4c5 9 19 16 42 22l36 8c24 6 40 12 48 16s14 11 17 20l-1 1c-7-8-14-14-22-17-7-4-22-8-44-13-32-8-53-14-64-19-11-6-18-13-20-22z" id="path360"/><path id="path362" class="fil4 str0" d="M2791.625 1588.016c-7 11-14 21-18 33-9 22-15 35-18 40l-1 2c-1-2-1-3-1-4-5-13-8-22-11-27-2-6-6-11-12-15-13-12-28-18-45-18-16 0-29 4-40 13-10 9-16 20-16 33 0 25 19 42 56 51l38 9c53 13 80 41 80 84 0 24-9 44-27 61-19 16-41 24-68 24-17 0-36-2-56-7l-26-7c-11-2-19-3-26-3-9 0-19 3-28 8l-2-3c18-27 31-54 39-79l4 2c3 23 12 41 27 53 16 13 36 20 61 20 20 0 36-5 47-14 12-9 18-22 18-37 0-18-8-33-25-44-11-8-35-16-71-23-28-6-48-15-61-27-12-13-19-31-19-53 0-23 9-42 26-57 16-14 38-22 65-22 17 0 37 3 60 10 11 2 19 4 24 4 7 0 15-3 24-8zm14 10l-2 3c-6 10-11 20-15 29-11 22-17 34-18 37l-1 1-5-2 1-2c4-10 10-22 18-38l15-29 1-2zm-65 44c-16-18-33-26-52-26-11 0-21 3-28 9-7 7-11 15-11 25 0 11 7 22 23 34l1 1-1 2c-19-9-29-21-29-38 0-11 4-21 12-28 9-7 19-11 33-11 12 0 23 3 33 8 10 6 17 13 21 23zm51 88c20 15 30 36 30 62 0 28-11 52-32 72-22 19-49 29-80 29-16 0-30-2-43-5l-36-9c-8-2-17-3-26-3-8 0-16 2-23 5l-3-6c8-4 16-6 24-6s19 2 30 4l34 9c14 3 28 5 43 5 30 0 55-10 75-29 21-18 32-41 32-68 0-22-9-42-25-59zm-157 63c5 27 20 46 44 57v2c-28-8-44-27-50-58zm-28-71l8 4c5 9 19 16 42 22l36 8c24 6 40 12 48 16s14 11 17 20l-1 1c-7-8-14-14-22-17-7-4-22-8-44-13-32-8-53-14-64-19-11-6-18-13-20-22z"/><path class="str0" d="M2660.625 1240.016l348 130c0 274-106 513-348 638-228-125-351-357-347-639zm324 147l-324-120-321 120c-7 264 109 481 321 594 225-113 324-337 324-594z" id="path364" fill="#2b2a29"/><path class="fil3" d="M2715.625 1377.016l-31 31v227l28 26h-102l31-26v-149l-70 193h-22l-1-6h19l74-206v-34l-83 227h-15l-61-178v117c0 16 1 27 4 33 2 7 6 14 14 22l20 25h-116l-4-6h109l-8-12h-99l4-2c17-10 28-19 33-28s8-24 8-44v-183l-30-27h115l-32 29 63 185 8-19-57-164 29-22 5 4-28 19 52 155 58-158-27-29zm-251 52v159c0 25 3 41 7 50 5 9 15 16 29 20l-2-3c-14-10-21-25-21-43v-147zm263-35l-25 18v223l39 44h-118l-3-6h107l-31-35v-230l27-18z" id="path366"/><path id="path368" class="fil4 str0" d="M2715.625 1377.016l-31 31v227l28 26h-102l31-26v-149l-70 193h-22l-1-6h19l74-206v-34l-83 227h-15l-61-178v117c0 16 1 27 4 33 2 7 6 14 14 22l20 25h-116l-4-6h109l-8-12h-99l4-2c17-10 28-19 33-28s8-24 8-44v-183l-30-27h115l-32 29 63 185 8-19-57-164 29-22 5 4-28 19 52 155 58-158-27-29zm-251 52v159c0 25 3 41 7 50 5 9 15 16 29 20l-2-3c-14-10-21-25-21-43v-147zm263-35l-25 18v223l39 44h-118l-3-6h107l-31-35v-230l27-18z"/></g></g></g></svg>