<svg xmlns="http://www.w3.org/2000/svg" xml:space="preserve" width="37.817" height="37.817" version="1.1" viewBox="0 0 1003.974 1004" id="svg735" clip-rule="evenodd" fill-rule="evenodd" image-rendering="optimizeQuality" shape-rendering="geometricPrecision" text-rendering="geometricPrecision"><defs id="defs4"><style type="text/css" id="style2"></style></defs><g id="layer1" transform="translate(-1504.969 -2580.558)"><g id="S2"><g id="g1156" clip-rule="evenodd" fill-opacity="1" image-rendering="optimizeQuality" shape-rendering="geometricPrecision" text-rendering="geometricPrecision"><circle cx="2006.72" cy="3082.558" r="502" id="circle59-0-6" fill="#ef7f1a" fill-rule="evenodd" stroke-width="1"/><path d="M2283.72 3187.058l-69 225-18-35h-467c102-72 183-143 246-215 2-3 21-25 56-67 23-27 41-56 54-88 13-31 20-59 20-85 0-30-11-53-32-70-20-15-45-23-76-23-36 0-67 12-92 37-25 24-37 54-37 91 0 9 0 15 1 19l-34 7-40-178c63-35 131-52 203-52 54 0 105 14 153 40 57 33 85 75 85 127 0 61-44 138-134 229-32 33-73 71-122 113h120c46 0 78-4 96-13 21-11 39-34 53-69z" id="path290" fill="#fefefe" fill-rule="nonzero"/></g></g></g></svg>