<svg xmlns="http://www.w3.org/2000/svg" width="37.817" height="37.817" viewBox="0 0 1003.974 1004" clip-rule="evenodd" fill-rule="evenodd" image-rendering="optimizeQuality" shape-rendering="geometricPrecision" text-rendering="geometricPrecision"><defs><style/></defs><g transform="translate(-2750.015 -2592.549)"><circle cx="3251.766" cy="3094.549" r="502" fill="#ef7f1a"/><path d="M3514.766 3174.049c0 31-6 60-16 87-22 52-58 92-109 120-47 25-100 38-160 38-37 0-77-7-118-20-42-14-82-34-123-60l107-158 26 16c-9 23-14 40-14 50-1 29 14 53 44 72 25 15 53 24 84 24 34 0 68-14 103-40 39-31 59-66 59-108 0-45-20-81-60-108-35-25-76-37-123-37-24 0-46 2-67 7l-11-25 166-131h-123c-23 0-42 4-55 13-11 8-22 23-34 46l-32-8 51-182c12 12 20 19 23 20 4 4 8 5 12 5h309l29 46-150 119c54 13 98 37 131 74 34 38 51 85 51 140z" fill="#fefefe" fill-rule="nonzero"/></g></svg>