<svg xmlns="http://www.w3.org/2000/svg" xml:space="preserve" width="37.817" height="37.817" version="1.1" viewBox="0 0 1003.974 1004" id="svg735" clip-rule="evenodd" fill-rule="evenodd" image-rendering="optimizeQuality" shape-rendering="geometricPrecision" text-rendering="geometricPrecision"><defs id="defs4"><style type="text/css" id="style2">.str0{stroke:#2b2a29;stroke-width:7.64585}.fil3,.fil4{fill:none;fill-rule:nonzero}.fil3{fill:#fefefe}</style></defs><g id="layer1" transform="translate(-123.54 -91.71)"><g id="SB"><circle cx="625.292" cy="593.71" r="502" id="circle59" clip-rule="evenodd" fill="#fefefe" fill-rule="evenodd" stroke-width="1" image-rendering="optimizeQuality" shape-rendering="geometricPrecision" text-rendering="geometricPrecision"/><g id="g3312" transform="matrix(1.2395 0 0 1.2395 -145.39 -124.12)"><g id="_733352440" transform="translate(-1368.708 -45.29)" clip-rule="evenodd" fill-rule="evenodd" image-rendering="optimizeQuality" shape-rendering="geometricPrecision" text-rendering="geometricPrecision"><path class="str0" d="M1676 431l318-124 320 117c-12 282-108 490-324 592-216-136-321-331-314-585z" id="path533" fill="#b0cb1f"/><path class="str0" d="M1990 287l334 125c0 262-102 491-334 610-218-119-336-341-333-612zm310 141l-310-115-308 115c-6 253 105 460 308 569 216-109 310-323 310-569z" id="path535" fill="#2b2a29"/><path class="fil3" d="M1921 590c35-23 75-35 118-35 32 0 58 7 78 22 20 14 30 32 30 55 0 30-17 50-52 60v3c4 1 8 2 13 3 16-4 29-11 39-23 9-12 14-26 14-43 0-21-9-40-26-56v-1l2 2c19 15 29 34 29 57 0 32-17 55-50 68 14 6 26 16 34 28s12 26 12 41c0 22-8 40-24 53s-37 20-64 20h-158l30-26v-96c-8 0-18 1-30 3l-2-7c13-1 24-2 32-2v-12h-5c-8 0-19 1-31 2l9-21h4c6 1 10 1 13 1 4 0 8 0 10 1v-84zm70-3v100c1-1 3-1 3-1l4 1h4v-91c12-6 25-9 37-9 14 0 25 2 33 7 8 6 15 14 20 26l-6-3c-11-17-27-26-47-26-12 0-22 4-31 10v86h9c28 0 49-5 63-14 14-10 20-24 20-43 0-17-5-31-17-41-11-11-26-16-45-16-16 0-32 4-47 14zm0 118v122h11V718c10-1 18-1 22-1 25 0 42 2 53 7 11 4 20 13 27 26h-3c-7-10-16-17-27-21s-27-6-48-6h-18v104h7l32-1c41-3 62-24 62-61 0-24-7-40-20-48-14-9-40-13-77-13-4 0-11 0-21 1zm165 15c16 12 24 31 24 56s-9 46-26 62-42 24-76 24h-150l-4-6h140c30 0 52-3 66-9 29-14 44-38 44-73 0-19-7-36-20-52z" id="path537"/><path id="path539" class="fil4 str0" d="M1921 590c35-23 75-35 118-35 32 0 58 7 78 22 20 14 30 32 30 55 0 30-17 50-52 60v3c4 1 8 2 13 3 16-4 29-11 39-23 9-12 14-26 14-43 0-21-9-40-26-56v-1l2 2c19 15 29 34 29 57 0 32-17 55-50 68 14 6 26 16 34 28s12 26 12 41c0 22-8 40-24 53s-37 20-64 20h-158l30-26v-96c-8 0-18 1-30 3l-2-7c13-1 24-2 32-2v-12h-5c-8 0-19 1-31 2l9-21h4c6 1 10 1 13 1 4 0 8 0 10 1v-84zm70-3v100c1-1 3-1 3-1l4 1h4v-91c12-6 25-9 37-9 14 0 25 2 33 7 8 6 15 14 20 26l-6-3c-11-17-27-26-47-26-12 0-22 4-31 10v86h9c28 0 49-5 63-14 14-10 20-24 20-43 0-17-5-31-17-41-11-11-26-16-45-16-16 0-32 4-47 14zm0 118v122h11V718c10-1 18-1 22-1 25 0 42 2 53 7 11 4 20 13 27 26h-3c-7-10-16-17-27-21s-27-6-48-6h-18v104h7l32-1c41-3 62-24 62-61 0-24-7-40-20-48-14-9-40-13-77-13-4 0-11 0-21 1zm165 15c16 12 24 31 24 56s-9 46-26 62-42 24-76 24h-150l-4-6h140c30 0 52-3 66-9 29-14 44-38 44-73 0-19-7-36-20-52z"/><path class="fil3" d="M1945 405c-8 11-14 22-19 33-9 22-14 36-17 41l-2 1c0-2-1-3-1-4-4-13-7-22-10-27s-7-10-12-15c-14-12-29-18-46-18-16 0-29 5-39 13-11 9-16 20-16 33 0 25 19 42 56 51l37 9c54 13 80 41 80 84 0 24-9 45-27 61-18 17-41 25-68 25-16 0-35-3-56-8l-26-6c-10-3-19-4-26-4-9 0-18 3-28 9l-1-4c18-27 31-53 38-78l4 1c3 23 12 41 28 54 15 13 36 19 61 19 19 0 35-5 47-14 11-9 17-21 17-37 0-18-8-32-24-44-12-8-36-16-72-23-28-5-48-14-60-27-13-13-19-30-19-53s8-42 25-57c17-14 39-21 65-21 18 0 38 3 61 9 11 3 19 4 24 4 7 0 15-2 23-8zm14 10l-2 3c-7 10-12 20-16 30-10 21-16 33-17 36l-2 2-5-3 1-2c4-9 11-22 19-38l15-29 1-2zm-65 44c-16-17-34-26-53-26-11 0-20 3-28 10-7 6-11 15-11 25 0 11 8 22 23 33l2 1-1 2c-20-9-30-21-30-38 0-11 5-21 13-28s19-11 32-11 24 3 33 8c10 6 17 13 21 23zm51 88c20 15 30 36 30 62 0 29-11 52-33 72-22 19-48 29-79 29-16 0-31-1-44-5l-35-8c-8-2-17-3-27-3-8 0-16 1-23 5l-2-7c7-3 15-5 23-5 9 0 19 1 30 4l35 8c13 3 27 5 42 5 30 0 55-9 76-28s31-42 31-68c0-23-8-43-24-60zm-158 64c6 26 20 45 44 56v2c-27-8-44-27-50-57zm-27-72l7 4c5 9 19 16 43 22l35 9c25 6 41 11 49 15 8 5 14 11 17 20l-2 1c-6-8-13-13-21-17-8-3-23-8-45-13-32-7-53-14-64-19s-17-13-19-22z" id="path541"/><path id="path543" class="fil4 str0" d="M1945 405c-8 11-14 22-19 33-9 22-14 36-17 41l-2 1c0-2-1-3-1-4-4-13-7-22-10-27s-7-10-12-15c-14-12-29-18-46-18-16 0-29 5-39 13-11 9-16 20-16 33 0 25 19 42 56 51l37 9c54 13 80 41 80 84 0 24-9 45-27 61-18 17-41 25-68 25-16 0-35-3-56-8l-26-6c-10-3-19-4-26-4-9 0-18 3-28 9l-1-4c18-27 31-53 38-78l4 1c3 23 12 41 28 54 15 13 36 19 61 19 19 0 35-5 47-14 11-9 17-21 17-37 0-18-8-32-24-44-12-8-36-16-72-23-28-5-48-14-60-27-13-13-19-30-19-53s8-42 25-57c17-14 39-21 65-21 18 0 38 3 61 9 11 3 19 4 24 4 7 0 15-2 23-8zm14 10l-2 3c-7 10-12 20-16 30-10 21-16 33-17 36l-2 2-5-3 1-2c4-9 11-22 19-38l15-29 1-2zm-65 44c-16-17-34-26-53-26-11 0-20 3-28 10-7 6-11 15-11 25 0 11 8 22 23 33l2 1-1 2c-20-9-30-21-30-38 0-11 5-21 13-28s19-11 32-11 24 3 33 8c10 6 17 13 21 23zm51 88c20 15 30 36 30 62 0 29-11 52-33 72-22 19-48 29-79 29-16 0-31-1-44-5l-35-8c-8-2-17-3-27-3-8 0-16 1-23 5l-2-7c7-3 15-5 23-5 9 0 19 1 30 4l35 8c13 3 27 5 42 5 30 0 55-9 76-28s31-42 31-68c0-23-8-43-24-60zm-158 64c6 26 20 45 44 56v2c-27-8-44-27-50-57zm-27-72l7 4c5 9 19 16 43 22l35 9c25 6 41 11 49 15 8 5 14 11 17 20l-2 1c-6-8-13-13-21-17-8-3-23-8-45-13-32-7-53-14-64-19s-17-13-19-22z"/></g></g></g></g></svg>