<svg xmlns="http://www.w3.org/2000/svg" width="37.817" height="37.817" viewBox="0 0 1003.974 1004" clip-rule="evenodd" fill-rule="evenodd" image-rendering="optimizeQuality" shape-rendering="geometricPrecision" text-rendering="geometricPrecision"><defs><style/></defs><g transform="translate(-7406.173 -2599.419)"><circle cx="7907.924" cy="3101.419" r="502" fill="#ae4a84"/><path d="M8184.423 3205.919l-68 225-18-35h-467c101-72 183-143 246-214 2-4 21-26 56-68 23-27 41-56 54-88 13-31 20-59 20-85 0-30-11-53-32-70-20-15-45-23-76-23-37 0-67 13-92 37s-37 54-37 91c0 9 0 15 1 19l-35 7-39-178c63-35 131-52 202-52 55 0 106 14 154 41 57 32 85 74 85 126 0 61-44 138-134 229-32 33-73 71-122 113h120c46 0 78-4 96-13 21-11 39-34 53-69z" fill="#fefefe" fill-rule="nonzero"/></g></svg>