<?xml version="1.0" encoding="UTF-8"?>
<svg version="1.1" xmlns="http://www.w3.org/2000/svg" width="178" height="179">
<path d="M0 0 C1.62038487 1.52461132 3.22493028 3.06624755 4.8125 4.625 C5.57304687 5.36105469 6.33359375 6.09710937 7.1171875 6.85546875 C23.00251821 23.26298161 30.24623407 45.85427747 30.11303711 68.39990234 C29.47505386 92.41439278 19.76985035 114.57208537 2.8125 131.625 C-15.0131286 148.42118501 -38.45726356 157.21011547 -62.90991211 156.60400391 C-82.7707228 155.69707869 -100.57008562 149.04430904 -116.1875 136.625 C-117.00476563 135.98304688 -117.82203125 135.34109375 -118.6640625 134.6796875 C-134.79556961 121.1452032 -145.5544868 100.41842203 -148.1875 79.625 C-149.81610605 51.29969545 -143.64316894 27.28158268 -124.67578125 5.77734375 C-91.3866373 -28.87054077 -36.12512634 -31.6025062 0 0 Z " fill="#FCFCFC" transform="translate(148.1875,22.375)"/>
<path d="M0 0 C1.62038487 1.52461132 3.22493028 3.06624755 4.8125 4.625 C5.57304687 5.36105469 6.33359375 6.09710937 7.1171875 6.85546875 C23.00251821 23.26298161 30.24623407 45.85427747 30.11303711 68.39990234 C29.47505386 92.41439278 19.76985035 114.57208537 2.8125 131.625 C-15.0131286 148.42118501 -38.45726356 157.21011547 -62.90991211 156.60400391 C-82.7707228 155.69707869 -100.57008562 149.04430904 -116.1875 136.625 C-117.00476563 135.98304688 -117.82203125 135.34109375 -118.6640625 134.6796875 C-134.79556961 121.1452032 -145.5544868 100.41842203 -148.1875 79.625 C-149.81610605 51.29969545 -143.64316894 27.28158268 -124.67578125 5.77734375 C-91.3866373 -28.87054077 -36.12512634 -31.6025062 0 0 Z M-110.1875 9.625 C-110.92226562 10.26695313 -111.65703125 10.90890625 -112.4140625 11.5703125 C-126.54829974 24.7331245 -135.42194508 43.5538488 -136.47265625 62.8359375 C-137.15210926 84.38673099 -129.39951766 105.49270593 -114.65771484 121.32080078 C-100.70150735 135.55961795 -81.82393899 143.50728919 -61.93505859 143.8671875 C-39.51315893 143.94512589 -20.84527377 136.71604724 -4.4375 121.25 C11.45241758 104.44992008 17.41569352 83.64786041 17.0859375 61.0625 C16.47877245 43.86950934 9.31153013 28.30617341 -2.1875 15.625 C-2.88746094 14.84382813 -3.58742187 14.06265625 -4.30859375 13.2578125 C-17.34926745 -0.54995965 -35.9849861 -8.87335948 -54.9375 -9.61328125 C-76.06111234 -10.06280521 -94.17277654 -4.67166883 -110.1875 9.625 Z " fill="#FBFBFB" transform="translate(148.1875,22.375)"/>
<path d="M0 0 C29.04 0 58.08 0 88 0 C88 19.14 88 38.28 88 58 C58.96 58 29.92 58 0 58 C0 38.86 0 19.72 0 0 Z " fill="#DF1E24" transform="translate(45,84)"/>
<path d="M0 0 C29.04 0 58.08 0 88 0 C88 19.14 88 38.28 88 58 C58.96 58 29.92 58 0 58 C0 38.86 0 19.72 0 0 Z M1 2 C1 13.88 1 25.76 1 38 C29.38 38 57.76 38 87 38 C87 25.79 87 13.58 87 1 C75.93464779 0.97744951 64.86931072 0.95908522 53.80394077 0.94818783 C48.66640434 0.94295887 43.52888437 0.93586099 38.39135742 0.92456055 C33.4376859 0.91373213 28.48403026 0.90772326 23.53034782 0.90512276 C21.63602384 0.90326843 19.74170076 0.89964766 17.8473835 0.89426994 C15.20365614 0.88706011 12.55999529 0.88600903 9.91625977 0.88647461 C8.72943352 0.8810817 8.72943352 0.8810817 7.51863098 0.87557983 C3.96484445 0.55145105 3.96484445 0.55145105 1 2 Z " fill="#0D7A3E" transform="translate(45,84)"/>
<path d="M0 0 C28.38 0 56.76 0 86 0 C86 5.94 86 11.88 86 18 C57.62 18 29.24 18 0 18 C0 12.06 0 6.12 0 0 Z " fill="#FCF8F8" transform="translate(46,104)"/>
<path d="M0 0 C9.0014033 7.00256227 16.12653825 15.06238472 21.65625 25.06640625 C22.11515625 25.84113281 22.5740625 26.61585937 23.046875 27.4140625 C32.12705787 43.7966816 33.18600346 64.13243136 28.65625 82.06640625 C22.70478028 102.52695264 10.45044016 119.31949254 -8.3203125 129.71484375 C-14.16509975 132.74821435 -19.98406525 135.34232654 -26.34375 137.06640625 C-27.05144531 137.27136719 -27.75914063 137.47632813 -28.48828125 137.6875 C-48.20741094 142.55849456 -69.74412106 138.19560328 -86.90625 127.87890625 C-105.38352898 115.51641024 -116.90544603 97.77897244 -121.34375 76.06640625 C-121.52679688 75.2878125 -121.70984375 74.50921875 -121.8984375 73.70703125 C-125.21508978 54.03986509 -119.43352339 34.40524531 -108.36328125 18.16015625 C-106.45136884 15.68726355 -104.45675774 13.3689395 -102.34375 11.06640625 C-101.66828125 10.29941406 -100.9928125 9.53242187 -100.296875 8.7421875 C-73.9334685 -19.59366365 -30.98914038 -20.86166529 0 0 Z M-101.34375 14.06640625 C-111.80370131 26.63070361 -118.30057251 41.6736171 -119.34375 58.06640625 C-119.41980469 58.96101563 -119.49585937 59.855625 -119.57421875 60.77734375 C-120.43655829 79.28268419 -113.10125569 97.08088008 -101.34375 111.06640625 C-100.38275391 112.31164062 -100.38275391 112.31164062 -99.40234375 113.58203125 C-89.13737615 125.97011359 -72.16809314 134.08481211 -56.34375 136.06640625 C-35.16429891 137.73800755 -16.13841814 133.48388569 0.65625 120.06640625 C1.3265625 119.57011719 1.996875 119.07382813 2.6875 118.5625 C12.34960501 110.91333354 19.33479649 99.46093264 23.65625 88.06640625 C24.11451172 86.87917969 24.11451172 86.87917969 24.58203125 85.66796875 C30.95261457 67.97525867 28.97107897 47.43890558 21.27758789 30.62695312 C17.9314454 23.67402718 13.79919832 17.78767808 8.65625 12.06640625 C7.87894531 11.14988281 7.87894531 11.14988281 7.0859375 10.21484375 C-5.01977764 -3.10752618 -23.41232955 -10.11237318 -41.0546875 -11.15234375 C-64.71577417 -11.91420293 -85.29244219 -3.46338491 -101.34375 14.06640625 Z " fill="#3C3B3A" transform="translate(134.34375,26.93359375)"/>
<path d="M0 0 C14.19 0 28.38 0 43 0 C43 6.27 43 12.54 43 19 C37.0368177 19.02290595 31.07378689 19.04283396 25.1105957 19.05493164 C23.08031702 19.05997278 21.05004198 19.06680557 19.01977539 19.07543945 C16.10822653 19.08751467 13.1967255 19.09323034 10.28515625 19.09765625 C8.91485008 19.10539818 8.91485008 19.10539818 7.51686096 19.11329651 C5.34424573 19.11349168 3.17172704 19.06211805 1 19 C0.67 18.67 0.34 18.34 0 18 C0 12.06 0 6.12 0 0 Z " fill="#DE1E24" transform="translate(46,122)"/>
<path d="M0 0 C1 1 1 1 1.1328125 3.71875 C1.11486752 12.40411866 0.8980074 21.07085103 0.5625 29.75 C0.52334473 30.77802734 0.48418945 31.80605469 0.44384766 32.86523438 C0.14932771 39.92919935 -0.36155063 46.95903929 -1 54 C-3.75078884 54.91692961 -5.35948913 55.10886083 -8.1875 55.0625 C-9.445625 55.041875 -10.70375 55.02125 -12 55 C-12.02734857 52.97924434 -12.0465517 50.95837779 -12.0625 48.9375 C-12.07410156 47.81214844 -12.08570312 46.68679687 -12.09765625 45.52734375 C-12 42 -12 42 -11.53125 38.90625 C-10.74734191 33.14221991 -10.63084583 27.37238368 -10.4375 21.5625 C-10.39431641 20.35400391 -10.35113281 19.14550781 -10.30664062 17.90039062 C-10.20110653 14.93371001 -10.10010254 11.96686885 -10 9 C-14.95 9.66 -19.9 10.32 -25 11 C-25.33 9.35 -25.66 7.7 -26 6 C-17.47378988 2.33319565 -9.3831437 -0.58644648 0 0 Z " fill="#302F2E" transform="translate(99,23)"/>
<path d="M0 0 C0.99 0 1.98 0 3 0 C2.42327515 3.36618994 1.55876228 6.16018671 0.125 9.25 C-2.89726841 16.50785625 -3.81709109 24.27524634 -5 32 C-6.76689021 29.96623574 -7.92463958 28.62878848 -8.25 25.9140625 C-7.2622821 16.87027051 -4.25742761 8.03960748 0 0 Z " fill="#424140" transform="translate(21,53)"/>
<path d="M0 0 C0.66 0.33 1.32 0.66 2 1 C1.34 5.62 0.68 10.24 0 15 C-3.39730072 10.47026571 -3.39730072 10.47026571 -2.8125 5.8125 C-2.71582031 4.93207031 -2.61914062 4.05164063 -2.51953125 3.14453125 C-2.34808594 2.43683594 -2.17664062 1.72914062 -2 1 C-1.34 0.67 -0.68 0.34 0 0 Z " fill="#4B4A4A" transform="translate(16,70)"/>
<path d="M0 0 C0 0.66 0 1.32 0 2 C-2.97 2.66 -5.94 3.32 -9 4 C-8.67 3.01 -8.34 2.02 -8 1 C-2.59770115 -1.29885057 -2.59770115 -1.29885057 0 0 Z " fill="#383736" transform="translate(111,161)"/>
<path d="M0 0 C0.33 0 0.66 0 1 0 C0.67 2.97 0.34 5.94 0 9 C-0.99 9 -1.98 9 -3 9 C-2.69181644 7.68647977 -2.37832335 6.37420428 -2.0625 5.0625 C-1.88847656 4.33160156 -1.71445313 3.60070312 -1.53515625 2.84765625 C-1 1 -1 1 0 0 Z " fill="#31302F" transform="translate(162,103)"/>
<path d="M0 0 C0.625 1.8125 0.625 1.8125 1 4 C0.01 5.485 0.01 5.485 -1 7 C-1.66 7 -2.32 7 -3 7 C-2.25 2.25 -2.25 2.25 0 0 Z " fill="#3B3A39" transform="translate(18,64)"/>
</svg>
