<?xml version="1.0" encoding="UTF-8"?>
<svg version="1.1" xmlns="http://www.w3.org/2000/svg" width="178" height="178">
<path d="M0 0 C15.64855811 13.05500836 26.11279313 29.05075872 31.40429688 48.74072266 C31.74074219 49.96855469 31.74074219 49.96855469 32.08398438 51.22119141 C37.03267086 73.08353922 32.55609391 96.79388505 21.52929688 116.05322266 C7.79846432 137.59458075 -11.76550691 152.27388926 -36.68164062 158.19775391 C-60.47017618 162.63020222 -85.24974942 158.89896438 -105.57739258 145.40356445 C-126.87342875 130.55957654 -138.98058986 110.01096719 -144.17773438 84.93212891 C-147.31876041 60.94878058 -141.93772149 36.34419154 -127.09570312 16.99072266 C-125.9360467 15.56831184 -124.76979339 14.15124299 -123.59570312 12.74072266 C-123.12519531 12.13615234 -122.6546875 11.53158203 -122.16992188 10.90869141 C-109.78168301 -4.55043484 -88.18304711 -15.26569727 -68.77490234 -18.02783203 C-44.06660728 -20.65201573 -19.83269944 -15.65132554 0 0 Z " fill="#FCFCFC" transform="translate(144.595703125,18.25927734375)"/>
<path d="M0 0 C15.64855811 13.05500836 26.11279313 29.05075872 31.40429688 48.74072266 C31.74074219 49.96855469 31.74074219 49.96855469 32.08398438 51.22119141 C37.03267086 73.08353922 32.55609391 96.79388505 21.52929688 116.05322266 C7.79846432 137.59458075 -11.76550691 152.27388926 -36.68164062 158.19775391 C-60.47017618 162.63020222 -85.24974942 158.89896438 -105.57739258 145.40356445 C-126.87342875 130.55957654 -138.98058986 110.01096719 -144.17773438 84.93212891 C-147.31876041 60.94878058 -141.93772149 36.34419154 -127.09570312 16.99072266 C-125.9360467 15.56831184 -124.76979339 14.15124299 -123.59570312 12.74072266 C-123.12519531 12.13615234 -122.6546875 11.53158203 -122.16992188 10.90869141 C-109.78168301 -4.55043484 -88.18304711 -15.26569727 -68.77490234 -18.02783203 C-44.06660728 -20.65201573 -19.83269944 -15.65132554 0 0 Z M-115.17773438 21.57275391 C-129.28143256 40.05110484 -133.93947642 59.64882174 -131.59570312 82.74072266 C-127.48213607 104.18888705 -116.48158296 121.95471587 -98.69335938 134.70556641 C-93.84037555 137.89397066 -88.95336858 140.50382934 -83.59570312 142.74072266 C-82.13390625 143.36140625 -82.13390625 143.36140625 -80.64257812 143.99462891 C-72.61814499 146.83085096 -64.92397895 147.12205074 -56.47070312 147.17822266 C-55.38644043 147.18837402 -54.30217773 147.19852539 -53.18505859 147.20898438 C-32.7299486 146.98890363 -15.46794247 138.39395329 -0.84570312 124.42822266 C4.12058154 119.31316199 7.93219711 113.95043954 11.40429688 107.74072266 C11.79101562 107.07685547 12.17773438 106.41298828 12.57617188 105.72900391 C21.30120902 89.72191654 23.8098723 67.4554931 18.91918945 49.87915039 C17.89668901 46.7617139 16.70049833 43.75379253 15.40429688 40.74072266 C14.71787109 39.11457031 14.71787109 39.11457031 14.01757812 37.45556641 C10.75893676 30.39368882 6.56049079 24.53652078 1.40429688 18.74072266 C0.81132812 18.05365234 0.21835938 17.36658203 -0.39257812 16.65869141 C-12.83608658 3.17822392 -31.90158893 -5.62023519 -50.12695312 -6.50927734 C-75.15675966 -7.32517807 -98.6044805 2.4700368 -115.17773438 21.57275391 Z " fill="#FAFAFA" transform="translate(144.595703125,18.25927734375)"/>
<path d="M0 0 C29.7 0 59.4 0 90 0 C90 19.47 90 38.94 90 59 C60.3 59 30.6 59 0 59 C0 39.53 0 20.06 0 0 Z " fill="#0353BA" transform="translate(44,83)"/>
<path d="M0 0 C29.7 0 59.4 0 90 0 C90 19.47 90 38.94 90 59 C60.3 59 30.6 59 0 59 C0 39.53 0 20.06 0 0 Z M1 2 C1 14.21 1 26.42 1 39 C30.04 39 59.08 39 89 39 C89 26.79 89 14.58 89 2 C87.21391943 0.21391943 84.80736465 0.87374039 82.42901611 0.86447144 C81.63001892 0.86649567 80.83102173 0.8685199 80.0078125 0.87060547 C79.1704657 0.86885315 78.3331189 0.86710083 77.47039795 0.86529541 C74.68857786 0.86087599 71.90682079 0.8638152 69.125 0.8671875 C67.20068347 0.86651449 65.27636702 0.86554448 63.35205078 0.86428833 C59.31346835 0.86281123 55.274908 0.86496629 51.23632812 0.86962891 C46.04731489 0.8753262 40.85835337 0.87204726 35.66934204 0.86605644 C31.6940878 0.86245114 27.71884591 0.86358927 23.74359131 0.86618423 C21.8297322 0.86685359 19.91587198 0.86602478 18.00201416 0.86370468 C15.3320415 0.86117867 12.6621538 0.86501802 9.9921875 0.87060547 C9.19319031 0.86858124 8.39419312 0.86655701 7.57098389 0.86447144 C3.98935796 0.54382991 3.98935796 0.54382991 1 2 Z " fill="#B8200E" transform="translate(44,83)"/>
<path d="M0 0 C0.79899719 0.00202423 1.59799438 0.00404846 2.42120361 0.00613403 C3.67722382 0.00350555 3.67722382 0.00350555 4.95861816 0.00082397 C7.74043825 -0.00359545 10.52219532 -0.00065624 13.30401611 0.00271606 C15.22833264 0.00204305 17.15264909 0.00107305 19.07696533 -0.00018311 C23.11554776 -0.0016602 27.15410812 0.00049485 31.19268799 0.00515747 C36.38170122 0.01085476 41.57066274 0.00757582 46.75967407 0.00158501 C50.73492831 -0.00202029 54.7101702 -0.00088216 58.6854248 0.0017128 C60.59928392 0.00238215 62.51314413 0.00155335 64.42700195 -0.00076675 C67.09697461 -0.00329277 69.76686232 0.00054658 72.43682861 0.00613403 C73.23582581 0.0041098 74.034823 0.00208557 74.85803223 0 C80.31475362 0.02126607 80.31475362 0.02126607 81.42901611 1.13552856 C81.42901611 6.74552856 81.42901611 12.35552856 81.42901611 18.13552856 C52.38901611 18.13552856 23.34901611 18.13552856 -6.57098389 18.13552856 C-6.57098389 0.0256086 -6.57098389 0.0256086 0 0 Z " fill="#F9F9FA" transform="translate(51.57098388671875,83.86447143554688)"/>
<path d="M0 0 C1.06476563 0.35191406 2.12953125 0.70382813 3.2265625 1.06640625 C21.9128446 7.69631664 37.96076798 21.24614927 47 39 C51.86103124 50.15888663 54.39334803 59.92344475 54.375 72.0625 C54.37338867 73.16851562 54.37177734 74.27453125 54.37011719 75.4140625 C54.23933391 84.1842349 53.09921639 91.73898527 50 100 C49.68804687 100.84175781 49.37609375 101.68351562 49.0546875 102.55078125 C48.14046145 104.77488581 47.12541698 106.87552866 46 109 C45.58105469 109.79664062 45.16210938 110.59328125 44.73046875 111.4140625 C34.08029767 130.36725951 16.64802745 142.95057791 -4 149 C-19.9496386 152.03880859 -37.04481168 151.45792223 -52 145 C-52.91265625 144.62746094 -53.8253125 144.25492188 -54.765625 143.87109375 C-73.42673441 135.45012142 -86.29841686 119.90237669 -93.9296875 101.3046875 C-99.87152388 82.95872554 -101.35415302 61.85412579 -93 44 C-92.68885254 43.33323242 -92.37770508 42.66646484 -92.05712891 41.97949219 C-81.83805106 20.84717302 -65.57266416 7.75178391 -43.55078125 -0.25390625 C-29.51887696 -4.60758899 -13.93588427 -4.85999325 0 0 Z M-80 28 C-90.16989153 41.64542728 -95.56347821 56.44304772 -95.375 73.4375 C-95.38660156 74.47970703 -95.39820312 75.52191406 -95.41015625 76.59570312 C-95.34020279 95.40152531 -87.26185375 112.99643826 -74.46875 126.62109375 C-60.37317158 140.20370017 -42.86437298 147.61330186 -23.375 147.5 C-22.23925537 147.49500488 -21.10351074 147.49000977 -19.93334961 147.48486328 C-1.18630687 147.09958638 13.90740611 140.29766799 28 128 C28.61488281 127.48050781 29.22976562 126.96101563 29.86328125 126.42578125 C41.54969249 115.76025191 50.20498741 98.23164272 51.15332031 82.44824219 C52.09634138 59.36339314 48.0480457 40.71453982 32.375 23.1875 C26.3819509 16.80072597 19.62383889 12.23251451 12 8 C11.08605469 7.48695312 10.17210938 6.97390625 9.23046875 6.4453125 C-22.15066894 -9.45697317 -57.95442136 3.02963481 -80 28 Z " fill="#3E3D3C" transform="translate(111,15)"/>
<path d="M0 0 C3.28845643 1.97580854 5.14393909 3.59351237 6.4375 7.3125 C7.65352045 14.34536052 6.12893673 19.12701271 2.20703125 24.99609375 C-2.53073227 31.19806674 -8.22330716 35.81743598 -14.5625 40.3125 C-12.70044922 40.26029297 -12.70044922 40.26029297 -10.80078125 40.20703125 C-9.15886774 40.17888416 -7.51693954 40.15158499 -5.875 40.125 C-4.65006836 40.08729492 -4.65006836 40.08729492 -3.40039062 40.04882812 C1.3214235 39.99147816 4.69114042 40.07118286 8.4375 43.3125 C8.82442581 46.47239415 8.86810128 48.45129744 7.4375 51.3125 C-6.0925 51.3125 -19.6225 51.3125 -33.5625 51.3125 C-33.5625 46.3125 -33.5625 46.3125 -31 43.6640625 C-29.86568515 42.74087252 -28.71905894 41.83266554 -27.5625 40.9375 C-26.36317708 39.96366995 -25.16395808 38.98971189 -23.96484375 38.015625 C-22.83158369 37.11350882 -21.69754577 36.21236837 -20.5625 35.3125 C-14.119803 30.14179615 -9.28874334 24.76498668 -5.5625 17.3125 C-5.27126534 13.96330137 -5.19787663 11.95493165 -6.875 9 C-9.49740312 6.37759688 -12.07834236 6.15814633 -15.625 6.125 C-19.56880631 5.87035778 -19.56880631 5.87035778 -21.5625 8.3125 C-21.22895731 11.31438419 -20.59223931 14.17867308 -19.9375 17.125 C-19.81375 17.846875 -19.69 18.56875 -19.5625 19.3125 C-20.5625 20.3125 -20.5625 20.3125 -24.375 20.6875 C-27.72608878 20.63325576 -28.38262937 20.45727392 -31.125 18.25 C-33.03468753 14.34759504 -32.818163 12.44880166 -31.5625 8.3125 C-24.39899856 -1.39288905 -10.99319435 -4.92172371 0 0 Z " fill="#302F2E" transform="translate(101.5625,25.6875)"/>
<path d="M0 0 C0.33 0 0.66 0 1 0 C0.02663066 19.46738689 -12.67550751 34.01716117 -26 47 C-26.99 46.67 -27.98 46.34 -29 46 C-27.96552734 44.92685547 -27.96552734 44.92685547 -26.91015625 43.83203125 C-16.33461496 32.69450468 -8.61650906 21.33060795 -3 7 C-2.01500405 4.6599095 -1.00869731 2.3300318 0 0 Z " fill="#383837" transform="translate(162,103)"/>
<path d="M0 0 C-2.46508658 2.89668423 -4.90037998 3.88632836 -8.4375 5.1875 C-15.31449157 7.92486172 -20.98750022 11.70383438 -27 16 C-27 13 -27 13 -25.00390625 10.578125 C-21.52447674 7.59187861 -18.05201184 5.71108722 -13.9375 3.75 C-13.23044922 3.399375 -12.52339844 3.04875 -11.79492188 2.6875 C-3.10800178 -1.55400089 -3.10800178 -1.55400089 0 0 Z " fill="#353433" transform="translate(70,16)"/>
<path d="M0 0 C0.66 0.33 1.32 0.66 2 1 C-2.97200429 8.17571315 -8.27141785 13.78440974 -16 18 C-14.45311471 14.42644681 -12.29462895 11.87441444 -9.6875 9 C-8.92824219 8.154375 -8.16898438 7.30875 -7.38671875 6.4375 C-5.05942071 4.06068498 -2.64007334 2.01860475 0 0 Z " fill="#464544" transform="translate(43,27)"/>
<path d="M0 0 C0.66 0.33 1.32 0.66 2 1 C0.63603413 5.09189762 -1.34848983 5.61547327 -5.0625 7.6875 C-6.71958984 8.62142578 -6.71958984 8.62142578 -8.41015625 9.57421875 C-9.26480469 10.04472656 -10.11945312 10.51523437 -11 11 C-8.90493166 6.48310955 -6.05973748 3.29469213 -1.8125 0.625 C-1.214375 0.41875 -0.61625 0.2125 0 0 Z " fill="#3B3A39" transform="translate(53,21)"/>
<path d="M0 0 C0.33 0 0.66 0 1 0 C0.88541307 1.43836751 0.75790884 2.87570966 0.625 4.3125 C0.55539063 5.11300781 0.48578125 5.91351563 0.4140625 6.73828125 C0 9 0 9 -2 12 C-2.66 12 -3.32 12 -4 12 C-3.71640113 10.5608866 -3.42278601 9.12374482 -3.125 7.6875 C-2.96257812 6.88699219 -2.80015625 6.08648437 -2.6328125 5.26171875 C-2 3 -2 3 0 0 Z " fill="#333231" transform="translate(162,103)"/>
<path d="M0 0 C2.86724686 0.57344937 3.8614515 0.8614515 6 3 C3.69 3.33 1.38 3.66 -1 4 C-0.67 2.68 -0.34 1.36 0 0 Z " fill="#51504F" transform="translate(105,160)"/>
<path d="M0 0 C2.86724686 0.57344937 3.8614515 0.8614515 6 3 C3.69 3.33 1.38 3.66 -1 4 C-0.67 2.68 -0.34 1.36 0 0 Z " fill="#4E4D4C" transform="translate(70,14)"/>
</svg>
