<?xml version="1.0" encoding="UTF-8"?>
<svg version="1.1" xmlns="http://www.w3.org/2000/svg" width="178" height="178">
<path d="M0 0 C18.71318227 14.91321878 31.27747958 35.52883403 34.42919922 59.44482422 C37.02019516 84.50286888 30.63860223 108.79344084 14.73681641 128.58959961 C9.62965386 134.72547286 4.1988213 139.91997345 -2.35546875 144.52734375 C-3.19464844 145.130625 -4.03382813 145.73390625 -4.8984375 146.35546875 C-24.26646499 159.51542834 -47.55716739 163.27277563 -70.5546875 160.0234375 C-93.31221458 155.56367575 -114.9135114 142.80243686 -128.00292969 123.39306641 C-141.32119126 102.7793447 -146.84566932 78.74109629 -142.27954102 54.43969727 C-136.95227571 30.0807566 -123.12839134 9.68893113 -102.19140625 -4.0402832 C-71.19347491 -23.37093761 -29.28030811 -22.2258362 0 0 Z " fill="#FCFCFC" transform="translate(143.35546875,17.47265625)"/>
<path d="M0 0 C18.71318227 14.91321878 31.27747958 35.52883403 34.42919922 59.44482422 C37.02019516 84.50286888 30.63860223 108.79344084 14.73681641 128.58959961 C9.62965386 134.72547286 4.1988213 139.91997345 -2.35546875 144.52734375 C-3.19464844 145.130625 -4.03382813 145.73390625 -4.8984375 146.35546875 C-24.26646499 159.51542834 -47.55716739 163.27277563 -70.5546875 160.0234375 C-93.31221458 155.56367575 -114.9135114 142.80243686 -128.00292969 123.39306641 C-141.32119126 102.7793447 -146.84566932 78.74109629 -142.27954102 54.43969727 C-136.95227571 30.0807566 -123.12839134 9.68893113 -102.19140625 -4.0402832 C-71.19347491 -23.37093761 -29.28030811 -22.2258362 0 0 Z M-78.35546875 -1.47265625 C-79.79986328 -0.97958984 -79.79986328 -0.97958984 -81.2734375 -0.4765625 C-100.78525529 6.8182827 -116.35650563 22.19465193 -124.953125 41.02734375 C-129.05817961 51.36777286 -130.69989104 60.19392374 -130.66796875 71.27734375 C-130.68408203 72.38078125 -130.70019531 73.48421875 -130.71679688 74.62109375 C-130.72884023 95.1429667 -121.97950904 112.78334596 -107.98046875 127.40234375 C-92.86318396 141.88798711 -73.14407248 149.2516943 -52.33984375 149.06567383 C-31.25362242 148.3085076 -12.37627825 138.81727585 2.26171875 123.8515625 C18.64147576 105.45545243 22.69038451 84.72036119 21.86669922 60.68310547 C20.57831549 42.38239327 9.40748871 25.68963064 -3.54296875 13.33984375 C-23.3192891 -3.41509433 -53.64160823 -10.73566619 -78.35546875 -1.47265625 Z " fill="#FAFAFA" transform="translate(143.35546875,17.47265625)"/>
<path d="M0 0 C29.7 0 59.4 0 90 0 C90 19.14 90 38.28 90 58 C76.47 58 62.94 58 49 58 C49 57.67 49 57.34 49 57 C50.65 57 52.3 57 54 57 C54 51.39 54 45.78 54 40 C61.18992994 43.41666798 67.72488978 47.56857758 74.37304688 51.9296875 C75.18451172 52.45304687 75.99597656 52.97640625 76.83203125 53.515625 C77.56139893 53.99290039 78.2907666 54.47017578 79.04223633 54.96191406 C81.07241645 56.23422982 81.07241645 56.23422982 84 56 C83.19780029 55.47043701 82.39560059 54.94087402 81.5690918 54.39526367 C78.58675764 52.42517326 75.60750509 50.45046551 72.62915039 48.47436523 C71.34092137 47.62056727 70.05186568 46.7680152 68.76196289 45.91674805 C66.90551286 44.69127641 65.05210488 43.46132025 63.19921875 42.23046875 C62.62411057 41.85222458 62.04900238 41.47398041 61.45646667 41.08427429 C58.71290881 39.25561922 56.21218636 37.45685213 54 35 C61.29736605 35.18294232 66.19203839 38.9170589 72.125 42.875 C74.0649214 44.14350871 76.00501959 45.41174711 77.9453125 46.6796875 C78.79625488 47.24413574 79.64719727 47.80858398 80.52392578 48.39013672 C82.98226707 49.98847062 85.47669959 51.5067793 88 53 C82.39183545 48.21830181 76.0657289 44.46568257 69.86523438 40.51367188 C68.98544922 39.94841797 68.10566406 39.38316406 67.19921875 38.80078125 C66.39315186 38.28684814 65.58708496 37.77291504 64.7565918 37.2434082 C64.1769165 36.8330835 63.59724121 36.42275879 63 36 C63 35.67 63 35.34 63 35 C71.58 35 80.16 35 89 35 C89 31.04 89 27.08 89 23 C80.42 23 71.84 23 63 23 C66.38344314 20.29324549 69.18905776 18.18424231 72.86328125 16.08984375 C73.74951172 15.57486328 74.63574219 15.05988281 75.54882812 14.52929688 C77.40763958 13.45867402 79.26969001 12.39365709 81.13476562 11.33398438 C82.01455078 10.82029297 82.89433594 10.30660156 83.80078125 9.77734375 C84.60684814 9.31577881 85.41291504 8.85421387 86.2434082 8.37866211 C86.8230835 7.92370361 87.40275879 7.46874512 88 7 C88 6.01 88 5.02 88 4 C84.35201874 6.38426663 80.70415404 8.76871146 77.05639648 11.15332031 C75.81586851 11.96424154 74.57530889 12.77511436 73.3347168 13.5859375 C71.54988383 14.75247631 69.76516533 15.91919005 67.98046875 17.0859375 C66.90692139 17.7876709 65.83337402 18.4894043 64.72729492 19.21240234 C62.81303661 20.46709748 60.90440387 21.73039742 59 23 C56.8125 22.625 56.8125 22.625 55 22 C64.41288864 14.95070014 74.18607275 8.47236041 84 2 C80.43145298 2.56154998 77.87261565 3.4420072 74.8203125 5.36328125 C74.05589844 5.83830078 73.29148437 6.31332031 72.50390625 6.80273438 C71.71886719 7.30095703 70.93382813 7.79917969 70.125 8.3125 C68.56568467 9.28868829 67.00579651 10.26396224 65.4453125 11.23828125 C64.75969238 11.67180908 64.07407227 12.10533691 63.36767578 12.55200195 C60.2860517 14.43662893 57.13629636 16.20783065 54 18 C54 12.39 54 6.78 54 1 C48.06 1 42.12 1 36 1 C36 6.61 36 12.22 36 18 C29.70083657 14.99623225 23.86900923 11.51842682 18 7.75 C16.69482422 6.91855469 16.69482422 6.91855469 15.36328125 6.0703125 C13.23995489 4.71698361 11.11894788 3.36017005 9 2 C8.67 2.33 8.34 2.66 8 3 C9.27230469 3.85549438 9.27230469 3.85549438 10.5703125 4.72827148 C13.70349898 6.83632217 16.83365342 8.94883645 19.96289062 11.06274414 C21.32013394 11.97868819 22.67820696 12.89340398 24.03710938 13.80688477 C25.98524626 15.11676544 27.93039953 16.43097071 29.875 17.74609375 C30.48746582 18.15653427 31.09993164 18.56697479 31.73095703 18.98985291 C33.17184056 19.96740116 34.58879913 20.98006959 36 22 C36 22.33 36 22.66 36 23 C30.93237912 23.69103921 27.93599922 21.31703557 24 18.5 C22.67716987 17.58392904 21.3529216 16.66990291 20.02734375 15.7578125 C19.3607373 15.29665039 18.69413086 14.83548828 18.00732422 14.36035156 C14.91860443 12.26714472 11.75003048 10.31321842 8.5625 8.375 C7.49128906 7.72273438 6.42007813 7.07046875 5.31640625 6.3984375 C4.55199219 5.93695313 3.78757813 5.47546875 3 5 C6.48472304 8.92031342 10.54774039 11.33832306 15 14 C16.41986816 14.84883423 17.83663608 15.70287941 19.25 16.5625 C19.87390625 16.93503906 20.4978125 17.30757812 21.140625 17.69140625 C23 19 23 19 27 23 C14.625 23.495 14.625 23.495 2 24 C21.305 24.495 21.305 24.495 41 25 C41 25.33 41 25.66 41 26 C27.8 26 14.6 26 1 26 C1 27.98 1 29.96 1 32 C14.2 32 27.4 32 41 32 C41 32.33 41 32.66 41 33 C27.8 33 14.6 33 1 33 C1 33.66 1 34.32 1 35 C9.58 35 18.16 35 27 35 C23.91825648 37.46539482 21.1423297 39.64620892 17.86328125 41.7265625 C17.12142578 42.2009375 16.37957031 42.6753125 15.61523438 43.1640625 C14.85533203 43.64617187 14.09542969 44.12828125 13.3125 44.625 C11.78628097 45.59402796 10.26147348 46.56528371 8.73828125 47.5390625 C8.06837158 47.96396973 7.39846191 48.38887695 6.70825195 48.82666016 C4.85566285 50.02266194 4.85566285 50.02266194 3 52 C6.36339944 49.90097056 9.72642589 47.80134499 13.08911133 45.70117188 C14.79423722 44.63640421 16.49965611 43.5721058 18.20507812 42.5078125 C19.81479492 41.50234375 19.81479492 41.50234375 21.45703125 40.4765625 C22.44678955 39.85861816 23.43654785 39.24067383 24.45629883 38.60400391 C26.32066008 37.42837732 28.16609985 36.2226001 30 35 C33.1875 34.875 33.1875 34.875 36 35 C32.58710763 38.80668764 28.70699625 41.20216862 24.375 43.8125 C18.08900756 47.66395848 11.96875511 51.66691336 6 56 C10.56428015 55.48231938 13.50916943 54.36956873 17.328125 51.83984375 C18.29234375 51.21142578 19.2565625 50.58300781 20.25 49.93554688 C21.24 49.27619141 22.23 48.61683594 23.25 47.9375 C25.23183292 46.63025252 27.21608602 45.32666426 29.203125 44.02734375 C30.07614258 43.44718506 30.94916016 42.86702637 31.84863281 42.26928711 C34 41 34 41 36 41 C36 46.28 36 51.56 36 57 C37.65 57 39.3 57 41 57 C41 57.33 41 57.66 41 58 C27.47 58 13.94 58 0 58 C0 38.86 0 19.72 0 0 Z " fill="#423C40" transform="translate(44,85)"/>
<path d="M0 0 C3.77327452 0.57517393 6.44147482 1.62597908 9.6875 3.6171875 C10.55117188 4.14183594 11.41484375 4.66648437 12.3046875 5.20703125 C13.19414063 5.75746094 14.08359375 6.30789062 15 6.875 C16.33417969 7.68904297 16.33417969 7.68904297 17.6953125 8.51953125 C19.35753023 9.53422834 21.01790993 10.55194738 22.67578125 11.57373047 C25.10709805 13.0657213 27.55391399 14.53234839 30 16 C30.33 10.72 30.66 5.44 31 0 C36.94 0 42.88 0 49 0 C49.495 7.92 49.495 7.92 50 16 C53.60441754 13.70872711 57.20854434 11.41699918 60.8125 9.125 C61.83666016 8.47402344 62.86082031 7.82304688 63.91601562 7.15234375 C64.89892578 6.52714844 65.88183594 5.90195313 66.89453125 5.2578125 C67.80050049 4.6817627 68.70646973 4.10571289 69.63989258 3.51220703 C71.43846772 2.35979425 73.22265648 1.18489568 75 0 C78.1875 -0.125 78.1875 -0.125 81 0 C77.46217842 2.89845623 73.82982486 5.54596471 70.04296875 8.109375 C69.49514236 8.48104797 68.94731598 8.85272095 68.38288879 9.23565674 C66.65240597 10.40905712 64.91999411 11.57957183 63.1875 12.75 C62.00573007 13.55059041 60.82408819 14.35136987 59.64257812 15.15234375 C56.7631952 17.10374932 53.88207632 19.05257388 51 21 C53.85719565 20.39953514 56.00583396 19.55550192 58.46875 17.99609375 C59.11714844 17.58858887 59.76554687 17.18108398 60.43359375 16.76123047 C61.11550781 16.32439941 61.79742187 15.88756836 62.5 15.4375 C63.20253906 14.99293457 63.90507813 14.54836914 64.62890625 14.09033203 C70.81771661 10.15774178 76.93093881 6.1150074 83 2 C83.495 3.98 83.495 3.98 84 6 C72 13.5 72 13.5 60 21 C67.92 21.33 75.84 21.66 84 22 C84 25.96 84 29.92 84 34 C71.625 34.495 71.625 34.495 59 35 C64.98212383 38.76990381 64.98212383 38.76990381 70.96533203 42.53808594 C75.34921621 45.30380797 79.70449988 48.09877697 84 51 C83.505 51.99 83.505 51.99 83 53 C79.35168995 50.75869398 75.7038349 48.51664984 72.05639648 46.27392578 C70.81596095 45.51135366 69.57540213 44.74898204 68.3347168 43.98681641 C66.54964125 42.89017809 64.76501285 41.79281536 62.98046875 40.6953125 C61.90692139 40.03547363 60.83337402 39.37563477 59.72729492 38.69580078 C57.79780091 37.49606348 55.89047919 36.26031946 54 35 C52.68 35 51.36 35 50 35 C50.98097656 35.60585937 51.96195313 36.21171875 52.97265625 36.8359375 C60.2082953 41.32120327 67.40263898 45.86081082 74.5 50.5625 C75.15234619 50.99159668 75.80469238 51.42069336 76.47680664 51.86279297 C78.00327202 52.8809873 79.5047154 53.93654328 81 55 C81 55.33 81 55.66 81 56 C73.64098487 55.83532274 68.66365439 51.98671889 62.6875 48 C60.71250689 46.70792466 58.73725945 45.41623795 56.76171875 44.125 C55.4617395 43.26261719 55.4617395 43.26261719 54.13549805 42.3828125 C52.06643313 40.98706408 52.06643313 40.98706408 50 40 C49.67 45.28 49.34 50.56 49 56 C45.67236332 56.66552734 43.25612222 57.13812953 40 57.125 C39.0409375 57.12886719 39.0409375 57.12886719 38.0625 57.1328125 C36 57 36 57 31 56 C31 50.72 31 45.44 31 40 C28.16634917 41.7286481 25.33307262 43.45790472 22.5 45.1875 C21.70851563 45.67025391 20.91703125 46.15300781 20.1015625 46.65039062 C19.31523438 47.13056641 18.52890625 47.61074219 17.71875 48.10546875 C16.93177734 48.58459717 16.14480469 49.06372559 15.33398438 49.55737305 C13.79295002 50.50988058 12.26257693 51.47988365 10.74414062 52.46801758 C10.04482422 52.92200928 9.34550781 53.37600098 8.625 53.84375 C7.70074219 54.45573242 7.70074219 54.45573242 6.7578125 55.08007812 C4.14812382 56.4458152 1.86966606 56.35870826 -1 56 C3.38342839 52.33689451 8.05520195 49.20915214 12.8125 46.0625 C13.58142578 45.55009766 14.35035156 45.03769531 15.14257812 44.50976562 C20.04362528 41.25480857 24.99320892 38.08973403 30 35 C26.03463577 34.72747086 23.94877892 35.27965788 20.63671875 37.44921875 C19.83169922 37.96806641 19.02667969 38.48691406 18.19726562 39.02148438 C17.36904297 39.57126953 16.54082031 40.12105469 15.6875 40.6875 C14.04563394 41.75400021 12.40370744 42.82040737 10.76171875 43.88671875 C8.39564015 45.43068936 6.03283045 46.97811073 3.68212891 48.54541016 C2.61164307 49.2441626 2.61164307 49.2441626 1.51953125 49.95703125 C0.88764893 50.37573486 0.2557666 50.79443848 -0.39526367 51.22583008 C-1.18960815 51.60904419 -1.18960815 51.60904419 -2 52 C-2.66 51.67 -3.32 51.34 -4 51 C3.83280838 45.38708893 11.87558956 40.17732038 20 35 C12.08 34.67 4.16 34.34 -4 34 C-4 23 -4 23 -3 22 C-1.22130274 21.84235595 0.56318476 21.74899323 2.34765625 21.68359375 C3.42724609 21.64169922 4.50683594 21.59980469 5.61914062 21.55664062 C6.75544922 21.51732422 7.89175781 21.47800781 9.0625 21.4375 C10.77276367 21.37272461 10.77276367 21.37272461 12.51757812 21.30664062 C15.34492195 21.20017161 18.17235738 21.09815793 21 21 C20.30326172 20.56131592 19.60652344 20.12263184 18.88867188 19.6706543 C15.75205183 17.68718796 12.62601454 15.68763504 9.5 13.6875 C8.40300781 12.99720703 7.30601563 12.30691406 6.17578125 11.59570312 C5.13808594 10.92861328 4.10039063 10.26152344 3.03125 9.57421875 C1.58588867 8.65515747 1.58588867 8.65515747 0.11132812 7.7175293 C-0.58541016 7.15074463 -1.28214844 6.58395996 -2 6 C-2 5.01 -2 4.02 -2 3 C0.79516322 4.68175806 3.58602176 6.37050523 6.375 8.0625 C7.60887451 8.81043823 7.60887451 8.81043823 8.86767578 9.57348633 C14.12181125 12.78285028 19.16320482 16.11234491 24.0546875 19.85546875 C26.19842118 21.33806384 26.19842118 21.33806384 30 21 C29.30438965 20.53625977 28.6087793 20.07251953 27.89208984 19.59472656 C20.59472656 14.72981771 13.29736328 9.86490885 6 5 C5.43968079 4.63805542 4.87936157 4.27611084 4.30206299 3.90319824 C2.85172352 2.96009786 1.42367875 1.98288438 0 1 C0 0.67 0 0.34 0 0 Z " fill="#CA1F40" transform="translate(49,86)"/>
<path d="M0 0 C0.98613281 0.35191406 1.97226563 0.70382813 2.98828125 1.06640625 C24.03191019 9.16833709 38.3916995 24.211134 47.7109375 44.5390625 C51.15903343 53.79667763 52.47981301 62.0559623 52.375 71.9375 C52.38660156 73.02740234 52.39820313 74.11730469 52.41015625 75.24023438 C52.33402702 96.59448321 43.05515629 114.11565306 28.78515625 129.3671875 C20.33988603 137.45074224 9.04823223 143.35249749 -2 147 C-2.83917969 147.29777344 -3.67835937 147.59554687 -4.54296875 147.90234375 C-23.48861894 153.7009419 -43.18511722 149.99567077 -60.42724609 141.13256836 C-65.75211051 138.26872595 -70.51429694 135.07473222 -75 131 C-75.73347656 130.35804688 -76.46695313 129.71609375 -77.22265625 129.0546875 C-89.73884577 117.41871028 -99.01226598 100.41091439 -100.19287109 83.18603516 C-100.58142826 69.21446147 -100.63278268 56.95985882 -95 44 C-94.54238281 42.9171875 -94.08476563 41.834375 -93.61328125 40.71875 C-90.3569067 33.65286331 -86.16815 27.78909224 -81 22 C-80.33355469 21.23945312 -79.66710937 20.47890625 -78.98046875 19.6953125 C-59.76971858 -0.90545485 -26.78630806 -10.09045493 0 0 Z M-74 19 C-74.92232422 19.77923828 -74.92232422 19.77923828 -75.86328125 20.57421875 C-86.99090419 30.72977348 -96.00837033 47.72871951 -97.22143555 62.74023438 C-98.1224265 86.20826301 -94.15899627 106.06706203 -78 124 C-77.44699219 124.63421875 -76.89398438 125.2684375 -76.32421875 125.921875 C-71.59190889 131.02689662 -65.98670971 134.51818975 -60 138 C-59.23042969 138.46535156 -58.46085937 138.93070313 -57.66796875 139.41015625 C-42.30610944 147.96778486 -22.93896138 149.49471128 -6.11328125 144.96875 C13.05445042 139.00438682 29.20523428 128.30873286 39.54296875 110.77734375 C42.06618519 105.9676738 44.17682559 101.11557361 46 96 C46.48146484 94.70449219 46.48146484 94.70449219 46.97265625 93.3828125 C52.56582373 75.43264709 49.85223103 54.78672483 41.375 38.3125 C31.66856799 20.66651706 16.54549172 8.14549887 -2.70996094 2.15722656 C-9.94443912 0.17217072 -16.76237497 -0.54573491 -24.25 -0.5 C-25.33684082 -0.49500488 -26.42368164 -0.49000977 -27.54345703 -0.48486328 C-45.67482644 -0.09497027 -60.41579307 7.14596745 -74 19 Z " fill="#3E3D3D" transform="translate(113,16)"/>
<path d="M0 0 C2 3 2 3 2.86181641 5.0078125 C4.28993232 7.50747484 5.75209918 8.39875872 8.2109375 9.875 C9.04367188 10.38546875 9.87640625 10.8959375 10.734375 11.421875 C11.60578125 11.94265625 12.4771875 12.4634375 13.375 13 C15.09418509 14.03664295 16.81043815 15.07816706 18.5234375 16.125 C19.28575684 16.58132812 20.04807617 17.03765625 20.83349609 17.5078125 C23 19 23 19 27 23 C14.625 23.495 14.625 23.495 2 24 C21.305 24.495 21.305 24.495 41 25 C41 25.33 41 25.66 41 26 C27.8 26 14.6 26 1 26 C1 27.98 1 29.96 1 32 C14.2 32 27.4 32 41 32 C41 32.33 41 32.66 41 33 C27.8 33 14.6 33 1 33 C1 33.66 1 34.32 1 35 C9.58 35 18.16 35 27 35 C23.91825648 37.46539482 21.1423297 39.64620892 17.86328125 41.7265625 C17.12142578 42.2009375 16.37957031 42.6753125 15.61523438 43.1640625 C14.85533203 43.64617187 14.09542969 44.12828125 13.3125 44.625 C11.78628097 45.59402796 10.26147348 46.56528371 8.73828125 47.5390625 C8.06837158 47.96396973 7.39846191 48.38887695 6.70825195 48.82666016 C4.85566285 50.02266194 4.85566285 50.02266194 3 52 C6.36339944 49.90097056 9.72642589 47.80134499 13.08911133 45.70117188 C14.79423722 44.63640421 16.49965611 43.5721058 18.20507812 42.5078125 C19.81479492 41.50234375 19.81479492 41.50234375 21.45703125 40.4765625 C22.44678955 39.85861816 23.43654785 39.24067383 24.45629883 38.60400391 C26.32066008 37.42837732 28.16609985 36.2226001 30 35 C33.1875 34.875 33.1875 34.875 36 35 C32.58710763 38.80668764 28.70699625 41.20216862 24.375 43.8125 C18.08900756 47.66395848 11.96875511 51.66691336 6 56 C10.56428015 55.48231938 13.50916943 54.36956873 17.328125 51.83984375 C18.29234375 51.21142578 19.2565625 50.58300781 20.25 49.93554688 C21.24 49.27619141 22.23 48.61683594 23.25 47.9375 C25.23183292 46.63025252 27.21608602 45.32666426 29.203125 44.02734375 C30.07614258 43.44718506 30.94916016 42.86702637 31.84863281 42.26928711 C34 41 34 41 36 41 C36 46.28 36 51.56 36 57 C37.65 57 39.3 57 41 57 C41 57.33 41 57.66 41 58 C27.47 58 13.94 58 0 58 C0 38.86 0 19.72 0 0 Z " fill="#B88C96" transform="translate(44,85)"/>
<path d="M0 0 C4.35 2.9 4.35 2.9 5.625 5.75 C6.05241113 10.99087462 5.0526699 14.75450101 1.6875 18.8125 C0.09765625 20.53515625 0.09765625 20.53515625 -1.375 21.75 C-2.035 21.75 -2.695 21.75 -3.375 21.75 C-3.375 22.41 -3.375 23.07 -3.375 23.75 C-2.653125 23.79125 -1.93125 23.8325 -1.1875 23.875 C1.96592001 24.856064 3.67110593 26.17857615 5.671875 28.8125 C7.85349837 33.24727537 7.48749679 38.21069381 5.92578125 42.80859375 C2.87295898 48.79830833 -2.24080166 51.62383981 -8.375 53.75 C-13.48284133 54.38940954 -18.57686942 54.7576838 -23 51.8125 C-25.375 49.75 -25.375 49.75 -26.375 48.75 C-26.08769945 46.41055264 -25.75563221 44.0760857 -25.375 41.75 C-22.9 41.255 -22.9 41.255 -20.375 40.75 C-19.75625 41.554375 -19.1375 42.35875 -18.5 43.1875 C-16.03437343 46.16075556 -15.33166113 46.62244518 -11.5625 47.125 C-8.24472388 46.98142525 -8.24472388 46.98142525 -5.5 44.8125 C-3.00672488 41.21925056 -2.62713591 39.1306926 -2.8984375 34.83984375 C-3.27046236 32.50872574 -3.27046236 32.50872574 -5.375 30.25 C-9.18223705 28.34638148 -12.13879269 28.0372005 -16.375 27.75 C-16.375 26.1 -16.375 24.45 -16.375 22.75 C-15.84390625 22.51925781 -15.3128125 22.28851563 -14.765625 22.05078125 C-10.24937937 19.96572624 -6.92633404 18.21483457 -4.375 13.75 C-3.79057037 10.62237733 -3.79057037 10.62237733 -4.375 7.75 C-7.8102048 5.45986347 -9.360331 5.57157027 -13.375 5.75 C-14.36994409 8.84538161 -14.23064724 10.64827875 -13.375 13.75 C-14.375 14.75 -14.375 14.75 -17.3125 14.9375 C-20.375 14.75 -20.375 14.75 -22.375 12.75 C-22.875 9.4375 -22.875 9.4375 -22.375 5.75 C-15.78464363 -0.9901372 -8.96346544 -3.31980201 0 0 Z " fill="#323130" transform="translate(98.375,24.25)"/>
<path d="M0 0 C1.65 0 3.3 0 5 0 C5.33 5.28 5.66 10.56 6 16 C9.60441754 13.70872711 13.20854434 11.41699918 16.8125 9.125 C18.34874023 8.14853516 18.34874023 8.14853516 19.91601562 7.15234375 C20.89892578 6.52714844 21.88183594 5.90195313 22.89453125 5.2578125 C23.80050049 4.6817627 24.70646973 4.10571289 25.63989258 3.51220703 C27.43846772 2.35979425 29.22265648 1.18489568 31 0 C34.1875 -0.125 34.1875 -0.125 37 0 C33.46217842 2.89845623 29.82982486 5.54596471 26.04296875 8.109375 C25.49514236 8.48104797 24.94731598 8.85272095 24.38288879 9.23565674 C22.65240597 10.40905712 20.91999411 11.57957183 19.1875 12.75 C18.00573007 13.55059041 16.82408819 14.35136987 15.64257812 15.15234375 C12.7631952 17.10374932 9.88207632 19.05257388 7 21 C9.85719565 20.39953514 12.00583396 19.55550192 14.46875 17.99609375 C15.11714844 17.58858887 15.76554687 17.18108398 16.43359375 16.76123047 C17.45646484 16.10598389 17.45646484 16.10598389 18.5 15.4375 C19.20253906 14.99293457 19.90507813 14.54836914 20.62890625 14.09033203 C26.81771661 10.15774178 32.93093881 6.1150074 39 2 C39.495 3.98 39.495 3.98 40 6 C32 11 24 16 16 21 C23.92 21.33 31.84 21.66 40 22 C40 22.99 40 23.98 40 25 C26.8 25 13.6 25 0 25 C0 16.75 0 8.5 0 0 Z " fill="#F3E3E8" transform="translate(93,86)"/>
<path d="M0 0 C13.2 0 26.4 0 40 0 C40 0.99 40 1.98 40 3 C27.625 3.495 27.625 3.495 15 4 C20.98212383 7.76990381 20.98212383 7.76990381 26.96533203 11.53808594 C31.34921621 14.30380797 35.70449988 17.09877697 40 20 C39.67 20.66 39.34 21.32 39 22 C35.35168995 19.75869398 31.7038349 17.51664984 28.05639648 15.27392578 C26.81596095 14.51135366 25.57540213 13.74898204 24.3347168 12.98681641 C22.54964125 11.89017809 20.76501285 10.79281536 18.98046875 9.6953125 C17.90692139 9.03547363 16.83337402 8.37563477 15.72729492 7.69580078 C13.79780091 6.49606348 11.89047919 5.26031946 10 4 C8.68 4 7.36 4 6 4 C6.98097656 4.60585937 7.96195312 5.21171875 8.97265625 5.8359375 C16.2082953 10.32120327 23.40263898 14.86081082 30.5 19.5625 C31.15234619 19.99159668 31.80469238 20.42069336 32.47680664 20.86279297 C34.00327202 21.8809873 35.5047154 22.93654328 37 24 C37 24.33 37 24.66 37 25 C29.64098487 24.83532274 24.66365439 20.98671889 18.6875 17 C16.71250689 15.70792466 14.73725945 14.41623795 12.76171875 13.125 C11.89506592 12.55007812 11.02841309 11.97515625 10.13549805 11.3828125 C8.06643313 9.98706408 8.06643313 9.98706408 6 9 C5.67 14.28 5.34 19.56 5 25 C3.35 25 1.7 25 0 25 C0 16.75 0 8.5 0 0 Z " fill="#F1E6EB" transform="translate(93,117)"/>
<path d="M0 0 C13.2 0 26.4 0 40 0 C40 7.92 40 15.84 40 24 C38.35 24 36.7 24 35 24 C35 18.72 35 13.44 35 8 C32.16634917 9.7286481 29.33307262 11.45790472 26.5 13.1875 C25.70851563 13.67025391 24.91703125 14.15300781 24.1015625 14.65039062 C23.31523438 15.13056641 22.52890625 15.61074219 21.71875 16.10546875 C20.93177734 16.58459717 20.14480469 17.06372559 19.33398438 17.55737305 C17.79295002 18.50988058 16.26257693 19.47988365 14.74414062 20.46801758 C14.04482422 20.92200928 13.34550781 21.37600098 12.625 21.84375 C12.00882813 22.25173828 11.39265625 22.65972656 10.7578125 23.08007812 C8.14812382 24.4458152 5.86966606 24.35870826 3 24 C7.38342839 20.33689451 12.05520195 17.20915214 16.8125 14.0625 C17.96588867 13.29389648 17.96588867 13.29389648 19.14257812 12.50976562 C24.04362528 9.25480857 28.99320892 6.08973403 34 3 C30.03463577 2.72747086 27.94877892 3.27965788 24.63671875 5.44921875 C23.83169922 5.96806641 23.02667969 6.48691406 22.19726562 7.02148438 C21.36904297 7.57126953 20.54082031 8.12105469 19.6875 8.6875 C18.04563394 9.75400021 16.40370744 10.82040737 14.76171875 11.88671875 C12.39564015 13.43068936 10.03283045 14.97811073 7.68212891 16.54541016 C6.61164307 17.2441626 6.61164307 17.2441626 5.51953125 17.95703125 C4.88764893 18.37573486 4.2557666 18.79443848 3.60473633 19.22583008 C3.07517334 19.48130615 2.54561035 19.73678223 2 20 C1.34 19.67 0.68 19.34 0 19 C7.83280838 13.38708893 15.87558956 8.17732038 24 3 C16.08 2.67 8.16 2.34 0 2 C0 1.34 0 0.68 0 0 Z " fill="#EEECF0" transform="translate(45,118)"/>
<path d="M0 0 C3.77327452 0.57517393 6.44147482 1.62597908 9.6875 3.6171875 C10.55117188 4.14183594 11.41484375 4.66648437 12.3046875 5.20703125 C13.19414063 5.75746094 14.08359375 6.30789062 15 6.875 C16.33417969 7.68904297 16.33417969 7.68904297 17.6953125 8.51953125 C19.35753023 9.53422834 21.01790993 10.55194738 22.67578125 11.57373047 C25.10709805 13.0657213 27.55391399 14.53234839 30 16 C30.33 10.72 30.66 5.44 31 0 C32.65 0 34.3 0 36 0 C36 7.92 36 15.84 36 24 C22.8 24 9.6 24 -4 24 C-3.67 23.34 -3.34 22.68 -3 22 C4.92 21.67 12.84 21.34 21 21 C19.3396875 19.95199219 17.679375 18.90398437 15.96875 17.82421875 C13.81214542 16.44586713 11.65591456 15.06693065 9.5 13.6875 C8.40300781 12.99720703 7.30601563 12.30691406 6.17578125 11.59570312 C5.13808594 10.92861328 4.10039063 10.26152344 3.03125 9.57421875 C1.58588867 8.65515747 1.58588867 8.65515747 0.11132812 7.7175293 C-0.58541016 7.15074463 -1.28214844 6.58395996 -2 6 C-2 5.01 -2 4.02 -2 3 C0.79516322 4.68175806 3.58602176 6.37050523 6.375 8.0625 C7.60887451 8.81043823 7.60887451 8.81043823 8.86767578 9.57348633 C14.12181125 12.78285028 19.16320482 16.11234491 24.0546875 19.85546875 C26.19842118 21.33806384 26.19842118 21.33806384 30 21 C29.30438965 20.53625977 28.6087793 20.07251953 27.89208984 19.59472656 C20.59472656 14.72981771 13.29736328 9.86490885 6 5 C5.43968079 4.63805542 4.87936157 4.27611084 4.30206299 3.90319824 C2.85172352 2.96009786 1.42367875 1.98288438 0 1 C0 0.67 0 0.34 0 0 Z " fill="#ECECF0" transform="translate(49,86)"/>
<path d="M0 0 C0 5.28 0 10.56 0 16 C1.65 16 3.3 16 5 16 C5 16.33 5 16.66 5 17 C-7.54 17 -20.08 17 -33 17 C-33 16.67 -33 16.34 -33 16 C-31.75089844 15.81695312 -30.50179687 15.63390625 -29.21484375 15.4453125 C-22.82882358 14.02675288 -17.91997508 10.48959574 -12.5625 6.875 C-10.60792162 5.57702787 -8.65100981 4.28256039 -6.69140625 2.9921875 C-5.83748291 2.41839355 -4.98355957 1.84459961 -4.10375977 1.25341797 C-2 0 -2 0 0 0 Z " fill="#0B5D8B" transform="translate(80,126)"/>
<path d="M0 0 C8.91 0 17.82 0 27 0 C27 5.61 27 11.22 27 17 C20.71900644 13.99762692 14.8695928 10.54974457 9 6.8125 C7.69482422 5.99362305 7.69482422 5.99362305 6.36328125 5.15820312 C1.62018369 2.15374494 1.62018369 2.15374494 0 1 C0 0.67 0 0.34 0 0 Z " fill="#036297" transform="translate(53,86)"/>
<path d="M0 0 C6.28099356 3.00237308 12.1304072 6.45025543 18 10.1875 C19.30517578 11.00637695 19.30517578 11.00637695 20.63671875 11.84179688 C25.37981631 14.84625506 25.37981631 14.84625506 27 16 C27 16.33 27 16.66 27 17 C18.09 17 9.18 17 0 17 C0 11.39 0 5.78 0 0 Z " fill="#036297" transform="translate(98,125)"/>
<path d="M0 0 C3.89451055 1.55780422 6.66806242 2.94420664 10.08203125 5.22265625 C11.01337891 5.84333984 11.94472656 6.46402344 12.90429688 7.10351562 C13.86400391 7.74998047 14.82371094 8.39644531 15.8125 9.0625 C16.79154297 9.71283203 17.77058594 10.36316406 18.77929688 11.03320312 C24.12172373 14.61095379 24.12172373 14.61095379 26 16 C26 16.33 26 16.66 26 17 C17.42 17 8.84 17 0 17 C0 11.39 0 5.78 0 0 Z " fill="#046195" transform="translate(45,91)"/>
<path d="M0 0 C8.58 0 17.16 0 26 0 C26 5.61 26 11.22 26 17 C19.80436235 14.06559822 14.17773433 10.64543303 8.5 6.8125 C7.67757812 6.26658203 6.85515625 5.72066406 6.0078125 5.15820312 C1.55110381 2.1710238 1.55110381 2.1710238 0 1 C0 0.67 0 0.34 0 0 Z " fill="#036196" transform="translate(107,120)"/>
<path d="M0 0 C8.58 0 17.16 0 26 0 C23.35309081 2.64690919 21.05950948 4.36954821 17.9296875 6.35546875 C16.46208984 7.28842773 16.46208984 7.28842773 14.96484375 8.24023438 C13.94519531 8.88283203 12.92554687 9.52542969 11.875 10.1875 C10.33392578 11.16879883 10.33392578 11.16879883 8.76171875 12.16992188 C1.13633994 17 1.13633994 17 0 17 C0 11.39 0 5.78 0 0 Z " fill="#036297" transform="translate(98,86)"/>
<path d="M0 0 C8.58 0 17.16 0 26 0 C21.58750073 3.52999942 17.16418808 6.62428154 12.4375 9.6875 C11.68275391 10.18572266 10.92800781 10.68394531 10.15039062 11.19726562 C9.05307617 11.90979492 9.05307617 11.90979492 7.93359375 12.63671875 C7.27415771 13.06686279 6.61472168 13.49700684 5.93530273 13.94018555 C4 15 4 15 0 16 C0 10.72 0 5.44 0 0 Z " fill="#036195" transform="translate(45,120)"/>
<path d="M0 0 C0 5.28 0 10.56 0 16 C-8.58 16 -17.16 16 -26 16 C-22.66931484 13.33545187 -19.76561088 11.13428902 -16.171875 8.984375 C-15.29015625 8.45585938 -14.4084375 7.92734375 -13.5 7.3828125 C-12.13875 6.57457031 -12.13875 6.57457031 -10.75 5.75 C-9.82703125 5.19570312 -8.9040625 4.64140625 -7.953125 4.0703125 C-1.13585283 0 -1.13585283 0 0 0 Z " fill="#046196" transform="translate(133,92)"/>
<path d="M0 0 C-3.37328542 3.75095605 -7.16121352 6.11603859 -11.4375 8.6875 C-17.98361076 12.68614657 -24.29068446 16.91317074 -30.5234375 21.3828125 C-33 23 -33 23 -35 23 C-34.9921875 20.8359375 -34.9921875 20.8359375 -34 18 C-31.59394321 15.86354697 -28.87901485 14.27518722 -26.125 12.625 C-24.56892704 11.66289525 -23.01293751 10.70065556 -21.45703125 9.73828125 C-20.69471191 9.27373535 -19.93239258 8.80918945 -19.14697266 8.33056641 C-17.27677933 7.17153143 -15.45073619 5.97476696 -13.63671875 4.73046875 C-12.23873047 3.78107422 -12.23873047 3.78107422 -10.8125 2.8125 C-10.01457031 2.26207031 -9.21664062 1.71164063 -8.39453125 1.14453125 C-5.45087729 -0.26246811 -3.22290711 -0.20988541 0 0 Z " fill="#CD2D4C" transform="translate(80,120)"/>
<path d="M0 0 C7.27073041 0.19213335 12.1433018 3.87296675 18.0625 7.8125 C19.02994141 8.44220703 19.99738281 9.07191406 20.99414062 9.72070312 C22.85350226 10.93355161 24.70749281 12.15468705 26.55517578 13.38525391 C28.02833142 14.35823687 29.51325722 15.31416058 31.01904297 16.23583984 C32.68359375 17.26171875 32.68359375 17.26171875 35 19 C35 19.99 35 20.98 35 22 C30.42339406 21.44741328 27.50825528 19.62233093 23.7109375 17.0703125 C23.12583405 16.67931366 22.54073059 16.28831482 21.93789673 15.88546753 C20.70669135 15.0604241 19.47808225 14.23149453 18.25195312 13.39892578 C16.37955626 12.12809243 14.49922815 10.8697768 12.6171875 9.61328125 C2.64143211 2.91005232 2.64143211 2.91005232 0 0 Z " fill="#CF314F" transform="translate(98,120)"/>
<path d="M0 0 C0.33 1.32 0.66 2.64 1 4 C-7 9 -15 14 -23 19 C-15.08 19.33 -7.16 19.66 1 20 C1 20.33 1 20.66 1 21 C-2.95096978 21.04939662 -6.9018203 21.08571755 -10.85302734 21.10986328 C-12.8591136 21.12488107 -14.86511324 21.15028981 -16.87109375 21.17578125 C-18.12792969 21.18222656 -19.38476562 21.18867187 -20.6796875 21.1953125 C-21.84226074 21.20578613 -23.00483398 21.21625977 -24.20263672 21.22705078 C-27 21 -27 21 -29 19 C-28.33468262 18.56655273 -27.66936523 18.13310547 -26.98388672 17.68652344 C-23.94737866 15.70800818 -20.91118667 13.72900842 -17.875 11.75 C-16.82828125 11.06808594 -15.7815625 10.38617188 -14.703125 9.68359375 C-9.78657059 6.47849815 -4.87293633 3.27110605 0 0 Z " fill="#D9E0E9" transform="translate(132,88)"/>
<path d="M0 0 C5.19729862 0.44548274 8.40164148 2.33518855 12.4375 5.4375 C13.65579685 6.34351085 14.87591738 7.24707352 16.09765625 8.1484375 C16.72945801 8.61604492 17.36125977 9.08365234 18.01220703 9.56542969 C22.03829423 12.47101657 26.21401914 15.15848182 30.37670898 17.86303711 C31.93386219 18.88462744 33.46947962 19.93892495 35 21 C35 21.33 35 21.66 35 22 C29.96038555 22.67639438 26.98338235 20.36291128 23.0625 17.5625 C21.73929629 16.64436874 20.41505039 15.72773791 19.08984375 14.8125 C18.41679199 14.34457031 17.74374023 13.87664062 17.05029297 13.39453125 C15.04057148 12.02759518 13.00408888 10.72286011 10.94140625 9.4375 C10.30001709 9.03716553 9.65862793 8.63683105 8.99780273 8.22436523 C7.77040475 7.46290167 6.53954382 6.70698556 5.30493164 5.95727539 C1.11013208 3.33039624 1.11013208 3.33039624 0 0 Z " fill="#CF3351" transform="translate(45,86)"/>
<path d="M0 0 C-1.4762064 4.66395646 -5.40608169 6.4128396 -9.375 8.75 C-10.82670906 9.62433222 -12.27721893 10.50065842 -13.7265625 11.37890625 C-14.4474707 11.81477051 -15.16837891 12.25063477 -15.91113281 12.69970703 C-19.9101122 15.18902028 -23.72377831 17.94936568 -27.546875 20.69921875 C-30 22 -30 22 -32.328125 21.70703125 C-32.87984375 21.47371094 -33.4315625 21.24039063 -34 21 C-27.02660789 15.70597984 -19.81390812 10.80787695 -12.5 6 C-11.61538086 5.4119458 -10.73076172 4.8238916 -9.81933594 4.21801758 C-8.98176758 3.67169678 -8.14419922 3.12537598 -7.28125 2.5625 C-6.52908203 2.06878906 -5.77691406 1.57507813 -5.00195312 1.06640625 C-3 0 -3 0 0 0 Z " fill="#CF3250" transform="translate(133,86)"/>
<path d="M0 0 C1.39035371 4.17106112 -0.09769194 7.18206859 -1.4375 11.1875 C-1.68048828 11.93708984 -1.92347656 12.68667969 -2.17382812 13.45898438 C-2.77465056 15.30857501 -3.38629678 17.15464327 -4 19 C-4.99 19 -5.98 19 -7 19 C-4.86163522 4.86163522 -4.86163522 4.86163522 0 0 Z " fill="#373635" transform="translate(21,57)"/>
<path d="M0 0 C8.04668271 4.18174062 15.53175737 8.86476859 23 14 C22.67 14.66 22.34 15.32 22 16 C10.615 9.07 10.615 9.07 -1 2 C-0.67 1.34 -0.34 0.68 0 0 Z " fill="#E7E0E6" transform="translate(110,123)"/>
<path d="M0 0 C-1.48918627 4.12666074 -3.80843004 5.2973363 -7.625 7.25 C-8.62789063 7.77078125 -9.63078125 8.2915625 -10.6640625 8.828125 C-11.43492188 9.21484375 -12.20578125 9.6015625 -13 10 C-11.73164517 6.08978693 -10.61593042 4.27191449 -7.0625 2.1875 C-6.37285156 1.76855469 -5.68320313 1.34960938 -4.97265625 0.91796875 C-3 0 -3 0 0 0 Z " fill="#CE2C4B" transform="translate(133,86)"/>
<path d="M0 0 C0.33 0.66 0.66 1.32 1 2 C-6.11389522 10.81548975 -6.11389522 10.81548975 -11 12 C-7.49102731 7.81576108 -3.91939465 3.80411834 0 0 Z " fill="#3C3B3A" transform="translate(146,137)"/>
<path d="M0 0 C0.33 1.32 0.66 2.64 1 4 C-1.64 5.65 -4.28 7.3 -7 9 C-7 6 -7 6 -5.1875 3.9375 C-3 2 -3 2 0 0 Z " fill="#F0EFF2" transform="translate(132,88)"/>
<path d="M0 0 C-2.06756277 2.7972908 -3.14440371 3.02692273 -6.6875 3.6875 C-7.780625 3.790625 -8.87375 3.89375 -10 4 C-9.67 3.01 -9.34 2.02 -9 1 C-2.63157895 -1.31578947 -2.63157895 -1.31578947 0 0 Z " fill="#343332" transform="translate(110,161)"/>
<path d="M0 0 C3.95820859 0.56545837 6.6659053 1.80902348 10 4 C9.67 4.99 9.34 5.98 9 7 C7.4972763 6.02501855 5.99788037 5.04490611 4.5 4.0625 C3.6646875 3.51722656 2.829375 2.97195312 1.96875 2.41015625 C1.3190625 1.94480469 0.669375 1.47945313 0 1 C0 0.67 0 0.34 0 0 Z " fill="#F1EAEE" transform="translate(49,86)"/>
<path d="M0 0 C2 1 2 1 3 3 C0.36 3.99 -2.28 4.98 -5 6 C-5 4.68 -5 3.36 -5 2 C-2.625 0.9375 -2.625 0.9375 0 0 Z " fill="#403F3E" transform="translate(60,18)"/>
<path d="M0 0 C0.66 0.33 1.32 0.66 2 1 C-0.36292656 3.52588702 -1.66462511 4.88820837 -5 6 C-3.63016497 2.83884224 -3.0109362 2.0072908 0 0 Z " fill="#323130" transform="translate(123,154)"/>
<path d="M0 0 C0.66 0.33 1.32 0.66 2 1 C1 4 1 4 -1.0625 5.1875 C-1.701875 5.455625 -2.34125 5.72375 -3 6 C-3 4.68 -3 3.36 -3 2 C-2.01 1.34 -1.02 0.68 0 0 Z " fill="#D13A57" transform="translate(110,99)"/>
<path d="M0 0 C1.65 0 3.3 0 5 0 C4.67 0.99 4.34 1.98 4 3 C2.35 3.33 0.7 3.66 -1 4 C-0.67 2.68 -0.34 1.36 0 0 Z " fill="#444443" transform="translate(71,14)"/>
<path d="M0 0 C1.65 0 3.3 0 5 0 C4.67 0.99 4.34 1.98 4 3 C2.02 3.33 0.04 3.66 -2 4 C-1.34 2.68 -0.68 1.36 0 0 Z " fill="#383737" transform="translate(77,13)"/>
</svg>
