<?xml version="1.0" encoding="UTF-8"?>
<svg version="1.1" xmlns="http://www.w3.org/2000/svg" width="178" height="178">
<path d="M0 0 C15.67019533 12.97344227 25.9256759 29.19534196 31.30224609 48.67724609 C31.6715625 49.99015625 31.6715625 49.99015625 32.04833984 51.32958984 C37.15502133 73.6228959 32.0515776 97.44005726 20.97802734 117.04052734 C18.11210116 121.54985175 14.7406304 125.59851492 11.30224609 129.67724609 C10.69251953 130.48806641 10.08279297 131.29888672 9.45458984 132.13427734 C-3.57698716 147.53093185 -24.94486726 157.25702855 -44.69775391 159.67724609 C-71.76809915 161.13214338 -95.27037243 155.19359446 -116.01025391 137.30224609 C-134.00118043 120.25356122 -144.3078908 98.74145119 -144.98120117 73.88232422 C-145.27834392 48.77251321 -136.96688191 26.47545091 -119.34619141 8.32568359 C-87.49639416 -23.52411365 -36.15223742 -28.16692872 0 0 Z " fill="#FCFCFC" transform="translate(144.69775390625,18.32275390625)"/>
<path d="M0 0 C15.67019533 12.97344227 25.9256759 29.19534196 31.30224609 48.67724609 C31.6715625 49.99015625 31.6715625 49.99015625 32.04833984 51.32958984 C37.15502133 73.6228959 32.0515776 97.44005726 20.97802734 117.04052734 C18.11210116 121.54985175 14.7406304 125.59851492 11.30224609 129.67724609 C10.69251953 130.48806641 10.08279297 131.29888672 9.45458984 132.13427734 C-3.57698716 147.53093185 -24.94486726 157.25702855 -44.69775391 159.67724609 C-71.76809915 161.13214338 -95.27037243 155.19359446 -116.01025391 137.30224609 C-134.00118043 120.25356122 -144.3078908 98.74145119 -144.98120117 73.88232422 C-145.27834392 48.77251321 -136.96688191 26.47545091 -119.34619141 8.32568359 C-87.49639416 -23.52411365 -36.15223742 -28.16692872 0 0 Z M-105.69775391 12.67724609 C-106.57818359 13.45455078 -107.45861328 14.23185547 -108.36572266 15.03271484 C-118.57149536 24.56279501 -125.87451591 36.18696074 -129.69775391 49.67724609 C-130.05353516 50.84900391 -130.40931641 52.02076172 -130.77587891 53.22802734 C-132.12618631 58.74636556 -132.02725681 64.2754795 -132.01025391 69.92724609 C-132.02636719 70.98298828 -132.04248047 72.03873047 -132.05908203 73.12646484 C-132.07123611 92.98622267 -123.54700676 111.01006563 -110.05712891 125.33740234 C-95.60877616 139.66614952 -76.90077493 147.93654106 -56.51025391 148.11474609 C-35.95223185 147.8246435 -16.07708698 139.49890868 -1.22900391 125.33349609 C15.75895704 107.5066235 20.94180122 87.17138528 20.64599609 63.27099609 C20.36349985 54.99385628 18.59761108 48.2705342 15.30224609 40.67724609 C14.85623047 39.60603516 14.41021484 38.53482422 13.95068359 37.43115234 C10.51481452 29.89719361 5.81543761 23.81273789 0.30224609 17.67724609 C-0.27396484 17.01853516 -0.85017578 16.35982422 -1.44384766 15.68115234 C-13.93735939 2.22890589 -33.33252724 -5.29557121 -51.35791016 -6.58447266 C-71.30882643 -7.15449884 -90.78892371 -0.92331381 -105.69775391 12.67724609 Z " fill="#FAFAFA" transform="translate(144.69775390625,18.32275390625)"/>
<path d="M0 0 C29.7 0 59.4 0 90 0 C90 0.33 90 0.66 90 1 C60.63 1 31.26 1 1 1 C1 7.27 1 13.54 1 20 C30.04 20 59.08 20 89 20 C89 32.54 89 45.08 89 58 C44.945 58.495 44.945 58.495 0 59 C0 39.53 0 20.06 0 0 Z " fill="#0B53B2" transform="translate(44,83)"/>
<path d="M0 0 C29.37 0 58.74 0 89 0 C89 19.14 89 38.28 89 58 C59.63 58 30.26 58 0 58 C0 57.67 0 57.34 0 57 C29.04 57 58.08 57 88 57 C88 44.46 88 31.92 88 19 C58.96 19 29.92 19 0 19 C0 12.73 0 6.46 0 0 Z " fill="#CF1D23" transform="translate(45,84)"/>
<path d="M0 0 C29.04 0 58.08 0 88 0 C88 6.27 88 12.54 88 19 C58.96 19 29.92 19 0 19 C0 12.73 0 6.46 0 0 Z " fill="#F5F8FA" transform="translate(45,122)"/>
<path d="M0 0 C1.74796875 0.52787109 1.74796875 0.52787109 3.53125 1.06640625 C22.74487285 7.39437117 38.38455406 20.87934325 47.8125 38.8125 C48.91339116 41.19093694 49.97751084 43.58681962 51 46 C51.65355469 47.52947266 51.65355469 47.52947266 52.3203125 49.08984375 C55.13458156 57.05048596 55.376529 64.74059953 55.4375 73.125 C55.44773193 74.20942383 55.45796387 75.29384766 55.46850586 76.41113281 C55.27923162 93.87730671 48.97683178 109.5141781 38 123 C37.39542969 123.77988281 36.79085937 124.55976563 36.16796875 125.36328125 C24.33805289 139.78332605 5.28776545 148.60869817 -13 151 C-34.49580139 152.29313993 -54.32364315 147.25411117 -70.90625 132.91015625 C-71.5971875 132.27980469 -72.288125 131.64945313 -73 131 C-73.91265625 130.22462891 -73.91265625 130.22462891 -74.84375 129.43359375 C-88.11365841 117.40019954 -96.59879987 97.5918456 -97.46875 79.921875 C-97.50262561 77.86483588 -97.51256502 75.80727967 -97.5 73.75 C-97.49500488 72.66243408 -97.49000977 71.57486816 -97.48486328 70.4543457 C-97.28494236 61.15250769 -95.68397413 53.55069785 -92 45 C-91.53078125 43.90429688 -91.0615625 42.80859375 -90.578125 41.6796875 C-81.67398249 22.57886567 -65.60630222 8.60554123 -46.08203125 1.03125 C-30.66949111 -4.12579765 -15.56520818 -4.70356412 0 0 Z M-70 19 C-70.74894531 19.65484375 -71.49789062 20.3096875 -72.26953125 20.984375 C-85.04371315 32.90984635 -93.27809059 49.73917094 -94.10498047 67.21923828 C-94.39899262 76.23134976 -94.66725493 85.30363757 -92 94 C-91.67 95.09570312 -91.34 96.19140625 -91 97.3203125 C-84.61534679 116.76830221 -71.8953304 130.60796227 -54.2890625 140.52734375 C-35.52465707 149.79684733 -15.89757535 150.39152682 3.75146484 143.82128906 C15.47491368 139.53923891 24.34209436 132.85467622 33 124 C33.66515625 123.36707031 34.3303125 122.73414063 35.015625 122.08203125 C48.69714437 108.12318379 52.67952139 87.63942141 52.5390625 68.86767578 C51.89888665 48.68613203 42.52354047 31.66801635 28 18 C-0.56366441 -5.84018792 -42.07011627 -5.57416757 -70 19 Z " fill="#3F3E3D" transform="translate(110,15)"/>
<path d="M0 0 C2.375 -0.125 2.375 -0.125 5 0 C7 2 7 2 7.14575195 3.87402344 C6.53919148 10.03791655 4.63466968 14.16061644 1.1875 19.25 C0.74857422 19.930625 0.30964844 20.61125 -0.14257812 21.3125 C-2.57429231 25.0413693 -5.15099181 28.57322092 -8 32 C-4.37 32 -0.74 32 3 32 C2.97679688 30.94039062 2.95359375 29.88078125 2.9296875 28.7890625 C2.91093056 27.4010487 2.89273028 26.0130273 2.875 24.625 C2.85824219 23.92632812 2.84148437 23.22765625 2.82421875 22.5078125 C2.80655733 20.67102514 2.89696739 18.83398037 3 17 C5 15 5 15 7.5625 14.8125 C10 15 10 15 11 16 C10.909084 18.70108504 10.76259234 21.36930311 10.5625 24.0625 C10.51029297 24.82111328 10.45808594 25.57972656 10.40429688 26.36132812 C10.27424165 28.24121722 10.13771962 30.12065685 10 32 C11.11375 31.95875 12.2275 31.9175 13.375 31.875 C17 32 17 32 19 34 C18.625 37.125 18.625 37.125 18 40 C15.36 40 12.72 40 10 40 C10 44.95 10 49.9 10 55 C7.36 55 4.72 55 2 55 C2 49.72 2 44.44 2 39 C-4.6 39 -11.2 39 -18 39 C-17.02434626 34.12173132 -15.46660004 31.28753308 -12.75 27.3125 C-6.98090907 18.58472542 -2.66305133 10.17588719 0 0 Z " fill="#333231" transform="translate(89,22)"/>
<path d="M0 0 C0.99 0 1.98 0 3 0 C3 4.29 3 8.58 3 13 C-2.94 13.495 -2.94 13.495 -9 14 C-7.87540329 12.22891052 -6.75030797 10.45813764 -5.625 8.6875 C-4.99851562 7.70136719 -4.37203125 6.71523438 -3.7265625 5.69921875 C-2.50348387 3.78712071 -1.2590644 1.8885966 0 0 Z " fill="#EDEDED" transform="translate(89,41)"/>
<path d="M0 0 C1.19373708 2.88311938 1.00608676 3.98311202 -0.07421875 6.98046875 C-0.87279297 8.56794922 -0.87279297 8.56794922 -1.6875 10.1875 C-2.20699219 11.25355469 -2.72648438 12.31960937 -3.26171875 13.41796875 C-5 16 -5 16 -7.20703125 16.86328125 C-7.79871094 16.90839844 -8.39039063 16.95351562 -9 17 C-7.57389748 13.3819251 -6.07592713 9.80544535 -4.5 6.25 C-4.0771875 5.28578125 -3.654375 4.3215625 -3.21875 3.328125 C-2 1 -2 1 0 0 Z " fill="#3B3A39" transform="translate(159,114)"/>
<path d="M0 0 C2.86724686 0.57344937 3.8614515 0.8614515 6 3 C3.69 3.33 1.38 3.66 -1 4 C-0.67 2.68 -0.34 1.36 0 0 Z " fill="#4F4E4D" transform="translate(71,14)"/>
</svg>
