<?xml version="1.0" encoding="UTF-8"?>
<svg version="1.1" xmlns="http://www.w3.org/2000/svg" width="179" height="178">
<path d="M0 0 C18.2267011 14.66970458 30.22439504 34.86883182 33.2890625 58.20068359 C35.98089357 83.19238137 29.80815693 107.37237649 14.07568359 127.13867188 C-1.68827443 146.14635675 -23.56529168 157.35148266 -48 160 C-72.0529009 161.79535968 -95.02438711 154.49412179 -113.5625 139.11328125 C-131.45695118 123.59902149 -142.57573926 102.32415365 -144.72875977 78.63549805 C-146.38409384 54.46319901 -139.15839968 30.82219194 -123.21484375 12.42578125 C-122.48394531 11.62527344 -121.75304687 10.82476563 -121 10 C-120.01193359 8.90751953 -120.01193359 8.90751953 -119.00390625 7.79296875 C-88.15921674 -24.66532625 -34.91934985 -26.70030075 0 0 Z " fill="#FBFBFB" transform="translate(145,18)"/>
<path d="M0 0 C18.2267011 14.66970458 30.22439504 34.86883182 33.2890625 58.20068359 C35.98089357 83.19238137 29.80815693 107.37237649 14.07568359 127.13867188 C-1.68827443 146.14635675 -23.56529168 157.35148266 -48 160 C-72.0529009 161.79535968 -95.02438711 154.49412179 -113.5625 139.11328125 C-131.45695118 123.59902149 -142.57573926 102.32415365 -144.72875977 78.63549805 C-146.38409384 54.46319901 -139.15839968 30.82219194 -123.21484375 12.42578125 C-122.48394531 11.62527344 -121.75304687 10.82476563 -121 10 C-120.01193359 8.90751953 -120.01193359 8.90751953 -119.00390625 7.79296875 C-88.15921674 -24.66532625 -34.91934985 -26.70030075 0 0 Z M-107 14 C-107.76699219 14.67546875 -108.53398438 15.3509375 -109.32421875 16.046875 C-123.52608681 29.26015802 -131.41951168 48.2916343 -132.12890625 67.48828125 C-132.4729627 89.9436988 -125.28450688 109.45312802 -109.8125 125.8125 C-95.04100247 139.80112876 -77.12023774 147.3737823 -56.75 147.3125 C-55.69425781 147.32861328 -54.63851562 147.34472656 -53.55078125 147.36132812 C-33.30758834 147.37371686 -15.22176245 138.5109567 -0.640625 124.8046875 C15.28440113 107.89023667 21.61496598 87.2226448 21.26953125 64.3984375 C20.54530263 43.98446631 9.65436175 26.02245238 -4.8125 12.25 C-21.5938862 -2.25243252 -42.05076749 -7.3103441 -63.80273438 -6.18652344 C-79.68157718 -4.83858611 -95.38230043 3.33857343 -107 14 Z " fill="#FBFBFB" transform="translate(145,18)"/>
<path d="M0 0 C29.37 0 58.74 0 89 0 C89 0.33 89 0.66 89 1 C69.53 1 50.06 1 30 1 C30 19.81 30 38.62 30 58 C20.1 58 10.2 58 0 58 C0 38.86 0 19.72 0 0 Z " fill="#0954B2" transform="translate(45,83)"/>
<path d="M0 0 C9.9 0 19.8 0 30 0 C30 18.81 30 37.62 30 57 C20.1 57 10.2 57 0 57 C0 38.19 0 19.38 0 0 Z " fill="#DD2026" transform="translate(104,84)"/>
<path d="M0 0 C9.57 0 19.14 0 29 0 C29 18.48 29 36.96 29 56 C19.43 56 9.86 56 0 56 C0 37.52 0 19.04 0 0 Z " fill="#FDFDFD" transform="translate(75,84)"/>
<path d="M0 0 C1.54349871 1.17924349 3.06458035 2.38837549 4.5625 3.625 C5.40167969 4.30304687 6.24085938 4.98109375 7.10546875 5.6796875 C21.48264665 17.90355131 32.0579604 36.0915254 33.78564453 55.07714844 C35.19387769 78.60656137 28.41161379 99.24284652 12.9375 117.25 C0.08789511 130.8990492 -18.05648876 140.15206328 -36.89453125 140.8984375 C-59.93465858 141.4216226 -78.45419023 136.83760233 -95.45336914 120.6159668 C-96.79388923 119.29821756 -98.1164459 117.96226335 -99.4375 116.625 C-100.03046875 116.04234375 -100.6234375 115.4596875 -101.234375 114.859375 C-114.76809144 100.45251556 -119.95480402 80.61251441 -119.62109375 61.35546875 C-118.62775728 41.17171703 -110.69731019 23.90902039 -96.4375 9.625 C-95.75042969 8.92632812 -95.06335938 8.22765625 -94.35546875 7.5078125 C-69.23578777 -16.44676268 -28.65843346 -19.33092446 0 0 Z M-100.265625 17.77734375 C-113.41236598 35.01470738 -118.79413646 54.99589783 -115.93359375 76.39453125 C-112.06950387 96.42155709 -101.62405462 113.528125 -85.125 125.5 C-67.50681171 137.05669255 -47.63575955 140.81373998 -26.92675781 136.59765625 C-7.42771168 131.81431194 8.71440638 120.5764942 19.5625 103.625 C29.63186331 86.27956432 33.8088769 66.28215944 29.0625 46.5625 C23.90215132 27.27896661 12.53306533 11.25042366 -4.4375 0.625 C-37.18799442 -18.07758708 -75.7407748 -10.35665994 -100.265625 17.77734375 Z " fill="#3D3C3B" transform="translate(132.4375,24.375)"/>
<path d="M0 0 C8.25 0 16.5 0 25 0 C25.33 1.65 25.66 3.3 26 5 C23.32968716 7.67733998 21.96278559 8.00280229 18.109375 8.29296875 C16.65595991 8.27314945 15.20268833 8.23754845 13.75 8.1875 C12.63238281 8.16719727 12.63238281 8.16719727 11.4921875 8.14648438 C9.66114584 8.11127204 7.83047831 8.05746851 6 8 C6 10.64 6 13.28 6 16 C6.72445312 15.95359375 7.44890625 15.9071875 8.1953125 15.859375 C14.35813759 15.6292962 18.20182377 15.68164139 23 20 C27.09474991 24.34142159 26.60299187 28.80234123 26.484375 34.5078125 C25.58339459 41.00359059 21.98984921 44.15228287 17.375 48.4375 C12.20572849 51.83833652 5.99905512 51.63007827 0 51 C-3.1875 49.375 -3.1875 49.375 -5 47 C-5.4375 43.875 -5.4375 43.875 -5 41 C-4.34 40.34 -3.68 39.68 -3 39 C-0.5625 39.125 -0.5625 39.125 2 40 C2.45375 40.680625 2.9075 41.36125 3.375 42.0625 C4.9571348 44.37674166 4.9571348 44.37674166 8.4375 44.5625 C12.11504065 44.33317578 12.11504065 44.33317578 14.375 41.6875 C17.00594748 37.33631763 17.34734755 34.03653949 17 29 C15.25271222 25.27196535 15.25271222 25.27196535 12 23 C7.72521394 22.86210368 4.12391402 22.84530407 0 24 C-1 23 -1 23 -1.1328125 20.6640625 C-1.13023438 19.66117188 -1.12765625 18.65828125 -1.125 17.625 C-1.12886719 16.15933594 -1.12886719 16.15933594 -1.1328125 14.6640625 C-0.95522351 9.76469573 -0.44385912 4.88245037 0 0 Z " fill="#313030" transform="translate(78,26)"/>
<path d="M0 0 C1 3 1 3 -0.625 6.5625 C-2.57304614 9.79107996 -4.25750322 11.06437581 -8 12 C-2.94736842 1.47368421 -2.94736842 1.47368421 0 0 Z " fill="#383736" transform="translate(156,122)"/>
<path d="M0 0 C-0.99 1.485 -0.99 1.485 -2 3 C-4.3828125 3.29296875 -4.3828125 3.29296875 -7.125 3.1875 C-8.03507812 3.16042969 -8.94515625 3.13335937 -9.8828125 3.10546875 C-10.58148438 3.07066406 -11.28015625 3.03585938 -12 3 C-10 0 -10 0 -7.125 -0.75 C-4.34990614 -0.97200751 -2.59410701 -0.89796012 0 0 Z " fill="#444342" transform="translate(109,161)"/>
<path d="M0 0 C-1.97420135 2.52259061 -2.96745642 2.9929808 -6.1875 3.6875 C-7.5796875 3.8421875 -7.5796875 3.8421875 -9 4 C-6.35287314 0.09233654 -4.86783735 -1.62261245 0 0 Z " fill="#363534" transform="translate(70,16)"/>
<path d="M0 0 C2.86724686 0.57344937 3.8614515 0.8614515 6 3 C3.69 3.33 1.38 3.66 -1 4 C-0.67 2.68 -0.34 1.36 0 0 Z " fill="#4E4D4C" transform="translate(70,14)"/>
</svg>
