<?xml version="1.0" encoding="UTF-8"?>
<svg version="1.1" xmlns="http://www.w3.org/2000/svg" width="178" height="178">
<path d="M0 0 C17.79250127 15.29325738 28.03148741 36.23280307 30.7734375 59.3984375 C32.18187395 84.26275793 25.4102478 107.85955709 8.9453125 126.9765625 C8.22859375 127.77578125 7.511875 128.575 6.7734375 129.3984375 C6.22171875 130.03265625 5.67 130.666875 5.1015625 131.3203125 C-9.78572006 147.38678576 -32.72671281 156.77382377 -54.41796875 157.6015625 C-81.12179214 158.07776653 -104.05109285 148.99444693 -123.4140625 130.5234375 C-141.34375231 111.91105409 -147.79741132 88.07391722 -147.50390625 62.86328125 C-146.83961245 40.20127834 -136.38061867 20.36877864 -121.01953125 4.03125 C-109.45212271 -6.8728526 -95.49995595 -14.31429416 -80.2265625 -18.6015625 C-79.42605469 -18.8284375 -78.62554687 -19.0553125 -77.80078125 -19.2890625 C-50.36377798 -25.59038383 -21.43673512 -17.66072306 0 0 Z " fill="#FCFCFC" transform="translate(147.2265625,20.6015625)"/>
<path d="M0 0 C17.79250127 15.29325738 28.03148741 36.23280307 30.7734375 59.3984375 C32.18187395 84.26275793 25.4102478 107.85955709 8.9453125 126.9765625 C8.22859375 127.77578125 7.511875 128.575 6.7734375 129.3984375 C6.22171875 130.03265625 5.67 130.666875 5.1015625 131.3203125 C-9.78572006 147.38678576 -32.72671281 156.77382377 -54.41796875 157.6015625 C-81.12179214 158.07776653 -104.05109285 148.99444693 -123.4140625 130.5234375 C-141.34375231 111.91105409 -147.79741132 88.07391722 -147.50390625 62.86328125 C-146.83961245 40.20127834 -136.38061867 20.36877864 -121.01953125 4.03125 C-109.45212271 -6.8728526 -95.49995595 -14.31429416 -80.2265625 -18.6015625 C-79.42605469 -18.8284375 -78.62554687 -19.0553125 -77.80078125 -19.2890625 C-50.36377798 -25.59038383 -21.43673512 -17.66072306 0 0 Z M-118.09765625 19.609375 C-130.70195311 36.12216024 -137.05964985 55.65631465 -135.2265625 76.3984375 C-132.2515507 97.13748473 -122.61055081 116.85930604 -105.57958984 129.63378906 C-98.57089077 134.61174744 -91.3875887 138.63290703 -83.2265625 141.3984375 C-82.50678223 141.66301758 -81.78700195 141.92759766 -81.04541016 142.20019531 C-73.94517749 144.61813704 -67.30692624 144.84865978 -59.8515625 144.7734375 C-58.70945312 144.78503906 -57.56734375 144.79664063 -56.390625 144.80859375 C-45.36129957 144.77099378 -35.51682509 142.52151284 -25.6015625 137.7109375 C-24.87718994 137.36353516 -24.15281738 137.01613281 -23.40649414 136.65820312 C-17.33083466 133.64244817 -12.20064067 130.02506168 -7.2265625 125.3984375 C-6.5459375 124.80804688 -5.8653125 124.21765625 -5.1640625 123.609375 C9.03773343 110.57257015 17.15254327 91.14341894 18.09375 72.109375 C18.69625908 51.99564263 13.30943897 33.18592946 -0.04296875 17.69921875 C-11.79466556 5.31684054 -23.97256632 -1.97306081 -40.2265625 -6.6015625 C-41.06574219 -6.8490625 -41.90492187 -7.0965625 -42.76953125 -7.3515625 C-71.03341767 -14.3567254 -99.64963906 -1.7098005 -118.09765625 19.609375 Z " fill="#FAFAFA" transform="translate(147.2265625,20.6015625)"/>
<path d="M0 0 C29.7 0 59.4 0 90 0 C90 19.47 90 38.94 90 59 C60.3 59 30.6 59 0 59 C0 39.53 0 20.06 0 0 Z " fill="#E21E23" transform="translate(44,83)"/>
<path d="M0 0 C29.7 0 59.4 0 90 0 C90 19.47 90 38.94 90 59 C60.3 59 30.6 59 0 59 C0 58.67 0 58.34 0 58 C29.37 58 58.74 58 89 58 C88.67 51.73 88.34 45.46 88 39 C88 32.73 88 26.46 88 20 C59.29 20 30.58 20 1 20 C1 26.27 1 32.54 1 39 C0.67 39 0.34 39 0 39 C0 26.13 0 13.26 0 0 Z " fill="#36332F" transform="translate(44,83)"/>
<path d="M0 0 C28.71 0 57.42 0 87 0 C87 6.27 87 12.54 87 19 C58.29 19 29.58 19 0 19 C0 12.73 0 6.46 0 0 Z " fill="#F6F5F5" transform="translate(45,103)"/>
<path d="M0 0 C15.68141518 12.45955139 28.92878815 29.42126684 31.43359375 49.93359375 C33.01203713 74.01571614 28.44846698 95.37581836 12.43359375 113.93359375 C0.27330545 127.7876365 -17.32682122 137.34824053 -35.7722168 139.26708984 C-59.31577443 140.50557076 -77.92271665 136.15260074 -95.94140625 120.43359375 C-107.96505242 109.03152541 -115.05700486 96.786958 -119.56640625 80.93359375 C-119.81390625 80.0828125 -120.06140625 79.23203125 -120.31640625 78.35546875 C-125.17590247 58.51252584 -119.71561349 39.05139783 -109.56640625 21.93359375 C-98.25101807 4.26003506 -81.3204155 -8.08876462 -60.80786133 -12.9831543 C-40.15383319 -17.26210597 -16.97023294 -12.62585331 0 0 Z M-91.56640625 5.93359375 C-92.60861328 6.71283203 -92.60861328 6.71283203 -93.671875 7.5078125 C-108.50881563 19.26482933 -116.10880175 37.59711355 -118.35546875 55.93212891 C-120.45269454 75.83150043 -113.76232424 94.90875054 -101.5390625 110.5234375 C-90.35105356 123.65366861 -73.59331168 134.68694824 -55.94433594 136.15112305 C-33.35227229 137.09084439 -13.65035855 133.5901847 3.9765625 118.234375 C18.17547141 104.93841737 27.83105488 87.12756529 28.671875 67.4375 C29.15137561 46.24314508 23.93419569 28.64567687 9.83203125 12.42578125 C-3.25244747 -1.17014289 -21.15240627 -10.19518016 -40.16015625 -11.26953125 C-59.61140049 -11.50294618 -76.28791361 -6.42078546 -91.56640625 5.93359375 Z " fill="#3E3D3C" transform="translate(133.56640625,26.06640625)"/>
<path d="M0 0 C1.78125 1.171875 1.78125 1.171875 2.53125 4.296875 C2.61375 5.245625 2.69625 6.194375 2.78125 7.171875 C1.13125 8.161875 -0.51875 9.151875 -2.21875 10.171875 C-2.734375 9.676875 -3.25 9.181875 -3.78125 8.671875 C-7.15638128 6.59487114 -9.31675946 6.69268318 -13.21875 7.171875 C-17.92764541 9.84738375 -19.5326016 13.11342981 -21.21875 18.171875 C-21.47265222 20.96527657 -21.47265222 20.96527657 -21.21875 23.171875 C-20.55875 22.841875 -19.89875 22.511875 -19.21875 22.171875 C-12.7060955 20.00099017 -7.95108525 20.86567325 -1.98046875 23.80859375 C1.23332739 26.29554464 2.6048281 29.0195698 3.21484375 33.00390625 C3.22336313 39.50419662 3.01324675 44.9807855 -1.21875 50.171875 C-5.3002534 54.0997218 -9.21160837 55.49682889 -14.84375 55.734375 C-21.018241 55.42693146 -24.20500203 53.24156042 -28.46875 48.859375 C-33.26627864 41.49174173 -33.03350007 32.63669939 -32.21875 24.171875 C-29.9004582 14.99575256 -24.91500723 7.32586495 -17.2421875 1.73046875 C-11.87231181 -1.33955978 -5.86614944 -2.18947831 0 0 Z " fill="#31302F" transform="translate(102.21875,22.828125)"/>
<path d="M0 0 C3.23430623 3.14189748 3.38667249 5.02965646 3.5 9.4375 C3.45166054 13.12096704 3.27145141 14.95373912 1.625 18.3125 C-0.8125 20.125 -0.8125 20.125 -4.3125 20.75 C-7.8125 20.125 -7.8125 20.125 -10.125 18 C-13.84269652 11.66614667 -14.06781541 6.3021999 -13.8125 -0.875 C-4.57336957 -3.04891304 -4.57336957 -3.04891304 0 0 Z " fill="#F6F6F6" transform="translate(92.8125,51.875)"/>
<path d="M0 0 C0.33 0.66 0.66 1.32 1 2 C-3.32893185 7.18419194 -7.76564995 11.72706118 -13 16 C-13.66 15.67 -14.32 15.34 -15 15 C-13.44221619 13.2456027 -11.87905295 11.49653989 -10.3125 9.75 C-9.44238281 8.77546875 -8.57226562 7.8009375 -7.67578125 6.796875 C-5.25206689 4.26347429 -2.7912151 2.11227089 0 0 Z " fill="#353433" transform="translate(148,134)"/>
<path d="M0 0 C0.66 0.33 1.32 0.66 2 1 C-1.4140626 5.77968764 -4.3182926 9.10609753 -10 11 C-10 9.68 -10 8.36 -10 7 C-8.06640625 5.33203125 -8.06640625 5.33203125 -5.5625 3.8125 C-4.73878906 3.30332031 -3.91507813 2.79414063 -3.06640625 2.26953125 C-2.38449219 1.85058594 -1.70257813 1.43164062 -1 1 C-0.67 0.67 -0.34 0.34 0 0 Z " fill="#403F3E" transform="translate(135,145)"/>
<path d="M0 0 C0.66 0.33 1.32 0.66 2 1 C-0.36292656 3.52588702 -1.66462511 4.88820837 -5 6 C-4.75 4.125 -4.75 4.125 -4 2 C-2.0625 0.6875 -2.0625 0.6875 0 0 Z " fill="#323130" transform="translate(124,153)"/>
<path d="M0 0 C0.99 0 1.98 0 3 0 C2.67 1.65 2.34 3.3 2 5 C0.35 5.33 -1.3 5.66 -3 6 C-2.01 4.02 -1.02 2.04 0 0 Z " fill="#434241" transform="translate(153,123)"/>
<path d="M0 0 C0.33 0.99 0.66 1.98 1 3 C-0.3125 5.1875 -0.3125 5.1875 -2 7 C-2.66 7 -3.32 7 -4 7 C-3.39816251 4.97954558 -2.72693904 2.97888961 -2 1 C-1.34 0.67 -0.68 0.34 0 0 Z " fill="#323130" transform="translate(23,52)"/>
</svg>
