<?xml version="1.0" encoding="UTF-8"?>
<svg version="1.1" xmlns="http://www.w3.org/2000/svg" width="90" height="121">
<path d="M0 0 C29.7 0 59.4 0 90 0 C90.16043524 23.92713304 90.16043524 23.92713304 90.1953125 34.13867188 C90.21920927 41.10225642 90.24745735 48.06563025 90.30175781 55.02905273 C90.34526912 60.64412684 90.36914857 66.25897493 90.37950897 71.87420464 C90.38689079 74.01480097 90.40130579 76.15538515 90.42292023 78.29588509 C90.45202391 81.29786889 90.45595302 84.29892285 90.45410156 87.30102539 C90.46848267 88.1828801 90.48286377 89.0647348 90.49768066 89.97331238 C90.45877341 95.81645527 89.33945899 99.18028218 86 104 C80.51641824 109.28664149 71.95345431 111.76043404 64.96362305 114.55908203 C62.93109634 115.37757875 60.91027908 116.22135829 58.88867188 117.06640625 C57.58136519 117.59532476 56.27344196 118.12272248 54.96484375 118.6484375 C53.7955835 119.12458496 52.62632324 119.60073242 51.42163086 120.09130859 C44.89089669 121.82569265 39.36416432 119.62979906 33.2734375 117.234375 C32.56273102 116.95909973 31.85202454 116.68382446 31.11978149 116.40020752 C29.62747601 115.81906351 28.1367157 115.23393741 26.64746094 114.64501953 C24.37997237 113.75195839 22.1046726 112.88138351 19.828125 112.01171875 C18.37186636 111.44145441 16.91611867 110.86988321 15.4609375 110.296875 C14.78686859 110.04145935 14.11279968 109.7860437 13.41830444 109.52288818 C7.67912181 107.2130038 4.26646495 104.4083825 1.38246155 98.92399597 C-0.44542955 94.46877355 -0.40004339 90.24357912 -0.34057617 85.48461914 C-0.34101425 84.55700775 -0.34145233 83.62939636 -0.34190369 82.67367554 C-0.33982442 79.62728352 -0.31653398 76.58145137 -0.29296875 73.53515625 C-0.28736973 71.41524048 -0.28310108 69.29532082 -0.28010559 67.17539978 C-0.26868093 61.61047548 -0.2392341 56.04578808 -0.20599365 50.48095703 C-0.16982956 43.79621018 -0.1561203 37.11138387 -0.13863373 30.42656708 C-0.1095955 20.28421356 -0.05209135 10.14237931 0 0 Z " fill="#949595" transform="translate(0,0)"/>
<path d="M0 0 C2.48348359 4.43479212 2.62483027 8.15437346 1.75 13.125 C-0.24657127 16.98044798 -1.64707638 18.72305092 -5.25 21.125 C-4.321875 21.7025 -3.39375 22.28 -2.4375 22.875 C0.46956914 24.92704881 1.94850582 26.1472361 3.75 29.125 C4.62570205 34.34765547 4.36426036 38.8509785 2.0625 43.625 C-0.25 46.125 -0.25 46.125 -5.25 49.125 C-9.21 49.125 -13.17 49.125 -17.25 49.125 C-17.25 33.945 -17.25 18.765 -17.25 3.125 C-18.57 2.795 -19.89 2.465 -21.25 2.125 C-20.92 1.135 -20.59 0.145 -20.25 -0.875 C-13.49414915 -2.3900989 -6.17210883 -3.56083202 0 0 Z " fill="#2E2D2C" transform="translate(25.25,24.875)"/>
<path d="M0 0 C3 0.375 3 0.375 4.875 1.5 C6.58353009 4.34755015 6.52187626 6.11327339 6 9.375 C3.11959536 12.99608011 0.45049531 15.08669872 -4 16.375 C-4.99 16.375 -5.98 16.375 -7 16.375 C-6.71640113 17.8141134 -6.42278601 19.25125518 -6.125 20.6875 C-5.96257813 21.48800781 -5.80015625 22.28851563 -5.6328125 23.11328125 C-5.05521001 25.62801118 -5.05521001 25.62801118 -3 28.375 C-0.02934491 28.03272428 -0.02934491 28.03272428 3 27.375 C3.33 26.715 3.66 26.055 4 25.375 C4.66 25.375 5.32 25.375 6 25.375 C4.74426756 29.2468417 3.63191921 31.40338671 0 33.375 C-2.5 33.8125 -2.5 33.8125 -5 33.375 C-8.70960087 30.61929649 -10.00938692 27.83275884 -11 23.375 C-12.00742451 15.6111151 -10.25679494 9.91007956 -6 3.375 C-3.85580184 0.82346077 -3.43209993 0.42901249 0 0 Z " fill="#363534" transform="translate(43,41.625)"/>
<path d="M0 0 C8 1 8 1 11 3.5 C13.79953451 7.41180748 13.64788336 11.37956867 13 16 C11.91050088 19.93895836 11.47294006 20.68470663 8 23 C5.36 23 2.72 23 0 23 C0 15.41 0 7.82 0 0 Z " fill="#999A9A" transform="translate(12,48)"/>
<path d="M0 0 C1.9375 1.1875 1.9375 1.1875 3 3 C2.6875 5.6875 2.6875 5.6875 2 8 C1.01 8.33 0.02 8.66 -1 9 C-1.33 7.35 -1.66 5.7 -2 4 C-3.65 4 -5.3 4 -7 4 C-7.79940524 6.23833466 -8.09954248 7.6142729 -7.5 9.9375 C-5.59763744 12.55324852 -3.35512948 14.00992693 -0.65625 15.75390625 C1 17 1 17 3 20 C3.44670637 24.02035732 3.38249016 26.29621811 1.4375 29.875 C-1.779743 32.67977595 -3.75354391 33.07449923 -8 33 C-10.9375 31.0625 -10.9375 31.0625 -13 29 C-12.67 27.35 -12.34 25.7 -12 24 C-9 25 -9 25 -7.8125 27.0625 C-7.4103125 28.0215625 -7.4103125 28.0215625 -7 29 C-5.02 29 -3.04 29 -1 29 C-0.58655029 26.20002923 -0.58655029 26.20002923 -1 23 C-3.11917343 20.40907643 -3.11917343 20.40907643 -5.9375 18.25 C-11.84873516 13.36138358 -11.84873516 13.36138358 -12.3125 9.1875 C-11.92835642 5.2692355 -10.70743683 3.78706733 -8 1 C-5.20129973 -0.39935013 -3.09501208 -0.25265405 0 0 Z " fill="#343433" transform="translate(82,42)"/>
<path d="M0 0 C1 1 1 1 1.0625 4.0625 C1.041875 5.031875 1.02125 6.00125 1 7 C0.01 7.33 -0.98 7.66 -2 8 C-2.33 6.35 -2.66 4.7 -3 3 C-4.65 3 -6.3 3 -8 3 C-8.95020416 5.239835 -8.95020416 5.239835 -9 8 C-6.87640616 10.62499209 -6.87640616 10.62499209 -4 13 C-1.06585228 15.60072184 0.73028111 17.20770077 2 20.9375 C2 24.77523843 1.10300954 26.8092269 -1 30 C-3.56531062 32.0345567 -4.76784648 32.01421348 -8.0625 31.8125 C-12.41643836 30.60821918 -12.41643836 30.60821918 -14 28 C-13.6875 25.3125 -13.6875 25.3125 -13 23 C-10 24 -10 24 -8.8125 26.0625 C-8.4103125 27.0215625 -8.4103125 27.0215625 -8 28 C-6.02 28 -4.04 28 -2 28 C-1.91335674 23.84112364 -2.13448677 21.92531837 -5.03515625 18.82421875 C-6.65489731 17.4201009 -8.29925392 16.04379708 -9.96875 14.69921875 C-12.58363603 12.51176601 -12.93548236 11.58065878 -13.3125 8.1875 C-12.92835642 4.2692355 -11.70743683 2.78706733 -9 0 C-5.90842747 -1.54578627 -3.31526981 -0.60277633 0 0 Z " fill="#343332" transform="translate(65,43)"/>
<path d="M0 0 C7 0 7 0 8.9375 1.4375 C10.5556451 5.34008524 10.76745059 8.84715991 10 13 C8.62709398 15.77406113 7.4231908 16.8999013 5 19 C3.35 19 1.7 19 0 19 C0 12.73 0 6.46 0 0 Z " fill="#9A9B9B" transform="translate(13,26)"/>
<path d="M0 0 C10.67234043 -0.76595745 10.67234043 -0.76595745 15.25 1.875 C17.73576107 6.31385906 17.86756451 10.02543287 17 15 C15.00037651 18.99924698 13.27683498 21.47255894 9 23 C9 20 9 20 10.5 18.375 C12.74998194 14.8125286 12.58369964 11.11621951 12 7 C11.34 6.01 10.68 5.02 10 4 C7.69 3.67 5.38 3.34 3 3 C3 9.27 3 15.54 3 22 C3.99 22.33 4.98 22.66 6 23 C4.68 23 3.36 23 2 23 C2 15.74 2 8.48 2 1 C1.34 0.67 0.68 0.34 0 0 Z " fill="#3C3B3A" transform="translate(10,23)"/>
<path d="M0 0 C3.0077934 1.04923026 4.7948746 2.38869647 6.734375 4.9296875 C8.71278411 9.09731982 8.4052484 13.47150997 7.6875 17.9375 C5.55103475 22.36868719 3.31172478 25.1665203 -1.3125 26.9375 C-4.99388034 27.17148604 -8.62954771 27.11165011 -12.3125 26.9375 C-10.9925 26.6075 -9.6725 26.2775 -8.3125 25.9375 C-8.3125 25.2775 -8.3125 24.6175 -8.3125 23.9375 C-7.219375 23.793125 -6.12625 23.64875 -5 23.5 C-1.38127013 23.05461896 -1.38127013 23.05461896 1.6875 21.9375 C2.87400072 17.33980969 3.32048703 12.65068721 2.6875 7.9375 C0.62911475 4.60149633 -1.0518264 3.1112824 -4.3125 0.9375 C-2.3125 -0.0625 -2.3125 -0.0625 0 0 Z " fill="#323231" transform="translate(21.3125,47.0625)"/>
<path d="M0 0 C0.8125 3.25 0.8125 3.25 1 7 C-1.1875 9.4375 -1.1875 9.4375 -4 11 C-5.32 11 -6.64 11 -8 11 C-6.94230769 0 -6.94230769 0 0 0 Z " fill="#969797" transform="translate(44,45)"/>
<path d="M0 0 C1.9375 1.1875 1.9375 1.1875 3 3 C2.6875 5.6875 2.6875 5.6875 2 8 C1.01 8.33 0.02 8.66 -1 9 C-1.33 7.35 -1.66 5.7 -2 4 C-5.58743484 3.69148755 -5.58743484 3.69148755 -8.75 5.1875 C-10.28838998 7.41816548 -10.64005447 9.3364031 -11 12 C-11.33 12 -11.66 12 -12 12 C-12.35671933 8.16526716 -12.29771416 6.44657125 -10.125 3.1875 C-6.81980606 -0.21490553 -4.68158419 -0.38217014 0 0 Z " fill="#373635" transform="translate(82,42)"/>
<path d="M0 0 C4.875 0.875 4.875 0.875 6 2 C6.375 4.75 6.375 4.75 6 8 C3.44975635 11.10164769 1.82300753 12.72566416 -2 14 C-2.33 13.34 -2.66 12.68 -3 12 C-2.319375 11.690625 -1.63875 11.38125 -0.9375 11.0625 C1.24225528 9.20387017 1.24225528 9.20387017 1.04296875 6.796875 C0.77326626 4.5097979 0.43607646 2.26096165 0 0 Z " fill="#31302F" transform="translate(43,43)"/>
<path d="M0 0 C2 1 2 1 3 3 C2.21625 3.28875 1.4325 3.5775 0.625 3.875 C-2.09671632 4.84912254 -2.09671632 4.84912254 -4 7 C-4.64767793 9.57061311 -4.64767793 9.57061311 -5 12 C-5.33 12 -5.66 12 -6 12 C-6.35671933 8.16526716 -6.29771416 6.44657125 -4.125 3.1875 C-2 1 -2 1 0 0 Z " fill="#444343" transform="translate(76,42)"/>
<path d="M0 0 C-0.99 0.33 -1.98 0.66 -3 1 C-3 1.66 -3 2.32 -3 3 C-3.61875 3.28875 -4.2375 3.5775 -4.875 3.875 C-7.13325765 4.93720042 -7.13325765 4.93720042 -9 7 C-9 3 -9 3 -7.875 1.25 C-5.22990509 -0.5133966 -3.10417379 -0.20694492 0 0 Z " fill="#403F3F" transform="translate(46,42)"/>
<path d="M0 0 C2.31 0 4.62 0 7 0 C6.67 0.99 6.34 1.98 6 3 C2.7 3 -0.6 3 -4 3 C-2.68 2.67 -1.36 2.34 0 2 C0 1.34 0 0.68 0 0 Z " fill="#3C3C3B" transform="translate(13,71)"/>
</svg>
