<?xml version="1.0" encoding="UTF-8"?>
<svg version="1.1" xmlns="http://www.w3.org/2000/svg" width="90" height="122">
<path d="M0 0 C29.7 0 59.4 0 90 0 C90.12032643 23.67756711 90.12032643 23.67756711 90.14648438 33.78320312 C90.16440627 40.67430566 90.18559091 47.56528842 90.22631836 54.45629883 C90.25895364 60.01300811 90.27686193 65.56958891 90.28463173 71.12638664 C90.29016772 73.24463867 90.30097816 75.36288379 90.31719017 77.48108101 C90.33901957 80.4518151 90.34196458 83.42202066 90.34057617 86.39282227 C90.351362 87.26532623 90.36214783 88.1378302 90.3732605 89.03677368 C90.34265333 95.10315977 89.43039834 99.90304729 85.57836914 104.81152344 C83.71194114 106.21690186 81.89929021 107.10555637 79.74609375 108.015625 C78.4612207 108.56283203 78.4612207 108.56283203 77.15039062 109.12109375 C76.25513672 109.49363281 75.35988281 109.86617188 74.4375 110.25 C73.60025391 110.60707031 72.76300781 110.96414062 71.90039062 111.33203125 C70.05362086 112.11205027 68.19586029 112.8663417 66.33032227 113.6003418 C63.77418011 114.67462982 61.39916658 115.81818898 58.94897461 117.09692383 C51.60229464 120.72423571 45.82048196 122.98139034 37.7467804 120.4602356 C33.62638139 118.90010795 29.66416243 117.07899104 25.6875 115.1875 C24.03170766 114.46127529 22.3735001 113.7405317 20.71289062 113.02539062 C3.35626015 105.4028582 3.35626015 105.4028582 0 97 C-0.40966434 93.79988971 -0.37982893 90.63696049 -0.34057617 87.41455078 C-0.34101425 86.46757828 -0.34145233 85.52060577 -0.34190369 84.54493713 C-0.33982079 81.42818275 -0.31651298 78.31197243 -0.29296875 75.1953125 C-0.28737103 73.02912693 -0.28310176 70.86293756 -0.28010559 68.69674683 C-0.26867074 63.00522307 -0.23921504 57.31393028 -0.20599365 51.62249756 C-0.16985728 44.78842949 -0.15612516 37.95428404 -0.13863373 31.12014771 C-0.10957712 20.74660468 -0.05208002 10.37356807 0 0 Z " fill="#E0781A" transform="translate(0,0)"/>
<path d="M0 0 C1.2365332 -0.04350586 1.2365332 -0.04350586 2.49804688 -0.08789062 C8.12390769 -0.14635281 11.12250366 0.63827721 15.4375 4.3125 C16.96964888 7.37679776 16.66688548 9.9290642 16.4375 13.3125 C14.62522558 17.41396316 12.13837592 19.81440876 8.4375 22.3125 C7.4475 22.3125 6.4575 22.3125 5.4375 22.3125 C5.4375 22.9725 5.4375 23.6325 5.4375 24.3125 C6.46875 24.374375 7.5 24.43625 8.5625 24.5 C13.41963866 25.5184323 14.96415259 26.83915259 18.4375 30.3125 C19.8125 32.625 19.8125 32.625 20.4375 34.3125 C22.04625 34.065 22.04625 34.065 23.6875 33.8125 C32.61216656 32.71871316 41.96778826 31.94652354 49.875 36.8125 C52.36622205 40.79845529 52.04649128 44.74506538 51.4375 49.3125 C49.14033202 54.87406457 44.71083288 57.77099987 39.4375 60.3125 C46.06486118 72.6325113 46.06486118 72.6325113 56.5 81.08984375 C58.60595396 81.45461864 58.60595396 81.45461864 61.4375 81.3125 C61.4375 81.9725 61.4375 82.6325 61.4375 83.3125 C56.98100748 85.1163184 54.00699955 86.04890983 49.4375 84.3125 C41.98065215 78.02721636 36.98159076 68.82215144 32.4375 60.3125 C32.4375 59.6525 32.4375 58.9925 32.4375 58.3125 C33.05238281 58.14234375 33.66726562 57.9721875 34.30078125 57.796875 C35.10902344 57.55453125 35.91726562 57.3121875 36.75 57.0625 C37.95076172 56.71445313 37.95076172 56.71445313 39.17578125 56.359375 C41.94169321 55.07912559 42.95258289 53.9627951 44.4375 51.3125 C45.22499394 46.88550705 45.20449307 42.74189617 43.0625 38.75 C40.22977303 37.19874476 38.45806647 36.99275806 35.2734375 36.72265625 C34.36899902 36.64281494 33.46456055 36.56297363 32.53271484 36.48071289 C31.84129395 36.42520264 31.14987305 36.36969238 30.4375 36.3125 C30.44273682 37.41126465 30.44797363 38.5100293 30.45336914 39.64208984 C30.47161763 43.7608965 30.4830038 47.87969966 30.49243164 51.99853516 C30.49742684 53.77328088 30.50422528 55.54802255 30.51293945 57.32275391 C30.59975376 75.47205016 30.59975376 75.47205016 29.4375 84.3125 C27.7875 84.3125 26.1375 84.3125 24.4375 84.3125 C24.1075 69.1325 23.7775 53.9525 23.4375 38.3125 C21.7875 37.9825 20.1375 37.6525 18.4375 37.3125 C18.39625 38.364375 18.355 39.41625 18.3125 40.5 C17.19300609 45.37779489 15.55939155 46.59049615 11.4375 49.3125 C6.38458564 51.46315132 1.94648433 51.55613016 -3.4375 51.4375 C-4.613125 51.42396484 -4.613125 51.42396484 -5.8125 51.41015625 C-7.72930055 51.38678063 -9.64594191 51.35091653 -11.5625 51.3125 C-11.53220703 50.66514893 -11.50191406 50.01779785 -11.47070312 49.35083008 C-10.79711331 34.6600953 -10.4233278 20.01836286 -10.5625 5.3125 C-12.8725 4.9825 -15.1825 4.6525 -17.5625 4.3125 C-17.2325 3.3225 -16.9025 2.3325 -16.5625 1.3125 C-11.02240843 0.39536506 -5.61235312 0.06613142 0 0 Z " fill="#372F27" transform="translate(23.5625,14.6875)"/>
<path d="M0 0 C1.2365332 -0.04350586 1.2365332 -0.04350586 2.49804688 -0.08789062 C8.12390769 -0.14635281 11.12250366 0.63827721 15.4375 4.3125 C16.96964888 7.37679776 16.66688548 9.9290642 16.4375 13.3125 C14.62779585 17.40814624 12.16567884 19.85735784 8.4375 22.3125 C7.1175 22.3125 5.7975 22.3125 4.4375 22.3125 C4.4375 21.6525 4.4375 20.9925 4.4375 20.3125 C5.2625 19.61125 6.0875 18.91 6.9375 18.1875 C9.519455 15.21825175 9.79909272 14.83428 9.8125 11.1875 C9.59191723 7.40345809 9.59191723 7.40345809 8.4375 4.3125 C4.62141242 2.63342146 0.60504198 3.3125 -3.5625 3.3125 C-3.8925 9.9125 -4.2225 16.5125 -4.5625 23.3125 C-3.5725 23.6425 -2.5825 23.9725 -1.5625 24.3125 C-2.2225 24.6425 -2.8825 24.9725 -3.5625 25.3125 C-4.03248861 27.63874017 -4.03248861 27.63874017 -4.1953125 30.44140625 C-4.27910156 31.47587891 -4.36289062 32.51035156 -4.44921875 33.57617188 C-4.56716797 35.2090918 -4.56716797 35.2090918 -4.6875 36.875 C-4.77386719 37.96748047 -4.86023437 39.05996094 -4.94921875 40.18554688 C-5.16210083 42.89387994 -5.3633744 45.60312078 -5.5625 48.3125 C-0.9425 47.9825 3.6775 47.6525 8.4375 47.3125 C7.4375 50.3125 7.4375 50.3125 5.4375 51.3125 C2.55379667 51.38444869 -0.30489664 51.40541708 -3.1875 51.375 C-4.39019531 51.36823242 -4.39019531 51.36823242 -5.6171875 51.36132812 C-7.59899006 51.34953168 -9.58075433 51.33159605 -11.5625 51.3125 C-11.53220703 50.66514893 -11.50191406 50.01779785 -11.47070312 49.35083008 C-10.79711331 34.6600953 -10.4233278 20.01836286 -10.5625 5.3125 C-12.8725 4.9825 -15.1825 4.6525 -17.5625 4.3125 C-17.2325 3.3225 -16.9025 2.3325 -16.5625 1.3125 C-11.02240843 0.39536506 -5.61235312 0.06613142 0 0 Z " fill="#362F28" transform="translate(23.5625,14.6875)"/>
<path d="M0 0 C5.97597532 -0.23903901 10.65714887 -0.02624962 15.3125 4 C18.39317802 7.65117395 18.32109668 10.26382403 18 15 C16.71378621 17.97860036 15.393203 19.64365978 13 21.8125 C8.40682175 23.63063306 3.87977427 23.23074239 -1 23 C-1.10920422 15.25863399 -0.97159933 7.68604474 0 0 Z " fill="#EA7D1A" transform="translate(19,40)"/>
<path d="M0 0 C3.22270391 0.04612099 5.51294907 0.23302047 8.1875 2.1875 C10.65156448 5.88359672 10.86614807 8.89777391 10.1875 13.1875 C7.8559072 17.15984329 5.63962218 19.021468 1.1875 20.1875 C-0.8123156 20.21465799 -2.81272953 20.21779955 -4.8125 20.1875 C-4.84138514 17.04168577 -4.85925923 13.89590531 -4.875 10.75 C-4.88337891 9.85216797 -4.89175781 8.95433594 -4.90039062 8.02929688 C-4.90361328 7.17529297 -4.90683594 6.32128906 -4.91015625 5.44140625 C-4.91801147 4.25526733 -4.91801147 4.25526733 -4.92602539 3.04516602 C-4.71107385 -0.47218084 -3.67034625 0.18050883 0 0 Z " fill="#E77B1A" transform="translate(23.8125,16.8125)"/>
<path d="M0 0 C0 1.32 0 2.64 0 4 C-2.97 3.67 -5.94 3.34 -9 3 C-9.33 2.01 -9.66 1.02 -10 0 C-6.33694766 -0.74926071 -3.57644848 -1.2380014 0 0 Z " fill="#493726" transform="translate(29,37)"/>
</svg>
