<svg xmlns="http://www.w3.org/2000/svg" xmlns:v="https://svgstorm.com"
viewBox = "0 0 90 121"
width="90"
height="121">
<g fill="None" fill-opacity="0.0" stroke="#292827" stroke-opacity="0.29" stroke-width="0.3"><path d="
M 0.00 95.00 
C 0.50 95.00 1.00 95.00 1.00 95.00
C -1.20 79.71 1.83 63.47 1.00 48.00 C 0.17 32.53 1.00 16.52 1.00 1.00
C 1.00 0.50 1.00 0.00 1.00 0.00
L 0.00 0.00
L 0.00 95.00 Z"/>
</g>
<g fill="None" fill-opacity="0.0" stroke="#3D3535" stroke-opacity="0.83" stroke-width="0.3"><path d="
M 1.00 1.00 
C 1.25 1.25 2.00 1.00 2.00 1.00
C 16.20 1.00 30.85 1.76 45.00 1.00 C 59.15 0.24 74.01 3.01 88.00 1.00
C 88.35 0.95 88.84 0.34 89.00 0.00
L 1.00 0.00
C 1.00 0.00 1.00 0.50 1.00 1.00 Z"/>
</g>
<g fill="None" fill-opacity="0.0" stroke="#050404" stroke-opacity="0.20" stroke-width="0.3"><path d="
M 88.00 1.00 
C 85.20 13.62 88.66 27.94 88.00 41.00 C 87.34 54.06 87.11 68.82 88.00 82.00 C 88.89 95.18 86.76 104.63 74.32 108.32 C 61.89 112.01 56.55 115.66 45.00 120.00
C 45.22 120.13 45.00 121.00 45.00 121.00
L 90.00 121.00
L 90.00 0.00
L 89.00 0.00
C 88.84 0.34 88.35 0.95 88.00 1.00 Z"/>
</g>
<g fill="None" fill-opacity="0.0" stroke="#916E70" stroke-opacity="0.96" stroke-width="0.3"><path d="
M 1.00 95.00 
C 1.26 95.12 1.94 95.76 2.00 96.00
C -1.87 64.82 4.83 32.31 2.00 1.00
C 2.00 1.00 1.25 1.25 1.00 1.00
C 1.00 16.52 0.17 32.53 1.00 48.00 C 1.83 63.47 -1.20 79.71 1.00 95.00 Z"/>
</g>
<g fill="None" fill-opacity="0.0" stroke="#F2B0B4" stroke-opacity="1.00" stroke-width="0.3"><path d="
M 2.00 96.00 
C 6.28 111.87 32.64 112.59 45.00 120.00
C 56.55 115.66 61.89 112.01 74.32 108.32 C 86.76 104.63 88.89 95.18 88.00 82.00 C 87.11 68.82 87.34 54.06 88.00 41.00 C 88.66 27.94 85.20 13.62 88.00 1.00
C 74.01 3.01 59.15 0.24 45.00 1.00 C 30.85 1.76 16.20 1.00 2.00 1.00
C 4.83 32.31 -1.87 64.82 2.00 96.00
M 41.00 24.00 
C 34.52 5.26 13.13 16.11 13.02 33.02 C 12.91 49.94 26.85 63.35 42.00 50.00
C 36.78 61.37 19.57 62.11 12.25 51.75 C 4.92 41.40 7.19 26.26 15.25 17.25 C 23.31 8.24 46.69 8.40 41.00 24.00
M 56.00 55.00 
C 56.00 52.23 56.80 49.04 57.00 47.00
C 57.00 39.13 61.27 20.63 50.00 22.00
C 58.29 17.65 70.03 19.51 80.00 19.00
C 79.02 22.34 82.18 29.02 78.00 30.00
C 80.59 19.50 68.35 22.16 62.00 22.00
C 62.00 28.33 62.00 34.67 62.00 41.00
C 67.00 41.00 72.00 41.00 77.00 41.00
C 75.41 46.86 66.41 43.19 62.00 43.00
C 59.98 49.89 61.44 57.71 61.00 65.00
C 54.03 67.10 56.31 59.16 56.00 55.00
M 38.00 92.00 
C 38.00 95.10 37.23 98.64 37.00 101.00
C 37.00 104.00 37.00 107.00 37.00 110.00
C 26.54 110.07 35.01 94.88 33.00 88.00 C 30.99 81.12 38.23 64.87 26.00 67.00
C 33.23 63.92 46.73 61.01 54.25 66.75 C 61.76 72.50 54.65 86.62 46.00 87.00
C 46.97 92.67 51.42 95.01 53.75 100.25 C 56.08 105.49 62.80 106.72 66.00 109.00
C 51.47 114.43 45.07 95.93 40.00 86.00
C 56.89 88.65 55.17 59.87 38.00 66.00
C 38.00 74.67 38.00 83.33 38.00 92.00 Z"/>
</g>
<g fill="None" fill-opacity="0.0" stroke="#363130" stroke-opacity="1.00" stroke-width="0.3"><path d="
M 41.00 24.00 
C 46.69 8.40 23.31 8.24 15.25 17.25 C 7.19 26.26 4.92 41.40 12.25 51.75 C 19.57 62.11 36.78 61.37 42.00 50.00
C 26.85 63.35 12.91 49.94 13.02 33.02 C 13.13 16.11 34.52 5.26 41.00 24.00 Z"/>
</g>
<g fill="None" fill-opacity="0.0" stroke="#312E2D" stroke-opacity="1.00" stroke-width="0.3"><path d="
M 57.00 47.00 
C 57.00 49.77 56.20 52.96 56.00 55.00
C 56.31 59.16 54.03 67.10 61.00 65.00
C 61.44 57.71 59.98 49.89 62.00 43.00
C 66.41 43.19 75.41 46.86 77.00 41.00
C 72.00 41.00 67.00 41.00 62.00 41.00
C 62.00 34.67 62.00 28.33 62.00 22.00
C 68.35 22.16 80.59 19.50 78.00 30.00
C 82.18 29.02 79.02 22.34 80.00 19.00
C 70.03 19.51 58.29 17.65 50.00 22.00
C 61.27 20.63 57.00 39.13 57.00 47.00 Z"/>
</g>
<g fill="None" fill-opacity="0.0" stroke="#806364" stroke-opacity="1.00" stroke-width="0.3"><path d="
M 56.00 55.00 
C 56.20 52.96 57.00 49.77 57.00 47.00
C 56.80 49.04 56.00 52.23 56.00 55.00 Z"/>
</g>
<g fill="None" fill-opacity="0.0" stroke="#322E2E" stroke-opacity="1.00" stroke-width="0.3"><path d="
M 37.00 101.00 
C 37.00 97.90 37.77 94.36 38.00 92.00
C 38.00 83.33 38.00 74.67 38.00 66.00
C 55.17 59.87 56.89 88.65 40.00 86.00
C 45.07 95.93 51.47 114.43 66.00 109.00
C 62.80 106.72 56.08 105.49 53.75 100.25 C 51.42 95.01 46.97 92.67 46.00 87.00
C 54.65 86.62 61.76 72.50 54.25 66.75 C 46.73 61.01 33.23 63.92 26.00 67.00
C 38.23 64.87 30.99 81.12 33.00 88.00 C 35.01 94.88 26.54 110.07 37.00 110.00
C 37.00 107.00 37.00 104.00 37.00 101.00 Z"/>
</g>
<g fill="None" fill-opacity="0.0" stroke="#866768" stroke-opacity="1.00" stroke-width="0.3"><path d="
M 37.00 101.00 
C 37.23 98.64 38.00 95.10 38.00 92.00
C 37.77 94.36 37.00 97.90 37.00 101.00 Z"/>
</g>
<g fill="None" fill-opacity="0.0" stroke="#000000" stroke-opacity="0.08" stroke-width="0.3"><path d="
M 0.00 121.00 
L 45.00 121.00
C 45.00 121.00 45.22 120.13 45.00 120.00
C 32.64 112.59 6.28 111.87 2.00 96.00
C 1.94 95.76 1.26 95.12 1.00 95.00
C 1.00 95.00 0.50 95.00 0.00 95.00
L 0.00 121.00 Z"/>
</g>
<g fill="#292827" fill-opacity="0.29" stroke="None">
<path d="
M 0.00 95.00 
C 0.50 95.00 1.00 95.00 1.00 95.00
C -1.20 79.71 1.83 63.47 1.00 48.00 C 0.17 32.53 1.00 16.52 1.00 1.00
C 1.00 0.50 1.00 0.00 1.00 0.00
L 0.00 0.00
L 0.00 95.00 Z"/>
</g>
<g fill="#3D3535" fill-opacity="0.83" stroke="None">
<path d="
M 1.00 1.00 
C 1.25 1.25 2.00 1.00 2.00 1.00
C 16.20 1.00 30.85 1.76 45.00 1.00 C 59.15 0.24 74.01 3.01 88.00 1.00
C 88.35 0.95 88.84 0.34 89.00 0.00
L 1.00 0.00
C 1.00 0.00 1.00 0.50 1.00 1.00 Z"/>
</g>
<g fill="#050404" fill-opacity="0.20" stroke="None">
<path d="
M 88.00 1.00 
C 85.20 13.62 88.66 27.94 88.00 41.00 C 87.34 54.06 87.11 68.82 88.00 82.00 C 88.89 95.18 86.76 104.63 74.32 108.32 C 61.89 112.01 56.55 115.66 45.00 120.00
C 45.22 120.13 45.00 121.00 45.00 121.00
L 90.00 121.00
L 90.00 0.00
L 89.00 0.00
C 88.84 0.34 88.35 0.95 88.00 1.00 Z"/>
</g>
<g fill="#916E70" fill-opacity="0.96" stroke="None">
<path d="
M 1.00 95.00 
C 1.26 95.12 1.94 95.76 2.00 96.00
C -1.87 64.82 4.83 32.31 2.00 1.00
C 2.00 1.00 1.25 1.25 1.00 1.00
C 1.00 16.52 0.17 32.53 1.00 48.00 C 1.83 63.47 -1.20 79.71 1.00 95.00 Z"/>
</g>
<g fill="#F2B0B4" fill-opacity="1.00" stroke="None">
<path d="
M 2.00 96.00 
C 6.28 111.87 32.64 112.59 45.00 120.00
C 56.55 115.66 61.89 112.01 74.32 108.32 C 86.76 104.63 88.89 95.18 88.00 82.00 C 87.11 68.82 87.34 54.06 88.00 41.00 C 88.66 27.94 85.20 13.62 88.00 1.00
C 74.01 3.01 59.15 0.24 45.00 1.00 C 30.85 1.76 16.20 1.00 2.00 1.00
C 4.83 32.31 -1.87 64.82 2.00 96.00
M 41.00 24.00 
C 34.52 5.26 13.13 16.11 13.02 33.02 C 12.91 49.94 26.85 63.35 42.00 50.00
C 36.78 61.37 19.57 62.11 12.25 51.75 C 4.92 41.40 7.19 26.26 15.25 17.25 C 23.31 8.24 46.69 8.40 41.00 24.00
M 56.00 55.00 
C 56.00 52.23 56.80 49.04 57.00 47.00
C 57.00 39.13 61.27 20.63 50.00 22.00
C 58.29 17.65 70.03 19.51 80.00 19.00
C 79.02 22.34 82.18 29.02 78.00 30.00
C 80.59 19.50 68.35 22.16 62.00 22.00
C 62.00 28.33 62.00 34.67 62.00 41.00
C 67.00 41.00 72.00 41.00 77.00 41.00
C 75.41 46.86 66.41 43.19 62.00 43.00
C 59.98 49.89 61.44 57.71 61.00 65.00
C 54.03 67.10 56.31 59.16 56.00 55.00
M 38.00 92.00 
C 38.00 95.10 37.23 98.64 37.00 101.00
C 37.00 104.00 37.00 107.00 37.00 110.00
C 26.54 110.07 35.01 94.88 33.00 88.00 C 30.99 81.12 38.23 64.87 26.00 67.00
C 33.23 63.92 46.73 61.01 54.25 66.75 C 61.76 72.50 54.65 86.62 46.00 87.00
C 46.97 92.67 51.42 95.01 53.75 100.25 C 56.08 105.49 62.80 106.72 66.00 109.00
C 51.47 114.43 45.07 95.93 40.00 86.00
C 56.89 88.65 55.17 59.87 38.00 66.00
C 38.00 74.67 38.00 83.33 38.00 92.00 Z"/>
</g>
<g fill="#363130" fill-opacity="1.00" stroke="None">
<path d="
M 41.00 24.00 
C 46.69 8.40 23.31 8.24 15.25 17.25 C 7.19 26.26 4.92 41.40 12.25 51.75 C 19.57 62.11 36.78 61.37 42.00 50.00
C 26.85 63.35 12.91 49.94 13.02 33.02 C 13.13 16.11 34.52 5.26 41.00 24.00 Z"/>
</g>
<g fill="#312E2D" fill-opacity="1.00" stroke="None">
<path d="
M 57.00 47.00 
C 57.00 49.77 56.20 52.96 56.00 55.00
C 56.31 59.16 54.03 67.10 61.00 65.00
C 61.44 57.71 59.98 49.89 62.00 43.00
C 66.41 43.19 75.41 46.86 77.00 41.00
C 72.00 41.00 67.00 41.00 62.00 41.00
C 62.00 34.67 62.00 28.33 62.00 22.00
C 68.35 22.16 80.59 19.50 78.00 30.00
C 82.18 29.02 79.02 22.34 80.00 19.00
C 70.03 19.51 58.29 17.65 50.00 22.00
C 61.27 20.63 57.00 39.13 57.00 47.00 Z"/>
</g>
<g fill="#806364" fill-opacity="1.00" stroke="None">
<path d="
M 56.00 55.00 
C 56.20 52.96 57.00 49.77 57.00 47.00
C 56.80 49.04 56.00 52.23 56.00 55.00 Z"/>
</g>
<g fill="#322E2E" fill-opacity="1.00" stroke="None">
<path d="
M 37.00 101.00 
C 37.00 97.90 37.77 94.36 38.00 92.00
C 38.00 83.33 38.00 74.67 38.00 66.00
C 55.17 59.87 56.89 88.65 40.00 86.00
C 45.07 95.93 51.47 114.43 66.00 109.00
C 62.80 106.72 56.08 105.49 53.75 100.25 C 51.42 95.01 46.97 92.67 46.00 87.00
C 54.65 86.62 61.76 72.50 54.25 66.75 C 46.73 61.01 33.23 63.92 26.00 67.00
C 38.23 64.87 30.99 81.12 33.00 88.00 C 35.01 94.88 26.54 110.07 37.00 110.00
C 37.00 107.00 37.00 104.00 37.00 101.00 Z"/>
</g>
<g fill="#866768" fill-opacity="1.00" stroke="None">
<path d="
M 37.00 101.00 
C 37.23 98.64 38.00 95.10 38.00 92.00
C 37.77 94.36 37.00 97.90 37.00 101.00 Z"/>
</g>
<g fill="#000000" fill-opacity="0.08" stroke="None">
<path d="
M 0.00 121.00 
L 45.00 121.00
C 45.00 121.00 45.22 120.13 45.00 120.00
C 32.64 112.59 6.28 111.87 2.00 96.00
C 1.94 95.76 1.26 95.12 1.00 95.00
C 1.00 95.00 0.50 95.00 0.00 95.00
L 0.00 121.00 Z"/>
</g>
</svg>