<svg xmlns="http://www.w3.org/2000/svg" xmlns:v="https://svgstorm.com"
viewBox = "0 0 89 121"
width="89"
height="121">
<g fill="None" fill-opacity="0.0" stroke="#3B3825" stroke-opacity="0.88" stroke-width="0.3"><path d="
M 0.00 60.00 
C 0.50 60.00 1.00 60.00 1.00 60.00
C 1.00 40.33 1.00 20.67 1.00 1.00
C 30.00 1.00 59.00 1.00 88.00 1.00
C 88.00 0.50 88.00 0.00 88.00 0.00
L 0.00 0.00
L 0.00 60.00 Z"/>
</g>
<g fill="None" fill-opacity="0.0" stroke="#433F26" stroke-opacity="0.70" stroke-width="0.3"><path d="
M 88.00 1.00 
C 88.00 32.89 85.13 66.26 88.00 98.00
C 88.28 97.75 89.00 98.00 89.00 98.00
L 89.00 0.00
L 88.00 0.00
C 88.00 0.00 88.00 0.50 88.00 1.00 Z"/>
</g>
<g fill="None" fill-opacity="0.0" stroke="#FBDA03" stroke-opacity="1.00" stroke-width="0.3"><path d="
M 1.00 60.00 
C 1.00 71.84 2.06 84.22 1.00 96.00
C 5.83 109.03 16.84 106.54 27.69 113.31 C 38.55 120.07 47.73 119.02 59.22 114.22 C 70.72 109.43 79.08 105.98 88.00 98.00
C 85.13 66.26 88.00 32.89 88.00 1.00
C 59.00 1.00 30.00 1.00 1.00 1.00
C 1.00 20.67 1.00 40.33 1.00 60.00
M 47.00 18.00 
C 48.63 20.55 47.68 22.58 47.00 25.00
C 46.65 26.25 47.81 28.51 46.00 29.00
C 46.63 14.96 25.87 13.09 19.75 23.75 C 13.63 34.42 14.59 49.29 22.25 58.75 C 29.91 68.22 53.50 59.96 45.00 48.00
C 43.57 47.10 40.57 48.68 39.00 48.00
C 38.68 46.31 40.32 44.71 42.00 45.00
C 49.29 42.18 65.16 41.84 71.25 47.75 C 77.33 53.66 70.35 70.00 61.00 69.00
C 64.58 78.46 72.06 92.69 83.00 92.00
C 68.40 102.18 60.24 78.58 54.00 69.00
C 63.00 69.97 77.16 54.03 62.77 47.23 C 48.38 40.43 51.63 65.96 52.00 76.00
C 52.00 78.77 51.20 81.96 51.00 84.00
C 51.00 88.34 52.65 95.91 46.00 95.00
C 46.00 88.67 46.00 82.33 46.00 76.00
C 46.00 72.50 47.00 67.68 47.00 65.00
C 46.83 63.35 47.13 61.65 47.00 60.00
C 30.21 74.96 9.05 60.99 10.00 41.00 C 10.95 21.01 28.90 6.42 47.00 18.00 Z"/>
</g>
<g fill="None" fill-opacity="0.0" stroke="#312F29" stroke-opacity="1.00" stroke-width="0.3"><path d="
M 47.00 65.00 
C 47.39 68.81 46.29 72.97 46.00 76.00
C 46.00 82.33 46.00 88.67 46.00 95.00
C 52.65 95.91 51.00 88.34 51.00 84.00
C 51.00 81.23 51.80 78.04 52.00 76.00
C 51.63 65.96 48.38 40.43 62.77 47.23 C 77.16 54.03 63.00 69.97 54.00 69.00
C 60.24 78.58 68.40 102.18 83.00 92.00
C 72.06 92.69 64.58 78.46 61.00 69.00
C 70.35 70.00 77.33 53.66 71.25 47.75 C 65.16 41.84 49.29 42.18 42.00 45.00
C 41.44 45.27 40.30 46.31 40.00 47.00
C 41.57 47.39 44.22 46.06 45.00 48.00
C 53.50 59.96 29.91 68.22 22.25 58.75 C 14.59 49.29 13.63 34.42 19.75 23.75 C 25.87 13.09 46.63 14.96 46.00 29.00
C 47.81 28.51 46.65 26.25 47.00 25.00
C 47.19 23.37 47.60 19.51 47.00 18.00
C 28.90 6.42 10.95 21.01 10.00 41.00 C 9.05 60.99 30.21 74.96 47.00 60.00
C 47.13 61.65 46.83 63.35 47.00 65.00 Z"/>
</g>
<g fill="None" fill-opacity="0.0" stroke="#857518" stroke-opacity="1.00" stroke-width="0.3"><path d="
M 47.00 25.00 
C 47.68 22.58 48.63 20.55 47.00 18.00
C 47.60 19.51 47.19 23.37 47.00 25.00 Z"/>
</g>
<g fill="None" fill-opacity="0.0" stroke="#938116" stroke-opacity="1.00" stroke-width="0.3"><path d="
M 45.00 48.00 
C 44.22 46.06 41.57 47.39 40.00 47.00
C 40.30 46.31 41.44 45.27 42.00 45.00
C 40.32 44.71 38.68 46.31 39.00 48.00
C 40.57 48.68 43.57 47.10 45.00 48.00 Z"/>
</g>
<g fill="None" fill-opacity="0.0" stroke="#423D25" stroke-opacity="0.75" stroke-width="0.3"><path d="
M 0.00 96.00 
C 0.50 96.00 1.00 96.00 1.00 96.00
C 2.06 84.22 1.00 71.84 1.00 60.00
C 1.00 60.00 0.50 60.00 0.00 60.00
L 0.00 96.00 Z"/>
</g>
<g fill="None" fill-opacity="0.0" stroke="#8A7A17" stroke-opacity="1.00" stroke-width="0.3"><path d="
M 46.00 76.00 
C 46.29 72.97 47.39 68.81 47.00 65.00
C 47.00 67.68 46.00 72.50 46.00 76.00 Z"/>
</g>
<g fill="None" fill-opacity="0.0" stroke="#847518" stroke-opacity="1.00" stroke-width="0.3"><path d="
M 51.00 84.00 
C 51.20 81.96 52.00 78.77 52.00 76.00
C 51.80 78.04 51.00 81.23 51.00 84.00 Z"/>
</g>
<g fill="None" fill-opacity="0.0" stroke="#000000" stroke-opacity="0.07" stroke-width="0.3"><path d="
M 0.00 121.00 
L 89.00 121.00
L 89.00 98.00
C 89.00 98.00 88.28 97.75 88.00 98.00
C 79.08 105.98 70.72 109.43 59.22 114.22 C 47.73 119.02 38.55 120.07 27.69 113.31 C 16.84 106.54 5.83 109.03 1.00 96.00
C 1.00 96.00 0.50 96.00 0.00 96.00
L 0.00 121.00 Z"/>
</g>
<g fill="#3B3825" fill-opacity="0.88" stroke="None">
<path d="
M 0.00 60.00 
C 0.50 60.00 1.00 60.00 1.00 60.00
C 1.00 40.33 1.00 20.67 1.00 1.00
C 30.00 1.00 59.00 1.00 88.00 1.00
C 88.00 0.50 88.00 0.00 88.00 0.00
L 0.00 0.00
L 0.00 60.00 Z"/>
</g>
<g fill="#433F26" fill-opacity="0.70" stroke="None">
<path d="
M 88.00 1.00 
C 88.00 32.89 85.13 66.26 88.00 98.00
C 88.28 97.75 89.00 98.00 89.00 98.00
L 89.00 0.00
L 88.00 0.00
C 88.00 0.00 88.00 0.50 88.00 1.00 Z"/>
</g>
<g fill="#FBDA03" fill-opacity="1.00" stroke="None">
<path d="
M 1.00 60.00 
C 1.00 71.84 2.06 84.22 1.00 96.00
C 5.83 109.03 16.84 106.54 27.69 113.31 C 38.55 120.07 47.73 119.02 59.22 114.22 C 70.72 109.43 79.08 105.98 88.00 98.00
C 85.13 66.26 88.00 32.89 88.00 1.00
C 59.00 1.00 30.00 1.00 1.00 1.00
C 1.00 20.67 1.00 40.33 1.00 60.00
M 47.00 18.00 
C 48.63 20.55 47.68 22.58 47.00 25.00
C 46.65 26.25 47.81 28.51 46.00 29.00
C 46.63 14.96 25.87 13.09 19.75 23.75 C 13.63 34.42 14.59 49.29 22.25 58.75 C 29.91 68.22 53.50 59.96 45.00 48.00
C 43.57 47.10 40.57 48.68 39.00 48.00
C 38.68 46.31 40.32 44.71 42.00 45.00
C 49.29 42.18 65.16 41.84 71.25 47.75 C 77.33 53.66 70.35 70.00 61.00 69.00
C 64.58 78.46 72.06 92.69 83.00 92.00
C 68.40 102.18 60.24 78.58 54.00 69.00
C 63.00 69.97 77.16 54.03 62.77 47.23 C 48.38 40.43 51.63 65.96 52.00 76.00
C 52.00 78.77 51.20 81.96 51.00 84.00
C 51.00 88.34 52.65 95.91 46.00 95.00
C 46.00 88.67 46.00 82.33 46.00 76.00
C 46.00 72.50 47.00 67.68 47.00 65.00
C 46.83 63.35 47.13 61.65 47.00 60.00
C 30.21 74.96 9.05 60.99 10.00 41.00 C 10.95 21.01 28.90 6.42 47.00 18.00 Z"/>
</g>
<g fill="#312F29" fill-opacity="1.00" stroke="None">
<path d="
M 47.00 65.00 
C 47.39 68.81 46.29 72.97 46.00 76.00
C 46.00 82.33 46.00 88.67 46.00 95.00
C 52.65 95.91 51.00 88.34 51.00 84.00
C 51.00 81.23 51.80 78.04 52.00 76.00
C 51.63 65.96 48.38 40.43 62.77 47.23 C 77.16 54.03 63.00 69.97 54.00 69.00
C 60.24 78.58 68.40 102.18 83.00 92.00
C 72.06 92.69 64.58 78.46 61.00 69.00
C 70.35 70.00 77.33 53.66 71.25 47.75 C 65.16 41.84 49.29 42.18 42.00 45.00
C 41.44 45.27 40.30 46.31 40.00 47.00
C 41.57 47.39 44.22 46.06 45.00 48.00
C 53.50 59.96 29.91 68.22 22.25 58.75 C 14.59 49.29 13.63 34.42 19.75 23.75 C 25.87 13.09 46.63 14.96 46.00 29.00
C 47.81 28.51 46.65 26.25 47.00 25.00
C 47.19 23.37 47.60 19.51 47.00 18.00
C 28.90 6.42 10.95 21.01 10.00 41.00 C 9.05 60.99 30.21 74.96 47.00 60.00
C 47.13 61.65 46.83 63.35 47.00 65.00 Z"/>
</g>
<g fill="#857518" fill-opacity="1.00" stroke="None">
<path d="
M 47.00 25.00 
C 47.68 22.58 48.63 20.55 47.00 18.00
C 47.60 19.51 47.19 23.37 47.00 25.00 Z"/>
</g>
<g fill="#938116" fill-opacity="1.00" stroke="None">
<path d="
M 45.00 48.00 
C 44.22 46.06 41.57 47.39 40.00 47.00
C 40.30 46.31 41.44 45.27 42.00 45.00
C 40.32 44.71 38.68 46.31 39.00 48.00
C 40.57 48.68 43.57 47.10 45.00 48.00 Z"/>
</g>
<g fill="#423D25" fill-opacity="0.75" stroke="None">
<path d="
M 0.00 96.00 
C 0.50 96.00 1.00 96.00 1.00 96.00
C 2.06 84.22 1.00 71.84 1.00 60.00
C 1.00 60.00 0.50 60.00 0.00 60.00
L 0.00 96.00 Z"/>
</g>
<g fill="#8A7A17" fill-opacity="1.00" stroke="None">
<path d="
M 46.00 76.00 
C 46.29 72.97 47.39 68.81 47.00 65.00
C 47.00 67.68 46.00 72.50 46.00 76.00 Z"/>
</g>
<g fill="#847518" fill-opacity="1.00" stroke="None">
<path d="
M 51.00 84.00 
C 51.20 81.96 52.00 78.77 52.00 76.00
C 51.80 78.04 51.00 81.23 51.00 84.00 Z"/>
</g>
<g fill="#000000" fill-opacity="0.07" stroke="None">
<path d="
M 0.00 121.00 
L 89.00 121.00
L 89.00 98.00
C 89.00 98.00 88.28 97.75 88.00 98.00
C 79.08 105.98 70.72 109.43 59.22 114.22 C 47.73 119.02 38.55 120.07 27.69 113.31 C 16.84 106.54 5.83 109.03 1.00 96.00
C 1.00 96.00 0.50 96.00 0.00 96.00
L 0.00 121.00 Z"/>
</g>
</svg>