<svg xmlns="http://www.w3.org/2000/svg" xmlns:v="https://svgstorm.com"
viewBox = "0 0 89 122"
width="89"
height="122">
<g fill="None" fill-opacity="0.0" stroke="#29322B" stroke-opacity="0.45" stroke-width="0.3"><path d="
M 0.00 1.00 
C 0.50 1.00 1.00 1.00 1.00 1.00
C 30.00 1.00 59.00 1.00 88.00 1.00
C 88.50 1.00 89.00 1.00 89.00 1.00
L 89.00 0.00
L 0.00 0.00
L 0.00 1.00 Z"/>
</g>
<g fill="None" fill-opacity="0.0" stroke="#26352C" stroke-opacity="0.58" stroke-width="0.3"><path d="
M 0.00 68.00 
C 0.50 68.00 1.00 68.00 1.00 68.00
C 1.00 45.97 2.98 22.92 1.00 1.00
C 1.00 1.00 0.50 1.00 0.00 1.00
L 0.00 68.00 Z"/>
</g>
<g fill="None" fill-opacity="0.0" stroke="#0D763C" stroke-opacity="1.00" stroke-width="0.3"><path d="
M 1.00 68.00 
C 1.00 77.02 -0.28 87.09 1.00 96.00
C 1.26 96.12 1.87 96.73 2.00 97.00
C -0.35 81.56 3.20 65.65 2.00 50.00 C 0.80 34.35 2.90 17.74 2.00 2.00
C 30.67 2.00 59.33 2.00 88.00 2.00
C 88.00 1.50 88.00 1.00 88.00 1.00
C 59.00 1.00 30.00 1.00 1.00 1.00
C 2.98 22.92 1.00 45.97 1.00 68.00 Z"/>
</g>
<g fill="None" fill-opacity="0.0" stroke="#29302A" stroke-opacity="0.93" stroke-width="0.3"><path d="
M 88.00 2.00 
C 88.00 33.23 85.19 65.92 88.00 97.00
C 88.02 96.90 89.00 97.00 89.00 97.00
L 89.00 1.00
C 89.00 1.00 88.50 1.00 88.00 1.00
C 88.00 1.00 88.00 1.50 88.00 2.00 Z"/>
</g>
<g fill="None" fill-opacity="0.0" stroke="#069847" stroke-opacity="1.00" stroke-width="0.3"><path d="
M 2.00 97.00 
C 7.57 108.31 18.76 108.47 29.07 113.93 C 39.38 119.38 51.69 120.73 61.02 114.02 C 70.36 107.32 85.39 109.86 88.00 97.00
C 85.19 65.92 88.00 33.23 88.00 2.00
C 59.33 2.00 30.67 2.00 2.00 2.00
C 2.90 17.74 0.80 34.35 2.00 50.00 C 3.20 65.65 -0.35 81.56 2.00 97.00
M 54.00 68.00 
C 54.00 71.10 53.23 74.64 53.00 77.00
C 53.00 84.33 53.00 91.67 53.00 99.00
C 52.00 99.00 51.00 99.00 50.00 99.00
C 49.35 99.21 48.26 100.73 47.00 100.00
C 47.59 97.16 45.78 93.02 48.00 91.00
C 48.00 78.33 48.00 65.67 48.00 53.00
C 41.29 66.83 24.88 66.41 12.00 66.00
C 13.32 57.55 12.92 47.13 13.78 38.78 C 14.64 30.43 16.84 17.17 6.00 18.00
C 16.91 14.65 29.81 12.83 41.08 17.92 C 52.34 23.02 52.08 38.51 50.00 49.00
C 57.75 48.84 70.11 45.94 74.30 54.70 C 78.50 63.45 70.16 72.78 62.00 74.00
C 67.17 83.17 72.89 96.79 85.00 97.00
C 70.20 106.48 61.11 83.62 56.00 73.00
C 74.06 75.54 72.62 44.40 54.00 51.00
C 54.00 56.67 54.00 62.33 54.00 68.00 Z"/>
</g>
<g fill="None" fill-opacity="0.0" stroke="#F4FAF7" stroke-opacity="1.00" stroke-width="0.3"><path d="
M 48.00 91.00 
C 48.00 93.81 46.75 98.39 50.00 99.00
C 51.00 99.00 52.00 99.00 53.00 99.00
C 53.00 91.67 53.00 84.33 53.00 77.00
C 53.00 73.90 53.77 70.36 54.00 68.00
C 54.00 62.33 54.00 56.67 54.00 51.00
C 72.62 44.40 74.06 75.54 56.00 73.00
C 61.11 83.62 70.20 106.48 85.00 97.00
C 72.89 96.79 67.17 83.17 62.00 74.00
C 70.16 72.78 78.50 63.45 74.30 54.70 C 70.11 45.94 57.75 48.84 50.00 49.00
C 52.08 38.51 52.34 23.02 41.08 17.92 C 29.81 12.83 16.91 14.65 6.00 18.00
C 16.84 17.17 14.64 30.43 13.78 38.78 C 12.92 47.13 13.32 57.55 12.00 66.00
C 24.88 66.41 41.29 66.83 48.00 53.00
C 48.00 65.67 48.00 78.33 48.00 91.00
M 27.00 18.00 
C 34.07 18.24 41.64 21.51 43.32 28.68 C 45.00 35.85 48.02 46.86 41.00 50.00
C 45.23 60.06 26.89 67.20 18.00 63.00
C 18.56 48.06 18.39 32.27 20.00 18.00
C 22.20 15.80 24.97 17.71 27.00 18.00 Z"/>
</g>
<g fill="None" fill-opacity="0.0" stroke="#81CCA3" stroke-opacity="1.00" stroke-width="0.3"><path d="
M 20.00 18.00 
C 21.16 17.26 25.57 17.95 27.00 18.00
C 24.97 17.71 22.20 15.80 20.00 18.00 Z"/>
</g>
<g fill="None" fill-opacity="0.0" stroke="#0C9A49" stroke-opacity="1.00" stroke-width="0.3"><path d="
M 27.00 18.00 
C 25.57 17.95 21.16 17.26 20.00 18.00
C 18.39 32.27 18.56 48.06 18.00 63.00
C 26.89 67.20 45.23 60.06 41.00 50.00
C 48.02 46.86 45.00 35.85 43.32 28.68 C 41.64 21.51 34.07 18.24 27.00 18.00 Z"/>
</g>
<g fill="None" fill-opacity="0.0" stroke="#282F2A" stroke-opacity="0.44" stroke-width="0.3"><path d="
M 0.00 96.00 
C 0.50 96.00 1.00 96.00 1.00 96.00
C -0.28 87.09 1.00 77.02 1.00 68.00
C 1.00 68.00 0.50 68.00 0.00 68.00
L 0.00 96.00 Z"/>
</g>
<g fill="None" fill-opacity="0.0" stroke="#8ED1AD" stroke-opacity="1.00" stroke-width="0.3"><path d="
M 53.00 77.00 
C 53.23 74.64 54.00 71.10 54.00 68.00
C 53.77 70.36 53.00 73.90 53.00 77.00 Z"/>
</g>
<g fill="None" fill-opacity="0.0" stroke="#90D2AE" stroke-opacity="1.00" stroke-width="0.3"><path d="
M 50.00 99.00 
C 46.75 98.39 48.00 93.81 48.00 91.00
C 45.78 93.02 47.59 97.16 47.00 100.00
C 48.26 100.73 49.35 99.21 50.00 99.00 Z"/>
</g>
<g fill="None" fill-opacity="0.0" stroke="#000000" stroke-opacity="0.08" stroke-width="0.3"><path d="
M 0.00 122.00 
L 89.00 122.00
L 89.00 97.00
C 89.00 97.00 88.02 96.90 88.00 97.00
C 85.39 109.86 70.36 107.32 61.02 114.02 C 51.69 120.73 39.38 119.38 29.07 113.93 C 18.76 108.47 7.57 108.31 2.00 97.00
C 1.87 96.73 1.26 96.12 1.00 96.00
C 1.00 96.00 0.50 96.00 0.00 96.00
L 0.00 122.00 Z"/>
</g>
<g fill="#29322B" fill-opacity="0.45" stroke="None">
<path d="
M 0.00 1.00 
C 0.50 1.00 1.00 1.00 1.00 1.00
C 30.00 1.00 59.00 1.00 88.00 1.00
C 88.50 1.00 89.00 1.00 89.00 1.00
L 89.00 0.00
L 0.00 0.00
L 0.00 1.00 Z"/>
</g>
<g fill="#26352C" fill-opacity="0.58" stroke="None">
<path d="
M 0.00 68.00 
C 0.50 68.00 1.00 68.00 1.00 68.00
C 1.00 45.97 2.98 22.92 1.00 1.00
C 1.00 1.00 0.50 1.00 0.00 1.00
L 0.00 68.00 Z"/>
</g>
<g fill="#0D763C" fill-opacity="1.00" stroke="None">
<path d="
M 1.00 68.00 
C 1.00 77.02 -0.28 87.09 1.00 96.00
C 1.26 96.12 1.87 96.73 2.00 97.00
C -0.35 81.56 3.20 65.65 2.00 50.00 C 0.80 34.35 2.90 17.74 2.00 2.00
C 30.67 2.00 59.33 2.00 88.00 2.00
C 88.00 1.50 88.00 1.00 88.00 1.00
C 59.00 1.00 30.00 1.00 1.00 1.00
C 2.98 22.92 1.00 45.97 1.00 68.00 Z"/>
</g>
<g fill="#29302A" fill-opacity="0.93" stroke="None">
<path d="
M 88.00 2.00 
C 88.00 33.23 85.19 65.92 88.00 97.00
C 88.02 96.90 89.00 97.00 89.00 97.00
L 89.00 1.00
C 89.00 1.00 88.50 1.00 88.00 1.00
C 88.00 1.00 88.00 1.50 88.00 2.00 Z"/>
</g>
<g fill="#069847" fill-opacity="1.00" stroke="None">
<path d="
M 2.00 97.00 
C 7.57 108.31 18.76 108.47 29.07 113.93 C 39.38 119.38 51.69 120.73 61.02 114.02 C 70.36 107.32 85.39 109.86 88.00 97.00
C 85.19 65.92 88.00 33.23 88.00 2.00
C 59.33 2.00 30.67 2.00 2.00 2.00
C 2.90 17.74 0.80 34.35 2.00 50.00 C 3.20 65.65 -0.35 81.56 2.00 97.00
M 54.00 68.00 
C 54.00 71.10 53.23 74.64 53.00 77.00
C 53.00 84.33 53.00 91.67 53.00 99.00
C 52.00 99.00 51.00 99.00 50.00 99.00
C 49.35 99.21 48.26 100.73 47.00 100.00
C 47.59 97.16 45.78 93.02 48.00 91.00
C 48.00 78.33 48.00 65.67 48.00 53.00
C 41.29 66.83 24.88 66.41 12.00 66.00
C 13.32 57.55 12.92 47.13 13.78 38.78 C 14.64 30.43 16.84 17.17 6.00 18.00
C 16.91 14.65 29.81 12.83 41.08 17.92 C 52.34 23.02 52.08 38.51 50.00 49.00
C 57.75 48.84 70.11 45.94 74.30 54.70 C 78.50 63.45 70.16 72.78 62.00 74.00
C 67.17 83.17 72.89 96.79 85.00 97.00
C 70.20 106.48 61.11 83.62 56.00 73.00
C 74.06 75.54 72.62 44.40 54.00 51.00
C 54.00 56.67 54.00 62.33 54.00 68.00 Z"/>
</g>
<g fill="#F4FAF7" fill-opacity="1.00" stroke="None">
<path d="
M 48.00 91.00 
C 48.00 93.81 46.75 98.39 50.00 99.00
C 51.00 99.00 52.00 99.00 53.00 99.00
C 53.00 91.67 53.00 84.33 53.00 77.00
C 53.00 73.90 53.77 70.36 54.00 68.00
C 54.00 62.33 54.00 56.67 54.00 51.00
C 72.62 44.40 74.06 75.54 56.00 73.00
C 61.11 83.62 70.20 106.48 85.00 97.00
C 72.89 96.79 67.17 83.17 62.00 74.00
C 70.16 72.78 78.50 63.45 74.30 54.70 C 70.11 45.94 57.75 48.84 50.00 49.00
C 52.08 38.51 52.34 23.02 41.08 17.92 C 29.81 12.83 16.91 14.65 6.00 18.00
C 16.84 17.17 14.64 30.43 13.78 38.78 C 12.92 47.13 13.32 57.55 12.00 66.00
C 24.88 66.41 41.29 66.83 48.00 53.00
C 48.00 65.67 48.00 78.33 48.00 91.00
M 27.00 18.00 
C 34.07 18.24 41.64 21.51 43.32 28.68 C 45.00 35.85 48.02 46.86 41.00 50.00
C 45.23 60.06 26.89 67.20 18.00 63.00
C 18.56 48.06 18.39 32.27 20.00 18.00
C 22.20 15.80 24.97 17.71 27.00 18.00 Z"/>
</g>
<g fill="#81CCA3" fill-opacity="1.00" stroke="None">
<path d="
M 20.00 18.00 
C 21.16 17.26 25.57 17.95 27.00 18.00
C 24.97 17.71 22.20 15.80 20.00 18.00 Z"/>
</g>
<g fill="#0C9A49" fill-opacity="1.00" stroke="None">
<path d="
M 27.00 18.00 
C 25.57 17.95 21.16 17.26 20.00 18.00
C 18.39 32.27 18.56 48.06 18.00 63.00
C 26.89 67.20 45.23 60.06 41.00 50.00
C 48.02 46.86 45.00 35.85 43.32 28.68 C 41.64 21.51 34.07 18.24 27.00 18.00 Z"/>
</g>
<g fill="#282F2A" fill-opacity="0.44" stroke="None">
<path d="
M 0.00 96.00 
C 0.50 96.00 1.00 96.00 1.00 96.00
C -0.28 87.09 1.00 77.02 1.00 68.00
C 1.00 68.00 0.50 68.00 0.00 68.00
L 0.00 96.00 Z"/>
</g>
<g fill="#8ED1AD" fill-opacity="1.00" stroke="None">
<path d="
M 53.00 77.00 
C 53.23 74.64 54.00 71.10 54.00 68.00
C 53.77 70.36 53.00 73.90 53.00 77.00 Z"/>
</g>
<g fill="#90D2AE" fill-opacity="1.00" stroke="None">
<path d="
M 50.00 99.00 
C 46.75 98.39 48.00 93.81 48.00 91.00
C 45.78 93.02 47.59 97.16 47.00 100.00
C 48.26 100.73 49.35 99.21 50.00 99.00 Z"/>
</g>
<g fill="#000000" fill-opacity="0.08" stroke="None">
<path d="
M 0.00 122.00 
L 89.00 122.00
L 89.00 97.00
C 89.00 97.00 88.02 96.90 88.00 97.00
C 85.39 109.86 70.36 107.32 61.02 114.02 C 51.69 120.73 39.38 119.38 29.07 113.93 C 18.76 108.47 7.57 108.31 2.00 97.00
C 1.87 96.73 1.26 96.12 1.00 96.00
C 1.00 96.00 0.50 96.00 0.00 96.00
L 0.00 122.00 Z"/>
</g>
</svg>