<svg xmlns="http://www.w3.org/2000/svg" xmlns:v="https://svgstorm.com"
viewBox = "0 0 90 122"
width="90"
height="122">
<g fill="None" fill-opacity="0.0" stroke="#000000" stroke-opacity="0.07" stroke-width="0.3"><path d="
M 0.00 122.00 
L 90.00 122.00
L 90.00 97.00
C 89.50 97.00 89.00 97.00 89.00 97.00
C 81.65 106.88 73.08 108.80 61.92 113.92 C 50.77 119.04 39.44 120.88 28.98 114.02 C 18.51 107.17 5.49 109.47 2.00 96.00
C -1.74 81.59 1.85 64.48 1.00 49.00 C 0.15 33.52 1.00 16.61 1.00 1.00
C 1.00 0.50 1.00 0.00 1.00 0.00
L 0.00 0.00
L 0.00 122.00 Z"/>
</g>
<g fill="None" fill-opacity="0.0" stroke="#282A2A" stroke-opacity="0.38" stroke-width="0.3"><path d="
M 1.00 1.00 
C 1.25 1.25 2.00 1.00 2.00 1.00
C 11.39 1.00 22.81 0.48 32.00 1.00 C 41.19 1.52 54.62 -0.32 63.00 1.00 C 71.38 2.32 86.95 -3.92 88.99 5.01 C 91.04 13.94 87.94 26.42 89.00 36.00 C 90.06 45.58 88.27 56.12 89.00 66.00 C 89.73 75.88 88.10 87.04 89.00 97.00
C 89.00 97.00 89.50 97.00 90.00 97.00
L 90.00 0.00
L 1.00 0.00
C 1.00 0.00 1.00 0.50 1.00 1.00 Z"/>
</g>
<g fill="None" fill-opacity="0.0" stroke="#292D2E" stroke-opacity="0.97" stroke-width="0.3"><path d="
M 2.00 96.00 
C -2.15 64.91 4.83 32.26 2.00 1.00
C 2.00 1.00 1.25 1.25 1.00 1.00
C 1.00 16.61 0.15 33.52 1.00 49.00 C 1.85 64.48 -1.74 81.59 2.00 96.00 Z"/>
</g>
<g fill="None" fill-opacity="0.0" stroke="#088DD0" stroke-opacity="1.00" stroke-width="0.3"><path d="
M 2.00 96.00 
C 5.49 109.47 18.51 107.17 28.98 114.02 C 39.44 120.88 50.77 119.04 61.92 113.92 C 73.08 108.80 81.65 106.88 89.00 97.00
C 88.10 87.04 89.73 75.88 89.00 66.00 C 88.27 56.12 90.06 45.58 89.00 36.00 C 87.94 26.42 91.04 13.94 88.99 5.01 C 86.95 -3.92 71.38 2.32 63.00 1.00 C 54.62 -0.32 41.19 1.52 32.00 1.00 C 22.81 0.48 11.39 1.00 2.00 1.00
C 4.83 32.26 -2.15 64.91 2.00 96.00
M 32.00 12.00 
C 37.70 13.41 40.13 17.24 37.00 23.00
C 32.96 6.57 12.87 14.80 11.22 28.22 C 9.58 41.64 17.76 59.02 32.00 50.00
C 32.75 48.07 32.30 43.07 32.00 41.00
C 31.78 40.70 31.34 40.15 31.00 40.00
C 28.92 39.96 25.72 40.66 25.00 38.00
C 28.39 36.57 34.03 36.19 37.00 38.00
C 45.33 49.90 28.33 58.37 18.99 54.01 C 9.66 49.64 4.04 41.86 6.00 31.00 C 7.96 20.14 12.81 14.52 23.00 12.00
C 26.29 11.19 28.77 11.20 32.00 12.00
M 63.00 99.00 
C 64.93 99.78 70.29 97.62 68.00 101.00
C 64.05 106.83 56.43 100.16 54.08 95.92 C 51.73 91.68 45.83 86.22 45.00 81.00
C 53.36 80.93 59.16 70.93 54.00 64.00
C 49.91 65.72 52.06 73.66 46.00 72.00
C 46.21 68.44 45.25 65.19 44.00 62.00
C 41.71 68.42 43.64 76.82 43.00 84.00
C 43.00 87.24 44.70 100.44 42.00 102.00
C 41.00 102.58 39.08 101.56 38.00 102.00
C 38.00 95.00 38.00 88.00 38.00 81.00
C 38.00 76.81 39.90 66.18 37.00 63.00
C 35.77 62.04 31.25 64.52 32.00 61.00
C 36.26 61.61 39.92 60.17 44.00 60.00
C 40.03 50.58 43.11 33.53 31.00 31.00
C 47.83 25.04 44.28 49.85 48.00 60.00
C 58.26 56.57 55.93 39.15 62.00 31.00
C 66.49 41.41 67.62 53.65 70.00 65.00
C 76.11 55.09 84.23 40.84 79.00 29.00
C 89.61 29.73 83.18 44.61 80.02 51.02 C 76.87 57.44 74.25 70.45 67.00 72.00
C 65.60 61.51 62.94 51.37 61.00 41.00
C 58.32 47.18 55.92 54.23 54.00 61.00
C 66.15 62.82 60.07 81.03 50.00 81.00
C 52.77 87.64 57.03 94.44 63.00 99.00 Z"/>
</g>
<g fill="None" fill-opacity="0.0" stroke="#9FD4ED" stroke-opacity="1.00" stroke-width="0.3"><path d="
M 23.00 12.00 
C 25.71 11.66 29.29 11.66 32.00 12.00
C 28.77 11.20 26.29 11.19 23.00 12.00 Z"/>
</g>
<g fill="None" fill-opacity="0.0" stroke="#F1F8FC" stroke-opacity="1.00" stroke-width="0.3"><path d="
M 37.00 38.00 
C 33.33 38.00 29.67 38.00 26.00 38.00
C 26.74 40.20 30.33 37.69 31.00 40.00
C 31.34 40.15 31.78 40.70 32.00 41.00
C 33.71 43.33 33.34 47.70 32.00 50.00
C 17.76 59.02 9.58 41.64 11.22 28.22 C 12.87 14.80 32.96 6.57 37.00 23.00
C 40.13 17.24 37.70 13.41 32.00 12.00
C 29.29 11.66 25.71 11.66 23.00 12.00
C 12.81 14.52 7.96 20.14 6.00 31.00 C 4.04 41.86 9.66 49.64 18.99 54.01 C 28.33 58.37 45.33 49.90 37.00 38.00 Z"/>
</g>
<g fill="None" fill-opacity="0.0" stroke="#F2F8FC" stroke-opacity="1.00" stroke-width="0.3"><path d="
M 37.00 63.00 
C 41.50 66.48 38.42 76.66 38.00 81.00
C 38.00 88.00 38.00 95.00 38.00 102.00
C 39.08 101.56 41.00 102.58 42.00 102.00
C 41.29 96.04 42.50 89.18 43.00 84.00
C 43.64 76.82 41.71 68.42 44.00 62.00
C 45.25 65.19 46.21 68.44 46.00 72.00
C 52.06 73.66 49.91 65.72 54.00 64.00
C 59.16 70.93 53.36 80.93 45.00 81.00
C 45.83 86.22 51.73 91.68 54.08 95.92 C 56.43 100.16 64.05 106.83 68.00 101.00
C 66.67 99.90 64.48 99.79 63.00 99.00
C 57.03 94.44 52.77 87.64 50.00 81.00
C 60.07 81.03 66.15 62.82 54.00 61.00
C 55.92 54.23 58.32 47.18 61.00 41.00
C 62.94 51.37 65.60 61.51 67.00 72.00
C 74.25 70.45 76.87 57.44 80.02 51.02 C 83.18 44.61 89.61 29.73 79.00 29.00
C 84.23 40.84 76.11 55.09 70.00 65.00
C 67.62 53.65 66.49 41.41 62.00 31.00
C 55.93 39.15 58.26 56.57 48.00 60.00
C 44.28 49.85 47.83 25.04 31.00 31.00
C 43.11 33.53 40.03 50.58 44.00 60.00
C 39.92 60.17 36.26 61.61 32.00 61.00
C 31.25 64.52 35.77 62.04 37.00 63.00
M 51.00 62.00 
C 51.87 68.50 45.96 63.07 51.00 62.00 Z"/>
</g>
<g fill="None" fill-opacity="0.0" stroke="#6ABCE4" stroke-opacity="1.00" stroke-width="0.3"><path d="
M 31.00 40.00 
C 30.33 37.69 26.74 40.20 26.00 38.00
C 29.67 38.00 33.33 38.00 37.00 38.00
C 34.03 36.19 28.39 36.57 25.00 38.00
C 25.72 40.66 28.92 39.96 31.00 40.00 Z"/>
</g>
<g fill="None" fill-opacity="0.0" stroke="#89CAE9" stroke-opacity="1.00" stroke-width="0.3"><path d="
M 32.00 50.00 
C 33.34 47.70 33.71 43.33 32.00 41.00
C 32.30 43.07 32.75 48.07 32.00 50.00 Z"/>
</g>
<g fill="None" fill-opacity="0.0" stroke="#64B7E2" stroke-opacity="1.00" stroke-width="0.3"><path d="
M 51.00 62.00 
C 45.96 63.07 51.87 68.50 51.00 62.00 Z"/>
</g>
<g fill="None" fill-opacity="0.0" stroke="#8DCCEA" stroke-opacity="1.00" stroke-width="0.3"><path d="
M 38.00 81.00 
C 38.42 76.66 41.50 66.48 37.00 63.00
C 39.90 66.18 38.00 76.81 38.00 81.00 Z"/>
</g>
<g fill="None" fill-opacity="0.0" stroke="#72BFE5" stroke-opacity="1.00" stroke-width="0.3"><path d="
M 42.00 102.00 
C 44.70 100.44 43.00 87.24 43.00 84.00
C 42.50 89.18 41.29 96.04 42.00 102.00 Z"/>
</g>
<g fill="None" fill-opacity="0.0" stroke="#72BFE5" stroke-opacity="1.00" stroke-width="0.3"><path d="
M 68.00 101.00 
C 70.29 97.62 64.93 99.78 63.00 99.00
C 64.48 99.79 66.67 99.90 68.00 101.00 Z"/>
</g>
<g fill="#000000" fill-opacity="0.07" stroke="None">
<path d="
M 0.00 122.00 
L 90.00 122.00
L 90.00 97.00
C 89.50 97.00 89.00 97.00 89.00 97.00
C 81.65 106.88 73.08 108.80 61.92 113.92 C 50.77 119.04 39.44 120.88 28.98 114.02 C 18.51 107.17 5.49 109.47 2.00 96.00
C -1.74 81.59 1.85 64.48 1.00 49.00 C 0.15 33.52 1.00 16.61 1.00 1.00
C 1.00 0.50 1.00 0.00 1.00 0.00
L 0.00 0.00
L 0.00 122.00 Z"/>
</g>
<g fill="#282A2A" fill-opacity="0.38" stroke="None">
<path d="
M 1.00 1.00 
C 1.25 1.25 2.00 1.00 2.00 1.00
C 11.39 1.00 22.81 0.48 32.00 1.00 C 41.19 1.52 54.62 -0.32 63.00 1.00 C 71.38 2.32 86.95 -3.92 88.99 5.01 C 91.04 13.94 87.94 26.42 89.00 36.00 C 90.06 45.58 88.27 56.12 89.00 66.00 C 89.73 75.88 88.10 87.04 89.00 97.00
C 89.00 97.00 89.50 97.00 90.00 97.00
L 90.00 0.00
L 1.00 0.00
C 1.00 0.00 1.00 0.50 1.00 1.00 Z"/>
</g>
<g fill="#292D2E" fill-opacity="0.97" stroke="None">
<path d="
M 2.00 96.00 
C -2.15 64.91 4.83 32.26 2.00 1.00
C 2.00 1.00 1.25 1.25 1.00 1.00
C 1.00 16.61 0.15 33.52 1.00 49.00 C 1.85 64.48 -1.74 81.59 2.00 96.00 Z"/>
</g>
<g fill="#088DD0" fill-opacity="1.00" stroke="None">
<path d="
M 2.00 96.00 
C 5.49 109.47 18.51 107.17 28.98 114.02 C 39.44 120.88 50.77 119.04 61.92 113.92 C 73.08 108.80 81.65 106.88 89.00 97.00
C 88.10 87.04 89.73 75.88 89.00 66.00 C 88.27 56.12 90.06 45.58 89.00 36.00 C 87.94 26.42 91.04 13.94 88.99 5.01 C 86.95 -3.92 71.38 2.32 63.00 1.00 C 54.62 -0.32 41.19 1.52 32.00 1.00 C 22.81 0.48 11.39 1.00 2.00 1.00
C 4.83 32.26 -2.15 64.91 2.00 96.00
M 32.00 12.00 
C 37.70 13.41 40.13 17.24 37.00 23.00
C 32.96 6.57 12.87 14.80 11.22 28.22 C 9.58 41.64 17.76 59.02 32.00 50.00
C 32.75 48.07 32.30 43.07 32.00 41.00
C 31.78 40.70 31.34 40.15 31.00 40.00
C 28.92 39.96 25.72 40.66 25.00 38.00
C 28.39 36.57 34.03 36.19 37.00 38.00
C 45.33 49.90 28.33 58.37 18.99 54.01 C 9.66 49.64 4.04 41.86 6.00 31.00 C 7.96 20.14 12.81 14.52 23.00 12.00
C 26.29 11.19 28.77 11.20 32.00 12.00
M 63.00 99.00 
C 64.93 99.78 70.29 97.62 68.00 101.00
C 64.05 106.83 56.43 100.16 54.08 95.92 C 51.73 91.68 45.83 86.22 45.00 81.00
C 53.36 80.93 59.16 70.93 54.00 64.00
C 49.91 65.72 52.06 73.66 46.00 72.00
C 46.21 68.44 45.25 65.19 44.00 62.00
C 41.71 68.42 43.64 76.82 43.00 84.00
C 43.00 87.24 44.70 100.44 42.00 102.00
C 41.00 102.58 39.08 101.56 38.00 102.00
C 38.00 95.00 38.00 88.00 38.00 81.00
C 38.00 76.81 39.90 66.18 37.00 63.00
C 35.77 62.04 31.25 64.52 32.00 61.00
C 36.26 61.61 39.92 60.17 44.00 60.00
C 40.03 50.58 43.11 33.53 31.00 31.00
C 47.83 25.04 44.28 49.85 48.00 60.00
C 58.26 56.57 55.93 39.15 62.00 31.00
C 66.49 41.41 67.62 53.65 70.00 65.00
C 76.11 55.09 84.23 40.84 79.00 29.00
C 89.61 29.73 83.18 44.61 80.02 51.02 C 76.87 57.44 74.25 70.45 67.00 72.00
C 65.60 61.51 62.94 51.37 61.00 41.00
C 58.32 47.18 55.92 54.23 54.00 61.00
C 66.15 62.82 60.07 81.03 50.00 81.00
C 52.77 87.64 57.03 94.44 63.00 99.00 Z"/>
</g>
<g fill="#9FD4ED" fill-opacity="1.00" stroke="None">
<path d="
M 23.00 12.00 
C 25.71 11.66 29.29 11.66 32.00 12.00
C 28.77 11.20 26.29 11.19 23.00 12.00 Z"/>
</g>
<g fill="#F1F8FC" fill-opacity="1.00" stroke="None">
<path d="
M 37.00 38.00 
C 33.33 38.00 29.67 38.00 26.00 38.00
C 26.74 40.20 30.33 37.69 31.00 40.00
C 31.34 40.15 31.78 40.70 32.00 41.00
C 33.71 43.33 33.34 47.70 32.00 50.00
C 17.76 59.02 9.58 41.64 11.22 28.22 C 12.87 14.80 32.96 6.57 37.00 23.00
C 40.13 17.24 37.70 13.41 32.00 12.00
C 29.29 11.66 25.71 11.66 23.00 12.00
C 12.81 14.52 7.96 20.14 6.00 31.00 C 4.04 41.86 9.66 49.64 18.99 54.01 C 28.33 58.37 45.33 49.90 37.00 38.00 Z"/>
</g>
<g fill="#F2F8FC" fill-opacity="1.00" stroke="None">
<path d="
M 37.00 63.00 
C 41.50 66.48 38.42 76.66 38.00 81.00
C 38.00 88.00 38.00 95.00 38.00 102.00
C 39.08 101.56 41.00 102.58 42.00 102.00
C 41.29 96.04 42.50 89.18 43.00 84.00
C 43.64 76.82 41.71 68.42 44.00 62.00
C 45.25 65.19 46.21 68.44 46.00 72.00
C 52.06 73.66 49.91 65.72 54.00 64.00
C 59.16 70.93 53.36 80.93 45.00 81.00
C 45.83 86.22 51.73 91.68 54.08 95.92 C 56.43 100.16 64.05 106.83 68.00 101.00
C 66.67 99.90 64.48 99.79 63.00 99.00
C 57.03 94.44 52.77 87.64 50.00 81.00
C 60.07 81.03 66.15 62.82 54.00 61.00
C 55.92 54.23 58.32 47.18 61.00 41.00
C 62.94 51.37 65.60 61.51 67.00 72.00
C 74.25 70.45 76.87 57.44 80.02 51.02 C 83.18 44.61 89.61 29.73 79.00 29.00
C 84.23 40.84 76.11 55.09 70.00 65.00
C 67.62 53.65 66.49 41.41 62.00 31.00
C 55.93 39.15 58.26 56.57 48.00 60.00
C 44.28 49.85 47.83 25.04 31.00 31.00
C 43.11 33.53 40.03 50.58 44.00 60.00
C 39.92 60.17 36.26 61.61 32.00 61.00
C 31.25 64.52 35.77 62.04 37.00 63.00
M 51.00 62.00 
C 51.87 68.50 45.96 63.07 51.00 62.00 Z"/>
</g>
<g fill="#6ABCE4" fill-opacity="1.00" stroke="None">
<path d="
M 31.00 40.00 
C 30.33 37.69 26.74 40.20 26.00 38.00
C 29.67 38.00 33.33 38.00 37.00 38.00
C 34.03 36.19 28.39 36.57 25.00 38.00
C 25.72 40.66 28.92 39.96 31.00 40.00 Z"/>
</g>
<g fill="#89CAE9" fill-opacity="1.00" stroke="None">
<path d="
M 32.00 50.00 
C 33.34 47.70 33.71 43.33 32.00 41.00
C 32.30 43.07 32.75 48.07 32.00 50.00 Z"/>
</g>
<g fill="#64B7E2" fill-opacity="1.00" stroke="None">
<path d="
M 51.00 62.00 
C 45.96 63.07 51.87 68.50 51.00 62.00 Z"/>
</g>
<g fill="#8DCCEA" fill-opacity="1.00" stroke="None">
<path d="
M 38.00 81.00 
C 38.42 76.66 41.50 66.48 37.00 63.00
C 39.90 66.18 38.00 76.81 38.00 81.00 Z"/>
</g>
<g fill="#72BFE5" fill-opacity="1.00" stroke="None">
<path d="
M 42.00 102.00 
C 44.70 100.44 43.00 87.24 43.00 84.00
C 42.50 89.18 41.29 96.04 42.00 102.00 Z"/>
</g>
<g fill="#72BFE5" fill-opacity="1.00" stroke="None">
<path d="
M 68.00 101.00 
C 70.29 97.62 64.93 99.78 63.00 99.00
C 64.48 99.79 66.67 99.90 68.00 101.00 Z"/>
</g>
</svg>