<svg xmlns="http://www.w3.org/2000/svg" xmlns:v="https://svgstorm.com"
viewBox = "0 0 89 122"
width="89"
height="122">
<g fill="None" fill-opacity="0.0" stroke="#363B3E" stroke-opacity="0.51" stroke-width="0.3"><path d="
M 0.00 34.00 
C 0.50 34.00 1.00 34.00 1.00 34.00
C 1.00 29.60 0.27 22.09 1.00 18.00 C 1.73 13.91 -1.25 4.28 2.00 2.00
C 6.81 -1.37 16.87 3.56 23.00 2.00 C 29.13 0.44 38.36 2.95 45.00 2.00 C 51.64 1.05 59.17 2.93 66.00 2.00 C 72.83 1.07 81.22 3.50 88.00 2.00
C 88.05 1.65 88.67 1.17 89.00 1.00
L 89.00 0.00
L 0.00 0.00
L 0.00 34.00 Z"/>
</g>
<g fill="None" fill-opacity="0.0" stroke="#2D2E2D" stroke-opacity="0.98" stroke-width="0.3"><path d="
M 88.00 2.00 
C 85.78 17.43 88.30 34.37 88.00 50.00 C 87.70 65.63 86.59 82.43 88.00 98.00
C 88.12 97.78 89.00 98.00 89.00 98.00
L 89.00 1.00
C 88.67 1.17 88.05 1.65 88.00 2.00 Z"/>
</g>
<g fill="None" fill-opacity="0.0" stroke="#7293A5" stroke-opacity="0.98" stroke-width="0.3"><path d="
M 1.00 34.00 
C 1.00 43.94 0.14 55.20 1.00 65.00 C 1.86 74.80 -1.64 87.43 2.00 96.00
C 2.00 64.67 2.00 33.33 2.00 2.00
C -1.25 4.28 1.73 13.91 1.00 18.00 C 0.27 22.09 1.00 29.60 1.00 34.00 Z"/>
</g>
<g fill="None" fill-opacity="0.0" stroke="#A0D6F4" stroke-opacity="1.00" stroke-width="0.3"><path d="
M 2.00 96.00 
C 2.00 96.50 1.91 97.52 2.00 98.00
C 4.25 110.75 20.80 107.62 29.68 114.32 C 38.56 121.02 50.68 120.30 60.68 114.68 C 70.68 109.06 81.81 108.78 88.00 98.00
C 86.59 82.43 87.70 65.63 88.00 50.00 C 88.30 34.37 85.78 17.43 88.00 2.00
C 81.22 3.50 72.83 1.07 66.00 2.00 C 59.17 2.93 51.64 1.05 45.00 2.00 C 38.36 2.95 29.13 0.44 23.00 2.00 C 16.87 3.56 6.81 -1.37 2.00 2.00
C 2.00 33.33 2.00 64.67 2.00 96.00
M 19.00 15.00 
C 19.21 18.81 18.29 22.96 18.00 26.00
C 18.00 35.79 18.25 45.53 17.00 55.00
C 23.87 51.79 39.73 58.71 38.00 46.00
C 41.94 46.76 39.54 53.18 39.00 56.00
C 38.89 57.01 37.46 58.48 40.00 58.00
C 44.47 57.16 40.66 41.77 44.78 37.78 C 48.89 33.78 50.53 27.11 57.23 25.23 C 63.93 23.35 72.74 23.53 79.00 27.00
C 78.02 30.34 81.18 37.02 77.00 38.00
C 77.92 29.27 66.40 22.61 57.98 27.98 C 49.55 33.34 50.34 38.73 48.00 49.00 C 45.66 59.27 59.52 57.31 60.97 67.03 C 62.43 76.74 73.24 70.17 80.00 67.00
C 75.32 73.87 67.25 77.06 59.00 76.00
C 57.88 80.81 51.95 82.22 48.00 84.00
C 53.88 92.35 59.14 107.02 71.00 106.00
C 56.18 116.52 47.55 93.04 42.00 83.00
C 47.12 82.26 53.35 80.90 55.00 75.00
C 47.34 73.11 46.34 62.51 40.00 61.00
C 40.00 68.67 40.00 76.33 40.00 84.00
C 40.00 87.10 39.23 90.64 39.00 93.00
C 39.00 98.15 41.76 109.91 34.00 109.00
C 34.00 100.67 34.00 92.33 34.00 84.00
C 34.00 79.08 36.10 68.34 34.00 64.00
C 32.41 61.75 30.49 61.61 27.00 62.00
C 26.37 59.47 29.53 60.10 31.00 60.00
C 31.14 59.96 31.16 58.06 31.00 58.00
C 24.72 57.90 18.21 55.73 12.00 58.00
C 10.79 49.78 13.59 38.72 13.00 31.00 C 12.41 23.28 16.81 8.24 6.00 11.00
C 8.10 5.51 22.10 6.48 19.00 15.00 Z"/>
</g>
<g fill="None" fill-opacity="0.0" stroke="#2F3030" stroke-opacity="1.00" stroke-width="0.3"><path d="
M 31.00 58.00 
C 32.35 58.02 38.89 55.95 39.00 56.00
C 39.54 53.18 41.94 46.76 38.00 46.00
C 39.73 58.71 23.87 51.79 17.00 55.00
C 18.25 45.53 18.00 35.79 18.00 26.00
C 18.00 22.37 18.88 17.84 19.00 15.00
C 22.10 6.48 8.10 5.51 6.00 11.00
C 16.81 8.24 12.41 23.28 13.00 31.00 C 13.59 38.72 10.79 49.78 12.00 58.00
C 18.21 55.73 24.72 57.90 31.00 58.00 Z"/>
</g>
<g fill="None" fill-opacity="0.0" stroke="#5F7683" stroke-opacity="1.00" stroke-width="0.3"><path d="
M 18.00 26.00 
C 18.29 22.96 19.21 18.81 19.00 15.00
C 18.88 17.84 18.00 22.37 18.00 26.00 Z"/>
</g>
<g fill="None" fill-opacity="0.0" stroke="#2F3030" stroke-opacity="1.00" stroke-width="0.3"><path d="
M 40.00 58.00 
C 39.18 59.54 32.88 59.45 31.00 60.00
C 29.53 60.10 26.37 59.47 27.00 62.00
C 30.49 61.61 32.41 61.75 34.00 64.00
C 37.21 68.54 34.46 79.26 34.00 84.00
C 34.00 92.33 34.00 100.67 34.00 109.00
C 41.76 109.91 39.00 98.15 39.00 93.00
C 39.00 89.90 39.77 86.36 40.00 84.00
C 40.00 76.33 40.00 68.67 40.00 61.00
C 46.34 62.51 47.34 73.11 55.00 75.00
C 53.35 80.90 47.12 82.26 42.00 83.00
C 47.55 93.04 56.18 116.52 71.00 106.00
C 59.14 107.02 53.88 92.35 48.00 84.00
C 51.95 82.22 57.88 80.81 59.00 76.00
C 67.25 77.06 75.32 73.87 80.00 67.00
C 73.24 70.17 62.43 76.74 60.97 67.03 C 59.52 57.31 45.66 59.27 48.00 49.00 C 50.34 38.73 49.55 33.34 57.98 27.98 C 66.40 22.61 77.92 29.27 77.00 38.00
C 81.18 37.02 78.02 30.34 79.00 27.00
C 72.74 23.53 63.93 23.35 57.23 25.23 C 50.53 27.11 48.89 33.78 44.78 37.78 C 40.66 41.77 44.47 57.16 40.00 58.00
M 55.00 68.00 
C 52.58 66.70 50.96 64.43 50.00 62.00
C 52.98 62.05 54.70 65.44 55.00 68.00 Z"/>
</g>
<g fill="None" fill-opacity="0.0" stroke="#2A2928" stroke-opacity="0.35" stroke-width="0.3"><path d="
M 0.00 96.00 
C 0.43 96.59 1.63 97.40 2.00 98.00
C 1.91 97.52 2.00 96.50 2.00 96.00
C -1.64 87.43 1.86 74.80 1.00 65.00 C 0.14 55.20 1.00 43.94 1.00 34.00
C 1.00 34.00 0.50 34.00 0.00 34.00
L 0.00 96.00 Z"/>
</g>
<g fill="None" fill-opacity="0.0" stroke="#7496A9" stroke-opacity="1.00" stroke-width="0.3"><path d="
M 31.00 58.00 
C 31.16 58.06 31.14 59.96 31.00 60.00
C 32.88 59.45 39.18 59.54 40.00 58.00
C 37.46 58.48 38.89 57.01 39.00 56.00
C 38.89 55.95 32.35 58.02 31.00 58.00 Z"/>
</g>
<g fill="None" fill-opacity="0.0" stroke="#8DBBD4" stroke-opacity="1.00" stroke-width="0.3"><path d="
M 55.00 68.00 
C 54.70 65.44 52.98 62.05 50.00 62.00
C 50.96 64.43 52.58 66.70 55.00 68.00 Z"/>
</g>
<g fill="None" fill-opacity="0.0" stroke="#617A88" stroke-opacity="1.00" stroke-width="0.3"><path d="
M 34.00 84.00 
C 34.46 79.26 37.21 68.54 34.00 64.00
C 36.10 68.34 34.00 79.08 34.00 84.00 Z"/>
</g>
<g fill="None" fill-opacity="0.0" stroke="#5E7582" stroke-opacity="1.00" stroke-width="0.3"><path d="
M 39.00 93.00 
C 39.23 90.64 40.00 87.10 40.00 84.00
C 39.77 86.36 39.00 89.90 39.00 93.00 Z"/>
</g>
<g fill="None" fill-opacity="0.0" stroke="#000000" stroke-opacity="0.07" stroke-width="0.3"><path d="
M 0.00 122.00 
L 89.00 122.00
L 89.00 98.00
C 89.00 98.00 88.12 97.78 88.00 98.00
C 81.81 108.78 70.68 109.06 60.68 114.68 C 50.68 120.30 38.56 121.02 29.68 114.32 C 20.80 107.62 4.25 110.75 2.00 98.00
C 1.63 97.40 0.43 96.59 0.00 96.00
L 0.00 122.00 Z"/>
</g>
<g fill="#363B3E" fill-opacity="0.51" stroke="None">
<path d="
M 0.00 34.00 
C 0.50 34.00 1.00 34.00 1.00 34.00
C 1.00 29.60 0.27 22.09 1.00 18.00 C 1.73 13.91 -1.25 4.28 2.00 2.00
C 6.81 -1.37 16.87 3.56 23.00 2.00 C 29.13 0.44 38.36 2.95 45.00 2.00 C 51.64 1.05 59.17 2.93 66.00 2.00 C 72.83 1.07 81.22 3.50 88.00 2.00
C 88.05 1.65 88.67 1.17 89.00 1.00
L 89.00 0.00
L 0.00 0.00
L 0.00 34.00 Z"/>
</g>
<g fill="#2D2E2D" fill-opacity="0.98" stroke="None">
<path d="
M 88.00 2.00 
C 85.78 17.43 88.30 34.37 88.00 50.00 C 87.70 65.63 86.59 82.43 88.00 98.00
C 88.12 97.78 89.00 98.00 89.00 98.00
L 89.00 1.00
C 88.67 1.17 88.05 1.65 88.00 2.00 Z"/>
</g>
<g fill="#7293A5" fill-opacity="0.98" stroke="None">
<path d="
M 1.00 34.00 
C 1.00 43.94 0.14 55.20 1.00 65.00 C 1.86 74.80 -1.64 87.43 2.00 96.00
C 2.00 64.67 2.00 33.33 2.00 2.00
C -1.25 4.28 1.73 13.91 1.00 18.00 C 0.27 22.09 1.00 29.60 1.00 34.00 Z"/>
</g>
<g fill="#A0D6F4" fill-opacity="1.00" stroke="None">
<path d="
M 2.00 96.00 
C 2.00 96.50 1.91 97.52 2.00 98.00
C 4.25 110.75 20.80 107.62 29.68 114.32 C 38.56 121.02 50.68 120.30 60.68 114.68 C 70.68 109.06 81.81 108.78 88.00 98.00
C 86.59 82.43 87.70 65.63 88.00 50.00 C 88.30 34.37 85.78 17.43 88.00 2.00
C 81.22 3.50 72.83 1.07 66.00 2.00 C 59.17 2.93 51.64 1.05 45.00 2.00 C 38.36 2.95 29.13 0.44 23.00 2.00 C 16.87 3.56 6.81 -1.37 2.00 2.00
C 2.00 33.33 2.00 64.67 2.00 96.00
M 19.00 15.00 
C 19.21 18.81 18.29 22.96 18.00 26.00
C 18.00 35.79 18.25 45.53 17.00 55.00
C 23.87 51.79 39.73 58.71 38.00 46.00
C 41.94 46.76 39.54 53.18 39.00 56.00
C 38.89 57.01 37.46 58.48 40.00 58.00
C 44.47 57.16 40.66 41.77 44.78 37.78 C 48.89 33.78 50.53 27.11 57.23 25.23 C 63.93 23.35 72.74 23.53 79.00 27.00
C 78.02 30.34 81.18 37.02 77.00 38.00
C 77.92 29.27 66.40 22.61 57.98 27.98 C 49.55 33.34 50.34 38.73 48.00 49.00 C 45.66 59.27 59.52 57.31 60.97 67.03 C 62.43 76.74 73.24 70.17 80.00 67.00
C 75.32 73.87 67.25 77.06 59.00 76.00
C 57.88 80.81 51.95 82.22 48.00 84.00
C 53.88 92.35 59.14 107.02 71.00 106.00
C 56.18 116.52 47.55 93.04 42.00 83.00
C 47.12 82.26 53.35 80.90 55.00 75.00
C 47.34 73.11 46.34 62.51 40.00 61.00
C 40.00 68.67 40.00 76.33 40.00 84.00
C 40.00 87.10 39.23 90.64 39.00 93.00
C 39.00 98.15 41.76 109.91 34.00 109.00
C 34.00 100.67 34.00 92.33 34.00 84.00
C 34.00 79.08 36.10 68.34 34.00 64.00
C 32.41 61.75 30.49 61.61 27.00 62.00
C 26.37 59.47 29.53 60.10 31.00 60.00
C 31.14 59.96 31.16 58.06 31.00 58.00
C 24.72 57.90 18.21 55.73 12.00 58.00
C 10.79 49.78 13.59 38.72 13.00 31.00 C 12.41 23.28 16.81 8.24 6.00 11.00
C 8.10 5.51 22.10 6.48 19.00 15.00 Z"/>
</g>
<g fill="#2F3030" fill-opacity="1.00" stroke="None">
<path d="
M 31.00 58.00 
C 32.35 58.02 38.89 55.95 39.00 56.00
C 39.54 53.18 41.94 46.76 38.00 46.00
C 39.73 58.71 23.87 51.79 17.00 55.00
C 18.25 45.53 18.00 35.79 18.00 26.00
C 18.00 22.37 18.88 17.84 19.00 15.00
C 22.10 6.48 8.10 5.51 6.00 11.00
C 16.81 8.24 12.41 23.28 13.00 31.00 C 13.59 38.72 10.79 49.78 12.00 58.00
C 18.21 55.73 24.72 57.90 31.00 58.00 Z"/>
</g>
<g fill="#5F7683" fill-opacity="1.00" stroke="None">
<path d="
M 18.00 26.00 
C 18.29 22.96 19.21 18.81 19.00 15.00
C 18.88 17.84 18.00 22.37 18.00 26.00 Z"/>
</g>
<g fill="#2F3030" fill-opacity="1.00" stroke="None">
<path d="
M 40.00 58.00 
C 39.18 59.54 32.88 59.45 31.00 60.00
C 29.53 60.10 26.37 59.47 27.00 62.00
C 30.49 61.61 32.41 61.75 34.00 64.00
C 37.21 68.54 34.46 79.26 34.00 84.00
C 34.00 92.33 34.00 100.67 34.00 109.00
C 41.76 109.91 39.00 98.15 39.00 93.00
C 39.00 89.90 39.77 86.36 40.00 84.00
C 40.00 76.33 40.00 68.67 40.00 61.00
C 46.34 62.51 47.34 73.11 55.00 75.00
C 53.35 80.90 47.12 82.26 42.00 83.00
C 47.55 93.04 56.18 116.52 71.00 106.00
C 59.14 107.02 53.88 92.35 48.00 84.00
C 51.95 82.22 57.88 80.81 59.00 76.00
C 67.25 77.06 75.32 73.87 80.00 67.00
C 73.24 70.17 62.43 76.74 60.97 67.03 C 59.52 57.31 45.66 59.27 48.00 49.00 C 50.34 38.73 49.55 33.34 57.98 27.98 C 66.40 22.61 77.92 29.27 77.00 38.00
C 81.18 37.02 78.02 30.34 79.00 27.00
C 72.74 23.53 63.93 23.35 57.23 25.23 C 50.53 27.11 48.89 33.78 44.78 37.78 C 40.66 41.77 44.47 57.16 40.00 58.00
M 55.00 68.00 
C 52.58 66.70 50.96 64.43 50.00 62.00
C 52.98 62.05 54.70 65.44 55.00 68.00 Z"/>
</g>
<g fill="#2A2928" fill-opacity="0.35" stroke="None">
<path d="
M 0.00 96.00 
C 0.43 96.59 1.63 97.40 2.00 98.00
C 1.91 97.52 2.00 96.50 2.00 96.00
C -1.64 87.43 1.86 74.80 1.00 65.00 C 0.14 55.20 1.00 43.94 1.00 34.00
C 1.00 34.00 0.50 34.00 0.00 34.00
L 0.00 96.00 Z"/>
</g>
<g fill="#7496A9" fill-opacity="1.00" stroke="None">
<path d="
M 31.00 58.00 
C 31.16 58.06 31.14 59.96 31.00 60.00
C 32.88 59.45 39.18 59.54 40.00 58.00
C 37.46 58.48 38.89 57.01 39.00 56.00
C 38.89 55.95 32.35 58.02 31.00 58.00 Z"/>
</g>
<g fill="#8DBBD4" fill-opacity="1.00" stroke="None">
<path d="
M 55.00 68.00 
C 54.70 65.44 52.98 62.05 50.00 62.00
C 50.96 64.43 52.58 66.70 55.00 68.00 Z"/>
</g>
<g fill="#617A88" fill-opacity="1.00" stroke="None">
<path d="
M 34.00 84.00 
C 34.46 79.26 37.21 68.54 34.00 64.00
C 36.10 68.34 34.00 79.08 34.00 84.00 Z"/>
</g>
<g fill="#5E7582" fill-opacity="1.00" stroke="None">
<path d="
M 39.00 93.00 
C 39.23 90.64 40.00 87.10 40.00 84.00
C 39.77 86.36 39.00 89.90 39.00 93.00 Z"/>
</g>
<g fill="#000000" fill-opacity="0.07" stroke="None">
<path d="
M 0.00 122.00 
L 89.00 122.00
L 89.00 98.00
C 89.00 98.00 88.12 97.78 88.00 98.00
C 81.81 108.78 70.68 109.06 60.68 114.68 C 50.68 120.30 38.56 121.02 29.68 114.32 C 20.80 107.62 4.25 110.75 2.00 98.00
C 1.63 97.40 0.43 96.59 0.00 96.00
L 0.00 122.00 Z"/>
</g>
</svg>