<svg xmlns="http://www.w3.org/2000/svg" xmlns:v="https://svgstorm.com"
viewBox = "0 0 90 122"
width="90"
height="122">
<g fill="None" fill-opacity="0.0" stroke="#000000" stroke-opacity="0.00" stroke-width="0.3"><path d="
M 0.00 122.00 
L 45.00 122.00
C 38.69 118.90 31.24 116.18 25.00 113.00
C 24.60 112.80 23.49 113.08 23.00 113.00
C 21.84 112.81 20.75 111.24 20.00 111.00
C 19.55 110.86 18.49 111.08 18.00 111.00
C 16.84 110.81 15.75 109.24 15.00 109.00
C 14.55 108.86 13.46 109.13 13.00 109.00
C 7.16 107.40 1.46 102.25 1.00 96.00
C -1.84 64.59 3.13 32.47 1.00 1.00
C 30.33 1.00 59.67 1.00 89.00 1.00
C 89.50 1.00 90.00 1.00 90.00 1.00
L 90.00 0.00
L 0.00 0.00
L 0.00 122.00 Z"/>
</g>
<g fill="None" fill-opacity="0.0" stroke="#322F2C" stroke-opacity="0.96" stroke-width="0.3"><path d="
M 1.00 96.00 
C 1.00 96.04 2.00 96.00 2.00 96.00
C 4.81 64.92 -0.11 33.14 2.00 2.00
C 30.67 2.00 59.33 2.00 88.00 2.00
C 88.50 2.00 89.00 2.00 89.00 2.00
C 89.00 1.50 89.00 1.00 89.00 1.00
C 59.67 1.00 30.33 1.00 1.00 1.00
C 3.13 32.47 -1.84 64.59 1.00 96.00 Z"/>
</g>
<g fill="None" fill-opacity="0.0" stroke="#2F2F29" stroke-opacity="0.42" stroke-width="0.3"><path d="
M 89.00 2.00 
C 89.00 12.16 89.66 24.00 89.00 34.00 C 88.34 44.00 90.75 56.62 89.00 66.00 C 87.25 75.38 93.34 90.78 88.00 98.00
C 88.00 98.50 88.00 99.00 88.00 99.00
C 88.25 99.25 89.00 99.00 89.00 99.00
C 89.17 98.67 89.67 98.17 90.00 98.00
L 90.00 1.00
C 90.00 1.00 89.50 1.00 89.00 1.00
C 89.00 1.00 89.00 1.50 89.00 2.00 Z"/>
</g>
<g fill="None" fill-opacity="0.0" stroke="#D5B36C" stroke-opacity="1.00" stroke-width="0.3"><path d="
M 2.00 96.00 
C 3.73 102.02 6.46 104.46 12.00 107.00
C 12.92 107.42 14.37 108.80 15.00 109.00
C 15.45 109.14 16.51 108.92 17.00 109.00
C 18.16 109.19 19.25 110.76 20.00 111.00
C 20.45 111.14 21.51 110.92 22.00 111.00
C 23.26 111.21 24.15 112.56 25.00 113.00
C 34.63 117.99 48.68 123.00 58.02 116.02 C 67.37 109.05 83.53 111.38 88.00 99.00
C 88.00 99.00 88.00 98.50 88.00 98.00
C 88.00 66.44 85.16 33.41 88.00 2.00
C 59.33 2.00 30.67 2.00 2.00 2.00
C -0.11 33.14 4.81 64.92 2.00 96.00
M 15.00 11.00 
C 15.97 11.47 15.87 11.97 16.00 13.00
C 17.34 16.30 16.29 18.97 16.00 22.00
C 16.00 27.66 16.11 33.34 16.00 39.00
C 15.95 41.25 15.06 44.51 15.00 46.00
C 15.08 48.00 14.94 50.00 15.00 52.00
C 20.49 48.80 33.75 55.24 33.00 45.00
C 36.04 40.63 35.22 46.59 35.00 48.00
C 32.95 60.89 18.83 50.40 10.00 55.00
C 10.00 54.00 10.00 53.00 10.00 52.00
C 9.64 49.91 10.82 48.31 11.00 47.00
C 11.20 42.02 11.00 36.99 11.00 32.00
C 11.00 27.86 12.80 18.63 11.00 15.00
C 9.45 12.85 7.73 12.69 5.00 13.00
C 5.84 11.89 7.46 10.96 9.00 11.00
C 11.07 10.36 12.90 9.16 15.00 11.00
M 85.00 31.00 
C 85.78 32.88 85.43 32.28 85.00 34.00
C 84.40 39.87 81.57 47.52 78.69 52.69 C 75.81 57.87 74.78 66.60 71.00 71.00
C 69.55 72.69 67.89 74.11 66.00 72.00
C 63.19 68.85 65.04 60.17 63.02 55.98 C 61.01 51.78 61.24 44.64 60.00 40.00
C 56.95 46.06 55.14 53.32 53.00 60.00
C 55.96 60.39 59.70 62.74 60.00 66.00
C 60.82 68.34 60.60 68.77 60.00 71.00
C 59.74 73.27 59.26 74.15 58.00 76.00
C 57.07 77.35 56.35 78.15 55.00 79.00
C 53.20 80.14 51.21 81.16 49.00 81.00
C 53.12 88.77 58.40 101.16 69.00 101.00
C 56.68 110.13 49.04 90.62 44.00 82.00
C 43.90 79.91 44.42 80.77 47.00 80.00
C 48.18 79.65 49.88 79.54 51.00 79.00
C 51.27 78.84 53.87 76.20 54.00 76.00
C 55.88 72.23 55.96 65.37 52.00 63.00
C 50.39 65.10 49.73 68.29 49.00 71.00
C 47.23 73.22 45.67 73.66 44.00 71.00
C 42.68 68.91 43.68 64.42 43.00 62.00
C 40.75 66.42 42.61 72.82 42.00 78.00
C 42.00 81.33 42.00 84.67 42.00 88.00
C 42.00 90.83 41.25 93.89 41.00 96.00
C 40.93 99.51 41.79 101.37 39.00 103.00
C 38.20 103.47 37.38 104.52 36.00 104.00
C 36.00 100.33 36.00 96.67 36.00 93.00
C 36.05 90.59 36.84 87.70 37.00 86.00
C 37.00 80.64 39.33 68.70 37.00 64.00
C 35.61 61.87 31.58 63.99 30.00 62.00
C 30.49 60.17 32.35 59.82 34.00 60.00
C 35.48 59.82 37.61 60.51 39.00 60.00
C 40.79 59.34 40.77 57.74 41.00 56.00
C 40.61 49.38 37.71 42.79 36.67 36.33 C 35.63 29.87 32.21 33.48 29.00 31.00
C 28.59 31.21 27.56 29.24 30.00 29.00
C 30.18 29.24 31.50 29.00 32.00 29.00
C 32.89 28.77 33.54 28.00 35.00 28.00
C 40.82 27.21 41.68 36.60 42.93 41.07 C 44.18 45.55 45.60 53.95 46.00 59.00
C 53.67 60.27 52.58 51.03 54.98 45.98 C 57.38 40.92 58.24 33.69 61.00 29.00
C 65.80 39.65 66.86 52.26 69.00 64.00
C 69.23 64.42 70.85 64.71 71.00 65.00
C 75.20 61.39 74.77 51.82 77.98 46.98 C 81.18 42.13 82.16 32.08 79.00 27.00
C 81.39 26.91 85.16 27.99 85.00 31.00 Z"/>
</g>
<g fill="None" fill-opacity="0.0" stroke="#9A8454" stroke-opacity="1.00" stroke-width="0.3"><path d="
M 88.00 98.00 
C 93.34 90.78 87.25 75.38 89.00 66.00 C 90.75 56.62 88.34 44.00 89.00 34.00 C 89.66 24.00 89.00 12.16 89.00 2.00
C 89.00 2.00 88.50 2.00 88.00 2.00
C 85.16 33.41 88.00 66.44 88.00 98.00 Z"/>
</g>
<g fill="None" fill-opacity="0.0" stroke="#8E7950" stroke-opacity="1.00" stroke-width="0.3"><path d="
M 9.00 11.00 
C 10.23 10.82 13.91 10.47 15.00 11.00
C 12.90 9.16 11.07 10.36 9.00 11.00 Z"/>
</g>
<g fill="None" fill-opacity="0.0" stroke="#312F2B" stroke-opacity="1.00" stroke-width="0.3"><path d="
M 11.00 15.00 
C 13.93 19.07 11.40 27.84 11.00 32.00
C 11.00 36.99 11.20 42.02 11.00 47.00
C 10.95 48.28 9.97 51.53 10.00 52.00
C 10.00 53.00 10.00 54.00 10.00 55.00
C 18.83 50.40 32.95 60.89 35.00 48.00
C 34.99 46.52 35.36 42.91 33.00 45.00
C 33.75 55.24 20.49 48.80 15.00 52.00
C 14.94 50.00 15.08 48.00 15.00 46.00
C 14.90 43.48 15.83 40.76 16.00 39.00
C 16.11 33.34 16.00 27.66 16.00 22.00
C 16.00 19.08 16.36 15.90 16.00 13.00
C 15.87 11.97 15.97 11.47 15.00 11.00
C 13.91 10.47 10.23 10.82 9.00 11.00
C 7.46 10.96 5.84 11.89 5.00 13.00
C 7.73 12.69 9.45 12.85 11.00 15.00 Z"/>
</g>
<g fill="None" fill-opacity="0.0" stroke="#A38B58" stroke-opacity="1.00" stroke-width="0.3"><path d="
M 16.00 22.00 
C 16.29 18.97 17.34 16.30 16.00 13.00
C 16.36 15.90 16.00 19.08 16.00 22.00 Z"/>
</g>
<g fill="None" fill-opacity="0.0" stroke="#5E533D" stroke-opacity="1.00" stroke-width="0.3"><path d="
M 11.00 32.00 
C 11.40 27.84 13.93 19.07 11.00 15.00
C 12.80 18.63 11.00 27.86 11.00 32.00 Z"/>
</g>
<g fill="None" fill-opacity="0.0" stroke="#322F2C" stroke-opacity="1.00" stroke-width="0.3"><path d="
M 71.00 65.00 
C 71.52 66.01 69.55 65.28 69.00 64.00
C 66.86 52.26 65.80 39.65 61.00 29.00
C 58.24 33.69 57.38 40.92 54.98 45.98 C 52.58 51.03 53.67 60.27 46.00 59.00
C 45.60 53.95 44.18 45.55 42.93 41.07 C 41.68 36.60 40.82 27.21 35.00 28.00
C 34.37 28.08 33.24 28.99 32.00 29.00
C 31.50 29.00 30.18 29.24 30.00 29.00
C 29.98 28.97 28.94 31.03 29.00 31.00
C 32.21 33.48 35.63 29.87 36.67 36.33 C 37.71 42.79 40.61 49.38 41.00 56.00
C 41.04 56.63 42.95 58.68 42.00 60.00
C 41.00 60.00 40.00 60.00 39.00 60.00
C 37.61 60.51 35.48 59.82 34.00 60.00
C 33.45 60.11 31.37 61.30 31.00 62.00
C 33.08 62.08 36.28 61.31 37.00 64.00
C 39.33 68.70 37.00 80.64 37.00 86.00
C 37.00 88.33 37.00 90.67 37.00 93.00
C 37.00 95.52 35.58 103.00 39.00 103.00
C 41.79 101.37 40.93 99.51 41.00 96.00
C 41.05 93.34 41.00 90.66 41.00 88.00
C 41.00 84.58 41.74 80.69 42.00 78.00
C 42.61 72.82 40.75 66.42 43.00 62.00
C 43.68 64.42 42.68 68.91 44.00 71.00
C 45.28 72.37 47.69 72.12 49.00 71.00
C 49.73 68.29 50.39 65.10 52.00 63.00
C 55.96 65.37 55.88 72.23 54.00 76.00
C 53.33 77.35 52.31 78.37 51.00 79.00
C 49.88 79.54 48.18 79.65 47.00 80.00
C 46.32 80.28 44.38 81.13 44.00 82.00
C 49.04 90.62 56.68 110.13 69.00 101.00
C 58.40 101.16 53.12 88.77 49.00 81.00
C 51.21 81.16 53.20 80.14 55.00 79.00
C 55.68 78.47 57.48 76.62 58.00 76.00
C 59.26 74.15 59.74 73.27 60.00 71.00
C 60.16 69.54 60.25 67.45 60.00 66.00
C 59.70 62.74 55.96 60.39 53.00 60.00
C 55.14 53.32 56.95 46.06 60.00 40.00
C 61.24 44.64 61.01 51.78 63.02 55.98 C 65.04 60.17 63.19 68.85 66.00 72.00
C 67.70 72.07 69.64 72.13 71.00 71.00
C 74.78 66.60 75.81 57.87 78.69 52.69 C 81.57 47.52 84.40 39.87 85.00 34.00
C 85.09 33.11 85.12 31.88 85.00 31.00
C 85.16 27.99 81.39 26.91 79.00 27.00
C 82.16 32.08 81.18 42.13 77.98 46.98 C 74.77 51.82 75.20 61.39 71.00 65.00
M 49.00 65.00 
C 50.19 67.29 44.99 64.50 47.00 64.00
C 46.13 61.50 48.26 60.45 50.00 62.00
C 49.43 62.94 48.85 63.82 49.00 65.00 Z"/>
</g>
<g fill="None" fill-opacity="0.0" stroke="#655940" stroke-opacity="1.00" stroke-width="0.3"><path d="
M 32.00 29.00 
C 33.24 28.99 34.37 28.08 35.00 28.00
C 33.54 28.00 32.89 28.77 32.00 29.00 Z"/>
</g>
<g fill="None" fill-opacity="0.0" stroke="#6D5F43" stroke-opacity="1.00" stroke-width="0.3"><path d="
M 29.00 31.00 
C 28.94 31.03 29.98 28.97 30.00 29.00
C 27.56 29.24 28.59 31.21 29.00 31.00 Z"/>
</g>
<g fill="None" fill-opacity="0.0" stroke="#988153" stroke-opacity="1.00" stroke-width="0.3"><path d="
M 85.00 34.00 
C 85.43 32.28 85.78 32.88 85.00 31.00
C 85.12 31.88 85.09 33.11 85.00 34.00 Z"/>
</g>
<g fill="None" fill-opacity="0.0" stroke="#7F6E4A" stroke-opacity="1.00" stroke-width="0.3"><path d="
M 15.00 46.00 
C 15.06 44.51 15.95 41.25 16.00 39.00
C 15.83 40.76 14.90 43.48 15.00 46.00 Z"/>
</g>
<g fill="None" fill-opacity="0.0" stroke="#A48C58" stroke-opacity="1.00" stroke-width="0.3"><path d="
M 33.00 45.00 
C 35.36 42.91 34.99 46.52 35.00 48.00
C 35.22 46.59 36.04 40.63 33.00 45.00 Z"/>
</g>
<g fill="None" fill-opacity="0.0" stroke="#6A5C42" stroke-opacity="1.00" stroke-width="0.3"><path d="
M 10.00 52.00 
C 9.97 51.53 10.95 48.28 11.00 47.00
C 10.82 48.31 9.64 49.91 10.00 52.00 Z"/>
</g>
<g fill="None" fill-opacity="0.0" stroke="#786847" stroke-opacity="1.00" stroke-width="0.3"><path d="
M 39.00 60.00 
C 40.00 60.00 41.00 60.00 42.00 60.00
C 42.95 58.68 41.04 56.63 41.00 56.00
C 40.77 57.74 40.79 59.34 39.00 60.00 Z"/>
</g>
<g fill="None" fill-opacity="0.0" stroke="#927D51" stroke-opacity="1.00" stroke-width="0.3"><path d="
M 37.00 64.00 
C 36.28 61.31 33.08 62.08 31.00 62.00
C 31.37 61.30 33.45 60.11 34.00 60.00
C 32.35 59.82 30.49 60.17 30.00 62.00
C 31.58 63.99 35.61 61.87 37.00 64.00 Z"/>
</g>
<g fill="None" fill-opacity="0.0" stroke="#9F8857" stroke-opacity="1.00" stroke-width="0.3"><path d="
M 47.00 64.00 
C 47.03 63.99 49.03 65.06 49.00 65.00
C 48.85 63.82 49.43 62.94 50.00 62.00
C 48.26 60.45 46.13 61.50 47.00 64.00 Z"/>
</g>
<g fill="None" fill-opacity="0.0" stroke="#60553E" stroke-opacity="1.00" stroke-width="0.3"><path d="
M 49.00 65.00 
C 49.03 65.06 47.03 63.99 47.00 64.00
C 44.99 64.50 50.19 67.29 49.00 65.00 Z"/>
</g>
<g fill="None" fill-opacity="0.0" stroke="#695C41" stroke-opacity="1.00" stroke-width="0.3"><path d="
M 71.00 65.00 
C 70.85 64.71 69.23 64.42 69.00 64.00
C 69.55 65.28 71.52 66.01 71.00 65.00 Z"/>
</g>
<g fill="None" fill-opacity="0.0" stroke="#937E52" stroke-opacity="1.00" stroke-width="0.3"><path d="
M 60.00 71.00 
C 60.60 68.77 60.82 68.34 60.00 66.00
C 60.25 67.45 60.16 69.54 60.00 71.00 Z"/>
</g>
<g fill="None" fill-opacity="0.0" stroke="#7E6D4A" stroke-opacity="1.00" stroke-width="0.3"><path d="
M 49.00 71.00 
C 47.69 72.12 45.28 72.37 44.00 71.00
C 45.67 73.66 47.23 73.22 49.00 71.00 Z"/>
</g>
<g fill="None" fill-opacity="0.0" stroke="#937D52" stroke-opacity="1.00" stroke-width="0.3"><path d="
M 66.00 72.00 
C 67.89 74.11 69.55 72.69 71.00 71.00
C 69.64 72.13 67.70 72.07 66.00 72.00 Z"/>
</g>
<g fill="None" fill-opacity="0.0" stroke="#8D794F" stroke-opacity="1.00" stroke-width="0.3"><path d="
M 51.00 79.00 
C 52.31 78.37 53.33 77.35 54.00 76.00
C 53.87 76.20 51.27 78.84 51.00 79.00 Z"/>
</g>
<g fill="None" fill-opacity="0.0" stroke="#6E6043" stroke-opacity="1.00" stroke-width="0.3"><path d="
M 55.00 79.00 
C 56.35 78.15 57.07 77.35 58.00 76.00
C 57.48 76.62 55.68 78.47 55.00 79.00 Z"/>
</g>
<g fill="None" fill-opacity="0.0" stroke="#756646" stroke-opacity="1.00" stroke-width="0.3"><path d="
M 41.00 88.00 
C 41.00 87.96 42.00 88.00 42.00 88.00
C 42.00 84.67 42.00 81.33 42.00 78.00
C 41.74 80.69 41.00 84.58 41.00 88.00 Z"/>
</g>
<g fill="None" fill-opacity="0.0" stroke="#796847" stroke-opacity="1.00" stroke-width="0.3"><path d="
M 44.00 82.00 
C 44.38 81.13 46.32 80.28 47.00 80.00
C 44.42 80.77 43.90 79.91 44.00 82.00 Z"/>
</g>
<g fill="None" fill-opacity="0.0" stroke="#A08957" stroke-opacity="1.00" stroke-width="0.3"><path d="
M 36.00 93.00 
C 36.00 92.96 37.00 93.00 37.00 93.00
C 37.00 90.67 37.00 88.33 37.00 86.00
C 36.84 87.70 36.05 90.59 36.00 93.00 Z"/>
</g>
<g fill="None" fill-opacity="0.0" stroke="#A08857" stroke-opacity="1.00" stroke-width="0.3"><path d="
M 41.00 96.00 
C 41.25 93.89 42.00 90.83 42.00 88.00
C 42.00 88.00 41.00 87.96 41.00 88.00
C 41.00 90.66 41.05 93.34 41.00 96.00 Z"/>
</g>
<g fill="None" fill-opacity="0.0" stroke="#6D5F43" stroke-opacity="1.00" stroke-width="0.3"><path d="
M 39.00 103.00 
C 35.58 103.00 37.00 95.52 37.00 93.00
C 37.00 93.00 36.00 92.96 36.00 93.00
C 36.00 96.67 36.00 100.33 36.00 104.00
C 37.38 104.52 38.20 103.47 39.00 103.00 Z"/>
</g>
<g fill="None" fill-opacity="0.0" stroke="#463F33" stroke-opacity="0.67" stroke-width="0.3"><path d="
M 13.00 109.00 
C 12.52 108.81 12.32 107.21 12.00 107.00
C 6.46 104.46 3.73 102.02 2.00 96.00
C 2.00 96.00 1.00 96.04 1.00 96.00
C 1.46 102.25 7.16 107.40 13.00 109.00 Z"/>
</g>
<g fill="None" fill-opacity="0.0" stroke="#000000" stroke-opacity="0.00" stroke-width="0.3"><path d="
M 89.00 99.00 
C 81.22 114.02 59.45 112.93 47.00 122.00
L 90.00 122.00
L 90.00 98.00
C 89.67 98.17 89.17 98.67 89.00 99.00 Z"/>
</g>
<g fill="None" fill-opacity="0.0" stroke="#433E33" stroke-opacity="0.73" stroke-width="0.3"><path d="
M 25.00 113.00 
C 31.24 116.18 38.69 118.90 45.00 122.00
L 47.00 122.00
C 59.45 112.93 81.22 114.02 89.00 99.00
C 89.00 99.00 88.25 99.25 88.00 99.00
C 83.53 111.38 67.37 109.05 58.02 116.02 C 48.68 123.00 34.63 117.99 25.00 113.00 Z"/>
</g>
<g fill="None" fill-opacity="0.0" stroke="#5C523D" stroke-opacity="0.91" stroke-width="0.3"><path d="
M 13.00 109.00 
C 13.46 109.13 14.55 108.86 15.00 109.00
C 14.37 108.80 12.92 107.42 12.00 107.00
C 12.32 107.21 12.52 108.81 13.00 109.00 Z"/>
</g>
<g fill="None" fill-opacity="0.0" stroke="#36322D" stroke-opacity="0.64" stroke-width="0.3"><path d="
M 18.00 111.00 
C 17.61 110.85 17.23 109.09 17.00 109.00
C 16.51 108.92 15.45 109.14 15.00 109.00
C 15.75 109.24 16.84 110.81 18.00 111.00 Z"/>
</g>
<g fill="None" fill-opacity="0.0" stroke="#5D523D" stroke-opacity="0.91" stroke-width="0.3"><path d="
M 18.00 111.00 
C 18.49 111.08 19.55 110.86 20.00 111.00
C 19.25 110.76 18.16 109.19 17.00 109.00
C 17.23 109.09 17.61 110.85 18.00 111.00 Z"/>
</g>
<g fill="None" fill-opacity="0.0" stroke="#36332D" stroke-opacity="0.64" stroke-width="0.3"><path d="
M 23.00 113.00 
C 22.62 112.85 22.23 111.09 22.00 111.00
C 21.51 110.92 20.45 111.14 20.00 111.00
C 20.75 111.24 21.84 112.81 23.00 113.00 Z"/>
</g>
<g fill="None" fill-opacity="0.0" stroke="#5D533D" stroke-opacity="0.91" stroke-width="0.3"><path d="
M 23.00 113.00 
C 23.49 113.08 24.60 112.80 25.00 113.00
C 24.15 112.56 23.26 111.21 22.00 111.00
C 22.23 111.09 22.62 112.85 23.00 113.00 Z"/>
</g>
<g fill="#000000" fill-opacity="0.00" stroke="None">
<path d="
M 0.00 122.00 
L 45.00 122.00
C 38.69 118.90 31.24 116.18 25.00 113.00
C 24.60 112.80 23.49 113.08 23.00 113.00
C 21.84 112.81 20.75 111.24 20.00 111.00
C 19.55 110.86 18.49 111.08 18.00 111.00
C 16.84 110.81 15.75 109.24 15.00 109.00
C 14.55 108.86 13.46 109.13 13.00 109.00
C 7.16 107.40 1.46 102.25 1.00 96.00
C -1.84 64.59 3.13 32.47 1.00 1.00
C 30.33 1.00 59.67 1.00 89.00 1.00
C 89.50 1.00 90.00 1.00 90.00 1.00
L 90.00 0.00
L 0.00 0.00
L 0.00 122.00 Z"/>
</g>
<g fill="#322F2C" fill-opacity="0.96" stroke="None">
<path d="
M 1.00 96.00 
C 1.00 96.04 2.00 96.00 2.00 96.00
C 4.81 64.92 -0.11 33.14 2.00 2.00
C 30.67 2.00 59.33 2.00 88.00 2.00
C 88.50 2.00 89.00 2.00 89.00 2.00
C 89.00 1.50 89.00 1.00 89.00 1.00
C 59.67 1.00 30.33 1.00 1.00 1.00
C 3.13 32.47 -1.84 64.59 1.00 96.00 Z"/>
</g>
<g fill="#2F2F29" fill-opacity="0.42" stroke="None">
<path d="
M 89.00 2.00 
C 89.00 12.16 89.66 24.00 89.00 34.00 C 88.34 44.00 90.75 56.62 89.00 66.00 C 87.25 75.38 93.34 90.78 88.00 98.00
C 88.00 98.50 88.00 99.00 88.00 99.00
C 88.25 99.25 89.00 99.00 89.00 99.00
C 89.17 98.67 89.67 98.17 90.00 98.00
L 90.00 1.00
C 90.00 1.00 89.50 1.00 89.00 1.00
C 89.00 1.00 89.00 1.50 89.00 2.00 Z"/>
</g>
<g fill="#D5B36C" fill-opacity="1.00" stroke="None">
<path d="
M 2.00 96.00 
C 3.73 102.02 6.46 104.46 12.00 107.00
C 12.92 107.42 14.37 108.80 15.00 109.00
C 15.45 109.14 16.51 108.92 17.00 109.00
C 18.16 109.19 19.25 110.76 20.00 111.00
C 20.45 111.14 21.51 110.92 22.00 111.00
C 23.26 111.21 24.15 112.56 25.00 113.00
C 34.63 117.99 48.68 123.00 58.02 116.02 C 67.37 109.05 83.53 111.38 88.00 99.00
C 88.00 99.00 88.00 98.50 88.00 98.00
C 88.00 66.44 85.16 33.41 88.00 2.00
C 59.33 2.00 30.67 2.00 2.00 2.00
C -0.11 33.14 4.81 64.92 2.00 96.00
M 15.00 11.00 
C 15.97 11.47 15.87 11.97 16.00 13.00
C 17.34 16.30 16.29 18.97 16.00 22.00
C 16.00 27.66 16.11 33.34 16.00 39.00
C 15.95 41.25 15.06 44.51 15.00 46.00
C 15.08 48.00 14.94 50.00 15.00 52.00
C 20.49 48.80 33.75 55.24 33.00 45.00
C 36.04 40.63 35.22 46.59 35.00 48.00
C 32.95 60.89 18.83 50.40 10.00 55.00
C 10.00 54.00 10.00 53.00 10.00 52.00
C 9.64 49.91 10.82 48.31 11.00 47.00
C 11.20 42.02 11.00 36.99 11.00 32.00
C 11.00 27.86 12.80 18.63 11.00 15.00
C 9.45 12.85 7.73 12.69 5.00 13.00
C 5.84 11.89 7.46 10.96 9.00 11.00
C 11.07 10.36 12.90 9.16 15.00 11.00
M 85.00 31.00 
C 85.78 32.88 85.43 32.28 85.00 34.00
C 84.40 39.87 81.57 47.52 78.69 52.69 C 75.81 57.87 74.78 66.60 71.00 71.00
C 69.55 72.69 67.89 74.11 66.00 72.00
C 63.19 68.85 65.04 60.17 63.02 55.98 C 61.01 51.78 61.24 44.64 60.00 40.00
C 56.95 46.06 55.14 53.32 53.00 60.00
C 55.96 60.39 59.70 62.74 60.00 66.00
C 60.82 68.34 60.60 68.77 60.00 71.00
C 59.74 73.27 59.26 74.15 58.00 76.00
C 57.07 77.35 56.35 78.15 55.00 79.00
C 53.20 80.14 51.21 81.16 49.00 81.00
C 53.12 88.77 58.40 101.16 69.00 101.00
C 56.68 110.13 49.04 90.62 44.00 82.00
C 43.90 79.91 44.42 80.77 47.00 80.00
C 48.18 79.65 49.88 79.54 51.00 79.00
C 51.27 78.84 53.87 76.20 54.00 76.00
C 55.88 72.23 55.96 65.37 52.00 63.00
C 50.39 65.10 49.73 68.29 49.00 71.00
C 47.23 73.22 45.67 73.66 44.00 71.00
C 42.68 68.91 43.68 64.42 43.00 62.00
C 40.75 66.42 42.61 72.82 42.00 78.00
C 42.00 81.33 42.00 84.67 42.00 88.00
C 42.00 90.83 41.25 93.89 41.00 96.00
C 40.93 99.51 41.79 101.37 39.00 103.00
C 38.20 103.47 37.38 104.52 36.00 104.00
C 36.00 100.33 36.00 96.67 36.00 93.00
C 36.05 90.59 36.84 87.70 37.00 86.00
C 37.00 80.64 39.33 68.70 37.00 64.00
C 35.61 61.87 31.58 63.99 30.00 62.00
C 30.49 60.17 32.35 59.82 34.00 60.00
C 35.48 59.82 37.61 60.51 39.00 60.00
C 40.79 59.34 40.77 57.74 41.00 56.00
C 40.61 49.38 37.71 42.79 36.67 36.33 C 35.63 29.87 32.21 33.48 29.00 31.00
C 28.59 31.21 27.56 29.24 30.00 29.00
C 30.18 29.24 31.50 29.00 32.00 29.00
C 32.89 28.77 33.54 28.00 35.00 28.00
C 40.82 27.21 41.68 36.60 42.93 41.07 C 44.18 45.55 45.60 53.95 46.00 59.00
C 53.67 60.27 52.58 51.03 54.98 45.98 C 57.38 40.92 58.24 33.69 61.00 29.00
C 65.80 39.65 66.86 52.26 69.00 64.00
C 69.23 64.42 70.85 64.71 71.00 65.00
C 75.20 61.39 74.77 51.82 77.98 46.98 C 81.18 42.13 82.16 32.08 79.00 27.00
C 81.39 26.91 85.16 27.99 85.00 31.00 Z"/>
</g>
<g fill="#9A8454" fill-opacity="1.00" stroke="None">
<path d="
M 88.00 98.00 
C 93.34 90.78 87.25 75.38 89.00 66.00 C 90.75 56.62 88.34 44.00 89.00 34.00 C 89.66 24.00 89.00 12.16 89.00 2.00
C 89.00 2.00 88.50 2.00 88.00 2.00
C 85.16 33.41 88.00 66.44 88.00 98.00 Z"/>
</g>
<g fill="#8E7950" fill-opacity="1.00" stroke="None">
<path d="
M 9.00 11.00 
C 10.23 10.82 13.91 10.47 15.00 11.00
C 12.90 9.16 11.07 10.36 9.00 11.00 Z"/>
</g>
<g fill="#312F2B" fill-opacity="1.00" stroke="None">
<path d="
M 11.00 15.00 
C 13.93 19.07 11.40 27.84 11.00 32.00
C 11.00 36.99 11.20 42.02 11.00 47.00
C 10.95 48.28 9.97 51.53 10.00 52.00
C 10.00 53.00 10.00 54.00 10.00 55.00
C 18.83 50.40 32.95 60.89 35.00 48.00
C 34.99 46.52 35.36 42.91 33.00 45.00
C 33.75 55.24 20.49 48.80 15.00 52.00
C 14.94 50.00 15.08 48.00 15.00 46.00
C 14.90 43.48 15.83 40.76 16.00 39.00
C 16.11 33.34 16.00 27.66 16.00 22.00
C 16.00 19.08 16.36 15.90 16.00 13.00
C 15.87 11.97 15.97 11.47 15.00 11.00
C 13.91 10.47 10.23 10.82 9.00 11.00
C 7.46 10.96 5.84 11.89 5.00 13.00
C 7.73 12.69 9.45 12.85 11.00 15.00 Z"/>
</g>
<g fill="#A38B58" fill-opacity="1.00" stroke="None">
<path d="
M 16.00 22.00 
C 16.29 18.97 17.34 16.30 16.00 13.00
C 16.36 15.90 16.00 19.08 16.00 22.00 Z"/>
</g>
<g fill="#5E533D" fill-opacity="1.00" stroke="None">
<path d="
M 11.00 32.00 
C 11.40 27.84 13.93 19.07 11.00 15.00
C 12.80 18.63 11.00 27.86 11.00 32.00 Z"/>
</g>
<g fill="#322F2C" fill-opacity="1.00" stroke="None">
<path d="
M 71.00 65.00 
C 71.52 66.01 69.55 65.28 69.00 64.00
C 66.86 52.26 65.80 39.65 61.00 29.00
C 58.24 33.69 57.38 40.92 54.98 45.98 C 52.58 51.03 53.67 60.27 46.00 59.00
C 45.60 53.95 44.18 45.55 42.93 41.07 C 41.68 36.60 40.82 27.21 35.00 28.00
C 34.37 28.08 33.24 28.99 32.00 29.00
C 31.50 29.00 30.18 29.24 30.00 29.00
C 29.98 28.97 28.94 31.03 29.00 31.00
C 32.21 33.48 35.63 29.87 36.67 36.33 C 37.71 42.79 40.61 49.38 41.00 56.00
C 41.04 56.63 42.95 58.68 42.00 60.00
C 41.00 60.00 40.00 60.00 39.00 60.00
C 37.61 60.51 35.48 59.82 34.00 60.00
C 33.45 60.11 31.37 61.30 31.00 62.00
C 33.08 62.08 36.28 61.31 37.00 64.00
C 39.33 68.70 37.00 80.64 37.00 86.00
C 37.00 88.33 37.00 90.67 37.00 93.00
C 37.00 95.52 35.58 103.00 39.00 103.00
C 41.79 101.37 40.93 99.51 41.00 96.00
C 41.05 93.34 41.00 90.66 41.00 88.00
C 41.00 84.58 41.74 80.69 42.00 78.00
C 42.61 72.82 40.75 66.42 43.00 62.00
C 43.68 64.42 42.68 68.91 44.00 71.00
C 45.28 72.37 47.69 72.12 49.00 71.00
C 49.73 68.29 50.39 65.10 52.00 63.00
C 55.96 65.37 55.88 72.23 54.00 76.00
C 53.33 77.35 52.31 78.37 51.00 79.00
C 49.88 79.54 48.18 79.65 47.00 80.00
C 46.32 80.28 44.38 81.13 44.00 82.00
C 49.04 90.62 56.68 110.13 69.00 101.00
C 58.40 101.16 53.12 88.77 49.00 81.00
C 51.21 81.16 53.20 80.14 55.00 79.00
C 55.68 78.47 57.48 76.62 58.00 76.00
C 59.26 74.15 59.74 73.27 60.00 71.00
C 60.16 69.54 60.25 67.45 60.00 66.00
C 59.70 62.74 55.96 60.39 53.00 60.00
C 55.14 53.32 56.95 46.06 60.00 40.00
C 61.24 44.64 61.01 51.78 63.02 55.98 C 65.04 60.17 63.19 68.85 66.00 72.00
C 67.70 72.07 69.64 72.13 71.00 71.00
C 74.78 66.60 75.81 57.87 78.69 52.69 C 81.57 47.52 84.40 39.87 85.00 34.00
C 85.09 33.11 85.12 31.88 85.00 31.00
C 85.16 27.99 81.39 26.91 79.00 27.00
C 82.16 32.08 81.18 42.13 77.98 46.98 C 74.77 51.82 75.20 61.39 71.00 65.00
M 49.00 65.00 
C 50.19 67.29 44.99 64.50 47.00 64.00
C 46.13 61.50 48.26 60.45 50.00 62.00
C 49.43 62.94 48.85 63.82 49.00 65.00 Z"/>
</g>
<g fill="#655940" fill-opacity="1.00" stroke="None">
<path d="
M 32.00 29.00 
C 33.24 28.99 34.37 28.08 35.00 28.00
C 33.54 28.00 32.89 28.77 32.00 29.00 Z"/>
</g>
<g fill="#6D5F43" fill-opacity="1.00" stroke="None">
<path d="
M 29.00 31.00 
C 28.94 31.03 29.98 28.97 30.00 29.00
C 27.56 29.24 28.59 31.21 29.00 31.00 Z"/>
</g>
<g fill="#988153" fill-opacity="1.00" stroke="None">
<path d="
M 85.00 34.00 
C 85.43 32.28 85.78 32.88 85.00 31.00
C 85.12 31.88 85.09 33.11 85.00 34.00 Z"/>
</g>
<g fill="#7F6E4A" fill-opacity="1.00" stroke="None">
<path d="
M 15.00 46.00 
C 15.06 44.51 15.95 41.25 16.00 39.00
C 15.83 40.76 14.90 43.48 15.00 46.00 Z"/>
</g>
<g fill="#A48C58" fill-opacity="1.00" stroke="None">
<path d="
M 33.00 45.00 
C 35.36 42.91 34.99 46.52 35.00 48.00
C 35.22 46.59 36.04 40.63 33.00 45.00 Z"/>
</g>
<g fill="#6A5C42" fill-opacity="1.00" stroke="None">
<path d="
M 10.00 52.00 
C 9.97 51.53 10.95 48.28 11.00 47.00
C 10.82 48.31 9.64 49.91 10.00 52.00 Z"/>
</g>
<g fill="#786847" fill-opacity="1.00" stroke="None">
<path d="
M 39.00 60.00 
C 40.00 60.00 41.00 60.00 42.00 60.00
C 42.95 58.68 41.04 56.63 41.00 56.00
C 40.77 57.74 40.79 59.34 39.00 60.00 Z"/>
</g>
<g fill="#927D51" fill-opacity="1.00" stroke="None">
<path d="
M 37.00 64.00 
C 36.28 61.31 33.08 62.08 31.00 62.00
C 31.37 61.30 33.45 60.11 34.00 60.00
C 32.35 59.82 30.49 60.17 30.00 62.00
C 31.58 63.99 35.61 61.87 37.00 64.00 Z"/>
</g>
<g fill="#9F8857" fill-opacity="1.00" stroke="None">
<path d="
M 47.00 64.00 
C 47.03 63.99 49.03 65.06 49.00 65.00
C 48.85 63.82 49.43 62.94 50.00 62.00
C 48.26 60.45 46.13 61.50 47.00 64.00 Z"/>
</g>
<g fill="#60553E" fill-opacity="1.00" stroke="None">
<path d="
M 49.00 65.00 
C 49.03 65.06 47.03 63.99 47.00 64.00
C 44.99 64.50 50.19 67.29 49.00 65.00 Z"/>
</g>
<g fill="#695C41" fill-opacity="1.00" stroke="None">
<path d="
M 71.00 65.00 
C 70.85 64.71 69.23 64.42 69.00 64.00
C 69.55 65.28 71.52 66.01 71.00 65.00 Z"/>
</g>
<g fill="#937E52" fill-opacity="1.00" stroke="None">
<path d="
M 60.00 71.00 
C 60.60 68.77 60.82 68.34 60.00 66.00
C 60.25 67.45 60.16 69.54 60.00 71.00 Z"/>
</g>
<g fill="#7E6D4A" fill-opacity="1.00" stroke="None">
<path d="
M 49.00 71.00 
C 47.69 72.12 45.28 72.37 44.00 71.00
C 45.67 73.66 47.23 73.22 49.00 71.00 Z"/>
</g>
<g fill="#937D52" fill-opacity="1.00" stroke="None">
<path d="
M 66.00 72.00 
C 67.89 74.11 69.55 72.69 71.00 71.00
C 69.64 72.13 67.70 72.07 66.00 72.00 Z"/>
</g>
<g fill="#8D794F" fill-opacity="1.00" stroke="None">
<path d="
M 51.00 79.00 
C 52.31 78.37 53.33 77.35 54.00 76.00
C 53.87 76.20 51.27 78.84 51.00 79.00 Z"/>
</g>
<g fill="#6E6043" fill-opacity="1.00" stroke="None">
<path d="
M 55.00 79.00 
C 56.35 78.15 57.07 77.35 58.00 76.00
C 57.48 76.62 55.68 78.47 55.00 79.00 Z"/>
</g>
<g fill="#756646" fill-opacity="1.00" stroke="None">
<path d="
M 41.00 88.00 
C 41.00 87.96 42.00 88.00 42.00 88.00
C 42.00 84.67 42.00 81.33 42.00 78.00
C 41.74 80.69 41.00 84.58 41.00 88.00 Z"/>
</g>
<g fill="#796847" fill-opacity="1.00" stroke="None">
<path d="
M 44.00 82.00 
C 44.38 81.13 46.32 80.28 47.00 80.00
C 44.42 80.77 43.90 79.91 44.00 82.00 Z"/>
</g>
<g fill="#A08957" fill-opacity="1.00" stroke="None">
<path d="
M 36.00 93.00 
C 36.00 92.96 37.00 93.00 37.00 93.00
C 37.00 90.67 37.00 88.33 37.00 86.00
C 36.84 87.70 36.05 90.59 36.00 93.00 Z"/>
</g>
<g fill="#A08857" fill-opacity="1.00" stroke="None">
<path d="
M 41.00 96.00 
C 41.25 93.89 42.00 90.83 42.00 88.00
C 42.00 88.00 41.00 87.96 41.00 88.00
C 41.00 90.66 41.05 93.34 41.00 96.00 Z"/>
</g>
<g fill="#6D5F43" fill-opacity="1.00" stroke="None">
<path d="
M 39.00 103.00 
C 35.58 103.00 37.00 95.52 37.00 93.00
C 37.00 93.00 36.00 92.96 36.00 93.00
C 36.00 96.67 36.00 100.33 36.00 104.00
C 37.38 104.52 38.20 103.47 39.00 103.00 Z"/>
</g>
<g fill="#463F33" fill-opacity="0.67" stroke="None">
<path d="
M 13.00 109.00 
C 12.52 108.81 12.32 107.21 12.00 107.00
C 6.46 104.46 3.73 102.02 2.00 96.00
C 2.00 96.00 1.00 96.04 1.00 96.00
C 1.46 102.25 7.16 107.40 13.00 109.00 Z"/>
</g>
<g fill="#000000" fill-opacity="0.00" stroke="None">
<path d="
M 89.00 99.00 
C 81.22 114.02 59.45 112.93 47.00 122.00
L 90.00 122.00
L 90.00 98.00
C 89.67 98.17 89.17 98.67 89.00 99.00 Z"/>
</g>
<g fill="#433E33" fill-opacity="0.73" stroke="None">
<path d="
M 25.00 113.00 
C 31.24 116.18 38.69 118.90 45.00 122.00
L 47.00 122.00
C 59.45 112.93 81.22 114.02 89.00 99.00
C 89.00 99.00 88.25 99.25 88.00 99.00
C 83.53 111.38 67.37 109.05 58.02 116.02 C 48.68 123.00 34.63 117.99 25.00 113.00 Z"/>
</g>
<g fill="#5C523D" fill-opacity="0.91" stroke="None">
<path d="
M 13.00 109.00 
C 13.46 109.13 14.55 108.86 15.00 109.00
C 14.37 108.80 12.92 107.42 12.00 107.00
C 12.32 107.21 12.52 108.81 13.00 109.00 Z"/>
</g>
<g fill="#36322D" fill-opacity="0.64" stroke="None">
<path d="
M 18.00 111.00 
C 17.61 110.85 17.23 109.09 17.00 109.00
C 16.51 108.92 15.45 109.14 15.00 109.00
C 15.75 109.24 16.84 110.81 18.00 111.00 Z"/>
</g>
<g fill="#5D523D" fill-opacity="0.91" stroke="None">
<path d="
M 18.00 111.00 
C 18.49 111.08 19.55 110.86 20.00 111.00
C 19.25 110.76 18.16 109.19 17.00 109.00
C 17.23 109.09 17.61 110.85 18.00 111.00 Z"/>
</g>
<g fill="#36332D" fill-opacity="0.64" stroke="None">
<path d="
M 23.00 113.00 
C 22.62 112.85 22.23 111.09 22.00 111.00
C 21.51 110.92 20.45 111.14 20.00 111.00
C 20.75 111.24 21.84 112.81 23.00 113.00 Z"/>
</g>
<g fill="#5D533D" fill-opacity="0.91" stroke="None">
<path d="
M 23.00 113.00 
C 23.49 113.08 24.60 112.80 25.00 113.00
C 24.15 112.56 23.26 111.21 22.00 111.00
C 22.23 111.09 22.62 112.85 23.00 113.00 Z"/>
</g>
</svg>