<svg xmlns="http://www.w3.org/2000/svg" xmlns:v="https://svgstorm.com"
viewBox = "0 0 89 122"
width="89"
height="122">
<g fill="None" fill-opacity="0.0" stroke="#292525" stroke-opacity="0.27" stroke-width="0.3"><path d="
M 0.00 1.00 
C 0.50 1.00 1.00 1.00 1.00 1.00
C 30.00 1.00 59.00 1.00 88.00 1.00
C 88.50 1.00 89.00 1.00 89.00 1.00
L 89.00 0.00
L 0.00 0.00
L 0.00 1.00 Z"/>
</g>
<g fill="None" fill-opacity="0.0" stroke="#3A2E33" stroke-opacity="0.69" stroke-width="0.3"><path d="
M 0.00 42.00 
C 0.50 42.00 1.00 42.00 1.00 42.00
C 1.00 28.67 1.00 15.33 1.00 2.00
C 1.00 1.50 1.00 1.00 1.00 1.00
C 1.00 1.00 0.50 1.00 0.00 1.00
L 0.00 42.00 Z"/>
</g>
<g fill="None" fill-opacity="0.0" stroke="#683854" stroke-opacity="0.95" stroke-width="0.3"><path d="
M 1.00 2.00 
C 30.00 2.00 59.00 2.00 88.00 2.00
C 88.00 1.50 88.00 1.00 88.00 1.00
C 59.00 1.00 30.00 1.00 1.00 1.00
C 1.00 1.00 1.00 1.50 1.00 2.00 Z"/>
</g>
<g fill="None" fill-opacity="0.0" stroke="#352D30" stroke-opacity="0.88" stroke-width="0.3"><path d="
M 88.00 2.00 
C 88.67 33.17 86.67 65.65 89.00 96.00
L 89.00 1.00
C 89.00 1.00 88.50 1.00 88.00 1.00
C 88.00 1.00 88.00 1.50 88.00 2.00 Z"/>
</g>
<g fill="None" fill-opacity="0.0" stroke="#AE4B84" stroke-opacity="1.00" stroke-width="0.3"><path d="
M 1.00 42.00 
C 1.00 60.00 1.00 78.00 1.00 96.00
C 7.35 111.32 28.51 111.89 42.00 119.00
C 42.94 119.57 43.82 120.15 45.00 120.00
C 59.58 112.88 79.63 111.65 89.00 97.00
L 89.00 96.00
C 86.67 65.65 88.67 33.17 88.00 2.00
C 59.00 2.00 30.00 2.00 1.00 2.00
C 1.00 15.33 1.00 28.67 1.00 42.00
M 66.00 65.00 
C 65.78 63.36 64.76 65.27 64.00 65.00
C 60.29 66.17 52.58 67.80 52.00 62.00
C 51.99 61.92 51.00 62.00 51.00 62.00
C 51.00 67.67 51.00 73.33 51.00 79.00
C 50.37 82.83 52.28 87.99 50.00 91.00
C 49.81 95.34 51.78 102.91 45.00 102.00
C 45.00 93.33 45.00 84.67 45.00 76.00
C 45.00 69.33 45.00 62.67 45.00 56.00
C 37.88 51.41 35.70 62.18 34.00 67.00
C 27.33 54.26 23.76 38.92 19.00 25.00
C 16.66 31.85 19.05 40.74 17.00 48.00 C 15.97 54.37 19.23 68.02 9.00 66.00
C 14.69 53.73 14.86 39.78 15.00 26.00 C 17.86 18.61 9.94 20.19 8.00 17.00
C 19.12 11.13 24.47 19.77 26.31 29.69 C 29.59 38.01 31.52 47.44 36.00 55.00
C 42.99 42.12 45.76 24.83 56.03 15.03 C 61.27 22.46 55.35 33.12 57.00 42.00 C 52.77 54.68 68.70 48.41 71.77 57.23 C 74.07 65.85 68.82 75.06 60.00 76.00
C 63.43 85.47 71.09 99.77 82.00 99.00
C 67.28 109.46 58.87 85.84 53.00 76.00
C 58.58 74.82 67.09 72.71 66.00 65.00 Z"/>
</g>
<g fill="None" fill-opacity="0.0" stroke="#FAF5F8" stroke-opacity="1.00" stroke-width="0.3"><path d="
M 45.00 56.00 
C 46.63 61.59 46.69 70.48 45.00 76.00
C 45.00 84.67 45.00 93.33 45.00 102.00
C 51.78 102.91 49.81 95.34 50.00 91.00
C 50.63 87.17 48.72 82.01 51.00 79.00
C 51.00 73.33 51.00 67.67 51.00 62.00
C 51.00 59.33 51.00 56.67 51.00 54.00
C 53.03 55.77 51.53 59.48 52.00 62.00
C 52.58 67.80 60.29 66.17 64.00 65.00
C 64.28 64.33 65.48 63.22 64.00 63.00
C 57.56 64.87 56.20 57.78 57.00 53.00
C 61.72 53.06 67.03 56.57 66.00 62.00
C 67.28 62.22 67.42 64.81 66.00 65.00
C 67.09 72.71 58.58 74.82 53.00 76.00
C 58.87 85.84 67.28 109.46 82.00 99.00
C 71.09 99.77 63.43 85.47 60.00 76.00
C 68.82 75.06 74.07 65.85 71.77 57.23 C 68.70 48.41 52.77 54.68 57.00 42.00 C 55.35 33.12 61.27 22.46 56.03 15.03 C 45.76 24.83 42.99 42.12 36.00 55.00
C 31.52 47.44 29.59 38.01 26.31 29.69 C 24.47 19.77 19.12 11.13 8.00 17.00
C 9.94 20.19 17.86 18.61 15.00 26.00 C 14.86 39.78 14.69 53.73 9.00 66.00
C 19.23 68.02 15.97 54.37 17.00 48.00 C 19.05 40.74 16.66 31.85 19.00 25.00
C 23.76 38.92 27.33 54.26 34.00 67.00
C 35.70 62.18 37.88 51.41 45.00 56.00
M 52.00 27.00 
C 52.00 31.67 52.00 36.33 52.00 41.00
C 51.39 44.17 53.25 48.65 51.00 51.00
C 47.27 50.99 43.92 52.66 40.00 52.00
C 43.59 43.28 47.96 34.90 51.00 26.00
C 51.41 25.17 51.97 24.13 53.00 24.00
C 52.89 25.00 53.47 26.73 52.00 27.00 Z"/>
</g>
<g fill="None" fill-opacity="0.0" stroke="#E5C6D8" stroke-opacity="1.00" stroke-width="0.3"><path d="
M 51.00 26.00 
C 51.05 25.94 51.95 26.65 52.00 27.00
C 53.47 26.73 52.89 25.00 53.00 24.00
C 51.97 24.13 51.41 25.17 51.00 26.00 Z"/>
</g>
<g fill="None" fill-opacity="0.0" stroke="#B15289" stroke-opacity="1.00" stroke-width="0.3"><path d="
M 51.00 51.00 
C 51.61 47.83 49.75 43.35 52.00 41.00
C 52.00 36.33 52.00 31.67 52.00 27.00
C 51.95 26.65 51.05 25.94 51.00 26.00
C 47.96 34.90 43.59 43.28 40.00 52.00
C 43.92 52.66 47.27 50.99 51.00 51.00 Z"/>
</g>
<g fill="None" fill-opacity="0.0" stroke="#D39DBC" stroke-opacity="1.00" stroke-width="0.3"><path d="
M 51.00 51.00 
C 53.25 48.65 51.39 44.17 52.00 41.00
C 49.75 43.35 51.61 47.83 51.00 51.00 Z"/>
</g>
<g fill="None" fill-opacity="0.0" stroke="#382D32" stroke-opacity="0.56" stroke-width="0.3"><path d="
M 0.00 96.00 
C 0.50 96.00 1.00 96.00 1.00 96.00
C 1.00 78.00 1.00 60.00 1.00 42.00
C 1.00 42.00 0.50 42.00 0.00 42.00
L 0.00 96.00 Z"/>
</g>
<g fill="None" fill-opacity="0.0" stroke="#B3568C" stroke-opacity="1.00" stroke-width="0.3"><path d="
M 64.00 63.00 
C 64.13 61.22 65.90 63.98 66.00 62.00
C 67.03 56.57 61.72 53.06 57.00 53.00
C 56.20 57.78 57.56 64.87 64.00 63.00 Z"/>
</g>
<g fill="None" fill-opacity="0.0" stroke="#DAADC7" stroke-opacity="1.00" stroke-width="0.3"><path d="
M 51.00 62.00 
C 51.00 62.00 51.99 61.92 52.00 62.00
C 51.53 59.48 53.03 55.77 51.00 54.00
C 51.00 56.67 51.00 59.33 51.00 62.00 Z"/>
</g>
<g fill="None" fill-opacity="0.0" stroke="#D8A9C4" stroke-opacity="1.00" stroke-width="0.3"><path d="
M 45.00 76.00 
C 46.69 70.48 46.63 61.59 45.00 56.00
C 45.00 62.67 45.00 69.33 45.00 76.00 Z"/>
</g>
<g fill="None" fill-opacity="0.0" stroke="#DCB2CB" stroke-opacity="1.00" stroke-width="0.3"><path d="
M 64.00 63.00 
C 65.48 63.22 64.28 64.33 64.00 65.00
C 64.76 65.27 65.78 63.36 66.00 65.00
C 67.42 64.81 67.28 62.22 66.00 62.00
C 65.90 63.98 64.13 61.22 64.00 63.00 Z"/>
</g>
<g fill="None" fill-opacity="0.0" stroke="#D7A6C2" stroke-opacity="1.00" stroke-width="0.3"><path d="
M 50.00 91.00 
C 52.28 87.99 50.37 82.83 51.00 79.00
C 48.72 82.01 50.63 87.17 50.00 91.00 Z"/>
</g>
<g fill="None" fill-opacity="0.0" stroke="#000000" stroke-opacity="0.08" stroke-width="0.3"><path d="
M 0.00 122.00 
L 89.00 122.00
L 89.00 97.00
C 79.63 111.65 59.58 112.88 45.00 120.00
C 44.52 121.88 42.08 120.25 42.00 119.00
C 28.51 111.89 7.35 111.32 1.00 96.00
C 1.00 96.00 0.50 96.00 0.00 96.00
L 0.00 122.00 Z"/>
</g>
<g fill="None" fill-opacity="0.0" stroke="#583548" stroke-opacity="0.88" stroke-width="0.3"><path d="
M 45.00 120.00 
C 43.82 120.15 42.94 119.57 42.00 119.00
C 42.08 120.25 44.52 121.88 45.00 120.00 Z"/>
</g>
<g fill="#292525" fill-opacity="0.27" stroke="None">
<path d="
M 0.00 1.00 
C 0.50 1.00 1.00 1.00 1.00 1.00
C 30.00 1.00 59.00 1.00 88.00 1.00
C 88.50 1.00 89.00 1.00 89.00 1.00
L 89.00 0.00
L 0.00 0.00
L 0.00 1.00 Z"/>
</g>
<g fill="#3A2E33" fill-opacity="0.69" stroke="None">
<path d="
M 0.00 42.00 
C 0.50 42.00 1.00 42.00 1.00 42.00
C 1.00 28.67 1.00 15.33 1.00 2.00
C 1.00 1.50 1.00 1.00 1.00 1.00
C 1.00 1.00 0.50 1.00 0.00 1.00
L 0.00 42.00 Z"/>
</g>
<g fill="#683854" fill-opacity="0.95" stroke="None">
<path d="
M 1.00 2.00 
C 30.00 2.00 59.00 2.00 88.00 2.00
C 88.00 1.50 88.00 1.00 88.00 1.00
C 59.00 1.00 30.00 1.00 1.00 1.00
C 1.00 1.00 1.00 1.50 1.00 2.00 Z"/>
</g>
<g fill="#352D30" fill-opacity="0.88" stroke="None">
<path d="
M 88.00 2.00 
C 88.67 33.17 86.67 65.65 89.00 96.00
L 89.00 1.00
C 89.00 1.00 88.50 1.00 88.00 1.00
C 88.00 1.00 88.00 1.50 88.00 2.00 Z"/>
</g>
<g fill="#AE4B84" fill-opacity="1.00" stroke="None">
<path d="
M 1.00 42.00 
C 1.00 60.00 1.00 78.00 1.00 96.00
C 7.35 111.32 28.51 111.89 42.00 119.00
C 42.94 119.57 43.82 120.15 45.00 120.00
C 59.58 112.88 79.63 111.65 89.00 97.00
L 89.00 96.00
C 86.67 65.65 88.67 33.17 88.00 2.00
C 59.00 2.00 30.00 2.00 1.00 2.00
C 1.00 15.33 1.00 28.67 1.00 42.00
M 66.00 65.00 
C 65.78 63.36 64.76 65.27 64.00 65.00
C 60.29 66.17 52.58 67.80 52.00 62.00
C 51.99 61.92 51.00 62.00 51.00 62.00
C 51.00 67.67 51.00 73.33 51.00 79.00
C 50.37 82.83 52.28 87.99 50.00 91.00
C 49.81 95.34 51.78 102.91 45.00 102.00
C 45.00 93.33 45.00 84.67 45.00 76.00
C 45.00 69.33 45.00 62.67 45.00 56.00
C 37.88 51.41 35.70 62.18 34.00 67.00
C 27.33 54.26 23.76 38.92 19.00 25.00
C 16.66 31.85 19.05 40.74 17.00 48.00 C 15.97 54.37 19.23 68.02 9.00 66.00
C 14.69 53.73 14.86 39.78 15.00 26.00 C 17.86 18.61 9.94 20.19 8.00 17.00
C 19.12 11.13 24.47 19.77 26.31 29.69 C 29.59 38.01 31.52 47.44 36.00 55.00
C 42.99 42.12 45.76 24.83 56.03 15.03 C 61.27 22.46 55.35 33.12 57.00 42.00 C 52.77 54.68 68.70 48.41 71.77 57.23 C 74.07 65.85 68.82 75.06 60.00 76.00
C 63.43 85.47 71.09 99.77 82.00 99.00
C 67.28 109.46 58.87 85.84 53.00 76.00
C 58.58 74.82 67.09 72.71 66.00 65.00 Z"/>
</g>
<g fill="#FAF5F8" fill-opacity="1.00" stroke="None">
<path d="
M 45.00 56.00 
C 46.63 61.59 46.69 70.48 45.00 76.00
C 45.00 84.67 45.00 93.33 45.00 102.00
C 51.78 102.91 49.81 95.34 50.00 91.00
C 50.63 87.17 48.72 82.01 51.00 79.00
C 51.00 73.33 51.00 67.67 51.00 62.00
C 51.00 59.33 51.00 56.67 51.00 54.00
C 53.03 55.77 51.53 59.48 52.00 62.00
C 52.58 67.80 60.29 66.17 64.00 65.00
C 64.28 64.33 65.48 63.22 64.00 63.00
C 57.56 64.87 56.20 57.78 57.00 53.00
C 61.72 53.06 67.03 56.57 66.00 62.00
C 67.28 62.22 67.42 64.81 66.00 65.00
C 67.09 72.71 58.58 74.82 53.00 76.00
C 58.87 85.84 67.28 109.46 82.00 99.00
C 71.09 99.77 63.43 85.47 60.00 76.00
C 68.82 75.06 74.07 65.85 71.77 57.23 C 68.70 48.41 52.77 54.68 57.00 42.00 C 55.35 33.12 61.27 22.46 56.03 15.03 C 45.76 24.83 42.99 42.12 36.00 55.00
C 31.52 47.44 29.59 38.01 26.31 29.69 C 24.47 19.77 19.12 11.13 8.00 17.00
C 9.94 20.19 17.86 18.61 15.00 26.00 C 14.86 39.78 14.69 53.73 9.00 66.00
C 19.23 68.02 15.97 54.37 17.00 48.00 C 19.05 40.74 16.66 31.85 19.00 25.00
C 23.76 38.92 27.33 54.26 34.00 67.00
C 35.70 62.18 37.88 51.41 45.00 56.00
M 52.00 27.00 
C 52.00 31.67 52.00 36.33 52.00 41.00
C 51.39 44.17 53.25 48.65 51.00 51.00
C 47.27 50.99 43.92 52.66 40.00 52.00
C 43.59 43.28 47.96 34.90 51.00 26.00
C 51.41 25.17 51.97 24.13 53.00 24.00
C 52.89 25.00 53.47 26.73 52.00 27.00 Z"/>
</g>
<g fill="#E5C6D8" fill-opacity="1.00" stroke="None">
<path d="
M 51.00 26.00 
C 51.05 25.94 51.95 26.65 52.00 27.00
C 53.47 26.73 52.89 25.00 53.00 24.00
C 51.97 24.13 51.41 25.17 51.00 26.00 Z"/>
</g>
<g fill="#B15289" fill-opacity="1.00" stroke="None">
<path d="
M 51.00 51.00 
C 51.61 47.83 49.75 43.35 52.00 41.00
C 52.00 36.33 52.00 31.67 52.00 27.00
C 51.95 26.65 51.05 25.94 51.00 26.00
C 47.96 34.90 43.59 43.28 40.00 52.00
C 43.92 52.66 47.27 50.99 51.00 51.00 Z"/>
</g>
<g fill="#D39DBC" fill-opacity="1.00" stroke="None">
<path d="
M 51.00 51.00 
C 53.25 48.65 51.39 44.17 52.00 41.00
C 49.75 43.35 51.61 47.83 51.00 51.00 Z"/>
</g>
<g fill="#382D32" fill-opacity="0.56" stroke="None">
<path d="
M 0.00 96.00 
C 0.50 96.00 1.00 96.00 1.00 96.00
C 1.00 78.00 1.00 60.00 1.00 42.00
C 1.00 42.00 0.50 42.00 0.00 42.00
L 0.00 96.00 Z"/>
</g>
<g fill="#B3568C" fill-opacity="1.00" stroke="None">
<path d="
M 64.00 63.00 
C 64.13 61.22 65.90 63.98 66.00 62.00
C 67.03 56.57 61.72 53.06 57.00 53.00
C 56.20 57.78 57.56 64.87 64.00 63.00 Z"/>
</g>
<g fill="#DAADC7" fill-opacity="1.00" stroke="None">
<path d="
M 51.00 62.00 
C 51.00 62.00 51.99 61.92 52.00 62.00
C 51.53 59.48 53.03 55.77 51.00 54.00
C 51.00 56.67 51.00 59.33 51.00 62.00 Z"/>
</g>
<g fill="#D8A9C4" fill-opacity="1.00" stroke="None">
<path d="
M 45.00 76.00 
C 46.69 70.48 46.63 61.59 45.00 56.00
C 45.00 62.67 45.00 69.33 45.00 76.00 Z"/>
</g>
<g fill="#DCB2CB" fill-opacity="1.00" stroke="None">
<path d="
M 64.00 63.00 
C 65.48 63.22 64.28 64.33 64.00 65.00
C 64.76 65.27 65.78 63.36 66.00 65.00
C 67.42 64.81 67.28 62.22 66.00 62.00
C 65.90 63.98 64.13 61.22 64.00 63.00 Z"/>
</g>
<g fill="#D7A6C2" fill-opacity="1.00" stroke="None">
<path d="
M 50.00 91.00 
C 52.28 87.99 50.37 82.83 51.00 79.00
C 48.72 82.01 50.63 87.17 50.00 91.00 Z"/>
</g>
<g fill="#000000" fill-opacity="0.08" stroke="None">
<path d="
M 0.00 122.00 
L 89.00 122.00
L 89.00 97.00
C 79.63 111.65 59.58 112.88 45.00 120.00
C 44.52 121.88 42.08 120.25 42.00 119.00
C 28.51 111.89 7.35 111.32 1.00 96.00
C 1.00 96.00 0.50 96.00 0.00 96.00
L 0.00 122.00 Z"/>
</g>
<g fill="#583548" fill-opacity="0.88" stroke="None">
<path d="
M 45.00 120.00 
C 43.82 120.15 42.94 119.57 42.00 119.00
C 42.08 120.25 44.52 121.88 45.00 120.00 Z"/>
</g>
</svg>