<svg xmlns="http://www.w3.org/2000/svg" xmlns:v="https://svgstorm.com"
viewBox = "0 0 89 121"
width="89"
height="121">
<g fill="None" fill-opacity="0.0" stroke="#393C28" stroke-opacity="0.73" stroke-width="0.3"><path d="
M 0.00 40.00 
C 0.50 40.00 1.00 40.00 1.00 40.00
C 1.00 27.00 1.00 14.00 1.00 1.00
C 1.00 0.50 1.00 0.00 1.00 0.00
L 0.00 0.00
L 0.00 40.00 Z"/>
</g>
<g fill="None" fill-opacity="0.0" stroke="#2E2E29" stroke-opacity="0.98" stroke-width="0.3"><path d="
M 1.00 1.00 
C 1.25 1.25 2.00 1.00 2.00 1.00
C 30.27 1.00 59.86 3.54 88.00 1.00
C 88.00 0.50 88.00 0.00 88.00 0.00
L 1.00 0.00
C 1.00 0.00 1.00 0.50 1.00 1.00 Z"/>
</g>
<g fill="None" fill-opacity="0.0" stroke="#373828" stroke-opacity="0.84" stroke-width="0.3"><path d="
M 88.00 1.00 
C 88.00 32.56 85.16 65.59 88.00 97.00
C 88.12 96.78 89.00 97.00 89.00 97.00
L 89.00 0.00
L 88.00 0.00
C 88.00 0.00 88.00 0.50 88.00 1.00 Z"/>
</g>
<g fill="None" fill-opacity="0.0" stroke="#95AA20" stroke-opacity="1.00" stroke-width="0.3"><path d="
M 1.00 40.00 
C 1.00 57.71 -1.52 77.50 1.00 95.00
C 1.26 95.12 1.94 95.76 2.00 96.00
C -1.87 64.82 4.83 32.31 2.00 1.00
C 2.00 1.00 1.25 1.25 1.00 1.00
C 1.00 14.00 1.00 27.00 1.00 40.00 Z"/>
</g>
<g fill="None" fill-opacity="0.0" stroke="#AEC91F" stroke-opacity="1.00" stroke-width="0.3"><path d="
M 2.00 96.00 
C 5.71 109.74 18.56 106.79 29.22 113.78 C 39.89 120.76 50.02 118.79 61.23 113.23 C 72.44 107.67 81.90 107.62 88.00 97.00
C 85.16 65.59 88.00 32.56 88.00 1.00
C 59.86 3.54 30.27 1.00 2.00 1.00
C 4.83 32.31 -1.87 64.82 2.00 96.00
M 37.00 29.00 
C 38.13 18.61 19.75 12.99 17.08 25.08 C 14.40 37.17 27.82 38.69 35.08 44.92 C 42.34 51.14 40.55 64.19 30.77 68.77 C 20.99 73.35 3.92 70.87 11.00 56.00
C 12.85 61.42 16.12 68.38 24.00 68.00 C 31.88 67.62 36.70 59.41 33.07 52.93 C 29.44 46.45 23.77 46.91 18.30 42.70 C 12.84 38.49 9.62 30.90 13.31 24.31 C 16.99 17.71 21.79 16.14 29.02 15.02 C 36.26 13.91 43.63 24.25 37.00 29.00
M 69.00 49.00 
C 67.18 48.22 62.81 47.18 61.00 47.00
C 56.46 47.00 54.36 47.33 49.93 47.93 C 45.49 48.52 47.40 54.20 45.00 56.00
C 41.39 58.70 43.83 51.99 44.00 51.00
C 46.40 36.92 68.07 47.07 79.00 44.00
C 69.48 61.06 57.27 77.22 49.00 95.00
C 57.81 90.85 77.61 100.43 77.00 85.00
C 83.49 91.63 74.89 100.78 66.33 97.67 C 57.77 94.56 48.47 98.08 40.00 98.00
C 48.75 81.33 60.27 65.86 69.00 49.00 Z"/>
</g>
<g fill="None" fill-opacity="0.0" stroke="#313129" stroke-opacity="1.00" stroke-width="0.3"><path d="
M 37.00 29.00 
C 43.63 24.25 36.26 13.91 29.02 15.02 C 21.79 16.14 16.99 17.71 13.31 24.31 C 9.62 30.90 12.84 38.49 18.30 42.70 C 23.77 46.91 29.44 46.45 33.07 52.93 C 36.70 59.41 31.88 67.62 24.00 68.00 C 16.12 68.38 12.85 61.42 11.00 56.00
C 3.92 70.87 20.99 73.35 30.77 68.77 C 40.55 64.19 42.34 51.14 35.08 44.92 C 27.82 38.69 14.40 37.17 17.08 25.08 C 19.75 12.99 38.13 18.61 37.00 29.00 Z"/>
</g>
<g fill="None" fill-opacity="0.0" stroke="#393B28" stroke-opacity="0.61" stroke-width="0.3"><path d="
M 0.00 95.00 
C 0.50 95.00 1.00 95.00 1.00 95.00
C -1.52 77.50 1.00 57.71 1.00 40.00
C 1.00 40.00 0.50 40.00 0.00 40.00
L 0.00 95.00 Z"/>
</g>
<g fill="None" fill-opacity="0.0" stroke="#2F2F29" stroke-opacity="1.00" stroke-width="0.3"><path d="
M 44.00 51.00 
C 43.97 52.56 43.36 55.23 45.00 56.00
C 47.40 54.20 45.49 48.52 49.93 47.93 C 54.36 47.33 56.46 47.00 61.00 47.00
C 65.01 47.00 69.08 45.86 69.00 49.00
C 60.27 65.86 48.75 81.33 40.00 98.00
C 48.47 98.08 57.77 94.56 66.33 97.67 C 74.89 100.78 83.49 91.63 77.00 85.00
C 77.61 100.43 57.81 90.85 49.00 95.00
C 57.27 77.22 69.48 61.06 79.00 44.00
C 68.07 47.07 46.40 36.92 44.00 51.00 Z"/>
</g>
<g fill="None" fill-opacity="0.0" stroke="#6D7A23" stroke-opacity="1.00" stroke-width="0.3"><path d="
M 69.00 49.00 
C 69.08 45.86 65.01 47.00 61.00 47.00
C 62.81 47.18 67.18 48.22 69.00 49.00 Z"/>
</g>
<g fill="None" fill-opacity="0.0" stroke="#6D7A24" stroke-opacity="1.00" stroke-width="0.3"><path d="
M 45.00 56.00 
C 43.36 55.23 43.97 52.56 44.00 51.00
C 43.83 51.99 41.39 58.70 45.00 56.00 Z"/>
</g>
<g fill="None" fill-opacity="0.0" stroke="#000000" stroke-opacity="0.07" stroke-width="0.3"><path d="
M 0.00 121.00 
L 89.00 121.00
L 89.00 97.00
C 89.00 97.00 88.12 96.78 88.00 97.00
C 81.90 107.62 72.44 107.67 61.23 113.23 C 50.02 118.79 39.89 120.76 29.22 113.78 C 18.56 106.79 5.71 109.74 2.00 96.00
C 1.94 95.76 1.26 95.12 1.00 95.00
C 1.00 95.00 0.50 95.00 0.00 95.00
L 0.00 121.00 Z"/>
</g>
<g fill="#393C28" fill-opacity="0.73" stroke="None">
<path d="
M 0.00 40.00 
C 0.50 40.00 1.00 40.00 1.00 40.00
C 1.00 27.00 1.00 14.00 1.00 1.00
C 1.00 0.50 1.00 0.00 1.00 0.00
L 0.00 0.00
L 0.00 40.00 Z"/>
</g>
<g fill="#2E2E29" fill-opacity="0.98" stroke="None">
<path d="
M 1.00 1.00 
C 1.25 1.25 2.00 1.00 2.00 1.00
C 30.27 1.00 59.86 3.54 88.00 1.00
C 88.00 0.50 88.00 0.00 88.00 0.00
L 1.00 0.00
C 1.00 0.00 1.00 0.50 1.00 1.00 Z"/>
</g>
<g fill="#373828" fill-opacity="0.84" stroke="None">
<path d="
M 88.00 1.00 
C 88.00 32.56 85.16 65.59 88.00 97.00
C 88.12 96.78 89.00 97.00 89.00 97.00
L 89.00 0.00
L 88.00 0.00
C 88.00 0.00 88.00 0.50 88.00 1.00 Z"/>
</g>
<g fill="#95AA20" fill-opacity="1.00" stroke="None">
<path d="
M 1.00 40.00 
C 1.00 57.71 -1.52 77.50 1.00 95.00
C 1.26 95.12 1.94 95.76 2.00 96.00
C -1.87 64.82 4.83 32.31 2.00 1.00
C 2.00 1.00 1.25 1.25 1.00 1.00
C 1.00 14.00 1.00 27.00 1.00 40.00 Z"/>
</g>
<g fill="#AEC91F" fill-opacity="1.00" stroke="None">
<path d="
M 2.00 96.00 
C 5.71 109.74 18.56 106.79 29.22 113.78 C 39.89 120.76 50.02 118.79 61.23 113.23 C 72.44 107.67 81.90 107.62 88.00 97.00
C 85.16 65.59 88.00 32.56 88.00 1.00
C 59.86 3.54 30.27 1.00 2.00 1.00
C 4.83 32.31 -1.87 64.82 2.00 96.00
M 37.00 29.00 
C 38.13 18.61 19.75 12.99 17.08 25.08 C 14.40 37.17 27.82 38.69 35.08 44.92 C 42.34 51.14 40.55 64.19 30.77 68.77 C 20.99 73.35 3.92 70.87 11.00 56.00
C 12.85 61.42 16.12 68.38 24.00 68.00 C 31.88 67.62 36.70 59.41 33.07 52.93 C 29.44 46.45 23.77 46.91 18.30 42.70 C 12.84 38.49 9.62 30.90 13.31 24.31 C 16.99 17.71 21.79 16.14 29.02 15.02 C 36.26 13.91 43.63 24.25 37.00 29.00
M 69.00 49.00 
C 67.18 48.22 62.81 47.18 61.00 47.00
C 56.46 47.00 54.36 47.33 49.93 47.93 C 45.49 48.52 47.40 54.20 45.00 56.00
C 41.39 58.70 43.83 51.99 44.00 51.00
C 46.40 36.92 68.07 47.07 79.00 44.00
C 69.48 61.06 57.27 77.22 49.00 95.00
C 57.81 90.85 77.61 100.43 77.00 85.00
C 83.49 91.63 74.89 100.78 66.33 97.67 C 57.77 94.56 48.47 98.08 40.00 98.00
C 48.75 81.33 60.27 65.86 69.00 49.00 Z"/>
</g>
<g fill="#313129" fill-opacity="1.00" stroke="None">
<path d="
M 37.00 29.00 
C 43.63 24.25 36.26 13.91 29.02 15.02 C 21.79 16.14 16.99 17.71 13.31 24.31 C 9.62 30.90 12.84 38.49 18.30 42.70 C 23.77 46.91 29.44 46.45 33.07 52.93 C 36.70 59.41 31.88 67.62 24.00 68.00 C 16.12 68.38 12.85 61.42 11.00 56.00
C 3.92 70.87 20.99 73.35 30.77 68.77 C 40.55 64.19 42.34 51.14 35.08 44.92 C 27.82 38.69 14.40 37.17 17.08 25.08 C 19.75 12.99 38.13 18.61 37.00 29.00 Z"/>
</g>
<g fill="#393B28" fill-opacity="0.61" stroke="None">
<path d="
M 0.00 95.00 
C 0.50 95.00 1.00 95.00 1.00 95.00
C -1.52 77.50 1.00 57.71 1.00 40.00
C 1.00 40.00 0.50 40.00 0.00 40.00
L 0.00 95.00 Z"/>
</g>
<g fill="#2F2F29" fill-opacity="1.00" stroke="None">
<path d="
M 44.00 51.00 
C 43.97 52.56 43.36 55.23 45.00 56.00
C 47.40 54.20 45.49 48.52 49.93 47.93 C 54.36 47.33 56.46 47.00 61.00 47.00
C 65.01 47.00 69.08 45.86 69.00 49.00
C 60.27 65.86 48.75 81.33 40.00 98.00
C 48.47 98.08 57.77 94.56 66.33 97.67 C 74.89 100.78 83.49 91.63 77.00 85.00
C 77.61 100.43 57.81 90.85 49.00 95.00
C 57.27 77.22 69.48 61.06 79.00 44.00
C 68.07 47.07 46.40 36.92 44.00 51.00 Z"/>
</g>
<g fill="#6D7A23" fill-opacity="1.00" stroke="None">
<path d="
M 69.00 49.00 
C 69.08 45.86 65.01 47.00 61.00 47.00
C 62.81 47.18 67.18 48.22 69.00 49.00 Z"/>
</g>
<g fill="#6D7A24" fill-opacity="1.00" stroke="None">
<path d="
M 45.00 56.00 
C 43.36 55.23 43.97 52.56 44.00 51.00
C 43.83 51.99 41.39 58.70 45.00 56.00 Z"/>
</g>
<g fill="#000000" fill-opacity="0.07" stroke="None">
<path d="
M 0.00 121.00 
L 89.00 121.00
L 89.00 97.00
C 89.00 97.00 88.12 96.78 88.00 97.00
C 81.90 107.62 72.44 107.67 61.23 113.23 C 50.02 118.79 39.89 120.76 29.22 113.78 C 18.56 106.79 5.71 109.74 2.00 96.00
C 1.94 95.76 1.26 95.12 1.00 95.00
C 1.00 95.00 0.50 95.00 0.00 95.00
L 0.00 121.00 Z"/>
</g>
</svg>