<svg xmlns="http://www.w3.org/2000/svg" xmlns:v="https://svgstorm.com"
viewBox = "0 0 90 122"
width="90"
height="122">
<g fill="None" fill-opacity="0.0" stroke="#262524" stroke-opacity="0.15" stroke-width="0.3"><path d="
M 0.00 96.00 
C 0.50 96.00 1.00 96.00 1.00 96.00
C 3.81 64.91 1.00 32.23 1.00 1.00
C 1.00 0.50 1.00 0.00 1.00 0.00
L 0.00 0.00
L 0.00 96.00 Z"/>
</g>
<g fill="None" fill-opacity="0.0" stroke="#2A2626" stroke-opacity="0.29" stroke-width="0.3"><path d="
M 1.00 1.00 
C 15.40 2.30 30.54 1.00 45.00 1.00 C 59.47 1.00 74.60 2.30 89.00 1.00
C 89.00 0.50 89.00 0.00 89.00 0.00
L 1.00 0.00
C 1.00 0.00 1.00 0.50 1.00 1.00 Z"/>
</g>
<g fill="None" fill-opacity="0.0" stroke="#282722" stroke-opacity="0.15" stroke-width="0.3"><path d="
M 89.00 1.00 
C 89.00 33.00 89.00 65.00 89.00 97.00
C 89.25 96.75 90.00 97.00 90.00 97.00
L 90.00 0.00
L 89.00 0.00
C 89.00 0.00 89.00 0.50 89.00 1.00 Z"/>
</g>
<g fill="None" fill-opacity="0.0" stroke="#2A2A29" stroke-opacity="0.93" stroke-width="0.3"><path d="
M 1.00 96.00 
C 0.16 65.66 3.71 33.12 2.00 2.00
C 30.67 2.00 59.33 2.00 88.00 2.00
C 88.67 33.83 86.67 66.99 89.00 98.00
C 89.05 97.50 89.00 97.00 89.00 97.00
C 89.00 65.00 89.00 33.00 89.00 1.00
C 74.60 2.30 59.47 1.00 45.00 1.00 C 30.54 1.00 15.40 2.30 1.00 1.00
C 1.00 32.23 3.81 64.91 1.00 96.00 Z"/>
</g>
<g fill="None" fill-opacity="0.0" stroke="#2B2A29" stroke-opacity="1.00" stroke-width="0.3"><path d="
M 1.00 96.00 
C 3.10 114.39 34.23 112.26 45.00 122.00
L 46.00 122.00
C 52.53 118.33 62.52 115.49 69.22 112.22 C 75.93 108.96 88.12 107.37 89.00 98.00
C 86.67 66.99 88.67 33.83 88.00 2.00
C 59.33 2.00 30.67 2.00 2.00 2.00
C 3.71 33.12 0.16 65.66 1.00 96.00
M 19.00 16.00 
C 28.72 16.00 36.50 14.48 46.07 15.07 C 55.64 15.67 36.57 24.48 31.00 20.00
C 31.00 28.00 31.00 36.00 31.00 44.00
C 30.95 46.41 30.16 49.30 30.00 51.00
C 29.86 57.94 33.41 71.10 24.00 71.00
C 24.00 64.67 24.00 58.33 24.00 52.00
C 24.00 48.90 24.77 45.36 25.00 43.00
C 25.00 35.00 25.00 27.00 25.00 19.00
C 21.04 19.43 16.48 18.04 12.93 19.93 C 9.37 21.82 11.68 28.29 8.00 29.00
C 5.37 28.02 7.62 22.24 8.00 21.00
C 9.00 17.71 8.69 17.35 12.00 16.00
C 14.81 14.86 16.48 15.76 19.00 16.00
M 50.00 69.00 
C 50.00 72.43 49.26 76.31 49.00 79.00
C 49.00 86.33 49.00 93.67 49.00 101.00
C 37.73 102.53 45.11 85.95 43.00 79.00
C 43.00 75.25 43.71 71.01 44.00 68.00
C 44.00 60.23 46.60 48.09 36.00 49.00
C 45.50 46.20 60.66 41.70 69.75 49.25 C 78.83 56.81 69.18 73.15 59.00 74.00
C 64.70 82.65 70.32 99.58 83.00 97.00
C 69.50 111.48 56.42 83.16 52.00 72.00
C 61.02 72.83 65.84 67.89 66.00 59.00 C 66.16 50.10 57.95 46.91 50.00 49.00
C 50.00 55.67 50.00 62.33 50.00 69.00 Z"/>
</g>
<g fill="None" fill-opacity="0.0" stroke="#939392" stroke-opacity="1.00" stroke-width="0.3"><path d="
M 12.00 16.00 
C 14.08 15.52 16.86 16.00 19.00 16.00
C 16.48 15.76 14.81 14.86 12.00 16.00 Z"/>
</g>
<g fill="None" fill-opacity="0.0" stroke="#F6F6F6" stroke-opacity="1.00" stroke-width="0.3"><path d="
M 19.00 16.00 
C 16.86 16.00 14.08 15.52 12.00 16.00
C 8.69 17.35 9.00 17.71 8.00 21.00
C 7.56 23.59 8.33 26.39 8.00 29.00
C 11.68 28.29 9.37 21.82 12.93 19.93 C 16.48 18.04 21.04 19.43 25.00 19.00
C 25.00 27.00 25.00 35.00 25.00 43.00
C 25.00 46.10 24.23 49.64 24.00 52.00
C 24.00 58.33 24.00 64.67 24.00 71.00
C 33.41 71.10 29.86 57.94 30.00 51.00
C 30.05 48.59 30.84 45.70 31.00 44.00
C 31.00 36.00 31.00 28.00 31.00 20.00
C 36.57 24.48 55.64 15.67 46.07 15.07 C 36.50 14.48 28.72 16.00 19.00 16.00 Z"/>
</g>
<g fill="None" fill-opacity="0.0" stroke="#8C8B8B" stroke-opacity="1.00" stroke-width="0.3"><path d="
M 8.00 29.00 
C 8.33 26.39 7.56 23.59 8.00 21.00
C 7.62 22.24 5.37 28.02 8.00 29.00 Z"/>
</g>
<g fill="None" fill-opacity="0.0" stroke="#878686" stroke-opacity="1.00" stroke-width="0.3"><path d="
M 24.00 52.00 
C 24.23 49.64 25.00 46.10 25.00 43.00
C 24.77 45.36 24.00 48.90 24.00 52.00 Z"/>
</g>
<g fill="None" fill-opacity="0.0" stroke="#868585" stroke-opacity="1.00" stroke-width="0.3"><path d="
M 30.00 51.00 
C 30.16 49.30 30.95 46.41 31.00 44.00
C 30.84 45.70 30.05 48.59 30.00 51.00 Z"/>
</g>
<g fill="None" fill-opacity="0.0" stroke="#F1F1F1" stroke-opacity="1.00" stroke-width="0.3"><path d="
M 44.00 68.00 
C 44.00 71.75 43.29 75.99 43.00 79.00
C 45.11 85.95 37.73 102.53 49.00 101.00
C 49.00 93.67 49.00 86.33 49.00 79.00
C 49.00 75.57 49.74 71.69 50.00 69.00
C 50.00 62.33 50.00 55.67 50.00 49.00
C 57.95 46.91 66.16 50.10 66.00 59.00 C 65.84 67.89 61.02 72.83 52.00 72.00
C 56.42 83.16 69.50 111.48 83.00 97.00
C 70.32 99.58 64.70 82.65 59.00 74.00
C 69.18 73.15 78.83 56.81 69.75 49.25 C 60.66 41.70 45.50 46.20 36.00 49.00
C 46.60 48.09 44.00 60.23 44.00 68.00 Z"/>
</g>
<g fill="None" fill-opacity="0.0" stroke="#878786" stroke-opacity="1.00" stroke-width="0.3"><path d="
M 43.00 79.00 
C 43.29 75.99 44.00 71.75 44.00 68.00
C 43.71 71.01 43.00 75.25 43.00 79.00 Z"/>
</g>
<g fill="None" fill-opacity="0.0" stroke="#888887" stroke-opacity="1.00" stroke-width="0.3"><path d="
M 49.00 79.00 
C 49.26 76.31 50.00 72.43 50.00 69.00
C 49.74 71.69 49.00 75.57 49.00 79.00 Z"/>
</g>
<g fill="None" fill-opacity="0.0" stroke="#000000" stroke-opacity="0.00" stroke-width="0.3"><path d="
M 0.00 122.00 
L 45.00 122.00
C 34.23 112.26 3.10 114.39 1.00 96.00
C 1.00 96.00 0.50 96.00 0.00 96.00
L 0.00 122.00 Z"/>
</g>
<g fill="None" fill-opacity="0.0" stroke="#000000" stroke-opacity="0.00" stroke-width="0.3"><path d="
M 89.00 98.00 
C 88.12 107.37 75.93 108.96 69.22 112.22 C 62.52 115.49 52.53 118.33 46.00 122.00
L 90.00 122.00
L 90.00 97.00
C 90.00 97.00 89.25 96.75 89.00 97.00
C 89.00 97.00 89.05 97.50 89.00 98.00 Z"/>
</g>
<g fill="#262524" fill-opacity="0.15" stroke="None">
<path d="
M 0.00 96.00 
C 0.50 96.00 1.00 96.00 1.00 96.00
C 3.81 64.91 1.00 32.23 1.00 1.00
C 1.00 0.50 1.00 0.00 1.00 0.00
L 0.00 0.00
L 0.00 96.00 Z"/>
</g>
<g fill="#2A2626" fill-opacity="0.29" stroke="None">
<path d="
M 1.00 1.00 
C 15.40 2.30 30.54 1.00 45.00 1.00 C 59.47 1.00 74.60 2.30 89.00 1.00
C 89.00 0.50 89.00 0.00 89.00 0.00
L 1.00 0.00
C 1.00 0.00 1.00 0.50 1.00 1.00 Z"/>
</g>
<g fill="#282722" fill-opacity="0.15" stroke="None">
<path d="
M 89.00 1.00 
C 89.00 33.00 89.00 65.00 89.00 97.00
C 89.25 96.75 90.00 97.00 90.00 97.00
L 90.00 0.00
L 89.00 0.00
C 89.00 0.00 89.00 0.50 89.00 1.00 Z"/>
</g>
<g fill="#2A2A29" fill-opacity="0.93" stroke="None">
<path d="
M 1.00 96.00 
C 0.16 65.66 3.71 33.12 2.00 2.00
C 30.67 2.00 59.33 2.00 88.00 2.00
C 88.67 33.83 86.67 66.99 89.00 98.00
C 89.05 97.50 89.00 97.00 89.00 97.00
C 89.00 65.00 89.00 33.00 89.00 1.00
C 74.60 2.30 59.47 1.00 45.00 1.00 C 30.54 1.00 15.40 2.30 1.00 1.00
C 1.00 32.23 3.81 64.91 1.00 96.00 Z"/>
</g>
<g fill="#2B2A29" fill-opacity="1.00" stroke="None">
<path d="
M 1.00 96.00 
C 3.10 114.39 34.23 112.26 45.00 122.00
L 46.00 122.00
C 52.53 118.33 62.52 115.49 69.22 112.22 C 75.93 108.96 88.12 107.37 89.00 98.00
C 86.67 66.99 88.67 33.83 88.00 2.00
C 59.33 2.00 30.67 2.00 2.00 2.00
C 3.71 33.12 0.16 65.66 1.00 96.00
M 19.00 16.00 
C 28.72 16.00 36.50 14.48 46.07 15.07 C 55.64 15.67 36.57 24.48 31.00 20.00
C 31.00 28.00 31.00 36.00 31.00 44.00
C 30.95 46.41 30.16 49.30 30.00 51.00
C 29.86 57.94 33.41 71.10 24.00 71.00
C 24.00 64.67 24.00 58.33 24.00 52.00
C 24.00 48.90 24.77 45.36 25.00 43.00
C 25.00 35.00 25.00 27.00 25.00 19.00
C 21.04 19.43 16.48 18.04 12.93 19.93 C 9.37 21.82 11.68 28.29 8.00 29.00
C 5.37 28.02 7.62 22.24 8.00 21.00
C 9.00 17.71 8.69 17.35 12.00 16.00
C 14.81 14.86 16.48 15.76 19.00 16.00
M 50.00 69.00 
C 50.00 72.43 49.26 76.31 49.00 79.00
C 49.00 86.33 49.00 93.67 49.00 101.00
C 37.73 102.53 45.11 85.95 43.00 79.00
C 43.00 75.25 43.71 71.01 44.00 68.00
C 44.00 60.23 46.60 48.09 36.00 49.00
C 45.50 46.20 60.66 41.70 69.75 49.25 C 78.83 56.81 69.18 73.15 59.00 74.00
C 64.70 82.65 70.32 99.58 83.00 97.00
C 69.50 111.48 56.42 83.16 52.00 72.00
C 61.02 72.83 65.84 67.89 66.00 59.00 C 66.16 50.10 57.95 46.91 50.00 49.00
C 50.00 55.67 50.00 62.33 50.00 69.00 Z"/>
</g>
<g fill="#939392" fill-opacity="1.00" stroke="None">
<path d="
M 12.00 16.00 
C 14.08 15.52 16.86 16.00 19.00 16.00
C 16.48 15.76 14.81 14.86 12.00 16.00 Z"/>
</g>
<g fill="#F6F6F6" fill-opacity="1.00" stroke="None">
<path d="
M 19.00 16.00 
C 16.86 16.00 14.08 15.52 12.00 16.00
C 8.69 17.35 9.00 17.71 8.00 21.00
C 7.56 23.59 8.33 26.39 8.00 29.00
C 11.68 28.29 9.37 21.82 12.93 19.93 C 16.48 18.04 21.04 19.43 25.00 19.00
C 25.00 27.00 25.00 35.00 25.00 43.00
C 25.00 46.10 24.23 49.64 24.00 52.00
C 24.00 58.33 24.00 64.67 24.00 71.00
C 33.41 71.10 29.86 57.94 30.00 51.00
C 30.05 48.59 30.84 45.70 31.00 44.00
C 31.00 36.00 31.00 28.00 31.00 20.00
C 36.57 24.48 55.64 15.67 46.07 15.07 C 36.50 14.48 28.72 16.00 19.00 16.00 Z"/>
</g>
<g fill="#8C8B8B" fill-opacity="1.00" stroke="None">
<path d="
M 8.00 29.00 
C 8.33 26.39 7.56 23.59 8.00 21.00
C 7.62 22.24 5.37 28.02 8.00 29.00 Z"/>
</g>
<g fill="#878686" fill-opacity="1.00" stroke="None">
<path d="
M 24.00 52.00 
C 24.23 49.64 25.00 46.10 25.00 43.00
C 24.77 45.36 24.00 48.90 24.00 52.00 Z"/>
</g>
<g fill="#868585" fill-opacity="1.00" stroke="None">
<path d="
M 30.00 51.00 
C 30.16 49.30 30.95 46.41 31.00 44.00
C 30.84 45.70 30.05 48.59 30.00 51.00 Z"/>
</g>
<g fill="#F1F1F1" fill-opacity="1.00" stroke="None">
<path d="
M 44.00 68.00 
C 44.00 71.75 43.29 75.99 43.00 79.00
C 45.11 85.95 37.73 102.53 49.00 101.00
C 49.00 93.67 49.00 86.33 49.00 79.00
C 49.00 75.57 49.74 71.69 50.00 69.00
C 50.00 62.33 50.00 55.67 50.00 49.00
C 57.95 46.91 66.16 50.10 66.00 59.00 C 65.84 67.89 61.02 72.83 52.00 72.00
C 56.42 83.16 69.50 111.48 83.00 97.00
C 70.32 99.58 64.70 82.65 59.00 74.00
C 69.18 73.15 78.83 56.81 69.75 49.25 C 60.66 41.70 45.50 46.20 36.00 49.00
C 46.60 48.09 44.00 60.23 44.00 68.00 Z"/>
</g>
<g fill="#878786" fill-opacity="1.00" stroke="None">
<path d="
M 43.00 79.00 
C 43.29 75.99 44.00 71.75 44.00 68.00
C 43.71 71.01 43.00 75.25 43.00 79.00 Z"/>
</g>
<g fill="#888887" fill-opacity="1.00" stroke="None">
<path d="
M 49.00 79.00 
C 49.26 76.31 50.00 72.43 50.00 69.00
C 49.74 71.69 49.00 75.57 49.00 79.00 Z"/>
</g>
<g fill="#000000" fill-opacity="0.00" stroke="None">
<path d="
M 0.00 122.00 
L 45.00 122.00
C 34.23 112.26 3.10 114.39 1.00 96.00
C 1.00 96.00 0.50 96.00 0.00 96.00
L 0.00 122.00 Z"/>
</g>
<g fill="#000000" fill-opacity="0.00" stroke="None">
<path d="
M 89.00 98.00 
C 88.12 107.37 75.93 108.96 69.22 112.22 C 62.52 115.49 52.53 118.33 46.00 122.00
L 90.00 122.00
L 90.00 97.00
C 90.00 97.00 89.25 96.75 89.00 97.00
C 89.00 97.00 89.05 97.50 89.00 98.00 Z"/>
</g>
</svg>