<svg xmlns="http://www.w3.org/2000/svg" xmlns:v="https://svgstorm.com"
viewBox = "0 0 89 122"
width="89"
height="122">
<g fill="None" fill-opacity="0.0" stroke="#2A2A29" stroke-opacity="0.36" stroke-width="0.3"><path d="
M 0.00 1.00 
C 0.50 1.00 1.00 1.00 1.00 1.00
C 30.00 1.00 59.00 1.00 88.00 1.00
C 88.50 1.00 89.00 1.00 89.00 1.00
L 89.00 0.00
L 0.00 0.00
L 0.00 1.00 Z"/>
</g>
<g fill="None" fill-opacity="0.0" stroke="#3E2928" stroke-opacity="0.58" stroke-width="0.3"><path d="
M 0.00 54.00 
C 0.50 54.00 1.00 54.00 1.00 54.00
C 1.00 36.58 2.57 18.34 1.00 1.00
C 1.00 1.00 0.50 1.00 0.00 1.00
L 0.00 54.00 Z"/>
</g>
<g fill="None" fill-opacity="0.0" stroke="#A32225" stroke-opacity="1.00" stroke-width="0.3"><path d="
M 1.00 54.00 
C 1.00 67.52 -0.93 82.63 1.00 96.00
C 1.26 96.12 1.91 96.75 2.00 97.00
C 5.05 87.49 0.63 76.10 2.00 66.00 C 3.37 55.90 1.28 44.37 2.00 34.00 C 2.72 23.63 1.46 12.44 2.00 2.00
C 30.67 2.00 59.33 2.00 88.00 2.00
C 88.00 1.50 88.00 1.00 88.00 1.00
C 59.00 1.00 30.00 1.00 1.00 1.00
C 2.57 18.34 1.00 36.58 1.00 54.00 Z"/>
</g>
<g fill="None" fill-opacity="0.0" stroke="#332A28" stroke-opacity="0.95" stroke-width="0.3"><path d="
M 88.00 2.00 
C 88.00 33.17 87.17 65.65 89.00 96.00
L 89.00 1.00
C 89.00 1.00 88.50 1.00 88.00 1.00
C 88.00 1.00 88.00 1.50 88.00 2.00 Z"/>
</g>
<g fill="None" fill-opacity="0.0" stroke="#E32327" stroke-opacity="1.00" stroke-width="0.3"><path d="
M 2.00 97.00 
C 6.42 109.39 18.99 107.63 29.07 113.93 C 39.16 120.22 51.00 120.15 61.08 114.08 C 71.16 108.00 83.69 109.07 89.00 97.00
L 89.00 96.00
C 87.17 65.65 88.00 33.17 88.00 2.00
C 59.33 2.00 30.67 2.00 2.00 2.00
C 1.46 12.44 2.72 23.63 2.00 34.00 C 1.28 44.37 3.37 55.90 2.00 66.00 C 0.63 76.10 5.05 87.49 2.00 97.00
M 26.00 56.00 
C 26.10 56.20 27.79 56.25 28.00 56.00
C 36.24 44.49 43.54 25.39 40.00 12.00
C 52.74 11.54 43.81 26.64 42.00 33.00
C 51.71 33.10 64.98 27.16 73.25 34.75 C 81.51 42.35 72.27 56.22 63.00 57.00
C 68.23 66.16 74.52 79.11 86.00 80.00
C 69.68 88.48 63.28 65.87 56.00 56.00
C 74.51 59.63 74.60 27.18 55.00 34.00
C 55.00 41.00 55.00 48.00 55.00 55.00
C 55.00 58.10 54.23 61.64 54.00 64.00
C 54.00 70.00 54.00 76.00 54.00 82.00
C 52.33 82.00 50.67 82.00 49.00 82.00
C 47.17 80.84 47.96 76.05 48.00 74.00
C 48.05 71.59 48.84 68.70 49.00 67.00
C 49.00 56.40 54.07 34.97 41.00 34.00
C 39.09 39.42 36.09 45.23 33.23 50.23 C 30.37 55.23 29.23 64.01 22.00 63.00
C 17.40 46.91 20.23 21.00 4.00 14.00
C 14.81 7.98 19.39 17.80 20.78 27.22 C 22.16 36.64 24.95 46.45 26.00 56.00
M 45.00 70.00 
C 45.00 74.41 44.35 79.34 44.00 83.00
C 44.00 90.27 43.39 96.86 43.00 104.00
C 51.06 101.57 64.56 107.90 65.00 95.00
C 71.51 113.52 47.86 103.92 38.00 107.00
C 37.31 98.95 40.03 87.75 39.00 80.00 C 37.97 72.25 43.09 57.18 32.00 60.00
C 38.12 51.48 49.46 59.94 45.00 70.00 Z"/>
</g>
<g fill="None" fill-opacity="0.0" stroke="#FDF4F4" stroke-opacity="1.00" stroke-width="0.3"><path d="
M 49.00 67.00 
C 49.00 69.33 49.00 71.67 49.00 74.00
C 49.00 76.67 49.00 79.33 49.00 82.00
C 50.67 82.00 52.33 82.00 54.00 82.00
C 54.00 76.00 54.00 70.00 54.00 64.00
C 54.00 60.90 54.77 57.36 55.00 55.00
C 55.00 48.00 55.00 41.00 55.00 34.00
C 74.60 27.18 74.51 59.63 56.00 56.00
C 63.28 65.87 69.68 88.48 86.00 80.00
C 74.52 79.11 68.23 66.16 63.00 57.00
C 72.27 56.22 81.51 42.35 73.25 34.75 C 64.98 27.16 51.71 33.10 42.00 33.00
C 43.81 26.64 52.74 11.54 40.00 12.00
C 43.54 25.39 36.24 44.49 28.00 56.00
C 26.56 58.01 26.88 57.94 26.00 56.00
C 24.95 46.45 22.16 36.64 20.78 27.22 C 19.39 17.80 14.81 7.98 4.00 14.00
C 20.23 21.00 17.40 46.91 22.00 63.00
C 29.23 64.01 30.37 55.23 33.23 50.23 C 36.09 45.23 39.09 39.42 41.00 34.00
C 54.07 34.97 49.00 56.40 49.00 67.00 Z"/>
</g>
<g fill="None" fill-opacity="0.0" stroke="#332928" stroke-opacity="0.44" stroke-width="0.3"><path d="
M 0.00 96.00 
C 0.50 96.00 1.00 96.00 1.00 96.00
C -0.93 82.63 1.00 67.52 1.00 54.00
C 1.00 54.00 0.50 54.00 0.00 54.00
L 0.00 96.00 Z"/>
</g>
<g fill="None" fill-opacity="0.0" stroke="#EF8185" stroke-opacity="1.00" stroke-width="0.3"><path d="
M 54.00 64.00 
C 54.23 61.64 55.00 58.10 55.00 55.00
C 54.77 57.36 54.00 60.90 54.00 64.00 Z"/>
</g>
<g fill="None" fill-opacity="0.0" stroke="#F39A9C" stroke-opacity="1.00" stroke-width="0.3"><path d="
M 28.00 56.00 
C 27.79 56.25 26.10 56.20 26.00 56.00
C 26.88 57.94 26.56 58.01 28.00 56.00 Z"/>
</g>
<g fill="None" fill-opacity="0.0" stroke="#FDF6F6" stroke-opacity="1.00" stroke-width="0.3"><path d="
M 44.00 83.00 
C 44.00 78.59 44.65 73.66 45.00 70.00
C 49.46 59.94 38.12 51.48 32.00 60.00
C 43.09 57.18 37.97 72.25 39.00 80.00 C 40.03 87.75 37.31 98.95 38.00 107.00
C 47.86 103.92 71.51 113.52 65.00 95.00
C 64.56 107.90 51.06 101.57 43.00 104.00
C 43.39 96.86 44.00 90.27 44.00 83.00 Z"/>
</g>
<g fill="None" fill-opacity="0.0" stroke="#EC666A" stroke-opacity="1.00" stroke-width="0.3"><path d="
M 48.00 74.00 
C 48.00 73.96 49.00 74.00 49.00 74.00
C 49.00 71.67 49.00 69.33 49.00 67.00
C 48.84 68.70 48.05 71.59 48.00 74.00 Z"/>
</g>
<g fill="None" fill-opacity="0.0" stroke="#EE7376" stroke-opacity="1.00" stroke-width="0.3"><path d="
M 44.00 83.00 
C 44.35 79.34 45.00 74.41 45.00 70.00
C 44.65 73.66 44.00 78.59 44.00 83.00 Z"/>
</g>
<g fill="None" fill-opacity="0.0" stroke="#F4AAAC" stroke-opacity="1.00" stroke-width="0.3"><path d="
M 49.00 82.00 
C 49.00 79.33 49.00 76.67 49.00 74.00
C 49.00 74.00 48.00 73.96 48.00 74.00
C 47.96 76.05 47.17 80.84 49.00 82.00 Z"/>
</g>
<g fill="None" fill-opacity="0.0" stroke="#000000" stroke-opacity="0.07" stroke-width="0.3"><path d="
M 0.00 122.00 
L 89.00 122.00
L 89.00 97.00
C 83.69 109.07 71.16 108.00 61.08 114.08 C 51.00 120.15 39.16 120.22 29.07 113.93 C 18.99 107.63 6.42 109.39 2.00 97.00
C 1.91 96.75 1.26 96.12 1.00 96.00
C 1.00 96.00 0.50 96.00 0.00 96.00
L 0.00 122.00 Z"/>
</g>
<g fill="#2A2A29" fill-opacity="0.36" stroke="None">
<path d="
M 0.00 1.00 
C 0.50 1.00 1.00 1.00 1.00 1.00
C 30.00 1.00 59.00 1.00 88.00 1.00
C 88.50 1.00 89.00 1.00 89.00 1.00
L 89.00 0.00
L 0.00 0.00
L 0.00 1.00 Z"/>
</g>
<g fill="#3E2928" fill-opacity="0.58" stroke="None">
<path d="
M 0.00 54.00 
C 0.50 54.00 1.00 54.00 1.00 54.00
C 1.00 36.58 2.57 18.34 1.00 1.00
C 1.00 1.00 0.50 1.00 0.00 1.00
L 0.00 54.00 Z"/>
</g>
<g fill="#A32225" fill-opacity="1.00" stroke="None">
<path d="
M 1.00 54.00 
C 1.00 67.52 -0.93 82.63 1.00 96.00
C 1.26 96.12 1.91 96.75 2.00 97.00
C 5.05 87.49 0.63 76.10 2.00 66.00 C 3.37 55.90 1.28 44.37 2.00 34.00 C 2.72 23.63 1.46 12.44 2.00 2.00
C 30.67 2.00 59.33 2.00 88.00 2.00
C 88.00 1.50 88.00 1.00 88.00 1.00
C 59.00 1.00 30.00 1.00 1.00 1.00
C 2.57 18.34 1.00 36.58 1.00 54.00 Z"/>
</g>
<g fill="#332A28" fill-opacity="0.95" stroke="None">
<path d="
M 88.00 2.00 
C 88.00 33.17 87.17 65.65 89.00 96.00
L 89.00 1.00
C 89.00 1.00 88.50 1.00 88.00 1.00
C 88.00 1.00 88.00 1.50 88.00 2.00 Z"/>
</g>
<g fill="#E32327" fill-opacity="1.00" stroke="None">
<path d="
M 2.00 97.00 
C 6.42 109.39 18.99 107.63 29.07 113.93 C 39.16 120.22 51.00 120.15 61.08 114.08 C 71.16 108.00 83.69 109.07 89.00 97.00
L 89.00 96.00
C 87.17 65.65 88.00 33.17 88.00 2.00
C 59.33 2.00 30.67 2.00 2.00 2.00
C 1.46 12.44 2.72 23.63 2.00 34.00 C 1.28 44.37 3.37 55.90 2.00 66.00 C 0.63 76.10 5.05 87.49 2.00 97.00
M 26.00 56.00 
C 26.10 56.20 27.79 56.25 28.00 56.00
C 36.24 44.49 43.54 25.39 40.00 12.00
C 52.74 11.54 43.81 26.64 42.00 33.00
C 51.71 33.10 64.98 27.16 73.25 34.75 C 81.51 42.35 72.27 56.22 63.00 57.00
C 68.23 66.16 74.52 79.11 86.00 80.00
C 69.68 88.48 63.28 65.87 56.00 56.00
C 74.51 59.63 74.60 27.18 55.00 34.00
C 55.00 41.00 55.00 48.00 55.00 55.00
C 55.00 58.10 54.23 61.64 54.00 64.00
C 54.00 70.00 54.00 76.00 54.00 82.00
C 52.33 82.00 50.67 82.00 49.00 82.00
C 47.17 80.84 47.96 76.05 48.00 74.00
C 48.05 71.59 48.84 68.70 49.00 67.00
C 49.00 56.40 54.07 34.97 41.00 34.00
C 39.09 39.42 36.09 45.23 33.23 50.23 C 30.37 55.23 29.23 64.01 22.00 63.00
C 17.40 46.91 20.23 21.00 4.00 14.00
C 14.81 7.98 19.39 17.80 20.78 27.22 C 22.16 36.64 24.95 46.45 26.00 56.00
M 45.00 70.00 
C 45.00 74.41 44.35 79.34 44.00 83.00
C 44.00 90.27 43.39 96.86 43.00 104.00
C 51.06 101.57 64.56 107.90 65.00 95.00
C 71.51 113.52 47.86 103.92 38.00 107.00
C 37.31 98.95 40.03 87.75 39.00 80.00 C 37.97 72.25 43.09 57.18 32.00 60.00
C 38.12 51.48 49.46 59.94 45.00 70.00 Z"/>
</g>
<g fill="#FDF4F4" fill-opacity="1.00" stroke="None">
<path d="
M 49.00 67.00 
C 49.00 69.33 49.00 71.67 49.00 74.00
C 49.00 76.67 49.00 79.33 49.00 82.00
C 50.67 82.00 52.33 82.00 54.00 82.00
C 54.00 76.00 54.00 70.00 54.00 64.00
C 54.00 60.90 54.77 57.36 55.00 55.00
C 55.00 48.00 55.00 41.00 55.00 34.00
C 74.60 27.18 74.51 59.63 56.00 56.00
C 63.28 65.87 69.68 88.48 86.00 80.00
C 74.52 79.11 68.23 66.16 63.00 57.00
C 72.27 56.22 81.51 42.35 73.25 34.75 C 64.98 27.16 51.71 33.10 42.00 33.00
C 43.81 26.64 52.74 11.54 40.00 12.00
C 43.54 25.39 36.24 44.49 28.00 56.00
C 26.56 58.01 26.88 57.94 26.00 56.00
C 24.95 46.45 22.16 36.64 20.78 27.22 C 19.39 17.80 14.81 7.98 4.00 14.00
C 20.23 21.00 17.40 46.91 22.00 63.00
C 29.23 64.01 30.37 55.23 33.23 50.23 C 36.09 45.23 39.09 39.42 41.00 34.00
C 54.07 34.97 49.00 56.40 49.00 67.00 Z"/>
</g>
<g fill="#332928" fill-opacity="0.44" stroke="None">
<path d="
M 0.00 96.00 
C 0.50 96.00 1.00 96.00 1.00 96.00
C -0.93 82.63 1.00 67.52 1.00 54.00
C 1.00 54.00 0.50 54.00 0.00 54.00
L 0.00 96.00 Z"/>
</g>
<g fill="#EF8185" fill-opacity="1.00" stroke="None">
<path d="
M 54.00 64.00 
C 54.23 61.64 55.00 58.10 55.00 55.00
C 54.77 57.36 54.00 60.90 54.00 64.00 Z"/>
</g>
<g fill="#F39A9C" fill-opacity="1.00" stroke="None">
<path d="
M 28.00 56.00 
C 27.79 56.25 26.10 56.20 26.00 56.00
C 26.88 57.94 26.56 58.01 28.00 56.00 Z"/>
</g>
<g fill="#FDF6F6" fill-opacity="1.00" stroke="None">
<path d="
M 44.00 83.00 
C 44.00 78.59 44.65 73.66 45.00 70.00
C 49.46 59.94 38.12 51.48 32.00 60.00
C 43.09 57.18 37.97 72.25 39.00 80.00 C 40.03 87.75 37.31 98.95 38.00 107.00
C 47.86 103.92 71.51 113.52 65.00 95.00
C 64.56 107.90 51.06 101.57 43.00 104.00
C 43.39 96.86 44.00 90.27 44.00 83.00 Z"/>
</g>
<g fill="#EC666A" fill-opacity="1.00" stroke="None">
<path d="
M 48.00 74.00 
C 48.00 73.96 49.00 74.00 49.00 74.00
C 49.00 71.67 49.00 69.33 49.00 67.00
C 48.84 68.70 48.05 71.59 48.00 74.00 Z"/>
</g>
<g fill="#EE7376" fill-opacity="1.00" stroke="None">
<path d="
M 44.00 83.00 
C 44.35 79.34 45.00 74.41 45.00 70.00
C 44.65 73.66 44.00 78.59 44.00 83.00 Z"/>
</g>
<g fill="#F4AAAC" fill-opacity="1.00" stroke="None">
<path d="
M 49.00 82.00 
C 49.00 79.33 49.00 76.67 49.00 74.00
C 49.00 74.00 48.00 73.96 48.00 74.00
C 47.96 76.05 47.17 80.84 49.00 82.00 Z"/>
</g>
<g fill="#000000" fill-opacity="0.07" stroke="None">
<path d="
M 0.00 122.00 
L 89.00 122.00
L 89.00 97.00
C 83.69 109.07 71.16 108.00 61.08 114.08 C 51.00 120.15 39.16 120.22 29.07 113.93 C 18.99 107.63 6.42 109.39 2.00 97.00
C 1.91 96.75 1.26 96.12 1.00 96.00
C 1.00 96.00 0.50 96.00 0.00 96.00
L 0.00 122.00 Z"/>
</g>
</svg>