<svg data-name="Layer 1" xmlns="http://www.w3.org/2000/svg" width="40" height="40"><circle cx="20" cy="20" r="19.62"/><path d="M13.18 15.19l2.93 8.12 1 .31v1.19h-4.38v-1.19l1-.31-.33-1h-3l-.34 1 1.07.33v1.19H7v-1.21l1-.31 3-8.07zM12 17.59l-1.08 3.23H13zM23.45 17a5 5 0 00-1.53-.21c-1.5 0-2.25 1.11-2.25 3.34s.77 3.13 2.32 3.13a3.63 3.63 0 001.25-.26 4.94 4.94 0 001-.48l.34-.23.75 1.22-.16.16a5.13 5.13 0 01-.48.36 5.73 5.73 0 01-.75.45 5.82 5.82 0 01-1 .36 4.87 4.87 0 01-1.19.16 4.19 4.19 0 01-3.23-1.23 5.13 5.13 0 01-1.13-3.6 5.35 5.35 0 011.24-3.75A4.32 4.32 0 0122 15a7.51 7.51 0 011.53.16 7.23 7.23 0 011.21.32l.44.16-.07 2.59h-1.35zm5.86-.2v6.41h2.09l.29-1.54H33v3.14h-6.83v-1.19l1-.34V16.8l-1-.41v-1.13l4.16-.07v1.2z" fill="#fff"/></svg>