<svg id="Layer_1" data-name="Layer 1" xmlns="http://www.w3.org/2000/svg" width="40" height="40" viewBox="0 0 40 40">
  <defs>
    <style>
      .cls-1 {
        fill: #000;
      }

      .cls-2 {
        fill: #fff;
      }
    </style>
  </defs>
  <circle class="cls-1" cx="20" cy="20" r="19.62"/>
  <g>
    <path class="cls-2" d="M13.18,15.19l2.93,8.12,1,.31v1.19H12.73V23.62l1-.31-.33-1h-3l-.34,1,1.07.33v1.19H7V23.62l1-.31,3-8.07ZM12,17.59l-1.08,3.23H13Z"/>
    <path class="cls-2" d="M23.45,17a5,5,0,0,0-1.53-.21c-1.5,0-2.25,1.11-2.25,3.34s.77,3.13,2.32,3.13A3.63,3.63,0,0,0,23.24,23a4.94,4.94,0,0,0,1-.48l.34-.23.75,1.22-.16.16a5.13,5.13,0,0,1-.48.36,5.73,5.73,0,0,1-.75.45,5.82,5.82,0,0,1-1,.36,4.87,4.87,0,0,1-1.19.16,4.19,4.19,0,0,1-3.23-1.23,5.13,5.13,0,0,1-1.13-3.6,5.35,5.35,0,0,1,1.24-3.75A4.32,4.32,0,0,1,22,15a7.51,7.51,0,0,1,1.53.16,7.23,7.23,0,0,1,1.21.32l.44.16-.07,2.59H23.76Z"/>
    <path class="cls-2" d="M29.31,16.8v6.41H31.4l.29-1.54H33v3.14H26.17V23.62l1-.34V16.8l-1-.41V15.26l4.16-.07v1.2Z"/>
  </g>
</svg>
