<svg id="Layer_1" data-name="Layer 1" xmlns="http://www.w3.org/2000/svg" width="40" height="40" viewBox="0 0 40 40">
  <defs>
    <style>
      .cls-1 {
        fill: red;
      }

      .cls-2 {
        fill: #fff;
      }
    </style>
  </defs>
  <circle class="cls-1" cx="20" cy="20" r="19.62"/>
  <g>
    <path class="cls-2" d="M13,17a4.92,4.92,0,0,0-1.53-.21c-1.49,0-2.24,1.11-2.24,3.34s.77,3.13,2.31,3.13A3.59,3.59,0,0,0,12.76,23a4.69,4.69,0,0,0,1-.48l.34-.23.75,1.22s-.09.09-.16.16a4.58,4.58,0,0,1-.47.36,5.24,5.24,0,0,1-.76.45,5.52,5.52,0,0,1-1,.36,4.8,4.8,0,0,1-1.19.16,4.17,4.17,0,0,1-3.22-1.23,5.13,5.13,0,0,1-1.14-3.6,5.35,5.35,0,0,1,1.24-3.75A4.33,4.33,0,0,1,11.51,15a7.51,7.51,0,0,1,1.53.16,7,7,0,0,1,1.21.32l.44.16-.07,2.59H13.29Z"/>
    <path class="cls-2" d="M19.42,17.31a3.29,3.29,0,0,1,2.54,1,3.83,3.83,0,0,1,.9,2.72,4.07,4.07,0,0,1-1,2.89,3.45,3.45,0,0,1-2.65,1.06q-3.48,0-3.48-3.75a3.94,3.94,0,0,1,1-2.85A3.56,3.56,0,0,1,19.42,17.31Zm-.07,1.57a1.29,1.29,0,0,0-1.14.5,3.13,3.13,0,0,0-.36,1.74,3.39,3.39,0,0,0,.34,1.72,1.21,1.21,0,0,0,1.09.53,1.23,1.23,0,0,0,1.11-.53,3.4,3.4,0,0,0,.35-1.78,3.24,3.24,0,0,0-.33-1.65A1.17,1.17,0,0,0,19.35,18.88Z"/>
    <path class="cls-2" d="M30.52,18.13,30.17,17a4.94,4.94,0,0,0-1.54-.21c-1.51,0-2.27,1.11-2.27,3.34s.77,3.16,2.31,3.16a4.39,4.39,0,0,0,.69-.06q.38-.06.6-.12l.21-.07V21.27l-1-.31V19.84l3.93-.06V21l-.93.31v2.79c-.11.07-.26.15-.46.25a7.22,7.22,0,0,1-1.26.41,8.22,8.22,0,0,1-2,.25,4.17,4.17,0,0,1-3.22-1.23,5.13,5.13,0,0,1-1.14-3.6,5.35,5.35,0,0,1,1.24-3.75A4.35,4.35,0,0,1,28.67,15a7.44,7.44,0,0,1,1.53.16,7.55,7.55,0,0,1,1.23.32l.42.16-.07,2.46Z"/>
  </g>
</svg>
