<svg data-name="Layer 1" xmlns="http://www.w3.org/2000/svg" width="40" height="40"><circle cx="20" cy="20" r="19.62" fill="red"/><path d="M13 17a4.92 4.92 0 00-1.53-.21c-1.49 0-2.24 1.11-2.24 3.34s.77 3.13 2.31 3.13a3.59 3.59 0 001.22-.26 4.69 4.69 0 001-.48l.34-.23.75 1.22-.16.16a4.58 4.58 0 01-.47.36 5.24 5.24 0 01-.76.45 5.52 5.52 0 01-1 .36 4.8 4.8 0 01-1.19.16 4.17 4.17 0 01-3.22-1.23 5.13 5.13 0 01-1.14-3.6 5.35 5.35 0 011.24-3.75A4.33 4.33 0 0111.51 15a7.51 7.51 0 011.53.16 7 7 0 011.21.32l.44.16-.07 2.59h-1.33zm6.42.31a3.29 3.29 0 012.54 1 3.83 3.83 0 01.9 2.72 4.07 4.07 0 01-1 2.89 3.45 3.45 0 01-2.65 1.06q-3.48 0-3.48-3.75a3.94 3.94 0 011-2.85 3.56 3.56 0 012.69-1.07zm-.07 1.57a1.29 1.29 0 00-1.14.5 3.13 3.13 0 00-.36 1.74 3.39 3.39 0 00.34 1.72 1.21 1.21 0 001.09.53 1.23 1.23 0 001.11-.53 3.4 3.4 0 00.35-1.78 3.24 3.24 0 00-.33-1.65 1.17 1.17 0 00-1.06-.53zm11.17-.75L30.17 17a4.94 4.94 0 00-1.54-.21c-1.51 0-2.27 1.11-2.27 3.34s.77 3.16 2.31 3.16a4.39 4.39 0 00.69-.06q.38-.06.6-.12l.21-.07v-1.77l-1-.31v-1.12l3.93-.06V21l-.93.31v2.79c-.11.07-.26.15-.46.25a7.22 7.22 0 01-1.26.41 8.22 8.22 0 01-2 .25 4.17 4.17 0 01-3.22-1.23 5.13 5.13 0 01-1.14-3.6 5.35 5.35 0 011.24-3.75A4.35 4.35 0 0128.67 15a7.44 7.44 0 011.53.16 7.55 7.55 0 011.23.32l.42.16-.07 2.46z" fill="#fff"/></svg>