<svg id="Layer_1" data-name="Layer 1" xmlns="http://www.w3.org/2000/svg" width="40" height="40" viewBox="0 0 40 40">
  <defs>
    <style>
      .cls-1 {
        fill: green;
      }

      .cls-2 {
        fill: #fff;
      }
    </style>
  </defs>
  <circle class="cls-1" cx="20" cy="20" r="19.62"/>
  <g>
    <path class="cls-2" d="M16.58,18.13,16.24,17a4.94,4.94,0,0,0-1.54-.21c-1.52,0-2.27,1.11-2.27,3.34s.77,3.16,2.31,3.16a4.39,4.39,0,0,0,.69-.06,5.42,5.42,0,0,0,.59-.12l.22-.07V21.27l-1-.31V19.84l3.93-.06V21l-.93.31v2.79c-.11.07-.26.15-.46.25a7.22,7.22,0,0,1-1.26.41,8.22,8.22,0,0,1-2,.25,4.17,4.17,0,0,1-3.22-1.23,5.13,5.13,0,0,1-1.14-3.6,5.35,5.35,0,0,1,1.24-3.75A4.33,4.33,0,0,1,14.74,15a7.51,7.51,0,0,1,1.53.16,7.55,7.55,0,0,1,1.23.32l.42.16-.07,2.46Z"/>
    <path class="cls-2" d="M26,15.19l2.93,8.12,1,.31v1.19H25.51V23.62l1-.31-.32-1h-3l-.34,1,1.06.33v1.19H19.79V23.62l1-.31,3-8.07Zm-1.22,2.4-1.08,3.23h2.1Z"/>
  </g>
</svg>
