<svg id="Layer_1" data-name="Layer 1" xmlns="http://www.w3.org/2000/svg" width="40" height="40" viewBox="0 0 40 40">
  <defs>
    <style>
      .cls-1 {
        fill: deepskyblue;
      }

      .cls-2 {
        fill: #fff;
      }
    </style>
  </defs>
  <circle class="cls-1" cx="20" cy="20" r="19.62"/>
  <g>
    <path class="cls-2" d="M13.3,18.13,13,17a5,5,0,0,0-1.54-.21c-1.52,0-2.28,1.11-2.28,3.34s.77,3.16,2.32,3.16a4.39,4.39,0,0,0,.69-.06,6,6,0,0,0,.59-.12L13,23V21.27l-1-.31V19.84l3.92-.06V21l-.93.31v2.79a5,5,0,0,1-.45.25,7.9,7.9,0,0,1-1.26.41,8.28,8.28,0,0,1-2,.25A4.19,4.19,0,0,1,8,23.74a5.13,5.13,0,0,1-1.14-3.6,5.36,5.36,0,0,1,1.25-3.75A4.32,4.32,0,0,1,11.46,15a7.51,7.51,0,0,1,1.53.16,7.67,7.67,0,0,1,1.22.32l.42.16-.06,2.46Z"/>
    <path class="cls-2" d="M22.15,17.76c-.07-.25-.14-.54-.22-.89a3.47,3.47,0,0,0-1.23-.18,1.34,1.34,0,0,0-1,.32,1,1,0,0,0-.33.76,1.05,1.05,0,0,0,.45.91A1.87,1.87,0,0,0,21,19h4.19v1.16l-1,.31v1.45a2.76,2.76,0,0,1-1,2.23,4.12,4.12,0,0,1-2.68.81A3.89,3.89,0,0,1,18,24.23a2.49,2.49,0,0,1-.86-2,2.31,2.31,0,0,1,.21-1,2.65,2.65,0,0,1,.53-.76l.55-.47a2.64,2.64,0,0,1,.44-.26,3.93,3.93,0,0,1-1-.81,2.14,2.14,0,0,1-.44-1.34,2.24,2.24,0,0,1,.92-1.94A4.15,4.15,0,0,1,20.81,15a6.23,6.23,0,0,1,1.53.21,7.51,7.51,0,0,1,1.16.36l-.07,2.16Zm.08,4V20.48h-1a2.62,2.62,0,0,0-1.45.37A1.26,1.26,0,0,0,19.2,22a1.24,1.24,0,0,0,.4,1,1.52,1.52,0,0,0,1.07.36,1.44,1.44,0,0,0,1.56-1.57Z"/>
    <path class="cls-2" d="M30.57,23.62v1.19H26.18V23.62l1-.34V16.8l-1-.41V15.26l3.14-.07h3.81v2.6H31.86l-.34-1h-2.2v2.42h2.82v1.5H29.32v2.56Z"/>
  </g>
</svg>
