<svg data-name="Layer 1" xmlns="http://www.w3.org/2000/svg" width="40" height="40"><circle cx="20" cy="20" r="19.62" fill="#00bfff"/><path d="M13.3 18.13L13 17a5 5 0 00-1.54-.21c-1.52 0-2.28 1.11-2.28 3.34s.77 3.16 2.32 3.16a4.39 4.39 0 00.69-.06 6 6 0 00.59-.12L13 23v-1.73l-1-.31v-1.12l3.92-.06V21l-.93.31v2.79a5 5 0 01-.45.25 7.9 7.9 0 01-1.26.41 8.28 8.28 0 01-2 .25A4.19 4.19 0 018 23.74a5.13 5.13 0 01-1.14-3.6 5.36 5.36 0 011.25-3.75A4.32 4.32 0 0111.46 15a7.51 7.51 0 011.53.16 7.67 7.67 0 011.22.32l.42.16-.06 2.46zm8.85-.37c-.07-.25-.14-.54-.22-.89a3.47 3.47 0 00-1.23-.18 1.34 1.34 0 00-1 .32 1 1 0 00-.33.76 1.05 1.05 0 00.45.91A1.87 1.87 0 0021 19h4.19v1.16l-1 .31v1.45a2.76 2.76 0 01-1 2.23 4.12 4.12 0 01-2.68.81 3.89 3.89 0 01-2.51-.73 2.49 2.49 0 01-.86-2 2.31 2.31 0 01.21-1 2.65 2.65 0 01.53-.76l.55-.47a2.64 2.64 0 01.44-.26 3.93 3.93 0 01-1-.81 2.14 2.14 0 01-.44-1.34 2.24 2.24 0 01.92-1.94 4.15 4.15 0 012.46-.65 6.23 6.23 0 011.53.21 7.51 7.51 0 011.16.36l-.07 2.16zm.08 4v-1.28h-1a2.62 2.62 0 00-1.45.37A1.26 1.26 0 0019.2 22a1.24 1.24 0 00.4 1 1.52 1.52 0 001.07.36 1.44 1.44 0 001.56-1.57zm8.34 1.86v1.19h-4.39v-1.19l1-.34V16.8l-1-.41v-1.13l3.14-.07h3.81v2.6h-1.27l-.34-1h-2.2v2.42h2.82v1.5h-2.82v2.56z"/></svg>
