<svg id="Layer_1" data-name="Layer 1" xmlns="http://www.w3.org/2000/svg" width="40" height="40" viewBox="0 0 40 40">
  <defs>
    <style>
      .cls-1 {
        fill: gold;
      }

      .cls-2 {
        fill: #000;
      }
    </style>
  </defs>
  <circle class="cls-1" cx="19.99" cy="20" r="19.62"/>
  <g>
    <path class="cls-2" d="M8.87,21.84,9.08,23a2.84,2.84,0,0,0,1.33.28A2.27,2.27,0,0,0,11.59,23a.93.93,0,0,0,.47-.81.78.78,0,0,0-.34-.64,2.43,2.43,0,0,0-.85-.43,10.18,10.18,0,0,1-1.11-.4,11.48,11.48,0,0,1-1.11-.54,2.32,2.32,0,0,1-.85-.88,2.6,2.6,0,0,1-.34-1.37,2.57,2.57,0,0,1,1-2.13,3.94,3.94,0,0,1,2.5-.76,8.13,8.13,0,0,1,1.43.14,8.9,8.9,0,0,1,1.16.27l.41.14-.07,2.48H12.6l-.35-1.16a3.87,3.87,0,0,0-1.2-.2A1.76,1.76,0,0,0,10,17a.83.83,0,0,0-.38.7.81.81,0,0,0,.34.64,2.71,2.71,0,0,0,.85.43,10.18,10.18,0,0,1,1.11.4,10.2,10.2,0,0,1,1.1.53,2.28,2.28,0,0,1,.85.84,2.46,2.46,0,0,1,.34,1.31,2.84,2.84,0,0,1-1,2.33,4,4,0,0,1-2.65.84,9.38,9.38,0,0,1-1.44-.13,9.58,9.58,0,0,1-1.19-.27l-.41-.12V21.84Z"/>
    <path class="cls-2" d="M21.24,15.19l2.93,8.11.95.31V24.8H20.79V23.61l1-.31-.33-1h-3l-.34,1,1.06.32V24.8H15.06V23.61l1-.31,3-8.07ZM20,17.59l-1.08,3.23H21Z"/>
    <path class="cls-2" d="M28.86,16.8v6.4h2.08l.3-1.54h1.3V24.8H25.72V23.61l1-.34V16.8l-1-.41V15.26l4.16-.07v1.2Z"/>
  </g>
</svg>
