<svg data-name="Layer 1" xmlns="http://www.w3.org/2000/svg" width="40" height="40"><circle cx="19.99" cy="20" r="19.62" fill="purple"/><path d="M6.41 24.81l-2.2-8-1-.4v-1.15l4.05-.07v1.2l-1 .41 1.17 4.94 1.96-6.44 1.84-.11 1.82 6.53 1.31-4.92-1-.41v-1.13l3.88-.07v1.2l-1 .41-2.33 8H12l-1.79-6.48c-.22.89-.58 2.15-1.07 3.77s-.77 2.52-.82 2.71zm16.69-7.05c-.07-.25-.14-.54-.22-.89a3.47 3.47 0 00-1.23-.18 1.37 1.37 0 00-1 .32 1 1 0 00-.33.76 1 1 0 00.46.91 1.83 1.83 0 001.11.33h4.18v1.16l-.95.31v1.45a2.73 2.73 0 01-1 2.23 4.1 4.1 0 01-2.68.81 3.9 3.9 0 01-2.59-.74 2.49 2.49 0 01-.86-2 2.31 2.31 0 01.21-1 2.65 2.65 0 01.53-.76c.22-.19.4-.35.56-.47a2.59 2.59 0 01.43-.26 3.68 3.68 0 01-1-.81 2.15 2.15 0 01-.45-1.34 2.24 2.24 0 01.92-1.94 4.15 4.15 0 012.57-.65 6.23 6.23 0 011.53.21 7.51 7.51 0 011.16.36l-.07 2.16zm.08 4v-1.28h-1a2.66 2.66 0 00-1.45.37 1.26 1.26 0 00-.58 1.15 1.27 1.27 0 00.4 1 1.53 1.53 0 001.08.36 1.58 1.58 0 001.14-.41 1.59 1.59 0 00.41-1.21zm9.68-6.57l2.93 8.12 1 .31v1.19h-4.38v-1.19l1-.31-.33-1h-3l-.34 1 1.06.33v1.19h-4.12v-1.21l1-.31 3-8.07zm-1.23 2.4l-1.08 3.23h2.1z" fill="#fff"/></svg>