<svg id="Layer_1" data-name="Layer 1" xmlns="http://www.w3.org/2000/svg" width="40" height="40" viewBox="0 0 40 40">
  <defs>
    <style>
      .cls-1 {
        fill: purple;
      }

      .cls-2 {
        fill: #fff;
      }
    </style>
  </defs>
  <circle class="cls-1" cx="19.99" cy="20" r="19.62"/>
  <g>
    <path class="cls-2" d="M6.41,24.81l-2.2-8-1-.4V15.26l4.05-.07v1.2l-1,.41,1.17,4.94L9.39,15.3l1.84-.11,1.82,6.53,1.31-4.92-1-.41V15.26l3.88-.07v1.2l-1,.41-2.33,8H12l-1.79-6.48c-.22.89-.58,2.15-1.07,3.77s-.77,2.52-.82,2.71Z"/>
    <path class="cls-2" d="M23.1,17.76c-.07-.25-.14-.54-.22-.89a3.47,3.47,0,0,0-1.23-.18,1.37,1.37,0,0,0-1,.32,1,1,0,0,0-.33.76,1,1,0,0,0,.46.91,1.83,1.83,0,0,0,1.11.33h4.18v1.16l-.95.31v1.45a2.73,2.73,0,0,1-1,2.23,4.1,4.1,0,0,1-2.68.81,3.9,3.9,0,0,1-2.59-.74,2.49,2.49,0,0,1-.86-2,2.31,2.31,0,0,1,.21-1,2.65,2.65,0,0,1,.53-.76c.22-.19.4-.35.56-.47a2.59,2.59,0,0,1,.43-.26,3.68,3.68,0,0,1-1-.81,2.15,2.15,0,0,1-.45-1.34,2.24,2.24,0,0,1,.92-1.94A4.15,4.15,0,0,1,21.76,15a6.23,6.23,0,0,1,1.53.21,7.51,7.51,0,0,1,1.16.36l-.07,2.16Zm.08,4V20.48h-1a2.66,2.66,0,0,0-1.45.37A1.26,1.26,0,0,0,20.15,22a1.27,1.27,0,0,0,.4,1,1.53,1.53,0,0,0,1.08.36,1.58,1.58,0,0,0,1.14-.41A1.59,1.59,0,0,0,23.18,21.74Z"/>
    <path class="cls-2" d="M32.86,15.19l2.93,8.12,1,.31v1.19H32.41V23.62l1-.31-.33-1h-3l-.34,1,1.06.33v1.19H26.68V23.62l1-.31,3-8.07Zm-1.23,2.4-1.08,3.23h2.1Z"/>
  </g>
</svg>
