<svg xmlns="http://www.w3.org/2000/svg" xmlns:xlink="http://www.w3.org/1999/xlink" viewBox="0 0 37.2 37.2"><defs><circle id="A" cx="18.6" cy="18.6" r="18.6"/><path id="B" d="M18.553 16.26q.384-.736.912-1.152.528-.424 1.248-.424.568 0 .912.248l-.128 1.48q-.04.144-.12.208-.072.056-.2.056-.12 0-.36-.04-.232-.04-.456-.04-.328 0-.584.096-.256.096-.464.28-.2.176-.36.432-.152.256-.288.584v5.056h-1.976v-8.208h1.16q.304 0 .424.112.12.104.16.384z"/></defs><clipPath id="C"><use xlink:href="#A"/></clipPath><path d="m42.6 18.6c0-13.3-10.7-24-24-24s-24 10.7-24 24 10.7 24 24 24 24-10.7 24-24" clip-path="url(#C)" fill="#00f" fill-rule="evenodd"/><g fill="#fff"><path d="M3.201 23.044v-6.72l-.712-.112q-.232-.048-.376-.16-.136-.12-.136-.336v-.808h1.224V14.3q0-.704.208-1.264.216-.56.608-.952.4-.392.968-.6.568-.208 1.28-.208.568 0 1.056.152l-.04.992q-.008.112-.064.184-.056.064-.152.104-.088.032-.208.048-.12.008-.256.008-.352 0-.632.08-.272.072-.464.264-.192.184-.296.496-.096.304-.096.76v.544h2.136v1.408H5.177v6.728zm10.232-5.048q0-.384-.112-.72-.104-.344-.32-.6-.216-.256-.552-.4-.328-.152-.768-.152-.856 0-1.352.488-.488.488-.624 1.384zm-3.768 1.192q.048.632.224 1.096.176.456.464.76.288.296.68.448.4.144.88.144.48 0 .824-.112.352-.112.608-.248.264-.136.456-.248.2-.112.384-.112.248 0 .368.184l.568.72q-.328.384-.736.648-.408.256-.856.416-.44.152-.904.216-.456.064-.888.064-.856 0-1.592-.28-.736-.288-1.28-.84-.544-.56-.856-1.376-.312-.824-.312-1.904 0-.84.272-1.576.272-.744.776-1.288.512-.552 1.24-.872.736-.32 1.656-.32.776 0 1.432.248.656.248 1.128.728.472.472.736 1.168.272.688.272 1.576 0 .448-.096.608-.096.152-.368.152z"/><use xlink:href="#B"/><use xlink:href="#B" x="5.968"/><path d="M36.081 14.836L31.609 25.3q-.088.208-.232.312-.136.112-.424.112h-1.472l1.536-3.296-3.32-7.592h1.736q.232 0 .36.112.136.112.2.256l1.744 4.256q.088.216.144.432.064.216.12.44.072-.224.144-.44.072-.224.16-.44l1.648-4.248q.064-.16.208-.264.152-.104.336-.104z"/></g></svg>