<svg xmlns="http://www.w3.org/2000/svg" width="256.021" height="231.148" viewBox="0 0 67.739 61.158"><path d="M.439.44h66.86v60.28H.439z" fill="#fff" stroke="#000" stroke-width=".879"/><path d="M4.798 7.248h9.285v28.987h16.302v7.018H4.797zm49.461 31.423q-1.785 2.363-3.931 3.473-2.146 1.109-4.968 1.109-4.944 0-8.175-3.883-3.231-3.907-3.231-9.936 0-6.053 3.231-9.912 3.231-3.883 8.175-3.883 2.822 0 4.968 1.109 2.146 1.109 3.931 3.497v-4.003h8.682v24.284q0 6.511-4.124 9.936-4.1 3.448-11.913 3.448-2.532 0-4.895-.386-2.363-.386-4.751-1.182v-6.728q2.267 1.302 4.437 1.929 2.17.651 4.365.651 4.244 0 6.222-1.857 1.977-1.857 1.977-5.812zm-5.691-16.809q-2.677 0-4.172 1.977-1.495 1.977-1.495 5.595 0 3.714 1.447 5.643 1.447 1.905 4.22 1.905 2.701 0 4.196-1.977 1.495-1.977 1.495-5.571 0-3.617-1.495-5.595-1.495-1.977-4.196-1.977z"/></svg>