<svg xmlns="http://www.w3.org/2000/svg" width="32" height="32" viewBox="-16 -16 32 32"><circle r="15" fill="#fff" opacity=".99" stroke="#000"/><path d="M-5.549 1.144h-3.104V4.44h-1.608V1.144h-3.088V-.32h3.088V-3.6h1.608v3.28h3.104zm9.016 3.16v1.48h-6.4v-1.48h2.344V-2.44q0-.4.024-.824l-1.664 1.392q-.144.112-.288.144-.136.024-.264 0-.12-.024-.216-.08-.096-.064-.144-.136l-.624-.856 3.528-3h1.624V4.304zM13.347 0q0 1.512-.328 2.632-.32 1.112-.896 1.84-.568.728-1.352 1.088-.776.352-1.68.352-.904 0-1.68-.352-.768-.36-1.336-1.088-.568-.728-.888-1.84-.32-1.12-.32-2.632 0-1.52.32-2.632.32-1.112.888-1.84.568-.728 1.336-1.08.776-.36 1.68-.36.904 0 1.68.36.784.352 1.352 1.08.576.728.896 1.84.328 1.112.328 2.632zm-2.04 0q0-1.256-.184-2.08-.184-.824-.496-1.312-.304-.488-.704-.68-.4-.2-.832-.2-.424 0-.824.2-.392.192-.696.68-.304.488-.488 1.312-.176.824-.176 2.08 0 1.256.176 2.08.184.824.488 1.312.304.488.696.688.4.192.824.192.432 0 .832-.192.4-.2.704-.688.312-.488.496-1.312.184-.824.184-2.08z"/></svg>