<svg xmlns="http://www.w3.org/2000/svg" xmlns:xlink="http://www.w3.org/1999/xlink" width="256.02" height="231.15" viewBox="0 0 67.739 61.158"><path d="M.439.44h66.86v60.28H.439z" fill="#fff" stroke="#000" stroke-width=".879"/><path d="M17.031 32.705h-5.767v6.124H8.276v-6.124H2.539v-2.72h5.737v-6.094h2.988v6.094h5.767zm15.357 5.871v2.75H20.497v-2.75h4.355v-12.53q0-.743.045-1.531l-3.092 2.586q-.268.208-.535.268-.253.045-.49 0-.223-.045-.401-.149-.178-.119-.268-.253l-1.159-1.59 6.555-5.574h3.017v18.772z"/><use xlink:href="#B"/><use xlink:href="#B" x="15.848"/><defs ><path id="B" d="M49.351 30.58q0 2.809-.609 4.89-.595 2.066-1.665 3.419-1.055 1.353-2.512 2.021-1.442.654-3.121.654-1.68 0-3.121-.654-1.427-.669-2.482-2.021-1.055-1.353-1.65-3.419-.595-2.081-.595-4.89 0-2.824.595-4.89.595-2.066 1.65-3.419 1.055-1.353 2.482-2.006 1.442-.669 3.121-.669 1.68 0 3.121.669 1.457.654 2.512 2.006 1.07 1.353 1.665 3.419.609 2.066.609 4.89zm-3.79 0q0-2.334-.342-3.864-.342-1.531-.922-2.438-.565-.907-1.308-1.263-.743-.372-1.546-.372-.788 0-1.531.372-.728.357-1.293 1.263-.565.907-.907 2.438-.327 1.531-.327 3.864 0 2.334.327 3.864.342 1.531.907 2.438.565.907 1.293 1.278.743.357 1.531.357.803 0 1.546-.357.743-.372 1.308-1.278.58-.907.922-2.438.342-1.531.342-3.864z"/></defs></svg>