<svg enable-background="new 0 0 1000 1000" version="1.1" viewBox="0 0 1e3 1e3" xml:space="preserve" xmlns="http://www.w3.org/2000/svg"><g transform="translate(-.02 .0052786)"><g transform="matrix(.1 0 0 -.1 0 512)"><path d="m4781.3 4993c-216.8-51.8-448.8-230.2-556.3-427.7-138.1-257-138.1-592.7 1.9-849.8 63.3-117 259-301.1 379.8-360.6l90.2-44.1-11.5-86.3c-5.8-48-11.5-214.8-11.5-370.2v-285.8h-1085.6l-67.1 69.1c-109.3 113.2-197.6 151.5-362.5 151.5-163 0-255.1-38.4-356.8-147.7-103.6-109.3-132.3-182.2-132.3-341.4s28.8-232.1 132.3-341.4c101.7-109.3 193.7-147.7 356.8-147.7 165 0 253.2 38.4 362.5 151.5l67.1 69h1062.6l-7.7-176.5c-5.8-97.8-34.5-1083.8-65.2-2192.5-32.6-1106.8-67.1-2090.8-76.7-2186.7-30.7-264.7-90.2-445-174.6-529.4-212.9-212.9-759.6-228.3-1160.5-36.4-410.5 197.6-782.6 571.6-1030 1035.8-140 264.7-143.9 249.4 71 249.4 203.3 0 241.7 9.6 241.7 55.6 0 49.9-861.3 1239.1-901.5 1244.9-19.2 3.8-44.1-9.6-53.7-28.8-26.9-51.8-368.3-1377.2-368.3-1430.9 0-26.9 13.4-53.7 30.7-59.5s115.1 21.1 220.6 63.3l189.9 74.8 21.1-80.5c113.2-420.1 287.7-826.7 491.1-1133.7 168.8-253.2 523.7-610 773-774.9 387.5-257 868.9-450.8 1459.7-583.1 324.2-72.9 454.6-126.6 596.6-247.4l92.1-74.8 92.1 74.8c142 120.8 272.4 174.6 596.6 247.4 851.7 191.8 1409.8 469.9 1874 934.1 406.7 408.6 636.8 822.9 832.5 1500l38.4 138.1 189.9-74.8c201.4-78.7 251.3-80.6 251.3-5.7 0 53.7-341.4 1383-368.3 1432.8-9.6 19.2-34.5 32.6-53.7 28.8-42.2-5.8-901.5-1195-901.5-1244.9 0-46 38.4-55.6 241.7-55.6 209.1 0 203.3 7.7 107.4-182.2-251.3-502.6-669.4-924.6-1108.7-1124-322.3-147.7-790.3-151.5-1030-11.5-103.6 61.4-151.5 122.8-193.8 251.3-72.9 216.7-88.2 454.6-145.8 2524.3-30.7 1124-61.4 2117.6-67.1 2211.6l-9.6 166.9h1066.4l67.1-69c109.3-113.2 197.6-151.5 362.5-151.5 163 0 255.1 38.4 356.8 147.7 103.6 109.3 132.4 182.2 132.4 341.4s-28.8 232.1-132.4 341.4c-101.7 109.3-193.7 147.7-356.8 147.7-165 0-253.2-38.4-362.5-151.5l-67.1-69.1h-1085.6v285.8c0 155.4-5.8 322.3-11.5 370.2l-11.5 86.3 90.2 44.1c120.8 59.5 303.1 230.2 372.1 352.9 149.6 260.9 153.4 592.7 9.6 857.4-65.2 117-234 285.8-351 351-192.2 103.6-420.5 130.4-643 76.7zm439.3-406.6c90.1-46 182.2-140 232.1-234 25-48 36.5-107.4 36.5-211 0-159.2-28.8-232.1-132.4-341.4-101.7-109.3-193.7-147.7-356.8-147.7-163 0-255.1 38.4-356.8 147.7-103.6 109.3-132.4 182.2-132.4 341.4s28.8 232.1 132.4 341.4c59.5 65.2 134.3 111.3 222.5 140 78.7 26.9 272.4 5.7 354.9-36.4z"/></g></g></svg>
