<svg width="262.46pt" height="274.78pt" version="1.0" viewBox="0 0 262.46 274.78" xmlns="http://www.w3.org/2000/svg"><g transform="matrix(.1 0 0 -.1 -91.453 338.74)"><path d="m1414 3380c-101-20-205-104-254-205-22-43-25-64-25-155 0-95 3-110 27-156 37-70 74-111 133-149 70-45 117-58 205-58l76 1 56-100-31-28c-19-18-31-39-31-54 0-21-24-38-191-134l-192-111-38 26c-46 30-117 41-159 23-134-55-79-324 82-404 62-31 102-33 145-6 47 28 67 74 66 145l-1 60 188 108c169 97 190 106 215 97 14-5 37-7 49-4 22 5 32-12 144-229 67-129 147-281 178-338 86-156 199-394 228-481 25-74 33-152 18-174-25-38-145-57-272-43-143 16-400 85-400 108 0 4 21 19 48 34 43 24 49 31 75 102 16 42 27 79 24 82-4 4-628-24-664-30-15-2-2-24 221-371 95-149 177-271 183-273 15-5 23 47 23 158 0 55 3 99 8 99 4 0 34-19 67-41 69-48 337-179 410-202 187-59 464-47 654 27 204 81 394 252 491 445 59 118 79 227 90 486 10 237 16 299 28 293 4-2 48-24 97-49 92-47 139-64 154-54 8 4-334 644-356 666-7 7-42-42-98-133-48-79-128-208-177-287s-87-145-84-148c2-2 36-9 75-14 67-9 73-9 114 15 66 39 70 37 65-41-6-74-57-239-111-356-37-80-122-180-165-195-29-10-70 2-102 30-48 41-186 244-515 757-156 244-186 296-177 310 13 18 28 47 35 72 3 9 89 64 191 123l185 107 41-27c51-34 124-43 168-20 94 49 87 226-13 345-33 39-116 81-160 81-41 0-90-32-111-71-9-19-17-59-18-92l-1-59-188-109c-171-98-190-107-213-97-19 9-33 9-58 0-18-7-35-12-38-12-8 0-58 86-58 99 0 5 13 29 29 53 61 90 75 200 41 309-57 181-237 286-426 249zm128-180c76-21 138-102 138-180s-62-156-140-178c-116-31-230 56-230 175 0 92 48 158 130 181 47 14 59 14 102 2z"/></g></svg>
