<svg id="Layer_1" data-name="Layer 1" xmlns="http://www.w3.org/2000/svg" viewBox="0 0 29 29"><defs><style>.cls-1{fill:#fff;}.cls-2{fill:#3184c6;}</style></defs><circle class="cls-1" cx="14.5" cy="14.5" r="14" transform="translate(-2.96 25.25) rotate(-76.63)"/><path class="cls-2" d="M14.5,1.41A13,13,0,0,0,1.67,14.5,13,13,0,0,0,14.5,27.59,13,13,0,0,0,27.33,14.5,13,13,0,0,0,14.5,1.41Zm0,25.12a11.58,11.58,0,0,1-5.93-1.62H20.43A11.57,11.57,0,0,1,14.51,26.53Zm7.16-2.46H7.34a12.14,12.14,0,0,1-4.4-7.13H26.07A12,12,0,0,1,21.67,24.07ZM2.78,15.91a11.16,11.16,0,0,1-.08-1.42,11.92,11.92,0,0,1,11.81-12A11.93,11.93,0,0,1,26.32,14.49a11.52,11.52,0,0,1-.09,1.45Z"/><path class="cls-2" d="M14.56,3a.17.17,0,0,0-.14.18.48.48,0,0,0,.08.26.54.54,0,0,0-.14.35,1.28,1.28,0,0,0,.07.39l-.17.28h.58l-.14-.22a.32.32,0,0,1,0-.26,1.16,1.16,0,0,0,0-.52S14.76,3,14.56,3Z"/><path class="cls-2" d="M14.39,4.62a1.51,1.51,0,0,1,.36,0l0,.15s0,0,.05.06.07.07.07.07l0,.08s0,.06.06.07,0,.05,0,.05a.18.18,0,0,0,.08.07.64.64,0,0,1,.29.17.25.25,0,0,1,0,.29.32.32,0,0,0-.08-.16,1.06,1.06,0,0,0-.71-.21s-.6,0-.78.25l0,.05a.11.11,0,0,1,0,0s-.07,0-.06-.2a.27.27,0,0,1,.19-.2l.22-.07,0-.06a.1.1,0,0,1,.06,0A.15.15,0,0,0,14.22,5s0-.07.09-.13l0,0V4.68S14.31,4.63,14.39,4.62Z"/><path class="cls-2" d="M15.57,13a7.81,7.81,0,0,0-.86-.05v1.7c.3,0,.58,0,.86,0Z"/><path class="cls-2" d="M16.61,13.12c-.23,0-.47-.09-.73-.12v1.67l.73.07Z"/><path class="cls-2" d="M17.58,13.33,17,13.18v1.6l.63.1Z"/><path class="cls-2" d="M18.39,13.59s-.2-.08-.54-.18v1.51l.54.11Z"/><path class="cls-2" d="M19,15.16l-.33-.08V13.71a1,1,0,0,1,.33.36Z"/><path class="cls-2" d="M10.52,15.11l-.3.08h0V13.93a1.37,1.37,0,0,1,.3-.25Z"/><path class="cls-2" d="M11.3,13.38l-.52.18v1.49l.52-.11Z"/><path class="cls-2" d="M12.24,13.14l-.65.16v1.59l.65-.11V13.14Z"/><path class="cls-2" d="M13.3,13c-.27,0-.53.06-.76.11v1.65l.76-.07Z"/><path class="cls-2" d="M14.35,12.91c-.26,0-.51,0-.75,0v1.7q.36,0,.75,0Z"/><path class="cls-2" d="M14.53,12.12a11.37,11.37,0,0,0-4.26.8c-.09,0-.09.1-.09.1a.14.14,0,0,1-.07.07.1.1,0,0,0,0,.09.11.11,0,0,1,0,.08.46.46,0,0,0-.12.17.35.35,0,0,0,.12.28c0,.12.07.13.07.13a.89.89,0,0,1,.44-.37,10.31,10.31,0,0,1,4-.73,10.93,10.93,0,0,1,4,.73,1.7,1.7,0,0,1,.5.34l0,0a0,0,0,0,0,0,0s0,0,0-.09.28-.23.08-.39l-.13-.1a.13.13,0,0,1-.07-.12c0-.1-.14-.16-.14-.16A11.46,11.46,0,0,0,14.53,12.12Z"/><path class="cls-2" d="M18.05,12.42l.24.08v-.45a1.63,1.63,0,0,0-.17-.35.19.19,0,0,0-.07-.07Z"/><path class="cls-2" d="M17.32,12.22l.5.13v-.84c-.17-.09-.33-.16-.5-.23Z"/><path class="cls-2" d="M15.27,11.91l.79.08V10.91a7.38,7.38,0,0,0-.79-.11Z"/><path class="cls-2" d="M14.13,11.91h.79V10.77h-.79Z"/><path class="cls-2" d="M13,12c.26,0,.53-.06.82-.08V10.79c-.24,0-.52.06-.82.12Z"/><path class="cls-2" d="M12,12.18c.21,0,.44-.09.69-.13V11a6.45,6.45,0,0,0-.68.2Z"/><path class="cls-2" d="M11.26,12.35l.47-.12v-1l-.48.22Z"/><path class="cls-2" d="M11,11.62a1.12,1.12,0,0,0-.2.4v.47l.2-.07Z"/><path class="cls-2" d="M16.37,12V11a6.34,6.34,0,0,1,.68.19v1C16.8,12.11,16.58,12.06,16.37,12Z"/><path class="cls-2" d="M10.78,11.74a.43.43,0,0,1-.16-.35.42.42,0,0,1,.21-.35.38.38,0,0,1,0-.25c.08-.13.15-.14.15-.14a.17.17,0,0,1,0-.12.1.1,0,0,1,.1,0s0,0,0-.1a.13.13,0,0,1,.1,0s0,0,0,0l0,0a.11.11,0,0,1,0,0,8.31,8.31,0,0,1,3.16-.64,7.51,7.51,0,0,1,3.17.66.13.13,0,0,1,.09.13h.06s.06,0,.07,0,0,0,0,0a0,0,0,0,0,0,0l.06,0a.08.08,0,0,1,.07.08c0,.07,0,.08,0,.08a.51.51,0,0,1,.18.28.3.3,0,0,0,.08.15.5.5,0,0,1,.16.34.42.42,0,0,1-.15.31s0,0,0,0a.49.49,0,0,0-.26-.36,7.6,7.6,0,0,0-3.55-.83,7.74,7.74,0,0,0-3.5.82.43.43,0,0,0-.16.16.37.37,0,0,0-.07.2S10.8,11.76,10.78,11.74Z"/><path class="cls-2" d="M14.4,9.39c-.29,0-.57,0-.83.06a5.16,5.16,0,0,1,.49-2,2.22,2.22,0,0,1,.37,0A17.57,17.57,0,0,0,14.4,9.39Z"/><path class="cls-2" d="M11.78,9.87l-.32.13s.4-1.57,1.2-2a3.84,3.84,0,0,0-.88,1.9Z"/><path class="cls-2" d="M12.47,9.65,12,9.8s.35-1.67,1.35-2.12A3.7,3.7,0,0,0,12.47,9.65Z"/><path class="cls-2" d="M12.67,9.6c.21,0,.44-.09.69-.13a6.46,6.46,0,0,1,.52-2,3,3,0,0,0-.35.09A4.76,4.76,0,0,0,12.67,9.6Z"/><path class="cls-2" d="M15.43,9.44l-.76,0a10.29,10.29,0,0,0-.07-1.94,3.17,3.17,0,0,1,.37,0A5.26,5.26,0,0,1,15.43,9.44Z"/><path class="cls-2" d="M17.07,9.8l-.52-.15a3.79,3.79,0,0,0-.69-1.88A3.2,3.2,0,0,1,17.07,9.8Z"/><path class="cls-2" d="M17.62,10a3.26,3.26,0,0,0-.35-.14,4.1,4.1,0,0,0-.78-1.77A2.88,2.88,0,0,1,17.62,10Z"/><path class="cls-2" d="M16.34,9.6a6.18,6.18,0,0,0-.67-.12,5.57,5.57,0,0,0-.45-1.95l.3.1A3.66,3.66,0,0,1,16.34,9.6Z"/><path class="cls-2" d="M15.86,7.5a.07.07,0,0,0,0,0l-.08,0a.13.13,0,0,1-.06-.08V7.19s0-.06,0-.06l-.21-.06c-.08,0-.09-.08-.09-.08V6.87a.07.07,0,0,0,0,0l-.07,0c-.05,0-.06,0-.06,0V5.62a.1.1,0,0,0,0-.07A.52.52,0,0,0,15,5.46a1.28,1.28,0,0,0-.87,0,.5.5,0,0,0-.2.11.26.26,0,0,0-.06.14l0,1s0,0,0,0l-.06,0s0,0,0,0l0,.13a.09.09,0,0,1,0,.08l-.16.06c-.09,0-.1.1-.1.1l0,.14a.12.12,0,0,1-.07.07c-.07,0-.08.07-.08.07v0s0,0,0,0l.06,0a2.93,2.93,0,0,1,1.21-.24,2.82,2.82,0,0,1,1.28.28s0,0,0,0ZM14.11,6.43l-.12,0V5.79l.12,0Zm.16-.06V5.59h.1v.77Zm.5,0-.13,0V5.57l.13,0Zm.28.13h-.12V5.72h0l.11,0Z"/><path class="cls-2" d="M14.53,14.89a18.08,18.08,0,0,1,5.23.79H9.4A16.18,16.18,0,0,1,14.53,14.89Z"/><path class="cls-2" d="M11.66,20.13a2,2,0,0,0-.63-.2,1.24,1.24,0,0,0,.78-1.24,1.32,1.32,0,0,0-1.4-1.24H7.19v.21a.52.52,0,0,1,.38.26,1,1,0,0,1,.13.51V22.7a.52.52,0,0,1-.51.49v.21H10.5a2,2,0,0,0,2.11-1.74A1.59,1.59,0,0,0,11.66,20.13ZM9,18.05h.59a.88.88,0,0,1,.86.89c0,.43-.26.85-1.11.85H9Zm2.11,3.49a1,1,0,0,1-1,1H9V20.43H10a1.09,1.09,0,0,1,1.17,1.07Z"/><path class="cls-2" d="M17.25,22.71a.44.44,0,0,1-.6-.28l-.08-.25a1.52,1.52,0,0,1,.41-.39l-.2-.53a2.36,2.36,0,0,0-.38.24,2.7,2.7,0,0,0-.72-1.14l.05,0a.93.93,0,0,0,.52-.85,1,1,0,0,0-.69-.95,1.47,1.47,0,0,0-1.31,0,1,1,0,0,0-.47,1.16.86.86,0,0,0,.48.54l.1.05a1.6,1.6,0,0,0-1.09,1.49,1.59,1.59,0,0,0,1.61,1.59h0a1.61,1.61,0,0,0,1.24-.57c.08.14.34.54.66.54a.81.81,0,0,0,.6-.28Zm-2-3.66a.51.51,0,0,1,.56.44.57.57,0,1,1-.56-.44Zm.54,3.11a.78.78,0,0,1-.95.29.94.94,0,0,1-.54-.76.93.93,0,0,1,.43-.76l.33-.19.11.08a2.34,2.34,0,0,1,.65,1,1.51,1.51,0,0,1,.08.21A.76.76,0,0,0,15.75,22.16Z"/><path class="cls-2" d="M20.28,17.44a2.93,2.93,0,0,0-2.73,3,2.87,2.87,0,0,0,2.73,2.93A2.79,2.79,0,0,0,23,20.39,2.85,2.85,0,0,0,20.28,17.44Zm0,5.1c-.85,0-1.29-1-1.29-2.18s.43-2.18,1.29-2.18,1.29,1,1.29,2.18S21.21,22.55,20.31,22.54Z"/></svg>