<svg xmlns="http://www.w3.org/2000/svg" width="200" height="200" viewBox="0 0 200 200">
    <circle class="color-blue color-main" fill="#00548f" cx="100" cy="100" r="100"/>
    <path class="color-white" fill="#fff" d="M99.002849 6.552702H100c20.65527 0 39.60114 6.837608 56.83761 20.370372 7.12251 6.267806 12.25071 11.538462 15.52707 16.239317C185.04274 60.683759 191.453 79.487179 191.453 99.57265v2.2792c0 20.94017-6.83761 40.31339-20.51283 58.26211-5.698 6.83761-11.11111 12.10827-15.95441 15.66952-11.53846 8.68946-23.93163 14.52991-37.03704 17.23647-6.26781 1.1396-11.96581 1.7094-17.37892 1.7094h-2.849002c-18.66097 0-36.467238-6.12536-53.561256-18.23362-3.276354-2.42165-7.264958-5.98291-11.823363-10.68376-8.689459-9.82906-14.957265-19.65812-18.660969-29.48718-4.558405-11.53846-6.837607-23.07693-6.837607-34.04559v-2.849001c0-18.376069 5.413105-35.897437 16.524217-52.706555 2.706553-3.988604 6.837607-8.831909 12.678063-14.529915 6.980058-6.410256 12.820514-10.826211 17.806269-13.390314 14.529915-8.119658 29.34473-12.250713 45.156697-12.250713zM14.672361 100.5698c.14245 3.7037.2849 6.98006.712251 10.11396 78.347581.2849 134.472938.2849 168.233628.2849.42735-2.849.71225-5.98291.71225-9.25926v-2.13675c0-17.521369-5.27066-34.045586-16.09687-49.857552-2.13675-3.133904-5.98291-7.692308-11.53846-13.390314-16.95157-14.957266-36.03989-22.364674-56.83761-22.364674h-.569801c-20.940172 0-39.743591 7.407408-56.410259 22.222223-5.840456 5.698006-9.401709 9.686611-10.826211 11.823363C20.370367 63.817662 14.672361 81.339031 14.672361 100.5698zm1.851852 17.66382c1.139601 5.1282 2.564103 9.97151 4.131054 14.24501 2.421653 6.41026 5.698006 12.39317 9.54416 18.23362 2.279202 3.56126 6.410257 8.11966 12.108263 13.96012 3.561254 3.1339 5.555556 4.8433 5.982906 4.8433H150.8547c5.84046-4.5584 11.39601-9.97151 16.38177-16.66666 3.9886-5.69801 6.83761-10.68377 8.54701-14.67237 2.13675-3.9886 4.41595-10.54131 6.55271-19.65812zm30.626782 3.56125H70.94017c2.849003 0 5.413105 1.4245 7.834758 4.13106 1.139601 1.4245 1.566951 2.99145 1.566951 4.8433v.14245c0 3.98861-1.709401 6.98006-5.128205 8.83191 1.994302 0 4.558405 1.1396 7.549858 3.41881 2.279202 2.2792 3.418804 4.98575 3.418804 8.2621v.99715c0 4.70086-2.991454 8.26211-8.97436 11.25357-1.994302.71225-3.846154.99715-5.128205.99715H47.293445c-.14245 0-.2849-.14245-.2849-.2849v-1.1396c0-.14245.71225-.2849 1.851852-.5698 1.282051-.99716 1.851852-2.13676 1.851852-3.56126v-30.34188c0-2.42165-.997151-4.2735-2.849003-5.1282-.569801-.14245-.854701-.42736-.854701-.56981v-1.1396c-.14245-.14245-.14245-.14245.14245-.14245zm10.256411 53.70371c13.390314 7.83476 27.492878 11.53846 42.165244 11.53846 14.52992 0 28.63248-3.84615 42.30769-11.39601v-.14245zm2.706552-49.28775v12.39316h2.991454c3.988604 0 6.267806-1.56695 7.264957-4.5584.14245-.42735.14245-.85471.14245-1.13961v-.71225c0-2.5641-1.424501-4.5584-4.273504-5.84045-.854701-.14245-1.424502-.2849-1.851852-.2849 0 .14245-4.273505.14245-4.273505.14245zm0 17.23647v15.09971h8.119659c3.276353 0 5.555556-1.9943 6.980057-5.98291l.14245-1.7094c0-3.4188-1.851852-5.698-5.698006-7.26495-.854701-.14245-1.851852-.2849-3.133903-.2849zm37.321939-39.88605h4.273503c10.96866 0 22.79203 1.70941 35.75499 5.41311v.2849H62.820511v-.2849c12.108263-3.56125 23.504275-5.41311 34.615386-5.41311zM99.7151 83.333333c10.82621 0 21.22507 1.994302 31.33903 6.125356.42735 0 .71225.712251 1.1396 1.851852.42735.14245.99715.569801 1.70941 1.424501v.854701c0 .284901-.42736.997151-1.28206 1.851852 0 .14245-.14245.427351-.42735.569801-1.56695-1.566952-4.70085-3.133903-9.11681-4.558405-8.11965-2.136752-15.09971-3.276353-21.50997-3.276353h-3.133902c-10.11396 0-19.51567 1.851852-28.347579 5.840456l-2.279203 1.709402c-.8547-1.282052-1.282051-1.994303-1.282051-2.279203v-.5698c0-.284901.427351-.854701 1.139601-1.851852 0-.427351.427351-1.139602 1.424502-1.994302 9.97151-3.703704 20.085471-5.698006 30.626782-5.698006zM70.94017 94.729345v10.256405c0 .14245-.712251.2849-2.136753.71226l-.14245-.2849v-8.689463c.997151-1.282052 1.851852-1.994302 2.279203-1.994302zm27.207978-29.487181h2.849002c7.26496 0 14.52992 1.566951 21.65242 4.843305.14245.2849.2849.5698.2849.997151h.71225l.85471.997151c.42735 0 .71225.42735.8547 1.282051.42735.14245 1.1396 1.282052 1.85185 3.133903.8547.712251 1.28205 1.282052 1.28205 1.851852v.569801c0 .997151-.42735 1.566952-1.28205 2.421653-.5698-1.566952-1.4245-2.564103-2.5641-3.133904-7.97721-3.846154-16.09687-5.698006-23.78918-5.698006h-2.564102c-8.262108 0-16.381767 1.994302-24.216525 6.125357-.712251.5698-1.139601 1.424501-1.424502 2.564102-.8547-.854701-1.282051-1.709401-1.282051-2.706552 0-.997151.569801-1.851852 1.566952-2.706553 0-1.282052.42735-2.136752 1.424501-2.849003 0-.712251.284901-1.139601.854701-1.424502.14245-.42735.712251-.71225 1.566952-1.139601 0-.854701 4.273504-2.279202 12.535613-4.131054 2.849003-.569801 5.840456-.997151 8.831909-.997151zM76.495725 92.592592l.142451 10.968658c0 .42735-1.282052.71225-3.846154 1.1396V94.017094c.14245-.427351 1.424501-.997151 3.703703-1.424502zm-2.136752-12.678063h.284901v4.273505l.14245 1.566951c-.284901.14245-.854701.427351-1.566952.569801l-.14245-.284901v-3.133903c0-.5698.42735-1.566951 1.282051-2.991453zm5.128206-2.421652l.14245.2849v6.552707c0 .14245-1.139601.42735-3.276354.997151-.14245-.427351-.2849-.854701-.2849-1.566952v-4.415955c0-.2849 1.139601-.8547 3.418804-1.851851zm6.695157-23.931625c-2.849003 3.276353-4.985756 7.977208-6.410257 13.960114-.2849 0-.997151.2849-2.136752.854701h-.14245c1.282051-4.273504 2.564102-7.549858 3.988604-9.82906 1.994302-2.849003 3.418803-4.558405 4.700855-4.985755zM83.190882 90.74074s.142451.14245 0 0v11.68091c0 .2849-1.566951.71225-4.700854 1.1396l-.142451-.2849V92.165242c.284901-.2849 1.994302-.854701 4.843305-1.424502zm7.834759-39.03134c-2.706553 2.991453-4.700855 7.407407-5.698006 12.962963-.14245 1.139601-.569801 1.566952-1.566952 1.566952l-2.421652.712251-.142451-.142451c0-.997151.997151-3.846154 2.991454-8.404558 2.421652-3.846154 4.558404-5.982907 6.837607-6.695157zm-4.843305 23.504274l.14245.2849c.14245 3.703704.14245 6.125357.14245 7.549858-2.136752.427351-3.988604.854701-4.985755 1.139602v-7.264958c0-.14245 1.566951-.712251 4.415954-1.566952zm4.700854 14.387465l.142451.2849v11.680911c0 .14245-.142451.14245-.427351.2849-.997151 0-2.564102.14245-5.128205.5698l-.14245-.2849V90.74074c-.14245-.42735 1.851852-.71225 5.555555-1.139601zm3.846155-39.316241l.14245.2849c-1.851852 4.843305-2.991453 8.689459-3.133904 11.253562-.2849 1.851852-.5698 2.849003-.71225 2.849003l-4.843305.712251c0-.14245 0-.14245-.142451-.14245.854701-3.418804 1.851852-6.267807 2.849003-8.689459 1.851852-3.846154 3.133904-5.698006 3.846154-5.698006.427351-.14245 1.139602-.284901 1.994303-.569801zm-.427351 23.646725l.14245.2849v7.834758c0 .284901-1.566951.569801-4.843305.854701h-1.139601c-.14245-2.849003-.14245-4.843305-.14245-6.267806v-1.566952c0-.2849 1.994302-.712251 5.982906-1.139601zm5.128205-38.888891h1.282051c2.5641.2849 3.84615.997151 3.84615 1.851852v8.119659c.85471 0 1.28206.71225 1.28206 1.851852 1.56695.5698 2.42165.997151 2.5641 1.282051v1.139601l1.1396 1.139601v.427351c0 .14245-.14245.14245-.2849.14245-3.1339-1.282051-6.26781-1.851852-9.25926-1.851852-2.991453 0-6.125356.712251-9.25926 1.851852l-.14245-.14245v-.427351c.712251-.5698 1.139601-.997151 1.139601-1.566951 0-.854701.854701-1.424502 2.279203-1.851852 0-1.282052.42735-1.851852 1.139601-1.851852l.14245-.284901c0-5.698005.2849-8.547008.854701-8.547008.42735-.997152 1.709402-1.282052 3.276353-1.282052zm2.991451 93.447298c4.27351 0 7.26496 1.7094 9.25926 5.12821.14245.8547.2849 1.56695.42735 2.2792 0 2.99145-1.4245 5.1282-3.9886 6.69515 2.42165 2.56411 4.13105 5.27066 4.98575 8.11966h.14245c1.28205-1.1396 1.99431-1.56695 2.56411-1.56695h.14245l1.4245 3.84616c-.42735 0-1.4245.99715-2.849 2.849.71225 2.5641 1.56695 3.84615 3.1339 3.84615h.2849l1.56695-.14245c.5698 1.56695.8547 2.70655.8547 2.84901-1.1396 1.28205-2.5641 1.85185-4.2735 1.85185h-.2849c-1.56695 0-2.99146-1.28205-4.41596-3.70371-2.70655 2.70656-5.698 3.98861-8.97436 3.98861-4.558402 0-8.119656-2.13675-10.541308-6.55271-.712251-1.56695-1.139602-2.99145-1.139602-4.70085v-.56981c0-4.41595 2.279203-7.83475 6.837607-10.11396.569801-.14245.854701-.42735.854701-.5698-2.706552-.99715-4.131054-2.99145-4.131054-6.2678 0-3.27636 1.566952-5.55556 4.843305-6.98006.997151-.14245 2.136751-.2849 3.276351-.2849zm-3.988602-78.490032h.427351l.14245.14245c-.14245 1.424501-.14245 4.273504-.2849 8.689459.14245 2.421653.14245 4.131054.14245 4.843305-.569801.14245-2.564103.427351-5.982906.569801l-.142451-.284901c0-4.415954 1.282052-8.974359 3.561254-14.102564.997151.14245 1.709402.14245 2.136752.14245zm-.42735 39.173791c.2849.14245.42735.14245.42735.2849V101.4245c0 .14245-.14245.2849-.2849.2849h-.997151c-.997151 0-2.136752 0-3.988604.14245 0-.14245 0-.14245-.14245-.14245-.14245-3.703702-.14245-6.267805-.14245-8.119657v-3.988604c0-.2849 1.566951-.42735 5.128205-.42735zm1.566952-59.544162h.99715c.71225 0 .99715.2849.99715.71225 0 .427351.2849.997151.99715 1.424502 0 .997151.8547 1.709402 2.56411 2.564102.8547.427351 1.28205.854701 1.28205 1.424502v.14245c0 .712251-.14245.997151-.42735.997151h-.42735c-.14245-1.424501-1.85186-2.136752-4.98576-2.421652h-1.424501c-2.421652 0-4.273504.8547-4.985755 2.421652-.427351-.14245-.569801-.42735-.569801-1.139601v-.14245c0-1.139601.854701-1.709402 2.421653-2.136752.42735 0 1.139601-.854701 2.421652-2.564103v-1.139601c-.2849 0 .142451-.14245 1.139602-.14245zm-3.846154 8.262108v4.843305h.8547v-4.843305zm1.709401 35.754988h3.846153c.99715 0 1.4245.14245 1.4245.42735v.569801c0 1.566951 0 4.131054-.14245 7.407407l-.2849.14245h-5.128203c-.14245 0-.2849-.14245-.2849-.2849v-7.834758c0-.2849.14245-.42735.5698-.42735zM100 18.233615c.71225 0 1.1396 1.424501 1.1396 4.273504.14245 0 .14245.2849.14245.997151v1.282051c0 .142451-.14245.712251-.42735 1.709402v.427351c0 .14245.42735.854701 1.1396 1.851852v.14245h-3.988602c-.14245 0-.2849-.14245-.2849-.2849l1.424501-1.709402c-.42735-.854701-.5698-1.566952-.5698-2.421653v-.854701c0-.71225.2849-1.282051.8547-1.994302-.2849-1.282051-.42735-1.851852-.42735-1.994302-.14245-.997151.2849-1.424501.997151-1.424501zm-2.279202 18.376069v5.413106h.854701v-5.413106zm0 115.811966c0 2.42166 1.566951 4.27351 4.843302 5.55556.42735 0 .99715 0 1.4245.14245 1.99431 0 3.84616-1.1396 5.12821-3.4188-.5698-2.56411-2.13675-5.27066-4.98576-8.40456-.42735-.42735-.8547-.71225-.99715-.71225-3.56125 1.7094-5.413102 3.84615-5.413102 6.8376zM100.5698 49.999998c1.7094 0 2.70655.2849 2.70655.854701.99715 2.136752 1.7094 5.128205 2.42166 8.689459.42735 2.421652.5698 4.131054.5698 4.843305h-.14245c-2.99146-.14245-4.84331-.427351-5.41311-.569801l.14245-1.566951v-3.133904c0-3.133903-.14245-6.267806-.5698-8.974359.14245-.14245.2849-.14245.2849-.14245zm0-13.532764v5.413105l.8547.142451v-5.270656c-.42735 0-.5698 0-.8547-.2849zm0 100.142456c.5698 1.9943 1.7094 2.99145 3.84615 2.99145h.2849c2.56411-.42735 3.84616-1.4245 3.84616-2.99145v-.14245c0-1.56695-1.1396-2.42165-3.27636-2.849h-.99715c-2.42165.2849-3.7037 1.1396-3.7037 2.99145zm.42735-47.435901c4.13106.14245 6.12536.42735 6.12536.71225v11.680911c0 .14245-.14245.2849-.2849.2849-2.13675-.14245-4.13106-.14245-5.55556-.14245h-.2849c-.14245 0-.2849-.14245-.2849-.2849V89.458689zm1.7094-51.566954c-.14245 1.994302-.14245 3.703704-.14245 4.843305v.2849h.8547v-4.985755zm1.99431 12.962963c1.56695 0 2.849 1.139602 3.84615 3.133904 1.28205 1.566951 2.42165 4.273504 3.4188 7.834758.42735 2.136752.71225 3.418803.71225 3.703704l-.2849.14245c-2.5641-.427351-4.13105-.854701-4.70085-.997151 0-3.418804-.8547-7.977208-2.99145-13.817665zm.42735 23.361825c3.7037.42735 5.55555.854701 5.55555 1.139601v7.549858l-.14245.2849c-2.2792-.42735-4.13105-.5698-5.4131-.5698l-.14245-.284901v-7.834758zm4.13105-21.509973c3.56125 2.849003 5.69801 5.413106 6.69516 7.834759 1.4245 3.133903 2.13675 5.270655 2.13675 6.695157-.14245 0-.14245 0-.14245.14245-2.42165-.712251-3.70371-.997151-3.70371-1.282052 0-2.421652-1.1396-5.840456-3.1339-10.541311zm.2849 37.321939c3.4188.427351 5.1282.854701 5.1282.997151v11.39601l-.14245.2849c-3.4188-.42735-5.1282-.5698-5.1282-.71225V90.02849zm3.56125-14.529915c3.13391.854701 4.70086 1.424502 4.70086 1.566952v6.837607l-.14245.2849c-.99715-.2849-2.5641-.712251-4.84331-1.139601v-7.407408s.14245-.14245.2849-.14245zm.71225-20.655271c3.56126 2.136752 6.12536 6.267806 7.97721 12.250712.14245.712251.2849 1.282052.2849 1.566952h-.14245c-1.7094-.569801-2.70655-1.139601-2.70655-1.566952-.99715-4.415954-2.2792-8.119658-4.41596-11.111111-.28489 0-.5698-.284901-.99715-1.139601zm3.27636 36.609688c2.849.712251 4.41595.997151 4.41595 1.282051V103.4188l-.14245.14245c-.14245-.14245-1.56695-.42735-4.41595-.8547l-.14245-.2849V91.452991zm2.849-13.675214c2.13675.997151 3.4188 1.566951 3.4188 1.709401v5.698006l-.14245.284901c-2.2792-.569801-3.4188-.854701-3.4188-1.139602v-6.410256s0-.14245.14245-.14245zm21.08262 44.159543c7.12251 0 12.82052 3.56126 17.23647 10.82621 1.56695 3.41881 2.5641 6.83761 2.5641 10.11396v.71226c0 6.98005-2.70655 12.67806-8.11966 17.23646-3.4188 2.56411-7.4074 3.84616-11.68091 3.84616-6.98005 0-12.53561-3.56126-17.09402-10.82621-1.56695-3.41881-2.5641-6.98006-2.5641-10.39886 0-6.69516 2.70655-12.39317 8.26211-17.23647 3.7037-2.84901 7.40741-4.27351 11.39601-4.27351zm-17.37891-29.059828c2.5641.854701 3.84615 1.282052 3.84615 1.566952v9.971506c0 .14245-.14245.2849-.2849.2849-2.42165-.42735-3.70371-.8547-3.70371-.99715V92.877493zm1.4245-12.678063c1.1396 1.566952 1.56695 2.421653 1.56695 2.849003v3.276353c-1.28205-.14245-1.85185-.42735-1.85185-.71225v-5.270656c.14245-.14245.14245-.14245.2849-.14245zm4.13105 15.099716c1.56695 1.139601 2.42165 1.994302 2.42165 2.849003v7.407402c0 .14246-.14245.28491-.2849.28491-1.4245-.28491-2.13675-.56981-2.13675-.71225zm2.849 47.863245c0 6.26781 1.56696 10.96867 4.70086 13.96012 1.4245 1.1396 2.849 1.7094 4.5584 1.7094 4.98576 0 8.11966-4.2735 8.97436-12.67806.14245-1.56695.14245-2.70655.14245-3.13391 0-7.6923-2.13675-12.67806-6.69515-14.95726-.99716-.14245-1.70941-.2849-2.56411-.42735-4.5584 0-7.4074 3.56125-8.68946 10.68376-.2849 1.28205-.2849 2.99145-.42735 4.8433z"/>
</svg>