<svg id="Layer_1" data-name="Layer 1" xmlns="http://www.w3.org/2000/svg" viewBox="0 0 29 29"><defs><style>.cls-1{fill:#f70;}.cls-2{fill:#fff;}</style></defs><path class="cls-1" d="M28.5,14.5a14,14,0,1,1-14-14A14,14,0,0,1,28.5,14.5Z"/><path class="cls-2" d="M10.13,17a5,5,0,0,1-1,.94L9,18.05a2.91,2.91,0,0,0-.71.68l-.35,0-.33,0a4,4,0,0,1-4-4.07,5.63,5.63,0,0,1,.29-1.79,6.79,6.79,0,0,1,1.94-1.5v-.89l.57-.3a10,10,0,0,0-.27,2.19v.87A4.17,4.17,0,0,1,7.44,11a1.94,1.94,0,0,0,1.12.41,1.88,1.88,0,0,0,.57-.09,3.56,3.56,0,0,0,.6-.28,2.24,2.24,0,0,1-.5,1.23,2.47,2.47,0,0,1-.43.11,1.72,1.72,0,0,1-.39,0,2.13,2.13,0,0,1-1.07-.32,3,3,0,0,0-.9,1.13,3.15,3.15,0,0,0-.37,1.45v2.59a3.07,3.07,0,0,0,1.68.49,2.34,2.34,0,0,0,1.09-.27,3.45,3.45,0,0,0,1-.8Zm-4.36.15V11.75a3.63,3.63,0,0,0-1.16,2.87,3,3,0,0,0,.29,1.31A4,4,0,0,0,5.77,17.13Z"/><path class="cls-2" d="M14.62,17.72a3.32,3.32,0,0,0-.93,1l-.26,0-.23,0a2.76,2.76,0,0,1-1.85-.73,2.11,2.11,0,0,1-.82-1.62c0-.64.58-1.31,1.75-2a3.94,3.94,0,0,1-.68-2,7.17,7.17,0,0,1,1.75-1.32,2.46,2.46,0,0,1,1.16.53,1.17,1.17,0,0,1,.38.91c0,.71-.51,1.32-1.54,1.85a14.62,14.62,0,0,0,1.72,2.38,1.8,1.8,0,0,0,.43-1.07q0-.6-.72-.69a1.59,1.59,0,0,0,.48-.81,3.8,3.8,0,0,1,1-.11h.36a4.73,4.73,0,0,1,1.1.11,1.18,1.18,0,0,0-.33.74,1.14,1.14,0,0,0,0,.21A4,4,0,0,0,16.35,15h-.24a1.61,1.61,0,0,1,0,.34A2.42,2.42,0,0,1,15.3,17a4.68,4.68,0,0,0,.87.75,4.42,4.42,0,0,0,.82-.4l.18.24a6.29,6.29,0,0,0-1.28,1.17A7.47,7.47,0,0,1,14.62,17.72Zm-2.17-3a1.86,1.86,0,0,0-.95,1.37,1.66,1.66,0,0,0,.63,1.18,1.9,1.9,0,0,0,1.27.59,1.31,1.31,0,0,0,.44-.1,3.83,3.83,0,0,0,.54-.3A15,15,0,0,1,12.45,14.75Zm.74-.68c.66-.38,1-.8,1-1.26a.85.85,0,0,0-.36-.68,1.3,1.3,0,0,0-.84-.29,2.83,2.83,0,0,0-.43.05,1.61,1.61,0,0,0,0,.37A3.33,3.33,0,0,0,13.19,14.07Z"/><path class="cls-2" d="M17.56,17.82a1.32,1.32,0,0,0,.62-.64.57.57,0,0,0,.22,0,1.85,1.85,0,0,0,1.42-.88c0-.11,0-.19,0-.25a1.57,1.57,0,0,1,.1-.5h.34a3.53,3.53,0,0,0,.53-1.9,2.06,2.06,0,0,0-.29-1.13.83.83,0,0,0-.73-.44,1.45,1.45,0,0,0-.72.2,2.37,2.37,0,0,0-.64.63,2.32,2.32,0,0,1,0-.29,2.44,2.44,0,0,1,.3-1.15,3.57,3.57,0,0,1,.7-.32,2.21,2.21,0,0,1,.64-.11,1.46,1.46,0,0,1,.87.28,2.16,2.16,0,0,1,.63.86,7,7,0,0,1,1.94-1.69,9.18,9.18,0,0,0-.2,2,14.29,14.29,0,0,0,.37,3.09h.15a2.54,2.54,0,0,1,.78.12,1.71,1.71,0,0,1,.14.61s0,.08,0,.13a5.42,5.42,0,0,0-.91-.21,7.43,7.43,0,0,0,.56,1.53,4.37,4.37,0,0,0,.82-.27l.11.27a7.26,7.26,0,0,0-1.67,1,5.83,5.83,0,0,1-.92-2.54h-2a3.69,3.69,0,0,1-1.83,1.3,3.17,3.17,0,0,0,1,.55,2.07,2.07,0,0,1-.77.69A8.42,8.42,0,0,1,17.56,17.82Zm5-2.23a12.68,12.68,0,0,1-.17-2.11v-1c0-.21,0-.46,0-.74a6.68,6.68,0,0,0-.79.86,2.54,2.54,0,0,1,.08.64,4.7,4.7,0,0,1-.67,2.35Z"/></svg>