<svg data-name="Layer 1" xmlns="http://www.w3.org/2000/svg" viewBox="0 0 29 29"><path d="M28.5 14.5a14 14 0 11-14-14 14 14 0 0114 14z" fill="#f70"/><path d="M10.13 17a5 5 0 01-1 .94l-.13.11a2.91 2.91 0 00-.71.68h-.68a4 4 0 01-4-4.07 5.63 5.63 0 01.29-1.79 6.79 6.79 0 011.94-1.5v-.89l.57-.3a10 10 0 00-.27 2.19v.87A4.17 4.17 0 017.44 11a1.94 1.94 0 001.12.41 1.88 1.88 0 00.57-.09 3.56 3.56 0 00.6-.28 2.24 2.24 0 01-.5 1.23 2.47 2.47 0 01-.43.11 1.72 1.72 0 01-.39 0 2.13 2.13 0 01-1.07-.32 3 3 0 00-.9 1.13 3.15 3.15 0 00-.37 1.45v2.59a3.07 3.07 0 001.68.49 2.34 2.34 0 001.09-.27 3.45 3.45 0 001-.8zm-4.36.15v-5.4a3.63 3.63 0 00-1.16 2.87 3 3 0 00.29 1.31 4 4 0 00.87 1.2zm8.85.57a3.32 3.32 0 00-.93 1h-.49a2.76 2.76 0 01-1.85-.73 2.11 2.11 0 01-.82-1.62c0-.64.58-1.31 1.75-2a3.94 3.94 0 01-.68-2 7.17 7.17 0 011.75-1.32 2.46 2.46 0 011.16.53 1.17 1.17 0 01.38.91c0 .71-.51 1.32-1.54 1.85a14.62 14.62 0 001.72 2.38 1.8 1.8 0 00.43-1.07q0-.6-.72-.69a1.59 1.59 0 00.48-.81 3.8 3.8 0 011-.11h.36a4.73 4.73 0 011.1.11 1.18 1.18 0 00-.33.74 1.14 1.14 0 000 .21 4 4 0 00-1.04-.1h-.24a1.61 1.61 0 010 .34A2.42 2.42 0 0115.3 17a4.68 4.68 0 00.87.75 4.42 4.42 0 00.82-.4l.18.24a6.29 6.29 0 00-1.28 1.17 7.47 7.47 0 01-1.27-1.04zm-2.17-3a1.86 1.86 0 00-.95 1.37 1.66 1.66 0 00.63 1.18 1.9 1.9 0 001.27.59 1.31 1.31 0 00.44-.1 3.83 3.83 0 00.54-.3 15 15 0 01-1.93-2.71zm.74-.68c.66-.38 1-.8 1-1.26a.85.85 0 00-.36-.68 1.3 1.3 0 00-.84-.29 2.83 2.83 0 00-.43.05 1.61 1.61 0 000 .37 3.33 3.33 0 00.63 1.84zm4.37 3.78a1.32 1.32 0 00.62-.64.57.57 0 00.22 0 1.85 1.85 0 001.42-.88v-.25a1.57 1.57 0 01.1-.5h.34a3.53 3.53 0 00.53-1.9 2.06 2.06 0 00-.29-1.13.83.83 0 00-.73-.44 1.45 1.45 0 00-.72.2 2.37 2.37 0 00-.64.63 2.32 2.32 0 010-.29 2.44 2.44 0 01.3-1.15 3.57 3.57 0 01.7-.32 2.21 2.21 0 01.64-.11 1.46 1.46 0 01.87.28 2.16 2.16 0 01.63.86 7 7 0 011.94-1.69 9.18 9.18 0 00-.2 2 14.29 14.29 0 00.37 3.09h.15a2.54 2.54 0 01.78.12 1.71 1.71 0 01.14.61v.13a5.42 5.42 0 00-.91-.21 7.43 7.43 0 00.56 1.53 4.37 4.37 0 00.82-.27l.11.27a7.26 7.26 0 00-1.67 1 5.83 5.83 0 01-.92-2.54h-2a3.69 3.69 0 01-1.83 1.3 3.17 3.17 0 001 .55 2.07 2.07 0 01-.77.69 8.42 8.42 0 01-1.56-.94zm5-2.23a12.68 12.68 0 01-.17-2.11v-1.74a6.68 6.68 0 00-.79.86 2.54 2.54 0 01.08.64 4.7 4.7 0 01-.67 2.35z" fill="#fff"/></svg>