<svg xmlns="http://www.w3.org/2000/svg" width="200" height="200" viewBox="0 0 200 200">
  <circle class="color-orange color-main" cx="100" cy="100" r="100" fill="#f58121"/>
  <path class="color-white" fill="#fff" d="M 33.669825,137.23315 C 31.671826,136.97522 26.735069,134.67723 22.699243,132.12601 13.990558,126.62098 8.359358,117.88049 6.1209583,106.3939 3.6686151,93.809392 5.9843511,87.290343 16.74165,76.495359 c 4.86865,-4.885706 8.852093,-9.911083 8.852093,-11.167565 0,-1.25648 0.709763,-2.746915 1.577246,-3.312072 1.152096,-0.750541 1.387458,1.768514 0.873162,9.345434 l -0.704082,10.372899 5.76626,-6.527008 c 5.507034,-6.233618 6.112945,-6.527008 13.477983,-6.527008 7.971086,0 12.069571,0.96688 12.069571,2.847403 0,0.596547 -1.520096,2.813597 -3.377991,4.926758 -2.845396,3.236337 -4.54502,3.842104 -10.779928,3.842104 -8.824792,0 -12.25834,3.011165 -14.760801,12.944804 -2.354339,9.345712 -2.450005,28.241872 -0.157698,31.153332 3.115696,3.95735 17.294783,3.19326 25.427161,-1.37019 3.663053,-2.05549 6.921872,-3.46135 7.241815,-3.12406 0.726261,0.76553 -5.582138,7.51117 -11.47889,12.27444 -4.799375,3.87685 -11.314966,5.80456 -17.097705,5.05852 z M 24.517743,88.648078 c -0.796697,-14.179936 -2.352205,-14.920984 -6.61613,-3.151933 -3.238301,8.938168 -2.104567,23.306185 2.359624,29.903925 l 3.266248,4.82731 0.851983,-9.43829 c 0.468569,-5.19101 0.530811,-15.154492 0.138275,-22.141012 z m 81.093967,44.485972 -6.07614,-4.97686 -3.6467,4.60456 c -3.370343,4.25551 -4.135812,4.54637 -10.100762,3.83764 -10.530648,-1.25114 -20.246695,-11.10752 -20.246695,-20.539 0,-2.2739 2.513221,-6.48387 6.871427,-11.51046 l 6.871427,-7.92524 -2.7051,-8.287893 -2.705099,-8.287948 4.33685,-3.869379 c 7.724466,-6.891796 8.620177,-7.406409 12.972959,-7.453276 6.790318,-0.07299 11.550193,4.808819 11.550193,11.846323 0,4.916493 -0.89788,6.820067 -5.510027,11.681791 -3.030512,3.194465 -5.510022,6.093839 -5.510022,6.442987 0,2.244165 11.536689,17.960905 12.847339,17.502275 0.88907,-0.31117 2.21828,-2.36084 2.95384,-4.55495 1.14569,-3.41755 0.85928,-4.36945 -1.99836,-6.64159 -2.99704,-2.38296 -3.13283,-2.92419 -1.33736,-5.330295 3.31474,-4.442057 4.38626,-4.810687 14.05152,-4.83379 9.57517,-0.02195 10.51383,0.678373 7.8722,5.881335 -1.04173,2.05181 -2.89767,2.80867 -6.88753,2.80867 -4.73165,0 -5.4678,0.43684 -5.50829,3.26707 -0.0255,1.79688 -1.20123,5.84045 -2.61225,8.98563 -1.41102,3.14524 -2.25143,6.58134 -1.86758,7.63575 0.8937,2.45491 6.25148,3.88448 9.93716,2.65138 4.26858,-1.42809 3.46504,0.93565 -2.3112,6.79878 l -5.16566,5.24335 z m -11.94409,-4.3498 c 3.554293,-1.4377 2.540795,-5.26998 -3.972148,-15.01966 -3.383088,-5.06434 -6.440343,-9.92919 -6.793905,-10.8108 -0.986758,-2.46049 -7.724598,6.08952 -7.6688,9.73136 0.06503,4.24432 2.630133,8.85245 6.838715,12.28553 5.272067,4.30063 8.096042,5.22937 11.596138,3.81357 z m 0.621494,-39.886577 c 2.779009,-5.219049 1.133104,-10.73692 -3.851933,-12.913523 -7.191912,-3.140133 -8.826968,0.861236 -4.745546,11.613631 2.55281,6.72529 5.473442,7.166911 8.597479,1.299892 z m 37.429456,43.927017 -4.66032,-4.10115 3.33486,-2.48738 c 1.83416,-1.36811 5.96931,-4.42735 9.18924,-6.79828 3.21991,-2.37099 5.8544,-5.35592 5.8544,-6.6332 0,-1.27729 1.54968,-4.26369 3.44375,-6.6365 2.87183,-3.59761 3.44378,-5.8258 3.44378,-13.415889 0,-6.973623 -0.58902,-9.663684 -2.5191,-11.504914 -3.11827,-2.974669 -8.48323,-3.09568 -12.0258,-0.271107 -3.72585,2.970553 -4.74018,2.73885 -4.74018,-1.082786 0,-4.904476 3.52445,-9.324579 8.93643,-11.207298 5.92453,-2.061079 9.81039,-0.912053 15.22844,4.503027 l 4.19103,4.188729 6.77723,-7.252963 c 3.72747,-3.989184 7.21762,-7.253016 7.75591,-7.253016 0.53828,0 0.63423,4.801081 0.21294,10.669032 -1.09885,15.315682 0.59607,29.672065 3.85575,32.658525 1.44771,1.32641 3.87199,3.55514 5.38724,4.95271 3.81018,3.51431 3.48323,5.69311 -0.68875,4.58935 -2.76154,-0.73056 -3.44377,-0.36878 -3.44377,1.82735 0,4.04648 3.89943,9.19271 6.96564,9.19271 4.02605,0 3.23041,2.30662 -1.96258,5.6897 -8.19859,5.34115 -10.05095,4.35118 -13.36264,-7.14173 l -2.92881,-10.16429 h -8.1277 c -7.13256,0 -8.97131,0.63891 -15.01838,5.21833 -3.78989,2.87013 -6.89071,5.65332 -6.89071,6.18488 0,0.5318 1.29809,1.82109 2.88466,2.86557 2.75773,1.81538 2.77865,2.02244 0.47528,4.70537 -3.2963,3.83948 -6.08906,3.52689 -11.56807,-1.29468 z m 36.10082,-38.371004 c -0.80485,-15.687825 -2.14672,-19.886597 -4.3782,-13.699846 -0.81093,2.248222 -1.47438,5.901538 -1.47438,8.118477 0,2.21694 -0.92308,7.238366 -2.05134,11.158733 -1.12826,3.92041 -2.05807,7.29132 -2.06629,7.49097 -0.011,0.19977 2.38679,0.36331 5.32222,0.36331 h 5.33704 z"/>
</svg>