<svg xmlns="http://www.w3.org/2000/svg" viewBox="0 0 30.61 30.61"><defs><style>.cls-1{fill:#a2dced;}.cls-2{fill:#040000;}.cls-3{fill:#231f20;stroke:#231f20;stroke-miterlimit:2.61;stroke-width:0.14px;}</style></defs><g id="Company_Homes" data-name="Company Homes"><circle class="cls-1" cx="15.31" cy="15.31" r="15.28" transform="translate(-6.34 15.31) rotate(-45)"/><path class="cls-2" d="M25.82,20.38a7.2,7.2,0,1,1-7.2-7.19A7.2,7.2,0,0,1,25.82,20.38Z"/><path class="cls-1" d="M21.36,20.15a2.74,2.74,0,1,1-2.74-2.74A2.74,2.74,0,0,1,21.36,20.15Z"/><path class="cls-1" d="M4.85,10.24a7.65,7.65,0,1,1,7.65,7.65A7.64,7.64,0,0,1,4.85,10.24Z"/><path class="cls-2" d="M19.72,10.37a7.2,7.2,0,1,1-7.2-7.2A7.2,7.2,0,0,1,19.72,10.37Z"/><path class="cls-1" d="M15.27,10.37a2.75,2.75,0,1,1-2.75-2.75A2.75,2.75,0,0,1,15.27,10.37Z"/><polygon class="cls-1" points="14.58 9.11 20.07 7.87 20.52 12.78 14.46 11.42 14.58 9.11"/><path class="cls-3" d="M16.87,9.42h.51l.76,1.48h-.49l-.14-.31h-.79l-.15.31H16.1Zm0,.92h.55l-.27-.58Z"/><path class="cls-3" d="M18.41,9.42h.47l.85,1v-1h.42V10.9H19.7l-.87-1.05V10.9h-.42Z"/><path class="cls-3" d="M21.84,9.45a.78.78,0,0,1,.36.19.54.54,0,0,1,.16.24,1,1,0,0,1,0,.24.73.73,0,0,1-.18.5.89.89,0,0,1-.72.28h-.93V9.42h.93A1.58,1.58,0,0,1,21.84,9.45ZM21,9.68v1h.42a.45.45,0,0,0,.44-.22.49.49,0,0,0,.07-.28.49.49,0,0,0-.1-.34.54.54,0,0,0-.41-.12Z"/></g></svg>