<svg xmlns="http://www.w3.org/2000/svg" width="200" height="200" viewBox="0 0 200 200">
  <path class="color-yellow color-main" fill="#fcea18" d="M 100 0 A 100 100 0 0 0 0 100 A 100 100 0 0 0 100 200 A 100 100 0 0 0 200 100 A 100 100 0 0 0 100 0 z M 30.738281 34.746094 C 31.92442 34.710189 33.036842 35.405042 33.962891 36.818359 C 34.879217 38.216857 34.924094 38.895137 34.296875 41.955078 C 34.028961 43.26212 33.895904 44.191911 33.894531 45.033203 L 36.632812 45.457031 C 40.990406 46.132886 49.146022 45.86522 56.128906 44.816406 C 64.453206 43.566125 69.305137 43.642345 80.244141 45.197266 C 88.411945 46.358263 90.110665 46.422846 95.013672 45.755859 C 102.21504 44.776189 107.97948 45.310367 118.79883 47.960938 C 130.85951 50.915581 134.54574 51.347155 147.88672 51.361328 C 159.99673 51.375478 166.39893 52.126065 175.26758 54.582031 C 177.84142 55.294793 180.18307 56.020757 180.4707 56.193359 C 180.75834 56.365985 179.79071 57.106637 178.32031 57.839844 C 174.45018 59.769612 168.30744 65.725711 162.68164 73.005859 C 157.36019 79.892154 152.92547 84.212265 148.53516 86.785156 C 146.04329 88.245486 145.85815 88.501533 146.86914 89.087891 C 156.97836 94.951076 161.9129 99.864414 172.29883 114.41992 L 179.625 124.6875 L 172.92188 125.08594 C 169.23571 125.30431 164.39472 125.79234 162.16406 126.17188 C 156.48618 127.13804 151.20209 127.03889 146.85156 125.88477 C 142.71959 124.78868 138.44118 125.02246 134.02539 126.58398 C 128.74653 128.45073 122.65534 128.45113 115.0918 126.58789 C 107.58099 124.73725 106.79412 124.77043 98.832031 127.27344 C 92.135459 129.37859 84.263556 129.83091 77.267578 128.50977 C 68.604488 126.87401 63.165426 126.64058 58.275391 127.69531 C 55.873162 128.21347 53.444751 128.82033 52.878906 129.04492 C 52.503338 129.19393 52.093381 129.16847 51.78125 129.02539 C 52.085275 131.01161 52.360457 132.85905 52.570312 134.4082 C 53.530963 141.49963 54.116566 144.50644 58.808594 166.41211 C 61.431099 178.65582 61.408735 178.89559 57.507812 179.67578 C 56.032728 179.9708 55.201322 179.72195 53.910156 178.59766 C 52.269252 177.16894 52.057617 176.07105 44.445312 129.71484 C 40.162402 103.63344 35.695105 76.679944 34.517578 69.816406 C 33.340041 62.952891 32.048769 55.091123 31.648438 52.345703 C 30.84196 46.815033 30.078379 44.961619 27.679688 42.720703 C 25.507224 40.691133 25.581001 38.372915 27.890625 36.160156 C 28.848606 35.242351 29.815729 34.774019 30.738281 34.746094 z M 33.943359 45.898438 C 34.030554 46.625051 34.22558 47.355255 34.550781 48.289062 C 35.915858 52.208827 41.946935 76.551356 44.521484 88.535156 C 46.351591 97.053821 49.20616 112.88826 51.119141 124.80078 C 51.046384 122.35712 51.011947 119.04742 51.037109 115.42188 C 51.15319 98.69853 49.834398 88.28973 45.966797 75.394531 C 44.228022 69.597211 40.266878 60.107262 37.564453 55.263672 C 36.36488 53.113643 35.005625 49.926124 34.544922 48.179688 L 33.943359 45.898438 z M 101.5293 62.242188 C 99.98035 62.143147 97.051846 64.020735 82.015625 74.152344 C 71.875036 80.985153 63.578125 86.78376 63.578125 87.037109 C 63.578125 87.408558 91.028476 110.01605 98.185547 115.53906 C 99.202204 116.3236 100.52109 116.83753 101.11719 116.68164 C 101.71329 116.52576 110.48367 109.98064 120.60547 102.13672 C 130.72725 94.292782 138.95327 87.676071 138.88672 87.433594 C 138.69947 86.751017 104.04199 63.129101 102.13867 62.386719 C 101.94234 62.310143 101.75057 62.256335 101.5293 62.242188 z M 100.94727 62.457031 C 101.08001 62.444769 101.21493 62.445766 101.35547 62.460938 C 102.2924 62.562081 103.50859 63.309793 106.39648 65.181641 C 117.14257 72.146926 138.58203 86.950735 138.58203 87.40625 C 138.58203 88.005647 120.67163 102.16698 107.38477 112.07227 C 100.69424 117.06004 101.02126 116.89013 99.472656 116.17578 C 98.145096 115.56339 74.7934 96.613355 64.863281 88.089844 L 63.679688 87.072266 L 64.195312 86.654297 C 66.615038 84.687764 89.313524 69.237473 95.658203 65.238281 C 97.359024 64.166217 99.162644 63.102514 99.667969 62.873047 C 100.16535 62.647176 100.54904 62.493818 100.94727 62.457031 z M 101.96094 66.457031 C 100.9796 66.457031 98.413472 67.92913 93.345703 71.400391 C 90.833159 73.121409 85.016029 77.090739 80.419922 80.220703 C 70.515656 86.965531 70.392578 87.058941 70.392578 87.734375 C 70.392578 88.356398 71.071706 88.967084 79.974609 96.347656 C 92.910636 107.07172 100.58542 113.03125 101.45898 113.03125 C 101.61608 113.03125 102.38684 112.61607 103.17188 112.10938 C 105.30678 110.73139 108.99025 107.95728 116.29688 102.22461 C 119.91249 99.387852 124.17426 96.076136 125.76758 94.865234 C 131.23582 90.709446 132.52064 89.565816 132.74414 88.302734 C 132.48686 89.432345 131.06129 90.737305 127.47852 93.402344 C 124.85413 95.354489 118.17739 100.55068 112.64062 104.95117 C 107.10386 109.35167 102.04861 112.94393 101.4082 112.93359 C 100.76776 112.92319 93.926554 107.71786 86.205078 101.36523 C 78.483602 95.012613 71.64086 89.294406 71 88.658203 C 69.863807 87.530285 69.980401 87.402977 75.679688 83.587891 C 78.894383 81.435992 85.97762 76.603812 91.419922 72.847656 C 100.16439 66.81243 101.48207 66.092925 102.74414 66.667969 C 103.52963 67.025859 107.77544 69.910999 112.17969 73.078125 C 116.58394 76.245246 121.73694 79.677105 123.63086 80.705078 C 128.14994 83.157921 132.22427 86.068938 132.63477 87.138672 C 132.70583 87.323858 132.75171 87.501796 132.77539 87.679688 C 132.748 87.114854 132.52653 86.778036 131.61719 85.919922 C 130.22408 84.605287 127.99622 83.082007 124.6543 81.164062 C 121.66963 79.451149 117.89277 76.94176 110.9668 72.070312 C 104.43867 67.478692 102.79807 66.457031 101.96094 66.457031 z M 106.19727 81.148438 C 105.76191 81.092273 105.41732 81.371748 105.17773 81.996094 C 104.75494 83.097873 108.05795 90.458407 110.32031 93.455078 C 112.12882 95.850607 113.05187 95.969374 115.13672 94.078125 C 116.5853 92.764055 120.52344 84.320243 120.52344 82.527344 C 120.52344 81.169965 118.67821 80.912058 117.37891 82.087891 C 116.70535 82.697464 116.1543 83.498797 116.1543 83.869141 C 116.1543 84.239483 115.38868 86.008253 114.45117 87.798828 L 112.92383 90.714844 C 113.29011 90.479762 113.70928 89.478846 114.57812 87.695312 C 115.52337 85.754981 116.29686 83.994343 116.29688 83.78125 C 116.29687 83.213256 117.92584 81.678726 118.71289 81.505859 C 119.72833 81.282831 120.30859 81.691479 120.30859 82.628906 C 120.30859 83.58683 119.1709 86.581043 117.65039 89.623047 C 116.13802 92.648816 115.32431 93.851683 114.29492 94.589844 C 113.05856 95.476418 112.34446 95.398593 111.24023 94.255859 C 109.52419 92.479989 107.00518 87.846852 105.80078 84.251953 C 105.17033 82.37021 105.14994 82.20757 105.48047 81.703125 C 105.93865 81.003868 106.09188 81.021714 107.08203 81.888672 C 108.12516 82.802014 109.25085 84.539034 110.93359 87.828125 C 111.76741 89.45792 112.1935 90.404423 112.54883 90.677734 L 110.23828 86.248047 C 108.55101 83.014036 107.15505 81.271998 106.19727 81.148438 z M 87.171875 81.226562 C 86.804754 81.219725 86.358842 81.271186 85.921875 81.380859 C 84.339457 81.778019 84.333984 81.806669 84.333984 88.65625 L 84.333984 95.535156 L 89.169922 95.351562 C 93.863389 95.174694 94.003906 95.123411 94.003906 93.609375 C 94.003906 92.226627 93.71138 92.028607 91.417969 91.861328 L 88.830078 91.671875 L 88.607422 86.763672 C 88.484794 84.063549 88.187359 81.658062 87.947266 81.417969 C 87.827219 81.29792 87.538996 81.233401 87.171875 81.226562 z M 87.205078 81.423828 C 88.088567 81.526482 88.177858 81.934893 88.492188 87.318359 L 88.753906 91.798828 L 90.830078 91.935547 C 93.49792 92.110786 93.791016 92.267554 93.791016 93.513672 C 93.791016 94.089423 93.658096 94.589612 93.464844 94.75 C 93.182972 94.983934 88.209506 95.3885 85.251953 95.417969 L 84.400391 95.425781 L 84.478516 89.019531 C 84.521416 85.495844 84.639467 82.437977 84.740234 82.224609 C 84.961132 81.756872 86.307882 81.319578 87.205078 81.423828 z M 132.7793 87.732422 C 132.78948 87.829621 132.77369 87.927801 132.76758 88.025391 C 132.77263 87.950189 132.78711 87.878924 132.78711 87.800781 C 132.78711 87.775527 132.77992 87.756708 132.7793 87.732422 z M 99.277344 92.361328 C 97.744005 92.361328 97.153512 93.455404 98.082031 94.574219 C 99.006984 95.688718 100.3578 95.752761 100.72461 94.701172 C 101.16718 93.432441 100.50393 92.361328 99.277344 92.361328 z M 121.38672 92.447266 C 120.69912 92.359112 119.95654 92.698914 119.73633 93.541016 C 119.33109 95.090674 119.79598 95.585985 121.43359 95.351562 C 122.23045 95.237493 122.70703 94.70266 122.70703 93.921875 C 122.70703 93.051541 122.07432 92.535419 121.38672 92.447266 z M 121.20117 92.529297 C 121.3694 92.52964 121.53808 92.606894 121.8125 92.759766 C 122.55196 93.171491 122.7586 94.28242 122.19922 94.841797 C 121.73703 95.303988 120.23595 95.318991 119.85938 94.865234 C 119.44124 94.361432 119.85582 93.170423 120.59375 92.757812 C 120.86502 92.60607 121.03294 92.528954 121.20117 92.529297 z M 99.380859 92.544922 C 99.770577 92.577784 100.12678 92.712857 100.33008 92.9375 C 100.81959 93.478402 100.79877 94.597109 100.29102 95.056641 C 99.799909 95.501091 99.648903 95.50338 98.865234 95.078125 C 97.791214 94.49528 97.434155 93.186983 98.232422 92.759766 C 98.567367 92.580509 98.991142 92.51206 99.380859 92.544922 z "/>
  <path class="color-red" fill="#ff0000" d="M 51.399659,128.72394 C 51.151904,128.32308 50.988471,122.33733 51.036464,115.42231 51.152545,98.69897 49.834198,88.290584 45.966597,75.395385 44.227822,69.598065 40.266548,60.106973 37.564123,55.263383 36.36455,53.113354 35.006141,49.925359 34.545438,48.178922 l -0.837632,-3.175355 2.924446,0.453589 c 4.357593,0.675855 12.513139,0.407626 19.496023,-0.641188 8.3243,-1.250281 13.177411,-1.173543 24.116415,0.381378 8.167804,1.160997 9.865384,1.225141 14.768391,0.558154 7.201369,-0.97967 12.966849,-0.445099 23.786199,2.205472 12.06068,2.954645 15.74729,3.385523 29.08827,3.399696 12.11001,0.01415 18.51121,0.7662 27.37986,3.222166 2.57384,0.712762 4.91503,1.437126 5.20266,1.609728 0.28764,0.172626 -0.68007,0.913662 -2.15047,1.646869 -3.87013,1.929768 -10.01194,7.886625 -15.63774,15.166773 -5.32145,6.886295 -9.75656,11.206068 -14.14687,13.778959 -2.49187,1.46033 -2.67645,1.715448 -1.66546,2.301806 10.10922,5.863185 15.04273,10.778301 25.42866,25.333811 l 7.32607,10.26725 -6.70211,0.39708 c -3.68616,0.21837 -8.52718,0.70767 -10.75784,1.0872 -5.67788,0.96616 -10.96132,0.86714 -15.31185,-0.28698 -4.13197,-1.09609 -8.41197,-0.86304 -12.82776,0.69848 -5.27886,1.86675 -11.36959,1.86824 -18.93313,0.005 -7.51081,-1.85064 -8.29683,-1.8175 -16.258918,0.68551 -6.696572,2.10515 -14.568304,2.55583 -21.564282,1.23469 -8.66309,-1.63576 -14.102912,-1.86904 -18.992947,-0.81431 -2.402229,0.51816 -4.830665,1.12583 -5.39651,1.35042 -0.565844,0.2245 -1.231509,0.0804 -1.479254,-0.32055 z M 120.60466,102.13623 C 130.72644,94.292294 138.95345,87.676162 138.8869,87.433685 138.69965,86.751108 104.04244,63.12956 102.13912,62.387178 100.56847,61.774573 99.20075,62.574189 82.016497,74.15317 71.875908,80.985979 63.579059,86.783747 63.579059,87.037096 c 0,0.371449 27.449161,22.978214 34.606232,28.501224 1.016657,0.78454 2.336189,1.29891 2.932289,1.14302 0.5961,-0.15588 9.36528,-6.70119 19.48708,-14.54511 z"/>
  <path class="color-black" fill="#000000" d="M 86.205132,101.365 C 78.483656,95.012375 71.641749,89.294239 71.000889,88.658036 c -1.136193,-1.127918 -1.01962,-1.254195 4.679667,-5.069281 3.214695,-2.151899 10.297688,-6.985764 15.73999,-10.74192 8.744464,-6.035226 10.061184,-6.753707 11.323254,-6.178663 0.78549,0.35789 5.03161,3.241992 9.43586,6.409118 4.40425,3.167121 9.55726,6.599476 11.45118,7.627449 4.51908,2.452843 8.59291,5.363942 9.00341,6.433676 0.59499,1.55053 -0.32843,2.672258 -5.15599,6.263226 -2.62439,1.952145 -9.3017,7.149769 -14.83845,11.550259 -5.53677,4.4005 -10.59082,7.99246 -11.23123,7.98212 -0.64044,-0.0104 -7.481972,-5.21639 -15.203448,-11.56902 z m 7.799464,-7.754865 c 0,-1.382748 -0.293815,-1.581324 -2.587226,-1.748603 l -2.587253,-0.188708 -0.222858,-4.909313 c -0.122628,-2.700123 -0.419368,-5.105758 -0.659461,-5.345851 -0.240093,-0.240098 -1.151562,-0.257077 -2.025496,-0.03773 -1.582418,0.39716 -1.588946,0.427108 -1.588946,7.276689 v 6.877891 l 4.835662,-0.182247 c 4.693467,-0.17687 4.835671,-0.228091 4.835671,-1.742127 z m 6.719614,1.091923 c 0.44257,-1.268731 -0.21932,-2.339838 -1.445908,-2.339838 -1.533339,0 -2.123821,1.092369 -1.195302,2.211184 0.924953,1.114499 2.2744,1.180232 2.64121,0.128643 z m 14.41307,-0.623956 c 1.44858,-1.31407 5.38549,-9.758078 5.38549,-11.550977 0,-1.357379 -1.84373,-1.615002 -3.14303,-0.439169 -0.67356,0.609573 -1.22466,1.411324 -1.22466,1.781668 0,0.370342 -0.76702,2.138368 -1.70453,3.928943 l -1.7045,3.25559 -2.50719,-4.805595 c -2.45421,-4.704016 -4.29532,-6.250889 -5.06199,-4.252984 -0.42279,1.101779 2.88073,8.461896 5.14309,11.458567 1.80851,2.395529 2.73247,2.515206 4.81732,0.623957 z m 7.56936,-0.155999 c 0,-1.740668 -2.53018,-2.06505 -2.97061,-0.380846 -0.40524,1.549658 0.0594,2.045493 1.69701,1.811071 0.79686,-0.114069 1.2736,-0.64944 1.2736,-1.430225 z"/>
  <path class="color-black" fill="#000000" d="m 53.910744,178.59802 c -1.640904,-1.42872 -1.853397,-2.52609 -9.465702,-48.8823 -4.282911,-26.0814 -8.750549,-53.036355 -9.928076,-59.899893 -1.177537,-6.863515 -2.468517,-14.725376 -2.868848,-17.470796 -0.806477,-5.53067 -1.570504,-7.383205 -3.969196,-9.624121 -2.172463,-2.02957 -2.097539,-4.347106 0.212085,-6.559865 2.189671,-2.09784 4.426119,-1.856024 6.072428,0.656541 0.916326,1.398498 0.960381,2.077819 0.333162,5.13776 -0.602034,2.937076 -0.559418,3.995229 0.255054,6.333967 1.365077,3.919764 7.394991,28.261432 9.96954,40.245232 2.395321,11.149591 6.561529,34.894525 8.048816,45.873655 0.960651,7.09143 1.546916,10.09888 6.238944,32.00455 2.622505,12.24371 2.599001,12.48307 -1.30192,13.26326 -1.475085,0.29502 -2.30513,0.0463 -3.596296,-1.07799 z"/>
  <path class="color-white" fill="#ffffff" d="M 99.473021,116.17542 C 98.145461,115.56303 74.793612,96.612385 64.863493,88.088874 l -1.183248,-1.015634 0.514722,-0.41832 c 2.419726,-1.966533 25.117676,-17.416501 31.462355,-21.415693 1.700821,-1.072064 3.505827,-2.136953 4.011152,-2.36642 1.768496,-0.803096 2.106636,-0.687095 6.727266,2.307862 10.74609,6.965285 32.18603,21.770792 32.18603,22.226307 0,0.599397 -17.91101,14.759984 -31.19787,24.665274 -6.69053,4.98777 -6.36228,4.81752 -7.910879,4.10317 z m 3.698049,-4.06578 c 2.1349,-1.37798 5.81989,-4.15325 13.12651,-9.88592 3.61561,-2.836756 7.87746,-6.148474 9.47078,-7.359376 6.17693,-4.69438 7.01952,-5.542331 7.01952,-7.064257 0,-0.648609 -0.19334,-0.959484 -1.16992,-1.881049 -1.39311,-1.314635 -3.62189,-2.836218 -6.96381,-4.754162 -2.98467,-1.712913 -6.76222,-4.222619 -13.68819,-9.094066 -6.52813,-4.59162 -8.16786,-5.613855 -9.00499,-5.613855 -0.98134,0 -3.548336,1.473076 -8.616105,4.944337 -2.512544,1.721018 -8.328711,5.689997 -12.924818,8.819961 -9.904266,6.744828 -10.027888,6.837448 -10.027888,7.512882 0,0.622023 0.679298,1.232628 9.582201,8.6132 12.936027,10.724065 20.61021,16.683575 21.48377,16.683575 0.1571,0 0.92791,-0.41457 1.71294,-0.92127 z"/>
  <path class="color-white" fill="#ffffff" d="m 84.478587,89.0197 c 0.0429,-3.523687 0.160434,-6.581278 0.261201,-6.794646 0.220898,-0.467737 1.569046,-0.906017 2.466242,-0.801767 0.883489,0.102654 0.97263,0.510959 1.286959,5.894425 l 0.261675,4.481879 2.076236,0.136384 c 2.667842,0.175239 2.959652,0.33071 2.959652,1.576828 0,0.575751 -0.131553,1.076832 -0.324805,1.23722 -0.281872,0.233934 -5.256646,0.638433 -8.214199,0.667902 l -0.850949,0.0085 z"/>
  <path class="color-white" fill="#ffffff" d="m 98.865805,95.079036 c -1.07402,-0.582845 -1.431336,-1.891677 -0.633069,-2.318894 0.66989,-0.358513 1.690513,-0.27245 2.097114,0.176836 0.48951,0.540902 0.46905,1.661093 -0.0387,2.120625 -0.491103,0.44445 -0.641646,0.446715 -1.425315,0.02146 z"/>
  <path class="color-white" fill="#ffffff" d="m 111.24121,94.256485 c -1.71604,-1.77587 -4.23523,-6.408721 -5.43963,-10.00362 -0.63045,-1.881743 -0.65096,-2.044944 -0.32043,-2.549389 0.45818,-0.699257 0.61004,-0.681674 1.60019,0.185284 1.04313,0.913342 2.16973,2.650202 3.85247,5.939293 2.01506,3.938656 1.65558,3.951709 3.64515,-0.132354 0.94524,-1.940332 1.71862,-3.702226 1.71862,-3.915319 0,-0.567994 1.62845,-2.100877 2.4155,-2.273744 1.01544,-0.223028 1.59565,0.185172 1.59565,1.122599 0,0.957924 -1.13802,3.951677 -2.65853,6.993681 -1.51237,3.025769 -2.32537,4.229669 -3.35476,4.96783 -1.23636,0.886574 -1.95,0.808473 -3.05423,-0.334261 z"/>
  <path class="color-white" fill="#ffffff" d="m 119.85938,94.864862 c -0.41813,-0.503802 -0.003,-1.695348 0.73493,-2.107958 0.54254,-0.303487 0.66977,-0.303244 1.2186,0.0025 0.73946,0.411725 0.94548,1.522719 0.3861,2.082096 -0.46219,0.462191 -1.96306,0.477277 -2.33963,0.02352 z"/>
</svg>