<svg id="Layer_1" data-name="Layer 1" xmlns="http://www.w3.org/2000/svg" viewBox="0 0 29 29"><defs><style>.cls-1{fill:#ffe700;}.cls-2{fill:#e93225;}.cls-10,.cls-11,.cls-12,.cls-13,.cls-2,.cls-3,.cls-4,.cls-5,.cls-6,.cls-7,.cls-8,.cls-9{fill-rule:evenodd;}.cls-3{fill:#242122;}.cls-4{fill:#fbf8f8;}.cls-5{fill:#232121;}.cls-6{fill:#252323;}.cls-7{fill:#e6e5e5;}.cls-8{fill:#d1cfcf;}.cls-9{fill:#403f40;}.cls-10{fill:#100d0d;}.cls-11{fill:#120e0f;}.cls-12{fill:#c6c3c3;}.cls-13{fill:#151112;}</style></defs><circle class="cls-1" cx="14.5" cy="14.5" r="14"/><path class="cls-2" d="M5.08,7.29a7.09,7.09,0,0,0,3.24,0,9.76,9.76,0,0,1,3.41.09,5.08,5.08,0,0,0,1.78.07A7.78,7.78,0,0,1,17,7.76a12.47,12.47,0,0,0,4.42.46,11.65,11.65,0,0,1,4.22.71c-1.79.65-2.42,2.21-3.5,3.34a5.63,5.63,0,0,1-1.51,1.11C23,14.44,24,16.62,25.45,18.5c-1.7-.32-3.26.63-4.89,0A2.65,2.65,0,0,0,19,18.7a4.23,4.23,0,0,1-2.7-.06,2.43,2.43,0,0,0-1.74,0,6,6,0,0,1-3.58.25,5.15,5.15,0,0,0-3.35.22.49.49,0,0,1-.19-.32A17,17,0,0,0,6,9.51c-.29-.61-.66-1.17-1-1.77C5,7.59,4.89,7.43,5.08,7.29Z"/><path class="cls-3" d="M5.08,7.29l.09.35A85.13,85.13,0,0,1,7.52,18.8l.06.33c.18,1.88.73,3.69,1.07,5.54.07.36.42.85-.3,1s-.82-.19-.91-.75Q6.09,16.64,4.7,8.4c-.1-.61,0-1.3-.65-1.75a.46.46,0,0,1,0-.77c.19-.18.36-.46.68-.28a.69.69,0,0,1,.45.77C5.09,6.68,4.88,7,5.08,7.29Z"/><path class="cls-4" d="M9.24,13.17l5-3.34a.39.39,0,0,1,.53,0l5,3.39c-1.72,1.33-3.38,2.61-5,3.92-.24.18-.37.12-.56,0C12.5,15.82,10.9,14.53,9.24,13.17Z"/><path class="cls-5" d="M17.4,14.47c-.91.72-1.81,1.42-2.7,2.16-.25.2-.39.17-.62,0-1.36-1.13-2.73-2.24-4.14-3.4,1.43-1,2.86-1.93,4.28-2.92.25-.18.4,0,.58.09l2.45,1.74c0,.38-.52.21-.57.54,0,.09,0,0,0,.07-.18.36-.27.93-.68,1s-.41-.6-.68-.86c.34,1.07.45,1.17,1.14,1A.89.89,0,0,1,17,14l.33.21C17.39,14.29,17.45,14.36,17.4,14.47Z"/><path class="cls-6" d="M16.93,14.19l-.46-.32c-.15-.32,0-.6.15-.88s.15-.36-.12-.45c.05-.49.57-.15.75-.42h.07c1.9,1.09,1.9,1.1.08,2.35l-.19-.16C17.17,14.15,17.1,14.06,16.93,14.19Z"/><path class="cls-7" d="M16.5,12.54c.15-.13.3-.32.5-.14s-.05.26-.09.39c-.14.36-.29.72-.44,1.08-.45.52-.66.51-.95,0a10.26,10.26,0,0,1-.49-1c-.06-.14-.33-.34,0-.47s.34.13.43.31l.26.54.32.61C16,13.26,16.49,13,16.5,12.54Z"/><path class="cls-8" d="M12.62,13.74c.19.26.85-.26.76.46a1.37,1.37,0,0,1-.87.12.4.4,0,0,1-.44-.32,4.69,4.69,0,0,1,0-1.4.25.25,0,0,1,.31-.24c.14,0,.15.16.17.29A3.33,3.33,0,0,0,12.62,13.74Z"/><path class="cls-9" d="M12.62,13.74c-.21-.26,0-.56-.1-.84s.15-.54-.21-.52-.14.36-.17.55,0,.4,0,.6c-.1.61.19.78.74.7a4.53,4.53,0,0,1,.52,0c0,.05,0,.1,0,.16a3,3,0,0,1-1.33,0l0-.17a7.23,7.23,0,0,1,0-1.74c.4-.33.62-.22.63.29C12.64,13.05,12.63,13.4,12.62,13.74Z"/><path class="cls-10" d="M12,12.42v1.74A2.66,2.66,0,0,1,12,12.42Z"/><path class="cls-11" d="M12,14.33l1.33,0A1.4,1.4,0,0,1,12,14.33Z"/><path class="cls-12" d="M14.29,14c0,.18-.07.28-.2.27a.26.26,0,0,1-.2-.17c-.05-.15.08-.21.2-.22S14.28,13.92,14.29,14Z"/><path class="cls-8" d="M16.93,14.19c0-.25.09-.39.33-.27s0,.27-.05.39Z"/><path class="cls-13" d="M16.23,14.42a.45.45,0,0,1-.5,0A.44.44,0,0,1,16.23,14.42Z"/></svg>