<svg id="Layer_1" data-name="Layer 1" xmlns="http://www.w3.org/2000/svg" viewBox="0 0 29 29"><defs><style>.cls-8{fill-rule:evenodd;fill:#d1cfcf}</style></defs><circle cx="14.5" cy="14.5" r="14" fill="#ffe700"/><path d="M5.08 7.29a7.09 7.09 0 003.24 0 9.76 9.76 0 013.41.09 5.08 5.08 0 001.78.07 7.78 7.78 0 013.49.31 12.47 12.47 0 004.42.46 11.65 11.65 0 014.22.71c-1.79.65-2.42 2.21-3.5 3.34a5.63 5.63 0 01-1.51 1.11C23 14.44 24 16.62 25.45 18.5c-1.7-.32-3.26.63-4.89 0a2.65 2.65 0 00-1.56.2 4.23 4.23 0 01-2.7-.06 2.43 2.43 0 00-1.74 0 6 6 0 01-3.58.25 5.15 5.15 0 00-3.35.22.49.49 0 01-.19-.32A17 17 0 006 9.51c-.29-.61-.66-1.17-1-1.77 0-.15-.11-.31.08-.45z" fill-rule="evenodd" fill="#e93225"/><path d="M5.08 7.29l.09.35A85.13 85.13 0 017.52 18.8l.06.33c.18 1.88.73 3.69 1.07 5.54.07.36.42.85-.3 1s-.82-.19-.91-.75Q6.09 16.64 4.7 8.4c-.1-.61 0-1.3-.65-1.75a.46.46 0 010-.77c.19-.18.36-.46.68-.28a.69.69 0 01.45.77c-.09.31-.3.63-.1.92z" fill="#242122" fill-rule="evenodd"/><path d="M9.24 13.17l5-3.34a.39.39 0 01.53 0l5 3.39c-1.72 1.33-3.38 2.61-5 3.92-.24.18-.37.12-.56 0-1.71-1.32-3.31-2.61-4.97-3.97z" fill="#fbf8f8" fill-rule="evenodd"/><path d="M17.4 14.47c-.91.72-1.81 1.42-2.7 2.16-.25.2-.39.17-.62 0-1.36-1.13-2.73-2.24-4.14-3.4 1.43-1 2.86-1.93 4.28-2.92.25-.18.4 0 .58.09l2.45 1.74c0 .38-.52.21-.57.54v.07c-.18.36-.27.93-.68 1s-.41-.6-.68-.86c.34 1.07.45 1.17 1.14 1A.89.89 0 0117 14l.33.21c.06.08.12.15.07.26z" fill="#232121" fill-rule="evenodd"/><path d="M16.93 14.19l-.46-.32c-.15-.32 0-.6.15-.88s.15-.36-.12-.45c.05-.49.57-.15.75-.42h.07c1.9 1.09 1.9 1.1.08 2.35l-.19-.16c-.04-.16-.11-.25-.28-.12z" fill="#252323" fill-rule="evenodd"/><path d="M16.5 12.54c.15-.13.3-.32.5-.14s-.05.26-.09.39c-.14.36-.29.72-.44 1.08-.45.52-.66.51-.95 0a10.26 10.26 0 01-.49-1c-.06-.14-.33-.34 0-.47s.34.13.43.31l.26.54.32.61c-.04-.6.45-.86.46-1.32z" fill="#e6e5e5" fill-rule="evenodd"/><path class="cls-8" d="M12.62 13.74c.19.26.85-.26.76.46a1.37 1.37 0 01-.87.12.4.4 0 01-.44-.32 4.69 4.69 0 010-1.4.25.25 0 01.31-.24c.14 0 .15.16.17.29a3.33 3.33 0 00.07 1.09z"/><path d="M12.62 13.74c-.21-.26 0-.56-.1-.84s.15-.54-.21-.52-.14.36-.17.55 0 .4 0 .6c-.1.61.19.78.74.7a4.53 4.53 0 01.52 0v.16a3 3 0 01-1.33 0v-.17a7.23 7.23 0 010-1.74c.4-.33.62-.22.63.29-.06.28-.07.63-.08.97z" fill="#403f40" fill-rule="evenodd"/><path d="M12 12.42v1.74a2.66 2.66 0 010-1.74z" fill="#100d0d" fill-rule="evenodd"/><path d="M12 14.33h1.33a1.4 1.4 0 01-1.33 0z" fill="#120e0f" fill-rule="evenodd"/><path d="M14.29 14c0 .18-.07.28-.2.27a.26.26 0 01-.2-.17c-.05-.15.08-.21.2-.22s.19.04.2.12z" fill="#c6c3c3" fill-rule="evenodd"/><path class="cls-8" d="M16.93 14.19c0-.25.09-.39.33-.27s0 .27-.05.39z"/><path d="M16.23 14.42a.45.45 0 01-.5 0 .44.44 0 01.5 0z" fill="#151112" fill-rule="evenodd"/></svg>