<svg xmlns="http://www.w3.org/2000/svg" viewBox="0 0 30.61 30.61"><defs><style>.cls-2{fill-rule:evenodd;fill:#fff}</style></defs><g id="Company_Homes" data-name="Company Homes"><path d="M15.3 1.47A13.84 13.84 0 111.47 15.31 13.84 13.84 0 0115.3 1.47" fill-rule="evenodd" fill="#6d0020"/><g id="CDWDel.tif"><path class="cls-2" d="M30.57 17.14a5.58 5.58 0 00-.21 1.08 17.77 17.77 0 01-.78 2.78A16.93 16.93 0 0128 24a11.67 11.67 0 01-1.05 1.38A15.8 15.8 0 0124 28a15.85 15.85 0 01-4.82 2.16 16.11 16.11 0 01-1.94.35 13.53 13.53 0 01-3.05.05 14.5 14.5 0 01-4.81-1.25 16.09 16.09 0 01-4-2.56A14.25 14.25 0 012.94 24a15.5 15.5 0 01-2.4-5.16 12.88 12.88 0 01-.45-2.54v-1.87a10.14 10.14 0 01.21-1.9A15 15 0 011 9.84a14.79 14.79 0 012.3-4.17A16.91 16.91 0 014.87 4a15 15 0 012.65-2A13.08 13.08 0 0110.69.65a15.4 15.4 0 012.45-.49A20.19 20.19 0 0115.83 0 17.34 17.34 0 0119 .46a14.2 14.2 0 012.64.91 12.69 12.69 0 011.94 1.07c.61.4 1.21.83 1.78 1.29a16.1 16.1 0 011.61 1.59c.29.32.54.67.82 1a7.72 7.72 0 01.71 1.11 12.8 12.8 0 011.08 2.31A9.38 9.38 0 0130 11a13.05 13.05 0 01.52 2.69c0 .06 0 .12.07.14m-15 15.15a10.36 10.36 0 002.88-.28 13.1 13.1 0 003.27-1.2c.75-.42 1.44-.94 2.15-1.43a10.89 10.89 0 002.45-2.53 12 12 0 001.71-3 14.8 14.8 0 00.95-4.43 13.55 13.55 0 00-.47-4.43 13.77 13.77 0 00-4.76-7.22 13.44 13.44 0 00-4-2.19 15.36 15.36 0 00-3.36-.72 13.36 13.36 0 00-2.83 0 13.58 13.58 0 00-2.79.64 12.42 12.42 0 00-2.94 1.4 13.32 13.32 0 00-3.29 3 12.68 12.68 0 00-2.11 3.78A12.38 12.38 0 001.64 15a14.53 14.53 0 00.18 2.29 16.18 16.18 0 001 3.24 15.32 15.32 0 001.86 3.12 13.25 13.25 0 002.42 2.4 13.85 13.85 0 003.63 2.05 12.64 12.64 0 004.88.84z"/><path class="cls-2" d="M19.46 21.2a1.42 1.42 0 00.48-1c.43-1.7.86-3.4 1.25-5.11q.19-.86.36-1.71c0-.17.07-.31.23-.33s.26.14.31.28c.36 1.07.8 2.11 1.2 3.17s.73 2 1.09 3c.06.15.05.31.16.44s0 .21.17.2.16-.12.2-.2a11.13 11.13 0 00.62-1.7 9.69 9.69 0 00.47-3.4 10 10 0 00-.75-3.36 10.31 10.31 0 00-1.35-2.59c-.29-.35-.57-.72-.89-1a5.19 5.19 0 00-.87-.89.25.25 0 01-.14-.22v-1.5a.43.43 0 01.25-.35c.15-.07.21.1.31.17a8 8 0 011.87 1.6 14.23 14.23 0 012.27 3.47 15.82 15.82 0 01.85 2.66 5.83 5.83 0 01.17 1.11 11.89 11.89 0 01.08 1.69 12.49 12.49 0 01-.9 4.26A14.9 14.9 0 0125.18 23a12.64 12.64 0 01-2.45 2.45c-.08.06-.2.18-.33.06s-.08-.19 0-.31a7.06 7.06 0 00.23-1.65c.05-.3.31-.42.42-.66a3.89 3.89 0 00.28-2.56c-.26-.94-.67-1.82-1-2.74 0-.07 0-.16-.16-.14s-.07.09-.08.15c-.4 1.5-.77 3-1.16 4.5-.25.94-.5 1.87-.71 2.81a2.23 2.23 0 00.08 1.64c.15.26-.17.41-.35.44-.52.1-1 .34-1.5.48h-.2c-.34.06-.43-.06-.43-.42V4.95a3.83 3.83 0 00-.29-1.63c-.11-.23 0-.42.3-.36.56.12 1.12.25 1.66.42a.34.34 0 01.23.54A2.2 2.2 0 0019.46 5zm-8.39-.67a.37.37 0 00.08-.33V4.45c0-.18 0-.32-.21-.41s-.28-.36 0-.52a6.74 6.74 0 011.16-.35 4.42 4.42 0 01.52-.17c.3 0 .46.13.32.38a2.41 2.41 0 00-.18 1.21v21.58a1.65 1.65 0 00.18.85.26.26 0 010 .32.26.26 0 01-.31.1L11.12 27c-.45-.15-.48-.24-.21-.64a1.22 1.22 0 000-1.13c-.38-1.28-.78-2.55-1.18-3.82S9 19 8.57 17.72C8 15.85 7.37 14 6.77 12.09c-.2-.63-.4-1.26-.57-1.9 0-.11-.11-.12-.16-.14s-.11.08-.14.15a11.47 11.47 0 00-.9 2.7 12.48 12.48 0 00-.26 2.44 13.87 13.87 0 00.38 2.49 14.7 14.7 0 001.74 3.8 6.85 6.85 0 001 1.32 1.18 1.18 0 01.26.82 6.4 6.4 0 00.31 1.14c.05.13.13.27 0 .36s-.31 0-.43-.09c-.31-.25-.63-.5-.92-.78a14.49 14.49 0 01-1.6-1.72 11.58 11.58 0 01-1.3-2.09 14.89 14.89 0 01-.92-2.52 12.44 12.44 0 01-.34-3.75 11.45 11.45 0 011.13-4.56 11.22 11.22 0 012.22-3.19C6.83 6 7.45 5.56 8 5.06c.2-.17.44-.06.44.23a3.79 3.79 0 01-.28 2 3.81 3.81 0 00-.36 2.34 21.47 21.47 0 001.05 3.89c.67 2.18 1.32 4.36 2 6.53.06.18.15.3.22.48zm3.22-2.6v.77a1.69 1.69 0 00.25 1.13c.24.3.13.45-.25.45h-.7c-.21 0-.35-.05-.23-.3a1.39 1.39 0 00.1-.64V14.7a3.8 3.8 0 00-.15-1c-.1-.31 0-.53.34-.53.8 0 1.61-.05 2.41 0 1 .07 1.14.38 1.3 1.44a2.07 2.07 0 01-.09.89 1 1 0 01-.71.72c-.24.08-.29.21-.21.43.41 1.08.63 2.22 1.12 3.27a.22.22 0 010 .28 1.54 1.54 0 01-.9 0s-.09-.1-.06-.15c.26-.35-.05-.6-.14-.88-.28-.84-.57-1.68-.84-2.52a.49.49 0 00-.55-.39c-.64 0-.64 0-.64.65zm.92-2.47H16c.33 0 .46-.21.52-.48a1.6 1.6 0 000-.38.63.63 0 00-.67-.68h-1c-.56 0-.56 0-.56.56 0 .31-.11.73.05.91s.66.04.87.07z"/><path class="cls-2" d="M15.23 2.54a1.06 1.06 0 011 1.45 3.65 3.65 0 01-.74 1.42.59.59 0 00-.1.71c.26.57.52 1.15.79 1.71 0 .09.06.28.21.21a.28.28 0 00.15-.37c0-.09 0-.2-.11-.28a.2.2 0 010-.33.27.27 0 01.35 0 .94.94 0 01.34 1.14.87.87 0 000 .93c.15.22.05.5.06.74s-.07.14-.17.15a.35.35 0 01-.35-.17c-.16-.31-.33-.29-.6-.12a1.86 1.86 0 01-2.93-.87 2.57 2.57 0 01.47-2.42 2.76 2.76 0 01.4-.51.76.76 0 00.19-.9 6.66 6.66 0 01-.27-1 1.28 1.28 0 011.31-1.49zM15 9.25h.17a1 1 0 00.65-.37c.14-.18-.09-.32-.17-.48a13 13 0 01-.9-1.79c0-.15-.12-.28-.28 0a3.24 3.24 0 00-.54 1.28A1.12 1.12 0 0015 9.25zm-.31-5.48c.06.23.1.47.18.69s.15.24.29 0a2.34 2.34 0 00.44-.74c.06-.22.07-.47-.21-.57a.5.5 0 00-.61.24.82.82 0 00-.09.38zM17 20.91c.15.05.43-.11.51.1s-.2.32-.3.49c-.22.39-.42.79-.63 1.19-.08.16-.17.32-.26.47a2.42 2.42 0 00-.32 1.31v1.92a1.92 1.92 0 00.18.82c.15.29 0 .51-.29.54a3.75 3.75 0 01-.67 0c-.31 0-.23-.28-.19-.42a11.08 11.08 0 00.1-3.25c0-.55-.47-1-.74-1.52a5.28 5.28 0 00-.83-1.36c-.14-.13 0-.26.14-.28a3.75 3.75 0 01.67 0 .27.27 0 01.23.23 7.39 7.39 0 00.82 1.85c.11.24.21 0 .25-.05.2-.38.39-.78.58-1.17l.2-.42s.07-.08.07-.11c.02-.34.02-.34.48-.34zm-1.7-10.06H17c.16 0 .2 0 .21.21 0 .91 0 .91-.88.91H13.7c-.2 0-.25-.06-.25-.25 0-.88 0-.88.84-.88z"/></g></g></svg>