<svg xmlns="http://www.w3.org/2000/svg" viewBox="0 0 144 144">
    <circle class="color-main color-black" cx="72" cy="72" r="68.3"/>
    <path class="color-white" fill="#fff" d="M71.8 54.1l-7.5.1v4.1c.1.2 1.6.2 7.6.2h7.5v-4.4h-7.6zM63.9 92l-.1.9H66l2.2-.1.1-.6c0-.4-.1-.9-.4-1.6l-.5-1v-6.5c0-4.8 0-6.6.1-6.8.1-.2.7-.2 2.2-.2 1.7 0 2 0 2.3.3.2.2.8 1.7 1.4 3.3.6 1.6 1.8 4.8 2.7 7.1l1.6 4.1-.3.8c-.2.5-.2.9-.2 1 .1.1.8.2 1.9.2 2.3 0 2.4-.1 1.7-1.5-.3-.5-1-2.5-1.6-4.4C76 76.6 76 76.8 76.3 76.5c.1-.1.7-.5 1.2-.8 1.3-.7 2.2-1.8 2.6-3.2.4-1.3.4-4.3 0-5.7-.6-1.9-1.9-3.2-3.6-3.6-.5-.1-3.2-.2-6.6-.2-4.9 0-5.8 0-6.1.3-.5.4-.5 1.2.1 2.6l.4 1.1-.1 12c-.2 6.7-.2 12.5-.3 13zm3.6-25.8c.2-.1 1.8-.2 4-.2 3.1 0 3.7 0 4.2.3 1.8.9 2 5 .4 6.1-.6.4-.7.4-4.5.4-2.8 0-4-.1-4.1-.2-.1-.1-.2-1.1-.2-3.2-.1-2.8-.1-3.1.2-3.2zm.5-15.9c1.3.5 3.1.5 4.5 0 .6-.2 1.7-.7 2.4-1.1.7-.4 1.4-.8 1.5-.8.1 0 .5.3 1 .8 1.5 1.4 2.2 1.3 2.3-.4.1-1.4 0-1.7-.7-2.2-.3-.2-.6-.5-.7-.6 0-.1.2-.8.6-1.6.6-1.2.7-1.5.8-2.7.1-1.7-.2-2.4-1.4-3.3-.9-.7-1.3-.8-1.6-.4-.2.2-.1.5.2 1.3.6 1.3.6 1.9 0 2.5-.4.4-.6.5-.9.3-.1-.1-1.2-2.2-2.4-4.8-1.9-3.9-2.2-4.7-2.1-5 .1-.2.7-1 1.4-1.9 1.3-1.7 2.4-3.8 2.7-5.2.5-2.7-.2-4.9-2.1-5.9-1-.5-3.3-.5-4.4 0-1.8.8-2.8 2.2-3 4.1-.1 1.1.3 3 1.4 6.2l.6 1.8-1.1 1.1c-2.3 2.3-3.4 4-4.2 6.6-.6 1.7-.5 4.6 0 6.1 1.2 2.6 2.8 4.3 5.2 5.1zm1.3-27.2c.9-2.7 4.4-2.3 4 .4-.1 1-1.2 3.1-2.1 4.1-.6.7-.7.8-1 .5-.3-.3-.7-1.5-1-3.2-.1-.9-.1-1.2.1-1.8zm-1.6 13.5c.8-1.1 1.3-1.6 1.7-1.4.1.1.7 1.1 1.3 2.2.6 1.2 1.6 3.4 2.4 4.9.9 1.8 1.3 2.8 1.3 3.1-.1.4-1.4 1.5-2.2 1.9-1 .4-2.4.3-3.5-.2-1.5-.8-2.8-2.6-3-4.4-.3-1.5.6-4 2-6.1zm-6.3-16.3c-.5-.3-5.7 1.2-7.5 2.1-1.4.7-1.6 1.5-.6 1.9 1.1.4 1-2.3 1 35.1v34.2h-.4c-.6 0-.8-.6-3.2-8.7-.3-1-3.9-12.5-5.3-17.1-.4-1.2-.9-2.9-1.2-3.9-.3-1-.6-2-.7-2.2-.1-.2-.4-1.2-.7-2.2-.3-1-.7-2.2-.9-2.8-1.4-4.4-2.1-8.5-2-12.3.1-3 .4-4.2 1.2-5.6 1.3-2.1 1.4-2.5 1.6-4.3.1-1.2.1-2.2 0-3.1-.4-2.8-.6-2.8-4.4.4-2.1 1.7-5.7 5.4-7.4 7.5-5.7 7.2-9.3 15.2-10.8 24.2-.3 1.8-.7 6.2-.7 8 0 4.2.7 9.7 1.7 13.7 2.4 9.2 7.4 17.6 14.6 24.6 3.7 3.6 5.1 4.6 6.3 4.5.8-.1.8-.6-.1-3.1-.7-2-.7-2.2-.8-4.5-.1-2.8 0-2.5-2.6-5.4-5.2-5.7-8.9-12.7-10.6-19.5-1.3-5.5-1.5-12.2-.4-18.3.7-4.3 2.3-9.4 3.7-12.2.8-1.6 1.2-1.9 1.8-1.4.3.2 1 2.1 2.2 6.2.4 1.2 3.4 11 5.9 18.8.5 1.7 1.1 3.5 1.3 4 .2.6.9 3 1.7 5.4.8 2.4 1.8 5.6 2.2 7.1.5 1.5 1.3 4 1.8 5.6 1.3 4.3 2.5 7.9 2.8 9.1.2.6.8 2.7 1.5 4.8 1.6 5 1.8 6 1.5 6.8-.1.4-.4 1-.7 1.3-.8 1.1-.8 1.4-.2 1.9.4.4 1.2.7 3.1 1.3 3.7 1.1 3.7 1.1 4.6 1.1.7 0 .8-.1.8-.6 0-.3-.1-.8-.3-1.3l-.4-.7V23.5l.4-1c.4-1.1.5-2 .2-2.2zM78.8 96c-2.4.1-2.2-.1-2 1.2.1.4-.3 1.3-1.6 4-1.7 3.5-2.1 4-2.7 3.8-.4-.1-3.7-6.6-4-7.8-.3-1.1-.7-1.3-2.3-1.3-2 0-2.4.4-1.2 1.6.6.6 2.7 4.2 5.1 8.9 1.1 2.2 1.2 2.9 1.1 9.6-.1 4.6-.1 5.5-.4 6.2-.2.4-.3 1-.2 1.4.1.5.1.6.7.8.8.3 2 .3 3 0 .4-.1.9-.3 1-.4.3-.3.2-1-.2-1.7-.8-1.2-.9-1.8-.9-6.7 0-4.6.2-6.5.7-8.2.5-1.4 5-9.5 5.7-10.2 1-1.1.8-1.3-1.8-1.2zm44-37.1c-1.7-7-5.1-14-9.8-19.8-2.6-3.2-6.5-7.1-10.2-9.9-1.3-1-1.4-1.1-1.8-.9-.7.3-.9 1.1-.9 3.7 0 3.3.1 3.5 1.6 4.8 9 7.9 14 17.9 15.3 30.4.3 2.7.1 8.5-.3 10.8-.9 4.5-2.7 10.2-4.2 13-.5.9-1 1.2-1.4.7-.1-.2-.7-1.7-1.3-3.4-2-5.7-3-8.5-5.2-14-.9-2.2-2.2-5.6-2.9-7.5-1.4-3.9-2-4.8-2.6-4-.2.2-.8 2.6-1.2 4.4-.2 1.1-.3 1.5-1.1 5.1-.4 1.7-1 4.2-1.3 5.7-.3 1.4-.9 3.6-1.2 4.8-.3 1.3-.9 3.6-1.4 5.2-2.2 8.5-2.2 8.5-2.8 8.5-.2 0-.4-.1-.5-.3-.1-.2-.2-11.3-.1-35.5V25.5l.5-1.2c.7-1.5.7-1.8 0-2.2-2.4-1.2-7.6-2.3-8.4-1.7-.4.3-.3.5.5 2.8l.5 1.3v96l-.4.8c-.9 2 .5 2.2 4.7.9 1.3-.4 2.8-.8 3.3-1 1.2-.2 1.8-.5 2.2-1 .4-.4.3-.8-.1-2-.4-1-.4-3.8.1-5.3.7-2.7 2.6-9.6 5-18.9.6-2.4 2.1-8.4 2.9-11.5.4-1.6.6-1.9 1-1.6.4.3 1 1.3 2.1 4.1 1.9 4.8 3.1 9.2 3.1 11.5 0 1.9-1.1 5.2-2.1 6-.7.6-1 1.9-1.5 6.4-.1.9-.4 2.4-.6 3.3-.5 1.8-.4 2.2.2 2.2 1.2 0 7.8-6 10.8-9.9 6.1-7.9 9.6-16.4 11.1-27.2.3-2.2.2-9.5-.1-11.9-.7-3.2-.8-3.6-1.5-6.5z"/>
    <path class="color-white" fill="#fff" d="M135 57c-5.9-24.6-25.6-43.6-50.4-48.5C74 6.4 62.7 7 52.4 10.3c-6.2 2-12.5 5.1-17.8 8.9-5.7 4-11.8 10.2-15.6 15.7-6.5 9.3-10 18.8-11.4 30.6-.4 3.2-.4 10.2 0 13.4 1.3 11.1 4.6 20.3 10.4 29 8 12 19.6 20.9 33 25.5 4.6 1.6 8.9 2.5 14 3.1 3.1.4 12.6.2 15.8-.2 24.3-3.4 44.5-20 52.4-43 2.5-7.2 3.5-13.3 3.5-21.2 0-5.9-.4-9.7-1.7-15.1zm-4.8 20.7c-1 7.8-2.8 13.8-6 20.3-8 15.8-23 27.2-40.2 30.7-2.8.6-4.1.7-7.7 1-3.5.3-4.9.3-8.6 0-10.4-.9-19.8-4.1-28.2-9.8-5-3.4-9.4-7.5-13.3-12.3-2.3-2.8-5.4-7.8-6.7-10.7-3-6.5-4.3-10.9-5.3-18-.4-2.7-.4-11.4-.1-13.9.6-4.3 1.6-8.5 2.6-11.6 3-8.9 7.5-16.2 14.2-22.9 7.5-7.5 16.4-12.7 26.6-15.3 4-1 6.8-1.5 11.7-1.8 4.3-.3 9.8.1 14.7 1.1 11.2 2.3 21.4 7.8 29.6 16 3.6 3.7 5.8 6.4 8.3 10.4 4.6 7.4 7.2 15 8.4 24.2.2 2.4.2 10.5 0 12.6z"/>
</svg>