<svg id="Layer_1" data-name="Layer 1" xmlns="http://www.w3.org/2000/svg" viewBox="0 0 29 29"><defs><style>.cls-5{fill-rule:evenodd}.cls-4,.cls-5{fill:#231f20}</style></defs><circle cx="14.5" cy="14.5" r="13.976" fill="#fff"/><path d="M14.499 24.57A10.07 10.07 0 104.429 14.5a10.07 10.07 0 0010.07 10.07" fill-rule="evenodd" fill="none"/><path d="M14.499 24.57A10.07 10.07 0 104.429 14.5a10.07 10.07 0 0010.07 10.07m0 3.65A13.72 13.72 0 10.78 14.5 13.722 13.722 0 0014.5 28.22z" fill-rule="evenodd" fill="#fff"/><path class="cls-4" d="M14.499 24.57v-.28a9.793 9.793 0 10-6.922-2.868 9.756 9.756 0 006.922 2.869v.559a10.351 10.351 0 1110.35-10.35A10.35 10.35 0 0114.5 24.85zm0 3.65v-.28a13.44 13.44 0 10-9.504-3.937 13.405 13.405 0 009.504 3.938v.559a14 14 0 1114-14 13.999 13.999 0 01-14 14z"/><path class="cls-4" d="M24.814 17.567l.384.134-.108.316-.384-.133.108-.317m1.4-1.338a.905.905 0 00-.565.03.414.414 0 00-.133.674.925.925 0 00.523.24.9.9 0 00.56-.026.428.428 0 00.13-.681.901.901 0 00-.515-.237zm.055-.36a1.514 1.514 0 01.592.23.86.86 0 01.303.357.78.78 0 01.034.454.758.758 0 01-.396.544 1.516 1.516 0 01-1.61-.328.727.727 0 01-.148-.633.738.738 0 01.372-.536 1.258 1.258 0 01.853-.087zm-.248-.765l-.144.335a.958.958 0 01-.511-.283.662.662 0 01-.148-.461.676.676 0 01.28-.542 1.269 1.269 0 01.824-.214 1.322 1.322 0 01.84.275.69.69 0 01.247.58.667.667 0 01-.217.482.884.884 0 01-.428.19l-.09-.35a.465.465 0 00.27-.124.335.335 0 00.1-.23.373.373 0 00-.157-.32.966.966 0 00-.55-.14 1.023 1.023 0 00-.573.098.362.362 0 00-.18.303.314.314 0 00.099.243.681.681 0 00.338.158zm.103-3.478l.058.254a1.35 1.35 0 00.09.291l.104.083.176.002.149-.075.057-.127a1.384 1.384 0 00-.048-.282l-.062-.266zm-1.272-.066l2.068-.476.165.72a1.018 1.018 0 01.035.406l-.147.241a.691.691 0 01-.313.15.626.626 0 01-.417-.024.533.533 0 01-.262-.288l-.13.22a2.573 2.573 0 01-.292.276l-.355.297-.094-.407.393-.351a2.963 2.963 0 00.262-.253l.062-.121-.017-.178-.016-.07-.862.2zm.693-1.748l.095.243a1.427 1.427 0 00.128.276l.117.07.172-.025.138-.095.039-.133a1.406 1.406 0 00-.087-.272l-.098-.257zm-1.267.11l1.98-.758.265.689a1.06 1.06 0 01.093.399.463.463 0 01-.114.259.7.7 0 01-.288.192.639.639 0 01-.417.033.538.538 0 01-.3-.249.855.855 0 01-.099.238 2.432 2.432 0 01-.25.312l-.311.346-.15-.39.34-.405a2.922 2.922 0 00.227-.286l.044-.13-.041-.17-.026-.068-.828.316zm-1.198-1.97l1.799-1.124.682 1.096-.303.189-.5-.797-.398.249.464.74-.303.19-.464-.741-.49.306.516.824-.303.19zm-.455-.5l1.602-1.39.229.264-1.6 1.391zm-.128-1.884l.188.181a1.16 1.16 0 00.233.197l.135.014.146-.095.084-.145-.02-.137a1.447 1.447 0 00-.195-.21l-.197-.19zm-1.104.639L22.87 4.68l.53.513a1.076 1.076 0 01.253.324.459.459 0 01.006.28.7.7 0 01-.18.299.635.635 0 01-.362.204.535.535 0 01-.378-.098.83.83 0 01.012.256 2.44 2.44 0 01-.096.388l-.135.446-.3-.292.137-.509a2.976 2.976 0 00.082-.353l-.013-.137-.11-.139-.053-.05-.616.637zm-1.307-.938l1.248-1.717 1.044.76-.211.29-.761-.552-.277.38.707.513-.211.29-.706-.514-.34.467.788.571-.21.29zm-2.096-.957l.794-1.966 1.197.483-.135.333-.872-.353-.175.436.81.328-.134.332-.811-.328-.216.534.902.365-.134.332zm-1.684-.44l.477-2.066.342.077-.212.919.904-.759.46.106-.823.66.38 1.416-.443-.102-.242-1.078-.358.281-.143.623zm-.762-.93l-.17-.804-.302.764zm.57.894l-.38-.033-.109-.494-.692-.062-.184.469-.373-.033.86-2.054.37.032zm-3.035-.022l-.185-2.095.35-.03.151 1.74.871-.078.031.357zm-2.175-.48l-.115.208v.216l.13.188.203.025a.439.439 0 00.25-.24zm.006-.461l.064-.106.044-.205-.086-.117-.137-.016-.105.077-.014.122.123.156zm1.19.858l-.107.357a1.185 1.185 0 01-.343-.154.615.615 0 01-.421.357.555.555 0 01-.5-.056.672.672 0 01-.264-.37.73.73 0 01.202-.734.849.849 0 01-.3-.399.441.441 0 01.037-.355.472.472 0 01.304-.22.459.459 0 01.594.33l.004.26a.953.953 0 01-.168.315l.34.307a1.21 1.21 0 00.003-.251l.313-.004a1.5 1.5 0 01-.024.463l.176.093zM8.544 5.52l-1.06-1.837.303-.175.417.723.596-.345-.416-.722.304-.175 1.06 1.834-.304.178-.464-.805-.596.346.463.804zm-1.389.065l-.239-.266.562-.507.565.629a.91.91 0 01-.085.387.977.977 0 01-.248.355.829.829 0 01-.422.21.863.863 0 01-.486-.073 1.448 1.448 0 01-.482-.364 1.402 1.402 0 01-.316-.523.884.884 0 01-.024-.479.797.797 0 01.25-.39.684.684 0 01.967-.03l-.206.29a.456.456 0 00-.274-.09.374.374 0 00-.243.103.447.447 0 00-.154.372.854.854 0 00.254.488.956.956 0 00.501.332.41.41 0 00.375-.104l.126-.18.059-.23-.18-.2zm-1.97 1.382l.166-.201a1.457 1.457 0 00.18-.245l.004-.135-.104-.14-.151-.074-.136.029a1.54 1.54 0 00-.196.208l-.175.212zm.712 1.053L4.271 6.658l.475-.567a1.042 1.042 0 01.305-.274.46.46 0 01.278-.025.683.683 0 01.31.158.632.632 0 01.231.35.528.528 0 01-.072.381.862.862 0 01.255-.029 2.42 2.42 0 01.395.068l.452.104-.269.32-.517-.1a2.877 2.877 0 00-.36-.06l-.132.025-.133.12-.046.056.677.569zm-2.745.347l.185-.297.975.61a2.964 2.964 0 00.303.173l.243.022.187-.155.059-.199-.073-.167a1.846 1.846 0 00-.335-.243L3.7 7.489l.187-.299.945.59a2.91 2.91 0 01.498.367.523.523 0 01.154.338.68.68 0 01-.125.418.785.785 0 01-.307.31.546.546 0 01-.35.042 2.072 2.072 0 01-.59-.288zm.374 2.078l.53.204.117-.304a1.043 1.043 0 00.078-.265l-.045-.127-.143-.098-.176-.02-.128.076a1.15 1.15 0 00-.13.27zm-.787-.301l.458.175.084-.216a2.364 2.364 0 00.085-.243l-.02-.158-.14-.108-.155-.015-.105.065a2.302 2.302 0 00-.133.31zm-.455.2l.25-.65a1.029 1.029 0 01.193-.356.463.463 0 01.242-.116.58.58 0 01.306.033.57.57 0 01.234.162l.106.231a.471.471 0 01.263-.158.556.556 0 01.335.033.676.676 0 01.324.245.46.46 0 01.091.316 2.74 2.74 0 01-.151.467l-.213.554zm.915 2.265l.031-.343c.271.017.432-.077.478-.287a.358.358 0 00-.03-.26l-.183-.134-.128.006-.102.077a3.155 3.155 0 00-.172.285 1.08 1.08 0 01-.212.292.565.565 0 01-.238.117.62.62 0 01-.286.002.63.63 0 01-.29-.14.537.537 0 01-.16-.257.743.743 0 01.003-.351.656.656 0 01.262-.432.655.655 0 01.504-.081l-.054.347a.392.392 0 00-.257.048.327.327 0 00-.11.2.34.34 0 00.013.226l.128.107.156-.039a1.009 1.009 0 00.195-.286 1.282 1.282 0 01.237-.339.534.534 0 01.251-.131.745.745 0 01.332.006.672.672 0 01.419.264.685.685 0 01.072.56c-.088.416-.375.597-.86.543zm.575 1.144l-1.758-.123-.037.517-.357-.025.096-1.38.358.026-.035.513 1.757.123zm-.004 1.484l-1.755.152.045.515-.358.031-.12-1.377.357-.031.045.513 1.756-.152zm.111 1.084l-2.08.403-.067-.343 2.082-.403zm-1.41 1.713l.577-.166-.053-.187a.86.86 0 00-.1-.247l-.127-.083-.181.004-.157.095-.065.137a1.145 1.145 0 00.058.283zm1.789-.15l-2.038.584-.157-.542a1.738 1.738 0 01-.083-.405.472.472 0 01.13-.303.762.762 0 01.37-.21.776.776 0 01.394-.023.505.505 0 01.27.148 1.14 1.14 0 01.186.415l.063.22.77-.22zm19.76 5.347l-1.308-1.178-.346.384-.267-.24.925-1.028.266.241-.346.384 1.311 1.177-.234.26m-1.553 1.46l-1.392-1.6.258-.224 1.467.602-.931-1.069.248-.216 1.39 1.601-.265.232-1.437-.585.907 1.046zm-1.107-.227l-.62-.54.217.793zm.992.369l-.323.202-.384-.328-.59.369.134.484-.317.199-.548-2.16.314-.196zm-1.947 1.174l-.963-1.888.312-.158.963 1.888zm-1.25-.293l-.128-.335.706-.27.303.789a.911.911 0 01-.219.331 1.008 1.008 0 01-.359.242.811.811 0 01-.47.044.849.849 0 01-.426-.241 1.595 1.595 0 01-.426-1.115.881.881 0 01.148-.456.797.797 0 01.373-.274.681.681 0 01.912.319l-.295.198a.443.443 0 00-.224-.183.376.376 0 00-.263.008.445.445 0 00-.276.293.844.844 0 00.06.546.939.939 0 00.35.49.415.415 0 00.388.037l.182-.122.137-.195-.096-.25zm-2.702 1.557l-.332-2.095 1.274-.202.057.354-.929.147.073.465.863-.137.057.353-.864.137.09.57.96-.151.056.353zm-1.474.164l-.147-2.1.35-.024.122 1.742.87-.062.027.357zm-1.103-.008l.031-1.761-.517-.01.007-.358 1.38.025-.005.357-.516-.008-.03 1.761zm-1.758-.218l.276-1.74-.51-.08.057-.356 1.363.216-.056.357-.508-.083-.276 1.742zm-1.194-.281l.549-2.05.337.092-.548 2.048zm-1.38-.461l.65-2 .333.107-.54 1.663.832.268-.11.342zM7.495 25.4l1.027-1.856 1.13.627-.175.313-.822-.456-.228.411.763.425-.171.312-.765-.424-.28.505.85.47-.173.313zM6.08 24.327l1.305-1.672.278.216-.515.658.543.424.514-.658.277.216-1.306 1.673-.277-.218.57-.73-.543-.424-.57.731zm-.794-.729l1.202-1.289-.378-.353.245-.262 1.01.943-.245.263-.378-.351-1.2 1.286z"/><path class="cls-5" d="M10.152 13.227a1.807 1.807 0 001.779 1.134 3.353 3.353 0 002.05-1.01 2.26 2.26 0 00.414-1.781c-.02-.425-.585-.683-.585-.683s.464-.074.438-.782a1.502 1.502 0 00-.542-1.261 2.062 2.062 0 00-1.567-.483 3.288 3.288 0 00-1.963.745c-.463.525-.61.965-.452 1.354a1.816 1.816 0 00.696.805 3.397 3.397 0 01.378.243s-.171.098-.39.208c-.22.11-.524.317-.512.658a2.87 2.87 0 00.256.853m-2.805 7.018c.197.039 1.298.197 1.298-.47 0-.67.109-9.093.109-9.606 0-.51-.023-1.215-.583-1.314-.561-.096-.683.197-.367-.34.318-.538.708-.267.878-.244a2.283 2.283 0 00.976.293 3.74 3.74 0 001.073-.293 4.866 4.866 0 012.854-.074 3.475 3.475 0 011.926 2.074c.122.805-.057.967.122 1.073l.282.166c.083.05-.174.15-.33.187a8.833 8.833 0 01-.936 1.729 4.635 4.635 0 01-2.332 1.211 2.3 2.3 0 01-1.733-.27 2.923 2.923 0 01-.535-.486s-.17 3.096-.147 3.852-.122 1.488.463 1.781c.586.291 1.415.098.78.463a1.513 1.513 0 01-1.267.243c-.245-.073-.268-.097-.537.27-.267.365-.829.365-1.194.365-.368 0-.8-.61-.8-.61z"/><path class="cls-5" d="M12.53 10.972c.024.513 0 8.17-.072 8.706a1.397 1.397 0 01-.514 1.05 6.862 6.862 0 01-.926.51 1.25 1.25 0 00.78.464 1.474 1.474 0 00.952-.17.59.59 0 01.78 0 4.84 4.84 0 002.268.096c.61-.096 1.365-.463 1.61-.291l.804.561s-.024-1.17 0-1.636a13.556 13.556 0 01.268-1.535 3.326 3.326 0 00-.83.83c-.316.487-.78 1.317-1.608 1.317-.83 0-2.098.17-2.269-1.293a21.704 21.704 0 01-.146-3.073c0-.903-.035-8.193-.042-8.731a1.169 1.169 0 01.871-1.245 7.244 7.244 0 011.098-.17 1.098 1.098 0 00-.707-.487 5.685 5.685 0 00-1.269.171 2.116 2.116 0 01-.585-.098.645.645 0 01-.366.366 5.684 5.684 0 01-1.024.097 3.74 3.74 0 01.635.39c.45.353.316 1 .292 2.195a39.75 39.75 0 000 1.976"/><path class="cls-5" d="M18.675 9.191a16.337 16.337 0 001.73-.097c.32-.073.709.03.709-.39s.244-.418.244-.418-.024.882 0 1.54c.025.657-.098.999.098 1.34a2.203 2.203 0 01.243.587 1.393 1.393 0 01-.78-.415 4.422 4.422 0 01-.587-1.464 3.888 3.888 0 00-1.194-.145c-.658.023-1.78-.318-1.804 1.414-.025 1.73.025 3.342.025 3.342s.804.073 1.023-.124c.22-.195.804-.365.635-.853s-.537-.976-.05-.683.831.633.708.977a2.246 2.246 0 01-.633.73 1.167 1.167 0 01.487.78.741.741 0 01-.343.781.654.654 0 01-.412.122s.292-.463.219-.731a.754.754 0 00-.563-.635 8.568 8.568 0 00-1.046-.025v2.22a17.016 17.016 0 00-.075 1.83c.075.34.391.657 1.415.634 1.025-.025 1.464.023 1.805-.683.342-.708.463-.976.658-1.072a.67.67 0 01.438-.026 1.218 1.218 0 00-.414.853c0 .513.05 1.49.05 1.756a1.173 1.173 0 01-.17.538.924.924 0 00-.44-.66 2.258 2.258 0 00-1.438-.218c-.611.023-1.709-.171-2.074-.146-.366.023-.634.243-1.074.293a1.087 1.087 0 01-.83-.124c-.144-.121-.4-.403-.4-.403a.767.767 0 01.572 0c.243.135.562-.085.658-.376.099-.293.27-.22.245-2.78-.025-2.562-.025-5.926-.05-6.366-.023-.438-.023-.731-.218-.903a1.132 1.132 0 00-.561-.195s.17-.438.451-.45a1.404 1.404 0 01.914.328 1.418 1.418 0 00.927.317h.902"/><path class="cls-5" d="M15.657 14.759c0-.22 0-.5.013-.683.011-.184-.098-.378.464-.562.56-.183.917-.293 1.202-.121a1.028 1.028 0 01.554.646c.071.305.206.646-.039.951-.243.305-.319.525-.62.598a2.62 2.62 0 01-.805.048c-.305-.011-.658.062-.745-.096-.085-.16-.011-.257-.011-.38 0-.122-.013-.401-.013-.401m-.689 1.578c0-.537-.008-1.25.007-1.69.014-.44.102-.664-.093-.85-.196-.186-.307-.289-.307-.289s.345-.144.516 0c.17.147.363-.073.78-.293.417-.218 1.438-.584 1.976.025a1.84 1.84 0 01.414 1.95c-.293.415-.683.562-.438.929a2.267 2.267 0 01.412.9.846.846 0 00.612.683 1.746 1.746 0 01.535.197 6.216 6.216 0 01-.804.182.714.714 0 01-.727-.336 6.9 6.9 0 01-.273-1.053c-.105-.323-.08-.319-.396-.506a1.586 1.586 0 00-.876-.166c-.362 0-.656-.096-.63.147.023.243-.074 1.098-.026 1.244.049.145.221.291.245.438.025.147 0 .293-.268.268a1.776 1.776 0 00-.805.025c-.267.097-.463.023-.267-.268.194-.293.413-.073.413-.561z"/><path class="cls-5" d="M11.805 14.691c0-.22 0-.5.01-.683.014-.181-.096-.378.465-.561.56-.182.918-.292 1.203-.122a1.021 1.021 0 01.553.646c.073.305.206.647-.037.952-.245.304-.32.524-.621.598a2.511 2.511 0 01-.805.048c-.306-.012-.66.062-.744-.097-.086-.16-.014-.256-.014-.378 0-.123-.01-.403-.01-.403m-.69 1.58c0-.538-.008-1.25.007-1.69.014-.442.1-.665-.094-.85-.196-.188-.307-.288-.307-.288s.346-.147.515 0c.172.145.365-.075.782-.293.416-.22 1.438-.587 1.975.023a1.839 1.839 0 01.414 1.952c-.291.415-.682.56-.439.926a2.264 2.264 0 01.415.903.846.846 0 00.61.683 1.728 1.728 0 01.537.195 6.36 6.36 0 01-.806.183.717.717 0 01-.725-.336 6.546 6.546 0 01-.274-1.055c-.105-.322-.081-.318-.397-.505a1.605 1.605 0 00-.875-.166c-.363 0-.655-.097-.63.146.024.245-.074 1.098-.025 1.245.049.146.22.293.244.44.024.144 0 .29-.268.266a1.8 1.8 0 00-.805.025c-.269.098-.463.025-.268-.268s.414-.074.414-.562z"/></svg>