<svg xmlns="http://www.w3.org/2000/svg" width="200" height="200" viewBox="0 0 200 200">
  <path class="color-black" fill="#000" d="M 85.861336,195.90747 C 73.200831,194.05015 63.011927,190.73436 51.339294,184.6729 L 41.38207,179.50227 29.825537,168.46027 18.269006,157.41828 12.548991,146.93745 C 9.402982,141.17298 5.4695789,131.40555 3.8081054,125.232 l -3.02087,-11.22462 V 102.0991 90.190815 l 3.02087,-11.224596 C 5.4695789,72.792672 9.419253,63.025239 12.585151,57.260778 L 18.341331,46.779959 29.913553,35.724192 41.485773,24.66844 54.454907,18.633407 c 7.133022,-3.319271 17.077706,-7.024193 22.099287,-8.233155 l 9.130157,-2.1981237 13.848059,0.021356 13.84804,0.021356 9.95722,2.2235577 c 34.53133,7.711252 63.35489,34.473807 72.94225,67.726676 l 2.69468,9.346076 -0.03,16.01342 -0.03,16.01343 -4.20104,11.63215 c -5.72028,15.83897 -13.29987,27.31915 -25.57251,38.73269 l -10.3262,9.60335 -11.99516,5.92044 c -19.34234,9.54708 -41.37462,13.32407 -60.960604,10.45084 z m 38.225154,-5.7303 c 6.57915,-1.59903 16.51262,-5.30354 22.07435,-8.23222 l 10.11227,-5.32485 11.65553,-11.16516 11.65549,-11.16517 5.56256,-10.80974 c 3.05938,-5.94541 6.68532,-15.05975 8.05767,-20.25412 l 2.49526,-9.4443 -0.7098,-15.303729 -0.70976,-15.303742 -3.94442,-10.636984 C 185.1371,58.517982 175.58829,44.846242 164.0811,34.946598 l -9.33987,-8.035101 -12.25504,-5.742867 -12.25505,-5.742869 -11.48911,-2.299866 -11.48909,-2.299871 -12.255061,0.777697 -12.255034,0.777695 -12.255051,3.700811 -12.255036,3.700812 -9.411097,5.868354 C 38.006222,32.395443 23.166524,46.894495 17.23499,56.513002 14.996369,60.143136 11.308998,68.282028 9.040846,74.599446 l -4.1239256,11.486221 -0.128357,14.557663 -0.128357,14.5577 2.0605535,8.00672 c 3.0444891,11.82998 11.2651451,27.19524 19.9843341,37.35279 l 7.695815,8.96539 11.450733,7.27819 c 18.307439,11.63638 32.370677,15.84411 53.879788,16.12094 l 12.39299,0.15947 z m -28.214988,-6.06985 -0.107681,-6.79357 -1.914844,-0.73427 c -1.053167,-0.40393 1.014865,-0.78601 4.595633,-0.84919 l 6.5105,-0.11481 v 5.82305 5.82308 l 4.21267,0.10259 4.21266,0.10246 -3.06376,1.25114 c -1.68507,0.68814 -3.92543,1.29715 -4.9786,1.35344 l -1.91486,0.10207 v -5.82322 -5.82307 h -2.29782 -2.2978 l -0.1077,3.27548 c -0.0592,1.80152 -0.70013,4.58565 -1.424217,6.18699 l -1.31653,2.91154 z m -11.771034,-1.23355 1.058292,-6.28936 -1.973897,-1.19012 -1.973897,-1.19011 4.122262,-0.0237 c 2.267242,-0.0144 4.5483,0.63273 5.069014,1.43341 l 0.946757,1.45577 h -2.388227 -2.388234 v 5.00926 c 0,2.7551 -0.794332,5.47584 -1.765182,6.04602 l -1.76518,1.03676 z m 29.479572,2.56802 c -0.50804,-1.80152 -0.93311,-5.07702 -0.94461,-7.27888 l -0.0211,-4.00335 4.21268,0.0922 4.21267,0.0926 -3.54515,1.35122 -3.54515,1.35115 1.01931,1.56731 c 0.56061,0.86203 1.96152,1.22371 3.11313,0.8038 1.15158,-0.42005 2.50124,-0.13716 2.9992,0.62861 l 0.90541,1.39218 h -3.15416 -3.15417 v 2.18363 2.18368 l 4.21265,0.10259 4.21269,0.10246 -3.06376,1.2511 c -4.9551,2.02348 -6.481,1.65127 -7.45982,-1.81973 z m -37.989811,1.08814 c -1.074887,-1.02148 2.036348,-11.65442 3.910814,-13.36556 l 1.30187,-1.18845 -1.143619,5.09518 c -1.617727,7.20751 -3.01652,10.45909 -4.069065,9.45883 z m -7.123688,-2.34018 -3.553133,-1.27658 1.076896,-3.28497 c 2.373406,-7.23985 3.860698,-10.19848 4.717468,-9.38422 0.495108,0.47035 0.109286,3.01154 -0.857397,5.64674 l -1.75759,4.79131 2.61756,1.81892 c 3.43763,2.38878 2.23136,3.29666 -2.243804,1.6888 z m 59.424489,-4.2822 c -0.92509,-1.64267 -1.46636,-4.42682 -1.20282,-6.18704 l 0.47918,-3.20036 4.21268,-0.46086 4.21268,-0.4604 v 1.65056 1.65055 l -2.88235,-0.86935 -2.88237,-0.8694 -0.94185,2.33249 c -1.19636,2.9628 1.54537,7.94467 4.37222,7.94467 3.31682,0 4.22568,-2.57567 1.43293,-4.06093 l -2.49769,-1.32838 2.52347,-0.92023 2.52349,-0.92024 0.87184,2.15911 c 0.47952,1.18754 0.47509,3.14179 -0.01,4.34276 l -0.88175,2.18368 h -3.8241 -3.82389 l -1.68196,-2.98663 z m -74.2512,-2.21562 -3.061038,-2.19815 3.566445,-6.12624 3.566431,-6.12623 -5.426488,5.82308 c -2.984577,3.20269 -5.452376,5.13525 -5.484013,4.2945 -0.03146,-0.84068 0.798406,-2.34192 1.844524,-3.3361 l 1.902058,-1.80753 -2.285027,-1.36797 -2.285011,-1.36801 -1.899022,2.41416 c -1.044465,1.32777 -2.336595,1.99834 -2.871404,1.49009 -0.534813,-0.50823 0.880359,-3.01652 3.144821,-5.57398 l 4.117214,-4.64992 -2.011749,-1.24387 -2.011742,-1.2439 -4.045266,4.49492 c -2.224902,2.47224 -4.444028,3.88181 -4.931398,3.13246 -0.487369,-0.74946 0.836307,-2.90034 2.941508,-4.77978 2.1052,-1.87948 3.484279,-4.26755 3.064627,-5.30681 -1.15,-2.84795 0.959062,-2.278 5.596653,1.51239 l 4.158002,3.39848 -1.783584,1.69493 -1.783597,1.695 1.773338,1.68521 1.773339,1.68522 2.178378,-1.71807 2.17838,-1.71805 4.770316,2.58042 c 5.246702,2.83812 6.730098,5.85342 1.594732,3.24161 -4.417283,-2.24661 -5.545417,-0.56976 -2.07117,3.07848 l 2.885122,3.02964 -4.17108,-0.99492 -4.17108,-0.99484 v 1.6593 c 0,0.91259 1.034026,2.03635 2.297817,2.49723 2.344424,0.85491 3.232172,3.4756 1.148922,3.39169 -0.631902,-0.0238 -2.52638,-1.03548 -4.209958,-2.24444 z m 85.12353,-3.3333 c -3.52754,-6.57098 -3.75451,-7.47787 -1.87139,-7.47787 1.6976,0 7.11109,11.41778 5.94078,12.52989 -0.49433,0.46989 -2.32556,-1.80363 -4.06939,-5.05202 z m 4.86367,-2.78016 c -0.905,-3.75835 -1.31208,-7.34597 -0.90461,-7.9725 0.40745,-0.62653 3.23999,0.81853 6.2945,3.21124 6.86498,5.37753 8.58048,4.47983 2.66055,-1.39222 -4.96351,-4.92341 -4.20291,-7.11533 1.59747,-4.60378 5.69518,2.46596 6.23637,2.10322 2.50042,-1.6759 l -3.3296,-3.36811 4.83076,-4.27465 4.83083,-4.27467 -0.88672,2.38047 -0.88668,2.38041 4.46409,4.06441 c 2.45525,2.23539 4.11942,4.39194 3.69817,4.79225 -0.42126,0.40011 -2.7708,-1.09746 -5.22115,-3.32838 l -4.45517,-4.05628 -1.69589,0.99609 -1.69591,0.99604 3.86923,4.36983 c 2.12808,2.40343 3.86925,4.95851 3.86925,5.67792 v 1.30803 l -3.92943,-1.41972 c -5.3206,-1.92237 -5.96413,-1.79432 -3.74616,0.74539 1.03996,1.19079 1.46321,3.22404 0.9406,4.51834 l -0.95023,2.35323 -2.47908,-0.90406 c -2.7227,-0.99291 -7.11329,1.67933 -5.87859,3.57784 0.42573,0.65463 0.18341,1.53718 -0.53857,1.96117 -0.72194,0.42387 -2.05309,-2.30404 -2.95808,-6.06239 z m 2.96969,-3.55739 -1.81271,-1.72266 v 1.50428 c 0,1.94312 1.81161,3.66475 2.83399,2.69321 0.4353,-0.41388 -0.0239,-1.52736 -1.02128,-2.47483 z m -59.838154,3.04183 c -4.531628,-0.71534 -12.628845,-3.29139 -17.993819,-5.72463 l -9.754505,-4.42408 -8.94934,-7.87386 -8.949322,-7.87382 -5.029861,-8.96809 C 29.632333,124.69941 26.870171,114.69994 26.847386,102.7689 26.810931,83.637888 34.062566,66.900477 48.351368,53.136323 62.412074,39.591909 79.447646,32.998769 100.4644,32.967447 l 11.59403,-0.01709 8.32041,2.319699 c 25.57506,7.130242 45.05908,27.02593 51.3369,52.421538 l 2.48199,10.040392 -0.92705,9.789924 c -1.67423,17.67988 -11.33674,36.3372 -24.43547,47.18231 -3.49197,2.89113 -11.17445,7.44432 -17.0722,10.11812 l -10.72316,4.8615 -9.95722,1.49906 c -11.26676,1.69626 -12.86874,1.68835 -24.324064,-0.11964 z m 33.324004,-5.46909 c 12.77291,-3.77781 21.07589,-8.70207 30.29828,-17.96887 8.73117,-8.77321 12.77986,-15.47626 16.44643,-27.22903 l 2.46681,-7.90699 V 101.96459 91.440254 l -2.90224,-8.861595 C 158.58882,58.753146 137.11741,41.253858 110.3382,36.894697 l -9.98263,-1.625002 -11.104182,1.768657 -11.10419,1.768656 -9.648046,4.603808 -9.648045,4.603821 -8.94607,9.088206 C 39.194269,67.983785 33.682243,78.438398 31.236708,92.510916 l -1.812754,10.431224 1.914894,10.18271 c 4.822555,25.64456 24.390673,46.17395 50.638058,53.12559 3.791404,1.00414 11.829797,1.88432 17.863104,1.95591 l 10.96965,0.13003 z m 2.97305,-15.60433 -2.57987,-2.46581 -6.61141,1.67558 -6.6114,1.67553 -14.552875,-0.55386 c -8.004083,-0.30472 -15.216177,-0.63389 -16.026889,-0.73166 -0.810697,-0.0977 0.786591,-1.97927 3.549542,-4.18112 l 5.023537,-4.00335 0.280206,-14.55766 0.280139,-14.55766 h -2.297816 -2.297818 l 0.248023,6.9149 0.248037,6.9149 h -4.767063 -4.767075 l 1.838267,-1.74692 1.838253,-1.74696 v -9.73175 -9.73179 l -3.666931,-2.2833 -3.666945,-2.283302 -1.083779,15.765982 -1.083792,15.76599 1.731177,3.07402 c 0.952154,1.69072 3.500151,3.49592 5.662229,4.01161 l 3.93104,0.9376 -2.060415,1.24096 c -1.133226,0.68248 -3.783771,1.2718 -5.89011,1.30954 -2.106338,0.0379 -5.167804,1.03039 -6.803276,2.20593 -3.260846,2.34382 -9.39788,2.85804 -10.674904,0.89446 -0.444563,-0.68362 0.905292,-1.98489 2.999697,-2.89174 l 3.808012,-1.64886 -0.4093,-36.73572 -0.409299,-36.735747 -3.487494,-1.6515 -3.487479,-1.651487 2.167116,-1.709194 2.167129,-1.709181 3.999382,1.731708 3.999396,1.731708 8.04414,-1.67129 c 4.424272,-0.919215 9.414901,-1.850417 11.090297,-2.069342 4.220553,-0.551504 4.658982,-4.688432 0.877715,-8.281821 l -3.157986,-3.001042 h 2.97334 c 1.635351,0 3.399395,-0.655094 3.920123,-1.455764 1.061934,-1.632892 16.517499,-2.015021 18.165269,-0.449163 0.58258,0.553656 -1.19014,1.700066 -3.93939,2.547599 l -4.998662,1.54095 -2.107733,4.184438 -2.107743,4.184451 6.381898,5.278045 6.3819,5.278044 1.95476,6.390981 1.95477,6.390972 -4.66547,8.166688 c -2.56601,4.491696 -4.47169,9.60025 -4.2348,11.352357 0.23688,1.75213 -0.6565,4.76244 -1.98528,6.68961 l -2.415921,3.50399 2.295471,5.22091 c 1.26252,2.87148 3.02191,5.64752 3.90975,6.169 l 1.61425,0.9481 -0.44212,-13.58655 -0.44211,-13.586491 4.59563,-1.455765 4.59565,-1.455765 0.44801,-12.191106 0.448,-12.191108 -2.57136,-2.70015 -2.57136,-2.700152 2.51816,-0.918298 2.51815,-0.918311 3.76399,2.343721 3.76398,2.34372 h 11.543 11.54301 l 3.06374,-2.911542 3.06378,-2.91153 v 9.343417 c 0,5.138884 0.44921,10.45586 0.99823,11.815496 l 0.9982,2.472076 -3.17334,-1.613955 c -1.74534,-0.887675 -3.94739,-3.842733 -4.8934,-6.566787 l -1.72007,-4.952858 -3.38125,-0.86152 c -1.85974,-0.473779 -5.27699,-0.870429 -7.59397,-0.881363 l -4.21269,-0.01999 -3.06375,2.911541 -3.06375,2.91153 v 8.7346 8.734601 h 1.49255 c 0.82088,0 2.58717,2.011648 3.92508,4.470325 l 2.43255,4.470304 2.30092,-1.814699 2.30089,-1.81469 -0.88334,-3.344729 -0.88338,-3.344716 2.19832,0.801664 c 1.20907,0.440886 2.62163,1.849961 3.13899,3.131219 l 0.94069,2.329541 -2.22881,2.118059 -2.2288,2.118051 1.60795,3.35374 c 1.71976,3.58687 0.75686,7.90668 -1.76241,7.90668 -0.84252,0 -1.19364,-0.83765 -0.78021,-1.86149 0.41339,-1.02381 -0.16992,-3.05921 -1.29635,-4.52309 l -2.04801,-2.66169 -2.73363,3.96481 -2.73365,3.96476 2.60911,5.49853 c 1.43504,3.02422 4.08858,6.20817 5.89678,7.07543 l 3.28762,1.57685 -5.27334,-0.32988 -5.27332,-0.32987 -1.60545,-5.09519 -1.60546,-5.09516 -0.48079,8.58283 -0.48072,8.58284 1.55006,1.47304 1.55007,1.47306 2.36274,-1.86349 2.36275,-1.86349 v 2.36191 2.3619 h 5.30191 5.3019 l 3.10592,-3.16818 c 1.70826,-1.74247 3.50493,-4.36284 3.99261,-5.82303 1.85966,-5.56814 2.95864,-2.27344 2.47413,7.41722 l -0.50395,10.0787 -2.9428,-2.79659 -2.94281,-2.79658 h -7.57546 -7.57547 l -0.46689,6.61712 -0.46689,6.61706 z m -5.58312,-7.35452 c 4.27121,-3.67333 3.36861,-4.78371 -2.61279,-3.21422 -5.78483,1.51791 -11.43649,0.57442 -11.43649,-1.90918 0,-0.83239 1.01408,-1.14365 2.25349,-0.69167 1.23943,0.45185 3.30747,-0.17987 4.59564,-1.40398 l 2.34215,-2.22578 v -10.0864 -10.08639 h -2.49703 -2.49705 l 0.76078,6.41425 0.76077,6.41424 -4.39361,0.61281 -4.39362,0.61281 -2.09557,-2.29584 c -1.152552,-1.26268 -2.519872,-3.27843 -3.038477,-4.47942 -0.518614,-1.20103 -0.764078,2.95782 -0.545473,9.24186 l 0.39742,11.42551 2.93618,2.04034 2.93619,2.04034 h 6.86303 6.86302 z M 75.473134,98.11491 74.841567,96.314363 80.707059,93.818789 86.572538,91.323201 V 75.966475 60.609749 h -3.112961 c -7.705153,0 -18.333369,7.246164 -18.333369,12.499415 0,0.913678 1.691482,3.268648 3.758833,5.233294 l 3.758833,3.572071 -3.077805,2.504353 -3.077791,2.504353 1.071644,3.22064 c 1.504531,4.521606 5.298425,9.771582 7.061411,9.771582 0.815855,0 1.199158,-0.810244 0.851801,-1.800547 z M 98.8276,86.085667 c 0,-3.508522 -0.67524,-6.775707 -1.500524,-7.260406 l -1.50051,-0.881285 1.798114,-2.736184 1.79811,-2.736183 -1.796641,-3.747289 c -0.988144,-2.060993 -2.328428,-3.748804 -2.978399,-3.750675 -1.209361,-0.0039 -0.8621,23.936968 0.397332,27.391295 1.407386,3.860156 3.782498,-0.08269 3.782498,-6.279273 z M 12.579293,128.10554 c -0.587891,-0.55868 -1.068894,-2.47423 -1.068894,-4.25679 v -3.24104 l 2.667374,-0.97273 2.66738,-0.97268 2.559662,3.00395 2.559657,3.004 2.432368,-0.88701 c 1.337801,-0.48784 2.432367,-0.24349 2.432367,0.54252 0,0.7863 -1.895703,1.79314 -4.212675,2.23746 -2.31697,0.44426 -5.282695,1.20169 -6.590508,1.68301 -1.307808,0.4813 -2.858841,0.41817 -3.446731,-0.14049 z m 5.05863,-4.16993 c 0,-1.20099 -0.648661,-2.18365 -1.441474,-2.18365 -1.931669,0 -3.315135,2.2733 -2.09127,3.43637 1.725183,1.63946 3.532744,0.99849 3.532744,-1.25272 z m 160.464487,-2.30026 -2.68081,-1.48383 v -3.469 -3.46896 l 3.17431,-0.95743 c 1.74591,-0.52657 4.80197,-0.56921 6.79137,-0.0949 l 3.61707,0.8627 1.05575,3.16121 1.05579,3.16115 -2.77838,1.93066 c -3.28642,2.28368 -6.55006,2.39794 -10.2351,0.35835 z m 9.286,-3.87003 c -0.5584,-2.75552 -4.62228,-4.0475 -8.39912,-2.67019 l -2.38088,0.86822 1.892,2.1664 c 1.04057,1.19154 3.5815,2.16645 5.64646,2.16645 h 3.75443 z M 9.978521,116.07446 c 0,-1.24308 7.416979,-3.09547 12.063557,-3.01283 l 2.489306,0.0428 -2.29782,1.21128 c -3.586355,1.89068 -12.255043,3.13366 -12.255043,1.7574 z m -1.410946,-9.24411 c 0.06653,-2.60217 0.46864,-3.91237 0.893599,-2.91154 l 0.772659,1.81973 7.148777,0.16755 7.148774,0.16755 -6.064475,1.10857 c -3.335457,0.60977 -6.322625,1.84465 -6.638145,2.74413 -1.215014,3.46397 -3.376419,1.4122 -3.261189,-3.09569 z m 170.105705,0.47418 c -2.55408,-1.50006 -1.71624,-5.89307 1.48982,-7.811471 3.24258,-1.940248 9.9871,-0.22759 11.23059,2.851811 l 0.99119,2.4547 -2.40285,2.28343 -2.40283,2.28345 0.43152,-3.57404 0.43153,-3.57409 -2.77028,-0.54673 c -1.52364,-0.30069 -3.84167,-0.15601 -5.15115,0.32152 l -2.38086,0.8682 1.9227,2.20163 c 2.28038,2.61113 1.46861,3.92039 -1.38972,2.24159 z M 8.446642,95.548151 c 0,-2.402016 0.689343,-4.367295 1.531879,-4.367295 0.842534,0 1.531878,0.655094 1.531878,1.455765 0,0.800675 1.895704,1.465793 4.212674,1.47806 2.316967,0.01271 5.246691,0.657328 6.510491,1.43347 l 2.29782,1.411186 -6.510494,0.02228 -6.510491,0.02228 v 1.455765 c 0,0.800665 -0.689344,1.455765 -1.531878,1.455765 -0.842536,0 -1.531879,-1.96528 -1.531879,-4.367305 z M 177.48202,88.518633 c 3.39859,-3.568814 3.19533,-4.608136 -0.91149,-4.660878 l -3.44674,-0.04416 2.29781,-1.224826 c 1.26379,-0.673663 4.92955,-1.674385 8.14606,-2.223841 l 5.84824,-0.999001 -0.48647,4.815694 -0.48648,4.815707 h -4.07652 c -2.24212,0 -4.59739,0.491317 -5.23396,1.091823 -2.5112,2.368984 -4.02742,0.926011 -1.65011,-1.5704 z m 10.1946,-3.888729 c 0,-1.201013 -1.03396,-2.183648 -2.29778,-2.183648 -1.26384,0 -2.29781,0.982635 -2.29781,2.183648 0,1.200998 1.03397,2.183646 2.29781,2.183646 1.26382,0 2.29778,-0.982648 2.29778,-2.183646 z M 21.087994,87.228555 c 3.847243,-4.063376 1.301989,-5.429476 -2.985028,-1.602132 l -3.59195,3.206794 -2.322533,-2.207142 -2.32254,-2.207141 0.986123,-2.442104 c 0.54237,-1.343164 2.030795,-2.442116 3.307624,-2.442116 h 2.321494 l -1.937747,2.218827 c -1.065761,1.220357 -1.443135,2.688862 -0.838613,3.263353 0.604518,0.57449 1.771023,-0.09647 2.59223,-1.490944 l 1.493107,-2.53547 h 3.855333 3.855332 l -0.484724,3.990916 -0.484721,3.990919 -3.063759,0.545574 -3.063763,0.545588 z m -1.531683,-10.64709 -6.506959,-2.747573 1.774235,-3.700543 c 1.797686,-3.749441 4.948979,-4.851166 6.602689,-2.308351 0.497959,0.765709 1.806906,1.063441 2.908738,0.661637 1.101836,-0.401832 2.817941,0.2022 3.813572,1.342273 l 1.810237,2.072829 -1.526894,3.816489 c -0.839792,2.099073 -1.716293,3.770211 -1.947778,3.713652 -0.231497,-0.05651 -3.349017,-1.339233 -6.92784,-2.850413 z m 7.272895,-3.683613 c 0,-2.402128 -2.421053,-2.807967 -3.829701,-0.641973 -1.249255,1.920914 0.582432,4.646914 2.403666,3.577251 0.784318,-0.460644 1.426035,-1.781524 1.426035,-2.935278 z m -6.127521,-1.49116 c 0,-2.570791 -3.297768,-2.123077 -4.244583,0.576235 -0.33349,0.950802 0.485071,1.728716 1.819105,1.728716 1.33401,0 2.425478,-1.037235 2.425478,-2.304951 z m 153.716565,5.465811 c 3.39402,-3.564026 3.19788,-5.120873 -0.52852,-4.194812 -1.68506,0.418771 -3.06376,0.238741 -3.06376,-0.400036 0,-1.326937 12.30091,-6.286528 13.28124,-5.354866 0.35413,0.336526 0.78511,2.492312 0.95772,4.790684 l 0.31415,4.178864 -3.82967,0.488697 c -2.10637,0.26879 -4.4846,1.08831 -5.28501,1.821181 -2.74502,2.513441 -4.38246,1.333898 -1.8459,-1.329712 z m 8.66278,-5.344507 c 0,-1.201012 -0.64868,-2.183646 -1.44148,-2.183646 -1.93169,0 -3.31516,2.273298 -2.09127,3.43637 1.72517,1.63946 3.53275,0.998493 3.53275,-1.252724 z M 24.914355,64.144387 c -2.316972,-1.194533 -4.21267,-2.859472 -4.21267,-3.699866 v -1.528005 l 5.240286,3.07775 5.240287,3.077761 1.019117,-1.567027 c 1.26873,-1.950849 -1.625164,-5.404517 -5.510509,-6.576396 -1.60898,-0.485296 -2.925422,-1.49331 -2.925422,-2.240029 0,-2.307103 2.206219,-1.52275 7.441657,2.645691 l 5.028106,4.003366 -1.037192,2.547586 c -1.25487,3.082243 -4.642247,3.167619 -10.28366,0.259159 z m 138.594605,-2.673996 -1.68129,-3.506652 5.96129,-3.748968 5.96127,-3.748969 2.33232,3.164435 c 2.82029,3.826415 1.47199,5.897998 -1.40508,2.158868 l -2.0255,-2.63243 -0.91795,1.411512 c -0.5049,0.776334 -0.47115,2.518135 0.075,3.870681 l 0.993,2.459171 -3.2162,-1.908747 c -3.6423,-2.161629 -6.4021,-0.692425 -3.63638,1.935868 2.10967,2.004852 2.37577,4.051884 0.52674,4.051884 -0.70732,0 -2.04258,-1.577987 -2.96727,-3.506653 z m -130.911033,-8.057462 -5.002784,-4.285278 3.540051,-3.357499 3.54005,-3.357498 2.606426,3.009556 c 1.433536,1.655242 3.976591,3.764382 5.651234,4.686969 l 3.044807,1.677424 -5.216037,0.04416 -5.216031,0.04416 2.772663,2.911529 2.772667,2.911529 H 39.34584 c -0.959827,0 -3.996384,-1.928372 -6.747913,-4.285277 z m 3.135332,-5.814098 0.670201,-1.910694 -2.010594,0.636894 c -1.105826,0.350284 -2.31218,1.496708 -2.68079,2.547587 l -0.670201,1.910708 2.010593,-0.636907 c 1.105829,-0.350286 2.312185,-1.496708 2.680791,-2.547588 z m 122.837681,7.459757 c 0,-1.43847 9.72582,-9.00651 11.57444,-9.00651 1.64842,0 -2.42445,4.196975 -7.22573,7.445921 -2.39179,1.618485 -4.34871,2.320748 -4.34871,1.560589 z m -2.30901,-5.73104 c 0.73129,-4.93901 -0.41468,-5.927869 -3.48661,-3.008588 -0.99701,0.947468 -2.29411,1.265196 -2.88246,0.706079 -0.58836,-0.559116 1.25072,-3.291735 4.08683,-6.072477 l 5.15659,-5.055886 2.78109,2.391791 c 3.57008,3.070342 3.55814,6.387315 -0.026,7.27806 -1.54401,0.383706 -3.59984,2.451444 -4.56851,4.594962 l -1.76122,3.897307 0.70052,-4.731248 z m 6.07329,-6.086414 c 1.13289,-1.74198 -1.74885,-3.467974 -3.78928,-2.26957 -1.71318,1.006206 -0.58851,3.624737 1.55688,3.624737 0.74307,0 1.74765,-0.609823 2.2324,-1.355167 z M 42.207683,44.321808 c -3.392985,-3.460985 -3.591724,-4.150736 -2.1936,-7.613161 l 0.929835,-2.302711 4.048776,0.09227 4.048784,0.09227 -3.446739,1.316577 c -3.965747,1.514846 -4.467731,4.61595 -1.168419,7.218088 2.536237,2.000295 6.912974,1.018679 6.912974,-1.550444 v -1.657214 l -2.297816,0.837949 c -2.591199,0.944935 -3.162443,-1.302564 -0.698841,-2.749509 1.675516,-0.984074 6.060412,1.731414 6.060412,3.753105 0,1.907271 -4.639669,5.748795 -6.943205,5.748795 -1.170794,0 -3.534269,-1.433722 -5.252161,-3.186035 z m 101.329607,-2.028767 -3.35971,-2.236301 1.49369,-2.46146 c 0.82152,-1.353806 2.75789,-3.979859 4.30301,-5.83567 l 2.80934,-3.374206 3.74474,2.961834 c 2.05962,1.629009 2.92375,2.983632 1.92031,3.010269 -1.00344,0.0266 -2.2876,-0.663748 -2.85369,-1.534179 l -1.02927,-1.582613 -1.65959,1.577155 -1.65962,1.577158 2.98142,2.142805 c 3.25343,2.338323 1.3138,3.029869 -2.33972,0.834194 l -2.25737,-1.356631 -1.079,1.659073 -1.07896,1.659072 2.56801,1.784464 c 3.81707,2.652437 1.41187,3.781273 -2.50359,1.175036 z M 53.927937,35.49776 c -3.740096,-6.010416 -4.148043,-9.97351 -0.548545,-5.32906 0.984284,1.270025 2.650102,2.033646 3.701819,1.696941 l 1.912224,-0.612196 -0.861177,-3.882881 -0.861162,-3.882878 3.919708,5.823068 c 4.109861,6.10555 5.390836,10.682477 1.690797,6.041238 -1.180944,-1.481359 -2.88492,-2.26008 -3.78661,-1.730498 l -1.639422,0.96288 0.937636,3.550192 c 1.381248,5.229935 -0.12268,4.34184 -4.465268,-2.636806 z m 73.747933,-1.141665 -2.55524,-1.417072 2.40465,-5.817497 c 2.37639,-5.749076 3.98043,-6.6579 8.70808,-4.933858 3.84397,1.401776 2.81222,3.150604 -1.40658,2.384201 -4.46619,-0.811346 -4.96008,0.679359 -1.14892,3.467708 l 2.68081,1.961328 -3.66085,-0.345064 -3.66084,-0.345064 -0.6795,1.819706 -0.67948,1.81971 h 2.33508 c 1.28428,0 2.76111,0.655098 3.28181,1.455769 1.19941,1.844231 -2.25894,1.813558 -5.61902,-0.0499 z m -55.380975,-2.49775 c -0.369348,-0.600506 -0.582362,-3.712207 -0.473384,-6.914893 l 0.198187,-5.823069 h 2.297817 2.297817 l 0.04339,3.263629 c 0.02398,1.794999 0.589407,3.105191 1.256655,2.911539 0.66726,-0.193656 1.934254,0.872326 2.815532,2.368854 l 1.602338,2.720949 -2.093053,1.260114 c -2.589421,1.55895 -7.044055,1.678297 -7.945369,0.212877 z m 5.086363,-1.733795 c 0,-0.753418 -0.689345,-1.774721 -1.531877,-2.269566 l -1.531879,-0.899711 v 2.269565 c 0,1.248259 0.689347,2.269567 1.531879,2.269567 0.842532,0 1.531877,-0.616436 1.531877,-1.369855 z m 42.740312,-1.177742 -1.60842,-4.003356 -1.96928,2.547591 c -3.12761,4.046066 -3.61922,3.024711 -1.92688,-4.003357 0.86761,-3.603026 2.19712,-6.550953 2.95447,-6.550953 h 1.37704 l -1.07276,3.275476 -1.07275,3.275477 3.00499,-2.547596 c 1.65275,-1.401173 3.98473,-2.526755 5.18219,-2.50129 l 2.1772,0.04604 -2.86602,2.062612 -2.86603,2.062617 1.0206,5.16992 c 1.21362,6.147869 -0.0744,6.791574 -2.33435,1.166568 z m -30.267887,-6.550947 0.217373,-7.642778 0.93151,5.823067 0.931528,5.823067 3.469455,0.468043 c 4.492991,0.606098 2.852591,3.171399 -2.027975,3.171399 H 89.63631 Z m 17.767917,5.185577 -2.51271,-2.387879 -2.37472,1.872904 -2.3747,1.872909 v -1.584626 c 0,-2.352951 4.99496,-11.87378 6.22939,-11.87378 1.14999,0 4.98838,13.117129 4.08859,13.972203 -0.29872,0.283884 -1.67385,-0.558399 -3.05585,-1.871731 z m -0.58066,-5.549523 c -0.48496,-1.201007 -1.15267,-2.183645 -1.48379,-2.183645 -0.33114,0 -0.60203,0.982638 -0.60203,2.183645 0,1.201013 0.66769,2.183653 1.48379,2.183653 0.8161,0 1.08701,-0.98264 0.60203,-2.183653 z"/>
</svg>