<svg id="Layer_1" data-name="Layer 1" xmlns="http://www.w3.org/2000/svg" viewBox="0 0 29 29"><defs><style>.cls-1,.cls-3{fill:#fff;}.cls-2{fill:none;}.cls-2,.cls-3,.cls-5{fill-rule:evenodd;}.cls-4,.cls-5{fill:#231f20;}</style></defs><circle class="cls-1" cx="14.5" cy="14.5" r="13.97645"/><path class="cls-2" d="M14.49857,24.5703A10.0703,10.0703,0,1,0,4.42832,14.50005,10.07092,10.07092,0,0,0,14.49857,24.5703"/><path class="cls-3" d="M14.49857,24.5703A10.0703,10.0703,0,1,0,4.42832,14.50005,10.07092,10.07092,0,0,0,14.49857,24.5703m0,3.65A13.72028,13.72028,0,1,0,.78022,14.50005,13.72191,13.72191,0,0,0,14.49857,28.22028Z"/><path class="cls-4" d="M14.49857,24.5703v-.27972a9.79261,9.79261,0,1,0-6.92185-2.86869,9.75638,9.75638,0,0,0,6.92185,2.86869V24.85a10.351,10.351,0,1,1,10.351-10.35,10.35,10.35,0,0,1-10.351,10.35Zm0,3.65v-.27973a13.4401,13.4401,0,1,0-9.5031-3.9375,13.40473,13.40473,0,0,0,9.5031,3.9375V28.5A14,14,0,1,1,28.49951,14.50005a13.99882,13.99882,0,0,1-14.00094,14Z"/><path class="cls-4" d="M24.81388,17.56736l.38383.13315-.108.31637-.38393-.13315.10806-.31637m1.40051-1.33877a.90451.90451,0,0,0-.56519.03082.4138.4138,0,0,0-.13314.67323.92534.92534,0,0,0,.5228.24121.8998.8998,0,0,0,.55946-.02706.42775.42775,0,0,0,.13117-.68095A.90134.90134,0,0,0,26.21439,16.22859Zm.055-.35885a1.51416,1.51416,0,0,1,.59126.22955.86016.86016,0,0,1,.30294.35687.7795.7795,0,0,1,.03467.45337.75761.75761,0,0,1-.39638.544,1.51595,1.51595,0,0,1-1.60991-.32793.72731.72731,0,0,1-.14757-.63284.73845.73845,0,0,1,.37139-.53624A1.25754,1.25754,0,0,1,26.2694,15.86974Zm-.24881-.76589-.14381.33564a.95786.95786,0,0,1-.51116-.28358.66174.66174,0,0,1-.14756-.46108.67614.67614,0,0,1,.28061-.54207,1.2688,1.2688,0,0,1,.82377-.21414,1.32213,1.32213,0,0,1,.84017.27588.69018.69018,0,0,1,.24693.57871.66743.66743,0,0,1-.217.48231.88405.88405,0,0,1-.42828.191l-.08969-.35114a.46455.46455,0,0,0,.26906-.12347.33471.33471,0,0,0,.10035-.22955.37325.37325,0,0,0-.15724-.32022.96643.96643,0,0,0-.54889-.14086,1.02261,1.02261,0,0,0-.57387.09839.3623.3623,0,0,0-.18036.30284.314.314,0,0,0,.09936.24308A.681.681,0,0,0,26.02059,15.10385Zm.10312-3.47831.05788.25464a1.3496,1.3496,0,0,0,.08979.29129l.10509.083.17552.002.14856-.07526.05788-.12732a1.384,1.384,0,0,0-.0482-.2817l-.06174-.2662ZM24.8524,11.56l2.06713-.47648.16594.71956a1.01773,1.01773,0,0,1,.03467.407l-.14757.2411a.69139.69139,0,0,1-.31252.15054.62579.62579,0,0,1-.41672-.02509.533.533,0,0,1-.26235-.28743l-.13018.21987a2.5726,2.5726,0,0,1-.29227.27587l-.355.29711L25.11,12.675l.39252-.35114a2.9634,2.9634,0,0,0,.26245-.25266l.06173-.12159-.0164-.17749-.01639-.06944-.86239.19873Zm.6926-1.7478.09452.24309a1.42746,1.42746,0,0,0,.12831.27587l.11675.06944.17266-.02509.13788-.09453.03862-.13314a1.40616,1.40616,0,0,0-.08682-.272l-.09838-.25661Zm-1.26746.10994,1.98031-.75819.2652.68875a1.06065,1.06065,0,0,1,.09265.39934.463.463,0,0,1-.11379.25849.70045.70045,0,0,1-.28752.19291.63883.63883,0,0,1-.41762.03279.53817.53817,0,0,1-.3-.24881.8552.8552,0,0,1-.09838.23725,2.432,2.432,0,0,1-.25079.31252l-.31064.34532-.14954-.38967.33958-.40516a2.92233,2.92233,0,0,0,.22668-.28546l.04435-.12929-.04148-.17167-.026-.06756L24.403,10.25Zm-1.198-1.96974,1.799-1.12464.68292,1.09579-.30382.18906-.49871-.79681-.39934.24891.46394.7408-.30284.18906-.46394-.7408-.489.30669.515.82377-.30284.189Zm-.45426-.4996,1.60211-1.39092.22866.26431L22.85579,7.71707ZM22.49695,5.568l.18806.18135a1.16029,1.16029,0,0,0,.23251.19675l.135.01353.14658-.09453.084-.14469-.02024-.137a1.44719,1.44719,0,0,0-.19488-.21029l-.19676-.19093Zm-1.1035.63857,1.47577-1.52605.53052.51323a1.07585,1.07585,0,0,1,.25276.32407.4585.4585,0,0,1,.00583.27973.70016.70016,0,0,1-.17948.299.63536.63536,0,0,1-.36269.20456.53453.53453,0,0,1-.37811-.09837.83016.83016,0,0,1,.01156.25651,2.43939,2.43939,0,0,1-.09542.38779l-.13512.44566-.301-.29128.138-.50938a2.97637,2.97637,0,0,0,.082-.353l-.01353-.137-.10994-.13888-.053-.05017-.61546.63669ZM20.08638,5.269l1.24721-1.717,1.04473.76006-.21128.28941L21.406,4.04972l-.27686.38.707.51323-.21118.28931-.70613-.51313-.33948.4669.788.571-.21029.28941Zm-2.096-.95692.79384-1.96579,1.197.48222-.135.33375-.872-.353-.17562.436.81024.328-.134.33178-.81122-.32793-.216.53436.9019.36458-.13315.33188Zm-1.68419-.43984.47648-2.06614.34245.07714-.21216.9183.90377-.75818.46108.10608-.82377.6598.38008,1.416-.4428-.10223-.2421-1.07841-.35785.2817-.14372.62307Zm-.762-.92985-.16979-.80451-.30284.764Zm.57012.89321-.38106-.03279-.10806-.49387-.6925-.06173-.18333.46878-.37326-.0328.85943-2.05458.3704.03279Zm-3.0356-.02124-.18421-2.09508.34916-.03082.15142,1.74009.87108-.07724.03082.357ZM10.9045,3.334l-.11567.20831.00089.21612.1293.18707.20258.02509a.4388.4388,0,0,0,.2498-.23923Zm.00583-.46108.0637-.10618.04435-.20446-.08682-.11764-.137-.01541-.1042.07715-.01442.12149.12346.15626Zm1.19031.85844-.10805.35687a1.18514,1.18514,0,0,1-.34245-.15428.6145.6145,0,0,1-.42147.35687.55549.55549,0,0,1-.49969-.05591.672.672,0,0,1-.26432-.3704.7293.7293,0,0,1,.20258-.7331.84877.84877,0,0,1-.301-.39934.44128.44128,0,0,1,.03763-.355.47229.47229,0,0,1,.30383-.21987.45856.45856,0,0,1,.59422.3298l.00385.26047a.953.953,0,0,1-.16781.3145l.33948.30669a1.21028,1.21028,0,0,0,.00385-.25079l.31252-.00385a1.49946,1.49946,0,0,1-.0241.46305l.17651.09255ZM8.54322,5.51977l-1.061-1.8366L7.786,3.50755l.41673.72352.59609-.34531-.41573-.72154.30382-.17552L9.74707,4.82331l-.30383.17749-.464-.8045-.5961.34531.463.80451Zm-1.38895.06558L6.915,5.31906l.56231-.5073.5643.62889a.91.91,0,0,1-.08485.38778.97745.97745,0,0,1-.24792.3549.82869.82869,0,0,1-.42157.21029.86345.86345,0,0,1-.48616-.07329,1.448,1.448,0,0,1-.48221-.36458,1.40239,1.40239,0,0,1-.31548-.52281.88369.88369,0,0,1-.0241-.47845.79726.79726,0,0,1,.24891-.38967.68371.68371,0,0,1,.96748-.03091l-.20545.2894a.45577.45577,0,0,0-.274-.08879.37373.37373,0,0,0-.24309.10232.44668.44668,0,0,0-.15428.37228.85369.85369,0,0,0,.25365.488.95616.95616,0,0,0,.50157.33188.41061.41061,0,0,0,.37524-.1042l.12544-.17938.05877-.22955-.18036-.2007ZM5.18364,6.9666,5.35047,6.766a1.45661,1.45661,0,0,0,.18036-.24506l.00286-.135-.10411-.14085-.15053-.07329-.136.02894a1.53983,1.53983,0,0,0-.19577.20831l-.17552.21227Zm.71275,1.05332-1.62532-1.362.47461-.56715a1.0422,1.0422,0,0,1,.3058-.274.45934.45934,0,0,1,.27775-.02509.683.683,0,0,1,.31064.15823.63243.63243,0,0,1,.23054.34917.52769.52769,0,0,1-.0724.382.862.862,0,0,1,.25464-.02894,2.42055,2.42055,0,0,1,.39549.06756l.45149.1042-.26817.32023-.51708-.10036A2.87672,2.87672,0,0,0,5.75465,6.984l-.13315.02509-.13216.11962-.04632.0559.67719.56914Zm-2.74521.34729.1852-.29711.9743.60963a2.964,2.964,0,0,0,.30284.17364l.24308.02114.18717-.15429.05877-.19873-.0723-.16781a1.84624,1.84624,0,0,0-.33474-.24309l-.99643-.62118.18718-.299.94427.59027a2.91047,2.91047,0,0,1,.49871.36655.52344.52344,0,0,1,.15339.33761.68056.68056,0,0,1-.12445.4186.78511.78511,0,0,1-.30669.30867.54558.54558,0,0,1-.35114.04247A2.07173,2.07173,0,0,1,4.111,8.96716Zm.37425,2.0777.52962.20446.11665-.30482a1.04312,1.04312,0,0,0,.07813-.26431L4.2045,9.95292l-.14273-.09839-.17552-.01925-.12831.07526a1.15056,1.15056,0,0,0-.13018.27005Zm-.787-.301.45722.17553.08386-.216a2.36426,2.36426,0,0,0,.085-.24307l-.01936-.15824-.13987-.108-.15527-.01551-.10509.06559a2.30193,2.30193,0,0,0-.13315.31064Zm-.45534.20061L2.533,9.69443a1.02858,1.02858,0,0,1,.19291-.35687A.46312.46312,0,0,1,2.968,9.2218a.5804.5804,0,0,1,.3058.03279.56953.56953,0,0,1,.23439.16209l.10609.23142A.471.471,0,0,1,3.87657,9.49a.55625.55625,0,0,1,.33573.03279.67645.67645,0,0,1,.32407.245.45965.45965,0,0,1,.09068.31647,2.73925,2.73925,0,0,1-.15142.4668l-.21227.55372Zm.91444,2.26488.03181-.34344c.27113.01738.43213-.07714.47747-.28743A.35767.35767,0,0,0,3.677,11.7181L3.49362,11.585l-.12732.00574-.10223.07723a3.15481,3.15481,0,0,0-.17166.28546,1.08012,1.08012,0,0,1-.21227.29138.56541.56541,0,0,1-.23824.11765.62091.62091,0,0,1-.28555.00187.63032.63032,0,0,1-.2903-.14075.53744.53744,0,0,1-.15912-.25661.743.743,0,0,1,.00187-.35114.65613.65613,0,0,1,.26235-.43214.65525.65525,0,0,1,.50354-.081l-.054.34729a.392.392,0,0,0-.25651.0482.32725.32725,0,0,0-.11.20061.34086.34086,0,0,0,.01255.22569l.12831.10619.15626-.03862a1.0089,1.0089,0,0,0,.19488-.28557,1.28209,1.28209,0,0,1,.23725-.33947.53415.53415,0,0,1,.25079-.13117.74519.74519,0,0,1,.33187.00572.6722.6722,0,0,1,.41861.26432.68537.68537,0,0,1,.0723.55946C3.96922,12.48211,3.68169,12.66346,3.1975,12.60943Zm.57585,1.144L2.01489,13.63l-.03665.517-.35687-.02509.09552-1.37927.35785.025L2.04,13.28079l1.75748.12347ZM3.7695,15.2369l-1.7555.15241.04533.5151-.35785.03092-.12061-1.3775.35687-.03081.04534.51312,1.7556-.1524Zm.11092,1.08424-2.08056.40319L1.73328,16.381l2.08155-.4033ZM2.46924,18.03427l.57783-.16594-.053-.18708a.85985.85985,0,0,0-.09937-.24693l-.12732-.083L2.586,17.3552l-.15724.09452-.0646.137a1.14544,1.14544,0,0,0,.05788.28358Zm1.78928-.15054-2.0372.58455-.15715-.54207a1.7385,1.7385,0,0,1-.083-.40517.472.472,0,0,1,.13019-.30284.762.762,0,0,1,.3704-.21029.77637.77637,0,0,1,.39351-.02311.50519.50519,0,0,1,.27015.14855,1.13958,1.13958,0,0,1,.1852.41475l.06361.21987.76885-.21987Z"/><path class="cls-4" d="M24.02092,23.23142,22.712,22.05267l-.3462.38393-.26719-.23923.925-1.02823.26619.2411-.34531.38394L24.25531,22.971l-.23439.26046M22.468,24.69179l-1.39192-1.60121.2575-.22372,1.46718.60182L21.86993,22.4l.24792-.216L23.50878,23.785l-.2653.23153L21.80632,23.432l.90664,1.04561Zm-1.10735-.22767-.61931-.54009.2171.79285Zm.99257.36853-.32319.20258-.38393-.328-.59027.36853.134.48418-.31637.19874-.54879-2.1588.3144-.19675Zm-1.94751,1.17481-.96265-1.88865.31153-.15814.96363,1.88865Zm-1.25008-.29316-.12732-.33573.706-.27005.30284.789a.91111.91111,0,0,1-.21888.33188,1.00807,1.00807,0,0,1-.35884.24111.81109.81109,0,0,1-.46977.04435.84854.84854,0,0,1-.42631-.24111,1.59528,1.59528,0,0,1-.4264-1.11505.88107.88107,0,0,1,.14855-.45535.79662.79662,0,0,1,.37238-.2739.68112.68112,0,0,1,.91247.31835l-.29514.19863a.44327.44327,0,0,0-.22382-.18322.37587.37587,0,0,0-.26333.0077.44511.44511,0,0,0-.27587.29326.8436.8436,0,0,0,.06074.54592.93893.93893,0,0,0,.34828.49.41493.41493,0,0,0,.38867.03664l.18234-.12149.137-.19488-.0965-.25079Zm-2.70185,1.55677L16.122,25.176l1.27418-.20248.05689.35488-.92887.14669.07329.46493.8624-.137.05689.353-.86427.137.09067.56913.96068-.15053.055.35312Zm-1.4739.16406-.14658-2.10091.34917-.02312.12247,1.742.8701-.06173.027.357Zm-1.10251-.00781L13.9083,25.666l-.51708-.00958.00681-.35885,1.38026.02509-.00572.35687-.51511-.0077-.02993,1.76132Zm-1.75846-.218.27587-1.74009-.51026-.081.057-.355,1.36386.21612-.0559.35687-.50839-.083-.27587,1.74206Zm-1.19408-.2816.54879-2.04877.33761.09068-.5479,2.04876Zm-1.37937-.46107.65013-2.00057.33277.10807L9.98818,26.2371l.83147.26818-.10993.34146ZM7.49474,25.3998,8.522,23.544l1.13056.627-.17562.31252-.82179-.45534-.22767.411.763.42433-.17167.31252-.7649-.42433-.27982.50543.85083.47065-.17364.31252Zm-1.414-1.07258,1.305-1.67263.27785.21612-.51411.65783.54207.42443.51411-.65783.27686.216L7.17738,25.18379l-.27775-.218.571-.72924-.54405-.42443-.57.73112ZM5.28676,23.598l1.20187-1.2887-.3781-.353.24505-.26234,1.00986.94329-.244.26244-.3781-.35114-1.2,1.28672Z"/><path class="cls-5" d="M10.15214,13.22676a1.80663,1.80663,0,0,0,1.77871,1.13432,3.35334,3.35334,0,0,0,2.05074-1.01085,2.25942,2.25942,0,0,0,.41376-1.78059c-.02025-.42443-.58543-.68292-.58543-.68292s.46394-.07339.43786-.7814a1.5025,1.5025,0,0,0-.54207-1.26163,2.06227,2.06227,0,0,0-1.56654-.48231,3.28763,3.28763,0,0,0-1.96293.74465c-.46295.52479-.60953.96462-.45238,1.35429a1.81628,1.81628,0,0,0,.69645.80451,3.39665,3.39665,0,0,1,.3781.24308s-.17166.09838-.39064.20831c-.21987.10994-.5238.31637-.51214.65783a2.86986,2.86986,0,0,0,.25651.85271m-2.805,7.01835c.19676.03852,1.29739.19676,1.29739-.47076,0-.66938.109-9.09219.109-9.60532,0-.50927-.02213-1.2154-.58257-1.31378-.56143-.09641-.68292.19675-.36655-.33949.31736-.53831.708-.26817.8777-.24505a2.28264,2.28264,0,0,0,.97618.29325A3.74048,3.74048,0,0,0,10.731,8.27071a4.86647,4.86647,0,0,1,2.85416-.07329,3.47468,3.47468,0,0,1,1.92628,2.07384c.12159.80451-.05788.9665.12159,1.07258l.2816.16594c.083.05018-.17364.15054-.3299.18718a8.83287,8.83287,0,0,1-.93558,1.72854A4.63536,4.63536,0,0,1,12.31666,14.637a2.29955,2.29955,0,0,1-1.73239-.27,2.92251,2.92251,0,0,1-.53535-.48617s-.17068,3.09635-.14658,3.85256-.12248,1.48743.46295,1.78059c.58553.29129,1.41513.09838.78041.463A1.51288,1.51288,0,0,1,9.87824,20.22c-.24506-.07329-.26817-.0965-.53733.27-.26718.36457-.82851.36457-1.19407.36457C7.77931,20.85464,7.34717,20.24511,7.34717,20.24511Z"/><path class="cls-5" d="M12.52991,10.97157c.0241.51313,0,8.17-.0724,8.70629a1.3966,1.3966,0,0,1-.51313,1.04946,6.8621,6.8621,0,0,1-.926.51126,1.24922,1.24922,0,0,0,.77933.46305,1.47422,1.47422,0,0,0,.95207-.1698.5897.5897,0,0,1,.78031,0,4.8395,4.8395,0,0,0,2.26774.0965c.61062-.0965,1.365-.463,1.60991-.29138.24308.1698.80451.56143.80451.56143s-.0241-1.17106,0-1.636a13.55561,13.55561,0,0,1,.26817-1.53553,3.326,3.326,0,0,0-.8296.82949c-.31637.488-.78129,1.31764-1.60892,1.31764-.8295,0-2.09795.16979-2.26872-1.29255a21.70446,21.70446,0,0,1-.14658-3.07314c0-.90288-.03477-8.19325-.04149-8.73147a1.1687,1.1687,0,0,1,.871-1.24435,7.24424,7.24424,0,0,1,1.09776-.16969,1.09841,1.09841,0,0,0-.707-.48814,5.68471,5.68471,0,0,0-1.26845.17177,2.11633,2.11633,0,0,1-.58552-.09839.64477.64477,0,0,1-.36557.36645,5.68436,5.68436,0,0,1-1.02438.09651,3.74,3.74,0,0,1,.63472.38966c.44942.35312.31637,1.00127.29227,2.19544-.02607,1.196,0,1.97547,0,1.97547"/><path class="cls-5" d="M18.6752,9.191a16.33739,16.33739,0,0,0,1.73052-.0965c.31834-.07329.708.02894.708-.38967s.24407-.4187.24407-.4187-.0242.88166,0,1.53949c.025.65783-.09749.99939.09838,1.34085a2.20281,2.20281,0,0,1,.24308.58642,1.39283,1.39283,0,0,1-.78041-.41476,4.42229,4.42229,0,0,1-.58641-1.46421,3.88838,3.88838,0,0,0-1.19418-.1447c-.65783.02311-1.7797-.31835-1.8038,1.414-.02509,1.73051.0241,3.3413.0241,3.3413s.80451.07329,1.02349-.12346c.21987-.19478.80442-.36457.63462-.85271s-.53624-.97609-.04919-.68292.83059.63284.708.97618a2.24564,2.24564,0,0,1-.63373.73122,1.16677,1.16677,0,0,1,.48715.77932.74146.74146,0,0,1-.34244.7813.65449.65449,0,0,1-.41288.12159s.29227-.46305.219-.73122a.75391.75391,0,0,0-.56231-.63462,8.56818,8.56818,0,0,0-1.04661-.02509v2.22043a17.0161,17.0161,0,0,0-.07428,1.82888c.07428.34146.39065.65784,1.415.63472,1.02438-.02509,1.46333.02312,1.80479-.68292.34146-.708.46295-.97617.65783-1.07268a.67062.67062,0,0,1,.438-.02508,1.21794,1.21794,0,0,0-.41386.8527c0,.51313.04919,1.48931.04919,1.75561a1.17293,1.17293,0,0,1-.16979.53821.92353.92353,0,0,0-.43984-.6598,2.25845,2.25845,0,0,0-1.43814-.218c-.61062.02311-1.70829-.17167-2.07385-.14658-.36556.02312-.63373.24308-1.07357.29316a1.08652,1.08652,0,0,1-.82959-.12347c-.14471-.12149-.40033-.40319-.40033-.40319a.76679.76679,0,0,1,.572,0c.24309.13512.56143-.08484.65793-.37613.09838-.29326.26906-.22.245-2.78-.02509-2.56188-.02509-5.9264-.05017-6.36624-.02312-.43786-.02312-.73113-.218-.90279a1.13227,1.13227,0,0,0-.56133-.19488s.1697-.438.4514-.44952a1.40436,1.40436,0,0,1,.91444.32793,1.41751,1.41751,0,0,0,.92689.31647h.9019"/><path class="cls-5" d="M15.65708,14.75854c0-.22,0-.4997.01255-.68292.01155-.18332-.09749-.3781.46394-.56143.56044-.18322.9173-.29325,1.20286-.12149a1.02812,1.02812,0,0,1,.55362.64628c.07142.30481.20644.64627-.03862.951-.243.30481-.31923.52478-.62118.59807a2.62051,2.62051,0,0,1-.80441.0482c-.30482-.01155-.65784.06173-.74466-.0964-.08494-.16011-.01155-.25661-.01155-.38008,0-.12149-.01255-.40122-.01255-.40122m-.68875,1.578c0-.53624-.00869-1.25008.00672-1.68992.01353-.43984.10233-.66366-.09354-.84886-.19577-.18707-.30669-.2894-.30669-.2894s.34531-.14461.516,0c.1698.14668.3627-.0733.78041-.29316.41663-.218,1.43814-.58454,1.97547.02509a1.84061,1.84061,0,0,1,.41475,1.95038c-.29326.41475-.68391.56133-.43885.92787a2.26654,2.26654,0,0,1,.41278.90092.8458.8458,0,0,0,.6116.68292,1.74641,1.74641,0,0,1,.53535.19685,6.21615,6.21615,0,0,1-.80451.18135.71439.71439,0,0,1-.72638-.33573,6.90094,6.90094,0,0,1-.2739-1.05332c-.1042-.3222-.08-.31835-.39548-.50542a1.58607,1.58607,0,0,0-.87583-.16594c-.3627,0-.65595-.09641-.63087.14667.02322.243-.07329,1.09767-.02508,1.24425.0483.14471.22095.29129.245.438.02509.14658,0,.29325-.26817.26817a1.77586,1.77586,0,0,0-.8054.02508c-.26718.09641-.463.02312-.26718-.26817.19478-.29325.41376-.07329.41376-.56142Z"/><path class="cls-5" d="M11.80452,14.691c0-.21987,0-.49959.01057-.68292.01353-.18135-.0964-.3781.46493-.56143.56044-.18125.91829-.29128,1.20286-.12149a1.02128,1.02128,0,0,1,.55274.64627c.07329.30482.20643.64628-.03665.9511-.24506.30481-.32032.52468-.62118.59807a2.51141,2.51141,0,0,1-.80451.0482c-.30581-.01156-.65981.06173-.74466-.0965-.08583-.16011-.01353-.25652-.01353-.37811,0-.12346-.01057-.40319-.01057-.40319m-.68973,1.58c0-.53821-.00771-1.25008.00681-1.68991.01442-.44182.10124-.66554-.09364-.85074-.19576-.18718-.30669-.28753-.30669-.28753s.34531-.14658.51511,0c.17166.1447.36457-.07517.78129-.29316.41673-.22,1.43825-.58652,1.97547.02311a1.83872,1.83872,0,0,1,.41377,1.95235c-.29129.41476-.68194.55946-.43885.926a2.26425,2.26425,0,0,1,.41475.90279.84633.84633,0,0,0,.60963.68292,1.728,1.728,0,0,1,.53732.19488,6.36,6.36,0,0,1-.80549.18323.71739.71739,0,0,1-.7253-.33564,6.5458,6.5458,0,0,1-.274-1.05529c-.10509-.3221-.081-.31825-.39647-.50543a1.60475,1.60475,0,0,0-.87583-.16584c-.36269,0-.655-.0965-.62988.14658.02411.245-.07329,1.09767-.02508,1.24435.04919.14658.22.29316.24407.43984.0241.1447,0,.29128-.26817.26619a1.80077,1.80077,0,0,0-.80442.02509c-.26915.09838-.463.02509-.26817-.26817s.41377-.07329.41377-.56133Z"/></svg>