<svg id="Layer_1" data-name="Layer 1" xmlns="http://www.w3.org/2000/svg" viewBox="0 0 29 29"><defs><style>.cls-1{fill:#0f8140;}.cls-2{fill:#fff;}</style></defs><circle class="cls-1" cx="14.5" cy="14.5" r="14" transform="translate(-2.96 25.25) rotate(-76.63)"/><path class="cls-2" d="M24.68,8.62l-5.2,16.14c-.07.2-.17.3-.32.3H9.06a.34.34,0,0,1-.35-.3L4.32,8.67c0-.1,0-.15.14-.15H7.61c.17,0,.23,0,.18-.14L6,5.29c0-.08,0-.11.12-.11H22.82c.15,0,.2,0,.16.12L21.24,8.38c0,.1,0,.14.17.14h3.13C24.65,8.52,24.7,8.55,24.68,8.62Zm-.79.51c0-.07,0-.11-.12-.11H20.55c-.16,0-.22,0-.17-.14L22,5.77c0-.09,0-.14-.14-.14H7.06c-.13,0-.17,0-.13.11L8.76,8.88c.06.09,0,.14-.18.14H5.15C5,9,5,9.08,5,9.19l4.1,15a.36.36,0,0,0,.36.3h9.28c.15,0,.25-.1.32-.3Zm-.62.45L18.73,23.76c-.06.2-.17.3-.32.3H9.81a.36.36,0,0,1-.36-.3L5.59,9.63c0-.1,0-.15.14-.15H9.37c.17,0,.22-.05.17-.14L7.72,6.2c0-.07,0-.11.13-.11H21.17c.14,0,.19,0,.14.13L19.76,9.34c-.05.09,0,.14.16.14h3.21C23.24,9.48,23.29,9.51,23.27,9.58Zm-8.95,3.31a1.21,1.21,0,0,0-.61-1.05,2.17,2.17,0,0,0-1.25-.38H9.41c-.44,0-.68,0-.72.11s0,.13,0,.25a1.38,1.38,0,0,1,.09.46v7c0,.26,0,.37,0,.32s.25.14.57.14.51,0,.52-.09a.24.24,0,0,0,0-.14.57.57,0,0,1,0-.18V16.75q0-.36.12-.36s.13.05.23.17l2.58,2.75a.61.61,0,0,1,.1.24s0,.06.08.09a1.7,1.7,0,0,0,.67,0,3,3,0,0,0,.74,0c.06-.05,0-.13-.07-.24-2.09-2.23-3.14-3.38-3.14-3.47a.13.13,0,0,1,0-.07s0-.06,0-.07v-.73c0-.06,0-.1-.06-.11a.19.19,0,0,0-.18,0c-.59.25-.9.38-.93.38s-.21-.12-.21-.35V12.86c0-.23.12-.34.36-.34l1.89,0c.76,0,1.13.22,1.13.67a1,1,0,0,1-.31.66V15c0,.11.08.13.23,0a2.8,2.8,0,0,0,.65-.58,2.17,2.17,0,0,0,.53-.94A3.66,3.66,0,0,0,14.32,12.89Zm4-1.9a2.18,2.18,0,0,0-.6-1.45,1.82,1.82,0,0,0-1.45-.69H11.55c-.14,0-.21.05-.21.13a.24.24,0,0,0,.07.13.2.2,0,0,1,.07.11v1.9c0,.07.3.11.91.11.13,0,.19-.06.19-.18v-.82c0-.1.07-.16.19-.16h3.17a1.12,1.12,0,0,1,1,.44,1.91,1.91,0,0,1,.31.65,2,2,0,0,0,.57.07,2.83,2.83,0,0,0,.47,0A.48.48,0,0,0,18.34,11ZM12.67,22.32a.46.46,0,0,0,0-.13.45.45,0,0,1-.05-.18V19.68a.46.46,0,0,0-.14-.37l-.74-.74c-.09-.07-.15-.09-.19,0a1.29,1.29,0,0,0,0,.4V22a.53.53,0,0,1,0,.23.16.16,0,0,0,0,.09q0,.12.36.12h.53C12.55,22.44,12.67,22.4,12.67,22.32Zm5.44-9.61a.44.44,0,0,0-.2-.07,3.71,3.71,0,0,0-.81,0,9.35,9.35,0,0,1-1.41,1.45,16.94,16.94,0,0,1-2.56,1.48c-.24.14-.39.2-.43.17s-.12-.17-.12-.4V13c0-.13-.21-.2-.55-.2a1.87,1.87,0,0,0-.36,0c-.13,0-.19.15-.19.33V16a1.9,1.9,0,0,0,.43.62c.29.34.5.5.62.5a6.81,6.81,0,0,0,2.07-1,17.88,17.88,0,0,0,2-1.26A3.91,3.91,0,0,0,18.11,12.71Zm2.38.17c0-1-.57-1.43-1.72-1.43h-3a1.61,1.61,0,0,0-.54.05.14.14,0,0,0,0,.17.84.84,0,0,1,0,.18v2.06c0,.1,0,.15.08.15.27,0,.58-.29.94-.79v-.49q0-.33.27-.33h2.35a.44.44,0,0,1,.35.23.67.67,0,0,1,.16.37q0,1.2-3,2.19a11.19,11.19,0,0,0-1,.69c-.1.09-.16.38-.16.88v2.5a.49.49,0,0,1,0,.13.15.15,0,0,0,0,.16q0,.09.27.09h.59c.17,0,.26-.05.26-.15a.3.3,0,0,0,0-.11.35.35,0,0,1,0-.12V16.46c0-.09,0-.14.09-.14s.15.06.22.18l1.74,2.81a.63.63,0,0,0,.17.33,2.86,2.86,0,0,0,.68,0,1.48,1.48,0,0,0,.54-.05.09.09,0,0,0,0-.13l-.14-.14c-1.37-2.15-2-3.26-2-3.33s.26-.2.76-.45a5.35,5.35,0,0,0,1.44-.93A2.42,2.42,0,0,0,20.49,12.88Z"/></svg>