<svg version="1.1" id="Layer_1" xmlns="http://www.w3.org/2000/svg" x="0" y="0" viewBox="0 0 29 29" xml:space="preserve"><style>.st1{fill:#ee2e24}.st2{fill-rule:evenodd;clip-rule:evenodd;fill:#ffe700}</style><path d="M14.5 1C7.1 1 1 7.1 1 14.5S7.1 28 14.5 28 28 21.9 28 14.5 21.9 1 14.5 1z" fill="#fff"/><path class="st1" d="M14.5 28.7C6.7 28.7.3 22.3.3 14.5S6.7.3 14.5.3c7.8 0 14.2 6.4 14.2 14.2 0 7.8-6.4 14.2-14.2 14.2zm0-27C7.4 1.7 1.7 7.4 1.7 14.5c0 7.1 5.7 12.8 12.8 12.8 7.1 0 12.8-5.7 12.8-12.8S21.6 1.7 14.5 1.7z"/><path class="st1" d="M26 20.6c0 .2-.1.4-.3.4l-21 2c-.2 0-.4-.1-.4-.3L3 8.4c-.1-.2.1-.4.3-.4l21.1-2c.2 0 .4.1.4.3L26 20.6z"/><path class="st2" d="M16.1 17.5c0 .3.1.7.1 1 0 .4.1.8.1 1.1v.5c-.2 0-.4 0-.5.1h-.1l-.1-.1-.1-.1c0-.4-.1-.8-.1-1.2 0-.4-.1-.8-.1-1.2 0-.3-.1-.6-.1-.9 0-.3-.1-.6-.1-.9 0-.3 0-.5-.1-.8v-.5h.1c.4 0 .7-.1 1.1-.1.2 0 .4 0 .5-.1.2 0 .5.1.6.3.2.2.3.5.3.7 0 .2 0 .4.1.6v.5c0 .2 0 .3-.1.5 0 .1-.1.2-.1.2v.1c.2.2.3.5.3.7 0 .3.1.6.1.9 0 .3.1.6.1.8v.4c-.2 0-.4 0-.5.1l-.1-.1c-.1-.1-.1-.1-.1-.2 0-.3-.1-.7-.1-1 0-.3-.1-.6-.1-.8v-.2c0-.1-.1-.2-.3-.2h-.5c-.1-.1-.1-.1-.2-.1zm.4-2.6H16s-.1 0 0 .1v.1c0 .2 0 .4.1.6 0 .3.1.7.1 1 0 .1 0 .1.1.1h.7c.1 0 .1-.1.1-.2v-.2c0-.4-.1-.8-.1-1.2 0-.1-.1-.2-.2-.2-.2-.1-.3-.1-.3-.1zm-9.3 6h-.7s0-.1-.1-.1c0 0-.1-.1-.1-.2 0-.4 0-.7-.1-1.1 0-.4 0-.8-.1-1.2v-3.1s0-.1.1-.1c.2 0 .3 0 .5-.1h1.1c.3 0 .6.2.7.4.1.2.1.4.1.6v.9c0 .2 0 .4-.1.6 0 .1-.1.1-.1.2v.1c.1.1.2.3.2.5s.1.5.1.7c0 .3 0 .6.1.9v.7h-.6c0-.1-.1-.1-.1-.2v-.7c0-.4 0-.7-.1-1.1v-.3c0-.1-.1-.2-.2-.2h-.6s-.1 0-.1.1c0 .4 0 .8.1 1.1v1.6zM7 16.3v.2c0 .4 0 .8.1 1.2 0 0 0 .1.1 0h.5c.1 0 .2 0 .2-.1.1-.1.1-.2.1-.4v-1.3c0-.1-.1-.2-.3-.2h-.6s-.1 0-.1.1v.5zm.3-2.5c-.1 0-.2 0-.2-.1v-.3h.5c.3 0 .6-.1.8-.1.2 0 .4 0 .6-.1.2 0 .5 0 .7-.1l.6-.1c.3 0 .6-.1.9-.1.3 0 .5 0 .8-.1.4 0 .8-.1 1.2-.1.3 0 .6 0 .8-.1.2 0 .5 0 .7-.1.2 0 .4 0 .6-.1l.8-.1c.2 0 .5 0 .7-.1.3 0 .6 0 .9-.1.2 0 .5 0 .7-.1.3 0 .6 0 .9-.1.3 0 .5 0 .8-.1.3 0 .6 0 .9-.1h.5c.3 0 .5 0 .8-.1l.6-.1c.2 0 .4 0 .6-.1.1 0 .2 0 .2.1v.3h-.4c-.2 0-.5 0-.7.1h-.5c-.3 0-.5 0-.8.1h-.5c-.2 0-.4 0-.6.1h-.5c-.2 0-.4 0-.6.1h-.5c-.2 0-.4 0-.6.1h-3.4c-.2 0-.4 0-.6.1H9.7c-.2 0-.4 0-.6.1h-.5l-.6.1h-.5c0 1.2-.1 1.2-.2 1.2zm-.5-1.4v.7c0 .4-.3.8-.7.8-.3.1-.6.1-.9.1-.3 0-.6-.1-.8-.4-.1-.1-.1-.2-.1-.4v-.6c.2-.1.4-.2.6-.2.1 0 .1 0 .1.1v.6c0 .1.1.3.2.3h.5c.1 0 .2-.1.3-.2v-1.5c0-.1-.1-.2-.2-.3H5c-.2 0-.4-.1-.5-.2-.1-.1-.1-.2-.2-.3V9.7c0-.2 0-.3.1-.5.1-.1.2-.2.4-.3.1 0 .2-.1.3-.1.1 0 .2 0 .3-.1H6c.3 0 .5.2.5.5v.7c-.2.1-.3.2-.5.2 0 .2 0 .2 0 0v-.7c0-.1-.1-.1-.2-.2-.2-.1-.5 0-.7.1-.1.2-.2.3-.1.4v1c0 .1.1.3.2.3h1c.1 0 .2.1.3.3.1.1.1.3.1.4.1.2.1.5.2.7z"/><path class="st2" d="M16.5 8.5c.3 0 .5.2.6.5 0 .1 0 .3.1.4 0 .1 0 .3.1.4 0 .1 0 .3-.1.4v.1c.1.1.2.3.2.4 0 .2 0 .4.1.6 0 .2 0 .4-.2.6-.2.1-.3.1-.4.1h-.4c-.2 0-.4 0-.6.1h-.1c-.1 0-.1-.1-.1-.2 0-.2-.1-.5-.1-.7 0-.3-.1-.5-.1-.8 0-.2 0-.4-.1-.6 0-.2 0-.3-.1-.5 0-.2 0-.4-.1-.6v-.1h.2c.4-.1.7-.1 1.1-.1-.1 0-.1 0 0 0zm-.1 1.9h-.3c-.1 0-.1 0-.1.1v.4c0 .2.1.5.1.7h.4c.1 0 .2-.1.2-.2 0-.3-.1-.5-.1-.8 0-.1-.1-.1-.1-.2h-.1zm-.2-1.6h-.4v.1c0 .3.1.7.1 1h.6c.1 0 .1-.1.1-.1 0-.3-.1-.6-.1-.8 0-.1-.1-.2-.3-.2zm-4.8 10.8h-.3c-.1 0-.2 0-.2-.1l-.1-.1c-.1-.1-.1-.2-.1-.3 0-.1 0-.3-.1-.4h-.1c-.2 0-.5 0-.7.1 0 0-.1 0-.1.1 0 .2 0 .3-.1.5v.3s0 .1-.1.1h-.3s-.1-.1-.1-.2c.1-.3.1-.6.1-.9 0-.3.1-.6.1-.9s.1-.6.1-.9c.1-.4.1-.7.2-1.1v-.1h.3c.1 0 .2 0 .2.1.1.1.1.2.1.3.1.6.3 1.3.4 1.9.1.5.2.9.3 1.4.5-.1.5 0 .5.2zm-1.2-2.8c-.1.3-.1.5-.1.7-.1.3-.2.5-.2.8h.5c0-.2-.1-.5-.1-.7 0-.2-.1-.4-.2-.7.1 0 .1-.1.1-.1zM9.1 9.9v-.7c0-.1 0-.1.1-.1.2 0 .4 0 .6-.1h.3c.3 0 .5.2.5.5 0 .2 0 .4.1.6v.4c0 .1-.1.2-.1.2v.1c.1.1.2.3.2.5 0 .4.1.8.1 1.2 0 .1 0 .1-.1.1h-.4c-.1-.1-.1-.1-.1-.2 0-.3 0-.6-.1-.8v-.4c0-.1-.1-.2-.2-.2h-.4v1.5c0 .1 0 .1-.1.1h-.4c-.1 0-.1-.1-.1-.2 0-.6-.1-1.3-.1-1.9.2-.1.2-.4.2-.6zm.5.1v.7h.4c.1 0 .2-.1.2-.2v-.8c0-.1-.1-.2-.2-.2h-.4s-.1 0-.1.1c.1.1.1.2.1.4zm13 8.5c-.2 0-.3 0-.5.1l-.2-.2c0-.2-.1-.4-.2-.6H21l-.1.1v.8h-.2c-.1 0-.1-.1-.1-.1 0-.2 0-.4.1-.6 0-.2 0-.4.1-.5 0-.2 0-.4.1-.6 0-.2 0-.4.1-.6 0-.3.1-.6.1-.9v-.6c0-.1 0-.1.1-.1h.5s.1.1.1.2v.1c.1.4.3.9.4 1.3.2.6.4 1.3.6 1.9-.3.1-.3.2-.2.3zm-1-1.2c-.1-.5-.3-1-.4-1.5 0 .3-.1.5-.1.8 0 .2 0 .5-.1.7 0 0 0 .1.1.1.1-.1.3-.1.5-.1zm-2.2-9.1c.4 0 .7-.1 1-.1.3 0 .6.2.6.5 0 .2.1.4.1.6v.7c.1.1.1.3.1.4 0 .3.1.6.1.9v.4h-.2c-.1 0-.2 0-.2-.1v-.1c0-.2-.1-.5-.1-.7 0-.2 0-.3-.1-.5 0-.1-.1-.2-.2-.2h-.3v.1c.1.4.1.8.2 1.2v.3h-.3c-.1-.1-.1-.2-.1-.3 0-.3-.1-.5-.1-.8 0-.2-.1-.4-.1-.6 0-.2-.1-.4-.1-.7 0-.2 0-.3-.1-.5-.1 0-.2-.2-.2-.5 0 .1 0 .1 0 0zm.9.3H20c-.1 0-.1 0-.1.1.1.4.2.8.2 1.1h.4c.1 0 .2-.1.2-.1v-.1c0-.2-.1-.5-.1-.7 0-.1-.1-.2-.2-.2 0-.1 0-.1-.1-.1zm-1.2 10.3c-.2 0-.3 0-.5-.1-.1-.1-.2-.3-.3-.4 0-.2-.1-.5-.1-.7 0-.2-.1-.5-.1-.7 0-.2-.1-.5-.1-.7 0-.2-.1-.4-.1-.6 0-.2.1-.4.2-.6.1-.1.2-.1.3-.1h.6c.2 0 .4.1.5.2.1.1.1.2.1.4 0 .3.1.6.1.9 0 .2.1.5.1.7 0 .3.1.6.1.9v.3c0 .1-.1.3-.2.3-.1.1-.2.1-.4.1.1.1-.1.1-.2.1zm.6-.7v-.2c0-.3-.1-.6-.1-.9 0-.4-.1-.8-.1-1.2 0-.2 0-.3-.1-.5 0-.1-.1-.1-.2-.2h-.3c-.2 0-.3.2-.3.4 0 .4.1.8.1 1.2 0 .5.1.9.1 1.4 0 .2.1.3.3.3h.3c.1 0 .1 0 .2-.1 0 0 .1-.1.1-.2zm2.7-3.5h.2c.3 0 .6 0 .9-.1.2 0 .4 0 .5.2.1.1.1.2.1.3 0 .3.1.6.1.9 0 .3.1.6.1 1 0 .2.1.5.1.7 0 .2 0 .4-.2.6-.1.1-.2.1-.3.1-.3 0-.5.1-.8.1H23s-.1-.1-.1-.2c0-.2-.1-.4-.1-.6 0-.2-.1-.4-.1-.6 0-.2-.1-.4-.1-.6 0-.2-.1-.4-.1-.7 0-.2-.1-.4-.1-.6v-.5c0 .1 0 0 0 0zm.9.2h-.4v.3c0 .4.1.7.1 1.1 0 .3.1.6.1.8 0 .3.1.7.1 1 0 0 0 .1.1 0h.6c.1 0 .1-.1.1-.1 0-.1.1-.2 0-.3 0-.1 0-.2-.1-.3-.1-.4-.1-.9-.2-1.3 0-.2-.1-.5-.1-.7 0-.1 0-.2-.1-.3 0-.1-.1-.2-.2-.2.1 0 0 0 0 0zm-10.5-2.4c-.1-.1-.2-.1-.2-.2 0-.2-.1-.3-.1-.5 0-.1 0-.1-.1-.1-.2 0-.4 0-.6.1 0 0-.1 0-.1.1 0 .2-.1.5-.1.7 0 .1 0 .1-.1.1h-.3c-.1 0-.1-.1 0-.1.1-.4.1-.8.2-1.3.1-.4.1-.8.2-1.2.1-.3.1-.7.2-1h.5l.1.1v.1c.1.3.2.7.3 1l.3 1.2c.1.3.2.7.3 1h-.5zm-.4-1.2c-.1-.4-.2-.9-.3-1.3v.2c-.1.4-.1.7-.2 1.1 0 .1 0 .1.1.1h.4c-.2-.1-.1-.1 0-.1zm6 .7c-.3 0-.6-.2-.7-.5 0-.2 0-.4-.1-.6 0-.2-.1-.5-.1-.7 0-.2 0-.3-.1-.5 0-.2 0-.3-.1-.5 0-.2 0-.4-.1-.6v-.1h.4c.1.1.1.2.1.3 0 .3.1.6.1 1 0 .3.1.7.1 1 0 .2.1.4.1.6 0 .1.1.3.3.3h.3c.2 0 .3-.2.2-.3 0-.2-.1-.4-.1-.6 0-.2 0-.3-.1-.5 0-.2 0-.3-.1-.5 0-.2 0-.3-.1-.5 0-.2 0-.4-.1-.6v-.3c0-.1 0-.1.1-.1h.3c.3.1.3.2.3.2.1.4.1.8.2 1.1 0 .3.1.5.1.8 0 .3.1.5.1.8v.3c0 .1-.1.2-.2.3-.1.1-.2.1-.3.1-.2.1-.4.1-.5.1zm-4.1-1.7h.3c.2 0 .3.2.4.3 0 .2 0 .3.1.5 0 .2 0 .4.1.6 0 .1 0 .3-.2.4-.1.1-.3.2-.4.2h-.4c-.3 0-.6-.2-.7-.5v-.4c.1 0 .2-.1.3-.1h.1v.3c0 .2.1.3.3.3h.4c.1 0 .2-.1.2-.2v-.3c0-.2 0-.4-.1-.5 0-.2-.1-.3-.3-.3h-.5c-.2 0-.5-.2-.5-.4v-.8c0-.2.1-.4.2-.5.1-.1.2-.1.3-.1.2 0 .4 0 .7-.1.1 0 .2 0 .3.1.1 0 .1.1.2.2v.5s0 .1-.1.1-.2.1-.3.1h-.1v-.4c0-.1-.1-.2-.2-.2H14c-.1 0-.2.2-.2.3 0 .2 0 .4.1.6 0 .1.1.2.2.2h.2c-.2.1-.1.1 0 .1zM22.7 9v-.4c0-.1-.1-.2-.3-.2h-.3c-.1 0-.2.2-.2.3 0 .3.1.7.1 1 .1.3.1.7.2 1v.3c0 .1.1.2.2.3h.4c.1 0 .2-.2.2-.3 0-.2-.1-.4-.1-.6 0-.1-.1-.2-.2-.2h-.1V10h.5c.1 0 .2.1.2.1 0 .3.1.5.1.8 0 .1 0 .2.1.4 0 .3-.1.5-.4.5h-.5c-.3 0-.6-.2-.7-.5 0-.3-.1-.5-.1-.8 0-.2-.1-.5-.1-.7 0-.3-.1-.5-.1-.8v-.4c.1-.2.2-.3.4-.4h.8c.1-.1.2.1.2.3 0 .1 0 .2.1.4 0 0 0 .1-.1.1-.1-.1-.2 0-.3 0zm-4.3 10.5h.3c.3 0 .6-.1.9-.1.3 0 .5 0 .8-.1.3 0 .6-.1.8-.1.2 0 .4 0 .6-.1.2 0 .4 0 .6-.1.2 0 .4 0 .6-.1.2 0 .4 0 .6-.1.2 0 .3 0 .5-.1h.5c.1.1.1.2.1.3h-.3c-.2 0-.4 0-.6.1-.2 0-.4 0-.6.1-.2 0-.4 0-.6.1h-.4c-.2 0-.3 0-.5.1-.2 0-.3 0-.5.1-.2 0-.4 0-.6.1-.2 0-.4 0-.6.1-.2 0-.3 0-.5.1h-.9c-.1 0-.1 0-.1-.1 0 0 0-.1-.1-.2zM6.9 9.4c0-.1 0-.1.1-.1.4 0 .7-.1 1.1-.1.2 0 .3 0 .5-.1.1 0 .2 0 .2.1v.1s0 .1-.1.1h-.5s-.1 0-.1.1v1.4c0 .5 0 1.1.1 1.6 0 .1 0 .1-.1.1h-.3c-.1 0-.1-.1-.2-.1v-3s0-.1-.1-.1H7c-.1 0-.1 0-.1-.1v.1zm7.6 9.7c0 .2 0 .1-.1.1-.2 0-.5 0-.7.1-.2 0-.4 0-.6.1H13c-.1-.1-.1-.2-.1-.2 0-.3 0-.5-.1-.8 0-.2 0-.5-.1-.7 0-.3 0-.5-.1-.8 0-.2 0-.5-.1-.7v-.6s0-.1.1-.1h.4s.1.1.1.2v.1c0 .3 0 .5.1.8 0 .3 0 .6.1.8 0 .4.1.8.1 1.2v.3h1v.1c0-.1.1 0 .1.1zm-5 1.7c-.1 0-.1 0-.2-.1v-.3c.2 0 .5 0 .7-.1.3 0 .6 0 .9-.1h.5c.2 0 .4 0 .6-.1h.5c.2 0 .4 0 .6-.1.2 0 .4 0 .6-.1.2 0 .4 0 .6-.1.1 0 .1 0 .1.1v.3H14c-.2 0-.4 0-.6.1h-.5c-.2 0-.4 0-.6.1h-.5c-.2 0-.5 0-.7.1H9.7c.1.2-.1.2-.2.3zm2.1-5.3h.4c.1.1.1.2.1.3 0 .3 0 .7.1 1 0 .3 0 .5.1.8 0 .3 0 .6.1.9l.1.8c0 .1 0 .1-.1.1h-.3c-.1 0-.2 0-.2-.1v-.2c0-.2 0-.5-.1-.7v-.5c0-.2 0-.5-.1-.7v-.6c0-.2 0-.5-.1-.7v-.4z"/><path d="M16.5 14.9h.2c.1 0 .2.1.2.2 0 .4.1.8.1 1.2v.2c0 .1 0 .2-.1.2h-.7c-.1 0-.1 0-.1-.1 0-.3-.1-.7-.1-1 0-.2 0-.4-.1-.6v-.2c.2.2.4.1.6.1zM7 16.3v-.5s0-.1.1-.1h.6c.1 0 .2.1.3.2v1.3c0 .1 0 .2-.1.3-.1.1-.1.1-.2.1h-.6c0-.4 0-.8-.1-1.2v-.1zm9.4-5.9h.2c.1 0 .1.1.1.2 0 .3.1.5.1.8 0 .1 0 .2-.1.2h-.4c0-.2-.1-.5-.1-.7v-.4c0-.1 0-.1.1-.1h.1zm-.2-1.6c.2 0 .2 0 .2.2 0 .3.1.6.1.8 0 .1 0 .2-.1.2h-.6c0-.3-.1-.7-.1-1v-.1c.3 0 .4-.1.5-.1zm-6 8v.1c.1.2.1.4.2.7 0 .2.1.5.1.7H10c-.1-.3 0-.5 0-.8.1-.3.1-.5.2-.7zM9.6 10v-.6s0-.1.1-.1h.3c.1 0 .2.1.3.2v.9c0 .1-.1.2-.2.2h-.4v-.1c0-.1-.1-.3-.1-.5zm12 7.3c-.2 0-.4 0-.6.1 0 0-.1 0-.1-.1 0-.2 0-.5.1-.7 0-.3.1-.5.1-.8.2.5.3 1 .5 1.5zm-1.3-8.8h.1c.1 0 .2.1.2.2 0 .2.1.5.1.7v.1c0 .1-.1.1-.2.1h-.4c0-.2-.1-.6-.1-1 0 0 0-.1.1-.1h.2zm-.6 9.6c0 .1 0 .2-.1.3 0 0-.1.1-.2.1h-.3c-.1 0-.3-.2-.3-.3 0-.5-.1-.9-.1-1.4 0-.4-.1-.8-.1-1.2 0-.2.1-.4.3-.4h.3c.1 0 .1.1.2.2 0 .1.1.3.1.5 0 .4.1.8.1 1.2 0 .3.1.6.1.9-.1 0-.1.1 0 .1zm3.6-3.3h.2c.1 0 .2.1.2.2s0 .2.1.3c0 .2.1.5.1.7.1.4.1.9.2 1.3 0 .1 0 .2.1.3v.3c0 .1-.1.1-.1.1h-.7c0-.3-.1-.7-.1-1 0-.3-.1-.6-.1-.8-.1-.4-.1-.7-.1-1.1v-.3h.2zm-10.9-3.6h-.6c-.1 0-.1 0-.1-.1.1-.4.1-.7.2-1.1v-.2c.2.5.3.9.5 1.4z" fill="#ee2e24" fill-rule="evenodd" clip-rule="evenodd"/></svg>