<svg id="Layer_1" data-name="Layer 1" xmlns="http://www.w3.org/2000/svg" viewBox="0 0 29 29"><defs><style>.cls-1{fill:#fff;}.cls-2,.cls-4{fill:#ee2e24;}.cls-3{fill:#ffe700;}.cls-3,.cls-4{fill-rule:evenodd;}</style></defs><path class="cls-1" d="M28.5,14.50041A14,14,0,1,1,14.5005.5,13.99919,13.99919,0,0,1,28.5,14.50041Z"/><path class="cls-2" d="M26.04171,20.61183a.34619.34619,0,0,1-.31221.37579L4.663,22.95143a.34539.34539,0,0,1-.37616-.31231L2.95829,8.38824a.34518.34518,0,0,1,.31221-.37579L24.3369,6.04873a.34419.34419,0,0,1,.37625.31222Z"/><path class="cls-3" d="M16.12493,17.5199c.03133.33641.06129.66209.09263.98777.0371.37928.07512.7613.1113,1.14066.01393.14668.026.29253.03894.43837.004.04022-.00358.05543-.04874.05992-.17672.01438-.35252.034-.52916.05194a.0781.0781,0,0,1-.07613-.026.52943.52943,0,0,0-.093-.08942.17036.17036,0,0,1-.064-.13238c-.038-.40978-.077-.81773-.11635-1.2266q-.061-.6173-.12212-1.23466c-.0273-.28711-.05276-.57432-.08052-.86061-.0295-.31047-.06257-.62177-.093-.934-.02373-.25056-.04608-.50286-.07027-.75333-.01383-.153-.03133-.30773-.047-.467.01878-.00266.03756-.00889.056-.01163q.53882-.051,1.07892-.0984c.17627-.01786.35207-.03847.52916-.05185a.71482.71482,0,0,1,.61288.25669,1.22854,1.22854,0,0,1,.306.739c.016.19055.04379.38285.063.57432.0175.16554.03756.33108.04517.49654a1.18719,1.18719,0,0,1-.0765.45449c-.02813.07961-.0568.15656-.08273.23535a.06462.06462,0,0,0,.00981.05359,1.29125,1.29125,0,0,1,.31.72292c.02639.30415.06037.6084.09216.91163.03.28006.05992.56186.08951.84366.01163.10646.02189.21209.03527.31946.00449.03756.00321.05991-.04736.06348-.18121.0143-.36233.03491-.54354.05012a.06938.06938,0,0,1-.04608-.017c-.04251-.03848-.08007-.0841-.12432-.119a.28131.28131,0,0,1-.07787-.2174q-.05235-.52068-.1038-1.04136c-.02721-.27822-.05277-.55645-.07961-.83468a.65176.65176,0,0,0-.02547-.15125.237.237,0,0,0-.25092-.18781c-.16555.00623-.33155.02144-.49746.03308C16.24036,17.50387,16.18127,17.51367,16.12493,17.5199Zm.3288-2.599c-.20045.017-.36553.03316-.53145.043-.04919.00358-.05368.02593-.04827.06532.00668.0492.01154.0984.016.14759.02061.21566.03939.43214.06037.64779.03362.34355.06889.68527.10251,1.027.00623.05909.00623.06.06753.05552.18606-.01521.373-.02868.55874-.04746a.3984.3984,0,0,0,.14044-.04113.26229.26229,0,0,0,.13687-.24781,1.81031,1.81031,0,0,0-.017-.20311c-.03884-.38825-.07686-.77651-.11717-1.16485a.265.265,0,0,0-.174-.23884A1.355,1.355,0,0,0,16.45373,14.921Z"/><path class="cls-3" d="M7.237,20.942c-.05992.00623-.11543.01255-.1704.01612-.12707.01164-.25542.0197-.38248.03133a.10531.10531,0,0,1-.1038-.04122.32274.32274,0,0,0-.0644-.07063.19387.19387,0,0,1-.064-.15657c-.01658-.357-.038-.71485-.0568-1.0727q-.03353-.60794-.06578-1.2167c-.0076-.15574-.01383-.31313-.02189-.4697-.01475-.2774-.03042-.55471-.04389-.83294-.01209-.23352-.02281-.46612-.03133-.70056-.01429-.37478-.02638-.75058-.04113-1.12637-.0022-.04205.013-.05635.05148-.05992.16729-.01695.33366-.034.50012-.051.04919-.00531.09747-.016.14713-.0196.19687-.01613.39458-.03133.59181-.04654a3.54658,3.54658,0,0,1,.40127-.02593.77226.77226,0,0,1,.68489.43837,1.40707,1.40707,0,0,1,.14668.61912c.013.29966.03536.59758.04653.89642a1.44837,1.44837,0,0,1-.12752.64322c-.02684.06-.05634.119-.08538.17626-.01118.02419-.01659.042.00531.06349a1.15376,1.15376,0,0,1,.24964.49745,3.32762,3.32762,0,0,1,.07742.68261c.01832.29884.03573.59768.05405.89643.01081.17718.02061.35344.03087.53052.00449.07247.00761.1432.013.21658.00358.034-.00944.0447-.04471.04919-.17718.01338-.353.0295-.5297.04471a.09212.09212,0,0,1-.0917-.03573c-.04114-.05194-.08722-.10206-.12973-.153a.08308.08308,0,0,1-.01924-.04654c-.01429-.23618-.02721-.47328-.03975-.70945-.02016-.37039-.038-.74435-.06038-1.11566a1.26023,1.26023,0,0,0-.04342-.34538.24733.24733,0,0,0-.22189-.17535c-.14988.00184-.29966.01439-.44954.02328-.05992.00275-.12029.01163-.18121.0152-.04288,0-.05763.01521-.05543.0591.0197.37753.03711.75507.05543,1.13086.00989.19495.02016.39091.03.585.01292.25945.02638.51715.03976.77477C7.23787,20.88566,7.237,20.90975,7.237,20.942ZM7.0312,16.331H7.029c.00311.05185.00623.10553.00843.15748.01841.39448.03765.78906.05414,1.18363.00183.04563.0197.05451.05909.05.076-.008.153-.01246.229-.01878.10819-.01163.21648-.01878.3234-.03756a.3211.3211,0,0,0,.20621-.11.41318.41318,0,0,0,.077-.31222c-.01613-.255-.0295-.51082-.04563-.76761-.01117-.17626-.02281-.35161-.03939-.52879a.24426.24426,0,0,0-.2523-.2272c-.19587.00806-.39137.03042-.58733.04379-.04342.00449-.05726.02153-.055.0645C7.01691,15.99456,7.02359,16.16276,7.0312,16.331Z"/><path class="cls-3" d="M7.28258,13.84468c-.1234.00633-.16279-.03041-.16637-.1234-.00311-.0797-.00449-.15931-.01072-.23892-.0032-.04114.01292-.05635.04966-.05818.15336-.01246.30635-.02409.45934-.03665.28007-.02418.56012-.0501.84055-.07512.196-.01795.39182-.03316.58824-.05011.234-.02235.46787-.0447.7023-.06532l.56315-.051c.31588-.02766.63075-.05634.94617-.0841.26476-.02409.5287-.04562.794-.06889q.58705-.05235,1.17465-.10462c.27777-.02327.55472-.0448.832-.06889.23077-.02062.46118-.043.69241-.06358q.30066-.02681.60171-.05l.77431-.06715c.24607-.0197.49067-.04022.73629-.06083.28491-.02327.57038-.0492.85529-.07247.24827-.02144.497-.04113.74527-.06266.28491-.02236.57029-.04829.85529-.07155.25139-.02144.50323-.04114.75507-.06175.28538-.02318.57038-.04828.85576-.07246.17177-.0143.34446-.02685.51578-.04022q.38985-.03354.77879-.06707l.61143-.051c.196-.01613.39191-.03042.58824-.05011a.182.182,0,0,1,.21877.17625c.00669.05818.01383.11718.02593.17536.00668.0349-.00486.05011-.04068.05184-.13467.009-.27062.01879-.40575.0296-.22638.01786-.4522.03756-.67812.05634-.17131.01255-.344.02593-.51578.0393-.25632.02327-.51266.0448-.76853.06623-.17535.0143-.35024.02593-.52513.04031-.20933.01787-.41738.03665-.62534.05452-.16417.01521-.32789.02776-.492.04122-.20494.01878-.41025.03665-.61555.05542l-.49608.04023c-.21254.01887-.42362.03673-.6357.05368-.17306.01613-.34712.02868-.52018.043-.16866.01428-.33777.0295-.506.04562-.12075.00989-.24159.02061-.36233.03133q-.26563.02282-.52961.04654c-.15923.01338-.319.025-.4773.0393-.16866.01439-.33778.03051-.506.04571-.16371.01522-.32788.02676-.492.04114-.19816.01787-.3976.03665-.59585.05451-.15922.01438-.31844.02776-.4773.04205-.16371.01438-.32742.03042-.49159.04562-.1257.009-.25139.0197-.37708.03051-.16683.01429-.33375.03042-.50057.04562-.15116.0143-.30195.02593-.45311.04114-.16244.01521-.32431.03133-.48674.04562-.12212.01072-.24507.02052-.36719.03133-.15748.01338-.315.03042-.4729.04379-.16014.0143-.3211.02776-.48124.043-.19733.01695-.39458.03665-.59182.05369-.15931.0152-.31854.02858-.47776.04205l-.60125.05093q-.257.02281-.51578.0448C7.47231,13.8259,7.36137,13.83754,7.28258,13.84468Z"/><path class="cls-3" d="M6.75205,12.41058c.00806.2469.02016.493.02327.73986a.775.775,0,0,1-.73225.81233c-.2742.02327-.54712.06083-.82131.07787a.78344.78344,0,0,1-.7788-.37936.71753.71753,0,0,1-.09931-.356c-.00623-.179-.00715-.35518-.01209-.53328a.04851.04851,0,0,1,.0349-.05368c.18652-.07512.37177-.153.55875-.22812.07338-.0295.09033-.01787.0917.06175.00312.20759.0022.41244.01026.61994a.31149.31149,0,0,0,.24873.30782.88385.88385,0,0,0,.46026.009.56156.56156,0,0,0,.32394-.2425.31.31,0,0,0,.034-.16106c-.00229-.21107-.01081-.42316-.01658-.63432-.00623-.22454-.01429-.45083-.017-.67546a.30969.30969,0,0,0-.23389-.26027,1.31173,1.31173,0,0,0-.25184-.017c-.171.00623-.34181.02144-.51266.03225a.71739.71739,0,0,1-.52962-.2174.61886.61886,0,0,1-.17314-.31762,1.58463,1.58463,0,0,1-.03262-.391c-.00806-.28006-.00852-.56-.02015-.84009a.88918.88918,0,0,1,.13018-.48756.76529.76529,0,0,1,.35692-.35336A1.97164,1.97164,0,0,1,5.139,8.82752c.09885-.02327.20265-.02776.29966-.05551a.99969.99969,0,0,1,.22455-.00623,3.26618,3.26618,0,0,1,.44826-.01613.52378.52378,0,0,1,.51935.56278q.00743.29791.01878.59493a.06467.06467,0,0,1-.04874.07247c-.16554.07246-.32879.15024-.49388.22188-.11717.05369-.12121.0492-.12432-.08236-.004-.16546-.004-.33191-.00944-.49828A1.03774,1.03774,0,0,0,5.95,9.45552a.2175.2175,0,0,0-.16142-.16636.7223.7223,0,0,0-.67546.101A.34749.34749,0,0,0,4.953,9.7016c.0098.32742.0098.6531.0174.97961a.27559.27559,0,0,0,.29124.28537c.20842-.00174.41821-.01071.62755-.01612a1.192,1.192,0,0,1,.44642.03582.47442.47442,0,0,1,.29215.26036,1.09509,1.09509,0,0,1,.10151.43031c.00229.24424.01521.48939.02373.73363Z"/><path class="cls-3" d="M16.45547,8.46153a.58626.58626,0,0,1,.57661.47153c.02913.12881.03985.26128.0568.39274.01832.14228.03133.28538.05149.42765a.65962.65962,0,0,1-.07742.374c-.03307.07247-.0371.07155.01475.12972a.77257.77257,0,0,1,.17626.43837c.02236.20494.04874.41153.07155.61738a.71441.71441,0,0,1-.15381.56.49844.49844,0,0,1-.32166.16462c-.14722.02327-.29435.03491-.44239.0492-.20668.0197-.41382.03665-.62.05543a.169.169,0,0,1-.148-.04114.2619.2619,0,0,1-.09711-.18432c-.021-.24873-.055-.49563-.08053-.74253-.02812-.27373-.05277-.54756-.08007-.81947-.021-.21117-.04379-.42325-.0644-.63432-.01786-.17269-.03262-.3463-.05094-.51981-.02061-.196-.04251-.39275-.06889-.59044-.00632-.04563.01475-.051.04828-.05369.06486-.0054.12973-.01163.195-.017q.48577-.03888.97119-.07787C16.42643,8.46071,16.44026,8.46153,16.45547,8.46153Zm-.09033,1.96289c-.13156.01164-.23306.02235-.335.02959-.06669.00623-.06807.00357-.06046.07246.01521.13056.03133.26028.04654.39092.02913.24689.05863.49388.08767.74261.00357.03041.01659.04644.0492.04287.14942-.0152.29975-.02409.44734-.04828a.19253.19253,0,0,0,.17132-.23883q-.04632-.412-.09253-.82314a.16184.16184,0,0,0-.1387-.15565A1.29925,1.29925,0,0,0,16.36514,10.42442Zm-.119-1.58352V8.83824c-.13687.01072-.2742.02235-.41107.03307-.02593.00184-.03756.01072-.03271.0394.00541.03573.00807.07246.01164.10911.03939.34712.07833.6925.11726,1.03962.00394.03664.01961.04562.0536.03847.0251-.00449.051-.00632.07613-.009.131-.01072.26256-.01695.39182-.034a.14422.14422,0,0,0,.1333-.187c-.0371-.28089-.0743-.56361-.11049-.8454-.01786-.14136-.06128-.18167-.2053-.18167Z"/><path class="cls-3" d="M11.44363,19.55077c-.10335.009-.19633.018-.28987.026a.26788.26788,0,0,0-.03894.00266.2116.2116,0,0,1-.23929-.08411.3311.3311,0,0,0-.06669-.06083c-.09839-.05991-.09482-.162-.11177-.25587-.02327-.12881-.04874-.25771-.07072-.3856-.00623-.03756-.0219-.04654-.05772-.043-.23837.02418-.47684.04654-.7143.06981a.05313.05313,0,0,0-.0546.05368c-.02016.16912-.04517.33723-.06844.50726-.01163.08859-.02555.17626-.03444.26485-.00449.04379-.02153.06706-.0689.068a1.14607,1.14607,0,0,0-.16646.01429.11247.11247,0,0,1-.10242-.034.153.153,0,0,1-.05057-.1584c.05414-.30415.10022-.60739.14988-.91163.04608-.28446.09308-.56992.14007-.85438s.09207-.569.13861-.85438c.05909-.35784.11809-.71394.17718-1.07178a1.07063,1.07063,0,0,0,.0219-.136c.00138-.03664.01924-.04287.047-.04562.11-.00981.22142-.01072.32925-.03133a.214.214,0,0,1,.23746.10737.76585.76585,0,0,1,.10334.27025c.14539.62892.29124,1.25519.43214,1.88319.102.45183.19724.90449.29572,1.35632C11.40157,19.34593,11.42127,19.44432,11.44363,19.55077Zm-1.26014-2.777-.01209.00266-.00623.0251c-.03976.22454-.08007.44643-.11992.66913-.05048.28364-.09922.56636-.1507.84907-.00578.034,0,.04737.03756.04471q.26508-.02282.53007-.043c.03353-.00265.047-.01694.04076-.0492-.04342-.23351-.081-.46877-.13018-.70046-.04516-.21923-.10205-.43571-.15436-.65219C10.20676,16.87046,10.19513,16.82209,10.18349,16.77381Z"/><path class="cls-3" d="M9.11355,9.901c-.0099-.23343-.02061-.467-.02913-.70047-.00449-.09931-.00266-.09665.09711-.10554.21107-.02153.42315-.043.63469-.06449.115-.01072.23132-.02327.34849-.03216a.51014.51014,0,0,1,.548.4697c.02547.19861.03261.399.05048.59758a1.19846,1.19846,0,0,1-.00935.40173c-.0197.0841-.055.16371-.081.24515a.07912.07912,0,0,0,.00265.05992.81011.81011,0,0,1,.17.48041c.02775.41336.05368.82937.08006,1.24538.005.076.00449.076-.06935.08227-.0939.01081-.18743.0197-.28225.0251a.14185.14185,0,0,1-.07513-.02775.25912.25912,0,0,1-.10288-.22812c-.013-.28006-.03444-.55829-.05286-.83743-.00714-.11626-.01026-.23434-.02281-.35069a.17243.17243,0,0,0-.18652-.1682c-.13687.00183-.27374.01612-.41061.02327-.034.00265-.03.02592-.02913.04919.01566.31139.02959.621.04571.93042.01072.20219.02281.40529.03353.60931.00358.07247.00312.07421-.068.08145-.085.008-.16912.01428-.25322.025a.13743.13743,0,0,1-.11186-.03756.23141.23141,0,0,1-.09436-.17535c-.03-.637-.0644-1.27314-.09711-1.90921C9.13718,10.36093,9.12555,10.13007,9.11355,9.901Zm.522.12972H9.63464c.01026.19056.02016.38294.03.57441.00229.0295.00449.05543.04434.05186.13238-.01246.26476-.02144.39586-.03931a.21628.21628,0,0,0,.17892-.18973.67853.67853,0,0,0,.00045-.13778c-.01346-.22272-.02867-.44643-.04158-.671a.2184.2184,0,0,0-.2622-.22638c-.10692.00633-.21337.01888-.32028.02418-.04517.00184-.05588.01879-.05277.06176C9.61806,9.6622,9.62612,9.84561,9.63556,10.03076Z"/><path class="cls-3" d="M22.55659,18.48706c-.15519.01786-.30415.0349-.45312.05011a.03065.03065,0,0,1-.02684-.00449.41513.41513,0,0,1-.17452-.22189c-.04287-.19229-.10151-.37928-.15565-.56717a.05792.05792,0,0,0-.04471-.02776c-.13375.01255-.26659.02868-.39989.043-.10516.01072-.20979.02144-.31542.02858-.03573.00358-.04828.01613-.05057.05195q-.01937.24557-.04379.49113c-.009.09931-.02189.19688-.03307.29527-.00275.02593-.00989.0393-.03985.042-.0765.00623-.15208.017-.22812.025a.12588.12588,0,0,1-.11763-.11626c.02144-.20667.04288-.41244.06349-.621.01786-.17984.03353-.36232.05185-.54216.018-.18606.03674-.37121.05369-.55819.01795-.1879.03444-.37489.05057-.56278.02592-.29609.05185-.59319.07475-.88837.016-.19953.03-.4.04288-.5985.0054-.08593.00449-.08777.09262-.094.14-.01072.28052-.02327.421-.03215a.085.085,0,0,1,.05451.025,1.28386,1.28386,0,0,1,.1168.15116.504.504,0,0,1,.04517.12084q.19128.6508.38248,1.30346.27911.9596.55691,1.91726.0356.12341.0689.24965C22.5521,18.45756,22.55348,18.47093,22.55659,18.48706Zm-.96046-1.18721c-.14933-.51532-.297-1.02615-.4446-1.5379a.03063.03063,0,0,0-.01429.02327c-.02868.26394-.05955.52787-.085.79172-.02281.24249-.03985.48582-.05991.72648-.00275.04114.00806.0546.05011.05012.1704-.01521.34125-.02859.51129-.04389A.25585.25585,0,0,0,21.59613,17.29985Z"/><path class="cls-3" d="M19.41007,8.23974a.51344.51344,0,0,1,.05414-.01164c.32971-.0251.65979-.05817.99043-.07164a.58409.58409,0,0,1,.623.54134c.022.20933.05863.41509.09.62177a.97261.97261,0,0,1-.00449.45092.07577.07577,0,0,1-.0076.02318c-.04828.06715-.03.119.02281.179a.72952.72952,0,0,1,.14759.40795c.0448.31313.09308.62535.14044.93756.01393.09125.02776.17984.03985.27017a.45989.45989,0,0,1,.00092.07521c-.081.00623-.1606.01338-.23938.02052a.1838.1838,0,0,0-.03839.00092.1583.1583,0,0,1-.19147-.07512.2713.2713,0,0,1-.04388-.11186c-.03573-.23169-.06706-.46429-.09931-.69516-.02281-.16371-.03976-.32925-.06972-.493a.23727.23727,0,0,0-.29618-.21832c-.10426.0099-.20934.0197-.31533.026-.038.00174-.04434.01695-.03985.05011q.08121.60383.161,1.20681c.01521.11186.02776.22464.04425.33641.005.03316-.00806.04388-.03619.04745-.10691.00715-.2129.01521-.32027.02144a.095.095,0,0,1-.04608-.01878.33116.33116,0,0,1-.12973-.25679c-.02822-.25405-.06715-.50818-.10114-.76313-.0273-.20311-.05277-.408-.08053-.61106-.02995-.22271-.063-.44552-.09344-.66831-.02373-.17178-.04608-.34355-.06935-.51532-.02776-.20659-.0568-.41244-.0841-.62086C19.4141,8.29965,19.41318,8.2728,19.41007,8.23974Zm.89285.28986c-.10691.00888-.19632.01786-.28583.02144-.05011.00091-.06083.01786-.05414.06531.05322.373.10517.74436.15611,1.11649.00586.03765.02418.04654.05863.04388.11314-.00806.22591-.01521.33951-.02144a.18608.18608,0,0,0,.18433-.14676.37734.37734,0,0,0,.009-.14676c-.03363-.23169-.07165-.46338-.10655-.696a.23722.23722,0,0,0-.15785-.21383A.92028.92028,0,0,0,20.30292,8.5296Z"/><path class="cls-3" d="M19.10454,18.83867a.804.804,0,0,1-.45092-.10738.61792.61792,0,0,1-.27108-.42938c-.0393-.22546-.05451-.45632-.08007-.68535-.02812-.23975-.05588-.48134-.08456-.722q-.03957-.34615-.07869-.69067c-.02373-.1977-.05818-.39448-.06981-.5931a.69761.69761,0,0,1,.20219-.57349.51539.51539,0,0,1,.2971-.12259c.12523-.01786.25358-.02683.38065-.03939.0666-.00714.13283-.0152.20035-.01694a.5582.5582,0,0,1,.48051.221.66776.66776,0,0,1,.13009.35426c.03765.31048.07521.62.11232.93133.02995.24608.05909.49206.0895.73721.03756.306.07732.61106.11131.91787a1.97315,1.97315,0,0,1,.01347.29975.44809.44809,0,0,1-.196.32743.66683.66683,0,0,1-.36279.14493C19.37388,18.80916,19.21951,18.82612,19.10454,18.83867Zm.548-.69608c-.00852-.06706-.01749-.135-.026-.20392-.03976-.30068-.08136-.60217-.11846-.90275-.04883-.39724-.094-.79355-.14053-1.19078a1.79062,1.79062,0,0,0-.08273-.45715.26545.26545,0,0,0-.17177-.16106.68385.68385,0,0,0-.28538-.02143.33534.33534,0,0,0-.3091.38825c.03848.40081.0841.80161.12661,1.20242.04874.45623.0961.91163.14576,1.36878a.39918.39918,0,0,0,.27694.323.99239.99239,0,0,0,.33329-.00183.29669.29669,0,0,0,.16811-.093A.35538.35538,0,0,0,19.65256,18.14259Z"/><path class="cls-3" d="M22.36778,14.59087c.06889-.00806.13558-.01521.20136-.02154.29389-.02683.58953-.04735.8825-.08226a.58561.58561,0,0,1,.49343.17892.51883.51883,0,0,1,.13467.32568c.04379.29967.08584.59759.13018.89643.04691.32211.0939.64147.14136.96267.03619.24781.08227.4947.10691.74435a.74633.74633,0,0,1-.17315.60656.50008.50008,0,0,1-.331.14585c-.25991.02767-.52164.05094-.78191.07778-.04435.00449-.08814.01072-.13248.01521-.01246.00091-.03041.00449-.0371-.00266-.04782-.04562-.1136-.07338-.12258-.15482-.02372-.19853-.05414-.3954-.08272-.59219-.0273-.19779-.056-.39549-.08319-.59227-.02684-.19147-.05286-.38386-.08007-.5735-.03087-.21831-.06358-.43571-.094-.654-.0273-.19587-.05323-.39091-.07915-.58778q-.041-.30192-.08191-.60208C22.37538,14.65344,22.37227,14.62486,22.36778,14.59087Zm.90724.22454c-.14539.01255-.27109.02327-.39723.03307-.038.00275-.04874.018-.043.05552.01117.06972.01924.13861.02821.20842.0492.3713.097.74261.14851,1.113.03756.27639.08089.55371.12074.83111q.07312.50322.14494,1.00645c.00494.03674.01969.05369.05908.0492.08722-.01072.17581-.01429.263-.025.093-.01072.18653-.02153.27869-.03939a.19529.19529,0,0,0,.13907-.10911.41853.41853,0,0,0,.03316-.26128c-.01484-.10554-.03582-.212-.05194-.31579-.06661-.42857-.13376-.85621-.19816-1.28478-.03665-.23791-.068-.47766-.10242-.71567-.0175-.11718-.03491-.23352-.05992-.34978a.2239.2239,0,0,0-.20045-.18616A1.4539,1.4539,0,0,0,23.275,14.81541Z"/><path class="cls-3" d="M12.81781,12.40435c-.00174-.00091-.01658.00174-.02327-.00357-.06935-.06266-.16325-.10114-.18744-.20851-.03847-.17443-.08181-.34712-.12477-.51981-.02016-.08227-.01741-.07329-.09125-.06532-.2152.0197-.42984.04031-.645.05726a.05732.05732,0,0,0-.06221.05725c-.0371.23353-.07558.47062-.11268.70505-.013.08676-.01209.08676-.0962.09748a1.50019,1.50019,0,0,1-.16728.01347.15293.15293,0,0,1-.072-.02419c-.056-.03041-.05818-.07787-.04838-.136.07118-.42408.14008-.84907.20934-1.27406.06532-.399.12935-.7962.195-1.19609.0546-.33732.11186-.67189.166-1.00829.00531-.03041.01521-.0447.04736-.04745.14274-.01072.28593-.02593.42994-.03491a.11759.11759,0,0,1,.07247.03408.81141.81141,0,0,1,.09436.10819.1325.1325,0,0,1,.02547.05461c.085.34712.16783.69332.2523,1.03962q.15171.6159.30241,1.231c.08273.33192.16912.66475.25322.9984.00357.01521.00806.02867.01117.04122.00578.02767,0,.04288-.03224.04471C13.08532,12.37833,12.95605,12.39272,12.81781,12.40435Zm-.46521-1.20873c-.11451-.45-.2272-.8946-.33951-1.33746l-.01787.00266c-.01209.06981-.02556.13953-.03719.20934q-.0885.55283-.17581,1.10218c-.00934.05818-.00394.06624.05644.06175.11983-.00714.23929-.01695.35875-.02684C12.24615,11.20368,12.29534,11.2001,12.3526,11.19562Z"/><path class="cls-3" d="M18.40489,11.91587a.66358.66358,0,0,1-.65933-.544c-.02859-.1879-.04563-.37662-.06844-.56452-.0273-.23086-.05542-.46072-.08318-.688-.02061-.17443-.03985-.34712-.06083-.51981-.02015-.169-.043-.33814-.064-.50726-.02418-.19147-.04654-.38285-.0698-.57523-.004-.0295-.00587-.05992-.01072-.08859-.00587-.03133.01072-.04114.03618-.04379.08593-.00724.17223-.01613.25862-.0197.01833,0,.03839.01695.05726.02593l.00312.00357a.40016.40016,0,0,1,.12386.3167c.03673.31763.07558.63433.11323.951.04022.33375.07778.66649.11891.99931.02556.20934.056.41785.08282.62718a.30328.30328,0,0,0,.2742.27557.57081.57081,0,0,0,.27465.00083.28024.28024,0,0,0,.22235-.36233c-.0296-.18341-.05057-.36947-.07558-.55462-.02373-.17535-.04883-.34987-.0721-.52613-.02144-.16188-.04114-.32559-.06258-.48756-.02061-.15749-.04076-.31314-.06083-.4697-.02464-.18423-.04837-.36682-.07292-.55023-.01118-.0841-.0219-.16728-.03536-.25047-.009-.05909-.00715-.06531.05011-.07154.08547-.00807.17177-.01613.25761-.02154.01081-.00173.0273-.00173.03179.00541.04031.05277.10288.10288.1114.16106.0568.382.10069.76762.15034,1.14964.03353.26568.06889.53227.10242.798.03308.263.06349.52778.09931.789a.74878.74878,0,0,1-.01521.33192.47159.47159,0,0,1-.23663.2916.74543.74543,0,0,1-.3015.08685C18.68184,11.8926,18.54,11.90506,18.40489,11.91587Z"/><path class="cls-3" d="M14.28508,10.17844c.11222.00623.22454.00531.33548.01878a.39072.39072,0,0,1,.3605.34263c.02821.17269.04525.34538.06449.51889.02281.21649.04022.43388.06569.64862a.42691.42691,0,0,1-.15611.37845.56656.56656,0,0,1-.4151.15748,3.70088,3.70088,0,0,0-.42315.0438.61786.61786,0,0,1-.684-.53319c-.009-.10645-.01787-.21291-.02822-.31936a.04656.04656,0,0,1,.03271-.05552c.11186-.04379.22234-.09033.33365-.135.04654-.018.05414-.01439.05818.03838.00989.11635.02152.23352.02638.34987a.298.298,0,0,0,.27025.30864.63894.63894,0,0,0,.37571-.04388.2445.2445,0,0,0,.15794-.24149c.00082-.09573-.01072-.19413-.01924-.29078-.017-.18341-.04562-.365-.051-.54931a.29.29,0,0,0-.33951-.28895c-.13779.00266-.27512.00715-.412.00532a.57129.57129,0,0,1-.54124-.38734,1.10921,1.10921,0,0,1-.03491-.2425c-.01786-.18963-.034-.382-.04791-.57166a.60825.60825,0,0,1,.21739-.544.49365.49365,0,0,1,.26486-.10105c.21694-.02153.43305-.03756.65091-.05195a.59209.59209,0,0,1,.34.07971.29931.29931,0,0,1,.15693.23791c.0175.17086.03133.34181.04791.51267.00449.042-.00852.06083-.05057.076-.10553.03582-.20841.07961-.31313.119-.05726.02236-.06257.01878-.06889-.03939-.01521-.13953-.029-.28-.04608-.4205-.01787-.14851-.068-.203-.21465-.22546a.72509.72509,0,0,0-.382.043.26384.26384,0,0,0-.166.27558c.017.20933.034.4205.05057.63157a.24374.24374,0,0,0,.15831.22106.627.627,0,0,0,.1857.04022c.07915.00623.15968.00183.24021.00183Z"/><path class="cls-3" d="M22.702,9.02614c-.013-.0797-.02684-.15748-.03985-.23535-.01072-.068-.01924-.136-.03307-.20311a.33824.33824,0,0,0-.27732-.24506.58818.58818,0,0,0-.30424.03573.226.226,0,0,0-.15748.26934c.04745.36324.10471.72557.15885,1.08606q.07586.50061.15208,1.00023c.01209.0841.02547.16728.03848.25056a.30439.30439,0,0,0,.22637.25853.64.64,0,0,0,.369.00449.25654.25654,0,0,0,.18029-.29792c-.02913-.19147-.05506-.38561-.085-.57708a.27617.27617,0,0,0-.212-.24249c-.04076-.01072-.081-.01878-.12175-.02593-.02455-.00531-.03839-.01429-.04159-.042-.0098-.08052-.02281-.161-.03573-.24066-.00449-.03133.01383-.034.03664-.03573.10114-.00724.20128-.01521.302-.0197l.225-.01347a.168.168,0,0,1,.17315.13422q.06238.37845.12432.7569c.01969.1234.03893.24873.06083.37305a.462.462,0,0,1-.43342.53318c-.15886.00806-.31808.0251-.4773.03582a.63835.63835,0,0,1-.68618-.52787c-.03271-.2523-.08053-.50277-.12038-.75507-.0371-.23435-.072-.4697-.10828-.70322-.04068-.263-.08319-.52778-.12213-.79355a1.02815,1.02815,0,0,1-.012-.398.48413.48413,0,0,1,.428-.36242c.16554-.01164.33154-.0241.49745-.03481a.79933.79933,0,0,1,.33457.04562.447.447,0,0,1,.29307.398c.01429.12166.03573.24342.05588.36508.00761.04471,0,.07247-.05011.08859-.10288.034-.20347.07247-.30553.10911A.141.141,0,0,1,22.702,9.02614Z"/><path class="cls-3" d="M18.44429,19.47391c.09307-.0099.18029-.018.26705-.02684q.44895-.043.89688-.085c.25679-.02419.51313-.04562.769-.06981.27639-.02776.55288-.05634.82937-.0841.18826-.017.37524-.03307.5636-.05185.20622-.01878.4129-.04114.61912-.06267.20035-.02052.40034-.04021.6007-.06083.19642-.02061.39366-.04021.59008-.06174.16728-.01787.33365-.03491.50011-.05277.13458-.01429.26971-.0295.40438-.04471a.11343.11343,0,0,1,.10691.03756.46141.46141,0,0,1,.10242.34172c.00092.009-.01924.02684-.03179.02867-.08364.01255-.16728.025-.25093.03491-.18881.02143-.37845.04021-.5668.06174-.187.02052-.37433.04288-.561.06349q-.28775.03352-.57523.06624c-.13641.01337-.27328.02592-.41015.04113-.1682.017-.33558.03665-.50414.05543-.162.017-.32431.03316-.48583.05011-.20173.02153-.40346.04388-.60436.06532-.20577.02061-.41061.03848-.61591.05991-.17269.01878-.34584.03848-.51853.05552-.17352.017-.34666.03133-.51972.04828-.14814.017-.29572.03133-.44331.04745a.10539.10539,0,0,1-.11635-.08144C18.4725,19.72612,18.45949,19.60537,18.44429,19.47391Z"/><path class="cls-3" d="M6.92291,9.43052c0-.02245.00046-.0394,0-.05726-.00266-.07522-.00174-.07787.07164-.08593.35692-.03042.71348-.05992,1.0704-.09125q.257-.02281.51487-.051a.1807.1807,0,0,1,.21657.18973c.00082.04654.00311.093.00623.13861.00357.042-.01256.05909-.05635.06266-.16554.01256-.33145.03134-.49745.04563-.03894.00357-.05414.017-.05323.05909.0098.246.01658.49205.02593.738.00806.22811.01658.45449.02592.68086q.033.81587.06807,1.631c.00486.11809.00669.11809-.10691.12972-.10783.01246-.21657.02318-.32431.034a.1862.1862,0,0,1-.16417-.14053c-.01658-.33008-.03316-.66108-.04837-.99125q-.024-.53139-.04516-1.06106c-.0121-.31578-.021-.63249-.03042-.94919-.0022-.04389-.0098-.06533-.06348-.06083-.15566.01612-.31186.02409-.46879.03572A.12353.12353,0,0,1,6.93372,9.579C6.9274,9.52708,6.92657,9.477,6.92291,9.43052Z"/><path class="cls-3" d="M14.46894,19.13751c.00129.16279.02281.136-.10828.14942-.23664.02592-.47327.04562-.71082.06614q-.30522.02817-.61106.051a.1383.1383,0,0,1-.07155-.02593c-.09216-.05725-.09125-.15125-.09885-.24515-.02061-.26577-.04425-.5341-.06669-.80253q-.02942-.36237-.05946-.72557c-.02144-.25945-.04425-.51889-.06486-.77834-.01832-.23078-.03353-.46164-.051-.69332-.01567-.20851-.03087-.41959-.04782-.62984-.00449-.04654.01209-.06083.0568-.06358.0939-.00531.1879-.01695.28226-.02144a.11071.11071,0,0,1,.077.03308.77932.77932,0,0,1,.12029.15391.37729.37729,0,0,1,.02639.144c.02152.26934.03984.54125.06046.81233q.03284.4161.06752.83028.04768.57977.097,1.15679c.00724.08768.02419.17444.03179.26036.00312.04023.02281.04288.05369.04023l.4773-.04023c.11451-.009.229-.01877.34355-.02509a.08134.08134,0,0,1,.05057.02326c.01832.01879.0295.043.047.06175A.35952.35952,0,0,1,14.46894,19.13751Z"/><path class="cls-3" d="M9.51655,20.75951c-.11094.00357-.14759-.02868-.15611-.12441-.00852-.09482-.0152-.19056-.0251-.28629-.00311-.034.00806-.04645.04077-.0492q.37309-.02817.74527-.05817c.29792-.0241.59539-.0492.89331-.07329.178-.01521.35692-.026.53493-.04123.209-.01695.41693-.03664.62544-.05451.15739-.01438.31533-.02684.47281-.03939.19907-.01786.39806-.0349.59667-.05277.20091-.017.40126-.03582.60171-.05368.18872-.01787.378-.03757.56763-.05635a.13509.13509,0,0,1,.13064.11452c.01072.09748.01787.19413.0273.2916.00221.02684-.01035.03848-.03535.03848-.14631.01429-.29216.02593-.43929.04113-.18836.017-.378.03582-.56681.05286-.16233.01521-.32467.02859-.48664.0438-.19724.017-.39458.03673-.59182.0546-.15565.01429-.3113.02592-.46787.04021q-.3603.0323-.72025.06441c-.16142.01521-.32156.02684-.48216.04122-.17361.01521-.34712.03124-.51981.04563-.12615.01071-.2523.02143-.37845.03041C9.7563,20.73981,9.62924,20.74961,9.51655,20.75951Z"/><path class="cls-3" d="M11.56574,15.53558c.03894-.00532.0765-.01164.11406-.01521.08144-.00715.16243-.01164.24378-.02144a.09462.09462,0,0,1,.081.03756.50612.50612,0,0,1,.124.34895c.01612.33815.04654.67629.07063,1.0136.018.25771.03445.51441.0524.7712q.03078.44962.064.89909l.05771.82222c.00532.07338.0044.07338-.07246.08144-.08456.00889-.1682.017-.25276.025a.15748.15748,0,0,1-.18606-.14584c-.00944-.0787-.01485-.15831-.02108-.23884-.01878-.24332-.038-.48582-.05634-.731-.01392-.18066-.02684-.36232-.04067-.5439-.01842-.22811-.0372-.45623-.05415-.68352-.0152-.1879-.02821-.37579-.042-.56452-.018-.22729-.03673-.45357-.05414-.68261C11.58361,15.787,11.57518,15.6653,11.56574,15.53558Z"/><path class="cls-4" d="M16.45373,14.921a1.355,1.355,0,0,1,.19458.043.265.265,0,0,1,.174.23884c.04031.38834.07833.7766.11717,1.16485a1.81031,1.81031,0,0,1,.017.20311.26229.26229,0,0,1-.13687.24781.3984.3984,0,0,1-.14044.04113c-.1857.01878-.37268.03225-.55874.04746-.0613.00449-.0613.00357-.06753-.05552-.03362-.34171-.06889-.68343-.10251-1.027-.021-.21565-.03976-.43213-.06037-.64779-.00449-.04919-.00935-.09839-.016-.14759-.00541-.03939-.00092-.06174.04827-.06532C16.0882,14.95411,16.25328,14.938,16.45373,14.921Z"/><path class="cls-4" d="M7.0312,16.331c-.00761-.1682-.01429-.3364-.02456-.50277-.00229-.043.01155-.06.055-.0645.196-.01337.39146-.03573.58733-.04379a.24426.24426,0,0,1,.2523.2272c.01658.17718.02822.35253.03939.52879.01613.25679.0295.51266.04563.76761a.41318.41318,0,0,1-.077.31222.3211.3211,0,0,1-.20621.11c-.10692.01878-.21521.02593-.3234.03756-.076.00632-.153.01081-.229.01878-.03939.00449-.05726-.00439-.05909-.05-.01649-.39457-.03573-.78915-.05414-1.18363-.0022-.052-.00532-.10563-.00843-.15748Z"/><path class="cls-4" d="M16.36514,10.42442a1.29925,1.29925,0,0,1,.17535.01255.16184.16184,0,0,1,.1387.15565q.04561.41061.09253.82314a.19253.19253,0,0,1-.17132.23883c-.14759.02419-.29792.03308-.44734.04828-.03261.00357-.04563-.01246-.0492-.04287-.029-.24873-.05854-.49572-.08767-.74261-.01521-.13064-.03133-.26036-.04654-.39092-.00761-.06889-.00623-.06623.06046-.07246C16.13208,10.44677,16.23358,10.43606,16.36514,10.42442Z"/><path class="cls-4" d="M16.24614,8.8409h.02418c.144,0,.18744.04031.2053.18167.03619.28179.07339.56451.11049.8454a.14422.14422,0,0,1-.1333.187c-.12926.017-.26082.02327-.39182.034-.02511.00265-.051.00448-.07613.009-.034.00715-.04966-.00183-.0536-.03847-.03893-.34712-.07787-.6925-.11726-1.03962-.00357-.03665-.00623-.07338-.01164-.10911-.00485-.02868.00678-.03756.03271-.0394.13687-.01072.2742-.02235.41107-.03307Z"/><path class="cls-4" d="M10.18349,16.77381c.01164.04828.02327.09665.03491.14585.05231.21648.1092.433.15436.65219.0492.23169.08676.46695.13018.70046.00624.03226-.00723.04655-.04076.0492q-.26494.02021-.53007.043c-.03756.00266-.04334-.01072-.03756-.04471.05148-.28271.10022-.56543.1507-.84907.03985-.2227.08016-.44459.11992-.66913l.00623-.0251Z"/><path class="cls-4" d="M9.63556,10.03076c-.00944-.18515-.0175-.36856-.02822-.552-.00311-.043.0076-.05992.05277-.06176.10691-.0053.21336-.01785.32028-.02418a.2184.2184,0,0,1,.2622.22638c.01291.22454.02812.44825.04158.671a.67853.67853,0,0,1-.00045.13778.21628.21628,0,0,1-.17892.18973c-.1311.01787-.26348.02685-.39586.03931-.03985.00357-.042-.02236-.04434-.05186-.0098-.19147-.0197-.38385-.03-.57441Z"/><path class="cls-4" d="M21.59613,17.29985a.25585.25585,0,0,1-.04242.0098c-.17.0153-.34089.02868-.51129.04389-.042.00448-.05286-.009-.05011-.05012.02006-.24066.0371-.484.05991-.72648.02547-.26385.05634-.52778.085-.79172a.03063.03063,0,0,1,.01429-.02327C21.29912,16.2737,21.4468,16.78453,21.59613,17.29985Z"/><path class="cls-4" d="M20.30292,8.5296a.92028.92028,0,0,1,.14319.02235.23722.23722,0,0,1,.15785.21383c.0349.2326.07292.46429.10655.696a.37734.37734,0,0,1-.009.14676.18608.18608,0,0,1-.18433.14676c-.1136.00623-.22637.01338-.33951.02144-.03445.00266-.05277-.00623-.05863-.04388-.05094-.37213-.10289-.74344-.15611-1.11649-.00669-.04745.004-.0644.05414-.06531C20.1066,8.54746,20.196,8.53848,20.30292,8.5296Z"/><path class="cls-4" d="M19.65256,18.14259a.35538.35538,0,0,1-.08327.25057.29669.29669,0,0,1-.16811.093.99239.99239,0,0,1-.33329.00183.39918.39918,0,0,1-.27694-.323c-.04966-.45715-.097-.91255-.14576-1.36878-.04251-.40081-.08813-.80161-.12661-1.20242a.33534.33534,0,0,1,.3091-.38825.68385.68385,0,0,1,.28538.02143.26545.26545,0,0,1,.17177.16106,1.79062,1.79062,0,0,1,.08273.45715c.04654.39723.0917.79354.14053,1.19078.0371.30058.0787.60207.11846.90275C19.63507,18.00755,19.644,18.07553,19.65256,18.14259Z"/><path class="cls-4" d="M23.275,14.81541a1.4539,1.4539,0,0,1,.16233.0098.2239.2239,0,0,1,.20045.18616c.025.11626.04242.2326.05992.34978.03444.238.06577.47776.10242.71567.0644.42857.13155.85621.19816,1.28478.01612.10379.0371.21025.05194.31579a.41853.41853,0,0,1-.03316.26128.19529.19529,0,0,1-.13907.10911c-.09216.01786-.1857.02867-.27869.03939-.08721.01072-.1758.01429-.263.025-.03939.00449-.05414-.01246-.05908-.0492q-.07174-.50322-.14494-1.00645c-.03985-.2774-.08318-.55472-.12074-.83111-.05149-.37039-.09931-.7417-.14851-1.113-.009-.06981-.017-.1387-.02821-.20842-.00577-.03756.00494-.05277.043-.05552C23.00393,14.83868,23.12963,14.828,23.275,14.81541Z"/><path class="cls-4" d="M12.3526,11.19562c-.05726.00448-.10645.00806-.15519.01163-.11946.00989-.23892.0197-.35875.02684-.06038.00449-.06578-.00357-.05644-.06175q.08727-.55022.17581-1.10218c.01163-.06981.0251-.13953.03719-.20934l.01787-.00266C12.1254,10.301,12.23809,10.74561,12.3526,11.19562Z"/></svg>