<svg xmlns="http://www.w3.org/2000/svg" width="200" height="200" viewBox="0 0 200 200">
  <path class="color-red color-main" fill="#ff0000" d="M 100 -5 A 105 105 0 0 0 -5 100 A 105 105 0 0 0 100 205 A 105 105 0 0 0 205 100 A 105 105 0 0 0 100 -5 z M 161.66797 54.708984 C 162.05475 54.723273 162.46206 54.750957 162.89258 54.792969 C 166.43852 55.139004 167.29452 55.90765 167.6582 59.068359 C 167.97478 61.819748 167.47347 62.919922 165.90625 62.919922 C 164.69949 62.919922 163.71289 61.973949 163.71289 60.818359 C 163.71289 59.662765 162.71681 58.716797 161.5 58.716797 C 159.84174 58.716797 159.47322 59.683089 160.02539 62.570312 C 160.43057 64.688896 161.16601 69.10082 161.66016 72.375 C 162.22898 76.14392 163.28485 78.328125 164.53711 78.328125 C 166.95091 78.328125 167.14565 73.915166 164.83398 71.603516 C 163.56083 70.330376 163.5453 69.528961 164.77344 68.300781 C 167.75731 65.316906 170.90796 69.659909 170.43555 76.105469 C 170.04983 81.368029 169.6684 81.86228 165.69531 82.25 C 163.28757 82.48496 160.67526 81.831817 159.79688 80.773438 C 158.92979 79.728657 157.512 74.308899 156.64648 68.730469 C 154.91324 57.559439 155.86629 54.49465 161.66797 54.708984 z M 145.06836 55.916016 C 151.57791 55.916016 153.9082 57.856974 153.9082 63.279297 C 153.9082 65.480455 154.61048 70.070016 155.46875 73.478516 C 157.33548 80.891986 156.31702 85.109601 153.27148 82.582031 C 152.16953 81.667501 151.07502 78.967158 150.83789 76.580078 C 150.60077 74.193008 149.62279 71.982029 148.66602 71.667969 C 147.36845 71.242059 147.15065 72.727772 147.80664 77.513672 C 148.54778 82.920922 148.31779 83.929688 146.34961 83.929688 C 145.06512 83.929688 143.77155 83.142678 143.47266 82.179688 C 143.17376 81.216688 142.54061 76.961779 142.06641 72.724609 C 141.59221 68.487449 140.84054 62.97253 140.39648 60.46875 C 139.59879 55.971104 139.65556 55.916016 145.06836 55.916016 z M 136.21875 57.316406 C 137.47385 57.316406 138.5 57.900584 138.5 58.615234 C 138.5 59.329883 139.18239 64.815955 140.01562 70.806641 C 141.38626 80.661141 141.29336 81.872955 139.04688 83.515625 C 135.78654 85.899645 132.18227 85.817021 129.66602 83.300781 C 128.54373 82.178491 127.20855 77.009361 126.67969 71.744141 C 126.15347 66.505091 125.38513 61.057673 124.97266 59.638672 C 124.40868 57.698436 124.86347 57.180609 126.80859 57.550781 C 128.91714 57.952076 129.655 60.107511 130.79688 69.216797 C 131.9497 78.413397 132.66292 80.481038 134.83398 80.898438 C 136.97564 81.310187 137.32239 80.786564 136.67188 78.115234 C 136.23121 76.305594 135.43422 70.885273 134.90234 66.070312 C 134.06811 58.518157 134.25016 57.316406 136.21875 57.316406 z M 108.75586 58.716797 L 115.17383 58.716797 C 122.99515 58.716797 123.80994 59.9409 125.17383 73.755859 C 126.16806 83.826509 126.15041 83.90234 122.44141 85.3125 C 116.16674 87.698128 112.27291 87.084636 111.44531 83.580078 C 111.03597 81.846698 110.26361 75.542826 109.72852 69.572266 L 108.75586 58.716797 z M 100.67383 59.595703 C 104.37821 59.579807 108.15391 61.553447 107.48633 64.998047 C 106.77335 68.676877 103.97944 69.171694 103.0918 65.777344 C 101.9538 61.425616 99.279297 62.368242 99.279297 67.121094 C 99.279297 70.821804 99.763305 71.324219 103.33203 71.324219 C 107.84862 71.324219 109.08594 73.294631 109.08594 80.494141 C 109.08594 87.417259 102.01929 90.671649 97.279297 85.931641 C 95.278267 83.930621 95.078125 83.930621 95.078125 85.931641 C 95.078125 89.149789 89.932499 88.634546 89.068359 85.330078 C 88.087439 81.579018 84.181101 81.753146 83.619141 85.572266 C 83.064691 89.340294 79.672896 90.734129 79.660156 87.199219 C 79.655156 85.786831 80.400246 79.70622 81.316406 73.6875 C 82.537296 65.66673 83.667419 62.378763 85.542969 61.375 C 88.512349 59.785836 89.450744 61.593141 92.302734 74.375 C 93.910094 81.57876 94.283919 82.122331 96.261719 80.144531 C 98.239519 78.166731 98.571214 78.242272 99.777344 80.945312 C 101.91845 85.743732 105.13454 84.702193 104.62109 79.376953 C 104.25313 75.560633 103.54795 74.75244 100.25781 74.375 C 95.855876 73.87001 92.991919 68.646774 94.287109 63.486328 C 94.955251 60.824246 97.792645 59.608067 100.67383 59.595703 z M 147.60547 60.117188 C 146.20476 60.117188 145.50391 61.518879 145.50391 64.320312 C 145.50391 67.12174 146.20476 68.521484 147.60547 68.521484 C 149.00619 68.521484 149.70508 67.12174 149.70508 64.320312 C 149.70508 61.518878 149.00619 60.117187 147.60547 60.117188 z M 40.753906 60.896484 C 45.31227 60.903006 45.412987 61.451589 45.806641 65.574219 C 46.079741 68.434279 45.52176 70.798619 44.40625 71.505859 C 41.35934 73.437639 40.449219 72.912796 40.449219 69.222656 C 40.449219 66.636636 39.706749 65.720703 37.605469 65.720703 C 34.192399 65.720703 32.826658 68.659404 34.023438 73.427734 C 34.736668 76.269464 35.763324 76.925781 39.496094 76.925781 C 42.023714 76.925781 44.848968 77.682952 45.773438 78.607422 C 47.695617 80.529602 48.019218 94.877044 46.205078 97.740234 C 44.250818 100.82458 33.000849 101.49303 30.199219 98.691406 C 27.226449 95.718636 27.144424 90.100692 30.058594 88.982422 C 33.916384 87.502052 34.847656 88.037112 34.847656 91.732422 C 34.847656 94.663752 35.431267 95.247353 37.998047 94.882812 C 39.731427 94.636652 41.086806 93.648537 41.009766 92.685547 C 40.932766 91.722557 40.775746 89.043602 40.660156 86.732422 C 40.476936 83.067794 39.925036 82.529297 36.347656 82.529297 C 30.568046 82.529297 27.84375 79.216976 27.84375 72.191406 C 27.84375 63.589732 30.258982 61.038257 38.513672 60.917969 C 39.360652 60.905626 40.102711 60.895553 40.753906 60.896484 z M 116.78906 61.519531 C 115.38834 61.519531 114.6875 62.919267 114.6875 65.720703 C 114.6875 68.522133 115.38834 69.923828 116.78906 69.923828 C 118.18977 69.923828 118.89062 68.522133 118.89062 65.720703 C 118.89062 62.919267 118.18977 61.519531 116.78906 61.519531 z M 70.972656 62.068359 C 75.189262 61.867981 76.645908 65.681408 77.568359 77.40625 C 78.478269 88.971678 78.371518 89.759111 75.955078 89.300781 C 74.089468 88.946931 73.245051 87.346827 72.931641 83.568359 C 72.314121 76.123729 69.865234 77.053242 69.865234 84.732422 C 69.865234 90.07717 69.459233 91.061015 67.414062 90.671875 C 65.396682 90.288025 64.838119 88.227402 64.261719 79.027344 C 63.685329 69.827274 63.128718 67.766662 61.111328 67.382812 C 58.922638 66.966352 58.660156 68.27718 58.660156 79.625 C 58.660156 89.282148 58.210116 92.333984 56.791016 92.333984 C 55.763816 92.333984 54.503824 91.914001 53.990234 91.400391 C 53.476634 90.886791 53.056641 85.528891 53.056641 79.494141 C 53.056641 69.455681 52.818849 68.521484 50.255859 68.521484 C 45.847219 68.521484 46.833427 64.355861 51.304688 64.091797 C 63.413387 63.376677 66.066464 63.122488 68.990234 62.388672 C 69.711759 62.20758 70.370284 62.096985 70.972656 62.068359 z M 70.566406 65.720703 C 69.102606 65.720703 68.464844 67.195188 68.464844 70.580078 C 68.464844 74.323308 68.947646 75.252029 70.566406 74.630859 C 71.764066 74.171269 72.666016 72.083328 72.666016 69.773438 C 72.666016 67.105217 71.949856 65.720703 70.566406 65.720703 z M 86.130859 70.623047 L 85.222656 74.125 C 84.187756 78.11186 85.007516 80.553011 86.785156 78.775391 C 87.443366 78.117181 87.565701 76.014252 87.056641 74.101562 L 86.130859 70.623047 z M 117.73242 74.125 C 115.68602 74.125 115.29582 74.967515 115.78906 78.328125 C 116.13427 80.680125 117.2626 82.529297 118.34961 82.529297 C 119.57368 82.529297 120.29102 80.976675 120.29102 78.328125 C 120.29102 75.192585 119.64176 74.125 117.73242 74.125 z M 167.0918 85.59375 C 172.75636 85.693008 173.80415 86.535612 172.84961 88.080078 C 172.49887 88.647648 166.04508 89.539407 158.50781 90.060547 C 143.00885 91.132167 69.192263 97.503548 56.908203 98.830078 C 50.178933 99.556748 48.853516 99.341941 48.853516 97.519531 C 48.853516 94.828341 48.441907 94.879374 116.78906 88.990234 C 144.89365 86.5686 159.80879 85.466133 167.0918 85.59375 z M 115.91797 102.13867 C 126.14461 102.13867 127.62877 103.70411 128.29688 115.18945 C 128.57399 119.95316 129.41847 127.93577 130.17383 132.92969 C 131.67962 142.88512 131.24399 145.5625 128.12109 145.5625 C 125.15733 145.5625 124.19024 143.37595 123.23633 134.52344 C 122.56734 128.31508 121.83818 126.57869 119.72656 126.17383 C 117.24359 125.69778 117.12229 126.33603 117.9707 135.46484 C 118.73241 143.66054 118.51936 145.40358 116.66992 146.11328 C 113.72766 147.24232 113.61272 147.22113 112.43555 145.31641 C 111.52519 143.84344 107.94715 113.21375 107.75977 105.29102 C 107.69067 102.37171 108.29199 102.13867 115.91797 102.13867 z M 169.41211 103.15234 C 171.42593 103.15371 173.30053 103.52319 174.14258 104.36523 C 176.72604 106.94869 179.49929 128.71152 177.54492 131.06641 C 175.57087 133.44499 166.61273 133.55156 165.88086 131.20508 C 165.213 129.06383 162.3125 108.3618 162.3125 105.73633 C 162.3125 104.17014 166.05573 103.15006 169.41211 103.15234 z M 154.95117 104.9082 C 155.9416 104.90332 156.70898 105.05466 156.70898 105.41406 C 156.70898 105.67392 158.54945 112.01578 160.79883 119.50781 C 164.08964 130.46864 164.51302 133.27386 162.9668 133.86719 C 160.46715 134.82638 158.10938 133.32366 158.10938 130.77148 C 158.10938 127.43599 152.75767 128.37137 152.25391 131.79492 C 152.00775 133.46796 150.96448 135.11531 149.93359 135.45508 C 148.40691 135.95827 148.24296 133.37952 149.05664 121.55664 C 149.60607 113.57325 150.32973 106.56995 150.66406 105.99219 C 151.03098 105.35807 153.30045 104.91634 154.95117 104.9082 z M 138.33594 105.56055 C 142.61259 105.42444 143.89178 108.90277 145.12305 119.95508 C 146.68894 134.01095 146.01131 135.75586 138.99414 135.75586 C 135.27367 135.75586 133.95285 135.0305 132.9707 132.44727 C 132.27877 130.62735 131.5059 124.22357 131.25391 118.2168 L 130.79688 107.29688 L 134.86133 106.18359 C 136.20383 105.8159 137.34902 105.59196 138.33594 105.56055 z M 168.92969 106.3418 C 166.39588 106.3418 166.2356 106.98459 167.08398 113.69531 C 168.94463 128.4132 169.49296 130.1543 172.27344 130.1543 C 173.73453 130.1543 174.91797 129.17746 174.91797 127.97266 C 174.91797 126.77288 174.19578 121.41495 173.3125 116.06641 C 171.95471 107.84468 171.27719 106.3418 168.92969 106.3418 z M 117.63867 106.47852 C 115.29787 106.66744 114.45881 109.74014 115.29883 115.3418 C 115.82739 118.86646 116.48479 121.75 116.75977 121.75 C 117.03475 121.75 118.25796 121.36595 119.47656 120.89844 C 122.5686 119.71191 122.5846 107.9977 119.49609 106.8125 C 118.79796 106.5446 118.17886 106.43492 117.63867 106.47852 z M 52.275391 107.95898 C 56.443508 107.87926 58.853449 108.38893 59.804688 109.53516 C 60.680557 110.59053 61.69603 117.61113 62.0625 125.13672 C 62.42895 132.66232 63.145197 141.59728 63.654297 144.99219 C 64.539177 150.89292 64.426672 151.16406 61.070312 151.16406 C 56.891013 151.16406 55.857422 148.96922 55.857422 140.07812 C 55.857422 132.72877 55.182886 131.36324 52.128906 132.53516 C 50.559326 133.13749 50.156479 135.5096 50.417969 142.59375 C 50.730579 151.06214 50.505842 151.90243 47.826172 152.29688 C 45.951452 152.57271 44.632695 151.81401 44.171875 150.19531 C 43.775285 148.80222 43.24737 138.83824 43 128.05273 L 42.550781 108.44336 L 50.380859 108.0293 C 51.049016 107.99402 51.679945 107.97037 52.275391 107.95898 z M 136.87891 109.14258 C 134.20991 109.14258 134.11151 109.72436 135.04883 119.99805 C 136.18138 132.41171 136.5037 133.28783 139.68164 132.62695 C 141.14914 132.32188 141.93631 130.87892 141.82227 128.69922 C 141.72307 126.80345 141.20397 121.62704 140.66992 117.19727 C 139.84813 110.38064 139.26575 109.14258 136.87891 109.14258 z M 92.257812 109.84375 C 94.571943 109.84375 94.561099 109.79829 95.787109 124.59961 C 96.639239 134.88641 96.754597 135.15242 100.38281 135.10547 C 102.83171 135.07347 104.2744 135.89509 104.59766 137.50781 C 105.00759 139.55287 104.04114 139.95898 98.765625 139.95898 C 95.287825 139.95898 92.154988 139.48601 91.804688 138.9082 C 91.454397 138.33044 90.944835 131.55549 90.671875 123.85156 C 90.257975 112.16934 90.521453 109.84375 92.257812 109.84375 z M 84.509766 110.54297 C 86.815996 110.54297 87.613223 114.43882 88.595703 130.50391 C 89.190103 140.22336 88.997778 141.35938 86.767578 141.35938 C 84.714438 141.35938 84.120786 139.69761 83.384766 131.9043 C 81.907826 116.26603 82.209416 110.54297 84.509766 110.54297 z M 70.765625 112.01367 C 71.322021 112.01367 72.089949 112.07419 72.933594 112.19727 C 75.526134 112.57541 76.356502 114.27258 78.294922 123.15039 C 79.556502 128.92831 81.024081 135.38921 81.556641 137.50781 C 82.384231 140.79996 82.095616 141.35937 79.566406 141.35938 C 77.785166 141.35938 76.314007 140.24484 75.873047 138.55859 C 74.875417 134.74362 70.183501 134.9239 69.613281 138.79883 C 68.987781 143.04977 65.661652 143.82931 65.664062 139.72461 C 65.665063 137.92703 66.610192 131.09915 67.763672 124.55078 C 68.917152 118.00246 69.862231 112.44343 69.863281 112.19727 C 69.863781 112.07419 70.209229 112.01367 70.765625 112.01367 z M 50.630859 113.49609 C 49.008006 113.58839 48.853516 114.93542 48.853516 120.34961 C 48.853516 127.01343 49.088299 127.51396 52.005859 127.09961 C 54.740979 126.71096 55.158203 125.81982 55.158203 120.34961 C 55.158203 114.87936 54.740969 113.98608 52.005859 113.59766 C 51.458817 113.51999 51.005364 113.47479 50.630859 113.49609 z M 153.37695 116.87109 C 152.85193 116.92964 152.50781 117.97467 152.50781 120.06836 C 152.50781 123.20446 153.16703 124.55078 154.70312 124.55078 C 156.32823 124.55078 156.65012 123.73127 155.94531 121.39844 C 155.02434 118.35014 154.05198 116.79582 153.37695 116.87109 z M 71.962891 122.49414 C 71.606126 122.44557 71.364897 123.62623 71.048828 126.30273 C 70.612778 129.99545 70.968717 131.55469 72.248047 131.55469 C 73.248947 131.55469 74.0229 130.45172 73.96875 129.10352 C 73.91455 127.75532 73.375121 125.39234 72.769531 123.85156 C 72.432897 122.99507 72.17695 122.52328 71.962891 122.49414 z M 176.1582 135.91211 C 179.8888 135.88416 180.52148 136.47576 180.52148 137.66602 C 180.52148 139.5238 173.88644 140.5588 142.35156 143.62695 C 134.15245 144.42465 132.89648 144.24367 132.89648 142.25391 C 132.89648 140.99189 133.05546 139.94572 133.24805 139.92969 C 133.44063 139.91139 142.42152 138.98788 153.20703 137.87109 C 165.59861 136.58802 172.42761 135.94005 176.1582 135.91211 z M 102.71875 142.88477 C 104.40308 142.95138 104.88281 143.46444 104.88281 144.57031 C 104.88281 147.16966 101.40626 147.94654 84.572266 149.11133 C 77.638726 149.59109 70.974992 150.25654 69.763672 150.58984 C 68.552362 150.92322 67.133398 150.76809 66.611328 150.24609 C 63.507748 147.14251 66.411521 145.86862 78.619141 144.97656 C 85.745281 144.45584 94.571099 143.66309 98.230469 143.21484 C 100.26494 142.96561 101.70815 142.8448 102.71875 142.88477 z "/>
  <path class="color-yellow" fill="#fcea18" d="m 44.171794,150.19574 c -0.39659,-1.39309 -0.92347,-11.35742 -1.17084,-22.14293 l -0.44975,-19.61002 7.83014,-0.41331 c 5.34525,-0.28223 8.33551,0.19547 9.42264,1.50544 0.87587,1.05537 1.89234,8.07614 2.25881,15.60173 0.36645,7.5256 1.08285,16.46059 1.59195,19.8555 0.88488,5.90073 0.77103,6.17255 -2.58533,6.17255 -4.1793,0 -5.21141,-2.19573 -5.21141,-11.08683 0,-7.34936 -0.6746,-8.71391 -3.72858,-7.54199 -1.56958,0.60233 -1.97328,2.97453 -1.71179,10.05868 0.31261,8.46839 0.0884,9.30788 -2.59127,9.70233 -1.87472,0.27584 -3.19373,-0.48236 -3.65455,-2.10106 z m 10.98583,-29.84686 c 0,-5.47025 -0.4165,-6.3624 -3.15161,-6.75082 -2.91756,-0.41422 -3.15161,0.0872 -3.15161,6.75082 0,6.66382 0.23405,7.16517 3.15161,6.75082 2.73512,-0.38865 3.15161,-1.28061 3.15161,-6.75082 z m 11.45458,29.89732 c -3.10358,-3.10358 -0.20021,-4.37784 12.00741,-5.2699 7.12614,-0.52072 15.95065,-1.31358 19.61002,-1.76183 5.425256,-0.66462 6.653396,-0.41421 6.653396,1.35519 0,2.59935 -3.47638,3.37669 -20.310376,4.54148 -6.93354,0.47976 -13.59752,1.14497 -14.80884,1.47827 -1.21131,0.33338 -2.62954,0.17902 -3.15161,-0.34298 z m 45.823086,-4.92989 c -0.91036,-1.47297 -4.48891,-32.10242 -4.67629,-40.02515 -0.0691,-2.91931 0.53227,-3.1516 8.15825,-3.1516 10.22664,0 11.71065,1.56446 12.37876,13.0498 0.27712,4.76371 1.12185,12.74727 1.87721,17.74119 1.50579,9.95543 1.07115,12.63118 -2.05175,12.63118 -2.96376,0 -3.93102,-2.18563 -4.88493,-11.03814 -0.66899,-6.20836 -1.39872,-7.94393 -3.51034,-8.34879 -2.48297,-0.47605 -2.60331,0.16076 -1.7549,9.28957 0.76171,8.1957 0.54869,9.93971 -1.30075,10.64941 -2.94226,1.12904 -3.05809,1.10725 -4.23526,-0.79747 z m 7.0407,-24.41693 c 3.09204,-1.18653 3.10901,-12.90205 0.0205,-14.08725 -3.7234,-1.42881 -5.23088,1.63459 -4.19701,8.52894 0.52856,3.52466 1.18601,6.40853 1.46099,6.40853 0.27498,0 1.49701,-0.38271 2.71561,-0.85022 z m 13.42136,21.35403 c 0,-1.26202 0.1576,-2.30761 0.35019,-2.32364 0.19258,-0.0183 9.17469,-0.9428 19.9602,-2.05959 24.78316,-2.56615 27.31397,-2.58511 27.31397,-0.2046 0,1.85778 -6.63464,2.8941 -38.16952,5.96225 -8.19911,0.7977 -9.45483,0.61516 -9.45483,-1.3746 z m -67.232436,-2.52797 c 0.001,-1.79758 0.94567,-8.62608 2.09915,-15.17445 1.15348,-6.54832 2.09811,-12.10749 2.09916,-12.35365 10e-4,-0.24615 1.38244,-0.24615 3.06973,0 2.59254,0.37814 3.4232,2.07517 5.36162,10.95298 1.26158,5.77792 2.72952,12.23874 3.26208,14.35734 0.82759,3.29215 0.53826,3.85196 -1.99095,3.85196 -1.78124,0 -3.25088,-1.11519 -3.69184,-2.80144 -0.99763,-3.81497 -5.69127,-3.63471 -6.26149,0.24022 -0.6255,4.25094 -3.94987,5.03147 -3.94746,0.92677 z m 8.30392,-10.6221 c -0.0542,-1.3482 -0.59393,-3.7119 -1.19952,-5.25268 -0.89769,-2.28397 -1.21566,-1.83116 -1.72137,2.45124 -0.43605,3.69272 -0.0798,5.25269 1.19953,5.25269 1.0009,0 1.77551,-1.10305 1.72136,-2.45125 z m 9.41562,2.80144 c -1.47694,-15.63827 -1.17562,-21.36093 1.12473,-21.36093 2.30623,0 3.10359,3.89512 4.08607,19.96021 0.5944,9.71945 0.40321,10.85556 -1.82699,10.85556 -2.05314,0 -2.64779,-1.66153 -3.38381,-9.45484 z m 8.42056,7.00355 c -0.35029,-0.57776 -0.86025,-7.35374 -1.13321,-15.05767 -0.4139,-11.68222 -0.15075,-14.00715 1.58561,-14.00715 2.31413,0 2.3035,-0.0457 3.52951,14.75562 0.85213,10.2868 0.9683,10.55232 4.596516,10.50537 2.4489,-0.032 3.89039,0.79044 4.21365,2.40316 0.40993,2.04506 -0.55638,2.45124 -5.831896,2.45124 -3.4778,0 -6.60988,-0.47276 -6.96018,-1.05057 z m 41.165646,-6.46054 c -0.69193,-1.81992 -1.46424,-8.22361 -1.71623,-14.23038 l -0.45816,-10.92142 4.0643,-1.11314 c 7.16003,-1.96103 8.74709,0.16852 10.2625,13.77136 1.56589,14.05587 0.88849,15.80254 -6.12868,15.80254 -3.72047,0 -5.04158,-0.72573 -6.02373,-3.30896 z m 8.851,-3.74954 c -0.0992,-1.89577 -0.61728,-7.07123 -1.15133,-11.501 -0.82179,-6.81663 -1.40429,-8.05412 -3.79113,-8.05412 -2.669,0 -2.76707,0.58187 -1.82975,10.85556 1.13255,12.41366 1.45396,13.29 4.6319,12.62912 1.4675,-0.30507 2.25435,-1.74986 2.14031,-3.92956 z m 7.23563,-7.14096 c 0.54943,-7.98339 1.2725,-14.98799 1.60683,-15.56575 0.58706,-1.01458 6.0454,-1.53667 6.0454,-0.57826 0,0.25986 1.84039,6.60221 4.08977,14.09424 3.29081,10.96083 3.71437,13.76601 2.16815,14.35934 -2.49965,0.95919 -4.85721,-0.54314 -4.85721,-3.09532 0,-3.33549 -5.35186,-2.40005 -5.85562,1.0235 -0.24616,1.67304 -1.29106,3.31992 -2.32195,3.65969 -1.52668,0.50319 -1.68905,-2.07456 -0.87537,-13.89744 z m 6.88883,-0.15802 c -1.63728,-5.41919 -3.43875,-6.11629 -3.43875,-1.33071 0,3.1361 0.65937,4.48229 2.19546,4.48229 1.6251,0 1.9481,-0.81875 1.24329,-3.15158 z m 9.93439,9.80499 c -0.66786,-2.14125 -3.56813,-22.84153 -3.56813,-25.467 0,-2.5059 9.58522,-3.61753 11.83067,-1.37209 2.58346,2.58346 5.35576,24.34587 3.40139,26.70076 -1.97405,2.37858 -10.93206,2.48486 -11.66393,0.13838 z m 9.03832,-3.23196 c 0,-1.19978 -0.72272,-6.55755 -1.606,-11.90609 -1.35779,-8.22173 -2.0351,-9.72466 -4.3826,-9.72466 -2.53381,0 -2.69532,0.64307 -1.84694,7.35379 1.86065,14.71789 2.40949,16.45839 5.18997,16.45839 1.46109,0 2.64557,-0.97663 2.64557,-2.18143 z M 30.198374,98.691298 c -2.97277,-2.97277 -3.05324,-8.59041 -0.13907,-9.70868 3.85779,-1.48037 4.78795,-0.94632 4.78795,2.74899 0,2.93133 0.58483,3.51616 3.15161,3.15162 1.73338,-0.24616 3.08858,-1.23551 3.01154,-2.1985 -0.077,-0.96299 -0.2346,-3.64187 -0.35019,-5.95305 -0.18322,-3.664628 -0.73482,-4.202138 -4.3122,-4.202138 -5.77961,0 -8.50435,-3.31213 -8.50435,-10.3377 0,-8.601674 2.41507,-11.153449 10.66976,-11.273737 6.77584,-0.09874 6.84339,-0.05562 7.29328,4.655957 0.2731,2.86006 -0.28521,5.22436 -1.40072,5.9316 -3.04691,1.93178 -3.95588,1.40722 -3.95588,-2.28292 0,-2.58602 -0.74411,-3.50179 -2.84539,-3.50179 -3.41307,0 -4.77898,2.93874 -3.5822,7.70707 0.71323,2.84173 1.74101,3.49865 5.47378,3.49865 2.52762,0 5.35206,0.75639 6.27653,1.68086 1.92218,1.92218 2.24608,16.269048 0.43194,19.132238 -1.95426,3.084342 -13.20476,3.753152 -16.00639,0.95153 z m 18.65603,-1.17253 c 0,-2.69119 -0.41244,-2.63941 67.934716,-8.52855 49.96371,-4.305128 58.24215,-4.439378 56.06035,-0.90917 -0.35074,0.56757 -6.80463,1.45833 -14.3419,1.97947 -15.49896,1.07162 -89.314986,7.44319 -101.599046,8.76972 -6.72927,0.72667 -8.05412,0.51094 -8.05412,-1.31147 z m 5.13596,-6.11803 c -0.5136,-0.5136 -0.93381,-5.871338 -0.93381,-11.906088 0,-10.03846 -0.23844,-10.97227 -2.80143,-10.97227 -4.40864,0 -3.42073,-4.165575 1.05053,-4.429639 12.1087,-0.71512 14.76053,-0.970726 17.6843,-1.704542 5.7722,-1.448731 7.52381,1.617821 8.57804,15.017641 0.90991,11.565428 0.80312,12.352768 -1.61332,11.894438 -1.86561,-0.35385 -2.70907,-1.95339 -3.02248,-5.731858 -0.61752,-7.44463 -3.06705,-6.51428 -3.06705,1.1649 0,5.344748 -0.40609,6.328658 -2.45126,5.939518 -2.01738,-0.38385 -2.57521,-2.44503 -3.15161,-11.645088 -0.57639,-9.20007 -1.13422,-11.26124 -3.15161,-11.64509 -2.18869,-0.41646 -2.45125,0.89492 -2.45125,12.24274 0,9.657148 -0.44852,12.709148 -1.86762,12.709148 -1.0272,0 -2.28784,-0.4202 -2.80143,-0.93381 z m 18.6762,-21.627508 c 0,-2.66822 -0.71762,-4.05228 -2.10107,-4.05228 -1.4638,0 -2.10107,1.47365 -2.10107,4.85854 0,3.74323 0.48231,4.67346 2.10107,4.05229 1.19766,-0.45959 2.10107,-2.54866 2.10107,-4.85855 z m 6.99433,17.425358 c -0.005,-1.412388 0.74032,-7.492398 1.65648,-13.511118 1.22089,-8.02077 2.34909,-11.308871 4.22464,-12.312634 2.96938,-1.589164 3.90947,0.218345 6.76146,13.000204 1.60736,7.20376 1.98061,7.74783 3.95841,5.77003 1.9778,-1.9778 2.30928,-1.9023 3.51541,0.80074 2.141106,4.79842 5.357756,3.75735 4.844306,-1.56789 -0.36796,-3.81632 -1.07346,-4.62511 -4.3636,-5.00255 -4.401936,-0.50499 -7.266926,-5.72956 -5.971736,-10.890006 1.52718,-6.084759 14.387146,-4.611997 13.200336,1.511736 -0.71298,3.67883 -3.50752,4.17548 -4.39516,0.78113 -1.138,-4.351728 -3.811266,-3.409422 -3.811266,1.34343 0,3.70071 0.48355,4.20215 4.052276,4.20215 4.51659,0 5.75273,1.97042 5.75273,9.16993 0,6.923118 -7.06603,10.177538 -11.806026,5.43753 -2.00103,-2.00102 -2.20113,-2.00102 -2.20113,0 0,3.218148 -5.14458,2.704168 -6.00872,-0.6003 -0.98092,-3.75106 -4.8878,-3.57867 -5.44976,0.24045 -0.55445,3.768028 -3.94591,5.162058 -3.95865,1.627148 z m 7.39624,-13.097498 -0.92556,-3.47764 -0.90899,3.50179 c -1.0349,3.98686 -0.21428,6.42784 1.56336,4.65022 0.65821,-0.65821 0.78025,-2.76168 0.27119,-4.67437 z m 24.388926,9.47898 c -0.40934,-1.73338 -1.18205,-8.0366 -1.71714,-14.00716 l -0.97287,-10.85554 h 6.4185 c 7.82132,0 8.63517,1.224071 9.99906,15.03903 0.99423,10.07065 0.97647,10.14574 -2.73253,11.5559 -6.27467,2.385628 -10.16742,1.772328 -10.99502,-1.73223 z m 8.84485,-5.25268 c 0,-3.13554 -0.6495,-4.20215 -2.55884,-4.20215 -2.0464,0 -2.43533,0.84154 -1.94209,4.20215 0.34521,2.352 1.47182,4.20215 2.55883,4.20215 1.22407,0 1.9421,-1.5536 1.9421,-4.20215 z m -1.40072,-12.60644 c 0,-2.801436 -0.70036,-4.202151 -2.10107,-4.202151 -1.40072,0 -2.10108,1.400715 -2.10108,4.202151 0,2.80143 0.70036,4.20215 2.10108,4.20215 1.40071,0 2.10107,-1.40072 2.10107,-4.20215 z m 10.77617,17.57965 c -1.12229,-1.12229 -2.45829,-6.29069 -2.98715,-11.55591 -0.52622,-5.23905 -1.29425,-10.686537 -1.70672,-12.105538 -0.56398,-1.940236 -0.10856,-2.457947 1.83656,-2.087775 2.10855,0.401295 2.84534,2.557067 3.98722,11.666353 1.15283,9.1966 1.86756,11.26386 4.03862,11.68126 2.14166,0.41175 2.48717,-0.1118 1.83666,-2.78313 -0.44066,-1.80964 -1.23641,-7.22977 -1.76829,-12.04473 -0.83423,-7.552156 -0.65364,-8.754479 1.31495,-8.754479 1.2551,0 2.282,0.584711 2.282,1.299361 0,0.714649 0.68173,6.200832 1.51496,12.191518 1.37063,9.8545 1.27841,11.06513 -0.96808,12.7078 -3.26033,2.38402 -6.86448,2.30151 -9.38073,-0.21473 z m 13.80536,-1.12124 c -0.2989,-0.963 -0.93141,-5.21767 -1.40561,-9.45484 -0.4742,-4.23716 -1.22551,-9.752478 -1.66957,-12.256258 -0.79769,-4.497646 -0.74158,-4.552326 4.67122,-4.552326 6.50955,0 8.84032,1.941493 8.84032,7.363816 0,2.201158 0.70223,6.790878 1.5605,10.199378 1.86673,7.41347 0.84908,11.63142 -2.19646,9.10385 -1.10195,-0.91453 -2.19755,-3.61585 -2.43468,-6.00293 -0.23712,-2.38707 -1.21396,-4.59709 -2.17073,-4.91115 -1.29757,-0.42591 -1.51613,1.05927 -0.86014,5.84517 0.74114,5.40725 0.51219,6.41618 -1.45599,6.41618 -1.28449,0 -2.57997,-0.7879 -2.87886,-1.75089 z m 6.23421,-17.859127 c 0,-2.801434 -0.70035,-4.202148 -2.10107,-4.202148 -1.40071,0 -2.10107,1.400714 -2.10107,4.202148 0,2.801427 0.70036,4.202147 2.10107,4.202147 1.40072,0 2.10107,-1.40072 2.10107,-4.202147 z m 10.09095,16.452757 c -0.86709,-1.04478 -2.28469,-6.46377 -3.15021,-12.0422 -1.84879,-11.915765 -0.64159,-14.609113 6.24676,-13.936918 3.54594,0.346035 4.40099,1.112967 4.76467,4.273676 0.31658,2.751389 -0.18368,3.851966 -1.7509,3.851966 -1.20676,0 -2.19411,-0.94548 -2.19411,-2.10107 0,-1.155594 -0.99556,-2.101074 -2.21237,-2.101074 -1.65826,0 -2.02786,0.964743 -1.47569,3.851966 0.40518,2.118584 1.14098,6.530834 1.63513,9.805014 0.56882,3.76892 1.62415,5.95304 2.87641,5.95304 2.4138,0 2.60875,-4.41179 0.29708,-6.72344 -1.27315,-1.27314 -1.28754,-2.07417 -0.0594,-3.30235 2.98387,-2.983875 6.13395,1.35804 5.66154,7.8036 -0.38572,5.26256 -0.76789,5.75797 -4.74098,6.14569 -2.40774,0.23496 -5.01961,-0.41952 -5.89799,-1.4779 z"/>
</svg>