<?xml version="1.0" encoding="utf-8"?>
<!-- Generator: Adobe Illustrator 24.1.2, SVG Export Plug-In . SVG Version: 6.00 Build 0)  -->
<svg version="1.1" id="Layer_1" xmlns="http://www.w3.org/2000/svg" xmlns:xlink="http://www.w3.org/1999/xlink" x="0px" y="0px"
	 viewBox="0 0 29 29" style="enable-background:new 0 0 29 29;" xml:space="preserve">
<style type="text/css">
	.st0{fill:#FFFFFF;}
	.st1{fill:#EE2E24;}
	.st2{fill-rule:evenodd;clip-rule:evenodd;fill:#FFE700;}
	.st3{fill-rule:evenodd;clip-rule:evenodd;fill:#EE2E24;}
</style>
<path class="st0" d="M14.5,1C7.1,1,1,7.1,1,14.5C1,21.9,7.1,28,14.5,28C21.9,28,28,21.9,28,14.5S21.9,1,14.5,1z"/>
<g>
	<path class="st1" d="M14.5,28.7c-7.8,0-14.2-6.4-14.2-14.2S6.7,0.3,14.5,0.3c7.8,0,14.2,6.4,14.2,14.2v0
		C28.7,22.3,22.3,28.7,14.5,28.7z M14.5,1.7C7.4,1.7,1.7,7.4,1.7,14.5c0,7.1,5.7,12.8,12.8,12.8c7.1,0,12.8-5.7,12.8-12.8
		S21.6,1.7,14.5,1.7z"/>
</g>
<path class="st1" d="M26,20.6c0,0.2-0.1,0.4-0.3,0.4L4.7,23c-0.2,0-0.4-0.1-0.4-0.3c0,0,0,0,0,0L3,8.4C2.9,8.2,3.1,8,3.3,8
	c0,0,0,0,0,0l21.1-2c0.2,0,0.4,0.1,0.4,0.3c0,0,0,0,0,0L26,20.6z"/>
<path class="st2" d="M16.1,17.5c0,0.3,0.1,0.7,0.1,1c0,0.4,0.1,0.8,0.1,1.1c0,0.1,0,0.3,0,0.4c0,0,0,0.1,0,0.1c-0.2,0-0.4,0-0.5,0.1
	c0,0-0.1,0-0.1,0c0,0-0.1-0.1-0.1-0.1c0,0-0.1-0.1-0.1-0.1c0-0.4-0.1-0.8-0.1-1.2c0-0.4-0.1-0.8-0.1-1.2c0-0.3-0.1-0.6-0.1-0.9
	c0-0.3-0.1-0.6-0.1-0.9c0-0.3,0-0.5-0.1-0.8c0-0.2,0-0.3,0-0.5c0,0,0,0,0.1,0c0.4,0,0.7-0.1,1.1-0.1c0.2,0,0.4,0,0.5-0.1
	c0.2,0,0.5,0.1,0.6,0.3c0.2,0.2,0.3,0.5,0.3,0.7c0,0.2,0,0.4,0.1,0.6c0,0.2,0,0.3,0,0.5c0,0.2,0,0.3-0.1,0.5c0,0.1-0.1,0.2-0.1,0.2
	c0,0,0,0,0,0.1c0.2,0.2,0.3,0.5,0.3,0.7c0,0.3,0.1,0.6,0.1,0.9c0,0.3,0.1,0.6,0.1,0.8c0,0.1,0,0.2,0,0.3c0,0,0,0.1,0,0.1
	c-0.2,0-0.4,0-0.5,0.1c0,0,0,0,0,0c0,0-0.1-0.1-0.1-0.1c-0.1-0.1-0.1-0.1-0.1-0.2c0-0.3-0.1-0.7-0.1-1c0-0.3-0.1-0.6-0.1-0.8
	c0-0.1,0-0.1,0-0.2c0-0.1-0.1-0.2-0.3-0.2c-0.2,0-0.3,0-0.5,0C16.2,17.5,16.2,17.5,16.1,17.5z M16.5,14.9c-0.2,0-0.4,0-0.5,0
	c0,0-0.1,0,0,0.1c0,0,0,0.1,0,0.1c0,0.2,0,0.4,0.1,0.6c0,0.3,0.1,0.7,0.1,1c0,0.1,0,0.1,0.1,0.1c0.2,0,0.4,0,0.6,0c0,0,0.1,0,0.1,0
	c0.1,0,0.1-0.1,0.1-0.2c0-0.1,0-0.1,0-0.2c0-0.4-0.1-0.8-0.1-1.2c0-0.1-0.1-0.2-0.2-0.2C16.6,14.9,16.5,14.9,16.5,14.9L16.5,14.9z"
	/>
<path class="st2" d="M7.2,20.9c-0.1,0-0.1,0-0.2,0c-0.1,0-0.3,0-0.4,0c0,0-0.1,0-0.1,0c0,0,0-0.1-0.1-0.1c0,0-0.1-0.1-0.1-0.2
	c0-0.4,0-0.7-0.1-1.1c0-0.4,0-0.8-0.1-1.2c0-0.2,0-0.3,0-0.5c0-0.3,0-0.6,0-0.8c0-0.2,0-0.5,0-0.7c0-0.4,0-0.8,0-1.1
	c0,0,0-0.1,0.1-0.1c0.2,0,0.3,0,0.5-0.1c0,0,0.1,0,0.1,0c0.2,0,0.4,0,0.6,0c0.1,0,0.3,0,0.4,0c0.3,0,0.6,0.2,0.7,0.4
	c0.1,0.2,0.1,0.4,0.1,0.6c0,0.3,0,0.6,0,0.9c0,0.2,0,0.4-0.1,0.6c0,0.1-0.1,0.1-0.1,0.2c0,0,0,0,0,0.1c0.1,0.1,0.2,0.3,0.2,0.5
	c0,0.2,0.1,0.5,0.1,0.7c0,0.3,0,0.6,0.1,0.9c0,0.2,0,0.4,0,0.5c0,0.1,0,0.1,0,0.2c0,0,0,0,0,0c-0.2,0-0.4,0-0.5,0c0,0-0.1,0-0.1,0
	c0-0.1-0.1-0.1-0.1-0.2c0,0,0,0,0,0c0-0.2,0-0.5,0-0.7c0-0.4,0-0.7-0.1-1.1c0-0.1,0-0.2,0-0.3c0-0.1-0.1-0.2-0.2-0.2
	c-0.1,0-0.3,0-0.4,0c-0.1,0-0.1,0-0.2,0c0,0-0.1,0-0.1,0.1c0,0.4,0,0.8,0.1,1.1c0,0.2,0,0.4,0,0.6C7.2,20.3,7.2,20.6,7.2,20.9
	C7.2,20.9,7.2,20.9,7.2,20.9z M7,16.3L7,16.3c0,0.1,0,0.1,0,0.2c0,0.4,0,0.8,0.1,1.2c0,0,0,0.1,0.1,0c0.1,0,0.2,0,0.2,0
	c0.1,0,0.2,0,0.3,0c0.1,0,0.2,0,0.2-0.1C8,17.5,8,17.4,8,17.2c0-0.3,0-0.5,0-0.8c0-0.2,0-0.4,0-0.5c0-0.1-0.1-0.2-0.3-0.2
	c-0.2,0-0.4,0-0.6,0c0,0-0.1,0-0.1,0.1C7,16,7,16.2,7,16.3z"/>
<path class="st2" d="M7.3,13.8c-0.1,0-0.2,0-0.2-0.1c0-0.1,0-0.2,0-0.2c0,0,0-0.1,0-0.1c0.2,0,0.3,0,0.5,0c0.3,0,0.6-0.1,0.8-0.1
	c0.2,0,0.4,0,0.6-0.1c0.2,0,0.5,0,0.7-0.1l0.6-0.1c0.3,0,0.6-0.1,0.9-0.1c0.3,0,0.5,0,0.8-0.1c0.4,0,0.8-0.1,1.2-0.1
	c0.3,0,0.6,0,0.8-0.1c0.2,0,0.5,0,0.7-0.1c0.2,0,0.4,0,0.6-0.1l0.8-0.1c0.2,0,0.5,0,0.7-0.1c0.3,0,0.6,0,0.9-0.1
	c0.2,0,0.5,0,0.7-0.1c0.3,0,0.6,0,0.9-0.1c0.3,0,0.5,0,0.8-0.1c0.3,0,0.6,0,0.9-0.1c0.2,0,0.3,0,0.5,0c0.3,0,0.5,0,0.8-0.1l0.6-0.1
	c0.2,0,0.4,0,0.6-0.1c0.1,0,0.2,0,0.2,0.1c0,0,0,0,0,0c0,0.1,0,0.1,0,0.2c0,0,0,0.1,0,0.1c-0.1,0-0.3,0-0.4,0c-0.2,0-0.5,0-0.7,0.1
	c-0.2,0-0.3,0-0.5,0c-0.3,0-0.5,0-0.8,0.1c-0.2,0-0.4,0-0.5,0c-0.2,0-0.4,0-0.6,0.1c-0.2,0-0.3,0-0.5,0c-0.2,0-0.4,0-0.6,0.1l-0.5,0
	c-0.2,0-0.4,0-0.6,0.1c-0.2,0-0.3,0-0.5,0c-0.2,0-0.3,0-0.5,0c-0.1,0-0.2,0-0.4,0c-0.2,0-0.4,0-0.5,0c-0.2,0-0.3,0-0.5,0
	c-0.2,0-0.3,0-0.5,0c-0.2,0-0.3,0-0.5,0c-0.2,0-0.4,0-0.6,0.1c-0.2,0-0.3,0-0.5,0c-0.2,0-0.3,0-0.5,0c-0.1,0-0.3,0-0.4,0
	c-0.2,0-0.3,0-0.5,0c-0.2,0-0.3,0-0.5,0c-0.2,0-0.3,0-0.5,0c-0.1,0-0.2,0-0.4,0c-0.2,0-0.3,0-0.5,0c-0.2,0-0.3,0-0.5,0
	c-0.2,0-0.4,0-0.6,0.1c-0.2,0-0.3,0-0.5,0l-0.6,0.1c-0.2,0-0.3,0-0.5,0C7.5,13.8,7.4,13.8,7.3,13.8z"/>
<path class="st2" d="M6.8,12.4c0,0.2,0,0.5,0,0.7c0,0.4-0.3,0.8-0.7,0.8C5.8,14,5.5,14,5.2,14c-0.3,0-0.6-0.1-0.8-0.4
	c-0.1-0.1-0.1-0.2-0.1-0.4c0-0.2,0-0.4,0-0.5c0,0,0,0,0-0.1c0.2-0.1,0.4-0.2,0.6-0.2c0.1,0,0.1,0,0.1,0.1c0,0.2,0,0.4,0,0.6
	c0,0.1,0.1,0.3,0.2,0.3c0.1,0,0.3,0,0.5,0c0.1,0,0.2-0.1,0.3-0.2c0,0,0-0.1,0-0.2c0-0.2,0-0.4,0-0.6c0-0.2,0-0.5,0-0.7
	c0-0.1-0.1-0.2-0.2-0.3c-0.1,0-0.2,0-0.3,0c-0.2,0-0.3,0-0.5,0c-0.2,0-0.4-0.1-0.5-0.2c-0.1-0.1-0.1-0.2-0.2-0.3c0-0.1,0-0.3,0-0.4
	c0-0.3,0-0.6,0-0.8c0-0.2,0-0.3,0.1-0.5C4.5,9.1,4.6,9,4.8,8.9c0.1,0,0.2-0.1,0.3-0.1c0.1,0,0.2,0,0.3-0.1c0.1,0,0.1,0,0.2,0
	c0.1,0,0.3,0,0.4,0c0.3,0,0.5,0.2,0.5,0.5c0,0,0,0,0,0c0,0.2,0,0.4,0,0.6c0,0,0,0.1,0,0.1c-0.2,0.1-0.3,0.2-0.5,0.2
	C6,10.3,6,10.3,6,10.1C6,10,6,9.8,6,9.6c0-0.1,0-0.1,0-0.2c0-0.1-0.1-0.1-0.2-0.2c-0.2-0.1-0.5,0-0.7,0.1C5,9.5,4.9,9.6,5,9.7
	c0,0.3,0,0.7,0,1C5,10.8,5.1,11,5.2,11c0,0,0,0,0,0c0.2,0,0.4,0,0.6,0c0.1,0,0.3,0,0.4,0c0.1,0,0.2,0.1,0.3,0.3
	c0.1,0.1,0.1,0.3,0.1,0.4C6.7,11.9,6.7,12.2,6.8,12.4L6.8,12.4z"/>
<path class="st2" d="M16.5,8.5c0.3,0,0.5,0.2,0.6,0.5c0,0.1,0,0.3,0.1,0.4c0,0.1,0,0.3,0.1,0.4c0,0.1,0,0.3-0.1,0.4
	c0,0.1,0,0.1,0,0.1c0.1,0.1,0.2,0.3,0.2,0.4c0,0.2,0,0.4,0.1,0.6c0,0.2,0,0.4-0.2,0.6C17.1,12,17,12,16.9,12c-0.1,0-0.3,0-0.4,0
	c-0.2,0-0.4,0-0.6,0.1c-0.1,0-0.1,0-0.1,0c-0.1,0-0.1-0.1-0.1-0.2c0-0.2-0.1-0.5-0.1-0.7c0-0.3-0.1-0.5-0.1-0.8c0-0.2,0-0.4-0.1-0.6
	c0-0.2,0-0.3-0.1-0.5c0-0.2,0-0.4-0.1-0.6c0,0,0-0.1,0-0.1c0.1,0,0.1,0,0.2,0C15.8,8.5,16.1,8.5,16.5,8.5
	C16.4,8.5,16.4,8.5,16.5,8.5z M16.4,10.4c-0.1,0-0.2,0-0.3,0c-0.1,0-0.1,0-0.1,0.1c0,0.1,0,0.3,0,0.4c0,0.2,0.1,0.5,0.1,0.7
	c0,0,0,0,0,0c0.1,0,0.3,0,0.4,0c0.1,0,0.2-0.1,0.2-0.2c0,0,0,0,0,0c0-0.3-0.1-0.5-0.1-0.8c0-0.1-0.1-0.1-0.1-0.2
	C16.5,10.4,16.4,10.4,16.4,10.4z M16.2,8.8L16.2,8.8c-0.1,0-0.3,0-0.4,0c0,0,0,0,0,0c0,0,0,0.1,0,0.1c0,0.3,0.1,0.7,0.1,1
	c0,0,0,0,0.1,0c0,0,0.1,0,0.1,0c0.1,0,0.3,0,0.4,0c0.1,0,0.1-0.1,0.1-0.1c0,0,0,0,0,0c0-0.3-0.1-0.6-0.1-0.8
	C16.5,8.9,16.4,8.8,16.2,8.8L16.2,8.8z"/>
<path class="st2" d="M11.4,19.6c-0.1,0-0.2,0-0.3,0c0,0,0,0,0,0c-0.1,0-0.2,0-0.2-0.1c0,0,0,0-0.1-0.1c-0.1-0.1-0.1-0.2-0.1-0.3
	c0-0.1,0-0.3-0.1-0.4c0,0,0,0-0.1,0c-0.2,0-0.5,0-0.7,0.1c0,0-0.1,0-0.1,0.1c0,0,0,0,0,0c0,0.2,0,0.3-0.1,0.5c0,0.1,0,0.2,0,0.3
	c0,0,0,0.1-0.1,0.1c-0.1,0-0.1,0-0.2,0c0,0-0.1,0-0.1,0c0,0-0.1-0.1-0.1-0.2c0.1-0.3,0.1-0.6,0.1-0.9c0-0.3,0.1-0.6,0.1-0.9
	s0.1-0.6,0.1-0.9c0.1-0.4,0.1-0.7,0.2-1.1c0,0,0-0.1,0-0.1c0,0,0,0,0,0c0.1,0,0.2,0,0.3,0c0.1,0,0.2,0,0.2,0.1
	c0.1,0.1,0.1,0.2,0.1,0.3c0.1,0.6,0.3,1.3,0.4,1.9c0.1,0.5,0.2,0.9,0.3,1.4C11.4,19.3,11.4,19.4,11.4,19.6z M10.2,16.8L10.2,16.8
	L10.2,16.8c-0.1,0.3-0.1,0.5-0.1,0.7C10,17.8,9.9,18,9.9,18.3c0,0,0,0,0,0c0.2,0,0.4,0,0.5,0c0,0,0,0,0,0c0-0.2-0.1-0.5-0.1-0.7
	c0-0.2-0.1-0.4-0.2-0.7C10.2,16.9,10.2,16.8,10.2,16.8L10.2,16.8z"/>
<path class="st2" d="M9.1,9.9c0-0.2,0-0.5,0-0.7c0-0.1,0-0.1,0.1-0.1c0.2,0,0.4,0,0.6-0.1c0.1,0,0.2,0,0.3,0c0.3,0,0.5,0.2,0.5,0.5
	c0,0,0,0,0,0c0,0.2,0,0.4,0.1,0.6c0,0.1,0,0.3,0,0.4c0,0.1-0.1,0.2-0.1,0.2c0,0,0,0,0,0.1c0.1,0.1,0.2,0.3,0.2,0.5
	c0,0.4,0.1,0.8,0.1,1.2c0,0.1,0,0.1-0.1,0.1c-0.1,0-0.2,0-0.3,0c0,0-0.1,0-0.1,0c-0.1-0.1-0.1-0.1-0.1-0.2c0-0.3,0-0.6-0.1-0.8
	c0-0.1,0-0.2,0-0.4c0-0.1-0.1-0.2-0.2-0.2c0,0,0,0,0,0c-0.1,0-0.3,0-0.4,0c0,0,0,0,0,0c0,0.3,0,0.6,0,0.9c0,0.2,0,0.4,0,0.6
	c0,0.1,0,0.1-0.1,0.1c-0.1,0-0.2,0-0.3,0c0,0-0.1,0-0.1,0c-0.1,0-0.1-0.1-0.1-0.2c0-0.6-0.1-1.3-0.1-1.9C9.1,10.4,9.1,10.1,9.1,9.9z
	 M9.6,10L9.6,10c0,0.2,0,0.4,0,0.6c0,0,0,0.1,0,0.1c0.1,0,0.3,0,0.4,0c0.1,0,0.2-0.1,0.2-0.2c0,0,0-0.1,0-0.1c0-0.2,0-0.4,0-0.7
	c0-0.1-0.1-0.2-0.2-0.2c0,0,0,0-0.1,0c-0.1,0-0.2,0-0.3,0c0,0-0.1,0-0.1,0.1C9.6,9.7,9.6,9.8,9.6,10L9.6,10z"/>
<path class="st2" d="M22.6,18.5c-0.2,0-0.3,0-0.5,0.1c0,0,0,0,0,0c-0.1-0.1-0.1-0.1-0.2-0.2c0-0.2-0.1-0.4-0.2-0.6c0,0,0,0,0,0
	c-0.1,0-0.3,0-0.4,0c-0.1,0-0.2,0-0.3,0c0,0,0,0-0.1,0.1c0,0.2,0,0.3,0,0.5c0,0.1,0,0.2,0,0.3c0,0,0,0,0,0c-0.1,0-0.2,0-0.2,0
	c-0.1,0-0.1-0.1-0.1-0.1c0-0.2,0-0.4,0.1-0.6c0-0.2,0-0.4,0.1-0.5c0-0.2,0-0.4,0.1-0.6c0-0.2,0-0.4,0.1-0.6c0-0.3,0.1-0.6,0.1-0.9
	c0-0.2,0-0.4,0-0.6c0-0.1,0-0.1,0.1-0.1c0.1,0,0.3,0,0.4,0c0,0,0,0,0.1,0c0,0,0.1,0.1,0.1,0.2c0,0,0,0.1,0,0.1
	c0.1,0.4,0.3,0.9,0.4,1.3c0.2,0.6,0.4,1.3,0.6,1.9C22.5,18.3,22.5,18.4,22.6,18.5C22.6,18.5,22.6,18.5,22.6,18.5z M21.6,17.3
	c-0.1-0.5-0.3-1-0.4-1.5c0,0,0,0,0,0c0,0.3-0.1,0.5-0.1,0.8c0,0.2,0,0.5-0.1,0.7c0,0,0,0.1,0.1,0.1C21.2,17.3,21.4,17.3,21.6,17.3
	C21.6,17.3,21.6,17.3,21.6,17.3z"/>
<path class="st2" d="M19.4,8.2C19.4,8.2,19.4,8.2,19.4,8.2c0.4,0,0.7-0.1,1-0.1c0.3,0,0.6,0.2,0.6,0.5c0,0.2,0.1,0.4,0.1,0.6
	c0,0.1,0,0.3,0,0.5c0,0,0,0,0,0c0,0.1,0,0.1,0,0.2c0.1,0.1,0.1,0.3,0.1,0.4c0,0.3,0.1,0.6,0.1,0.9c0,0.1,0,0.2,0,0.3
	c0,0,0,0.1,0,0.1c-0.1,0-0.2,0-0.2,0c0,0,0,0,0,0c-0.1,0-0.2,0-0.2-0.1c0,0,0-0.1,0-0.1c0-0.2-0.1-0.5-0.1-0.7c0-0.2,0-0.3-0.1-0.5
	c0-0.1-0.1-0.2-0.2-0.2c0,0,0,0,0,0c-0.1,0-0.2,0-0.3,0c0,0,0,0,0,0.1c0.1,0.4,0.1,0.8,0.2,1.2c0,0.1,0,0.2,0,0.3c0,0,0,0,0,0
	c-0.1,0-0.2,0-0.3,0c0,0,0,0,0,0c-0.1-0.1-0.1-0.2-0.1-0.3c0-0.3-0.1-0.5-0.1-0.8c0-0.2-0.1-0.4-0.1-0.6c0-0.2-0.1-0.4-0.1-0.7
	c0-0.2,0-0.3-0.1-0.5C19.5,8.7,19.4,8.5,19.4,8.2C19.4,8.3,19.4,8.3,19.4,8.2z M20.3,8.5c-0.1,0-0.2,0-0.3,0c-0.1,0-0.1,0-0.1,0.1
	C20,9,20.1,9.4,20.1,9.7c0,0,0,0,0.1,0c0.1,0,0.2,0,0.3,0c0.1,0,0.2-0.1,0.2-0.1c0,0,0-0.1,0-0.1c0-0.2-0.1-0.5-0.1-0.7
	c0-0.1-0.1-0.2-0.2-0.2C20.4,8.5,20.4,8.5,20.3,8.5z"/>
<path class="st2" d="M19.1,18.8c-0.2,0-0.3,0-0.5-0.1c-0.1-0.1-0.2-0.3-0.3-0.4c0-0.2-0.1-0.5-0.1-0.7c0-0.2-0.1-0.5-0.1-0.7
	c0-0.2-0.1-0.5-0.1-0.7c0-0.2-0.1-0.4-0.1-0.6c0-0.2,0.1-0.4,0.2-0.6c0.1-0.1,0.2-0.1,0.3-0.1c0.1,0,0.3,0,0.4,0c0.1,0,0.1,0,0.2,0
	c0.2,0,0.4,0.1,0.5,0.2c0.1,0.1,0.1,0.2,0.1,0.4c0,0.3,0.1,0.6,0.1,0.9c0,0.2,0.1,0.5,0.1,0.7c0,0.3,0.1,0.6,0.1,0.9
	c0,0.1,0,0.2,0,0.3c0,0.1-0.1,0.3-0.2,0.3c-0.1,0.1-0.2,0.1-0.4,0.1C19.4,18.8,19.2,18.8,19.1,18.8z M19.7,18.1c0-0.1,0-0.1,0-0.2
	c0-0.3-0.1-0.6-0.1-0.9c0-0.4-0.1-0.8-0.1-1.2c0-0.2,0-0.3-0.1-0.5c0-0.1-0.1-0.1-0.2-0.2c-0.1,0-0.2,0-0.3,0
	c-0.2,0-0.3,0.2-0.3,0.4c0,0,0,0,0,0c0,0.4,0.1,0.8,0.1,1.2c0,0.5,0.1,0.9,0.1,1.4c0,0.2,0.1,0.3,0.3,0.3c0.1,0,0.2,0,0.3,0
	c0.1,0,0.1,0,0.2-0.1C19.6,18.3,19.7,18.2,19.7,18.1L19.7,18.1z"/>
<path class="st2" d="M22.4,14.6c0.1,0,0.1,0,0.2,0c0.3,0,0.6,0,0.9-0.1c0.2,0,0.4,0,0.5,0.2c0.1,0.1,0.1,0.2,0.1,0.3
	c0,0.3,0.1,0.6,0.1,0.9c0,0.3,0.1,0.6,0.1,1c0,0.2,0.1,0.5,0.1,0.7c0,0.2,0,0.4-0.2,0.6c-0.1,0.1-0.2,0.1-0.3,0.1
	c-0.3,0-0.5,0.1-0.8,0.1c0,0-0.1,0-0.1,0c0,0,0,0,0,0c0,0-0.1-0.1-0.1-0.2c0-0.2-0.1-0.4-0.1-0.6c0-0.2-0.1-0.4-0.1-0.6
	c0-0.2-0.1-0.4-0.1-0.6c0-0.2-0.1-0.4-0.1-0.7c0-0.2-0.1-0.4-0.1-0.6C22.4,15.1,22.4,14.9,22.4,14.6C22.4,14.7,22.4,14.6,22.4,14.6z
	 M23.3,14.8c-0.1,0-0.3,0-0.4,0c0,0,0,0,0,0.1c0,0.1,0,0.1,0,0.2c0,0.4,0.1,0.7,0.1,1.1c0,0.3,0.1,0.6,0.1,0.8c0,0.3,0.1,0.7,0.1,1
	c0,0,0,0.1,0.1,0c0.1,0,0.2,0,0.3,0c0.1,0,0.2,0,0.3,0c0.1,0,0.1-0.1,0.1-0.1c0-0.1,0.1-0.2,0-0.3c0-0.1,0-0.2-0.1-0.3
	c-0.1-0.4-0.1-0.9-0.2-1.3c0-0.2-0.1-0.5-0.1-0.7c0-0.1,0-0.2-0.1-0.3c0-0.1-0.1-0.2-0.2-0.2C23.4,14.8,23.3,14.8,23.3,14.8
	L23.3,14.8z"/>
<path class="st2" d="M12.8,12.4C12.8,12.4,12.8,12.4,12.8,12.4c-0.1-0.1-0.2-0.1-0.2-0.2c0-0.2-0.1-0.3-0.1-0.5c0-0.1,0-0.1-0.1-0.1
	c-0.2,0-0.4,0-0.6,0.1c0,0-0.1,0-0.1,0.1c0,0,0,0,0,0c0,0.2-0.1,0.5-0.1,0.7c0,0.1,0,0.1-0.1,0.1c-0.1,0-0.1,0-0.2,0
	c0,0-0.1,0-0.1,0c-0.1,0-0.1-0.1,0-0.1c0.1-0.4,0.1-0.8,0.2-1.3c0.1-0.4,0.1-0.8,0.2-1.2c0.1-0.3,0.1-0.7,0.2-1c0,0,0,0,0,0
	c0.1,0,0.3,0,0.4,0c0,0,0.1,0,0.1,0c0,0,0.1,0.1,0.1,0.1c0,0,0,0,0,0.1c0.1,0.3,0.2,0.7,0.3,1c0.1,0.4,0.2,0.8,0.3,1.2
	c0.1,0.3,0.2,0.7,0.3,1c0,0,0,0,0,0c0,0,0,0,0,0C13.1,12.4,13,12.4,12.8,12.4z M12.4,11.2c-0.1-0.4-0.2-0.9-0.3-1.3l0,0
	c0,0.1,0,0.1,0,0.2c-0.1,0.4-0.1,0.7-0.2,1.1c0,0.1,0,0.1,0.1,0.1c0.1,0,0.2,0,0.4,0C12.2,11.2,12.3,11.2,12.4,11.2z"/>
<path class="st2" d="M18.4,11.9c-0.3,0-0.6-0.2-0.7-0.5c0-0.2,0-0.4-0.1-0.6c0-0.2-0.1-0.5-0.1-0.7c0-0.2,0-0.3-0.1-0.5
	c0-0.2,0-0.3-0.1-0.5c0-0.2,0-0.4-0.1-0.6c0,0,0-0.1,0-0.1c0,0,0,0,0,0c0.1,0,0.2,0,0.3,0c0,0,0,0,0.1,0l0,0
	c0.1,0.1,0.1,0.2,0.1,0.3c0,0.3,0.1,0.6,0.1,1c0,0.3,0.1,0.7,0.1,1c0,0.2,0.1,0.4,0.1,0.6c0,0.1,0.1,0.3,0.3,0.3c0.1,0,0.2,0,0.3,0
	c0.2,0,0.3-0.2,0.2-0.3c0,0,0,0,0,0c0-0.2-0.1-0.4-0.1-0.6c0-0.2,0-0.3-0.1-0.5c0-0.2,0-0.3-0.1-0.5c0-0.2,0-0.3-0.1-0.5
	c0-0.2,0-0.4-0.1-0.6c0-0.1,0-0.2,0-0.3c0-0.1,0-0.1,0.1-0.1c0.1,0,0.2,0,0.3,0c0,0,0,0,0,0C19,8.3,19,8.4,19,8.4
	c0.1,0.4,0.1,0.8,0.2,1.1c0,0.3,0.1,0.5,0.1,0.8c0,0.3,0.1,0.5,0.1,0.8c0,0.1,0,0.2,0,0.3c0,0.1-0.1,0.2-0.2,0.3
	c-0.1,0.1-0.2,0.1-0.3,0.1C18.7,11.9,18.5,11.9,18.4,11.9z"/>
<path class="st2" d="M14.3,10.2c0.1,0,0.2,0,0.3,0c0.2,0,0.3,0.2,0.4,0.3c0,0.2,0,0.3,0.1,0.5c0,0.2,0,0.4,0.1,0.6
	c0,0.1,0,0.3-0.2,0.4c-0.1,0.1-0.3,0.2-0.4,0.2c-0.1,0-0.3,0-0.4,0c-0.3,0-0.6-0.2-0.7-0.5c0-0.1,0-0.2,0-0.3c0,0,0,0,0-0.1
	c0.1,0,0.2-0.1,0.3-0.1c0,0,0.1,0,0.1,0c0,0.1,0,0.2,0,0.3c0,0.2,0.1,0.3,0.3,0.3c0.1,0,0.3,0,0.4,0c0.1,0,0.2-0.1,0.2-0.2
	c0-0.1,0-0.2,0-0.3c0-0.2,0-0.4-0.1-0.5c0-0.2-0.1-0.3-0.3-0.3c0,0,0,0-0.1,0c-0.1,0-0.3,0-0.4,0c-0.2,0-0.5-0.2-0.5-0.4
	c0-0.1,0-0.2,0-0.2c0-0.2,0-0.4,0-0.6c0-0.2,0.1-0.4,0.2-0.5c0.1-0.1,0.2-0.1,0.3-0.1c0.2,0,0.4,0,0.7-0.1c0.1,0,0.2,0,0.3,0.1
	c0.1,0,0.1,0.1,0.2,0.2c0,0.2,0,0.3,0,0.5c0,0,0,0.1-0.1,0.1c-0.1,0-0.2,0.1-0.3,0.1c-0.1,0-0.1,0-0.1,0c0-0.1,0-0.3,0-0.4
	c0-0.1-0.1-0.2-0.2-0.2c-0.1,0-0.3,0-0.4,0c-0.1,0-0.2,0.2-0.2,0.3c0,0.2,0,0.4,0.1,0.6c0,0.1,0.1,0.2,0.2,0.2c0.1,0,0.1,0,0.2,0
	C14.1,10.2,14.2,10.2,14.3,10.2L14.3,10.2z"/>
<path class="st2" d="M22.7,9c0-0.1,0-0.2,0-0.2c0-0.1,0-0.1,0-0.2c0-0.1-0.1-0.2-0.3-0.2c-0.1,0-0.2,0-0.3,0c-0.1,0-0.2,0.2-0.2,0.3
	C21.9,9,22,9.4,22,9.7c0.1,0.3,0.1,0.7,0.2,1c0,0.1,0,0.2,0,0.3c0,0.1,0.1,0.2,0.2,0.3c0.1,0,0.2,0,0.4,0c0.1,0,0.2-0.2,0.2-0.3
	c0-0.2-0.1-0.4-0.1-0.6c0-0.1-0.1-0.2-0.2-0.2c0,0-0.1,0-0.1,0c0,0,0,0,0,0c0-0.1,0-0.2,0-0.2c0,0,0,0,0,0c0.1,0,0.2,0,0.3,0l0.2,0
	c0.1,0,0.2,0.1,0.2,0.1c0,0.3,0.1,0.5,0.1,0.8c0,0.1,0,0.2,0.1,0.4c0,0.3-0.1,0.5-0.4,0.5c0,0,0,0,0,0c-0.2,0-0.3,0-0.5,0
	c-0.3,0-0.6-0.2-0.7-0.5c0-0.3-0.1-0.5-0.1-0.8c0-0.2-0.1-0.5-0.1-0.7c0-0.3-0.1-0.5-0.1-0.8c0-0.1,0-0.3,0-0.4
	c0.1-0.2,0.2-0.3,0.4-0.4c0.2,0,0.3,0,0.5,0c0.1,0,0.2,0,0.3,0C22.9,8.1,23,8.3,23,8.5c0,0.1,0,0.2,0.1,0.4c0,0,0,0.1-0.1,0.1
	C22.9,8.9,22.8,9,22.7,9C22.7,9,22.7,9,22.7,9z"/>
<path class="st2" d="M18.4,19.5c0.1,0,0.2,0,0.3,0c0.3,0,0.6-0.1,0.9-0.1c0.3,0,0.5,0,0.8-0.1c0.3,0,0.6-0.1,0.8-0.1
	c0.2,0,0.4,0,0.6-0.1c0.2,0,0.4,0,0.6-0.1c0.2,0,0.4,0,0.6-0.1c0.2,0,0.4,0,0.6-0.1c0.2,0,0.3,0,0.5-0.1c0.1,0,0.3,0,0.4,0
	c0,0,0.1,0,0.1,0c0.1,0.1,0.1,0.2,0.1,0.3c0,0,0,0,0,0c-0.1,0-0.2,0-0.3,0c-0.2,0-0.4,0-0.6,0.1c-0.2,0-0.4,0-0.6,0.1
	c-0.2,0-0.4,0-0.6,0.1c-0.1,0-0.3,0-0.4,0c-0.2,0-0.3,0-0.5,0.1c-0.2,0-0.3,0-0.5,0.1c-0.2,0-0.4,0-0.6,0.1c-0.2,0-0.4,0-0.6,0.1
	c-0.2,0-0.3,0-0.5,0.1c-0.2,0-0.3,0-0.5,0c-0.1,0-0.3,0-0.4,0c-0.1,0-0.1,0-0.1-0.1C18.5,19.7,18.5,19.6,18.4,19.5z"/>
<path class="st2" d="M6.9,9.4C6.9,9.4,6.9,9.4,6.9,9.4c0-0.1,0-0.1,0.1-0.1c0.4,0,0.7-0.1,1.1-0.1c0.2,0,0.3,0,0.5-0.1
	c0.1,0,0.2,0,0.2,0.1c0,0,0,0,0,0c0,0,0,0.1,0,0.1c0,0,0,0.1-0.1,0.1c-0.2,0-0.3,0-0.5,0c0,0-0.1,0-0.1,0.1c0,0.2,0,0.5,0,0.7
	c0,0.2,0,0.5,0,0.7c0,0.5,0,1.1,0.1,1.6c0,0.1,0,0.1-0.1,0.1c-0.1,0-0.2,0-0.3,0c-0.1,0-0.1-0.1-0.2-0.1c0-0.3,0-0.7,0-1
	c0-0.4,0-0.7,0-1.1c0-0.3,0-0.6,0-0.9c0,0,0-0.1-0.1-0.1c-0.2,0-0.3,0-0.5,0c-0.1,0-0.1,0-0.1-0.1C6.9,9.5,6.9,9.5,6.9,9.4z"/>
<path class="st2" d="M14.5,19.1c0,0.2,0,0.1-0.1,0.1c-0.2,0-0.5,0-0.7,0.1c-0.2,0-0.4,0-0.6,0.1c0,0-0.1,0-0.1,0
	c-0.1-0.1-0.1-0.2-0.1-0.2c0-0.3,0-0.5-0.1-0.8c0-0.2,0-0.5-0.1-0.7c0-0.3,0-0.5-0.1-0.8c0-0.2,0-0.5-0.1-0.7c0-0.2,0-0.4,0-0.6
	c0,0,0-0.1,0.1-0.1c0.1,0,0.2,0,0.3,0c0,0,0.1,0,0.1,0c0,0,0.1,0.1,0.1,0.2c0,0,0,0.1,0,0.1c0,0.3,0,0.5,0.1,0.8
	c0,0.3,0,0.6,0.1,0.8c0,0.4,0.1,0.8,0.1,1.2c0,0.1,0,0.2,0,0.3c0,0,0,0,0.1,0l0.5,0c0.1,0,0.2,0,0.3,0c0,0,0,0,0.1,0c0,0,0,0,0,0.1
	C14.4,18.9,14.5,19,14.5,19.1z"/>
<path class="st2" d="M9.5,20.8c-0.1,0-0.1,0-0.2-0.1c0-0.1,0-0.2,0-0.3c0,0,0,0,0,0c0.2,0,0.5,0,0.7-0.1c0.3,0,0.6,0,0.9-0.1
	c0.2,0,0.4,0,0.5,0c0.2,0,0.4,0,0.6-0.1c0.2,0,0.3,0,0.5,0c0.2,0,0.4,0,0.6-0.1c0.2,0,0.4,0,0.6-0.1c0.2,0,0.4,0,0.6-0.1
	c0.1,0,0.1,0,0.1,0.1c0,0.1,0,0.2,0,0.3c0,0,0,0,0,0c-0.1,0-0.3,0-0.4,0c-0.2,0-0.4,0-0.6,0.1c-0.2,0-0.3,0-0.5,0
	c-0.2,0-0.4,0-0.6,0.1c-0.2,0-0.3,0-0.5,0c-0.2,0-0.5,0-0.7,0.1c-0.2,0-0.3,0-0.5,0c-0.2,0-0.3,0-0.5,0c-0.1,0-0.3,0-0.4,0
	C9.8,20.7,9.6,20.7,9.5,20.8z"/>
<path class="st2" d="M11.6,15.5c0,0,0.1,0,0.1,0c0.1,0,0.2,0,0.2,0c0,0,0.1,0,0.1,0c0.1,0.1,0.1,0.2,0.1,0.3c0,0.3,0,0.7,0.1,1
	c0,0.3,0,0.5,0.1,0.8c0,0.3,0,0.6,0.1,0.9l0.1,0.8c0,0.1,0,0.1-0.1,0.1c-0.1,0-0.2,0-0.3,0c-0.1,0-0.2,0-0.2-0.1c0,0,0,0,0,0
	c0-0.1,0-0.2,0-0.2c0-0.2,0-0.5-0.1-0.7c0-0.2,0-0.4,0-0.5c0-0.2,0-0.5-0.1-0.7c0-0.2,0-0.4,0-0.6c0-0.2,0-0.5-0.1-0.7
	C11.6,15.8,11.6,15.7,11.6,15.5z"/>
<path class="st3" d="M16.5,14.9c0.1,0,0.1,0,0.2,0c0.1,0,0.2,0.1,0.2,0.2c0,0.4,0.1,0.8,0.1,1.2c0,0.1,0,0.1,0,0.2
	c0,0.1,0,0.2-0.1,0.2c0,0-0.1,0-0.1,0c-0.2,0-0.4,0-0.6,0c-0.1,0-0.1,0-0.1-0.1c0-0.3-0.1-0.7-0.1-1c0-0.2,0-0.4-0.1-0.6
	c0,0,0-0.1,0-0.1c0,0,0-0.1,0-0.1C16.1,15,16.3,14.9,16.5,14.9z"/>
<path class="st3" d="M7,16.3c0-0.2,0-0.3,0-0.5c0,0,0-0.1,0.1-0.1c0.2,0,0.4,0,0.6,0c0.1,0,0.2,0.1,0.3,0.2c0,0.2,0,0.4,0,0.5
	c0,0.3,0,0.5,0,0.8c0,0.1,0,0.2-0.1,0.3c-0.1,0.1-0.1,0.1-0.2,0.1c-0.1,0-0.2,0-0.3,0c-0.1,0-0.2,0-0.2,0c0,0-0.1,0-0.1,0
	c0-0.4,0-0.8-0.1-1.2C7,16.4,7,16.4,7,16.3L7,16.3z"/>
<path class="st3" d="M16.4,10.4c0.1,0,0.1,0,0.2,0c0.1,0,0.1,0.1,0.1,0.2c0,0.3,0.1,0.5,0.1,0.8c0,0.1,0,0.2-0.1,0.2c0,0,0,0,0,0
	c-0.1,0-0.3,0-0.4,0c0,0,0,0,0,0c0-0.2-0.1-0.5-0.1-0.7c0-0.1,0-0.3,0-0.4c0-0.1,0-0.1,0.1-0.1C16.1,10.4,16.2,10.4,16.4,10.4z"/>
<path class="st3" d="M16.2,8.8L16.2,8.8c0.2,0,0.2,0,0.2,0.2c0,0.3,0.1,0.6,0.1,0.8c0,0.1,0,0.2-0.1,0.2c0,0,0,0,0,0
	c-0.1,0-0.3,0-0.4,0c0,0-0.1,0-0.1,0c0,0,0,0-0.1,0c0-0.3-0.1-0.7-0.1-1c0,0,0-0.1,0-0.1c0,0,0,0,0,0C16,8.9,16.1,8.8,16.2,8.8
	L16.2,8.8z"/>
<path class="st3" d="M10.2,16.8c0,0,0,0.1,0,0.1c0.1,0.2,0.1,0.4,0.2,0.7c0,0.2,0.1,0.5,0.1,0.7c0,0,0,0,0,0c-0.2,0-0.4,0-0.5,0
	c0,0,0,0,0,0C9.9,18,10,17.8,10,17.5C10.1,17.2,10.1,17,10.2,16.8L10.2,16.8L10.2,16.8z"/>
<path class="st3" d="M9.6,10c0-0.2,0-0.4,0-0.6c0,0,0-0.1,0.1-0.1c0.1,0,0.2,0,0.3,0c0.1,0,0.2,0.1,0.3,0.2c0,0,0,0,0,0.1
	c0,0.2,0,0.4,0,0.7c0,0,0,0.1,0,0.1c0,0.1-0.1,0.2-0.2,0.2c-0.1,0-0.3,0-0.4,0c0,0,0,0,0-0.1C9.7,10.4,9.6,10.2,9.6,10L9.6,10z"/>
<path class="st3" d="M21.6,17.3C21.6,17.3,21.6,17.3,21.6,17.3c-0.2,0-0.4,0-0.6,0.1c0,0-0.1,0-0.1-0.1c0-0.2,0-0.5,0.1-0.7
	c0-0.3,0.1-0.5,0.1-0.8c0,0,0,0,0,0C21.3,16.3,21.4,16.8,21.6,17.3z"/>
<path class="st3" d="M20.3,8.5c0,0,0.1,0,0.1,0c0.1,0,0.2,0.1,0.2,0.2c0,0.2,0.1,0.5,0.1,0.7c0,0,0,0.1,0,0.1c0,0.1-0.1,0.1-0.2,0.1
	c-0.1,0-0.2,0-0.3,0c0,0-0.1,0-0.1,0C20.1,9.4,20,9,20,8.6c0,0,0-0.1,0.1-0.1C20.1,8.5,20.2,8.5,20.3,8.5z"/>
<path class="st3" d="M19.7,18.1c0,0.1,0,0.2-0.1,0.3c0,0-0.1,0.1-0.2,0.1c-0.1,0-0.2,0-0.3,0c-0.1,0-0.3-0.2-0.3-0.3
	c0-0.5-0.1-0.9-0.1-1.4c0-0.4-0.1-0.8-0.1-1.2c0-0.2,0.1-0.4,0.3-0.4c0,0,0,0,0,0c0.1,0,0.2,0,0.3,0c0.1,0,0.1,0.1,0.2,0.2
	c0,0.1,0.1,0.3,0.1,0.5c0,0.4,0.1,0.8,0.1,1.2c0,0.3,0.1,0.6,0.1,0.9C19.6,18,19.6,18.1,19.7,18.1z"/>
<path class="st3" d="M23.3,14.8c0.1,0,0.1,0,0.2,0c0.1,0,0.2,0.1,0.2,0.2c0,0.1,0,0.2,0.1,0.3c0,0.2,0.1,0.5,0.1,0.7
	c0.1,0.4,0.1,0.9,0.2,1.3c0,0.1,0,0.2,0.1,0.3c0,0.1,0,0.2,0,0.3c0,0.1-0.1,0.1-0.1,0.1c-0.1,0-0.2,0-0.3,0c-0.1,0-0.2,0-0.3,0
	c0,0-0.1,0-0.1,0c0-0.3-0.1-0.7-0.1-1c0-0.3-0.1-0.6-0.1-0.8c-0.1-0.4-0.1-0.7-0.1-1.1c0-0.1,0-0.1,0-0.2c0,0,0-0.1,0-0.1
	C23,14.8,23.1,14.8,23.3,14.8z"/>
<path class="st3" d="M12.4,11.2c-0.1,0-0.1,0-0.2,0c-0.1,0-0.2,0-0.4,0c-0.1,0-0.1,0-0.1-0.1c0.1-0.4,0.1-0.7,0.2-1.1
	c0-0.1,0-0.1,0-0.2l0,0C12.1,10.3,12.2,10.7,12.4,11.2z"/>
</svg>
