<svg xmlns="http://www.w3.org/2000/svg" width="65.8" height="65.8" viewBox="0 0 17.41 17.41"><circle cx="8.705" cy="8.704" r="8.573" fill="#fff" stroke="#fff" stroke-width=".265"/><g fill="#0f679f"><path d="M8.089 15.945c-.74-.071-1.513-.242-1.827-.403-.047-.025-.099-.043-.152-.051-.056 0-.362-.128-.464-.194a.61.61 0 0 0-.141-.06c-.1-.023-.722-.394-.879-.523a.87.87 0 0 0-.168-.117c-.089-.034-.595-.462-.832-.705-.295-.301-.92-1.041-.985-1.167-.04-.073-.085-.143-.135-.21a3.16 3.16 0 0 1-.307-.57 3.19 3.19 0 0 0-.134-.295l-.135-.294-.094-.27a7.33 7.33 0 0 1-.309-1.167c-.271-1.787.089-3.604 1.004-5.069.522-.833 1.226-1.58 1.98-2.098.34-.235.775-.5.816-.5a.46.46 0 0 0 .117-.064c.202-.139.871-.387 1.444-.54.678-.179.956-.211 1.833-.21l1.1.054a9.52 9.52 0 0 1 1.307.344c.395.137 1.194.536 1.533.769l.42.28c.181.115.692.582.978.892a7.66 7.66 0 0 1 1.543 2.624c.163.488.229.773.296 1.31.133 1.042.084 1.926-.161 2.896-.186.736-.726 1.829-1.223 2.477-.413.539-1.32 1.392-1.768 1.665l-.147.098-.336.191c-.572.315-1.174.568-1.548.653l-.176.05c-.028.018-.463.107-.74.15-.175.03-1.154.084-1.375.079l-.335-.025zm-1.7-2.462l-.017-1.84v-.532l-1.877.007-1.895.027c-.023.023.263.62.416.867.144.235.498.714.725.982.367.432.843.85 1.355 1.192.378.251 1.088.606 1.214.606h.098zm5.156 1.108c.883-.44 1.663-1.062 2.287-1.825.218-.277.546-.775.642-.98l.103-.196c.056-.073.174-.396.16-.435s-.206-.042-1.732-.042l-1.84.017-.124.018v1.822l.048 1.822c.027 0 .232-.09.456-.2zm-8.207-4.7c.226-.074.302-.135.398-.322a.63.63 0 0 0 .07-.335c.005-.45-.098-.591-.611-.84-.403-.198-.387-.178-.4-.494-.006-.133.002-.176.047-.223.199-.219.497-.159.644.13.065.132.149.183.24.148.125-.048-.018-.401-.244-.593-.142-.122-.153-.125-.316-.124-.223.002-.333.043-.452.163-.131.135-.18.288-.18.554 0 .376.08.48.517.683.309.143.39.206.45.337.063.137.066.367.01.475-.052.103-.265.24-.373.24-.158 0-.39-.21-.39-.353 0-.114-.058-.162-.176-.153-.105.01-.107.01-.114.126-.01.15.097.38.226.477.074.057.34.158.443.169.01.001.105-.027.213-.064zm1.893-.047c.054-.03.103-.068.146-.112.09-.095.108-.087.108.05 0 .098.01.123.057.137.083.027.177-.008.193-.07.023-.085-.013-1.775-.037-1.844-.016-.04-.044-.06-.087-.06-.082 0-.114.04-.137.168l-.017.101-.09-.094c-.19-.202-.476-.254-.81-.144-.21.07-.312.162-.417.382s-.138.413-.126.699c.016.386.162.644.45.795a1.23 1.23 0 0 0 .767-.008zm1.118-.578c.009-.653.01-.667.078-.798a.57.57 0 0 1 .158-.194c.191-.13.47-.037.612.2l.074.129.007.664.01.664h.09c.183 0 .174.025.174-.587 0-.568-.03-.823-.12-.993-.125-.243-.374-.405-.622-.407a.43.43 0 0 0-.392.169l-.1.113v-.095c0-.125-.053-.194-.136-.183-.062.009-.066.021-.083.252-.01.133-.018.57-.02.972l-.004.729.101.01.132.017c.023.002.033-.176.04-.662zm1.955-.222v-.889l.083.018c.045.01.123.01.174.001.078-.016.092-.028.092-.09 0-.12-.035-.15-.156-.131-.076.012-.115.007-.138-.022-.018-.021-.039-.168-.048-.335-.016-.328-.037-.371-.16-.33l-.076.025-.013.32-.014.318-.294.029v.106c0 .096.007.108.067.116l.155.02.086.015v.68l.018.842c.018.17.029.185.164.19l.06.003zm1.694.82a1.3 1.3 0 0 0 .199-.144l.106-.096.01.124c.002.07.022.139.04.153.051.043.152.005.18-.069.015-.036.025-.475.025-.978v-.913l-.113.009-.115.009-.007.133c-.01.15-.045.21-.073.122-.01-.032-.092-.112-.183-.177-.141-.103-.18-.119-.3-.119-.16 0-.402.059-.548.133-.122.062-.239.234-.34.498-.09.237-.096.508-.014.765a.79.79 0 0 0 .528.578c.137.052.48.036.605-.028zm1.946.04c.053 0 .057-.015.075-.569l.028-.579.394-.024c.232-.01.394-.029.404-.046s.021-.062.021-.1c0-.06-.014-.072-.1-.087-.138-.014-.277-.019-.416-.017h-.316v-.934l.393-.012c.349-.01.397-.018.43-.064.024-.039.035-.086.03-.132l-.006-.08-.533.004-.55.022c-.01.01-.023.612-.026 1.336l-.007 1.316.06-.016a.55.55 0 0 1 .119-.016zm2.361-.035c.15-.078.44-.434.44-.538 0-.04-.055-.07-.133-.07-.026 0-.106.067-.177.15-.139.163-.339.279-.483.279a.94.94 0 0 1-.403-.183c-.094-.08-.151-.193-.16-.316l-.019-.136.451-.018.727-.018h.279l-.001-.1c0-.248-.133-.561-.325-.77a.51.51 0 0 0-.287-.186c-.218-.061-.37-.058-.559.015-.29.11-.466.369-.525.766-.076.529.165 1.038.543 1.145.179.05.521.04.633-.02zM6.356 6.291c.01-.023.016-.852.016-1.838l-.057-1.827c-.04-.021-.07-.02-.113.009s-.092.045-.142.055c-.078.014-.781.383-1.017.534a8.69 8.69 0 0 0-1.405 1.26l-.596.858-.229.418-.119.265a1.84 1.84 0 0 0-.095.234l-.018.075H4.46l1.896-.043zm8.405-.027c-.107-.27-.228-.533-.363-.79l-.142-.242c-.256-.465-.95-1.244-1.448-1.625l-.28-.22a1.3 1.3 0 0 0-.23-.156 2.15 2.15 0 0 1-.256-.15c-.256-.166-.843-.454-.928-.454-.066 0-.066 0-.085.393v1.852l.02 1.462h3.73z"/><path d="M4.728 9.692c-.135-.047-.254-.132-.343-.245a.94.94 0 0 1-.138-.676c.064-.286.285-.525.53-.57.15-.028.362.046.492.176.15.151.198.321.186.663-.01.25-.013.265-.103.378-.188.235-.424.338-.624.274zm4.771-.015c-.289-.078-.459-.381-.44-.79a.66.66 0 0 1 .299-.583c.195-.143.312-.154.523-.05.351.176.522.655.362 1.012-.082.184-.286.376-.443.416-.15.04-.132.041-.3-.005zm3.879-.945c0-.117.037-.208.138-.332a.55.55 0 0 1 .755-.11c.155.106.26.257.28.403l.013.108-1.186.018z"/></g></svg>