<svg id="Layer_1" data-name="Layer 1" xmlns="http://www.w3.org/2000/svg" viewBox="0 0 34.02 34.02"><defs><style>.cls-1{fill:#d3d3d3;fill-rule:evenodd;}.cls-2{fill:#ec1c24;}.cls-3{fill:#231f20;}.cls-4{fill:#fff;}</style></defs><path class="cls-1" d="M17,0A17,17,0,1,1,0,17,17,17,0,0,1,17,0"/><rect class="cls-2" x="4.93" y="7.02" width="24.36" height="19.82"/><polygon class="cls-3" points="4.93 26.84 4.93 26.6 29.05 26.6 29.05 7.26 5.18 7.26 5.18 26.84 4.93 26.84 4.93 26.6 4.93 26.84 4.69 26.84 4.69 6.78 29.53 6.78 29.53 27.08 4.69 27.08 4.69 26.84 4.93 26.84"/><rect class="cls-4" x="6.54" y="8.55" width="21.24" height="16.76"/><path class="cls-3" d="M13.19,19.39V18.11c0-.1,0-.16-.12-.16h-.43v1.58h.45l.1-.14m2.06,2.1V19.76l-.14-.14h-.38l-.14.14v1.73l.14.14h.38Zm-5.33-7-.12-.14H9.2v1.58h.58l.14-.16Zm0-.8V12.36l-.14-.15H9.2v1.58h.6Zm11.15,6.71v-.6l-.14-.14h-.39l-.13.14v.6ZM19.49,15V14l-.13-.14H19l-.14.14v1l.14.14h.39Zm3.76.78V14l-.14-.14h-.39l-.13.14v1.73l.13.14h.39Zm-9.54,6.4h-.52v-2l-.12-.12h-.43v2.1h-.52V17.42h1.07a.55.55,0,0,1,.52.53v1.58a.27.27,0,0,1-.25.25.27.27,0,0,1,.25.27Zm2.07-.52a.59.59,0,0,1-.53.52h-.66a.59.59,0,0,1-.53-.52v-2a.59.59,0,0,1,.53-.52h.66a.57.57,0,0,1,.53.52Zm-5.33-7.32v1.58a.57.57,0,0,1-.53.52H8.67V11.68H9.92a.6.6,0,0,1,.53.53v1.58a.3.3,0,0,1-.28.27A.27.27,0,0,1,10.45,14.31Zm7.33,7.84H16.71a.56.56,0,0,1-.52-.52V19.1h.52v2.39l.12.14h.43V19.1h.52Zm-5.23-5.74H11.48a.55.55,0,0,1-.53-.52V13.36h.53v2.39l.13.14H12V13.36h.53Zm1.32-2.53-.14-.11-.13.11v2.53h-.53V13.36h.8Zm5.72,5.74h-.52v2.26a.28.28,0,0,0,.25.27h-.53a.29.29,0,0,1-.25-.27V19.62H18V19.1h.53v-.53s.31,0,.41-.19a1.36,1.36,0,0,0,.12-.18v.9h.52Zm2,1.56v.45a.58.58,0,0,1-.52.52h-.66a.57.57,0,0,1-.53-.52v-2a.57.57,0,0,1,.53-.52h.66a.56.56,0,0,1,.52.52v1.27H20.41v.6l.13.14h.39l.14-.14v-.31Zm-6.81-4.77h-.52V11.68h.52Zm1.07,0h-.52V13.36h.52Zm2.07,0h-.53V14l-.13-.14h-.43v2.53H16.3V13.36h1.09a.59.59,0,0,1,.53.52Zm-2.07-4.2h-.52v-.53h.52ZM20,15.11a.57.57,0,0,1-.53.52h-.58l-.08.16a.29.29,0,0,0,.27.25h.35a.59.59,0,0,1,.53.53v.37a.56.56,0,0,1-.53.52h-.62a.56.56,0,0,1-.52-.52v-.22h.52v.08l.14.14h.35l.13-.14v-.17l-.13-.14h-.56a.48.48,0,0,1-.45-.45.46.46,0,0,1,.45-.41.58.58,0,0,1-.45-.52V13.88a.58.58,0,0,1,.52-.52H19a.52.52,0,0,1,.33-.49l.11.25a.26.26,0,0,0-.19.24h.21a.57.57,0,0,1,.53.52Zm1.77-1.23h-.52v2.28a.26.26,0,0,0,.25.25H21a.26.26,0,0,1-.25-.25V13.88h-.53v-.52h.53v-.53a.84.84,0,0,0,.41-.17,1.28,1.28,0,0,1,.12-.18v.88h.52Zm2,2a.56.56,0,0,1-.52.52h-.66a.56.56,0,0,1-.53-.52v-2a.58.58,0,0,1,.53-.52h.66a.58.58,0,0,1,.52.52Zm2.07.52h-.53V14l-.13-.14h-.43v2.53h-.53V13.36h1.09a.59.59,0,0,1,.53.52Zm1.26,8.31V9.29H7.21V24.72Zm.31.34H6.9V9H27.41Zm.67.64V8.32H6.24V25.7Z"/></svg>