<svg id="Layer_1" data-name="Layer 1" xmlns="http://www.w3.org/2000/svg" viewBox="0 0 34.02 34.02"><defs><style>.cls-1{fill:pink;fill-rule:evenodd;}</style></defs><path class="cls-1" d="M17,0A17,17,0,1,1,0,17,17,17,0,0,1,17,0"/><path d="M10.58,10.27v.14a2,2,0,0,0-.33.93V22.49a1.65,1.65,0,0,0,.33.93v.13H7.67v-.13a2.22,2.22,0,0,0,.35-1v-5H5.68v5a2.2,2.2,0,0,0,.34,1v.13H3v-.13a2.2,2.2,0,0,0,.34-1v-11a2.17,2.17,0,0,0-.34-1v-.14H6v.14a2.1,2.1,0,0,0-.34,1v3.93H8V11.43a2.19,2.19,0,0,0-.35-1v-.14Z"/><path d="M20.87,23.4v.15H18.12l-.7-1.08a3.82,3.82,0,0,1-2.69,1.29c-2.09,0-3.46-1.42-3.46-3.79,0-1.67,1.07-2.72,2.21-3.61a1.08,1.08,0,0,0-.16-.23A6.19,6.19,0,0,1,12.15,13a2.69,2.69,0,0,1,2.92-2.79A2.64,2.64,0,0,1,18,13a4.55,4.55,0,0,1-1.92,3.67l1.29,2a9.93,9.93,0,0,0,.21-1.9H20v.13a1.28,1.28,0,0,0-.46.82,11.26,11.26,0,0,1-.85,2.94c.55.85,1,1.61,1.2,1.78A4.89,4.89,0,0,0,20.87,23.4Zm-4.46-2.47-1.91-3a2.66,2.66,0,0,0-1,2A1.51,1.51,0,0,0,15,21.65,1.87,1.87,0,0,0,16.41,20.93ZM14.1,13c0,.59.23,1,.93,2.08a2.82,2.82,0,0,0,1-2c0-.44-.18-1.28-.95-1.28S14.1,12.55,14.1,13Z"/><path d="M23.09,21.9c.78,0,1.4-.63,1.4-1.73s-.62-2-1.88-3.37A5.41,5.41,0,0,1,20.91,13c0-1.71,1.29-2.85,3.24-2.85a3.94,3.94,0,0,1,1.75.29L26,13h-.15A2.19,2.19,0,0,0,24.15,12a1,1,0,0,0-.89,1,2.67,2.67,0,0,0,.85,1.89c1.73,1.82,2.6,3.45,2.6,5.2a3.35,3.35,0,0,1-3.49,3.58A2.86,2.86,0,0,1,21.08,23L21,20.46h.15A2,2,0,0,0,23.09,21.9Z"/><path d="M30,11.45V23.17c0,2.24-.93,3.6-3.28,3.6a2.21,2.21,0,0,1-1.59-.64l.24-1.78h.1a1.42,1.42,0,0,0,1.19.49c.72,0,1.06-.47,1.06-1.4v-12a2.27,2.27,0,0,0-.32-1v-.14h2.94v.14A2.24,2.24,0,0,0,30,11.45Z"/></svg>