<svg id="Layer_1" data-name="Layer 1" xmlns="http://www.w3.org/2000/svg" viewBox="0 0 34.02 34.02"><defs><style>.cls-1{fill:#964b00;}.cls-1,.cls-2,.cls-3{fill-rule:evenodd;}.cls-2{fill:#ec1c24;}.cls-3,.cls-4{fill:#fff;}</style></defs><path class="cls-1" d="M17,0A17,17,0,1,1,0,17,17,17,0,0,1,17,0"/><path class="cls-2" d="M23.59,9h6.69l-2.53,3.19V18l1.54,1.94v5.43H24.14l-1.49-1.9H18.9L17,25.86l-1.88-2.4H11.38l-1.51,1.9H4.75V20L6.25,18V12.25L3.74,9h6.61A16.76,16.76,0,0,1,17,7.63,16.58,16.58,0,0,1,23.59,9"/><path class="cls-3" d="M22.94,9.8h5.42l-1.65,1.91v6.8l1.38,1.75v4.27H24.63l-1.34-1.72H18.72L17,25,15.3,22.81H10.6L9.24,24.53H6V20.11L7.3,18.38V12.07L5.47,9.8H11a15.09,15.09,0,0,1,6-1.27A14.76,14.76,0,0,1,22.94,9.8"/><path class="cls-2" d="M22.25,10.26h4.87L26,11.81v6.86l1.36,1.76v3.51H25L23.6,22.2H18.55L17,24.15l-1.49-1.8H10.45L9,24.12H6.56V20.29L8,18.6V11.91L6.53,10.26h5a13.72,13.72,0,0,1,5.4-1.14,13.47,13.47,0,0,1,5.35,1.14"/><path class="cls-3" d="M21.75,19.44A2.61,2.61,0,0,1,22,18.16a1.11,1.11,0,0,1,.93-.54.93.93,0,0,1,.85.56h0V16.49h.79v4.73h-.79v-.43l-.18.05a1.39,1.39,0,0,0-.21.19l-.23.21L23,21.3a1.05,1.05,0,0,1-.62-.18,1.5,1.5,0,0,1-.45-.64,2.83,2.83,0,0,1-.17-1"/><path class="cls-2" d="M22.57,19.5a2,2,0,0,0,.13.71.53.53,0,0,0,.49.34.55.55,0,0,0,.49-.28,1.48,1.48,0,0,0,.18-.7,2.09,2.09,0,0,0-.14-.82.54.54,0,0,0-.52-.34.49.49,0,0,0-.47.29,1.73,1.73,0,0,0-.16.8"/><path class="cls-3" d="M18.52,21.22V17.69h.74v.55a1,1,0,0,1,.91-.62,1,1,0,0,1,.77.31,1.36,1.36,0,0,1,.29.85v2.44h-.79v-2.1a1.09,1.09,0,0,0-.1-.52c-.06-.13-.22-.19-.43-.19a.54.54,0,0,0-.47.23,1.14,1.14,0,0,0-.14.59v2h-.78"/><path class="cls-3" d="M15.26,20.31a1.2,1.2,0,0,1,.23-.79,1.08,1.08,0,0,1,.62-.34l.7-.12c.16,0,.25-.13.25-.25a.4.4,0,0,0-.45-.45.59.59,0,0,0-.36.11.51.51,0,0,0-.16.4h-.75a1.74,1.74,0,0,1,.18-.71.92.92,0,0,1,.39-.39,1.55,1.55,0,0,1,.7-.15,1.44,1.44,0,0,1,.77.18.88.88,0,0,1,.33.4,1.5,1.5,0,0,1,.09.44v1.91c0,.31.05.49.16.54v.13h-.82a2.4,2.4,0,0,1-.07-.43,1.07,1.07,0,0,1-.9.51,1,1,0,0,1-.63-.21,1,1,0,0,1-.28-.78"/><path class="cls-2" d="M17.06,19.5a1,1,0,0,1-.42.19,2.07,2.07,0,0,0-.47.16.54.54,0,0,0-.13.42.38.38,0,0,0,.11.31.31.31,0,0,0,.25.09.85.85,0,0,0,.46-.16.81.81,0,0,0,.2-.54V19.5"/><rect class="cls-4" x="13.93" y="16.49" width="0.78" height="4.73"/><path class="cls-3" d="M10.6,20.09h.8c0,.33.21.49.64.49a.56.56,0,0,0,.37-.1l.13-.23a.23.23,0,0,0-.16-.25l-.68-.19a1.66,1.66,0,0,1-.72-.36.83.83,0,0,1-.25-.67A1.22,1.22,0,0,1,11,18a1.19,1.19,0,0,1,.9-.33,1.14,1.14,0,0,1,1.31,1.16h-.78a.5.5,0,0,0-.12-.33.54.54,0,0,0-.4-.13c-.3,0-.46.13-.46.34s.2.27.58.36a3.8,3.8,0,0,1,.94.35.81.81,0,0,1,.33.74A1.08,1.08,0,0,1,13,21a1.37,1.37,0,0,1-.94.32A1.74,1.74,0,0,1,11,21a1.14,1.14,0,0,1-.42-.92"/><rect class="cls-4" x="9.25" y="16.49" width="0.82" height="4.73"/><polyline class="cls-3" points="21.03 15.98 21.03 11.25 21.81 11.25 21.81 13.81 22.79 12.47 23.73 12.47 22.7 13.85 23.77 15.98 22.85 15.98 22.13 14.48 21.81 14.9 21.81 15.98 21.03 15.98"/><path class="cls-3" d="M17.75,14.3A2.9,2.9,0,0,1,18,13a1.17,1.17,0,0,1,1.06-.61,1.33,1.33,0,0,1,.93.36,1.36,1.36,0,0,1,.43,1h-.8a.89.89,0,0,0-.12-.4.51.51,0,0,0-.37-.14.54.54,0,0,0-.48.26,1.58,1.58,0,0,0-.16.73,2.5,2.5,0,0,0,.13.83.47.47,0,0,0,.47.3.53.53,0,0,0,.34-.13.62.62,0,0,0,.19-.48h.78a1.7,1.7,0,0,1-.39,1,1.22,1.22,0,0,1-.95.38,1.33,1.33,0,0,1-1-.35,2.11,2.11,0,0,1-.4-1.4"/><path class="cls-3" d="M14.33,14.23a2.16,2.16,0,0,1,.39-1.3,1.31,1.31,0,0,1,1.14-.55,1.4,1.4,0,0,1,.8.24,1.58,1.58,0,0,1,.52.64,2.44,2.44,0,0,1,.2,1A2.09,2.09,0,0,1,17,15.55a1.36,1.36,0,0,1-1.11.5,1.3,1.3,0,0,1-1.14-.53,2.19,2.19,0,0,1-.39-1.29"/><path class="cls-2" d="M16.57,14.23a1.57,1.57,0,0,0-.16-.73.58.58,0,0,0-.55-.32.54.54,0,0,0-.55.32,1.71,1.71,0,0,0-.17.73c0,.68.25,1,.72,1s.71-.36.71-1"/><path class="cls-3" d="M10.55,16V11.25h2a1.19,1.19,0,0,1,.93.4,1.41,1.41,0,0,1,.34.94,1.45,1.45,0,0,1-.16.7,1,1,0,0,1-.46.46.56.56,0,0,1,.41.36,2.32,2.32,0,0,1,.09.68V15l0,.23a2,2,0,0,0,.06.46c0,.11.06.19.14.19V16H13c0-.1-.05-.22-.05-.31l0-.27c0-.09,0-.21,0-.31v-.28a.82.82,0,0,0-.13-.51.61.61,0,0,0-.49-.16h-.9V16h-.82"/><path class="cls-2" d="M11.37,13.35h1A.57.57,0,0,0,13,12.7a.75.75,0,0,0-.12-.42.55.55,0,0,0-.46-.18H11.37v1.25"/></svg>