<svg xmlns="http://www.w3.org/2000/svg" width="65.8" height="65.8" viewBox="0 0 17.41 17.41"><circle cx="8.71" cy="8.704" r="8.573" fill="#fff" stroke="#fff" stroke-width=".265"/><g fill="#c8242c"><path d="M8.5 11.644c0-.009-.007-.016-.016-.016l-.759-.436c-.718-.317-1.316-.447-2.062-.447a4.74 4.74 0 0 0-1.753.317 4.61 4.61 0 0 0-.992.513.63.63 0 0 1-.108.07c-.014 0-.438-.52-.48-.588-.021-.033-.013-.049.11-.227.294-.429.505-.994.586-1.575.13-.92-.085-1.88-.586-2.62l-.165-.244c-.01-.013-.006-.038.01-.072.033-.07.47-.547.506-.553a.8.8 0 0 1 .206.106c.582.364 1.297.62 1.996.714.097.013.308.028.47.034 1.034.043 2.055-.248 2.911-.829a1.16 1.16 0 0 1 .153-.093c.01 0 .081.045.158.1.431.305.943.527 1.586.692.353.09.547.11 1.147.11l.732-.036c.792-.142 1.47-.42 2.03-.827l.151-.102c.029 0 .605.607.641.675.02.038.018.047-.05.133a4.3 4.3 0 0 0-.512.966 4.57 4.57 0 0 0-.181.759 5.18 5.18 0 0 0 0 1.095c.127.675.301 1.199.697 1.732l-.606.654-.165-.1a5.03 5.03 0 0 0-1.658-.694 3.81 3.81 0 0 0-.772-.106c-.685-.032-1.267.041-1.849.234a4.7 4.7 0 0 0-1.205.595c-.124.08-.17.099-.17.066zm.566-1.68c.122-.035.136-.044.234-.143.207-.21.268-.394.25-.735-.016-.286-.064-.401-.232-.537-.117-.095-.251-.168-.395-.214-.185-.061-.295-.157-.295-.261 0-.05.088-.154.132-.154.074 0 .22.127.22.191 0 .05.095.067.327.062l.209-.006c-.004-.171-.043-.343-.118-.477-.075-.117-.179-.212-.302-.276-.087-.043-.105-.045-.3-.045s-.215.001-.302.044a.98.98 0 0 0-.355.34 1.18 1.18 0 0 0 0 .782.79.79 0 0 0 .264.295 2.17 2.17 0 0 0 .245.12c.312.13.364.168.364.267 0 .072-.034.15-.079.173s-.139.02-.193-.007c-.106-.069-.121-.155-.174-.25h-.528c-.005.438.25.765.55.85.11.025.345.016.478-.02zm1.736 0c.119-.057.222-.143.298-.25.117-.176.23-.508.23-.677v-.074c-.164-.022-.335-.004-.49.016-.032.072-.061.157-.084.227-.06.122-.114.16-.219.148-.198-.022-.284-.22-.284-.652-.001-.364.05-.592.159-.687.071-.061.15-.065.233-.01.133.161.152.241.19.41h.495c-.11-.612-.216-.902-.677-1.049-.206-.038-.346-.004-.528.128-.328.232-.462.638-.436 1.311.01.303.029.408.095.568.114.275.265.463.44.546.225.102.343.095.578.045zm1.86-.02c.201-.091.421-.37.525-.662.04-.115.058-.421.042-.787-.013-.321-.04-.461-.126-.638-.085-.17-.276-.378-.413-.445-.218-.082-.409-.037-.608.007-.399.186-.644.8-.577 1.443.063.582.293.97.66 1.104a.79.79 0 0 0 .498-.021zm-8.169-.889l.562-.008v-.559l-.583-.009v-.426l.749-.02.012-.593c-.44 0-.88 0-1.32.001l.027 2.456c.007.043.036.047.33.05l.203.004.02-.896zm3.321-1.616H7.25l.027 2.466c.013.03.068.036.364.042l.173.003zm-1.84 1.632c.01-.016.042-.02.15-.013a.62.62 0 0 1 .171.03c.053.026.092.134.103.278l.057.53c.015.038.017.038.262.038.297 0 .294.001.266-.157l-.086-.796c-.056-.102-.105-.159-.21-.215l.066-.068a1.39 1.39 0 0 0 .099-.117c.113-.166.108-.652-.01-.886a.44.44 0 0 0-.264-.218c-.446-.047-.654-.033-1.18-.039l.022 2.477c.194.032.312.02.538.02l.016-.864z"/><path d="M12.293 9.347c-.067-.034-.131-.124-.17-.236s-.052-.64-.017-.803c.03-.146.097-.272.17-.319s.158-.049.215-.001c.058.043.148.238.177.378s.03.52 0 .663c-.029.137-.1.267-.162.297l-.074.036c-.041.02-.077.017-.14-.014zM5.949 8.294c.007-.287.007-.285.194-.273.057.002.112.013.166.031.135.065.157.3.036.402-.048.04-.088.048-.292.065l-.11.007z"/></g><path d="M14.23 12.06a4.63 4.63 0 0 0-2.173-.877c-.375-.038-.752-.038-1.127 0-.781.11-1.523.407-2.164.867a.72.72 0 0 1-.16.098c-.033-.009-.063-.025-.089-.048-.386-.286-.811-.515-1.262-.68-1.094-.387-2.207-.358-3.297.085a4.21 4.21 0 0 0-.855.469l-.166.12-.094.062-.095-.103c-.207-.225-.807-.948-.807-.971 0-.008.041-.061.094-.123.248-.297.556-.922.668-1.361.08-.303.104-.51.103-.847a3.02 3.02 0 0 0-.125-.904 3.89 3.89 0 0 0-.695-1.313c-.132-.153-.142-.114.1-.384l.251-.286.528-.572c.007 0 .08.05.162.109.18.133.472.31.686.42a4.58 4.58 0 0 0 2.324.459c.677-.052 1.334-.25 1.926-.582.194-.112.398-.242.441-.287.015-.013.032-.023.042-.023a.21.21 0 0 0 .07-.049c.045-.04.06-.045.092-.032.021.008.15.088.286.18.458.306.975.537 1.513.674a4.67 4.67 0 0 0 1.795.068 4.68 4.68 0 0 0 2.07-.908.82.82 0 0 1 .138-.093 32.25 32.25 0 0 1 1.095 1.125c.027.042.033.035-.144.237-.314.362-.542.815-.68 1.354-.053.21-.064.281-.078.54-.025.424-.004.705.08 1.03.126.529.383 1.018.747 1.422.064.067.066.07.04.108s-.536.58-.882.933l-.2.204zm.394-.25l.681-.755c.022-.04.022-.04-.182-.339-.379-.554-.591-1.205-.61-1.876-.03-.791.228-1.573.747-2.263a1.15 1.15 0 0 0 .135-.204l-.955-.985c-.009 0-.1.061-.203.135a4.79 4.79 0 0 1-2.225.874c-.47.045-.944.027-1.41-.053-.552-.108-1.225-.389-1.757-.733L8.6 5.453l-.065.036-.279.175c-.451.288-.945.503-1.464.635-.931.24-2.093.136-2.981-.27-.316-.14-.618-.31-.901-.508-.022-.017-.047-.03-.074-.038-.009 0-.124.12-.254.267l-.53.647c0 .023.04.084.103.162l.105.135c0 .005.043.081.097.168.258.41.46.954.522 1.42a5.86 5.86 0 0 1 0 .9c-.048.403-.137.7-.326 1.097-.12.247-.26.483-.42.706-.025.03-.047.062-.064.097a.51.51 0 0 0 .076.108c.097.123.691.784.702.784s.105-.065.224-.144c.529-.348 1.12-.594 1.74-.723a4.11 4.11 0 0 1 1.059-.083c.51.013.84.069 1.313.225.446.148.737.289 1.196.584l.232.14c.033.012.073-.009.283-.149a4.81 4.81 0 0 1 2.386-.805c.988-.052 2.002.238 2.867.821l.268.164c.015 0 .109-.086.21-.194z"/></svg>