<svg xmlns="http://www.w3.org/2000/svg" width="65.8" height="65.8" viewBox="0 0 17.41 17.41"><circle cx="8.705" cy="8.704" r="8.573" fill="#fff" stroke="#fff" stroke-width=".265"/><g fill="#2b4a84"><path d="M8.352 14.899l-.29-.04c-1.118-.146-2.574-.756-3.27-1.37-.384-.354-.743-.735-1.072-1.141-.156-.209-.317-.482-.295-.504a.56.56 0 0 1 .182.028c.101.026.28.042.448.042.277 0 .28 0 .515-.119.39-.196.579-.474.549-.816-.038-.44-.23-1.026-.523-1.601-.127-.246-.355-.535-.474-.598-.055-.03-.299.03-.404.099-.132.085-.17.434-.061.553.067.07.243.164.316.166.112 0 .278-.23.24-.335-.005-.018-.067-.04-.134-.05a1.29 1.29 0 0 1-.21-.051c-.077-.032-.084-.042-.056-.091a.33.33 0 0 1 .28-.12c.059.025.113.06.16.104.095.089.095.091.105.335.01.23.005.257-.064.392-.107.208-.24.273-.503.252-.6-.052-.945-.33-1.084-.87-.023-.097-.033-.398-.031-1.131l.079-3.227c.01-.009.138-.048.287-.086.557-.143 1.028-.37 1.775-.854l.767-.499c.646-.42 1.062-.614 1.662-.77.539-.141.907-.193 1.37-.193.823 0 1.414.155 2.842.747l.83.335.346.123c.114.04.205.08.205.093s-.145.175-.323.36c-.54.57-.606.67-.648 1.007-.058.448.113.996.432 1.403.176.225.277.269.632.269.233.001.32-.01.463-.06.207-.07.424-.215.63-.416.139-.136.15-.14.189-.097.063.07.194.377.31.724a5.86 5.86 0 0 1 .288 1.755v.289l-.137.052a2.17 2.17 0 0 1-.225.069c-.118.026-.157.099-.177.317a9.68 9.68 0 0 1-.224 1.17c-.083.264-.184.69-.184.773 0 .058.041.12.17.252l.17.176-.124.228c-.202.377-.43.672-.8 1.04-.643.636-1.296 1.106-1.968 1.41-.806.367-1.278.468-2.264.478-.341.006-.654.005-.698-.001zm-1.848-1.5l.344-.168c.024-.024-.02-.5-.075-.826-.035-.196-.018-.358.038-.358.01 0 .065.102.118.23.234.534.278.611.458.794.366.372.888.483 1.387.297.188-.07.176-.101-.051-.123-.373-.034-.698-.17-.886-.376s-.333-.583-.357-.955l-.011-.198.133-.104a.7.7 0 0 0 .204-.247l.071-.147.018.105c.01.058.03.224.045.371.05.457.19.72.44.814.109.042.129.042.293.001.252-.063.389-.15.481-.315.13-.222.183-.437.214-.863l.03-.393-.073-.11c-.204-.31-.394-.468-.567-.468a.7.7 0 0 0-.414.168c-.05.046-.137.156-.198.248-.145.218-.2.221-.28.011-.075-.202-.227-.402-.356-.467-.093-.045-.155-.052-.513-.05s-.428.012-.56.062c-.308.118-.371.23-.33.57.018.151.05 1.91.048 2.61 0 .017.005.033.014.033s.159-.067.335-.146zm6.305-1.184c.056-.125.038-.238-.05-.311-.044-.038-.102-.07-.128-.07-.069 0-.186-.1-.186-.16 0-.085.05-.154.113-.154.093-.002.129-.04.15-.161.027-.14.02-.152-.106-.242-.121-.083-.182-.188-.137-.233.014-.016.107-.034.202-.042l.175-.014-.017-.27-.235-.085a2.6 2.6 0 0 0-.373-.101l-.136-.018-.02.103c-.03.145-.022 1.428.005 1.521.024.074.054.09.34.19l.344.112c.015.001.041-.028.059-.066zm-2.474-.13c.117-.036.145-.056.179-.134.09-.217.14-.59.184-1.34.02-.377.005-.409-.197-.407-.182 0-.235.022-.253.101l-.053.596-.056.626c-.028.183-.135.15-.196-.06-.029-.204-.046-.409-.05-.615-.015-.398-.03-.53-.057-.547s-.309-.006-.337.02.051 1.3.091 1.444c.077.297.194.394.446.37.087-.007.222-.031.299-.055zm1.175-.102c.007-.045.026-.317.04-.604.015-.317.037-.539.055-.56a.31.31 0 0 1 .129-.062c.142-.04.168-.081.15-.254a.54.54 0 0 0-.032-.162c-.027-.03-.396-.085-.671-.102-.344-.021-.365-.007-.32.219.035.166.068.22.14.22.081 0 .1.1.129.653.027.573.037.644.093.69.045.037.196.073.242.057.017-.006.037-.05.045-.095zM8.962 9.756c.353-.03.515-.09.664-.251.142-.153.188-.276.206-.53.02-.312-.005-.43-.127-.594-.146-.193-.15-.23-.05-.445s.13-.46.08-.61c-.042-.125-.214-.272-.38-.321-.282-.084-.619-.038-1.268.172-.212.067-.302.06-.353-.04-.07-.127-.194-.06-.18.098.009.083.015.086.133.1.158.018.184.044.207.217a19.78 19.78 0 0 1-.005 1.9c-.017.16-.017.243 0 .26.064.064.58.086 1.072.044zm3.235-.273l.018-.248c.016-.24.014-.244-.042-.231l-.166.025-.107.016-.017-.743-.036-.759a1.21 1.21 0 0 0-.262-.031l-.24-.012-.015.135c-.01.073-.016.51-.016.969 0 .796.002.836.052.87.04.027.138.033.44.024l.392-.015zm.923-.543l.032-.689c.005-.147.005-.153.115-.224s.111-.077.12-.256a.58.58 0 0 0-.019-.212c-.036-.041-.63-.07-.878-.043-.225.023-.263.059-.277.265-.011.17.016.238.104.238.025 0 .088.036.14.081l.093.082v.544c0 .608.011.731.076.75a1.88 1.88 0 0 0 .253.007l.21-.005zm-2.177.501c.058-.031.094-.253.056-.354-.026-.064-.038-.068-.188-.068-.141 0-.169-.01-.236-.077-.137-.137-.101-.184.18-.24l.165-.033-.01-.2-.004-.2-.169-.018c-.192-.022-.239-.052-.239-.153 0-.09.033-.105.263-.105.212 0 .218-.008.204-.291l-.007-.17-.13-.014-.49-.005-.357.009.004 1.915.105.01c.232.022.809.018.854-.005zm-5.212-.936c.331-.068.58-.17.58-.24 0-.02-.001-.036-.004-.036a3.03 3.03 0 0 0-.151.04c-.194.05-.687.05-.858 0a1.02 1.02 0 0 1-.253-.131 3.31 3.31 0 0 1-.575-.672c-.089-.176-.159-.521-.174-.856-.015-.299-.01-.328.065-.566.153-.48.224-.584.616-.89.369-.287.424-.35.711-.834l.302-.554c-.069.024-.134.057-.193.099l-.562.29-.59.306c-.36.214-.72.671-.892 1.137a2.01 2.01 0 0 0-.188.999c-.002.388.005.455.06.618.154.46.465.895.801 1.125a1.75 1.75 0 0 0 .48.236c.123.032.47.004.826-.071zm.1-1.178c.338-.156.59-.63.591-1.11.002-.455-.154-.875-.386-1.035-.126-.087-.139-.09-.333-.079-.352.02-.586.18-.759.52-.167.326-.22.699-.15 1.059.077.365.182.52.44.636.228.1.394.105.598.01zm1.372-.48l.115-.047-.022-.621c-.031-.886-.036-.825.064-.92.085-.079.087-.083.079-.285l-.007-.206-.29.004c-.24.001-.323.014-.487.072-.109.037-.212.089-.23.114s-.034.123-.034.234v.19l.125.022c.192.036.2.061.22.838l.022.67c.005.026.344-.024.446-.066zm1.19-.326c.054-.063.074-.307.078-.89l.024-.5a.47.47 0 0 1 .107-.16c.08-.082.085-.096.071-.221-.028-.226-.055-.236-.525-.166-.424.063-.41.057-.44.166-.018.071-.028.144-.028.218 0 .103.01.125.066.15.129.058.138.108.17.832l.042.702c.022.034.392-.075.436-.13zm1.22-.107c.136-.031.312-.208.411-.408.184-.374.14-.883-.115-1.341-.11-.2-.204-.252-.451-.252-.332 0-.533.161-.649.521-.043.14-.055.244-.055.492-.002.295.005.33.084.527.146.366.277.487.527.485a1.27 1.27 0 0 0 .248-.024zm1.051-.057c.085-.038.101-.113.083-.375-.02-.255.01-.329.091-.233.028.033.07.128.094.21.065.225.159.392.23.412.048.01.097.015.146.016.068 0 .091-.015.111-.068.036-.093.034-1.658-.002-1.723-.055-.106-.257-.163-.364-.106-.038.02-.051.074-.066.268-.02.256-.029.297-.07.271-.046-.027-.155-.27-.185-.408-.026-.116-.042-.138-.117-.172-.099-.04-.243-.047-.297-.015s-.077.165-.051.268c.014.05.033.436.043.858l.04.796c.024.038.232.04.315 0z"/><path d="M8.483 15.573c-.957-.064-1.793-.293-2.83-.78-.499-.239-.736-.407-1.495-1.07-.529-.46-1.262-1.357-1.49-1.823a2.98 2.98 0 0 1-.15-.337c-.01-.054.079-.11.332-.212l.36-.148.205-.088.176.09a.78.78 0 0 0 .355.099c.218.014.42-.048.5-.15.069-.086.057-.25-.032-.435-.07-.143-.028-.135-.478-.071-.529.077-1.226-.16-1.506-.517a1.3 1.3 0 0 1-.302-.662c-.098-.497-.135-.913-.155-1.7l.033-3.823c.005-.006.188 0 .402.017a3.69 3.69 0 0 0 .654.005c.474-.051.644-.123 1.256-.531l.613-.394.548-.35c.648-.437 1.181-.649 1.972-.787.47-.084.497-.086 1.283-.086.803.002.803.002 1.197.086.545.116.739.184 1.33.467.621.297.974.436 1.386.543.297.077.329.081.725.07.228-.006.414 0 .414.01s-.041.19-.093.397c-.062.246-.123.424-.178.518-.048.08-.256.315-.482.54-.218.219-.432.456-.473.53-.072.123-.075.148-.075.434 0 .277.005.315.073.453a.41.41 0 0 0 .416.28c.097.004.218-.005.267-.02.22-.074.482-.397.67-.827l.142-.295c.036-.035.371.317.525.553a6.74 6.74 0 0 1 .5.973c.315.806.483 2.652.271 2.977-.043.066-.138.103-.33.13-.12.015-.125.019-.163.14l-.291 1.169c-.022.128.035.237.168.323.216.134.216.259-.002.685-.305.594-.565.987-.907 1.36-.504.548-1.395 1.275-1.84 1.5s-1.22.512-1.776.659c-.398.102-.422.105-.91.112a11.43 11.43 0 0 1-.815-.014zm1.42-.475c.769-.131 1.634-.456 2.191-.82.272-.177.936-.716 1.237-1.005.134-.127.305-.313.378-.412.133-.18.666-1.086.697-1.189.015-.041-.018-.089-.143-.216-.092-.093-.16-.184-.16-.216 0-.055.22-1.268.313-1.718a1.25 1.25 0 0 1 .076-.27c.066-.032.136-.053.208-.064.099-.02.208-.05.243-.066l.062-.027-.016-.545c-.016-.585-.06-.931-.162-1.308-.122-.446-.426-1.178-.56-1.347l-.045-.057-.366.271c-.412.31-.644.428-.874.452-.238.023-.352-.018-.503-.187-.27-.3-.426-.651-.448-1.004-.028-.406.111-.68.573-1.13L13 3.856c.188-.184.242-.289.178-.354-.021-.02-.174-.066-.343-.101-.455-.097-.828-.226-1.614-.56-1.302-.553-1.573-.62-2.486-.623-.65 0-.973.034-1.61.169-.59.124-.918.287-1.897.94l-1.535.975c-.26.129-.492.185-.852.2a2.44 2.44 0 0 0-.341.03c-.028.028-.036 3.116-.01 4.065.025.993.025.989.241 1.259.182.225.616.402 1.005.403.174.002.19-.002.424-.142l.427-.23c.01 0 .015.018.015.042s.045.148.103.283c.204.484.247.792.138 1.006-.057.116-.214.27-.402.399l-.12.083-.355-.024a2.85 2.85 0 0 1-.468-.063c-.21-.076-.424-.032-.424.085 0 .206.582 1.042.997 1.433.23.215.814.697 1.117.923.434.319 1.117.627 1.928.871a9.63 9.63 0 0 0 1.13.236c.044.007.37.007.722 0l.935-.062zM5.515 6.729c-.101-.081-.158-.248-.158-.475.002-.426.221-.628.443-.407.062.06.066.082.066.375s-.005.319-.066.398c-.069.097-.144.159-.188.16a.25.25 0 0 1-.097-.05zm3.764-.889c-.12-.13-.162-.432-.085-.595.048-.099.188-.2.28-.2.12 0 .158.054.174.242a.5.5 0 0 1-.058.327c-.117.255-.218.329-.311.226zm-.658 2.163a.74.74 0 0 1-.02-.222v-.2l.175-.034c.157-.027.18-.025.224.015.065.06.063.14-.01.247-.086.127-.316.248-.37.195zm-.009 1.078a2.42 2.42 0 0 0 .015-.283v-.163l.163-.06c.148-.05.168-.053.224-.017.036.026.067.059.09.097.043.077.04.311-.001.392-.074.143-.104.156-.311.156h-.196zm-.129 2.724a1.24 1.24 0 0 1-.015-.626c.074-.137.315-.208.369-.11.041.078.035.567-.007.67s-.135.175-.23.175c-.056 0-.08-.022-.117-.11zm-1.603-.406a1.99 1.99 0 0 1-.015-.316v-.274h.086c.117 0 .3.088.321.156.062.194-.32.618-.392.434z"/></g></svg>