<?xml version="1.0" encoding="UTF-8"?>
<!DOCTYPE svg PUBLIC "-//W3C//DTD SVG 1.1//EN" "http://www.w3.org/Graphics/SVG/1.1/DTD/svg11.dtd">
<!-- Creator: CorelDRAW -->
<svg xmlns="http://www.w3.org/2000/svg" xml:space="preserve" width="0.384386in" height="0.384386in" style="shape-rendering:geometricPrecision; text-rendering:geometricPrecision; image-rendering:optimizeQuality; fill-rule:evenodd; clip-rule:evenodd"
viewBox="0 0 0.0298045 0.0298045"
 xmlns:xlink="http://www.w3.org/1999/xlink">
 <defs>
  <style type="text/css">
   <![CDATA[
    .str0 {stroke:#373435;stroke-width:0.000538491}
    .fil0 {fill:#D2D3D5}
    .fil1 {fill:#ED3237}
    .fil2 {fill:#FEFEFE}
    .fil3 {fill:#373435;fill-rule:nonzero}
   ]]>
  </style>
 </defs>
 <g id="certs">
  <metadata id="CorelCorpID_0Corel-Layer"/>
  <g id="CBQ_x0020_logo">
   <circle id="_198087016" class="fil0" cx="0.0149023" cy="0.0149022" r="0.0149022"/>
   <rect id="_198085616" class="fil1 str0" x="0.00455946" y="0.00634666" width="0.0208668" height="0.0169805"/>
   <g>
    <rect id="_198085224" class="fil2" x="0.00593131" y="0.00766018" width="0.0181994" height="0.0143589"/>
    <path id="_198083600" class="fil3" d="M0.0243832 0.0223471l0 -0.0148897 -0.0187043 0 0 0.0148897 0.0187043 0zm-0.000566881 -0.000550397l-0.0175709 0 0 -0.0137892 0.0175709 0 0 0.0137892zm-0.000266804 -0.000286035l0 -0.0132199 -0.0170373 0 0 0.0132199 0.0170373 0zm-0.0010837 -0.00711853l-0.000449964 0 0 -0.00205017c0,-5.03691e-005 -6.65483e-005,-0.000116917 -0.000116917,-0.000116917l-0.000366626 0 0 0.00216709 -0.000449964 0 0 -0.00261706 0.000933507 0c0.000216434,0 0.000449964,0.000233224 0.000449964,0.000449964l0 0.00216709zm-0.00176719 -0.000449964c0,0.000233529 -0.000233224,0.000449964 -0.000449964,0.000449964l-0.000566576 0c-0.000217045,0 -0.000450269,-0.000216434 -0.000450269,-0.000449964l0 -0.00171713c0,-0.00021674 0.000233224,-0.000449964 0.000450269,-0.000449964l0.000566576 0c0.00021674,0 0.000449964,0.000233224 0.000449964,0.000449964l0 0.00171713zm-0.00170034 -0.00171713l-0.000449964 0 0 0.00195066c0,9.98224e-005 0.000100128,0.000216434 0.00021674,0.000216434l-0.000449964 0c-0.000116917,0 -0.000217045,-0.000116612 -0.000217045,-0.000216434l0 -0.00195066 -0.000449964 0 0 -0.000449964 0.000449964 0 0 -0.000450269c0,0 0.000250319,-3.32741e-005 0.000350447,-0.000149886 6.65483e-005,-0.000116917 6.65483e-005,-0.000100128 9.98224e-005,-0.000150191l0 0.000750347 0.000449964 0 0 0.000449964zm-0.00151687 0.00105042c0,0.000216434 -0.00021674,0.000449964 -0.000450269,0.000449964l-0.000500028 0c-3.32741e-005,3.32741e-005 -6.65483e-005,8.3338e-005 -6.65483e-005,0.000133402 0,9.98224e-005 0.000116612,0.00021674 0.000233224,0.00021674l0.000300078 0c0.00021674,0 0.000450269,0.000233224 0.000450269,0.000449964l0 0.000316867c0,0.000233224 -0.000233529,0.000449964 -0.000450269,0.000449964l-0.000533302 0c-0.00021674,0 -0.000449964,-0.00021674 -0.000449964,-0.000449964l0 -0.000183466 0.000449964 0 0 6.65483e-005c0,6.68535e-005 6.65483e-005,0.000116917 0.000116612,0.000116917l0.000300078 0c5.00638e-005,0 0.000116612,-5.00638e-005 0.000116612,-0.000116917l0 -0.000149886c0,-5.00638e-005 -6.65483e-005,-0.000116917 -0.000116612,-0.000116917l-0.000483543 0c-0.00019995,0 -0.00038311,-0.00019995 -0.00038311,-0.00038311 0,-0.000183466 0.00019995,-0.000350142 0.00038311,-0.000350142 -0.00019995,-5.00638e-005 -0.00038311,-0.000250014 -0.00038311,-0.000449964l0 -0.00105042c0,-0.00021674 0.000233224,-0.000449964 0.000449964,-0.000449964l0.000166676 0c0,-0.000183466 0.000116612,-0.000350142 0.000283288,-0.000416995l0.000100128 0.00021674c-0.000100128,1.67897e-005 -0.000166676,0.000116612 -0.000166676,0.000200255l0.00018316 0c0.000233529,0 0.000450269,0.000233224 0.000450269,0.000449964l0 0.00105042zm-0.00356735 -0.00248427l-0.000450269 0 0 -0.000449964 0.000450269 0 0 0.000449964zm0.00176689 0.00360093l-0.000450269 0 0 -0.00205017c0,-5.03691e-005 -6.65483e-005,-0.000116917 -0.000116307,-0.000116917l-0.000366931 0 0 0.00216709 -0.000450269 0 0 -0.00261706 0.000933507 0c0.000217045,0 0.000450269,0.000233224 0.000450269,0.000449964l0 0.00216709zm-0.00176689 0l-0.000450269 0 0 -0.00261706 0.000450269 0 0 0.00261706zm-0.000917023 0l-0.000449964 0 0 -0.0040509 0.000449964 0 0 0.0040509zm0.00583457 0.00408448l0 0.00038311c0,0.000217045 -0.000233224,0.000450269 -0.000449964,0.000450269l-0.000566881 0c-0.000233224,0 -0.000450269,-0.000233224 -0.000450269,-0.000450269l0 -0.00171682c0,-0.00021674 0.000217045,-0.000450269 0.000450269,-0.000450269l0.000566881 0c0.00021674,0 0.000449964,0.00021674 0.000449964,0.000450269l0 0.00108339 -0.00101685 0 0 0.000517123c0,4.97586e-005 5.00638e-005,0.000116307 0.000116612,0.000116307l0.000333352 0c5.03691e-005,0 0.000116917,-6.65483e-005 0.000116917,-0.000116307l0 -0.000266804 0.000449964 0zm-0.00171682 -0.00133371l-0.000450269 0 0 0.00193387c0,0.000116612 0.000116917,0.000233224 0.00021674,0.000233224l-0.000450269 0c-9.98224e-005,0 -0.000216434,-0.000116612 -0.000216434,-0.000233224l0 -0.00193387 -0.000450269 0 0 -0.000450269 0.000450269 0 0 -0.000449964c0,0 0.000266804,-3.32741e-005 0.000349836,-0.000166676 6.68535e-005,-0.000100128 6.68535e-005,-8.3338e-005 0.000100128,-0.000150191l0 0.000766831 0.000450269 0 0 0.000450269zm-0.00490107 -0.00491786c-1.67897e-005,-5.00638e-005 -5.03691e-005,-0.000100128 -0.000116917,-0.000100128 -5.00638e-005,0 -0.000116612,5.00638e-005 -0.000116612,0.000100128l0 0.00216709 -0.000450269 0 0 -0.00261706 0.000683799 0 0 0.000449964zm-0.00113376 0.00216709l-0.000917023 0c-0.000233224,0 -0.000449964,-0.000216434 -0.000449964,-0.000449964l0 -0.00216709 0.000449964 0 0 0.00205017c0,6.68535e-005 5.00638e-005,0.000116917 0.000116917,0.000116917l0.000349836 0 0 -0.00216709 0.000450269 0 0 0.00261706zm0.00448438 0.00491786l-0.000916718 0c-0.000233529,0 -0.000450269,-0.000233224 -0.000450269,-0.000450269l0 -0.00216709 0.000450269 0 0 0.00205079c0,4.97586e-005 4.97586e-005,0.000116307 9.98224e-005,0.000116307l0.000366931 0 0 -0.00216709 0.000449964 0 0 0.00261736zm-0.00628484 -0.00671832c0,0.0013505 0,0 0,0.0013505 0,0.000233529 -0.000233224,0.000449964 -0.000450269,0.000449964l-0.00106691 0 0 -0.0040509 0.00106691 0c0.000217045,0 0.000450269,0.000233529 0.000450269,0.000449964l0 0.0013505c0,0.000116612 -0.000116612,0.000233529 -0.000233224,0.000233529 0.000116612,0 0.000233224,9.98224e-005 0.000233224,0.000216434zm0.00456771 0.00626805c0,0.000217045 -0.000233224,0.000450269 -0.000450269,0.000450269l-0.000566576 0c-0.00021674,0 -0.000449964,-0.000233224 -0.000449964,-0.000450269l0 -0.00171682c0,-0.00021674 0.000233224,-0.000450269 0.000449964,-0.000450269l0.000566576 0c0.000217045,0 0.000450269,0.00021674 0.000450269,0.000450269l0 0.00171682zm-0.00176689 0.000450269l-0.000450269 0 0 -0.00170034c0,-5.00638e-005 -5.00638e-005,-0.000100128 -0.000100128,-0.000100128l-0.000366626 0 0 0.00180047 -0.000449964 0 0 -0.0040509 0.000916718 0c0.000233224,0 0.000450269,0.00021674 0.000450269,0.000450269l0 0.0013502c0,9.98224e-005 -0.000100128,0.00021674 -0.000217045,0.00021674 0.000116917,0 0.000217045,0.000116612 0.000217045,0.000233224l0 0.00180047zm0.00816834 -0.00548474l0 -0.00148329c0,-5.03691e-005 -6.65483e-005,-0.000116917 -0.000116612,-0.000116917l-0.000333657 0c-4.97586e-005,0 -0.000116307,6.65483e-005 -0.000116307,0.000116917l0 0.00148329c0,6.68535e-005 6.65483e-005,0.000116917 0.000116307,0.000116917l0.000333657 0c5.00638e-005,0 0.000116612,-5.00638e-005 0.000116612,-0.000116917zm-0.00321752 -0.000666704l0 -0.00081659c0,-5.03691e-005 -4.97586e-005,-0.000116917 -0.000116612,-0.000116917l-0.000333352 0c-5.00638e-005,0 -0.000116612,6.65483e-005 -0.000116612,0.000116917l0 0.00081659c0,5.00638e-005 6.65483e-005,0.000116917 0.000116612,0.000116917l0.000333352 0c6.68535e-005,0 0.000116612,-6.68535e-005 0.000116612,-0.000116917zm0.0013505 0.00461778l0 -0.000516817c0,-6.68535e-005 -6.65483e-005,-0.000116612 -0.000116917,-0.000116612l-0.000333352 0c-6.65483e-005,0 -0.000116612,4.97586e-005 -0.000116612,0.000116612l0 0.000516817 0.000566881 0zm-0.00955242 -0.00575124l0 -0.00110049c0,-6.65483e-005 -4.97586e-005,-0.000133402 -0.000116307,-0.000133402l-0.000500333 0 0 0.0013505 0.000516817 0c5.00638e-005,0 9.98224e-005,-5.00638e-005 9.98224e-005,-0.000116612zm0 0.000683493c0,-5.00638e-005 -4.97586e-005,-0.000116917 -9.98224e-005,-0.000116917l-0.000516817 0 0 0.0013505 0.000500333 0c6.65483e-005,0 0.000116307,-6.65483e-005 0.000116307,-0.000133402 0,-0.00110018 0,-0.00110018 0,-0.00110018zm0.00456771 0.00603483l0 -0.0014839c0,-6.68535e-005 -6.65483e-005,-0.000116612 -0.000116307,-0.000116612l-0.000333657 0c-5.00638e-005,0 -0.000116612,4.97586e-005 -0.000116612,0.000116612l0 0.0014839c0,4.97586e-005 6.65483e-005,0.000116307 0.000116612,0.000116307l0.000333657 0c4.97586e-005,0 0.000116307,-6.65483e-005 0.000116307,-0.000116307zm-0.00176689 -0.00180047l0 -0.00110049c0,-8.3338e-005 -3.32741e-005,-0.000133097 -0.000100128,-0.000133097l-0.000366626 0 0 0.0013502 0.000383416 0c5.00638e-005,0 8.3338e-005,-6.68535e-005 8.3338e-005,-0.000116612z"/>
   </g>
  </g>
 </g>
</svg>
