<?xml version="1.0" encoding="UTF-8"?>
<!DOCTYPE svg PUBLIC "-//W3C//DTD SVG 1.1//EN" "http://www.w3.org/Graphics/SVG/1.1/DTD/svg11.dtd">
<!-- Creator: CorelDRAW -->
<svg xmlns="http://www.w3.org/2000/svg" xml:space="preserve" width="0.44485in" height="0.44485in" style="shape-rendering:geometricPrecision; text-rendering:geometricPrecision; image-rendering:optimizeQuality; fill-rule:evenodd; clip-rule:evenodd"
viewBox="0 0 8.53678 8.53678"
 xmlns:xlink="http://www.w3.org/1999/xlink">
 <defs>
  <style type="text/css">
   <![CDATA[
    .str0 {stroke:#373435;stroke-width:0.037776}
    .fil2 {fill:#373435}
    .fil0 {fill:#FEFEFE}
    .fil1 {fill:#E1DF70}
    .fil3 {fill:#373435;fill-rule:nonzero}
    .fil4 {fill:#ED3237;fill-rule:nonzero}
    .fil5 {fill:#FEFEFE;fill-rule:nonzero}
   ]]>
  </style>
 </defs>
 <g id="certs">
  <metadata id="CorelCorpID_0Corel-Layer"/>
  <g id="CNW_x0020_logo">
   <circle id="_196728400" class="fil0" cx="4.2684" cy="4.26836" r="4.26839"/>
   <circle id="_196726272" class="fil1" cx="4.2764" cy="4.26295" r="3.68826"/>
   <polygon id="_196723808" class="fil0" points="1.46155,4.31387 1.46979,6.18635 7.07885,4.17108 7.07885,2.34793 "/>
   <rect id="_196720840" class="fil2" x="3.92248" y="3.38298" width="0.447797" height="0.419163"/>
   <polygon id="_196689200" class="fil3" points="1.46745,4.61653 1.47447,5.9192 7.08474,3.91964 7.08474,2.60655 "/>
   <path id="_196689592" class="fil4" d="M7.07885 4.25192l0 -0.14438 -5.60906 2.00659 0 0.14438 1.55184 -0.557801c0.338473,0.306061 0.788386,0.487688 1.27539,0.487688 0.961626,0 1.75825,-0.702332 1.9027,-1.62271l0.879124 -0.313768z"/>
   <path id="_196720168" class="fil4" d="M4.50335 3.36456l2.57549 -0.920375 0 -0.140376 -1.48996 0.532491c-0.342628,-0.305457 -0.792465,-0.495319 -1.29186,-0.495319 -0.961626,0 -1.7624,0.709962 -1.89855,1.63857l-0.936921 0.334318 0 0.13622 2.37317 -0.846183 0.518967 -0.179285 0.149669 -0.0600639z"/>
   <polygon id="_196718768" class="fil5" points="1.99812,5.63875 1.89077,5.67592 1.72984,5.05269 1.72984,5.7344 1.62664,5.7715 1.62664,4.65642 1.73392,4.61933 1.89485,5.24256 1.89485,4.56153 1.99812,4.52436 "/>
   <polygon id="_196716192" class="fil5" points="3.26929,4.40053 3.14961,4.44178 3.14961,5.22601 3.04641,5.26318 3.04641,4.47895 2.92258,4.52436 2.92258,4.40053 3.26929,4.2767 "/>
   <path id="_196716864" class="fil5" d="M4.23099 5.66761c0,0.0247811 -0.0247811,0.0577973 -0.0495621,0.066788l-0.0577973 0.0206257c-0.0247055,0.00823517 -0.0494866,-0.00415536 -0.0494866,-0.0296164l0 -0.0330162 0.0494866 -0.0164703 0 0.0206257c0,0.00415536 0.00415536,0.00823517 0.0123905,0.00415536l0.0330162 -0.0123905c0.00831072,0 0.0123905,-0.00831072 0.0123905,-0.0165459l0 -0.0742677c0,-0.00415536 -0.00407981,-0.00831072 -0.0123905,-0.00831072l-0.0454068 0.0165459c-0.0247055,0.0123905 -0.0494866,-0.00415536 -0.0494866,-0.0289364l0 -0.090738c0,-0.0247811 0.0247811,-0.0537175 0.0494866,-0.0619527l0.0577973 -0.0247811c0.0247811,-0.00823517 0.0495621,0.00823517 0.0495621,0.0330162l0 0.0289364 -0.0495621 0.0206257 0 -0.0206257c0,-0.00823517 -0.00407981,-0.0123905 -0.0123905,-0.00823517l-0.0330162 0.0123905c-0.00823517,0.00415536 -0.0123905,0.0123905 -0.0123905,0.0164703l0 0.0660325c0,0.00415536 0.00415536,0.00823517 0.0123905,0.00823517l0.0454068 -0.0164703c0.0247811,-0.0123905 0.0495621,0.00415536 0.0495621,0.0288609l0 0.0990487z"/>
   <polygon id="_196715632" class="fil5" points="3.70265,5.02791 3.59953,5.06508 3.59953,4.69359 3.45499,4.74308 3.45499,5.11873 3.35187,5.15582 3.35187,4.26023 3.45499,4.22306 3.45499,4.61933 3.59953,4.56976 3.59953,4.16941 3.70265,4.1364 "/>
   <polygon id="_196712496" class="fil5" points="4.4621,5.30035 4.39607,5.54794 4.39607,5.65938 4.34651,5.67592 4.34651,5.56448 4.28048,5.36631 4.33004,5.34568 4.37129,5.46128 4.41262,5.31682 "/>
   <path id="_196714008" class="fil5" d="M4.66851 5.51084c0,0.0247055 -0.0206257,0.0577218 -0.0454068,0.0659569l-0.0619527 0.0207013c-0.0247811,0.00823517 -0.0494866,-0.00415536 -0.0494866,-0.0289364l0 -0.0330162 0.0494866 -0.0164703 0 0.0206257c0,0.00415536 0.00823517,0.00823517 0.0123905,0.00415536l0.0371716 -0.0123905c0.00407981,0 0.0123905,-0.00823517 0.0123905,-0.0165459l0 -0.0742677c0,-0.00415536 -0.00831072,-0.00831072 -0.0123905,-0.00831072l-0.0495621 0.0165459c-0.0247811,0.00831072 -0.0494866,-0.00415536 -0.0494866,-0.0289364l0 -0.090738c0,-0.0247811 0.0247055,-0.0536419 0.0494866,-0.0618771l0.0619527 -0.0247811c0.0247811,-0.00823517 0.0454068,0.00823517 0.0454068,0.0330162l0 0.0288609 -0.0454068 0.0206257 0 -0.0206257c0,-0.00823517 -0.00831072,-0.0123905 -0.0123905,-0.00823517l-0.0371716 0.0123905c-0.00415536,0.00407981 -0.0123905,0.0123905 -0.0123905,0.0164703l0 0.0660325c0,0.00415536 0.00823517,0.00823517 0.0123905,0.00823517l0.0495621 -0.0164703c0.0247811,-0.0123905 0.0454068,0.00407981 0.0454068,0.0288609l0 0.0991243z"/>
   <path id="_196687464" class="fil5" d="M6.05527 4.61933c-0.165081,0.817171 -0.887359,1.43692 -1.75825,1.43692 -0.429287,0 -0.825482,-0.152615 -1.13502,-0.40511l0.107284 -0.0371716c0.284831,0.219479 0.643854,0.347388 1.03189,0.347388 0.8007,0 1.47349,-0.557876 1.65089,-1.30901l0.103204 -0.0330162z"/>
   <polygon id="_196688640" class="fil5" points="4.88723,5.19707 4.82944,5.21777 4.82944,5.50253 4.77988,5.51908 4.77988,5.23432 4.72623,5.25495 4.72623,5.20538 4.88723,5.14759 "/>
   <polygon id="_196711992" class="fil5" points="5.08949,5.41172 4.94088,5.46128 4.94088,5.13104 5.08533,5.07747 5.08533,5.12696 4.99044,5.15998 4.99044,5.25079 5.06471,5.22193 5.06471,5.27142 4.99044,5.2962 4.99044,5.39525 5.08949,5.36223 "/>
   <polygon id="_196710088" class="fil5" points="4.44979,3.64939 4.30526,4.81327 4.20213,4.85044 4.11124,4.17357 4.0205,4.91647 3.9173,4.95357 3.77284,3.88874 3.87605,3.85157 3.97102,4.52851 4.06175,3.78553 4.16496,3.75252 4.25577,4.42531 4.34651,3.68656 "/>
   <path id="_196683040" class="fil5" d="M3.38073 3.44298c0,0.0247811 -0.0247055,0.0619527 -0.0536419,0.0701878l-0.0660325 0.0247811c-0.0289364,0.00823517 -0.0536419,-0.00831072 -0.0536419,-0.0330162l0 -0.280676c0,-0.0289364 0.0247055,-0.0619527 0.0536419,-0.0701878l0.0660325 -0.0247811c0.0289364,-0.0123905 0.0536419,0.00415536 0.0536419,0.0330162l0 0.0495621 -0.0536419 0.0165459 0 -0.0371716c0,-0.00415536 -0.00407981,-0.00831072 -0.012315,-0.00831072l-0.041327 0.0165459c-0.00823517,0.00415536 -0.0123905,0.0123905 -0.0123905,0.0165459l0 0.255895c0,0.00823517 0.00415536,0.0123905 0.0123905,0.00823517l0.041327 -0.0164703c0.00823517,0 0.012315,-0.00831072 0.012315,-0.0165459l0 -0.0330162 0.0536419 -0.0207013 0 0.0495621z"/>
   <polygon id="_390478784" class="fil5" points="5.39902,5.30035 5.34954,5.31682 5.34954,5.17237 5.29582,5.33745 5.24626,5.35392 5.19269,5.23017 5.19269,5.37462 5.14313,5.39109 5.14313,5.05677 5.19269,5.0403 5.27104,5.25495 5.34954,4.98251 5.39902,4.96596 "/>
   <polygon id="_390478672" class="fil5" points="3.59953,3.40997 3.54588,3.43059 3.54588,3.2779 3.4757,3.30268 3.4757,3.45537 3.42198,3.476 3.42198,3.10043 3.4757,3.0798 3.4757,3.25312 3.54588,3.22426 3.54588,3.05502 3.59953,3.03855 "/>
   <polygon id="_390478056" class="fil5" points="4.83767,4.62341 4.52406,4.73485 4.52406,3.83094 4.82528,3.71958 4.82528,3.84333 4.62718,3.91768 4.62718,4.16118 4.78403,4.10338 4.78403,4.22721 4.62718,4.28493 4.62718,4.57392 4.83767,4.49958 "/>
   <polygon id="_390477832" class="fil5" points="3.69026,3.37695 3.64078,3.39758 3.64078,3.02201 3.69026,3.00554 "/>
   <path id="_390475704" class="fil5" d="M3.90491 3.25727c0,0.0247811 -0.0247811,0.0577973 -0.0494866,0.0701123l-0.0701878 0.0247811c-0.0247811,0.00823517 -0.0536419,-0.00823517 -0.0536419,-0.0370961l0 -0.280676c0,-0.0247811 0.0288609,-0.0577973 0.0536419,-0.0701878l0.0701878 -0.0247811c0.0247055,-0.00823517 0.0494866,0.00823517 0.0494866,0.0330162l0 0.0495621 -0.0494866 0.0206257 0 -0.0370961c0,-0.00415536 -0.00831072,-0.0123905 -0.0123905,-0.00831072l-0.0454068 0.0165459c-0.00823517,0 -0.0123905,0.0123905 -0.0123905,0.0164703l0 0.255895c0,0.00415536 0.00415536,0.00831072 0.0123905,0.00831072l0.0454068 -0.0165459c0.00407981,0 0.0123905,-0.0123905 0.0123905,-0.0164703l0 -0.0330162 0.0494866 -0.0207013 0 0.0495621z"/>
   <path id="_390476432" class="fil5" d="M5.44443 2.88994l-0.0990487 0.0330162c-0.288911,-0.222879 -0.65209,-0.359099 -1.0442,-0.359099 -0.813091,0 -1.49004,0.569587 -1.6592,1.32904l-0.103204 0.0371716c0.156846,-0.829637 0.883203,-1.45702 1.75825,-1.45702 0.437522,0 0.837872,0.156846 1.14741,0.416896z"/>
   <path id="_390473576" class="fil5" d="M5.25457 4.35928c0,0.0660325 -0.0536419,0.148535 -0.107284,0.165081l-0.132141 0.0454068c-0.0536419,0.0206257 -0.103129,-0.0247811 -0.103129,-0.0866582l0 -0.0825784 0.103129 -0.0370961 0 0.0494866c0,0.0165459 0.0123905,0.0288609 0.0289364,0.0247811l0.078423 -0.0288609c0.0123905,-0.00415536 0.0247811,-0.0247811 0.0247811,-0.041327l0 -0.235193c0,-0.0165459 -0.0123905,-0.0247811 -0.0247811,-0.0207013l-0.107359 0.0371716c-0.0536419,0.0206257 -0.103129,-0.0247811 -0.103129,-0.0908135l0 -0.243504c0,-0.0619527 0.0494866,-0.144455 0.103129,-0.161001l0.132141 -0.0495621c0.0536419,-0.0164703 0.107284,0.0289364 0.107284,0.0908891l0 0.0825028 -0.107284 0.0371716 0 -0.0495621c0,-0.0164703 -0.0123905,-0.0288609 -0.0247811,-0.0247055l-0.078423 0.0288609c-0.0165459,0.00407981 -0.0289364,0.0247811 -0.0289364,0.0412514l0 0.181627c0,0.0164703 0.0123905,0.0247811 0.0289364,0.0206257l0.103204 -0.0371716c0.0536419,-0.0206257 0.107284,0.0247811 0.107284,0.0908135l0 0.293066z"/>
   <path id="_390473520" class="fil5" d="M4.34651 3.14584l-0.119599 0.0412514c-0.0247811,0.0123905 -0.0537175,-0.00823517 -0.0537175,-0.0330162l0 -0.27652c0,-0.0247811 0.0289364,-0.0577973 0.0537175,-0.0701878l0.0701123 -0.0247055c0.0247811,-0.00831072 0.0494866,0.00823517 0.0494866,0.0330162l0 0.0494866 -0.0494866 0.0206257 0 -0.0370961c0,-0.00831072 -0.00823517,-0.0123905 -0.0123905,-0.00831072l-0.0454068 0.0165459c-0.00407981,0 -0.012315,0.00823517 -0.012315,0.0164703l0 0.251815c0,0.00407981 0.00823517,0.00823517 0.012315,0.00823517l0.0454068 -0.0165459c0.00415536,-0.00407981 0.0123905,-0.0123905 0.0123905,-0.0164703l0 -0.0618771 -0.0371716 0.0123905 0 -0.0495621 0.0866582 -0.0330162 0 0.177472z"/>
   <polygon id="_390471952" class="fil5" points="5.6797,3.53795 5.56003,3.58328 5.56003,4.36343 5.45682,4.40053 5.45682,3.62045 5.33715,3.66178 5.33715,3.53795 5.6797,3.41412 "/>
   <polygon id="_390472624" class="fil5" points="6.07589,4.18181 5.76228,4.29324 5.76228,3.38518 6.06766,3.2779 6.06766,3.40173 5.86541,3.47192 5.86541,3.71958 6.02641,3.66178 6.02641,3.78553 5.86541,3.84333 5.86541,4.13232 6.07589,4.05798 "/>
   <polygon id="_390469712" class="fil5" points="6.94678,3.86811 6.83942,3.90944 6.67442,3.50901 6.67442,3.96716 6.56706,4.00433 6.56706,3.10451 6.6785,3.06326 6.84358,3.55442 6.84358,3.00554 6.94678,2.96836 "/>
   <path id="_390467024" class="fil5" d="M6.49279 4.03319l-0.103204 0.0371716 0 -0.321927c0,-0.0123905 -0.0123905,-0.0247811 -0.0247811,-0.0206257l-0.103129 0.0370961 0 0.350864 -0.10328 0.0371716 0 -0.90806 0.231189 -0.0825784c0.0536419,-0.0206257 0.103204,0.0247811 0.103204,0.0867337l0 0.309537c0,0.0288609 -0.0247811,0.0701123 -0.0495621,0.078423 0.0247811,-0.00831072 0.0495621,0.0123905 0.0495621,0.0454068l0 0.350788zm-0.103204 -0.470538l0 -0.239349c0,-0.0206257 -0.00831072,-0.0330162 -0.0247811,-0.0288609l-0.103129 0.0370961 0 0.309537 0.107284 -0.0371716c0.012315,-0.00407981 0.0206257,-0.0247055 0.0206257,-0.0412514z"/>
   <path id="_390466352" class="fil5" d="M2.84008 5.33745l-0.103204 0.0371716 0 -0.321927c0,-0.0123905 -0.0123905,-0.0247811 -0.0247811,-0.0206257l-0.103129 0.0370961 0 0.350788 -0.103204 0.0372472 0 -0.90806 0.231114 -0.0825784c0.0536419,-0.0206257 0.103204,0.0247811 0.103204,0.0867337l0 0.309537c0,0.0288609 -0.0247811,0.0701123 -0.0495621,0.0783475 0.0247811,-0.00823517 0.0495621,0.0123905 0.0495621,0.0454823l0 0.350788zm-0.103204 -0.470538l0 -0.239349c0,-0.0206257 -0.00823517,-0.0330162 -0.0247811,-0.0288609l-0.103129 0.0370961 0 0.309537 0.107284 -0.0371716c0.0123905,-0.00407981 0.0206257,-0.0247055 0.0206257,-0.0412514z"/>
   <path id="_390464896" class="fil5" d="M2.42326 5.37462c0,0.0618771 -0.0495621,0.1403 -0.0991243,0.160926l-0.1403 0.0495621c-0.0537175,0.0164703 -0.103204,-0.0247811 -0.103204,-0.0866582l0 -0.672791c0,-0.0618771 0.0494866,-0.144455 0.103204,-0.161001l0.1403 -0.0494866c0.0495621,-0.0206257 0.0991243,0.0247811 0.0991243,0.0866582l0 0.672791zm-0.0991243 0.00407981l0 -0.610838c0,-0.0123905 -0.0165459,-0.0247811 -0.0288609,-0.0206257l-0.0866582 0.0330162c-0.0123905,0.00415536 -0.0247811,0.0247811 -0.0247811,0.0371716l0 0.610838c0,0.0164703 0.0123905,0.0289364 0.0247811,0.0206257l0.0866582 -0.0289364c0.012315,-0.00407981 0.0288609,-0.0247055 0.0288609,-0.0412514z"/>
   <path id="_390464784" class="fil5" d="M4.56115 3.02201c0,0.0247811 -0.0247811,0.0618771 -0.0494866,0.0701878l-0.0701878 0.0247055c-0.0247811,0.00831072 -0.0536419,-0.00823517 -0.0536419,-0.0330162l0 -0.2806c0,-0.0247811 0.0288609,-0.0619527 0.0536419,-0.0701878l0.0701878 -0.0247811c0.0247055,-0.00823517 0.0494866,0.00823517 0.0494866,0.0330162l0 0.280676zm-0.0494866 0.00415536l0 -0.251815c0,-0.00823517 -0.00831072,-0.0123905 -0.0123905,-0.00823517l-0.0454068 0.0123905c-0.00407981,0.00415536 -0.0123905,0.0123905 -0.0123905,0.0206257l0 0.251815c0,0.00823517 0.00831072,0.012315 0.0123905,0.00823517l0.0454068 -0.0123905c0.00407981,-0.00415536 0.0123905,-0.0123905 0.0123905,-0.0206257z"/>
   <path id="_390462712" class="fil5" d="M4.14018 3.2201l-0.0536419 0.0165459 -0.0165459 -0.0784986 -0.0577218 0.0165459 -0.0165459 0.0949689 -0.0536419 0.0206257 0.0742677 -0.40035 0.0495621 -0.0206257 0.0742677 0.350788zm-0.0825784 -0.111439l-0.0164703 -0.0948934 -0.0206257 0.107284 0.0370961 -0.0123905z"/>
   <path id="_390462432" class="fil3 str0" d="M7.07885 2.44418l0 -0.192582c-2.12838,0.766475 -3.48582,1.25998 -5.61729,2.0251l0 0.173392 5.61729 -2.00591z"/>
   <g id="and">
    <path id="_390460584" class="fil5" d="M4.07414 3.64939l-0.0206257 0.00823517 -0.00823517 -0.0330162 -0.0206257 0.00823517 -0.00415536 0.0371716 -0.0206257 0.00415536 0.0288609 -0.148611 0.0165459 -0.00823517 0.0288609 0.132065zm-0.0288609 -0.041327l-0.00831072 -0.0370961 -0.00823517 0.0412514 0.0165459 -0.00415536z"/>
    <polygon id="_390458792" class="fil5" points="4.18143,3.60806 4.1608,3.6163 4.12779,3.55442 4.12779,3.62869 4.11124,3.637 4.11124,3.49254 4.13187,3.48839 4.1608,3.56266 4.1608,3.476 4.18143,3.46776 "/>
    <path id="_390460024" class="fil5" d="M4.28463 3.55442c0,0.00823517 -0.00823517,0.0206257 -0.0206257,0.0247811l-0.0454068 0.0164703 0 -0.1403 0.0454068 -0.0164703c0.0123905,-0.00415536 0.0206257,0.00407981 0.0206257,0.0123905 0,0.0577218 0,0.0454068 0,0.103129zm-0.0206257 0l0 -0.090738c0,-0.00415536 0,-0.00415536 -0.00415536,-0.00415536l-0.0206257 0.00823517 0 0.103204 0.0206257 -0.00831072c0.00415536,0 0.00415536,-0.00407981 0.00415536,-0.00823517z"/>
   </g>
   <path id="_390457896" class="fil3 str0" d="M7.07885 4.26733l0 -0.192582c-2.12838,0.7664 -3.48582,1.25991 -5.61729,2.0251l0 0.173392 5.61729 -2.00591z"/>
  </g>
 </g>
</svg>
