<?xml version="1.0" encoding="UTF-8"?>
<!DOCTYPE svg PUBLIC "-//W3C//DTD SVG 1.1//EN" "http://www.w3.org/Graphics/SVG/1.1/DTD/svg11.dtd">
<!-- Creator: CorelDRAW -->
<svg xmlns="http://www.w3.org/2000/svg" xml:space="preserve" width="0.447874in" height="0.44785in" style="shape-rendering:geometricPrecision; text-rendering:geometricPrecision; image-rendering:optimizeQuality; fill-rule:evenodd; clip-rule:evenodd"
viewBox="0 0 6.96611 6.96575"
 xmlns:xlink="http://www.w3.org/1999/xlink">
 <defs>
  <style type="text/css">
   <![CDATA[
    .str0 {stroke:#FEFEFE;stroke-width:0.0466612}
    .str1 {stroke:#373435;stroke-width:0.107958}
    .fil2 {fill:#D2AE6D}
    .fil0 {fill:#FEFEFE}
    .fil1 {fill:#AA3B3F}
   ]]>
  </style>
 </defs>
 <g id="certs">
  <metadata id="CorelCorpID_0Corel-Layer"/>
  <g id="CSlogo">
   <ellipse id="_390491328" class="fil0 str0" cx="3.48306" cy="3.48287" rx="3.4597" ry="3.45951"/>
   <path id="C" class="fil1 str1" d="M5.00334 2.66416c0,0 0.177766,-0.184134 0.279355,-0.29846 0.101589,-0.114265 0.374637,-0.317443 0.482533,-0.399988 0.107958,-0.082545 0.266679,-0.139677 0.222284,-0.22853 -0.0444567,-0.0889135 -0.120695,-0.114326 -0.292092,-0.0889135 -0.171458,0.0254126 -0.355593,0.127002 -0.450813,0.158722 -0.0952207,0.0317811 -0.177766,0.0889135 -0.177766,0.0889135 0,0 -0.228591,-0.0635009 -0.393681,-0.114265 -0.16509,-0.0508252 -0.381005,-0.0889135 -0.634947,-0.120633 -0.254003,-0.0317811 -0.546034,-0.0317811 -0.876214,-0.0191054 -0.33018,0.0127369 -0.520683,0.0635009 -0.806406,0.13337 -0.285723,0.0698081 -0.609535,0.260311 -0.800037,0.399988 -0.190503,0.139677 -0.349224,0.330119 -0.450813,0.457121 -0.101589,0.127002 -0.19681,0.3619 -0.241267,0.52699 -0.0444567,0.16509 -0.0818714,0.5126 -0.0380883,0.7238 0.0437831,0.2112 0.124981,0.409235 0.245737,0.56814 0.120756,0.158844 0.332078,0.44769 0.713022,0.625517 0.380944,0.177766 0.787301,0.222161 0.907995,0.241205 0.120633,0.0191054 0.672607,0.014574 0.869478,0.00826675 0.19681,-0.00636846 0.438505,-0.0336181 0.705184,-0.097119 0.266618,-0.0635009 0.575917,-0.180827 0.715594,-0.276109 0.139677,-0.0952207 0.363798,-0.25088 0.363798,-0.25088 0,0 0.139677,0 0.228591,0 0.0888522,0 0.146046,0.0190441 0.184134,0.0444567 0.0380883,0.0254126 0.164784,-0.0272496 0.0665014,-0.115245 -0.0982824,-0.0879337 -0.466551,-0.424421 -0.466551,-0.424421 0,0 -0.203178,0.16509 -0.298399,0.234898 -0.0952207,0.0698693 -0.298705,0.221794 -0.406357,0.279355 -0.107651,0.0576223 -0.381005,0.209547 -0.558771,0.241267 -0.177766,0.0317811 -0.404275,0.0722575 -0.651848,0.0722575 -0.247635,0 -0.659503,-0.0275558 -0.916446,-0.0976701 -0.256943,-0.070053 -0.609596,-0.3619 -0.749274,-0.539666 -0.139677,-0.177766 -0.285723,-0.482533 -0.285723,-0.876153 0,-0.39362 0.067175,-0.660911 0.209241,-0.837575 0.142066,-0.176602 0.393987,-0.419583 0.7813,-0.533848 0.387312,-0.114265 0.539666,-0.158722 1.02226,-0.158722 0.482533,0 0.792322,0.118368 0.920671,0.19681 0.128349,0.0784422 0.254371,0.149108 0.3619,0.241267 0.10759,0.0921589 0.215915,0.234959 0.215915,0.234959z"/>
   <path id="S" class="fil1 str1" d="M4.33049 2.9794l0.300236 -0.470409c0,0 -0.22063,0.0548667 -0.320137,0.00159211 -0.0331895,-0.0177582 -0.0173296,-0.0088791 -0.0530909,-0.0221059 -0.143107,-0.0529072 -0.251064,-0.0909955 -0.42883,-0.129084 -0.177766,-0.0380883 -0.311136,-0.0444567 -0.469857,-0.0380883 -0.158722,0.00630722 -0.273048,-0.00636846 -0.577815,0.0698081 -0.304767,0.0761765 -0.457121,0.171458 -0.546034,0.247635 -0.0889135,0.0761765 -0.190503,0.253452 -0.184134,0.419032 0.00636846,0.16558 0.106488,0.263801 0.215854,0.368268 0.109427,0.104467 0.330731,0.215854 0.590552,0.222222 0.25976,0.00630722 0.863477,0 0.990479,0 0.127002,0 0.425401,-0.00636846 0.457182,0.139677 0.0317198,0.145985 0.00630722,0.349163 -0.152414,0.431708 -0.158722,0.082545 -0.215854,0.152414 -0.463489,0.190503 -0.247635,0.0380883 -0.450813,0.0698081 -0.647623,0.0126757 -0.196871,-0.0571324 -0.356082,-0.134044 -0.444506,-0.215854 -0.0884236,-0.0818714 -0.139677,-0.190503 -0.184134,-0.254003 -0.0444567,-0.0634396 -0.101589,-0.126941 -0.101589,-0.126941l-0.392395 0.438872c0,0 0.15321,0.112305 0.275436,0.168948 0.122287,0.0566425 0.409663,0.17948 0.612229,0.2112 0.202566,0.0317198 0.469857,0.050764 0.69208,0.050764 0.222222,0 0.49527,-0.0317198 0.685773,-0.114265 0.190441,-0.082545 0.368268,-0.177766 0.463489,-0.272986 0.0952207,-0.0952819 0.266679,-0.241267 0.241267,-0.501577 -0.0254126,-0.260311 -0.114265,-0.399988 -0.279355,-0.463489 -0.16509,-0.0635009 -0.457182,-0.0698693 -0.666729,-0.0698693 -0.209486,0 -0.507946,-0.0253514 -0.698387,-0.0253514 -0.190503,0 -0.381005,0 -0.469857,-0.127002 -0.0889135,-0.127002 -0.0762378,-0.279355 0.0761765,-0.3619 0.152353,-0.082545 0.406357,-0.0698693 0.539666,-0.0635009 0.13337,0.00636846 0.336548,0.00636846 0.457182,0.050764 0.120633,0.0444567 0.203178,0.0698693 0.292092,0.114326 0.0888522,0.0443955 0.190686,0.118429 0.190686,0.118429z"/>
   <path id="ampersand" class="fil2 str1" d="M3.37485 2.28009c0.0170846,-0.0501516 0.00973639,-0.0325771 0.0188604,-0.0614189 0.0217997,-0.0684609 0.0426809,-0.132697 0.0605616,-0.192278 0.0698081,-0.000979763 0.150271,0.000244941 0.219283,0.0045314 -0.0422523,0.142862 0,0 -0.0777074,0.255106 -0.0373535,-0.00324546 -0.175255,-0.00740946 -0.220998,-0.00593981zm-0.488167 -0.485962c-0.0688283,-0.17354 -0.0574386,-0.366982 0.102753,-0.463183 0.16013,-0.0962004 0.477879,-0.0753805 0.608433,0.0127369 0.0955881,0.0645419 0.16111,0.116347 0.16411,0.254922 -0.0691345,-0.00440893 -0.148679,-0.00532746 -0.217262,-0.0033067 -0.00845045,-0.0356389 -0.029944,-0.0499067 -0.0545605,-0.0651542 -0.0450691,-0.027862 -0.276048,-0.0946696 -0.379842,-0.0243104 -0.103855,0.0703592 -0.0260249,0.193381 -0.0123695,0.250697 0.0033067,0.0138391 0.109427,0.271823 0.247268,0.612474l0.0864028 0.216221 0.0512538 0.125593c0.0581122,0.142433 0.128288,0.320872 0.20722,0.518601l-0.234163 -0.0110223c-0.189707,-0.474756 -0.380699,-0.949084 -0.569242,-1.42427zm0.332813 0.946451l0.122777 0.313953c-0.0205138,0.0569487 -0.0408439,0.108509 -0.0582346,0.155231l-0.229081 -0.00551117 0.164539 -0.463673zm-0.126512 0.94492c-0.150087,0.352347 -0.349653,0.822205 -0.352347,0.984845 -0.00128594,0.0775237 -0.00373535,0.16558 -0.00238817,0.25633 -0.0689508,-0.00863416 -0.144515,-0.0242491 -0.214813,-0.0439056 -0.000183706,-0.0676036 0.00183706,-0.132513 0.00459264,-0.192401 0.0067971,-0.149781 0.110223,-0.479043 0.249105,-0.809958 0.0265761,-0.0634396 0.0549279,-0.129696 0.0829124,-0.194912l0.232939 0zm-0.288295 1.69548c0.00367411,0.00973639 0.00759316,0.0192891 0.0116959,0.0286581 0.0924651,0.210098 0.324608,0.309421 0.459631,0.263924 0.135024,-0.0454365 0.262148,-0.165396 0.341447,-0.275007 0.0792995,-0.109611 0.160926,-0.255289 0.135636,-0.563915 -0.00293929,-0.0357613 -0.00691957,-0.070298 -0.0117572,-0.10361 0.0868315,-0.00489881 0.138575,-0.0121246 0.209914,-0.0262699 0.00526622,0.0379046 0.00967516,0.0772788 0.0131043,0.118123 0.0334956,0.403723 -0.0988336,0.576652 -0.191972,0.723494 -0.0931387,0.146842 -0.251554,0.255657 -0.445241,0.33165 -0.193687,0.0759928 -0.538318,-0.0727474 -0.674199,-0.328588 -0.0314749,-0.0592144 -0.0556628,-0.123389 -0.0741558,-0.190196 0.0756867,0.0102875 0.153027,0.0173296 0.225897,0.0217385zm0.837452 -1.01185c-0.0255351,-0.0572549 -0.0503353,-0.0962617 -0.0685834,-0.112795 -0.0512538,-0.0464775 -0.213833,-0.0346591 -0.273415,0.0444567 -0.0595818,0.0791771 -0.094792,0.194667 -0.0404152,0.296378 0.0543768,0.101712 0.192278,0.265577 0.192278,0.265577l-0.167846 0.129084 0 0c0,0 -0.161906,-0.202933 -0.216221,-0.304645 -0.0543768,-0.101712 -0.103181,-0.363553 0.093751,-0.547136 0.196871,-0.183644 0.434035,-0.123634 0.535685,-0.0537032 0.0496617,0.0341692 0.106427,0.114265 0.155476,0.234225 -0.0664402,0.0217997 -0.135391,0.0386394 -0.21071,0.0485595zm-0.190135 0.493617l0 0zm0.419767 -1.17804c0.371453,0.931326 0.805059,2.02064 0.828818,2.07991 0.0308013,-0.000367411 0.139249,0 0.139249,0l0 0.181195 -0.52999 0 0 -0.176419 0.162886 0 0 0c0,0 -0.203729,-0.512293 -0.472858,-1.18784 -0.112428,-0.282294 -0.23551,-0.590613 -0.35743,-0.896054l0.229326 -0.000796057z"/>
  </g>
 </g>
</svg>
