<?xml version="1.0" encoding="UTF-8"?>
<!DOCTYPE svg PUBLIC "-//W3C//DTD SVG 1.1//EN" "http://www.w3.org/Graphics/SVG/1.1/DTD/svg11.dtd">
<!-- Creator: CorelDRAW -->
<svg xmlns="http://www.w3.org/2000/svg" xml:space="preserve" width="0.384386in" height="0.384394in" style="shape-rendering:geometricPrecision; text-rendering:geometricPrecision; image-rendering:optimizeQuality; fill-rule:evenodd; clip-rule:evenodd"
viewBox="0 0 0.0148385 0.0148388"
 xmlns:xlink="http://www.w3.org/1999/xlink">
 <defs>
  <style type="text/css">
   <![CDATA[
    .fil0 {fill:#B07C58}
    .fil3 {fill:#00AFEF;fill-rule:nonzero}
    .fil1 {fill:#373435;fill-rule:nonzero}
    .fil4 {fill:#FEFEFE;fill-rule:nonzero}
    .fil2 {fill:#FFCC29;fill-rule:nonzero}
   ]]>
  </style>
 </defs>
 <g id="certs">
  <metadata id="CorelCorpID_0Corel-Layer"/>
  <g id="DRGW_x0020_logo">
   <circle id="_196186968" class="fil0" cx="0.00741925" cy="0.00741936" r="0.00741931"/>
   <path id="_196184168" class="fil1" d="M0.0140175 0.00905576l0 -0.00203791c0,-0.000108818 -8.90606e-005,-0.000197879 -0.000197879,-0.000197879l-0.00167179 0c-0.000296666,-0.00224551 -0.00221588,-0.0039866 -0.00455045,-0.0039866 -0.00232485,0 -0.00425378,0.00174109 -0.00454072,0.0039866l-0.00171145 0c-0.000108818,0 -0.000197727,8.90606e-005 -0.000197727,0.000197879l0 0.00203791c0,0.000108666 8.89086e-005,0.000197727 0.000197727,0.000197727l0.00205766 0c0.000702302,0.00162254 0.00231482,0.00275191 0.00419451,0.00275191 0.00187954,0 0.0034919,-0.00112937 0.00420424,-0.00275191l0.002018 0c0.000108818,0 0.000197879,-8.90606e-005 0.000197879,-0.000197727z"/>
   <path id="_196185232" class="fil2" d="M0.00430318 0.00755206c0,0.00026703 -0.000188,0.000504423 -0.000435424,0.000613393l0.000138606 0.000583605 -0.000326454 0 -0.000158364 -0.000573879 -0.000247272 0 -0.000247272 0.000563848 -0.000296818 0 0.000524333 -0.00132542 -0.000336333 0c-0.000395757,-1.00307e-005 -0.000959605,-0.000277061 -0.000959605,-0.000277061l0.00197848 0c0.000237394,0 0.000366121,0.000207757 0.000366121,0.000415515z"/>
   <polygon id="_196193352" class="fil2" points="0.00483739,0.00782897 0.00447127,0.00873903 0.00417445,0.00873903 0.00453054,0.00782897 "/>
   <path id="_196192624" class="fil2" d="M0.00575733 0.00828416c-4.95457e-005,0.000276909 -0.000237394,0.000504423 -0.000514454,0.000504423 -0.000277061,9.87873e-006 -0.000395757,-0.000207757 -0.000346212,-0.000484666 4.93937e-005,-0.000277061 0.000247272,-0.000494697 0.000514302,-0.000504575 0.000277061,-9.87873e-006 0.000395757,0.000217636 0.000346364,0.000484818z"/>
   <path id="_196192680" class="fil2" d="M0.0114454 0.00925349c-0.000692271,0.00144442 -0.00216633,0.00243518 -0.00386775,0.00243518 -0.00170157,0 -0.00317563,-0.000990761 -0.00386806,-0.00243518l0.00132557 0c0.000563848,0.000741969 0.00145415,0.00122679 0.00245342,0.00122679 0.00099912,0 0.00188942,-0.000484818 0.00245327,-0.00122679l0.00150354 0z"/>
   <path id="_196187360" class="fil2" d="M0.00494605 0.0075817c0,7.91819e-005 -6.93031e-005,0.000148333 -0.000158212,0.000148333 -7.91819e-005,0 -0.000148485,-6.91511e-005 -0.000148485,-0.000148333 0,-8.90606e-005 6.93031e-005,-0.000158212 0.000148485,-0.000158212 8.89086e-005,0 0.000158212,6.91511e-005 0.000158212,0.000158212z"/>
   <path id="_196185120" class="fil3" d="M0.00967478 0.00925349c-0.000524333,0.000623272 -0.00130582,0.00101903 -0.00218624,0.00101903 -0.000880575,0 -0.00166191,-0.000395757 -0.00218639,-0.00101903l0.00437263 0z"/>
   <path id="_196182768" class="fil2" d="M0.00800284 0.00756194l-0.000336181 0c-2.97882e-005,-7.91819e-005 -9.90913e-005,-0.000118697 -0.000217788,-0.000118697 -0.000247272,0 -0.000346212,0.00016809 -0.000415515,0.000395757l0.000959605 0c-9.87873e-006,3.95149e-005 -1.97575e-005,7.90299e-005 -2.96362e-005,0.000118697 -0.000108818,0.000464908 -0.000376,0.000840756 -0.000830878,0.000840756 -0.000415515,0 -0.000524485,-0.000296818 -0.000474939,-0.000682545 -0.000395757,0 -0.000761726,-0.000276909 -0.000761726,-0.000276909l0.000830878 0c0.000128728,-0.000405788 0.000385879,-0.000712333 0.000801393,-0.000712333 0.000316575,0 0.00045503,0.000178121 0.000474787,0.000435272z"/>
   <path id="_196181872" class="fil2" d="M0.00872505 0.00782897l-4.93937e-005 0.000277061c-0.00010897,0 -0.000277061,7.91819e-005 -0.000326454,0.000197879l-0.000168242 0.00043512 -0.000306697 0 0.000365969 -0.000919938 0.000306697 0 -1.97575e-005 5.94244e-005c5.94244e-005,-2.97882e-005 0.000128576,-4.95457e-005 0.000197879,-4.95457e-005z"/>
   <path id="_196183328" class="fil2" d="M0.00977372 0.00779934l-0.000376 0.000939696 -0.000296818 0 9.87873e-006 -1.97575e-005c-3.95149e-005,1.00307e-005 -7.90299e-005,1.97575e-005 -0.000118697,1.97575e-005 -0.00026703,0 -0.000306697,-0.000207757 -0.00026703,-0.000464908 4.93937e-005,-0.000257151 0.000365969,-0.000484666 0.000623272,-0.000484666 3.95149e-005,0 7.90299e-005,1.97575e-005 0.000108666,4.95457e-005l1.99095e-005 -3.96669e-005 0.000296818 0z"/>
   <path id="_196180696" class="fil3" d="M0.0102781 0.00681997l-0.00557936 0c0.000277061,-0.00128606 0.00142451,-0.00225539 0.00278975,-0.00225539 0.00136509,0 0.00251254,0.000969332 0.0027896,0.00225539z"/>
   <path id="_196181424" class="fil2" d="M0.0108025 0.00815543l-0.000237394 0.000583605 -0.000296818 0 0.000227515 -0.000583605c9.87873e-006,-3.95149e-005 -2.97882e-005,-7.90299e-005 -8.90606e-005,-7.90299e-005 -7.91819e-005,0 -0.000158212,6.91511e-005 -0.000207757,0.000128576l-0.000217484 0.00053406 -0.000306697 0 0.000375848 -0.000939696 0.000306697 0 -3.96669e-005 8.90606e-005c7.91819e-005,-4.93937e-005 0.000178121,-8.90606e-005 0.000296818,-8.90606e-005 8.90606e-005,0 0.00026703,0.000138454 0.000188,0.00035609z"/>
   <path id="_196179912" class="fil2" d="M0.0118312 0.00681997l-0.00133545 0c-0.000267182,-0.00141448 -0.00151357,-0.00247318 -0.00300724,-0.00247318 -0.00149382,0 -0.00274021,0.0010587 -0.00300739,0.00247318l-0.00115733 0c0.000286787,-0.00209718 0.00207742,-0.00371957 0.00425378,-0.00371957 0.00217621,0 0.00397672,0.00162239 0.00425363,0.00371957z"/>
   <path id="_196181144" class="fil2" d="M0.0123753 0.00713655l-0.000633151 0.00160248 -0.000306545 0 9.72675e-006 -1.97575e-005c-3.9363e-005,1.00307e-005 -7.90299e-005,1.97575e-005 -0.000118697,1.97575e-005 -0.000257151,0 -0.000306545,-0.000207757 -0.000257151,-0.000464908 4.93937e-005,-0.000257151 0.000366121,-0.000484666 0.000623272,-0.000484666 3.95149e-005,0 7.90299e-005,1.97575e-005 0.000108818,4.95457e-005l0.000168242 -0.000425394 -0.00115748 0c-0.000395757,0 -0.000959605,-0.000277061 -0.000959605,-0.000277061l0.00252257 0z"/>
   <path id="_196177840" class="fil2" d="M0.0131272 0.00828416c-9.87873e-006,1.97575e-005 -9.87873e-006,4.93937e-005 -1.99095e-005,6.91511e-005l-0.000573575 0c-1.00307e-005,9.89393e-005 0,0.000188 0.000108818,0.000188 3.95149e-005,0 8.89086e-005,-1.97575e-005 0.000118697,-3.96669e-005l0.000148333 0.000178121c-7.91819e-005,6.93031e-005 -0.000188,0.000108818 -0.000306697,0.000108818 -0.000267182,9.87873e-006 -0.000385879,-0.000207757 -0.000346212,-0.000484666 4.93937e-005,-0.000277061 0.000247424,-0.000494697 0.000524333,-0.000504575 0.00026703,-9.87873e-006 0.000385727,0.000217636 0.000346212,0.000484818z"/>
   <path id="_196174648" class="fil1" d="M0.00557921 0.0104309c4.93937e-005,-6.93031e-005 4.93937e-005,-0.000178121 -9.87873e-006,-0.000227667l-0.000207757 -0.00016809 -0.000385727 0.000445151 0.000128576 0.000108666 0.000138454 -0.00015806 3.96669e-005 3.9363e-005 -2.97882e-005 0.000227667 0.000128576 8.90606e-005 1.99095e-005 -0.000277061c4.93937e-005,0 0.000128424,-9.87873e-006 0.000177969,-7.90299e-005zm-0.000128576 -0.000158364c1.97575e-005,9.87873e-006 1.97575e-005,6.93031e-005 -1.00307e-005,8.90606e-005 -1.96055e-005,1.97575e-005 -4.93937e-005,1.97575e-005 -7.90299e-005,9.87873e-006l-4.93937e-005 -3.96669e-005 7.90299e-005 -9.89393e-005 5.94244e-005 3.96669e-005z"/>
   <path id="_196175544" class="fil1" d="M0.00836896 0.0113227l-0.000178121 -0.000197879c2.96362e-005,-3.95149e-005 7.90299e-005,-0.000108818 5.94244e-005,-0.00018952 -1.97575e-005,-8.90606e-005 -9.90913e-005,-0.000158364 -0.000168242,-0.000148333l-0.00026703 3.95149e-005 5.92724e-005 0.000585277 0.000168242 -2.96362e-005 -1.97575e-005 -0.000197879 4.93937e-005 0 0.000158364 0.000168242 0.000138454 -2.97882e-005zm-0.000257151 -0.000336333c0,2.96362e-005 -1.99095e-005,5.94244e-005 -4.95457e-005,5.94244e-005l-6.93031e-005 1.97575e-005 -1.97575e-005 -0.000130247 6.93031e-005 -1.99095e-005c2.96362e-005,0 6.93031e-005,2.97882e-005 6.93031e-005,7.09749e-005z"/>
   <path id="_196173304" class="fil1" d="M0.00868538 0.0109057c3.96669e-005,7.08229e-005 1.99095e-005,0.000169762 -5.92724e-005,0.000199398 -6.91511e-005,1.97575e-005 -0.000158212,-3.95149e-005 -0.000168242,-0.000108818 -1.96055e-005,-8.08536e-005 1.00307e-005,-0.000169762 7.91819e-005,-0.00018952 6.93031e-005,-1.97575e-005 0.000118697,1.97575e-005 0.000148333,9.89393e-005zm0.000118697 -4.95457e-005c-5.92724e-005,-0.000128576 -0.000177969,-0.000217636 -0.000316423,-0.000178121 -0.000138454,3.96669e-005 -0.000178121,0.000198031 -0.000148485,0.000348035 2.97882e-005,0.000148333 0.000197879,0.00026703 0.000346212,0.000217484 0.000138606,-5.92724e-005 0.000188,-0.000237394 0.000118697,-0.000387398z"/>
   <polygon id="_196174312" class="fil1" points="0.00530214,0.0099757 0.00520321,0.00987676 0.00504499,0.0100549 0.00494605,0.00995594 0.0051143,0.00977797 0.00502524,0.00968891 0.00459984,0.0100944 0.00469878,0.0102032 0.00484712,0.0100549 0.00494605,0.0101538 0.00479772,0.0103022 0.00490654,0.010411 "/>
   <polygon id="_196171512" class="fil1" points="0.00496581,0.00959985 0.00474833,0.00930288 0.00462963,0.00940197 0.00467902,0.00950091 0.00437233,0.00979773 0.00445151,0.00991643 0.00478784,0.00961961 0.00486702,0.00969864 "/>
   <path id="_196171064" class="fil1" d="M0.00610354 0.0105198l-0.000128576 -6.93031e-005 -0.000188 0.000296818c-2.96362e-005,3.96669e-005 -6.93031e-005,5.94244e-005 -0.000108818,2.96362e-005 -3.95149e-005,-1.97575e-005 -3.95149e-005,-6.91511e-005 -9.87873e-006,-0.000108666l0.000197879 -0.000277061 -0.000118697 -7.91819e-005 -0.000227515 0.000336333c-5.94244e-005,8.90606e-005 -1.99095e-005,0.000217636 7.90299e-005,0.000277061 0.000108818,6.09442e-005 0.000247424,-1.00307e-005 0.000286939,-7.91819e-005l0.000217636 -0.000326454z"/>
   <polygon id="_196170000" class="fil1" points="0.00669702,0.0107275 0.00632117,0.0106088 0.00628151,0.0107671 0.00641024,0.0108067 0.00629154,0.0112338 0.00642999,0.0112732 0.00653881,0.0108561 0.00664763,0.0108858 "/>
   <polygon id="_196169384" class="fil1" points="0.00717181,0.0108166 0.00703336,0.0107967 0.00700372,0.0110358 0.00686526,0.011016 0.00690478,0.0107769 0.0067762,0.0107572 0.00667726,0.0113326 0.00682575,0.0113622 0.00685539,0.0111545 0.00698396,0.0111744 0.0069642,0.0113821 0.00711254,0.0114019 "/>
   <path id="_196170336" class="fil1" d="M0.004036 0.00760161c0,-0.000118849 -2.96362e-005,-0.000188 -8.90606e-005,-0.000188l-0.000385727 0 -0.000188 0.000474787 0.000415515 0c0.000128576,0 0.000247272,-0.000207757 0.000247272,-0.000286787z"/>
   <polygon id="_196168488" class="fil1" points="0.00749826,0.0109666 0.00749826,0.0108265 0.00721148,0.0108265 0.00718184,0.0114118 0.00749826,0.0114216 0.00749826,0.0113029 0.00733017,0.0113029 0.00733017,0.0111941 0.00748854,0.0111941 0.00748854,0.0110853 0.0073402,0.0110853 0.0073402,0.0109567 "/>
   <path id="_196168712" class="fil1" d="M0.00549014 0.00829388c1.97575e-005,-0.000118697 9.87873e-006,-0.000217484 -0.000118697,-0.000217484 -0.000118697,0 -0.000177969,0.000108818 -0.000197879,0.000227515 -1.97575e-005,0.000128576 0,0.000227363 0.000118697,0.000217636 0.000128728,0 0.000178121,-9.89393e-005 0.000197879,-0.000227667z"/>
   <path id="_196168824" class="fil1" d="M0.00934832 0.0108265l-0.000128728 -3.95149e-005c-9.72675e-006,3.95149e-005 -2.96362e-005,6.91511e-005 -5.92724e-005,8.90606e-005 -6.93031e-005,3.9363e-005 -0.000158212,0 -0.000188,-7.93338e-005 -1.97575e-005,-6.91511e-005 -1.97575e-005,-0.000158212 4.95457e-005,-0.000187848 1.97575e-005,-9.87873e-006 4.93937e-005,-9.87873e-006 7.90299e-005,-9.87873e-006l9.87873e-006 -0.000118697c-4.93937e-005,-1.00307e-005 -0.000108666,-1.97575e-005 -0.000158212,9.87873e-006 -0.000128576,5.94244e-005 -0.000138454,0.000217636 -8.90606e-005,0.00035609 4.95457e-005,0.000150005 0.000237394,0.000239065 0.000376,0.000159884 5.92724e-005,-3.95149e-005 9.87873e-005,-0.000100459 0.000108818,-0.000179641z"/>
   <path id="_196166360" class="fil1" d="M0.00760723 0.00811591l-0.000633151 0c-3.96669e-005,0.000207757 -9.87873e-006,0.000365969 0.000227515,0.000365969 0.000227515,0 0.000336333,-0.000158212 0.000405636,-0.000365969z"/>
   <polygon id="_196167256" class="fil1" points="0.00991217,0.0105693 0.00950653,0.0104702 0.00949666,0.0101341 0.00934832,0.0102528 0.00936793,0.0104605 0.00925926,0.0103022 0.00913053,0.0103912 0.00945699,0.0108858 0.00958572,0.010787 0.00952629,0.0106979 0.00951641,0.0106286 0.00974393,0.010688 "/>
   <polygon id="_196195984" class="fil1" points="0.0101002,0.0103912 0.00968466,0.0099757 0.00956596,0.0100845 0.00998147,0.0105099 "/>
   <polygon id="_196194976" class="fil1" points="0.00541096,0.00493055 0.00478784,0.00435683 0.00459984,0.00455455 0.00466899,0.00496019 0.00423387,0.0049997 0.00409542,0.00521749 0.00478784,0.00573195 0.00491642,0.00550428 0.00457021,0.00524713 0.00498572,0.00522737 0.00488678,0.00481186 0.00524287,0.00513831 "/>
   <polygon id="_196195536" class="fil1" points="0.0103968,0.0100845 0.0103079,0.0100053 0.0101891,0.0101341 0.0101099,0.0100648 0.0102189,0.00993618 0.0101298,0.00986688 0.0100309,0.00998558 0.00994181,0.0099064 0.0100506,0.00977797 0.00995169,0.00969864 0.00975381,0.00991643 0.0101891,0.010312 "/>
   <path id="_196166752" class="fil1" d="M0.0106046 0.00982737c8.90606e-005,-0.000118697 4.93937e-005,-0.000188 -1.97575e-005,-0.000257151 -4.95457e-005,-3.96669e-005 -0.000108818,-2.97882e-005 -0.000148485,-2.97882e-005 -4.93937e-005,0 -0.000148333,0.000108818 -0.000187848,8.90606e-005 -2.96362e-005,-9.87873e-006 -4.95457e-005,-1.97575e-005 -2.96362e-005,-5.92724e-005 1.97575e-005,-4.95457e-005 9.87873e-005,-7.93338e-005 0.000138454,-7.93338e-005l0 -9.87873e-005c-8.90606e-005,-9.87873e-006 -0.000188,1.97575e-005 -0.000237394,9.87873e-005 -8.90606e-005,0.000138606 0,0.000217788 6.91511e-005,0.000257303 4.95457e-005,1.97575e-005 0.000108818,9.87873e-006 0.000158212,-9.87873e-006 2.97882e-005,-9.87873e-006 0.000118697,-8.90606e-005 0.000138606,-6.93031e-005 3.95149e-005,3.96669e-005 2.96362e-005,6.93031e-005 0,8.90606e-005 -2.96362e-005,2.96362e-005 -5.92724e-005,4.95457e-005 -9.89393e-005,3.96669e-005l0 0.000128576c8.90606e-005,0 0.00016809,-2.96362e-005 0.000217636,-9.89393e-005z"/>
   <path id="_196163896" class="fil1" d="M0.0092889 0.00826425c1.97575e-005,-4.93937e-005 6.93031e-005,-0.000207757 -9.87873e-006,-0.000207757 -0.000118697,0 -0.000267182,9.89393e-005 -0.000286939,0.000217636 -1.97575e-005,0.000118697 -1.97575e-005,0.000207757 8.90606e-005,0.000207757 8.90606e-005,0 0.000128728,-4.93937e-005 0.00016809,-0.000118697 1.99095e-005,-2.96362e-005 2.97882e-005,-5.92724e-005 3.96669e-005,-9.89393e-005z"/>
   <polygon id="_196164736" class="fil1" points="0.0098725,0.00674094 0.00937796,0.00603849 0.0090515,0.00622649 0.00855696,0.00554395 0.0083986,0.0056824 0.00779508,0.00477234 0.00748854,0.00513831 0.00726087,0.00496019 0.00663775,0.00594943 0.00606402,0.00531643 0.00515381,0.00674094 "/>
   <polygon id="_196164680" class="fil1" points="0.00654869,0.00431716 0.00625187,0.00350604 0.00601448,0.0035951 0.0063113,0.00440622 "/>
   <path id="_196163168" class="fil1" d="M0.0116334 0.00826425c1.97575e-005,-4.93937e-005 6.93031e-005,-0.000207757 -1.97575e-005,-0.000207757 -0.000108818,0 -0.000257151,9.89393e-005 -0.000276909,0.000217636 -1.97575e-005,0.000118697 -2.97882e-005,0.000207757 8.89086e-005,0.000207757 7.91819e-005,0 0.000128728,-4.93937e-005 0.000168242,-0.000118697 9.87873e-006,-2.96362e-005 2.96362e-005,-5.92724e-005 3.95149e-005,-9.89393e-005z"/>
   <polygon id="_196163392" class="fil1" points="0.00750829,0.0041787 0.00750829,0.00329828 0.00724111,0.00331804 0.00726087,0.00380286 0.00684551,0.00338734 0.0065686,0.00343674 0.00673669,0.00427764 0.00698396,0.00423813 0.00691466,0.00381274 0.00728078,0.00418858 "/>
   <path id="_196163280" class="fil1" d="M0.00868538 0.0041787l-0.000296666 -0.000118697 0.000158212 -0.000603515 -0.000257151 -6.91511e-005 -0.000217636 0.00083103c0,0 0.000158364,2.96362e-005 0.000257151,5.92724e-005 0.00010897,3.95149e-005 0.000277061,0.000118697 0.000277061,0.000118697l7.90299e-005 -0.000217636z"/>
   <path id="_196160312" class="fil1" d="M0.0128997 0.00815543c-9.87873e-006,-7.90299e-005 -3.95149e-005,-0.000128576 -0.000128576,-0.000128576 -8.90606e-005,0 -0.000138606,4.95457e-005 -0.000168242,0.000128576l0.000296818 0z"/>
   <polygon id="_196194248" class="fil1" points="0.0093582,0.00376319 0.00912081,0.00364449 0.00875469,0.0044161 0.00896244,0.00454483 "/>
   <path id="_196160760" class="fil1" d="M0.0109014 0.00520746c0,0 -7.91819e-005,-0.00016809 -0.000148333,-0.000257151 -6.93031e-005,-8.90606e-005 -0.000188,-0.000217636 -0.000188,-0.000217636l-0.000702454 0.000553969c0,0 0.000108818,0.000118849 0.000168242,0.000197879 6.93031e-005,9.89393e-005 0.000158212,0.000247424 0.000158212,0.000247424l0.000188 -0.000128728 -0.000178121 -0.00026703 8.90606e-005 -6.93031e-005 0.000197879 0.000257303 0.000148485 -0.000128728 -0.000198031 -0.000257151 0.000118697 -8.90606e-005 0.000207757 0.000296818 0.000138606 -0.000138606z"/>
   <polygon id="_196159976" class="fil1" points="0.010387,0.00447552 0.0101792,0.00430743 0.00984287,0.00466352 0.00985275,0.00406989 0.00961535,0.00391168 0.00915044,0.00462386 0.00934832,0.00477234 0.0095956,0.00442613 0.00958572,0.00495031 0.00975381,0.00510867 "/>
   <path id="_196158856" class="fil1" d="M0.00618272 0.00443586l-0.000722212 -0.000553969 -0.000188 0.000138454 0.000207757 0.000870696 0.000207757 -0.000138454 -3.96669e-005 -0.000148485 0.000217788 -0.000138606 0.000118697 9.90913e-005 0.000197879 -0.000128728zm-0.00046506 -8.90606e-005l-0.000118697 7.93338e-005 -5.92724e-005 -0.000217788 0.000177969 0.000138454z"/>
   <polygon id="_196158464" class="fil4" points="0.00818096,0.00572192 0.00782472,0.00559334 0.00762699,0.0056824 0.00737957,0.00559334 0.00682575,0.00590004 0.00726087,0.0051877 0.00752805,0.00536582 0.00775557,0.0049997 "/>
  </g>
 </g>
</svg>
