<?xml version="1.0" encoding="UTF-8"?>
<!DOCTYPE svg PUBLIC "-//W3C//DTD SVG 1.1//EN" "http://www.w3.org/Graphics/SVG/1.1/DTD/svg11.dtd">
<!-- Creator: CorelDRAW -->
<svg xmlns="http://www.w3.org/2000/svg" xml:space="preserve" width="0.385244in" height="0.384929in" style="shape-rendering:geometricPrecision; text-rendering:geometricPrecision; image-rendering:optimizeQuality; fill-rule:evenodd; clip-rule:evenodd"
viewBox="0 0 4.15805 4.15465"
 xmlns:xlink="http://www.w3.org/1999/xlink">
 <defs>
  <style type="text/css">
   <![CDATA[
    .fil0 {fill:#FEFEFE}
    .fil1 {fill:#ED3237;fill-rule:nonzero}
   ]]>
  </style>
 </defs>
 <g id="certs">
  <metadata id="CorelCorpID_0Corel-Layer"/>
  <g id="MoPac_x0020_logo">
   <ellipse id="_388281032" class="fil0" cx="2.08302" cy="2.075" rx="2.07503" ry="2.07501"/>
   <path id="_388279296" class="fil1" d="M4.13443 1.96289l-0.260229 -0.109123 0.222452 -0.184676 -0.268643 -0.0587682 0.197296 -0.209874 -0.277056 -0.0209917 0.167933 -0.239237 -0.281263 0.0167848 0.134321 -0.256065 -0.2686 0.0546039 0.0965022 -0.272849 -0.272807 0.0797599 0.0545614 -0.285427 -0.243444 0.125908 0.0167848 -0.285427 -0.226659 0.155313 -0.0209917 -0.285427 -0.218245 0.180511 -0.062975 -0.281263 -0.176305 0.214081 -0.0965447 -0.268643 -0.146899 0.235073 -0.134321 -0.256065 -0.11333 0.256065 -0.163684 -0.235073 -0.0755531 0.264436 -0.201461 -0.209874 -0.0377765 0.272849 -0.226659 -0.180469 0 0.277014 -0.247651 -0.151106 0.0335697 0.277014 -0.264436 -0.11333 0.0713462 0.264436 -0.277014 -0.0755531 0.109123 0.251858 -0.285427 -0.0377765 0.138528 0.239237 -0.289634 0 0.172098 0.218288 -0.285427 0.0377765 0.201461 0.188883 -0.281221 0.0755531 0.226659 0.163684 -0.268643 0.11333 0.243487 0.134321 -0.247651 0.146899 0.264436 0.109123 -0.226659 0.188883 0.272807 0.0587682 -0.197254 0.209874 0.272807 0.0251985 -0.163684 0.235073 0.277014 -0.0168273 -0.134321 0.256065 0.268643 -0.0503545 -0.0965447 0.2686 0.260229 -0.0881311 -0.0587257 0.281943 0.247651 -0.122423 -0.0209917 0.290314 0.230824 -0.155313 0.0168273 0.285427 0.205667 -0.184676 0.0545614 0.285385 0.180469 -0.209832 0.11333 0.272807 0.142735 -0.230866 0.134321 0.256065 0.117494 -0.256065 0.15952 0.23928 0.0797599 -0.264436 0.197254 0.209874 0.0419834 -0.272849 0.222452 0.184676 0.00841367 -0.281221 0.256022 0.146899 -0.0335697 -0.273529 0.264436 0.114052 -0.0713462 -0.265158 0.277014 0.0755531 -0.104916 -0.251815 0.285427 0.0377765 -0.130114 -0.251858 0.285385 0 -0.172055 -0.214081 0.285385 -0.0419834 -0.197254 -0.188883 0.277014 -0.0797174 -0.222452 -0.163727 0.264436 -0.11333 -0.247651 -0.134321 0.247651 -0.146899zm-0.302212 0.117536c0,0.973819 -0.7891,1.7636 -1.76292,1.7636 -0.973776,0 -1.76292,-0.78978 -1.76292,-1.7636 0,-0.973776 0.789143,-1.76292 1.76292,-1.76292 0.973819,0 1.76292,0.789143 1.76292,1.76292zm-0.0545614 0c0,-0.940206 -0.763944,-1.70415 -1.70836,-1.70415 -0.944413,0 -1.70831,0.763944 -1.70831,1.70415 0,0.944413 0.763902,1.70904 1.70831,1.70904 0.944413,0 1.70836,-0.764624 1.70836,-1.70904zm-0.201461 -0.201461l-0.0965447 0 0 -0.512087 0.0965447 0 0 0.512087zm-0.176305 0l-0.104958 0 -0.100709 -0.218288 -0.0965447 0 0 0.218288 -0.0923379 0 0 -0.512087 0.23503 0c0.0797599,0 0.151106,0.0587682 0.151106,0.146899 0,0.0671394 -0.0377765,0.117536 -0.0965447,0.138528l0.104958 0.226659zm-0.482724 -0.155313c0,0.0881311 -0.0629326,0.172098 -0.176262,0.172098 -0.117536,0 -0.180511,-0.0839667 -0.180511,-0.172098l0 -0.356774 0.0881736 0 0 0.356774c0,0.0503545 0.0335697,0.0839242 0.0923379,0.0839242 0.0545614,0 0.0881311,-0.0335697 0.0881311,-0.0839242l0 -0.356774 0.0881311 0 0 0.356774zm0.428162 0.663193c-0.0294054,0.109123 -0.100752,0.159477 -0.188883,0.159477 -0.117536,0 -0.201503,-0.100709 -0.201503,-0.272807 0,-0.172098 0.0839667,-0.289634 0.201503,-0.289634 0.0881311,0 0.159477,0.0671819 0.188883,0.172098l-0.0923379 0c-0.0209917,-0.0461902 -0.0587682,-0.062975 -0.0965447,-0.062975 -0.0587682,0 -0.11333,0.050397 -0.11333,0.180511 0,0.130114 0.0545614,0.180469 0.11333,0.180469 0.0377765,0 0.0755531,-0.0167848 0.0965447,-0.0671394l0.0923379 0zm-0.852075 -0.763944c0,0.172098 -0.0839667,0.272849 -0.201503,0.272849 -0.11333,0 -0.201461,-0.100752 -0.201461,-0.272849 0,-0.172098 0.0881311,-0.272807 0.201461,-0.272807 0.117536,0 0.201503,0.100709 0.201503,0.272807zm0.386136 0.906637l-0.0965447 0 0 -0.512087 0.0965447 0 0 0.512087zm-0.188883 -0.42812l-0.239237 0 0 0.109123 0.142692 0 0 0.0839667 -0.142692 0 0 0.23503 -0.0923379 0 0 -0.512087 0.331575 0 0 0.0839667zm-0.650572 -0.356774c0,0.100709 -0.0965447,0.151106 -0.184676,0.151106 -0.0881736,0 -0.180511,-0.0587682 -0.180511,-0.167891l0.0839667 0c0,0.0503545 0.0419409,0.0881311 0.0965447,0.0881311 0.0671394,0 0.0965022,-0.0251985 0.0965022,-0.0755531 0,-0.0419834 -0.0209492,-0.0545614 -0.0629326,-0.0671394 -0.050397,-0.0168273 -0.109123,-0.0209917 -0.155313,-0.0587682 -0.0293629,-0.0209917 -0.0545614,-0.0587682 -0.0545614,-0.117536 0,-0.0965447 0.109123,-0.146899 0.176305,-0.146899 0.0713462,0 0.172055,0.0461477 0.172055,0.151106l-0.0839242 0c0,-0.0377765 -0.0503545,-0.062975 -0.0881311,-0.062975 -0.0336122,0 -0.0881736,0.0293629 -0.0881736,0.0587682 0,0.0335697 0,0.0461477 0.0377765,0.062975 0.0545614,0.0209492 0.11333,0.0209492 0.167891,0.0461477 0.0377765,0.0251985 0.0671819,0.0713462 0.0671819,0.138528zm0.222452 0.784893l-0.0923379 0 0 -0.512087 0.0923379 0 0 0.512087zm0.742953 0.512087c0,0.100752 -0.0965447,0.151106 -0.184718,0.151106 -0.0881311,0 -0.180469,-0.0587682 -0.180469,-0.167891l0.0839667 0c0,0.0503545 0.0419409,0.0881311 0.0965022,0.0881311 0.0671819,0 0.0965447,-0.025156 0.0965447,-0.0755531 0,-0.0377765 -0.0209917,-0.0545614 -0.0629326,-0.0671394 -0.050397,-0.0167848 -0.109165,-0.0209917 -0.155313,-0.0587682 -0.0294054,-0.0209917 -0.0545614,-0.0587682 -0.0545614,-0.117536 0,-0.0965447 0.109123,-0.146899 0.176262,-0.146899 0.0713887,0 0.172098,0.0461902 0.172098,0.151106l-0.0839242 0c0,-0.0377765 -0.050397,-0.062975 -0.0881736,-0.062975 -0.0335697,0 -0.0881311,0.0294054 -0.0881311,0.0587682 0,0.0335697 0,0.0461902 0.0377765,0.062975 0.0545614,0.0209917 0.11333,0.0209917 0.163684,0.0503545 0.0419834,0.0209917 0.0713887,0.0671819 0.0713887,0.134321zm-1.37674 -1.29698c0,0.100709 -0.100752,0.151106 -0.184718,0.151106 -0.0923379,0 -0.180469,-0.0587682 -0.180469,-0.167891l0.0797599 0c0,0.0503545 0.0461477,0.0881311 0.100709,0.0881311 0.0671819,0 0.0965447,-0.0251985 0.0965447,-0.0755531 0,-0.0419834 -0.025156,-0.0545614 -0.0671394,-0.0671394 -0.050397,-0.0168273 -0.109123,-0.0209917 -0.151106,-0.0587682 -0.0294054,-0.0209917 -0.0545614,-0.0587682 -0.0545614,-0.117536 0,-0.0965447 0.109123,-0.146899 0.176262,-0.146899 0.0671819,0 0.167891,0.0461477 0.167891,0.151106l-0.0797174 0c0,-0.0377765 -0.0545614,-0.062975 -0.0881736,-0.062975 -0.0335697,0 -0.0881311,0.0293629 -0.0881311,0.0587682 0,0.0335697 -0.00420683,0.0461477 0.0335697,0.062975 0.0545614,0.0209492 0.117536,0.0209492 0.167891,0.0461477 0.0377765,0.0251985 0.0713887,0.0713462 0.0713887,0.138528zm0.465896 0.642201c-0.0294054,0.109123 -0.100752,0.159477 -0.188883,0.159477 -0.117536,0 -0.201461,-0.100709 -0.201461,-0.272807 0,-0.172098 0.0839242,-0.289634 0.201461,-0.289634 0.0881311,0 0.159477,0.0671819 0.188883,0.172098l-0.0923379 0c-0.0251985,-0.0461902 -0.0587682,-0.062975 -0.0965447,-0.062975 -0.0587682,0 -0.11333,0.050397 -0.11333,0.180511 0,0.130114 0.0545614,0.180469 0.11333,0.180469 0.0377765,0 0.0755531,-0.0167848 0.0965447,-0.0671394l0.0923379 0zm-0.906637 -0.50788l-0.0923379 0 0 -0.512087 0.0923379 0 0 0.512087zm1.38095 1.29698l-0.331618 0 0 -0.512087 0.331618 0 0 0.0839667 -0.23928 0 0 0.109123 0.188883 0 0 0.0839667 -0.188883 0 0 0.151106 0.23928 0 0 0.0839242zm-1.56983 -1.29698l-0.0965447 0 0 -0.314833 -0.062975 0.172098 -0.0923379 0 -0.0671394 -0.172098 0 0.314833 -0.0923379 0 0 -0.512087 0.117494 0 0.0881736 0.226659 0.0881311 -0.226659 0.117536 0 0 0.512087zm0.684184 0.650572l-0.100752 0 -0.0419834 -0.104916 -0.214039 0 -0.0419834 0.104916 -0.100752 0 0.201461 -0.512087 0.100752 0 0.197296 0.512087zm0.457483 0.646408l-0.0755531 0 -0.159477 -0.289634 0 0.289634 -0.0965447 0 0 -0.512087 0.0755531 0 0.163684 0.289634 0 -0.289634 0.0923379 0 0 0.512087zm-0.923422 -1.01155c0,0.0881311 -0.0713462,0.146899 -0.151106,0.146899l-0.134321 0 0 0.218245 -0.0965447 0 0 -0.512087 0.230866 0c0.0797599,0 0.151106,0.0587682 0.151106,0.146942zm0.495302 1.01155l-0.0923379 0 0 -0.512087 0.0923379 0 0 0.512087zm-0.188883 0l-0.331575 0 0 -0.512087 0.0965447 0 0 0.428162 0.23503 0 0 0.0839242zm1.7755 -1.66217c0,-0.0335697 -0.025156,-0.062975 -0.0587682,-0.062975l-0.142692 0 0 0.12595 0.142692 0c0.0336122,0 0.0587682,-0.0251985 0.0587682,-0.062975zm-0.894059 0.109123c0,-0.130114 -0.0545614,-0.180469 -0.11333,-0.180469 -0.0587257,0 -0.11333,0.0503545 -0.11333,0.180469 0,0.130114 0.0546039,0.180511 0.11333,0.180511 0.0587682,0 0.11333,-0.050397 0.11333,-0.180511zm-0.894016 0.713547l-0.0755531 -0.188883 -0.0755531 0.188883 0.151106 0zm-0.386179 -0.172055c0,-0.0336122 -0.025156,-0.062975 -0.0587682,-0.062975l-0.134321 0 0 0.125908 0.134321 0c0.0336122,0 0.0587682,-0.025156 0.0587682,-0.0629326z"/>
  </g>
 </g>
</svg>
