<?xml version="1.0" encoding="UTF-8"?>
<!DOCTYPE svg PUBLIC "-//W3C//DTD SVG 1.1//EN" "http://www.w3.org/Graphics/SVG/1.1/DTD/svg11.dtd">
<!-- Creator: CorelDRAW -->
<svg xmlns="http://www.w3.org/2000/svg" xml:space="preserve" width="0.388827in" height="0.388827in" style="shape-rendering:geometricPrecision; text-rendering:geometricPrecision; image-rendering:optimizeQuality; fill-rule:evenodd; clip-rule:evenodd"
viewBox="0 0 0.0151765 0.0151765"
 xmlns:xlink="http://www.w3.org/1999/xlink">
 <defs>
  <style type="text/css">
   <![CDATA[
    .str0 {stroke:#373435;stroke-width:0.000117094}
    .str1 {stroke:#373435;stroke-width:0.000105877;stroke-linejoin:round}
    .fil1 {fill:none}
    .fil0 {fill:#373435}
    .fil3 {fill:#FEFEFE}
    .fil4 {fill:#373435;fill-rule:nonzero}
    .fil2 {fill:#FEFEFE;fill-rule:nonzero}
   ]]>
  </style>
 </defs>
 <g id="certs">
  <metadata id="CorelCorpID_0Corel-Layer"/>
  <g id="Nebkota">
   <circle id="_196921392" class="fil0 str0" cx="0.00758824" cy="0.00758824" r="0.00752991"/>
   <circle id="_196919880" class="fil1 str0" cx="0.00758824" cy="0.00758824" r="0.00520306"/>
   <polygon id="_196919488" class="fil2" points="0.00127175,0.0042532 0.00154789,0.00385935 0.00266321,0.00387426 0.00190793,0.00334503 0.00218638,0.00294718 0.00355217,0.00390361 0.00327373,0.0043013 0.00216548,0.00428777 0.00291568,0.00481286 0.00263754,0.00520978 "/>
   <polygon id="_1969194881" class="fil2" points="0.00276831,0.00236463 0.00384183,0.00149564 0.00406619,0.0017724 0.00339405,0.00231653 0.00356108,0.00252275 0.00418436,0.00201796 0.00439826,0.00228196 0.00377499,0.00278691 0.00398198,0.00304246 0.00467333,0.00248234 0.00491089,0.002776 0.00381817,0.00366097 "/>
   <path id="_19691948812" class="fil2" d="M0.00466226 0.00110994l0.000912322 -0.000314249c0.000151823,-5.24005e-005 0.000281518,-5.47055e-005 0.000388624,-7.37602e-006 0.000107721,4.70221e-005 0.000180252,0.000126161 0.000218668,0.000237262 3.18091e-005,9.3276e-005 3.02724e-005,0.000183325 -4.61001e-006,0.000269993 -2.33574e-005,5.79325e-005 -6.79209e-005,0.000112484 -0.00013369,0.000163809 0.00012278,-1.1525e-005 0.000222203,6.60769e-006 0.000298268,5.43982e-005 7.66799e-005,4.77905e-005 0.000131693,0.000121858 0.000166268,0.00022251 2.84284e-005,8.15973e-005 3.45751e-005,0.000161965 1.90547e-005,0.000240028 -1.55204e-005,7.85239e-005 -4.96345e-005,0.000147828 -0.00010265,0.000208526 -3.28848e-005,3.76485e-005 -8.85123e-005,7.62189e-005 -0.000167344,0.00011525 -0.000104801,5.20932e-005 -0.000175027,8.43633e-005 -0.000210831,9.66566e-005l-0.000841174 0.000289816 -0.000542906 -0.00157663zm0.000704564 0.000449169l0.000211907 -7.29919e-005c7.60652e-005,-2.62771e-005 0.00012447,-5.74715e-005 0.000145062,-9.38906e-005 2.08987e-005,-3.64191e-005 2.27427e-005,-7.92923e-005 5.68568e-006,-0.000128927 -1.58277e-005,-4.59465e-005 -4.31805e-005,-7.65262e-005 -8.14436e-005,-9.20466e-005 -3.88778e-005,-1.55204e-005 -9.52736e-005,-1.07567e-005 -0.000169034,1.4752e-005l-0.000215134 7.40676e-005 0.000102957 0.000299036zm0.000213136 0.000619432l0.00024848 -8.57463e-005c8.39023e-005,-2.87358e-005 0.000137839,-6.39255e-005 0.000162426,-0.000105569 2.39721e-005,-4.16438e-005 2.76601e-005,-8.74366e-005 9.98837e-006,-0.000137532 -1.58277e-005,-4.65611e-005 -4.56391e-005,-7.83702e-005 -8.97416e-005,-9.48126e-005 -4.36415e-005,-1.65961e-005 -0.000108182,-1.04494e-005 -0.000193621,1.90547e-005l-0.000247404 8.51316e-005 0.000109872 0.000319474z"/>
   <polygon id="_196919488123" class="fil2" points="0.00699324,0.000476215 0.00750818,0.00049404 0.00748605,0.00112392 0.00804801,0.000513095 0.00873214,0.00053722 0.00810348,0.00114451 0.0087014,0.00220436 0.00806691,0.00218223 0.00773991,0.00148458 0.00746423,0.0017538 0.00744978,0.00216071 0.00693485,0.00214289 "/>
   <path id="_1969194881234" class="fil2" d="M0.00905699 0.00145093c0.000102189,-0.000252475 0.000251553,-0.000420587 0.000449169,-0.000504489 0.000197309,-8.39023e-005 0.000421816,-7.49896e-005 0.000672755,2.64308e-005 0.000257392,0.000104033 0.000427809,0.00025309 0.000511251,0.000447786 8.31339e-005,0.000194235 7.46822e-005,0.000415823 -2.58161e-005,0.000664764 -7.29919e-005,0.00018102 -0.000163195,0.000316862 -0.000270762,0.000407833 -0.000107567,9.11246e-005 -0.00023173,0.000145523 -0.000372797,0.000163502 -0.000140913,1.78254e-005 -0.0002975,-7.83702e-006 -0.000469146,-7.74482e-005 -0.000174259,-7.02259e-005 -0.000307488,-0.000156279 -0.000399074,-0.000258161 -9.17393e-005,-0.000101728 -0.000149211,-0.000226813 -0.000171339,-0.00037587 -2.24354e-005,-0.00014875 2.76601e-006,-0.000313788 7.57579e-005,-0.000494347zm0.000476829 0.000195004c-6.28499e-005,0.000155972 -7.91386e-005,0.000279828 -4.90198e-005,0.000371567 3.07334e-005,9.17393e-005 9.5581e-005,0.000157663 0.000195772,0.000197923 0.00010265,4.16438e-005 0.000195311,4.05681e-005 0.000278906,-3.84168e-006 8.29803e-005,-4.37951e-005 0.00015966,-0.000152591 0.000229425,-0.000325467 5.91619e-005,-0.000145369 7.26846e-005,-0.000264 4.08755e-005,-0.000354817 -3.15018e-005,-9.08173e-005 -9.7425e-005,-0.000156587 -0.000198077,-0.000197309 -9.63493e-005,-3.88778e-005 -0.000187628,-3.58044e-005 -0.000273528,8.60536e-006 -8.55926e-005,4.45635e-005 -0.000160736,0.000145984 -0.000224354,0.000303339z"/>
   <polygon id="_19691948812345" class="fil2" points="0.0115021,0.00164316 0.0127195,0.00262925 0.0124606,0.00294918 0.0120521,0.00261833 0.0112613,0.00359458 0.010861,0.00327004 0.0116514,0.0022941 0.0112432,0.0019631 "/>
   <path id="_196919488123456" class="fil2" d="M0.0125002 0.00470636l-0.000311022 -0.000497421 -0.00027614 7.71409e-005 -0.000279213 -0.000446403 0.00174627 -0.000352359 0.000297653 0.000476522 -0.00108212 0.00141512 -0.00028536 -0.000457006 0.000189933 -0.000215595zm0.00024848 -0.000282748l0.000410599 -0.000473756 -0.000605141 0.000162426 0.000194543 0.00031133z"/>
   <path id="_196917472" class="fil2" d="M0.0017704 0.0117863m0.000123241 0.000127697l0.00119983 -0.00115865 0.00059669 0.000617896c0.00011064,0.000114482 0.00018563,0.000211753 0.000224047,0.000291199 3.88778e-005,7.95996e-005 4.97882e-005,0.000163348 3.22701e-005,0.000252168 -1.72107e-005,8.83586e-005 -6.40792e-005,0.000169341 -0.000140298,0.000242948 -6.68452e-005,6.45402e-005 -0.000137839,0.000105569 -0.000213444,0.000124009 -7.59116e-005,1.82864e-005 -0.000152591,1.69034e-005 -0.000230654,-3.53434e-006 -4.96345e-005,-1.3369e-005 -0.000107413,-4.13365e-005 -0.000172722,-8.45169e-005 2.76601e-005,5.83935e-005 4.37951e-005,0.000104801 4.88662e-005,0.00013953 3.07334e-006,2.28964e-005 1.383e-006,6.30035e-005 -5.68568e-006,0.000120014 -7.37602e-006,5.73178e-005 -1.5213e-005,9.81933e-005 -2.44331e-005,0.000124009l-0.00017472 0.000515092 -0.000404606 -0.00041905 0.000175488 -0.000552126c2.28964e-005,-7.08406e-005 3.24238e-005,-0.000123087 2.75064e-005,-0.00015674 -7.22236e-006,-4.41025e-005 -2.73528e-005,-8.35949e-005 -6.00839e-005,-0.000117402l-3.15018e-005 -3.27311e-005 -0.000486818 0.000470221 -0.000359735 -0.000372336zm0.00107337 -0.000316862l0.000151055 0.000156433c1.61351e-005,1.65961e-005 5.30152e-005,4.42561e-005 0.000110948,8.23656e-005 2.87358e-005,1.96694e-005 6.06985e-005,2.76601e-005 9.6042e-005,2.39721e-005 3.48824e-005,-4.14901e-006 6.54622e-005,-1.87474e-005 9.17393e-005,-4.41025e-005 3.88778e-005,-3.74948e-005 5.67032e-005,-7.83702e-005 5.36298e-005,-0.00012278 -2.76601e-006,-4.48708e-005 -3.68801e-005,-0.000100959 -0.000102189,-0.000168573l-0.000157355 -0.000162887 -0.00024387 0.000235572zm0.000258622 0.00170371m0.00118032 0.000339451l-0.000513556 -0.000284745 -0.000204224 0.000201765 -0.00046054 -0.000255395 0.00135688 -0.00115481 0.000491428 0.000272452 -0.000260005 0.00176272 -0.000471758 -0.000261388 6.17742e-005 -0.000280596zm8.03679e-005 -0.000367879l0.000129388 -0.000613747 -0.000451013 0.000435493 0.000321625 0.000178254zm0.000590697 0.000983777m0.000616205 -0.00156157l0.000498804 0.000133537 -0.000431651 0.0016112 -0.000498804 -0.00013369 0.000431651 -0.00161105zm0.000515861 0.001911m0.000286282 -0.00165192l0.000514631 3.59581e-005 -8.75903e-005 0.00125392 0.000802143 5.60885e-005 -2.87358e-005 0.000409984 -0.00131677 -9.22003e-005 0.000116326 -0.00166375zm0.00149995 0.00181512m-0.000347902 -0.00163118l0.000478673 -0.000101728 0.000366035 0.00087452 5.77789e-005 -0.000964722 0.000477598 -0.00010142 0.000446249 0.000857463 -2.12061e-005 -0.000947819 0.000476368 -0.000101267 -1.26007e-005 0.00170786 -0.000494194 0.000105108 -0.000504336 -0.000966413 -6.65379e-005 0.00108766 -0.000494347 0.000105108 -0.000709481 -0.00155434zm0.00285683 0.000955349m0.000913398 -0.000821197l-0.000513556 0.000284745 6.26962e-005 0.000279982 -0.00046054 0.000255395 -0.000260312 -0.00176272 0.000491428 -0.000272452 0.00135719 0.00115481 -0.000471758 0.000261388 -0.000205146 -0.00020115zm-0.000269379 -0.000262925l-0.000451935 -0.000435032 0.00013031 0.000613286 0.000321625 -0.000178254zm0.000985928 0.000105569m-0.00119814 -0.00116034l0.000397537 -0.000411674 0.000638948 0.000148903 -0.000171185 -0.000633262 0.000395386 -0.000409369 0.000246636 0.0011399 0.000502492 0.000485281 -0.000358813 0.000371567 -0.000502492 -0.000485281 -0.00114851 -0.000206068z"/>
   <circle id="_196914840" class="fil1 str0" cx="0.00759176" cy="0.00754294" r="0.00495737"/>
   <circle id="_196916296" class="fil3 str0" cx="0.00759176" cy="0.00754294" r="0.00495737"/>
   <path id="_196912992" class="fil4" d="M0.00322025 0.00913259m7.89849e-005 0.000169341l6.06985e-005 0.000130156 0.000748359 -0.000235418 9.77323e-005 0.000209602 0.000126161 -3.91851e-005 -0.000262156 -0.000562114 -0.000126161 3.91851e-005 0.000103725 0.000222356 -0.000748359 0.000235418zm0.000186552 0.000427963m2.35111e-005 3.62654e-005l7.74482e-005 0.000119246 0.000395693 -0.00018855 0.000238799 0.000367726 -0.000395539 0.000188703 7.74482e-005 0.000119246 0.000827805 -0.000393695 -7.82166e-005 -0.000120321 -0.00031302 0.000150133 -0.000239567 -0.000368648 0.000313788 -0.000149211 -7.74482e-005 -0.000119246 -0.00082719 0.000394617zm0.000498804 0.000738985m2.99651e-005 3.10408e-005l0.000354049 0.000366496 0.000106491 -7.80629e-005 -0.000256009 -0.000265076 0.000237723 -0.00017641 0.000255856 0.000265076 0.000102957 -7.63726e-005 -0.000255087 -0.000264154 0.000184862 -0.000137993 0.000256009 0.000265076 0.000103879 -7.71409e-005 -0.000354049 -0.00036665 -0.00073668 0.000545211zm0.000445327 0.000451935m0 0m0.000285975 0.000254165m0.00115358 -0.000280135c-1.73644e-005,-4.30268e-005 -4.25658e-005,-8.25193e-005 -7.56042e-005,-0.000118785 -3.31921e-005,-3.61118e-005 -7.43749e-005,-6.93039e-005 -0.000123395,-9.98837e-005 -5.63958e-005,-3.50361e-005 -0.000114482,-5.76252e-005 -0.000175027,-6.80746e-005 -6.02375e-005,-1.02957e-005 -0.000120782,-8.45169e-006 -0.000181481,5.53202e-006 -4.39488e-005,1.02957e-005 -8.58999e-005,2.62771e-005 -0.0001257,4.85588e-005 -3.97998e-005,2.19744e-005 -7.68336e-005,4.91735e-005 -0.00011064,8.17509e-005 -3.38068e-005,3.25774e-005 -6.37719e-005,6.94576e-005 -8.97416e-005,0.000110948 -3.47288e-005,5.57812e-005 -5.73178e-005,0.000112023 -6.80746e-005,0.00016888 -1.07567e-005,5.67032e-005 -9.8347e-006,0.000111562 2.61234e-006,0.000165192 1.22934e-005,5.34762e-005 3.59581e-005,0.000103725 7.08406e-005,0.000149979 3.45751e-005,4.67148e-005 8.02143e-005,8.77439e-005 0.00013661,0.000123241 3.01188e-005,1.87474e-005 6.34645e-005,3.48824e-005 0.000100191,4.80978e-005 3.67265e-005,1.35227e-005 7.65262e-005,2.39721e-005 0.000119399,3.21164e-005l0.000119092 -0.000130771c-4.91735e-005,5.68568e-006 -9.58883e-005,4.30268e-006 -0.000139837,-4.61001e-006 -4.42561e-005,-8.75903e-006 -8.55926e-005,-2.55087e-005 -0.000124317,-4.96345e-005 -3.85705e-005,-2.44331e-005 -6.99186e-005,-5.28615e-005 -9.38906e-005,-8.58999e-005 -2.38184e-005,-3.28848e-005 -3.96461e-005,-6.85356e-005 -4.82515e-005,-0.000106952 -8.29803e-006,-3.82631e-005 -8.60536e-006,-7.76019e-005 -9.22003e-007,-0.000118324 7.99069e-006,-4.07218e-005 2.41257e-005,-8.11363e-005 4.88662e-005,-0.000120782 1.87474e-005,-3.01188e-005 4.04145e-005,-5.70105e-005 6.56159e-005,-8.09826e-005 2.48941e-005,-2.41257e-005 5.24005e-005,-4.44098e-005 8.22119e-005,-6.14669e-005 2.96578e-005,-1.72107e-005 6.13132e-005,-2.98114e-005 9.4198e-005,-3.90315e-005 4.30268e-005,-1.16787e-005 8.68219e-005,-1.35227e-005 0.000131539,-5.68568e-006 4.48708e-005,7.83702e-006 8.85123e-005,2.47404e-005 0.000130924,5.11712e-005 4.07218e-005,2.55087e-005 7.39139e-005,5.67032e-005 9.94227e-005,9.38906e-005 2.50477e-005,3.71875e-005 4.31805e-005,8.08289e-005 5.37835e-005,0.000130924l0.000101574 -0.000119399zm-0.000427963 0.000750357m0.000863763 -0.000664918c-4.28731e-005,-1.64424e-005 -8.62073e-005,-2.71991e-005 -0.000130002,-3.24238e-005 -4.37951e-005,-4.91735e-006 -8.69756e-005,-4.76368e-006 -0.000129388,1.07567e-006 -4.25658e-005,5.83935e-006 -8.32876e-005,1.67497e-005 -0.000122473,3.31921e-005 -4.11828e-005,1.75181e-005 -7.95996e-005,4.02608e-005 -0.000114482,6.85356e-005 -3.48824e-005,2.84284e-005 -6.59232e-005,6.16205e-005 -9.29686e-005,9.95763e-005 -2.71991e-005,3.79558e-005 -4.97882e-005,8.00606e-005 -6.76135e-005,0.000126468 -2.35111e-005,6.17742e-005 -3.51898e-005,0.000121551 -3.47288e-005,0.000179176 1.53667e-007,5.80862e-005 1.13714e-005,0.000112177 3.36531e-005,0.000162273 2.22817e-005,5.02492e-005 5.48592e-005,9.48126e-005 9.75786e-005,0.000133844 4.28731e-005,3.91851e-005 9.52736e-005,7.03796e-005 0.000157202,9.45053e-005 4.44098e-005,1.70571e-005 8.88196e-005,2.81211e-005 0.000133537,3.39604e-005 4.45635e-005,5.68568e-006 8.86659e-005,5.68568e-006 0.000131846,3.07334e-007 4.31805e-005,-5.53202e-006 8.48243e-005,-1.65961e-005 0.000124624,-3.30384e-005 4.21048e-005,-1.75181e-005 8.09826e-005,-4.02608e-005 0.000116326,-6.86892e-005 3.53434e-005,-2.81211e-005 6.65379e-005,-6.10059e-005 9.35833e-005,-9.85006e-005 2.70454e-005,-3.74948e-005 4.93272e-005,-7.88313e-005 6.66915e-005,-0.000124009 2.38184e-005,-6.30035e-005 3.58044e-005,-0.000123395 3.56508e-005,-0.000181635 0,-5.82399e-005 -1.13714e-005,-0.000112638 -3.41141e-005,-0.000163041 -2.32037e-005,-5.04028e-005 -5.67032e-005,-9.5581e-005 -0.000101113,-0.000134766 -4.45635e-005,-3.93388e-005 -9.91153e-005,-7.16089e-005 -0.000163809,-9.68103e-005zm0.000129695 0.000527539c-1.98231e-005,5.05565e-005 -4.64075e-005,9.4198e-005 -8.00606e-005,0.000130617 -3.38068e-005,3.62654e-005 -7.22236e-005,6.46939e-005 -0.000115404,8.48243e-005 -4.30268e-005,1.99767e-005 -8.89733e-005,3.10408e-005 -0.000137071,3.28848e-005 -4.80978e-005,1.99767e-006 -9.66566e-005,-6.30035e-006 -0.000145369,-2.47404e-005 -4.31805e-005,-1.67497e-005 -7.97533e-005,-3.88778e-005 -0.000109565,-6.69989e-005 -2.99651e-005,-2.78138e-005 -5.27078e-005,-5.97765e-005 -6.79209e-005,-9.58883e-005 -1.5674e-005,-3.62654e-005 -2.33574e-005,-7.52969e-005 -2.33574e-005,-0.000116941 3.07334e-007,-4.16438e-005 8.75903e-006,-8.46706e-005 2.56624e-005,-0.00012908 1.89011e-005,-4.90198e-005 4.56391e-005,-9.20466e-005 8.03679e-005,-0.000129234 3.47288e-005,-3.71875e-005 7.57579e-005,-6.69989e-005 0.000123241,-8.92806e-005 2.78138e-005,-1.2908e-005 5.67032e-005,-2.18207e-005 8.63609e-005,-2.64308e-005 3.01188e-005,-4.91735e-006 6.02375e-005,-5.37835e-006 9.06636e-005,-2.15134e-006 3.02724e-005,3.22701e-006 6.00839e-005,1.07567e-005 8.9588e-005,2.21281e-005 4.51781e-005,1.75181e-005 8.32876e-005,4.02608e-005 0.000114021,6.83819e-005 3.10408e-005,2.82748e-005 5.45518e-005,6.05449e-005 7.02259e-005,9.68103e-005 1.58277e-005,3.62654e-005 2.38184e-005,7.51432e-005 2.36647e-005,0.000116633 0,4.14901e-005 -8.14436e-006,8.45169e-005 -2.50477e-005,0.000128466zm7.52969e-005 0.000543982m8.23656e-005 -0.0009051l0.000172568 0.000958729 0.000343753 -0.000563344c3.68801e-006,-6.14669e-006 8.75903e-006,-1.64424e-005 1.53667e-005,-3.05798e-005 6.76135e-006,-1.44447e-005 1.45984e-005,-3.30384e-005 2.38184e-005,-5.59348e-005 2.76601e-006,2.44331e-005 4.61001e-006,4.34878e-005 5.99302e-006,5.71642e-005 1.383e-006,1.36764e-005 2.45867e-006,2.24354e-005 3.53434e-006,2.64308e-005l0.000118477 0.000601914 0.000513248 -0.000910632 -0.00015966 -1.12177e-005 -0.000269686 0.000521239c-2.91968e-006,6.30035e-006 -7.52969e-006,1.65961e-005 -1.3369e-005,3.07334e-005 -6.14669e-006,1.44447e-005 -1.3369e-005,3.30384e-005 -2.19744e-005,5.59348e-005 -1.07567e-006,-1.98231e-005 -2.30501e-006,-3.61118e-005 -3.38068e-006,-4.91735e-005 -1.22934e-006,-1.30617e-005 -2.30501e-006,-2.32037e-005 -3.68801e-006,-3.01188e-005l-0.00011525 -0.000594231 -0.000329309 0.000555353c-2.15134e-006,3.68801e-006 -6.76135e-006,1.22934e-005 -1.41374e-005,2.59697e-005 -7.06869e-006,1.39837e-005 -1.67497e-005,3.30384e-005 -2.85821e-005,5.76252e-005 -3.07334e-007,-1.45984e-005 -1.22934e-006,-2.91968e-005 -2.61234e-006,-4.36415e-005 -1.383e-006,-1.45984e-005 -3.07334e-006,-2.93504e-005 -5.22468e-006,-4.47171e-005l-8.28266e-005 -0.000547209 -0.000147059 -1.02957e-005zm0.00114159 0.000981318m4.28731e-005 -5.22468e-006l0.000198077 -2.44331e-005c4.53318e-005,-5.37835e-006 8.65146e-005,-1.12177e-005 0.000123395,-1.76717e-005 3.68801e-005,-6.45402e-006 7.00722e-005,-1.50594e-005 9.91153e-005,-2.62771e-005 2.88894e-005,-1.1064e-005 5.45518e-005,-2.61234e-005 7.63726e-005,-4.51781e-005 3.19628e-005,-2.85821e-005 5.48592e-005,-6.28499e-005 6.88429e-005,-0.00010265 1.39837e-005,-3.99535e-005 1.81327e-005,-8.39023e-005 1.2447e-005,-0.000131385 -6.30035e-006,-4.99418e-005 -2.47404e-005,-9.02026e-005 -5.59348e-005,-0.000120475 -3.08871e-005,-3.04261e-005 -7.28382e-005,-4.97882e-005 -0.000126007,-5.82399e-005 3.42678e-005,-1.16787e-005 6.23889e-005,-2.85821e-005 8.48243e-005,-5.10175e-005 2.25891e-005,-2.22817e-005 3.84168e-005,-4.93272e-005 4.77905e-005,-8.05216e-005 9.68103e-006,-3.11944e-005 1.1986e-005,-6.60769e-005 7.37602e-006,-0.000104647 -4.14901e-006,-3.42678e-005 -1.39837e-005,-6.42329e-005 -2.96578e-005,-8.98953e-005 -1.5213e-005,-2.59697e-005 -3.56508e-005,-4.73295e-005 -6.08522e-005,-6.40792e-005 -2.12061e-005,-1.383e-005 -4.41025e-005,-2.28964e-005 -6.83819e-005,-2.76601e-005 -2.44331e-005,-4.91735e-006 -5.08638e-005,-6.45402e-006 -7.95996e-005,-5.07102e-006 -2.90431e-005,1.383e-006 -6.08522e-005,4.45635e-006 -9.57346e-005,8.9127e-006l-0.000194235 2.38184e-005 -7.83702e-006 0.000916471zm0.000146445 -0.000809365l4.93272e-005 -5.99302e-006c3.19628e-005,-4.14901e-006 6.06985e-005,-6.14669e-006 8.52853e-005,-6.45402e-006 2.47404e-005,0 4.59465e-005,3.22701e-006 6.31572e-005,9.06636e-006 1.75181e-005,6.30035e-006 3.11944e-005,1.62887e-005 4.14901e-005,3.08871e-005 9.98837e-006,1.4291e-005 1.65961e-005,3.36531e-005 1.96694e-005,5.85472e-005 3.53434e-006,2.82748e-005 1.53667e-006,5.17858e-005 -5.99302e-006,7.11479e-005 -7.37602e-006,1.92084e-005 -1.99767e-005,3.48824e-005 -3.78021e-005,4.71758e-005 -1.76717e-005,1.22934e-005 -4.05681e-005,2.19744e-005 -6.80746e-005,2.95041e-005 -2.78138e-005,7.06869e-006 -5.99302e-005,1.30617e-005 -9.6964e-005,1.73644e-005l-5.17858e-005 6.30035e-006 1.69034e-006 -0.000257546zm-5.07102e-006 0.000666608l1.99767e-006 -0.000284592 6.57695e-005 -7.99069e-006c3.45751e-005,-4.61001e-006 6.54622e-005,-6.76135e-006 9.20466e-005,-6.76135e-006 2.68918e-005,1.53667e-007 4.97882e-005,3.53434e-006 6.86892e-005,1.02957e-005 1.89011e-005,6.91502e-006 3.39604e-005,1.82864e-005 4.50245e-005,3.42678e-005 1.12177e-005,1.58277e-005 1.84401e-005,3.74948e-005 2.18207e-005,6.46939e-005 3.68801e-006,3.11944e-005 -1.53667e-007,5.91619e-005 -1.1064e-005,8.40559e-005 -1.1064e-005,2.47404e-005 -2.79674e-005,4.41025e-005 -5.08638e-005,5.79325e-005 -1.84401e-005,1.1064e-005 -3.94925e-005,1.90547e-005 -6.34645e-005,2.44331e-005 -2.38184e-005,4.91735e-006 -5.02492e-005,9.22003e-006 -7.92923e-005,1.2447e-005l-9.06636e-005 1.12177e-005zm0.000545211 7.17626e-005m0.000252782 -0.0010603c-4.36415e-005,1.41374e-005 -8.40559e-005,3.30384e-005 -0.000121551,5.65495e-005 -3.70338e-005,2.36647e-005 -7.03796e-005,5.10175e-005 -9.973e-005,8.22119e-005 -2.93504e-005,3.13481e-005 -5.42445e-005,6.54622e-005 -7.43749e-005,0.000102957 -2.08987e-005,3.94925e-005 -3.64191e-005,8.14436e-005 -4.56391e-005,0.000125239 -9.3737e-006,4.41025e-005 -1.26007e-005,8.94343e-005 -9.68103e-006,0.000135995 2.76601e-006,4.65611e-005 1.16787e-005,9.34296e-005 2.70454e-005,0.000140759 2.05914e-005,6.28499e-005 4.91735e-005,0.000116633 8.57463e-005,0.000161197 3.65728e-005,4.50245e-005 7.94459e-005,7.99069e-005 0.000128312,0.000104955 4.88662e-005,2.48941e-005 0.000102189,3.91851e-005 0.000159968,4.24121e-005 5.80862e-005,3.53434e-006 0.000118477,-5.07102e-006 0.000181635,-2.53551e-005 4.53318e-005,-1.4752e-005 8.68219e-005,-3.39604e-005 0.000125239,-5.76252e-005 3.82631e-005,-2.36647e-005 7.25309e-005,-5.13248e-005 0.000102496,-8.28266e-005 3.02724e-005,-3.13481e-005 5.56275e-005,-6.60769e-005 7.62189e-005,-0.000104033 2.16671e-005,-4.01071e-005 3.76485e-005,-8.23656e-005 4.71758e-005,-0.000126622 9.68103e-006,-4.41025e-005 1.3369e-005,-8.9127e-005 1.07567e-005,-0.000135381 -2.61234e-006,-4.61001e-005 -1.12177e-005,-9.2354e-005 -2.62771e-005,-0.0001383 -2.10524e-005,-6.40792e-005 -4.97882e-005,-0.000118631 -8.65146e-005,-0.000163656 -3.67265e-005,-4.53318e-005 -7.97533e-005,-8.03679e-005 -0.000129234,-0.000105262 -4.96345e-005,-2.45867e-005 -0.000104186,-3.85705e-005 -0.000163348,-4.11828e-005 -5.94692e-005,-2.45867e-006 -0.000122012,6.76135e-006 -0.000188242,2.79674e-005zm0.00043288 0.000328387c1.64424e-005,5.17858e-005 2.32037e-005,0.000102342 1.98231e-005,0.000151823 -3.22701e-006,4.94808e-005 -1.53667e-005,9.57346e-005 -3.62654e-005,0.000138608 -2.08987e-005,4.25658e-005 -4.96345e-005,8.00606e-005 -8.57463e-005,0.00011187 -3.62654e-005,3.18091e-005 -7.91386e-005,5.59348e-005 -0.000128619,7.22236e-005 -4.41025e-005,1.39837e-005 -8.63609e-005,1.98231e-005 -0.000127236,1.69034e-005 -4.07218e-005,-2.76601e-006 -7.85239e-005,-1.3369e-005 -0.000113099,-3.18091e-005 -3.50361e-005,-1.82864e-005 -6.54622e-005,-4.37951e-005 -9.17393e-005,-7.62189e-005 -2.61234e-005,-3.25774e-005 -4.65611e-005,-7.13016e-005 -6.13132e-005,-0.00011648 -1.61351e-005,-4.99418e-005 -2.24354e-005,-0.000100191 -1.89011e-005,-0.000151055 3.53434e-006,-5.07102e-005 1.67497e-005,-9.95763e-005 3.96461e-005,-0.000146906 1.35227e-005,-2.75064e-005 3.02724e-005,-5.25542e-005 5.04028e-005,-7.49896e-005 2.02841e-005,-2.27427e-005 4.34878e-005,-4.19511e-005 6.91502e-005,-5.85472e-005 2.55087e-005,-1.65961e-005 5.34762e-005,-2.95041e-005 8.34413e-005,-3.93388e-005 4.62538e-005,-1.4752e-005 9.0049e-005,-2.10524e-005 0.000131846,-1.85937e-005 4.17975e-005,2.45867e-006 8.03679e-005,1.2908e-005 0.000115404,3.10408e-005 3.51898e-005,1.82864e-005 6.57695e-005,4.34878e-005 9.1893e-005,7.59116e-005 2.61234e-005,3.21164e-005 4.67148e-005,7.06869e-005 6.13132e-005,0.000115558zm0.000297961 0.000401532m-0.00041275 -0.000810133l0.000466687 0.000312405 0.000150594 0.000384322 0.000125546 -6.96112e-005 -0.000149211 -0.000379404 7.32992e-005 -0.000617435 -0.000142296 7.89849e-005 -3.51898e-005 0.000363884c-1.69034e-006,1.76717e-005 -3.38068e-006,3.44214e-005 -4.45635e-006,5.08638e-005 -1.07567e-006,1.62887e-005 -1.69034e-006,3.24238e-005 -1.53667e-006,4.82515e-005 -1.55204e-005,-1.22934e-005 -2.88894e-005,-2.32037e-005 -4.01071e-005,-3.21164e-005 -1.13714e-005,-9.06636e-006 -2.07451e-005,-1.61351e-005 -2.85821e-005,-2.12061e-005l-0.000280289 -0.000193467 -0.000134459 7.45286e-005zm0.00105831 0.000441486m0 0m0.000311483 -0.000228657m3.30384e-005 -2.78138e-005l0.000369109 -0.000309639 -7.52969e-005 -0.000119399 -0.000260005 0.000218207 -0.000417206 -0.000653546 -0.000109104 9.15856e-005 0.000492503 0.000772792zm0.000411828 -0.000366189m3.08871e-005 -3.19628e-005l9.973e-005 -0.000103264 -0.000569644 -0.000718087 -0.000100652 0.000104186 0.000570566 0.000717165zm0.00023342 -0.000209448m2.35111e-005 -3.62654e-005l7.26846e-005 -0.00011187 -0.000388778 -0.00032977c-1.90547e-005,-1.64424e-005 -3.73411e-005,-3.19628e-005 -5.57812e-005,-4.68685e-005 -1.81327e-005,-1.49057e-005 -3.68801e-005,-2.91968e-005 -5.60885e-005,-4.24121e-005 2.38184e-005,3.07334e-007 4.79442e-005,-7.68336e-007 7.19162e-005,-3.07334e-006 2.39721e-005,-1.99767e-006 4.85588e-005,-5.07102e-006 7.36066e-005,-8.60536e-006l0.000746976 -0.00010726 -0.000724694 -0.000617742 -7.26846e-005 0.00011187 0.00038678 0.000332997c1.85937e-005,1.59814e-005 3.67265e-005,3.11944e-005 5.51665e-005,4.54855e-005 1.84401e-005,1.44447e-005 3.71875e-005,2.81211e-005 5.68568e-005,4.10291e-005 -2.38184e-005,4.61001e-007 -4.73295e-005,1.84401e-006 -7.13016e-005,3.99535e-006 -2.36647e-005,1.99767e-006 -4.80978e-005,4.91735e-006 -7.29919e-005,8.29803e-006l-0.000746515 0.000106338 0.000724848 0.000617588zm0.000514017 -0.000815204m1.82864e-005 -3.91851e-005l0.000215288 -0.00046177 -0.000111101 -7.14552e-005 -0.000155665 0.000333919 -0.000250016 -0.000158585 0.000155818 -0.000333919 -0.000108182 -6.88429e-005 -0.000155204 0.000332997 -0.000195004 -0.000123241 0.000155665 -0.000333919 -0.000109257 -6.93039e-005 -0.000215288 0.00046177 0.000772946 0.00049235z"/>
   <path id="_196913888" class="fil1 str1" d="M0.00445128 0.00809657l-0.00174043 0.000318091 0.00174043 -0.000318091c0.00026861,0.00152376 0.00159307,0.00263508 0.0031405,0.00263508 0.00154743,0 0.00287189,-0.00111132 0.0031405,-0.00263508l0 0 0.00174043 0.000318091"/>
   <path id="_196911648" class="fil0" d="M0.00621768 0.00576867c0,0 -0.000116326,0.000102035 -0.000218207,0.00020407 -0.000101728,0.000101881 -0.000159968,0.000335148 -0.000159968,0.00052462 0,0.000189472 0.000159968,0.000787083 0,0.000918161 -0.000159968,0.000131232 -0.000189011,0.000379097 -0.000116326,0.000437337 7.26846e-005,5.82399e-005 0.000276294,0.000101881 0.000276294,0.000291353 0,0.000189472 5.82399e-005,0.000247865 0.000159968,0.000247865 0.000101881,0 0.000148596,2.82748e-005 0.000148596,8.09826e-005 0,5.27078e-005 8.66683e-005,9.9269e-005 0.000192545,0.000111255 0.000105723,1.18324e-005 0.000123241,5.57812e-005 0.000114482,0.000178869 -8.75903e-006,0.000123241 -8.75903e-006,0.000211139 0.000114175,0.000299036 0.00012278,8.78976e-005 0.000307027,0.000369262 0.000359735,0.000246175 5.25542e-005,-0.000123087 2.62771e-005,-0.000210985 0,-0.000290124 -2.64308e-005,-7.91386e-005 -0.000117863,-0.000172415 -0.000133537,-0.000231269 -1.5674e-005,-5.88545e-005 -0.000111409,-9.98837e-005 -0.00011187,-0.000193774 -3.07334e-007,-9.3737e-005 -7.05332e-005,-0.000102496 -0.000132,-0.000155357 -6.14669e-005,-5.27078e-005 -0.000175488,-0.000105416 -0.00015797,-0.000167036 1.76717e-005,-6.16205e-005 7.02259e-005,-7.91386e-005 0.000140452,0 7.02259e-005,7.91386e-005 0.000105416,0.000123087 0.000219437,0.000123087 0.000114021,0 0.000175488,-1.76717e-005 0,-0.000184708 -0.000175488,-0.000167036 -0.000333458,-0.000263693 -0.000245714,-0.000342831 8.77439e-005,-7.91386e-005 0.000131539,-0.000131846 0.000131539,-0.000246175 0,-0.000114328 -1.75181e-005,-0.000184708 5.27078e-005,-0.000184708 7.02259e-005,0 8.68219e-005,1.04494e-005 7.40676e-005,0.000128312 -1.26007e-005,0.000117863 0.00010142,0.000179483 0.000162887,0.00020576 6.13132e-005,2.64308e-005 6.13132e-005,0.000123087 0.000210524,0.000202226 0.000149211,7.91386e-005 0.000289663,7.91386e-005 0.000333458,0.000114328 4.37951e-005,3.51898e-005 6.14669e-005,9.68103e-005 6.14669e-005,0.000299036 0,0.000202226 9.6503e-005,0.000659539 0.000149057,0.000791386 5.27078e-005,0.000131846 0.000184401,0.000263847 0.000122934,0.000395693 -6.14669e-005,0.000131846 -5.25542e-005,0.000272606 -1.75181e-005,0.000325313 3.50361e-005,5.28615e-005 -1.75181e-005,0.000237416 8.77439e-005,0.000307795 0.000105262,7.03796e-005 0.000201765,0.000193467 0.000307027,0.000193467 0.000105262,0 0.000105262,-7.91386e-005 4.39488e-005,-0.000254934 -6.14669e-005,-0.000175949 -0.00019316,-0.000677057 -0.000184401,-0.000861765 8.9127e-006,-0.000184708 8.75903e-006,-0.000659539 -8.75903e-006,-0.00075635 -1.75181e-005,-9.66566e-005 -7.00722e-005,-0.000342831 4.39488e-005,-0.00038678 0.000114021,-4.39488e-005 0.000175488,-4.39488e-005 0.000175488,0.000123087 0,0.000167036 2.64308e-005,0.000474832 0.000122934,0.000175795 9.6503e-005,-0.000298883 4.37951e-005,-0.000193467 0.000166575,-0.000114328 0.000122934,7.91386e-005 0.000219437,0.000246328 0.000201919,0.000342985 -1.75181e-005,9.66566e-005 -8.75903e-006,0.000272606 -9.6503e-005,0.000272606 -8.78976e-005,0 -0.000122934,1.75181e-005 -0.000219437,-7.91386e-005 -9.6503e-005,-9.68103e-005 -8.9127e-006,3.51898e-005 0,0.000149518 8.75903e-006,0.000114328 -4.39488e-005,0.000272606 -0.000131693,0.000307795 -8.75903e-005,3.50361e-005 -8.77439e-005,0.000342831 0,0.000378021 8.78976e-005,3.51898e-005 0.00021959,0.000149518 0.000403684,-1.75181e-005 0.000184247,-0.00016719 0.000403684,-0.000342985 0.000517705,-0.000360503 0.000114021,-1.76717e-005 0.00015797,-0.000114328 0.000184247,-0.000175949 2.64308e-005,-6.14669e-005 2.04377e-005,-0.000104955 0.000159353,-9.20466e-005 0.000139069,1.2908e-005 0.000200536,-6.62305e-005 0.000112792,-0.00013661 -8.78976e-005,-7.02259e-005 -0.000122934,-0.000175795 -4.39488e-005,-0.000237416 7.89849e-005,-6.14669e-005 8.77439e-005,-0.000167036 1.75181e-005,-0.000263693 -7.02259e-005,-9.68103e-005 -6.14669e-005,-0.000211139 -6.14669e-005,-0.000307795 0,-9.68103e-005 -7.88313e-005,-0.000132 -7.88313e-005,-0.000237416 0,-0.000105569 7.00722e-005,-0.000158277 7.00722e-005,-0.000158277 0,0 -0.000161504,-1.59814e-005 -0.000150901,-8.71293e-005 1.0603e-005,-7.11479e-005 8.46706e-005,-0.000146598 8.46706e-005,-0.000146598 0,0 -0.000144293,2.25891e-005 -0.000197001,-5.65495e-005 -5.25542e-005,-7.91386e-005 0,-0.000228503 0,-0.000228503 0,0 -0.000228042,5.27078e-005 -0.00028075,0 -5.27078e-005,-5.28615e-005 8.83586e-005,-0.000152899 8.83586e-005,-0.000152899 0,0 -0.000141066,6.69989e-005 -0.000141066,0 0,-6.69989e-005 7.89849e-005,-0.000304415 7.89849e-005,-0.000304415 0,0 -0.000232498,0.000237723 -0.000274142,0.000158431 -4.16438e-005,-7.92923e-005 5.48592e-005,-0.000219898 2.84284e-005,-0.000272759 -2.62771e-005,-5.27078e-005 -6.13132e-005,-5.27078e-005 -0.000175334,-4.39488e-005 -0.000114175,8.75903e-006 -0.00034237,5.28615e-005 -0.00034237,5.28615e-005 0,0 -1.75181e-005,-0.000132 0,-0.000228657 1.76717e-005,-9.68103e-005 0.000201919,-0.000167036 0.000245714,-0.000202226 4.39488e-005,-3.51898e-005 1.75181e-005,-6.76135e-005 -7.02259e-005,-0.000121704 -8.75903e-005,-5.42445e-005 -8.75903e-005,-8.94343e-005 6.14669e-005,-0.000124624 0.000149211,-3.50361e-005 0.000219437,-0.000105416 0.000210678,-0.000210985 -8.75903e-006,-0.000105569 -4.37951e-005,-0.000210985 -0.000114021,-8.78976e-005 -7.03796e-005,0.000123087 -0.000105416,0.000140605 -0.000175642,0.000140605 -7.00722e-005,0 -0.000140605,6.60769e-006 -0.00012739,7.36066e-005 1.3369e-005,6.71525e-005 -9.1893e-005,0.000100037 -0.000100652,0 -8.75903e-006,-9.98837e-005 1.75181e-005,-0.000407679 -2.64308e-005,-0.000548438 -4.37951e-005,-0.000140605 -1.75181e-005,-0.000263693 -0.00012278,-0.00035159 -0.000105262,-8.80513e-005 -0.000228042,-0.000184708 -8.77439e-005,-0.000211139 0.000140452,-2.62771e-005 0.000254473,-6.14669e-005 0.00028075,-0.000123087 2.62771e-005,-6.14669e-005 8.58999e-005,-7.19162e-005 0.000161504,-9.31223e-005 7.54506e-005,-2.12061e-005 9.98837e-005,-0.000205914 0,-0.000329001 -0.000100037,-0.000123087 -0.000442254,-0.000316401 -0.000521239,-5.27078e-005 -7.89849e-005,0.000263847 -6.13132e-005,0.000527539 -0.000175488,0.000448401 -0.000114021,-7.91386e-005 -7.89849e-005,-0.000501109 -7.89849e-005,-0.000501109 0,0 -0.000201765,0.000712247 -0.000333458,0.000272606 -0.000131539,-0.000439642 -4.39488e-005,-0.000439795 0.000122934,-0.00058916 0.000166729,-0.000149518 0.000570412,-6.14669e-005 0.000675674,-0.000246175 0.000105262,-0.000184708 0.000114021,-0.000228657 -8.78976e-005,-0.000246328 -0.000201765,-1.75181e-005 -0.000210524,1.53667e-007 -0.000289509,-0.000167036 -7.89849e-005,-0.000167036 -0.000184247,-3.51898e-005 -0.000263232,6.16205e-005 -7.89849e-005,9.66566e-005 -0.000114175,0.000131846 -0.00028075,0.000158277 -0.000166729,2.62771e-005 -0.000271991,7.89849e-005 -0.000166729,0.000228503 0.000105262,0.000149518 0.000193006,0.000149518 6.14669e-005,0.000290277 -0.000131693,0.000140605 -0.000324699,0.000404452 -0.000114175,0.000668298 0.000210678,0.000263693 0.000263386,0.000263693 0.000236955,0.000615437 -2.62771e-005,0.000351744 8.77439e-005,0.00045716 6.14669e-005,0.000562729 -2.64308e-005,0.000105569 -5.27078e-005,0.000175949 -0.000149211,8.80513e-005 -9.6503e-005,-8.80513e-005 -0.000114021,-2.64308e-005 -0.000114021,5.27078e-005 0,7.91386e-005 -1.76717e-005,0.000158277 -0.000149211,0 -0.000131693,-0.000158277 -0.000236955,-0.000158277 -0.000350976,-0.000158277 -0.000114021,0 -0.000307181,-8.75903e-006 -0.000307181,-8.75903e-006 0,0 8.75903e-006,-0.000334226 -0.000114021,-0.000597919 -0.000122934,-0.000263847 -0.000351437,-0.000564573 -0.000587931,-5.28615e-005 -0.000124624,0.000269686 0,0.000334226 -0.000114021,0.000395693 -0.000114021,6.16205e-005 -8.77439e-005,8.78976e-005 -5.27078e-005,0.000140759 3.51898e-005,5.27078e-005 8.78976e-005,0.000219898 0,0.000246175 -8.77439e-005,2.64308e-005 -0.000131693,0.000158277 -2.62771e-005,0.000158277 0.000105262,0 7.89849e-005,0.000193467 0,0.000219898 -7.89849e-005,2.62771e-005 -6.14669e-005,0.000123087 0,0.000123087 6.14669e-005,0 0.00012278,0.000105569 4.37951e-005,0.000210985 -7.88313e-005,0.000105569 -0.000352359,0.000470068 0,0.000246175 0.00019654,-0.000124624 0.000289663,-0.00051878 0.000324699,-0.000694576 3.51898e-005,-0.000175949 0.000122934,-0.000571488 0.000236955,-0.000501262 0.000114021,7.03796e-005 0.000137839,0.00018855 0.000137839,0.00018855z"/>
  </g>
 </g>
</svg>
