<?xml version="1.0" encoding="UTF-8"?>
<!DOCTYPE svg PUBLIC "-//W3C//DTD SVG 1.1//EN" "http://www.w3.org/Graphics/SVG/1.1/DTD/svg11.dtd">
<!-- Creator: CorelDRAW -->
<svg xmlns="http://www.w3.org/2000/svg" xml:space="preserve" width="0.385835in" height="0.385835in" style="shape-rendering:geometricPrecision; text-rendering:geometricPrecision; image-rendering:optimizeQuality; fill-rule:evenodd; clip-rule:evenodd"
viewBox="0 0 0.0300347 0.0300347"
 xmlns:xlink="http://www.w3.org/1999/xlink">
 <defs>
  <style type="text/css">
   <![CDATA[
    .str1 {stroke:#FEFEFE;stroke-width:0.000317503}
    .str0 {stroke:#FEFEFE;stroke-width:0.000635006}
    .fil1 {fill:none}
    .fil0 {fill:#ED3237}
    .fil2 {fill:#FEFEFE}
    .fil3 {fill:#FEFEFE;fill-rule:nonzero}
   ]]>
  </style>
 </defs>
 <g id="certs">
  <metadata id="CorelCorpID_0Corel-Layer"/>
  <g id="OL_x0026_B">
   <circle id="_803392552" class="fil0" cx="0.0150173" cy="0.0150173" r="0.0150173"/>
   <circle id="_803390760" class="fil1 str0" cx="0.0150173" cy="0.0150173" r="0.0138927"/>
   <path id="_803389752" class="fil1 str1" d="M0.0159165 0.0224526c0.00187743,0 0.00265035,-0.00263534 0.0026102,-0.00438773 -1.77753e-005,-0.000770465 0.000229852,-0.00194333 0.000513337,-0.00238127 0.000455721,-0.000703961 0.00254677,-4.29058e-005 0.00254677,-0.000666266 0,-0.00362768 -0.00294181,-0.00656949 -0.00656949,-0.00656949 -0.00362768,0 -0.00656949,0.00294181 -0.00656949,0.00656949 0,0.00209717 0.000983156,0.00396541 0.00251367,0.00516831 0.00311496,7.84563e-005 0.00360409,0.00200094 0.00495501,0.00226696z"/>
   <ellipse id="_803389640" class="fil2" cx="0.01556" cy="0.0183822" rx="0.000799149" ry="0.00106553"/>
   <path id="_803388016" class="fil1 str1" d="M0.0153269 0.0204134c0,0 0.00472822,0.0011321 0.0055609,0.00133192 0.000832372,0.000199818 0.00256393,0.000632554 0.00263043,9.99092e-005 6.6504e-005,-0.000532645 -0.00056605,-0.000665959 -0.00156514,-0.000965687 -0.000998786,-0.000299728 -0.00365128,-0.00096109 -0.00365128,-0.00096109"/>
   <g id="OL_x0026_B_0">
    <path id="_803389136" class="fil3" d="M0.0111117 0.0122095c0,-0.000678831 0.000182043,-0.00121056 0.000546742,-0.00159426 0.000364699,-0.000384007 0.000835437,-0.000576164 0.00141252,-0.000576164 0.000377265,0 0.000718059,9.04086e-005 0.00102116,0.000270307 0.000302792,0.000181124 0.000534177,0.000432429 0.000693235,0.000755448 0.000159058,0.000321793 0.000238127,0.000688638 0.000238127,0.00109716 0,0.000415267 -8.27469e-005,0.000786708 -0.000250386,0.00111341 -0.000167639,0.000327616 -0.000404847,0.000575244 -0.000711623,0.000743803 -0.000307696,0.000168558 -0.00063807,0.000252531 -0.000993269,0.000252531 -0.000385846,0 -0.000729705,-9.25539e-005 -0.0010325,-0.000279194 -0.000304018,-0.000185721 -0.000533564,-0.000440091 -0.000689557,-0.000761884 -0.0001563,-0.000320874 -0.00023445,-0.000661975 -0.00023445,-0.00102116zm0.000558082 8.58116e-006c0,0.000493417 0.000132395,0.000881101 0.000397185,0.00116489 0.000266016,0.000283791 0.000598229,0.000425687 0.000998173,0.000425687 0.000407912,0 0.00074319,-0.000142815 0.00100583,-0.000429364 0.000262951,-0.000286856 0.000395346,-0.000693542 0.000395346,-0.00122006 0,-0.00033252 -5.70034e-005,-0.000623053 -0.000169478,-0.000871601 -0.000112474,-0.000248547 -0.000277355,-0.00044101 -0.000493417,-0.000578002 -0.000217287,-0.000136379 -0.000460011,-0.000205028 -0.000729705,-0.000205028 -0.0003837,0 -0.000713156,0.000131476 -0.000989591,0.000395346 -0.000276129,0.000262951 -0.000414347,0.000703042 -0.000414347,0.00131813z"/>
    <polygon id="_803387960" class="fil3" points="0.0128665,0.0168117 0.0128665,0.0124936 0.0134387,0.0124936 0.0134387,0.0163021 0.015565,0.0163021 0.015565,0.0168117 "/>
    <path id="_803387232" class="fil3" d="M0.0152392 0.0156919c-7.38593e-005,8.21339e-005 -0.000154154,0.000143428 -0.000240885,0.000184188 -8.6731e-005,4.1067e-005 -0.000180817,6.1294e-005 -0.000281646,6.1294e-005 -0.000185721,0 -0.000333439,-6.28263e-005 -0.000442543,-0.000188479 -8.85698e-005,-0.000102361 -0.000132701,-0.000216981 -0.000132701,-0.000343553 0,-0.000112168 3.61635e-005,-0.000213916 0.00010849,-0.000304325 7.23269e-005,-9.07151e-005 0.000180204,-0.000170397 0.000324245,-0.00023874 -8.18275e-005,-9.40863e-005 -0.000136379,-0.000170704 -0.000163348,-0.000229546 -2.75823e-005,-5.85358e-005 -4.1067e-005,-0.000115233 -4.1067e-005,-0.000169784 0,-0.000109103 4.25993e-005,-0.000204109 0.000128104,-0.000284711 8.55051e-005,-8.06016e-005 0.000193383,-0.000120749 0.000323019,-0.000120749 0.00012412,0 0.000225562,3.80023e-005 0.000304938,0.000114007 7.84563e-005,7.60045e-005 0.000117991,0.000167639 0.000117991,0.000274291 0,0.000172543 -0.000114313,0.000320261 -0.000343246,0.000442543l0.000325778 0.000415267c3.73893e-005,-7.26334e-005 6.6504e-005,-0.000156913 8.6731e-005,-0.000252531l0.000231998 4.93417e-005c-3.98411e-005,0.000158751 -9.31669e-005,0.000289308 -0.000161203,0.000391669 8.39728e-005,0.000110942 0.000178366,0.000204109 0.000284098,0.000279194l-0.000149864 0.000177446c-9.01022e-005,-5.79228e-005 -0.000183269,-0.000143428 -0.000278888,-0.000256822zm-0.000454188 -0.000947299c9.68445e-005,-5.73099e-005 0.000159364,-0.000107264 0.000187866,-0.000150477 2.88082e-005,-4.25993e-005 4.25993e-005,-9.01022e-005 4.25993e-005,-0.000142509 0,-6.19069e-005 -1.93076e-005,-0.000112474 -5.88422e-005,-0.000151703 -3.92282e-005,-3.92282e-005 -8.79569e-005,-5.91487e-005 -0.000146799,-5.91487e-005 -6.03746e-005,0 -0.000110329,1.96141e-005 -0.000150477,5.85358e-005 -4.0454e-005,3.89217e-005 -6.03746e-005,8.61181e-005 -6.03746e-005,0.000142509 0,2.78888e-005 7.35528e-006,5.76164e-005 2.17594e-005,8.88763e-005 1.44041e-005,3.09535e-005 3.64699e-005,6.34393e-005 6.52781e-005,9.83769e-005l9.89898e-005 0.000115539zm0.000314132 0.000771078l-0.000409444 -0.000506901c-0.000120749,7.1714e-005 -0.00020227,0.000138831 -0.000244257,0.000200125 -4.22929e-005,6.16005e-005 -6.34393e-005,0.000122588 -6.34393e-005,0.000182963 0,7.35528e-005 2.97276e-005,0.00015017 8.79569e-005,0.00022924 5.88422e-005,7.96822e-005 0.000141896,0.00011891 0.000249467,0.00011891 6.68105e-005,0 0.000136073,-2.05335e-005 0.000207787,-6.25199e-005 7.14075e-005,-4.16799e-005 0.000128717,-9.56186e-005 0.00017193,-0.000161816z"/>
    <path id="_803386560" class="fil3" d="M0.0159364 0.0158497l0 -0.00306807 0.00115171 0c0.000234143,0 0.000422009,3.15664e-005 0.000563598,9.28604e-005 0.000141896,6.22134e-005 0.000252838,0.000157832 0.000332826,0.000287162 7.99887e-005,0.000128717 0.000120749,0.000263564 0.000120749,0.000405153 0,0.000130556 -3.5857e-005,0.000254064 -0.000107264,0.000369909 -7.07946e-005,0.000115846 -0.000178672,0.000209319 -0.0003221,0.000280726 0.000185721,5.42452e-005 0.000327923,0.000147106 0.000427832,0.000277968 9.99092e-005,0.000131476 0.000149864,0.000286243 0.000149864,0.000464915 0,0.000143734 -3.0647e-005,0.000277049 -9.1328e-005,0.000400863 -6.06811e-005,0.000123507 -0.000135766,0.000218513 -0.000224949,0.00028563 -8.91828e-005,6.71169e-005 -0.000201351,0.000117072 -0.000335891,0.000151396 -0.000134234,3.43246e-005 -0.000299115,5.1487e-005 -0.000494949,5.1487e-005l-0.0011701 0zm0.000406379 -0.00177875l0.000663814 0c0.000179285,0 0.000308615,-1.19523e-005 0.000387072,-3.55505e-005 0.000102974,-3.09535e-005 0.000180817,-8.1521e-005 0.000232917,-0.000152929 5.20999e-005,-7.14075e-005 7.84563e-005,-0.000160897 7.84563e-005,-0.000267855 0,-0.000101442 -2.42111e-005,-0.000191544 -7.26334e-005,-0.000268774 -4.93417e-005,-7.78434e-005 -0.000119523,-0.000130556 -0.000209319,-0.000159058 -9.07151e-005,-2.88082e-005 -0.000246402,-4.29058e-005 -0.000467367,-4.29058e-005l-0.00061294 0 0 0.000927072zm0 0.0014165l0.000763723 0c0.000131476,0 0.000223723,-4.90352e-006 0.000276436,-1.40976e-005 9.37798e-005,-1.71623e-005 0.000171623,-4.50511e-005 0.00023445,-8.42792e-005 6.28263e-005,-3.86152e-005 0.000114313,-9.59251e-005 0.000154767,-0.000170091 4.01476e-005,-7.50851e-005 6.09875e-005,-0.000160897 6.09875e-005,-0.000258661 0,-0.000114313 -2.94211e-005,-0.00021361 -8.79569e-005,-0.000298502 -5.85358e-005,-8.42792e-005 -0.000140057,-0.000143734 -0.000244257,-0.000178059 -0.000103587,-3.34052e-005 -0.000253757,-5.05675e-005 -0.000448672,-5.05675e-005l-0.000709478 0 0 0.00105426z"/>
   </g>
   <circle id="_803384824" class="fil1" cx="0.0150173" cy="0.0150173" r="0.00786819"/>
   <path id="_803384320" class="fil3" d="M0.00368346 0.0152178l7.90692e-005 -0.00113241c1.53235e-005,-0.000223417 3.64699e-005,-0.000390136 6.28263e-005,-0.00049924 2.66629e-005,-0.000108184 7.20204e-005,-0.000204415 0.000137911,-0.000287162 6.52781e-005,-8.30534e-005 0.000149251,-0.00015017 0.000251612,-0.000201044 0.000102667,-5.0874e-005 0.000215142,-7.1714e-005 0.00033773,-6.34393e-005 0.000133008,9.50057e-006 0.000251612,5.36322e-005 0.00035765,0.000132395 0.000105732,7.93757e-005 0.000181737,0.000181737 0.000228933,0.000308309 6.22134e-005,-0.000168865 0.000157526,-0.000295744 0.000285017,-0.000380023 0.000126879,-8.42792e-005 0.000273065,-0.000120749 0.000436413,-0.000108797 0.000129024,8.27469e-006 0.000251918,4.75028e-005 0.000369909,0.000115539 0.000117072,6.89557e-005 0.000209013,0.000156913 0.000274291,0.000266016 6.55846e-005,0.00010849 0.000101442,0.000239353 0.000107264,0.000392894 3.98411e-006,9.59251e-005 -6.1294e-006,0.000326697 -2.85017e-005,0.00069109l-6.74234e-005 0.000964154 -0.0028327 -0.000198286zm0.000511192 -0.000539081l0.000655233 4.65834e-005 2.60499e-005 -0.000375119c1.59364e-005,-0.00022311 2.17594e-005,-0.000361635 1.93076e-005,-0.00041588 -4.90352e-006,-9.86833e-005 -3.30988e-005,-0.000178059 -8.55051e-005,-0.000238434 -5.17934e-005,-6.00681e-005 -0.000123814,-9.31669e-005 -0.000215142,-9.89898e-005 -8.76504e-005,-6.43587e-006 -0.00016059,1.25653e-005 -0.00021882,5.73099e-005 -5.73099e-005,4.44381e-005 -9.56186e-005,0.0001137 -0.000114313,0.0002084 -1.07264e-005,5.63905e-005 -2.51305e-005,0.000219126 -4.38252e-005,0.000488207l-2.29852e-005 0.000327923zm0.00112628 7.93757e-005l0.0007579 5.30193e-005 3.64699e-005 -0.000529887c1.44041e-005,-0.000205641 1.77753e-005,-0.000337423 1.07264e-005,-0.000393507 -1.01135e-005,-8.61181e-005 -4.22929e-005,-0.000157832 -9.86833e-005,-0.000215755 -5.6084e-005,-5.73099e-005 -0.000134847,-8.97957e-005 -0.000235675,-9.62316e-005 -8.45857e-005,-5.82293e-006 -0.000157832,9.1941e-006 -0.000220045,4.59705e-005 -6.22134e-005,3.70829e-005 -0.000109716,9.40863e-005 -0.000142202,0.000170091 -3.21793e-005,7.60045e-005 -5.76164e-005,0.000244257 -7.60045e-005,0.000504143l-3.24858e-005 0.000462157z"/>
   <polygon id="_8033843201" class="fil3" points="0.00691028,0.0126321 0.00422438,0.0117075 0.00441133,0.011165 0.00709692,0.0120896 "/>
   <path id="_80338432012" class="fil3" d="M0.00705862 0.00985883l-0.000406073 -0.000253451 0.000655539 -0.00104843 0.000958945 0.000599762c3.49376e-005,0.000163348 3.00341e-005,0.000365312 -1.563e-005,0.000605278 -4.6277e-005,0.000240272 -0.000131169,0.000459705 -0.000254677,0.000657685 -0.000157526,0.000251612 -0.000347537,0.000438252 -0.000570341,0.000559921 -0.000222804,0.000121056 -0.000461544,0.000167333 -0.000717446,0.000138831 -0.000255596,-2.91146e-005 -0.000498933,-0.000115539 -0.000729705,-0.000259887 -0.000250692,-0.000156606 -0.000441317,-0.000348456 -0.000570034,-0.000575244 -0.000129024,-0.000227094 -0.000182656,-0.000474415 -0.000160284,-0.00074227 1.65494e-005,-0.000204415 9.68445e-005,-0.000421396 0.000240885,-0.000651249 0.00018664,-0.000299115 0.000394733,-0.000493723 0.000625812,-0.000583519 0.000230159,-8.91828e-005 0.000471657,-8.94892e-005 0.000722656,6.1294e-007l-0.000211464 0.000539694c-0.000139444,-4.01476e-005 -0.000272452,-3.43246e-005 -0.000399637,1.68558e-005 -0.000126879,4.99546e-005 -0.00023445,0.00014588 -0.000321793,0.000286243 -0.000133008,0.000212077 -0.000171317,0.000423235 -0.000114313,0.00063286 5.6084e-005,0.000209625 0.000216674,0.000397492 0.000481771,0.000562679 0.00028563,0.000178672 0.00054,0.000249467 0.000761884,0.000211158 0.000222497,-3.76958e-005 0.000398104,-0.000159364 0.000526822,-0.000365006 6.31328e-005,-0.000102054 0.000107571,-0.000216368 0.000131169,-0.000343859 2.39047e-005,-0.000128104 3.0647e-005,-0.000245482 1.93076e-005,-0.000354892l-0.000305551 -0.000190931 -0.000347843 0.000557162z"/>
   <path id="_803384320123" class="fil3" d="M0.00986312 0.00825446l-0.00146309 -0.00243521 0.00103434 -0.000621828c0.000260806,-0.000155993 0.000462463,-0.000247934 0.000606504,-0.00027521 0.000144347,-2.69694e-005 0.00028563,-5.82293e-006 0.000423235,6.37458e-005 0.000138218,6.86493e-005 0.000250999,0.000175301 0.000337423,0.000319342 0.000109716,0.000182656 0.000146799,0.000365619 0.000110329,0.000549501 -3.55505e-005,0.000183576 -0.000151396,0.000355199 -0.000345698,0.000514563 0.000143428,-1.83882e-006 0.000271839,1.34847e-005 0.000385539,4.5664e-005 0.0001137,3.34052e-005 0.000286243,0.000108797 0.000517321,0.000227707l0.000582599 0.000296356 -0.000587196 0.000353053 -0.000674234 -0.000316277c-0.000239966,-0.000113394 -0.000398104,-0.000181124 -0.000474109,-0.00020227 -7.6311e-005,-2.11464e-005 -0.000145267,-2.51305e-005 -0.000209013,-1.25653e-005 -6.28263e-005,1.31782e-005 -0.00015109,5.36322e-005 -0.000263871,0.000121975l-9.92963e-005 5.94552e-005 0.000610488 0.00101656 -0.000491271 0.000295437zm-0.00035336 -0.0017006l0.00036378 -0.00021882c0.000235982,-0.000141589 0.000377571,-0.000240272 0.000423848,-0.000294824 4.68899e-005,-5.57775e-005 7.23269e-005,-0.000117684 7.6311e-005,-0.000186027 3.67764e-006,-6.86493e-005 -1.59364e-005,-0.000139444 -5.94552e-005,-0.000212997 -4.99546e-005,-8.21339e-005 -0.000111249,-0.000134847 -0.000185108,-0.000158751 -7.41657e-005,-2.45176e-005 -0.000155074,-1.90011e-005 -0.000243031,1.53235e-005 -4.29058e-005,1.83882e-005 -0.000163961,8.79569e-005 -0.00036378,0.000207787l-0.0003837 0.000230159 0.000371135 0.00061815z"/>
   <polygon id="_8033843201234" class="fil3" points="0.0124056,0.0069204 0.0118638,0.00413213 0.0139312,0.00373066 0.0140225,0.00420232 0.0125187,0.00449469 0.0126382,0.00511223 0.0140388,0.00484039 0.0141298,0.0053099 0.0127301,0.00558266 0.0128776,0.00634148 0.0144353,0.00603838 0.0145267,0.00650789 "/>
   <path id="_80338432012345" class="fil3" d="M0.015409 0.00368683l0.00103771 0.000145267c0.000234143,3.34052e-005 0.000410057,7.6311e-005 0.000527741,0.00012933 0.000158138,7.20204e-005 0.000287775,0.000177753 0.000387378,0.000318729 0.000100829,0.00014067 0.000168865,0.000304938 0.000205335,0.000493417 3.55505e-005,0.000188479 3.55505e-005,0.000413734 -1.53235e-006,0.000677912 -3.27923e-005,0.000231385 -8.91828e-005,0.000426606 -0.000170704,0.000585971 -9.92963e-005,0.000195221 -0.000222804,0.000346618 -0.000370829,0.000455108 -0.000111862,8.21339e-005 -0.000255289,0.000138218 -0.00043059,0.000167946 -0.000130863,2.23723e-005 -0.000301566,1.83882e-005 -0.000511192,-1.13394e-005l-0.00106897 -0.00015017 0.000395653 -0.00281217zm0.000501078 0.00055563l-0.000261725 0.00186303 0.000423848 5.94552e-005c0.000158751,2.20658e-005 0.000274597,2.94211e-005 0.00034723,2.14529e-005 9.53122e-005,-9.80704e-006 0.000177446,-3.86152e-005 0.000245482,-8.45857e-005 6.86493e-005,-4.71964e-005 0.000130863,-0.000130556 0.000187253,-0.000250692 5.6084e-005,-0.000120749 9.89898e-005,-0.000289921 0.00012933,-0.000507514 3.12599e-005,-0.000217594 3.5244e-005,-0.000386765 1.34847e-005,-0.00050874 -2.26788e-005,-0.000121669 -6.34393e-005,-0.000220045 -0.000122894,-0.000294824 -6.03746e-005,-7.53916e-005 -0.000141589,-0.000131476 -0.000244257,-0.000169171 -7.66175e-005,-2.91146e-005 -0.000231385,-6.03746e-005 -0.000463076,-9.25539e-005l-0.000254677 -3.5857e-005z"/>
   <polygon id="_803384320123456" class="fil3" points="0.018874,0.00745825 0.0204075,0.00509629 0.0208887,0.00540828 0.0196153,0.00736968 0.0208111,0.00814597 0.0205506,0.00854745 "/>
   <polygon id="_8033843201234567" class="fil3" points="0.0207915,0.00888058 0.0228685,0.006944 0.0232592,0.00736294 0.0211826,0.00929983 "/>
   <polygon id="_80338432012345678" class="fil3" points="0.0216273,0.00964614 0.0240352,0.00814076 0.024331,0.00861426 0.0233389,0.0106045 0.0249473,0.00959987 0.0252292,0.0100516 0.022821,0.0115564 0.022516,0.0110691 0.0234796,0.00911626 0.0219095,0.0100979 "/>
   <polygon id="_803384320123456789" class="fil3" points="0.0230478,0.012139 0.0258253,0.0115487 0.0262632,0.0136091 0.025794,0.0137087 0.025475,0.0122095 0.024859,0.0123403 0.0251557,0.0137351 0.0246874,0.0138344 0.024391,0.0124399 0.023635,0.0126008 0.023965,0.0141522 0.0234967,0.0142524 "/>
  </g>
 </g>
</svg>
