<?xml version="1.0" encoding="UTF-8"?>
<!DOCTYPE svg PUBLIC "-//W3C//DTD SVG 1.1//EN" "http://www.w3.org/Graphics/SVG/1.1/DTD/svg11.dtd">
<!-- Creator: CorelDRAW -->
<svg xmlns="http://www.w3.org/2000/svg" xml:space="preserve" width="0.44485in" height="0.44485in" style="shape-rendering:geometricPrecision; text-rendering:geometricPrecision; image-rendering:optimizeQuality; fill-rule:evenodd; clip-rule:evenodd"
viewBox="0 0 0.0394372 0.0394372"
 xmlns:xlink="http://www.w3.org/1999/xlink">
 <defs>
  <style type="text/css">
   <![CDATA[
    .fil1 {fill:#ED3237}
    .fil0 {fill:#FEFEFE}
    .fil2 {fill:#3E4095;fill-rule:nonzero}
    .fil3 {fill:#FEFEFE;fill-rule:nonzero}
   ]]>
  </style>
 </defs>
 <g id="certs">
  <metadata id="CorelCorpID_0Corel-Layer"/>
  <g id="UP_x0020_logo">
   <circle id="_196180528" class="fil0" cx="0.0197186" cy="0.0197185" r="0.0197186"/>
   <rect id="_196181368" class="fil1" x="0.0151937" y="0.0188656" width="0.00166067" height="0.0134846"/>
   <polygon id="_196176664" class="fil1" points="0.0188335,0.0188656 0.0204945,0.0188656 0.0204945,0.0330923 0.0196394,0.0336992 0.0188335,0.0330291 "/>
   <polygon id="_196176216" class="fil1" points="0.011499,0.0188656 0.0131597,0.0188656 0.0131597,0.0320323 0.011499,0.0313855 "/>
   <polygon id="_196193744" class="fil1" points="0.00797665,0.0230748 0.00963732,0.0188656 0.00963732,0.0298624 0.00797665,0.0272139 0.0078332,0.0248643 "/>
   <rect id="_196192568" class="fil1" x="0.0225065" y="0.0188656" width="0.00166067" height="0.0134846"/>
   <polygon id="_196185008" class="fil1" points="0.0262053,0.0188656 0.0278663,0.0188656 0.0278663,0.0314302 0.0262053,0.0320563 "/>
   <polygon id="_196183720" class="fil1" points="0.0298777,0.0188656 0.0316497,0.0232466 0.0315387,0.0268171 0.0309995,0.0280865 0.0298777,0.0297751 "/>
   <g>
    <path id="_196171400" class="fil2" d="M0.0197197 0.00881152l1.04708e-005 -0.000443264 1.15179e-005 6.98053e-007 1.11688e-005 1.04708e-006 1.08198e-005 1.74513e-006 1.08198e-005 2.09416e-006 1.08198e-005 2.79221e-006 1.04708e-005 3.14124e-006 1.01218e-005 3.83929e-006 1.01218e-005 4.18832e-006 9.42372e-006 4.53735e-006 9.77274e-006 5.2354e-006 9.07469e-006 5.58442e-006 8.72566e-006 5.93345e-006 8.72566e-006 6.28248e-006 8.02761e-006 6.98053e-006 8.02761e-006 6.98053e-006 7.32956e-006 7.67858e-006 7.32956e-006 7.67858e-006 6.6315e-006 8.37664e-006 6.28248e-006 8.37664e-006 6.28248e-006 9.07469e-006 5.58442e-006 9.07469e-006 4.88637e-006 9.42372e-006 4.88637e-006 9.42372e-006 4.18832e-006 1.01218e-005 3.49027e-006 1.01218e-005 3.49027e-006 1.04708e-005 2.79221e-006 1.04708e-005 2.09416e-006 1.08198e-005 1.74513e-006 1.08198e-005 1.04708e-006 1.11688e-005 6.98053e-007 1.11688e-005 0 1.15179e-005 -6.98053e-007 1.15179e-005 -1.04708e-006 1.11688e-005 -1.74513e-006 1.08198e-005 -2.09416e-006 1.08198e-005 -2.79221e-006 1.08198e-005 -3.14124e-006 1.04708e-005 -3.83929e-006 1.01218e-005 -4.18832e-006 1.01218e-005 -4.53735e-006 9.42372e-006 -5.2354e-006 9.77274e-006 -5.58442e-006 9.07469e-006 -5.93345e-006 8.72566e-006 -6.28248e-006 8.72566e-006 -6.98053e-006 8.02761e-006 -6.98053e-006 8.02761e-006 -7.67858e-006 7.32956e-006 -7.67858e-006 7.32956e-006 -8.37664e-006 6.6315e-006 -8.37664e-006 6.28248e-006 -9.07469e-006 6.28248e-006 -9.07469e-006 5.58442e-006 -9.42372e-006 4.88637e-006 -9.42372e-006 4.88637e-006 -1.01218e-005 4.18832e-006 -1.01218e-005 3.49027e-006 -1.04708e-005 3.49027e-006 -1.04708e-005 2.79221e-006 -1.08198e-005 2.09416e-006 -1.08198e-005 1.74513e-006 -1.11688e-005 1.04708e-006 -1.11688e-005 6.98053e-007 -1.15179e-005 0zm-0.00211126 -0.000168231l6.00326e-005 -0.000439075 0 0 9.56333e-005 1.2565e-005 9.56333e-005 1.22159e-005 9.52842e-005 1.11688e-005 9.52842e-005 1.08198e-005 9.45862e-005 1.04708e-005 9.31901e-005 9.42372e-006 9.2492e-005 9.07469e-006 9.1794e-005 8.72566e-006 8.93508e-005 7.67858e-006 8.79547e-005 7.32956e-006 8.69076e-005 6.98053e-006 8.44644e-005 6.6315e-006 8.20212e-005 5.93345e-006 7.99271e-005 5.2354e-006 7.71349e-005 5.2354e-006 7.39936e-005 4.53735e-006 7.18995e-005 4.53735e-006 6.73621e-005 3.83929e-006 6.49189e-005 3.49027e-006 6.10796e-005 3.14124e-006 5.72404e-005 2.79221e-006 5.3052e-005 2.44319e-006 4.88637e-005 2.09416e-006 4.53735e-005 1.74513e-006 4.04871e-005 1.74513e-006 3.49027e-005 1.04708e-006 2.96673e-005 1.04708e-006 2.54789e-005 6.98053e-007 2.02435e-005 6.98053e-007 1.50081e-005 3.49027e-007 8.72566e-006 3.49027e-007 1.74513e-006 0 -1.04708e-005 0.000443264 -4.53735e-006 0 -8.72566e-006 -3.49027e-007 -1.50081e-005 -3.49027e-007 -2.02435e-005 -6.98053e-007 -2.6177e-005 -6.98053e-007 -3.17614e-005 -1.04708e-006 -3.69968e-005 -1.74513e-006 -4.04871e-005 -1.74513e-006 -4.53735e-005 -1.74513e-006 -5.02598e-005 -2.09416e-006 -5.44481e-005 -2.44319e-006 -5.86365e-005 -2.79221e-006 -6.17777e-005 -3.14124e-006 -6.6315e-005 -3.49027e-006 -6.94563e-005 -3.83929e-006 -7.25975e-005 -4.53735e-006 -7.53897e-005 -4.53735e-006 -7.8531e-005 -5.2354e-006 -8.13232e-005 -5.93345e-006 -8.34173e-005 -5.93345e-006 -8.65586e-005 -6.6315e-006 -8.76057e-005 -6.98053e-006 -9.00489e-005 -7.32956e-006 -9.2143e-005 -8.37664e-006 -9.31901e-005 -8.72566e-006 -9.45862e-005 -9.07469e-006 -9.59823e-005 -1.01218e-005 -9.66804e-005 -1.04708e-005 -9.73784e-005 -1.08198e-005 -9.80765e-005 -1.18669e-005 -9.84255e-005 -1.22159e-005 -9.91235e-005 -1.3263e-005 0 0zm6.00326e-005 -0.000439075l-6.00326e-005 0.000439075 -1.11688e-005 -1.74513e-006 -1.11688e-005 -2.44319e-006 -1.08198e-005 -2.79221e-006 -1.04708e-005 -3.49027e-006 -1.01218e-005 -3.83929e-006 -1.01218e-005 -4.53735e-006 -9.77274e-006 -4.88637e-006 -9.42372e-006 -5.2354e-006 -9.07469e-006 -5.58442e-006 -8.72566e-006 -6.28248e-006 -8.37664e-006 -6.6315e-006 -8.37664e-006 -6.6315e-006 -7.67858e-006 -7.32956e-006 -7.32956e-006 -7.67858e-006 -6.98053e-006 -8.02761e-006 -6.6315e-006 -8.37664e-006 -6.28248e-006 -8.72566e-006 -5.93345e-006 -8.72566e-006 -5.2354e-006 -9.42372e-006 -4.88637e-006 -9.42372e-006 -4.53735e-006 -9.42372e-006 -4.18832e-006 -1.01218e-005 -3.49027e-006 -1.01218e-005 -3.14124e-006 -1.04708e-005 -2.44319e-006 -1.04708e-005 -2.09416e-006 -1.04708e-005 -1.74513e-006 -1.08198e-005 -6.98053e-007 -1.11688e-005 -6.98053e-007 -1.08198e-005 3.49027e-007 -1.11688e-005 3.49027e-007 -1.15179e-005 1.39611e-006 -1.11688e-005 1.74513e-006 -1.11688e-005 2.44319e-006 -1.11688e-005 2.79221e-006 -1.08198e-005 3.49027e-006 -1.04708e-005 3.83929e-006 -1.01218e-005 4.53735e-006 -1.01218e-005 4.88637e-006 -9.77274e-006 5.2354e-006 -9.42372e-006 5.58442e-006 -9.07469e-006 6.28248e-006 -8.72566e-006 6.6315e-006 -8.37664e-006 6.6315e-006 -8.37664e-006 7.32956e-006 -7.67858e-006 7.67858e-006 -7.32956e-006 8.02761e-006 -6.98053e-006 8.37664e-006 -6.6315e-006 8.72566e-006 -6.28248e-006 8.72566e-006 -5.93345e-006 9.42372e-006 -5.2354e-006 9.42372e-006 -4.88637e-006 9.42372e-006 -4.53735e-006 1.01218e-005 -4.18832e-006 1.01218e-005 -3.49027e-006 1.01218e-005 -3.14124e-006 1.08198e-005 -2.44319e-006 1.04708e-005 -2.09416e-006 1.08198e-005 -1.74513e-006 1.11688e-005 -6.98053e-007 1.08198e-005 -6.98053e-007 1.11688e-005 3.49027e-007 1.15179e-005 3.49027e-007 1.11688e-005 1.39611e-006zm-0.00406476 -0.0010209l-0.000309238 -0.000317614 0.00026526 -3.31575e-005 9.91235e-005 5.65423e-005 0.000100171 5.58442e-005 0.000101567 5.54952e-005 0.000103312 5.47972e-005 0.00010401 5.37501e-005 0.000106802 5.34011e-005 0.0001075 5.3052e-005 0.000109245 5.2005e-005 0.000111339 5.13069e-005 0.000112736 5.06088e-005 0.00011483 4.95618e-005 0.000116924 4.88637e-005 0.000118669 4.78166e-005 0.000120414 4.67696e-005 0.000122857 4.57225e-005 0.000124952 4.50244e-005 0.000126697 4.36283e-005 0.000129489 4.29303e-005 0.000131932 4.15342e-005 0.000133677 4.04871e-005 0.000136469 3.944e-005 0.000138913 3.83929e-005 0.000141356 3.62988e-005 0.000144148 3.59497e-005 0.000146242 3.42046e-005 0.000149383 3.24595e-005 0.000152176 3.14124e-005 0.000154619 3.00163e-005 0.000158109 2.82712e-005 0.000160552 2.6875e-005 0.000163693 2.54789e-005 0.000166835 2.37338e-005 -6.00326e-005 0.000439075 -0.000171721 -2.44319e-005 -0.000169278 -2.6177e-005 -0.000166137 -2.75731e-005 -0.000162995 -2.96673e-005 -0.000160901 -3.07143e-005 -0.000157062 -3.28085e-005 -0.000154968 -3.38556e-005 -0.000152525 -3.56007e-005 -0.000149034 -3.66478e-005 -0.00014694 -3.83929e-005 -0.000144497 -3.9789e-005 -0.000142054 -4.08361e-005 -0.000139262 -4.18832e-005 -0.000136818 -4.36283e-005 -0.000135073 -4.43264e-005 -0.000132281 -4.57225e-005 -0.000130536 -4.71186e-005 -0.000127744 -4.78166e-005 -0.000125999 -4.88637e-005 -0.000123555 -4.99108e-005 -0.00012181 -5.09579e-005 -0.000119716 -5.16559e-005 -0.00011832 -5.2703e-005 -0.000115528 -5.34011e-005 -0.000114132 -5.40991e-005 -0.000112387 -5.51462e-005 -0.000110292 -5.54952e-005 -0.000108896 -5.65423e-005 -0.0001075 -5.68913e-005 -0.000105755 -5.75894e-005 -0.000103661 -5.79384e-005 -0.000102614 -5.86365e-005 0.00026526 -3.31575e-005zm-4.39773e-005 -0.000350772l-0.000221283 0.000383929 -9.77274e-006 -5.93345e-006 -9.07469e-006 -6.28248e-006 -9.07469e-006 -6.98053e-006 -8.37664e-006 -6.98053e-006 -8.02761e-006 -7.67858e-006 -7.67858e-006 -7.67858e-006 -7.32956e-006 -8.02761e-006 -6.6315e-006 -8.72566e-006 -6.28248e-006 -8.72566e-006 -5.93345e-006 -9.07469e-006 -5.2354e-006 -9.07469e-006 -4.88637e-006 -9.42372e-006 -4.53735e-006 -9.77274e-006 -3.83929e-006 -9.77274e-006 -3.49027e-006 -1.01218e-005 -3.14124e-006 -1.04708e-005 -2.44319e-006 -1.01218e-005 -2.09416e-006 -1.04708e-005 -1.39611e-006 -1.04708e-005 -1.04708e-006 -1.08198e-005 -6.98053e-007 -1.04708e-005 0 -1.08198e-005 6.98053e-007 -1.08198e-005 1.04708e-006 -1.04708e-005 1.39611e-006 -1.08198e-005 2.44319e-006 -1.04708e-005 2.44319e-006 -1.08198e-005 3.14124e-006 -1.04708e-005 3.83929e-006 -1.04708e-005 4.18832e-006 -1.01218e-005 4.88637e-006 -1.01218e-005 5.58442e-006 -1.01218e-005 5.93345e-006 -9.77274e-006 6.28248e-006 -9.07469e-006 6.98053e-006 -9.07469e-006 6.98053e-006 -8.37664e-006 7.67858e-006 -8.02761e-006 7.67858e-006 -7.67858e-006 8.02761e-006 -7.32956e-006 8.72566e-006 -6.6315e-006 8.72566e-006 -6.28248e-006 9.07469e-006 -5.93345e-006 9.07469e-006 -5.2354e-006 9.42372e-006 -4.88637e-006 9.77274e-006 -4.53735e-006 9.77274e-006 -3.83929e-006 1.01218e-005 -3.49027e-006 1.01218e-005 -3.14124e-006 1.04708e-005 -2.44319e-006 1.04708e-005 -2.09416e-006 1.04708e-005 -1.39611e-006 1.08198e-005 -1.04708e-006 1.04708e-005 -6.98053e-007 1.08198e-005 0 1.08198e-005 6.98053e-007 1.04708e-005 1.04708e-006 1.08198e-005 1.39611e-006 1.04708e-005 2.44319e-006 1.08198e-005 2.44319e-006 1.04708e-005 3.14124e-006 1.04708e-005 3.83929e-006 1.01218e-005 4.18832e-006 1.01218e-005 4.88637e-006 1.01218e-005 5.58442e-006zm-0.00459668 0.00514186l-0.000443264 0 0 0 6.10796e-005 -0.000154968 3.21104e-005 -3.66478e-005 4.67696e-005 -5.2703e-005 6.28248e-005 -6.91073e-005 7.78329e-005 -8.55115e-005 9.28411e-005 -0.000101218 0.000106104 -0.000115179 0.000118669 -0.000128442 0.000130885 -0.000141007 0.000141007 -0.000152176 0.000151478 -0.000161948 0.000159854 -0.000171372 0.000167533 -0.000179749 0.000175211 -0.00018638 0.000180796 -0.000193012 0.000186031 -0.000197549 0.00018987 -0.000201388 0.000193361 -0.000204181 0.000195106 -0.000206624 0.000196502 -0.000206973 0.0001972 -0.000206624 0.000195804 -0.000205228 0.000194757 -0.000203133 0.000191965 -0.000199643 0.000188474 -0.000195106 0.000183937 -0.000189521 0.000178353 -0.00018289 0.000172419 -0.00017556 0.000164392 -0.000166486 0.000156713 -0.000157411 0.000147638 -0.000146242 0.000137167 -0.000134724 0.000309238 0.000317614 -0.000135073 0.00013263 -0.000145544 0.000144846 -0.000155317 0.000155317 -0.000163693 0.000165788 -0.000171023 0.000174164 -0.000177655 0.000182192 -0.000183239 0.000188823 -0.000187776 0.000194408 -0.000191267 0.000198945 -0.000194059 0.000202435 -0.000195804 0.00020453 -0.000196502 0.000206624 -0.000195804 0.000206275 -0.000195106 0.000205926 -0.000192663 0.000204181 -0.00018987 0.00020069 -0.000185333 0.000197549 -0.000180796 0.000192314 -0.000174513 0.00018638 -0.000167533 0.000179051 -0.000159854 0.000171372 -0.000150779 0.000161948 -0.000141007 0.000151478 -0.000130187 0.000140309 -0.000117971 0.000128442 -0.000106104 0.000114481 -9.1445e-005 9.98216e-005 -7.71349e-005 8.48135e-005 -6.14287e-005 6.77112e-005 -4.39773e-005 4.92127e-005 -2.44319e-005 2.82712e-005 4.22322e-005 -0.000129838 0 0zm0.000838362 0.00125126l-0.000353913 0.000266656 0 0 -3.45536e-005 -4.46754e-005 -3.49027e-005 -4.50244e-005 -3.59497e-005 -4.50244e-005 -3.66478e-005 -4.57225e-005 -3.62988e-005 -4.46754e-005 -3.69968e-005 -4.46754e-005 -3.76949e-005 -4.53735e-005 -3.76949e-005 -4.50244e-005 -3.76949e-005 -4.50244e-005 -3.80439e-005 -4.60715e-005 -3.69968e-005 -4.50244e-005 -3.66478e-005 -4.50244e-005 -3.69968e-005 -4.53735e-005 -3.66478e-005 -4.57225e-005 -3.52517e-005 -4.57225e-005 -3.42046e-005 -4.50244e-005 -3.42046e-005 -4.60715e-005 -3.31575e-005 -4.60715e-005 -3.17614e-005 -4.64205e-005 -3.03653e-005 -4.64205e-005 -2.96673e-005 -4.71186e-005 -2.75731e-005 -4.74676e-005 -2.6526e-005 -4.78166e-005 -2.44319e-005 -4.88637e-005 -2.26867e-005 -4.88637e-005 -2.02435e-005 -4.95618e-005 -1.81494e-005 -5.09579e-005 -1.57062e-005 -5.2354e-005 -1.2565e-005 -5.3052e-005 -9.07469e-006 -5.2703e-005 -6.28248e-006 -5.51462e-005 -2.09416e-006 -5.58442e-005 0.000443264 0 6.98053e-007 2.30358e-005 2.79221e-006 2.44319e-005 4.88637e-006 2.6875e-005 6.28248e-006 2.72241e-005 8.72566e-006 2.86202e-005 1.11688e-005 3.07143e-005 1.3263e-005 3.21104e-005 1.50081e-005 3.35065e-005 1.74513e-005 3.42046e-005 1.95455e-005 3.59497e-005 2.12906e-005 3.62988e-005 2.33848e-005 3.73458e-005 2.54789e-005 3.87419e-005 2.6875e-005 3.87419e-005 2.82712e-005 3.9789e-005 3.00163e-005 4.04871e-005 3.21104e-005 4.15342e-005 3.24595e-005 4.22322e-005 3.31575e-005 4.15342e-005 3.49027e-005 4.32793e-005 3.59497e-005 4.36283e-005 3.62988e-005 4.43264e-005 3.66478e-005 4.39773e-005 3.76949e-005 4.50244e-005 3.76949e-005 4.57225e-005 3.76949e-005 4.53735e-005 3.9091e-005 4.67696e-005 3.83929e-005 4.74676e-005 3.80439e-005 4.71186e-005 3.80439e-005 4.78166e-005 3.76949e-005 4.85147e-005 3.73458e-005 4.88637e-005 0 0zm0.000601024 0.00214651l-0.00044117 4.04871e-005 0 0 -6.6315e-006 -6.6315e-005 -6.6315e-006 -6.77112e-005 -8.02761e-006 -6.73621e-005 -8.37664e-006 -6.91073e-005 -9.07469e-006 -6.91073e-005 -9.77274e-006 -6.94563e-005 -1.08198e-005 -7.05034e-005 -1.15179e-005 -7.08524e-005 -1.18669e-005 -7.01543e-005 -1.22159e-005 -7.01543e-005 -1.3612e-005 -7.01543e-005 -1.39611e-005 -7.01543e-005 -1.43101e-005 -6.87582e-005 -1.57062e-005 -6.87582e-005 -1.60552e-005 -6.80602e-005 -1.64042e-005 -6.73621e-005 -1.67533e-005 -6.49189e-005 -1.81494e-005 -6.42209e-005 -1.84984e-005 -6.38719e-005 -1.88474e-005 -6.14287e-005 -1.91965e-005 -6.00326e-005 -2.02435e-005 -5.82874e-005 -2.02435e-005 -5.58442e-005 -2.12906e-005 -5.44481e-005 -2.09416e-005 -5.16559e-005 -2.16396e-005 -4.81657e-005 -2.23377e-005 -4.71186e-005 -2.23377e-005 -4.39773e-005 -2.23377e-005 -4.04871e-005 -2.19887e-005 -3.76949e-005 -2.19887e-005 -3.38556e-005 -2.19887e-005 -3.03653e-005 0.000353913 -0.000266656 3.38556e-005 4.71186e-005 3.24595e-005 4.99108e-005 3.10634e-005 5.16559e-005 2.93182e-005 5.37501e-005 2.79221e-005 5.51462e-005 2.72241e-005 5.68913e-005 2.6526e-005 6.00326e-005 2.51299e-005 6.14287e-005 2.40828e-005 6.21267e-005 2.37338e-005 6.42209e-005 2.23377e-005 6.5966e-005 2.19887e-005 6.70131e-005 2.09416e-005 6.84092e-005 1.98945e-005 6.87582e-005 1.95455e-005 7.05034e-005 1.88474e-005 7.18995e-005 1.78004e-005 7.22485e-005 1.67533e-005 7.22485e-005 1.64042e-005 7.36446e-005 1.57062e-005 7.43427e-005 1.46591e-005 7.36446e-005 1.43101e-005 7.43427e-005 1.3612e-005 7.50407e-005 1.2565e-005 7.43427e-005 1.15179e-005 7.43427e-005 1.15179e-005 7.39936e-005 1.04708e-005 7.43427e-005 9.77274e-006 7.32956e-005 9.07469e-006 7.25975e-005 8.02761e-006 7.22485e-005 7.32956e-006 7.12014e-005 6.6315e-006 6.98053e-005 0 0zm-0.000767509 0.00354192l-0.000414644 -0.000157062 0 0 3.35065e-005 -8.93508e-005 3.35065e-005 -9.35391e-005 3.42046e-005 -9.80765e-005 3.42046e-005 -0.000101567 3.49027e-005 -0.000106104 3.45536e-005 -0.000108547 3.49027e-005 -0.000111339 3.42046e-005 -0.000113783 3.42046e-005 -0.000116226 3.38556e-005 -0.000117622 3.28085e-005 -0.000119018 3.24595e-005 -0.000120414 3.17614e-005 -0.000121112 3.10634e-005 -0.000120763 2.96673e-005 -0.000120763 2.86202e-005 -0.000121112 2.72241e-005 -0.000120065 2.6177e-005 -0.000118669 2.44319e-005 -0.000116924 2.26867e-005 -0.000115877 2.12906e-005 -0.000113085 1.95455e-005 -0.000110641 1.74513e-005 -0.000107849 1.53572e-005 -0.000104359 1.3263e-005 -0.000100171 1.08198e-005 -9.66804e-005 8.72566e-006 -9.10959e-005 5.93345e-006 -8.65586e-005 3.83929e-006 -8.13232e-005 1.04708e-006 -7.39936e-005 -1.39611e-006 -6.80602e-005 -3.83929e-006 -5.96835e-005 0.00044117 -4.04871e-005 5.2354e-006 8.13232e-005 2.09416e-006 8.48135e-005 -1.04708e-006 9.00489e-005 -4.53735e-006 9.31901e-005 -6.6315e-006 9.70294e-005 -9.42372e-006 0.000100869 -1.22159e-005 0.000104359 -1.39611e-005 0.000107849 -1.67533e-005 0.000110641 -1.81494e-005 0.000113434 -2.02435e-005 0.000116226 -2.19887e-005 0.000117971 -2.40828e-005 0.000120065 -2.51299e-005 0.00012181 -2.6875e-005 0.000122857 -2.86202e-005 0.000123555 -2.93182e-005 0.000123904 -3.03653e-005 0.000124952 -3.17614e-005 0.000124253 -3.24595e-005 0.000123904 -3.31575e-005 0.000123206 -3.42046e-005 0.000122508 -3.45536e-005 0.000121112 -3.49027e-005 0.000119018 -3.56007e-005 0.000117273 -3.56007e-005 0.00011483 -3.59497e-005 0.000112038 -3.56007e-005 0.000108896 -3.56007e-005 0.000105755 -3.56007e-005 0.000102265 -3.56007e-005 9.84255e-005 -3.49027e-005 9.35391e-005 0 0zm-0.000822656 0.00233499l-0.000409059 -0.000170325 0 0 2.96673e-005 -7.18995e-005 2.82712e-005 -7.01543e-005 2.72241e-005 -7.01543e-005 2.6875e-005 -6.91073e-005 2.5828e-005 -6.80602e-005 2.51299e-005 -6.73621e-005 2.47809e-005 -6.73621e-005 2.33848e-005 -6.6315e-005 2.33848e-005 -6.70131e-005 2.33848e-005 -6.70131e-005 2.26867e-005 -6.6315e-005 2.23377e-005 -6.5966e-005 2.19887e-005 -6.66641e-005 2.23377e-005 -6.77112e-005 2.19887e-005 -6.70131e-005 2.19887e-005 -6.77112e-005 2.23377e-005 -6.91073e-005 2.26867e-005 -6.91073e-005 2.26867e-005 -6.98053e-005 2.33848e-005 -7.15504e-005 2.37338e-005 -7.15504e-005 2.37338e-005 -7.29465e-005 2.51299e-005 -7.46917e-005 2.51299e-005 -7.50407e-005 2.6177e-005 -7.71349e-005 2.72241e-005 -7.8531e-005 2.79221e-005 -7.99271e-005 2.89692e-005 -8.13232e-005 3.00163e-005 -8.37664e-005 3.10634e-005 -8.51625e-005 3.21104e-005 -8.72566e-005 3.35065e-005 -8.90018e-005 0.000414644 0.000157062 -3.28085e-005 8.69076e-005 -3.14124e-005 8.51625e-005 -3.03653e-005 8.30683e-005 -2.93182e-005 8.16722e-005 -2.82712e-005 7.99271e-005 -2.72241e-005 7.78329e-005 -2.6526e-005 7.71349e-005 -2.54789e-005 7.50407e-005 -2.51299e-005 7.43427e-005 -2.44319e-005 7.32956e-005 -2.37338e-005 7.22485e-005 -2.37338e-005 7.15504e-005 -2.26867e-005 6.94563e-005 -2.26867e-005 7.05034e-005 -2.26867e-005 6.91073e-005 -2.23377e-005 6.84092e-005 -2.19887e-005 6.84092e-005 -2.26867e-005 6.84092e-005 -2.23377e-005 6.77112e-005 -2.26867e-005 6.80602e-005 -2.30358e-005 6.87582e-005 -2.33848e-005 6.77112e-005 -2.33848e-005 6.84092e-005 -2.40828e-005 6.84092e-005 -2.47809e-005 6.91073e-005 -2.54789e-005 7.01543e-005 -2.5828e-005 7.01543e-005 -2.72241e-005 7.15504e-005 -2.75731e-005 7.12014e-005 -2.86202e-005 7.22485e-005 -2.96673e-005 7.43427e-005 -3.10634e-005 7.46917e-005 0 0zm-0.000737842 0.00262119l-0.000441868 -3.42046e-005 0 0 7.32956e-006 -8.48135e-005 9.07469e-006 -8.51625e-005 1.04708e-005 -8.65586e-005 1.2565e-005 -8.72566e-005 1.39611e-005 -8.79547e-005 1.53572e-005 -8.83037e-005 1.67533e-005 -8.83037e-005 1.78004e-005 -8.86527e-005 1.91965e-005 -8.96998e-005 2.05926e-005 -8.96998e-005 2.16396e-005 -9.00489e-005 2.26867e-005 -9.00489e-005 2.33848e-005 -8.90018e-005 2.44319e-005 -9.03979e-005 2.5828e-005 -9.00489e-005 2.5828e-005 -8.93508e-005 2.72241e-005 -8.96998e-005 2.79221e-005 -8.90018e-005 2.82712e-005 -8.86527e-005 2.93182e-005 -8.79547e-005 2.93182e-005 -8.65586e-005 2.96673e-005 -8.72566e-005 3.07143e-005 -8.58605e-005 3.03653e-005 -8.51625e-005 3.14124e-005 -8.44644e-005 3.10634e-005 -8.30683e-005 3.10634e-005 -8.23703e-005 3.17614e-005 -8.13232e-005 3.14124e-005 -7.95781e-005 3.17614e-005 -7.888e-005 3.14124e-005 -7.64368e-005 3.10634e-005 -7.57388e-005 0.000409059 0.000170325 -3.03653e-005 7.36446e-005 -3.07143e-005 7.50407e-005 -3.03653e-005 7.60878e-005 -3.07143e-005 7.74839e-005 -3.03653e-005 7.8531e-005 -3.03653e-005 7.95781e-005 -3.03653e-005 8.09742e-005 -3.00163e-005 8.16722e-005 -2.96673e-005 8.23703e-005 -2.93182e-005 8.30683e-005 -2.89692e-005 8.37664e-005 -2.86202e-005 8.51625e-005 -2.79221e-005 8.44644e-005 -2.75731e-005 8.51625e-005 -2.6526e-005 8.55115e-005 -2.5828e-005 8.55115e-005 -2.51299e-005 8.58605e-005 -2.44319e-005 8.58605e-005 -2.30358e-005 8.55115e-005 -2.26867e-005 8.62096e-005 -2.19887e-005 8.51625e-005 -2.02435e-005 8.51625e-005 -1.91965e-005 8.41154e-005 -1.78004e-005 8.41154e-005 -1.71023e-005 8.37664e-005 -1.53572e-005 8.27193e-005 -1.46591e-005 8.20212e-005 -1.2565e-005 8.02761e-005 -1.11688e-005 7.95781e-005 -9.77274e-006 7.888e-005 -8.37664e-006 7.74839e-005 -6.6315e-006 7.64368e-005 0 0zm0.000283759 0.00341906l-0.000418832 0.000145195 0 0 -2.93182e-005 -9.00489e-005 -2.75731e-005 -9.38881e-005 -2.5828e-005 -9.80765e-005 -2.44319e-005 -0.000102614 -2.23377e-005 -0.000105755 -2.12906e-005 -0.000108896 -2.02435e-005 -0.000112038 -1.88474e-005 -0.000115528 -1.71023e-005 -0.000117622 -1.60552e-005 -0.000119716 -1.50081e-005 -0.000122159 -1.3612e-005 -0.000123206 -1.22159e-005 -0.000124602 -1.15179e-005 -0.000125301 -1.01218e-005 -0.000125999 -9.42372e-006 -0.000126697 -7.67858e-006 -0.000126348 -6.98053e-006 -0.00012565 -5.93345e-006 -0.000124952 -5.2354e-006 -0.000124253 -3.83929e-006 -0.000122508 -2.79221e-006 -0.000121112 -2.09416e-006 -0.000118669 -1.04708e-006 -0.000116575 0 -0.000113783 6.98053e-007 -0.000109943 1.39611e-006 -0.000107849 2.79221e-006 -0.000103661 3.14124e-006 -9.91235e-005 4.53735e-006 -9.52842e-005 4.88637e-006 -9.07469e-005 6.28248e-006 -8.58605e-005 0.000441868 3.42046e-005 -5.58442e-006 7.95781e-005 -4.88637e-006 8.51625e-005 -3.83929e-006 8.96998e-005 -3.14124e-006 9.56333e-005 -2.79221e-006 9.94726e-005 -1.39611e-006 0.000102963 -6.98053e-007 0.000107151 0 0.000110292 1.04708e-006 0.000112387 2.09416e-006 0.000115877 2.79221e-006 0.000117622 3.83929e-006 0.000119018 4.53735e-006 0.000120763 5.93345e-006 0.000121461 6.98053e-006 0.000122857 7.67858e-006 0.000122159 8.72566e-006 0.000122508 1.01218e-005 0.000122508 1.08198e-005 0.000121112 1.22159e-005 0.000120414 1.2914e-005 0.00011832 1.43101e-005 0.000116575 1.53572e-005 0.00011483 1.64042e-005 0.000111339 1.74513e-005 0.000108547 1.88474e-005 0.000105057 1.98945e-005 0.000101916 2.09416e-005 9.73784e-005 2.16396e-005 9.2143e-005 2.30358e-005 8.69076e-005 2.40828e-005 8.20212e-005 2.44319e-005 7.53897e-005 0 0zm0.00135143 0.00233708l-0.000301559 0.000324595 0 0 -4.92127e-005 -4.71186e-005 -4.99108e-005 -5.13069e-005 -4.99108e-005 -5.47972e-005 -4.99108e-005 -5.75894e-005 -5.02598e-005 -6.10796e-005 -5.02598e-005 -6.35228e-005 -5.09579e-005 -6.66641e-005 -5.13069e-005 -6.94563e-005 -5.09579e-005 -7.22485e-005 -5.09579e-005 -7.39936e-005 -5.13069e-005 -7.64368e-005 -5.13069e-005 -7.8531e-005 -5.09579e-005 -8.09742e-005 -5.06088e-005 -8.23703e-005 -4.99108e-005 -8.34173e-005 -5.02598e-005 -8.51625e-005 -4.92127e-005 -8.69076e-005 -4.88637e-005 -8.76057e-005 -4.78166e-005 -8.79547e-005 -4.67696e-005 -8.86527e-005 -4.64205e-005 -8.96998e-005 -4.57225e-005 -9.03979e-005 -4.39773e-005 -9.00489e-005 -4.25812e-005 -8.96998e-005 -4.22322e-005 -9.00489e-005 -4.01381e-005 -8.96998e-005 -3.87419e-005 -8.90018e-005 -3.73458e-005 -8.86527e-005 -3.52517e-005 -8.72566e-005 -3.38556e-005 -8.65586e-005 -3.21104e-005 -8.58605e-005 -2.96673e-005 -8.37664e-005 0.000418832 -0.000145195 2.75731e-005 7.74839e-005 2.93182e-005 7.888e-005 3.17614e-005 8.09742e-005 3.31575e-005 8.23703e-005 3.52517e-005 8.30683e-005 3.66478e-005 8.41154e-005 3.80439e-005 8.48135e-005 3.944e-005 8.51625e-005 4.11851e-005 8.62096e-005 4.18832e-005 8.58605e-005 4.29303e-005 8.55115e-005 4.43264e-005 8.55115e-005 4.53735e-005 8.51625e-005 4.57225e-005 8.44644e-005 4.60715e-005 8.34173e-005 4.71186e-005 8.20212e-005 4.74676e-005 8.09742e-005 4.78166e-005 7.99271e-005 4.78166e-005 7.74839e-005 4.81657e-005 7.60878e-005 4.78166e-005 7.36446e-005 4.78166e-005 7.15504e-005 4.81657e-005 6.98053e-005 4.67696e-005 6.5966e-005 4.64205e-005 6.31738e-005 4.60715e-005 6.03816e-005 4.53735e-005 5.72404e-005 4.39773e-005 5.34011e-005 4.29303e-005 4.92127e-005 4.15342e-005 4.57225e-005 3.944e-005 4.08361e-005 3.80439e-005 3.66478e-005 0 0zm0.00209765 0.00166241l-0.000168231 0.000410455 0 0 -7.64368e-005 -3.31575e-005 -7.71349e-005 -3.69968e-005 -7.67858e-005 -4.04871e-005 -7.74839e-005 -4.32793e-005 -7.78329e-005 -4.60715e-005 -7.8531e-005 -4.92127e-005 -7.8531e-005 -5.16559e-005 -7.81819e-005 -5.37501e-005 -7.81819e-005 -5.54952e-005 -7.8531e-005 -5.79384e-005 -7.8531e-005 -5.93345e-005 -7.78329e-005 -6.07306e-005 -7.71349e-005 -6.14287e-005 -7.74839e-005 -6.31738e-005 -7.60878e-005 -6.31738e-005 -7.57388e-005 -6.42209e-005 -7.46917e-005 -6.42209e-005 -7.36446e-005 -6.45699e-005 -7.25975e-005 -6.42209e-005 -7.08524e-005 -6.35228e-005 -6.98053e-005 -6.35228e-005 -6.80602e-005 -6.21267e-005 -6.6315e-005 -6.14287e-005 -6.45699e-005 -5.96835e-005 -6.24758e-005 -5.86365e-005 -6.07306e-005 -5.68913e-005 -5.75894e-005 -5.44481e-005 -5.54952e-005 -5.2703e-005 -5.2703e-005 -4.99108e-005 -5.02598e-005 -4.71186e-005 -4.67696e-005 -4.39773e-005 -4.39773e-005 -4.11851e-005 0.000301559 -0.000324595 4.53735e-005 4.18832e-005 4.81657e-005 4.53735e-005 5.02598e-005 4.78166e-005 5.2703e-005 4.99108e-005 5.54952e-005 5.2005e-005 5.75894e-005 5.44481e-005 5.93345e-005 5.61933e-005 6.17777e-005 5.72404e-005 6.31738e-005 5.89855e-005 6.5617e-005 6.00326e-005 6.66641e-005 6.14287e-005 6.77112e-005 6.14287e-005 6.94563e-005 6.21267e-005 7.05034e-005 6.28248e-005 7.08524e-005 6.17777e-005 7.18995e-005 6.21267e-005 7.29465e-005 6.14287e-005 7.32956e-005 6.10796e-005 7.32956e-005 5.96835e-005 7.36446e-005 5.86365e-005 7.36446e-005 5.72404e-005 7.36446e-005 5.58442e-005 7.29465e-005 5.37501e-005 7.25975e-005 5.13069e-005 7.18995e-005 4.95618e-005 7.08524e-005 4.67696e-005 6.94563e-005 4.36283e-005 6.80602e-005 4.04871e-005 6.70131e-005 3.76949e-005 6.49189e-005 3.35065e-005 6.24758e-005 3.00163e-005 6.03816e-005 2.6177e-005 0 0zm0.00279535 0.000804855l-5.2354e-005 0.000440472 0 0 -0.000130187 -1.64042e-005 -0.000126348 -1.74513e-005 -0.000122857 -1.84984e-005 -0.000120414 -1.95455e-005 -0.000116575 -2.05926e-005 -0.000112736 -2.16396e-005 -0.00011099 -2.19887e-005 -0.0001075 -2.33848e-005 -0.000105057 -2.40828e-005 -0.000102265 -2.51299e-005 -9.91235e-005 -2.54789e-005 -9.66804e-005 -2.6177e-005 -9.45862e-005 -2.6526e-005 -9.28411e-005 -2.72241e-005 -8.96998e-005 -2.82712e-005 -8.76057e-005 -2.79221e-005 -8.55115e-005 -2.82712e-005 -8.41154e-005 -2.93182e-005 -8.20212e-005 -2.93182e-005 -8.06251e-005 -2.93182e-005 -7.81819e-005 -2.93182e-005 -7.71349e-005 -2.96673e-005 -7.57388e-005 -2.93182e-005 -7.50407e-005 -3.00163e-005 -7.25975e-005 -2.96673e-005 -7.18995e-005 -2.93182e-005 -7.08524e-005 -2.93182e-005 -6.98053e-005 -2.89692e-005 -6.91073e-005 -2.89692e-005 -6.80602e-005 -2.79221e-005 -6.80602e-005 -2.82712e-005 -6.70131e-005 -2.75731e-005 0.000168231 -0.000410455 6.84092e-005 2.82712e-005 6.80602e-005 2.82712e-005 6.87582e-005 2.86202e-005 6.91073e-005 2.89692e-005 6.91073e-005 2.82712e-005 7.01543e-005 2.93182e-005 7.05034e-005 2.86202e-005 7.12014e-005 2.89692e-005 7.15504e-005 2.86202e-005 7.29465e-005 2.86202e-005 7.43427e-005 2.82712e-005 7.53897e-005 2.86202e-005 7.64368e-005 2.79221e-005 7.8531e-005 2.79221e-005 7.9229e-005 2.72241e-005 8.13232e-005 2.6875e-005 8.41154e-005 2.72241e-005 8.48135e-005 2.6177e-005 8.65586e-005 2.5828e-005 8.96998e-005 2.51299e-005 9.1794e-005 2.47809e-005 9.42372e-005 2.40828e-005 9.66804e-005 2.37338e-005 9.87745e-005 2.26867e-005 0.000101916 2.19887e-005 0.000104708 2.12906e-005 0.000108547 2.02435e-005 0.00011099 1.98945e-005 0.000114132 1.88474e-005 0.000117273 1.71023e-005 0.000121461 1.67533e-005 0.000124602 1.57062e-005 0 0zm0.00324211 0.00033332l-0.000108896 0.000429303 0 3.49027e-007 -3.38556e-005 -8.02761e-006 -4.18832e-005 -8.37664e-006 -4.78166e-005 -8.37664e-006 -5.47972e-005 -8.37664e-006 -6.10796e-005 -8.72566e-006 -6.6315e-005 -8.37664e-006 -7.12014e-005 -8.37664e-006 -7.60878e-005 -8.72566e-006 -8.02761e-005 -8.02761e-006 -8.55115e-005 -8.37664e-006 -8.96998e-005 -8.72566e-006 -9.28411e-005 -8.37664e-006 -9.77274e-005 -8.37664e-006 -0.000100171 -8.72566e-006 -0.000103661 -8.72566e-006 -0.0001075 -9.07469e-006 -0.000109943 -9.07469e-006 -0.000112387 -9.42372e-006 -0.000115179 -9.77274e-006 -0.000117273 -9.77274e-006 -0.000119716 -1.01218e-005 -0.000121461 -1.04708e-005 -0.000123206 -1.04708e-005 -0.000124952 -1.15179e-005 -0.000126348 -1.15179e-005 -0.000127395 -1.22159e-005 -0.000128093 -1.22159e-005 -0.000128791 -1.2914e-005 -0.000129838 -1.3612e-005 -0.000130187 -1.39611e-005 -0.000130187 -1.46591e-005 -0.000130187 -1.50081e-005 5.2354e-005 -0.000440472 0.000128093 1.50081e-005 0.000128791 1.46591e-005 0.000128093 1.39611e-005 0.000127744 1.2914e-005 0.000127395 1.2914e-005 0.000127395 1.22159e-005 0.000125999 1.22159e-005 0.000124952 1.15179e-005 0.000123555 1.08198e-005 0.000122508 1.04708e-005 0.000121461 1.04708e-005 0.000119018 1.01218e-005 0.000117273 9.77274e-006 0.000115179 9.77274e-006 0.000112387 9.42372e-006 0.000109943 9.07469e-006 0.0001075 9.07469e-006 0.000104359 8.72566e-006 0.000101567 8.72566e-006 9.77274e-005 9.07469e-006 9.49352e-005 8.37664e-006 9.10959e-005 8.72566e-006 8.69076e-005 8.37664e-006 8.37664e-005 8.72566e-006 7.95781e-005 8.72566e-006 7.46917e-005 9.07469e-006 7.12014e-005 9.07469e-006 6.5966e-005 9.42372e-006 6.17777e-005 9.07469e-006 5.82874e-005 1.04708e-005 5.3052e-005 1.04708e-005 4.99108e-005 1.15179e-005 0 3.49027e-007zm0.00152036 0.000660009l-0.000263864 0.000356007 0 0 -2.89692e-005 -2.09416e-005 -3.24595e-005 -2.16396e-005 -3.45536e-005 -2.26867e-005 -3.42046e-005 -2.16396e-005 -3.76949e-005 -2.19887e-005 -3.87419e-005 -2.23377e-005 -4.04871e-005 -2.23377e-005 -4.15342e-005 -2.23377e-005 -4.25812e-005 -2.19887e-005 -4.36283e-005 -2.16396e-005 -4.43264e-005 -2.12906e-005 -4.57225e-005 -2.16396e-005 -4.60715e-005 -2.09416e-005 -4.71186e-005 -2.05926e-005 -4.74676e-005 -2.05926e-005 -4.71186e-005 -2.02435e-005 -4.78166e-005 -1.91965e-005 -4.78166e-005 -1.91965e-005 -4.78166e-005 -1.84984e-005 -4.78166e-005 -1.81494e-005 -4.71186e-005 -1.74513e-005 -4.71186e-005 -1.71023e-005 -4.74676e-005 -1.64042e-005 -4.57225e-005 -1.57062e-005 -4.50244e-005 -1.50081e-005 -4.53735e-005 -1.46591e-005 -4.36283e-005 -1.3612e-005 -4.18832e-005 -1.2914e-005 -4.15342e-005 -1.18669e-005 -4.08361e-005 -1.15179e-005 -3.9091e-005 -1.08198e-005 -3.66478e-005 -9.77274e-006 0.000108896 -0.000429303 4.29303e-005 1.11688e-005 4.25812e-005 1.15179e-005 4.36283e-005 1.22159e-005 4.57225e-005 1.3263e-005 4.74676e-005 1.43101e-005 4.71186e-005 1.50081e-005 4.81657e-005 1.53572e-005 4.92127e-005 1.64042e-005 4.99108e-005 1.71023e-005 4.95618e-005 1.78004e-005 5.06088e-005 1.78004e-005 5.13069e-005 1.88474e-005 5.13069e-005 1.95455e-005 5.13069e-005 1.98945e-005 5.13069e-005 2.05926e-005 5.2005e-005 2.12906e-005 5.13069e-005 2.16396e-005 5.09579e-005 2.19887e-005 5.06088e-005 2.26867e-005 5.02598e-005 2.30358e-005 4.99108e-005 2.30358e-005 4.99108e-005 2.40828e-005 4.85147e-005 2.44319e-005 4.81657e-005 2.47809e-005 4.71186e-005 2.51299e-005 4.60715e-005 2.51299e-005 4.50244e-005 2.5828e-005 4.39773e-005 2.6177e-005 4.39773e-005 2.72241e-005 4.08361e-005 2.6875e-005 4.01381e-005 2.72241e-005 3.944e-005 2.86202e-005 0 0zm0.000564725 0.000683394l-0.000409757 0.000169627 2.79221e-006 5.93345e-006 -3.49027e-006 -7.32956e-006 0 -6.98053e-007 -1.39611e-006 -2.44319e-006 -3.83929e-006 -8.37664e-006 -2.79221e-006 -5.93345e-006 -4.18832e-006 -8.72566e-006 -4.88637e-006 -9.07469e-006 -5.58442e-006 -1.04708e-005 -7.32956e-006 -1.2914e-005 -8.02761e-006 -1.43101e-005 -8.02761e-006 -1.39611e-005 -9.42372e-006 -1.50081e-005 -1.04708e-005 -1.71023e-005 -1.15179e-005 -1.74513e-005 -1.18669e-005 -1.81494e-005 -1.3263e-005 -1.88474e-005 -1.39611e-005 -1.95455e-005 -1.50081e-005 -1.98945e-005 -1.57062e-005 -2.02435e-005 -1.74513e-005 -2.12906e-005 -1.74513e-005 -2.09416e-005 -1.88474e-005 -2.12906e-005 -2.05926e-005 -2.30358e-005 -2.09416e-005 -2.19887e-005 -2.12906e-005 -2.16396e-005 -2.30358e-005 -2.23377e-005 -2.47809e-005 -2.26867e-005 -2.44319e-005 -2.16396e-005 -2.6177e-005 -2.19887e-005 -2.75731e-005 -2.23377e-005 -2.82712e-005 -2.12906e-005 0.000263864 -0.000356007 3.73458e-005 2.82712e-005 3.52517e-005 2.86202e-005 3.45536e-005 2.82712e-005 3.35065e-005 3.00163e-005 3.03653e-005 2.82712e-005 3.07143e-005 2.93182e-005 2.89692e-005 2.93182e-005 2.72241e-005 2.89692e-005 2.54789e-005 2.79221e-005 2.51299e-005 2.82712e-005 2.37338e-005 2.86202e-005 2.16396e-005 2.6875e-005 2.12906e-005 2.72241e-005 1.98945e-005 2.6875e-005 1.81494e-005 2.51299e-005 1.74513e-005 2.51299e-005 1.60552e-005 2.37338e-005 1.50081e-005 2.30358e-005 1.39611e-005 2.19887e-005 1.2914e-005 2.12906e-005 1.22159e-005 2.09416e-005 1.01218e-005 1.78004e-005 9.42372e-006 1.71023e-005 9.07469e-006 1.67533e-005 7.67858e-006 1.53572e-005 6.98053e-006 1.3612e-005 6.28248e-006 1.2914e-005 3.14124e-006 6.98053e-006 4.88637e-006 1.01218e-005 3.49027e-006 8.37664e-006 -6.98053e-007 -1.74513e-006 3.49027e-006 8.02761e-006zm-0.000409757 0.000169627l0.000409757 -0.000169627 4.18832e-006 1.08198e-005 3.49027e-006 1.04708e-005 2.79221e-006 1.08198e-005 2.44319e-006 1.08198e-005 1.74513e-006 1.08198e-005 1.39611e-006 1.08198e-005 6.98053e-007 1.11688e-005 0 1.08198e-005 -3.49027e-007 1.04708e-005 -6.98053e-007 1.08198e-005 -1.39611e-006 1.08198e-005 -2.09416e-006 1.04708e-005 -2.09416e-006 1.01218e-005 -3.14124e-006 1.04708e-005 -3.14124e-006 1.01218e-005 -3.83929e-006 9.77274e-006 -4.53735e-006 9.77274e-006 -4.53735e-006 9.42372e-006 -5.2354e-006 9.42372e-006 -5.58442e-006 9.07469e-006 -6.28248e-006 8.72566e-006 -6.6315e-006 8.37664e-006 -6.98053e-006 8.37664e-006 -7.32956e-006 7.67858e-006 -7.67858e-006 7.67858e-006 -8.02761e-006 6.98053e-006 -8.72566e-006 6.98053e-006 -9.07469e-006 6.28248e-006 -9.07469e-006 5.93345e-006 -9.77274e-006 5.58442e-006 -1.01218e-005 5.2354e-006 -1.04708e-005 4.53735e-006 -1.08198e-005 4.18832e-006 -1.04708e-005 3.49027e-006 -1.08198e-005 2.79221e-006 -1.08198e-005 2.44319e-006 -1.08198e-005 1.74513e-006 -1.08198e-005 1.39611e-006 -1.11688e-005 6.98053e-007 -1.08198e-005 0 -1.04708e-005 -3.49027e-007 -1.08198e-005 -6.98053e-007 -1.08198e-005 -1.39611e-006 -1.04708e-005 -2.09416e-006 -1.01218e-005 -2.09416e-006 -1.04708e-005 -3.14124e-006 -1.01218e-005 -3.14124e-006 -9.77274e-006 -3.83929e-006 -9.77274e-006 -4.53735e-006 -9.42372e-006 -4.53735e-006 -9.42372e-006 -5.2354e-006 -9.07469e-006 -5.58442e-006 -8.72566e-006 -6.28248e-006 -8.37664e-006 -6.6315e-006 -8.37664e-006 -6.98053e-006 -7.67858e-006 -7.32956e-006 -7.67858e-006 -7.67858e-006 -6.98053e-006 -8.02761e-006 -6.98053e-006 -8.72566e-006 -6.28248e-006 -9.07469e-006 -5.93345e-006 -9.07469e-006 -5.58442e-006 -9.77274e-006 -5.2354e-006 -1.01218e-005 -4.53735e-006 -1.04708e-005zm0.000199643 -0.0255718l1.04708e-005 0.000443264 -1.15179e-005 0 -1.11688e-005 -6.98053e-007 -1.11688e-005 -1.04708e-006 -1.08198e-005 -1.74513e-006 -1.08198e-005 -2.09416e-006 -1.04708e-005 -2.79221e-006 -1.04708e-005 -3.49027e-006 -1.01218e-005 -3.49027e-006 -1.01218e-005 -4.18832e-006 -9.42372e-006 -4.88637e-006 -9.42372e-006 -4.88637e-006 -9.07469e-006 -5.58442e-006 -9.07469e-006 -6.28248e-006 -8.37664e-006 -6.28248e-006 -8.37664e-006 -6.6315e-006 -7.67858e-006 -7.32956e-006 -7.67858e-006 -7.32956e-006 -6.98053e-006 -8.02761e-006 -6.98053e-006 -8.02761e-006 -6.28248e-006 -8.72566e-006 -5.93345e-006 -8.72566e-006 -5.58442e-006 -9.07469e-006 -5.2354e-006 -9.77274e-006 -4.53735e-006 -9.42372e-006 -4.18832e-006 -1.01218e-005 -3.83929e-006 -1.01218e-005 -3.14124e-006 -1.04708e-005 -2.79221e-006 -1.08198e-005 -2.09416e-006 -1.08198e-005 -1.74513e-006 -1.08198e-005 -1.04708e-006 -1.11688e-005 -6.98053e-007 -1.15179e-005 0 -1.15179e-005 6.98053e-007 -1.11688e-005 1.04708e-006 -1.11688e-005 1.74513e-006 -1.08198e-005 2.09416e-006 -1.08198e-005 2.79221e-006 -1.04708e-005 3.49027e-006 -1.04708e-005 3.49027e-006 -1.01218e-005 4.18832e-006 -1.01218e-005 4.88637e-006 -9.42372e-006 4.88637e-006 -9.42372e-006 5.58442e-006 -9.07469e-006 6.28248e-006 -9.07469e-006 6.28248e-006 -8.37664e-006 6.6315e-006 -8.37664e-006 7.32956e-006 -7.67858e-006 7.32956e-006 -7.67858e-006 8.02761e-006 -6.98053e-006 8.02761e-006 -6.98053e-006 8.72566e-006 -6.28248e-006 8.72566e-006 -5.93345e-006 9.07469e-006 -5.58442e-006 9.77274e-006 -5.2354e-006 9.42372e-006 -4.53735e-006 1.01218e-005 -4.18832e-006 1.01218e-005 -3.83929e-006 1.04708e-005 -3.14124e-006 1.08198e-005 -2.79221e-006 1.08198e-005 -2.09416e-006 1.08198e-005 -1.74513e-006 1.11688e-005 -1.04708e-006 1.15179e-005 -6.98053e-007zm0.00206205 -0.000164042l6.00326e-005 0.000439075 0 0 -9.91235e-005 1.3263e-005 -9.84255e-005 1.22159e-005 -9.80765e-005 1.18669e-005 -9.73784e-005 1.08198e-005 -9.66804e-005 1.04708e-005 -9.59823e-005 1.01218e-005 -9.49352e-005 9.07469e-006 -9.28411e-005 8.72566e-006 -9.2143e-005 8.37664e-006 -9.03979e-005 7.32956e-006 -8.76057e-005 6.98053e-006 -8.62096e-005 6.6315e-006 -8.34173e-005 5.93345e-006 -8.13232e-005 5.93345e-006 -7.8531e-005 5.2354e-006 -7.57388e-005 4.53735e-006 -7.22485e-005 4.53735e-006 -6.98053e-005 3.83929e-006 -6.5966e-005 3.49027e-006 -6.24758e-005 3.14124e-006 -5.82874e-005 2.79221e-006 -5.44481e-005 2.44319e-006 -5.02598e-005 2.09416e-006 -4.53735e-005 1.74513e-006 -4.04871e-005 1.74513e-006 -3.69968e-005 1.74513e-006 -3.17614e-005 1.04708e-006 -2.6177e-005 6.98053e-007 -2.02435e-005 6.98053e-007 -1.50081e-005 3.49027e-007 -8.72566e-006 3.49027e-007 -4.53735e-006 0 -1.04708e-005 -0.000443264 1.74513e-006 0 8.72566e-006 -3.49027e-007 1.50081e-005 -3.49027e-007 2.02435e-005 -6.98053e-007 2.54789e-005 -6.98053e-007 2.96673e-005 -1.04708e-006 3.49027e-005 -1.04708e-006 4.04871e-005 -1.74513e-006 4.53735e-005 -1.74513e-006 4.88637e-005 -2.09416e-006 5.3052e-005 -2.44319e-006 5.75894e-005 -2.79221e-006 6.10796e-005 -3.14124e-006 6.45699e-005 -3.49027e-006 6.77112e-005 -3.83929e-006 7.15504e-005 -4.53735e-006 7.43427e-005 -4.53735e-006 7.71349e-005 -5.2354e-006 7.99271e-005 -5.2354e-006 8.20212e-005 -5.93345e-006 8.41154e-005 -6.6315e-006 8.69076e-005 -6.98053e-006 8.83037e-005 -7.32956e-006 8.93508e-005 -7.67858e-006 9.1445e-005 -8.72566e-006 9.28411e-005 -9.07469e-006 9.31901e-005 -9.42372e-006 9.45862e-005 -1.04708e-005 9.52842e-005 -1.08198e-005 9.52842e-005 -1.11688e-005 9.56333e-005 -1.22159e-005 9.56333e-005 -1.2565e-005 0 0zm6.00326e-005 0.000439075l-6.00326e-005 -0.000439075 1.11688e-005 -1.39611e-006 1.15179e-005 -3.49027e-007 1.11688e-005 -3.49027e-007 1.08198e-005 6.98053e-007 1.11688e-005 6.98053e-007 1.08198e-005 1.74513e-006 1.04708e-005 2.09416e-006 1.04708e-005 2.44319e-006 1.04708e-005 3.14124e-006 1.01218e-005 3.49027e-006 1.01218e-005 4.18832e-006 9.42372e-006 4.53735e-006 9.42372e-006 4.88637e-006 9.42372e-006 5.2354e-006 8.72566e-006 5.93345e-006 8.72566e-006 6.28248e-006 8.37664e-006 6.6315e-006 8.02761e-006 6.98053e-006 7.67858e-006 7.32956e-006 7.32956e-006 7.67858e-006 6.6315e-006 8.37664e-006 6.6315e-006 8.37664e-006 6.28248e-006 8.72566e-006 5.58442e-006 9.07469e-006 5.2354e-006 9.42372e-006 4.88637e-006 9.77274e-006 4.53735e-006 1.01218e-005 3.83929e-006 1.01218e-005 3.49027e-006 1.04708e-005 2.79221e-006 1.08198e-005 2.44319e-006 1.11688e-005 1.74513e-006 1.11688e-005 1.39611e-006 1.11688e-005 3.49027e-007 1.15179e-005 3.49027e-007 1.11688e-005 -6.98053e-007 1.08198e-005 -6.98053e-007 1.11688e-005 -1.74513e-006 1.08198e-005 -2.09416e-006 1.04708e-005 -2.44319e-006 1.04708e-005 -3.14124e-006 1.04708e-005 -3.49027e-006 1.01218e-005 -4.18832e-006 1.01218e-005 -4.53735e-006 9.42372e-006 -4.88637e-006 9.42372e-006 -5.2354e-006 9.42372e-006 -5.93345e-006 8.72566e-006 -6.28248e-006 8.72566e-006 -6.6315e-006 8.37664e-006 -6.98053e-006 8.02761e-006 -7.32956e-006 7.67858e-006 -7.67858e-006 7.32956e-006 -8.37664e-006 6.6315e-006 -8.37664e-006 6.6315e-006 -8.72566e-006 6.28248e-006 -9.07469e-006 5.58442e-006 -9.42372e-006 5.2354e-006 -9.77274e-006 4.88637e-006 -1.01218e-005 4.53735e-006 -1.01218e-005 3.83929e-006 -1.04708e-005 3.49027e-006 -1.08198e-005 2.79221e-006 -1.11688e-005 2.44319e-006 -1.11688e-005 1.74513e-006zm0.00431397 -0.00177759l-0.000309238 0.000317614 0.00026526 3.31575e-005 -0.000102614 5.86365e-005 -0.000103661 5.79384e-005 -0.000105755 5.75894e-005 -0.0001075 5.68913e-005 -0.000108896 5.65423e-005 -0.000110292 5.54952e-005 -0.000112387 5.51462e-005 -0.000114132 5.40991e-005 -0.000115877 5.34011e-005 -0.000117622 5.2703e-005 -0.000120065 5.16559e-005 -0.00012181 5.09579e-005 -0.000123555 4.99108e-005 -0.000125999 4.92127e-005 -0.000128093 4.74676e-005 -0.000130187 4.71186e-005 -0.00013263 4.57225e-005 -0.000134375 4.43264e-005 -0.000137516 4.36283e-005 -0.000139262 4.18832e-005 -0.000141356 4.08361e-005 -0.000144846 3.9789e-005 -0.00014694 3.83929e-005 -0.000149732 3.66478e-005 -0.000152176 3.56007e-005 -0.000154619 3.38556e-005 -0.000157411 3.28085e-005 -0.000160552 3.07143e-005 -0.000162995 2.96673e-005 -0.000166137 2.75731e-005 -0.000169278 2.6177e-005 -0.000171721 2.44319e-005 -6.00326e-005 -0.000439075 0.000166835 -2.37338e-005 0.000163693 -2.54789e-005 0.000160552 -2.6875e-005 0.000158109 -2.82712e-005 0.00015427 -3.00163e-005 0.000152525 -3.14124e-005 0.000149034 -3.24595e-005 0.000146591 -3.42046e-005 0.000144148 -3.59497e-005 0.000141356 -3.62988e-005 0.000138564 -3.83929e-005 0.000136469 -3.944e-005 0.000134375 -4.04871e-005 0.000131234 -4.15342e-005 0.000129489 -4.29303e-005 0.000127046 -4.36283e-005 0.000124602 -4.50244e-005 0.000123206 -4.60715e-005 0.000120414 -4.64205e-005 0.000118669 -4.78166e-005 0.000116924 -4.88637e-005 0.000114481 -4.95618e-005 0.000112736 -5.06088e-005 0.000111688 -5.13069e-005 0.000109245 -5.2005e-005 0.0001075 -5.3052e-005 0.000106802 -5.34011e-005 0.00010401 -5.37501e-005 0.000103312 -5.47972e-005 0.000101567 -5.54952e-005 0.000100171 -5.58442e-005 9.91235e-005 -5.65423e-005 0.00026526 3.31575e-005zm-4.39773e-005 0.000350772l-0.000221283 -0.000383929 1.01218e-005 -5.58442e-006 1.01218e-005 -4.88637e-006 1.01218e-005 -4.18832e-006 1.04708e-005 -3.83929e-006 1.04708e-005 -3.14124e-006 1.08198e-005 -2.44319e-006 1.04708e-005 -2.44319e-006 1.08198e-005 -1.39611e-006 1.04708e-005 -1.04708e-006 1.08198e-005 -6.98053e-007 1.08198e-005 0 1.04708e-005 6.98053e-007 1.08198e-005 1.04708e-006 1.04708e-005 1.39611e-006 1.04708e-005 2.09416e-006 1.01218e-005 2.44319e-006 1.04708e-005 3.14124e-006 1.01218e-005 3.49027e-006 9.77274e-006 3.83929e-006 9.77274e-006 4.53735e-006 9.42372e-006 4.88637e-006 9.07469e-006 5.2354e-006 9.07469e-006 5.93345e-006 8.72566e-006 6.28248e-006 8.72566e-006 6.6315e-006 8.02761e-006 7.32956e-006 7.67858e-006 7.67858e-006 7.67858e-006 8.02761e-006 6.98053e-006 8.37664e-006 6.98053e-006 9.07469e-006 6.28248e-006 9.07469e-006 5.93345e-006 9.77274e-006 5.58442e-006 1.01218e-005 4.88637e-006 1.01218e-005 4.18832e-006 1.01218e-005 3.83929e-006 1.04708e-005 3.14124e-006 1.04708e-005 2.44319e-006 1.08198e-005 2.44319e-006 1.04708e-005 1.39611e-006 1.08198e-005 1.04708e-006 1.04708e-005 6.98053e-007 1.08198e-005 0 1.08198e-005 -6.98053e-007 1.04708e-005 -1.04708e-006 1.08198e-005 -1.39611e-006 1.04708e-005 -2.09416e-006 1.04708e-005 -2.44319e-006 1.01218e-005 -3.14124e-006 1.04708e-005 -3.49027e-006 1.01218e-005 -3.83929e-006 9.77274e-006 -4.53735e-006 9.77274e-006 -4.88637e-006 9.42372e-006 -5.2354e-006 9.07469e-006 -5.93345e-006 9.07469e-006 -6.28248e-006 8.72566e-006 -6.6315e-006 8.72566e-006 -7.32956e-006 8.02761e-006 -7.67858e-006 7.67858e-006 -8.02761e-006 7.67858e-006 -8.37664e-006 6.98053e-006 -9.07469e-006 6.98053e-006 -9.07469e-006 6.28248e-006 -9.77274e-006 5.93345e-006zm0.00481866 0.00475793l-0.000443264 0 0 0 4.22322e-005 0.000129838 -2.44319e-005 -2.82712e-005 -4.39773e-005 -4.92127e-005 -6.14287e-005 -6.77112e-005 -7.71349e-005 -8.48135e-005 -9.1445e-005 -9.98216e-005 -0.000106104 -0.000114481 -0.000117971 -0.000128442 -0.000130187 -0.000140309 -0.000141007 -0.000151478 -0.000150779 -0.000161948 -0.000159854 -0.000171372 -0.000167533 -0.000179051 -0.000174513 -0.00018638 -0.000180796 -0.000192314 -0.000185333 -0.000197549 -0.00018987 -0.00020069 -0.000192663 -0.000204181 -0.000195106 -0.000205926 -0.000195804 -0.000206275 -0.000196502 -0.000206624 -0.000195804 -0.00020453 -0.000194059 -0.000202435 -0.000191267 -0.000198945 -0.000187776 -0.000194408 -0.000183239 -0.000188823 -0.000177655 -0.000182192 -0.000171023 -0.000174164 -0.000163693 -0.000165788 -0.000155317 -0.000155317 -0.000145544 -0.000144846 -0.000135073 -0.00013263 0.000309238 -0.000317614 0.000137167 0.000134724 0.000147638 0.000146242 0.000156713 0.000157411 0.000164392 0.000166486 0.000172419 0.00017556 0.000178353 0.00018289 0.000183937 0.000189521 0.000188474 0.000195106 0.000191965 0.000199643 0.000194757 0.000203133 0.000195804 0.000205228 0.0001972 0.000206624 0.000196502 0.000206973 0.000195106 0.000206624 0.000193361 0.000204181 0.00018987 0.000201388 0.000186031 0.000197549 0.000180796 0.000193012 0.000175211 0.00018638 0.000167533 0.000179749 0.000159854 0.000171372 0.000151478 0.000161948 0.000141007 0.000152176 0.000130885 0.000141007 0.000118669 0.000128442 0.000106104 0.000115179 9.28411e-005 0.000101218 7.78329e-005 8.55115e-005 6.28248e-005 6.91073e-005 4.67696e-005 5.2703e-005 3.21104e-005 3.66478e-005 6.10796e-005 0.000154968 0 0zm-0.000918289 0.0015043l-0.00037276 -0.000239432 0 -3.49027e-007 3.38556e-005 -5.06088e-005 3.42046e-005 -4.99108e-005 3.52517e-005 -4.95618e-005 3.62988e-005 -4.92127e-005 3.69968e-005 -4.85147e-005 3.73458e-005 -4.74676e-005 3.73458e-005 -4.71186e-005 3.73458e-005 -4.60715e-005 3.69968e-005 -4.57225e-005 3.73458e-005 -4.53735e-005 3.69968e-005 -4.50244e-005 3.66478e-005 -4.39773e-005 3.56007e-005 -4.39773e-005 3.49027e-005 -4.25812e-005 3.42046e-005 -4.25812e-005 3.28085e-005 -4.15342e-005 3.17614e-005 -4.15342e-005 3.07143e-005 -4.08361e-005 2.82712e-005 -3.83929e-005 2.6875e-005 -3.9091e-005 2.5828e-005 -3.87419e-005 2.26867e-005 -3.59497e-005 2.09416e-005 -3.56007e-005 1.91965e-005 -3.52517e-005 1.67533e-005 -3.31575e-005 1.3612e-005 -3.10634e-005 1.18669e-005 -3.03653e-005 9.77274e-006 -2.96673e-005 6.98053e-006 -2.6526e-005 4.53735e-006 -2.33848e-005 2.79221e-006 -2.37338e-005 1.04708e-006 -2.19887e-005 0.000443264 0 -2.44319e-006 5.68913e-005 -6.28248e-006 5.58442e-005 -1.08198e-005 5.61933e-005 -1.46591e-005 5.37501e-005 -1.67533e-005 5.13069e-005 -1.95455e-005 5.13069e-005 -2.26867e-005 5.06088e-005 -2.44319e-005 4.92127e-005 -2.6177e-005 4.78166e-005 -2.79221e-005 4.81657e-005 -3.03653e-005 4.78166e-005 -3.07143e-005 4.57225e-005 -3.17614e-005 4.60715e-005 -3.38556e-005 4.67696e-005 -3.42046e-005 4.50244e-005 -3.45536e-005 4.50244e-005 -3.56007e-005 4.50244e-005 -3.62988e-005 4.53735e-005 -3.62988e-005 4.46754e-005 -3.69968e-005 4.46754e-005 -3.66478e-005 4.46754e-005 -3.62988e-005 4.43264e-005 -3.66478e-005 4.46754e-005 -3.62988e-005 4.43264e-005 -3.59497e-005 4.46754e-005 -3.52517e-005 4.36283e-005 -3.38556e-005 4.39773e-005 -3.35065e-005 4.36283e-005 -3.21104e-005 4.36283e-005 -3.10634e-005 4.32793e-005 -3.00163e-005 4.36283e-005 -2.82712e-005 4.29303e-005 0 -3.49027e-007zm-0.000523191 0.00193396l-0.00044117 -4.04871e-005 0 0 6.6315e-006 -7.01543e-005 7.67858e-006 -7.15504e-005 8.72566e-006 -7.29465e-005 9.77274e-006 -7.25975e-005 1.04708e-005 -7.29465e-005 1.11688e-005 -7.32956e-005 1.18669e-005 -7.39936e-005 1.2914e-005 -7.43427e-005 1.3612e-005 -7.39936e-005 1.43101e-005 -7.39936e-005 1.53572e-005 -7.39936e-005 1.57062e-005 -7.32956e-005 1.64042e-005 -7.32956e-005 1.74513e-005 -7.22485e-005 1.78004e-005 -7.22485e-005 1.88474e-005 -7.18995e-005 1.88474e-005 -7.05034e-005 1.98945e-005 -6.94563e-005 2.02435e-005 -6.84092e-005 2.12906e-005 -6.80602e-005 2.19887e-005 -6.5617e-005 2.19887e-005 -6.5617e-005 2.33848e-005 -6.35228e-005 2.30358e-005 -6.14287e-005 2.40828e-005 -6.10796e-005 2.47809e-005 -5.89855e-005 2.5828e-005 -5.68913e-005 2.54789e-005 -5.51462e-005 2.6875e-005 -5.34011e-005 2.79221e-005 -5.16559e-005 2.79221e-005 -4.88637e-005 2.93182e-005 -4.74676e-005 0.00037276 0.000239432 -2.09416e-005 3.42046e-005 -2.16396e-005 3.76949e-005 -2.16396e-005 4.04871e-005 -2.12906e-005 4.29303e-005 -2.19887e-005 4.60715e-005 -2.16396e-005 4.92127e-005 -2.12906e-005 5.06088e-005 -2.12906e-005 5.2703e-005 -2.09416e-005 5.58442e-005 -2.05926e-005 5.65423e-005 -1.98945e-005 5.86365e-005 -1.98945e-005 6.07306e-005 -1.91965e-005 6.17777e-005 -1.88474e-005 6.35228e-005 -1.84984e-005 6.45699e-005 -1.81494e-005 6.5617e-005 -1.74513e-005 6.6315e-005 -1.64042e-005 6.73621e-005 -1.60552e-005 6.87582e-005 -1.57062e-005 6.84092e-005 -1.50081e-005 6.91073e-005 -1.39611e-005 6.91073e-005 -1.3612e-005 6.98053e-005 -1.2914e-005 6.98053e-005 -1.22159e-005 6.94563e-005 -1.11688e-005 6.91073e-005 -1.04708e-005 6.91073e-005 -9.77274e-006 6.94563e-005 -9.07469e-006 6.77112e-005 -8.02761e-006 6.66641e-005 -6.98053e-006 6.66641e-005 -6.6315e-006 6.5966e-005 0 0zm0.000740983 0.00334437l-0.000414644 0.000157062 0 0 -3.49027e-005 -9.35391e-005 -3.56007e-005 -9.84255e-005 -3.56007e-005 -0.000102265 -3.56007e-005 -0.000105755 -3.56007e-005 -0.000108896 -3.62988e-005 -0.000112038 -3.52517e-005 -0.000115179 -3.56007e-005 -0.000116924 -3.49027e-005 -0.000119018 -3.45536e-005 -0.000121112 -3.38556e-005 -0.000122159 -3.35065e-005 -0.000123206 -3.28085e-005 -0.000124253 -3.14124e-005 -0.000124253 -3.07143e-005 -0.000124602 -2.96673e-005 -0.000124602 -2.79221e-005 -0.000123555 -2.6875e-005 -0.000122159 -2.54789e-005 -0.00012181 -2.40828e-005 -0.000120414 -2.19887e-005 -0.00011832 -1.98945e-005 -0.000115877 -1.84984e-005 -0.000113434 -1.64042e-005 -0.00011099 -1.39611e-005 -0.0001075 -1.22159e-005 -0.000104359 -9.42372e-006 -0.00010052 -6.98053e-006 -9.73784e-005 -4.18832e-006 -9.38881e-005 -1.04708e-006 -8.93508e-005 2.09416e-006 -8.48135e-005 5.2354e-006 -8.13232e-005 0.00044117 4.04871e-005 -3.83929e-006 5.96835e-005 -1.39611e-006 6.80602e-005 1.04708e-006 7.46917e-005 3.49027e-006 8.06251e-005 6.28248e-006 8.62096e-005 8.72566e-006 9.1445e-005 1.08198e-005 9.66804e-005 1.3263e-005 0.00010052 1.50081e-005 0.00010401 1.78004e-005 0.000107849 1.91965e-005 0.00011099 2.12906e-005 0.000112736 2.26867e-005 0.000115528 2.47809e-005 0.000116924 2.6177e-005 0.000119367 2.72241e-005 0.000120065 2.82712e-005 0.000120414 3.00163e-005 0.000121112 3.07143e-005 0.000120763 3.14124e-005 0.000120763 3.28085e-005 0.000120414 3.31575e-005 0.000119367 3.38556e-005 0.000117622 3.42046e-005 0.000116226 3.42046e-005 0.000114132 3.45536e-005 0.00011099 3.49027e-005 0.000108547 3.49027e-005 0.000106104 3.42046e-005 0.000101567 3.42046e-005 9.80765e-005 3.35065e-005 9.35391e-005 3.35065e-005 8.93508e-005 0 0zm0.000817071 0.00232172l-0.000409059 0.000170325 0 0 -3.10634e-005 -7.46917e-005 -2.96673e-005 -7.39936e-005 -2.89692e-005 -7.25975e-005 -2.72241e-005 -7.18995e-005 -2.72241e-005 -7.08524e-005 -2.5828e-005 -7.01543e-005 -2.54789e-005 -7.01543e-005 -2.47809e-005 -6.91073e-005 -2.40828e-005 -6.84092e-005 -2.33848e-005 -6.84092e-005 -2.33848e-005 -6.77112e-005 -2.30358e-005 -6.87582e-005 -2.26867e-005 -6.80602e-005 -2.23377e-005 -6.77112e-005 -2.23377e-005 -6.80602e-005 -2.26867e-005 -6.84092e-005 -2.23377e-005 -6.91073e-005 -2.23377e-005 -6.94563e-005 -2.23377e-005 -6.91073e-005 -2.33848e-005 -7.01543e-005 -2.33848e-005 -7.15504e-005 -2.40828e-005 -7.22485e-005 -2.40828e-005 -7.36446e-005 -2.47809e-005 -7.32956e-005 -2.6177e-005 -7.57388e-005 -2.6177e-005 -7.74839e-005 -2.72241e-005 -7.74839e-005 -2.82712e-005 -7.99271e-005 -2.93182e-005 -8.16722e-005 -3.03653e-005 -8.30683e-005 -3.14124e-005 -8.51625e-005 -3.28085e-005 -8.69076e-005 0.000414644 -0.000157062 3.35065e-005 8.90018e-005 3.21104e-005 8.72566e-005 3.10634e-005 8.51625e-005 3.00163e-005 8.37664e-005 2.89692e-005 8.13232e-005 2.79221e-005 8.02761e-005 2.6875e-005 7.81819e-005 2.6177e-005 7.64368e-005 2.54789e-005 7.60878e-005 2.47809e-005 7.43427e-005 2.40828e-005 7.29465e-005 2.33848e-005 7.15504e-005 2.33848e-005 7.08524e-005 2.30358e-005 7.12014e-005 2.23377e-005 6.87582e-005 2.23377e-005 6.84092e-005 2.19887e-005 6.77112e-005 2.23377e-005 6.73621e-005 2.23377e-005 6.77112e-005 2.19887e-005 6.66641e-005 2.23377e-005 6.5966e-005 2.26867e-005 6.6315e-005 2.33848e-005 6.70131e-005 2.33848e-005 6.70131e-005 2.33848e-005 6.6315e-005 2.47809e-005 6.73621e-005 2.51299e-005 6.73621e-005 2.5828e-005 6.87582e-005 2.6526e-005 6.84092e-005 2.75731e-005 6.98053e-005 2.82712e-005 7.05034e-005 2.96673e-005 7.18995e-005 0 0zm0.000770651 0.00275731l-0.000441868 3.42046e-005 0 0 -6.6315e-006 -7.64368e-005 -8.37664e-006 -7.74839e-005 -9.77274e-006 -7.888e-005 -1.11688e-005 -7.95781e-005 -1.2565e-005 -8.02761e-005 -1.46591e-005 -8.20212e-005 -1.53572e-005 -8.27193e-005 -1.71023e-005 -8.37664e-005 -1.78004e-005 -8.41154e-005 -1.91965e-005 -8.37664e-005 -2.05926e-005 -8.55115e-005 -2.16396e-005 -8.55115e-005 -2.23377e-005 -8.51625e-005 -2.37338e-005 -8.62096e-005 -2.40828e-005 -8.58605e-005 -2.51299e-005 -8.55115e-005 -2.6177e-005 -8.58605e-005 -2.6526e-005 -8.55115e-005 -2.75731e-005 -8.55115e-005 -2.79221e-005 -8.48135e-005 -2.82712e-005 -8.37664e-005 -2.93182e-005 -8.44644e-005 -2.89692e-005 -8.30683e-005 -3.00163e-005 -8.23703e-005 -3.00163e-005 -8.20212e-005 -3.00163e-005 -8.06251e-005 -3.03653e-005 -7.95781e-005 -3.03653e-005 -7.8531e-005 -3.07143e-005 -7.74839e-005 -3.03653e-005 -7.60878e-005 -3.07143e-005 -7.50407e-005 -3.03653e-005 -7.36446e-005 0.000409059 -0.000170325 3.10634e-005 7.57388e-005 3.14124e-005 7.64368e-005 3.17614e-005 7.888e-005 3.14124e-005 7.95781e-005 3.17614e-005 8.13232e-005 3.10634e-005 8.23703e-005 3.14124e-005 8.34173e-005 3.07143e-005 8.41154e-005 3.07143e-005 8.51625e-005 3.03653e-005 8.58605e-005 3.00163e-005 8.65586e-005 2.96673e-005 8.79547e-005 2.86202e-005 8.76057e-005 2.82712e-005 8.83037e-005 2.79221e-005 8.90018e-005 2.6875e-005 8.93508e-005 2.6526e-005 8.96998e-005 2.54789e-005 9.00489e-005 2.44319e-005 8.96998e-005 2.37338e-005 9.00489e-005 2.23377e-005 8.96998e-005 2.19887e-005 8.96998e-005 2.05926e-005 9.00489e-005 1.91965e-005 8.96998e-005 1.78004e-005 8.86527e-005 1.67533e-005 8.83037e-005 1.53572e-005 8.83037e-005 1.39611e-005 8.79547e-005 1.2565e-005 8.72566e-005 1.04708e-005 8.65586e-005 9.07469e-006 8.51625e-005 7.32956e-006 8.48135e-005 0 0zm-0.000306794 0.00359846l-0.000418832 -0.000145195 0 0 2.44319e-005 -7.53897e-005 2.40828e-005 -8.20212e-005 2.30358e-005 -8.69076e-005 2.16396e-005 -9.2143e-005 2.09416e-005 -9.73784e-005 1.98945e-005 -0.000101916 1.88474e-005 -0.000105057 1.74513e-005 -0.000108547 1.64042e-005 -0.000111339 1.53572e-005 -0.00011483 1.43101e-005 -0.000116575 1.2914e-005 -0.00011832 1.22159e-005 -0.000120414 1.08198e-005 -0.000121112 1.01218e-005 -0.000122508 8.72566e-006 -0.000122508 7.67858e-006 -0.000122159 6.98053e-006 -0.000122857 5.93345e-006 -0.000121461 4.53735e-006 -0.000120763 3.83929e-006 -0.000119018 2.79221e-006 -0.000117622 2.09416e-006 -0.000115877 1.04708e-006 -0.000112387 0 -0.000110292 -6.98053e-007 -0.000107151 -1.39611e-006 -0.000102963 -2.79221e-006 -9.94726e-005 -3.14124e-006 -9.56333e-005 -3.83929e-006 -8.96998e-005 -4.88637e-006 -8.51625e-005 -5.58442e-006 -7.95781e-005 0.000441868 -3.42046e-005 6.28248e-006 8.58605e-005 4.88637e-006 9.07469e-005 4.53735e-006 9.52842e-005 3.14124e-006 9.91235e-005 2.79221e-006 0.000103661 1.39611e-006 0.000107849 6.98053e-007 0.000109943 0 0.000113783 -1.04708e-006 0.000116575 -2.09416e-006 0.000118669 -2.79221e-006 0.000121112 -3.83929e-006 0.000122508 -5.2354e-006 0.000124253 -5.93345e-006 0.000124952 -6.98053e-006 0.00012565 -7.67858e-006 0.000126348 -9.42372e-006 0.000126697 -1.01218e-005 0.000125999 -1.15179e-005 0.000125301 -1.22159e-005 0.000124602 -1.3612e-005 0.000123206 -1.50081e-005 0.000122159 -1.60552e-005 0.000119716 -1.71023e-005 0.000117622 -1.88474e-005 0.000115528 -2.02435e-005 0.000112038 -2.12906e-005 0.000108896 -2.23377e-005 0.000105755 -2.44319e-005 0.000102614 -2.5828e-005 9.80765e-005 -2.75731e-005 9.38881e-005 -2.93182e-005 9.00489e-005 0 0zm-0.0014687 0.00251648l-0.000301559 -0.000324595 0 0 3.80439e-005 -3.66478e-005 3.9091e-005 -4.04871e-005 4.15342e-005 -4.57225e-005 4.32793e-005 -4.99108e-005 4.43264e-005 -5.34011e-005 4.46754e-005 -5.65423e-005 4.57225e-005 -6.03816e-005 4.71186e-005 -6.35228e-005 4.67696e-005 -6.5966e-005 4.74676e-005 -6.94563e-005 4.81657e-005 -7.18995e-005 4.78166e-005 -7.36446e-005 4.81657e-005 -7.60878e-005 4.81657e-005 -7.78329e-005 4.78166e-005 -7.95781e-005 4.71186e-005 -8.06251e-005 4.71186e-005 -8.23703e-005 4.64205e-005 -8.37664e-005 4.60715e-005 -8.44644e-005 4.46754e-005 -8.44644e-005 4.39773e-005 -8.55115e-005 4.36283e-005 -8.62096e-005 4.18832e-005 -8.58605e-005 4.08361e-005 -8.55115e-005 3.944e-005 -8.55115e-005 3.87419e-005 -8.51625e-005 3.62988e-005 -8.34173e-005 3.49027e-005 -8.34173e-005 3.35065e-005 -8.27193e-005 3.17614e-005 -8.06251e-005 2.93182e-005 -7.888e-005 2.75731e-005 -7.74839e-005 0.000418832 0.000145195 -2.96673e-005 8.37664e-005 -3.21104e-005 8.58605e-005 -3.38556e-005 8.69076e-005 -3.56007e-005 8.69076e-005 -3.69968e-005 8.83037e-005 -3.9091e-005 8.96998e-005 -4.01381e-005 8.93508e-005 -4.15342e-005 8.96998e-005 -4.29303e-005 9.03979e-005 -4.46754e-005 9.00489e-005 -4.50244e-005 8.96998e-005 -4.60715e-005 8.96998e-005 -4.74676e-005 8.93508e-005 -4.81657e-005 8.79547e-005 -4.85147e-005 8.72566e-005 -4.92127e-005 8.65586e-005 -4.99108e-005 8.55115e-005 -5.06088e-005 8.37664e-005 -5.02598e-005 8.20212e-005 -5.09579e-005 8.09742e-005 -5.13069e-005 7.8531e-005 -5.09579e-005 7.60878e-005 -5.09579e-005 7.43427e-005 -5.16559e-005 7.22485e-005 -5.06088e-005 6.91073e-005 -5.06088e-005 6.66641e-005 -5.09579e-005 6.42209e-005 -5.06088e-005 6.10796e-005 -4.95618e-005 5.68913e-005 -4.92127e-005 5.47972e-005 -5.02598e-005 5.16559e-005 -4.92127e-005 4.71186e-005 0 0zm-0.00223133 0.00174827l-0.000167533 -0.000410455 -3.49027e-007 0 6.03816e-005 -2.6177e-005 6.24758e-005 -3.00163e-005 6.49189e-005 -3.35065e-005 6.70131e-005 -3.76949e-005 6.80602e-005 -4.04871e-005 6.94563e-005 -4.36283e-005 7.08524e-005 -4.67696e-005 7.18995e-005 -4.95618e-005 7.25975e-005 -5.13069e-005 7.25975e-005 -5.34011e-005 7.36446e-005 -5.58442e-005 7.39936e-005 -5.75894e-005 7.36446e-005 -5.86365e-005 7.32956e-005 -5.96835e-005 7.29465e-005 -6.07306e-005 7.25975e-005 -6.17777e-005 7.22485e-005 -6.21267e-005 7.15504e-005 -6.21267e-005 7.01543e-005 -6.24758e-005 6.94563e-005 -6.21267e-005 6.77112e-005 -6.14287e-005 6.66641e-005 -6.10796e-005 6.5268e-005 -6.03816e-005 6.35228e-005 -5.89855e-005 6.10796e-005 -5.72404e-005 6.00326e-005 -5.61933e-005 5.75894e-005 -5.44481e-005 5.51462e-005 -5.2005e-005 5.3052e-005 -5.02598e-005 5.02598e-005 -4.74676e-005 4.81657e-005 -4.53735e-005 4.53735e-005 -4.18832e-005 0.000301559 0.000324595 -4.39773e-005 4.11851e-005 -4.67696e-005 4.39773e-005 -5.02598e-005 4.74676e-005 -5.3052e-005 4.95618e-005 -5.51462e-005 5.2703e-005 -5.82874e-005 5.44481e-005 -6.00326e-005 5.68913e-005 -6.24758e-005 5.86365e-005 -6.49189e-005 5.96835e-005 -6.5966e-005 6.10796e-005 -6.80602e-005 6.24758e-005 -6.98053e-005 6.35228e-005 -7.08524e-005 6.35228e-005 -7.29465e-005 6.45699e-005 -7.36446e-005 6.42209e-005 -7.43427e-005 6.42209e-005 -7.53897e-005 6.38719e-005 -7.64368e-005 6.35228e-005 -7.74839e-005 6.31738e-005 -7.78329e-005 6.14287e-005 -7.74839e-005 6.03816e-005 -7.78329e-005 5.93345e-005 -7.888e-005 5.82874e-005 -7.81819e-005 5.54952e-005 -7.81819e-005 5.37501e-005 -7.8531e-005 5.16559e-005 -7.8531e-005 4.92127e-005 -7.78329e-005 4.60715e-005 -7.74839e-005 4.32793e-005 -7.67858e-005 4.04871e-005 -7.71349e-005 3.69968e-005 -7.64368e-005 3.31575e-005 -3.49027e-007 0zm-0.00291088 0.000834872l-5.2354e-005 -0.000440472 0 0 0.000124602 -1.57062e-005 0.000121112 -1.67533e-005 0.000117622 -1.71023e-005 0.000113783 -1.88474e-005 0.000111339 -1.98945e-005 0.000108547 -2.02435e-005 0.000104359 -2.12906e-005 0.000101916 -2.19887e-005 9.87745e-005 -2.26867e-005 9.66804e-005 -2.37338e-005 9.42372e-005 -2.40828e-005 9.1794e-005 -2.47809e-005 8.96998e-005 -2.51299e-005 8.69076e-005 -2.5828e-005 8.48135e-005 -2.6177e-005 8.37664e-005 -2.72241e-005 8.13232e-005 -2.6875e-005 7.95781e-005 -2.72241e-005 7.78329e-005 -2.79221e-005 7.71349e-005 -2.82712e-005 7.53897e-005 -2.82712e-005 7.39936e-005 -2.82712e-005 7.29465e-005 -2.86202e-005 7.18995e-005 -2.86202e-005 7.15504e-005 -2.89692e-005 7.01543e-005 -2.86202e-005 6.98053e-005 -2.93182e-005 6.98053e-005 -2.86202e-005 6.87582e-005 -2.86202e-005 6.87582e-005 -2.86202e-005 6.80602e-005 -2.82712e-005 6.87582e-005 -2.82712e-005 0.000167533 0.000410455 -6.66641e-005 2.75731e-005 -6.80602e-005 2.82712e-005 -6.80602e-005 2.79221e-005 -6.94563e-005 2.93182e-005 -6.98053e-005 2.86202e-005 -7.05034e-005 2.93182e-005 -7.22485e-005 2.93182e-005 -7.29465e-005 2.96673e-005 -7.46917e-005 3.00163e-005 -7.57388e-005 2.93182e-005 -7.67858e-005 2.96673e-005 -7.888e-005 2.96673e-005 -7.99271e-005 2.89692e-005 -8.20212e-005 2.93182e-005 -8.44644e-005 2.93182e-005 -8.55115e-005 2.82712e-005 -8.72566e-005 2.79221e-005 -9.03979e-005 2.82712e-005 -9.2492e-005 2.72241e-005 -9.45862e-005 2.6526e-005 -9.66804e-005 2.6177e-005 -9.91235e-005 2.54789e-005 -0.000102265 2.51299e-005 -0.000105057 2.40828e-005 -0.0001075 2.33848e-005 -0.000110641 2.19887e-005 -0.000113434 2.16396e-005 -0.000116226 2.05926e-005 -0.000120065 1.95455e-005 -0.000123206 1.84984e-005 -0.000125999 1.74513e-005 -0.000130187 1.64042e-005 0 0zm-0.00318557 0.000322152l-0.000108896 -0.000429303 0 -3.49027e-007 4.99108e-005 -1.15179e-005 5.3052e-005 -1.04708e-005 5.82874e-005 -1.04708e-005 6.17777e-005 -9.07469e-006 6.5966e-005 -9.42372e-006 7.08524e-005 -9.07469e-006 7.50407e-005 -9.07469e-006 7.9229e-005 -8.72566e-006 8.41154e-005 -8.72566e-006 8.69076e-005 -8.37664e-006 9.07469e-005 -8.72566e-006 9.52842e-005 -8.37664e-006 9.73784e-005 -9.07469e-006 0.000101567 -8.72566e-006 0.000104708 -8.72566e-006 0.000107151 -9.07469e-006 0.000109943 -9.07469e-006 0.000112736 -9.42372e-006 0.000115179 -9.77274e-006 0.000117273 -9.77274e-006 0.000119018 -1.01218e-005 0.000121112 -1.04708e-005 0.000122508 -1.04708e-005 0.000123904 -1.08198e-005 0.000124952 -1.15179e-005 0.000125999 -1.22159e-005 0.000127046 -1.22159e-005 0.000127744 -1.2914e-005 0.000127744 -1.2914e-005 0.000128093 -1.39611e-005 0.000128791 -1.46591e-005 0.000128093 -1.50081e-005 5.2354e-005 0.000440472 -0.000130187 1.50081e-005 -0.000130187 1.46591e-005 -0.000130187 1.39611e-005 -0.000129838 1.3612e-005 -0.00012914 1.2914e-005 -0.000127744 1.22159e-005 -0.000127395 1.22159e-005 -0.000126348 1.15179e-005 -0.000125301 1.15179e-005 -0.000123206 1.04708e-005 -0.000121112 1.04708e-005 -0.000119716 1.01218e-005 -0.000117273 9.77274e-006 -0.000115179 9.77274e-006 -0.000112736 9.42372e-006 -0.000109943 9.07469e-006 -0.000107151 9.07469e-006 -0.00010401 8.72566e-006 -0.000100171 8.72566e-006 -9.73784e-005 8.37664e-006 -9.31901e-005 8.37664e-006 -8.93508e-005 8.72566e-006 -8.55115e-005 8.37664e-006 -8.06251e-005 8.02761e-006 -7.57388e-005 8.72566e-006 -7.15504e-005 8.37664e-006 -6.5966e-005 8.37664e-006 -6.10796e-005 8.72566e-006 -5.47972e-005 8.37664e-006 -4.78166e-005 8.37664e-006 -4.18832e-005 8.37664e-006 -3.38556e-005 8.02761e-006 0 -3.49027e-007zm-0.00136539 0.000586714l-0.000263864 -0.000356007 0 0 3.944e-005 -2.86202e-005 4.01381e-005 -2.72241e-005 4.08361e-005 -2.6875e-005 4.39773e-005 -2.72241e-005 4.39773e-005 -2.6177e-005 4.50244e-005 -2.5828e-005 4.60715e-005 -2.51299e-005 4.71186e-005 -2.51299e-005 4.81657e-005 -2.47809e-005 4.85147e-005 -2.44319e-005 4.99108e-005 -2.40828e-005 4.99108e-005 -2.30358e-005 5.02598e-005 -2.30358e-005 5.06088e-005 -2.26867e-005 5.09579e-005 -2.19887e-005 5.13069e-005 -2.16396e-005 5.2005e-005 -2.12906e-005 5.13069e-005 -2.05926e-005 5.13069e-005 -1.98945e-005 5.13069e-005 -1.95455e-005 5.13069e-005 -1.88474e-005 5.06088e-005 -1.78004e-005 4.95618e-005 -1.78004e-005 4.99108e-005 -1.71023e-005 4.92127e-005 -1.64042e-005 4.81657e-005 -1.53572e-005 4.71186e-005 -1.50081e-005 4.74676e-005 -1.43101e-005 4.57225e-005 -1.3263e-005 4.36283e-005 -1.22159e-005 4.25812e-005 -1.15179e-005 4.29303e-005 -1.11688e-005 0.000108896 0.000429303 -3.66478e-005 9.77274e-006 -3.9091e-005 1.08198e-005 -4.08361e-005 1.15179e-005 -4.15342e-005 1.18669e-005 -4.18832e-005 1.2914e-005 -4.36283e-005 1.3612e-005 -4.53735e-005 1.46591e-005 -4.50244e-005 1.50081e-005 -4.57225e-005 1.57062e-005 -4.74676e-005 1.64042e-005 -4.71186e-005 1.71023e-005 -4.71186e-005 1.74513e-005 -4.78166e-005 1.81494e-005 -4.78166e-005 1.84984e-005 -4.78166e-005 1.91965e-005 -4.78166e-005 1.91965e-005 -4.71186e-005 2.02435e-005 -4.74676e-005 2.05926e-005 -4.71186e-005 2.05926e-005 -4.60715e-005 2.09416e-005 -4.57225e-005 2.16396e-005 -4.43264e-005 2.12906e-005 -4.36283e-005 2.16396e-005 -4.25812e-005 2.19887e-005 -4.15342e-005 2.23377e-005 -4.04871e-005 2.23377e-005 -3.87419e-005 2.23377e-005 -3.76949e-005 2.19887e-005 -3.42046e-005 2.16396e-005 -3.45536e-005 2.26867e-005 -3.24595e-005 2.16396e-005 -2.89692e-005 2.09416e-005 0 0zm-0.000419181 0.000497014l-0.000409757 -0.000169627 3.49027e-006 -8.02761e-006 -6.98053e-007 1.74513e-006 3.49027e-006 -8.37664e-006 4.88637e-006 -1.01218e-005 4.88637e-006 -1.01218e-005 4.88637e-006 -9.77274e-006 6.6315e-006 -1.3612e-005 9.07469e-006 -1.74513e-005 6.98053e-006 -1.2914e-005 1.01218e-005 -1.88474e-005 1.11688e-005 -1.91965e-005 1.15179e-005 -1.95455e-005 1.22159e-005 -1.98945e-005 1.3612e-005 -2.23377e-005 1.64042e-005 -2.51299e-005 1.57062e-005 -2.26867e-005 1.71023e-005 -2.51299e-005 1.91965e-005 -2.6177e-005 1.91965e-005 -2.5828e-005 2.12906e-005 -2.72241e-005 2.16396e-005 -2.6875e-005 2.37338e-005 -2.86202e-005 2.51299e-005 -2.82712e-005 2.54789e-005 -2.79221e-005 2.72241e-005 -2.89692e-005 2.86202e-005 -2.89692e-005 3.07143e-005 -2.96673e-005 3.14124e-005 -2.89692e-005 3.28085e-005 -2.93182e-005 3.45536e-005 -2.82712e-005 3.52517e-005 -2.86202e-005 3.73458e-005 -2.82712e-005 0.000263864 0.000356007 -2.82712e-005 2.12906e-005 -2.75731e-005 2.23377e-005 -2.6177e-005 2.19887e-005 -2.51299e-005 2.23377e-005 -2.44319e-005 2.19887e-005 -2.23377e-005 2.19887e-005 -2.16396e-005 2.19887e-005 -2.09416e-005 2.19887e-005 -2.05926e-005 2.30358e-005 -1.88474e-005 2.12906e-005 -1.74513e-005 2.09416e-005 -1.74513e-005 2.12906e-005 -1.57062e-005 2.02435e-005 -1.57062e-005 2.09416e-005 -1.3612e-005 1.84984e-005 -1.2914e-005 1.88474e-005 -1.2914e-005 1.91965e-005 -1.01218e-005 1.53572e-005 -1.01218e-005 1.67533e-005 -1.01218e-005 1.64042e-005 -8.72566e-006 1.53572e-005 -7.67858e-006 1.2914e-005 -5.93345e-006 1.11688e-005 -7.67858e-006 1.43101e-005 -4.18832e-006 6.98053e-006 -3.83929e-006 8.72566e-006 -4.88637e-006 9.07469e-006 -2.09416e-006 5.2354e-006 -1.39611e-006 2.44319e-006 0 6.98053e-007 -3.49027e-006 7.32956e-006 2.79221e-006 -5.93345e-006zm-0.000409757 -0.000169627l0.000409757 0.000169627 -4.53735e-006 1.04708e-005 -5.2354e-006 1.01218e-005 -5.58442e-006 9.77274e-006 -5.93345e-006 9.07469e-006 -6.28248e-006 9.07469e-006 -6.98053e-006 8.72566e-006 -6.98053e-006 8.02761e-006 -7.67858e-006 7.67858e-006 -7.67858e-006 7.32956e-006 -8.37664e-006 6.98053e-006 -8.37664e-006 6.6315e-006 -8.72566e-006 6.28248e-006 -9.07469e-006 5.58442e-006 -9.42372e-006 5.2354e-006 -9.42372e-006 4.53735e-006 -9.77274e-006 4.53735e-006 -9.77274e-006 3.83929e-006 -1.01218e-005 3.14124e-006 -1.04708e-005 3.14124e-006 -1.01218e-005 2.09416e-006 -1.04708e-005 2.09416e-006 -1.08198e-005 1.39611e-006 -1.08198e-005 6.98053e-007 -1.04708e-005 3.49027e-007 -1.08198e-005 0 -1.11688e-005 -6.98053e-007 -1.08198e-005 -1.39611e-006 -1.08198e-005 -1.74513e-006 -1.08198e-005 -2.44319e-006 -1.08198e-005 -2.79221e-006 -1.04708e-005 -3.49027e-006 -1.08198e-005 -4.18832e-006 -1.04708e-005 -4.53735e-006 -1.01218e-005 -5.2354e-006 -9.77274e-006 -5.58442e-006 -9.07469e-006 -5.93345e-006 -9.07469e-006 -6.28248e-006 -8.72566e-006 -6.98053e-006 -8.02761e-006 -6.98053e-006 -7.67858e-006 -7.67858e-006 -7.32956e-006 -7.67858e-006 -6.98053e-006 -8.37664e-006 -6.6315e-006 -8.37664e-006 -6.28248e-006 -8.72566e-006 -5.58442e-006 -9.07469e-006 -5.2354e-006 -9.42372e-006 -4.53735e-006 -9.42372e-006 -4.53735e-006 -9.77274e-006 -3.83929e-006 -9.77274e-006 -3.14124e-006 -1.01218e-005 -3.14124e-006 -1.04708e-005 -2.09416e-006 -1.01218e-005 -2.09416e-006 -1.04708e-005 -1.39611e-006 -1.08198e-005 -6.98053e-007 -1.08198e-005 -3.49027e-007 -1.04708e-005 0 -1.08198e-005 6.98053e-007 -1.11688e-005 1.39611e-006 -1.08198e-005 1.74513e-006 -1.08198e-005 2.44319e-006 -1.08198e-005 2.79221e-006 -1.08198e-005 3.49027e-006 -1.04708e-005 4.18832e-006 -1.08198e-005z"/>
   </g>
   <path class="fil2" d="M0.0197256 0.00873753l-6.98053e-007 0 0 -0.000147638 -3.83929e-006 0.00014694c-3.14124e-006,0 -0.0010579,-2.51299e-005 -0.00210219,-0.000167184 -0.000922826,-0.000125301 -0.00171302,-0.000323548 -0.00240759,-0.000568564 -0.000653727,-0.000230358 -0.00122334,-0.0005019 -0.00173885,-0.000793337 -0.000179749,0.000176607 -0.000386721,0.000384627 -0.000611145,0.00061324 -0.000255138,0.000260025 -0.000534709,0.00054867 -0.000823354,0.000849531 -0.00146137,0.00152176 -0.00314927,0.00329865 -0.00314927,0.00330389l3.49027e-007 0 0 6.98053e-007 -3.49027e-007 0c3.49027e-007,0.000218142 0.000305049,0.000587761 0.00054867,0.000882339 0.000147987,0.0001794 0.000275382,0.000333669 0.000322501,0.000443962l3.49027e-007 6.98053e-007c2.72241e-005,6.31738e-005 5.72404e-005,0.000136469 8.93508e-005,0.000219538 3.28085e-005,8.37664e-005 6.49189e-005,0.000169976 9.56333e-005,0.000256185 0.000165439,0.000467696 0.000334716,0.00106697 0.000383231,0.00160133l0 1.39611e-006 0 3.49027e-007c1.01218e-005,0.000109594 9.07469e-006,0.000241177 -1.04708e-006,0.000389165 -9.77274e-006,0.000145544 -2.82712e-005,0.000308888 -5.34011e-005,0.000483402 -0.00011832,0.00081742 -0.000389863,0.00190045 -0.000636624,0.00261211l0.0202404 0c-0.000250601,-0.000708175 -0.000550764,-0.00178492 -0.000687233,-0.00260095 -3.00163e-005,-0.000178353 -5.2005e-005,-0.000343791 -6.42209e-005,-0.000489335 -1.2565e-005,-0.000149034 -1.46591e-005,-0.000282712 -4.88637e-006,-0.0003944l0 -3.49027e-007 3.49027e-007 -1.39611e-006c4.85147e-005,-0.00053436 0.000217793,-0.00113364 0.000383231,-0.00160133 3.07143e-005,-8.62096e-005 6.28248e-005,-0.000172419 9.56333e-005,-0.000256185 3.21104e-005,-8.30683e-005 6.21267e-005,-0.000156364 8.90018e-005,-0.000219538l3.49027e-007 -6.98053e-007c4.74676e-005,-0.000110292 0.000174862,-0.000264562 0.00032285,-0.000443962 0.000243272,-0.000294578 0.000548321,-0.000664198 0.00054867,-0.000882339l-6.98053e-007 0 0 -6.98053e-007 6.98053e-007 0c0,-5.2354e-006 -0.00168789,-0.00178213 -0.00314927,-0.00330389 -0.000288994,-0.000300861 -0.000568215,-0.000589506 -0.000823354,-0.000849531 -0.000224424,-0.000228612 -0.000431397,-0.000436632 -0.000611495,-0.00061324 -0.000515512,0.000291437 -0.00108477,0.00056298 -0.0017385,0.000793337 -0.000694563,0.000245017 -0.00148476,0.000443264 -0.00240759,0.000568564 -0.000515861,7.01543e-005 -0.00103277,0.000111688 -0.00142473,0.00013612 -0.000386372,2.37338e-005 -0.000660707,3.07143e-005 -0.000677461,3.10634e-005l-3.49027e-006 6.98053e-007z"/>
   <path class="fil3" d="M0.0125555 0.0116219c-6.98053e-007,0.000114481 3.49027e-006,0.000220585 1.2565e-005,0.000319708 8.72566e-006,9.91235e-005 2.47809e-005,0.000190918 4.85147e-005,0.000275382 2.33848e-005,8.51625e-005 5.79384e-005,0.000162646 0.000102614,0.000234546 7.22485e-005,0.000113783 0.000164741,0.00021151 0.000277825,0.000293182 0.000113783,8.23703e-005 0.000243272,0.000145544 0.000389514,0.000190219 0.000146242,4.36283e-005 0.000305049,6.6315e-005 0.000477468,6.70131e-005 0.00017207,-6.98053e-007 0.000331575,-2.26867e-005 0.000477817,-6.6315e-005 0.000146242,-4.39773e-005 0.00027608,-0.000107151 0.000388816,-0.000188823 0.000113085,-8.20212e-005 0.000205577,-0.000180098 0.000277825,-0.000295276 4.46754e-005,-7.18995e-005 7.9229e-005,-0.000149383 0.00010401,-0.000234546 2.44319e-005,-8.44644e-005 4.11851e-005,-0.000176258 5.02598e-005,-0.000275382 9.42372e-006,-9.91235e-005 1.39611e-005,-0.000205228 1.3263e-005,-0.000319708l0 -0.00154758 -0.00102509 0 0 0.00155561c6.98053e-007,9.98216e-005 -6.6315e-006,0.000185333 -2.16396e-005,0.000255836 -1.60552e-005,7.05034e-005 -4.46754e-005,0.000124952 -8.65586e-005,0.000162297 -4.11851e-005,3.73458e-005 -0.000101218,5.65423e-005 -0.000178702,5.65423e-005 -7.9229e-005,0 -0.000138913,-1.91965e-005 -0.000179749,-5.65423e-005 -4.11851e-005,-3.73458e-005 -6.91073e-005,-9.1794e-005 -8.37664e-005,-0.000162297 -1.39611e-005,-7.05034e-005 -2.05926e-005,-0.000156015 -1.98945e-005,-0.000255836l0 -0.00155561 -0.00102509 0 0 0.00154758z"/>
   <path id="1" class="fil3" d="M0.0157069 0.0129262l0.000989141 0 0 -0.00102893c6.98053e-007,-5.79384e-005 -1.39611e-006,-0.000124602 -5.2354e-006,-0.000200341 -4.18832e-006,-7.50407e-005 -1.3612e-005,-0.000158807 -2.6875e-005,-0.000250601l0.000877802 0.00147987 0.00101288 0 0 -0.0028519 -0.000989141 0 0 0.00103696c0,6.17777e-005 1.39611e-006,0.000130536 5.2354e-006,0.000206275 4.88637e-006,7.57388e-005 1.3263e-005,0.000158807 2.6875e-005,0.000248507l-0.00088548 -0.00149174 -0.0010052 0 0 0.0028519z"/>
   <polygon id="12" class="fil3" points="0.0190973,0.0129262 0.0201385,0.0129262 0.0201385,0.0100743 0.0190973,0.0100743 "/>
   <path id="123" class="fil3" d="M0.0236403 0.0115064c-6.98053e-007,-0.000210812 -3.73458e-005,-0.000406267 -0.000110292,-0.000586365 -7.39936e-005,-0.000180796 -0.000180098,-0.000340301 -0.000320406,-0.000478864 -0.000144497,-0.000140309 -0.000309238,-0.000246413 -0.000493873,-0.000320406 -0.000184984,-7.29465e-005 -0.000384976,-0.000109594 -0.000599279,-0.000110292 -0.000213953,6.98053e-007 -0.000413945,3.73458e-005 -0.00059893,0.000110292 -0.000184635,7.39936e-005 -0.000349376,0.000180098 -0.000493873,0.000320406 -0.000140309,0.000138564 -0.000246413,0.000297371 -0.000319708,0.000477468 -7.36446e-005,0.0001794 -0.000110292,0.000375553 -0.00011099,0.000587761 6.98053e-007,0.000211859 3.73458e-005,0.000407314 0.00011099,0.000585667 7.32956e-005,0.000178702 0.0001794,0.000336811 0.000319708,0.000475025 0.000144497,0.000140309 0.000309238,0.00024746 0.000493873,0.000321802 0.000184984,7.46917e-005 0.000384976,0.000112387 0.00059893,0.000113085 0.000141705,0 0.000277476,-1.71023e-005 0.000408361,-5.06088e-005 0.000130885,-3.31575e-005 0.000253393,-8.23703e-005 0.000368223,-0.000146242 0.000115179,-6.35228e-005 0.00021884,-0.000142054 0.000312379,-0.000233848 0.000142403,-0.000140309 0.000249903,-0.000299814 0.000323897,-0.000478515 7.36446e-005,-0.000179051 0.000110292,-0.000374505 0.00011099,-0.000586365zm-0.00152385 0.000538199c-9.35391e-005,-3.49027e-007 -0.000176607,-2.23377e-005 -0.000249205,-6.5617e-005 -7.22485e-005,-4.39773e-005 -0.000128791,-0.000105755 -0.000169976,-0.000186031 -4.11851e-005,-7.99271e-005 -6.24758e-005,-0.00017556 -6.31738e-005,-0.000286551 6.98053e-007,-0.00011099 2.19887e-005,-0.000206973 6.31738e-005,-0.000287947 4.11851e-005,-8.09742e-005 9.77274e-005,-0.00014345 0.000169976,-0.000187427 7.25975e-005,-4.46754e-005 0.000155666,-6.66641e-005 0.000249205,-6.73621e-005 9.38881e-005,6.98053e-007 0.000176956,2.26867e-005 0.000248158,6.73621e-005 7.18995e-005,4.39773e-005 0.000128442,0.000106453 0.000168929,0.000187427 4.04871e-005,8.09742e-005 6.10796e-005,0.000176956 6.17777e-005,0.000287947 -6.98053e-007,0.00011099 -2.12906e-005,0.000206624 -6.17777e-005,0.000286551 -4.04871e-005,8.02761e-005 -9.70294e-005,0.000142054 -0.000168929,0.000186031 -7.12014e-005,4.32793e-005 -0.00015427,6.5268e-005 -0.000248158,6.5617e-005z"/>
   <path id="1234" class="fil3" d="M0.0240713 0.0129262l0.000989141 0 0 -0.00102893c6.98053e-007,-5.79384e-005 -1.39611e-006,-0.000124602 -5.2354e-006,-0.000200341 -4.18832e-006,-7.50407e-005 -1.3612e-005,-0.000158807 -2.6875e-005,-0.000250601l0.000877802 0.00147987 0.00101288 0 0 -0.0028519 -0.000989141 0 0 0.00103696c0,6.17777e-005 1.39611e-006,0.000130536 5.2354e-006,0.000206275 4.88637e-006,7.57388e-005 1.3263e-005,0.000158807 2.6875e-005,0.000248507l-0.00088548 -0.00149174 -0.0010052 0 0 0.0028519z"/>
   <path id="12345" class="fil3" d="M0.0130107 0.0156702l0.000159505 0c9.98216e-005,6.98053e-007 0.00017556,2.19887e-005 0.000226867,6.45699e-005 5.02598e-005,4.18832e-005 7.64368e-005,0.00010052 7.64368e-005,0.000174862 0,7.43427e-005 -2.6177e-005,0.000132281 -7.64368e-005,0.000172768 -5.13069e-005,4.11851e-005 -0.000127046,6.17777e-005 -0.000226867,6.24758e-005l-0.000159505 0 0 -0.000474676zm-0.00102893 0.00205821l0.00102509 0 0 -0.000841503 0.00032285 0c0.000252695,6.98053e-007 0.000461413,-3.21104e-005 0.00062755,-9.77274e-005 0.000165788,-6.66641e-005 0.000289343,-0.000171023 0.000371015,-0.000313775 8.16722e-005,-0.000143101 0.000122508,-0.000328434 0.000122508,-0.000557744 0,-0.000246762 -4.53735e-005,-0.000446056 -0.000135771,-0.000599628 -9.03979e-005,-0.000153572 -0.000227914,-0.00026526 -0.0004122,-0.000336462 -0.000183937,-7.12014e-005 -0.00041604,-0.000105755 -0.000696657,-0.000105057l-0.00122439 0 0 0.0028519z"/>
   <path id="123456" class="fil3" d="M0.0142235 0.0177285l0.00110083 0 8.79547e-005 -0.000359148 0.000773792 0 9.1445e-005 0.000359148 0.00110118 0 -0.000997169 -0.0028519 -0.00114097 0 -0.00101706 0.0028519zm0.00136016 -0.00103696l8.76057e-005 -0.000323199c1.39611e-005,-5.06088e-005 2.86202e-005,-0.000106453 4.46754e-005,-0.000168929 1.53572e-005,-6.17777e-005 3.00163e-005,-0.000130885 4.32793e-005,-0.000206624 1.2565e-005,-7.50407e-005 2.19887e-005,-0.000158807 2.79221e-005,-0.000250601l1.98945e-005 0c5.93345e-006,9.1794e-005 1.53572e-005,0.00017556 2.86202e-005,0.000250601 1.2565e-005,7.57388e-005 2.72241e-005,0.000144846 4.32793e-005,0.000206624 1.50081e-005,6.24758e-005 2.96673e-005,0.00011832 4.36283e-005,0.000168929l8.79547e-005 0.000323199 -0.000426859 0z"/>
   <path id="1234567" class="fil3" d="M0.0195605 0.0160095l0 -0.0010572c-0.000109594,-4.78166e-005 -0.000219538,-8.37664e-005 -0.000330528,-0.0001075 -0.00011099,-2.40828e-005 -0.000224075,-3.59497e-005 -0.000339603,-3.59497e-005 -0.000222679,1.39611e-006 -0.000426859,3.83929e-005 -0.000612193,0.000112387 -0.000185682,7.43427e-005 -0.000347281,0.000178004 -0.000483402,0.000313077 -0.000136818,0.000134026 -0.000242573,0.000292484 -0.000317614,0.000474676 -7.53897e-005,0.000182192 -0.000113085,0.000382184 -0.000114481,0.000599628 0,0.000166137 2.26867e-005,0.00032285 6.77112e-005,0.00046979 4.53735e-005,0.00014694 0.000111688,0.000281315 0.000199643,0.000404173 8.76057e-005,0.000123206 0.000195455,0.000231405 0.00032285,0.00032634 0.000130536,9.59823e-005 0.000273986,0.000168929 0.00043035,0.000219538 0.000155317,4.99108e-005 0.000321104,7.50407e-005 0.000495269,7.57388e-005 0.000111688,0 0.000222679,-1.11688e-005 0.000333669,-3.31575e-005 0.00011099,-2.26867e-005 0.000222679,-5.65423e-005 0.000336462,-0.000102265l3.17614e-005 -0.00107326c-0.000113085,8.44644e-005 -0.000220585,0.000149034 -0.000323199,0.000195106 -0.000102963,4.50244e-005 -0.000206624,6.77112e-005 -0.000310983,6.84092e-005 -0.000112387,-6.98053e-007 -0.00020802,-2.40828e-005 -0.000288645,-6.98053e-005 -8.02761e-005,-4.60715e-005 -0.000141356,-0.000110292 -0.000184635,-0.000193012 -4.32793e-005,-8.16722e-005 -6.45699e-005,-0.000178004 -6.5268e-005,-0.000287598 6.98053e-007,-0.000116575 2.47809e-005,-0.000216745 7.12014e-005,-0.00030121 4.64205e-005,-8.44644e-005 0.000111688,-0.000149732 0.000195455,-0.000195455 8.30683e-005,-4.60715e-005 0.000180796,-6.91073e-005 0.000291786,-6.98053e-005 0.000107151,0 0.000210114,2.19887e-005 0.000307841,6.6315e-005 9.77274e-005,4.39773e-005 0.000193361,0.00011099 0.000286551,0.000201039z"/>
   <polygon id="12345678" class="fil3" points="0.020031,0.0177285 0.0210721,0.0177285 0.0210721,0.0148766 0.020031,0.0148766 "/>
   <polygon id="123456789" class="fil3" points="0.0216264,0.0177285 0.0226515,0.0177285 0.0226515,0.0167114 0.023449,0.0167114 0.023449,0.0159816 0.0226515,0.0159816 0.0226515,0.0156504 0.0235328,0.0156504 0.0235328,0.0148766 0.0216264,0.0148766 "/>
   <polygon id="12345678910" class="fil3" points="0.0239038,0.0177285 0.0249449,0.0177285 0.0249449,0.0148766 0.0239038,0.0148766 "/>
   <path id="1234567891011" class="fil3" d="M0.0275972 0.0160095l0 -0.0010572c-0.000109594,-4.78166e-005 -0.000219538,-8.37664e-005 -0.000330528,-0.0001075 -0.00011099,-2.40828e-005 -0.000224075,-3.59497e-005 -0.000339603,-3.59497e-005 -0.000222679,1.39611e-006 -0.000426859,3.83929e-005 -0.000612193,0.000112387 -0.000185682,7.43427e-005 -0.000347281,0.000178004 -0.000483402,0.000313077 -0.000136818,0.000134026 -0.000242573,0.000292484 -0.000317614,0.000474676 -7.53897e-005,0.000182192 -0.000113085,0.000382184 -0.000114481,0.000599628 0,0.000166137 2.26867e-005,0.00032285 6.77112e-005,0.00046979 4.53735e-005,0.00014694 0.000111688,0.000281315 0.000199643,0.000404173 8.76057e-005,0.000123206 0.000195455,0.000231405 0.00032285,0.00032634 0.000130536,9.59823e-005 0.000273986,0.000168929 0.00043035,0.000219538 0.000155317,4.99108e-005 0.000321104,7.50407e-005 0.000495269,7.57388e-005 0.000111688,0 0.000222679,-1.11688e-005 0.000333669,-3.31575e-005 0.00011099,-2.26867e-005 0.000222679,-5.65423e-005 0.000336462,-0.000102265l3.17614e-005 -0.00107326c-0.000113085,8.44644e-005 -0.000220585,0.000149034 -0.000323199,0.000195106 -0.000102963,4.50244e-005 -0.000206624,6.77112e-005 -0.000310983,6.84092e-005 -0.000112387,-6.98053e-007 -0.00020802,-2.40828e-005 -0.000288645,-6.98053e-005 -8.02761e-005,-4.60715e-005 -0.000141356,-0.000110292 -0.000184635,-0.000193012 -4.32793e-005,-8.16722e-005 -6.45699e-005,-0.000178004 -6.5268e-005,-0.000287598 6.98053e-007,-0.000116575 2.47809e-005,-0.000216745 7.12014e-005,-0.00030121 4.64205e-005,-8.44644e-005 0.000111688,-0.000149732 0.000195455,-0.000195455 8.30683e-005,-4.60715e-005 0.000180796,-6.91073e-005 0.000291786,-6.98053e-005 0.000107151,0 0.000210114,2.19887e-005 0.000307841,6.6315e-005 9.77274e-005,4.39773e-005 0.000193361,0.00011099 0.000286551,0.000201039z"/>
  </g>
 </g>
</svg>
