<svg id="Layer_1" data-name="Layer 1" xmlns="http://www.w3.org/2000/svg" viewBox="0 0 38 38"><defs><style>.cls-1,.cls-3{fill:#fff}.cls-1{fill-rule:evenodd}</style></defs><path class="cls-1" d="M18.94 1.06h1.92l1.8.36 1.68.36 1.68.6 1.56.84 1.44.84 1.44 1.08 1.32 1.2 1.08 1.2 1.08 1.44.96 1.44.72 1.56.6 1.68.48 1.8.24 1.8.12 1.8-.12 1.8-.24 1.8-.48 1.8-.6 1.56-.72 1.68-.96 1.44-1.08 1.44-1.08 1.2-1.32 1.2-1.44 1.08-1.44.84-1.56.72-1.68.72-1.68.36-1.8.24-1.92.12-1.8-.12-1.8-.24-1.68-.36-1.68-.72-1.56-.72-1.56-.84-1.32-1.08-1.32-1.2-1.2-1.2-.96-1.44-.96-1.44-.72-1.68-.6-1.56-.48-1.8-.24-1.8-.12-1.8.12-1.8.24-1.8.48-1.8.6-1.68.72-1.56.96-1.44.96-1.44 1.2-1.2 1.32-1.2 1.32-1.08 1.56-.84 1.56-.84 1.68-.6 1.68-.36 1.8-.36h1.8z"/><path d="M18.94.46v1.08h-1.8l-.36.12h-.48l-.36.12-.48.12H15l-.38.1-.48.12-.36.12-.36.12-.48.24-.36.12-.36.12-.48.24-.36.12-.38.26-.36.12-.36.24-.36.24-.36.24-.36.24-.36.24L8.5 5l-.36.24-.36.24-.24.24-.36.36-.24.24-.36.36-.24.24L6 7.3l-.24.24-.26.36-.36.36-.24.24-.24.36-.24.36-.24.36-.24.36-.12.36-.24.36-.24.34-.12.48-.22.38-.12.36-.24.36-.12.48-.12.36-.12.36-.12.48-.16.36-.12.48-.12.36v.48l-.12.48-.12.36v1l-.12.36v1h-1v-1.52l.12-.48v-.48l.12-.48v-.36l.12-.48.12-.48.12-.48.18-.38.12-.48.12-.48.12-.36.24-.48.12-.36.24-.48.12-.36.24-.36.24-.48.12-.36.24-.36.24-.36.24-.36.24-.48.36-.36.24-.24.24-.36.34-.34.24-.36.36-.36.26-.22.36-.36.36-.24.24-.4.36-.24.36-.36.36-.24.36-.24.36-.24.38-.22.36-.24.46-.22.36-.24.36-.24.36-.12.48-.24.36-.16.48-.24.36-.12.48-.12.36-.24.48-.12.48-.12.48-.12h.36l.48-.1.48-.12h.48l.48-.12H18l.48-.12zM.46 19.06h1v.84l.12.48v1l.12.36.12.48v.36l.08.42.12.36.12.48.12.36.12.48.12.36.12.48.24.36.12.36.24.36.12.36.24.48.24.36.12.36.24.36.24.36.24.36.24.24.24.36.36.36.24.36.24.24.36.36.24.24.36.36.24.24.36.24.24.36.36.24.36.24.36.24.36.24.36.24.36.24.36.24.36.12.36.24.36.24.36.12.48.24.36.12.36.12.48.12.36.24.36.12.48.12H15l.48.12.48.12h.36l.48.12h.36l.48.12h1.32v1h-1.8l-.48-.12h-.48l-.48-.12-.48-.12-.36-.12h-.48l-.48-.12-.48-.24-.36-.12-.48-.12-.36-.12-.48-.24-.38-.12-.48-.24-.36-.12-.36-.24-.36-.24-.48-.24-.34-.26-.36-.24-.36-.24-.36-.24-.36-.36-.36-.24-.36-.24-.24-.36-.36-.24-.36-.36-.24-.24-.36-.36-.28-.36-.36-.36-.24-.36-.24-.36-.36-.36-.24-.36-.22-.38-.24-.36-.24-.36-.12-.36-.24-.48-.24-.36-.12-.48-.24-.36-.12-.36-.24-.48-.12-.48-.12-.36-.12-.48-.12-.36-.12-.48-.12-.48-.12-.46v-.48l-.12-.36V21l-.12-.5v-1.44zm18.48 18.48v-1h1.44l.36-.12h.48l.48-.12h.36l.48-.12.36-.12h.48l.36-.12.48-.12.36-.24.48-.12.36-.12.36-.12.48-.24.36-.12.36-.24.36-.24.36-.12.36-.24.36-.24.36-.24.36-.24.36-.24.36-.24.24-.24.36-.36.36-.24.24-.24.36-.36.24-.24.36-.36.24-.24.24-.36.24-.36.36-.36.24-.24.24-.36.24-.36.12-.36.24-.36.24-.36.24-.48.12-.36.24-.36.12-.36.12-.36.24-.48.12-.36.12-.48.12-.36.12-.48.12-.34.12-.48v-.36l.12-.48v-.36l.12-.48v-1l.12-.36V19h1v1.5l-.12.48v.48l-.12.36v.48l-.12.48-.12.48-.12.48-.12.36-.12.48-.12.36-.12.48-.24.48-.12.36-.24.36-.12.48-.24.36-.24.48-.3.36-.12.36-.24.36-.24.36-.36.36-.24.36-.24.36-.24.36-.36.36-.24.36-.36.36-.24.24-.36.36-.36.24-.24.36-.36.24-.36.24-.36.36-.36.24-.36.24-.36.24-.36.24-.48.24-.36.24-.36.24-.48.12-.36.24-.36.12-.48.24-.36.12-.48.12-.48.12-.36.24-.48.12h-.48l-.36.12-.48.12-.48.12h-.48l-.48.12h-1.9zm18.6-18.48h-1v-.48l-.12-.48v-.84l-.12-.48v-.36l-.12-.48v-.48l-.12-.36-.06-.48-.12-.36-.12-.48-.12-.36-.12-.36-.24-.48-.12-.36-.16-.36-.24-.36-.1-.5-.24-.36-.24-.36-.24-.36-.12-.36-.24-.36-.24-.36-.24-.34-.36-.24-.24-.36-.24-.36L32 7.3l-.36-.36-.24-.24-.36-.36-.24-.24-.36-.36-.34-.24-.24-.24L29.5 5l-.36-.24-.36-.24-.36-.24-.36-.24-.36-.24-.36-.24-.34-.1-.36-.24-.36-.12-.48-.24-.36-.12-.36-.12-.48-.24-.36-.12-.48-.12-.38-.14-.48-.1h-.36l-.48-.12-.36-.12h-.48l-.48-.12h-1.8V.46h.48l.48.12h1l.48.12h.48l.48.12.48.12h.36l.48.12.48.12.36.12.48.24.48.12.36.12.48.24.36.12.36.24.48.12.36.24.36.24.48.24.36.24.36.24.36.24.36.24.36.24.36.36.36.24.24.36.36.24.36.36.24.24.36.36.24.36.36.36.24.36.24.24.24.36.36.48.24.36.24.36.12.36.24.36.24.48.24.36.12.36.24.48.12.36.24.48.12.36.12.48.12.48.12.36.12.48.12.48.12.48v.36l.12.48v.48l.12.48v1.44z"/><path class="cls-1" d="M18.94 8.62l1.68.12 1.68.12 1.56.24 1.44.36 1.44.48 1.32.48 1.2.6 1.2.72.96.72.96.84.84.84.72.84.48.96.48.96.24 1.08v2.16l-.24.96-.48 1.08-.48.96-.72.84-.84.84-.96.84-.96.72-1.2.72-1.2.6-1.32.48-1.44.48-1.44.36-1.56.24-1.68.12-1.68.12-1.56-.12-1.68-.12-1.56-.24-1.44-.36-1.44-.48-1.32-.48-1.2-.6-1.2-.72-1.08-.72-.84-.84-.84-.84-.72-.84-.48-.96-.48-1.08-.24-.96v-2.16l.24-1.08.48-.96.48-.96.72-.84.84-.84.84-.84 1.08-.72 1.2-.72 1.2-.6 1.32-.48 1.44-.48 1.44-.36 1.56-.24 1.68-.12 1.56-.12z"/><path d="M18.94 8.38V9h-1.56l-.84.12-.72.12-.82.1-.72.12-.72.12-.72.24-.72.12-.72.24-.72.24-.6.36-.6.24-.6.24-.6.36-.5.38-.6.36-.48.36-.48.36-.48.36-.36.48-.38.34-.36.48-.36.48-.24.36-.24.48-.24.48-.1.46-.12.24v.24l-.12.24v.6l-.12.24v.48h-.6v-.84l.12-.2v-.36l.12-.24v-.24l.12-.24.14-.62.24-.48.24-.48.36-.48.36-.48.36-.48.36-.48.48-.36.48-.48.48-.36.48-.36.6-.48.48-.24.6-.36.72-.36.6-.24.72-.36.6-.24.72-.24.72-.12.7-.22.84-.12.72-.24.84-.12h.84l.72-.12h1.68zM2.5 19.06h.6v.48l.12.24v.48l.12.24v.36l.12.24.12.48.24.48.24.36.24.48.36.48.36.36.36.48.36.36.48.48.48.36.48.36.6.36.48.36.6.24.6.36.6.24.6.24.72.36.72.12.72.24.72.24.72.12.72.12.84.12.72.12h.84l.84.12h.72v.6h-1.68l-.72-.12-.84-.12-.84-.12-.72-.12-.84-.12-.72-.24-.72-.12-.72-.24-.6-.36-.72-.24-.6-.24-.72-.36-.6-.34-.48-.36-.6-.36-.48-.36-.48-.36-.48-.48-.48-.38-.36-.48-.36-.48-.36-.48-.36-.48-.24-.48-.22-.48-.12-.6-.14-.22v-.24l-.12-.36v-.24l-.12-.26v-.84zm16.44 10.68v-.6h.84l.84-.12h.84l.72-.12.84-.12.72-.12.72-.12.72-.24.72-.24.72-.12.6-.36.72-.24.6-.24.6-.36.6-.24.48-.36.6-.36.48-.36.48-.36.36-.48.48-.36.36-.48.36-.36.24-.48.36-.48.24-.36.24-.48.12-.48.12-.24v-.36l.12-.24v-.72l.12-.24v-.24h.6v.84l-.12.24v.24l-.12.36V21l-.12.24-.12.6-.24.48-.36.48-.24.48-.36.48-.36.48-.36.48-.48.36-.48.48-.48.36-.48.36-.6.36L30 27l-.6.36-.6.36-.6.24-.72.24-.6.36-.72.24-.72.12-.84.24-.72.12-.72.12-.84.12-.84.12-.84.12h-1.7zM35.5 19.06h-.6v-.24l-.12-.24v-.48l-.12-.6-.12-.5-.12-.48-.24-.48-.24-.48-.36-.36-.24-.48-.34-.46-.36-.36-.48-.48-.36-.36-.48-.36-.48-.36-.6-.36-.48-.36-.6-.36-.6-.24-.6-.24-.72-.36-.6-.24-.72-.24-.72-.12-.72-.24-.72-.12-.76-.12-.84-.12-.72-.12-.82-.1h-1.68v-.6h1.68l.84.12h.84l.84.12.72.24.72.12.84.24.72.12.72.24.6.24.72.36.6.24.6.36.6.36.6.24.6.48.48.36.48.36.48.48.48.36.36.48.36.48.36.48.24.48.36.48.24.48.12.6.12.48.12.6.12.24v.84z"/><path fill-rule="evenodd" d="M18.94 9.82h1.56l1.44.24 1.44.12 1.32.36 1.32.36 1.2.48 1.2.6.96.48.96.72.84.72.72.72.72.84.48.84.36.84.24.96v1.92l-.24.84-.36.96-.48.84-.72.84-.72.72-.84.72-.96.6-.96.6-1.2.6-1.2.48-1.32.36-1.32.24-1.44.24-1.44.12-1.56.12-1.44-.12-1.44-.12-1.44-.24-1.32-.24-1.32-.36-1.2-.48-1.2-.6-.96-.6-.96-.6-.84-.72-.84-.72-.6-.84-.48-.84-.36-.96-.24-.84V18.1l.24-.96.36-.84.48-.84.6-.84.84-.72.84-.72.96-.72.96-.48 1.2-.6 1.2-.48 1.32-.36 1.32-.36 1.44-.12 1.44-.24h1.44z"/><path d="M18.94 9.46v.72h-2.16l-.72.12-.72.12-.72.12-.6.12-.72.24-.6.12-.6.24-.6.24-.6.24-.6.24-.48.24-.6.24-.48.36-.48.24-.48.36-.36.36-.48.36-.36.36-.36.36-.22.36-.36.36-.24.48-.12.36-.28.48-.12.36-.12.48-.12.36-.12.48v.48h-.6v-.48l.12-.48v-.48l.24-.48.12-.48.24-.48.24-.48.24-.48.36-.36.24-.48.38-.38.48-.36.36-.36.48-.36.48-.36.48-.36L9 12l.48-.36.6-.24.6-.24.6-.24.6-.24.6-.24.72-.24.72-.12.6-.12.72-.12.72-.12.72-.12h.84l.72-.12zm-15 9.6h.6v.48l.12.36.12.48.12.48.12.36.24.48.12.36.24.36.38.48.24.36.36.36.36.36.48.36.36.36.48.24.48.36.48.36.6.24.48.24.6.24.6.24.6.24.6.24.6.12.72.24.6.12.72.12.72.12h.72l.72.12h1.44v.72l-.72-.12h-1.58l-.72-.12-.72-.12-.72-.12-.6-.12-.72-.24-.72-.12-.6-.24-.6-.24-.6-.24-.6-.24-.6-.24-.46-.36-.6-.24-.48-.36-.48-.36-.48-.36-.36-.36-.5-.36-.36-.48-.24-.36-.36-.48-.24-.36-.24-.48-.24-.48L4.3 21l-.24-.48V20l-.12-.48zm15 9.6v-.72h1.56l.72-.12h.72l.72-.12.6-.12.72-.12.72-.24.6-.12.6-.24.6-.24.6-.24.6-.24.48-.24.6-.24.48-.36.48-.36.48-.24.36-.36.36-.36.48-.36.24-.36.34-.36.24-.48.24-.36.24-.36.24-.48.12-.36.12-.48.12-.48v-.36l.12-.48h.6v.48l-.12.48-.12.48-.1.5-.12.48-.24.48-.24.48-.24.36-.36.48-.36.36-.36.48-.36.36-.36.36-.48.36-.48.36-.48.36-.6.24-.48.36-.6.24-.6.24-.6.24-.6.24-.72.24-.6.12-.72.24-.72.12-.6.12-.72.12-.84.12h-1.44zm15.12-9.6h-.6l-.12-.48v-.48l-.12-.36-.12-.48-.1-.36-.24-.48-.24-.36-.24-.48-.28-.36-.36-.36-.24-.36-.48-.36-.36-.36-.36-.36-.48-.36-.48-.24-.48-.36-.6-.24-.46-.22-.6-.24-.6-.24-.6-.24-.6-.28-.6-.12-.7-.22-.72-.12-.6-.12-.72-.12-.72-.12h-2.3v-.72h.84l.72.12h.72l.84.12.72.12.6.12.72.12.72.12.6.24.72.24.6.24.6.24.6.24.6.24.46.38.6.24.48.36.48.36.48.36.36.36.36.36.36.36.36.48.36.36.24.48.24.48.24.48.12.48.12.48.12.48.12.48z"/><path class="cls-3" d="M7.3 17.26h-.12v.24l.12.48v.36l-.24.48-.36.24-.24.12-.24.12-.36-.12H5.5l-.48-.12-.48-.36-.12-.48v-.48l.12-.36.12-.36h.12v-.24l.6.48-.12.12h-.12l-.24.12-.12.12v.48l.12.24.36.24.36.12.48.12.36-.12.36-.24.12-.24v-.24l-.12-.12v-.12l-.24-.12h-.12v-.12l.72-.24h.12zm.6-.84v.12h.12l.12-.12.12.12-.6.6-.12-.12v-.24l-1.2-1.08-.12-.12v.12H6.1l-.12-.12.6-.6.12.12-.12.12v.12h.12l.48.48.48-.6-.48-.48-.12-.12v.12h-.12l-.12-.12.6-.6.12.12v.24l1.2 1.08.12.12h.12v-.12l.12.12-.6.6-.12-.12h.12v-.24l-.6-.48-.48.6.48.48zm1.56-1.08l-.12-.12h.12v-.12l-.84-1.44v-.12h-.24l-.12-.12 1.32-.72.12-.12h.12l.36.48h-.24v-.12l-.12.12-.84.48.24.36.48-.24.12-.12.12-.12.24.36-.12.12h-.12v.12l-.48.24.24.48.96-.48v-.24h.12l.24.48h-.12l-.12.12-1.32.72zm2.04-1.2v-.24l-.6-1.68v-.12h-.12v-.12l.72-.24.12.12h-.12v.12l.84.96.12-1.32h-.12v-.12.12l-.12-.12.84-.36.12.12h-.12v.12l.6 1.68.12.12h.12v.12l-.72.24v-.24l-.48-1.32v1.68l-.12.12-1.2-1.32.48 1.32h.24v.12l-.6.24zm3.48-1.32v.12h.12v.12l-.72.24v-.24h.12v-.12l-.36-1.68v-.12h-.12l-.12-.12.72-.24.12.12-.12.12v.12l.36 1.68zm.6.12v-.12l.12-.12v-.12l-.24-1.68v-.12h-.12v-.12l.72-.12.12.12h-.12l-.12.12h.12l1.08 1.08-.12-1.2v-.12h-.12v-.12h.6v.12h-.12v.12l.24 1.68v.24h.12v.12h-.72v-.12h.12v-.12l-1.32-1.2.24 1.32v.12h.12v.12l-.6.12zm2.64-.96v.24h.24l.12.12h.48l.24-.12h.12v-.12l-.12-.12-.36-.24h-.12l-.48-.12-.24-.12-.12-.12v-.6l.24-.24.24-.12h.6l.36.12h.36l-.36.6v-.12l-.12-.12-.24-.12h-.48l-.12.12v.12l.12.24h.36l.24.12h.12l.24.12.24.12.12.24v.12l-.12.36-.12.12-.36.24h-.72l-.24-.12h-.48l.36-.6zm3.96.6h.24l.36.12.24-.12.24-.24.12-.36v-.36l-.12-.24-.12-.12-.48-.26h-.12zm-.6.24v-.12h.12l.36-1.92h-.12v-.24l.84.12.6.24.24.24.24.36v.5l-.12.6-.36.24-.12.12-.24.12h-.24l-.36-.12zm2.52.6v-.12h.12v-.12h.12l.48-1.68v-.12h-.12l.12-.12 1.44.36.12.12h.24l-.24.48h-.12v-.12l-.12-.12-.84-.24-.24.48.48.12.12.12h.12l-.12.36h-.12l-.12-.12-.48-.12-.12.6.96.36h.12v-.12h.12l-.12.48h-.24l-1.56-.48zm3.36 1.2l.12-.12v.12h.12v-.12l1.2-1.8v-.36l1.56.96v.12h.12l-.24.48h-.12v-.24l-.96-.48-.36.6.48.24h.36l-.36.6h-.12v-.12h-.12v-.12l-.48-.24-.48.72v.12h.12l-.12.12-.72-.48zm1.68 1.2l.12-.12.12.12 1.44-1.2v-.12l.12-.12 1.08 1.2v.12l.12.12-.36.36-.12-.12v-.12h.12v-.12l-.72-.72-.6.48.24.36h.12v.12l.12.12-.24.12-.12-.12-.12-.12-.24-.36-.48.36.6.84h.12l.12.12-.36.24-.12-.12v-.12l-.96-1.2zm3 2.4v.6l.12.12.24.12.12-.12h.12v-.84zm-1.08.12h-.12v.12h-.12l-.12-.72h.12l.12.12h.12l1.68-.24h.12v-.12H33l.12 1.08v.24l-.12.36-.24.12-.12.24-.36-.12h-.12l-.24-.24v-.12l-.72.48h-.12v.24h-.12l-.12-.84h.12l.12.12h.12l.6-.48v-.36z"/><path class="cls-1" d="M18.94 19.18l1 .12.72.36.24.12.24.36.12.24V21l-.12.24-.24.24-.24.24-.72.24-1 .12-.6-.12-.6-.12v-2.4l.6-.12zm-.12-3.36l.72.12.6.36.24.12.24.24.12.24v.48l-.12.24-.24.24-.24.24-.6.24-.72.12-.6-.12-.48-.12v-2.16l.48-.12zm2.76 3.12l.72.36.36.36.36.48.12.48-.14.48-.24.36-.36.36-.48.36-.6.36-.72.12-.84.12-.84.12-1.08-.12-1-.24-.84-.36-.6-.36-.12-.12-.12-.12.12-.12.24-.24H16l.12-.24v-3.84L16 16.9l-.24-.12h-.24l-.24-.12-.12-.24.84-.48.84-.36 1-.24 1.08-.12.72.12.72.12.6.12.48.36.48.24.24.36.24.48.12.48-.12.36-.12.36-.36.36z"/><path class="cls-1" d="M18.94 14h1.56l1.32.36 1.2.48 1.2.6.84.72.72.84.24.48.12.48.12.6v1l-.12.48-.12.6-.24.36-.72 1-.84.72-1.2.6-1.2.48-1.32.2-1.56.12L17.5 24l-1.32-.24-1.32-.48-1.08-.6-.84-.72-.72-1-.22-.34-.12-.6-.12-.48v-1l.12-.6.12-.44.24-.48.72-.84.84-.72 1.08-.6 1.32-.48 1.3-.38zm0-.72l1.8.12 1.68.36 1.56.48 1.32.76.6.48.48.36.48.48.36.48.24.6.24.48.12.6.12.6-.12.6-.12.6-.24.48-.24.48-.36.6-.48.48-.48.36-.6.48-1.32.6-1.56.6-1.68.36-1.8.12-1.8-.12-1.56-.36-1.58-.62-1.32-.6-.6-.48-.48-.36-.48-.48-.36-.6-.24-.48-.24-.48-.12-.6-.12-.6.12-.6.12-.6.24-.48.24-.6.36-.48.48-.48.48-.36.6-.48 1.32-.72 1.56-.48 1.56-.36z"/><path class="cls-3" d="M5.86 22.66l.14.24.24.24.36.12h.24l.34-.26.24-.24.12-.36v-.24l-.24-.36-.12-.24zm-.6-.24l.12-.12v.12h.12l1.44-1.2v-.12l.12-.1.48.72.36.48.12.36-.24.44-.24.36-.24.12-.24.12h-.48l-.48-.1-.36-.36zm1.56 1.92l.12-.12h.12l1.2-1.44v-.12h-.12l.12-.12 1.2.96h.12v.12l.12.12-.24.36-.12-.12v-.24l-.72-.6-.48.48.36.36h.12l.12.12-.12.24-.12-.12h-.12l-.36-.36-.48.6.72.6h.12l.12.12-.24.36-.12-.12v-.12h-.12l-1.2-.96zm3 1.92v-.12h.24v-.12l.72-1.44v-.24h-.12l.12-.12.72.36-.12.12h-.12l-.72 1.44.84.36.12.12h.12v-.12h.12l-.24.48h-.12l-.12-.12-1.44-.6zm2.28-.84h.24l.24-.12h.12l.12-.24h-.12v-.12h-.12v-.12h-.12l.12-.24v-.12h.12v-.12h.24l.12.12v.12l.12.24-.12.12-.12.36-.24.12-.24.12h-.36v-.12zm.84 2.04v-.12l.12.12v-.12l.6-2.16v-.12l-.12-.12v-.12l1.8.48h.24v-.12l.12.12-.12.6-.12-.12h-.12v-.12l-1.2-.24-.24.84.72.12h.12v-.12l.12.12-.12.6-.12-.12v-.12h-.12l-.72-.12-.12.72 1.2.24h.12v-.12l.12.12-.12.6-.12-.12v-.12h-.12l-1.8-.48z"/><path class="cls-3" d="M15.94 28.18v-.12l.12-.12v-.12l.24-1.56-.48-.12h-.12v.12h-.12v-.48h.36l1.32.24h.24v.48h-.12v-.12h-.12l-.48-.12-.24 1.68v.12h.12v.12h-.72zm1.8-.24v.12h.12v.12h-.6v-.12l.12-.12.72-1.8V26H18v-.1h.84v.1l-.12.12h.12l.6 1.8v.12h.12v.12h-.72v-.12h.12v-.12l-.12-.36H18zm.36-.72h.6l-.36-.72zm1.92 1.08v-.12l.12-.12v-.12l-.12-1.56h-.6v.12h-.12v-.48h.24l1.44-.12h.24v.48h-.12v-.12h-.6l.12 1.68v.12h.12v.12l-.72.12zm3.6-3.36l.36-.12.24.12.36.12v.84l-.24.12.24.12.24.12.12.12v.36l.12.24-.12.36-.24.12-.36.24-1.44.36v-.24h.1v-.12l-.6-2.28h-.1v-.12zm-.48 1.2l.6-.12.26-.12h.12v-.48L24 25.3h-.36l-.72.12zm.24 1.32l.72-.12.24-.12.12-.12.12-.24-.12-.12v-.24l-.12-.12h-.48l-.72.12zm2.28-.24v-.24l-.6-1.68v-.12h-.12l-.12-.12 1.44-.48h.12l.12-.12.24.48-.12.12-.12-.12h-.12l-.72.24.12.48.36-.12h.24l.12.36h-.24l-.36.12.24.6.84-.24.12-.12.12-.12.12.48-.12.12h-.12l-1.44.48z"/><path class="cls-3" d="M27.58 26.5l-.12-.12h.12v-.12l-.84-1.56-.12-.12h-.12v-.12l.6-.24v.24l.72 1.44.84-.48h.12v-.12l.12-.12.24.48-.12.12h-.12l-1.32.72zm3.24-2.52v.24l-.12.24-.12.24-.24.12-.36.36h-.48l-.48-.12-.24-.36-.12-.12-.12-.24v-.48l.12-.48.36-.36.36-.12h.48v-.24h.12v.72h-.12v-.12h-.24l-.12.12-.24.12-.12.24-.12.12v.36l.12.24.24.24h.48l.24-.24h.12v-.12h.12v-.24l-.12-.12-.24.24h-.12l-.12.12-.24-.36.12-.12h.12l.72-.6.12.12v.12h-.12v.12h.12l.24.36zm.84-.12l-.12-.12v-.12l-1.44-1.2h-.12v.12l-.12-.12.96-1.2v-.12h.12l.12-.12.36.24-.12.12h-.24l-.6.72.48.48.36-.36v-.12l.12-.12.24.12-.12.12v.12l-.36.36.6.48.6-.72v-.12l.12-.12.36.24-.12.12h-.12v.12l-.96 1.2z"/></svg>