<svg id="Layer_1" data-name="Layer 1" xmlns="http://www.w3.org/2000/svg" viewBox="0 0 38 38"><defs><style>.cls-1,.cls-4{fill:#fff;}.cls-1,.cls-3{fill-rule:evenodd;}.cls-2,.cls-3{fill:#006635;}</style></defs><polygon class="cls-1" points="19.06 0.94 20.86 0.94 22.66 1.3 24.34 1.66 26.02 2.38 27.58 3.1 29.14 3.94 30.46 5.02 31.78 6.22 32.98 7.42 33.94 8.86 34.9 10.3 35.62 11.98 36.22 13.54 36.7 15.34 36.94 17.14 37.06 18.94 36.94 20.74 36.7 22.54 36.22 24.34 35.62 26.02 34.9 27.58 33.94 29.02 32.98 30.46 31.78 31.66 30.46 32.86 29.14 33.94 27.58 34.78 26.02 35.62 24.34 36.22 22.66 36.58 20.86 36.94 19.06 36.94 17.14 36.94 15.34 36.58 13.66 36.22 11.98 35.62 10.42 34.78 8.98 33.94 7.54 32.86 6.22 31.66 5.14 30.46 4.06 29.02 3.1 27.58 2.38 26.02 1.78 24.34 1.3 22.54 1.06 20.74 0.94 18.94 1.06 17.14 1.3 15.34 1.78 13.54 2.38 11.98 3.1 10.3 4.06 8.86 5.14 7.42 6.22 6.22 7.54 5.02 8.98 3.94 10.42 3.1 11.98 2.38 13.66 1.66 15.34 1.3 17.14 0.94 19.06 0.94"/><path d="M19.06.46v1H17.62l-.36.12h-.48l-.48.12h-.36l-.48.12-.36.12h-.48L14.26,2l-.48.12-.36.24-.48.12-.36.12-.36.12L11.74,3l-.36.12L11,3.34l-.36.24-.36.12-.36.24-.36.24-.36.24-.36.24L8.5,4.9l-.36.24-.24.24-.36.36L7.18,6l-.24.24-.36.36-.24.24L6,7.18l-.24.24-.24.36-.24.36L5,8.5l-.36.24-.24.36-.24.36-.12.36-.24.36-.24.36L3.34,11l-.12.36L3,11.74l-.12.36-.12.36-.24.48-.12.36-.12.48-.12.36L2,14.62,1.9,15l-.12.48v.36l-.12.48v.36l-.12.48v1l-.12.36v.48h-1V18l.12-.48v-1l.12-.36.12-.48v-.48l.12-.48.12-.48.12-.36.12-.48.12-.36.12-.48.24-.48.12-.36.24-.48.12-.36.24-.36.24-.48L3,9.7l.12-.36L3.34,9l.36-.36.24-.36.24-.36.24-.36.24-.36L5,6.82l.24-.36.36-.36.24-.24.36-.36.36-.24.36-.36.24-.24.36-.24.36-.36.36-.24.36-.24L9,3.34l.48-.24.36-.24.36-.24.36-.24L11,2.26,11.38,2l.48-.12.36-.24.48-.12.36-.12.48-.24.36-.12.48-.12h.48l.48-.12L15.7.7l.48-.12h.48l.48-.12h1.92ZM.46,18.94h1v.48l.12.48v.84l.12.48v.36l.12.48v.48l.12.36.12.48.12.36.12.48.12.36.12.36.24.48.12.36.12.36.24.36.12.48.24.36.24.36.24.36.12.36.24.36.24.36L5,29.5l.24.24.24.36.24.36L6,30.7l.36.36.24.24.36.36.24.24.36.36.36.24.24.24L8.5,33l.36.24.36.24.36.24.36.24.36.24.36.24.36.12.36.24.36.12.48.24.36.12.36.12.48.24.36.12.48.12.36.12.48.12h.36l.48.12.36.12h1l.36.12h1.44v1.08h-.48l-.48-.12h-1l-.48-.12h-.48l-.48-.12-.36-.12h-.48l-.48-.12-.48-.12-.36-.12-.48-.24-.36-.12-.48-.12L11.86,36l-.48-.12L11,35.62l-.48-.12-.36-.24L9.82,35l-.36-.24L9,34.54l-.36-.24-.36-.24-.36-.24-.36-.24-.36-.36L6.94,33l-.36-.36-.36-.24L5.86,32l-.24-.24-.36-.36L5,31.06l-.36-.36-.24-.36-.24-.24-.24-.36-.24-.48-.36-.36-.24-.36L3,28.18l-.24-.36-.24-.48L2.26,27l-.12-.36-.24-.48-.12-.36-.24-.48-.12-.36-.12-.48L1.18,24l-.12-.36-.12-.48-.12-.48v-.48L.7,21.82l-.12-.48v-1L.46,19.9v-1Zm18.6,18.6V36.46h1.32l.48-.12h.84l.48-.12.36-.12H23l.36-.12.48-.12.36-.12.48-.12.36-.24.36-.12.48-.12.36-.24.36-.12.36-.24.36-.12.36-.24.36-.24.36-.24.36-.24.36-.24L29.5,33l.36-.24.36-.24.24-.24.36-.36.24-.24.36-.36.24-.24L32,30.7l.24-.24.24-.36.36-.36.24-.24.24-.36.24-.36.24-.36.24-.36.12-.36.24-.36.24-.36.12-.48.24-.36.12-.36.24-.36.12-.48.12-.36.12-.36.12-.48.12-.36.12-.48.12-.36.12-.48v-.48l.12-.36v-1l.12-.36v-1h1v1.44l-.12.48v.48l-.12.48v.36l-.12.48-.12.48-.12.48-.12.36-.12.48-.12.48-.12.36-.24.48-.12.36-.12.48-.24.36-.24.36-.12.48-.24.36-.24.36-.24.36-.24.36-.24.48-.36.36-.24.24-.24.36-.36.36-.24.36-.36.36-.24.24-.36.36-.24.24-.36.36-.36.24-.36.36-.36.24-.36.24-.36.24-.36.24-.36.24L28.3,35l-.48.24-.36.24-.36.12-.48.24-.36.12-.48.24-.36.12-.48.12-.36.24-.48.12-.48.12-.36.12h-.48l-.48.12-.48.12h-.48l-.48.12H20l-.48.12Zm18.48-18.6h-1V18.1l-.12-.48v-1l-.12-.36v-.48l-.12-.36L36.1,15,36,14.62l-.12-.48-.12-.36-.12-.48-.12-.36-.12-.48-.24-.36L35,11.74l-.24-.36L34.66,11l-.24-.48-.24-.36-.12-.36-.24-.36-.24-.36-.24-.36L33.1,8.5l-.24-.36-.36-.36-.24-.36L32,7.18l-.36-.36-.24-.24-.36-.36L30.82,6l-.36-.24-.24-.36-.36-.24L29.5,4.9l-.36-.24-.36-.24-.36-.24-.36-.24L27.7,3.7l-.36-.12L27,3.34l-.36-.24L26.26,3l-.36-.24-.48-.12-.36-.12-.36-.12-.48-.24L23.86,2l-.48-.12H23l-.48-.12-.36-.12H21.7l-.48-.12h-.36l-.48-.12H19.06v-1h1.8l.48.12h.48L22.3.7l.48.12.48.12h.36l.48.12.48.12.36.24.48.12.36.12.48.24.36.12.48.24.36.12.36.24.48.24.36.24.36.24.36.24.36.24.36.24.36.36.36.24.36.24.36.36.24.24.36.36.24.24.36.36.24.36.36.36.24.36.24.36.36.36.24.36.24.36.24.36.24.36.24.36.12.48.24.36.24.36.12.48.12.36.24.48.12.48.12.36.12.48.12.36.12.48.12.48.12.48v.48l.12.36V17l.12.48v1.44Z"/><polygon class="cls-1" points="25.06 32.02 30.7 9.46 19.06 9.46 7.3 9.46 12.94 32.02 19.06 32.02 25.06 32.02"/><path class="cls-2" d="M25.9,32.14l-.12.6h-.72Zm0,0-.84.6h-6V31.18h6Zm-6.84.6H12.94V31.18h6.12Zm-6.12,0h-.6l-.12-.6Zm0,0-.72-.6L6.58,9.7,8,9.34l5.64,22.44ZM6.58,9.7l-.24-1h1Zm0,0,.72-1H19.06V10.3H7.3Zm12.48-1H30.7V10.3H19.06Zm11.64,0h1.08l-.24,1Zm0,0,.84,1L25.9,32.14l-1.56-.36L30,9.34Z"/><polygon class="cls-3" points="23.74 30.1 28.42 11.38 19.06 11.38 9.58 11.38 14.38 30.1 19.06 30.1 23.74 30.1"/><path class="cls-4" d="M25.18,18.8a2.05,2.05,0,0,1-1.27.41,2.8,2.8,0,0,1-2.18-1,3.64,3.64,0,0,1-.88-2.48,2.71,2.71,0,0,1,.63-1.87,2.15,2.15,0,0,1,1.68-.72,2.26,2.26,0,0,1,1.3.37,2.41,2.41,0,0,1,.89,1.06h.14L25,12.49a.88.88,0,0,1-.28.13,1,1,0,0,1-.31.05l-.67-.06a7.46,7.46,0,0,0-.85-.06,3.25,3.25,0,0,0-2.4.86,3.28,3.28,0,0,0-.86,2.42,3.71,3.71,0,0,0,4,4c.14,0,.36,0,.65,0a6.62,6.62,0,0,1,.67,0h.47l.85-2.23h-.16A3.52,3.52,0,0,1,25.18,18.8Zm-6,.71a.59.59,0,0,1-.5-.24,2,2,0,0,1-.14-1v-2a2,2,0,0,1,.14-1,.59.59,0,0,1,.5-.24V15H16.78v.15a.61.61,0,0,1,.52.25,2.16,2.16,0,0,1,.14,1v2a.8.8,0,0,1-.22.67,1.47,1.47,0,0,1-.83.17,2.86,2.86,0,0,1-2.23-1,3.57,3.57,0,0,1-.9-2.48,2.7,2.7,0,0,1,.65-1.88,2.21,2.21,0,0,1,1.71-.71,2.27,2.27,0,0,1,1.29.36,2.62,2.62,0,0,1,.9,1.07H18l-.47-2.07a1.45,1.45,0,0,1-.29.13l-.25.05-.64-.06a7.49,7.49,0,0,0-.88-.06,3.45,3.45,0,0,0-2.48.84,3.16,3.16,0,0,0-.88,2.39,3.77,3.77,0,0,0,1.09,2.9,4.32,4.32,0,0,0,3.09,1l.61,0,.61,0h1.76Z"/><path class="cls-4" d="M20.83,27.69a2.55,2.55,0,0,1-1.66.56.88.88,0,0,1-.68-.21,1.87,1.87,0,0,1-.18-1V22.46a2.38,2.38,0,0,1,.16-1.08A.69.69,0,0,1,19,21.1v-.16h-2.8v.16a.69.69,0,0,1,.58.28A2.43,2.43,0,0,1,17,22.46v4.79a2.51,2.51,0,0,1-.15,1.09.72.72,0,0,1-.58.28v.16h4.35a2.24,2.24,0,0,1,.43,0,1.17,1.17,0,0,1,.26.1l1.09-3.06h-.16A5.66,5.66,0,0,1,20.83,27.69Z"/></svg>