<svg id="Layer_1" data-name="Layer 1" xmlns="http://www.w3.org/2000/svg" viewBox="0 0 38 38"><defs><style>.cls-1{fill:#fff;fill-rule:evenodd}</style></defs><path class="cls-1" d="M19.06.94h1.8l1.8.36 1.68.36 1.68.72 1.56.72 1.56.84 1.32 1.08 1.32 1.2 1.2 1.2.96 1.44.96 1.44.72 1.68.6 1.56.48 1.8.24 1.8.12 1.8-.12 1.8-.24 1.8-.48 1.8-.6 1.68-.72 1.56-.96 1.44-.96 1.44-1.2 1.2-1.32 1.2-1.32 1.08-1.56.84-1.56.84-1.68.6-1.68.36-1.8.36h-3.72l-1.8-.36-1.68-.36-1.68-.6-1.56-.84-1.44-.84-1.44-1.08-1.32-1.2-1.08-1.2-1.08-1.44-.96-1.44-.72-1.56-.6-1.68-.48-1.8-.24-1.8-.12-1.8.12-1.8.24-1.8.48-1.8.6-1.56.72-1.68.96-1.44 1.08-1.44 1.08-1.2 1.32-1.2 1.44-1.08 1.44-.84 1.56-.72 1.68-.72 1.68-.36 1.8-.36h1.92z"/><path d="M19.06.46v1h-1.44l-.36.12h-.48l-.48.12h-.36l-.48.12-.36.12h-.48l-.36.06-.48.12-.36.24-.48.12-.36.12-.36.12-.48.28-.36.12-.38.22-.36.24-.36.12-.36.24-.36.24-.36.24-.36.24-.34.24-.36.24-.24.24-.36.36-.36.26-.24.24-.36.36-.24.24-.34.34-.24.24-.24.36-.24.36L5 8.5l-.36.24-.24.36-.24.36-.12.36-.24.36-.24.36-.22.46-.12.36-.22.38-.12.36-.12.36-.24.48-.12.36-.12.48-.12.36-.16.48-.1.38-.12.48v.36l-.12.48v.36l-.12.48v1l-.12.36V19h-1v-1l.12-.48v-1l.12-.36.12-.48v-.48l.12-.48.12-.48.12-.36.12-.48.12-.36.12-.48.24-.48.12-.36.24-.48.12-.36.24-.36.24-.48.3-.34.12-.36.22-.34.36-.36.24-.36.24-.36.24-.36.24-.36.34-.38.24-.36.36-.36.24-.24.36-.36.36-.24.36-.36.24-.24.36-.24.36-.36.36-.24.36-.24.4-.24.48-.24.36-.24.36-.24.36-.24.44-.12.38-.26.48-.12.36-.24.48-.12.36-.12.48-.24.36-.12.48-.12h.48l.48-.12.36-.1.48-.12h.48l.48-.12h1.92zM.46 18.94h1v.48l.12.48v.84l.12.48v.36l.12.48v.48l.12.36.12.48.12.36.12.48.12.36.12.36.24.48.12.36.12.36.24.36.12.48.24.36.24.36.24.36.12.36.24.36.24.36.3.36.24.24.24.36.24.36.28.24.36.36.24.24.36.36.24.24.36.36.36.24.24.24.34.26.36.24.36.24.36.24.36.24.36.24.36.24.36.12.36.24.36.12.48.24.36.12.36.12.48.24.36.12.48.12.36.12.48.12h.36l.48.12.36.12h1l.36.12h1.44v1.08h-.48l-.48-.12h-1l-.48-.12h-.48l-.48-.12-.36-.12h-.48l-.48-.12-.48-.12-.36-.12-.48-.24-.36-.12-.48-.12-.36-.24-.48-.12-.38-.26-.48-.12-.36-.24-.34-.26-.36-.24-.46-.22-.36-.24-.36-.24-.36-.24-.36-.24-.36-.36-.26-.22-.36-.36-.36-.24-.36-.4-.24-.24-.36-.36-.26-.34-.36-.36-.24-.36-.24-.24-.24-.36-.24-.48-.36-.36-.24-.36-.08-.36-.24-.36-.24-.48-.26-.34-.12-.36-.24-.48-.12-.36-.24-.48-.12-.36-.12-.48-.12-.48-.12-.36-.12-.48-.12-.48v-.48l-.12-.38-.12-.48v-1l-.12-.44v-1zm18.6 18.6v-1.08h1.32l.48-.12h.84l.48-.12.36-.12H23l.36-.12.48-.12.36-.12.48-.12.36-.24.36-.12.48-.12.36-.24.36-.12.36-.24.36-.12.36-.24.36-.24.36-.24.36-.24.36-.24.38-.22.36-.24.36-.24.24-.24.36-.36.24-.24.36-.36.24-.24.34-.38.24-.24.24-.36.36-.36.24-.24.24-.36.24-.36.24-.36.24-.36.12-.36.24-.36.24-.36.12-.48.24-.36.12-.36.24-.36.12-.48.12-.36.12-.36.12-.48.12-.36.12-.48.12-.36.12-.48v-.48l.12-.36v-1l.12-.36v-1h1v1.44l-.12.48v.48l-.12.48v.36l-.12.48-.12.48-.12.48-.12.36-.12.48-.12.48-.12.36-.24.48-.12.36-.12.48-.24.36-.24.36-.12.48-.24.36-.24.36-.24.36-.24.36-.24.48-.36.36-.24.24-.24.36-.36.36-.24.36-.36.36-.24.24-.36.36-.24.24-.36.36-.36.24-.36.36-.36.24-.36.24-.36.24-.36.24-.36.24-.38.3-.48.24-.36.24-.36.12-.48.24-.36.12-.48.24-.36.12-.48.12-.36.24-.48.12-.48.12-.36.12h-.48l-.48.12-.48.12h-.48l-.48.12H20l-.48.12zm18.48-18.6h-1v-.84l-.12-.48v-1l-.12-.36v-.48l-.12-.36-.08-.42-.1-.38-.12-.48-.12-.36-.12-.48-.12-.36-.12-.48-.24-.36-.16-.36-.24-.36-.1-.38-.24-.48-.24-.36-.12-.36-.24-.36-.24-.36-.24-.36-.24-.22-.24-.36-.36-.36-.24-.36-.26-.24-.36-.36-.24-.24-.36-.36-.22-.22-.36-.24-.24-.36-.36-.24-.36-.26-.36-.24-.36-.24-.36-.24-.36-.24-.36-.24-.36-.12-.34-.24-.36-.24-.38-.1-.36-.24-.48-.12-.36-.12-.36-.12-.48-.24-.36-.16-.48-.12H23l-.48-.12-.36-.12h-.46l-.48-.12h-.36l-.48-.12h-1.32v-1h1.8l.48.12h.48l.48.18.48.12.48.12h.36l.48.12.48.12.36.24.48.12.36.12.48.24.36.12.48.24.36.12.36.24.48.24.36.24.36.24.36.24.36.24.36.24.36.36.36.24.36.24.36.36.24.24.36.36.24.24.36.36.24.36.36.36.24.36.24.36.36.36.24.36.24.36.24.36.24.36.24.36.12.48.24.36.24.36.12.48.12.36.24.48.12.48.12.36.12.48.12.36.12.48.12.48.12.48v.48l.12.36V17l.12.48v1.44z"/><path class="cls-1" d="M25.06 32.02L30.7 9.46H7.3l5.64 22.56h12.12z"/><path d="M25.9 32.14l-.12.6h-.72zm0 0l-.84.6h-6v-1.56h6zm-6.84.6h-6.12v-1.56h6.12zm-6.12 0h-.6l-.12-.6zm0 0l-.72-.6L6.58 9.7 8 9.34l5.64 22.44zM6.58 9.7l-.24-1h1zm0 0l.72-1h11.76v1.6H7.3zm12.48-1H30.7v1.6H19.06zm11.64 0h1.08l-.24 1zm0 0l.84 1-5.64 22.44-1.56-.36L30 9.34z" fill="#006635"/><path fill="#006635" fill-rule="evenodd" d="M23.74 30.1l4.68-18.72H9.58l4.8 18.72h9.36z"/><path d="M25.18 18.8a2.05 2.05 0 01-1.27.41 2.8 2.8 0 01-2.18-1 3.64 3.64 0 01-.88-2.48 2.71 2.71 0 01.63-1.87 2.15 2.15 0 011.68-.72 2.26 2.26 0 011.3.37 2.41 2.41 0 01.89 1.06h.14L25 12.49a.88.88 0 01-.28.13 1 1 0 01-.31.05l-.67-.06a7.46 7.46 0 00-.85-.06 3.25 3.25 0 00-2.4.86 3.28 3.28 0 00-.86 2.42 3.71 3.71 0 004 4h.65a6.62 6.62 0 01.67 0h.47l.85-2.23h-.16a3.52 3.52 0 01-.93 1.2zm-6 .71a.59.59 0 01-.5-.24 2 2 0 01-.14-1v-2a2 2 0 01.14-1 .59.59 0 01.5-.24V15h-2.4v.15a.61.61 0 01.52.25 2.16 2.16 0 01.14 1v2a.8.8 0 01-.22.67 1.47 1.47 0 01-.83.17 2.86 2.86 0 01-2.23-1 3.57 3.57 0 01-.9-2.48 2.7 2.7 0 01.65-1.88 2.21 2.21 0 011.71-.71 2.27 2.27 0 011.29.36 2.62 2.62 0 01.9 1.07H18l-.47-2.07a1.45 1.45 0 01-.29.13l-.25.05-.64-.06a7.49 7.49 0 00-.88-.06 3.45 3.45 0 00-2.48.84 3.16 3.16 0 00-.88 2.39 3.77 3.77 0 001.09 2.9 4.32 4.32 0 003.09 1h2.98zm1.65 8.18a2.55 2.55 0 01-1.66.56.88.88 0 01-.68-.21 1.87 1.87 0 01-.18-1v-4.58a2.38 2.38 0 01.16-1.08.69.69 0 01.53-.28v-.16h-2.8v.16a.69.69 0 01.58.28 2.43 2.43 0 01.22 1.08v4.79a2.51 2.51 0 01-.15 1.09.72.72 0 01-.58.28v.16h4.35a2.24 2.24 0 01.43 0 1.17 1.17 0 01.26.1l1.09-3.06h-.16a5.66 5.66 0 01-1.41 1.87z" fill="#fff"/></svg>