<svg id="Layer_1" data-name="Layer 1" xmlns="http://www.w3.org/2000/svg" viewBox="0 0 38 38"><defs><style>.cls-3{fill:#f26722}</style></defs><path fill-rule="evenodd" fill="#fff" d="M18.94.94l1.92.12 1.8.24 1.68.48 1.68.6 1.56.72 1.44.96 1.44.96 1.32 1.2 1.08 1.32 1.08 1.32.96 1.56.72 1.56.6 1.68.48 1.68.24 1.8.12 1.92-.12 1.8-.24 1.8-.48 1.68-.6 1.68-.72 1.56-.96 1.56-1.08 1.32-1.08 1.32-1.32 1.2-1.44.96-1.44.96-1.56.72-1.68.6-1.68.48-1.8.24-1.92.12-1.8-.12-1.8-.24-1.68-.48-1.68-.6-1.56-.72-1.56-.96-1.32-.96-1.32-1.2-1.2-1.32-.96-1.32-.96-1.56-.72-1.56-.6-1.68-.48-1.68-.24-1.8-.12-1.8.12-1.92.24-1.8.48-1.68.6-1.68.72-1.56.96-1.56.96-1.32 1.2-1.32 1.32-1.2 1.32-.96 1.56-.96 1.56-.72 1.68-.6 1.68-.48 1.8-.24 1.8-.12z"/><path d="M18.94.46v1h-.36l-.48.12h-1.32l-.48.12-.36.12h-.48L15 1.9l-.38.1-.48.12-.36.12-.36.12-.48.12-.36.12-.36.24-.48.16-.36.24-.38.1-.36.24-.36.24-.36.12-.36.24-.36.24-.36.24-.34.24-.36.36-.36.24-.24.24-.36.26-.24.36-.36.24-.24.36-.34.22-.24.36-.26.36-.36.24-.24.36-.24.36-.24.36-.24.36-.24.36-.12.36-.24.36-.24.34-.12.36-.22.38-.12.48-.24.36-.12.36-.12.48-.12.36-.12.36-.16.48-.1.38-.12.48v.48l-.12.36-.12.48v.84l-.12.48v1h-1v-1.5l.12-.48v-.48l.12-.48v-.48l.12-.48.12-.36.12-.48.12-.48.12-.36.12-.48.12-.48.24-.36.12-.48.24-.36.16-.38.24-.48.24-.36.12-.36.24-.48.24-.32.24-.36.24-.36.36-.36.24-.36.24-.36.34-.38.24-.24.36-.36.24-.36.36-.24.36-.36.26-.26.36-.36.36-.24.36-.24.36-.24.36-.36.38-.22.36-.24.48-.24.36-.12.36-.24.36-.24.48-.12.36-.24.48-.12.36-.24.48-.12.36-.12.48-.12.48-.12.48-.12.36-.12.46-.12h.48l.48-.12h.48l.48-.12h1.32zM.46 19.06h1v.84l.12.48v.84l.12.48.12.36v.48l.08.46.12.36.12.48.12.36.12.36.12.48.12.36.24.36.12.48.24.36.12.36.24.36.24.36.12.36.24.36.24.36.24.36.24.36.24.36.36.24.24.36.24.36.36.24.24.36.36.24.24.36.36.24.24.24.36.36.36.24.36.24.36.24.36.24.36.24.36.12.36.24.36.24.36.12.36.24.48.12.36.24.36.12.48.12.36.12.36.12.48.12.36.12.48.12h.48l.36.12.48.12h1.32l.48.12h.36v1h-1.32l-.48-.12h-.48l-.48-.12h-.48l-.48-.12-.36-.12-.48-.12-.48-.12-.48-.12-.36-.12-.48-.12-.36-.24-.48-.12-.36-.24-.48-.12-.36-.24-.36-.24-.36-.12-.48-.24-.34-.26-.36-.24-.36-.24-.36-.36-.36-.24-.36-.24-.38-.34-.24-.24-.36-.36-.36-.24-.24-.36-.36-.36-.26-.26-.36-.36-.24-.36-.24-.36-.36-.36-.24-.36-.22-.38-.24-.36-.24-.48-.12-.36-.24-.36-.24-.44-.12-.36-.24-.36-.12-.48-.24-.36-.12-.48-.12-.48-.12-.36-.12-.48-.12-.48-.12-.36-.12-.5v-.48l-.12-.48v-.48l-.12-.48v-1.32zm18.48 18.48v-1h.48l.48-.12h1.32l.48-.12.36-.12h.48l.36-.12.48-.12.36-.12.48-.12.36-.12.48-.12.36-.12.36-.24.48-.12.36-.24.36-.12.36-.24.36-.24.36-.12.36-.24.36-.24.36-.24.36-.24.36-.24.24-.36.36-.24.36-.24.24-.36.36-.24.24-.36.36-.24.24-.36.24-.36.24-.24.36-.36.24-.36.24-.36.24-.36.12-.36.24-.36.24-.36.24-.36.12-.36.24-.36.12-.48.12-.36.24-.36.12-.48.12-.36.12-.36.12-.48.12-.34.12-.48v-.48l.12-.36v-.48l.12-.48v-.82l.12-.48v-.36h1v1.32l-.12.48v.48l-.12.48v.48l-.12.48-.12.36-.12.48-.12.48-.12.36-.12.48-.12.48-.24.36-.12.48-.24.36-.12.36-.24.48-.24.36-.24.36-.12.48-.24.36-.24.36-.36.36-.24.36-.24.36-.24.36-.36.36-.24.24-.36.36-.24.36-.36.24-.36.36-.24.24-.36.36-.36.24-.36.24-.36.36-.36.24-.36.24-.36.24-.48.24-.36.12-.36.24-.48.24-.36.12-.36.24-.48.12-.36.24-.48.12-.48.12-.36.12-.48.12-.48.12-.36.12-.48.12h-.48l-.48.12h-.48l-.48.12h-1.48zm18.6-18.48h-1v-.48l-.12-.48v-.84l-.12-.48v-.48l-.12-.36v-.48L36.1 15l-.1-.38-.12-.48-.12-.36-.12-.36-.12-.48-.24-.36-.12-.36-.16-.48-.24-.36-.1-.38-.24-.36-.24-.36-.24-.36-.12-.36-.24-.36-.24-.36-.24-.34-.36-.36-.24-.24-.24-.36-.26-.36-.36-.24-.24-.36-.36-.24-.22-.34-.36-.24-.36-.26-.24-.24-.36-.36-.36-.24-.36-.24-.36-.24-.36-.24-.36-.12-.36-.24-.34-.24-.36-.12-.38-.22-.48-.12-.36-.24-.36-.12-.48-.12-.36-.12-.48-.12-.36-.16-.48-.1-.36-.12h-.48l-.36-.12-.48-.12H19.9l-.48-.12h-.48v-1h1.44l.48.12h.48l.48.12h.48l.48.12.36.12.48.12.48.12.36.12.48.12.48.12.36.24.48.12.36.24.36.12.48.24.36.24.36.12.48.24.36.24.36.24.36.36.36.24.36.24.36.24.36.36.24.24.36.36.36.24.24.36.36.36.24.24.36.36.24.36.24.36.24.36.36.36.24.36.24.36.12.48.24.36.24.36.24.48.12.36.24.36.12.48.24.36.12.48.12.48.12.36.12.48.12.48.12.36.12.48v.48l.12.48v.48l.12.48v1.44z"/><path fill="#fff" d="M8.14 8.14h21.72v21.72H8.14z"/><path class="cls-3" d="M7.54 8.14v-.6h.6zm.6-.6l.6.6v21.72h-1.2V8.14zm0 22.92h-.6v-.6zm-.6-.6l.6-.6h21.72v1.2H8.14zm22.92 0v.6h-.6zm-.6.6l-.6-.6V8.14h1.2v21.72zm0-22.92h.6v.6zm.6.6l-.6.6H8.14v-1.2h21.72z"/><path d="M9.46 16.3v12.12H21.7L9.46 16.3zm18.96 5.4V9.58H16.3L28.42 21.7z" fill="#f26722" fill-rule="evenodd"/><path class="cls-3" d="M10.09 9.53v4.89a9.13 9.13 0 00.07 1.36 1.91 1.91 0 00.24.7l1.41-.9a1.63 1.63 0 01-.07-.42v-2.34h1.62v2.76H15V9.53h-1.66v1.9h-1.62v-1.9z"/><path class="cls-3" d="M10.09 9.53h.12v4.89a10.27 10.27 0 00.07 1.34 1.75 1.75 0 00.23.65l-.11.07-.06-.11 1.4-.9.07.11h-.12a2 2 0 01-.08-.46V12.7h1.88v2.75h1.37V9.66h-1.39v1.89h-1.88V9.66h-1.5v-.25h1.75v1.89h1.38V9.41h1.87v6.29h-1.87V13h-1.38v2.2a1.72 1.72 0 00.07.39v.09l-1.59 1-.07-.1a1.89 1.89 0 01-.25-.78 9.24 9.24 0 010-1.38v-5h.13zM21 15h-2a4.13 4.13 0 00-1.35.17 1.5 1.5 0 00-.75.53 2.31 2.31 0 00-.28.54 2.18 2.18 0 00-.09.63 2 2 0 00.16.8 2.26 2.26 0 00.45.74l1.92 2.14.11.17v.15a.25.25 0 01-.1.22.45.45 0 01-.28.07h-2.26l.53 1.84h1.84a7.26 7.26 0 001.34-.09 1.88 1.88 0 00.73-.31 1.56 1.56 0 00.52-.62 1.87 1.87 0 00.19-.82 2.12 2.12 0 00-.2-.87 3.76 3.76 0 00-.59-.88l-1.75-1.95-.15-.2v-.17a.23.23 0 01.1-.2.62.62 0 01.31-.07h2.11z"/><path class="cls-3" d="M21 15v.13h-2a4.21 4.21 0 00-1.31.15 1.46 1.46 0 00-.69.5l-.1-.08.1.08a1.83 1.83 0 00-.26.5 1.92 1.92 0 00-.09.59 2.1 2.1 0 00.15.76 2.7 2.7 0 00.43.7l-.09.08.09-.08 1.92 2.13.14.2.05.2a.36.36 0 01-.14.32.61.61 0 01-.36.1h-2.15l.46 1.6h1.75a7.14 7.14 0 001.32-.08 1.84 1.84 0 00.68-.29 1.51 1.51 0 00.48-.58 1.73 1.73 0 00.17-.76 2 2 0 00-.18-.81 3.32 3.32 0 00-.57-.85l-1.76-2-.17-.22-.06-.23a.37.37 0 01.19-.26.74.74 0 01.38-.08h1.92l-.45-1.67L21 15h.12l.53 2h-2.3a.51.51 0 00-.24 0v.21l.13.17 1.75 2a3.68 3.68 0 01.62.91 2.31 2.31 0 01.2.92 2 2 0 01-.2.87 1.71 1.71 0 01-.55.67 2 2 0 01-.78.33 7.71 7.71 0 01-1.37.09H17l-.6-2.09h2.5a.34.34 0 00.21-.05v-.21l-.1-.15.1-.08-.1.08-1.94-2.17a2.49 2.49 0 01-.48-.77 2.34 2.34 0 01-.17-.85 2.08 2.08 0 01.11-.66 1.76 1.76 0 01.29-.58 1.74 1.74 0 01.81-.57 4.25 4.25 0 011.37-.18h2.05v.09zm1.83 13.42h1.61l-.07-3.62 1.28 1.76 1.27-1.76-.07 3.62h1.61v-6.05h-1.52l-1.29 2.03-1.31-2.03h-1.51v6.05z"/><path class="cls-3" d="M22.83 28.42v-.12h1.48l-.07-3.9 1.41 1.95 1.4-1.95-.07 3.9h1.36v-5.8h-1.33l-1.36 2.13-1.38-2.13h-1.32v5.92h-.12v-.12.12h-.13v-6.17h1.71l1.24 1.91 1.22-1.91h1.72v6.3h-1.86l.06-3.35-1.14 1.57-1.15-1.58.07 3.36H22.7v-.13h.13z"/></svg>