<svg id="Layer_1" data-name="Layer 1" xmlns="http://www.w3.org/2000/svg" viewBox="0 0 38 38"><defs><style>.cls-1,.cls-2{fill:#fff;}.cls-1,.cls-4{fill-rule:evenodd;}.cls-3,.cls-4{fill:#f26722;}</style></defs><polygon class="cls-1" points="18.94 0.94 20.86 1.06 22.66 1.3 24.34 1.78 26.02 2.38 27.58 3.1 29.02 4.06 30.46 5.02 31.78 6.22 32.86 7.54 33.94 8.86 34.9 10.42 35.62 11.98 36.22 13.66 36.7 15.34 36.94 17.14 37.06 19.06 36.94 20.86 36.7 22.66 36.22 24.34 35.62 26.02 34.9 27.58 33.94 29.14 32.86 30.46 31.78 31.78 30.46 32.98 29.02 33.94 27.58 34.9 26.02 35.62 24.34 36.22 22.66 36.7 20.86 36.94 18.94 37.06 17.14 36.94 15.34 36.7 13.66 36.22 11.98 35.62 10.42 34.9 8.86 33.94 7.54 32.98 6.22 31.78 5.02 30.46 4.06 29.14 3.1 27.58 2.38 26.02 1.78 24.34 1.3 22.66 1.06 20.86 0.94 19.06 1.06 17.14 1.3 15.34 1.78 13.66 2.38 11.98 3.1 10.42 4.06 8.86 5.02 7.54 6.22 6.22 7.54 5.02 8.86 4.06 10.42 3.1 11.98 2.38 13.66 1.78 15.34 1.3 17.14 1.06 18.94 0.94"/><path d="M18.94.46v1h-.36l-.48.12H16.78l-.48.12-.36.12h-.48L15,1.9,14.62,2l-.48.12-.36.12-.36.12-.48.12-.36.12-.36.24L11.74,3l-.36.24L11,3.34l-.36.24-.36.24-.36.12-.36.24-.36.24-.36.24L8.5,4.9l-.36.36-.36.24-.24.24L7.18,6l-.24.36-.36.24-.24.36L6,7.18l-.24.36L5.5,7.9l-.36.24L4.9,8.5l-.24.36-.24.36-.24.36-.24.36-.12.36-.24.36L3.34,11l-.12.36L3,11.74l-.12.48-.24.36-.12.36-.12.48-.12.36-.12.36L2,14.62,1.9,15l-.12.48v.48l-.12.36-.12.48v.84l-.12.48v1h-1V17.62l.12-.48v-.48l.12-.48V15.7l.12-.48.12-.36.12-.48.12-.48.12-.36.12-.48.12-.48.24-.36.12-.48.24-.36L2.26,11l.24-.48.24-.36.12-.36.24-.48L3.34,9l.24-.36.24-.36.36-.36.24-.36.24-.36L5,6.82l.24-.24.36-.36.24-.36.36-.24.36-.36L6.82,5l.36-.36.36-.24.36-.24.36-.24.36-.36L9,3.34l.36-.24.48-.24.36-.12.36-.24.36-.24.48-.12.36-.24.48-.12.36-.24.48-.12.36-.12.48-.12.48-.12.48-.12.36-.12L15.7.7h.48l.48-.12h.48l.48-.12h1.32ZM.46,19.06h1v.84l.12.48v.84l.12.48.12.36v.48L1.9,23l.12.36.12.48.12.36.12.36.12.48.12.36.24.36.12.48.24.36.12.36.24.36.24.36.12.36.24.36.24.36.24.36.24.36.24.36.36.24.24.36.24.36.36.24.24.36.36.24.24.36.36.24.24.24.36.36.36.24.36.24.36.24.36.24.36.24.36.12.36.24.36.24.36.12.36.24.48.12.36.24.36.12.48.12.36.12.36.12.48.12.36.12.48.12h.48l.36.12.48.12H18.1l.48.12h.36v1H17.62l-.48-.12h-.48l-.48-.12H15.7l-.48-.12-.36-.12-.48-.12-.48-.12-.48-.12-.36-.12-.48-.12-.36-.24-.48-.12-.36-.24-.48-.12-.36-.24-.36-.24-.36-.12-.48-.24L9,34.66l-.36-.24-.36-.24-.36-.36-.36-.24-.36-.24L6.82,33l-.24-.24-.36-.36-.36-.24-.24-.36-.36-.36L5,31.18l-.36-.36-.24-.36-.24-.36-.36-.36-.24-.36L3.34,29l-.24-.36-.24-.48-.12-.36-.24-.36L2.26,27l-.12-.36-.24-.36-.12-.48-.24-.36-.12-.48-.12-.48-.12-.36-.12-.48-.12-.48-.12-.36L.7,22.3v-.48l-.12-.48v-.48l-.12-.48V19.06ZM18.94,37.54v-1h.48l.48-.12h1.32l.48-.12.36-.12h.48l.36-.12.48-.12.36-.12.48-.12.36-.12.48-.12.36-.12.36-.24.48-.12.36-.24.36-.12.36-.24.36-.24.36-.12.36-.24.36-.24.36-.24.36-.24.36-.24.24-.36.36-.24.36-.24.24-.36.36-.24.24-.36.36-.24.24-.36.24-.36.24-.24.36-.36.24-.36.24-.36.24-.36.12-.36.24-.36.24-.36.24-.36.12-.36.24-.36.12-.48.12-.36.24-.36.12-.48.12-.36.12-.36.12-.48L36.1,23l.12-.48v-.48l.12-.36v-.48l.12-.48V19.9l.12-.48v-.36h1v1.32l-.12.48v.48l-.12.48v.48l-.12.48-.12.36-.12.48-.12.48-.12.36-.12.48-.12.48-.24.36-.12.48-.24.36-.12.36-.24.48-.24.36-.24.36-.12.48-.24.36-.24.36-.36.36-.24.36-.24.36-.24.36-.36.36-.24.24-.36.36-.24.36-.36.24-.36.36-.24.24-.36.36-.36.24-.36.24-.36.36-.36.24-.36.24-.36.24-.48.24-.36.12-.36.24-.48.24-.36.12-.36.24-.48.12-.36.24-.48.12-.48.12-.36.12-.48.12-.48.12-.36.12-.48.12h-.48l-.48.12h-.48l-.48.12H18.94Zm18.6-18.48h-1v-.48l-.12-.48v-.84l-.12-.48V16.3l-.12-.36v-.48L36.1,15,36,14.62l-.12-.48-.12-.36-.12-.36-.12-.48-.24-.36-.12-.36L35,11.74l-.24-.36L34.66,11l-.24-.36-.24-.36-.24-.36-.12-.36-.24-.36-.24-.36L33.1,8.5l-.36-.36L32.5,7.9l-.24-.36L32,7.18l-.36-.24-.24-.36-.36-.24L30.82,6l-.36-.24L30.1,5.5l-.24-.24L29.5,4.9l-.36-.24-.36-.24-.36-.24-.36-.24-.36-.12-.36-.24L27,3.34l-.36-.12L26.26,3l-.48-.12-.36-.24-.36-.12-.48-.12-.36-.12-.48-.12L23.38,2,22.9,1.9l-.36-.12h-.48l-.36-.12-.48-.12H19.9l-.48-.12h-.48v-1h1.44l.48.12h.48l.48.12h.48l.48.12.36.12.48.12.48.12.36.12.48.12.48.12.36.24.48.12.36.24.36.12.48.24.36.24.36.12.48.24.36.24.36.24.36.36.36.24.36.24.36.24.36.36.24.24.36.36.36.24.24.36.36.36.24.24.36.36.24.36.24.36.24.36.36.36.24.36.24.36.12.48.24.36.24.36.24.48.12.36.24.36.12.48.24.36.12.48.12.48.12.36.12.48.12.48.12.36.12.48v.48l.12.48v.48l.12.48v1.44Z"/><rect class="cls-2" x="8.14" y="8.14" width="21.72" height="21.72"/><path class="cls-3" d="M7.54,8.14v-.6h.6Zm.6-.6.6.6V29.86H7.54V8.14Zm0,22.92h-.6v-.6Zm-.6-.6.6-.6H29.86v1.2H8.14Zm22.92,0v.6h-.6Zm-.6.6-.6-.6V8.14h1.2V29.86Zm0-22.92h.6v.6Zm.6.6-.6.6H8.14V7.54H29.86Z"/><polygon class="cls-4" points="9.46 16.3 9.46 28.42 21.7 28.42 9.46 16.3"/><polygon class="cls-4" points="28.42 21.7 28.42 9.58 16.3 9.58 28.42 21.7"/><path class="cls-3" d="M10.09,9.53v4.89a9.13,9.13,0,0,0,.07,1.36,1.91,1.91,0,0,0,.24.7l1.41-.9a1.63,1.63,0,0,1-.07-.42c0-.19,0-.48,0-.85V12.82h1.62v2.76H15V9.53H13.34v1.9H11.72V9.53Z"/><path class="cls-3" d="M10.09,9.53h.12v4.89a10.27,10.27,0,0,0,.07,1.34,1.75,1.75,0,0,0,.23.65l-.11.07-.06-.11,1.4-.9.07.11-.12,0a2,2,0,0,1-.08-.46c0-.19,0-.47,0-.85V12.7h1.88v2.75h1.37V9.66H13.47v1.89H11.59V9.66h-1.5V9.53h0V9.41h1.75V11.3h1.38V9.41h1.87V15.7H13.22V13H11.84v1.36c0,.37,0,.65,0,.84a1.72,1.72,0,0,0,.07.39l0,.09-1.59,1-.07-.1A1.89,1.89,0,0,1,10,15.8,9.24,9.24,0,0,1,10,14.42v-5h.13Z"/><path class="cls-3" d="M21,15H19a4.13,4.13,0,0,0-1.35.17,1.5,1.5,0,0,0-.75.53,2.31,2.31,0,0,0-.28.54,2.18,2.18,0,0,0-.09.63,2,2,0,0,0,.16.8,2.26,2.26,0,0,0,.45.74l1.92,2.14.11.17,0,.15a.25.25,0,0,1-.1.22.45.45,0,0,1-.28.07H16.53L17.06,23H18.9a7.26,7.26,0,0,0,1.34-.09,1.88,1.88,0,0,0,.73-.31,1.56,1.56,0,0,0,.52-.62,1.87,1.87,0,0,0,.19-.82,2.12,2.12,0,0,0-.2-.87,3.76,3.76,0,0,0-.59-.88l-1.75-1.95-.15-.2,0-.17a.23.23,0,0,1,.1-.2.62.62,0,0,1,.31-.07h2.11Z"/><path class="cls-3" d="M21,15v.13H19a4.21,4.21,0,0,0-1.31.15,1.46,1.46,0,0,0-.69.5l-.1-.08.1.08a1.83,1.83,0,0,0-.26.5,1.92,1.92,0,0,0-.09.59,2.1,2.1,0,0,0,.15.76,2.7,2.7,0,0,0,.43.7l-.09.08.09-.08,1.92,2.13h0l.14.2.05.2a.36.36,0,0,1-.14.32.61.61,0,0,1-.36.1H16.69l.46,1.6H18.9a7.14,7.14,0,0,0,1.32-.08,1.84,1.84,0,0,0,.68-.29,1.51,1.51,0,0,0,.48-.58,1.73,1.73,0,0,0,.17-.76,2,2,0,0,0-.18-.81,3.32,3.32,0,0,0-.57-.85l-1.76-2h0l-.17-.22-.06-.23A.37.37,0,0,1,19,16.8a.74.74,0,0,1,.38-.08H21.3l-.45-1.67L21,15v0l.12,0,.53,2H19.35a.51.51,0,0,0-.24,0l0,.1,0,.11.13.17,1.75,2a3.68,3.68,0,0,1,.62.91,2.31,2.31,0,0,1,.2.92,2,2,0,0,1-.2.87,1.71,1.71,0,0,1-.55.67,2,2,0,0,1-.78.33,7.71,7.71,0,0,1-1.37.09H17l-.6-2.09h2.5a.34.34,0,0,0,.21-.05l0-.12,0-.09-.1-.15.1-.08-.1.08L17.07,18.5h0a2.49,2.49,0,0,1-.48-.77,2.34,2.34,0,0,1-.17-.85,2.08,2.08,0,0,1,.11-.66,1.76,1.76,0,0,1,.29-.58h0a1.74,1.74,0,0,1,.81-.57A4.25,4.25,0,0,1,19,14.89h2.05l0,.09Z"/><polygon class="cls-3" points="22.83 28.42 24.44 28.42 24.37 24.8 25.65 26.56 26.92 24.8 26.85 28.42 28.46 28.42 28.46 22.37 26.94 22.37 25.65 24.4 24.34 22.37 22.83 22.37 22.83 28.42"/><polygon class="cls-3" points="22.83 28.42 22.83 28.3 24.31 28.3 24.24 24.4 25.65 26.35 27.05 24.4 26.98 28.3 28.34 28.3 28.34 22.5 27.01 22.5 25.65 24.63 24.27 22.5 22.95 22.5 22.95 28.42 22.83 28.42 22.83 28.3 22.83 28.42 22.7 28.42 22.7 22.25 24.41 22.25 25.65 24.16 26.87 22.25 28.59 22.25 28.59 28.55 26.73 28.55 26.79 25.2 25.65 26.77 24.5 25.19 24.57 28.55 22.7 28.55 22.7 28.42 22.83 28.42"/></svg>