<svg id="Layer_1" data-name="Layer 1" xmlns="http://www.w3.org/2000/svg" viewBox="0 0 38 38"><defs><style>.cls-1{fill:#fff;}.cls-1,.cls-2{fill-rule:evenodd;}.cls-2,.cls-3{fill:#ffcd05;}</style></defs><polygon class="cls-1" points="34.54 9.94 35.38 11.62 36.1 13.3 36.58 14.98 36.82 16.78 36.94 18.46 36.94 20.26 36.7 21.94 36.34 23.62 35.86 25.3 35.14 26.86 34.3 28.42 33.34 29.86 32.26 31.3 30.94 32.5 29.5 33.58 27.94 34.66 26.38 35.5 24.7 36.1 22.9 36.58 21.22 36.94 19.42 37.06 17.74 37.06 15.94 36.82 14.26 36.46 12.58 35.86 11.02 35.26 9.46 34.42 8.02 33.34 6.7 32.26 5.5 30.94 4.3 29.62 3.34 28.06 2.5 26.38 1.78 24.7 1.3 23.02 1.06 21.22 0.94 19.54 0.94 17.74 1.18 16.06 1.54 14.38 2.02 12.7 2.74 11.14 3.58 9.58 4.54 8.14 5.74 6.82 6.94 5.5 8.38 4.42 9.94 3.34 11.62 2.5 13.3 1.9 14.98 1.42 16.78 1.06 18.46 0.94 20.26 1.06 21.94 1.18 23.62 1.54 25.3 2.14 26.86 2.74 28.42 3.58 29.86 4.66 31.18 5.74 32.5 7.06 33.58 8.38 34.54 9.94"/><path d="M35,9.7l-.84.48-.24-.36-.24-.36-.24-.36-.24-.36-.36-.36L32.62,8l-.24-.36L32,7.3l-.24-.24-.36-.36-.24-.24-.36-.36-.24-.24-.36-.36-.36-.24L29.5,5l-.36-.24-.24-.24-.36-.24-.36-.24-.36-.24-.48-.24L27,3.46l-.36-.24-.36-.12-.36-.24-.36-.12-.48-.12-.36-.24-.36-.12-.48-.12L23.5,2l-.36-.12h-.48l-.36-.12-.48-.12h-.36L21,1.54h-1.2l-.48-.12h-.84l-.36.12H16.78l-.36.12-.48.12h-.48l-.36.12L14.62,2l-.36.12-.48.12-.36.12-.36.12-.48.12-.36.24L11.74,3l-.36.24L11,3.34l-.48.24-.36.24L9.7,3l.36-.24.48-.24.36-.24.48-.12.48-.24.36-.12.48-.24.36-.12.48-.12L14,1.18l.36-.12.48-.12.48-.12L15.82.7h.36l.48-.12h.48L17.5.46h2.76l.48.12h.36l.48.12h.48l.36.12.48.12h.48l.36.12.48.12.36.12.48.24.36.12.48.12.36.24.48.12.36.24.36.12.48.24L28.3,3l.36.24.36.24.36.24.36.24.36.24.36.36.36.24.36.24.36.36.36.36.24.24.36.36.36.36.24.36.36.36.24.36.24.36.36.36.24.48.24.36ZM9.7,3l.48.84-.36.24-.36.24L9,4.54l-.36.24L8.26,5,8,5.38l-.36.24-.36.24-.36.36-.24.24-.36.36-.24.24-.36.36-.24.36-.24.36-.36.24-.24.36-.24.36-.24.36-.12.36-.24.36-.24.36-.24.36-.12.36L3,11.74l-.12.36-.24.36-.12.36-.12.48-.12.36L2.14,14,2,14.5l-.12.36-.12.48v.36l-.12.36-.12.48v.84l-.12.36v2.64l.12.36v.48l.12.36v.48l.12.36v.48l.12.36.12.48.12.36.12.48.24.36.12.36.12.48.24.36.12.48.24.36.24.36.24.48-1,.48-.24-.48-.12-.36L2.26,27,2,26.62l-.12-.48-.24-.36-.12-.48-.24-.48-.12-.36L1.06,24,.94,23.5l-.12-.36v-.48L.7,22.18.58,21.7v-.36l-.12-.48v-3.6l.12-.48v-.36l.12-.48v-.48l.12-.36.12-.48.12-.36.12-.48.12-.48.12-.36.12-.48.24-.36.12-.36.24-.48.12-.36.24-.48.24-.36.12-.36.24-.36L3.34,9l.24-.48.36-.36.24-.36.24-.36.36-.36L5,6.82l.36-.36.24-.36L6,5.74l.36-.24.24-.36.36-.36.36-.24.36-.24.48-.36L8.5,3.7l.36-.24.36-.24ZM2.86,28.3l1-.48.12.36.24.36.36.36.24.36.24.36.24.36.24.36.36.36.24.24.36.36.24.36.36.24.36.24.24.36.36.24.36.24.36.24.36.24.36.24.36.24.36.24.36.24.36.12.36.24.36.12.36.24.48.12.36.12.36.24.48.12.36.12.36.12.48.12h.36l.48.12.36.12h.36l.48.12h.84l.36.12h1.8l.36-.12h.84l.48-.12h.36l.48-.12.36-.12.48-.12.36-.12.48-.12.36-.12.48-.12.36-.12.36-.24.48-.12.36-.24.48-.12.36-.24.36-.24.48.84-.36.24-.48.24-.36.24L26.5,36l-.36.12-.48.24-.48.12-.36.12-.48.12-.36.12-.48.12-.48.12-.48.12-.36.12H21.7l-.48.12h-.48l-.36.12H17.62l-.36-.12h-1l-.36-.12-.48-.12H15l-.36-.12-.48-.12-.36-.12-.48-.12-.36-.12-.48-.24-.36-.12-.48-.12-.36-.24-.48-.24-.36-.12-.36-.24L9.58,35l-.36-.24-.36-.24L8.5,34.3l-.36-.24-.36-.24-.36-.24-.36-.36L6.7,33l-.36-.36-.24-.36L5.74,32l-.36-.36-.24-.36-.36-.36-.24-.36-.36-.36-.24-.36L3.7,29.5l-.36-.36-.24-.48ZM28.18,35l-.48-.84.36-.24.48-.24.36-.24.36-.24.36-.24.36-.24.24-.36.36-.24.36-.36.36-.24.24-.36.36-.24.24-.36.24-.36.36-.24.24-.36.24-.36.24-.36.24-.36.24-.36.24-.36.12-.36.24-.36.24-.36.12-.48L35,25.9l.24-.36.12-.36.12-.48.12-.36.12-.36.12-.48.12-.36.12-.36.12-.48v-.36l.12-.48V21.1l.12-.48V17.26l-.12-.48v-.36l-.12-.48v-.36l-.12-.48L36,14.74l-.12-.48-.12-.36-.12-.48-.12-.36-.24-.36-.12-.48L35,11.86l-.24-.48L34.54,11l-.12-.36-.24-.48L35,9.7l.24.48.24.36.12.48.24.36.24.48.12.48.24.36.12.48.12.36.12.48.12.48.12.48.12.36v.48l.12.48v.36l.12.48v1l.12.36v1l-.12.48v1.32l-.12.36v.48l-.12.48-.12.36-.12.48-.12.48-.12.36-.12.48-.12.36-.12.48-.12.36-.24.48-.12.36-.24.36-.24.48-.12.36L35,28.3l-.24.36-.24.48-.24.36-.24.36-.36.36-.24.36-.24.36-.36.36-.24.24-.36.36-.36.36-.24.24-.36.36-.36.36-.36.24-.36.24-.36.36-.48.24-.36.24-.36.24Z"/><path class="cls-2" d="M2.74,19.06,18.94,2.74l16.2,16.32-16.2,16.2ZM18.94,9.7h1l1,.12.84.24.84.36.84.36.72.48.72.6.72.6.6.6.48.72.48.72.48.84.24.84.24,1,.12,1,.12,1-.12.84-.12,1-.24,1-.24.84-.48.84-.48.72-.48.72-.6.72-.72.6-.72.48-.72.48-.84.36-.84.36-.84.24-1,.12H18l-1-.12-.84-.24-.84-.36-.84-.36-.84-.48-.72-.48-.6-.6-.6-.72-.6-.72-.36-.72-.48-.84-.24-.84-.24-1-.12-1-.12-.84.12-1,.12-1,.24-1,.24-.84.48-.84.36-.72.6-.72.6-.6.6-.6.72-.6.84-.48.84-.36.84-.36L17,9.82l1-.12Z"/><path class="cls-3" d="M26.7,16.37a3.54,3.54,0,0,0-.38-1.93,1.42,1.42,0,0,0-1.27-.54,1.52,1.52,0,0,0-1.23.49,2.22,2.22,0,0,0-.41,1.45v.53a3.85,3.85,0,0,0,.18,1.29,4.13,4.13,0,0,0,.83,1.24A3.83,3.83,0,0,1,25.17,20a3.63,3.63,0,0,1,.16,1.16v.87a1.75,1.75,0,0,1-.07.6.24.24,0,0,1-.22.13.21.21,0,0,1-.21-.13,1.49,1.49,0,0,1-.07-.6V20.12H23.41v1.41a3.68,3.68,0,0,0,.37,1.93,1.45,1.45,0,0,0,1.27.53,1.42,1.42,0,0,0,1.27-.54,3.52,3.52,0,0,0,.38-1.92v-.9a4,4,0,0,0-1.15-2.55l0,0-.11-.13a2.38,2.38,0,0,1-.66-1.6v-.51a1.46,1.46,0,0,1,.07-.6.21.21,0,0,1,.21-.13.23.23,0,0,1,.22.14,1.72,1.72,0,0,1,.07.59v1.32H26.7Zm-5.32,6.15c-.06.1-.19.14-.39.14h-.07V15.22H21q.3,0,.39.15a1.44,1.44,0,0,1,.11.71V21.8A1.49,1.49,0,0,1,21.38,22.52Zm-1.79,1.34h1.54a1.7,1.7,0,0,0,1.34-.42,2.51,2.51,0,0,0,.37-1.58V16a2.49,2.49,0,0,0-.37-1.58A1.67,1.67,0,0,0,21.13,14H19.59Zm-3.91,0h1.41a2,2,0,0,0,1.41-.39,1.89,1.89,0,0,0,.39-1.36V19.59a2.19,2.19,0,0,0-.14-.84.88.88,0,0,0-.44-.45.53.53,0,0,0,.41-.28,2.08,2.08,0,0,0,.11-.87V15.77a1.89,1.89,0,0,0-.39-1.36A2,2,0,0,0,17,14H15.68Zm1.75-6.3a.37.37,0,0,1-.34.13H17V15.22h.08a.38.38,0,0,1,.34.14,1.15,1.15,0,0,1,.09.56V17A1.08,1.08,0,0,1,17.43,17.55Zm0,5a.45.45,0,0,1-.4.14h0V18.89h.1a.42.42,0,0,1,.36.14,1,1,0,0,1,.1.54V22A1,1,0,0,1,17.46,22.51Zm-5.8,1.35H13v-5.7c0-.35,0-.68,0-1s0-.61-.05-.9a4.33,4.33,0,0,1,.48,1.31A15,15,0,0,1,13.55,20v3.87h1.32V14H13.55l.06,1.72c-.14-.32-.27-.63-.41-.91s-.27-.56-.41-.81H11.66Z"/></svg>