<svg id="Layer_1" data-name="Layer 1" xmlns="http://www.w3.org/2000/svg" viewBox="0 0 38 38"><defs><style>.cls-1{fill:#fff}.cls-1,.cls-2{fill-rule:evenodd}.cls-2,.cls-4{fill:#059948}</style></defs><path class="cls-1" d="M19.06.94h1.8l1.8.36 1.68.36 1.68.72 1.56.72 1.56.84 1.32 1.08 1.32 1.2 1.2 1.2.96 1.44.96 1.44.72 1.68.6 1.56.48 1.8.24 1.8.12 1.8-.12 1.8-.24 1.8-.48 1.8-.6 1.68-.72 1.56-.96 1.44-.96 1.44-1.2 1.2-1.32 1.2-1.32 1.08-1.56.84-1.56.84-1.68.6-1.68.36-1.8.36H17.14l-1.8-.36-1.68-.36-1.68-.6-1.56-.84-1.44-.84-1.44-1.08-1.32-1.2-1.08-1.2-1.08-1.44-.96-1.44-.72-1.56-.6-1.68-.48-1.8-.24-1.8-.12-1.8.12-1.8.24-1.8.48-1.8.6-1.56.72-1.68.96-1.44 1.08-1.44 1.08-1.2 1.32-1.2 1.44-1.08 1.44-.84 1.56-.72 1.68-.72 1.68-.36 1.8-.36h1.92z"/><path d="M19.06.46v1h-1.44l-.36.12h-.48l-.48.12h-.36l-.48.12-.36.12h-.48l-.36.06-.48.12-.36.24-.48.12-.36.12-.36.12-.48.28-.36.12-.38.22-.36.24-.36.12-.36.24-.36.24-.36.24-.36.24-.34.24-.36.24-.24.24-.36.36-.36.26-.24.24-.36.36-.24.24-.34.34-.24.24-.24.36-.24.36L5 8.5l-.36.24-.24.36-.24.36-.12.36-.24.36-.24.36-.22.46-.12.36-.22.38-.12.36-.12.36-.24.48-.12.36-.12.48-.12.36-.16.48-.1.38-.12.48v.36l-.12.48v.36l-.12.48v1l-.12.36V19h-1v-1l.12-.48v-1l.12-.36.12-.48v-.48l.12-.48.12-.48.12-.36.12-.48.12-.36.12-.48.24-.48.12-.36.24-.48.12-.36.24-.36.24-.48.3-.34.12-.36.22-.34.36-.36.24-.36.24-.36.24-.36.24-.36.34-.38.24-.36.36-.36.24-.24.36-.36.36-.24.36-.36.24-.24.36-.24.36-.36.36-.24.36-.24.4-.24.48-.24.36-.24.36-.24.36-.24.44-.12.38-.26.48-.12.36-.24.48-.12.36-.12.48-.12.36-.24.48-.12h.48l.48-.12.36-.1.48-.12h.48l.48-.12h1.92zM.46 18.94h1v.48l.12.48v.84l.12.48v.36l.12.48v.48l.12.36.12.48.12.36.12.48.12.36.12.36.24.48.12.36.12.36.24.36.12.48.24.36.24.36.24.36.12.36.24.36.24.36.3.36.24.24.24.36.24.36.28.24.36.36.24.24.36.36.24.24.36.36.36.24.24.24.34.26.36.24.36.24.36.24.36.24.36.24.36.24.36.12.36.24.36.12.48.24.36.12.36.12.48.24.36.12.48.12.36.12.48.12h.36l.48.12.36.12h1l.36.12h1.44v1.08h-.48l-.48-.12h-1l-.48-.12h-.48l-.48-.12-.36-.12h-.48l-.48-.12-.48-.12-.36-.12-.48-.24-.36-.12-.48-.12-.36-.24-.48-.12-.38-.26-.48-.12-.36-.24-.34-.26-.36-.24-.46-.22-.36-.24-.36-.24-.36-.24-.36-.24-.36-.36-.26-.22-.36-.36-.36-.24-.36-.4-.24-.24-.36-.36-.26-.34-.36-.36-.24-.36-.24-.24-.24-.36-.24-.48-.36-.36-.24-.36-.08-.36-.24-.36-.24-.48-.26-.34-.12-.36-.24-.48-.12-.36-.24-.48-.12-.36-.12-.48-.12-.48-.12-.36-.12-.48-.12-.48v-.48l-.12-.38-.12-.48v-1l-.12-.44v-1zm18.6 18.6v-1.08h1.32l.48-.12h.84l.48-.12.36-.12H23l.36-.12.48-.12.36-.12.48-.12.36-.24.36-.12.48-.12.36-.24.36-.12.36-.24.36-.12.36-.24.36-.24.36-.24.36-.24.36-.24.38-.22.36-.24.36-.24.24-.24.36-.36.24-.24.36-.36.24-.24.34-.38.24-.24.24-.36.36-.36.24-.24.24-.36.24-.36.24-.36.24-.36.12-.36.24-.36.24-.36.12-.48.24-.36.12-.36.24-.36.12-.48.12-.36.12-.36.12-.48.12-.36.12-.48.12-.36.12-.48v-.48l.12-.36v-1l.12-.36v-1h1v1.44l-.12.48v.48l-.12.48v.36l-.12.48-.12.48-.12.48-.12.36-.12.48-.12.48-.12.36-.24.48-.12.36-.12.48-.24.36-.24.36-.12.48-.24.36-.24.36-.24.36-.24.36-.24.48-.36.36-.24.24-.24.36-.36.36-.24.36-.36.36-.24.24-.36.36-.24.24-.36.36-.36.24-.36.36-.36.24-.36.24-.36.24-.36.24-.36.24-.38.3-.48.24-.36.24-.36.12-.48.24-.36.12-.48.24-.36.12-.48.12-.36.24-.48.12-.48.12-.36.12h-.48l-.48.12-.48.12h-.48l-.48.12H20l-.48.12zm18.48-18.6h-1v-.84l-.12-.48v-1l-.12-.36v-.48l-.12-.36-.08-.42-.1-.38-.12-.48-.12-.36-.12-.48-.12-.36-.12-.48-.24-.36-.16-.36-.24-.36-.1-.38-.24-.48-.24-.36-.12-.36-.24-.36-.24-.36-.24-.36-.24-.22-.24-.36-.36-.36-.24-.36-.26-.24-.36-.36-.24-.24-.36-.36-.22-.22-.36-.24-.24-.36-.36-.24-.36-.26-.36-.24-.36-.24-.36-.24-.36-.24-.36-.24-.36-.12-.34-.24-.36-.24-.38-.1-.36-.24-.48-.12-.36-.12-.36-.12-.48-.24-.36-.16-.48-.12H23l-.48-.12-.36-.12h-.46l-.48-.12h-.36l-.48-.12h-1.32v-1h1.8l.48.12h.48l.48.18.48.12.48.12h.36l.48.12.48.24.36.12.48.12.36.12.48.24.36.12.48.24.36.12.36.24.48.24.36.24.36.24.36.24.36.24.36.24.36.36.36.24.36.24.36.36.24.24.36.36.24.24.36.36.24.36.36.36.24.36.24.36.36.36.24.36.24.36.24.36.24.36.24.36.12.48.24.36.24.36.12.48.12.36.24.48.12.48.12.36.12.48.12.36.12.48.12.48.12.48v.48l.12.36V17l.12.48v1.44z"/><path class="cls-2" d="M19.06 2.98l1.56.12 1.56.24 1.56.36 1.44.48 1.44.72 1.32.84 1.2.84 1.2 1.08.96 1.08.96 1.32.84 1.32.6 1.32.6 1.56.36 1.44.24 1.56.12 1.68-.12 1.68-.24 1.56-.36 1.56-.6 1.44-.6 1.44-.84 1.2-.96 1.32-.96 1.08-1.2 1.08-1.2.84-1.32.84-1.44.72-1.44.48-1.56.36-1.56.24-1.56.12-1.68-.12-1.56-.24-1.56-.36-1.44-.48-1.44-.72-1.32-.84-1.2-.84-1.08-1.08-1.08-1.08-.96-1.32-.72-1.2-.72-1.44-.48-1.44-.48-1.56-.24-1.56v-3.36l.24-1.56.48-1.44.48-1.56.72-1.32.72-1.32.96-1.32 1.08-1.08 1.08-1.08 1.2-.84 1.32-.84 1.44-.72 1.44-.48 1.56-.36 1.56-.24 1.68-.12z"/><path class="cls-2" d="M19.06 3.82h1.56l1.44.24 1.44.36 1.44.6 1.32.6 1.2.72 1.2.96 1.08.96.96 1.08.84 1.08.84 1.32.6 1.32.48 1.44.36 1.44.24 1.44.12 1.56-.12 1.56-.24 1.56-.36 1.44-.48 1.32-.6 1.32-.84 1.32-.84 1.08-.96 1.08-1.08 1.08-1.2.84-1.2.72-1.32.6-1.44.6-1.44.36-1.44.24H17.5l-1.56-.24-1.44-.36-1.44-.6-1.32-.6-1.2-.72-1.2-.84-1.08-1.08-.96-1.08-.84-1.08-.72-1.32-.72-1.32-.48-1.32-.36-1.44-.24-1.56-.12-1.56.12-1.56.24-1.44.36-1.44.48-1.44.72-1.32.72-1.32.84-1.08.96-1.08 1.08-.96 1.2-.96 1.2-.72 1.32-.6 1.44-.6 1.44-.36 1.56-.24h1.56z"/><path d="M19.06 3.46v.6h-.84l-.72.12-.72.12-.72.12-.72.12-.72.24-.72.22-.72.24-.6.24-.6.36-.72.36-.6.36-.48.48-.6.48L9 7.9l-.48.6L8 9l-.48.48-.48.6-.36.6-.36.6-.36.6-.36.6-.24.72-.36.7-.24.6-.12.72-.24.72-.12.72-.12.72v1.56h-.6v-.84l.12-.72v-.84l.12-.72.24-.72.24-.72.24-.72.24-.72.36-.72.24-.6.36-.72.48-.6.36-.6.48-.6.48-.6.62-.5.48-.48.6-.48.6-.48.6-.48.6-.36.6-.36.72-.36.72-.36.6-.24.72-.24.72-.24.84-.12.72-.12.72-.12.84-.12zM3.58 18.94h.6v1.56l.12.72.12.72.24.72.12.72.22.72.36.6.24.72.4.58.36.6.36.6.36.6.48.6.44.5.48.6.52.5.6.48.6.36.48.48.6.36.72.32.6.36.6.24.72.24.72.24.72.24.72.12.72.12.72.12.72.12h.84v.6h-.84l-.84-.12-.72-.12-.72-.12-.84-.12-.72-.24-.72-.24-.6-.24-.72-.36-.72-.36-.6-.36-.6-.36-.6-.48-.6-.48-.6-.48-.48-.48-.6-.48-.48-.6-.48-.6-.36-.6-.5-.56-.36-.72-.24-.6-.36-.72-.24-.72-.24-.74-.24-.72-.24-.72-.12-.72v-.84l-.12-.72zm15.48 15.48v-.6h.72l.72-.12.72-.12.84-.12.72-.12.6-.24.72-.24.72-.24.6-.24.72-.36.6-.36.6-.36.6-.48.48-.36L29 30l.48-.48.48-.6.48-.48.48-.6.36-.6.48-.6L32 26l.36-.6.36-.72.24-.6.24-.72.24-.72.12-.72.12-.72.12-.72v-1.54h.6v1.56l-.12.84-.12.72-.24.72-.12.72-.24.72-.36.72-.24.72-.36.6-.36.72-.48.6-.36.6-.48.6-.48.6-.48.48-.6.48-.48.48-.6.48-.6.48-.72.36-.6.36-.72.36-.6.36-.72.24-.72.24-.72.24-.72.12-.84.12-.72.12-.84.12zm15.36-15.48h-.6v-1.56l-.12-.72-.12-.72-.12-.72-.24-.72-.22-.6-.24-.72-.36-.72-.36-.6-.24-.6-.48-.6-.36-.6-.48-.6L30 9l-.5-.5-.5-.6-.6-.36-.48-.48-.6-.48-.6-.36-.6-.36-.72-.36-.6-.24-.7-.26-.72-.24-.6-.24-.72-.12-.84-.12-.72-.12-.72-.12h-.72v-.6h.72l.84.12.72.12.84.12.72.12.72.24.72.24.72.24.6.36.72.36.6.36.72.36.6.48.6.48.48.48L30 8l.48.48.48.6.48.6.36.6.48.6.36.72.36.6.24.72.36.72.24.72.12.72.24.72.12.72.12.84v1.56z" fill="#fff"/><path class="cls-1" d="M6.7 10.18h24.72l.6.96.6.96.36 1.08.48 1.08.24 1.08.24 1.2.24 1.2v2.4l-.24 1.2-.12 1.08-.36 1.08-.36 1.08-.48.96-.48 1.08-.6.84H6.46l-.6-.84-.48-1.08-.48-.96-.36-1.08-.24-1.08-.24-1.08-.12-1.2-.12-1.2.12-1.2.12-1.2.24-1.2.24-1.08.48-1.08.48-1.08.48-.96.72-.96z"/><path class="cls-4" d="M19.06 4.06v.6H17.5l-.72.12-.6.12-.72.24-.72.12-.6.24-.72.24-.6.36-.6.24-.6.36-.6.36-.6.48-.48.36-.6.48-.48.48-.48.48-.38.48-.48.6-.36.48-.36.6-.36.6-.36.6-.24.72-.24.6-.24.72-.24.6-.12.72-.12.72-.12.72v.72l-.12.72h-.6l.12-.72v-.84l.12-.72.12-.72.12-.72.24-.72.24-.72.24-.6.36-.72.24-.6.36-.6.48-.6.36-.6.48-.6L8 9l.48-.6.52-.5.6-.48.48-.48.6-.36.6-.36.6-.36.72-.36.6-.24.72-.36.72-.24.72-.12.72-.24.72-.12.72-.12h1.56zm-15 14.88h.6l.12.72v.72l.12.72.12.72.12.72.24.72.24.6.24.72.24.6.36.6.36.6.36.6.36.48.48.6.36.48.48.48.48.48.6.48.48.48.6.36.6.36.6.36.6.36.6.24.72.24.6.24.72.24.72.12.6.12.72.12h1.56v.6H17.5l-.72-.12-.72-.12-.72-.24-.72-.12-.72-.22-.72-.24-.6-.36-.72-.4-.6-.36-.6-.36-.6-.36-.48-.48L9 30l-.5-.5L8 29l-.48-.6-.48-.6-.36-.48-.48-.6-.34-.72-.24-.6-.36-.72L5 24.1l-.24-.72-.24-.72-.12-.72-.12-.72-.12-.72v-.84zm15 14.88v-.6h1.44l.72-.12.72-.12.6-.12.72-.24.72-.24.6-.24.6-.24.6-.36.6-.36.6-.36.6-.36.6-.48.48-.48.48-.48.48-.48.48-.48.36-.6.48-.48.36-.6.36-.6.24-.6.36-.6.24-.72.24-.6.12-.72.24-.72.12-.72v-.72l.12-.72v-.72h.6v.72l-.12.84v.72l-.24.72-.12.72-.24.72-.22.72-.24.6-.24.72-.36.6-.36.72-.36.6-.48.48-.36.6-.48.6-.48.48-.64.5-.48.48-.6.48-.6.36-.6.36-.6.36-.6.36-.72.36-.7.24-.6.24-.72.12-.72.24-.72.12-.84.12h-1.44zm14.88-14.88h-.6v-.72l-.12-.72v-.72l-.12-.72-.24-.72-.12-.6-.24-.74-.24-.6-.36-.72-.24-.6-.36-.6-.36-.6-.48-.48-.36-.6-.48-.48-.48-.48-.48-.48-.48-.48-.6-.36-.58-.46-.6-.36-.6-.36-.6-.24-.6-.36-.6-.24-.72-.24-.72-.12-.6-.24-.72-.12-.72-.12h-1.46v-.6h1.44l.84.12.72.12.72.24.72.12.6.24.72.36.72.24.6.36.6.36.6.36.6.36.6.48.46.48.6.48.48.6.48.48.36.6.48.6.36.6.36.6.36.6.24.72.24.6.24.72.24.72.12.72.24.72v.72l.12.84z"/><path class="cls-4" d="M30.28 26.62v-7h-2.14v2.61H26.9v-6.86h1v-4.11H24v4.11h.8v6.84H24v4.41zm-9.46 0v-4.41h-1V20h1.93v-1.72h-1.89v-2.91h1.23v2.2h2.15v-6.31h-6.31v4.11h.8v6.84h-.8v4.41zm-9.62 0v-4.41h-.69v-7.56l2.49 12h2.33V15.37h.8v-4.11H13v4.11h.68v6.39l-2.15-10.5H8.07v4.11h.8v6.84h-.8v4.41z"/></svg>