<svg id="Layer_1" data-name="Layer 1" xmlns="http://www.w3.org/2000/svg" viewBox="0 0 38 38"><defs><style>.cls-1,.cls-3{fill:#fff;}.cls-1,.cls-2{fill-rule:evenodd;}.cls-2,.cls-4{fill:#059948;}</style></defs><polygon class="cls-1" points="19.06 0.94 20.86 0.94 22.66 1.3 24.34 1.66 26.02 2.38 27.58 3.1 29.14 3.94 30.46 5.02 31.78 6.22 32.98 7.42 33.94 8.86 34.9 10.3 35.62 11.98 36.22 13.54 36.7 15.34 36.94 17.14 37.06 18.94 36.94 20.74 36.7 22.54 36.22 24.34 35.62 26.02 34.9 27.58 33.94 29.02 32.98 30.46 31.78 31.66 30.46 32.86 29.14 33.94 27.58 34.78 26.02 35.62 24.34 36.22 22.66 36.58 20.86 36.94 19.06 36.94 17.14 36.94 15.34 36.58 13.66 36.22 11.98 35.62 10.42 34.78 8.98 33.94 7.54 32.86 6.22 31.66 5.14 30.46 4.06 29.02 3.1 27.58 2.38 26.02 1.78 24.34 1.3 22.54 1.06 20.74 0.94 18.94 1.06 17.14 1.3 15.34 1.78 13.54 2.38 11.98 3.1 10.3 4.06 8.86 5.14 7.42 6.22 6.22 7.54 5.02 8.98 3.94 10.42 3.1 11.98 2.38 13.66 1.66 15.34 1.3 17.14 0.94 19.06 0.94"/><path d="M19.06.46v1H17.62l-.36.12h-.48l-.48.12h-.36l-.48.12-.36.12h-.48L14.26,2l-.48.12-.36.24-.48.12-.36.12-.36.12L11.74,3l-.36.12L11,3.34l-.36.24-.36.12-.36.24-.36.24-.36.24-.36.24L8.5,4.9l-.36.24-.24.24-.36.36L7.18,6l-.24.24-.36.36-.24.24L6,7.18l-.24.24-.24.36-.24.36L5,8.5l-.36.24-.24.36-.24.36-.12.36-.24.36-.24.36L3.34,11l-.12.36L3,11.74l-.12.36-.12.36-.24.48-.12.36-.12.48-.12.36L2,14.62,1.9,15l-.12.48v.36l-.12.48v.36l-.12.48v1l-.12.36v.48h-1V18l.12-.48v-1l.12-.36.12-.48v-.48l.12-.48.12-.48.12-.36.12-.48.12-.36.12-.48.24-.48.12-.36.24-.48.12-.36.24-.36.24-.48L3,9.7l.12-.36L3.34,9l.36-.36.24-.36.24-.36.24-.36.24-.36L5,6.82l.24-.36.36-.36.24-.24.36-.36.36-.24.36-.36.24-.24.36-.24.36-.36.36-.24.36-.24L9,3.34l.48-.24.36-.24.36-.24.36-.24L11,2.26,11.38,2l.48-.12.36-.24.48-.12.36-.12.48-.12.36-.24.48-.12h.48l.48-.12L15.7.7l.48-.12h.48l.48-.12h1.92ZM.46,18.94h1v.48l.12.48v.84l.12.48v.36l.12.48v.48l.12.36.12.48.12.36.12.48.12.36.12.36.24.48.12.36.12.36.24.36.12.48.24.36.24.36.24.36.12.36.24.36.24.36L5,29.5l.24.24.24.36.24.36L6,30.7l.36.36.24.24.36.36.24.24.36.36.36.24.24.24L8.5,33l.36.24.36.24.36.24.36.24.36.24.36.24.36.12.36.24.36.12.48.24.36.12.36.12.48.24.36.12.48.12.36.12.48.12h.36l.48.12.36.12h1l.36.12h1.44v1.08h-.48l-.48-.12h-1l-.48-.12h-.48l-.48-.12-.36-.12h-.48l-.48-.12-.48-.12-.36-.12-.48-.24-.36-.12-.48-.12L11.86,36l-.48-.12L11,35.62l-.48-.12-.36-.24L9.82,35l-.36-.24L9,34.54l-.36-.24-.36-.24-.36-.24-.36-.24-.36-.36L6.94,33l-.36-.36-.36-.24L5.86,32l-.24-.24-.36-.36L5,31.06l-.36-.36-.24-.36-.24-.24-.24-.36-.24-.48-.36-.36-.24-.36L3,28.18l-.24-.36-.24-.48L2.26,27l-.12-.36-.24-.48-.12-.36-.24-.48-.12-.36-.12-.48L1.18,24l-.12-.36-.12-.48-.12-.48v-.48L.7,21.82l-.12-.48v-1L.46,19.9v-1Zm18.6,18.6V36.46h1.32l.48-.12h.84l.48-.12.36-.12H23l.36-.12.48-.12.36-.12.48-.12.36-.24.36-.12.48-.12.36-.24.36-.12.36-.24.36-.12.36-.24.36-.24.36-.24.36-.24.36-.24L29.5,33l.36-.24.36-.24.24-.24.36-.36.24-.24.36-.36.24-.24L32,30.7l.24-.24.24-.36.36-.36.24-.24.24-.36.24-.36.24-.36.24-.36.12-.36.24-.36.24-.36.12-.48.24-.36.12-.36.24-.36.12-.48.12-.36.12-.36.12-.48.12-.36.12-.48.12-.36.12-.48v-.48l.12-.36v-1l.12-.36v-1h1v1.44l-.12.48v.48l-.12.48v.36l-.12.48-.12.48-.12.48-.12.36-.12.48-.12.48-.12.36-.24.48-.12.36-.12.48-.24.36-.24.36-.12.48-.24.36-.24.36-.24.36-.24.36-.24.48-.36.36-.24.24-.24.36-.36.36-.24.36-.36.36-.24.24-.36.36-.24.24-.36.36-.36.24-.36.36-.36.24-.36.24-.36.24-.36.24-.36.24L28.3,35l-.48.24-.36.24-.36.12-.48.24-.36.12-.48.24-.36.12-.48.12-.36.24-.48.12-.48.12-.36.12h-.48l-.48.12-.48.12h-.48l-.48.12H20l-.48.12Zm18.48-18.6h-1V18.1l-.12-.48v-1l-.12-.36v-.48l-.12-.36L36.1,15,36,14.62l-.12-.48-.12-.36-.12-.48-.12-.36-.12-.48-.24-.36L35,11.74l-.24-.36L34.66,11l-.24-.48-.24-.36-.12-.36-.24-.36-.24-.36-.24-.36L33.1,8.5l-.24-.36-.36-.36-.24-.36L32,7.18l-.36-.36-.24-.24-.36-.36L30.82,6l-.36-.24-.24-.36-.36-.24L29.5,4.9l-.36-.24-.36-.24-.36-.24-.36-.24L27.7,3.7l-.36-.12L27,3.34l-.36-.24L26.26,3l-.36-.24-.48-.12-.36-.12-.36-.12-.48-.24L23.86,2l-.48-.12H23l-.48-.12-.36-.12H21.7l-.48-.12h-.36l-.48-.12H19.06v-1h1.8l.48.12h.48L22.3.7l.48.12.48.12h.36l.48.12.48.24.36.12.48.12.36.12.48.24.36.12.48.24.36.12.36.24.48.24.36.24.36.24.36.24.36.24.36.24.36.36.36.24.36.24.36.36.24.24.36.36.24.24.36.36.24.36.36.36.24.36.24.36.36.36.24.36.24.36.24.36.24.36.24.36.12.48.24.36.24.36.12.48.12.36.24.48.12.48.12.36.12.48.12.36.12.48.12.48.12.48v.48l.12.36V17l.12.48v1.44Z"/><polygon class="cls-2" points="19.06 2.98 20.62 3.1 22.18 3.34 23.74 3.7 25.18 4.18 26.62 4.9 27.94 5.74 29.14 6.58 30.34 7.66 31.3 8.74 32.26 10.06 33.1 11.38 33.7 12.7 34.3 14.26 34.66 15.7 34.9 17.26 35.02 18.94 34.9 20.62 34.66 22.18 34.3 23.74 33.7 25.18 33.1 26.62 32.26 27.82 31.3 29.14 30.34 30.22 29.14 31.3 27.94 32.14 26.62 32.98 25.18 33.7 23.74 34.18 22.18 34.54 20.62 34.78 19.06 34.9 17.38 34.78 15.82 34.54 14.26 34.18 12.82 33.7 11.38 32.98 10.06 32.14 8.86 31.3 7.78 30.22 6.7 29.14 5.74 27.82 5.02 26.62 4.3 25.18 3.82 23.74 3.34 22.18 3.1 20.62 3.1 18.94 3.1 17.26 3.34 15.7 3.82 14.26 4.3 12.7 5.02 11.38 5.74 10.06 6.7 8.74 7.78 7.66 8.86 6.58 10.06 5.74 11.38 4.9 12.82 4.18 14.26 3.7 15.82 3.34 17.38 3.1 19.06 2.98"/><polygon class="cls-2" points="19.06 3.82 20.62 3.82 22.06 4.06 23.5 4.42 24.94 5.02 26.26 5.62 27.46 6.34 28.66 7.3 29.74 8.26 30.7 9.34 31.54 10.42 32.38 11.74 32.98 13.06 33.46 14.5 33.82 15.94 34.06 17.38 34.18 18.94 34.06 20.5 33.82 22.06 33.46 23.5 32.98 24.82 32.38 26.14 31.54 27.46 30.7 28.54 29.74 29.62 28.66 30.7 27.46 31.54 26.26 32.26 24.94 32.86 23.5 33.46 22.06 33.82 20.62 34.06 19.06 34.06 17.5 34.06 15.94 33.82 14.5 33.46 13.06 32.86 11.74 32.26 10.54 31.54 9.34 30.7 8.26 29.62 7.3 28.54 6.46 27.46 5.74 26.14 5.02 24.82 4.54 23.5 4.18 22.06 3.94 20.5 3.82 18.94 3.94 17.38 4.18 15.94 4.54 14.5 5.02 13.06 5.74 11.74 6.46 10.42 7.3 9.34 8.26 8.26 9.34 7.3 10.54 6.34 11.74 5.62 13.06 5.02 14.5 4.42 15.94 4.06 17.5 3.82 19.06 3.82"/><path class="cls-3" d="M19.06,3.46v.6h-.84l-.72.12-.72.12-.72.12-.72.12-.72.24L13.9,5l-.72.24-.6.24-.6.36-.72.36-.6.36-.48.48-.6.48L9,7.9l-.48.6L8,9l-.48.48-.48.6-.36.6-.36.6-.36.6-.36.6-.24.72L5,13.9l-.24.6-.12.72-.24.72-.12.72-.12.72v1.56h-.6V18.1l.12-.72v-.84l.12-.72.24-.72.24-.72.24-.72.24-.72.36-.72.24-.6.36-.72.48-.6.36-.6.48-.6.48-.6L8.14,8l.48-.48.6-.48.6-.48.6-.48.6-.36.6-.36L12.34,5l.72-.36.6-.24.72-.24.72-.24.84-.12.72-.12.72-.12.84-.12ZM3.58,18.94h.6V20.5l.12.72.12.72.24.72.12.72L5,24.1l.36.6.24.72L6,26l.36.6.36.6.36.6.48.6L8,28.9l.48.6L9,30l.6.48.6.36.48.48.6.36L12,32l.6.36.6.24.72.24.72.24.72.24.72.12.72.12.72.12.72.12h.84v.6h-.84l-.84-.12-.72-.12-.72-.12-.84-.12-.72-.24-.72-.24-.6-.24-.72-.36-.72-.36-.6-.36-.6-.36-.6-.48-.6-.48-.6-.48-.48-.48-.6-.48-.48-.6-.48-.6-.36-.6L5.74,27l-.36-.72-.24-.6-.36-.72-.24-.72L4.3,23.5l-.24-.72-.24-.72-.12-.72V20.5l-.12-.72ZM19.06,34.42v-.6h.72l.72-.12.72-.12.84-.12.72-.12.6-.24.72-.24.72-.24.6-.24.72-.36.6-.36.6-.36.6-.48.48-.36L29,30l.48-.48.48-.6.48-.48.48-.6.36-.6.48-.6L32,26l.36-.6.36-.72.24-.6.24-.72.24-.72.12-.72.12-.72.12-.72V18.94h.6V20.5l-.12.84-.12.72-.24.72-.12.72-.24.72-.36.72-.24.72-.36.6-.36.72-.48.6-.36.6-.48.6-.48.6-.48.48-.6.48-.48.48-.6.48-.6.48-.72.36-.6.36-.72.36-.6.36-.72.24-.72.24-.72.24-.72.12-.84.12-.72.12-.84.12ZM34.42,18.94h-.6V17.38l-.12-.72-.12-.72-.12-.72-.24-.72L33,13.9l-.24-.72-.36-.72-.36-.6-.24-.6-.48-.6-.36-.6-.48-.6L30,9,29.5,8.5,29,7.9l-.6-.36-.48-.48-.6-.48-.6-.36-.6-.36-.72-.36-.6-.24L24.1,5l-.72-.24-.6-.24-.72-.12-.84-.12-.72-.12-.72-.12h-.72v-.6h.72l.84.12.72.12.84.12.72.12.72.24.72.24.72.24.6.36.72.36.6.36.72.36.6.48.6.48.48.48L30,8l.48.48.48.6.48.6.36.6.48.6.36.72.36.6.24.72.36.72.24.72.12.72.24.72.12.72.12.84v1.56Z"/><polygon class="cls-1" points="6.7 10.18 31.42 10.18 32.02 11.14 32.62 12.1 32.98 13.18 33.46 14.26 33.7 15.34 33.94 16.54 34.18 17.74 34.18 18.94 34.18 20.14 33.94 21.34 33.82 22.42 33.46 23.5 33.1 24.58 32.62 25.54 32.14 26.62 31.54 27.46 6.46 27.46 5.86 26.62 5.38 25.54 4.9 24.58 4.54 23.5 4.3 22.42 4.06 21.34 3.94 20.14 3.82 18.94 3.94 17.74 4.06 16.54 4.3 15.34 4.54 14.26 5.02 13.18 5.5 12.1 5.98 11.14 6.7 10.18"/><path class="cls-4" d="M19.06,4.06v.6H17.5l-.72.12-.6.12-.72.24-.72.12-.6.24-.72.24-.6.36-.6.24-.6.36-.6.36-.6.48-.48.36-.6.48-.48.48-.48.48L8,9.82l-.48.6-.36.48-.36.6-.36.6-.36.6-.24.72-.24.6-.24.72-.24.6L5,16.06l-.12.72-.12.72v.72l-.12.72h-.6l.12-.72v-.84l.12-.72.12-.72.12-.72.24-.72L5,13.78l.24-.6.36-.72.24-.6.36-.6.48-.6.36-.6.48-.6L8,9l.48-.6L9,7.9l.6-.48.48-.48.6-.36.6-.36.6-.36.72-.36.6-.24.72-.36.72-.24.72-.12.72-.24.72-.12.72-.12h1.56Zm-15,14.88h.6l.12.72v.72l.12.72.12.72.12.72.24.72.24.6.24.72.24.6.36.6.36.6.36.6.36.48.48.6.36.48.48.48.48.48.6.48.48.48.6.36.6.36.6.36.6.36.6.24.72.24.6.24.72.24.72.12.6.12.72.12h1.56v.6H17.5l-.72-.12-.72-.12-.72-.24-.72-.12L13.9,33l-.72-.24-.6-.36L11.86,32l-.6-.36-.6-.36-.6-.36-.48-.48L9,30,8.5,29.5,8,29l-.48-.6-.48-.6-.36-.48-.48-.6L5.86,26l-.24-.6-.36-.72L5,24.1l-.24-.72-.24-.72-.12-.72-.12-.72-.12-.72v-.84Zm15,14.88v-.6H20.5l.72-.12.72-.12.6-.12.72-.24.72-.24.6-.24.6-.24.6-.36.6-.36.6-.36.6-.36.6-.48.48-.48.48-.48.48-.48.48-.48.36-.6.48-.48.36-.6.36-.6.24-.6.36-.6.24-.72.24-.6.12-.72.24-.72.12-.72v-.72l.12-.72v-.72h.6v.72l-.12.84v.72l-.24.72-.12.72-.24.72L33,24.1l-.24.6-.24.72-.36.6-.36.72-.36.6-.48.48-.36.6-.48.6-.48.48L29,30l-.48.48-.6.48-.6.36-.6.36-.6.36-.6.36-.72.36L24.1,33l-.6.24-.72.12-.72.24-.72.12-.84.12H19.06ZM33.94,18.94h-.6v-.72l-.12-.72v-.72l-.12-.72-.24-.72-.12-.6L32.5,14l-.24-.6-.36-.72-.24-.6-.36-.6-.36-.6-.48-.48-.36-.6-.48-.48-.48-.48-.48-.48-.48-.48-.6-.36L27,7.06l-.6-.36-.6-.36-.6-.24-.6-.36L24,5.5l-.72-.24-.72-.12-.6-.24-.72-.12-.72-.12H19.06v-.6H20.5l.84.12.72.12.72.24.72.12.6.24.72.36.72.24.6.36.6.36.6.36.6.36.6.48L29,7.9l.6.48.48.6.48.48.36.6.48.6.36.6.36.6.36.6.24.72.24.6.24.72.24.72.12.72.24.72v.72l.12.84Z"/><path class="cls-4" d="M30.28,26.62v-7H28.14v2.61H26.9V15.37h1V11.26H24v4.11h.8v6.84H24v4.41Zm-9.46,0V22.21h-1V20h1.93V18.28H19.86V15.37h1.23v2.2h2.15V11.26H16.93v4.11h.8v6.84h-.8v4.41Zm-9.62,0V22.21h-.69V14.65l2.49,12h2.33V15.37h.8V11.26H13v4.11h.68v6.39l-2.15-10.5H8.07v4.11h.8v6.84h-.8v4.41Z"/></svg>