<svg data-name="Layer 1" xmlns="http://www.w3.org/2000/svg" width="40" height="40"><circle cx="19.99" cy="20" r="19.62" fill="red"/><path d="M17.46 23.62v1.19h-4.39v-1.19l1-.34V16.8l-1-.41v-1.13l3.14-.07H20v2.6h-1.24l-.34-1h-2.21v2.42H19v1.5h-2.79v2.56zm3.38-6.07l2.82-.11.13.94.3-.3a4.82 4.82 0 01.68-.47 1.83 1.83 0 01.91-.3 3.21 3.21 0 01.63.06 1.88 1.88 0 01.46.13l.14.05-.11 2.59h-1.19l-.2-1.14a1.51 1.51 0 00-.72.2 1.87 1.87 0 00-.56.38l-.19.19v3.62l1.29.34v1.1h-4.39v-1.1l1.09-.34v-4.47l-1.09-.28z" fill="#fff"/></svg>