<svg id="Layer_1" data-name="Layer 1" xmlns="http://www.w3.org/2000/svg" width="40" height="40" viewBox="0 0 40 40">
  <defs>
    <style>
      .cls-1 {
        fill: red;
      }

      .cls-2 {
        fill: #fff;
      }
    </style>
  </defs>
  <circle class="cls-1" cx="19.99" cy="20" r="19.62"/>
  <g>
    <path class="cls-2" d="M17.46,23.62v1.19H13.07V23.62l1-.34V16.8l-1-.41V15.26l3.14-.07H20v2.6H18.76l-.34-1H16.21v2.42H19v1.5H16.21v2.56Z"/>
    <path class="cls-2" d="M20.84,17.55l2.82-.11.13.94.3-.3a4.82,4.82,0,0,1,.68-.47,1.83,1.83,0,0,1,.91-.3,3.21,3.21,0,0,1,.63.06,1.88,1.88,0,0,1,.46.13l.14.05-.11,2.59H25.61L25.41,19a1.51,1.51,0,0,0-.72.2,1.87,1.87,0,0,0-.56.38l-.19.19v3.62l1.29.34v1.1H20.84v-1.1l1.09-.34V18.92l-1.09-.28Z"/>
  </g>
</svg>
