<svg id="Layer_1" data-name="Layer 1" xmlns="http://www.w3.org/2000/svg" width="40" height="40" viewBox="0 0 40 40">
  <defs>
    <style>
      .cls-1 {
        fill: #000;
      }

      .cls-2 {
        fill: #fff;
      }
    </style>
  </defs>
  <circle class="cls-1" cx="19.98" cy="20" r="19.62"/>
  <g>
    <path class="cls-2" d="M10.94,18.12,10.6,17a4.68,4.68,0,0,0-1.54-.22c-1.52,0-2.28,1.11-2.28,3.34s.77,3.16,2.32,3.16a4.39,4.39,0,0,0,.69-.06,6,6,0,0,0,.59-.12L10.6,23V21.27l-1-.32V19.84l3.92-.07V21l-.93.32v2.78a4.65,4.65,0,0,1-.45.26,8.24,8.24,0,0,1-1.26.4,7.81,7.81,0,0,1-2,.25,4.19,4.19,0,0,1-3.23-1.23A5.11,5.11,0,0,1,4.5,20.14a5.36,5.36,0,0,1,1.25-3.75A4.29,4.29,0,0,1,9.1,15a8.29,8.29,0,0,1,1.53.16,8.94,8.94,0,0,1,1.22.32l.43.17-.07,2.45Z"/>
    <path class="cls-2" d="M18.37,23.61V24.8H14.48V23.61l1-.34V16.8l-1-.41V15.26L18,15.19l2,4.54,2.15-4.47,3.27-.07v1.2l-1,.41v6.47l1,.34V24.8H21.44V23.61l1.06-.34V18.11c-.17.42-.35.87-.57,1.32s-.45,1-.72,1.5-.48,1-.62,1.28l-1.47.07-1.57-3.23-.23-.71v4.93Z"/>
    <path class="cls-2" d="M31.18,15a4,4,0,0,1,3.17,1.28,5.21,5.21,0,0,1,1.13,3.56,5.29,5.29,0,0,1-1.27,3.71A4.22,4.22,0,0,1,30.91,25a3.94,3.94,0,0,1-3.14-1.26,5.43,5.43,0,0,1-1.09-3.65,5.39,5.39,0,0,1,1.21-3.7A4.18,4.18,0,0,1,31.18,15Zm-.07,1.71a1.85,1.85,0,0,0-1.61.76A4.43,4.43,0,0,0,29,20a4.78,4.78,0,0,0,.5,2.47,1.65,1.65,0,0,0,1.52.8,1.91,1.91,0,0,0,1.64-.78,4.44,4.44,0,0,0,.57-2.56,4.48,4.48,0,0,0-.52-2.43A1.77,1.77,0,0,0,31.11,16.73Z"/>
  </g>
</svg>
