<svg id="Layer_1" data-name="Layer 1" xmlns="http://www.w3.org/2000/svg" width="40" height="40" viewBox="0 0 40 40">
  <defs>
    <style>
      .cls-1 {
        fill: #397641;
      }

      .cls-2 {
        fill: #fff;
      }
    </style>
  </defs>
  <circle class="cls-1" cx="19.99" cy="20" r="19.62"/>
  <g>
    <path class="cls-2" d="M17.59,23.62v1.19H13.43V23.62l1-.34V16.8l-1-.41V15.26l4.16-.07v1.2l-1,.41v6.48Z"/>
    <path class="cls-2" d="M24.67,17a5,5,0,0,0-1.53-.21c-1.5,0-2.25,1.11-2.25,3.34s.77,3.13,2.32,3.13A3.54,3.54,0,0,0,24.45,23a5.06,5.06,0,0,0,1-.48l.34-.23.75,1.22-.17.16a4.58,4.58,0,0,1-.47.36,5.73,5.73,0,0,1-.75.45,6.16,6.16,0,0,1-1,.36A5,5,0,0,1,23,25a4.17,4.17,0,0,1-3.22-1.23,5.13,5.13,0,0,1-1.14-3.6,5.4,5.4,0,0,1,1.24-3.75A4.35,4.35,0,0,1,23.21,15a7.35,7.35,0,0,1,1.52.16,7.39,7.39,0,0,1,1.22.32l.43.16-.07,2.59H25Z"/>
  </g>
</svg>
