<svg id="Layer_1" data-name="Layer 1" xmlns="http://www.w3.org/2000/svg" width="40" height="40" viewBox="0 0 40 40">
  <defs>
    <style>
      .cls-1 {
        fill: #0d5ba5;
      }

      .cls-2 {
        fill: #fff;
      }
    </style>
  </defs>
  <circle class="cls-1" cx="19.99" cy="20" r="19.62"/>
  <g>
    <path class="cls-2" d="M9.9,16.8v6.41H12l.3-1.54h1.3v3.14H6.76V23.62l1-.34V16.8l-1-.41V15.26l4.16-.07v1.2Z"/>
    <path class="cls-2" d="M19.49,17.76c-.06-.25-.13-.54-.22-.89a3.38,3.38,0,0,0-1.22-.18,1.34,1.34,0,0,0-1,.32,1,1,0,0,0-.34.76,1,1,0,0,0,.46.91,1.83,1.83,0,0,0,1.11.33h4.19v1.16l-1,.31v1.45a2.73,2.73,0,0,1-1,2.23,4.1,4.1,0,0,1-2.68.81,3.92,3.92,0,0,1-2.59-.74,2.48,2.48,0,0,1-.85-2,2.31,2.31,0,0,1,.21-1,2.46,2.46,0,0,1,.53-.76c.21-.19.4-.35.55-.47a2.3,2.3,0,0,1,.44-.26,3.6,3.6,0,0,1-1-.81,2.15,2.15,0,0,1-.45-1.34,2.26,2.26,0,0,1,.92-1.94A4.19,4.19,0,0,1,18.16,15a6.09,6.09,0,0,1,1.52.21,7.16,7.16,0,0,1,1.16.36l-.07,2.16Zm.08,4V20.48h-1a2.6,2.6,0,0,0-1.44.37A1.23,1.23,0,0,0,16.55,22a1.27,1.27,0,0,0,.39,1,1.55,1.55,0,0,0,2.63-1.21Z"/>
    <path class="cls-2" d="M27.34,23.62v1.19H23.39V23.62l1-.34V16.8l-1-.41V15.26l3.27-.07,3.68,6.3V16.8l-1-.41V15.26l3.88-.07v1.2l-1,.41v8H29.93l-3.65-6.18v4.65Z"/>
  </g>
</svg>
