<svg data-name="Layer 1" xmlns="http://www.w3.org/2000/svg" width="40" height="40"><circle cx="19.99" cy="20" r="19.62" fill="#0d5ba5"/><path d="M9.9 16.8v6.41H12l.3-1.54h1.3v3.14H6.76v-1.19l1-.34V16.8l-1-.41v-1.13l4.16-.07v1.2zm9.59.96c-.06-.25-.13-.54-.22-.89a3.38 3.38 0 00-1.22-.18 1.34 1.34 0 00-1 .32 1 1 0 00-.34.76 1 1 0 00.46.91 1.83 1.83 0 001.11.33h4.19v1.16l-1 .31v1.45a2.73 2.73 0 01-1 2.23 4.1 4.1 0 01-2.68.81 3.92 3.92 0 01-2.59-.74 2.48 2.48 0 01-.85-2 2.31 2.31 0 01.21-1 2.46 2.46 0 01.53-.76c.21-.19.4-.35.55-.47a2.3 2.3 0 01.44-.26 3.6 3.6 0 01-1-.81 2.15 2.15 0 01-.45-1.34 2.26 2.26 0 01.92-1.94 4.19 4.19 0 012.61-.65 6.09 6.09 0 011.52.21 7.16 7.16 0 011.16.36l-.07 2.16zm.08 4v-1.28h-1a2.6 2.6 0 00-1.44.37 1.23 1.23 0 00-.58 1.15 1.27 1.27 0 00.39 1 1.55 1.55 0 002.63-1.21zm7.77 1.86v1.19h-3.95v-1.19l1-.34V16.8l-1-.41v-1.13l3.27-.07 3.68 6.3V16.8l-1-.41v-1.13l3.88-.07v1.2l-1 .41v8h-2.29l-3.65-6.18v4.65z" fill="#fff"/></svg>