<svg id="Layer_1" data-name="Layer 1" xmlns="http://www.w3.org/2000/svg" width="40" height="40" viewBox="0 0 40 40">
  <defs>
    <style>
      .cls-1 {
        fill: #c7c4e2;
      }

      .cls-2 {
        fill: #000;
      }
    </style>
  </defs>
  <circle class="cls-1" cx="19.99" cy="20" r="19.62"/>
  <g>
    <path class="cls-2" d="M6.39,24.81l-2.21-8-.95-.4V15.26l4.05-.07v1.2l-1,.41,1.18,4.94,1.9-6.44,1.84-.11L13,21.72l1.31-4.92-1-.41V15.26l3.88-.07v1.2l-1,.41-2.33,8H12l-1.78-6.48c-.22.89-.58,2.15-1.07,3.77s-.77,2.52-.83,2.71Z"/>
    <path class="cls-2" d="M21.93,23.62v1.19H17.81V23.62l1-.34V16.8l-1-.41V15.26L21,15.19h1a4.23,4.23,0,0,1,2.62.71A2.46,2.46,0,0,1,25.53,18,2.65,2.65,0,0,1,24,20.55a3.75,3.75,0,0,1,.57.89l.92,1.87.92.31v1.19H23.88l-1.14-2.53a4.36,4.36,0,0,0-.58-1,1,1,0,0,0-.73-.22H21v2.25ZM21,16.8v2.8h.78A1.9,1.9,0,0,0,23,19.22a1.29,1.29,0,0,0,.45-1,1.34,1.34,0,0,0-.37-1,1.31,1.31,0,0,0-1-.38Z"/>
    <path class="cls-2" d="M32.88,15.19l2.93,8.12.95.31v1.19H32.43V23.62l1-.31-.33-1h-3l-.34,1,1.06.33v1.19H26.7V23.62l1-.31,3-8.07Zm-1.23,2.4-1.08,3.23h2.1Z"/>
  </g>
</svg>
