<?xml version="1.0" encoding="UTF-8"?>
<!DOCTYPE svg PUBLIC "-//W3C//DTD SVG 1.1//EN" "http://www.w3.org/Graphics/SVG/1.1/DTD/svg11.dtd">
<!-- Creator: CorelDRAW Home & Student X7 -->
<svg xmlns="http://www.w3.org/2000/svg" xml:space="preserve" width="17.0324mm" height="15.7681mm" version="1.1" style="shape-rendering:geometricPrecision; text-rendering:geometricPrecision; image-rendering:optimizeQuality; fill-rule:evenodd; clip-rule:evenodd"
viewBox="0 0 308 285"
 xmlns:xlink="http://www.w3.org/1999/xlink">
 <defs>
  <style type="text/css">
   <![CDATA[
    .fil0 {fill:#CC6F3C}
    .fil1 {fill:#2B2A29;fill-rule:nonzero}
    .fil2 {fill:black;fill-rule:nonzero}
   ]]>
  </style>
 </defs>
 <g id="Ebene_x0020_1">
  <metadata id="CorelCorpID_0Corel-Layer"/>
  <path class="fil0" d="M32 14c41,0 81,0 119,0 38,0 77,0 118,0 0,7 1,13 5,18 4,6 10,8 18,9 -2,23 -6,46 -13,70 -6,24 -16,47 -27,68 -12,21 -26,40 -42,57 -17,16 -36,28 -57,35 -48,-21 -82,-51 -102,-91 -21,-40 -33,-87 -37,-139 5,0 10,-4 14,-10 3,-7 5,-13 4,-17z"/>
  <path class="fil1" d="M20 0c46,0 90,0 132,0 42,0 86,0 132,0 -1,8 1,14 5,20 5,6 11,9 19,10 -1,25 -6,51 -13,77 -8,27 -18,52 -31,76 -13,24 -28,45 -47,63 -18,18 -39,31 -62,39 -53,-23 -91,-56 -114,-101 -23,-45 -37,-96 -41,-154 6,0 11,-4 15,-12 5,-7 6,-13 5,-18zm31 29c1,4 -1,9 -4,15 -4,6 -8,9 -12,9 3,46 14,86 32,121 18,36 47,62 89,80 36,-13 65,-39 85,-81 20,-41 32,-81 34,-120 -13,-2 -20,-10 -19,-24 -35,0 -69,0 -103,0 -33,0 -67,0 -102,0zm3 21c3,0 5,2 5,4 0,3 -2,5 -5,5 -2,0 -3,-2 -3,-5 0,-2 1,-4 3,-4zm201 0c3,0 5,2 5,4 0,3 -2,5 -5,5 -2,0 -3,-2 -3,-5 0,-2 1,-4 3,-4zm-98 179c2,0 3,2 3,5 0,2 -1,3 -3,3 -3,0 -5,-1 -5,-3 0,-3 2,-5 5,-5z"/>
  <path class="fil2" d="M107 122l19 0c-1,-4 -3,-8 -4,-12 -2,-4 -3,-8 -5,-12 -2,4 -3,8 -5,12 -2,4 -3,8 -5,12zm55 27l0 0c-3,3 -6,5 -8,6 -3,1 -5,1 -7,1 -3,0 -6,-1 -8,-3 -2,-3 -4,-9 -7,-18l-30 0c-2,4 -3,6 -4,9 -1,2 -1,4 -1,6 0,1 0,1 0,2 0,0 0,1 0,1 -1,1 -3,2 -5,3 -2,0 -4,0 -6,0 -3,0 -5,0 -7,-2 -1,-1 -2,-3 -2,-5 0,-3 4,-12 11,-27 8,-14 14,-27 19,-39 -1,-1 -2,-2 -2,-3 -1,-1 -1,-1 -2,-2 3,-1 5,-2 7,-3 3,-1 5,-1 7,-1 4,0 7,1 9,3 2,1 4,5 7,9 0,2 3,8 7,19 4,10 8,19 12,27 1,4 3,7 5,10 2,3 3,5 5,7z"/>
  <path id="1" class="fil2" d="M231 135c2,2 3,4 4,6 0,2 1,3 1,5 0,4 -2,7 -6,8 -4,2 -10,3 -17,3 -14,0 -26,-3 -34,-11 -9,-8 -13,-17 -13,-30 0,-6 1,-12 4,-18 3,-5 7,-10 12,-15 5,-3 10,-6 17,-8 6,-2 13,-3 19,-3 6,0 10,1 13,2 3,2 4,4 4,7 0,1 -1,3 -1,5 -1,2 -2,4 -4,6 -2,-1 -4,-2 -6,-2 -3,-1 -5,-1 -8,-1 -9,0 -15,2 -20,7 -5,5 -8,11 -8,19 0,7 2,14 7,18 5,5 11,7 19,7 3,0 6,0 9,-1 3,-1 5,-2 8,-4z"/>
 </g>
</svg>
