<?xml version="1.0" encoding="UTF-8"?>
<!DOCTYPE svg PUBLIC "-//W3C//DTD SVG 1.1//EN" "http://www.w3.org/Graphics/SVG/1.1/DTD/svg11.dtd">
<!-- Creator: CorelDRAW Home & Student X7 -->
<svg xmlns="http://www.w3.org/2000/svg" xml:space="preserve" width="17.0324mm" height="15.7681mm" version="1.1" style="shape-rendering:geometricPrecision; text-rendering:geometricPrecision; image-rendering:optimizeQuality; fill-rule:evenodd; clip-rule:evenodd"
viewBox="0 0 308 285"
 xmlns:xlink="http://www.w3.org/1999/xlink">
 <defs>
  <style type="text/css">
   <![CDATA[
    .fil0 {fill:#009846}
    .fil1 {fill:#2B2A29;fill-rule:nonzero}
    .fil2 {fill:black;fill-rule:nonzero}
   ]]>
  </style>
 </defs>
 <g id="Ebene_x0020_1">
  <metadata id="CorelCorpID_0Corel-Layer"/>
  <path class="fil0" d="M32 14c41,0 81,0 119,0 38,0 77,0 118,0 0,7 1,13 5,18 4,6 10,8 18,9 -2,23 -6,46 -13,70 -6,24 -16,47 -27,68 -12,21 -26,40 -42,57 -17,16 -36,28 -57,35 -48,-21 -82,-51 -102,-91 -21,-40 -33,-87 -37,-139 5,0 10,-4 14,-10 3,-7 5,-13 4,-17z"/>
  <path class="fil1" d="M20 0c46,0 90,0 132,0 42,0 86,0 132,0 -1,8 1,14 5,20 5,6 11,9 19,10 -1,25 -6,51 -13,77 -8,27 -18,52 -31,76 -13,24 -28,45 -47,63 -18,18 -39,31 -62,39 -53,-23 -91,-56 -114,-101 -23,-45 -37,-96 -41,-154 6,0 11,-4 15,-12 5,-7 6,-13 5,-18zm31 29c1,4 -1,9 -4,15 -4,6 -8,9 -12,9 3,46 14,86 32,121 18,36 47,62 89,80 36,-13 65,-39 85,-81 20,-41 32,-81 34,-120 -13,-2 -20,-10 -19,-24 -35,0 -69,0 -103,0 -33,0 -67,0 -102,0zm3 21c3,0 5,2 5,4 0,3 -2,5 -5,5 -2,0 -3,-2 -3,-5 0,-2 1,-4 3,-4zm201 0c3,0 5,2 5,4 0,3 -2,5 -5,5 -2,0 -3,-2 -3,-5 0,-2 1,-4 3,-4zm-98 179c2,0 3,2 3,5 0,2 -1,3 -3,3 -3,0 -5,-1 -5,-3 0,-3 2,-5 5,-5z"/>
  <path class="fil2" d="M130 135c1,2 2,4 3,6 1,2 1,3 1,5 0,4 -2,7 -6,8 -4,2 -9,3 -17,3 -14,0 -25,-3 -34,-11 -9,-8 -13,-17 -13,-30 0,-6 2,-12 4,-18 3,-5 7,-10 13,-15 4,-3 10,-6 16,-8 6,-2 13,-3 20,-3 5,0 10,1 12,2 3,2 4,4 4,7 0,1 0,3 -1,5 -1,2 -2,4 -3,6 -2,-1 -5,-2 -7,-2 -2,-1 -5,-1 -8,-1 -8,0 -15,2 -20,7 -5,5 -8,11 -8,19 0,7 3,14 8,18 5,5 11,7 19,7 3,0 5,0 8,-1 3,-1 6,-2 9,-4z"/>
  <path id="1" class="fil2" d="M251 151c-3,2 -6,3 -8,4 -3,1 -5,1 -8,1 -2,0 -3,0 -5,-1 -1,0 -2,-2 -3,-3 0,-2 -1,-11 -1,-25 -1,-9 -1,-17 -1,-22 -4,8 -9,17 -14,27 -4,10 -7,16 -8,17 -1,1 -2,3 -3,3 -1,1 -2,2 -4,2 -1,0 -2,-1 -3,-1 -1,-1 -2,-2 -3,-3 -1,-2 -4,-8 -9,-18 -4,-10 -9,-19 -13,-27 -1,6 -1,14 -1,24 -1,13 -1,21 -2,23 -1,2 -2,3 -3,3 -1,1 -3,1 -5,1 -2,0 -4,0 -7,-1 -3,-1 -5,-2 -8,-4 3,-6 5,-15 6,-25 2,-10 3,-21 3,-35 0,-2 -1,-5 -1,-7 0,-2 -1,-4 -2,-5 2,-2 4,-3 7,-4 2,-1 4,-1 7,-1 3,0 6,1 9,3 2,2 6,7 10,16 1,2 3,6 5,10 6,14 10,21 11,21 1,0 4,-6 9,-17 3,-6 5,-11 7,-15 4,-7 7,-12 9,-15 3,-2 6,-3 9,-3 3,0 5,0 8,1 2,1 4,2 7,4 -2,2 -2,4 -3,7 0,3 -1,8 -1,13 0,10 1,20 3,29 1,9 3,17 6,23z"/>
 </g>
</svg>
