<?xml version="1.0" encoding="UTF-8"?>
<!DOCTYPE svg PUBLIC "-//W3C//DTD SVG 1.1//EN" "http://www.w3.org/Graphics/SVG/1.1/DTD/svg11.dtd">
<!-- Creator: CorelDRAW Home & Student X7 -->
<svg xmlns="http://www.w3.org/2000/svg" xml:space="preserve" width="15.0058mm" height="17.2901mm" version="1.1" style="shape-rendering:geometricPrecision; text-rendering:geometricPrecision; image-rendering:optimizeQuality; fill-rule:evenodd; clip-rule:evenodd"
viewBox="0 0 136 156"
 xmlns:xlink="http://www.w3.org/1999/xlink">
 <defs>
  <style type="text/css">
   <![CDATA[
    .fil0 {fill:#2B2A29}
    .fil2 {fill:#FFDD02}
    .fil3 {fill:#00A0E3}
    .fil4 {fill:white}
    .fil1 {fill:#2B2A29;fill-rule:nonzero}
    .fil5 {fill:black;fill-rule:nonzero}
   ]]>
  </style>
 </defs>
 <g id="Layer_x0020_1">
  <metadata id="CorelCorpID_0Corel-Layer"/>
  <g id="_733599432">
   <g>
    <path class="fil0" d="M136 4l-131 0 0 90c0,33 36,48 65,62 33,-17 66,-26 66,-62l0 -90z"/>
    <path id="1" class="fil1" d="M5 4l131 0 0 0 -131 0 -1 0 1 0zm-1 0l0 0 1 0 -1 0zm0 90l0 -90 1 0 0 90 0 0 -1 0zm66 62l0 0 0 0 -3 -1 -2 -1 -3 -2 -3 -1 -3 -1 -3 -2 -3 -1 -2 -2 -3 -1 -3 -1 -3 -2 -2 -2 -3 -1 -3 -2 -2 -2 -3 -1 -2 -2 -2 -2 -2 -2 -2 -2 -2 -2 -2 -3 -2 -2 -1 -2 -2 -3 -1 -2 -1 -3 -1 -2 -1 -3 0 -3 0 -3 -1 -3 1 0 0 3 0 3 1 3 0 2 1 3 1 3 1 2 2 3 1 2 2 2 2 2 2 3 2 2 2 2 2 2 3 1 2 2 3 2 2 2 3 1 2 2 3 1 3 2 3 1 3 2 2 1 3 1 3 2 3 1 3 1 2 2 3 1 0 0zm0 0l0 0 0 0 0 0zm65 -62l1 0 0 0 0 3 -1 3 0 3 -1 3 -1 3 -1 3 -1 2 -1 2 -1 3 -2 2 -1 2 -2 2 -2 2 -2 2 -2 2 -3 1 -2 2 -2 2 -3 1 -2 2 -3 1 -3 2 -3 1 -3 2 -2 1 -3 1 -3 2 -3 1 -4 2 -3 1 -3 2 -3 1 0 0 3 -1 3 -2 3 -1 3 -2 3 -1 3 -2 3 -1 3 -2 3 -1 3 -2 3 -1 2 -2 3 -1 3 -2 2 -1 2 -2 3 -2 2 -1 2 -2 2 -2 1 -2 2 -2 2 -2 1 -3 1 -2 1 -3 1 -2 1 -3 1 -3 0 -3 0 -3 0 -3 0 0zm1 -90l0 90 -1 0 0 -90 1 0 0 0zm0 0l0 0 0 0 0 0z"/>
   </g>
   <g>
    <path class="fil2" d="M131 0l-131 0 0 90c0,33 37,48 66,62 33,-17 65,-26 65,-62l0 -90z"/>
    <path id="1" class="fil1" d="M0 0l131 0 0 0 -131 0 0 0 0 0zm0 0l0 0 0 0 0 0zm0 90l0 -90 0 0 0 90 0 0 0 0zm66 62l0 0 0 0 -3 -1 -3 -1 -3 -2 -2 -1 -3 -1 -3 -2 -3 -1 -3 -2 -3 -1 -2 -2 -3 -1 -3 -2 -2 -1 -3 -2 -3 -2 -2 -2 -2 -1 -3 -2 -2 -2 -2 -2 -2 -2 -2 -3 -1 -2 -2 -2 -1 -3 -1 -2 -1 -3 -1 -3 -1 -2 -1 -3 0 -3 0 -3 0 0 0 3 1 3 0 3 1 2 1 3 1 3 1 2 1 3 2 2 2 2 1 2 2 2 2 2 3 2 2 2 2 2 3 2 2 2 3 1 2 2 3 2 3 1 3 2 2 1 3 2 3 1 3 1 3 2 2 1 3 1 3 2 3 1 0 0zm0 0l0 0 0 0 0 0zm65 -62l0 0 0 0 0 3 0 3 0 3 -1 3 -1 3 -1 2 -1 3 -1 2 -2 3 -1 2 -2 2 -2 2 -2 2 -2 2 -2 2 -2 1 -2 2 -3 2 -2 1 -3 2 -3 1 -2 2 -3 1 -3 1 -3 2 -3 1 -3 2 -3 1 -3 2 -3 1 -3 2 -3 1 0 0 3 -2 3 -1 3 -2 3 -1 3 -2 3 -1 3 -1 3 -2 3 -1 3 -2 2 -1 3 -2 3 -1 2 -2 3 -1 2 -2 2 -2 2 -2 2 -1 2 -2 2 -2 2 -2 1 -3 1 -2 2 -2 1 -3 1 -2 1 -3 0 -3 1 -3 0 -3 0 -3 0 0zm0 -90l0 90 0 0 0 -90 0 0 0 0zm0 0l0 0 0 0 0 0z"/>
   </g>
   <path class="fil1" d="M59 54c-1,1 -2,1 -3,1 -1,1 -2,1 -3,1 -1,0 -2,0 -2,-1 -1,0 -1,0 -1,-1 -1,-1 -1,-4 -1,-10 0,-4 0,-7 0,-9 -2,3 -4,7 -6,11 -2,4 -3,6 -3,7 -1,1 -1,1 -1,1 -1,1 -1,1 -2,1 -1,0 -1,0 -1,-1 -1,0 -1,0 -2,-1 0,0 -1,-3 -3,-7 -2,-4 -4,-8 -6,-11 0,3 0,6 0,10 0,5 0,8 -1,9 0,1 0,1 -1,2 0,0 -1,0 -2,0 -1,0 -2,0 -3,-1 -1,0 -2,0 -3,-1 1,-3 2,-6 3,-10 0,-4 1,-9 1,-15 0,-1 -1,-1 -1,-2 0,-1 0,-2 -1,-3 1,0 2,-1 3,-1 1,0 2,-1 3,-1 1,0 3,1 4,2 1,0 2,3 4,6 0,1 1,3 2,4 2,6 4,9 4,9 1,0 2,-3 4,-7 1,-2 2,-4 3,-6 1,-3 3,-5 4,-6 1,-1 2,-2 3,-2 1,0 2,1 3,1 1,0 2,1 3,2 0,0 -1,1 -1,3 0,1 0,2 0,5 0,4 0,8 1,11 0,4 1,7 2,10z"/>
   <path id="1" class="fil1" d="M87 48c1,1 1,2 1,3 0,0 0,1 0,1 0,2 0,3 -1,3 -1,1 -2,1 -5,1 -1,0 -4,0 -7,0 -3,-1 -5,-1 -7,-1 -1,0 -1,0 -2,0 -1,1 -1,1 -2,1 -1,-1 -1,-1 -1,-2 -1,-1 -1,-1 -1,-2 0,-1 0,-1 1,-2 0,-1 0,-1 1,-2 0,-1 2,-3 4,-6 2,-2 3,-4 4,-5 1,-2 2,-3 3,-5 1,-1 1,-2 1,-2 0,-1 0,-1 -1,-1 0,0 -1,0 -3,0 -2,0 -3,0 -5,0 -1,0 -2,1 -3,1 0,-1 -1,-1 -1,-2 0,-1 0,-1 0,-2 0,-1 0,-2 1,-2 1,-1 2,-1 4,-1 1,0 3,0 6,0 2,0 5,0 6,0 1,0 2,0 3,0 1,0 2,0 3,0 0,0 1,1 1,2 0,0 0,1 0,2 0,1 -2,5 -6,10 -2,2 -3,4 -4,6 -2,1 -3,3 -3,4 -1,1 -1,2 -1,2 0,0 0,0 1,1 0,0 1,0 2,0 3,0 5,0 7,-1 2,0 3,0 4,-1z"/>
   <path id="2" class="fil1" d="M102 42l8 0c-1,-2 -1,-3 -2,-5 0,-2 -1,-3 -2,-5 0,2 -1,3 -2,5 0,2 -1,3 -2,5zm23 11l0 0c-2,1 -3,2 -4,2 -1,1 -2,1 -2,1 -2,0 -3,-1 -4,-2 0,-1 -1,-3 -3,-7l-12 0c-1,2 -1,3 -1,4 -1,1 -1,2 -1,2 0,1 0,1 0,1 0,0 0,1 0,1 0,0 -1,0 -2,1 -1,0 -1,0 -2,0 -1,0 -2,0 -3,-1 0,0 -1,-1 -1,-2 0,-1 2,-5 5,-11 3,-6 5,-11 7,-16 0,0 0,-1 0,-1 -1,0 -1,-1 -1,-1 1,0 2,-1 3,-1 1,0 2,0 3,0 1,0 2,0 3,1 1,0 2,2 3,4 0,0 1,3 3,7 1,4 3,8 4,11 1,2 2,3 3,4 0,1 1,2 2,3z"/>
  </g>
  <g>
   <path class="fil0" d="M136 4l-131 0 0 90c0,33 36,48 65,62 33,-17 66,-26 66,-62l0 -90z"/>
   <path id="1" class="fil1" d="M5 4l131 0 0 0 -131 0 -1 0 1 0zm-1 0l0 0 1 0 -1 0zm0 90l0 -90 1 0 0 90 0 0 -1 0zm66 62l0 0 0 0 -3 -1 -2 -1 -3 -2 -3 -1 -3 -1 -3 -2 -3 -1 -2 -2 -3 -1 -3 -1 -3 -2 -2 -2 -3 -1 -3 -2 -2 -2 -3 -1 -2 -2 -2 -2 -2 -2 -2 -2 -2 -2 -2 -3 -2 -2 -1 -2 -2 -3 -1 -2 -1 -3 -1 -2 -1 -3 0 -3 0 -3 -1 -3 1 0 0 3 0 3 1 3 0 2 1 3 1 3 1 2 2 3 1 2 2 2 2 2 2 3 2 2 2 2 2 2 3 1 2 2 3 2 2 2 3 1 2 2 3 1 3 2 3 1 3 2 2 1 3 1 3 2 3 1 3 1 2 2 3 1 0 0zm0 0l0 0 0 0 0 0zm65 -62l1 0 0 0 0 3 -1 3 0 3 -1 3 -1 3 -1 3 -1 2 -1 2 -1 3 -2 2 -1 2 -2 2 -2 2 -2 2 -2 2 -3 1 -2 2 -2 2 -3 1 -2 2 -3 1 -3 2 -3 1 -3 2 -2 1 -3 1 -3 2 -3 1 -4 2 -3 1 -3 2 -3 1 0 0 3 -1 3 -2 3 -1 3 -2 3 -1 3 -2 3 -1 3 -2 3 -1 3 -2 3 -1 2 -2 3 -1 3 -2 2 -1 2 -2 3 -2 2 -1 2 -2 2 -2 1 -2 2 -2 2 -2 1 -3 1 -2 1 -3 1 -2 1 -3 1 -3 0 -3 0 -3 0 -3 0 0zm1 -90l0 90 -1 0 0 -90 1 0 0 0zm0 0l0 0 0 0 0 0z"/>
  </g>
  <g>
   <path class="fil3" d="M131 0l-131 0 0 90c0,33 37,48 66,62 33,-17 65,-26 65,-62l0 -90z"/>
   <path id="1" class="fil1" d="M0 0l131 0 0 0 -131 0 0 0 0 0zm0 0l0 0 0 0 0 0zm0 90l0 -90 0 0 0 90 0 0 0 0zm66 62l0 0 0 0 -3 -1 -3 -1 -3 -2 -2 -1 -3 -1 -3 -2 -3 -1 -3 -2 -3 -1 -2 -2 -3 -1 -3 -2 -2 -1 -3 -2 -3 -2 -2 -2 -2 -1 -3 -2 -2 -2 -2 -2 -2 -2 -2 -3 -1 -2 -2 -2 -1 -3 -1 -2 -1 -3 -1 -3 -1 -2 -1 -3 0 -3 0 -3 0 0 0 3 1 3 0 3 1 2 1 3 1 3 1 2 1 3 2 2 2 2 1 2 2 2 2 2 3 2 2 2 2 2 3 2 2 2 3 1 2 2 3 2 3 1 3 2 2 1 3 2 3 1 3 1 3 2 2 1 3 1 3 2 3 1 0 0zm0 0l0 0 0 0 0 0zm65 -62l0 0 0 0 0 3 0 3 0 3 -1 3 -1 3 -1 2 -1 3 -1 2 -2 3 -1 2 -2 2 -2 2 -2 2 -2 2 -2 2 -2 1 -2 2 -3 2 -2 1 -3 2 -3 1 -2 2 -3 1 -3 1 -3 2 -3 1 -3 2 -3 1 -3 2 -3 1 -3 2 -3 1 0 0 3 -2 3 -1 3 -2 3 -1 3 -2 3 -1 3 -1 3 -2 3 -1 3 -2 2 -1 3 -2 3 -1 2 -2 3 -1 2 -2 2 -2 2 -2 2 -1 2 -2 2 -2 2 -2 1 -3 1 -2 2 -2 1 -3 1 -2 1 -3 0 -3 1 -3 0 -3 0 -3 0 0zm0 -90l0 90 0 0 0 -90 0 0 0 0zm0 0l0 0 0 0 0 0z"/>
  </g>
  <g>
   <path class="fil4" d="M131 0l-65 0 0 152c33,-17 65,-26 65,-62l0 -90z"/>
   <path id="1" class="fil1" d="M66 0l65 0 0 0 -65 0 -1 0 1 0zm-1 0l0 0 1 0 -1 0zm0 152l0 -152 1 0 0 152 0 0 -1 0zm1 0l-1 0 0 0 1 0zm65 -62l0 0 0 0 0 3 0 3 -1 3 0 3 -1 3 -1 2 -1 3 -1 2 -2 3 -1 2 -2 2 -2 2 -2 2 -2 2 -2 2 -2 1 -2 2 -3 2 -2 1 -3 2 -3 1 -2 2 -3 1 -3 1 -3 2 -3 1 -3 2 -3 1 -3 2 -3 1 -3 2 -3 1 0 0 3 -2 3 -1 3 -2 3 -1 3 -2 3 -1 3 -1 3 -2 3 -1 3 -2 2 -1 3 -2 3 -1 2 -2 2 -1 3 -2 2 -2 2 -2 2 -1 2 -2 2 -2 2 -2 1 -3 1 -2 2 -2 1 -3 1 -2 0 -3 1 -3 1 -3 0 -3 0 -3 0 0zm0 -90l0 90 0 0 0 -90 0 0 0 0zm0 0l0 0 0 0 0 0z"/>
  </g>
  <path class="fil5" d="M19 50c1,0 2,0 3,0 1,0 2,0 3,0 2,0 4,0 7,0 2,0 4,0 4,0 2,0 3,0 3,0 1,1 1,1 1,3 0,0 0,1 0,1 0,1 0,2 -1,3 -1,-1 -2,-1 -3,-1 -1,0 -2,0 -4,0 0,0 -1,0 -2,0 0,0 -1,0 -2,0 0,0 0,2 0,3 0,2 -1,3 -1,4 1,0 1,0 1,0 1,0 2,1 3,1 2,0 3,-1 4,-1 1,0 2,0 3,0 0,0 0,1 1,1 0,1 0,1 0,2 0,1 -1,2 -1,2 -1,1 -2,1 -4,1 0,0 0,0 -1,0 -2,0 -4,0 -6,0 0,3 0,6 1,8 0,2 0,3 1,5 -1,0 -2,0 -3,1 -1,0 -2,0 -3,0 -1,0 -2,0 -3,-1 -1,-1 -1,-2 -1,-3 0,-1 0,-3 0,-7 0,-4 1,-7 1,-11 0,-2 0,-4 -1,-6 0,-2 0,-4 0,-5z"/>
  <path id="1" class="fil5" d="M61 74c0,-1 0,-1 0,-2 0,-1 0,-1 0,-2 0,-1 0,-2 0,-2 0,-1 0,-1 0,-2 -1,0 -2,-1 -2,-1 -1,0 -2,0 -2,0 -2,0 -4,1 -5,2 -1,1 -1,3 -1,5 0,1 0,3 1,4 1,1 2,1 3,1 1,0 2,0 3,-1 1,0 2,-1 3,-2zm8 8l0 0c-1,0 -2,0 -3,1 0,0 -1,0 -2,0 -1,0 -2,0 -2,-1 -1,0 -1,-1 -1,-2 0,-1 0,-1 0,-1 0,0 0,0 0,0 -1,1 -2,2 -3,3 -2,1 -3,1 -5,1 -3,0 -5,-1 -7,-3 -2,-2 -3,-5 -3,-8 0,-2 0,-3 1,-5 1,-1 1,-3 3,-4 1,-1 2,-2 4,-3 1,0 3,-1 4,-1 1,0 2,1 3,1 1,0 2,0 3,1l0 -1c0,-3 0,-5 0,-6 -1,-2 -1,-3 -1,-4 1,0 1,-1 2,-1 1,0 2,0 3,0 1,0 2,0 2,1 1,0 1,1 1,3 0,0 0,2 0,6 0,4 0,8 0,11 0,3 0,6 0,8 0,1 0,3 1,4z"/>
  <path id="2" class="fil5" d="M73 76c1,0 2,0 3,1 0,0 1,0 2,0 2,0 3,0 4,-1 1,0 1,-1 1,-2 0,-2 -1,-3 -4,-5 0,0 0,0 0,0 -3,-2 -5,-3 -5,-4 -1,-1 -2,-3 -2,-4 0,-1 1,-3 1,-4 1,-1 2,-2 2,-3 2,-2 4,-3 5,-4 2,0 4,-1 7,-1 1,0 2,1 3,1 0,1 1,1 1,2 0,1 -1,2 -1,3 0,0 0,1 -1,2 -1,0 -1,-1 -2,-1 -1,0 -1,0 -2,0 -2,0 -3,0 -4,1 -1,0 -1,1 -1,2 0,1 1,3 4,5 1,0 1,0 1,1 2,1 3,2 4,3 1,1 1,3 1,4 0,2 0,3 -1,4 0,2 -1,3 -2,4 -2,1 -3,2 -5,3 -2,0 -3,0 -5,0 -2,0 -3,0 -4,0 -1,-1 -1,-2 -1,-3 0,-1 0,-2 0,-2 0,-1 1,-2 1,-2z"/>
  <path id="3" class="fil5" d="M104 77c0,0 0,0 0,0 1,0 1,0 2,0 2,0 3,0 4,-1 1,-1 2,-2 2,-3 0,-2 -1,-3 -2,-3 -1,-1 -2,-1 -4,-1 -1,0 -1,0 -2,0l0 0 0 2c0,1 0,2 0,4 0,1 0,1 0,2zm0 -13c0,0 0,0 0,0 1,0 1,0 2,0 2,0 3,-1 4,-1 1,-1 2,-2 2,-4 0,-1 -1,-2 -2,-3 -1,-1 -2,-1 -4,-1 0,0 0,0 -1,0 0,0 -1,0 -1,0 0,1 0,3 0,4 0,2 0,3 0,5zm9 2c2,1 4,1 5,3 2,1 2,2 2,4 0,3 -1,5 -4,7 -3,2 -7,3 -12,3 -3,0 -6,0 -7,-1 -1,-1 -1,-2 -1,-4 0,0 0,-2 0,-6 0,-4 0,-7 0,-10 0,-3 0,-5 0,-7 0,-2 -1,-4 -1,-5 3,0 6,0 9,-1 1,0 2,0 2,0 5,0 8,1 11,3 2,1 3,4 3,6 0,2 0,4 -2,5 -1,1 -3,2 -5,3z"/>
 </g>
</svg>
