<svg version="1.1" id="Layer_1" xmlns="http://www.w3.org/2000/svg" xmlns:xlink="http://www.w3.org/1999/xlink" x="0px" y="0px"
	 width="100%" viewBox="0 0 214 246" enable-background="new 0 0 214 246" xml:space="preserve">
<path fill="#AE4A84" opacity="1.000000" stroke="none"
	d="
M1.000000,152.000000
	C1.000000,148.969406 1.000000,145.938812 1.355135,142.217651
	C1.808666,139.541885 1.990769,137.556824 1.993161,135.571518
	C2.046726,91.130371 2.080513,46.689194 2.575422,2.187873
	C70.039688,2.101564 137.046570,2.074051 204.053452,2.065520
	C204.845367,2.065419 205.637299,2.310382 206.593628,2.468059
	C206.787613,4.101440 206.960480,5.557216 207.075272,7.477606
	C207.001099,52.237206 207.036087,96.532349 206.903381,140.826981
	C206.887039,146.277588 206.356186,151.792633 205.410339,157.162735
	C201.778488,177.782700 190.116562,193.538467 172.631989,203.853729
	C151.350494,216.409012 128.965302,227.098465 106.977417,238.439667
	C105.611176,239.144348 103.282982,239.061584 101.847137,238.391739
	C81.073372,228.700424 60.160931,219.255753 41.146832,206.226242
	C39.625992,205.184082 37.681774,204.759750 35.964214,204.027374
	C35.994129,204.006439 35.972492,204.076187 36.004280,203.751190
	C35.665356,203.293243 35.294640,203.160278 34.957439,203.018311
	C34.990955,203.009277 34.975666,203.076996 34.993851,202.762787
	C34.649746,202.304932 34.287453,202.161270 33.959000,202.012421
	C33.992840,202.007233 33.983700,202.075089 33.975266,201.761765
	C33.600613,201.303192 33.234394,201.157944 32.556396,200.898071
	C27.298653,195.838486 21.897078,191.260010 17.538870,185.842239
	C13.437181,180.743347 9.964279,174.989380 7.089050,169.097000
	C4.452650,163.694046 2.983469,157.721558 1.000000,152.000000
M24.208042,130.432266
	C24.526455,130.584579 24.844870,130.736893 25.056973,130.823746
	C25.056973,130.823746 25.142408,130.732712 25.272030,131.451492
	C30.862934,133.579742 36.314678,136.918228 42.074154,137.580475
	C53.526329,138.897293 63.700527,139.069824 70.023476,127.688469
	C72.313393,129.508209 74.603317,131.327957 76.954292,133.905716
	C77.716560,137.967484 81.202690,137.816162 83.969040,137.914703
	C94.142746,138.277161 101.797745,133.829025 106.977089,125.778496
	C106.760246,130.602325 109.874313,132.299896 113.953400,133.906082
	C115.627647,135.216431 117.122047,137.230591 119.007988,137.712524
	C126.286110,139.572357 137.718948,134.755905 141.746078,128.358688
	C146.419067,120.935471 147.247528,111.094643 136.673157,105.457306
	C133.467041,102.637863 130.260910,99.818420 127.028152,96.183456
	C126.382553,91.982498 128.764359,89.982544 132.423264,89.412506
	C134.980942,89.014030 137.659119,89.445152 140.249496,89.177139
	C141.596100,89.037804 143.416260,88.563057 144.084015,87.593483
	C147.690857,82.356400 146.439972,79.235115 139.949814,76.301506
	C137.577423,74.865654 135.227188,72.245323 132.828766,72.200417
	C122.819733,72.013008 114.850197,76.233635 109.264008,84.481598
	C109.293053,80.306686 107.446167,77.662910 102.949829,76.301514
	C100.747360,74.866806 98.609810,72.328758 96.330818,72.194656
	C87.936699,71.700737 80.652161,74.806648 75.203690,81.344315
	C68.656204,89.200706 69.694962,97.940254 77.723083,104.354271
	C80.185974,106.321960 83.176750,107.798454 85.159088,110.147034
	C86.896179,112.205048 89.177917,116.280418 88.345535,117.494392
	C86.798553,119.750557 83.277512,120.979774 80.344566,121.833397
	C78.653946,122.325455 76.518127,121.129623 74.558441,120.916199
	C73.425453,120.792809 72.244263,121.111977 71.012520,120.292603
	C71.001404,117.965645 71.256149,115.599403 70.919456,113.320557
	C70.355957,109.506706 69.580650,105.619843 64.225731,104.539864
	C60.706078,98.840652 55.414555,98.411850 49.184467,102.594398
	C49.184467,108.723808 49.184467,114.203255 49.184467,119.682701
	C43.259689,121.700714 37.477463,121.776237 31.915146,117.573517
	C31.582531,116.466431 31.253941,115.358109 30.916689,114.252441
	C26.407509,99.469002 38.673710,86.147186 53.782379,89.419876
	C58.232895,90.383904 60.170731,89.070564 60.903900,84.593369
	C61.525398,80.798111 59.523438,78.475319 54.973057,77.199333
	C54.343033,73.463043 51.375614,72.390366 48.372589,72.295334
	C44.096363,72.160019 39.652050,72.131897 35.534889,73.120918
	C21.503292,76.491600 11.716478,84.746597 8.659616,99.323257
	C5.954694,112.221703 11.063190,121.965332 22.333824,129.421295
	C22.913218,129.607040 23.492611,129.792786 24.005888,129.996658
	C24.005888,129.996658 23.998472,129.928497 24.208042,130.432266
M190.859695,81.651581
	C190.719116,81.381027 190.515350,81.172089 189.814865,80.477875
	C186.228561,75.463837 181.005096,73.358070 175.186768,73.166481
	C165.953659,72.862442 156.703186,73.085373 147.815781,73.085373
	C148.266266,80.657791 148.958740,86.778519 148.920639,92.894691
	C148.856552,103.187469 148.331772,113.477478 147.994019,123.768433
	C147.835571,128.596344 149.543259,131.872040 154.954941,132.899521
	C156.491211,138.029099 160.629486,137.307327 164.300720,136.680664
	C171.288681,135.487854 171.934845,134.201096 170.683884,127.357742
	C170.211502,124.773521 170.291489,122.092964 170.008102,119.468369
	C169.674347,116.377182 171.408447,115.764374 174.517090,116.338867
	C179.981186,121.928734 185.445267,127.518593 191.052078,133.800964
	C196.428558,139.768219 201.243347,139.068771 204.837875,132.306564
	C207.824768,126.687492 203.552505,125.282295 200.144531,122.364357
	C195.655151,118.318497 191.165787,114.272644 187.410828,110.047440
	C195.016281,106.763611 198.297195,100.628235 197.875259,92.729256
	C197.631760,88.170486 196.439240,83.502655 190.995529,82.006042
	C190.995529,82.006042 190.991608,82.074043 190.859695,81.651581
M176.089828,55.821606
	C179.106339,47.128357 184.742722,41.100563 194.200226,38.593483
	C180.803909,35.145134 175.955383,25.255480 173.425964,13.160164
	C170.732117,26.047619 165.295334,36.203686 150.074905,38.341282
	C163.660477,41.698704 165.188965,43.471539 173.584930,64.809364
	C174.401917,61.908241 175.152817,59.241821 176.089828,55.821606
M58.896885,184.451187
	C61.565460,182.647461 64.234039,180.843719 66.883774,179.052734
	C59.363239,177.490784 55.761139,171.671112 53.774570,164.066238
	C51.862354,171.804337 47.986343,177.324524 38.617741,179.459412
	C48.350494,181.033432 51.260323,187.297394 53.601082,194.525955
	C55.478184,190.812820 56.944157,187.912949 58.896885,184.451187
z"/>
<path fill="#2C2A2A" opacity="1.000000" stroke="none"
	d="
M215.000000,158.531342
	C213.349396,164.595261 211.895737,170.257889 210.009171,175.772415
	C205.373962,189.321426 196.260147,199.447174 185.078445,208.012909
	C163.485855,224.553925 138.011627,233.870819 114.106613,246.652924
	C112.611107,247.000000 111.222221,247.000000 109.416672,247.000000
	C96.947945,240.994247 84.543083,235.592957 72.938980,228.819763
	C60.294186,221.439102 48.392086,212.786026 36.050259,204.367981
	C37.681774,204.759750 39.625992,205.184082 41.146832,206.226242
	C60.160931,219.255753 81.073372,228.700424 101.847137,238.391739
	C103.282982,239.061584 105.611176,239.144348 106.977417,238.439667
	C128.965302,227.098465 151.350494,216.409012 172.631989,203.853729
	C190.116562,193.538467 201.778488,177.782700 205.410339,157.162735
	C206.356186,151.792633 206.887039,146.277588 206.903381,140.826981
	C207.036087,96.532349 207.001099,52.237206 207.318939,7.467659
	C207.620682,6.993098 208.107956,6.956869 208.537109,6.976320
	C210.977509,6.997181 212.988754,6.998590 215.000000,7.000000
	C215.000000,57.354229 215.000000,107.708458 215.000000,158.531342
z"/>
<path fill="#382C32" opacity="1.000000" stroke="none"
	d="
M208.107956,6.956869
	C208.107956,6.956869 207.620682,6.993098 207.377014,7.003045
	C206.960480,5.557216 206.787613,4.101440 206.593628,2.468059
	C205.637299,2.310382 204.845367,2.065419 204.053452,2.065520
	C137.046570,2.074051 70.039688,2.101564 2.536054,1.876253
	C2.026203,1.416520 2.013101,1.208260 2.000000,1.000000
	C70.354225,1.000000 138.708450,1.000000 207.530975,1.425890
	C208.035507,3.553477 208.071732,5.255173 208.107956,6.956869
z"/>
<path fill="#342C2F" opacity="1.000000" stroke="none"
	d="
M1.500000,1.000000
	C2.013101,1.208260 2.026203,1.416520 2.078672,1.936401
	C2.080513,46.689194 2.046726,91.130371 1.993161,135.571518
	C1.990769,137.556824 1.808666,139.541885 1.355135,141.763535
	C1.000000,95.000000 1.000000,48.000000 1.500000,1.000000
z"/>
<path fill="#FFFFFF" opacity="1.000000" stroke="none"
	d="
M208.537109,6.976320
	C208.071732,5.255173 208.035507,3.553477 207.999634,1.425890
	C210.240616,1.000000 212.481247,1.000000 215.000000,1.000000
	C215.000000,2.663581 215.000000,4.333461 215.000000,6.501670
	C212.988754,6.998590 210.977509,6.997181 208.537109,6.976320
z"/>
<path fill="#FDFCFC" opacity="1.000000" stroke="none"
	d="
M190.909348,133.108459
	C185.445267,127.518593 179.981186,121.928734 174.122849,115.836716
	C171.399551,112.339676 168.806046,109.987579 164.353745,111.498955
	C164.353745,114.508347 164.208923,117.456802 164.394394,120.384323
	C164.580307,123.318916 165.095825,126.232620 165.556473,129.861435
	C161.878433,130.649323 158.389908,131.396622 154.901398,132.143921
	C149.543259,131.872040 147.835571,128.596344 147.994019,123.768433
	C148.331772,113.477478 148.856552,103.187469 148.920639,92.894691
	C148.958740,86.778519 148.266266,80.657791 147.815781,73.085373
	C156.703186,73.085373 165.953659,72.862442 175.186768,73.166481
	C181.005096,73.358070 186.228561,75.463837 190.055969,80.983368
	C190.440109,81.788940 190.671631,81.984001 190.991608,82.074043
	C190.991608,82.074043 190.995529,82.006042 190.985962,82.424789
	C190.804977,87.339317 191.765732,92.305107 190.148514,96.200676
	C188.481247,100.216888 184.304001,103.191116 181.159409,106.694199
	C182.599060,107.616020 184.637741,108.921402 186.676407,110.226784
	C191.165787,114.272644 195.655151,118.318497 200.088104,123.063560
	C198.456329,128.308395 196.637726,132.616592 190.909348,133.108459
M175.898926,87.434372
	C173.160522,86.290070 170.494171,84.822594 167.642395,84.186790
	C166.715912,83.980232 164.356644,85.877174 164.277130,86.934181
	C163.909790,91.817490 164.114975,96.743874 164.114975,102.339989
	C166.361053,101.838638 168.189346,101.430534 170.741745,101.008133
	C176.651001,97.886169 178.105743,94.373138 175.898926,87.434372
z"/>
<path fill="#FDFCFC" opacity="1.000000" stroke="none"
	d="
M22.018219,128.880661
	C11.063190,121.965332 5.954694,112.221703 8.659616,99.323257
	C11.716478,84.746597 21.503292,76.491600 35.534889,73.120918
	C39.652050,72.131897 44.096363,72.160019 48.372589,72.295334
	C51.375614,72.390366 54.343033,73.463043 54.979530,77.945740
	C54.255020,83.600853 52.801170,86.004089 46.634705,84.370865
	C37.711910,82.007599 28.406916,87.622314 25.234663,95.716881
	C21.815044,104.442642 24.528509,113.619110 31.947256,118.417702
	C37.477463,121.776237 43.259689,121.700714 49.184467,119.682701
	C49.184467,114.203255 49.184467,108.723808 49.184467,102.594398
	C55.414555,98.411850 60.706078,98.840652 64.454559,105.276535
	C64.747124,108.830467 65.064377,111.668961 64.830658,114.461334
	C63.826382,126.460098 59.667755,131.489609 47.736385,132.432297
	C40.296261,133.020111 32.679756,131.375488 25.142408,130.732727
	C25.142408,130.732712 25.056973,130.823746 25.114601,130.545746
	C24.780975,130.154678 24.389725,130.041580 23.998472,129.928497
	C23.998472,129.928497 24.005888,129.996658 23.866421,129.735611
	C23.157375,129.276596 22.587797,129.078629 22.018219,128.880661
z"/>
<path fill="#FCFBFC" opacity="1.000000" stroke="none"
	d="
M76.893234,133.147690
	C74.603317,131.327957 72.313393,129.508209 69.991318,126.971848
	C70.334366,124.580811 70.709572,122.906395 71.084770,121.231972
	C72.244263,121.111977 73.425453,120.792809 74.558441,120.916199
	C76.518127,121.129623 78.653946,122.325455 80.344566,121.833397
	C83.277512,120.979774 86.798553,119.750557 88.345535,117.494392
	C89.177917,116.280418 86.896179,112.205048 85.159088,110.147034
	C83.176750,107.798454 80.185974,106.321960 77.723083,104.354271
	C69.694962,97.940254 68.656204,89.200706 75.203690,81.344315
	C80.652161,74.806648 87.936699,71.700737 96.330818,72.194656
	C98.609810,72.328758 100.747360,74.866806 102.985336,77.027809
	C102.329727,82.690483 100.385551,85.401840 94.563553,84.165375
	C90.712021,83.347397 85.876617,83.485222 84.365097,88.167931
	C82.930489,92.612358 86.942245,94.815712 90.240944,97.287369
	C93.657898,100.357330 96.902740,103.148033 100.245705,106.307266
	C103.832352,114.148300 101.565521,120.457947 96.254494,126.019142
	C90.998116,131.523132 84.196182,133.075027 76.893234,133.147690
z"/>
<path fill="#FCFBFC" opacity="1.000000" stroke="none"
	d="
M113.893639,133.147842
	C109.874313,132.299896 106.760246,130.602325 107.060593,125.084793
	C107.456367,123.341019 107.768631,122.290955 108.374863,121.028412
	C109.856255,120.913773 111.044914,120.998650 112.230843,121.112106
	C114.838081,121.361572 117.594810,122.262497 120.004959,121.691719
	C122.118500,121.191200 124.709145,119.396484 125.468651,117.518196
	C126.093590,115.972694 124.795815,113.116051 123.528702,111.474663
	C121.956200,109.437691 119.692825,107.799355 117.456039,106.434219
	C109.575806,101.624893 106.025711,95.179749 109.256180,85.863876
	C109.632179,85.587883 109.714615,85.362114 109.665810,85.088501
	C114.850197,76.233635 122.819733,72.013008 132.828766,72.200417
	C135.227188,72.245323 137.577423,74.865654 139.985321,77.027802
	C139.329269,82.685249 137.393768,85.405228 131.569366,84.165550
	C127.719643,83.346169 122.887253,83.484047 121.367622,88.157280
	C119.923149,92.599380 123.931366,94.805199 127.054794,96.998978
	C130.260910,99.818420 133.467041,102.637863 137.010941,106.067963
	C140.828094,114.150810 138.565887,120.460709 133.253448,126.020927
	C127.996460,131.523117 121.195847,133.075424 113.893639,133.147842
z"/>
<path fill="#FCFAFB" opacity="1.000000" stroke="none"
	d="
M175.996765,56.198502
	C175.152817,59.241821 174.401917,61.908241 173.584930,64.809364
	C165.188965,43.471539 163.660477,41.698704 150.074905,38.341282
	C165.295334,36.203686 170.732117,26.047619 173.425964,13.160164
	C175.955383,25.255480 180.803909,35.145134 194.200226,38.593483
	C184.742722,41.100563 179.106339,47.128357 175.996765,56.198502
z"/>
<path fill="#766375" opacity="1.000000" stroke="none"
	d="
M31.931202,117.995605
	C24.528509,113.619110 21.815044,104.442642 25.234663,95.716881
	C28.406916,87.622314 37.711910,82.007599 46.634705,84.370865
	C52.801170,86.004089 54.255020,83.600853 55.066757,78.303314
	C59.523438,78.475319 61.525398,80.798111 60.903900,84.593369
	C60.170731,89.070564 58.232895,90.383904 53.782379,89.419876
	C38.673710,86.147186 26.407509,99.469002 30.916689,114.252441
	C31.253941,115.358109 31.582531,116.466431 31.931202,117.995605
z"/>
<path fill="#766275" opacity="1.000000" stroke="none"
	d="
M71.048645,120.762283
	C70.709572,122.906395 70.334366,124.580811 69.894753,126.623657
	C63.700527,139.069824 53.526329,138.897293 42.074154,137.580475
	C36.314678,136.918228 30.862934,133.579742 25.207218,131.092102
	C32.679756,131.375488 40.296261,133.020111 47.736385,132.432297
	C59.667755,131.489609 63.826382,126.460098 64.830658,114.461334
	C65.064377,111.668961 64.747124,108.830467 64.640656,105.558716
	C69.580650,105.619843 70.355957,109.506706 70.919456,113.320557
	C71.256149,115.599403 71.001404,117.965645 71.048645,120.762283
z"/>
<path fill="#766174" opacity="1.000000" stroke="none"
	d="
M108.080894,121.240883
	C107.768631,122.290955 107.456367,123.341019 107.017220,124.696045
	C101.797745,133.829025 94.142746,138.277161 83.969040,137.914703
	C81.202690,137.816162 77.716560,137.967484 76.923767,133.526703
	C84.196182,133.075027 90.998116,131.523132 96.254494,126.019142
	C101.565521,120.457947 103.832352,114.148300 100.582153,106.370163
	C106.757294,109.440933 108.462921,114.841537 108.080894,121.240883
z"/>
<path fill="#766174" opacity="1.000000" stroke="none"
	d="
M113.923523,133.526962
	C121.195847,133.075424 127.996460,131.523117 133.253448,126.020927
	C138.565887,120.460709 140.828094,114.150810 137.250427,106.305504
	C147.247528,111.094643 146.419067,120.935471 141.746078,128.358688
	C137.718948,134.755905 126.286110,139.572357 119.007988,137.712524
	C117.122047,137.230591 115.627647,135.216431 113.923523,133.526962
z"/>
<path fill="#FBF7F9" opacity="1.000000" stroke="none"
	d="
M58.653507,184.732132
	C56.944157,187.912949 55.478184,190.812820 53.601082,194.525955
	C51.260323,187.297394 48.350494,181.033432 38.617741,179.459412
	C47.986343,177.324524 51.862354,171.804337 53.774570,164.066238
	C55.761139,171.671112 59.363239,177.490784 66.883774,179.052734
	C64.234039,180.843719 61.565460,182.647461 58.653507,184.732132
z"/>
<path fill="#776476" opacity="1.000000" stroke="none"
	d="
M154.928162,132.521729
	C158.389908,131.396622 161.878433,130.649323 165.556473,129.861435
	C165.095825,126.232620 164.580307,123.318916 164.394394,120.384323
	C164.208923,117.456802 164.353745,114.508347 164.353745,111.498955
	C168.806046,109.987579 171.399551,112.339676 173.835510,115.661087
	C171.408447,115.764374 169.674347,116.377182 170.008102,119.468369
	C170.291489,122.092964 170.211502,124.773521 170.683884,127.357742
	C171.934845,134.201096 171.288681,135.487854 164.300720,136.680664
	C160.629486,137.307327 156.491211,138.029099 154.928162,132.521729
z"/>
<path fill="#766375" opacity="1.000000" stroke="none"
	d="
M187.043610,110.137115
	C184.637741,108.921402 182.599060,107.616020 181.159409,106.694199
	C184.304001,103.191116 188.481247,100.216888 190.148514,96.200676
	C191.765732,92.305107 190.804977,87.339317 190.952332,82.430229
	C196.439240,83.502655 197.631760,88.170486 197.875259,92.729256
	C198.297195,100.628235 195.016281,106.763611 187.043610,110.137115
z"/>
<path fill="#766375" opacity="1.000000" stroke="none"
	d="
M109.464905,84.785049
	C109.714615,85.362114 109.632179,85.587883 108.931595,86.007858
	C106.880547,88.894371 104.999474,89.662796 101.624191,89.184334
	C93.249817,87.997223 90.081497,90.478874 90.068825,97.008125
	C86.942245,94.815712 82.930489,92.612358 84.365097,88.167931
	C85.876617,83.485222 90.712021,83.347397 94.563553,84.165375
	C100.385551,85.401840 102.329727,82.690483 103.092155,77.380676
	C107.446167,77.662910 109.293053,80.306686 109.464905,84.785049
z"/>
<path fill="#766375" opacity="1.000000" stroke="none"
	d="
M127.041473,96.591217
	C123.931366,94.805199 119.923149,92.599380 121.367622,88.157280
	C122.887253,83.484047 127.719643,83.346169 131.569366,84.165550
	C137.393768,85.405228 139.329269,82.685249 140.092133,77.380676
	C146.439972,79.235115 147.690857,82.356400 144.084015,87.593483
	C143.416260,88.563057 141.596100,89.037804 140.249496,89.177139
	C137.659119,89.445152 134.980942,89.014030 132.423264,89.412506
	C128.764359,89.982544 126.382553,91.982498 127.041473,96.591217
z"/>
<path fill="#766175" opacity="1.000000" stroke="none"
	d="
M190.980713,133.454712
	C196.637726,132.616592 198.456329,128.308395 200.164871,123.420380
	C203.552505,125.282295 207.824768,126.687492 204.837875,132.306564
	C201.243347,139.068771 196.428558,139.768219 190.980713,133.454712
z"/>
<path fill="#766275" opacity="1.000000" stroke="none"
	d="
M22.176022,129.150970
	C22.587797,129.078629 23.157375,129.276596 23.899479,129.726547
	C23.492611,129.792786 22.913218,129.607040 22.176022,129.150970
z"/>
<path fill="#766275" opacity="1.000000" stroke="none"
	d="
M24.103256,130.180389
	C24.389725,130.041580 24.780975,130.154678 25.167755,130.578491
	C24.844870,130.736893 24.526455,130.584579 24.103256,130.180389
z"/>
<path fill="#766375" opacity="1.000000" stroke="none"
	d="
M190.925659,81.862808
	C190.671631,81.984001 190.440109,81.788940 190.272736,81.256813
	C190.515350,81.172089 190.719116,81.381027 190.925659,81.862808
z"/>
<path fill="#2C2A2A" opacity="1.000000" stroke="none"
	d="
M33.975266,201.761749
	C33.674519,201.895355 33.365334,201.715637 32.962158,201.274292
	C33.234394,201.157944 33.600613,201.303192 33.975266,201.761749
z"/>
<path fill="#2C2A2A" opacity="1.000000" stroke="none"
	d="
M34.993851,202.762802
	C34.670937,202.900558 34.366211,202.724121 33.993324,202.282654
	C34.287453,202.161270 34.649746,202.304932 34.993851,202.762802
z"/>
<path fill="#2C2A2A" opacity="1.000000" stroke="none"
	d="
M36.004280,203.751190
	C35.669659,203.901382 35.366825,203.726578 34.993958,203.289551
	C35.294640,203.160278 35.665356,203.293243 36.004280,203.751190
z"/>
<path fill="#756475" opacity="1.000000" stroke="none"
	d="
M170.017639,101.022438
	C168.189346,101.430534 166.361053,101.838638 164.114975,102.339989
	C164.114975,96.743874 163.909790,91.817490 164.277130,86.934181
	C164.356644,85.877174 166.715912,83.980232 167.642395,84.186790
	C170.494171,84.822594 173.160522,86.290070 175.691971,88.043388
	C171.079636,88.615303 169.387680,90.780060 169.975281,95.111511
	C170.237991,97.048096 170.018372,99.050117 170.017639,101.022438
z"/>
<path fill="#AE5087" opacity="1.000000" stroke="none"
	d="
M170.379700,101.015289
	C170.018372,99.050117 170.237991,97.048096 169.975281,95.111511
	C169.387680,90.780060 171.079636,88.615303 175.772736,88.408272
	C178.105743,94.373138 176.651001,97.886169 170.379700,101.015289
z"/>
<path fill="#AF4D86" opacity="1.000000" stroke="none"
	d="
M90.240944,97.287369
	C90.081497,90.478874 93.249817,87.997223 101.624191,89.184334
	C104.999474,89.662796 106.880547,88.894371 108.769272,86.105919
	C106.025711,95.179749 109.575806,101.624893 117.456039,106.434219
	C119.692825,107.799355 121.956200,109.437691 123.528702,111.474663
	C124.795815,113.116051 126.093590,115.972694 125.468651,117.518196
	C124.709145,119.396484 122.118500,121.191200 120.004959,121.691719
	C117.594810,122.262497 114.838081,121.361572 112.230843,121.112106
	C111.044914,120.998650 109.856255,120.913773 108.374863,121.028412
	C108.462921,114.841537 106.757294,109.440933 100.484039,106.001633
	C96.902740,103.148033 93.657898,100.357330 90.240944,97.287369
z"/>
</svg>
