<?xml version="1.0" encoding="UTF-8"?>
<!DOCTYPE svg PUBLIC "-//W3C//DTD SVG 1.1//EN" "http://www.w3.org/Graphics/SVG/1.1/DTD/svg11.dtd">
<!-- Creator: CorelDRAW Home & Student X7 -->
<svg xmlns="http://www.w3.org/2000/svg" xml:space="preserve" width="15.0058mm" height="17.2901mm" version="1.1" style="shape-rendering:geometricPrecision; text-rendering:geometricPrecision; image-rendering:optimizeQuality; fill-rule:evenodd; clip-rule:evenodd"
viewBox="0 0 239 276"
 xmlns:xlink="http://www.w3.org/1999/xlink">
 <defs>
  <style type="text/css">
   <![CDATA[
    .str0 {stroke:#393185;stroke-width:1.21598}
    .fil5 {fill:none;fill-rule:nonzero}
    .fil0 {fill:#2B2A29}
    .fil2 {fill:#FFDD02}
    .fil3 {fill:#00A0E3}
    .fil4 {fill:#FEFEFE;fill-rule:nonzero}
    .fil1 {fill:#2B2A29;fill-rule:nonzero}
   ]]>
  </style>
 </defs>
 <g id="Ebene_x0020_1">
  <metadata id="CorelCorpID_0Corel-Layer"/>
  <g id="_597365272">
   <g>
    <path class="fil0" d="M239 8l-231 0 0 157c0,60 65,86 116,111 59,-30 115,-47 115,-111l0 -157z"/>
    <path id="1" class="fil1" d="M8 7l231 0 0 1 -231 0 0 0 0 -1zm0 1l0 -1 0 0 0 1zm0 157l0 -157 0 0 0 157 0 0 0 0zm116 110l0 1 0 0 -5 -2 -5 -3 -5 -2 -5 -2 -5 -3 -5 -2 -5 -3 -5 -2 -5 -3 -5 -2 -5 -3 -4 -3 -5 -3 -5 -3 -4 -3 -4 -3 -4 -3 -4 -4 -4 -3 -4 -4 -3 -4 -4 -3 -2 -4 -3 -5 -3 -4 -2 -4 -2 -5 -1 -5 -1 -5 -1 -5 -1 -5 0 -6 0 0 0 6 1 5 1 5 1 5 2 5 2 4 2 5 2 4 3 4 3 4 3 4 3 4 4 3 4 4 4 3 4 4 4 3 5 3 4 3 5 3 5 2 4 3 5 3 5 2 5 3 5 2 5 3 5 2 5 3 5 2 5 2 5 2 0 0zm0 1l0 0 0 0 0 0zm115 -111l0 0 0 0 0 6 0 6 -1 5 -1 5 -1 5 -2 5 -2 4 -2 5 -3 4 -3 3 -2 4 -4 4 -3 3 -4 3 -3 3 -4 4 -4 2 -5 3 -4 3 -5 3 -4 2 -5 3 -5 3 -5 2 -5 3 -6 2 -5 3 -5 2 -6 3 -5 2 -6 3 -5 3 0 -1 5 -2 6 -3 5 -3 5 -2 6 -3 5 -2 5 -3 6 -2 5 -3 5 -2 4 -3 5 -3 5 -2 4 -3 4 -3 4 -3 4 -3 4 -3 4 -3 3 -4 3 -3 3 -4 3 -4 2 -4 3 -4 1 -4 2 -5 2 -5 1 -5 0 -5 1 -6 0 -6 0 0zm0 -157l0 157 0 0 0 -157 0 -1 0 1zm0 -1l0 0 0 1 0 -1z"/>
   </g>
   <g>
    <path class="fil2" d="M231 0l-231 0 0 158c0,60 65,86 116,110 59,-29 115,-46 115,-110l0 -158z"/>
    <path id="1" class="fil1" d="M0 0l231 0 0 1 -231 0 0 -1 0 0zm0 0l0 0 0 0 0 0zm0 158l0 -158 1 0 0 158 0 0 -1 0zm116 110l0 1 0 0 -5 -3 -5 -2 -5 -2 -5 -3 -5 -2 -5 -2 -5 -3 -5 -2 -5 -3 -5 -3 -4 -2 -5 -3 -5 -3 -4 -3 -5 -3 -4 -3 -4 -4 -4 -3 -4 -3 -4 -4 -3 -4 -3 -4 -3 -4 -3 -4 -2 -4 -3 -5 -2 -4 -1 -5 -1 -5 -1 -5 -1 -5 0 -6 1 0 0 6 0 5 1 5 1 5 2 5 2 4 2 5 2 4 3 4 3 4 3 4 4 4 3 3 4 4 4 3 4 3 4 3 5 3 4 3 5 3 5 3 5 3 5 2 5 3 4 3 5 2 5 3 5 2 5 2 5 3 5 2 5 2 0 0zm0 1l0 0 0 0 0 0zm115 -111l1 0 0 0 0 6 -1 6 -1 5 -1 5 -1 5 -2 5 -2 4 -2 4 -2 4 -3 4 -3 4 -3 3 -4 4 -3 3 -4 3 -4 3 -4 3 -4 3 -5 3 -4 3 -5 2 -5 3 -5 2 -5 3 -5 2 -5 3 -6 2 -5 3 -5 3 -6 2 -5 3 -6 3 0 -1 5 -3 6 -2 5 -3 6 -3 5 -2 5 -3 6 -2 5 -3 5 -2 5 -3 5 -2 4 -3 5 -3 4 -2 5 -3 4 -3 4 -3 3 -3 4 -4 3 -3 3 -3 3 -4 3 -4 2 -4 3 -4 2 -5 1 -4 2 -5 1 -5 1 -5 0 -6 0 -6 0 0zm1 -158l0 158 -1 0 0 -158 0 0 1 0zm-1 0l1 0 0 0 -1 0z"/>
   </g>
   <path class="fil1" d="M105 95c-3,1 -5,2 -6,3 -2,0 -4,1 -6,1 -1,0 -2,-1 -3,-1 -1,-1 -2,-1 -2,-3 -1,-1 -1,-7 -2,-17 0,-7 0,-12 0,-16 -3,6 -7,12 -10,19 -3,7 -5,11 -6,12 0,1 -1,2 -2,3 -1,0 -2,1 -3,1 -1,0 -2,-1 -2,-1 -1,0 -2,-1 -2,-2 -1,-1 -3,-5 -6,-12 -4,-8 -7,-14 -10,-20 0,4 -1,10 -1,17 0,10 -1,15 -1,17 -1,1 -1,2 -2,2 -1,0 -2,1 -4,1 -1,0 -3,-1 -5,-1 -2,-1 -4,-2 -6,-3 2,-5 4,-11 5,-18 1,-7 2,-15 2,-25 0,-2 0,-3 -1,-5 0,-1 -1,-3 -1,-4 1,-1 3,-2 4,-3 2,0 4,0 6,0 2,0 4,0 6,2 2,1 4,5 7,11 1,2 2,4 4,8 4,9 7,14 8,14 0,0 2,-4 6,-11 2,-5 4,-8 5,-11 3,-6 5,-9 7,-11 2,-2 4,-2 6,-2 2,0 4,0 6,0 1,1 3,2 5,3 -1,2 -2,3 -2,6 -1,2 -1,5 -1,8 0,8 1,15 2,21 1,7 3,12 5,17z"/>
   <path id="1" class="fil1" d="M154 85c0,2 1,3 1,4 1,1 1,2 1,3 0,3 -1,4 -2,5 -2,1 -5,2 -8,2 -4,0 -8,-1 -14,-1 -5,0 -9,0 -12,0 -1,0 -2,0 -3,0 -2,0 -3,0 -4,1 -1,-1 -2,-3 -2,-4 -1,-1 -1,-2 -1,-3 0,-1 0,-2 1,-4 0,-1 1,-2 1,-3 2,-3 4,-6 8,-10 3,-5 6,-8 7,-9 2,-4 4,-6 6,-9 1,-2 2,-4 2,-4 0,-1 -1,-1 -2,-2 -1,0 -3,0 -6,0 -3,0 -6,0 -8,1 -2,0 -4,0 -6,1 -1,-1 -1,-3 -1,-4 -1,-1 -1,-2 -1,-3 0,-2 1,-3 2,-4 2,-1 4,-2 8,-2 1,0 4,0 9,1 5,0 9,0 12,0 2,0 3,0 5,0 2,0 3,-1 4,-1 1,1 2,2 2,4 1,1 1,2 1,3 0,3 -3,9 -10,18 -4,4 -7,8 -9,10 -2,3 -4,6 -5,8 -1,2 -1,3 -1,3 0,1 0,1 1,1 0,1 2,1 4,1 5,0 9,0 13,-1 3,0 5,-1 7,-2z"/>
   <path id="2" class="fil1" d="M181 74l13 0c-1,-3 -2,-6 -3,-9 -1,-2 -2,-5 -3,-8 -1,3 -3,5 -4,8 -1,3 -2,6 -3,9zm39 20l0 0c-2,1 -4,3 -6,4 -2,0 -3,1 -5,1 -2,0 -4,-1 -5,-3 -2,-2 -4,-6 -6,-12l-21 0c-1,2 -2,4 -3,6 0,1 -1,3 -1,4 0,1 0,1 0,1 0,1 1,1 1,2 -2,0 -3,1 -4,1 -2,0 -3,1 -4,1 -3,0 -4,-1 -5,-2 -1,0 -2,-2 -2,-4 0,-2 3,-8 8,-19 6,-10 10,-19 13,-27 0,-1 0,-2 -1,-3 0,0 -1,-1 -1,-1 2,-1 3,-2 5,-3 2,0 3,0 5,0 3,0 5,0 6,2 2,1 3,3 5,7 1,1 2,5 5,13 3,7 6,13 9,19 1,3 2,5 3,7 2,2 3,4 4,6z"/>
  </g>
  <g>
   <path class="fil0" d="M239 8l-231 0 0 157c0,60 65,86 116,111 59,-30 115,-47 115,-111l0 -157z"/>
   <path id="1" class="fil1" d="M8 7l231 0 0 1 -231 0 0 0 0 -1zm0 1l0 -1 0 0 0 1zm0 157l0 -157 0 0 0 157 0 0 0 0zm116 110l0 1 0 0 -5 -2 -5 -3 -5 -2 -5 -2 -5 -3 -5 -2 -5 -3 -5 -2 -5 -3 -5 -2 -5 -3 -4 -3 -5 -3 -5 -3 -4 -3 -4 -3 -4 -3 -4 -4 -4 -3 -4 -4 -3 -4 -4 -3 -2 -4 -3 -5 -3 -4 -2 -4 -2 -5 -1 -5 -1 -5 -1 -5 -1 -5 0 -6 0 0 0 6 1 5 1 5 1 5 2 5 2 4 2 5 2 4 3 4 3 4 3 4 3 4 4 3 4 4 4 3 4 4 4 3 5 3 4 3 5 3 5 2 4 3 5 3 5 2 5 3 5 2 5 3 5 2 5 3 5 2 5 2 5 2 0 0zm0 1l0 0 0 0 0 0zm115 -111l0 0 0 0 0 6 0 6 -1 5 -1 5 -1 5 -2 5 -2 4 -2 5 -3 4 -3 3 -2 4 -4 4 -3 3 -4 3 -3 3 -4 4 -4 2 -5 3 -4 3 -5 3 -4 2 -5 3 -5 3 -5 2 -5 3 -6 2 -5 3 -5 2 -6 3 -5 2 -6 3 -5 3 0 -1 5 -2 6 -3 5 -3 5 -2 6 -3 5 -2 5 -3 6 -2 5 -3 5 -2 4 -3 5 -3 5 -2 4 -3 4 -3 4 -3 4 -3 4 -3 4 -3 3 -4 3 -3 3 -4 3 -4 2 -4 3 -4 1 -4 2 -5 2 -5 1 -5 0 -5 1 -6 0 -6 0 0zm0 -157l0 157 0 0 0 -157 0 -1 0 1zm0 -1l0 0 0 1 0 -1z"/>
  </g>
  <g>
   <path class="fil3" d="M231 0l-231 0 0 158c0,60 65,86 116,110 59,-29 115,-46 115,-110l0 -158z"/>
   <path id="1" class="fil1" d="M0 0l231 0 0 1 -231 0 0 -1 0 0zm0 0l0 0 0 0 0 0zm0 158l0 -158 1 0 0 158 0 0 -1 0zm116 110l0 1 0 0 -5 -3 -5 -2 -5 -2 -5 -3 -5 -2 -5 -2 -5 -3 -5 -2 -5 -3 -5 -3 -4 -2 -5 -3 -5 -3 -4 -3 -5 -3 -4 -3 -4 -4 -4 -3 -4 -3 -4 -4 -3 -4 -3 -4 -3 -4 -3 -4 -2 -4 -3 -5 -2 -4 -1 -5 -1 -5 -1 -5 -1 -5 0 -6 1 0 0 6 0 5 1 5 1 5 2 5 2 4 2 5 2 4 3 4 3 4 3 4 4 4 3 3 4 4 4 3 4 3 4 3 5 3 4 3 5 3 5 3 5 3 5 2 5 3 4 3 5 2 5 3 5 2 5 2 5 3 5 2 5 2 0 0zm0 1l0 0 0 0 0 0zm115 -111l1 0 0 0 0 6 -1 6 -1 5 -1 5 -1 5 -2 5 -2 4 -2 4 -2 4 -3 4 -3 4 -3 3 -4 4 -3 3 -4 3 -4 3 -4 3 -4 3 -5 3 -4 3 -5 2 -5 3 -5 2 -5 3 -5 2 -5 3 -6 2 -5 3 -5 3 -6 2 -5 3 -6 3 0 -1 5 -3 6 -2 5 -3 6 -3 5 -2 5 -3 6 -2 5 -3 5 -2 5 -3 5 -2 4 -3 5 -3 4 -2 5 -3 4 -3 4 -3 3 -3 4 -4 3 -3 3 -3 3 -4 3 -4 2 -4 3 -4 2 -5 1 -4 2 -5 1 -5 1 -5 0 -6 0 -6 0 0zm1 -158l0 158 -1 0 0 -158 0 0 1 0zm-1 0l1 0 0 0 -1 0z"/>
  </g>
  <path class="fil4" d="M107 143c-2,1 -4,2 -6,3 -2,0 -4,1 -5,1 -2,0 -3,-1 -4,-1 -1,-1 -1,-2 -2,-3 0,-1 -1,-7 -1,-18 0,-6 -1,-11 -1,-15 -3,6 -6,12 -9,19 -4,7 -6,11 -6,12 -1,1 -2,2 -3,3 0,0 -1,1 -2,1 -1,0 -2,-1 -3,-1 -1,-1 -1,-1 -2,-2 -1,-1 -3,-5 -6,-13 -3,-7 -7,-13 -10,-19 0,4 0,10 0,17 -1,10 -1,15 -2,16 0,2 -1,2 -2,3 0,0 -2,1 -3,1 -2,0 -4,-1 -5,-1 -2,-1 -4,-2 -6,-3 2,-5 4,-11 5,-18 1,-7 1,-16 1,-25 0,-2 0,-4 0,-5 -1,-1 -1,-3 -2,-4 2,-1 3,-2 5,-3 2,0 3,-1 5,-1 3,0 5,1 7,3 1,1 4,5 7,11 1,2 2,4 3,8 5,9 8,14 8,14 1,0 3,-4 7,-11 2,-5 3,-8 5,-11 2,-6 5,-9 6,-11 2,-2 4,-3 7,-3 2,0 3,1 5,1 2,1 3,2 5,3 -1,2 -1,3 -2,6 0,2 0,5 0,8 0,8 0,15 1,21 1,7 3,12 5,17z"/>
  <path id="1" class="fil4" d="M159 132c1,1 2,2 2,4 1,1 1,2 1,3 0,3 -1,5 -4,6 -3,2 -7,2 -12,2 -10,0 -19,-2 -25,-8 -6,-5 -9,-12 -9,-21 0,-5 1,-9 3,-13 2,-4 5,-8 9,-11 3,-2 7,-4 12,-5 4,-2 9,-3 14,-3 4,0 7,1 9,2 2,1 3,2 3,4 0,2 -1,3 -1,4 -1,2 -2,3 -3,5 -1,-1 -3,-2 -5,-2 -1,0 -3,-1 -5,-1 -6,0 -11,2 -15,6 -3,3 -5,7 -5,13 0,5 2,10 5,13 4,3 8,5 14,5 2,0 4,0 6,-1 2,0 4,-1 6,-2z"/>
  <path id="2" class="fil4" d="M187 116c0,0 1,0 2,0 0,1 1,1 2,1 3,0 5,-1 7,-3 2,-2 3,-4 3,-7 0,-3 -1,-5 -3,-6 -1,-2 -3,-2 -6,-2 -1,0 -2,0 -2,0 -1,0 -2,0 -3,0 0,3 0,6 0,9 0,3 0,5 0,8zm-17 -27c0,0 1,0 2,0 0,0 1,0 2,0 3,0 7,-1 12,-1 4,0 7,0 9,0 6,0 12,1 15,4 4,3 6,8 6,13 0,7 -2,12 -6,16 -5,4 -11,6 -18,6 -1,0 -1,-1 -2,-1 -1,0 -2,0 -3,0 0,4 0,8 0,11 1,2 1,5 2,7 -2,1 -4,1 -5,2 -2,0 -4,1 -5,1 -3,0 -5,-1 -6,-2 -1,-1 -2,-4 -2,-7 0,-1 1,-4 1,-10 0,-6 1,-11 1,-15 0,-7 -1,-12 -1,-16 -1,-4 -1,-7 -2,-8z"/>
  <path id="3" class="fil5 str0" d="M107 143c-2,1 -4,2 -6,3 -2,0 -4,1 -5,1 -2,0 -3,-1 -4,-1 -1,-1 -1,-2 -2,-3 0,-1 -1,-7 -1,-18 0,-6 -1,-11 -1,-15 -3,6 -6,12 -9,19 -4,7 -6,11 -6,12 -1,1 -2,2 -3,3 0,0 -1,1 -2,1 -1,0 -2,-1 -3,-1 -1,-1 -1,-1 -2,-2 -1,-1 -3,-5 -6,-13 -3,-7 -7,-13 -10,-19 0,4 0,10 0,17 -1,10 -1,15 -2,16 0,2 -1,2 -2,3 0,0 -2,1 -3,1 -2,0 -4,-1 -5,-1 -2,-1 -4,-2 -6,-3 2,-5 4,-11 5,-18 1,-7 1,-16 1,-25 0,-2 0,-4 0,-5 -1,-1 -1,-3 -2,-4 2,-1 3,-2 5,-3 2,0 3,-1 5,-1 3,0 5,1 7,3 1,1 4,5 7,11 1,2 2,4 3,8 5,9 8,14 8,14 1,0 3,-4 7,-11 2,-5 3,-8 5,-11 2,-6 5,-9 6,-11 2,-2 4,-3 7,-3 2,0 3,1 5,1 2,1 3,2 5,3 -1,2 -1,3 -2,6 0,2 0,5 0,8 0,8 0,15 1,21 1,7 3,12 5,17z"/>
  <path id="4" class="fil5 str0" d="M159 132c1,1 2,2 2,4 1,1 1,2 1,3 0,3 -1,5 -4,6 -3,2 -7,2 -12,2 -10,0 -19,-2 -25,-8 -6,-5 -9,-12 -9,-21 0,-5 1,-9 3,-13 2,-4 5,-8 9,-11 3,-2 7,-4 12,-5 4,-2 9,-3 14,-3 4,0 7,1 9,2 2,1 3,2 3,4 0,2 -1,3 -1,4 -1,2 -2,3 -3,5 -1,-1 -3,-2 -5,-2 -1,0 -3,-1 -5,-1 -6,0 -11,2 -15,6 -3,3 -5,7 -5,13 0,5 2,10 5,13 4,3 8,5 14,5 2,0 4,0 6,-1 2,0 4,-1 6,-2z"/>
  <path id="5" class="fil5 str0" d="M187 116c0,0 1,0 2,0 0,1 1,1 2,1 3,0 5,-1 7,-3 2,-2 3,-4 3,-7 0,-3 -1,-5 -3,-6 -1,-2 -3,-2 -6,-2 -1,0 -2,0 -2,0 -1,0 -2,0 -3,0 0,3 0,6 0,9 0,3 0,5 0,8zm-17 -27c0,0 1,0 2,0 0,0 1,0 2,0 3,0 7,-1 12,-1 4,0 7,0 9,0 6,0 12,1 15,4 4,3 6,8 6,13 0,7 -2,12 -6,16 -5,4 -11,6 -18,6 -1,0 -1,-1 -2,-1 -1,0 -2,0 -3,0 0,4 0,8 0,11 1,2 1,5 2,7 -2,1 -4,1 -5,2 -2,0 -4,1 -5,1 -3,0 -5,-1 -6,-2 -1,-1 -2,-4 -2,-7 0,-1 1,-4 1,-10 0,-6 1,-11 1,-15 0,-7 -1,-12 -1,-16 -1,-4 -1,-7 -2,-8z"/>
 </g>
</svg>
