<svg version="1.1" id="Layer_1" xmlns="http://www.w3.org/2000/svg" xmlns:xlink="http://www.w3.org/1999/xlink" x="0px" y="0px"
	 width="100%" viewBox="0 0 214 246" enable-background="new 0 0 214 246" xml:space="preserve">
<path fill="#019846" opacity="1.000000" stroke="none"
	d="
M1.000000,152.000000
	C1.000000,148.969406 1.000000,145.938812 1.334501,142.195312
	C1.780099,139.499985 1.986226,137.517639 1.988333,135.535080
	C2.035585,91.086914 2.060403,46.638721 2.550182,2.143989
	C70.807549,2.097442 138.604187,2.097442 206.575089,2.097442
	C206.791138,4.094841 206.948746,5.552064 207.062897,7.475545
	C207.004547,52.554096 207.037262,97.166527 206.909546,141.778503
	C206.894928,146.887695 206.315842,152.052765 205.429703,157.091919
	C201.770233,177.902084 189.947693,193.689896 172.305908,204.068787
	C151.151169,216.514389 128.911835,227.121323 107.062767,238.370224
	C105.676010,239.084213 103.336609,239.047043 101.890495,238.381424
	C80.619293,228.590851 59.345997,218.785797 39.950779,205.450333
	C38.821587,204.673935 37.283596,204.492111 35.965019,204.018631
	C35.994186,204.003662 35.980450,204.067780 35.972069,203.765625
	C35.619854,203.315536 35.276024,203.167587 34.964092,203.012482
	C34.995991,203.005310 34.982143,203.069214 34.968361,202.770538
	C34.611301,202.319992 34.268024,202.168137 33.959187,202.011292
	C33.993626,202.006287 33.992470,202.075867 33.936432,201.795166
	C33.546970,201.356140 33.213554,201.197845 32.558243,200.905243
	C30.703930,199.493683 29.102913,198.289566 27.650398,196.927109
	C19.163065,188.966080 11.413356,180.376556 6.908115,169.472275
	C4.565540,163.802368 2.946100,157.833710 1.000000,152.000000
M128.992264,110.553162
	C128.732513,110.345581 128.472763,110.138000 127.806465,109.380608
	C127.105141,108.484818 126.403816,107.589027 126.187279,106.220024
	C127.267754,105.464287 128.387177,104.758148 129.422516,103.944954
	C137.641144,97.489876 136.754257,87.362480 127.094528,81.594376
	C123.747292,77.081055 119.166603,74.303078 113.691223,73.993103
	C104.964470,73.499069 96.198265,73.590729 87.453033,73.721748
	C86.657272,73.733665 85.892685,75.827347 84.275917,77.013084
	C83.167198,77.142342 82.058479,77.271599 80.495499,76.795662
	C79.803947,75.173882 79.112389,73.552101 78.691986,72.566200
	C72.893097,73.084579 67.797813,73.924339 62.704941,73.910004
	C53.900658,73.885223 45.099384,73.280502 36.294018,73.011978
	C27.442751,72.742043 25.126429,76.154251 28.461500,84.412781
	C28.757439,85.145607 29.218266,85.811844 29.542284,86.399734
	C31.113314,86.240898 32.419495,86.108841 33.847263,86.753479
	C34.347790,88.391472 34.848312,90.029457 35.273602,91.421227
	C39.144764,90.907028 42.489262,90.462784 45.976700,90.942162
	C45.649731,101.694580 45.356781,112.448181 44.980431,123.198875
	C44.810078,128.065338 46.010010,131.777176 51.845833,132.934967
	C54.579697,138.149902 60.183018,138.539841 67.486549,134.667221
	C67.337875,120.734512 67.207336,107.361504 67.044159,93.988892
	C67.001778,90.515289 68.723656,89.896858 71.851799,90.390427
	C77.048882,91.210442 82.439560,92.401253 86.968086,88.769257
	C86.644768,99.678520 86.420723,110.592010 85.955383,121.495216
	C85.729752,126.781998 87.366531,130.501205 92.994400,132.536331
	C94.635277,133.737183 96.124878,135.623688 97.942230,136.024643
	C107.760880,138.190842 117.491570,137.447739 126.142303,132.166428
	C129.559647,130.080124 132.517090,126.374413 134.326492,122.731781
	C136.785675,117.780975 134.101456,113.009743 128.993896,111.002312
	C128.993896,111.002312 128.966629,111.063766 128.992264,110.553162
M161.010971,95.960838
	C161.010971,93.858208 161.010971,91.755569 161.010971,88.752373
	C168.005310,89.146759 174.327896,89.503265 180.818481,89.869255
	C184.761047,83.026314 183.753326,79.463150 176.975616,77.251839
	C174.988449,75.835449 173.047989,73.278603 171.006256,73.195015
	C160.758469,72.775459 150.484192,73.002678 140.042542,73.002678
	C140.412292,79.696114 140.997620,84.977135 140.934509,90.250397
	C140.801117,101.398460 140.381577,112.544418 139.971252,123.687256
	C139.792801,128.533493 141.271774,131.856171 146.829758,132.942093
	C149.376495,138.156235 153.904068,138.510849 162.109314,134.391235
	C161.625244,127.009651 161.153381,119.814125 160.641037,112.001266
	C165.139755,112.001266 168.748276,112.068359 172.353455,111.987022
	C179.424820,111.827499 181.608246,108.063904 178.479675,101.395256
	C177.055832,101.562042 175.600250,101.732552 174.026077,101.118820
	C173.631256,99.433174 173.236435,97.747536 173.023163,96.837059
	C168.547592,96.837059 164.783356,96.837059 161.010971,95.960838
M177.668549,25.637901
	C176.143997,20.933468 174.619461,16.229034 173.205185,11.864879
	C171.358734,24.783178 166.360474,35.900028 149.604721,38.481441
	C166.506363,41.174347 171.089676,52.642818 173.452866,67.040909
	C175.804596,53.321781 179.899750,42.269279 195.453400,38.635498
	C187.024170,36.321041 181.403580,32.758991 177.668549,25.637901
M56.851669,187.507919
	C59.902397,184.590378 62.953121,181.672821 65.915527,178.839737
	C58.968472,177.151077 55.711750,171.233505 53.730629,164.027039
	C51.815163,171.789703 48.055214,177.423264 38.909782,179.404633
	C48.390404,181.133789 51.578274,187.262573 53.492443,195.220413
	C54.694500,192.352692 55.578732,190.243195 56.851669,187.507919
z"/>
<path fill="#2B2B29" opacity="1.000000" stroke="none"
	d="
M215.000000,158.531342
	C213.348938,164.594864 211.894379,170.256958 210.007935,175.771301
	C205.372772,189.320541 196.259018,199.446045 185.077057,208.011963
	C163.484390,224.552948 138.009872,233.869263 114.106018,246.652649
	C112.611107,247.000000 111.222221,247.000000 109.416656,247.000000
	C96.946960,240.993774 84.540741,235.592529 72.936127,228.818161
	C60.289722,221.435608 48.386749,212.779572 36.047764,204.356140
	C37.283596,204.492111 38.821587,204.673935 39.950779,205.450333
	C59.345997,218.785797 80.619293,228.590851 101.890495,238.381424
	C103.336609,239.047043 105.676010,239.084213 107.062767,238.370224
	C128.911835,227.121323 151.151169,216.514389 172.305908,204.068787
	C189.947693,193.689896 201.770233,177.902084 205.429703,157.091919
	C206.315842,152.052765 206.894928,146.887695 206.909546,141.778503
	C207.037262,97.166527 207.004547,52.554096 207.313660,7.464412
	C207.775391,6.977401 207.942902,6.967780 208.539520,6.977617
	C210.979065,6.998049 212.989532,6.999024 215.000000,7.000000
	C215.000000,57.354229 215.000000,107.708458 215.000000,158.531342
z"/>
<path fill="#27342B" opacity="1.000000" stroke="none"
	d="
M208.110428,6.958160
	C207.942902,6.967780 207.775391,6.977401 207.357117,6.998154
	C206.948746,5.552064 206.791138,4.094841 206.575089,2.097442
	C138.604187,2.097442 70.807549,2.097442 2.519269,1.846320
	C2.018423,1.396798 2.009211,1.198399 2.000000,1.000000
	C70.354225,1.000000 138.708450,1.000000 207.530853,1.426441
	C208.036163,3.554641 208.073303,5.256401 208.110428,6.958160
z"/>
<path fill="#29312B" opacity="1.000000" stroke="none"
	d="
M1.500000,1.000000
	C2.009211,1.198399 2.018423,1.396798 2.058547,1.892866
	C2.060403,46.638721 2.035585,91.086914 1.988333,135.535080
	C1.986226,137.517639 1.780099,139.499985 1.334501,141.741211
	C1.000000,95.000000 1.000000,48.000000 1.500000,1.000000
z"/>
<path fill="#FBFCFC" opacity="1.000000" stroke="none"
	d="
M85.113625,76.954315
	C85.892685,75.827347 86.657272,73.733665 87.453033,73.721748
	C96.198265,73.590729 104.964470,73.499069 113.691223,73.993103
	C119.166603,74.303078 123.747292,77.081055 127.444412,82.223602
	C130.555405,92.171890 129.261932,94.610558 117.609795,102.399956
	C120.213318,103.781158 122.957901,105.237198 125.702492,106.693237
	C126.403816,107.589027 127.105141,108.484818 128.008606,109.922539
	C128.462708,110.664230 128.714661,110.863998 128.966629,111.063766
	C128.966629,111.063766 128.993896,111.002312 128.905457,111.439453
	C129.243057,119.922630 125.997650,124.936882 117.691803,128.675812
	C109.759552,132.246536 101.341904,132.298584 92.874275,131.776825
	C87.366531,130.501205 85.729752,126.781998 85.955383,121.495216
	C86.420723,110.592010 86.644768,99.678520 86.927795,87.894333
	C86.296204,83.664375 85.704918,80.309341 85.113625,76.954315
M106.742508,120.821640
	C111.172585,119.574921 114.903084,117.772354 113.621643,111.373428
	C110.374725,106.231339 105.401993,106.936676 100.347664,107.161705
	C100.347664,111.853485 100.347664,116.207642 100.347664,120.749596
	C102.475098,120.749596 104.251389,120.749596 106.742508,120.821640
M106.742119,97.821686
	C113.485695,95.551689 114.786446,93.569260 113.070061,87.253677
	C109.903854,82.407303 105.311455,82.670052 100.304718,83.423058
	C100.304718,88.446205 100.304718,93.147758 100.304718,98.057610
	C102.423958,97.943550 104.225815,97.846573 106.742119,97.821686
z"/>
<path fill="#FBFDFC" opacity="1.000000" stroke="none"
	d="
M33.725677,85.976791
	C32.419495,86.108841 31.113314,86.240898 29.542284,86.399734
	C29.218266,85.811844 28.757439,85.145607 28.461500,84.412781
	C25.126429,76.154251 27.442751,72.742043 36.294018,73.011978
	C45.099384,73.280502 53.900658,73.885223 62.704941,73.910004
	C67.797813,73.924339 72.893097,73.084579 78.691986,72.566200
	C79.112389,73.552101 79.803947,75.173882 80.709732,77.464981
	C80.700996,84.190849 79.074890,85.901878 73.190948,85.966858
	C70.867676,85.992523 68.490181,85.951805 66.226707,85.496887
	C62.061615,84.659767 60.974575,86.426857 61.059044,90.295792
	C61.344429,103.367493 61.412064,116.443947 61.567795,129.938965
	C60.743130,130.191757 59.193493,130.766541 57.595871,131.130890
	C55.656010,131.573303 53.675663,131.838181 51.712833,132.179855
	C46.010010,131.777176 44.810078,128.065338 44.980431,123.198875
	C45.356781,112.448181 45.649731,101.694580 45.975761,90.041138
	C45.884468,87.791756 45.794106,86.443390 45.666206,84.534912
	C41.319641,85.059784 37.522659,85.518288 33.725677,85.976791
z"/>
<path fill="#FBFCFC" opacity="1.000000" stroke="none"
	d="
M146.681381,132.186264
	C141.271774,131.856171 139.792801,128.533493 139.971252,123.687256
	C140.381577,112.544418 140.801117,101.398460 140.934509,90.250397
	C140.997620,84.977135 140.412292,79.696114 140.042542,73.002678
	C150.484192,73.002678 160.758469,72.775459 171.006256,73.195015
	C173.047989,73.278603 174.988449,75.835449 176.996857,77.994102
	C176.359940,81.058624 175.701782,83.380875 175.266678,84.916100
	C168.207214,84.516731 161.911804,84.160583 155.297821,83.786415
	C155.297821,88.761650 155.297821,92.795670 155.297821,96.837059
	C157.405304,96.837059 159.212219,96.837059 161.019135,96.837059
	C164.783356,96.837059 168.547592,96.837059 173.023163,96.837059
	C173.236435,97.747536 173.631256,99.433174 173.954132,101.865158
	C172.855942,106.134766 170.113556,106.964767 166.911484,106.993011
	C162.988739,107.027626 159.065460,107.001259 154.531876,107.001259
	C155.112518,114.855057 155.656784,122.216789 156.233368,130.015839
	C153.103500,130.727020 149.892441,131.456650 146.681381,132.186264
z"/>
<path fill="#F8FBF9" opacity="1.000000" stroke="none"
	d="
M177.832138,25.974293
	C181.403580,32.758991 187.024170,36.321041 195.453400,38.635498
	C179.899750,42.269279 175.804596,53.321781 173.452866,67.040909
	C171.089676,52.642818 166.506363,41.174347 149.604721,38.481441
	C166.360474,35.900028 171.358734,24.783178 173.205185,11.864879
	C174.619461,16.229034 176.143997,20.933468 177.832138,25.974293
z"/>
<path fill="#5D5E53" opacity="1.000000" stroke="none"
	d="
M51.779335,132.557404
	C53.675663,131.838181 55.656010,131.573303 57.595871,131.130890
	C59.193493,130.766541 60.743130,130.191757 61.567795,129.938965
	C61.412064,116.443947 61.344429,103.367493 61.059044,90.295792
	C60.974575,86.426857 62.061615,84.659767 66.226707,85.496887
	C68.490181,85.951805 70.867676,85.992523 73.190948,85.966858
	C79.074890,85.901878 80.700996,84.190849 80.936859,77.767578
	C82.058479,77.271599 83.167198,77.142342 84.694778,76.983704
	C85.704918,80.309341 86.296204,83.664375 86.825760,87.424759
	C82.439560,92.401253 77.048882,91.210442 71.851799,90.390427
	C68.723656,89.896858 67.001778,90.515289 67.044159,93.988892
	C67.207336,107.361504 67.337875,120.734512 67.486549,134.667221
	C60.183018,138.539841 54.579697,138.149902 51.779335,132.557404
z"/>
<path fill="#5B5D52" opacity="1.000000" stroke="none"
	d="
M146.755569,132.564178
	C149.892441,131.456650 153.103500,130.727020 156.233368,130.015839
	C155.656784,122.216789 155.112518,114.855057 154.531876,107.001259
	C159.065460,107.001259 162.988739,107.027626 166.911484,106.993011
	C170.113556,106.964767 172.855942,106.134766 174.013428,102.257278
	C175.600250,101.732552 177.055832,101.562042 178.479675,101.395256
	C181.608246,108.063904 179.424820,111.827499 172.353455,111.987022
	C168.748276,112.068359 165.139755,112.001266 160.641037,112.001266
	C161.153381,119.814125 161.625244,127.009651 162.109314,134.391235
	C153.904068,138.510849 149.376495,138.156235 146.755569,132.564178
z"/>
<path fill="#5B5D52" opacity="1.000000" stroke="none"
	d="
M92.934341,132.156586
	C101.341904,132.298584 109.759552,132.246536 117.691803,128.675812
	C125.997650,124.936882 129.243057,119.922630 128.874847,111.453339
	C134.101456,113.009743 136.785675,117.780975 134.326492,122.731781
	C132.517090,126.374413 129.559647,130.080124 126.142303,132.166428
	C117.491570,137.447739 107.760880,138.190842 97.942230,136.024643
	C96.124878,135.623688 94.635277,133.737183 92.934341,132.156586
z"/>
<path fill="#F4FAF7" opacity="1.000000" stroke="none"
	d="
M56.657318,187.820801
	C55.578732,190.243195 54.694500,192.352692 53.492443,195.220413
	C51.578274,187.262573 48.390404,181.133789 38.909782,179.404633
	C48.055214,177.423264 51.815163,171.789703 53.730629,164.027039
	C55.711750,171.233505 58.968472,177.151077 65.915527,178.839737
	C62.953121,181.672821 59.902397,184.590378 56.657318,187.820801
z"/>
<path fill="#5D5E53" opacity="1.000000" stroke="none"
	d="
M161.015045,96.398949
	C159.212219,96.837059 157.405304,96.837059 155.297821,96.837059
	C155.297821,92.795670 155.297821,88.761650 155.297821,83.786415
	C161.911804,84.160583 168.207214,84.516731 175.266678,84.916100
	C175.701782,83.380875 176.359940,81.058624 177.090515,78.358673
	C183.753326,79.463150 184.761047,83.026314 180.818481,89.869255
	C174.327896,89.503265 168.005310,89.146759 161.010971,88.752373
	C161.010971,91.755569 161.010971,93.858208 161.015045,96.398949
z"/>
<path fill="#5D5E53" opacity="1.000000" stroke="none"
	d="
M125.944885,106.456635
	C122.957901,105.237198 120.213318,103.781158 117.609795,102.399956
	C129.261932,94.610558 130.555405,92.171890 127.657555,82.455864
	C136.754257,87.362480 137.641144,97.489876 129.422516,103.944954
	C128.387177,104.758148 127.267754,105.464287 125.944885,106.456635
z"/>
<path fill="#5B5D52" opacity="1.000000" stroke="none"
	d="
M33.786469,86.365135
	C37.522659,85.518288 41.319641,85.059784 45.666206,84.534912
	C45.794106,86.443390 45.884468,87.791756 45.904293,89.579330
	C42.489262,90.462784 39.144764,90.907028 35.273602,91.421227
	C34.848312,90.029457 34.347790,88.391472 33.786469,86.365135
z"/>
<path fill="#5B5D52" opacity="1.000000" stroke="none"
	d="
M128.979446,110.808464
	C128.714661,110.863998 128.462708,110.664230 128.211884,110.197449
	C128.472763,110.138000 128.732513,110.345581 128.979446,110.808464
z"/>
<path fill="#2B2B29" opacity="1.000000" stroke="none"
	d="
M33.936428,201.795166
	C33.683315,201.902924 33.374165,201.729965 32.972572,201.298279
	C33.213554,201.197845 33.546970,201.356140 33.936428,201.795166
z"/>
<path fill="#2B2B29" opacity="1.000000" stroke="none"
	d="
M34.968365,202.770523
	C34.675243,202.895645 34.368336,202.722092 33.993088,202.282410
	C34.268024,202.168137 34.611301,202.319992 34.968365,202.770523
z"/>
<path fill="#2B2B29" opacity="1.000000" stroke="none"
	d="
M35.972065,203.765625
	C35.674065,203.895920 35.367680,203.724060 34.996742,203.285919
	C35.276024,203.167587 35.619854,203.315536 35.972065,203.765625
z"/>
<path fill="#5F5E54" opacity="1.000000" stroke="none"
	d="
M106.027672,97.749596
	C104.225815,97.846573 102.423958,97.943550 100.304718,98.057610
	C100.304718,93.147758 100.304718,88.446205 100.304718,83.423058
	C105.311455,82.670052 109.903854,82.407303 112.678108,87.619034
	C107.072601,87.015999 105.227798,89.353989 105.965034,94.342316
	C106.129753,95.456818 106.014198,96.612740 106.027672,97.749596
z"/>
<path fill="#5F5E54" opacity="1.000000" stroke="none"
	d="
M106.027672,120.749596
	C104.251389,120.749596 102.475098,120.749596 100.347664,120.749596
	C100.347664,116.207642 100.347664,111.853485 100.347664,107.161705
	C105.401993,106.936676 110.374725,106.231339 113.234253,111.710083
	C110.648750,112.046738 108.450645,112.046738 106.027672,112.046738
	C106.027672,115.524605 106.027672,118.137100 106.027672,120.749596
z"/>
<path fill="#08994B" opacity="1.000000" stroke="none"
	d="
M106.384895,97.785645
	C106.014198,96.612740 106.129753,95.456818 105.965034,94.342316
	C105.227798,89.353989 107.072601,87.015999 112.745743,87.977837
	C114.786446,93.569260 113.485695,95.551689 106.384895,97.785645
z"/>
<path fill="#08994B" opacity="1.000000" stroke="none"
	d="
M106.385086,120.785614
	C106.027672,118.137100 106.027672,115.524605 106.027672,112.046738
	C108.450645,112.046738 110.648750,112.046738 113.277122,112.051231
	C114.903084,117.772354 111.172585,119.574921 106.385086,120.785614
z"/>
</svg>
