<svg xmlns="http://www.w3.org/2000/svg" viewBox="0 0 100 100">
  <circle cx="50" cy="50" r="47" fill="#fff" stroke="#000" stroke-width="2"/>
  <path fill="#231f20" d="M7.754 50h10.125V39.875h5.726V50H33.73v5.723H23.605V65.91H17.88V55.723H7.754Zm48.758 13.258h.48l-.722 7.832H38.73v-1.988c0-10.848 12.297-23.684 12.297-29.832 0-3.313-1.386-5.063-3.68-5.063-2.109 0-3.195 1.867-3.195 3.797 0 1.93.305 3.496 1.508 4.703l-.242.3h-3.914c-1.809 0-2.953-2.952-2.953-4.94 0-5.97 3.734-9.583 9.16-9.583 5.965 0 9.883 4.036 9.883 10.668 0 8.918-9.824 17.356-9.824 25.493h5.183c1.086 0 2.41-.543 3.555-1.387Zm16.812-34.774c6.75 0 12.114 8.438 12.114 21.153 0 12.718-5.364 21.879-12.114 21.879-6.75 0-12.117-8.739-12.117-21.754 0-13.016 5.367-21.274 12.117-21.274Zm4.64 21.395c0-9.766-2.413-15.43-4.76-15.43-1.93 0-4.099 5.547-4.099 15.13 0 9.581 2.29 15.91 4.399 15.91 2.226 0 4.457-5.79 4.457-15.61Zm0 0"/>
</svg>
