<?xml version="1.0" encoding="UTF-8"?>
<!DOCTYPE svg PUBLIC "-//W3C//DTD SVG 1.1//EN" "http://www.w3.org/Graphics/SVG/1.1/DTD/svg11.dtd">
<!-- Creator: CorelDRAW -->
<svg xmlns="http://www.w3.org/2000/svg" xml:space="preserve" width="0.506945in" height="0.506945in" style="shape-rendering:geometricPrecision; text-rendering:geometricPrecision; image-rendering:optimizeQuality; fill-rule:evenodd; clip-rule:evenodd"
viewBox="0 0 0.0285328 0.0285328"
 xmlns:xlink="http://www.w3.org/1999/xlink">
 <defs>
  <style type="text/css">
   <![CDATA[
    .str1 {stroke:black;stroke-width:0.000281419}
    .str0 {stroke:black;stroke-width:0.000390884}
    .fil0 {fill:white}
    .fil2 {fill:none;fill-rule:nonzero}
    .fil1 {fill:black;fill-rule:nonzero}
   ]]>
  </style>
 </defs>
 <g id="Layer_x0020_1">
  <metadata id="CorelCorpID_0Corel-Layer"/>
  <g id="BA">
   <circle id="_164065720" class="fil0 str0" cx="0.0142664" cy="0.0142664" r="0.0140709"/>
   <g>
    <path id="_164063032" class="fil1" d="M0.0132805 0.00698539c0.000180817,0.00013517 0.000313993,0.000290282 0.000397753,0.000465338 8.59768e-005,0.000173505 0.00012963,0.000372271 0.000127857,0.000596741 -1.77272e-006,0.000213612 -3.27953e-005,0.000416145 -9.30677e-005,0.000609593 -6.20451e-005,0.000193448 -0.000144255,0.000370276 -0.000246408,0.000530929 -0.000102153,0.000162425 -0.000215385,0.000302913 -0.000339254,0.000421464 -0.00012409,0.000118772 -0.000250175,0.00021184 -0.000376038,0.000275658 -0.000127636,6.55905e-005 -0.000246408,9.83858e-005 -0.000357646,0.00010038 -7.667e-005,-1.99431e-006 -0.000158658,-1.10795e-005 -0.000244413,-2.74771e-005 -8.57552e-005,-1.63976e-005 -0.00017705,-2.54828e-005 -0.000270118,-2.72555e-005 -0.000125863,0 -0.000218931,1.99431e-005 -0.000280976,6.20451e-005 -6.02724e-005,4.18804e-005 -9.12949e-005,0.000107471 -9.12949e-005,0.000200539 0,0.00015334 9.86074e-005,0.00023001 0.000295601,0.00023001 9.12949e-005,-1.77272e-006 0.000178823,-1.81704e-005 0.000262805,-4.91929e-005 8.39825e-005,-2.92498e-005 0.000164198,-5.84997e-005 0.000240868,-8.95222e-005 7.667e-005,-2.92498e-005 0.000149573,-4.56475e-005 0.000218931,-4.74202e-005 9.86074e-005,0 0.000198988,2.92498e-005 0.000302913,8.75279e-005 0.000103926,5.84997e-005 0.00020076,0.000144255 0.000290061,0.000255493 8.95222e-005,0.00011146 0.000162425,0.000246408 0.000219152,0.000405066 5.65054e-005,0.000160653 8.37609e-005,0.000341248 8.57552e-005,0.000543781 0,0.000272112 -5.11872e-005,0.000553088 -0.000151567,0.000844921 -0.00010038,0.000292055 -0.000246408,0.000574804 -0.000439856,0.000852234 -0.000131181,0.000186135 -0.000282748,0.000344794 -0.000452486,0.000476196 -0.000169738,0.00012963 -0.000350333,0.000228237 -0.000543781,0.000297595 -0.000191675,6.73633e-005 -0.000388668,0.000102153 -0.000591201,0.000102153 -0.000204306,-1.77272e-006 -0.00037781,-4.2102e-005 -0.000520071,-0.000120545 -0.000140488,-7.84427e-005 -0.00024818,-0.000189681 -0.000321083,-0.000331941 -7.31246e-005,-0.000142482 -0.00011146,-0.000308453 -0.00011146,-0.000500128 0,-0.00024818 6.02724e-005,-0.000489048 0.000178823,-0.000722604 0.000120545,-0.000233556 0.000297595,-0.000452486 0.000532923,-0.000656792 8.39825e-005,-6.93576e-005 0.000151346,-0.00012409 0.000204306,-0.000166192 5.11872e-005,-4.01077e-005 7.84427e-005,-7.667e-005 8.04371e-005,-0.000107693 0,-1.63976e-005 -5.53974e-006,-2.90282e-005 -1.28522e-005,-4.01077e-005 -9.08518e-006,-9.08518e-006 -2.01647e-005,-1.46249e-005 -3.10226e-005,-1.46249e-005 -1.28522e-005,0 -4.74202e-005,1.63976e-005 -0.00010592,4.94145e-005 -5.65054e-005,3.27953e-005 -0.000127636,8.19882e-005 -0.000211618,0.0001478 -0.000262805,0.000226243 -0.000459799,0.000467111 -0.000591201,0.000726149 -0.000131403,0.000257266 -0.000196993,0.000527383 -0.000196993,0.000806586 1.77272e-006,0.000235328 5.47326e-005,0.000437861 0.000156885,0.000609372 0.000103926,0.000171732 0.000251726,0.000304907 0.000445174,0.000397975 0.000191675,9.30677e-005 0.000421464,0.000140488 0.000689809,0.000142261 0.000220703,0 0.000443401,-3.10226e-005 0.000667871,-9.30677e-005 0.000226243,-6.20451e-005 0.000445174,-0.000151346 0.000660559,-0.000270118 0.000215385,-0.00011855 0.000419691,-0.000264578 0.000609593,-0.000436088 0.000182368,-0.000165971 0.000337481,-0.000344794 0.000461571,-0.000540014 0.000125863,-0.000193448 0.000220703,-0.000394208 0.000284743,-0.000602281 6.38178e-005,-0.000208073 9.66131e-005,-0.000414151 9.66131e-005,-0.000620451 -1.77272e-006,-0.000306459 -6.38178e-005,-0.000569264 -0.000186135,-0.000790189 -0.000122318,-0.000222476 -0.000288288,-0.000403293 -0.000499906,-0.000545554 -0.00021184,-0.000142261 -0.000452708,-0.00024818 -0.000726371,-0.000317538 0.000379583,-0.000111238 0.000698894,-0.000255493 0.000958154,-0.000434316 0.000257266,-0.000178823 0.000452486,-0.000383129 0.000583889,-0.000613139 0.000133175,-0.000231783 0.000198766,-0.000479742 0.000198766,-0.000748087 0,-0.000308453 -8.37609e-005,-0.000594968 -0.000253499,-0.000857552 -0.000167965,-0.0002648 -0.000419691,-0.000492815 -0.000753626,-0.000686263 0.000105698,-7.11303e-005 0.000198766,-0.000127636 0.000275436,-0.000165971 7.667e-005,-3.8335e-005 0.00013517,-7.11303e-005 0.00017705,-9.48404e-005 4.01077e-005,-2.57044e-005 6.20451e-005,-5.11872e-005 6.20451e-005,-7.86643e-005 0,-2.17158e-005 -3.27953e-005,-3.27953e-005 -9.86074e-005,-3.27953e-005 -4.91929e-005,1.77272e-006 -0.000125863,2.74771e-005 -0.000231783,8.04371e-005 -0.000107471,5.27383e-005 -0.000244413,0.000120323 -0.000414151,0.000204306 -0.000348561,-0.000136942 -0.000698894,-0.000239095 -0.001051,-0.000304686 -0.000352328,-6.75849e-005 -0.000713519,-0.00010038 -0.00108402,-0.00010038 -0.000240868,0 -0.000489048,1.81704e-005 -0.000748087,5.09656e-005 -0.00025926,3.47896e-005 -0.000527383,7.84427e-005 -0.000806586,0.00013517 -0.000202533,-0.0001478 -0.000421464,-0.000257266 -0.000658786,-0.00033039 -0.000239095,-7.11303e-005 -0.000496361,-0.000107693 -0.000775564,-0.000107693 -0.000410606,0 -0.000801047,7.48973e-005 -0.00117332,0.000220925 -0.000372271,0.0001478 -0.000715291,0.000361191 -0.00102906,0.000645934 -0.000313993,0.000282748 -0.000591423,0.000627764 -0.000830297,0.00103837 -0.000115005,0.000196993 -0.00020076,0.000368504 -0.000255493,0.000510764 -5.6727e-005,0.000144255 -8.39825e-005,0.00025372 -8.39825e-005,0.000332163 0,2.19374e-005 0,3.8335e-005 3.54543e-006,4.94145e-005 1.99431e-006,1.08579e-005 7.31246e-006,1.63976e-005 1.83919e-005,1.63976e-005 2.90282e-005,-1.99431e-006 5.47326e-005,-2.19374e-005 7.84427e-005,-6.40394e-005 2.19374e-005,-4.01077e-005 4.74202e-005,-9.66131e-005 7.46757e-005,-0.000164198 2.57044e-005,-6.93576e-005 5.84997e-005,-0.0001478 9.86074e-005,-0.000231783 0.000231783,-0.000472429 0.000507219,-0.000872177 0.000828524,-0.00120057 0.000321083,-0.00033039 0.000675184,-0.000580343 0.00106208,-0.000751854 0.000386674,-0.00017151 0.00079728,-0.000259038 0.00122982,-0.000259038 0.00023001,0 0.000441628,2.72555e-005 0.000636849,8.37609e-005 0.000195221,5.47326e-005 0.000375816,0.000140709 0.000545554,0.000255493 -0.000600286,0.000198988 -0.00112944,0.000443401 -0.00159124,0.000733683 -0.000461571,0.000288288 -0.000848467,0.000605826 -0.00116423,0.000948847 -0.000313771,0.000343021 -0.000552866,0.000695348 -0.000713297,0.00105654 -0.000160653,0.000361413 -0.000242862,0.000715291 -0.000242862,0.00106031 1.99431e-006,0.000249953 5.47326e-005,0.000467111 0.000162425,0.000651252 0.00010592,0.000184363 0.00025926,0.000328617 0.000459799,0.00043077 0.00020076,0.000102153 0.000441628,0.00015334 0.000724598,0.000155113 0.000231783,0 0.000465338,-3.8335e-005 0.000702439,-0.000111238 0.000237323,-7.48973e-005 0.000472651,-0.000184363 0.000704434,-0.000328617 0.000233556,-0.000144033 0.000458026,-0.000322856 0.000673411,-0.000534696 0.000242641,-0.000244413 0.000448719,-0.000512759 0.000622224,-0.000806365 0.000173283,-0.000293828 0.000304686,-0.000596741 0.000397753,-0.000905194 9.30677e-005,-0.000308453 0.000140488,-0.000605826 0.000140488,-0.000894114 -1.77272e-006,-0.000304686 -4.74202e-005,-0.000569264 -0.000134948,-0.000791961 -8.95222e-005,-0.000222698 -0.000208073,-0.000414151 -0.000357646,-0.000576576 0.000240868,-5.47326e-005 0.000474423,-9.68347e-005 0.000704212,-0.00012409 0.000228237,-2.74771e-005 0.000458026,-4.03293e-005 0.000686263,-4.03293e-005 0.000353879,-1.77272e-006 0.000691581,3.10226e-005 0.00100912,9.5062e-005 0.000317538,6.55905e-005 0.000623997,0.000167743 0.000917824,0.000310226 -0.000350333,0.000257266 -0.000667871,0.000510764 -0.000954387,0.000762712 -0.000284743,0.000251726 -0.000540236,0.000501679 -0.000764484,0.000748087 -0.000220925,0.00024818 -0.000425231,0.000516526 -0.000613139,0.000801047 -0.00018813,0.000286515 -0.000368725,0.000585883 -0.000543781,0.000899654 -0.000175277,0.000313993 -0.000355873,0.000638621 -0.000540236,0.000970784 -0.000375816,0.000680723 -0.000742769,0.00125553 -0.00109864,0.00172641 -0.000355651,0.000468884 -0.000717064,0.000826529 -0.00108202,0.00106917 -0.000366731,0.000244635 -0.000751854,0.000366731 -0.00115869,0.000368725 -0.000142261,0 -0.000262805,-2.19374e-005 -0.000363185,-6.40394e-005 -9.86074e-005,-4.01077e-005 -0.000175056,-9.48404e-005 -0.000226243,-0.000164198 -5.11872e-005,-6.93576e-005 -7.84427e-005,-0.000145806 -7.84427e-005,-0.000231783 1.77272e-006,-4.01077e-005 1.46249e-005,-8.02155e-005 3.65623e-005,-0.000123869 2.37101e-005,-4.2102e-005 4.54259e-005,-8.95222e-005 6.93576e-005,-0.000142482 2.17158e-005,-5.29599e-005 3.4568e-005,-0.000113011 3.63407e-005,-0.000182368 -3.54543e-006,-0.000144255 -4.56475e-005,-0.000261033 -0.000129408,-0.000346788 -8.39825e-005,-8.75279e-005 -0.000189902,-0.000133175 -0.000319532,-0.000134948 -9.66131e-005,0 -0.000184141,2.37101e-005 -0.000262584,6.93576e-005 -7.86643e-005,4.54259e-005 -0.000142482,0.000111238 -0.000189902,0.000196993 -4.74202e-005,8.39825e-005 -7.11303e-005,0.000186135 -7.2903e-005,0.000302913 1.77272e-006,0.000184363 5.65054e-005,0.000352106 0.000167743,0.000501901 0.00011146,0.000149573 0.000270118,0.000268124 0.000478191,0.000357646 0.000206078,8.93006e-005 0.000454259,0.000134948 0.000744541,0.000136721 0.000353879,0 0.000722604,-7.46757e-005 0.00110396,-0.00022447 0.000381356,-0.0001478 0.000764484,-0.000368504 0.00114961,-0.000662332 0.000386896,-0.000293828 0.000762712,-0.000657013 0.00113321,-0.00108933 0.000368504,-0.000434316 0.000717064,-0.000936216 0.00104745,-0.00150548 0.000164198,-0.000295601 0.000328396,-0.000605826 0.000494588,-0.000936216 0.000164198,-0.000328396 0.000344794,-0.000662332 0.000540014,-0.00100358 0.000195221,-0.000339475 0.000423458,-0.000675184 0.000680723,-0.00100535 0.000257266,-0.00033039 0.000561951,-0.000644161 0.000912285,-0.000941756zm-0.00379915 -0.000339254c0.000115005,0.000140488 0.00020076,0.000291834 0.000255493,0.000450713 5.65054e-005,0.000160431 8.39825e-005,0.000339254 8.39825e-005,0.000534696 0,0.000443401 -9.30677e-005,0.000883035 -0.000280976,0.00131558 -0.000186135,0.000434316 -0.000469105,0.000855779 -0.000846916,0.00126816 -0.000209845,0.000226243 -0.000419691,0.000414373 -0.000631309,0.000565718 -0.000211618,0.000151567 -0.000417918,0.000264578 -0.000616684,0.000339475 -0.000198988,7.46757e-005 -0.000385123,0.000113011 -0.000558406,0.000113011 -0.000222698,-1.77272e-006 -0.000412378,-4.54259e-005 -0.000569485,-0.000134948 -0.000156885,-8.75279e-005 -0.000275436,-0.000211618 -0.000357646,-0.000368504 -8.19882e-005,-0.00015888 -0.00012409,-0.000345015 -0.00012409,-0.000558406 0,-0.000228237 5.11872e-005,-0.000470878 0.000151567,-0.000731911 0.000102153,-0.000259038 0.000251726,-0.000523616 0.000450713,-0.000791961 0.000198988,-0.000268124 0.000445174,-0.000527162 0.000739002,-0.000779109 0.000293828,-0.000249953 0.000633303,-0.000481736 0.0010182,-0.000691581 0.000385123,-0.000209845 0.000813899,-0.000386896 0.00128655,-0.000530929z"/>
    <path id="_1640630321" class="fil2 str1" d="M0.0132805 0.00698539c0.000180817,0.00013517 0.000313993,0.000290282 0.000397753,0.000465338 8.59768e-005,0.000173505 0.00012963,0.000372271 0.000127857,0.000596741 -1.77272e-006,0.000213612 -3.27953e-005,0.000416145 -9.30677e-005,0.000609593 -6.20451e-005,0.000193448 -0.000144255,0.000370276 -0.000246408,0.000530929 -0.000102153,0.000162425 -0.000215385,0.000302913 -0.000339254,0.000421464 -0.00012409,0.000118772 -0.000250175,0.00021184 -0.000376038,0.000275658 -0.000127636,6.55905e-005 -0.000246408,9.83858e-005 -0.000357646,0.00010038 -7.667e-005,-1.99431e-006 -0.000158658,-1.10795e-005 -0.000244413,-2.74771e-005 -8.57552e-005,-1.63976e-005 -0.00017705,-2.54828e-005 -0.000270118,-2.72555e-005 -0.000125863,0 -0.000218931,1.99431e-005 -0.000280976,6.20451e-005 -6.02724e-005,4.18804e-005 -9.12949e-005,0.000107471 -9.12949e-005,0.000200539 0,0.00015334 9.86074e-005,0.00023001 0.000295601,0.00023001 9.12949e-005,-1.77272e-006 0.000178823,-1.81704e-005 0.000262805,-4.91929e-005 8.39825e-005,-2.92498e-005 0.000164198,-5.84997e-005 0.000240868,-8.95222e-005 7.667e-005,-2.92498e-005 0.000149573,-4.56475e-005 0.000218931,-4.74202e-005 9.86074e-005,0 0.000198988,2.92498e-005 0.000302913,8.75279e-005 0.000103926,5.84997e-005 0.00020076,0.000144255 0.000290061,0.000255493 8.95222e-005,0.00011146 0.000162425,0.000246408 0.000219152,0.000405066 5.65054e-005,0.000160653 8.37609e-005,0.000341248 8.57552e-005,0.000543781 0,0.000272112 -5.11872e-005,0.000553088 -0.000151567,0.000844921 -0.00010038,0.000292055 -0.000246408,0.000574804 -0.000439856,0.000852234 -0.000131181,0.000186135 -0.000282748,0.000344794 -0.000452486,0.000476196 -0.000169738,0.00012963 -0.000350333,0.000228237 -0.000543781,0.000297595 -0.000191675,6.73633e-005 -0.000388668,0.000102153 -0.000591201,0.000102153 -0.000204306,-1.77272e-006 -0.00037781,-4.2102e-005 -0.000520071,-0.000120545 -0.000140488,-7.84427e-005 -0.00024818,-0.000189681 -0.000321083,-0.000331941 -7.31246e-005,-0.000142482 -0.00011146,-0.000308453 -0.00011146,-0.000500128 0,-0.00024818 6.02724e-005,-0.000489048 0.000178823,-0.000722604 0.000120545,-0.000233556 0.000297595,-0.000452486 0.000532923,-0.000656792 8.39825e-005,-6.93576e-005 0.000151346,-0.00012409 0.000204306,-0.000166192 5.11872e-005,-4.01077e-005 7.84427e-005,-7.667e-005 8.04371e-005,-0.000107693 0,-1.63976e-005 -5.53974e-006,-2.90282e-005 -1.28522e-005,-4.01077e-005 -9.08518e-006,-9.08518e-006 -2.01647e-005,-1.46249e-005 -3.10226e-005,-1.46249e-005 -1.28522e-005,0 -4.74202e-005,1.63976e-005 -0.00010592,4.94145e-005 -5.65054e-005,3.27953e-005 -0.000127636,8.19882e-005 -0.000211618,0.0001478 -0.000262805,0.000226243 -0.000459799,0.000467111 -0.000591201,0.000726149 -0.000131403,0.000257266 -0.000196993,0.000527383 -0.000196993,0.000806586 1.77272e-006,0.000235328 5.47326e-005,0.000437861 0.000156885,0.000609372 0.000103926,0.000171732 0.000251726,0.000304907 0.000445174,0.000397975 0.000191675,9.30677e-005 0.000421464,0.000140488 0.000689809,0.000142261 0.000220703,0 0.000443401,-3.10226e-005 0.000667871,-9.30677e-005 0.000226243,-6.20451e-005 0.000445174,-0.000151346 0.000660559,-0.000270118 0.000215385,-0.00011855 0.000419691,-0.000264578 0.000609593,-0.000436088 0.000182368,-0.000165971 0.000337481,-0.000344794 0.000461571,-0.000540014 0.000125863,-0.000193448 0.000220703,-0.000394208 0.000284743,-0.000602281 6.38178e-005,-0.000208073 9.66131e-005,-0.000414151 9.66131e-005,-0.000620451 -1.77272e-006,-0.000306459 -6.38178e-005,-0.000569264 -0.000186135,-0.000790189 -0.000122318,-0.000222476 -0.000288288,-0.000403293 -0.000499906,-0.000545554 -0.00021184,-0.000142261 -0.000452708,-0.00024818 -0.000726371,-0.000317538 0.000379583,-0.000111238 0.000698894,-0.000255493 0.000958154,-0.000434316 0.000257266,-0.000178823 0.000452486,-0.000383129 0.000583889,-0.000613139 0.000133175,-0.000231783 0.000198766,-0.000479742 0.000198766,-0.000748087 0,-0.000308453 -8.37609e-005,-0.000594968 -0.000253499,-0.000857552 -0.000167965,-0.0002648 -0.000419691,-0.000492815 -0.000753626,-0.000686263 0.000105698,-7.11303e-005 0.000198766,-0.000127636 0.000275436,-0.000165971 7.667e-005,-3.8335e-005 0.00013517,-7.11303e-005 0.00017705,-9.48404e-005 4.01077e-005,-2.57044e-005 6.20451e-005,-5.11872e-005 6.20451e-005,-7.86643e-005 0,-2.17158e-005 -3.27953e-005,-3.27953e-005 -9.86074e-005,-3.27953e-005 -4.91929e-005,1.77272e-006 -0.000125863,2.74771e-005 -0.000231783,8.04371e-005 -0.000107471,5.27383e-005 -0.000244413,0.000120323 -0.000414151,0.000204306 -0.000348561,-0.000136942 -0.000698894,-0.000239095 -0.001051,-0.000304686 -0.000352328,-6.75849e-005 -0.000713519,-0.00010038 -0.00108402,-0.00010038 -0.000240868,0 -0.000489048,1.81704e-005 -0.000748087,5.09656e-005 -0.00025926,3.47896e-005 -0.000527383,7.84427e-005 -0.000806586,0.00013517 -0.000202533,-0.0001478 -0.000421464,-0.000257266 -0.000658786,-0.00033039 -0.000239095,-7.11303e-005 -0.000496361,-0.000107693 -0.000775564,-0.000107693 -0.000410606,0 -0.000801047,7.48973e-005 -0.00117332,0.000220925 -0.000372271,0.0001478 -0.000715291,0.000361191 -0.00102906,0.000645934 -0.000313993,0.000282748 -0.000591423,0.000627764 -0.000830297,0.00103837 -0.000115005,0.000196993 -0.00020076,0.000368504 -0.000255493,0.000510764 -5.6727e-005,0.000144255 -8.39825e-005,0.00025372 -8.39825e-005,0.000332163 0,2.19374e-005 0,3.8335e-005 3.54543e-006,4.94145e-005 1.99431e-006,1.08579e-005 7.31246e-006,1.63976e-005 1.83919e-005,1.63976e-005 2.90282e-005,-1.99431e-006 5.47326e-005,-2.19374e-005 7.84427e-005,-6.40394e-005 2.19374e-005,-4.01077e-005 4.74202e-005,-9.66131e-005 7.46757e-005,-0.000164198 2.57044e-005,-6.93576e-005 5.84997e-005,-0.0001478 9.86074e-005,-0.000231783 0.000231783,-0.000472429 0.000507219,-0.000872177 0.000828524,-0.00120057 0.000321083,-0.00033039 0.000675184,-0.000580343 0.00106208,-0.000751854 0.000386674,-0.00017151 0.00079728,-0.000259038 0.00122982,-0.000259038 0.00023001,0 0.000441628,2.72555e-005 0.000636849,8.37609e-005 0.000195221,5.47326e-005 0.000375816,0.000140709 0.000545554,0.000255493 -0.000600286,0.000198988 -0.00112944,0.000443401 -0.00159124,0.000733683 -0.000461571,0.000288288 -0.000848467,0.000605826 -0.00116423,0.000948847 -0.000313771,0.000343021 -0.000552866,0.000695348 -0.000713297,0.00105654 -0.000160653,0.000361413 -0.000242862,0.000715291 -0.000242862,0.00106031 1.99431e-006,0.000249953 5.47326e-005,0.000467111 0.000162425,0.000651252 0.00010592,0.000184363 0.00025926,0.000328617 0.000459799,0.00043077 0.00020076,0.000102153 0.000441628,0.00015334 0.000724598,0.000155113 0.000231783,0 0.000465338,-3.8335e-005 0.000702439,-0.000111238 0.000237323,-7.48973e-005 0.000472651,-0.000184363 0.000704434,-0.000328617 0.000233556,-0.000144033 0.000458026,-0.000322856 0.000673411,-0.000534696 0.000242641,-0.000244413 0.000448719,-0.000512759 0.000622224,-0.000806365 0.000173283,-0.000293828 0.000304686,-0.000596741 0.000397753,-0.000905194 9.30677e-005,-0.000308453 0.000140488,-0.000605826 0.000140488,-0.000894114 -1.77272e-006,-0.000304686 -4.74202e-005,-0.000569264 -0.000134948,-0.000791961 -8.95222e-005,-0.000222698 -0.000208073,-0.000414151 -0.000357646,-0.000576576 0.000240868,-5.47326e-005 0.000474423,-9.68347e-005 0.000704212,-0.00012409 0.000228237,-2.74771e-005 0.000458026,-4.03293e-005 0.000686263,-4.03293e-005 0.000353879,-1.77272e-006 0.000691581,3.10226e-005 0.00100912,9.5062e-005 0.000317538,6.55905e-005 0.000623997,0.000167743 0.000917824,0.000310226 -0.000350333,0.000257266 -0.000667871,0.000510764 -0.000954387,0.000762712 -0.000284743,0.000251726 -0.000540236,0.000501679 -0.000764484,0.000748087 -0.000220925,0.00024818 -0.000425231,0.000516526 -0.000613139,0.000801047 -0.00018813,0.000286515 -0.000368725,0.000585883 -0.000543781,0.000899654 -0.000175277,0.000313993 -0.000355873,0.000638621 -0.000540236,0.000970784 -0.000375816,0.000680723 -0.000742769,0.00125553 -0.00109864,0.00172641 -0.000355651,0.000468884 -0.000717064,0.000826529 -0.00108202,0.00106917 -0.000366731,0.000244635 -0.000751854,0.000366731 -0.00115869,0.000368725 -0.000142261,0 -0.000262805,-2.19374e-005 -0.000363185,-6.40394e-005 -9.86074e-005,-4.01077e-005 -0.000175056,-9.48404e-005 -0.000226243,-0.000164198 -5.11872e-005,-6.93576e-005 -7.84427e-005,-0.000145806 -7.84427e-005,-0.000231783 1.77272e-006,-4.01077e-005 1.46249e-005,-8.02155e-005 3.65623e-005,-0.000123869 2.37101e-005,-4.2102e-005 4.54259e-005,-8.95222e-005 6.93576e-005,-0.000142482 2.17158e-005,-5.29599e-005 3.4568e-005,-0.000113011 3.63407e-005,-0.000182368 -3.54543e-006,-0.000144255 -4.56475e-005,-0.000261033 -0.000129408,-0.000346788 -8.39825e-005,-8.75279e-005 -0.000189902,-0.000133175 -0.000319532,-0.000134948 -9.66131e-005,0 -0.000184141,2.37101e-005 -0.000262584,6.93576e-005 -7.86643e-005,4.54259e-005 -0.000142482,0.000111238 -0.000189902,0.000196993 -4.74202e-005,8.39825e-005 -7.11303e-005,0.000186135 -7.2903e-005,0.000302913 1.77272e-006,0.000184363 5.65054e-005,0.000352106 0.000167743,0.000501901 0.00011146,0.000149573 0.000270118,0.000268124 0.000478191,0.000357646 0.000206078,8.93006e-005 0.000454259,0.000134948 0.000744541,0.000136721 0.000353879,0 0.000722604,-7.46757e-005 0.00110396,-0.00022447 0.000381356,-0.0001478 0.000764484,-0.000368504 0.00114961,-0.000662332 0.000386896,-0.000293828 0.000762712,-0.000657013 0.00113321,-0.00108933 0.000368504,-0.000434316 0.000717064,-0.000936216 0.00104745,-0.00150548 0.000164198,-0.000295601 0.000328396,-0.000605826 0.000494588,-0.000936216 0.000164198,-0.000328396 0.000344794,-0.000662332 0.000540014,-0.00100358 0.000195221,-0.000339475 0.000423458,-0.000675184 0.000680723,-0.00100535 0.000257266,-0.00033039 0.000561951,-0.000644161 0.000912285,-0.000941756zm-0.00379915 -0.000339254c0.000115005,0.000140488 0.00020076,0.000291834 0.000255493,0.000450713 5.65054e-005,0.000160431 8.39825e-005,0.000339254 8.39825e-005,0.000534696 0,0.000443401 -9.30677e-005,0.000883035 -0.000280976,0.00131558 -0.000186135,0.000434316 -0.000469105,0.000855779 -0.000846916,0.00126816 -0.000209845,0.000226243 -0.000419691,0.000414373 -0.000631309,0.000565718 -0.000211618,0.000151567 -0.000417918,0.000264578 -0.000616684,0.000339475 -0.000198988,7.46757e-005 -0.000385123,0.000113011 -0.000558406,0.000113011 -0.000222698,-1.77272e-006 -0.000412378,-4.54259e-005 -0.000569485,-0.000134948 -0.000156885,-8.75279e-005 -0.000275436,-0.000211618 -0.000357646,-0.000368504 -8.19882e-005,-0.00015888 -0.00012409,-0.000345015 -0.00012409,-0.000558406 0,-0.000228237 5.11872e-005,-0.000470878 0.000151567,-0.000731911 0.000102153,-0.000259038 0.000251726,-0.000523616 0.000450713,-0.000791961 0.000198988,-0.000268124 0.000445174,-0.000527162 0.000739002,-0.000779109 0.000293828,-0.000249953 0.000633303,-0.000481736 0.0010182,-0.000691581 0.000385123,-0.000209845 0.000813899,-0.000386896 0.00128655,-0.000530929z"/>
    <path id="_164062584" class="fil1" d="M0.0209077 0.0225357l0.000875944 -0.000120323 0.000273663 -0.000569485c0.000262805,-2.37101e-005 0.000496361,-7.11303e-005 0.000700667,-0.000142261 0.000202533,-7.11303e-005 0.000374265,-0.00015334 0.000514753,-0.000244635 0.000140488,-9.30677e-005 0.000246186,-0.000180596 0.000319311,-0.000268124 7.11303e-005,-8.57552e-005 0.000107693,-0.000155113 0.000107693,-0.000209845 0,-1.10795e-005 -3.76702e-006,-1.83919e-005 -1.28522e-005,-2.37101e-005 -7.31246e-006,-5.53974e-006 -1.28522e-005,-9.08518e-006 -2.01647e-005,-9.08518e-006 -3.10226e-005,1.77272e-006 -7.11303e-005,2.54828e-005 -0.000116778,6.93576e-005 -4.74202e-005,4.36532e-005 -0.000105698,9.83858e-005 -0.000178823,0.000165971 -7.11303e-005,6.75849e-005 -0.000162425,0.000134948 -0.000271891,0.000204306 -0.000109465,6.93576e-005 -0.000242641,0.00012963 -0.000401299,0.00018259 -0.000157107,5.29599e-005 -0.000345015,8.57552e-005 -0.000563946,0.00010038 0.000355873,-0.000850461 0.000739002,-0.00168253 0.00114783,-0.00249643 0.000410606,-0.000813899 0.000859546,-0.00160586 0.00135037,-0.00237588 0.000490821,-0.000770024 0.00103283,-0.00151457 0.00162957,-0.0022334 -0.000553088,0.000238874 -0.00105853,0.000505446 -0.00151457,0.000795507 -0.000456253,0.000290061 -0.000875944,0.000594968 -0.00125553,0.000916052 -0.000379583,0.000321083 -0.000731689,0.000647707 -0.00105654,0.000981642 -0.00032485,0.000332163 -0.000633303,0.000660559 -0.000925137,0.000985409 -0.000220925,-0.000388668 -0.000463566,-0.000695127 -0.000722604,-0.00092137 -0.000261033,-0.000226243 -0.000525611,-0.000386896 -0.000790189,-0.000481736 -0.000266351,-9.68347e-005 -0.000516526,-0.000142482 -0.000753626,-0.000140488 -0.000231783,0 -0.000448941,3.81134e-005 -0.000653246,0.000116778 -0.000204527,7.64484e-005 -0.00038335,0.000187908 -0.000540236,0.000333936 -0.000156885,0.0001478 -0.000279203,0.000326623 -0.000366731,0.000538241 -8.95222e-005,0.000209845 -0.00013517,0.000450713 -0.000136942,0.000718837 0,0.000452708 0.000115005,0.000885029 0.000346788,0.00129386 0.000229788,0.000410606 0.000578349,0.000804814 0.00104369,0.00118063 -0.000549099,0.000492815 -0.00114052,0.000866859 -0.00177538,0.00112036 -0.000635076,0.000251947 -0.00130472,0.000379583 -0.00201292,0.000379583 -0.000574804,-1.77272e-006 -0.00106562,-8.39825e-005 -0.00147424,-0.000242641 -0.00040706,-0.000158658 -0.000719058,-0.000379583 -0.000934444,-0.000660559 -0.000217158,-0.000280976 -0.000326623,-0.000607599 -0.000328396,-0.00097987 1.77272e-006,-0.00030668 7.48973e-005,-0.000598514 0.000220703,-0.000874171 0.000144255,-0.000275436 0.000345015,-0.000521844 0.000604053,-0.000737229 0.000257266,-0.000215164 0.000558406,-0.000384901 0.0009032,-0.000508991 0.000343242,-0.00012409 0.000717286,-0.000187908 0.00111881,-0.000189902 0.000359418,1.99431e-006 0.000665877,5.47326e-005 0.000923143,0.000162425 0.000255493,0.00010592 0.000452708,0.000255493 0.000589429,0.000448941 0.000136942,0.000193448 0.000204527,0.000419691 0.0002063,0.000680723 0,0.000222476 -4.91929e-005,0.000432321 -0.000146028,0.000629536 -9.48404e-005,0.000195221 -0.000235328,0.000368504 -0.000419691,0.000518077 -0.000182368,0.000151567 -0.000405066,0.000268345 -0.000667871,0.0003541 -0.000261033,8.39825e-005 -0.000558406,0.000127857 -0.000890569,0.00012963 -0.000114783,0 -0.000207851,-3.76702e-006 -0.000275436,-1.10795e-005 -6.93576e-005,-5.31815e-006 -0.000113232,-9.08518e-006 -0.00012963,-1.08579e-005 -3.27953e-005,0 -5.65054e-005,5.53974e-006 -7.2903e-005,1.46249e-005 -1.63976e-005,7.31246e-006 -2.54828e-005,1.81704e-005 -2.54828e-005,2.92498e-005 0,3.8335e-005 4.36532e-005,6.73633e-005 0.000134948,8.93006e-005 8.93006e-005,2.01647e-005 0.000226243,3.10226e-005 0.000412378,3.10226e-005 0.000346788,-1.77272e-006 0.000658786,-4.91929e-005 0.000939762,-0.000144033 0.000280976,-9.5062e-005 0.000520071,-0.000228237 0.000722604,-0.00040152 0.00020076,-0.00017151 0.0003541,-0.000374043 0.000461793,-0.000609593 0.000109465,-0.000233556 0.000162204,-0.000490821 0.000164198,-0.000771797 0,-0.000226243 -4.94145e-005,-0.000436088 -0.0001478,-0.000629536 -9.68347e-005,-0.000195221 -0.000237323,-0.000364958 -0.000423458,-0.000512759 -0.000184363,-0.000146028 -0.000408833,-0.00025926 -0.000671417,-0.000341248 -0.000262805,-8.22098e-005 -0.000560179,-0.00012409 -0.000892342,-0.000125863 -0.000310226,1.77272e-006 -0.000609593,4.18804e-005 -0.000897881,0.000125863 -0.000288288,8.19882e-005 -0.000554639,0.000198766 -0.000801047,0.000350333 -0.000246408,0.000151346 -0.000461571,0.000332163 -0.000647707,0.000540236 -0.000184363,0.000209845 -0.000326845,0.000439634 -0.00043077,0.000693354 -0.000102153,0.00025372 -0.000155113,0.000521844 -0.000156885,0.000808359 1.77272e-006,0.000465338 0.00012409,0.000870404 0.000363185,0.00121343 0.000240868,0.000343021 0.000589429,0.000609593 0.00104369,0.000799274 0.00045448,0.000187908 0.00100358,0.00028297 0.00164774,0.000286515 0.000720831,0 0.00140333,-0.00012963 0.00204926,-0.000386896 0.000644161,-0.000257266 0.00126461,-0.000642167 0.00185958,-0.00115692 0.000337481,0.00022447 0.000680502,0.00040152 0.00103084,0.000534696 0.000350555,0.000131403 0.000717286,0.000215385 0.00110418,0.00025372 -4.94145e-005,0.000120323 -9.86074e-005,0.000246186 -0.000149795,0.000374043 -4.91929e-005,0.000127636 -0.000102153,0.000255493 -0.000156885,0.000381356zm0.000799274 -0.00179554c2.74771e-005,-0.000164198 4.91929e-005,-0.000323078 6.38178e-005,-0.000476418 1.63976e-005,-0.000153118 2.37101e-005,-0.000300919 2.37101e-005,-0.000443401 0,-0.000262584 -1.81704e-005,-0.000514531 -5.47326e-005,-0.000753626 -3.63407e-005,-0.000237101 -8.75279e-005,-0.000461571 -0.000153118,-0.000669644 0.000755399,-0.000864865 0.00146515,-0.00157484 0.00213125,-0.0021277 0.000666099,-0.000554639 0.0012901,-0.000954387 0.00187598,-0.00120079 -0.000479963,0.000520071 -0.000949069,0.00107316 -0.00140709,0.00165705 -0.000458026,0.000585662 -0.000895887,0.00120988 -0.00131381,0.00187398 -0.000417918,0.000666099 -0.000806586,0.00137962 -0.001166,0.00214056zm-0.000427003 0.000886802c-0.000394208,-3.65623e-005 -0.000760939,-0.00011855 -0.00110219,-0.000244413 -0.000343021,-0.00012409 -0.000660559,-0.000299368 -0.000956159,-0.000522065 0.000397753,-0.000374043 0.000777337,-0.000758945 0.00114229,-0.00115493 0.000366731,-0.000395981 0.000733683,-0.000791961 0.00110219,-0.00118794 6.02724e-005,0.000196993 0.000103926,0.000405066 0.000133175,0.000625769 2.92498e-005,0.000218931 4.2102e-005,0.000452486 4.2102e-005,0.000698894 0,0.000310226 -2.92498e-005,0.000609593 -8.95222e-005,0.000901427 -6.02724e-005,0.000290282 -0.000151346,0.000583889 -0.000271891,0.000883256zm-0.00220061 -0.000854007c-0.000255493,-0.000195221 -0.000465338,-0.000397753 -0.000633303,-0.000604053 -0.000165971,-0.000208073 -0.000290061,-0.000427003 -0.000372271,-0.000656792 -8.19882e-005,-0.00023001 -0.000122318,-0.000478191 -0.000122318,-0.000742769 1.99431e-006,-0.00025372 4.38748e-005,-0.000485503 0.000127857,-0.000697121 8.39825e-005,-0.000211618 0.000198766,-0.000395981 0.000344794,-0.000551094 0.000146028,-0.000156885 0.000313993,-0.000277209 0.000501901,-0.000362964 0.000189681,-8.59768e-005 0.000390441,-0.000127857 0.000602059,-0.00012963 0.000390663,0 0.000740996,0.000111238 0.00105477,0.000335708 0.000311998,0.000222698 0.000582116,0.000556633 0.000806586,0.00100003 -0.000357646,0.000395981 -0.000724377,0.000799274 -0.00110219,0.00120789 -0.000375816,0.000408833 -0.000777337,0.000810353 -0.00120789,0.00120079z"/>
    <path id="_1640625841" class="fil2 str1" d="M0.0209077 0.0225357l0.000875944 -0.000120323 0.000273663 -0.000569485c0.000262805,-2.37101e-005 0.000496361,-7.11303e-005 0.000700667,-0.000142261 0.000202533,-7.11303e-005 0.000374265,-0.00015334 0.000514753,-0.000244635 0.000140488,-9.30677e-005 0.000246186,-0.000180596 0.000319311,-0.000268124 7.11303e-005,-8.57552e-005 0.000107693,-0.000155113 0.000107693,-0.000209845 0,-1.10795e-005 -3.76702e-006,-1.83919e-005 -1.28522e-005,-2.37101e-005 -7.31246e-006,-5.53974e-006 -1.28522e-005,-9.08518e-006 -2.01647e-005,-9.08518e-006 -3.10226e-005,1.77272e-006 -7.11303e-005,2.54828e-005 -0.000116778,6.93576e-005 -4.74202e-005,4.36532e-005 -0.000105698,9.83858e-005 -0.000178823,0.000165971 -7.11303e-005,6.75849e-005 -0.000162425,0.000134948 -0.000271891,0.000204306 -0.000109465,6.93576e-005 -0.000242641,0.00012963 -0.000401299,0.00018259 -0.000157107,5.29599e-005 -0.000345015,8.57552e-005 -0.000563946,0.00010038 0.000355873,-0.000850461 0.000739002,-0.00168253 0.00114783,-0.00249643 0.000410606,-0.000813899 0.000859546,-0.00160586 0.00135037,-0.00237588 0.000490821,-0.000770024 0.00103283,-0.00151457 0.00162957,-0.0022334 -0.000553088,0.000238874 -0.00105853,0.000505446 -0.00151457,0.000795507 -0.000456253,0.000290061 -0.000875944,0.000594968 -0.00125553,0.000916052 -0.000379583,0.000321083 -0.000731689,0.000647707 -0.00105654,0.000981642 -0.00032485,0.000332163 -0.000633303,0.000660559 -0.000925137,0.000985409 -0.000220925,-0.000388668 -0.000463566,-0.000695127 -0.000722604,-0.00092137 -0.000261033,-0.000226243 -0.000525611,-0.000386896 -0.000790189,-0.000481736 -0.000266351,-9.68347e-005 -0.000516526,-0.000142482 -0.000753626,-0.000140488 -0.000231783,0 -0.000448941,3.81134e-005 -0.000653246,0.000116778 -0.000204527,7.64484e-005 -0.00038335,0.000187908 -0.000540236,0.000333936 -0.000156885,0.0001478 -0.000279203,0.000326623 -0.000366731,0.000538241 -8.95222e-005,0.000209845 -0.00013517,0.000450713 -0.000136942,0.000718837 0,0.000452708 0.000115005,0.000885029 0.000346788,0.00129386 0.000229788,0.000410606 0.000578349,0.000804814 0.00104369,0.00118063 -0.000549099,0.000492815 -0.00114052,0.000866859 -0.00177538,0.00112036 -0.000635076,0.000251947 -0.00130472,0.000379583 -0.00201292,0.000379583 -0.000574804,-1.77272e-006 -0.00106562,-8.39825e-005 -0.00147424,-0.000242641 -0.00040706,-0.000158658 -0.000719058,-0.000379583 -0.000934444,-0.000660559 -0.000217158,-0.000280976 -0.000326623,-0.000607599 -0.000328396,-0.00097987 1.77272e-006,-0.00030668 7.48973e-005,-0.000598514 0.000220703,-0.000874171 0.000144255,-0.000275436 0.000345015,-0.000521844 0.000604053,-0.000737229 0.000257266,-0.000215164 0.000558406,-0.000384901 0.0009032,-0.000508991 0.000343242,-0.00012409 0.000717286,-0.000187908 0.00111881,-0.000189902 0.000359418,1.99431e-006 0.000665877,5.47326e-005 0.000923143,0.000162425 0.000255493,0.00010592 0.000452708,0.000255493 0.000589429,0.000448941 0.000136942,0.000193448 0.000204527,0.000419691 0.0002063,0.000680723 0,0.000222476 -4.91929e-005,0.000432321 -0.000146028,0.000629536 -9.48404e-005,0.000195221 -0.000235328,0.000368504 -0.000419691,0.000518077 -0.000182368,0.000151567 -0.000405066,0.000268345 -0.000667871,0.0003541 -0.000261033,8.39825e-005 -0.000558406,0.000127857 -0.000890569,0.00012963 -0.000114783,0 -0.000207851,-3.76702e-006 -0.000275436,-1.10795e-005 -6.93576e-005,-5.31815e-006 -0.000113232,-9.08518e-006 -0.00012963,-1.08579e-005 -3.27953e-005,0 -5.65054e-005,5.53974e-006 -7.2903e-005,1.46249e-005 -1.63976e-005,7.31246e-006 -2.54828e-005,1.81704e-005 -2.54828e-005,2.92498e-005 0,3.8335e-005 4.36532e-005,6.73633e-005 0.000134948,8.93006e-005 8.93006e-005,2.01647e-005 0.000226243,3.10226e-005 0.000412378,3.10226e-005 0.000346788,-1.77272e-006 0.000658786,-4.91929e-005 0.000939762,-0.000144033 0.000280976,-9.5062e-005 0.000520071,-0.000228237 0.000722604,-0.00040152 0.00020076,-0.00017151 0.0003541,-0.000374043 0.000461793,-0.000609593 0.000109465,-0.000233556 0.000162204,-0.000490821 0.000164198,-0.000771797 0,-0.000226243 -4.94145e-005,-0.000436088 -0.0001478,-0.000629536 -9.68347e-005,-0.000195221 -0.000237323,-0.000364958 -0.000423458,-0.000512759 -0.000184363,-0.000146028 -0.000408833,-0.00025926 -0.000671417,-0.000341248 -0.000262805,-8.22098e-005 -0.000560179,-0.00012409 -0.000892342,-0.000125863 -0.000310226,1.77272e-006 -0.000609593,4.18804e-005 -0.000897881,0.000125863 -0.000288288,8.19882e-005 -0.000554639,0.000198766 -0.000801047,0.000350333 -0.000246408,0.000151346 -0.000461571,0.000332163 -0.000647707,0.000540236 -0.000184363,0.000209845 -0.000326845,0.000439634 -0.00043077,0.000693354 -0.000102153,0.00025372 -0.000155113,0.000521844 -0.000156885,0.000808359 1.77272e-006,0.000465338 0.00012409,0.000870404 0.000363185,0.00121343 0.000240868,0.000343021 0.000589429,0.000609593 0.00104369,0.000799274 0.00045448,0.000187908 0.00100358,0.00028297 0.00164774,0.000286515 0.000720831,0 0.00140333,-0.00012963 0.00204926,-0.000386896 0.000644161,-0.000257266 0.00126461,-0.000642167 0.00185958,-0.00115692 0.000337481,0.00022447 0.000680502,0.00040152 0.00103084,0.000534696 0.000350555,0.000131403 0.000717286,0.000215385 0.00110418,0.00025372 -4.94145e-005,0.000120323 -9.86074e-005,0.000246186 -0.000149795,0.000374043 -4.91929e-005,0.000127636 -0.000102153,0.000255493 -0.000156885,0.000381356zm0.000799274 -0.00179554c2.74771e-005,-0.000164198 4.91929e-005,-0.000323078 6.38178e-005,-0.000476418 1.63976e-005,-0.000153118 2.37101e-005,-0.000300919 2.37101e-005,-0.000443401 0,-0.000262584 -1.81704e-005,-0.000514531 -5.47326e-005,-0.000753626 -3.63407e-005,-0.000237101 -8.75279e-005,-0.000461571 -0.000153118,-0.000669644 0.000755399,-0.000864865 0.00146515,-0.00157484 0.00213125,-0.0021277 0.000666099,-0.000554639 0.0012901,-0.000954387 0.00187598,-0.00120079 -0.000479963,0.000520071 -0.000949069,0.00107316 -0.00140709,0.00165705 -0.000458026,0.000585662 -0.000895887,0.00120988 -0.00131381,0.00187398 -0.000417918,0.000666099 -0.000806586,0.00137962 -0.001166,0.00214056zm-0.000427003 0.000886802c-0.000394208,-3.65623e-005 -0.000760939,-0.00011855 -0.00110219,-0.000244413 -0.000343021,-0.00012409 -0.000660559,-0.000299368 -0.000956159,-0.000522065 0.000397753,-0.000374043 0.000777337,-0.000758945 0.00114229,-0.00115493 0.000366731,-0.000395981 0.000733683,-0.000791961 0.00110219,-0.00118794 6.02724e-005,0.000196993 0.000103926,0.000405066 0.000133175,0.000625769 2.92498e-005,0.000218931 4.2102e-005,0.000452486 4.2102e-005,0.000698894 0,0.000310226 -2.92498e-005,0.000609593 -8.95222e-005,0.000901427 -6.02724e-005,0.000290282 -0.000151346,0.000583889 -0.000271891,0.000883256zm-0.00220061 -0.000854007c-0.000255493,-0.000195221 -0.000465338,-0.000397753 -0.000633303,-0.000604053 -0.000165971,-0.000208073 -0.000290061,-0.000427003 -0.000372271,-0.000656792 -8.19882e-005,-0.00023001 -0.000122318,-0.000478191 -0.000122318,-0.000742769 1.99431e-006,-0.00025372 4.38748e-005,-0.000485503 0.000127857,-0.000697121 8.39825e-005,-0.000211618 0.000198766,-0.000395981 0.000344794,-0.000551094 0.000146028,-0.000156885 0.000313993,-0.000277209 0.000501901,-0.000362964 0.000189681,-8.59768e-005 0.000390441,-0.000127857 0.000602059,-0.00012963 0.000390663,0 0.000740996,0.000111238 0.00105477,0.000335708 0.000311998,0.000222698 0.000582116,0.000556633 0.000806586,0.00100003 -0.000357646,0.000395981 -0.000724377,0.000799274 -0.00110219,0.00120789 -0.000375816,0.000408833 -0.000777337,0.000810353 -0.00120789,0.00120079z"/>
   </g>
  </g>
 </g>
</svg>
