<?xml version="1.0" encoding="UTF-8"?>
<!DOCTYPE svg PUBLIC "-//W3C//DTD SVG 1.1//EN" "http://www.w3.org/Graphics/SVG/1.1/DTD/svg11.dtd">
<!-- Creator: CorelDRAW -->
<svg xmlns="http://www.w3.org/2000/svg" xml:space="preserve" width="0.5in" height="0.5in" style="shape-rendering:geometricPrecision; text-rendering:geometricPrecision; image-rendering:optimizeQuality; fill-rule:evenodd; clip-rule:evenodd"
viewBox="0 0 0.0277778 0.0277778"
 xmlns:xlink="http://www.w3.org/1999/xlink">
 <defs>
  <style type="text/css">
   <![CDATA[
    .fil4 {fill:#35598B}
    .fil0 {fill:#3E4095}
    .fil5 {fill:#E3B73E}
    .fil1 {fill:#ECC13B}
    .fil2 {fill:#F4C036}
    .fil3 {fill:#3E4095;fill-rule:nonzero}
   ]]>
  </style>
 </defs>
 <g id="Train_x0020_Chart">
  <metadata id="CorelCorpID_0Corel-Layer"/>
  <g id="D_x0026_H_x0020_logo">
   <circle id="_810449168" class="fil0" cx="0.0138889" cy="0.0138889" r="0.0138889"/>
   <path id="_810449616" class="fil1" d="M0.0138889 0.00649344l2.09974e-005 0 0.00861745 0 0 0.000762248c0,0.00979856 -0.00276815,0.014743 -0.00863845,0.0186739l0 0c-0.0058703,-0.00393088 -0.00863845,-0.00887533 -0.00863845,-0.0186739l0 -0.000762248c0.00132962,0 0.00749541,0 0.00863845,0l0 0z"/>
   <g>
    <path id="_810448104" class="fil2" d="M0.0138889 0.00707655l1.9685e-005 0 0.00810039 0 0 0.000716535c0,0.00921063 -0.00260192,0.0138585 -0.00812008,0.0175536l0 0c-0.00551815,-0.0036951 -0.00812008,-0.00834296 -0.00812008,-0.0175536l0 -0.000716535c0.00124978,0 0.00704571,0 0.00812008,0l0 0z"/>
    <path id="_8104481041" class="fil3" d="M0.0139086 0.00721544l-1.9685e-005 0 0 -0.000277778 1.9685e-005 0 0 0 0 0.000277778zm0.00810039 0l-0.00810039 0 0 -0.000277778 0.00810039 0 0.000138889 0.000138889 -0.000138889 0.000138889zm0 -0.000277778l0.000138889 0 0 0.000138889 -0.000138889 -0.000138889zm-0.000138889 0.000855424l0 -0.000716535 0.000277778 0 0 0.000716535 0 0 -0.000277778 0zm-0.0080584 0.0176689l0.000154418 -0.000230534 -0.000154418 0 0.000505906 -0.00034755 0.000489064 -0.000353675 0.000471785 -0.000360017 0.000454943 -0.000367673 0.000437664 -0.000375547 0.00042126 -0.000384077 0.000404199 -0.000393482 0.000387358 -0.000403543 0.000370954 -0.000414042 0.000354331 -0.000425416 0.000337708 -0.000437664 0.00032196 -0.000449913 0.000305118 -0.000463473 0.000289151 -0.000477472 0.000272966 -0.000492345 0.000256999 -0.000507655 0.000241251 -0.000524059 0.000225284 -0.000540682 0.000209318 -0.000557962 0.00019357 -0.000576553 0.000177822 -0.000595582 0.000162073 -0.000614829 0.000146325 -0.000635171 0.000131015 -0.000656168 0.000115267 -0.00067804 9.97375e-005 -0.000699913 8.44269e-005 -0.000723097 6.88976e-005 -0.000746719 5.33683e-005 -0.000770997 3.82765e-005 -0.000795932 2.27472e-005 -0.000821522 7.65529e-006 -0.00084755 0.000277778 0 -7.65529e-006 0.0008528 -2.31846e-005 0.000826772 -3.82765e-005 0.000801619 -5.38058e-005 0.000777122 -6.97725e-005 0.000753281 -8.48644e-005 0.000729659 -0.00010105 0.000707349 -0.000116579 0.000685477 -0.000132327 0.000664042 -0.000148513 0.000643482 -0.000164261 0.000623578 -0.000180446 0.000604331 -0.000196632 0.000585302 -0.000212817 0.000567585 -0.000229221 0.000549869 -0.000245188 0.000533246 -0.000261811 0.000516842 -0.000278215 0.000501531 -0.000294401 0.000486658 -0.000311242 0.000472222 -0.000327647 0.000458661 -0.000344269 0.000445538 -0.000360892 0.00043329 -0.000377515 0.000421479 -0.00039392 0.000410105 -0.000410761 0.000400044 -0.000427384 0.000390201 -0.000444226 0.000380796 -0.000461067 0.000372485 -0.000477472 0.000364829 -0.000494751 0.000357612 -0.000511592 0.00035105 -0.000154418 0zm0.000154418 0l-7.72091e-005 5.16185e-005 -7.72091e-005 -5.16185e-005 0.000154418 0zm-7.72091e-005 -0.000115267l0 0 0 0 0 0 -7.72091e-005 0.000115267 7.72091e-005 -0.000115267zm7.72091e-005 0.000115267l-7.72091e-005 5.16185e-005 -7.72091e-005 -5.16185e-005 0.000154418 0zm-0.00833618 -0.0176689l0.000277778 0 0 0 7.65529e-006 0.00084755 2.27472e-005 0.000821522 3.82765e-005 0.000795932 5.33683e-005 0.000770997 6.88976e-005 0.000746719 8.44269e-005 0.000723097 9.97375e-005 0.000699913 0.000115267 0.00067804 0.000131015 0.000656168 0.000146325 0.000635171 0.000162073 0.000614829 0.000177822 0.000595582 0.00019357 0.000576553 0.000209318 0.000557962 0.000225284 0.000540682 0.000241251 0.000524059 0.000256999 0.000507655 0.000272966 0.000492345 0.000289151 0.000477472 0.000305118 0.000463473 0.00032196 0.000449913 0.000337708 0.000437664 0.000354331 0.000425416 0.000370954 0.000414042 0.000387358 0.000403543 0.000404199 0.000393482 0.00042126 0.000384077 0.000437664 0.000375547 0.000454943 0.000367673 0.000471785 0.000360017 0.000489064 0.000353675 0.000505906 0.00034755 -0.000154418 0.000230534 -0.000511592 -0.00035105 -0.000494751 -0.000357612 -0.000477472 -0.000364829 -0.000461067 -0.000372485 -0.000444226 -0.000380796 -0.000427384 -0.000390201 -0.000410761 -0.000400044 -0.00039392 -0.000410105 -0.000377515 -0.000421479 -0.000360892 -0.00043329 -0.000344269 -0.000445538 -0.000327647 -0.000458661 -0.000311242 -0.000472222 -0.000294401 -0.000486658 -0.000278215 -0.000501531 -0.000261811 -0.000516842 -0.000245188 -0.000533246 -0.000229221 -0.000549869 -0.000212817 -0.000567585 -0.000196632 -0.000585302 -0.000180446 -0.000604331 -0.000164261 -0.000623578 -0.000148513 -0.000643482 -0.000132327 -0.000664042 -0.000116579 -0.000685477 -0.00010105 -0.000707349 -8.48644e-005 -0.000729659 -6.97725e-005 -0.000753281 -5.38058e-005 -0.000777122 -3.82765e-005 -0.000801619 -2.31846e-005 -0.000826772 -7.65529e-006 -0.0008528 0 0zm0.000277778 -0.000716535l0 0.000716535 -0.000277778 0 0 -0.000716535 0.000138889 -0.000138889 0.000138889 0.000138889zm-0.000277778 0l0 -0.000138889 0.000138889 0 -0.000138889 0.000138889zm0.00825897 -0.000138889l0 0.000277778 0 0 -0.000114173 0 -0.00014042 0 -0.000164479 0 -0.000187008 0 -0.000208005 0 -0.000227034 0 -0.000244751 0 -0.000260499 0 -0.000274497 0 -0.000286745 0 -0.000297682 0 -0.000306649 0 -0.000313867 0 -0.000319335 0 -0.000323491 0 -0.000325678 0 -0.000326115 0 -0.000324803 0 -0.000322178 0 -0.000317585 0 -0.000311024 0 -0.000303368 0 -0.000293526 0 -0.000282152 0 -0.000269248 0 -0.000254374 0 -0.00023797 0 -0.000219816 0 -0.000199913 0 -0.000178259 0 -0.000155293 0 -0.00013014 0 0 -0.000277778 0.00013014 0 0.000155293 0 0.000178259 0 0.000199913 0 0.000219816 0 0.00023797 0 0.000254374 0 0.000269248 0 0.000282152 0 0.000293526 0 0.000303368 0 0.000311024 0 0.000317585 0 0.000322178 0 0.000324803 0 0.000326115 0 0.000325678 0 0.000323491 0 0.000319335 0 0.000313867 0 0.000306649 0 0.000297682 0 0.000286745 0 0.000274497 0 0.000260499 0 0.000244751 0 0.000227034 0 0.000208005 0 0.000187008 0 0.000164479 0 0.00014042 0 0.000114173 0 0 0zm0 0.000138889l0 0 0 0 0 0 0 -0.000138889 0 0.000138889z"/>
   </g>
   <path class="fil4" d="M0.00866864 0.0100042c0,0.000205162 7.76465e-005,0.000385608 0.000253281,0.000348425l0.00101706 3.25897e-005c0.00032021,-8.31146e-006 0.00013014,-3.89326e-005 0.000508093,-0.000127078 8.15836e-005,-0.000340551 0.000127078,-0.000239501 0.000127078,-0.000508093 0,-0.000231409 -0.000193351,-0.000204068 -0.000396544,-0.000258968l0.000134514 -0.000520341 -0.00100131 0.000400919 0.000120079 -0.000383858c-0.000459536,0.000122703 -0.000762248,0.000443351 -0.000762248,0.0010164zm0.0042465 0.0016857l-5.42432e-005 -0.000415354 0.000298556 2.79965e-005 -0.000244313 0.000387358zm-0.000435477 -0.0016857c0.00011636,-0.000499563 0.000139764,-0.000515529 0.000508311,-0.000762248 -4.50569e-005,0.000541339 -6.93351e-005,0.000645013 -0.000508311,0.000762248zm-0.00381102 0.00152428l0.00277997 -0.000691382 6.95538e-005 0.00024147 -0.000944007 0.000195976c-0.00030818,0.000582458 -0.000374672,0.00127493 -0.000632983,0.00190748 -0.000159668,0.00039042 -0.000891295,0.00156955 -0.000891295,0.00177647 0,0.000485564 -3.91514e-005,4.61505e-005 0.000127078,0.000381015 0.000691601,-0.000184602 0.00133115,-0.00136592 0.00147397,-0.00216951l5.03062e-005 0.000518154c0.000844926,-0.000225722 0.00036308,-0.00104593 0.0010164,-0.0015245l0 0.000508093 0.000381015 0c0.000339676,0 0.000375766,-0.00018329 0.000501531,-0.000347113l0.000613955 6.56168e-005 0.0013259 -0.00134252 -0.000114173 -0.000131015 -0.00118395 0.000865923c9.49256e-005,-0.000141514 0.000381234,-0.000427384 0.000381234,-0.000508093 0,-0.000339895 -0.000183508,-0.000375766 -0.000381234,-0.000508093l-0.000149169 -8.42082e-005 -0.000782152 0.00138605 0.000169073 9.53631e-005 -0.000214567 -6.99913e-006 -0.000139545 -0.00078259 -0.000153981 2.75591e-005c0.000466317,-0.00174628 0.00444794,-0.0014381 0.00571654,-0.0025409 -0.000674759,0 -0.0019311,-7.48031e-005 -0.00253675,3.93701e-006 -0.000629921,8.2021e-005 -0.000923885,0.000687008 -0.00178237,0.000758311 8.70516e-005,-0.000154856 0.000127078,-0.000135827 0.000127078,-0.000381015l0 -0.000635171c-0.00128871,2.86527e-005 -0.00106365,0.00142826 -0.00200962,0.0018014 -0.00071741,0.000283246 -0.00230599,0.000675634 -0.0028178,0.0011203zm0.0106708 0.00343001c-0.000360236,-8.39895e-005 -0.000216973,-0.000127078 -0.000508093,-0.000127078 -0.000104987,0 -0.000508093,0.000403106 -0.000508093,0.000508093 0,0.000233596 0.000291339,0.000323272 0.000508093,0.000381234l-0.000131452 0.000633858c0.00034077,-0.000223972 0.000639545,-0.000450569 0.000639545,-0.00101509l0 -0.000381015zm0.0010164 -0.000127078c0,-0.000292651 -8.8364e-005,-0.000381015 -0.000381234,-0.000381015 -0.000171916,0 -7.04287e-005,0.000137139 -0.000574147,0.000284777l0.000360236 0.000772091 -3.30271e-005 0.000343176c0.000314742,-8.85827e-005 0.000628171,-0.00024825 0.000628171,-0.000638014l0 -0.000381015zm-0.0111008 0.00486702c-6.49606e-005,-0.000633202 0.000115704,-0.00102318 0.000590332,-0.00116601l-0.000590332 0.00116601zm0.00716273 -0.00512117l0 -0.000253937 0.000254156 0 0 0.000253937 -0.000254156 0zm-0.00381102 -0.000635171l0 0.000508311c-0.000310586,-0.000112423 -0.000381015,-0.000146107 -0.000381015,-0.000635171 0,-0.000171479 0.000140857,-0.000190507 0.000253937,-0.000254156 0.00016601,0.000334864 0.000127078,-0.000104549 0.000127078,0.000381015zm0.00196916 -0.000317367l-0.000444663 6.34296e-005 0 -0.000381234 0.000444663 0.000317804zm0.00167126 -0.000610674c-6.97725e-005,0.000526028 -8.74891e-005,0.000746063 -0.000659668,0.000740376l0.000659668 -0.000740376zm0.00445713 -0.00366426c-0.0018189,0.000513561 -0.00295626,0.00446435 -0.00365136,0.00497353 -0.00103018,-0.000689851 0.000931321,-0.00266317 0.0010164,-0.00368395l-0.00237205 0.00245407 0.000117892 -0.00118023 -0.000926509 0.00126356 -0.000868329 -0.000295932c-0.000169729,0.000274278 -0.000270341,0.000268373 -0.000270341,0.00055315 0,0.000537839 0.000175634,6.71479e-005 0.000381234,0.000635171l-0.000504374 0.000261155c-0.000204506,-0.000424978 -0.000342738,-0.00140442 -0.00102012,-0.00140442l-0.000127078 0c-0.000410542,0 -0.000635171,0.000461067 -0.000635171,0.000889326l0 0.000126859c0,0.0006028 0.000268591,0.000774278 0.000762248,0.000889326 -0.000220254,0.000945976 -0.000726597,0.00321697 -0.0015245,0.00343001l0.000323053 -0.00125262 -0.000449913 -1.77165e-005 0.000814961 -0.00226553 -0.00118854 0.000258749c-7.65529e-006,0.00123928 -8.57393e-005,0.0022664 -0.000732283,0.00293351 -0.000474847,0.000489939 -0.00170407,0.00149344 -0.000672572,0.00224913l0.000223316 0.000117017 0.00134733 -0.00257305c1.4217e-005,0.000327209 -4.63692e-005,0.000334427 -4.63692e-005,0.000677384l0 0.000127078c0,0.000208005 7.61155e-005,0.000381234 0.000254156,0.000381234 0.00161155,0 0.00253128,-0.00255337 0.00266776,-0.00419226l0.000637139 -0.000249563 -0.000305337 0.00112577 0.000807087 -0.000133202 0.000115704 -0.000872485 0.000406387 0.000503937 -0.00109799 0.00225831c0.0028808,-0.000619423 0.000963036,-0.00209186 0.00273972,-0.00250569l-0.00016273 0.00152078 0.00116601 -0.00029965c1.31234e-005,-0.00236724 0.00115354,-0.00230271 0.00204549,-0.00363473l-0.00155118 0.000798338 0.00228084 -0.00386636z"/>
   <path class="fil5" d="M0.0124797 0.0100042c0.000438976,-0.000117235 0.000463255,-0.00022091 0.000508311,-0.000762248 -0.000368548,0.000246719 -0.000391951,0.000262686 -0.000508311,0.000762248zm0.00067979 0.00129834l-0.000298556 -2.79965e-005 5.42432e-005 0.000415354 0.000244313 -0.000387358zm0.000971785 0.00238561l0.000444663 -6.34296e-005 -0.000444663 -0.000317804 0 0.000381234zm0.00145626 6.6273e-005c0.000572178,5.68679e-006 0.000589895,-0.000214348 0.000659668,-0.000740376l-0.000659668 0.000740376zm-0.00336177 6.08049e-005c0,0.000489064 7.04287e-005,0.000522747 0.000381015,0.000635171l0 -0.000508311c0,-0.000485564 3.89326e-005,-4.61505e-005 -0.000127078,-0.000381015 -0.00011308,6.36483e-005 -0.000253937,8.26772e-005 -0.000253937,0.000254156zm0.00325831 0.000606955l0.000244313 -0.000387139 -0.000244313 0.000387139zm0.000933727 0.000155074l0.000254156 0 0 -0.000253937 -0.000254156 0 0 0.000253937zm-0.0065724 0.00395516c-0.000474628,0.000142826 -0.000655293,0.000532808 -0.000590332,0.00116601l0.000590332 -0.00116601z"/>
  </g>
 </g>
</svg>
