<?xml version="1.0" encoding="UTF-8"?>
<!DOCTYPE svg PUBLIC "-//W3C//DTD SVG 1.1//EN" "http://www.w3.org/Graphics/SVG/1.1/DTD/svg11.dtd">
<!-- Creator: CorelDRAW -->
<svg xmlns="http://www.w3.org/2000/svg" xml:space="preserve" width="0.509843in" height="0.509846in" style="shape-rendering:geometricPrecision; text-rendering:geometricPrecision; image-rendering:optimizeQuality; fill-rule:evenodd; clip-rule:evenodd"
viewBox="0 0 0.0288506 0.0288508"
 xmlns:xlink="http://www.w3.org/1999/xlink">
 <defs>
  <style type="text/css">
   <![CDATA[
    .str1 {stroke:black;stroke-width:0.000169762}
    .str0 {stroke:black;stroke-width:0.000556961}
    .fil1 {fill:#FEFEFE}
    .fil0 {fill:#FDE71D}
    .fil2 {fill:black;fill-rule:nonzero}
   ]]>
  </style>
 </defs>
 <g id="Train_x0020_Chart">
  <metadata id="CorelCorpID_0Corel-Layer"/>
  <g id="Erie">
   <circle id="_810446872" class="fil0 str0" cx="0.0144253" cy="0.0144255" r="0.0141469"/>
   <polygon id="_810446200" class="fil1 str1" points="0.00301583,0.0143926 0.0141475,0.025747 0.0255019,0.01417 0.0143703,0.00303834 "/>
   <path id="_810443288" class="fil2" d="M0.026482 0.0143946l-0.0120375 -0.0120373 -0.0120618 0.0120373 0.0120618 0.0120375 0.0120375 -0.0120375zm-0.00117452 0l-0.010863 0.010863 -0.0108875 -0.010863 0.0108875 -0.0108875 0.010863 0.0108875zm-0.00415917 0c-4.01012e-006,-0.00093369 -0.000183574,-0.00180634 -0.000525994,-0.00261772 -0.000346653,-0.000807594 -0.000827868,-0.00151694 -0.00143941,-0.00212871 -0.000615777,-0.000611544 -0.00132535,-0.00108875 -0.00213272,-0.00143117 -0.000807371,-0.000346653 -0.00167601,-0.000521984 -0.00260569,-0.000525994 -0.00093369,4.01012e-006 -0.00180634,0.000179342 -0.00261772,0.000525994 -0.000807371,0.00034242 -0.00151694,0.000819624 -0.00212871,0.00143117 -0.000611544,0.000611766 -0.00108875,0.00132111 -0.00143117,0.00212871 -0.000346653,0.000811381 -0.000521984,0.00168403 -0.000525994,0.00261772 4.01012e-006,0.00092968 0.000179342,0.00179832 0.000525994,0.00260569 0.00034242,0.000807371 0.000819624,0.00151694 0.00143117,0.00213272 0.000611766,0.000611544 0.00132134,0.00109276 0.00212871,0.00143941 0.000811381,0.00034242 0.00168403,0.000521984 0.00261772,0.000525994 0.00092968,-4.01012e-006 0.00179832,-0.000183574 0.00260569,-0.000525994 0.000807371,-0.000346653 0.00151694,-0.000827868 0.00213272,-0.00143941 0.000611544,-0.000615777 0.00109276,-0.00132535 0.00143941,-0.00213272 0.00034242,-0.000807371 0.000521984,-0.00167601 0.000525994,-0.00260569zm-0.00176156 0.00298487c-4.01012e-006,7.35189e-005 -2.85164e-005,0.000138795 -7.7529e-005,0.000187585 -4.87898e-005,5.30227e-005 -0.000101813,7.7529e-005 -0.000167088,8.15392e-005l-0.00139463 0c-7.32961e-005,-4.01012e-006 -0.000134562,-2.85164e-005 -0.000175331,-8.15392e-005 -4.47797e-005,-4.87898e-005 -6.9286e-005,-0.000114066 -6.9286e-005,-0.000187585l0 -0.00601853c0,-6.52759e-005 2.45063e-005,-0.000118299 6.9286e-005,-0.000167311 4.07696e-005,-4.90126e-005 0.000102035,-7.32961e-005 0.000175331,-7.7529e-005l0.00139463 0c6.52759e-005,4.23291e-006 0.000118299,2.85164e-005 0.000167088,7.7529e-005 4.90126e-005,4.90126e-005 7.35189e-005,0.000102035 7.7529e-005,0.000167311l0 0.000220111c-4.01012e-006,6.52759e-005 -2.85164e-005,0.000118299 -7.7529e-005,0.000167088 -4.87898e-005,4.90126e-005 -0.000101813,7.35189e-005 -0.000167088,7.7529e-005l-0.00092968 0 0 0.0021775 0.00092968 0c6.52759e-005,4.01012e-006 0.000118299,2.85164e-005 0.000167088,7.7529e-005 4.90126e-005,4.90126e-005 7.35189e-005,0.000101813 7.7529e-005,0.000167088l0 0.000220334c-4.01012e-006,6.52759e-005 -2.85164e-005,0.000118076 -7.7529e-005,0.000167088 -4.87898e-005,4.90126e-005 -0.000101813,7.35189e-005 -0.000167088,7.7529e-005l-0.00092968 0 0 0.00222651 0.00092968 0c6.52759e-005,0 0.000118299,2.42835e-005 0.000167088,6.50531e-005 4.90126e-005,4.50025e-005 7.35189e-005,0.000106045 7.7529e-005,0.000179564l0 0.000195605zm-0.00276476 0c0,7.35189e-005 -2.85164e-005,0.000138795 -7.73063e-005,0.000187585 -5.30227e-005,5.30227e-005 -0.000114288,7.7529e-005 -0.000191818,8.15392e-005l-0.000195605 0c-7.35189e-005,-4.01012e-006 -0.000134562,-2.85164e-005 -0.000175331,-8.15392e-005 -4.50025e-005,-4.87898e-005 -6.9286e-005,-0.000114066 -6.9286e-005,-0.000187585l0 -0.00601853c0,-6.52759e-005 2.42835e-005,-0.000118299 6.9286e-005,-0.000167311 4.07696e-005,-4.90126e-005 0.000101813,-7.32961e-005 0.000175331,-7.7529e-005l0.000195605 0c7.7529e-005,4.23291e-006 0.000138795,2.85164e-005 0.000191818,7.7529e-005 4.87898e-005,4.90126e-005 7.73063e-005,0.000102035 7.73063e-005,0.000167311l0 0.00601853zm-0.00163925 0c0,7.35189e-005 -2.42835e-005,0.000138795 -6.50531e-005,0.000187585 -4.50025e-005,5.30227e-005 -0.000106045,7.7529e-005 -0.000179564,8.15392e-005l-0.000195605 0c-7.35189e-005,-4.01012e-006 -0.000138795,-2.85164e-005 -0.000187585,-8.15392e-005 -5.30227e-005,-4.87898e-005 -7.7529e-005,-0.000114066 -8.15392e-005,-0.000187585l0 -0.0023731c0,-6.52759e-005 -2.45063e-005,-0.000118299 -6.52759e-005,-0.000167311 -4.50025e-005,-4.87898e-005 -0.000106045,-7.32961e-005 -0.000179564,-7.73063e-005l-0.000782865 0 0 0.00261772c0,7.35189e-005 -2.85164e-005,0.000138795 -7.7529e-005,0.000187585 -5.30227e-005,5.30227e-005 -0.000114066,7.7529e-005 -0.000191595,8.15392e-005l-0.000195605 0c-7.35189e-005,-4.01012e-006 -0.000134562,-2.85164e-005 -0.000175331,-8.15392e-005 -4.50025e-005,-4.87898e-005 -6.95088e-005,-0.000114066 -6.95088e-005,-0.000187585l0 -0.00601853c0,-6.52759e-005 2.45063e-005,-0.000118299 6.95088e-005,-0.000167311 4.07696e-005,-4.90126e-005 0.000101813,-7.32961e-005 0.000175331,-7.7529e-005l0.00149243 0c0.000199615,4.23291e-006 0.000366926,7.35189e-005 0.000501488,0.000208081 0.000134562,0.000134562 0.000203848,0.00030165 0.000207858,0.000501488l0 0.00222651c0,9.78024e-005 -2.85164e-005,0.000175331 -8.95594e-005,0.000236374 -5.72556e-005,6.12658e-005 -0.000142805,0.000106045 -0.000252861,0.000130552 0.000110056,2.45063e-005 0.000195605,6.12658e-005 0.000252861,0.000114288 6.1043e-005,5.70329e-005 8.95594e-005,0.000130329 8.95594e-005,0.000228354l0 0.00261772zm-0.0032785 0c0,7.35189e-005 -2.42835e-005,0.000138795 -6.50531e-005,0.000187585 -4.50025e-005,5.30227e-005 -0.000106045,7.7529e-005 -0.000179564,8.15392e-005l-0.00139441 0c-6.52759e-005,-4.01012e-006 -0.000118299,-2.85164e-005 -0.000167311,-8.15392e-005 -4.90126e-005,-4.87898e-005 -7.32961e-005,-0.000114066 -7.7529e-005,-0.000187585l0 -0.00601853c4.23291e-006,-6.52759e-005 2.85164e-005,-0.000118299 7.7529e-005,-0.000167311 4.90126e-005,-4.90126e-005 0.000102035,-7.32961e-005 0.000167311,-7.7529e-005l0.00139441 0c7.35189e-005,4.23291e-006 0.000134562,2.85164e-005 0.000179564,7.7529e-005 4.07696e-005,4.90126e-005 6.50531e-005,0.000102035 6.50531e-005,0.000167311l0 0.000220111c0,6.52759e-005 -2.42835e-005,0.000118299 -6.50531e-005,0.000167088 -4.50025e-005,4.90126e-005 -0.000106045,7.35189e-005 -0.000179564,7.7529e-005l-0.00092968 0 0 0.0021775 0.00092968 0c7.35189e-005,4.01012e-006 0.000134562,2.85164e-005 0.000179564,7.7529e-005 4.07696e-005,4.90126e-005 6.50531e-005,0.000101813 6.50531e-005,0.000167088l0 0.000220334c0,6.52759e-005 -2.42835e-005,0.000118076 -6.50531e-005,0.000167088 -4.50025e-005,4.90126e-005 -0.000106045,7.35189e-005 -0.000179564,7.7529e-005l-0.00092968 0 0 0.00222651 0.00092968 0c7.35189e-005,0 0.000134562,2.42835e-005 0.000179564,6.50531e-005 4.07696e-005,4.50025e-005 6.50531e-005,0.000106045 6.50531e-005,0.000179564l0 0.000195605zm0.00256915 -0.00357191l0 -0.00173727c0,-6.52759e-005 -2.45063e-005,-0.000118076 -6.52759e-005,-0.000167088 -4.50025e-005,-4.90126e-005 -0.000106045,-7.35189e-005 -0.000179564,-7.7529e-005l-0.000782865 0 0 0.00222651 0.000782865 0c7.35189e-005,-4.23291e-006 0.000134562,-2.85164e-005 0.000179564,-7.7529e-005 4.07696e-005,-4.90126e-005 6.52759e-005,-0.000102035 6.52759e-005,-0.000167088z"/>
  </g>
 </g>
</svg>
