<?xml version="1.0" encoding="UTF-8"?>
<!DOCTYPE svg PUBLIC "-//W3C//DTD SVG 1.1//EN" "http://www.w3.org/Graphics/SVG/1.1/DTD/svg11.dtd">
<!-- Creator: CorelDRAW -->
<svg xmlns="http://www.w3.org/2000/svg" xml:space="preserve" width="0.506945in" height="0.506945in" style="shape-rendering:geometricPrecision; text-rendering:geometricPrecision; image-rendering:optimizeQuality; fill-rule:evenodd; clip-rule:evenodd"
viewBox="0 0 0.0285327 0.0285327"
 xmlns:xlink="http://www.w3.org/1999/xlink">
 <defs>
  <style type="text/css">
   <![CDATA[
    .str0 {stroke:black;stroke-width:0.000390884}
    .fil0 {fill:#91D8F7}
    .fil1 {fill:#FEFEFE}
    .fil2 {fill:black;fill-rule:nonzero}
   ]]>
  </style>
 </defs>
 <g id="Layer_x0020_1">
  <metadata id="CorelCorpID_0Corel-Layer"/>
  <g id="_297350320">
   <circle id="_297352392" class="fil0 str0" cx="0.0142664" cy="0.0142663" r="0.0140709"/>
   <path id="_297351944" class="fil1 str0" d="M0.0108971 0.0223712c0.00121985,0 0.00229256,-0.00105831 0.00351241,-0.00105831 0.00112146,0 0.00239073,0.00105831 0.00351241,0.00105831 0.00326889,0 0.00594325,-0.00267436 0.00594325,-0.00594369 0,-0.000820324 -0.00105831,-0.00134062 -0.00105831,-0.00216116 0,-0.000620451 0.00105831,-0.00154115 0.00105831,-0.00216161 0,-0.00326889 -0.00267436,-0.00594325 -0.00594325,-0.00594325 -0.00111171,0 -0.0024007,0.00105831 -0.00351241,0.00105831 -0.00123004,0 -0.00228259,-0.00105831 -0.00351241,-0.00105831 -0.00326889,0 -0.00594325,0.00267436 -0.00594325,0.00594325 0,0.000759609 0.00105831,0.001402 0.00105831,0.00216161 0,0.000681388 -0.00105831,0.00148 -0.00105831,0.00216116 0,0.00326933 0.00267436,0.00594369 0.00594325,0.00594369z"/>
   <polygon id="_297351160" class="fil2" points="0.00883632,0.0197518 0.0111462,0.0197518 0.0111462,0.0146189 0.0118351,0.0146189 0.0118351,0.0197518 0.0141585,0.0197518 0.0141585,0.00878336 0.0118351,0.00878336 0.0118351,0.0128358 0.0111462,0.0128358 0.0111462,0.00878336 0.00883632,0.00878336 "/>
   <path id="_2973511601" class="fil2" d="M0.0151581 0.0197518l0.00232337 0 0 -0.00434958 0.00013517 0c0.000141817,-2.21589e-006 0.000254385,1.57329e-005 0.000333271,5.18519e-005 7.86643e-005,3.58975e-005 0.000132732,9.46187e-005 0.000164198,0.000180152 2.92498e-005,8.55335e-005 4.52043e-005,0.000200317 4.27668e-005,0.000348782l0 0.00376879 0.00232337 0 0 -0.00356604c2.21589e-006,-0.000344572 -2.92498e-005,-0.000634854 -9.43971e-005,-0.00087129 -6.53689e-005,-0.00023422 -0.00017572,-0.000425452 -0.000333271,-0.000571922 -0.00015755,-0.000148465 -0.000376037,-0.000261032 -0.000652803,-0.000339918 0.000254385,-8.99653e-005 0.000454702,-0.000200317 0.000600951,-0.000326401 0.000148687,-0.0001283 0.000256822,-0.000281419 0.000324185,-0.000456918 6.75848e-005,-0.00017572 0.000112567,-0.000382907 0.000130738,-0.000619121 1.79487e-005,-0.000236436 2.68123e-005,-0.000506554 2.45964e-005,-0.00081279l0 -0.00113476c2.21589e-006,-0.000387117 -1.57329e-005,-0.000715734 -5.40678e-005,-0.000983636 -3.81134e-005,-0.000267902 -0.00011013,-0.000486389 -0.000213834,-0.00065524 -0.000105698,-0.000168851 -0.000256601,-0.000299367 -0.000454702,-0.00039177 -0.000200317,-9.21812e-005 -0.000456918,-0.000155334 -0.000776671,-0.000189016 -0.000317538,-3.61191e-005 -0.000709086,-5.18519e-005 -0.00117531,-4.9636e-005l-0.00264755 0 0 0.0109685zm0.00299877 -0.00710505l0 0.000297151c4.65338e-006,0.000159766 -2.70339e-005,0.000272333 -9.21812e-005,0.000337702 -6.53689e-005,6.51473e-005 -0.000189237,9.68346e-005 -0.000366952,9.43971e-005 -3.39032e-005,0 -6.75848e-005,-2.21589e-006 -0.000103704,-6.64768e-006 -3.36816e-005,-4.43179e-006 -7.20166e-005,-6.86927e-006 -0.000112567,-6.86927e-006l0 -0.00280953 0.000202754 0c0.000150902,-2.21589e-006 0.000258817,1.57329e-005 0.000326401,5.18519e-005 6.75848e-005,3.58975e-005 0.000110352,9.6613e-005 0.000126084,0.000184584 1.57329e-005,8.55335e-005 2.26021e-005,0.000204749 2.01646e-005,0.000357867l0 0.0014995z"/>
  </g>
 </g>
</svg>
