<?xml version="1.0" encoding="UTF-8"?>
<!DOCTYPE svg PUBLIC "-//W3C//DTD SVG 1.1//EN" "http://www.w3.org/Graphics/SVG/1.1/DTD/svg11.dtd">
<!-- Creator: CorelDRAW -->
<svg xmlns="http://www.w3.org/2000/svg" xml:space="preserve" width="0.506953in" height="0.506953in" style="shape-rendering:geometricPrecision; text-rendering:geometricPrecision; image-rendering:optimizeQuality; fill-rule:evenodd; clip-rule:evenodd"
viewBox="0 0 0.0285336 0.0285336"
 xmlns:xlink="http://www.w3.org/1999/xlink">
 <defs>
  <style type="text/css">
   <![CDATA[
    .str0 {stroke:black;stroke-width:0.00039089}
    .fil0 {fill:black}
    .fil1 {fill:#FEFEFE;fill-rule:nonzero}
   ]]>
  </style>
 </defs>
 <g id="Train_x0020_chart">
  <metadata id="CorelCorpID_0Corel-Layer"/>
  <g id="_810440320">
   <circle id="_810438024" class="fil0 str0" cx="0.0142668" cy="0.0142668" r="0.0140714"/>
   <path id="_810440880" class="fil1" d="M0.0268617 0.0142582c0,-0.00045205 -7.53416e-005,-0.000922491 -0.000226025,-0.00141066 -0.000153342,-0.00049105 -0.000387123,-0.000979441 -0.000704001,-0.00147071 -0.00031444,-0.000490828 -0.000717075,-0.000968804 -0.00120547,-0.00142861 -0.000488612,-0.000459805 -0.00106786,-0.000888588 -0.00173817,-0.0012859 -0.000672978,-0.0003951 -0.00143925,-0.000743223 -0.00230412,-0.00104193 -0.000865542,-0.000298707 -0.00182925,-0.00053005 -0.00289711,-0.000698904 -0.00106763,-0.000166416 -0.0022392,-0.000252173 -0.00352023,-0.00025461 -0.00128081,2.43752e-006 -0.00245769,8.8194e-005 -0.00352532,0.00025461 -0.00106786,0.000168854 -0.00203422,0.000400197 -0.00289666,0.000698904 -0.00086532,0.000298707 -0.00163425,0.00064683 -0.00230457,0.00104193 -0.000670319,0.000397316 -0.00124956,0.000826098 -0.00173795,0.0012859 -0.000488612,0.000459805 -0.000888588,0.000937781 -0.00120303,0.00142861 -0.000316878,0.000491272 -0.000547999,0.000979662 -0.000701563,0.00147071 -0.000150462,0.000488169 -0.000225803,0.000958611 -0.000225803,0.00141066 0,0.000451828 7.53416e-005,0.000924929 0.000225803,0.00141842 0.000153564,0.000493487 0.000384685,0.000987418 0.000701563,0.00148622 0.00031444,0.000496147 0.000714416,0.000979219 0.00120303,0.00144434 0.000488391,0.000467783 0.00106763,0.00090144 0.00173795,0.00130164 0.000670319,0.000399975 0.00143925,0.000748319 0.00230457,0.00104703 0.00086244,0.000298707 0.00182881,0.000527391 0.00289666,0.000688489 0.00106763,0.000158439 0.00224451,0.000233559 0.00352532,0.000220928 0.00149132,-2.37104e-005 0.00284215,-0.000150905 0.00404496,-0.000382026 0.00120547,-0.000231343 0.00227354,-0.000542903 0.00320357,-0.000935344 0.000932463,-0.000392219 0.00173529,-0.000839172 0.00241093,-0.00134042 0.000672978,-0.000501465 0.00122873,-0.00103417 0.00166261,-0.00159525 0.000433657,-0.000561295 0.000753416,-0.00112746 0.00096127,-0.00169895 0.000210513,-0.00057171 0.000314219,-0.00112259 0.000311781,-0.00165508zm-0.000311781 0c2.65912e-006,0.000488612 -9.61713e-005,0.00100005 -0.000290952,0.00154051 -0.000197661,0.000537806 -0.000501465,0.00107561 -0.000914514,0.00161608 -0.000415487,0.000537806 -0.000948418,0.00104946 -0.00159768,0.00153808 -0.000652148,0.000485732 -0.00143171,0.000922048 -0.00234091,0.00130407 -0.000906537,0.000384464 -0.00195356,0.000691148 -0.00313842,0.000919611 -0.00118464,0.000228684 -0.00251995,0.000353441 -0.00400086,0.000376708 -0.00127039,1.04149e-005 -0.00243154,-6.47051e-005 -0.00348388,-0.000223144 -0.00104969,-0.000158882 -0.00199788,-0.000382026 -0.00284481,-0.000675637 -0.000844047,-0.000290952 -0.00159237,-0.000631318 -0.00224208,-0.0010211 -0.000651926,-0.000386901 -0.00121056,-0.000807928 -0.001681,-0.00125754 -0.000467339,-0.00044939 -0.000851803,-0.000911855 -0.00115339,-0.00138717 -0.000298707,-0.000475538 -0.000522073,-0.000945759 -0.000665,-0.001408 -0.000142927,-0.000465124 -0.000213172,-0.000904321 -0.000213172,-0.00132247 0,-0.000418367 7.0245e-005,-0.000854684 0.000213172,-0.00131715 0.000142927,-0.000459805 0.000366293,-0.000924929 0.000665,-0.00139515 0.000301588,-0.000467561 0.000686052,-0.000924707 0.00115339,-0.00136922 0.000470442,-0.000444072 0.00102908,-0.000859781 0.001681,-0.0012469 0.00064971,-0.000384685 0.00139803,-0.000722393 0.00224208,-0.001016 0.000846928,-0.000290952 0.00179512,-0.000519414 0.00284481,-0.000683171 0.00105234,-0.000166195 0.00221349,-0.000249292 0.00348388,-0.000251951 0.00126795,2.65912e-006 0.00242644,8.57565e-005 0.00347879,0.000251951 0.00104969,0.000163757 0.00199788,0.000392219 0.00284215,0.000683171 0.000844491,0.000293611 0.00159281,0.000631318 0.00224474,0.001016 0.000649267,0.000387123 0.00121056,0.000802831 0.001681,0.0012469 0.000469999,0.000444515 0.000854462,0.000901662 0.00115605,0.00136922 0.000301366,0.00047022 0.000522073,0.000935344 0.000667659,0.00139515 0.000142706,0.000462464 0.000212951,0.000898781 0.000212951,0.00131715zm-0.000311781 0c0,-0.000382026 -6.49267e-005,-0.00078732 -0.000200098,-0.00122098 -0.000135172,-0.00043122 -0.000345463,-0.000870639 -0.000633977,-0.00132003 -0.000285633,-0.000446731 -0.000654585,-0.000885929 -0.00110398,-0.00131427 -0.00045205,-0.000428782 -0.000992293,-0.000828758 -0.00162361,-0.00120547 -0.000631318,-0.000374049 -0.00135903,-0.000704001 -0.00218513,-0.000990077 -0.000826098,-0.000285855 -0.00175369,-0.000508999 -0.00278764,-0.000670097 -0.00103395,-0.00016132 -0.00217981,-0.000244417 -0.00343713,-0.000247076 -0.00125732,2.65912e-006 -0.00240318,8.57565e-005 -0.00343713,0.000247076 -0.00103395,0.000161098 -0.00196132,0.000384242 -0.00278742,0.000670097 -0.00082632,0.000286076 -0.00155381,0.000616028 -0.00218513,0.000990077 -0.000631318,0.000376708 -0.00117178,0.000776683 -0.00162383,0.00120547 -0.00044939,0.000428339 -0.000818121,0.000867536 -0.00110398,0.00131427 -0.000288292,0.00044939 -0.000498806,0.000888809 -0.000633977,0.00132003 -0.000135172,0.000433657 -0.000199877,0.000838951 -0.000199877,0.00122098 0,0.000381805 6.47051e-005,0.000789757 0.000199877,0.0012263 0.000135172,0.000436316 0.000345685,0.000880832 0.000633977,0.00133266 0.000285855,0.000454709 0.000654585,0.000896343 0.00110398,0.00133288 0.00045205,0.000433657 0.000992515,0.000839172 0.00162383,0.00121588 0.000631318,0.000379367 0.00135881,0.000709319 0.00218513,0.000994952 0.000826098,0.000285855 0.00175346,0.000506783 0.00278742,0.000662563 0.00103395,0.00015578 0.00217981,0.000228462 0.00343713,0.000218269 0.00125998,-1.83922e-005 0.00240583,-0.000111904 0.00344245,-0.000283196 0.00103395,-0.000168854 0.0019642,-0.000397538 0.0027903,-0.000686052 0.000823439,-0.000288292 0.00155359,-0.000618244 0.00218225,-0.000989634 0.000631097,-0.000374049 0.00117156,-0.000774467 0.00162383,-0.00119793 0.00044939,-0.000425902 0.000818121,-0.000859781 0.00110398,-0.00130142 0.000283196,-0.000444294 0.000493487,-0.00088061 0.000628659,-0.00130939 0.000135172,-0.000428782 0.000200098,-0.000834076 0.000200098,-0.00121588zm-0.00341386 -0.00254101c0,2.63696e-005 -7.75575e-006,6.00517e-005 -2.06081e-005,9.63929e-005 -1.57331e-005,3.63412e-005 -3.39037e-005,5.7171e-005 -5.7171e-005,5.96085e-005l-0.000233781 0c-4.67561e-005,2.43752e-006 -8.84156e-005,0 -0.000127194,-5.09664e-006 -3.63412e-005,-5.09664e-006 -6.78074e-005,-2.88071e-005 -9.10747e-005,-7.29041e-005l-0.000498806 -0.000748098c-7.75575e-006,-1.28524e-005 -1.83922e-005,-1.81706e-005 -3.36821e-005,-1.01933e-005 -1.3074e-005,7.53416e-006 -2.88071e-005,1.52899e-005 -4.4097e-005,2.57048e-005l-9.37338e-005 9.37338e-005c-1.57331e-005,2.06081e-005 -2.59264e-005,3.63412e-005 -3.36821e-005,4.8972e-005 -7.75575e-006,1.06365e-005 -1.3074e-005,3.14662e-005 -1.3074e-005,6.00517e-005l0 0.000374049c2.65912e-006,2.59264e-005 1.57331e-005,5.20743e-005 4.4097e-005,7.77791e-005 2.59264e-005,2.37104e-005 4.94152e-005,4.69777e-005 7.26825e-005,6.78074e-005 2.37104e-005,2.32673e-005 3.14662e-005,4.16595e-005 2.37104e-005,5.69494e-005 -7.97735e-006,1.57331e-005 -2.63696e-005,2.6148e-005 -5.47335e-005,3.36821e-005 -3.1023e-005,5.31823e-006 -5.98301e-005,1.06365e-005 -8.84156e-005,1.06365e-005 -2.59264e-005,2.43752e-006 -4.14379e-005,2.43752e-006 -4.4097e-005,2.43752e-006l-0.000405293 0c-3.36821e-005,2.65912e-006 -7.53416e-005,2.65912e-006 -0.000122098,0 -4.94152e-005,-2.43752e-006 -8.57565e-005,-1.7949e-005 -0.000111683,-4.67561e-005 -7.75575e-006,-1.04149e-005 -2.43752e-006,-2.83639e-005 1.55115e-005,-5.20743e-005 1.83922e-005,-2.32673e-005 3.63412e-005,-4.63129e-005 5.7171e-005,-7.26825e-005 2.32673e-005,-2.57048e-005 3.39037e-005,-4.67561e-005 3.63412e-005,-6.2046e-005l0 -0.00159015c-2.43752e-006,-1.55115e-005 -1.3074e-005,-3.63412e-005 -3.63412e-005,-6.24892e-005 -2.08297e-005,-2.57048e-005 -3.87788e-005,-4.8972e-005 -5.7171e-005,-7.26825e-005 -1.7949e-005,-2.30457e-005 -2.32673e-005,-4.14379e-005 -1.55115e-005,-5.18527e-005 2.59264e-005,-2.85855e-005 6.22676e-005,-4.43186e-005 0.000111683,-4.69777e-005 4.67561e-005,-2.21593e-006 8.84156e-005,-2.21593e-006 0.000122098,0l0.000405293 0c2.65912e-006,0 1.81706e-005,0 4.4097e-005,2.65912e-006 2.85855e-005,0 5.73926e-005,5.31823e-006 8.84156e-005,1.04149e-005 2.83639e-005,7.97735e-006 4.67561e-005,1.83922e-005 5.47335e-005,3.39037e-005 7.75575e-006,1.55115e-005 0,3.39037e-005 -2.37104e-005,5.7171e-005 -2.32673e-005,2.06081e-005 -4.67561e-005,4.4097e-005 -7.26825e-005,6.73642e-005 -2.83639e-005,2.6148e-005 -4.14379e-005,5.20743e-005 -4.4097e-005,7.80007e-005l0 0.000358759c-2.65912e-006,6.2046e-005 -2.65912e-006,0.000109024 0,0.000140268 2.65912e-006,3.12446e-005 1.83922e-005,4.65345e-005 4.67561e-005,4.65345e-005 1.57331e-005,0 3.1023e-005,-7.53416e-006 4.67561e-005,-2.06081e-005 1.55115e-005,-1.04149e-005 3.12446e-005,-2.59264e-005 4.69777e-005,-4.16595e-005l0.000560852 -0.000670319c1.83922e-005,-1.81706e-005 4.16595e-005,-3.36821e-005 7.53416e-005,-5.18527e-005 3.14662e-005,-1.55115e-005 6.51483e-005,-2.59264e-005 9.61713e-005,-2.59264e-005 3.12446e-005,2.65912e-006 5.98301e-005,1.3074e-005 8.57565e-005,3.36821e-005 2.59264e-005,2.10513e-005 4.67561e-005,4.16595e-005 6.24892e-005,6.24892e-005 1.55115e-005,2.32673e-005 2.32673e-005,3.63412e-005 2.32673e-005,4.38754e-005l-0.00045205 0.000577028c-1.57331e-005,2.59264e-005 -2.08297e-005,5.69494e-005 -1.57331e-005,9.06315e-005 5.31823e-006,3.67844e-005 1.57331e-005,6.24892e-005 3.12446e-005,8.08814e-005 2.65912e-006,2.21593e-006 2.34888e-005,3.63412e-005 6.75858e-005,0.000101046 4.16595e-005,6.51483e-005 9.37338e-005,0.000145808 0.000158439,0.000241758 6.24892e-005,9.61713e-005 0.000124757,0.000195002 0.000187246,0.000293389 6.49267e-005,9.88304e-005 0.000116779,0.000182149 0.000158439,0.000254832 4.4097e-005,7.00234e-005 6.49267e-005,0.000109245 6.73642e-005,0.000121876zm0.00240074 0.00355413c0,2.65912e-006 -7.75575e-006,2.59264e-005 -2.34888e-005,7.0245e-005 -1.3074e-005,4.4097e-005 -3.63412e-005,9.61713e-005 -6.47051e-005,0.000156001 -2.88071e-005,5.96085e-005 -6.27108e-005,0.000111683 -0.00010149,0.00015578 -4.16595e-005,4.43186e-005 -8.57565e-005,6.73642e-005 -0.000137831,7.00234e-005l-0.00168344 0c-2.34888e-005,0 -6.49267e-005,0 -0.000127194,2.65912e-006 -5.98301e-005,0 -0.000122098,-2.65912e-006 -0.000181928,-1.04149e-005 -6.22676e-005,-5.31823e-006 -0.000103927,-1.7949e-005 -0.000127416,-3.90004e-005 -7.75575e-006,-1.52899e-005 0,-4.16595e-005 2.6148e-005,-7.26825e-005 2.59264e-005,-3.1023e-005 5.45119e-005,-6.73642e-005 8.30973e-005,-0.000103927 2.85855e-005,-3.63412e-005 4.43186e-005,-7.26825e-005 4.69777e-005,-0.000103927l0 -0.002073c-1.3074e-005,-2.10513e-005 -3.41253e-005,-5.20743e-005 -6.24892e-005,-8.57565e-005 -2.85855e-005,-3.63412e-005 -5.20743e-005,-7.04665e-005 -7.26825e-005,-0.000104149 -2.37104e-005,-3.36821e-005 -2.88071e-005,-5.96085e-005 -2.10513e-005,-7.53416e-005 3.36821e-005,-3.1023e-005 8.30973e-005,-4.94152e-005 0.000143149,-5.45119e-005 5.96085e-005,-7.53416e-006 0.000111461,-1.01933e-005 0.000153121,-7.53416e-006l0.000420805 0c2.65912e-006,0 2.10513e-005,0 5.73926e-005,2.21593e-006 3.63412e-005,2.65912e-006 7.26825e-005,7.97735e-006 0.000109024,1.57331e-005 3.63412e-005,1.04149e-005 5.98301e-005,2.34888e-005 6.73642e-005,4.4097e-005 7.75575e-006,2.59264e-005 -4.87504e-006,5.47335e-005 -3.36821e-005,8.57565e-005 -3.12446e-005,3.12446e-005 -6.49267e-005,6.49267e-005 -9.86089e-005,9.88304e-005 -3.39037e-005,3.12446e-005 -5.20743e-005,6.49267e-005 -5.45119e-005,9.59497e-005l0 0.00191744c2.43752e-006,4.67561e-005 2.30457e-005,8.30973e-005 6.47051e-005,0.000106586 3.90004e-005,2.59264e-005 8.04382e-005,4.16595e-005 0.000122098,4.94152e-005 2.65912e-006,0 2.6148e-005,4.87504e-006 7.55632e-005,1.55115e-005 4.67561e-005,1.04149e-005 0.000101268,2.08297e-005 0.000166195,3.1023e-005 6.49267e-005,1.04149e-005 0.000124757,1.57331e-005 0.000179047,1.57331e-005 7.57848e-005,0 0.000145808,-5.31823e-006 0.000213172,-1.57331e-005 7.0245e-005,-1.01933e-005 0.000127416,-2.06081e-005 0.000171513,-3.1023e-005 4.4097e-005,-1.06365e-005 6.51483e-005,-1.55115e-005 6.78074e-005,-1.55115e-005 6.2046e-005,-7.75575e-006 0.000140047,-2.08297e-005 0.000233559,-4.4097e-005 9.61713e-005,-2.10513e-005 0.000181928,-4.16595e-005 0.000259928,-6.24892e-005 7.77791e-005,-2.08297e-005 0.000119439,-3.12446e-005 0.000129853,-3.39037e-005zm-0.00456725 -0.00492579c-2.65912e-006,0.000111683 -3.39037e-005,0.000200098 -9.37338e-005,0.000262588 -5.69494e-005,6.47051e-005 -0.000127194,0.000116779 -0.000207854,0.000161098 -8.30973e-005,4.14379e-005 -0.000158439,8.8194e-005 -0.000228462,0.000137609 0,1.01933e-005 0,2.85855e-005 5.31823e-006,5.69494e-005 2.65912e-006,2.6148e-005 1.01933e-005,4.94152e-005 2.59264e-005,6.78074e-005 2.43752e-006,2.65912e-006 1.81706e-005,3.63412e-005 5.18527e-005,0.000103705 3.12446e-005,6.51483e-005 7.00234e-005,0.00014049 0.000111683,0.000228905 4.16595e-005,8.8194e-005 8.04382e-005,0.000168854 0.000111683,0.000238877 3.39037e-005,7.26825e-005 4.94152e-005,0.00011412 5.20743e-005,0.000129853 0,1.55115e-005 -1.06365e-005,3.36821e-005 -3.12446e-005,5.20743e-005 -2.08297e-005,1.7949e-005 -4.67561e-005,3.36821e-005 -7.77791e-005,4.16595e-005l-0.000218269 3.1023e-005c-4.16595e-005,7.75575e-006 -8.57565e-005,2.65912e-006 -0.000135172,-1.3074e-005 -4.91936e-005,-1.7949e-005 -8.84156e-005,-4.94152e-005 -0.000114342,-9.61713e-005l-0.000405293 -0.000763609c-1.81706e-005,-3.63412e-005 -4.4097e-005,-5.98301e-005 -8.04382e-005,-6.78074e-005 -3.90004e-005,-7.53416e-006 -7.29041e-005,-1.28524e-005 -0.000106586,-1.01933e-005 -3.12446e-005,0 -5.96085e-005,7.53416e-006 -8.57565e-005,2.59264e-005 -2.32673e-005,2.08297e-005 -3.63412e-005,5.20743e-005 -3.90004e-005,9.88304e-005l0 0.000607829c2.65912e-006,2.59264e-005 1.57331e-005,5.20743e-005 4.4097e-005,7.77791e-005 2.6148e-005,2.37104e-005 4.94152e-005,4.69777e-005 7.26825e-005,6.78074e-005 2.34888e-005,2.32673e-005 3.14662e-005,4.16595e-005 2.34888e-005,5.69494e-005 -7.75575e-006,1.57331e-005 -2.34888e-005,2.6148e-005 -5.18527e-005,3.36821e-005 -2.59264e-005,5.31823e-006 -5.20743e-005,1.06365e-005 -7.80007e-005,1.06365e-005 -2.59264e-005,2.43752e-006 -3.90004e-005,2.43752e-006 -4.14379e-005,2.43752e-006l-0.000421027 0c-3.36821e-005,2.65912e-006 -7.53416e-005,2.65912e-006 -0.000122098,0 -4.94152e-005,-2.43752e-006 -8.57565e-005,-1.7949e-005 -0.000111683,-4.67561e-005 -7.75575e-006,-1.04149e-005 -2.43752e-006,-2.83639e-005 1.81706e-005,-5.20743e-005 2.08297e-005,-2.32673e-005 4.4097e-005,-4.63129e-005 6.75858e-005,-7.26825e-005 2.32673e-005,-2.57048e-005 3.63412e-005,-4.67561e-005 3.90004e-005,-6.2046e-005l0 -0.00157464c-2.65912e-006,-1.55115e-005 -1.3074e-005,-3.63412e-005 -3.63412e-005,-5.96085e-005 -2.34888e-005,-2.34888e-005 -4.4097e-005,-4.94152e-005 -6.75858e-005,-7.80007e-005 -2.32673e-005,-2.6148e-005 -3.39037e-005,-5.45119e-005 -3.63412e-005,-8.04382e-005 5.09664e-006,-2.08297e-005 3.36821e-005,-3.36821e-005 9.08531e-005,-3.36821e-005 5.73926e-005,0 0.000114342,0 0.000174172,2.21593e-006 2.65912e-006,0 3.90004e-005,2.65912e-006 0.000109024,5.31823e-006 7.00234e-005,2.65912e-006 0.000153121,2.65912e-006 0.000249292,5.31823e-006 9.63929e-005,2.43752e-006 0.000184587,5.09664e-006 0.000265247,5.09664e-006 4.94152e-005,0 0.000101046,-2.65912e-006 0.00015578,-5.09664e-006 5.45119e-005,-2.65912e-006 0.000103927,-2.65912e-006 0.000145587,-5.31823e-006 4.16595e-005,-2.65912e-006 6.47051e-005,-5.31823e-006 7.26825e-005,-5.31823e-006 7.26825e-005,0 0.000158439,2.65912e-006 0.000259928,1.3074e-005 0.000101046,7.97735e-006 0.000199877,3.12446e-005 0.000298486,6.27108e-005 9.61713e-005,3.36821e-005 0.000179269,8.55349e-005 0.000244417,0.00015578 6.49267e-005,6.73642e-005 9.86089e-005,0.000163536 0.000101268,0.000282974zm-0.00236949 0.00043676c0,0.000205195 -3.87788e-005,0.000397316 -0.000122098,0.000573926 -8.04382e-005,0.000176831 -0.000202536,0.000316878 -0.000368731,0.000426123 -0.000166416,0.000109024 -0.000376708,0.000166416 -0.000631318,0.000168854 -0.000205417,-2.43752e-006 -0.000387344,-4.67561e-005 -0.000545783,-0.000137609 -0.000158439,-8.84156e-005 -0.000282974,-0.000205195 -0.000374049,-0.000353441 -9.08531e-005,-0.000148024 -0.000137831,-0.000311781 -0.000140268,-0.00049105 0,-0.000220928 4.4097e-005,-0.000423464 0.000127194,-0.00060517 8.57565e-005,-0.000184587 0.000210513,-0.000329952 0.000374049,-0.000441856 0.000163757,-0.000109024 0.000366515,-0.000166195 0.000605613,-0.000168854 0.000199877,0 0.000379367,4.14379e-005 0.000542903,0.000124757 0.000161098,8.30973e-005 0.000288292,0.000200098 0.000384685,0.000353441 9.57281e-005,0.000153121 0.000145143,0.000337708 0.000147802,0.00055088zm0.00388142 0.00475428c2.06081e-005,3.90004e-005 1.81706e-005,7.26825e-005 -2.43752e-006,9.83873e-005 -2.37104e-005,2.63696e-005 -4.94152e-005,4.16595e-005 -7.53416e-005,4.16595e-005l-0.000421027 0c-5.98301e-005,0 -0.000106586,-1.04149e-005 -0.000137609,-3.36821e-005 -3.12446e-005,-2.06081e-005 -5.96085e-005,-5.20743e-005 -8.06598e-005,-9.10747e-005l-0.000374049 -0.000623341c-7.75575e-006,-1.55115e-005 -2.32673e-005,-2.32673e-005 -4.16595e-005,-2.85855e-005 -2.06081e-005,-2.65912e-006 -4.4097e-005,-2.65912e-006 -6.73642e-005,-2.65912e-006 -2.34888e-005,0 -4.4097e-005,2.65912e-006 -5.98301e-005,1.04149e-005 -1.81706e-005,7.75575e-006 -3.36821e-005,2.08297e-005 -4.94152e-005,3.63412e-005l-0.000171513 0.000202758c-7.53416e-006,1.57331e-005 -2.32673e-005,2.57048e-005 -4.16595e-005,3.36821e-005 -1.7949e-005,7.75575e-006 -3.63412e-005,1.3074e-005 -5.16312e-005,1.3074e-005 0,0 -1.04149e-005,-2.65912e-006 -2.6148e-005,-1.04149e-005 -1.81706e-005,-5.31823e-006 -3.36821e-005,-1.3074e-005 -5.20743e-005,-2.06081e-005l-0.000374049 -0.000187246c-2.59264e-005,-7.97735e-006 -5.18527e-005,-2.65912e-006 -8.06598e-005,1.57331e-005 -3.1023e-005,1.52899e-005 -4.8972e-005,3.63412e-005 -5.96085e-005,6.2046e-005l-0.000249292 0.000561295c-1.57331e-005,3.63412e-005 -3.36821e-005,5.69494e-005 -5.73926e-005,5.96085e-005 -2.06081e-005,5.31823e-006 -4.4097e-005,5.31823e-006 -6.73642e-005,2.65912e-006 -4.67561e-005,-2.65912e-006 -8.04382e-005,-1.7949e-005 -0.00010149,-4.94152e-005 -2.06081e-005,-3.1023e-005 -2.32673e-005,-6.47051e-005 -7.75575e-006,-0.000106365l0.000280758 -0.000592318c1.7949e-005,-3.90004e-005 2.06081e-005,-6.75858e-005 1.28524e-005,-8.84156e-005 -7.53416e-006,-2.06081e-005 -3.90004e-005,-3.63412e-005 -9.06315e-005,-5.18527e-005 -5.31823e-006,-2.43752e-006 -3.14662e-005,-1.3074e-005 -8.08814e-005,-3.65628e-005 -4.91936e-005,-2.06081e-005 -9.32906e-005,-3.90004e-005 -0.000137609,-5.69494e-005 -4.14379e-005,-7.75575e-006 -8.57565e-005,-1.57331e-005 -0.000129853,-2.10513e-005 -4.4097e-005,-7.75575e-006 -7.00234e-005,-9.97168e-006 -7.26825e-005,-9.97168e-006 -3.90004e-005,2.21593e-006 -7.29041e-005,4.87504e-006 -9.88304e-005,9.97168e-006 -2.59264e-005,7.97735e-006 -4.14379e-005,2.65912e-006 -4.14379e-005,-9.97168e-006 2.43752e-006,-2.65912e-006 1.81706e-005,-2.6148e-005 5.18527e-005,-6.78074e-005 3.12446e-005,-4.4097e-005 6.49267e-005,-8.57565e-005 0.000103927,-0.000129853 3.87788e-005,-4.16595e-005 7.0245e-005,-6.49267e-005 9.35122e-005,-6.75858e-005 5.98301e-005,2.65912e-006 0.000124757,1.3074e-005 0.000197439,3.12446e-005 7.29041e-005,2.08297e-005 0.000135172,4.14379e-005 0.000187024,6.24892e-005 5.20743e-005,1.7949e-005 8.06598e-005,2.83639e-005 8.33189e-005,3.1023e-005 1.04149e-005,0 2.83639e-005,-7.75575e-006 5.45119e-005,-1.83922e-005 2.59264e-005,-1.01933e-005 4.38754e-005,-2.06081e-005 5.45119e-005,-2.83639e-005l0.000311781 -0.000717075c1.55115e-005,-3.12446e-005 2.59264e-005,-6.49267e-005 3.1023e-005,-9.86089e-005 5.31823e-006,-3.41253e-005 0,-6.51483e-005 -1.55115e-005,-8.84156e-005l-7.80007e-005 -0.000140268c-1.52899e-005,-2.32673e-005 -2.32673e-005,-4.94152e-005 -2.06081e-005,-7.53416e-005 0,-2.59264e-005 1.28524e-005,-4.94152e-005 3.63412e-005,-6.51483e-005l0.000343026 -0.000280537c4.67561e-005,-3.63412e-005 8.84156e-005,-4.14379e-005 0.000127194,-1.7949e-005 3.63412e-005,2.59264e-005 6.75858e-005,6.22676e-005 9.08531e-005,0.000111683l0.00135615 0.00243176zm-0.00609491 -0.00567411l-0.000639074 0.00112237c-1.55115e-005,2.32673e-005 -3.39037e-005,5.42903e-005 -4.91936e-005,8.84156e-005 -1.83922e-005,3.36821e-005 -2.6148e-005,6.73642e-005 -2.88071e-005,9.83873e-005l0 0.000655029c0,1.7949e-005 -7.75575e-006,3.63412e-005 -2.32673e-005,5.69494e-005 -1.57331e-005,2.34888e-005 -3.90004e-005,3.36821e-005 -7.00234e-005,3.63412e-005l-0.000343026 0c-2.6148e-005,0 -5.47335e-005,-7.53416e-006 -8.84156e-005,-2.32673e-005 -3.1023e-005,-1.57331e-005 -4.94152e-005,-3.90004e-005 -5.18527e-005,-7.00234e-005l0 -0.000686052c-2.65912e-006,-4.94152e-005 -1.32956e-005,-0.000106365 -3.39037e-005,-0.000166195 -2.34888e-005,-6.00517e-005 -4.14379e-005,-0.000103927 -5.98301e-005,-0.000130075l-0.000670319 -0.000903878c-2.83639e-005,-4.16595e-005 -3.36821e-005,-8.06598e-005 -1.52899e-005,-0.000114342 1.7949e-005,-3.65628e-005 4.4097e-005,-5.45119e-005 7.77791e-005,-5.7171e-005l0.000358537 0c4.67561e-005,0 8.57565e-005,5.09664e-006 0.000119439,1.81706e-005 3.12446e-005,1.28524e-005 5.98301e-005,3.63412e-005 8.30973e-005,7.53416e-005l0.000452271 0.000607829c2.32673e-005,3.1023e-005 4.67561e-005,5.20743e-005 7.26825e-005,6.24892e-005 2.32673e-005,1.01933e-005 5.20743e-005,1.55115e-005 8.30973e-005,1.55115e-005 1.7949e-005,0 3.90004e-005,-7.97735e-006 6.22676e-005,-2.08297e-005 2.6148e-005,-1.55115e-005 4.67561e-005,-3.36821e-005 6.24892e-005,-5.7171e-005l0.000389782 -0.000639296c1.7949e-005,-2.32673e-005 4.16595e-005,-3.87788e-005 7.26825e-005,-4.8972e-005 3.1023e-005,-7.97735e-006 5.69494e-005,-1.3074e-005 8.30973e-005,-1.3074e-005 2.32673e-005,0 4.67561e-005,2.65912e-006 7.53416e-005,1.04149e-005 2.83639e-005,7.75575e-006 4.94152e-005,1.7949e-005 6.73642e-005,3.1023e-005 1.83922e-005,1.3074e-005 2.10513e-005,3.12446e-005 1.3074e-005,5.20743e-005zm0.00252527 0.00383467c-5.09664e-006,0.00015578 -4.65345e-005,0.000283196 -0.000132291,0.000386901 -8.33189e-005,0.000104149 -0.000184587,0.000187246 -0.000301588,0.00025461 -0.000116779,6.78074e-005 -0.000226025,0.000122098 -0.000329952,0.000168854 0,1.83922e-005 -2.43752e-006,4.43186e-005 -2.43752e-006,8.06598e-005 -2.65912e-006,3.39037e-005 5.09664e-006,6.49267e-005 1.7949e-005,9.08531e-005 2.65912e-006,5.31823e-006 3.14662e-005,4.67561e-005 8.30973e-005,0.000124757 5.20743e-005,8.04382e-005 0.000111904,0.000174172 0.000181928,0.000280537 7.00234e-005,0.000106586 0.000130075,0.000205417 0.000182149,0.000290952 5.16312e-005,8.84156e-005 8.04382e-005,0.000140268 8.30973e-005,0.00016132 0,3.1023e-005 -1.3074e-005,5.69494e-005 -3.90004e-005,8.04382e-005 -2.34888e-005,2.06081e-005 -5.20743e-005,3.63412e-005 -8.57565e-005,4.43186e-005l-0.000280758 6.2046e-005c-5.69494e-005,7.97735e-006 -0.000114342,0 -0.00017395,-2.32673e-005 -6.24892e-005,-2.34888e-005 -0.000111904,-6.24892e-005 -0.000153342,-0.000117001l-0.000576806 -0.000966367c-7.75575e-006,-2.34888e-005 -2.32673e-005,-4.67561e-005 -5.20743e-005,-6.75858e-005 -2.83639e-005,-1.81706e-005 -7.26825e-005,-3.36821e-005 -0.000134728,-4.16595e-005 -8.84156e-005,-7.75575e-006 -0.000171513,-7.75575e-006 -0.000249514,-5.09664e-006 -7.82223e-005,2.43752e-006 -0.000129853,5.09664e-006 -0.000156001,5.09664e-006 -4.16595e-005,0 -7.53416e-005,1.3074e-005 -0.000106365,4.16595e-005 -3.12446e-005,2.88071e-005 -4.69777e-005,7.512e-005 -4.94152e-005,0.000145587l0 0.000732586c2.43752e-006,3.1023e-005 2.08297e-005,6.49267e-005 5.45119e-005,9.61713e-005 3.36821e-005,3.36821e-005 6.75858e-005,6.73642e-005 9.86089e-005,9.88304e-005 2.88071e-005,3.1023e-005 4.16595e-005,5.96085e-005 3.39037e-005,8.53133e-005 -7.75575e-006,1.57331e-005 -3.12446e-005,2.6148e-005 -6.75858e-005,3.41253e-005 -3.63412e-005,5.31823e-006 -7.26825e-005,1.01933e-005 -0.000109024,1.01933e-005 -3.63412e-005,2.65912e-006 -5.47335e-005,2.65912e-006 -5.73926e-005,2.65912e-006l-0.000420805 0c-4.16595e-005,2.43752e-006 -9.32906e-005,2.43752e-006 -0.000153121,0 -5.98301e-005,-2.65912e-006 -0.000109024,-1.81706e-005 -0.000143149,-4.69777e-005 -1.26308e-005,-1.52899e-005 -4.87504e-006,-4.14379e-005 2.10513e-005,-7.26825e-005 2.59264e-005,-3.1023e-005 5.20743e-005,-6.47051e-005 8.30973e-005,-9.83873e-005 3.1023e-005,-3.65628e-005 4.94152e-005,-6.78074e-005 5.20743e-005,-9.37338e-005l0 -0.00210447c-2.65912e-006,-2.06081e-005 -1.83922e-005,-4.67561e-005 -4.43186e-005,-8.04382e-005 -2.85855e-005,-3.12446e-005 -5.45119e-005,-6.73642e-005 -8.30973e-005,-0.000103705 -2.6148e-005,-3.90004e-005 -4.14379e-005,-7.53416e-005 -4.4097e-005,-0.000111904 2.65912e-006,-2.08297e-005 1.7949e-005,-3.12446e-005 5.42903e-005,-3.63412e-005 3.41253e-005,-2.65912e-006 7.55632e-005,-2.65912e-006 0.000124757,0 5.20743e-005,2.43752e-006 9.88304e-005,5.09664e-006 0.000148246,5.09664e-006 2.65912e-006,0 4.14379e-005,2.65912e-006 0.00011412,5.31823e-006 7.26825e-005,2.65912e-006 0.000166416,5.09664e-006 0.000280537,7.75575e-006 0.000114564,2.65912e-006 0.000236661,5.31823e-006 0.000361418,7.97735e-006 0.000127194,0 0.000244195,-2.65912e-006 0.00035056,-5.31823e-006 6.51483e-005,0 0.000132513,-2.65912e-006 0.00020032,-5.31823e-006 7.00234e-005,-2.43752e-006 0.000129632,-2.43752e-006 0.000181485,-5.09664e-006 4.94152e-005,-2.65912e-006 7.80007e-005,-5.31823e-006 8.57565e-005,-5.31823e-006 9.63929e-005,-2.65912e-006 0.000210513,5.31823e-006 0.000337929,1.83922e-005 0.000129853,1.28524e-005 0.00025461,4.14379e-005 0.000379367,8.57565e-005 0.000124535,4.4097e-005 0.000226025,0.000111461 0.000309122,0.000205195 8.06598e-005,9.35122e-005 0.000124757,0.000218269 0.000127194,0.000376708zm0.00249425 0.00540886c-7.97735e-006,1.57331e-005 -2.6148e-005,2.59264e-005 -5.47335e-005,3.36821e-005 -3.1023e-005,5.31823e-006 -5.98301e-005,1.06365e-005 -8.84156e-005,1.06365e-005 -2.57048e-005,2.43752e-006 -4.14379e-005,2.43752e-006 -4.4097e-005,2.43752e-006l-0.000327293 0c-3.36821e-005,0 -7.53416e-005,0 -0.000122098,-5.09664e-006 -4.94152e-005,-5.31823e-006 -8.57565e-005,-1.83922e-005 -0.000111683,-4.16595e-005 -7.75575e-006,-1.57331e-005 -2.65912e-006,-3.63412e-005 1.81706e-005,-6.24892e-005 2.08297e-005,-2.57048e-005 4.4097e-005,-5.42903e-005 6.75858e-005,-8.30973e-005 2.32673e-005,-2.59264e-005 3.63412e-005,-5.16312e-005 3.90004e-005,-7.26825e-005l0 -0.000981878c0,-7.0245e-005 -5.31823e-006,-0.000124757 -1.57331e-005,-0.000161098 -1.04149e-005,-3.87788e-005 -3.1023e-005,-5.7171e-005 -6.24892e-005,-5.7171e-005 -2.32673e-005,-2.65912e-006 -4.65345e-005,2.65912e-006 -7.00234e-005,1.04149e-005 -2.32673e-005,1.01933e-005 -4.67561e-005,3.90004e-005 -7.00234e-005,8.30973e-005l-0.00029627 0.000561073c0,2.65912e-006 -2.65912e-006,1.83922e-005 -7.75575e-006,4.67561e-005 -5.31823e-006,2.85855e-005 -7.97735e-006,5.98301e-005 -7.97735e-006,9.37338e-005 0,2.30457e-005 0,4.4097e-005 5.31823e-006,6.47051e-005 2.65912e-006,2.10513e-005 1.04149e-005,4.4097e-005 2.6148e-005,7.55632e-005l7.80007e-005 0.000264804c7.75575e-006,3.12446e-005 -2.65912e-006,5.73926e-005 -2.88071e-005,7.80007e-005 -2.59264e-005,2.08297e-005 -6.49267e-005,3.12446e-005 -0.000111683,3.12446e-005l-0.000249292 0c-3.90004e-005,-2.43752e-006 -8.06598e-005,-3.65628e-005 -0.000130075,-0.000101268 -4.94152e-005,-6.75858e-005 -9.86089e-005,-0.000148024 -0.000148024,-0.000244195 -4.94152e-005,-9.63929e-005 -9.61713e-005,-0.00019478 -0.000140268,-0.000290952 -4.16595e-005,-9.63929e-005 -7.53416e-005,-0.000176831 -0.000101268,-0.000244195 -2.85855e-005,-6.51483e-005 -4.14379e-005,-9.88304e-005 -4.14379e-005,-0.00010149 -2.88071e-005,-4.67561e-005 -5.20743e-005,-7.53416e-005 -6.51483e-005,-9.10747e-005 -1.57331e-005,-1.26308e-005 -2.85855e-005,-2.06081e-005 -4.4097e-005,-1.7949e-005 -2.59264e-005,2.65912e-006 -4.69777e-005,1.28524e-005 -6.22676e-005,3.1023e-005 -1.57331e-005,2.08297e-005 -2.88071e-005,4.16595e-005 -3.63412e-005,6.22676e-005 -7.97735e-006,1.83922e-005 -1.04149e-005,2.88071e-005 -1.04149e-005,3.14662e-005 -2.65912e-006,-1.57331e-005 -5.31823e-006,0 -5.31823e-006,4.67561e-005 -2.65912e-006,4.67561e-005 -2.65912e-006,0.000111683 -2.65912e-006,0.000192121 2.65912e-006,8.04382e-005 2.65912e-006,0.000163757 2.65912e-006,0.000249514 2.65912e-006,8.55349e-005 2.65912e-006,0.00015578 2.65912e-006,0.00021561 2.65912e-006,5.69494e-005 2.65912e-006,8.84156e-005 2.65912e-006,9.08531e-005 2.43752e-006,6.75858e-005 1.7949e-005,0.000124757 4.67561e-005,0.000171513 2.83639e-005,4.65345e-005 5.16312e-005,8.06598e-005 6.73642e-005,0.000103927 1.3074e-005,2.34888e-005 2.65912e-006,3.63412e-005 -3.63412e-005,3.63412e-005 -3.90004e-005,0 -8.57565e-005,0 -0.000140268,0 -5.45119e-005,0 -0.000103927,0 -0.000150683,0 -4.94152e-005,0 -8.04382e-005,0 -9.88304e-005,0 -3.36821e-005,-2.65912e-006 -4.14379e-005,-2.06081e-005 -2.83639e-005,-5.69494e-005 1.55115e-005,-3.90004e-005 3.63412e-005,-8.57565e-005 6.2046e-005,-0.00014049 2.6148e-005,-5.47335e-005 4.16595e-005,-0.000106586 4.43186e-005,-0.000161098l0 -0.00143415c-2.65912e-006,-2.32673e-005 -1.81706e-005,-5.42903e-005 -4.43186e-005,-9.35122e-005 -2.83639e-005,-3.90004e-005 -5.42903e-005,-7.26825e-005 -8.30973e-005,-0.000103927 -2.59264e-005,-3.36821e-005 -4.14379e-005,-4.94152e-005 -4.4097e-005,-5.20743e-005 -1.28524e-005,-1.52899e-005 -1.81706e-005,-2.83639e-005 -1.01933e-005,-3.61196e-005 7.75575e-006,-7.97735e-006 1.52899e-005,-1.06365e-005 2.59264e-005,-1.06365e-005 3.1023e-005,-2.65912e-006 8.04382e-005,-5.09664e-006 0.000150462,-7.75575e-006 7.04665e-005,0 0.000145587,0 0.000226246,2.65912e-006 7.77791e-005,0 0.000148246,2.43752e-006 0.000205195,2.43752e-006 5.7171e-005,2.65912e-006 8.57565e-005,2.65912e-006 8.84156e-005,2.65912e-006 3.87788e-005,0 7.00234e-005,1.3074e-005 9.61713e-005,3.90004e-005 2.32673e-005,2.34888e-005 4.4097e-005,5.20743e-005 5.96085e-005,8.57565e-005l0.000327293 0.000763831c7.75575e-006,2.32673e-005 2.08297e-005,4.16595e-005 3.65628e-005,5.73926e-005 1.7949e-005,1.28524e-005 4.16595e-005,2.06081e-005 7.26825e-005,2.06081e-005 2.83639e-005,2.65912e-006 4.67561e-005,5.31823e-006 5.47335e-005,2.65912e-006 7.53416e-006,-2.65912e-006 2.57048e-005,-2.85855e-005 5.42903e-005,-8.06598e-005l0.000436538 -0.000779121c4.67561e-005,-9.37338e-005 0.000124757,-0.00014049 0.000233781,-0.00014049l0.000405072 0c3.41253e-005,0 6.51483e-005,5.31823e-006 9.63929e-005,1.3074e-005 3.1023e-005,1.01933e-005 4.94152e-005,2.59264e-005 5.98301e-005,4.94152e-005 2.65912e-006,2.06081e-005 -7.97735e-006,4.4097e-005 -3.41253e-005,6.73642e-005 -2.57048e-005,2.32673e-005 -5.16312e-005,4.43186e-005 -7.77791e-005,6.75858e-005 -2.85855e-005,2.34888e-005 -4.16595e-005,4.67561e-005 -4.43186e-005,6.75858e-005l0 0.00160544c2.65912e-006,2.6148e-005 1.57331e-005,5.20743e-005 4.43186e-005,7.80007e-005 2.6148e-005,2.6148e-005 5.20743e-005,4.94152e-005 7.77791e-005,7.29041e-005 2.6148e-005,2.32673e-005 3.67844e-005,4.65345e-005 3.41253e-005,6.73642e-005zm-0.00801236 -0.00918126c0,0 0,1.04149e-005 -2.65912e-006,2.88071e-005 0,1.7949e-005 -5.09664e-006,4.14379e-005 -1.3074e-005,6.47051e-005l-0.000405072 0.000935344c-3.12446e-005,7.0245e-005 -4.67561e-005,0.000137609 -4.94152e-005,0.000202758 -5.31823e-006,6.22676e-005 2.65912e-006,0.00011412 1.81706e-005,0.00015578 1.01933e-005,3.36821e-005 1.81706e-005,7.26825e-005 2.32673e-005,0.000122098 5.31823e-006,4.94152e-005 7.97735e-006,9.61713e-005 5.31823e-006,0.000145587 -5.31823e-006,4.91936e-005 -1.3074e-005,8.79724e-005 -2.85855e-005,0.000122098 -3.63412e-005,5.42903e-005 -7.512e-005,0.000101046 -0.000111904,0.00013495 -3.87788e-005,3.39037e-005 -8.30973e-005,5.18527e-005 -0.000137388,5.18527e-005 -3.63412e-005,-2.43752e-006 -7.80007e-005,-4.67561e-005 -0.000122098,-0.000129853 -4.4097e-005,-8.30973e-005 -8.84156e-005,-0.000186803 -0.000135172,-0.000308901 -4.67561e-005,-0.000122098 -9.35122e-005,-0.000246855 -0.00014049,-0.000369174 -4.67561e-005,-0.000122098 -9.08531e-005,-0.000226025 -0.000135172,-0.000309122 -4.38754e-005,-8.30973e-005 -8.53133e-005,-0.000127194 -0.000121876,-0.000129853 -2.32673e-005,0 -4.43186e-005,5.31823e-006 -5.96085e-005,1.3074e-005 -1.83922e-005,1.01933e-005 -3.39037e-005,2.59264e-005 -4.94152e-005,4.94152e-005l-0.000218491 0.000405293c-2.06081e-005,3.87788e-005 -3.36821e-005,8.8194e-005 -4.4097e-005,0.000145143 -7.53416e-006,5.73926e-005 -1.28524e-005,0.000109467 -1.52899e-005,0.000156223 -2.65912e-006,4.65345e-005 -2.65912e-006,7.00234e-005 -2.65912e-006,7.26825e-005 2.65912e-006,3.1023e-005 5.09664e-006,6.47051e-005 1.26308e-005,9.61713e-005 5.31823e-006,3.36821e-005 0,5.69494e-005 -1.26308e-005,7.53416e-005 -2.65912e-006,2.65912e-006 -1.83922e-005,2.06081e-005 -5.20743e-005,5.69494e-005 -3.1023e-005,3.39037e-005 -6.73642e-005,7.0245e-005 -0.000109024,0.000103927 -4.16595e-005,3.63412e-005 -7.55632e-005,5.47335e-005 -0.000104149,5.7171e-005 -7.75575e-006,0 -2.06081e-005,-5.09664e-006 -3.87788e-005,-1.55115e-005 -1.57331e-005,-1.04149e-005 -2.85855e-005,-3.1023e-005 -3.90004e-005,-6.24892e-005l-0.000748319 -0.00182371c-1.3074e-005,-4.16595e-005 -5.09664e-006,-8.04382e-005 2.08297e-005,-0.00011412 2.85855e-005,-3.63412e-005 6.24892e-005,-5.47335e-005 0.000103927,-5.73926e-005l0.000343026 0c3.1023e-005,0 5.42903e-005,7.75575e-006 7.53416e-005,2.10513e-005 1.7949e-005,1.52899e-005 3.36821e-005,3.36821e-005 4.94152e-005,5.69494e-005 0,5.09664e-006 1.52899e-005,5.18527e-005 4.4097e-005,0.000142927 2.85855e-005,9.10747e-005 7.00234e-005,0.000200098 0.000124757,0.000327293 5.16312e-005,0.000129853 0.000116779,0.000251951 0.000189462,0.000371611 2.34888e-005,7.75575e-006 4.67561e-005,7.75575e-006 7.00234e-005,-5.31823e-006 2.37104e-005,-1.01933e-005 4.69777e-005,-3.36821e-005 7.04665e-005,-7.26825e-005l0.000249292 -0.000498806c-2.65912e-006,-1.04149e-005 -1.81706e-005,-3.90004e-005 -4.67561e-005,-8.30973e-005 -2.59264e-005,-4.43186e-005 -4.16595e-005,-8.57565e-005 -4.67561e-005,-0.000119439 2.65912e-006,-4.69777e-005 1.57331e-005,-8.30973e-005 3.90004e-005,-0.000106808 2.57048e-005,-2.32673e-005 5.45119e-005,-3.36821e-005 8.57565e-005,-3.36821e-005 2.43752e-006,0 2.57048e-005,0 7.00234e-005,0 4.4097e-005,0 8.84156e-005,0 0.000135172,0 4.67561e-005,0 7.77791e-005,0 9.08531e-005,0 3.12446e-005,0 5.20743e-005,5.31823e-006 6.75858e-005,1.57331e-005 1.3074e-005,1.04149e-005 2.88071e-005,3.1023e-005 4.14379e-005,6.22676e-005l0.00029627 0.000592318c2.08297e-005,5.47335e-005 4.14379e-005,9.10747e-005 5.7171e-005,0.000111683 1.55115e-005,2.08297e-005 3.90004e-005,2.88071e-005 6.75858e-005,2.88071e-005 3.1023e-005,0 5.45119e-005,-7.97735e-006 7.26825e-005,-2.10513e-005 1.55115e-005,-1.52899e-005 2.85855e-005,-3.36821e-005 3.65628e-005,-5.69494e-005l0.000280537 -0.000639296c1.57331e-005,-2.30457e-005 3.1023e-005,-4.14379e-005 4.94152e-005,-5.7171e-005 1.52899e-005,-1.28524e-005 3.63412e-005,-2.06081e-005 5.96085e-005,-2.06081e-005 5.98301e-005,0 9.88304e-005,1.04149e-005 0.000116779,3.1023e-005 1.83922e-005,2.10513e-005 2.6148e-005,4.67561e-005 2.34888e-005,7.80007e-005zm0.0019642 0.00347613c-2.65912e-006,0 -2.34888e-005,-1.04149e-005 -6.78074e-005,-2.83639e-005 -4.14379e-005,-1.83922e-005 -9.06315e-005,-3.67844e-005 -0.000150462,-5.73926e-005 -6.00517e-005,-1.81706e-005 -0.000117001,-3.36821e-005 -0.000171513,-3.90004e-005 -6.75858e-005,-1.04149e-005 -0.000130075,-1.81706e-005 -0.000184365,-2.34888e-005 -5.47335e-005,-4.87504e-006 -0.000114564,2.65912e-006 -0.000174172,2.34888e-005 -5.7171e-005,1.81706e-005 -0.000106586,3.90004e-005 -0.000150683,5.7171e-005 -4.16595e-005,2.08297e-005 -6.49267e-005,6.24892e-005 -6.75858e-005,0.000129853l0 0.00194869c2.65912e-006,3.1023e-005 2.06081e-005,6.49267e-005 5.47335e-005,9.59497e-005 3.36821e-005,3.36821e-005 6.73642e-005,6.78074e-005 9.86089e-005,9.88304e-005 2.85855e-005,3.1023e-005 4.14379e-005,5.96085e-005 3.36821e-005,8.57565e-005 -1.28524e-005,2.06081e-005 -3.63412e-005,3.36821e-005 -7.53416e-005,4.4097e-005 -3.63412e-005,7.97735e-006 -7.00234e-005,1.28524e-005 -0.000103705,1.55115e-005 -3.39037e-005,2.65912e-006 -5.20743e-005,2.65912e-006 -5.47335e-005,2.65912e-006l-0.000420805 0c-4.16595e-005,0 -9.37338e-005,-2.65912e-006 -0.000153342,-7.53416e-006 -5.98301e-005,-7.97735e-006 -0.000109245,-2.63696e-005 -0.000142927,-5.47335e-005 -1.28524e-005,-1.57331e-005 -7.97735e-006,-4.16595e-005 1.57331e-005,-7.26825e-005 2.32673e-005,-3.14662e-005 4.94152e-005,-6.51483e-005 7.77791e-005,-9.88304e-005 2.85855e-005,-3.63412e-005 4.43186e-005,-6.73642e-005 4.67561e-005,-9.35122e-005l0 -0.0019642c-2.43752e-006,-6.73642e-005 -2.57048e-005,-0.000109024 -6.73642e-005,-0.000129853 -4.4097e-005,-1.81706e-005 -9.35122e-005,-3.90004e-005 -0.000150905,-5.7171e-005 -5.96085e-005,-2.08297e-005 -0.000119439,-2.83639e-005 -0.00017395,-2.34888e-005 -5.45119e-005,5.31823e-006 -0.000117001,1.3074e-005 -0.000184365,2.34888e-005 -5.47335e-005,5.31823e-006 -0.000111904,2.08297e-005 -0.000171513,3.90004e-005 -5.98301e-005,2.06081e-005 -0.000109245,3.90004e-005 -0.000150905,5.73926e-005 -4.38754e-005,1.7949e-005 -6.47051e-005,2.83639e-005 -6.73642e-005,2.83639e-005l0.000249292 -0.000389782c2.65912e-006,0 1.83922e-005,2.65912e-006 5.20743e-005,7.97735e-006 3.36821e-005,5.09664e-006 7.26825e-005,1.04149e-005 0.000119439,1.55115e-005 4.43186e-005,5.09664e-006 8.57565e-005,7.75575e-006 0.000124757,7.75575e-006 2.65912e-006,0 4.4097e-005,0 0.000122098,0 7.80007e-005,0 0.000171513,0 0.000280537,0 0.000106586,0 0.000207854,0 0.000298707,0 0.000104149,0 0.000213172,0 0.000329952,0 0.000117001,0 0.000218269,0 0.000301366,0 8.57565e-005,0 0.000127416,0 0.000132734,0 3.36821e-005,0 7.26825e-005,-2.65912e-006 0.000119439,-7.75575e-006 4.4097e-005,-5.09664e-006 8.57565e-005,-1.04149e-005 0.000119439,-1.55115e-005 3.63412e-005,-5.31823e-006 5.47335e-005,-7.97735e-006 5.7171e-005,-7.97735e-006l0.000249514 0.000389782zm0.00303959 0.00540908c0,2.43752e-006 -1.04149e-005,3.1023e-005 -2.85855e-005,8.04382e-005 -2.08297e-005,4.94152e-005 -4.67561e-005,0.00010149 -8.30973e-005,0.000150905 -3.39037e-005,4.8972e-005 -7.55632e-005,7.77791e-005 -0.000122319,8.04382e-005l-0.00123139 0c-1.81706e-005,0 -4.94152e-005,0 -9.08531e-005,2.65912e-006 -4.43186e-005,0 -8.57565e-005,0 -0.000130075,-5.31823e-006 -4.14379e-005,-2.43752e-006 -7.26825e-005,-1.3074e-005 -9.08531e-005,-2.88071e-005 -7.53416e-006,-9.97168e-006 -2.43752e-006,-2.83639e-005 1.57331e-005,-5.16312e-005 1.81706e-005,-2.34888e-005 3.63412e-005,-4.67561e-005 5.7171e-005,-7.29041e-005 2.32673e-005,-2.59264e-005 3.36821e-005,-4.67561e-005 3.63412e-005,-6.22676e-005l0 -0.00162117c-2.65912e-006,-1.57331e-005 -1.3074e-005,-3.36821e-005 -3.1023e-005,-5.7171e-005 -2.10513e-005,-2.06081e-005 -4.16595e-005,-4.43186e-005 -6.24892e-005,-6.73642e-005 -1.81706e-005,-2.63696e-005 -2.85855e-005,-5.20743e-005 -3.12446e-005,-7.80007e-005 5.31823e-006,-2.08297e-005 3.12446e-005,-3.41253e-005 8.30973e-005,-3.41253e-005 4.94152e-005,0 0.000101268,0 0.000150683,2.65912e-006 2.65912e-006,0 2.88071e-005,2.65912e-006 7.80007e-005,5.31823e-006 4.94152e-005,2.65912e-006 0.000106586,2.65912e-006 0.000171291,5.31823e-006 6.51483e-005,2.43752e-006 0.000122098,5.09664e-006 0.000171513,5.09664e-006 9.10747e-005,0 0.000192564,-2.65912e-006 0.000301588,-7.75575e-006 0.000111461,-5.31823e-006 0.000210292,-1.06365e-005 0.000301366,-1.57331e-005 8.84156e-005,-4.87504e-006 0.000148024,-7.53416e-006 0.000176388,-7.53416e-006 4.16595e-005,2.65912e-006 8.30973e-005,2.32673e-005 0.000119882,6.47051e-005 3.87788e-005,3.90004e-005 7.00234e-005,8.06598e-005 9.32906e-005,0.000119439 2.34888e-005,4.16595e-005 3.63412e-005,6.24892e-005 3.63412e-005,6.51483e-005 -2.32673e-005,5.31823e-006 -5.69494e-005,0 -0.000103927,-1.04149e-005 -4.4097e-005,-1.04149e-005 -9.08531e-005,-2.08297e-005 -0.000135172,-3.1023e-005 -4.67561e-005,-1.3074e-005 -8.04382e-005,-2.10513e-005 -0.000103705,-2.10513e-005l-0.000592318 0c-3.12446e-005,0 -5.98301e-005,7.97735e-006 -8.57565e-005,2.10513e-005 -2.32673e-005,1.52899e-005 -3.63412e-005,3.36821e-005 -3.90004e-005,5.69494e-005l0 0.00053005c0,3.12446e-005 7.75575e-006,5.18527e-005 2.32673e-005,6.22676e-005 1.57331e-005,1.04149e-005 3.90004e-005,1.57331e-005 7.0245e-005,1.57331e-005l0.000405293 0c3.90004e-005,-2.65912e-006 7.00234e-005,-1.04149e-005 9.10747e-005,-2.34888e-005 2.32673e-005,-1.28524e-005 3.36821e-005,-2.06081e-005 3.36821e-005,-2.32673e-005l0.00015578 0.00029627c-2.65912e-006,-2.65912e-006 -1.7949e-005,-1.32956e-005 -4.94152e-005,-3.12446e-005 -3.1023e-005,-1.81706e-005 -6.49267e-005,-2.88071e-005 -0.000106365,-3.14662e-005l-0.000545562 0c-2.32673e-005,0 -4.16595e-005,1.57331e-005 -5.73926e-005,4.16595e-005 -1.28524e-005,2.88071e-005 -2.06081e-005,6.78074e-005 -2.06081e-005,0.000114564l0 0.00054534c2.65912e-006,3.12446e-005 1.7949e-005,5.7171e-005 4.67561e-005,7.82223e-005 2.85855e-005,2.06081e-005 5.96085e-005,3.1023e-005 9.37338e-005,3.1023e-005l0.000576585 0c4.43186e-005,0 0.000101268,-1.04149e-005 0.000168854,-2.34888e-005 6.75858e-005,-1.55115e-005 0.000130075,-3.12446e-005 0.000187024,-4.67561e-005 5.45119e-005,-1.28524e-005 8.84156e-005,-2.32673e-005 9.61713e-005,-2.32673e-005zm-0.00774711 -0.00726404c0,2.43752e-006 -5.31823e-006,2.08297e-005 -1.83922e-005,5.7171e-005 -1.04149e-005,3.36821e-005 -2.83639e-005,7.53416e-005 -4.94152e-005,0.000122098 -2.32673e-005,4.67561e-005 -5.16312e-005,8.84156e-005 -8.30973e-005,0.000122098 -3.36821e-005,3.63412e-005 -7.00234e-005,5.45119e-005 -0.000114342,5.7171e-005l-0.00148068 0c-1.81706e-005,0 -5.18527e-005,0 -9.88304e-005,2.65912e-006 -4.94152e-005,0 -9.61713e-005,-2.65912e-006 -0.000145587,-1.04149e-005 -4.65345e-005,-5.31823e-006 -8.04382e-005,-1.83922e-005 -9.86089e-005,-3.90004e-005 -7.75575e-006,-1.04149e-005 -2.43752e-006,-2.83639e-005 1.81706e-005,-5.20743e-005 2.08297e-005,-2.32673e-005 4.4097e-005,-4.94152e-005 6.75858e-005,-7.77791e-005 2.32673e-005,-2.59264e-005 3.63412e-005,-5.20743e-005 3.90004e-005,-7.26825e-005l0 -0.00163691c-2.65912e-006,-1.57331e-005 -1.3074e-005,-3.63412e-005 -3.63412e-005,-5.98301e-005 -2.34888e-005,-2.59264e-005 -4.4097e-005,-5.16312e-005 -6.75858e-005,-8.30973e-005 -2.32673e-005,-2.85855e-005 -3.39037e-005,-5.96085e-005 -3.63412e-005,-9.06315e-005 5.09664e-006,-2.10513e-005 3.36821e-005,-2.88071e-005 9.08531e-005,-2.63696e-005 5.73926e-005,5.31823e-006 0.000114342,7.97735e-006 0.000174172,1.06365e-005 2.65912e-006,0 3.1023e-005,0 8.57565e-005,0 5.42903e-005,0 0.000119439,0 0.000192121,0 7.00234e-005,0 0.000135172,0 0.000189905,0 0.000142706,0 0.000272559,-2.65912e-006 0.000389339,-7.97735e-006 0.000117001,-5.09664e-006 0.000200098,-7.75575e-006 0.000249514,-7.75575e-006 4.67561e-005,2.65912e-006 9.35122e-005,2.6148e-005 0.000135172,6.78074e-005 4.14379e-005,4.4097e-005 7.77791e-005,8.57565e-005 0.000103927,0.000129853 2.59264e-005,4.14379e-005 4.16595e-005,6.47051e-005 4.16595e-005,6.73642e-005 -2.88071e-005,5.31823e-006 -6.78074e-005,0 -0.000122319,-1.04149e-005 -5.18527e-005,-1.04149e-005 -0.000103927,-2.06081e-005 -0.00015578,-3.1023e-005 -5.20743e-005,-1.3074e-005 -8.84156e-005,-2.10513e-005 -0.000111683,-2.10513e-005l-0.000421027 0c-3.87788e-005,0 -7.24609e-005,7.97735e-006 -9.88304e-005,2.34888e-005 -2.57048e-005,1.57331e-005 -4.14379e-005,3.90004e-005 -4.14379e-005,7.0245e-005l0 0.000405293c0,2.32673e-005 7.75575e-006,4.16595e-005 2.34888e-005,5.7171e-005 1.55115e-005,1.3074e-005 3.90004e-005,2.08297e-005 7.00234e-005,2.08297e-005l0.000343026 0c3.90004e-005,-2.65912e-006 7.00234e-005,-1.3074e-005 9.10747e-005,-3.14662e-005 2.32673e-005,-1.7949e-005 3.36821e-005,-2.83639e-005 3.36821e-005,-3.1023e-005l0.000186803 0.000327293c-2.43752e-006,-2.65912e-006 -2.06081e-005,-1.01933e-005 -5.69494e-005,-2.32673e-005 -3.90004e-005,-1.3074e-005 -8.04382e-005,-2.08297e-005 -0.000129853,-2.34888e-005l-0.000467783 0c-3.1023e-005,0 -5.45119e-005,1.3074e-005 -7.00234e-005,3.65628e-005 -1.57331e-005,2.59264e-005 -2.34888e-005,6.49267e-005 -2.34888e-005,0.000119439l0 0.000639074c2.65912e-006,3.12446e-005 1.83922e-005,5.7171e-005 4.94152e-005,7.77791e-005 3.1023e-005,2.10513e-005 6.51483e-005,3.14662e-005 0.000106586,3.14662e-005l0.000748319 0c4.8972e-005,-2.65912e-006 0.000111683,-1.04149e-005 0.000186803,-2.88071e-005 7.53416e-005,-1.7949e-005 0.000145587,-3.36821e-005 0.000207854,-5.18527e-005 5.98301e-005,-1.81706e-005 9.61713e-005,-2.6148e-005 0.000104149,-2.85855e-005zm0.00558037 0.00590789c-2.65912e-006,0 -1.83922e-005,-7.75575e-006 -5.20743e-005,-2.08297e-005 -3.36821e-005,-1.3074e-005 -7.512e-005,-2.59264e-005 -0.000124535,-4.16595e-005 -4.69777e-005,-1.57331e-005 -9.10747e-005,-2.59264e-005 -0.000135172,-3.1023e-005 -7.0245e-005,-1.83922e-005 -0.000132734,-3.12446e-005 -0.000192343,-4.16595e-005 -5.98301e-005,-7.75575e-006 -0.000119439,5.31823e-006 -0.000181928,4.16595e-005 -4.94152e-005,1.3074e-005 -9.08531e-005,2.59264e-005 -0.000127194,4.14379e-005 -3.90004e-005,1.3074e-005 -5.69494e-005,4.69777e-005 -5.96085e-005,9.86089e-005l0 0.0013721c2.65912e-006,2.06081e-005 1.52899e-005,4.38754e-005 4.4097e-005,6.73642e-005 2.59264e-005,2.32673e-005 5.18527e-005,4.4097e-005 7.80007e-005,6.73642e-005 2.59264e-005,2.37104e-005 3.63412e-005,4.67561e-005 3.36821e-005,6.78074e-005 -7.75575e-006,1.52899e-005 -2.59264e-005,2.59264e-005 -5.47335e-005,3.36821e-005 -3.1023e-005,5.31823e-006 -5.96085e-005,1.04149e-005 -8.8194e-005,1.04149e-005 -2.59264e-005,2.65912e-006 -4.16595e-005,2.65912e-006 -4.4097e-005,2.65912e-006l-0.000327514 0c-3.36821e-005,2.65912e-006 -7.53416e-005,2.65912e-006 -0.000122098,0 -4.94152e-005,-2.65912e-006 -8.57565e-005,-1.83922e-005 -0.000111683,-4.67561e-005 -7.75575e-006,-1.04149e-005 -2.43752e-006,-2.88071e-005 1.83922e-005,-5.20743e-005 2.06081e-005,-2.34888e-005 4.38754e-005,-4.94152e-005 6.73642e-005,-7.77791e-005 2.32673e-005,-2.6148e-005 3.63412e-005,-5.20743e-005 3.90004e-005,-7.26825e-005l0 -0.0013721c-2.65912e-006,-5.16312e-005 -2.08297e-005,-8.55349e-005 -5.7171e-005,-9.86089e-005 -3.36821e-005,-1.55115e-005 -7.26825e-005,-2.83639e-005 -0.000114342,-4.14379e-005 -6.73642e-005,-3.63412e-005 -0.000132513,-4.94152e-005 -0.00019478,-4.16595e-005 -5.98301e-005,1.04149e-005 -0.000124535,2.32673e-005 -0.000195002,4.16595e-005 -4.38754e-005,5.09664e-006 -8.53133e-005,1.52899e-005 -0.000132291,3.1023e-005 -4.4097e-005,1.57331e-005 -8.30973e-005,2.85855e-005 -0.000114342,4.16595e-005 -3.12446e-005,1.3074e-005 -4.69777e-005,2.08297e-005 -4.91936e-005,2.08297e-005l0.000186803 -0.000420805c5.31823e-006,0 3.12446e-005,5.09664e-006 8.30973e-005,1.52899e-005 4.94152e-005,7.97735e-006 0.00010149,1.3074e-005 0.000150683,1.57331e-005 2.65912e-006,0 3.39037e-005,0 9.10747e-005,0 5.98301e-005,0 0.000129853,0 0.000210292,0 8.30973e-005,0 0.000158439,0 0.000231343,0 7.0245e-005,0 0.000122098,0 0.000150683,0 2.83639e-005,0 1.83922e-005,0 -2.85855e-005,0 -5.18527e-005,0 -6.49267e-005,0 -3.36821e-005,0 2.85855e-005,0 8.30973e-005,0 0.000158439,0 7.80007e-005,0 0.000161098,0 0.000249514,0 8.8194e-005,0 0.000163536,0 0.000228462,0 6.24892e-005,0 9.61713e-005,0 9.88304e-005,0 2.32673e-005,0 4.94152e-005,-2.65912e-006 8.30973e-005,-7.75575e-006 3.36821e-005,-5.31823e-006 6.47051e-005,-1.06365e-005 9.35122e-005,-1.57331e-005 2.59264e-005,-4.87504e-006 3.90004e-005,-7.53416e-006 4.16595e-005,-7.53416e-006l0.000202536 0.000420805zm-0.00394391 -0.00215122c2.08297e-005,4.4097e-005 1.83922e-005,9.35122e-005 -7.53416e-006,0.000148246 -2.6148e-005,5.42903e-005 -6.51483e-005,0.000106365 -0.000111904,0.000158439 -4.94152e-005,4.94152e-005 -9.86089e-005,9.08531e-005 -0.000142706,0.000124535 -4.67561e-005,3.39037e-005 -7.80007e-005,5.20743e-005 -9.61713e-005,5.20743e-005 -6.00517e-005,-2.65912e-006 -0.000137831,-4.4097e-005 -0.000233781,-0.000127194 -9.88304e-005,-8.06598e-005 -0.000205195,-0.000187246 -0.000325077,-0.000317099 -0.000119439,-0.000130075 -0.000238877,-0.000267463 -0.000363634,-0.000413049 -0.000122098,-0.000145365 -0.000238877,-0.000283196 -0.000347901,-0.000413049 -0.000109245,-0.000130075 -0.000202758,-0.00023644 -0.000280758,-0.000316878 -8.04382e-005,-8.30973e-005 -0.000132513,-0.000124757 -0.000163536,-0.000127416 -4.69777e-005,2.65912e-006 -7.80007e-005,2.32673e-005 -9.86089e-005,5.96085e-005 -2.10513e-005,3.90004e-005 -3.14662e-005,7.55632e-005 -3.65628e-005,0.000114564 -5.09664e-006,3.63412e-005 -5.09664e-006,5.69494e-005 -5.09664e-006,5.96085e-005 -5.09664e-006,-2.06081e-005 -1.04149e-005,-2.65912e-006 -1.3074e-005,5.98301e-005 0,6.22676e-005 -2.65912e-006,0.000148024 0,0.00025461 0,0.000106365 2.65912e-006,0.000215388 5.31823e-006,0.000327293 0,0.000111683 2.65912e-006,0.000205195 5.09664e-006,0.000283196 2.65912e-006,7.53416e-005 2.65912e-006,0.000116779 2.65912e-006,0.000119439 2.43752e-006,6.73642e-005 1.55115e-005,0.000124757 4.16595e-005,0.000174172 2.59264e-005,5.20743e-005 4.91936e-005,9.35122e-005 7.53416e-005,0.000127194 2.57048e-005,3.36821e-005 3.87788e-005,5.96085e-005 4.14379e-005,7.80007e-005 2.65912e-006,1.83922e-005 -2.08297e-005,2.59264e-005 -6.51483e-005,2.59264e-005 -5.42903e-005,0 -0.000119439,0 -0.000197218,0 -7.53416e-005,0 -0.000145365,0 -0.000207854,0 -6.49267e-005,0 -0.000106365,0 -0.000124757,0 -4.16595e-005,0 -5.98301e-005,-1.55115e-005 -5.47335e-005,-4.16595e-005 2.65912e-006,-2.85855e-005 1.83922e-005,-6.47051e-005 4.43186e-005,-0.000109024 2.6148e-005,-4.4097e-005 5.20743e-005,-9.35122e-005 7.77791e-005,-0.000145587 2.6148e-005,-5.18527e-005 3.90004e-005,-0.000103705 4.16595e-005,-0.00015578l0 -0.0017302c-2.65912e-006,-2.6148e-005 -2.32673e-005,-6.24892e-005 -5.96085e-005,-0.000109245 -3.90004e-005,-4.91936e-005 -8.30973e-005,-9.86089e-005 -0.000135172,-0.000153121 -5.20743e-005,-5.20743e-005 -9.61713e-005,-9.63929e-005 -0.000135172,-0.000132734 -3.63412e-005,-3.61196e-005 -5.69494e-005,-5.45119e-005 -5.96085e-005,-5.69494e-005 -2.08297e-005,-2.34888e-005 -2.6148e-005,-3.92219e-005 -1.57331e-005,-4.94152e-005 1.06365e-005,-7.75575e-006 2.10513e-005,-1.3074e-005 3.12446e-005,-1.3074e-005 4.4097e-005,-2.43752e-006 0.000111904,-5.09664e-006 0.000197661,-7.75575e-006 8.57565e-005,0 0.000176388,0 0.000275218,2.65912e-006 9.61713e-005,0 0.000187246,2.65912e-006 0.000267684,2.65912e-006 8.30973e-005,2.43752e-006 0.000142706,2.43752e-006 0.000179047,2.43752e-006 0.000111904,0.000106808 0.000228684,0.000239099 0.000353441,0.000399975 0.000124757,0.00016132 0.000270122,0.000343026 0.000436316,0.000540465 0.000166195,0.000197661 0.000371611,0.000402856 0.000613369,0.000618466 2.32673e-005,-3.12446e-005 4.16595e-005,-7.77791e-005 5.69494e-005,-0.000135172 1.3074e-005,-5.7171e-005 2.10513e-005,-0.000122098 2.10513e-005,-0.000192121l0 -0.000794854c-2.65912e-006,-6.24892e-005 -1.57331e-005,-0.000117223 -4.16595e-005,-0.000166416 -2.34888e-005,-4.94152e-005 -4.94152e-005,-8.8194e-005 -7.53416e-005,-0.000122098 -2.6148e-005,-3.39037e-005 -3.90004e-005,-5.7171e-005 -4.14379e-005,-7.55632e-005 0,-1.7949e-005 2.06081e-005,-2.57048e-005 6.47051e-005,-2.57048e-005 4.94152e-005,0 0.000111683,0 0.000187246,0 7.26825e-005,0 0.000142706,0 0.000207854,0 6.73642e-005,0 0.000111683,0 0.000134728,0 4.69777e-005,2.43752e-006 6.27108e-005,2.30457e-005 4.16595e-005,6.73642e-005 -2.06081e-005,4.4097e-005 -4.91936e-005,9.88304e-005 -8.84156e-005,0.000166195 -3.63412e-005,6.51483e-005 -5.69494e-005,0.000132513 -6.2046e-005,0.000202758l0 0.00143415 0.000186803 0.000327293zm-0.00414623 -0.00369418c1.7949e-005,4.4097e-005 7.75575e-006,9.35122e-005 -2.59264e-005,0.000153121 -3.65628e-005,5.7171e-005 -7.82223e-005,0.000106586 -0.000124757,0.000150905 -4.67561e-005,4.38754e-005 -8.06598e-005,6.73642e-005 -9.88304e-005,7.00234e-005 -5.18527e-005,-2.65912e-006 -0.000121876,-4.94152e-005 -0.000212951,-0.00014049 -8.84156e-005,-8.84156e-005 -0.000186803,-0.000199877 -0.000290952,-0.000332389 -0.000106365,-0.000132734 -0.000210513,-0.000262366 -0.000312003,-0.000394879 -0.000101046,-0.000132513 -0.000189462,-0.000244195 -0.000262144,-0.000332389 -7.53416e-005,-9.10747e-005 -0.000127194,-0.000137831 -0.000153342,-0.00014049 -3.12446e-005,2.65912e-006 -5.45119e-005,1.83922e-005 -7.0245e-005,4.4097e-005 -1.52899e-005,2.85855e-005 -2.57048e-005,5.47335e-005 -3.1023e-005,8.33189e-005 -5.31823e-006,2.57048e-005 -7.75575e-006,4.14379e-005 -7.75575e-006,4.4097e-005 -2.65912e-006,-1.57331e-005 -5.31823e-006,0 -5.31823e-006,4.67561e-005 -2.65912e-006,4.67561e-005 -2.65912e-006,0.000111683 -2.65912e-006,0.000192121 2.65912e-006,8.06598e-005 2.65912e-006,0.000163757 2.65912e-006,0.000249514 2.65912e-006,8.57565e-005 2.65912e-006,0.00015578 2.65912e-006,0.00021561 2.65912e-006,5.7171e-005 2.65912e-006,8.84156e-005 2.65912e-006,9.10747e-005 2.43752e-006,6.73642e-005 1.81706e-005,0.000124535 4.67561e-005,0.000171513 2.83639e-005,4.67561e-005 5.20743e-005,8.04382e-005 6.73642e-005,0.000103705 1.3074e-005,2.34888e-005 2.65912e-006,3.63412e-005 -3.63412e-005,3.63412e-005 -3.90004e-005,0 -8.57565e-005,0 -0.000140047,0 -5.47335e-005,0 -0.000104149,0 -0.000150905,0 -4.94152e-005,0 -8.04382e-005,0 -9.86089e-005,0 -3.39037e-005,-2.65912e-006 -4.14379e-005,-2.06081e-005 -2.85855e-005,-5.69494e-005 1.55115e-005,-3.90004e-005 3.63412e-005,-8.57565e-005 6.24892e-005,-0.00014049 2.57048e-005,-5.47335e-005 4.14379e-005,-0.000106365 4.4097e-005,-0.000161098l0 -0.0013249c-2.65912e-006,-2.34888e-005 -2.88071e-005,-6.24892e-005 -7.29041e-005,-0.000116779 -4.43186e-005,-5.47335e-005 -9.08531e-005,-0.000104149 -0.00013495,-0.000150905 -4.4097e-005,-4.67561e-005 -7.0245e-005,-7.26825e-005 -7.29041e-005,-7.53416e-005 -1.28524e-005,-2.30457e-005 -1.28524e-005,-3.87788e-005 -2.65912e-006,-4.94152e-005 1.3074e-005,-7.75575e-006 2.34888e-005,-1.3074e-005 3.39037e-005,-1.3074e-005 4.16595e-005,-4.87504e-006 0.000103927,-7.53416e-006 0.000192343,-7.53416e-006 8.8194e-005,0 0.00017661,2.65912e-006 0.000265025,5.31823e-006 8.57565e-005,0 0.000145365,2.21593e-006 0.000181706,2.21593e-006 8.57565e-005,8.57565e-005 0.00017395,0.000189905 0.000262366,0.000319759 8.84156e-005,0.000127416 0.000192121,0.000270122 0.000312003,0.000426123 0.000116779,0.000156001 0.000264804,0.000316878 0.000438976,0.000485732 1.55115e-005,-2.34888e-005 3.1023e-005,-5.7171e-005 4.4097e-005,-0.000103927 1.04149e-005,-4.43186e-005 1.83922e-005,-9.86089e-005 1.83922e-005,-0.000161098l0 -0.000623562c-2.65912e-006,-6.2046e-005 -2.10513e-005,-0.000116779 -5.20743e-005,-0.000163536 -3.12446e-005,-4.67561e-005 -5.20743e-005,-8.30973e-005 -6.78074e-005,-0.000109024 -1.52899e-005,-2.6148e-005 -2.65912e-006,-3.90004e-005 4.16595e-005,-3.90004e-005 3.87788e-005,0 8.57565e-005,0 0.000137609,0 5.47335e-005,0 0.000104149,0 0.000150683,0 4.4097e-005,0 7.29041e-005,0 8.57565e-005,0 3.90004e-005,2.65912e-006 4.94152e-005,2.06081e-005 3.65628e-005,5.69494e-005 -1.57331e-005,3.90004e-005 -3.92219e-005,8.57565e-005 -6.75858e-005,0.00014049 -2.85855e-005,5.45119e-005 -4.43186e-005,0.000106365 -4.69777e-005,0.000161098l0 0.00112215 0.00014049 0.000265247zm0.00573615 0.00688977c-2.43752e-006,0.00013495 -4.4097e-005,0.000249514 -0.000124535,0.000337486 -7.80007e-005,8.84156e-005 -0.00017661,0.000158882 -0.000293611,0.000210513 -0.000117001,4.94152e-005 -0.000233781,8.57565e-005 -0.00035056,0.000106586 -0.000117001,2.08297e-005 -0.000213172,3.12446e-005 -0.000290952,3.12446e-005 -6.78074e-005,0 -0.000148246,-1.57331e-005 -0.000244195,-4.43186e-005 -9.61713e-005,-2.57048e-005 -0.00017949,-6.47051e-005 -0.00025461,-0.000111461 -1.83922e-005,-1.04149e-005 -4.16595e-005,-1.3074e-005 -7.31257e-005,-1.04149e-005 -3.1023e-005,2.43752e-006 -6.2046e-005,7.75575e-006 -8.79724e-005,1.55115e-005 -2.6148e-005,5.31823e-006 -3.92219e-005,1.01933e-005 -4.16595e-005,1.01933e-005l0.000156001 -0.000483073c0,2.65912e-006 5.09664e-006,1.83922e-005 1.52899e-005,4.4097e-005 7.75575e-006,2.85855e-005 2.08297e-005,5.73926e-005 3.65628e-005,8.84156e-005 1.81706e-005,2.85855e-005 3.63412e-005,4.67561e-005 5.69494e-005,5.47335e-005 6.24892e-005,3.36821e-005 0.000137831,7.26825e-005 0.000223587,0.000116779 8.57565e-005,4.16595e-005 0.000181706,6.49267e-005 0.000290952,7.00234e-005 5.96085e-005,0 0.000122098,-1.04149e-005 0.000184365,-3.1023e-005 6.51483e-005,-2.08297e-005 0.00011966,-5.47335e-005 0.000166195,-9.88304e-005 4.43186e-005,-4.4097e-005 6.78074e-005,-9.86089e-005 7.04665e-005,-0.000166195 -2.65912e-006,-9.37338e-005 -4.43186e-005,-0.000168854 -0.000124757,-0.000223366 -8.04382e-005,-5.45119e-005 -0.000179269,-0.00010149 -0.000298929,-0.000137831 -0.000116779,-3.87788e-005 -0.000236218,-8.04382e-005 -0.000353441,-0.000124535 -0.000119439,-4.43186e-005 -0.000217826,-0.000106808 -0.000298486,-0.000181928 -8.08814e-005,-7.80007e-005 -0.000122319,-0.000181706 -0.000124757,-0.000314219 2.43752e-006,-0.000135172 3.63412e-005,-0.000249514 0.000101268,-0.000340588 6.24892e-005,-9.08531e-005 0.000145587,-0.000160876 0.000244195,-0.00021561 9.88304e-005,-5.20743e-005 0.000199877,-9.08531e-005 0.000306685,-0.000111683 0.000103705,-2.34888e-005 0.000199877,-3.36821e-005 0.000282974,-3.36821e-005 9.10747e-005,0 0.00015578,2.43752e-006 0.000197439,7.53416e-006 4.16595e-005,5.31823e-006 8.30973e-005,1.57331e-005 0.00011966,3.14662e-005 3.63412e-005,1.55115e-005 9.08531e-005,3.90004e-005 0.000166416,7.00234e-005 2.59264e-005,5.31823e-006 5.16312e-005,2.65912e-006 8.04382e-005,-1.04149e-005 2.59264e-005,-1.04149e-005 4.16595e-005,-1.7949e-005 4.43186e-005,-2.06081e-005l6.2046e-005 0.000436316c0,-2.65912e-006 -1.04149e-005,-1.28524e-005 -2.57048e-005,-3.63412e-005 -1.57331e-005,-2.32673e-005 -3.63412e-005,-4.43186e-005 -5.73926e-005,-6.75858e-005 -2.06081e-005,-2.34888e-005 -4.14379e-005,-3.36821e-005 -5.7171e-005,-3.63412e-005 -2.59264e-005,-2.43752e-006 -6.22676e-005,-1.55115e-005 -0.000109024,-4.14379e-005 -4.67561e-005,-2.34888e-005 -0.000103927,-4.94152e-005 -0.000171513,-7.29041e-005 -6.73642e-005,-2.59264e-005 -0.000145365,-3.90004e-005 -0.000233781,-4.16595e-005 -4.94152e-005,0 -0.000103927,7.75575e-006 -0.000163536,2.6148e-005 -6.00517e-005,1.7949e-005 -0.000111904,4.67561e-005 -0.000156223,8.30973e-005 -4.4097e-005,3.63412e-005 -6.73642e-005,8.30973e-005 -7.00234e-005,0.000140268 2.65912e-006,0.000106586 4.4097e-005,0.000187024 0.000124757,0.000241758 8.04382e-005,5.42903e-005 0.000179269,0.000101046 0.000298707,0.00013495 0.000117001,3.36821e-005 0.00023644,7.512e-005 0.000353219,0.000119439 0.000119882,4.67561e-005 0.000218269,0.000114564 0.000298929,0.000202758 8.04382e-005,8.8194e-005 0.000122098,0.000212951 0.000124535,0.000376708zm-0.00494108 -0.00319559c0,2.65912e-006 -7.97735e-006,2.6148e-005 -2.37104e-005,7.0245e-005 -1.26308e-005,4.38754e-005 -3.63412e-005,9.59497e-005 -6.47051e-005,0.00015578 -2.85855e-005,5.96085e-005 -6.24892e-005,0.000111683 -0.00010149,0.00015578 -4.14379e-005,4.43186e-005 -8.57565e-005,6.75858e-005 -0.000137388,7.0245e-005l-0.0018862 0c-2.32673e-005,0 -6.49267e-005,0 -0.000127416,-2.65912e-006 -5.98301e-005,-2.65912e-006 -0.000122098,-7.53416e-006 -0.000181928,-1.55115e-005 -6.22676e-005,-1.04149e-005 -0.000103705,-2.34888e-005 -0.000127416,-4.4097e-005 -1.26308e-005,-1.57331e-005 -4.87504e-006,-4.16595e-005 2.10513e-005,-7.26825e-005 2.57048e-005,-3.14662e-005 5.20743e-005,-6.51483e-005 8.30973e-005,-9.88304e-005 3.1023e-005,-3.63412e-005 4.94152e-005,-6.73642e-005 5.20743e-005,-9.35122e-005l0 -0.00207322c-2.65912e-006,-2.08297e-005 -1.83922e-005,-4.67561e-005 -4.43186e-005,-8.04382e-005 -2.88071e-005,-3.12446e-005 -5.45119e-005,-6.75858e-005 -8.30973e-005,-0.000104149 -2.6148e-005,-3.90004e-005 -4.14379e-005,-7.53416e-005 -4.4097e-005,-0.000111683 2.65912e-006,-2.06081e-005 1.7949e-005,-3.1023e-005 5.42903e-005,-3.63412e-005 3.41253e-005,-2.43752e-006 7.55632e-005,-2.43752e-006 0.000124978,0 5.18527e-005,2.65912e-006 9.86089e-005,5.31823e-006 0.000148024,5.31823e-006 2.65912e-006,0 2.83639e-005,0 8.04382e-005,2.65912e-006 5.20743e-005,2.65912e-006 0.000117001,2.65912e-006 0.00019478,5.09664e-006 7.55632e-005,2.65912e-006 0.000153564,2.65912e-006 0.000231343,5.09664e-006 7.80007e-005,2.65912e-006 0.000142706,2.65912e-006 0.00019478,2.65912e-006 9.10747e-005,0 0.00019478,-2.65912e-006 0.000306685,-7.75575e-006 0.000111683,-5.09664e-006 0.000223144,-1.04149e-005 0.000332611,-1.55115e-005 0.000109024,-5.31823e-006 0.000205195,-1.06365e-005 0.000285633,-1.57331e-005 8.06598e-005,-5.31823e-006 0.000137831,-7.53416e-006 0.000166195,-7.53416e-006 4.43186e-005,2.21593e-006 8.57565e-005,2.06081e-005 0.000127416,5.69494e-005 4.4097e-005,3.36821e-005 8.04382e-005,7.512e-005 0.000116779,0.000122098 3.39037e-005,4.67561e-005 6.24892e-005,8.8194e-005 8.33189e-005,0.000122098 2.08297e-005,3.63412e-005 3.1023e-005,5.45119e-005 3.1023e-005,5.7171e-005 -3.90004e-005,2.65912e-006 -9.06315e-005,-2.65912e-006 -0.00015578,-1.83922e-005 -6.75858e-005,-1.52899e-005 -0.000132513,-3.1023e-005 -0.000197439,-4.63129e-005 -6.24892e-005,-1.83922e-005 -0.000111904,-2.63696e-005 -0.000145587,-2.88071e-005l-0.000919832 0c-4.67561e-005,0 -8.8194e-005,1.04149e-005 -0.000119439,3.36821e-005 -3.36821e-005,2.08297e-005 -4.94152e-005,5.20743e-005 -5.18527e-005,9.08531e-005l0 0.000592539c0,3.90004e-005 7.75575e-006,6.73642e-005 2.85855e-005,8.30973e-005 1.81706e-005,1.83922e-005 4.94152e-005,2.59264e-005 9.59497e-005,2.59264e-005l0.000421027 0c5.45119e-005,-2.65912e-006 9.61713e-005,-1.55115e-005 0.000127194,-3.90004e-005 2.88071e-005,-2.32673e-005 4.43186e-005,-3.63412e-005 4.43186e-005,-3.90004e-005l0.000218269 0.000421027c-2.65912e-006,-2.65912e-006 -2.59264e-005,-1.55115e-005 -6.75858e-005,-3.90004e-005 -4.4097e-005,-2.32673e-005 -9.35122e-005,-3.63412e-005 -0.000150683,-3.90004e-005l-0.000607829 0c-3.12446e-005,0 -5.73926e-005,1.83922e-005 -7.80007e-005,5.47335e-005 -2.08297e-005,3.63412e-005 -3.12446e-005,8.57565e-005 -3.12446e-005,0.000147802l0 0.000732808c2.43752e-006,4.65345e-005 2.08297e-005,8.30973e-005 5.98301e-005,0.000106365 3.63412e-005,2.59264e-005 7.77791e-005,4.16595e-005 0.000127194,4.94152e-005 2.65912e-006,0 2.32673e-005,5.31823e-006 6.75858e-005,1.55115e-005 4.14379e-005,1.04149e-005 9.35122e-005,2.08297e-005 0.000156001,3.14662e-005 6.22676e-005,1.01933e-005 0.000122098,1.52899e-005 0.000181706,1.52899e-005 7.53416e-005,0 0.000156001,-5.09664e-006 0.000241536,-1.52899e-005 8.57565e-005,-1.06365e-005 0.00016132,-2.10513e-005 0.000223587,-3.14662e-005 5.98301e-005,-1.01933e-005 9.35122e-005,-1.55115e-005 9.61713e-005,-1.55115e-005 6.22676e-005,-1.04149e-005 0.000140047,-2.83639e-005 0.000233781,-4.94152e-005 9.61713e-005,-2.32673e-005 0.000181928,-4.4097e-005 0.000259707,-6.2046e-005 7.80007e-005,-1.83922e-005 0.000119439,-2.88071e-005 0.000130075,-2.88071e-005zm0.00269656 0.00183944l-0.000514539 0.000779342c-1.52899e-005,1.81706e-005 -3.63412e-005,4.4097e-005 -5.69494e-005,8.30973e-005 -2.08297e-005,3.87788e-005 -4.16595e-005,7.82223e-005 -5.7171e-005,0.00011966 -1.55115e-005,3.90004e-005 -2.59264e-005,7.00234e-005 -2.59264e-005,9.32906e-005l0 0.000857565c0,1.01933e-005 -7.97735e-006,2.59264e-005 -2.10513e-005,4.4097e-005 -1.52899e-005,2.06081e-005 -3.36821e-005,3.12446e-005 -5.69494e-005,3.36821e-005l-0.000311781 0c-2.59264e-005,0 -5.20743e-005,-7.75575e-006 -8.06598e-005,-2.08297e-005 -2.57048e-005,-1.52899e-005 -4.14379e-005,-3.36821e-005 -4.4097e-005,-5.69494e-005l0 -0.000779564c-2.65912e-006,-4.16595e-005 -1.28524e-005,-9.06315e-005 -3.36821e-005,-0.000145365 -2.32673e-005,-5.20743e-005 -4.16595e-005,-9.35122e-005 -5.98301e-005,-0.000119439l-0.000592096 -0.000810809c-2.88071e-005,-4.14379e-005 -3.63412e-005,-7.53416e-005 -2.37104e-005,-0.000106365 1.3074e-005,-3.1023e-005 3.63412e-005,-4.67561e-005 7.04665e-005,-4.94152e-005l0.000420583 0c4.67561e-005,0 8.57565e-005,5.31823e-006 0.000117223,1.57331e-005 3.1023e-005,1.01933e-005 5.42903e-005,3.1023e-005 7.00234e-005,6.22676e-005l0.00031156 0.000451828c1.57331e-005,2.37104e-005 3.39037e-005,3.90004e-005 5.7171e-005,4.94152e-005 2.10513e-005,7.97735e-006 4.43186e-005,1.32956e-005 6.75858e-005,1.32956e-005 2.34888e-005,0 4.4097e-005,-5.31823e-006 6.24892e-005,-1.32956e-005 1.81706e-005,-1.04149e-005 3.87788e-005,-2.57048e-005 6.2046e-005,-4.94152e-005l0.000358759 -0.000467561c1.7949e-005,-2.32673e-005 4.16595e-005,-3.90004e-005 7.26825e-005,-4.91936e-005 3.1023e-005,-7.75575e-006 5.7171e-005,-1.3074e-005 8.30973e-005,-1.3074e-005 3.63412e-005,0 7.00234e-005,7.97735e-006 0.000104149,2.06081e-005 3.36821e-005,1.57331e-005 3.90004e-005,3.41253e-005 2.06081e-005,5.73926e-005zm-0.00360066 -0.000935122c-0.00017661,0.000153121 -0.000353441,0.000267463 -0.000535369,0.000339924 -0.000181706,7.57848e-005 -0.000368952,0.000122098 -0.000566392,0.000145808 -0.000197218,2.06081e-005 -0.000405072,3.1023e-005 -0.000628659,2.83639e-005 -0.000329952,0 -0.00064683,-5.45119e-005 -0.000950855,-0.000160876 -0.000304025,-0.000103927 -0.000576585,-0.000259928 -0.000818121,-0.000465124 -0.000241979,-0.000202758 -0.000431441,-0.00045205 -0.000571931,-0.000748319 -0.000140047,-0.000296048 -0.000212951,-0.000631318 -0.00021561,-0.00101069 2.65912e-006,-0.000256826 6.24892e-005,-0.000508999 0.000181928,-0.00076095 0.000117001,-0.000251951 0.000272781,-0.000480857 0.000470442,-0.000686052 0.00019478,-0.000207854 0.00041039,-0.000374049 0.000649267,-0.000496147 0.000239099,-0.000124757 0.000480857,-0.000189462 0.000725052,-0.000192121 1.52899e-005,0 6.47051e-005,5.31823e-006 0.000150462,1.52899e-005 8.30973e-005,7.97735e-006 0.00017949,1.83922e-005 0.000285855,3.14662e-005 0.000106586,1.28524e-005 0.000202536,2.32673e-005 0.000285633,3.12446e-005 8.57565e-005,1.04149e-005 0.000135172,1.52899e-005 0.000150905,1.52899e-005 2.32673e-005,0 6.22676e-005,-4.87504e-006 0.000114342,-1.28524e-005 5.18527e-005,-7.75575e-006 0.000103927,-1.3074e-005 0.00015578,-2.08297e-005 5.18527e-005,-7.97735e-006 8.57565e-005,-1.28524e-005 0.000103927,-1.28524e-005l0.00015578 0.00045205c-2.43752e-006,-2.65912e-006 -2.06081e-005,-1.57331e-005 -5.7171e-005,-4.16595e-005 -3.63412e-005,-2.6148e-005 -7.80007e-005,-5.7171e-005 -0.000124757,-8.8194e-005 -4.8972e-005,-3.12446e-005 -9.06315e-005,-5.47335e-005 -0.000129632,-7.26825e-005 -4.94152e-005,-1.57331e-005 -0.000117001,-3.41253e-005 -0.000197661,-5.20743e-005 -8.30973e-005,-2.10513e-005 -0.000161098,-3.63412e-005 -0.000233781,-5.20743e-005 -7.24609e-005,-1.3074e-005 -0.000121876,-2.06081e-005 -0.000145587,-2.06081e-005 -0.000298486,2.21593e-006 -0.000560852,6.73642e-005 -0.000787098,0.000192121 -0.000223144,0.000122098 -0.00041039,0.000288292 -0.000558414,0.000496147 -0.000150905,0.000205195 -0.000262366,0.000434101 -0.000335049,0.000686052 -7.53416e-005,0.00025173 -0.000111904,0.000503681 -0.000111904,0.00076095 2.43752e-006,0.000285855 6.24892e-005,0.000556198 0.00017661,0.00080549 0.000114342,0.000251951 0.000267684,0.000472879 0.000459805,0.000665 0.000192564,0.000192121 0.000407953,0.000343026 0.000647051,0.00045205 0.00023644,0.000109245 0.000477976,0.000163757 0.000727268,0.000166195 7.80007e-005,0 0.000176831,-5.09664e-006 0.000301588,-1.52899e-005 0.000124535,-1.04149e-005 0.000251951,-3.14662e-005 0.000381805,-6.24892e-005 0.000132734,-3.1023e-005 0.000246855,-7.53416e-005 0.000345685,-0.000132513 9.86089e-005,-5.69494e-005 0.000161098,-0.000132513 0.000187024,-0.000225803l0.000311781 4.67561e-005zm0.00146495 0.00229127c-2.43752e-006,0.00013495 -4.4097e-005,0.000249514 -0.000124535,0.000337486 -7.80007e-005,8.84156e-005 -0.00017661,0.000158882 -0.000293611,0.000210513 -0.000117001,4.94152e-005 -0.000233781,8.57565e-005 -0.00035056,0.000106586 -0.000117001,2.08297e-005 -0.000213172,3.12446e-005 -0.000290952,3.12446e-005 -6.78074e-005,0 -0.000148246,-1.57331e-005 -0.000244195,-4.43186e-005 -9.61713e-005,-2.57048e-005 -0.00017949,-6.47051e-005 -0.00025461,-0.000111461 -2.37104e-005,-1.04149e-005 -4.94152e-005,-1.3074e-005 -8.06598e-005,-1.04149e-005 -3.12446e-005,2.43752e-006 -5.98301e-005,7.75575e-006 -8.30973e-005,1.55115e-005 -2.6148e-005,5.31823e-006 -3.63412e-005,1.01933e-005 -3.90004e-005,1.01933e-005l0.00015578 -0.000483073c0,2.65912e-006 5.31823e-006,1.83922e-005 1.57331e-005,4.4097e-005 7.53416e-006,2.85855e-005 2.06081e-005,5.73926e-005 3.63412e-005,8.84156e-005 1.81706e-005,2.85855e-005 3.63412e-005,4.67561e-005 5.69494e-005,5.47335e-005 5.47335e-005,3.36821e-005 0.000127416,7.26825e-005 0.000215832,0.000116779 8.84156e-005,4.16595e-005 0.000189684,6.49267e-005 0.000298707,7.00234e-005 5.47335e-005,0 0.000114342,-1.04149e-005 0.00017949,-3.1023e-005 6.47051e-005,-2.08297e-005 0.000119439,-5.47335e-005 0.000166195,-9.88304e-005 4.91936e-005,-4.4097e-005 7.26825e-005,-9.86089e-005 7.53416e-005,-0.000166195 -2.65912e-006,-9.37338e-005 -4.43186e-005,-0.000168854 -0.000124757,-0.000223366 -8.04382e-005,-5.45119e-005 -0.000179269,-0.00010149 -0.000298929,-0.000137831 -0.000116779,-3.87788e-005 -0.000236218,-8.04382e-005 -0.000353441,-0.000124535 -0.000119439,-4.43186e-005 -0.000218047,-0.000106808 -0.000298486,-0.000181928 -8.04382e-005,-7.80007e-005 -0.000122098,-0.000181706 -0.000124757,-0.000314219 2.65912e-006,-0.000135172 3.39037e-005,-0.000249514 9.86089e-005,-0.000340588 6.24892e-005,-9.08531e-005 0.000142927,-0.000160876 0.000241536,-0.00021561 9.61713e-005,-5.20743e-005 0.000197661,-9.08531e-005 0.000304025,-0.000111683 0.000106808,-2.34888e-005 0.000202758,-3.36821e-005 0.000290952,-3.36821e-005 8.57565e-005,0 0.000148246,2.43752e-006 0.000192564,7.53416e-006 4.14379e-005,5.31823e-006 8.04382e-005,1.57331e-005 0.000119439,3.14662e-005 3.90004e-005,1.55115e-005 9.59497e-005,3.90004e-005 0.000171513,7.00234e-005 1.7949e-005,5.31823e-006 4.4097e-005,2.65912e-006 7.53416e-005,-1.04149e-005 2.83639e-005,-1.04149e-005 4.67561e-005,-1.7949e-005 4.94152e-005,-2.06081e-005l6.2046e-005 0.000436316c0,-2.65912e-006 -1.04149e-005,-1.28524e-005 -2.57048e-005,-3.63412e-005 -1.83922e-005,-2.32673e-005 -3.90004e-005,-4.43186e-005 -6.24892e-005,-6.75858e-005 -2.32673e-005,-2.34888e-005 -4.69777e-005,-3.36821e-005 -6.75858e-005,-3.63412e-005 -2.08297e-005,-2.43752e-006 -5.45119e-005,-1.55115e-005 -9.88304e-005,-4.14379e-005 -4.4097e-005,-2.34888e-005 -9.86089e-005,-4.94152e-005 -0.000166195,-7.29041e-005 -6.73642e-005,-2.59264e-005 -0.000145365,-3.90004e-005 -0.000233781,-4.16595e-005 -5.45119e-005,0 -0.000111683,7.75575e-006 -0.000171513,2.6148e-005 -5.98301e-005,1.7949e-005 -0.000109024,4.67561e-005 -0.000150462,8.30973e-005 -4.43186e-005,3.63412e-005 -6.51483e-005,8.30973e-005 -6.78074e-005,0.000140268 2.65912e-006,0.000106586 4.4097e-005,0.000187024 0.000124757,0.000241758 8.04382e-005,5.42903e-005 0.000179269,0.000101046 0.000298707,0.00013495 0.000117001,3.36821e-005 0.00023644,7.512e-005 0.000353441,0.000119439 0.00011966,4.67561e-005 0.000218047,0.000114564 0.000298707,0.000202758 8.04382e-005,8.8194e-005 0.000122098,0.000212951 0.000124535,0.000376708zm0.0107714 -0.00818365c0,-3.90004e-005 -1.3074e-005,-7.80007e-005 -3.90004e-005,-0.000122098 -2.34888e-005,-4.16595e-005 -5.7171e-005,-7.80007e-005 -9.88304e-005,-0.000109245 -4.4097e-005,-3.12446e-005 -9.08531e-005,-4.65345e-005 -0.000142706,-4.91936e-005l-0.000343026 0c-3.87788e-005,0 -7.24609e-005,7.53416e-006 -9.88304e-005,2.32673e-005 -2.57048e-005,1.57331e-005 -4.14379e-005,3.90004e-005 -4.14379e-005,7.00234e-005l0 0.000483516c0,2.32673e-005 7.75575e-006,3.87788e-005 2.34888e-005,4.94152e-005 1.55115e-005,7.53416e-006 3.90004e-005,1.26308e-005 7.00234e-005,1.26308e-005l0.00029627 0c5.47335e-005,-2.43752e-006 0.000109024,-2.32673e-005 0.000166195,-6.47051e-005 5.73926e-005,-4.16595e-005 0.000106365,-9.10747e-005 0.000145365,-0.000145587 3.92219e-005,-5.45119e-005 5.98301e-005,-0.000103927 6.24892e-005,-0.000148024zm-0.00222922 0.000639074c0,-7.80007e-005 -7.53416e-006,-0.00017661 -2.32673e-005,-0.000296048 -1.81706e-005,-0.000119439 -4.4097e-005,-0.00023932 -8.57565e-005,-0.000361418 -4.14379e-005,-0.000119439 -9.61713e-005,-0.000223144 -0.000166195,-0.000303804 -7.26825e-005,-8.30973e-005 -0.000161098,-0.000127194 -0.000270122,-0.000129853 -0.000103927,2.65912e-006 -0.000189684,3.90004e-005 -0.00025461,0.000111683 -6.75858e-005,7.26825e-005 -0.000117001,0.000161098 -0.000153342,0.000267684 -3.36821e-005,0.000106365 -5.96085e-005,0.000215388 -7.26825e-005,0.000324634 -1.3074e-005,0.000109024 -1.83922e-005,0.000200098 -1.83922e-005,0.000277878 0,5.47335e-005 1.04149e-005,0.000135172 2.88071e-005,0.000241536 1.7949e-005,0.000106808 5.20743e-005,0.000218269 9.35122e-005,0.000332611 4.43186e-005,0.000117223 0.000101268,0.00021561 0.00017395,0.00029627 7.29041e-005,8.04382e-005 0.00016132,0.000124535 0.000265025,0.000127194 8.84156e-005,-5.09664e-006 0.000163757,-4.67561e-005 0.000226246,-0.000127194 6.2046e-005,-8.06598e-005 0.000111461,-0.00017661 0.000150462,-0.000288514 3.63412e-005,-0.000108802 6.49267e-005,-0.000210292 8.06598e-005,-0.000301366 1.81706e-005,-9.06315e-005 2.57048e-005,-0.000148024 2.57048e-005,-0.000171291zm0.00311781 0.00363191c2.65912e-006,-1.55115e-005 2.65912e-006,-3.12446e-005 2.65912e-006,-5.18527e-005 0,-1.81706e-005 -1.3074e-005,-4.14379e-005 -3.39037e-005,-7.29041e-005l-0.000218047 -0.000358316c-1.04149e-005,-2.32673e-005 -2.6148e-005,-3.90004e-005 -4.94152e-005,-4.94152e-005 -2.34888e-005,-7.97735e-006 -4.16595e-005,-1.3074e-005 -5.98301e-005,-1.3074e-005 -7.97735e-006,0 -2.08297e-005,7.75575e-006 -3.90004e-005,2.08297e-005 -1.55115e-005,1.57331e-005 -2.85855e-005,3.36821e-005 -3.90004e-005,5.7171e-005l-0.000202536 0.000498806c-2.65912e-006,1.01933e-005 -2.65912e-006,2.85855e-005 0,5.69494e-005 2.65912e-006,3.14662e-005 1.81706e-005,5.73926e-005 4.67561e-005,8.33189e-005l0.000249292 0.000156001c7.97735e-006,7.53416e-006 1.81706e-005,1.55115e-005 3.39037e-005,2.06081e-005 1.3074e-005,7.97735e-006 2.83639e-005,1.04149e-005 4.4097e-005,1.04149e-005 1.57331e-005,0 3.1023e-005,0 4.4097e-005,-5.09664e-006 1.57331e-005,-2.65912e-006 2.59264e-005,-1.04149e-005 3.39037e-005,-2.59264e-005l0.00015578 -0.000187246c1.55115e-005,-2.32673e-005 2.34888e-005,-4.94152e-005 2.85855e-005,-7.512e-005 2.65912e-006,-2.63696e-005 2.65912e-006,-4.94152e-005 2.65912e-006,-6.51483e-005zm-0.00302408 -0.000919832c0,-5.96085e-005 -1.81706e-005,-0.000116779 -5.20743e-005,-0.000176388 -3.36821e-005,-5.98301e-005 -7.53416e-005,-0.000109245 -0.000129632,-0.000150905 -5.47335e-005,-3.90004e-005 -0.000114564,-5.96085e-005 -0.000176831,-6.22676e-005l-0.000966367 0c-4.69777e-005,0 -8.84156e-005,7.97735e-006 -0.00011966,2.59264e-005 -3.36821e-005,1.57331e-005 -4.94152e-005,4.43186e-005 -5.18527e-005,8.30973e-005l0 0.000732808c0,3.12446e-005 1.04149e-005,5.45119e-005 3.36821e-005,7.0245e-005 2.08297e-005,1.55115e-005 5.20743e-005,2.30457e-005 9.08531e-005,2.30457e-005 2.65912e-006,0 2.59264e-005,5.31823e-006 7.0245e-005,1.3074e-005 4.4097e-005,7.97735e-006 9.88304e-005,1.32956e-005 0.00016132,2.10513e-005 6.2046e-005,7.53416e-006 0.000119439,1.28524e-005 0.000173729,1.28524e-005 6.51483e-005,0 0.000135172,-5.31823e-006 0.000207854,-1.28524e-005 7.55632e-005,-7.75575e-006 0.000137831,-1.3074e-005 0.000192343,-2.10513e-005 5.20743e-005,-7.75575e-006 8.06598e-005,-1.3074e-005 8.33189e-005,-1.3074e-005 7.00234e-005,-7.53416e-006 0.000140047,-4.63129e-005 0.00021561,-0.00011412 7.26825e-005,-6.73642e-005 0.000134728,-0.00014049 0.000186803,-0.000223587 5.20743e-005,-8.30973e-005 7.80007e-005,-0.000153121 8.06598e-005,-0.000207854z"/>
  </g>
 </g>
</svg>
