<?xml version="1.0" encoding="UTF-8"?>
<!DOCTYPE svg PUBLIC "-//W3C//DTD SVG 1.1//EN" "http://www.w3.org/Graphics/SVG/1.1/DTD/svg11.dtd">
<!-- Creator: CorelDRAW -->
<svg xmlns="http://www.w3.org/2000/svg" xml:space="preserve" width="0.48in" height="0.48in" style="shape-rendering:geometricPrecision; text-rendering:geometricPrecision; image-rendering:optimizeQuality; fill-rule:evenodd; clip-rule:evenodd"
viewBox="0 0 0.025657 0.025657"
 xmlns:xlink="http://www.w3.org/1999/xlink">
 <defs>
  <style type="text/css">
   <![CDATA[
    .str0 {stroke:#ED3237;stroke-width:0.000371219}
    .fil2 {fill:none}
    .fil0 {fill:#ED3237}
    .fil1 {fill:#FEFEFE;fill-rule:nonzero}
   ]]>
  </style>
 </defs>
 <g id="Layer_x0020_1">
  <metadata id="CorelCorpID_0Corel-Layer"/>
  <g id="NYH">
   <polygon id="_297369696" class="fil0" points="0.0018079,0.0128285 0.0128283,0.021094 0.0238489,0.0128285 0.0128283,0.00456321 "/>
   <path id="_297369248" class="fil1" d="M0.00693994 0.0113003m-0.00044803 -0.00137523l0.000379426 -0.000168984 0.000818407 0.000506953 -0.000323659 -0.000727075 0.000383003 -0.000170668 0.000585027 0.00131421 -0.000383003 0.000170668 -0.000813566 -0.000502324 0.000321344 0.000721393 -0.000381951 0.000170037 -0.000585027 -0.00131421zm0.00198152 0.000711923m-0.00030535 -0.00141332l0.00113281 -0.000368272 9.49091e-005 0.000292093 -0.000709188 0.000230433 7.07083e-005 0.000217596 0.00065784 -0.000213808 9.07002e-005 0.000279256 -0.00065784 0.000213808 8.75436e-005 0.000269365 0.000729811 -0.000237167 0.000100801 0.00030998 -0.00115343 0.000374796 -0.000444663 -0.00136808zm0.00167638 0.000930993m-0.000250846 -0.00141648l0.000415832 -7.3444e-005 0.000289146 0.000764954 7.89155e-005 -0.00082977 0.00041457 -7.30232e-005 0.000358803 0.000752538 1.03116e-005 -0.000817775 0.000413728 -7.28127e-005 -6.22907e-005 0.00147162 -0.0004293 7.57589e-005 -0.000405521 -0.000848289 -9.00689e-005 0.000935622 -0.0004293 7.57589e-005 -0.000564825 -0.00136113zm0.00291062 0.00105473m7.74424e-005 -0.00143647l0.000493064 2.58843e-005 0.000264525 0.000500219 0.000315452 -0.000469916 0.000489908 2.56739e-005 -0.000602494 0.00080578 -3.15662e-005 0.000601652 -0.000444873 -2.3359e-005 3.15662e-005 -0.000601652 -0.000515581 -0.000864283zm0.00136513 0.00151686m0.000226435 -0.000687933c4.4824e-005,-0.000230433 0.000144152,-0.000397524 0.000297564,-0.000500851 0.000153412,-0.000103537 0.000344703,-0.000132789 0.000573874,-8.81749e-005 0.000235063,4.56658e-005 0.000403837,0.000143942 0.000506743,0.000294828 0.000102485,0.000150676 0.000131736,0.000339863 8.75436e-005,0.00056714 -3.19871e-005,0.000164986 -8.6281e-005,0.000295249 -0.000162461,0.000389948 -7.59693e-005,9.46986e-005 -0.000172141,0.000161409 -0.000288515,0.000199919 -0.000116585,3.83003e-005 -0.00025274,4.20883e-005 -0.000409729,1.15743e-005 -0.000159094,-3.09349e-005 -0.00028599,-8.16513e-005 -0.000380688,-0.00015257 -9.44882e-005,-7.13396e-005 -0.000163303,-0.000168143 -0.000207074,-0.000290409 -4.33509e-005,-0.000122477 -4.92433e-005,-0.000266208 -1.72562e-005,-0.000431405zm0.000436455 8.69123e-005c-2.77783e-005,0.000142679 -2.1465e-005,0.000250004 1.93606e-005,0.000322817 4.10361e-005,7.23918e-005 0.000107115,0.000117847 0.000198236,0.000135524 9.36464e-005,1.8098e-005 0.000172352,1.68353e-006 0.000235273,-4.92433e-005 6.33429e-005,-5.11373e-005 0.000110482,-0.000155516 0.000141206,-0.000313347 2.58843e-005,-0.00013342 1.78875e-005,-0.000235484 -2.37799e-005,-0.000307455 -4.16674e-005,-7.15501e-005 -0.000108588,-0.000116164 -0.000200551,-0.000134051 -8.77541e-005,-1.70458e-005 -0.000164565,0 -0.000230012,5.21895e-005 -6.50264e-005,5.17686e-005 -0.000111744,0.000149834 -0.000139733,0.000293566zm0.000970977 0.000942777m0.000146257 4.4824e-005l0.000420672 -0.00137587 0.000708556 0.000216755c0.000131526,4.01943e-005 0.00022875,8.18617e-005 0.00029062,0.000126054 6.2922e-005,4.35614e-005 0.000106062,0.000102275 0.000130053,0.00017656 2.39903e-005,7.38649e-005 2.25172e-005,0.000154674 -4.20883e-006,0.000242008 -2.3359e-005,7.66007e-005 -5.99758e-005,0.000137418 -0.000109219,0.000182874 -4.96642e-005,4.52449e-005 -0.000108167,7.63902e-005 -0.000175508,9.36464e-005 -4.31405e-005,1.05221e-005 -9.82761e-005,1.38891e-005 -0.000165828,8.6281e-006 4.54553e-005,3.26184e-005 7.7232e-005,6.06071e-005 9.533e-005,8.48079e-005 1.17847e-005,1.57831e-005 2.73574e-005,4.6718e-005 4.58762e-005,9.28047e-005 1.83084e-005,4.62971e-005 2.96722e-005,8.05991e-005 3.34602e-005,0.000103748l8.35452e-005 0.000461708 -0.000480227 -0.000146888 -9.8697e-005 -0.000490118c-1.22056e-005,-6.2922e-005 -2.69365e-005,-0.000106273 -4.46136e-005,-0.000129632 -2.42008e-005,-3.0514e-005 -5.5767e-005,-5.15581e-005 -9.46986e-005,-6.33429e-005l-3.72481e-005 -1.15743e-005 -0.000170668 0.000558301 -0.000427196 -0.000130474zm0.000677411 -0.000687933l0.000179296 5.47148e-005c1.91502e-005,5.89236e-006 5.85027e-005,1.13638e-005 0.000118058,1.59935e-005 2.98827e-005,2.73574e-006 5.74505e-005,-4.41927e-006 8.2493e-005,-2.20963e-005 2.46216e-005,-1.78875e-005 4.16674e-005,-4.16674e-005 5.09268e-005,-7.17605e-005 1.36787e-005,-4.44031e-005 9.89075e-006,-8.27035e-005 -1.0943e-005,-0.000115111 -2.08337e-005,-3.2408e-005 -7.02874e-005,-6.06071e-005 -0.00014773,-8.41766e-005l-0.000186662 -5.72401e-005 -8.54392e-005 0.000279677zm0.000679305 0.00110524m0.000699297 -0.00126602l0.000409098 0.000173614 -0.000212335 0.00050043 0.000641636 -0.000318187 0.000543781 0.000230854 -0.000694457 0.000294618 0.000154043 0.00103874 -0.000504218 -0.000213808 -4.77702e-005 -0.000663311 -0.000305561 0.000131526 -0.000137208 0.000323448 -0.000409098 -0.000173614 0.000562089 -0.00132431z"/>
   <polygon id="_297367176" class="fil1" points="0.00497168,0.0144643 0.00608954,0.0144643 0.00608954,0.0132231 0.00637511,0.0132231 0.00637511,0.0144643 0.00749298,0.0144643 0.00749298,0.0116008 0.00637511,0.0116008 0.00637511,0.0125705 0.00608954,0.0125705 0.00608954,0.0116008 0.00497168,0.0116008 "/>
   <path id="_2973671761" class="fil1" d="M0.00762345 0.0144643l0.00115322 0 6.33429e-005 -0.000620592 0.000320923 0 6.35533e-005 0.000620592 0.00115659 0 -0.000504218 -0.00286348 -0.00174919 0 -0.000504218 0.00286348zm0.00125886 -0.00125192l0.000119952 -0.000973291 0.000116374 0.000973291 -0.000236326 0z"/>
   <path id="_29736717612" class="fil1" d="M0.011915 0.0144643l0.00113554 0 0 -0.000736966c6.31324e-007,-0.000156989 -1.40996e-005,-0.000289778 -4.46136e-005,-0.000397945 -3.0514e-005,-0.000108167 -7.99677e-005,-0.000194448 -0.000148151,-0.000258632 -6.8183e-005,-6.46055e-005 -0.000159304,-0.000110482 -0.000272732,-0.000136997 0.000111113,-2.75678e-005 0.000200972,-6.8183e-005 0.000268523,-0.000122056 6.8183e-005,-5.36626e-005 0.000117637,-0.00012416 0.000148151,-0.000210441 3.0514e-005,-8.71227e-005 4.58762e-005,-0.000193396 4.52449e-005,-0.000319871 6.31324e-007,-0.000164986 -2.46216e-005,-0.000297354 -7.51276e-005,-0.000397313 -5.05059e-005,-0.000100381 -0.000129421,-0.000172772 -0.000236326,-0.000217386 -0.000106273,-4.46136e-005 -0.000243902,-6.6289e-005 -0.000411413,-6.58682e-005l-0.00181253 0 0 0.00286348 0.00111786 0 0 -0.00118142 0.000123319 0c5.95549e-005,-1.05221e-006 0.000101222,1.40996e-005 0.000126475,4.52449e-005 2.46216e-005,3.11453e-005 3.64064e-005,8.48079e-005 3.5775e-005,0.000159304l0 0.000976869zm-0.000285569 -0.00221111l0.000123319 0c6.06071e-005,-4.20883e-007 0.000103537,1.47309e-005 0.000127738,4.65075e-005 2.39903e-005,3.2408e-005 3.5775e-005,8.45974e-005 3.45124e-005,0.000158041 6.31324e-007,7.17605e-005 -1.11534e-005,0.000123529 -3.5775e-005,0.000154674 -2.5253e-005,3.17767e-005 -6.69204e-005,4.69284e-005 -0.000126475,4.62971e-005l-0.000123319 0 0 -0.000405521z"/>
   <polygon id="_297367176123" class="fil1" points="0.0133117,0.0144643 0.0151171,0.0144643 0.0151171,0.0138119 0.0144293,0.0138119 0.0144293,0.0116008 0.0133117,0.0116008 "/>
   <polygon id="_2973671761234" class="fil1" points="0.0153111,0.0144643 0.0171167,0.0144643 0.0171167,0.0138119 0.0164289,0.0138119 0.0164289,0.0132195 0.0171167,0.0132195 0.0171167,0.0125671 0.0164289,0.0125671 0.0164289,0.0122532 0.0171167,0.0122532 0.0171167,0.0116008 0.0153111,0.0116008 "/>
   <polygon id="_29736717612345" class="fil1" points="0.0187775,0.0144643 0.0194052,0.0144643 0.0198177,0.0128881 0.0198177,0.0144643 0.0208156,0.0144643 0.0208156,0.0116008 0.0193981,0.0116008 0.0190912,0.0127892 0.0187811,0.0116008 0.0173669,0.0116008 0.0173669,0.0144643 0.0183612,0.0144643 0.0183612,0.0128881 "/>
   <path id="_297366896" class="fil1" d="M0.0067497 0.0161501m0.000158252 6.71308e-005l0.000631324 -0.00148698 0.000765796 0.000324922c0.000142048,6.03967e-005 0.000245585,0.000118479 0.00030998,0.000174877 6.4816e-005,5.61879e-005 0.000106273,0.000126896 0.000124371,0.000212546 1.8098e-005,8.54392e-005 6.73412e-006,0.000175298 -3.32497e-005,0.000269786 -3.53542e-005,8.29139e-005 -8.29139e-005,0.000146257 -0.000143311,0.000191502 -6.08176e-005,4.4824e-005 -0.000129842,7.28127e-005 -0.000206864,8.41766e-005 -4.94537e-005,6.73412e-006 -0.000111534,3.5775e-006 -0.000186241,-9.89075e-006 4.6718e-005,4.1457e-005 7.89155e-005,7.66007e-005 9.63822e-005,0.000105642 1.13638e-005,1.93606e-005 2.50425e-005,5.5767e-005 4.04047e-005,0.000109219 1.49413e-005,5.3873e-005 2.35694e-005,9.3436e-005 2.50425e-005,0.000119952l3.93525e-005 0.000525262 -0.000519369 -0.000220543 -5.26104e-005 -0.000558722c-6.31324e-006,-7.17605e-005 -1.76771e-005,-0.000121846 -3.47228e-005,-0.000150045 -2.31486e-005,-3.68272e-005 -5.61879e-005,-6.43951e-005 -9.78553e-005,-8.20721e-005l-4.06152e-005 -1.72562e-005 -0.000256107 0.000603546 -0.000461708 -0.000195921zm0.000837136 -0.000688775l0.000194027 8.2493e-005c2.06233e-005,8.6281e-006 6.39742e-005,1.93606e-005 0.000129842,3.13558e-005 3.30393e-005,6.73412e-006 6.46055e-005,1.68353e-006 9.46986e-005,-1.49413e-005 2.94618e-005,-1.70458e-005 5.15581e-005,-4.1457e-005 6.54473e-005,-7.40754e-005 2.04128e-005,-4.81911e-005 2.06233e-005,-9.13316e-005 1.05221e-006,-0.000129842 -1.95711e-005,-3.89317e-005 -7.11292e-005,-7.61798e-005 -0.000154885,-0.000111534l-0.000201813 -8.58601e-005 -0.000128369 0.000302404zm0.000624801 0.00132136m0.00118668 8.39661e-005l-0.000543991 -0.000166249 -0.00015257 0.000232117 -0.000487803 -0.000149203 0.00105284 -0.00136745 0.000520422 0.000159094 0.000108588 0.00172267 -0.000499588 -0.00015278 2.10441e-006 -0.000278204zm2.10441e-006 -0.000364905l-1.05221e-006 -0.000607544 -0.000339652 0.000503376 0.000340705 0.000104168zm0.000498957 0.000777371m0.000489908 -0.00155053l0.00049117 9.55404e-005 -0.000308297 0.00158568 -0.00049117 -9.533e-005 0.000308297 -0.00158589zm0.000365958 0.00173109m0.000360907 -0.00158336l0.0004958 6.08176e-005 -0.000148361 0.00120856 0.000772951 9.49091e-005 -4.84015e-005 0.000394999 -0.00126896 -0.000155727 0.000196973 -0.00160356zm0.00114459 0.00176392m0.000171931 -2.94618e-006l-2.81991e-005 -0.00161535 0.000831875 -1.45205e-005c0.000154254,-2.73574e-006 0.000272522,8.20721e-006 0.000354173,3.36706e-005 8.20721e-005,2.48321e-005 0.000148782,7.26023e-005 0.00020013,0.000143521 5.11373e-005,7.07083e-005 7.74424e-005,0.00015741 7.93364e-005,0.000260106 1.47309e-006,9.00689e-005 -1.6204e-005,0.000167301 -5.30312e-005,0.000232959 -3.72481e-005,6.58682e-005 -8.90167e-005,0.000119531 -0.000154674,0.000161198 -4.25092e-005,2.63052e-005 -0.000100381,4.88224e-005 -0.000174245,6.67099e-005 5.97654e-005,1.89397e-005 0.000103327,3.78795e-005 0.000131105,5.74505e-005 1.83084e-005,1.28369e-005 4.54553e-005,4.06152e-005 8.12304e-005,8.31244e-005 3.55646e-005,4.31405e-005 5.95549e-005,7.57589e-005 7.17605e-005,9.93283e-005l0.000249584 0.000464023 -0.000564193 9.89075e-006 -0.000275468 -0.000489276c-3.47228e-005,-6.2922e-005 -6.54473e-005,-0.000103958 -9.25942e-005,-0.000122898 -3.61959e-005,-2.42008e-005 -7.74424e-005,-3.59855e-005 -0.000122898,-3.51437e-005l-4.39823e-005 8.41766e-007 1.15743e-005 0.000655525 -0.000501482 8.83854e-006zm0.000484647 -0.000969714l0.000210652 -3.78795e-006c2.25172e-005,-2.10441e-007 6.6289e-005,-8.20721e-006 0.000131526,-2.42008e-005 3.28289e-005,-7.15501e-006 5.97654e-005,-2.46216e-005 8.01782e-005,-5.1979e-005 2.02024e-005,-2.75678e-005 3.0514e-005,-5.89236e-005 2.98827e-005,-9.42777e-005 -1.05221e-006,-5.23999e-005 -1.83084e-005,-9.17525e-005 -5.17686e-005,-0.00011911 -3.38811e-005,-2.75678e-005 -9.61717e-005,-4.06152e-005 -0.000187082,-3.89317e-005l-0.000219069 3.78795e-006 5.68192e-006 0.000328499zm0.0010602 0.000927626m-1.0943e-005 -0.000813146c-3.68272e-005,-0.000261158 7.78633e-006,-0.000474756 0.000132578,-0.000640584 0.000125213,-0.000166038 0.000317556,-0.000267261 0.000577241,-0.000303667 0.000266419,-3.74586e-005 0.0004817,5.05059e-006 0.000646055,0.000127948 0.000163723,0.000122477 0.000264104,0.000312716 0.000300089,0.000570086 2.63052e-005,0.000187082 1.6204e-005,0.000344913 -2.98827e-005,0.000473493 -4.60867e-005,0.000128369 -0.00012395,0.000234221 -0.00023338,0.000317556 -0.00010964,8.33348e-005 -0.000252951,0.000137208 -0.000430563,0.00016225 -0.000180559,2.54634e-005 -0.00033376,1.78875e-005 -0.000460446,-2.29381e-005 -0.000126054,-4.10361e-005 -0.000234642,-0.000118689 -0.000325974,-0.000232748 -9.07002e-005,-0.000114059 -0.000149413,-0.000264525 -0.000175719,-0.000451397zm0.000494958 -6.73412e-005c2.27277e-005,0.000161619 6.88143e-005,0.000273153 0.000138681,0.000335654 7.0077e-005,6.20802e-005 0.000156779,8.56497e-005 0.000260106,7.11292e-005 0.000106062,-1.49413e-005 0.000183505,-6.1028e-005 0.000231906,-0.000137839 4.84015e-005,-7.76529e-005 6.03967e-005,-0.000205812 3.51437e-005,-0.000384687 -2.10441e-005,-0.000150886 -6.69204e-005,-0.000256318 -0.000137629,-0.000317556 -7.02874e-005,-6.06071e-005 -0.000157621,-8.37557e-005 -0.000261789,-6.90248e-005 -9.95388e-005,1.38891e-005 -0.000174666,6.01862e-005 -0.000225172,0.000139312 -5.02955e-005,7.89155e-005 -6.41846e-005,0.00020013 -4.12465e-005,0.000363011zm0.00129653 0.000587132m0.00104084 -0.000575768l-0.000546727 0.000156779 -1.47309e-006 0.000277783 -0.000490328 0.000140575 0.00013826 -0.00172036 0.000523157 -0.000150045 0.00102927 0.00138555 -0.000502324 0.000144152 -0.000149834 -0.000234432zm-0.000196763 -0.000307244l-0.000331866 -0.000509058 -1.07325e-005 0.000607334 0.000342599 -9.82761e-005zm0.000821142 0.00038637m-0.000418358 -0.00156989l0.000692352 -0.000265787c0.000136156,-5.21895e-005 0.000253792,-7.61798e-005 0.000352279,-7.15501e-005 9.80657e-005,5.05059e-006 0.000187924,3.11453e-005 0.000269365,7.95468e-005 8.16513e-005,4.84015e-005 0.000151939,0.000113638 0.000212125,0.000196131 6.01862e-005,8.2493e-005 0.00010964,0.000175087 0.000148993,0.000277783 6.20802e-005,0.000161409 9.17525e-005,0.000293355 8.88063e-005,0.000396261 -2.10441e-006,0.000103116 -2.46216e-005,0.000197184 -6.69204e-005,0.000281781 -4.20883e-005,8.50183e-005 -9.65926e-005,0.000151939 -0.000163513,0.000200551 -9.17525e-005,6.64995e-005 -0.000179086,0.000115953 -0.000262,0.00014773l-0.000692563 0.000265787 -0.000578924 -0.00150823zm0.000597022 0.000162882l0.000316293 0.000823668 0.000114059 -4.37718e-005c9.76448e-005,-3.74586e-005 0.000162882,-7.44963e-005 0.0001955,-0.000111955 3.28289e-005,-3.72481e-005 5.07164e-005,-8.75436e-005 5.34521e-005,-0.000150466 2.5253e-006,-6.25011e-005 -1.93606e-005,-0.000154464 -6.56577e-005,-0.000275257 -6.14489e-005,-0.000159725 -0.000129211,-0.000258843 -0.000203918,-0.000298195 -7.49171e-005,-3.87212e-005 -0.000172772,-3.51437e-005 -0.000293355,1.11534e-005l-0.000116374 4.4824e-005z"/>
   <path id="_297364936" class="fil2" d="M0.00695488 0.0113367c0,0 0.00251267,-0.00145478 0.00555418,-0.00152086 0.00304172,-6.60786e-005 0.00588499,0.00145478 0.00588499,0.00145478"/>
   <path id="_297363256" class="fil2" d="M0.00729685 0.0145383c0,0 0.00251267,0.00145499 0.00555439,0.00152107 0.00304172,6.60786e-005 0.00588499,-0.00145478 0.00588499,-0.00145478"/>
   <path id="_297364208" class="fil1" d="M0.0132056 0.01079l0.000273784 6.1028e-005c-1.431e-005,5.07164e-005 -2.81991e-005,9.11211e-005 -4.1457e-005,0.000121425 -1.32578e-005,3.0514e-005 -3.17767e-005,6.64995e-005 -5.5767e-005,0.000107536l0.000131526 9.04898e-005c1.6204e-005,1.03116e-005 3.68272e-005,2.27277e-005 6.20802e-005,3.70377e-005l-0.000188766 0.000216965c-3.43019e-005,-1.83084e-005 -7.0077e-005,-3.93525e-005 -0.000106904,-6.35533e-005 -3.70377e-005,-2.44112e-005 -7.0077e-005,-4.50345e-005 -9.95388e-005,-6.18698e-005 -6.08176e-005,3.97734e-005 -0.000121635,6.92352e-005 -0.000182453,8.75436e-005 -8.4387e-005,2.5253e-005 -0.000180138,3.78795e-005 -0.000287463,3.78795e-005 -0.000168353,0 -0.000293566,-3.49333e-005 -0.000375427,-0.00010501 -8.20721e-005,-6.98665e-005 -0.000123108,-0.000154885 -0.000123108,-0.000254634 0,-7.17605e-005 2.39903e-005,-0.000139733 7.21814e-005,-0.000203707 4.81911e-005,-6.39742e-005 0.000127317,-0.000118058 0.000236957,-0.00016225 -4.58762e-005,-5.5767e-005 -7.76529e-005,-0.000103958 -9.46986e-005,-0.000145205 -1.74666e-005,-4.10361e-005 -2.58843e-005,-8.27035e-005 -2.58843e-005,-0.000125002 0,-8.9648e-005 3.40915e-005,-0.000163513 0.000102275,-0.000221384 6.83935e-005,-5.80818e-005 0.000171931,-8.69123e-005 0.000310822,-8.69123e-005 0.000142048,0 0.000246006,2.75678e-005 0.000312716,8.2493e-005 6.64995e-005,5.53461e-005 9.95388e-005,0.000121004 9.95388e-005,0.000198025 0,4.293e-005 -9.89075e-006,8.4387e-005 -3.0514e-005,0.00012416 -2.02024e-005,3.9563e-005 -4.46136e-005,7.15501e-005 -7.3444e-005,9.63822e-005 -2.88305e-005,2.46216e-005 -8.01782e-005,6.12384e-005 -0.000154043,0.000110061 6.12384e-005,6.14489e-005 0.000125213,0.000118479 0.000191923,0.000171299 1.76771e-005,-3.55646e-005 3.30393e-005,-7.30232e-005 4.56658e-005,-0.000112797zm-0.000402995 -0.000221174c4.52449e-005,-2.48321e-005 8.01782e-005,-5.15581e-005 0.00010501,-8.05991e-005 2.46216e-005,-2.88305e-005 3.70377e-005,-5.63983e-005 3.70377e-005,-8.22826e-005 0,-2.67261e-005 -1.03116e-005,-4.96642e-005 -3.09349e-005,-6.8183e-005 -2.06233e-005,-1.87293e-005 -4.90328e-005,-2.81991e-005 -8.52288e-005,-2.81991e-005 -3.55646e-005,0 -6.46055e-005,1.05221e-005 -8.69123e-005,3.11453e-005 -2.23068e-005,2.06233e-005 -3.34602e-005,4.50345e-005 -3.34602e-005,7.32336e-005 0,3.55646e-005 3.13558e-005,8.71227e-005 9.44882e-005,0.000154885zm-0.000124792 0.000306403c-4.81911e-005,3.38811e-005 -8.01782e-005,6.2922e-005 -9.57508e-005,8.69123e-005 -1.59935e-005,2.42008e-005 -2.39903e-005,4.96642e-005 -2.39903e-005,7.68111e-005 0,4.16674e-005 1.83084e-005,7.89155e-005 5.45043e-005,0.000111955 3.61959e-005,3.26184e-005 8.31244e-005,4.90328e-005 0.000140996,4.90328e-005 6.25011e-005,0 0.000132789,-2.44112e-005 0.000211073,-7.32336e-005 -7.47067e-005,-5.74505e-005 -0.000170247,-0.000141206 -0.000286832,-0.000251477z"/>
   <polygon id="_297362080" class="fil2 str0" points="0.00128264,0.0128285 0.0128283,0.0214878 0.024374,0.0128285 0.0128283,0.00416927 "/>
   <circle id="_297361576" class="fil2" cx="0.0128283" cy="0.0128285" r="0.0128285"/>
  </g>
 </g>
</svg>
