<?xml version="1.0" encoding="UTF-8"?>
<!DOCTYPE svg PUBLIC "-//W3C//DTD SVG 1.1//EN" "http://www.w3.org/Graphics/SVG/1.1/DTD/svg11.dtd">
<!-- Creator: CorelDRAW -->
<svg xmlns="http://www.w3.org/2000/svg" xml:space="preserve" width="0.506945in" height="0.506945in" style="shape-rendering:geometricPrecision; text-rendering:geometricPrecision; image-rendering:optimizeQuality; fill-rule:evenodd; clip-rule:evenodd"
viewBox="0 0 0.0285327 0.0285327"
 xmlns:xlink="http://www.w3.org/1999/xlink">
 <defs>
  <style type="text/css">
   <![CDATA[
    .str1 {stroke:black;stroke-width:0.000390884}
    .str0 {stroke:#ED3237;stroke-width:0.000390884}
    .fil2 {fill:none}
    .fil3 {fill:#fff}
    .fil0 {fill:#8C4776}
    .fil1 {fill:#FEFEFE;fill-rule:nonzero}
   ]]>
  </style>
 </defs>
 <g id="Layer_x0020_1">
  <metadata id="CorelCorpID_0Corel-Layer"/>
  <g id="NYH">
   <circle id="_297361576" class="fil3" cx="0.0142664" cy="0.0142663" r="0.0135081"/>
   <polygon id="_297369696" class="fil0" points="0.00266218,0.0142664 0.0142664,0.0229697 0.0258708,0.0142664 0.0142664,0.00556323 "/>
   <path id="_297369248" class="fil1" d="M0.00806608 0.0126572m-0.000471764 -0.00144809l0.000399526 -0.000177936 0.000861761 0.000533809 -0.000340805 -0.000765592 0.000403293 -0.000179709 0.000616019 0.00138383 -0.000403293 0.000179709 -0.000856665 -0.000528934 0.000338367 0.000759609 -0.000402185 0.000179044 -0.000616019 -0.00138383zm0.00208649 0.000749637m-0.000321526 -0.00148819l0.00119282 -0.000387782 9.99369e-005 0.000307566 -0.000746757 0.00024264 7.44541e-005 0.000229124 0.000692689 -0.000225135 9.55051e-005 0.000294049 -0.000692689 0.000225135 9.21812e-005 0.000283635 0.000768472 -0.000249731 0.000106141 0.000326401 -0.00121453 0.000394651 -0.000468219 -0.00144055zm0.00176518 0.000980312m-0.000264135 -0.00149152l0.000437861 -7.73347e-005 0.000304464 0.000805478 8.30961e-005 -0.000873727 0.000436531 -7.68916e-005 0.00037781 0.000792404 1.08579e-005 -0.000861097 0.000435645 -7.667e-005 -6.55905e-005 0.00154958 -0.000452043 7.97722e-005 -0.000427003 -0.000893227 -9.48403e-005 0.000985187 -0.000452043 7.97722e-005 -0.000594746 -0.00143324zm0.0030648 0.00111061m8.15449e-005 -0.00151257l0.000519184 2.72555e-005 0.000278538 0.000526718 0.000332163 -0.000494809 0.00051586 2.70339e-005 -0.000634411 0.000848466 -3.32384e-005 0.000633524 -0.00046844 -2.45964e-005 3.32384e-005 -0.000633524 -0.000542894 -0.000910068zm0.00143745 0.00159722m0.00023843 -0.000724376c4.71986e-005,-0.00024264 0.000151789,-0.000418583 0.000313328,-0.000527383 0.000161539,-0.000109022 0.000362964,-0.000139823 0.000604275,-9.2846e-005 0.000247515,4.80849e-005 0.00042523,0.000151567 0.000533587,0.000310447 0.000107914,0.000158658 0.000138715,0.000357867 9.21812e-005,0.000597184 -3.36816e-005,0.000173726 -9.08517e-005,0.00031089 -0.000171067,0.000410605 -7.99938e-005,9.97153e-005 -0.00018126,0.000169959 -0.000303799,0.00021051 -0.000122761,4.03293e-005 -0.000266129,4.43179e-005 -0.000431435,1.21874e-005 -0.000167522,-3.25737e-005 -0.00030114,-8.59767e-005 -0.000400855,-0.000160652 -9.94937e-005,-7.51188e-005 -0.000171953,-0.00017705 -0.000218044,-0.000305793 -4.56474e-005,-0.000128965 -5.18519e-005,-0.000280311 -1.81703e-005,-0.000454258zm0.000459577 9.15165e-005c-2.92498e-005,0.000150238 -2.26021e-005,0.000263248 2.03862e-005,0.000339918 4.32099e-005,7.62268e-005 0.000112789,0.00012409 0.000208737,0.000142704 9.86073e-005,1.90567e-005 0.000181482,1.77272e-006 0.000247737,-5.18519e-005 6.66984e-005,-5.38462e-005 0.000116334,-0.000163755 0.000148687,-0.000329947 2.72555e-005,-0.000140488 1.88351e-005,-0.000247959 -2.50396e-005,-0.000323742 -4.38747e-005,-7.53404e-005 -0.00011434,-0.000122317 -0.000211175,-0.000141152 -9.24028e-005,-1.79487e-005 -0.000173283,0 -0.000242197,5.49542e-005 -6.84711e-005,5.4511e-005 -0.000117664,0.000157772 -0.000147135,0.000309117zm0.00102241 0.000992721m0.000154005 4.71986e-005l0.000442957 -0.00144875 0.000746092 0.000228237c0.000138493,4.23236e-005 0.000240868,8.61983e-005 0.000306015,0.000132732 6.62553e-005,4.5869e-005 0.000111681,0.000107692 0.000136942,0.000185914 2.52612e-005,7.77779e-005 2.37101e-005,0.000162868 -4.43179e-006,0.000254828 -2.45964e-005,8.06586e-005 -6.3153e-005,0.000144698 -0.000115005,0.000192561 -5.22951e-005,4.76417e-005 -0.000113897,8.0437e-005 -0.000184806,9.86073e-005 -4.54258e-005,1.10795e-005 -0.000103482,1.46249e-005 -0.000174613,9.08517e-006 4.78633e-005,3.43464e-005 8.13233e-005,6.38178e-005 0.00010038,8.93006e-005 1.2409e-005,1.66192e-005 2.88066e-005,4.91929e-005 4.83065e-005,9.7721e-005 1.92783e-005,4.87497e-005 3.12441e-005,8.48688e-005 3.52327e-005,0.000109244l8.7971e-005 0.000486167 -0.000505667 -0.000154669 -0.000103925 -0.000516082c-1.28522e-005,-6.62553e-005 -2.83635e-005,-0.000111903 -4.6977e-005,-0.000136499 -2.54828e-005,-3.21305e-005 -5.87212e-005,-5.42894e-005 -9.97153e-005,-6.66984e-005l-3.92213e-005 -1.21874e-005 -0.000179709 0.000587877 -0.000449827 -0.000137385zm0.000713297 -0.000724376l0.000188794 5.76133e-005c2.01646e-005,6.20451e-006 6.16019e-005,1.19658e-005 0.000124312,1.68408e-005 3.14657e-005,2.88066e-006 6.04939e-005,-4.65338e-006 8.68631e-005,-2.32669e-005 2.5926e-005,-1.88351e-005 4.38747e-005,-4.38747e-005 5.36247e-005,-7.5562e-005 1.44033e-005,-4.67554e-005 1.04147e-005,-8.70847e-005 -1.15227e-005,-0.000121209 -2.19374e-005,-3.41248e-005 -7.40109e-005,-6.38178e-005 -0.000155556,-8.86358e-005l-0.00019655 -6.02723e-005 -8.99653e-005 0.000294492zm0.000715291 0.00116379m0.000736342 -0.00133308l0.00043077 0.000182811 -0.000223584 0.00052694 0.000675626 -0.000335043 0.000572587 0.000243084 -0.000731245 0.000310225 0.000162204 0.00109377 -0.000530928 -0.000225135 -5.03008e-005 -0.00069845 -0.000321748 0.000138493 -0.000144476 0.000340583 -0.00043077 -0.000182811 0.000591866 -0.00139446z"/>
   <polygon id="_297367176" class="fil1" points="0.00599355,0.0159888 0.00717064,0.0159888 0.00717064,0.0146819 0.00747133,0.0146819 0.00747133,0.0159888 0.00864842,0.0159888 0.00864842,0.0129736 0.00747133,0.0129736 0.00747133,0.0139947 0.00717064,0.0139947 0.00717064,0.0129736 0.00599355,0.0129736 "/>
   <path id="_2973671761" class="fil1" d="M0.0087858 0.0159888l0.00121431 0 6.66984e-005 -0.000653467 0.000337924 0 6.692e-005 0.000653467 0.00121786 0 -0.000530928 -0.00301517 -0.00184185 0 -0.000530928 0.00301517zm0.00132555 -0.00131824l0.000126306 -0.00102485 0.000122539 0.00102485 -0.000248845 0z"/>
   <path id="_29736717612" class="fil1" d="M0.0133047 0.0159888l0.0011957 0 0 -0.000776006c6.64768e-007,-0.000165306 -1.48465e-005,-0.000305129 -4.6977e-005,-0.000419026 -3.21305e-005,-0.000113897 -8.4204e-005,-0.000204749 -0.000155999,-0.000272333 -7.1795e-005,-6.8028e-005 -0.000167743,-0.000116334 -0.00028718,-0.000144255 0.000116999,-2.90282e-005 0.000211618,-7.1795e-005 0.000282748,-0.000128522 7.1795e-005,-5.65053e-005 0.000123869,-0.000130738 0.000155999,-0.000221589 3.21305e-005,-9.1738e-005 4.83065e-005,-0.000203641 4.76417e-005,-0.000336816 6.64768e-007,-0.000173726 -2.5926e-005,-0.000313106 -7.91074e-005,-0.000418361 -5.31815e-005,-0.000105698 -0.000136278,-0.000181925 -0.000248845,-0.000228902 -0.000111903,-4.6977e-005 -0.000256822,-6.98007e-005 -0.000433207,-6.93575e-005l-0.00190855 0 0 0.00301517 0.00117708 0 0 -0.001244 0.000129851 0c6.27098e-005,-1.10795e-006 0.000106585,1.48465e-005 0.000133175,4.76417e-005 2.5926e-005,3.27952e-005 3.8335e-005,8.93006e-005 3.76702e-005,0.000167743l0 0.00102862zm-0.000300697 -0.00232824l0.000129851 0c6.38178e-005,-4.43179e-007 0.000109022,1.55113e-005 0.000134505,4.89713e-005 2.52612e-005,3.41248e-005 3.76702e-005,8.9079e-005 3.63407e-005,0.000166414 6.64768e-007,7.5562e-005 -1.17442e-005,0.000130073 -3.76702e-005,0.000162868 -2.65907e-005,3.346e-005 -7.04655e-005,4.94145e-005 -0.000133175,4.87497e-005l-0.000129851 0 0 -0.000427003z"/>
   <polygon id="_297367176123" class="fil1" points="0.0147754,0.0159888 0.0166764,0.0159888 0.0166764,0.0153019 0.0159522,0.0153019 0.0159522,0.0129736 0.0147754,0.0129736 "/>
   <polygon id="_2973671761234" class="fil1" points="0.0168807,0.0159888 0.0187819,0.0159888 0.0187819,0.0153019 0.0180578,0.0153019 0.0180578,0.0146781 0.0187819,0.0146781 0.0187819,0.0139912 0.0180578,0.0139912 0.0180578,0.0136605 0.0187819,0.0136605 0.0187819,0.0129736 0.0168807,0.0129736 "/>
   <polygon id="_29736717612345" class="fil1" points="0.0205307,0.0159888 0.0211917,0.0159888 0.021626,0.0143291 0.021626,0.0159888 0.0226768,0.0159888 0.0226768,0.0129736 0.0211842,0.0129736 0.0208611,0.0142249 0.0205345,0.0129736 0.0190454,0.0129736 0.0190454,0.0159888 0.0200924,0.0159888 0.0200924,0.0143291 "/>
   <path id="_297366896" class="fil1" d="M0.00786576 0.0177639m0.000166635 7.0687e-005l0.000664768 -0.00156575 0.000806364 0.000342134c0.000149573,6.35962e-005 0.000258595,0.000124755 0.000326401,0.000184141 6.82496e-005,5.91644e-005 0.000111903,0.000133618 0.000130959,0.000223805 1.90567e-005,8.99653e-005 7.09086e-006,0.000184584 -3.50111e-005,0.000284078 -3.7227e-005,8.73063e-005 -8.73063e-005,0.000154005 -0.000150902,0.000201646 -6.40394e-005,4.71986e-005 -0.000136721,7.667e-005 -0.000217822,8.86358e-005 -5.20735e-005,7.09086e-006 -0.000117442,3.76702e-006 -0.000196107,-1.04147e-005 4.91929e-005,4.36531e-005 8.30961e-005,8.06586e-005 0.000101488,0.000111238 1.19658e-005,2.03862e-005 2.63691e-005,5.87212e-005 4.25452e-005,0.000115005 1.57329e-005,5.67269e-005 2.4818e-005,9.83857e-005 2.63691e-005,0.000126306l4.14372e-005 0.000553087 -0.000546883 -0.000232226 -5.53974e-005 -0.00058832c-6.64768e-006,-7.5562e-005 -1.86135e-005,-0.0001283 -3.65623e-005,-0.000157993 -2.43748e-005,-3.87782e-005 -5.91644e-005,-6.78064e-005 -0.000103039,-8.64199e-005l-4.27668e-005 -1.81703e-005 -0.000269674 0.000635519 -0.000486167 -0.0002063zm0.000881483 -0.000725262l0.000204306 8.68631e-005c2.17158e-005,9.08517e-006 6.73632e-005,2.03862e-005 0.000136721,3.30168e-005 3.47895e-005,7.09086e-006 6.8028e-005,1.77272e-006 9.97153e-005,-1.57329e-005 3.10225e-005,-1.79487e-005 5.42894e-005,-4.36531e-005 6.89143e-005,-7.79995e-005 2.14942e-005,-5.0744e-005 2.17158e-005,-9.61698e-005 1.10795e-006,-0.000136721 -2.06078e-005,-4.09941e-005 -7.48972e-005,-8.02154e-005 -0.00016309,-0.000117442l-0.000212504 -9.04085e-005 -0.00013517 0.000318424zm0.000657899 0.00139136m0.00124954 8.84142e-005l-0.000572809 -0.000175056 -0.000160652 0.000244413 -0.000513644 -0.000157107 0.00110861 -0.00143989 0.000547991 0.000167522 0.00011434 0.00181393 -0.000526053 -0.000160874 2.21589e-006 -0.000292941zm2.21589e-006 -0.000384236l-1.10795e-006 -0.000639729 -0.000357645 0.000530042 0.000358753 0.000109687zm0.000525389 0.000818552m0.00051586 -0.00163267l0.00051719 0.000100602 -0.000324629 0.00166968 -0.00051719 -0.00010038 0.000324629 -0.0016699zm0.000385344 0.0018228m0.000380026 -0.00166724l0.000522065 6.40394e-005 -0.000156221 0.00127259 0.000813898 9.99369e-005 -5.09656e-005 0.000415923 -0.00133618 -0.000163976 0.000207408 -0.00168851zm0.00120523 0.00185736m0.000181039 -3.10225e-006l-2.9693e-005 -0.00170092 0.000875943 -1.52897e-005c0.000162425,-2.88066e-006 0.000286958,8.64199e-006 0.000372935,3.54543e-005 8.64199e-005,2.61476e-005 0.000156664,7.64484e-005 0.000210732,0.000151124 5.38462e-005,7.44541e-005 8.15449e-005,0.000165749 8.35392e-005,0.000273885 1.55113e-006,9.48403e-005 -1.70624e-005,0.000176164 -5.58405e-005,0.0002453 -3.92213e-005,6.93575e-005 -9.37324e-005,0.000125863 -0.000162868,0.000169738 -4.47611e-005,2.76987e-005 -0.000105698,5.14088e-005 -0.000183476,7.02439e-005 6.29314e-005,1.99431e-005 0.0001088,3.98861e-005 0.00013805,6.04939e-005 1.92783e-005,1.3517e-005 4.78633e-005,4.27668e-005 8.55335e-005,8.75278e-005 3.74486e-005,4.54258e-005 6.27098e-005,7.97722e-005 7.5562e-005,0.00010459l0.000262805 0.000488605 -0.000594081 1.04147e-005 -0.000290061 -0.000515196c-3.65623e-005,-6.62553e-005 -6.89143e-005,-0.000109465 -9.74994e-005,-0.000129408 -3.81134e-005,-2.54828e-005 -8.15449e-005,-3.78918e-005 -0.000129408,-3.70054e-005l-4.63122e-005 8.86358e-007 1.21874e-005 0.000690251 -0.000528048 9.30676e-006zm0.000510321 -0.00102108l0.000221811 -3.98861e-006c2.37101e-005,-2.21589e-007 6.98007e-005,-8.64199e-006 0.000138493,-2.54828e-005 3.4568e-005,-7.53404e-006 6.29314e-005,-2.5926e-005 8.44256e-005,-5.47326e-005 2.12726e-005,-2.90282e-005 3.21305e-005,-6.20451e-005 3.14657e-005,-9.92721e-005 -1.10795e-006,-5.51758e-005 -1.92783e-005,-9.6613e-005 -5.4511e-005,-0.00012542 -3.56759e-005,-2.90282e-005 -0.000101266,-4.27668e-005 -0.000196993,-4.09941e-005l-0.000230675 3.98861e-006 5.98292e-006 0.000345901zm0.00111637 0.000976766m-1.15227e-005 -0.000856222c-3.87782e-005,-0.000274993 8.19881e-006,-0.000499906 0.000139601,-0.000674518 0.000131846,-0.000174834 0.000334379,-0.000281419 0.00060782,-0.000319754 0.000280532,-3.94429e-005 0.000507218,5.31815e-006 0.00068028,0.000134726 0.000172397,0.000128965 0.000278095,0.000329282 0.000315987,0.000600286 2.76987e-005,0.000196993 1.70624e-005,0.000363185 -3.14657e-005,0.000498576 -4.85281e-005,0.00013517 -0.000130516,0.000246629 -0.000245743,0.000334379 -0.000115448,8.77494e-005 -0.000266351,0.000144476 -0.000453372,0.000170845 -0.000190124,2.68123e-005 -0.000351441,1.88351e-005 -0.000484838,-2.41533e-005 -0.000132732,-4.32099e-005 -0.000247072,-0.000124976 -0.000343242,-0.000245078 -9.55051e-005,-0.000120101 -0.000157329,-0.000278538 -0.000185027,-0.000475309zm0.000521178 -7.09086e-005c2.39317e-005,0.000170181 7.24598e-005,0.000287623 0.000146027,0.000353435 7.37893e-005,6.53689e-005 0.000165084,9.01869e-005 0.000273885,7.48972e-005 0.000111681,-1.57329e-005 0.000193226,-6.42609e-005 0.000244192,-0.000145141 5.09656e-005,-8.17665e-005 6.35962e-005,-0.000216715 3.70054e-005,-0.000405066 -2.21589e-005,-0.00015888 -7.04655e-005,-0.000269896 -0.00014492,-0.000334379 -7.40109e-005,-6.38178e-005 -0.000165971,-8.81926e-005 -0.000275657,-7.26813e-005 -0.000104812,1.46249e-005 -0.000183919,6.33746e-005 -0.000237101,0.000146692 -5.29599e-005,8.30961e-005 -6.75848e-005,0.000210732 -4.34315e-005,0.000382242zm0.00136521 0.000618235m0.00109598 -0.000606269l-0.000575689 0.000165084 -1.55113e-006 0.000292498 -0.000516303 0.000148022 0.000145584 -0.00181149 0.000550871 -0.000157993 0.00108379 0.00145895 -0.000528934 0.000151789 -0.000157772 -0.000246851zm-0.000207186 -0.000323521l-0.000349447 -0.000536025 -1.13011e-005 0.000639507 0.000360748 -0.000103482zm0.000864642 0.000406838m-0.00044052 -0.00165306l0.000729029 -0.000279868c0.000143368,-5.49542e-005 0.000267237,-8.02154e-005 0.000370941,-7.53404e-005 0.000103261,5.31815e-006 0.000197879,3.27952e-005 0.000283635,8.37608e-005 8.59767e-005,5.09656e-005 0.000159988,0.000119658 0.000223362,0.000206521 6.33746e-005,8.68631e-005 0.000115448,0.000184362 0.000156885,0.000292498 6.53689e-005,0.000169959 9.6613e-005,0.000308896 9.35108e-005,0.000417253 -2.21589e-006,0.000108579 -2.5926e-005,0.000207629 -7.04655e-005,0.000296708 -4.43179e-005,8.95222e-005 -0.00010171,0.000159988 -0.000172175,0.000211175 -9.6613e-005,7.00223e-005 -0.000188573,0.000122096 -0.000275879,0.000155556l-0.000729251 0.000279868 -0.000609593 -0.00158813zm0.000628649 0.00017151l0.000333049 0.000867301 0.000120101 -4.60906e-005c0.000102818,-3.94429e-005 0.00017151,-7.84427e-005 0.000205857,-0.000117886 3.4568e-005,-3.92213e-005 5.34031e-005,-9.21812e-005 5.62837e-005,-0.000158436 2.65907e-006,-6.58121e-005 -2.03862e-005,-0.000162647 -6.91359e-005,-0.000289839 -6.47041e-005,-0.000168186 -0.000136056,-0.000272555 -0.00021472,-0.000313992 -7.88859e-005,-4.07725e-005 -0.000181925,-3.70054e-005 -0.000308896,1.17442e-005l-0.000122539 4.71986e-005z"/>
   <path id="_297364936" class="fil2" d="M0.00808181 0.0126955c0,0 0.00264578,-0.00153185 0.00584841,-0.00160143 0.00320285,-6.95791e-005 0.00619675,0.00153185 0.00619675,0.00153185"/>
   <path id="_297363256" class="fil2" d="M0.00844189 0.0160668c0,0 0.00264578,0.00153207 0.00584863,0.00160165 0.00320285,6.95791e-005 0.00619675,-0.00153185 0.00619675,-0.00153185"/>
   <path id="_297364208" class="fil1" d="M0.0146637 0.0121198l0.000288288 6.42609e-005c-1.50681e-005,5.34031e-005 -2.9693e-005,9.59482e-005 -4.36531e-005,0.000127857 -1.39601e-005,3.21305e-005 -3.346e-005,7.00223e-005 -5.87212e-005,0.000113232l0.000138493 9.52835e-005c1.70624e-005,1.08579e-005 3.87782e-005,2.39317e-005 6.53689e-005,3.89997e-005l-0.000198766 0.000228459c-3.61191e-005,-1.92783e-005 -7.37893e-005,-4.14372e-005 -0.000112567,-6.692e-005 -3.89997e-005,-2.57044e-005 -7.37893e-005,-4.74201e-005 -0.000104812,-6.51473e-005 -6.40394e-005,4.18804e-005 -0.000128079,7.29029e-005 -0.000192118,9.21812e-005 -8.88574e-005,2.65907e-005 -0.000189681,3.98861e-005 -0.000302691,3.98861e-005 -0.000177272,0 -0.000309117,-3.67839e-005 -0.000395316,-0.000110573 -8.64199e-005,-7.35677e-005 -0.00012963,-0.00016309 -0.00012963,-0.000268123 0,-7.5562e-005 2.52612e-005,-0.000147135 7.60052e-005,-0.000214499 5.0744e-005,-6.73632e-005 0.000134062,-0.000124312 0.00024951,-0.000170845 -4.83065e-005,-5.87212e-005 -8.17665e-005,-0.000109465 -9.97153e-005,-0.000152897 -1.83919e-005,-4.32099e-005 -2.72555e-005,-8.70847e-005 -2.72555e-005,-0.000131624 0,-9.43971e-005 3.58975e-005,-0.000172175 0.000107692,-0.000233112 7.20166e-005,-6.11587e-005 0.000181039,-9.15165e-005 0.000327288,-9.15165e-005 0.000149573,0 0.000259038,2.90282e-005 0.000329282,8.68631e-005 7.00223e-005,5.8278e-005 0.000104812,0.000127414 0.000104812,0.000208516 0,4.52043e-005 -1.04147e-005,8.88574e-005 -3.21305e-005,0.000130738 -2.12726e-005,4.16588e-005 -4.6977e-005,7.53404e-005 -7.73347e-005,0.000101488 -3.03578e-005,2.5926e-005 -8.44256e-005,6.44825e-005 -0.000162204,0.000115891 6.44825e-005,6.47041e-005 0.000131846,0.000124755 0.00020209,0.000180374 1.86135e-005,-3.74486e-005 3.47895e-005,-7.68916e-005 4.80849e-005,-0.000118772zm-0.000424344 -0.000232891c4.76417e-005,-2.61476e-005 8.44256e-005,-5.42894e-005 0.000110573,-8.48688e-005 2.5926e-005,-3.03578e-005 3.89997e-005,-5.9386e-005 3.89997e-005,-8.66415e-005 0,-2.81419e-005 -1.08579e-005,-5.22951e-005 -3.25737e-005,-7.1795e-005 -2.17158e-005,-1.97215e-005 -5.16303e-005,-2.9693e-005 -8.97437e-005,-2.9693e-005 -3.74486e-005,0 -6.8028e-005,1.10795e-005 -9.15165e-005,3.27952e-005 -2.34885e-005,2.17158e-005 -3.52327e-005,4.74201e-005 -3.52327e-005,7.71131e-005 0,3.74486e-005 3.30168e-005,9.1738e-005 9.94937e-005,0.00016309zm-0.000131403 0.000322634c-5.0744e-005,3.56759e-005 -8.44256e-005,6.62553e-005 -0.000100823,9.15165e-005 -1.68408e-005,2.54828e-005 -2.52612e-005,5.22951e-005 -2.52612e-005,8.08802e-005 0,4.38747e-005 1.92783e-005,8.30961e-005 5.73917e-005,0.000117886 3.81134e-005,3.43464e-005 8.75278e-005,5.16303e-005 0.000148465,5.16303e-005 6.58121e-005,0 0.000139823,-2.57044e-005 0.000222254,-7.71131e-005 -7.86643e-005,-6.04939e-005 -0.000179266,-0.000148687 -0.000302026,-0.000264799z"/>
   <polygon id="_297362080" class="fil2 str0" points="0.00210909,0.0142664 0.0142664,0.0233843 0.0264237,0.0142664 0.0142664,0.00514841 "/>
   <circle id="_681072696" class="fil2 str1" cx="0.0142664" cy="0.0142663" r="0.0140709"/>
  </g>
 </g>
</svg>
