<?xml version="1.0" encoding="UTF-8"?>
<!DOCTYPE svg PUBLIC "-//W3C//DTD SVG 1.1//EN" "http://www.w3.org/Graphics/SVG/1.1/DTD/svg11.dtd">
<!-- Creator: CorelDRAW -->
<svg xmlns="http://www.w3.org/2000/svg" xml:space="preserve" width="0.509835in" height="0.509835in" style="shape-rendering:geometricPrecision; text-rendering:geometricPrecision; image-rendering:optimizeQuality; fill-rule:evenodd; clip-rule:evenodd"
viewBox="0 0 0.0288497 0.0288497"
 xmlns:xlink="http://www.w3.org/1999/xlink">
 <defs>
  <style type="text/css">
   <![CDATA[
    .str0 {stroke:black;stroke-width:0.000556953}
    .fil0 {fill:#E96B21}
    .fil1 {fill:#000;fill-rule:nonzero}
   ]]>
  </style>
 </defs>
 <g id="Train_x0020_Chart">
  <metadata id="CorelCorpID_0Corel-Layer"/>
  <g id="_810437800">
   <circle id="_810435168" class="fil0 str0" cx="0.0144249" cy="0.0144249" r="0.0141464"/>
   <path id="_810434440" class="fil1" d="M0.0219997 0.00882927l0 -3.74273e-005c0,0 -0.000298304,7.46317e-005 -0.000428854,7.46317e-005 -0.00013055,0 -0.000503263,-7.46317e-005 -0.000503263,-7.46317e-005l-7.46317e-005 1.87136e-005c1.87136e-005,5.59181e-005 3.72045e-005,9.31226e-005 3.72045e-005,0.000149041 0,1.87136e-005 -1.84909e-005,3.72045e-005 -1.84909e-005,5.59181e-005 -3.74273e-005,7.46317e-005 -0.00013055,0.000223672 -0.000223672,0.000298304 -9.33454e-005,9.31226e-005 -0.000428854,0.000466059 -0.000521977,0.000521977 -9.33454e-005,5.59181e-005 -5.61409e-005,7.46317e-005 -9.33454e-005,7.46317e-005 -3.72045e-005,0 -5.59181e-005,-1.87136e-005 -5.59181e-005,-3.72045e-005 0,-1.87136e-005 1.87136e-005,-3.74273e-005 1.87136e-005,-5.61409e-005l0.000652527 -0.00132354c9.31226e-005,-0.000186245 0.000204959,-0.00041014 0.000279591,-0.000484549 7.4409e-005,-9.33454e-005 0.000223672,-0.000298304 0.000260877,-0.00039165l-3.72045e-005 -1.84909e-005c-7.46317e-005,9.31226e-005 -0.00041014,0.000316795 -0.000503263,0.000316795 -0.000111836,0 -0.000242386,0 -0.000279813,-3.72045e-005l-5.59181e-005 1.87136e-005c3.74273e-005,9.31226e-005 3.74273e-005,0.000167754 3.74273e-005,0.000242163 0,0.000149263 -3.74273e-005,0.000298304 -9.33454e-005,0.00039165l-0.00134226 0.00277741c-7.4409e-005,0.00013055 -0.000242163,0.00039165 -0.000316795,0.000447568l0.000615099 0c0,-1.87136e-005 0,-3.74273e-005 0,-7.46317e-005 0,-0.000130327 3.74273e-005,-0.000316795 7.46317e-005,-0.00041014l0.000260877 -0.000540468c3.74273e-005,-7.46317e-005 0.000112059,-0.00013055 0.000167977,-0.00013055 3.72045e-005,0 5.59181e-005,3.72045e-005 5.59181e-005,7.4409e-005 0,0 0,1.87136e-005 0,1.87136e-005 0,0 0,0 0,0 0,5.59181e-005 -5.59181e-005,0.000764363 -9.33454e-005,0.000838995 -1.84909e-005,7.4409e-005 -3.72045e-005,0.000149041 -0.000111836,0.000223672l0.000615099 0c-7.4409e-005,-0.000149263 -0.000111836,-0.000167754 -0.000111836,-0.000335509l-3.72045e-005 -0.00100675c0,0 0,0 0,0 0,-9.31226e-005 5.59181e-005,-0.000186468 0.00013055,-0.000242386l0.000801567 -0.000726936c9.33454e-005,-9.31226e-005 0.000317018,-0.000298304 0.00041014,-0.000335731 9.31226e-005,-1.84909e-005 0.000447345,-0.000223672 0.000484772,-0.000279368zm-0.000317018 -0.00218125c0,-7.46317e-005 -1.87136e-005,-0.000149041 -5.59181e-005,-0.000242386 -9.31226e-005,-0.000186245 -0.000316795,-0.000354222 -0.000745649,-0.000354222 -0.000876199,0 -0.00111859,0.0002611 -0.00143538,0.000428854 -0.000317018,0.000167754 -0.000876199,0.000652527 -0.0011373,0.000894913 -0.000242163,0.000242163 -0.00158442,0.00167777 -0.00158442,0.00167777 -7.46317e-005,7.4409e-005 -0.00013055,0.000149041 -0.000167754,0.000149041 -1.87136e-005,0 -7.46317e-005,-3.72045e-005 -7.46317e-005,-7.46317e-005 0,0 0,0 0,-1.87136e-005l5.59181e-005 -0.0015285c0,-0.000111836 5.59181e-005,-0.000279591 0.000111836,-0.000335509 5.59181e-005,-7.46317e-005 0.000204959,-0.000279591 0.000223672,-0.000335731 1.87136e-005,-3.72045e-005 3.74273e-005,-0.000167532 3.74273e-005,-0.000167532l-5.61409e-005 1.84909e-005c0,0 -5.56953e-005,0.00013055 -0.000111836,0.000186468 -3.72045e-005,5.59181e-005 -0.000223672,0.000223672 -0.000354,0.000223672 -0.000111836,0 -0.000428854,-7.46317e-005 -0.000484772,-0.000111836l-7.46317e-005 3.72045e-005c0.00013055,7.46317e-005 0.000186468,7.46317e-005 0.0002611,0.000205182 5.59181e-005,0.000149041 7.46317e-005,0.000186468 7.46317e-005,0.000279591 0,1.87136e-005 0,1.87136e-005 0,3.72045e-005l-3.74273e-005 0.00210662c0,5.59181e-005 -1.87136e-005,0.00013055 -3.72045e-005,0.000186468 0,1.84909e-005 -0.000559404,0.00124891 -0.000559404,0.00124891 -5.59181e-005,0.00013055 -0.000335509,0.000559181 -0.000391427,0.000615322l0.000652527 0c-1.87136e-005,-1.87136e-005 -1.87136e-005,-5.61409e-005 -1.87136e-005,-9.33454e-005 0,-0.000186468 0.000111836,-0.000503263 0.000111836,-0.000503263 1.87136e-005,-0.000111836 0.000577895,-0.00121171 0.000577895,-0.00121171 5.59181e-005,-0.000111836 0.000149263,-0.000298304 0.000242386,-0.000391427 0,0 0.00154722,-0.00167777 0.00180832,-0.00192015 0.000242386,-0.000242386 0.00115579,-0.00104395 0.00156593,-0.00124913 0.000260877,-0.000111836 0.00041014,-0.000204959 0.000726936,-0.000204959 0.000317018,0 0.00054069,9.31226e-005 0.000596608,0.000204959 3.72045e-005,5.59181e-005 9.31226e-005,0.000167754 0.000111836,0.0002611 0,1.84909e-005 0,3.72045e-005 0,5.59181e-005 0,9.31226e-005 -3.72045e-005,0.000167754 -7.46317e-005,0.000260877 -7.46317e-005,0.000149263 -0.000186468,0.000223672 -0.000335509,0.000317018 -0.000149041,0.000111836 -0.000298304,0.000149041 -0.000428631,0.000149041 -0.00013055,0 -0.0002611,-5.59181e-005 -0.000335731,-0.000149041 -5.59181e-005,-7.46317e-005 -7.4409e-005,-0.000167754 -7.4409e-005,-0.000242386 0,-1.87136e-005 0,-5.59181e-005 1.84909e-005,-7.46317e-005 5.59181e-005,-0.000130327 0.000279813,-0.000260877 0.000466059,-0.000260877 0.000186468,0 0.000317018,1.87136e-005 0.000317018,1.87136e-005l-1.87136e-005 -3.74273e-005c0,0 -0.000205182,-7.4409e-005 -0.000298304,-7.4409e-005 -3.72045e-005,0 -0.000167754,3.72045e-005 -0.000279591,9.31226e-005 -0.00013055,5.59181e-005 -0.000242386,0.000149041 -0.000298304,0.000242386 -1.84909e-005,3.72045e-005 -1.84909e-005,9.31226e-005 -1.84909e-005,0.000130327 0,7.46317e-005 1.84909e-005,0.000167977 7.4409e-005,0.000242386 7.46317e-005,0.00013055 0.000223672,0.000242386 0.000335731,0.000242386 0.000167532,0 0.000316795,-3.72045e-005 0.000521977,-0.000149263 0.000130327,-5.56953e-005 0.000242163,-0.000130327 0.000335509,-0.000204959 5.59181e-005,-5.59181e-005 0.000149041,-0.00013055 0.000186245,-0.000223672 7.46317e-005,-0.00013055 7.46317e-005,-0.000205182 7.46317e-005,-0.000298304 0,-1.87136e-005 0,-3.72045e-005 0,-5.59181e-005zm-0.0017524 0.00216254c-0.000111836,0 -0.000223672,9.31226e-005 -0.000316795,0.000167754 -9.31226e-005,7.46317e-005 -0.000223672,0.000204959 -0.000223672,0.000204959 0,0 -5.59181e-005,-5.59181e-005 -5.59181e-005,-9.31226e-005 0,0 0,-1.87136e-005 0,-1.87136e-005 3.72045e-005,-5.59181e-005 7.4409e-005,-0.000130327 0.000186468,-0.000242163l-0.000521977 0c1.84909e-005,3.72045e-005 1.84909e-005,0.000111836 1.84909e-005,0.000186245 0,0.00013055 -1.84909e-005,0.000279591 -9.31226e-005,0.000447568l-0.000838995 0.00167777c-7.46317e-005,0.000167532 -0.000335509,0.000577672 -0.000428631,0.000633813l0.000671017 0c0,0 0,-1.87136e-005 0,-5.61409e-005 0,-0.000111836 5.59181e-005,-0.000335509 0.00013055,-0.000503263l0.000652527 -0.00132354c7.4409e-005,-0.000149041 0.000130327,-0.000223672 0.000186245,-0.000279591 5.59181e-005,-5.59181e-005 0.000149263,-0.00013055 0.000186468,-0.00013055 5.59181e-005,0 0.000167754,5.59181e-005 0.000186468,0.000111836l0.000260877 -0.000782854zm-0.00130483 0.000354222c0,-5.61409e-005 0,-9.33454e-005 -3.72045e-005,-0.000149263 -3.74273e-005,-9.31226e-005 -0.00013055,-0.000149041 -0.0002611,-0.000149041l-0.000354222 0c-0.000130327,0 -0.000260877,5.59181e-005 -0.00041014,0.000149041 -0.000149041,0.000111836 -0.000242163,0.000223672 -0.000316795,0.000335731l-0.000950831 0.00193864c-1.84909e-005,7.46317e-005 -3.72045e-005,0.00013055 -3.72045e-005,0.000204959 0,3.74273e-005 1.87136e-005,9.33454e-005 3.72045e-005,0.00013055 5.59181e-005,0.000111836 0.00013055,0.000149263 0.0002611,0.000149263l0.000354222 0c0.000130327,0 0.000260877,-3.74273e-005 0.00041014,-0.000149263 0.000149041,-9.31226e-005 0.000260877,-0.000204959 0.000316795,-0.000335509l0.000950831 -0.00193864c1.84909e-005,-5.61409e-005 3.72045e-005,-0.00013055 3.72045e-005,-0.000186468zm0.00305723 0.00102524c0,-5.59181e-005 0,-9.31226e-005 -1.87136e-005,-0.000111836 -5.59181e-005,-0.000111836 -0.000167754,-0.00013055 -0.000260877,-0.00013055 -9.31226e-005,0 -0.000186468,0.000111836 -0.000204959,0.000167754 -1.87136e-005,1.87136e-005 -1.87136e-005,5.59181e-005 -1.87136e-005,7.46317e-005 0,5.59181e-005 1.87136e-005,0.000111836 3.72045e-005,0.000111836 3.72045e-005,0 3.72045e-005,-0.00013055 7.46317e-005,-0.000186468 3.72045e-005,-5.59181e-005 7.4409e-005,-5.59181e-005 0.000111836,-5.59181e-005 3.72045e-005,0 0.00013055,1.87136e-005 0.000149041,0.000111836 0,0 0,1.87136e-005 0,5.59181e-005 0,0.00013055 -5.59181e-005,0.00041014 -0.000186468,0.000577895 -0.000130327,0.000205182 -0.000391427,0.000633813 -0.000801344,0.000876199 -0.00039165,0.0002611 -0.000894913,0.000615322 -0.00121193,0.000838995 -0.000316795,0.000223672 -0.000671017,0.000540468 -0.00104395,0.000969322 -0.000354,0.000447345 -0.000615099,0.000783076 -0.000708445,0.000969322l-0.000186245 0.000372936c-1.87136e-005,5.59181e-005 -5.59181e-005,0.000111836 -9.31226e-005,0.000111836 -1.87136e-005,0 -1.87136e-005,-1.87136e-005 -1.87136e-005,-3.72045e-005 0,-1.87136e-005 0,-3.74273e-005 0,-5.61409e-005l0.000447345 -0.00137946c3.72045e-005,-7.46317e-005 0.000111836,-0.000204959 0.000186468,-0.000279591l-0.000559404 0c1.87136e-005,0.000111836 1.87136e-005,0.000204959 1.87136e-005,0.000279591 0,0.000111836 -1.87136e-005,0.000205182 -5.59181e-005,0.000354222 -7.46317e-005,0.000204959 -0.000316795,0.000988035 -0.00041014,0.00119322 -7.46317e-005,0.000223672 -0.000111836,0.000540468 -0.000149041,0.000820058 -1.87136e-005,0.000112059 -3.74273e-005,0.0002611 -3.74273e-005,0.000391427 0,0.000242609 1.87136e-005,0.000484772 3.74273e-005,0.00054069 9.31226e-005,-0.000186245 0.00013055,-0.00041014 0.000204959,-0.000559181 7.46317e-005,-0.000149041 0.000466059,-0.000857485 0.000615099,-0.00111859 0.000149263,-0.000260877 0.000988258,-0.00151001 0.0011373,-0.00169648 0.000149263,-0.000186245 0.000521977,-0.000596386 0.000838772,-0.000838772 0.000317018,-0.000223672 0.000894913,-0.000615099 0.00115579,-0.000801567 0.0002611,-0.000204959 0.000633813,-0.000633813 0.000783076,-0.000950831 0.000111836,-0.000223672 0.000167754,-0.000466059 0.000167754,-0.000615099zm-0.00013055 0.00335553c0,-5.59181e-005 -1.84909e-005,-0.000111836 -3.72045e-005,-0.000149263 -3.72045e-005,-0.000130327 -0.000167754,-0.000204959 -0.000335509,-0.000204959l-0.000727158 0c0,1.87136e-005 0,3.74273e-005 0,5.59181e-005 0,0.000186468 -0.000111836,0.000577895 -0.000111836,0.000577895 -3.72045e-005,0.000167754 -0.000726936,0.00160336 -0.000726936,0.00160336 -5.59181e-005,0.000130327 -0.000372936,0.000577672 -0.000503263,0.000689508l0.000689731 0c0,0 0,-1.84909e-005 0,-3.72045e-005 0,-0.000167754 7.4409e-005,-0.000484772 0.000149041,-0.000633813l0.000708445 -0.00158442c3.72045e-005,-9.33454e-005 0.000186245,-0.000223895 0.000298304,-0.000223895 7.4409e-005,0 0.000149041,7.46317e-005 0.000149041,0.000167754 0,1.87136e-005 0,3.74273e-005 0,5.61409e-005l-0.000745649 0.00162163c-5.59181e-005,0.00013055 -0.000335509,0.000559404 -0.000428854,0.000633813l0.000634036 0c-1.87136e-005,-1.84909e-005 -1.87136e-005,-3.72045e-005 -1.87136e-005,-5.56953e-005 0,-0.00013055 5.59181e-005,-0.000298304 0.000111836,-0.000428854l0.000820281 -0.00177089c3.72045e-005,-9.33454e-005 7.4409e-005,-0.000205182 7.4409e-005,-0.000317018zm-0.00559248 -0.00471628l-0.000689731 0c3.72045e-005,7.4409e-005 5.59181e-005,0.000111836 5.59181e-005,0.000149041 0,1.84909e-005 0,3.72045e-005 -1.87136e-005,5.59181e-005 -3.72045e-005,5.59181e-005 -0.000279591,0.000596386 -0.000354222,0.000708445 -7.4409e-005,0.000111836 -0.000167754,0.000242386 -0.000204959,0.000242386 -3.72045e-005,0 -5.59181e-005,-1.87136e-005 -5.59181e-005,-5.61409e-005 0,-1.84909e-005 0,-5.56953e-005 1.87136e-005,-9.31226e-005l0.000335509 -0.0011745c0,0 0,-3.72045e-005 0,-5.59181e-005 0,-1.84909e-005 0,-3.72045e-005 -1.87136e-005,-3.72045e-005 -3.72045e-005,0 -0.000111836,7.46317e-005 -0.000111836,7.46317e-005 0,0 -0.00054069,0.00100653 -0.000615099,0.00108116 -5.61409e-005,7.46317e-005 -9.33454e-005,0.000167754 -0.00013055,0.000167754 -1.87136e-005,0 -3.74273e-005,-1.84909e-005 -3.74273e-005,-7.46317e-005 0,-1.84909e-005 1.87136e-005,-7.4409e-005 3.74273e-005,-0.000111836 5.59181e-005,-0.000130327 0.000149041,-0.000503263 0.000204959,-0.000596608 5.59181e-005,-9.31226e-005 0.00013055,-0.000204959 0.000205182,-0.000279368 0,0 -0.000298304,1.84909e-005 -0.000503263,1.84909e-005 -0.000111836,0 -0.000186468,-1.84909e-005 -0.000186468,-1.84909e-005 7.46317e-005,0.000223672 7.46317e-005,0.000167532 7.46317e-005,0.000316795 0,1.87136e-005 0,1.87136e-005 0,1.87136e-005 0,0.000149041 -3.74273e-005,0.000316795 -0.000223895,0.000820281 -0.000167754,0.000521977 -0.000428631,0.00128612 -0.000484549,0.00143538 -5.61409e-005,0.000149041 -0.000205182,0.000316795 -0.000298304,0.000372713l0.000615099 0c-1.84909e-005,-1.84909e-005 -1.84909e-005,-7.46317e-005 -1.84909e-005,-0.000130327 0,-0.000111836 1.84909e-005,-0.000242386 0.000111836,-0.00041014 0.000130327,-0.0002611 0.000652304,-0.000988035 0.000652304,-0.000988035 0,0 -1.84909e-005,0.000801567 -0.000111836,0.000969322 -7.46317e-005,0.000186468 -0.000223672,0.000484549 -0.000298304,0.000559181l0.000577895 0c-1.84909e-005,-3.72045e-005 -3.72045e-005,-0.000111836 -3.72045e-005,-0.000186468 0,-0.000130327 1.87136e-005,-0.000298304 7.46317e-005,-0.000391427 7.46317e-005,-0.000167754 0.000186468,-0.000521977 0.000428631,-0.000913403 0.000223672,-0.000391427 0.000894913,-0.00136075 0.00100675,-0.00147258zm0.0041199 0.00467908c0,-5.59181e-005 -1.87136e-005,-9.33454e-005 -3.72045e-005,-0.000149263 -5.61409e-005,-9.31226e-005 -9.33454e-005,-0.000149041 -0.000223895,-0.000149041l-0.000335509 0c-0.000149041,0 -0.000242386,5.59181e-005 -0.000391427,0.000149041 -0.000149263,9.33454e-005 -0.000223672,0.000186468 -0.000298304,0.000335509l-0.000932117 0.00193887c-5.59181e-005,9.31226e-005 -7.46317e-005,0.000167754 -7.46317e-005,0.000223672 0,3.72045e-005 0,7.46317e-005 1.87136e-005,0.000111836 5.59181e-005,0.000111836 0.000111836,0.000149041 0.0002611,0.000149041l0.000335509 0c0.000130327,0 0.000242163,-3.72045e-005 0.000372713,-0.000149041 0.000167754,-9.31226e-005 0.000242386,-0.000186468 0.000298304,-0.000335509l9.31226e-005 -0.000186468 0.000167977 -0.000223672 -0.000466059 -3.72045e-005 -3.74273e-005 0.000260877 -0.000111836 0.000205182c-3.72045e-005,7.4409e-005 -9.31226e-005,0.000111836 -0.000167754,0.000111836l-0.000298304 0c-5.59181e-005,0 -7.4409e-005,-1.87136e-005 -7.4409e-005,-5.59181e-005 0,-1.87136e-005 0,-3.74273e-005 1.84909e-005,-5.59181e-005l0.000447345 -0.000932117 0.000857708 5.59181e-005 0.000521977 -0.00108138c3.72045e-005,-7.4409e-005 5.59181e-005,-0.000130327 5.59181e-005,-0.000186245zm0.00292668 0.00238599c0,-0.000335509 -0.000111836,-0.000745649 -0.000298304,-0.000875976 -0.000242163,-0.000167977 -0.000372713,-0.000279813 -0.000447345,-0.000298304l-1.84909e-005 3.72045e-005c5.56953e-005,5.59181e-005 0.000223672,0.000204959 0.000298081,0.000372936 5.59181e-005,0.000111836 0.00013055,0.000354 0.00013055,0.000615099 0,0.00013055 -1.87136e-005,0.000242386 -5.59181e-005,0.000372713 -0.00013055,0.00039165 -0.000149041,0.000521977 -0.000279591,0.00080179 -0.000149263,0.000279591 -0.000298304,0.000615099 -0.000298304,0.000615099 -7.46317e-005,-3.72045e-005 -0.000186468,-0.000111836 -0.000298304,-0.000111836 -0.000204959,0 -0.000354222,1.87136e-005 -0.000503263,0.00013055 -0.000149041,9.31226e-005 -0.000242386,0.000260877 -0.000298304,0.000391427l-0.000969322 0.00197607c-3.74273e-005,7.4409e-005 -3.74273e-005,0.00013055 -3.74273e-005,0.000186468 0,9.31226e-005 3.74273e-005,0.000149041 5.59181e-005,0.000204959 7.46317e-005,7.46317e-005 0.000186468,0.00013055 0.000298304,0.00013055l0.000894913 0c0,0 -1.87136e-005,-1.87136e-005 -1.87136e-005,-3.74273e-005 0,-0.000130327 7.46317e-005,-0.000335509 0.000111836,-0.000447345l0.000932117 -0.00197607 0.000279591 -0.000652304c9.33454e-005,-0.000223672 0.000447345,-0.000876199 0.000503486,-0.00121193 0,-7.4409e-005 1.84909e-005,-0.000149041 1.84909e-005,-0.000223672zm-0.00928374 -0.00672956c0,-3.74273e-005 -1.84909e-005,-9.33454e-005 -3.72045e-005,-0.000149263 -3.72045e-005,-7.4409e-005 -9.31226e-005,-0.000149041 -0.000223672,-0.000149041l-0.000335509 0c-0.00013055,0 -0.000242386,5.59181e-005 -0.000372936,0.000149041 -0.000149041,0.000111836 -0.000242163,0.000205182 -0.000298304,0.000335731l-0.000950608 0.00193864c-3.72045e-005,9.31226e-005 -7.46317e-005,0.000167754 -7.46317e-005,0.000242386 0,3.72045e-005 1.87136e-005,7.4409e-005 3.74273e-005,0.000111836 3.72045e-005,9.31226e-005 0.000111836,0.00013055 0.000242163,0.00013055l0.000335509 0c0.000149263,0 0.000242386,-3.74273e-005 0.00039165,-0.00013055 0.000149041,-0.000111836 0.000223672,-0.000205182 0.000298304,-0.000354222l7.4409e-005 -0.000186468 0.000167754 -0.000223672 -0.000447345 -3.72045e-005 -5.59181e-005 0.000260877 -9.31226e-005 0.000204959c-5.59181e-005,7.46317e-005 -0.000111836,0.000112059 -0.000186468,0.000112059l-0.000279591 0c-5.59181e-005,0 -9.33454e-005,-1.87136e-005 -9.33454e-005,-3.74273e-005 0,-1.84909e-005 1.87136e-005,-5.59181e-005 1.87136e-005,-7.46317e-005l0.000447345 -0.000913403 0.000857708 3.74273e-005 0.000521977 -0.00108116c3.72045e-005,-7.46317e-005 5.56953e-005,-0.00013055 5.56953e-005,-0.000186468zm0.00343016 0.00449261c0,-1.87136e-005 0,-1.87136e-005 0,-3.72045e-005 0,-0.000149263 -1.84909e-005,-0.000242386 -0.000111836,-0.000335731 -0.000111836,-0.000111836 -0.000242163,-0.000149041 -0.000391427,-0.000149041 -0.000149041,0 -0.000260877,5.59181e-005 -0.00041014,0.000167754 -0.000149041,9.31226e-005 -0.000260877,0.000205182 -0.000317018,0.000317018l-0.000186245 0.000503263 0.000484549 0c0,-3.72045e-005 0,-9.33454e-005 0,-0.00013055 0,-7.46317e-005 0,-0.000167754 3.74273e-005,-0.000242163 5.59181e-005,-9.33454e-005 0.000186245,-0.000167977 0.000298304,-0.000167977 0.000130327,0 0.000167754,9.33454e-005 0.000167754,0.000205182 0,0.000149041 -5.59181e-005,0.000316795 -9.33454e-005,0.000391427l-0.000111836 0.000260877c-5.59181e-005,-5.56953e-005 -0.000149041,-7.4409e-005 -0.000260877,-7.4409e-005 -0.000205182,0 -0.000428854,7.4409e-005 -0.000577895,0.000167754 -0.000149263,0.000111836 -0.0002611,0.000223672 -0.000317018,0.000335509l-0.000335509 0.000689731c-3.72045e-005,7.46317e-005 -5.59181e-005,0.000149263 -5.59181e-005,0.000205182 0,9.31226e-005 3.72045e-005,0.000149041 7.46317e-005,0.000204959 5.59181e-005,7.46317e-005 0.000167754,0.00013055 0.000279591,0.00013055l0.00089469 0c0,-1.87136e-005 0,-1.87136e-005 0,-3.72045e-005 0,-0.00013055 5.61409e-005,-0.000335731 0.000111836,-0.000447568 0,0 0.000354222,-0.000726936 0.000354222,-0.000745649l0.0002611 -0.000615099c0.000111836,-0.000242386 0.000204959,-0.000391427 0.000204959,-0.000596608zm-0.00736337 -0.00598413c0,-0.000111836 -0.000111836,-0.000279591 -0.000242386,-0.000279591 -0.00013055,0 -0.000317018,7.46317e-005 -0.000428854,0.000298304 -9.31226e-005,0.000223672 -0.000372713,0.000801567 -0.000372713,0.000950831 0,0.000167754 0.000130327,0.000335509 0.000279591,0.000335509 0.000186245,0 0.000335509,-0.00013055 0.00041014,-0.0002611 5.59181e-005,-0.000149041 7.4409e-005,-0.000186245 7.4409e-005,-0.000186245l-0.000186468 0c-3.72045e-005,9.31226e-005 -0.000149041,0.000279591 -0.000242163,0.000279591 -0.000111836,0 -0.00013055,-9.33454e-005 -0.00013055,-0.000167754 0,-7.46317e-005 0.000186468,-0.000484772 0.000186468,-0.000484772l0.000466059 0c7.46317e-005,-0.000111836 0.000186468,-0.000372713 0.000186468,-0.000484772zm0.0110544 0.00980572c-0.000111836,0 -0.000223672,9.31226e-005 -0.000316795,0.000167754 -9.31226e-005,7.46317e-005 -0.000223672,0.000205182 -0.000223672,0.000205182 0,0 -5.59181e-005,-5.61409e-005 -5.59181e-005,-9.33454e-005 0,0 0,-1.84909e-005 0,-1.84909e-005 3.72045e-005,-5.61409e-005 7.4409e-005,-0.00013055 0.000204959,-0.000242386l-0.000521977 0c0,3.72045e-005 0,0.000111836 0,0.000186245 0,0.00013055 -1.84909e-005,0.000279813 -9.31226e-005,0.000447568l-0.000820281 0.00169648c-7.46317e-005,0.000149041 -0.000354222,0.000559181 -0.000428631,0.000615099l0.000671017 0c0,0 0,-1.87136e-005 0,-3.74273e-005 0,-0.000130327 3.72045e-005,-0.000354 0.000111836,-0.000521977l0.000652527 -0.00132354c7.4409e-005,-0.000149041 0.000149041,-0.000223672 0.000186245,-0.000279591 5.61409e-005,-5.59181e-005 0.000149263,-0.000130327 0.000186468,-0.000130327 5.59181e-005,0 0.000186468,5.56953e-005 0.000186468,0.000111836l0.000260877 -0.000783076zm-0.0116325 -0.0118934c-0.000298081,0.000167532 -0.000354,0.000204959 -0.000503263,0.000223672 -0.000149041,3.72045e-005 -0.000559181,7.4409e-005 -0.000726936,7.4409e-005 -0.000167754,0 -0.000391427,-3.72045e-005 -0.000466059,-5.59181e-005 -9.33454e-005,-1.84909e-005 -0.000186468,-1.84909e-005 -0.000317018,-0.000130327 -9.31226e-005,0.000204959 -0.000223672,0.000615099 -0.000391427,0.000708222 0.000372936,-0.000186245 0.000372936,-0.000223672 0.000559181,-0.000260877 0.000149263,-1.87136e-005 0.000298304,-3.72045e-005 0.000466059,-5.59181e-005l-0.000857485 0.00259117c-5.59181e-005,0.000111836 -9.31226e-005,0.000223672 -0.000204959,0.000391427 0.000149041,-5.59181e-005 0.000335509,-9.31226e-005 0.000466059,-9.31226e-005 3.72045e-005,0 7.4409e-005,0 0.000111836,1.84909e-005 -3.74273e-005,-9.31226e-005 -0.000111836,-0.000149041 -0.000111836,-0.000242163 0,-1.87136e-005 1.84909e-005,-3.74273e-005 1.84909e-005,-3.74273e-005l0.000894913 -0.00262837c7.46317e-005,0 0.000130327,0 0.000204959,0 0.00013055,0 0.0002611,0 0.000298304,1.87136e-005 9.33454e-005,3.72045e-005 0.00013055,7.4409e-005 0.000167754,0.000167532 9.33454e-005,-0.000204959 0.000242386,-0.000521977 0.000391427,-0.000689508zm-0.000372713 0.00199456c0,-1.87136e-005 0,-1.87136e-005 0,-1.87136e-005 0,-7.4409e-005 -7.46317e-005,-0.000223672 -0.000204959,-0.000223672 -0.000111836,0 -0.000186468,0 -0.0002611,5.59181e-005l0.000204959 -0.000559181c3.74273e-005,-5.59181e-005 0.000186468,-0.0002611 0.000242386,-0.000298304l-1.87136e-005 -3.72045e-005c-7.4409e-005,5.59181e-005 -0.000186245,0.000111836 -0.000242163,0.000149041 -7.46317e-005,3.72045e-005 -0.000149263,5.59181e-005 -0.000205182,7.46317e-005 0,3.72045e-005 3.74273e-005,7.4409e-005 3.74273e-005,0.000111836 0,1.87136e-005 0,3.72045e-005 -1.87136e-005,3.72045e-005l-0.000633813 0.00173368c-1.87136e-005,7.46317e-005 -7.46317e-005,0.000167754 -0.00013055,0.000223895 0.00013055,-3.74273e-005 0.000335509,-7.46317e-005 0.000335509,-7.46317e-005 -1.84909e-005,-3.74273e-005 -3.72045e-005,-7.46317e-005 -3.72045e-005,-0.000111836 0,-1.87136e-005 1.87136e-005,-3.74273e-005 1.87136e-005,-5.59181e-005l0.000354 -0.000932117c1.87136e-005,-5.59181e-005 0.00013055,-0.000111836 0.000205182,-0.000111836 9.31226e-005,0 0.00013055,0.000111836 0.00013055,0.000149041 0,3.72045e-005 -5.59181e-005,0.000167754 -5.59181e-005,0.000167754 -1.87136e-005,5.59181e-005 -0.000335509,0.000838995 -0.00041014,0.00109987 -5.59181e-005,0.000186468 -0.000111836,0.00041014 -0.000111836,0.000577895 0,7.46317e-005 1.84909e-005,0.00013055 3.72045e-005,0.000186468 5.59181e-005,0.000167754 0.0002611,0.000298304 0.000372936,0.000298304 0.000111836,0 0.000316795,-3.72045e-005 0.000335509,-0.000167754 0,-1.87136e-005 0,-1.87136e-005 0,-1.87136e-005 0,-1.87136e-005 0,-1.87136e-005 0,-1.87136e-005 -1.87136e-005,0 -1.87136e-005,1.87136e-005 -3.72045e-005,3.74273e-005 -1.87136e-005,5.59181e-005 -9.33454e-005,0.00013055 -0.000279813,0.00013055 -0.000186468,0 -0.000298304,-0.000205182 -0.000316795,-0.000317018 0,0 0,-1.87136e-005 0,-3.74273e-005 0,-0.000111836 7.46317e-005,-0.000335509 0.000130327,-0.000447345 3.74273e-005,-0.000130327 0.000503486,-0.00136075 0.000503486,-0.00136075 5.59181e-005,-0.00013055 5.59181e-005,-0.000186468 5.59181e-005,-0.000242386zm0.0107004 0.0102531c0,-5.59181e-005 -1.84909e-005,-9.31226e-005 -3.72045e-005,-0.000149263 -5.59181e-005,-9.31226e-005 -0.00013055,-0.000149041 -0.0002611,-0.000149041l-0.000354 0c-0.00013055,0 -0.0002611,5.59181e-005 -0.00041014,0.000149041 -0.000149263,0.000111836 -0.0002611,0.000223895 -0.000317018,0.000335731l-0.000950831 0.00193864c-1.84909e-005,7.46317e-005 -3.72045e-005,0.00013055 -3.72045e-005,0.000205182 0,3.72045e-005 0,9.31226e-005 3.72045e-005,0.000130327 3.74273e-005,0.000111836 0.00013055,0.000149263 0.0002611,0.000149263l0.000354222 0c0.00013055,0 0.000260877,-3.74273e-005 0.00041014,-0.000149263 0.000149041,-9.31226e-005 0.000242386,-0.000204959 0.000316795,-0.000335509l0.000932117 -0.00193864c3.74273e-005,-5.59181e-005 5.59181e-005,-0.00013055 5.59181e-005,-0.000186468zm0.00296411 0.00408581c0,-3.74273e-005 -1.87136e-005,-5.61409e-005 -1.87136e-005,-9.33454e-005 -3.72045e-005,-5.59181e-005 -9.31226e-005,-7.46317e-005 -0.000149041,-7.46317e-005l-0.000447568 0c-5.56953e-005,0 -0.000130327,1.87136e-005 -0.000223672,7.46317e-005 -7.4409e-005,5.59181e-005 -0.000149041,0.00013055 -0.000167754,0.000186468l-0.000484549 0.000969322c-1.87136e-005,3.72045e-005 -1.87136e-005,7.46317e-005 -1.87136e-005,0.000111836 0,3.72045e-005 0,5.59181e-005 1.87136e-005,7.46317e-005 1.84909e-005,5.59181e-005 7.46317e-005,9.31226e-005 0.000149041,9.31226e-005l0.000428854 0c7.4409e-005,0 0.000149041,-3.72045e-005 0.000223672,-9.31226e-005 9.31226e-005,-5.59181e-005 0.000149041,-0.000111836 0.000186468,-0.000186468l0.000466059 -0.000969322c1.84909e-005,-3.74273e-005 3.72045e-005,-7.46317e-005 3.72045e-005,-9.31226e-005zm3.72045e-005 0.00108116l-0.000260877 0 -0.00013055 0.000260877 0.000260877 0 0.00013055 -0.000260877zm-0.00814645 -0.0162962l-9.31226e-005 -7.4409e-005c-0.0002611,0.000167532 -0.00111859,0.000615099 -0.00152873,0.000615099 -0.000577895,0 -0.00102524,-0.000503263 -0.00109987,-0.000894913l-9.31226e-005 1.87136e-005c1.84909e-005,0.000186468 5.59181e-005,0.000279591 0.000186245,0.000540468 7.46317e-005,0.00013055 0.000279591,0.000372936 0.000372936,0.000578118 7.46317e-005,0.000149041 7.46317e-005,0.000298304 7.46317e-005,0.000354 0,1.87136e-005 0,1.87136e-005 0,3.74273e-005 0,0.000167754 -0.000186468,0.000708445 -0.000354222,0.00106267l-0.0017896 0.00391471c5.59181e-005,-0.000242386 0.000167754,-0.0014913 0.000223672,-0.00233029 0.000223672,-0.000466059 0.00054069,-0.00117428 0.000689731,-0.00158442 0.000223672,-0.00067124 0.000279591,-0.00104395 0.000298304,-0.00171519 0,-1.87136e-005 0,-3.72045e-005 0,-3.72045e-005 0,-0.000596608 -0.000223672,-0.000969322 -0.000484772,-0.000969322 -0.000149041,0 -0.000372713,0.000130327 -0.000447345,0.000279591 -0.000186468,0.000372713 -0.0002611,0.00119299 -0.000354222,0.00180832 -5.59181e-005,0.000409918 -9.31226e-005,0.00143538 -9.31226e-005,0.00206919l-0.00253547 0.00518234c-7.4409e-005,0.000149263 -0.000260877,0.000428854 -0.000428631,0.000615322l0.00106267 0c-3.74273e-005,-7.46317e-005 -5.61409e-005,-0.000186468 -5.61409e-005,-0.000298304 0,-0.000149263 1.87136e-005,-0.000298304 7.46317e-005,-0.00041014l0.00182681 -0.00400806c-3.72045e-005,0.000466059 -0.000130327,0.00109987 -0.000242163,0.00173368 -0.000149263,0.000913403 -0.000372936,0.00180832 -0.000428854,0.00206919 -0.000130327,0.00054069 -0.000764363,0.00203199 -0.000913403,0.00238621l0.00013055 0c0,0 0.000969322,-0.00221823 0.00130483,-0.00290819 0.000335509,-0.000689731 0.00303874,-0.0065618 0.00303874,-0.0065618 0.000149041,-0.000317018 0.000372713,-0.00054069 0.000596386,-0.000783076 0.000205182,-0.000260877 0.000745872,-0.000503263 0.00106267,-0.000689731zm0.00337425 0.00967517c0,0 -0.000149263,0.000167754 -0.0002611,0.000186468 -5.59181e-005,1.87136e-005 -0.00013055,1.87136e-005 -0.000186245,1.87136e-005 -5.61409e-005,0 -9.33454e-005,0 -9.33454e-005,0 -3.72045e-005,0.000260877 -0.000149041,0.000503263 -0.000149041,0.000503263 0,3.72045e-005 -5.59181e-005,0.000167754 -0.000149263,0.000372713l-0.000186468 0c0,0 -1.84909e-005,0.000149263 -3.72045e-005,0.000279813 -3.72045e-005,0.000111836 -0.000111836,0.000204959 -0.000111836,0.000204959l9.31226e-005 0c-0.000372713,0.000764363 -0.000876199,0.00177111 -0.000876199,0.00177111 -7.4409e-005,0.000130327 -0.000111836,0.000316795 -0.000111836,0.000465836 0,0.00013055 3.74273e-005,0.000242386 0.000149263,0.000242386 0.000186468,0 0.000391427,-9.31226e-005 0.000503263,-0.000279591l-5.59181e-005 -1.87136e-005c-7.46317e-005,7.46317e-005 -7.46317e-005,7.46317e-005 -0.000111836,7.46317e-005 -1.84909e-005,0 -5.59181e-005,-1.87136e-005 -5.59181e-005,-9.31226e-005 0,-7.46317e-005 1.87136e-005,-0.000205182 0.000111836,-0.000372936l0.000838995 -0.0017896 0.000223672 0 0.000167754 -0.000484772 -0.000167754 0c0.000149041,-0.000316795 0.000260877,-0.000559181 0.000279591,-0.000596386 9.31226e-005,-0.000186468 0.000186468,-0.000484772 0.000186468,-0.000484772zm0.00339274 0.0055399c0,-3.74273e-005 -1.87136e-005,-5.61409e-005 -1.87136e-005,-9.33454e-005 -3.72045e-005,-5.59181e-005 -9.31226e-005,-7.46317e-005 -0.000149041,-7.46317e-005l-0.000447345 0c-5.59181e-005,0 -0.00013055,1.87136e-005 -0.000223895,7.46317e-005 -7.4409e-005,5.59181e-005 -0.000149041,0.00013055 -0.000167532,0.000186468l-0.000484772 0.000969322c-1.87136e-005,3.72045e-005 -1.87136e-005,7.46317e-005 -1.87136e-005,0.000111836 0,3.72045e-005 0,5.59181e-005 1.87136e-005,7.46317e-005 1.84909e-005,5.59181e-005 7.46317e-005,9.31226e-005 0.000149041,9.31226e-005l0.000428854 0c7.4409e-005,0 0.000149041,-3.72045e-005 0.000223672,-9.31226e-005 9.33454e-005,-5.59181e-005 0.000149041,-0.000111836 0.000186468,-0.000186468l0.000111836 -0.000242386 -0.000317018 0 -5.59181e-005 0.00013055c-3.72045e-005,5.59181e-005 -5.59181e-005,7.46317e-005 -0.000111836,7.46317e-005l-0.000204959 0c-1.87136e-005,0 -3.72045e-005,-1.87136e-005 -3.72045e-005,-3.74273e-005 0,0 0,-1.84909e-005 0,-3.72045e-005l0.000372713 -0.000745649c1.87136e-005,-3.74273e-005 5.59181e-005,-5.59181e-005 9.31226e-005,-5.59181e-005l0.000205182 0c3.72045e-005,0 5.59181e-005,0 5.59181e-005,1.84909e-005 0,1.87136e-005 -1.87136e-005,3.74273e-005 -1.87136e-005,3.74273e-005l-7.4409e-005 0.000149041 0.000316795 0 0.00013055 -0.000260877c1.84909e-005,-3.74273e-005 3.72045e-005,-7.46317e-005 3.72045e-005,-9.31226e-005zm-0.00728896 -0.00876489l-0.00067124 0c3.74273e-005,7.46317e-005 5.61409e-005,0.000111836 5.61409e-005,0.000149041 0,3.74273e-005 0,5.59181e-005 -1.87136e-005,7.46317e-005 -3.74273e-005,5.59181e-005 -0.000279591,0.000596608 -0.000354222,0.000708445 -7.46317e-005,9.31226e-005 -0.000167754,0.000223672 -0.000205182,0.000223672 -3.72045e-005,0 -5.56953e-005,0 -5.56953e-005,-3.72045e-005 0,-3.74273e-005 0,-5.61409e-005 1.84909e-005,-9.33454e-005l0.000335509 -0.0011745c0,0 0,-3.72045e-005 0,-5.59181e-005 0,-1.84909e-005 0,-3.72045e-005 -1.84909e-005,-3.72045e-005 -3.72045e-005,0 -0.000111836,7.46317e-005 -0.000111836,7.46317e-005 0,0 -0.00054069,0.00100653 -0.000615322,0.00108116 -5.59181e-005,7.46317e-005 -9.31226e-005,0.000149041 -0.000130327,0.000149041 -1.87136e-005,0 -3.74273e-005,-1.84909e-005 -3.74273e-005,-5.59181e-005 0,-3.72045e-005 1.87136e-005,-7.4409e-005 3.74273e-005,-0.00013055 5.59181e-005,-0.000111836 0.000149041,-0.000484549 0.000204959,-0.000577672 5.59181e-005,-9.33454e-005 0.00013055,-0.000205182 0.000205182,-0.000279813 0,0 -0.000298304,0 -0.000503486,0 -0.000111836,0 -0.000186468,0 -0.000186468,0 7.46317e-005,0.000223672 7.46317e-005,0.000167977 7.46317e-005,0.000317018 0,0 0,0 0,1.87136e-005 0,0.000149041 -3.72045e-005,0.000316795 -0.000223672,0.000820058 -0.000167754,0.000521977 -0.000428631,0.00128634 -0.000484772,0.00141689 -5.59181e-005,0.000149041 -0.000204959,0.000335509 -0.000298304,0.000391427l0.000615322 0c-1.87136e-005,-3.72045e-005 -1.87136e-005,-7.4409e-005 -1.87136e-005,-0.00013055 0,-0.000111836 1.87136e-005,-0.000242163 0.000111836,-0.000428631 0.00013055,-0.0002611 0.000652527,-0.000988035 0.000652527,-0.000988035 0,0 -1.87136e-005,0.000801567 -0.000111836,0.000988035 -7.46317e-005,0.000167754 -0.000223672,0.000466059 -0.000298304,0.000559181l0.000577895 0c-1.84909e-005,-3.72045e-005 -3.72045e-005,-0.000111836 -3.72045e-005,-0.000186245 0,-0.000149263 1.87136e-005,-0.000298304 7.4409e-005,-0.00041014 7.46317e-005,-0.000149263 0.000186468,-0.000503486 0.00041014,-0.000894913 0.000242386,-0.00041014 0.000913626,-0.00136097 0.00100675,-0.0014913zm0.00274043 -0.000913626l-1.87136e-005 -5.56953e-005c-0.000111836,1.84909e-005 -0.000391427,0.000149041 -0.00054069,0.000149041 -0.000149041,0 -0.000354222,-9.33454e-005 -0.000391427,-0.00013055l-9.31226e-005 3.72045e-005c3.72045e-005,5.61409e-005 5.59181e-005,0.00013055 5.59181e-005,0.000205182 0,0.000111836 -3.74273e-005,0.000223672 -9.33454e-005,0.000354222l-0.00126763 0.00268429 -0.000671017 0 0.00124891 -0.00264709c7.46317e-005,-0.000167754 0.000242386,-0.000428631 0.000428854,-0.000503263l-3.72045e-005 -7.46317e-005c-9.33454e-005,1.87136e-005 -0.000317018,7.46317e-005 -0.000466281,7.46317e-005 -0.000130327,0 -0.000391427,-7.46317e-005 -0.000428631,-0.00013055l-9.33454e-005 5.59181e-005c5.61409e-005,7.46317e-005 7.46317e-005,0.000167754 7.46317e-005,0.000279591 0,7.46317e-005 -1.84909e-005,0.000167977 -5.59181e-005,0.0002611l-0.00346737 0.0074008c-0.000111836,0.000204959 -0.000447345,0.000652527 -0.000652527,0.000801567l0.00115579 0c-1.84909e-005,-5.59181e-005 -3.72045e-005,-0.000149041 -3.72045e-005,-0.000242386 0,-0.000186245 3.72045e-005,-0.000391427 0.000111836,-0.000559181l0.00193887 -0.0041199 0.000689731 0 -0.00193887 0.0041199c-9.31226e-005,0.000204959 -0.000335509,0.000596608 -0.000521977,0.000801567l0.00102524 0c-1.84909e-005,-5.59181e-005 -1.84909e-005,-0.000149041 -1.84909e-005,-0.000242386 0,-0.000186245 3.72045e-005,-0.000391427 0.000111836,-0.000559181l0.00344866 -0.00736359c7.46317e-005,-0.000149041 0.000317018,-0.000503263 0.000503486,-0.000596608zm-7.46317e-005 0.00523848c-0.000111836,0 -0.000242386,9.31226e-005 -0.000335509,0.000167754 -9.33454e-005,7.46317e-005 -0.000205182,0.000205182 -0.000205182,0.000205182 0,0 -7.46317e-005,-5.61409e-005 -7.46317e-005,-9.33454e-005 0,0 0,-1.84909e-005 1.87136e-005,-1.84909e-005 1.87136e-005,-5.61409e-005 5.59181e-005,-0.00013055 0.000186468,-0.000242386l-0.000521977 0c0,3.72045e-005 0,0.000111836 0,0.000186245 0,0.00013055 -1.87136e-005,0.000279813 -9.31226e-005,0.000447568l-0.000820281 0.00169648c-7.46317e-005,0.000149041 -0.000354222,0.000559181 -0.000428854,0.000615099l0.00067124 0c0,0 0,-1.87136e-005 0,-3.74273e-005 0,-0.000130327 3.72045e-005,-0.000354 0.000111836,-0.000521977l0.000652304 -0.00132354c7.46317e-005,-0.000149041 0.000149263,-0.000223672 0.000186468,-0.000279591 5.59181e-005,-5.59181e-005 0.000149263,-0.000130327 0.000205182,-0.000130327 3.72045e-005,0 0.000167754,5.56953e-005 0.000167754,0.000111836l0.000279591 -0.000783076zm-0.00484683 -0.00397063c0,-5.59181e-005 0,-9.33454e-005 -3.74273e-005,-0.000149263 -3.72045e-005,-9.31226e-005 -7.4409e-005,-0.000149041 -0.000204959,-0.000149041l-0.000354222 0c-0.00013055,0 -0.000242386,5.59181e-005 -0.000372713,0.000149041 -0.000149263,9.33454e-005 -0.000223895,0.000186468 -0.000298304,0.000335509l-0.000932117 0.00193887c-5.59181e-005,9.31226e-005 -7.46317e-005,0.000167754 -7.46317e-005,0.000223672 0,3.72045e-005 0,7.46317e-005 1.87136e-005,0.000111836 5.59181e-005,0.000111836 0.000111836,0.000149041 0.000242386,0.000149041l0.000354 0c0.00013055,0 0.000242386,-3.72045e-005 0.000372936,-0.000149041 0.000149041,-9.31226e-005 0.000223672,-0.000186468 0.000298304,-0.000335509l9.31226e-005 -0.000186468 0.000149263 -0.000223672 -0.000447568 -3.72045e-005 -5.59181e-005 0.000260877 -9.31226e-005 0.000205182c-3.72045e-005,7.4409e-005 -9.33454e-005,0.000111836 -0.000186468,0.000111836l-0.000279591 0c-5.59181e-005,0 -7.46317e-005,-1.87136e-005 -7.46317e-005,-5.59181e-005 0,-1.87136e-005 0,-3.74273e-005 1.87136e-005,-5.59181e-005l0.000447345 -0.000932117 0.000857485 5.59181e-005 0.000521977 -0.00108138c3.74273e-005,-7.4409e-005 3.74273e-005,-0.000130327 3.74273e-005,-0.000186245zm0.00728896 0.0085225c0,-3.74273e-005 -1.87136e-005,-5.61409e-005 -1.87136e-005,-7.46317e-005 -1.87136e-005,-0.000149041 -0.000111836,-0.000205182 -0.000279591,-0.000205182l-0.000447345 0 -0.000745872 0.00151001 0.000447568 0c0.000167754,0 0.000335509,-7.4409e-005 0.000503263,-0.000204959 0.000149263,-0.00013055 0.000279591,-0.000317018 0.000391427,-0.000559404 9.33454e-005,-0.000186245 0.000149263,-0.000335509 0.000149263,-0.000465836zm-0.00387751 -0.00402989c0,-1.87136e-005 0,-1.87136e-005 0,-1.87136e-005 -1.87136e-005,-0.000167754 -3.74273e-005,-0.000260877 -0.00013055,-0.000354 -9.31226e-005,-0.000112059 -0.000223672,-0.00013055 -0.000372713,-0.00013055 -0.000149263,0 -0.0002611,3.72045e-005 -0.00041014,0.000149041 -0.000149263,9.33454e-005 -0.0002611,0.000205182 -0.000317018,0.000335509l-0.000204959 0.000484772 0.000503263 0c0,-3.72045e-005 -1.87136e-005,-9.31226e-005 -1.87136e-005,-0.00013055 0,-7.4409e-005 1.87136e-005,-0.000167754 5.59181e-005,-0.000242386 3.72045e-005,-9.31226e-005 0.000167754,-0.000167754 0.000298304,-0.000167754 0.000111836,0 0.000149041,9.33454e-005 0.000149041,0.000223895 0,0.000130327 -5.56953e-005,0.000298081 -7.4409e-005,0.000372713l-0.000111836 0.0002611c-7.46317e-005,-5.61409e-005 -0.000167754,-7.46317e-005 -0.000279591,-7.46317e-005 -0.000205182,0 -0.000428854,7.46317e-005 -0.000578118,0.000167754 -0.000149041,0.000111836 -0.000242163,0.000223672 -0.000316795,0.000335509l-0.000335509 0.000708445c-3.72045e-005,7.4409e-005 -3.72045e-005,0.00013055 -3.72045e-005,0.000186468 0,9.31226e-005 3.72045e-005,0.000149041 5.56953e-005,0.000204959 7.46317e-005,7.46317e-005 0.000167977,0.00013055 0.000298304,0.00013055l0.000894913 0c-1.87136e-005,0 -1.87136e-005,-1.87136e-005 -1.87136e-005,-3.74273e-005 0,-0.000130327 5.59181e-005,-0.000335509 0.000111836,-0.000447345 0,0 0.000354222,-0.000726936 0.000372936,-0.000745649l0.000260877 -0.000615099c9.33454e-005,-0.000242386 0.000205182,-0.00039165 0.000205182,-0.000596608zm0.0023675 0.00375008l-0.000335509 0 -0.00111859 0.00151001 0.000354222 0 0.000223672 -0.000298081 0.000223672 0 -5.59181e-005 0.000298081 0.000335509 0 0.000372936 -0.00151001zm0.00180832 -0.00546505c-0.000112059,0 -0.000745872,0 -0.000969544,0.000242163 -0.000223672,0.000223672 -0.000298304,0.00041014 -0.000447345,0.000708445l-9.31226e-005 0.000223672 -0.000223672 0c0,0 0,0.000149263 -1.87136e-005,0.000279813 -3.74273e-005,0.000111836 -0.00013055,0.000204959 -0.00013055,0.000204959l0.000149263 0c-0.000372936,0.000782854 -0.000913626,0.00195736 -0.00108138,0.00231158 -0.00013055,0.000298304 -0.000484549,0.000932117 -0.000820058,0.00149442 -5.61409e-005,1.87136e-005 -9.33454e-005,3.74273e-005 -0.000149263,7.46317e-005 -7.46317e-005,5.59181e-005 -0.00013055,0.00013055 -0.000167754,0.000186468l-0.000391427 0.000801567c-3.74273e-005,3.72045e-005 -7.46317e-005,7.46317e-005 -9.33454e-005,0.000111836 -0.000167754,0.000167754 -0.000503263,0.000521977 -0.00106244,0.000801567 -0.000521977,0.000242386 -0.00115579,0.000335509 -0.00160336,0.000335509 -0.000466059,0 -0.000988035,-7.4409e-005 -0.00128634,-0.000167754 -0.000167532,-5.59181e-005 -0.000484549,-0.000186245 -0.000726936,-0.000316795 -0.000167754,-9.31226e-005 -0.000298304,-0.000186468 -0.000372713,-0.0002611 -7.46317e-005,-3.72045e-005 -0.000167977,-0.000130327 -0.000279813,-0.000242163l0 -0.000428854c7.46317e-005,-3.74273e-005 0.000167977,-9.31226e-005 0.000242386,-0.000167754 7.46317e-005,-7.46317e-005 0.000149263,-0.000167754 0.000186468,-0.0002611 3.72045e-005,-7.4409e-005 5.59181e-005,-0.000149041 5.59181e-005,-0.000204959 0,-5.59181e-005 0,-9.31226e-005 -1.87136e-005,-0.00013055 -3.72045e-005,-9.31226e-005 -0.000111836,-0.00013055 -0.000223672,-0.00013055l-0.000521977 0 -0.000167754 0.000317018c0,-1.87136e-005 0,-5.59181e-005 0,-7.46317e-005 0,-0.000149041 1.87136e-005,-0.000263996 7.46317e-005,-0.000357341 0.000223672,-0.000466059 0.00041014,-0.000577895 0.000503263,-0.000652304 5.59181e-005,-3.74273e-005 7.46317e-005,-5.61409e-005 7.46317e-005,-7.46317e-005 0,0 -1.87136e-005,0 -1.87136e-005,0 -1.84909e-005,0 -5.59181e-005,1.84909e-005 -9.31226e-005,3.72045e-005 -5.59181e-005,1.87136e-005 -0.000205182,0.000149263 -0.000335509,0.000317018 -0.000111836,0.000149041 -0.000205182,0.000316795 -0.000242386,0.000391427 -3.74273e-005,7.46317e-005 -7.46317e-005,0.000208078 -7.46317e-005,0.000394546 0,7.46317e-005 1.87136e-005,0.000149263 1.87136e-005,0.000223672l-0.000484772 0.000988035 0.000335509 0 0.000279591 -0.000559181c0,1.87136e-005 1.87136e-005,5.59181e-005 1.87136e-005,7.46317e-005l1.87136e-005 1.84909e-005 0 0.000466059 0.000372713 0c3.74273e-005,3.74273e-005 7.46317e-005,7.46317e-005 0.000111836,9.33454e-005 0.00013055,0.000111836 0.000205182,0.000186245 0.000317018,0.000260877 0.000298304,0.000186468 0.000521977,0.000279591 0.000838772,0.00039165 0.000428854,0.000167532 0.000838995,0.000223672 0.00132377,0.000223672 0.000279591,0 0.000708222,-5.61409e-005 0.00106244,-0.00013055 0.0002611,-5.59181e-005 0.000466059,-0.00013055 0.000596608,-0.000186468 0.000242386,-0.000111836 0.000764363,-0.000447345 0.00108116,-0.000745649l0 0c1.87136e-005,5.59181e-005 7.46317e-005,9.31226e-005 0.000149263,9.31226e-005l0.000428631 0c7.46317e-005,0 0.000149263,-3.72045e-005 0.000223895,-9.31226e-005 9.31226e-005,-5.59181e-005 0.000149041,-0.000111836 0.000186245,-0.000186468l0.000466059 -0.000969322c1.87136e-005,-3.74273e-005 3.72045e-005,-7.46317e-005 3.72045e-005,-9.31226e-005 0,-3.74273e-005 -1.84909e-005,-5.61409e-005 -1.84909e-005,-9.33454e-005 -3.72045e-005,-5.59181e-005 -9.33454e-005,-7.46317e-005 -0.000149041,-7.46317e-005l-0.000223895 0c0.000205182,-0.000301423 0.000372936,-0.000543586 0.000447568,-0.000674136 0.000204959,-0.000335509 0.00041014,-0.000633813 0.000540468,-0.000876199 7.46317e-005,-0.000186468 0.000671017,-0.0014913 0.00100675,-0.00225566l0.000186245 0c0,0 0,0 0,0 0,-1.87136e-005 0,-0.000149263 3.74273e-005,-0.000242386 3.72045e-005,-9.31226e-005 0.000167754,-0.000242386 0.000167754,-0.000242386l-0.000186468 0 1.87136e-005 -5.59181e-005c9.31226e-005,-0.000223672 0.000354222,-0.000652527 0.000615099,-0.000652527 0.000242386,0 0.000223895,1.87136e-005 0.000298304,0.000149263 3.74273e-005,-0.000149263 3.74273e-005,-0.000242386 7.46317e-005,-0.000335509 3.72045e-005,-9.31226e-005 7.46317e-005,-0.000223672 0.00013055,-0.000279591zm-0.00736359 0.000354l-3.72045e-005 -1.84909e-005c-3.74273e-005,3.72045e-005 -0.0002611,0.000391427 -0.000354445,0.000466059 -9.31226e-005,7.4409e-005 -0.000279368,0.000186245 -0.000372713,0.000204959 -0.000111836,1.87136e-005 -0.000223672,1.87136e-005 -0.000316795,1.87136e-005 -7.46317e-005,0 -0.000149263,0 -0.000223895,-1.87136e-005 -7.4409e-005,0 -0.00013055,-5.59181e-005 -0.000167754,-9.31226e-005 -3.72045e-005,-3.74273e-005 -7.46317e-005,-5.59181e-005 -7.46317e-005,-9.31226e-005l-1.84909e-005 -5.61409e-005c-1.87136e-005,-1.84909e-005 -1.87136e-005,-5.56953e-005 -1.87136e-005,-7.4409e-005 0,-7.46317e-005 3.72045e-005,-0.000186468 9.33454e-005,-0.0002611 5.56953e-005,-7.46317e-005 0.000130327,-0.000111836 0.000204959,-0.000111836 1.87136e-005,0 3.72045e-005,0 5.59181e-005,1.87136e-005 0.000111836,1.84909e-005 0.000186468,5.59181e-005 0.000204959,0.000149041 0,0 0,5.59181e-005 0,0.000111836 0,5.59181e-005 0,0.000112059 -3.72045e-005,0.000112059 -1.84909e-005,1.84909e-005 -3.72045e-005,1.84909e-005 -7.46317e-005,1.84909e-005 -5.56953e-005,0 -0.000111836,-5.59181e-005 -0.000130327,-0.00013055 0,0 0,0 -1.87136e-005,0 -1.87136e-005,0 -3.72045e-005,1.87136e-005 -3.72045e-005,3.74273e-005 0,0 0,0 0,0 1.84909e-005,7.46317e-005 7.4409e-005,0.000149041 0.000167754,0.000149041 1.84909e-005,0 5.59181e-005,0 9.31226e-005,-1.87136e-005 7.46317e-005,-3.72045e-005 9.33454e-005,-0.000111836 9.33454e-005,-0.000204959 0,-3.72045e-005 0,-9.33454e-005 0,-0.000111836 -1.87136e-005,-0.000111836 -0.000111836,-0.000149041 -0.000223672,-0.000167754 -1.87136e-005,-1.87136e-005 -3.74273e-005,-1.87136e-005 -5.61409e-005,-1.87136e-005 -9.31226e-005,0 -0.000204959,5.59181e-005 -0.000298304,0.000167754 -5.56953e-005,7.46317e-005 -9.31226e-005,0.000186468 -9.31226e-005,0.000279813 0,3.72045e-005 0,5.56953e-005 0,9.31226e-005l1.87136e-005 3.72045e-005c1.87136e-005,5.59181e-005 5.59181e-005,7.46317e-005 9.31226e-005,0.000111836 1.87136e-005,1.87136e-005 5.59181e-005,5.59181e-005 7.46317e-005,7.46317e-005 7.46317e-005,5.59181e-005 0.000186468,7.46317e-005 0.000316795,7.46317e-005 9.33454e-005,0 0.000186468,-1.87136e-005 0.000298304,-3.74273e-005 0,0 0,0 0,0 7.46317e-005,0 0.00013055,7.46317e-005 0.00013055,0.000167754 0,3.74273e-005 -1.87136e-005,9.33454e-005 -3.72045e-005,0.00013055l-0.000242386 0.000521977c0,-7.46317e-005 -0.000167754,-0.00013055 -0.000335509,-0.00013055 -0.000149263,0 -0.000298304,0.000149263 -0.000354222,0.000298304l-0.000205182 0.00054069c-1.84909e-005,5.59181e-005 -3.72045e-005,0.00013055 -3.72045e-005,0.000186468 0,9.31226e-005 3.72045e-005,0.000167754 0.00013055,0.000167754l0.000671017 0c-3.72045e-005,-3.72045e-005 -3.72045e-005,-7.46317e-005 -3.72045e-005,-0.000111836 0,-5.59181e-005 1.84909e-005,-9.33454e-005 3.72045e-005,-0.000167977 0,0 0.000354222,-0.000820058 0.000484772,-0.00109965 0.000149041,-0.000279813 0.000298304,-0.000578118 0.000372713,-0.000708445 9.33454e-005,-0.00013055 0.000223895,-0.000447345 0.0002611,-0.000503486zm0.00296411 0.00537215c0,-5.59181e-005 0,-9.31226e-005 -1.87136e-005,-0.00013055 -3.72045e-005,-9.31226e-005 -0.000111836,-0.00013055 -0.000242386,-0.00013055l-0.000503263 0 -0.000745649 0.00151001 0.000335509 0 0.0002611 -0.000559181 3.72045e-005 0 1.84909e-005 0.000559181 0.000372936 0 -1.87136e-005 -0.000615099c9.33454e-005,-3.74273e-005 0.000186468,-9.31226e-005 0.0002611,-0.000167754 7.46317e-005,-7.46317e-005 0.000149041,-0.000167754 0.000186468,-0.0002611 3.72045e-005,-7.4409e-005 5.59181e-005,-0.000149041 5.59181e-005,-0.000204959zm-0.00494018 -0.00376879c0,-9.31226e-005 -7.46317e-005,-0.000205182 -0.000186468,-0.000205182 -0.000149041,0 -0.000521977,1.87136e-005 -0.000521977,1.87136e-005 0,9.33454e-005 -5.59181e-005,0.000242386 -5.59181e-005,0.000242386 -1.84909e-005,7.46317e-005 -0.000335509,0.000764363 -0.000335509,0.000764363 -3.74273e-005,5.59181e-005 -0.000111836,0.000167754 -0.00013055,0.000186245l0.000354222 0c0,-1.84909e-005 0,-3.72045e-005 0,-7.4409e-005 0,-5.59181e-005 0,-0.000111836 1.87136e-005,-0.00013055l0.000298304 -0.000689731c3.72045e-005,-5.59181e-005 7.4409e-005,-0.00013055 0.000167754,-0.00013055 7.4409e-005,0 0.00013055,5.59181e-005 0.00013055,0.000111836 0,1.87136e-005 0,1.87136e-005 0,3.74273e-005l-0.00039165 0.000801567c-7.46317e-005,0.00013055 -0.000167754,0.000466059 -0.000186468,0.000559181 0,0 0,0 0,1.87136e-005 0,9.31226e-005 3.74273e-005,0.000242163 9.33454e-005,0.000298304 7.46317e-005,5.59181e-005 0.000167754,0.000130327 0.000279591,0.000130327 7.46317e-005,0 0.000223672,-5.59181e-005 0.000260877,-7.4409e-005 1.87136e-005,0 3.74273e-005,-1.87136e-005 3.74273e-005,-3.74273e-005 0,0 -1.87136e-005,-1.84909e-005 -1.87136e-005,-1.84909e-005 -1.87136e-005,0 -1.87136e-005,0 -1.87136e-005,1.84909e-005 -5.56953e-005,1.87136e-005 -0.000167754,3.74273e-005 -0.000223672,3.74273e-005 -5.59181e-005,0 -0.000149041,-3.74273e-005 -0.000186468,-9.33454e-005 -1.84909e-005,-1.87136e-005 -5.56953e-005,-0.00013055 -5.56953e-005,-0.000223672 0,-3.72045e-005 0,-7.4409e-005 1.84909e-005,-9.31226e-005 1.87136e-005,-0.000111836 0.000149263,-0.00041014 0.000205182,-0.000521977 5.59181e-005,-0.000111836 0.00041014,-0.000820281 0.00041014,-0.000820281 1.84909e-005,-1.87136e-005 3.72045e-005,-5.59181e-005 3.72045e-005,-0.000111836zm0.00326219 0.00350769l-0.000316795 0 -0.000745649 0.00151001 0.000857485 0 0.000149263 -0.000335509 -0.000503486 0 0.000559181 -0.0011745zm-0.00432485 -0.00348898c0,-9.33454e-005 -5.59181e-005,-0.000205182 -0.000260877,-0.000205182 -0.000242386,0 -0.000372936,0 -0.000484772,5.59181e-005l-3.72045e-005 0.000223672c0.000186245,-9.31226e-005 0.000242386,-0.00013055 0.000354222,-0.00013055 0.000111836,0 0.000167754,9.33454e-005 0.000167754,0.000167977 0,1.84909e-005 0,3.72045e-005 0,5.59181e-005 -3.74273e-005,9.31226e-005 -5.59181e-005,0.000149041 -5.59181e-005,0.000149041 0,0 -9.33454e-005,-5.59181e-005 -0.000186468,-5.59181e-005 -0.000111836,0 -0.000391427,3.72045e-005 -0.000503263,0.0002611 -1.87136e-005,5.56953e-005 -3.74273e-005,0.000111836 -3.74273e-005,0.000167532 0,0.000149263 0.000111836,0.000279813 0.0002611,0.000279813l0.000484549 0c0,-1.87136e-005 0,-1.87136e-005 0,-3.72045e-005 0,-1.87136e-005 0,-3.74273e-005 0,-5.61409e-005 0,-5.59181e-005 0,-9.31226e-005 3.74273e-005,-0.000186468l0.000223672 -0.000521754c1.87136e-005,-3.74273e-005 3.72045e-005,-9.33454e-005 3.72045e-005,-0.000167754zm0.00348608 0.00348898l-0.000335509 0 -0.000727158 0.00151001 0.000317018 0 0.000745649 -0.00151001zm-0.00108116 0l-0.000317018 0 -0.00111859 0.00151001 0.000354445 0 0.000223672 -0.000298081 0.000223672 0 -7.46317e-005 0.000298081 0.000354222 0 0.000354222 -0.00151001zm0.00686011 -0.0123441c0,1.87136e-005 0,3.74273e-005 -1.87136e-005,7.46317e-005l-0.000820058 0.00169648c-7.46317e-005,0.000130327 -0.000242386,0.000204959 -0.000391427,0.000204959 -9.33454e-005,0 -0.000167977,-3.72045e-005 -0.000167977,-0.000130327 0,-1.87136e-005 0,-5.61409e-005 1.87136e-005,-7.46317e-005l0.000820281 -0.00169648c7.46317e-005,-0.000130327 0.000242386,-0.000223672 0.000372936,-0.000223672 9.31226e-005,0 0.000186245,5.59181e-005 0.000186245,0.000149041zm0.00154722 0.00423173c0,1.87136e-005 -1.84909e-005,5.59181e-005 -3.72045e-005,9.33454e-005l-0.000298304 0.000633813 -0.000521977 -3.74273e-005 0.000298304 -0.000596386c3.72045e-005,-9.33454e-005 0.00013055,-0.000167754 0.000205182,-0.000167754l0.000279591 0c5.59181e-005,0 7.4409e-005,1.84909e-005 7.4409e-005,7.4409e-005zm-0.00635684 -0.00434357c0,1.87136e-005 0,5.61409e-005 -1.84909e-005,9.33454e-005l-0.000317018 0.000652304 -0.000503263 -3.72045e-005 0.000298304 -0.000615099c3.72045e-005,-7.46317e-005 0.000111836,-0.000167754 0.000186245,-0.000167754l0.000298304 0c3.74273e-005,0 5.59181e-005,3.72045e-005 5.59181e-005,7.4409e-005zm-0.00227415 -0.0021064c0,3.72045e-005 0,7.46317e-005 0,0.000111836 -1.87136e-005,0.000149041 -5.61409e-005,0.000484772 -0.000167977,0.000820281 -0.000149041,0.000484549 -0.000391427,0.00100653 -0.000540468,0.00130483 1.84909e-005,-0.000428854 5.59181e-005,-0.00111836 0.000111836,-0.00169648 3.72045e-005,-0.00041014 0.000149041,-0.00100653 0.000167754,-0.00104395 1.87136e-005,-0.000111836 0.000149041,-0.000223672 0.000223672,-0.000223672 0.000111836,0 0.000205182,0.00039165 0.000205182,0.000727158zm0.0107563 0.0108122c0,3.72045e-005 -1.87136e-005,0.000111836 -5.59181e-005,0.000167754l-0.000783076 0.00171497c-7.4409e-005,0.000149263 -0.000298081,0.000223895 -0.000428631,0.000223895 -0.000111836,0 -0.000205182,-9.33454e-005 -0.000205182,-0.000186468 0,-1.87136e-005 0,-5.59181e-005 1.87136e-005,-7.46317e-005l0.000876199 -0.0017896c5.59181e-005,-0.00013055 0.000204959,-0.0002611 0.000335509,-0.0002611 0.000149263,0 0.000242386,7.46317e-005 0.000242386,0.000205182zm-0.0122104 -0.010309c0,3.72045e-005 -9.33454e-005,0.000242386 -0.00013055,0.000298304l-0.0002611 0c0,0 5.61409e-005,-0.000204959 9.33454e-005,-0.000279591 5.59181e-005,-7.46317e-005 0.000111836,-0.00013055 0.000167754,-0.00013055 5.59181e-005,0 0.00013055,5.59181e-005 0.00013055,0.000111836zm0.00669235 0.00723304c0,1.87136e-005 0,5.59181e-005 -1.84909e-005,7.46317e-005l-0.0002611 0.00054069c-7.46317e-005,0.000149041 -0.000279591,0.000223672 -0.000428854,0.000223672 -9.31226e-005,0 -0.000204959,-9.33454e-005 -0.000204959,-0.000186468 0,-3.72045e-005 0,-5.59181e-005 1.84909e-005,-7.46317e-005l0.000242609 -0.000503263c7.4409e-005,-0.00013055 0.000316795,-0.0002611 0.000447345,-0.0002611 9.31226e-005,0 0.000204959,7.46317e-005 0.000204959,0.000186468zm0.00275892 0.00315057c0,1.84909e-005 0,3.72045e-005 -1.84909e-005,7.46317e-005l-0.000820281 0.00169626c-7.46317e-005,0.00013055 -0.000242386,0.000205182 -0.000391427,0.000205182 -9.33454e-005,0 -0.000167754,-3.74273e-005 -0.000167754,-0.00013055 0,-1.87136e-005 0,-5.59181e-005 1.84909e-005,-7.46317e-005l0.000820281 -0.00169626c7.46317e-005,-0.00013055 0.000242386,-0.000223895 0.000372936,-0.000223895 9.31226e-005,0 0.000186245,5.59181e-005 0.000186245,0.000149263zm0.00305745 0.00401096c0,1.87136e-005 -1.87136e-005,3.74273e-005 -1.87136e-005,3.74273e-005l-0.000354222 0.000745649c-3.72045e-005,5.59181e-005 -5.59181e-005,7.46317e-005 -0.000111836,7.46317e-005l-0.000204959 0c-1.87136e-005,0 -3.74273e-005,-1.87136e-005 -3.74273e-005,-3.74273e-005 0,0 0,-1.84909e-005 0,-3.72045e-005l0.000372936 -0.000745649c1.84909e-005,-3.74273e-005 5.59181e-005,-5.59181e-005 9.31226e-005,-5.59181e-005l0.000205182 0c3.72045e-005,0 5.59181e-005,0 5.59181e-005,1.84909e-005zm-0.0107938 -0.00844787c0,1.87136e-005 -1.87136e-005,5.59181e-005 -3.72045e-005,9.33454e-005l-0.000317018 0.000633813 -0.000503263 -3.74273e-005 0.000298304 -0.000596386c3.72045e-005,-9.33454e-005 0.000130327,-0.000167754 0.000204959,-0.000167754l0.000279813 0c5.56953e-005,0 7.4409e-005,1.84909e-005 7.4409e-005,7.4409e-005zm0.00728896 0.00854121c0,5.59181e-005 -3.72045e-005,0.000167754 -0.000111836,0.000316795 -0.000130327,0.000298304 -0.000260877,0.000428854 -0.000391427,0.000428854l-0.000111836 0 0.00041014 -0.000857485 0.000111836 0c5.59181e-005,0 9.31226e-005,3.72045e-005 9.31226e-005,0.000111836zm-0.00165905 0.000316795l-5.59181e-005 0.00013055 -5.59181e-005 0 0.000111836 -0.00013055zm-0.00270323 -0.0032281c0,1.87136e-005 -1.84909e-005,5.59181e-005 -1.84909e-005,7.46317e-005l-0.000260877 0.000540468c-7.46317e-005,0.000149263 -0.000298304,0.000223895 -0.000428854,0.000223895 -0.000111836,0 -0.000205182,-9.33454e-005 -0.000205182,-0.000186468 0,-1.87136e-005 0,-5.59181e-005 1.87136e-005,-7.46317e-005l0.000242386 -0.000503263c5.59181e-005,-0.00013055 0.000316795,-0.0002611 0.000428631,-0.0002611 0.000111836,0 0.000223672,9.33454e-005 0.000223672,0.000186468zm0.00169648 0.00281796c0,1.87136e-005 0,3.74273e-005 -1.87136e-005,3.74273e-005l-0.000354 0.000745649c-1.87136e-005,5.59181e-005 -5.59181e-005,7.46317e-005 -0.000111836,7.46317e-005l-0.000205182 0c-1.84909e-005,0 -3.72045e-005,-1.87136e-005 -3.72045e-005,-3.74273e-005 0,0 0,-1.84909e-005 0,-3.72045e-005l0.000204959 -0.000391427 3.74273e-005 -5.59181e-005 0.000260877 -0.000354222 0.000167754 0c3.72045e-005,0 5.59181e-005,0 5.59181e-005,1.84909e-005zm-0.00143538 5.61409e-005c0,1.84909e-005 0,5.59181e-005 -1.87136e-005,7.4409e-005 -1.84909e-005,5.59181e-005 -3.72045e-005,9.33454e-005 -7.4409e-005,0.000111836 -3.74273e-005,3.74273e-005 -7.46317e-005,3.74273e-005 -9.33454e-005,3.74273e-005l-0.000186468 0 0.000149263 -0.000298304 0.000186468 0c1.84909e-005,0 3.72045e-005,1.84909e-005 3.72045e-005,5.59181e-005 0,0 0,1.87136e-005 0,1.87136e-005zm-0.00369104 -0.00378751c0,3.72045e-005 -1.87136e-005,7.46317e-005 -3.74273e-005,0.00013055l-0.000167754 0.000428631c-5.59181e-005,0.00013055 -0.00013055,0.000167754 -0.000260877,0.000167754 -9.33454e-005,0 -0.00013055,-5.59181e-005 -0.00013055,-0.00013055 0,-1.84909e-005 0,-5.56953e-005 1.87136e-005,-9.31226e-005l0.000186468 -0.000466059c3.72045e-005,-7.46317e-005 7.4409e-005,-0.000149041 0.000204959,-0.000149041 0.000111836,0 0.000186468,3.72045e-005 0.000186468,0.000111836zm-0.0023675 0.000428854c0,1.84909e-005 0,1.84909e-005 0,3.72045e-005 -1.87136e-005,3.72045e-005 -9.33454e-005,0.000223672 -9.33454e-005,0.000223672l-0.000149041 0c-7.46317e-005,0 -0.000111836,-7.46317e-005 -0.000111836,-0.000167754 0,-1.87136e-005 0,-5.59181e-005 1.87136e-005,-7.46317e-005 1.84909e-005,-5.59181e-005 0.000111836,-9.31226e-005 0.000223672,-9.31226e-005 7.4409e-005,0 0.000111836,3.72045e-005 0.000111836,7.46317e-005zm0.00231158 0.00371265l-3.72045e-005 0.00013055 -5.61409e-005 0 9.33454e-005 -0.00013055zm-0.00111859 -0.000354c0,1.84909e-005 -1.87136e-005,5.59181e-005 -1.87136e-005,7.4409e-005 -3.72045e-005,5.59181e-005 -5.59181e-005,9.33454e-005 -9.31226e-005,0.000111836 -3.72045e-005,3.74273e-005 -5.59181e-005,3.74273e-005 -9.31226e-005,3.74273e-005l-0.000186468 0 0.000149041 -0.000298304 0.000186468 0c1.87136e-005,0 3.72045e-005,1.84909e-005 5.59181e-005,5.59181e-005 0,0 0,1.87136e-005 0,1.87136e-005z"/>
  </g>
 </g>
</svg>
