<?xml version="1.0" encoding="UTF-8"?>
<!DOCTYPE svg PUBLIC "-//W3C//DTD SVG 1.1//EN" "http://www.w3.org/Graphics/SVG/1.1/DTD/svg11.dtd">
<!-- Creator: CorelDRAW -->
<svg xmlns="http://www.w3.org/2000/svg" xml:space="preserve" width="0.506929in" height="0.506929in" style="shape-rendering:geometricPrecision; text-rendering:geometricPrecision; image-rendering:optimizeQuality; fill-rule:evenodd; clip-rule:evenodd"
viewBox="0 0 0.0285311 0.0285311"
 xmlns:xlink="http://www.w3.org/1999/xlink">
 <defs>
  <style type="text/css">
   <![CDATA[
    .str0 {stroke:black;stroke-width:0.000389986}
    .fil0 {fill:white}
    .fil1 {fill:#117949}
    .fil2 {fill:#FEFEFE;fill-rule:nonzero}
   ]]>
  </style>
 </defs>
 <g id="Layer_x0020_1">
  <metadata id="CorelCorpID_0Corel-Layer"/>
  <g id="RWO_x0020_logo">
   <circle id="_297315096" class="fil0 str0" cx="0.0142655" cy="0.0142655" r="0.0140705"/>
   <path id="Clover" class="fil1" d="M0.0135547 0.0118161l0 3.81123e-005c0,0 -6.66965e-005,-2.21583e-007 -0.000197874,-2.1272e-005 -0.000373811,-6.02706e-005 -0.00127211,-0.000292047 -0.0026508,-0.00118414 -0.00186263,-0.00120519 -0.00330602,-0.00261535 -0.00339665,-0.003659 -9.06275e-005,-0.00104388 0.000438292,-0.0018192 0.00153402,-0.00192866 0.00109573,-0.000109684 0.00194794,-0.000292047 0.00194794,-0.000292047 0,0 0.000655,-0.000897412 0.00114005,-0.00114005 0.000485267,-0.000242634 0.00133437,-0.000873259 0.00177089,-0.00050942 0.00043674,0.00036384 0.00116442,0.000533794 0.00126147,0.00261978 9.70534e-005,0.00208621 -0.00043674,0.00572504 -0.00043674,0.00572504 0,0 0.000885446,-0.00156482 0.00129803,-0.00226813 0.000412366,-0.000703527 0.00140683,-0.00247442 0.00240152,-0.0032021 0.000994465,-0.000727679 0.00184357,-0.000849107 0.00230447,-0.000485267 0.000460893,0.000364061 0.00080058,0.00101884 0.00104321,0.00208621 0.000242412,0.00106737 0.000218259,0.00121295 0.000654778,0.00167384 0.00043674,0.000460893 0.00138268,0.00126147 0.00140705,0.00211036 2.43741e-005,0.000849107 -0.000703527,0.00152826 -0.00143121,0.00179527 -0.000727679,0.000266786 -0.00160094,0.000387992 -0.00264415,0.000194107 -0.00104321,-0.000194107 -0.00407536,-0.000533794 -0.00407536,-0.000533794 0,0 0.00114005,0.000460893 0.00177089,0.000849107 0.000630626,0.000387992 0.00220741,0.00126125 0.00278951,0.00184357 0.000582321,0.000582099 0.00135853,0.0012371 0.0013829,0.00242567 2.41526e-005,0.00118879 -0.000776427,0.00123732 -0.00128585,0.00155263 -0.00050942,0.000315313 -0.0020133,0.00029116 -0.0020133,0.00029116 0,0 -0.000446933,0.00049546 -0.000914917,0.000914695 -0.000467762,0.000419457 -0.000807449,0.000686243 -0.00177776,0.000686243 -0.000970313,0 -0.00135853,-0.000242634 -0.00172237,-0.00094616 -0.00036384,-0.000703305 -0.000533572,-0.00162509 -0.000485046,-0.00237714 4.85267e-005,-0.000752053 0.000218259,-0.00145558 0.00036384,-0.00198915 0.00014558,-0.000533794 0.000218259,-0.00138268 0.000218259,-0.00138268 0,0 -0.000242634,0.000460893 -0.000388214,0.000970313 -0.000145359,0.00050942 -0.000606252,0.00191625 -0.000848885,0.00269268 -0.000242634,0.000776206 -0.000849107,0.00213451 -0.00101884,0.00276536 -0.000169954,0.000630626 -0.000752053,0.00203768 -0.00101884,0.0025471 -0.000267008,0.00050942 -0.000655,0.0012371 -0.000776427,0.00145536 -0.000121206,0.000218481 -0.00036384,0.000388214 -0.00036384,0.000388214 0,0 -0.000970313,-0.00118879 -0.00135853,-0.00135853 -0.000387992,-0.000169733 -0.000873038,0.000121428 -0.000485046,-0.000387992 0.000388214,-0.00050942 0.00208621,-0.00252295 0.00235299,-0.00298384 0.000267008,-0.000460893 0.00140705,-0.00230447 0.00167384,-0.00283826 0.000266786,-0.000533572 0.00162531,-0.00329893 0.00162531,-0.00329893 0,0 -0.000242634,0.000145359 -0.000655,0.000848885 -0.000412366,0.000703527 -0.000873259,0.00179527 -0.00150389,0.00245005 -0.000630847,0.000655 -0.00128585,0.00123732 -0.00218326,0.00128585 -0.000897633,4.85267e-005 -0.00140705,-0.000388214 -0.00155263,-0.000703527 -0.00014558,-0.000315313 -0.000582099,-0.00242589 -0.000582099,-0.00242589 0,0 -0.000727901,-0.000727679 -0.00111589,-0.00111589 -0.000388214,-0.000387992 -0.00080058,-0.000921786 -0.000703527,-0.00162509 9.70534e-005,-0.000703527 0.00036384,-0.00155263 0.00155263,-0.00177089 0.00118857,-0.000218481 0.00232862,-0.000388214 0.00329893,-0.000194107 0.000970534,0.000194107 0.000970534,0.000194107 0.000970534,0.000194107 0,0 0.000945939,0.000121206 0.00140683,0.000218259 0.000330159,6.95771e-005 0.000914031,3.94418e-005 0.00121915,1.68403e-005 0.000120763,-9.08491e-006 0.000197874,-1.68403e-005 0.000197874,-1.68403e-005z"/>
   <path id="R" class="fil2" d="M0.0107381 0.0150187l-0.00120763 0.000470421c-7.91052e-005,-0.000109019 -0.00015821,-0.000214271 -0.000236651,-0.00031487 -7.91052e-005,-9.92693e-005 -0.000160869,-0.000192556 -0.000244406,-0.000277644 0.000298029,-0.00051363 0.000575008,-0.000917133 0.000832045,-0.00121095 0.000256593,-0.000295149 0.000486818,-0.000481722 0.000692891,-0.000560605 4.2544e-005,-1.66187e-005 8.02131e-005,-2.3931e-005 0.000113229,-2.08288e-005 3.4567e-005,3.54533e-006 6.78045e-005,1.63972e-005 0.000101485,4.01066e-005 3.36806e-005,2.37094e-005 7.15714e-005,5.78332e-005 0.000112564,0.000103258l8.95196e-005 -3.47886e-005 -0.000520277 -0.00133526 -8.95196e-005 3.47886e-005c7.97699e-006,8.64174e-005 6.6475e-007,0.000161756 -2.08288e-005,0.000226458 -2.19367e-005,6.62534e-005 -5.62821e-005,0.000126081 -0.000101042,0.000181698 -4.56461e-005,5.56174e-005 -0.000101042,0.000111678 -0.000165301,0.000167295 -6.40375e-005,5.56174e-005 -0.000134501,0.000117439 -0.000211169,0.000185244 -0.000169954,0.000152228 -0.000334591,0.000318193 -0.000497011,0.000496789 -0.000160648,0.000179039 -0.00031487,0.000369158 -0.000461336,0.000572128 -0.00014691,0.000202084 -0.00028407,0.000413696 -0.000409264,0.000634171 -0.000189675,-0.000156659 -0.000362953,-0.000280524 -0.000522493,-0.000371817 -0.000157989,-9.04059e-005 -0.000310438,-0.000145137 -0.000454246,-0.000165079 -0.000144694,-1.83914e-005 -0.000290717,4.43166e-007 -0.000438735,5.80548e-005 -0.000214936,8.37584e-005 -0.000347886,0.000221362 -0.000399736,0.000412145 -5.2072e-005,0.000190783 -2.14936e-005,0.000432752 9.17354e-005,0.000723469l0.000953251 0.00244694 8.95196e-005 -3.47886e-005c-2.9249e-005,-9.41729e-005 -3.87771e-005,-0.000175051 -2.659e-005,-0.000241082 1.3295e-005,-6.6475e-005 4.45382e-005,-0.000125194 9.52808e-005,-0.000174386 5.07425e-005,-4.9413e-005 0.000120098,-9.48376e-005 0.000207623,-0.000137382 8.6639e-005,-4.23224e-005 0.000189675,-8.61959e-005 0.000310438,-0.000132064l0.0026005 -0.00101308c0.000118769,-4.76404e-005 0.00022535,-8.55311e-005 0.00031775,-0.000112786 9.35081e-005,-2.79195e-005 0.000174164,-4.09929e-005 0.000245957,-3.94418e-005 7.0685e-005,1.99425e-006 0.000133171,2.41526e-005 0.000187016,6.44807e-005 5.4731e-005,3.9885e-005 0.000102593,0.000105917 0.000144694,0.000194993l8.95196e-005 -3.47886e-005 -0.000592513 -0.0015205 -8.95196e-005 3.47886e-005c2.9249e-005,9.41729e-005 3.87771e-005,0.000175051 2.54821e-005,0.000241526 -1.21871e-005,6.60318e-005 -4.34303e-005,0.000124751 -9.41729e-005,0.000173943 -5.2072e-005,4.85267e-005 -0.000120098,9.4616e-005 -0.000207623,0.000137382 -8.6639e-005,4.23224e-005 -0.000190783,8.6639e-005 -0.000310438,0.000132064zm-0.00152073 0.000592292l-0.00112431 0.000438292c-9.24002e-005,3.70044e-005 -0.000169954,6.1157e-005 -0.000234213,7.26793e-005 -6.51455e-005,1.19655e-005 -0.000122535,3.54533e-006 -0.000172613,-2.45957e-005 -4.9413e-005,-2.88058e-005 -9.90477e-005,-8.42016e-005 -0.000147353,-0.000167074 -4.71972e-005,-8.35369e-005 -0.000101485,-0.000200754 -0.000159761,-0.000353425 -0.000109241,-0.000274098 -0.000148018,-0.000493244 -0.000119433,-0.000658767 3.01353e-005,-0.000165079 0.000136052,-0.000283626 0.000320852,-0.000354312 0.000147796,-5.78332e-005 0.000304898,-5.76116e-005 0.000471529,1.3295e-006 0.000165301,5.93843e-005 0.000344562,0.000176159 0.000536231,0.000350323 0.000191891,0.000174386 0.000401287,0.000406605 0.000629075,0.00069555z"/>
   <path id="W" class="fil2" d="M0.0115316 0.00936964l-0.00180612 -0.00237737c-5.8498e-005,-7.84404e-005 -0.00010503,-0.000144915 -0.000137603,-0.000200311 -3.34591e-005,-5.49526e-005 -5.51742e-005,-9.52808e-005 -6.69181e-005,-0.000120098 -2.9249e-005,-6.20433e-005 -4.49814e-005,-0.000116553 -4.7862e-005,-0.000165744 -3.10216e-006,-4.89699e-005 8.64174e-006,-9.63887e-005 3.36806e-005,-0.000142256 2.50389e-005,-4.60893e-005 6.44807e-005,-9.37297e-005 0.000119212,-0.000143586l-4.09929e-005 -8.68606e-005 -0.0012956 0.000612456 4.09929e-005 8.6639e-005c9.1957e-005,-2.19367e-005 0.00017217,-1.81698e-005 0.00024219,6.86908e-006 6.93555e-005,2.659e-005 0.000136274,7.46735e-005 0.000203413,0.000144251 6.5367e-005,6.89124e-005 0.000139597,0.000158875 0.000222913,0.00026878l0.00192866 0.00252405c5.82764e-005,7.48951e-005 0.000106803,0.000137825 0.000144694,0.000188124 3.65612e-005,5.09641e-005 6.22649e-005,8.9298e-005 7.55599e-005,0.000117218 2.9249e-005,6.20433e-005 3.7226e-005,0.00011899 2.54821e-005,0.000168846 -1.24087e-005,5.14073e-005 -4.5203e-005,9.4616e-005 -9.66103e-005,0.000130291l4.09929e-005 8.6639e-005 0.00119655 -0.00056548 -4.09929e-005 -8.6639e-005c-4.9413e-005,1.57324e-005 -9.12923e-005,1.28518e-005 -0.000126967,-9.52808e-006 -3.54533e-005,-2.1272e-005 -6.62534e-005,-6.22649e-005 -9.39513e-005,-0.000121206 -1.81698e-005,-4.07713e-005 -3.34591e-005,-8.6639e-005 -4.65325e-005,-0.000138489 -1.17439e-005,-5.14073e-005 -2.48173e-005,-0.000108354 -3.87771e-005,-0.000170176l-0.000505653 -0.00251408 0.0015369 0.00193575c3.96634e-005,4.9413e-005 7.95484e-005,9.90477e-005 0.000119433,0.000148461 3.96634e-005,4.9413e-005 7.3344e-005,0.000101707 0.00010082,0.000157102 3.12432e-005,6.35944e-005 4.23224e-005,0.00011899 3.25727e-005,0.000165301 -9.74966e-006,4.63109e-005 -4.18792e-005,9.06275e-005 -9.74966e-005,0.000130734l4.09929e-005 8.68606e-005 0.00121516 -0.000574344 -4.09929e-005 -8.68606e-005c-5.76116e-005,1.46245e-005 -0.000108576,1.08576e-005 -0.000153114,-1.35166e-005 -4.54246e-005,-2.3931e-005 -8.08779e-005,-6.42591e-005 -0.000107689,-0.000120984 -1.46245e-005,-3.10216e-005 -2.61468e-005,-7.11282e-005 -3.67828e-005,-0.000120541 -1.01928e-005,-4.80835e-005 -2.1272e-005,-0.000106138 -3.34591e-005,-0.000172392l-0.000614672 -0.00312986c-3.32375e-005,-0.000158875 -5.07425e-005,-0.000297143 -5.16289e-005,-0.000414361 -2.43741e-006,-0.000117661 1.35166e-005,-0.000217373 4.85267e-005,-0.00030091 3.4567e-005,-8.22074e-005 9.08491e-005,-0.000150455 0.000167517,-0.000204521l-4.09929e-005 -8.6639e-005 -0.00122735 0.000580105 4.09929e-005 8.6639e-005c0.000126746,-4.45382e-005 0.000233106,-5.2072e-005 0.000320852,-2.14936e-005 8.64174e-005,3.01353e-005 0.000154443,9.66103e-005 0.000202749,0.000198982 3.12432e-005,6.84692e-005 5.27368e-005,0.000130291 6.6475e-005,0.000185908 1.30734e-005,5.69469e-005 2.32662e-005,0.000105252 3.03569e-005,0.000147353l0.000634171 0.00294639 -0.00186817 -0.0023479c-5.38447e-005,-6.55886e-005 -0.000101928,-0.000124973 -0.0001427,-0.000179039 -4.18792e-005,-5.36231e-005 -7.37872e-005,-0.000105474 -9.83829e-005,-0.000154665 -3.85555e-005,-7.91052e-005 -4.83051e-005,-0.000152892 -2.9249e-005,-0.000219811 1.72835e-005,-6.75829e-005 6.69181e-005,-0.000136717 0.000146023,-0.000206959l-4.09929e-005 -8.68606e-005 -0.00127698 0.000603593 4.09929e-005 8.68606e-005c8.37584e-005,-2.06072e-005 0.000154,-2.72547e-005 0.00021272,-2.34878e-005 5.80548e-005,5.53958e-006 0.000106138,2.43741e-005 0.000147796,5.91627e-005 4.03281e-005,3.39022e-005 7.53383e-005,8.44232e-005 0.000107689,0.000152671 1.61756e-005,3.39022e-005 3.23511e-005,7.93268e-005 4.85267e-005,0.000137603 1.57324e-005,5.69469e-005 3.14648e-005,0.000127853 4.80835e-005,0.000210947l0.000621541 0.00295237z"/>
   <path id="__x0026_" class="fil2" d="M0.0194293 0.0111966c6.73613e-005,-2.76979e-005 0.00012741,-5.36231e-005 0.000183249,-7.84404e-005 5.51742e-005,-2.57036e-005 0.000106138,-5.16289e-005 0.000153336,-7.95484e-005 0.000104144,-5.96059e-005 0.000198539,-0.000126967 0.000286285,-0.000200976 8.61959e-005,-7.44519e-005 0.000166852,-0.000160205 0.000239088,-0.000258366 2.43741e-006,0.000112564 1.72835e-005,0.000216487 4.36519e-005,0.000311103 2.61468e-005,9.43944e-005 6.58102e-005,0.000186573 0.00011899,0.000277201 0.000106803,0.000179926 0.000229117,0.000316199 0.000368936,0.000407491 0.000139597,9.32865e-005 0.000288723,0.000139597 0.000446933,0.000140705 0.000157546,1.55108e-006 0.000317529,-4.60893e-005 0.000480835,-0.000140484 0.000111456,-6.5367e-005 0.000196323,-0.000141813 0.00025748,-0.000229339 6.02706e-005,-8.70822e-005 9.30649e-005,-0.000180369 9.70534e-005,-0.000279638 3.76691e-006,-9.74966e-005 -2.23799e-005,-0.000196101 -7.97699e-005,-0.000296257 -6.6475e-005,-0.000113451 -0.000159761,-0.000204521 -0.000277644,-0.00027432 -0.00011899,-6.93555e-005 -0.000257923,-0.000109684 -0.000415912,-0.000121649l-8.28721e-005 4.85267e-005c7.55599e-005,2.72547e-005 0.000139376,6.13785e-005 0.000193442,0.000103923 5.34015e-005,4.14361e-005 9.63887e-005,9.17354e-005 0.000131177,0.000150898 4.21008e-005,7.20145e-005 5.87195e-005,0.000136495 4.96346e-005,0.000193442 -8.19858e-006,5.78332e-005 -4.21008e-005,0.000104144 -0.000101042,0.000138933 -7.0685e-005,4.01066e-005 -0.00014558,5.4731e-005 -0.000226236,4.38735e-005 -8.06563e-005,-1.10792e-005 -0.000159097,-4.56461e-005 -0.000236429,-0.00010503 -7.77757e-005,-5.78332e-005 -0.00014558,-0.00013716 -0.000206072,-0.000238202 -7.00203e-005,-0.000119212 -0.000122979,-0.000245736 -0.000160205,-0.000378907 -3.65612e-005,-0.000132285 -6.20433e-005,-0.000274985 -7.57814e-005,-0.000427212 -1.48461e-005,-0.000151784 -2.34878e-005,-0.000317529 -2.659e-005,-0.000494574 7.35656e-005,-2.34878e-005 0.000134058,-4.69756e-005 0.000180369,-6.75829e-005 4.60893e-005,-2.03857e-005 7.97699e-005,-3.76691e-005 0.000100599,-4.96346e-005 0.000154222,-9.1957e-005 0.000267008,-0.000211169 0.000336363,-0.000359186 7.11282e-005,-0.000147796 9.4616e-005,-0.000315313 7.26793e-005,-0.00050388 -2.28231e-005,-0.000187903 -9.52808e-005,-0.000387992 -0.000218481,-0.00060049 -0.000128961,-0.000217152 -0.000274098,-0.000381123 -0.000435854,-0.00049413 -0.000162199,-0.000111678 -0.000329716,-0.000171062 -0.00050388,-0.000178818 -0.000175051,-7.09066e-006 -0.000346335,3.76691e-005 -0.000513408,0.000134501 -0.000144915,8.50879e-005 -0.000255042,0.000197431 -0.000331267,0.000338801 -7.64462e-005,0.000140262 -0.000118325,0.00031066 -0.000124973,0.00050942 -0.000164858,-0.000174829 -0.000346999,-0.000300024 -0.000546867,-0.000376248 -0.000199203,-7.51167e-005 -0.000404832,-0.000102815 -0.000616888,-8.04347e-005 -0.00021272,2.14936e-005 -0.000421451,9.24002e-005 -0.000626194,0.000211169 -0.000195436,0.00011611 -0.000353425,0.000257923 -0.000472859,0.000424775 -0.000119876,0.000168403 -0.000198982,0.000353868 -0.000237537,0.000559498 -3.89986e-005,0.0002043 -3.56749e-005,0.000419679 1.13007e-005,0.00064658 4.60893e-005,0.000227344 0.000137825,0.000458456 0.000274542,0.000693555 0.000142921,0.00024352 0.00030512,0.000445161 0.00048704,0.000608467 0.000181477,0.000162642 0.000378242,0.000283183 0.000590962,0.000360959 0.000213163,7.88836e-005 0.00043674,0.000112121 0.000672283,0.000102371 -1.41813e-005,0.000111456 -4.65325e-005,0.000207402 -9.59455e-005,0.000288058 -4.9413e-005,8.06563e-005 -0.00011478,0.00014558 -0.00019455,0.000192556 -4.91915e-005,2.88058e-005 -9.32865e-005,4.40951e-005 -0.000133171,4.63109e-005 -3.96634e-005,1.99425e-006 -8.10994e-005,-9.52808e-006 -0.000121206,-3.50101e-005 -4.01066e-005,-2.54821e-005 -8.50879e-005,-6.3816e-005 -0.000133836,-0.000117439l-8.28721e-005 4.85267e-005 0.000826284 0.0014075 8.26505e-005 -4.87483e-005 -1.04144e-005 -1.77267e-005c-2.90274e-005,-5.18505e-005 -3.61181e-005,-0.000111235 -2.03857e-005,-0.000181477 1.66187e-005,-7.0685e-005 4.76404e-005,-0.000153779 9.48376e-005,-0.000251718 4.67541e-005,-9.63887e-005 0.000101042,-0.000211612 0.000164193,-0.000345448 6.2708e-005,-0.000132285 0.000126524,-0.000287615 0.000191448,-0.000466211 6.44807e-005,-0.000177045 0.000121871,-0.000381566 0.0001735,-0.000612013zm-0.000660318 -0.000312211c-0.000323511,4.43166e-006 -0.000599382,-5.49526e-005 -0.000829829,-0.000176602 -0.00022956,-0.000122535 -0.0004199,-0.000311546 -0.000569469,-0.000568361 -8.68606e-005,-0.000150233 -0.000143586,-0.000305342 -0.000167295,-0.000463552 -2.45957e-005,-0.000156659 -1.75051e-005,-0.000311768 2.19367e-005,-0.000463552 3.78907e-005,-0.000152006 0.000107911,-0.00029249 0.000207845,-0.000422559 0.000100156,-0.000131842 0.000231333,-0.000244628 0.000392424,-0.000340573 0.000214936,-0.000126081 0.000428099,-0.0001848 0.000639267,-0.000175051 0.000212277,9.30649e-006 0.000429871,8.42016e-005 0.000655,0.000226458 -3.25727e-005,0.000413917 -7.6003e-005,0.000818528 -0.000128297,0.00121494 -5.22936e-005,0.000396412 -0.000126967,0.000786177 -0.000221583,0.00116885zm0.00098959 -0.00187659c0.000100599,0.00013295 0.00021139,0.000233549 0.000332596,0.000300245 0.00012032,6.71397e-005 0.000262354,0.000108354 0.00042411,0.000122092 -2.63684e-005,0.00026457 -0.000105695,0.000492579 -0.000235765,0.000684249 -0.000130956,0.000192334 -0.000315534,0.000356306 -0.000551742,0.000493466 -3.25727e-005,1.92777e-005 -6.51455e-005,3.83339e-005 -9.81613e-005,5.62821e-005 -3.25727e-005,1.92777e-005 -6.62534e-005,3.63396e-005 -0.000100377,5.25152e-005 6.07138e-005,-0.000284956 0.000112786,-0.000568582 0.000154665,-0.000851544 4.36519e-005,-0.000282519 6.78045e-005,-0.000568582 7.46735e-005,-0.000857305zm2.61468e-005 -0.000293819c1.26302e-005,-0.000233992 4.56461e-005,-0.000425661 0.000100377,-0.000574344 5.45095e-005,-0.000148682 0.000136938,-0.000256593 0.000248173,-0.00032196 7.84404e-005,-4.47598e-005 0.000159097,-6.55886e-005 0.000241082,-6.33728e-005 8.26505e-005,3.10216e-006 0.000160648,2.76979e-005 0.000234657,7.44519e-005 7.42304e-005,4.5203e-005 0.000135387,0.000111235 0.000186795,0.000196323 5.96059e-005,0.000101707 9.24002e-005,0.000202749 9.88261e-005,0.000303791 7.31224e-006,0.000100377 -1.30734e-005,0.00019455 -6.0049e-005,0.000281632 -4.67541e-005,8.73038e-005 -0.000122314,0.000161977 -0.000224242,0.000223134 -0.000126967,7.46735e-005 -0.000258809,0.000102815 -0.00039752,8.35369e-005 -0.000137382,-1.99425e-005 -0.000280303,-8.70822e-005 -0.000428099,-0.000203192z"/>
   <path id="O" class="fil2" d="M0.0144924 0.0183617c9.92693e-005,0.000256815 0.00022956,0.000482387 0.00039043,0.000679152 0.000160869,0.000196544 0.00034434,0.000360073 0.000552407,0.000491028 0.000206737,0.000131399 0.000429428,0.000227344 0.000667852,0.000287837 0.000237316,6.09354e-005 0.000482165,8.37584e-005 0.000735878,6.86908e-005 0.000252162,-1.55108e-005 0.00050521,-7.0685e-005 0.000757371,-0.000165966 0.000251497,-9.7275e-005 0.000476847,-0.000225129 0.000675164,-0.000381566 0.000198982,-0.000157989 0.000366277,-0.000338136 0.000503437,-0.000542436 0.000136274,-0.000203635 0.000238202,-0.000423667 0.000304677,-0.000659653 6.75829e-005,-0.000236208 9.52808e-005,-0.000480392 8.37584e-005,-0.000734327 -1.01928e-005,-0.000254156 -6.47023e-005,-0.000508533 -0.000161977,-0.000766235 -9.92693e-005,-0.000256815 -0.000228895,-0.000483938 -0.000390873,-0.00068026 -0.000160869,-0.000196544 -0.000344783,-0.000361181 -0.000552628,-0.000492136 -0.00020718,-0.000132507 -0.000429871,-0.000228452 -0.000667852,-0.000290496 -0.000238424,-6.04922e-005 -0.000483494,-8.42016e-005 -0.000737207,-6.9134e-005 -0.000252605,1.44029e-005 -0.000505653,6.95771e-005 -0.000758036,0.000164858 -0.000251497,9.7275e-005 -0.000476625,0.000225129 -0.000674499,0.000382674 -0.000198982,0.000157989 -0.000365834,0.000339244 -0.000502107,0.0005431 -0.000136938,0.000205186 -0.000238867,0.000425218 -0.000304898,0.000662091 -6.73613e-005,0.000236208 -9.48376e-005,0.0004815 -8.33153e-005,0.000735435 1.13007e-005,0.000253713 6.51455e-005,0.000509641 0.00016242,0.000767343zm0.000678045 -0.000530692c-9.37297e-005,-0.000248173 -0.000145137,-0.000485267 -0.000153557,-0.000712168 -8.42016e-006,-0.00022668 2.03857e-005,-0.000436076 8.70822e-005,-0.000626637 6.66965e-005,-0.000190562 0.000165079,-0.000355641 0.000298029,-0.000494352 0.000131399,-0.000139597 0.000292711,-0.000245293 0.000480171,-0.000318193 0.000179926,-6.75829e-005 0.000364504,-9.66103e-005 0.000555066,-8.73038e-005 0.000190783,8.86333e-006 0.000378907,5.318e-005 0.00056681,0.000131842 0.000187459,7.77757e-005 0.000365834,0.000185687 0.00053601,0.000323733 0.00016929,0.000138489 0.000322404,0.000302461 0.000459785,0.000492358 0.000137825,0.000190783 0.000250832,0.000403281 0.000341238,0.000636608 9.04059e-005,0.000239531 0.000138489,0.000470643 0.000145137,0.000693334 6.86908e-006,0.00022247 -2.32662e-005,0.000428542 -9.17354e-005,0.000617331 -6.75829e-005,0.000188567 -0.000167517,0.00035276 -0.000299359,0.00049125 -0.000132507,0.000140041 -0.000291603,0.000244849 -0.000478177,0.000317307 -0.000224021,8.57527e-005 -0.000453359,0.000113451 -0.000688016,8.19858e-005 -0.000234657,-3.14648e-005 -0.000472637,-0.000122757 -0.000713498,-0.000272769 -0.000153557,-9.43944e-005 -0.000296921,-0.00020718 -0.000430315,-0.000338579 -0.000133393,-0.000131177 -0.000252162,-0.000275428 -0.000356749,-0.000433638 -0.00010503,-0.000159318 -0.000190783,-0.000325949 -0.000257923,-0.000502107z"/>
  </g>
 </g>
</svg>
