<?xml version="1.0" encoding="UTF-8"?>
<!DOCTYPE svg PUBLIC "-//W3C//DTD SVG 1.1//EN" "http://www.w3.org/Graphics/SVG/1.1/DTD/svg11.dtd">
<!-- Creator: CorelDRAW -->
<svg xmlns="http://www.w3.org/2000/svg" xml:space="preserve" width="0.48in" height="0.48in" style="shape-rendering:geometricPrecision; text-rendering:geometricPrecision; image-rendering:optimizeQuality; fill-rule:evenodd; clip-rule:evenodd"
viewBox="0 0 0.025657 0.025657"
 xmlns:xlink="http://www.w3.org/1999/xlink">
 <defs>
  <style type="text/css">
   <![CDATA[
    .fil5 {fill:none}
    .fil2 {fill:black}
    .fil1 {fill:#847059}
    .fil3 {fill:black;fill-rule:nonzero}
    .fil0 {fill:#847059;fill-rule:nonzero}
    .fil4 {fill:#848688;fill-rule:nonzero}
   ]]>
  </style>
 </defs>
 <g id="Mine">
  <metadata id="CorelCorpID_0Corel-Layer"/>
  <g id="_297319520">
   <g>
    <path id="_297336712" class="fil0" d="M0.011904 0.0162276l-0.000313558 -0.00136071 0.000363643 -8.37557e-005 0.000313558 0.00136071 -0.000181821 0.000228539 -0.000181821 -0.000144784zm0.000181821 0.000144784l-0.000148361 0 -3.34602e-005 -0.000144784 0.000181821 0.000144784zm0.000898585 0l-0.000898585 0 0 -0.000373323 0.000898585 0 0.000179927 0.000236326 -0.000179927 0.000136997zm0.000179927 -0.000136997l-3.78795e-005 0.000136997 -0.000142048 0 0.000179927 -0.000136997zm0.000370587 -0.00134346l-0.000370587 0.00134346 -0.000359855 -9.93283e-005 0.000370587 -0.00134346 0.000359855 9.93283e-005z"/>
   </g>
   <path class="fil1" d="M0.0138997 0.0062762c0.00144973,8.48079e-005 0.00218249,6.12384e-005 0.00286327,0.000150045 0.000680778,8.90167e-005 0.00143121,-5.74505e-005 0.00134998,0.00105621 -8.12304e-005,0.00111366 -0.000146888,0.00417284 -0.000146888,0.00417284 0,0 0.000283044,-1.13638e-005 0.000351437,-0.00041941 6.83935e-005,-0.000407835 -4.58762e-005,-0.000863441 0.000175087,-0.000831664 0.000220963,3.19871e-005 0.0013201,7.9126e-005 0.00157116,0.000150045 0.000250846,7.11292e-005 8.20721e-006,0.000390158 6.64995e-005,0.000678463 5.82923e-005,0.000288094 0.000105642,0.000755485 0.000741175,0.000857338 0.000635533,0.000101854 0.000793575,-4.37718e-005 0.000608597,-0.000312085 -0.000184978,-0.000268102 -0.000643319,-0.000761798 -0.000706031,-0.000914999 -6.27115e-005,-0.000153201 -2.04128e-005,-0.000458762 -2.04128e-005,-0.000458762l0.000863652 5.17686e-005c0,0 4.73493e-005,0.000409309 0.000143731,0.000537046 9.65926e-005,0.000127527 0.000280308,0.000265998 0.000470126,0.000373533 0.000189818,0.000107536 0.000426986,7.97573e-005 0.000229171,0.000360276 -0.000197604,0.000280308 -0.00086786,0.00113701 -0.00102674,0.00135356 -0.000158883,0.000216544 -0.000205391,-2.27277e-005 -0.000770426,-0.000125002 -0.000565035,-0.000102275 -0.00155979,-0.000298195 -0.00223068,-0.0001572 -0.000670887,0.000140785 -0.00119489,0.000198657 -0.00241292,0.001032 -0.00121803,0.000833348 -0.00189166,0.0011528 -0.00345566,0.00116963 -0.00156421,1.68353e-005 -0.0026242,-0.000652579 -0.00344956,-0.00111239 -0.000825562,-0.000460025 -0.00116563,-0.000779896 -0.00249626,-0.000755064 -0.00133041,2.46216e-005 -0.00112039,0.000168143 -0.00147498,0.000235273 -0.000354383,6.69204e-005 -0.000103958,0.000148151 -0.000100381,-0.000100591 3.5775e-006,-0.000248531 -3.5775e-005,-0.000677621 0.000406783,-0.000556618 0.000442769,0.000121004 0.00119236,0.000123529 0.00119236,0.000123529 0,0 -8.10199e-005,-0.000789576 -0.000166249,-0.00172141 -8.50183e-005,-0.000931835 -3.9563e-005,-0.00206127 -4.20883e-005,-0.00281486 -2.31486e-006,-0.000753591 -9.80657e-005,-0.00184389 0.00156442,-0.00194258 0.00166249,-9.89075e-005 0.00305624,-0.000131736 0.00367136,-0.000136997 0.000615331,-5.26104e-006 0.00223047,5.80818e-005 0.00223047,5.80818e-005z"/>
   <path class="fil2" d="M0.010537 0.00716616l-0.00263809 0c-2.73574e-006,0.00101833 2.73574e-006,0.00203665 0,0.00305519 0.000425723,0.000202655 0.0011368,0.000269365 0.00148572,0.000364485 0.000476439,0.000130053 0.000799046,0.00017151 0.00115238,0.000211073l0 -0.00363075z"/>
   <g>
    <path class="fil3" d="M0.0112805 0.00677537l-4.12465e-005 0.00807211 -0.000124581 -8.41766e-007 4.12465e-005 -0.00807211 6.22907e-005 -6.18698e-005 6.22907e-005 6.27115e-005zm-0.000124581 -8.41766e-007l4.20883e-007 -6.18698e-005 6.18698e-005 0 -6.22907e-005 6.18698e-005zm0.00319724 6.27115e-005l-0.00313495 0 0 -0.000124581 0.00313495 0 6.22907e-005 6.25011e-005 -6.22907e-005 6.20802e-005zm0 -0.000124581l6.25011e-005 0 -2.10441e-007 6.25011e-005 -6.22907e-005 -6.25011e-005zm-7.93364e-005 0.00803802l1.70458e-005 -0.00797594 0.000124581 4.20883e-007 -1.70458e-005 0.00797594 -0.000124581 -4.20883e-007z"/>
   </g>
   <g id="Rear_x0020_wheel">
    <g>
     <path class="fil4" d="M0.00354573 0.0148662l0.000497483 0 0 0 4.41927e-006 0.00016667 1.22056e-005 0.000164355 2.08337e-005 0.000161619 2.81991e-005 0.000159304 3.61959e-005 0.000156148 4.35614e-005 0.000153412 5.07164e-005 0.000150255 5.78714e-005 0.000146467 6.4816e-005 0.000143311 7.13396e-005 0.000139523 7.76529e-005 0.000135314 8.4387e-005 0.000131105 9.00689e-005 0.000126896 9.59613e-005 0.000122056 0.000101643 0.000117426 0.000107115 0.000112376 0.000112376 0.000107115 0.000117426 0.000101643 0.000122056 9.59613e-005 0.000126896 9.00689e-005 0.000131105 8.4387e-005 0.000135314 7.76529e-005 0.000139523 7.13396e-005 0.000143311 6.4816e-005 0.000146467 5.78714e-005 0.000150255 5.07164e-005 0.000153412 4.35614e-005 0.000156148 3.61959e-005 0.000159304 2.81991e-005 0.000161619 2.08337e-005 0.000164355 1.22056e-005 0.00016667 4.41927e-006 0 0.000497483 -0.000191502 -4.84015e-006 -0.000189608 -1.431e-005 -0.000186872 -2.37799e-005 -0.000183715 -3.28289e-005 -0.000180559 -4.16674e-005 -0.000176981 -5.02955e-005 -0.000173404 -5.87132e-005 -0.000169616 -6.67099e-005 -0.000165196 -7.49171e-005 -0.000160988 -8.22826e-005 -0.000156358 -8.98585e-005 -0.000151307 -9.70135e-005 -0.000146257 -0.000103958 -0.000140996 -0.000110692 -0.000135103 -0.000117216 -0.000129632 -0.000123529 -0.000123529 -0.000129632 -0.000117216 -0.000135103 -0.000110692 -0.000140996 -0.000103958 -0.000146257 -9.70135e-005 -0.000151307 -8.98585e-005 -0.000156358 -8.22826e-005 -0.000160988 -7.49171e-005 -0.000165196 -6.67099e-005 -0.000169616 -5.87132e-005 -0.000173404 -5.02955e-005 -0.000176981 -4.16674e-005 -0.000180559 -3.28289e-005 -0.000183715 -2.37799e-005 -0.000186872 -1.431e-005 -0.000189608 -4.84015e-006 -0.000191502 0 0zm0.00373071 -0.00373049l0 0.000497483 0 0 -0.00016667 4.41927e-006 -0.000164355 1.22056e-005 -0.000161619 2.08337e-005 -0.000159304 2.81991e-005 -0.000156148 3.61959e-005 -0.000153412 4.35614e-005 -0.000150255 5.07164e-005 -0.000146678 5.78714e-005 -0.0001431 6.46055e-005 -0.000139523 7.15501e-005 -0.000135314 7.76529e-005 -0.000131105 8.4387e-005 -0.000126896 9.00689e-005 -0.000122056 9.59613e-005 -0.000117426 0.000101643 -0.000112376 0.000107115 -0.000107115 0.000112165 -0.000101643 0.000117426 -9.59613e-005 0.000122266 -9.00689e-005 0.000126686 -8.4387e-005 0.000131315 -7.76529e-005 0.000135103 -7.13396e-005 0.000139523 -6.4816e-005 0.000143311 -5.78714e-005 0.000146467 -5.07164e-005 0.000150255 -4.35614e-005 0.000153412 -3.61959e-005 0.000156148 -2.81991e-005 0.000159304 -2.08337e-005 0.000161619 -1.22056e-005 0.000164355 -4.41927e-006 0.00016667 -0.000497483 0 4.84015e-006 -0.000191502 1.431e-005 -0.000189608 2.37799e-005 -0.000186872 3.28289e-005 -0.000183715 4.16674e-005 -0.000180559 5.02955e-005 -0.000176981 5.87132e-005 -0.000173404 6.67099e-005 -0.000169616 7.49171e-005 -0.000165196 8.22826e-005 -0.000160988 8.98585e-005 -0.000156148 9.70135e-005 -0.000151518 0.000103958 -0.000146046 0.000110692 -0.000140785 0.000117216 -0.000135524 0.000123529 -0.000129421 0.000129632 -0.000123529 0.000135103 -0.000117216 0.000140996 -0.000110692 0.000146257 -0.000103958 0.000151307 -9.70135e-005 0.000156358 -8.98585e-005 0.000160988 -8.2493e-005 0.000165407 -7.47067e-005 0.000169405 -6.67099e-005 0.000173404 -5.87132e-005 0.000176981 -5.02955e-005 0.000180559 -4.16674e-005 0.000183715 -3.28289e-005 0.000186872 -2.37799e-005 0.000189608 -1.431e-005 0.000191502 -4.84015e-006 0 0zm0.00373049 0.00373049l-0.000497483 0 0 0 -4.41927e-006 -0.00016667 -1.22056e-005 -0.000164355 -2.08337e-005 -0.000161619 -2.81991e-005 -0.000159304 -3.61959e-005 -0.000156148 -4.35614e-005 -0.000153412 -5.07164e-005 -0.000150255 -5.78714e-005 -0.000146678 -6.46055e-005 -0.0001431 -7.15501e-005 -0.000139523 -7.76529e-005 -0.000135103 -8.4387e-005 -0.000131315 -9.00689e-005 -0.000126686 -9.59613e-005 -0.000122266 -0.000101643 -0.000117426 -0.000107115 -0.000112165 -0.000112165 -0.000107115 -0.000117426 -0.000101643 -0.000122266 -9.59613e-005 -0.000126686 -9.00689e-005 -0.000131315 -8.4387e-005 -0.000135103 -7.76529e-005 -0.000139523 -7.15501e-005 -0.0001431 -6.46055e-005 -0.000146678 -5.78714e-005 -0.000150255 -5.07164e-005 -0.000153412 -4.35614e-005 -0.000156148 -3.61959e-005 -0.000159304 -2.81991e-005 -0.000161619 -2.08337e-005 -0.000164355 -1.22056e-005 -0.00016667 -4.41927e-006 0 -0.000497483 0.000191502 4.84015e-006 0.000189608 1.431e-005 0.000186872 2.37799e-005 0.000183715 3.28289e-005 0.000180559 4.16674e-005 0.000176981 5.02955e-005 0.000173404 5.87132e-005 0.000169405 6.67099e-005 0.000165407 7.47067e-005 0.000160988 8.2493e-005 0.000156148 8.98585e-005 0.000151518 9.70135e-005 0.000146046 0.000103958 0.000140785 0.000110692 0.000135524 0.000117216 0.000129421 0.000123529 0.000123529 0.000129421 0.000117216 0.000135524 0.000110692 0.000140785 0.000103958 0.000146046 9.70135e-005 0.000151518 8.98585e-005 0.000156148 8.2493e-005 0.000160988 7.47067e-005 0.000165407 6.67099e-005 0.000169405 5.87132e-005 0.000173404 5.02955e-005 0.000176981 4.16674e-005 0.000180559 3.28289e-005 0.000183715 2.37799e-005 0.000186872 1.431e-005 0.000189608 4.84015e-006 0.000191502 0 0zm-0.00373049 0.00373071l0 -0.000497483 0 0 0.00016667 -4.41927e-006 0.000164355 -1.22056e-005 0.000161619 -2.08337e-005 0.000159304 -2.81991e-005 0.000156148 -3.61959e-005 0.000153412 -4.35614e-005 0.000150255 -5.07164e-005 0.000146467 -5.78714e-005 0.000143311 -6.4816e-005 0.000139523 -7.13396e-005 0.000135103 -7.76529e-005 0.000131315 -8.4387e-005 0.000126686 -9.00689e-005 0.000122266 -9.59613e-005 0.000117426 -0.000101643 0.000112165 -0.000107115 0.000107115 -0.000112376 0.000101643 -0.000117426 9.59613e-005 -0.000122056 9.00689e-005 -0.000126896 8.4387e-005 -0.000131105 7.76529e-005 -0.000135314 7.15501e-005 -0.000139523 6.46055e-005 -0.0001431 5.78714e-005 -0.000146678 5.07164e-005 -0.000150255 4.35614e-005 -0.000153412 3.61959e-005 -0.000156148 2.81991e-005 -0.000159304 2.08337e-005 -0.000161619 1.22056e-005 -0.000164355 4.41927e-006 -0.00016667 0.000497483 0 -4.84015e-006 0.000191502 -1.431e-005 0.000189608 -2.37799e-005 0.000186872 -3.28289e-005 0.000183715 -4.16674e-005 0.000180559 -5.02955e-005 0.000176981 -5.87132e-005 0.000173404 -6.67099e-005 0.000169405 -7.47067e-005 0.000165407 -8.2493e-005 0.000160988 -8.98585e-005 0.000156358 -9.70135e-005 0.000151307 -0.000103958 0.000146257 -0.000110692 0.000140996 -0.000117216 0.000135103 -0.000123529 0.000129632 -0.000129421 0.000123529 -0.000135524 0.000117216 -0.000140785 0.000110692 -0.000146046 0.000103958 -0.000151518 9.70135e-005 -0.000156148 8.98585e-005 -0.000160988 8.22826e-005 -0.000165196 7.49171e-005 -0.000169616 6.67099e-005 -0.000173404 5.87132e-005 -0.000176981 5.02955e-005 -0.000180559 4.16674e-005 -0.000183715 3.28289e-005 -0.000186872 2.37799e-005 -0.000189608 1.431e-005 -0.000191502 4.84015e-006 0 0z"/>
    </g>
    <g>
     <path class="fil2" d="M0.00727643 0.0154422c-0.000318187,0 -0.000575978,-0.000257791 -0.000575978,-0.000575978 0,-0.000317977 0.000257791,-0.000575768 0.000575978,-0.000575768 0.000317977,0 0.000575978,0.000257791 0.000575978,0.000575768 0,0.000318187 -0.000258001,0.000575978 -0.000575978,0.000575978z"/>
     <path id="1" class="fil4" d="M0.00651379 0.0148662l0.000373323 0 0 0 6.31324e-007 2.04128e-005 1.26265e-006 1.97815e-005 2.5253e-006 1.91502e-005 3.5775e-006 1.97815e-005 4.20883e-006 1.85188e-005 5.26104e-006 1.8098e-005 6.1028e-006 1.83084e-005 6.94457e-006 1.76771e-005 7.78633e-006 1.72562e-005 8.41766e-006 1.66249e-005 9.25942e-006 1.59935e-005 1.03116e-005 1.59935e-005 1.0943e-005 1.53622e-005 1.13638e-005 1.45205e-005 1.28369e-005 1.47309e-005 1.2416e-005 1.32578e-005 1.32578e-005 1.2416e-005 1.47309e-005 1.28369e-005 1.45205e-005 1.13638e-005 1.53622e-005 1.0943e-005 1.59935e-005 1.03116e-005 1.59935e-005 9.25942e-006 1.66249e-005 8.41766e-006 1.72562e-005 7.78633e-006 1.76771e-005 6.94457e-006 1.83084e-005 6.1028e-006 1.8098e-005 5.26104e-006 1.85188e-005 4.20883e-006 1.97815e-005 3.5775e-006 1.91502e-005 2.5253e-006 1.97815e-005 1.26265e-006 2.04128e-005 6.31324e-007 0 0.000373323 -3.89317e-005 -1.05221e-006 -3.87212e-005 -2.94618e-006 -3.85108e-005 -5.05059e-006 -3.70377e-005 -6.52368e-006 -3.70377e-005 -8.41766e-006 -3.66168e-005 -1.03116e-005 -3.51437e-005 -1.19952e-005 -3.49333e-005 -1.36787e-005 -3.36706e-005 -1.53622e-005 -3.30393e-005 -1.68353e-005 -3.19871e-005 -1.85188e-005 -3.07244e-005 -1.95711e-005 -3.00931e-005 -2.1465e-005 -2.88305e-005 -2.27277e-005 -2.69365e-005 -2.3359e-005 -2.71469e-005 -2.54634e-005 -2.54634e-005 -2.71469e-005 -2.3359e-005 -2.69365e-005 -2.27277e-005 -2.88305e-005 -2.1465e-005 -3.00931e-005 -1.95711e-005 -3.07244e-005 -1.85188e-005 -3.19871e-005 -1.68353e-005 -3.30393e-005 -1.53622e-005 -3.36706e-005 -1.36787e-005 -3.49333e-005 -1.19952e-005 -3.51437e-005 -1.03116e-005 -3.66168e-005 -8.41766e-006 -3.70377e-005 -6.52368e-006 -3.70377e-005 -5.05059e-006 -3.85108e-005 -2.94618e-006 -3.87212e-005 -1.05221e-006 -3.89317e-005 0 0zm0.00076264 -0.000762429l0 0.000373323 0 0 -2.04128e-005 6.31324e-007 -1.97815e-005 1.26265e-006 -1.91502e-005 2.5253e-006 -1.97815e-005 3.5775e-006 -1.85188e-005 4.20883e-006 -1.8098e-005 5.26104e-006 -1.83084e-005 6.1028e-006 -1.76771e-005 6.94457e-006 -1.72562e-005 7.78633e-006 -1.66249e-005 8.41766e-006 -1.59935e-005 9.25942e-006 -1.59935e-005 1.03116e-005 -1.53622e-005 1.0943e-005 -1.45205e-005 1.13638e-005 -1.47309e-005 1.28369e-005 -1.36787e-005 1.28369e-005 -1.19952e-005 1.26265e-005 -1.2416e-005 1.45205e-005 -1.19952e-005 1.53622e-005 -1.0943e-005 1.51518e-005 -9.89075e-006 1.53622e-005 -9.25942e-006 1.6204e-005 -8.6281e-006 1.68353e-005 -7.99677e-006 1.74666e-005 -6.73412e-006 1.74666e-005 -6.1028e-006 1.8098e-005 -5.26104e-006 1.78875e-005 -4.20883e-006 1.89397e-005 -3.5775e-006 1.97815e-005 -2.5253e-006 1.89397e-005 -1.26265e-006 1.97815e-005 -6.31324e-007 2.04128e-005 -0.000373323 0 1.05221e-006 -3.89317e-005 2.94618e-006 -3.87212e-005 5.05059e-006 -3.87212e-005 6.52368e-006 -3.66168e-005 8.41766e-006 -3.70377e-005 1.03116e-005 -3.68272e-005 1.19952e-005 -3.53542e-005 1.38891e-005 -3.47228e-005 1.51518e-005 -3.34602e-005 1.66249e-005 -3.28289e-005 1.85188e-005 -3.21975e-005 1.99919e-005 -3.13558e-005 2.1465e-005 -2.98827e-005 2.20963e-005 -2.79887e-005 2.37799e-005 -2.75678e-005 2.58843e-005 -2.73574e-005 2.67261e-005 -2.50425e-005 2.69365e-005 -2.3359e-005 2.88305e-005 -2.27277e-005 3.00931e-005 -2.1465e-005 3.07244e-005 -1.95711e-005 3.19871e-005 -1.85188e-005 3.30393e-005 -1.68353e-005 3.36706e-005 -1.53622e-005 3.49333e-005 -1.36787e-005 3.51437e-005 -1.19952e-005 3.66168e-005 -1.03116e-005 3.70377e-005 -8.41766e-006 3.70377e-005 -6.52368e-006 3.85108e-005 -5.05059e-006 3.87212e-005 -2.94618e-006 3.89317e-005 -1.05221e-006 0 0zm0.00076264 0.000762429l-0.000373323 0 0 0 -6.31324e-007 -2.04128e-005 -1.26265e-006 -1.97815e-005 -2.5253e-006 -1.89397e-005 -3.5775e-006 -1.97815e-005 -4.20883e-006 -1.89397e-005 -5.26104e-006 -1.78875e-005 -6.1028e-006 -1.8098e-005 -6.73412e-006 -1.74666e-005 -7.99677e-006 -1.74666e-005 -8.6281e-006 -1.68353e-005 -9.04898e-006 -1.57831e-005 -1.03116e-005 -1.57831e-005 -1.0943e-005 -1.55727e-005 -1.17847e-005 -1.49413e-005 -1.22056e-005 -1.40996e-005 -1.2416e-005 -1.30474e-005 -1.38891e-005 -1.30474e-005 -1.38891e-005 -1.22056e-005 -1.51518e-005 -1.17847e-005 -1.55727e-005 -1.11534e-005 -1.53622e-005 -9.89075e-006 -1.6204e-005 -9.25942e-006 -1.68353e-005 -8.6281e-006 -1.74666e-005 -7.99677e-006 -1.74666e-005 -6.73412e-006 -1.8098e-005 -6.1028e-006 -1.78875e-005 -5.26104e-006 -1.89397e-005 -4.20883e-006 -1.97815e-005 -3.5775e-006 -1.89397e-005 -2.5253e-006 -1.97815e-005 -1.26265e-006 -2.04128e-005 -6.31324e-007 0 -0.000373323 3.89317e-005 1.05221e-006 3.87212e-005 2.94618e-006 3.87212e-005 5.05059e-006 3.66168e-005 6.52368e-006 3.70377e-005 8.41766e-006 3.68272e-005 1.03116e-005 3.53542e-005 1.19952e-005 3.47228e-005 1.38891e-005 3.34602e-005 1.51518e-005 3.28289e-005 1.66249e-005 3.21975e-005 1.85188e-005 3.13558e-005 1.99919e-005 2.94618e-005 2.12546e-005 2.862e-005 2.23068e-005 2.77783e-005 2.39903e-005 2.60947e-005 2.48321e-005 2.58843e-005 2.69365e-005 2.39903e-005 2.79887e-005 2.23068e-005 2.84096e-005 2.10441e-005 2.94618e-005 1.99919e-005 3.09349e-005 1.87293e-005 3.26184e-005 1.66249e-005 3.28289e-005 1.51518e-005 3.34602e-005 1.38891e-005 3.47228e-005 1.19952e-005 3.53542e-005 1.03116e-005 3.68272e-005 8.41766e-006 3.70377e-005 6.52368e-006 3.66168e-005 5.05059e-006 3.87212e-005 2.94618e-006 3.87212e-005 1.05221e-006 3.89317e-005 0 0zm-0.00076264 0.00076264l0 -0.000373323 0 0 2.04128e-005 -6.31324e-007 1.97815e-005 -1.26265e-006 1.89397e-005 -2.5253e-006 1.97815e-005 -3.5775e-006 1.89397e-005 -4.20883e-006 1.78875e-005 -5.26104e-006 1.8098e-005 -6.1028e-006 1.74666e-005 -6.73412e-006 1.74666e-005 -7.99677e-006 1.68353e-005 -8.6281e-006 1.6204e-005 -9.25942e-006 1.53622e-005 -9.89075e-006 1.55727e-005 -1.11534e-005 1.51518e-005 -1.17847e-005 1.38891e-005 -1.22056e-005 1.34682e-005 -1.26265e-005 1.28369e-005 -1.36787e-005 1.26265e-005 -1.431e-005 1.11534e-005 -1.40996e-005 1.0943e-005 -1.57831e-005 1.07325e-005 -1.66249e-005 9.04898e-006 -1.53622e-005 8.41766e-006 -1.66249e-005 7.78633e-006 -1.72562e-005 6.94457e-006 -1.76771e-005 6.1028e-006 -1.83084e-005 5.26104e-006 -1.8098e-005 4.20883e-006 -1.85188e-005 3.5775e-006 -1.97815e-005 2.5253e-006 -1.91502e-005 1.26265e-006 -1.97815e-005 6.31324e-007 -2.04128e-005 0.000373323 0 -1.05221e-006 3.89317e-005 -2.94618e-006 3.87212e-005 -5.05059e-006 3.85108e-005 -6.52368e-006 3.70377e-005 -8.41766e-006 3.70377e-005 -1.03116e-005 3.66168e-005 -1.19952e-005 3.51437e-005 -1.36787e-005 3.49333e-005 -1.53622e-005 3.36706e-005 -1.68353e-005 3.30393e-005 -1.87293e-005 3.26184e-005 -1.95711e-005 3.00931e-005 -2.10441e-005 2.96722e-005 -2.29381e-005 2.92514e-005 -2.35694e-005 2.73574e-005 -2.54634e-005 2.67261e-005 -2.65156e-005 2.5253e-005 -2.77783e-005 2.39903e-005 -2.862e-005 2.23068e-005 -2.94618e-005 2.12546e-005 -3.13558e-005 1.99919e-005 -3.21975e-005 1.85188e-005 -3.28289e-005 1.66249e-005 -3.34602e-005 1.51518e-005 -3.47228e-005 1.38891e-005 -3.53542e-005 1.19952e-005 -3.68272e-005 1.03116e-005 -3.70377e-005 8.41766e-006 -3.66168e-005 6.52368e-006 -3.87212e-005 5.05059e-006 -3.87212e-005 2.94618e-006 -3.89317e-005 1.05221e-006 0 0z"/>
    </g>
    <g>
     <polygon class="fil4" points="0.0074008,0.0113845 0.0074008,0.0142904 0.00715206,0.0142904 0.00715206,0.0113845 "/>
    </g>
    <g>
     <polygon class="fil4" points="0.00597359,0.0116353 0.00715564,0.01429 0.00692836,0.014391 0.00574631,0.0117363 "/>
    </g>
    <g>
     <polygon class="fil4" points="0.00477197,0.0124447 0.00693152,0.0143891 0.00676485,0.0145739 0.0046053,0.0126294 "/>
    </g>
    <g>
     <polygon class="fil4" points="0.00400344,0.013673 0.00676716,0.014571 0.00669014,0.0148075 0.00392642,0.0139095 "/>
    </g>
    <g>
     <polygon class="fil4" points="0.00380078,0.0151078 0.00669077,0.0148039 0.00671687,0.0150514 0.00382688,0.0153553 "/>
    </g>
    <g>
     <polygon class="fil4" points="0.00419936,0.0165007 0.00671603,0.0150478 0.00684061,0.0152633 0.00432394,0.0167162 "/>
    </g>
    <g>
     <polygon class="fil4" points="0.00513014,0.0176114 0.00683829,0.0152604 0.00703948,0.0154064 0.00533132,0.0177575 "/>
    </g>
    <g>
     <polygon class="fil4" points="0.00643214,0.0182474 0.00703632,0.0154047 0.00727959,0.0154565 0.00667541,0.0182991 "/>
    </g>
    <g>
     <polygon class="fil4" points="0.00788019,0.0182987 0.00727601,0.0154563 0.00751928,0.0154045 0.00812346,0.018247 "/>
    </g>
    <g>
     <polygon class="fil4" points="0.00922386,0.0177566 0.00751591,0.0154058 0.0077171,0.0152597 0.00942504,0.0176106 "/>
    </g>
    <g>
     <polygon class="fil4" points="0.010231,0.0167152 0.00771436,0.0152621 0.00783894,0.0150466 0.0103556,0.0164997 "/>
    </g>
    <g>
     <polygon class="fil4" points="0.0107275,0.0153538 0.00783726,0.0150501 0.00786335,0.0148027 0.0107536,0.0151063 "/>
    </g>
    <g>
     <polygon class="fil4" points="0.0106273,0.0139083 0.00786356,0.0148062 0.00778654,0.0145697 0.0105503,0.0136717 "/>
    </g>
    <g>
     <polygon class="fil4" points="0.00994778,0.0126284 0.00778823,0.0145729 0.00762156,0.0143881 0.00978111,0.0124436 "/>
    </g>
    <g>
     <polygon class="fil4" points="0.00880655,0.0117357 0.0076245,0.0143904 0.00739723,0.0142894 0.00857928,0.0116347 "/>
    </g>
    <g>
     <polygon class="fil4" points="0.0074008,0.0113845 0.0074008,0.0142904 0.00715206,0.0142904 0.00715206,0.0113845 "/>
    </g>
   </g>
   <rect class="fil2" x="0.0116221" y="0.00717881" width="0.00230943" height="0.00386927"/>
   <path class="fil2" d="M0.0150057 0.00716932l0.00209852 0c2.73574e-006,0.00101833 5.47148e-006,0.00203686 8.41766e-006,0.00305519 -0.000425723,0.000202655 -0.00060565,0.000269365 -0.000954562,0.000364695 -0.000476439,0.000130053 -0.000799046,0.000171299 -0.00115238,0.000211073l0 -0.00363096z"/>
   <g id="Front_x0020_wheel">
    <g>
     <path class="fil4" d="M0.0153376 0.0153704l0.000497483 0 0 0 3.5775e-006 0.000140575 1.05221e-005 0.000138681 1.74666e-005 0.000136787 2.37799e-005 0.000134262 3.0514e-005 0.000131736 3.68272e-005 0.000129421 4.293e-005 0.000126896 4.88224e-005 0.00012395 5.45043e-005 0.000120793 6.01862e-005 0.000117426 6.58682e-005 0.00011427 7.11292e-005 0.000110903 7.59693e-005 0.000107115 8.10199e-005 0.000102906 8.58601e-005 9.91179e-005 9.02794e-005 9.49091e-005 9.49091e-005 9.02794e-005 9.91179e-005 8.58601e-005 0.000102906 8.10199e-005 0.000107115 7.59693e-005 0.000110903 7.11292e-005 0.00011427 6.58682e-005 0.000117426 6.01862e-005 0.000120793 5.45043e-005 0.00012395 4.88224e-005 0.000126896 4.293e-005 0.000129421 3.68272e-005 0.000131736 3.0514e-005 0.000134262 2.37799e-005 0.000136787 1.74666e-005 0.000138681 1.05221e-005 0.000140575 3.5775e-006 0 0.000497483 -0.000165828 -3.99839e-006 -0.000163934 -1.26265e-005 -0.000161198 -2.04128e-005 -0.000159094 -2.84096e-005 -0.000156148 -3.59855e-005 -0.000153412 -4.35614e-005 -0.000149624 -5.09268e-005 -0.000146678 -5.76609e-005 -0.0001431 -6.46055e-005 -0.000139312 -7.15501e-005 -0.000134893 -7.76529e-005 -0.000130684 -8.37557e-005 -0.000126475 -8.98585e-005 -0.000122266 -9.57508e-005 -0.000116795 -0.000101433 -0.000112165 -0.000106694 -0.000106694 -0.000112165 -0.000101433 -0.000116795 -9.57508e-005 -0.000122266 -8.98585e-005 -0.000126475 -8.37557e-005 -0.000130684 -7.76529e-005 -0.000134893 -7.15501e-005 -0.000139312 -6.46055e-005 -0.0001431 -5.76609e-005 -0.000146678 -5.09268e-005 -0.000149624 -4.35614e-005 -0.000153412 -3.59855e-005 -0.000156148 -2.84096e-005 -0.000159094 -2.04128e-005 -0.000161198 -1.26265e-005 -0.000163934 -3.99839e-006 -0.000165828 0 0zm0.00322649 -0.00322649l0 0.000497483 0 0 -0.000140575 3.5775e-006 -0.000138681 1.05221e-005 -0.000136787 1.74666e-005 -0.000134262 2.37799e-005 -0.000131736 3.0514e-005 -0.000129421 3.68272e-005 -0.000126896 4.293e-005 -0.00012395 4.88224e-005 -0.000120793 5.45043e-005 -0.000117426 6.01862e-005 -0.00011427 6.58682e-005 -0.000110903 7.11292e-005 -0.000107115 7.59693e-005 -0.000102906 8.10199e-005 -9.91179e-005 8.58601e-005 -9.49091e-005 9.02794e-005 -9.02794e-005 9.49091e-005 -8.58601e-005 9.91179e-005 -8.10199e-005 0.000102906 -7.59693e-005 0.000107115 -7.11292e-005 0.000110903 -6.58682e-005 0.00011427 -6.01862e-005 0.000117426 -5.45043e-005 0.000120793 -4.88224e-005 0.00012395 -4.293e-005 0.000126896 -3.68272e-005 0.000129421 -3.0514e-005 0.000131736 -2.37799e-005 0.000134262 -1.74666e-005 0.000136787 -1.05221e-005 0.000138681 -3.5775e-006 0.000140575 -0.000497483 0 3.99839e-006 -0.000165828 1.26265e-005 -0.000163934 2.04128e-005 -0.000161198 2.84096e-005 -0.000159094 3.59855e-005 -0.000156148 4.35614e-005 -0.000153412 5.09268e-005 -0.000149624 5.76609e-005 -0.000146678 6.46055e-005 -0.0001431 7.15501e-005 -0.000139312 7.76529e-005 -0.000134893 8.37557e-005 -0.000130684 8.98585e-005 -0.000126475 9.57508e-005 -0.000122266 0.000101433 -0.000116795 0.000106694 -0.000112165 0.000112165 -0.000106694 0.000116795 -0.000101433 0.000122266 -9.57508e-005 0.000126475 -8.98585e-005 0.000130684 -8.37557e-005 0.000134893 -7.76529e-005 0.000139312 -7.15501e-005 0.0001431 -6.46055e-005 0.000146678 -5.76609e-005 0.000149624 -5.09268e-005 0.000153412 -4.35614e-005 0.000156148 -3.59855e-005 0.000159094 -2.84096e-005 0.000161198 -2.04128e-005 0.000163934 -1.26265e-005 0.000165828 -3.99839e-006 0 0zm0.00322649 0.00322649l-0.000497483 0 0 0 -3.5775e-006 -0.000140575 -1.05221e-005 -0.000138681 -1.74666e-005 -0.000136787 -2.37799e-005 -0.000134262 -3.0514e-005 -0.000131736 -3.68272e-005 -0.000129421 -4.293e-005 -0.000126896 -4.88224e-005 -0.00012395 -5.45043e-005 -0.000120793 -6.01862e-005 -0.000117426 -6.58682e-005 -0.00011427 -7.11292e-005 -0.000110903 -7.59693e-005 -0.000107115 -8.10199e-005 -0.000102906 -8.58601e-005 -9.91179e-005 -9.02794e-005 -9.49091e-005 -9.49091e-005 -9.02794e-005 -9.91179e-005 -8.58601e-005 -0.000102906 -8.10199e-005 -0.000107115 -7.59693e-005 -0.000110903 -7.11292e-005 -0.00011427 -6.58682e-005 -0.000117426 -6.01862e-005 -0.000120793 -5.45043e-005 -0.00012395 -4.88224e-005 -0.000126896 -4.293e-005 -0.000129421 -3.68272e-005 -0.000131736 -3.0514e-005 -0.000134262 -2.37799e-005 -0.000136787 -1.74666e-005 -0.000138681 -1.05221e-005 -0.000140575 -3.5775e-006 0 -0.000497483 0.000165828 3.99839e-006 0.000163934 1.26265e-005 0.000161198 2.04128e-005 0.000159094 2.84096e-005 0.000156148 3.59855e-005 0.000153412 4.35614e-005 0.000149624 5.09268e-005 0.000146678 5.76609e-005 0.0001431 6.46055e-005 0.000139312 7.15501e-005 0.000134893 7.76529e-005 0.000130684 8.37557e-005 0.000126475 8.98585e-005 0.000122266 9.57508e-005 0.000116795 0.000101433 0.000112165 0.000106694 0.000106694 0.000112165 0.000101433 0.000116795 9.57508e-005 0.000122266 8.98585e-005 0.000126475 8.37557e-005 0.000130684 7.76529e-005 0.000134893 7.15501e-005 0.000139312 6.46055e-005 0.0001431 5.76609e-005 0.000146678 5.09268e-005 0.000149624 4.35614e-005 0.000153412 3.59855e-005 0.000156148 2.84096e-005 0.000159094 2.04128e-005 0.000161198 1.26265e-005 0.000163934 3.99839e-006 0.000165828 0 0zm-0.00322649 0.00322649l0 -0.000497483 0 0 0.000140575 -3.5775e-006 0.000138681 -1.05221e-005 0.000136787 -1.74666e-005 0.000134262 -2.37799e-005 0.000131736 -3.0514e-005 0.000129421 -3.68272e-005 0.000126896 -4.293e-005 0.00012395 -4.88224e-005 0.000120793 -5.45043e-005 0.000117426 -6.01862e-005 0.00011427 -6.58682e-005 0.000110903 -7.11292e-005 0.000107115 -7.59693e-005 0.000102906 -8.10199e-005 9.91179e-005 -8.58601e-005 9.49091e-005 -9.02794e-005 9.02794e-005 -9.49091e-005 8.58601e-005 -9.91179e-005 8.10199e-005 -0.000102906 7.59693e-005 -0.000107115 7.11292e-005 -0.000110903 6.58682e-005 -0.00011427 6.01862e-005 -0.000117426 5.45043e-005 -0.000120793 4.88224e-005 -0.00012395 4.293e-005 -0.000126896 3.68272e-005 -0.000129421 3.0514e-005 -0.000131736 2.37799e-005 -0.000134262 1.74666e-005 -0.000136787 1.05221e-005 -0.000138681 3.5775e-006 -0.000140575 0.000497483 0 -3.99839e-006 0.000165828 -1.26265e-005 0.000163934 -2.04128e-005 0.000161198 -2.84096e-005 0.000159094 -3.59855e-005 0.000156148 -4.35614e-005 0.000153412 -5.09268e-005 0.000149624 -5.76609e-005 0.000146678 -6.46055e-005 0.0001431 -7.15501e-005 0.000139312 -7.76529e-005 0.000134893 -8.37557e-005 0.000130684 -8.98585e-005 0.000126475 -9.57508e-005 0.000122266 -0.000101433 0.000116795 -0.000106694 0.000112165 -0.000112165 0.000106694 -0.000116795 0.000101433 -0.000122266 9.57508e-005 -0.000126475 8.98585e-005 -0.000130684 8.37557e-005 -0.000134893 7.76529e-005 -0.000139312 7.15501e-005 -0.0001431 6.46055e-005 -0.000146678 5.76609e-005 -0.000149624 5.09268e-005 -0.000153412 4.35614e-005 -0.000156148 3.59855e-005 -0.000159094 2.84096e-005 -0.000161198 2.04128e-005 -0.000163934 1.26265e-005 -0.000165828 3.99839e-006 0 0z"/>
    </g>
    <g>
     <path class="fil2" d="M0.0185641 0.0159464c-0.000317977,0 -0.000575978,-0.000257791 -0.000575978,-0.000575978 0,-0.000317977 0.000258001,-0.000575978 0.000575978,-0.000575978 0.000318187,0 0.000575978,0.000258001 0.000575978,0.000575978 0,0.000318187 -0.000257791,0.000575978 -0.000575978,0.000575978z"/>
     <path id="1" class="fil4" d="M0.0178014 0.0153704l0.000373323 0 0 0 6.31324e-007 2.04128e-005 1.26265e-006 1.97815e-005 2.5253e-006 1.91502e-005 3.5775e-006 1.97815e-005 4.20883e-006 1.85188e-005 5.26104e-006 1.8098e-005 6.1028e-006 1.83084e-005 6.94457e-006 1.76771e-005 7.78633e-006 1.72562e-005 8.41766e-006 1.66249e-005 9.04898e-006 1.53622e-005 1.07325e-005 1.66249e-005 1.0943e-005 1.57831e-005 1.11534e-005 1.40996e-005 1.26265e-005 1.431e-005 1.28369e-005 1.36787e-005 1.34682e-005 1.26265e-005 1.38891e-005 1.22056e-005 1.51518e-005 1.17847e-005 1.55727e-005 1.11534e-005 1.53622e-005 9.89075e-006 1.6204e-005 9.25942e-006 1.68353e-005 8.6281e-006 1.74666e-005 7.99677e-006 1.74666e-005 6.73412e-006 1.8098e-005 6.1028e-006 1.78875e-005 5.26104e-006 1.89397e-005 4.20883e-006 1.97815e-005 3.5775e-006 1.89397e-005 2.5253e-006 1.97815e-005 1.26265e-006 2.04128e-005 6.31324e-007 0 0.000373323 -3.89317e-005 -1.05221e-006 -3.87212e-005 -2.94618e-006 -3.87212e-005 -5.05059e-006 -3.66168e-005 -6.52368e-006 -3.70377e-005 -8.41766e-006 -3.68272e-005 -1.03116e-005 -3.53542e-005 -1.19952e-005 -3.47228e-005 -1.38891e-005 -3.34602e-005 -1.51518e-005 -3.28289e-005 -1.66249e-005 -3.21975e-005 -1.85188e-005 -3.13558e-005 -1.99919e-005 -2.94618e-005 -2.12546e-005 -2.862e-005 -2.23068e-005 -2.77783e-005 -2.39903e-005 -2.65156e-005 -2.5253e-005 -2.54634e-005 -2.67261e-005 -2.35694e-005 -2.73574e-005 -2.29381e-005 -2.92514e-005 -2.10441e-005 -2.96722e-005 -1.95711e-005 -3.00931e-005 -1.87293e-005 -3.26184e-005 -1.68353e-005 -3.30393e-005 -1.53622e-005 -3.36706e-005 -1.36787e-005 -3.49333e-005 -1.19952e-005 -3.51437e-005 -1.03116e-005 -3.66168e-005 -8.41766e-006 -3.70377e-005 -6.52368e-006 -3.70377e-005 -5.05059e-006 -3.85108e-005 -2.94618e-006 -3.87212e-005 -1.05221e-006 -3.89317e-005 0 0zm0.00076264 -0.00076264l0 0.000373323 0 0 -2.04128e-005 6.31324e-007 -1.97815e-005 1.26265e-006 -1.89397e-005 2.5253e-006 -1.97815e-005 3.5775e-006 -1.89397e-005 4.20883e-006 -1.78875e-005 5.26104e-006 -1.8098e-005 6.1028e-006 -1.74666e-005 6.73412e-006 -1.74666e-005 7.99677e-006 -1.68353e-005 8.6281e-006 -1.57831e-005 9.04898e-006 -1.57831e-005 1.03116e-005 -1.59935e-005 1.11534e-005 -1.47309e-005 1.15743e-005 -1.34682e-005 1.17847e-005 -1.38891e-005 1.32578e-005 -1.32578e-005 1.38891e-005 -1.17847e-005 1.34682e-005 -1.15743e-005 1.47309e-005 -1.11534e-005 1.59935e-005 -1.03116e-005 1.57831e-005 -9.04898e-006 1.57831e-005 -8.6281e-006 1.68353e-005 -7.99677e-006 1.74666e-005 -6.73412e-006 1.74666e-005 -6.1028e-006 1.8098e-005 -5.26104e-006 1.78875e-005 -4.20883e-006 1.89397e-005 -3.5775e-006 1.97815e-005 -2.5253e-006 1.89397e-005 -1.26265e-006 1.97815e-005 -6.31324e-007 2.04128e-005 -0.000373323 0 1.05221e-006 -3.89317e-005 2.94618e-006 -3.87212e-005 5.05059e-006 -3.87212e-005 6.52368e-006 -3.66168e-005 8.41766e-006 -3.70377e-005 1.03116e-005 -3.68272e-005 1.19952e-005 -3.53542e-005 1.38891e-005 -3.47228e-005 1.51518e-005 -3.34602e-005 1.66249e-005 -3.28289e-005 1.87293e-005 -3.26184e-005 1.99919e-005 -3.09349e-005 2.08337e-005 -2.90409e-005 2.25172e-005 -2.90409e-005 2.44112e-005 -2.81991e-005 2.50425e-005 -2.60947e-005 2.60947e-005 -2.50425e-005 2.81991e-005 -2.44112e-005 2.90409e-005 -2.25172e-005 2.90409e-005 -2.08337e-005 3.09349e-005 -1.99919e-005 3.26184e-005 -1.87293e-005 3.28289e-005 -1.66249e-005 3.34602e-005 -1.51518e-005 3.47228e-005 -1.38891e-005 3.53542e-005 -1.19952e-005 3.68272e-005 -1.03116e-005 3.70377e-005 -8.41766e-006 3.66168e-005 -6.52368e-006 3.87212e-005 -5.05059e-006 3.87212e-005 -2.94618e-006 3.89317e-005 -1.05221e-006 0 0zm0.00076264 0.00076264l-0.000373323 0 0 0 -6.31324e-007 -2.04128e-005 -1.26265e-006 -1.97815e-005 -2.5253e-006 -1.89397e-005 -3.5775e-006 -1.97815e-005 -4.20883e-006 -1.89397e-005 -5.26104e-006 -1.78875e-005 -6.1028e-006 -1.8098e-005 -6.73412e-006 -1.74666e-005 -7.99677e-006 -1.74666e-005 -8.6281e-006 -1.68353e-005 -9.25942e-006 -1.6204e-005 -9.89075e-006 -1.53622e-005 -1.11534e-005 -1.55727e-005 -1.17847e-005 -1.51518e-005 -1.17847e-005 -1.34682e-005 -1.32578e-005 -1.38891e-005 -1.38891e-005 -1.32578e-005 -1.38891e-005 -1.22056e-005 -1.40996e-005 -1.11534e-005 -1.57831e-005 -1.0943e-005 -1.66249e-005 -1.07325e-005 -1.53622e-005 -9.04898e-006 -1.66249e-005 -8.41766e-006 -1.72562e-005 -7.78633e-006 -1.76771e-005 -6.94457e-006 -1.83084e-005 -6.1028e-006 -1.8098e-005 -5.26104e-006 -1.85188e-005 -4.20883e-006 -1.97815e-005 -3.5775e-006 -1.91502e-005 -2.5253e-006 -1.97815e-005 -1.26265e-006 -2.04128e-005 -6.31324e-007 0 -0.000373323 3.89317e-005 1.05221e-006 3.87212e-005 2.94618e-006 3.85108e-005 5.05059e-006 3.70377e-005 6.52368e-006 3.70377e-005 8.41766e-006 3.66168e-005 1.03116e-005 3.51437e-005 1.19952e-005 3.49333e-005 1.36787e-005 3.36706e-005 1.53622e-005 3.30393e-005 1.68353e-005 3.26184e-005 1.87293e-005 3.00931e-005 1.95711e-005 2.96722e-005 2.10441e-005 2.92514e-005 2.29381e-005 2.77783e-005 2.39903e-005 2.60947e-005 2.50425e-005 2.50425e-005 2.60947e-005 2.44112e-005 2.81991e-005 2.23068e-005 2.862e-005 2.12546e-005 2.94618e-005 1.99919e-005 3.13558e-005 1.85188e-005 3.21975e-005 1.66249e-005 3.28289e-005 1.51518e-005 3.34602e-005 1.38891e-005 3.47228e-005 1.19952e-005 3.53542e-005 1.03116e-005 3.68272e-005 8.41766e-006 3.70377e-005 6.52368e-006 3.66168e-005 5.05059e-006 3.87212e-005 2.94618e-006 3.87212e-005 1.05221e-006 3.89317e-005 0 0zm-0.00076264 0.00076264l0 -0.000373323 0 0 2.04128e-005 -6.31324e-007 1.97815e-005 -1.26265e-006 1.91502e-005 -2.5253e-006 1.97815e-005 -3.5775e-006 1.85188e-005 -4.20883e-006 1.8098e-005 -5.26104e-006 1.83084e-005 -6.1028e-006 1.76771e-005 -6.94457e-006 1.72562e-005 -7.78633e-006 1.66249e-005 -8.41766e-006 1.59935e-005 -9.25942e-006 1.59935e-005 -1.03116e-005 1.53622e-005 -1.0943e-005 1.45205e-005 -1.13638e-005 1.431e-005 -1.26265e-005 1.34682e-005 -1.26265e-005 1.28369e-005 -1.36787e-005 1.26265e-005 -1.431e-005 1.13638e-005 -1.45205e-005 1.0943e-005 -1.53622e-005 1.03116e-005 -1.59935e-005 9.25942e-006 -1.59935e-005 8.41766e-006 -1.66249e-005 7.78633e-006 -1.72562e-005 6.94457e-006 -1.76771e-005 6.1028e-006 -1.83084e-005 5.26104e-006 -1.8098e-005 4.20883e-006 -1.85188e-005 3.5775e-006 -1.97815e-005 2.5253e-006 -1.91502e-005 1.26265e-006 -1.97815e-005 6.31324e-007 -2.04128e-005 0.000373323 0 -1.05221e-006 3.89317e-005 -2.94618e-006 3.87212e-005 -5.05059e-006 3.85108e-005 -6.52368e-006 3.70377e-005 -8.41766e-006 3.70377e-005 -1.03116e-005 3.66168e-005 -1.19952e-005 3.51437e-005 -1.36787e-005 3.49333e-005 -1.53622e-005 3.36706e-005 -1.68353e-005 3.30393e-005 -1.85188e-005 3.19871e-005 -1.95711e-005 3.07244e-005 -2.1465e-005 3.00931e-005 -2.27277e-005 2.88305e-005 -2.35694e-005 2.73574e-005 -2.54634e-005 2.67261e-005 -2.65156e-005 2.5253e-005 -2.73574e-005 2.35694e-005 -2.88305e-005 2.27277e-005 -3.00931e-005 2.1465e-005 -3.07244e-005 1.95711e-005 -3.19871e-005 1.85188e-005 -3.30393e-005 1.68353e-005 -3.36706e-005 1.53622e-005 -3.49333e-005 1.36787e-005 -3.51437e-005 1.19952e-005 -3.66168e-005 1.03116e-005 -3.70377e-005 8.41766e-006 -3.70377e-005 6.52368e-006 -3.85108e-005 5.05059e-006 -3.87212e-005 2.94618e-006 -3.89317e-005 1.05221e-006 0 0z"/>
    </g>
    <g>
     <polygon class="fil4" points="0.0186885,0.0124083 0.0186885,0.0147945 0.0184397,0.0147945 0.0184397,0.0124083 "/>
    </g>
    <g>
     <polygon class="fil4" points="0.0174727,0.0126141 0.0184433,0.014794 0.018216,0.014895 0.0172455,0.0127151 "/>
    </g>
    <g>
     <polygon class="fil4" points="0.0164155,0.0132692 0.0182194,0.0148934 0.0180527,0.0150781 0.0162488,0.0134539 "/>
    </g>
    <g>
     <polygon class="fil4" points="0.0157696,0.0143325 0.0180548,0.0150752 0.0179778,0.0153117 0.0156926,0.0145691 "/>
    </g>
    <g>
     <polygon class="fil4" points="0.0155895,0.0155592 0.0179786,0.0153081 0.0180047,0.0155556 0.0156156,0.0158067 "/>
    </g>
    <g>
     <polygon class="fil4" points="0.0159094,0.0167612 0.0180037,0.015552 0.0181283,0.0157675 0.016034,0.0169767 "/>
    </g>
    <g>
     <polygon class="fil4" points="0.016684,0.0177495 0.0181259,0.0157646 0.0183271,0.0159106 0.0168852,0.0178955 "/>
    </g>
    <g>
     <polygon class="fil4" points="0.0178248,0.0182581 0.018324,0.0159089 0.0185672,0.0159607 0.0180681,0.0183099 "/>
    </g>
    <g>
     <polygon class="fil4" points="0.019063,0.0183092 0.0185637,0.0159605 0.0188069,0.0159087 0.0193063,0.0182575 "/>
    </g>
    <g>
     <polygon class="fil4" points="0.0202148,0.0178522 0.0188036,0.0159098 0.0190048,0.0157637 0.020416,0.0177061 "/>
    </g>
    <g>
     <polygon class="fil4" points="0.021163,0.0170474 0.019001,0.0157654 0.0191277,0.0155516 0.0212897,0.0168336 "/>
    </g>
    <g>
     <polygon class="fil4" points="0.0216264,0.015817 0.0191251,0.0155541 0.0191512,0.0153067 0.0216525,0.0155695 "/>
    </g>
    <g>
     <polygon class="fil4" points="0.0214354,0.0145682 0.0191512,0.0153105 0.0190742,0.0150739 0.0213583,0.0143317 "/>
    </g>
    <g>
     <polygon class="fil4" points="0.0209574,0.013383 0.0190761,0.0150771 0.0189094,0.0148923 0.0207908,0.0131983 "/>
    </g>
    <g>
     <polygon class="fil4" points="0.0198892,0.0126999 0.0189122,0.0148946 0.0186849,0.0147936 0.019662,0.0125989 "/>
    </g>
    <g>
     <polygon class="fil4" points="0.0186885,0.0122894 0.0186885,0.0147945 0.0184397,0.0147945 0.0184397,0.0122894 "/>
    </g>
   </g>
   <circle class="fil5" cx="0.0128285" cy="0.0128285" r="0.0128285"/>
  </g>
 </g>
</svg>
