<?xml version="1.0" encoding="UTF-8"?>
<!DOCTYPE svg PUBLIC "-//W3C//DTD SVG 1.1//EN" "http://www.w3.org/Graphics/SVG/1.1/DTD/svg11.dtd">
<!-- Creator: CorelDRAW -->
<svg xmlns="http://www.w3.org/2000/svg" xml:space="preserve" width="0.506945in" height="0.506945in" style="shape-rendering:geometricPrecision; text-rendering:geometricPrecision; image-rendering:optimizeQuality; fill-rule:evenodd; clip-rule:evenodd"
viewBox="0 0 0.0285328 0.0285328"
 xmlns:xlink="http://www.w3.org/1999/xlink">
 <defs>
  <style type="text/css">
   <![CDATA[
    .str0 {stroke:black;stroke-width:0.000390884}
    .fil5 {fill:none}
    .fil2 {fill:black}
    .fil1 {fill:#847059}
    .fil3 {fill:black;fill-rule:nonzero}
    .fil0 {fill:#847059;fill-rule:nonzero}
    .fil4 {fill:#848688;fill-rule:nonzero}
   ]]>
  </style>
 </defs>
 <g id="Mine">
  <metadata id="CorelCorpID_0Corel-Layer"/>
  <g id="_824957624">
   <g>
    <path id="_297336712" class="fil0" d="M0.0132929 0.0178455l-0.000330169 -0.0014328 0.000382907 -8.81927e-005 0.000330169 0.0014328 -0.000191453 0.000240646 -0.000191453 -0.000152454zm0.000191453 0.000152454l-0.000156221 0 -3.52328e-005 -0.000152454 0.000191453 0.000152454zm0.000946188 0l-0.000946188 0 0 -0.0003931 0.000946188 0 0.000189459 0.000248845 -0.000189459 0.000144255zm0.000189459 -0.000144255l-3.98861e-005 0.000144255 -0.000149573 0 0.000189459 -0.000144255zm0.000390219 -0.00141463l-0.000390219 0.00141463 -0.000378918 -0.00010459 0.000390219 -0.00141463 0.000378918 0.00010459z"/>
   </g>
   <path class="fil1" d="M0.0153943 0.00736697c0.00152653,8.93006e-005 0.00229811,6.44826e-005 0.00301495,0.000157993 0.000716843,9.37324e-005 0.00150703,-6.0494e-005 0.0014215,0.00111216 -8.55336e-005,0.00117265 -0.00015467,0.0043939 -0.00015467,0.0043939 0,0 0.000298038,-1.19658e-005 0.000370055,-0.000441628 7.20166e-005,-0.000429441 -4.83065e-005,-0.000909182 0.000184363,-0.000875722 0.000232669,3.36816e-005 0.00139003,8.33177e-005 0.00165439,0.000157993 0.000264135,7.48973e-005 8.642e-006,0.000410827 7.00223e-005,0.000714405 6.13803e-005,0.000303356 0.000111238,0.000795507 0.000780439,0.000902756 0.000669201,0.000107249 0.000835615,-4.60907e-005 0.000640837,-0.000328617 -0.000194777,-0.000282305 -0.0006774,-0.000802155 -0.000743433,-0.000963472 -6.60337e-005,-0.000161317 -2.14942e-005,-0.000483065 -2.14942e-005,-0.000483065l0.000909404 5.45111e-005c0,0 4.98577e-005,0.000430992 0.000151346,0.000565497 0.00010171,0.000134283 0.000295157,0.000280089 0.000495031,0.000393322 0.000199874,0.000113232 0.000449605,8.39825e-005 0.000241311,0.000379362 -0.000208073,0.000295157 -0.000913836,0.00119725 -0.00108114,0.00142526 -0.0001673,0.000228016 -0.000216272,-2.39317e-005 -0.00081124,-0.000131624 -0.000594968,-0.000107693 -0.00164242,-0.000313993 -0.00234885,-0.000165527 -0.000706428,0.000148243 -0.00125819,0.000209181 -0.00254075,0.00108668 -0.00128256,0.000877495 -0.00199187,0.00121387 -0.00363872,0.0012316 -0.00164708,1.77272e-005 -0.00276322,-0.00068715 -0.0036323,-0.00117132 -0.000869296,-0.000484395 -0.00122739,-0.000821211 -0.0026285,-0.000795064 -0.00140089,2.5926e-005 -0.00117974,0.00017705 -0.00155312,0.000247737 -0.000373157,7.04655e-005 -0.000109465,0.000155999 -0.000105698,-0.00010592 3.76702e-006,-0.000261697 -3.76702e-005,-0.000713519 0.000428333,-0.000586105 0.000466225,0.000127414 0.00125553,0.000130073 0.00125553,0.000130073 0,0 -8.5312e-005,-0.000831404 -0.000175056,-0.0018126 -8.95222e-005,-0.000981199 -4.16589e-005,-0.00217047 -4.43179e-005,-0.00296398 -2.43749e-006,-0.000793513 -0.000103261,-0.00194157 0.0016473,-0.00204549 0.00175056,-0.000104147 0.00321815,-0.000138715 0.00386585,-0.000144255 0.000647928,-5.53974e-006 0.00234863,6.11588e-005 0.00234863,6.11588e-005z"/>
   <path class="fil2" d="M0.0118535 0.00830407l-0.00277785 0c-2.88067e-006,0.00107227 2.88067e-006,0.00214454 0,0.00321704 0.000448276,0.000213391 0.00119703,0.000283635 0.00156442,0.000383793 0.000501679,0.000136942 0.000841376,0.000180596 0.00121343,0.000222254l0 -0.00382309z"/>
   <g>
    <path class="fil3" d="M0.0126364 0.00789258l-4.34316e-005 0.00849974 -0.000131181 -8.86359e-007 4.34316e-005 -0.00849974 6.55905e-005 -6.51474e-005 6.55905e-005 6.60337e-005zm-0.000131181 -8.86359e-007l4.43179e-007 -6.51474e-005 6.51474e-005 0 -6.55905e-005 6.51474e-005zm0.00336661 6.60337e-005l-0.00330102 0 0 -0.000131181 0.00330102 0 6.55905e-005 6.58121e-005 -6.55905e-005 6.5369e-005zm0 -0.000131181l6.58121e-005 0 -2.2159e-007 6.58121e-005 -6.55905e-005 -6.58121e-005zm-8.35393e-005 0.00846384l1.79488e-005 -0.00839847 0.000131181 4.43179e-007 -1.79488e-005 0.00839847 -0.000131181 -4.43179e-007z"/>
   </g>
   <g id="Rear_x0020_wheel">
    <g>
     <path class="fil4" d="M0.00449184 0.016412l0.000523838 0 0 0 4.65338e-006 0.000175499 1.28522e-005 0.000173062 2.19374e-005 0.000170181 2.9693e-005 0.000167743 3.81134e-005 0.00016442 4.58691e-005 0.000161539 5.34031e-005 0.000158215 6.09372e-005 0.000154226 6.82496e-005 0.000150903 7.51189e-005 0.000146914 8.17666e-005 0.000142482 8.88575e-005 0.00013805 9.48404e-005 0.000133619 0.000101045 0.000128522 0.000107028 0.000123647 0.000112789 0.000118329 0.000118329 0.000112789 0.000123647 0.000107028 0.000128522 0.000101045 0.000133619 9.48404e-005 0.00013805 8.88575e-005 0.000142482 8.17666e-005 0.000146914 7.51189e-005 0.000150903 6.82496e-005 0.000154226 6.09372e-005 0.000158215 5.34031e-005 0.000161539 4.58691e-005 0.00016442 3.81134e-005 0.000167743 2.9693e-005 0.000170181 2.19374e-005 0.000173062 1.28522e-005 0.000175499 4.65338e-006 0 0.000523838 -0.000201647 -5.09656e-006 -0.000199652 -1.50681e-005 -0.000196772 -2.50396e-005 -0.000193448 -3.4568e-005 -0.000190124 -4.38748e-005 -0.000186357 -5.29599e-005 -0.00018259 -6.18235e-005 -0.000178601 -7.02439e-005 -0.000173948 -7.88859e-005 -0.000169516 -8.66416e-005 -0.000164641 -9.46188e-005 -0.000159323 -0.000102153 -0.000154005 -0.000109465 -0.000148465 -0.000116556 -0.000142261 -0.000123425 -0.000136499 -0.000130073 -0.000130073 -0.000136499 -0.000123425 -0.000142261 -0.000116556 -0.000148465 -0.000109465 -0.000154005 -0.000102153 -0.000159323 -9.46188e-005 -0.000164641 -8.66416e-005 -0.000169516 -7.88859e-005 -0.000173948 -7.02439e-005 -0.000178601 -6.18235e-005 -0.00018259 -5.29599e-005 -0.000186357 -4.38748e-005 -0.000190124 -3.4568e-005 -0.000193448 -2.50396e-005 -0.000196772 -1.50681e-005 -0.000199652 -5.09656e-006 -0.000201647 0 0zm0.00392834 -0.00392812l0 0.000523838 0 0 -0.000175499 4.65338e-006 -0.000173062 1.28522e-005 -0.000170181 2.19374e-005 -0.000167743 2.9693e-005 -0.00016442 3.81134e-005 -0.000161539 4.58691e-005 -0.000158215 5.34031e-005 -0.000154448 6.09372e-005 -0.000150681 6.8028e-005 -0.000146914 7.53405e-005 -0.000142482 8.17666e-005 -0.00013805 8.88575e-005 -0.000133619 9.48404e-005 -0.000128522 0.000101045 -0.000123647 0.000107028 -0.000118329 0.000112789 -0.000112789 0.000118107 -0.000107028 0.000123647 -0.000101045 0.000128744 -9.48404e-005 0.000133397 -8.88575e-005 0.000138272 -8.17666e-005 0.000142261 -7.51189e-005 0.000146914 -6.82496e-005 0.000150903 -6.09372e-005 0.000154226 -5.34031e-005 0.000158215 -4.58691e-005 0.000161539 -3.81134e-005 0.00016442 -2.9693e-005 0.000167743 -2.19374e-005 0.000170181 -1.28522e-005 0.000173062 -4.65338e-006 0.000175499 -0.000523838 0 5.09656e-006 -0.000201647 1.50681e-005 -0.000199652 2.50396e-005 -0.000196772 3.4568e-005 -0.000193448 4.38748e-005 -0.000190124 5.29599e-005 -0.000186357 6.18235e-005 -0.00018259 7.02439e-005 -0.000178601 7.88859e-005 -0.000173948 8.66416e-005 -0.000169516 9.46188e-005 -0.00016442 0.000102153 -0.000159545 0.000109465 -0.000153783 0.000116556 -0.000148243 0.000123425 -0.000142704 0.000130073 -0.000136278 0.000136499 -0.000130073 0.000142261 -0.000123425 0.000148465 -0.000116556 0.000154005 -0.000109465 0.000159323 -0.000102153 0.000164641 -9.46188e-005 0.000169516 -8.68632e-005 0.000174169 -7.86643e-005 0.00017838 -7.02439e-005 0.00018259 -6.18235e-005 0.000186357 -5.29599e-005 0.000190124 -4.38748e-005 0.000193448 -3.4568e-005 0.000196772 -2.50396e-005 0.000199652 -1.50681e-005 0.000201647 -5.09656e-006 0 0zm0.00392812 0.00392812l-0.000523838 0 0 0 -4.65338e-006 -0.000175499 -1.28522e-005 -0.000173062 -2.19374e-005 -0.000170181 -2.9693e-005 -0.000167743 -3.81134e-005 -0.00016442 -4.58691e-005 -0.000161539 -5.34031e-005 -0.000158215 -6.09372e-005 -0.000154448 -6.8028e-005 -0.000150681 -7.53405e-005 -0.000146914 -8.17666e-005 -0.000142261 -8.88575e-005 -0.000138272 -9.48404e-005 -0.000133397 -0.000101045 -0.000128744 -0.000107028 -0.000123647 -0.000112789 -0.000118107 -0.000118107 -0.000112789 -0.000123647 -0.000107028 -0.000128744 -0.000101045 -0.000133397 -9.48404e-005 -0.000138272 -8.88575e-005 -0.000142261 -8.17666e-005 -0.000146914 -7.53405e-005 -0.000150681 -6.8028e-005 -0.000154448 -6.09372e-005 -0.000158215 -5.34031e-005 -0.000161539 -4.58691e-005 -0.00016442 -3.81134e-005 -0.000167743 -2.9693e-005 -0.000170181 -2.19374e-005 -0.000173062 -1.28522e-005 -0.000175499 -4.65338e-006 0 -0.000523838 0.000201647 5.09656e-006 0.000199652 1.50681e-005 0.000196772 2.50396e-005 0.000193448 3.4568e-005 0.000190124 4.38748e-005 0.000186357 5.29599e-005 0.00018259 6.18235e-005 0.00017838 7.02439e-005 0.000174169 7.86643e-005 0.000169516 8.68632e-005 0.00016442 9.46188e-005 0.000159545 0.000102153 0.000153783 0.000109465 0.000148243 0.000116556 0.000142704 0.000123425 0.000136278 0.000130073 0.000130073 0.000136278 0.000123425 0.000142704 0.000116556 0.000148243 0.000109465 0.000153783 0.000102153 0.000159545 9.46188e-005 0.00016442 8.68632e-005 0.000169516 7.86643e-005 0.000174169 7.02439e-005 0.00017838 6.18235e-005 0.00018259 5.29599e-005 0.000186357 4.38748e-005 0.000190124 3.4568e-005 0.000193448 2.50396e-005 0.000196772 1.50681e-005 0.000199652 5.09656e-006 0.000201647 0 0zm-0.00392812 0.00392834l0 -0.000523838 0 0 0.000175499 -4.65338e-006 0.000173062 -1.28522e-005 0.000170181 -2.19374e-005 0.000167743 -2.9693e-005 0.00016442 -3.81134e-005 0.000161539 -4.58691e-005 0.000158215 -5.34031e-005 0.000154226 -6.09372e-005 0.000150903 -6.82496e-005 0.000146914 -7.51189e-005 0.000142261 -8.17666e-005 0.000138272 -8.88575e-005 0.000133397 -9.48404e-005 0.000128744 -0.000101045 0.000123647 -0.000107028 0.000118107 -0.000112789 0.000112789 -0.000118329 0.000107028 -0.000123647 0.000101045 -0.000128522 9.48404e-005 -0.000133619 8.88575e-005 -0.00013805 8.17666e-005 -0.000142482 7.53405e-005 -0.000146914 6.8028e-005 -0.000150681 6.09372e-005 -0.000154448 5.34031e-005 -0.000158215 4.58691e-005 -0.000161539 3.81134e-005 -0.00016442 2.9693e-005 -0.000167743 2.19374e-005 -0.000170181 1.28522e-005 -0.000173062 4.65338e-006 -0.000175499 0.000523838 0 -5.09656e-006 0.000201647 -1.50681e-005 0.000199652 -2.50396e-005 0.000196772 -3.4568e-005 0.000193448 -4.38748e-005 0.000190124 -5.29599e-005 0.000186357 -6.18235e-005 0.00018259 -7.02439e-005 0.00017838 -7.86643e-005 0.000174169 -8.68632e-005 0.000169516 -9.46188e-005 0.000164641 -0.000102153 0.000159323 -0.000109465 0.000154005 -0.000116556 0.000148465 -0.000123425 0.000142261 -0.000130073 0.000136499 -0.000136278 0.000130073 -0.000142704 0.000123425 -0.000148243 0.000116556 -0.000153783 0.000109465 -0.000159545 0.000102153 -0.00016442 9.46188e-005 -0.000169516 8.66416e-005 -0.000173948 7.88859e-005 -0.000178601 7.02439e-005 -0.00018259 6.18235e-005 -0.000186357 5.29599e-005 -0.000190124 4.38748e-005 -0.000193448 3.4568e-005 -0.000196772 2.50396e-005 -0.000199652 1.50681e-005 -0.000201647 5.09656e-006 0 0z"/>
    </g>
    <g>
     <path class="fil2" d="M0.00842019 0.0170185c-0.000335044,0 -0.000606491,-0.000271447 -0.000606491,-0.000606491 0,-0.000334822 0.000271447,-0.000606269 0.000606491,-0.000606269 0.000334822,0 0.000606491,0.000271447 0.000606491,0.000606269 0,0.000335044 -0.000271669,0.000606491 -0.000606491,0.000606491z"/>
     <path id="1" class="fil4" d="M0.00761715 0.016412l0.0003931 0 0 0 6.64769e-007 2.14942e-005 1.32954e-006 2.08294e-005 2.65908e-006 2.01647e-005 3.76702e-006 2.08294e-005 4.43179e-006 1.94999e-005 5.53974e-006 1.90567e-005 6.4261e-006 1.92783e-005 7.31246e-006 1.86135e-005 8.19882e-006 1.81704e-005 8.86359e-006 1.75056e-005 9.74995e-006 1.68408e-005 1.08579e-005 1.68408e-005 1.15227e-005 1.6176e-005 1.19658e-005 1.52897e-005 1.3517e-005 1.55113e-005 1.30738e-005 1.39601e-005 1.39601e-005 1.30738e-005 1.55113e-005 1.3517e-005 1.52897e-005 1.19658e-005 1.6176e-005 1.15227e-005 1.68408e-005 1.08579e-005 1.68408e-005 9.74995e-006 1.75056e-005 8.86359e-006 1.81704e-005 8.19882e-006 1.86135e-005 7.31246e-006 1.92783e-005 6.4261e-006 1.90567e-005 5.53974e-006 1.94999e-005 4.43179e-006 2.08294e-005 3.76702e-006 2.01647e-005 2.65908e-006 2.08294e-005 1.32954e-006 2.14942e-005 6.64769e-007 0 0.0003931 -4.09941e-005 -1.10795e-006 -4.07725e-005 -3.10226e-006 -4.05509e-005 -5.31815e-006 -3.89998e-005 -6.86928e-006 -3.89998e-005 -8.86359e-006 -3.85566e-005 -1.08579e-005 -3.70055e-005 -1.26306e-005 -3.67839e-005 -1.44033e-005 -3.54543e-005 -1.6176e-005 -3.47896e-005 -1.77272e-005 -3.36816e-005 -1.94999e-005 -3.23521e-005 -2.06078e-005 -3.16873e-005 -2.26021e-005 -3.03578e-005 -2.39317e-005 -2.83635e-005 -2.45965e-005 -2.85851e-005 -2.68124e-005 -2.68124e-005 -2.85851e-005 -2.45965e-005 -2.83635e-005 -2.39317e-005 -3.03578e-005 -2.26021e-005 -3.16873e-005 -2.06078e-005 -3.23521e-005 -1.94999e-005 -3.36816e-005 -1.77272e-005 -3.47896e-005 -1.6176e-005 -3.54543e-005 -1.44033e-005 -3.67839e-005 -1.26306e-005 -3.70055e-005 -1.08579e-005 -3.85566e-005 -8.86359e-006 -3.89998e-005 -6.86928e-006 -3.89998e-005 -5.31815e-006 -4.05509e-005 -3.10226e-006 -4.07725e-005 -1.10795e-006 -4.09941e-005 0 0zm0.000803041 -0.000802819l0 0.0003931 0 0 -2.14942e-005 6.64769e-007 -2.08294e-005 1.32954e-006 -2.01647e-005 2.65908e-006 -2.08294e-005 3.76702e-006 -1.94999e-005 4.43179e-006 -1.90567e-005 5.53974e-006 -1.92783e-005 6.4261e-006 -1.86135e-005 7.31246e-006 -1.81704e-005 8.19882e-006 -1.75056e-005 8.86359e-006 -1.68408e-005 9.74995e-006 -1.68408e-005 1.08579e-005 -1.6176e-005 1.15227e-005 -1.52897e-005 1.19658e-005 -1.55113e-005 1.3517e-005 -1.44033e-005 1.3517e-005 -1.26306e-005 1.32954e-005 -1.30738e-005 1.52897e-005 -1.26306e-005 1.6176e-005 -1.15227e-005 1.59545e-005 -1.04147e-005 1.6176e-005 -9.74995e-006 1.70624e-005 -9.08518e-006 1.77272e-005 -8.42041e-006 1.83919e-005 -7.09087e-006 1.83919e-005 -6.4261e-006 1.90567e-005 -5.53974e-006 1.88351e-005 -4.43179e-006 1.99431e-005 -3.76702e-006 2.08294e-005 -2.65908e-006 1.99431e-005 -1.32954e-006 2.08294e-005 -6.64769e-007 2.14942e-005 -0.0003931 0 1.10795e-006 -4.09941e-005 3.10226e-006 -4.07725e-005 5.31815e-006 -4.07725e-005 6.86928e-006 -3.85566e-005 8.86359e-006 -3.89998e-005 1.08579e-005 -3.87782e-005 1.26306e-005 -3.72271e-005 1.46249e-005 -3.65623e-005 1.59545e-005 -3.52328e-005 1.75056e-005 -3.4568e-005 1.94999e-005 -3.39032e-005 2.1051e-005 -3.30169e-005 2.26021e-005 -3.14657e-005 2.32669e-005 -2.94714e-005 2.50396e-005 -2.90282e-005 2.72555e-005 -2.88067e-005 2.81419e-005 -2.63692e-005 2.83635e-005 -2.45965e-005 3.03578e-005 -2.39317e-005 3.16873e-005 -2.26021e-005 3.23521e-005 -2.06078e-005 3.36816e-005 -1.94999e-005 3.47896e-005 -1.77272e-005 3.54543e-005 -1.6176e-005 3.67839e-005 -1.44033e-005 3.70055e-005 -1.26306e-005 3.85566e-005 -1.08579e-005 3.89998e-005 -8.86359e-006 3.89998e-005 -6.86928e-006 4.05509e-005 -5.31815e-006 4.07725e-005 -3.10226e-006 4.09941e-005 -1.10795e-006 0 0zm0.000803041 0.000802819l-0.0003931 0 0 0 -6.64769e-007 -2.14942e-005 -1.32954e-006 -2.08294e-005 -2.65908e-006 -1.99431e-005 -3.76702e-006 -2.08294e-005 -4.43179e-006 -1.99431e-005 -5.53974e-006 -1.88351e-005 -6.4261e-006 -1.90567e-005 -7.09087e-006 -1.83919e-005 -8.42041e-006 -1.83919e-005 -9.08518e-006 -1.77272e-005 -9.52836e-006 -1.66192e-005 -1.08579e-005 -1.66192e-005 -1.15227e-005 -1.63976e-005 -1.2409e-005 -1.57329e-005 -1.28522e-005 -1.48465e-005 -1.30738e-005 -1.37386e-005 -1.46249e-005 -1.37386e-005 -1.46249e-005 -1.28522e-005 -1.59545e-005 -1.2409e-005 -1.63976e-005 -1.17443e-005 -1.6176e-005 -1.04147e-005 -1.70624e-005 -9.74995e-006 -1.77272e-005 -9.08518e-006 -1.83919e-005 -8.42041e-006 -1.83919e-005 -7.09087e-006 -1.90567e-005 -6.4261e-006 -1.88351e-005 -5.53974e-006 -1.99431e-005 -4.43179e-006 -2.08294e-005 -3.76702e-006 -1.99431e-005 -2.65908e-006 -2.08294e-005 -1.32954e-006 -2.14942e-005 -6.64769e-007 0 -0.0003931 4.09941e-005 1.10795e-006 4.07725e-005 3.10226e-006 4.07725e-005 5.31815e-006 3.85566e-005 6.86928e-006 3.89998e-005 8.86359e-006 3.87782e-005 1.08579e-005 3.72271e-005 1.26306e-005 3.65623e-005 1.46249e-005 3.52328e-005 1.59545e-005 3.4568e-005 1.75056e-005 3.39032e-005 1.94999e-005 3.30169e-005 2.1051e-005 3.10226e-005 2.23806e-005 3.01362e-005 2.34885e-005 2.92498e-005 2.52612e-005 2.74771e-005 2.61476e-005 2.72555e-005 2.83635e-005 2.52612e-005 2.94714e-005 2.34885e-005 2.99146e-005 2.2159e-005 3.10226e-005 2.1051e-005 3.25737e-005 1.97215e-005 3.43464e-005 1.75056e-005 3.4568e-005 1.59545e-005 3.52328e-005 1.46249e-005 3.65623e-005 1.26306e-005 3.72271e-005 1.08579e-005 3.87782e-005 8.86359e-006 3.89998e-005 6.86928e-006 3.85566e-005 5.31815e-006 4.07725e-005 3.10226e-006 4.07725e-005 1.10795e-006 4.09941e-005 0 0zm-0.000803041 0.000803041l0 -0.0003931 0 0 2.14942e-005 -6.64769e-007 2.08294e-005 -1.32954e-006 1.99431e-005 -2.65908e-006 2.08294e-005 -3.76702e-006 1.99431e-005 -4.43179e-006 1.88351e-005 -5.53974e-006 1.90567e-005 -6.4261e-006 1.83919e-005 -7.09087e-006 1.83919e-005 -8.42041e-006 1.77272e-005 -9.08518e-006 1.70624e-005 -9.74995e-006 1.6176e-005 -1.04147e-005 1.63976e-005 -1.17443e-005 1.59545e-005 -1.2409e-005 1.46249e-005 -1.28522e-005 1.41817e-005 -1.32954e-005 1.3517e-005 -1.44033e-005 1.32954e-005 -1.50681e-005 1.17443e-005 -1.48465e-005 1.15227e-005 -1.66192e-005 1.13011e-005 -1.75056e-005 9.52836e-006 -1.6176e-005 8.86359e-006 -1.75056e-005 8.19882e-006 -1.81704e-005 7.31246e-006 -1.86135e-005 6.4261e-006 -1.92783e-005 5.53974e-006 -1.90567e-005 4.43179e-006 -1.94999e-005 3.76702e-006 -2.08294e-005 2.65908e-006 -2.01647e-005 1.32954e-006 -2.08294e-005 6.64769e-007 -2.14942e-005 0.0003931 0 -1.10795e-006 4.09941e-005 -3.10226e-006 4.07725e-005 -5.31815e-006 4.05509e-005 -6.86928e-006 3.89998e-005 -8.86359e-006 3.89998e-005 -1.08579e-005 3.85566e-005 -1.26306e-005 3.70055e-005 -1.44033e-005 3.67839e-005 -1.6176e-005 3.54543e-005 -1.77272e-005 3.47896e-005 -1.97215e-005 3.43464e-005 -2.06078e-005 3.16873e-005 -2.2159e-005 3.12441e-005 -2.41533e-005 3.0801e-005 -2.4818e-005 2.88067e-005 -2.68124e-005 2.81419e-005 -2.79203e-005 2.65908e-005 -2.92498e-005 2.52612e-005 -3.01362e-005 2.34885e-005 -3.10226e-005 2.23806e-005 -3.30169e-005 2.1051e-005 -3.39032e-005 1.94999e-005 -3.4568e-005 1.75056e-005 -3.52328e-005 1.59545e-005 -3.65623e-005 1.46249e-005 -3.72271e-005 1.26306e-005 -3.87782e-005 1.08579e-005 -3.89998e-005 8.86359e-006 -3.85566e-005 6.86928e-006 -4.07725e-005 5.31815e-006 -4.07725e-005 3.10226e-006 -4.09941e-005 1.10795e-006 0 0z"/>
    </g>
    <g>
     <polygon class="fil4" points="0.00855115,0.0127458 0.00855115,0.0158058 0.00828923,0.0158058 0.00828923,0.0127458 "/>
    </g>
    <g>
     <polygon class="fil4" points="0.00704832,0.01301 0.00829299,0.0158053 0.00805368,0.0159117 0.00680901,0.0131163 "/>
    </g>
    <g>
     <polygon class="fil4" points="0.00578305,0.0138622 0.008057,0.0159097 0.0078815,0.0161043 0.00560755,0.0140568 "/>
    </g>
    <g>
     <polygon class="fil4" points="0.0049738,0.0151556 0.00788394,0.0161011 0.00780284,0.0163502 0.0048927,0.0154047 "/>
    </g>
    <g>
     <polygon class="fil4" points="0.00476041,0.0166664 0.0078035,0.0163464 0.00783098,0.016607 0.00478789,0.016927 "/>
    </g>
    <g>
     <polygon class="fil4" points="0.0051801,0.0181331 0.00783009,0.0166033 0.00796127,0.0168302 0.00531128,0.01836 "/>
    </g>
    <g>
     <polygon class="fil4" points="0.00616019,0.0193027 0.00795884,0.0168271 0.00817068,0.0169809 0.00637203,0.0194565 "/>
    </g>
    <g>
     <polygon class="fil4" points="0.00753117,0.0199723 0.00816735,0.0169791 0.00842351,0.0170336 0.00778733,0.0200268 "/>
    </g>
    <g>
     <polygon class="fil4" points="0.00905593,0.0200264 0.00841974,0.0170334 0.0086759,0.0169789 0.00931208,0.0199719 "/>
    </g>
    <g>
     <polygon class="fil4" points="0.0104708,0.0194556 0.00867236,0.0169802 0.00888419,0.0168264 0.0106826,0.0193018 "/>
    </g>
    <g>
     <polygon class="fil4" points="0.0115313,0.0183589 0.00888131,0.0168288 0.0090125,0.0166019 0.0116625,0.018132 "/>
    </g>
    <g>
     <polygon class="fil4" points="0.012054,0.0169255 0.00901072,0.0166057 0.0090382,0.0163451 0.0120815,0.0166649 "/>
    </g>
    <g>
     <polygon class="fil4" points="0.0119486,0.0154034 0.00903842,0.0163489 0.00895732,0.0160998 0.0118675,0.0151543 "/>
    </g>
    <g>
     <polygon class="fil4" points="0.011233,0.0140557 0.00895909,0.0161031 0.00878359,0.0159086 0.0110575,0.0138611 "/>
    </g>
    <g>
     <polygon class="fil4" points="0.0100314,0.0131157 0.0087867,0.015911 0.00854738,0.0158047 0.00979205,0.0130093 "/>
    </g>
    <g>
     <polygon class="fil4" points="0.00855115,0.0127458 0.00855115,0.0158058 0.00828923,0.0158058 0.00828923,0.0127458 "/>
    </g>
   </g>
   <rect class="fil2" x="0.012996" y="0.00831739" width="0.00243178" height="0.00407424"/>
   <path class="fil2" d="M0.016559 0.0083074l0.00220969 0c2.88067e-006,0.00107227 5.76133e-006,0.00214477 8.86359e-006,0.00321704 -0.000448276,0.000213391 -0.000637735,0.000283635 -0.00100513,0.000384015 -0.000501679,0.000136942 -0.000841376,0.000180374 -0.00121343,0.000222254l0 -0.00382331z"/>
   <g id="Front_x0020_wheel">
    <g>
     <path class="fil4" d="M0.0169084 0.016943l0.000523838 0 0 0 3.76702e-006 0.000148022 1.10795e-005 0.000146028 1.83919e-005 0.000144033 2.50396e-005 0.000141374 3.21305e-005 0.000138715 3.87782e-005 0.000136278 4.52043e-005 0.000133619 5.14088e-005 0.000130516 5.73917e-005 0.000127192 6.33746e-005 0.000123647 6.93576e-005 0.000120323 7.48973e-005 0.000116778 7.99939e-005 0.000112789 8.5312e-005 0.000108357 9.04086e-005 0.000104369 9.5062e-005 9.99369e-005 9.99369e-005 9.5062e-005 0.000104369 9.04086e-005 0.000108357 8.5312e-005 0.000112789 7.99939e-005 0.000116778 7.48973e-005 0.000120323 6.93576e-005 0.000123647 6.33746e-005 0.000127192 5.73917e-005 0.000130516 5.14088e-005 0.000133619 4.52043e-005 0.000136278 3.87782e-005 0.000138715 3.21305e-005 0.000141374 2.50396e-005 0.000144033 1.83919e-005 0.000146028 1.10795e-005 0.000148022 3.76702e-006 0 0.000523838 -0.000174613 -4.2102e-006 -0.000172618 -1.32954e-005 -0.000169738 -2.14942e-005 -0.000167522 -2.99146e-005 -0.00016442 -3.78918e-005 -0.000161539 -4.58691e-005 -0.00015755 -5.36247e-005 -0.000154448 -6.07156e-005 -0.000150681 -6.8028e-005 -0.000146692 -7.53405e-005 -0.000142039 -8.17666e-005 -0.000137607 -8.81927e-005 -0.000133175 -9.46188e-005 -0.000128744 -0.000100823 -0.000122982 -0.000106806 -0.000118107 -0.000112346 -0.000112346 -0.000118107 -0.000106806 -0.000122982 -0.000100823 -0.000128744 -9.46188e-005 -0.000133175 -8.81927e-005 -0.000137607 -8.17666e-005 -0.000142039 -7.53405e-005 -0.000146692 -6.8028e-005 -0.000150681 -6.07156e-005 -0.000154448 -5.36247e-005 -0.00015755 -4.58691e-005 -0.000161539 -3.78918e-005 -0.00016442 -2.99146e-005 -0.000167522 -2.14942e-005 -0.000169738 -1.32954e-005 -0.000172618 -4.2102e-006 -0.000174613 0 0zm0.00339741 -0.00339741l0 0.000523838 0 0 -0.000148022 3.76702e-006 -0.000146028 1.10795e-005 -0.000144033 1.83919e-005 -0.000141374 2.50396e-005 -0.000138715 3.21305e-005 -0.000136278 3.87782e-005 -0.000133619 4.52043e-005 -0.000130516 5.14088e-005 -0.000127192 5.73917e-005 -0.000123647 6.33746e-005 -0.000120323 6.93576e-005 -0.000116778 7.48973e-005 -0.000112789 7.99939e-005 -0.000108357 8.5312e-005 -0.000104369 9.04086e-005 -9.99369e-005 9.5062e-005 -9.5062e-005 9.99369e-005 -9.04086e-005 0.000104369 -8.5312e-005 0.000108357 -7.99939e-005 0.000112789 -7.48973e-005 0.000116778 -6.93576e-005 0.000120323 -6.33746e-005 0.000123647 -5.73917e-005 0.000127192 -5.14088e-005 0.000130516 -4.52043e-005 0.000133619 -3.87782e-005 0.000136278 -3.21305e-005 0.000138715 -2.50396e-005 0.000141374 -1.83919e-005 0.000144033 -1.10795e-005 0.000146028 -3.76702e-006 0.000148022 -0.000523838 0 4.2102e-006 -0.000174613 1.32954e-005 -0.000172618 2.14942e-005 -0.000169738 2.99146e-005 -0.000167522 3.78918e-005 -0.00016442 4.58691e-005 -0.000161539 5.36247e-005 -0.00015755 6.07156e-005 -0.000154448 6.8028e-005 -0.000150681 7.53405e-005 -0.000146692 8.17666e-005 -0.000142039 8.81927e-005 -0.000137607 9.46188e-005 -0.000133175 0.000100823 -0.000128744 0.000106806 -0.000122982 0.000112346 -0.000118107 0.000118107 -0.000112346 0.000122982 -0.000106806 0.000128744 -0.000100823 0.000133175 -9.46188e-005 0.000137607 -8.81927e-005 0.000142039 -8.17666e-005 0.000146692 -7.53405e-005 0.000150681 -6.8028e-005 0.000154448 -6.07156e-005 0.00015755 -5.36247e-005 0.000161539 -4.58691e-005 0.00016442 -3.78918e-005 0.000167522 -2.99146e-005 0.000169738 -2.14942e-005 0.000172618 -1.32954e-005 0.000174613 -4.2102e-006 0 0zm0.00339741 0.00339741l-0.000523838 0 0 0 -3.76702e-006 -0.000148022 -1.10795e-005 -0.000146028 -1.83919e-005 -0.000144033 -2.50396e-005 -0.000141374 -3.21305e-005 -0.000138715 -3.87782e-005 -0.000136278 -4.52043e-005 -0.000133619 -5.14088e-005 -0.000130516 -5.73917e-005 -0.000127192 -6.33746e-005 -0.000123647 -6.93576e-005 -0.000120323 -7.48973e-005 -0.000116778 -7.99939e-005 -0.000112789 -8.5312e-005 -0.000108357 -9.04086e-005 -0.000104369 -9.5062e-005 -9.99369e-005 -9.99369e-005 -9.5062e-005 -0.000104369 -9.04086e-005 -0.000108357 -8.5312e-005 -0.000112789 -7.99939e-005 -0.000116778 -7.48973e-005 -0.000120323 -6.93576e-005 -0.000123647 -6.33746e-005 -0.000127192 -5.73917e-005 -0.000130516 -5.14088e-005 -0.000133619 -4.52043e-005 -0.000136278 -3.87782e-005 -0.000138715 -3.21305e-005 -0.000141374 -2.50396e-005 -0.000144033 -1.83919e-005 -0.000146028 -1.10795e-005 -0.000148022 -3.76702e-006 0 -0.000523838 0.000174613 4.2102e-006 0.000172618 1.32954e-005 0.000169738 2.14942e-005 0.000167522 2.99146e-005 0.00016442 3.78918e-005 0.000161539 4.58691e-005 0.00015755 5.36247e-005 0.000154448 6.07156e-005 0.000150681 6.8028e-005 0.000146692 7.53405e-005 0.000142039 8.17666e-005 0.000137607 8.81927e-005 0.000133175 9.46188e-005 0.000128744 0.000100823 0.000122982 0.000106806 0.000118107 0.000112346 0.000112346 0.000118107 0.000106806 0.000122982 0.000100823 0.000128744 9.46188e-005 0.000133175 8.81927e-005 0.000137607 8.17666e-005 0.000142039 7.53405e-005 0.000146692 6.8028e-005 0.000150681 6.07156e-005 0.000154448 5.36247e-005 0.00015755 4.58691e-005 0.000161539 3.78918e-005 0.00016442 2.99146e-005 0.000167522 2.14942e-005 0.000169738 1.32954e-005 0.000172618 4.2102e-006 0.000174613 0 0zm-0.00339741 0.00339741l0 -0.000523838 0 0 0.000148022 -3.76702e-006 0.000146028 -1.10795e-005 0.000144033 -1.83919e-005 0.000141374 -2.50396e-005 0.000138715 -3.21305e-005 0.000136278 -3.87782e-005 0.000133619 -4.52043e-005 0.000130516 -5.14088e-005 0.000127192 -5.73917e-005 0.000123647 -6.33746e-005 0.000120323 -6.93576e-005 0.000116778 -7.48973e-005 0.000112789 -7.99939e-005 0.000108357 -8.5312e-005 0.000104369 -9.04086e-005 9.99369e-005 -9.5062e-005 9.5062e-005 -9.99369e-005 9.04086e-005 -0.000104369 8.5312e-005 -0.000108357 7.99939e-005 -0.000112789 7.48973e-005 -0.000116778 6.93576e-005 -0.000120323 6.33746e-005 -0.000123647 5.73917e-005 -0.000127192 5.14088e-005 -0.000130516 4.52043e-005 -0.000133619 3.87782e-005 -0.000136278 3.21305e-005 -0.000138715 2.50396e-005 -0.000141374 1.83919e-005 -0.000144033 1.10795e-005 -0.000146028 3.76702e-006 -0.000148022 0.000523838 0 -4.2102e-006 0.000174613 -1.32954e-005 0.000172618 -2.14942e-005 0.000169738 -2.99146e-005 0.000167522 -3.78918e-005 0.00016442 -4.58691e-005 0.000161539 -5.36247e-005 0.00015755 -6.07156e-005 0.000154448 -6.8028e-005 0.000150681 -7.53405e-005 0.000146692 -8.17666e-005 0.000142039 -8.81927e-005 0.000137607 -9.46188e-005 0.000133175 -0.000100823 0.000128744 -0.000106806 0.000122982 -0.000112346 0.000118107 -0.000118107 0.000112346 -0.000122982 0.000106806 -0.000128744 0.000100823 -0.000133175 9.46188e-005 -0.000137607 8.81927e-005 -0.000142039 8.17666e-005 -0.000146692 7.53405e-005 -0.000150681 6.8028e-005 -0.000154448 6.07156e-005 -0.00015755 5.36247e-005 -0.000161539 4.58691e-005 -0.00016442 3.78918e-005 -0.000167522 2.99146e-005 -0.000169738 2.14942e-005 -0.000172618 1.32954e-005 -0.000174613 4.2102e-006 0 0z"/>
    </g>
    <g>
     <path class="fil2" d="M0.0203058 0.0175495c-0.000334822,0 -0.000606491,-0.000271447 -0.000606491,-0.000606491 0,-0.000334822 0.000271669,-0.000606491 0.000606491,-0.000606491 0.000335044,0 0.000606491,0.000271669 0.000606491,0.000606491 0,0.000335044 -0.000271447,0.000606491 -0.000606491,0.000606491z"/>
     <path id="1" class="fil4" d="M0.0195028 0.016943l0.0003931 0 0 0 6.64769e-007 2.14942e-005 1.32954e-006 2.08294e-005 2.65908e-006 2.01647e-005 3.76702e-006 2.08294e-005 4.43179e-006 1.94999e-005 5.53974e-006 1.90567e-005 6.4261e-006 1.92783e-005 7.31246e-006 1.86135e-005 8.19882e-006 1.81704e-005 8.86359e-006 1.75056e-005 9.52836e-006 1.6176e-005 1.13011e-005 1.75056e-005 1.15227e-005 1.66192e-005 1.17443e-005 1.48465e-005 1.32954e-005 1.50681e-005 1.3517e-005 1.44033e-005 1.41817e-005 1.32954e-005 1.46249e-005 1.28522e-005 1.59545e-005 1.2409e-005 1.63976e-005 1.17443e-005 1.6176e-005 1.04147e-005 1.70624e-005 9.74995e-006 1.77272e-005 9.08518e-006 1.83919e-005 8.42041e-006 1.83919e-005 7.09087e-006 1.90567e-005 6.4261e-006 1.88351e-005 5.53974e-006 1.99431e-005 4.43179e-006 2.08294e-005 3.76702e-006 1.99431e-005 2.65908e-006 2.08294e-005 1.32954e-006 2.14942e-005 6.64769e-007 0 0.0003931 -4.09941e-005 -1.10795e-006 -4.07725e-005 -3.10226e-006 -4.07725e-005 -5.31815e-006 -3.85566e-005 -6.86928e-006 -3.89998e-005 -8.86359e-006 -3.87782e-005 -1.08579e-005 -3.72271e-005 -1.26306e-005 -3.65623e-005 -1.46249e-005 -3.52328e-005 -1.59545e-005 -3.4568e-005 -1.75056e-005 -3.39032e-005 -1.94999e-005 -3.30169e-005 -2.1051e-005 -3.10226e-005 -2.23806e-005 -3.01362e-005 -2.34885e-005 -2.92498e-005 -2.52612e-005 -2.79203e-005 -2.65908e-005 -2.68124e-005 -2.81419e-005 -2.4818e-005 -2.88067e-005 -2.41533e-005 -3.0801e-005 -2.2159e-005 -3.12441e-005 -2.06078e-005 -3.16873e-005 -1.97215e-005 -3.43464e-005 -1.77272e-005 -3.47896e-005 -1.6176e-005 -3.54543e-005 -1.44033e-005 -3.67839e-005 -1.26306e-005 -3.70055e-005 -1.08579e-005 -3.85566e-005 -8.86359e-006 -3.89998e-005 -6.86928e-006 -3.89998e-005 -5.31815e-006 -4.05509e-005 -3.10226e-006 -4.07725e-005 -1.10795e-006 -4.09941e-005 0 0zm0.000803041 -0.000803041l0 0.0003931 0 0 -2.14942e-005 6.64769e-007 -2.08294e-005 1.32954e-006 -1.99431e-005 2.65908e-006 -2.08294e-005 3.76702e-006 -1.99431e-005 4.43179e-006 -1.88351e-005 5.53974e-006 -1.90567e-005 6.4261e-006 -1.83919e-005 7.09087e-006 -1.83919e-005 8.42041e-006 -1.77272e-005 9.08518e-006 -1.66192e-005 9.52836e-006 -1.66192e-005 1.08579e-005 -1.68408e-005 1.17443e-005 -1.55113e-005 1.21874e-005 -1.41817e-005 1.2409e-005 -1.46249e-005 1.39601e-005 -1.39601e-005 1.46249e-005 -1.2409e-005 1.41817e-005 -1.21874e-005 1.55113e-005 -1.17443e-005 1.68408e-005 -1.08579e-005 1.66192e-005 -9.52836e-006 1.66192e-005 -9.08518e-006 1.77272e-005 -8.42041e-006 1.83919e-005 -7.09087e-006 1.83919e-005 -6.4261e-006 1.90567e-005 -5.53974e-006 1.88351e-005 -4.43179e-006 1.99431e-005 -3.76702e-006 2.08294e-005 -2.65908e-006 1.99431e-005 -1.32954e-006 2.08294e-005 -6.64769e-007 2.14942e-005 -0.0003931 0 1.10795e-006 -4.09941e-005 3.10226e-006 -4.07725e-005 5.31815e-006 -4.07725e-005 6.86928e-006 -3.85566e-005 8.86359e-006 -3.89998e-005 1.08579e-005 -3.87782e-005 1.26306e-005 -3.72271e-005 1.46249e-005 -3.65623e-005 1.59545e-005 -3.52328e-005 1.75056e-005 -3.4568e-005 1.97215e-005 -3.43464e-005 2.1051e-005 -3.25737e-005 2.19374e-005 -3.05794e-005 2.37101e-005 -3.05794e-005 2.57044e-005 -2.9693e-005 2.63692e-005 -2.74771e-005 2.74771e-005 -2.63692e-005 2.9693e-005 -2.57044e-005 3.05794e-005 -2.37101e-005 3.05794e-005 -2.19374e-005 3.25737e-005 -2.1051e-005 3.43464e-005 -1.97215e-005 3.4568e-005 -1.75056e-005 3.52328e-005 -1.59545e-005 3.65623e-005 -1.46249e-005 3.72271e-005 -1.26306e-005 3.87782e-005 -1.08579e-005 3.89998e-005 -8.86359e-006 3.85566e-005 -6.86928e-006 4.07725e-005 -5.31815e-006 4.07725e-005 -3.10226e-006 4.09941e-005 -1.10795e-006 0 0zm0.000803041 0.000803041l-0.0003931 0 0 0 -6.64769e-007 -2.14942e-005 -1.32954e-006 -2.08294e-005 -2.65908e-006 -1.99431e-005 -3.76702e-006 -2.08294e-005 -4.43179e-006 -1.99431e-005 -5.53974e-006 -1.88351e-005 -6.4261e-006 -1.90567e-005 -7.09087e-006 -1.83919e-005 -8.42041e-006 -1.83919e-005 -9.08518e-006 -1.77272e-005 -9.74995e-006 -1.70624e-005 -1.04147e-005 -1.6176e-005 -1.17443e-005 -1.63976e-005 -1.2409e-005 -1.59545e-005 -1.2409e-005 -1.41817e-005 -1.39601e-005 -1.46249e-005 -1.46249e-005 -1.39601e-005 -1.46249e-005 -1.28522e-005 -1.48465e-005 -1.17443e-005 -1.66192e-005 -1.15227e-005 -1.75056e-005 -1.13011e-005 -1.6176e-005 -9.52836e-006 -1.75056e-005 -8.86359e-006 -1.81704e-005 -8.19882e-006 -1.86135e-005 -7.31246e-006 -1.92783e-005 -6.4261e-006 -1.90567e-005 -5.53974e-006 -1.94999e-005 -4.43179e-006 -2.08294e-005 -3.76702e-006 -2.01647e-005 -2.65908e-006 -2.08294e-005 -1.32954e-006 -2.14942e-005 -6.64769e-007 0 -0.0003931 4.09941e-005 1.10795e-006 4.07725e-005 3.10226e-006 4.05509e-005 5.31815e-006 3.89998e-005 6.86928e-006 3.89998e-005 8.86359e-006 3.85566e-005 1.08579e-005 3.70055e-005 1.26306e-005 3.67839e-005 1.44033e-005 3.54543e-005 1.6176e-005 3.47896e-005 1.77272e-005 3.43464e-005 1.97215e-005 3.16873e-005 2.06078e-005 3.12441e-005 2.2159e-005 3.0801e-005 2.41533e-005 2.92498e-005 2.52612e-005 2.74771e-005 2.63692e-005 2.63692e-005 2.74771e-005 2.57044e-005 2.9693e-005 2.34885e-005 3.01362e-005 2.23806e-005 3.10226e-005 2.1051e-005 3.30169e-005 1.94999e-005 3.39032e-005 1.75056e-005 3.4568e-005 1.59545e-005 3.52328e-005 1.46249e-005 3.65623e-005 1.26306e-005 3.72271e-005 1.08579e-005 3.87782e-005 8.86359e-006 3.89998e-005 6.86928e-006 3.85566e-005 5.31815e-006 4.07725e-005 3.10226e-006 4.07725e-005 1.10795e-006 4.09941e-005 0 0zm-0.000803041 0.000803041l0 -0.0003931 0 0 2.14942e-005 -6.64769e-007 2.08294e-005 -1.32954e-006 2.01647e-005 -2.65908e-006 2.08294e-005 -3.76702e-006 1.94999e-005 -4.43179e-006 1.90567e-005 -5.53974e-006 1.92783e-005 -6.4261e-006 1.86135e-005 -7.31246e-006 1.81704e-005 -8.19882e-006 1.75056e-005 -8.86359e-006 1.68408e-005 -9.74995e-006 1.68408e-005 -1.08579e-005 1.6176e-005 -1.15227e-005 1.52897e-005 -1.19658e-005 1.50681e-005 -1.32954e-005 1.41817e-005 -1.32954e-005 1.3517e-005 -1.44033e-005 1.32954e-005 -1.50681e-005 1.19658e-005 -1.52897e-005 1.15227e-005 -1.6176e-005 1.08579e-005 -1.68408e-005 9.74995e-006 -1.68408e-005 8.86359e-006 -1.75056e-005 8.19882e-006 -1.81704e-005 7.31246e-006 -1.86135e-005 6.4261e-006 -1.92783e-005 5.53974e-006 -1.90567e-005 4.43179e-006 -1.94999e-005 3.76702e-006 -2.08294e-005 2.65908e-006 -2.01647e-005 1.32954e-006 -2.08294e-005 6.64769e-007 -2.14942e-005 0.0003931 0 -1.10795e-006 4.09941e-005 -3.10226e-006 4.07725e-005 -5.31815e-006 4.05509e-005 -6.86928e-006 3.89998e-005 -8.86359e-006 3.89998e-005 -1.08579e-005 3.85566e-005 -1.26306e-005 3.70055e-005 -1.44033e-005 3.67839e-005 -1.6176e-005 3.54543e-005 -1.77272e-005 3.47896e-005 -1.94999e-005 3.36816e-005 -2.06078e-005 3.23521e-005 -2.26021e-005 3.16873e-005 -2.39317e-005 3.03578e-005 -2.4818e-005 2.88067e-005 -2.68124e-005 2.81419e-005 -2.79203e-005 2.65908e-005 -2.88067e-005 2.4818e-005 -3.03578e-005 2.39317e-005 -3.16873e-005 2.26021e-005 -3.23521e-005 2.06078e-005 -3.36816e-005 1.94999e-005 -3.47896e-005 1.77272e-005 -3.54543e-005 1.6176e-005 -3.67839e-005 1.44033e-005 -3.70055e-005 1.26306e-005 -3.85566e-005 1.08579e-005 -3.89998e-005 8.86359e-006 -3.89998e-005 6.86928e-006 -4.05509e-005 5.31815e-006 -4.07725e-005 3.10226e-006 -4.09941e-005 1.10795e-006 0 0z"/>
    </g>
    <g>
     <polygon class="fil4" points="0.0204368,0.0138239 0.0204368,0.0163365 0.0201749,0.0163365 0.0201749,0.0138239 "/>
    </g>
    <g>
     <polygon class="fil4" points="0.0191566,0.0140406 0.0201786,0.016336 0.0199393,0.0164424 0.0189173,0.0141469 "/>
    </g>
    <g>
     <polygon class="fil4" points="0.0180434,0.0147304 0.0199428,0.0164406 0.0197674,0.0166352 0.0178679,0.014925 "/>
    </g>
    <g>
     <polygon class="fil4" points="0.0173633,0.0158501 0.0197696,0.0166321 0.0196885,0.0168811 0.0172822,0.0160992 "/>
    </g>
    <g>
     <polygon class="fil4" points="0.0171736,0.0171417 0.0196894,0.0168774 0.0197168,0.017138 0.0172011,0.0174023 "/>
    </g>
    <g>
     <polygon class="fil4" points="0.0175105,0.0184075 0.0197157,0.0171342 0.0198469,0.0173611 0.0176416,0.0186344 "/>
    </g>
    <g>
     <polygon class="fil4" points="0.0183261,0.019448 0.0198445,0.017358 0.0200563,0.0175118 0.018538,0.0196018 "/>
    </g>
    <g>
     <polygon class="fil4" points="0.0195274,0.0199836 0.020053,0.01751 0.0203091,0.0175645 0.0197835,0.0200381 "/>
    </g>
    <g>
     <polygon class="fil4" points="0.0208312,0.0200375 0.0203054,0.0175643 0.0205615,0.0175098 0.0210874,0.019983 "/>
    </g>
    <g>
     <polygon class="fil4" points="0.022044,0.0195562 0.020558,0.0175109 0.0207698,0.0173571 0.0222558,0.0194024 "/>
    </g>
    <g>
     <polygon class="fil4" points="0.0230424,0.0187088 0.0207658,0.0173589 0.0208992,0.0171338 0.0231758,0.0184837 "/>
    </g>
    <g>
     <polygon class="fil4" points="0.0235304,0.0174132 0.0208966,0.0171364 0.020924,0.0168758 0.0235579,0.0171526 "/>
    </g>
    <g>
     <polygon class="fil4" points="0.0233292,0.0160983 0.020924,0.0168798 0.0208429,0.0166307 0.0232481,0.0158492 "/>
    </g>
    <g>
     <polygon class="fil4" points="0.022826,0.0148503 0.0208449,0.0166341 0.0206694,0.0164395 0.0226505,0.0146557 "/>
    </g>
    <g>
     <polygon class="fil4" points="0.0217012,0.014131 0.0206723,0.016442 0.020433,0.0163356 0.0214618,0.0140246 "/>
    </g>
    <g>
     <polygon class="fil4" points="0.0204368,0.0136987 0.0204368,0.0163365 0.0201749,0.0163365 0.0201749,0.0136987 "/>
    </g>
   </g>
   <circle class="fil5" cx="0.0142664" cy="0.0142664" r="0.0135081"/>
   <circle class="fil5 str0" cx="0.0142664" cy="0.0142664" r="0.0140709"/>
  </g>
 </g>
</svg>
