<svg data-name="Layer 1" xmlns="http://www.w3.org/2000/svg" viewBox="0 0 36 36"><circle cx="17.91" cy="17.94" r="17.5" fill="#37383a"/><path d="M13.08 18.8h-2.44l1.25-3.75zm-2.3-6.49L7.3 21.68 6.15 22v1.38h4.77V22l-1.23-.38.4-1.17h3.51l.4 1.23-1.21.32v1.38h5V22l-1.11-.36-3.4-9.41zm12.8 1.82a1.49 1.49 0 011.58 1.58 1.5 1.5 0 01-.52 1.23 2.23 2.23 0 01-1.46.43h-.9v-3.24zm-1.3 7.51V19h.55a1.14 1.14 0 01.85.26 5 5 0 01.67 1.2l1.33 2.93h2.93V22l-1.08-.36-1.06-2.17a4.76 4.76 0 00-.66-1 3.09 3.09 0 001.79-3 2.85 2.85 0 00-1.07-2.41 5 5 0 00-3.05-.81h-1.2l-3.64.07v1.32l1.19.47v7.51l-1.19.4v1.38h4.78V22z" fill="#fff"/></svg>