<svg id="Layer_1" data-name="Layer 1" xmlns="http://www.w3.org/2000/svg" viewBox="0 0 36 36"><defs><style>.cls-1{fill:#37383a;}.cls-2{fill:#fff;}</style></defs><circle class="cls-1" cx="17.91" cy="17.94" r="17.5"/><path class="cls-2" d="M13.08,18.8H10.64l1.25-3.75Zm-2.3-6.49L7.3,21.68,6.15,22v1.38h4.77V22l-1.23-.38.4-1.17H13.6L14,21.68,12.79,22v1.38h5V22l-1.11-.36-3.4-9.41Z"/><path class="cls-2" d="M23.58,14.13a1.49,1.49,0,0,1,1.58,1.58,1.5,1.5,0,0,1-.52,1.23,2.23,2.23,0,0,1-1.46.43h-.9V14.13Zm-1.3,7.51V19h.55a1.14,1.14,0,0,1,.85.26,5,5,0,0,1,.67,1.2l1.33,2.93h2.93V22l-1.08-.36-1.06-2.17a4.76,4.76,0,0,0-.66-1,3.09,3.09,0,0,0,1.79-3,2.85,2.85,0,0,0-1.07-2.41,5,5,0,0,0-3.05-.81h-1.2l-3.64.07v1.32l1.19.47v7.51l-1.19.4v1.38h4.78V22Z"/></svg>