<svg id="Layer_1" data-name="Layer 1" xmlns="http://www.w3.org/2000/svg" xmlns:xlink="http://www.w3.org/1999/xlink" viewBox="0 0 36 36"><defs><style>.cls-1{fill:none;}.cls-2{clip-path:url(#clip-path);}.cls-3{clip-path:url(#clip-path-2);}.cls-4{fill:#37383a;stroke:#595858;stroke-miterlimit:10;}.cls-5{fill:#fff;}</style><clipPath id="clip-path"><polyline class="cls-1" points="-3.63 -3.66 39.57 -3.66 39.57 39.54 -3.63 39.54 -3.63 -3.66"/></clipPath><clipPath id="clip-path-2"><path class="cls-1" d="M-3.63,17.94a21.23,21.23,0,0,1,.41-4.21A22,22,0,0,1-2,9.68,21.33,21.33,0,0,1,0,5.94,21,21,0,0,1,2.69,2.67,21.64,21.64,0,0,1,6,0,21.2,21.2,0,0,1,9.7-2a20.56,20.56,0,0,1,4.05-1.23,21.36,21.36,0,0,1,8.43,0A20.56,20.56,0,0,1,26.23-2a21.28,21.28,0,0,1,7,4.68,21.66,21.66,0,0,1,2.69,3.27,21.85,21.85,0,0,1,3.22,7.79,21.36,21.36,0,0,1,0,8.43,21.7,21.7,0,0,1-3.22,7.78,22.25,22.25,0,0,1-2.69,3.28A21.6,21.6,0,0,1,30,35.9a21.63,21.63,0,0,1-7.79,3.23A21.58,21.58,0,0,1,9.7,37.9,21.93,21.93,0,0,1,6,35.9a22.18,22.18,0,0,1-3.28-2.68A21.57,21.57,0,0,1,0,29.94a21.24,21.24,0,0,1-2-3.73,22,22,0,0,1-1.23-4.05,21.41,21.41,0,0,1-.41-4.22"/></clipPath></defs><g class="cls-2"><g class="cls-3"><path class="cls-4" d="M35.47,17.94a18.36,18.36,0,0,1-.34,3.42A16.13,16.13,0,0,1,34.71,23a15.62,15.62,0,0,1-.58,1.62,16.88,16.88,0,0,1-.73,1.55A16.89,16.89,0,0,1,31.49,29a15.45,15.45,0,0,1-1.15,1.28c-.4.4-.83.79-1.27,1.15s-.9.7-1.38,1-1,.61-1.47.88a15.84,15.84,0,0,1-1.56.74c-.53.22-1.07.41-1.61.58s-1.11.3-1.67.42-1.13.19-1.7.25-1.14.08-1.71.08-1.15,0-1.72-.08-1.14-.14-1.7-.25-1.12-.26-1.66-.42-1.09-.36-1.62-.58a14.67,14.67,0,0,1-1.55-.74,17,17,0,0,1-1.48-.88q-.71-.48-1.38-1c-.44-.36-.86-.75-1.27-1.15S4.8,29.49,4.44,29a15.35,15.35,0,0,1-1-1.38,15.52,15.52,0,0,1-.89-1.47,16.88,16.88,0,0,1-.73-1.55c-.22-.53-.41-1.07-.58-1.62A16.13,16.13,0,0,1,.8,21.36c-.11-.57-.19-1.13-.25-1.7a16.5,16.5,0,0,1-.08-1.72,16.31,16.31,0,0,1,.08-1.71c.06-.57.14-1.14.25-1.7a16.31,16.31,0,0,1,.42-1.67c.17-.55.36-1.09.58-1.62s.46-1,.73-1.55.57-1,.89-1.47a15.35,15.35,0,0,1,1-1.38C4.8,6.4,5.19,6,5.59,5.57s.83-.79,1.27-1.16.91-.7,1.38-1a18.9,18.9,0,0,1,3-1.62c.53-.22,1.07-.41,1.62-.58S14,.89,14.55.78a16.19,16.19,0,0,1,1.7-.25,16.39,16.39,0,0,1,3.43,0,16.19,16.19,0,0,1,1.7.25c.56.11,1.12.25,1.67.41s1.08.36,1.61.58,1.05.47,1.56.74,1,.56,1.47.88.94.66,1.38,1,.87.75,1.27,1.16a15.32,15.32,0,0,1,1.15,1.27,15.46,15.46,0,0,1,1,1.38c.32.48.61,1,.88,1.47s.51,1,.73,1.55a15.62,15.62,0,0,1,.58,1.62,17.14,17.14,0,0,1,.67,3.37A16.32,16.32,0,0,1,35.47,17.94Z"/><path class="cls-5" d="M13.2,18.9H10.49l1.39-4.16Zm-2.55-7.2L6.78,22.1l-1.28.41V24h5.31V22.51l-1.37-.43.44-1.3h3.9l.42,1.32-1.32.41V24h5.59V22.51l-1.23-.41L13.46,11.65Z"/><path class="cls-5" d="M24.87,13.72a1.72,1.72,0,0,1,1.28.48,1.74,1.74,0,0,1,.47,1.28A1.67,1.67,0,0,1,26,16.84a2.44,2.44,0,0,1-1.61.48h-1v-3.6Zm-1.44,8.35v-2.9H24a1.26,1.26,0,0,1,.94.28,5.69,5.69,0,0,1,.75,1.33L27.2,24h3.26V22.51l-1.2-.41-1.18-2.41a4.86,4.86,0,0,0-.74-1.14,3.41,3.41,0,0,0,2-3.32,3.14,3.14,0,0,0-1.19-2.68,5.49,5.49,0,0,0-3.38-.9H23.43l-4.05.08v1.46l1.32.53v8.35l-1.32.44V24h5.31V22.51Z"/></g></g></svg>
