<svg data-name="Layer 1" xmlns="http://www.w3.org/2000/svg" viewBox="0 0 36 36"><circle cx="18.03" cy="17.98" r="17.5" fill="#f48221"/><path d="M13.82 21.68v-7.51l1.19-.48V12.3l-4.83.08v1.31l1.19.48v7.51l-1.19.4v1.37h4.83v-1.37l-1.19-.4zm7.31-7.51a1.53 1.53 0 011.15.43 1.56 1.56 0 01.43 1.15 1.53 1.53 0 01-.52 1.25 2.23 2.23 0 01-1.46.43h-.9v-3.26zm-1.3 7.51v-2.61h.55a1.2 1.2 0 01.85.25 4.89 4.89 0 01.67 1.21l1.33 2.92h2.93v-1.37l-1.08-.37L24 19.55a4.53 4.53 0 00-.66-1 3.08 3.08 0 001.78-3 2.83 2.83 0 00-1.06-2.41 4.92 4.92 0 00-3-.82h-1.2l-3.64.08v1.31l1.19.48v7.51l-1.19.4v1.37H21v-1.39z" fill="#fff"/></svg>