<svg id="Layer_1" data-name="Layer 1" xmlns="http://www.w3.org/2000/svg" viewBox="0 0 36 36"><defs><style>.cls-1{fill:#f48221;}.cls-2{fill:#fff;}</style></defs><circle class="cls-1" cx="18.03" cy="17.98" r="17.5"/><polygon class="cls-2" points="13.82 21.68 13.82 14.17 15.01 13.69 15.01 12.3 10.18 12.38 10.18 13.69 11.37 14.17 11.37 21.68 10.18 22.08 10.18 23.45 15.01 23.45 15.01 22.08 13.82 21.68"/><path class="cls-2" d="M21.13,14.17a1.53,1.53,0,0,1,1.15.43,1.56,1.56,0,0,1,.43,1.15A1.53,1.53,0,0,1,22.19,17a2.23,2.23,0,0,1-1.46.43h-.9V14.17Zm-1.3,7.51V19.07h.55a1.2,1.2,0,0,1,.85.25,4.89,4.89,0,0,1,.67,1.21l1.33,2.92h2.93V22.08l-1.08-.37L24,19.55a4.53,4.53,0,0,0-.66-1,3.08,3.08,0,0,0,1.78-3,2.83,2.83,0,0,0-1.06-2.41,4.92,4.92,0,0,0-3-.82h-1.2l-3.64.08v1.31l1.19.48v7.51l-1.19.4v1.37H21V22.08Z"/></svg>