<svg id="Layer_1" data-name="Layer 1" xmlns="http://www.w3.org/2000/svg" xmlns:xlink="http://www.w3.org/1999/xlink" viewBox="0 0 36 36"><defs><style>.cls-1{fill:none;}.cls-2{clip-path:url(#clip-path);}.cls-3{clip-path:url(#clip-path-2);}.cls-4{fill:#f48221;}.cls-5{fill:#110a0c;}.cls-6{fill:#8b4208;}</style><clipPath id="clip-path"><polyline class="cls-1" points="-3.58 -3.62 39.63 -3.62 39.63 39.58 -3.58 39.58 -3.58 -3.62"/></clipPath><clipPath id="clip-path-2"><path class="cls-1" d="M-3.58,18a21.42,21.42,0,0,1,.42-4.22,22,22,0,0,1,1.23-4A21.24,21.24,0,0,1,.07,6,21.57,21.57,0,0,1,2.75,2.7,22.1,22.1,0,0,1,6,0,21.33,21.33,0,0,1,9.76-2,21.72,21.72,0,0,1,22.24-3.21,22,22,0,0,1,26.29-2,21.33,21.33,0,0,1,30,0,22.1,22.1,0,0,1,33.3,2.7,21.57,21.57,0,0,1,36,6a21.24,21.24,0,0,1,2,3.73,22,22,0,0,1,1.23,4,21.36,21.36,0,0,1,0,8.43,22,22,0,0,1-1.23,4A21.33,21.33,0,0,1,36,30a21,21,0,0,1-2.68,3.27A22.17,22.17,0,0,1,30,35.94a21.29,21.29,0,0,1-3.74,2,20.56,20.56,0,0,1-4.05,1.23,21.36,21.36,0,0,1-8.43,0,20.56,20.56,0,0,1-4.05-1.23,21.29,21.29,0,0,1-3.74-2,22.17,22.17,0,0,1-3.27-2.69A21,21,0,0,1,.07,30a21.33,21.33,0,0,1-2-3.74,22,22,0,0,1-1.23-4A21.24,21.24,0,0,1-3.58,18"/></clipPath></defs><g class="cls-2"><g class="cls-3"><path class="cls-4" d="M35.53,18a16.32,16.32,0,0,1-.09,1.71c-.06.57-.14,1.14-.25,1.7a16.31,16.31,0,0,1-.42,1.67,15.62,15.62,0,0,1-.58,1.62c-.22.52-.46,1-.73,1.55s-.57,1-.88,1.47a15.46,15.46,0,0,1-1,1.38c-.36.44-.75.87-1.15,1.27s-.83.79-1.27,1.16-.91.7-1.38,1a18.9,18.9,0,0,1-3,1.62,16.24,16.24,0,0,1-1.61.57,17.14,17.14,0,0,1-3.37.67,16.39,16.39,0,0,1-3.43,0,16.19,16.19,0,0,1-1.7-.25A15.51,15.51,0,0,1,13,34.72a15.56,15.56,0,0,1-1.62-.57,18.9,18.9,0,0,1-3-1.62q-.71-.48-1.38-1c-.44-.37-.86-.75-1.27-1.16s-.79-.83-1.15-1.27a15.46,15.46,0,0,1-1-1.38c-.31-.48-.61-1-.88-1.47s-.51-1-.73-1.55a15.62,15.62,0,0,1-.58-1.62,16.31,16.31,0,0,1-.42-1.67c-.11-.56-.19-1.13-.25-1.7A16.31,16.31,0,0,1,.53,18a16.5,16.5,0,0,1,.08-1.72c.06-.57.14-1.13.25-1.7a16.13,16.13,0,0,1,.42-1.66,15.62,15.62,0,0,1,.58-1.62,16.88,16.88,0,0,1,.73-1.55c.27-.51.57-1,.88-1.47a15.46,15.46,0,0,1,1-1.38c.36-.45.75-.87,1.15-1.28s.83-.79,1.27-1.15.91-.7,1.38-1a17.06,17.06,0,0,1,1.48-.89,16.88,16.88,0,0,1,1.55-.73c.53-.22,1.07-.41,1.62-.58s1.1-.3,1.66-.42,1.13-.19,1.7-.25S17.45.48,18,.48s1.14,0,1.71.08,1.14.14,1.7.25,1.12.26,1.67.42,1.08.36,1.61.58a16.88,16.88,0,0,1,1.55.73,17.06,17.06,0,0,1,1.48.89q.7.48,1.38,1c.44.36.86.75,1.27,1.15s.79.83,1.15,1.28a15.46,15.46,0,0,1,1,1.38c.31.47.61,1,.88,1.47a16.88,16.88,0,0,1,.73,1.55,15.62,15.62,0,0,1,.58,1.62,16.13,16.13,0,0,1,.42,1.66c.11.57.19,1.13.25,1.7A16.51,16.51,0,0,1,35.53,18Z"/><polygon class="cls-5" points="13.34 22.1 13.34 13.76 14.65 13.23 14.65 11.68 9.29 11.77 9.29 13.23 10.61 13.76 10.61 22.1 9.29 22.54 9.29 24.07 14.65 24.07 14.65 22.54 13.34 22.1"/><path class="cls-5" d="M21.46,13.76a1.74,1.74,0,0,1,1.28.48,1.76,1.76,0,0,1,.47,1.27,1.69,1.69,0,0,1-.58,1.37,2.44,2.44,0,0,1-1.61.48H20v-3.6ZM20,22.1V19.2h.62a1.27,1.27,0,0,1,.94.29,5.47,5.47,0,0,1,.75,1.33l1.47,3.25H27V22.54l-1.19-.4-1.18-2.41a4.86,4.86,0,0,0-.74-1.14,3.41,3.41,0,0,0,2-3.32,3.15,3.15,0,0,0-1.19-2.68,5.44,5.44,0,0,0-3.38-.91H20l-4,.09v1.46l1.32.53V22.1L16,22.54v1.53h5.31V22.54Z"/></g></g><path class="cls-6" d="M35.24,18H35c0,.55,0,1.11-.08,1.66s-.14,1.1-.24,1.64-.25,1.08-.41,1.61-.35,1.05-.56,1.57-.45,1-.71,1.5a15.67,15.67,0,0,1-.85,1.42c-.31.46-.64.91-1,1.34S30.39,29.55,30,30a16.21,16.21,0,0,1-1.23,1.11c-.43.35-.87.68-1.33,1s-.94.59-1.43.86-1,.49-1.5.71-1,.39-1.56.56-1.07.29-1.61.4a15.25,15.25,0,0,1-1.65.24A15.19,15.19,0,0,1,18,34.9a15.25,15.25,0,0,1-1.66-.08,15.25,15.25,0,0,1-1.65-.24c-.54-.11-1.08-.24-1.61-.4s-1-.35-1.56-.56-1-.45-1.5-.71-1-.55-1.43-.86-.9-.64-1.33-1A16.21,16.21,0,0,1,6.06,30c-.4-.4-.77-.81-1.12-1.23s-.68-.88-1-1.34A15.67,15.67,0,0,1,3.1,26c-.26-.49-.5-1-.71-1.5s-.4-1-.56-1.57-.3-1.07-.41-1.61-.19-1.09-.24-1.64S1.1,18.53,1.1,18s0-1.11.08-1.66.14-1.1.24-1.64.25-1.08.41-1.62.35-1.05.56-1.56.45-1,.71-1.5S3.64,9,4,8.57s.64-.9,1-1.33A14.45,14.45,0,0,1,6.06,6c.39-.39.8-.76,1.23-1.12s.87-.68,1.33-1,.94-.59,1.43-.85a15.83,15.83,0,0,1,1.5-.71c.51-.21,1-.4,1.56-.56s1.07-.29,1.61-.4,1.09-.19,1.65-.25,1.1-.08,1.66-.08,1.1,0,1.65.08,1.1.14,1.65.25,1.08.24,1.61.4,1,.35,1.56.56a15.83,15.83,0,0,1,1.5.71c.49.26,1,.55,1.43.85s.9.64,1.33,1S29.6,5.62,30,6a14.45,14.45,0,0,1,1.12,1.23c.35.43.68.87,1,1.33s.59.94.85,1.43.5,1,.71,1.5.4,1,.56,1.56.3,1.07.41,1.62.19,1.09.24,1.64S35,17.42,35,18h.58a16.51,16.51,0,0,0-.09-1.72c-.06-.57-.14-1.13-.25-1.7a16.13,16.13,0,0,0-.42-1.66,15.62,15.62,0,0,0-.58-1.62,16.88,16.88,0,0,0-.73-1.55c-.27-.51-.57-1-.88-1.47a15.46,15.46,0,0,0-1-1.38C31.19,6.43,30.8,6,30.4,5.6s-.83-.79-1.27-1.15-.91-.7-1.38-1a17.06,17.06,0,0,0-1.48-.89,16.88,16.88,0,0,0-1.55-.73c-.53-.22-1.07-.41-1.62-.58S22,.93,21.44.81,20.31.62,19.74.56,18.6.48,18,.48s-1.15,0-1.72.08-1.14.14-1.7.25-1.12.26-1.66.42-1.09.36-1.62.58a16.88,16.88,0,0,0-1.55.73,17.06,17.06,0,0,0-1.48.89q-.71.48-1.38,1c-.44.36-.86.75-1.27,1.15s-.79.83-1.15,1.28a15.46,15.46,0,0,0-1,1.38c-.31.47-.61,1-.88,1.47a16.88,16.88,0,0,0-.73,1.55,15.62,15.62,0,0,0-.58,1.62,16.13,16.13,0,0,0-.42,1.66c-.11.57-.19,1.13-.25,1.7A16.5,16.5,0,0,0,.53,18a16.31,16.31,0,0,0,.08,1.71c.06.57.14,1.14.25,1.7a16.31,16.31,0,0,0,.42,1.67,15.62,15.62,0,0,0,.58,1.62c.22.52.46,1,.73,1.55s.57,1,.88,1.47a15.46,15.46,0,0,0,1,1.38c.36.44.75.87,1.15,1.27s.83.79,1.27,1.16.91.7,1.38,1a18.9,18.9,0,0,0,3,1.62,15.56,15.56,0,0,0,1.62.57,15.51,15.51,0,0,0,1.66.42,16.19,16.19,0,0,0,1.7.25,16.39,16.39,0,0,0,3.43,0,17.14,17.14,0,0,0,3.37-.67,16.24,16.24,0,0,0,1.61-.57,18.9,18.9,0,0,0,3-1.62q.7-.48,1.38-1c.44-.37.86-.75,1.27-1.16s.79-.83,1.15-1.27a15.46,15.46,0,0,0,1-1.38c.31-.48.61-1,.88-1.47s.51-1,.73-1.55a15.62,15.62,0,0,0,.58-1.62,16.31,16.31,0,0,0,.42-1.67c.11-.56.19-1.13.25-1.7A16.32,16.32,0,0,0,35.53,18Z"/></svg>
