<svg id="Layer_1" data-name="Layer 1" xmlns="http://www.w3.org/2000/svg" xmlns:xlink="http://www.w3.org/1999/xlink" viewBox="0 0 36 36"><defs><style>.cls-1{fill:none;}.cls-2{clip-path:url(#clip-path);}.cls-3{clip-path:url(#clip-path-2);}.cls-4{fill:#dd0030;}.cls-5{fill:#fff;}.cls-6{fill:#77001a;}</style><clipPath id="clip-path"><polyline class="cls-1" points="-3.57 -3.58 39.63 -3.58 39.63 39.62 -3.57 39.62 -3.57 -3.58"/></clipPath><clipPath id="clip-path-2"><path class="cls-1" d="M-3.57,18a21.31,21.31,0,0,1,.41-4.21A22,22,0,0,1-1.93,9.75a21.7,21.7,0,0,1,4.68-7A22.25,22.25,0,0,1,6,.05a21.51,21.51,0,0,1,3.73-2,22,22,0,0,1,4.05-1.23,21.36,21.36,0,0,1,8.43,0A21.85,21.85,0,0,1,30,.05,21.66,21.66,0,0,1,33.3,2.74,22.17,22.17,0,0,1,36,6a21.85,21.85,0,0,1,3.22,7.79,21.36,21.36,0,0,1,0,8.43A22,22,0,0,1,38,26.28,21.51,21.51,0,0,1,36,30a21.74,21.74,0,0,1-2.69,3.28A21,21,0,0,1,30,36a21.33,21.33,0,0,1-3.74,2,22,22,0,0,1-4.05,1.23,21.87,21.87,0,0,1-8.43,0A22,22,0,0,1,9.76,38,20.9,20.9,0,0,1,6,36a21.57,21.57,0,0,1-3.28-2.68A21.09,21.09,0,0,1,.07,30a20.9,20.9,0,0,1-2-3.73,22,22,0,0,1-1.23-4.05A21.33,21.33,0,0,1-3.57,18"/></clipPath></defs><g class="cls-2"><g class="cls-3"><path class="cls-4" d="M35.53,18a16.37,16.37,0,0,1-.09,1.72,16.19,16.19,0,0,1-.25,1.7,17.89,17.89,0,0,1-1,3.28,16.88,16.88,0,0,1-.73,1.55c-.27.51-.57,1-.88,1.48s-.66.93-1,1.38a17.12,17.12,0,0,1-1.15,1.27c-.41.4-.83.79-1.27,1.15s-.91.71-1.38,1-1,.61-1.47.88-1,.51-1.56.73-1.07.41-1.61.58a16.31,16.31,0,0,1-1.67.42c-.56.11-1.13.19-1.7.25a16.31,16.31,0,0,1-1.71.08,16.37,16.37,0,0,1-1.72-.08c-.57-.06-1.14-.14-1.7-.25A15.51,15.51,0,0,1,13,34.76c-.55-.17-1.09-.36-1.62-.58a16.88,16.88,0,0,1-1.55-.73c-.51-.27-1-.57-1.48-.88s-.93-.66-1.38-1-.86-.75-1.27-1.15-.79-.83-1.15-1.27a16.33,16.33,0,0,1-1-1.38,17.06,17.06,0,0,1-.89-1.48,16.88,16.88,0,0,1-.73-1.55c-.22-.53-.41-1.07-.58-1.62a15.51,15.51,0,0,1-.42-1.66c-.11-.56-.19-1.13-.25-1.7A16.37,16.37,0,0,1,.53,18,16.31,16.31,0,0,1,.61,16.3c.06-.57.14-1.14.25-1.7a16.31,16.31,0,0,1,.42-1.67c.17-.54.36-1.08.58-1.61a16.88,16.88,0,0,1,.73-1.55,17.06,17.06,0,0,1,.89-1.48,16.33,16.33,0,0,1,1-1.38c.36-.44.75-.86,1.15-1.27s.83-.79,1.27-1.15.91-.71,1.38-1,1-.61,1.48-.88a16.88,16.88,0,0,1,1.55-.73A15.62,15.62,0,0,1,13,1.27,15.51,15.51,0,0,1,14.61.85c.56-.11,1.13-.19,1.7-.25a16.39,16.39,0,0,1,3.43,0c.57.06,1.14.14,1.7.25a17.28,17.28,0,0,1,3.28,1c.53.22,1.05.46,1.56.73s1,.57,1.47.88.93.66,1.38,1,.86.75,1.27,1.15a17.12,17.12,0,0,1,1.15,1.27c.37.45.71.91,1,1.38s.61,1,.88,1.48a16.88,16.88,0,0,1,.73,1.55,17.19,17.19,0,0,1,1.25,5A16.32,16.32,0,0,1,35.53,18Z"/><polygon class="cls-5" points="10.01 21.99 10.01 18.72 11.24 18.72 13.54 22.01 12.55 22.42 12.55 23.89 17.76 23.89 17.76 22.42 16.5 21.99 13.33 17.6 15.57 13.9 17.08 13.42 17.08 11.93 13.99 12.01 11.16 16.85 10.01 16.85 10.01 13.93 11.31 13.42 11.31 11.93 6.1 12.01 6.1 13.42 7.37 13.93 7.37 21.99 6.1 22.42 6.1 23.89 11.31 23.89 11.31 22.42 10.01 21.99"/><path class="cls-5" d="M26.28,14.81a5.48,5.48,0,0,1,.65,3A5.55,5.55,0,0,1,26.22,21a2.36,2.36,0,0,1-2,1,2.1,2.1,0,0,1-1.9-1,6,6,0,0,1-.62-3.08,5.52,5.52,0,0,1,.68-3.13,2.32,2.32,0,0,1,2-.94A2.17,2.17,0,0,1,26.28,14.81Zm-6-1.41a6.69,6.69,0,0,0-1.5,4.6,6.7,6.7,0,0,0,1.36,4.55,4.88,4.88,0,0,0,3.9,1.56,5.29,5.29,0,0,0,4.12-1.74,6.7,6.7,0,0,0,1.57-4.62,6.51,6.51,0,0,0-1.4-4.44,5,5,0,0,0-3.95-1.59A5.22,5.22,0,0,0,20.33,13.4Z"/></g></g><path class="cls-6" d="M35.24,18H35c0,.56,0,1.11-.08,1.66s-.14,1.1-.24,1.65-.25,1.08-.41,1.61a14.49,14.49,0,0,1-.56,1.56c-.21.51-.45,1-.71,1.5a15.83,15.83,0,0,1-.85,1.43c-.31.46-.64.9-1,1.33A14.45,14.45,0,0,1,30,30a14.45,14.45,0,0,1-1.23,1.12,16.38,16.38,0,0,1-1.33,1,15.83,15.83,0,0,1-1.43.85,14.75,14.75,0,0,1-1.5.71c-.51.21-1,.4-1.56.56s-1.07.3-1.61.41-1.09.18-1.65.24-1.1.08-1.65.08-1.11,0-1.66-.08-1.1-.14-1.65-.24-1.08-.25-1.61-.41-1-.35-1.56-.56-1-.45-1.5-.71a15.83,15.83,0,0,1-1.43-.85c-.46-.31-.9-.64-1.33-1A14.45,14.45,0,0,1,6.06,30a16.33,16.33,0,0,1-1.12-1.23c-.35-.43-.68-.87-1-1.33A15.83,15.83,0,0,1,3.1,26c-.26-.49-.5-1-.71-1.5s-.4-1-.56-1.56-.3-1.07-.41-1.61-.18-1.09-.24-1.65S1.1,18.57,1.1,18s0-1.1.08-1.65.14-1.1.24-1.65.25-1.08.41-1.61.35-1,.56-1.56A17.64,17.64,0,0,1,4,8.61c.31-.46.64-.9,1-1.33A16.33,16.33,0,0,1,6.06,6.05,14.45,14.45,0,0,1,7.29,4.93c.43-.35.87-.68,1.33-1a15.83,15.83,0,0,1,1.43-.85c.49-.26,1-.5,1.5-.71a14.49,14.49,0,0,1,1.56-.56c.53-.16,1.07-.3,1.61-.41s1.1-.19,1.65-.24,1.1-.08,1.66-.08,1.1,0,1.65.08,1.1.14,1.65.24,1.08.25,1.61.41a14.49,14.49,0,0,1,1.56.56,14.75,14.75,0,0,1,1.5.71,15.83,15.83,0,0,1,1.43.85,16.38,16.38,0,0,1,1.33,1A14.45,14.45,0,0,1,30,6.05a14.45,14.45,0,0,1,1.12,1.23c.35.43.68.87,1,1.33a17.64,17.64,0,0,1,1.56,2.93,14.49,14.49,0,0,1,.56,1.56c.16.53.3,1.07.41,1.61s.19,1.09.24,1.65S35,17.46,35,18h.58a16.32,16.32,0,0,0-.09-1.71,17.23,17.23,0,0,0-1.25-5,16.88,16.88,0,0,0-.73-1.55c-.27-.51-.57-1-.88-1.48s-.66-.93-1-1.38a17.3,17.3,0,0,0-2.42-2.42c-.45-.37-.91-.71-1.38-1s-1-.61-1.47-.88-1-.51-1.56-.73a17.28,17.28,0,0,0-3.28-1C20.88.74,20.31.66,19.74.6a16.39,16.39,0,0,0-3.43,0c-.57.06-1.14.14-1.7.25A15.51,15.51,0,0,0,13,1.27a15.62,15.62,0,0,0-1.62.58,16.88,16.88,0,0,0-1.55.73c-.51.27-1,.57-1.48.88s-.93.66-1.38,1A17.12,17.12,0,0,0,5.65,5.64c-.4.41-.79.83-1.15,1.27a16.33,16.33,0,0,0-1,1.38,17.06,17.06,0,0,0-.89,1.48,16.88,16.88,0,0,0-.73,1.55c-.22.53-.41,1.07-.58,1.61A16.31,16.31,0,0,0,.86,14.6c-.11.56-.19,1.13-.25,1.7A16.31,16.31,0,0,0,.53,18a16.37,16.37,0,0,0,.08,1.72c.06.57.14,1.14.25,1.7a15.51,15.51,0,0,0,.42,1.66c.17.55.36,1.09.58,1.62a16.88,16.88,0,0,0,.73,1.55,17.06,17.06,0,0,0,.89,1.48,16.33,16.33,0,0,0,1,1.38c.36.44.75.86,1.15,1.27s.83.79,1.27,1.15.91.71,1.38,1,1,.61,1.48.88a16.88,16.88,0,0,0,1.55.73c.53.22,1.07.41,1.62.58a15.51,15.51,0,0,0,1.66.42c.56.11,1.13.19,1.7.25a16.37,16.37,0,0,0,1.72.08,16.31,16.31,0,0,0,1.71-.08c.57-.06,1.14-.14,1.7-.25a16.31,16.31,0,0,0,1.67-.42c.54-.17,1.08-.36,1.61-.58s1.05-.46,1.56-.73,1-.57,1.47-.88.93-.66,1.38-1,.86-.75,1.27-1.15a17.12,17.12,0,0,0,1.15-1.27c.37-.45.71-.91,1-1.38s.61-1,.88-1.48a16.88,16.88,0,0,0,.73-1.55,17.89,17.89,0,0,0,1-3.28,16.19,16.19,0,0,0,.25-1.7A16.37,16.37,0,0,0,35.53,18Z"/></svg>