<svg id="Layer_1" data-name="Layer 1" xmlns="http://www.w3.org/2000/svg" viewBox="0 0 36 36"><defs><style>.cls-1{fill:#d81e3e;}.cls-2{fill:#fff;}</style></defs><circle class="cls-1" cx="18.03" cy="18.01" r="17.5"/><polygon class="cls-2" points="11.2 21.59 11.2 18.64 12.31 18.64 14.38 21.6 13.49 21.97 13.49 23.3 18.18 23.3 18.18 21.97 17.05 21.59 14.19 17.63 16.21 14.3 17.57 13.87 17.57 12.53 14.79 12.6 12.24 16.96 11.2 16.96 11.2 14.33 12.37 13.87 12.37 12.53 7.68 12.6 7.68 13.87 8.83 14.33 8.83 21.59 7.68 21.97 7.68 23.3 12.37 23.3 12.37 21.97 11.2 21.59"/><path class="cls-2" d="M25.85,15.12a5,5,0,0,1,.58,2.72,5,5,0,0,1-.64,2.87,2.13,2.13,0,0,1-1.84.88,1.86,1.86,0,0,1-1.7-.9,5.37,5.37,0,0,1-.56-2.77,5,5,0,0,1,.61-2.82,2.1,2.1,0,0,1,1.81-.85A2,2,0,0,1,25.85,15.12Zm-5.36-1.26A6,6,0,0,0,19.14,18a6.09,6.09,0,0,0,1.22,4.09,4.41,4.41,0,0,0,3.52,1.4,4.73,4.73,0,0,0,3.7-1.57A6,6,0,0,0,29,17.77a5.85,5.85,0,0,0-1.26-4,4.49,4.49,0,0,0-3.55-1.43A4.69,4.69,0,0,0,20.49,13.86Z"/></svg>