<svg xmlns="http://www.w3.org/2000/svg" width="192" height="192" viewBox="0 0 50.8 50.8">
    <g stroke-width=".26" transform="matrix(3.90756 0 0 3.9077 -683.159 -50.441)">
        <circle class="color-main color-red" fill="#da1f3e" fill-rule="evenodd" cx="181.33" cy="19.408" r="6.5"/>
        <ellipse class="color-white" fill="#fff" fill-rule="evenodd" cx="181.33" cy="19.408" rx="3.701" ry="3.7"/>
        <path class="color-main color-red" fill="#da1f3e" d="M181.514 16.313a2.04 2.04 0 00-.568.085c-.1.029-.098.04.02.135.08.064.133.183.14.313.01.2-.007.218-.388.405-.433.211-1.138.372-1.795.406-.228.012-.428.034-.443.049-.015.015.135.187.333.382l.362.355.532-.165c.293-.09.549-.148.569-.128.054.053.094 1.097.049 1.275-.024.095-.082.155-.151.155-.062 0-.2.03-.306.066-.159.055-.193.1-.193.25v.183l.72-.022c.55-.016.72-.003.715.054-.003.042-.01.295-.015.562l-.01.486h-1.962v.767l.567-.083c.836-.123 2.819-.125 3.184-.004.264.088.305.086.522-.01.228-.101.633-.492.633-.611 0-.036-.468-.06-1.196-.06h-1.196v-.54c0-.375.024-.548.077-.568.042-.016.324-.034.627-.04.302-.007.56-.022.573-.035.013-.013-.002-.1-.033-.194l-.058-.17-.945-.031c-.786-.026-.946-.046-.946-.122 0-.116.357-.172 1.15-.178.329-.002.598-.019.598-.037 0-.019-.042-.115-.094-.213l-.093-.18h-.827c-.66 0-.826-.016-.826-.083 0-.16.157-.206.736-.214.72-.01 1.104-.06 1.104-.145 0-.035.062-.009.138.06.126.113.166.118.477.054.375-.076.663-.252.857-.522l.128-.178-.14-.028c-.078-.015-.347-.06-.598-.1-.826-.133-1.74-.5-1.813-.728a.973.973 0 010-.36c.035-.205.023-.24-.093-.277a.473.473 0 00-.122-.016zm-.152 1.178c.055.005.127.04.266.112.584.296.582.31-.031.388-.303.039-.7.07-.883.07l-.333-.001.337-.19c.185-.106.402-.241.48-.302.07-.054.109-.081.164-.077zm.75 2.818c-.04 0-.168.256-.168.338 0 .014.09.064.2.112.262.114.503.118.594.01.06-.073.016-.12-.253-.274a2.379 2.379 0 00-.374-.186zm-1.483.078c-.066.004-.172.037-.376.104a7.045 7.045 0 00-.443.153c-.01.008 0 .088.023.179.047.184.088.182.673-.035.36-.133.377-.155.252-.324-.039-.054-.064-.08-.13-.077z"/>
    </g>
</svg>
