<svg data-name="Layer 1" xmlns="http://www.w3.org/2000/svg" viewBox="0 0 36 36"><circle cx="18.03" cy="18.01" r="17.5" fill="#d81e3e"/><path d="M11.2 21.59v-2.95h1.11l2.07 2.96-.89.37v1.33h4.69v-1.33l-1.13-.38-2.86-3.96 2.02-3.33 1.36-.43v-1.34l-2.78.07-2.55 4.36H11.2v-2.63l1.17-.46v-1.34l-4.69.07v1.27l1.15.46v7.26l-1.15.38v1.33h4.69v-1.33l-1.17-.38zm14.65-6.47a5 5 0 01.58 2.72 5 5 0 01-.64 2.87 2.13 2.13 0 01-1.84.88 1.86 1.86 0 01-1.7-.9 5.37 5.37 0 01-.56-2.77 5 5 0 01.61-2.82 2.1 2.1 0 011.81-.85 2 2 0 011.74.87zm-5.36-1.26A6 6 0 0019.14 18a6.09 6.09 0 001.22 4.09 4.41 4.41 0 003.52 1.4 4.73 4.73 0 003.7-1.57A6 6 0 0029 17.77a5.85 5.85 0 00-1.26-4 4.49 4.49 0 00-3.55-1.43 4.69 4.69 0 00-3.7 1.52z" fill="#fff"/></svg>