<svg xmlns="http://www.w3.org/2000/svg" width="192" height="192" viewBox="0 0 50.8 50.8" xmlns:v="https://vecta.io/nano"><g transform="matrix(3.90756 0 0 3.9077 -683.159 -50.441)"><g fill-rule="evenodd"><circle fill="#d81e3e" cx="181.33" cy="19.408" r="6.5"/><circle fill="#fff" cx="181.33" cy="19.408" r="3.701"/></g><path fill="#d81e3e" d="M181.514 16.313a2.04 2.04 0 0 0-.568.085c-.1.029-.098.04.02.135.08.064.133.183.14.313.01.2-.007.218-.388.405-.433.211-1.138.372-1.795.406-.228.012-.428.034-.443.049s.135.187.333.382l.362.355.532-.165c.293-.09.549-.148.569-.128.054.053.094 1.097.049 1.275-.024.095-.082.155-.151.155-.062 0-.2.03-.306.066-.159.055-.193.1-.193.25v.183l.72-.022c.55-.016.72-.003.715.054l-.015.562-.01.486h-1.962v.767l.567-.083c.836-.123 2.819-.125 3.184-.004.264.088.305.086.522-.01.228-.101.633-.492.633-.611 0-.036-.468-.06-1.196-.06h-1.196v-.54c0-.375.024-.548.077-.568.042-.016.324-.034.627-.04l.573-.035c.013-.013-.002-.1-.033-.194l-.058-.17-.945-.031c-.786-.026-.946-.046-.946-.122 0-.116.357-.172 1.15-.178.329-.002.598-.019.598-.037s-.042-.115-.094-.213l-.093-.18h-.827c-.66 0-.826-.016-.826-.083 0-.16.157-.206.736-.214.72-.01 1.104-.06 1.104-.145 0-.035.062-.009.138.06.126.113.166.118.477.054.375-.076.663-.252.857-.522l.128-.178-.14-.028-.598-.1c-.826-.133-1.74-.5-1.813-.728a.973.973 0 0 1 0-.36c.035-.205.023-.24-.093-.277a.473.473 0 0 0-.122-.016zm-.152 1.178c.055.005.127.04.266.112.584.296.582.31-.031.388l-.883.07-.333-.001.337-.19.48-.302c.07-.054.109-.081.164-.077zm.75 2.818c-.04 0-.168.256-.168.338 0 .014.09.064.2.112.262.114.503.118.594.01.06-.073.016-.12-.253-.274a2.379 2.379 0 0 0-.374-.186zm-1.483.078c-.066.004-.172.037-.376.104a7.045 7.045 0 0 0-.443.153c-.01.008 0 .088.023.179.047.184.088.182.673-.035.36-.133.377-.155.252-.324-.039-.054-.064-.08-.13-.077z"/></g></svg>