<svg id="Layer_1" data-name="Layer 1" xmlns="http://www.w3.org/2000/svg" viewBox="0 0 36 36"><defs><style>.cls-1{fill:#0189d1;}.cls-2{fill:#fff;}</style></defs><circle class="cls-1" cx="18.03" cy="17.98" r="17.5"/><polygon class="cls-2" points="10.41 21.55 10.41 18.55 11.55 18.55 13.65 21.57 12.75 21.94 12.75 23.3 17.52 23.3 17.52 21.94 16.37 21.55 13.46 17.53 15.52 14.14 16.9 13.7 16.9 12.33 14.07 12.41 11.47 16.84 10.41 16.84 10.41 14.17 11.61 13.7 11.61 12.33 6.84 12.41 6.84 13.7 8 14.17 8 21.55 6.84 21.94 6.84 23.3 11.61 23.3 11.61 21.94 10.41 21.55"/><path class="cls-2" d="M22.93,13.7V12.33l-4.79.08V13.7l1.17.47V19.1a4.63,4.63,0,0,0,1,3.33,4.48,4.48,0,0,0,3.32,1.05,4.49,4.49,0,0,0,3.46-1.14,5.08,5.08,0,0,0,1-3.47v-4.7l1.17-.47V12.33l-4.79.08V13.7l1.21.47v4.7a4,4,0,0,1-.4,2.09,1.75,1.75,0,0,1-1.59.63A1.9,1.9,0,0,1,22.17,21a3.15,3.15,0,0,1-.45-1.92V14.17Z"/></svg>