<svg xmlns="http://www.w3.org/2000/svg" width="192" height="192" viewBox="0 0 50.8 50.8" xmlns:v="https://vecta.io/nano"><g transform="matrix(3.90756 0 0 3.9077 -578.182 -50.441)"><circle fill="#0189d1" fill-rule="evenodd" cx="154.465" cy="19.408" r="6.5"/><path fill="#fff" d="M154.507 15.398c-.654 0-1.31.155-1.912.466a4.22 4.22 0 0 0-1.68 1.72c-.247.504-.438 1.104-.438 1.376 0 .165-.041.152 1.343.409.084.015.454.02.823.01.581-.015.837-.061 1.893-.338 1.213-.318 1.226-.32 2.136-.32.632 0 1.054.03 1.362.1l.471.1c.038 0-.032-.357-.137-.699-.29-.938-1.097-1.913-1.953-2.357a4.141 4.141 0 0 0-1.908-.467zm-2.51 1.518h2.319l-.092.218c-.101.242-.098.242.306-.047l.237-.17h1.243l1.241.033a1.05 1.05 0 0 1-.093.212c-.081.157-.126.18-.36.18h-.267l-.21.5c-.204.49-.215.502-.433.52-.123.011-.223-.007-.223-.039s.082-.25.183-.486l.183-.462c0-.018-.268-.033-.596-.033-.538 0-.618.015-.825.154-.226.153-.228.156-.121.3.077.105.178.15.362.164l.255.02-.084.197c-.077.18-.107.197-.357.197-.242 0-.296-.027-.482-.243-.115-.133-.226-.243-.249-.243s-.085.11-.138.243c-.088.218-.12.243-.309.243-.24 0-.24-.012.02-.6.079-.179.144-.35.144-.38s-.161-.052-.359-.052h-.358l-.231.516c-.224.499-.238.516-.435.516-.112 0-.204-.01-.204-.024s.082-.216.183-.452l.183-.49c0-.033-.135-.068-.3-.078l-.3-.019.083-.197zm4.76 2.358a3.61 3.61 0 0 0-.454.02c-.208.025-.732.18-1.164.345l-1.11.368c-.446.094-1.148.085-2.169-.028-.741-.082-.916-.084-1.23-.014-.248.056-.372.114-.385.183-.023.12.099.595.154.595a6.37 6.37 0 0 0 .487-.154c.532-.183 1.042-.202 2.318-.086.996.09 1.452.035 1.972-.24 1-.529 1.09-.563 1.572-.596.546-.037 1.05.069 1.647.346l.382.177.036-.143c.088-.349.027-.418-.493-.566a6.55 6.55 0 0 0-1.563-.207zm.871 1.173c-.318.003-.523.044-1 .168-1.022.265-1.332.305-2.733.345-.995.028-1.338.06-1.676.158-.422.121-1.376.564-1.376.637 0 .022.097.157.216.301l.216.263.282-.215c.155-.118.41-.279.567-.358.46-.232.95-.292 1.795-.218.823.071 1.091.044 2.046-.207.537-.142.717-.163 1.16-.137.294.017.677.085.874.155s.365.1.383.072c.087-.14.335-.87.305-.899-.018-.018-.328-.044-.688-.058a7.714 7.714 0 0 0-.37-.007z"/></g></svg>