<svg data-name="Layer 1" xmlns="http://www.w3.org/2000/svg" viewBox="0 0 36 36"><circle cx="18.03" cy="17.98" r="17.5" fill="#0189d1"/><path d="M10.41 21.55v-3h1.14l2.1 3.02-.9.37v1.36h4.77v-1.36l-1.15-.39-2.91-4.02 2.06-3.39 1.38-.44v-1.37l-2.83.08-2.6 4.43h-1.06v-2.67l1.2-.47v-1.37l-4.77.08v1.29l1.16.47v7.38l-1.16.39v1.36h4.77v-1.36l-1.2-.39zm12.52-7.85v-1.37l-4.79.08v1.29l1.17.47v4.93a4.63 4.63 0 001 3.33 4.48 4.48 0 003.32 1.05 4.49 4.49 0 003.46-1.14 5.08 5.08 0 001-3.47v-4.7l1.17-.47v-1.37l-4.79.08v1.29l1.21.47v4.7a4 4 0 01-.4 2.09 1.75 1.75 0 01-1.59.63 1.9 1.9 0 01-1.52-.59 3.15 3.15 0 01-.45-1.92v-4.91z" fill="#fff"/></svg>