<svg data-name="Layer 1" xmlns="http://www.w3.org/2000/svg" viewBox="0 0 36 36"><circle cx="18.03" cy="17.81" r="17.5" fill="#76a042"/><path d="M8.87 20v2.9l.46.13a8.19 8.19 0 001.33.3 9.39 9.39 0 001.62.15 4.59 4.59 0 003-.94 3.18 3.18 0 001.15-2.61 2.7 2.7 0 00-.43-1.46 2.55 2.55 0 00-.95-.95c-.38-.21-.8-.41-1.24-.6s-.86-.33-1.24-.45a2.58 2.58 0 01-.95-.48.87.87 0 01-.38-.71.92.92 0 01.42-.78 2 2 0 011.2-.31 4.34 4.34 0 011.34.23l.38 1.3H16l.07-2.78-.45-.15a8.64 8.64 0 00-1.3-.31 9.19 9.19 0 00-1.61-.15 4.42 4.42 0 00-2.8.84 2.89 2.89 0 00-1.08 2.4 3 3 0 00.38 1.53 2.74 2.74 0 001 1 11.92 11.92 0 001.24.61 11.39 11.39 0 001.25.45 2.73 2.73 0 01.95.47.91.91 0 01.39.72 1 1 0 01-.54.91 2.45 2.45 0 01-1.31.33 3.26 3.26 0 01-1.5-.32L10.43 20zm13.69-5.69a1.51 1.51 0 011.12.42 1.53 1.53 0 01.41 1.11 1.44 1.44 0 01-.51 1.16 2.11 2.11 0 01-1.4.42h-.87v-3.11zm-1.25 7.26v-2.52h.53a1.13 1.13 0 01.82.24 5 5 0 01.65 1.16l1.28 2.83h2.83V22l-1-.35-1-2.09a4.53 4.53 0 00-.65-1 3 3 0 001.73-2.88 2.73 2.73 0 00-1-2.33 4.74 4.74 0 00-2.94-.79h-1.25l-3.52.08v1.26l1.15.46v7.26l-1.15.38v1.33h4.62V22z" fill="#fff"/></svg>