<svg data-name="Layer 1" xmlns="http://www.w3.org/2000/svg" viewBox="0 0 36 36"><circle cx="17.93" cy="18.07" r="17.5" fill="#00a993"/><path d="M15.16 23.51v-1.37l-1.31-.4v-7.51h1.5l.39 1.5h1.48v-3.37l-9.18.05v3.32H9.5l.39-1.5h1.51v7.51l-1.3.4v1.37h5.06zm7.78-9.28a1.55 1.55 0 011.16.43 1.58 1.58 0 01.42 1.15A1.5 1.5 0 0124 17a2.2 2.2 0 01-1.45.43h-.91v-3.2zm-1.3 7.51v-2.61h.56a1.17 1.17 0 01.84.25 4.81 4.81 0 01.68 1.21l1.33 2.92H28v-1.37l-1.07-.37-1.06-2.16a4.25 4.25 0 00-.67-1 3.09 3.09 0 001.79-3 2.84 2.84 0 00-1.07-2.41 4.89 4.89 0 00-3-.82h-1.28l-3.64.06v1.31l1.18.48v7.51l-1.18.4v1.37h4.77v-1.37z" fill="#fff"/></svg>