<svg id="Layer_1" data-name="Layer 1" xmlns="http://www.w3.org/2000/svg" viewBox="0 0 36 36"><defs><style>.cls-1{fill:#00a993;}.cls-2{fill:#fff;}</style></defs><circle class="cls-1" cx="17.93" cy="18.07" r="17.5"/><polygon class="cls-2" points="15.16 23.51 15.16 22.14 13.85 21.74 13.85 14.23 15.35 14.23 15.74 15.73 17.22 15.73 17.22 12.36 8.04 12.41 8.04 15.73 9.5 15.73 9.89 14.23 11.4 14.23 11.4 21.74 10.1 22.14 10.1 23.51 15.16 23.51"/><path class="cls-2" d="M22.94,14.23a1.55,1.55,0,0,1,1.16.43,1.58,1.58,0,0,1,.42,1.15A1.5,1.5,0,0,1,24,17a2.2,2.2,0,0,1-1.45.43h-.91V14.23Zm-1.3,7.51V19.13h.56a1.17,1.17,0,0,1,.84.25,4.81,4.81,0,0,1,.68,1.21l1.33,2.92H28V22.14l-1.07-.37-1.06-2.16a4.25,4.25,0,0,0-.67-1,3.09,3.09,0,0,0,1.79-3,2.84,2.84,0,0,0-1.07-2.41,4.89,4.89,0,0,0-3-.82H21.64L18,12.44v1.31l1.18.48v7.51l-1.18.4v1.37h4.77V22.14Z"/></svg>