<svg id="Layer_1" data-name="Layer 1" xmlns="http://www.w3.org/2000/svg" viewBox="0 0 36 36"><defs><style>.cls-1{fill:#7b352a;}.cls-2{fill:#fff;}</style></defs><circle class="cls-1" cx="18.03" cy="17.94" r="17.5"/><path class="cls-2" d="M11.92,13.7V12.33l-4.79.07v1.3l1.16.46v4.93a4.6,4.6,0,0,0,1,3.33,4.45,4.45,0,0,0,3.33,1.06,4.44,4.44,0,0,0,3.45-1.15,5.08,5.08,0,0,0,1-3.47v-4.7l1.17-.46V12.33l-4.79.07v1.3l1.21.46v4.7a4,4,0,0,1-.4,2.09,1.75,1.75,0,0,1-1.59.63A1.9,1.9,0,0,1,11.15,21a3.15,3.15,0,0,1-.45-1.92V14.16Z"/><path class="cls-2" d="M24.26,14.16a1.51,1.51,0,0,1,1.14.43,1.55,1.55,0,0,1,.42,1.13,1.47,1.47,0,0,1-.51,1.2,2.17,2.17,0,0,1-1.44.43H23V14.16ZM23,21.55V19h.54a1.14,1.14,0,0,1,.83.25A4.58,4.58,0,0,1,25,20.41l1.3,2.88h2.88V21.94l-1.06-.36-1-2.13a4.59,4.59,0,0,0-.65-1,3,3,0,0,0,1.75-2.94,2.79,2.79,0,0,0-1.05-2.37,4.79,4.79,0,0,0-3-.8H23l-3.58.07v1.3l1.17.46v7.39l-1.17.39v1.35h4.7V21.94Z"/></svg>