<svg data-name="Layer 1" xmlns="http://www.w3.org/2000/svg" viewBox="0 0 36 36"><circle cx="18.03" cy="17.94" r="17.5" fill="#7b352a"/><path d="M11.92 13.7v-1.37l-4.79.07v1.3l1.16.46v4.93a4.6 4.6 0 001 3.33 4.45 4.45 0 003.33 1.06 4.44 4.44 0 003.45-1.15 5.08 5.08 0 001-3.47v-4.7l1.17-.46v-1.37l-4.79.07v1.3l1.21.46v4.7a4 4 0 01-.4 2.09 1.75 1.75 0 01-1.59.63 1.9 1.9 0 01-1.52-.58 3.15 3.15 0 01-.45-1.92v-4.92zm12.34.46a1.51 1.51 0 011.14.43 1.55 1.55 0 01.42 1.13 1.47 1.47 0 01-.51 1.2 2.17 2.17 0 01-1.44.43H23v-3.19zM23 21.55V19h.54a1.14 1.14 0 01.83.25 4.58 4.58 0 01.63 1.16l1.3 2.88h2.88v-1.35l-1.06-.36-1-2.13a4.59 4.59 0 00-.65-1 3 3 0 001.75-2.94 2.79 2.79 0 00-1.05-2.37 4.79 4.79 0 00-3-.8H23l-3.58.07v1.3l1.17.46v7.39l-1.17.39v1.35h4.7v-1.36z" fill="#fff"/></svg>