<svg id="Layer_1" data-name="Layer 1" xmlns="http://www.w3.org/2000/svg" xmlns:xlink="http://www.w3.org/1999/xlink" viewBox="0 0 36 36"><defs><style>.cls-1{fill:none;}.cls-2{clip-path:url(#clip-path);}.cls-3{clip-path:url(#clip-path-2);}.cls-4{fill:#7b352a;}.cls-5{fill:#fff;}.cls-6{fill:#320a0b;}</style><clipPath id="clip-path"><polyline class="cls-1" points="-3.56 -3.67 39.64 -3.67 39.64 39.53 -3.56 39.53 -3.56 -3.67"/></clipPath><clipPath id="clip-path-2"><path class="cls-1" d="M-3.56,17.93A21.94,21.94,0,0,1-1.92,9.67a22,22,0,0,1,2-3.74A21.08,21.08,0,0,1,2.77,2.66,21.66,21.66,0,0,1,6,0,21.88,21.88,0,0,1,9.77-2a22.1,22.1,0,0,1,4.06-1.23,21.31,21.31,0,0,1,8.42,0A21.65,21.65,0,0,1,30,0a21.66,21.66,0,0,1,3.27,2.69A21.08,21.08,0,0,1,36,5.93a21.5,21.5,0,0,1,3.64,12A21.43,21.43,0,0,1,38,26.2a21.8,21.8,0,0,1-4.69,7A21,21,0,0,1,30,35.89a21.24,21.24,0,0,1-3.73,2,21.87,21.87,0,0,1-4.06,1.23,21.82,21.82,0,0,1-8.42,0,22.1,22.1,0,0,1-4.06-1.23,21.24,21.24,0,0,1-3.73-2,21,21,0,0,1-3.27-2.68,21.8,21.8,0,0,1-4.69-7,21.93,21.93,0,0,1-1.64-8.27"/></clipPath></defs><g class="cls-2"><g class="cls-3"><path class="cls-4" d="M35.54,17.93c0,.58,0,1.15-.08,1.72a16.22,16.22,0,0,1-.26,1.7c-.11.56-.25,1.12-.41,1.66s-.36,1.09-.58,1.62a18.9,18.9,0,0,1-1.62,3q-.48.7-1,1.38c-.37.44-.75.86-1.16,1.27a15.49,15.49,0,0,1-1.27,1.15,13.64,13.64,0,0,1-1.38,1,15.52,15.52,0,0,1-1.47.89c-.51.27-1,.51-1.55.73s-1.07.41-1.62.58a15.68,15.68,0,0,1-1.67.42c-.56.11-1.12.19-1.69.25a16.5,16.5,0,0,1-1.72.08,16.63,16.63,0,0,1-1.72-.08c-.57-.06-1.13-.14-1.69-.25A15.68,15.68,0,0,1,13,34.68c-.55-.17-1.09-.36-1.62-.58s-1-.46-1.55-.73a16.89,16.89,0,0,1-1.47-.89,13.64,13.64,0,0,1-1.38-1c-.44-.36-.87-.75-1.27-1.15S4.88,29.48,4.51,29s-.7-.91-1-1.38a18.9,18.9,0,0,1-1.62-3c-.22-.53-.41-1.07-.58-1.62S1,21.91.88,21.35a16.22,16.22,0,0,1-.26-1.7c-.05-.57-.08-1.14-.08-1.72s0-1.14.08-1.71a16.22,16.22,0,0,1,.26-1.7c.11-.56.25-1.12.41-1.67s.36-1.08.58-1.61.47-1.05.74-1.56.56-1,.88-1.47.66-.93,1-1.38S5.26,6,5.67,5.56A15.32,15.32,0,0,1,6.94,4.41a15.46,15.46,0,0,1,1.38-1c.47-.31,1-.61,1.47-.88s1-.51,1.55-.73A15.62,15.62,0,0,1,13,1.19,15.68,15.68,0,0,1,14.63.77,16,16,0,0,1,16.32.52a16.48,16.48,0,0,1,3.44,0,16,16,0,0,1,1.69.25,15.68,15.68,0,0,1,1.67.42,15.62,15.62,0,0,1,1.62.58c.53.22,1,.46,1.55.73s1,.57,1.47.88a15.46,15.46,0,0,1,1.38,1,13.87,13.87,0,0,1,1.27,1.15c.41.41.79.83,1.16,1.27s.7.91,1,1.38.61,1,.88,1.47.52,1,.74,1.56.41,1.07.58,1.61.3,1.11.41,1.67a16.22,16.22,0,0,1,.26,1.7C35.51,16.79,35.54,17.36,35.54,17.93Z"/><path class="cls-5" d="M11.22,13.23V11.71l-5.32.08v1.44l1.29.52v5.47a5.14,5.14,0,0,0,1.14,3.7A5,5,0,0,0,12,24.1a5,5,0,0,0,3.84-1.27A5.65,5.65,0,0,0,17,19V13.75l1.3-.52V11.71L13,11.79v1.44l1.35.52V19a4.48,4.48,0,0,1-.45,2.32,1.94,1.94,0,0,1-1.76.7,2.13,2.13,0,0,1-1.75-.63,3.52,3.52,0,0,1-.5-2.14V13.75Z"/><path class="cls-5" d="M24.94,13.75a1.71,1.71,0,0,1,1.26.47,1.73,1.73,0,0,1,.47,1.25,1.63,1.63,0,0,1-.57,1.34,2.4,2.4,0,0,1-1.59.48h-1V13.75ZM23.52,22V19.1h.61a1.26,1.26,0,0,1,.92.28,5.16,5.16,0,0,1,.74,1.31l1.45,3.2h3.2v-1.5L29.26,22,28.1,19.62a5,5,0,0,0-.72-1.12,3.37,3.37,0,0,0,1.95-3.27,3.09,3.09,0,0,0-1.17-2.63,5.31,5.31,0,0,0-3.32-.89H23.52l-4,.08v1.44l1.3.52V22l-1.3.44v1.5h5.22v-1.5Z"/></g></g><path class="cls-6" d="M35.25,17.93H35a15.25,15.25,0,0,1-.09,1.66,15.62,15.62,0,0,1-.24,1.65c-.11.54-.24,1.08-.4,1.61s-.35,1-.56,1.56-.45,1-.71,1.5a15.93,15.93,0,0,1-.86,1.43,13.89,13.89,0,0,1-1,1.33A16.95,16.95,0,0,1,28.78,31c-.43.35-.88.68-1.34,1a15.67,15.67,0,0,1-1.42.85c-.49.26-1,.5-1.5.71s-1,.4-1.57.56-1.06.3-1.61.41-1.09.18-1.64.24-1.11.08-1.66.08-1.11,0-1.66-.08-1.1-.14-1.64-.24-1.08-.25-1.61-.41-1.06-.35-1.57-.56-1-.45-1.5-.71A15.67,15.67,0,0,1,8.64,32c-.46-.31-.91-.64-1.34-1A16.95,16.95,0,0,1,5,28.67a13.89,13.89,0,0,1-1-1.33,15.93,15.93,0,0,1-.86-1.43c-.26-.49-.5-1-.71-1.5s-.4-1-.56-1.56-.29-1.07-.4-1.61a15.62,15.62,0,0,1-.24-1.65,15.26,15.26,0,0,1,0-3.31,15.25,15.25,0,0,1,.24-1.65c.11-.54.24-1.08.4-1.61s.35-1,.56-1.56A14.75,14.75,0,0,1,3.11,10,15.93,15.93,0,0,1,4,8.53,12.74,12.74,0,0,1,5,7.2,16.21,16.21,0,0,1,6.07,6,14.45,14.45,0,0,1,7.3,4.85c.43-.35.88-.68,1.34-1A15.67,15.67,0,0,1,10.06,3c.49-.26,1-.5,1.5-.71a14.66,14.66,0,0,1,1.57-.56c.53-.16,1.06-.3,1.61-.41s1.09-.19,1.64-.24S17.49,1,18,1s1.11,0,1.66.08,1.1.14,1.64.24,1.08.25,1.61.41a14.66,14.66,0,0,1,1.57.56c.51.21,1,.45,1.5.71a15.67,15.67,0,0,1,1.42.85c.46.31.91.64,1.34,1A14.45,14.45,0,0,1,30,6,16.21,16.21,0,0,1,31.12,7.2a12.74,12.74,0,0,1,1,1.33A15.93,15.93,0,0,1,33,10a14.75,14.75,0,0,1,.71,1.5c.21.51.4,1,.56,1.56s.29,1.07.4,1.61a15.25,15.25,0,0,1,.24,1.65A15.2,15.2,0,0,1,35,17.93h.57c0-.57,0-1.14-.08-1.71a16.22,16.22,0,0,0-.26-1.7c-.11-.56-.25-1.12-.41-1.67s-.36-1.08-.58-1.61-.47-1.05-.74-1.56-.56-1-.88-1.47-.66-.93-1-1.38S30.82,6,30.41,5.56a13.87,13.87,0,0,0-1.27-1.15,15.46,15.46,0,0,0-1.38-1c-.47-.31-1-.61-1.47-.88s-1-.51-1.55-.73a15.62,15.62,0,0,0-1.62-.58A15.68,15.68,0,0,0,21.45.77,16,16,0,0,0,19.76.52a16.48,16.48,0,0,0-3.44,0,16,16,0,0,0-1.69.25A15.68,15.68,0,0,0,13,1.19a15.62,15.62,0,0,0-1.62.58c-.53.22-1,.46-1.55.73s-1,.57-1.47.88a15.46,15.46,0,0,0-1.38,1A15.32,15.32,0,0,0,5.67,5.56c-.41.4-.79.83-1.16,1.27s-.7.91-1,1.38-.61,1-.88,1.47-.52,1-.74,1.56-.41,1.07-.58,1.61S1,14,.88,14.52a16.22,16.22,0,0,0-.26,1.7c-.05.57-.08,1.14-.08,1.71s0,1.15.08,1.72a16.22,16.22,0,0,0,.26,1.7c.11.56.25,1.12.41,1.66s.36,1.09.58,1.62a18.9,18.9,0,0,0,1.62,3q.48.7,1,1.38c.37.44.75.86,1.16,1.27s.83.79,1.27,1.15a13.64,13.64,0,0,0,1.38,1,16.89,16.89,0,0,0,1.47.89c.51.27,1,.51,1.55.73s1.07.41,1.62.58a15.68,15.68,0,0,0,1.67.42c.56.11,1.12.19,1.69.25a16.63,16.63,0,0,0,1.72.08,16.5,16.5,0,0,0,1.72-.08c.57-.06,1.13-.14,1.69-.25a15.68,15.68,0,0,0,1.67-.42c.55-.17,1.09-.36,1.62-.58s1-.46,1.55-.73a15.52,15.52,0,0,0,1.47-.89,13.64,13.64,0,0,0,1.38-1,15.49,15.49,0,0,0,1.27-1.15c.41-.41.79-.83,1.16-1.27s.7-.91,1-1.38a18.9,18.9,0,0,0,1.62-3c.22-.53.41-1.07.58-1.62s.3-1.1.41-1.66a16.22,16.22,0,0,0,.26-1.7c0-.57.08-1.14.08-1.72Z"/></svg>
