<?xml version="1.0" encoding="UTF-8"?>
<svg id="Layer_2" data-name="Layer 2" xmlns="http://www.w3.org/2000/svg" xmlns:xlink="http://www.w3.org/1999/xlink" viewBox="0 0 33.1 33.1">
  <defs>
    <style>
      .cls-1 {
        fill: #c67b2a;
      }

      .cls-1, .cls-2, .cls-3 {
        stroke-width: 0px;
      }

      .cls-2, .cls-4 {
        fill: none;
      }

      .cls-5 {
        clip-path: url(#clippath);
      }

      .cls-6 {
        clip-path: url(#clippath-3);
      }

      .cls-4 {
        stroke: #231f20;
        stroke-miterlimit: 10;
        stroke-width: .5px;
      }

      .cls-3 {
        fill: #fff;
      }
    </style>
    <clipPath id="clippath">
      <rect class="cls-2" x="1.95" y=".48" width="28.58" height="28.58"/>
    </clipPath>
    <clipPath id="clippath-1">
      <rect class="cls-2" x="1.95" y=".48" width="28.58" height="28.58"/>
    </clipPath>
    <clipPath id="clippath-3">
      <rect class="cls-2" x="1.95" y=".48" width="28.58" height="28.58"/>
    </clipPath>
  </defs>
  <g id="Tokens">
    <g id="Bengal_Nagpur" data-name="Bengal Nagpur">
      <circle class="cls-1" cx="16.55" cy="16.55" r="16.3"/>
      <g class="cls-5">
        <g class="cls-6">
          <path class="cls-3" d="M14.2,6.23c-.02-.13.17-.2.26-.1.64.69,2.33,2.22,4.6,2.28,2.62.08,4.35-2.24,4.35-2.24l1.55,2.29s-2.79,2.12-5.62,1.99c-4.26-.19-5.01-3.1-5.14-4.22"/>
          <path class="cls-3" d="M18.27,4.02l-1.69,1.71c-.06.06-.06.16.01.22l1.83,1.5c.07.06.19.06.26-.01l1.63-1.62c.13-.13.11-.32-.03-.43l-1.78-1.38c-.07-.05-.18-.05-.24.01"/>
          <path class="cls-3" d="M25.56,12.04c-.51-.7-1.25-1.39-3.32-1.39s-2.67.88-3.53,1.84c-.82.91-1.14,2.99-3.07,3.8-.31.13-.94.18-1.53-.03-.7-.25-1.2-.64-1.2-.64,0,0,2.31-.32,2.82-2.29.9-3.43-1.46-4.79-2.87-5.16-1.09-.29-1.9-.36-3.77.26-.81.27-2.82,1.82-2.82,1.82l1.65,2.11s2.05-1.44,4.07-1.52c1.33-.05,2.9,1.94,1.38,2.85-1.16.69-3.09.65-3.94.58-.19-.01-.33.16-.25.32l1.05,2.2c.07.16.23.26.42.29,1.04.12,4.44.72,3.79,3.31-.58,2.31-3.12,2.17-4.59,2.12-4.59-.15-5.63-5.9-5.63-5.9,0,0-1.48,6.06,4.56,8.39,2.72,1.05,5.98.8,7.64-2.11,1.6-2.81.17-4.61-.27-5.23,1.16.11,2.1-.26,2.74-.59,2.11-1.1,2.6-4.69,4.09-4.16,1.35.48,1.25,5.35-.3,7-1.39,1.48-3.21-.5-3.91-1.4-.11-.14-.35-.08-.37.09-.08.7-.19,1.98.01,2.74.22.82.58,1.86,2.67,2.33,1.78.4,2.4.17,3.87-.6,1.59-.84,2.11-2.74,2.29-5.3.18-2.57-.74-4.44-1.68-5.74"/>
        </g>
      </g>
    </g>
  </g>
  <g id="Dire_line" data-name="Dire line">
    <circle class="cls-4" cx="16.55" cy="16.55" r="16.3"/>
  </g>
</svg>