<?xml version="1.0" encoding="UTF-8"?>
<svg id="Layer_2" data-name="Layer 2" xmlns="http://www.w3.org/2000/svg" version="1.1" xmlns:xlink="http://www.w3.org/1999/xlink" viewBox="0 0 33.1 33.1">
  <defs>
    <style>
      .cls-1 {
        fill: none;
      }

      .cls-1, .cls-2, .cls-3 {
        stroke-width: 0px;
      }

      .cls-2 {
        fill: #c67b2a;
      }

      .cls-4 {
        clip-path: url(#clippath-1);
      }

      .cls-5 {
        clip-path: url(#clippath);
      }

      .cls-3 {
        fill: #fff;
      }
    </style>
    <clipPath id="clippath">
      <rect class="cls-1" x="2.3" y="1.5" width="28.5" height="28.5"/>
    </clipPath>
    <clipPath id="clippath-1">
      <rect class="cls-1" x="2.3" y="1.5" width="28.5" height="28.5"/>
    </clipPath>
  </defs>
  <g id="Dire_line" data-name="Dire line">
    <circle class="cls-3" cx="16.5" cy="16.5" r="16.3"/>
  </g>
  <g id="Tokens">
    <g id="Bengal_Nagpur" data-name="Bengal Nagpur">
      <g class="cls-5">
        <g class="cls-4">
          <g>
            <path class="cls-2" d="M14.5,7.2c0,0,.2-.2.3,0,.6.7,2.3,2.2,4.6,2.3,2.6,0,4.3-2.2,4.3-2.2l1.5,2.3s-2.8,2.1-5.6,2c-4.2-.2-5-3.1-5.1-4.2"/>
            <path class="cls-2" d="M18.6,5l-1.7,1.7v.2l1.8,1.5h.3l1.6-1.6c.1,0,.1-.3,0-.4l-1.8-1.4h-.2"/>
            <path class="cls-2" d="M25.9,13.1c-.5-.7-1.2-1.4-3.3-1.4s-2.7.9-3.5,1.8c-.8.9-1.1,3-3.1,3.8-.3.1-.9.2-1.5,0-.7-.2-1.2-.6-1.2-.6,0,0,2.3-.3,2.8-2.3.9-3.4-1.5-4.8-2.9-5.2-1.1-.3-1.9-.4-3.8.3-.8.3-2.8,1.8-2.8,1.8l1.7,2.1s2.1-1.4,4.1-1.5c1.3,0,2.9,1.9,1.4,2.9-1.2.7-3.1.6-3.9.6s-.3.2-.2.3l1.1,2.2c0,.2.2.3.4.3,1,.1,4.4.7,3.8,3.3-.6,2.3-3.1,2.2-4.6,2.1-4.6-.1-5.6-5.9-5.6-5.9,0,0-1.5,6,4.6,8.4,2.7,1,6,.8,7.6-2.1,1.6-2.8.2-4.6-.3-5.2,1.2.1,2.1-.3,2.7-.6,2.1-1.1,2.6-4.7,4.1-4.1,1.3.5,1.2,5.3-.3,7-1.4,1.5-3.2-.5-3.9-1.4-.1-.1-.3,0-.4,0,0,.7-.2,2,0,2.7.2.8.6,1.9,2.7,2.3,1.8.4,2.4.2,3.9-.6,1.6-.8,2.1-2.7,2.3-5.3.2-2.6-.7-4.4-1.7-5.7"/>
          </g>
        </g>
      </g>
    </g>
  </g>
</svg>