<?xml version="1.0" encoding="UTF-8"?>
<svg id="Layer_2" data-name="Layer 2" xmlns="http://www.w3.org/2000/svg" xmlns:xlink="http://www.w3.org/1999/xlink" viewBox="0 0 33.1 33.1">
  <defs>
    <style>
      .cls-1 {
        fill: #c67b2a;
      }

      .cls-1, .cls-2 {
        stroke-width: 0px;
      }

      .cls-2, .cls-3 {
        fill: none;
      }

      .cls-4 {
        clip-path: url(#clippath);
      }

      .cls-5 {
        clip-path: url(#clippath-3);
      }

      .cls-3 {
        stroke: #231f20;
        stroke-miterlimit: 10;
        stroke-width: .5px;
      }
    </style>
    <clipPath id="clippath">
      <rect class="cls-2" x="2.29" y="1.51" width="28.53" height="28.53"/>
    </clipPath>
    <clipPath id="clippath-1">
      <rect class="cls-2" x="2.29" y="1.51" width="28.53" height="28.53"/>
    </clipPath>
    <clipPath id="clippath-3">
      <rect class="cls-2" x="2.29" y="1.51" width="28.53" height="28.53"/>
    </clipPath>
  </defs>
  <g id="Tokens">
    <g id="Bengal_Nagpur" data-name="Bengal Nagpur">
      <g class="cls-4">
        <g class="cls-5">
          <path class="cls-1" d="M14.51,7.25c-.02-.13.17-.2.26-.1.64.69,2.32,2.21,4.6,2.28,2.62.08,4.34-2.24,4.34-2.24l1.55,2.29s-2.79,2.11-5.61,1.99c-4.25-.19-5-3.1-5.13-4.21"/>
          <path class="cls-1" d="M18.58,5.04l-1.68,1.71c-.06.06-.06.16.01.22l1.82,1.5c.07.06.19.06.26-.01l1.63-1.62c.13-.13.11-.32-.03-.43l-1.77-1.38c-.07-.05-.17-.05-.24.01"/>
          <path class="cls-1" d="M25.86,13.05c-.51-.7-1.25-1.39-3.32-1.39s-2.66.88-3.52,1.84c-.82.91-1.13,2.98-3.06,3.79-.31.13-.94.18-1.53-.03-.7-.25-1.2-.64-1.2-.64,0,0,2.3-.32,2.82-2.28.89-3.42-1.46-4.78-2.86-5.15-1.09-.29-1.9-.36-3.77.26-.81.27-2.81,1.81-2.81,1.81l1.65,2.11s2.05-1.44,4.06-1.52c1.33-.05,2.89,1.94,1.37,2.85-1.16.69-3.08.64-3.93.58-.19-.01-.33.16-.25.32l1.05,2.2c.07.16.23.26.42.29,1.04.12,4.44.72,3.79,3.3-.58,2.31-3.12,2.17-4.58,2.12-4.58-.15-5.62-5.89-5.62-5.89,0,0-1.48,6.05,4.55,8.38,2.72,1.05,5.97.8,7.63-2.1,1.6-2.81.17-4.6-.27-5.22,1.16.11,2.1-.26,2.73-.59,2.11-1.1,2.6-4.68,4.08-4.15,1.34.48,1.25,5.34-.3,6.99-1.39,1.48-3.2-.5-3.9-1.4-.11-.14-.34-.08-.37.09-.08.7-.19,1.97.01,2.74.22.82.58,1.86,2.66,2.33,1.78.4,2.4.17,3.86-.6,1.58-.83,2.11-2.73,2.28-5.3.18-2.56-.74-4.43-1.68-5.73"/>
        </g>
      </g>
    </g>
  </g>
  <g id="Dire_line" data-name="Dire line">
    <circle class="cls-3" cx="16.55" cy="16.55" r="16.3"/>
  </g>
</svg>