<?xml version="1.0" encoding="UTF-8"?>
<svg id="Layer_2" data-name="Layer 2" xmlns="http://www.w3.org/2000/svg" xmlns:xlink="http://www.w3.org/1999/xlink" viewBox="0 0 33.1 33.1">
  <defs>
    <style>
      .cls-1 {
        fill: #6653a3;
      }

      .cls-1, .cls-2, .cls-3 {
        stroke-width: 0px;
      }

      .cls-2, .cls-4 {
        fill: none;
      }

      .cls-5 {
        clip-path: url(#clippath-1);
      }

      .cls-6 {
        clip-path: url(#clippath);
      }

      .cls-4 {
        stroke: #231f20;
        stroke-miterlimit: 10;
        stroke-width: .5px;
      }

      .cls-3 {
        fill: #fff;
      }
    </style>
    <clipPath id="clippath">
      <rect class="cls-2" x="2.48" y=".25" width="28.15" height="28.15"/>
    </clipPath>
    <clipPath id="clippath-1">
      <rect class="cls-2" x="2.48" y=".25" width="28.15" height="28.15"/>
    </clipPath>
  </defs>
  <g id="Tokens">
    <g id="Bombay">
      <circle class="cls-1" cx="16.55" cy="16.55" r="16.3"/>
      <g class="cls-6">
        <g class="cls-5">
          <path class="cls-3" d="M23.59,9.74c-.27-1.86-.95-3.11-1.69-3.93-.39-.51-.85-1.08-1.17-1.4-.06.57-.24,1.2-.54,1.87-.21.47-.41.8-.58,1.09-.02.03-.03.05-.05.08,0,.39.01.77.02,1.17.05,2.15.11,4.56-1,8.62,1.82-1.54,5.39-4.94,5.01-7.51M20.71,8.81h1.15c.29,0,.52.24.52.54h-2.2c0-.3.23-.54.52-.54M22.17,11.2h-1.98v-.54h1.98v.54ZM22.59,10.28h-2.4v-.54h2.4v.54ZM23.82,21.1c-1.48-.25-3.72-.49-6.1-.6-.06-.15-.08-.29-.07-.44.06-.81.29-1.67.58-2.52,0,0,0,0,0,0,1.2-4.25,1.14-6.72,1.09-8.91,0-.24-.01-.48-.02-.71-.09.19-.15.38-.18.62-.04.27-.02.52,0,.76.03.47.06.91-.28,1.45-.26.41-.63.55-.89.6,0,.14-.03.68.03,1,.12.57.34.87.29.82-.1-.09-.33-.36-.45-.48-.07-.06.25.73.24.71-.14-.14-.42-.52-.49-.71-.16-.39-.19-1.22-.2-1.37-.27-.06-.67-.21-.93-.6-.39-.57-.35-.99-.32-1.43.02-.23.04-.47-.01-.75-.04-.24-.11-.43-.21-.6.07,1.88.04,3.42-.11,4.85-.2,1.83-.59,3.49-1.21,5.05,0,0,0,0,0,0-.33.98-.65,1.94-.83,2.59-2.17.05-4.16.26-5.48.7-4.83,1.64-2.25,5.76,2.95,5.76,1.13,0,4.23.07,5.85.1.21,0,1.56.05,1.36-.03-1.33-.52-3.18-1.48-4.27-3.13-.07-.1-2.26-.03-3.39-.04-1.15,0-1.33-.74-.52-.74,1.01,0,2.28-.01,3.65-.03,1.06,2.53,4.55,3.79,4.91,3.92.02,0,.04.01.06.01h5.59c1.07,0,3.59-1.05,3.59-3.25,0-1.57-2.27-2.28-4.23-2.61M22.63,23.55c-.47-.1-1.07-.3-1.68-.57.88,0,1.58.07,2.26.08.18,0,.91.06.9.28-.03.39-.9.32-1.47.21M15.62,7.62s0-.04.01-.06c-.02-.03-.05-.06-.07-.09-.19-.25-.42-.56-.69-1.02-.55-.95-.51-1.78-.48-2.21-.06.05-.12.1-.18.14-.18.13-.38.32-.59.56-1.26,1.23-2.83,3.24-2.83,5.15,0,2.82,2.71,6.05,3.73,7.15,1.2-3.35,1.23-6.73,1.1-9.62M14.89,11.23h-1.98v-.54h1.98v.54ZM14.89,10.31h-2.4v-.54h2.4v.54ZM12.91,9.33c0-.3.23-.54.52-.54h.94c.29,0,.52.24.52.54h-1.98ZM17.29,2.87c-1.31,0-2.07.67-2.67,1.18,0,.04,0,.09-.01.15-.04.42-.1,1.2.44,2.14.26.45.49.75.67,1,.29.38.5.66.59,1.18.05.3.03.56.01.8-.03.42-.06.78.28,1.29.37.54,1.07.55,1.08.55.03,0,.63.02.98-.53.3-.48.28-.87.25-1.32-.02-.25-.03-.51,0-.8.05-.41.2-.71.38-1.03l.16-.28c.16-.27.34-.58.53-1.01.32-.71.5-1.37.53-1.95-.9-.74-1.78-1.36-3.24-1.36M16.54,6.83s-.01,0-.02,0c-.06,0-.11-.04-.12-.09,0,0,0-.05-.03-.13-.05.04-.12.07-.2.07-.16,0-.29-.12-.29-.26s.13-.26.29-.26c.02,0,.03,0,.05,0-.1-.22-.24-.44-.45-.56-.06-.03-.07-.1-.04-.15.03-.05.1-.07.16-.04.58.32.73,1.25.74,1.29,0,.06-.03.11-.1.12M19.26,5.6c-.19.12-.32.34-.4.56.01,0,.03,0,.04,0,.14,0,.26.12.26.26s-.12.26-.26.26c-.07,0-.13-.03-.18-.07-.02.08-.03.13-.03.13,0,.05-.05.09-.1.09,0,0-.01,0-.02,0-.06,0-.1-.06-.09-.12,0-.04.15-.97.66-1.29.05-.03.11-.01.14.04.03.05.01.12-.04.15"/>
        </g>
      </g>
    </g>
  </g>
  <g id="Dire_line" data-name="Dire line">
    <circle class="cls-4" cx="16.55" cy="16.55" r="16.3"/>
  </g>
</svg>