<?xml version="1.0" encoding="UTF-8"?>
<svg id="Layer_2" data-name="Layer 2" xmlns="http://www.w3.org/2000/svg" version="1.1" xmlns:xlink="http://www.w3.org/1999/xlink" viewBox="0 0 33.1 33.1">
  <defs>
    <style>
      .cls-1 {
        fill: #6653a3;
      }

      .cls-1, .cls-2, .cls-3 {
        stroke-width: 0px;
      }

      .cls-2 {
        fill: none;
      }

      .cls-4 {
        clip-path: url(#clippath-1);
      }

      .cls-5 {
        clip-path: url(#clippath);
      }

      .cls-3 {
        fill: #fff;
      }
    </style>
    <clipPath id="clippath">
      <rect class="cls-2" x="1.6" y=".2" width="28.1" height="28.1"/>
    </clipPath>
    <clipPath id="clippath-1">
      <rect class="cls-2" x="1.6" y=".2" width="28.1" height="28.1"/>
    </clipPath>
  </defs>
  <circle class="cls-3" cx="16.5" cy="16.5" r="16.3"/>
  <g id="Tokens">
    <g id="Bombay">
      <g class="cls-5">
        <g class="cls-4">
          <path class="cls-1" d="M22.8,9.7c-.3-1.9-1-3.1-1.7-3.9-.4-.5-.9-1.1-1.2-1.4,0,.6-.2,1.2-.5,1.9-.2.5-.4.8-.6,1.1,0,0,0,0,0,0,0,.4,0,.8,0,1.2,0,2.1.1,4.6-1,8.6,1.8-1.5,5.4-4.9,5-7.5M19.9,8.8h1.1c.3,0,.5.2.5.5h-2.2c0-.3.2-.5.5-.5M21.3,11.2h-2v-.5h2v.5ZM21.8,10.3h-2.4v-.5h2.4v.5ZM23,21.1c-1.5-.2-3.7-.5-6.1-.6,0-.1,0-.3,0-.4,0-.8.3-1.7.6-2.5h0c1.2-4.2,1.1-6.7,1.1-8.9,0-.2,0-.5,0-.7,0,.2-.1.4-.2.6,0,.3,0,.5,0,.8,0,.5,0,.9-.3,1.4-.3.4-.6.6-.9.6,0,.1,0,.7,0,1,.1.6.3.9.3.8-.1,0-.3-.4-.5-.5,0,0,.2.7.2.7-.1-.1-.4-.5-.5-.7-.2-.4-.2-1.2-.2-1.4-.3,0-.7-.2-.9-.6-.4-.6-.4-1-.3-1.4,0-.2,0-.5,0-.8,0-.2-.1-.4-.2-.6,0,1.9,0,3.4-.1,4.8-.2,1.8-.6,3.5-1.2,5.1h0c-.3,1-.6,1.9-.8,2.6-2.2,0-4.2.3-5.5.7-4.8,1.6-2.2,5.8,3,5.8s4.2,0,5.9.1c.2,0,1.6,0,1.4,0-1.3-.5-3.2-1.5-4.3-3.1,0-.1-2.3,0-3.4,0-1.1,0-1.3-.7-.5-.7s2.3,0,3.6,0c1.1,2.5,4.6,3.8,4.9,3.9,0,0,0,0,0,0h5.6c1.1,0,3.6-1,3.6-3.2s-2.3-2.3-4.2-2.6M21.8,23.5c-.5-.1-1.1-.3-1.7-.6.9,0,1.6,0,2.3,0,.2,0,.9,0,.9.3,0,.4-.9.3-1.5.2M14.8,7.6s0,0,0,0c0,0,0,0,0,0-.2-.2-.4-.6-.7-1-.6-.9-.5-1.8-.5-2.2,0,0-.1,0-.2.1-.2.1-.4.3-.6.6-1.3,1.2-2.8,3.2-2.8,5.2,0,2.8,2.7,6,3.7,7.1,1.2-3.4,1.2-6.7,1.1-9.6M14.1,11.2h-2v-.5h2s0,.5,0,.5ZM14.1,10.3h-2.4v-.5h2.4s0,.5,0,.5ZM12.1,9.3c0-.3.2-.5.5-.5h.9c.3,0,.5.2.5.5h-2ZM16.5,2.9c-1.3,0-2.1.7-2.7,1.2,0,0,0,0,0,.2,0,.4-.1,1.2.4,2.1.3.4.5.8.7,1,.3.4.5.7.6,1.2,0,.3,0,.6,0,.8,0,.4,0,.8.3,1.3.4.5,1.1.6,1.1.6,0,0,.6,0,1-.5.3-.5.3-.9.2-1.3,0-.2,0-.5,0-.8,0-.4.2-.7.4-1l.2-.3c.2-.3.3-.6.5-1,.3-.7.5-1.4.5-1.9-.9-.7-1.8-1.4-3.2-1.4M15.7,6.8h0c0,0-.1,0-.1,0,0,0,0,0,0-.1,0,0-.1,0-.2,0-.2,0-.3-.1-.3-.3s.1-.3.3-.3h0c-.1-.2-.2-.4-.4-.6,0,0,0,0,0-.2s.1,0,.2,0c.6.3.7,1.2.7,1.3,0,0,0,.1-.1.1M18.4,5.6c-.2.1-.3.3-.4.6h0c.1,0,.3.1.3.3s-.1.3-.3.3-.1,0-.2,0c0,0,0,.1,0,.1,0,0,0,0-.1,0h0c0,0-.1,0,0-.1,0,0,.1-1,.7-1.3,0,0,.1,0,.1,0,0,0,0,.1,0,.2"/>
        </g>
      </g>
    </g>
  </g>
</svg>