<?xml version="1.0" encoding="UTF-8"?>
<svg id="Layer_2" data-name="Layer 2" xmlns="http://www.w3.org/2000/svg" xmlns:xlink="http://www.w3.org/1999/xlink" viewBox="0 0 33.1 33.1">
  <defs>
    <style>
      .cls-1 {
        fill: #9486bf;
      }

      .cls-1, .cls-2, .cls-3 {
        stroke-width: 0px;
      }

      .cls-2, .cls-4 {
        fill: none;
      }

      .cls-5 {
        clip-path: url(#clippath-1);
      }

      .cls-6 {
        clip-path: url(#clippath);
      }

      .cls-4 {
        stroke: #231f20;
        stroke-miterlimit: 10;
        stroke-width: .5px;
      }

      .cls-3 {
        fill: #fff;
      }
    </style>
    <clipPath id="clippath">
      <rect class="cls-2" x="3.9" y="4.21" width="24.68" height="24.68"/>
    </clipPath>
    <clipPath id="clippath-1">
      <rect class="cls-2" x="3.9" y="4.21" width="24.68" height="24.68"/>
    </clipPath>
  </defs>
  <g id="Tokens">
    <g id="Ceylon">
      <circle class="cls-1" cx="16.55" cy="16.55" r="16.3"/>
      <g class="cls-6">
        <g class="cls-5">
          <path class="cls-3" d="M16.51,11.91c-.1-.11-.16-.22-.19-.29-.02.03-.02.06-.02.1v.13s-.12-.04-.12-.04c-.2-.06-.42-.15-.56-.27-.08.06-.14.16-.19.27l-.03.08-.08-.03c-.21-.07-.35-.18-.42-.34-.12.06-.2.16-.25.3l-.02.07h-.07c-.29-.06-.57-.18-.84-.38.05.27.13.5.24.7.08-.13.21-.23.38-.29l.07-.03.04.07c.09.17.3.31.53.44-.04-.14-.07-.31,0-.47l.07-.18.09.17c.09.16.47.53.73.62-.16-.26-.07-.65-.06-.67l.03-.13.11.08c.19.15.3.23.52.34,0,0,0,0,0,0,.05.03.11.06.17.09.36.18.59.22.59.2-.29-.14-.55-.36-.72-.55M16.51,13.19c-.08.07-.14.16-.19.28l-.03.08-.08-.03c-.21-.07-.35-.18-.42-.34-.12.06-.2.16-.25.3l-.03.07h-.07c-.29-.06-.57-.18-.84-.38.05.27.13.5.24.7.08-.13.21-.23.38-.29l.07-.03.04.07c.09.17.3.31.53.44-.04-.14-.07-.31,0-.47l.07-.18.09.17c.09.16.4.49.73.62.33.13.83-.06.83-.07-.54.02-1.02-.57-1.07-.93M16.62,12.06s-.07-.1-.11-.15c-.06-.09-.13-.19-.19-.29-.02.03-.02.06-.02.1v.13s-.12-.04-.12-.04c-.2-.06-.42-.15-.56-.27-.08.06-.14.16-.19.27l-.03.08-.08-.03c-.21-.07-.35-.18-.42-.34-.12.06-.2.16-.25.3l-.02.07h-.07c-.29-.06-.57-.18-.84-.38.05.27.13.5.24.7.08-.13.21-.23.38-.29l.07-.03.04.07c.09.17.3.31.53.44-.04-.14-.07-.31,0-.47l.07-.18.09.17c.09.16.47.53.73.62-.16-.26-.07-.65-.06-.67l.03-.13.11.08c.17.14.35.25.52.34,0,0,0,0,0,0,.06.03.12.06.17.09,0-.11-.02-.18-.02-.2"/>
          <path class="cls-3" d="M27.78,22.31c-.29.19-.6.27-.73.26-.37-.01-.44-.36-.61-.72-.11-.21-.15-.47-.16-.71-.05-.69.26-1.3.53-1.91.3-.69.61-1.37.73-2.12.11-.67,0-1.26-.61-1.67-.08-.06-.17-.23-.25-.28.17-.41.35-.66.49-1.06.27-.77.08-1.34-.6-1.79-.66-.44-1.09-.64-1.85-.75-.69-.09-1.7.09-2.36.28-.76.22-2.25-.82-2.25-.82,0,0-.24.05-.18.72-.42-.17-.83-.28-.37-1.2.05-.1-.22-.06-.31,0-.26.19-.58.2-.69.26-.05-.29.1-.45.26-.63.3-.34,1-.15,1.08-.1.17.11.35.22.56.36,0,0-.27-.56,0-.91.02.4.52.6.76.93.06-.31-.06-.63.17-.84.34.52.13.65,0,.96.52.1.77-.06.94-.64.48.47.91,1,1.69.96-.06-.16-.29-.25-.2-.51.26.25,1.29.62,1.75.77.34.11.7.11.99-.17.16-.16.31-.55-.02-.84-.33-.29-1.07.04-.91.73-.62.03-2.71-1.58-4.03-1.97-.96-.28-1.89-.25-2.81.17-.9.41-1.37,1.13-1.26,2.02.07.55-.37,1.07-.07,1.37.31-1.1.82-.42,1.1-.25.24.14.48.31.74.42,1.03.41,2.1.42,3.17.24.59-.1,1.67-.69,2.67-.34.99.34.28,1.86,0,1.79-.37-.08-.35-.05-.71-.16-.61-.2-1.23-.17-1.85-.06-1.58.29-5.46.95-5.88,1,.06-.08.08-.36.07-.72,0,0-.02,0-.03,0-.24-.06-.55-.32-.74-.53.02.15.08.29.12.35l.15.26-.27-.13c-.31-.15-.62-.33-.79-.56-.14.07-.23.17-.28.32l-.06.18-.1-.16c-.19-.3-.32-.68-.39-1.15l-.04-.24.18.16c.29.26.57.41.87.47.08-.18.22-.31.41-.37l.09-.03.03.09c.04.13.13.22.27.28.07-.14.16-.25.28-.32l.06-.04.05.06s.15.34.15.34c0,0,.11-.49-.08-.88-.23-.1-.47-.24-.71-.41-.02.15,0,.39.17.49l.13.08-.13.08c-.07.04-.16.05-.27.03-.24-.06-.55-.32-.74-.53.02.15.08.29.12.35l.15.26-.27-.13c-.31-.15-.62-.33-.79-.56-.14.07-.23.17-.28.32l-.06.18-.1-.16c-.19-.3-.32-.68-.39-1.15l-.04-.25.18.16c.29.26.57.41.87.47.08-.18.22-.3.41-.37l.09-.03.03.09c.04.13.13.22.27.28.07-.14.16-.25.28-.32l.06-.04.05.06c.09.1.26.18.44.24.02-.08.08-.15.16-.21l.08-.05.05.08c.06.11.13.22.2.32.02-.25.11-.55.42-.53-.13-.44-.42-.42-.43-.46.36-.28.55-.94.35-1.21-.21.76-1.42.68-1.42.26,0-.47-.25-.6-.51-.8.1.33-.02.64-.3.91-.39.07-1-.82-1.59-.72.48.35.29.89.12.96-.2.08-.32-.09-.42-.22-.35-.46-1.14-.94-1.44-.48.69.3.63.57.64.98-.74.19-1.52.57-1.71.61-.19.05-.33,0-.35-.28,0-.15-.21-.42-.52-.35-.31.07-.43.27-.36.61.06.35.51.76.63.84.13.08.26.12.41.04.09-.05.2-.1.3-.15,0,0,.71-.42,1.07-.17.36.24-.16.26.96,1.14.25.25.61.42.47,1.3-.1-.04-.19-.07-.27-.1-.36-.15-1.09-.1-1.47-.01.08-.5-.15-.44-.15-.44-.66.09-1.12.07-1.69-.14-.09-.03-.18.05-.15.15.19.56.35,1.08-.28,1.53.59.14.9-.27,1.3-.54-.05.34-.14.57-.46.94.81-.38.64-.76.97-1.05.11.36-.15.33.19.95.08-.4.26-.75.69-.91-.01.01-.25.31-.12.69.21-.43.46-.38.74-.46.36.37.27.81-.19,1.02-.74.34-1.41.81-1.97,1.4-.74.77-.86,1.89-.3,2.78.29.45.65.86,1.03,1.24.29.29.76.54,1.14.82-.37-.75-.59-1.36-.29-1.9-.05,1.06.39,1.58.54,2.33.12.55.19,1.11.07,1.67-.06.27-.22.45-.48.5-.2.04-.4.05-.6.06-.7.04-1.05.41-1.07,1.14.51-.51.84-.43,1.2-.57-.38.28-.31.43-.38.56.59-.25.78-.63,1.38-.55.06.27-.39.41-.47.56.13.01.97-.3,1.06-.34.67-.31,1.39.46,1.98.26-.61-.39-.69-.88-.75-1.03-.08-.2.24-.4.43-.5.19-.1.39-.19.57-.31.25-.16.42-.37.4-.7-.75.49-1.01.23-1.52.35.56-.78.2-.66.5-1.5.24-.34.7-.51,1.15-1.32.09.79-1.14,1.05-1.1,1.81.07-.01.67-.15.96-.23,1.54-.45,2.96-1.14,4.3-2.02.45-.3.94-.53,1.48-.62.64-.11,1.2,0,1.57.6.04.06.27.36.33.42.39.36.6.48.99.84.24.22.4.48.41.8.02.64.03,1.28.01,1.91,0,.34-.15.42-.48.33-.17-.04-.32-.11-.49-.17-.26-.08-.52-.09-.76.05-.12.07-.23.18-.33.31-.25-.23-.48-.46-.41-.6.08-.3,1.13-.39,1.39-1.61-.51.78-.66.11-1.2.26.02-.07.32-1.07.43-1.58.08-.36.08-.72-.22-1.01-.22-.22-.49-.36-.79-.37-.85-.02-1.57.36-2.2.89-.38.32-.41.56-.12.98.24.34.51.64.78.96.24.28.37.59.29.97-.08.37-.14.74-.2,1.11-.03.18-.12.23-.3.19-.27-.07-.54-.14-.82-.14-.54,0-.98.53-1.1,1.06.54-.53,1.15-.48,1.21-.46-.25.11-.26.23-.16.38.18-.24,1.07-.37,1.07-.37-.26.22-.2.42-.2.42,0,0,.63-.39,1.25-.37.52.08.69.14.69.14,0,0-.04-.18.34-.26-.04.17-.04.35-.01.51.31-.42.59-.55.79-.02.05.03.12-.42.92-.42-.26.18-.14.34-.16.44.29-.13.54-.53,1.29-.29.05.01.81.16,1.15.18.34.02.49-.18.45-.52-.02-.16-.06-.31-.09-.46-.07-.36.29-.72.54-1.03-.42-.07-.41-.21-.55-.38.54.08.93-.51,1.12-.94M12.99,11.84c-.22,0-.39-.18-.39-.39s.18-.39.39-.39.39.18.39.39-.18.39-.39.39"/>
          <path class="cls-3" d="M6.8,16.92l-.91-.06s-.1-.02-.1-.06c-.55-3.55.19-7.1,1.67-9.55.08-.14.28-.02.24.13-.57,2.02-1.21,6.91-.77,9.32.02.11-.01.22-.12.21"/>
          <path class="cls-3" d="M8.08,12.09c.5.49,1.04.99,2.92.78.27-.03.4-.12.67-.15.5-.06,1.18.56,1.17,1.04-.44-.16-.92-.19-1.4-.03,0-.03.11-.49-.51-.41-.33.04-.71.02-1.03-.03-.31-.04-1.26-.35-1.82-1.2"/>
          <path class="cls-3" d="M7.29,17.55c-.15.03-.3.06-.46.07.03.46.11,1.91.05,3.11.11-.02.23-.05.34-.08.06-.02.1.05.07.09-.12.17-.26.3-.44.38,0,.07-.01.14-.02.2.24-.03.49-.09.74-.16.07-.02.12.05.08.11-.23.35-.53.57-.91.64-.08.35-.2.57-.38.57-.11,0-.21-.21-.29-.51-.27-.06-.57-.34-.87-.64-.05-.05,0-.14.07-.12.22.07.44.11.67.13-.01-.07-.02-.15-.04-.22-.13-.09-.26-.21-.39-.34-.05-.04,0-.12.06-.1.09.03.19.05.28.06-.04-.29-.05-.5-.05-.5h.56v-.36s-.29-.15-.29-.15l.46-.26-.46-.27.53-.23-.53-.31.53-.26-.56-.34.32-.24v-.22c-.57-.02-1.1-.15-1.31-.27-.21-.14-.53-.39-.47-.74.04-.15.25-.49.51-.39.16.06.35.33.43.51.1.24.26.23.42.24.36.03.74.03.98.06.22.03.48-.08.51-.32.02-.15.14-.34.38-.32.24.02.35.21.35.42,0,.55-.64.68-.86.73"/>
          <path class="cls-3" d="M5.49,17.72l.65.09-.49.35.49.24-.49.26.49.31-.49.22.49.29-.49.3.49.23h-.49.03c-.14,0-.27-.08-.33-.22-.09-.21-.3-.58-.3-1.09s.05-.77.17-.89c.07-.07.17-.1.27-.09"/>
          <path class="cls-3" d="M7.01,17.94c.91.09,1.83-.21,2.75-.73-.68,1.17-.61,2.13.35,3.28,0,0-.23-.23-.63.36-.15-.19.09-.72.09-.72-.24,0-.44.44-.44.44.16-.96-.27-.93-.27-.93,0,.37-.31.45-.31.45.09-.36-.16-.47-.16-.47l-1.39.33c.09-.93,0-1.24,0-2.02"/>
        </g>
      </g>
    </g>
  </g>
  <g id="Dire_line" data-name="Dire line">
    <circle class="cls-4" cx="16.55" cy="16.55" r="16.3"/>
  </g>
</svg>