<?xml version="1.0" encoding="UTF-8"?>
<svg id="Layer_2" data-name="Layer 2" xmlns="http://www.w3.org/2000/svg" version="1.1" xmlns:xlink="http://www.w3.org/1999/xlink" viewBox="0 0 33.1 33.1">
  <defs>
    <style>
      .cls-1 {
        fill: none;
      }

      .cls-1, .cls-2, .cls-3 {
        stroke-width: 0px;
      }

      .cls-4 {
        clip-path: url(#clippath-1);
      }

      .cls-2 {
        fill: #9685be;
      }

      .cls-5 {
        clip-path: url(#clippath);
      }

      .cls-3 {
        fill: #fff;
      }
    </style>
    <clipPath id="clippath">
      <rect class="cls-1" x="3.4" y="4.2" width="24.7" height="24.7"/>
    </clipPath>
    <clipPath id="clippath-1">
      <rect class="cls-1" x="3.4" y="4.2" width="24.7" height="24.7"/>
    </clipPath>
  </defs>
  <g id="Dire_line" data-name="Dire line">
    <circle class="cls-3" cx="16.5" cy="16.5" r="16.3"/>
  </g>
  <g id="Tokens">
    <g id="Ceylon">
      <g class="cls-5">
        <g class="cls-4">
          <g>
            <path class="cls-2" d="M16,11.8c-.1-.1-.2-.2-.2-.3,0,0,0,0,0,.1h0c0,.1-.1.1-.1.1-.2,0-.4-.1-.6-.3,0,0-.1.2-.2.3h0c0,0,0,0,0,0-.2,0-.4-.2-.4-.4-.1,0-.2.2-.2.3h0c0,0,0,0,0,0-.3,0-.6-.2-.9-.4,0,.3.1.5.2.7,0-.1.2-.2.4-.3h0s0,0,0,0c0,.2.3.3.5.4,0-.1,0-.3,0-.5v-.2c0,0,.2.2.2.2,0,.2.5.5.8.6-.2-.3,0-.7,0-.7h0c0-.1.1,0,.1,0,.2.1.3.2.5.4h0c0,0,.1,0,.2,0,.4.2.6.2.6.2-.3-.1-.6-.4-.7-.6M16,13.1c0,0-.1.2-.2.3h0c0,0,0,0,0,0-.2,0-.4-.2-.4-.4-.1,0-.2.2-.2.3h0c0,0,0,0,0,0-.3,0-.6-.2-.9-.4,0,.3.1.5.2.7,0-.1.2-.2.4-.3h0s0,0,0,0c0,.2.3.3.5.4,0-.1,0-.3,0-.5v-.2c0,0,.2.2.2.2,0,.2.4.5.8.6.3.1.9,0,.9,0-.5,0-1-.6-1.1-.9M16.1,12s0-.1-.1-.1c0,0-.1-.2-.2-.3,0,0,0,0,0,.1h0c0,.1-.1.1-.1.1-.2,0-.4-.1-.6-.3,0,0-.1.2-.2.3h0c0,0,0,0,0,0-.2,0-.4-.2-.4-.4-.1,0-.2.2-.2.3h0c0,0,0,0,0,0-.3,0-.6-.2-.9-.4,0,.3.1.5.2.7,0-.1.2-.2.4-.3h0s0,0,0,0c0,.2.3.3.5.4,0-.1,0-.3,0-.5v-.2c0,0,.2.2.2.2,0,.2.5.5.8.6-.2-.3,0-.7,0-.7h0c0-.1.1,0,.1,0,.2.1.4.2.5.4h.2s0,0,0-.1"/>
            <path class="cls-2" d="M27.5,22.4c-.3.2-.6.3-.8.3-.4,0-.5-.4-.6-.7-.1-.2-.1-.5-.2-.7,0-.7.3-1.3.5-2,.3-.7.6-1.4.7-2.2.1-.7,0-1.3-.6-1.7,0,0-.2-.2-.2-.3.2-.4.4-.7.5-1.1.3-.8,0-1.4-.6-1.8-.7-.4-1.1-.7-1.9-.8-.7-.1-1.7,0-2.4.3-.8.2-2.3-.8-2.3-.8,0,0-.2,0-.2.7-.4-.2-.9-.3-.4-1.2,0-.1-.2,0-.3,0-.3.2-.6.2-.7.3,0-.3.1-.5.3-.6.3-.4,1-.1,1.1-.1.2.1.4.2.6.4,0,0-.3-.6,0-.9,0,.4.5.6.8.9,0-.3,0-.6.2-.9.3.5.1.7,0,1,.5.1.8,0,1-.6.5.5.9,1,1.7,1,0-.2-.3-.2-.2-.5.3.3,1.3.6,1.8.8.3.1.7.1,1-.2.2-.2.3-.6,0-.9-.3-.3-1.1,0-.9.8-.6,0-2.8-1.6-4.1-2-1-.3-1.9-.2-2.9.2-.9.4-1.4,1.1-1.3,2.1,0,.6-.4,1.1,0,1.4.3-1.1.8-.4,1.1-.3.2.1.5.3.8.4,1,.4,2.1.4,3.2.2.6-.1,1.7-.7,2.7-.4,1,.4.3,1.9,0,1.8-.4,0-.4,0-.7-.2-.6-.2-1.2-.2-1.9,0-1.6.3-5.6,1-6,1,0,0,0-.4,0-.7h0c-.2,0-.6-.3-.8-.5,0,.1,0,.3.1.4l.2.3h-.3c-.3-.3-.6-.5-.8-.7-.1,0-.2.2-.3.3v.2c0,0-.2-.2-.2-.2-.2-.3-.3-.7-.4-1.2v-.2s.1.2.1.2c.3.3.6.4.9.5,0-.2.2-.3.4-.4h0s0,0,0,0c0,.1.1.2.3.3,0-.1.2-.2.3-.3h0s0,0,0,0v.3c.1,0,.3-.5,0-.9-.2-.1-.5-.2-.7-.4,0,.2,0,.4.2.5h.1c0,0-.1.2-.1.2,0,0-.2,0-.3,0-.2,0-.6-.3-.8-.5,0,.1,0,.3.1.4l.2.3h-.3c-.3-.3-.6-.5-.8-.7-.1,0-.2.2-.3.3v.2c0,0-.2-.2-.2-.2-.2-.3-.3-.7-.4-1.2v-.2s.1.2.1.2c.3.3.6.4.9.5,0-.2.2-.3.4-.4h0s0,0,0,0c0,.1.1.2.3.3,0-.1.2-.2.3-.3h0s0,0,0,0c0,.1.3.2.4.2,0,0,0-.2.2-.2h0c0,0,0,0,0,0,0,.1.1.2.2.3,0-.2.1-.6.4-.5-.1-.4-.4-.4-.4-.5.4-.3.6-1,.4-1.2-.2.8-1.4.7-1.4.3s-.3-.6-.5-.8c.1.3,0,.6-.3.9-.4,0-1-.8-1.6-.7.5.4.3.9.1,1-.2,0-.3-.1-.4-.2-.4-.5-1.2-1-1.5-.5.7.3.6.6.6,1-.8.2-1.6.6-1.8.6-.2,0-.3,0-.4-.3,0-.1-.2-.4-.5-.4-.3,0-.4.3-.4.6,0,.4.5.8.6.9.1,0,.3.1.4,0,.1,0,.2-.1.3-.1,0,0,.7-.4,1.1-.2.4.2-.2.3,1,1.2.3.2.6.4.5,1.3-.1,0-.2,0-.3-.1-.4-.1-1.1-.1-1.5,0,0-.5-.2-.4-.2-.4-.7,0-1.1,0-1.7-.1,0,0-.2,0-.1.1.2.6.4,1.1-.3,1.6.6.1.9-.3,1.3-.6,0,.4-.1.6-.5,1,.8-.4.7-.8,1-1.1.1.4-.1.3.2,1,0-.4.3-.8.7-.9,0,0-.3.3-.1.7.2-.4.5-.4.8-.5.4.4.3.8-.2,1-.8.4-1.4.8-2,1.4-.8.8-.9,1.9-.3,2.8.3.5.7.9,1.1,1.3.3.3.8.5,1.2.8-.4-.8-.6-1.4-.3-1.9,0,1.1.4,1.6.6,2.4.1.6.2,1.1,0,1.7,0,.3-.2.5-.5.5-.2,0-.4,0-.6,0-.7,0-1.1.4-1.1,1.2.5-.5.9-.4,1.2-.6-.4.3-.3.4-.4.6.6-.2.8-.6,1.4-.6,0,.3-.4.4-.5.6.1,0,1-.3,1.1-.4.7-.3,1.4.5,2,.3-.6-.4-.7-.9-.8-1,0-.2.2-.4.4-.5.2-.1.4-.2.6-.3.2-.2.4-.4.4-.7-.8.5-1,.2-1.6.4.6-.8.2-.7.5-1.5.2-.3.7-.5,1.2-1.4,0,.8-1.2,1.1-1.1,1.9,0,0,.7-.1,1-.2,1.6-.5,3-1.2,4.4-2.1.5-.3,1-.5,1.5-.6.6-.1,1.2,0,1.6.6,0,0,.3.4.3.4.4.4.6.5,1,.9.2.2.4.5.4.8,0,.6,0,1.3,0,2,0,.4-.1.4-.5.3-.2,0-.3-.1-.5-.2-.3,0-.5,0-.8,0-.1,0-.2.2-.3.3-.2-.2-.5-.5-.4-.6,0-.3,1.2-.4,1.4-1.6-.5.8-.7.1-1.2.3,0,0,.3-1.1.4-1.6,0-.4,0-.7-.2-1-.2-.2-.5-.4-.8-.4-.9,0-1.6.4-2.2.9-.4.3-.4.6-.1,1,.2.3.5.7.8,1,.2.3.4.6.3,1,0,.4-.1.8-.2,1.1,0,.2-.1.2-.3.2-.3,0-.5-.1-.8-.1-.5,0-1,.5-1.1,1.1.5-.5,1.2-.5,1.2-.5-.3.1-.3.2-.2.4.2-.2,1.1-.4,1.1-.4-.3.2-.2.4-.2.4,0,0,.6-.4,1.3-.4.5,0,.7.1.7.1,0,0,0-.2.4-.3,0,.2,0,.4,0,.5.3-.4.6-.6.8,0,0,0,.1-.4.9-.4-.3.2-.1.4-.2.5.3-.1.5-.5,1.3-.3,0,0,.8.2,1.2.2.4,0,.5-.2.5-.5,0-.2,0-.3,0-.5,0-.4.3-.7.6-1-.4,0-.4-.2-.6-.4.6,0,1-.5,1.1-1M12.4,11.7c-.2,0-.4-.2-.4-.4s.2-.4.4-.4.4.2.4.4-.2.4-.4.4"/>
            <path class="cls-2" d="M6.1,16.9h-.9c0,0,0,0-.1-.1-.6-3.6.2-7.2,1.7-9.8,0-.1.3,0,.2.1-.6,2.1-1.2,7.1-.8,9.5,0,.1,0,.2-.1.2"/>
            <path class="cls-2" d="M7.4,12c.5.5,1.1,1,3,.8.3,0,.4-.1.7-.1.5,0,1.2.6,1.2,1.1-.4-.2-.9-.2-1.4,0,0,0,.1-.5-.5-.4-.3,0-.7,0-1.1,0-.3,0-1.3-.4-1.8-1.2"/>
            <path class="cls-2" d="M6.6,17.6c-.2,0-.3,0-.5,0,0,.5.1,2,0,3.2.1,0,.2,0,.3,0,0,0,0,0,0,.1-.1.2-.3.3-.4.4,0,0,0,.1,0,.2.2,0,.5,0,.8-.2,0,0,.1,0,0,.1-.2.4-.5.6-.9.6,0,.4-.2.6-.4.6s-.2-.2-.3-.5c-.3,0-.6-.3-.9-.6,0,0,0-.1,0-.1.2,0,.4.1.7.1,0,0,0-.1,0-.2-.1,0-.3-.2-.4-.4,0,0,0-.1,0-.1,0,0,.2,0,.3,0,0-.3,0-.5,0-.5h.6v-.4h-.3c0-.1.5-.4.5-.4l-.5-.3.5-.2-.5-.3.5-.3-.6-.3.3-.2v-.2c-.6,0-1.1-.1-1.3-.3-.2-.1-.5-.4-.5-.8,0-.1.2-.5.5-.4.2,0,.4.3.4.5,0,.2.3.2.4.2.4,0,.8,0,1,0,.2,0,.5,0,.5-.3,0-.1.1-.4.4-.3.2,0,.4.2.4.4,0,.6-.7.7-.9.7"/>
            <path class="cls-2" d="M4.7,17.7h.7c0,0-.5.5-.5.5l.5.2-.5.3.5.3-.5.2.5.3-.5.3.5.2h-.5,0c-.2,0-.3,0-.3-.2,0-.2-.3-.6-.3-1.1s0-.8.2-.9c0,0,.2-.1.3,0"/>
            <path class="cls-2" d="M6.3,18c.9,0,1.9-.2,2.8-.7-.7,1.2-.6,2.2.4,3.4,0,0-.2-.2-.6.4-.1-.2.1-.7.1-.7-.2,0-.4.5-.4.5.2-1-.3-1-.3-1,0,.4-.3.5-.3.5,0-.4-.2-.5-.2-.5l-1.4.3c0-.9,0-1.3,0-2.1"/>
          </g>
        </g>
      </g>
    </g>
  </g>
</svg>