<?xml version="1.0" encoding="UTF-8"?>
<svg id="Layer_2" data-name="Layer 2" xmlns="http://www.w3.org/2000/svg" version="1.1" xmlns:xlink="http://www.w3.org/1999/xlink" viewBox="0 0 33.1 33.1">
  <defs>
    <style>
      .cls-1 {
        fill: none;
      }

      .cls-1, .cls-2, .cls-3 {
        stroke-width: 0px;
      }

      .cls-4 {
        clip-path: url(#clippath-1);
      }

      .cls-5 {
        clip-path: url(#clippath);
      }

      .cls-2 {
        fill: #fff;
      }

      .cls-3 {
        fill: #188c4c;
      }
    </style>
    <clipPath id="clippath">
      <rect class="cls-1" x="2.2" y="1.8" width="29.5" height="29.5"/>
    </clipPath>
    <clipPath id="clippath-1">
      <rect class="cls-1" x="2.2" y="1.8" width="29.5" height="29.5"/>
    </clipPath>
  </defs>
  <g id="Dire_line" data-name="Dire line">
    <circle class="cls-2" cx="16.5" cy="16.5" r="16.3"/>
  </g>
  <g id="Tokens">
    <g id="Darjeeling">
      <g class="cls-5">
        <g class="cls-4">
          <path class="cls-3" d="M29.5,20.2l-4.8-9.5-2.5,4.4-4.4-10-5.3,10.6-2.8-5.9-6.5,12h6.3s-1,1.9-1,1.9h17.7c0,.1-1.6-3.6-1.6-3.6h5s0,0,0,0ZM24.7,11l.5,1s-.6-.3-1.1.2c0,0,.6-1.1.6-1.1M10.4,11.8c-.8.1-1.5,1.9-2.2,1,0,0,1.4-2.7,1.4-2.7,0,0,.9,1.6.8,1.6M19,8.4c-1.3-.6-1.4.9-3.2,1.4,0,0,2-4.1,2-4.1,0,0,1.2,2.8,1.1,2.7"/>
        </g>
      </g>
    </g>
  </g>
</svg>