<?xml version="1.0" encoding="UTF-8"?>
<svg id="Layer_2" data-name="Layer 2" xmlns="http://www.w3.org/2000/svg" xmlns:xlink="http://www.w3.org/1999/xlink" viewBox="0 0 33.1 33.1">
  <defs>
    <style>
      .cls-1, .cls-2, .cls-3 {
        stroke-width: 0px;
      }

      .cls-1, .cls-4 {
        fill: none;
      }

      .cls-5 {
        clip-path: url(#clippath-1);
      }

      .cls-6 {
        clip-path: url(#clippath);
      }

      .cls-2 {
        fill: #7a8490;
      }

      .cls-4 {
        stroke: #231f20;
        stroke-miterlimit: 10;
        stroke-width: .5px;
      }

      .cls-3 {
        fill: #fff;
      }
    </style>
    <clipPath id="clippath">
      <rect class="cls-1" x="2.26" width="29.31" height="29.31"/>
    </clipPath>
    <clipPath id="clippath-1">
      <rect class="cls-1" x="2.26" width="29.31" height="29.31"/>
    </clipPath>
  </defs>
  <g id="Tokens">
    <g id="Eastern_Bengal" data-name="Eastern Bengal">
      <circle class="cls-2" cx="16.55" cy="16.55" r="16.3"/>
      <g class="cls-6">
        <g class="cls-5">
          <path class="cls-3" d="M21.43,19.89v8.44h-10.23v-8.44c0-2.07,1.74-2.74,1.74-2.74,0,0-2.17-1.24-2.17-4.18,0-4.52,5.55-6.96,5.55-6.96,0,0,5.55,2.44,5.55,6.96,0,2.94-2.17,4.18-2.17,4.18,0,0,1.74.67,1.74,2.74"/>
          <path class="cls-3" d="M23.48,17.79c.34.72.52,1.51.52,2.35v9.21h-1.59v-9.21c0-1.34-.6-2.21-1.1-2.7-.14-.13-.27-.25-.4-.34.21-.18.44-.42.68-.71.59-.74,1.29-1.99,1.29-3.8,0-1.22-.34-2.4-1.02-3.53-.53-.88-1.27-1.72-2.19-2.5-1.55-1.31-3.09-2-3.15-2.03l-.2-.09-.2.09c-.06.03-1.6.71-3.15,2.03-.92.78-1.66,1.62-2.19,2.5-.68,1.12-1.02,2.31-1.02,3.53,0,1.8.7,3.06,1.29,3.8.23.29.47.53.68.71-.13.1-.27.21-.4.34-.5.49-1.1,1.36-1.1,2.7v9.21h-1.59v-9.21c0-.84.17-1.63.52-2.35.12-.25.26-.49.42-.72-.69-.96-1.41-2.45-1.41-4.48,0-1.51.42-2.97,1.25-4.35.62-1.03,1.47-2.01,2.52-2.9,1.7-1.44,3.36-2.19,3.54-2.27l.7-.31.14-.06.14.06.7.31c.18.08,1.84.83,3.54,2.27,1.05.89,1.9,1.87,2.52,2.9.83,1.37,1.25,2.84,1.25,4.35,0,2.03-.72,3.52-1.41,4.48.16.23.3.47.42.72"/>
        </g>
      </g>
    </g>
  </g>
  <g id="Dire_line" data-name="Dire line">
    <circle class="cls-4" cx="16.55" cy="16.55" r="16.3"/>
  </g>
</svg>