<?xml version="1.0" encoding="UTF-8"?>
<svg id="Layer_2" data-name="Layer 2" xmlns="http://www.w3.org/2000/svg" version="1.1" xmlns:xlink="http://www.w3.org/1999/xlink" viewBox="0 0 33.1 33.1">
  <defs>
    <style>
      .cls-1 {
        fill: none;
      }

      .cls-1, .cls-2, .cls-3 {
        stroke-width: 0px;
      }

      .cls-4 {
        clip-path: url(#clippath-1);
      }

      .cls-2 {
        fill: #78848f;
      }

      .cls-5 {
        clip-path: url(#clippath);
      }

      .cls-3 {
        fill: #fff;
      }
    </style>
    <clipPath id="clippath">
      <rect class="cls-1" x="2.2" width="29.3" height="29.3"/>
    </clipPath>
    <clipPath id="clippath-1">
      <rect class="cls-1" x="2.2" width="29.3" height="29.3"/>
    </clipPath>
  </defs>
  <g id="Dire_line" data-name="Dire line">
    <circle class="cls-3" cx="16.5" cy="16.5" r="16.3"/>
  </g>
  <g id="Tokens">
    <g id="Eastern_Bengal" data-name="Eastern Bengal">
      <g class="cls-5">
        <g class="cls-4">
          <g>
            <path class="cls-2" d="M21.4,19.9v8.4h-10.2v-8.4c0-2.1,1.7-2.7,1.7-2.7,0,0-2.2-1.2-2.2-4.2,0-4.5,5.6-7,5.6-7,0,0,5.5,2.4,5.5,7s-2.2,4.2-2.2,4.2c0,0,1.7.7,1.7,2.7"/>
            <path class="cls-2" d="M23.5,17.8c.3.7.5,1.5.5,2.4v9.2h-1.6v-9.2c0-1.3-.6-2.2-1.1-2.7-.1-.1-.3-.2-.4-.3.2-.2.4-.4.7-.7.6-.7,1.3-2,1.3-3.8s-.3-2.4-1-3.5c-.5-.9-1.3-1.7-2.2-2.5-1.5-1.3-3.1-2-3.1-2h-.2c0,0-.2,0-.2,0,0,0-1.6.7-3.1,2-.9.8-1.7,1.6-2.2,2.5-.7,1.1-1,2.3-1,3.5,0,1.8.7,3.1,1.3,3.8.2.3.5.5.7.7-.1.1-.3.2-.4.3-.5.5-1.1,1.4-1.1,2.7v9.2h-1.6v-9.2c0-.8.2-1.6.5-2.4.1-.2.3-.5.4-.7-.7-1-1.4-2.4-1.4-4.5s.4-3,1.2-4.4c.6-1,1.5-2,2.5-2.9,1.7-1.4,3.4-2.2,3.5-2.3l.7-.3h.1c0,0,.1,0,.1,0l.7.3c.2,0,1.8.8,3.5,2.3,1,.9,1.9,1.9,2.5,2.9.8,1.4,1.2,2.8,1.2,4.4s-.7,3.5-1.4,4.5c.2.2.3.5.4.7"/>
          </g>
        </g>
      </g>
    </g>
  </g>
</svg>