<?xml version="1.0" encoding="UTF-8"?>
<svg id="Layer_2" data-name="Layer 2" xmlns="http://www.w3.org/2000/svg" version="1.1" xmlns:xlink="http://www.w3.org/1999/xlink" viewBox="0 0 33.1 33.1">
  <defs>
    <style>
      .cls-1 {
        fill: none;
      }

      .cls-1, .cls-2, .cls-3 {
        stroke-width: 0px;
      }

      .cls-4 {
        clip-path: url(#clippath-1);
      }

      .cls-5 {
        clip-path: url(#clippath);
      }

      .cls-2 {
        fill: #fff;
      }

      .cls-3 {
        fill: #f1582a;
      }
    </style>
    <clipPath id="clippath">
      <rect class="cls-1" x="1.2" y="2.4" width="28.4" height="28.4"/>
    </clipPath>
    <clipPath id="clippath-1">
      <rect class="cls-1" x="1.2" y="2.4" width="28.4" height="28.4"/>
    </clipPath>
  </defs>
  <g id="Dire_line" data-name="Dire line">
    <circle class="cls-2" cx="16.5" cy="16.5" r="16.3"/>
  </g>
  <g id="Tokens">
    <g id="East_India" data-name="East India">
      <g class="cls-5">
        <g class="cls-4">
          <g>
            <path class="cls-3" d="M13,14.6c-.1-.1-.2-.1-.3-.1-.7.6-2.1,1.1-3.7,1.2-1.8.2-4.2-.3-5.8-.7h0s0,0,0,0c-.2,0-.3,0,0,.2h.2c2.7,1.4,7.2,2.1,8.3,1.6,0,0,1.4-.8,1.6-1.6,0-.3-.1-.5-.2-.6M9.4,15.4h0,0"/>
            <path class="cls-3" d="M27.4,13.9c-3.2-2.2-5.3-1.7-6.4-1.1-.6.3-.9.6-.9.6,0,0-.2,0-.2,0s0-.2,0-.2c0,0,.7-.8,2-1.1.4,0,.7-.1,1.1-.1-.1-.1-.2-.2-.2-.3-.3-1-1.5-1.8-2.1-1.9-1.4-.2-3.2.5-4.2.5s-2.8-.2-4.6,1.1c-.2,0-2.4,1.2-3.4-.3s.9-2.8.9-2.8c0,0,1.7-1.1,4.1-.2,2.3.9,3.5,1.4,5,.4.2-.2.5-.6.4-1.3-.1-.3-.5,0-.5,0,0,0-.2-.3-.6,0,0,.2,0,1.1-1.3.7-1.5-.5-4.9-3.3-8.7-1-3.3,2.1-1.8,5.9-.5,7.1-1,0-2.1-.1-3.1-.4-.7-.2-.3.2,0,.3,1.6.8,3.8,1.3,5.2,1.4h0c.5,0,1-.2,1.5-.3.7-.2,1.2-.5,1.6-.8,0,0,0,0,.2,0,.2,0,.6.3.6.9h0c-.2.7-.9,1.2-1.3,1.5-.5.7-1.1,1.7-1,2.4,0,0,.4-.5,1.2,0,.3.2.8,0,.8,0-.3.8.6,1.1.9,1-.2,1.9,1.7,1.3,2.2,2.2.4.4-.3,4,0,3.9.3-.2,1.8-.3,3.1-.3-.3-.6-.5-1.2-.8-1.9-.5-1.4-.7-3-.7-4.8,0,0,0-.2.1-.2s.2.1.2.1c0,1.5.2,2.7.5,3.8,0,0,0,0,0,0,1.1,4.4,3.5,5.5,3.5,5.5,0,0-1.1-1.5.6-3.6,0,0,1.6-2,3.3-2.9,2.1-1,5.6-4.3,1.5-8M17.3,12.8c-.2,0-.3-.3-.8-.2,0,0,.2-.3.5-.4,0,0,0,.1,0,.2,0,.2.2.3.4.4.2,0,.4-.2.4-.4s0-.1,0-.1c.3.1.4.4.5.6-.1.1-.7.1-.8.1M21.1,26.1s0,0,0,0c0,0,0,0,0,0"/>
          </g>
        </g>
      </g>
    </g>
  </g>
</svg>