<?xml version="1.0" encoding="UTF-8"?>
<svg id="Layer_2" data-name="Layer 2" xmlns="http://www.w3.org/2000/svg" version="1.1" xmlns:xlink="http://www.w3.org/1999/xlink" viewBox="0 0 33.1 33.1">
  <defs>
    <style>
      .cls-1 {
        fill: none;
      }

      .cls-1, .cls-2, .cls-3 {
        stroke-width: 0px;
      }

      .cls-4 {
        clip-path: url(#clippath-1);
      }

      .cls-5 {
        clip-path: url(#clippath);
      }

      .cls-2 {
        fill: #231f20;
      }

      .cls-3 {
        fill: #fff;
      }
    </style>
    <clipPath id="clippath">
      <rect class="cls-1" x="3.1" y="3.1" width="26.8" height="26.8"/>
    </clipPath>
    <clipPath id="clippath-1">
      <rect class="cls-1" x="3.1" y="3.1" width="26.8" height="26.8"/>
    </clipPath>
  </defs>
  <g id="Dire_line" data-name="Dire line">
    <circle class="cls-3" cx="16.5" cy="16.5" r="16.3"/>
  </g>
  <g id="Tokens">
    <g id="GIPR">
      <g class="cls-5">
        <g class="cls-4">
          <g>
            <path class="cls-2" d="M16.5,3.9c-7,0-12.6,5.7-12.6,12.6s5.7,12.6,12.6,12.6,12.6-5.7,12.6-12.6S23.5,3.9,16.5,3.9M23.7,25c-.2-.2-.5-.3-.8,0s-.3.5-.1.8c-.5.3-1,.6-1.5.9-.1-.3-.4-.4-.7-.3-.3.1-.4.4-.3.7-.6.2-1.1.4-1.7.5,0-.3-.3-.5-.6-.5-.3,0-.5.3-.5.6-.3,0-.6,0-.9,0s-.6,0-.9,0c0-.3-.2-.6-.5-.6-.3,0-.6.2-.6.5-.6-.1-1.2-.3-1.7-.5.1-.3,0-.6-.3-.7-.3-.1-.6,0-.7.3-.5-.3-1.1-.6-1.6-.9.2-.2.1-.6-.1-.8s-.6-.1-.8,0c-.4-.4-.9-.8-1.3-1.3.2-.2.3-.5,0-.8s-.5-.3-.8-.1c-.3-.5-.6-1-.9-1.5.3-.1.4-.4.3-.7-.1-.3-.4-.4-.7-.3-.2-.6-.3-1.1-.5-1.7.3,0,.5-.3.5-.6,0-.3-.3-.5-.6-.5,0-.3,0-.6,0-.9s0-.6,0-.9c.3,0,.6-.2.6-.5,0-.3-.2-.6-.5-.6.1-.6.3-1.2.5-1.7.3.1.6,0,.7-.3.1-.3,0-.6-.3-.7.3-.5.6-1.1.9-1.6.2.2.6.1.8-.1s.1-.6,0-.8c.4-.4.8-.9,1.3-1.3.2.2.5.3.8,0,.2-.2.3-.5.1-.8.5-.3,1-.6,1.6-.9.1.3.4.4.7.3.3-.1.4-.4.3-.7.6-.2,1.1-.3,1.7-.5,0,.3.3.5.6.5s.5-.3.5-.6c.3,0,.6,0,.9,0s.6,0,.9,0c0,.3.2.6.5.6s.6-.2.6-.5c.6.1,1.2.3,1.7.5-.1.3,0,.6.3.7.3.1.6,0,.7-.3.5.3,1.1.6,1.5.9-.2.2-.1.6.1.8s.6.1.8,0c.5.4.9.8,1.3,1.3-.2.2-.3.5,0,.8.2.2.5.3.8.1.3.5.6,1,.9,1.6-.3.1-.4.4-.3.7.1.3.4.4.7.3.2.6.4,1.1.5,1.7-.3,0-.5.3-.5.6s.3.5.6.5c0,.3,0,.6,0,.9s0,.6,0,.9c-.3,0-.6.2-.6.5s.2.6.5.6c-.1.6-.3,1.2-.5,1.7-.3-.1-.6,0-.7.3-.1.3,0,.6.3.7-.3.5-.6,1.1-.9,1.5-.2-.2-.6-.1-.8.1s-.1.6,0,.8c-.4.5-.8.9-1.3,1.3"/>
            <path class="cls-2" d="M16.7,18.8c.1,0,.2,0,.4,0l.3,2.2,2.1,6.3-1.4-6.5-.8-2.1c.1,0,.2,0,.3-.1l.9,2,3.6,5.6-3-5.9-1.3-1.8c.1,0,.2-.1.3-.2l1.4,1.8,5,4.4-4.4-5-1.8-1.4c0,0,.1-.2.2-.3l1.8,1.3,5.9,3-5.6-3.6-2-.9c0-.1.1-.2.1-.3l2.1.8,6.5,1.4-6.3-2.1-2.2-.3c0-.1,0-.2,0-.4l2.2.3,6.6-.4-6.6-.4-2.2.3c0-.1,0-.2,0-.4l2.2-.3,6.3-2.1-6.5,1.4-2.1.8c0-.1,0-.2-.1-.3l2-.9,5.6-3.7-5.9,3-1.8,1.3c0-.1-.1-.2-.2-.3l1.8-1.4,4.4-5-5,4.4-1.4,1.8c0,0-.2-.1-.3-.2l1.3-1.8,3-5.9-3.6,5.6-.9,2.1c-.1,0-.2-.1-.3-.1l.8-2.1,1.4-6.5-2.1,6.3-.3,2.2c-.1,0-.2,0-.4,0l.3-2.2-.4-6.6-.4,6.6.3,2.2c-.1,0-.2,0-.4,0l-.3-2.2-2.1-6.3,1.4,6.5.8,2.1c-.1,0-.2,0-.3.1l-.9-2.1-3.7-5.6,3,5.9,1.3,1.8c-.1,0-.2.1-.3.2l-1.4-1.8-5-4.4,4.4,5,1.8,1.4c0,0-.1.2-.2.3l-1.8-1.3-5.9-3,5.6,3.6,2.1.9c0,.1-.1.2-.1.3l-2.1-.8-6.5-1.4,6.3,2.1,2.2.3c0,.1,0,.2,0,.4l-2.2-.3-6.6.4,6.6.4,2.2-.3c0,.1,0,.2,0,.4l-2.2.3-6.3,2.1,6.5-1.4,2.1-.8c0,.1,0,.2.1.3l-2.1.9-5.6,3.6,5.9-3,1.8-1.3c0,.1.1.2.2.3l-1.8,1.4-4.4,5,5-4.4,1.4-1.8c0,0,.2.1.3.2l-1.3,1.8-3,5.9,3.6-5.6.9-2c.1,0,.2.1.3.1l-.8,2.1-1.4,6.5,2.1-6.3.3-2.2c.1,0,.2,0,.4,0l-.3,2.2.4,6.6.4-6.6s-.3-2.2-.3-2.2Z"/>
          </g>
        </g>
      </g>
    </g>
  </g>
</svg>