<?xml version="1.0" encoding="UTF-8"?>
<svg id="Layer_2" data-name="Layer 2" xmlns="http://www.w3.org/2000/svg" xmlns:xlink="http://www.w3.org/1999/xlink" viewBox="0 0 33.1 33.1">
  <defs>
    <style>
      .cls-1, .cls-2, .cls-3 {
        stroke-width: 0px;
      }

      .cls-1, .cls-4 {
        fill: none;
      }

      .cls-5 {
        clip-path: url(#clippath-1);
      }

      .cls-2 {
        fill: #010101;
      }

      .cls-6 {
        clip-path: url(#clippath);
      }

      .cls-4 {
        stroke: #231f20;
        stroke-miterlimit: 10;
        stroke-width: .5px;
      }

      .cls-3 {
        fill: #fff;
      }
    </style>
    <clipPath id="clippath">
      <rect class="cls-1" x="3.13" y="3.13" width="26.84" height="26.84"/>
    </clipPath>
    <clipPath id="clippath-1">
      <rect class="cls-1" x="3.13" y="3.13" width="26.84" height="26.84"/>
    </clipPath>
  </defs>
  <g id="Tokens">
    <g id="GIPR">
      <circle class="cls-2" cx="16.55" cy="16.55" r="16.3"/>
      <g class="cls-6">
        <g class="cls-5">
          <path class="cls-3" d="M16.55,3.92c-6.98,0-12.64,5.66-12.64,12.64s5.66,12.64,12.64,12.64,12.64-5.66,12.64-12.64S23.53,3.92,16.55,3.92M23.72,24.99c-.19-.23-.53-.27-.77-.09-.24.18-.29.52-.11.76-.49.34-1.01.64-1.55.9-.12-.27-.44-.4-.72-.29-.28.12-.41.43-.3.71-.56.2-1.13.35-1.73.46-.05-.3-.32-.5-.62-.46-.3.04-.51.31-.48.61-.29.02-.59.04-.89.04s-.6-.01-.89-.04c.03-.3-.18-.57-.48-.61-.3-.04-.57.17-.62.46-.59-.11-1.17-.26-1.73-.46.11-.28-.02-.6-.3-.71-.28-.12-.6.01-.72.29-.54-.26-1.06-.56-1.55-.9.18-.24.13-.58-.11-.76-.24-.18-.58-.14-.77.09-.45-.39-.88-.81-1.26-1.26.23-.19.27-.53.09-.77-.18-.24-.52-.29-.76-.11-.34-.49-.64-1.01-.9-1.55.27-.12.4-.44.29-.72-.12-.28-.43-.41-.71-.3-.2-.56-.35-1.13-.46-1.73.3-.05.5-.32.46-.62-.04-.3-.31-.51-.61-.48-.02-.29-.04-.59-.04-.89s.01-.6.04-.89c.3.03.57-.18.61-.48.04-.3-.17-.57-.46-.62.11-.59.26-1.17.46-1.73.28.11.6-.02.71-.3.12-.28-.01-.6-.29-.72.26-.54.56-1.06.9-1.55.24.18.58.13.76-.11.18-.24.14-.58-.09-.77.39-.45.81-.88,1.26-1.26.19.23.53.27.77.09.24-.18.29-.52.11-.76.49-.34,1.01-.64,1.55-.9.12.27.44.4.72.29.28-.12.41-.43.3-.71.56-.2,1.13-.35,1.73-.46.05.3.32.5.62.46.3-.04.51-.31.48-.61.29-.02.59-.04.89-.04s.6.01.89.04c-.03.3.18.57.48.61.3.04.57-.17.62-.46.59.11,1.17.26,1.73.46-.11.28.02.6.3.71.28.12.6-.01.72-.29.54.26,1.06.56,1.55.9-.18.24-.13.58.11.76.24.18.58.14.77-.09.45.39.88.81,1.26,1.26-.23.19-.27.53-.09.77.18.24.52.29.76.11.34.49.64,1.01.9,1.55-.27.12-.4.44-.29.72.12.28.43.41.71.3.2.56.35,1.13.46,1.73-.3.05-.5.32-.46.62.04.3.31.51.61.48.02.29.04.59.04.89s-.01.6-.04.89c-.3-.03-.57.18-.61.48-.04.3.17.57.46.62-.11.59-.26,1.17-.46,1.73-.28-.11-.6.02-.71.3-.12.28.01.6.29.72-.26.54-.56,1.06-.9,1.55-.24-.18-.58-.13-.76.11-.18.24-.14.58.09.77-.39.45-.81.88-1.26,1.26"/>
          <path class="cls-3" d="M16.67,18.77c.12,0,.24-.02.35-.05l.32,2.21,2.08,6.31-1.35-6.51-.83-2.07c.11-.04.22-.08.32-.13l.88,2.05,3.65,5.56-2.99-5.94-1.34-1.79c.1-.06.19-.14.28-.21l1.38,1.75,4.96,4.42-4.42-4.96-1.75-1.38c.08-.09.15-.18.21-.28l1.79,1.34,5.94,2.99-5.56-3.65-2.05-.88c.05-.1.1-.21.13-.32l2.07.83,6.51,1.35-6.31-2.08-2.21-.32c.02-.11.04-.23.05-.35l2.21.27,6.63-.38-6.63-.38-2.21.27c0-.12-.02-.24-.05-.35l2.21-.32,6.31-2.08-6.51,1.35-2.07.83c-.04-.11-.08-.22-.13-.32l2.05-.88,5.56-3.65-5.94,2.99-1.79,1.34c-.06-.1-.14-.19-.21-.28l1.75-1.38,4.42-4.96-4.96,4.42-1.38,1.75c-.09-.08-.18-.15-.28-.21l1.34-1.79,2.99-5.94-3.65,5.56-.88,2.05c-.1-.05-.21-.1-.32-.13l.83-2.07,1.35-6.51-2.08,6.31-.32,2.21c-.11-.02-.23-.04-.35-.05l.27-2.21-.38-6.63-.38,6.63.27,2.21c-.12,0-.24.02-.35.05l-.32-2.21-2.08-6.31,1.35,6.51.83,2.07c-.11.04-.22.08-.32.13l-.88-2.05-3.65-5.56,2.99,5.94,1.34,1.79c-.1.06-.19.14-.28.21l-1.38-1.75-4.96-4.42,4.42,4.96,1.75,1.38c-.08.09-.15.18-.21.28l-1.79-1.34-5.94-2.99,5.56,3.65,2.05.88c-.05.1-.1.21-.13.32l-2.07-.83-6.51-1.35,6.31,2.08,2.21.32c-.02.11-.04.23-.05.35l-2.21-.27-6.63.38,6.63.38,2.21-.27c0,.12.02.24.05.35l-2.21.32-6.31,2.08,6.51-1.35,2.07-.83c.04.11.08.22.13.32l-2.05.88-5.56,3.65,5.94-2.99,1.79-1.34c.06.1.14.19.21.28l-1.75,1.38-4.42,4.96,4.96-4.42,1.38-1.75c.09.08.18.15.28.21l-1.34,1.79-2.99,5.94,3.65-5.56.88-2.05c.1.05.21.1.32.13l-.83,2.07-1.35,6.51,2.08-6.31.32-2.21c.11.02.23.04.35.05l-.27,2.21.38,6.63.38-6.63-.27-2.21Z"/>
        </g>
      </g>
    </g>
  </g>
  <g id="Dire_line" data-name="Dire line">
    <circle class="cls-4" cx="16.55" cy="16.55" r="16.3"/>
  </g>
</svg>