<?xml version="1.0" encoding="UTF-8"?>
<svg id="Layer_2" data-name="Layer 2" xmlns="http://www.w3.org/2000/svg" version="1.1" xmlns:xlink="http://www.w3.org/1999/xlink" viewBox="0 0 33.1 33.1">
  <defs>
    <style>
      .cls-1 {
        fill: none;
      }

      .cls-1, .cls-2, .cls-3 {
        stroke-width: 0px;
      }

      .cls-4 {
        clip-path: url(#clippath-1);
      }

      .cls-5 {
        clip-path: url(#clippath);
      }

      .cls-2 {
        fill: #fff;
      }

      .cls-3 {
        fill: #ffd030;
      }
    </style>
    <clipPath id="clippath">
      <rect class="cls-1" x="1.4" y="1.9" width="30.4" height="30.4"/>
    </clipPath>
    <clipPath id="clippath-1">
      <rect class="cls-1" x="1.4" y="1.9" width="30.4" height="30.4"/>
    </clipPath>
  </defs>
  <g id="Dire_line" data-name="Dire line">
    <circle class="cls-2" cx="16.5" cy="16.5" r="16.3"/>
  </g>
  <g id="Tokens">
    <g id="Madras">
      <g class="cls-5">
        <g class="cls-4">
          <g>
            <path class="cls-3" d="M19.4,21.8c-1.1-.9-2.5-.8-2.8-.8h-.2c-.4,0-1.3.1-2.3.8-.5.3-.8.9-1,1.6-.2.8,0,1.7.7,2.3l2.3,2.3c.2.2.5.3.8.3.3,0,.5-.1.7-.3l2-2.3c.5-.6.8-1.5.6-2.3-.1-.7-.4-1.2-.9-1.6"/>
            <path class="cls-3" d="M13.8,18.8c.2.7.4,1.2.6,1.4,1.1-.6,2.4-.6,2.5-.6s1.4,0,2.4.6c.1-.2.3-.7.5-1.4.2-.8.5-2.2.5-4.1,0-3.5-1-6.2-1.8-7.9-.6-1.3-1.2-2.1-1.6-2.5-.3.4-1,1.3-1.6,2.6-.9,1.7-1.9,4.4-1.9,7.8s.3,3.2.5,4.1"/>
            <path class="cls-3" d="M12.5,18.5c-.4-1.5-.7-4,0-7.3-.1-.2-.9-.6-2.8-1.3-1.2-.4-2.3-.7-2.8-.8.2,5.2,1.9,8.2,3.3,9.7,1.2,1.4,2.5,2,2.9,2.1l.2-.2c-.2-.4-.6-1.1-.8-2.3"/>
            <path class="cls-3" d="M12.5,21.9c-.7-.4-1.4-.9-1.8-1.3-3.3-3.2-5.6-4.8-6.6-5.5.2,1.1.9,3.5,2.5,5.3,1.1,1.2,2.7,1.6,3.8,1.7.9.1,1.7,0,2,0,0,0,0-.1,0-.2"/>
            <path class="cls-3" d="M11.9,23.2c-.7,0-1.4,0-2.1-.1-.7,0-1.4-.2-1.9,0-1.4.2-2.3,1.4-2.6,2.1.4,0,1.2,0,2.2-.2,2-.5,3.7-.6,4.4-.6,0-.2,0-.4,0-.5,0-.1,0-.3,0-.4"/>
            <path class="cls-3" d="M20.9,18.5c-.3,1.2-.7,2-.9,2.3l.3.2c.5-.2,1.8-.7,3.2-2.1,1.5-1.6,3.4-4.5,3.7-9.7-.5,0-1.7.4-3.1.8-2.1.7-3,1.1-3.1,1.3.7,3.3.3,5.8,0,7.3"/>
            <path class="cls-3" d="M21,22.1c.3,0,1.2.1,2.3,0,1.2-.1,2.9-.5,4.2-1.7,1.8-1.7,2.5-4.1,2.8-5.3-1.1.6-3.6,2.3-7.3,5.5-.4.4-1.2.9-2,1.3,0,0,0,.1,0,.2"/>
            <path class="cls-3" d="M21.6,23.6v.5c.7,0,2.6.1,4.8.6,1.2.3,2,.3,2.5.2-.4-.6-1.4-1.9-2.9-2.1-.5,0-1.3,0-2.1,0-.8,0-1.6.2-2.3.1,0,.1,0,.3,0,.4"/>
          </g>
        </g>
      </g>
    </g>
  </g>
</svg>