<?xml version="1.0" encoding="UTF-8"?>
<svg id="Layer_2" data-name="Layer 2" xmlns="http://www.w3.org/2000/svg" xmlns:xlink="http://www.w3.org/1999/xlink" viewBox="0 0 33.1 33.1">
  <defs>
    <style>
      .cls-1 {
        fill: #d8bfa8;
      }

      .cls-1, .cls-2, .cls-3 {
        stroke-width: 0px;
      }

      .cls-2, .cls-4 {
        fill: none;
      }

      .cls-5 {
        clip-path: url(#clippath-1);
      }

      .cls-6 {
        clip-path: url(#clippath);
      }

      .cls-4 {
        stroke: #231f20;
        stroke-miterlimit: 10;
        stroke-width: .5px;
      }

      .cls-3 {
        fill: #fff;
      }
    </style>
    <clipPath id="clippath">
      <rect class="cls-2" x="2.57" y=".03" width="27.97" height="27.97"/>
    </clipPath>
    <clipPath id="clippath-1">
      <rect class="cls-2" x="2.57" y=".03" width="27.97" height="27.97"/>
    </clipPath>
  </defs>
  <g id="Tokens">
    <g id="North_Central" data-name="North Central">
      <circle class="cls-1" cx="16.55" cy="16.55" r="16.3"/>
      <g class="cls-6">
        <g class="cls-5">
          <path class="cls-3" d="M28.41,23.34v.45h-9.52v-5.09l-.04-.07c-.03-.06-.82-1.53-2.61-1.8-1.78.28-2.58,1.74-2.61,1.8l-.04.07v5.09H4.08v-.45h.3l.07-2.9c-.13-.04-.21-.1-.21-.17s.08-.12.22-.17l.08-3.27c-.19-.05-.31-.12-.31-.19s.12-.15.32-.2l.09-3.66c-.12-.04-.2-.09-.2-.14s.08-.11.21-.14l.03-1.02c-.14-.04-.23-.09-.23-.15,0-.05.07-.1.19-.14-.05-.05-.08-.12-.08-.19,0-.28.21-.42.48-.68l.02-.23c-.07-.02-.11-.08-.11-.16,0-.08.06-.15.13-.16l.05-.69v.22s.03.47.03.47c.07.02.12.09.12.16,0,.07-.04.13-.1.16v.25c.29.26.47.39.47.67,0,.07-.02.13-.05.18.15.04.24.09.24.15,0,.07-.11.12-.28.16l.03.99c.16.04.26.09.26.15s-.1.12-.25.15l.1,3.64c.22.05.35.12.35.2s-.13.15-.34.2l.09,3.25c.16.05.25.11.25.18s-.09.13-.24.18l.08,2.89h1.05c0-1.78,0-8.23,0-8.36,0-.16-.14-.15-.14-.42s.54-.34.54-.56h.03l.02-.37s-.06-.04-.06-.07c0-.04.03-.07.06-.07v-.2s.02.2.02.2c.04,0,.07.04.07.07,0,.04-.02.07-.06.07l.02.37h.04c0,.22.48.31.48.58s-.1.18-.1.38v.16l.97.87h.51v-1.54h.74s-.57-.25-.57-.8c0-1.55,1.4-1.2,1.4-1.82h.11l.02-.47c-.13-.03-.23-.15-.23-.3,0-.15.11-.28.26-.3l.03-.56.05.55c.16.02.28.15.28.31,0,.14-.09.26-.22.3l.04.47h.1c0,.43.65.47.99.75.04.04.07.06.07.07-.02-.02-.05-.05-.07-.07-.14-.16-.46-.65-.46-1.88,0-2.55,3.36-3.49,4.2-4.9l.02-.31c-.08-.05-.13-.14-.13-.25,0-.12.07-.22.16-.27l.13-2,.16,2.02c.08.05.14.15.14.25,0,.09-.04.17-.1.22l.03.4c.91,1.37,4.16,2.32,4.16,4.83,0,1.23-.31,1.72-.46,1.88-.03.02-.05.04-.07.07,0,0,.03-.02.07-.07.34-.28.99-.32.99-.75h.1l.04-.47c-.13-.04-.22-.16-.22-.3,0-.16.12-.29.28-.31l.05-.55.03.56c.15.02.26.15.26.3,0,.14-.1.27-.23.3l.02.47h.11c0,.62,1.4.26,1.4,1.82,0,.56-.57.8-.57.8h.74v1.54h.51l.97-.87v-.16c0-.21-.1-.12-.1-.38s.48-.36.48-.58h.04l.02-.37s-.06-.04-.06-.07c0-.04.03-.07.07-.07v-.2s.02.2.02.2c.04,0,.06.04.06.07s-.02.07-.06.07l.02.37h.03c0,.22.54.28.54.56s-.14.27-.14.42c0,.13,0,6.58,0,8.36h1.05l.08-2.89c-.15-.05-.24-.11-.24-.18s.1-.13.25-.18l.09-3.25c-.21-.05-.34-.12-.34-.2s.14-.16.35-.2l.1-3.64c-.15-.04-.25-.09-.25-.15s.1-.12.26-.15l.03-.99c-.17-.04-.28-.09-.28-.16,0-.06.09-.11.24-.15-.03-.05-.05-.11-.05-.18,0-.27.18-.41.46-.67v-.25s-.09-.09-.09-.16c0-.08.05-.14.12-.16l.02-.47v-.22s.06.69.06.69c.08.02.13.08.13.16,0,.07-.05.14-.11.16l.02.23c.27.26.48.4.48.68,0,.08-.03.14-.08.19.12.04.19.08.19.14,0,.06-.09.11-.23.15l.03,1.02c.13.04.21.09.21.14s-.08.1-.2.14l.09,3.66c.19.05.32.12.32.2s-.12.15-.31.19l.08,3.27c.14.04.22.1.22.17s-.08.12-.21.17l.07,2.9h.3Z"/>
        </g>
      </g>
    </g>
  </g>
  <g id="Dire_line" data-name="Dire line">
    <circle class="cls-4" cx="16.55" cy="16.55" r="16.3"/>
  </g>
</svg>