<?xml version="1.0" encoding="UTF-8"?>
<svg id="Layer_2" data-name="Layer 2" xmlns="http://www.w3.org/2000/svg" version="1.1" xmlns:xlink="http://www.w3.org/1999/xlink" viewBox="0 0 33.1 33.1">
  <defs>
    <style>
      .cls-1 {
        fill: none;
      }

      .cls-1, .cls-2, .cls-3 {
        stroke-width: 0px;
      }

      .cls-4 {
        clip-path: url(#clippath-1);
      }

      .cls-2 {
        fill: #d9bea8;
      }

      .cls-5 {
        clip-path: url(#clippath);
      }

      .cls-3 {
        fill: #fff;
      }
    </style>
    <clipPath id="clippath">
      <rect class="cls-1" x="3.3" y="0" width="28" height="28"/>
    </clipPath>
    <clipPath id="clippath-1">
      <rect class="cls-1" x="3.3" y="0" width="28" height="28"/>
    </clipPath>
  </defs>
  <g id="Dire_line" data-name="Dire line">
    <circle class="cls-3" cx="16.5" cy="16.5" r="16.3"/>
  </g>
  <g id="Tokens">
    <g id="North_Central" data-name="North Central">
      <g class="cls-5">
        <g class="cls-4">
          <path class="cls-2" d="M29.1,23.3v.5h-9.5v-5.1h0c0-.1-.8-1.6-2.6-1.9-1.8.3-2.6,1.7-2.6,1.8h0v5.2H4.8v-.5h.3v-2.9c0,0-.1-.1-.1-.2s0-.1.2-.2v-3.3c-.1,0-.2-.1-.2-.2s.1-.1.3-.2v-3.7s-.1,0-.1-.1,0-.1.2-.1v-1c-.1,0-.2,0-.2-.1s0-.1.2-.1c0,0,0-.1,0-.2,0-.3.2-.4.5-.7v-.2c0,0,0,0,0-.2s0-.1.1-.2v-.7c0,0,0,.2,0,.2v.5c.1,0,.2,0,.2.2s0,.1,0,.2v.2c.3.3.5.4.5.7s0,.1,0,.2c.2,0,.2,0,.2.1s-.1.1-.3.2v1c.2,0,.3,0,.3.1s0,.1-.2.1v3.6c.3,0,.4.1.4.2s-.1.1-.3.2v3.2c.2,0,.3.1.3.2s0,.1-.2.2v2.9h1.1v-8.4c0-.2-.1-.1-.1-.4s.5-.3.5-.6h0v-.4s0,0,0,0,0,0,0,0v-.2.2c0,0,0,0,0,0s0,0,0,0v.4h0c0,.2.5.3.5.6s-.1.2-.1.4v.2l1,.9h.5v-1.5h.7s-.6-.2-.6-.8c0-1.6,1.4-1.2,1.4-1.8h.1v-.5c-.1,0-.2-.1-.2-.3s.1-.3.3-.3v-.6s0,.6,0,.6c.2,0,.3.1.3.3s0,.3-.2.3v.5h.1c0,.4.6.5,1,.8,0,0,0,0,0,0h0c-.1-.2-.5-.7-.5-1.9,0-2.6,3.4-3.5,4.2-4.9v-.3c0,0-.1-.1-.1-.2s0-.2.2-.3v-2c.1,0,.3,2,.3,2,0,0,.1.2.1.2s0,.2-.1.2v.4c.9,1.4,4.2,2.3,4.2,4.8s-.3,1.7-.5,1.9c0,0,0,0,0,0,0,0,0,0,0,0,.3-.3,1-.3,1-.8h.1v-.5c0,0-.2-.2-.2-.3s.1-.3.3-.3v-.6s0,.6,0,.6c.1,0,.3.1.3.3s-.1.3-.2.3v.5h.1c0,.6,1.4.3,1.4,1.8s-.6.8-.6.8h.7v1.5h.5l1-.9v-.2c0-.2-.1-.1-.1-.4s.5-.4.5-.6h0v-.4s0,0,0,0,0,0,0,0v-.2.2c0,0,0,0,0,0s0,0,0,0v.4h0c0,.2.5.3.5.6s-.1.3-.1.4v8.4h1v-2.9c0,0-.2-.1-.2-.2s.1-.1.2-.2v-3.2c-.1,0-.2-.1-.2-.2s.1-.2.4-.2v-3.6s-.1,0-.1-.1.1-.1.3-.1v-1c-.1,0-.2,0-.2-.2s0-.1.2-.1c0,0,0-.1,0-.2,0-.3.2-.4.5-.7v-.2s0,0,0-.2,0-.1.1-.2v-.5s0-.2,0-.2v.7c.1,0,.2,0,.2.2s0,.1-.1.2v.2c.3.3.5.4.5.7s0,.1,0,.2c.1,0,.2,0,.2.1s0,.1-.2.1v1c.2,0,.2,0,.2.1s0,.1-.2.1v3.7c.3,0,.4.1.4.2s-.1.1-.3.2v3.3c.2,0,.3.1.3.2s0,.1-.2.2v2.9h.4,0Z"/>
        </g>
      </g>
    </g>
  </g>
</svg>