<?xml version="1.0" encoding="UTF-8"?>
<svg id="Layer_2" data-name="Layer 2" xmlns="http://www.w3.org/2000/svg" xmlns:xlink="http://www.w3.org/1999/xlink" viewBox="0 0 33.1 33.1">
  <defs>
    <style>
      .cls-1 {
        fill: #288fce;
      }

      .cls-1, .cls-2, .cls-3 {
        stroke-width: 0px;
      }

      .cls-2, .cls-4 {
        fill: none;
      }

      .cls-5 {
        clip-path: url(#clippath-1);
      }

      .cls-6 {
        clip-path: url(#clippath);
      }

      .cls-4 {
        stroke: #231f20;
        stroke-miterlimit: 10;
        stroke-width: .5px;
      }

      .cls-3 {
        fill: #fff;
      }
    </style>
    <clipPath id="clippath">
      <rect class="cls-2" x="1.77" y="1.76" width="29.57" height="29.57"/>
    </clipPath>
    <clipPath id="clippath-1">
      <rect class="cls-2" x="1.77" y="1.76" width="29.57" height="29.57"/>
    </clipPath>
  </defs>
  <g id="Tokens">
    <g id="Nizam">
      <circle class="cls-1" cx="16.55" cy="16.55" r="16.3"/>
      <g class="cls-6">
        <g class="cls-5">
          <path class="cls-3" d="M27.32,11.73c-.25-.07-.51-.11-.79-.11-.41,0-.84.08-1.3.24,0,0-.01,0-.02,0-.46-.82-1.04-1.57-1.71-2.23-.67-.66-1.43-1.22-2.26-1.67,0,0,0,0,0-.01.29-.81.33-1.54.12-2.18,1.94-.6,4.42,1.56,5.07.91l-.04.04c-.64.64,1.46,3.08.92,5.01"/>
          <path class="cls-3" d="M26.4,26.45l-.04-.04c-.64-.64-3.08,1.45-5.01.91.16-.55.15-1.15-.05-1.82.9-.5,1.72-1.13,2.43-1.87.01-.01.03-.03.04-.04.02-.02.04-.04.06-.07.02-.02.04-.05.06-.07.02-.02.04-.05.06-.07.02-.02.04-.05.07-.08.52-.6.98-1.26,1.34-1.97,0,0,0,0,0,0,.38.12.75.17,1.09.17.3,0,.58-.04.85-.13.6,1.94-1.57,4.42-.92,5.07"/>
          <path class="cls-3" d="M11.7,25.5c-.18.66-.18,1.27,0,1.81-1.94.6-4.41-1.57-5.06-.93l.04-.04c.64-.64-1.45-3.08-.9-5.01.25.08.52.11.8.11.33,0,.68-.05,1.05-.16.91,1.78,2.34,3.25,4.09,4.22"/>
          <path class="cls-3" d="M6.74,6.61l.04.04c.63.64,3.03-1.4,4.95-.91-.2.64-.16,1.37.14,2.18-.83.44-1.59.99-2.27,1.64-.68.65-1.26,1.4-1.73,2.21-.43-.14-.84-.22-1.22-.22-.29,0-.57.04-.84.13-.59-1.94,1.58-4.41.94-5.06"/>
          <path class="cls-3" d="M6.56,16.74c0,1.44.3,2.83.88,4.1-.32.09-.61.13-.88.13-.22,0-.43-.03-.62-.08-.09-.02-.17-.05-.25-.09-.01,0-.02,0-.03-.01,0,0-.02,0-.03-.01,0,0,0,0,0,0-.01,0-.03-.01-.04-.02-.02,0-.04-.02-.06-.03-.01,0-.02-.01-.03-.02,0,0-.02,0-.03-.02-.13-.07-.25-.15-.36-.25-.01,0-.02-.02-.03-.03,0,0-.02-.02-.03-.02-.01-.01-.03-.02-.04-.03-.02-.02-.04-.04-.06-.06,0,0-.02-.02-.03-.02-.11-.1-.2-.22-.3-.34-.01-.01-.02-.03-.03-.04-.03-.04-.06-.08-.09-.13,0-.01-.02-.03-.03-.04-.11-.16-.2-.32-.29-.49,0-.02-.02-.03-.03-.05,0-.02-.02-.03-.03-.05,0-.02-.02-.04-.03-.06-.02-.03-.03-.06-.05-.09-.13-.26-.24-.53-.35-.79,0-.02-.01-.03-.02-.05-.02-.04-.03-.08-.05-.12,0-.02-.01-.03-.02-.05,0-.02-.01-.03-.02-.05-.02-.05-.04-.09-.06-.14,0-.02-.01-.03-.02-.05-.01-.03-.02-.05-.03-.08-.02-.04-.04-.09-.05-.13,0-.02-.02-.05-.03-.07,0,0,0-.01,0-.01-.02-.04-.03-.08-.05-.12-.02-.04-.04-.08-.06-.12-.01-.02-.02-.05-.03-.07-.01-.02-.02-.05-.03-.07,0,0,0,0,0,0,0-.01-.01-.02-.02-.03-.06-.11-.12-.21-.18-.29,0,0-.01-.02-.02-.02,0,0-.01-.02-.02-.02-.05-.06-.1-.11-.16-.15,0,0,0,0-.01,0-.02-.01-.04-.03-.06-.04,0,0-.01,0-.02,0,0,0-.01,0-.02,0,0,0-.01,0-.02,0,0,0-.01,0-.02,0,0,0-.01,0-.02,0,0,0-.01,0-.02,0,0,0,0,0,0,0,0,0,0,0-.01,0,0,0,0,0-.01,0,0,0-.02,0-.02,0h.05s0,0,0,0c0,0,.02,0,.02,0,0,0,.02,0,.02,0,0,0,0,0,0,0,0,0,.01,0,.02,0,0,0,.01,0,.02,0,0,0,0,0,.01,0,0,0,0,0,0,0,0,0,.01,0,.02,0,0,0,.01,0,.02,0,0,0,0,0,0,0,0,0,.01,0,.01,0,0,0,0,0,0,0,0,0,.01,0,.02,0,0,0,.01,0,.02-.01.01,0,.02-.01.03-.02,0,0,0,0,.01,0,.01,0,.02-.02.03-.03,0,0,.01-.01.02-.02,0,0,.01-.01.02-.02.03-.03.05-.05.08-.09,0,0,.01-.02.02-.02,0,0,.01-.02.02-.02.01-.02.03-.04.04-.05.01-.02.02-.04.04-.05.02-.04.05-.08.07-.12,0-.01.01-.02.02-.03.04-.08.08-.16.13-.25,0-.01.01-.03.02-.04.01-.03.02-.05.04-.08.02-.04.03-.07.05-.11,0-.01.01-.03.02-.04.04-.09.08-.19.12-.28.01-.03.03-.07.04-.1.03-.07.06-.13.09-.2.02-.05.04-.09.06-.14.11-.24.22-.49.34-.74,0-.02.02-.03.03-.05.03-.05.06-.11.09-.16.02-.03.03-.06.05-.08.01-.02.02-.04.03-.05,0-.01.02-.03.02-.04.06-.09.11-.19.17-.27,0-.01.02-.03.03-.04,0-.01.02-.03.03-.04.03-.04.06-.08.09-.12.01-.02.02-.03.04-.05.01-.01.02-.03.03-.04.01-.01.02-.03.03-.04.01-.01.02-.03.03-.04.01-.01.02-.03.03-.04.02-.03.05-.06.08-.08.01-.01.02-.02.03-.03.02-.02.05-.05.07-.07.02-.02.05-.05.07-.07.01-.01.02-.02.03-.03.01-.01.03-.03.04-.04.01,0,.02-.02.03-.03,0,0,0,0,0,0,.03-.02.05-.04.08-.06.01-.01.03-.02.04-.03.01,0,.03-.02.04-.03.04-.03.08-.05.13-.08.01,0,.03-.02.04-.02.01,0,.03-.02.04-.02,0,0,.02-.01.03-.01.01,0,.02,0,.03-.01.01,0,.02-.01.03-.02.01,0,.03-.01.04-.02,0,0,0,0,0,0,.01,0,.02-.01.04-.02,0,0,0,0,.01,0,.01,0,.03-.01.04-.02.02,0,.04-.02.06-.02.01,0,.03,0,.04-.01.02,0,.03-.01.05-.02.2-.06.42-.09.65-.09.3,0,.64.05,1.01.17-.71,1.39-1.09,2.94-1.09,4.55"/>
          <path class="cls-3" d="M20.88,25.72c.15.56.14,1.03.03,1.44,0,.01,0,.03-.01.04h0s-.01.03-.02.05c0,0,0,0,0,0,0,.02-.01.03-.02.05,0,0,0,0,0,0,0,.02-.01.03-.02.05,0,.02-.01.04-.02.05-.01.03-.03.07-.05.1,0,.02-.02.03-.03.05,0,.02-.02.03-.03.05-.02.03-.04.06-.06.1-.02.03-.04.06-.06.09s-.04.06-.06.09c-.01.01-.02.03-.03.04s-.02.03-.03.04c-.01.01-.02.03-.04.04-.04.04-.07.08-.11.12-.01.01-.03.03-.04.04-.01.01-.03.03-.04.04,0,0,0,0,0,0-.04.04-.08.07-.11.1-.02.01-.03.03-.05.04-.01.01-.03.02-.04.03-.03.02-.06.05-.09.07-.02.01-.03.02-.05.03-.02.01-.03.02-.05.03-.02.01-.03.02-.05.03-.02.01-.03.02-.05.03-.02.01-.03.02-.05.03,0,0,0,0,0,0-.04.03-.09.06-.13.09,0,0,0,0,0,0-.02.01-.03.02-.05.03-.03.02-.07.04-.1.06-.02,0-.03.02-.05.03-.02,0-.03.02-.05.03-.05.03-.1.06-.15.08,0,0,0,0,0,0-.14.07-.27.14-.41.2-.02.01-.05.02-.07.03-.05.02-.09.04-.14.06-.02,0-.04.02-.05.02-.05.02-.1.04-.15.07-.05.02-.1.04-.15.06-.02,0-.03.01-.05.02-.03.01-.07.03-.1.04-.02,0-.03.01-.05.02-.02,0-.04.02-.05.02-.03.01-.06.02-.09.04-.15.06-.29.12-.42.18-.03.01-.05.02-.08.04-.01,0-.03.01-.04.02-.04.02-.07.03-.11.05-.02.01-.05.02-.07.04-.01,0-.02.01-.03.02-.02.01-.04.02-.07.04-.01,0-.02.01-.03.02-.01,0-.02.01-.03.02s-.02.01-.03.02c-.02.01-.03.02-.05.03-.01,0-.02.02-.04.02,0,0-.02.01-.03.02,0,0-.02.01-.03.02,0,0,0,0-.01,0l-.02.02s-.05.04-.08.07c-.01.01-.02.02-.04.04-.01.01-.02.03-.03.04,0,0,0,.01-.01.02,0,0,0,.01-.01.02,0,0,0,.01-.01.02,0,0,0,.01-.01.02,0,0,0,.01,0,.02,0,0,0,.01,0,.02,0,0,0,.01,0,.02,0,0,0,0,0,0,0,0,0,.01,0,.02,0,0,0,0,0,0,0,0,0,.01,0,.02,0,0,0,0,0,0,0,0,0,.02,0,.02,0,0,0,0,0,0,0,0,0,0,0,.01,0,0,0,0,0,.01,0,0,0,.02,0,.02v-.05s0,0,0,0c0,0,0-.02,0-.02,0,0,0-.02,0-.02,0,0,0,0,0,0,0,0,0-.01,0-.02,0-.01,0-.02,0-.03,0,0,0,0,0-.01,0,0,0-.01,0-.02,0,0,0-.01,0-.02,0,0,0,0,0,0,0,0,0,0,0-.01,0,0,0,0,0,0,0,0,0-.01,0-.02-.03-.06-.07-.11-.13-.16,0,0-.01-.01-.02-.02,0,0,0,0,0,0,0,0-.01-.01-.02-.02,0,0-.02-.01-.02-.02,0,0-.02-.01-.02-.02,0,0-.02-.01-.03-.02-.02-.02-.05-.04-.08-.05,0,0-.02-.01-.03-.02,0,0-.02-.01-.03-.02,0,0-.02-.01-.03-.02-.01,0-.02-.01-.03-.02-.03-.02-.07-.04-.1-.06-.02-.01-.04-.02-.06-.03-.03-.01-.05-.03-.08-.04-.02-.01-.05-.02-.07-.03-.03-.01-.06-.03-.1-.04-.02,0-.04-.02-.06-.03-.01,0-.03-.01-.04-.02-.01,0-.03-.01-.04-.02-.06-.02-.11-.05-.17-.08-.05-.02-.09-.04-.14-.06,0,0-.02,0-.03-.01-.02-.01-.05-.02-.07-.03-.03-.01-.07-.03-.1-.04-.02,0-.03-.01-.05-.02-.03-.01-.07-.03-.1-.04-.03-.01-.07-.03-.1-.04-.07-.03-.14-.06-.21-.09-.03-.02-.07-.03-.1-.05-.02,0-.03-.02-.05-.02-.03-.02-.07-.03-.1-.05,0,0,0,0,0,0-.07-.03-.14-.07-.21-.1-.03-.02-.07-.03-.1-.05-.03-.02-.07-.04-.1-.05-.02,0-.04-.02-.05-.03-.08-.05-.17-.09-.25-.14,0,0-.02-.01-.03-.02-.04-.02-.08-.05-.12-.08-.02-.01-.03-.02-.05-.03-.02-.01-.03-.02-.05-.03,0,0,0,0,0,0-.03-.02-.06-.04-.09-.06-.02-.01-.03-.02-.05-.04-.05-.03-.09-.07-.13-.1-.03-.02-.06-.05-.09-.07-.03-.02-.06-.05-.08-.08-.05-.05-.11-.1-.16-.16-.01-.01-.03-.03-.04-.04-.03-.03-.05-.06-.07-.08-.01-.01-.02-.03-.03-.04-.01-.01-.02-.03-.03-.04-.01-.01-.02-.03-.03-.04-.05-.07-.1-.15-.15-.23-.01-.03-.03-.05-.04-.08,0,0,0-.02-.01-.03-.01-.02-.02-.05-.03-.07,0-.01-.01-.03-.02-.04,0-.02-.02-.04-.03-.07,0-.02-.01-.03-.02-.05,0-.02-.02-.05-.02-.07-.12-.4-.14-.88,0-1.44,1.35.66,2.84,1.01,4.39,1.01s3.01-.34,4.35-.99"/>
          <path class="cls-3" d="M12.29,7.71c-.25-.73-.27-1.32-.12-1.81,0-.02.01-.03.02-.05,0-.02.01-.04.02-.05.01-.04.03-.07.04-.11,0-.02.01-.03.02-.05,0-.02.02-.04.03-.06,0-.01.01-.03.02-.04,0-.02.02-.03.03-.05,0-.02.02-.03.03-.05,0-.02.02-.03.03-.05.05-.08.1-.16.16-.23.01-.01.02-.03.03-.04,0-.01.02-.02.03-.04.03-.03.05-.06.08-.09.01-.01.02-.03.04-.04.01-.01.03-.03.04-.04.01-.01.03-.03.04-.04.04-.04.08-.08.13-.12.01-.01.03-.02.04-.04.01-.01.03-.02.04-.04.01-.01.03-.02.04-.04.01,0,.02-.02.03-.03.34-.26.72-.47,1.12-.66.02,0,.03-.02.05-.02.13-.06.26-.12.38-.17.02,0,.03-.01.05-.02.05-.02.09-.04.14-.06.03-.01.05-.02.08-.03.38-.16.73-.3,1.01-.44.01,0,.03-.01.04-.02.01,0,.02-.01.04-.02.03-.02.06-.03.08-.05.01,0,.02-.01.03-.02,0,0,.02-.01.03-.02.07-.04.13-.09.18-.13,0,0,.01-.01.02-.02.01-.01.02-.02.03-.03,0,0,.01-.01.02-.02,0,0,.01-.01.02-.02,0,0,0-.01.01-.02,0,0,.02-.02.02-.03,0,0,.01-.01.02-.02,0,0,.01-.02.02-.02,0,0,0-.01.01-.02,0-.02.02-.03.02-.05,0,0,0-.01,0-.02,0,0,0-.01,0-.02,0,0,0,0,0,0,0,0,0-.01,0-.02,0,0,0-.02,0-.03,0,0,0-.02,0-.02,0,0,0-.02,0-.02v.05s0,.02,0,.02c0,0,0,.02,0,.02,0,0,0,.02,0,.03,0,0,0,.01,0,.02,0,0,0,0,0,.01,0,0,0,0,0,0,0,0,0,0,0,.01,0,0,0,.01,0,.02,0,0,0,.02,0,.02,0,0,0,.02.01.02h0s0,.01.01.02c.01.02.03.05.05.07,0,0,.01.01.02.02.01.01.03.03.04.04,0,0,.01.01.02.02.02.02.04.03.06.05,0,0,.02.01.02.02.01,0,.02.02.03.02.02.02.05.03.07.05.02.01.04.03.07.04.01,0,.02.01.03.02.1.06.21.11.33.17.01,0,.02.01.04.02.22.1.47.2.73.31.03.01.06.03.09.04.08.03.16.07.23.1.02,0,.03.01.05.02.14.06.29.13.43.2.02,0,.03.02.05.02,0,0,.02,0,.03.01.02,0,.03.02.05.02.07.03.14.07.21.11.03.02.06.03.09.05.03.02.06.04.09.05.01,0,.03.01.04.02.02.01.04.02.05.03.02,0,.03.02.04.03.06.04.12.07.17.11.02.01.03.02.05.03.09.06.17.12.26.19.01,0,.02.02.04.03.01.01.03.02.04.03.01.01.03.02.04.03.06.06.13.12.18.18,0,0,.02.02.02.02.02.02.04.05.07.07,0,0,.02.02.02.03,0,.01.02.02.03.03,0,.01.02.02.03.03,0,.01.02.02.02.03.01.01.02.03.03.04.03.03.05.07.08.11,0,.01.02.02.02.03,0,.02.02.03.03.05.02.04.04.07.06.11,0,.01.01.02.02.04,0,.01.01.03.02.04,0,0,0,0,0,.01,0,.01.01.03.02.04,0,0,0,0,0,0,0,.02.01.03.02.05,0,.02.01.03.02.05.01.04.03.07.04.11,0,.02.01.03.02.05.15.48.14,1.07-.11,1.78-1.32-.63-2.78-.97-4.29-.97s-2.93.32-4.24.94"/>
          <path class="cls-3" d="M25.45,16.74c0,1.35-.3,2.62-.84,3.77,0,0,0,0,0,0-.13.29-.28.57-.44.84-.01.02-.02.04-.03.05-.01.02-.02.04-.03.06-1.58,2.52-4.38,4.21-7.57,4.21-4.92,0-8.92-4-8.92-8.92s4-8.92,8.92-8.92c1.39,0,2.7.32,3.88.89,0,0,0,0,0,0,1.75.85,3.19,2.26,4.07,4,0,0,0,0,0,0,.62,1.21.97,2.58.97,4.04"/>
          <path class="cls-3" d="M30.51,16.57h-.06s-.02,0-.02,0c0,0-.02,0-.02,0h0s-.02,0-.02,0c0,0-.01,0-.02,0,0,0,0,0,0,0,0,0,0,0-.01,0,0,0-.01,0-.02,0,0,0-.01,0-.02,0,0,0-.01,0-.02,0,0,0-.02,0-.02.01h0s-.01,0-.02.01c-.03.02-.06.04-.08.06,0,0-.01,0-.02.01,0,0-.02.02-.03.02,0,0-.01.01-.02.02,0,0-.01.01-.02.02,0,0-.01.02-.02.02,0,0-.01.01-.02.02-.03.03-.05.07-.07.1,0,0-.01.02-.02.03-.02.04-.05.08-.07.12,0,.01-.01.02-.02.03,0,.01-.01.02-.02.03,0,.01-.01.02-.02.03-.05.09-.1.19-.14.29-.01.03-.02.05-.04.08-.02.05-.05.11-.07.16-.03.06-.05.12-.08.19-.03.06-.05.13-.08.2,0,0,0,0,0,.01-.01.03-.03.06-.04.09,0,.02-.01.03-.02.05-.01.03-.03.07-.04.1-.03.07-.06.14-.09.2-.03.07-.06.14-.09.21-.03.07-.06.14-.1.21-.02.05-.04.09-.07.14-.01.02-.02.05-.03.07-.02.05-.05.09-.07.14-.02.04-.05.09-.07.13-.02.03-.04.07-.06.1-.01.02-.02.03-.03.05-.01.02-.02.03-.03.05,0,.02-.02.03-.03.05-.02.03-.04.06-.06.1-.04.06-.08.12-.13.18,0,0,0,0,0,0-.01.02-.02.03-.03.05-.01.01-.02.03-.03.04-.01.01-.02.03-.04.04-.01.01-.02.03-.04.04-.01.01-.02.03-.04.04-.01.01-.03.03-.04.04-.01.01-.02.03-.04.04-.03.03-.05.05-.08.08-.01.01-.03.03-.04.04-.01.01-.03.03-.04.04-.01.01-.03.02-.04.04-.01.01-.03.02-.04.04-.02.01-.03.03-.05.04-.01,0-.02.02-.04.03-.03.02-.06.04-.09.06-.02.01-.03.02-.05.03-.02.01-.04.03-.07.04-.02.01-.04.03-.07.04,0,0,0,0,0,0-.02,0-.03.02-.05.03-.02,0-.03.02-.05.03-.02,0-.03.02-.05.02-.02,0-.03.01-.05.02,0,0,0,0,0,0-.02,0-.03.01-.05.02,0,0,0,0,0,0-.02,0-.03.01-.05.02-.03.01-.06.02-.1.04,0,0-.01,0-.02,0-.02,0-.03,0-.05.01-.2.06-.42.09-.66.09-.27,0-.56-.04-.88-.13.59-1.29.91-2.71.91-4.17,0-1.57-.36-3.09-1.05-4.46.4-.13.76-.19,1.08-.19.22,0,.42.03.61.08,0,0,0,0,0,0,.02,0,.03,0,.05.01.02,0,.04.01.05.02.02,0,.03.01.05.02.01,0,.03.01.04.02.01,0,.03.01.04.02.02,0,.04.02.06.03,0,0,.02,0,.03.01.01,0,.02,0,.03.01.02.01.04.02.06.03.02,0,.03.02.05.02.07.04.13.07.19.12.02.01.03.02.05.03.02.01.03.02.04.03.02.01.03.03.05.04.01,0,.02.02.04.03.01.01.03.02.04.04.01.01.03.02.04.04.01.01.03.02.04.04.01.01.03.03.04.04.01.01.03.03.04.04s.03.03.04.04c.03.03.05.05.08.08.01.01.02.03.04.04.01.01.02.03.04.04.01.01.02.03.04.04.01.01.02.03.04.04.01.01.02.03.03.04.01.02.02.03.03.05.02.03.04.06.07.09.02.03.04.06.06.09.04.06.08.13.12.2,0,.02.02.03.03.05.01.02.02.04.03.06,0,.01.02.03.03.04,0,.02.02.03.03.05,0,.02.02.03.03.05.02.03.04.07.05.1.02.03.04.07.05.1.02.05.05.09.07.14.02.04.04.08.06.12,0,.02.02.04.02.05.02.03.03.07.05.1,0,.02.02.03.02.05.02.05.05.1.07.16.01.03.03.06.04.09.02.04.03.08.05.11.01.03.02.05.03.07.06.15.12.29.18.42.01.02.02.05.03.07,0,.02.02.04.03.06,0,.02.01.03.02.05,0,.02.01.03.02.04.05.1.09.2.14.29.01.03.03.05.04.08,0,.01.01.03.02.04,0,.01.01.02.02.04,0,0,0,0,0,.01.02.03.03.06.05.09.02.03.04.07.06.1,0,.01.01.02.02.03,0,0,.01.02.02.03,0,0,.01.02.02.03.01.02.03.03.04.05,0,0,.01.02.02.02,0,0,.01.02.02.02.01.01.03.03.04.04,0,0,0,0,0,0,.01.01.03.02.04.03,0,0,0,0,0,0,0,0,.01,0,.02.01.02.01.03.02.05.03,0,0,.01,0,.02,0,0,0,.02,0,.03.01,0,0,0,0,.02,0,0,0,0,0,0,0,0,0,0,0,.01,0,0,0,0,0,.01,0,0,0,.01,0,.02,0,0,0,0,0,.01,0,0,0,0,0,.01,0,0,0,.01,0,.02,0,0,0,.02,0,.02,0"/>
        </g>
      </g>
    </g>
  </g>
  <g id="Dire_line" data-name="Dire line">
    <circle class="cls-4" cx="16.55" cy="16.55" r="16.3"/>
  </g>
</svg>