<?xml version="1.0" encoding="UTF-8"?>
<svg id="Layer_2" data-name="Layer 2" xmlns="http://www.w3.org/2000/svg" xmlns:xlink="http://www.w3.org/1999/xlink" viewBox="0 0 33.1 33.1">
  <defs>
    <style>
      .cls-1, .cls-2 {
        fill: none;
      }

      .cls-1, .cls-3, .cls-4 {
        stroke-width: 0px;
      }

      .cls-5 {
        clip-path: url(#clippath-1);
      }

      .cls-6 {
        clip-path: url(#clippath);
      }

      .cls-2 {
        stroke: #231f20;
        stroke-miterlimit: 10;
        stroke-width: .5px;
      }

      .cls-3 {
        fill: #fff;
      }

      .cls-4 {
        fill: #4ab649;
      }
    </style>
    <clipPath id="clippath">
      <rect class="cls-1" x="2.57" y="2.57" width="27.97" height="27.97"/>
    </clipPath>
    <clipPath id="clippath-1">
      <rect class="cls-1" x="2.57" y="2.57" width="27.97" height="27.97"/>
    </clipPath>
  </defs>
  <g id="Tokens">
    <g id="Northwest">
      <circle class="cls-4" cx="16.55" cy="16.55" r="16.3"/>
      <g class="cls-6">
        <g class="cls-5">
          <path class="cls-3" d="M5.31,21.99c1.81,1.25,5.17,1.25,8.85-.03.13-.13.27-.28.41-.45-2.22-.22-4.38-.73-6.25-1.49-1.39.47-2.42,1.15-3.01,1.97M7.26,22.12c-.09.15-.23.25-.4.27-.02,0-.05,0-.07,0-.12,0-.24-.04-.34-.12-.15-.11-.25-.29-.28-.48-.03-.2.02-.39.13-.54.09-.12.22-.2.36-.22.32-.05.63.22.69.59.03.18,0,.35-.1.49"/>
          <path class="cls-3" d="M7.67,26.4c2.19.47,3.88-.44,5.86-2.06-.13-.59-.01-1.22.32-1.76-1.35.54-2.8.75-4.08.91-1.24,1.13-1.89,2.03-2.09,2.9M9.4,25.24c.2.32.13.72-.14.9-.08.05-.18.08-.28.08-.04,0-.09,0-.14-.02-.18-.04-.34-.16-.45-.33-.09-.15-.13-.32-.11-.49.02-.18.11-.32.25-.41h0c.28-.17.67-.05.87.27"/>
          <path class="cls-3" d="M24.42,15.7s.03-.03.05-.05c.03-.03.07-.06.1-.1h0s.08-.08.11-.12h0s.07-.07.11-.11c.04-.04.08-.07.11-.11h0s.07-.07.11-.11c.04-.04.07-.07.11-.11.04-.04.07-.07.11-.11h.01c.06-.07.12-.13.17-.19l.02-.03s.07-.07.1-.11c.03-.04.07-.07.1-.11.04-.04.07-.08.1-.12.03-.04.07-.07.1-.11.03-.03.05-.06.08-.09.04-.04.08-.09.11-.13.02-.02.04-.05.06-.07l.03-.04s.06-.08.09-.11c.03-.04.06-.07.09-.11.03-.04.06-.07.08-.1,0,0,.01-.02.02-.02.05-.07.1-.13.15-.19h0s0-.02.01-.03h0s.05-.06.07-.09c.03-.04.06-.07.08-.11.03-.03.05-.07.07-.1.05-.07.11-.15.16-.23.03-.04.05-.07.08-.11.08-.12.15-.22.22-.33.02-.04.05-.07.07-.11.05-.08.09-.15.13-.22.02-.03.03-.05.05-.08v-.02s.01,0,.02,0h0s.04-.08.06-.11c.02-.03.03-.06.05-.08l.05-.08s.02-.03.02-.04c.02-.04.04-.07.06-.11.02-.03.03-.06.04-.09.08-.15.15-.31.21-.46,0-.02.02-.04.03-.07.01-.03.02-.05.03-.07h0s.02-.05.02-.07c0,0,0,0,0,0v-.02s.02-.05.03-.07c.02-.07.04-.12.06-.18.01-.03.02-.06.03-.09,0-.02.01-.04.02-.06,0-.02.01-.04.02-.07h0s0-.01,0-.02h0s.01-.04.02-.06h0s0-.04.01-.05h0s0-.02,0-.02h0s.01-.05.02-.07c0-.03.01-.05.02-.07h0c.01-.07.03-.13.04-.19,0-.02,0-.05.01-.07v-.02s0-.04.01-.06h0s0-.04,0-.06h0s0-.01,0-.01h0s0-.05,0-.07v-.02s0-.01,0-.02h0s0,0,0,0c-.02,0-.04,0-.07,0-.01,0-.03,0-.04,0h0s-.02,0-.04,0c-.02,0-.04,0-.05,0h0s-.04,0-.06,0h0s-.04,0-.06,0h0s-.02,0-.04,0h0s-.01,0-.02,0h0s-.02,0-.03,0h-.02s-.05.01-.07.02c-.03,0-.05.01-.07.02-.02,0-.04,0-.06.01-.02,0-.04,0-.06.01h0c-.06.02-.12.03-.17.05-.03,0-.06.02-.09.03-.03,0-.06.02-.09.03h0s-.01,0-.02,0h-.02s-.04.02-.06.02c-.03.01-.06.02-.09.03h0s-.08.03-.11.04h0s-.05.02-.07.03h-.01s-.07.03-.1.04c-.03.01-.05.02-.08.03-.04.02-.08.03-.12.05-.17.07-.34.15-.51.24-.03.02-.07.04-.1.05-.03.02-.07.03-.1.05-.04.02-.07.04-.11.06-.04.02-.07.04-.1.06-.13.08-.27.16-.41.25h0c-.08.05-.15.1-.21.14-.04.02-.07.05-.11.07-.04.02-.07.05-.11.07h-.02s-.06.05-.09.07c-.04.03-.07.05-.11.08-.04.03-.07.05-.11.08-.04.03-.07.05-.11.08-.11.08-.22.17-.32.25h-.01c-.06.06-.13.11-.19.16,0,0,0,0-.01,0h0c-.08.07-.15.12-.22.18-.02.02-.04.04-.07.05l-.05.05s-.06.06-.1.08c-.07.06-.15.13-.22.19-.04.03-.07.06-.11.1-.04.03-.07.07-.11.1-.1.09-.21.2-.32.3-.06.06-.12.12-.18.18h0s-.02.02-.03.03h0s-.07.07-.1.11c-.04.04-.07.07-.11.11-.06.07-.13.13-.21.22-.07.07-.14.15-.23.24h0c-.09.1-.16.17-.22.25l-.02.02c-1.54,1.72-2.87,3.72-3.86,5.82.66-.6,1.37-1.15,2.11-1.66,1.22-.84,2.49-1.52,3.77-2.03.24-.09.48-.18.72-.26M26.65,10.18c.13-.13.3-.2.48-.2s.36.07.48.2c.27.27.27.7,0,.97-.13.13-.31.2-.48.2s-.35-.07-.48-.2c-.27-.27-.27-.7,0-.97"/>
          <path class="cls-3" d="M15.07,19.13c-.26-.52-.55-1.04-.85-1.55-.16.02-.32.05-.48.07-.08.01-.16.02-.24.03-.08.01-.16.02-.23.03-.04,0-.08,0-.11,0,.13.08.25.17.38.25.53.36,1.04.75,1.54,1.16"/>
          <path class="cls-3" d="M21.9,12.62c.1-.23.19-.47.27-.71.02-.06.05-.13.07-.2.09-.27.18-.53.26-.79.05-.15.09-.32.14-.48.06-.23.11-.45.16-.66.02-.07.03-.14.04-.19.02-.12.05-.23.06-.34,0-.06.02-.12.03-.19h0s0-.06.01-.09c0-.03,0-.06.01-.09,0-.03,0-.06.01-.09,0-.03,0-.05,0-.08v-.1s.02-.06.02-.08c0-.06.01-.13.02-.17,0-.03,0-.06,0-.08,0-.04,0-.09.01-.14,0-.03,0-.05,0-.08,0-.09,0-.18.01-.27,0-.02,0-.04,0-.06,0-.59-.05-1.12-.18-1.59-.02.01-.04.02-.07.03-.04.02-.06.03-.09.05-.02,0-.03.02-.05.03h-.01s-.05.04-.07.05c-.05.03-.11.07-.16.11-.02.01-.04.03-.07.05-.02.02-.05.03-.07.05h0s-.05.04-.07.06c-.03.02-.05.04-.08.06h-.02s-.04.04-.06.06c-.05.04-.1.08-.15.13-.03.02-.05.04-.08.07-.03.02-.05.04-.07.07-.02.02-.05.05-.07.07-.02.02-.05.05-.07.07h-.01s-.04.05-.07.08c-.02.02-.05.05-.07.08-.03.03-.05.05-.07.08-.05.05-.09.1-.15.16-.05.06-.1.12-.15.17-.05.06-.1.11-.15.17-.02.03-.05.06-.07.09-.03.04-.06.07-.08.11h0s-.04.06-.06.08c-.02.03-.04.05-.06.08h-.01s-.03.05-.04.07h0s-.03.04-.03.04c-.02.03-.05.06-.07.1-.04.06-.09.13-.14.2-.11.17-.23.35-.35.53-.05.08-.09.15-.14.22-.07.11-.13.23-.2.35-.02.04-.04.08-.07.12l-.07.12s-.04.08-.06.11h0c-.11.21-.21.42-.32.63-.04.08-.08.16-.12.26-.06.13-.12.26-.18.4-.06.14-.12.28-.17.41-.02.05-.04.1-.06.15.26.18.4.5.34.83-.02.09-.04.18-.06.26.07.03.14.07.21.12.31.24.37.68.14.99-.23.31-.51.53-.83.65.05.4.01.83-.12,1.25l-.03.08-.05.06c-.17.2-.41.38-.73.55l-.08.27s-.11.42-.08,1.04c.02.36.07.74.17,1.12.51-1.04,1.11-2.07,1.78-3.05.75-1.1,1.58-2.13,2.45-3.06.05-.13.11-.26.17-.39M21.49,7.51c.07-.17.2-.3.37-.37.17-.07.36-.07.53,0,.17.07.3.2.37.37.07.17.07.36,0,.53-.07.17-.2.3-.37.37-.08.04-.17.05-.26.05s-.18-.02-.26-.05c-.35-.14-.52-.55-.37-.9"/>
          <path class="cls-3" d="M15.4,7.45c-.31,1.16-.48,2.56-.48,4.04.24.59.47,1.21.67,1.83.07-.03.14-.06.21-.09.38-.15.75-.2,1.09-.17.07-.16.12-.31.14-.46-.4-.07-.7-.38-.76-.78-.03-.24.03-.49.18-.69.15-.2.37-.32.61-.36.04,0,.08,0,.13,0,.45,0,.84.33.91.79.01.07.02.13.03.2,0,0,0,0,0,0,.03-.07.05-.13.08-.19.03-2.97-.53-5.34-1.57-6.7-.52.6-.94,1.49-1.24,2.58M17.25,6.67c0,.38-.31.69-.69.69s-.69-.31-.69-.69.31-.69.69-.69.69.31.69.69"/>
          <path class="cls-3" d="M8.76,16.12h-.02c-.11-.05-.22-.08-.33-.12h-.01s-.08-.03-.12-.04l-.19-.06c-.09-.03-.19-.05-.28-.08l-.11-.03s-.05-.01-.08-.02c-.09-.02-.19-.04-.28-.06-.03,0-.06-.01-.09-.02h0s-.05-.01-.08-.02c-.08-.02-.17-.03-.26-.05-.04,0-.07-.01-.1-.02-.03,0-.06,0-.09-.01l-.1-.02c-.12-.02-.23-.03-.34-.04-.14-.02-.29-.03-.43-.03h-.06s-.02,0-.04,0c-.03,0-.05,0-.08,0-.79-.02-1.47.08-2.04.3.01.02.02.04.03.06,0,.02.02.04.03.05.06.11.13.22.2.33.01.02.02.03.03.05h0s.02.04.04.06c.02.03.04.06.06.09.02.02.03.04.05.06h0s.02.03.03.04h0s.02.03.03.05c.01.02.03.03.04.05h0s.04.05.06.07c.02.02.04.05.06.07l.02.02s.03.03.04.04c.02.02.04.05.06.07.02.02.04.04.06.06.05.05.09.09.13.14.05.05.1.09.14.13.07.06.14.13.22.2.07.06.15.13.23.19.03.02.05.04.08.06.03.02.05.04.08.06.03.02.05.04.08.06.02.02.04.03.07.05h.02c.87.66,1.94,1.23,3.18,1.71l.15.06c1.83.7,3.91,1.16,6.05,1.35.08-.15.15-.29.21-.45.02-.06.05-.13.07-.19v-.02c.03-.09.06-.19.09-.28,0-.02.01-.05.02-.07-1.94-1.74-4.25-3.12-6.51-3.87h-.01ZM5.7,16.6c-.11.27-.36.44-.62.44-.07,0-.15-.01-.22-.04-.16-.07-.28-.19-.34-.36-.06-.16-.05-.34.02-.51.07-.18.21-.32.38-.39.15-.06.32-.06.46,0,.16.07.28.19.34.36.06.16.05.34-.02.51"/>
          <path class="cls-3" d="M19.27,22.5c.33.54.45,1.17.32,1.76,1.98,1.62,3.67,2.52,5.86,2.06-.19-.87-.85-1.77-2.09-2.9-1.28-.16-2.73-.37-4.08-.91M23.71,25.16c.2-.32.59-.44.87-.27.28.17.34.58.14.9-.1.17-.27.29-.45.33-.05.01-.09.02-.14.02-.1,0-.2-.03-.28-.08-.28-.17-.34-.58-.14-.9"/>
          <path class="cls-3" d="M11.46,13.84l-.02-.02c-.06-.07-.13-.15-.22-.24h0c-.07-.07-.13-.14-.19-.21-.01-.02-.03-.03-.04-.04-.03-.03-.06-.07-.1-.1-.03-.03-.06-.06-.09-.1-.04-.04-.08-.09-.13-.13-.02-.02-.04-.04-.06-.06-.02-.02-.04-.04-.07-.07-.24-.24-.49-.48-.74-.7l-.08-.07s-.07-.06-.11-.09c-.11-.09-.21-.18-.32-.27-.03-.02-.06-.05-.08-.07l-.04-.03c-.05-.04-.12-.1-.19-.15h0s-.02-.02-.03-.02c-.07-.06-.14-.11-.2-.15-.04-.03-.07-.05-.11-.08-.04-.03-.07-.05-.11-.08-.03-.02-.05-.04-.08-.06l-.03-.02s-.06-.04-.09-.06c-.22-.15-.43-.3-.65-.43h0s-.07-.04-.1-.06c-.03-.02-.07-.04-.1-.06-.07-.04-.12-.07-.17-.1-.03-.02-.05-.03-.08-.04h0s-.05-.03-.08-.04c-.03-.01-.05-.03-.08-.04h0s-.07-.04-.1-.06c-.04-.02-.07-.04-.1-.05-.03-.01-.05-.03-.08-.04h-.02s-.07-.04-.11-.06c-.03-.02-.07-.03-.1-.04-.14-.06-.28-.12-.41-.17h0s-.04-.02-.06-.02h-.02s-.02-.01-.03-.02h0s-.05-.02-.07-.03h0s-.04-.02-.06-.02c-.04-.01-.09-.03-.13-.04-.03,0-.05-.02-.08-.02-.03-.01-.07-.02-.1-.03-.06-.02-.11-.03-.15-.04h0s-.01,0-.02,0c-.03,0-.05-.01-.08-.02h0s-.03,0-.04-.01h0s-.04,0-.05-.01h-.02s-.04-.01-.06-.02c-.02,0-.04,0-.06-.01,0,0-.01,0-.02,0h0s-.02,0-.04,0h0s-.04,0-.05,0h0s-.04,0-.06,0h0s-.03,0-.05,0h0s-.03,0-.04,0c-.02,0-.03,0-.04,0-.02,0-.04,0-.07,0,0,0,0,0,0,0,0,.03,0,.05.01.08,0,0,0,.01,0,.02h0s0,.06.01.08h0s0,.05.01.07h0s0,.04.01.06h0s0,.05.01.07c0,.02,0,.04.02.07.02.1.05.2.08.3,0,.03.02.06.03.09,0,.03.02.06.03.09,0,.03.02.05.03.08v.02s.02.04.03.06c.01.04.03.08.04.11.01.03.02.06.03.08.06.15.12.3.19.45.01.03.03.05.04.08v.02s.03.05.04.07h0s0,.02.01.03h0s.02.04.03.06c.03.05.05.1.08.15.01.02.02.04.03.06.09.17.19.34.3.52.02.03.03.06.05.09.02.04.04.07.07.11.07.11.14.21.21.32.02.04.05.07.07.11.04.06.1.14.15.21h0s.05.07.07.11c.03.04.05.07.08.11l.08.11s.05.07.08.11c.19.25.4.5.62.75.39.45.83.9,1.29,1.34.41.12.82.27,1.24.43.97.38,1.93.87,2.86,1.44-.11-.19-.11-.42,0-.62.05-.09.09-.16.13-.23.03-.06.07-.13.12-.21.08-.14.17-.28.25-.41-.52-.73-1.07-1.42-1.65-2.07h0ZM6.49,11.15c-.13.13-.31.2-.48.2s-.35-.07-.48-.2c-.27-.27-.27-.7,0-.97.27-.27.7-.27.97,0,.27.27.27.7,0,.97"/>
          <path class="cls-3" d="M15.46,17.35c-.22.05-.46.09-.7.14.26.45.51.91.75,1.37.12-.95-.01-1.41-.03-1.46l-.02-.04Z"/>
          <path class="cls-3" d="M18.78,21.81c1.9.72,3.79,1.11,5.45,1.15,1.64.03,2.99-.29,3.92-.93-.59-.82-1.62-1.5-3.01-1.97-1.95.79-4.2,1.31-6.53,1.51.05.08.11.16.17.24M26.11,21.66c.05-.37.36-.64.69-.59.16.02.3.12.4.27.09.14.12.32.1.49-.03.2-.13.37-.28.48-.1.08-.22.12-.34.12-.02,0-.05,0-.07,0-.32-.05-.55-.39-.49-.76"/>
          <path class="cls-3" d="M27.93,15.54s-.05,0-.08,0c-.06,0-.13,0-.2,0-.03,0-.07,0-.1,0-.03,0-.06,0-.08,0-.09,0-.17.01-.24.02h-.08c-.06.01-.13.02-.2.03h0s-.07,0-.1.01h0s-.07.01-.1.02c-.03,0-.06,0-.09.01h-.02c-.07.01-.13.03-.21.04-.03,0-.07.01-.11.02-.04,0-.07.01-.11.02-.08.02-.15.03-.22.05l-.11.03s-.07.02-.11.03h-.02s-.06.02-.09.03c-.33.09-.67.19-1.01.3-.13.04-.26.09-.38.13h-.03s-.07.04-.11.05c-2.19.83-4.4,2.22-6.24,3.93.01.03.03.06.04.09.03.06.06.12.09.19.04.08.07.15.11.21.06.11.11.21.17.31,2.25-.18,4.44-.66,6.36-1.39l.1-.04c.31-.12.62-.25.92-.39.07-.03.15-.07.22-.1.14-.07.29-.14.43-.21.21-.11.41-.22.61-.34.1-.06.2-.12.29-.17.25-.16.49-.32.71-.48h.01s.05-.04.07-.06c.03-.02.05-.04.08-.06.03-.02.05-.04.08-.06.03-.02.05-.04.08-.06.08-.06.16-.13.23-.19.08-.07.15-.13.22-.2.04-.04.09-.08.14-.13.04-.04.09-.09.13-.14.02-.02.04-.04.06-.06.02-.02.04-.05.06-.07.01-.02.03-.03.04-.05l.02-.02s.04-.05.06-.07c.02-.02.04-.05.06-.07h0s.02-.03.04-.05c.01-.02.02-.03.03-.04h0s.02-.03.03-.05h0s.03-.05.05-.07c.02-.03.04-.06.06-.09.01-.02.03-.04.04-.05h0s.02-.04.03-.06c.07-.11.14-.22.2-.33.01-.02.02-.04.03-.05.01-.02.02-.04.03-.06-.51-.2-1.12-.3-1.81-.3-.03,0-.06,0-.09,0h0ZM28.08,15.75c.16-.07.33-.06.5.02.16.07.28.21.35.37.14.35,0,.74-.32.87h0c-.07.03-.15.04-.22.04-.26,0-.51-.17-.62-.44-.07-.17-.08-.35-.02-.51.06-.17.18-.3.34-.36"/>
          <path class="cls-3" d="M14.41,11.63s0-.02,0-.02h0s-.04-.1-.06-.14l-.02-.05s-.02-.06-.04-.09c-.02-.05-.04-.09-.06-.14-.08-.18-.16-.36-.25-.53h0s0,0,0-.01c-.09-.18-.17-.34-.25-.5l-.02-.04s-.03-.06-.05-.09v-.03s-.05-.06-.07-.1c-.02-.04-.04-.08-.07-.12-.11-.2-.22-.39-.34-.58-.02-.04-.05-.08-.07-.12l-.02-.03s-.03-.05-.05-.08c-.02-.04-.05-.07-.07-.11-.05-.07-.09-.14-.14-.21-.03-.04-.05-.08-.08-.11-.02-.04-.05-.07-.07-.1-.02-.03-.05-.07-.07-.1-.12-.17-.24-.33-.37-.48-.02-.03-.05-.06-.07-.09h0s-.05-.07-.07-.09c-.02-.03-.05-.06-.07-.08h0s0,0,0,0c-.02-.03-.05-.05-.07-.08-.02-.02-.04-.05-.07-.07-.1-.11-.21-.22-.31-.32-.03-.02-.05-.05-.07-.07-.03-.02-.05-.05-.08-.07l-.02-.02s-.03-.02-.04-.04c-.01-.01-.03-.03-.04-.04h0s-.01-.01-.02-.01h0s-.03-.03-.05-.05l-.02-.02s-.03-.02-.04-.03c-.02-.02-.04-.03-.06-.05h-.02c-.06-.06-.11-.1-.16-.14h-.01s-.04-.04-.06-.05c-.07-.05-.15-.11-.22-.15h0s-.02-.01-.03-.02h0s-.05-.03-.07-.05l-.07-.04s-.03-.02-.05-.03c-.05-.03-.11-.06-.16-.09-.13.47-.19,1-.18,1.59,0,.02,0,.04,0,.06,0,.09,0,.18.01.27,0,.03,0,.05,0,.08,0,.04,0,.09.01.14,0,.03,0,.06,0,.08,0,.05,0,.11.02.17,0,.03,0,.06,0,.09v.09s.02.05.02.08c0,.03,0,.06.01.09,0,.03,0,.06.01.09,0,.03,0,.05.01.08h0c.01.08.02.15.03.2.02.11.04.22.06.34.01.06.03.13.04.19.05.21.1.43.16.66.05.17.09.33.14.48.08.26.16.52.26.79.03.07.05.14.07.2.09.24.18.47.27.71.05.13.11.27.17.39.7.74,1.38,1.56,2.01,2.42.13-.19.26-.37.39-.53.44-.57.88-1.01,1.31-1.31-.15-.48-.32-.97-.5-1.43-.07-.18-.14-.36-.22-.54M11.29,8.41h0c-.08.04-.17.05-.26.05s-.18-.02-.26-.05c-.17-.07-.3-.2-.37-.37-.07-.17-.07-.36,0-.52.07-.17.2-.3.37-.37.35-.14.75.02.9.37.14.35-.02.75-.37.9"/>
          <polyline class="cls-3" points="18.21 13.92 18.21 13.92 18.21 13.92 18.21 13.92"/>
        </g>
      </g>
    </g>
  </g>
  <g id="Dire_line" data-name="Dire line">
    <circle class="cls-2" cx="16.55" cy="16.55" r="16.3"/>
  </g>
</svg>