<?xml version="1.0" encoding="UTF-8"?>
<svg id="Layer_2" data-name="Layer 2" xmlns="http://www.w3.org/2000/svg" version="1.1" xmlns:xlink="http://www.w3.org/1999/xlink" viewBox="0 0 33.1 33.1">
  <defs>
    <style>
      .cls-1 {
        fill: none;
      }

      .cls-1, .cls-2, .cls-3 {
        stroke-width: 0px;
      }

      .cls-4 {
        clip-path: url(#clippath-1);
      }

      .cls-5 {
        clip-path: url(#clippath);
      }

      .cls-2 {
        fill: #49b749;
      }

      .cls-3 {
        fill: #fff;
      }
    </style>
    <clipPath id="clippath">
      <rect class="cls-1" x="1.9" y="1.6" width="29.3" height="29.3"/>
    </clipPath>
    <clipPath id="clippath-1">
      <rect class="cls-1" x="1.9" y="1.6" width="29.3" height="29.3"/>
    </clipPath>
  </defs>
  <g id="Dire_line" data-name="Dire line">
    <circle class="cls-3" cx="16.6" cy="16.2" r="16.3"/>
  </g>
  <g id="Tokens">
    <g id="Northwest">
      <g class="cls-5">
        <g class="cls-4">
          <g>
            <path class="cls-2" d="M4.8,21.9c1.9,1.3,5.4,1.3,9.3,0,.1-.1.3-.3.4-.5-2.3-.2-4.6-.8-6.6-1.6-1.5.5-2.5,1.2-3.2,2.1M6.8,22.1c0,.2-.2.3-.4.3h0c-.1,0-.3,0-.4-.1-.2-.1-.3-.3-.3-.5,0-.2,0-.4.1-.6,0-.1.2-.2.4-.2.3,0,.7.2.7.6,0,.2,0,.4-.1.5"/>
            <path class="cls-2" d="M7.3,26.5c2.3.5,4.1-.5,6.1-2.2-.1-.6,0-1.3.3-1.8-1.4.6-2.9.8-4.3,1-1.3,1.2-2,2.1-2.2,3M9.1,25.3c.2.3.1.8-.1.9,0,0-.2,0-.3,0s0,0-.1,0c-.2,0-.4-.2-.5-.3,0-.2-.1-.3-.1-.5,0-.2.1-.3.3-.4h0c.3-.2.7,0,.9.3"/>
            <path class="cls-2" d="M24.8,15.3s0,0,0,0c0,0,0,0,.1-.1h0s0,0,.1-.1h0s0,0,.1-.1,0,0,.1-.1h0s0,0,.1-.1,0,0,.1-.1,0,0,.1-.1h0c0,0,.1-.1.2-.2h0s0-.1.1-.1,0,0,.1-.1c0,0,0,0,.1-.1s0,0,.1-.1c0,0,0,0,0,0,0,0,0,0,.1-.1,0,0,0,0,0,0h0s0-.1,0-.2c0,0,0,0,0-.1s0,0,0-.1c0,0,0,0,0,0,0,0,.1-.1.2-.2h0s0,0,0,0h0s0,0,0,0c0,0,0,0,0-.1,0,0,0,0,0-.1,0,0,.1-.2.2-.2,0,0,0,0,0-.1,0-.1.2-.2.2-.3,0,0,0,0,0-.1,0,0,0-.2.1-.2,0,0,0,0,0,0h0s0,0,0,0h0s0,0,0-.1c0,0,0,0,0,0h0c0,0,0-.1,0-.1,0,0,0,0,0-.1,0,0,0,0,0,0,0-.2.2-.3.2-.5,0,0,0,0,0,0s0,0,0,0h0s0,0,0,0h0s0,0,0,0c0,0,0-.1,0-.2,0,0,0,0,0,0,0,0,0,0,0,0,0,0,0,0,0,0h0s0,0,0,0h0s0,0,0,0h0s0,0,0,0c0,0,0,0,0,0h0c0,0,0-.1,0-.2,0,0,0,0,0,0h0s0,0,0,0h0v-.2h0s0,0,0,0h-.4s0,0,0,0c0,0,0,0,0,0,0,0,0,0,0,0,0,0,0,0,0,0h0c0,0-.1,0-.2,0,0,0,0,0,0,0,0,0,0,0,0,0h0s0,0,0,0c0,0,0,0,0,0h0s0,0-.1,0h0s0,0,0,0h0s0,0-.1,0,0,0,0,0c0,0,0,0-.1,0-.2,0-.4.2-.5.3,0,0,0,0-.1,0,0,0,0,0-.1,0,0,0,0,0-.1,0s0,0-.1,0c-.1,0-.3.2-.4.3h0c0,0-.2.1-.2.1,0,0,0,0-.1,0,0,0,0,0-.1,0h0s0,0,0,0c0,0,0,0-.1,0s0,0-.1,0,0,0-.1,0c-.1,0-.2.2-.3.3h0c0,0-.1.1-.2.2h0c0,0-.2.1-.2.2,0,0,0,0,0,0h0c0,0,0,.1-.1.1,0,0-.2.1-.2.2,0,0,0,0-.1.1,0,0,0,0-.1.1-.1,0-.2.2-.3.3,0,0-.1.1-.2.2h0s0,0,0,0h0s0,0-.1.1c0,0,0,0-.1.1,0,0-.1.1-.2.2,0,0-.1.2-.2.3h0c0,.1-.2.2-.2.3h0c-1.6,1.8-3,3.9-4,6.1.7-.6,1.4-1.2,2.2-1.7,1.3-.9,2.6-1.6,4-2.1.3,0,.5-.2.8-.3M27.2,9.6c.1-.1.3-.2.5-.2s.4,0,.5.2c.3.3.3.7,0,1-.1.1-.3.2-.5.2s-.4,0-.5-.2c-.3-.3-.3-.7,0-1"/>
            <path class="cls-2" d="M15,18.9c-.3-.5-.6-1.1-.9-1.6-.2,0-.3,0-.5,0h-.3c0,0-.2,0-.2,0h-.1c.1,0,.3.2.4.3.6.4,1.1.8,1.6,1.2"/>
            <path class="cls-2" d="M22.2,12.1c.1-.2.2-.5.3-.7,0,0,0-.1,0-.2,0-.3.2-.6.3-.8,0-.2,0-.3.1-.5,0-.2.1-.5.2-.7,0,0,0-.1,0-.2,0-.1,0-.2,0-.4,0,0,0-.1,0-.2h0s0,0,0,0c0,0,0,0,0,0,0,0,0,0,0,0h0v-.2s0,0,0,0c0,0,0-.1,0-.2h0c0-.1,0-.2,0-.2h0c0-.2,0-.3,0-.4h0c0-.7,0-1.2-.2-1.7,0,0,0,0,0,0,0,0,0,0,0,0,0,0,0,0,0,0h0s0,0,0,0c0,0-.1,0-.2.1,0,0,0,0,0,0,0,0,0,0,0,0h0s0,0,0,0c0,0,0,0,0,0h0s0,0,0,0c0,0-.1,0-.2.1,0,0,0,0,0,0,0,0,0,0,0,0,0,0,0,0,0,0s0,0,0,0h0s0,0,0,0c0,0,0,0,0,0,0,0,0,0,0,0,0,0,0,.1-.2.2,0,0-.1.1-.2.2,0,0-.1.1-.2.2,0,0,0,0,0,0,0,0,0,0,0,.1h0s0,0,0,0c0,0,0,0,0,0h0s0,0,0,0h0c0,0,0,.1,0,.1,0,0,0,.1-.1.2-.1.2-.2.4-.4.6,0,0,0,.2-.1.2,0,.1-.1.2-.2.4,0,0,0,0,0,.1h0c0,.1,0,.2,0,.2h0c-.1.2-.2.4-.3.7,0,0,0,.2-.1.3,0,.1-.1.3-.2.4,0,.1-.1.3-.2.4,0,0,0,.1,0,.2.3.2.4.5.4.9,0,0,0,.2,0,.3,0,0,.1,0,.2.1.3.3.4.7.1,1-.2.3-.5.6-.9.7,0,.4,0,.9-.1,1.3h0c0,0,0,.1,0,.1-.2.2-.4.4-.8.6v.3c0,0-.2.4-.2,1.1,0,.4,0,.8.2,1.2.5-1.1,1.2-2.2,1.9-3.2.8-1.2,1.7-2.2,2.6-3.2,0-.1.1-.3.2-.4M21.8,6.8c0-.2.2-.3.4-.4.2,0,.4,0,.6,0s.3.2.4.4c0,.2,0,.4,0,.6,0,.2-.2.3-.4.4,0,0-.2,0-.3,0s-.2,0-.3,0c-.4-.1-.5-.6-.4-.9"/>
            <path class="cls-2" d="M15.4,6.7c-.3,1.2-.5,2.7-.5,4.2.3.6.5,1.3.7,1.9,0,0,.1,0,.2,0,.4-.2.8-.2,1.1-.2,0-.2.1-.3.1-.5-.4,0-.7-.4-.8-.8,0-.3,0-.5.2-.7s.4-.3.6-.4h.1c.5,0,.9.3,1,.8,0,0,0,.1,0,.2h0c0,0,0-.1,0-.2,0-3.1-.6-5.6-1.6-7-.5.6-1,1.6-1.3,2.7M17.3,5.9c0,.4-.3.7-.7.7s-.7-.3-.7-.7.3-.7.7-.7.7.3.7.7"/>
            <path class="cls-2" d="M8.4,15.8h0c-.1,0-.2,0-.3-.1h0s0,0-.1,0h-.2c0,0-.2-.1-.3-.1h-.1s0,0,0,0c0,0-.2,0-.3,0,0,0,0,0,0,0h0s0,0,0,0c0,0-.2,0-.3,0,0,0,0,0-.1,0,0,0,0,0,0,0h-.1c-.1,0-.2,0-.4,0-.1,0-.3,0-.5,0h-.2c-.8,0-1.5,0-2.1.3h0c0,0,0,.1,0,.1,0,.1.1.2.2.3,0,0,0,0,0,0h0s0,0,0,0c0,0,0,0,0,0,0,0,0,0,0,0h0s0,0,0,0h0s0,0,0,0c0,0,0,0,0,0h0s0,0,0,0,0,0,0,0h0s0,0,0,0c0,0,0,0,0,0s0,0,0,0c0,0,0,0,.1.1,0,0,.1,0,.1.1,0,0,.1.1.2.2,0,0,.2.1.2.2,0,0,0,0,0,0,0,0,0,0,0,0,0,0,0,0,0,0,0,0,0,0,0,0h0c.9.7,2,1.3,3.3,1.8h.2c1.9.8,4.1,1.3,6.3,1.5,0-.2.2-.3.2-.5,0,0,0-.1,0-.2h0c0-.1,0-.2,0-.3,0,0,0,0,0,0-2-1.8-4.5-3.3-6.8-4h0ZM5.2,16.3c-.1.3-.4.5-.6.5s-.2,0-.2,0c-.2,0-.3-.2-.4-.4,0-.2,0-.4,0-.5,0-.2.2-.3.4-.4.2,0,.3,0,.5,0,.2,0,.3.2.4.4,0,.2,0,.4,0,.5"/>
            <path class="cls-2" d="M19.4,22.4c.3.6.5,1.2.3,1.8,2.1,1.7,3.8,2.6,6.1,2.2-.2-.9-.9-1.9-2.2-3-1.3-.2-2.9-.4-4.3-1M24.1,25.2c.2-.3.6-.5.9-.3s.4.6.1.9c-.1.2-.3.3-.5.3,0,0,0,0-.1,0-.1,0-.2,0-.3,0-.3-.2-.4-.6-.1-.9"/>
            <path class="cls-2" d="M11.3,13.4h0c0,0-.1-.2-.2-.3h0c0,0-.1-.1-.2-.2,0,0,0,0,0,0,0,0,0,0-.1-.1,0,0,0,0,0-.1,0,0,0,0-.1-.1h0c0,0,0-.1,0-.1-.3-.3-.5-.5-.8-.7h0c0,0,0-.1-.1-.2-.1,0-.2-.2-.3-.3,0,0,0,0,0,0h0c0,0-.1-.1-.2-.2h0s0,0,0,0c0,0-.1-.1-.2-.2,0,0,0,0-.1,0s0,0-.1,0c0,0,0,0,0,0h0s0,0,0,0c-.2-.2-.5-.3-.7-.4h0s0,0-.1,0c0,0,0,0-.1,0,0,0-.1,0-.2-.1,0,0,0,0,0,0h0s0,0,0,0c0,0,0,0,0,0h0s0,0-.1,0c0,0,0,0-.1,0,0,0,0,0,0,0h0s0,0-.1,0c0,0,0,0-.1,0-.1,0-.3-.1-.4-.2h0s0,0,0,0h0s0,0,0,0h0s0,0,0,0h0s0,0,0,0c0,0,0,0-.1,0,0,0,0,0,0,0,0,0,0,0-.1,0,0,0-.1,0-.2,0h0s0,0,0,0h0s0,0,0,0h0s0,0,0,0h0s0,0,0,0c0,0,0,0,0,0h-.4s0,0,0,0h0s0,0,0,.1h0s0,0,0,0h0s0,0,0,0h0s0,0,0,0c0,0,0,0,0,0,0,.1,0,.2,0,.3,0,0,0,0,0,0,0,0,0,0,0,0,0,0,0,0,0,0h0s0,0,0,0c0,0,0,0,0,.1,0,0,0,0,0,0,0,.2.1.3.2.5,0,0,0,0,0,0h0s0,0,0,0h0s0,0,0,0h0c0,.1,0,.2,0,.2h0c0,.2.2.4.3.6,0,0,0,0,0,0,0,0,0,0,0,.1,0,.1.1.2.2.3,0,0,0,0,0,.1,0,0,.1.1.2.2h0s0,0,0,.1c0,0,0,0,0,.1h0c0,.1,0,.2,0,.2.2.3.4.5.6.8.4.5.9.9,1.4,1.4.4.1.9.3,1.3.4,1,.4,2,.9,3,1.5-.1-.2-.1-.4,0-.6,0,0,0-.2.1-.2,0,0,0-.1.1-.2,0-.1.2-.3.3-.4-.5-.8-1.1-1.5-1.7-2.2h0ZM6,10.6c-.1.1-.3.2-.5.2s-.4,0-.5-.2c-.3-.3-.3-.7,0-1s.7-.3,1,0,.3.7,0,1"/>
            <path class="cls-2" d="M15.4,17.1c-.2,0-.5,0-.7.1.3.5.5,1,.8,1.4.1-1,0-1.5,0-1.5h0s0,0,0,0Z"/>
            <path class="cls-2" d="M18.9,21.7c2,.8,4,1.2,5.7,1.2,1.7,0,3.1-.3,4.1-1-.6-.9-1.7-1.6-3.2-2.1-2,.8-4.4,1.4-6.8,1.6,0,0,.1.2.2.3M26.6,21.6c0-.4.4-.7.7-.6.2,0,.3.1.4.3,0,.1.1.3.1.5,0,.2-.1.4-.3.5-.1,0-.2.1-.4.1h0c-.3,0-.6-.4-.5-.8"/>
            <path class="cls-2" d="M28.5,15.2h-.5c0,0-.2,0-.3,0h0c0,0-.1,0-.2,0h0s0,0-.1,0h0s0,0-.1,0c0,0,0,0,0,0h0c0,0-.1,0-.2,0,0,0,0,0-.1,0,0,0,0,0-.1,0,0,0-.2,0-.2,0h-.1s0,0-.1,0h0s0,0,0,0c-.3,0-.7.2-1.1.3-.1,0-.3,0-.4.1h0s0,0-.1,0c-2.3.9-4.6,2.3-6.5,4.1,0,0,0,0,0,0,0,0,0,.1,0,.2,0,0,0,.2.1.2,0,.1.1.2.2.3,2.4-.2,4.7-.7,6.7-1.5h.1c.3-.2.6-.3,1-.4,0,0,.2,0,.2-.1.1,0,.3-.1.5-.2.2-.1.4-.2.6-.4.1,0,.2-.1.3-.2.3-.2.5-.3.7-.5h0s0,0,0,0c0,0,0,0,0,0,0,0,0,0,0,0,0,0,0,0,0,0,0,0,.2-.1.2-.2,0,0,.2-.1.2-.2,0,0,0,0,.1-.1s0,0,.1-.1h0c0,0,0-.1,0-.1,0,0,0,0,0,0h0s0,0,0,0c0,0,0,0,0,0h0s0,0,0,0c0,0,0,0,0,0h0s0,0,0,0h0s0,0,0,0c0,0,0,0,0,0,0,0,0,0,0,0h0s0,0,0,0c0-.1.1-.2.2-.3,0,0,0,0,0,0,0,0,0,0,0,0-.5-.2-1.2-.3-1.9-.3h0,0ZM28.7,15.4c.2,0,.3,0,.5,0,.2,0,.3.2.4.4.1.4,0,.8-.3.9h0c0,0-.2,0-.2,0-.3,0-.5-.2-.6-.5,0-.2,0-.4,0-.5,0-.2.2-.3.4-.4"/>
            <path class="cls-2" d="M14.3,11.1h0s0-.1,0-.2h0c0,0,0-.1,0-.1,0,0,0,0,0-.1,0-.2-.2-.4-.3-.6h0c0-.2-.2-.4-.3-.5h0s0-.1,0-.1h0s0,0,0-.1c0,0,0,0,0-.1-.1-.2-.2-.4-.4-.6,0,0,0,0,0-.1h0s0,0,0-.1c0,0,0,0,0-.1,0,0,0-.1-.1-.2,0,0,0,0,0-.1,0,0,0,0,0-.1,0,0,0,0,0-.1-.1-.2-.3-.3-.4-.5,0,0,0,0,0,0h0s0,0,0,0c0,0,0,0,0,0h0s0,0,0,0c0,0,0,0,0,0-.1-.1-.2-.2-.3-.3,0,0,0,0,0,0,0,0,0,0,0,0h0s0,0,0,0c0,0,0,0,0,0h0s0,0,0,0h0s0,0,0,0h0s0,0,0,0c0,0,0,0,0,0h0c0,0-.1-.1-.2-.1h0s0,0,0,0c0,0-.2-.1-.2-.2h0s0,0,0,0h0s0,0,0,0h0s0,0,0,0c0,0-.1,0-.2,0-.1.5-.2,1-.2,1.7h0c0,.2,0,.3,0,.3h0c0,.1,0,.2,0,.2h0c0,.1,0,.2,0,.3h0v.2s0,0,0,0,0,0,0,0c0,0,0,0,0,0,0,0,0,0,0,0h0c0,0,0,.2,0,.2,0,.1,0,.2,0,.4,0,0,0,.1,0,.2,0,.2.1.4.2.7,0,.2,0,.3.1.5,0,.3.2.5.3.8,0,0,0,.1,0,.2,0,.3.2.5.3.7,0,.1.1.3.2.4.7.8,1.4,1.6,2.1,2.5.1-.2.3-.4.4-.6.5-.6.9-1.1,1.4-1.4-.2-.5-.3-1-.5-1.5,0-.2-.1-.4-.2-.6M11.1,7.7h0c0,0-.2,0-.3,0s-.2,0-.3,0c-.2,0-.3-.2-.4-.4s0-.4,0-.5c0-.2.2-.3.4-.4.4-.1.8,0,.9.4.1.4,0,.8-.4.9"/>
            <polyline class="cls-3" points="18.3 13.5 18.3 13.5 18.3 13.5 18.3 13.5"/>
          </g>
        </g>
      </g>
    </g>
  </g>
</svg>