<?xml version="1.0" encoding="UTF-8"?>
<svg id="Layer_2" data-name="Layer 2" xmlns="http://www.w3.org/2000/svg" version="1.1" xmlns:xlink="http://www.w3.org/1999/xlink" viewBox="0 0 33.1 33.1">
  <defs>
    <style>
      .cls-1, .cls-2 {
        fill: none;
      }

      .cls-1, .cls-3, .cls-4 {
        stroke-width: 0px;
      }

      .cls-2 {
        stroke: #abbe39;
        stroke-miterlimit: 10;
        stroke-width: 0px;
      }

      .cls-5 {
        clip-path: url(#clippath-1);
      }

      .cls-3 {
        fill: #abbe39;
      }

      .cls-6 {
        clip-path: url(#clippath);
      }

      .cls-4 {
        fill: #fff;
      }
    </style>
    <clipPath id="clippath">
      <rect class="cls-1" x=".2" width="30.4" height="30.4"/>
    </clipPath>
    <clipPath id="clippath-1">
      <rect class="cls-1" x=".2" width="30.4" height="30.4"/>
    </clipPath>
  </defs>
  <g id="Dire_line" data-name="Dire line">
    <circle class="cls-4" cx="16.5" cy="16.5" r="16.3"/>
  </g>
  <g id="Tokens">
    <g id="Punjab">
      <g class="cls-6">
        <g class="cls-5">
          <g>
            <path class="cls-3" d="M20.5,9.9c-3.4,1.2-7.6.3-8.9,0,1.2-.7,2.5-1.2,3.9-1.3v-.9c0-.2.1-.3.3-.3h.9c.2,0,.3.1.3.3v1c1.4.1,2.3.6,3.4,1.3"/>
            <path class="cls-2" d="M20.5,9.9c-3.4,1.2-7.6.3-8.9,0,1.2-.7,2.5-1.2,3.9-1.3v-.9c0-.2.1-.3.3-.3h.9c.2,0,.3.1.3.3v1c1.4.1,2.3.6,3.4,1.3h0Z"/>
            <path class="cls-3" d="M29.9,13.3c-.2-1.8-1.9-2.5-3.5-2.3-1.2.1-2.5,1.5-2.8,1.9-.7-1.2-1.6-1.9-2.8-2.7-3.6,1.5-8.3.2-9.6-.1-2.2,1.4-3.5,3.3-3.9,6,0,.1-.2.2-.3.1-.9-.7-1.4-1.8-2.5-2.7-.4-.4-1.5-.7-2-.8-.1,0-.3,0-.3.2v.8c0,.1,0,.2.2.2.4,0,1.3.4,1.7,1.5.4,1,.8,3.5,1.9,5.1,1.9,2.7,4.9,3.6,7.7,3.9,4.5.4,7.4,0,8.6-.5,1-.4,1.6-1,2-1.6.2.1.6.2,1.1.2s-.8-.3-.7-1.3h0c0-.1,0-.3,0-.4.2-.9.7-1.3,1.5-1.9,3.1-2.6,3.8-3.6,3.5-5.8M22.5,22.7c0,.2-.3.2-.5.2,0,.1-.2.3-.3.3-5.3,2-8.2-3-8.2-3,0,0,1.7-.9,4.3-.3-1.3-2.2-.9-4.7-.9-4.7,0,0,2.2.3,3.9,2.5.5-1.7,1.6-2.9,1.6-2.9,0,0,2.7,2.7.2,7.8M27,17.3c-.8.7-1.5,1.4-2,2,0-.5,0-1,0-1.6,0-1.5-.3-2.9-.9-4.1.4-.5,1.1-1.2,2.5-1.3,1.2-.1,1.9.2,2.2,1.3.5,1.6-.4,2.6-1.7,3.7"/>
            <path class="cls-2" d="M29.9,13.3c-.2-1.8-1.9-2.5-3.5-2.3-1.2.1-2.5,1.5-2.8,1.9-.7-1.2-1.6-1.9-2.8-2.7-3.6,1.5-8.3.2-9.6-.1-2.2,1.4-3.5,3.3-3.9,6,0,.1-.2.2-.3.1-.9-.7-1.4-1.8-2.5-2.7-.4-.4-1.5-.7-2-.8-.1,0-.3,0-.3.2v.8c0,.1,0,.2.2.2.4,0,1.3.4,1.7,1.5.4,1,.8,3.5,1.9,5.1,1.9,2.7,4.9,3.6,7.7,3.9,4.5.4,7.4,0,8.6-.5,1-.4,1.6-1,2-1.6.2.1.6.2,1.1.2s-.8-.3-.7-1.3h0c0-.1,0-.3,0-.4.2-.9.7-1.3,1.5-1.9,3.1-2.6,3.8-3.6,3.5-5.8h0ZM22.5,22.7c0,.2-.3.2-.5.2,0,.1-.2.3-.3.3-5.3,2-8.2-3-8.2-3,0,0,1.7-.9,4.3-.3-1.3-2.2-.9-4.7-.9-4.7,0,0,2.2.3,3.9,2.5.5-1.7,1.6-2.9,1.6-2.9,0,0,2.7,2.7.2,7.8h0ZM27,17.3c-.8.7-1.5,1.4-2,2,0-.5,0-1,0-1.6,0-1.5-.3-2.9-.9-4.1.4-.5,1.1-1.2,2.5-1.3,1.2-.1,1.9.2,2.2,1.3.5,1.6-.4,2.6-1.7,3.7h0Z"/>
          </g>
        </g>
      </g>
    </g>
  </g>
</svg>