<?xml version="1.0" encoding="UTF-8"?>
<svg id="Layer_2" data-name="Layer 2" xmlns="http://www.w3.org/2000/svg" version="1.1" xmlns:xlink="http://www.w3.org/1999/xlink" viewBox="0 0 33.1 33.1">
  <defs>
    <style>
      .cls-1 {
        fill: #753a30;
      }

      .cls-1, .cls-2, .cls-3 {
        stroke-width: 0px;
      }

      .cls-2 {
        fill: none;
      }

      .cls-4 {
        clip-path: url(#clippath-1);
      }

      .cls-5 {
        clip-path: url(#clippath);
      }

      .cls-3 {
        fill: #fff;
      }
    </style>
    <clipPath id="clippath">
      <rect class="cls-2" x="4.7" y="5.6" width="23.7" height="23.7"/>
    </clipPath>
    <clipPath id="clippath-1">
      <rect class="cls-2" x="4.7" y="5.6" width="23.7" height="23.7"/>
    </clipPath>
  </defs>
  <g id="Dire_line" data-name="Dire line">
    <circle class="cls-3" cx="16.5" cy="16.5" r="16.3"/>
  </g>
  <g id="Tokens">
    <g id="South_indian" data-name="South indian">
      <g class="cls-5">
        <g class="cls-4">
          <g>
            <path class="cls-1" d="M24.9,10.9l-1.9-1.9,2.2-2.2c1.2,0,1.8.7,1.9,1.9l-2.2,2.2Z"/>
            <path class="cls-1" d="M22.6,9.5l-9.3,9.3v.9c0,.6.4,1,1,1h.9s9.3-9.3,9.3-9.3c0,0-1.9-1.9-1.9-1.8ZM20.2,15.3l-.2.2c0,0-.1,0-.2,0l-1.5-1.5c0,0,0-.1,0-.2l.2-.2c0,0,.1,0,.2,0l1.5,1.5c0,0,0,.1,0,.2M18.6,17l-.2.2c0,0-.1,0-.2,0l-1.5-1.5c0,0,0-.1,0-.2l.2-.2c0,0,.1,0,.2,0l1.5,1.5c0,0,0,.1,0,.2M17,18.6l-.2.2c0,0-.1,0-.2,0l-1.5-1.5c0,0,0-.1,0-.2l.2-.2c0,0,.1,0,.2,0l1.5,1.5c0,0,0,.1,0,.2M15.4,20.2l-.2.2c0,0-.1,0-.2,0l-1.5-1.5c0,0,0-.1,0-.2l.2-.2c0,0,.1,0,.2,0l1.5,1.5c0,0,0,.1,0,.2M22.1,13.5l-.2.2c0,0-.1,0-.2,0l-1.5-1.5c0,0,0-.1,0-.2l.2-.2c0,0,.1,0,.2,0l1.5,1.5c0,0,0,.1,0,.2M23.8,11.8l-.2.2c0,0-.1,0-.2,0l-1.5-1.5c0,0,0-.1,0-.2l.2-.2c0,0,.1,0,.2,0l1.5,1.5c0,0,0,.1,0,.2"/>
            <path class="cls-1" d="M14.8,21.2s-.7,0-.9,0c-.4,0-.8-.3-.8-.3,0,0-.3-.4-.3-.8v-.9s-4.1-.7-5.7,1-1.2,2.8-.8,3.7,1,1.5,1,1.5l-.6.6.6.6.6.6.6-.6s.7.5,1.6,1c.9.5,2.1.8,3.7-.7,1.6-1.5.9-5.7.9-5.7M10.5,26.2l-2.9-2.9.7-.7,2.9,2.9-.7.7ZM11.2,24.6l-2.1-2.1.8-.8,2.1,2.1-.8.8h0Z"/>
            <path class="cls-1" d="M13.6,17.6c.2.2.1.6-.2.8s-.6.4-.8.2-.1-.6.2-.8.6-.4.8-.2"/>
            <path class="cls-1" d="M15.2,16c.2.2.1.6-.2.8-.3.3-.6.4-.8.2s-.1-.6.2-.8c.3-.3.6-.4.8-.2"/>
            <path class="cls-1" d="M16.9,14.4c.2.2.1.6-.2.8-.3.3-.6.4-.8.2s-.1-.6.2-.8c.3-.3.6-.4.8-.2"/>
            <path class="cls-1" d="M18.5,12.7c.2.2.1.6-.2.8-.3.3-.6.4-.8.2s-.1-.6.2-.8c.3-.3.6-.4.8-.2"/>
            <path class="cls-1" d="M20.3,10.9c.2.2.1.6-.2.8-.3.3-.6.4-.8.2s-.1-.6.2-.8c.3-.3.6-.4.8-.2"/>
            <path class="cls-1" d="M21.9,9.3c.2.2.1.6-.2.8-.3.3-.6.4-.8.2s-.1-.6.2-.8c.3-.3.6-.4.8-.2"/>
            <path class="cls-1" d="M23.7,7.5c.2.2.1.6-.2.8-.3.3-.6.4-.8.2s-.1-.6.2-.8c.3-.3.6-.3.8-.2"/>
            <path class="cls-1" d="M24.9,6.3c.2.2.1.6-.2.8-.3.3-.6.3-.8.2s-.1-.6.2-.8c.3-.3.6-.3.8-.2"/>
            <path class="cls-1" d="M26.4,10.2c.2.2.1.6-.2.8-.3.3-.6.4-.8.2s-.1-.6.2-.8c.3-.3.6-.4.8-.2"/>
            <path class="cls-1" d="M27.6,9c.2.2.1.6-.2.8-.3.3-.6.4-.8.2s-.1-.6.2-.8c.3-.3.6-.4.8-.2"/>
          </g>
        </g>
      </g>
    </g>
  </g>
</svg>