<?xml version="1.0" encoding="UTF-8"?>
<svg id="Layer_2" data-name="Layer 2" xmlns="http://www.w3.org/2000/svg" xmlns:xlink="http://www.w3.org/1999/xlink" viewBox="0 0 33.1 33.1">
  <defs>
    <style>
      .cls-1 {
        fill: #231f20;
      }

      .cls-1, .cls-2, .cls-3 {
        stroke-width: 0px;
      }

      .cls-2, .cls-4 {
        fill: none;
      }

      .cls-5 {
        clip-path: url(#clippath);
      }

      .cls-6 {
        clip-path: url(#clippath-3);
      }

      .cls-4 {
        stroke: #231f20;
        stroke-miterlimit: 10;
        stroke-width: .5px;
      }

      .cls-3 {
        fill: #fff;
      }
    </style>
    <clipPath id="clippath">
      <rect class="cls-2" x="2.2" y="3.33" width="28.69" height="28.69"/>
    </clipPath>
    <clipPath id="clippath-1">
      <rect class="cls-2" x="2.2" y="3.33" width="28.69" height="28.69"/>
    </clipPath>
    <clipPath id="clippath-3">
      <rect class="cls-2" x="2.2" y="3.33" width="28.69" height="28.69"/>
    </clipPath>
  </defs>
  <g id="Tokens">
    <g id="Tirhoot">
      <circle class="cls-1" cx="16.55" cy="16.55" r="16.3"/>
      <g class="cls-5">
        <g class="cls-6">
          <path class="cls-3" d="M23.45,19.11c1.28-.75,1.35-2.48,1.35-2.48-2.08.33-2.74,1.1-2.9,1.75-.08.32-.24.62-.46.86-.41.28-.83.52-1.57.63-1.17.18-3.24.28-3.53.92-.05.12-.47-1.17-.68-2.16-.12-.53-.16-1.06-.18-1.59,0-.3.08-.6.26-.85.62-.86,1.81-1.8,3.91-2,.3-.03.62-.15.92-.33.04,1.11,1.04,2.08,1.04,2.08.95-1.17,1.07-2,.88-2.57.75.27,1.88.25,3.04-1.32,0,0-1.92-.83-3.16-.15.06-1.31-1.42-2.34-1.42-2.34-.62,1.09-.7,1.85-.54,2.39-.52,0-1.2.07-2.07.28,0,0,.58.95,1.79,1.22-.16.06-.33.11-.5.15,0,0,0,0-.02,0-.13.03-1.61.09-2.55.58-.46.24-.94.63-1.31.97-.1.09-.26.03-.26-.1,0-.75-.04-1.42-.29-1.94-.97-2.11-.85-.99-.85-1.92,0-.39.07-.87.17-1.36.47,1.09,2.78,1.11,2.78,1.11-.2-1.47-1.1-1.83-1.84-1.87.82-.78.84-2.67.84-2.67-1.92.17-2.12,1.49-2.06,2.31-.67-.95-2.84-.75-2.84-.75.5,1.92,2.02,1.76,2.7,1.58-.17.36-.32.72-.42,1.03,0,.02-.02.08-.04.14-.04.12-.18.18-.3.13l-.71-.04s-.08,0-.12-.02c-.87-.22-1.53-.48-2.29-.92l-.72-.42c1.06-.36,1.69-1.94,1.69-1.94-1.58-.32-2.26.33-2.55.95-.48-.92-2.21-1.39-2.21-1.39-.3,1.73.81,2.22,1.56,2.35-.92.62-1.01,2.33-1.01,2.33,2.05-.15,2.2-1.41,2.13-2.09l1.09.84s0,0,.02.01c.78.47,1.47.8,2.18.9.65.09,1.22.46,1.55.98.13.21.16.25.17.25.01.04.07.19.26.61.5,1.12-.12,3.14-.05,4.83,0,.12-.1.22-.23.23-.72.03-1.1.1-2.43-1.4-.47-.53-.79-.92-1.04-1.23.6-.31,1.17-1.05.79-2.81,0,0-1.44.51-1.89,1.56-.03-.02-.05-.05-.08-.07-.36-.45-1.11-.83-2.6-.86,0,0,.32,1.84,1.79,2.24-1.03.47-1.68,1.84-1.68,1.84,2.4.61,2.97-.87,3.1-1.5.24.34.48.63.64.77,1.17.95,1.4,2.33,2.92,2.38.51.02.95.32,1.08.77.19.63.43,1.31.66,2,0,0-.01,0,0,.01.03.13.14.09-1.16-.05-.57-.06-1.92-.24-3.2-.15.56-1.08-.63-2.74-.63-2.74-1.31,1.03-1.2,1.96-.84,2.58-.95-.81-3.02-.33-3.02-.33.63,1.4,1.56,1.64,2.3,1.56,0,.03.02.06.05.08-.27.92.07,2.06.07,2.06,1-.39,1.46-.89,1.62-1.38.37.35,1.01.68,2.1.91,0,0,.05-1.36-.88-2.12.85.04,1.61.18,1.84.23.07.01.14.02.2.04.51.08.86.13,1.8.43.07.02.12.07.14.13.17.6.31,1.17.36,1.69.08.68-.79,2.5-1.09,3.1-.05.09.03.2.14.2h1.89c.07,0,.13-.05.15-.11.13-.47.64-2.4.48-3.38-.04-.22-.31-1.27-.86-2.68-.31-.8,1.28-1.16,2.56-1.36.47-.07.84-.19,1.21-.4-.19.57-.13,1.38.55,2.53,0,0,1.38-1.01,1.52-2.25,1.15,1.08,3.19.45,3.19.45-.87-1.47-1.73-1.88-2.42-1.9"/>
        </g>
      </g>
    </g>
  </g>
  <g id="Dire_line" data-name="Dire line">
    <circle class="cls-4" cx="16.55" cy="16.55" r="16.3"/>
  </g>
</svg>