<?xml version="1.0" encoding="UTF-8"?>
<svg id="Layer_2" data-name="Layer 2" xmlns="http://www.w3.org/2000/svg" version="1.1" xmlns:xlink="http://www.w3.org/1999/xlink" viewBox="0 0 33.1 33.1">
  <defs>
    <style>
      .cls-1 {
        fill: #000;
      }

      .cls-1, .cls-2, .cls-3 {
        stroke-width: 0px;
      }

      .cls-2 {
        fill: none;
      }

      .cls-4 {
        clip-path: url(#clippath-1);
      }

      .cls-5 {
        clip-path: url(#clippath);
      }

      .cls-3 {
        fill: #fff;
      }
    </style>
    <clipPath id="clippath">
      <rect class="cls-2" x="2.4" y="2.3" width="30.6" height="30.6"/>
    </clipPath>
    <clipPath id="clippath-1">
      <rect class="cls-2" x="2.4" y="2.3" width="30.6" height="30.6"/>
    </clipPath>
  </defs>
  <g id="Dire_line" data-name="Dire line">
    <circle class="cls-3" cx="16.5" cy="16.5" r="16.3"/>
  </g>
  <g id="Tokens">
    <g id="Tirhoot">
      <g class="cls-5">
        <g class="cls-4">
          <path class="cls-1" d="M25.1,19.1c1.4-.8,1.4-2.6,1.4-2.6-2.2.4-2.9,1.2-3.1,1.9,0,.3-.3.7-.5.9-.4.3-.9.6-1.7.7-1.2.2-3.5.3-3.8,1,0,.1-.5-1.2-.7-2.3-.1-.6-.2-1.1-.2-1.7,0-.3,0-.6.3-.9.7-.9,1.9-1.9,4.2-2.1.3,0,.7-.2,1-.4,0,1.2,1.1,2.2,1.1,2.2,1-1.2,1.1-2.1.9-2.7.8.3,2,.3,3.2-1.4,0,0-2-.9-3.4-.2,0-1.4-1.5-2.5-1.5-2.5-.7,1.2-.7,2-.6,2.5-.6,0-1.3,0-2.2.3,0,0,.6,1,1.9,1.3-.2,0-.4.1-.5.2h0c-.1,0-1.7,0-2.7.6-.5.3-1,.7-1.4,1-.1,0-.3,0-.3-.1,0-.8,0-1.5-.3-2.1-1-2.2-.9-1.1-.9-2s0-.9.2-1.5c.5,1.2,3,1.2,3,1.2-.2-1.6-1.2-2-2-2,.9-.8.9-2.8.9-2.8-2,.2-2.3,1.6-2.2,2.5-.7-1-3-.8-3-.8.5,2,2.2,1.9,2.9,1.7-.2.4-.3.8-.4,1.1,0,0,0,0,0,.1,0,.1-.2.2-.3.1h-.8s0,0-.1,0c-.9-.2-1.6-.5-2.4-1l-.8-.4c1.1-.4,1.8-2.1,1.8-2.1-1.7-.3-2.4.4-2.7,1-.5-1-2.4-1.5-2.4-1.5-.3,1.8.9,2.4,1.7,2.5-1,.7-1.1,2.5-1.1,2.5,2.2-.2,2.3-1.5,2.3-2.2l1.2.9h0c.8.5,1.6.9,2.3,1,.7,0,1.3.5,1.7,1,.1.2.2.3.2.3,0,0,0,.2.3.7.5,1.2-.1,3.3,0,5.2,0,.1-.1.2-.2.2-.8,0-1.2.1-2.6-1.5-.5-.6-.8-1-1.1-1.3.6-.3,1.2-1.1.8-3,0,0-1.5.5-2,1.7,0,0,0,0,0,0-.4-.5-1.2-.9-2.8-.9,0,0,.3,2,1.9,2.4-1.1.5-1.8,2-1.8,2,2.6.7,3.2-.9,3.3-1.6.3.4.5.7.7.8,1.2,1,1.5,2.5,3.1,2.5.5,0,1,.3,1.2.8.2.7.5,1.4.7,2.1,0,0,0,0,0,0,0,.1.1,0-1.2,0-.6,0-2-.3-3.4-.2.6-1.2-.7-2.9-.7-2.9-1.4,1.1-1.3,2.1-.9,2.8-1-.9-3.2-.4-3.2-.4.7,1.5,1.7,1.7,2.5,1.7,0,0,0,0,0,0-.3,1,0,2.2,0,2.2,1.1-.4,1.6-.9,1.7-1.5.4.4,1.1.7,2.2,1,0,0,0-1.5-.9-2.3.9,0,1.7.2,2,.2,0,0,.1,0,.2,0,.5,0,.9.1,1.9.5,0,0,.1,0,.1.1.2.6.3,1.2.4,1.8,0,.7-.8,2.7-1.2,3.3,0,0,0,.2.1.2h2c0,0,.1,0,.2-.1.1-.5.7-2.6.5-3.6,0-.2-.3-1.4-.9-2.9-.3-.9,1.4-1.2,2.7-1.5.5,0,.9-.2,1.3-.4-.2.6-.1,1.5.6,2.7,0,0,1.5-1.1,1.6-2.4,1.2,1.2,3.4.5,3.4.5-.9-1.6-1.8-2-2.6-2"/>
        </g>
      </g>
    </g>
  </g>
</svg>