<?xml version="1.0" encoding="UTF-8"?>
<svg id="Layer_2" data-name="Layer 2" xmlns="http://www.w3.org/2000/svg" xmlns:xlink="http://www.w3.org/1999/xlink" viewBox="0 0 33.1 33.1">
  <defs>
    <style>
      .cls-1 {
        fill: #f16882;
      }

      .cls-1, .cls-2, .cls-3 {
        stroke-width: 0px;
      }

      .cls-4 {
        clip-path: url(#clippath-2);
      }

      .cls-2, .cls-5 {
        fill: none;
      }

      .cls-6 {
        clip-path: url(#clippath);
      }

      .cls-5 {
        stroke: #231f20;
        stroke-miterlimit: 10;
        stroke-width: .5px;
      }

      .cls-3 {
        fill: #fff;
      }
    </style>
    <clipPath id="clippath">
      <rect class="cls-2" x="1.06" y=".25" width="30.99" height="30.99"/>
    </clipPath>
    <clipPath id="clippath-2">
      <rect class="cls-2" x="1.06" y=".25" width="30.99" height="30.99"/>
    </clipPath>
  </defs>
  <g id="Tokens">
    <g id="West_of_Port" data-name="West of Port">
      <circle class="cls-1" cx="16.55" cy="16.55" r="16.3"/>
      <g class="cls-6">
        <polygon class="cls-3" points="14.8 18.14 14.81 18.2 14.81 18.13 14.8 18.14"/>
        <polygon class="cls-3" points="14.81 18.13 14.8 18.14 14.81 18.2 14.81 18.2 14.82 18.2 14.82 18.13 14.81 18.13"/>
        <g class="cls-4">
          <path class="cls-3" d="M29.5,14.31c-1.93,1.57-5.75,1.68-9.19,1.99-.08,0-.16.01-.23.02l-1.65-5.63c-.05-.18-.22-.29-.39-.29-.04,0-.08,0-.12.02-.22.06-.34.29-.28.51l1.6,5.45c-.08,0-.16,0-.24.01-1.32.07-2.72.06-4.19,0-.18,0-.35,0-.53,0l-.02-.07-1.65-5.63c-.05-.18-.22-.29-.39-.29-.04,0-.08,0-.12.02-.22.06-.34.29-.28.51l1.6,5.44c-5.74-.28-7.97-2.28-8.3-4.69,0-1.01.38-1.08,1.32-.14,0-2.33-2.23-1.62-2.79-.11-.56,1.52-.67,4.33.86,6.59,1.84,2.35,4.69,3.44,9.3,3.63l.6,2.04c.19.64.79,1.09,1.45,1.09.14,0,.29-.02.43-.06.39-.11.71-.37.9-.73.19-.36.24-.77.12-1.15l-.33-1.12c.44,0,.87.05,1.34.03.43-.02.9-.01,1.29-.07l.59,2.02c.19.64.79,1.09,1.45,1.09.14,0,.29-.02.43-.06.39-.11.71-.37.9-.73.19-.36.24-.77.12-1.15l-.43-1.47c.5-.24,1.72-.84,1.78-.87,2.98-1.42,3.69-3.17,4.65-5.04,0,0,.54-.54.68-.91.07-.19-.15-.35-.31-.22M14.81,18.13h0v.06h0s-.02-.06-.02-.06h.02ZM17.1,22.89c.2.68-.19,1.4-.87,1.6-.12.04-.24.05-.36.05-.17,0-.34-.04-.5-.1-.03-.01-.06-.03-.09-.04-.03-.02-.06-.03-.09-.05-.01,0-.03-.02-.04-.03-.07-.05-.14-.1-.2-.16-.02-.02-.05-.05-.07-.08-.02-.03-.04-.05-.06-.08-.02-.03-.04-.06-.06-.09-.01-.02-.03-.05-.04-.07-.01-.02-.02-.05-.03-.07-.02-.05-.04-.1-.05-.15l-.58-1.96-.07-.23-.41-1.41c-.13-.46,0-.93.3-1.25.06-.06.12-.12.19-.17l.07.25c.02.06.04.11.08.15,0,0,.01.02.02.02.08.08.18.12.29.12.04,0,.08,0,.12-.02.22-.06.34-.29.28-.51l-.07-.25c.08,0,.17.02.25.04.07.02.13.04.2.07.03.01.06.03.09.04.03.02.06.03.09.05.01,0,.03.02.04.03.07.05.14.1.2.16.06.06.11.13.16.2.02.02.03.05.04.07.01.02.02.04.03.06.02.03.03.06.04.1.01.03.02.07.03.1l.4,1.38.65,2.22ZM20.63,18.13h0v.06h0s-.02-.06-.02-.06h.02ZM22.91,22.89c.2.68-.19,1.4-.87,1.6-.12.04-.24.05-.36.05-.17,0-.34-.04-.5-.1-.03-.01-.06-.03-.09-.04-.03-.02-.06-.03-.09-.05-.01,0-.03-.02-.04-.03-.07-.05-.14-.1-.2-.16-.02-.02-.05-.05-.07-.08-.02-.03-.04-.05-.06-.08-.02-.03-.04-.06-.06-.09-.01-.02-.03-.05-.04-.07-.01-.02-.02-.05-.03-.07-.02-.05-.04-.1-.05-.15l-.64-2.19-.41-1.41c-.13-.46,0-.93.3-1.25.06-.06.12-.12.19-.17l.07.25c.02.06.04.11.08.15,0,0,.01.02.02.02.08.08.18.12.29.12.04,0,.08,0,.12-.02.22-.06.34-.29.28-.51l-.07-.25c.08,0,.17.02.25.04.07.02.13.04.2.07.03.01.06.03.09.04.03.02.06.03.09.05.01,0,.03.02.04.03.07.05.14.1.2.16.06.06.11.13.16.2.02.02.03.05.04.07.01.02.02.04.03.06.02.03.03.06.04.1.01.03.02.07.03.1l.4,1.38.23.78.42,1.44Z"/>
        </g>
      </g>
    </g>
  </g>
  <g id="Dire_line" data-name="Dire line">
    <circle class="cls-5" cx="16.55" cy="16.55" r="16.3"/>
  </g>
</svg>