<?xml version="1.0" encoding="UTF-8"?>
<svg id="Layer_2" data-name="Layer 2" xmlns="http://www.w3.org/2000/svg" version="1.1" xmlns:xlink="http://www.w3.org/1999/xlink" viewBox="0 0 33.1 33.1">
  <defs>
    <style>
      .cls-1 {
        fill: none;
      }

      .cls-1, .cls-2, .cls-3 {
        stroke-width: 0px;
      }

      .cls-4 {
        clip-path: url(#clippath-1);
      }

      .cls-2 {
        fill: #f16983;
      }

      .cls-5 {
        clip-path: url(#clippath);
      }

      .cls-3 {
        fill: #fff;
      }
    </style>
    <clipPath id="clippath">
      <rect class="cls-1" x=".6" y=".2" width="31.9" height="31.9"/>
    </clipPath>
    <clipPath id="clippath-1">
      <rect class="cls-1" x=".6" y=".2" width="31.9" height="31.9"/>
    </clipPath>
  </defs>
  <g id="Dire_line" data-name="Dire line">
    <circle class="cls-3" cx="16.5" cy="16.5" r="16.3"/>
  </g>
  <g id="Tokens">
    <g id="West_of_Port" data-name="West of Port">
      <g class="cls-5">
        <g>
          <polygon class="cls-2" points="14.7 18.7 14.8 18.7 14.8 18.7 14.7 18.7"/>
          <polygon class="cls-2" points="14.8 18.7 14.7 18.7 14.8 18.7 14.8 18.7 14.8 18.7 14.8 18.7 14.8 18.7"/>
          <g class="cls-4">
            <path class="cls-2" d="M29.9,14.7c-2,1.6-5.9,1.7-9.5,2,0,0-.2,0-.2,0l-1.7-5.8c0-.2-.2-.3-.4-.3s0,0-.1,0c-.2,0-.4.3-.3.5l1.6,5.6c0,0-.2,0-.2,0-1.4,0-2.8,0-4.3,0h-.6c0,0-1.7-5.9-1.7-5.9,0-.2-.2-.3-.4-.3s0,0-.1,0c-.2,0-.4.3-.3.5l1.6,5.6c-5.9-.3-8.2-2.3-8.5-4.8,0-1,.4-1.1,1.4-.1,0-2.4-2.3-1.7-2.9-.1-.6,1.6-.7,4.5.9,6.8,1.9,2.4,4.8,3.5,9.6,3.7l.6,2.1c.2.7.8,1.1,1.5,1.1s.3,0,.4,0c.4-.1.7-.4.9-.8.2-.4.2-.8.1-1.2l-.3-1.2c.5,0,.9,0,1.4,0,.4,0,.9,0,1.3,0l.6,2.1c.2.7.8,1.1,1.5,1.1s.3,0,.4,0c.4-.1.7-.4.9-.8.2-.4.2-.8.1-1.2l-.4-1.5c.5-.2,1.8-.9,1.8-.9,3.1-1.5,3.8-3.3,4.8-5.2,0,0,.6-.6.7-.9,0-.2-.2-.4-.3-.2M14.8,18.7h0c0,0,0,0,0,0h0ZM17.1,23.6c.2.7-.2,1.4-.9,1.6-.1,0-.2,0-.4,0-.2,0-.4,0-.5-.1,0,0,0,0,0,0,0,0,0,0,0,0,0,0,0,0,0,0,0,0-.1-.1-.2-.2s0,0,0,0c0,0,0,0,0,0s0,0,0,0c0,0,0,0,0,0s0,0,0,0c0,0,0-.1,0-.2l-.6-2v-.2c0,0-.5-1.5-.5-1.5-.1-.5,0-1,.3-1.3,0,0,.1-.1.2-.2v.3c0,0,.1.1.2.2,0,0,0,0,0,0,0,0,.2.1.3.1s0,0,.1,0c.2,0,.4-.3.3-.5v-.3s.1,0,.2,0c0,0,.1,0,.2,0,0,0,0,0,0,0,0,0,0,0,0,0,0,0,0,0,0,0,0,0,.1.1.2.2,0,0,.1.1.2.2,0,0,0,0,0,0h0c0,0,0,.1,0,.2,0,0,0,0,0,.1l.4,1.4.7,2.3h0ZM20.8,18.7h0c0,0,0,0,0,0h0ZM23.1,23.6c.2.7-.2,1.4-.9,1.6-.1,0-.2,0-.4,0-.2,0-.4,0-.5-.1,0,0,0,0,0,0,0,0,0,0,0,0,0,0,0,0,0,0,0,0-.1-.1-.2-.2,0,0,0,0,0,0s0,0,0,0c0,0,0,0,0,0,0,0,0,0,0,0s0,0,0,0c0,0,0-.1,0-.2l-.7-2.3-.4-1.5c-.1-.5,0-1,.3-1.3,0,0,.1-.1.2-.2v.3c0,0,.1.1.2.2,0,0,0,0,0,0,0,0,.2.1.3.1s0,0,.1,0c.2,0,.4-.3.3-.5v-.3s.1,0,.2,0c0,0,.1,0,.2,0,0,0,0,0,0,0,0,0,0,0,0,0,0,0,0,0,0,0,0,0,.1.1.2.2,0,0,.1.1.2.2,0,0,0,0,0,0s0,0,0,0c0,0,0,0,0,.1,0,0,0,0,0,.1l.4,1.4.2.8.4,1.5h0Z"/>
          </g>
        </g>
      </g>
    </g>
  </g>
</svg>