<svg id="art" xmlns="http://www.w3.org/2000/svg" xmlns:xlink="http://www.w3.org/1999/xlink" viewBox="0 0 34.02 34.02"><defs><style>.cls-1{fill:none;}.cls-2{clip-path:url(#clip-path);}.cls-3{fill:#f05f72;}.cls-4{fill:#fff;}</style><clipPath id="clip-path"><circle class="cls-1" cx="17.01" cy="17.01" r="16.67"/></clipPath></defs><g class="cls-2"><path class="cls-3" d="M37.84,17A20.84,20.84,0,1,1,17-3.83,20.84,20.84,0,0,1,37.84,17Z"/><path class="cls-3" d="M28.25,17A11.25,11.25,0,1,1,17,5.76,11.24,11.24,0,0,1,28.25,17Z"/><path class="cls-4" d="M9.38,9.13l3,13.42a2.56,2.56,0,0,0,.47,1v.12H9.68v-.14a1.18,1.18,0,0,0,.21-1l-.51-2h-2l-.58,2.14a1.46,1.46,0,0,0,0,.29,1.36,1.36,0,0,0,.21.64v.14h-3v-.1a2,2,0,0,0,.39-.74L7.5,10.2l0-.19a.94.94,0,0,0-.1-.43,1,1,0,0,0-.23-.31V9.13ZM7.75,18.51H9l-.62-3.08Z"/><path class="cls-4" d="M11.31,9.27h2.82v.17A1,1,0,0,0,14,10a1.56,1.56,0,0,0,.06.41l1.24,5.87,1.56-7h1.42l1.42,7,1.36-5.7a2.32,2.32,0,0,0,.1-.62,1,1,0,0,0-.1-.47V9.27h2.78V9.4a2.91,2.91,0,0,0-.37.86L20.6,23.68H19.16l-1.71-8.15L15.7,23.68H14.22L11.69,10.47a3,3,0,0,0-.38-1.05Z"/><path class="cls-4" d="M25.2,21.48a1.89,1.89,0,0,0,1.26.41,1.41,1.41,0,0,0,1.1-.5A2.1,2.1,0,0,0,28,20a3.41,3.41,0,0,0-.51-1.68,10.13,10.13,0,0,0-1.53-2,7.53,7.53,0,0,1-1.4-2,5.15,5.15,0,0,1-.45-2.13,2.83,2.83,0,0,1,1-2.25,3.73,3.73,0,0,1,2.55-.84,6.23,6.23,0,0,1,1.23.1,2.08,2.08,0,0,1,.66.21l.08,2.84h-.16a3.22,3.22,0,0,0-.76-.81,1.71,1.71,0,0,0-1.05-.36.86.86,0,0,0-.7.33,1.27,1.27,0,0,0-.27.8,3,3,0,0,0,.93,2.06,12.84,12.84,0,0,1,2.12,2.87,6.08,6.08,0,0,1,.7,2.76,3.88,3.88,0,0,1-1,2.82,3.65,3.65,0,0,1-2.75,1.07,4.27,4.27,0,0,1-1.51-.22,2,2,0,0,1-.82-.5l-.06-2.78h.17A3.23,3.23,0,0,0,25.2,21.48Z"/></g></svg>