<svg id="art" xmlns="http://www.w3.org/2000/svg" xmlns:xlink="http://www.w3.org/1999/xlink" viewBox="0 0 34.02 34.02"><defs><style>.cls-1{fill:none;}.cls-2{fill:#ec1c24;}.cls-2,.cls-3,.cls-4,.cls-5,.cls-6,.cls-7{fill-rule:evenodd;}.cls-3{fill:#f8f8f8;}.cls-4{fill:#fafafa;}.cls-5{fill:#ebebeb;}.cls-6{fill:#f0f0f0;}.cls-7{fill:#e6e6e6;}.cls-8{clip-path:url(#clip-path);}</style><clipPath id="clip-path"><circle class="cls-1" cx="17.01" cy="17.01" r="16.67"/></clipPath><symbol id="New_Symbol" data-name="New Symbol" viewBox="0 0 45.32 45.32"><path class="cls-2" d="M22.66,0A22.66,22.66,0,1,1,0,22.66,22.66,22.66,0,0,1,22.66,0"/><path class="cls-3" d="M20.63,33.42c.57-.57-.47-1.12-.89-.54s.19,1.08.59,1.27a5.36,5.36,0,0,0,1.71.33c.61.07.82.38,1.63.46,2.53.25,6.43-1.32,7-3.44.29-1.13.09-.6.69-1.4,1.51-2,1.69-3.49,2.39-5.88.15-.52.35-1.09.48-1.56.23-.79.53-1.25.58-1.53L33,21.84c.2.4,1,.42.65,1.87-.12.58-.37,1.4-.54,1.94l0-.06a11.44,11.44,0,0,1-.57-1.68c-.25-.86-.55-1.06-.14-1.82a13.3,13.3,0,0,0-1.71.61l.07,0,.13.07c.6.3.53.54.89,1.68.2.62.55,1.53.69,2.17.3,1.37-1.06,3.24-1.66,3.83-.36-.23-.37-.59-1.14-.69a5,5,0,0,0-2.82.57,3.71,3.71,0,0,1-1.19.56c-1.78.3-3.76,1.11-3.6,3.1a2.09,2.09,0,0,1-1.36-.61m5.64-2.54c.66-.45,3-1.43,3.3,0,.18.78-.49,1-1,1.27a5.26,5.26,0,0,1-1.68.69c.26-.9.75-1.3-.43-1.87C26.28,30.91,26.41,31,26.27,30.88Zm-4,3.18c-.33-1.22,1.55-2.47,2.75-2.44-.6,1.44.23,1.38.58,1.67C25,33.72,23.22,34.53,22.23,34.06Zm.59.44c1.45-.38,2.16-.21,3.45-1.11.46-.32,1.47-.45,2.39-1a8.31,8.31,0,0,1,.8-.45,4.29,4.29,0,0,1-2.54,2.25C26.08,34.51,23.65,35.12,22.82,34.5Zm2.49-2.85c.56-.42,1.65.75.75,1.28C25.34,33.36,24.59,32.2,25.31,31.65Z"/><path class="cls-4" d="M28.37,23.41l.13.06c.73.31.47.53.46,2.36a18.92,18.92,0,0,1-.13,2.92,12.82,12.82,0,0,0,1.47-.35l-.47-.23c0-.51-.16-4.39.12-4.9.12-.23.17-.29.49-.25.57.95-.45,4.54.7,4.88a.79.79,0,0,0,1.07-.75c-1.27.86-.39-1.76-.84-3.45-.4-1.5-1.22-.85-1.63-.72l-1.37.43"/><path class="cls-3" d="M26.15,24.82c-.11-1.2,1.34-.63,1.16.41,0,.21-.49.63-.61.75a5.08,5.08,0,0,0-.69.7c-1.28,1.62.3,4.25,1.13,2.49.36.08-.27-.17.08.08s.49.05.89-.21c-.31-1.43.2-3.34-.53-4.55-1.17-1.92-3.1,1.5-1.26,1.28a1.45,1.45,0,0,0,.34-.78l-.07,0-.19,0c-.2-.07-.07,0-.25-.1m.59,4.46c-.25-.25-.22-.48-.23-.93a10.66,10.66,0,0,1,0-1.13,2.49,2.49,0,0,1,.2-.93,1.13,1.13,0,0,1,.53-.55C27.29,26.73,27.54,28.85,26.74,29.28Z"/><path class="cls-4" d="M21.89,24.26c.64.43.47.44.47,1.38A45.8,45.8,0,0,1,22.27,31c1.35-.31,1-.49,1-.69.7.38,1,.15,1.34-.64a5.61,5.61,0,0,0-.08-4.15c-.62-1.22-1.36-.28-1.36-.27l-.08-3.29c-.19.36-.18,1.07-.35,1.45s-.55.57-.88.87M23.22,27c0-.9-.2-1.46.42-1.87.52.18.42.53.42,1.18l0,3.53c-.09.49-.79.94-.82-.77Z"/><path class="cls-4" d="M19.92,24.94c.13.07.15,0,.25.16.3.32.19,1.64.19,2.24a27.12,27.12,0,0,1,0,4.33l1.13-.38a5.26,5.26,0,0,1-.12-1c0-1.24,0-7.47-.15-7.71-.32.68-.14,1.9-1.57,2.2l.29.18"/><path class="cls-4" d="M17.93,29.24c-.05-.25.14-.15-.16-.24l-1.38.49.48-4h-.13a24.12,24.12,0,0,0-.36,2.61,9,9,0,0,1-.18,1.28c-.1.33-.5.45-.73.62-2,1.37-3.47,0-3.29-1.36.27-2,3-1.82,2.68.16-.15.86-1.38,1.07-1.64.38-.15-.39,0-.91.38-1s.39,0,.41.26c0,.43,0,.06-.25.41l.42-.07c.37-1.35-1.68-.94-1.21.44.23.67,1.23.67,1.73.25a1.5,1.5,0,0,0-1.63-2.41,2,2,0,0,0-.52,3.18c1.54,1.39,3.12-.27,3.57-.38a8.93,8.93,0,0,1-1.07,3.65,4,4,0,0,0,.81-.21c.14-.05.26-.08.37-.13l.28-.17c-.16-.35-.25-.19-.31-.71a6.84,6.84,0,0,1,0-2c.06-.47,0-.54.39-.71A1.32,1.32,0,0,0,16.73,31c.65.92.24.26.33,1.13A.91.91,0,0,0,17.23,31l.45-.28a1.13,1.13,0,0,0-.08-.63c-.12.07-.47.68-.62.26-.23-.63.21-1.17.95-1.09m-1.19-3.73h.13a21.41,21.41,0,0,1,.9,3.5c.3.09.11,0,.16.24,0,1,1,2.26.09,3.16-.24.23-.13-.08-.22.28.26-.06,1.07-.44,1.44-.6l.23-.12a.42.42,0,0,0,.16-.12c-.49-1.35-.81-2.95-1.21-4.4-.55-2.06-.61-2.61-1-4.61-.22.38-.17.94-.4,1.35C16.57,24.94,16.78,24.18,16.74,25.51Z"/><path class="cls-5" d="M29.37,20c-1.48.07-1.41,2.44.22,1.67.2-.1.56-.2.69-.28l-.51,0a18,18,0,0,1,0-2.32c-.56.29-.34.25-.36.95m-.06.16a3,3,0,0,1,.09,1c0,.47-.08.53-.55.52a1.48,1.48,0,0,1,0-1.31C29.07,20.14,29,20.21,29.31,20.2Z"/><path class="cls-6" d="M26.37,21.07V22.8l.41-.1c0-.82-.31-1.87.58-1.72a2.18,2.18,0,0,1,0,1.49l.49-.11c0-1.61-.25-1.72-1.06-1.41l-.38.12"/><path class="cls-7" d="M24.59,22.13c.6-.1,0-.48.68-.42l.07.42s-1.43.46-.79,1.08c.3.29.91,0,1.28-.26-.23-.34,0-1.11-.29-1.34s-1.12.11-.95.52m.25,1c-.14-.42.07-.72.5-.68C25.39,23,25.45,23.19,24.84,23.09Z"/><path class="cls-3" d="M33.53,19h.18c1.23-1.46-.43-3.22-1.62-2.1-.5.48-.42,1.54.32,1.66A.73.73,0,0,0,33,17.21c-.38,0-.63.16-.57.54.34-.13,0-.29.55-.28.2.61,0,.88-.69.83a.89.89,0,0,1,.86-1.52c1,.21.8,1.37.36,2.17m.18,0h-.18c-.2.05-1.27.81-2-.22-.81-1.19.18-3-.34-5.19-.22-.95-.8-1.45-1.53-.64-.14-.19-.08-.31-.18-.51-.51.84-.59.43-1.27.75.15.07.15,0,.23.06.25.1.17,0,.3.2,0,1,0,2-.05,3a13.43,13.43,0,0,1,0,1.43c-.11.73-.41.49-.66.9l1.81-.67-.38-.22.09-4.2c.06-.44.23-.82.72-.77.38.6-.17,3.81.3,5S32.46,20.22,33.71,19Z"/><path class="cls-3" d="M26.32,13.74a3.68,3.68,0,0,0-1.06,3c0,.89.42,3,1.56,2.43.92-.45,1.36-3.15.72-4.8-.14-.36-.39-.78-.83-.78s-.33.12-.39.17M26.22,15c0-.44-.11-1.06.27-1.17.55-.16.49.51.48.91,0,.95-.06,1.89-.06,2.85,0,.33.11,1.15-.18,1.33-.56.37-.58-.44-.58-.81Z"/><path class="cls-3" d="M18.71,14.86l.15-.09-.11-.09c-.81-.56-1.22-1.16-.61-2.21a1.32,1.32,0,0,1,2.25,0c.58,1.13-.77,2.13-1.56,1.47-1.13-1,1.28-2.24.83-.52l-.42,0c-.09-.35,0-.1.08-.43-.32,0-.24,0-.39.21.14.67,1.09.65,1-.46-1.13-1.11-2.29.7-1.27,1.39a1.37,1.37,0,0,0,2-1.6,1.58,1.58,0,0,0-2.64-.37,1.64,1.64,0,0,0,.63,2.71m.15-.09-.15.09c.74.42,2,.06,2.84-.27,1.28-.49,1.83-.91,1.87,1,0,.93-.07,2.75.06,3.58.19,1.13,2,.85,1.56-.73-.18.35-.16.61-.65.56-.29-.46-.21-3.36-.17-4.19.09-1.59,1.25-1.54,2.27-2.15-.3-.21-1.33.43-2.13.6v-2c-.71,1.32.36,2.1-3.47,3.38A4,4,0,0,1,18.86,14.77Z"/><path class="cls-3" d="M21.74,19.34c-1.09-.07-.69-.15-1.23-.68a6.47,6.47,0,0,1-.05,1.75c-.1.41-.47,1-.49,1.21.54-.71,1.71-.52,2.14-.69a2,2,0,0,0-.43-3.6c-1.1-.51-.8-1.77.19-1.49.18.64.06.48-.39.66,0,.59.25.65.82.64.28-.32.61-.61.16-1.2a1,1,0,0,0-1.3-.27A1.49,1.49,0,0,0,21,18.14c.51.42,1.88.91,1.54,2-.1.34-.61.93-1,.47s.11-1,.27-1.3"/><path class="cls-3" d="M18.55,16.6c-1.74,1.12-1.24,6.1.26,5.44.67-.29,1.11-2,1.08-3,0-.81-.56-3-1.34-2.47m.05,5.31c-.57-.29-.32-1.89-.31-2.58s-.23-2.26.4-2.61c.46.2.38.59.38,1.15s0,1,0,1.46C19,20,19.22,21.69,18.6,21.91Z"/><path class="cls-4" d="M11.55,15.68c0,.24-.07,0,.38.36a13,13,0,0,1,0,2c-.61.37-1.25.56-1.17,1.43.45.29.55.22,1.15.23l0,.74a4.7,4.7,0,0,0-1.21,1.05A3.85,3.85,0,0,0,10,23a2.5,2.5,0,0,0,.3,1.82c1.53,2.43,7.22-1,6.26-4.8a3,3,0,0,0-1.51-1.9c.09-.37.7-.65,1-1.79.54-2-1.44-2.78-2.87-1.85-.6.39-.77.87-1.67,1.23m3,2.14a8,8,0,0,0-1.63-.1,14.61,14.61,0,0,1,0-2.19c.06-.64.5-1.19,1.2-1C15.39,14.8,14.88,17,14.56,17.82Zm-1.63,1.36a2.6,2.6,0,0,1,0-1.12,2.24,2.24,0,0,1,1.36,0C14.26,18.53,13.43,18.92,12.93,19.18ZM12,18.39l0,1.05c-.41,0-1.13.12-.9-.42A1.32,1.32,0,0,1,12,18.39Zm.93,1a10.15,10.15,0,0,0,1.8-1l.3.36c1.11,1.95.29,5.27-1.74,6.34-1.28.67-2.86.2-3-1.16S11,21,11.93,20.79c.06.7,0,1.59,0,2.3,0,1.26-.62,1-.85,1.51l2.76-1c-.21-.13-.78,0-.91-.34l0-2.73c.86-.12,1.2.59.8,1-.25.28-.5,0-.55.5-.1,1,1.68.51,1.12-1-.24-.65-.6-.82-1.37-.85Z"/></symbol></defs><g class="cls-8"><use width="45.32" height="45.32" transform="translate(-3.49 -3.49) scale(0.9)" xlink:href="#New_Symbol"/></g></svg>