<svg xmlns="http://www.w3.org/2000/svg" viewBox="0 0 34.02 34.02" xmlns:v="https://vecta.io/nano"><defs><clipPath id="A"><path d="M34,17C33.63,39.37.38,39.36,0,17,.38-5.35,33.64-5.35,34,17Z" fill="none"/></clipPath><clipPath id="B"><path d="M34,56.39c-.39,22.35-33.64,22.35-34,0C.38,34,33.64,34,34,56.39Z" fill="none"/></clipPath></defs><g clip-path="url(#A)" fill-rule="evenodd"><path d="M17-9c34.18.58,34.18,51.44,0,52-34.19-.59-34.18-51.44,0-52" fill="#ed1c24"/><path d="M14.68 29.35c.77-1.87-2.75-.42-.35.84 1.38.41 2.34.44 3.84.91 2.9.28 7.38-1.51 8-3.94.33-1.3.1-.7.79-1.61 2.31-2.95 2.48-7 4-10.3l-2.08.82c1.29.66.65 2.95.11 4.37-.38-1.23-1.43-2.89-.86-4.09a16.62 16.62 0 0 0-2 .7c1.27.47 1.48 3.2 2 4.54.35 1.58-1.22 3.72-1.91 4.4-1.5-1.83-4.19-.21-5.91.51-2 .34-4.31 1.27-4.13 3.56a2.38 2.38 0 0 1-1.56-.71m6.47-2.91c4-2.5 5.6 1.29.74 2.28.53-1.14.71-1.67-.68-2.28zm-4.57 3.66c-.38-1.41 1.78-2.85 3.15-2.81-.68 1.65.27 1.58.66 1.92-.65.49-2.68 1.43-3.81.89zm.67.5c2.85-.47 4.84-1.55 7.62-2.9-.92 2.46-5.23 3.82-7.62 2.9zm2.86-3.27c.64-.48 1.89.85.86 1.46-.82.5-1.68-.79-.86-1.46z" fill="#f8f8f8"/><path d="M23.56,17.87c1.43.31.49,4.56.53,6.12a15.35,15.35,0,0,0,1.69-.39l-.54-.27c.14-.74-.72-6,.7-5.91.65,1.09-.51,5.21.81,5.6A.9.9,0,0,0,28,22.16c-1.87,1.64.51-6.84-2.83-4.79l-1.58.5" fill="#fafafa"/><path d="M21 19.48c.22-2.06 2.39.44.63 1.34-2.27 1.06-1.06 6.12.51 3.66.41.09-.3-.2.09.1s.57.05 1-.25c.42-10.37-4.92-3.86-2.05-3.75a1.75 1.75 0 0 0 .39-.9c-.24-.1-.39 0-.59-.2m.68 5.13c-.49-1-.51-3.39.61-4.07.05 1.13.34 3.57-.58 4.07z" fill="#f8f8f8"/><g fill="#fafafa"><path d="M16.12 18.85c1.17.61.43 6.73.44 7.71 1.55-.36 1.12-.56 1.18-.8 2.86 1.49 2.4-8.11-.12-5.8l-.08-3.78c-.25 1-.38 2.2-1.42 2.67M17.65 22c0-1-.23-1.67.49-2.14 1 .36.25 4.5.49 5.4-1.02 2.15-1.01-2.59-.98-3.26zm-3.78-2.38c.78.28.45 1.92.5 2.76a31.62 31.62 0 0 1 0 5l1.29-.44c-.3-1.72-.08-9.21-.31-10-.36.78-.16 2.17-1.8 2.52l.34.2m-2.31 4.9c-.06-.29.16-.17-.18-.28l-1.59.57.55-4.58h-.15c-.32 1.37-.33 3.08-.61 4.48-1.6 2.16-5.06 1.4-4.6-.86s3.49-2.08 3.08.18c-.18 1-1.59 1.23-1.89.44s.63-1.67.91-.81c0 .49 0 .07-.29.47l.49-.08c.42-1.55-1.93-1.08-1.39.51.26.77 1.4.77 2 .28A1.72 1.72 0 0 0 6 22.12a2.28 2.28 0 0 0-.61 3.65c1.78 1.59 3.58-.32 4.1-.44a10.24 10.24 0 0 1-1.23 4.19 4.56 4.56 0 0 0 1.74-.59c-.57-.78-.72-3.32.12-3.89a1.54 1.54 0 0 0 .13 1.57c.75 1 .27.3.38 1.29a1.06 1.06 0 0 0 .2-1.34l.52-.32a1.49 1.49 0 0 0-.1-.73c-1.12 1.41-1-1.34.38-1m-1.37-4.29h.15a23.3 23.3 0 0 1 1 4c.34.11.12 0 .18.28.09 1.41 1.18 2.75-.15 3.94a9.75 9.75 0 0 0 2.1-1A84.7 84.7 0 0 1 11 17.2c-.26.43-.2 1.09-.47 1.55-.53.88-.27 0-.32 1.52z"/></g><path d="M24.71 14c-2.35.64-1 3.08 1 1.59h-.58a21.47 21.47 0 0 1-.05-2.66c-.64.34-.38.29-.41 1.09m-.07.18c.09.5.46 1.92-.53 1.73-.15-.42-.29-1.85.57-1.75z" fill="#ebebeb"/><path d="M21.26,15.18v2l.46-.11c0-.94-.35-2.15.67-2a2.46,2.46,0,0,1,0,1.71l.57-.13c.06-2.21-.51-1.87-1.66-1.48" fill="#f0f0f0"/><path d="M19.22 16.4c.69-.12 0-.55.79-.48l.08.48c-1.58.3-1.33 2.16.56 1-.26-.4 0-1.28-.34-1.55s-1.28.12-1.09.6m.29 1.1c-.16-.48.08-.82.57-.78.07.57.13.85-.57.73z" fill="#e6e6e6"/><g fill="#f8f8f8"><path d="M29.49 12.75h.2c1.41-1.67-.49-3.7-1.86-2.41-1.75 2.08 2.6 2.69 1.07.4-.44 0-.72.18-.66.62.4-.15 0-.33.64-.32.23.7 0 1-.8.95-1.54-2.61 3.37-2.23 1.41.75m.2 0c-5.58 2.65-.38-9.5-4.62-6.95-.16-.22-.08-.36-.2-.59-.58 1-.67.49-1.45.86 1.24.2.32 2.73.54 3.76.05 1 .08 2.2-.8 2.67l2.07-.78-.43-.24c.3-.76-.61-5.89.93-5.71.44.69-.19 4.38.35 5.7s2.17 2.74 3.61 1.3zm-8.48-5.97c-1.62 1.06-1.9 6.55.57 6.21 1.23-.11 2.08-7.16-.57-6.21m-.12 1.44c-.34-1.48 1.06-2 .87-.3-.22 1.5.27 3.43-.28 4.8-.65.42-.67-.51-.66-.94zm-8.61-.15l.16-.06c-2.62-1 0-5 1.76-2.69.67 1.31-.88 2.45-1.79 1.69-1.29-1.09 1.47-2.56 1-.6l-.47.05c-.14-.45-.14-.17.04-.56-.37 0-.28 0-.45.24.16.78 1.25.75 1.19-.52-1.3-1.27-2.62.8-1.46 1.59a1.57 1.57 0 0 0 2.32-1.83c-1.53-3.23-5.65 1.54-2.3 2.69m.16-.06l-.16.11c1.77 1.39 5.55-2.95 5.4.84l.07 4.11c.22 1.3 2.25 1 1.78-.84-.2.4-.17.7-.74.64-.33-.52-.23-3.85-.19-4.8.1-1.83 1.44-1.77 2.6-2.47-.34-.24-1.52.5-2.44.68V3.88c-.82 1.51.42 2.41-4 3.88a4.58 4.58 0 0 1-2.32.24zM16 13.19c-1.25-.07-.79-.16-1.4-.78a6 6 0 0 1-.63 3.4c.62-.81 2-.6 2.46-.79a2.32 2.32 0 0 0-.5-4.13c-1.25-.58-.91-2 .22-1.71.21.74.08.55-.44.76 0 .67.28.75.94.73.32-.37.7-.69.18-1.37-1.39-1.61-3.45 1.31-1.74 2.52 4.61 2.35-1.15 4.7.91 1.37m-3.71-3.14c-2 1.29-1.43 7 .3 6.25 1.56-.71 1.76-6.39-.3-6.25m.06 6.09c-.68-.38-.63-5.64.1-6 .76.31.63 5.76-.1 6z"/></g><path d="M4.26 9c0 .27-.09 0 .44.41a16.92 16.92 0 0 1 0 2.25c-.7.44-1.44.65-1.34 1.65.51.33.63.25 1.32.26v.86c-1.69 1-3 3.24-1.87 5 2.65 3.88 11-4.56 5.45-7.69 3.25-4.1-.32-6.28-4-2.74m3.45 2.46a8.2 8.2 0 0 0-1.86-.12c-.95-5.18 3.7-4.76 1.86.12zM5.85 13a3 3 0 0 1 0-1.28 2.47 2.47 0 0 1 1.57 0c-.06.54-1 .99-1.57 1.28zm-1.1-.9v1.2c-1.58.33-1.18-1 0-1.19zm1.07 1.16a11.48 11.48 0 0 0 2.07-1.16c1.83 2.13.77 6.4-1.66 7.69-4 2-4.37-4-1.54-4.93.12 1.38.25 3.81-.94 4.38l3.17-1.15c-.24-.15-.89 0-1-.4v-3.12c1-.15 1.38.67.92 1.18-.29.32-.58 0-.64.57.89 2.24 2.72-2.25-.28-2.1z" fill="#fafafa"/></g><g clip-path="url(#B)"><path d="M-5.86 33.52h45.73v45.73H-5.86z" fill="#ffffd5"/></g></svg>