<svg id="art" xmlns="http://www.w3.org/2000/svg" xmlns:xlink="http://www.w3.org/1999/xlink" viewBox="0 0 34.02 34.02"><defs><style>.cls-1{fill:none;}.cls-2{clip-path:url(#clip-path);}.cls-3{fill:#fbb116;}.cls-4{fill:#231f20;}</style><clipPath id="clip-path"><circle class="cls-1" cx="17.01" cy="17.01" r="16.67"/></clipPath></defs><g class="cls-2"><path class="cls-3" d="M37.84,17A20.84,20.84,0,1,1,17-3.83,20.83,20.83,0,0,1,37.84,17Z"/><path class="cls-4" d="M13.08,9.34a2.94,2.94,0,0,1,2.36,1,4,4,0,0,1,.85,2.7A3.44,3.44,0,0,1,16,14.53a4.18,4.18,0,0,1-.88,1.24,3.74,3.74,0,0,1,1.52,1.48,4.32,4.32,0,0,1,.52,2.18,4.85,4.85,0,0,1-.51,2.26,3.59,3.59,0,0,1-1.43,1.53,4.22,4.22,0,0,1-2.12.53H9.36v-.14a2.46,2.46,0,0,0,.35-1.11V10.6a2.54,2.54,0,0,0-.35-1.11V9.34Zm.52,5.15a2.12,2.12,0,0,0,.53-1.44,2,2,0,0,0-.3-1.15.87.87,0,0,0-.77-.46h-.92v3.65A1.87,1.87,0,0,0,13.6,14.49Zm.56,6.7a3.13,3.13,0,0,0,.43-1.72,3.55,3.55,0,0,0-.37-1.78A1.14,1.14,0,0,0,13.16,17h-1v4.8h.92A1.28,1.28,0,0,0,14.16,21.19Z"/><path class="cls-4" d="M21.54,9.34v.15a2.31,2.31,0,0,0-.36,1.11V21.53h2.18a1.14,1.14,0,0,0,.54-.14,9.5,9.5,0,0,0,.9-.6h.08v3H18.4v-.14a2.46,2.46,0,0,0,.35-1.11V10.6a2.39,2.39,0,0,0-.35-1.11V9.34Z"/></g></svg>