<svg id="art" xmlns="http://www.w3.org/2000/svg" xmlns:xlink="http://www.w3.org/1999/xlink" viewBox="0 0 34.02 34.02"><defs><style>.cls-1{fill:none;}.cls-2{clip-path:url(#clip-path);}.cls-3{fill:#fbb116;}.cls-4{fill:#231f20;}</style><clipPath id="clip-path"><circle class="cls-1" cx="17.01" cy="17.01" r="16.67"/></clipPath></defs><g class="cls-2"><path class="cls-3" d="M37.84,17A20.84,20.84,0,1,1,17-3.83,20.83,20.83,0,0,1,37.84,17Z"/><path class="cls-4" d="M14.24,11.4a2.09,2.09,0,0,1,1.68.72,2.86,2.86,0,0,1,.61,1.93,2.45,2.45,0,0,1-.24,1.06,2.85,2.85,0,0,1-.63.88,2.72,2.72,0,0,1,1.09,1.06,3.21,3.21,0,0,1,.37,1.56,3.5,3.5,0,0,1-.36,1.61,2.52,2.52,0,0,1-1,1.09,2.9,2.9,0,0,1-1.51.38H11.57v-.1a1.66,1.66,0,0,0,.25-.79V12.3a1.76,1.76,0,0,0-.25-.8v-.1Zm.36,3.68a1.49,1.49,0,0,0,.39-1,1.47,1.47,0,0,0-.22-.82.63.63,0,0,0-.55-.33h-.66v2.6A1.33,1.33,0,0,0,14.6,15.08ZM15,19.86a2.24,2.24,0,0,0,.3-1.23,2.67,2.67,0,0,0-.26-1.27.81.81,0,0,0-.76-.46h-.73v3.43h.66A.92.92,0,0,0,15,19.86Z"/><path class="cls-4" d="M20.28,11.4v.1a1.62,1.62,0,0,0-.26.8v7.8h1.55A.86.86,0,0,0,22,20a5,5,0,0,0,.64-.43h.06v2.11H18v-.1a1.66,1.66,0,0,0,.25-.79V12.3a1.7,1.7,0,0,0-.25-.8v-.1Z"/></g></svg>