<svg id="art" xmlns="http://www.w3.org/2000/svg" xmlns:xlink="http://www.w3.org/1999/xlink" viewBox="0 0 34.02 34.02"><defs><style>.cls-1{fill:none;}.cls-2{fill:#84c77a;}.cls-2,.cls-3,.cls-4{fill-rule:evenodd;}.cls-3{fill:#fff;}.cls-4{fill:#8aaf72;}.cls-5{fill:#231f20;}.cls-6{clip-path:url(#clip-path);}</style><clipPath id="clip-path"><circle class="cls-1" cx="17.01" cy="17.01" r="16.67"/></clipPath><symbol id="New_Symbol_19" data-name="New Symbol 19" viewBox="0 0 45.32 45.32"><path class="cls-2" d="M22.66,0A22.66,22.66,0,1,1,0,22.66,22.66,22.66,0,0,1,22.66,0"/><polygon class="cls-3" points="11.79 19.55 17.39 19.68 22.49 24.82 27.99 19.51 33.35 19.68 33.5 21.05 30.35 21.05 30.27 24.84 33.5 24.84 33.46 26.04 11.79 26 11.79 24.91 15.04 24.83 15.04 21.05 11.79 21.01 11.79 19.55"/><polyline class="cls-4" points="28.74 21.21 28.7 24.8 24.96 24.84 25.19 24.21 28.66 21.05"/><polyline class="cls-4" points="16.7 21.11 16.61 24.8 20.43 24.79"/><path class="cls-5" d="M33.69,21.23H30.54v3.4h3.15v1.56H25.35v5.72a1.57,1.57,0,0,1-.51,1c-.35.37-.63.55-.87.55H16.46V31.79h3.45v-5.6H11.63V24.63h3.15v-3.4H11.63V19.34h5.92l2.36,2.33V13.5H16.28V11.86h7.36a1.66,1.66,0,0,1,1.35.85,1.66,1.66,0,0,1,.36.93v7.29a1.26,1.26,0,0,1-.3.53,1.64,1.64,0,0,1-.57.5,2.78,2.78,0,0,1,.36.38l2.95-3h5.9ZM23.55,25.82V24.33l-.86.68-5.3-5.33H12v1.16h3.27V25H12v.81h7.94V25H16.44V20.84H17l5,5Zm-3.31-1.19L16.88,21.3v3.33Zm3.31-4.14V13.9c0-.26-.12-.4-.35-.4H21.76v7.15c0,.34.3.51.91.51a1,1,0,0,0,.63-.25.56.56,0,0,0,.25-.42m0,3.29v-.44c0-.34-.29-.51-.88-.51s-.91.11-.91.3v.46l.93.91Zm0,7.64V26.19H21.76v5.6h1.42a.32.32,0,0,0,.37-.37m9.8-10.58V19.68H27.93l-2.85,2.88c.06.11.14.28.25.52a3.16,3.16,0,0,1,0,.86q1-1,3.18-3.1H29V25H25.35v.81h8V25H30.08V20.84Zm-4.76,3.79v-3.3l-3.24,3.08v.22Z"/></symbol></defs><g class="cls-6"><use width="45.32" height="45.32" transform="matrix(0.9, 0, 0, 0.9, -3.54, -3.18)" xlink:href="#New_Symbol_19"/></g></svg>