<svg xmlns="http://www.w3.org/2000/svg" viewBox="0 0 34.02 34.02" xmlns:v="https://vecta.io/nano"><defs><clipPath id="A"><path d="M34,17C33.63,39.37.38,39.36,0,17,.38-5.35,33.64-5.35,34,17Z" fill="none"/></clipPath><clipPath id="B"><path d="M-7.85 17c-.38 22.36-33.64 22.35-34 0 .36-22.35 33.62-22.35 34 0z" fill="none"/></clipPath><clipPath id="C"><path d="M34,56.39c-.39,22.36-33.64,22.35-34,0C.38,34,33.64,34,34,56.39Z" fill="none"/></clipPath></defs><g clip-path="url(#A)"><g fill-rule="evenodd"><path d="M17-7.72c32.86.48,33,49.36.12,50-32.86-.49-33-49.37-.12-50" fill="#85c87a"/><path d="M5 13.88l6.19.12 5.64 5.66 6.05-5.87 5.92.17.16 1.51-3.47.01-.08 4.18 3.56-.01-.04 1.33-23.91.01v-1.2l3.58-.1-.01-4.17-3.58-.03L5 13.88z" fill="#fff"/><g fill="#8baf72"><path d="M23.71 15.66v4l-4.13.05c-.24-.56 3.77-3.82 4.08-4.18m-13.23.06l-.09 4.07 4.21-.03"/></g></g><path d="M29.17 15.67H25.7v3.75h3.47v1.72h-9.21c.58 11-.89 7.47-9.79 8.05v-1.83H14v-6.18H4.87v-1.71h3.45v-3.75H4.84v-2.07h6.52L14 16.19v-9h-4V5.38c1.82.51 10-1.52 10 1.94-.27 1.07.81 8.85-.93 9.18a3.25 3.25 0 0 1 .39.41l3.25-3.31h6.51zM18 20.76v-1.65l-.95.76L11.19 14h-6v1.3h3.63v4.6h-3.6v.89h8.76v-.89h-3.83v-4.62h.56l5.53 5.49zm-3.65-1.31l-3.72-3.66v3.67zM18 14.88V7.62c.11-.81-1.61-.33-2-.45v7.89c-.06.8 1.94.72 2-.18m0 3.63c.46-1.36-2.35-1.46-2-.21l1 1zm0 8.43v-5.77h-2v6.18c.36-.11 2.06.32 2-.41m10.8-11.7V14h-6l-3.14 3.2a2 2 0 0 1 .3 1.51l3.5-3.43h.57v4.6H20v.9h8.83v-.9H25.2v-4.6zm-5.25 4.19V15.8L20 19.2v.24z" fill="#231f20"/></g><g clip-path="url(#B)"><path d="M-24.86-9c34.19.58,34.18,51.44,0,52C-59,42.43-59-8.42-24.86-9" fill-rule="evenodd" fill="#ed1c24"/></g><g clip-path="url(#C)"><path d="M-5.86 33.52h45.73v45.73H-5.86z" fill="#0b86c8"/></g></svg>