<svg id="art" xmlns="http://www.w3.org/2000/svg" xmlns:xlink="http://www.w3.org/1999/xlink" viewBox="0 0 34.02 34.02"><defs><style>.cls-1{fill:none;}.cls-2{clip-path:url(#clip-path);}.cls-3{fill:#bdaf32;}.cls-4{fill:#231f20;}</style><clipPath id="clip-path"><circle class="cls-1" cx="17.01" cy="17.01" r="16.67"/></clipPath></defs><g class="cls-2"><path class="cls-3" d="M37.84,17A20.84,20.84,0,1,1,17-3.83,20.83,20.83,0,0,1,37.84,17Z"/><path class="cls-4" d="M13.77,11.58a2.09,2.09,0,0,1,1.68.72,2.85,2.85,0,0,1,.61,1.92,2.39,2.39,0,0,1-.24,1.06,2.63,2.63,0,0,1-.63.88,2.78,2.78,0,0,1,1.09,1.06,3.21,3.21,0,0,1,.37,1.56,3.51,3.51,0,0,1-.36,1.62,2.58,2.58,0,0,1-1,1.09,3,3,0,0,1-1.51.38H11.1v-.11a1.63,1.63,0,0,0,.25-.79v-8.5a1.73,1.73,0,0,0-.25-.79v-.1Zm.36,3.67a1.47,1.47,0,0,0,.39-1,1.49,1.49,0,0,0-.22-.82.62.62,0,0,0-.55-.32h-.66v2.6A1.3,1.3,0,0,0,14.13,15.25ZM14.54,20a2.24,2.24,0,0,0,.3-1.23,2.64,2.64,0,0,0-.26-1.27.81.81,0,0,0-.76-.46h-.73V20.5h.66A.91.91,0,0,0,14.54,20Z"/><path class="cls-4" d="M20.44,11.58a2.5,2.5,0,0,1,2.35,1.48,3.68,3.68,0,0,1,.34,1.63,3.66,3.66,0,0,1-.37,1.69,2.71,2.71,0,0,1-1,1.14,3,3,0,0,1-1.54.39h-.64V21a1.37,1.37,0,0,0,.3.79v.11H17.56v-.11a1.63,1.63,0,0,0,.25-.79v-8.5a1.73,1.73,0,0,0-.25-.79v-.1ZM21,16a2.23,2.23,0,0,0,.3-1.24,2,2,0,0,0-.38-1.29,1.23,1.23,0,0,0-1-.49h-.33v3.49h.63A.9.9,0,0,0,21,16Z"/></g></svg>