<svg xmlns="http://www.w3.org/2000/svg" xmlns:xlink="http://www.w3.org/1999/xlink" viewBox="0 0 34.02 34.02" xmlns:v="https://vecta.io/nano"><style><![CDATA[.M{fill:#231f20}.N{fill-rule:evenodd}.O{fill:#f2c933}.P{fill:#fff}.Q{fill:#e52f25}]]></style><defs><clipPath id="A"><path d="M34,17C33.63,39.37.38,39.36,0,17,.38-5.35,33.64-5.35,34,17Z" fill="none"/></clipPath><clipPath id="B"><path d="M75.88 17c-.38 22.36-33.64 22.35-34 0 .37-22.35 33.62-22.35 34 0z" fill="none"/></clipPath><clipPath id="C"><path d="M34,56.39c-.39,22.36-33.64,22.35-34,0C.38,34,33.64,34,34,56.39Z" fill="none"/></clipPath><path id="D" d="M11 25.32h5.26c-3.47 3.94-1.62-.62-5 1.69.17-2.18-2.58-.13-3.39-.76 1-.29 1.52-1.21 2.62-.93a7.63 7.63 0 0 1-1 .41 1.62 1.62 0 0 0 1.51-.41z"/><path id="E" d="M12.14 18.62c-.09-5.11 1.1-1.52.69 1.16-1.32 1-1.12-1.7-1.53-2.51.06 5.23-1.09 1.59-.69-1.18 1.39-1.03 1.11 1.78 1.53 2.53z"/><path id="F" d="M9.86,13.31c-.79-2.24,2.33-3.21,1.79-.71-.82.39-.34-1.55-1.13-.61-.22.78.17,4.65.6,2,0-.26.38-.08.55-.14.61,2.59-2.58,1.86-1.81-.56Z"/><path id="G" d="M17.94 14.91c1.68.28 4.45-.54 5.62.32-3.64-.06-7.88.36-11.28-.14 1.57-.5 3.86-.01 5.66-.18z"/><path id="H" d="M18.58 19.74c-1.62-.27-4.31.55-5.42-.31 3.41.18 7.91-.59 10.82.27-1.77.13-3.61 0-5.4.04z"/><path id="I" d="M13.94 16.35c.73.07 1.26 4.11 0 2.26-1.24 1.9-.79-2.33 0-2.26zm0 .59h0c-.32 1.49.29 1.51.06 0z"/><path id="J" d="M21.79 16.35c.58-.22 1.52 4.37-.05 2.26-1.1 1.94-.74-2.33.05-2.26zm0 .59h0c-.3 1.5.29 1.27.03 0z"/><path id="K" d="M12.78 11.82c.76-.06 1.23 4.25 0 2.26-1.17 1.92-.78-2.28 0-2.26zm0 .61c-.07.33-.24.85-.05 1.15.35-.09.01-.83.07-1.15z"/><path id="L" d="M20.83 11.82c.76-.19 1.15 4.28.08 2.26-.51-.13-.09.58-.61.48-.31 0-.31 0-.26-.3.31-.69-.04-2.38.79-2.44zm0 .63h0c-.32 1.46.29 1.46.02 0z"/><path id="M" d="M18.07 22.77c-.75.45-.57-.66-.79-1.1-.21 2.35-1.11.55-1-.83.71-.22.35.88.6 1.24.14-1.78.73-1.68.94 0 .26-2.33.72-.59.25.69z"/><path id="N" d="M13 22.45c-1.4 1.2-.6-.93-.14-1.63.46 0 .46 0 .6.43.31 1 .87 2.15-.46 1.2zm0-1.06c-.1.22-.41.83.1.67.11-.2-.1-.44-.1-.67z"/><path id="O" d="M19.74 22.8c0-.41-.45-.44-.74-.29 0 .36-.23.38-.54.35.44-2.62 1.26-2.71 1.79 0-.16-.01-.4.05-.51-.06zm-.39-1.41c-.09.19-.38.83.11.67.12-.19-.08-.44-.11-.67z"/><path id="P" d="M15 18c-.08-.33.18-1-.14-1.11s-.28 0-.28-.28 1.46-.34 1.39 0c-.53.56-.45 1.39-.41 2.39-.56.58-.56-.54-.56-1z"/><path id="Q" d="M6.81 13.32a12.49 12.49 0 0 0 1.43 3.3 6.1 6.1 0 0 1-2.5-1.38c.58.18 1 .67 1.64.86A13.42 13.42 0 0 1 5 13.26a13.41 13.41 0 0 0 2.11 2.15 6.57 6.57 0 0 0-.3-2.09z"/><path id="R" d="M16.51 10.44A11.06 11.06 0 0 1 14.67 8h.07a5.53 5.53 0 0 0 1.82 2 38.33 38.33 0 0 1 .1-4.15c.19 1.47 0 3.09.36 4.6a2.17 2.17 0 0 1-.51-.01z"/><path id="S" d="M20.86 22.86h-.07c0-.89-1.05-3.31.25-1.23 0-.48 1-1.27.71-.47a2.92 2.92 0 0 0-.51 1.7 2.36 2.36 0 0 1-.38 0z"/><path id="T" d="M12.53 10.43a6.25 6.25 0 0 1-1.7-1.62 11.68 11.68 0 0 0 2.38 1.63 3.1 3.1 0 0 1-.68-.01z"/></defs><g clip-path="url(#A)"><path d="M17-6.55C48-6,48,40,17,40.57-14,40-13.95-6,17-6.55" fill="#ffd900" class="N"/><path d="M8.25 10.45h17.52v14.83H8.25z" class="M"/><g class="N"><path d="M29.73 12.6v-.07z" class="O"/><g class="Q"><path d="M5.16 12.64c.47.5 1.47.79 1.44-.21 2.12.73 1.65 1.87 1.63 3.79-1.29-.44-.68-2-1.43-2.9a6.53 6.53 0 0 1 .34 2.09A13 13 0 0 1 5 13.26a13.42 13.42 0 0 0 2.38 2.84c-.59-.19-1.06-.68-1.64-.86 3.42 1.4 3.73 5.35-.65 4.65a9.52 9.52 0 0 0 3.15.11v3.29A15.84 15.84 0 0 0 6 22.14c1.81-.87-1-1.95-1.68-2.39 3.76-.52 1.68-2.28 0-3.72 2 .34.66-1.18.3-1.85 1.23-.31-.68-1.33-.14-2.1.27.19.42.39.68.56zm20.71 2.74c-.12-1.87-.24-2.18 1.54-3-.2 1.32 1.48-.34 2.13-.11-.31.45-1.79 1.76-.45 1.66-.73.75-1.33 2.5.36 2-1.95 1.21-3 3.42.21 3.45-.53.47-3 1.51-1.75 2.33a13.21 13.21 0 0 0-2 1.24v-3.47a4.4 4.4 0 0 0 3 .19c-1.73 0-3.61 0-3-2.31a2.76 2.76 0 0 0 2.51-.93c-3.47 2.07-2.93-1.15-.12-2a9.65 9.65 0 0 1-2 .86 28.15 28.15 0 0 1 2.51-2.6 21.7 21.7 0 0 0-2.94 2.69zm-8.58-4.94c-1-.81-.25-3.31-.63-4.6a38.33 38.33 0 0 0-.1 4.15 5.53 5.53 0 0 1-1.82-2h-.07a11.06 11.06 0 0 0 1.84 2.42c-2.12.15-4.16.08-5.68-1.63a6.25 6.25 0 0 0 1.7 1.62c-2 .42-1.71-.67-2.16-2.2 1.5 1.07 5.25 2.51 3.65-.78 2.37 1.27 2.07-1.28 2.98-2.36.09 1.28.89 3.69 2.5 2.39-1.19 3.49 2.33 1.86 3.78.53-.41 1.34.64 2.87-1.38 2.46a4.47 4.47 0 0 0 .87-1.76c-.89 2.26-2.95 1.78-5 1.76A4.56 4.56 0 0 0 19 8.09a6.48 6.48 0 0 1-1.71 2.35z"/><use xlink:href="#D"/></g><use xlink:href="#E" class="O"/><path d="M20.89 25.33c1.8.12 3.81-.57 5.11.9-.75.05-3.79-1-3.17.52-.79-.15-3-1.29-2.83.32l-2.28-1.73a6.53 6.53 0 0 1 4.38.84l-1.21-.85z" class="Q"/><g class="O"><use xlink:href="#F"/><path d="M11.37 22c.69.26.23 1.14.41 1.68-1.39.34-.22-1.17-1-1.38-.44.35.34 1.8-.8 1.35-1.09-4.42 2.76-3.77 1.39-1.65zm-.37-.67c-.08-.63-.5-.35-.38.23.21.21.45.1.38-.23z"/><use xlink:href="#G"/><path d="M17.8 23.59c-1.67-.27-4.5.55-5.62-.32 4.82-.27 16.69.26 5.62.32z"/><use xlink:href="#H"/><path d="M19.51 17.33c-.13.5.29 1.55-.2 1.76-.55-.1-.71-3.26.36-2.71.27.48.23 1.22.5 1.74-.1-3.7 1-.52.42 1-1.02.2-.66-1.26-1.08-1.79zm2.86-4.54c.16 4.61-1.6-1.53.15-.94.25.51.28 1.22.5 1.79 0-4.36 1-.16.38.92-.99.24-.63-1.25-1.03-1.77zm-8.06-.01c.08 3.31-.85 1.1-.53-.79.9-.83.9 1 1.19 1.61-.06-3.31.85-1.09.54.81-.92.79-.88-1.07-1.2-1.63zm2.87 4.93c.08-3.69 2.79.55.92 1.41-1 .23-1-.69-.91-1.41zm.56 0c-.06.29 0 1.39.31.71.17-.88-.27-2.69-.31-.7zm-.21-4.52c-.17-2.81 2.08-1 1.39.93-.71 1.09-1.74.24-1.39-.93zm.85 0c-.06-.26.17-.85-.21-.88-.39.69.22 2.81.21.89z"/><use xlink:href="#I"/><use xlink:href="#J"/><use xlink:href="#K"/><use xlink:href="#L"/><path d="M16.52 11.82c.58-.16 1.49 4.32-.07 2.26-1.05 1.92-.76-2.3.07-2.26zm0 .62h0c-.31 1.42.29 1.56.02 0z"/><use xlink:href="#M"/></g><path d="M16.27 29c-1.27.15.73-5 .73-3.32-.33 1.02.43 2.73-.73 3.32z" class="Q"/><g class="O"><path d="M22.3 22.24c.29 0 .32.62.8.24.19-.66-1.23-.24-1-1.08 0-1.39 2.45 0 1.06 0-.09-.31-.48-.47-.59-.09.57.35 1.72.83.68 1.51-.46.46-1.81-.43-.95-.58z"/><use xlink:href="#N"/><use xlink:href="#O"/><use xlink:href="#P"/></g><use xlink:href="#Q" class="M"/><path d="M22.89 17.72c-.06-2.73.88-.73.55.7.07.42.79-.12.59.55-1.03.54-1.29-.29-1.14-1.25z" class="O"/><use xlink:href="#R" class="M"/><g class="O"><path d="M16.8 17.74c.18.61-.25 2.16-.56.93-.33-1.38.57-3.67.56-.93z"/><use xlink:href="#S"/><path d="M19.8 13.19c.17.6-.24 2.2-.56 1-.34-1.52.59-3.7.56-1zM15 21.85c-.12-1.79.76-.78.46.42 0 .42.77-.08.79.3.06.55-.74.19-1.08.3-.37-.05-.08-.74-.17-1.02z"/></g><path d="M25.87 15.38a21.7 21.7 0 0 1 2.89-2.61 28.15 28.15 0 0 0-2.51 2.6 9.65 9.65 0 0 0 2-.86c-.54.7-1.65.82-2.39 1.28a1.41 1.41 0 0 1 .01-.41z" class="M"/><path d="M14.15 20.85c.9-.23.3 1.4.46 2h0c-.89.15-.28-1.42-.46-2z" class="O"/><g class="M"><path d="M25.86 19.24a7.37 7.37 0 0 0 3 .52c-.8.24-2.8.42-3-.52zM8.24 20a9.52 9.52 0 0 1-3.15-.09c1-.24 2.11.09 3.15-.16zm9.05-9.56A6.36 6.36 0 0 0 19 8.09c-.22.84-.7 2.39-1.71 2.35z"/><use xlink:href="#T"/><path d="M25.86 17.17a3 3 0 0 0 2.51-.65 2.76 2.76 0 0 1-2.51.93zm-4.45-6.73l1.31-1.76c-.14.6-.56 1.87-1.31 1.76zm-.52 14.89c.38.31.81.55 1.21.85a5.2 5.2 0 0 1-1.57-.85 1.09 1.09 0 0 1 .36 0zM11 25.32a1.62 1.62 0 0 1-1.44.42c.51-.14.94-.5 1.44-.42zm-4.19-12h0zm22.85 6.15h0zM11 21.33c0 .33-.21.44-.38.23-.08-.56.38-.86.38-.23zm6.74-3.61c0-2 .48-.17.31.71-.29.68-.37-.43-.31-.71zm.64-4.52c0 1.92-.59-.21-.21-.88.38.03.15.62.21.88zM14 16.94c.28 1.52-.33 1.49 0 0zm7.82 0c.26 1.27-.33 1.5 0 0zm-9.02-4.51c-.06.32.29 1.06-.05 1.15-.19-.3-.02-.82.05-1.15zm8.05.02c.27 1.47-.34 1.46 0 0zm-4.31-.01c.27 1.54-.33 1.41 0 0zM13 21.39c0 .23.21.47.11.67-.52.16-.21-.45-.11-.67zm6.35 0c0 .23.23.48.11.67-.46.16-.2-.48-.11-.67z"/><path d="M6.3 22l-.3.14a15.84 15.84 0 0 1 2.21 1.13c-.51-2.4 1.36-6.49-1.49-7.28a8.44 8.44 0 0 0 1.48.63c-.08-2 .65-3.46-1.64-4.19-.1 1.47-1.58.16-2.1-.35-.54.77 1.37 1.79.14 2.1.36.66 1.72 2.19-.3 1.85 1.71 1.44 3.78 3.2 0 3.72.7.47 3.25 1.25 2 2.25zm1-7.38a3.76 3.76 0 0 0-.42-1.22 3.76 3.76 0 0 1 .41 1.24z"/></g></g><path d="M8.42 23.58a17.82 17.82 0 0 0-2.79-1.43c2.32-.88-1-1.68-1.43-2.47 4.46-1.11.93-1.88-.12-3.89.36.1 1.46.34 1.14-.37 0-.44-1.49-1.36-.34-1.46.08-.57-.57-.85-.76-1.29a1 1 0 0 0 0-1.15c.61.44 2.31 2.46 2.35.68 4.05 1.66 1.09 7.8 1.95 11.38zm-2-1.45a16.58 16.58 0 0 1 1.66.87c-.45-2.09 1.21-6.23-1.41-6.83l.17-.3a7.73 7.73 0 0 0 1.24.55c-.12-1.6.56-3.12-1.34-3.69-.26 1.2-1.54.27-2.08-.24a.58.58 0 0 1-.15.19c.36.39 1.23 1.3.39 1.68.76.71 1.18 2.09-.29 1.91 1.91.94 3.4 3.05.25 3.6.77.32 2.8 1.32 1.59 2.26zm-1.81-5.72zm.39-4.1h0zm2.17 2.36a3.92 3.92 0 0 0-.4-1.17l.23-.17a3.93 3.93 0 0 1 .45 1.28z" class="M"/><path d="M27.61 17.91A6.25 6.25 0 0 1 29.45 16c-1.69.45-1.09-1.31-.36-2-1.33.12.13-1.22.45-1.66-.68-.19-2.32 1.41-2.13.11-2.49.78-1.32 2.91-1.55 5a2.19 2.19 0 0 0 .36 0 2.19 2.19 0 0 1-.36 0v5.59a13.21 13.21 0 0 1 2-1.24c-1.23-.82 1.22-1.86 1.75-2.33-.81-.05-2.61-.34-2-1.56z" class="M N"/><path d="M25.89 23.22c.09-3-1.74-9.39 1.39-10.94.38-.21.29.31.26.48.74-.09 1.37-.75 2.24-.61-.13.57-1 1-1.09 1.64.22 0 .46 0 .67.12-.95 1.18-1.55 2.4.63 1.87-1.83 1.26-3.83 3.48-.13 3.54-.09.8-3.34 1.64-1.59 2.48a19.18 19.18 0 0 0-2.38 1.42zm.11-5.58c-.14.67.26 1.66-.18 2H26v3.08a10.76 10.76 0 0 1 1.54-.95c-.75-.89 1-1.75 1.6-2.19-2.56-.08-1.94-2.37-.26-3.35-1.28 0-.62-1.51-.16-2.09-.93-.22 0-1.21.39-1.61-.56 0-1.68 1.14-1.94.21-2 .52-.94 3-1.16 4.55h.2v.35z" class="M"/><path d="M21.41 10.44c2.59.33 1.39-.62 1.82-2.44-1.45 1.33-5 3-3.78-.53C17.84 8.74 17 6.34 17 5.06c-.9 1.08-.61 3.63-3 2.39 1.6 3.29-2.15 1.85-3.65.78.47 4.41 7.57 1.38 11.06 2.21z" class="M N"/><path d="M12.85 10.63c-3.15.17-1.76-.21-2.76-2.67 1.82.8 5.5 3.17 3.62-.86C16.75 8.77 16 5.51 17 4.37c.13 1.32.67 4.45 2.53 2.8-.78 4.12 1.94 1.7 3.9.47.75 5.46-6.85 2.11-10.58 2.99zm-.32-.37h10.45a6.55 6.55 0 0 1 0-1.93c-1.36 1.27-4.72 2.63-3.82-.52-1.36.8-2.16-1.13-2.3-2.25-.43.88-.71 3.09-2.53 2.21 1.28 3-2.34 1.83-3.65.82a5 5 0 0 1 .26 1.68z" class="M"/><path d="M16.17,25.32c-2.82.2-5.84-.68-8.24.94.81.63,3.56-1.42,3.39.76,3.33-2.3,1.5,2.25,5-1.69Z" class="M N"/><path d="M11.12 27.34c.45-2.69-2.71.2-3.5-1.15 2.42-1.64 5.72-.91 8.55-1h0 .45c-4.19 4.73-1.73-.56-5.5 2.15zm2-1.2A.89.89 0 0 1 14 27a5.61 5.61 0 0 0 1.93-1.47c-2.37.24-5.62-.68-7.53.78.95-.21 2.92-1.13 3.14.43a3.39 3.39 0 0 1 1.53-.6z" class="M"/><path d="M25.08 25.4c-2.41-.22-4.92 0-7.36-.06L20 27.07c-.14-1.61 2-.47 2.83-.32-.62-1.51 2.41-.47 3.17-.52a2.93 2.93 0 0 1-.92-.83z" class="M N"/><path d="M20.23 27.42c-1-.64-1.91-1.37-2.79-2.08 2.59-.16 7-1.06 8.93 1-.78.4-4-1-3.31.49-.8.37-3.37-1.52-2.83.59zm-2.05-1.93l1.62 1.22c.37-1.19 1.9-.48 2.7-.23 0-1.21 2.07-.54 2.84-.52-1.6-1.14-5.17-.16-7.16-.47z" class="M"/><path d="M16.69 25.32c-.67.94-1.33 5.82.21 2.55-.25-.71.64-2.48-.21-2.55z" class="M N"/><path d="M16.31 29.13c-1.55 0 0-3.41.37-4 .96-.46.54 4.11-.37 4zm.42-3.64c-1.4 4.12.13 4.22.16 0z" class="M"/><path d="M29.66 19.48h0v.03-.03z" class="M N"/><path d="M29.46 19.8l.07-.59c.47.15.34.47-.07.59zm.36-.3h0zm-.17 0l-.07-.13zm-21.4-9.05h17.52v14.83H8.25z" class="M"/><g class="N"><path d="M29.73 12.6v-.07z" class="P"/><g class="Q"><path d="M5.16 12.64c.47.5 1.47.79 1.44-.21 2.12.73 1.65 1.87 1.63 3.79-1.29-.44-.68-2-1.43-2.9a6.53 6.53 0 0 1 .34 2.09A13 13 0 0 1 5 13.26a13.42 13.42 0 0 0 2.38 2.84c-.59-.19-1.06-.68-1.64-.86 3.42 1.4 3.73 5.35-.65 4.65a9.51 9.51 0 0 0 3.15.11v3.29A15.84 15.84 0 0 0 6 22.14c1.81-.87-1-1.95-1.68-2.39 3.76-.52 1.68-2.28 0-3.72 2 .34.66-1.18.3-1.85 1.23-.31-.68-1.33-.14-2.1a7 7 0 0 0 .68.56zm20.71 2.74c-.1-1.93-.28-2.13 1.54-3-.2 1.32 1.48-.34 2.13-.11-.31.45-1.79 1.76-.45 1.66-.73.75-1.33 2.5.36 2-1.95 1.21-3 3.42.21 3.45-.53.47-3 1.51-1.75 2.33a13.21 13.21 0 0 0-2 1.24v-3.47a4.4 4.4 0 0 0 3 .19c-1.73 0-3.61 0-3-2.31a2.76 2.76 0 0 0 2.51-.93c-3.47 2.07-2.93-1.15-.12-2a9.65 9.65 0 0 1-2 .86 26.94 26.94 0 0 1 2.51-2.6 21.7 21.7 0 0 0-2.94 2.69zm-8.58-4.94c-1-.81-.25-3.31-.63-4.6a38.33 38.33 0 0 0-.1 4.15 5.53 5.53 0 0 1-1.82-2h-.07a11.06 11.06 0 0 0 1.84 2.42c-2.12.15-4.16.08-5.68-1.63a6.25 6.25 0 0 0 1.7 1.62c-2 .42-1.71-.67-2.16-2.2 1.5 1.07 5.25 2.51 3.65-.78 2.37 1.27 2.07-1.28 2.98-2.36.09 1.28.89 3.69 2.5 2.39-1.18 3.49 2.33 1.86 3.78.53-.41 1.34.64 2.87-1.38 2.46a4.47 4.47 0 0 0 .87-1.76c-.89 2.26-2.95 1.78-5 1.76A4.63 4.63 0 0 0 19 8.09a6.36 6.36 0 0 1-1.71 2.35z"/><use xlink:href="#D"/></g><use xlink:href="#E" class="P"/><path d="M20.89 25.33c1.8.12 3.81-.57 5.11.9-.75.05-3.79-1-3.17.52-.79-.15-3-1.29-2.83.32l-2.28-1.73a6.54 6.54 0 0 1 4.38.84l-1.21-.85z" class="Q"/><g class="P"><use xlink:href="#F"/><path d="M11.37 22c.69.26.23 1.14.41 1.68-1.39.34-.23-1.17-1-1.38-.44.35.34 1.8-.8 1.35-1.09-4.42 2.76-3.77 1.39-1.65zm-.37-.67c-.08-.63-.5-.35-.38.23.21.21.45.1.38-.23z"/><use xlink:href="#G"/><path d="M17.8 23.59c-1.67-.27-4.5.55-5.62-.32 4.82-.27 16.69.26 5.62.32z"/><use xlink:href="#H"/><path d="M19.51 17.33c.08 3.26-.86 1.08-.53-.79.9-.93.9 1 1.19 1.58-.1-3.7 1-.52.42 1-1.02.2-.66-1.26-1.08-1.79zm2.86-4.54c.16 4.61-1.6-1.53.15-.94.25.51.28 1.22.5 1.79 0-4.4 1-.14.38.92-.99.24-.63-1.25-1.03-1.77zm-8.06-.01c-.1.54.21 1.42-.12 1.78-1.27-.82.09-5.11.78-1-.05-3.31.85-1.09.54.81-.92.83-.88-1.03-1.2-1.59zm2.87 4.93c.08-3.69 2.79.55.92 1.41-1 .23-1-.69-.91-1.41zm.56 0c-.09.34.07 1.43.32.64s-.28-2.57-.32-.63zm-.21-4.52c-.25-3.37 2.79.11 1 1.34-1.29.28-1-.39-1-1.34zm.85 0c-.06-.26.17-.85-.21-.88-.39.69.22 2.81.21.89z"/><use xlink:href="#I"/><use xlink:href="#J"/><use xlink:href="#K"/><use xlink:href="#L"/><path d="M16.52 11.82c.58-.16 1.49 4.32-.07 2.26-1.05 1.92-.76-2.3.07-2.26zm0 .62h0c-.31 1.41.29 1.56.02 0z"/><use xlink:href="#M"/></g><path d="M16.27 29c-1.27.15.73-5 .73-3.32-.33 1.02.43 2.73-.73 3.32z" class="Q"/><g class="P"><path d="M22.3 22.24c.29 0 .32.62.8.24.19-.66-1.23-.25-1-1.08 0-1.39 2.45 0 1.06 0-.09-.31-.48-.47-.59-.09.57.35 1.71.83.68 1.51-.46.46-1.81-.43-.95-.58z"/><use xlink:href="#N"/><use xlink:href="#O"/><use xlink:href="#P"/></g><use xlink:href="#Q" class="M"/><path d="M22.89 17.72c-.06-2.73.88-.73.55.7.07.42.79-.12.59.55-1.03.54-1.29-.29-1.14-1.25z" class="P"/><use xlink:href="#R" class="M"/><g class="P"><path d="M16.8 17.74c.18.61-.25 2.16-.56.93-.33-1.38.57-3.67.56-.93z"/><use xlink:href="#S"/><path d="M19.8 13.19c.17.6-.24 2.2-.56 1-.34-1.52.59-3.7.56-1zM15 21.85c-.16-.51.25-1.65.46-.69 0 1.18-.15 1.12.79 1.41.06.55-.74.19-1.08.3-.37-.05-.08-.74-.17-1.02z"/></g><path d="M25.87 15.38a21.7 21.7 0 0 1 2.89-2.61 26.94 26.94 0 0 0-2.51 2.6 9.65 9.65 0 0 0 2-.86c-.54.7-1.65.82-2.39 1.28a1.41 1.41 0 0 1 .01-.41z" class="M"/><path d="M14.15 20.85c.9-.23.3 1.4.46 2h0c-.89.15-.28-1.42-.46-2z" class="P"/><g class="M"><path d="M25.86 19.24a7.37 7.37 0 0 0 3 .52c-.8.24-2.8.42-3-.52zM8.24 20a9.51 9.51 0 0 1-3.15-.09c1-.24 2.11.09 3.15-.16zm9.05-9.56A6.36 6.36 0 0 0 19 8.09c-.22.84-.7 2.39-1.71 2.35z"/><use xlink:href="#T"/><path d="M25.86 17.17a3 3 0 0 0 2.51-.65 2.76 2.76 0 0 1-2.51.93zm-4.45-6.73l1.31-1.76c-.14.6-.56 1.87-1.31 1.76zm-.52 14.89c.38.31.81.55 1.21.85a5.2 5.2 0 0 1-1.57-.85 1.09 1.09 0 0 1 .36 0zM11 25.32a1.62 1.62 0 0 1-1.44.42c.51-.14.94-.5 1.44-.42zm-4.19-12h0zm22.85 6.15h0zM11 21.33c0 .33-.21.44-.38.23-.08-.56.38-.86.38-.23zm6.74-3.61c0-2 .48-.17.31.71-.29.68-.37-.43-.31-.71zm.64-4.52c0 1.92-.59-.21-.21-.88.38.03.15.62.21.88zM14 16.94c.28 1.52-.33 1.49 0 0zm7.82 0c.26 1.27-.33 1.5 0 0zm-9.02-4.51c-.06.32.29 1.06-.05 1.15-.19-.3-.02-.82.05-1.15zm8.05.02c.27 1.47-.34 1.46 0 0zm-4.31-.01c.27 1.54-.33 1.41 0 0zM13 21.39c0 .23.21.47.11.67-.52.16-.21-.45-.11-.67zm6.35 0c0 .23.23.48.11.67-.46.16-.2-.48-.11-.67z"/></g></g></g><g clip-path="url(#B)" class="N"><path d="M58.88-8.49c33.51.57,33.51,50.43,0,51-33.52-.58-33.52-50.43,0-51" fill="#b53e96"/></g><g clip-path="url(#C)"><path d="M-5.18 32.8h45.73v45.73H-5.18z" fill="#08944b"/></g></svg>