<svg id="art" xmlns="http://www.w3.org/2000/svg" xmlns:xlink="http://www.w3.org/1999/xlink" viewBox="0 0 34.02 34.02"><defs><style>.cls-1{fill:none;}.cls-2{fill:#ffd900;}.cls-2,.cls-4,.cls-5,.cls-6,.cls-7,.cls-8{fill-rule:evenodd;}.cls-3,.cls-6,.cls-7{fill:#231f20;}.cls-4{fill:#f1c833;}.cls-5{fill:#e42f25;}.cls-7{stroke:#231f20;stroke-miterlimit:10;stroke-width:0.33px;}.cls-8{fill:#fff;}.cls-9{clip-path:url(#clip-path);}</style><clipPath id="clip-path"><circle class="cls-1" cx="17.01" cy="17.01" r="16.67"/></clipPath><symbol id="New_Symbol_21" data-name="New Symbol 21" viewBox="0 0 45.32 45.32"><path class="cls-2" d="M22.66,0A22.66,22.66,0,1,1,0,22.66,22.66,22.66,0,0,1,22.66,0"/><rect class="cls-3" x="14.24" y="16.36" width="16.86" height="14.26"/><path class="cls-4" d="M34.9,18.42a.07.07,0,0,1,0-.07A.43.43,0,0,0,34.9,18.42Z"/><path class="cls-5" d="M11.26,18.45a1.74,1.74,0,0,0,.75.44c.33.09.52,0,.6-.37a2,2,0,0,0,0-.26,1.45,1.45,0,0,1,.34.2,5,5,0,0,0,1.13.56c.07,0,.11,0,.11.13v2.71a.43.43,0,0,0,0,.05c-.19-.08-.33-.23-.5-.32A.54.54,0,0,1,13.4,21a1.53,1.53,0,0,0,0-.3,4.07,4.07,0,0,0-.52-1.61h0a1.55,1.55,0,0,0,0,.21A7.63,7.63,0,0,1,13.2,21c0,.05,0,.12,0,.15s-.08,0-.12-.07a11.33,11.33,0,0,1-1.77-1.89s0-.11-.13-.11c.19.31.38.62.6.91a9.2,9.2,0,0,0,1.6,1.7s.1.06.06.11-.08,0-.12,0A14,14,0,0,1,12,21s-.09-.08-.17,0a5.9,5.9,0,0,0,2.41,1.33c0,1,0,2,0,3a9.28,9.28,0,0,1-2.47,0,1.51,1.51,0,0,0-.55.12,2.78,2.78,0,0,0,.63.11,11.92,11.92,0,0,0,2.39,0c0,.7,0,1.4,0,2.1v1.07a14.61,14.61,0,0,0-2.12-1.09l.25-.12a.5.5,0,0,0,.18-.85,2.94,2.94,0,0,0-.94-.74c-.32-.18-.66-.34-1-.5l-.09,0s0,0,0-.06a.85.85,0,0,0,.23,0,4,4,0,0,0,1.54-.57.77.77,0,0,0,.2-1.2l-.23-.27a6.44,6.44,0,0,0-1.53-1.06s-.14-.05-.13-.11-.05-.21-.1-.34a2,2,0,0,0,.58,0c.44,0,.61-.29.42-.7a3.67,3.67,0,0,0-.73-1c-.05-.05-.07-.09,0-.1.25,0,.46-.12.43-.34a.85.85,0,0,0-.19-.42,1.54,1.54,0,0,0-.33-.42,1,1,0,0,0-.08-.11c-.06-.07-.15-.12-.17-.2s.11-.09.16-.15a.33.33,0,0,0,0-.38l.25.21,0,0h0a0,0,0,0,0,0,0h0A1.64,1.64,0,0,0,11.26,18.45Z"/><path class="cls-5" d="M31.18,21.1a7,7,0,0,1,0-.79c0-.4,0-.8,0-1.19,0-.06,0-.12.07-.14a5.77,5.77,0,0,0,1.39-.73h0c0,.06,0,.11,0,.16-.08.26,0,.4.31.34a3,3,0,0,0,.86-.39l.19-.08a1.14,1.14,0,0,0,.22-.07,2.63,2.63,0,0,1,.49-.06c0,.08-.12.1-.12.18a.55.55,0,0,0-.17.2.45.45,0,0,0-.17.19,1.76,1.76,0,0,0-.48.71c-.09.21,0,.32.23.33s.18-.06.28,0a4.2,4.2,0,0,0-.58.92,1.65,1.65,0,0,0-.17.65.4.4,0,0,0,.34.42,1.19,1.19,0,0,0,.46,0l.29,0c-.24.21-.5.4-.74.61a3.83,3.83,0,0,0-1,1.21.8.8,0,0,0,.46,1.18,4.58,4.58,0,0,0,1.51.32h0v0l0,0a1.25,1.25,0,0,0-.41.22,6,6,0,0,0-1.32,1,1.19,1.19,0,0,0-.21.29.36.36,0,0,0,.17.55l.14.08-.72.37a7.65,7.65,0,0,0-1.16.79s-.05.05-.08,0,0-.05,0-.08c0-1.06,0-2.12,0-3.18a.31.31,0,0,1,0-.08l.1,0a4.54,4.54,0,0,0,2.12.31,2.46,2.46,0,0,0,.69-.16c-.15-.1-.15-.1-.29-.08a4.26,4.26,0,0,1-1.38,0,5.68,5.68,0,0,1-1.25-.4c0-.58,0-1.15,0-1.72a2.67,2.67,0,0,0,2.42-.9,2.9,2.9,0,0,1-2.42.63c0-.45,0-.89,0-1.33a.58.58,0,0,1,.24-.14,11.25,11.25,0,0,0,1.93-.89.24.24,0,0,0,.14-.2,9.18,9.18,0,0,1-1.93.82,1.06,1.06,0,0,0,.09-.13c.33-.36.65-.72,1-1.08a5.68,5.68,0,0,1,1.22-1.07c.07-.05.08-.12.12-.22l-.14.1c-.43.33-.84.69-1.25,1S31.63,20.62,31.18,21.1Z"/><path class="cls-5" d="M22.93,16.34h-.26a21,21,0,0,1-.26-4.19.24.24,0,0,0-.08-.23c0,.33,0,.64-.06.95a20.61,20.61,0,0,0,0,2.94s0,.08,0,.1-.08,0-.11-.06A5.81,5.81,0,0,1,20.48,14a.18.18,0,0,0-.07,0,10.72,10.72,0,0,0,1.77,2.32H19l-.06,0a10.49,10.49,0,0,1-1.81-1.16l-.42-.36a1.09,1.09,0,0,0,.32.44,10.14,10.14,0,0,0,1.32,1.12H16.75c-.06,0-.1,0-.1-.1a5,5,0,0,0-.37-2,2.86,2.86,0,0,1,.43.23,9,9,0,0,0,2.31,1,1.81,1.81,0,0,0,.57,0,.56.56,0,0,0,.57-.56A2.2,2.2,0,0,0,20,14c-.06-.17-.13-.34-.2-.54a2.65,2.65,0,0,0,.83.29,1.16,1.16,0,0,0,1.26-.7,3.81,3.81,0,0,0,.28-1.37c0-.11,0-.2.16-.16a.18.18,0,0,0,.2-.11,2,2,0,0,1,.09-.25c0,.16,0,.27.06.38a4.68,4.68,0,0,0,.55,1.68,1.09,1.09,0,0,0,.84.6,1.42,1.42,0,0,0,.88-.3l.07,0c0,.07,0,.12,0,.17a3.39,3.39,0,0,0-.19,1.22.68.68,0,0,0,.84.73,3.06,3.06,0,0,0,1.16-.42,12.83,12.83,0,0,0,1.71-1.11l.14-.09a8.65,8.65,0,0,0-.13,1.1,5.51,5.51,0,0,0,.06,1.15c0,.1,0,.13-.09.13H27.31a8,8,0,0,0,.81-1.42.32.32,0,0,0,0-.27c-.08.12-.16.24-.23.36-.32.46-.68.89-1,1.33-1.17,0-2.35,0-3.52,0a1.13,1.13,0,0,1,.1-.13,4.49,4.49,0,0,0,1-1.62,1.41,1.41,0,0,0,.12-.51.34.34,0,0,0-.18.24,3.3,3.3,0,0,1-.44.93A5.28,5.28,0,0,1,22.93,16.34Z"/><path class="cls-5" d="M16.9,30.66H22a7.62,7.62,0,0,1-.88.91,4.24,4.24,0,0,1-1.3.83c-.12.05-.16,0-.18-.09a.74.74,0,0,0-1-.68,3.38,3.38,0,0,0-1,.4l-.44.26a1.18,1.18,0,0,0,0-.53.57.57,0,0,0-.39-.39,2.27,2.27,0,0,0-1.1,0,8.29,8.29,0,0,0-1.29.38c-.06,0-.16.11-.17-.06s-.08-.08-.14-.1a.2.2,0,0,1-.16,0,4.24,4.24,0,0,0,.84-.38,1.87,1.87,0,0,0,.5-.43.17.17,0,0,1,.14-.1l1,0a9.58,9.58,0,0,1-.93.39.76.76,0,0,0,.21,0A1.54,1.54,0,0,0,16.9,30.66Z"/><path class="cls-4" d="M18,24.21v-.62c0-.61,0-1.22,0-1.83,0-.13,0-.17.16-.16s.38-.07.48,0,0,.3,0,.46c0,1.08,0,2.15,0,3.22,0,.14,0,.18-.17.17h-.58c-.1,0-.13,0-.15-.12-.17-.77-.33-1.53-.5-2.29a.41.41,0,0,0-.07-.17v2.43c0,.12,0,.17-.15.15s-.38.07-.48,0,0-.31,0-.46V21.77c0-.13,0-.18.17-.17h.55c.11,0,.16,0,.19.15.16.77.33,1.54.49,2.31,0,.05,0,.1,0,.15Z"/><path class="cls-5" d="M26.39,30.66h3.82c.08,0,.16,0,.21.09a2.56,2.56,0,0,0,.83.74l.06.05a1.4,1.4,0,0,1-.51-.07,10.33,10.33,0,0,0-2-.18,2,2,0,0,0-.43.07q-.42.12-.21.51l.1.17a.09.09,0,0,1-.1,0,7.67,7.67,0,0,0-1-.35,3.4,3.4,0,0,0-1.1-.15.59.59,0,0,0-.55.38.86.86,0,0,0,0,.42c-.76-.57-1.49-1.09-2.2-1.66a.21.21,0,0,1,.15,0h2.56a4.91,4.91,0,0,0,1.5.83C27.17,31.2,26.76,31,26.39,30.66Z"/><path class="cls-4" d="M15.79,19.1V17.9a1.46,1.46,0,0,1,0-.36.6.6,0,0,1,.48-.47,1.65,1.65,0,0,1,.7,0,.63.63,0,0,1,.6.65c0,.21,0,.41,0,.62s0,.1-.1.1c-.5,0-.5,0-.51-.46,0-.23-.09-.34-.28-.35a.26.26,0,0,0-.3.22.77.77,0,0,0,0,.15c0,.76,0,1.52,0,2.28,0,.21.06.31.21.34a.28.28,0,0,0,.37-.28,5,5,0,0,0,0-.55c0-.1,0-.13.13-.12h.4c.06,0,.1,0,.09.08a5.7,5.7,0,0,1,0,.92.61.61,0,0,1-.49.5,1.58,1.58,0,0,1-.78,0c-.35-.08-.51-.31-.52-.74s0-.87,0-1.31Z"/><path class="cls-4" d="M17.23,27.41a.46.46,0,0,1,.36.47c0,.3,0,.6,0,.89a.77.77,0,0,0,0,.26h-.58c-.13,0-.12-.09-.12-.17V28c0-.21,0-.24-.25-.25s-.13,0-.13.14c0,.34,0,.69,0,1,0,.11,0,.17-.15.16s-.38.07-.49,0,0-.32,0-.48c0-.81,0-1.62,0-2.42,0-.13,0-.17.16-.17h.79a1.14,1.14,0,0,1,.37,0,.45.45,0,0,1,.37.45c0,.18,0,.37,0,.55S17.48,27.31,17.23,27.41Zm-.31-.59a1.52,1.52,0,0,0,0-.21c0-.13-.16-.11-.26-.11s-.07.1-.08.16,0,.25,0,.38,0,.1.11.1S16.91,27.09,16.92,26.82Z"/><path class="cls-4" d="M23.56,20.65h5.22A.2.2,0,0,1,29,21a.09.09,0,0,1-.09,0H18.29c-.14,0-.18,0-.18-.19s.05-.17.18-.17Z"/><path class="cls-4" d="M23.42,29H18.19c-.06,0-.15,0-.17,0a.88.88,0,0,1,0-.28s.06,0,.1,0H28.63c.06,0,.15,0,.18,0a.66.66,0,0,1,0,.28c0,.06-.09,0-.13,0H23.42Z"/><path class="cls-4" d="M24.17,25.29h-5A.2.2,0,0,1,19,25c0-.07.08,0,.13,0h10.1a.2.2,0,0,1,.18.3c0,.05-.06,0-.09,0H24.17Z"/><path class="cls-4" d="M25.07,23c0,.5,0,1,0,1.5,0,.16,0,.2-.21.19-.31,0-.31,0-.31-.32,0-.71,0-1.42,0-2.13,0-.13,0-.2.17-.18s.38-.06.5,0,.11.31.15.47l.27,1.09s0,.08.06.11V22.41c0-.41,0-.41.41-.38.08,0,.11,0,.11.11,0,.8,0,1.61,0,2.41,0,.09,0,.11-.12.11h-.44c-.1,0-.13,0-.15-.13-.12-.49-.25-1-.37-1.47l0-.09Z"/><path class="cls-4" d="M27.81,18.61c0,.51,0,1,0,1.53,0,.13,0,.17-.17.17-.34,0-.35,0-.35-.36,0-.7,0-1.41,0-2.11,0-.13,0-.18.16-.17s.38-.05.5,0,.11.31.15.47c.11.42.21.83.33,1.25a.76.76,0,0,0,0-.15V17.81c0-.1,0-.14.13-.14.37,0,.37,0,.37.37,0,.7,0,1.41,0,2.11,0,.12,0,.17-.15.16s-.39.05-.5,0-.11-.31-.15-.48c-.11-.39-.21-.79-.31-1.19Z"/><path class="cls-4" d="M20.07,18.6v.75c0,.27,0,.55,0,.82,0,.1,0,.14-.12.14-.39,0-.39,0-.39-.38,0-.7,0-1.4,0-2.1,0-.12,0-.17.16-.16h.39c.11,0,.15,0,.18.14.12.49.24,1,.37,1.49a.14.14,0,0,0,.05.09v-.12q0-.73,0-1.47c0-.09,0-.13.13-.13.38,0,.38,0,.38.37v2.12c0,.11,0,.16-.14.15h-.41c-.1,0-.13,0-.15-.13l-.39-1.51S20.12,18.61,20.07,18.6Z"/><path class="cls-4" d="M22.83,23.34c0-.28,0-.55,0-.83S23,22,23.34,22h.34c.35,0,.51.16.52.5,0,.57,0,1.13,0,1.7,0,.34-.16.47-.49.51a2.06,2.06,0,0,1-.43,0,.44.44,0,0,1-.45-.48c0-.29,0-.58,0-.87Zm.53,0h0V24c0,.11,0,.21.16.21s.15-.09.15-.21c0-.45,0-.91,0-1.37,0-.11,0-.2-.16-.19s-.15.1-.15.2Z"/><path class="cls-4" d="M23.16,19c0-.38,0-.76,0-1.14,0-.15,0-.19.19-.18s.44,0,.66,0,.49.18.5.53,0,.76,0,1.14a3,3,0,0,1,0,.52.44.44,0,0,1-.39.4,6.28,6.28,0,0,1-.87,0c-.1,0-.07-.07-.07-.12,0-.4,0-.8,0-1.19ZM24,19v-.4c0-.1,0-.21,0-.31s-.09-.14-.19-.14-.08.09-.08.15v1.4c0,.05,0,.12.06.12s.17,0,.19-.08a.57.57,0,0,0,0-.18Z"/><path class="cls-4" d="M19.71,22c.35,0,.35,0,.4.35l.36,2.1c0,.13,0,.21-.15.18h0c-.35,0-.36,0-.4-.35,0-.17-.14-.1-.22-.11s-.17,0-.19.12c0,.34,0,.34-.39.34s-.21,0-.17-.21c.12-.76.25-1.51.37-2.26,0-.12.07-.18.19-.16Zm0,.57h0c0,.35-.08.69-.11,1,0,.11.07.07.12.08s.13,0,.11-.11C19.78,23.28,19.75,22.94,19.71,22.6Z"/><path class="cls-4" d="M27.26,22c.36,0,.36,0,.42.33.12.71.23,1.43.36,2.13,0,.14,0,.19-.14.17h0c-.34,0-.35,0-.39-.33s-.16-.11-.25-.13-.14,0-.15.14c0,.32,0,.32-.36.32s-.24,0-.2-.23c.12-.74.25-1.48.37-2.21,0-.15.08-.22.23-.19Zm0,.57h0l-.12,1c0,.12.09.07.14.08s.11,0,.1-.11C27.34,23.28,27.31,22.94,27.28,22.6Z"/><path class="cls-4" d="M18.59,17.67c.35,0,.35,0,.41.35.12.72.24,1.45.37,2.17,0,.1,0,.13-.1.12H19.2c-.12,0-.26,0-.35,0s-.05-.21-.07-.32-.15-.1-.23-.12-.15,0-.17.12,0,.27-.06.33-.23,0-.34,0-.2,0-.16-.2c.13-.75.26-1.5.38-2.25,0-.14.06-.2.21-.18Zm0,.59h0c0,.34-.08.67-.11,1,0,.08,0,.12.09.1s.15,0,.14-.09,0-.39-.05-.58S18.62,18.4,18.61,18.26Z"/><path class="cls-4" d="M26.34,17.67c.34,0,.35,0,.41.34.12.73.24,1.46.37,2.18,0,.09,0,.13-.1.12H27c-.12,0-.26,0-.35,0s-.06-.22-.07-.34,0-.1-.12-.1c-.25,0-.25,0-.29.23s0,.24-.29.24-.3,0-.25-.3l.36-2.19c0-.12.06-.17.18-.15Zm0,.61h0c0,.33-.07.66-.11,1,0,.1.05.1.11.09s.14,0,.13-.09C26.41,18.94,26.38,18.61,26.35,18.28Z"/><path class="cls-4" d="M22.19,17.67c.35,0,.35,0,.41.36L23,20.11c0,.15,0,.22-.16.2s-.25,0-.34,0-.06-.21-.07-.33-.17-.1-.27-.12-.12,0-.13.13c0,.34,0,.33-.39.34h-.1c-.1,0-.11,0-.1-.13.11-.62.22-1.24.32-1.87a4,4,0,0,0,.08-.48c0-.14.07-.17.19-.16Zm0,.59h0c0,.33-.07.66-.11,1,0,.12.05.11.12.11s.13,0,.11-.11,0-.24,0-.36Z"/><path class="cls-4" d="M23.68,28.21s0,.06-.06.07a1.45,1.45,0,0,0-.36,0l-.09,0a.43.43,0,0,0,0-.19c-.06-.29-.11-.58-.17-.88,0,0,0,0,0-.06a1.13,1.13,0,0,0-.06.32c0,.24-.07.49-.1.73,0,0,0,0,0,0s-.3,0-.45,0-.08-.08-.09-.13L22,26.79c0-.08,0-.15,0-.23s-.07-.18,0-.21a.6.6,0,0,1,.35,0c.05,0,0,.07,0,.12.05.33.09.66.14,1,0,0,0,.05.05.08,0-.17.05-.33.08-.5s.06-.38.07-.57.06-.14.16-.14c.37,0,.37,0,.42.36s.07.5.11.75c0,0,0,.08.06.11l.15-1c0-.06,0-.16.07-.17a1.15,1.15,0,0,1,.32,0c.05,0,0,.06,0,.1-.09.51-.18,1-.28,1.54,0,.06,0,.12,0,.18h0S23.68,28.2,23.68,28.21Z"/><path class="cls-5" d="M22,34.15c-.32,0-.45-.12-.49-.42a1.75,1.75,0,0,1,.24-1,4.84,4.84,0,0,0,.49-1.58,2.31,2.31,0,0,0,0-.37c0-.1.05-.12.14-.13.38,0,.39,0,.33.36a12.28,12.28,0,0,0-.13,2.1,1.17,1.17,0,0,1-.4,1A.23.23,0,0,1,22,34.15Z"/><path class="cls-4" d="M27.75,27.69c.1,0,.21,0,.22.16s.11.15.21.16a.36.36,0,0,0,.34-.09.2.2,0,0,0-.09-.31,1.69,1.69,0,0,0-.44-.12.52.52,0,0,1-.46-.6A.58.58,0,0,1,28,26.3a.92.92,0,0,1,.63.06.51.51,0,0,1,.21.2c.06.1.14.24.07.32s-.25,0-.38,0-.05-.07-.06-.12a.29.29,0,0,0-.41-.14.22.22,0,0,0-.1.18.19.19,0,0,0,.11.17,3.76,3.76,0,0,0,.48.13.51.51,0,0,1,.44.49.61.61,0,0,1-.37.66.9.9,0,0,1-.8,0,.52.52,0,0,1-.31-.32C27.44,27.72,27.46,27.69,27.75,27.69Z"/><path class="cls-4" d="M18.76,27.9h-.08c-.15,0-.22,0-.25.18s0,.18-.09.19a1.41,1.41,0,0,1-.41,0c-.06,0,0-.08,0-.12.13-.42.27-.84.4-1.26.05-.15.1-.3.14-.46s.07-.1.16-.1c.43,0,.43,0,.57.41s.28.93.44,1.4c0,.12,0,.16-.11.14h-.14c-.16,0-.26,0-.27-.2s-.1-.2-.25-.18Zm0-1h0l-.1.37c-.08.28-.07.3.22.26h0c.05,0,.06,0,0-.08S18.85,27.07,18.8,26.88Z"/><path class="cls-4" d="M25.28,28.23h0c-.06-.1,0-.28-.13-.31a2.17,2.17,0,0,0-.51,0,.05.05,0,0,0-.06.06,2.29,2.29,0,0,0-.07.28l0,0h-.44c-.06,0,0-.08,0-.12.18-.57.37-1.15.55-1.73,0-.09.07-.11.16-.11.43,0,.43,0,.56.4s.2.69.34,1c.06.14.07.31.12.46s0,0,0,.06l0,0h-.43Zm-.36-1.35h0c0,.13-.07.26-.11.39s0,.3.24.25c.05,0,.06,0,.05-.07Z"/><path class="cls-4" d="M20.73,23.58c0-.31,0-.62,0-.93,0-.1,0-.14-.14-.14-.26,0-.26,0-.26-.27s0-.21.21-.21h1c.1,0,.15,0,.13.13v.05c0,.29,0,.3-.28.3-.12,0-.12.06-.12.14v1.86c0,.12,0,.15-.15.15-.38,0-.38,0-.38-.39v-.69Z"/><path class="cls-6" d="M12.85,19.11a4.07,4.07,0,0,1,.52,1.61,1.53,1.53,0,0,1,0,.3.54.54,0,0,0,.32.57c.17.09.31.24.5.32a1.6,1.6,0,0,1,0,.38A5.9,5.9,0,0,1,11.82,21c.08-.05.13,0,.17,0a14,14,0,0,0,1.29.76s.08.07.12,0,0-.08-.06-.11a9.2,9.2,0,0,1-1.6-1.7c-.22-.29-.41-.6-.6-.91.08,0,.1.07.13.11A11.33,11.33,0,0,0,13,21.06s.08.09.12.07,0-.1,0-.15a7.63,7.63,0,0,0-.31-1.65,1.55,1.55,0,0,1,0-.21Z"/><path class="cls-4" d="M28.32,23.34c0-.39,0-.78,0-1.17,0-.11,0-.14.14-.14.4,0,.4,0,.4.39V24c0,.13,0,.18.16.16h.07c.37,0,.37,0,.34.37,0,.08,0,.1-.11.1h-.86c-.11,0-.14,0-.14-.14C28.32,24.12,28.32,23.73,28.32,23.34Z"/><path class="cls-6" d="M22.18,16.34A10.72,10.72,0,0,1,20.41,14a.18.18,0,0,1,.07,0,5.81,5.81,0,0,0,1.64,1.88s.06.08.11.06,0-.07,0-.1a20.61,20.61,0,0,1,0-2.94c0-.31,0-.62.06-.95a.24.24,0,0,1,.08.23,21,21,0,0,0,.26,4.19A2,2,0,0,1,22.18,16.34Z"/><path class="cls-4" d="M22.46,23.37v1.15c0,.11,0,.14-.14.14-.4,0-.4,0-.4-.4V22.2c0-.13,0-.17.16-.17.38,0,.38,0,.38.38Z"/><path class="cls-4" d="M26.37,28.29l-.07,0c0-.13,0-.27,0-.41s0-.21,0-.31c-.21-.36-.35-.74-.54-1.1-.05-.1,0-.11.07-.12.38,0,.38,0,.53.33l.21.43c.1-.22.19-.41.27-.61a.21.21,0,0,1,.23-.15c.34,0,.34,0,.18.31s-.31.62-.46.94c0,0,0,0,0,.06v.64h-.07a.08.08,0,0,0-.09,0h-.2Z"/><path class="cls-4" d="M25.34,19c0,.4,0,.8,0,1.19,0,.1,0,.14-.13.14-.41,0-.41,0-.41-.41V17.84c0-.12,0-.17.15-.17.38,0,.38,0,.38.37Z"/><path class="cls-4" d="M20.73,27.31v-.85c0-.09,0-.13.11-.13.33,0,.33,0,.33.32s0,.72,0,1.08c0,.12,0,.17.15.16s.32,0,.48,0,.13,0,.13.14c0,.27,0,.27-.27.27h-.77c-.12,0-.17,0-.17-.16S20.73,27.59,20.73,27.31Z"/><path class="cls-6" d="M31.18,21.1c.45-.48.91-1,1.4-1.38s.82-.71,1.25-1l.14-.1c0,.1,0,.17-.12.22a5.68,5.68,0,0,0-1.22,1.07c-.34.36-.66.72-1,1.08a1.06,1.06,0,0,1-.09.13,9.18,9.18,0,0,0,1.93-.82.24.24,0,0,1-.14.2,11.25,11.25,0,0,1-1.93.89.58.58,0,0,0-.24.14A1.28,1.28,0,0,1,31.18,21.1Z"/><path class="cls-4" d="M19.91,26.35l0,0a0,0,0,0,0,.07,0h.09a.13.13,0,0,0,.12,0h.05l.07,0h0v1.91h0l-.13,0h-.14c-.12,0-.17-.05-.17-.19C19.92,27.52,19.92,26.94,19.91,26.35Z"/><path class="cls-6" d="M31.17,24.81a5.68,5.68,0,0,0,1.25.4,4.26,4.26,0,0,0,1.38,0c.14,0,.14,0,.29.08a2.46,2.46,0,0,1-.69.16,4.54,4.54,0,0,1-2.12-.31l-.1,0A1.08,1.08,0,0,1,31.17,24.81Z"/><path class="cls-6" d="M14.22,25.52a11.92,11.92,0,0,1-2.39,0,2.78,2.78,0,0,1-.63-.11,1.51,1.51,0,0,1,.55-.12,9.28,9.28,0,0,0,2.47,0A.49.49,0,0,1,14.22,25.52Z"/><path class="cls-6" d="M22.93,16.34a5.28,5.28,0,0,0,1-1.09,3.3,3.3,0,0,0,.44-.93.34.34,0,0,1,.18-.24,1.41,1.41,0,0,1-.12.51,4.49,4.49,0,0,1-1,1.62,1.13,1.13,0,0,0-.1.13A1.62,1.62,0,0,1,22.93,16.34Z"/><path class="cls-6" d="M18.36,16.34A10.14,10.14,0,0,1,17,15.22a1.09,1.09,0,0,1-.32-.44l.42.36A10.49,10.49,0,0,0,19,16.3l.06,0A2.83,2.83,0,0,1,18.36,16.34Z"/><path class="cls-6" d="M31.17,22.82a2.9,2.9,0,0,0,2.42-.63,2.67,2.67,0,0,1-2.42.9Z"/><path class="cls-6" d="M26.89,16.34c.35-.44.71-.87,1-1.33.07-.12.15-.24.23-.36a.32.32,0,0,1,0,.27,8,8,0,0,1-.81,1.42A1.48,1.48,0,0,1,26.89,16.34Z"/><path class="cls-6" d="M26.39,30.66c.37.3.78.54,1.16.83a4.91,4.91,0,0,1-1.5-.83A1.29,1.29,0,0,1,26.39,30.66Z"/><path class="cls-6" d="M16.9,30.66a1.54,1.54,0,0,1-1.17.43.76.76,0,0,1-.21,0,9.58,9.58,0,0,0,.93-.39A1.7,1.7,0,0,1,16.9,30.66Z"/><polygon class="cls-6" points="12.85 19.12 12.84 19.11 12.85 19.11 12.85 19.12"/><path class="cls-6" d="M34.83,25s0,0,0,0Z"/><path class="cls-6" d="M16.92,26.82c0,.27-.06.33-.26.32s-.11,0-.11-.1,0-.25,0-.38,0-.16.08-.16.22,0,.26.11A1.52,1.52,0,0,1,16.92,26.82Z"/><path class="cls-6" d="M23.36,23.34v-.68c0-.1,0-.2.15-.2s.16.08.16.19c0,.46,0,.92,0,1.37,0,.12,0,.21-.15.21s-.16-.1-.16-.21v-.68Z"/><path class="cls-6" d="M24,19v.56a.57.57,0,0,1,0,.18c0,.09-.11.08-.19.08s-.06-.07-.06-.12V18.3c0-.06,0-.14.08-.15s.18,0,.19.14,0,.21,0,.31Z"/><path class="cls-6" d="M19.71,22.6c0,.34.07.68.1,1,0,.1,0,.12-.11.11s-.14,0-.12-.08c0-.35.07-.69.11-1Z"/><path class="cls-6" d="M27.28,22.6c0,.34.06.68.1,1,0,.08,0,.12-.1.11s-.15,0-.14-.08l.12-1Z"/><path class="cls-6" d="M18.61,18.26c0,.14,0,.29,0,.43s0,.39.05.58-.08.08-.14.09-.1,0-.09-.1c0-.33.07-.66.11-1Z"/><path class="cls-6" d="M26.35,18.28c0,.33.06.66.1,1,0,.13-.08.08-.13.09s-.12,0-.11-.09c0-.33.07-.66.11-1Z"/><path class="cls-6" d="M22.21,18.26l.06.63c0,.12,0,.24,0,.36s0,.12-.11.11-.14,0-.12-.11c0-.33.07-.66.11-1Z"/><path class="cls-6" d="M18.8,26.88c.05.19.11.38.15.56s0,.08,0,.08h0c-.29,0-.3,0-.22-.26l.1-.37Z"/><path class="cls-6" d="M24.92,26.88l.15.57s0,.06-.05.07c-.26.05-.31,0-.24-.25s.07-.26.11-.39Z"/><path class="cls-7" d="M12.36,27.48l-.25.12a14.61,14.61,0,0,1,2.12,1.09V27.62c0-.7,0-1.4,0-2.1a.49.49,0,0,0,0-.24c0-1,0-2,0-3a7.89,7.89,0,0,1-1.43-.61,7.89,7.89,0,0,0,1.43.61,1.6,1.6,0,0,0,0-.38.43.43,0,0,1,0-.05V19.15c0-.09,0-.11-.11-.13A5,5,0,0,1,13,18.46a1.45,1.45,0,0,0-.34-.2,2,2,0,0,1,0,.26c-.08.34-.27.46-.6.37a1.74,1.74,0,0,1-.75-.44,1.64,1.64,0,0,1-.33-.26h0a0,0,0,0,1,0,0h0l0,0-.25-.21a.33.33,0,0,1,0,.38c-.05.06-.18.06-.16.15s.11.13.17.2a1,1,0,0,1,.08.11,1.54,1.54,0,0,1,.33.42.85.85,0,0,1,.19.42c0,.22-.18.38-.43.34-.09,0-.07,0,0,.1a3.67,3.67,0,0,1,.73,1c.19.41,0,.68-.42.7a2,2,0,0,1-.58,0c0,.13.12.22.1.34s.08.08.13.11a6.44,6.44,0,0,1,1.53,1.06l.23.27a.77.77,0,0,1-.2,1.2,4,4,0,0,1-1.54.57.85.85,0,0,1-.23,0s0,0,0,.06l.09,0c.34.16.68.32,1,.5a2.94,2.94,0,0,1,.94.74A.5.5,0,0,1,12.36,27.48Zm1-7.1a3.47,3.47,0,0,0-.41-1.17A3.47,3.47,0,0,1,13.31,20.38Z"/><path class="cls-7" d="M32.86,23.53a3.83,3.83,0,0,1,1-1.21c.24-.21.5-.4.74-.61l-.29,0a1.19,1.19,0,0,1-.46,0,.4.4,0,0,1-.34-.42,1.65,1.65,0,0,1,.17-.65,4.2,4.2,0,0,1,.58-.92c-.1,0-.19,0-.28,0s-.32-.12-.23-.33a1.76,1.76,0,0,1,.48-.71c0-.08.44-.49.46-.57a3.78,3.78,0,0,0-.71.13l-.19.08a3,3,0,0,1-.86.39c-.26.06-.39-.08-.31-.34,0,0,0-.1,0-.16h0a5.77,5.77,0,0,1-1.39.73c-.09,0-.07.08-.07.14,0,.39,0,.79,0,1.19a7,7,0,0,0,0,.79,1.28,1.28,0,0,0,0,.39c0,.44,0,.88,0,1.33v.27l.36,0-.36,0c0,.57,0,1.14,0,1.72a1.08,1.08,0,0,0,0,.31.31.31,0,0,0,0,.08c0,1.06,0,2.12,0,3.18,0,0,0,.07,0,.08s0,0,.08,0a7.65,7.65,0,0,1,1.16-.79l.72-.37L33,27.19a.36.36,0,0,1-.17-.55,1.19,1.19,0,0,1,.21-.29,6,6,0,0,1,1.32-1,1.25,1.25,0,0,1,.41-.22l0,0v0a4.58,4.58,0,0,1-1.51-.32A.8.8,0,0,1,32.86,23.53Z"/><path class="cls-7" d="M26.89,16.34a1.48,1.48,0,0,0,.42,0h1.18c.1,0,.11,0,.09-.13a5.51,5.51,0,0,1-.06-1.15,8.65,8.65,0,0,1,.13-1.1l-.14.09a12.83,12.83,0,0,1-1.71,1.11,3.06,3.06,0,0,1-1.16.42.68.68,0,0,1-.84-.73A3.39,3.39,0,0,1,25,13.64c0-.05.05-.1,0-.17l-.07,0a1.42,1.42,0,0,1-.88.3,1.09,1.09,0,0,1-.84-.6,4.68,4.68,0,0,1-.55-1.68c0-.11,0-.22-.06-.38a2,2,0,0,0-.09.25.18.18,0,0,1-.2.11c-.16,0-.15.05-.16.16a3.81,3.81,0,0,1-.28,1.37,1.16,1.16,0,0,1-1.26.7,2.65,2.65,0,0,1-.83-.29c.07.2.14.37.2.54a2.2,2.2,0,0,1,.17.95.56.56,0,0,1-.57.56,1.81,1.81,0,0,1-.57,0,9,9,0,0,1-2.31-1,2.86,2.86,0,0,0-.43-.23,5,5,0,0,1,.37,2c0,.08,0,.1.1.1h1.61a2.83,2.83,0,0,0,.65,0h3.17a2,2,0,0,0,.49,0h.26a1.62,1.62,0,0,0,.44,0C24.54,16.36,25.72,16.35,26.89,16.34Z"/><path class="cls-7" d="M21.86,30.66h-5a1.7,1.7,0,0,0-.45,0l-1,0a.17.17,0,0,0-.14.1,1.87,1.87,0,0,1-.5.43,4.24,4.24,0,0,1-.84.38.2.2,0,0,0,.16,0c.06,0,.14,0,.14.1s.11.08.17.06a8.29,8.29,0,0,1,1.29-.38,2.27,2.27,0,0,1,1.1,0,.57.57,0,0,1,.39.39,1.18,1.18,0,0,1,0,.53l.44-.26a3.38,3.38,0,0,1,1-.4.74.74,0,0,1,1,.68c0,.12.06.14.18.09a4.24,4.24,0,0,0,1.3-.83,7.62,7.62,0,0,0,.88-.91Z"/><path class="cls-7" d="M30.42,30.74c-.05-.09-.13-.09-.21-.09H26.39a1.29,1.29,0,0,0-.34,0H23.49a.21.21,0,0,0-.15,0c.71.57,1.44,1.09,2.2,1.66a.86.86,0,0,1,0-.42.59.59,0,0,1,.55-.38,3.4,3.4,0,0,1,1.1.15,7.67,7.67,0,0,1,1,.35.09.09,0,0,0,.1,0l-.1-.17q-.21-.39.21-.51a2,2,0,0,1,.43-.07,10.33,10.33,0,0,1,2,.18,1.4,1.4,0,0,0,.51.07l-.06-.05A2.56,2.56,0,0,1,30.42,30.74Z"/><path class="cls-7" d="M22.36,30.65c-.09,0-.13,0-.14.13a2.31,2.31,0,0,1,0,.37,4.84,4.84,0,0,1-.49,1.58,1.75,1.75,0,0,0-.24,1c0,.3.17.42.49.42a.23.23,0,0,0,.21-.07,1.17,1.17,0,0,0,.4-1,12.28,12.28,0,0,1,.13-2.1C22.75,30.64,22.74,30.64,22.36,30.65Z"/><path class="cls-7" d="M34.83,25h0v0S34.86,25.05,34.83,25Z"/><rect class="cls-3" x="14.24" y="16.36" width="16.86" height="14.26"/><path class="cls-8" d="M34.9,18.42a.07.07,0,0,1,0-.07A.43.43,0,0,0,34.9,18.42Z"/><path class="cls-5" d="M11.26,18.45a1.74,1.74,0,0,0,.75.44c.33.09.52,0,.6-.37a2,2,0,0,0,0-.26,1.45,1.45,0,0,1,.34.2,5,5,0,0,0,1.13.56c.07,0,.11,0,.11.13v2.71a.43.43,0,0,0,0,.05c-.19-.08-.33-.23-.5-.32A.54.54,0,0,1,13.4,21a1.53,1.53,0,0,0,0-.3,4.07,4.07,0,0,0-.52-1.61h0a1.55,1.55,0,0,0,0,.21A7.63,7.63,0,0,1,13.2,21c0,.05,0,.12,0,.15s-.08,0-.12-.07a11.33,11.33,0,0,1-1.77-1.89s0-.11-.13-.11c.19.31.38.62.6.91a9.2,9.2,0,0,0,1.6,1.7s.1.06.06.11-.08,0-.12,0A12.83,12.83,0,0,1,12,21s-.09-.08-.17,0a5.9,5.9,0,0,0,2.41,1.33c0,1,0,2,0,3a9.28,9.28,0,0,1-2.47,0,1.51,1.51,0,0,0-.55.12,2.78,2.78,0,0,0,.63.11,11.92,11.92,0,0,0,2.39,0c0,.7,0,1.4,0,2.1v1.07a14.61,14.61,0,0,0-2.12-1.09l.25-.12a.5.5,0,0,0,.18-.85,2.94,2.94,0,0,0-.94-.74c-.32-.18-.66-.34-1-.5l-.09,0s0,0,0-.06a.85.85,0,0,0,.23,0,4,4,0,0,0,1.54-.57.77.77,0,0,0,.2-1.2l-.23-.27a6.44,6.44,0,0,0-1.53-1.06s-.14-.05-.13-.11-.05-.21-.1-.34a2,2,0,0,0,.58,0c.44,0,.61-.29.42-.7a3.67,3.67,0,0,0-.73-1c-.05-.05-.07-.09,0-.1.25,0,.46-.12.43-.34a.85.85,0,0,0-.19-.42,1.54,1.54,0,0,0-.33-.42,1,1,0,0,0-.08-.11c-.06-.07-.15-.12-.17-.2s.11-.09.16-.15a.33.33,0,0,0,0-.38l.25.21,0,0h0a0,0,0,0,0,0,0h0A1.64,1.64,0,0,0,11.26,18.45Z"/><path class="cls-5" d="M31.18,21.1a7,7,0,0,1,0-.79c0-.4,0-.8,0-1.19,0-.06,0-.12.07-.14a5.77,5.77,0,0,0,1.39-.73h0c0,.06,0,.11,0,.16-.08.26,0,.4.31.34a3,3,0,0,0,.86-.39l.19-.08a1.14,1.14,0,0,0,.22-.07,2.63,2.63,0,0,1,.49-.06c0,.08-.12.1-.12.18a.55.55,0,0,0-.17.2.45.45,0,0,0-.17.19,1.88,1.88,0,0,0-.49.71c-.08.21,0,.32.23.33s.19-.06.29,0a4.2,4.2,0,0,0-.58.92,1.65,1.65,0,0,0-.17.65.4.4,0,0,0,.34.42,1.19,1.19,0,0,0,.46,0l.29,0c-.24.21-.5.4-.74.61a3.83,3.83,0,0,0-1,1.21.8.8,0,0,0,.46,1.18,4.58,4.58,0,0,0,1.51.32h0v0l0,0a1.25,1.25,0,0,0-.41.22,6,6,0,0,0-1.32,1,1.19,1.19,0,0,0-.21.29.36.36,0,0,0,.17.55l.14.08-.72.37a7.65,7.65,0,0,0-1.16.79s-.05.05-.08,0,0-.05,0-.08c0-1.06,0-2.12,0-3.18a.31.31,0,0,1,0-.08l.1,0a4.54,4.54,0,0,0,2.12.31,2.46,2.46,0,0,0,.69-.16c-.15-.1-.15-.1-.29-.08a4.26,4.26,0,0,1-1.38,0,5.68,5.68,0,0,1-1.25-.4c0-.58,0-1.15,0-1.72a2.67,2.67,0,0,0,2.42-.9,2.9,2.9,0,0,1-2.42.63c0-.45,0-.89,0-1.33a.58.58,0,0,1,.24-.14,11.25,11.25,0,0,0,1.93-.89.24.24,0,0,0,.14-.2,9.18,9.18,0,0,1-1.93.82,1.06,1.06,0,0,0,.09-.13c.33-.36.65-.72,1-1.08a5.68,5.68,0,0,1,1.22-1.07c.07-.05.08-.12.12-.22l-.14.1c-.43.33-.84.69-1.25,1S31.63,20.62,31.18,21.1Z"/><path class="cls-5" d="M22.93,16.34h-.26a21,21,0,0,1-.26-4.19.24.24,0,0,0-.08-.23c0,.33,0,.64-.06.95a20.61,20.61,0,0,0,0,2.94s0,.08,0,.1-.08,0-.11-.06A5.81,5.81,0,0,1,20.48,14a.18.18,0,0,0-.07,0,10.72,10.72,0,0,0,1.77,2.32H19l-.06,0a10.49,10.49,0,0,1-1.81-1.16l-.42-.36a1.09,1.09,0,0,0,.32.44,10.14,10.14,0,0,0,1.32,1.12H16.75c-.06,0-.1,0-.1-.1a5,5,0,0,0-.37-2,2.86,2.86,0,0,1,.43.23,9,9,0,0,0,2.31,1,1.81,1.81,0,0,0,.57,0,.56.56,0,0,0,.57-.56A2.2,2.2,0,0,0,20,14c-.06-.17-.13-.34-.2-.54a2.65,2.65,0,0,0,.83.29,1.16,1.16,0,0,0,1.26-.7,3.81,3.81,0,0,0,.28-1.37c0-.11,0-.2.16-.16a.18.18,0,0,0,.2-.11,2,2,0,0,1,.09-.25c0,.16,0,.27.06.38a4.68,4.68,0,0,0,.55,1.68,1.09,1.09,0,0,0,.84.6,1.42,1.42,0,0,0,.88-.3l.07,0c0,.07,0,.12,0,.17a3.39,3.39,0,0,0-.19,1.22.68.68,0,0,0,.84.73,3.06,3.06,0,0,0,1.16-.42,12.83,12.83,0,0,0,1.71-1.11l.14-.09a8.65,8.65,0,0,0-.13,1.1,4.91,4.91,0,0,0,.06,1.15c0,.1,0,.13-.09.13H27.31a8,8,0,0,0,.81-1.42.32.32,0,0,0,0-.27l-.24.36c-.31.46-.67.89-1,1.33-1.17,0-2.35,0-3.52,0a1.13,1.13,0,0,1,.1-.13,4.49,4.49,0,0,0,1-1.62,1.41,1.41,0,0,0,.12-.51.34.34,0,0,0-.18.24,3.3,3.3,0,0,1-.44.93A5.28,5.28,0,0,1,22.93,16.34Z"/><path class="cls-5" d="M16.9,30.66H22a7.62,7.62,0,0,1-.88.91,4.24,4.24,0,0,1-1.3.83c-.12.05-.16,0-.18-.09a.74.74,0,0,0-1-.68,3.38,3.38,0,0,0-1,.4l-.44.26a1.18,1.18,0,0,0,0-.53.57.57,0,0,0-.39-.39,2.27,2.27,0,0,0-1.1,0,8.29,8.29,0,0,0-1.29.38c-.06,0-.16.11-.17-.06s-.08-.08-.14-.1a.2.2,0,0,1-.16,0,4.24,4.24,0,0,0,.84-.38,1.87,1.87,0,0,0,.5-.43.17.17,0,0,1,.14-.1l1,0a9.58,9.58,0,0,1-.93.39.76.76,0,0,0,.21,0A1.54,1.54,0,0,0,16.9,30.66Z"/><path class="cls-8" d="M18,24.21v-.62c0-.61,0-1.22,0-1.83,0-.13,0-.17.16-.16s.38-.07.48,0,0,.3,0,.46c0,1.08,0,2.15,0,3.22,0,.14,0,.18-.18.17h-.57c-.1,0-.13,0-.15-.12-.17-.77-.33-1.53-.5-2.29a.41.41,0,0,0-.07-.17v2.43c0,.12,0,.17-.16.15s-.37.07-.47,0,0-.31,0-.46V21.77c0-.13,0-.18.17-.17h.55c.11,0,.16,0,.19.15.16.77.33,1.54.49,2.31,0,.05,0,.1,0,.15Z"/><path class="cls-5" d="M26.39,30.66h3.82c.08,0,.16,0,.21.09a2.56,2.56,0,0,0,.83.74l.06.05a1.4,1.4,0,0,1-.51-.07,10.33,10.33,0,0,0-2-.18,2,2,0,0,0-.43.07q-.42.12-.21.51l.1.17a.09.09,0,0,1-.1,0,7.29,7.29,0,0,0-1-.35,3.3,3.3,0,0,0-1.09-.15.59.59,0,0,0-.55.38.86.86,0,0,0,0,.42c-.76-.57-1.49-1.09-2.2-1.66a.21.21,0,0,1,.15,0h2.56a4.91,4.91,0,0,0,1.5.83C27.17,31.2,26.76,31,26.39,30.66Z"/><path class="cls-8" d="M15.79,19.1V17.9a1.1,1.1,0,0,1,0-.36.6.6,0,0,1,.48-.47,1.65,1.65,0,0,1,.7,0,.63.63,0,0,1,.6.65c0,.21,0,.41,0,.62s0,.1-.1.1c-.5,0-.5,0-.51-.46,0-.23-.09-.34-.28-.35a.26.26,0,0,0-.3.22.77.77,0,0,0,0,.15c0,.76,0,1.52,0,2.28,0,.21.06.31.21.34a.28.28,0,0,0,.37-.28,5,5,0,0,0,0-.55c0-.1,0-.13.13-.12h.4c.06,0,.1,0,.09.08a5.7,5.7,0,0,1,0,.92.61.61,0,0,1-.49.5,1.58,1.58,0,0,1-.78,0c-.35-.08-.51-.31-.52-.74s0-.87,0-1.31Z"/><path class="cls-8" d="M17.23,27.41a.46.46,0,0,1,.36.47c0,.3,0,.6,0,.89a.77.77,0,0,0,0,.26h-.58c-.13,0-.12-.09-.12-.17V28c0-.21,0-.24-.25-.25s-.13,0-.13.14c0,.34,0,.69,0,1,0,.11,0,.17-.15.16s-.38.07-.49,0,0-.32,0-.48c0-.81,0-1.62,0-2.42,0-.13,0-.17.16-.17h.79a1.18,1.18,0,0,1,.37,0,.45.45,0,0,1,.37.45c0,.18,0,.37,0,.55S17.48,27.31,17.23,27.41Zm-.31-.59a1.52,1.52,0,0,0,0-.21c0-.13-.16-.11-.26-.11s-.07.1-.08.16,0,.25,0,.38,0,.1.11.1S16.91,27.09,16.92,26.82Z"/><path class="cls-8" d="M23.56,20.65h5.22A.2.2,0,0,1,29,21a.09.09,0,0,1-.09,0H18.29c-.14,0-.18,0-.18-.19s.05-.17.18-.17Z"/><path class="cls-8" d="M23.42,29H18.19c-.06,0-.15,0-.17,0a.88.88,0,0,1,0-.28s.06,0,.1,0H28.63c.06,0,.15,0,.18,0a.66.66,0,0,1,0,.28c0,.06-.09,0-.13,0H23.42Z"/><path class="cls-8" d="M24.17,25.29h-5A.2.2,0,0,1,19,25c0-.07.08,0,.13,0h10.1a.2.2,0,0,1,.18.3c0,.05-.06,0-.09,0H24.17Z"/><path class="cls-8" d="M25.07,23c0,.5,0,1,0,1.5,0,.16,0,.2-.21.19-.31,0-.31,0-.31-.32,0-.71,0-1.42,0-2.13,0-.13,0-.2.17-.18s.38-.06.5,0,.11.31.15.47l.27,1.09s0,.08.06.11V22.41c0-.41,0-.41.41-.38.08,0,.11,0,.11.11,0,.8,0,1.61,0,2.41,0,.09,0,.11-.11.11h-.44c-.1,0-.13,0-.15-.13-.12-.49-.25-1-.37-1.47l0-.09Z"/><path class="cls-8" d="M27.81,18.61c0,.51,0,1,0,1.53,0,.13,0,.17-.17.17-.34,0-.35,0-.35-.36,0-.7,0-1.41,0-2.11,0-.13,0-.18.16-.17s.38-.05.5,0,.11.31.15.47c.11.42.21.83.33,1.25a.76.76,0,0,0,0-.15V17.81c0-.1,0-.14.13-.14.37,0,.37,0,.37.37,0,.7,0,1.41,0,2.11,0,.12,0,.17-.16.16s-.38.05-.49,0-.11-.31-.15-.48c-.11-.39-.21-.79-.31-1.19Z"/><path class="cls-8" d="M20.07,18.6v.75c0,.27,0,.55,0,.82,0,.1,0,.14-.12.14-.39,0-.39,0-.39-.38,0-.7,0-1.4,0-2.1,0-.12,0-.17.16-.16h.39c.11,0,.15,0,.18.14.12.49.24,1,.37,1.49a.14.14,0,0,0,.05.09v-.12q0-.73,0-1.47c0-.09,0-.13.13-.13.38,0,.38,0,.38.37v2.12c0,.11,0,.16-.14.15h-.41c-.1,0-.13,0-.15-.13l-.39-1.51S20.12,18.61,20.07,18.6Z"/><path class="cls-8" d="M22.83,23.34c0-.28,0-.55,0-.83S23,22,23.34,22h.34c.35,0,.51.16.52.5,0,.57,0,1.13,0,1.7,0,.34-.16.47-.49.51a2.06,2.06,0,0,1-.43,0,.44.44,0,0,1-.45-.48c0-.29,0-.58,0-.87Zm.53,0h0V24c0,.11,0,.21.16.21s.15-.09.15-.21c0-.45,0-.91,0-1.37,0-.11,0-.2-.16-.19s-.15.1-.15.2Z"/><path class="cls-8" d="M23.16,19c0-.38,0-.76,0-1.14,0-.15,0-.19.19-.18s.44,0,.66,0,.49.18.5.53,0,.76,0,1.14a3,3,0,0,1,0,.52.44.44,0,0,1-.39.4,6.28,6.28,0,0,1-.87,0c-.1,0-.07-.07-.07-.12,0-.4,0-.8,0-1.19ZM24,19v-.4c0-.1,0-.21,0-.31s-.09-.14-.19-.14-.08.09-.08.15v1.4c0,.05,0,.12.06.12s.17,0,.19-.08a.57.57,0,0,0,0-.18Z"/><path class="cls-8" d="M19.71,22c.35,0,.35,0,.4.35l.36,2.1c0,.13,0,.21-.15.18h0c-.35,0-.36,0-.4-.35,0-.17-.14-.1-.22-.11s-.17,0-.19.12c0,.34,0,.34-.39.34s-.21,0-.17-.21c.12-.76.25-1.51.37-2.26,0-.12.07-.18.19-.16Zm0,.57h0c0,.35-.08.69-.11,1,0,.11.07.07.12.08s.12,0,.11-.11C19.78,23.28,19.75,22.94,19.71,22.6Z"/><path class="cls-8" d="M27.26,22c.36,0,.36,0,.42.33.12.71.23,1.43.36,2.13,0,.14,0,.19-.14.17h0c-.34,0-.35,0-.39-.33s-.16-.11-.25-.13-.14,0-.15.14c0,.32,0,.32-.36.32s-.24,0-.2-.23c.12-.74.25-1.48.37-2.21,0-.15.08-.22.23-.19Zm0,.57h0l-.12,1c0,.12.09.07.14.08s.11,0,.1-.11C27.34,23.28,27.31,22.94,27.28,22.6Z"/><path class="cls-8" d="M18.59,17.67c.35,0,.35,0,.41.35.12.72.24,1.45.37,2.17,0,.1,0,.13-.1.12H19.2c-.12,0-.26,0-.35,0s-.06-.21-.07-.32-.15-.1-.23-.12-.15,0-.17.12,0,.27-.06.33-.23,0-.34,0-.2,0-.16-.2c.13-.75.26-1.5.38-2.25,0-.14.06-.2.21-.18Zm0,.59h0c0,.34-.08.67-.11,1,0,.08,0,.12.09.1s.15,0,.14-.09,0-.39-.05-.58S18.62,18.4,18.61,18.26Z"/><path class="cls-8" d="M26.34,17.67c.34,0,.35,0,.41.34.12.73.24,1.46.37,2.18,0,.09,0,.13-.1.12H27c-.12,0-.26,0-.35,0s-.06-.22-.07-.34,0-.1-.12-.1c-.25,0-.25,0-.29.23s0,.24-.29.24-.3,0-.25-.3l.36-2.19c0-.12.06-.17.18-.15Zm0,.61h0c0,.33-.07.66-.11,1,0,.1.05.1.11.09s.14,0,.13-.09C26.41,18.94,26.38,18.61,26.35,18.28Z"/><path class="cls-8" d="M22.19,17.67c.35,0,.35,0,.41.36L23,20.11c0,.15,0,.22-.16.2s-.25,0-.34,0-.06-.21-.07-.33-.17-.1-.27-.12-.12,0-.13.13c0,.34,0,.33-.39.34h-.1c-.1,0-.11,0-.1-.13.11-.62.22-1.24.32-1.87a4,4,0,0,0,.08-.48c0-.14.07-.17.19-.16Zm0,.59h0c0,.33-.07.66-.11,1,0,.12.05.11.12.11s.13,0,.11-.11,0-.24,0-.36Z"/><path class="cls-8" d="M23.68,28.21s0,.06-.06.07a1.45,1.45,0,0,0-.36,0l-.09,0a.43.43,0,0,0,0-.19c-.06-.29-.11-.58-.17-.88,0,0,0,0,0-.06a1.13,1.13,0,0,0-.06.32c0,.24-.07.49-.1.73,0,0,0,0,0,0s-.3,0-.45,0-.08-.08-.09-.13L22,26.79c0-.08,0-.15,0-.23s-.07-.18,0-.21a.6.6,0,0,1,.35,0c.05,0,0,.07,0,.12.05.33.09.66.14,1,0,0,0,.05.05.08,0-.17.05-.33.08-.5s.06-.38.07-.57.06-.14.16-.14c.37,0,.37,0,.42.36s.07.5.11.75c0,0,0,.08.06.11l.15-1c0-.06,0-.16.07-.17a1.15,1.15,0,0,1,.32,0c.05,0,0,.06,0,.1-.09.51-.18,1-.28,1.54,0,.06,0,.12,0,.18h0S23.68,28.2,23.68,28.21Z"/><path class="cls-5" d="M22,34.15c-.32,0-.45-.12-.49-.42a1.75,1.75,0,0,1,.24-1,4.84,4.84,0,0,0,.49-1.58,2.31,2.31,0,0,0,0-.37c0-.1.05-.12.14-.13.38,0,.39,0,.33.36a12.28,12.28,0,0,0-.13,2.1,1.17,1.17,0,0,1-.4,1A.23.23,0,0,1,22,34.15Z"/><path class="cls-8" d="M27.75,27.69c.1,0,.21,0,.22.16s.11.15.21.16a.36.36,0,0,0,.34-.09.2.2,0,0,0-.09-.31,1.69,1.69,0,0,0-.44-.12.53.53,0,0,1-.47-.6.6.6,0,0,1,.5-.59.92.92,0,0,1,.63.06.51.51,0,0,1,.21.2c.06.1.14.24.07.32s-.25,0-.38,0-.05-.07-.06-.12a.29.29,0,0,0-.41-.14.22.22,0,0,0-.1.18.19.19,0,0,0,.11.17,3.76,3.76,0,0,0,.48.13.51.51,0,0,1,.44.49.61.61,0,0,1-.37.66.9.9,0,0,1-.8,0,.52.52,0,0,1-.31-.32C27.44,27.72,27.46,27.69,27.75,27.69Z"/><path class="cls-8" d="M18.76,27.9h-.08c-.15,0-.22,0-.25.18s0,.18-.09.19a1.41,1.41,0,0,1-.41,0c-.06,0,0-.08,0-.12.13-.42.27-.84.4-1.26.05-.15.1-.3.14-.46s.07-.1.16-.1c.43,0,.43,0,.57.41s.28.93.44,1.4c0,.12,0,.16-.11.14h-.14c-.16,0-.26,0-.27-.2s-.1-.2-.25-.18Zm0-1h0l-.1.37c-.08.28-.07.3.22.26h0c.05,0,.06,0,0-.08S18.85,27.07,18.8,26.88Z"/><path class="cls-8" d="M25.28,28.23h0c-.06-.1,0-.28-.13-.31a2.17,2.17,0,0,0-.51,0,.05.05,0,0,0-.06.06,2.29,2.29,0,0,0-.07.28l0,0h-.44c-.06,0,0-.08,0-.12.18-.57.37-1.15.55-1.73,0-.09.07-.11.16-.11.43,0,.43,0,.56.4s.2.69.34,1c.06.14.07.31.12.46s0,0,0,.06l0,0h-.43Zm-.36-1.35h0c0,.13-.07.26-.11.39s0,.3.24.25c.05,0,.06,0,.05-.07Z"/><path class="cls-8" d="M20.73,23.58c0-.31,0-.62,0-.93,0-.1,0-.14-.14-.14-.26,0-.26,0-.26-.27s0-.21.21-.21h1c.1,0,.15,0,.13.13v.05c0,.29,0,.3-.28.3-.12,0-.12.06-.12.14v1.86c0,.12,0,.15-.15.15-.38,0-.38,0-.38-.39v-.69Z"/><path class="cls-6" d="M12.85,19.11a4.07,4.07,0,0,1,.52,1.61,1.53,1.53,0,0,1,0,.3.54.54,0,0,0,.32.57c.17.09.31.24.5.32a1.6,1.6,0,0,1,0,.38A5.9,5.9,0,0,1,11.82,21c.08-.05.13,0,.17,0a12.83,12.83,0,0,0,1.29.76s.08.07.12,0,0-.08-.06-.11a9.2,9.2,0,0,1-1.6-1.7c-.22-.29-.41-.6-.6-.91.08,0,.1.07.13.11A11.33,11.33,0,0,0,13,21.06s.08.09.12.07,0-.1,0-.15a7.63,7.63,0,0,0-.31-1.65,1.55,1.55,0,0,1,0-.21Z"/><path class="cls-8" d="M28.32,23.34c0-.39,0-.78,0-1.17,0-.11,0-.14.14-.14.4,0,.4,0,.4.39V24c0,.13,0,.18.16.16h.07c.37,0,.37,0,.34.37,0,.08,0,.1-.11.1h-.86c-.11,0-.14,0-.14-.14C28.32,24.12,28.32,23.73,28.32,23.34Z"/><path class="cls-6" d="M22.18,16.34A10.72,10.72,0,0,1,20.41,14a.18.18,0,0,1,.07,0,5.81,5.81,0,0,0,1.64,1.88s.06.08.11.06,0-.07,0-.1a20.61,20.61,0,0,1,0-2.94c0-.31,0-.62.06-.95a.24.24,0,0,1,.08.23,21,21,0,0,0,.26,4.19A2,2,0,0,1,22.18,16.34Z"/><path class="cls-8" d="M22.46,23.37v1.15c0,.11,0,.14-.14.14-.4,0-.4,0-.4-.4V22.2c0-.13,0-.17.16-.17.38,0,.38,0,.38.38Z"/><path class="cls-8" d="M26.37,28.29l-.07,0c0-.13,0-.27,0-.41s0-.21,0-.31c-.21-.36-.35-.74-.54-1.1-.05-.1,0-.11.07-.12.38,0,.38,0,.53.33l.21.43c.1-.22.19-.41.27-.61a.21.21,0,0,1,.23-.15c.34,0,.34,0,.18.31s-.31.62-.46.94c0,0,0,0,0,.06v.64h-.07a.08.08,0,0,0-.09,0h-.2Z"/><path class="cls-8" d="M25.34,19c0,.4,0,.8,0,1.19,0,.1,0,.14-.13.14-.41,0-.41,0-.41-.41V17.84c0-.12,0-.17.15-.17.38,0,.38,0,.38.37Z"/><path class="cls-8" d="M20.73,27.31v-.85c0-.09,0-.13.11-.13.33,0,.33,0,.33.32s0,.72,0,1.08c0,.12,0,.17.15.16s.32,0,.48,0,.13,0,.13.14c0,.27,0,.27-.27.27h-.77c-.12,0-.17,0-.17-.16S20.73,27.59,20.73,27.31Z"/><path class="cls-6" d="M31.18,21.1c.45-.48.91-1,1.4-1.38s.82-.71,1.25-1l.14-.1c0,.1,0,.17-.12.22a5.68,5.68,0,0,0-1.22,1.07c-.34.36-.66.72-1,1.08a1.06,1.06,0,0,1-.09.13,9.18,9.18,0,0,0,1.93-.82.24.24,0,0,1-.14.2,11.25,11.25,0,0,1-1.93.89.58.58,0,0,0-.24.14A1.28,1.28,0,0,1,31.18,21.1Z"/><path class="cls-8" d="M19.91,26.35l0,0a0,0,0,0,0,.07,0h.09a.13.13,0,0,0,.12,0h.05l.07,0h0v1.91h0l-.13,0h-.14c-.12,0-.17-.05-.17-.19C19.92,27.52,19.92,26.94,19.91,26.35Z"/><path class="cls-6" d="M31.17,24.81a5.68,5.68,0,0,0,1.25.4,4.26,4.26,0,0,0,1.38,0c.14,0,.14,0,.29.08a2.46,2.46,0,0,1-.69.16,4.54,4.54,0,0,1-2.12-.31l-.1,0A1.08,1.08,0,0,1,31.17,24.81Z"/><path class="cls-6" d="M14.22,25.52a11.92,11.92,0,0,1-2.39,0,2.78,2.78,0,0,1-.63-.11,1.51,1.51,0,0,1,.55-.12,9.28,9.28,0,0,0,2.47,0A.49.49,0,0,1,14.22,25.52Z"/><path class="cls-6" d="M22.93,16.34a5.28,5.28,0,0,0,1-1.09,3.3,3.3,0,0,0,.44-.93.34.34,0,0,1,.18-.24,1.41,1.41,0,0,1-.12.51,4.49,4.49,0,0,1-1,1.62,1.13,1.13,0,0,0-.1.13A1.62,1.62,0,0,1,22.93,16.34Z"/><path class="cls-6" d="M18.36,16.34A10.14,10.14,0,0,1,17,15.22a1.09,1.09,0,0,1-.32-.44l.42.36A10.49,10.49,0,0,0,19,16.3l.06,0A2.83,2.83,0,0,1,18.36,16.34Z"/><path class="cls-6" d="M31.17,22.82a2.9,2.9,0,0,0,2.42-.63,2.67,2.67,0,0,1-2.42.9Z"/><path class="cls-6" d="M26.89,16.34c.35-.44.71-.87,1-1.33l.24-.36a.32.32,0,0,1,0,.27,8,8,0,0,1-.81,1.42A1.48,1.48,0,0,1,26.89,16.34Z"/><path class="cls-6" d="M26.39,30.66c.37.3.78.54,1.16.83a4.91,4.91,0,0,1-1.5-.83A1.29,1.29,0,0,1,26.39,30.66Z"/><path class="cls-6" d="M16.9,30.66a1.54,1.54,0,0,1-1.17.43.76.76,0,0,1-.21,0,9.58,9.58,0,0,0,.93-.39A1.7,1.7,0,0,1,16.9,30.66Z"/><polygon class="cls-6" points="12.85 19.12 12.84 19.11 12.85 19.11 12.85 19.12"/><path class="cls-6" d="M34.83,25s0,0,0,0Z"/><path class="cls-6" d="M16.92,26.82c0,.27-.06.33-.26.32s-.11,0-.11-.1,0-.25,0-.38,0-.16.08-.16.22,0,.26.11A1.52,1.52,0,0,1,16.92,26.82Z"/><path class="cls-6" d="M23.36,23.34v-.68c0-.1,0-.2.15-.2s.16.08.16.19c0,.46,0,.92,0,1.37,0,.12,0,.21-.15.21s-.16-.1-.16-.21v-.68Z"/><path class="cls-6" d="M24,19v.56a.57.57,0,0,1,0,.18c0,.09-.11.08-.19.08s-.06-.07-.06-.12V18.3c0-.06,0-.14.08-.15s.18,0,.19.14,0,.21,0,.31Z"/><path class="cls-6" d="M19.71,22.6c0,.34.07.68.1,1,0,.1,0,.12-.11.11s-.14,0-.12-.08c0-.35.07-.69.11-1Z"/><path class="cls-6" d="M27.28,22.6c0,.34.06.68.1,1,0,.08,0,.12-.1.11s-.15,0-.14-.08l.12-1Z"/><path class="cls-6" d="M18.61,18.26c0,.14,0,.29,0,.43s0,.39.05.58-.08.08-.14.09-.1,0-.09-.1c0-.33.07-.66.11-1Z"/><path class="cls-6" d="M26.35,18.28c0,.33.06.66.1,1,0,.13-.08.08-.13.09s-.13,0-.11-.09c0-.33.07-.66.11-1Z"/><path class="cls-6" d="M22.21,18.26l.06.63c0,.12,0,.24,0,.36s0,.12-.11.11-.14,0-.12-.11c0-.33.07-.66.11-1Z"/><path class="cls-6" d="M18.8,26.88c.05.19.11.38.15.56s0,.08,0,.08h0c-.29,0-.3,0-.22-.26l.1-.37Z"/><path class="cls-6" d="M24.92,26.88l.15.57s0,.06-.05.07c-.26.05-.31,0-.24-.25s.07-.26.11-.39Z"/></symbol></defs><g class="cls-9"><use width="45.32" height="45.32" transform="translate(-3.49 -3.49) scale(0.9)" xlink:href="#New_Symbol_21"/></g></svg>