<svg id="art" xmlns="http://www.w3.org/2000/svg" xmlns:xlink="http://www.w3.org/1999/xlink" viewBox="0 0 34.02 34.02"><defs><style>.cls-1{fill:none;}.cls-2{clip-path:url(#clip-path);}.cls-3{fill:#584232;}.cls-4{fill:#fff;}</style><clipPath id="clip-path"><circle class="cls-1" cx="17.01" cy="17.01" r="16.67"/></clipPath></defs><g class="cls-2"><path class="cls-3" d="M37.84,17A20.84,20.84,0,1,1,17-3.83,20.83,20.83,0,0,1,37.84,17Z"/><path class="cls-4" d="M16,23.21a3.33,3.33,0,0,1-1,.38,6.57,6.57,0,0,1-1.42.15,4.49,4.49,0,0,1-2.73-.87A5.58,5.58,0,0,1,9,20.4a9.73,9.73,0,0,1-.65-3.67,11.55,11.55,0,0,1,.65-4A6,6,0,0,1,10.83,10a4.29,4.29,0,0,1,2.76-1,6.65,6.65,0,0,1,1.47.15,2.15,2.15,0,0,1,.81.3L16,12.63l-.08,0a6.72,6.72,0,0,0-1-.92,2.16,2.16,0,0,0-1.32-.5,1.76,1.76,0,0,0-1.37.67,4.6,4.6,0,0,0-.91,1.91A11.51,11.51,0,0,0,11,16.73a8.12,8.12,0,0,0,.33,2.43,3.86,3.86,0,0,0,.9,1.62,1.87,1.87,0,0,0,1.34.58A3.25,3.25,0,0,0,15,21a7,7,0,0,0,1.08-.64h.08Z"/><path class="cls-4" d="M23,23.6l-1.83-6h-.7v4.75a2.53,2.53,0,0,0,.33,1.12v.14H17.65v-.14A2.46,2.46,0,0,0,18,22.34V10.45a2.39,2.39,0,0,0-.35-1.11V9.19h4a3.46,3.46,0,0,1,2.69,1.12,4.14,4.14,0,0,1,1,2.92,5,5,0,0,1-.65,2.55,3.85,3.85,0,0,1-1.54,1.56l1.9,5.07a4.29,4.29,0,0,0,.61,1.05v.14ZM22.29,15a2.12,2.12,0,0,0,.5-1.49,1.75,1.75,0,0,0-1.95-2h-.41v4h.7A1.53,1.53,0,0,0,22.29,15Z"/></g></svg>