<svg id="art" xmlns="http://www.w3.org/2000/svg" xmlns:xlink="http://www.w3.org/1999/xlink" viewBox="0 0 34.02 34.02"><defs><style>.cls-1{fill:none;}.cls-2{clip-path:url(#clip-path);}.cls-3{fill:#e5df17;}.cls-4{fill:#231f20;}</style><clipPath id="clip-path"><circle class="cls-1" cx="17.01" cy="17.01" r="16.67"/></clipPath></defs><g class="cls-2"><path class="cls-3" d="M37.84,17A20.84,20.84,0,1,1,17-3.83,20.83,20.83,0,0,1,37.84,17Z"/><path class="cls-4" d="M15.63,23.5a3.23,3.23,0,0,1-1,.38,5.94,5.94,0,0,1-1.42.16,4.44,4.44,0,0,1-2.73-.88,5.67,5.67,0,0,1-1.83-2.47A9.73,9.73,0,0,1,8,17a11.53,11.53,0,0,1,.65-4,6.14,6.14,0,0,1,1.85-2.7,4.25,4.25,0,0,1,2.75-1,6.08,6.08,0,0,1,1.47.16,2,2,0,0,1,.82.3l.12,3.12-.08,0a7.34,7.34,0,0,0-1-.92,2.14,2.14,0,0,0-1.32-.5,1.81,1.81,0,0,0-1.37.67,4.77,4.77,0,0,0-.91,1.92A11.43,11.43,0,0,0,10.61,17a8.12,8.12,0,0,0,.33,2.43,3.91,3.91,0,0,0,.9,1.62,1.83,1.83,0,0,0,1.34.58,3.22,3.22,0,0,0,1.45-.33,6.28,6.28,0,0,0,1.08-.64h.09Z"/><path class="cls-4" d="M23.07,9.49h2.82v.1l-.22.37-.15.37L22.25,23.89H20.5L17.58,10.7a3.32,3.32,0,0,0-.49-1.07V9.49h3v.14a1.16,1.16,0,0,0-.14.58,2.83,2.83,0,0,0,0,.41l1.5,7.28,1.59-7.14a3.87,3.87,0,0,0,.08-.59,1.49,1.49,0,0,0-.11-.54Z"/></g></svg>