<svg id="art" xmlns="http://www.w3.org/2000/svg" xmlns:xlink="http://www.w3.org/1999/xlink" viewBox="0 0 34.02 34.02"><defs><style>.cls-1{fill:none;}.cls-2{fill:#b43e95;}.cls-2,.cls-4,.cls-5{fill-rule:evenodd;}.cls-3,.cls-5{fill:#a30d35;}.cls-4{fill:#fff;}.cls-6{clip-path:url(#clip-path);}</style><clipPath id="clip-path"><circle class="cls-1" cx="17.01" cy="17.01" r="16.67"/></clipPath><symbol id="New_Symbol_22" data-name="New Symbol 22" viewBox="0 0 45.32 45.32"><path class="cls-2" d="M22.66,0A22.66,22.66,0,1,1,0,22.66,22.66,22.66,0,0,1,22.66,0"/><path class="cls-3" d="M13,22.63c0-3.15,0-6.31,0-9.46,0-.19,0-.23.23-.23h19c.19,0,.23,0,.23.23q0,9.49,0,19c0,.19,0,.23-.23.23q-9.49,0-19,0c-.19,0-.23,0-.23-.23C13,29,13,25.8,13,22.63Zm.77,9c.1.12.24.06.36.06H31.66c.13-.09.06-.22.06-.33q0-8.66,0-17.31c0-.29-.06-.36-.35-.36H14c-.1,0-.22-.05-.3.05a0,0,0,0,0,0,.06,2.83,2.83,0,0,0,0,.29V31.35A2.28,2.28,0,0,0,13.72,31.61Z"/><path class="cls-4" d="M31.66,31.66H14.08c-.12,0-.26.06-.36-.06s0-.26,0-.39v-17c0-.13,0-.26,0-.39a0,0,0,0,1,0-.06H31.21c.45,0,.45,0,.45.45ZM13.92,13.92h0a.64.64,0,0,0-.07.41V31a.71.71,0,0,0,.06.41h0c0,.05,0,.07.07.06H30.82c.17,0,.33,0,.49,0s.18-.07.18-.19a1,1,0,0,0,.05-.48V14.35c0-.1,0-.21,0-.32s-.06-.19-.19-.14h-.2a.82.82,0,0,0-.35,0H14.29A.53.53,0,0,0,13.92,13.92Z"/><path class="cls-4" d="M31.66,31.66V14.18c0-.45,0-.45-.45-.45H13.73c.08-.1.2-.05.3-.05H31.38c.29,0,.35.07.35.36q0,8.65,0,17.31C31.72,31.44,31.79,31.57,31.66,31.66Z"/><path class="cls-4" d="M13.72,13.78c0,.13,0,.26,0,.39v17c0,.13,0,.26,0,.39a2.28,2.28,0,0,1,0-.26V14.07A2.83,2.83,0,0,1,13.72,13.78Z"/><path class="cls-5" d="M31.49,31.27c0,.12,0,.2-.18.19s-.32,0-.49,0H14l-.07-.06h0c0-.09,0-.19,0-.29V13.92h16.8l.42,0h.2c.2,0,.15.18.15.3ZM17,23.88a.21.21,0,0,1-.12-.18c-.12-.72-.26-1.44-.38-2.16-.1-.55-.1-.55-.65-.55-.39,0-.39,0-.32.39.24,1.3.47,2.59.71,3.88.08.47.08.46.55.47.26,0,.36-.06.41-.31.31-1.36.64-2.71,1-4.06.1-.41.08-.41-.34-.4-.16,0-.21.07-.23.21s-.09.42-.14.63ZM15.4,18V16.57a1,1,0,0,1,.26-.68.46.46,0,0,1,.41-.15c.17,0,.17.2.19.34a1.45,1.45,0,0,1,0,.35c0,.18.07.23.23.22a1.41,1.41,0,0,1,.29,0c.15,0,.21,0,.21-.19a1.11,1.11,0,0,0-1.09-1.2,1.24,1.24,0,0,0-1.37,1.24,16.83,16.83,0,0,0,0,2.46,1.58,1.58,0,0,0,.65,1.25c.66.46,1.52,0,1.74-.91.13-.54.12-.54-.44-.54-.19,0-.27.06-.26.25a2.55,2.55,0,0,1,0,.39c0,.24-.11.46-.39.48s-.33-.24-.38-.44A6.91,6.91,0,0,1,15.4,18Zm0,10.14v1.26c0,.64,0,.63.64.62.15,0,.2-.05.2-.2s0-.59,0-.88c0-.1-.06-.25.07-.28s.23.1.28.22a1.82,1.82,0,0,1,.14.89c0,.25.07.32.31.29a.61.61,0,0,1,.19,0c.16,0,.24,0,.22-.22a3,3,0,0,0-.3-1.18.3.3,0,0,1,0-.39,1.35,1.35,0,0,0-.09-1.78.47.47,0,0,0-.41-.2,8.85,8.85,0,0,1-1,0c-.21,0-.26.07-.26.26C15.42,27.07,15.42,27.6,15.42,28.13ZM23.8,23.6h.08c0,.34.06.68.05,1s.18.25.36.26.28,0,.28-.26c0-.86,0-1.71,0-2.56,0-.11.06-.31-.16-.27s-.48-.18-.59.19a3.06,3.06,0,0,1-.22.79c0-.21-.07-.35-.1-.49-.09-.49-.09-.48-.59-.47-.18,0-.22.08-.21.24V24.6c0,.18,0,.25.23.25s.2-.1.2-.24v-1h.09c.1.33.2.66.33,1.05C23.64,24.28,23.72,23.94,23.8,23.6Zm.89,1.72H19a1,1,0,0,0-.25,0c-.12,0-.16.1-.16.21a.17.17,0,0,0,.15.18H30.61a.18.18,0,0,0,.18-.2.2.2,0,0,0-.18-.2,2.09,2.09,0,0,0-.25,0ZM23.11,30.1h5a.2.2,0,0,0,.21-.21.2.2,0,0,0-.2-.21H18.19c-.15,0-.25.08-.25.24s.12.19.25.19h4.92Zm0-10.1h-5.6a.19.19,0,0,0-.19.22.19.19,0,0,0,.19.18H28.77A.17.17,0,0,0,29,20.2a.19.19,0,0,0-.18-.2H23.11Zm.13-2.11c0,.43,0,.87,0,1.3,0,.2.07.25.26.25.46,0,.46,0,.46-.46,0-.13,0-.26,0-.39s-.06-.22.06-.25.22.07.26.18a1.7,1.7,0,0,1,.12.73c0,.19.05.24.23.24.38,0,.4,0,.35-.4a1.09,1.09,0,0,0-.1-.44.82.82,0,0,1,0-.91.9.9,0,0,0-.83-1.35h-.58c-.22,0-.28.07-.27.28C23.25,17.07,23.24,17.48,23.24,17.89Zm-2.79,5.44c0,.41,0,.82,0,1.23s.07.31.32.32.46-.06.4-.4a2.26,2.26,0,0,1,0-.45c0-.09-.08-.24.08-.27s.2.11.25.23a1.83,1.83,0,0,1,.09.7c0,.09,0,.19.11.23.4.1.55,0,.48-.42a1.37,1.37,0,0,0-.13-.5.65.65,0,0,1,.05-.77.92.92,0,0,0-.84-1.41h-.55c-.2,0-.27.05-.26.25C20.46,22.49,20.45,22.91,20.45,23.33Zm6.49-.07a2.09,2.09,0,0,0-.21-1.1.86.86,0,0,0-1.59,0,2.55,2.55,0,0,0,0,2.16.82.82,0,0,0,.8.54.87.87,0,0,0,.8-.56A2.14,2.14,0,0,0,26.94,23.26Zm1.6-.12h-.08L28.1,22c-.11-.39-.42-.18-.65-.21s-.12.18-.12.29c0,.84,0,1.68,0,2.52,0,.14,0,.28.19.28s.2-.14.2-.28V23.29c.13,0,.12.11.14.17.16.42.33.84.48,1.26.09.26.3.14.47.15s.14-.15.14-.25V22.07c0-.14,0-.25-.19-.26s-.21.12-.21.27C28.55,22.43,28.54,22.78,28.54,23.14Zm-9-5.28h.07l.06.1c.16.42.34.84.48,1.27s.3.19.47.2.14-.18.15-.29V16.67c0-.13,0-.28-.19-.28s-.2.14-.2.28v1h-.08L20,16.82c-.15-.49-.15-.48-.66-.46-.16,0-.21.06-.21.21,0,.88,0,1.75,0,2.62,0,.14,0,.23.19.23s.2-.1.2-.24C19.55,18.74,19.56,18.3,19.56,17.86Zm4.06,10.57h.08c.06.21.14.42.2.64a.23.23,0,0,0,.27.2c.18,0,.18-.12.21-.23.14-.53.28-1.06.4-1.59,0-.08.19-.23,0-.28s-.23.06-.26.21a1.88,1.88,0,0,1-.18.6c-.22-.2-.09-.63-.56-.61s-.23.41-.44.57a2.2,2.2,0,0,1-.2-.54c-.09-.32-.36-.19-.54-.17s-.06.21,0,.31c.14.52.3,1,.44,1.55,0,.12.08.18.21.18a.19.19,0,0,0,.23-.17C23.47,28.88,23.55,28.65,23.62,28.43Zm-5-5.12c0,.18,0,.37,0,.55,0,.33-.14.77.07,1s.63,0,1,.06h.1c.15,0,.18-.07.18-.2s0-.21-.19-.22c-.46,0-.46,0-.46-.47,0-.11,0-.22,0-.33s.05-.33.28-.29.23-.08.23-.25,0-.3-.24-.27-.26-.06-.27-.27.13-.34.36-.31.3,0,.3-.24-.14-.24-.31-.24-.47,0-.71,0-.32,0-.31.29C18.65,22.49,18.64,22.9,18.64,23.31Zm-1.16-5.44V19.2c0,.1,0,.22.15.22h1c.17,0,.15-.11.15-.22s0-.17-.15-.18c-.48-.06-.48-.07-.48-.55a1.77,1.77,0,0,0,0-.23c0-.22,0-.35.29-.31s.2-.12.2-.27,0-.28-.19-.24-.31-.1-.31-.33c0-.4.29-.24.46-.25s.2-.08.19-.22,0-.26-.18-.25H17.7c-.19,0-.23.07-.23.24C17.48,17,17.48,17.45,17.48,17.87Zm9.18,1.54c.2,0,.39.06.33-.26-.16-.86-.31-1.73-.44-2.6,0-.22-.17-.2-.3-.18s-.4-.14-.44.16c-.13.93-.26,1.85-.38,2.78,0,.06,0,.14.06.15a.12.12,0,0,0,.16-.11c0-.17.08-.34.1-.5s.14-.22.29-.2.2.28.23.43S26.38,19.49,26.66,19.41Zm.71-1.49c0,.43,0,.86,0,1.29,0,.14,0,.23.19.22h1.07c.07,0,.14,0,.18-.09.13-.37,0-.64-.42-.62s-.31-.07-.31-.31c0-.59,0-1.17,0-1.75,0-.33-.22-.22-.38-.23s-.36-.08-.34.23S27.37,17.5,27.37,17.92Zm2.44,5.68c0,.32,0,.65,0,1s.06.31.3.31.33,0,.32-.3c0-.67,0-1.34,0-2,0-.19,0-.34.27-.3s.19-.13.2-.27-.06-.23-.22-.23c-.37,0-.74,0-1.1,0-.17,0-.26,0-.25.23s0,.31.23.27.27.1.26.28C29.8,22.91,29.81,23.25,29.81,23.6ZM19.73,29.27l-.43-1.62c-.15-.55-.15-.54-.71-.51-.15,0-.21.06-.24.2-.13.59-.27,1.19-.4,1.79,0,.06,0,.14.05.16a.14.14,0,0,0,.19-.06,1.42,1.42,0,0,0,.07-.22c0-.15.09-.28.32-.29s.26.14.31.29,0,.27.23.26Zm2-11.11c0,.32,0,.65,0,1s0,.32.29.31.32-.05.31-.3c0-.67,0-1.33,0-2,0-.19,0-.29.25-.26s.21-.1.22-.26-.08-.23-.25-.23h-1c-.16,0-.29,0-.29.23s.06.31.27.27.25.09.25.27S21.74,17.83,21.74,18.16Zm4,9c-.35-.11-.44.08-.49.38s-.18.82-.26,1.23c0,.16-.2.4,0,.47s.21-.24.27-.38.15-.16.28-.16.26,0,.27.15c0,.4.3.38.59.39s.29-.09.22-.31c-.14-.48-.28-.95-.39-1.43C26.15,27.25,26,27.11,25.73,27.2Zm2.58,0c-.58-.19-.5.43-.78.59a.49.49,0,0,1-.17-.29c-.07-.27-.24-.32-.5-.33s-.28.11-.16.31A2.22,2.22,0,0,1,27.15,29c0,.26.11.26.31.27s.29-.06.27-.27a2,2,0,0,1,.35-1.41C28.16,27.47,28.22,27.32,28.31,27.16Zm-7,1.08v.29c0,.81,0,.81.81.8.18,0,.3,0,.3-.24s-.08-.31-.3-.28-.27-.07-.27-.28c0-.38,0-.77,0-1.16,0-.23-.13-.22-.3-.23s-.27,0-.26.23S21.31,28,21.31,28.24Zm-.52,0v-.93c0-.25-.18-.17-.3-.17s-.3-.08-.29.17c0,.6,0,1.2,0,1.81,0,.23.16.19.29.18s.32.08.31-.19S20.79,28.55,20.79,28.26Z"/><path class="cls-4" d="M31.49,31.27V14.19c0-.12.05-.27-.15-.3.13-.05.18,0,.19.14s0,.22,0,.32V30.79A1,1,0,0,1,31.49,31.27Z"/><path class="cls-4" d="M13.92,13.92V31.11c0,.1,0,.2,0,.29a.71.71,0,0,1-.06-.41V14.33A.64.64,0,0,1,13.92,13.92Z"/><path class="cls-4" d="M31.14,13.89l-.42,0H13.92a.53.53,0,0,1,.37-.07h16.5A.82.82,0,0,1,31.14,13.89Z"/><path class="cls-4" d="M13.91,31.41l.07.06C13.93,31.48,13.92,31.46,13.91,31.41Z"/><path class="cls-4" d="M17,23.88l.45-2.08c.05-.21.1-.42.14-.63s.07-.2.23-.21c.42,0,.44,0,.34.4-.32,1.35-.65,2.7-1,4.06,0,.25-.15.32-.41.31-.47,0-.47,0-.55-.47-.24-1.29-.47-2.58-.71-3.88-.07-.39-.07-.39.32-.39.55,0,.55,0,.65.55.12.72.26,1.44.38,2.16A.21.21,0,0,0,17,23.88Z"/><path class="cls-4" d="M15.4,18a6.91,6.91,0,0,0,.07,1.46c0,.2.08.45.38.44s.35-.24.39-.48a2.55,2.55,0,0,0,0-.39c0-.19.07-.25.26-.25.56,0,.57,0,.44.54-.22.92-1.08,1.37-1.74.91A1.58,1.58,0,0,1,14.57,19a16.83,16.83,0,0,1,0-2.46,1.24,1.24,0,0,1,1.37-1.24A1.11,1.11,0,0,1,17,16.47c0,.16-.06.21-.21.19a1.41,1.41,0,0,0-.29,0c-.16,0-.24,0-.23-.22a1.45,1.45,0,0,0,0-.35c0-.14,0-.3-.19-.34a.46.46,0,0,0-.41.15,1,1,0,0,0-.26.68Z"/><path class="cls-4" d="M15.42,28.13c0-.53,0-1.06,0-1.59,0-.19.05-.27.26-.26a8.85,8.85,0,0,0,1,0,.47.47,0,0,1,.41.2,1.35,1.35,0,0,1,.09,1.78.3.3,0,0,0,0,.39,3,3,0,0,1,.3,1.18c0,.18-.06.24-.22.22a.61.61,0,0,0-.19,0c-.24,0-.33,0-.31-.29a1.82,1.82,0,0,0-.14-.89c-.05-.12-.14-.25-.28-.22s-.07.18-.07.28c0,.29,0,.59,0,.88s-.05.19-.2.2c-.64,0-.64,0-.64-.62Zm1.28-.74c0-.09,0-.18-.05-.26s-.07-.19-.2-.19-.13.14-.14.23v.61c0,.07,0,.15.11.15s.18,0,.2-.11S16.68,27.53,16.7,27.39Z"/><path class="cls-4" d="M23.8,23.6c-.08.34-.16.68-.26,1.08-.13-.39-.23-.72-.33-1.05h-.09v1c0,.14,0,.25-.2.24s-.24-.07-.23-.25V22.05c0-.16,0-.23.21-.24.5,0,.5,0,.59.47,0,.14.06.28.1.49a3.06,3.06,0,0,0,.22-.79c.11-.37.39-.15.59-.19s.16.16.16.27c0,.85,0,1.7,0,2.56,0,.22-.09.27-.28.26s-.37.05-.36-.26,0-.67-.05-1Z"/><path class="cls-4" d="M24.69,25.32h5.67a2.09,2.09,0,0,1,.25,0,.2.2,0,0,1,.18.2.18.18,0,0,1-.18.2H18.73a.17.17,0,0,1-.15-.18c0-.11,0-.2.16-.21a1,1,0,0,1,.25,0Z"/><path class="cls-4" d="M23.11,30.1H18.19c-.13,0-.24-.05-.25-.19s.1-.23.25-.24h9.94a.2.2,0,0,1,.2.21.2.2,0,0,1-.21.21h-5Z"/><path class="cls-4" d="M23.11,20h5.66a.19.19,0,0,1,.18.2.17.17,0,0,1-.18.19H17.51a.19.19,0,0,1-.19-.18.19.19,0,0,1,.19-.22h5.6Z"/><path class="cls-4" d="M23.24,17.89c0-.41,0-.82,0-1.22,0-.21.05-.3.27-.28h.58a.9.9,0,0,1,.83,1.35.82.82,0,0,0,0,.91,1.09,1.09,0,0,1,.1.44c.05.39,0,.39-.35.4-.18,0-.25,0-.23-.24a1.7,1.7,0,0,0-.12-.73c0-.11-.12-.23-.26-.18s-.05.16-.06.25,0,.26,0,.39c0,.47,0,.46-.46.46-.19,0-.27-.05-.26-.25C23.25,18.76,23.24,18.32,23.24,17.89Zm.71-.52v.25c0,.09,0,.18.12.18a.17.17,0,0,0,.19-.13,1,1,0,0,0,0-.53.17.17,0,0,0-.21-.14c-.13,0-.12.09-.12.18Z"/><path class="cls-4" d="M20.45,23.33c0-.42,0-.84,0-1.26,0-.2.06-.27.26-.25h.55a.92.92,0,0,1,.84,1.41.65.65,0,0,0-.05.77,1.37,1.37,0,0,1,.13.5c.07.4-.08.52-.48.42-.14,0-.1-.14-.11-.23a1.83,1.83,0,0,0-.09-.7c-.05-.12-.11-.24-.25-.23s-.07.18-.08.27a2.26,2.26,0,0,0,0,.45c.06.34-.09.41-.4.4s-.34-.06-.32-.32S20.45,23.74,20.45,23.33Zm.66-.51c.08.13-.13.41.17.4s.2-.26.21-.43,0-.37-.2-.37S21.19,22.69,21.11,22.82Z"/><path class="cls-4" d="M26.94,23.26a2.14,2.14,0,0,1-.2,1,.87.87,0,0,1-.8.56.82.82,0,0,1-.8-.54,2.55,2.55,0,0,1,0-2.16.86.86,0,0,1,1.59,0A2.09,2.09,0,0,1,26.94,23.26Zm-.66-.05a2.12,2.12,0,0,0-.09-.74c0-.13-.11-.25-.26-.24s-.21.11-.25.23a3.06,3.06,0,0,0,0,1.56.25.25,0,0,0,.24.21c.17,0,.23-.11.27-.23A2.29,2.29,0,0,0,26.28,23.21Z"/><path class="cls-4" d="M28.54,23.14c0-.36,0-.71,0-1.06,0-.15,0-.27.21-.27s.19.12.19.26v2.55c0,.1,0,.27-.14.25s-.38.11-.47-.15c-.15-.42-.32-.84-.48-1.26,0-.06,0-.14-.14-.17V24.6c0,.14,0,.28-.2.28s-.19-.14-.19-.28c0-.84,0-1.68,0-2.52,0-.11-.08-.32.12-.29s.54-.18.65.21l.36,1.15Z"/><path class="cls-4" d="M19.56,17.86c0,.44,0,.88,0,1.32,0,.14,0,.25-.2.24s-.19-.09-.19-.23c0-.87,0-1.74,0-2.62,0-.15,0-.2.21-.21.51,0,.51,0,.66.46l.28.89h.08v-1c0-.14,0-.28.2-.28s.19.15.19.28v2.46c0,.11.08.29-.15.29s-.38.08-.47-.2-.32-.85-.48-1.27l-.06-.1Z"/><path class="cls-4" d="M23.62,28.43c-.07.22-.15.45-.21.67a.19.19,0,0,1-.23.17c-.13,0-.18-.06-.21-.18-.14-.52-.3-1-.44-1.55,0-.1-.19-.28,0-.31s.45-.15.54.17a2.2,2.2,0,0,0,.2.54c.21-.16,0-.56.44-.57s.34.41.56.61a1.88,1.88,0,0,0,.18-.6c0-.15.09-.24.26-.21s.06.2,0,.28c-.12.53-.26,1.06-.4,1.59,0,.11,0,.23-.21.23a.23.23,0,0,1-.27-.2c-.06-.22-.14-.43-.2-.64Z"/><path class="cls-4" d="M18.64,23.31c0-.41,0-.82,0-1.23,0-.25.08-.31.31-.29s.48,0,.71,0,.31,0,.31.24-.12.26-.3.24-.39,0-.36.31.06.31.27.27.24.1.24.27,0,.28-.23.25-.3.08-.28.29,0,.22,0,.33c0,.44,0,.45.46.47.16,0,.19.08.19.22s0,.21-.18.2h-.1c-.33,0-.76.13-1-.06s-.05-.63-.07-1C18.63,23.68,18.64,23.49,18.64,23.31Z"/><path class="cls-4" d="M17.48,17.87c0-.42,0-.84,0-1.26,0-.17,0-.25.23-.24h.91c.21,0,.17.12.18.25s0,.21-.19.22-.46-.15-.46.25c0,.23,0,.38.31.33s.19.11.19.24,0,.3-.2.27-.32.09-.29.31a1.77,1.77,0,0,1,0,.23c0,.48,0,.49.48.55.13,0,.16.07.15.18s0,.22-.15.22h-1c-.17,0-.15-.12-.15-.22Z"/><path class="cls-4" d="M26.66,19.41c-.28.08-.34-.09-.39-.33s.05-.4-.23-.43-.27,0-.29.2-.07.33-.1.5a.12.12,0,0,1-.16.11c-.1,0-.07-.09-.06-.15.12-.93.25-1.85.38-2.78,0-.3.29-.13.44-.16s.27,0,.3.18c.13.87.28,1.74.44,2.6C27.05,19.47,26.86,19.43,26.66,19.41Zm-.55-2.36H26c-.06.35-.13.7-.19,1.05,0,.11,0,.21.13.19s.33.09.31-.11A11.2,11.2,0,0,0,26.11,17.05Z"/><path class="cls-4" d="M27.37,17.92c0-.42,0-.84,0-1.26s.19-.23.34-.23.39-.1.38.23c0,.58,0,1.16,0,1.75,0,.24.06.32.31.31s.55.25.42.62c0,.1-.11.09-.18.09H27.56c-.18,0-.19-.08-.19-.22C27.38,18.78,27.37,18.35,27.37,17.92Z"/><path class="cls-4" d="M29.81,23.6c0-.35,0-.69,0-1,0-.18,0-.32-.26-.28s-.23-.1-.23-.27.08-.24.25-.23c.36,0,.73,0,1.1,0,.16,0,.23.06.22.23s0,.3-.2.27-.27.11-.27.3c0,.67,0,1.34,0,2,0,.26-.09.29-.32.3s-.32-.07-.3-.31S29.81,23.92,29.81,23.6Z"/><path class="cls-4" d="M19.73,29.27h-.61c-.19,0-.19-.15-.23-.26s-.09-.29-.31-.29-.27.14-.32.29a1.42,1.42,0,0,1-.07.22.14.14,0,0,1-.19.06c-.09,0-.06-.1-.05-.16.13-.6.27-1.2.4-1.79,0-.14.09-.19.24-.2.56,0,.56,0,.71.51Zm-1.09-1.64h-.07l-.12.68c0,.1,0,.13.13.13s.18,0,.16-.14S18.67,27.85,18.64,27.63Z"/><path class="cls-4" d="M21.74,18.16c0-.33,0-.67,0-1s0-.3-.25-.27-.26-.06-.27-.27.13-.23.29-.23h1c.17,0,.26,0,.25.23s0,.29-.22.26-.25.07-.25.26c0,.67,0,1.33,0,2,0,.25-.08.3-.31.3s-.31-.08-.29-.31S21.74,18.48,21.74,18.16Z"/><path class="cls-4" d="M25.73,27.2c.3-.09.42.05.48.34.11.48.25.95.39,1.43.07.22.07.31-.22.31s-.56,0-.59-.39c0-.16-.15-.15-.27-.15s-.22,0-.28.16,0,.46-.27.38,0-.31,0-.47c.08-.41.19-.81.26-1.23S25.38,27.09,25.73,27.2Zm-.2.39a2.67,2.67,0,0,0-.15.7c0,.13.07.13.16.13s.16,0,.13-.13A3.1,3.1,0,0,0,25.53,27.59Z"/><path class="cls-4" d="M28.31,27.16c-.09.16-.15.31-.23.44A2,2,0,0,0,27.73,29c0,.21-.06.28-.27.27s-.36,0-.31-.27a2.22,2.22,0,0,0-.45-1.57c-.12-.2-.16-.31.16-.31s.43.06.5.33a.49.49,0,0,0,.17.29C27.81,27.59,27.73,27,28.31,27.16Z"/><path class="cls-4" d="M21.31,28.24c0-.29,0-.58,0-.87s.1-.23.26-.23.31,0,.3.23c0,.39,0,.78,0,1.16,0,.21,0,.32.27.28s.3,0,.3.28-.12.24-.3.24c-.81,0-.81,0-.81-.8Z"/><path class="cls-4" d="M20.79,28.26c0,.29,0,.58,0,.87s-.18.19-.31.19-.29.05-.29-.18c0-.61,0-1.21,0-1.81,0-.25.17-.18.29-.17s.3-.08.3.17Z"/><path class="cls-5" d="M16.7,27.39c0,.14-.05.29-.08.43s-.11.12-.2.11-.11-.08-.11-.15v-.61c0-.09,0-.23.14-.23s.18.07.2.19S16.68,27.3,16.7,27.39Z"/><path class="cls-5" d="M24,17.37v-.19c0-.09,0-.18.12-.18a.17.17,0,0,1,.21.14,1,1,0,0,1,0,.53.17.17,0,0,1-.19.13c-.13,0-.12-.09-.12-.18Z"/><path class="cls-5" d="M21.11,22.82c.08-.13-.13-.39.18-.4s.21.21.2.37.05.42-.21.43S21.19,23,21.11,22.82Z"/><path class="cls-5" d="M26.28,23.21a2.29,2.29,0,0,1-.09.79c0,.12-.1.24-.27.23a.25.25,0,0,1-.24-.21,3.06,3.06,0,0,1,0-1.56c0-.12.11-.23.25-.23s.22.11.26.24A2.12,2.12,0,0,1,26.28,23.21Z"/><path class="cls-5" d="M26.11,17.05a11.2,11.2,0,0,1,.17,1.14c0,.2-.2.09-.31.11s-.15-.08-.13-.19c.06-.35.13-.7.19-1.05Z"/><path class="cls-5" d="M18.64,27.63c0,.22.06.44.1.66s-.07.13-.16.14-.14,0-.13-.13l.12-.68Z"/><path class="cls-5" d="M25.53,27.59a3.1,3.1,0,0,1,.14.7c0,.11,0,.13-.13.13s-.18,0-.16-.13A2.67,2.67,0,0,1,25.53,27.59Z"/></symbol></defs><g class="cls-6"><use width="45.32" height="45.32" transform="translate(-3.49 -3.49) scale(0.9)" xlink:href="#New_Symbol_22"/></g></svg>