<svg id="art" xmlns="http://www.w3.org/2000/svg" xmlns:xlink="http://www.w3.org/1999/xlink" viewBox="0 0 34.02 34.02"><defs><style>.cls-1{fill:none;}.cls-2{fill:#0d7bb5;}.cls-2,.cls-3,.cls-4{fill-rule:evenodd;}.cls-3,.cls-4{fill:#f1c018;}.cls-3{stroke:#f1c018;stroke-miterlimit:10;stroke-width:0.63px;}.cls-5{clip-path:url(#clip-path);}</style><clipPath id="clip-path"><circle class="cls-1" cx="17.01" cy="17.01" r="16.67"/></clipPath><symbol id="New_Symbol_24" data-name="New Symbol 24" viewBox="0 0 45.32 45.32"><path class="cls-2" d="M22.66,0A22.66,22.66,0,1,1,0,22.66,22.67,22.67,0,0,1,22.66,0"/><path class="cls-3" d="M19.59,32.58c-.21-.21-.42-.42-.62-.64-.67-.73-1.33-1.46-1.93-2.25a14,14,0,0,1-.91-1.36,14.57,14.57,0,0,1-1-2,15.45,15.45,0,0,1-.62-1.85c-.21-.76-.38-1.52-.53-2.29-.19-1-.34-2-.46-3-.08-.62-.14-1.24-.2-1.86s-.12-1.48-.16-2.22c0-.54,0-1.08,0-1.62,0-.21,0-.23.25-.23h9.25v0h9.24c.26,0,.28,0,.28.28s0,.46,0,.69c-.06.76-.06,1.53-.14,2.29-.05.4-.08.79-.12,1.19s-.12,1.06-.19,1.59-.11.88-.19,1.32-.18,1.12-.31,1.67c-.09.35-.16.71-.24,1.06s-.23.83-.33,1.25a14.82,14.82,0,0,1-.53,1.59c-.16.44-.38.84-.58,1.27a11.49,11.49,0,0,1-1.24,2,25.71,25.71,0,0,1-1.94,2.37c-.4.41-.78.83-1.21,1.21a15.14,15.14,0,0,1-2.36,1.77.27.27,0,0,1-.31,0,17.13,17.13,0,0,1-2.23-1.65L20,33m0,0-.08-.07-.27-.26-.05,0,0,0M15.2,14h-1c-.23,0-.24,0-.24.24,0,.74.05,1.47.1,2.2s.16,1.74.26,2.62c.08.66.18,1.31.26,2,.06.5.19,1,.27,1.48.05.3.14.6.21.9.12.51.27,1,.42,1.5a14.31,14.31,0,0,0,.85,2.11A13.58,13.58,0,0,0,17.42,29,16.78,16.78,0,0,0,19,30.87c.48.52,1,1,1.49,1.52.27.25.56.5.85.73s.69.48,1,.72a.35.35,0,0,0,.4,0c.16-.08.28-.2.44-.28a5,5,0,0,0,1-.73c.44-.38.84-.8,1.25-1.21.68-.68,1.27-1.44,1.88-2.18a12.49,12.49,0,0,0,1.92-3.19,17.32,17.32,0,0,0,.6-1.71c.15-.5.31-1,.41-1.5s.21-1,.3-1.48c.13-.72.22-1.45.34-2.17s.19-1.36.24-2.05c.09-1,.2-2.07.19-3.11,0-.25,0-.25-.24-.25H16.74C16.19,14,15.65,14.07,15.2,14Z"/><path class="cls-2" d="M20,33l-.08-.07m-.34-.33c-.21-.21-.42-.42-.62-.64-.67-.73-1.33-1.46-1.93-2.25a14,14,0,0,1-.91-1.36,14.57,14.57,0,0,1-1-2,15.45,15.45,0,0,1-.62-1.85c-.21-.76-.38-1.52-.53-2.29-.19-1-.34-2-.46-3-.08-.62-.14-1.24-.2-1.86s-.12-1.48-.16-2.22c0-.54,0-1.08,0-1.62,0-.21,0-.23.25-.23h9.25v0h9.24c.26,0,.28,0,.28.28s0,.46,0,.69c-.06.76-.06,1.53-.14,2.29-.05.4-.08.79-.12,1.19s-.12,1.06-.19,1.59-.11.88-.19,1.32-.18,1.12-.31,1.67c-.09.35-.16.71-.24,1.06s-.23.83-.33,1.25a14.82,14.82,0,0,1-.53,1.59c-.16.44-.38.84-.58,1.27a11.49,11.49,0,0,1-1.24,2,25.71,25.71,0,0,1-1.94,2.37c-.4.41-.78.83-1.21,1.21a15.14,15.14,0,0,1-2.36,1.77.27.27,0,0,1-.31,0,17.13,17.13,0,0,1-2.23-1.65L20,33m-.35-.33-.05,0,0,0M15.2,14h-1c-.23,0-.24,0-.24.24,0,.74.05,1.47.1,2.2s.16,1.74.26,2.62c.08.66.18,1.31.26,2,.06.5.19,1,.27,1.48.05.3.14.6.21.9.12.51.27,1,.42,1.5a14.31,14.31,0,0,0,.85,2.11A13.58,13.58,0,0,0,17.42,29,16.78,16.78,0,0,0,19,30.87c.48.52,1,1,1.49,1.52.27.25.56.5.85.73s.69.48,1,.72a.35.35,0,0,0,.4,0c.16-.08.28-.2.44-.28a5,5,0,0,0,1-.73c.44-.38.84-.8,1.25-1.21.68-.68,1.27-1.44,1.88-2.18a12.49,12.49,0,0,0,1.92-3.19,17.32,17.32,0,0,0,.6-1.71c.15-.5.31-1,.41-1.5s.21-1,.3-1.48c.13-.72.22-1.45.34-2.17s.19-1.36.24-2.05c.09-1,.2-2.07.19-3.11,0-.25,0-.25-.24-.25H16.74C16.19,14,15.65,14.07,15.2,14Z"/><path class="cls-4" d="M15.2,14c.45,0,1,0,1.54,0H31.12c.24,0,.23,0,.24.25,0,1-.1,2.08-.19,3.11-.05.69-.13,1.37-.24,2.05s-.21,1.45-.34,2.17c-.09.49-.19,1-.3,1.48s-.26,1-.41,1.5a17.32,17.32,0,0,1-.6,1.71,12.49,12.49,0,0,1-1.92,3.19c-.61.74-1.2,1.5-1.88,2.18-.41.41-.81.83-1.25,1.21a5,5,0,0,1-1,.73c-.16.08-.28.2-.44.28a.35.35,0,0,1-.4,0c-.34-.24-.71-.45-1-.72s-.58-.48-.85-.73c-.52-.49-1-1-1.49-1.52A16.78,16.78,0,0,1,17.42,29a13.58,13.58,0,0,1-1.1-1.88A14.31,14.31,0,0,1,15.47,25c-.15-.49-.3-1-.42-1.5-.07-.3-.16-.6-.21-.9-.08-.5-.21-1-.27-1.48-.08-.67-.18-1.32-.26-2-.1-.88-.19-1.75-.26-2.62s-.11-1.46-.1-2.2c0-.22,0-.23.24-.24Zm7.47,9.12v-.29a.21.21,0,0,1,.13-.2l.51-.29c.05,0,.11-.1.17,0s0,.12,0,.18c-.11.26-.21.52-.31.78a.2.2,0,0,0,.06.24c.08.06.14,0,.2,0l.36-.21A.37.37,0,0,0,24,23.1c.07-.18.13-.37.19-.56s0-.1.07-.11.07,0,.1.08a.28.28,0,0,0,.1.14.19.19,0,0,1,0,.25c-.29.53-.53,1.08-.78,1.62-.13.3-.25.61-.37.91a.18.18,0,0,0,.05.21.15.15,0,0,0,.2,0,11.07,11.07,0,0,1,1.19-.72.42.42,0,0,0,.23-.31c.11-.44.23-.87.33-1.31.07-.27.19-.47.49-.48a.18.18,0,0,0,.1,0c.27-.09.36,0,.3.26s-.15.66-.22,1,0,.32.25.25l.82-.26a.22.22,0,0,0,.15-.2,11.88,11.88,0,0,1,.25-1.45,1.14,1.14,0,0,1,.28-.67,11.12,11.12,0,0,0,1-1c.15-.17.28-.35.42-.52s.07-.16,0-.21A.15.15,0,0,0,29,20a2.26,2.26,0,0,1-.25.29L28,21c0,.05-.09.08-.15,0a.1.1,0,0,1,0-.12c.15-.41.28-.82.45-1.21s.42-.81.64-1.2A9.91,9.91,0,0,1,30.07,17c.07-.08.12-.17.05-.26s-.2,0-.28,0-.3.26-.44.4A10.9,10.9,0,0,0,28,18.86a12.34,12.34,0,0,0-1.17,2.25l-.33.89c0,.1-.07.21-.18.24s-.53-.3-.48-.5a4.4,4.4,0,0,1,.18-.51A15.84,15.84,0,0,1,27,19.12c.07-.12.14-.24.2-.36s.06-.17,0-.22a.18.18,0,0,0-.25.06l0,.06a11.57,11.57,0,0,1-1.36,1.69,7.83,7.83,0,0,1-.67.61s-.06.06-.11.05a0,0,0,0,1,0-.07c.07-.11,0-.23.09-.34.1-.27.18-.55.26-.83,0-.08,0-.18-.07-.21s-.15,0-.19.12a11.11,11.11,0,0,1-.85,1.5c-.08.12-.15.16-.28.05a1,1,0,0,0-.25-.15.37.37,0,0,0-.4.05.33.33,0,0,0,0,.38.81.81,0,0,0,.21.3c.09.07.07.12,0,.18s-.26.15-.39.23-.17,0-.21-.1a1.58,1.58,0,0,0-.76-1,.68.68,0,0,0-1,.3.94.94,0,0,0,0,.64,1.57,1.57,0,0,0,.64.89.24.24,0,0,1,.12.24,8.52,8.52,0,0,1-.29,1.33,10.25,10.25,0,0,1-.84,1.92,1,1,0,0,1-.22.31s-.08.06-.13,0a.13.13,0,0,1,0-.13,1.27,1.27,0,0,1,.07-.12,2,2,0,0,0,.25-.68c0-.23-.1-.41-.29-.41s-.26,0-.17-.26l0-.08.54-1.67c.07-.21.13-.43.19-.65a.17.17,0,0,0-.05-.21.15.15,0,0,0-.19,0,2.73,2.73,0,0,1-.87.47.26.26,0,0,0-.2.3,8.66,8.66,0,0,1,0,1.25,3.68,3.68,0,0,1-.76,1.82c-.11.13-.23.25-.35.37a2.5,2.5,0,0,0-.57,1.18,1.62,1.62,0,0,0,0,.58.3.3,0,0,0,.49.24.77.77,0,0,0,.28-.26A6.87,6.87,0,0,0,19.09,27a5.92,5.92,0,0,1,.37-.81c.05-.07.1-.17.2-.12s0,.14,0,.2a1.67,1.67,0,0,0-.17.44.4.4,0,0,0,.42.53,1.68,1.68,0,0,0,.38-.12,3.31,3.31,0,0,0,1.26-1,5.21,5.21,0,0,0,.93-1.72A4.9,4.9,0,0,0,22.67,23.16Zm-.88-3a.83.83,0,0,0,.84-.41,1.65,1.65,0,0,1,.62-.61,3.6,3.6,0,0,0,.39-.2c.07,0,.12-.09.1-.18s-.11-.1-.19-.09a1.59,1.59,0,0,0-.55.2,1.56,1.56,0,0,0-.69.7c0,.05-.08.12-.14.08s0-.11,0-.16a1.35,1.35,0,0,0,.21-.61c0-.12,0-.23-.13-.29a.31.31,0,0,0-.33,0,1.16,1.16,0,0,0-.5,1,.83.83,0,0,1-.05.35c0,.09-.1.13-.17.1s0-.1,0-.16a2.57,2.57,0,0,0,.07-.4.21.21,0,0,0-.27-.22l-.13.06s-.08,0-.11,0,0-.08,0-.12a3.71,3.71,0,0,1,.44-.54,1.52,1.52,0,0,1,.7-.49,11.83,11.83,0,0,0,1.32-.4l1.31-.45,1.55-.53c.07,0,.14-.07.13-.17s-.09-.13-.17-.14a1,1,0,0,0-.45,0,1.78,1.78,0,0,1-1.09-.16.45.45,0,0,0-.45,0,11.89,11.89,0,0,1-1.46.86c-.05,0-.11.1-.15.05s0-.13,0-.19a1.16,1.16,0,0,0,.12-.51c0-.38-.25-.55-.59-.37a2.1,2.1,0,0,0-.73.66,4.36,4.36,0,0,0-.47.91c-.06.15-.08.34-.27.41-.37.13-.74.29-1.11.42-.69.23-1.36.5-2.06.68a.29.29,0,0,0-.16.11.12.12,0,0,0,0,.14c.07.08.14.05.21,0,.94-.27,1.86-.56,2.78-.86.06,0,.11-.06.16,0s0,.13,0,.2-.1.2-.14.3,0,.25-.14.21,0-.17,0-.26,0-.14,0-.19a.15.15,0,0,0-.19,0,1.14,1.14,0,0,1-.47.13c-.18,0-.24.07-.23.24a2.21,2.21,0,0,1,0,.68,4.75,4.75,0,0,1-.23.73,3.71,3.71,0,0,1-.56,1.06,2.25,2.25,0,0,0-.57,1.14.5.5,0,0,0,.16.44c.16.09.28,0,.39-.1a3.48,3.48,0,0,0,.77-1.36c.13-.29.22-.6.33-.9,0,0,0-.11.09-.08a.1.1,0,0,1,.05.12,1,1,0,0,1,0,.1c-.05.09-.09.19-.14.28a.12.12,0,0,0,0,.16.06.06,0,0,0,.1,0c.16-.13.33-.21.49-.32a.27.27,0,0,0,.1-.16,2.38,2.38,0,0,1,.2-.69,1.09,1.09,0,0,1,.23-.47.11.11,0,0,1,.15,0,.11.11,0,0,1,0,.16c-.08.09-.08.2-.13.3a.28.28,0,0,0,.07.34c.1.08.19,0,.28,0a2.06,2.06,0,0,0,.43-.35A.48.48,0,0,1,21.79,20.16Zm8,2.7a.54.54,0,0,0-.49-.57.51.51,0,0,0-.53.47s0,.09,0,.1-.07,0-.1-.08a.49.49,0,0,0-.6-.14.49.49,0,0,0-.31.45.5.5,0,0,0,.3.5c.21.1.24.2.14.42a.36.36,0,0,1,0,.11.14.14,0,0,0,0,.19.15.15,0,0,0,.18,0,.39.39,0,0,0,.1-.08,1.2,1.2,0,0,0,.35-1s0-.09,0-.11h.06a.44.44,0,0,1,.26.59c0,.09,0,.18.07.22a.2.2,0,0,0,.23-.08A1.56,1.56,0,0,0,29.74,22.86ZM17.37,17.49a.53.53,0,0,0,.32.51.48.48,0,0,0,.54-.13c.1-.12.15-.11.25,0a.49.49,0,0,0,.72,0,.46.46,0,0,0,0-.69.22.22,0,0,1,0-.34l.09-.09a.17.17,0,0,0,0-.24.16.16,0,0,0-.23,0,1.2,1.2,0,0,0-.59.68c0,.07,0,.15-.12.1a.32.32,0,0,1-.12-.5.93.93,0,0,0,.05-.1.16.16,0,0,0-.06-.17.12.12,0,0,0-.16,0A1.37,1.37,0,0,0,17.37,17.49Z"/><path class="cls-2" d="M22.67,23.16a4.9,4.9,0,0,1-.22,1.26,5.21,5.21,0,0,1-.93,1.72,3.31,3.31,0,0,1-1.26,1,1.68,1.68,0,0,1-.38.12.4.4,0,0,1-.42-.53,1.67,1.67,0,0,1,.17-.44c0-.06.12-.15,0-.2s-.15.05-.2.12a5.92,5.92,0,0,0-.37.81,6.87,6.87,0,0,1-.73,1.49.77.77,0,0,1-.28.26.3.3,0,0,1-.49-.24,1.62,1.62,0,0,1,0-.58,2.5,2.5,0,0,1,.57-1.18c.12-.12.24-.24.35-.37a3.68,3.68,0,0,0,.76-1.82,8.66,8.66,0,0,0,0-1.25.26.26,0,0,1,.2-.3,2.73,2.73,0,0,0,.87-.47.15.15,0,0,1,.19,0,.17.17,0,0,1,.05.21c-.06.22-.12.44-.19.65l-.54,1.67,0,.08c-.09.22-.07.26.17.26s.32.18.29.41a2,2,0,0,1-.25.68,1.27,1.27,0,0,0-.07.12.13.13,0,0,0,0,.13s.09,0,.13,0a1,1,0,0,0,.22-.31,10.25,10.25,0,0,0,.84-1.92,8.52,8.52,0,0,0,.29-1.33.24.24,0,0,0-.12-.24,1.57,1.57,0,0,1-.64-.89.94.94,0,0,1,0-.64.68.68,0,0,1,1-.3,1.58,1.58,0,0,1,.76,1c0,.14.09.17.21.1s.27-.14.39-.23.1-.11,0-.18a.81.81,0,0,1-.21-.3.33.33,0,0,1,0-.38.37.37,0,0,1,.4-.05,1,1,0,0,1,.25.15c.13.11.2.07.28-.05a11.11,11.11,0,0,0,.85-1.5c0-.09.08-.16.19-.12s.09.13.07.21c-.08.28-.16.56-.26.83-.05.11,0,.23-.09.34a0,0,0,0,0,0,.07c.05,0,.08,0,.11-.05a7.83,7.83,0,0,0,.67-.61,11.57,11.57,0,0,0,1.36-1.69l0-.06a.18.18,0,0,1,.25-.06c.08.05.05.15,0,.22s-.13.24-.2.36A15.84,15.84,0,0,0,26,21.23a4.4,4.4,0,0,0-.18.51c-.05.2.28.55.48.5s.15-.14.18-.24l.33-.89A12.34,12.34,0,0,1,28,18.86a10.9,10.9,0,0,1,1.39-1.72c.14-.14.29-.27.44-.4s.19-.13.28,0,0,.18-.05.26a9.91,9.91,0,0,0-1.13,1.53c-.22.39-.45.79-.64,1.2s-.3.8-.45,1.21a.1.1,0,0,0,0,.12c.06,0,.11,0,.15,0l.68-.75A2.26,2.26,0,0,0,29,20a.15.15,0,0,1,.2-.05c.08.05,0,.15,0,.21s-.27.35-.42.52a11.12,11.12,0,0,1-1,1,1.14,1.14,0,0,0-.28.67,11.88,11.88,0,0,0-.25,1.45.22.22,0,0,1-.15.2l-.82.26c-.22.07-.3,0-.25-.25s.15-.66.22-1,0-.35-.3-.26a.18.18,0,0,1-.1,0c-.3,0-.42.21-.49.48-.1.44-.22.87-.33,1.31a.42.42,0,0,1-.23.31,11.07,11.07,0,0,0-1.19.72.15.15,0,0,1-.2,0,.18.18,0,0,1-.05-.21c.12-.3.24-.61.37-.91.25-.54.49-1.09.78-1.62a.19.19,0,0,0,0-.25.28.28,0,0,1-.1-.14s0-.09-.1-.08-.06.06-.07.11-.12.38-.19.56a.37.37,0,0,1-.18.19l-.36.21c-.06,0-.12.1-.2,0a.2.2,0,0,1-.06-.24c.1-.26.2-.52.31-.78,0-.06.05-.13,0-.18s-.12,0-.17,0l-.51.29a.21.21,0,0,0-.13.2ZM18.6,27.11v-.05c0-.07,0-.17-.06-.2s-.14.05-.18.11a2.66,2.66,0,0,0-.51,1.35c0,.06,0,.13,0,.16s.11,0,.14-.07A2.75,2.75,0,0,0,18.6,27.11Zm3.09-4.88a.9.9,0,0,0-.32-.63c-.08-.06-.15-.1-.24-.05a.22.22,0,0,0-.12.22.79.79,0,0,0,.32.66c.06.05.13.1.22,0A.23.23,0,0,0,21.69,22.23Zm3.87-1.53-.08.06-.47.46-.32.31a.13.13,0,0,0,0,.12,0,0,0,0,0,.06,0,1.31,1.31,0,0,0,.9-.9C25.62,20.72,25.62,20.7,25.56,20.7Zm-2.16.69c-.08,0-.14,0-.12.09s.08.19.21.2.13,0,.11-.09A.27.27,0,0,0,23.4,21.39Zm1.35.95a.53.53,0,0,0,.16-.27s0-.08-.05-.07-.15.13-.19.23S24.68,22.32,24.75,22.34Zm1.09.08c0-.05-.06-.12-.13-.11s-.11.06-.11.13.06.09.12.08A.1.1,0,0,0,25.84,22.42Z"/><path class="cls-2" d="M21.79,20.16a.48.48,0,0,0-.44.18,2.06,2.06,0,0,1-.43.35c-.09,0-.18.12-.28,0a.28.28,0,0,1-.07-.34c.05-.1.05-.21.13-.3a.11.11,0,0,0,0-.16.11.11,0,0,0-.15,0,1.09,1.09,0,0,0-.23.47,2.38,2.38,0,0,0-.2.69.27.27,0,0,1-.1.16c-.16.11-.33.19-.49.32a.06.06,0,0,1-.1,0,.12.12,0,0,1,0-.16c.05-.09.09-.19.14-.28a1,1,0,0,0,0-.1.1.1,0,0,0-.05-.12c-.06,0-.07,0-.09.08-.11.3-.2.61-.33.9a3.48,3.48,0,0,1-.77,1.36c-.11.1-.23.19-.39.1a.5.5,0,0,1-.16-.44,2.25,2.25,0,0,1,.57-1.14,3.71,3.71,0,0,0,.56-1.06,4.75,4.75,0,0,0,.23-.73,2.21,2.21,0,0,0,0-.68c0-.17.05-.25.23-.24a1.14,1.14,0,0,0,.47-.13.15.15,0,0,1,.19,0c.07,0,.05.12,0,.19s-.12.22,0,.26.11-.12.14-.21.09-.2.14-.3.06-.13,0-.2-.1,0-.16,0c-.92.3-1.84.59-2.78.86-.07,0-.14.05-.21,0a.12.12,0,0,1,0-.14.29.29,0,0,1,.16-.11c.7-.18,1.37-.45,2.06-.68.37-.13.74-.29,1.11-.42.19-.07.21-.26.27-.41a4.36,4.36,0,0,1,.47-.91,2.1,2.1,0,0,1,.73-.66c.34-.18.61,0,.59.37a1.16,1.16,0,0,1-.12.51c0,.06-.07.14,0,.19s.1,0,.15-.05a11.89,11.89,0,0,0,1.46-.86.45.45,0,0,1,.45,0,1.78,1.78,0,0,0,1.09.16,1,1,0,0,1,.45,0c.08,0,.16,0,.17.14s-.06.14-.13.17l-1.55.53-1.31.45a11.83,11.83,0,0,1-1.32.4,1.52,1.52,0,0,0-.7.49,3.71,3.71,0,0,0-.44.54s-.05.07,0,.12.07,0,.11,0l.13-.06a.21.21,0,0,1,.27.22,2.57,2.57,0,0,1-.07.4c0,.06-.08.13,0,.16s.14,0,.17-.1a.83.83,0,0,0,.05-.35,1.16,1.16,0,0,1,.5-1,.31.31,0,0,1,.33,0c.12.06.13.17.13.29a1.35,1.35,0,0,1-.21.61c0,.05-.09.11,0,.16s.11,0,.14-.08a1.56,1.56,0,0,1,.69-.7,1.59,1.59,0,0,1,.55-.2c.08,0,.16,0,.19.09s0,.14-.1.18a3.6,3.6,0,0,1-.39.2,1.65,1.65,0,0,0-.62.61A.83.83,0,0,1,21.79,20.16Zm.32-3.41a.24.24,0,0,0-.06-.08c-.06,0-.1,0-.13.06a2.7,2.7,0,0,0-.46.81s0,.1,0,.12a.11.11,0,0,0,.14,0l.2-.27A3.05,3.05,0,0,0,22.11,16.75Zm-3.92,6s0,0,.06-.05a2,2,0,0,0,.24-.46,0,0,0,0,0,0-.07s-.09,0-.11,0a1.28,1.28,0,0,0-.24.48S18.13,22.76,18.19,22.77ZM22,19.06s0,.11.06.1.15-.11.17-.21,0-.1-.07-.09A.19.19,0,0,0,22,19.06Z"/><path class="cls-2" d="M29.74,22.86a1.56,1.56,0,0,1-.38,1,.2.2,0,0,1-.23.08c-.1,0-.1-.13-.07-.22a.44.44,0,0,0-.26-.59h-.06s0,.07,0,.11a1.2,1.2,0,0,1-.35,1,.39.39,0,0,1-.1.08.15.15,0,0,1-.18,0,.14.14,0,0,1,0-.19.36.36,0,0,0,0-.11c.1-.22.07-.32-.14-.42a.5.5,0,0,1-.3-.5.49.49,0,0,1,.31-.45.49.49,0,0,1,.6.14s.05.09.1.08,0-.06,0-.1a.51.51,0,0,1,.53-.47A.54.54,0,0,1,29.74,22.86Z"/><path class="cls-2" d="M17.37,17.49a1.37,1.37,0,0,1,.64-1,.12.12,0,0,1,.16,0,.16.16,0,0,1,.06.17.93.93,0,0,1-.05.1.32.32,0,0,0,.12.5c.09.05.1,0,.12-.1a1.2,1.2,0,0,1,.59-.68.16.16,0,0,1,.23,0,.17.17,0,0,1,0,.24l-.09.09a.22.22,0,0,0,0,.34.46.46,0,0,1,0,.69.49.49,0,0,1-.72,0c-.1-.11-.15-.12-.25,0a.48.48,0,0,1-.54.13A.53.53,0,0,1,17.37,17.49Z"/><path class="cls-4" d="M18.6,27.11a2.75,2.75,0,0,1-.56,1.3s-.07.09-.14.07,0-.1,0-.16A2.66,2.66,0,0,1,18.36,27c0-.06.09-.15.18-.11s.05.13.06.2Z"/><path class="cls-4" d="M21.69,22.23a.23.23,0,0,1-.14.24c-.09.06-.16,0-.22,0a.79.79,0,0,1-.32-.66.22.22,0,0,1,.12-.22c.09-.05.16,0,.24.05A.9.9,0,0,1,21.69,22.23Z"/><path class="cls-4" d="M25.56,20.7c.06,0,.06,0,.06.07a1.31,1.31,0,0,1-.9.9,0,0,0,0,1-.06,0,.13.13,0,0,1,0-.12l.32-.31.47-.46Z"/><path class="cls-4" d="M23.4,21.39a.27.27,0,0,1,.2.2c0,.06,0,.1-.11.09s-.17-.11-.21-.2S23.32,21.39,23.4,21.39Z"/><path class="cls-4" d="M24.75,22.34c-.07,0-.09-.06-.08-.11s.06-.21.19-.23.05,0,.05.07A.53.53,0,0,1,24.75,22.34Z"/><path class="cls-4" d="M25.84,22.42a.1.1,0,0,1-.12.1c-.06,0-.12,0-.12-.08s0-.13.11-.13S25.81,22.37,25.84,22.42Z"/><path class="cls-4" d="M22.11,16.75a3.05,3.05,0,0,1-.27.61l-.2.27a.11.11,0,0,1-.14,0c-.06,0-.05-.08,0-.12a2.7,2.7,0,0,1,.46-.81s.07-.09.13-.06A.24.24,0,0,1,22.11,16.75Z"/><path class="cls-4" d="M18.19,22.77c-.06,0-.08-.05-.07-.09a1.28,1.28,0,0,1,.24-.48s.07,0,.11,0a0,0,0,0,1,0,.07,2,2,0,0,1-.24.46S18.21,22.76,18.19,22.77Z"/><path class="cls-4" d="M22,19.06a.19.19,0,0,1,.16-.2c.06,0,.08,0,.07.09s-.05.2-.17.21S22,19.1,22,19.06Z"/></symbol></defs><g class="cls-5"><use width="45.32" height="45.32" transform="translate(-3.49 -3.49) scale(0.9)" xlink:href="#New_Symbol_24"/></g></svg>