<svg xmlns="http://www.w3.org/2000/svg" viewBox="0 0 34.02 34.02" xmlns:v="https://vecta.io/nano"><defs><clipPath id="A"><path d="M-7.85 17c-.38 22.36-33.64 22.35-34 0 .36-22.35 33.62-22.35 34 0z" fill="none"/></clipPath><clipPath id="B"><circle cx="58.87" cy="17.01" r="17.01" fill="none"/></clipPath><clipPath id="C"><path d="M34,17C33.63,39.37.38,39.36,0,17,.38-5.35,33.64-5.35,34,17Z" fill="none"/></clipPath></defs><g clip-path="url(#A)"><path d="M-24.86-8.49c33.52.57,33.51,50.43,0,51-33.52-.58-33.51-50.43,0-51" fill="#b53e96" fill-rule="evenodd"/></g><g clip-path="url(#B)"><path d="M58.88-13.47A30.48,30.48,0,1,1,28.4,17,30.48,30.48,0,0,1,58.88-13.47" fill-rule="evenodd" fill="#231f20"/></g><g clip-path="url(#C)"><g fill-rule="evenodd"><path d="M17-7.74c32.86.56,32.85,49.44,0,50-32.86-.56-32.86-49.45,0-50" fill="#0f7bb6"/><g fill="#f2c119"><path d="M13.62 28.2c-6-5.24-7-13.49-7.1-21 3-.74 7.12 0 10.47-.26h0c3.33.29 7.64-.57 10.51.31-.32 6-.69 12.54-4.28 17.56-2.37 2.81-5.76 8.35-9.14 3.86m0 0c-.11-.1-.36-.33-.46-.44M8.78 7.75c-2.94-1.18-.41 7.65-.4 9.4.3 3.48 6.45 15.25 10.36 11.36C25 23.58 26.47 15.52 26.6 8c-5.34-.8-12.06 0-17.82-.25z"/></g></g><path d="M17 31.09a11.41 11.41 0 0 1-3.11-2.18l.44-.53a18 18 0 0 0 2.67 2c8-4.71 10.13-14.47 10.17-23.12H6.89c.11 7.63 1.23 15.9 7.37 21a1.55 1.55 0 0 1-.4.58l.24-.25-.28.21-.42-.39.36-.37-.37.35c-6-5.35-7.4-14-7.07-21.71.37-.41 21 0 20.89-.17 1.59.58.08 5 .21 6.59-.56 7.12-4.02 14.59-10.42 17.99zM16.9 30C9.5 26.08 5.72 14.65 7.66 7.4h11.2 7.48c1.53.67 0 4.9.13 6.37C25.9 20.14 22.79 27 16.9 30zM7.74 8.1c.1 7.9 1.86 16.72 9.13 21.21H17C24.24 24.9 26.14 16 26.26 8.06L7.74 8.1z" fill="#f2c119"/><g fill-rule="evenodd"><path d="M14.08,28.64,14,28.57m-.38-.37c-6-5.24-7-13.49-7.1-21,3-.74,7.12,0,10.47-.26v0c3.33.29,7.64-.57,10.51.31-.32,6-.69,12.54-4.28,17.56-2.37,2.81-5.76,8.35-9.14,3.86m-.38-.36-.08-.08M8.78,7.75c-2.94-1.18-.41,7.65-.4,9.4.3,3.48,6.45,15.25,10.36,11.36C25,23.58,26.47,15.52,26.6,8,21.26,7.2,14.54,8,8.78,7.75Z" fill="#0f7bb6"/><path d="M8.78 7.75C14.54 8 21.27 7.2 26.6 8c-.13 7.53-1.65 15.59-7.86 20.52-3.91 3.89-10-7.88-10.36-11.36A59.7 59.7 0 0 1 7.39 8c.04-.54.9-.13 1.39-.25zM17 17.81c-.13-.54.46-.78.9-.91.06.45-.54.92-.28 1.32.7 0 .88-.67 1.1-1.22.71.82-.88 2.28-1 3.31l.06.23c2.61-.63 1.36-2.56 2.8-3.18 1-.29-.55 1.81.36 1.65 1.28-.07 1.12-1.13 1.35-2.11s1.39-1.55 1.89-2.46v-.23l-.22.06-1 1.15h-.17v-.14c.39-1.74 1.72-3.2 2.5-4.62-2.19 1-3.12 4.1-4.19 6.09-1.33-.63.61-2.81.91-3.83v-.25c-1 .53-1.52 2.16-2.67 2.73v-.08c.05-.47.55-1.12.32-1.53-.61.23-.71 1.95-1.46 1.85-.29-.32-1-.23-.75.31s.34.54-.21.78c-.44-.05-.43-1.09-1.07-1.26-1.46-.7-1.5 1.53-.46 2a5.66 5.66 0 0 1-1.5 4.21v-.14c.2-.34.65-1.24 0-1.33-.25 0-.28-.05-.18-.29.22-.93.88-2 .79-2.87h-.21c-1.29.58-1.21.89-1.22 2.23 0 1.54-1.56 2.31-1.85 3.72.09 2.64 1.76-1.09 2.05-1.92.09-.26.38-.14.19.08-.78 3.48 3.91-1.75 3.22-3.35zm-1-3.31c.86.12 1-.82 1.61-1.13.17-.12.56-.15.53-.41-.5-.34-1.31.42-1.57.89l-.15.08c.81-2-1-1.1-.87.34-.66.55.46-1.08-.7-.7 1.08-2.11 4.35-1.69 6-3-.43-.46-1.34.13-1.89-.33-.81-.14-1.47.88-2.28 1 .54-3-1.72 0-2.12 1-1.2.51-2.49.83-3.67 1.33v.17c1.18-.06 2.3-.76 3.47-.93 0 .46-.43 1.35-.34.28-.29.11-1 0-1 .42.21 1.56-1.16 2.61-1.53 4 .55 1.81 1.6-1.72 1.92-2.2v.13a4.08 4.08 0 0 1-.19.42v.18h.12c.81-.31.67-1.2 1.11-1.81h.17v.17c-.34 1.6.91.1 1.43.1zm8.77 3a.59.59 0 1 0-1.18 0c-.63-.83-1.65.32-.79.8.43.15 0 .5.14.8h.2a1.54 1.54 0 0 0 .52-1.31.47.47 0 0 1 .36.65c.18.76.89-.55.8-.96zm-13.6-5.94a.55.55 0 0 0 .95.41c.11-.13.17-.12.28 0 .48.55 1.34-.25.74-.75-.18-.16-.07-.34.07-.47v-.27c-.53-.27-.76.71-1 .84-.3-.14-.25-.42-.08-.65l-.07-.19h-.17a1.5 1.5 0 0 0-.72 1.08z" fill="#f2c119"/><g fill="#0f7bb6"><path d="M17 17.81c.67 1.6-4 6.83-3.35 3.44.19-.22-.1-.34-.19-.08-1 3.78-3.6 3.64-1 .2 1.38-1.32.07-3.63 2.06-4.23h.21c.09.9-.57 1.94-.79 2.87-.1.24-.07.29.18.29.63.1.18 1 0 1.33v.14a5.67 5.67 0 0 0 1.5-4.21c-1-.5-1-2.73.46-2 .8.24.63 1.83 1.51 1 .2-.25-.56-.6-.19-.95.21-.21.52 0 .71.11.62.06.9-1.23 1.25-1.71.64-.52-.06 1.11-.11 1.39v.08c1.15-.57 1.71-2.2 2.67-2.73L22 13c-.3 1-2.24 3.2-.91 3.83 1.07-2 2-5.15 4.18-6.09-.77 1.42-2.1 2.88-2.49 4.62v.14h.17l1-1.15.22-.06v.23c-.5.91-1.72 1.42-1.89 2.46s-.07 2-1.35 2.11c-.91.16.65-1.94-.36-1.65-1.43.61-.21 2.56-2.8 3.18l-.06-.23c.12-1 1.71-2.49 1-3.31-.22.55-.4 1.17-1.1 1.22-.26-.4.34-.87.28-1.32-.41.02-1 .29-.89.83zm-4.49 4.35c-.1-.94-1 1.17-.77 1.51.54-.28.65-.97.79-1.51zm3.41-5.38c0-.31-.25-.83-.62-.75-.49.33.48 1.58.64.75zm4.27-1.69l-1 .92v.13h.06a1.44 1.44 0 0 0 1-1zm-2.38.77l-.14.09c0 .1.09.22.23.23l.13-.11a.31.31 0 0 0-.2-.21zm1.48 1a.47.47 0 0 0 .18-.29l-.06-.08c-.14 0-.16.15-.2.25zm1.21.09l-.15-.12-.12.14c0 .09.07.1.13.09zm-4.45-2.45c-.52 0-1.77 1.52-1.21-.08v-.17h-.17c-.44.61-.3 1.5-1.11 1.81h-.12v-.18a4.08 4.08 0 0 0 .19-.42v-.13c-.36.55-1.29 3.9-1.92 2.2.37-1.36 1.74-2.42 1.53-4 0-.4.69-.31 1-.42-.09 1.07.32.18.34-.28-1.17.17-2.29.87-3.47.93v-.17c1.17-.7 3.19-.62 4-1.77.18-1.28 2.52-2.9 1.82-.56.81-.15 1.47-1.17 2.28-1 .55.46 1.46-.13 1.89.33-1.69 1.28-5 .86-6 3 1.16-.38 0 1.24.7.7-.13-1.44 1.68-2.39.87-.34l.15-.08c.25-.47 1.07-1.23 1.57-.89 0 .26-.36.29-.53.41-.86.29-.95 1.23-1.81 1.11zm.35-3.77l-.06-.08c-.38.15-.48.63-.65 1v.13h.15a2.6 2.6 0 0 0 .56-1.05zm-4.32 6.65c.18-.13.23-.37.33-.56v-.09h-.12a1.64 1.64 0 0 0-.26.53zm4.15-4.09l.06.1c.13 0 .17-.11.19-.22l-.08-.11a.2.2 0 0 0-.17.23zm8.59 4.19c.09.4-.62 1.72-.75.92a.47.47 0 0 0-.36-.65 1.54 1.54 0 0 1-.52 1.31h-.2a.56.56 0 0 1 0-.34c.27-.49-.6-.49-.48-1a.6.6 0 0 1 1.11-.25.6.6 0 1 1 1.2.01zm-13.65-5.92a1.5 1.5 0 0 1 .71-1.1h.17l.07.19c-.17.23-.22.51.08.65.28-.13.51-1.11 1-.84v.27c-.14.13-.25.31-.07.47.6.5-.26 1.3-.74.75-.11-.13-.17-.14-.28 0a.55.55 0 0 1-.94-.39z"/></g><g fill="#f2c119"><path d="M12.53 22.16c-.14.54-.25 1.23-.77 1.51-.28-.34.67-2.45.77-1.51zm3.41-5.38c-.16.83-1.13-.42-.62-.75.37-.03.59.44.62.75zm4.27-1.69l.06.08a1.44 1.44 0 0 1-1 1h-.06v-.13l1-.95zm-2.38.77a.31.31 0 0 1 .22.21l-.13.11c-.14 0-.19-.13-.23-.23z"/><path d="M19.31 16.9l-.08-.12c0-.1.06-.23.2-.25l.06.08a.47.47 0 0 1-.18.29zm1.21.1l-.14.11c-.06 0-.13 0-.13-.09l.12-.14zm-4.12-6.27a2.6 2.6 0 0 1-.52 1h-.15v-.13c.17-.33.27-.81.65-1zm-4.32 6.65l-.08-.1a1.64 1.64 0 0 1 .26-.53h.12v.09c-.07.16-.12.41-.3.54zm4.15-4.09a.2.2 0 0 1 .17-.23l.08.11c0 .11-.06.21-.19.22z"/></g></g></g></svg>