<svg id="art" xmlns="http://www.w3.org/2000/svg" xmlns:xlink="http://www.w3.org/1999/xlink" viewBox="0 0 34.02 34.02"><defs><style>.cls-1{fill:none;}.cls-2{clip-path:url(#clip-path);}.cls-3{fill:#b43e95;}.cls-4{fill:#fff;}</style><clipPath id="clip-path"><circle class="cls-1" cx="17.01" cy="17.01" r="16.67"/></clipPath></defs><g class="cls-2"><path class="cls-3" d="M37.84,17A20.84,20.84,0,1,1,17-3.83,20.83,20.83,0,0,1,37.84,17Z"/><path class="cls-4" d="M13.81,11.53h-2v3.54h.95A3.07,3.07,0,0,0,14,14.72h.17v2.63H14A3.07,3.07,0,0,0,12.78,17h-.95v4.82h2.33a1.39,1.39,0,0,0,.58-.13,7.46,7.46,0,0,0,.86-.43h.08v2.62H9.05v-.15a2.28,2.28,0,0,0,.35-1.11V10.73a2.35,2.35,0,0,0-.35-1.12V9.47h6.3V12h-.08A3.79,3.79,0,0,0,13.81,11.53Z"/><path class="cls-4" d="M22.46,23.88l-1.83-6h-.7v4.75a2.46,2.46,0,0,0,.33,1.11v.15H17.15v-.15a2.28,2.28,0,0,0,.35-1.11V10.73a2.35,2.35,0,0,0-.35-1.12V9.47h4a3.46,3.46,0,0,1,2.68,1.11,4.16,4.16,0,0,1,1,2.92,5,5,0,0,1-.65,2.56,3.83,3.83,0,0,1-1.53,1.56l1.89,5.06a4.68,4.68,0,0,0,.62,1.05v.15Zm-.66-8.65a2.14,2.14,0,0,0,.5-1.48,1.76,1.76,0,0,0-1.95-2h-.42v4.06h.7A1.56,1.56,0,0,0,21.8,15.23Z"/></g></svg>