<svg id="art" xmlns="http://www.w3.org/2000/svg" xmlns:xlink="http://www.w3.org/1999/xlink" viewBox="0 0 34.02 34.02"><defs><style>.cls-1{fill:none;}.cls-2{clip-path:url(#clip-path);}.cls-3{fill:#b43e95;}.cls-4{fill:#fff;}</style><clipPath id="clip-path"><circle class="cls-1" cx="17.01" cy="17.01" r="16.67"/></clipPath></defs><g class="cls-2"><path class="cls-3" d="M37.84,17A20.84,20.84,0,1,1,17-3.83,20.83,20.83,0,0,1,37.84,17Z"/><path class="cls-4" d="M14.75,13H13.34v2.53H14a2.34,2.34,0,0,0,.87-.25H15v1.88h-.11a2.16,2.16,0,0,0-.87-.25h-.68v3.44H15a1.06,1.06,0,0,0,.42-.09A5.88,5.88,0,0,0,16,20h.06v1.87H11.36v-.1a1.82,1.82,0,0,0,.25-.8v-8.5a1.82,1.82,0,0,0-.25-.79v-.1h4.5v1.82H15.8A2.78,2.78,0,0,0,14.75,13Z"/><path class="cls-4" d="M20.94,21.82l-1.31-4.29h-.5v3.39a1.89,1.89,0,0,0,.23.8v.1H17.14v-.1a1.7,1.7,0,0,0,.25-.8v-8.5a1.7,1.7,0,0,0-.25-.79v-.1H20a2.45,2.45,0,0,1,1.91.79,3,3,0,0,1,.73,2.09,3.52,3.52,0,0,1-.46,1.82,2.76,2.76,0,0,1-1.1,1.12L22.44,21a2.89,2.89,0,0,0,.44.75v.1Zm-.48-6.18a1.49,1.49,0,0,0,.36-1.05,1.26,1.26,0,0,0-1.4-1.44h-.29V16h.5A1.08,1.08,0,0,0,20.46,15.64Z"/></g></svg>