<svg id="art" xmlns="http://www.w3.org/2000/svg" xmlns:xlink="http://www.w3.org/1999/xlink" viewBox="0 0 34.02 34.02"><defs><style>.cls-1{fill:none;}.cls-2{clip-path:url(#clip-path);}.cls-3{fill:#2ab24b;}.cls-4{fill:#fff;}</style><clipPath id="clip-path"><circle class="cls-1" cx="17.01" cy="17.01" r="16.67"/></clipPath></defs><g class="cls-2"><path class="cls-3" d="M37.84,17A20.84,20.84,0,1,1,17-3.83,20.83,20.83,0,0,1,37.84,17Z"/><path class="cls-4" d="M11.88,12.66a1.35,1.35,0,0,0-.42-.08H10.15v2.77h.68a1.87,1.87,0,0,0,.86-.27h.14V17h-.14a2,2,0,0,0-.86-.27h-.68v3.88a1.37,1.37,0,0,0,.31.8v.1H8.16v-.1a1.7,1.7,0,0,0,.25-.8V12.1a1.7,1.7,0,0,0-.25-.8v-.1h4.4v1.74H12.5C12.24,12.81,12,12.72,11.88,12.66Z"/><path class="cls-4" d="M17.41,21.49,16.1,17.2h-.5v3.39a1.89,1.89,0,0,0,.23.8v.1H13.61v-.1a1.7,1.7,0,0,0,.25-.8V12.1a1.7,1.7,0,0,0-.25-.8v-.1h2.86a2.46,2.46,0,0,1,1.91.8,2.92,2.92,0,0,1,.73,2.08,3.55,3.55,0,0,1-.46,1.83A2.73,2.73,0,0,1,17.55,17l1.36,3.62a2.89,2.89,0,0,0,.44.75v.1Zm-.48-6.17a1.53,1.53,0,0,0,.36-1.06,1.26,1.26,0,0,0-1.4-1.44H15.6v2.89h.5A1.11,1.11,0,0,0,16.93,15.32Z"/><path class="cls-4" d="M24.13,21.49,22.82,17.2h-.5v3.39a1.89,1.89,0,0,0,.23.8v.1H20.33v-.1a1.7,1.7,0,0,0,.25-.8V12.1a1.7,1.7,0,0,0-.25-.8v-.1h2.86a2.5,2.5,0,0,1,1.92.8,3,3,0,0,1,.72,2.08,3.55,3.55,0,0,1-.46,1.83A2.77,2.77,0,0,1,24.28,17l1.35,3.62a2.89,2.89,0,0,0,.44.75v.1Zm-.48-6.17A1.53,1.53,0,0,0,24,14.26a1.26,1.26,0,0,0-1.4-1.44h-.29v2.89h.5A1.11,1.11,0,0,0,23.65,15.32Z"/></g></svg>