<svg id="art" xmlns="http://www.w3.org/2000/svg" xmlns:xlink="http://www.w3.org/1999/xlink" viewBox="0 0 34.02 34.02"><defs><style>.cls-1{fill:none;}.cls-2{clip-path:url(#clip-path);}.cls-3{fill:#2ab24b;}.cls-4{fill:#fff;}</style><clipPath id="clip-path"><circle class="cls-1" cx="17.01" cy="17.01" r="16.67"/></clipPath></defs><g class="cls-2"><path class="cls-3" d="M37.84,17A20.84,20.84,0,1,1,17-3.83,20.83,20.83,0,0,1,37.84,17Z"/><path class="cls-4" d="M9.78,11.19a1.9,1.9,0,0,0-.59-.11H7.36V15h1a2.75,2.75,0,0,0,1.21-.37h.19v2.65H9.52a2.8,2.8,0,0,0-1.21-.37h-1v5.43a2,2,0,0,0,.44,1.12v.14H4.58v-.14a2.35,2.35,0,0,0,.35-1.12V10.4a2.28,2.28,0,0,0-.35-1.11V9.14h6.16v2.43h-.08C10.29,11.39,10,11.27,9.78,11.19Z"/><path class="cls-4" d="M17.52,23.55l-1.83-6H15v4.75a2.53,2.53,0,0,0,.33,1.12v.14H12.21v-.14a2.35,2.35,0,0,0,.35-1.12V10.4a2.28,2.28,0,0,0-.35-1.11V9.14h4a3.46,3.46,0,0,1,2.68,1.11,4.18,4.18,0,0,1,1,2.93,5,5,0,0,1-.65,2.55,3.83,3.83,0,0,1-1.53,1.56l1.89,5.07a4.33,4.33,0,0,0,.62,1.05v.14Zm-.67-8.64a2.12,2.12,0,0,0,.51-1.49,1.75,1.75,0,0,0-2-2H15v4.05h.7A1.51,1.51,0,0,0,16.85,14.91Z"/><path class="cls-4" d="M26.93,23.55l-1.83-6h-.7v4.75a2.53,2.53,0,0,0,.33,1.12v.14H21.62v-.14A2.35,2.35,0,0,0,22,22.29V10.4a2.28,2.28,0,0,0-.35-1.11V9.14h4a3.46,3.46,0,0,1,2.68,1.11,4.18,4.18,0,0,1,1,2.93,5,5,0,0,1-.65,2.55,3.83,3.83,0,0,1-1.53,1.56L29,22.36a4.33,4.33,0,0,0,.62,1.05v.14Zm-.67-8.64a2.12,2.12,0,0,0,.51-1.49,1.75,1.75,0,0,0-2-2H24.4v4.05h.7A1.51,1.51,0,0,0,26.26,14.91Z"/></g></svg>