<svg id="art" xmlns="http://www.w3.org/2000/svg" xmlns:xlink="http://www.w3.org/1999/xlink" viewBox="0 0 34.02 34.02"><defs><style>.cls-1{fill:none;}.cls-2{clip-path:url(#clip-path);}.cls-3{fill:#09743b;}.cls-4{fill:#fff;}</style><clipPath id="clip-path"><circle class="cls-1" cx="17.01" cy="17.01" r="16.67"/></clipPath></defs><g class="cls-2"><path class="cls-3" d="M37.84,17A20.84,20.84,0,1,1,17-3.83,20.83,20.83,0,0,1,37.84,17Z"/><path class="cls-4" d="M16.38,16.78v3.37a1.88,1.88,0,0,1-.83,1.11,2.84,2.84,0,0,1-1.51.37A2.69,2.69,0,0,1,12.28,21,4.61,4.61,0,0,1,11,19.09a7.26,7.26,0,0,1-.47-2.65A7.61,7.61,0,0,1,11,13.62a4.15,4.15,0,0,1,1.31-1.84,3,3,0,0,1,1.9-.64,2.84,2.84,0,0,1,1.15.19,3.08,3.08,0,0,1,.73.48v2H16a2.57,2.57,0,0,0-.74-.65,1.86,1.86,0,0,0-1-.26,1.57,1.57,0,0,0-1.44.89,5.67,5.67,0,0,0-.5,2.68,5.4,5.4,0,0,0,.28,1.78,3.87,3.87,0,0,0,.7,1.3,1.14,1.14,0,0,0,.81.48.62.62,0,0,0,.46-.18V16.66a1.3,1.3,0,0,0-.27-.66v-.1h2.24V16A1.36,1.36,0,0,0,16.38,16.78Z"/><path class="cls-4" d="M21.55,21.53l-1.31-4.29h-.5v3.39a1.89,1.89,0,0,0,.23.8v.1H17.76v-.1a1.82,1.82,0,0,0,.25-.8V12.14a1.82,1.82,0,0,0-.25-.8v-.1h2.85a2.49,2.49,0,0,1,1.92.79,3,3,0,0,1,.72,2.09,3.52,3.52,0,0,1-.46,1.82,2.76,2.76,0,0,1-1.1,1.12l1.36,3.62a2.89,2.89,0,0,0,.44.75v.1Zm-.48-6.17a1.53,1.53,0,0,0,.36-1.06A1.26,1.26,0,0,0,20,12.86h-.29v2.89h.5A1.11,1.11,0,0,0,21.07,15.36Z"/></g></svg>