<svg id="art" xmlns="http://www.w3.org/2000/svg" xmlns:xlink="http://www.w3.org/1999/xlink" viewBox="0 0 34.02 34.02"><defs><style>.cls-1{fill:none;}.cls-2{clip-path:url(#clip-path);}.cls-3{fill:#ec2785;}.cls-4{fill:#fff;}.cls-5{clip-path:url(#clip-path-2);}</style><clipPath id="clip-path"><circle class="cls-1" cx="17.01" cy="17.01" r="16.67"/></clipPath><clipPath id="clip-path-2"><circle class="cls-1" cx="17.01" cy="58.04" r="16.67"/></clipPath></defs><g class="cls-2"><path class="cls-3" d="M37.84,17A20.84,20.84,0,1,1,17-3.83,20.83,20.83,0,0,1,37.84,17Z"/><path class="cls-4" d="M12.69,11.26v.1a2.3,2.3,0,0,0-.19.41.85.85,0,0,0-.06.31v8.65a1.28,1.28,0,0,0,.25.72v.1H10.44v-.1a1.8,1.8,0,0,0,.26-.8V16.77H8.89v3.88A1,1,0,0,0,9,21a3.72,3.72,0,0,0,.2.44v.1H6.82v-.1a1.71,1.71,0,0,0,.27-.8V12.16a1.71,1.71,0,0,0-.27-.8v-.1H9.16v.1a1.71,1.71,0,0,0-.27.8v3H10.7v-3a1.8,1.8,0,0,0-.26-.8v-.1Z"/><path class="cls-4" d="M20.06,11.26v.1a1.75,1.75,0,0,0-.23.8v9.39h-.6L16,15.29v5.36a1.36,1.36,0,0,0,.27.78v.12H14v-.12a1.58,1.58,0,0,0,.27-.78V12.16a1.12,1.12,0,0,0-.06-.38,3.53,3.53,0,0,0-.19-.42v-.1h1.89l2.19,4.47V12.16a1.32,1.32,0,0,0-.26-.8v-.1Z"/><path class="cls-4" d="M27.2,11.26v.1a2.3,2.3,0,0,0-.19.41.85.85,0,0,0-.06.31v8.65a1.28,1.28,0,0,0,.25.72v.1H25v-.1a1.8,1.8,0,0,0,.26-.8V16.77H23.4v3.88a1,1,0,0,0,.07.36,3.72,3.72,0,0,0,.2.44v.1H21.33v-.1a1.71,1.71,0,0,0,.27-.8V12.16a1.71,1.71,0,0,0-.27-.8v-.1h2.34v.1a1.71,1.71,0,0,0-.27.8v3h1.81v-3a1.8,1.8,0,0,0-.26-.8v-.1Z"/></g><g class="cls-5"><path class="cls-4" d="M12.69,11.26v.1a2.3,2.3,0,0,0-.19.41.85.85,0,0,0-.06.31v8.65a1.28,1.28,0,0,0,.25.72v.1H10.44v-.1a1.8,1.8,0,0,0,.26-.8V16.77H8.89v3.88A1,1,0,0,0,9,21a3.72,3.72,0,0,0,.2.44v.1H6.82v-.1a1.71,1.71,0,0,0,.27-.8V12.16a1.71,1.71,0,0,0-.27-.8v-.1H9.16v.1a1.71,1.71,0,0,0-.27.8v3H10.7v-3a1.8,1.8,0,0,0-.26-.8v-.1Z"/><path class="cls-4" d="M20.06,11.26v.1a1.75,1.75,0,0,0-.23.8v9.39h-.6L16,15.29v5.36a1.36,1.36,0,0,0,.27.78v.12H14v-.12a1.58,1.58,0,0,0,.27-.78V12.16a1.12,1.12,0,0,0-.06-.38,3.53,3.53,0,0,0-.19-.42v-.1h1.89l2.19,4.47V12.16a1.32,1.32,0,0,0-.26-.8v-.1Z"/><path class="cls-4" d="M27.2,11.26v.1a2.3,2.3,0,0,0-.19.41.85.85,0,0,0-.06.31v8.65a1.28,1.28,0,0,0,.25.72v.1H25v-.1a1.8,1.8,0,0,0,.26-.8V16.77H23.4v3.88a1,1,0,0,0,.07.36,3.72,3.72,0,0,0,.2.44v.1H21.33v-.1a1.71,1.71,0,0,0,.27-.8V12.16a1.71,1.71,0,0,0-.27-.8v-.1h2.34v.1a1.71,1.71,0,0,0-.27.8v3h1.81v-3a1.8,1.8,0,0,0-.26-.8v-.1Z"/></g></svg>