<svg id="art" xmlns="http://www.w3.org/2000/svg" xmlns:xlink="http://www.w3.org/1999/xlink" viewBox="0 0 34.02 34.02"><defs><style>.cls-1{fill:none;}.cls-2{clip-path:url(#clip-path);}.cls-3{fill:#ec2785;}.cls-4{fill:#fff;}</style><clipPath id="clip-path"><circle class="cls-1" cx="17.01" cy="17.01" r="16.67" transform="translate(-3.8 29.08) rotate(-75.13)"/></clipPath></defs><g class="cls-2"><path class="cls-3" d="M37.84,17A20.84,20.84,0,1,1,17-3.83,20.83,20.83,0,0,1,37.84,17Z"/><path class="cls-4" d="M11.47,9.2v.15a4.52,4.52,0,0,0-.25.56,1.37,1.37,0,0,0-.07.45v12.1a1.87,1.87,0,0,0,.32,1v.14H8.61v-.14A2.5,2.5,0,0,0,9,22.35V16.92H6.66v5.43a1.7,1.7,0,0,0,.08.51c.06.16.14.36.25.61v.14H4v-.14a2.64,2.64,0,0,0,.34-1.12V10.46A2.64,2.64,0,0,0,4,9.35V9.2H7v.15a2.6,2.6,0,0,0-.33,1.11v4.26H9V10.46a2.5,2.5,0,0,0-.34-1.11V9.2Z"/><path class="cls-4" d="M20.82,9.2v.15a2.5,2.5,0,0,0-.3,1.11V23.61h-.76l-4.14-8.77v7.51A2.12,2.12,0,0,0,16,23.44v.17H13.08v-.17a2.33,2.33,0,0,0,.34-1.09V10.46a1.91,1.91,0,0,0-.08-.54,3.07,3.07,0,0,0-.24-.57V9.2h2.41l2.77,6.26v-5A2,2,0,0,0,18,9.35V9.2Z"/><path class="cls-4" d="M29.86,9.2v.15c-.11.23-.19.42-.24.56a1.37,1.37,0,0,0-.07.45v12.1a1.94,1.94,0,0,0,.31,1v.14H27v-.14a2.5,2.5,0,0,0,.34-1.12V16.92H25.06v5.43a1.44,1.44,0,0,0,.08.51c.06.16.14.36.25.61v.14h-3v-.14a2.6,2.6,0,0,0,.33-1.12V10.46a2.6,2.6,0,0,0-.33-1.11V9.2h3v.15a2.6,2.6,0,0,0-.33,1.11v4.26h2.29V10.46A2.5,2.5,0,0,0,27,9.35V9.2Z"/></g></svg>