<svg id="art" xmlns="http://www.w3.org/2000/svg" xmlns:xlink="http://www.w3.org/1999/xlink" viewBox="0 0 34.02 34.02"><defs><style>.cls-1{fill:none;}.cls-2{clip-path:url(#clip-path);}.cls-3{fill:#3b60ab;}.cls-4{fill:#fff;}</style><clipPath id="clip-path"><circle class="cls-1" cx="17.01" cy="17.01" r="16.67"/></clipPath></defs><g class="cls-2"><path class="cls-3" d="M37.84,17A20.84,20.84,0,1,1,17-3.83,20.83,20.83,0,0,1,37.84,17Z"/><path class="cls-4" d="M13.17,11.28v.11c-.08.16-.15.3-.19.4a.86.86,0,0,0-.05.32v8.64a1.29,1.29,0,0,0,.24.72v.1H10.93v-.1a1.76,1.76,0,0,0,.26-.79V16.8H9.38v3.88a.92.92,0,0,0,.07.36,4.66,4.66,0,0,0,.2.43v.1H7.31v-.1a1.65,1.65,0,0,0,.26-.79v-8.5a1.65,1.65,0,0,0-.26-.79v-.11H9.65v.11a1.68,1.68,0,0,0-.27.79v3h1.81v-3a1.76,1.76,0,0,0-.26-.79v-.11Z"/><path class="cls-4" d="M18.27,21.57,17,17.28h-.5v3.4a1.86,1.86,0,0,0,.23.79v.1H14.47v-.1a1.66,1.66,0,0,0,.25-.79v-8.5a1.66,1.66,0,0,0-.25-.79v-.11h2.86a2.46,2.46,0,0,1,1.91.8A2.93,2.93,0,0,1,20,14.16,3.55,3.55,0,0,1,19.51,16a2.76,2.76,0,0,1-1.1,1.12l1.36,3.61a2.59,2.59,0,0,0,.44.75v.1Zm-.48-6.17a1.51,1.51,0,0,0,.36-1.06,1.26,1.26,0,0,0-1.4-1.44h-.29v2.9H17A1.12,1.12,0,0,0,17.79,15.4Z"/><path class="cls-4" d="M25,21.57l-1.31-4.29h-.5v3.4a1.86,1.86,0,0,0,.23.79v.1H21.19v-.1a1.66,1.66,0,0,0,.25-.79v-8.5a1.66,1.66,0,0,0-.25-.79v-.11h2.86a2.5,2.5,0,0,1,1.92.8,3,3,0,0,1,.72,2.08A3.55,3.55,0,0,1,26.23,16a2.8,2.8,0,0,1-1.09,1.12l1.35,3.61a2.84,2.84,0,0,0,.44.75v.1Zm-.48-6.17a1.51,1.51,0,0,0,.36-1.06,1.26,1.26,0,0,0-1.4-1.44h-.29v2.9h.5A1.12,1.12,0,0,0,24.51,15.4Z"/></g></svg>