<svg id="art" xmlns="http://www.w3.org/2000/svg" xmlns:xlink="http://www.w3.org/1999/xlink" viewBox="0 0 34.02 34.02"><defs><style>.cls-1{fill:none;}.cls-2{clip-path:url(#clip-path);}.cls-3{fill:#3b60ab;}.cls-4{fill:#fff;}</style><clipPath id="clip-path"><circle class="cls-1" cx="17.01" cy="17.01" r="16.67" transform="translate(-5.21 26.21) rotate(-67.5)"/></clipPath></defs><g class="cls-2"><path class="cls-3" d="M37.84,17A20.84,20.84,0,1,1,17-3.83,20.83,20.83,0,0,1,37.84,17Z"/><path class="cls-4" d="M12.6,9.23v.14a3.44,3.44,0,0,0-.27.57,1.32,1.32,0,0,0-.08.44v12.1a1.74,1.74,0,0,0,.35,1v.14H9.45v-.14a2.36,2.36,0,0,0,.37-1.11V16.94H7.29v5.44a1.43,1.43,0,0,0,.09.5,5.68,5.68,0,0,0,.28.61v.14H4.39v-.14a2.48,2.48,0,0,0,.37-1.11V10.48a2.48,2.48,0,0,0-.37-1.11V9.23H7.66v.14a2.36,2.36,0,0,0-.37,1.11v4.26H9.82V10.48a2.36,2.36,0,0,0-.37-1.11V9.23Z"/><path class="cls-4" d="M19,23.63l-1.84-6h-.69v4.76a2.64,2.64,0,0,0,.32,1.11v.14h-3.1v-.14A2.46,2.46,0,0,0,14,22.38V10.48a2.46,2.46,0,0,0-.35-1.11V9.23h4a3.48,3.48,0,0,1,2.69,1.11,4.18,4.18,0,0,1,1,2.92,5,5,0,0,1-.64,2.55,4,4,0,0,1-1.54,1.57l1.9,5.06a4.29,4.29,0,0,0,.61,1v.14ZM18.31,15a2.16,2.16,0,0,0,.5-1.48c0-1.35-.65-2-1.95-2h-.41v4h.69A1.55,1.55,0,0,0,18.31,15Z"/><path class="cls-4" d="M27.64,23.63l-1.84-6h-.7v4.76a2.53,2.53,0,0,0,.33,1.11v.14h-3.1v-.14a2.46,2.46,0,0,0,.35-1.11V10.48a2.46,2.46,0,0,0-.35-1.11V9.23h4A3.46,3.46,0,0,1,29,10.34a4.14,4.14,0,0,1,1,2.92,4.89,4.89,0,0,1-.65,2.55,3.92,3.92,0,0,1-1.53,1.57l1.89,5.06a4.68,4.68,0,0,0,.62,1v.14ZM27,15a2.16,2.16,0,0,0,.5-1.48c0-1.35-.65-2-1.95-2H25.1v4h.7A1.55,1.55,0,0,0,27,15Z"/></g></svg>