<svg id="art" xmlns="http://www.w3.org/2000/svg" xmlns:xlink="http://www.w3.org/1999/xlink" viewBox="0 0 34.02 34.02"><defs><style>.cls-1{fill:none;}.cls-2{clip-path:url(#clip-path);}.cls-3{fill:#6dcef5;}.cls-4{fill:#231f20;}</style><clipPath id="clip-path"><circle class="cls-1" cx="17.01" cy="17.01" r="16.67" transform="translate(-2.5 31.07) rotate(-80.78)"/></clipPath></defs><g class="cls-2"><path class="cls-3" d="M37.84,17A20.84,20.84,0,1,1,17-3.83,20.84,20.84,0,0,1,37.84,17Z"/><path class="cls-4" d="M12.17,9.38v.15a2.42,2.42,0,0,0-.32,1.11V23.79H11L6.43,15v7.51a2.06,2.06,0,0,0,.37,1.1v.16H3.63v-.16A2.26,2.26,0,0,0,4,22.53V10.64a1.61,1.61,0,0,0-.08-.54,2.82,2.82,0,0,0-.27-.57V9.38H6.31l3.07,6.26v-5A1.9,1.9,0,0,0,9,9.53V9.38Z"/><path class="cls-4" d="M17.13,9.38v.15a2.34,2.34,0,0,0-.37,1.11V21.57h2.18a1.15,1.15,0,0,0,.55-.14,8.53,8.53,0,0,0,.89-.6h.09v3H14v-.14a2.35,2.35,0,0,0,.35-1.12V10.64A2.28,2.28,0,0,0,14,9.53V9.38Z"/><path class="cls-4" d="M30.38,9.38v.15a2.33,2.33,0,0,0-.33,1.11V23.79h-.84L24.64,15v7.51a2,2,0,0,0,.37,1.1v.16H21.84v-.16a2.26,2.26,0,0,0,.37-1.1V10.64a1.91,1.91,0,0,0-.08-.54,4.61,4.61,0,0,0-.27-.57V9.38h2.65l3.07,6.26v-5a1.83,1.83,0,0,0-.37-1.11V9.38Z"/></g></svg>