<svg id="art" xmlns="http://www.w3.org/2000/svg" xmlns:xlink="http://www.w3.org/1999/xlink" viewBox="0 0 34.02 34.02"><defs><style>.cls-1{fill:none;}.cls-2{clip-path:url(#clip-path);}.cls-3{fill:#6dcef5;}.cls-4{fill:#231f20;}</style><clipPath id="clip-path"><circle class="cls-1" cx="17.01" cy="17.01" r="16.67"/></clipPath></defs><g class="cls-2"><path class="cls-3" d="M37.84,17A20.84,20.84,0,1,1,17-3.83,20.84,20.84,0,0,1,37.84,17Z"/><path class="cls-4" d="M13.56,11.44v.1a1.66,1.66,0,0,0-.24.8v9.39h-.6L9.45,15.47v5.36a1.36,1.36,0,0,0,.27.78v.12H7.45v-.12a1.58,1.58,0,0,0,.27-.78V12.34A1.12,1.12,0,0,0,7.66,12a2.42,2.42,0,0,0-.19-.42v-.1h1.9l2.19,4.47V12.34a1.33,1.33,0,0,0-.27-.8v-.1Z"/><path class="cls-4" d="M17.1,11.44v.1a1.64,1.64,0,0,0-.27.8v7.8h1.56a.86.86,0,0,0,.39-.09,6.38,6.38,0,0,0,.64-.44h.06v2.12H14.85v-.1a1.78,1.78,0,0,0,.25-.8V12.34a1.82,1.82,0,0,0-.25-.8v-.1Z"/><path class="cls-4" d="M26.56,11.44v.1a1.66,1.66,0,0,0-.24.8v9.39h-.6l-3.26-6.26v5.36a1.42,1.42,0,0,0,.26.78v.12H20.46v-.12a1.55,1.55,0,0,0,.26-.78V12.34a1.12,1.12,0,0,0-.06-.38,1.84,1.84,0,0,0-.19-.42v-.1h1.9l2.19,4.47V12.34a1.39,1.39,0,0,0-.26-.8v-.1Z"/></g></svg>