<svg xmlns="http://www.w3.org/2000/svg" viewBox="0 0 34.02 34.02" xmlns:v="https://vecta.io/nano"><style><![CDATA[.E{fill-rule:evenodd}.F{fill:#231f20}]]></style><defs><clipPath id="A"><circle cx="17.01" cy="17.01" r="17.01" fill="none"/></clipPath></defs><g clip-path="url(#A)" class="E"><g class="F"><path d="M17-13.47A30.48,30.48,0,1,1-13.46,17,30.48,30.48,0,0,1,17-13.47"/><path d="M15.78,7.06a23.8,23.8,0,0,1,12.37,2.5c2.14,1.21,5.9,4.06,5.24,8.56-.34,2.36-2.3,4.32-3.92,5.48-3.85,2.74-10.36,4-16.43,3.09C7.48,25.82,2.11,23.37.79,18.84a7.46,7.46,0,0,1,1.78-6.79A15.28,15.28,0,0,1,8.16,8.6a23.93,23.93,0,0,1,7.62-1.54m-9.4,3.21a8.83,8.83,0,0,0-4.4,5c-1.07,3.87,1.48,6.53,3.69,8,5.56,3.64,16.55,3.69,22.37.12A9.11,9.11,0,0,0,32,19c1.42-4.35-2.28-7.48-4.4-8.69-3-1.7-7.46-2.55-12-2.26-3.17.2-6.75.87-9.16,2.26"/></g><path d="M15.54,8c4.56-.29,9,.56,12,2.26,2.12,1.21,5.82,4.34,4.4,8.69A9.11,9.11,0,0,1,28,23.36c-5.82,3.57-16.81,3.52-22.37-.12C3.46,21.8.9,19.14,2,15.27a8.83,8.83,0,0,1,4.4-5c2.41-1.39,6-2.06,9.16-2.26M7,11c-2.28,1.27-4.61,3.14-4.52,6.19.07,2.26,1.76,4.06,3.22,5.12C12.11,27,25.39,25.78,29.82,21a6.34,6.34,0,0,0,1.67-4.28c-.14-3.14-3.21-5.25-5.59-6.31A23.08,23.08,0,0,0,15.66,8.72,19.65,19.65,0,0,0,7,11" fill="#fff"/><path d="M15.66,8.72A23.08,23.08,0,0,1,25.9,10.39c2.37,1.06,5.45,3.17,5.59,6.31A6.34,6.34,0,0,1,29.82,21c-4.43,4.79-17.71,6-24.15,1.31-1.46-1.06-3.15-2.86-3.22-5.12C2.36,14.12,4.69,12.25,7,11a19.65,19.65,0,0,1,8.69-2.26m-2,4.41c0-.4-.44-.82-.12-1.19-.32.07-.95-.16-1.07.12.74.49.38,2.07,1.31,2.37.25-.3.25-.85.47-1.19.44.29.23,1.21.95,1.19A17.63,17.63,0,0,0,16,11.82h-.6c-.08.29.05,1-.35,1.31-.26-.43-.25-1.1-.72-1.31-.35.32-.3,1-.71,1.31m3.81,1.19c.17.18.61.1.95.11-.44-1.13.37-1.88.71-2.61h-.59c0,.51-.09.86-.48.95-.06-.42-.35-.53-.12-.95H16.85c.33.66,1.3,1.53.6,2.5M19,13.13c0,1.61,2.56,1.78,2.74.23a1.35,1.35,0,0,0-1.9-1.42A1.19,1.19,0,0,0,19,13.13m2.86,1.3h.95c.31-.18-.46-.63,0-.95.34.22.46.66.71.95h1.91c.07-.31-.49-.6-.12-.83.58.22.56,1,1.55.83-.23-.64-.83-.92-1.07-1.54.18-.49.74-.61.95-1.07H25.9a1.15,1.15,0,0,1-.72,1.07,1.48,1.48,0,0,1,.24-1.07H24.35c.23.4.57,2.19-.12,2.38-.46-.06-.49-.55-.72-.84.1-.34.57-.31.48-.83-.15-.8-1.16-.74-2.14-.71a3.51,3.51,0,0,1,0,2.61m-14.16,0H8.4c.18-.17-.42-1,0-1.42.67.32.8,1.18,1.55,1.42.05-1.06-.13-2,.24-2.49H9.47c.07.25.29,1,0,1.19-.55-.44-.68-1.3-1.78-1.19a3.08,3.08,0,0,1,0,2.49m2.85,0c.67-.12,1.94.36,1.91-.47-.41,0-1,.28-1.19-.12v-.48c.19-.39.75.32.71-.23.17-.53-.71,0-.71-.36-.16-.79.5-.57,1-.48,0-.66-1.12-.23-1.67-.35a6.46,6.46,0,0,1,0,2.49m-3.68.12c-3.36.22-3.17,5.78.23,5.83C7.82,20.4,9,20,9,19.43,5.47,21.61,4.19,15.12,7.45,15c.72,0,.83.3,1.55.47-.22-.9-1.52-1-2.14-.95m1.42,2.26c.07.53-.25,1.15-.12,1.79-.13.22-.65.3-.35.59a22,22,0,0,0,3-.11c0-.22.32-.7,0-.84-.24.4-1.28.49-1.78.24,0-.36-.14-.92.23-.95.53-.09.53.34,1,.36v-1c-.37.11-.93.46-1.19,0v-.59c.43-.23,1.51-.21,1.66.24.23-.23-.07-.22,0-.6-.63-.51-1.6.08-2.73-.24-.12.35.29.59.35,1.07m3.46,1.55c0,.38-.64.52-.36.83h.95c0-.23-.56-1.39-.12-2,.87.52,1.18,1.6,2.14,2,.36-.9-.21-2.75.47-3.33-.36.08-1-.15-1.18.12.5.06.64,1.1.35,1.55-1-.48-1.05-1.88-2.61-1.79a5.07,5.07,0,0,1,.36,2.62m5.35-2.5c-.76,0-2.16-.19-2,.6.51,0,.58-.37,1.19-.24.21.8.24,2.37-.24,2.86h1.43a4.93,4.93,0,0,1-.12-2.86,1.49,1.49,0,0,1,1.07.24c.22-.91-.64-.59-1.31-.6m4.64.24A4.9,4.9,0,0,0,19,15.86c.36.71.42,2.67-.12,3.22.48-.08,1.27.15,1.55-.12-.42,0-.54-1.08-.12-1.19.4.39.7.88,1.07,1.31.33-.08.95.15,1.07-.12-.55-.24-.7-.89-1.07-1.31.51-.15.59-1,.36-1.55m2.5-.24c-.54,1-.85,2.25-1.43,3.22h.84c0-.29-.22-.26-.13-.6.35-.1,1.4-.33,1.55.12,0,.24-.32.15-.24.48h1.55c-.68-.95-1-2.26-1.67-3.22Zm2.5,3.22h2.61c0-.21.34-.6,0-.72-.17.38-.91.2-1.42.24,0-.94-.17-2.16.24-2.74H26.85c.36.71.42,2.67-.12,3.22M9.47,21.81c.27.48,1.24.27,1.31,1-.17,0-.2.2-.35.24a3,3,0,0,1-1-.36v.6c.75,0,1.63.12,1.91-.36.24-1.19-1-.93-1.31-1.54a.32.32,0,0,1,.24-.36c.39-.11.75.43.95.12-.33-.7-2.22-.47-1.79.71m4.76-.24c.17.75,1.41.42,1.43,1.31-.45.34-1-.08-1.31-.24-.06,1.13,2.41.72,1.91-.47-.37-.42-1.26-.33-1.44-1,.32-.43.92-.15,1.32,0-.12-.93-2.1-.51-1.91.35m2.27-.35c.08.23.38-.32.83-.12,0,.85.09,1.76-.36,2.14h1.19a4.55,4.55,0,0,1,0-2.26,3,3,0,0,0,.71.24c-.07-.85-1.48-.34-2.26-.48,0,.16-.16.23-.11.48m2.61,2a8.13,8.13,0,0,0,2.26-.12c-.06-.17.14-.61-.12-.59-.12.34-.56.38-1.06.35.06-.24-.15-.78.11-.83s.23.33.6.24v-.6c-.21-.29-.66.49-.84-.12s.86-.46,1.19-.35c0-.75-1.55-.51-2-.36a2.28,2.28,0,0,1-.12,2.38m2.74,0h.71c0-.33-.48-.85-.12-1.19.35.33.44.92.84,1.19.36-.43.48-1.1.95-1.43.13.69-.17,1-.24,1.43h1.07a4.22,4.22,0,0,1-.12-2.5h-.83c-.3.46-.4,1.11-.83,1.43a5.61,5.61,0,0,0-.84-1.43c-.2.07-.69-.14-.71.12.57.4.06,2.12.12,2.38m-9.64,0H13.4c-.87-.79.12-1.85.59-2.38h-.71c0,.38-.08.71-.48.71,0-.36-.38-.46-.12-.71-.28.07-.86-.15-.94.12a1.77,1.77,0,0,1,.47,2.26" class="F"/><g fill="#fff"><path d="M14.35 11.82c.47.21.46.88.72 1.31.4-.27.27-1 .35-1.31H16a18.74 18.74 0 0 1-.83 2.61c-.73 0-.52-.9-1-1.18-.22.33-.22.88-.47 1.18-.93-.3-.57-1.88-1.31-2.37.12-.28.74-.05 1.07-.12-.32.37.09.79.12 1.19.41-.27.36-1 .71-1.31m2.56 0h1.07c-.23.42.06.53.12.95.39-.09.52-.44.48-.95h.59c-.34.73-1.15 1.48-.71 2.61-.34 0-.78.07-.95-.11.7-1-.26-1.84-.6-2.5m2.98.12a1.35 1.35 0 0 1 1.9 1.42c-.18 1.55-2.71 1.38-2.73-.23a1.17 1.17 0 0 1 .83-1.19m.23.11c-.39.56-.49 1.64.12 2 1.08 0 1.12-2.18-.12-2m1.79-.23c1 0 2-.09 2.14.71.09.52-.38.49-.48.83.23.29.26.78.72.84.69-.19.35-2 .12-2.38h1.07a1.48 1.48 0 0 0-.24 1.07 1.15 1.15 0 0 0 .72-1.07h.83c-.21.46-.77.58-.95 1.07.24.62.84.9 1.07 1.54-1 .2-1-.61-1.55-.83-.37.23.19.52.12.83h-1.91c-.25-.3-.37-.73-.71-.95-.46.32.31.77 0 .95h-.95a3.51 3.51 0 0 0 0-2.61m.83 1.18h.6c.17-.37 0-.54-.12-.84h-.48zM7.69 11.94c1.1-.11 1.23.75 1.78 1.19.29-.22.07-.94 0-1.19h.72c-.37.52-.19 1.43-.24 2.49-.75-.24-.88-1.1-1.55-1.42-.43.4.18 1.25 0 1.42h-.71a3.08 3.08 0 0 0 0-2.49m2.85 0c.55.12 1.66-.31 1.67.35-.45-.09-1.11-.31-1 .48 0 .35.88-.17.71.36 0 .55-.52-.16-.71.23v.48c.21.4.78.17 1.19.12 0 .83-1.24.35-1.91.47a6.46 6.46 0 0 0 0-2.49"/></g><g class="F"><path d="M20.18 14.08c-.61-.39-.51-1.47-.12-2 1.24-.15 1.2 2 .12 2m2.5-1.91h.48c.17.3.29.47.12.84h-.6z"/></g><g fill="#fff"><path d="M9 15.5c-.72-.17-.83-.49-1.55-.47-3.26.09-2 6.58 1.55 4.4 0 .54-1.19 1-1.91.95-3.4-.05-3.6-5.61-.23-5.83.62 0 1.92 0 2.14.95m-1.07.24c1.13.32 2.1-.27 2.73.24-.07.38.22.37 0 .6-.15-.45-1.23-.47-1.66-.24v.59c.26.46.82.11 1.19 0v1c-.43 0-.43-.45-1-.36-.37 0-.2.59-.23.95.5.25 1.54.16 1.78-.24.32.14 0 .62 0 .84a22 22 0 0 1-3 .11c-.3-.29.22-.37.35-.59-.13-.64.19-1.26.12-1.79s-.47-.72-.35-1.07m3.52-.04c1.56-.09 1.63 1.31 2.61 1.79.29-.45.15-1.49-.35-1.55.16-.27.82 0 1.19-.12-.69.58-.12 2.42-.48 3.33-1-.42-1.27-1.5-2.14-2-.44.63.15 1.79.12 2h-.95c-.28-.31.34-.45.36-.83a5.07 5.07 0 0 0-.36-2.62m7.02.72a1.49 1.49 0 0 0-1.07-.24 4.93 4.93 0 0 0 .12 2.86H16c.48-.49.45-2.06.24-2.86-.61-.13-.68.27-1.19.24-.14-.79 1.26-.61 2-.6s1.53-.31 1.31.6m3.01 1.19c.37.42.52 1.07 1.08 1.31-.13.27-.75 0-1.08.12-.37-.43-.67-.92-1.07-1.31-.42.11-.3 1.19.12 1.19-.28.27-1.07 0-1.55.12.55-.55.48-2.51.13-3.22a4.87 4.87 0 0 1 2.73.24c.23.53.15 1.4-.36 1.55m-1.31-.36c.35 0 .78.06 1-.12v-.71a1 1 0 0 0-1-.24zm4.64-1.43c.67 1 1 2.27 1.67 3.22h-1.55c-.08-.33.24-.24.24-.48-.15-.45-1.2-.22-1.55-.12-.09.34.17.31.13.6h-.84c.58-1 .89-2.2 1.43-3.22zm-.83 2c.37-.05.57.27.83 0-.18-.34-.1-.93-.59-1 0 .38-.27.53-.24 1m2.98-2h1.3c-.4.59-.18 1.8-.23 2.74.51 0 1.25.14 1.42-.24.34.12 0 .51 0 .72h-2.61c.54-.55.48-2.51.12-3.22"/></g><g class="F"><path d="M20.06 16.22a1 1 0 0 1 1 .24v.71c-.18.19-.61.11-1 .12zm4.05.71c.49 0 .41.62.59 1-.26.27-.46-.05-.83 0 0-.43.22-.58.24-1"/></g><g fill="#fff"><path d="M11.26 21.1c-.2.31-.56-.23-.95-.12a.32.32 0 0 0-.24.36c.34.61 1.55.35 1.31 1.54-.28.48-1.16.35-1.91.36v-.6a3 3 0 0 0 1 .36c.15 0 .18-.21.35-.24-.07-.68-1-.47-1.31-1-.43-1.18 1.46-1.41 1.79-.71m4.84.17c-.4-.15-1-.43-1.31 0 .17.62 1.06.53 1.43 1 .5 1.19-2 1.6-1.91.47.34.16.86.58 1.31.24 0-.89-1.26-.56-1.43-1.31s1.79-1.28 1.91-.35m.47-.53c.78.14 2.19-.37 2.26.48a3 3 0 0 1-.71-.24 4.55 4.55 0 0 0 0 2.26H17c.45-.38.37-1.29.36-2.14-.45-.21-.75.35-.83.12s.08-.32.11-.48m2.59.12c.47-.15 2.06-.39 2 .36-.33-.11-1.35-.38-1.19.35s.63-.17.84.12v.6c-.37.09-.23-.33-.6-.24s0 .59-.12.83c.51 0 .95 0 1.07-.35.26 0 .06.42.12.59a8.15 8.15 0 0 1-2.26.12 2.28 2.28 0 0 0 .12-2.38m2.52 0c0-.26.5-.05.71-.12a5.61 5.61 0 0 1 .84 1.43c.43-.32.53-1 .83-1.43h.83a4.22 4.22 0 0 0 .12 2.5H24c.07-.48.37-.74.24-1.43-.47.33-.59 1-.95 1.43-.4-.27-.49-.86-.84-1.19-.37.34.09.86.12 1.19h-.71c-.06-.26.45-2-.12-2.38m-10 .14c.08-.27.66-.05.94-.12-.26.25.16.35.12.71.4 0 .46-.33.48-.71H14c-.47.53-1.46 1.59-.59 2.38h-1.2a1.77 1.77 0 0 0-.47-2.26"/></g></g></svg>