<svg id="art" xmlns="http://www.w3.org/2000/svg" xmlns:xlink="http://www.w3.org/1999/xlink" viewBox="0 0 34.02 34.02"><defs><style>.cls-1{fill:none;}.cls-2{fill:#231f20;}.cls-2,.cls-3{fill-rule:evenodd;}.cls-3{fill:#fff;}.cls-4{clip-path:url(#clip-path);}</style><clipPath id="clip-path"><circle class="cls-1" cx="17.01" cy="17.01" r="16.67"/></clipPath><symbol id="New_Symbol_2" data-name="New Symbol 2" viewBox="0 0 45.32 45.32"><path class="cls-2" d="M22.66,0A22.66,22.66,0,1,1,0,22.66,22.66,22.66,0,0,1,22.66,0"/><path class="cls-2" d="M21.75,15.26A17.74,17.74,0,0,1,31,17.12c1.59.91,4.38,3,3.89,6.37a6.68,6.68,0,0,1-2.92,4.07c-2.86,2-7.7,3-12.21,2.3-4.13-.65-8.13-2.47-9.11-5.84a5.53,5.53,0,0,1,1.32-5,11.38,11.38,0,0,1,4.16-2.57,17.74,17.74,0,0,1,5.67-1.15m-7,2.39a6.6,6.6,0,0,0-3.28,3.72c-.79,2.87,1.11,4.86,2.75,5.93,4.13,2.7,12.3,2.74,16.63.08a6.76,6.76,0,0,0,2.92-3.27c1-3.23-1.7-5.56-3.27-6.46A16.74,16.74,0,0,0,21.57,16a16.71,16.71,0,0,0-6.81,1.68"/><path class="cls-3" d="M21.57,16a16.74,16.74,0,0,1,8.94,1.68c1.57.9,4.32,3.23,3.27,6.46a6.76,6.76,0,0,1-2.92,3.27C26.53,30,18.36,30,14.23,27.29c-1.64-1.06-3.55-3.05-2.75-5.92a6.6,6.6,0,0,1,3.28-3.72A16.71,16.71,0,0,1,21.57,16M15.2,18.18c-1.7.94-3.44,2.34-3.37,4.6a5.27,5.27,0,0,0,2.4,3.81c4.78,3.47,14.66,2.59,18-1a4.75,4.75,0,0,0,1.24-3.18c-.11-2.34-2.39-3.9-4.16-4.69a17,17,0,0,0-7.61-1.24,14.48,14.48,0,0,0-6.46,1.68"/><path class="cls-2" d="M21.66,16.5a17,17,0,0,1,7.61,1.24c1.77.79,4.05,2.35,4.16,4.69a4.75,4.75,0,0,1-1.24,3.18c-3.3,3.57-13.17,4.45-18,1a5.23,5.23,0,0,1-2.39-3.81c-.08-2.26,1.66-3.66,3.36-4.6a14.48,14.48,0,0,1,6.46-1.68m-1.51,3.27c0-.29-.32-.6-.08-.88-.24.05-.71-.11-.8.09.55.36.28,1.54,1,1.77.19-.23.19-.64.36-.89.32.21.16.9.7.89a12.65,12.65,0,0,0,.62-1.95h-.44c-.06.22,0,.78-.26,1-.19-.31-.19-.81-.54-1-.26.24-.22.78-.53,1m2.84.89c.12.14.45.08.7.09-.33-.84.28-1.41.54-1.95h-.45c0,.38-.06.64-.35.71-.05-.31-.26-.4-.09-.71h-.8c.25.49,1,1.14.45,1.86m1.15-.89a1,1,0,0,0,2,.18,1,1,0,0,0-1.41-1.06.87.87,0,0,0-.62.88m2.12,1H27c.22-.14-.35-.48,0-.71.25.16.34.49.53.71h1.41c.05-.24-.36-.45-.08-.62.42.16.41.77,1.15.62-.17-.48-.62-.69-.8-1.15.14-.36.55-.45.71-.8h-.62a.86.86,0,0,1-.53.8,1.13,1.13,0,0,1,.17-.8h-.79c.17.3.42,1.63-.09,1.77-.35,0-.36-.4-.53-.62.07-.26.42-.23.35-.62-.11-.59-.86-.55-1.59-.53a2.63,2.63,0,0,1,0,1.95m-10.53,0h.53c.13-.13-.32-.77,0-1.06.5.23.59.88,1.15,1.06,0-.8-.09-1.47.18-1.86h-.53c.05.19.21.72,0,.88-.42-.32-.51-1-1.33-.88a2.32,2.32,0,0,1,0,1.86m2.12,0c.5-.1,1.45.26,1.42-.36-.3,0-.73.21-.89-.08V20c.15-.29.56.24.53-.18.13-.39-.52,0-.53-.26-.12-.59.38-.43.71-.36,0-.49-.83-.17-1.24-.26a4.81,4.81,0,0,1,0,1.86m-2.74.08c-2.5.17-2.36,4.3.18,4.34.54,0,1.39-.31,1.41-.71-2.62,1.62-3.57-3.2-1.15-3.27.54,0,.62.22,1.15.35-.16-.67-1.13-.73-1.59-.71m1.06,1.69c0,.39-.19.85-.09,1.33-.09.16-.49.21-.26.44A17.51,17.51,0,0,0,18,24.2c0-.16.24-.52,0-.62-.18.29-1,.36-1.33.18,0-.27-.1-.69.18-.71s.39.25.71.26v-.7c-.28.07-.69.34-.89,0v-.45c.33-.16,1.13-.15,1.24.18.17-.17-.05-.16,0-.44-.47-.38-1.19.06-2-.18-.09.26.22.44.26.8m2.57,1.15c0,.28-.48.38-.27.62h.71c0-.18-.41-1-.09-1.51.65.39.88,1.19,1.59,1.51.27-.68-.15-2.05.36-2.48-.27.05-.76-.11-.89.09.38,0,.48.81.27,1.15-.74-.36-.79-1.4-2-1.33a3.72,3.72,0,0,1,.27,2m4-1.86c-.56,0-1.61-.14-1.5.44.37,0,.43-.27.88-.18a2.92,2.92,0,0,1-.18,2.13H23a3.64,3.64,0,0,1-.09-2.13,1.1,1.1,0,0,1,.79.18c.17-.67-.47-.43-1-.44m3.45.18a3.55,3.55,0,0,0-2-.18,3,3,0,0,1-.09,2.39c.35-.06.94.11,1.15-.09-.31,0-.41-.8-.09-.89.29.3.52.66.8,1,.24-.06.7.11.79-.09-.41-.18-.52-.66-.79-1,.37-.11.43-.76.26-1.15M28,21.81c-.4.75-.63,1.67-1.06,2.39h.62c0-.21-.17-.19-.09-.44.25-.08,1-.25,1.15.09,0,.17-.24.11-.18.35h1.15c-.5-.7-.74-1.68-1.24-2.39Zm1.86,2.39h1.94c0-.16.25-.44,0-.53-.13.28-.67.14-1.06.18,0-.7-.12-1.61.18-2H30a3,3,0,0,1-.09,2.39m-12.83,2c.2.36.92.21,1,.71-.12,0-.15.15-.27.18a2.43,2.43,0,0,1-.7-.27v.45c.55,0,1.21.09,1.41-.27.18-.89-.72-.69-1-1.15a.25.25,0,0,1,.18-.27c.29-.08.55.32.7.09-.24-.52-1.64-.34-1.32.53m3.54-.17c.12.55,1,.3,1.06,1-.33.25-.73-.06-1-.18,0,.84,1.8.53,1.42-.35-.27-.32-.94-.24-1.06-.71.23-.32.68-.11,1,0-.09-.69-1.55-.38-1.41.27m1.68-.27c.06.17.28-.24.62-.09,0,.63.06,1.31-.27,1.6h.89a3.45,3.45,0,0,1,0-1.69,1.94,1.94,0,0,0,.53.18c-.06-.63-1.11-.25-1.69-.35,0,.12-.12.17-.08.35m1.95,1.51a6.41,6.41,0,0,0,1.68-.09c-.05-.13.1-.46-.09-.45-.1.26-.42.29-.8.27.05-.18-.11-.58.09-.62s.17.24.44.18v-.44c-.15-.22-.49.36-.62-.09s.64-.35.89-.27c0-.55-1.16-.38-1.51-.26a1.7,1.7,0,0,1-.08,1.77m2,0h.53c0-.25-.36-.64-.09-.89.26.24.32.68.62.89.27-.32.36-.82.71-1.07.09.51-.12.71-.18,1.07h.8a3.08,3.08,0,0,1-.09-1.86h-.62c-.22.33-.3.82-.62,1.06a4.1,4.1,0,0,0-.62-1.06c-.15,0-.52-.11-.53.09.43.29,0,1.57.09,1.77m-7.17,0H20c-.65-.59.09-1.38.44-1.77h-.53c0,.28-.06.52-.36.53,0-.27-.28-.35-.09-.53-.2,0-.64-.12-.7.08a1.32,1.32,0,0,1,.35,1.69"/><path class="cls-3" d="M20.68,18.8c.35.16.35.66.54,1,.3-.19.2-.75.26-1h.44a13.69,13.69,0,0,1-.61,1.95c-.55,0-.39-.68-.71-.89-.17.25-.17.66-.36.89-.69-.23-.42-1.41-1-1.77.09-.2.55,0,.8-.09-.24.28.06.59.08.88.31-.19.27-.73.53-1"/><path class="cls-3" d="M22.54,18.8h.8c-.17.31,0,.4.09.71.29-.07.38-.33.35-.71h.45c-.26.54-.87,1.11-.54,1.95-.25,0-.58.05-.7-.09.52-.72-.2-1.36-.45-1.86"/><path class="cls-3" d="M24.76,18.89A1,1,0,0,1,26.17,20a1,1,0,0,1-2-.18.87.87,0,0,1,.62-.88m.17.09c-.29.41-.36,1.22.09,1.5.81,0,.83-1.62-.09-1.5"/><path class="cls-3" d="M26.26,18.8c.73,0,1.48-.06,1.59.53.07.39-.28.36-.35.62.17.22.18.58.53.62.51-.14.26-1.47.09-1.77h.79a1.13,1.13,0,0,0-.17.8.86.86,0,0,0,.53-.8h.62c-.16.35-.57.44-.71.8.18.46.63.67.8,1.15-.74.14-.73-.46-1.15-.62-.28.17.13.38.08.62H27.5c-.19-.23-.28-.55-.53-.71-.35.23.22.57,0,.71h-.71a2.63,2.63,0,0,0,0-1.95m.62.88h.44c.13-.27,0-.39-.09-.61h-.35Z"/><path class="cls-3" d="M15.73,18.89c.82-.08.91.56,1.33.88.21-.16,0-.69,0-.88h.53c-.27.39-.14,1.06-.18,1.86-.56-.18-.65-.83-1.15-1.07-.32.3.13.94,0,1.07h-.53a2.32,2.32,0,0,0,0-1.86"/><path class="cls-3" d="M17.85,18.89c.41.09,1.23-.23,1.24.26-.33-.07-.83-.23-.71.36,0,.26.66-.13.53.26,0,.42-.38-.11-.53.18v.36c.16.29.59.12.89.08,0,.62-.92.26-1.42.36a4.81,4.81,0,0,0,0-1.86"/><path class="cls-2" d="M25,20.48c-.45-.28-.38-1.09-.09-1.5.92-.12.9,1.5.09,1.5"/><path class="cls-2" d="M26.88,19.07h.35c.13.22.22.34.09.61h-.44Z"/><path class="cls-3" d="M16.7,21.54c-.53-.13-.61-.37-1.15-.35-2.42.07-1.47,4.89,1.15,3.27,0,.4-.88.72-1.41.71-2.54,0-2.68-4.17-.18-4.34.46,0,1.43,0,1.59.71"/><path class="cls-3" d="M15.91,21.72c.84.24,1.56-.2,2,.18-.05.28.17.27,0,.44C17.83,22,17,22,16.7,22.16v.45c.2.34.61.07.89,0v.7c-.32,0-.32-.32-.71-.26s-.15.44-.18.71c.37.18,1.15.11,1.33-.18.24.1,0,.46,0,.62a17.51,17.51,0,0,1-2.21.09c-.23-.23.17-.28.26-.44-.1-.48.14-.94.09-1.33s-.35-.54-.26-.8"/><path class="cls-3" d="M18.47,21.72c1.16-.07,1.21,1,2,1.33.21-.34.11-1.11-.27-1.15.13-.2.62,0,.89-.09-.51.43-.09,1.8-.36,2.48-.71-.32-.94-1.12-1.59-1.51-.32.47.12,1.33.09,1.51h-.71c-.21-.24.26-.34.27-.62a3.72,3.72,0,0,0-.27-2"/><path class="cls-3" d="M23.69,22.25a1.1,1.1,0,0,0-.79-.18A3.64,3.64,0,0,0,23,24.2H21.92a2.92,2.92,0,0,0,.18-2.13c-.45-.09-.51.21-.88.18-.11-.58.94-.45,1.5-.44s1.14-.23,1,.44"/><path class="cls-3" d="M25.91,23.14c.27.31.38.79.79,1-.09.2-.55,0-.79.09-.28-.32-.51-.68-.8-1-.32.09-.22.89.09.89-.21.2-.8,0-1.15.09a3,3,0,0,0,.09-2.39,3.55,3.55,0,0,1,2,.18c.17.39.11,1-.26,1.15m-1-.27c.26,0,.58.05.71-.09v-.53a.79.79,0,0,0-.71-.18Z"/><path class="cls-3" d="M28.38,21.81c.5.71.73,1.69,1.24,2.39H28.47c-.06-.24.18-.18.18-.35-.11-.34-.9-.17-1.15-.09-.08.25.12.23.09.44H27c.43-.72.66-1.64,1.06-2.39Zm-.62,1.5c.28,0,.43.21.62,0-.13-.24-.08-.68-.44-.7,0,.28-.2.38-.18.7"/><path class="cls-3" d="M30,21.81h1c-.3.43-.14,1.34-.18,2,.39,0,.93.1,1.06-.18.25.09,0,.37,0,.53H29.89A3,3,0,0,0,30,21.81"/><path class="cls-2" d="M24.93,22.07a.79.79,0,0,1,.71.18v.53c-.13.14-.45.08-.71.09Z"/><path class="cls-2" d="M27.94,22.61c.36,0,.31.46.44.7-.19.21-.34,0-.62,0,0-.32.17-.42.18-.7"/><path class="cls-3" d="M18.38,25.7c-.15.23-.41-.17-.7-.09a.25.25,0,0,0-.18.27c.25.46,1.15.26,1,1.15-.2.36-.86.26-1.41.27v-.45a2.43,2.43,0,0,0,.7.27c.12,0,.15-.16.27-.18-.05-.5-.77-.35-1-.71-.32-.87,1.08-1.05,1.32-.53"/><path class="cls-3" d="M22,25.79c-.29-.11-.74-.32-1,0,.12.47.79.39,1.06.71.38.88-1.46,1.19-1.42.35.25.12.65.43,1,.18,0-.67-.94-.42-1.06-1s1.32-1,1.41-.27"/><path class="cls-3" d="M22.36,25.44c.58.1,1.63-.28,1.69.35a1.94,1.94,0,0,1-.53-.18,3.41,3.41,0,0,0,0,1.68h-.89c.33-.28.28-1,.27-1.59-.34-.15-.56.26-.62.09s.06-.23.08-.35"/><path class="cls-3" d="M24.31,25.53c.35-.12,1.53-.29,1.51.26-.25-.08-1-.28-.89.27s.47-.13.62.08v.45c-.27.06-.17-.25-.44-.18s0,.44-.09.62c.38,0,.7,0,.8-.27.19,0,0,.32.09.45a6.44,6.44,0,0,1-1.68.09,1.7,1.7,0,0,0,.08-1.77"/><path class="cls-3" d="M26.17,25.53c0-.2.38,0,.53-.09a4.1,4.1,0,0,1,.62,1.06c.32-.24.4-.73.62-1.06h.62a3.08,3.08,0,0,0,.09,1.86h-.8c.06-.36.27-.56.18-1.07-.35.25-.44.75-.71,1.07-.3-.21-.36-.65-.62-.89-.27.25.06.64.09.89h-.53c0-.2.34-1.48-.09-1.77"/><path class="cls-3" d="M18.74,25.61c.06-.2.5,0,.7-.08-.19.18.12.26.09.53.3,0,.34-.25.36-.53h.53c-.35.39-1.09,1.18-.44,1.77h-.89a1.32,1.32,0,0,0-.35-1.69"/></symbol></defs><g class="cls-4"><use width="45.32" height="45.32" transform="translate(-3.49 -3.49) scale(0.9)" xlink:href="#New_Symbol_2"/></g></svg>