<svg id="art" xmlns="http://www.w3.org/2000/svg" xmlns:xlink="http://www.w3.org/1999/xlink" viewBox="0 0 34.02 34.02"><defs><style>.cls-1{fill:none;}.cls-2{clip-path:url(#clip-path);}.cls-3{fill:#cf6d28;}.cls-4{fill:#fff;}</style><clipPath id="clip-path"><circle class="cls-1" cx="17.01" cy="17.01" r="16.67"/></clipPath></defs><g class="cls-2"><path class="cls-3" d="M37.84,17A20.84,20.84,0,1,1,17-3.83,20.83,20.83,0,0,1,37.84,17Z"/><path class="cls-4" d="M16.38,6.43v.1a1.68,1.68,0,0,0-.23.78v9.11h-.58L12.4,10.34v5.21a1.31,1.31,0,0,0,.26.76v.11h-2.2v-.11a1.6,1.6,0,0,0,.25-.76V7.31a1.07,1.07,0,0,0-.05-.37,2.37,2.37,0,0,0-.19-.41v-.1h1.84l2.13,4.34V7.31a1.33,1.33,0,0,0-.26-.78v-.1Z"/><path class="cls-4" d="M19.32,16.42v-.1l.21-.42.06-.35v-4L17.74,7.26a3.06,3.06,0,0,0-.43-.73v-.1h2.15v.1a1.52,1.52,0,0,0-.07.42,1.18,1.18,0,0,0,.07.36l1,2.46,1-2.56,0-.22a1.59,1.59,0,0,0-.09-.46v-.1h2.16v.08a2.33,2.33,0,0,0-.37.65l-1.89,4.43v4l.07.31a3,3,0,0,0,.2.4v.1Z"/><path class="cls-4" d="M16.29,17.74v.1a1.51,1.51,0,0,0-.23.77v9.12h-.59l-3.16-6.08v5.21a1.34,1.34,0,0,0,.25.75v.12h-2.2v-.12a1.46,1.46,0,0,0,.26-.75V18.61a1.1,1.1,0,0,0-.06-.37,1.92,1.92,0,0,0-.18-.4v-.1h1.84l2.13,4.34V18.61a1.3,1.3,0,0,0-.26-.77v-.1Z"/><path class="cls-4" d="M23.26,17.74v.1q-.12.24-.18.39l-.06.31v8.39a1.26,1.26,0,0,0,.24.7v.1H21.08v-.1a1.7,1.7,0,0,0,.26-.77V23.09H19.58v3.77l.07.35a3.35,3.35,0,0,0,.19.42v.1H17.57v-.1a1.7,1.7,0,0,0,.26-.77V18.61a1.66,1.66,0,0,0-.26-.77v-.1h2.27v.1a1.66,1.66,0,0,0-.26.77v2.95h1.76V18.61a1.66,1.66,0,0,0-.26-.77v-.1Z"/></g></svg>