<svg id="art" xmlns="http://www.w3.org/2000/svg" xmlns:xlink="http://www.w3.org/1999/xlink" viewBox="0 0 34.02 34.02"><defs><style>.cls-1{fill:none;}.cls-2{fill:#f68e1e;fill-rule:evenodd;}.cls-3{fill:#231f20;}.cls-4{clip-path:url(#clip-path);}</style><clipPath id="clip-path"><circle class="cls-1" cx="17.01" cy="17.01" r="16.67"/></clipPath><symbol id="New_Symbol_20" data-name="New Symbol 20" viewBox="0 0 44 44"><path class="cls-2" d="M22,0A22,22,0,1,1,0,22,22,22,0,0,1,22,0"/><path class="cls-3" d="M15.4,11.2A3.61,3.61,0,0,0,15,12c-.05-.1-.1-.17-.17-.19l-.38,0h-.24l-1,3v.06s0,.05.11.28l-.12,0a1.57,1.57,0,0,0-.54.1,2.45,2.45,0,0,0,.23-.46l1-3a3.61,3.61,0,0,0-.54.06s-.26.11-.64.3a2.06,2.06,0,0,0,.43-.82.94.94,0,0,0,.39.15,2.89,2.89,0,0,0,.53,0,4.12,4.12,0,0,0,.84-.07,3.42,3.42,0,0,0,.57-.26m6,1.3a7.37,7.37,0,0,0-1.24.79,7.92,7.92,0,0,0-.69.92L16,21.8c-.24.49-.75,1.61-1.51,3.37h-.16c.3-.71.66-1.63,1.06-2.77q.17-.66.51-2.4c.12-.69.21-1.36.27-2L14,22.63a1.29,1.29,0,0,0-.08.49,1,1,0,0,0,.05.33H12.77a2.64,2.64,0,0,0,.5-.7l2.94-6a22.12,22.12,0,0,1,.11-2.39,20.92,20.92,0,0,1,.4-2.09.58.58,0,0,1,.54-.33c.36,0,.54.37.54,1.12a6,6,0,0,1-.34,2c-.13.38-.39,1-.79,1.85-.12,1.55-.2,2.45-.26,2.69l2.09-4.54a3.6,3.6,0,0,0,.4-1.24v0a1.61,1.61,0,0,0-.09-.41l-.43-.69a4.53,4.53,0,0,1-.23-.62l.11,0a1.37,1.37,0,0,0,.43.71,1.21,1.21,0,0,0,.86.36,3.92,3.92,0,0,0,1.77-.72Zm-6.44,1a.75.75,0,0,1-.06.29l-.6,1.57a1.87,1.87,0,0,0-.14.53c0,.27.12.4.37.4s.29-.05.33-.16l0,0s0,0,0,0-.15.22-.38.22-.48-.19-.48-.56a2.76,2.76,0,0,1,.12-.69c.16-.4.32-.81.49-1.26a.6.6,0,0,0,.05-.2c0-.11-.05-.17-.15-.17a.22.22,0,0,0-.24.13l-.41,1.08a.25.25,0,0,1,0,.07.35.35,0,0,0,0,.12l-.36.08a.55.55,0,0,0,.15-.24l.73-2a.05.05,0,0,0,0,0,.31.31,0,0,0-.06-.12,1.13,1.13,0,0,0,.26-.11.82.82,0,0,0,.25-.16l0,0a.63.63,0,0,0-.25.35l-.25.65a.51.51,0,0,1,.3-.07c.16,0,.23.09.23.27m0,12.4a.35.35,0,0,1,0,.18l-.26.61a.93.93,0,0,0,0,.22V27h-.55a.28.28,0,0,1-.31-.32.33.33,0,0,1,.06-.19.55.55,0,0,1,.56-.3.71.71,0,0,1,.21,0c0-.06.06-.14.09-.21a.18.18,0,0,0-.2-.2,1.21,1.21,0,0,0-.41.15l0-.27a1.75,1.75,0,0,1,.56-.06c.2,0,.31.08.31.25m-.49.6c0-.06,0-.08-.15-.08s-.27.06-.27.2,0,.18.13.18h.17q.06-.13.12-.3m12.53-2.91-.15.34c0,.06,0,.19-.07.38a.43.43,0,0,0-.36-.15c-.26,0-.49.25-.71.75l0,.05H26l-.21.29a1.33,1.33,0,0,0-.05.26h-.22q-1,2.23-1.17,2.61l-.6,1a9.12,9.12,0,0,1-.53.78h.26c.12,0,.18.06.18.19a.35.35,0,0,1,0,.13l-.54,1.11a.48.48,0,0,1-.46.31h-.51a.17.17,0,0,1-.17-.1,5,5,0,0,1-1.25.87,3.35,3.35,0,0,1-.71.21,5.24,5.24,0,0,1-1.21.16,4.32,4.32,0,0,1-1.54-.26,8.48,8.48,0,0,1-1-.47,3.31,3.31,0,0,1-.5-.41h-.42v-.53l0,0a.64.64,0,0,1,0-.07l-.32.63h-.39l.56-1.14a2.09,2.09,0,0,1,0-.25,1.16,1.16,0,0,1,.07-.47,3,3,0,0,1,.29-.46,1.22,1.22,0,0,1,.39-.36l.1,0h0a.23.23,0,0,1-.07.08,2.87,2.87,0,0,0-.59.75.86.86,0,0,0-.09.43.19.19,0,0,0,0,.08l.19-.37H16c.21,0,.31.1.31.29a.74.74,0,0,1-.29.54.91.91,0,0,1-.3.21v.5l.32.29.43.29a4.89,4.89,0,0,0,2.35.57,4.11,4.11,0,0,0,1.84-.4,4.42,4.42,0,0,0,1.24-.94.81.81,0,0,0,.11-.13l.45-.9a.53.53,0,0,1,.36-.31,19.76,19.76,0,0,0,.95-1.74c.15-.31.57-1.21,1.25-2.68h-.15a.73.73,0,0,0,.12-.24,2.16,2.16,0,0,0,0-.32h.24l.13-.27a6.31,6.31,0,0,1,.51-.82c.16-.19.53-.28,1.11-.28M16.25,25.87a.25.25,0,0,1,0,.13l-.47.94a3.71,3.71,0,0,0-.25.6.37.37,0,0,0,0,.11.43.43,0,0,0,.07.28.26.26,0,0,0,.2.07.53.53,0,0,0,.16,0l.1,0a0,0,0,0,1,0,0s0,0,0,0a1.11,1.11,0,0,1-.3.06.44.44,0,0,1-.3-.11.52.52,0,0,1-.12-.38h0a1.61,1.61,0,0,1,.2-.65L16,26A.13.13,0,0,0,16,26c0-.08-.05-.12-.16-.12a.2.2,0,0,0-.18.16l-.35.78a.3.3,0,0,0,0,.16V27h-.41a.57.57,0,0,0,.15-.22l.38-.88a2.12,2.12,0,0,0,.09-.27c.28,0,.48-.05.6-.05s.2.09.2.26M16.09,13.6a1.3,1.3,0,0,1-.23.57h-.53a3.29,3.29,0,0,0-.22.56c0,.13.05.2.15.2s.19-.11.28-.33h.22l0,.08c-.13.29-.3.44-.53.44s-.31-.13-.31-.38a4.76,4.76,0,0,1,.43-1.11.52.52,0,0,1,.49-.33c.2,0,.29.1.29.3m-.23,0c0-.08,0-.12-.14-.12s-.13.06-.19.16a1.86,1.86,0,0,0-.11.32h.28a.57.57,0,0,0,.16-.36m.05,16.75v0s0-.06-.06-.06h-.22l-.16.35h.2c.08,0,.15-.06.21-.17a.26.26,0,0,0,0-.1m2.38-10a.47.47,0,0,1-.05.22l-.61,1.25-1-.06-.52,1.07a.2.2,0,0,0,0,.07s0,.07.08.07h.33a.19.19,0,0,0,.2-.14l.13-.25.06-.28.52,0-.18.26-.11.21a.84.84,0,0,1-.77.57H16c-.21,0-.31-.1-.31-.29a.57.57,0,0,1,.08-.28l1.1-2.24a1.07,1.07,0,0,1,.34-.4.77.77,0,0,1,.44-.16H18a.26.26,0,0,1,.24.17.45.45,0,0,1,0,.17m-.47,9.55-.42,1.74H17l.07-.33h-.26l-.26.33h-.4l1.3-1.74ZM18.54,24c-.07.15-.16.34-.29.59s-.26.47-.43.82c-.1.2-.28.63-.56,1.27a.45.45,0,0,0-.06.19.27.27,0,0,0,.05.13h-.77c-.1,0-.16-.07-.16-.21a.64.64,0,0,1,.05-.2l.24-.63a.45.45,0,0,1,.42-.33c.23,0,.36,0,.39.13l.27-.59a.41.41,0,0,0,0-.16c0-.13,0-.19-.13-.19h0a1.29,1.29,0,0,1-.33,0,.66.66,0,0,1-.46-.17.22.22,0,0,1-.09-.11l0-.07a.2.2,0,0,1,0-.09.54.54,0,0,1,.13-.35.4.4,0,0,1,.33-.17c.22,0,.33.12.33.35s0,.2-.11.23h-.1a.19.19,0,0,1-.21-.17.05.05,0,0,1,0,0h0a.15.15,0,0,0,.16.14c.07,0,.11-.05.11-.15a.83.83,0,0,0,0-.13c0-.13-.1-.19-.28-.19a.29.29,0,0,0-.25.14.51.51,0,0,0-.1.29s0,.06,0,.09l0,.05a.31.31,0,0,0,.09.11.48.48,0,0,0,.19.1.63.63,0,0,0,.26.05,1.41,1.41,0,0,0,.4-.05,1,1,0,0,0,.41-.22A4.55,4.55,0,0,0,18.5,24ZM24,18.9a1.37,1.37,0,0,0-.57.69l-4,8.53a1.67,1.67,0,0,0-.12.65,1,1,0,0,0,0,.27H18.12a3.4,3.4,0,0,0,.59-.92L21,23.35h-.79l-2.25,4.77a1.51,1.51,0,0,0-.13.65.64.64,0,0,0,0,.27H16.5a2.41,2.41,0,0,0,.75-.92l4-8.58a.75.75,0,0,0,.06-.31.65.65,0,0,0-.08-.31l.09,0a.81.81,0,0,0,.52.12,2.18,2.18,0,0,0,.53-.08l0,.08a1.18,1.18,0,0,0-.51.59l-1.44,3.07h.8l1.46-3.12a.9.9,0,0,0,.11-.41.41.41,0,0,0-.06-.23l.1,0a.61.61,0,0,0,.45.14c-.1,0,.11-.05.63-.17ZM17.27,26c0-.09-.07-.13-.21-.13a.26.26,0,0,0-.25.17l-.21.55a.22.22,0,0,0,0,.1c0,.1.05.14.17.14a.29.29,0,0,0,.29-.18l.2-.49a.41.41,0,0,0,0-.16m.27-12.93c0-.57-.07-.85-.22-.85s-.21.08-.26.26a8.44,8.44,0,0,0-.22,1.44c0,.45-.07,1-.1,1.72a8.92,8.92,0,0,0,.75-2,3.45,3.45,0,0,0,.05-.6m.31,7.46c0-.06,0-.09-.07-.09h-.33c-.1,0-.18.07-.23.2l-.35.69.58.06.37-.75a.3.3,0,0,0,0-.11m-.63,10.25-.12.17h.07ZM20.83,20a11.51,11.51,0,0,0-1.17,1.71c-.13.29-.29.64-.49,1.05a1.21,1.21,0,0,0-.08.47.51.51,0,0,0,0,.21h-.66a5.36,5.36,0,0,0,.35-.65,3.69,3.69,0,0,0,.13-1.13c0,.35,0,.55-.11.6a3,3,0,0,0-.68.59,1,1,0,0,0-.1.45.44.44,0,0,0,0,.16h-.71a1.24,1.24,0,0,0,.35-.45c.11-.36.3-.91.57-1.66a3.86,3.86,0,0,0,.25-.95h0a1.56,1.56,0,0,0-.09-.38h.79a1.56,1.56,0,0,0-.23.32c-.06.18-.14.41-.24.68a.39.39,0,0,0,0,.14c0,.05,0,.08,0,.09a2.15,2.15,0,0,0,.16-.19c0-.05.27-.47.7-1.25q.09-.09.12-.09s0,0,0,0a.14.14,0,0,1,0,.06l-.37,1.37a.22.22,0,0,0,0,.1s0,.06.07.06.12-.09.25-.28c0,0,.15-.31.4-.82a.14.14,0,0,0,0-.07.68.68,0,0,0-.05-.17Zm-1.75,10-.87,1.74h-.38l.86-1.74Zm1.57-14.57a.61.61,0,0,1-.06.21L20,16.82l-1-.06-.52,1.06a.25.25,0,0,0,0,.08s0,.07.08.07h.33a.22.22,0,0,0,.21-.15l.12-.24.05-.29.53,0-.19.26-.1.22a.85.85,0,0,1-.78.56h-.4c-.21,0-.32-.1-.32-.29a.6.6,0,0,1,.09-.27l1.09-2.25a1.18,1.18,0,0,1,.35-.39A.76.76,0,0,1,20,15h.4a.28.28,0,0,1,.25.17.41.41,0,0,1,0,.18m-.6,14.57-.67,1.37H20l-.19.37h-1l.85-1.74Zm.15-14.43a.08.08,0,0,0-.09-.09h-.32q-.13,0-.24.21l-.33.69.57.05.38-.74a1,1,0,0,0,0-.12m2,10.08a2.72,2.72,0,0,1-.23.71l-.31.7c-.07.17-.21.46-.41.88a1.07,1.07,0,0,0-.13.51v.05h-1a.37.37,0,0,1-.33-.17.43.43,0,0,1-.08-.23.64.64,0,0,1,.05-.23l.39-.79a1,1,0,0,1,.36-.39,1.15,1.15,0,0,1,.68-.22.62.62,0,0,1,.32.09l.13-.29a1.31,1.31,0,0,0,.1-.45c0-.16-.06-.24-.19-.24a.32.32,0,0,0-.34.19.54.54,0,0,0-.06.27.53.53,0,0,0,0,.14h-.57l.23-.56a.82.82,0,0,1,.34-.37.87.87,0,0,1,.49-.19.56.56,0,0,1,.43.15.6.6,0,0,1,.15.44m1-10.63a14.34,14.34,0,0,0-1.17,1.72l-.48,1.05a1.15,1.15,0,0,0-.08.46.57.57,0,0,0,0,.22h-.66a4.76,4.76,0,0,0,.35-.65,3.71,3.71,0,0,0,.14-1.14q0,.54-.12.6a2.52,2.52,0,0,0-.67.59,1.12,1.12,0,0,0-.1.45.81.81,0,0,0,0,.16h-.71A1,1,0,0,0,20.1,18l.57-1.65a3.29,3.29,0,0,0,.26-1,1.77,1.77,0,0,0-.08-.37h.79a1,1,0,0,0-.21.33q-.12.26-.27.66a.49.49,0,0,0,0,.15s0,.07,0,.08a1.07,1.07,0,0,0,.16-.19A13.93,13.93,0,0,0,22,14.74a.19.19,0,0,1,.13-.08.06.06,0,0,1,0,0v.06l-.39,1.36a.45.45,0,0,0,0,.11s0,.05.07.05.1-.09.23-.27.17-.31.42-.82a.15.15,0,0,0,0-.07.59.59,0,0,0-.06-.18Zm-2,12.11c0-.14-.09-.21-.26-.21a.52.52,0,0,0-.51.29l-.27.59a.13.13,0,0,0,0,.08c0,.15.08.22.23.22a.53.53,0,0,0,.51-.26l.3-.63a.11.11,0,0,0,0-.08M22,30.21a.7.7,0,0,1-.29.54.69.69,0,0,1-.28.21v.7H21L21,31h0l-.32.63h-.37l.85-1.74h.6a.25.25,0,0,1,.29.29m-.41.16a0,0,0,0,0,0,0s0-.06,0-.06h-.22l-.17.35h.22c.07,0,.14-.06.19-.17a.19.19,0,0,0,0-.1M23.9,25l-.32.9c0-.07-.08-.11-.2-.11a.33.33,0,0,0-.22.14,2.62,2.62,0,0,0-.23.33l-.75,1.53a1.45,1.45,0,0,0-.14.59v.07h-.78a2.07,2.07,0,0,0,.51-.73l.95-2a1.19,1.19,0,0,0,.11-.51s0-.08,0-.21h.6q-.21.2-.21.3a.17.17,0,0,0,.05.11l.25-.24a.65.65,0,0,1,.39-.2m.72-4.44a2.51,2.51,0,0,1-.23.71l-.31.7c-.08.18-.23.47-.43.88a1.33,1.33,0,0,0-.11.5v.06h-1a.41.41,0,0,1-.34-.17.33.33,0,0,1-.09-.23.49.49,0,0,1,.06-.22l.4-.8a1.12,1.12,0,0,1,.38-.41,1.2,1.2,0,0,1,.65-.18.72.72,0,0,1,.33.07l.11-.29a1,1,0,0,0,.1-.45c0-.16-.06-.24-.19-.24a.35.35,0,0,0-.34.19.75.75,0,0,0,0,.28v.15H23l.21-.56a.93.93,0,0,1,.36-.39A.9.9,0,0,1,24,20a.69.69,0,0,1,.46.15.62.62,0,0,1,.13.42m5.25-8.09a3,3,0,0,1-.08.39,1.5,1.5,0,0,1-.23.27,1.91,1.91,0,0,1-.49.29,1.29,1.29,0,0,1-.51.1.47.47,0,0,1-.39-.26.67.67,0,0,1-.08-.29.48.48,0,0,1,.24-.37.85.85,0,0,1,.46-.16,1.33,1.33,0,0,1,.35.09l0,0h-.37a.76.76,0,0,0-.37.12c-.14.08-.2.17-.2.27,0,.3.16.45.47.45a1,1,0,0,0,.51-.16,3.3,3.3,0,0,0,.38-.38.57.57,0,0,0,.09-.29c0-.41-.27-.61-.82-.61a1.86,1.86,0,0,0-.83.24,8.24,8.24,0,0,0-1.83,1.44c-.19.17-.89.91-2.11,2.22,0,.06-.13.21-.26.46-.22.43-.44.9-.67,1.4a2,2,0,0,0-.13.6.17.17,0,0,0,0,.1h-.78a2,2,0,0,0,.46-.72l.65-1.44a.56.56,0,0,0,0-.23l0-2.43V13.5a.57.57,0,0,0-.38-.54l.09-.06a.92.92,0,0,0,.56.11.66.66,0,0,0,.42-.24l.11-.22.06,0a1.23,1.23,0,0,1,0,.21,2.28,2.28,0,0,1-.25.39.62.62,0,0,0-.14.37l0,1.8a.08.08,0,0,0,.09.09s.08-.06.17-.16q.78-.84,1.86-2a7.8,7.8,0,0,1,1.31-1l.58-.31a2.8,2.8,0,0,1,1.08-.18.85.85,0,0,1,.86.42.62.62,0,0,1,.07.29M23.21,30.32s0,0-.06,0H23l-.35.47-.21.47a.08.08,0,0,0,0,0,0,0,0,0,0,0,0h.25c.05,0,.08,0,.12-.08l.41-.85,0-.05M23.62,22q0-.21-.24-.21a.52.52,0,0,0-.51.3l-.28.58a.24.24,0,0,0,0,.08c0,.15.08.22.23.22a.48.48,0,0,0,.49-.25l.32-.63a.28.28,0,0,0,0-.09m1.72,1.69c-.05.11-.13.3-.23.56l-.32.69H25l-.19.56h-.26l-1,2.08a1.08,1.08,0,0,0-.11.43c0,.07,0,.11,0,.11a.56.56,0,0,0,.13-.1l.06,0a.62.62,0,0,1-.59.34c-.1,0-.16-.09-.16-.28a1.34,1.34,0,0,1,.13-.55l1-2H24a1.25,1.25,0,0,0,.14-.24,1.45,1.45,0,0,0,0-.32h.21a4.39,4.39,0,0,0,.2-.42,4.48,4.48,0,0,0,.16-.59h.12l.22,0a1,1,0,0,0,.3-.22M25,29.92l-.42,1.74h-.4l.07-.33H24l-.26.33h-.4l1.29-1.74Zm1.35-14.57a.58.58,0,0,1,0,.21l-1.1,2.25a.89.89,0,0,1-.84.56h-.42a.3.3,0,0,1-.34-.34.49.49,0,0,1,.06-.22l1.09-2.25a.89.89,0,0,1,.84-.56H26a.31.31,0,0,1,.34.35m-.56.27c0-.1-.08-.16-.23-.16a.42.42,0,0,0-.42.25l-1,2a.25.25,0,0,0,0,.1c0,.09.07.14.2.14a.47.47,0,0,0,.45-.24l.95-2a.16.16,0,0,0,0-.09m4.1.92a1.73,1.73,0,0,1-.18.71,3.09,3.09,0,0,1-.92,1.09l-1.35.94a7,7,0,0,0-1,.95,13.85,13.85,0,0,0-1.34,2c-.34.61-.58,1-.7,1.31s-.12.36-.23.64a2.24,2.24,0,0,1,0-.61c0-.2,0-.35,0-.46a7.86,7.86,0,0,1,.19-.95c.05-.12.21-.59.47-1.4a1.23,1.23,0,0,0,.08-.4c0-.08,0-.19,0-.33h.65a.71.71,0,0,0-.22.33l-.51,1.6a.2.2,0,0,0,0,.07,0,0,0,0,0,0,0s.06,0,.1-.12l.21-.43A8.7,8.7,0,0,1,26,20.36a6.21,6.21,0,0,1,1.21-1.14c.48-.34.95-.66,1.41-.95a4,4,0,0,0,.93-1,1.12,1.12,0,0,0,.22-.69.18.18,0,0,0-.06-.15.24.24,0,0,0-.13,0,.18.18,0,0,0-.13.06c-.09.15-.12.23-.08.23a.12.12,0,0,1-.06-.12c0-.19.09-.29.27-.29s.33.1.33.29m-5.5,14.23-.11.17h.07Zm3-5.39a.63.63,0,0,1-.05.22l-1.1,2.26a.87.87,0,0,1-.84.56H25a.31.31,0,0,1-.35-.34.49.49,0,0,1,.06-.22l1.09-2.26a.91.91,0,0,1,.84-.56H27a.3.3,0,0,1,.34.34m-.66,4.86a1.58,1.58,0,0,1-.62,1.19.84.84,0,0,1-.57.23H25l.86-1.74h.52a.29.29,0,0,1,.33.32m.1-4.58c0-.11-.07-.16-.22-.16a.44.44,0,0,0-.43.24l-1,2a.24.24,0,0,0,0,.08c0,.11.07.16.2.16a.45.45,0,0,0,.45-.24l1-2a.19.19,0,0,0,0-.08m1-10.74-.31.9c0-.08-.08-.11-.2-.11a.31.31,0,0,0-.22.14,2.62,2.62,0,0,0-.23.33l-.75,1.54a1.28,1.28,0,0,0-.14.59v.06h-.78a2.08,2.08,0,0,0,.5-.73l.95-2a1.1,1.1,0,0,0,.12-.51s0-.09,0-.23h.61c-.15.14-.22.24-.22.31a.17.17,0,0,0,.06.11l.25-.24a.66.66,0,0,1,.38-.2M28,20.37a.49.49,0,0,1-.06.22l-.6,1.25-1-.06-.51,1.07a.2.2,0,0,0,0,.07s0,.07.08.07h.33a.19.19,0,0,0,.2-.14l.12-.25.05-.28.54,0-.19.26-.1.21a.85.85,0,0,1-.78.57h-.4c-.21,0-.32-.1-.32-.29a.6.6,0,0,1,.09-.28l1.08-2.24a1.13,1.13,0,0,1,.36-.4.74.74,0,0,1,.43-.16h.4a.26.26,0,0,1,.25.17.45.45,0,0,1,0,.17m-1.7,10c0-.08,0-.12-.1-.12h-.14l-.48,1h.13c.16,0,.31-.17.46-.51a.82.82,0,0,0,.13-.37M28.91,25l-.32.9c0-.07-.08-.11-.2-.11s-.14,0-.23.14l-.22.33-.74,1.53a1.32,1.32,0,0,0-.15.59v.07h-.77a2.08,2.08,0,0,0,.5-.73l.95-2a1.19,1.19,0,0,0,.11-.51s0-.08,0-.21h.6c-.15.13-.23.23-.23.3s0,.06.08.11.13-.13.24-.24a.65.65,0,0,1,.39-.2m1.34-10a1.67,1.67,0,0,1-.58.33,1.88,1.88,0,0,0-.47.36l-.94.86a.37.37,0,0,0-.14.28l0,1.16a1.15,1.15,0,0,0,.14.39h-.72a.54.54,0,0,0,.14-.26,3,3,0,0,0,.09-1v0a.05.05,0,0,0-.06-.06c-.06,0-.12.05-.17.14l-.3.62a1.07,1.07,0,0,0-.1.49v.09h-.71a1.56,1.56,0,0,0,.36-.54l1.57-3.21a1,1,0,0,0,.1-.46.8.8,0,0,0,0-.27l.07,0s.13.06.3.06.36-.13.59-.38l.05,0a2.88,2.88,0,0,1-.3.44,3.92,3.92,0,0,0-.32.56l-.77,1.55a.17.17,0,0,0,0,.07s0,0,0,0l.13-.09.61-.59a.79.79,0,0,0,.26-.43.83.83,0,0,1,0-.16l.09,0a3,3,0,0,0,.57.1,2,2,0,0,0,.5-.1Zm-2.7,5.56c0-.06,0-.09-.08-.09h-.32a.29.29,0,0,0-.24.2l-.33.69.57.06.38-.75a.26.26,0,0,0,0-.11m2.15-.1a.86.86,0,0,1-.07.36l-.95,2a1.16,1.16,0,0,0-.13.49s0,.06,0,.09h-.72a2.31,2.31,0,0,0,.48-.75l.88-1.88a.19.19,0,0,0,0-.08c0-.12-.06-.18-.19-.18s-.25.09-.34.27l-.82,1.83a1.69,1.69,0,0,0-.19.73.13.13,0,0,1,0,.06h-.8a2.13,2.13,0,0,0,.59-.81c.27-.55.55-1.17.83-1.85a2.72,2.72,0,0,0,.15-.68V20h.82a.37.37,0,0,1,.43.42m-.45,9.69a.32.32,0,0,1,0,.13l-.16.28h-.36l.08-.15v-.05s0,0,0,0H28.5s-.08,0-.11.09l-.42.85a.06.06,0,0,0,0,0,.05.05,0,0,0,.06,0h.23a.16.16,0,0,0,.13-.08l.07-.15h.36l-.13.28a.51.51,0,0,1-.48.31h-.5c-.13,0-.19-.06-.19-.18a.31.31,0,0,1,0-.13l.55-1.11a.5.5,0,0,1,.47-.32h.49c.14,0,.2.06.2.19m2.15-7a1.81,1.81,0,0,1,0,.25c0,.07-.21.54-.58,1.4l-.34.75L29.4,27.86a1.13,1.13,0,0,0-.13.51v.05h-1a.37.37,0,0,1-.34-.17.43.43,0,0,1-.08-.23.49.49,0,0,1,.06-.23L29,25.5a.88.88,0,0,1,.92-.59.8.8,0,0,1,.35.13q.07-.2.33-.72a6.24,6.24,0,0,0,.33-.92A1.23,1.23,0,0,0,31,23a1.54,1.54,0,0,0-.5-1.17l0,0a2.68,2.68,0,0,1,.51.34c.24.16.35.5.35,1M30,25.57c0-.15-.09-.23-.28-.23a.45.45,0,0,0-.4.3l-1,2.08a.13.13,0,0,0,0,.08c0,.15.08.22.25.22a.49.49,0,0,0,.49-.26l.92-2a.41.41,0,0,0,.06-.2m.79,4.54a.35.35,0,0,1,0,.13l-.55,1.11a.49.49,0,0,1-.47.31h-.51a.16.16,0,0,1-.18-.18.31.31,0,0,1,0-.13l.54-1.11a.52.52,0,0,1,.48-.32h.49c.13,0,.2.06.2.19m-.46.21s0,0-.05,0h-.24s-.08,0-.11.09l-.42.85a.08.08,0,0,0,0,0,.05.05,0,0,0,.06,0h.23a.14.14,0,0,0,.13-.08l.42-.85Zm.5,1-.14.3h-.3l.14-.3Z"/></symbol></defs><g class="cls-4"><use width="44" height="44" transform="translate(-2.89 -2.89) scale(0.9)" xlink:href="#New_Symbol_20"/></g></svg>