<svg id="art" xmlns="http://www.w3.org/2000/svg" xmlns:xlink="http://www.w3.org/1999/xlink" viewBox="0 0 34.02 34.02"><defs><style>.cls-1{fill:none;}.cls-2{clip-path:url(#clip-path);}.cls-3{fill:#cf6d28;}.cls-4{fill:#fff;}</style><clipPath id="clip-path"><circle class="cls-1" cx="17.01" cy="17.01" r="16.67"/></clipPath></defs><g class="cls-2"><path class="cls-3" d="M37.84,17A20.84,20.84,0,1,1,17-3.83,20.83,20.83,0,0,1,37.84,17Z"/><path class="cls-4" d="M16.54,9.48v.07a1.14,1.14,0,0,0-.16.55v6.51H16L13.7,12.27V16a1,1,0,0,0,.18.54v.08H12.31v-.08a1.14,1.14,0,0,0,.18-.54V10.1a.8.8,0,0,0,0-.27,1.33,1.33,0,0,0-.13-.28V9.48h1.32l1.52,3.1V10.1A.94.94,0,0,0,15,9.55V9.48Z"/><path class="cls-4" d="M18.64,16.61v-.07a2.73,2.73,0,0,0,.15-.31.61.61,0,0,0,0-.24V13.16l-1.32-3.09a1.56,1.56,0,0,0-.31-.52V9.48h1.54v.07a1.18,1.18,0,0,0,0,.29,1,1,0,0,0,0,.26l.69,1.76L20.15,10a1.37,1.37,0,0,0,0-.16,1.16,1.16,0,0,0-.06-.32V9.48h1.54v0a2,2,0,0,0-.27.47L20,13.16V16a.54.54,0,0,0,0,.22,2,2,0,0,0,.15.29v.07Z"/><path class="cls-4" d="M16.47,17.55v.07a1.26,1.26,0,0,0-.16.55v6.52h-.42l-2.26-4.35v3.72a1,1,0,0,0,.18.54v.09H12.24V24.6a1.07,1.07,0,0,0,.19-.54V18.17a1.09,1.09,0,0,0,0-.26,2.21,2.21,0,0,0-.13-.29v-.07h1.31l1.52,3.1V18.17a1,1,0,0,0-.18-.55v-.07Z"/><path class="cls-4" d="M21.46,17.55v.07a2,2,0,0,0-.13.28.57.57,0,0,0,0,.22v6a.83.83,0,0,0,.17.49v.08H19.9v-.08a1.17,1.17,0,0,0,.18-.55V21.37H18.83v2.69a.66.66,0,0,0,0,.25l.14.3v.08H17.39v-.08a1.2,1.2,0,0,0,.19-.55V18.17a1.24,1.24,0,0,0-.19-.55v-.07H19v.07a1.21,1.21,0,0,0-.18.55v2.11h1.25V18.17a1.21,1.21,0,0,0-.18-.55v-.07Z"/></g></svg>