<svg xmlns="http://www.w3.org/2000/svg" viewBox="0 0 34.02 34.02" xmlns:v="https://vecta.io/nano"><defs><clipPath id="A"><circle cx="-24.86" cy="17.01" r="17.01" fill="none"/></clipPath><clipPath id="B"><path d="M34,17C33.63,39.37.38,39.36,0,17,.38-5.35,33.64-5.35,34,17Z" fill="none"/></clipPath></defs><g clip-path="url(#A)"><path d="M-24.86-13.47A30.48 30.48 0 0 1 5.61 17a30.47 30.47 0 1 1-60.94 0 30.48 30.48 0 0 1 30.47-30.47" fill="#231f20" fill-rule="evenodd"/></g><g clip-path="url(#B)"><path d="M17-7.26c31.9.54,31.89,48,0,48.54-31.91-.55-31.9-48,0-48.54" fill-rule="evenodd" fill="#f78f1e"/><path d="M9.73 5.09a3.73 3.73 0 0 0-.48.91c-.13-.36-.53-.21-.87-.24 0 .06-1.19 3.35-1.15 3.41s0 0 .13.3a1.49 1.49 0 0 0-.73.1C6.86 9.29 7.84 6.11 8 5.74a2.25 2.25 0 0 0-1.3.4 2.06 2.06 0 0 0 .47-.9 2.84 2.84 0 0 0 2.58-.15m6.64 1.43c-3.46 1.92-5.46 10.14-7.67 14h-.2a24.77 24.77 0 0 0 2-7.89c-.17.64-2.82 5.38-2.37 6H6.82c.4-.11 3.51-6.95 3.8-7.42.34-2.42-.46-3.89 1.16-5.3 1.92 1.44-1.5 6.72-.94 8.48.35-.92 2.73-5.53 2.75-6.37 0-.68-.68-1.12-.83-1.92h.13c.55 1.61 1.91 1.36 3.37.39zm-7.1 1.1c0 .61-1.86 3.82-.09 2.87h0c-2.2 1.23.17-2.65-.39-2.9-.32-.08-.76 1.34-.7 1.54l-.4.09c.17-.13.88-2.32 1-2.54l-.07-.13a1.94 1.94 0 0 0 .57-.3h0c-.27.13-.42.83-.55 1.1.18-.12.62-.16.59.22m.07 13.73c-.05.34-.42.86-.38 1.22-1.26.32-1.22-1.1 0-.84.26-.47-.12-.59-.57-.29v-.3c.12 0 1-.22 1 .21m-.59.7c-.35-.41-.77.48-.13.34 0-.11.08-.22.13-.34m13.82-3.25a2.64 2.64 0 0 0-.24.8c-.48-.46-.92 0-1.21.71h.25a1.15 1.15 0 0 0-.28.62h-.24c-1.4 3.07-1 2.54-2.54 4.86 1.11-.23-.07 1.23-.14 1.58s-1 .46-1.26.24a5.09 5.09 0 0 1-6.83.11h-.46A2.69 2.69 0 0 0 9.6 27l-.35.7h-.43l.62-1.26a1.72 1.72 0 0 1 .93-1.75h0c-.18.19-1 .87-.81 1.48l.21-.42c1.14-.23 1.3.66.33 1.15v.55c2.71 2.42 6.24 1.26 7.83-1.68a44.2 44.2 0 0 0 2.43-4.88h-.18a1 1 0 0 0 .19-.62h.27c.38-.74.62-1.63 1.93-1.51m-11.9 2.52c-.1.59-1.68 2.54-.25 2.3h0v.05c-1.57.37-.33-1.64-.06-2.28-.32-.58-.8 1-.8 1.17h-.47A5.36 5.36 0 0 0 9.78 21c.46 0 .84-.25.89.24m-.18-13.49a1.34 1.34 0 0 1-.25.61h-.59c-.44.67-.13 1.24.24.48h.24c-1.81 2.38-.55-2.74.36-1.09m-.25 0c-.16-.37-.44.1-.5.4h.32a.62.62 0 0 0 .18-.4m0 18.48h0l-.07-.06H10l-.17.38c.22 0 .44 0 .48-.3m2.63-11a15.3 15.3 0 0 1-.73 1.62l-1.1-.06c0 .08-.6 1.17-.58 1.25l.09.08c.52.13.75-.29.8-.74h.57c-.33.44-.56 1.21-1.18 1.15-.26 0-.83.1-.79-.32.39-.75 1.13-3.31 2.16-3.4.3 0 .76-.06.76.38m-.54 10.53l-.46 1.93h-.45l.08-.37h-.28l-.29.37h-.44L12 25.74zm.79-6.52a29.68 29.68 0 0 0-1.48 3.15v.15c-.18-.07-1.08.19-1-.22s.55-1.76 1.2-1.15c.94-1.72-.36-.45-.84-1.38-.19-.55.84-1 .86-.29a.23.23 0 0 1-.46.09l.05-.05h0c.11.32.39.1.28-.16-.15-.5-.89 0-.66.43.64.63 1.49.21 1.94-.6zm6-5.63c-.85.83-5.25 10-5.17 11.19h-1.3c.58-.51 2.72-5.53 3.13-6.28H15c-.21.73-3 5.56-2.58 6.28h-1.48c.86-.7 5.35-10 5.26-11.17h.09a1.42 1.42 0 0 0 1.16 0v.09c-.58.18-1.82 3.55-2.14 4h.87c.12-.5 2-3.67 1.67-4.15l.11-.05a.66.66 0 0 0 .49.16c-.1 0 .13-.06.7-.19zm-7.41 7.82c-.27-.67-1.11.92-.58.92s.47-.65.58-.92m.3-14.27c-.43-2.77-1 1.83-.88 2.84a6.61 6.61 0 0 0 .88-2.84m.34 8.23l-.08-.09c-.6-.21-.78.59-1 1l.63.06a9 9 0 0 0 .45-1m-.7 11.31l-.13.19h.08zm4-11.91c-.57.79-2 2.45-1.89 3.79h-.73a2.94 2.94 0 0 0 .54-2c.11 1.07-1.2.94-1 2h-.78a6.5 6.5 0 0 0 1.19-3.8H14a3.17 3.17 0 0 0-.6 1.27v.09c.28-.19.4-.85 1.08-1.68v.05c0 .1-.43 1.59-.46 1.68l.08.06a2.18 2.18 0 0 0 .68-1.47zm-1.94 11l-.95 1.93h-.42l.94-1.93zm1.73-16.07a14.26 14.26 0 0 1-.73 1.62l-1.1-.07c0 .08-.61 1.17-.58 1.26l.09.08c.51.12.76-.29.78-.75h.59c-.33.44-.55 1.2-1.18 1.14-.26 0-.83.1-.79-.31.39-.75 1.13-3.31 2.16-3.4.3 0 .75-.07.76.38m-.65 16.07l-.75 1.51h.67l-.21.42h-1.08l.94-1.93zM15 9.83l-.1-.1c-.59-.2-.77.6-1 1l.63.06a10.06 10.06 0 0 0 .47-.96M17.26 21c-.13.94-1.05 2.05-1.19 3.14-.42-.06-1.55.25-1.59-.44.21-.83.93-2.18 2-1.7.73-1-.36-1.68-.38-.42h-.63c.05-.88 1.67-2 1.81-.58m1.1-11.73c-.56.8-2 2.45-1.88 3.8h-.73a3 3 0 0 0 .54-2c.09 1.07-1.19.92-1 2h-.78a6.67 6.67 0 0 0 1.2-3.79h.87a2.51 2.51 0 0 0-.53 1.35c.3-.18.42-.88 1.1-1.69.07.14-.45 1.6-.43 1.74l.08.06c.14-.18.76-.81.67-1.48zm-2.2 13.31c-.3-1-1.71 1-.92 1.07.59.05.71-.69.92-1.07m.82 3.48a1.07 1.07 0 0 1-.64.83v.78h-.48V27h-.05l-.35.7h-.41l.93-1.96c.28.05 1-.16 1 .32m-.46.18l-.07-.08h-.23l-.2.38c.23 0 .45 0 .5-.3m2.57-6l-.35 1c-.56-.65-1.72 2.38-1.7 2.81h-.86a9 9 0 0 0 1.71-3.78h.67c-.21.22-.3.28-.18.46.15-.17.52-.52.7-.49m.79-4.89c-.11.95-1.07 2-1.19 3.14-.39-.07-1.6.25-1.6-.44.24-.84.91-2.14 2-1.7.68-1-.36-1.7-.4-.4h-.61c0-.88 1.66-2 1.8-.6m5.8-8.93c0 .73-1.34 1.64-1.87.87-.38-.6.52-1.1 1.07-.81h0c-.72-.29-1.61.79-.51.91 1.87-.26.89-2.4-.75-1.32S18.54 10 18.17 13h-.86a11.81 11.81 0 0 0 1.22-2.38c.09 0 .07-2.8.1-2.94a.67.67 0 0 0-.42-.68l.1-.06a.82.82 0 0 0 1.2-.39h.07a6 6 0 0 0-.53 3.05l.1.1c1.39-1.25 4.78-5.95 6.54-3.24m-7.35 19.73l-.06-.05h-.23a4.36 4.36 0 0 0-.63 1.08v.05h.27c.16 0 .55-.95.61-1.08m.5-9.19c-.36-.78-1.1.39-1.16.83.37.79 1.1-.4 1.16-.83m1.89 1.86c-.2.48-.25.63-.6 1.38h.2l-.2.62h-.29c-.11.42-1.41 2.5-1.14 2.89l.14-.11h.06c-1.91 1.54.18-2.34.45-2.8h-.14a.85.85 0 0 0 .18-.62h.24a3 3 0 0 0 .4-1.11.75.75 0 0 0 .7-.27m-.4 6.86l-.46 1.93h-.44l.08-.37h-.29l-.29.37h-.44l1.43-1.93zm1.5-16.07c-.41.73-1.11 3.38-2.2 3.33-.44.05-1.06 0-.78-.62.46-.6 1.1-3.23 2.13-3.09.31 0 .89-.11.85.38m-.62.3c-.69-1-1.49 2-1.78 2.26 0 .14 0 .27.2.27.65.1 1.31-2.16 1.58-2.53m4.52 1c-.16 1.55-1.43 2.07-2.7 3a14.28 14.28 0 0 0-3.56 5.37c-.38-1.55.71-2.74.75-4.57h.72a8.82 8.82 0 0 0-.81 2.27h0a10.33 10.33 0 0 1 1.25-1.84c1.08-1.74 4.07-2 4.09-4.36h-.13l-.14.06c-.11.17-.14.25-.1.25-.32-.49.65-.63.6-.12m-6.03 15.69l-.13.19h.08zM23 20.74c-.42.73-1.1 3.4-2.2 3.35-.3 0-.88.1-.84-.38.42-.73 1.1-3.4 2.19-3.35.31 0 .89-.1.85.38m-.73 5.35a1.64 1.64 0 0 1-1.89 1.58l1-1.93c.29 0 1-.13.94.35m.01-5.09c-.69-.95-1.49 2-1.78 2.27 0 .15 0 .28.2.27.64.11 1.34-2.16 1.58-2.54m1.12-11.81l-.34 1c-.57-.65-1.71 2.38-1.71 2.81h-.85a8.68 8.68 0 0 0 1.71-3.78h.67c-.21.22-.3.28-.18.46.11-.12.54-.53.7-.49m.18 6a15.3 15.3 0 0 1-.73 1.62l-1.1-.06c0 .08-.6 1.17-.58 1.25l.09.08c.52.13.74-.29.78-.74h.59c-.33.44-.56 1.21-1.18 1.15-.26 0-.83.1-.79-.32.39-.75 1.11-3.31 2.16-3.4.3 0 .76-.06.76.38m-1.87 11.13l-.12-.12h-.16L21 27.25c.36.14.75-.6.8-1m2.87-6l-.35 1c-.56-.66-1.72 2.38-1.7 2.81h-.86a9 9 0 0 0 1.72-3.78h.66c-.16.15-.25.26-.25.34l.08.12c.1-.12.53-.53.7-.49m1.48-11a6.78 6.78 0 0 0-2.35 2c0 .37-.07 1.37.19 1.71h-.8c.29-.36.25-.76.26-1.4l-.07-.06a2.1 2.1 0 0 0-.67 1.5h-.78c.49-.81 2.35-3.93 2.19-4.94h.08c.3.16.66 0 1-.35h0a18.85 18.85 0 0 0-1.54 2.89h0s1.09-.85 1.1-1.22a.89.89 0 0 1 0-.17h.09a1.63 1.63 0 0 0 1.19 0zm-3 6.13l-.1-.09c-.59-.21-.78.59-1 1l.63.06a9 9 0 0 0 .45-1m2.36-.11c0 .75-1.33 2.56-1.25 3.3h-.8c2.79-4.24.81-4.27-.17 0h-.89a8.08 8.08 0 0 0 1.73-3.76c.39 0 1.45-.23 1.38.46M25 26a1.34 1.34 0 0 1-.2.46h-.4s.11-.18.09-.22v-.05h-.28c-.15 0-.54.95-.6 1.08l.06.05h.26a.49.49 0 0 0 .22-.25h.4c-.06.66-1.3.92-1.43.44.21-.41.56-1.74 1.16-1.72.18.05.79-.13.76.21m2.37-7.69c-.16 1.35-2.07 4.28-2.35 5.83-.42-.06-1.55.25-1.59-.44.51-.83 1.19-4.13 2.7-3.29.4-.85 1.4-2.67.25-3.56h0a1.44 1.44 0 0 1 1 1.49M25.85 21c-.62-1.21-1.57 2.1-1.85 2.36a.22.22 0 0 0 .23.34c.76.07 1.34-2.24 1.62-2.7m.88 5c-.21.41-.57 1.74-1.16 1.72-.18-.05-.8.13-.76-.21.2-.41.56-1.74 1.16-1.72.18 0 .79-.13.76.21m-.51.24v-.05h-.32c-.15 0-.54.95-.6 1.08l.06.05h.25c.16-.08.58-.99.61-1.13zm.56 1.14l-.16.34h-.34l.16-.34z" fill="#231f20"/></g></svg>