<svg id="art" xmlns="http://www.w3.org/2000/svg" xmlns:xlink="http://www.w3.org/1999/xlink" viewBox="0 0 34.02 34.02"><defs><style>.cls-1{fill:none;}.cls-2{clip-path:url(#clip-path);}.cls-3{fill:#ec1e29;}.cls-4{fill:#fff;}</style><clipPath id="clip-path"><circle class="cls-1" cx="17.01" cy="17.01" r="16.67"/></clipPath></defs><g class="cls-2"><path class="cls-3" d="M37.84,17A20.84,20.84,0,1,1,17-3.83,20.83,20.83,0,0,1,37.84,17Z"/><path class="cls-4" d="M10.65,10.22v.13a2.4,2.4,0,0,0-.27,1V23.66H9.67L5.82,15.48v7a2,2,0,0,0,.31,1v.15H3.46v-.15a2.31,2.31,0,0,0,.32-1V11.39a2,2,0,0,0-.07-.5,2.9,2.9,0,0,0-.23-.54v-.13H5.72L8.3,16.05V11.39a1.94,1.94,0,0,0-.31-1v-.13Z"/><path class="cls-4" d="M14.17,23.66v-.13a6.26,6.26,0,0,0,.25-.58,1.34,1.34,0,0,0,.08-.46V17.15l-2.25-5.82a3.49,3.49,0,0,0-.52-1v-.13h2.61v.13a2.59,2.59,0,0,0-.08.56,2.15,2.15,0,0,0,.08.48l1.16,3.32,1.23-3.46a1.3,1.3,0,0,0,0-.29,2.73,2.73,0,0,0-.1-.61v-.13h2.61v.09a3.67,3.67,0,0,0-.45.88l-2.29,6v5.42a1.25,1.25,0,0,0,.08.42,5.58,5.58,0,0,0,.25.54v.13Z"/><path class="cls-4" d="M20.32,10.22h2.37v.15a1,1,0,0,0-.12.48,1.89,1.89,0,0,0,.05.38l1,5.48L25,10.16h1.2l1.19,6.55,1.14-5.32a2.42,2.42,0,0,0,.09-.58,1,1,0,0,0-.09-.44v-.15h2.34v.11a3,3,0,0,0-.31.81L28.13,23.66H26.92l-1.44-7.61L24,23.66H22.76L20.63,11.33a2.94,2.94,0,0,0-.31-1Z"/></g></svg>