<svg id="art" xmlns="http://www.w3.org/2000/svg" xmlns:xlink="http://www.w3.org/1999/xlink" viewBox="0 0 34.02 34.02"><defs><style>.cls-1{fill:none;}.cls-2{clip-path:url(#clip-path);}.cls-3{fill:#b94e27;}.cls-4{fill:#fff;}</style><clipPath id="clip-path"><circle class="cls-1" cx="17.01" cy="17.01" r="16.67"/></clipPath></defs><g class="cls-2"><path class="cls-3" d="M37.84,17A20.84,20.84,0,1,1,17-3.83,20.83,20.83,0,0,1,37.84,17Z"/><path class="cls-4" d="M13.26,9.33a3.47,3.47,0,0,1,3.29,2.08A5.16,5.16,0,0,1,17,13.69a5.17,5.17,0,0,1-.52,2.37,3.7,3.7,0,0,1-1.45,1.58,4.13,4.13,0,0,1-2.15.56H12v4.28a1.93,1.93,0,0,0,.43,1.11v.14H9.23v-.14a2.39,2.39,0,0,0,.35-1.11V10.58a2.54,2.54,0,0,0-.35-1.11V9.33ZM14,15.51a3.16,3.16,0,0,0,.41-1.74A2.9,2.9,0,0,0,13.89,12a1.7,1.7,0,0,0-1.41-.68H12v4.88h.88A1.24,1.24,0,0,0,14,15.51Z"/><path class="cls-4" d="M23,11.39H21v3.54H22a3.1,3.1,0,0,0,1.22-.35h.16v2.63h-.16A3.1,3.1,0,0,0,22,16.86H21v4.82h2.32a1.43,1.43,0,0,0,.59-.13,7.5,7.5,0,0,0,.85-.43h.08v2.61H18.24v-.14a2.39,2.39,0,0,0,.35-1.11V10.58a2.46,2.46,0,0,0-.35-1.11V9.33h6.29v2.55h-.08A3.74,3.74,0,0,0,23,11.39Z"/></g></svg>