<svg id="art" xmlns="http://www.w3.org/2000/svg" xmlns:xlink="http://www.w3.org/1999/xlink" viewBox="0 0 34.02 34.02"><defs><style>.cls-1{fill:none;}.cls-2{clip-path:url(#clip-path);}.cls-3{fill:#b94e27;}.cls-4{fill:#fff;}</style><clipPath id="clip-path"><circle class="cls-1" cx="17.01" cy="17.01" r="16.67"/></clipPath></defs><g class="cls-2"><path class="cls-3" d="M37.84,17A20.84,20.84,0,1,1,17-3.83,20.83,20.83,0,0,1,37.84,17Z"/><path class="cls-4" d="M14.34,11.39a2.5,2.5,0,0,1,2.35,1.48A3.68,3.68,0,0,1,17,14.5a3.79,3.79,0,0,1-.36,1.69,2.8,2.8,0,0,1-1,1.14,3,3,0,0,1-1.54.39h-.64v3.06a1.33,1.33,0,0,0,.31.79v.11h-2.3v-.11a1.63,1.63,0,0,0,.25-.79v-8.5a1.73,1.73,0,0,0-.25-.79v-.1Zm.53,4.41a2.23,2.23,0,0,0,.3-1.24,2,2,0,0,0-.38-1.29,1.21,1.21,0,0,0-1-.49h-.33v3.49h.63A.9.9,0,0,0,14.87,15.8Z"/><path class="cls-4" d="M21.29,12.86H19.88v2.52h.68a2.21,2.21,0,0,0,.86-.24h.12V17h-.12a2.09,2.09,0,0,0-.86-.25h-.68v3.44h1.66a1.06,1.06,0,0,0,.42-.09,5.88,5.88,0,0,0,.61-.31h.06v1.87H17.9v-.11a1.75,1.75,0,0,0,.25-.79v-8.5a1.78,1.78,0,0,0-.25-.79v-.1h4.5v1.82h-.06A2.61,2.61,0,0,0,21.29,12.86Z"/></g></svg>