<svg xmlns="http://www.w3.org/2000/svg" xmlns:xlink="http://www.w3.org/1999/xlink" viewBox="0 0 34.02 34.02" xmlns:v="https://vecta.io/nano"><style><![CDATA[.G{fill:#843000}.H{fill-rule:evenodd}.I{fill:#fff}]]></style><defs><clipPath id="A"><path d="M34,17C33.63,39.37.38,39.36,0,17,.38-5.35,33.64-5.35,34,17Z" fill="none"/></clipPath><clipPath id="B"><path d="M16.48-4.17c27.49.4,27.59,41.3.1,41.83-27.5-.4-27.59-41.3-.1-41.83" fill="none" clip-rule="evenodd"/></clipPath><path id="C" d="M18.79 18.58c.25.64-.89 2.08-.15 2.29 3.28.66 4.73-2.47 6.41-4.71 2.19-1 5.88.36 7.82-.71-.15-.47.29-1.64-.33-1.68l-8 .15c-1.52 1.22-2.26 3.59-3.82 4.94-.14-.63.88-2 .2-2.23-1.68-.3-2.77.46-3.95 1.45.38-1.63 3.87-6 .16-4.4-1 2.24-3.36 3-4.73 4.85a7.18 7.18 0 0 0 2.53-.35l-1.23 2.75c2.19.51 3.51-1.07 5.09-2.35zM5.24 21.07c3.63 1.8 3.66-9.49 6.64-5.81.17 1.11-1.07 1.8-2.06 1.65-.65.17-.73 1.26-1.07 1.8 9.97.63 2.25-15.8-3.51 2.36zm17.16-.63c3.4.15 6.87-.1 10.29-.11.49.22.4-1.86 0-1.65-3.35.62-8.17-1.36-10.29 1.76zm6.14-2.22h0c1.55-.38 5 1 4.37-1.52-1-.82-3.46 0-4.94-.2-.87.21-2.25-.39-2.77.48-.14.35-1.15 1.14-.72 1.31zm-25.69.62c1.56 0 3.13.38 3.48-1.55-1.2-.76-4.23.09-6-.18-.53 0-.12 1.05-.23 1.46-.1.71 2.9.12 2.75.27z"/><path id="D" d="M5.24 21.07C11 2.91 18.71 19.34 8.75 18.71c.34-.54.42-1.63 1.07-1.8 1 .15 2.23-.54 2.06-1.65-2.97-3.69-3.01 7.61-6.64 5.81z"/></defs><g clip-path="url(#A)"><g clip-path="url(#B)"><g class="G H"><path d="M16.48-4.17c27.49.4,27.59,41.3.1,41.83-27.5-.4-27.59-41.3-.1-41.83"/><use xlink:href="#C"/></g><path d="M5.38 21.53c-.2 0-.5-.2-.65-.37l.91-2-2.79.05h0c-1.59.07-4.09.7-3-2.42 1.29-.33 2.73 0 4.09-.19.91.12 2-.34 2.8.21 1-5.05 7.29-7.35 7.13-.61 1.85-.17 2.23-2.65 3.64-3.23 3.62-.52.9 2.1.5 3.73.41-.72 2.2-.48 2.9-.53s.79.61.57 1.08c2.22-4.36 4-4 8.45-3.88.92.16 3.84-.74 3.34 1.13 0 .39.2 1.31-.23 1.52a2.42 2.42 0 0 1 .13 2.34c1.06 2.67-.73 2.42-2.78 2.39-2.66-.19-5.88.6-8.36-.16-.77.87-2.88.82-4 .45-.29-.4.11-1.09.15-1.5-1.67 1.59-2.66 2.13-5 1.69a11.87 11.87 0 0 1 1-2.46A10.32 10.32 0 0 1 12 19v-.26a7.16 7.16 0 0 1-3.49.39c-.71 1.69-.99 2.75-3.13 2.4zm0-.83zm5.51-7.86c-3.05.71-3.42 5.54-5 7.85h1c4.59-12.9 8-3 3-3.36-.09.29-.27.64-.4.94 3.51.97 5.28-4.95 1.39-5.43zm4.67 4.9c-.38 1-.84 1.87-1.25 2.79 1.49.52 3.63-1.88 4.66-2.62.52.71.05 1.82-.1 2.54 3 .61 4.3-2.56 5.85-4.52 2.15-1.14 5.27-.21 7.74-.6v-1.14l-7.9.15c-1.32 1.62-2.21 4-4.14 5.16a5 5 0 0 1 .25-2.5h-1.75c-.8.45-1.52 1.88-2.52 1.25l2-4.48h-.9A5.66 5.66 0 0 1 14.22 17a3.23 3.23 0 0 1-.71 1.07 9.76 9.76 0 0 1 2.04-.33zm7 2.35zm9.91-1c-2.52.48-7.51-.85-9.22 1l9.33-.16v-.83zm-19.94-.59l.12.26.08-.08-.16-.18zm-12-1v.93h1.94 0H5.4l.43-.94c-1.83-.03-3.56.03-5.34.05zm23.45.86h0 0zm2-1.45c-.33 0-.31.1-.38.26s-.41.52-.5.66l3.9-.03h0l3.57-.07v-.92l-6.63.19zm-9.11.78h0zM25 17l.15.09-.15-.16zm-15.21-.51c3.2.08 1-3.57-.1 0z" class="I"/><path d="M18.79 18.58c-1.58 1.28-2.9 2.86-5.11 2.35l1.23-2.75a7.18 7.18 0 0 1-2.53.35c1.37-1.82 3.75-2.61 4.73-4.85 3.71-1.63.22 2.77-.16 4.4 1.18-1 2.27-1.75 3.95-1.45.68.2-.34 1.6-.2 2.23 1.56-1.35 2.3-3.72 3.82-4.94l15.53-.17c.29 0-7.22 0-7.21.33s0 .92 0 1.37c0 .26 6.23.26 6 .27l-13.31.17c-1.87 1.13-2.6 4.58-5 5-2.96.03-1.99.11-1.74-2.31z" class="G H"/><path d="M13.83 21.37l-.65-.1a11.87 11.87 0 0 1 1-2.46A10.32 10.32 0 0 1 12 19c0-.35-.24-.63.26-.94 1-.46.9-1.42 1.67-1.8a4.06 4.06 0 0 0 2.12-1.62c.52-.5.56-1.57 1.42-1.58.59.11 1.33-.26 1.82.22s-1.21 3.03-1.29 3.46c.41-.72 2.2-.48 2.9-.53s.79.6.57 1.08c2.23-4.36 4-4 8.45-3.88 2-.07 8.45-.06 10.54-.07.06.34 0 .86-.41.83h0c-4.44 0-6.43.15-6.79.21v.76c0 .12 2.62.15 5.56.16h0c.49 0 .46.46.45.81l-13.73.18c-1.65 1.54-2.51 4.61-5.06 5-1.47-.11-3.19.58-2.28-1.69-1.43 1.3-2.3 2.03-4.37 1.77zm1.72-3.63c-.38 1-.84 1.87-1.25 2.79 1.49.52 3.63-1.88 4.66-2.62.52.71.05 1.82-.1 2.54 3 .61 4.3-2.56 5.85-4.52 2.36-1.14 4.94-.23 7.74-.57v-1.17l-7.9.15c-1.32 1.62-2.21 4-4.14 5.16a5 5 0 0 1 .26-2.5h-1.75c-.8.45-1.52 1.88-2.52 1.25l2-4.48h-.9A5.66 5.66 0 0 1 14.22 17a3.23 3.23 0 0 1-.71 1.07 9.76 9.76 0 0 1 2.04-.33zm-3 .76l.12.26.08-.08-.16-.18zm4.3-.77h0z" class="I"/><use xlink:href="#D" class="G H"/><path d="M5.38 21.53c-.2 0-.5-.2-.65-.37L6.66 17C10.45 4.44 20 19.67 8.5 19.08c-.7 1.74-.98 2.8-3.12 2.45zm0-.83zm5.51-7.86c-3.05.71-3.42 5.54-5 7.85h1c4.59-12.9 8-3 3-3.36-.09.29-.27.64-.4.94 3.51.97 5.28-4.95 1.39-5.43zm-1.1 3.65c3.2.08 1-3.57-.1 0z" class="I"/><path d="M22.4 20.44c1.75-3.28 13-1.17 16.86-1.78.29 0-6.32 0-6.31.33s0 .69 0 1 7.39.27 7.09.28l-17.64.17z" class="G H"/><path d="M22.55 20.92c-.16 0-.5-.21-.63-.41 1.08-2.76 3.94-2.05 6.33-2.17 2.75-.07 8.64-.12 11.43-.08 0 .36.08.82-.44.81h0c-2.94 0-5.7.14-5.86.2v.43c0 .14 2.84.18 6.67.19h0c.48 0 .45.47.44.81l-17.94.22zm10-1.83c-2.45.46-7.72-.82-9.3 1l9.33-.13z" class="I"/><path d="M28.54 18.22c-1.44-.3-5.75 1.08-3.34-1.24 2.7-1.23 11.69-.21 14.86-.61.31 0-7.15 0-7.15.33v1.21c0 .16 6.35.21 6.2.21l-10.6.1z" class="G H"/><path d="M24.58 18.71c-1.37 0-.21-1.36.21-1.87l.36.22-.29-.3c.78-1.21 2-.41 3.1-.68L40.05 16h0c.29 0 .34.12.5.28l-.2.51-7 .23v.55l5.78.15h0c.46 0 .45.47.43.81l-11.44.12h0zM25.94 17c-.33 0-.31.1-.38.26s-.41.52-.5.66L29 17.8h0l3.57-.07v-.87l-6.63.14z" class="I"/><path d="M-5.75,18.9c-.34,0-.41-1.79-.18-1.77,3,.31,9.88-.58,12.26.16-.33.45-.35,1.45-1,1.52Z" class="G H"/><path d="M-5.75 19.32c-.9-.09-.9-2.09-.45-2.59 2.88.2 9.69-.48 12.93.11.12.72-.56 2.4-1.34 2.38zm0-.83h0zm.1-.94a3.93 3.93 0 0 0 .08.93l10.94-.09.43-.94-11.45.1z" class="I"/><g class="G H"><use xlink:href="#C"/><path d="M18.79 18.58c-1.58 1.28-2.9 2.86-5.11 2.35l1.23-2.75a7.18 7.18 0 0 1-2.53.35c1.37-1.82 3.75-2.61 4.73-4.85 3.71-1.63.22 2.77-.16 4.4 1.18-1 2.27-1.75 3.95-1.45.68.2-.34 1.6-.2 2.23 1.56-1.35 2.3-3.72 3.82-4.94l13.76-.25s1.91 2.09 1.31 2.1l-14.05.12c-1.87 1.13-2.6 4.58-5 5-2.98.03-1.99.11-1.75-2.31z"/><use xlink:href="#D"/><path d="M22.4 20.44c2.06-3.1 6.8-1.14 10.05-1.76h6.69c.29 0 0 1.65-.3 1.65-4.99-.06-11.54.22-16.44.11zm6.14-2.22c-1.44-.3-5.75 1.08-3.34-1.24 2.63-1.21 10.22-.21 13.29-.6.31 0 .17 1.74 0 1.74l-10 .1zm-33.91.68c-.34 0 .47-1.79.71-1.78 3 .05 7.88-.06 10.81-.09.57-.16-.43 1.93-.78 1.78z"/></g></g></g></svg>