<svg id="art" xmlns="http://www.w3.org/2000/svg" xmlns:xlink="http://www.w3.org/1999/xlink" viewBox="0 0 34.02 34.02"><defs><style>.cls-1,.cls-2{fill:none;}.cls-2{clip-rule:evenodd;}.cls-3{clip-path:url(#clip-path);}.cls-4,.cls-5{fill:#833000;fill-rule:evenodd;}.cls-5{stroke:#fff;stroke-miterlimit:10;stroke-width:0.9px;}.cls-6{clip-path:url(#clip-path-2);}</style><clipPath id="clip-path"><path class="cls-2" d="M24.93,0A22.66,22.66,0,1,1,2.27,22.66,22.66,22.66,0,0,1,24.93,0"/></clipPath><clipPath id="clip-path-2"><circle class="cls-1" cx="17.01" cy="17.01" r="16.67"/></clipPath><symbol id="New_Symbol_23" data-name="New Symbol 23" viewBox="0 0 50.88 45.32"><g class="cls-3"><path class="cls-4" d="M24.93,0A22.66,22.66,0,1,1,2.27,22.66,22.66,22.66,0,0,1,24.93,0"/><path class="cls-5" d="M27.37,24.65a.51.51,0,0,1,0,.36l-.45,1.8c-.07.3-.05.32.27.32.68,0,1.36-.06,2,0a1.52,1.52,0,0,0,1.34-.59,35.79,35.79,0,0,0,3.57-4.48.57.57,0,0,1,.54-.29l5.74-.1,1.92-.05c.28,0,.28,0,.27-.31s0-.43,0-.65,0-.56,0-.84,0-.33-.32-.33H42.2l-8.61.14a.53.53,0,0,0-.49.29,41.26,41.26,0,0,1-3.34,4.74,1.06,1.06,0,0,1-.32.31.93.93,0,0,1,.06-.42l.42-1.69c.07-.3.06-.31-.25-.31-.72,0-1.43,0-2.15,0a.62.62,0,0,0-.41.18L25.61,24c-.06.05-.11.13-.23.09.09-.19.16-.37.24-.54q1-2.13,1.91-4.24c.11-.24.1-.27-.17-.27-.46,0-.92,0-1.38,0a.41.41,0,0,0-.42.27,5.92,5.92,0,0,1-.76,1.28,4.85,4.85,0,0,1-2.54,1.89.29.29,0,0,0-.23.21,3.65,3.65,0,0,1-1.45,1.68c-.06,0-.17.05-.15.18.31,0,.63,0,.94,0s.6-.09.9-.12a7,7,0,0,1,.91-.25c-.43,1-.94,2-1.35,3l.2,0h2a.69.69,0,0,0,.45-.2l1.94-1.58ZM12.68,27.31c.08.08.17.05.25.05.49,0,1,0,1.46,0a.47.47,0,0,0,.49-.33c.9-2,1.81-3.91,2.71-5.87a1.78,1.78,0,0,1,.84-.87A1,1,0,0,1,19.9,21a1.11,1.11,0,0,1-.17.87,1.82,1.82,0,0,1-1.52.91,5,5,0,0,1-.55,0,.37.37,0,0,0-.41.27c-.17.38-.35.75-.51,1.12a2.81,2.81,0,0,0-.25.56,9.57,9.57,0,0,0,1.08,0,4.75,4.75,0,0,0,1.59-.14,3.3,3.3,0,0,0,2.07-1.54,4,4,0,0,0-.39-4.21,2.64,2.64,0,0,0-3.08-.63,4,4,0,0,0-1.71,1.86c-.61,1.34-1.23,2.66-1.85,4C13.69,25.15,13.19,26.23,12.68,27.31Zm18.61-.64a.19.19,0,0,0,.19.08l2.44,0,6-.09,2.51-.05c.33,0,.33,0,.33-.32l0-1.13c0-.32,0-.32-.33-.33h-.22l-2.87.05L33.09,25a.64.64,0,0,0-.53.24c-.3.35-.6.7-.92,1A1.56,1.56,0,0,0,31.29,26.67Zm6.65-2.38h0l3.62-.07h.91c.16,0,.24-.08.23-.25,0-.43,0-.87,0-1.3s0-.35-.37-.34l-5,.1c-.7,0-1.4.06-2.1,0-.43,0-.73.07-.89.48a.48.48,0,0,1-.09.11c-.27.36-.54.71-.8,1.07-.13.18-.1.22.1.23h.26Zm-27.83.6h.18l2.54,0c.16,0,.31,0,.39-.19.21-.49.44-1,.66-1.46.11-.26.1-.28-.2-.28-.8,0-1.59,0-2.39,0s-1.31,0-2,0-1.3.07-2,0c-.25,0-.26,0-.26.27,0,.44,0,.87,0,1.31s0,.35.37.35C8.36,24.94,10.11,24.91,10.11,24.89Z"/><path class="cls-5" d="M27.37,24.65l-.95.77L24.48,27a.69.69,0,0,1-.45.2H22l-.2,0c.41-1,.92-2,1.35-3a7,7,0,0,0-.91.25c-.3,0-.6.1-.9.12s-.63,0-.94,0c0-.13.09-.14.15-.18A3.65,3.65,0,0,0,22,22.72a.29.29,0,0,1,.23-.21,4.85,4.85,0,0,0,2.54-1.89,5.92,5.92,0,0,0,.76-1.28.41.41,0,0,1,.42-.27c.46,0,.92,0,1.38,0,.27,0,.28,0,.17.27q-.95,2.12-1.91,4.24c-.08.17-.15.35-.24.54.12,0,.17,0,.23-.09l1.5-1.27a.62.62,0,0,1,.41-.18c.72,0,1.43,0,2.15,0,.31,0,.32,0,.25.31l-.42,1.69a.93.93,0,0,0-.06.42,1.06,1.06,0,0,0,.32-.31,41.26,41.26,0,0,0,3.34-4.74.53.53,0,0,1,.49-.29l8.61-.14h8.22c.31,0-7.83,0-7.82.33s0,.56,0,.84,0,.44,0,.65,6.76.3,6.48.31c-.64,0-8,0-8.67.05l-5.74.1a.57.57,0,0,0-.54.29,35.79,35.79,0,0,1-3.57,4.48,1.52,1.52,0,0,1-1.34.59c-.68-.05-1.36,0-2,0-.32,0-.34,0-.27-.32l.45-1.8A.51.51,0,0,0,27.37,24.65Z"/><path class="cls-5" d="M12.68,27.31c.51-1.08,1-2.16,1.52-3.25.62-1.33,1.24-2.65,1.85-4a4,4,0,0,1,1.71-1.86,2.64,2.64,0,0,1,3.08.63,4,4,0,0,1,.39,4.21,3.3,3.3,0,0,1-2.07,1.54,4.75,4.75,0,0,1-1.59.14,9.57,9.57,0,0,1-1.08,0,2.81,2.81,0,0,1,.25-.56c.16-.37.34-.74.51-1.12a.37.37,0,0,1,.41-.27,5,5,0,0,0,.55,0,1.82,1.82,0,0,0,1.52-.91A1.11,1.11,0,0,0,19.9,21a1,1,0,0,0-1.47-.75,1.78,1.78,0,0,0-.84.87c-.9,2-1.81,3.91-2.71,5.87a.47.47,0,0,1-.49.33c-.49,0-1,0-1.46,0C12.85,27.36,12.76,27.39,12.68,27.31Z"/><path class="cls-5" d="M31.29,26.67a1.56,1.56,0,0,1,.35-.45c.32-.33.62-.68.92-1a.64.64,0,0,1,.53-.24l6.21-.11,2.87-.05h7.38c.31,0-6.84,0-6.83.33l0,1.13c0,.31,8,.32,7.68.32-.84,0-9.68,0-10.52.05l-6,.09-2.44,0A.19.19,0,0,1,31.29,26.67Z"/><path class="cls-5" d="M37.94,24.29l-4.14.06h-.26c-.2,0-.23-.05-.1-.23.26-.36.53-.71.8-1.07a.48.48,0,0,0,.09-.11c.16-.41.46-.5.89-.48.7,0,1.4,0,2.1,0,1.66,0,11.44-.07,13.11-.1.32,0-7.76,0-7.75.34s0,.87,0,1.3c0,.17,6.88.25,6.72.25H41.56l-3.62.07Z"/><path class="cls-5" d="M.78,24.94C.42,24.94.35,23,.6,23c.65.06,8.08,0,8.73,0s1.3,0,2,0,1.59,0,2.39,0c.3,0,.31,0,.2.28-.22.49-.45,1-.66,1.46-.08.19-.23.18-.39.19Z"/><path class="cls-4" d="M27.37,24.65a.51.51,0,0,1,0,.36l-.45,1.8c-.07.3-.05.32.27.32.68,0,1.36-.06,2,0a1.52,1.52,0,0,0,1.34-.59,35.79,35.79,0,0,0,3.57-4.48.57.57,0,0,1,.54-.29l5.74-.1,1.92-.05c.28,0,.28,0,.27-.31s0-.43,0-.65,0-.56,0-.84,0-.33-.32-.33H42.2l-8.61.14a.53.53,0,0,0-.49.29,41.26,41.26,0,0,1-3.34,4.74,1.06,1.06,0,0,1-.32.31.93.93,0,0,1,.06-.42l.42-1.69c.07-.3.06-.31-.25-.31-.72,0-1.43,0-2.15,0a.62.62,0,0,0-.41.18L25.61,24c-.06.05-.11.13-.23.09.09-.19.16-.37.24-.54q1-2.13,1.91-4.24c.11-.24.1-.27-.17-.27-.46,0-.92,0-1.38,0a.41.41,0,0,0-.42.27,5.92,5.92,0,0,1-.76,1.28,4.85,4.85,0,0,1-2.54,1.89.29.29,0,0,0-.23.21,3.65,3.65,0,0,1-1.45,1.68c-.06,0-.17.05-.15.18.31,0,.63,0,.94,0s.6-.09.9-.12a7,7,0,0,1,.91-.25c-.43,1-.94,2-1.35,3l.2,0h2a.69.69,0,0,0,.45-.2l1.94-1.58ZM12.68,27.31c.08.08.17.05.25.05.49,0,1,0,1.46,0a.47.47,0,0,0,.49-.33c.9-2,1.81-3.91,2.71-5.87a1.78,1.78,0,0,1,.84-.87A1,1,0,0,1,19.9,21a1.11,1.11,0,0,1-.17.87,1.82,1.82,0,0,1-1.52.91,5,5,0,0,1-.55,0,.37.37,0,0,0-.41.27c-.17.38-.35.75-.51,1.12a2.81,2.81,0,0,0-.25.56,9.57,9.57,0,0,0,1.08,0,4.75,4.75,0,0,0,1.59-.14,3.3,3.3,0,0,0,2.07-1.54,4,4,0,0,0-.39-4.21,2.64,2.64,0,0,0-3.08-.63,4,4,0,0,0-1.71,1.86c-.61,1.34-1.23,2.66-1.85,4C13.69,25.15,13.19,26.23,12.68,27.31Zm18.61-.64a.19.19,0,0,0,.19.08l2.44,0,6-.09,2.51-.05c.33,0,.33,0,.33-.32l0-1.13c0-.32,0-.32-.33-.33h-.22l-2.87.05L33.09,25a.64.64,0,0,0-.53.24c-.3.35-.6.7-.92,1A1.56,1.56,0,0,0,31.29,26.67Zm6.65-2.38h0l3.62-.07h.91c.16,0,.24-.08.23-.25,0-.43,0-.87,0-1.3s0-.35-.37-.34l-5,.1c-.7,0-1.4.06-2.1,0-.43,0-.73.07-.89.48a.48.48,0,0,1-.09.11c-.27.36-.54.71-.8,1.07-.13.18-.1.22.1.23h.26Zm-27.83.6h.18l2.54,0c.16,0,.31,0,.39-.19.21-.49.44-1,.66-1.46.11-.26.1-.28-.2-.28-.8,0-1.59,0-2.39,0s-1.31,0-2,0-1.3.07-2,0c-.25,0-.26,0-.26.27,0,.44,0,.87,0,1.31s0,.35.37.35C8.36,24.94,10.11,24.91,10.11,24.89Z"/><path class="cls-4" d="M27.37,24.65l-.95.77L24.48,27a.69.69,0,0,1-.45.2H22l-.2,0c.41-1,.92-2,1.35-3a7,7,0,0,0-.91.25c-.3,0-.6.1-.9.12s-.63,0-.94,0c0-.13.09-.14.15-.18A3.65,3.65,0,0,0,22,22.72a.29.29,0,0,1,.23-.21,4.85,4.85,0,0,0,2.54-1.89,5.92,5.92,0,0,0,.76-1.28.41.41,0,0,1,.42-.27c.46,0,.92,0,1.38,0,.27,0,.28,0,.17.27q-.95,2.12-1.91,4.24c-.08.17-.15.35-.24.54.12,0,.17,0,.23-.09l1.5-1.27a.62.62,0,0,1,.41-.18c.72,0,1.43,0,2.15,0,.31,0,.32,0,.25.31l-.42,1.69a.93.93,0,0,0-.06.42,1.06,1.06,0,0,0,.32-.31,41.26,41.26,0,0,0,3.34-4.74.53.53,0,0,1,.49-.29l14.91-.24s2.06,2.27,1.42,2.28c-1.92,0-13.31.07-15.22.1a.57.57,0,0,0-.54.29,35.79,35.79,0,0,1-3.57,4.48,1.52,1.52,0,0,1-1.34.59c-.68-.05-1.36,0-2,0-.32,0-.34,0-.27-.32l.45-1.8A.51.51,0,0,0,27.37,24.65Z"/><path class="cls-4" d="M12.68,27.31c.51-1.08,1-2.16,1.52-3.25.62-1.33,1.24-2.65,1.85-4a4,4,0,0,1,1.71-1.86,2.64,2.64,0,0,1,3.08.63,4,4,0,0,1,.39,4.21,3.3,3.3,0,0,1-2.07,1.54,4.75,4.75,0,0,1-1.59.14,9.57,9.57,0,0,1-1.08,0,2.81,2.81,0,0,1,.25-.56c.16-.37.34-.74.51-1.12a.37.37,0,0,1,.41-.27,5,5,0,0,0,.55,0,1.82,1.82,0,0,0,1.52-.91A1.11,1.11,0,0,0,19.9,21a1,1,0,0,0-1.47-.75,1.78,1.78,0,0,0-.84.87c-.9,2-1.81,3.91-2.71,5.87a.47.47,0,0,1-.49.33c-.49,0-1,0-1.46,0C12.85,27.36,12.76,27.39,12.68,27.31Z"/><path class="cls-4" d="M31.29,26.67a1.56,1.56,0,0,1,.35-.45c.32-.33.62-.68.92-1a.64.64,0,0,1,.53-.24l6.21-.11,2.87-.05h7.25c.31,0,0,1.78-.33,1.78-.84,0-8.34,0-9.18.05l-6,.09-2.44,0A.19.19,0,0,1,31.29,26.67Z"/><path class="cls-4" d="M37.94,24.29l-4.14.06h-.26c-.2,0-.23-.05-.1-.23.26-.36.53-.71.8-1.07a.48.48,0,0,0,.09-.11c.16-.41.46-.5.89-.48.7,0,1.4,0,2.1,0,1.66,0,9.74-.07,11.41-.1.33,0,.17,1.89,0,1.89H41.56l-3.62.07Z"/><path class="cls-4" d="M1.2,24.94c-.36,0,.52-2,.77-1.93.65.06,6.71,0,7.36,0s1.3,0,2,0,1.59,0,2.39,0c.3,0,.31,0,.2.28-.22.49-.45,1-.66,1.46-.08.19-.23.18-.39.19Z"/></g></symbol></defs><g class="cls-6"><use width="50.89" height="45.32" transform="translate(-6.01 -3.49) scale(0.9)" xlink:href="#New_Symbol_23"/></g></svg>