<svg id="art" xmlns="http://www.w3.org/2000/svg" xmlns:xlink="http://www.w3.org/1999/xlink" viewBox="0 0 34.02 34.02"><defs><style>.cls-1{fill:none;}.cls-2{clip-path:url(#clip-path);}.cls-3{fill:#231f20;}.cls-4{fill:#fff;}</style><clipPath id="clip-path"><circle class="cls-1" cx="17.01" cy="17.01" r="16.67"/></clipPath></defs><g class="cls-2"><path class="cls-3" d="M37.84,17A20.84,20.84,0,1,1,17-3.83,20.83,20.83,0,0,1,37.84,17Z"/><path class="cls-4" d="M2.72,10.11H5.36v.15a.87.87,0,0,0-.14.48,1.48,1.48,0,0,0,.06.39L6.43,16.6l1.46-6.55H9.22l1.32,6.55,1.27-5.32a2.43,2.43,0,0,0,.1-.58,1.05,1.05,0,0,0-.1-.44v-.15H14.4v.11a2.8,2.8,0,0,0-.34.81L11.39,23.55H10L8.45,16l-1.64,7.6H5.43L3.07,11.22a2.78,2.78,0,0,0-.35-1Z"/><path class="cls-4" d="M23,10.11v.13a2.12,2.12,0,0,0-.31,1V23.55H21.9l-4.26-8.18v7a1.83,1.83,0,0,0,.34,1v.15H15V23.4a2.17,2.17,0,0,0,.35-1V11.28a1.59,1.59,0,0,0-.08-.5,3.05,3.05,0,0,0-.25-.54v-.13h2.48L20.38,16V11.28a1.75,1.75,0,0,0-.34-1v-.13Z"/><path class="cls-4" d="M28.89,23.55l-1.71-5.61h-.65v4.44a2.28,2.28,0,0,0,.31,1v.13h-2.9v-.13a2.31,2.31,0,0,0,.32-1V11.28a2.31,2.31,0,0,0-.32-1v-.13h3.72a3.24,3.24,0,0,1,2.51,1,3.93,3.93,0,0,1,.95,2.73,4.65,4.65,0,0,1-.6,2.38,3.55,3.55,0,0,1-1.44,1.46l1.77,4.73a4,4,0,0,0,.58,1v.13Zm-.62-8.06a2,2,0,0,0,.47-1.39,1.64,1.64,0,0,0-1.83-1.88h-.38V16h.65A1.44,1.44,0,0,0,28.27,15.49Z"/></g></svg>