<svg id="art" xmlns="http://www.w3.org/2000/svg" xmlns:xlink="http://www.w3.org/1999/xlink" viewBox="0 0 34.02 34.02"><defs><style>.cls-1{fill:none;}.cls-2{clip-path:url(#clip-path);}.cls-3{fill:#231f20;}.cls-4{fill:#fff;}</style><clipPath id="clip-path"><circle class="cls-1" cx="17.01" cy="17.01" r="16.67"/></clipPath></defs><g class="cls-2"><path class="cls-3" d="M37.84,17A20.84,20.84,0,1,1,17-3.83,20.83,20.83,0,0,1,37.84,17Z"/><path class="cls-4" d="M6.29,12H8.17v.11a.57.57,0,0,0-.1.34,1.57,1.57,0,0,0,0,.28l.83,3.91L10,12h.95l.94,4.68.91-3.8a2.05,2.05,0,0,0,.07-.41.79.79,0,0,0-.07-.32V12h1.85v.08a2.08,2.08,0,0,0-.25.58l-1.9,8.94h-1l-1.14-5.43L9.21,21.62h-1l-1.68-8.8a1.86,1.86,0,0,0-.25-.7Z"/><path class="cls-4" d="M21.3,12v.1a1.6,1.6,0,0,0-.22.74v8.76h-.56l-3-5.84v5a1.29,1.29,0,0,0,.24.72v.11H15.61v-.11a1.44,1.44,0,0,0,.25-.72V12.86a1,1,0,0,0-.06-.36,1.42,1.42,0,0,0-.18-.38V12h1.77l2.05,4.17V12.86a1.18,1.18,0,0,0-.25-.74V12Z"/><path class="cls-4" d="M26.05,21.62l-1.22-4h-.47v3.17a1.78,1.78,0,0,0,.22.74v.09H22.51v-.09a1.58,1.58,0,0,0,.24-.74V12.86a1.55,1.55,0,0,0-.24-.74V12h2.66a2.32,2.32,0,0,1,1.79.74,2.73,2.73,0,0,1,.68,2,3.28,3.28,0,0,1-.43,1.7,2.62,2.62,0,0,1-1,1l1.26,3.38a2.92,2.92,0,0,0,.41.7v.09Zm-.44-5.76a1.43,1.43,0,0,0,.33-1,1.17,1.17,0,0,0-1.3-1.34h-.28v2.7h.47A1,1,0,0,0,25.61,15.86Z"/></g></svg>