<?xml version="1.0" encoding="UTF-8"?>
<!DOCTYPE svg PUBLIC "-//W3C//DTD SVG 1.1//EN" "http://www.w3.org/Graphics/SVG/1.1/DTD/svg11.dtd">
<!-- Creator: CorelDRAW -->
<svg xmlns="http://www.w3.org/2000/svg" xml:space="preserve" width="0.281638in" height="0.281638in" style="shape-rendering:geometricPrecision; text-rendering:geometricPrecision; image-rendering:optimizeQuality; fill-rule:evenodd; clip-rule:evenodd"
viewBox="0 0 0.0125137 0.0125137"
 xmlns:xlink="http://www.w3.org/1999/xlink">
 <defs>
  <style type="text/css">
   <![CDATA[
    .str0 {stroke:#373435;stroke-width:0.00017143}
    .fil2 {fill:#373435}
    .fil0 {fill:#FEFEFE}
    .fil1 {fill:#373435;fill-rule:nonzero}
   ]]>
  </style>
 </defs>
 <g id="certs">
  <metadata id="CorelCorpID_0Corel-Layer"/>
  <g id="_390463440">
   <g>
    <circle id="_390471616" class="fil0 str0" cx="0.0062569" cy="0.0062569" r="0.00617114"/>
    <path id="_390469488" class="fil1" d="M0.00166462 0.00907391l0.000478255 0 0 -7.10211e-005c-2.2216e-005,-8.57151e-006 -3.9359e-005,-1.78427e-005 -5.12541e-005,-2.85134e-005 -1.18952e-005,-1.08456e-005 -1.94171e-005,-2.43151e-005 -2.36154e-005,-4.09333e-005 -4.37322e-006,-1.67932e-005 -5.94758e-006,-3.77846e-005 -5.94758e-006,-6.29744e-005l0 -0.000168107c0.000112479,-1.06707e-005 0.000212713,-3.55105e-005 0.000300353,-7.3645e-005 8.78143e-005,-3.77846e-005 0.000162684,-8.67647e-005 0.000223559,-0.000145891 6.07003e-005,-5.93009e-005 0.000107056,-0.000126648 0.000138893,-0.000201868 3.16621e-005,-7.53943e-005 4.79305e-005,-0.000155687 4.79305e-005,-0.000240702 0,-0.000151313 -4.89801e-005,-0.000273589 -0.00014764,-0.000366126 -9.84849e-005,-9.3237e-005 -0.000246475,-0.00015936 -0.000443619,-0.000199244 -7.59191e-005,-1.55687e-005 -0.000144316,-2.9563e-005 -0.000205017,-4.19829e-005 -6.08752e-005,-1.29447e-005 -0.000113179,-2.74638e-005 -0.000155687,-4.35573e-005 -4.30325e-005,-1.67932e-005 -7.59191e-005,-3.83094e-005 -9.90097e-005,-6.52484e-005 -2.27407e-005,-2.74638e-005 -3.4461e-005,-6.29744e-005 -3.4461e-005,-0.000107581 5.24786e-007,-6.08752e-005 2.64142e-005,-0.00010933 7.74935e-005,-0.000144841 5.10792e-005,-3.62103e-005 0.000125424,-5.49276e-005 0.000222859,-5.54524e-005 0.000132421,0 0.00024665,3.16621e-005 0.000342511,9.51613e-005 9.5861e-005,6.36741e-005 0.000174404,0.00016006 0.000235804,0.000289157l6.78724e-005 -9.62108e-006 -8.72895e-005 -0.000584787c-2.58895e-005,1.29447e-005 -5.10792e-005,2.27407e-005 -7.64439e-005,2.92131e-005 -2.53647e-005,6.29744e-006 -5.10792e-005,9.62108e-006 -7.8543e-005,9.62108e-006 -2.92131e-005,-5.24786e-007 -5.98256e-005,-3.84843e-006 -9.3237e-005,-1.03208e-005 -3.34114e-005,-6.29744e-006 -6.94467e-005,-1.32946e-005 -0.000108806,-2.04667e-005 -3.86593e-005,-6.99715e-006 -8.1167e-005,-1.17202e-005 -0.000127523,-1.45191e-005l0 -0.000132421c-1.04957e-006,-3.65601e-005 4.37322e-006,-6.50735e-005 1.50439e-005,-8.6065e-005 1.08456e-005,-2.04667e-005 3.28866e-005,-3.72598e-005 6.57732e-005,-4.95048e-005l0 -6.78724e-005 -0.000478255 0 0 6.78724e-005c3.28866e-005,1.2245e-005 5.49276e-005,2.90382e-005 6.57732e-005,4.95048e-005 1.08456e-005,2.09915e-005 1.60934e-005,4.95048e-005 1.50439e-005,8.6065e-005l0 0.000135745c-0.000120001,6.99715e-006 -0.000223384,3.60353e-005 -0.000310149,8.65897e-005 -8.65897e-005,5.02046e-005 -0.000153413,0.000116852 -0.000200293,0.000200293 -4.6706e-005,8.3441e-005 -7.04963e-005,0.000178252 -7.10211e-005,0.000284959 0,7.95926e-005 1.50439e-005,0.000152363 4.47818e-005,0.000217961 2.9563e-005,6.57732e-005 7.31202e-005,0.000122275 0.000129622,0.000169681 4.4257e-005,3.60353e-005 9.21875e-005,6.34991e-005 0.000143267,8.29162e-005 5.1604e-005,1.92422e-005 0.000107231,3.4461e-005 0.000166882,4.51316e-005 5.93009e-005,1.13704e-005 0.0001228,2.2041e-005 0.000190672,3.34114e-005 8.1167e-005,1.34695e-005 0.000150614,2.9563e-005 0.00020834,4.84553e-005 5.75516e-005,1.94171e-005 0.000101809,4.46068e-005 0.000132421,7.64439e-005 3.11373e-005,3.11373e-005 4.68809e-005,7.25954e-005 4.68809e-005,0.00012385 -5.24786e-007,5.54524e-005 -1.73179e-005,0.000105482 -5.12541e-005,0.000149739 -3.32365e-005,4.40821e-005 -8.06422e-005,7.90678e-005 -0.000142042,0.000104432 -6.14e-005,2.57145e-005 -0.000133646,3.9184e-005 -0.000217087,3.97088e-005 -0.000107056,0 -0.000202393,-1.99419e-005 -0.000286358,-6.01755e-005 -8.39658e-005,-4.04085e-005 -0.000161459,-0.000101284 -0.000231431,-0.000182101 -7.01464e-005,-8.06422e-005 -0.000137319,-0.000181926 -0.000202568,-0.000303676l-6.45487e-005 0 0.000180876 0.000804497c2.6939e-005,-2.27407e-005 5.23037e-005,-4.04085e-005 7.53943e-005,-5.28285e-005 2.36154e-005,-1.18952e-005 4.79305e-005,-1.83675e-005 7.32952e-005,-1.83675e-005 3.11373e-005,6.99715e-007 6.55983e-005,3.84843e-006 0.000103908,1.08456e-005 3.81345e-005,6.47237e-006 8.06422e-005,1.39943e-005 0.000126998,2.25658e-005 4.63561e-005,8.74644e-006 9.74353e-005,1.57436e-005 0.000153413,2.15162e-005l0 0.000161634c1.04957e-006,3.65601e-005 -4.19829e-006,6.45487e-005 -1.50439e-005,8.44906e-005 -1.08456e-005,1.99419e-005 -3.28866e-005,3.55105e-005 -6.57732e-005,4.79305e-005l0 7.10211e-005z"/>
    <path id="_3904694881" class="fil1" d="M0.00288615 0.00884457l0.00152783 0c3.51607e-005,-5.24786e-007 6.41989e-005,3.84843e-006 8.78143e-005,1.18952e-005 2.32655e-005,8.57151e-006 4.35573e-005,2.41402e-005 6.08752e-005,4.61812e-005l0.000271315 -0.000684846 -7.74935e-005 -1.60934e-005c-2.2041e-005,5.93009e-005 -5.93009e-005,0.000102858 -0.000111954,0.000130322 -5.23037e-005,2.74638e-005 -0.0001228,4.14581e-005 -0.000211139,4.09333e-005l-0.000545953 0c0.00013522,-0.000107756 0.000254172,-0.000207815 0.000358079,-0.000301052 0.000103383,-9.25373e-005 0.000190672,-0.000182451 0.000261169,-0.000268691 7.04963e-005,-8.6065e-005 0.00012385,-0.00017283 0.000159885,-0.000259944 3.60353e-005,-8.72895e-005 5.44029e-005,-0.000178777 5.44029e-005,-0.000275163 -5.24786e-007,-0.00012385 -3.49858e-005,-0.000231956 -0.000102858,-0.000325193 -6.78724e-005,-9.35869e-005 -0.000164783,-0.000166357 -0.000290732,-0.000218661 -0.000125424,-5.21288e-005 -0.000275163,-7.8543e-005 -0.000449567,-7.95926e-005 -0.000148689,0 -0.000301052,2.04667e-005 -0.000457614,6.14e-005 -0.000156211,4.09333e-005 -0.000316096,0.000103383 -0.00047913,0.000187349l0.000158136 0.000558897 6.47237e-005 -1.29447e-005c8.04672e-006,-0.00011038 3.39362e-005,-0.000203617 7.80182e-005,-0.000279536 4.35573e-005,-7.64439e-005 0.000102333,-0.00013452 0.000176153,-0.000174404 7.31202e-005,-3.98838e-005 0.00015866,-5.96507e-005 0.000256271,-5.96507e-005 7.15459e-005,0 0.00013452,1.66182e-005 0.000189448,4.84553e-005 5.44029e-005,3.21869e-005 9.74353e-005,7.8543e-005 0.000128048,0.000138369 3.13123e-005,6.01755e-005 4.68809e-005,0.000132421 4.74057e-005,0.000216912 0,9.90097e-005 -2.36154e-005,0.000207291 -7.10211e-005,0.000324668 -4.74057e-005,0.000117902 -0.000118952,0.000241752 -0.000214813,0.000372074 -9.5861e-005,0.000130847 -0.000215337,0.000264842 -0.000360178,0.000402686 -0.000144316,0.000137844 -0.000313297,0.000276213 -0.000507119,0.000415631z"/>
    <path id="_39046948812" class="fil1" d="M0.00592624 0.00691598c0.000118952,-5.24786e-007 0.000205541,7.04963e-005 0.000260994,0.000212189 5.49276e-005,0.000140993 8.18667e-005,0.000354756 8.13419e-005,0.000640589 1.04957e-006,0.000287058 -2.58895e-005,0.000501346 -8.01174e-005,0.000642339 -5.44029e-005,0.000140643 -0.000142217,0.000211139 -0.000262218,0.000210614 -0.000120701,5.24786e-007 -0.00020834,-6.99715e-005 -0.000263793,-0.000210614 -5.56274e-005,-0.000140993 -8.23915e-005,-0.00035528 -8.18667e-005,-0.000642339 -5.24786e-007,-0.000285834 2.6939e-005,-0.000499597 8.29162e-005,-0.000640589 5.6502e-005,-0.000141692 0.000143617,-0.000212713 0.000262743,-0.000212189zm0 -0.000271315c-0.000142742,5.24786e-007 -0.000274113,2.6939e-005 -0.000393065,7.95926e-005 -0.000119476,5.28285e-005 -0.000223384,0.000128223 -0.000311198,0.000226708 -8.78143e-005,9.86598e-005 -0.000156211,0.000216562 -0.000204142,0.000354931 -4.84553e-005,0.000137669 -7.31202e-005,0.000291781 -7.3645e-005,0.000462862 5.24786e-007,0.000170206 2.51897e-005,0.000324143 7.3645e-005,0.000461462 4.79305e-005,0.000137319 0.000116328,0.000255221 0.000204142,0.000353181 8.78143e-005,9.84849e-005 0.000191722,0.000173879 0.000311198,0.000226708 0.000118952,5.28285e-005 0.000250323,7.90678e-005 0.000393065,7.97675e-005 0.000143617,-6.99715e-007 0.000274988,-2.6939e-005 0.000394115,-7.97675e-005 0.000119476,-5.28285e-005 0.000222334,-0.000128223 0.000309449,-0.000226708 8.72895e-005,-9.79601e-005 0.000155162,-0.000215862 0.000202568,-0.000353181 4.79305e-005,-0.000137319 7.20707e-005,-0.000291256 7.25954e-005,-0.000461462 -5.24786e-007,-0.000169506 -2.4665e-005,-0.000322919 -7.20707e-005,-0.000460238 -4.74057e-005,-0.000137844 -0.000114753,-0.000256271 -0.000201343,-0.000354756 -8.72895e-005,-9.91846e-005 -0.000190672,-0.000175104 -0.000309624,-0.000228282 -0.000119476,-5.33533e-005 -0.000251373,-8.02923e-005 -0.000395689,-8.08171e-005z"/>
    <polygon id="_390469488123" class="fil1" points="0.00716701,0.00914493 0.00787757,0.00664467 0.00746089,0.00664467 0.006747,0.00914493 "/>
    <path id="_3904694881234" class="fil1" d="M0.00792637 0.00884457l0.00163786 0 0 -0.000119476 -0.000277787 -2.27407e-005c-5.82513e-005,-4.72308e-006 -0.000101809,-1.60934e-005 -0.000130847,-3.37613e-005 -2.90382e-005,-1.73179e-005 -4.79305e-005,-4.37322e-005 -5.70268e-005,-7.8718e-005 -9.27123e-006,-3.55105e-005 -1.29447e-005,-8.18667e-005 -1.24199e-005,-0.000139418l0 -0.00180579c-0.000188398,0.000101284 -0.00038117,0.000181926 -0.00057779,0.000241227 -0.00019697,5.96507e-005 -0.000401636,9.95345e-005 -0.00061435,0.000120526l0 0.000109855c3.56855e-005,-1.57436e-006 7.1196e-005,-2.62393e-006 0.000106707,-2.62393e-006 3.55105e-005,-5.24786e-007 7.10211e-005,-5.24786e-007 0.000106532,-5.24786e-007 6.57732e-005,-5.24786e-007 0.000120176,1.04957e-006 0.000162684,4.72308e-006 4.30325e-005,4.37322e-006 7.59191e-005,1.39943e-005 0.000100059,2.92131e-005 2.37903e-005,1.50439e-005 4.04085e-005,3.9184e-005 5.00296e-005,7.20707e-005 9.27123e-006,3.34114e-005 1.39943e-005,7.8543e-005 1.34695e-005,0.00013627l0 0.00103051c5.24786e-007,5.26536e-005 -2.09915e-006,9.84849e-005 -7.52194e-006,0.000138893 -5.94758e-006,3.98838e-005 -1.7143e-005,7.3645e-005 -3.49858e-005,0.000101109 -1.7143e-005,2.74638e-005 -4.35573e-005,4.84553e-005 -7.8543e-005,6.36741e-005 -3.49858e-005,1.45191e-005 -8.18667e-005,2.36154e-005 -0.000140468,2.57145e-005l-0.0002456 9.79601e-006 0 0.000119476z"/>
    <path id="_39046948812345" class="fil1" d="M0.010721 0.00691598c0.000118952,-5.24786e-007 0.000205541,7.04963e-005 0.000260994,0.000212189 5.49276e-005,0.000140993 8.18667e-005,0.000354756 8.13419e-005,0.000640589 1.04957e-006,0.000287058 -2.58895e-005,0.000501346 -8.01174e-005,0.000642339 -5.44029e-005,0.000140643 -0.000142217,0.000211139 -0.000262218,0.000210614 -0.000120701,5.24786e-007 -0.00020834,-6.99715e-005 -0.000263793,-0.000210614 -5.56274e-005,-0.000140993 -8.23915e-005,-0.00035528 -8.18667e-005,-0.000642339 -5.24786e-007,-0.000285834 2.6939e-005,-0.000499597 8.29162e-005,-0.000640589 5.6502e-005,-0.000141692 0.000143617,-0.000212713 0.000262743,-0.000212189zm0 -0.000271315c-0.000142742,5.24786e-007 -0.000274113,2.6939e-005 -0.000393065,7.95926e-005 -0.000119476,5.28285e-005 -0.000223384,0.000128223 -0.000311198,0.000226708 -8.78143e-005,9.86598e-005 -0.000156211,0.000216562 -0.000204142,0.000354931 -4.84553e-005,0.000137669 -7.31202e-005,0.000291781 -7.3645e-005,0.000462862 5.24786e-007,0.000170206 2.51897e-005,0.000324143 7.3645e-005,0.000461462 4.79305e-005,0.000137319 0.000116328,0.000255221 0.000204142,0.000353181 8.78143e-005,9.84849e-005 0.000191722,0.000173879 0.000311198,0.000226708 0.000118952,5.28285e-005 0.000250323,7.90678e-005 0.000393065,7.97675e-005 0.000143617,-6.99715e-007 0.000274988,-2.6939e-005 0.000394115,-7.97675e-005 0.000119476,-5.28285e-005 0.000222334,-0.000128223 0.000309449,-0.000226708 8.72895e-005,-9.79601e-005 0.000155162,-0.000215862 0.000202568,-0.000353181 4.79305e-005,-0.000137319 7.20707e-005,-0.000291256 7.25954e-005,-0.000461462 -5.24786e-007,-0.000169506 -2.4665e-005,-0.000322919 -7.20707e-005,-0.000460238 -4.74057e-005,-0.000137844 -0.000114753,-0.000256271 -0.000201343,-0.000354756 -8.72895e-005,-9.91846e-005 -0.000190672,-0.000175104 -0.000309624,-0.000228282 -0.000119476,-5.33533e-005 -0.000251373,-8.02923e-005 -0.000395689,-8.08171e-005z"/>
   </g>
   <g>
    <path id="_390468928" class="fil2" d="M0.00269355 0.00260469c-0.000107931,0.000772835 -0.000167582,0.000916277 -0.000213763,0.0012873 -4.61812e-005,0.000370849 -0.000105482,0.000481229 2.88632e-005,0.000704788 0.000134345,0.000223734 8.88638e-005,0.000203792 0.000277262,0.000323268 0.000188398,0.000119301 0.000251897,0.000157086 0.00053948,0.000219711 0.000214463,4.68809e-005 0.00115628,0.000177553 0.00194853,0.00019697 0.000636041,1.55687e-005 0.00117902,2.76387e-005 0.00118182,2.83385e-005 6.64729e-006,1.57436e-006 -1.69681e-005,-0.00103873 -1.69681e-005,-0.00103873 0,0 -0.000496623,-2.16912e-005 -0.00132526,0 -0.000828638,2.16912e-005 -0.00155704,5.82513e-005 -0.00175733,4.28576e-005 -0.000200293,-1.55687e-005 -0.000228282,-8.39658e-006 -0.000339012,-9.28872e-005 -0.00011073,-8.43157e-005 -0.000107931,-9.8135e-005 -0.000138719,-0.00022181 -3.07875e-005,-0.0001235 -6.12251e-006,-0.000597032 0,-0.000726304 6.12251e-006,-0.000129447 -9.27123e-006,-0.000156036 -4.46068e-005,-0.000341111 -6.99715e-005,-0.000191372 -0.000140293,-0.000382394 -0.000140293,-0.000382394z"/>
    <path id="_390466072" class="fil2" d="M0.010176 0.00260364c0.000107931,0.00077266 0.000167757,0.000916102 0.000213938,0.00128713 4.61812e-005,0.000370849 0.000105482,0.000481229 -2.88632e-005,0.000704788 -0.00013452,0.000223734 -8.88638e-005,0.000203792 -0.000277437,0.000323268 -0.000188398,0.000119476 -0.000251897,0.000157086 -0.00053948,0.000219885 -0.000214463,4.6706e-005 -0.00115628,0.000177378 -0.00194836,0.000196795 -0.000636216,1.55687e-005 -0.00117919,2.76387e-005 -0.00118199,2.83385e-005 -6.64729e-006,1.57436e-006 1.7143e-005,-0.00103873 1.7143e-005,-0.00103873 0,0 0.000496448,-2.16912e-005 0.00132509,0 0.000828638,2.16912e-005 0.00155704,5.82513e-005 0.00175733,4.28576e-005 0.000200293,-1.55687e-005 0.000228282,-8.39658e-006 0.000339012,-9.28872e-005 0.00011073,-8.43157e-005 0.000107931,-9.8135e-005 0.000138719,-0.00022181 3.07875e-005,-0.0001235 6.29744e-006,-0.000597032 0,-0.000726304 -6.12251e-006,-0.000129447 9.27123e-006,-0.000156036 4.47818e-005,-0.000341111 6.97966e-005,-0.000191372 0.000140118,-0.000382219 0.000140118,-0.000382219z"/>
   </g>
  </g>
 </g>
</svg>
