<?xml version="1.0" encoding="UTF-8"?>
<!DOCTYPE svg PUBLIC "-//W3C//DTD SVG 1.1//EN" "http://www.w3.org/Graphics/SVG/1.1/DTD/svg11.dtd">
<!-- Creator: CorelDRAW -->
<svg xmlns="http://www.w3.org/2000/svg" xml:space="preserve" width="0.281638in" height="0.281638in" style="shape-rendering:geometricPrecision; text-rendering:geometricPrecision; image-rendering:optimizeQuality; fill-rule:evenodd; clip-rule:evenodd"
viewBox="0 0 0.0105218 0.0105218"
 xmlns:xlink="http://www.w3.org/1999/xlink">
 <defs>
  <style type="text/css">
   <![CDATA[
    .str0 {stroke:#373435;stroke-width:0.000144142}
    .fil2 {fill:#373435}
    .fil0 {fill:#FEFEFE}
    .fil1 {fill:#373435;fill-rule:nonzero}
   ]]>
  </style>
 </defs>
 <g id="certs">
  <metadata id="CorelCorpID_0Corel-Layer"/>
  <g id="_390452296">
   <g>
    <circle id="_390461872" class="fil0 str0" cx="0.00526092" cy="0.00526092" r="0.00518882"/>
    <path id="_390459856" class="fil1" d="M0.00287284 0.00854306l0.000494201 0 0 -7.35418e-005c-2.2798e-005,-8.82502e-006 -4.05951e-005,-1.82384e-005 -5.29501e-005,-2.94167e-005 -1.22079e-005,-1.11784e-005 -2.00034e-005,-2.50042e-005 -2.44159e-005,-4.23601e-005 -4.41251e-006,-1.72088e-005 -6.17751e-006,-3.89772e-005 -6.17751e-006,-6.5011e-005l0 -0.000173706c0.000116343,-1.11784e-005 0.00021989,-3.67709e-005 0.000310641,-7.61893e-005 9.06035e-005,-3.89772e-005 0.00016797,-8.9721e-005 0.000230921,-0.000150908 6.29518e-005,-6.11868e-005 0.000110754,-0.000130757 0.000143554,-0.000208712 3.29467e-005,-7.79543e-005 4.95672e-005,-0.000160762 4.95672e-005,-0.000248718 0,-0.000156497 -5.05968e-005,-0.000282842 -0.000152526,-0.000378446 -0.000101782,-9.63398e-005 -0.000254896,-0.000164734 -0.000458607,-0.000205917 -7.83956e-005,-1.61792e-005 -0.000149143,-3.07405e-005 -0.000211948,-4.35368e-005 -6.29518e-005,-1.32375e-005 -0.000116931,-2.83871e-005 -0.000160909,-4.50076e-005 -4.45663e-005,-1.72088e-005 -7.85427e-005,-3.95655e-005 -0.00010237,-6.73643e-005 -2.33863e-005,-2.83871e-005 -3.55942e-005,-6.5158e-005 -3.55942e-005,-0.000111342 4.41251e-007,-6.28047e-005 2.72105e-005,-0.00011296 8.00135e-005,-0.000149731 5.29501e-005,-3.72122e-005 0.000129728,-5.67743e-005 0.00023048,-5.72155e-005 0.000136935,0 0.000254896,3.27996e-005 0.00035403,9.83989e-005 9.89873e-005,6.57464e-005 0.000180325,0.000165322 0.000243718,0.000298874l7.01589e-005 -1.00017e-005 -9.01623e-005 -0.000604367c-2.67692e-005,1.33846e-005 -5.29501e-005,2.33863e-005 -7.9131e-005,3.00051e-005 -2.60338e-005,6.76585e-006 -5.2803e-005,1.00017e-005 -8.11902e-005,1.00017e-005 -3.00051e-005,-5.88335e-007 -6.17751e-005,-3.82417e-006 -9.63398e-005,-1.059e-005 -3.44176e-005,-6.61876e-006 -7.17768e-005,-1.38259e-005 -0.000112372,-2.1033e-005 -4.00067e-005,-7.35418e-006 -8.39848e-005,-1.2355e-005 -0.000131934,-1.51496e-005l0 -0.000136788c-1.02959e-006,-3.79476e-005 4.41251e-006,-6.73643e-005 1.55909e-005,-8.91327e-005 1.11784e-005,-2.118e-005 3.39763e-005,-3.83888e-005 6.79526e-005,-5.11851e-005l0 -7.01589e-005 -0.000494201 0 0 7.01589e-005c3.38292e-005,1.27963e-005 5.67743e-005,3.00051e-005 6.78056e-005,5.11851e-005 1.11784e-005,2.17684e-005 1.67675e-005,5.11851e-005 1.55909e-005,8.91327e-005l0 0.000140171c-0.000124139,7.2071e-006 -0.000230921,3.73592e-005 -0.000320495,8.95739e-005 -8.9721e-005,5.17734e-005 -0.000158703,0.000120756 -0.000207094,0.000207094 -4.83905e-005,8.6191e-005 -7.29535e-005,0.000184149 -7.33947e-005,0.000294461 0,8.23668e-005 1.54438e-005,0.000157527 4.61843e-005,0.000225332 3.05934e-005,6.79526e-005 7.5601e-005,0.000126345 0.00013414,0.000175324 4.55959e-005,3.73592e-005 9.51631e-005,6.57464e-005 0.000147966,8.57498e-005 5.33914e-005,2.00034e-005 0.000110754,3.55942e-005 0.000172529,4.67726e-005 6.11868e-005,1.16196e-005 0.000126933,2.2798e-005 0.000197092,3.44176e-005 8.39848e-005,1.39729e-005 0.000155762,3.05934e-005 0.00021533,5.01555e-005 5.95689e-005,2.00034e-005 0.000105165,4.61843e-005 0.000136935,7.89839e-005 3.22113e-005,3.23584e-005 4.83905e-005,7.51597e-005 4.83905e-005,0.00012811 -5.88335e-007,5.72155e-005 -1.77971e-005,0.000108989 -5.2803e-005,0.000154732 -3.45647e-005,4.55959e-005 -8.35435e-005,8.17785e-005 -0.000146937,0.000107959 -6.35401e-005,2.66221e-005 -0.000138112,4.05951e-005 -0.000224303,4.11834e-005 -0.000110754,0 -0.0002093,-2.05917e-005 -0.000296079,-6.23635e-005 -8.69264e-005,-4.17718e-005 -0.000167087,-0.000104724 -0.000239305,-0.00018812 -7.23651e-005,-8.35435e-005 -0.000141936,-0.00018812 -0.0002093,-0.000313876l-6.6776e-005 0 0.000186943 0.000831464c2.77988e-005,-2.33863e-005 5.39797e-005,-4.17718e-005 7.79543e-005,-5.4568e-005 2.44159e-005,-1.22079e-005 4.95672e-005,-1.89738e-005 7.5601e-005,-1.89738e-005 3.23584e-005,5.88335e-007 6.79526e-005,3.97126e-006 0.000107518,1.11784e-005 3.94184e-005,6.76585e-006 8.33964e-005,1.45613e-005 0.000131346,2.33863e-005 4.78022e-005,8.9721e-006 0.000100752,1.61792e-005 0.000158556,2.22096e-005l0 0.000167087c1.17667e-006,3.78005e-005 -4.41251e-006,6.6776e-005 -1.55909e-005,8.73677e-005 -1.10313e-005,2.05917e-005 -3.39763e-005,3.66238e-005 -6.78056e-005,4.94201e-005l0 7.35418e-005z"/>
    <path id="_3904598561" class="fil1" d="M0.00424527 0.00830596l0.00157953 0c3.61826e-005,-5.88335e-007 6.63347e-005,3.82417e-006 9.07506e-005,1.22079e-005 2.39746e-005,8.9721e-006 4.51547e-005,2.51513e-005 6.29518e-005,4.79493e-005l0.000280488 -0.000708061 -8.01606e-005 -1.66205e-005c-2.2798e-005,6.11868e-005 -6.11868e-005,0.000106341 -0.000115755,0.000134729 -5.39797e-005,2.83871e-005 -0.000126933,4.28013e-005 -0.000218125,4.2213e-005l-0.00056436 0c0.000139582,-0.000111342 0.000262691,-0.000214742 0.000370062,-0.000311082 0.00010693,-9.57514e-005 0.000197092,-0.000188708 0.000269898,-0.000277694 7.29535e-005,-8.91327e-005 0.00012811,-0.000178707 0.000165322,-0.000268869 3.73592e-005,-9.01623e-005 5.61859e-005,-0.000184737 5.61859e-005,-0.00028446 -4.41251e-007,-0.000127963 -3.61826e-005,-0.000239746 -0.000106194,-0.000336086 -7.01589e-005,-9.69281e-005 -0.000170323,-0.000171941 -0.000300639,-0.00022592 -0.000129581,-5.39797e-005 -0.000284313,-8.13372e-005 -0.000464637,-8.23668e-005 -0.000153702,0 -0.000311229,2.1033e-005 -0.000473168,6.3393e-005 -0.000161351,4.23601e-005 -0.000326673,0.000106783 -0.000495378,0.000193709l0.000163704 0.000577745 6.6776e-005 -1.33846e-005c8.38377e-006,-0.000114137 3.50059e-005,-0.000210477 8.07489e-005,-0.000288872 4.50076e-005,-7.89839e-005 0.000105753,-0.000139141 0.000181942,-0.000180325 7.57481e-005,-4.11834e-005 0.000164145,-6.17751e-005 0.000264898,-6.17751e-005 7.39831e-005,0 0.000139141,1.72088e-005 0.000195915,5.00084e-005 5.61859e-005,3.3388e-005 0.000100752,8.13372e-005 0.000132522,0.000143112 3.22113e-005,6.23635e-005 4.83905e-005,0.000136935 4.89788e-005,0.000224303 0,0.00010237 -2.4563e-005,0.000214301 -7.35418e-005,0.000335645 -4.89788e-005,0.000121785 -0.000122962,0.000249895 -0.000222096,0.000384477 -9.89873e-005,0.000135317 -0.000222538,0.00027387 -0.000372269,0.000416394 -0.000149143,0.000142377 -0.000323878,0.000285489 -0.000524353,0.000429631z"/>
    <path id="_39045985612" class="fil1" d="M0.00749803 0.00631239c0.000122962,-5.88335e-007 0.000212536,7.28064e-005 0.000269898,0.000219302 5.67743e-005,0.00014576 8.45731e-005,0.000366679 8.39848e-005,0.000662318 1.17667e-006,0.000296521 -2.66221e-005,0.000518029 -8.29552e-005,0.000663936 -5.61859e-005,0.000145319 -0.000146937,0.000218125 -0.000270928,0.000217537 -0.000124727,5.88335e-007 -0.000215478,-7.22181e-005 -0.00027284,-0.000217537 -5.72155e-005,-0.000145907 -8.50143e-005,-0.000367415 -8.45731e-005,-0.000663936 -4.41251e-007,-0.000295638 2.77988e-005,-0.000516558 8.57498e-005,-0.000662318 5.83922e-005,-0.000146495 0.000148554,-0.00021989 0.000271663,-0.000219302zm0 -0.000280488c-0.000147525,4.41251e-007 -0.000283283,2.77988e-005 -0.000406392,8.23668e-005 -0.00012355,5.44209e-005 -0.000230921,0.000132375 -0.000321672,0.000234304 -9.07506e-005,0.000101782 -0.000161351,0.000223714 -0.000210918,0.000366679 -5.01555e-005,0.000142524 -7.57481e-005,0.000301669 -7.61893e-005,0.000478757 4.41251e-007,0.000175765 2.60338e-005,0.000335057 7.61893e-005,0.000476845 4.95672e-005,0.000141936 0.000120167,0.000263868 0.000210918,0.000365209 9.07506e-005,0.000101782 0.000198122,0.000179736 0.000321672,0.000234304 0.000123109,5.4568e-005 0.000258867,8.17785e-005 0.000406392,8.23668e-005 0.000148554,-5.88335e-007 0.000284313,-2.77988e-005 0.000407422,-8.23668e-005 0.00012355,-5.4568e-005 0.000229745,-0.000132522 0.000319907,-0.000234304 9.01623e-005,-0.000101341 0.000160321,-0.000223273 0.0002093,-0.000365209 4.95672e-005,-0.000141789 7.45714e-005,-0.00030108 7.51597e-005,-0.000476845 -5.88335e-007,-0.000175324 -2.55926e-005,-0.000334027 -7.45714e-005,-0.000475963 -4.89788e-005,-0.000142377 -0.000118549,-0.000264898 -0.000208123,-0.000366679 -9.01623e-005,-0.000102517 -0.000197092,-0.000180913 -0.000320054,-0.000236069 -0.00012355,-5.50093e-005 -0.000259897,-8.29552e-005 -0.00040904,-8.33964e-005z"/>
   </g>
   <g>
    <path id="_390458344" class="fil2" d="M0.00226479 0.00219008c-9.07506e-005,0.000649815 -0.000140906,0.000770424 -0.000179736,0.00108239 -3.88301e-005,0.000311817 -8.86914e-005,0.000404627 2.42688e-005,0.0005926 0.00011296,0.00018812 7.47185e-005,0.000171352 0.000233128,0.000271811 0.000158409,0.000100311 0.0002118,0.000132081 0.000453606,0.000184737 0.000180325,3.94184e-005 0.000972223,0.00014929 0.00163836,0.000165616 0.000534796,1.30904e-005 0.000991344,2.32392e-005 0.000993697,2.38275e-005 5.58918e-006,1.32375e-006 -1.42671e-005,-0.000873383 -1.42671e-005,-0.000873383 0,0 -0.00041757,-1.82384e-005 -0.00111431,0 -0.000696735,1.82384e-005 -0.00130919,4.89788e-005 -0.0014776,3.60355e-005 -0.000168411,-1.30904e-005 -0.000191944,-7.06001e-006 -0.000285048,-7.81014e-005 -9.31039e-005,-7.08943e-005 -9.07506e-005,-8.25139e-005 -0.000116637,-0.000186502 -2.58867e-005,-0.000103841 -5.14793e-006,-0.000501996 0,-0.000610691 5.14793e-006,-0.000108842 -7.79543e-006,-0.000131199 -3.75063e-005,-0.000286813 -5.88335e-005,-0.000160909 -0.000117961,-0.000321525 -0.000117961,-0.000321525z"/>
    <path id="_390455376" class="fil2" d="M0.00855615 0.00218919c9.07506e-005,0.000649668 0.000141053,0.000770277 0.000179883,0.00108224 3.88301e-005,0.000311817 8.86914e-005,0.000404627 -2.42688e-005,0.0005926 -0.000113107,0.00018812 -7.47185e-005,0.000171352 -0.000233275,0.000271811 -0.000158409,0.000100458 -0.0002118,0.000132081 -0.000453606,0.000184884 -0.000180325,3.92713e-005 -0.000972223,0.000149143 -0.00163822,0.000165469 -0.000534943,1.30904e-005 -0.000991491,2.32392e-005 -0.000993844,2.38275e-005 -5.58918e-006,1.32375e-006 1.44142e-005,-0.000873383 1.44142e-005,-0.000873383 0,0 0.000417423,-1.82384e-005 0.00111416,0 0.000696735,1.82384e-005 0.00130919,4.89788e-005 0.0014776,3.60355e-005 0.000168411,-1.30904e-005 0.000191944,-7.06001e-006 0.000285048,-7.81014e-005 9.31039e-005,-7.08943e-005 9.07506e-005,-8.25139e-005 0.000116637,-0.000186502 2.58867e-005,-0.000103841 5.29501e-006,-0.000501996 0,-0.000610691 -5.14793e-006,-0.000108842 7.79543e-006,-0.000131199 3.76534e-005,-0.000286813 5.86864e-005,-0.000160909 0.000117814,-0.000321378 0.000117814,-0.000321378z"/>
   </g>
  </g>
 </g>
</svg>
