<?xml version="1.0" encoding="UTF-8" standalone="no"?>
<svg
   xmlns:dc="http://purl.org/dc/elements/1.1/"
   xmlns:cc="http://creativecommons.org/ns#"
   xmlns:rdf="http://www.w3.org/1999/02/22-rdf-syntax-ns#"
   xmlns:svg="http://www.w3.org/2000/svg"
   xmlns="http://www.w3.org/2000/svg"
   xmlns:xlink="http://www.w3.org/1999/xlink"
   xmlns:sodipodi="http://sodipodi.sourceforge.net/DTD/sodipodi-0.dtd"
   xmlns:inkscape="http://www.inkscape.org/namespaces/inkscape"
   id="Layer_1"
   data-name="Layer 1"
   viewBox="0 0 36 36"
   version="1.1"
   sodipodi:docname="AFG.svg"
   inkscape:version="1.0.1 (c497b03c, 2020-09-10)">
  <metadata
     id="metadata172">
    <rdf:RDF>
      <cc:Work
         rdf:about="">
        <dc:format>image/svg+xml</dc:format>
        <dc:type
           rdf:resource="http://purl.org/dc/dcmitype/StillImage" />
        <dc:title />
      </cc:Work>
    </rdf:RDF>
  </metadata>
  <sodipodi:namedview
     pagecolor="#ffffff"
     bordercolor="#666666"
     borderopacity="1"
     objecttolerance="10"
     gridtolerance="10"
     guidetolerance="10"
     inkscape:pageopacity="0"
     inkscape:pageshadow="2"
     inkscape:window-width="1730"
     inkscape:window-height="1009"
     id="namedview170"
     showgrid="false"
     inkscape:zoom="8.6410484"
     inkscape:cx="-0.23271263"
     inkscape:cy="7.5016573"
     inkscape:window-x="0"
     inkscape:window-y="25"
     inkscape:window-maximized="0"
     inkscape:current-layer="Layer_1"
     inkscape:document-rotation="0"
     inkscape:snap-global="true"
     inkscape:snap-bbox="false" />
  <defs
     id="defs161">
    <style
       id="style159">.cls-1{fill:#d81e3e;}.cls-2{fill:#fff;}</style>
    <path
       id="SVGID_1_"
       d="m 52.827,47.577 c 0.936,0.35 1.66,0.973 2.177,1.884 0.513,0.905 0.768,2.041 0.768,3.408 0,1.31 -0.262,2.433 -0.786,3.368 -0.526,0.942 -1.242,1.581 -2.16,1.928 V 47.577 Z m -6.14,-5.309 V 79.07 h 5.684 V 62.954 c 1.099,0.779 1.984,2.133 2.653,4.061 0.898,2.558 1.466,6.578 1.702,12.055 h 5.73 c -0.363,-4.385 -0.792,-7.817 -1.305,-10.32 -0.504,-2.496 -1.191,-4.543 -2.047,-6.14 -0.412,-0.751 -1.059,-1.547 -1.94,-2.391 1.204,-0.918 2.096,-1.884 2.664,-2.888 0.806,-1.418 1.211,-3.033 1.211,-4.856 0,-3.221 -0.997,-5.721 -2.983,-7.513 -1.983,-1.79 -4.755,-2.694 -8.317,-2.694 z M 64.15,79.074 h 5.688 V 42.268 H 64.15 Z M 78.197,63.22 c 1.037,0.482 1.849,1.211 2.441,2.19 0.592,0.969 0.892,2.067 0.892,3.282 0,1.398 -0.317,2.527 -0.956,3.39 -0.636,0.867 -1.422,1.422 -2.377,1.677 z m 0,-15.643 c 0.656,0.119 1.248,0.544 1.761,1.266 0.704,1.017 1.054,2.322 1.054,3.914 0,2.664 -0.936,4.367 -2.816,5.116 V 47.577 Z M 72.52,42.268 V 79.07 h 4.312 c 2.259,0 4.187,-0.473 5.796,-1.415 1.609,-0.936 2.758,-2.027 3.445,-3.258 0.911,-1.66 1.367,-3.544 1.367,-5.666 0,-2.14 -0.475,-3.967 -1.417,-5.484 -0.656,-1.068 -1.673,-2.034 -3.045,-2.89 2.49,-1.928 3.738,-4.572 3.738,-7.942 0,-3.196 -0.955,-5.679 -2.864,-7.463 -1.904,-1.785 -4.486,-2.683 -7.738,-2.683 H 72.52 Z m 32.247,0 V 79.07 h 8.993 v -4.905 h -3.307 V 42.268 Z m 16.669,6.17 c 0.643,0.418 1.103,0.861 1.398,1.33 0.568,0.874 0.973,2.034 1.211,3.476 0.348,1.99 0.517,4.425 0.517,7.313 0,3.527 -0.156,6.058 -0.462,7.619 -0.313,1.561 -0.749,2.771 -1.316,3.65 -0.275,0.418 -0.724,0.83 -1.347,1.237 V 48.438 Z m -5.673,-6.17 V 79.07 h 2.633 c 2.067,0 3.819,-0.368 5.261,-1.085 1.068,-0.531 2.065,-1.367 2.996,-2.527 1.253,-1.565 2.208,-3.626 2.864,-6.177 0.654,-2.547 0.979,-5.455 0.979,-8.724 0,-3.188 -0.319,-5.941 -0.955,-8.248 -0.636,-2.309 -1.51,-4.231 -2.633,-5.754 -1.118,-1.528 -2.441,-2.626 -3.969,-3.289 -1.53,-0.66 -3.364,-0.997 -5.497,-0.997 h -1.679 z m 16.933,36.806 h 5.688 V 42.268 h -5.688 z M 15.542,47.04 c -1.928,3.37 -2.89,8.006 -2.89,13.921 0,3.346 0.332,6.265 0.993,8.761 0.667,2.496 1.541,4.475 2.633,5.928 1.092,1.449 2.367,2.465 3.833,3.051 1.048,0.438 2.496,0.656 4.33,0.656 1.411,0 2.527,-0.095 3.364,-0.293 V 60.713 h -7.826 v 4.786 h 2.248 v 8.717 c -0.806,-0.605 -1.429,-1.299 -1.86,-2.078 -0.568,-1.054 -1.01,-2.626 -1.341,-4.717 -0.326,-2.089 -0.489,-4.5 -0.489,-7.225 0,-4.394 0.469,-7.7 1.418,-9.928 0.949,-2.228 2.259,-3.346 3.949,-3.346 1.305,0 2.602,0.724 3.901,2.173 v -5.761 c -1.193,-0.572 -2.102,-0.936 -2.727,-1.103 -0.63,-0.163 -1.297,-0.251 -2.003,-0.251 -3.097,-10e-4 -5.604,1.685 -7.533,5.06 z M 36.433,57.961 36.82,48.07 h 0.473 l 0.594,12.105 0.429,7.476 H 35.839 Z M 34.106,41.973 29.332,79.07 h 5.635 l 0.562,-6.619 h 3.17 l 0.282,6.619 h 5.728 L 40.273,41.973 Z m 60.41,15.988 0.394,-9.891 h 0.466 l 0.594,12.105 0.429,7.476 H 93.922 Z M 92.189,41.973 87.414,79.07 h 5.635 l 0.561,-6.619 h 3.177 l 0.275,6.619 h 5.728 L 98.352,41.973 Z" />
  </defs>
  <circle
     class="cls-1"
     cx="18.03"
     cy="18.01"
     r="17.5"
     id="circle163"
     style="fill:#ff0000;fill-opacity:1" />
  <text
     xml:space="preserve"
     style="font-style:normal;font-weight:normal;font-size:40px;line-height:1.25;font-family:sans-serif;white-space:pre;inline-size:42.8504;fill:#000000;fill-opacity:1;stroke:none"
     x="11.363265"
     y="14.644898"
     id="text176"><tspan
       style="visibility:hidden"
       x="11.363265"
       y="14.644898"><tspan
         dx="0 27.34375 22.96875">AFG</tspan></tspan></text>
  <rect
     x="3.8228273"
     y="9.1183519"
     class="st0"
     width="28.820078"
     height="17.316763"
     id="rect2913"
     style="fill:#ca4d51;stroke-width:0.185538" />
  <g
     id="g2927"
     transform="matrix(0.1855374,0,0,0.1855374,2.4312961,2.0369464)">
    <rect
       x="143.71001"
       y="38.167"
       class="st1"
       width="6.7059999"
       height="93.333"
       id="rect2915" />
    <g
       id="g2925">
      <defs
         id="defs2918">
        <path
           id="path3547"
           d="m 52.827,47.577 c 0.936,0.35 1.66,0.973 2.177,1.884 0.513,0.905 0.768,2.041 0.768,3.408 0,1.31 -0.262,2.433 -0.786,3.368 -0.526,0.942 -1.242,1.581 -2.16,1.928 V 47.577 Z m -6.14,-5.309 V 79.07 h 5.684 V 62.954 c 1.099,0.779 1.984,2.133 2.653,4.061 0.898,2.558 1.466,6.578 1.702,12.055 h 5.73 c -0.363,-4.385 -0.792,-7.817 -1.305,-10.32 -0.504,-2.496 -1.191,-4.543 -2.047,-6.14 -0.412,-0.751 -1.059,-1.547 -1.94,-2.391 1.204,-0.918 2.096,-1.884 2.664,-2.888 0.806,-1.418 1.211,-3.033 1.211,-4.856 0,-3.221 -0.997,-5.721 -2.983,-7.513 -1.983,-1.79 -4.755,-2.694 -8.317,-2.694 z M 64.15,79.074 h 5.688 V 42.268 H 64.15 Z M 78.197,63.22 c 1.037,0.482 1.849,1.211 2.441,2.19 0.592,0.969 0.892,2.067 0.892,3.282 0,1.398 -0.317,2.527 -0.956,3.39 -0.636,0.867 -1.422,1.422 -2.377,1.677 z m 0,-15.643 c 0.656,0.119 1.248,0.544 1.761,1.266 0.704,1.017 1.054,2.322 1.054,3.914 0,2.664 -0.936,4.367 -2.816,5.116 V 47.577 Z M 72.52,42.268 V 79.07 h 4.312 c 2.259,0 4.187,-0.473 5.796,-1.415 1.609,-0.936 2.758,-2.027 3.445,-3.258 0.911,-1.66 1.367,-3.544 1.367,-5.666 0,-2.14 -0.475,-3.967 -1.417,-5.484 -0.656,-1.068 -1.673,-2.034 -3.045,-2.89 2.49,-1.928 3.738,-4.572 3.738,-7.942 0,-3.196 -0.955,-5.679 -2.864,-7.463 -1.904,-1.785 -4.486,-2.683 -7.738,-2.683 H 72.52 Z m 32.247,0 V 79.07 h 8.993 v -4.905 h -3.307 V 42.268 Z m 16.669,6.17 c 0.643,0.418 1.103,0.861 1.398,1.33 0.568,0.874 0.973,2.034 1.211,3.476 0.348,1.99 0.517,4.425 0.517,7.313 0,3.527 -0.156,6.058 -0.462,7.619 -0.313,1.561 -0.749,2.771 -1.316,3.65 -0.275,0.418 -0.724,0.83 -1.347,1.237 V 48.438 Z m -5.673,-6.17 V 79.07 h 2.633 c 2.067,0 3.819,-0.368 5.261,-1.085 1.068,-0.531 2.065,-1.367 2.996,-2.527 1.253,-1.565 2.208,-3.626 2.864,-6.177 0.654,-2.547 0.979,-5.455 0.979,-8.724 0,-3.188 -0.319,-5.941 -0.955,-8.248 -0.636,-2.309 -1.51,-4.231 -2.633,-5.754 -1.118,-1.528 -2.441,-2.626 -3.969,-3.289 -1.53,-0.66 -3.364,-0.997 -5.497,-0.997 h -1.679 z m 16.933,36.806 h 5.688 V 42.268 h -5.688 z M 15.542,47.04 c -1.928,3.37 -2.89,8.006 -2.89,13.921 0,3.346 0.332,6.265 0.993,8.761 0.667,2.496 1.541,4.475 2.633,5.928 1.092,1.449 2.367,2.465 3.833,3.051 1.048,0.438 2.496,0.656 4.33,0.656 1.411,0 2.527,-0.095 3.364,-0.293 V 60.713 h -7.826 v 4.786 h 2.248 v 8.717 c -0.806,-0.605 -1.429,-1.299 -1.86,-2.078 -0.568,-1.054 -1.01,-2.626 -1.341,-4.717 -0.326,-2.089 -0.489,-4.5 -0.489,-7.225 0,-4.394 0.469,-7.7 1.418,-9.928 0.949,-2.228 2.259,-3.346 3.949,-3.346 1.305,0 2.602,0.724 3.901,2.173 v -5.761 c -1.193,-0.572 -2.102,-0.936 -2.727,-1.103 -0.63,-0.163 -1.297,-0.251 -2.003,-0.251 -3.097,-10e-4 -5.604,1.685 -7.533,5.06 z M 36.433,57.961 36.82,48.07 h 0.473 l 0.594,12.105 0.429,7.476 H 35.839 Z M 34.106,41.973 29.332,79.07 h 5.635 l 0.562,-6.619 h 3.17 l 0.282,6.619 h 5.728 L 40.273,41.973 Z m 60.41,15.988 0.394,-9.891 h 0.466 l 0.594,12.105 0.429,7.476 H 93.922 Z M 92.189,41.973 87.414,79.07 h 5.635 l 0.561,-6.619 h 3.177 l 0.275,6.619 h 5.728 L 98.352,41.973 Z" />
      </defs>
      <use
         xlink:href="#SVGID_1_"
         style="overflow:visible;fill:#412714"
         id="use2920"
         x="0"
         y="0"
         width="100%"
         height="100%" />
      <clipPath
         id="SVGID_2_">
        <use
           xlink:href="#SVGID_1_"
           style="overflow:visible"
           id="use2922"
           x="0"
           y="0"
           width="100%"
           height="100%" />
      </clipPath>
    </g>
  </g>
  <rect
     x="30.339834"
     y="9.1163111"
     class="st2"
     width="1.2442138"
     height="17.320101"
     id="rect2929"
     style="fill:#ffffff;stroke-width:0.185538" />
</svg>
