<svg xmlns="http://www.w3.org/2000/svg" xmlns:xlink="http://www.w3.org/1999/xlink" viewBox="0 0 36 36"><defs><path id="A" d="M60.4 48.4C40.5 52.3 26 66 25.8 80.4l78.6-15.5c-4.7-10.7-17.9-17.5-33.5-17.5-3.4 0-6.9.3-10.5 1z"/><path id="B" d="M63 108.4c4.8 10.6 18.1 17.3 33.9 17.3 3.6 0 7.3-.3 11.1-1.1 20.4-4 35.3-17.8 35.7-32.1z"/><path id="C" d="M18.3 94.2l3.7 5.3-5.3 1zm-3.5-3.6l.1.4c.5.1.8.3.8.7 0 .2 0 .6-.1 1l-3.7 13.6c-.1.5-.3.8-.4 1s-.4.3-.7.5l.1.4 5.4-1-.1-.4c-.6 0-.9-.2-.9-.6 0-.2 0-.4.1-.8l.7-2.5 7.4-1.4 1.6 2.1c.2.3.3.5.4.7.1.4-.1.7-.7.9l.1.4 6-1.1-.1-.4c-.3 0-.6-.1-.9-.2-.2-.2-.5-.5-.9-1l-8.6-11.3c-.2-.3-.3-.5-.4-.7-.1-.3.1-.6.6-.8l-.1-.4zm19.1 1.9l4.8-.9c.5-.1.9-.1 1.2-.1s.5 0 .7.1c.4.2.6.5.7 1.1s0 1.1-.5 1.4c-.3.2-.8.4-1.6.6l-4.8.9zm7-3.7c-.6 0-1.5.1-2.6.3l-8.8 1.7.1.3c.3 0 .5.1.7.2.1.1.2.3.3.5l2.1 10.9c0 .2 0 .4-.1.6s-.3.3-.5.4l.1.3 4.7-.9-.1-.3c-.3 0-.5-.1-.7-.2-.1-.1-.2-.3-.3-.5l-.8-4.2 3.2-.6 3.4 3.3c.3.3.5.6.5.7 0 .2-.1.5-.5.7l.1.3 5.6-1.1-.1-.3a1.69 1.69 0 0 1-1-.3c-.3-.2-.8-.6-1.4-1.1l-3.2-3c1.3-.5 2.2-1.1 2.6-1.9.5-.7.6-1.6.4-2.7-.3-1.4-.9-2.3-2-2.8-.5-.2-1.1-.3-1.7-.3zm12.7-2.9c-3 .6-5 1.9-6.1 4.1-.7 1.4-.9 2.8-.6 4.4.2 1.1.7 2.1 1.3 3 .6.8 1.4 1.4 2.3 1.9 1 .5 2.2.8 3.5.8.7 0 1.4-.1 2.2-.2 1.1-.2 2-.5 2.8-.9s1.7-1 2.6-1.9c.4-.4.7-.6.9-.6h.1l.4.1.2-.3-2.6-2.5-.1.2.1.3c.1.3-.3.8-1.1 1.4-1 .8-2.1 1.3-3.2 1.5-.5.1-.9.1-1.4.1a5.42 5.42 0 0 1-2.5-.6c-1.2-.6-2-1.6-2.2-3-.3-1.3.1-2.5 1-3.6.8-.9 1.9-1.5 3.4-1.8.4-.1.9-.1 1.3-.1.6 0 1.3.1 1.9.2 1.2.3 1.8.6 1.9 1v.4l.3.2 1.5-3.3-.3-.2c-.2.2-.3.3-.4.3h-.1c-.2 0-.5-.1-1-.3-1.2-.4-2.3-.7-3.2-.8h-.8c-.6 0-1.3.1-2.1.2zm19.8-3.4l.1.3c.3 0 .5.1.7.2.1.1.2.3.3.5l.7 3.9-7.5 1.4-.9-3.8c0-.2 0-.4.1-.6s.3-.3.5-.4l-.1-.3-4.7.9.1.3c.3 0 .5.1.7.2.1.1.2.3.3.5l2.1 10.9c0 .2 0 .4-.1.6s-.3.3-.5.4l.1.3 4.7-.9-.1-.3c-.3 0-.5-.1-.7-.2-.1-.1-.2-.3-.3-.5l-.9-4.6 7.5-1.4.9 4.6c0 .2 0 .4-.1.6s-.3.3-.5.4l.1.3 4.7-.9-.1-.3c-.3 0-.5-.1-.7-.2-.1-.1-.2-.3-.3-.5L77.6 83c0-.2 0-.4.1-.6.1-.1.3-.3.5-.4l-.1-.3zm7.1-1.4l.1.3c.3 0 .5.1.7.2.1.1.2.3.3.5L83.7 93c0 .2 0 .4-.1.6s-.3.3-.5.4l.1.3 4.7-.9-.1-.3c-.3 0-.5-.1-.7-.2-.1-.1-.2-.3-.3-.5l-2.1-10.9c0-.2 0-.4.1-.6.1-.1.3-.3.5-.4l-.1-.3zm19.3-3.6l.1.3c.4 0 .6.2.7.5s-.1.7-.3 1.4L98 86.3l-4.5-5.4c-.4-.4-.6-.8-.6-1.1-.1-.3.1-.6.4-.8l-.1-.3-5.7 1.1.1.3c.3 0 .5.1.7.2.1.1.2.3.3.5l2.1 10.9c0 .2 0 .4-.1.6s-.3.3-.5.4l.1.3 4.5-.8-.1-.3c-.3 0-.5-.1-.7-.2-.1-.1-.2-.3-.3-.5l-1.4-7.5 6.6 7.8 3.5-9.7 1.4 7.5c0 .2 0 .4-.1.6s-.3.3-.5.4l.1.3 4.7-.9-.1-.3c-.3 0-.5-.1-.7-.2-.1-.1-.2-.3-.3-.5l-2.1-10.9c0-.2 0-.4.1-.6s.3-.3.5-.4l-.1-.3zm20.8-4.8c0 .3-.1.5-.2.7-.1.1-.3.2-.6.3L107.7 76l.1.3c.3 0 .5.1.7.2.1.1.2.3.3.5l2.1 10.9c0 .2 0 .4-.1.6s-.3.3-.5.4l.1.3 12.5-2.4h.2c.1 0 .3 0 .4.1.2.1.3.3.4.5l.3-.1-.7-3.9-.3.1c0 .3-.1.5-.2.7-.1.1-.3.2-.5.3l-8.5 1.6-.6-3.2 5.1-1h.3c.1 0 .3 0 .4.1.2.1.3.3.4.5l.3-.1-.7-3.8-.3.1c0 .3-.1.5-.2.7-.1.1-.3.2-.5.3l-5.1 1-.6-2.9 8.1-1.5h.3l.3.1c.2.1.3.3.4.5l.3-.1-.7-3.9zm7.3 1.9l3.4-.7c.6-.1 1.1-.2 1.6-.2h.5c.6.1 1.1.3 1.5.6.9.6 1.5 1.6 1.7 3 .3 1.4.1 2.5-.5 3.4-.6.8-1.6 1.4-3.2 1.7l-3.4.7zm3.4-3.1l-7.9 1.5.1.3c.3 0 .5.1.7.2.1.1.2.3.3.5l2.1 10.9c0 .2 0 .4-.1.6s-.3.3-.5.4l.1.3 7.9-1.5c1.2-.2 2.3-.6 3.1-.9.8-.4 1.4-.9 2-1.5 1.1-1.4 1.5-3.3 1.1-5.5-.2-1.2-.6-2.3-1.2-3.1-.8-1.2-2-2-3.4-2.3-.4-.1-.9-.1-1.4-.1-1.1-.1-1.9 0-2.9.2zm22.3-5c0 .3-.1.5-.2.7-.1.1-.3.2-.6.3l-12.1 2.3.1.3c.3 0 .5.1.7.2.1.1.2.3.3.5l2.1 10.9c0 .2 0 .4-.1.6s-.3.3-.5.4l.1.3 12.5-2.4h.2c.1 0 .3 0 .4.1.2.1.3.3.4.5l.3-.1-.7-3.9-.3.1c0 .3-.1.5-.2.7-.1.1-.3.2-.5.3l-8.5 1.6-.6-3.2 5.1-1h.3c.1 0 .3 0 .4.1.2.1.3.3.4.5l.3-.1-.7-3.8-.3.1c0 .3-.1.5-.2.7-.1.1-.3.2-.5.3l-5.1 1-.6-2.9 8.1-1.5h.3l.3.1c.2.1.3.3.4.5l.3-.1-.7-3.9z"/><path id="D" d="M10.3 66h147.3v42.5H10.3z"/><path id="E" d="M7.8 84.7l153.4-30.2v33.9L7.8 118.6zm154.1 4.9l.6-.1V53L6.5 83.7v36.4l136.8-27z"/><clipPath id="F"><use xlink:href="#C"/></clipPath></defs><circle cx="18.03" cy="18.01" r="17.5" fill="#b5bfb7"/><g transform="matrix(.20122 0 0 .20122 1.006 .725)"><g clip-path="url(#F)"><use fill="#412714" xlink:href="#D"/></g><use fill="#412714" xlink:href="#E"/></g><g stroke-miterlimit="10" transform="matrix(.20122 0 0 .20122 1.006 .725)" stroke="#412714"><use fill="#328059" xlink:href="#A"/><use fill="#cb4e52" xlink:href="#B"/></g></svg>