<svg xmlns="http://www.w3.org/2000/svg" viewBox="0 0 36 36"><circle cx="18.03" cy="18.01" r="17.5" fill="#f9d231"/><path d="M18.472 25.79c-.066.005-.111.015-.133.034s-.034.059-.033.12l.017.63c.217-.012.37-.055.464-.126.085-.066.127-.166.123-.3s-.04-.225-.11-.28c-.064-.05-.163-.078-.297-.078h-.03zm3.742-.065l-.142.655.319-.046.253-.052-.383-.565-.028-.017zm-1.978-.037c-.066.006-.11.02-.132.04s-.028.062-.022.122l.063.628c.214-.029.365-.082.453-.16.08-.072.114-.174.101-.307s-.056-.222-.13-.272a.417.417 0 0 0-.235-.057zm-8.73-.643l-.299 1.207c-.02.086-.012.148.026.188s.124.077.26.11c.102.025.197.038.284.038.344 0 .564-.199.663-.595.124-.503-.072-.82-.59-.947L11.668 25l-.065-.005c-.057 0-.09.016-.097.05zm16.518-1.42a.58.58 0 0 0-.335.373.793.793 0 0 0 .054.563c.108.24.255.401.443.484a.65.65 0 0 0 .26.053.833.833 0 0 0 .332-.075.575.575 0 0 0 .334-.375c.052-.174.032-.363-.059-.569-.105-.238-.254-.396-.445-.477a.667.667 0 0 0-.26-.052.794.794 0 0 0-.324.074zm-8.001-5.236c-.212.113-.32.232-.32.358v1.233c0 .59.328.886.981.886.34 0 .615-.109.824-.328s.312-.52.312-.904c0-.42-.116-.764-.35-1.035a1.028 1.028 0 0 0-.804-.381 1.34 1.34 0 0 0-.643.17zm8.492.061a1.205 1.205 0 0 0-.309.834c0 .529.12.94.36 1.233a1.06 1.06 0 0 0 .863.405c.338 0 .605-.112.801-.335s.294-.514.294-.87c0-.481-.116-.872-.35-1.172a1.05 1.05 0 0 0-.864-.437 1.02 1.02 0 0 0-.795.342zm-4.433.808v.11l1.251-.377c.204-.058.303-.165.303-.318a.588.588 0 0 0-.204-.444.713.713 0 0 0-.504-.19c-.563 0-.846.406-.846 1.219zM5.86 12.037l.113.756.32-.18.25-.156-.638-.448L5.869 12zm19.685-1.953l-.481 1.34c-.034.094-.031.166.007.216s.133.102.283.156.29.08.415.08c.34 0 .583-.201.727-.604.2-.558.014-.94-.559-1.145l-.203-.072-.101-.017c-.048 0-.078.017-.088.046zm-3.515-.73c-.163.128-.27.315-.316.562-.057.296-.024.545.1.743s.31.316.57.366l.145.014a.64.64 0 0 0 .412-.149c.163-.129.267-.32.316-.57.056-.293.02-.54-.108-.74-.122-.192-.309-.311-.562-.36l-.144-.014a.648.648 0 0 0-.413.147zm-2.085-.449c-.029.019-.046.062-.053.131l-.068.719.128.005c.182 0 .32-.03.416-.084.106-.063.167-.17.181-.324s-.014-.261-.085-.332-.192-.116-.362-.136h-.059a.186.186 0 0 0-.098.02zM18.09 25.717l.19-.01.28-.012h.039a.74.74 0 0 1 .389.09c.118.072.18.18.183.323.007.249-.132.416-.416.503.096.205.21.38.337.526s.246.228.347.241l.046.051-.052.033h-.015c-.316 0-.621-.266-.917-.8l-.176.014.017.563c.001.042.011.07.032.082a.397.397 0 0 0 .139.034c.05.007.074.023.075.05l-.012.041-.066.007h-.06c-.145 0-.302.008-.469.028h-.012c-.03 0-.046-.017-.047-.047-.001-.024.018-.038.056-.042.088-.012.13-.06.128-.148l-.035-1.283c-.003-.085-.054-.136-.154-.153-.049-.009-.074-.024-.075-.046l.049-.05.032.002.101.004zm-1.949 1.656c.002-.024.021-.036.06-.038.053-.004.088-.012.104-.026s.03-.054.032-.112l.054-1.234c.003-.083-.002-.135-.016-.159s-.056-.045-.123-.07l-.037-.067.022-.03h.008l.063.01c.057.013.206.024.446.035l.49.011h.146c.048 0 .072.004.072.014l-.003.014a1.33 1.33 0 0 0-.037.3l-.04.04-.052-.038-.06-.131a.196.196 0 0 0-.12-.069 4.013 4.013 0 0 0-.453-.03l-.057.01-.008.041-.024.56.037.035.101.001.254-.002.06-.038.037-.11c.006-.028.02-.043.041-.043l.022.005.038.043a1.97 1.97 0 0 0-.045.473l-.045.038-.045-.047a.381.381 0 0 0-.028-.137c-.014-.023-.04-.037-.077-.043l-.332-.028-.025.017-.024.584c-.005.084.041.136.137.16l.25.017.04.001c.2 0 .329-.072.388-.216l.067-.034.031.051c-.03.106-.05.213-.063.32-.002.014-.019.02-.05.02h-.033l-.533-.035-.543-.014-.072.001c-.038 0-.057-.017-.055-.05zm3.71-1.733l.187-.023.28-.032.123-.006a.67.67 0 0 1 .308.064.365.365 0 0 1 .207.31c.024.246-.101.423-.379.531.113.197.237.363.374.498s.263.211.365.217l.048.049-.048.036-.056.002c-.302 0-.612-.244-.93-.733l-.175.025.056.561c.004.042.017.068.04.081s.067.019.138.022c.05.004.077.019.08.046l-.009.041-.066.013c-.162.008-.338.03-.526.066h-.017c-.027 0-.042-.015-.045-.044-.003-.023.016-.039.053-.045.087-.018.126-.07.117-.157l-.127-1.278c-.01-.085-.064-.131-.165-.142-.05-.004-.076-.017-.078-.04l.045-.053.032-.001.022.001zm-5.703.217c.043-.091.075-.226.095-.4.002-.014.015-.02.04-.02l.044.004.635.094.84.074h.027c.045 0 .069.01.07.034.011.12.007.259-.014.414l-.01.032-.029.009-.061-.045c-.024-.122-.06-.206-.108-.252-.066-.062-.19-.105-.372-.126l-.068-.005c-.032 0-.051.005-.057.015l-.007.022-.156 1.328c-.006.057.002.098.026.124a.416.416 0 0 0 .15.08l.056.022.009.052-.034.03-.054-.01a2.912 2.912 0 0 0-.575-.07h-.006l-.07-.01-.014-.034c-.004-.029.014-.046.053-.052a.345.345 0 0 0 .164-.052c.033-.028.054-.076.062-.145l.152-1.29-.043-.052-.077-.01-.136-.008a.509.509 0 0 0-.249.052.56.56 0 0 0-.189.22l-.066.03zM21.6 27.19c-.007-.022.017-.051.073-.088s.104-.113.131-.22l.201-.792.134-.735c0-.028.031-.06.089-.097h.007c.014 0 .036.023.064.068l.903 1.353c.053.076.126.12.221.13.043.005.064.017.063.04l-.01.045-.037.003c-.131 0-.315.03-.553.092l-.043.007c-.019 0-.031-.007-.037-.02l.034-.064c.088-.057.129-.1.123-.134l-.027-.054-.23-.347-.328.064-.335.05-.073.34-.003.086c.01.05.042.081.1.094.09.02.134.04.136.06.004.03-.022.046-.077.05-.168.012-.32.044-.456.098zm-8.07-.094a4.645 4.645 0 0 0-.538-.097l-.054-.03v-.027c.007-.018.029-.027.07-.03l.134-.012c.031-.013.052-.046.061-.1l.234-1.295c.012-.073-.03-.127-.125-.162-.04-.014-.058-.031-.054-.05l.017-.045h.048c.168.054.346.084.534.096l.061.006.012.051c-.003.022-.03.036-.08.041-.113.013-.173.045-.182.096l-.231 1.284c-.015.082.024.142.12.178.046.017.067.038.062.063l-.02.04zm-2.578-.793l.309-1.247c.011-.047.01-.082-.005-.103l-.094-.061-.075-.043-.007-.043.038-.034.058.01.746.166c.3.073.523.205.669.394a.758.758 0 0 1 .131.683c-.074.302-.23.507-.47.614a1.03 1.03 0 0 1-.411.079 1.77 1.77 0 0 1-.42-.056l-.187-.054-.225-.064-.24-.049c-.038-.006-.053-.026-.045-.06.005-.016.02-.026.046-.026l.02.001.033.003c.068 0 .111-.036.129-.11zm13.8-1.543c-.01-.036.004-.057.042-.063.147-.022.303-.068.473-.134l.058-.017.034.038c.006.021-.013.047-.056.072-.095.058-.13.131-.106.222l.253.93.136.473c.014.045.011.073-.011.086l-.035.01c-.026 0-.052-.014-.08-.043-.065-.071-.29-.227-.672-.468l-.92-.558h-.025l-.006.033.288 1.061a.19.19 0 0 0 .2.158l.027-.001.018-.001c.04 0 .062.011.067.032.009.033-.014.054-.067.067a4.11 4.11 0 0 0-.48.13l-.067-.03.045-.055c.062-.033.1-.067.116-.1s.014-.08-.003-.144l-.311-1.146a.199.199 0 0 0-.063-.107.35.35 0 0 0-.136-.043c-.048-.008-.073-.023-.077-.044s.013-.038.05-.043a1.22 1.22 0 0 0 .295-.07l.045-.008a.15.15 0 0 1 .081.026l1.4.862.035.016.001-.037-.254-.936c-.026-.1-.092-.15-.192-.15l-.033.003-.022.001c-.028 0-.044-.007-.047-.022zM9.193 25.865c.023-.011.044-.043.062-.098l.387-1.173c.026-.08.035-.132.027-.157s-.04-.06-.1-.101l-.017-.076.03-.02.065.029.421.152.596.18.06.021.017.017-.005.013c-.046.076-.085.17-.118.278l-.05.027-.038-.05-.023-.142a.192.192 0 0 0-.098-.1l-.425-.153-.059-.004-.02.036-.175.533.027.044.342.094.068-.019.064-.095.073-.02.024.051a1.96 1.96 0 0 0-.172.444l-.054.023-.03-.057a.373.373 0 0 0 .009-.14l-.061-.062-.312-.117-.029.01-.183.556c-.027.08.003.142.089.19l.236.086a.644.644 0 0 0 .202.036.32.32 0 0 0 .268-.128l.074-.013.015.057-.147.291-.022.01-.063-.016-.504-.177-.587-.18c-.037-.01-.05-.031-.04-.063.005-.016.018-.023.04-.023l.028.003.07.009zm16.432-1.386l.011-.034.068-.019.428-.138.579-.224.074-.023.012.006.002.013a1.3 1.3 0 0 0 .08.292l-.024.053-.062-.017-.104-.097a.17.17 0 0 0-.092-.024l-.046.004-.43.141-.05.033.009.04.188.529.047.018.329-.136.041-.057-.007-.114c-.005-.039.01-.06.045-.06l.05.025c.018.123.063.275.137.456l-.029.051-.059-.025-.077-.117-.052-.016-.036.005-.317.099-.017.025.196.551c.024.066.073.1.144.1l.044-.004.238-.078c.21-.074.315-.195.315-.36 0-.038.016-.057.046-.057l.053.036c.011.11.032.215.061.32.005.016-.019.032-.07.047l-.507.17-.574.219-.07-.026.04-.057c.05-.023.078-.045.088-.063.011-.024.007-.062-.012-.116l-.414-1.163c-.028-.079-.054-.125-.075-.141s-.054-.019-.108-.019h-.033c-.04 0-.058-.016-.06-.048zm2.42.736a.859.859 0 0 1-.528-.494.871.871 0 0 1-.008-.72.967.967 0 0 1 .522-.52 1.04 1.04 0 0 1 .428-.097.91.91 0 0 1 .303.052c.24.083.413.247.522.49a.865.865 0 0 1 .005.718c-.1.238-.27.41-.511.518a1.09 1.09 0 0 1-.44.1.924.924 0 0 1-.292-.047zm-21.409-.43c.026-.016.052-.054.08-.114l.507-1.074c.021-.047.028-.088.018-.121a.332.332 0 0 0-.079-.119l-.031-.086h.065c.118.072.226.123.326.15l.073.035.016.058.014 1.401.007.032.036-.024 1.038-.91c.028-.024.053-.036.078-.036l.026.006a2.25 2.25 0 0 0 .336.103l.062.02v.054c-.008.017-.028.025-.062.025l-.026-.001-.064-.004c-.078 0-.123.018-.137.055l-.464 1.22c-.019.049-.02.088-.007.117s.038.052.083.081.059.055.048.078l-.029.033-.068-.024-.5-.211c-.038-.014-.05-.036-.036-.067.004-.012.016-.018.037-.018l.033.004.131.017.02-.002c.023-.006.044-.034.064-.083l.404-1.072-.004-.04-.032.012-.576.498-.493.456-.073.078-.049.015-.023-.006c-.015-.007-.02-.037-.013-.091.027-.208.023-.697-.01-1.465l-.017-.042-.038.03-.454.96c-.052.106-.025.193.08.262.042.028.059.054.048.077l-.029.033-.067-.022a4.593 4.593 0 0 0-.44-.187c-.038-.014-.051-.036-.037-.068.005-.011.017-.017.037-.017l.034.003.076.01zm21.245-3.928c-.327-.318-.492-.74-.492-1.264a1.77 1.77 0 0 1 .62-1.37c.402-.36.882-.538 1.44-.538.598 0 1.063.161 1.398.483.326.312.488.735.488 1.268s-.199.986-.594 1.355-.886.553-1.471.553-1.049-.162-1.39-.487zm-17.218.465c-.03-.021-.047-.071-.047-.148 0-.07.082-.129.244-.174.179-.052.267-.222.267-.51v-1.206c0-.241-.025-.411-.073-.51-.068-.135-.208-.237-.42-.308-.094-.034-.142-.084-.142-.152 0-.088.07-.154.208-.198.257-.08.485-.185.684-.317.16-.11.258-.165.294-.165.123 0 .183.08.18.239l-.019 2.456c0 .198.03.34.087.427.066.095.188.162.368.202.2.046.29.118.272.216-.015.09-.052.139-.11.152l-.022.001-.199-.01a8.193 8.193 0 0 0-1.348.018l-.112.007c-.055 0-.093-.006-.112-.02zm5.433 0c-.03-.021-.045-.071-.045-.148 0-.07.081-.129.244-.174.177-.052.265-.222.265-.51v-1.206c0-.241-.024-.411-.073-.51-.067-.135-.206-.237-.417-.308-.096-.034-.143-.084-.143-.152 0-.088.068-.154.206-.198a2.66 2.66 0 0 0 .685-.317c.16-.11.257-.165.295-.165.122 0 .182.08.179.239l-.02 2.456c0 .198.03.34.09.427.063.095.186.162.367.202.199.046.29.118.27.216-.015.09-.052.139-.11.152l-.022.001-.198-.01a8.193 8.193 0 0 0-1.348.018l-.113.007c-.055 0-.092-.006-.112-.02zm7.684-.441c-.337-.322-.505-.752-.505-1.288 0-.607.188-1.094.566-1.463a1.785 1.785 0 0 1 1.296-.515c.303 0 .587.098.85.29.236.172.393.368.47.589.028.077.068.12.124.129.079.015.12.068.12.161 0 .125-.151.232-.452.322l-2.12.63c.139.73.513 1.094 1.123 1.094.352 0 .753-.128 1.205-.386a.39.39 0 0 1 .197-.06c.05 0 .074.044.074.133 0 .132-.178.296-.534.492a2.607 2.607 0 0 1-1.246.327c-.462 0-.852-.152-1.168-.455zm-12.585-4.466a.44.44 0 0 1-.138-.336.54.54 0 0 1 .169-.377.5.5 0 0 1 .36-.174c.313 0 .47.148.47.441a.587.587 0 0 1-.158.394c-.107.12-.222.182-.348.182a.5.5 0 0 1-.355-.13zm5.435 0a.44.44 0 0 1-.138-.336c0-.134.056-.26.168-.377a.498.498 0 0 1 .36-.174c.313 0 .47.148.47.441a.587.587 0 0 1-.16.394c-.105.12-.22.182-.346.182a.498.498 0 0 1-.354-.13zm-9.498-1.208l.168-.012h.02c.061.012.097.052.106.126.009.083-.01.14-.06.17l-.188.056c-.214.048-.35.104-.405.168s-.082.195-.082.397v4.115c0 .258.086.434.258.527s.489.14.946.14c.436 0 .757-.055.967-.168s.382-.322.513-.632c.037-.092.089-.139.156-.139l.07.016c.098.024.134.08.11.17-.105.391-.157.76-.157 1.103 0 .05-.073.075-.22.075l-.073-.001a35.35 35.35 0 0 0-1.798-.037l-2.033.049h-.056c-.056 0-.092-.008-.11-.025s-.03-.066-.03-.139c0-.08.064-.126.196-.138.301-.031.45-.191.45-.483V16.3c0-.214-.029-.374-.086-.477-.071-.123-.206-.218-.404-.285-.121-.043-.173-.113-.157-.207.01-.068.029-.108.06-.12l.07-.008.168.012c.212.023.441.035.689.035l.912-.043zm6.173 6.12c-.03-.02-.045-.07-.045-.153 0-.073.084-.134.251-.186s.25-.202.25-.452v-4.162c0-.248-.035-.43-.107-.548s-.199-.206-.38-.27c-.095-.034-.141-.081-.141-.143 0-.092.068-.161.207-.206a2.9 2.9 0 0 0 .647-.314c.185-.11.3-.165.35-.165.113 0 .17.078.17.234l-.018.46-.01.896.02 4.107c0 .187.045.323.137.406s.25.14.474.169c.138.015.206.067.206.156 0 .11-.054.164-.163.164l-.043-.002a6.132 6.132 0 0 0-.607-.027l-.966.044-.128.007c-.052 0-.087-.004-.104-.016zm6.185-.139c-.332-.1-.498-.193-.501-.275l.004-.74.014-1.132-.019-2.892c0-.22-.033-.372-.1-.455-.062-.074-.195-.132-.4-.175-.08-.028-.12-.078-.12-.152 0-.064.06-.118.18-.16a4.4 4.4 0 0 0 .638-.309c.203-.114.329-.17.377-.17.095 0 .143.078.143.235l-.014.478-.004.878.009 1.591c0 .106.025.158.077.158l.08-.03c.368-.21.75-.317 1.149-.317.46 0 .834.139 1.122.416s.432.64.432 1.088a2.04 2.04 0 0 1-.634 1.526 1.997 1.997 0 0 1-1.445.593c-.315 0-.646-.051-.988-.156zm9.27-7.917l.804-1.166a.356.356 0 0 0 .066-.148.238.238 0 0 0-.057-.154l-.004-.086.039-.023.064.047a2.76 2.76 0 0 0 .442.3l.053.033.005.054-.049.035-.061-.02-.125-.032-.018.002c-.027.006-.06.038-.099.093l-.777 1.13c-.048.07-.059.135-.028.194s.107.13.233.217c.12.082.218.128.297.138l.031.001c.07 0 .147-.026.23-.079l.085.01-.002.067a1.421 1.421 0 0 0-.25.274l-.016.007-.08-.043-.486-.35-.567-.372-.042-.036.018-.045.03-.017.05.016a.2.2 0 0 0 .093.027c.047 0 .088-.025.122-.074zm-22.96.583c-.018-.024-.004-.066.04-.128.049-.065.066-.162.05-.286l-.106-.93a6.687 6.687 0 0 0-.155-.838c-.01-.03.01-.077.058-.139l.013-.004c.017 0 .047.015.089.047l1.514 1.078a.34.34 0 0 0 .193.062l.096-.012.042-.007c.023 0 .035.008.041.024l.008.052-.038.02c-.14.052-.324.159-.554.321l-.066.03L7 13.132l.009-.082c.07-.095.096-.16.076-.193l-.048-.047-.388-.278-.325.203-.338.19.062.392.031.094c.024.04.063.061.114.061l.031-.002.106-.01c.037 0 .058.007.063.018.016.03-.005.058-.062.085a1.739 1.739 0 0 0-.448.291h-.085zm21.206-1.397c.029-.01.058-.043.088-.101l.64-1.258c.042-.085.062-.142.058-.172s-.035-.074-.095-.131l-.006-.088.036-.018.07.042c.053.04.202.12.448.246l.64.306c.062.026.09.046.083.058l-.009.011c-.065.08-.124.178-.181.295l-.06.024-.035-.066a.593.593 0 0 0-.001-.163.218.218 0 0 0-.093-.129 4.331 4.331 0 0 0-.455-.247l-.065-.015-.028.037-.29.572.022.054.37.165.08-.01.09-.095.085-.011.018.063c-.09.11-.179.268-.27.471l-.065.017-.026-.069a.446.446 0 0 0 .036-.157l-.059-.08-.332-.187-.035.007-.303.596c-.043.084-.02.161.068.23l.252.137a.652.652 0 0 0 .29.08.36.36 0 0 0 .256-.101l.086-.003.01.068a2.278 2.278 0 0 0-.22.302l-.017.009-.076-.03-.539-.288-.632-.304c-.04-.018-.05-.045-.034-.078.007-.014.019-.021.036-.021l.043.01.102.025zM7.16 10.827v-.044l.078-.03c.143-.044.306-.116.488-.215l.056-.026.05.023.003.06-.05.042c-.059.043-.093.078-.102.104s.001.071.027.134l.544 1.258c.034.08.084.122.149.128l.018.001a.813.813 0 0 0 .29-.084.705.705 0 0 0 .273-.178.405.405 0 0 0 .075-.261c-.002-.045.015-.067.052-.068l.057.038c.02.133.05.253.097.358.007.018-.02.039-.081.062l-.555.226-.615.282-.054.016-.029-.039c-.01-.024.005-.047.043-.068.088-.049.113-.119.074-.207l-.56-1.299a.346.346 0 0 0-.091-.135.21.21 0 0 0-.128-.035l-.033.001h-.01c-.036 0-.058-.014-.066-.043zm17.61.624l.496-1.382c.018-.052.02-.091.006-.117l-.1-.081-.08-.057-.004-.05.046-.034.066.018.83.274c.331.12.57.294.714.527.15.24.173.505.07.791-.12.335-.322.55-.605.643a1.07 1.07 0 0 1-.335.05c-.186 0-.39-.04-.613-.12l-.206-.083-.249-.099-.267-.083c-.042-.01-.057-.035-.043-.072.006-.018.021-.027.043-.027l.034.006.057.007c.067 0 .113-.036.14-.111zm-14.254-.043a.965.965 0 0 1-.507-.637 1.01 1.01 0 0 1 .124-.834 1.12 1.12 0 0 1 .678-.49 1.82 1.82 0 0 1 .462-.07h.086c.139.016.215.04.23.076a2.9 2.9 0 0 1 .115.363c.007.026-.014.05-.062.068l-.036.008a.048.048 0 0 1-.045-.025c-.097-.154-.2-.253-.304-.294a.457.457 0 0 0-.171-.03.989.989 0 0 0-.248.036.737.737 0 0 0-.478.363c-.107.197-.124.434-.051.708s.211.471.414.596c.13.083.27.123.419.123a.926.926 0 0 0 .239-.033.62.62 0 0 0 .34-.2.692.692 0 0 0 .126-.371c.005-.047.036-.072.095-.075h.006c.038 0 .06.017.065.05.023.134.03.246.022.335-.006.058-.068.124-.19.202a1.755 1.755 0 0 1-.83.248c-.177 0-.343-.04-.499-.117zm11.778-.253c-.312-.06-.552-.202-.721-.429a.981.981 0 0 1-.174-.806.994.994 0 0 1 .463-.683 1.08 1.08 0 0 1 .587-.171c.078 0 .157.007.239.024.31.058.548.203.716.434a.99.99 0 0 1 .17.802.99.99 0 0 1-.464.676 1.067 1.067 0 0 1-.587.175c-.076 0-.15-.007-.229-.022zm-9.778-.044c-.004-.027.014-.045.057-.057.06-.018.097-.035.11-.055.019-.023.022-.067.011-.132l-.237-1.39c-.016-.096-.035-.153-.055-.175s-.073-.038-.155-.049c-.044-.005-.063-.027-.058-.066l.019-.036.08-.007c.067-.002.236-.025.508-.072l.697-.137.076-.011.024.008v.016a1.44 1.44 0 0 0 .03.345l-.035.054-.066-.03-.099-.132a.223.223 0 0 0-.15-.049h-.004c-.053 0-.223.025-.51.073l-.061.028v.047l.108.631.05.03.396-.087.059-.055.014-.13c.001-.04.018-.06.05-.06h.012l.052.039c-.005.142.017.322.064.54l-.043.052-.061-.04a.45.45 0 0 0-.064-.148.113.113 0 0 0-.084-.03h-.012l-.377.05-.024.025.112.66c.016.094.08.141.192.144l.285-.04c.25-.043.392-.158.425-.344.006-.037.022-.056.05-.056l.017.003.047.049c-.008.125-.007.25.005.372.002.02-.027.033-.087.04l-.604.09-.69.137h-.023c-.029 0-.046-.015-.05-.046zm7.399-.333a4.995 4.995 0 0 0-.604-.045c-.044-.001-.065-.022-.061-.06.003-.026.026-.04.07-.04.101 0 .156-.05.165-.15l.14-1.46c.009-.097-.042-.162-.154-.195-.054-.017-.08-.036-.077-.061.002-.035.02-.053.052-.053h.009l.036.008.19.028.216.016.321.025c.203.019.36.073.471.16a.416.416 0 0 1 .163.393c-.027.282-.207.453-.541.512.081.246.184.46.307.642.128.186.249.295.361.323l.044.065c0 .02-.016.032-.046.032h-.016c-.365-.037-.68-.382-.945-1.039l-.2-.01-.062.641c-.005.048.004.08.026.098a.435.435 0 0 0 .152.057c.055.015.082.038.078.068l-.018.045-.024.004zm-2.928-1.58l-.037-.057c.037-.11.058-.266.06-.467 0-.02.022-.031.065-.031h.03l.732.035.378.003.608-.02.033-.003c.036 0 .056.01.06.031a2.27 2.27 0 0 1 .032.472l-.008.038-.032.014-.018.002c-.028 0-.045-.015-.056-.045-.041-.138-.093-.228-.153-.274-.082-.064-.229-.097-.438-.1h-.015c-.075 0-.117.009-.125.025l-.005.027-.02 1.527c-.002.065.013.112.043.138s.091.052.182.074l.066.018.014.058-.034.039-.064-.006a4.26 4.26 0 0 0-.427-.025l-.24.012-.05.004-.031-.005-.02-.037c-.008-.032.01-.053.054-.065a.396.396 0 0 0 .18-.079c.035-.035.053-.091.054-.171l.02-1.485-.054-.053-.09-.003-.023-.001c-.183 0-.319.033-.408.095a.617.617 0 0 0-.19.274c-.012.031-.03.046-.05.046zm-.553-.562l.068-.007.03.05c.003.025-.024.049-.077.07-.12.042-.175.12-.167.226l.084 1.099.052.558c.008.054-.003.085-.03.094l-.028.005c-.033 0-.064-.022-.094-.068-.059-.092-.276-.315-.654-.668l-.915-.823-.028-.005-.013.036.097 1.253c.01.134.084.209.222.224.057.007.087.025.089.053.002.04-.028.06-.09.061a4.65 4.65 0 0 0-.567.046h-.018c-.032 0-.05-.018-.052-.051-.001-.021.02-.038.063-.05.077-.025.128-.054.15-.087s.034-.089.029-.164l-.105-1.352a.222.222 0 0 0-.047-.133.402.402 0 0 0-.143-.08c-.05-.018-.077-.04-.077-.066s.02-.036.055-.036h.012l.12.004c.084 0 .158-.007.224-.018l.027-.003a.16.16 0 0 1 .111.049l1.387 1.265.037.027.009-.042-.085-1.105c-.01-.13-.084-.2-.22-.215-.05-.003-.075-.016-.076-.036-.003-.041.015-.062.057-.062h.068a2.74 2.74 0 0 0 .495-.049zm1.504-.457c-4.62 0-8.8 1.104-11.816 2.878s-4.861 4.215-4.86 6.883 1.84 5.105 4.86 6.882S13.317 27.7 17.936 27.7s8.802-1.103 11.817-2.878c3.02-1.777 4.861-4.215 4.86-6.882s-1.84-5.106-4.86-6.883-7.196-2.878-11.813-2.878z" fill="#f9b231" stroke-width=".314" stroke="#000"/></svg>