<?xml version="1.0" encoding="UTF-8" standalone="no"?>
<svg
   xmlns:dc="http://purl.org/dc/elements/1.1/"
   xmlns:cc="http://creativecommons.org/ns#"
   xmlns:rdf="http://www.w3.org/1999/02/22-rdf-syntax-ns#"
   xmlns:svg="http://www.w3.org/2000/svg"
   xmlns="http://www.w3.org/2000/svg"
   xmlns:sodipodi="http://sodipodi.sourceforge.net/DTD/sodipodi-0.dtd"
   xmlns:inkscape="http://www.inkscape.org/namespaces/inkscape"
   id="Layer_1"
   data-name="Layer 1"
   viewBox="0 0 36 36"
   version="1.1"
   sodipodi:docname="CTL.svg"
   inkscape:version="1.0.1 (c497b03c, 2020-09-10)">
  <metadata
     id="metadata172">
    <rdf:RDF>
      <cc:Work
         rdf:about="">
        <dc:format>image/svg+xml</dc:format>
        <dc:type
           rdf:resource="http://purl.org/dc/dcmitype/StillImage" />
        <dc:title />
      </cc:Work>
    </rdf:RDF>
  </metadata>
  <sodipodi:namedview
     pagecolor="#ffffff"
     bordercolor="#666666"
     borderopacity="1"
     objecttolerance="10"
     gridtolerance="10"
     guidetolerance="10"
     inkscape:pageopacity="0"
     inkscape:pageshadow="2"
     inkscape:window-width="1730"
     inkscape:window-height="1009"
     id="namedview170"
     showgrid="false"
     inkscape:zoom="10.747724"
     inkscape:cx="16.281418"
     inkscape:cy="12.41291"
     inkscape:window-x="0"
     inkscape:window-y="25"
     inkscape:window-maximized="0"
     inkscape:current-layer="Layer_1"
     inkscape:document-rotation="0"
     inkscape:snap-global="true"
     inkscape:snap-bbox="false" />
  <defs
     id="defs161">
    <style
       id="style159">.cls-1{fill:#d81e3e;}.cls-2{fill:#fff;}</style>
  </defs>
  <circle
     class="cls-1"
     cx="18.03"
     cy="18.01"
     r="17.5"
     id="circle163"
     style="fill:#f9d231;fill-opacity:1" />
  <path
     class="st1"
     d="m 18.472096,25.790139 c -0.06593,0.0045 -0.111315,0.0152 -0.133578,0.03361 -0.02291,0.01884 -0.03361,0.0593 -0.03232,0.119663 l 0.01713,0.631498 c 0.216208,-0.01263 0.37055,-0.05566 0.463455,-0.126514 0.08563,-0.06593 0.12737,-0.165902 0.122875,-0.30055 -0.0024,-0.131009 -0.03939,-0.225198 -0.10896,-0.279571 -0.06508,-0.05116 -0.163762,-0.07792 -0.297339,-0.07792 h -0.03125 z m 3.742103,-0.06508 -0.141712,0.654831 0.318103,-0.04624 0.253027,-0.05116 -0.382752,-0.565564 -0.02783,-0.01713 z m -1.977764,-0.03682 c -0.06636,0.0058 -0.11003,0.01969 -0.132293,0.04046 -0.02077,0.02077 -0.02783,0.06144 -0.02205,0.12159 l 0.06272,0.628072 c 0.214495,-0.02911 0.365627,-0.0822 0.453608,-0.160122 0.08028,-0.07214 0.113884,-0.174036 0.10104,-0.307614 -0.01392,-0.131437 -0.05694,-0.221987 -0.129725,-0.271865 -0.05609,-0.0381 -0.134862,-0.05694 -0.235902,-0.05694 z m -8.730717,-0.643271 -0.298409,1.207123 c -0.02098,0.08605 -0.01263,0.147492 0.02569,0.18795 0.0381,0.03982 0.124158,0.07706 0.260091,0.109389 0.101896,0.02547 0.196941,0.0381 0.284067,0.0381 0.343577,0 0.56428,-0.198225 0.662965,-0.594249 0.124158,-0.503699 -0.07214,-0.819448 -0.589755,-0.947032 l -0.18217,-0.04624 -0.06508,-0.0049 c -0.05694,0 -0.08927,0.01627 -0.0974,0.04988 z M 28.023973,23.62442 c -0.169541,0.07535 -0.280856,0.199296 -0.334586,0.373333 -0.0533,0.174464 -0.03489,0.36113 0.05373,0.562995 0.107676,0.240397 0.255168,0.40159 0.443119,0.484006 0.08391,0.03596 0.169541,0.05373 0.259235,0.05373 0.106391,0 0.218348,-0.02569 0.332874,-0.07578 0.170825,-0.07664 0.28214,-0.200581 0.333302,-0.374617 0.05202,-0.174037 0.03232,-0.363272 -0.05823,-0.568776 -0.105749,-0.237828 -0.254312,-0.396024 -0.445902,-0.476941 -0.08349,-0.03489 -0.170397,-0.05245 -0.258807,-0.05245 -0.104464,0 -0.213424,0.02462 -0.324739,0.07449 z m -8.001177,-5.235862 c -0.21214,0.113456 -0.318959,0.232905 -0.318959,0.358348 v 1.233025 c 0,0.590825 0.327094,0.886451 0.98064,0.886451 0.340366,0 0.614158,-0.10896 0.823087,-0.328378 0.208929,-0.218991 0.31211,-0.519969 0.31211,-0.904219 0,-0.418929 -0.115811,-0.763576 -0.349358,-1.034371 -0.220274,-0.253883 -0.4885,-0.381681 -0.804249,-0.381681 -0.218348,0 -0.431987,0.05694 -0.643271,0.170825 z m 8.492032,0.06144 c -0.205504,0.228409 -0.308684,0.507338 -0.308684,0.834432 0,0.528317 0.119663,0.938897 0.359632,1.232597 0.220703,0.26951 0.508623,0.405443 0.863546,0.405443 0.337798,0 0.604739,-0.112599 0.800824,-0.335871 0.196085,-0.223914 0.2937,-0.513975 0.2937,-0.869326 0,-0.481436 -0.11581,-0.872536 -0.349357,-1.17223 -0.227125,-0.291131 -0.515045,-0.437338 -0.86483,-0.437338 -0.32474,0 -0.589541,0.114525 -0.794831,0.342293 z m -4.432896,0.807888 v 0.110244 l 1.251435,-0.377185 c 0.203149,-0.05823 0.302904,-0.165046 0.302904,-0.318104 0,-0.168256 -0.06743,-0.315748 -0.204434,-0.443546 -0.135932,-0.126514 -0.304189,-0.19052 -0.503699,-0.19052 -0.562782,0 -0.846206,0.406299 -0.846206,1.219111 z m -18.2209438,-7.221118 0.1126,0.75587 0.321314,-0.17896 0.249388,-0.156911 -0.638347,-0.448042 -0.03682,-0.0081 z m 19.6847328,-1.952504 -0.480794,1.339845 c -0.03361,0.09376 -0.03104,0.165902 0.0071,0.215779 0.03939,0.04988 0.133364,0.101896 0.283424,0.155627 0.151988,0.05459 0.288991,0.08113 0.414434,0.08113 0.341008,0 0.58269,-0.201865 0.727613,-0.604739 0.199939,-0.558072 0.01392,-0.940181 -0.559357,-1.145257 l -0.203149,-0.07214 -0.101254,-0.01648 c -0.04731,0 -0.07771,0.01648 -0.08798,0.04624 z M 22.030958,9.3534401 c -0.163333,0.128654 -0.269082,0.315749 -0.315749,0.562568 -0.05694,0.2960539 -0.02419,0.5445859 0.09997,0.7432399 0.119664,0.19373 0.309969,0.315749 0.57006,0.365626 l 0.144924,0.01391 c 0.15113,0 0.288989,-0.04988 0.412292,-0.148562 0.162048,-0.129082 0.266941,-0.319388 0.315748,-0.57113 0.05566,-0.292416 0.01969,-0.5383789 -0.108103,-0.7383169 -0.122019,-0.192446 -0.308685,-0.31211 -0.561711,-0.360703 l -0.144067,-0.01391 c -0.150917,-2.14e-4 -0.288991,0.04859 -0.413363,0.147278 z m -2.084798,-0.44847 c -0.02911,0.01884 -0.04624,0.06187 -0.0533,0.131437 l -0.06829,0.718194 0.128655,0.0049 c 0.18217,0 0.320672,-0.02911 0.415717,-0.08349 0.105749,-0.06272 0.167187,-0.170826 0.181101,-0.323883 0.01391,-0.149847 -0.01391,-0.261162 -0.08477,-0.332018 -0.07171,-0.07214 -0.192447,-0.11581 -0.361988,-0.135933 h -0.0593 c -0.04538,0 -0.07771,0.0069 -0.09783,0.02077 z m -1.855745,16.8119559 0.189235,-0.009 0.280856,-0.01263 h 0.0381 c 0.161407,0 0.291559,0.02997 0.38896,0.08927 0.118379,0.07214 0.179816,0.179816 0.183455,0.323883 0.0069,0.248103 -0.132293,0.415718 -0.415718,0.502415 0.09612,0.205504 0.20893,0.380825 0.336513,0.525748 0.129725,0.147492 0.246177,0.228837 0.347217,0.241682 l 0.04624,0.05116 -0.05245,0.03233 h -0.01477 c -0.315748,0 -0.621222,-0.265657 -0.917276,-0.799754 l -0.175321,0.01391 0.01648,0.562996 c 0.0013,0.04174 0.01135,0.06957 0.03232,0.0822 0.02098,0.01391 0.06764,0.02419 0.138502,0.03361 0.04945,0.0069 0.07407,0.02333 0.07535,0.04988 l -0.01177,0.04174 -0.06593,0.0069 h -0.06058 c -0.144923,0 -0.301834,0.0081 -0.468807,0.02783 h -0.01156 c -0.0304,0 -0.04624,-0.01713 -0.04752,-0.04752 -0.0013,-0.02333 0.01841,-0.03725 0.05566,-0.04174 0.08798,-0.01156 0.131009,-0.06058 0.128655,-0.147492 l -0.03554,-1.283759 c -0.0024,-0.08477 -0.05373,-0.135933 -0.153486,-0.153058 -0.04881,-0.0081 -0.07407,-0.02333 -0.07535,-0.04538 l 0.04881,-0.04988 0.03275,0.0013 0.100825,0.0045 z m -1.949079,1.655593 c 0.0013,-0.02333 0.02098,-0.03596 0.0593,-0.03725 0.0533,-0.0045 0.08798,-0.01263 0.104465,-0.02654 0.01969,-0.01755 0.0304,-0.05373 0.03232,-0.111315 l 0.05373,-1.234096 c 0.0032,-0.08349 -0.0024,-0.135504 -0.01627,-0.158837 -0.01392,-0.02205 -0.05566,-0.04517 -0.122875,-0.06957 l -0.03725,-0.06829 0.02205,-0.02911 h 0.0081 l 0.06272,0.01028 c 0.05694,0.01199 0.20636,0.02333 0.446757,0.03404 l 0.489785,0.01156 0.131437,-0.0013 h 0.01392 c 0.04881,0 0.07278,0.0045 0.07278,0.0152 l -0.0032,0.01391 c -0.02205,0.08605 -0.03489,0.186666 -0.03725,0.30055 l -0.04067,0.03982 -0.05116,-0.03853 -0.0593,-0.131009 c -0.02783,-0.03489 -0.06722,-0.05823 -0.12052,-0.06871 -0.04303,-0.01028 -0.194159,-0.02098 -0.452966,-0.03104 l -0.05694,0.01135 -0.0081,0.04046 -0.02419,0.559785 0.03725,0.03489 0.100826,0.0013 0.254311,-0.0024 0.06015,-0.03725 0.03596,-0.110244 c 0.0069,-0.02783 0.02098,-0.04303 0.04174,-0.04303 l 0.02205,0.0045 0.03725,0.04303 c -0.0304,0.120734 -0.04538,0.278929 -0.0441,0.47373 l -0.04495,0.03725 -0.04538,-0.04667 c -0.0058,-0.06957 -0.0152,-0.11474 -0.02783,-0.136789 -0.01391,-0.02333 -0.03939,-0.03725 -0.07771,-0.04303 l -0.332018,-0.02783 -0.02419,0.01713 -0.02462,0.583974 c -0.0045,0.08349 0.04174,0.135932 0.137217,0.158838 l 0.250672,0.01755 0.03853,0.0013 c 0.200581,0 0.329663,-0.07214 0.388531,-0.215779 l 0.06765,-0.03404 0.03104,0.05116 c -0.02997,0.105535 -0.05116,0.212569 -0.06379,0.319388 -0.0013,0.01392 -0.01841,0.02098 -0.05009,0.02098 h -0.03232 l -0.532813,-0.03596 -0.543302,-0.01391 -0.07171,0.0013 c -0.03853,-8.57e-4 -0.05716,-0.01713 -0.05501,-0.05073 z m 3.709779,-1.732229 0.186666,-0.02291 0.279571,-0.03275 0.123303,-0.0058 c 0.122874,0 0.225198,0.02098 0.308684,0.06379 0.124159,0.06272 0.19159,0.165902 0.206361,0.309969 0.02462,0.246177 -0.100826,0.423853 -0.378471,0.531528 0.1126,0.19737 0.236973,0.363272 0.373975,0.49792 0.140428,0.139143 0.262446,0.211284 0.364342,0.217064 l 0.04881,0.04881 -0.04881,0.03596 -0.05566,0.0026 c -0.301835,0 -0.611803,-0.244893 -0.930763,-0.733821 l -0.174036,0.02569 0.05566,0.560641 c 0.0045,0.04174 0.01734,0.0685 0.03939,0.08113 0.02205,0.0107 0.06829,0.01884 0.139144,0.02205 0.05009,0.0036 0.07664,0.01884 0.07899,0.04538 l -0.0081,0.04174 -0.06636,0.01263 c -0.161406,0.0081 -0.337369,0.03018 -0.525748,0.06636 h -0.01713 c -0.02654,0 -0.04174,-0.0152 -0.04538,-0.04431 -0.0021,-0.02333 0.01648,-0.03853 0.05373,-0.04538 0.08691,-0.01713 0.125229,-0.06957 0.117095,-0.156483 L 19.84858,25.884119 c -0.009,-0.08477 -0.06379,-0.131437 -0.164618,-0.141713 -0.04988,-0.0045 -0.07578,-0.01755 -0.07771,-0.03982 l 0.04495,-0.0533 0.03147,-0.0013 0.02205,0.0013 z m -5.702742,0.217063 c 0.04303,-0.09141 0.0745,-0.226054 0.09419,-0.400091 0.0024,-0.01391 0.0152,-0.02119 0.04046,-0.02119 l 0.04431,0.0049 0.634708,0.09376 c 0.420214,0.04988 0.701069,0.0745 0.840641,0.0745 h 0.02654 c 0.04495,0 0.06829,0.01028 0.06957,0.03361 0.01135,0.120734 0.0069,0.258807 -0.01391,0.414434 l -0.0107,0.03147 -0.02783,0.009 -0.06144,-0.04495 c -0.02419,-0.122018 -0.06015,-0.205504 -0.108104,-0.251742 -0.06593,-0.06187 -0.190092,-0.104893 -0.372263,-0.126514 l -0.06765,-0.0049 c -0.03232,0 -0.05116,0.0049 -0.05694,0.0152 l -0.0069,0.02205 -0.155626,1.327857 c -0.0069,0.05694 0.0013,0.09868 0.02569,0.124159 0.02419,0.02547 0.07407,0.05245 0.150703,0.08028 l 0.05566,0.02205 0.0081,0.05202 -0.03361,0.0304 -0.05437,-0.0107 c -0.228837,-0.04752 -0.420213,-0.07086 -0.574555,-0.07086 h -0.0062 l -0.07043,-0.009 -0.01306,-0.03361 c -0.0045,-0.02911 0.01391,-0.04667 0.05245,-0.05245 0.07899,-0.0107 0.133364,-0.02783 0.163761,-0.05245 0.03361,-0.02783 0.05437,-0.07535 0.06272,-0.144923 l 0.151987,-1.290609 -0.04303,-0.05116 -0.07771,-0.01028 -0.135505,-0.0081 c -0.103608,0 -0.18581,0.01713 -0.248531,0.05202 -0.06508,0.03725 -0.127798,0.110459 -0.189235,0.220703 l -0.06636,0.02911 z m 7.450812,1.332781 c -0.0069,-0.02205 0.01713,-0.05116 0.07278,-0.08841 0.06058,-0.03939 0.103609,-0.112599 0.131438,-0.219418 l 0.20058,-0.79269 c 0.07086,-0.302691 0.115168,-0.547797 0.133578,-0.734678 0.0013,-0.02783 0.03147,-0.06015 0.08927,-0.0974 h 0.0069 c 0.01391,0 0.03596,0.02333 0.06379,0.06829 l 0.903361,1.353331 c 0.0533,0.07578 0.126514,0.119663 0.22156,0.130153 0.04303,0.0045 0.06379,0.01713 0.06272,0.03939 l -0.0094,0.04538 -0.0381,0.0032 c -0.131009,0 -0.314464,0.0304 -0.552292,0.09162 l -0.04303,0.0069 c -0.01884,0 -0.03147,-0.0069 -0.03725,-0.01969 l 0.03361,-0.06379 c 0.08841,-0.05694 0.128869,-0.100826 0.123303,-0.134648 l -0.02654,-0.0533 -0.230121,-0.347216 -0.328378,0.06379 -0.335443,0.04988 -0.07214,0.340367 -0.0032,0.08605 c 0.009,0.04945 0.04174,0.08113 0.09954,0.09376 0.08969,0.02076 0.134648,0.04046 0.135933,0.0593 0.0045,0.02997 -0.02205,0.04624 -0.07664,0.04988 -0.168257,0.01263 -0.320244,0.04495 -0.456177,0.09868 z m -8.069465,-0.09419 c -0.230978,-0.05245 -0.40951,-0.08477 -0.538592,-0.0974 l -0.05437,-0.02911 v -0.02783 c 0.0069,-0.01713 0.02911,-0.02654 0.06957,-0.02911 l 0.134648,-0.01263 c 0.03104,-0.01263 0.05202,-0.04624 0.06144,-0.09997 l 0.233333,-1.295105 c 0.01263,-0.07321 -0.02911,-0.126513 -0.124587,-0.161406 -0.03939,-0.01391 -0.0578,-0.03147 -0.05437,-0.04988 l 0.01755,-0.04538 h 0.04752 c 0.168257,0.05373 0.345932,0.08349 0.533883,0.09547 l 0.06144,0.0069 0.01199,0.05073 c -0.0036,0.02205 -0.0304,0.03596 -0.08028,0.04089 -0.112599,0.01263 -0.172752,0.04495 -0.182171,0.09612 l -0.230978,1.283759 c -0.0152,0.0822 0.02419,0.141712 0.119663,0.177675 0.04624,0.01713 0.06722,0.0381 0.06272,0.06379 l -0.01969,0.03939 z m -2.578864,-0.792689 0.308685,-1.247582 c 0.01156,-0.04667 0.01028,-0.08156 -0.0049,-0.102324 l -0.09376,-0.06144 -0.07535,-0.04303 -0.0069,-0.04303 0.0381,-0.03361 0.05823,0.0094 c 0.189236,0.03361 0.438623,0.08927 0.746452,0.165902 0.299265,0.07321 0.522109,0.205504 0.668316,0.39474 0.152202,0.195014 0.196086,0.423852 0.131437,0.682659 -0.07449,0.301834 -0.230978,0.50691 -0.47009,0.613729 -0.120734,0.05245 -0.257951,0.07899 -0.411223,0.07899 -0.128654,0 -0.268226,-0.01841 -0.420213,-0.05566 l -0.186666,-0.05437 -0.225199,-0.06379 -0.239112,-0.04881 c -0.03853,-0.0058 -0.05373,-0.02569 -0.04538,-0.0593 0.0049,-0.01712 0.01969,-0.02654 0.04538,-0.02654 l 0.02098,0.0013 0.03232,0.0021 c 0.06829,-4.28e-4 0.111101,-0.03596 0.128868,-0.109388 z m 13.800891,-1.543637 c -0.0107,-0.03596 0.0032,-0.05694 0.04174,-0.06272 0.146208,-0.02205 0.302905,-0.06765 0.472231,-0.133578 l 0.05823,-0.01755 0.03361,0.03853 c 0.0062,0.02076 -0.01263,0.04624 -0.05566,0.07214 -0.09505,0.0578 -0.129725,0.131009 -0.105535,0.221559 l 0.252171,0.930763 0.136788,0.472446 c 0.01391,0.04431 0.0107,0.07321 -0.01134,0.08605 l -0.03489,0.0094 c -0.02569,0 -0.05245,-0.01392 -0.08028,-0.04303 -0.06508,-0.07086 -0.289205,-0.226483 -0.671956,-0.46795 l -0.920488,-0.558072 h -0.02462 l -0.0058,0.03361 0.28792,1.060916 c 0.02911,0.104464 0.09547,0.157553 0.201009,0.157553 l 0.02654,-8.56e-4 0.01713,-0.0013 c 0.0396,0 0.06272,0.01156 0.06743,0.03232 0.009,0.03275 -0.01391,0.05459 -0.06743,0.06765 -0.207645,0.04624 -0.367767,0.08927 -0.479081,0.129725 l -0.06765,-0.0304 0.04538,-0.05437 c 0.06144,-0.03361 0.09997,-0.06722 0.11581,-0.09997 0.0152,-0.03232 0.01391,-0.08113 -0.0032,-0.144923 l -0.311253,-1.145686 c -0.01391,-0.04988 -0.03489,-0.08477 -0.06272,-0.106819 -0.02654,-0.01841 -0.07193,-0.03232 -0.135933,-0.0426 -0.04752,-0.0081 -0.073,-0.02333 -0.07664,-0.04431 -0.0045,-0.02462 0.01263,-0.03853 0.04988,-0.04303 0.117095,-0.0152 0.214923,-0.03853 0.29477,-0.06957 l 0.04538,-0.0081 c 0.02655,0 0.05437,0.0081 0.08113,0.02547 l 1.398713,0.861619 0.03596,0.01605 0.0013,-0.03682 -0.254311,-0.935686 c -0.02654,-0.09997 -0.09162,-0.149847 -0.19159,-0.149847 l -0.03361,0.0026 -0.02205,0.0013 c -0.0274,-4.29e-4 -0.04367,-0.0073 -0.04709,-0.02248 z m -15.5596638,1.10587 c 0.02333,-0.01156 0.0441,-0.04388 0.06186,-0.09868 l 0.387247,-1.173086 c 0.02569,-0.07899 0.03489,-0.131437 0.02697,-0.156911 -0.0081,-0.02526 -0.04089,-0.0593 -0.09997,-0.10104 l -0.01755,-0.07535 0.0304,-0.0197 0.06508,0.02783 0.4212828,0.151988 0.59532,0.180244 0.06015,0.02162 0.01755,0.01648 -0.0058,0.01263 c -0.04538,0.07664 -0.08477,0.169541 -0.117523,0.278929 l -0.04988,0.02654 -0.0381,-0.04988 -0.02333,-0.141713 c -0.01648,-0.04174 -0.04881,-0.07535 -0.0974,-0.09997 l -0.4257788,-0.153058 -0.05823,-0.0045 -0.01969,0.03596 -0.175321,0.532813 0.02654,0.04388 0.3422928,0.09419 0.06764,-0.01841 0.06465,-0.09547 0.07214,-0.01969 0.02462,0.05116 c -0.06187,0.107676 -0.119664,0.255168 -0.171896,0.443546 l -0.05437,0.02291 -0.0304,-0.05694 c 0.01263,-0.06722 0.01627,-0.11474 0.0094,-0.139144 l -0.06144,-0.06272 -0.3112528,-0.117095 -0.02911,0.01028 -0.183455,0.556146 c -0.02654,0.07899 0.0036,0.141712 0.08926,0.19052 l 0.235902,0.08477 c 0.07407,0.02462 0.141712,0.03596 0.2018648,0.03596 0.112599,0 0.201865,-0.04174 0.268226,-0.127798 l 0.07407,-0.01263 0.0152,0.05694 -0.147492,0.291131 -0.02205,0.0107 -0.06272,-0.01648 -0.5036988,-0.177675 -0.587185,-0.179816 c -0.03725,-0.01028 -0.04988,-0.03104 -0.03982,-0.06272 0.0049,-0.01627 0.01755,-0.02333 0.03982,-0.02333 l 0.02783,0.0036 0.07086,0.0081 z m 16.4324138,-1.386939 0.0107,-0.03361 0.06829,-0.01884 0.427064,-0.138073 0.579479,-0.223914 0.07407,-0.02333 0.01199,0.0058 0.0021,0.01306 c 0.01199,0.08927 0.03853,0.186666 0.07899,0.292415 l -0.02333,0.0533 -0.06144,-0.01713 -0.104464,-0.0974 c -0.02654,-0.01627 -0.05694,-0.02333 -0.09162,-0.02333 l -0.04624,0.0036 -0.430703,0.141284 -0.04881,0.03275 0.0081,0.04046 0.187951,0.528317 0.04752,0.01841 0.328379,-0.135933 0.04174,-0.05694 -0.0077,-0.114739 c -0.0049,-0.03853 0.01028,-0.0593 0.04495,-0.06058 l 0.05116,0.0259 c 0.01713,0.122874 0.06272,0.275076 0.136789,0.456176 l -0.02911,0.05116 -0.05887,-0.02569 -0.07792,-0.117094 -0.05116,-0.0152 -0.03596,0.0045 -0.317889,0.09868 -0.01627,0.02569 0.196086,0.551222 c 0.02333,0.06508 0.07214,0.09868 0.144067,0.09868 l 0.04388,-0.0032 0.237829,-0.07771 c 0.209999,-0.0745 0.314892,-0.195443 0.314892,-0.359847 8.56e-4,-0.03853 0.01606,-0.05694 0.04624,-0.05694 l 0.05245,0.03596 c 0.01156,0.10896 0.03232,0.214495 0.06144,0.320244 0.0045,0.0152 -0.01884,0.03147 -0.07086,0.04667 l -0.506054,0.16954 -0.574556,0.218991 -0.06957,-0.02547 0.04046,-0.05694 c 0.04859,-0.02333 0.07771,-0.04538 0.08713,-0.06379 0.01156,-0.02333 0.0077,-0.06144 -0.01177,-0.115168 l -0.414434,-1.163025 c -0.02783,-0.07899 -0.0533,-0.125229 -0.07407,-0.141712 -0.01884,-0.01263 -0.05459,-0.01841 -0.108103,-0.01841 h -0.03361 c -0.03939,0 -0.05823,-0.01627 -0.0593,-0.04881 z m 2.420241,0.735962 c -0.241682,-0.08028 -0.418073,-0.244893 -0.528318,-0.493425 -0.106819,-0.239969 -0.109388,-0.480366 -0.0081,-0.720763 0.101039,-0.236758 0.274006,-0.409938 0.521253,-0.518898 0.144923,-0.06508 0.287706,-0.0974 0.428348,-0.0974 0.101895,0 0.203149,0.01713 0.302904,0.05202 0.239969,0.08263 0.413149,0.247247 0.522109,0.490855 0.105749,0.235902 0.10682,0.475015 0.0049,0.717338 -0.09997,0.237829 -0.26951,0.409939 -0.510978,0.518042 -0.149418,0.06593 -0.296911,0.09954 -0.439693,0.09954 -0.09869,2.14e-4 -0.19737,-0.01584 -0.292415,-0.04731 z M 6.6352682,24.784878 c 0.02547,-0.01605 0.05202,-0.05437 0.07985,-0.113883 l 0.507339,-1.07376 c 0.02098,-0.04752 0.02783,-0.08798 0.01713,-0.12159 -0.0077,-0.0304 -0.03489,-0.06957 -0.07856,-0.118379 l -0.03147,-0.08605 h 0.06508 c 0.118379,0.07214 0.226483,0.122874 0.326024,0.150703 l 0.07321,0.03404 0.01648,0.0578 0.01391,1.401282 0.0069,0.03232 0.03596,-0.02419 1.037582,-0.910213 c 0.02783,-0.02419 0.0533,-0.03596 0.07792,-0.03596 l 0.02654,0.0062 c 0.07664,0.03232 0.187951,0.06722 0.335443,0.10318 l 0.06272,0.01969 v 0.05437 c -0.0081,0.01648 -0.02783,0.02462 -0.06272,0.02462 l -0.02547,-0.0013 -0.06379,-0.0036 c -0.07792,0 -0.123302,0.01755 -0.137217,0.0548 l -0.464311,1.219753 c -0.01841,0.04881 -0.02076,0.08798 -0.0069,0.117094 0.0107,0.02462 0.03853,0.05245 0.08263,0.08156 0.04303,0.02868 0.05908,0.05437 0.04881,0.07749 l -0.02911,0.03275 -0.06829,-0.02333 c -0.21,-0.09997 -0.377614,-0.170826 -0.499204,-0.211284 -0.03853,-0.01391 -0.05116,-0.03596 -0.03725,-0.06722 0.0045,-0.01135 0.01627,-0.01755 0.03725,-0.01755 l 0.03361,0.0036 0.131009,0.01713 0.01884,-0.0021 c 0.02419,-0.0058 0.04495,-0.03404 0.06465,-0.08263 l 0.404159,-1.072475 -0.0036,-0.03917 -0.03233,0.01135 -0.575625,0.497919 -0.493424,0.456177 -0.07278,0.07771 -0.04881,0.0152 -0.02333,-0.0058 c -0.0152,-0.0071 -0.02098,-0.03725 -0.01263,-0.09162 0.02654,-0.207645 0.0229,-0.696573 -0.0107,-1.464645 l -0.01713,-0.04174 -0.03725,0.02997 -0.454892,0.95902 c -0.05116,0.106391 -0.02462,0.19373 0.08113,0.263302 0.04174,0.02783 0.05823,0.05373 0.04752,0.07664 l -0.02869,0.03275 -0.06764,-0.02205 c -0.185596,-0.08841 -0.332874,-0.149847 -0.439693,-0.187094 -0.03853,-0.01392 -0.05116,-0.03596 -0.03725,-0.06722 0.0049,-0.01156 0.01755,-0.01755 0.03725,-0.01755 l 0.03361,0.0036 0.07664,0.0094 z M 27.879692,20.857179 c -0.327094,-0.318103 -0.49214,-0.740671 -0.49214,-1.264064 0,-0.543302 0.208073,-0.999479 0.621222,-1.370885 0.40159,-0.358776 0.880885,-0.537307 1.439172,-0.537307 0.597889,0 1.063056,0.161406 1.397642,0.48272 0.326024,0.31211 0.488501,0.735748 0.488501,1.268561 0,0.533882 -0.198654,0.985563 -0.59425,1.354615 -0.394739,0.369265 -0.885594,0.553577 -1.470853,0.553577 -0.585687,2.14e-4 -1.048928,-0.162049 -1.389294,-0.487217 z m -17.21804,0.464526 c -0.0304,-0.02098 -0.04624,-0.07086 -0.04624,-0.147492 0,-0.06957 0.08113,-0.129083 0.243608,-0.174465 0.178532,-0.05202 0.266941,-0.221559 0.266941,-0.510549 V 19.28443 c 0,-0.241681 -0.02462,-0.411864 -0.07343,-0.509907 -0.06722,-0.135504 -0.207645,-0.237828 -0.418929,-0.308685 -0.09504,-0.03361 -0.142996,-0.08349 -0.142996,-0.151987 0,-0.08798 0.06957,-0.154342 0.208073,-0.19737 0.257522,-0.07985 0.485289,-0.185596 0.684586,-0.317033 0.158837,-0.110244 0.257522,-0.165902 0.293699,-0.165902 0.123303,0 0.183456,0.08028 0.180245,0.239113 l -0.01884,2.455989 c 0,0.198654 0.02911,0.341009 0.08713,0.427064 0.06508,0.09547 0.187951,0.162477 0.367767,0.201865 0.199938,0.04667 0.290274,0.118807 0.271865,0.216207 -0.0152,0.08927 -0.05245,0.139144 -0.110031,0.151988 l -0.02205,0.0013 -0.198654,-0.0094 c -0.190305,-0.01391 -0.37954,-0.01969 -0.567491,-0.01969 -0.262446,0 -0.522537,0.01263 -0.78006,0.03725 l -0.112599,0.0071 c -0.05566,2.14e-4 -0.09291,-0.0066 -0.112599,-0.02055 z m 5.433445,0 c -0.0304,-0.02098 -0.04538,-0.07086 -0.04538,-0.147492 0,-0.06957 0.08156,-0.129083 0.244036,-0.174465 0.177248,-0.05202 0.265657,-0.221559 0.265657,-0.510549 V 19.28443 c 0,-0.241681 -0.02462,-0.411864 -0.07321,-0.509907 -0.06722,-0.135504 -0.206361,-0.237828 -0.417645,-0.308685 -0.09547,-0.03361 -0.142997,-0.08349 -0.142997,-0.151987 0,-0.08798 0.06829,-0.154342 0.206789,-0.19737 0.257522,-0.07985 0.486146,-0.185596 0.684586,-0.317033 0.160122,-0.110244 0.257522,-0.165902 0.29477,-0.165902 0.122018,0 0.182171,0.08028 0.17896,0.239113 l -0.01884,2.455989 c 0,0.198654 0.02911,0.341009 0.08841,0.427064 0.06379,0.09547 0.186666,0.162477 0.367766,0.201865 0.198655,0.04667 0.289205,0.118807 0.270581,0.216207 -0.0152,0.08927 -0.05245,0.139144 -0.110673,0.151988 l -0.02162,0.0013 -0.198654,-0.0094 c -0.190306,-0.01391 -0.379541,-0.01969 -0.567492,-0.01969 -0.262446,0 -0.522537,0.01263 -0.780059,0.03725 l -0.112599,0.0071 c -0.05544,2.14e-4 -0.09269,-0.0066 -0.112386,-0.02055 z m 7.683716,-0.441192 c -0.336513,-0.321957 -0.50477,-0.751375 -0.50477,-1.287398 0,-0.607308 0.187951,-1.094524 0.565565,-1.462719 0.351712,-0.343578 0.784555,-0.515045 1.296389,-0.515045 0.302905,0 0.587185,0.0974 0.849631,0.289846 0.236758,0.171896 0.393455,0.368195 0.470091,0.58847 0.02783,0.07706 0.0685,0.119664 0.124159,0.129082 0.07899,0.0152 0.119663,0.06829 0.119663,0.161407 0,0.125229 -0.150703,0.232262 -0.451253,0.321528 l -2.119476,0.630641 c 0.138073,0.728898 0.511834,1.09324 1.122353,1.09324 0.351712,0 0.753087,-0.127798 1.204768,-0.385321 0.06722,-0.03982 0.133578,-0.06058 0.19737,-0.06058 0.04881,0 0.07407,0.04431 0.07407,0.133577 0,0.131437 -0.178532,0.296055 -0.533883,0.49214 -0.405014,0.217064 -0.819448,0.326452 -1.246511,0.326452 -0.462171,-2.14e-4 -0.852414,-0.151345 -1.168163,-0.45532 z M 11.194465,16.415292 c -0.09162,-0.08606 -0.138074,-0.19737 -0.138074,-0.335871 0,-0.13422 0.05694,-0.260947 0.168257,-0.377186 0.112599,-0.11581 0.232263,-0.174036 0.360703,-0.174036 0.312323,0 0.47009,0.147492 0.47009,0.440978 0,0.141712 -0.0533,0.272721 -0.158837,0.393455 -0.106819,0.120733 -0.221559,0.18217 -0.348073,0.18217 -0.144067,2.15e-4 -0.261161,-0.04388 -0.354066,-0.12951 z m 5.434515,0 c -0.09162,-0.08606 -0.138073,-0.19737 -0.138073,-0.335871 0,-0.13422 0.05566,-0.260947 0.168257,-0.377186 0.111314,-0.11581 0.232262,-0.174036 0.360702,-0.174036 0.312538,0 0.468807,0.147492 0.468807,0.440978 0,0.141712 -0.0533,0.272721 -0.158838,0.393455 -0.105535,0.120733 -0.221559,0.18217 -0.347216,0.18217 -0.143639,2.15e-4 -0.261804,-0.04388 -0.353639,-0.12951 z m -9.4981468,-1.208407 0.168257,-0.01199 h 0.01969 c 0.06144,0.01199 0.0974,0.05245 0.105749,0.126513 0.0094,0.08263 -0.01028,0.139572 -0.05908,0.169541 l -0.188378,0.05566 c -0.214495,0.04881 -0.350428,0.104464 -0.405015,0.168256 -0.05566,0.06272 -0.08242,0.195229 -0.08242,0.397308 v 4.115008 c 0,0.257522 0.08606,0.433913 0.258807,0.527032 0.174037,0.09376 0.488501,0.140428 0.945962,0.140428 0.435198,0 0.756726,-0.05608 0.966726,-0.168256 0.210427,-0.111743 0.382109,-0.321957 0.513118,-0.632568 0.03725,-0.09162 0.08841,-0.138501 0.155627,-0.138501 l 0.06957,0.0152 c 0.09869,0.02462 0.134648,0.08028 0.110673,0.169541 -0.104893,0.392385 -0.156911,0.760366 -0.156911,1.103943 0,0.04988 -0.07321,0.07535 -0.219419,0.07535 l -0.07407,-0.0013 c -0.484005,-0.02547 -1.084249,-0.03725 -1.797947,-0.03725 -0.760366,0 -1.438102,0.0152 -2.032565,0.04923 h -0.05651 c -0.05609,0 -0.09162,-0.0081 -0.109388,-0.02462 -0.02076,-0.01969 -0.03104,-0.06636 -0.03104,-0.139143 0,-0.08028 0.06465,-0.126513 0.196942,-0.138073 0.300978,-0.03147 0.450396,-0.19159 0.450396,-0.483149 v -4.244946 c 0,-0.214495 -0.02911,-0.373761 -0.0867,-0.476941 -0.07086,-0.123302 -0.205504,-0.218348 -0.404158,-0.285351 -0.120734,-0.04303 -0.172752,-0.112599 -0.156483,-0.206789 0.009,-0.06829 0.02868,-0.108103 0.05908,-0.119663 l 0.07086,-0.0081 0.168256,0.01177 c 0.211284,0.02291 0.440978,0.03489 0.688225,0.03489 0.279572,0 0.583761,-0.01391 0.912139,-0.04303 z M 13.303665,21.3262 c -0.02911,-0.01841 -0.04431,-0.06829 -0.04431,-0.151987 0,-0.07321 0.08349,-0.134649 0.250672,-0.186025 0.167186,-0.04988 0.250672,-0.201865 0.250672,-0.452537 v -4.16146 c 0,-0.248103 -0.03553,-0.430274 -0.107675,-0.547797 -0.07193,-0.11581 -0.198655,-0.20636 -0.379541,-0.270366 -0.09547,-0.03361 -0.141712,-0.08113 -0.141712,-0.142997 0,-0.09162 0.06829,-0.161406 0.206788,-0.206361 0.207645,-0.06764 0.423425,-0.171895 0.647339,-0.313607 0.184739,-0.110245 0.300978,-0.164618 0.349785,-0.164618 0.113455,0 0.170397,0.07771 0.170397,0.233333 l -0.01841,0.460672 c -0.0094,0.302905 -0.01263,0.602384 -0.0094,0.89587 l 0.01884,4.106658 c 0,0.187095 0.04624,0.322599 0.138073,0.406299 0.09162,0.08477 0.249388,0.140428 0.47373,0.168257 0.138073,0.0152 0.206361,0.06764 0.206361,0.156911 0,0.109388 -0.05459,0.163761 -0.163761,0.163761 l -0.0426,-0.0026 c -0.183455,-0.01841 -0.385748,-0.02654 -0.607307,-0.02654 -0.288991,0 -0.611803,0.0152 -0.965656,0.04431 l -0.127798,0.0071 c -0.05245,0 -0.08734,-0.0049 -0.104465,-0.01627 z m 6.185249,-0.138073 c -0.331804,-0.10104 -0.49792,-0.192874 -0.501131,-0.275076 l 0.0045,-0.740671 0.01392,-1.131344 -0.009,-1.547489 -0.0094,-1.34434 c 0,-0.220275 -0.03361,-0.372262 -0.101254,-0.454892 -0.06144,-0.07407 -0.1948,-0.132294 -0.399234,-0.175321 -0.08113,-0.02783 -0.120734,-0.07771 -0.120734,-0.151987 0,-0.06379 0.06058,-0.118379 0.180244,-0.160122 0.171468,-0.06144 0.384036,-0.165046 0.638348,-0.308685 0.203149,-0.113883 0.328378,-0.169541 0.377185,-0.169541 0.09505,0 0.142997,0.07771 0.142997,0.234189 l -0.01391,0.478226 -0.0049,0.87746 0.0094,1.591587 c 0,0.105749 0.02547,0.157553 0.07664,0.157553 l 0.08028,-0.02911 c 0.367767,-0.211284 0.750947,-0.317675 1.149111,-0.317675 0.459816,0 0.834433,0.139143 1.122353,0.41636 0.28792,0.277645 0.431987,0.639632 0.431987,1.087674 0,0.607307 -0.211284,1.115502 -0.633852,1.52651 -0.405015,0.395596 -0.886879,0.592966 -1.445166,0.592966 -0.314892,2.14e-4 -0.645839,-0.05181 -0.988346,-0.156269 z m 9.270807,-7.917263 0.802965,-1.16538 c 0.03982,-0.0593 0.06187,-0.108104 0.06636,-0.148563 0.0032,-0.04667 -0.01627,-0.09869 -0.05694,-0.154342 l -0.0045,-0.08605 0.03939,-0.02205 0.06379,0.04667 c 0.113884,0.09826 0.261376,0.198226 0.442263,0.30055 l 0.0533,0.03232 0.0049,0.05437 -0.04881,0.03489 -0.06187,-0.01969 -0.124159,-0.03233 -0.01841,0.0013 c -0.02654,0.0069 -0.0593,0.0381 -0.09868,0.09376 l -0.777705,1.130487 c -0.04795,0.06957 -0.05823,0.134648 -0.02783,0.192875 0.02997,0.05887 0.107676,0.131009 0.232905,0.217063 0.119663,0.08242 0.218348,0.127798 0.297339,0.138074 l 0.03147,0.0013 c 0.06957,0 0.146207,-0.02654 0.228623,-0.07899 l 0.08606,0.0094 -0.0024,0.06722 c -0.101896,0.08841 -0.186666,0.17896 -0.250672,0.274006 l -0.0152,0.0069 -0.08028,-0.04303 -0.485932,-0.350428 -0.566635,-0.371406 -0.04174,-0.03596 0.01755,-0.04495 0.03104,-0.01648 0.04881,0.0152 c 0.03404,0.01841 0.06508,0.02783 0.09291,0.02783 0.04752,-4.28e-4 0.08841,-0.02505 0.122018,-0.07449 z M 5.7982672,13.85441 c -0.01755,-0.02419 -0.0036,-0.06593 0.04046,-0.128654 0.04881,-0.06508 0.06636,-0.161407 0.05116,-0.285779 l -0.106606,-0.929479 c -0.04752,-0.351712 -0.09868,-0.631497 -0.155626,-0.838286 -0.01028,-0.03104 0.0094,-0.07771 0.05823,-0.139143 l 0.01263,-0.0045 c 0.01755,0 0.04752,0.0152 0.08927,0.04752 0.46324,0.341009 0.96801,0.701069 1.513881,1.078255 0.06015,0.04089 0.125229,0.06187 0.19373,0.06187 l 0.09547,-0.01177 0.0426,-0.0071 c 0.02205,0 0.03489,0.0081 0.04089,0.02333 l 0.0077,0.05245 -0.0381,0.01969 c -0.139143,0.05202 -0.323883,0.158838 -0.553576,0.321529 l -0.06636,0.02911 -0.02419,-0.0107 0.009,-0.0822 c 0.07086,-0.09505 0.09654,-0.160122 0.07664,-0.192874 l -0.04881,-0.04624 -0.387461,-0.278501 -0.325168,0.20315 -0.337797,0.189235 0.06144,0.392384 0.03147,0.09419 c 0.02419,0.04046 0.06272,0.06144 0.113883,0.06144 l 0.03104,-0.0024 0.105749,-0.0094 c 0.03725,0 0.05823,0.0062 0.06272,0.01755 0.01648,0.0304 -0.0045,0.05823 -0.06144,0.08477 -0.17532,0.08113 -0.323883,0.177676 -0.448042,0.291131 h -0.08477 z M 27.004801,12.456767 c 0.02911,-0.009 0.05823,-0.0426 0.08798,-0.100825 l 0.639632,-1.258285 c 0.04303,-0.08477 0.06272,-0.141712 0.05823,-0.171468 -0.0036,-0.0304 -0.03489,-0.0745 -0.09419,-0.131437 l -0.0069,-0.08798 0.03596,-0.01755 0.06957,0.04174 c 0.05373,0.03982 0.203149,0.120734 0.449112,0.246177 l 0.640702,0.305474 c 0.06144,0.02654 0.08927,0.04624 0.08242,0.05823 l -0.009,0.01156 c -0.06508,0.07985 -0.124587,0.177676 -0.181315,0.29477 l -0.06015,0.02333 -0.03489,-0.06508 c 0.0071,-0.07663 0.0058,-0.131008 -0.0013,-0.163761 -0.01156,-0.04881 -0.04174,-0.09291 -0.09291,-0.128654 -0.03939,-0.03147 -0.190305,-0.113883 -0.454892,-0.247247 l -0.06508,-0.0152 -0.02783,0.03725 -0.289847,0.571986 0.02162,0.05437 0.37055,0.165046 0.07985,-0.0094 0.08969,-0.09612 0.08477,-0.0107 0.01841,0.06272 c -0.08927,0.110459 -0.17896,0.268226 -0.27058,0.471375 l -0.06465,0.01648 -0.02569,-0.06829 c 0.02697,-0.07578 0.03853,-0.127798 0.03596,-0.156911 l -0.05908,-0.08113 -0.332017,-0.186024 -0.03489,0.0071 -0.302905,0.59532 c -0.04303,0.08477 -0.01969,0.161406 0.06829,0.230978 l 0.251743,0.135933 c 0.106819,0.05437 0.204434,0.08113 0.290275,0.08113 0.0974,0 0.183455,-0.03361 0.255595,-0.101896 l 0.08563,-0.0032 0.0094,0.06829 c -0.08113,0.09504 -0.154342,0.196085 -0.218134,0.301834 l -0.01841,0.009 -0.07535,-0.02997 -0.538807,-0.28792 -0.632567,-0.304189 c -0.03939,-0.01713 -0.05073,-0.04431 -0.03361,-0.07771 0.0069,-0.01391 0.01884,-0.02098 0.03596,-0.02098 l 0.04303,0.0107 0.101896,0.02419 z M 7.1586622,10.827504 v -0.04431 l 0.07792,-0.0304 c 0.142997,-0.04388 0.30633,-0.11581 0.488501,-0.214495 l 0.05566,-0.02654 0.04988,0.02291 0.0036,0.06058 -0.04988,0.04174 c -0.0593,0.04303 -0.09291,0.07771 -0.102324,0.104465 -0.0077,0.02654 0.0013,0.07086 0.02697,0.133577 l 0.544158,1.258285 c 0.03361,0.07985 0.08349,0.12159 0.148562,0.12737 l 0.01841,0.0013 c 0.06508,0 0.161406,-0.02783 0.28899,-0.08349 0.133578,-0.05694 0.225199,-0.117094 0.274006,-0.178531 0.04988,-0.06187 0.07449,-0.148563 0.07449,-0.261162 -0.0013,-0.04431 0.01584,-0.06636 0.05202,-0.06829 l 0.05694,0.0381 c 0.01969,0.133577 0.05116,0.253027 0.0974,0.358776 0.0071,0.01755 -0.01969,0.03853 -0.08113,0.06144 l -0.554861,0.226483 -0.615442,0.28214 -0.0533,0.0152 -0.02911,-0.03853 c -0.01028,-0.02419 0.0045,-0.04752 0.04303,-0.06829 0.08798,-0.04881 0.112599,-0.118379 0.07407,-0.206788 l -0.560641,-1.298958 c -0.02911,-0.06593 -0.05887,-0.111315 -0.09055,-0.135504 -0.03104,-0.02333 -0.07407,-0.03489 -0.127798,-0.03489 l -0.03361,0.0013 -0.0094,8.56e-4 c -0.03639,-4.28e-4 -0.05844,-0.0152 -0.06658,-0.04431 z m 17.6104238,0.623149 0.495779,-1.381159 c 0.01841,-0.05245 0.02098,-0.09162 0.0058,-0.1175229 l -0.09997,-0.08113 -0.08028,-0.05694 -0.0032,-0.04988 0.04624,-0.03361 0.06508,0.01713 c 0.212569,0.06058 0.488501,0.152416 0.829938,0.2740059 0.332017,0.119663 0.57006,0.29477 0.714983,0.527032 0.149847,0.240397 0.172752,0.504984 0.06957,0.791834 -0.119664,0.334158 -0.321529,0.548653 -0.604739,0.642842 -0.104465,0.03361 -0.21578,0.04988 -0.335443,0.04988 -0.18581,0 -0.389816,-0.03982 -0.612873,-0.119663 l -0.206361,-0.08349 -0.248531,-0.09868 -0.266942,-0.08349 c -0.04174,-0.0107 -0.05694,-0.03489 -0.04303,-0.07214 0.0058,-0.01755 0.02098,-0.02654 0.04303,-0.02654 l 0.03361,0.0058 0.05694,0.0071 c 0.06743,2.14e-4 0.11367,-0.03596 0.140428,-0.111315 z m -14.253642,-0.04281 c -0.258806,-0.132294 -0.428347,-0.344862 -0.507338,-0.637063 -0.08028,-0.299694 -0.0381,-0.57691 0.124159,-0.8335769 0.157981,-0.246819 0.383179,-0.410794 0.678164,-0.489785 0.172752,-0.04624 0.325809,-0.06957 0.461956,-0.06957 h 0.08606 c 0.138073,0.0152 0.214495,0.03853 0.229694,0.07535 0.03147,0.07214 0.06957,0.192874 0.115167,0.362415 0.0069,0.02654 -0.01391,0.04988 -0.06272,0.06829 l -0.03596,0.0081 c -0.01969,0 -0.03489,-0.0081 -0.04431,-0.02462 -0.0974,-0.154343 -0.199939,-0.253028 -0.304189,-0.294771 -0.04859,-0.01969 -0.106391,-0.02997 -0.171468,-0.02997 -0.07214,0 -0.155626,0.01263 -0.247247,0.03682 -0.219419,0.0593 -0.378256,0.180244 -0.478225,0.362415 -0.10682,0.1973689 -0.124159,0.4341269 -0.05116,0.7079189 0.07321,0.272721 0.211284,0.471375 0.414433,0.596604 0.130153,0.0822 0.26951,0.122875 0.418073,0.122875 0.07664,0 0.156911,-0.01156 0.239112,-0.03361 0.155627,-0.04174 0.269082,-0.107675 0.341009,-0.19951 0.06829,-0.08713 0.111315,-0.211284 0.125229,-0.371406 0.0049,-0.04667 0.03596,-0.07214 0.09547,-0.07449 h 0.0058 c 0.0381,0 0.06015,0.01648 0.06508,0.04881 0.02291,0.134648 0.02997,0.247247 0.02205,0.335443 -0.0062,0.05823 -0.06872,0.124587 -0.190306,0.202293 -0.131437,0.0822 -0.291559,0.149418 -0.479509,0.19951 -0.120734,0.03275 -0.237829,0.04881 -0.350428,0.04881 -0.177033,-2.14e-4 -0.342935,-0.0396 -0.498562,-0.117308 z m 11.77796,-0.253241 c -0.312538,-0.0593 -0.552293,-0.201865 -0.721834,-0.428348 -0.174036,-0.232263 -0.232262,-0.501559 -0.174036,-0.8066039 0.05566,-0.29477 0.209999,-0.522537 0.463026,-0.682659 0.181101,-0.113884 0.377186,-0.171468 0.587186,-0.171468 0.07792,0 0.157553,0.0077 0.239112,0.02419 0.309969,0.05823 0.547797,0.203149 0.716268,0.434127 0.170825,0.234617 0.227339,0.5015589 0.169541,0.8021089 -0.05566,0.290274 -0.21,0.515473 -0.463241,0.675595 -0.182171,0.117094 -0.378256,0.175321 -0.587613,0.175321 -0.07535,0 -0.150703,-0.0071 -0.228409,-0.02226 z m -9.777933,-0.0441 c -0.0045,-0.02654 0.01392,-0.04495 0.05694,-0.05694 0.05887,-0.01713 0.09612,-0.03489 0.11003,-0.05437 0.01841,-0.02333 0.02205,-0.06722 0.0107,-0.132293 L 12.456169,9.4763201 c -0.01584,-0.09504 -0.03489,-0.151987 -0.05566,-0.174036 -0.02098,-0.02076 -0.07278,-0.03853 -0.154342,-0.04881 -0.04388,-0.0058 -0.06272,-0.02783 -0.0578,-0.06636 l 0.01841,-0.03596 0.08113,-0.0071 c 0.06636,-0.0021 0.234617,-0.02547 0.507339,-0.07171 0.27058,-0.04538 0.502415,-0.09162 0.696573,-0.137217 l 0.07664,-0.01134 0.02333,0.0081 v 0.01606 c -0.0049,0.102324 0.0058,0.217064 0.03104,0.344862 l -0.03596,0.05373 -0.06593,-0.0304 -0.09869,-0.131009 c -0.03853,-0.03275 -0.08841,-0.04881 -0.149846,-0.04881 h -0.0045 c -0.05245,0 -0.222843,0.02419 -0.509693,0.07278 l -0.06144,0.02783 v 0.04667 l 0.108104,0.631497 0.05009,0.02997 0.395596,-0.0867 0.0593,-0.05566 0.01391,-0.130152 c 0.0013,-0.04046 0.01841,-0.06015 0.04988,-0.06015 h 0.01263 l 0.05202,0.03939 c -0.0058,0.141712 0.01627,0.322599 0.06379,0.5396629 l -0.04303,0.05245 -0.06144,-0.04046 c -0.02291,-0.07578 -0.04388,-0.124587 -0.06379,-0.147493 -0.01841,-0.01884 -0.04624,-0.02911 -0.08349,-0.02911 h -0.01263 l -0.377186,0.04881 -0.02333,0.02547 0.111314,0.659326 c 0.01648,0.09419 0.08028,0.141712 0.192875,0.144067 l 0.284281,-0.03982 c 0.249816,-0.04303 0.392384,-0.157553 0.424922,-0.343577 0.0069,-0.03682 0.02291,-0.05566 0.04988,-0.05566 l 0.01713,0.0024 0.04752,0.04881 c -0.0077,0.125229 -0.0071,0.249388 0.0049,0.372691 0.0021,0.01969 -0.02654,0.03232 -0.08713,0.04046 l -0.603668,0.08927 -0.68951,0.137217 h -0.02419 c -0.02804,-4.28e-4 -0.0456,-0.01563 -0.05009,-0.04581 z m 7.398365,-0.332874 c -0.183455,-0.02569 -0.384036,-0.04046 -0.603668,-0.04431 -0.04431,-0.0013 -0.06508,-0.02205 -0.06144,-0.06015 0.0032,-0.02569 0.02654,-0.03982 0.06957,-0.03982 0.101896,0 0.156483,-0.04988 0.165902,-0.149419 l 0.139144,-1.4614339 c 0.0094,-0.09655 -0.04174,-0.161407 -0.153058,-0.194159 -0.05437,-0.01713 -0.08113,-0.03682 -0.07771,-0.06144 0.0024,-0.03489 0.02076,-0.0533 0.05245,-0.0533 h 0.009 l 0.03596,0.0081 0.190519,0.02783 0.21578,0.01606 0.320672,0.0259 c 0.203149,0.01841 0.360703,0.07278 0.471375,0.160122 0.124159,0.0974 0.178532,0.227339 0.162477,0.392385 -0.02697,0.28214 -0.206789,0.452537 -0.540947,0.511834 0.08113,0.2461769 0.184312,0.4606719 0.307614,0.6419859 0.127798,0.186667 0.248104,0.294771 0.360703,0.323456 l 0.04431,0.06508 c 0,0.01969 -0.01648,0.03147 -0.04624,0.03147 h -0.01648 c -0.364342,-0.03725 -0.68009,-0.38211 -0.944677,-1.0388669 l -0.201009,-0.0094 -0.06144,0.6409159 c -0.0045,0.04752 0.0045,0.07985 0.02654,0.0974 0.02205,0.01841 0.07214,0.03725 0.151988,0.05694 0.0548,0.0152 0.08156,0.0381 0.07792,0.06829 l -0.01841,0.04538 -0.02333,0.0032 z m -2.927364,-1.5798139 -0.03725,-0.05694 c 0.03725,-0.110245 0.05823,-0.265657 0.06058,-0.46688 0,-0.01969 0.02098,-0.03104 0.06465,-0.03104 h 0.02911 c 0.220703,0.01969 0.464311,0.03104 0.732537,0.03489 l 0.378256,0.0032 c 0.296055,0 0.49792,-0.0071 0.607308,-0.02098 l 0.03361,-0.0021 c 0.03596,0 0.05566,0.01028 0.05887,0.03104 0.02697,0.135933 0.03725,0.293486 0.03275,0.472446 l -0.0081,0.03725 -0.03147,0.01391 -0.01841,0.0021 c -0.02783,0 -0.04538,-0.0152 -0.05566,-0.04517 -0.04174,-0.137217 -0.09291,-0.227554 -0.153058,-0.274006 -0.08263,-0.06379 -0.228838,-0.09612 -0.437767,-0.09997 h -0.0152 c -0.07535,0 -0.117094,0.0094 -0.125229,0.02547 l -0.0045,0.02697 -0.02098,1.5273669 c -0.0013,0.06508 0.01391,0.111315 0.04388,0.138073 0.0304,0.02654 0.09098,0.05116 0.181315,0.07321 l 0.06593,0.01841 0.01391,0.05823 -0.03361,0.03853 -0.06379,-0.0062 c -0.157553,-0.01606 -0.30055,-0.02419 -0.427063,-0.02419 l -0.240397,0.01156 -0.04881,0.0036 -0.03232,-0.0045 -0.01969,-0.03682 c -0.0081,-0.03275 0.01028,-0.05373 0.05437,-0.06508 0.08798,-0.02098 0.147492,-0.04752 0.179816,-0.07899 0.03489,-0.03489 0.05245,-0.09162 0.05373,-0.171468 l 0.02077,-1.4847679 -0.0548,-0.0533 -0.09055,-0.0026 -0.02205,-0.0013 c -0.183027,0 -0.318959,0.03275 -0.408225,0.09547 -0.07086,0.04988 -0.133364,0.140428 -0.189235,0.274006 -0.01306,0.03104 -0.0304,0.04624 -0.04988,0.04624 z m -0.553577,-0.561711 0.06829,-0.0071 0.0304,0.04988 c 0.0021,0.02547 -0.02462,0.04881 -0.07771,0.06957 -0.119663,0.04303 -0.17532,0.119663 -0.167186,0.226483 l 0.08477,1.0990189 0.05202,0.558072 c 0.0071,0.05373 -0.0032,0.08477 -0.0304,0.09419 l -0.02783,0.0045 c -0.03361,0 -0.06465,-0.02162 -0.09376,-0.06722 -0.0593,-0.09291 -0.27636,-0.315748 -0.65483,-0.6687449 l -0.914708,-0.823087 -0.02783,-0.0045 -0.01263,0.03596 0.09612,1.2533619 c 0.0107,0.133577 0.08477,0.208073 0.221987,0.223057 0.05694,0.0071 0.08691,0.02547 0.08927,0.0533 0.0024,0.03939 -0.02783,0.0593 -0.09055,0.06144 -0.243609,0.0081 -0.432844,0.02333 -0.566421,0.04538 h -0.01755 c -0.03232,0 -0.04988,-0.01755 -0.05202,-0.05116 -0.0013,-0.02098 0.01969,-0.03725 0.06272,-0.04988 0.07664,-0.02419 0.127798,-0.0533 0.150704,-0.08691 0.02462,-0.03404 0.03361,-0.08841 0.02783,-0.163762 l -0.10425,-1.3516179 c -0.0045,-0.0593 -0.02098,-0.103608 -0.04752,-0.133578 -0.02547,-0.02697 -0.07343,-0.05245 -0.142997,-0.07899 -0.05073,-0.01884 -0.07642,-0.04046 -0.07642,-0.06636 0,-0.02419 0.01884,-0.03682 0.05437,-0.03682 l 0.01199,8.56e-4 0.120734,0.0036 c 0.08349,0 0.157553,-0.0071 0.223914,-0.01841 l 0.02654,-0.0026 c 0.03939,0 0.07664,0.01648 0.111315,0.04881 l 1.386939,1.2653489 0.03725,0.02654 0.0081,-0.04174 -0.08477,-1.1052269 c -0.0107,-0.129725 -0.08349,-0.200581 -0.220703,-0.214495 -0.04859,-0.0036 -0.07407,-0.01648 -0.07535,-0.03596 -0.0032,-0.04174 0.0152,-0.06272 0.05694,-0.06272 h 0.0045 l 0.06379,0.0013 c 0.151346,0 0.315963,-0.01648 0.494923,-0.04988 z m 1.504462,-0.457461 c -4.619777,0 -8.8009308,1.103943 -11.8162768,2.8785569 -3.019199,1.777183 -4.861459,4.214763 -4.860174,6.882892 -0.0013,2.667273 1.840975,5.104853 4.860174,6.882036 3.015346,1.774614 7.1952148,2.877487 11.8137078,2.877487 4.621062,0.0013 8.801787,-1.102659 11.817133,-2.877487 3.019199,-1.777183 4.861244,-4.214763 4.860174,-6.882036 0.0013,-2.668129 -1.840975,-5.105709 -4.860174,-6.882892 C 26.736575,9.2825851 22.556492,8.1786421 17.939283,8.1786421 Z"
     id="path837"
     style="fill:#f9b231;stroke-width:0.314;stroke-miterlimit:4;stroke-dasharray:none;stroke:#000000;stroke-opacity:1" />
</svg>
