<?xml version="1.0" encoding="UTF-8" standalone="no"?>
<svg
   xmlns:dc="http://purl.org/dc/elements/1.1/"
   xmlns:cc="http://creativecommons.org/ns#"
   xmlns:rdf="http://www.w3.org/1999/02/22-rdf-syntax-ns#"
   xmlns:svg="http://www.w3.org/2000/svg"
   xmlns="http://www.w3.org/2000/svg"
   xmlns:sodipodi="http://sodipodi.sourceforge.net/DTD/sodipodi-0.dtd"
   xmlns:inkscape="http://www.inkscape.org/namespaces/inkscape"
   id="Layer_1"
   data-name="Layer 1"
   viewBox="0 0 36 36"
   version="1.1"
   sodipodi:docname="IFT.svg"
   inkscape:version="1.0.1 (c497b03c, 2020-09-10)">
  <metadata
     id="metadata172">
    <rdf:RDF>
      <cc:Work
         rdf:about="">
        <dc:format>image/svg+xml</dc:format>
        <dc:type
           rdf:resource="http://purl.org/dc/dcmitype/StillImage" />
        <dc:title />
      </cc:Work>
    </rdf:RDF>
  </metadata>
  <sodipodi:namedview
     pagecolor="#ffffff"
     bordercolor="#666666"
     borderopacity="1"
     objecttolerance="10"
     gridtolerance="10"
     guidetolerance="10"
     inkscape:pageopacity="0"
     inkscape:pageshadow="2"
     inkscape:window-width="1730"
     inkscape:window-height="1009"
     id="namedview170"
     showgrid="false"
     inkscape:zoom="16.454785"
     inkscape:cx="8.7090015"
     inkscape:cy="18.976858"
     inkscape:window-x="0"
     inkscape:window-y="25"
     inkscape:window-maximized="0"
     inkscape:current-layer="Layer_1"
     inkscape:document-rotation="0"
     inkscape:snap-global="true"
     inkscape:snap-bbox="false" />
  <defs
     id="defs161">
    <style
       id="style159">.cls-1{fill:#d81e3e;}.cls-2{fill:#fff;}</style>
  </defs>
  <circle
     class="cls-1"
     cx="18.03"
     cy="18.01"
     r="17.5"
     id="circle163"
     style="fill:#0189d1;fill-opacity:1" />
  <text
     xml:space="preserve"
     style="font-style:normal;font-weight:normal;font-size:40px;line-height:1.25;font-family:sans-serif;white-space:pre;inline-size:42.8504;fill:#000000;fill-opacity:1;stroke:none"
     x="11.363265"
     y="14.644898"
     id="text176"><tspan
       style="visibility:hidden"
       x="11.363265"
       y="14.644898"><tspan
         dx="0 27.34375 22.96875">AFG</tspan></tspan></text>
  <path
     class="st0"
     d="m 17.680144,25.338639 h 0.413281 l -0.207011,-0.625837 z m 10.431114,0 h 0.411803 L 28.317346,24.712802 Z M 9.9680748,24.356448 v 0.487769 h 0.032154 c 0.200728,0 0.301091,-0.07856 0.301091,-0.236583 0,-0.06581 -0.02052,-0.123469 -0.06045,-0.173927 -0.04123,-0.04992 -0.109421,-0.07725 -0.203498,-0.07725 z m 13.3878562,0 v 0.487769 h 0.03363 c 0.200726,0 0.299796,-0.07856 0.299796,-0.236583 0,-0.06581 -0.02052,-0.123469 -0.06044,-0.173927 -0.04123,-0.04992 -0.108127,-0.07725 -0.203498,-0.07725 z M 8.8546542,23.838737 h 1.6462888 c 0.284823,0 0.508653,0.07357 0.672045,0.216621 0.162096,0.143983 0.244716,0.3229 0.244716,0.539152 0,0.237138 -0.09666,0.423633 -0.288336,0.557635 0.272995,0.310146 0.435091,0.713077 0.487768,1.207501 h -1.157042 c -0.02088,-0.319205 -0.06857,-0.553569 -0.143058,-0.705685 -0.07449,-0.151746 -0.189452,-0.227526 -0.3474823,-0.227526 v 0.933211 H 8.8546542 Z m 3.0343688,0 h 1.116748 v 2.521278 h -1.116748 z m 2.99925,0 h 1.115824 v 2.541423 h -0.845601 l -0.54174,-0.795696 v 0.773886 h -1.114899 v -2.519613 h 0.797915 l 0.588501,0.853733 z m 2.202444,0 h 1.589917 l 0.873694,2.520909 h -1.113605 l -0.145278,-0.427331 h -0.8188 l -0.143983,0.427331 h -1.116194 z m 5.151792,0 h 1.646658 c 0.285748,0 0.509578,0.07357 0.671676,0.216621 0.163389,0.143983 0.244716,0.3229 0.244716,0.539152 0,0.237138 -0.09537,0.423633 -0.287042,0.557635 0.271516,0.310146 0.433613,0.713077 0.486288,1.207501 h -1.157041 c -0.02052,-0.319205 -0.0682,-0.553569 -0.143059,-0.705685 -0.07319,-0.151746 -0.188896,-0.227526 -0.347297,-0.227526 v 0.933211 h -1.114899 z m 3.034923,0 h 1.116747 v 2.521278 h -1.116747 z m -5.365086,2.189877 c -0.253403,-0.245642 -0.380937,-0.550797 -0.380937,-0.911402 0,-0.380937 0.132524,-0.696259 0.396462,-0.94467 0.264309,-0.24749 0.599962,-0.372435 1.006775,-0.372435 0.176698,0 0.357832,0.02458 0.545805,0.07227 0.187972,0.04768 0.343786,0.112192 0.468731,0.194441 l -0.465957,0.889592 c -0.136776,-0.04768 -0.288338,-0.07228 -0.453206,-0.07228 -0.23566,0 -0.354322,0.0645 -0.354322,0.192964 0,0.06174 0.03364,0.1109 0.09944,0.145833 0.06542,0.03456 0.159325,0.05138 0.281497,0.05138 0.16487,0 0.306636,-0.02957 0.426406,-0.08909 l 0.465958,0.954097 c -0.131229,0.07856 -0.291108,0.141765 -0.477787,0.189452 -0.18668,0.04768 -0.365596,0.07171 -0.536749,0.07171 -0.427145,0 -0.768343,-0.124945 -1.022115,-0.371877 z m -3.744858,-8.944152 h 3.450052 v 1.718373 h -0.866116 v 2.163076 h -1.71745 V 18.802835 H 16.167488 Z M 16.4817,11.8787 h 3.192583 v 0.974615 h -1.476428 v 0.703836 h 1.09272 v 0.973134 h -1.09272 v 1.229309 H 16.4817 Z m 0.553753,-5.2063156 h 1.718373 V 10.553833 H 17.035453 Z M 6.9263132,23.84003 h 1.6217054 v 1.116195 H 7.9866871 v 1.401941 H 6.8708635 V 24.956225 H 6.3095323 v -0.04898 L 5.4058937,26.474058 H 30.376915 l -0.882752,-1.531879 0.491835,1.415989 h -1.1149 l -0.144352,-0.426034 h -0.818801 l -0.145277,0.426034 h -1.1149 l 0.87425,-2.518135 H 28.85816 L 17.892698,4.8471825 Z M 4.97302,26.556305 6.3095323,24.242038 V 23.840215 H 6.5424188 L 17.892514,4.1816038 30.953402,26.807491 H 4.8305152 Z M 3.4840225,27.582486 H 32.300081 L 17.891405,2.6279155 Z"
     id="path835"
     style="fill:#3f89aa;stroke-width:0.184831" />
  <polygon
     class="st1"
     points="26.199,133.372 85.531,30.614 144.856,133.372 146.23,133.372 148.298,139.335 153.075,147.616 17.973,147.616 22.862,139.146 22.862,135.547 15.631,148.068 14.86,149.426 156.195,149.426 85.531,27.012 24.123,133.372 "
     id="polygon837"
     style="fill:#73c1d4"
     transform="matrix(0.18483089,0,0,0.18483089,2.0839283,-0.8112324)" />
  <path
     class="st2"
     d="m 16.167488,17.084462 v 1.718373 h 0.866486 v 2.163076 h 1.71745 V 18.802835 H 19.61754 V 17.084462 Z M 16.4817,11.8787 v 3.881079 h 1.716155 v -1.22931 h 1.09272 v -0.973134 h -1.09272 v -0.703836 h 1.476428 V 11.878885 H 16.4817 Z m 0.553753,-1.324867 h 1.718373 V 6.6723844 h -1.718373 z"
     id="path839"
     style="fill:#412714;stroke-width:0.184831" />
  <path
     class="st2"
     d="M 8.5493128,23.838737 H 6.3082386 v 1.117672 h 0.5626249 v 1.403237 h 1.1158236 v -1.403237 h 0.5626257 z m 1.418762,0.517711 h 0.069497 c 0.09408,0 0.162098,0.02736 0.203499,0.07725 0.03993,0.05046 0.06045,0.108127 0.06045,0.173926 0,0.15803 -0.100358,0.236583 -0.301089,0.236583 H 9.9682726 V 24.356451 Z M 8.8546542,23.838737 v 2.520909 h 1.1148995 v -0.933211 c 0.1580303,0 0.2729953,0.07577 0.3474823,0.227526 0.07449,0.152116 0.122174,0.38648 0.143058,0.705685 h 1.157042 c -0.05267,-0.494608 -0.214773,-0.897355 -0.487768,-1.207501 0.191669,-0.134002 0.288336,-0.320683 0.288336,-0.557635 0,-0.216252 -0.08262,-0.395169 -0.244716,-0.539152 -0.163392,-0.143059 -0.387406,-0.216621 -0.672045,-0.216621 z m 3.0343688,2.521278 h 1.116748 v -2.521278 h -1.116748 z m 2.99925,-2.521278 v 0.853733 l -0.588501,-0.853733 h -0.797915 v 2.519613 h 1.114899 v -0.773886 l 0.54174,0.795696 h 0.845601 v -2.541423 z m 2.998141,0.87425 0.207011,0.625837 h -0.413281 z m -0.795697,-0.87425 -0.874249,2.520909 h 1.116194 l 0.143983,-0.427331 h 0.8188 l 0.145278,0.427331 h 1.113605 l -0.873694,-2.520909 z m 6.265214,0.517711 h 0.0695 c 0.09537,0 0.162096,0.02736 0.203498,0.07725 0.03993,0.05046 0.06044,0.108127 0.06044,0.173926 0,0.15803 -0.09906,0.236583 -0.299795,0.236583 h -0.03364 z m -1.113422,-0.517711 v 2.520909 h 1.114899 v -0.933211 c 0.158401,0 0.274289,0.07577 0.347297,0.227526 0.07504,0.152116 0.122545,0.38648 0.143059,0.705685 h 1.157041 c -0.05267,-0.494608 -0.214772,-0.897355 -0.486288,-1.207501 0.191668,-0.134002 0.287042,-0.320683 0.287042,-0.557635 0,-0.216252 -0.08133,-0.395169 -0.244716,-0.539152 -0.162098,-0.143059 -0.385928,-0.216621 -0.671676,-0.216621 z m 3.034923,2.521278 h 1.116747 v -2.521278 h -1.116747 z m 3.039914,-1.647028 0.205715,0.625837 h -0.411803 z m 0.794402,-0.87425 h -1.589915 l -0.874249,2.520909 h 1.114899 l 0.145277,-0.427331 h 0.8188 l 0.144354,0.427331 h 1.1149 l -0.491836,-1.417284 z m -9.184062,0.333805 c -0.263937,0.248411 -0.396462,0.563549 -0.396462,0.94467 0,0.360605 0.127534,0.66576 0.380937,0.911402 0.253772,0.247118 0.594971,0.371878 1.0223,0.371878 0.171153,0 0.350069,-0.02403 0.536749,-0.07171 0.186679,-0.04768 0.346558,-0.110898 0.477787,-0.189451 l -0.465958,-0.954102 c -0.11977,0.05951 -0.261536,0.08909 -0.426406,0.08909 -0.122172,0 -0.216251,-0.01682 -0.281497,-0.05138 -0.0658,-0.03494 -0.09944,-0.0841 -0.09944,-0.145833 0,-0.128457 0.118477,-0.192964 0.354322,-0.192964 0.164868,0 0.31643,0.02458 0.453206,0.07228 l 0.465957,-0.889583 c -0.124945,-0.08225 -0.280759,-0.146757 -0.468731,-0.194443 -0.187973,-0.04768 -0.369291,-0.07226 -0.545805,-0.07226 -0.406998,0 -0.742651,0.124945 -1.00696,0.372434 z"
     id="path841"
     style="fill:#412714;stroke-width:0.184831" />
</svg>
