<svg xmlns="http://www.w3.org/2000/svg" viewBox="0 0 36 36"><circle cx="18.03" cy="18.01" r="17.5" fill="#0189d1"/><path d="M17.68 25.339h.413l-.207-.626zm10.431 0h.412l-.206-.626zm-18.143-.983v.488H10c.201 0 .301-.078.301-.236a.272.272 0 0 0-.06-.174c-.041-.05-.11-.078-.204-.078zm13.388 0v.488h.034c.2 0 .3-.078.3-.236a.272.272 0 0 0-.061-.174c-.041-.05-.108-.078-.204-.078zM8.855 23.84H10.5c.285 0 .509.073.672.216a.692.692 0 0 1 .245.54.644.644 0 0 1-.289.557c.273.31.435.713.488 1.208H10.46c-.02-.32-.068-.554-.143-.706s-.19-.228-.347-.228v.934H8.855zm3.034 0h1.117v2.521h-1.117zm3 0h1.115v2.541h-.846l-.541-.796v.774h-1.115v-2.52h.798l.588.854zm2.202 0h1.59l.873 2.52h-1.113l-.146-.427h-.818l-.144.428h-1.117zm5.152 0h1.646c.286 0 .51.073.672.216a.688.688 0 0 1 .245.54.643.643 0 0 1-.287.557c.271.31.433.713.486 1.208h-1.157c-.02-.32-.068-.554-.143-.706s-.19-.228-.348-.228v.934h-1.114zm3.034 0h1.117v2.521h-1.117zm-5.365 2.19a1.222 1.222 0 0 1-.38-.912 1.24 1.24 0 0 1 .396-.944c.264-.248.6-.373 1.007-.373.176 0 .357.025.545.072s.344.113.47.195l-.467.89a1.371 1.371 0 0 0-.453-.073c-.236 0-.354.065-.354.193 0 .062.033.111.1.146a.616.616 0 0 0 .28.051c.166 0 .307-.03.427-.089l.466.954a1.795 1.795 0 0 1-.478.19 2.169 2.169 0 0 1-.537.071c-.427 0-.768-.124-1.022-.371zm-3.745-8.945h3.45v1.719h-.866v2.163h-1.717v-2.163h-.867zm.315-5.205h3.192v.974h-1.476v.704h1.093v.973h-1.093v1.23h-1.716zm.553-5.207h1.719v3.882h-1.719zM6.926 23.84h1.622v1.116h-.561v1.402H6.87v-1.402h-.56v-.049l-.904 1.567h24.97l-.882-1.532.492 1.416h-1.115l-.144-.426h-.82l-.144.426h-1.115l.874-2.518h1.336L17.893 4.847zm-1.953 2.716l1.337-2.314v-.402h.232l11.35-19.658 13.061 22.625H4.831zm-1.489 1.026H32.3L17.891 2.628z" fill="#3f89aa"/><path fill="#73c1d4" d="M6.926 23.84L17.893 4.847 28.858 23.84h.254l.382 1.102.883 1.53H5.406l.904-1.565v-.665l-1.337 2.314-.142.251h26.123L17.893 4.182 6.543 23.84z"/><path d="M16.167 17.084v1.719h.867v2.163h1.717v-2.163h.867v-1.719zm.315-5.205v3.88h1.716V14.53h1.093v-.973h-1.093v-.704h1.476v-.974h-3.192zm.553-1.325h1.719V6.672h-1.719zM8.55 23.839H6.307v1.117h.563v1.404h1.116v-1.404h.562zm1.418.517h.07c.094 0 .162.028.203.078a.27.27 0 0 1 .06.174c0 .158-.1.236-.3.236h-.033v-.488zm-1.113-.517v2.52H9.97v-.933c.158 0 .273.076.347.228s.122.386.143.706h1.157c-.053-.495-.215-.898-.488-1.208a.645.645 0 0 0 .289-.557.692.692 0 0 0-.245-.54c-.163-.143-.387-.216-.672-.216zm3.034 2.521h1.117v-2.521h-1.117zm3-2.521v.853l-.59-.853h-.797v2.52h1.115v-.775l.541.796h.846v-2.54zm2.997.874l.207.626h-.413zm-.795-.874l-.875 2.52h1.117l.144-.427h.818l.146.428h1.113l-.873-2.521zm6.265.517h.07c.095 0 .162.028.203.078a.27.27 0 0 1 .06.174c0 .158-.099.236-.3.236h-.033zm-1.113-.517v2.52h1.114v-.933c.159 0 .275.076.348.228s.122.386.143.706h1.157c-.053-.495-.215-.898-.486-1.208a.644.644 0 0 0 .287-.557.688.688 0 0 0-.245-.54c-.162-.143-.386-.216-.672-.216zm3.034 2.521h1.117v-2.521h-1.117zm3.04-1.647l.206.626h-.412zm.795-.874h-1.59l-.874 2.52h1.114l.146-.427h.819l.144.428h1.115l-.492-1.418zm-9.184.334a1.242 1.242 0 0 0-.397.944c0 .36.128.666.381.912s.595.371 1.022.371a2.2 2.2 0 0 0 .537-.071c.187-.048.347-.111.478-.19l-.466-.954a.947.947 0 0 1-.426.09.615.615 0 0 1-.282-.052c-.066-.035-.1-.084-.1-.146 0-.128.12-.193.355-.193a1.39 1.39 0 0 1 .453.072l.466-.89a1.535 1.535 0 0 0-.469-.194 2.215 2.215 0 0 0-.545-.072c-.407 0-.743.125-1.007.373z" fill="#412714"/></svg>