<?xml version="1.0" encoding="UTF-8" standalone="no"?>
<svg
   xmlns:dc="http://purl.org/dc/elements/1.1/"
   xmlns:cc="http://creativecommons.org/ns#"
   xmlns:rdf="http://www.w3.org/1999/02/22-rdf-syntax-ns#"
   xmlns:svg="http://www.w3.org/2000/svg"
   xmlns="http://www.w3.org/2000/svg"
   xmlns:sodipodi="http://sodipodi.sourceforge.net/DTD/sodipodi-0.dtd"
   xmlns:inkscape="http://www.inkscape.org/namespaces/inkscape"
   version="1.0"
   id="Layer_1"
   x="0px"
   y="0px"
   viewBox="0 0 170.08 170.08"
   style="enable-background:new 0 0 170.08 170.08;"
   xml:space="preserve"
   sodipodi:docname="RCS.svg"
   inkscape:version="1.0.1 (c497b03c, 2020-09-10)"><metadata
   id="metadata2295"><rdf:RDF><cc:Work
       rdf:about=""><dc:format>image/svg+xml</dc:format><dc:type
         rdf:resource="http://purl.org/dc/dcmitype/StillImage" /><dc:title></dc:title></cc:Work></rdf:RDF></metadata><defs
   id="defs2293" /><sodipodi:namedview
   pagecolor="#ffffff"
   bordercolor="#666666"
   borderopacity="1"
   objecttolerance="10"
   gridtolerance="10"
   guidetolerance="10"
   inkscape:pageopacity="0"
   inkscape:pageshadow="2"
   inkscape:window-width="1792"
   inkscape:window-height="1067"
   id="namedview2291"
   showgrid="false"
   inkscape:zoom="5.0505644"
   inkscape:cx="85.04"
   inkscape:cy="85.04"
   inkscape:window-x="0"
   inkscape:window-y="25"
   inkscape:window-maximized="1"
   inkscape:current-layer="Layer_1" />
<style
   type="text/css"
   id="style2278">
	.st0{fill:#F3921E;}
	.st1{fill:#EB5924;}
	.st2{fill:#3F1F0C;}
</style>
<path
   class="st0"
   d="M85.153,158.211v-0.025h-0.287v0.025l-0.795-0.006c-19.612-0.252-37.357-8.32-50.29-21.244  c-13.132-13.138-21.25-31.239-21.25-51.23c0-19.988,8.118-38.089,21.25-51.221c13.138-13.129,31.239-21.256,51.23-21.256  c19.988,0,38.089,8.128,51.227,21.256c13.132,13.132,21.25,31.233,21.25,51.221c0,19.991-8.118,38.092-21.25,51.23  c-12.933,12.924-30.675,20.991-50.29,21.244L85.153,158.211z M84.866,163.685v0.029h0.287v-0.029l0.868-0.009  c42.528-0.543,76.932-35.29,76.942-77.945c-0.009-42.992-34.959-77.942-77.951-77.942c-42.996,0-77.945,34.95-77.954,77.942  c0.009,42.654,34.413,77.402,76.951,77.945L84.866,163.685z"
   id="path2280" />
<ellipse
   class="st1"
   cx="85.012"
   cy="85.731"
   rx="71.34"
   ry="71.336"
   id="ellipse2282" />
<path
   class="st2"
   d="M41.571,48.519h-2.237V26.846l2.568,0.136c0.966,0.044,2.054,0.24,3.281,0.59  c1.224,0.347,2.272,1.565,3.149,3.638c0.874,2.076,1.313,4.196,1.313,6.332c0,2.631-0.429,5.02-1.278,7.156  c-0.849,2.145-2.111,3.354-3.774,3.613C43.805,48.446,42.795,48.519,41.571,48.519z M42.098,49.762  c0.921,0.044,1.77,0.268,2.559,0.688c0.786,0.41,1.42,1.896,1.902,4.446l1.218,8.39c0.502,3.307,1.814,5.992,3.934,8.03  c2.13,2.038,4.963,3.058,8.506,3.058c2.272,0,4.382-0.429,6.332-1.278c1.95-0.849,3.452-1.966,4.499-3.354  c1.044-1.376,1.707-2.691,1.966-3.963c0.268-1.268,0.394-2.979,0.394-5.124h-1.048c0,1.877-0.186,3.559-0.562,5.017  c-0.366,1.467-1.127,2.202-2.262,2.202c-0.877,0-1.559-0.404-2.032-1.218c-0.483-0.814-1.029-2.19-1.644-4.149  c-0.619-1.959-1.413-3.758-2.398-5.402c-0.984-1.647-2.086-2.89-3.31-3.72c-1.234-0.842-2.594-1.477-4.105-1.915  c-1.511-0.438-3.382-0.896-5.616-1.379v-0.464c3.676,0,6.358-0.303,8.039-0.921c1.691-0.609,3.095-1.467,4.241-2.559  c1.136-1.088,1.975-2.404,2.521-3.944c0.546-1.527,0.823-3.057,0.823-4.588c0-2.057-0.473-3.862-1.414-5.421  c-0.94-1.546-2.208-2.852-3.802-3.906c-1.6-1.048-3.666-1.745-6.206-2.095c-2.54-0.347-5.84-0.527-9.91-0.527l-29.343,0.063v1.054  l1.966,0.101l2.496,0.221c0.959,0.136,1.71,0.483,2.228,1.057c0.527,0.562,0.858,1.546,0.984,2.95l0.132,3.023V65.25l-0.132,3.013  c-0.126,1.404-0.448,2.379-0.95,2.925c-0.498,0.546-1.19,0.877-2.063,0.984l-2.764,0.366h-2.041v1.048h31.52v-1.048l-3.345-0.268  c-1.36-0.17-2.319-0.562-2.89-1.18c-0.571-0.609-0.921-1.619-1.048-3.013l-0.132-3.022V49.689L42.098,49.762z"
   id="path2284" />
<path
   class="st2"
   d="M110.24,109.495c3.373-3.461,5.357-7.815,5.976-13.065l-1.12-0.199c-0.786,4.644-2.388,8.408-4.792,11.299  c-2.408,2.887-5.6,4.326-9.589,4.326c-4.285,0-7.531-2.262-9.74-6.787c-2.218-4.534-3.316-9.882-3.316-16.053  c0-5.733,0.921-10.75,2.754-15.034c1.843-4.285,4.657-6.43,8.469-6.43c2.934,0,5.338,0.874,7.219,2.619  c1.887,1.754,3.228,3.568,4.042,5.446c0.805,1.89,2.174,5.502,4.095,10.841h1.117V65.708h-1.303  c-0.18,1.663-0.483,2.941-0.921,3.846c-0.439,0.893-1.316,1.341-2.631,1.341l-6.957-3.934c-2.36-1.101-5.162-1.647-8.399-1.647  c-7.576,0-13.756,2.291-18.549,6.859c-4.792,4.572-7.181,10.519-7.181,17.827c0,7.137,2.414,13.031,7.254,17.691  c4.831,4.657,11.008,6.992,18.54,6.992C101.86,114.682,106.867,112.956,110.24,109.495z"
   id="path2286" />
<path
   class="st2"
   d="M152.187,125.539c-1.843-2.556-4.187-4.496-7.058-5.84c-2.862-1.331-5.635-2.502-8.308-3.515l-6.269-2.486  c-1.505-0.659-2.837-1.546-4.001-2.663c-1.161-1.111-1.742-2.505-1.742-4.168c0-1.574,0.767-2.89,2.288-3.934  c1.53-1.057,3.193-1.574,4.982-1.574c2.666,0,4.947,0.492,6.843,1.473c1.896,0.984,3.818,2.594,5.758,4.821  c1.94,2.237,3.246,4.25,3.928,6.045l1.35,3.802h1.18v-17.404h-1.253c0,1.584-0.195,2.915-0.59,3.988  c-0.394,1.063-1.224,1.603-2.496,1.603l-6.825-3.811c-2.36-1.18-4.792-1.77-7.288-1.77c-4.509,0-8.488,1.492-11.949,4.471  c-3.452,2.969-5.187,6.601-5.187,10.895c0,5.465,1.644,9.184,4.928,11.15c3.281,2.022,6.386,3.616,9.317,4.796l8.336,3.319  c2.631,1.025,4.446,2.092,5.449,3.184c1.009,1.088,1.511,2.584,1.511,4.461c0,1.574-0.682,2.934-2.032,4.07  c-1.36,1.145-3.111,1.707-5.25,1.707c-3.729,0-6.992-0.956-9.819-2.887c-2.817-1.925-5.099-4.338-6.824-7.254  c-1.726-2.906-2.906-5.411-3.543-7.513l-1.35-4.534h-1.126v23.512h1.126c0.306-2.593,0.637-4.427,0.984-5.528  c0.36-1.092,1.253-1.637,2.701-1.637c0.574,0,2.695,1.19,6.377,3.578c3.686,2.389,7.408,3.578,11.182,3.578  c4.291,0,8.273-1.385,11.939-4.168c3.657-2.783,5.484-6.332,5.484-10.671C154.942,131.139,154.027,128.107,152.187,125.539z"
   id="path2288" />
</svg>
