<svg xmlns="http://www.w3.org/2000/svg" viewBox="0 0 170.08 170.08"><path d="M85.153 158.211v-.025h-.287v.025l-.795-.006c-19.612-.252-37.357-8.32-50.29-21.244-13.132-13.138-21.25-31.239-21.25-51.23s8.118-38.089 21.25-51.221c13.138-13.129 31.239-21.256 51.23-21.256s38.089 8.128 51.227 21.256c13.132 13.132 21.25 31.233 21.25 51.221s-8.118 38.092-21.25 51.23c-12.933 12.924-30.675 20.991-50.29 21.244l-.795.006zm-.287 5.474v.029h.287v-.029l.868-.009c42.528-.543 76.932-35.29 76.942-77.945-.009-42.992-34.959-77.942-77.951-77.942S7.067 42.739 7.058 85.731c.009 42.654 34.413 77.402 76.951 77.945l.857.009z" fill="#f3921e"/><ellipse cx="85.012" cy="85.731" rx="71.34" ry="71.336" fill="#eb5924"/><path d="M41.571 48.519h-2.237V26.846l2.568.136c.966.044 2.054.24 3.281.59s2.272 1.565 3.149 3.638 1.313 4.196 1.313 6.332c0 2.631-.429 5.02-1.278 7.156-.849 2.145-2.111 3.354-3.774 3.613-.788.135-1.798.208-3.022.208zm.527 1.243c.921.044 1.77.268 2.559.688.786.41 1.42 1.896 1.902 4.446l1.218 8.39c.502 3.307 1.814 5.992 3.934 8.03 2.13 2.038 4.963 3.058 8.506 3.058 2.272 0 4.382-.429 6.332-1.278s3.452-1.966 4.499-3.354c1.044-1.376 1.707-2.691 1.966-3.963.268-1.268.394-2.979.394-5.124H72.36c0 1.877-.186 3.559-.562 5.017-.366 1.467-1.127 2.202-2.262 2.202-.877 0-1.559-.404-2.032-1.218-.483-.814-1.029-2.19-1.644-4.149s-1.413-3.758-2.398-5.402-2.086-2.89-3.31-3.72a14.242 14.242 0 0 0-4.105-1.915l-5.616-1.379v-.464c3.676 0 6.358-.303 8.039-.921 1.691-.609 3.095-1.467 4.241-2.559 1.136-1.088 1.975-2.404 2.521-3.944.546-1.527.823-3.057.823-4.588 0-2.057-.473-3.862-1.414-5.421-.94-1.546-2.208-2.852-3.802-3.906-1.6-1.048-3.666-1.745-6.206-2.095s-5.84-.527-9.91-.527l-29.343.063v1.054l1.966.101 2.496.221c.959.136 1.71.483 2.228 1.057.527.562.858 1.546.984 2.95l.132 3.023V65.25l-.132 3.013c-.126 1.404-.448 2.379-.95 2.925s-1.19.877-2.063.984l-2.764.366h-2.041v1.048h31.52v-1.048l-3.345-.268c-1.36-.17-2.319-.562-2.89-1.18-.571-.609-.921-1.619-1.048-3.013l-.132-3.022V49.689l2.757.073zm68.142 59.733c3.373-3.461 5.357-7.815 5.976-13.065l-1.12-.199c-.786 4.644-2.388 8.408-4.792 11.299s-5.6 4.326-9.589 4.326c-4.285 0-7.531-2.262-9.74-6.787-2.218-4.534-3.316-9.882-3.316-16.053 0-5.733.921-10.75 2.754-15.034 1.843-4.285 4.657-6.43 8.469-6.43 2.934 0 5.338.874 7.219 2.619 1.887 1.754 3.228 3.568 4.042 5.446.805 1.89 2.174 5.502 4.095 10.841h1.117v-20.75h-1.303c-.18 1.663-.483 2.941-.921 3.846-.439.893-1.316 1.341-2.631 1.341l-6.957-3.934c-2.36-1.101-5.162-1.647-8.399-1.647-7.576 0-13.756 2.291-18.549 6.859S69.414 82.692 69.414 90c0 7.137 2.414 13.031 7.254 17.691 4.831 4.657 11.008 6.992 18.54 6.992 6.652-.001 11.659-1.727 15.032-5.188zm41.947 16.044a17.9 17.9 0 0 0-7.058-5.84 123.702 123.702 0 0 0-8.308-3.515l-6.269-2.486a13.61 13.61 0 0 1-4.001-2.663c-1.161-1.111-1.742-2.505-1.742-4.168 0-1.574.767-2.89 2.288-3.934a8.58 8.58 0 0 1 4.982-1.574c2.666 0 4.947.492 6.843 1.473s3.818 2.594 5.758 4.821c1.94 2.237 3.246 4.25 3.928 6.045l1.35 3.802h1.18v-17.404h-1.253c0 1.584-.195 2.915-.59 3.988-.394 1.063-1.224 1.603-2.496 1.603l-6.825-3.811c-2.36-1.18-4.792-1.77-7.288-1.77-4.509 0-8.488 1.492-11.949 4.471-3.452 2.969-5.187 6.601-5.187 10.895 0 5.465 1.644 9.184 4.928 11.15 3.281 2.022 6.386 3.616 9.317 4.796l8.336 3.319c2.631 1.025 4.446 2.092 5.449 3.184 1.009 1.088 1.511 2.584 1.511 4.461 0 1.574-.682 2.934-2.032 4.07-1.36 1.145-3.111 1.707-5.25 1.707-3.729 0-6.992-.956-9.819-2.887-2.817-1.925-5.099-4.338-6.824-7.254-1.726-2.906-2.906-5.411-3.543-7.513l-1.35-4.534h-1.126v23.512h1.126c.306-2.593.637-4.427.984-5.528.36-1.092 1.253-1.637 2.701-1.637.574 0 2.695 1.19 6.377 3.578s7.408 3.578 11.182 3.578c4.291 0 8.273-1.385 11.939-4.168 3.657-2.783 5.484-6.332 5.484-10.671.002-3.496-.913-6.528-2.753-9.096z" fill="#3f1f0c"/></svg>