<svg xmlns="http://www.w3.org/2000/svg" viewBox="0 0 36 36"><circle cx="18.03" cy="18.01" r="17.5" fill="pink"/><path fill="#d79cc6" d="M28.063 13.961v7.193l6.228-3.596z"/><path d="M28.158 20.988v-6.863l5.944 3.432zm-.182.156l-.01.01.01.009v.138l6.487-3.744-6.487-3.744z" fill="#3f1f0c"/><path fill="#d79cc6" d="M12.058 11.554h11.836L17.978 8.14z"/><path d="M23.539 11.458H12.412l5.565-3.211zm-11.804.183v.005l.004.004 12.477-.004.003-.008-.002-.005-6.144-3.55-.101-.049-.093.05-6.144 3.549z" fill="#3f1f0c"/><path fill="#d79cc6" d="M23.274 23.92H12.679l5.295 3.056z"/><path d="M12.356 23.827l-.002.009.001.005 5.524 3.19.092.06.1-.06 5.527-3.195-.002-.01-.003-.002H12.36zm.677.187h9.886l-4.945 2.853z" fill="#3f1f0c"/><path fill="#d79cc6" d="M7.124 20.712v-6.31l-5.463 3.156z"/><g fill="#3f1f0c"><path d="M7.03 14.568v5.98l-5.18-2.99zm.18-.156l.01-.01-.01-.009v-.139l-5.72 3.303 5.72 3.303z"/><path d="M25.522 16.8v.073a.68.68 0 00.137.418c.092.12.226.204.403.254l.295.056c.193.037.345.077.457.12.111.042.204.11.279.199a.553.553 0 01.113.368.571.571 0 01-.154.395.685.685 0 00.077-.301.572.572 0 00-.1-.336.588.588 0 00-.278-.213 1.71 1.71 0 00-.351-.086l-.388-.078a.695.695 0 01-.242-.112.742.742 0 01-.28-.567c0-.062.011-.143.033-.244zm.085 1.777l.067.11.088.113a.307.307 0 00-.14.018.3.3 0 00-.1.098v-.53zm1.239-1.958l-.118-.154-.13-.114.145.022a.364.364 0 00.124-.022l.06.38zm-1.385 2.406h.106a.28.28 0 01.237-.121.8.8 0 01.258.064l.236.085a.707.707 0 00.205.021c.16 0 .305-.04.436-.123a.848.848 0 00.304-.33.954.954 0 00.107-.447.856.856 0 00-.117-.445.806.806 0 00-.33-.307 1.154 1.154 0 00-.312-.097l-.446-.092a.864.864 0 01-.375-.16c-.085-.07-.127-.17-.127-.304a.508.508 0 01.505-.508c.18 0 .338.065.471.192.134.128.261.314.384.557h.129l-.08-.816h-.141a.396.396 0 01-.19.048 1.5 1.5 0 01-.258-.037 1.44 1.44 0 00-.297-.036.69.69 0 00-.537.244.896.896 0 00-.141.878.69.69 0 00.174.251.83.83 0 00.275.164c.07.026.188.052.355.082.166.029.3.06.402.094.102.033.19.093.263.177a.52.52 0 01.11.353c0 .16-.055.293-.165.397a.566.566 0 01-.4.154.686.686 0 01-.357-.103 1.043 1.043 0 01-.315-.316 2.14 2.14 0 01-.247-.528h-.123v1.009zm-2.648-.25l.1-.17-.003.067c0 .098.04.179.118.246h-.357zm1.72-.026a.16.16 0 01-.048.117.178.178 0 01-.136.051h-.04l.082-.076c.013-.018.02-.045.02-.084 0-.06-.02-.142-.062-.248l-.659-1.798a.807.807 0 00-.087-.181.3.3 0 00-.135-.106l.088-.008c.06 0 .108.019.143.058a.587.587 0 01.101.191l.665 1.798a.95.95 0 01.068.286m-.89-1.98l.398 1.071h-.792zm.706 1.976c0 .061-.024.102-.07.123a.787.787 0 01-.217.048v.11h1.11v-.11a.493.493 0 01-.23-.106.742.742 0 01-.149-.27l-.862-2.347h-.172l-.448.164v.097a.432.432 0 01.164.045.314.314 0 01.107.126l-.646 1.76c-.118.324-.273.5-.466.532v.11h.863v-.11a.281.281 0 01-.22-.108.372.372 0 01-.08-.234c0-.093.017-.183.049-.269l.123-.338h.882l.208.569a.557.557 0 01.054.208m-3.925.184l-.214-.108a1.117 1.117 0 01-.217-.179 1.31 1.31 0 01-.27-.458 1.551 1.551 0 01.134-1.37 1.44 1.44 0 01.256-.318 1.08 1.08 0 01.305-.197l.212-.062-.222.118c-.063.038-.13.092-.2.162a1.588 1.588 0 00-.34.517 1.452 1.452 0 00-.027 1.108 1.511 1.511 0 00.538.695l.313.172zm1.146-.895a.42.42 0 00-.106-.115c.083.009.143.03.181.063a.212.212 0 01.071.133l.014.284a.805.805 0 01-.034.259.34.34 0 01-.116.162.597.597 0 01-.228.096.472.472 0 00.193-.196.522.522 0 00.06-.24v-.261a.382.382 0 00-.035-.185m-.142-1.677l.058.015.074.016.075.004a.366.366 0 00.139-.035l.026.361a1.55 1.55 0 00-.372-.361m.414-.174c-.044.067-.125.1-.24.1a2.07 2.07 0 01-.315-.057 1.972 1.972 0 00-.442-.058c-.19 0-.365.04-.524.12-.16.08-.295.189-.408.327-.113.14-.2.297-.26.476a1.702 1.702 0 000 1.101c.061.176.152.33.271.464.12.133.267.237.442.312.175.073.371.11.589.11.118 0 .237-.01.359-.035a2.434 2.434 0 00.693-.251v-.443c0-.128.007-.219.024-.273a.167.167 0 01.096-.111.9.9 0 01.257-.047v-.114h-1.211v.114c.121.01.207.026.257.048a.16.16 0 01.095.114c.012.054.02.148.02.28l-.016.214a.418.418 0 01-.065.16.467.467 0 01-.188.154.62.62 0 01-.267.059.706.706 0 01-.452-.166 1.124 1.124 0 01-.33-.47c-.082-.2-.122-.43-.122-.686a2 2 0 01.11-.689c.075-.2.18-.356.314-.469a.692.692 0 01.458-.168.763.763 0 01.505.186c.077.063.151.143.223.24.072.1.137.21.194.334h.1l-.031-.876h-.136zm-4.837 2.592l.102-.17-.004.067c0 .098.04.179.118.246h-.358zm1.72-.026a.161.161 0 01-.048.117.177.177 0 01-.135.051h-.04l.081-.076c.014-.018.02-.045.02-.084a.74.74 0 00-.061-.248l-.66-1.798a.826.826 0 00-.087-.181.304.304 0 00-.134-.106l.087-.008a.18.18 0 01.144.058.563.563 0 01.1.191l.665 1.798a.947.947 0 01.069.286m-.89-1.98l.398 1.071h-.792zm.706 1.976c0 .061-.024.102-.071.123a.783.783 0 01-.216.048v.11h1.11v-.11a.49.49 0 01-.23-.106.76.76 0 01-.15-.27l-.862-2.347h-.172l-.447.164v.097a.424.424 0 01.164.045.323.323 0 01.107.126l-.646 1.76c-.118.324-.273.5-.467.531v.11h.864v-.11a.281.281 0 01-.22-.107.371.371 0 01-.08-.235c0-.092.017-.182.05-.268l.122-.338h.882l.208.569a.56.56 0 01.054.208m-2.926-1.342c.066-.089.098-.224.098-.404a.87.87 0 00-.082-.41.596.596 0 00-.252-.246c.147.023.26.088.34.196a.72.72 0 01.119.436.692.692 0 01-.134.447.573.573 0 01-.384.198.66.66 0 00.296-.217m-.385.403l.046.063.267.334.253.337.228.263a.95.95 0 00.221.165.653.653 0 01-.174-.03.577.577 0 01-.19-.117 1.515 1.515 0 01-.23-.26l-.27-.371-.223-.29-.156-.162h.153zm-.539-1.31a.2.2 0 01.098-.124.456.456 0 01.217-.04c.095 0 .172.005.234.02.06.012.119.039.174.08.158.117.237.299.237.547 0 .21-.052.365-.153.467a.584.584 0 01-.225.132.914.914 0 01-.303.054h-.303v-.898a.95.95 0 01.024-.239m-.448-.043c-.017-.05-.058-.091-.123-.12.078-.006.137.005.174.03a.174.174 0 01.073.116c.011.053.018.13.018.233v2.004c0 .13-.084.197-.247.201.086-.047.13-.132.13-.257V16.7a.875.875 0 00-.025-.247m.836 2.464l-.118-.008-.132-.026c-.068-.02-.112-.055-.131-.103a.53.53 0 01-.03-.197v-.842h.206c.045 0 .096.032.155.096l.27.346.26.355.223.271a.8.8 0 00.203.16.474.474 0 00.227.058h.351v-.11l-.125-.057-.118-.097-.121-.133-.152-.19-.057-.069-.038-.044-.184-.233-.317-.388a.972.972 0 00.3-.1.828.828 0 00.222-.169.683.683 0 00.083-.84.741.741 0 00-.314-.272 1.096 1.096 0 00-.485-.104h-1.472v.112a.91.91 0 01.28.037c.059.02.096.058.115.11.018.05.027.129.027.236v1.855c0 .1-.01.173-.032.219a.186.186 0 01-.12.097 1.107 1.107 0 01-.27.03v.11h1.294zm-3.774-.144a.162.162 0 01-.059.105c-.032.025-.086.04-.161.04h-.047c.063-.029.105-.063.126-.104a.51.51 0 00.03-.211v-1.876a.987.987 0 00-.025-.288c-.017-.043-.056-.078-.117-.107.115-.002.187.022.217.07.03.048.046.146.046.291v1.878zm1.562-.015a.15.15 0 01-.047.111.162.162 0 01-.12.05h-.05c.061-.035.092-.08.092-.137a.27.27 0 00-.038-.133l-.12-.171-.701-.954.084-.082.754 1.01c.098.128.146.23.146.306m-.022-2.316l-.2.184a.31.31 0 00.028-.123c0-.063-.029-.12-.088-.172h.438a.792.792 0 00-.178.111m-.459-.11c.071 0 .128.019.166.055a.19.19 0 01.059.146c0 .055-.02.113-.064.176a1.411 1.411 0 01-.192.213l-.757.721v-.99c0-.115.023-.198.07-.247.046-.05.142-.074.287-.074h.026v-.11H10.71v.11c.126 0 .218.012.279.036.06.024.099.06.118.106a.583.583 0 01.028.203v1.869a.795.795 0 01-.022.21.198.198 0 01-.1.119.527.527 0 01-.244.042h-.059v.11h1.274v-.11l-.07-.007-.102-.01c-.08-.008-.135-.042-.166-.099a.548.548 0 01-.045-.248v-.761l.233-.223.738.984.08.118.03.103c0 .095-.099.143-.298.143v.11h1.255v-.11a.501.501 0 01-.16-.047.538.538 0 01-.133-.102l-.175-.215-.988-1.318.45-.423.287-.243c.083-.064.17-.117.255-.158a.875.875 0 01.255-.079v-.111h-1.115v.111h.073zm-4.172 2.444l.102-.17-.003.067a.31.31 0 00.117.246h-.358zm1.72-.026a.161.161 0 01-.048.117.176.176 0 01-.134.051h-.041l.081-.076c.014-.018.02-.045.02-.084a.76.76 0 00-.06-.248l-.66-1.798a.807.807 0 00-.088-.181.297.297 0 00-.134-.106l.087-.008a.18.18 0 01.144.058.552.552 0 01.1.191l.666 1.798a.957.957 0 01.068.286m-.89-1.98l.397 1.071h-.791zm.707 1.976c0 .061-.024.102-.072.123a.775.775 0 01-.216.048v.11h1.11v-.11a.493.493 0 01-.23-.106.743.743 0 01-.148-.27l-.864-2.347h-.172l-.447.164v.097a.42.42 0 01.164.045.304.304 0 01.107.126l-.646 1.76c-.118.324-.273.5-.467.532v.11h.865v-.11a.28.28 0 01-.221-.108.369.369 0 01-.08-.234c0-.093.017-.183.049-.269l.124-.338h.88l.209.569a.561.561 0 01.055.208m16.991 5.09v-.005h-.036v.005H8.459a1.256 1.256 0 01-1.25-1.253V12.89c.001-.69.56-1.25 1.25-1.252h18.268c.69.003 1.249.561 1.251 1.252v9.692a1.257 1.257 0 01-1.22 1.253h-.013zm-.036.17v.003h.036v-.002h.019a1.424 1.424 0 001.385-1.424V12.89c0-.785-.636-1.422-1.422-1.422H8.459c-.784 0-1.422.637-1.422 1.422v9.692c0 .786.638 1.423 1.422 1.423h18.25z"/><path d="M7.123 12.803h20.941v.174H7.123zm0 1.711h20.941v.174H7.123z"/><path d="M10.992 12.551h.194v2.429h-.194zm1.626 0h.194v2.429h-.194zm1.626 0h.194v2.429h-.194zm1.626 0h.194v2.429h-.194zm1.627 0h.194v2.429h-.194zm1.626 0h.194v2.429h-.194zm1.626 0h.194v2.429h-.194zm1.626 0h.194v2.429h-.194zm1.626 0h.194v2.429h-.194zm1.626 0h.194v2.429h-.194zm1.626 0h.194v2.429h-.194zm-20.13 8.125h20.941v.174H7.123zm0 1.712h20.941v.174H7.123z"/><path d="M10.992 20.424h.194v2.428h-.194zm1.626 0h.194v2.428h-.194zm1.626 0h.194v2.428h-.194zm1.626 0h.194v2.428h-.194zm1.627 0h.194v2.428h-.194zm1.626 0h.194v2.428h-.194zm1.626 0h.194v2.428h-.194zm1.626 0h.194v2.428h-.194zm1.626 0h.194v2.428h-.194zm1.626 0h.194v2.428h-.194zm1.626 0h.194v2.428h-.194zM7.82 12.551h.194v2.429H7.82zm1.626 0h.194v2.429h-.194zM7.82 20.424h.194v2.428H7.82zm1.626 0h.194v2.428h-.194z"/></g></svg>