<?xml version="1.0" encoding="UTF-8" standalone="no"?>
<svg
   xmlns:dc="http://purl.org/dc/elements/1.1/"
   xmlns:cc="http://creativecommons.org/ns#"
   xmlns:rdf="http://www.w3.org/1999/02/22-rdf-syntax-ns#"
   xmlns:svg="http://www.w3.org/2000/svg"
   xmlns="http://www.w3.org/2000/svg"
   xmlns:sodipodi="http://sodipodi.sourceforge.net/DTD/sodipodi-0.dtd"
   xmlns:inkscape="http://www.inkscape.org/namespaces/inkscape"
   id="Layer_1"
   data-name="Layer 1"
   viewBox="0 0 36 36"
   version="1.1"
   sodipodi:docname="SFA.svg"
   inkscape:version="1.0.1 (c497b03c, 2020-09-10)">
  <metadata
     id="metadata172">
    <rdf:RDF>
      <cc:Work
         rdf:about="">
        <dc:format>image/svg+xml</dc:format>
        <dc:type
           rdf:resource="http://purl.org/dc/dcmitype/StillImage" />
        <dc:title />
      </cc:Work>
    </rdf:RDF>
  </metadata>
  <sodipodi:namedview
     pagecolor="#ffffff"
     bordercolor="#666666"
     borderopacity="1"
     objecttolerance="10"
     gridtolerance="10"
     guidetolerance="10"
     inkscape:pageopacity="0"
     inkscape:pageshadow="2"
     inkscape:window-width="1730"
     inkscape:window-height="1009"
     id="namedview170"
     showgrid="false"
     inkscape:zoom="16.178611"
     inkscape:cx="13.353363"
     inkscape:cy="16.973292"
     inkscape:window-x="0"
     inkscape:window-y="25"
     inkscape:window-maximized="0"
     inkscape:current-layer="Layer_1"
     inkscape:document-rotation="0"
     inkscape:snap-global="true"
     inkscape:snap-bbox="false" />
  <defs
     id="defs161">
    <style
       id="style159">.cls-1{fill:#d81e3e;}.cls-2{fill:#fff;}</style>
  </defs>
  <circle
     class="cls-1"
     cx="18.03"
     cy="18.01"
     r="17.5"
     id="circle163"
     style="fill:#ffc0cb;fill-opacity:1" />
  <text
     xml:space="preserve"
     style="font-style:normal;font-weight:normal;font-size:40px;line-height:1.25;font-family:sans-serif;white-space:pre;inline-size:42.8504;fill:#000000;fill-opacity:1;stroke:none"
     x="11.363265"
     y="14.644898"
     id="text176"><tspan
       style="visibility:hidden"
       x="11.363265"
       y="14.644898"><tspan
         dx="0 27.34375 22.96875">AFG</tspan></tspan></text>
  <polygon
     class="st0"
     points="132.665,69.118 132.665,103.124 162.114,86.121 "
     id="polygon1467"
     style="fill:#d79cc6"
     transform="matrix(0.21149885,0,0,0.21149885,0.00407387,-0.65723516)" />
  <path
     class="st1"
     d="m 28.158166,20.988404 v -6.863561 l 5.943964,3.432414 z m -0.182523,0.156086 -0.0093,0.0089 0.0093,0.0093 v 0.138743 l 6.487305,-3.744165 -6.487305,-3.744164 z"
     id="path1469"
     style="fill:#3f1f0c;stroke-width:0.211499" />
  <polygon
     class="st0"
     points="56.993,57.736 112.955,57.736 84.982,41.588 "
     id="polygon1471"
     style="fill:#d79cc6"
     transform="matrix(0.21149885,0,0,0.21149885,0.00407387,-0.65723516)" />
  <path
     class="st1"
     d="M 23.53882,11.458477 H 12.412289 l 5.564322,-3.211822 z m -11.804174,0.182312 8.46e-4,0.0057 0.0036,0.0036 H 24.21266 l 0.0036,-0.0036 0.0023,-0.0089 -0.0013,-0.0049 -6.144253,-3.5493742 -0.101099,-0.049274 -0.09264,0.050549 -6.144676,3.5481062 z"
     id="path1473"
     style="fill:#3f1f0c;stroke-width:0.211499" />
  <polygon
     class="st0"
     points="110.023,116.199 59.931,116.199 84.966,130.654 "
     id="polygon1475"
     style="fill:#d79cc6"
     transform="matrix(0.21149885,0,0,0.21149885,0.00407387,-0.65723516)" />
  <path
     class="st1"
     d="m 12.356029,23.826719 -0.0023,0.0093 0.0013,0.0045 5.52435,3.19046 0.09137,0.05943 0.101099,-0.05943 5.525196,-3.19046 0.0013,-0.0045 -0.0023,-0.0093 -0.0032,-0.0032 H 12.360002 Z m 0.676586,0.186965 h 9.886725 l -4.941882,2.852273 h -8.47e-4 l -0.0023,0.0013 z"
     id="path1477"
     style="fill:#3f1f0c;stroke-width:0.211499" />
  <polygon
     class="st0"
     points="33.665,101.037 33.665,71.204 7.834,86.121 "
     id="polygon1479"
     style="fill:#d79cc6"
     transform="matrix(0.21149885,0,0,0.21149885,0.00407387,-0.65723516)" />
  <path
     class="st1"
     d="m 7.0292191,14.56751 v 5.980765 L 1.8502475,17.557257 Z m 0.1812546,-0.155875 0.00926,-0.0093 -0.00926,-0.0093 v -0.138743 l -5.7214668,3.302977 5.7214668,3.302979 z"
     id="path1481"
     style="fill:#3f1f0c;stroke-width:0.211499" />
  <path
     class="st1"
     d="m 25.521622,16.800304 0.0013,0.07234 c 0,0.158201 0.04569,0.296945 0.136417,0.418346 0.09179,0.120554 0.225669,0.204307 0.402483,0.253586 l 0.295675,0.05626 c 0.192464,0.03764 0.34432,0.07677 0.456414,0.120132 0.111249,0.0425 0.204308,0.109133 0.278756,0.198597 0.07571,0.08947 0.113575,0.211922 0.113575,0.36822 0,0.151221 -0.05181,0.283196 -0.15376,0.395714 0.05181,-0.105535 0.07677,-0.206634 0.07677,-0.301809 0,-0.128168 -0.03321,-0.240685 -0.09982,-0.33586 -0.06641,-0.09539 -0.15947,-0.166238 -0.278333,-0.212345 -0.06429,-0.02876 -0.182523,-0.05753 -0.351088,-0.08693 l -0.387677,-0.07805 c -0.08819,-0.02179 -0.168776,-0.05858 -0.241955,-0.111249 -0.05498,-0.03998 -0.104477,-0.09179 -0.14678,-0.155028 -0.04378,-0.06197 -0.07677,-0.129437 -0.09982,-0.200713 -0.02136,-0.07 -0.03321,-0.140857 -0.03321,-0.210863 0,-0.06303 0.01057,-0.143608 0.03236,-0.244281 z m 0.08565,1.776378 0.06683,0.10998 0.08819,0.113574 c -0.06303,-0.0023 -0.109979,0.0032 -0.140012,0.01819 -0.03067,0.01502 -0.06429,0.04695 -0.100673,0.0975 v -0.530862 z m 1.238749,-1.957633 -0.118228,-0.153759 -0.129861,-0.114422 0.144877,0.02179 c 0.04124,0 0.08248,-0.007 0.123727,-0.02179 l 0.0607,0.379429 z m -1.385106,2.40601 h 0.106384 c 0.05858,-0.08016 0.137474,-0.121399 0.236244,-0.121399 0.05943,0 0.145723,0.02179 0.258029,0.06429 l 0.236244,0.0846 c 0.04569,0.01502 0.11442,0.02179 0.205154,0.02179 0.160527,0 0.304981,-0.04124 0.435688,-0.123727 0.131129,-0.08248 0.231802,-0.192464 0.304134,-0.330149 0.07191,-0.138744 0.107649,-0.286793 0.107649,-0.446263 0,-0.16497 -0.03892,-0.31323 -0.116959,-0.444994 -0.07805,-0.130706 -0.188023,-0.233918 -0.330149,-0.307097 -0.07677,-0.04039 -0.181255,-0.07234 -0.312384,-0.0975 l -0.44584,-0.09179 c -0.164968,-0.03553 -0.289965,-0.08819 -0.374987,-0.15947 -0.08502,-0.07 -0.127534,-0.171102 -0.127534,-0.303923 0,-0.09305 0.02433,-0.17914 0.07,-0.258029 0.04695,-0.07805 0.108923,-0.138743 0.185695,-0.183581 0.07677,-0.04441 0.160529,-0.06641 0.249992,-0.06641 0.179986,0 0.337341,0.06429 0.47122,0.191407 0.133032,0.128591 0.260566,0.314287 0.383024,0.557511 h 0.129438 l -0.08016,-0.816385 h -0.141281 c -0.05943,0.03193 -0.122669,0.04822 -0.190138,0.04822 -0.05309,0 -0.138743,-0.0129 -0.25697,-0.03681 -0.11696,-0.02517 -0.215729,-0.03681 -0.296945,-0.03681 -0.111248,0 -0.213614,0.02179 -0.304981,0.06557 -0.09053,0.04378 -0.168776,0.103213 -0.231803,0.178717 -0.06303,0.07571 -0.112517,0.161796 -0.14678,0.259297 -0.03553,0.09835 -0.05266,0.200712 -0.05266,0.307097 0,0.111248 0.01946,0.215729 0.05816,0.311961 0.03933,0.0975 0.0975,0.181253 0.173218,0.25126 0.07614,0.06874 0.167506,0.123727 0.275582,0.163066 0.07,0.02622 0.188235,0.05266 0.354473,0.08248 0.166238,0.02876 0.300117,0.0607 0.402482,0.0939 0.101938,0.03321 0.190138,0.09305 0.26247,0.176813 0.07318,0.08376 0.10998,0.201983 0.10998,0.353204 0,0.160527 -0.05498,0.293349 -0.164969,0.396983 -0.111249,0.103212 -0.244281,0.154606 -0.39931,0.154606 -0.123727,0 -0.243224,-0.03447 -0.357645,-0.103213 -0.113574,-0.06874 -0.218055,-0.174274 -0.314287,-0.316402 C 25.734153,18.40154 25.651676,18.22515 25.582728,18.0164 h -0.122669 v 1.008638 z m -2.648389,-0.24999 0.101098,-0.169411 -0.0036,0.06641 c 0,0.0975 0.03933,0.178928 0.118228,0.245551 h -0.357644 z m 1.720332,-0.02644 c 0,0.04484 -0.01586,0.08502 -0.04822,0.116958 -0.03193,0.03362 -0.07677,0.05181 -0.135148,0.05181 h -0.04124 l 0.08248,-0.07677 c 0.01374,-0.01734 0.02073,-0.04484 0.02073,-0.08376 0,-0.05943 -0.02073,-0.141916 -0.06197,-0.247665 l -0.659452,-1.798376 c -0.0275,-0.07572 -0.05626,-0.136416 -0.08734,-0.181254 -0.02961,-0.04441 -0.07572,-0.08016 -0.135148,-0.105535 l 0.08819,-0.0076 c 0.0607,0 0.108074,0.01819 0.143607,0.05711 0.03447,0.03679 0.06746,0.101098 0.100674,0.191829 l 0.665164,1.797952 c 0.04484,0.126053 0.06768,0.221016 0.06768,0.285312 m -0.889776,-1.978995 0.397617,1.070819 h -0.791427 z m 0.706406,1.975822 c 0,0.0607 -0.02433,0.101938 -0.07128,0.12267 -0.04823,0.02179 -0.120554,0.03679 -0.215729,0.04822 v 0.109979 h 1.108888 v -0.109979 c -0.103213,-0.0239 -0.178927,-0.05943 -0.229476,-0.10681 -0.04927,-0.04695 -0.09962,-0.136417 -0.148895,-0.26945 l -0.862492,-2.347214 h -0.171949 l -0.447531,0.163912 v 0.0975 c 0.07234,0.0081 0.126264,0.02305 0.164334,0.04484 0.03764,0.02136 0.07212,0.06387 0.106384,0.125841 l -0.645706,1.760728 c -0.117805,0.323171 -0.272622,0.499983 -0.466355,0.530862 v 0.10998 h 0.863338 v -0.10998 c -0.09391,-0.0045 -0.167507,-0.03998 -0.22017,-0.107649 -0.05266,-0.06789 -0.08016,-0.145722 -0.08016,-0.23434 0,-0.09264 0.01692,-0.1821 0.04886,-0.268181 l 0.123093,-0.338186 h 0.881949 l 0.20875,0.56872 c 0.03681,0.08545 0.05415,0.155451 0.05415,0.208538 m -3.925419,0.18337 -0.214459,-0.107649 c -0.0736,-0.04484 -0.145723,-0.105534 -0.216787,-0.178929 -0.115689,-0.124995 -0.206423,-0.277485 -0.270719,-0.45874 -0.06557,-0.181254 -0.09877,-0.363779 -0.09877,-0.549475 0,-0.14678 0.02051,-0.290176 0.05986,-0.427649 0.03998,-0.138744 0.09835,-0.269873 0.173218,-0.3936 0.07571,-0.123727 0.161374,-0.229477 0.256971,-0.316402 0.09496,-0.08608 0.197117,-0.152492 0.304982,-0.197329 l 0.211921,-0.06197 -0.222496,0.118227 c -0.06303,0.03807 -0.129438,0.09179 -0.200713,0.161797 -0.143185,0.144454 -0.255702,0.317671 -0.338187,0.517115 -0.08248,0.199867 -0.123727,0.399309 -0.123727,0.596215 0,0.169833 0.03193,0.339456 0.09624,0.511827 0.06514,0.17068 0.156932,0.32444 0.275159,0.459588 0.08947,0.101098 0.176814,0.179139 0.262471,0.234975 l 0.31323,0.172371 z m 1.14569,-0.894641 c -0.02433,-0.04124 -0.05986,-0.08016 -0.105534,-0.11569 0.08248,0.0093 0.143184,0.03004 0.181254,0.06303 0.03765,0.03193 0.06197,0.07677 0.07085,0.133879 l 0.01374,0.28362 c 0,0.106384 -0.01142,0.192464 -0.03447,0.258874 -0.02263,0.06557 -0.0607,0.119286 -0.11569,0.161797 -0.05372,0.04124 -0.129436,0.07317 -0.228207,0.09623 0.08946,-0.0514 0.15376,-0.116959 0.193733,-0.196272 0.03998,-0.07889 0.05943,-0.158201 0.05943,-0.239416 v -0.261201 c 0,-0.08164 -0.01121,-0.142339 -0.03511,-0.18485 m -0.141281,-1.677608 0.05752,0.01502 0.07445,0.01628 0.07445,0.0045 c 0.03681,0 0.08248,-0.01142 0.138743,-0.03553 l 0.02622,0.36124 C 21.67849,16.559624 21.554763,16.43907 21.428498,16.356586 m 0.413903,-0.173218 c -0.04441,0.06683 -0.124996,0.09982 -0.240686,0.09982 -0.0425,0 -0.14678,-0.01945 -0.314287,-0.05752 -0.167507,-0.03892 -0.313865,-0.05752 -0.442667,-0.05752 -0.190137,0 -0.364412,0.03933 -0.523883,0.119286 -0.15947,0.08016 -0.295041,0.189291 -0.408192,0.328035 -0.112517,0.138743 -0.199867,0.296944 -0.259298,0.475872 -0.0607,0.178928 -0.09053,0.362509 -0.09053,0.550531 0,0.192464 0.03004,0.374987 0.09053,0.550109 0.0607,0.175544 0.151222,0.329303 0.270719,0.463605 0.119285,0.133878 0.266911,0.23709 0.441398,0.311961 0.175543,0.07318 0.371814,0.111248 0.589447,0.111248 0.118228,0 0.237513,-0.01163 0.358913,-0.03553 0.121824,-0.02433 0.241109,-0.05752 0.360395,-0.101098 0.117804,-0.04251 0.229053,-0.09264 0.332476,-0.150164 v -0.442667 c 0,-0.128592 0.0076,-0.219324 0.0239,-0.273045 0.01628,-0.05372 0.04823,-0.09053 0.09624,-0.111249 0.04695,-0.02073 0.133032,-0.03681 0.25697,-0.04695 v -0.113787 h -1.21083 v 0.113787 c 0.1214,0.01014 0.20748,0.02622 0.256971,0.04822 0.05013,0.02179 0.08122,0.05943 0.09496,0.113575 0.01248,0.05372 0.01945,0.147626 0.01945,0.28087 l -0.01502,0.213192 c -0.01014,0.05626 -0.03193,0.109978 -0.06514,0.159469 -0.04252,0.06303 -0.105535,0.114845 -0.188022,0.155029 -0.08248,0.03892 -0.171949,0.05858 -0.267335,0.05858 -0.162643,0 -0.312806,-0.05498 -0.451549,-0.166238 -0.138744,-0.111249 -0.249147,-0.267335 -0.330574,-0.469316 -0.08143,-0.200712 -0.1214,-0.429978 -0.1214,-0.686948 0,-0.258875 0.03638,-0.488352 0.109979,-0.688217 0.07445,-0.199444 0.178928,-0.356377 0.31323,-0.468894 0.133879,-0.112517 0.286369,-0.168775 0.458741,-0.168775 0.09053,0 0.177659,0.01502 0.26247,0.0461 0.08376,0.02961 0.16497,0.07677 0.241956,0.140012 0.07699,0.06324 0.151221,0.143185 0.223764,0.240685 0.07191,0.09877 0.136418,0.210019 0.193734,0.333746 h 0.100679 l -0.03193,-0.87624 h -0.135571 z m -4.836979,2.591707 0.101938,-0.169411 -0.0045,0.06641 c 0,0.0975 0.03998,0.178927 0.118229,0.24555 h -0.358068 z m 1.72012,-0.02644 c 0,0.04484 -0.01628,0.08502 -0.04822,0.116959 -0.0311,0.03362 -0.07677,0.05181 -0.135571,0.05181 h -0.03998 l 0.08122,-0.07677 c 0.01374,-0.01734 0.02073,-0.04484 0.02073,-0.08376 0,-0.05943 -0.02073,-0.141916 -0.06197,-0.247665 l -0.659453,-1.798375 c -0.0275,-0.07572 -0.05626,-0.136417 -0.08693,-0.181255 -0.03004,-0.04441 -0.07571,-0.08016 -0.134302,-0.105534 l 0.08734,-0.0076 c 0.0607,0 0.108924,0.01819 0.143185,0.05711 0.03447,0.03679 0.06874,0.101099 0.100673,0.19183 l 0.665164,1.797951 c 0.04504,0.126054 0.0681,0.221016 0.0681,0.285312 m -0.889987,-1.978994 0.398041,1.070818 h -0.791429 z m 0.706407,1.975822 c 0,0.0607 -0.0239,0.101937 -0.07128,0.122669 -0.04822,0.02179 -0.120132,0.03679 -0.215728,0.04822 v 0.10998 h 1.109311 v -0.10998 c -0.103638,-0.0239 -0.17914,-0.05943 -0.229477,-0.106809 -0.04927,-0.04695 -0.09877,-0.136418 -0.149317,-0.26945 L 18.123179,16.19265 h -0.171948 l -0.447109,0.163912 v 0.0975 c 0.07212,0.0081 0.127111,0.02305 0.163912,0.04484 0.03681,0.02136 0.07234,0.06388 0.10681,0.125842 l -0.645706,1.760728 c -0.118228,0.323171 -0.273045,0.499983 -0.466778,0.530862 v 0.10998 h 0.863762 v -0.10998 c -0.09433,-0.0045 -0.167508,-0.03998 -0.220382,-0.107649 -0.05266,-0.06789 -0.07889,-0.145722 -0.07889,-0.23434 0,-0.09264 0.01586,-0.1821 0.04822,-0.268181 l 0.12267,-0.338186 h 0.88195 l 0.208749,0.56872 c 0.03659,0.08566 0.05351,0.155663 0.05351,0.20875 m -2.925452,-1.34196 c 0.06557,-0.08946 0.0975,-0.224612 0.0975,-0.404598 0,-0.171102 -0.0275,-0.308788 -0.08248,-0.41073 -0.05498,-0.103213 -0.138744,-0.18485 -0.251261,-0.245551 0.14678,0.02305 0.260144,0.08819 0.339456,0.196271 0.07931,0.107649 0.119285,0.253164 0.119285,0.435688 0,0.188233 -0.04484,0.336918 -0.134302,0.447531 -0.08946,0.10998 -0.217632,0.175122 -0.38387,0.198175 0.131764,-0.05372 0.230112,-0.126054 0.295676,-0.216786 m -0.384294,0.402482 0.0461,0.06303 0.266911,0.333746 0.252529,0.336918 0.228209,0.263738 c 0.07128,0.07 0.144453,0.123727 0.221227,0.164335 -0.06197,-0.0023 -0.120554,-0.0129 -0.174275,-0.03004 -0.05499,-0.01734 -0.118228,-0.05626 -0.189291,-0.116959 -0.07085,-0.05986 -0.147627,-0.14678 -0.230111,-0.259298 l -0.270713,-0.371391 -0.222497,-0.28933 -0.156086,-0.162643 h 0.15249 z m -0.538898,-1.310658 c 0.01628,-0.05499 0.04822,-0.09624 0.0975,-0.123727 0.04927,-0.0275 0.121399,-0.03998 0.216786,-0.03998 0.09517,0 0.171948,0.0057 0.233917,0.01945 0.0607,0.01248 0.119285,0.03998 0.174276,0.08143 0.1582,0.11696 0.237513,0.298214 0.237513,0.546937 0,0.208749 -0.05181,0.364835 -0.15376,0.466778 -0.05055,0.05266 -0.126264,0.09623 -0.225035,0.131975 -0.09962,0.03447 -0.200712,0.05372 -0.302654,0.05372 h -0.302444 v -0.897814 c 0,-0.104477 0.0089,-0.183791 0.0239,-0.238781 m -0.448379,-0.04378 c -0.01734,-0.05012 -0.05752,-0.09053 -0.12288,-0.120131 0.07805,-0.0049 0.13684,0.0057 0.174275,0.03067 0.03807,0.02559 0.06197,0.06429 0.07234,0.116113 0.01142,0.05266 0.01819,0.129438 0.01819,0.232649 v 2.004586 c 0,0.129438 -0.08376,0.196271 -0.246397,0.200712 0.08566,-0.04695 0.129438,-0.131975 0.129438,-0.25697 v -1.960806 c 2.12e-4,-0.114845 -0.009,-0.19754 -0.02496,-0.24682 m 0.835844,2.464596 -0.118228,-0.0081 -0.131975,-0.02622 c -0.06746,-0.02073 -0.111249,-0.05499 -0.130707,-0.103212 -0.01946,-0.04695 -0.03004,-0.113787 -0.03004,-0.196272 v -0.842611 h 0.206635 c 0.04441,0 0.09517,0.03193 0.154605,0.09624 l 0.26945,0.346223 0.260566,0.354472 0.222497,0.271776 c 0.06514,0.06874 0.133033,0.122669 0.203885,0.160105 0.07128,0.03807 0.146781,0.05752 0.226092,0.05752 h 0.351934 v -0.10998 l -0.124995,-0.05752 -0.118229,-0.09624 -0.121399,-0.133032 -0.151645,-0.190137 -0.0571,-0.06874 -0.03807,-0.04484 -0.184428,-0.232648 -0.316825,-0.387677 c 0.114844,-0.01988 0.214461,-0.05309 0.30054,-0.09982 0.08734,-0.04695 0.160527,-0.103213 0.221228,-0.16941 0.0607,-0.06683 0.108074,-0.140012 0.140012,-0.221651 0.03193,-0.08143 0.04823,-0.164969 0.04823,-0.252107 0,-0.130706 -0.03447,-0.252529 -0.105534,-0.365681 -0.07,-0.113576 -0.174276,-0.204308 -0.31323,-0.273045 -0.138743,-0.06747 -0.300117,-0.103213 -0.484967,-0.103213 h -1.471609 v 0.111248 c 0.129437,0.0032 0.222497,0.01586 0.279601,0.03765 0.05858,0.02073 0.09623,0.05753 0.114844,0.109345 0.01819,0.0514 0.0275,0.129438 0.0275,0.236244 v 1.855269 c 0,0.09982 -0.01057,0.173217 -0.03236,0.2189 -0.02136,0.0461 -0.06197,0.07805 -0.120131,0.09665 -0.05858,0.01693 -0.14805,0.02834 -0.26945,0.03067 v 0.10998 h 1.293316 z m -3.774197,-0.144453 c -0.007,0.04441 -0.02622,0.08016 -0.05816,0.105534 -0.03236,0.02517 -0.08608,0.03998 -0.161796,0.03998 h -0.04695 c 0.06303,-0.02876 0.105534,-0.06303 0.126264,-0.104477 0.02073,-0.04124 0.03067,-0.111248 0.03067,-0.211076 v -1.875995 c 0,-0.149317 -0.0081,-0.245549 -0.02517,-0.288061 -0.01734,-0.04209 -0.05626,-0.07762 -0.11696,-0.106384 0.114422,-0.0025 0.186966,0.02179 0.216364,0.07 0.03004,0.04823 0.0461,0.145723 0.0461,0.291234 v 1.877264 z m 1.56213,-0.0148 c 0,0.04251 -0.01502,0.07931 -0.04695,0.111249 -0.03109,0.03193 -0.07128,0.04927 -0.120554,0.04927 h -0.04927 c 0.06112,-0.03447 0.09179,-0.07931 0.09179,-0.136417 0,-0.04378 -0.01248,-0.08862 -0.03765,-0.133033 l -0.119285,-0.171102 -0.701965,-0.954071 0.08376,-0.08143 0.754627,1.009062 c 0.09729,0.128802 0.145512,0.230744 0.145512,0.306461 m -0.02179,-2.315489 -0.199443,0.183369 c 0.01819,-0.04209 0.0275,-0.08333 0.0275,-0.122669 0,-0.06303 -0.02876,-0.119286 -0.08819,-0.171948 h 0.438226 c -0.07022,0.03321 -0.130072,0.07 -0.178083,0.111248 m -0.45874,-0.10998 c 0.07128,0 0.127534,0.01819 0.166238,0.05499 0.03913,0.03764 0.05858,0.08502 0.05858,0.145723 0,0.05499 -0.02073,0.113363 -0.06429,0.175545 -0.04251,0.06197 -0.106384,0.132609 -0.191406,0.213191 l -0.756956,0.721425 v -0.990025 c 0,-0.11569 0.02305,-0.198175 0.07,-0.247666 0.04569,-0.04928 0.14128,-0.07317 0.286792,-0.07317 h 0.02622 V 16.22015 h -1.273224 v 0.111249 c 0.126265,0 0.218056,0.01142 0.278756,0.03553 0.05986,0.0239 0.09877,0.05943 0.118228,0.106384 0.01819,0.0461 0.0275,0.114844 0.0275,0.203038 v 1.868382 c 0,0.08693 -0.0068,0.156932 -0.02179,0.209595 -0.01587,0.05181 -0.04927,0.09179 -0.100674,0.119285 -0.05309,0.02876 -0.133032,0.04251 -0.243223,0.04251 h -0.05858 v 0.10998 h 1.273224 v -0.10998 l -0.07,-0.007 -0.101938,-0.0093 c -0.07931,-0.0089 -0.134301,-0.04252 -0.165391,-0.09962 -0.02961,-0.05626 -0.04569,-0.140012 -0.04569,-0.248088 V 17.79072 l 0.233917,-0.222498 0.737496,0.983893 0.08016,0.118229 0.03004,0.102362 c 0,0.09496 -0.09877,0.143185 -0.298213,0.143185 v 0.10998 h 1.254611 v -0.10998 c -0.0607,-0.0081 -0.113363,-0.0239 -0.15947,-0.04695 -0.04441,-0.02305 -0.08946,-0.05752 -0.133033,-0.101937 l -0.175121,-0.214883 -0.987488,-1.317638 0.449435,-0.42321 0.286792,-0.2428 c 0.08376,-0.06429 0.169411,-0.117382 0.255703,-0.158625 0.08693,-0.04124 0.171948,-0.06746 0.254432,-0.07889 v -0.111249 h -1.114598 v 0.111249 h 0.07297 z m -4.1720262,2.443658 0.1019377,-0.16941 -0.00316,0.06641 c 0,0.0975 0.03892,0.178927 0.1169585,0.24555 H 8.0738485 Z m 1.7203312,-0.02644 c 0,0.04484 -0.01628,0.08502 -0.04823,0.116958 -0.03109,0.03362 -0.07677,0.05181 -0.134301,0.05181 h -0.04124 l 0.08122,-0.07677 c 0.01374,-0.01734 0.02073,-0.04484 0.02073,-0.08376 0,-0.05943 -0.02073,-0.141916 -0.0607,-0.247665 L 9.0932709,16.710814 c -0.027498,-0.07572 -0.055835,-0.136416 -0.08693,-0.181255 -0.030037,-0.04441 -0.074451,-0.08016 -0.134302,-0.105534 l 0.087355,-0.0076 c 0.060696,0 0.1089238,0.01819 0.1431846,0.05711 0.035531,0.03679 0.06874,0.101099 0.1010985,0.19183 l 0.665164,1.797951 c 0.04463,0.126054 0.06768,0.221016 0.06768,0.285312 M 9.0463249,16.769605 9.444366,17.840424 H 8.6529369 Z M 9.754,18.745427 c 0,0.0607 -0.0239,0.101937 -0.07191,0.122669 -0.04822,0.02179 -0.119286,0.0368 -0.215729,0.04822 v 0.10998 h 1.108888 v -0.10998 c -0.103213,-0.0239 -0.178927,-0.05943 -0.229476,-0.106809 -0.04927,-0.04695 -0.09877,-0.136418 -0.148048,-0.26945 L 9.3343846,16.192839 h -0.171948 l -0.4475317,0.163913 v 0.0975 c 0.072336,0.0081 0.1275338,0.02305 0.1639111,0.04484 0.03807,0.02136 0.073601,0.06387 0.1068095,0.125841 l -0.6457058,1.760728 c -0.1182283,0.32317 -0.2730454,0.499983 -0.4667782,0.530862 v 0.109979 h 0.8650304 v -0.109979 c -0.095387,-0.0045 -0.1687764,-0.03998 -0.2212286,-0.107649 -0.053089,-0.06789 -0.079311,-0.145722 -0.079311,-0.23434 0,-0.09264 0.016283,-0.182101 0.048217,-0.268181 L 8.6095761,17.968167 H 9.490258 l 0.208749,0.56872 c 0.03681,0.08545 0.05499,0.155451 0.05499,0.208538 m 16.990973,5.089509 v -0.0045 h -0.03638 v 0.0045 H 8.4594046 C 7.7688606,23.832645 7.2105031,23.27298 7.2081773,22.582436 v -9.69278 c 0.00229,-0.690121 0.5606833,-1.248901 1.2512273,-1.251439 H 26.726772 c 0.69012,0.0025 1.248901,0.561106 1.251227,1.251439 v 9.692569 c -0.0023,0.68018 -0.543763,1.233039 -1.219291,1.252497 h -0.01374 z m -0.03638,0.170679 v 0.0023 h 0.03638 v -0.0023 h 0.01862 c 0.768164,-0.01946 1.385318,-0.650147 1.385318,-1.423177 v -9.69278 c 0,-0.784449 -0.6364,-1.422118 -1.422118,-1.422118 H 8.4594112 c -0.7844503,0 -1.4221193,0.637669 -1.4221193,1.422118 v 9.692569 c 0,0.785719 0.637669,1.423176 1.4221193,1.423176 H 26.70859 Z"
     id="path1483"
     style="fill:#3f1f0c;stroke-width:0.211499" />
  <rect
     x="7.1227021"
     y="12.803186"
     class="st1"
     width="20.941135"
     height="0.17364056"
     id="rect1485"
     style="fill:#3f1f0c;stroke-width:0.211499" />
  <rect
     x="7.1227021"
     y="14.514423"
     class="st1"
     width="20.941135"
     height="0.17364056"
     id="rect1487"
     style="fill:#3f1f0c;stroke-width:0.211499" />
  <rect
     x="10.992287"
     y="12.550657"
     class="st1"
     width="0.19373296"
     height="2.4286413"
     id="rect1489"
     style="fill:#3f1f0c;stroke-width:0.211499" />
  <rect
     x="12.61829"
     y="12.550657"
     class="st1"
     width="0.19373296"
     height="2.4286413"
     id="rect1491"
     style="fill:#3f1f0c;stroke-width:0.211499" />
  <rect
     x="14.24429"
     y="12.550657"
     class="st1"
     width="0.19373296"
     height="2.4286413"
     id="rect1493"
     style="fill:#3f1f0c;stroke-width:0.211499" />
  <rect
     x="15.870295"
     y="12.550657"
     class="st1"
     width="0.19373296"
     height="2.4286413"
     id="rect1495"
     style="fill:#3f1f0c;stroke-width:0.211499" />
  <rect
     x="17.49651"
     y="12.550657"
     class="st1"
     width="0.19373296"
     height="2.4286413"
     id="rect1497"
     style="fill:#3f1f0c;stroke-width:0.211499" />
  <rect
     x="19.122509"
     y="12.550657"
     class="st1"
     width="0.19373296"
     height="2.4286413"
     id="rect1499"
     style="fill:#3f1f0c;stroke-width:0.211499" />
  <rect
     x="20.748514"
     y="12.550657"
     class="st1"
     width="0.19373296"
     height="2.4286413"
     id="rect1501"
     style="fill:#3f1f0c;stroke-width:0.211499" />
  <rect
     x="22.374517"
     y="12.550657"
     class="st1"
     width="0.19373296"
     height="2.4286413"
     id="rect1503"
     style="fill:#3f1f0c;stroke-width:0.211499" />
  <rect
     x="24.000734"
     y="12.550657"
     class="st1"
     width="0.19373296"
     height="2.4286413"
     id="rect1505"
     style="fill:#3f1f0c;stroke-width:0.211499" />
  <rect
     x="25.626738"
     y="12.550657"
     class="st1"
     width="0.19373296"
     height="2.4286413"
     id="rect1507"
     style="fill:#3f1f0c;stroke-width:0.211499" />
  <rect
     x="27.252737"
     y="12.550657"
     class="st1"
     width="0.19373296"
     height="2.4286413"
     id="rect1509"
     style="fill:#3f1f0c;stroke-width:0.211499" />
  <rect
     x="7.1227021"
     y="20.676443"
     class="st1"
     width="20.941135"
     height="0.17364056"
     id="rect1511"
     style="fill:#3f1f0c;stroke-width:0.211499" />
  <rect
     x="7.1227021"
     y="22.38789"
     class="st1"
     width="20.941135"
     height="0.17364056"
     id="rect1513"
     style="fill:#3f1f0c;stroke-width:0.211499" />
  <rect
     x="10.992287"
     y="20.424335"
     class="st1"
     width="0.19373296"
     height="2.4282184"
     id="rect1515"
     style="fill:#3f1f0c;stroke-width:0.211499" />
  <rect
     x="12.61829"
     y="20.424335"
     class="st1"
     width="0.19373296"
     height="2.4282184"
     id="rect1517"
     style="fill:#3f1f0c;stroke-width:0.211499" />
  <rect
     x="14.24429"
     y="20.424335"
     class="st1"
     width="0.19373296"
     height="2.4282184"
     id="rect1519"
     style="fill:#3f1f0c;stroke-width:0.211499" />
  <rect
     x="15.870295"
     y="20.424335"
     class="st1"
     width="0.19373296"
     height="2.4282184"
     id="rect1521"
     style="fill:#3f1f0c;stroke-width:0.211499" />
  <rect
     x="17.49651"
     y="20.424335"
     class="st1"
     width="0.19373296"
     height="2.4282184"
     id="rect1523"
     style="fill:#3f1f0c;stroke-width:0.211499" />
  <rect
     x="19.122509"
     y="20.424335"
     class="st1"
     width="0.19373296"
     height="2.4282184"
     id="rect1525"
     style="fill:#3f1f0c;stroke-width:0.211499" />
  <rect
     x="20.748514"
     y="20.424335"
     class="st1"
     width="0.19373296"
     height="2.4282184"
     id="rect1527"
     style="fill:#3f1f0c;stroke-width:0.211499" />
  <rect
     x="22.374517"
     y="20.424335"
     class="st1"
     width="0.19373296"
     height="2.4282184"
     id="rect1529"
     style="fill:#3f1f0c;stroke-width:0.211499" />
  <rect
     x="24.000734"
     y="20.424335"
     class="st1"
     width="0.19373296"
     height="2.4282184"
     id="rect1531"
     style="fill:#3f1f0c;stroke-width:0.211499" />
  <rect
     x="25.626738"
     y="20.424335"
     class="st1"
     width="0.19373296"
     height="2.4282184"
     id="rect1533"
     style="fill:#3f1f0c;stroke-width:0.211499" />
  <rect
     x="27.252737"
     y="20.424335"
     class="st1"
     width="0.19373296"
     height="2.4282184"
     id="rect1535"
     style="fill:#3f1f0c;stroke-width:0.211499" />
  <rect
     x="7.8197999"
     y="12.550657"
     class="st1"
     width="0.19373296"
     height="2.4286413"
     id="rect1537"
     style="fill:#3f1f0c;stroke-width:0.211499" />
  <rect
     x="9.4458046"
     y="12.550657"
     class="st1"
     width="0.19373296"
     height="2.4286413"
     id="rect1539"
     style="fill:#3f1f0c;stroke-width:0.211499" />
  <rect
     x="7.8197999"
     y="20.424335"
     class="st1"
     width="0.19373296"
     height="2.4282184"
     id="rect1541"
     style="fill:#3f1f0c;stroke-width:0.211499" />
  <rect
     x="9.4458046"
     y="20.424335"
     class="st1"
     width="0.19373296"
     height="2.4282184"
     id="rect1543"
     style="fill:#3f1f0c;stroke-width:0.211499" />
</svg>
