<svg xmlns="http://www.w3.org/2000/svg" xml:space="preserve" viewBox="0 0 2667.677 1808.391"><path d="M1893.6 118.031c16.364 6.465 32.399 13.771 48.855 19.989 58.885 14.78 134.239 38.219 187.784 65.794 76.326 38.29 65.24 50.053 261.961 346.383 5.784 8.373 42.471 63.63 42.471 63.63 37.993 51.357 33.241 43.196 33.733 93.682-.466 5.342 1.543 10.62.475 15.953-.608 2.748-1.584 30.339-1.68 31.34-2.495 15.293.635 26.834 15.716 30.098 35.603 8.01 126.332 2.424 127.332 2.52 21.093 4.545-47.362 49.133-126.337 57.594-4.333.946-23.411-.913-27.697 15.223 0 0-12.734 86.496-28.244 148.399-24.548 93.903-127.827 303.328 22.071 547.773 1.269 2.091 2.74 4.785 1.315 7.196-6.512 11.251-18.954 14.012-26.865 8.273-3.543-2.082-5.908-6.009-9.872-7.269-10.796-.212-13.274-2.999-30.938 18.364-2.292 2.657-4.064 5.863-6.94 7.954-6.917 1.234-7.042-1.505-9.241-8.182-33.19-113.257-96.915-136.392-111.927-351.972.236-93.181 4.848-54.121 20.802-183.51 3.881-30.418 7.205-60.917 8.629-91.536 3.736-26.939 2.143-136.661-16.154-156.974-10.801-12.543-158.868-61.133-213.755-64.068-47.676 6.169-98.082-13.612-109.589-13.122-11.861-.516-28.615 15.978-33.952 20.437-12.918 10.844-48.993 43.817-61.246 57.457-45.183 49.849-54.163 8.827 91.271 520.652 33.671 120.314 72.046 219.13 73.291 223.379 16.683 41.643 11.702 37.545 120.255 191.802 4.442 6.92 14.057 15.926 2.995 18.053-61.65 14.412-219.645 32.682-273.074-.995-6.89-3.594 3.112-21.646 6.401-75.711.327-1.736 4.361-38.548-4.328-54.644-23.709-43.31-234.622-384.521-320.623-533.026-3.004-4.94-5.707-10.483-10.739-13.688-18.495-3.397-7.885 13.477-112.009 217.983-78.837 155.41-137.599 209.116-142.263 272.636 2.175 40.306 28.081 63.012 58.735 106.877 36.876 54.722 8.313 40.607-12.921 41.558-66.635-2.183-183.803-9.811-246.665-32.034-9.342-4.297-8.094-2.078-3.781-31.121 28.239-149.074 67.578-149.24 116.612-399.365 8.018-41.138 15.031-82.523 19.186-124.237-.557-9.145 5.875-27.715-8.721-32.171-17.528-3.008-183.88 47.326-310.295 17.907-11.666-1.758-24.192-10.916-36.052 9.278-50.401 86.95-99.576 110.865-120.073 125.561-15.706 11.489-11.415 33.68-12.994 41.202-2.37 12.996-7.272 164.816 13.122 255.139 5.756 25.375 5.215 27.943 23.669 42.207 56.778 40.847 73.433 81.174 71.328 88.559-2.421 6.109-173.755 65.138-290.077 2.593-7.681-4.825-5.498 8.856-5.716-118.383-.043-4.406-2.899-160.377-6.237-173.164-1.856-7.461-8.355-11.081-20.199-1.735-21.177 17.435-55.064 48.536-61.584 55.265-50.567 50.459-40.417 49.603-65.264 117.132-4.998 10.461-12.048 30.315-21.487 35.979-9.053.468-131.237-74.219-171.055-180.515-.895-2.639-2.219-5.296-1.954-8.136 0 0 148.991-113.151 214.266-175.237 13.943-11.26 48.655-48.031 49.658-48.973 23.498-23.809 7.736-19.026-34.207-153.376-34.591-110.907-54.247-219.986-58.425-278.918-.586-4.628-1.901-21.214-9.342-21.67-22.101-2.884-95.196 216.166-135.213 394.315-3.504 15.687 8.159 34.833 7.004 72.853 1.794 69.906-53.745 98.992-120.602 78.56-8.83-3.37-3.725-9.103-9.05-12.282-4.6-3.032-28.164-11.154-38.938-39.202-1.215-2.73.648-6.62 3.744-6.721 12.231-.635 32.687 5.31 66.972-23.715 18.376-15.085 43.467-54.418 43.996-64.926 25.795-280.253 68.093-398.716 176.342-606.737 3.105-5.958 32.599-62.929 37.595-68.488 28.97-28.891 192.669-175.873 298.551-227.708 81.656-41.269 184.618-40.662 253.304-14.492 200.027 99.051 245.129 84.501 361.441 70.761 30.74-3.734 200.484-24.599 213.581-52.863 24.475-53.912 67.405-139.597 113.005-176.808 18.477-15.72 19.331-32.867 270.857 69.364z"/></svg>