<svg xmlns="http://www.w3.org/2000/svg" viewBox="0 0 30.27 29.12"><path fill="#020202" d="M12.4 24.33c-.07-.58-.13-1.17-.2-1.75-.01-.09-.06-.18-.09-.26h-.09c-.06.35-.14.71-.16 1.06-.03.63-.02 1.27 0 1.9 0 .43-.14.78-.49 1.03-.2.14-.27.29-.15.54.17.35-.12.76-.51.76H9.47c0-.07-.03-.12 0-.16.24-.43.31-.95.75-1.27.48-.35.55-.89.6-1.43.1-1.01.03-2.01-.17-3-.05-.26.01-.55-.01-.82-.09-.96-.2-1.92-.31-2.88-.05-.43-.29-.75-.65-.99-.26-.18-.51-.39-.75-.61-.52-.48-.65-1.1-.63-1.79.02-.76-.01-1.53-.6-2.13-.75-.77-1.03-1.78-1.38-2.76-.08-.22-.13-.45-.19-.67-.1-.35-.15-.37-.49-.26-.74.24-1.47.48-2.21.72-.2.06-.43.07-.44.36 0 .05-.08.11-.13.15-.43.33-1.15.23-1.47-.21-.6-.82-.62-1.39-.02-2.2.29-.4.64-.75.95-1.13.33-.4.64-.77.84-1.29.19-.51.68-.91 1.04-1.35.05-.06.12-.1.18-.14.35-.26.34-.26.04-.58-.07-.07-.13-.15-.16-.24-.21-.49-.3-1.01-.28-1.64.1.12.14.19.2.24.26.23.51.47.78.69.06.05.19.04.28.02.4-.09.8-.17 1.19-.29.39-.12.48-.09.73.24.04.06.19.11.25.08.34-.14.73-.22.98-.55.05-.06.16-.08.25-.12.03.09.11.19.09.28-.03.21-.08.42-.16.61-.08.21-.21.39-.33.63.28.06.55.09.8.17.16.05.32.16.44.29.36.37.69.79 1.06 1.15.39.37.76.74 1.01 1.23.21.42.39.88.95.99.06.01.11.14.15.22.1.22.18.45.29.66.18.34.19.33-.02.62.7.14 1.4.3 2.11.41.56.08 1.14.1 1.7.15h.87c.24-.01.48-.03.71-.04.99-.11 1.98-.22 2.98-.33.93-.1 1.86-.23 2.8-.31 1.08-.09 2.1.15 3 .78.69.48 1.32 1.01 1.63 1.8.29.75.45 1.53.54 2.34.11.99-.29 1.89-.34 2.84-.04.73-.02 1.46 0 2.19.01.53.05 1.06.09 1.59.07.79.18 1.57.23 2.35.04.52.03 1.04 0 1.56s-.11 1.04-.18 1.55c-.02.13-.08.26-.12.39-.08.25-.15.51-.23.76-.05.16-.12.33-.18.49-.36-.08-.32-.41-.44-.68-.17.26-.35.49-.47.75-.05.1.03.28.08.41.17.37.11.55-.29.64-.37.08-.76.12-1.15.15-.11 0-.23-.06-.37-.1.31-.6.74-1.13.86-1.73.22-1.08.27-2.2.38-3.3.01-.14-.05-.29-.09-.42-.04-.12-.1-.23-.22-.35-.18.67-.39 1.34-.54 2.01-.18.77-.32 1.56-.47 2.34-.07.36-.23.62-.64.69-.26.05-.44.19-.36.51.05.23-.09.41-.3.42-.47.03-.95.04-1.41 0-.32-.04-.33-.16-.14-.41.18-.23.33-.48.54-.69.15-.15.36-.26.55-.37.24-.14.48-.24.45-.6 0-.14.09-.29.15-.43.41-.87.71-1.78.62-2.75-.05-.57-.24-1.13-.4-1.69-.15-.52-.34-1.03-.53-1.54-.38-1.02-.77-2.03-1.16-3.04-.03-.09-.09-.17-.15-.27-.21.17-.4.35-.61.5-1.26.85-2.64 1.29-4.17 1.28-.54 0-1.08.04-1.61-.01-.57-.06-1.14-.21-1.71-.3-.5-.08-1-.14-1.5-.21-.19-.03-.26.06-.25.25.07 1.01.14 2.02.19 3.04.02.4.04.8-.03 1.19-.1.6-.01 1.17.09 1.75.05.3.14.6.2.91.06.29-.04.54-.24.74-.25.26-.26.43-.11.72.05.1.05.3-.01.39-.33.47-.96.63-1.51.44-.22-.08-.28-.2-.17-.4.21-.39.32-.83.66-1.15.11-.1.14-.31.16-.48.03-.24.02-.49.02-.73v-.12Zm14.93-4.9c.24-.73.2-1.44.19-2.18-.39.66-.57 1.33-.19 2.18Z"/></svg>
